OFF
358 288 0

27.1793 -49.1303 -7.79483
32.8741 -2.43803 -10.8807
27.1793 -49.1303 -10.8807
27.1793 -49.1303 -4.71145
27.1793 -49.1303 35.1817
34.5677 15.1114 -26.3179
7.56497 11.505 -13.8313
-37.1209 5.53686 -13.8313
34.5677 15.1114 -13.8313
34.5677 15.1114 -20.4987
32.8741 -2.43803 -35.7723
-10.8086 -8.25717 -35.7723
-39.9629 -12.1409 -35.7723
45.484 -39.1579 47.4645
45.7996 -39.3318 47.4645
45.7996 -39.3318 50.4141
42.9126 -43.8254 50.4141
43.2283 -43.9993 50.4141
48.046 -35.2541 50.4141
47.7304 -35.0802 50.4141
-44.8563 9.37379 -10.8807
-44.8563 9.37379 -13.8313
-44.7631 9.54325 -13.8313
-44.7631 9.54325 -10.8807
48.9547 -32.8579 47.4645
49.2704 -33.0318 47.4645
49.2704 -33.0318 52.8861
-10.8086 -8.25717 -10.8807
48.9547 -32.8579 52.8861
48.2393 -10.9028 -10.8807
47.7304 -35.0802 47.4645
48.046 -35.2541 47.4645
48.046 -35.2541 52.8861
43.2283 -43.9993 47.4645
-39.0701 6.55872 -13.8313
51.6387 -27.986 44.296
56.0996 -30.4436 44.296
56.0996 -30.4436 44.6954
47.3759 -46.2841 44.296
-39.6725 5.19606 -10.8807
-39.0701 6.55872 -7.79483
-39.6725 5.19606 -7.79483
-37.1209 5.53686 -7.79483
41.8107 -22.5718 44.6954
47.3591 -25.6284 44.6954
41.8107 -22.5718 44.296
33.0845 -38.4113 44.296
-53.043 13.884 -16.9632
13.5363 8.21536 23.0057
-37.6248 -13.429 -39.5136
13.5363 8.21536 19.9198
12.9999 12.2309 19.9198
43.3719 -19.738 44.296
-39.0701 6.55872 -10.8807
-19.4776 -9.41199 4.49268
-20.2962 -3.28337 1.52681
-20.2962 -3.28337 4.49268
-12.792 -8.52138 4.49268
57.6603 -27.6098 44.296
45.484 -39.1579 50.4141
43.3088 -37.9596 50.4141
43.3088 -37.9596 47.4645
40.7373 -42.6271 50.4141
45.5554 -33.8819 50.4141
48.9203 -22.7947 44.296
53.1998 -25.1524 44.296
53.1998 -25.1524 44.6954
51.6387 -27.986 44.6954
56.0996 -30.4436 47.4645
51.6387 -27.986 47.4645
40.9728 -1.35918 35.1817
38.6312 -5.60962 38.2172
25.9201 -3.3644 29.0795
25.2342 1.7709 25.8641
25.2342 1.7709 29.0795
25.9201 -3.3644 25.8641
41.8107 -22.5718 47.4645
-60.5295 2.41046 -13.8313
-60.5295 2.41046 -16.9632
-61.8908 -0.0606259 -16.9632
45.5554 -33.8819 47.4645
45.5554 -33.8819 52.8861
40.7373 -42.6271 47.4645
37.1686 -40.6612 44.6954
31.2634 -51.3803 47.4645
37.1686 -40.6612 47.4645
31.2634 -51.3803 44.6954
-53.0286 13.876 -13.8313
20.734 -4.05526 25.8641
20.734 -4.05526 23.0057
37.0072 -54.5446 44.296
58.0673 -16.3171 44.296
-21.7485 7.58996 1.52681
-21.7485 7.58996 4.49268
-15.0632 8.48283 4.49268
-61.8908 -0.0606259 -13.8313
-15.0632 8.48283 1.52681
-25.788 -0.40431 -1.5259
-26.7663 6.9198 -1.5259
-26.7663 6.9198 1.52681
7.56497 11.505 1.52681
32.8741 -2.43803 1.52681
-47.7485 4.11745 -10.8807
53.7877 -13.9595 44.296
32.7276 -52.1869 44.296
-53.9474 14.3581 -16.9632
-53.9474 14.3581 -13.8313
-39.2026 6.25905 -10.8807
18.4612 12.9603 25.8641
19.5365 4.90977 25.8641
18.4612 12.9603 23.0057
19.5365 4.90977 23.0057
12.9999 12.2309 23.0057
23.6471 13.6529 25.8641
23.6471 13.6529 29.0795
32.8741 -2.43803 -7.79483
7.56497 11.505 -7.79483
47.3759 -46.2841 44.6954
42.9126 -43.8254 44.6954
42.9126 -43.8254 47.4645
47.3759 -46.2841 47.4645
23.6471 13.6529 23.0057
7.56497 11.505 -20.4987
56.0512 3.27698 25.8641
34.5677 15.1114 25.8641
48.8417 -9.80937 44.296
48.8417 -9.80937 40.8951
63.1288 -17.6801 40.8951
63.1288 -17.6801 44.296
38.6329 -41.4678 44.6954
33.0845 -38.4113 47.4645
33.0845 -38.4113 44.6954
-24.4956 -10.0805 1.52681
-24.4956 -10.0805 -1.5259
-25.788 -0.40431 1.52681
38.6329 -41.4678 47.4645
48.9203 -22.7947 47.4645
53.1998 -25.1524 47.4645
-37.1209 5.53686 -10.8807
-45.8933 -8.8738 -7.79483
-53.043 13.884 -20.4987
-47.7485 4.11745 -13.8313
51.9543 -28.1599 47.4645
-45.8933 -8.8738 -10.8807
-52.8024 -5.06753 -10.8807
-69.6726 22.6019 -40.066
-45.1037 28.2611 -23.4186
54.489 0.441366 38.2172
56.0512 3.27698 19.9198
34.5677 15.1114 19.9198
43.4509 -32.7225 47.4645
32.8741 -2.43803 29.0795
56.0512 3.27698 40.8951
59.8921 1.16114 40.8951
-31.8787 2.7887 -4.71145
-31.8787 2.7887 -1.5259
-30.0608 -10.8218 -4.71145
47.3591 -25.6284 52.8861
-69.6726 22.6019 -23.4186
51.6387 -27.986 52.8861
-39.9629 -12.1409 -52.8861
56.0512 3.27698 -52.8861
27.1793 -49.1303 -52.8861
47.3591 -25.6284 47.4645
34.5677 15.1114 16.6576
48.9203 -22.7947 52.8861
53.1998 -25.1524 52.8861
32.8741 -2.43803 35.1817
48.2393 -10.9028 35.1817
46.4428 8.56985 35.1817
46.4428 8.56985 38.2172
40.9728 -1.35918 38.2172
-7.4024 -7.80341 10.5726
-7.4024 -7.80341 7.6578
-9.67378 9.20263 7.6578
-9.67378 9.20263 10.5726
32.8741 -2.43803 -1.5259
-37.1209 5.53686 -20.4987
7.56497 11.505 -1.5259
-37.1202 5.5365 -4.71145
31.1601 14.6563 29.0795
31.1601 14.6563 32.0133
30.4893 -1.1242 32.0133
30.4893 -1.1242 29.0795
32.8741 -2.43803 -4.71145
-59.2509 2.58121 -13.8313
15.2724 -4.78282 19.9198
-10.8086 -8.25717 1.52681
15.2724 -4.78282 23.0057
-32.3312 6.17655 -1.5259
25.9201 -3.3644 23.0057
-32.3312 6.17655 -4.71145
-10.8086 -8.25717 -1.5259
7.56497 11.505 -4.71145
32.8337 -2.41574 29.0795
38.3267 13.0407 29.0795
-37.5821 -11.8238 -7.79483
48.9203 -22.7947 44.6954
-45.8933 -8.8738 -13.8313
-53.0284 13.8763 -13.8313
38.3267 13.0407 32.0133
-69.4851 22.9421 -20.4987
-37.1209 5.53686 -16.9632
48.2393 -10.9028 44.296
41.472 -57.0043 -52.8861
32.8337 -2.41574 32.0133
32.8741 -2.43803 25.8641
32.8337 -2.41574 35.1817
-30.0608 -10.8218 -1.5259
48.5652 -60.912 -35.7723
38.3267 13.0407 35.1817
47.3591 -25.6284 44.296
54.489 0.441366 -52.8861
27.1793 -49.1303 38.2172
34.5677 15.1114 -40.066
41.472 -57.0043 -35.7723
34.5677 15.1114 32.0133
56.0512 3.27698 32.0133
32.8741 -2.43803 32.0133
-65.2354 1.78194 -52.8861
48.5652 -60.912 -52.8861
34.5677 15.1114 23.0057
56.0512 3.27698 23.0057
-10.8086 -8.25717 -39.5136
38.6312 -5.60962 35.1817
-10.8086 -8.25717 4.49268
32.8741 -2.43803 4.49268
34.5677 15.1114 29.0795
-69.6726 22.6019 -16.9632
-69.6726 22.6019 -20.4987
56.0512 3.27698 29.0795
37.0072 -54.5446 44.6954
-54.6668 49.8401 -23.4186
-54.6668 49.8401 -26.3179
-38.2103 40.774 -26.3179
-32.1123 51.8429 -40.066
-38.2103 40.774 -23.4186
62.5265 -18.7738 -52.8861
-37.1209 5.53686 -4.71145
77.4388 -8.50463 -39.5136
69.6261 -22.685 -39.5136
77.4388 -8.50463 -52.8861
-10.8086 -8.25717 -4.71145
69.6261 -22.685 -52.8861
-2.1104 -7.09845 13.5844
-4.38203 9.90939 13.5844
62.5265 -18.7738 44.296
-4.38203 9.90939 10.5726
-4.38203 9.90939 7.6578
-2.1104 -7.09845 10.5726
-2.1104 -7.09845 7.6578
-37.1202 5.5365 -7.79483
-37.5821 -11.8238 -10.8807
32.8741 -2.43803 7.6578
47.7304 -35.0802 52.8861
-48.5693 60.9084 -52.8861
-61.5603 37.3271 -23.4186
70.3366 -4.59231 -52.8861
-61.5603 37.3271 -26.3179
-53.0284 13.8763 -16.9632
62.5265 -18.7738 -35.7723
-45.1037 28.2611 -26.3179
-48.5693 60.9084 -26.3179
-32.1123 51.8429 -26.3179
-53.0284 13.8763 -26.3179
9.93618 -5.49368 13.5844
7.56497 11.505 -39.5136
32.8741 -2.43803 13.5844
-69.6726 22.6019 -26.3179
9.93618 -5.49368 19.9198
7.67364 11.4451 16.6576
9.93618 -5.49368 16.6576
7.67364 11.4451 19.9198
70.3366 -4.59231 -39.5136
69.6261 -22.685 -35.7723
56.0512 3.27698 -39.5136
-30.0608 -10.8218 -7.79483
-65.2354 1.78194 -39.5136
32.7276 -52.1869 44.6954
27.1793 -49.1303 -35.7723
41.472 -57.0043 44.6954
7.56497 11.505 16.6576
43.4509 -32.7225 52.8861
27.1793 -49.1303 44.296
41.472 -57.0043 44.296
-53.0284 13.8763 -20.4987
-37.1209 5.53686 -40.066
3.3414 -6.37219 13.5844
32.8741 -2.43803 10.5726
34.5677 15.1114 -52.8861
3.3414 -6.37219 16.6576
-19.4776 -9.41199 1.52681
48.2393 -10.9028 38.2172
7.56497 11.505 10.5726
3.3414 -6.37219 10.5726
-77.4387 8.50488 -16.9632
1.06945 10.6375 10.5726
48.2393 -10.9028 40.8951
1.06945 10.6375 13.5844
56.0512 3.27698 16.6576
-12.9793 -7.11921 7.6578
-12.9793 -7.11921 4.49268
-15.0632 8.48283 7.6578
32.8741 -2.43803 16.6576
-77.4387 8.50488 -20.4987
59.8921 1.16114 -35.7723
70.3366 -4.59231 -35.7723
62.5265 -18.7738 40.8951
-10.8086 -8.25717 -7.79483
-39.9629 -12.1409 -7.79483
41.472 -57.0043 -39.5136
27.1793 -49.1303 44.6954
-39.9629 -12.1409 -16.9632
-52.8024 -5.06753 -13.8313
-69.4851 22.9421 -23.4186
-39.9629 -12.1409 -10.8807
32.8741 -2.43803 19.9198
-48.5693 60.9084 -40.066
-77.4387 8.50488 -52.8861
7.56497 11.505 4.49268
32.8741 -2.43803 23.0057
34.5677 15.1114 -39.5136
70.3366 -4.59231 40.8951
-37.1209 5.53686 -39.5136
7.56497 11.505 19.9198
48.2393 -10.9028 -35.7723
-37.5821 -11.8238 -4.71145
1.06945 10.6375 16.6576
27.1793 -49.1303 40.8951
-65.2354 1.78194 -16.9632
41.472 -57.0043 40.8951
-39.9629 -12.1409 -13.8313
-77.4387 8.50488 -40.066
27.1793 -49.1303 47.4645
-45.1037 28.2611 -20.4987
-53.0284 13.8763 -40.066
59.8921 1.16114 -39.5136
-12.792 -8.52138 1.52681
54.489 0.441366 40.8951
-10.8086 -8.25717 7.6578
-53.0284 13.8763 -23.4186
7.56497 11.505 7.6578
7.56497 11.505 13.5844
27.1793 -49.1303 -39.5136
-61.5603 37.3271 -20.4987
-69.4851 22.9421 -16.9632
48.5652 -60.912 -39.5136
-65.2354 1.78194 -20.4987
56.0512 3.27698 35.1817
-10.8086 -8.25717 -13.8313
77.4388 -8.50463 -35.7723
59.8921 1.16114 -52.8861
56.0512 3.27698 38.2172
-39.9629 -12.1409 -39.5136
48.2393 -10.9028 -39.5136
32.8741 -2.43803 -39.5136
-10.8086 -8.25717 -16.9632
-65.2354 1.78194 -40.066
4  257 241 239 273  255 0 0
6  257 351 212 162 204 237  255 0 0
4  257 237 243 241  255 0 0
4  257 273 336 351  255 0 0
4  204 162 343 310  255 0 0
4  289 255 318 219  255 0 0
5  289 161 275 321 214  255 0 0
4  219 318 332 357  255 0 0
5  219 160 212 161 289  255 0 0
5  289 214 235 317 255  255 0 0
5  219 357 277 353 160  255 0 0
5  214 321 266 323 286  255 0 0
5  357 332 304 347 277  255 0 0
4  214 286 335 235  255 0 0
5  162 160 353 49 343  255 0 0
15  161 351 336 305 153 152 352 348 217 230 123 222 148 299 275  255 0 0
3  161 212 351  255 0 0
3  162 212 160  255 0 0
5  321 5 9 122 266  255 0 0
7  275 299 164 8 9 5 321  255 0 0
4  353 12 11 223  255 0 0
7  277 347 329 79 312 12 353  255 0 0
4  343 279 215 310  255 0 0
4  343 354 325 279  255 0 0
6  353 223 355 354 343 49  255 0 0
4  355 223 11 10  255 0 0
4  266 122 177 323  255 0 0
4  317 235 263 262  255 0 0
6  317 262 233 258 268 145  255 0 0
6  332 145 268 158 229 304  255 0 0
6  235 335 264 261 234 263  255 0 0
4  204 220 243 237  255 0 0
4  204 310 346 220  255 0 0
4  229 158 314 201  255 0 0
4  229 228 295 304  255 0 0
4  285 259 47 140  255 0 0
4  229 201 345 228  255 0 0
4  285 334 146 340  255 0 0
5  285 140 201 344 334  255 0 0
5  145 332 318 255 317  255 0 0
4  356 11 12 312  255 0 0
6  356 349 27 1 10 11  255 0 0
4  329 347 304 295  255 0 0
4  312 331 349 356  255 0 0
5  202 177 122 6 7  255 0 0
6  312 79 95 313 198 331  255 0 0
3  329 78 79  255 0 0
4  273 306 305 336  255 0 0
4  310 215 209 346  255 0 0
4  273 239 350 306  255 0 0
4  338 147 352 152  255 0 0
5  331 315 252 27 349  255 0 0
4  331 198 143 315  255 0 0
5  185 141 313 95 77  255 0 0
4  355 10 325 354  255 0 0
5  147 338 126 297 292  255 0 0
4  352 170 169 348  255 0 0
4  147 171 170 352  255 0 0
4  27 308 115 1  255 0 0
4  315 309 196 252  255 0 0
5  138 7 6 116 42  255 0 0
4  315 143 139 309  255 0 0
5  27 252 196 276 308  255 0 0
4  167 218 205 207  255 0 0
5  348 169 210 200 217  255 0 0
5  167 207 210 169 70  255 0 0
4  226 101 187 225  255 0 0
19  226 253 288 267 303 316 320 206 151 218 167 224 168 29 1 115 184 176 101  255 0 0
6  319 341 248 174 302 94  255 0 0
12  319 100 178 193 116 6 8 164 281 342 293 341  255 0 0
6  225 339 173 250 253 226  255 0 0
4  225 187 337 57  255 0 0
4  319 94 96 100  255 0 0
4  225 301 300 339  255 0 0
4  281 324 272 270  255 0 0
4  303 267 265 271  255 0 0
4  281 327 298 342  255 0 0
5  303 271 269 186 316  255 0 0
5  281 270 271 290 327  255 0 0
4  240 243 220 346  255 0 0
4  346 209 274 240  255 0 0
4  215 330 307 260  255 0 0
5  260 307 127 322 306  255 0 0
4  209 215 260 274  255 0 0
5  267 288 294 287 265  255 0 0
4  342 298 296 293  255 0 0
5  164 149 51 324 281  255 0 0
4  299 148 149 164  255 0 0
3  225 57 301  255 0 0
5  158 268 258 256 314  255 0 0
4  340 146 261 264  255 0 0
4  151 206 75 72  255 0 0
4  151 194 205 218  255 0 0
5  151 72 74 183 194  255 0 0
5  341 293 296 247 248  255 0 0
5  253 250 249 294 288  255 0 0
5  339 300 302 174 173  255 0 0
4  10 1 29 325  255 0 0
4  325 29 2 279  255 0 0
7  297 203 52 45 46 283 328  255 0 0
4  297 126 125 203  255 0 0
5  259 199 106 105 47  255 0 0
5  329 295 228 105 78  255 0 0
4  138 42 40 53  255 0 0
4  7 138 53 34  255 0 0
6  202 7 34 22 199 259  255 0 0
7  323 177 285 340 264 335 286  255 0 0
4  259 285 177 202  255 0 0
9  279 2 0 3 4 213 328 330 215  255 0 0
4  333 311 131 130  255 0 0
4  333 84 86 311  255 0 0
4  333 130 85 84  255 0 0
6  328 283 104 90 284 330  255 0 0
4  328 213 292 297  255 0 0
7  330 284 38 36 58 246 307  255 0 0
4  307 246 128 127  255 0 0
4  306 322 153 305  255 0 0
4  240 274 350 239  255 0 0
5  322 127 126 338 153  255 0 0
6  320 316 186 188 89 190  255 0 0
4  320 190 75 206  255 0 0
4  265 287 290 271  255 0 0
4  274 260 306 350  255 0 0
4  314 256 344 201  255 0 0
4  242 308 276 156  255 0 0
4  242 192 176 184  255 0 0
5  238 42 116 193 191  255 0 0
5  242 156 208 133 192  255 0 0
4  238 179 251 42  255 0 0
4  308 242 184 115  255 0 0
6  309 139 41 42 251 196  255 0 0
4  301 56 93 94  255 0 0
4  94 93 92 96  255 0 0
4  302 300 301 94  255 0 0
5  185 77 106 199 87  255 0 0
4  287 244 245 298  255 0 0
4  298 245 247 296  255 0 0
4  294 249 244 287  255 0 0
4  292 168 224 71  255 0 0
4  292 71 171 147  255 0 0
4  327 290 287 298  255 0 0
4  146 236 234 261  255 0 0
4  256 232 236 146  255 0 0
4  334 344 256 146  255 0 0
4  284 280 117 38  255 0 0
5  283 311 86 278 104  255 0 0
4  283 46 131 311  255 0 0
4  284 90 231 280  255 0 0
4  246 58 65 91  255 0 0
4  203 103 64 52  255 0 0
4  280 231 118 117  255 0 0
4  278 231 90 104  255 0 0
4  278 86 83 129  255 0 0
4  278 129 118 231  255 0 0
4  156 326 179 154  255 0 0
4  276 196 326 156  255 0 0
4  272 50 186 269  255 0 0
4  272 269 271 270  255 0 0
4  263 234 233 262  255 0 0
4  258 233 232 256  255 0 0
4  249 172 175 247  255 0 0
4  250 173 172 249  255 0 0
4  247 175 174 248  255 0 0
4  245 244 249 247  255 0 0
4  240 239 241 243  255 0 0
4  236 232 233 234  255 0 0
5  227 124 123 230 195  255 0 0
4  227 216 181 180  255 0 0
4  230 217 200 195  255 0 0
4  227 195 200 216  255 0 0
5  227 180 114 113 124  255 0 0
4  222 123 124 221  255 0 0
4  221 124 113 121  255 0 0
4  221 149 148 222  255 0 0
6  221 121 110 112 51 149  255 0 0
5  216 200 205 182 181  255 0 0
4  114 180 183 74  255 0 0
4  207 205 200 210  255 0 0
4  143 144 102 39  255 0 0
4  41 139 143 39  255 0 0
4  192 187 101 176  255 0 0
6  192 133 132 291 337 187  255 0 0
4  198 313 144 143  255 0 0
4  326 196 251 179  255 0 0
6  203 125 128 246 91 103  255 0 0
4  194 183 182 205  255 0 0
5  193 178 98 189 191  255 0 0
4  154 179 238 191  255 0 0
6  178 100 96 92 99 98  255 0 0
4  189 98 97 155  255 0 0
4  155 97 133 208  255 0 0
4  189 155 154 191  255 0 0
4  48 111 89 188  255 0 0
4  48 188 186 50  255 0 0
4  199 22 21 87  255 0 0
4  185 87 21 141  255 0 0
4  190 89 88 75  255 0 0
4  75 88 109 73  255 0 0
4  136 163 44 197  255 0 0
4  182 183 180 181  255 0 0
4  175 172 173 174  255 0 0
4  171 70 169 170  255 0 0
4  228 345 47 105  255 0 0
4  168 292 213 4  255 0 0
3  167 70 224  255 0 0
4  137 69 159 166  255 0 0
4  166 159 157 165  255 0 0
4  165 157 163 136  255 0 0
4  166 165 136 137  255 0 0
5  135 150 80 61 82  255 0 0
4  119 82 62 16  255 0 0
6  163 150 135 85 130 76  255 0 0
4  69 24 28 159  255 0 0
4  69 137 66 67  255 0 0
6  159 28 254 81 282 157  255 0 0
4  157 282 150 163  255 0 0
4  155 208 156 154  255 0 0
3  153 338 152  255 0 0
4  30 13 61 80  255 0 0
5  282 81 63 80 150  255 0 0
4  30 80 63 19  255 0 0
4  254 19 63 81  255 0 0
4  272 324 51 50  255 0 0
4  102 144 313 141  255 0 0
4  39 102 20 107  255 0 0
4  137 136 197 66  255 0 0
5  135 82 119 118 129  255 0 0
4  134 55 291 132  255 0 0
4  134 132 133 97  255 0 0
4  131 43 76 130  255 0 0
4  135 129 83 85  255 0 0
4  128 125 126 127  255 0 0
4  73 109 108 113  255 0 0
4  113 108 110 121  255 0 0
4  117 37 36 38  255 0 0
4  120 68 37 117  255 0 0
7  120 33 14 31 25 142 68  255 0 0
5  120 117 118 119 33  255 0 0
4  74 73 113 114  255 0 0
4  112 110 111 48  255 0 0
4  109 111 110 108  255 0 0
4  106 77 78 105  255 0 0
4  103 91 65 64  255 0 0
4  197 44 211 64  255 0 0
4  99 92 55 134  255 0 0
4  99 134 97 98  255 0 0
4  56 301 57 54  255 0 0
4  93 56 55 92  255 0 0
4  109 88 89 111  255 0 0
4  107 20 23 53  255 0 0
4  20 102 141 21  255 0 0
4  85 83 86 84  255 0 0
4  82 61 60 62  255 0 0
4  77 95 79 78  255 0 0
4  43 131 46 45  255 0 0
4  163 76 43 44  255 0 0
4  74 72 75 73  255 0 0
4  171 71 224 70  255 0 0
4  67 66 65 35  255 0 0
4  69 142 25 24  255 0 0
5  69 67 37 68 142  255 0 0
4  64 211 45 52  255 0 0
4  66 197 64 65  255 0 0
4  16 62 60 59  255 0 0
4  13 30 31 14  255 0 0
4  60 61 13 59  255 0 0
4  58 36 35 65  255 0 0
4  337 291 54 57  255 0 0
4  56 54 291 55  255 0 0
4  112 48 50 51  255 0 0
4  47 345 201 140  255 0 0
4  44 43 45 211  255 0 0
3  42 41 40  255 0 0
4  53 23 22 34  255 0 0
5  41 39 107 53 40  255 0 0
4  254 28 26 32  255 0 0
4  119 16 17 33  255 0 0
4  67 35 36 37  255 0 0
4  33 17 15 14  255 0 0
5  32 26 25 31 18  255 0 0
4  254 32 18 19  255 0 0
4  30 19 18 31  255 0 0
4  28 24 25 26  255 0 0
4  23 20 21 22  255 0 0
4  17 16 59 15  255 0 0
4  59 13 14 15  255 0 0
4  9 8 6 122  255 0 0
6  4 3 0 2 29 168  255 0 0

