OFF
364 303 0

-60.9821 -0.561226 -52.8861
-53.0284 13.8763 -40.066
-32.1123 51.8429 -52.8861
-32.1123 51.8429 -40.066
-59.2509 2.58121 -52.8861
-60.9821 -0.561226 -39.5136
-60.9821 -0.561226 -16.9632
-60.9821 -0.561226 -13.8313
-59.2509 2.58121 -13.8313
-53.0286 13.876 -13.8313
-53.0284 13.8763 -13.8313
-53.0284 13.8763 -16.9632
-53.0284 13.8763 -20.4987
-53.0284 13.8763 -23.4186
-53.0284 13.8763 -26.3179
56.0512 3.27698 -52.8861
48.2393 -10.9028 -39.5136
27.1793 -49.1303 -52.8861
27.1793 -49.1303 -39.5136
54.489 0.441366 -52.8861
56.0512 3.27698 -39.5136
56.0512 3.27698 16.6576
56.0512 3.27698 19.9198
56.0512 3.27698 23.0057
56.0512 3.27698 25.8641
56.0512 3.27698 29.0795
56.0512 3.27698 32.0133
56.0512 3.27698 35.1817
56.0512 3.27698 38.2172
54.489 0.441366 38.2172
48.2393 -10.9028 38.2172
48.2393 -10.9028 35.1817
48.2393 -10.9028 -10.8807
48.2393 -10.9028 -35.7723
-37.6248 -13.429 -39.5136
27.1793 -49.1303 -7.79483
32.8741 -2.43803 -10.8807
-10.8086 -8.25717 -10.8807
27.1793 -49.1303 -10.8807
27.1793 -49.1303 -4.71145
27.1793 -49.1303 35.1817
34.5677 15.1114 -26.3179
27.1793 -49.1303 38.2172
7.56497 11.505 -13.8313
-37.1209 5.53686 -13.8313
34.5677 15.1114 -13.8313
7.56497 11.505 -20.4987
-37.1209 5.53686 -20.4987
34.5677 15.1114 -20.4987
-10.8086 -8.25717 -35.7723
32.8741 -2.43803 -35.7723
-39.9629 -12.1409 -35.7723
45.484 -39.1579 47.4645
45.7996 -39.3318 47.4645
45.7996 -39.3318 50.4141
45.484 -39.1579 50.4141
42.9126 -43.8254 50.4141
43.2283 -43.9993 50.4141
48.046 -35.2541 50.4141
47.7304 -35.0802 50.4141
-44.8563 9.37379 -10.8807
-44.8563 9.37379 -13.8313
-44.7631 9.54325 -13.8313
-44.7631 9.54325 -10.8807
48.9547 -32.8579 47.4645
49.2704 -33.0318 47.4645
49.2704 -33.0318 52.8861
48.9547 -32.8579 52.8861
48.046 -35.2541 52.8861
48.046 -35.2541 47.4645
47.7304 -35.0802 47.4645
47.7304 -35.0802 52.8861
43.2283 -43.9993 47.4645
51.9543 -28.1599 47.4645
-39.0701 6.55872 -10.8807
-39.0701 6.55872 -13.8313
51.6387 -27.986 44.296
56.0996 -30.4436 44.296
56.0996 -30.4436 44.6954
51.6387 -27.986 44.6954
47.3759 -46.2841 44.6954
47.3759 -46.2841 44.296
42.9126 -43.8254 47.4645
-39.6725 5.19606 -10.8807
-39.2026 6.25905 -10.8807
-39.0701 6.55872 -7.79483
-39.6725 5.19606 -7.79483
-37.1209 5.53686 -7.79483
41.8107 -22.5718 44.6954
41.8107 -22.5718 44.296
47.3591 -25.6284 44.296
47.3591 -25.6284 44.6954
33.0845 -38.4113 44.6954
33.0845 -38.4113 44.296
-69.4851 22.9421 -16.9632
-69.4851 22.9421 -20.4987
-53.043 13.884 -20.4987
-53.043 13.884 -16.9632
13.5363 8.21536 23.0057
13.5363 8.21536 19.9198
12.9999 12.2309 19.9198
12.9999 12.2309 23.0057
43.3719 -19.738 44.296
48.9203 -22.7947 44.296
-19.4776 -9.41199 4.49268
-19.4776 -9.41199 1.52681
-20.2962 -3.28337 1.52681
-20.2962 -3.28337 4.49268
-12.792 -8.52138 1.52681
-12.792 -8.52138 4.49268
-12.9793 -7.11921 4.49268
57.6603 -27.6098 44.296
53.1998 -25.1524 44.296
43.3088 -37.9596 47.4645
43.3088 -37.9596 50.4141
40.7373 -42.6271 50.4141
45.5554 -33.8819 50.4141
48.9203 -22.7947 44.6954
53.1998 -25.1524 44.6954
56.0996 -30.4436 47.4645
51.6387 -27.986 47.4645
38.6312 -5.60962 38.2172
38.6312 -5.60962 35.1817
40.9728 -1.35918 35.1817
40.9728 -1.35918 38.2172
25.9201 -3.3644 29.0795
25.9201 -3.3644 25.8641
25.2342 1.7709 25.8641
25.2342 1.7709 29.0795
41.8107 -22.5718 47.4645
47.3591 -25.6284 47.4645
-61.8908 -0.0606259 -13.8313
-61.8908 -0.0606259 -16.9632
-60.5295 2.41046 -16.9632
-60.5295 2.41046 -13.8313
40.7373 -42.6271 47.4645
45.5554 -33.8819 52.8861
45.5554 -33.8819 47.4645
37.1686 -40.6612 44.6954
31.2634 -51.3803 44.6954
31.2634 -51.3803 47.4645
37.1686 -40.6612 47.4645
-47.7485 4.11745 -10.8807
-47.7485 4.11745 -13.8313
20.734 -4.05526 25.8641
20.734 -4.05526 23.0057
19.5365 4.90977 23.0057
19.5365 4.90977 25.8641
37.0072 -54.5446 44.6954
37.0072 -54.5446 44.296
58.0673 -16.3171 44.296
-21.7485 7.58996 1.52681
-21.7485 7.58996 4.49268
-15.0632 8.48283 4.49268
-15.0632 8.48283 1.52681
-25.788 -0.40431 1.52681
-25.788 -0.40431 -1.5259
-26.7663 6.9198 -1.5259
-26.7663 6.9198 1.52681
7.56497 11.505 1.52681
-10.8086 -8.25717 1.52681
32.8741 -2.43803 1.52681
32.7276 -52.1869 44.6954
32.7276 -52.1869 44.296
53.7877 -13.9595 44.296
-53.9474 14.3581 -16.9632
-53.9474 14.3581 -13.8313
18.4612 12.9603 23.0057
18.4612 12.9603 25.8641
23.6471 13.6529 25.8641
23.6471 13.6529 29.0795
-10.8086 -8.25717 -7.79483
32.8741 -2.43803 -7.79483
7.56497 11.505 -7.79483
42.9126 -43.8254 44.6954
47.3759 -46.2841 47.4645
23.6471 13.6529 23.0057
34.5677 15.1114 25.8641
48.8417 -9.80937 44.296
48.8417 -9.80937 40.8951
63.1288 -17.6801 40.8951
63.1288 -17.6801 44.296
38.6329 -41.4678 44.6954
38.6329 -41.4678 47.4645
33.0845 -38.4113 47.4645
-24.4956 -10.0805 1.52681
-24.4956 -10.0805 -1.5259
48.9203 -22.7947 47.4645
53.1998 -25.1524 47.4645
7.67364 11.4451 19.9198
34.5677 15.1114 19.9198
43.4509 -32.7225 47.4645
43.4509 -32.7225 52.8861
54.489 0.441366 40.8951
56.0512 3.27698 40.8951
59.8921 1.16114 40.8951
-30.0608 -10.8218 -1.5259
-30.0608 -10.8218 -4.71145
-31.8787 2.7887 -4.71145
-31.8787 2.7887 -1.5259
47.3591 -25.6284 52.8861
51.6387 -27.986 52.8861
48.9203 -22.7947 52.8861
53.1998 -25.1524 52.8861
32.8741 -2.43803 35.1817
-69.6726 22.6019 -16.9632
46.4428 8.56985 35.1817
46.4428 8.56985 38.2172
-7.4024 -7.80341 10.5726
-7.4024 -7.80341 7.6578
-9.67378 9.20263 7.6578
-9.67378 9.20263 10.5726
30.4893 -1.1242 29.0795
31.1601 14.6563 29.0795
31.1601 14.6563 32.0133
30.4893 -1.1242 32.0133
25.9201 -3.3644 23.0057
15.2724 -4.78282 23.0057
15.2724 -4.78282 19.9198
-32.3312 6.17655 -4.71145
-32.3312 6.17655 -1.5259
7.56497 11.505 -1.5259
-10.8086 -8.25717 -1.5259
32.8741 -2.43803 -1.5259
-37.1209 5.53686 -4.71145
-37.1202 5.5365 -4.71145
7.56497 11.505 -4.71145
-10.8086 -8.25717 -4.71145
32.8741 -2.43803 -4.71145
32.8337 -2.41574 32.0133
32.8337 -2.41574 29.0795
38.3267 13.0407 32.0133
38.3267 13.0407 29.0795
62.5265 -18.7738 44.296
48.2393 -10.9028 44.296
-37.5821 -11.8238 -7.79483
-37.1202 5.5365 -7.79483
-37.5821 -11.8238 -4.71145
32.8741 -2.43803 25.8641
-45.8933 -8.8738 -10.8807
-45.8933 -8.8738 -13.8313
-45.8933 -8.8738 -7.79483
38.3267 13.0407 35.1817
32.8337 -2.41574 35.1817
34.5677 15.1114 32.0133
32.8741 -2.43803 32.0133
34.5677 15.1114 23.0057
34.5677 15.1114 29.0795
-37.1209 5.53686 -16.9632
-54.6668 49.8401 -23.4186
-54.6668 49.8401 -26.3179
-38.2103 40.774 -26.3179
-38.2103 40.774 -23.4186
-48.5693 60.9084 -26.3179
-69.6726 22.6019 -40.066
-77.4387 8.50488 -52.8861
-48.5693 60.9084 -40.066
-69.6726 22.6019 -26.3179
27.1793 -49.1303 44.296
41.472 -57.0043 44.296
-61.5603 37.3271 -20.4987
-61.5603 37.3271 -23.4186
-45.1037 28.2611 -23.4186
-45.1037 28.2611 -20.4987
3.3414 -6.37219 16.6576
3.3414 -6.37219 13.5844
1.06945 10.6375 13.5844
1.06945 10.6375 16.6576
3.3414 -6.37219 10.5726
1.06945 10.6375 10.5726
-12.9793 -7.11921 7.6578
-15.0632 8.48283 7.6578
-39.9629 -12.1409 -7.79483
-69.4851 22.9421 -23.4186
7.56497 11.505 19.9198
32.8741 -2.43803 19.9198
62.5265 -18.7738 -35.7723
70.3366 -4.59231 -35.7723
77.4388 -8.50463 -35.7723
69.6261 -22.685 -35.7723
9.93618 -5.49368 16.6576
9.93618 -5.49368 13.5844
7.67364 11.4451 16.6576
32.8741 -2.43803 23.0057
32.8741 -2.43803 10.5726
7.56497 11.505 10.5726
70.3366 -4.59231 40.8951
62.5265 -18.7738 40.8951
77.4388 -8.50463 -39.5136
69.6261 -22.685 -39.5136
59.8921 1.16114 -35.7723
27.1793 -49.1303 40.8951
41.472 -57.0043 40.8951
48.2393 -10.9028 40.8951
27.1793 -49.1303 47.4645
27.1793 -49.1303 -35.7723
41.472 -57.0043 -35.7723
-37.1209 5.53686 -40.066
-37.1209 5.53686 -39.5136
-37.1209 5.53686 -10.8807
-77.4387 8.50488 -16.9632
-65.2354 1.78194 -16.9632
-10.8086 -8.25717 7.6578
7.56497 11.505 7.6578
32.8741 -2.43803 7.6578
32.8741 -2.43803 29.0795
-69.6726 22.6019 -23.4186
-10.8086 -8.25717 4.49268
7.56497 11.505 16.6576
-52.8024 -5.06753 -10.8807
-52.8024 -5.06753 -13.8313
34.5677 15.1114 -39.5136
62.5265 -18.7738 -52.8861
-39.9629 -12.1409 -52.8861
41.472 -57.0043 -39.5136
70.3366 -4.59231 -39.5136
59.8921 1.16114 -39.5136
32.8741 -2.43803 -39.5136
77.4388 -8.50463 -52.8861
69.6261 -22.685 -52.8861
-69.6726 22.6019 -20.4987
-77.4387 8.50488 -20.4987
-65.2354 1.78194 -20.4987
-2.1104 -7.09845 13.5844
-2.1104 -7.09845 10.5726
-4.38203 9.90939 10.5726
-4.38203 9.90939 13.5844
-10.8086 -8.25717 -13.8313
-39.9629 -12.1409 -13.8313
-4.38203 9.90939 7.6578
-2.1104 -7.09845 7.6578
-10.8086 -8.25717 -16.9632
-37.5821 -11.8238 -10.8807
-39.9629 -12.1409 -16.9632
-61.5603 37.3271 -26.3179
-45.1037 28.2611 -26.3179
59.8921 1.16114 -52.8861
-77.4387 8.50488 -40.066
-32.1123 51.8429 -26.3179
-48.5693 60.9084 -52.8861
34.5677 15.1114 16.6576
7.56497 11.505 13.5844
32.8741 -2.43803 13.5844
9.93618 -5.49368 19.9198
41.472 -57.0043 -52.8861
-30.0608 -10.8218 -7.79483
48.5652 -60.912 -35.7723
-10.8086 -8.25717 -39.5136
27.1793 -49.1303 44.6954
48.5652 -60.912 -39.5136
41.472 -57.0043 44.6954
7.56497 11.505 -39.5136
48.5652 -60.912 -52.8861
-39.9629 -12.1409 -39.5136
32.8741 -2.43803 16.6576
7.56497 11.505 4.49268
-65.2354 1.78194 -39.5136
32.8741 -2.43803 4.49268
-39.9629 -12.1409 -10.8807
-65.2354 1.78194 -40.066
-65.2354 1.78194 -52.8861
34.5677 15.1114 -52.8861
34.5677 15.1114 -40.066
70.3366 -4.59231 -52.8861
4  363 318 288 315  255 0 0
6  363 336 19 17 344 312  255 0 0
4  363 312 319 318  255 0 0
4  363 315 316 336  255 0 0
4  344 17 18 314  255 0 0
3  361 2 4  0 0 255
5  361 15 20 311 362  0 0 255
4  360 255 337 359  0 255 0
3  360 0 4  0 255 0
4  361 362 3 2  0 0 255
5  360 4 2 339 255  0 255 0
6  361 4 0 313 19 15  0 0 255
5  360 359 356 5 0  0 255 0
5  362 311 351 298 297  0 0 255
5  359 337 321 322 356  0 255 0
4  362 297 1 3  0 0 255
5  17 313 353 34 18  0 0 255
15  15 336 316 290 195 194 28 27 26 25 24 23 22 21 20  255 0 0
3  15 19 336  255 0 0
3  17 19 313  0 0 255
4  313 0 5 353  0 0 255
5  311 41 48 46 351  0 0 255
7  20 21 340 45 48 41 311  0 0 255
4  353 51 49 347  0 0 255
6  356 322 301 132 6 5  0 255 0
5  353 5 6 333 51  0 0 255
4  18 295 296 314  255 0 0
4  18 16 33 295  255 0 0
6  353 347 317 16 18 34  0 0 255
4  317 347 49 50  0 0 255
4  351 46 47 298  0 0 255
4  256 3 338 253  0 255 0
6  256 253 250 334 257 254  0 255 0
6  337 254 257 306 320 321  0 255 0
4  3 256 339 2  0 255 0
6  3 1 14 335 251 338  0 255 0
4  344 352 319 312  255 0 0
4  344 314 349 352  255 0 0
4  320 306 273 95  0 255 0
4  320 205 300 321  0 255 0
4  12 11 97 96  0 255 0
4  320 95 94 205  0 255 0
4  12 263 262 13  0 255 0
5  12 96 95 260 263  0 255 0
5  254 337 255 339 256  0 255 0
4  331 49 51 333  0 0 255
6  331 327 37 36 50 49  0 0 255
4  301 322 321 300  0 255 0
4  333 328 327 331  0 0 255
5  248 47 46 43 44  0 0 255
6  333 6 7 310 240 328  0 0 255
3  301 133 132  0 255 0
4  315 277 290 316  255 0 0
4  314 296 346 349  255 0 0
4  315 288 278 277  255 0 0
4  193 29 28 194  255 0 0
5  328 358 332 37 327  0 0 255
4  328 240 239 358  0 0 255
4  8 143 310 7  0 0 255
4  317 50 33 16  0 0 255
5  29 193 179 293 30  255 0 0
4  28 207 206 27  0 0 255
4  29 124 207 28  0 0 255
4  37 171 172 36  0 0 255
4  358 272 235 332  0 0 255
5  299 44 43 173 87  0 0 255
4  358 239 241 272  0 0 255
5  37 332 235 345 171  0 0 255
4  204 245 229 243  0 0 255
5  27 206 242 231 26  0 0 255
5  204 243 242 206 123  0 0 255
4  357 161 160 307  0 0 255
19  357 304 284 342 354 275 283 238 305 245 204 122 31 32 36 172 228 223 161  0 0 255
6  355 303 329 210 271 153  0 0 255
12  355 159 221 226 173 43 45 340 308 341 285 303  0 0 255
6  307 302 209 330 304 357  0 0 255
4  307 160 108 109  0 0 255
4  355 153 154 159  0 0 255
4  307 110 270 302  0 0 255
4  308 274 189 282  0 0 255
4  354 342 281 280  0 0 255
4  308 267 266 341  0 0 255
5  354 280 343 218 275  0 0 255
5  308 282 280 264 267  0 0 255
4  289 319 352 349  255 0 0
4  349 346 279 289  255 0 0
4  296 292 287 276  255 0 0
5  276 287 180 286 277  255 0 0
4  346 296 276 279  255 0 0
5  342 284 268 265 281  0 0 255
4  341 266 269 285  0 0 255
5  340 190 100 274 308  0 0 255
4  21 22 190 340  0 0 255
3  307 109 110  0 0 255
5  306 257 334 261 273  0 255 0
4  13 262 335 14  0 255 0
4  305 238 126 125  0 0 255
4  305 230 229 245  0 0 255
5  305 125 128 212 230  0 0 255
5  303 285 269 325 329  0 0 255
5  304 330 324 268 284  0 0 255
5  302 270 271 210 209  0 0 255
4  50 36 32 33  0 0 255
4  33 32 38 295  255 0 0
7  293 234 102 89 93 258 291  255 0 0
4  293 179 178 234  255 0 0
5  11 10 166 165 97  0 255 0
5  301 300 205 165 133  0 255 0
4  299 87 85 74  0 0 255
4  44 299 74 75  0 0 255
6  248 44 75 62 10 11  0 0 255
7  298 47 12 13 14 1 297  0 0 255
4  11 12 47 248  0 0 255
9  295 38 35 39 40 42 291 292 296  255 0 0
4  294 348 92 184  255 0 0
4  294 140 139 348  255 0 0
4  294 184 141 140  255 0 0
6  291 258 163 149 259 292  255 0 0
4  291 42 30 293  255 0 0
7  292 259 81 77 111 233 287  255 0 0
4  287 233 181 180  255 0 0
4  277 286 195 290  255 0 0
4  289 279 278 288  255 0 0
5  286 180 179 193 195  255 0 0
6  283 275 218 217 145 216  0 0 255
4  283 216 126 238  0 0 255
4  281 265 264 280  0 0 255
4  279 276 277 278  255 0 0
4  273 261 260 95  0 255 0
4  227 171 345 197  0 0 255
4  227 222 223 228  0 0 255
5  224 87 173 226 219  0 0 255
5  227 197 196 186 222  0 0 255
4  224 225 236 87  0 0 255
4  171 227 228 172  0 0 255
6  272 241 86 87 236 235  0 0 255
4  110 107 152 153  0 0 255
4  153 152 151 154  0 0 255
4  271 270 110 153  0 0 255
5  8 134 166 10 9  0 255 0
4  265 323 326 266  0 0 255
4  266 326 325 269  0 0 255
4  268 324 323 265  0 0 255
4  30 31 122 121  0 0 255
4  30 121 124 29  0 0 255
4  267 264 265 266  0 0 255
4  262 252 251 335  0 255 0
4  261 249 252 262  0 255 0
4  263 260 261 262  0 255 0
4  259 350 80 81  255 0 0
5  258 348 139 162 163  255 0 0
4  258 93 92 348  255 0 0
4  259 149 148 350  255 0 0
4  233 111 112 150  255 0 0
4  234 164 103 102  255 0 0
4  350 148 174 80  255 0 0
4  162 148 149 163  255 0 0
4  162 139 138 182  255 0 0
4  162 182 174 148  255 0 0
4  197 237 225 198  0 0 255
4  345 235 237 197  0 0 255
4  189 99 218 343  0 0 255
4  189 343 280 282  0 0 255
4  338 251 250 253  0 255 0
4  334 250 249 261  0 255 0
4  324 208 211 325  0 0 255
4  330 209 208 324  0 0 255
4  325 211 210 329  0 0 255
4  326 323 324 325  0 0 255
4  289 288 318 319  255 0 0
4  252 249 250 251  0 255 0
5  247 177 24 25 232  0 0 255
4  247 244 214 213  0 0 255
4  25 26 231 232  0 0 255
4  247 232 231 244  0 0 255
5  247 213 170 169 177  0 0 255
4  23 24 177 246  0 0 255
4  246 177 169 176  0 0 255
4  246 190 22 23  0 0 255
6  246 176 167 101 100 190  0 0 255
5  244 231 229 215 214  0 0 255
4  170 213 212 128  0 0 255
4  243 229 231 242  0 0 255
4  239 309 142 83  0 0 255
4  86 241 239 83  0 0 255
4  222 160 161 223  0 0 255
6  222 186 185 105 108 160  0 0 255
4  240 310 309 239  0 0 255
4  237 235 236 225  0 0 255
6  234 178 181 233 150 164  255 0 0
4  230 212 215 229  0 0 255
5  226 221 157 220 219  0 0 255
4  198 225 224 219  0 0 255
6  221 159 154 151 158 157  0 0 255
4  220 157 156 199  0 0 255
4  199 156 186 196  0 0 255
4  220 199 198 219  0 0 255
4  98 146 145 217  0 0 255
4  98 217 218 99  0 0 255
4  10 62 61 9  0 0 255
4  8 9 61 143  0 0 255
4  216 145 144 126  0 0 255
4  126 144 147 127  0 0 255
4  187 130 91 117  255 0 0
4  215 212 213 214  0 0 255
4  211 208 209 210  0 0 255
4  124 123 206 207  0 0 255
4  205 94 97 165  0 255 0
4  31 30 42 40  255 0 0
3  204 123 122  0 0 255
4  188 120 201 203  255 0 0
4  203 201 200 202  255 0 0
4  202 200 130 187  255 0 0
4  203 202 187 188  255 0 0
5  183 191 137 113 135  255 0 0
4  82 135 115 56  255 0 0
6  130 191 183 141 184 129  255 0 0
4  120 64 67 201  255 0 0
4  120 188 118 79  255 0 0
6  201 67 71 136 192 200  255 0 0
4  200 192 191 130  255 0 0
4  199 196 197 198  0 0 255
3  195 193 194  255 0 0
4  70 52 113 137  255 0 0
5  192 136 116 137 191  255 0 0
4  70 137 116 59  255 0 0
4  71 59 116 136  255 0 0
4  189 274 100 99  0 0 255
4  134 8 7 131  0 255 0
4  131 7 6 132  0 255 0
4  142 309 310 143  0 0 255
4  83 142 60 84  0 0 255
4  188 187 117 118  255 0 0
5  183 135 82 174 182  255 0 0
4  155 106 105 185  0 0 255
4  155 185 186 156  0 0 255
4  92 88 129 184  255 0 0
4  183 182 138 141  255 0 0
4  181 178 179 180  255 0 0
4  127 147 168 169  0 0 255
4  169 168 167 176  0 0 255
4  80 78 77 81  255 0 0
4  175 119 78 80  255 0 0
7  175 72 53 69 65 73 119  255 0 0
5  175 80 174 82 72  255 0 0
4  128 127 169 170  0 0 255
4  101 167 146 98  0 0 255
4  147 146 167 168  0 0 255
4  166 134 133 165  0 255 0
4  164 150 112 103  255 0 0
4  117 91 90 103  255 0 0
4  158 151 106 155  0 0 255
4  158 155 156 157  0 0 255
4  107 110 109 104  0 0 255
4  152 107 106 151  0 0 255
4  147 144 145 146  0 0 255
4  84 60 63 74  0 0 255
4  60 142 143 61  0 0 255
4  141 138 139 140  255 0 0
4  135 113 114 115  255 0 0
4  134 131 132 133  0 255 0
4  88 92 93 89  255 0 0
4  130 129 88 91  255 0 0
4  128 125 126 127  0 0 255
4  124 121 122 123  0 0 255
4  79 118 112 76  255 0 0
4  120 73 65 64  255 0 0
5  120 79 78 119 73  255 0 0
4  103 90 89 102  255 0 0
4  118 117 103 112  255 0 0
4  56 115 114 55  255 0 0
4  52 70 69 53  255 0 0
4  114 113 52 55  255 0 0
4  111 77 76 112  255 0 0
4  108 105 104 109  0 0 255
4  107 104 105 106  0 0 255
4  101 98 99 100  0 0 255
4  97 94 95 96  0 255 0
4  91 88 89 90  255 0 0
3  87 86 85  0 0 255
4  74 63 62 75  0 0 255
5  86 83 84 74 85  0 0 255
4  71 67 66 68  255 0 0
4  82 56 57 72  255 0 0
4  79 76 77 78  255 0 0
4  72 57 54 53  255 0 0
5  68 66 65 69 58  255 0 0
4  71 68 58 59  255 0 0
4  70 59 58 69  255 0 0
4  67 64 65 66  255 0 0
4  63 60 61 62  0 0 255
4  57 56 55 54  255 0 0
4  55 52 53 54  255 0 0
4  48 45 43 46  0 0 255
6  40 39 35 38 32 31  255 0 0
5  16 18 17 19 15  255 0 0
5  18 16 15 19 17  0 0 255
16  33 16 15 20 21 22 23 24 25 26 27 28 29 30 31 32  255 0 0
16  16 33 32 31 30 29 28 27 26 25 24 23 22 21 20 15  0 0 255
5  1 3 2 4 0  0 255 0
5  3 1 0 4 2  0 0 255
12  14 1 0 5 6 7 8 9 10 11 12 13  0 255 0
12  1 14 13 12 11 10 9 8 7 6 5 0  0 0 255

