OFF
379 352 0

-37.1209 5.53686 -7.79483
-37.1209 5.53686 -39.5136
-37.1209 5.53666 -39.5136
-40.222 -11.9982 -39.5136
-40.222 -11.9982 -16.9632
-40.222 -11.9982 -13.8313
-40.222 -11.9982 -10.8807
-40.222 -11.9982 -7.79483
-37.1209 5.53686 -4.71145
-37.1209 5.53686 -4.71145
-37.1209 5.53686 -7.79483
-37.1209 5.53686 -13.8313
-37.1209 5.53686 -20.4987
32.8741 -2.43803 1.52681
32.8741 -2.43803 4.49268
32.8741 -2.43803 -1.5259
32.8741 -2.43803 -4.71145
32.8741 -2.43803 -7.79483
32.8741 -2.43803 -10.8807
32.8741 -2.43803 -35.7723
32.8741 -2.43803 -39.5136
7.56497 11.505 -39.5136
7.56497 11.505 -20.4987
7.56497 11.505 -13.8313
7.56497 11.505 -7.79483
7.56497 11.505 -4.71145
7.56497 11.505 -1.5259
7.56497 11.505 1.52681
7.56497 11.505 4.49268
7.56497 11.505 7.6578
7.56497 11.505 10.5726
7.56497 11.505 13.5844
7.56497 11.505 16.6576
7.67364 11.4451 16.6576
7.67364 11.4451 19.9198
13.5363 8.21536 19.9198
13.5363 8.21536 23.0057
19.5365 4.90977 23.0057
19.5365 4.90977 25.8641
25.2342 1.7709 25.8641
25.2342 1.7709 29.0795
30.4893 -1.1242 29.0795
32.8337 -2.41574 29.0795
56.0512 3.27698 -35.7723
-60.9821 -0.561226 -52.8861
-53.0284 13.8763 -40.066
-32.1123 51.8429 -52.8861
-32.1123 51.8429 -40.066
-59.2509 2.58121 -52.8861
-60.9821 -0.561226 -39.5136
-60.9821 -0.561226 -16.9632
-60.9821 -0.561226 -13.8313
-59.2509 2.58121 -13.8313
-53.0286 13.876 -13.8313
-53.0284 13.8763 -13.8313
-53.0284 13.8763 -16.9632
-53.0284 13.8763 -20.4987
-53.0284 13.8763 -23.4186
-53.0284 13.8763 -26.3179
54.489 0.441366 38.2172
48.2393 -10.9028 35.1817
48.2393 -10.9028 38.2172
48.2393 -10.9028 -10.8807
34.5677 15.1114 -20.4987
-44.8563 9.37379 -13.8313
-44.7631 9.54325 -13.8313
-44.7631 9.54325 -10.8807
-44.8563 9.37379 -10.8807
48.9547 -32.8579 47.4645
49.2704 -33.0318 47.4645
49.2704 -33.0318 52.8861
48.9547 -32.8579 52.8861
48.046 -35.2541 52.8861
48.046 -35.2541 47.4645
47.7304 -35.0802 47.4645
47.7304 -35.0802 50.4141
47.7304 -35.0802 52.8861
43.2283 -43.9993 47.4645
51.9543 -28.1599 47.4645
-39.0701 6.55872 -10.8807
-39.0701 6.55872 -13.8313
51.6387 -27.986 44.296
56.0996 -30.4436 44.296
56.0996 -30.4436 44.6954
51.6387 -27.986 44.6954
47.3759 -46.2841 44.6954
47.3759 -46.2841 44.296
42.9126 -43.8254 47.4645
-39.6725 5.19606 -10.8807
-39.2026 6.25905 -10.8807
-39.0701 6.55872 -7.79483
-39.6725 5.19606 -7.79483
-37.1209 5.53686 -7.79483
41.8107 -22.5718 44.6954
41.8107 -22.5718 44.296
47.3591 -25.6284 44.296
47.3591 -25.6284 44.6954
33.0845 -38.4113 44.6954
33.0845 -38.4113 44.296
-69.4851 22.9421 -16.9632
-69.4851 22.9421 -20.4987
-53.043 13.884 -20.4987
-53.043 13.884 -16.9632
12.9999 12.2309 19.9198
12.9999 12.2309 23.0057
43.3719 -19.738 44.296
48.9203 -22.7947 44.296
-19.4776 -9.41199 4.49268
-19.4776 -9.41199 1.52681
-20.2962 -3.28337 1.52681
-20.2962 -3.28337 4.49268
-12.792 -8.52138 1.52681
-12.792 -8.52138 4.49268
-12.9793 -7.11921 4.49268
57.6603 -27.6098 44.296
53.1998 -25.1524 44.296
43.3088 -37.9596 47.4645
45.484 -39.1579 47.4645
45.484 -39.1579 50.4141
43.3088 -37.9596 50.4141
40.7373 -42.6271 50.4141
42.9126 -43.8254 50.4141
45.5554 -33.8819 50.4141
48.9203 -22.7947 44.6954
53.1998 -25.1524 44.6954
56.0996 -30.4436 47.4645
51.6387 -27.986 47.4645
38.6312 -5.60962 38.2172
38.6312 -5.60962 35.1817
40.9728 -1.35918 35.1817
40.9728 -1.35918 38.2172
25.9201 -3.3644 29.0795
25.9201 -3.3644 25.8641
41.8107 -22.5718 47.4645
47.3591 -25.6284 47.4645
-61.8908 -0.0606259 -13.8313
-61.8908 -0.0606259 -16.9632
-60.5295 2.41046 -16.9632
-60.5295 2.41046 -13.8313
40.7373 -42.6271 47.4645
45.5554 -33.8819 52.8861
45.5554 -33.8819 47.4645
37.1686 -40.6612 44.6954
31.2634 -51.3803 44.6954
31.2634 -51.3803 47.4645
37.1686 -40.6612 47.4645
-47.7485 4.11745 -10.8807
-47.7485 4.11745 -13.8313
20.734 -4.05526 25.8641
20.734 -4.05526 23.0057
37.0072 -54.5446 44.6954
37.0072 -54.5446 44.296
58.0673 -16.3171 44.296
-21.7485 7.58996 1.52681
-21.7485 7.58996 4.49268
-15.0632 8.48283 4.49268
-15.0632 8.48283 1.52681
-25.788 -0.40431 1.52681
-25.788 -0.40431 -1.5259
-26.7663 6.9198 -1.5259
-26.7663 6.9198 1.52681
-10.8086 -8.25717 1.52681
32.7276 -52.1869 44.6954
32.7276 -52.1869 44.296
53.7877 -13.9595 44.296
-53.9474 14.3581 -16.9632
-53.9474 14.3581 -13.8313
18.4612 12.9603 23.0057
18.4612 12.9603 25.8641
23.6471 13.6529 25.8641
23.6471 13.6529 29.0795
-10.8086 -8.25717 -7.79483
42.9126 -43.8254 44.6954
47.3759 -46.2841 47.4645
23.6471 13.6529 23.0057
34.5677 15.1114 25.8641
56.0512 3.27698 25.8641
48.8417 -9.80937 44.296
48.8417 -9.80937 40.8951
63.1288 -17.6801 40.8951
63.1288 -17.6801 44.296
38.6329 -41.4678 44.6954
38.6329 -41.4678 47.4645
33.0845 -38.4113 47.4645
-24.4956 -10.0805 1.52681
-24.4956 -10.0805 -1.5259
48.9203 -22.7947 47.4645
53.1998 -25.1524 47.4645
34.5677 15.1114 19.9198
56.0512 3.27698 19.9198
43.4509 -32.7225 47.4645
43.4509 -32.7225 52.8861
54.489 0.441366 40.8951
56.0512 3.27698 40.8951
59.8921 1.16114 40.8951
-30.0608 -10.8218 -1.5259
-30.0608 -10.8218 -4.71145
-31.8787 2.7887 -4.71145
-31.8787 2.7887 -1.5259
-7.4024 -7.80341 10.5726
-9.67378 9.20263 7.6578
-9.67378 9.20263 10.5726
-32.3312 6.17655 -4.71145
-32.3312 6.17655 -1.5259
-37.1202 5.5365 -7.79483
-37.1202 5.5365 -4.71145
-37.5821 -11.8238 -4.71145
-37.5821 -11.8238 -7.79483
32.8741 -2.43803 25.8641
-45.8933 -8.8738 -10.8807
-45.8933 -8.8738 -13.8313
-10.8086 -8.25717 -1.5259
-45.8933 -8.8738 -7.79483
32.8337 -2.41574 32.0133
38.3267 13.0407 32.0133
38.3267 13.0407 35.1817
32.8337 -2.41574 35.1817
34.5677 15.1114 32.0133
56.0512 3.27698 32.0133
32.8741 -2.43803 32.0133
34.5677 15.1114 23.0057
56.0512 3.27698 23.0057
34.5677 15.1114 29.0795
56.0512 3.27698 29.0795
-37.1209 5.53686 -16.9632
-54.6668 49.8401 -23.4186
-54.6668 49.8401 -26.3179
-38.2103 40.774 -26.3179
-38.2103 40.774 -23.4186
77.4388 -8.50463 -39.5136
77.4388 -8.50463 -52.8861
69.6261 -22.685 -52.8861
69.6261 -22.685 -39.5136
-2.1104 -7.09845 13.5844
-2.1104 -7.09845 10.5726
-4.38203 9.90939 10.5726
-4.38203 9.90939 13.5844
-4.38203 9.90939 7.6578
-2.1104 -7.09845 7.6578
-37.5821 -11.8238 -10.8807
-61.5603 37.3271 -23.4186
-61.5603 37.3271 -26.3179
-45.1037 28.2611 -23.4186
-45.1037 28.2611 -26.3179
-48.5693 60.9084 -26.3179
-32.1123 51.8429 -26.3179
-69.6726 22.6019 -26.3179
9.93618 -5.49368 19.9198
9.93618 -5.49368 16.6576
-30.0608 -10.8218 -7.79483
41.472 -57.0043 44.6954
27.1793 -49.1303 44.6954
48.2393 -10.9028 44.296
62.5265 -18.7738 44.296
41.472 -57.0043 44.296
27.1793 -49.1303 44.296
-61.5603 37.3271 -20.4987
-45.1037 28.2611 -20.4987
3.3414 -6.37219 16.6576
3.3414 -6.37219 13.5844
1.06945 10.6375 13.5844
1.06945 10.6375 16.6576
3.3414 -6.37219 10.5726
1.06945 10.6375 10.5726
7.56497 11.505 19.9198
32.8741 -2.43803 19.9198
62.5265 -18.7738 -35.7723
70.3366 -4.59231 -35.7723
70.3366 -4.59231 40.8951
62.5265 -18.7738 40.8951
59.8921 1.16114 -35.7723
27.1793 -49.1303 40.8951
41.472 -57.0043 40.8951
48.2393 -10.9028 40.8951
27.1793 -49.1303 47.4645
48.2393 -10.9028 -35.7723
27.1793 -49.1303 -35.7723
41.472 -57.0043 -35.7723
-37.1209 5.53686 -20.4987
-65.2354 1.78194 -52.8861
34.5677 15.1114 -52.8861
-37.1209 5.53686 -40.066
-37.1209 5.53686 -39.5136
-37.1209 5.53686 -13.8313
41.472 -57.0043 -52.8861
-37.1209 5.53686 -10.8807
32.8741 -2.43803 29.0795
32.8741 -2.43803 23.0057
-10.8086 -8.25717 7.6578
32.8741 -2.43803 7.6578
32.8741 -2.43803 16.6576
32.8741 -2.43803 13.5844
32.8741 -2.43803 10.5726
-69.6726 22.6019 -23.4186
-10.8086 -8.25717 4.49268
56.0512 3.27698 -39.5136
34.5677 15.1114 16.6576
56.0512 3.27698 16.6576
-39.9629 -12.1409 -39.5136
-53.0284 13.8763 -39.5136
34.5677 15.1114 -39.5136
69.6261 -22.685 -35.7723
48.5652 -60.912 -35.7723
48.2393 -10.9028 -39.5136
-10.8086 -8.25717 -39.5136
32.8741 -2.43803 35.1817
56.0512 3.27698 35.1817
-52.8024 -5.06753 -10.8807
-52.8024 -5.06753 -13.8313
62.5265 -18.7738 -52.8861
-10.8086 -8.25717 -10.8807
-39.9629 -12.1409 -10.8807
56.0512 3.27698 38.2172
47.3591 -25.6284 52.8861
51.6387 -27.986 52.8861
27.1793 -49.1303 -39.5136
41.472 -57.0043 -39.5136
70.3366 -4.59231 -39.5136
59.8921 1.16114 -39.5136
-39.9629 -12.1409 -13.8313
-10.8086 -8.25717 -13.8313
56.0512 3.27698 -52.8861
-69.6726 22.6019 -16.9632
27.1793 -49.1303 -52.8861
46.4428 8.56985 35.1817
54.489 0.441366 -52.8861
46.4428 8.56985 38.2172
-65.2354 1.78194 -16.9632
-10.8086 -8.25717 -16.9632
-39.9629 -12.1409 -16.9632
59.8921 1.16114 -52.8861
-7.4024 -7.80341 7.6578
-48.5693 60.9084 -40.066
-69.6726 22.6019 -40.066
-77.4387 8.50488 -52.8861
-48.5693 60.9084 -52.8861
31.1601 14.6563 29.0795
31.1601 14.6563 32.0133
30.4893 -1.1242 32.0133
-37.6248 -13.429 -39.5136
-12.9793 -7.11921 7.6578
-69.6726 22.6019 -20.4987
27.1793 -49.1303 -7.79483
-15.0632 8.48283 7.6578
27.1793 -49.1303 -10.8807
-39.9629 -12.1409 -7.79483
25.9201 -3.3644 23.0057
-77.4387 8.50488 -40.066
27.1793 -49.1303 -4.71145
27.1793 -49.1303 35.1817
-37.1209 5.53686 -4.71145
-10.8086 -8.25717 -4.71145
34.5677 15.1114 -26.3179
15.2724 -4.78282 23.0057
15.2724 -4.78282 19.9198
27.1793 -49.1303 38.2172
-69.4851 22.9421 -23.4186
34.5677 15.1114 -13.8313
-65.2354 1.78194 -39.5136
48.5652 -60.912 -52.8861
45.7996 -39.3318 50.4141
-39.9629 -12.1409 -52.8861
48.5652 -60.912 -39.5136
45.7996 -39.3318 47.4645
43.2283 -43.9993 50.4141
48.046 -35.2541 50.4141
34.5677 15.1114 -40.066
-65.2354 1.78194 -40.066
70.3366 -4.59231 -52.8861
48.9203 -22.7947 52.8861
-77.4387 8.50488 -20.4987
-77.4387 8.50488 -16.9632
38.3267 13.0407 29.0795
77.4388 -8.50463 -35.7723
-10.8086 -8.25717 -35.7723
-65.2354 1.78194 -20.4987
53.1998 -25.1524 52.8861
-39.9629 -12.1409 -35.7723
9.93618 -5.49368 13.5844
4  368 230 229 317  255 0 0
6  368 330 325 323 284 309  255 0 0
4  368 309 231 230  255 0 0
4  368 317 318 330  255 0 0
4  284 323 315 316  255 0 0
3  280 46 48  72 255 0
5  280 321 295 300 366  72 255 0
4  279 334 347 367  255 218 0
3  279 44 48  255 218 0
4  280 366 47 46  72 255 0
5  279 48 46 335 334  255 218 0
6  280 48 44 361 325 321  72 255 0
5  279 367 358 49 44  255 218 0
6  366 300 21 1 282 281  72 255 0
5  367 347 370 375 358  255 218 0
4  366 281 45 47  72 255 0
5  323 361 298 339 315  72 255 0
6  321 330 318 270 43 295  255 0 0
3  321 325 330  255 0 0
3  323 325 361  72 255 0
5  361 44 49 3 298  72 255 0
5  300 352 63 22 21  0 145 255
8  295 43 297 296 357 63 352 300  0 145 255
4  298 377 374 304  255 0 218
6  358 375 327 136 50 49  255 218 0
5  298 3 4 329 377  255 0 218
4  315 276 277 316  255 0 0
4  315 303 275 276  255 0 0
6  298 304 20 303 315 339  72 255 0
4  20 304 374 19  255 0 218
4  21 22 12 1  255 0 218
4  282 1 12 278  72 0 255
4  332 47 245 244  255 218 0
6  332 244 226 241 246 333  255 218 0
6  347 333 246 293 341 370  255 218 0
4  47 332 335 46  255 218 0
7  47 45 299 58 243 227 245  255 218 0
4  284 359 231 309  255 0 0
4  284 316 362 359  255 0 0
4  341 293 356 100  255 218 0
4  341 322 371 370  255 218 0
4  56 55 102 101  255 218 0
4  341 100 99 322  255 218 0
4  56 257 242 57  255 218 0
5  56 101 100 256 257  255 218 0
5  333 347 334 335 332  255 218 0
4  328 374 377 329  255 0 218
6  328 320 310 18 19 374  255 0 218
4  327 375 370 371  255 218 0
4  329 319 320 328  255 0 218
5  224 278 12 11 283  72 0 255
4  329 4 5 319  255 0 218
3  327 137 136  255 218 0
4  317 267 270 318  255 0 0
4  316 277 302 362  255 0 0
4  317 229 373 267  255 0 0
12  193 312 306 218 223 176 221 189 297 43 270 194  0 255 145
4  192 59 312 193  0 255 145
5  319 311 239 310 320  255 0 218
4  319 5 6 311  255 0 218
4  52 147 308 51  72 0 255
4  20 19 275 303  0 145 255
5  59 192 178 273 61  0 255 145
4  312 326 324 306  0 145 255
4  59 130 326 312  0 145 255
4  310 171 17 18  255 0 218
4  311 345 207 239  255 0 218
5  285 283 11 10 92  72 0 255
4  311 6 7 345  255 0 218
5  310 239 207 249 171  255 0 218
4  305 219 213 216  0 145 255
5  306 324 215 214 218  0 145 255
5  305 216 215 324 129  0 145 255
4  14 13 161 294  255 0 218
19  14 289 292 291 290 265 287 208 286 219 305 128 60 62 18 17 16 15 13  0 145 255
6  28 29 237 200 343 155  255 0 218
12  28 27 26 25 24 23 357 296 32 31 30 29  0 145 255
6  294 288 331 238 289 14  255 0 218
4  294 161 111 112  255 0 218
4  28 155 156 27  255 0 218
4  294 113 340 288  255 0 218
4  32 264 34 33  0 145 255
4  290 291 378 248  255 0 218
4  32 261 260 31  255 0 218
5  290 248 247 354 265  255 0 218
5  32 33 248 258 261  255 0 218
4  232 231 359 362  255 0 0
4  362 302 301 232  255 0 0
4  277 272 269 266  0 255 145
5  266 269 179 268 267  0 255 145
4  302 277 266 301  255 0 0
5  291 292 262 259 378  255 0 218
4  31 260 263 30  255 0 218
5  296 188 103 264 32  0 145 255
4  297 189 188 296  0 145 255
3  294 112 113  255 0 218
5  293 246 241 240 356  255 218 0
4  57 242 243 58  255 218 0
4  286 208 132 131  255 0 218
4  286 42 213 219  0 145 255
5  286 131 40 41 42  255 0 218
5  29 30 263 235 237  255 0 218
5  289 238 234 262 292  255 0 218
5  288 340 343 200 331  255 0 218
4  19 18 62 275  0 145 255
4  275 62 344 276  0 255 145
7  273 252 105 94 98 255 271  0 255 145
4  273 178 177 252  0 255 145
5  55 54 166 165 102  255 218 0
5  327 371 322 165 137  255 218 0
4  285 92 90 79  72 0 255
4  283 285 79 80  72 0 255
6  224 283 80 65 54 55  72 0 255
6  282 278 56 57 58 299  72 0 255
4  281 282 299 45  72 255 0
4  55 56 278 224  72 0 255
9  276 344 342 348 349 355 271 272 277  0 255 145
4  274 251 97 183  0 255 145
4  274 144 143 251  0 255 145
4  274 183 145 144  0 255 145
6  271 255 163 151 254 272  0 255 145
4  271 355 61 273  0 255 145
7  272 254 86 82 114 253 269  0 255 145
4  269 253 180 179  0 255 145
4  267 268 194 270  0 255 145
4  232 301 373 229  255 0 0
5  268 179 178 192 194  0 255 145
6  287 265 354 353 149 346  255 0 218
4  287 346 132 208  255 0 218
4  378 259 258 248  255 0 218
4  301 266 267 373  255 0 0
4  356 240 256 100  255 218 0
4  351 171 249 196  255 0 218
4  351 211 15 16  255 0 218
4  350 92 10 9  72 0 255
5  351 196 195 185 211  255 0 218
4  350 8 0 92  72 0 255
4  171 351 16 17  255 0 218
5  345 7 0 204 207  255 0 218
5  92 0 7 212 91  72 0 255
4  113 110 154 155  255 0 218
4  155 154 153 156  255 0 218
4  343 340 113 155  255 0 218
5  52 138 166 54 53  255 218 0
4  259 233 236 260  255 0 218
4  260 236 235 263  255 0 218
4  262 234 233 259  255 0 218
4  61 60 128 127  0 145 255
4  61 127 130 59  0 145 255
4  261 258 259 260  255 0 218
4  242 228 227 243  255 218 0
4  240 225 228 242  255 218 0
4  257 256 240 242  255 218 0
4  254 250 85 86  0 255 145
5  255 251 143 162 163  0 255 145
4  255 98 97 251  0 255 145
4  254 151 150 250  0 255 145
4  253 114 115 152  0 255 145
4  252 164 106 105  0 255 145
4  250 150 172 85  0 255 145
4  162 150 151 163  0 255 145
4  162 143 142 181  0 255 145
4  162 181 172 150  0 255 145
4  196 206 205 197  255 0 218
4  249 207 206 196  255 0 218
4  34 35 354 247  255 0 218
4  34 247 248 33  255 0 218
4  245 227 226 244  255 218 0
4  241 226 225 240  255 218 0
4  204 0 8 205  255 0 218
4  234 199 201 235  255 0 218
4  238 331 199 234  255 0 218
4  235 201 200 237  255 0 218
4  236 233 234 235  255 0 218
4  232 229 230 231  255 0 0
4  228 225 226 227  255 218 0
5  222 175 176 223 372  0 145 255
4  222 217 337 336  0 145 255
4  223 218 214 372  0 145 255
4  222 372 214 217  0 145 255
5  222 336 170 169 175  0 145 255
4  221 176 175 220  0 145 255
4  220 175 169 174  0 145 255
4  220 188 189 221  0 145 255
6  220 174 167 104 103 188  0 145 255
5  217 214 213 338 337  0 145 255
4  170 336 41 40  0 145 255
4  216 213 214 215  0 145 255
4  209 6 5 210  72 0 255
4  209 307 146 88  72 0 255
4  212 7 6 209  72 0 255
4  91 212 209 88  72 0 255
4  211 161 13 15  255 0 218
6  211 185 184 108 111 161  255 0 218
4  210 308 307 209  72 0 255
6  210 5 4 50 51 308  72 0 255
4  206 207 204 205  255 0 218
6  252 177 180 253 152 164  0 255 145
4  42 41 338 213  0 145 255
5  25 26 159 203 202  255 0 218
5  25 202 9 10 24  255 0 218
5  197 205 8 9 202  255 0 218
3  350 9 8  72 0 255
6  26 27 156 153 160 159  255 0 218
4  203 159 158 198  255 0 218
4  198 158 185 195  255 0 218
4  203 198 197 202  255 0 218
4  36 37 149 353  255 0 218
4  36 353 354 35  255 0 218
4  54 65 64 53  72 0 255
4  52 53 64 147  72 0 255
4  346 149 148 132  255 0 218
4  132 148 38 39  255 0 218
4  186 134 96 123  0 255 145
4  338 41 336 337  0 145 255
4  201 199 331 200  255 0 218
4  130 129 324 326  0 145 255
4  322 99 102 165  255 218 0
4  60 61 355 349  0 255 145
3  305 129 128  0 145 255
4  187 126 314 376  0 255 145
4  376 314 313 369  0 255 145
4  369 313 134 186  0 255 145
4  376 369 186 187  0 255 145
5  182 190 141 116 139  0 255 145
4  87 139 120 121  0 255 145
6  134 190 182 145 183 133  0 255 145
4  126 68 71 314  0 255 145
4  126 187 124 84  0 255 145
6  314 71 76 140 191 313  0 255 145
4  313 191 190 134  0 255 145
4  198 195 196 197  255 0 218
3  194 192 193  0 255 145
4  74 117 116 141  0 255 145
5  191 140 122 141 190  0 255 145
4  74 141 122 75  0 255 145
4  76 75 122 140  0 255 145
4  34 264 103 35  0 145 255
4  138 52 51 135  255 218 0
4  135 51 50 136  255 218 0
4  146 307 308 147  72 0 255
4  88 146 67 89  72 0 255
4  187 186 123 124  0 255 145
5  182 139 87 172 181  0 255 145
4  157 109 108 184  255 0 218
4  157 184 185 158  255 0 218
4  97 93 133 183  0 255 145
4  182 181 142 145  0 255 145
4  180 177 178 179  0 255 145
4  39 38 168 169  0 145 255
4  169 168 167 174  0 145 255
4  85 83 82 86  0 255 145
4  173 125 83 85  0 255 145
7  173 77 363 73 69 78 125  0 255 145
5  173 85 172 87 77  0 255 145
4  24 10 11 23  255 0 218
4  40 39 169 170  0 145 255
4  104 167 37 36  0 145 255
4  38 37 167 168  0 145 255
4  166 138 137 165  255 218 0
4  164 152 115 106  0 255 145
4  123 96 95 106  0 255 145
4  160 153 109 157  255 0 218
4  160 157 158 159  255 0 218
4  110 113 112 107  255 0 218
4  154 110 109 153  255 0 218
4  38 148 149 37  255 0 218
4  89 67 66 79  72 0 255
4  67 146 147 64  72 0 255
4  145 142 143 144  0 255 145
4  139 116 119 120  0 255 145
4  138 135 136 137  255 218 0
4  93 97 98 94  0 255 145
4  134 133 93 96  0 255 145
4  40 131 132 39  255 0 218
4  130 127 128 129  0 145 255
4  84 124 115 81  0 255 145
4  126 78 69 68  0 255 145
5  126 84 83 125 78  0 255 145
4  106 95 94 105  0 255 145
4  124 123 106 115  0 255 145
4  121 120 119 118  0 255 145
4  117 74 73 363  0 255 145
4  119 116 117 118  0 255 145
4  114 82 81 115  0 255 145
4  111 108 107 112  255 0 218
4  110 107 108 109  255 0 218
4  104 36 35 103  0 145 255
4  102 99 100 101  255 218 0
4  96 93 94 95  0 255 145
3  92 91 90  72 0 255
4  79 66 65 80  72 0 255
5  91 88 89 79 90  72 0 255
4  76 71 70 72  0 255 145
4  87 121 364 77  0 255 145
4  84 81 82 83  0 255 145
4  77 364 360 363  0 255 145
5  72 70 69 73 365  0 255 145
4  76 72 365 75  0 255 145
4  74 75 365 73  0 255 145
4  71 68 69 70  0 255 145
4  66 67 64 65  72 0 255
4  364 121 118 360  0 255 145
4  118 117 363 360  0 255 145
4  22 23 11 12  255 0 218
4  63 357 23 22  0 145 255
6  349 348 342 344 62 60  0 255 145
5  303 315 323 325 321  255 0 0
5  315 303 321 325 323  72 255 0
4  275 303 295 43  255 0 0
4  303 275 43 295  0 145 255
14  62 275 43 297 189 221 176 223 218 306 312 59 61 60  0 255 145
14  275 62 60 61 59 312 306 218 223 176 221 189 297 43  0 145 255
3  321 295 303  255 0 0
3  295 321 303  72 255 0
4  50 4 3 49  72 0 255
5  45 47 46 48 44  255 218 0
5  47 45 44 48 46  72 255 0
11  58 299 49 50 51 52 53 54 55 56 57  255 218 0
4  45 299 49 44  72 255 0
11  58 57 56 55 54 53 52 51 50 49 299  72 0 255
4  44 49 299 45  255 218 0
7  277 276 275 43 270 267 266  255 0 0
7  276 277 266 267 270 43 275  0 255 145
6  304 298 2 1 21 20  72 255 0
6  298 304 20 21 1 2  255 0 218
3  303 20 295  72 255 0
3  20 303 295  0 145 255
4  300 295 20 21  72 255 0
4  295 300 21 20  0 145 255
3  282 1 2  72 255 0
5  299 282 2 3 49  72 255 0
5  282 299 49 3 2  72 0 255
3  298 3 2  72 255 0
3  298 2 3  255 0 218
3  282 2 1  72 0 255
32  42 286 208 287 265 290 291 292 289 14 13 15 16 17 18 19 20 21 22 23 24 25 26 27 28 29 30 31 33 35 37 39  0 145 255
32  286 42 39 37 35 33 31 30 29 28 27 26 25 24 23 22 21 20 19 18 17 16 15 13 14 289 292 291 290 265 287 208  255 0 218
4  41 42 39 40  0 145 255
4  42 41 40 39  255 0 218
3  38 39 37  0 145 255
3  39 38 37  255 0 218
3  36 37 35  0 145 255
3  37 36 35  255 0 218
3  34 35 33  0 145 255
3  35 34 33  255 0 218
3  32 33 31  0 145 255
3  33 32 31  255 0 218
7  12 1 0 8 9 10 11  72 0 255
7  1 12 11 10 9 8 0  255 0 218
8  7 0 1 2 3 4 5 6  72 0 255
8  0 7 6 5 4 3 2 1  255 0 218

