OFF
449 592 0

47.3591 -25.6284 44.6954
47.3591 -25.6284 47.4645
47.3591 -25.6284 44.296
51.6387 -27.986 44.296
51.6387 -27.986 44.6954
51.6387 -27.986 47.4645
48.9329 -26.4954 47.4645
30.4893 -1.1242 25.8641
25.2342 1.7709 25.8641
32.8741 -2.43803 25.8641
13.5363 8.21536 19.9198
25.2342 1.7709 19.9198
23.6471 13.6529 19.9198
23.6471 13.6529 23.0057
18.4612 12.9603 23.0057
25.2342 1.7709 23.0057
19.5365 4.90977 23.0057
23.6471 13.6529 -13.8313
23.6471 13.6529 -39.5136
23.6471 13.6529 -20.4987
25.2342 1.7709 -39.5136
56.0512 3.27698 32.0133
48.2393 -10.9028 32.0133
48.8417 -9.80937 32.0133
32.8741 -2.43803 32.0133
32.8337 -2.41574 32.0133
43.8481 -44.3408 44.296
47.3759 -46.2841 44.296
37.1686 -40.6612 44.296
37.1686 -40.6612 44.6954
38.6329 -41.4678 44.6954
42.9126 -43.8254 44.6954
47.3759 -46.2841 44.6954
48.8417 -9.80937 38.2172
48.8417 -9.80937 40.8951
48.8417 -9.80937 35.1817
48.8417 -9.80937 -35.7723
63.1288 -17.6801 -35.7723
63.1288 -17.6801 40.8951
31.2634 -51.3803 44.296
45.8946 -24.8216 44.296
31.2634 -51.3803 44.6954
37.1686 -40.6612 47.4645
45.8946 -24.8216 47.4645
45.8946 -24.8216 44.6954
48.9203 -22.7947 44.296
41.472 -57.0043 44.296
37.0072 -54.5446 44.296
32.7276 -52.1869 44.296
27.1793 -49.1303 44.296
33.0845 -38.4113 44.296
41.8107 -22.5718 44.296
53.1998 -25.1524 44.296
56.0996 -30.4436 44.296
42.9126 -43.8254 47.4645
43.2283 -43.9993 47.4645
40.7373 -42.6271 47.4645
43.3088 -37.9596 47.4645
45.484 -39.1579 47.4645
45.7996 -39.3318 47.4645
48.9203 -22.7947 47.4645
48.9547 -32.8579 47.4645
48.046 -35.2541 47.4645
47.7304 -35.0802 47.4645
45.5554 -33.8819 47.4645
43.4509 -32.7225 47.4645
53.1998 -25.1524 47.4645
49.2704 -33.0318 47.4645
-52.8024 -5.06753 -16.9632
-52.8024 -5.06753 -13.8313
-52.8024 -5.06753 -39.5136
-44.7631 9.54325 -39.5136
-44.7631 9.54325 -20.4987
-44.7631 9.54325 -16.9632
-44.7631 9.54325 -13.8313
-44.8563 9.37379 -13.8313
-47.7485 4.11745 -13.8313
-45.8933 -8.8738 -13.8313
-45.8933 -8.8738 -10.8807
-45.8933 -8.8738 -16.9632
-45.8933 -8.8738 -39.5136
-39.0701 6.55872 -39.5136
-39.0701 6.55872 -20.4987
-39.0701 6.55872 -16.9632
-39.0701 6.55872 -13.8313
-39.0701 6.55872 -10.8807
-39.2026 6.25905 -10.8807
-39.6725 5.19606 -10.8807
-4.38203 9.90939 7.6578
-9.67378 9.20263 7.6578
-2.1104 -7.09845 7.6578
-7.4024 -7.80341 7.6578
-19.4776 -9.41199 -1.5259
-19.4776 -9.41199 1.52681
-21.7485 7.58996 -1.5259
-21.7485 7.58996 1.52681
-20.2962 -3.28337 1.52681
-2.1104 -7.09845 10.5726
-2.1104 -7.09845 4.49268
-4.38203 9.90939 4.49268
-4.38203 9.90939 10.5726
7.56497 11.505 -1.5259
-26.7663 6.9198 -1.5259
30.4893 -1.1242 -1.5259
32.8741 -2.43803 -1.5259
-10.8086 -8.25717 -1.5259
-24.4956 -10.0805 -1.5259
-25.788 -0.40431 -1.5259
-37.1202 5.5365 -7.79483
7.56497 11.505 -7.79483
-37.5821 -11.8238 -7.79483
-37.1209 5.53686 -7.79483
-37.1209 5.53686 -7.79483
30.4893 -1.1242 -7.79483
32.8741 -2.43803 -7.79483
-10.8086 -8.25717 -7.79483
-30.0608 -10.8218 -7.79483
7.56497 11.505 13.5844
1.06945 10.6375 13.5844
7.67364 11.4451 13.5844
9.93618 -5.49368 13.5844
3.3414 -6.37219 13.5844
30.4893 -1.1242 -4.71145
32.8741 -2.43803 -4.71145
7.56497 11.505 -4.71145
-32.3312 6.17655 -4.71145
-31.8787 2.7887 -4.71145
-30.0608 -10.8218 -4.71145
-10.8086 -8.25717 -4.71145
9.93618 -5.49368 16.6576
9.93618 -5.49368 10.5726
9.93618 -5.49368 7.6578
9.93618 -5.49368 4.49268
7.67364 11.4451 4.49268
7.67364 11.4451 16.6576
7.56497 11.505 4.49268
-15.0632 8.48283 4.49268
30.4893 -1.1242 4.49268
32.8741 -2.43803 4.49268
-10.8086 -8.25717 4.49268
-12.9793 -7.11921 4.49268
40.9728 -1.35918 35.1817
38.6312 -5.60962 35.1817
46.4428 8.56985 35.1817
56.0512 3.27698 35.1817
48.2393 -10.9028 35.1817
31.1601 14.6563 -39.5136
30.4893 -1.1242 -39.5136
31.1601 14.6563 -20.4987
31.1601 14.6563 -13.8313
31.1601 14.6563 16.6576
31.1601 14.6563 19.9198
31.1601 14.6563 23.0057
31.1601 14.6563 25.8641
31.1601 14.6563 29.0795
30.4893 -1.1242 29.0795
30.4893 -1.1242 28.0876
-54.6668 49.8401 -26.3179
-61.5603 37.3271 -26.3179
-38.2103 40.774 -26.3179
-45.1037 28.2611 -26.3179
-61.5603 37.3271 -23.4186
-61.5603 37.3271 -40.066
-61.5603 37.3271 -52.8861
-45.1037 28.2611 -52.8861
-45.1037 28.2611 -40.066
-45.1037 28.2611 -23.4186
-60.5295 2.41046 -16.9632
-61.8908 -0.0606259 -16.9632
-53.9474 14.3581 -16.9632
-53.043 13.884 -16.9632
-53.0284 13.8763 -16.9632
-60.9821 -0.561226 -16.9632
-53.043 13.884 -20.4987
-60.9821 -0.561226 -20.4987
-65.2354 1.78194 -20.4987
-77.4387 8.50488 -20.4987
-69.6726 22.6019 -20.4987
-69.4851 22.9421 -20.4987
-53.0284 13.8763 -20.4987
-37.1209 5.53686 -40.066
27.1793 -49.1303 -40.066
-39.9629 -12.1409 -40.066
-60.9821 -0.561226 -40.066
-53.0284 13.8763 -40.066
34.5677 15.1114 -40.066
56.0512 3.27698 -40.066
48.562 -10.3172 -40.066
-37.1209 5.53686 -39.5136
-37.1209 5.53666 -39.5136
-40.222 -11.9982 -39.5136
-40.222 -11.9982 -16.9632
-40.222 -11.9982 -13.8313
-40.222 -11.9982 -10.8807
-40.222 -11.9982 -7.79483
-37.1209 5.53686 -4.71145
-37.1209 5.53686 -4.71145
-37.1209 5.53686 -13.8313
-37.1209 5.53686 -20.4987
32.8741 -2.43803 1.52681
32.8741 -2.43803 -10.8807
32.8741 -2.43803 -35.7723
32.8741 -2.43803 -39.5136
7.56497 11.505 -39.5136
7.56497 11.505 -20.4987
7.56497 11.505 -13.8313
7.56497 11.505 1.52681
7.56497 11.505 7.6578
7.56497 11.505 10.5726
7.56497 11.505 16.6576
7.67364 11.4451 19.9198
13.5363 8.21536 23.0057
19.5365 4.90977 25.8641
25.2342 1.7709 29.0795
32.8337 -2.41574 29.0795
56.0512 3.27698 -35.7723
-60.9821 -0.561226 -52.8861
-32.1123 51.8429 -52.8861
-32.1123 51.8429 -40.066
-59.2509 2.58121 -52.8861
-60.9821 -0.561226 -39.5136
-60.9821 -0.561226 -13.8313
-59.2509 2.58121 -13.8313
-53.0286 13.876 -13.8313
-53.0284 13.8763 -13.8313
-53.0284 13.8763 -23.4186
-53.0284 13.8763 -26.3179
54.489 0.441366 38.2172
48.2393 -10.9028 38.2172
48.2393 -10.9028 -10.8807
34.5677 15.1114 -20.4987
-10.8086 -8.25717 -35.7723
-39.9629 -12.1409 -35.7723
45.7996 -39.3318 50.4141
45.484 -39.1579 50.4141
42.9126 -43.8254 50.4141
43.2283 -43.9993 50.4141
48.046 -35.2541 50.4141
47.7304 -35.0802 50.4141
-44.8563 9.37379 -10.8807
-44.7631 9.54325 -10.8807
49.2704 -33.0318 52.8861
48.9547 -32.8579 52.8861
48.046 -35.2541 52.8861
47.7304 -35.0802 52.8861
51.9543 -28.1599 47.4645
56.0996 -30.4436 44.6954
-69.4851 22.9421 -16.9632
12.9999 12.2309 19.9198
12.9999 12.2309 23.0057
43.3719 -19.738 44.296
-19.4776 -9.41199 4.49268
-20.2962 -3.28337 4.49268
-12.792 -8.52138 1.52681
-12.792 -8.52138 4.49268
57.6603 -27.6098 44.296
43.3088 -37.9596 50.4141
40.7373 -42.6271 50.4141
45.5554 -33.8819 50.4141
48.9203 -22.7947 44.6954
53.1998 -25.1524 44.6954
56.0996 -30.4436 47.4645
38.6312 -5.60962 38.2172
40.9728 -1.35918 38.2172
25.9201 -3.3644 29.0795
25.9201 -3.3644 25.8641
41.8107 -22.5718 47.4645
41.8107 -22.5718 44.6954
-61.8908 -0.0606259 -13.8313
-60.5295 2.41046 -13.8313
45.5554 -33.8819 52.8861
31.2634 -51.3803 47.4645
-47.7485 4.11745 -10.8807
20.734 -4.05526 25.8641
20.734 -4.05526 23.0057
37.0072 -54.5446 44.6954
58.0673 -16.3171 44.296
-21.7485 7.58996 4.49268
-15.0632 8.48283 1.52681
-25.788 -0.40431 1.52681
-26.7663 6.9198 1.52681
-10.8086 -8.25717 1.52681
32.7276 -52.1869 44.6954
53.7877 -13.9595 44.296
-53.9474 14.3581 -13.8313
18.4612 12.9603 25.8641
23.6471 13.6529 25.8641
23.6471 13.6529 29.0795
-37.1209 5.53686 -7.79483
47.3759 -46.2841 47.4645
34.5677 15.1114 25.8641
56.0512 3.27698 25.8641
48.8417 -9.80937 44.296
63.1288 -17.6801 44.296
38.6329 -41.4678 47.4645
33.0845 -38.4113 47.4645
33.0845 -38.4113 44.6954
-24.4956 -10.0805 1.52681
34.5677 15.1114 19.9198
56.0512 3.27698 19.9198
43.4509 -32.7225 52.8861
54.489 0.441366 40.8951
56.0512 3.27698 40.8951
59.8921 1.16114 40.8951
-30.0608 -10.8218 -1.5259
-31.8787 2.7887 -1.5259
-7.4024 -7.80341 10.5726
-9.67378 9.20263 10.5726
-32.3312 6.17655 -1.5259
-37.1209 5.53686 -4.71145
-37.1202 5.5365 -4.71145
38.3267 13.0407 32.0133
38.3267 13.0407 29.0795
62.5265 -18.7738 44.296
48.2393 -10.9028 44.296
-37.5821 -11.8238 -4.71145
-45.8933 -8.8738 -7.79483
-39.6725 5.19606 -7.79483
38.3267 13.0407 35.1817
32.8337 -2.41574 35.1817
34.5677 15.1114 32.0133
-54.6668 49.8401 -23.4186
77.4388 -8.50463 -39.5136
77.4388 -8.50463 -52.8861
69.6261 -22.685 -52.8861
69.6261 -22.685 -39.5136
-2.1104 -7.09845 13.5844
-4.38203 9.90939 13.5844
-37.5821 -11.8238 -10.8807
-48.5693 60.9084 -26.3179
-32.1123 51.8429 -26.3179
-69.6726 22.6019 -26.3179
9.93618 -5.49368 19.9198
41.472 -57.0043 44.6954
27.1793 -49.1303 44.6954
-61.5603 37.3271 -20.4987
-45.1037 28.2611 -20.4987
3.3414 -6.37219 16.6576
1.06945 10.6375 16.6576
3.3414 -6.37219 10.5726
1.06945 10.6375 10.5726
7.56497 11.505 19.9198
32.8741 -2.43803 19.9198
62.5265 -18.7738 -35.7723
70.3366 -4.59231 -35.7723
77.4388 -8.50463 -35.7723
69.6261 -22.685 -35.7723
32.8741 -2.43803 23.0057
32.8741 -2.43803 10.5726
70.3366 -4.59231 40.8951
62.5265 -18.7738 40.8951
59.8921 1.16114 -35.7723
27.1793 -49.1303 40.8951
41.472 -57.0043 40.8951
48.2393 -10.9028 40.8951
27.1793 -49.1303 47.4645
48.2393 -10.9028 -35.7723
27.1793 -49.1303 -35.7723
41.472 -57.0043 -35.7723
-37.1209 5.53686 -20.4987
-37.1209 5.53686 -39.5136
-37.1209 5.53686 -16.9632
-37.1209 5.53686 -13.8313
-37.1209 5.53686 -10.8807
-77.4387 8.50488 -16.9632
-69.6726 22.6019 -16.9632
-65.2354 1.78194 -16.9632
32.8741 -2.43803 29.0795
-69.6726 22.6019 -23.4186
56.0512 3.27698 -39.5136
34.5677 15.1114 16.6576
56.0512 3.27698 16.6576
-39.9629 -12.1409 -39.5136
32.8741 -2.43803 13.5844
-53.0284 13.8763 -39.5136
30.4893 -1.1242 23.0057
34.5677 15.1114 -39.5136
48.5652 -60.912 -35.7723
25.9201 -3.3644 23.0057
48.2393 -10.9028 -39.5136
-10.8086 -8.25717 -39.5136
48.5652 -60.912 -39.5136
48.5652 -60.912 -52.8861
32.8741 -2.43803 16.6576
30.4893 -1.1242 19.9198
15.2724 -4.78282 19.9198
32.8741 -2.43803 35.1817
-52.8024 -5.06753 -10.8807
62.5265 -18.7738 -52.8861
-10.8086 -8.25717 -10.8807
-39.9629 -12.1409 -10.8807
56.0512 3.27698 38.2172
-65.2354 1.78194 -52.8861
34.5677 15.1114 -52.8861
47.3591 -25.6284 52.8861
41.472 -57.0043 -52.8861
51.6387 -27.986 52.8861
70.3366 -4.59231 -52.8861
27.1793 -49.1303 -39.5136
25.2342 1.7709 -7.79483
41.472 -57.0043 -39.5136
54.489 0.441366 -52.8861
70.3366 -4.59231 -39.5136
46.4428 8.56985 38.2172
27.1793 -49.1303 -52.8861
25.2342 1.7709 -4.71145
56.0512 3.27698 -52.8861
56.0512 3.27698 29.0795
59.8921 1.16114 -52.8861
-77.4387 8.50488 -40.066
23.6471 13.6529 16.6576
-77.4387 8.50488 -52.8861
-48.5693 60.9084 -52.8861
-48.5693 60.9084 -40.066
-69.6726 22.6019 -40.066
31.1601 14.6563 32.0133
30.4893 -1.1242 32.0133
-37.6248 -13.429 -39.5136
-12.9793 -7.11921 7.6578
27.1793 -49.1303 -7.79483
-15.0632 8.48283 7.6578
27.1793 -49.1303 -10.8807
25.2342 1.7709 -1.5259
-39.9629 -12.1409 -7.79483
27.1793 -49.1303 -4.71145
27.1793 -49.1303 35.1817
25.2342 1.7709 4.49268
34.5677 15.1114 -26.3179
15.2724 -4.78282 23.0057
27.1793 -49.1303 38.2172
-69.4851 22.9421 -23.4186
34.5677 15.1114 -13.8313
59.8921 1.16114 -39.5136
34.5677 15.1114 23.0057
-65.2354 1.78194 -39.5136
56.0512 3.27698 23.0057
34.5677 15.1114 29.0795
-39.0701 6.55872 -7.79483
-39.9629 -12.1409 -52.8861
48.9203 -22.7947 52.8861
-10.8086 -8.25717 -13.8313
32.8741 -2.43803 7.6578
-65.2354 1.78194 -40.066
-39.9629 -12.1409 -16.9632
-39.9629 -12.1409 -13.8313
53.1998 -25.1524 52.8861
-10.8086 -8.25717 7.6578
-38.2103 40.774 -23.4186
-10.8086 -8.25717 -16.9632
4  397 323 322 402  255 0 0
6  397 408 401 404 395 388  255 0 0
4  397 388 324 323  255 0 0
4  397 402 432 408  255 0 0
5  395 404 181 398 400  255 0 0
4  393 217 164 219  255 78 0
4  393 406 186 185  255 78 0
4  392 411 409 442  255 39 0
3  392 216 219  255 39 0
4  393 185 218 217  255 78 0
5  392 219 164 163 411  255 39 0
6  393 219 216 438 401 406  255 78 0
6  392 442 434 220 183 216  255 39 0
8  185 376 146 18 203 188 360 180  235 255 0
5  442 409 176 175 434  255 39 0
5  185 180 184 165 218  255 78 0
4  404 438 182 181  255 78 0
7  406 408 432 351 215 369 186  255 0 0
3  406 401 408  255 0 0
3  404 401 438  255 78 0
4  438 216 183 182  255 78 0
4  376 185 186 369  235 255 0
5  376 427 230 148 146  255 156 0
8  369 215 371 370 431 230 427 376  255 156 0
4  372 232 231 380  0 255 117
7  372 182 183 220 70 80 190  235 255 0
4  434 175 174 220  255 39 0
5  372 190 191 443 232  0 255 117
5  398 181 182 372 417  235 255 0
4  398 357 358 400  255 0 0
4  398 379 356 357  255 0 0
6  372 380 202 379 398 417  235 255 0
4  203 18 19 204  235 0 255
4  202 380 231 201  0 255 117
4  203 204 198 188  0 255 117
4  360 188 198 359  255 196 0
4  413 218 330 329  117 255 0
5  413 329 157 158 162  117 255 0
6  409 414 331 368 177 176  255 39 0
4  218 413 412 217  117 255 0
5  218 165 160 159 330  117 255 0
4  414 162 158 331  255 39 0
5  184 374 226 160 165  255 39 0
4  395 382 324 388  255 0 0
4  395 400 381 382  255 0 0
4  177 368 430 178  255 39 0
4  177 365 364 176  196 255 0
4  179 171 170 173  196 255 0
4  177 178 247 365  196 255 0
4  179 336 166 225  255 39 0
5  179 173 178 335 336  255 39 0
4  412 163 164 217  117 255 0
5  414 409 411 163 162  255 39 0
4  413 162 163 412  117 255 0
4  448 231 232 443  0 255 117
6  448 440 389 200 201 231  0 255 117
4  366 175 176 364  196 255 0
4  443 444 440 448  0 255 117
5  361 359 198 197 362  255 196 0
4  443 191 192 444  0 255 117
5  366 168 172 174 175  196 255 0
3  366 167 168  196 255 0
4  402 344 351 432  255 0 0
4  400 358 377 381  255 0 0
4  402 322 345 344  255 0 0
12  302 391 144 21 407 291 435 299 371 215 351 303  117 0 255
4  301 227 391 302  117 0 255
5  444 390 328 389 440  0 255 117
4  444 192 193 390  0 255 117
4  222 76 69 221  0 78 255
4  202 201 356 379  255 156 0
4  227 301 34 33  117 0 255
4  391 403 143 144  0 255 0
4  227 263 403 391  0 255 0
4  389 115 114 200  0 255 117
4  390 423 110 328  0 255 117
5  363 362 197 112 288  255 196 0
4  390 193 194 423  0 255 117
5  389 328 110 116 115  0 255 117
4  386 24 25 319  196 0 255
5  144 143 318 311 21  196 0 255
5  386 319 318 143 141  196 0 255
6  138 199 281 139 98 132  0 255 235
17  138 441 348 373 383 342 347 9 367 24 22 229 200 114 123 104 199  255 156 0
4  135 207 88 99  0 255 78
12  135 206 101 124 109 205 17 410 209 117 208 207  235 0 255
5  139 446 91 90 98  0 235 255
4  139 281 253 254  0 255 235
4  138 132 131 441  0 255 39
5  135 99 136 278 206  0 255 235
4  139 140 418 446  0 235 255
4  209 341 210 134  235 0 255
4  383 373 120 129  0 255 39
4  209 338 118 117  0 255 156
5  383 129 332 385 342  0 255 39
5  209 134 129 337 338  0 255 156
4  325 324 382 381  255 0 0
4  381 377 346 325  255 0 0
4  358 353 350 343  255 117 0
4  343 350 38 37  255 117 0
4  377 358 343 346  255 0 0
4  373 348 130 120  0 255 39
4  117 118 340 208  0 255 78
4  370 298 151 150  255 156 0
4  371 299 298 370  255 156 0
4  370 150 149 431  255 156 0
5  209 410 12 248 341  235 0 255
3  139 254 140  0 255 235
5  368 331 158 161 430  255 39 0
4  225 166 160 226  255 39 0
4  367 9 265 264  255 0 78
4  367 214 25 24  255 156 0
5  367 264 213 155 214  255 0 78
5  207 208 340 100 88  0 255 78
4  441 131 130 348  0 255 39
5  446 418 420 89 91  0 235 255
4  201 200 229 356  255 156 0
4  356 229 421 357  255 117 0
4  354 228 33 34  255 117 0
7  354 314 250 51 50 49 352  255 117 0
4  354 34 292 314  255 117 0
5  171 224 284 169 170  156 255 0
5  366 364 365 169 167  196 255 0
4  363 288 437 85  255 196 0
4  362 363 85 84  255 196 0
4  361 362 84 83  255 196 0
4  360 359 82 81  255 196 0
6  180 360 81 71 374 184  235 255 0
6  225 226 374 71 72 179  0 78 255
4  171 179 72 73  0 78 255
4  359 361 83 82  255 196 0
9  357 421 419 424 425 429 352 353 358  255 117 0
4  355 334 296 295  39 0 255
4  355 271 41 334  39 0 255
4  355 295 42 271  39 0 255
7  352 49 39 48 47 46 353  255 117 0
4  352 429 228 354  255 117 0
7  353 46 27 53 255 313 350  255 117 0
4  350 313 293 38  255 117 0
4  344 349 303 351  117 0 255
4  344 37 38 349  117 0 255
4  325 346 345 322  255 0 0
5  349 38 34 301 303  117 0 255
6  347 342 385 428 274 378  255 0 156
4  347 378 265 9  255 0 117
4  120 121 337 129  0 255 156
5  346 343 37 344 345  255 0 0
4  430 161 335 178  255 39 0
4  128 115 116 127  0 255 196
4  128 105 104 123  255 235 0
4  309 288 112 196  255 196 0
6  128 127 304 106 92 105  255 235 0
4  309 195 111 288  255 196 0
4  115 128 123 114  0 255 196
5  423 194 111 108 110  0 255 117
5  288 111 194 316 317  255 196 0
4  140 252 277 136  0 255 235
5  136 99 88 89 420  0 235 255
4  136 277 95 278  0 255 235
4  420 418 140 136  0 235 255
4  224 171 73 74  0 78 255
5  222 269 284 224 223  156 255 0
4  121 326 327 118  0 255 78
4  121 120 130 339  0 255 78
4  118 327 100 340  0 255 78
4  339 97 326 121  0 255 78
5  339 130 131 90 97  0 255 78
4  228 145 142 262  0 255 0
5  228 262 263 227 33  0 255 0
4  338 337 121 118  0 255 156
4  166 447 159 160  78 255 0
4  161 321 447 166  78 255 0
4  336 335 161 166  255 39 0
4  46 333 32 27  156 0 255
4  49 334 41 39  39 0 255
4  49 50 296 334  39 0 255
4  46 47 275 333  156 0 255
4  313 255 52 276  255 117 0
4  314 283 45 250  255 117 0
4  333 275 31 32  156 0 255
4  282 275 47 48  156 0 255
4  282 41 29 30  156 0 255
4  282 30 31 275  156 0 255
4  127 315 310 126  0 255 196
4  116 110 315 127  0 255 196
4  210 10 385 332  0 255 39
4  210 332 129 134  0 255 39
4  330 159 157 329  117 255 0
4  158 157 321 161  78 255 0
4  108 111 195 310  0 255 196
4  97 306 307 100  0 156 255
4  90 91 306 97  0 156 255
4  90 131 132 98  0 255 78
4  100 307 89 88  0 156 255
4  327 326 97 100  0 255 78
4  325 322 323 324  255 0 0
4  447 321 157 159  78 255 0
5  436 290 291 407 312  255 156 0
4  436 320 415 154  255 156 0
4  407 21 311 312  255 156 0
4  436 312 311 320  255 156 0
4  436 154 153 290  255 156 0
4  435 291 290 433  255 156 0
4  433 290 153 152  255 156 0
4  433 298 299 435  255 156 0
4  433 152 151 298  255 156 0
5  24 386 142 145 22  196 0 255
5  320 311 25 416 415  255 156 0
4  287 154 155 213  39 255 0
4  319 25 311 318  196 0 255
4  78 193 192 77  255 196 0
4  78 387 272 87  0 117 255
4  316 194 193 78  255 196 0
4  317 316 78 87  255 196 0
4  105 281 199 104  0 255 235
5  105 92 93 253 281  0 255 235
4  77 69 387 78  0 117 255
4  77 192 191 79  255 196 0
4  315 110 108 310  0 255 196
6  314 292 293 313 276 283  255 117 0
4  214 155 416 25  255 156 0
6  124 101 94 102 308 125  255 235 0
5  124 125 196 112 109  0 255 196
5  126 310 195 196 125  0 255 196
3  309 196 195  255 196 0
5  101 206 278 95 94  0 255 235
4  308 102 107 305  255 235 0
4  305 107 106 304  255 235 0
4  308 305 126 125  255 235 0
4  211 16 274 428  255 0 156
4  211 428 385 10  255 0 156
4  224 74 75 223  0 78 255
4  222 223 75 76  0 78 255
4  378 274 273 265  255 0 117
4  265 273 212 8  255 0 117
4  60 1 0 259  255 0 39
4  154 287 286 153  39 255 0
4  416 155 154 415  255 156 0
4  307 306 91 89  0 156 255
4  263 141 143 403  0 255 0
4  365 247 170 169  196 255 0
4  145 228 429 425  255 117 0
3  386 141 142  196 0 255
4  66 5 396 445  0 39 255
4  445 396 394 439  0 39 255
4  439 394 1 60  0 39 255
4  445 439 60 66  0 39 255
5  294 65 64 57 56  78 0 255
4  54 56 257 235  0 0 255
5  1 65 294 42 43  78 0 255
4  5 61 242 396  0 39 255
4  5 66 260 4  255 0 39
6  396 242 244 270 300 394  0 39 255
4  394 300 65 1  0 39 255
4  305 304 127 126  255 235 0
3  303 301 302  117 0 255
4  63 58 57 64  78 0 255
5  300 270 258 64 65  0 39 255
4  63 64 258 238  0 39 255
4  244 238 258 270  0 39 255
4  210 341 248 10  235 0 255
4  269 222 221 268  156 255 0
4  268 221 172 168  156 255 0
4  69 77 79 68  0 117 255
4  272 387 69 76  0 117 255
4  87 272 239 86  0 117 255
4  66 60 259 260  255 0 39
5  294 56 54 31 30  78 0 255
4  279 96 93 297  0 196 255
4  297 93 92 106  0 196 255
4  279 297 106 107  0 196 255
4  296 267 266 295  39 0 255
4  295 266 43 42  39 0 255
4  294 30 29 42  78 0 255
4  293 292 34 38  255 117 0
4  8 212 285 286  255 0 235
4  13 152 153 286  39 255 0
5  13 14 249 248 12  255 0 196
4  286 285 14 13  255 0 235
4  32 246 53 27  78 0 255
4  289 261 246 32  78 0 255
7  289 55 59 62 67 245 261  78 0 255
5  289 32 31 54 55  78 0 255
4  109 112 197 205  0 255 117
4  213 8 286 287  39 255 0
4  249 14 16 211  255 0 196
4  212 16 14 285  255 0 235
4  284 269 167 169  156 255 0
4  48 39 41 282  156 0 255
4  283 276 52 45  255 117 0
4  259 0 2 45  255 0 39
4  102 94 95 280  0 196 255
4  280 95 96 279  0 196 255
4  280 279 107 102  0 196 255
4  252 140 254 251  0 255 235
4  277 252 96 95  0 255 235
4  212 273 274 16  255 0 117
4  86 239 240 85  0 117 255
4  239 272 76 75  0 117 255
4  42 29 41 271  39 0 255
4  56 57 256 257  0 0 255
4  269 268 168 167  156 255 0
4  267 296 50 51  39 0 255
4  1 43 44 0  78 0 255
4  267 44 43 266  39 0 255
4  213 264 265 8  255 0 78
4  263 262 142 141  0 255 0
4  4 260 52 3  255 0 39
4  5 245 67 61  78 0 255
5  5 4 246 261 245  78 0 255
5  45 2 40 51 250  255 117 0
4  260 259 45 52  255 0 39
4  235 257 256 234  0 0 255
4  58 63 62 59  78 0 255
4  256 57 58 234  0 0 255
4  255 53 3 52  255 117 0
4  253 93 251 254  0 255 235
4  252 251 93 96  0 255 235
4  249 211 10 248  255 0 196
4  170 247 178 173  196 255 0
4  0 44 40 2  78 0 255
4  51 40 44 267  39 0 255
3  288 317 437  255 196 0
4  85 240 74 84  0 117 255
5  317 87 86 85 437  255 196 0
4  244 242 241 243  0 39 255
4  54 235 236 55  0 0 255
4  4 3 53 246  78 0 255
4  84 74 73 83  0 117 255
4  55 236 233 59  0 0 255
5  243 241 67 62 237  0 39 255
4  244 243 237 238  0 39 255
4  63 238 237 62  0 39 255
4  242 61 67 241  0 39 255
4  240 239 75 74  0 117 255
4  236 235 234 233  0 0 255
4  234 58 59 233  0 0 255
4  204 205 197 198  0 255 117
4  230 431 149 148  255 156 0
4  204 19 17 205  235 0 255
7  425 424 419 421 229 22 145  255 117 0
4  379 398 181 187  255 0 0
4  398 379 187 181  235 255 0
5  356 379 369 215 36  255 0 0
5  379 356 36 215 369  255 156 0
5  229 356 36 23 22  255 117 0
5  356 229 22 23 36  255 156 0
4  145 22 23 35  255 117 0
4  228 145 35 33  255 117 0
4  145 228 33 35  0 255 0
5  227 33 35 144 391  117 0 255
5  227 391 144 35 33  0 255 0
4  21 144 35 23  117 0 255
4  144 21 23 35  196 0 255
9  407 21 23 36 215 371 299 435 291  117 0 255
9  21 407 291 435 299 371 215 36 23  255 156 0
3  406 186 187  255 0 0
4  369 186 187 379  235 255 0
5  401 406 187 181 404  255 0 0
5  406 401 404 181 187  255 78 0
4  379 187 186 369  255 0 0
3  406 187 186  255 78 0
5  172 68 70 220 174  0 78 255
4  221 69 68 172  0 78 255
5  184 165 164 219 216  255 39 0
4  218 165 164 217  255 78 0
6  226 374 220 174 179 225  255 39 0
4  184 374 220 183  235 255 0
6  226 225 179 174 220 374  0 78 255
4  171 179 174 172  196 255 0
4  179 171 172 174  0 78 255
6  224 171 172 221 222 223  156 255 0
6  171 224 223 222 221 172  0 78 255
3  216 183 184  255 39 0
5  216 219 164 165 184  255 78 0
4  217 164 165 218  117 255 0
3  216 184 183  255 78 0
6  358 357 356 36 37 343  255 0 0
6  357 358 343 37 36 356  255 117 0
5  344 37 36 215 351  255 0 0
5  344 351 215 36 37  117 0 255
4  374 184 183 220  255 39 0
8  380 372 189 188 203 20 147 202  235 255 0
8  372 380 202 147 20 203 188 189  0 255 117
3  379 202 369  235 255 0
3  202 379 369  255 156 0
5  376 369 202 147 146  235 255 0
5  369 376 146 147 202  255 156 0
3  203 18 20  235 255 0
3  360 188 189  235 255 0
4  374 71 70 220  235 255 0
5  360 81 80 190 189  255 196 0
4  374 220 70 71  0 78 255
3  372 190 189  235 255 0
5  360 189 190 80 81  235 255 0
3  372 189 190  0 255 117
3  360 189 188  255 196 0
3  203 20 18  235 0 255
5  214 367 9 7 156  255 156 0
5  367 214 156 7 9  255 0 78
3  155 214 156  255 156 0
3  214 155 156  255 0 78
4  213 155 156 8  39 255 0
4  155 213 8 156  255 0 78
3  212 8 16  255 0 235
3  8 212 16  255 0 117
3  211 16 10  255 0 196
3  16 211 10  255 0 156
3  210 10 134  235 0 255
3  10 210 134  0 255 39
3  209 134 117  235 0 255
3  134 209 117  0 255 156
6  208 117 119 133 135 207  235 0 255
6  117 208 207 135 133 119  0 255 78
6  206 135 133 426 422 101  235 0 255
6  135 206 101 422 426 133  0 255 235
4  124 101 422 405  235 0 255
4  101 124 405 422  255 235 0
4  109 124 405 399  235 0 255
4  124 109 399 405  0 255 196
6  205 109 399 20 203 204  235 0 255
6  109 205 204 203 20 399  0 255 117
6  202 147 113 114 200 201  255 156 0
6  202 201 200 114 113 147  0 255 117
4  123 114 113 122  255 156 0
4  114 123 122 113  0 255 196
4  104 123 122 103  255 156 0
4  123 104 103 122  255 235 0
5  199 104 103 137 138  255 156 0
5  104 199 138 137 103  0 255 235
8  441 138 137 384 342 383 373 348  255 156 0
8  138 441 348 373 383 342 384 137  0 255 39
4  347 342 384 375  255 156 0
4  342 347 375 384  255 0 156
4  9 347 375 7  255 156 0
4  347 9 7 375  255 0 117
3  8 156 7  39 255 0
3  16 8 15  255 0 235
3  8 16 15  255 0 117
4  10 16 15 11  255 0 196
4  16 10 11 15  255 0 156
6  134 10 11 426 133 119  235 0 255
6  10 134 119 133 426 11  0 255 39
3  117 134 119  235 0 255
3  134 117 119  0 255 156
4  190 80 79 191  255 196 0
5  198 188 111 112 197  255 196 0
5  188 198 197 112 111  0 255 117
4  196 112 111 195  255 196 0
4  112 196 195 111  0 255 196
8  194 111 188 189 190 191 192 193  255 196 0
8  111 194 193 192 191 190 189 188  0 255 117
5  187 181 180 185 186  255 78 0
5  181 187 186 185 180  235 255 0
5  184 180 181 182 183  255 78 0
5  180 184 183 182 181  235 255 0
3  179 174 173  255 39 0
3  174 179 173  196 255 0
6  178 173 174 175 176 177  255 39 0
6  173 178 177 176 175 174  196 255 0
6  172 168 167 169 170 171  196 255 0
6  168 172 171 170 169 167  156 255 0
4  166 161 158 160  255 39 0
4  161 166 160 158  78 255 0
6  165 160 158 162 163 164  255 39 0
6  160 165 164 163 162 158  117 255 0
4  160 158 157 159  117 255 0
4  158 160 159 157  78 255 0
4  152 13 12 151  39 255 0
4  151 12 410 150  39 255 0
4  150 410 17 149  39 255 0
4  147 20 399 113  39 255 0
4  147 20 18 146  235 255 0
3  156 8 7  255 0 78
4  148 19 18 146  39 255 0
4  149 17 19 148  39 255 0
4  146 18 20 147  39 255 0
4  147 113 399 20  0 255 117
18  156 7 375 384 137 103 122 113 147 146 148 149 150 151 152 153 154 155  255 156 0
18  147 113 122 103 137 384 375 7 156 155 154 153 152 151 150 149 148 146  39 255 0
4  145 35 23 22  196 0 255
6  145 142 141 143 144 35  196 0 255
6  142 145 35 144 143 141  0 255 0
4  137 384 11 426  0 255 39
4  137 103 422 426  39 255 0
4  137 426 422 103  0 255 235
4  137 426 11 384  39 255 0
5  140 136 99 98 139  0 255 235
5  136 140 139 98 99  0 235 255
5  138 132 133 426 137  0 255 235
5  138 137 426 133 132  0 255 39
5  135 133 132 98 99  0 255 235
5  135 99 98 132 133  0 255 78
4  134 129 120 119  0 255 39
4  129 134 119 120  0 255 156
6  133 119 120 130 131 132  0 255 39
6  133 132 131 130 120 119  0 255 78
4  122 103 422 405  255 235 0
4  122 113 399 405  39 255 0
4  122 405 399 113  0 255 196
4  122 405 422 103  39 255 0
8  128 123 122 405 124 125 126 127  255 235 0
8  123 128 127 126 125 124 405 122  0 255 196
5  121 118 117 119 120  0 255 78
5  118 121 120 119 117  0 255 156
8  116 110 108 109 399 113 114 115  0 255 117
8  110 116 115 114 113 399 109 108  0 255 196
4  112 109 108 111  0 255 117
4  109 112 111 108  0 255 196
5  107 102 94 92 106  255 235 0
5  102 107 106 92 94  0 196 255
7  105 92 94 101 422 103 104  255 235 0
7  105 104 103 422 101 94 92  0 255 235
4  100 97 90 88  0 255 78
4  97 100 88 90  0 156 255
4  99 88 90 98  0 255 78
4  88 99 98 90  0 235 255
5  96 93 92 94 95  0 255 235
5  93 96 95 94 92  0 196 255
4  91 89 88 90  0 235 255
4  89 91 90 88  0 156 255
4  82 72 71 81  0 117 255
4  80 70 68 79  0 117 255
4  80 70 71 81  235 255 0
4  81 71 70 80  0 117 255
4  83 73 72 82  0 117 255
11  87 78 77 79 80 81 82 83 84 85 86  255 196 0
11  78 87 86 85 84 83 82 81 80 79 77  0 117 255
9  76 69 68 70 71 72 73 74 75  0 117 255
9  69 76 75 74 73 72 71 70 68  0 78 255
3  67 62 61  78 0 255
3  62 67 61  0 39 255
3  5 61 6  78 0 255
3  61 5 6  0 39 255
4  66 5 6 60  255 0 39
4  5 66 60 6  0 39 255
3  1 60 6  255 0 39
3  60 1 6  0 39 255
7  65 1 6 61 62 63 64  78 0 255
7  1 65 64 63 62 61 6  0 39 255
6  59 55 54 56 57 58  78 0 255
6  55 59 58 57 56 54  0 0 255
3  27 46 26  255 117 0
3  46 27 26  156 0 255
3  53 27 3  255 117 0
3  27 53 3  78 0 255
3  52 3 45  255 117 0
3  3 52 45  255 0 39
3  2 45 3  255 117 0
3  45 2 3  255 0 39
6  51 40 28 39 49 50  255 117 0
4  2 40 28 26  78 0 255
6  51 50 49 39 28 40  39 0 255
6  48 39 28 26 46 47  255 117 0
6  48 47 46 26 28 39  156 0 255
4  2 26 28 40  255 117 0
4  2 26 27 3  78 0 255
4  3 27 26 2  255 117 0
5  44 40 29 42 43  39 0 255
5  40 44 43 42 29  78 0 255
4  41 29 28 39  39 0 255
4  29 41 39 28  156 0 255
3  40 28 29  39 0 255
3  40 29 28  78 0 255
7  38 34 33 35 23 36 37  255 117 0
7  34 38 37 36 23 35 33  117 0 255
7  32 27 26 28 29 30 31  78 0 255
7  27 32 31 30 29 28 26  156 0 255
6  24 25 311 21 23 22  255 156 0
6  25 24 22 23 21 311  196 0 255
4  8 15 375 7  255 0 117
11  399 20 18 19 17 410 12 11 426 422 405  39 255 0
11  20 399 405 422 426 11 12 410 17 19 18  235 0 255
4  8 15 13 286  39 255 0
4  8 286 13 15  255 0 235
4  12 13 15 11  39 255 0
4  13 12 11 15  255 0 196
4  15 11 384 375  255 0 156
4  15 8 7 375  39 255 0
4  16 14 13 15  255 0 196
4  14 16 15 13  255 0 235
4  11 15 375 384  39 255 0
4  10 248 12 11  235 0 255
4  248 10 11 12  255 0 196
5  385 10 11 384 342  0 255 39
5  10 385 342 384 11  255 0 156
6  274 16 15 375 347 378  255 0 156
6  16 274 378 347 375 15  255 0 117
4  265 8 7 9  255 0 117
4  8 265 9 7  255 0 78
7  6 1 0 2 3 4 5  78 0 255
7  1 6 5 4 3 2 0  255 0 39

