OFF
431 528 0

43.8481 -44.3408 44.296
47.3759 -46.2841 44.296
37.1686 -40.6612 44.296
37.1686 -40.6612 44.6954
38.6329 -41.4678 44.6954
42.9126 -43.8254 44.6954
47.3759 -46.2841 44.6954
48.8417 -9.80937 38.2172
48.8417 -9.80937 40.8951
48.8417 -9.80937 35.1817
48.8417 -9.80937 -35.7723
63.1288 -17.6801 -35.7723
63.1288 -17.6801 40.8951
45.8946 -24.8216 44.296
31.2634 -51.3803 44.296
31.2634 -51.3803 44.6954
37.1686 -40.6612 47.4645
45.8946 -24.8216 47.4645
45.8946 -24.8216 44.6954
48.9203 -22.7947 44.296
51.6387 -27.986 44.296
47.3591 -25.6284 44.296
41.472 -57.0043 44.296
37.0072 -54.5446 44.296
32.7276 -52.1869 44.296
27.1793 -49.1303 44.296
33.0845 -38.4113 44.296
41.8107 -22.5718 44.296
53.1998 -25.1524 44.296
56.0996 -30.4436 44.296
42.9126 -43.8254 47.4645
43.2283 -43.9993 47.4645
40.7373 -42.6271 47.4645
43.3088 -37.9596 47.4645
45.484 -39.1579 47.4645
45.7996 -39.3318 47.4645
48.9203 -22.7947 47.4645
48.9547 -32.8579 47.4645
48.046 -35.2541 47.4645
47.7304 -35.0802 47.4645
45.5554 -33.8819 47.4645
43.4509 -32.7225 47.4645
47.3591 -25.6284 47.4645
53.1998 -25.1524 47.4645
51.6387 -27.986 47.4645
49.2704 -33.0318 47.4645
-52.8024 -5.06753 -16.9632
-52.8024 -5.06753 -13.8313
-52.8024 -5.06753 -39.5136
-44.7631 9.54325 -39.5136
-44.7631 9.54325 -20.4987
-44.7631 9.54325 -16.9632
-39.0701 6.55872 -39.5136
-39.0701 6.55872 -16.9632
-39.0701 6.55872 -20.4987
-39.0701 6.55872 -13.8313
-39.0701 6.55872 -10.8807
-39.2026 6.25905 -10.8807
-39.6725 5.19606 -10.8807
-45.8933 -8.8738 -10.8807
-45.8933 -8.8738 -13.8313
-45.8933 -8.8738 -16.9632
-45.8933 -8.8738 -39.5136
-4.38203 9.90939 7.6578
-9.67378 9.20263 7.6578
-2.1104 -7.09845 7.6578
-7.4024 -7.80341 7.6578
-19.4776 -9.41199 -1.5259
-19.4776 -9.41199 1.52681
-21.7485 7.58996 -1.5259
-21.7485 7.58996 1.52681
-20.2962 -3.28337 1.52681
-2.1104 -7.09845 10.5726
-2.1104 -7.09845 4.49268
-4.38203 9.90939 4.49268
-4.38203 9.90939 10.5726
7.56497 11.505 -1.5259
-26.7663 6.9198 -1.5259
30.4893 -1.1242 -1.5259
32.8741 -2.43803 -1.5259
-10.8086 -8.25717 -1.5259
-24.4956 -10.0805 -1.5259
-25.788 -0.40431 -1.5259
-37.1202 5.5365 -7.79483
7.56497 11.505 -7.79483
-37.5821 -11.8238 -7.79483
-37.1209 5.53686 -7.79483
-37.1209 5.53686 -7.79483
30.4893 -1.1242 -7.79483
32.8741 -2.43803 -7.79483
-10.8086 -8.25717 -7.79483
-30.0608 -10.8218 -7.79483
7.56497 11.505 13.5844
1.06945 10.6375 13.5844
7.67364 11.4451 13.5844
9.93618 -5.49368 13.5844
3.3414 -6.37219 13.5844
30.4893 -1.1242 -4.71145
32.8741 -2.43803 -4.71145
7.56497 11.505 -4.71145
-32.3312 6.17655 -4.71145
-31.8787 2.7887 -4.71145
-30.0608 -10.8218 -4.71145
-10.8086 -8.25717 -4.71145
9.93618 -5.49368 16.6576
9.93618 -5.49368 10.5726
9.93618 -5.49368 7.6578
9.93618 -5.49368 4.49268
7.67364 11.4451 4.49268
7.67364 11.4451 16.6576
7.56497 11.505 4.49268
-15.0632 8.48283 4.49268
30.4893 -1.1242 4.49268
32.8741 -2.43803 4.49268
-10.8086 -8.25717 4.49268
-12.9793 -7.11921 4.49268
40.9728 -1.35918 35.1817
38.6312 -5.60962 35.1817
46.4428 8.56985 35.1817
56.0512 3.27698 35.1817
48.2393 -10.9028 35.1817
31.1601 14.6563 -39.5136
30.4893 -1.1242 -39.5136
31.1601 14.6563 -20.4987
31.1601 14.6563 -13.8313
31.1601 14.6563 16.6576
31.1601 14.6563 19.9198
31.1601 14.6563 23.0057
31.1601 14.6563 25.8641
31.1601 14.6563 29.0795
30.4893 -1.1242 29.0795
30.4893 -1.1242 28.0876
-54.6668 49.8401 -26.3179
-61.5603 37.3271 -26.3179
-38.2103 40.774 -26.3179
-45.1037 28.2611 -26.3179
-61.5603 37.3271 -23.4186
-61.5603 37.3271 -40.066
-61.5603 37.3271 -52.8861
-45.1037 28.2611 -52.8861
-45.1037 28.2611 -40.066
-45.1037 28.2611 -23.4186
-60.5295 2.41046 -16.9632
-61.8908 -0.0606259 -16.9632
-53.9474 14.3581 -16.9632
-53.043 13.884 -16.9632
-53.0284 13.8763 -16.9632
-60.9821 -0.561226 -16.9632
-53.043 13.884 -20.4987
-60.9821 -0.561226 -20.4987
-65.2354 1.78194 -20.4987
-77.4387 8.50488 -20.4987
-69.6726 22.6019 -20.4987
-69.4851 22.9421 -20.4987
-53.0284 13.8763 -20.4987
-37.1209 5.53686 -40.066
27.1793 -49.1303 -40.066
-39.9629 -12.1409 -40.066
-60.9821 -0.561226 -40.066
-53.0284 13.8763 -40.066
34.5677 15.1114 -40.066
56.0512 3.27698 -40.066
48.562 -10.3172 -40.066
-37.1209 5.53686 -39.5136
-37.1209 5.53666 -39.5136
-40.222 -11.9982 -39.5136
-40.222 -11.9982 -16.9632
-40.222 -11.9982 -13.8313
-40.222 -11.9982 -10.8807
-40.222 -11.9982 -7.79483
-37.1209 5.53686 -4.71145
-37.1209 5.53686 -4.71145
-37.1209 5.53686 -13.8313
-37.1209 5.53686 -20.4987
32.8741 -2.43803 1.52681
32.8741 -2.43803 -10.8807
32.8741 -2.43803 -35.7723
32.8741 -2.43803 -39.5136
7.56497 11.505 -39.5136
7.56497 11.505 -20.4987
7.56497 11.505 -13.8313
7.56497 11.505 1.52681
7.56497 11.505 7.6578
7.56497 11.505 10.5726
7.56497 11.505 16.6576
7.67364 11.4451 19.9198
13.5363 8.21536 19.9198
13.5363 8.21536 23.0057
19.5365 4.90977 23.0057
19.5365 4.90977 25.8641
25.2342 1.7709 25.8641
25.2342 1.7709 29.0795
32.8337 -2.41574 29.0795
56.0512 3.27698 -35.7723
-39.9629 -12.1409 -39.5136
48.2393 -10.9028 -39.5136
56.0512 3.27698 -39.5136
56.0512 3.27698 -52.8861
27.1793 -49.1303 -52.8861
34.5677 15.1114 -39.5136
27.1793 -49.1303 -39.5136
54.489 0.441366 -52.8861
-39.9629 -12.1409 -52.8861
56.0512 3.27698 16.6576
56.0512 3.27698 19.9198
56.0512 3.27698 23.0057
-10.8086 -8.25717 -10.8807
48.2393 -10.9028 -10.8807
27.1793 -49.1303 -10.8807
27.1793 -49.1303 -4.71145
27.1793 -49.1303 35.1817
34.5677 15.1114 -26.3179
27.1793 -49.1303 38.2172
48.2393 -10.9028 38.2172
-37.1209 5.53686 -13.8313
34.5677 15.1114 -13.8313
-37.1209 5.53686 -20.4987
34.5677 15.1114 -20.4987
-10.8086 -8.25717 -35.7723
-39.9629 -12.1409 -35.7723
45.7996 -39.3318 50.4141
45.484 -39.1579 50.4141
42.9126 -43.8254 50.4141
43.2283 -43.9993 50.4141
48.046 -35.2541 50.4141
47.7304 -35.0802 50.4141
-44.8563 9.37379 -10.8807
-44.8563 9.37379 -13.8313
-44.7631 9.54325 -13.8313
-44.7631 9.54325 -10.8807
49.2704 -33.0318 52.8861
48.9547 -32.8579 52.8861
48.046 -35.2541 52.8861
47.7304 -35.0802 52.8861
51.9543 -28.1599 47.4645
56.0996 -30.4436 44.6954
51.6387 -27.986 44.6954
-39.0701 6.55872 -7.79483
-39.6725 5.19606 -7.79483
-37.1209 5.53686 -7.79483
41.8107 -22.5718 44.6954
47.3591 -25.6284 44.6954
33.0845 -38.4113 44.6954
-69.4851 22.9421 -16.9632
12.9999 12.2309 19.9198
12.9999 12.2309 23.0057
43.3719 -19.738 44.296
-19.4776 -9.41199 4.49268
-20.2962 -3.28337 4.49268
-12.792 -8.52138 1.52681
-12.792 -8.52138 4.49268
57.6603 -27.6098 44.296
43.3088 -37.9596 50.4141
40.7373 -42.6271 50.4141
45.5554 -33.8819 50.4141
48.9203 -22.7947 44.6954
53.1998 -25.1524 44.6954
56.0996 -30.4436 47.4645
38.6312 -5.60962 38.2172
40.9728 -1.35918 38.2172
25.9201 -3.3644 29.0795
25.9201 -3.3644 25.8641
41.8107 -22.5718 47.4645
-61.8908 -0.0606259 -13.8313
-60.5295 2.41046 -13.8313
20.734 -4.05526 23.0057
20.734 -4.05526 25.8641
37.0072 -54.5446 44.6954
58.0673 -16.3171 44.296
-21.7485 7.58996 4.49268
-15.0632 8.48283 1.52681
-25.788 -0.40431 1.52681
-26.7663 6.9198 1.52681
-10.8086 -8.25717 1.52681
32.7276 -52.1869 44.6954
53.7877 -13.9595 44.296
-53.9474 14.3581 -13.8313
18.4612 12.9603 23.0057
18.4612 12.9603 25.8641
23.6471 13.6529 25.8641
23.6471 13.6529 29.0795
47.3759 -46.2841 47.4645
23.6471 13.6529 23.0057
34.5677 15.1114 25.8641
56.0512 3.27698 25.8641
48.8417 -9.80937 44.296
63.1288 -17.6801 44.296
38.6329 -41.4678 47.4645
33.0845 -38.4113 47.4645
-24.4956 -10.0805 1.52681
7.56497 11.505 19.9198
46.4428 8.56985 38.2172
-7.4024 -7.80341 10.5726
25.9201 -3.3644 23.0057
-59.2509 2.58121 -13.8313
-53.0284 13.8763 -13.8313
15.2724 -4.78282 23.0057
15.2724 -4.78282 19.9198
-31.8787 2.7887 -1.5259
-32.3312 6.17655 -1.5259
-37.1209 5.53686 -4.71145
-37.1202 5.5365 -4.71145
32.8337 -2.41574 32.0133
38.3267 13.0407 32.0133
38.3267 13.0407 29.0795
62.5265 -18.7738 44.296
48.2393 -10.9028 44.296
-37.5821 -11.8238 -4.71145
32.8741 -2.43803 25.8641
-45.8933 -8.8738 -7.79483
38.3267 13.0407 35.1817
32.8337 -2.41574 35.1817
34.5677 15.1114 32.0133
56.0512 3.27698 32.0133
32.8741 -2.43803 32.0133
34.5677 15.1114 23.0057
34.5677 15.1114 29.0795
56.0512 3.27698 29.0795
-37.1209 5.53686 -16.9632
-54.6668 49.8401 -23.4186
-38.2103 40.774 -23.4186
77.4388 -8.50463 -39.5136
77.4388 -8.50463 -52.8861
69.6261 -22.685 -52.8861
69.6261 -22.685 -39.5136
-2.1104 -7.09845 13.5844
-4.38203 9.90939 13.5844
-37.5821 -11.8238 -10.8807
-48.5693 60.9084 -26.3179
-32.1123 51.8429 -26.3179
-53.0284 13.8763 -26.3179
-69.6726 22.6019 -26.3179
9.93618 -5.49368 19.9198
41.472 -57.0043 44.6954
27.1793 -49.1303 44.6954
-61.5603 37.3271 -20.4987
-45.1037 28.2611 -20.4987
3.3414 -6.37219 16.6576
1.06945 10.6375 16.6576
54.489 0.441366 38.2172
3.3414 -6.37219 10.5726
1.06945 10.6375 10.5726
-12.9793 -7.11921 7.6578
-69.4851 22.9421 -23.4186
32.8741 -2.43803 19.9198
62.5265 -18.7738 -35.7723
70.3366 -4.59231 -35.7723
77.4388 -8.50463 -35.7723
69.6261 -22.685 -35.7723
32.8741 -2.43803 23.0057
32.8741 -2.43803 10.5726
54.489 0.441366 40.8951
59.8921 1.16114 40.8951
70.3366 -4.59231 40.8951
62.5265 -18.7738 40.8951
70.3366 -4.59231 -52.8861
59.8921 1.16114 -35.7723
-65.2354 1.78194 -52.8861
27.1793 -49.1303 40.8951
34.5677 15.1114 -52.8861
41.472 -57.0043 40.8951
48.2393 -10.9028 40.8951
41.472 -57.0043 -52.8861
27.1793 -49.1303 47.4645
48.2393 -10.9028 -35.7723
27.1793 -49.1303 -35.7723
41.472 -57.0043 -35.7723
-69.6726 22.6019 -16.9632
-77.4387 8.50488 -16.9632
32.8741 -2.43803 29.0795
-10.8086 -8.25717 7.6578
32.8741 -2.43803 7.6578
32.8741 -2.43803 16.6576
32.8741 -2.43803 13.5844
-69.6726 22.6019 -23.4186
-53.0284 13.8763 -23.4186
34.5677 15.1114 16.6576
-37.1209 5.53686 -39.5136
-60.9821 -0.561226 -39.5136
-53.0284 13.8763 -39.5136
48.5652 -60.912 -35.7723
-10.8086 -8.25717 -39.5136
32.8741 -2.43803 35.1817
-37.1209 5.53686 -10.8807
-52.8024 -5.06753 -10.8807
-47.7485 4.11745 -13.8313
62.5265 -18.7738 -52.8861
-47.7485 4.11745 -10.8807
-69.6726 22.6019 -40.066
-39.9629 -12.1409 -10.8807
-77.4387 8.50488 -52.8861
-48.5693 60.9084 -40.066
51.6387 -27.986 52.8861
41.472 -57.0043 -39.5136
70.3366 -4.59231 -39.5136
-60.9821 -0.561226 -52.8861
-32.1123 51.8429 -40.066
-65.2354 1.78194 -16.9632
-32.1123 51.8429 -52.8861
-10.8086 -8.25717 -16.9632
-39.9629 -12.1409 -16.9632
-59.2509 2.58121 -52.8861
48.9203 -22.7947 52.8861
53.1998 -25.1524 52.8861
-60.9821 -0.561226 -13.8313
59.8921 1.16114 -52.8861
-77.4387 8.50488 -40.066
-65.2354 1.78194 -39.5136
-48.5693 60.9084 -52.8861
45.5554 -33.8819 52.8861
56.0512 3.27698 38.2172
34.5677 15.1114 19.9198
31.2634 -51.3803 47.4645
59.8921 1.16114 -39.5136
43.4509 -32.7225 52.8861
-10.8086 -8.25717 -13.8313
48.5652 -60.912 -39.5136
-39.9629 -12.1409 -13.8313
-30.0608 -10.8218 -1.5259
31.1601 14.6563 32.0133
48.5652 -60.912 -52.8861
30.4893 -1.1242 32.0133
-53.0286 13.876 -13.8313
-39.9629 -12.1409 -7.79483
47.3591 -25.6284 52.8861
56.0512 3.27698 40.8951
-9.67378 9.20263 10.5726
-65.2354 1.78194 -40.066
-15.0632 8.48283 7.6578
-37.6248 -13.429 -39.5136
27.1793 -49.1303 -7.79483
4  355 322 321 394  255 0 0
6  355 405 201 198 362 386  255 0 0
4  355 386 323 322  255 0 0
4  355 394 413 405  255 0 0
5  362 198 156 200 393  255 0 0
4  359 398 139 401  255 98 0
4  359 197 161 160  255 98 0
4  357 390 406 427  255 49 0
3  357 395 401  255 49 0
4  359 160 396 398  255 98 0
5  357 401 139 138 390  255 49 0
6  359 401 395 202 201 197  255 98 0
6  357 427 407 378 158 395  255 49 0
7  160 199 121 178 163 377 155  164 255 0
5  427 406 151 150 407  255 49 0
5  160 155 159 140 396  255 98 0
4  198 202 157 156  255 98 0
7  197 405 413 356 193 196 161  255 0 0
3  197 201 405  255 0 0
3  198 201 202  255 98 0
4  202 395 158 157  255 98 0
4  199 160 161 196  164 255 0
5  199 211 217 123 121  255 197 0
8  196 193 203 376 215 217 211 199  255 197 0
4  194 219 218 381  0 230 255
7  194 157 158 378 48 62 165  164 255 0
4  407 150 149 378  255 49 0
5  194 165 166 400 219  0 230 255
5  200 156 157 194 429  164 255 0
4  200 365 366 393  255 0 0
4  200 195 364 365  255 0 0
6  194 381 177 195 200 429  164 255 0
4  178 121 123 179  0 255 82
4  177 381 218 176  0 230 255
4  178 179 173 163  0 230 255
4  377 163 173 216  255 246 0
4  391 396 329 328  16 255 0
5  391 328 132 133 137  16 255 0
6  406 388 331 374 152 151  255 49 0
4  396 391 408 398  16 255 0
5  396 140 135 134 329  16 255 0
4  388 137 133 331  255 49 0
5  159 379 330 135 140  255 49 0
4  362 420 323 386  255 0 0
4  362 393 416 420  255 0 0
4  152 374 343 153  255 49 0
4  152 367 368 151  115 255 0
4  154 146 145 148  115 255 0
4  152 153 243 367  115 255 0
4  154 336 141 375  255 49 0
5  154 148 153 335 336  255 49 0
4  408 138 139 398  16 255 0
5  388 406 390 138 137  255 49 0
4  391 137 138 408  16 255 0
4  399 218 219 400  0 230 255
6  399 415 206 175 176 218  0 230 255
4  397 150 151 368  115 255 0
4  400 417 415 399  0 230 255
5  318 216 173 172 214  255 246 0
4  400 166 167 417  0 230 255
5  397 143 147 149 150  115 255 0
3  397 142 143  115 255 0
4  394 346 356 413  255 0 0
4  393 366 380 416  255 0 0
4  394 321 347 346  255 0 0
12  425 410 119 313 317 284 205 204 203 193 356 352  255 0 98
4  351 339 410 425  255 0 98
5  417 389 327 206 415  0 230 255
4  417 167 168 389  0 230 255
4  294 385 47 404  164 0 255
4  177 176 364 195  255 197 0
4  339 351 8 7  255 0 98
4  410 291 118 119  0 255 131
4  339 259 291 410  0 255 131
4  206 90 89 175  0 230 255
4  389 423 85 327  0 230 255
5  383 214 172 87 239  255 246 0
4  389 168 169 423  0 230 255
5  206 327 85 91 90  0 230 255
4  382 314 302 311  255 197 0
5  119 118 310 303 313  255 197 0
5  382 311 310 118 116  255 197 0
6  113 174 273 114 73 107  0 82 255
19  113 371 350 373 372 344 349 308 369 314 382 117 120 207 175 89 98 79 174  255 197 0
4  110 182 63 74  0 255 230
12  110 181 76 99 84 180 124 125 184 92 183 182  0 255 82
5  114 370 66 65 73  0 32 255
4  114 273 249 250  0 82 255
4  113 107 106 371  0 255 180
5  110 74 111 270 181  0 82 255
4  114 115 342 370  0 32 255
4  184 290 185 109  0 255 82
4  372 373 95 104  0 255 180
4  184 338 93 92  0 180 255
5  372 104 332 297 344  0 255 180
5  184 109 104 337 338  0 180 255
4  324 323 420 416  255 0 0
4  416 380 348 324  255 0 0
4  366 360 354 345  255 148 0
4  345 354 12 11  255 148 0
4  380 366 345 348  255 0 0
4  373 350 105 95  0 255 180
4  92 93 341 183  0 255 230
4  376 411 126 125  255 197 0
4  203 204 411 376  255 197 0
4  376 125 124 215  255 197 0
5  184 125 126 244 290  0 255 82
3  114 250 115  0 82 255
5  374 331 133 136 343  255 49 0
4  375 141 135 330  255 49 0
4  369 308 261 260  0 255 180
4  369 192 302 314  255 197 0
5  369 260 191 130 192  0 255 180
5  182 183 341 75 63  0 255 230
4  371 106 105 350  0 255 180
5  370 342 428 64 66  0 32 255
4  176 175 207 364  255 197 0
4  364 207 208 365  255 148 0
4  361 213 7 8  255 148 0
7  361 306 246 27 26 25 358  255 148 0
4  361 8 285 306  255 148 0
5  146 295 276 144 145  65 255 0
5  397 368 367 144 142  115 255 0
4  383 239 237 56  255 246 0
4  214 383 56 55  255 246 0
4  318 214 55 53  255 246 0
4  377 216 54 52  255 246 0
6  155 377 52 49 379 159  164 255 0
6  375 330 379 49 50 154  164 0 255
4  146 154 50 51  164 0 255
4  216 318 53 54  255 246 0
9  365 208 430 209 210 212 358 360 366  255 148 0
4  363 334 242 288  255 0 197
4  363 412 15 334  255 0 197
4  363 288 16 412  255 0 197
7  358 25 14 24 23 22 360  255 148 0
4  358 212 213 361  255 148 0
7  360 22 1 29 251 305 354  255 148 0
4  354 305 286 12  255 148 0
4  346 353 352 356  255 0 98
4  346 11 12 353  255 0 98
4  324 348 347 321  255 0 0
5  353 12 8 351 352  255 0 98
6  349 344 297 296 265 293  0 255 180
4  349 293 261 308  0 255 180
4  95 96 337 104  0 180 255
5  348 345 11 346 347  255 0 0
4  343 136 335 153  255 49 0
4  103 90 91 102  0 131 255
4  103 80 79 98  213 255 0
4  300 239 87 171  255 246 0
6  103 102 418 81 67 80  213 255 0
4  300 170 86 239  255 246 0
4  90 103 98 89  0 131 255
5  423 169 86 83 85  0 230 255
5  239 86 169 309 238  255 246 0
4  115 248 269 111  0 82 255
5  111 74 63 64 428  0 32 255
4  111 269 70 270  0 82 255
4  428 342 115 111  0 32 255
4  295 146 51 228  164 0 255
5  294 264 276 295 422  65 255 0
4  96 325 326 93  0 255 230
4  96 95 105 340  0 255 230
4  93 326 75 341  0 255 230
4  340 72 325 96  0 255 230
5  340 105 106 65 72  0 255 230
4  213 120 117 258  0 255 131
5  213 258 259 339 7  0 255 131
4  338 337 96 93  0 180 255
4  141 320 134 135  0 255 32
4  136 319 320 141  0 255 32
4  336 335 136 141  255 49 0
4  22 333 6 1  255 0 49
4  25 334 15 14  255 0 197
4  25 26 242 334  255 0 197
4  22 23 267 333  255 0 49
4  305 251 28 268  255 148 0
4  306 275 19 246  255 148 0
4  333 267 5 6  255 0 49
4  274 267 23 24  255 0 49
4  274 15 3 4  255 0 49
4  274 4 5 267  255 0 49
4  102 307 301 101  0 131 255
4  91 85 307 102  0 131 255
4  185 186 297 332  0 255 180
4  185 332 104 109  0 255 180
4  329 134 132 328  16 255 0
4  133 132 319 136  0 255 32
4  83 86 170 301  0 131 255
4  72 292 426 75  65 0 255
4  65 66 292 72  65 0 255
4  65 106 107 73  0 255 230
4  75 426 64 63  65 0 255
4  326 325 72 75  0 255 230
4  324 321 322 323  255 0 0
4  320 319 132 134  0 255 32
5  316 283 284 317 304  255 197 0
4  316 312 419 129  255 197 0
4  317 313 303 304  255 197 0
4  316 304 303 312  255 197 0
4  316 129 128 283  255 197 0
4  205 284 283 315  255 197 0
4  315 283 128 127  255 197 0
4  315 411 204 205  255 197 0
4  315 127 126 411  255 197 0
5  312 303 302 421 419  255 197 0
4  280 129 130 191  0 255 82
4  311 302 303 310  255 197 0
4  59 168 167 60  255 246 0
4  59 384 387 58  115 0 255
4  309 169 168 59  255 246 0
4  238 309 59 58  255 246 0
4  80 273 174 79  0 82 255
5  80 67 68 249 273  0 82 255
4  60 47 384 59  115 0 255
4  60 167 166 61  255 246 0
4  307 85 83 301  0 131 255
6  306 285 286 305 268 275  255 148 0
4  192 130 421 302  255 197 0
6  99 76 69 77 299 100  213 255 0
5  99 100 171 87 84  0 131 255
5  101 301 170 171 100  0 131 255
3  300 171 170  255 246 0
5  76 181 270 70 69  0 82 255
4  299 77 82 298  213 255 0
4  298 82 81 418  213 255 0
4  299 298 101 100  213 255 0
4  187 188 265 296  0 255 180
4  187 296 297 186  0 255 180
4  295 228 227 422  164 0 255
4  294 422 227 385  164 0 255
4  293 265 266 261  0 255 180
4  261 266 189 190  0 255 180
4  36 42 241 255  255 0 148
4  129 280 279 128  0 255 82
4  421 130 129 419  255 197 0
4  426 292 66 64  65 0 255
4  259 116 118 291  0 255 131
4  367 243 145 144  115 255 0
4  120 213 212 210  255 148 0
3  382 116 117  255 197 0
4  43 44 392 403  213 0 255
4  403 392 424 402  213 0 255
4  402 424 42 36  213 0 255
4  403 402 36 43  213 0 255
5  287 41 40 33 32  255 0 148
4  30 32 253 222  255 0 246
5  42 41 287 16 17  255 0 148
4  44 37 231 392  213 0 255
4  44 43 256 236  255 0 148
6  392 231 233 409 414 424  213 0 255
4  424 414 41 42  213 0 255
4  298 418 102 101  213 255 0
3  352 351 425  255 0 98
4  39 34 33 40  255 0 148
5  414 409 254 40 41  213 0 255
4  39 40 254 225  213 0 255
4  233 225 254 409  213 0 255
4  185 290 244 186  0 255 82
4  264 294 404 263  65 255 0
4  263 404 147 143  65 255 0
4  47 60 61 46  115 0 255
4  387 384 47 385  115 0 255
4  58 387 226 57  115 0 255
4  43 36 255 256  255 0 148
5  287 32 30 5 4  255 0 148
4  271 71 68 289  16 0 255
4  289 68 67 81  16 0 255
4  271 289 81 82  16 0 255
4  242 240 262 288  255 0 197
4  288 262 17 16  255 0 197
4  287 4 3 16  255 0 148
4  286 285 8 12  255 148 0
4  190 189 278 279  0 255 82
4  282 127 128 279  0 255 82
6  282 277 245 244 126 127  0 255 82
4  279 278 277 282  0 255 82
4  6 235 29 1  255 0 148
4  281 257 235 6  255 0 148
7  281 31 35 38 45 234 257  255 0 148
5  281 6 5 30 31  255 0 148
4  84 87 172 180  0 230 255
4  191 190 279 280  0 255 82
4  245 277 188 187  0 255 82
4  189 188 277 278  0 255 82
4  276 264 142 144  65 255 0
4  24 14 15 274  255 0 49
4  275 268 28 19  255 148 0
4  255 241 21 19  255 0 148
4  77 69 70 272  16 0 255
4  272 70 71 271  16 0 255
4  272 271 82 77  16 0 255
4  248 115 250 247  0 82 255
4  269 248 71 70  0 82 255
4  189 266 265 188  0 255 180
4  57 226 229 56  115 0 255
4  226 387 385 227  115 0 255
4  16 3 15 412  255 0 197
4  32 33 252 253  255 0 246
4  264 263 143 142  65 255 0
4  240 242 26 27  255 0 197
4  42 17 18 241  255 0 148
4  240 18 17 262  255 0 197
4  191 260 261 190  0 255 180
4  259 258 117 116  0 255 131
4  236 256 28 20  255 0 148
4  44 234 45 37  255 0 148
5  44 236 235 257 234  255 0 148
5  19 21 13 27 246  255 148 0
4  256 255 19 28  255 0 148
4  222 253 252 221  255 0 246
4  34 39 38 35  255 0 148
4  252 33 34 221  255 0 246
4  251 29 20 28  255 148 0
4  249 68 247 250  0 82 255
4  248 247 68 71  0 82 255
4  245 187 186 244  0 255 82
4  145 243 153 148  115 255 0
4  241 18 13 21  255 0 148
4  27 13 18 240  255 0 197
3  239 238 237  255 246 0
4  56 229 228 55  115 0 255
5  238 58 57 56 237  255 246 0
4  233 231 230 232  213 0 255
4  30 222 223 31  255 0 246
4  236 20 29 235  255 0 148
4  55 228 51 53  115 0 255
4  31 223 220 35  255 0 246
5  232 230 45 38 224  213 0 255
4  233 232 224 225  213 0 255
4  39 225 224 38  213 0 255
4  231 37 45 230  213 0 255
4  229 226 227 228  115 0 255
4  223 222 221 220  255 0 246
4  221 34 35 220  255 0 246
4  179 180 172 173  0 230 255
4  217 215 124 123  255 197 0
4  179 123 124 180  0 255 82
6  210 209 430 208 207 120  255 148 0
4  195 200 156 162  255 0 0
4  200 195 162 156  164 255 0
5  364 195 196 193 10  255 0 0
5  195 364 10 193 196  255 197 0
5  207 364 10 9 120  255 148 0
5  364 207 120 9 10  255 197 0
4  213 120 9 7  255 148 0
4  120 213 7 9  0 255 131
5  339 7 9 119 410  255 0 98
5  339 410 119 9 7  0 255 131
10  313 119 9 10 193 203 204 205 284 317  255 0 98
10  119 313 317 284 205 204 203 193 10 9  255 197 0
3  197 161 162  255 0 0
4  196 161 162 195  164 255 0
5  201 197 162 156 198  255 0 0
5  197 201 198 156 162  255 98 0
4  195 162 161 196  255 0 0
3  197 162 161  255 98 0
5  147 46 48 378 149  164 0 255
4  404 47 46 147  164 0 255
5  159 140 139 401 395  255 49 0
4  396 140 139 398  255 98 0
6  330 379 378 149 154 375  255 49 0
4  159 379 378 158  164 255 0
6  330 375 154 149 378 379  164 0 255
4  146 154 149 147  115 255 0
4  154 146 147 149  164 0 255
6  295 146 147 404 294 422  65 255 0
6  146 295 422 294 404 147  164 0 255
3  395 158 159  255 49 0
5  395 401 139 140 159  255 98 0
4  398 139 140 396  16 255 0
3  395 159 158  255 98 0
6  366 365 364 10 11 345  255 0 0
6  365 366 345 11 10 364  255 148 0
5  346 11 10 193 356  255 0 0
5  346 356 193 10 11  255 0 98
4  379 159 158 378  255 49 0
7  381 194 164 163 178 122 177  164 255 0
7  194 381 177 122 178 163 164  0 230 255
3  195 177 196  164 255 0
3  177 195 196  255 197 0
5  199 196 177 122 121  164 255 0
5  196 199 121 122 177  255 197 0
3  178 121 122  164 255 0
3  377 163 164  164 255 0
4  379 49 48 378  164 255 0
5  377 52 62 165 164  255 246 0
4  379 378 48 49  164 0 255
3  194 165 164  164 255 0
5  377 164 165 62 52  164 255 0
3  194 164 165  0 230 255
3  377 164 163  255 246 0
3  178 122 121  0 255 82
12  192 369 308 349 344 372 373 350 371 113 112 131  255 197 0
12  369 192 131 112 113 371 350 373 372 344 349 308  0 255 180
3  130 192 131  255 197 0
3  192 130 131  0 255 180
4  191 130 131 190  0 255 82
4  130 191 190 131  0 255 180
3  189 190 188  0 255 82
3  190 189 188  0 255 180
3  187 188 186  0 255 82
3  188 187 186  0 255 180
3  185 186 109  0 255 82
3  186 185 109  0 255 180
3  184 109 92  0 255 82
3  109 184 92  0 180 255
6  183 92 94 108 110 182  0 255 82
6  92 183 182 110 108 94  0 255 230
6  181 110 108 112 78 76  0 255 82
6  110 181 76 78 112 108  0 82 255
4  99 76 78 97  0 255 82
4  76 99 97 78  213 255 0
4  84 99 97 88  0 255 82
4  99 84 88 97  0 131 255
6  180 84 88 122 178 179  0 255 82
6  84 180 179 178 122 88  0 230 255
6  177 122 88 89 175 176  255 197 0
6  177 176 175 89 88 122  0 230 255
4  98 89 88 97  255 197 0
4  89 98 97 88  0 131 255
4  79 98 97 78  255 197 0
4  98 79 78 97  213 255 0
5  174 79 78 112 113  255 197 0
5  79 174 113 112 78  0 82 255
8  190 131 112 108 94 109 186 188  0 255 82
8  190 188 186 109 94 108 112 131  0 255 180
3  92 109 94  0 255 82
3  109 92 94  0 180 255
4  165 62 61 166  255 246 0
5  173 163 86 87 172  255 246 0
5  163 173 172 87 86  0 230 255
4  171 87 86 170  255 246 0
4  87 171 170 86  0 131 255
8  169 86 163 164 165 166 167 168  255 246 0
8  86 169 168 167 166 165 164 163  0 230 255
5  162 156 155 160 161  255 98 0
5  156 162 161 160 155  164 255 0
5  159 155 156 157 158  255 98 0
5  155 159 158 157 156  164 255 0
3  154 149 148  255 49 0
3  149 154 148  115 255 0
6  153 148 149 150 151 152  255 49 0
6  148 153 152 151 150 149  115 255 0
6  147 143 142 144 145 146  115 255 0
6  143 147 146 145 144 142  65 255 0
4  141 136 133 135  255 49 0
4  136 141 135 133  0 255 32
6  140 135 133 137 138 139  255 49 0
6  135 140 139 138 137 133  16 255 0
4  135 133 132 134  16 255 0
4  133 135 134 132  0 255 32
15  131 112 78 97 88 122 121 123 124 125 126 127 128 129 130  255 197 0
15  122 88 97 78 112 131 130 129 128 127 126 125 124 123 121  0 255 82
6  120 117 116 118 119 9  255 197 0
6  117 120 9 119 118 116  0 255 131
5  115 111 74 73 114  0 82 255
5  111 115 114 73 74  0 32 255
4  113 107 108 112  0 82 255
4  113 112 108 107  0 255 180
5  110 108 107 73 74  0 82 255
5  110 74 73 107 108  0 255 230
4  109 104 95 94  0 255 180
4  104 109 94 95  0 180 255
6  108 94 95 105 106 107  0 255 180
6  108 107 106 105 95 94  0 255 230
7  103 98 97 99 100 101 102  213 255 0
7  98 103 102 101 100 99 97  0 131 255
5  96 93 92 94 95  0 255 230
5  93 96 95 94 92  0 180 255
7  91 85 83 84 88 89 90  0 230 255
7  85 91 90 89 88 84 83  0 131 255
4  87 84 83 86  0 230 255
4  84 87 86 83  0 131 255
5  82 77 69 67 81  213 255 0
5  77 82 81 67 69  16 0 255
6  80 67 69 76 78 79  213 255 0
6  80 79 78 76 69 67  0 82 255
4  75 72 65 63  0 255 230
4  72 75 63 65  65 0 255
4  74 63 65 73  0 255 230
4  63 74 73 65  0 32 255
5  71 68 67 69 70  0 82 255
5  68 71 70 69 67  16 0 255
4  66 64 63 65  0 32 255
4  64 66 65 63  65 0 255
4  54 50 49 52  115 0 255
4  62 48 46 61  115 0 255
4  62 48 49 52  164 255 0
4  52 49 48 62  115 0 255
4  53 51 50 54  115 0 255
11  58 59 60 61 62 52 54 53 55 56 57  255 246 0
11  59 58 57 56 55 53 54 52 62 61 60  115 0 255
9  385 47 46 48 49 50 51 228 227  115 0 255
9  47 385 227 228 51 50 49 48 46  164 0 255
3  45 38 37  255 0 148
3  38 45 37  213 0 255
4  44 37 36 43  255 0 148
4  37 44 43 36  213 0 255
7  42 36 37 38 39 40 41  255 0 148
7  36 42 41 40 39 38 37  213 0 255
6  35 31 30 32 33 34  255 0 148
6  31 35 34 33 32 30  255 0 246
3  1 22 0  255 148 0
3  22 1 0  255 0 49
3  29 1 20  255 148 0
3  1 29 20  255 0 148
3  28 20 19  255 148 0
3  20 28 19  255 0 148
5  21 19 20 1 0  255 148 0
5  19 21 0 1 20  255 0 148
6  27 13 2 14 25 26  255 148 0
4  21 13 2 0  255 0 148
6  27 26 25 14 2 13  255 0 197
6  24 14 2 0 22 23  255 148 0
6  24 23 22 0 2 14  255 0 49
4  21 0 2 13  255 148 0
5  18 13 3 16 17  255 0 197
5  13 18 17 16 3  255 0 148
4  15 3 2 14  255 0 197
4  3 15 14 2  255 0 49
3  13 2 3  255 0 197
3  13 3 2  255 0 148
6  12 8 7 9 10 11  255 148 0
6  8 12 11 10 9 7  255 0 98
7  6 1 0 2 3 4 5  255 0 148
7  1 6 5 4 3 2 0  255 0 49

