OFF
1143 1098 0
-2063.023437500000 -2369.843750000000 8.214970588684
-2065.929687500000 -2369.375000000000 8.213712692261
-2070.257812500000 -2372.218750000000 8.196888923645
-2072.351562500000 -2371.875000000000 8.196008682251
-2076.210937500000 -2374.468750000000 8.180762290955
-2078.781250000000 -2374.156250000000 8.179219245911
-2089.343750000000 -2358.187500000000 8.234869003296
-2088.554687500000 -2356.375000000000 8.243398666382
-2079.945312500000 -2350.375000000000 8.278313636780
-2069.757812500000 -2343.250000000000 8.319734573364
-2069.906250000000 -2342.781250000000 8.321547508240
-2069.703125000000 -2341.843750000000 8.325731277466
-2069.070312500000 -2341.125000000000 8.329470634460
-2068.171875000000 -2340.812500000000 8.331789970398
-2067.257812500000 -2341.031250000000 8.331884384155
-2066.531250000000 -2341.656250000000 8.330055236816
-2063.507812500000 -2345.781250000000 8.316008567810
-2081.789062500000 -2327.250000000000 8.644329071045
-2080.281250000000 -2329.468750000000 8.630613327026
-2070.523437500000 -2343.781250000000 8.521003723145
-2091.140625000000 -2333.875000000000 8.249541282654
-2091.007812500000 -2333.781250000000 8.381572723389
-2091.062500000000 -2333.687500000000 8.387198448181
-2090.164062500000 -2333.093750000000 9.262020111084
-2090.250000000000 -2332.968750000000 9.260742187500
-2055.398437500000 -2361.750000000000 4.598624706268
-2056.101562500000 -2365.437500000000 4.611330509186
-2065.578125000000 -2347.250000000000 4.465816020966
-2078.312500000000 -2332.343750000000 10.596103668213
-2078.968750000000 -2328.593750000000 4.240373134613
-2077.023437500000 -2331.468750000000 4.213313102722
-2070.317382812500 -2343.638183593750 8.317472457886
-2079.985595703125 -2350.403076171875 8.278149604797
-2066.901855468750 -2370.013671875000 8.209934234619
-2062.541992187500 -2369.537353515625 8.216800689697
-2070.317382812500 -2343.638183593750 8.317472457886
-2091.053710937500 -2333.813720703125 8.335855484009
-2078.302001953125 -2332.336669921875 8.356290817261
-2080.254394531250 -2329.450927734375 8.366297721863
-2088.777343750000 -2337.358154296875 8.323428153992
-2080.064941406250 -2350.198730468750 8.278923988342
-2064.797363281250 -2346.696044921875 8.310710906982
-2059.214599609375 -2367.419189453125 8.229447364807
-2086.336914062500 -2330.323974609375 13.097514152527
-2078.302001953125 -2332.336669921875 8.592412948608
-2080.254394531250 -2329.450927734375 8.604521751404
-2070.268310546875 -2343.710937500000 8.317220687866
-2067.533935546875 -2347.758056640625 8.303179740906
-2073.109375000000 -2339.983886718750 8.548146247864
-2064.797363281250 -2346.696044921875 5.979363441467
-2086.336914062500 -2330.323974609375 13.097514152527
-2075.092285156250 -2347.072753906250 13.086592674255
-2088.716552734375 -2337.316894531250 8.323669433594
-2080.064941406250 -2350.198730468750 8.317393302917
-2088.777343750000 -2337.358154296875 8.264019966125
-2078.302001953125 -2332.336669921875 4.314794540405
-2080.254394531250 -2329.450927734375 4.288833618164
-2064.797363281250 -2346.696044921875 4.468228340149
-2059.214599609375 -2367.419189453125 4.600652694702
-2073.583740234375 -2342.471435546875 9.991361618042
-2088.836425781250 -2332.013183593750 10.646830558777
-2078.102050781250 -2349.170410156250 10.106774330139
-2086.468750000000 -2335.797607421875 10.527708053589
-2088.777343750000 -2337.358154296875 10.601649284363
-2080.064941406250 -2350.198730468750 10.172037124634
-2073.109375000000 -2339.983886718750 9.993591308594
-2083.665039062500 -2328.518066406250 10.481202125549
-2078.302001953125 -2332.336669921875 10.249592781067
-2071.877685546875 -2344.832519531250 9.908472061157
-2081.051025390625 -2332.135986328125 10.354192733765
-2083.372802734375 -2340.746093750000 10.371945381165
-2083.372802734375 -2340.746093750000 10.371945381165
-2082.809570312500 -2346.153564453125 10.307374000549
-2077.834960937500 -2348.984130859375 10.371202468872
-2083.721679687500 -2328.556396484375 10.536710739136
-2078.302001953125 -2332.336669921875 10.596425056458
-2072.510986328125 -2345.273925781250 10.534638404846
-2081.237060546875 -2332.261718750000 10.536252021790
-2073.762207031250 -2343.407958984375 10.534870147705
-2089.115966796875 -2332.202148437500 10.372716903687
-2086.627197265625 -2335.904785156250 10.372383117676
-2088.777343750000 -2337.358154296875 10.307011604309
-2073.109375000000 -2339.983886718750 10.596817970276
-2067.617187500000 -2347.817138671875 4.455411434174
-2080.254394531250 -2329.450927734375 4.880290985107
-2078.302001953125 -2332.336669921875 4.850621223450
-2059.495605468750 -2360.130859375000 4.564846992493
-2086.616455078125 -2330.512939453125 12.823441505432
-2075.392822265625 -2347.282226562500 12.789101600647
-2058.199462890625 -2362.095947265625 4.582311153412
-2058.922119140625 -2365.886230468750 8.236243247986
-2056.077880859375 -2365.312744140625 4.610900402069
-2073.995361328125 -2346.308349609375 10.489072799683
-2072.669921875000 -2345.384521484375 8.307480812073
-2079.864501953125 -2329.190917968750 4.247352600098
-2077.915771484375 -2332.074462890625 4.220234394073
-2073.677490234375 -2346.086669921875 9.965810775757
-2078.302001953125 -2332.336669921875 4.223229885101
-2080.254394531250 -2329.450927734375 4.250390529633
-2074.753662109375 -2346.836669921875 12.751643180847
-2075.031005859375 -2347.030029296875 12.193522453308
-2086.093017578125 -2330.158935546875 12.858512878418
-2075.907470703125 -2347.640869140625 10.430378913879
-2076.971191406250 -2348.382324218750 8.290037155151
-2076.099853515625 -2347.774902343750 10.042986869812
-2069.682861328125 -2341.820800781250 8.325850486755
-2066.186035156250 -2346.801757812500 6.962877273560
-2066.186035156250 -2346.801757812500 8.308717727661
-2055.461181640625 -2362.078613281250 4.599757194519
-2066.186035156250 -2346.801757812500 4.459833621979
-2078.968994140625 -2328.593994140625 4.240374565125
-2078.961669921875 -2328.604248046875 4.240273475647
-2067.759277343750 -2347.917968750000 4.690417766571
-2067.759277343750 -2347.917968750000 8.302254676819
-2078.302001953125 -2332.336669921875 10.596425056458
-2075.919189453125 -2335.857910156250 10.596432685852
-2073.113281250000 -2340.004882812500 8.560236930847
-2058.192138671875 -2362.057128906250 4.582178115845
-2058.192138671875 -2362.057128906250 8.253220558167
-2059.495605468750 -2360.130859375000 4.564846992493
-2056.058349609375 -2365.210693359375 4.610548973083
-2073.113281250000 -2340.004882812500 9.993572235107
-2059.495605468750 -2360.130859375000 4.564846992493
-2073.113281250000 -2340.004882812500 10.596441268921
-2080.254394531250 -2329.450927734375 8.604521751404
-2070.497558593750 -2343.870605468750 8.544015884399
-2079.257812500000 -2330.923828125000 10.296758651733
-2079.257812500000 -2330.923828125000 8.598340988159
-2070.497558593750 -2343.870605468750 8.316290855408
-2079.257812500000 -2330.923828125000 10.596422195435
-2080.254394531250 -2329.450927734375 4.250390529633
-2078.302001953125 -2332.336669921875 4.223229885101
-2068.984375000000 -2342.815917968750 8.322427749634
-2066.884277343750 -2341.352539062500 8.330944061279
-2070.268310546875 -2343.710937500000 8.317220687866
-2075.092285156250 -2347.072753906250 13.086592674255
-2088.604736328125 -2356.489746093750 8.242858886719
-2079.949218750000 -2350.457763671875 8.277959823608
-2076.971191406250 -2348.382324218750 8.290037155151
-2072.669921875000 -2345.384521484375 8.307480812073
-2070.497558593750 -2343.870605468750 8.316290855408
-2070.268310546875 -2343.710937500000 8.317220687866
-2077.834960937500 -2348.984130859375 10.371202468872
-2075.392822265625 -2347.282226562500 12.789101600647
-2075.092285156250 -2347.072753906250 13.086592674255
-2070.497558593750 -2343.870605468750 8.544015884399
-2079.669189453125 -2350.262451171875 8.279095649719
-2074.753662109375 -2346.836669921875 12.751643180847
-2079.669189453125 -2350.262451171875 10.156702995300
-2079.669189453125 -2350.262451171875 8.555199623108
-2071.877685546875 -2344.832519531250 9.908472061157
-2078.102050781250 -2349.170410156250 10.106774330139
-2078.102050781250 -2349.170410156250 10.106774330139
-2072.510986328125 -2345.273925781250 10.534638404846
-2061.732177734375 -2352.728271484375 4.515992641449
-2061.927978515625 -2352.867187500000 4.515388011932
-2073.068603515625 -2360.770751953125 8.242085456848
-2082.982666015625 -2367.804199218750 8.201355934143
-2070.004150390625 -2358.596679687500 8.254674911499
-2063.605224609375 -2354.057128906250 8.280963897705
-2065.806884765625 -2355.619140625000 8.271918296814
-2063.605224609375 -2354.057128906250 4.627295494080
-2063.605224609375 -2354.057128906250 8.280963897705
-2063.534667968750 -2354.007080078125 4.510423183441
-2063.605224609375 -2354.057128906250 4.627295494080
-2063.534667968750 -2354.007080078125 4.510423183441
-2073.373779296875 -2360.987304687500 8.240832328796
-2080.215820312500 -2350.643310546875 8.276879310608
-2067.251220703125 -2370.243408203125 8.208576202393
-2080.251953125000 -2350.588623046875 8.277070045471
-2067.364501953125 -2370.072265625000 8.209171295166
-2070.638183593750 -2372.156250000000 8.196729660034
-2058.664306640625 -2364.534179687500 4.590712547302
-2058.664306640625 -2364.534179687500 8.242238044739
-2058.664306640625 -2364.534179687500 6.932958126068
-2057.162841796875 -2363.578369140625 4.595863342285
-2057.204345703125 -2363.604736328125 4.595721244812
-2067.012451171875 -2369.848144531250 8.210510253906
-2063.747314453125 -2367.770019531250 8.222918510437
-2059.480468750000 -2365.053710937500 8.239136695862
-2055.551513671875 -2362.552734375000 4.601390361786
-2083.502685546875 -2352.934082031250 8.263549804688
-2085.587158203125 -2363.866699218750 8.215077400208
-2083.485107421875 -2352.842041015625 8.263957977295
-2079.295166015625 -2330.868652343750 4.865715026855
-2079.295166015625 -2330.868652343750 4.301587581635
-2079.295166015625 -2330.868652343750 8.598573684692
-2079.295166015625 -2330.868652343750 8.361381530762
-2079.295166015625 -2330.868652343750 4.237047195435
-2079.295166015625 -2330.868652343750 8.598573684692
-2079.931884765625 -2334.207763671875 10.536010742188
-2081.691162109375 -2343.433837890625 10.287344932556
-2081.691162109375 -2343.433837890625 10.287344932556
-2080.678466796875 -2338.122558593750 12.807483673096
-2079.295166015625 -2330.868652343750 4.237047195435
-2079.171142578125 -2330.217041015625 4.237701892853
-2080.771972656250 -2338.613037109375 13.092108726501
-2079.931884765625 -2334.207763671875 10.536010742188
-2080.865722656250 -2339.104980468750 12.805846214294
-2081.663574218750 -2343.288818359375 10.371716499329
-2080.771972656250 -2338.613037109375 13.092108726501
-2079.312988281250 -2330.961181640625 10.298522949219
-2079.312988281250 -2330.961181640625 8.652271270752
-2082.341308593750 -2346.843750000000 10.284289360046
-2078.885009765625 -2328.717285156250 4.239209175110
-2079.312988281250 -2330.961181640625 10.594747543335
-2079.257812500000 -2330.923828125000 4.302084922791
-2079.257812500000 -2330.923828125000 4.865146160126
-2079.257812500000 -2330.923828125000 8.361189842224
-2079.257812500000 -2330.923828125000 8.598340988159
-2079.257812500000 -2330.923828125000 4.236526489258
-2079.257812500000 -2330.923828125000 8.598340988159
-2079.257812500000 -2330.923828125000 4.236526489258
-2079.257812500000 -2330.923828125000 10.596422195435
-2078.870361328125 -2330.662109375000 4.233518123627
-2079.312988281250 -2330.961181640625 10.594747543335
-2079.257812500000 -2330.923828125000 10.596422195435
-2079.257812500000 -2330.923828125000 10.296758651733
-2079.312988281250 -2330.961181640625 8.652271270752
-2077.977539062500 -2330.058593750000 4.226585865021
-2088.777343750000 -2337.358154296875 8.264019966125
-2088.716552734375 -2337.316894531250 8.323669433594
-2088.777343750000 -2337.358154296875 10.601649284363
-2086.468750000000 -2335.797607421875 10.527708053589
-2081.237060546875 -2332.261718750000 10.536252021790
-2081.051025390625 -2332.135986328125 10.354192733765
-2086.627197265625 -2335.904785156250 10.372383117676
-2083.584472656250 -2333.848388671875 12.834872245789
-2083.850341796875 -2334.027832031250 13.095098495483
-2081.237060546875 -2332.261718750000 10.536252021790
-2086.468750000000 -2335.797607421875 10.527708053589
-2084.135009765625 -2334.220458984375 12.815849304199
-2083.850341796875 -2334.027832031250 13.095098495483
-2077.304199218750 -2333.824218750000 10.596241950989
-2079.801025390625 -2333.520751953125 10.548439025879
-2084.581054687500 -2332.939453125000 13.095808029175
-2085.028808593750 -2332.885009765625 12.818583488464
-2084.168212890625 -2332.989746093750 12.840373992920
-2084.581054687500 -2332.939453125000 13.095808029175
-2088.979736328125 -2332.404785156250 10.372698783875
-2089.349121093750 -2332.359863281250 10.144078254700
-2082.596923828125 -2333.180664062500 11.867846488953
-2088.559570312500 -2332.455810546875 10.632900238037
-2080.445068359375 -2333.442382812500 10.536105155945
-2080.445068359375 -2333.442382812500 10.536105155945
-2086.306640625000 -2330.369140625000 13.097484588623
-2086.582031250000 -2330.564453125000 12.823335647583
-2086.066162109375 -2330.198486328125 12.858261108398
-2086.306640625000 -2330.369140625000 13.097484588623
-2089.147460937500 -2332.384277343750 10.268927574158
-2091.039550781250 -2333.726806640625 8.384843826294
-2089.043212890625 -2332.310546875000 10.372707366943
-2084.351318359375 -2328.981689453125 11.153148651123
-2088.771240234375 -2332.117431640625 10.643551826477
-2073.583740234375 -2342.471435546875 9.991361618042
-2073.762207031250 -2343.407958984375 10.534870147705
-2074.364257812500 -2346.565429687500 12.366853713989
-2074.364257812500 -2346.565429687500 8.300609588623
-2073.762207031250 -2343.407958984375 10.534870147705
-2073.113281250000 -2340.004882812500 10.596441268921
-2073.113281250000 -2340.004882812500 8.560236930847
-2077.699462890625 -2364.056152343750 8.223061561584
-2079.436523437500 -2373.165771484375 8.182671546936
-2074.364257812500 -2346.565429687500 12.366853713989
-2074.364257812500 -2346.565429687500 11.096310615540
-2076.182861328125 -2356.103027343750 8.258322715759
-2076.277343750000 -2356.597656250000 8.256129264832
-2075.204589843750 -2350.972412109375 8.281070709229
-2073.109375000000 -2339.983886718750 8.548146247864
-2073.109375000000 -2339.983886718750 10.596817970276
-2074.364257812500 -2346.565429687500 10.477746963501
-2074.364257812500 -2346.565429687500 8.300609588623
-2074.364257812500 -2346.565429687500 9.987692832947
-2078.976562500000 -2347.772705078125 10.150769233704
-2078.976562500000 -2347.772705078125 10.150769233704
-2073.989257812500 -2344.597900390625 11.225210189819
-2075.584960937500 -2345.613769531250 12.759479522705
-2075.926025390625 -2345.830810546875 13.087402343750
-2076.233398437500 -2346.026367187500 12.791672706604
-2078.747558593750 -2347.626953125000 10.371325492859
-2075.926025390625 -2345.830810546875 13.087402343750
-2080.886230468750 -2348.988281250000 10.212534904480
-2072.658935546875 -2343.751220703125 9.946434020996
-2073.270996093750 -2344.140625000000 10.534779548645
-2071.204833984375 -2342.825439453125 8.548401832581
-2071.183593750000 -2342.812011718750 8.527933120728
-2068.077880859375 -2340.834960937500 8.331799507141
-2069.665527343750 -2341.845703125000 8.325765609741
-2069.709716796875 -2341.873535156250 8.325598716736
-2066.838134765625 -2341.392333984375 8.330827713013
-2063.582519531250 -2345.834228515625 8.315701484680
-2064.064208984375 -2345.176757812500 8.317940711975
-2067.631347656250 -2344.743164062500 8.315799713135
-2073.872070312500 -2343.984375000000 10.869202613831
-2076.947021484375 -2343.610351562500 12.772316932678
-2077.458740234375 -2343.548339843750 13.088891029358
-2077.930419921875 -2343.490966796875 12.796865463257
-2081.616699218750 -2343.042724609375 10.514878273010
-2077.458740234375 -2343.548339843750 13.088891029358
-2073.161132812500 -2344.070800781250 10.429117202759
-2073.331787109375 -2344.050048828125 10.534790992737
-2072.357421875000 -2344.168457031250 9.931784629822
-2071.137695312500 -2344.316650390625 8.313694953918
-2071.137695312500 -2344.316650390625 9.176807403564
-2063.939697265625 -2345.191894531250 8.318015098572
-2069.744384765625 -2344.486083984375 8.314531326294
-2070.111328125000 -2344.441650390625 8.314311027527
-2083.153076171875 -2342.855957031250 10.346752166748
-2085.217285156250 -2342.604980468750 10.426104545593
-2081.962158203125 -2343.000732421875 10.300977706909
-2081.962158203125 -2343.000732421875 10.300977706909
-2081.847900390625 -2343.014648437500 10.371741294861
-2071.137695312500 -2344.316650390625 9.176807403564
-2071.137695312500 -2344.316650390625 8.313694953918
-2084.859375000000 -2360.049316406250 8.232002258301
-2087.073242187500 -2361.619873046875 8.222907066345
-2077.183349609375 -2354.603515625000 8.263538360596
-2077.464355468750 -2354.802978515625 8.262383460999
-2075.695800781250 -2353.548339843750 8.269648551941
-2067.759277343750 -2347.917968750000 4.690417766571
-2067.617187500000 -2347.817138671875 4.455411434174
-2064.603515625000 -2345.679199218750 8.315219879150
-2064.006591796875 -2345.255615234375 8.317671775818
-2066.186035156250 -2346.801757812500 8.308717727661
-2066.186035156250 -2346.801757812500 4.459833621979
-2063.931884765625 -2345.202636718750 8.317978858948
-2067.533935546875 -2347.758056640625 8.303179740906
-2067.759277343750 -2347.917968750000 8.302254676819
-2069.935791015625 -2349.461914062500 8.293313026428
-2067.759277343750 -2347.917968750000 4.690417766571
-2064.603515625000 -2345.679199218750 5.389260768890
-2067.759277343750 -2347.917968750000 8.302254676819
-2064.603515625000 -2345.679199218750 4.464724063873
-2067.617187500000 -2347.817138671875 4.455411434174
-2074.180664062500 -2352.473632812500 8.275873184204
-2073.312011718750 -2361.080810546875 8.240506172180
-2075.813720703125 -2374.201904296875 8.182331085205
-2069.641357421875 -2341.830078125000 8.325858116150
-2069.648681640625 -2341.869628906250 8.325683593750
-2069.854003906250 -2342.946044921875 8.320910453796
-2069.935546875000 -2343.373291015625 8.319016456604
-2069.958740234375 -2343.495117187500 8.318475723267
-2070.058837890625 -2344.020507812500 8.316145896912
-2070.133056640625 -2344.409423828125 8.314421653748
-2070.138671875000 -2344.438232421875 8.314294815063
-2073.281738281250 -2360.921875000000 8.241210937500
-2069.627441406250 -2341.757812500000 8.326178550720
-2072.218994140625 -2355.349365234375 8.265916824341
-2073.211914062500 -2360.556152343750 8.242833137512
-2071.278076171875 -2350.414306640625 8.287797927856
-2070.839599609375 -2348.114257812500 8.297995567322
-2075.207763671875 -2341.252441406250 10.535137176514
-2075.686767578125 -2343.763671875000 11.992219924927
-2075.207763671875 -2341.252441406250 10.535137176514
-2074.561767578125 -2337.864257812500 10.596436500549
-2079.846435546875 -2365.579101562500 8.214240074158
-2080.877685546875 -2370.987060546875 8.190263748169
-2076.505371093750 -2348.057617187500 8.291926383972
-2076.143798828125 -2346.160400390625 12.791399002075
-2076.505371093750 -2348.057617187500 11.687541007996
-2076.102294921875 -2345.942871093750 12.917880058289
-2077.626953125000 -2353.938720703125 8.265851020813
-2077.718505859375 -2354.418945312500 8.263722419739
-2076.655517578125 -2348.844970703125 8.288434982300
-2076.505371093750 -2348.057617187500 11.687541007996
-2077.842773437500 -2355.071533203125 8.260828018188
-2076.505371093750 -2348.057617187500 10.412017822266
-2075.939941406250 -2345.091796875000 12.762824058533
-2076.046630859375 -2345.651367187500 13.087519645691
-2076.046630859375 -2345.651367187500 13.087519645691
-2074.559814453125 -2337.854248046875 10.596618652344
-2076.505371093750 -2348.057617187500 10.055906295776
-2076.505371093750 -2348.057617187500 9.227146148682
-2076.505371093750 -2348.057617187500 8.291926383972
-2079.669189453125 -2350.262451171875 8.279095649719
-2080.064941406250 -2350.198730468750 8.278923988342
-2079.669189453125 -2350.262451171875 10.156702995300
-2080.064941406250 -2350.198730468750 10.172037124634
-2077.007812500000 -2350.691894531250 8.280246734619
-2064.519287109375 -2352.706054687500 4.641186714172
-2064.377441406250 -2352.729003906250 4.499064445496
-2075.206542968750 -2350.982421875000 8.281025886536
-2061.393798828125 -2353.210205078125 4.520406723022
-2061.724609375000 -2353.156738281250 4.518040657043
-2062.222900390625 -2353.076416015625 4.514476299286
-2079.669189453125 -2350.262451171875 8.279095649719
-2064.519287109375 -2352.706054687500 8.285649299622
-2068.153320312500 -2352.119873046875 8.284077644348
-2064.519287109375 -2352.706054687500 4.641186714172
-2064.519287109375 -2352.706054687500 8.285649299622
-2064.377441406250 -2352.729003906250 4.499064445496
-2071.500488281250 -2351.580078125000 8.282629013062
-2072.658203125000 -2351.393310546875 8.282128334045
-2079.669189453125 -2350.262451171875 8.555199623108
-2079.669189453125 -2350.262451171875 10.156702995300
-2075.196777343750 -2350.983886718750 8.281030654907
-2064.900634765625 -2344.035888671875 8.321825981140
-2066.271240234375 -2344.908447265625 8.316616058350
-2084.141357421875 -2356.283935546875 8.248697280884
-2088.688232421875 -2359.178466796875 8.231415748596
-2064.823242187500 -2343.986572265625 8.322119712830
-2078.470458984375 -2352.674072265625 8.270250320435
-2078.753417968750 -2352.854248046875 8.269175529480
-2075.384033203125 -2350.709228515625 8.281981468201
-2075.690429687500 -2350.904296875000 8.280817031860
-2075.122802734375 -2350.542968750000 8.282974243164
-2077.235839843750 -2351.888183593750 8.274943351746
-2067.131103515625 -2345.455810546875 8.313347816467
-2068.500488281250 -2346.327392578125 8.308142662048
-2070.774902343750 -2347.775146484375 8.299499511719
-2070.979492187500 -2347.905517578125 8.298721313477
-2068.734619140625 -2346.476318359375 8.307253837585
-2069.515869140625 -2371.441894531250 8.200994491577
-2069.578857421875 -2371.772705078125 8.199527740479
-2064.603515625000 -2345.679199218750 5.389260768890
-2064.603515625000 -2345.679199218750 8.315219879150
-2064.497558593750 -2345.124023437500 8.317680358887
-2064.603515625000 -2345.679199218750 8.315219879150
-2064.603515625000 -2345.679199218750 4.464724063873
-2066.345703125000 -2354.815917968750 8.274709701538
-2066.606933593750 -2356.186767578125 8.268631935120
-2064.416015625000 -2344.696777343750 8.319575309753
-2064.392822265625 -2344.573974609375 8.320119857788
-2067.708251953125 -2361.962646484375 8.243022918701
-2068.723144531250 -2367.284179687500 8.219429016113
-2065.630371093750 -2351.064208984375 4.658067703247
-2065.595458984375 -2350.882324218750 4.482652187347
-2065.900878906250 -2352.483154296875 8.285052299500
-2064.797363281250 -2346.696044921875 8.310710906982
-2064.797363281250 -2346.696044921875 4.468228340149
-2065.047119140625 -2348.006347656250 4.472742557526
-2065.109863281250 -2348.334716796875 4.473874568939
-2065.630371093750 -2351.064208984375 8.291343688965
-2065.630371093750 -2351.064208984375 4.658067703247
-2065.630371093750 -2351.064208984375 8.291343688965
-2065.595458984375 -2350.882324218750 4.482652187347
-2068.831787109375 -2367.854003906250 8.216902732849
-2064.603515625000 -2345.679199218750 4.464724063873
-2082.203369140625 -2347.047119140625 10.277482032776
-2082.340576171875 -2346.839599609375 10.284293174744
-2091.022216796875 -2333.714355468750 8.402177810669
-2091.046875000000 -2333.677246093750 8.402451515198
-2088.663085937500 -2337.281005859375 10.597990989685
-2088.663085937500 -2337.281005859375 8.375993728638
-2067.089111328125 -2369.897216796875 8.210217475891
-2068.744140625000 -2367.395019531250 8.218937873840
-2078.478027343750 -2352.678955078125 8.270221710205
-2079.725830078125 -2350.792724609375 8.276794433594
-2085.135009765625 -2342.614990234375 10.422937393188
-2088.663085937500 -2337.281005859375 10.597990989685
-2077.630859375000 -2353.959960937500 8.265757560730
-2066.978759765625 -2370.064208984375 8.209635734558
-2073.107421875000 -2360.798339843750 8.241926193237
-2073.224365234375 -2360.621826171875 8.242541313171
-2077.197998046875 -2354.614257812500 8.263477325439
-2079.947998046875 -2350.456787109375 8.277965545654
-2079.984130859375 -2350.402099609375 8.278155326843
-2082.812255859375 -2346.126220703125 10.307700157166
-2076.189697265625 -2356.138671875000 8.258164405823
-2088.663085937500 -2337.281005859375 10.310482978821
-2088.663085937500 -2337.281005859375 8.375993728638
-2083.163818359375 -2328.179199218750 9.990516662598
-2083.319580078125 -2328.996093750000 10.464420318604
-2084.184326171875 -2333.530517578125 13.095422744751
-2084.275634765625 -2334.010253906250 12.816279411316
-2084.100341796875 -2333.089843750000 12.839733123779
-2084.184326171875 -2333.530517578125 13.095422744751
-2084.083251953125 -2333.000000000000 12.787668228149
-2084.342529296875 -2334.360595703125 12.612423896790
-2083.343261718750 -2329.120605468750 10.536641120911
-2085.741699218750 -2341.697753906250 10.453037261963
-2085.761718750000 -2341.802734375000 10.452942848206
-2088.555664062500 -2356.455566406250 8.243057250977
-2088.988281250000 -2358.724853515625 8.232995986938
-2088.538085937500 -2356.363281250000 8.243466377258
-2085.049072265625 -2338.066650390625 10.456291198730
-2085.049072265625 -2338.066650390625 10.456291198730
-2074.109863281250 -2359.282958984375 8.247206687927
-2074.385253906250 -2359.458251953125 8.246160507202
-2064.296142578125 -2353.035888671875 4.637795925140
-2064.210937500000 -2352.981445312500 4.501309394836
-2064.296142578125 -2353.035888671875 8.284505844116
-2066.242431640625 -2354.274658203125 8.277109146118
-2062.374755859375 -2351.812744140625 4.507606983185
-2062.577636718750 -2351.941894531250 4.506911754608
-2063.927978515625 -2352.801513671875 4.502279758453
-2066.569091796875 -2354.482666015625 8.275867462158
-2070.920898437500 -2357.252929687500 8.259327888489
-2077.159423828125 -2361.224121093750 8.235616683960
-2079.272460937500 -2362.569335937500 8.227585792542
-2064.296142578125 -2353.035888671875 4.637795925140
-2064.296142578125 -2353.035888671875 8.284505844116
-2064.210937500000 -2352.981445312500 4.501309394836
-2084.320068359375 -2365.782470703125 8.208401679993
-2072.811523437500 -2358.456298828125 8.252141952515
-2074.075683593750 -2359.261230468750 8.247337341309
-2074.576416015625 -2358.577880859375 8.249664306641
-2074.663818359375 -2359.036865234375 8.247629165649
-2071.491943359375 -2342.401367187500 8.550181388855
-2071.623535156250 -2343.092041015625 8.950911521912
-2075.295654296875 -2362.350830078125 8.232935905457
-2077.574707031250 -2374.302978515625 8.179944038391
-2071.485595703125 -2342.368408203125 8.531102180481
-2071.840820312500 -2344.231201171875 9.611954689026
-2072.757080078125 -2349.037109375000 8.291965484619
-2073.190185546875 -2351.307617187500 8.281898498535
-2073.292236328125 -2351.843261718750 8.279523849487
-2074.793701171875 -2359.718261718750 8.244607925415
-2073.580322265625 -2353.353759765625 8.272826194763
-2071.967285156250 -2344.895019531250 8.310330390930
-2071.967285156250 -2344.895019531250 9.911326408386
-2071.967285156250 -2344.895019531250 9.997030258179
-2074.566406250000 -2358.525878906250 8.249895095825
-2071.939208984375 -2344.747558593750 9.911458015442
-2071.967285156250 -2344.895019531250 9.997030258179
-2071.967285156250 -2344.895019531250 8.310330390930
-2072.195556640625 -2346.092041015625 8.305022239685
-2068.303710937500 -2342.341796875000 8.325187683105
-2068.520263671875 -2343.477050781250 8.320153236389
-2072.110351562500 -2362.305908203125 8.236672401428
-2072.197998046875 -2362.764892578125 8.234637260437
-2069.141357421875 -2346.735595703125 8.305706977844
-2069.618408203125 -2349.236816406250 8.294616699219
-2070.108154296875 -2351.804687500000 8.283231735229
-2071.097412109375 -2356.993896484375 8.260224342346
-2071.178222656250 -2357.416503906250 8.258350372314
-2071.622070312500 -2359.744628906250 8.248028755188
-2072.095703125000 -2362.229003906250 8.237013816833
-2069.722167968750 -2349.780761718750 8.292205810547
-2074.167724609375 -2373.095703125000 8.188834190369
-2068.735839843750 -2344.608642578125 8.315135955811
-2068.939697265625 -2345.677490234375 8.310398101807
-2069.013427734375 -2346.064208984375 8.308683395386
-2068.019042968750 -2340.849121093750 8.331806182861
-2075.306640625000 -2362.358398437500 8.232892036438
-2075.299316406250 -2362.369140625000 8.232854843140
-2069.240234375000 -2371.266357421875 8.202042579651
-2069.106689453125 -2371.462402343750 8.201363563538
-2069.429443359375 -2370.988525390625 8.203004837036
-2080.864013671875 -2354.197753906250 8.261153221130
-2079.478759765625 -2356.232177734375 8.254108428955
-2082.296875000000 -2352.093750000000 8.268439292908
-2082.333740234375 -2352.039550781250 8.268627166748
-2078.373535156250 -2357.854736328125 8.248488426208
-2076.923095703125 -2359.984619140625 8.241112709045
-2072.817382812500 -2366.013671875000 8.220233917236
-2076.405761718750 -2360.744384765625 8.238481521606
-2073.938476562500 -2364.367187500000 8.225934982300
-2056.129638671875 -2365.105224609375 4.609600067139
-2056.148681640625 -2365.205078125000 4.609943866730
-2056.205810546875 -2365.503906250000 4.610973358154
-2055.655517578125 -2362.618896484375 4.601033210754
-2055.470458984375 -2361.647460937500 4.597686290741
-2055.532958984375 -2361.976074218750 4.598818302155
-2058.192138671875 -2362.057128906250 4.582178115845
-2058.192138671875 -2362.057128906250 4.582178115845
-2058.199462890625 -2362.095947265625 4.582311153412
-2058.664306640625 -2364.534179687500 4.590712547302
-2059.214599609375 -2367.419189453125 4.600652694702
-2058.664306640625 -2364.534179687500 8.242238044739
-2058.922119140625 -2365.886230468750 8.236243247986
-2059.214599609375 -2367.419189453125 8.229447364807
-2058.192138671875 -2362.057128906250 8.253220558167
-2058.192138671875 -2362.057128906250 8.253220558167
-2057.549316406250 -2358.686279296875 4.570563316345
-2057.612060546875 -2359.014892578125 4.571695327759
-2059.213378906250 -2367.413574218750 4.600633621216
-2059.213378906250 -2367.413574218750 4.600633621216
-2062.544189453125 -2369.533935546875 8.216812133789
-2063.029541015625 -2369.842773437500 8.214967727661
-2059.213378906250 -2367.413574218750 8.229471206665
-2059.213378906250 -2367.413574218750 8.229471206665
-2056.100585937500 -2365.431884765625 4.611311435699
-2056.204589843750 -2365.498291015625 4.610954284668
-2076.295654296875 -2367.594970703125 8.209685325623
-2078.312255859375 -2367.269531250000 8.208812713623
-2067.577636718750 -2369.000976562500 8.213457107544
-2067.694335937500 -2368.982177734375 8.213406562805
-2068.132324218750 -2368.911621093750 8.213216781616
-2080.113281250000 -2366.979003906250 8.208033561707
-2081.503662109375 -2366.754882812500 8.207432746887
-2066.064697265625 -2369.245117187500 8.214111328125
-2062.894042968750 -2369.756347656250 8.215483665466
-2062.887939453125 -2369.757324218750 8.215485572815
-2071.178466796875 -2368.420166015625 8.211898803711
-2073.213623046875 -2368.092041015625 8.211018562317
-2083.936523437500 -2366.362548828125 8.206379890442
-2074.605957031250 -2367.867431640625 8.210416793823
-2069.006591796875 -2368.770507812500 8.212839126587
-2088.655029296875 -2359.157226562500 8.231541633606
-2088.977783203125 -2358.669433593750 8.233242034912
-2089.324951171875 -2358.144287109375 8.235072135925
-2079.425781250000 -2373.110107421875 8.182917594910
-2080.866943359375 -2370.931396484375 8.190510749817
-2082.950683593750 -2367.781494140625 8.201487541199
-2083.883544921875 -2366.371093750000 8.206402778625
-2087.041259765625 -2361.597167968750 8.223039627075
-2078.729736328125 -2374.162597656250 8.179250717163
-2084.286865234375 -2365.761230468750 8.208527565002
-2085.576660156250 -2363.811035156250 8.215323448181
-2075.992187500000 -2374.321777343750 8.181626319885
-2077.542480468750 -2374.133300781250 8.180695533752
-2078.854736328125 -2373.973632812500 8.179907798767
-2078.906005859375 -2373.967529296875 8.179877281189
-2063.029541015625 -2369.842773437500 8.214967727661
-2063.023437500000 -2369.843750000000 8.214970588684
-2063.023437500000 -2369.843750000000 0.000000000000
-2063.029541015625 -2369.842773437500 0.000000000000
-2066.901855468750 -2370.013671875000 8.209934234619
-2065.929687500000 -2369.375000000000 8.213712692261
-2065.929687500000 -2369.375000000000 0.000000000000
-2066.901855468750 -2370.013671875000 0.000000000000
-2070.638183593750 -2372.156250000000 8.196729660034
-2070.257812500000 -2372.218750000000 8.196888923645
-2070.257812500000 -2372.218750000000 0.000000000000
-2070.638183593750 -2372.156250000000 0.000000000000
-2074.167724609375 -2373.095703125000 8.188834190369
-2072.351562500000 -2371.875000000000 8.196008682251
-2072.351562500000 -2371.875000000000 0.000000000000
-2074.167724609375 -2373.095703125000 0.000000000000
-2077.574707031250 -2374.302978515625 8.179944038391
-2076.210937500000 -2374.468750000000 8.180762290955
-2076.210937500000 -2374.468750000000 0.000000000000
-2077.574707031250 -2374.302978515625 0.000000000000
-2078.906005859375 -2373.967529296875 8.179877281189
-2078.781250000000 -2374.156250000000 8.179219245911
-2078.781250000000 -2374.156250000000 0.000000000000
-2078.906005859375 -2373.967529296875 0.000000000000
-2089.324951171875 -2358.144287109375 8.235072135925
-2089.343750000000 -2358.187500000000 8.234869003296
-2089.343750000000 -2358.187500000000 0.000000000000
-2089.324951171875 -2358.144287109375 0.000000000000
-2088.538085937500 -2356.363281250000 8.243466377258
-2088.554687500000 -2356.375000000000 8.243398666382
-2088.554687500000 -2356.375000000000 0.000000000000
-2088.538085937500 -2356.363281250000 0.000000000000
-2080.064941406250 -2350.198730468750 8.278923988342
-2079.945312500000 -2350.375000000000 8.278313636780
-2079.945312500000 -2350.375000000000 0.000000000000
-2080.064941406250 -2350.198730468750 0.000000000000
-2069.854003906250 -2342.946044921875 8.320910453796
-2069.757812500000 -2343.250000000000 8.319734573364
-2069.757812500000 -2343.250000000000 0.000000000000
-2069.854003906250 -2342.946044921875 0.000000000000
-2069.709716796875 -2341.873535156250 8.325598716736
-2069.906250000000 -2342.781250000000 8.321547508240
-2069.906250000000 -2342.781250000000 0.000000000000
-2069.709716796875 -2341.873535156250 0.000000000000
-2069.682861328125 -2341.820800781250 8.325850486755
-2069.703125000000 -2341.843750000000 8.325731277466
-2069.703125000000 -2341.843750000000 0.000000000000
-2069.682861328125 -2341.820800781250 0.000000000000
-2068.171875000000 -2340.812500000000 8.331789970398
-2069.070312500000 -2341.125000000000 8.329470634460
-2069.070312500000 -2341.125000000000 0.000000000000
-2068.171875000000 -2340.812500000000 0.000000000000
-2068.077880859375 -2340.834960937500 8.331799507141
-2068.171875000000 -2340.812500000000 8.331789970398
-2068.171875000000 -2340.812500000000 0.000000000000
-2068.077880859375 -2340.834960937500 0.000000000000
-2066.884277343750 -2341.352539062500 8.330944061279
-2067.257812500000 -2341.031250000000 8.331884384155
-2067.257812500000 -2341.031250000000 0.000000000000
-2066.884277343750 -2341.352539062500 0.000000000000
-2064.823242187500 -2343.986572265625 8.322119712830
-2066.531250000000 -2341.656250000000 8.330055236816
-2066.531250000000 -2341.656250000000 0.000000000000
-2064.823242187500 -2343.986572265625 0.000000000000
-2063.582519531250 -2345.834228515625 8.315701484680
-2063.507812500000 -2345.781250000000 8.316008567810
-2063.507812500000 -2345.781250000000 0.000000000000
-2063.582519531250 -2345.834228515625 0.000000000000
-2080.281250000000 -2329.468750000000 8.630613327026
-2081.789062500000 -2327.250000000000 8.644329071045
-2081.789062500000 -2327.250000000000 0.000000000000
-2080.281250000000 -2329.468750000000 0.000000000000
-2080.254394531250 -2329.450927734375 8.604521751404
-2080.281250000000 -2329.468750000000 8.630613327026
-2080.281250000000 -2329.468750000000 0.000000000000
-2080.254394531250 -2329.450927734375 0.000000000000
-2070.317382812500 -2343.638183593750 8.317472457886
-2070.523437500000 -2343.781250000000 8.521003723145
-2070.523437500000 -2343.781250000000 0.000000000000
-2070.317382812500 -2343.638183593750 0.000000000000
-2091.053710937500 -2333.813720703125 8.335855484009
-2091.140625000000 -2333.875000000000 8.249541282654
-2091.140625000000 -2333.875000000000 0.000000000000
-2091.053710937500 -2333.813720703125 0.000000000000
-2091.039550781250 -2333.726806640625 8.384843826294
-2091.007812500000 -2333.781250000000 8.381572723389
-2091.007812500000 -2333.781250000000 0.000000000000
-2091.039550781250 -2333.726806640625 0.000000000000
-2091.046875000000 -2333.677246093750 8.402451515198
-2091.062500000000 -2333.687500000000 8.387198448181
-2091.062500000000 -2333.687500000000 0.000000000000
-2091.046875000000 -2333.677246093750 0.000000000000
-2090.250000000000 -2332.968750000000 9.260742187500
-2090.164062500000 -2333.093750000000 9.262020111084
-2090.164062500000 -2333.093750000000 0.000000000000
-2090.250000000000 -2332.968750000000 0.000000000000
-2089.349121093750 -2332.359863281250 10.144078254700
-2090.250000000000 -2332.968750000000 9.260742187500
-2090.250000000000 -2332.968750000000 0.000000000000
-2089.349121093750 -2332.359863281250 0.000000000000
-2055.461181640625 -2362.078613281250 4.599757194519
-2055.398437500000 -2361.750000000000 4.598624706268
-2055.398437500000 -2361.750000000000 0.000000000000
-2055.461181640625 -2362.078613281250 0.000000000000
-2056.205810546875 -2365.503906250000 4.610973358154
-2056.101562500000 -2365.437500000000 4.611330509186
-2056.101562500000 -2365.437500000000 0.000000000000
-2056.205810546875 -2365.503906250000 0.000000000000
-2065.047119140625 -2348.006347656250 4.472742557526
-2065.578125000000 -2347.250000000000 4.465816020966
-2065.578125000000 -2347.250000000000 0.000000000000
-2065.047119140625 -2348.006347656250 0.000000000000
-2077.304199218750 -2333.824218750000 10.596241950989
-2078.312500000000 -2332.343750000000 10.596103668213
-2078.312500000000 -2332.343750000000 0.000000000000
-2077.304199218750 -2333.824218750000 0.000000000000
-2078.961669921875 -2328.604248046875 4.240273475647
-2078.968750000000 -2328.593750000000 4.240373134613
-2078.968750000000 -2328.593750000000 0.000000000000
-2078.961669921875 -2328.604248046875 0.000000000000
-2077.915771484375 -2332.074462890625 4.220234394073
-2077.023437500000 -2331.468750000000 4.213313102722
-2077.023437500000 -2331.468750000000 0.000000000000
-2077.915771484375 -2332.074462890625 0.000000000000
-2069.935546875000 -2343.373291015625 8.319016456604
-2070.317382812500 -2343.638183593750 8.317472457886
-2070.317382812500 -2343.638183593750 0.000000000000
-2069.935546875000 -2343.373291015625 0.000000000000
-2079.984130859375 -2350.402099609375 8.278155326843
-2079.985595703125 -2350.403076171875 8.278149604797
-2079.985595703125 -2350.403076171875 -0.000000000000
-2079.984130859375 -2350.402099609375 0.000000000000
-2066.978759765625 -2370.064208984375 8.209635734558
-2066.901855468750 -2370.013671875000 8.209934234619
-2066.901855468750 -2370.013671875000 0.000000000000
-2066.978759765625 -2370.064208984375 0.000000000000
-2062.887939453125 -2369.757324218750 8.215485572815
-2062.541992187500 -2369.537353515625 8.216800689697
-2062.541992187500 -2369.537353515625 0.000000000000
-2062.887939453125 -2369.757324218750 0.000000000000
-2091.007812500000 -2333.781250000000 8.381572723389
-2091.053710937500 -2333.813720703125 8.335855484009
-2091.053710937500 -2333.813720703125 0.000000000000
-2091.007812500000 -2333.781250000000 0.000000000000
-2086.093017578125 -2330.158935546875 12.858512878418
-2086.336914062500 -2330.323974609375 13.097514152527
-2086.336914062500 -2330.323974609375 0.000000000000
-2086.093017578125 -2330.158935546875 0.000000000000
-2086.616455078125 -2330.512939453125 12.823441505432
-2088.836425781250 -2332.013183593750 10.646830558777
-2088.836425781250 -2332.013183593750 0.000000000000
-2086.616455078125 -2330.512939453125 0.000000000000
-2083.163818359375 -2328.179199218750 9.990516662598
-2083.665039062500 -2328.518066406250 10.481202125549
-2083.665039062500 -2328.518066406250 0.000000000000
-2083.163818359375 -2328.179199218750 0.000000000000
-2085.217285156250 -2342.604980468750 10.426104545593
-2082.809570312500 -2346.153564453125 10.307374000549
-2082.809570312500 -2346.153564453125 0.000000000000
-2085.217285156250 -2342.604980468750 0.000000000000
-2083.665039062500 -2328.518066406250 10.481202125549
-2083.721679687500 -2328.556396484375 10.536710739136
-2083.721679687500 -2328.556396484375 0.000000000000
-2083.665039062500 -2328.518066406250 0.000000000000
-2088.836425781250 -2332.013183593750 10.646830558777
-2089.115966796875 -2332.202148437500 10.372716903687
-2089.115966796875 -2332.202148437500 0.000000000000
-2088.836425781250 -2332.013183593750 0.000000000000
-2086.336914062500 -2330.323974609375 13.097514152527
-2086.616455078125 -2330.512939453125 12.823441505432
-2086.616455078125 -2330.512939453125 0.000000000000
-2086.336914062500 -2330.323974609375 0.000000000000
-2056.100585937500 -2365.431884765625 4.611311435699
-2056.077880859375 -2365.312744140625 4.610900402069
-2056.077880859375 -2365.312744140625 0.000000000000
-2056.100585937500 -2365.431884765625 0.000000000000
-2078.968994140625 -2328.593994140625 4.240374565125
-2079.864501953125 -2329.190917968750 4.247352600098
-2079.864501953125 -2329.190917968750 0.000000000000
-2078.968994140625 -2328.593994140625 0.000000000000
-2078.302001953125 -2332.336669921875 4.223229885101
-2077.915771484375 -2332.074462890625 4.220234394073
-2077.915771484375 -2332.074462890625 0.000000000000
-2078.302001953125 -2332.336669921875 0.000000000000
-2084.351318359375 -2328.981689453125 11.153148651123
-2086.093017578125 -2330.158935546875 12.858512878418
-2086.093017578125 -2330.158935546875 0.000000000000
-2084.351318359375 -2328.981689453125 0.000000000000
-2069.627441406250 -2341.757812500000 8.326178550720
-2069.682861328125 -2341.820800781250 8.325850486755
-2069.682861328125 -2341.820800781250 0.000000000000
-2069.627441406250 -2341.757812500000 0.000000000000
-2055.551513671875 -2362.552734375000 4.601390361786
-2055.461181640625 -2362.078613281250 4.599757194519
-2055.461181640625 -2362.078613281250 0.000000000000
-2055.551513671875 -2362.552734375000 0.000000000000
-2078.968750000000 -2328.593750000000 4.240373134613
-2078.968994140625 -2328.593994140625 4.240374565125
-2078.968994140625 -2328.593994140625 0.000000000000
-2078.968750000000 -2328.593750000000 0.000000000000
-2078.885009765625 -2328.717285156250 4.239209175110
-2078.961669921875 -2328.604248046875 4.240273475647
-2078.961669921875 -2328.604248046875 0.000000000000
-2078.885009765625 -2328.717285156250 0.000000000000
-2078.312500000000 -2332.343750000000 10.596103668213
-2078.302001953125 -2332.336669921875 10.596425056458
-2078.302001953125 -2332.336669921875 -0.000000000000
-2078.312500000000 -2332.343750000000 0.000000000000
-2074.559814453125 -2337.854248046875 10.596618652344
-2075.919189453125 -2335.857910156250 10.596432685852
-2075.919189453125 -2335.857910156250 0.000000000000
-2074.559814453125 -2337.854248046875 0.000000000000
-2056.077880859375 -2365.312744140625 4.610900402069
-2056.058349609375 -2365.210693359375 4.610548973083
-2056.058349609375 -2365.210693359375 0.000000000000
-2056.077880859375 -2365.312744140625 0.000000000000
-2079.864501953125 -2329.190917968750 4.247352600098
-2080.254394531250 -2329.450927734375 4.250390529633
-2080.254394531250 -2329.450927734375 0.000000000000
-2079.864501953125 -2329.190917968750 0.000000000000
-2066.838134765625 -2341.392333984375 8.330827713013
-2066.884277343750 -2341.352539062500 8.330944061279
-2066.884277343750 -2341.352539062500 0.000000000000
-2066.838134765625 -2341.392333984375 0.000000000000
-2088.554687500000 -2356.375000000000 8.243398666382
-2088.604736328125 -2356.489746093750 8.242858886719
-2088.604736328125 -2356.489746093750 0.000000000000
-2088.554687500000 -2356.375000000000 0.000000000000
-2061.393798828125 -2353.210205078125 4.520406723022
-2061.732177734375 -2352.728271484375 4.515992641449
-2061.732177734375 -2352.728271484375 0.000000000000
-2061.393798828125 -2353.210205078125 0.000000000000
-2083.936523437500 -2366.362548828125 8.206379890442
-2082.982666015625 -2367.804199218750 8.201355934143
-2082.982666015625 -2367.804199218750 0.000000000000
-2083.936523437500 -2366.362548828125 0.000000000000
-2069.106689453125 -2371.462402343750 8.201363563538
-2067.251220703125 -2370.243408203125 8.208576202393
-2067.251220703125 -2370.243408203125 0.000000000000
-2069.106689453125 -2371.462402343750 0.000000000000
-2079.985595703125 -2350.403076171875 8.278149604797
-2080.251953125000 -2350.588623046875 8.277070045471
-2080.251953125000 -2350.588623046875 0.000000000000
-2079.985595703125 -2350.403076171875 -0.000000000000
-2072.351562500000 -2371.875000000000 8.196008682251
-2070.638183593750 -2372.156250000000 8.196729660034
-2070.638183593750 -2372.156250000000 0.000000000000
-2072.351562500000 -2371.875000000000 0.000000000000
-2056.058349609375 -2365.210693359375 4.610548973083
-2055.551513671875 -2362.552734375000 4.601390361786
-2055.551513671875 -2362.552734375000 0.000000000000
-2056.058349609375 -2365.210693359375 0.000000000000
-2087.073242187500 -2361.619873046875 8.222907066345
-2085.587158203125 -2363.866699218750 8.215077400208
-2085.587158203125 -2363.866699218750 0.000000000000
-2087.073242187500 -2361.619873046875 0.000000000000
-2082.333740234375 -2352.039550781250 8.268627166748
-2083.485107421875 -2352.842041015625 8.263957977295
-2083.485107421875 -2352.842041015625 0.000000000000
-2082.333740234375 -2352.039550781250 0.000000000000
-2082.809570312500 -2346.153564453125 10.307374000549
-2082.341308593750 -2346.843750000000 10.284289360046
-2082.341308593750 -2346.843750000000 0.000000000000
-2082.809570312500 -2346.153564453125 0.000000000000
-2077.977539062500 -2330.058593750000 4.226585865021
-2078.885009765625 -2328.717285156250 4.239209175110
-2078.885009765625 -2328.717285156250 0.000000000000
-2077.977539062500 -2330.058593750000 0.000000000000
-2077.023437500000 -2331.468750000000 4.213313102722
-2077.977539062500 -2330.058593750000 4.226585865021
-2077.977539062500 -2330.058593750000 0.000000000000
-2077.023437500000 -2331.468750000000 0.000000000000
-2091.140625000000 -2333.875000000000 8.249541282654
-2088.777343750000 -2337.358154296875 8.264019966125
-2088.777343750000 -2337.358154296875 0.000000000000
-2091.140625000000 -2333.875000000000 0.000000000000
-2075.919189453125 -2335.857910156250 10.596432685852
-2077.304199218750 -2333.824218750000 10.596241950989
-2077.304199218750 -2333.824218750000 0.000000000000
-2075.919189453125 -2335.857910156250 0.000000000000
-2089.115966796875 -2332.202148437500 10.372716903687
-2089.349121093750 -2332.359863281250 10.144078254700
-2089.349121093750 -2332.359863281250 0.000000000000
-2089.115966796875 -2332.202148437500 0.000000000000
-2091.062500000000 -2333.687500000000 8.387198448181
-2091.039550781250 -2333.726806640625 8.384843826294
-2091.039550781250 -2333.726806640625 0.000000000000
-2091.062500000000 -2333.687500000000 0.000000000000
-2083.721679687500 -2328.556396484375 10.536710739136
-2084.351318359375 -2328.981689453125 11.153148651123
-2084.351318359375 -2328.981689453125 0.000000000000
-2083.721679687500 -2328.556396484375 0.000000000000
-2080.877685546875 -2370.987060546875 8.190263748169
-2079.436523437500 -2373.165771484375 8.182671546936
-2079.436523437500 -2373.165771484375 0.000000000000
-2080.877685546875 -2370.987060546875 0.000000000000
-2071.485595703125 -2342.368408203125 8.531102180481
-2073.109375000000 -2339.983886718750 8.548146247864
-2073.109375000000 -2339.983886718750 0.000000000000
-2071.485595703125 -2342.368408203125 0.000000000000
-2082.203369140625 -2347.047119140625 10.277482032776
-2080.886230468750 -2348.988281250000 10.212534904480
-2080.886230468750 -2348.988281250000 0.000000000000
-2082.203369140625 -2347.047119140625 0.000000000000
-2070.523437500000 -2343.781250000000 8.521003723145
-2071.183593750000 -2342.812011718750 8.527933120728
-2071.183593750000 -2342.812011718750 0.000000000000
-2070.523437500000 -2343.781250000000 0.000000000000
-2068.019042968750 -2340.849121093750 8.331806182861
-2068.077880859375 -2340.834960937500 8.331799507141
-2068.077880859375 -2340.834960937500 0.000000000000
-2068.019042968750 -2340.849121093750 0.000000000000
-2069.703125000000 -2341.843750000000 8.325731277466
-2069.709716796875 -2341.873535156250 8.325598716736
-2069.709716796875 -2341.873535156250 0.000000000000
-2069.703125000000 -2341.843750000000 0.000000000000
-2066.531250000000 -2341.656250000000 8.330055236816
-2066.838134765625 -2341.392333984375 8.330827713013
-2066.838134765625 -2341.392333984375 0.000000000000
-2066.531250000000 -2341.656250000000 0.000000000000
-2064.797363281250 -2346.696044921875 8.310710906982
-2063.582519531250 -2345.834228515625 8.315701484680
-2063.582519531250 -2345.834228515625 0.000000000000
-2064.797363281250 -2346.696044921875 0.000000000000
-2063.931884765625 -2345.202636718750 8.317978858948
-2063.939697265625 -2345.191894531250 8.318015098572
-2063.939697265625 -2345.191894531250 0.000000000000
-2063.931884765625 -2345.202636718750 0.000000000000
-2085.761718750000 -2341.802734375000 10.452942848206
-2085.217285156250 -2342.604980468750 10.426104545593
-2085.217285156250 -2342.604980468750 0.000000000000
-2085.761718750000 -2341.802734375000 0.000000000000
-2088.688232421875 -2359.178466796875 8.231415748596
-2087.073242187500 -2361.619873046875 8.222907066345
-2087.073242187500 -2361.619873046875 0.000000000000
-2088.688232421875 -2359.178466796875 0.000000000000
-2063.507812500000 -2345.781250000000 8.316008567810
-2063.931884765625 -2345.202636718750 8.317978858948
-2063.931884765625 -2345.202636718750 0.000000000000
-2063.507812500000 -2345.781250000000 0.000000000000
-2075.992187500000 -2374.321777343750 8.181626319885
-2075.813720703125 -2374.201904296875 8.182331085205
-2075.813720703125 -2374.201904296875 0.000000000000
-2075.992187500000 -2374.321777343750 0.000000000000
-2069.906250000000 -2342.781250000000 8.321547508240
-2069.854003906250 -2342.946044921875 8.320910453796
-2069.854003906250 -2342.946044921875 0.000000000000
-2069.906250000000 -2342.781250000000 0.000000000000
-2069.757812500000 -2343.250000000000 8.319734573364
-2069.935546875000 -2343.373291015625 8.319016456604
-2069.935546875000 -2343.373291015625 0.000000000000
-2069.757812500000 -2343.250000000000 0.000000000000
-2069.070312500000 -2341.125000000000 8.329470634460
-2069.627441406250 -2341.757812500000 8.326178550720
-2069.627441406250 -2341.757812500000 0.000000000000
-2069.070312500000 -2341.125000000000 0.000000000000
-2082.982666015625 -2367.804199218750 8.201355934143
-2080.877685546875 -2370.987060546875 8.190263748169
-2080.877685546875 -2370.987060546875 0.000000000000
-2082.982666015625 -2367.804199218750 0.000000000000
-2073.109375000000 -2339.983886718750 10.596817970276
-2074.559814453125 -2337.854248046875 10.596618652344
-2074.559814453125 -2337.854248046875 0.000000000000
-2073.109375000000 -2339.983886718750 0.000000000000
-2080.886230468750 -2348.988281250000 10.212534904480
-2080.064941406250 -2350.198730468750 10.172037124634
-2080.064941406250 -2350.198730468750 -0.000000000000
-2080.886230468750 -2348.988281250000 0.000000000000
-2057.549316406250 -2358.686279296875 4.570563316345
-2061.393798828125 -2353.210205078125 4.520406723022
-2061.393798828125 -2353.210205078125 0.000000000000
-2057.549316406250 -2358.686279296875 0.000000000000
-2088.988281250000 -2358.724853515625 8.232995986938
-2088.688232421875 -2359.178466796875 8.231415748596
-2088.688232421875 -2359.178466796875 0.000000000000
-2088.988281250000 -2358.724853515625 0.000000000000
-2064.392822265625 -2344.573974609375 8.320119857788
-2064.823242187500 -2343.986572265625 8.322119712830
-2064.823242187500 -2343.986572265625 0.000000000000
-2064.392822265625 -2344.573974609375 0.000000000000
-2070.257812500000 -2372.218750000000 8.196888923645
-2069.578857421875 -2371.772705078125 8.199527740479
-2069.578857421875 -2371.772705078125 0.000000000000
-2070.257812500000 -2372.218750000000 0.000000000000
-2063.939697265625 -2345.191894531250 8.318015098572
-2064.392822265625 -2344.573974609375 8.320119857788
-2064.392822265625 -2344.573974609375 0.000000000000
-2063.939697265625 -2345.191894531250 0.000000000000
-2065.578125000000 -2347.250000000000 4.465816020966
-2064.797363281250 -2346.696044921875 4.468228340149
-2064.797363281250 -2346.696044921875 0.000000000000
-2065.578125000000 -2347.250000000000 0.000000000000
-2062.374755859375 -2351.812744140625 4.507606983185
-2065.047119140625 -2348.006347656250 4.472742557526
-2065.047119140625 -2348.006347656250 0.000000000000
-2062.374755859375 -2351.812744140625 0.000000000000
-2082.341308593750 -2346.843750000000 10.284289360046
-2082.203369140625 -2347.047119140625 10.277482032776
-2082.203369140625 -2347.047119140625 0.000000000000
-2082.341308593750 -2346.843750000000 0.000000000000
-2090.164062500000 -2333.093750000000 9.262020111084
-2091.046875000000 -2333.677246093750 8.402451515198
-2091.046875000000 -2333.677246093750 0.000000000000
-2090.164062500000 -2333.093750000000 0.000000000000
-2067.251220703125 -2370.243408203125 8.208576202393
-2066.978759765625 -2370.064208984375 8.209635734558
-2066.978759765625 -2370.064208984375 0.000000000000
-2067.251220703125 -2370.243408203125 0.000000000000
-2079.945312500000 -2350.375000000000 8.278313636780
-2079.984130859375 -2350.402099609375 8.278155326843
-2079.984130859375 -2350.402099609375 0.000000000000
-2079.945312500000 -2350.375000000000 0.000000000000
-2081.789062500000 -2327.250000000000 8.644329071045
-2083.163818359375 -2328.179199218750 9.990516662598
-2083.163818359375 -2328.179199218750 0.000000000000
-2081.789062500000 -2327.250000000000 0.000000000000
-2088.777343750000 -2337.358154296875 10.601649284363
-2085.761718750000 -2341.802734375000 10.452942848206
-2085.761718750000 -2341.802734375000 0.000000000000
-2088.777343750000 -2337.358154296875 0.000000000000
-2089.343750000000 -2358.187500000000 8.234869003296
-2088.988281250000 -2358.724853515625 8.232995986938
-2088.988281250000 -2358.724853515625 0.000000000000
-2089.343750000000 -2358.187500000000 0.000000000000
-2083.485107421875 -2352.842041015625 8.263957977295
-2088.538085937500 -2356.363281250000 8.243466377258
-2088.538085937500 -2356.363281250000 0.000000000000
-2083.485107421875 -2352.842041015625 0.000000000000
-2061.732177734375 -2352.728271484375 4.515992641449
-2062.374755859375 -2351.812744140625 4.507606983185
-2062.374755859375 -2351.812744140625 0.000000000000
-2061.732177734375 -2352.728271484375 0.000000000000
-2085.587158203125 -2363.866699218750 8.215077400208
-2084.320068359375 -2365.782470703125 8.208401679993
-2084.320068359375 -2365.782470703125 0.000000000000
-2085.587158203125 -2363.866699218750 0.000000000000
-2078.729736328125 -2374.162597656250 8.179250717163
-2077.574707031250 -2374.302978515625 8.179944038391
-2077.574707031250 -2374.302978515625 0.000000000000
-2078.729736328125 -2374.162597656250 0.000000000000
-2071.183593750000 -2342.812011718750 8.527933120728
-2071.485595703125 -2342.368408203125 8.531102180481
-2071.485595703125 -2342.368408203125 0.000000000000
-2071.183593750000 -2342.812011718750 0.000000000000
-2075.813720703125 -2374.201904296875 8.182331085205
-2074.167724609375 -2373.095703125000 8.188834190369
-2074.167724609375 -2373.095703125000 0.000000000000
-2075.813720703125 -2374.201904296875 0.000000000000
-2067.257812500000 -2341.031250000000 8.331884384155
-2068.019042968750 -2340.849121093750 8.331806182861
-2068.019042968750 -2340.849121093750 0.000000000000
-2067.257812500000 -2341.031250000000 0.000000000000
-2069.578857421875 -2371.772705078125 8.199527740479
-2069.106689453125 -2371.462402343750 8.201363563538
-2069.106689453125 -2371.462402343750 0.000000000000
-2069.578857421875 -2371.772705078125 0.000000000000
-2080.251953125000 -2350.588623046875 8.277070045471
-2082.333740234375 -2352.039550781250 8.268627166748
-2082.333740234375 -2352.039550781250 0.000000000000
-2080.251953125000 -2350.588623046875 0.000000000000
-2059.214599609375 -2367.419189453125 4.600652694702
-2056.205810546875 -2365.503906250000 4.610973358154
-2056.205810546875 -2365.503906250000 0.000000000000
-2059.214599609375 -2367.419189453125 0.000000000000
-2055.398437500000 -2361.750000000000 4.598624706268
-2055.470458984375 -2361.647460937500 4.597686290741
-2055.470458984375 -2361.647460937500 0.000000000000
-2055.398437500000 -2361.750000000000 0.000000000000
-2062.541992187500 -2369.537353515625 8.216800689697
-2059.214599609375 -2367.419189453125 8.229447364807
-2059.214599609375 -2367.419189453125 0.000000000000
-2062.541992187500 -2369.537353515625 0.000000000000
-2055.470458984375 -2361.647460937500 4.597686290741
-2057.549316406250 -2358.686279296875 4.570563316345
-2057.549316406250 -2358.686279296875 0.000000000000
-2055.470458984375 -2361.647460937500 0.000000000000
-2065.929687500000 -2369.375000000000 8.213712692261
-2063.029541015625 -2369.842773437500 8.214967727661
-2063.029541015625 -2369.842773437500 0.000000000000
-2065.929687500000 -2369.375000000000 0.000000000000
-2056.101562500000 -2365.437500000000 4.611330509186
-2056.100585937500 -2365.431884765625 4.611311435699
-2056.100585937500 -2365.431884765625 0.000000000000
-2056.101562500000 -2365.437500000000 0.000000000000
-2063.023437500000 -2369.843750000000 8.214970588684
-2062.887939453125 -2369.757324218750 8.215485572815
-2062.887939453125 -2369.757324218750 0.000000000000
-2063.023437500000 -2369.843750000000 0.000000000000
-2084.320068359375 -2365.782470703125 8.208401679993
-2083.936523437500 -2366.362548828125 8.206379890442
-2083.936523437500 -2366.362548828125 0.000000000000
-2084.320068359375 -2365.782470703125 0.000000000000
-2088.604736328125 -2356.489746093750 8.242858886719
-2089.324951171875 -2358.144287109375 8.235072135925
-2089.324951171875 -2358.144287109375 0.000000000000
-2088.604736328125 -2356.489746093750 0.000000000000
-2078.781250000000 -2374.156250000000 8.179219245911
-2078.729736328125 -2374.162597656250 8.179250717163
-2078.729736328125 -2374.162597656250 0.000000000000
-2078.781250000000 -2374.156250000000 0.000000000000
-2076.210937500000 -2374.468750000000 8.180762290955
-2075.992187500000 -2374.321777343750 8.181626319885
-2075.992187500000 -2374.321777343750 0.000000000000
-2076.210937500000 -2374.468750000000 0.000000000000
-2079.436523437500 -2373.165771484375 8.182671546936
-2078.906005859375 -2373.967529296875 8.179877281189
-2078.906005859375 -2373.967529296875 0.000000000000
-2079.436523437500 -2373.165771484375 0.000000000000
-2055.398437500000 -2361.750000000000 0.000000000000
-2056.101562500000 -2365.437500000000 0.000000000000
-2063.023437500000 -2369.843750000000 0.000000000000
-2065.929687500000 -2369.375000000000 0.000000000000
-2070.257812500000 -2372.218750000000 0.000000000000
-2072.351562500000 -2371.875000000000 0.000000000000
-2076.210937500000 -2374.468750000000 0.000000000000
-2078.781250000000 -2374.156250000000 0.000000000000
-2089.343750000000 -2358.187500000000 0.000000000000
-2088.554687500000 -2356.375000000000 0.000000000000
-2079.945312500000 -2350.375000000000 0.000000000000
-2091.140625000000 -2333.875000000000 0.000000000000
-2091.007812500000 -2333.781250000000 0.000000000000
-2091.062500000000 -2333.687500000000 0.000000000000
-2090.164062500000 -2333.093750000000 0.000000000000
-2090.250000000000 -2332.968750000000 0.000000000000
-2081.789062500000 -2327.250000000000 0.000000000000
-2080.281250000000 -2329.468750000000 0.000000000000
-2078.968750000000 -2328.593750000000 0.000000000000
-2077.023437500000 -2331.468750000000 0.000000000000
-2078.312500000000 -2332.343750000000 0.000000000000
-2070.523437500000 -2343.781250000000 0.000000000000
-2069.757812500000 -2343.250000000000 0.000000000000
-2069.906250000000 -2342.781250000000 0.000000000000
-2069.703125000000 -2341.843750000000 0.000000000000
-2069.070312500000 -2341.125000000000 0.000000000000
-2068.171875000000 -2340.812500000000 0.000000000000
-2067.257812500000 -2341.031250000000 0.000000000000
-2066.531250000000 -2341.656250000000 0.000000000000
-2063.507812500000 -2345.781250000000 0.000000000000
-2065.578125000000 -2347.250000000000 0.000000000000
3 342 134 341
3 447 401 446
3 374 138 363
3 374 363 378
3 344 302 140
3 344 140 343
3 363 138 357
3 185 56 84
3 185 84 184
3 470 442 223
3 470 223 475
3 187 38 45
3 187 45 186
3 54 39 52
3 121 65 48
3 121 48 116
3 172 89 174
3 366 73 364
3 449 62 80
3 449 80 459
3 123 82 65
3 123 65 121
3 202 69 201
3 393 61 103
3 393 103 385
3 61 372 103
3 61 371 372
3 201 69 77
3 201 77 205
3 371 61 73
3 371 73 366
3 394 61 393
3 459 80 460
3 188 98 56
3 188 56 185
3 184 84 38
3 184 38 187
3 117 118 89
3 118 174 89
3 118 173 174
3 100 88 51
3 100 51 99
3 204 94 111
3 204 195 94
3 111 94 110
3 312 125 128
3 312 128 313
3 96 92 76
3 96 76 510
3 510 76 511
3 264 100 99
3 264 99 263
3 270 102 100
3 270 100 264
3 373 103 372
3 272 104 102
3 272 102 270
3 518 132 517
3 106 47 107
3 112 113 47
3 112 109 83
3 112 106 109
3 112 47 106
3 110 29 111
3 343 140 134
3 343 134 342
3 116 59 121
3 121 59 78
3 121 78 123
3 125 46 128
3 194 130 94
3 194 94 195
3 337 287 105
3 337 105 346
3 288 11 105
3 288 105 287
3 244 229 215
3 244 215 234
3 169 32 137
3 169 137 167
3 476 230 468
3 228 196 198
3 228 198 231
3 227 193 200
3 227 200 232
3 165 122 164
3 148 64 53
3 148 53 149
3 354 115 370
3 149 53 40
3 149 40 146
3 310 70 311
3 307 71 309
3 241 224 243
3 383 155 154
3 383 154 382
3 335 166 345
3 527 156 526
3 179 562 559
3 179 160 562
3 160 159 562
3 423 158 420
3 161 162 86
3 162 563 86
3 86 563 554
3 384 155 383
3 480 165 164
3 480 164 479
3 591 136 472
3 591 472 590
3 580 355 579
3 472 136 7
3 472 7 474
3 413 2 171
3 413 171 412
3 173 90 174
3 549 176 175
3 549 175 548
3 444 177 33
3 444 33 451
3 581 178 568
3 581 568 582
3 560 179 559
3 178 570 568
3 178 179 570
3 570 179 560
3 548 175 551
3 172 174 566
3 174 90 566
3 566 90 571
3 539 398 181
3 539 181 541
3 541 181 183
3 541 183 542
3 207 85 55
3 207 55 206
3 209 44 37
3 209 37 208
3 206 55 97
3 206 97 210
3 208 37 85
3 208 85 207
3 352 294 351
3 351 294 193
3 351 193 190
3 214 95 131
3 214 131 212
3 28 233 234
3 28 234 215
3 28 216 114
3 215 216 28
3 297 198 296
3 217 67 44
3 217 44 209
3 201 126 127
3 201 127 202
3 296 198 196
3 296 196 295
3 298 200 193
3 298 193 294
3 274 192 199
3 274 199 279
3 281 438 273
3 273 438 439
3 273 439 191
3 219 30 95
3 219 95 214
3 213 75 67
3 213 67 217
3 205 129 126
3 205 126 201
3 206 185 184
3 206 184 207
3 208 187 186
3 208 186 209
3 210 188 185
3 210 185 206
3 207 184 187
3 207 187 208
3 212 194 195
3 212 195 214
3 218 189 211
3 214 195 204
3 214 204 219
3 220 20 36
3 220 36 221
3 469 74 66
3 469 66 462
3 249 240 79
3 249 79 251
3 247 101 252
3 253 60 87
3 253 87 246
3 251 79 60
3 251 60 253
3 246 87 43
3 246 43 245
3 248 50 101
3 248 101 247
3 462 66 461
3 354 353 115
3 115 353 197
3 115 197 233
3 233 197 234
3 464 236 235
3 464 235 463
3 466 238 237
3 466 237 465
3 440 23 249
3 249 23 240
3 240 23 24
3 23 440 441
3 465 237 467
3 468 236 464
3 468 230 236
3 236 230 242
3 242 230 226
3 242 226 239
3 190 241 243
3 190 193 241
3 193 227 241
3 234 197 244
3 245 235 236
3 245 236 246
3 247 237 238
3 247 238 248
3 226 249 239
3 226 443 249
3 443 440 249
3 251 239 249
3 74 469 252
3 252 469 467
3 252 467 247
3 467 237 247
3 246 236 242
3 246 242 253
3 253 242 239
3 253 239 251
3 299 255 282
3 299 300 255
3 282 255 254
3 293 255 300
3 499 254 498
3 499 282 254
3 498 254 260
3 575 261 574
3 574 261 535
3 261 534 535
3 263 76 92
3 263 92 264
3 496 458 265
3 496 265 512
3 381 267 395
3 405 257 504
3 504 257 516
3 257 139 516
3 546 488 544
3 498 260 268
3 498 268 502
3 264 92 270
3 272 96 93
3 272 93 271
3 270 92 96
3 270 96 272
3 275 256 147
3 275 147 276
3 359 278 358
3 359 279 278
3 359 142 279
3 358 278 360
3 276 147 144
3 276 144 280
3 279 142 151
3 279 151 274
3 152 376 273
3 273 376 281
3 376 377 281
3 299 282 301
3 283 153 256
3 283 256 275
3 503 301 282
3 503 282 499
3 141 19 35
3 19 145 284
3 141 145 19
3 19 284 285
3 338 287 337
3 10 338 339
3 10 288 338
3 288 287 338
3 396 289 15
3 396 15 400
3 407 292 397
3 367 294 352
3 278 279 296
3 296 279 199
3 296 199 297
3 360 278 368
3 368 278 295
3 295 278 296
3 369 298 294
3 369 294 367
3 299 283 300
3 300 283 275
3 300 275 293
3 513 514 301
3 301 514 153
3 301 153 299
3 153 283 299
3 513 301 503
3 322 291 304
3 322 304 325
3 531 305 530
3 516 139 515
3 448 307 457
3 532 306 305
3 532 305 531
3 297 199 311
3 311 199 192
3 311 192 310
3 191 307 309
3 191 439 457
3 191 457 307
3 509 93 96
3 509 96 510
3 596 314 599
3 454 316 265
3 454 265 458
3 318 265 316
3 598 599 489
3 489 599 314
3 489 314 543
3 314 540 543
3 429 324 418
3 431 324 27
3 431 27 430
3 27 324 429
3 325 16 290
3 325 290 322
3 528 328 522
3 321 41 49
3 321 49 330
3 433 329 331
3 433 331 434
3 435 333 324
3 435 324 431
3 330 49 57
3 330 57 332
3 265 508 512
3 265 318 508
3 318 334 508
3 392 349 391
3 587 547 545
3 587 545 585
3 132 338 517
3 517 338 337
3 517 337 286
3 517 286 533
3 341 134 31
3 341 31 340
3 9 341 340
3 132 341 9
3 339 132 9
3 338 132 339
3 305 518 530
3 305 342 341
3 305 341 518
3 341 132 518
3 343 306 344
3 342 305 306
3 342 306 343
3 519 452 156
3 519 156 527
3 346 12 337
3 337 12 286
3 12 13 286
3 525 494 347
3 525 347 524
3 391 349 523
3 523 349 528
3 349 328 528
3 409 532 521
3 409 344 532
3 344 306 532
3 453 348 156
3 453 156 452
3 350 328 349
3 351 255 293
3 351 293 352
3 354 259 258
3 354 258 353
3 579 355 261
3 579 261 575
3 358 143 359
3 143 358 135
3 135 358 277
3 358 360 277
3 450 361 316
3 450 316 454
3 404 378 363
3 404 363 403
3 403 363 405
3 405 363 357
3 405 357 257
3 362 317 365
3 366 364 102
3 364 100 102
3 364 88 100
3 544 488 489
3 544 489 543
3 275 352 293
3 275 276 367
3 275 367 352
3 368 277 360
3 367 276 280
3 367 280 369
3 370 269 259
3 370 259 354
3 371 104 372
3 366 102 104
3 366 104 371
3 373 372 271
3 372 104 271
3 271 104 272
3 456 8 455
3 8 375 374
3 455 8 374
3 401 447 406
3 406 447 378
3 447 455 374
3 447 374 378
3 426 380 379
3 426 379 425
3 406 378 404
3 565 383 382
3 565 382 564
3 565 555 119
3 119 383 565
3 163 383 119
3 163 384 383
3 486 387 427
3 486 427 482
3 490 388 389
3 490 389 491
3 492 390 485
3 508 334 506
3 524 347 391
3 524 391 523
3 395 334 318
3 395 318 381
3 506 334 395
3 506 395 505
3 416 397 396
3 416 396 421
3 589 398 314
3 589 314 596
3 421 396 400
3 421 400 422
3 446 401 361
3 446 361 450
3 540 314 398
3 540 398 539
3 403 267 381
3 403 381 404
3 405 267 403
3 406 361 401
3 316 361 318
3 318 361 406
3 318 406 404
3 318 404 381
3 323 397 417
3 323 407 397
3 417 397 416
3 407 323 326
3 407 326 408
3 409 350 410
3 408 326 327
3 408 327 411
3 328 350 522
3 522 350 409
3 522 409 521
3 395 405 505
3 395 267 405
3 505 405 504
3 537 413 412
3 537 412 536
3 414 106 107
3 414 107 415
3 416 291 322
3 416 322 417
3 419 160 420
3 421 291 416
3 422 304 291
3 422 291 421
3 576 424 581
3 581 424 178
3 424 423 178
3 178 423 179
3 179 423 160
3 423 420 160
3 425 319 320
3 425 320 426
3 482 427 386
3 482 386 481
3 417 322 290
3 417 290 428
3 484 431 430
3 484 430 483
3 432 386 427
3 434 389 388
3 434 388 433
3 485 390 484
3 484 390 435
3 484 435 431
3 536 412 538
3 437 109 106
3 437 106 414
3 577 445 424
3 577 424 576
3 438 203 439
3 440 250 22
3 440 22 441
3 443 36 21
3 443 221 36
3 21 440 443
3 250 440 21
3 578 436 445
3 578 445 577
3 402 447 446
3 402 167 447
3 167 137 447
3 471 222 442
3 471 442 470
3 450 362 402
3 450 402 446
3 451 168 170
3 451 170 444
3 452 345 453
3 454 317 362
3 454 362 450
3 455 137 32
3 455 32 456
3 447 137 455
3 439 203 72
3 439 72 457
3 458 266 317
3 458 317 454
3 457 72 308
3 457 308 448
3 459 81 63
3 459 63 449
3 39 81 460
3 39 460 52
3 81 459 460
3 520 335 519
3 519 335 452
3 335 345 452
3 497 266 458
3 497 458 496
3 124 189 18
3 18 189 218
3 18 218 225
3 18 225 462
3 462 461 18
3 461 17 18
3 463 228 231
3 463 231 464
3 465 227 232
3 465 232 466
3 467 241 227
3 467 227 465
3 464 231 468
3 469 224 241
3 469 241 467
3 470 448 308
3 470 308 471
3 590 472 589
3 589 472 398
3 398 472 181
3 474 183 181
3 474 181 472
3 307 448 71
3 71 448 470
3 71 470 475
3 462 225 224
3 462 224 469
3 476 468 198
3 476 198 70
3 297 311 70
3 70 198 297
3 468 231 198
3 166 453 345
3 166 478 453
3 478 477 453
3 479 379 380
3 479 380 480
3 419 482 160
3 160 482 159
3 482 481 159
3 483 154 155
3 483 155 484
3 484 155 384
3 484 384 485
3 486 420 487
3 487 420 158
3 419 420 486
3 488 261 355
3 488 355 489
3 482 419 486
3 491 162 161
3 491 161 490
3 485 384 163
3 485 163 492
3 595 598 580
3 580 598 355
3 355 598 489
3 494 348 495
3 348 526 156
3 348 494 526
3 526 494 525
3 495 348 453
3 495 453 477
3 534 261 488
3 534 488 546
3 496 477 478
3 496 478 497
3 498 284 499
3 574 535 547
3 574 547 587
3 502 285 284
3 502 284 498
3 145 499 284
3 145 303 499
3 303 503 499
3 392 504 349
3 392 505 504
3 349 504 350
3 504 410 350
3 505 392 506
3 507 478 166
3 507 166 500
3 508 391 347
3 508 506 391
3 506 392 391
3 509 510 68
3 509 312 313
3 509 68 312
3 512 494 495
3 512 347 494
3 512 508 347
3 513 150 514
3 503 303 150
3 503 150 513
3 410 516 409
3 409 516 344
3 516 515 344
3 515 302 344
3 511 68 510
3 512 495 477
3 512 477 496
3 516 410 504
3 497 478 507
3 397 289 396
3 397 292 517
3 292 518 517
3 397 517 289
3 517 133 289
3 519 445 436
3 519 436 520
3 521 411 327
3 521 327 522
3 524 486 487
3 524 523 387
3 524 387 486
3 525 487 158
3 525 158 526
3 527 423 424
3 527 526 423
3 526 158 423
3 427 387 432
3 432 387 327
3 387 528 327
3 528 522 327
3 585 545 584
3 531 292 408
3 531 530 292
3 408 292 407
3 531 408 411
3 531 411 532
3 533 14 133
3 533 133 517
3 518 292 530
3 527 424 445
3 527 445 519
3 524 487 525
3 528 387 523
3 532 411 521
3 534 500 535
3 536 170 168
3 536 168 537
3 588 436 578
3 540 539 365
3 365 539 362
3 539 402 362
3 541 167 402
3 541 402 539
3 542 169 167
3 542 167 541
3 543 266 544
3 543 365 266
3 365 317 266
3 584 436 588
3 584 545 436
3 545 520 436
3 546 507 500
3 546 500 534
3 535 335 547
3 535 500 335
3 500 166 335
3 540 365 543
3 547 335 520
3 547 520 545
3 544 507 546
3 544 497 507
3 544 266 497
3 548 120 91
3 548 91 549
3 573 549 91
3 573 91 572
3 551 180 120
3 551 120 548
3 552 25 108
3 552 108 553
3 553 108 180
3 553 180 551
3 555 175 176
3 555 176 556
3 556 176 557
3 573 557 549
3 573 567 557
3 549 557 176
3 564 552 553
3 564 553 565
3 551 555 553
3 551 175 555
3 553 555 565
3 582 568 34
3 582 34 583
3 570 561 34
3 570 34 568
3 571 42 58
3 571 58 566
3 572 26 550
3 572 550 573
3 573 550 558
3 573 558 567
3 602 592 601
3 601 592 574
3 592 575 574
3 576 177 444
3 576 444 577
3 577 444 170
3 577 170 578
3 594 580 579
3 594 579 593
3 581 177 576
3 1 582 569
3 33 177 581
3 33 581 1
3 1 581 582
3 583 0 569
3 583 569 582
3 593 579 575
3 593 575 592
3 3 529 585
3 3 538 171
3 585 584 3
3 538 412 171
3 584 538 3
3 595 580 594
3 600 601 336
3 336 601 574
3 336 574 587
3 585 529 336
3 585 336 587
3 538 170 536
3 538 588 578
3 538 578 170
3 588 538 584
3 589 399 473
3 589 473 590
3 590 473 6
3 590 6 591
3 592 262 356
3 592 356 593
3 594 157 586
3 594 586 595
3 596 315 399
3 596 399 589
3 603 262 592
3 603 592 602
3 593 356 157
3 593 157 594
3 595 586 493
3 595 493 598
3 599 182 315
3 599 315 596
3 598 493 182
3 598 182 599
3 600 4 501
3 600 501 601
3 601 501 597
3 601 597 602
3 602 597 5
3 602 5 603
3 605 606 607
3 605 607 604
3 609 610 611
3 609 611 608
3 613 614 615
3 613 615 612
3 617 618 619
3 617 619 616
3 621 622 623
3 621 623 620
3 625 626 627
3 625 627 624
3 629 630 631
3 629 631 628
3 633 634 635
3 633 635 632
3 637 638 639
3 637 639 636
3 641 642 643
3 641 643 640
3 645 646 647
3 645 647 644
3 649 650 651
3 649 651 648
3 653 654 655
3 653 655 652
3 657 658 659
3 657 659 656
3 661 662 663
3 661 663 660
3 665 666 667
3 665 667 664
3 669 670 671
3 669 671 668
3 673 674 675
3 673 675 672
3 677 678 679
3 677 679 676
3 681 682 683
3 681 683 680
3 685 686 687
3 685 687 684
3 689 690 691
3 689 691 688
3 693 694 695
3 693 695 692
3 697 698 699
3 697 699 696
3 701 702 703
3 701 703 700
3 705 706 707
3 705 707 704
3 709 710 711
3 709 711 708
3 713 714 715
3 713 715 712
3 717 718 719
3 717 719 716
3 721 722 723
3 721 723 720
3 725 726 727
3 725 727 724
3 729 730 731
3 729 731 728
3 733 734 735
3 733 735 732
3 737 738 739
3 737 739 736
3 741 742 743
3 741 743 740
3 745 746 747
3 745 747 744
3 749 750 751
3 749 751 748
3 753 754 755
3 753 755 752
3 757 758 759
3 757 759 756
3 761 762 763
3 761 763 760
3 765 766 767
3 765 767 764
3 769 770 771
3 769 771 768
3 773 774 775
3 773 775 772
3 777 778 779
3 777 779 776
3 781 782 783
3 781 783 780
3 785 786 787
3 785 787 784
3 789 790 791
3 789 791 788
3 793 794 795
3 793 795 792
3 797 798 799
3 797 799 796
3 801 802 803
3 801 803 800
3 805 806 807
3 805 807 804
3 809 810 811
3 809 811 808
3 813 814 815
3 813 815 812
3 817 818 819
3 817 819 816
3 821 822 823
3 821 823 820
3 825 826 827
3 825 827 824
3 829 830 831
3 829 831 828
3 833 834 835
3 833 835 832
3 837 838 839
3 837 839 836
3 841 842 843
3 841 843 840
3 845 846 847
3 845 847 844
3 849 850 851
3 849 851 848
3 853 854 855
3 853 855 852
3 857 858 859
3 857 859 856
3 861 862 863
3 861 863 860
3 865 866 867
3 865 867 864
3 869 870 871
3 869 871 868
3 873 874 875
3 873 875 872
3 877 878 879
3 877 879 876
3 881 882 883
3 881 883 880
3 885 886 887
3 885 887 884
3 889 890 891
3 889 891 888
3 893 894 895
3 893 895 892
3 897 898 899
3 897 899 896
3 901 902 903
3 901 903 900
3 905 906 907
3 905 907 904
3 909 910 911
3 909 911 908
3 913 914 915
3 913 915 912
3 917 918 919
3 917 919 916
3 921 922 923
3 921 923 920
3 925 926 927
3 925 927 924
3 929 930 931
3 929 931 928
3 933 934 935
3 933 935 932
3 937 938 939
3 937 939 936
3 941 942 943
3 941 943 940
3 945 946 947
3 945 947 944
3 949 950 951
3 949 951 948
3 953 954 955
3 953 955 952
3 957 958 959
3 957 959 956
3 961 962 963
3 961 963 960
3 965 966 967
3 965 967 964
3 969 970 971
3 969 971 968
3 973 974 975
3 973 975 972
3 977 978 979
3 977 979 976
3 981 982 983
3 981 983 980
3 985 986 987
3 985 987 984
3 989 990 991
3 989 991 988
3 993 994 995
3 993 995 992
3 997 998 999
3 997 999 996
3 1001 1002 1003
3 1001 1003 1000
3 1005 1006 1007
3 1005 1007 1004
3 1009 1010 1011
3 1009 1011 1008
3 1013 1014 1015
3 1013 1015 1012
3 1017 1018 1019
3 1017 1019 1016
3 1021 1022 1023
3 1021 1023 1020
3 1025 1026 1027
3 1025 1027 1024
3 1029 1030 1031
3 1029 1031 1028
3 1033 1034 1035
3 1033 1035 1032
3 1037 1038 1039
3 1037 1039 1036
3 1041 1042 1043
3 1041 1043 1040
3 1045 1046 1047
3 1045 1047 1044
3 1049 1050 1051
3 1049 1051 1048
3 1053 1054 1055
3 1053 1055 1052
3 1057 1058 1059
3 1057 1059 1056
3 1061 1062 1063
3 1061 1063 1060
3 1065 1066 1067
3 1065 1067 1064
3 1069 1070 1071
3 1069 1071 1068
3 1073 1074 1075
3 1073 1075 1072
3 1077 1078 1079
3 1077 1079 1076
3 1081 1082 1083
3 1081 1083 1080
3 1085 1086 1087
3 1085 1087 1084
3 1089 1090 1091
3 1089 1091 1088
3 1093 1094 1095
3 1093 1095 1092
3 1097 1098 1099
3 1097 1099 1096
3 1101 1102 1103
3 1101 1103 1100
3 1105 1106 1107
3 1105 1107 1104
3 1109 1110 1111
3 1109 1111 1108
3 1117 1122 1115
3 1115 1112 1114
3 1132 1122 1126
3 1121 1117 1120
3 1112 1113 1114
3 1132 1126 1129
3 1142 1140 1141
3 1134 1139 1140
3 1136 1134 1135
3 1122 1133 1142
3 1115 1142 1112
3 1122 1142 1115
3 1116 1117 1115
3 1118 1119 1117
3 1119 1120 1117
3 1126 1122 1124
3 1122 1123 1124
3 1121 1122 1117
3 1142 1133 1134
3 1142 1134 1140
3 1124 1125 1126
3 1127 1128 1126
3 1128 1129 1126
3 1130 1132 1129
3 1133 1122 1132
3 1131 1132 1130
3 1134 1136 1137
3 1134 1137 1139
3 1139 1137 1138
