OFF
194 156 0

2.34347 -21.2496 -2.00118
0.918042 -21.0156 -2.0114
0.918042 -21.0156 -2.85608
-5.98856 19.9359 4.04767
3.2109 7.37441 1.52521
3.2109 7.37441 1.76965
8.66603 5.18024 -1.15942
8.47217 4.16333 -2.08053
8.66603 5.18023 -2.08403
8.87673 6.28552 1.77136
-16.9805 17.8907 -2.21151
-15.4975 15.7336 -6.54876
-16.9805 17.8906 -6.54876
-0.314134 8.38801 3.44261
0.156113 10.8538 3.44481
0.156129 10.8537 4.04767
-0.492755 7.45131 3.98611
-5.03245 18.5227 3.70084
-5.03245 18.5227 4.04767
-7.78175 18.7238 3.80545
-5.98856 19.9359 3.74802
-5.98856 19.9359 2.04957
0.156075 10.8538 2.01186
-8.96644 20.0875 3.98768
-8.83187 20.1772 3.85647
-5.03245 18.5227 2.04371
-6.98487 21.4085 2.05569
2.34127 7.624 1.99845
0.721977 5.63987 3.98589
-10.4522 22.3031 3.98796
-10.3955 22.3414 3.93245
1.35345 6.07994 3.36158
14.5906 -13.7515 -1.95778
15.077 -11.2001 1.70445
14.5906 -13.7515 1.69314
7.27929 4.19647 1.76077
5.73548 3.10126 1.75442
8.47217 4.16333 -0.569418
8.66603 5.18024 1.76646
8.47217 4.16333 1.76195
4.19921 9.73437 1.78071
4.19921 9.73437 -0.20683
5.5675 10.2103 1.78425
17.8711 -10.8906 -6.54876
17.8711 -10.8906 -1.95013
17.2107 -14.3538 -1.9382
17.2107 -14.3538 -6.54876
15.077 -11.2001 -1.96657
15.7202 -7.82691 -6.54876
15.0771 -11.2001 -6.54876
-17.9711 17.1316 -2.20408
-16.5476 15.0336 -2.22386
-8.48824 23.6305 -2.27745
-17.9711 17.2211 -2.20382
-16.5476 15.0336 1.77998
-16.5476 15.0336 -6.54876
-6.98487 21.4085 -6.54876
-16.4744 15.0824 1.78027
2.34126 7.624 -6.54876
0.392006 5.40991 -6.54876
0.392006 5.40991 1.75822
3.56622 9.01538 0.544501
3.56622 9.01538 1.77697
6.33399 9.5509 1.78232
5.5675 10.2103 -6.54876
4.19921 9.73437 -6.54876
5.5675 10.2103 -1.34382
7.27929 4.19646 0.219409
9.33764 5.65669 -1.82721
9.33764 5.65669 -2.08196
5.50961 2.94103 1.7535
5.50961 2.94102 -2.09379
9.33763 5.65669 1.76922
1.18597 6.31175 3.36972
6.07773 -18.3121 1.66441
3.49338 8.67901 1.77547
-7.98774 -19.5536 -2.07522
-7.98774 -19.5536 -6.54876
-5.23902 -20.0049 -6.54876
3.56622 9.01538 -6.54876
6.33399 9.5509 -2.11935
6.33399 9.5509 -6.54876
6.33399 9.5509 -1.56242
3.49338 8.67901 -6.54876
-6.98487 21.4085 -2.29837
-5.98856 19.9359 -2.31223
-4.70835 20.8013 -2.32217
-5.6991 22.2656 -2.30838
-17.923 17.2536 1.78782
-8.48824 23.6305 1.82525
14.0551 -16.5597 1.68069
-5.03245 18.5227 -2.32553
-14.5566 12.0993 4.00599
-3.7513 19.3868 -2.33548
7.69144 3.6094 -6.54876
-15.5078 13.5012 4.05289
9.76163 5.07821 -2.07654
-15.5078 13.5012 1.77467
-13.1992 15.0617 3.97895
6.56243 -19.0264 -1.98455
-7.98774 -19.5536 1.64351
17.304 -14.4916 -6.54876
-3.09002 -23.7094 -2.02448
-3.09002 -23.7094 -6.54876
-4.70834 20.8013 -6.54876
-5.98856 19.9359 -6.54876
-5.98856 19.9359 1.81243
-3.7513 19.3868 -6.54876
-5.03245 18.5227 1.80753
-5.03245 18.5227 -6.54876
3.2109 7.37441 -2.12919
-17.9711 17.2211 -6.54876
3.2109 7.37441 -6.54876
14.0552 -16.5597 -1.9481
-17.9711 17.2211 1.78763
10.2461 -18.9844 -6.54876
-8.48824 23.6305 -6.54876
7.69144 3.6094 -2.08294
7.33983 -18.5156 1.66496
1.53938 8.80921 -6.54876
-6.67577 0.484347 -6.54876
3.01182 -21.3593 -1.60034
16.1223 -12.7451 -1.95267
10.2461 -18.9844 -1.96117
-15.4469 13.5423 1.77491
2.73467 7.04252 -6.54876
0.918042 -21.0156 1.64725
3.01182 -21.3593 1.64813
9.76163 5.07821 -1.85159
9.76163 5.07821 1.76725
6.43286 9.61981 -6.54876
6.3674 -19.1546 1.66118
6.43286 9.61981 1.78272
-2.8547 -23.5512 -6.54876
-6.98487 21.4085 1.81754
-16.6458 -6.46379 1.68912
1.53939 8.80922 1.77385
6.43286 9.61981 -1.66018
-3.09002 -23.7094 1.63142
-7.96766 18.5981 3.9875
4.44463 8.2342 1.77465
-4.86745 1.74458 3.55977
2.73467 7.04252 1.76772
-15.5668 18.8461 4.09807
3.01182 -21.3593 -6.54876
8.87673 6.28552 -1.8007
-6.67577 0.484347 3.61738
-10.6578 -2.29074 -2.17285
2.60294 -21.628 -1.99776
0.918042 -21.0156 -6.54876
6.56243 -19.0264 1.66193
4.00271 7.92622 1.77286
-6.67577 0.484347 1.76947
5.91173 2.34668 1.75143
5.91172 2.34668 -2.08844
2.34127 7.624 1.76974
7.33983 -18.5156 -1.98196
3.49338 8.67901 0.745531
-14.5566 12.0993 1.76981
-12.2986 13.6222 3.93364
9.76163 5.07821 -6.54876
3.01182 -21.3593 -1.99639
2.73467 7.04252 -2.13069
-5.6991 22.2656 -6.54876
6.56243 -19.0264 -6.54876
4.00271 7.92622 -6.54876
-17.9711 17.1316 -6.54876
2.96467 7.20281 1.76865
4.44463 8.2342 -6.54876
15.7202 -7.82688 -1.97819
6.43286 9.61981 -2.11904
7.33983 -18.5156 -6.54876
16.1223 -12.7451 -6.54876
7.2793 4.19646 -2.08832
-5.23899 -23.7094 -2.03824
5.72163 -17.7872 -6.54876
10.2461 -18.9844 1.66621
5.53765 -17.9109 1.6655
-10.2251 5.71548 1.74769
-16.6458 -6.46379 -2.19171
2.73467 7.04252 1.99604
-6.67577 0.484347 1.72956
-13.0675 20.5354 6.54872
-8.48824 23.6305 2.06492
-7.01878 17.1831 3.98732
-6.67577 0.484347 -2.16032
-1.85933 3.84094 6.53789
-15.0778 -5.37104 -6.54876
-6.71626 0.456132 1.72939
-16.6458 -6.46379 -6.54876
17.304 -14.4916 -1.93696
-17.9711 17.1316 1.78725
-5.23899 -23.7094 -6.54876
-5.23899 -23.7094 1.62902
4  166 111 53 50  255 0 0
5  191 114 88 57 54  255 0 0
5  166 55 11 12 111  255 0 0
4  191 50 53 114  255 0 0
4  191 54 51 50  255 0 0
4  166 50 51 55  255 0 0
5  192 103 133 78 77  255 0 0
4  193 138 102 174  255 0 0
4  192 174 102 103  255 0 0
4  193 100 126 138  255 0 0
4  193 174 76 100  255 0 0
4  192 77 76 174  255 0 0
3  125 58 59  255 0 0
7  125 49 48 94 168 165 112  255 0 0
9  142 70 153 33 34 118 74 181 60  255 0 0
5  142 155 58 125 162  255 0 0
9  120 55 51 54 97 158 178 181 185  255 0 0
8  120 175 164 171 172 49 125 59  255 0 0
6  181 74 150 131 177 188  255 0 0
9  120 59 58 119 109 105 56 11 55  255 0 0
5  101 46 172 171 115  255 0 0
4  101 190 45 46  255 0 0
5  101 115 123 113 190  255 0 0
4  189 77 78 187  255 0 0
4  135 100 76 179  255 0 0
5  135 188 177 126 100  255 0 0
6  120 187 78 133 149 175  255 0 0
4  189 179 76 77  255 0 0
4  181 188 147 185  255 0 0
4  135 179 147 188  255 0 0
4  189 187 147 179  255 0 0
4  120 185 147 187  255 0 0
4  142 167 36 70  255 0 0
5  142 162 110 4 167  255 0 0
4  125 112 110 162  255 0 0
5  190 113 32 122 45  255 0 0
3  181 178 152  255 0 0
14  142 180 27 22 25 21 26 183 89 134 106 108 136 155  255 0 0
9  181 152 141 186 28 31 180 142 60  255 0 0
7  89 183 30 29 182 143 88  255 0 0
4  180 31 73 27  255 0 0
4  183 26 24 30  255 0 0
5  178 158 92 146 152  255 0 0
3  152 146 141  255 0 0
8  182 29 23 139 184 16 28 186  255 0 0
6  186 141 159 98 143 182  255 0 0
5  88 143 98 124 57  255 0 0
4  164 175 149 144  255 0 0
3  148 0 121  255 0 0
3  148 161 0  255 0 0
4  99 164 144 161  255 0 0
4  141 146 92 159  255 0 0
5  172 46 43 48 49  255 0 0
3  122 32 47  255 0 0
4  164 99 156 171  255 0 0
3  150 74 118  255 0 0
4  99 150 118 156  255 0 0
4  116 56 84 52  255 0 0
4  116 12 11 56  255 0 0
4  89 52 84 134  255 0 0
6  89 88 114 53 10 52  255 0 0
4  111 12 10 53  255 0 0
4  116 52 10 12  255 0 0
6  167 5 151 140 35 36  255 0 0
3  167 4 5  255 0 0
4  176 90 113 123  255 0 0
4  118 34 90 176  255 0 0
4  156 118 176 123  255 0 0
3  133 2 149  255 0 0
7  168 81 64 65 79 83 165  255 0 0
5  168 94 160 130 81  255 0 0
5  122 47 169 44 45  255 0 0
6  140 63 132 9 38 35  255 0 0
7  140 151 75 62 40 42 63  255 0 0
4  170 80 81 130  255 0 0
5  170 130 160 96 69  255 0 0
4  48 43 44 169  255 0 0
4  169 117 94 48  255 0 0
4  33 153 154 47  255 0 0
4  47 154 117 169  255 0 0
4  171 156 123 115  255 0 0
4  137 82 80 170  255 0 0
5  137 170 69 68 145  255 0 0
4  158 97 95 92  255 0 0
4  92 95 98 159  255 0 0
3  165 83 112  255 0 0
4  117 173 8 7  255 0 0
5  117 7 96 160 94  255 0 0
5  157 4 110 112 83  255 0 0
4  155 136 119 58  255 0 0
4  153 70 71 154  255 0 0
4  154 71 173 117  255 0 0
5  149 2 0 161 144  255 0 0
4  128 68 69 96  255 0 0
4  128 96 7 37  255 0 0
4  131 127 126 177  255 0 0
3  131 121 127  255 0 0
4  102 138 126 1  255 0 0
5  136 108 91 109 119  255 0 0
4  56 105 104 163  255 0 0
4  163 104 86 87  255 0 0
4  134 84 85 106  255 0 0
4  56 163 87 84  255 0 0
4  132 63 82 137  255 0 0
4  132 137 145 9  255 0 0
4  129 72 68 128  255 0 0
4  129 39 38 72  255 0 0
4  129 128 37 39  255 0 0
5  1 126 127 121 0  255 0 0
4  90 34 32 113  255 0 0
4  107 104 105 109  255 0 0
4  108 106 85 91  255 0 0
4  107 93 86 104  255 0 0
4  109 91 93 107  255 0 0
5  103 102 1 2 133  255 0 0
6  148 121 131 150 99 161  255 0 0
4  97 54 57 124  255 0 0
4  98 95 97 124  255 0 0
4  93 91 85 86  255 0 0
4  86 85 84 87  255 0 0
4  157 83 79 61  255 0 0
5  82 66 64 81 80  255 0 0
4  61 79 65 41  255 0 0
3  151 5 75  255 0 0
4  75 157 61 62  255 0 0
4  72 9 145 68  255 0 0
3  72 38 9  255 0 0
4  67 35 38 6  255 0 0
5  71 70 36 67 173  255 0 0
4  173 67 6 8  255 0 0
4  66 41 65 64  255 0 0
4  63 42 66 82  255 0 0
4  62 61 41 40  255 0 0
4  46 45 44 43  255 0 0
4  42 40 41 66  255 0 0
4  38 39 37 6  255 0 0
3  36 35 67  255 0 0
4  34 33 47 32  255 0 0
5  31 28 16 13 73  255 0 0
4  30 24 23 29  255 0 0
4  73 13 22 27  255 0 0
4  24 19 139 23  255 0 0
4  26 21 19 24  255 0 0
4  25 22 14 17  255 0 0
4  17 20 21 25  255 0 0
4  17 14 15 18  255 0 0
3  13 14 22  255 0 0
4  20 17 18 3  255 0 0
3  20 19 21  255 0 0
4  184 139 3 18  255 0 0
4  18 15 16 184  255 0 0
4  16 15 14 13  255 0 0
4  6 37 7 8  255 0 0
4  75 5 4 157  255 0 0
4  3 139 19 20  255 0 0
3  2 1 0  255 0 0

