OFF
205 173 0

-5.98856 19.9359 4.04767
-7.78175 18.7238 3.80545
-7.96766 18.5981 3.9875
8.66603 5.18023 -2.08403
8.47217 4.16333 -2.08053
8.87673 6.28552 -1.8007
8.87673 6.28552 1.77136
8.66603 5.18024 1.76646
-16.9805 17.8906 -6.54876
-16.9805 17.8907 -2.21151
-15.4975 15.7336 -6.54876
-0.314134 8.38801 3.44261
0.156113 10.8538 3.44481
0.156129 10.8537 4.04767
-0.492755 7.45131 3.98611
-7.01878 17.1831 3.98732
-5.03245 18.5227 4.04767
-5.03245 18.5227 3.70084
-5.98856 19.9359 2.04957
-5.98856 19.9359 3.74802
0.156075 10.8538 2.01186
-8.96644 20.0875 3.98768
-8.83187 20.1772 3.85647
-5.03245 18.5227 2.04371
-6.98487 21.4085 2.05569
8.47217 4.16333 -0.569418
8.66603 5.18024 -1.15942
8.47217 4.16333 1.76195
5.5675 10.2103 -1.34382
4.19921 9.73437 -0.20683
4.19921 9.73437 1.78071
5.5675 10.2103 1.78425
17.8711 -10.8906 -6.54876
17.8711 -10.8906 -1.95013
17.2107 -14.3538 -1.9382
17.2107 -14.3538 -6.54876
15.7202 -7.82691 -6.54876
15.0771 -11.2001 -6.54876
-17.923 17.2536 1.78782
-17.9711 17.2211 1.74068
-17.9711 17.1316 -2.20408
-10.2251 5.71548 1.74769
-16.5476 15.0336 -2.22386
-16.5476 15.0336 1.70888
-6.98487 21.4085 -2.29837
-8.48824 23.6305 -2.27745
-17.9711 17.1316 1.70014
-17.9711 17.2211 -2.20382
-7.89206 -16.0588 -6.54876
-10.5868 -15.6242 -6.54876
5.16078 -18.1642 -6.54876
-16.5476 15.0336 1.77998
6.07773 -18.3121 -6.54876
-16.4744 15.0824 1.78027
7.33983 -18.5156 -6.54876
-16.5476 15.0336 -6.54876
-6.98487 21.4085 -6.54876
7.33983 -18.5156 -1.98196
7.33983 -18.5156 1.66496
6.07773 -18.3121 1.66441
5.77246 -18.2628 1.66428
2.34126 7.624 -6.54876
5.16078 -18.1642 1.66401
0.392006 5.40991 -6.54876
0.392006 5.40991 1.75822
-10.5868 -15.6242 1.6572
-10.5868 -15.6242 -2.11019
3.56622 9.01538 0.544501
3.56622 9.01538 1.77697
6.33399 9.5509 -1.56242
6.33399 9.5509 1.78232
5.5675 10.2103 -6.54876
4.19921 9.73437 -6.54876
7.27929 4.19646 0.219409
7.2793 4.19646 -2.08832
9.33764 5.65669 -1.82721
9.33764 5.65669 -2.08196
5.73548 3.10126 1.75442
5.50961 2.94103 1.7535
5.50961 2.94102 -2.09379
-7.98774 -19.5536 -2.07522
-7.98774 -19.5536 -6.54876
-5.23902 -20.0049 -6.54876
1.18597 6.31175 3.36972
2.34127 7.624 1.99845
4.00271 7.92622 1.77286
0.721977 5.63987 3.98589
3.56622 9.01538 -6.54876
-10.4522 22.3031 3.98796
6.33399 9.5509 -2.11935
1.35345 6.07994 3.36158
6.33399 9.5509 -6.54876
-10.3955 22.3414 3.93245
14.5906 -13.7515 -1.95778
15.077 -11.2001 -1.96657
15.077 -11.2001 1.70445
14.5906 -13.7515 1.69314
3.49338 8.67901 -6.54876
3.49338 8.67901 0.745531
-5.6991 22.2656 -2.30838
7.27929 4.19647 1.76077
-5.98856 19.9359 -2.31223
-4.70835 20.8013 -2.32217
-5.03245 18.5227 -2.32553
-3.7513 19.3868 -2.33548
-5.03245 18.5227 -6.54876
-3.7513 19.3868 -6.54876
14.0552 -16.5597 -1.9481
14.0551 -16.5597 1.68069
2.34347 -21.2496 -2.00118
3.01182 -21.3593 -1.60034
3.01182 -21.3593 1.64813
0.918042 -21.0156 1.64725
0.918042 -21.0156 -2.0114
9.76163 5.07821 -1.85159
9.76163 5.07821 1.76725
6.43286 9.61981 -1.66018
6.43286 9.61981 1.78272
-5.6991 22.2656 -6.54876
-6.98487 21.4085 1.81754
1.53938 8.80921 -6.54876
1.53939 8.80922 1.77385
-3.09002 -23.7094 1.63142
-3.09002 -23.7094 -2.02448
5.53765 -17.9109 1.6655
6.3674 -19.1546 1.66118
9.76163 5.07821 -2.07654
3.01182 -21.3593 -6.54876
3.01182 -21.3593 -1.99639
0.918042 -21.0156 -2.85608
0.918042 -21.0156 -6.54876
3.2109 7.37441 1.52521
3.2109 7.37441 -2.12919
3.2109 7.37441 -6.54876
7.69144 3.6094 -6.54876
9.76163 5.07821 -6.54876
7.69144 3.6094 -2.08294
4.00271 7.92622 -6.54876
-12.2986 13.6222 3.93364
-14.5566 12.0993 4.00599
-14.5566 12.0993 1.76981
6.43286 9.61981 -2.11904
10.2461 -18.9844 -6.54876
10.2461 -18.9844 -1.96117
15.7202 -7.82688 -1.97819
6.43286 9.61981 -6.54876
4.44463 8.2342 1.77465
16.1223 -12.7451 -1.95267
2.73467 7.04252 -2.13069
4.44463 8.2342 -6.54876
2.96467 7.20281 1.76865
-2.8547 -23.5512 -6.54876
5.72163 -17.7872 -6.54876
10.2461 -18.9844 1.66621
-15.4469 13.5423 1.77491
-15.5078 13.5012 1.77467
-15.5078 13.5012 4.05289
-13.1992 15.0617 3.97895
-8.48824 23.6305 -6.54876
-17.9711 17.2211 -6.54876
-17.9711 17.2211 1.78763
6.56243 -19.0264 -1.98455
-8.48824 23.6305 1.82525
6.56243 -19.0264 1.66193
2.60294 -21.628 -1.99776
-7.98774 -19.5536 1.64351
6.56243 -19.0264 -6.54876
16.1223 -12.7451 -6.54876
-3.09002 -23.7094 -6.54876
-6.67577 0.484347 3.61738
-6.67577 0.484347 1.76947
-1.85933 3.84094 6.53789
2.73467 7.04252 -6.54876
-13.0675 20.5354 6.54872
3.2109 7.37441 1.76965
-5.23899 -23.7094 -6.54876
-6.67577 0.484347 1.72956
2.73467 7.04252 1.76772
-6.67577 0.484347 -2.16032
-10.6578 -2.29074 -2.17285
17.304 -14.4916 -1.93696
-4.70834 20.8013 -6.54876
-4.86745 1.74458 3.55977
-15.0778 -5.37104 -6.54876
-5.98856 19.9359 -6.54876
5.91172 2.34668 -2.08844
-5.98856 19.9359 1.81243
-15.5668 18.8461 4.09807
5.91173 2.34668 1.75143
-6.67577 0.484347 -6.54876
9.33763 5.65669 1.76922
-5.23899 -23.7094 -2.03824
-16.6458 -6.46379 -6.54876
-16.6458 -6.46379 1.68912
-16.6458 -6.46379 -2.19171
2.34127 7.624 1.76974
-6.71626 0.456132 1.72939
17.304 -14.4916 -6.54876
-5.03245 18.5227 1.80753
3.49338 8.67901 1.77547
-5.23899 -23.7094 1.62902
-8.48824 23.6305 2.06492
2.73467 7.04252 1.99604
-17.9711 17.1316 -6.54876
-17.9711 17.1316 1.78725
4  203 159 47 40  255 0 0
5  204 160 38 53 51  255 0 0
5  203 55 10 8 159  255 0 0
4  204 46 39 160  255 0 0
4  204 51 43 46  255 0 0
4  203 40 42 55  255 0 0
5  175 168 151 82 81  0 255 0
4  200 122 123 191  0 255 0
4  175 191 123 168  0 255 0
4  200 165 112 122  0 255 0
4  200 191 80 165  0 255 0
4  175 81 80 191  0 255 0
3  172 61 63  255 0 0
7  172 37 36 134 149 137 133  0 0 255
9  177 78 188 95 96 58 59 176 64  0 0 255
5  177 195 61 172 148  255 0 0
7  189 55 42 43 41 176 178  255 0 0
8  189 152 52 54 167 37 172 63  0 0 255
5  176 59 60 124 196  0 0 255
9  189 63 61 120 105 184 56 10 55  255 0 0
5  197 35 167 54 142  0 0 255
4  197 180 34 35  0 0 255
5  197 142 143 107 180  0 0 255
4  192 49 48 183  0 0 255
4  193 65 66 194  0 0 255
5  193 196 124 62 65  0 0 255
5  189 183 48 50 152  0 0 255
4  192 194 66 49  0 0 255
4  176 196 179 178  0 0 255
4  193 194 179 196  0 0 255
4  192 183 179 194  0 0 255
4  189 178 179 183  0 0 255
4  177 150 77 78  0 0 255
5  177 148 132 131 150  0 0 255
4  172 133 132 148  0 0 255
5  180 107 93 147 34  0 0 255
3  176 41 170  255 0 0
14  177 202 84 20 23 18 24 201 162 119 186 198 121 195  255 0 0
9  176 170 182 171 86 90 202 177 64  255 0 0
7  162 201 92 88 173 187 38  255 0 0
4  202 90 83 84  255 0 0
4  201 24 22 92  255 0 0
5  41 140 139 169 170  255 0 0
3  170 169 182  255 0 0
8  173 88 21 2 15 14 86 171  255 0 0
6  171 182 138 157 187 173  255 0 0
5  38 187 157 154 53  255 0 0
5  166 52 50 130 127  0 255 0
3  164 109 110  0 255 0
3  164 128 109  0 255 0
4  161 166 127 128  0 255 0
4  182 169 139 138  255 0 0
5  167 35 32 36 37  0 0 255
3  166 54 52  0 255 0
3  147 93 94  0 0 255
4  166 161 57 54  0 255 0
3  163 59 58  0 255 0
4  161 163 58 57  0 255 0
4  158 56 44 45  255 0 0
4  158 8 10 56  255 0 0
4  162 45 44 119  255 0 0
6  162 38 39 47 9 45  255 0 0
3  38 160 39  255 0 0
4  159 8 9 47  255 0 0
4  158 45 9 8  255 0 0
6  150 174 85 146 100 77  0 0 255
3  150 131 174  0 0 255
4  153 108 107 143  0 0 255
4  58 96 108 153  0 0 255
4  57 58 153 143  0 0 255
5  151 130 50 48 82  0 255 0
3  152 50 52  0 0 255
3  151 129 130  0 255 0
7  149 91 71 72 87 97 137  0 0 255
5  149 134 135 145 91  0 0 255
5  147 94 144 33 34  0 0 255
6  146 70 117 6 7 100  0 0 255
7  146 85 199 68 30 31 70  0 0 255
4  141 89 91 145  0 0 255
5  141 145 135 126 76  0 0 255
4  36 32 33 144  0 0 255
4  144 136 134 36  0 0 255
4  95 188 185 94  0 0 255
4  94 185 136 144  0 0 255
4  54 57 143 142  0 0 255
4  116 69 89 141  0 0 255
5  116 141 76 75 5  0 0 255
4  140 155 156 139  255 0 0
5  140 41 43 51 155  255 0 0
4  139 156 157 138  255 0 0
3  137 97 133  0 0 255
4  136 74 3 4  0 0 255
5  136 4 126 135 134  0 0 255
5  98 131 132 133 97  0 0 255
4  195 121 120 61  255 0 0
4  188 78 79 185  0 0 255
4  185 79 74 136  0 0 255
5  130 129 109 128 127  0 255 0
4  114 75 76 126  0 0 255
4  114 126 4 25  0 0 255
4  125 60 59 163  0 255 0
5  125 111 112 62 60  0 255 0
3  125 110 111  0 255 0
3  124 60 62  0 0 255
4  123 122 112 113  0 255 0
5  121 198 103 105 120  255 0 0
4  56 184 181 118  255 0 0
4  118 181 102 99  255 0 0
4  119 44 101 186  255 0 0
4  56 118 99 44  255 0 0
4  117 70 69 116  0 0 255
4  117 116 5 6  0 0 255
4  115 190 75 114  0 0 255
4  115 27 7 190  0 0 255
4  115 114 25 27  0 0 255
5  113 112 111 110 109  0 255 0
4  108 96 93 107  0 0 255
4  106 181 184 105  255 0 0
4  198 186 101 103  255 0 0
4  106 104 102 181  255 0 0
4  105 103 104 106  255 0 0
5  168 123 113 129 151  0 255 0
4  80 66 65 165  0 255 0
4  165 65 62 112  0 255 0
6  164 110 125 163 161 128  0 255 0
4  155 51 53 154  255 0 0
4  157 156 155 154  255 0 0
4  104 103 101 102  255 0 0
4  102 101 44 99  255 0 0
4  98 97 87 67  0 0 255
5  69 28 71 91 89  0 0 255
4  67 87 72 29  0 0 255
3  85 174 199  0 0 255
4  82 48 49 81  0 255 0
4  81 49 66 80  0 255 0
4  199 98 67 68  0 0 255
4  190 6 5 75  0 0 255
3  190 7 6  0 0 255
4  73 100 7 26  0 0 255
5  79 78 77 73 74  0 0 255
4  74 73 26 3  0 0 255
4  28 29 72 71  0 0 255
4  70 31 28 69  0 0 255
4  68 67 29 30  0 0 255
4  47 39 46 40  255 0 0
4  40 46 43 42  255 0 0
4  35 34 33 32  0 0 255
4  31 30 29 28  0 0 255
4  7 27 25 26  0 0 255
3  77 100 73  0 0 255
4  96 95 94 93  0 0 255
5  90 86 14 11 83  255 0 0
4  92 22 21 88  255 0 0
4  83 11 20 84  255 0 0
4  22 1 2 21  255 0 0
4  24 18 1 22  255 0 0
4  23 20 12 17  255 0 0
4  17 19 18 23  255 0 0
4  17 12 13 16  255 0 0
3  11 12 20  255 0 0
4  19 17 16 0  255 0 0
3  19 1 18  255 0 0
4  15 2 0 16  255 0 0
4  16 13 14 15  255 0 0
4  14 13 12 11  255 0 0
4  26 25 4 3  0 0 255
4  199 174 131 98  0 0 255
4  0 2 1 19  255 0 0
3  129 113 109  0 255 0
8  64 177 148 172 63 189 178 176  255 0 0
8  177 64 176 178 189 63 172 148  0 0 255
12  66 49 48 50 52 54 57 58 59 60 62 65  0 255 0
12  49 66 65 62 60 59 58 57 54 52 50 48  0 0 255

