OFF
216 225 0

6.33399 9.5509 -1.56242
6.33399 9.5509 1.78232
6.33399 9.5509 -2.11935
6.33399 9.5509 -6.54876
4.44463 8.2342 -6.54876
4.00271 7.92622 -6.54876
3.2109 7.37441 -6.54876
3.2109 7.37441 -2.12919
3.2109 7.37441 1.52521
3.2109 7.37441 1.76965
4.00271 7.92622 1.77286
4.44463 8.2342 1.77465
9.33764 5.65669 -1.82721
8.66603 5.18023 -2.08403
5.50962 2.94101 -6.54876
7.2793 4.19645 -6.54876
9.33764 5.65668 -6.54876
9.33764 5.65669 -2.08196
9.33763 5.65669 1.76922
8.66603 5.18024 1.76646
8.66603 5.18024 -1.15942
7.2793 4.19646 -2.08832
5.50961 2.94102 -2.09379
5.91172 2.34668 -2.08844
15.077 -11.2001 -1.96657
-13.4072 -11.3602 -2.14813
-10.5868 -15.6242 -2.11019
7.33983 -18.5156 -1.98196
10.2461 -18.9844 -1.96117
14.0552 -16.5597 -1.9481
14.5906 -13.7515 -1.95778
2.73467 7.04252 1.76772
5.91172 2.34668 -6.54876
2.73467 7.04252 -6.54876
2.73467 7.04252 -2.13069
5.50961 2.94103 1.7535
-13.4072 -11.3602 -6.54876
-11.812 -10.2284 -6.54876
-3.43825 -4.28718 -6.54876
7.69144 3.6094 -6.54876
7.69144 3.6094 -2.08294
5.91173 2.34668 1.75143
-3.43825 -4.28718 1.71302
-3.51523 -4.3418 1.7127
-13.4072 -11.3602 1.67206
0.918042 -21.0156 -2.0114
-7.98774 -19.5536 1.64351
0.918042 -21.0156 1.64725
-7.98774 -19.5536 -2.07522
-7.98774 -19.5536 -6.54876
3.01182 -21.3593 -1.99639
-15.4469 13.5423 1.77491
-17.923 17.2536 1.78782
-16.4744 15.0824 1.78027
-17.9711 17.2211 1.74068
-17.9711 17.1316 1.70014
-16.5476 15.0336 1.70888
-10.2251 5.71548 1.74769
-6.67577 0.484347 1.76947
-4.86745 1.74458 3.55977
-5.03245 18.5227 2.04371
0.156075 10.8538 2.01186
-5.98856 19.9359 2.04957
-7.78175 18.7238 3.80545
-7.96766 18.5981 3.9875
-7.01878 17.1831 3.98732
-0.492755 7.45131 3.98611
-0.314134 8.38801 3.44261
-7.89206 -16.0588 -6.54876
-10.5868 -15.6242 -6.54876
5.16078 -18.1642 -6.54876
6.07773 -18.3121 -6.54876
7.33983 -18.5156 -6.54876
7.33983 -18.5156 1.66496
6.07773 -18.3121 1.66441
5.77246 -18.2628 1.66428
5.16078 -18.1642 1.66401
-10.5868 -15.6242 1.6572
0.392006 5.40991 -6.54876
-6.67577 0.484347 -6.54876
-6.67577 0.484347 -2.16032
-6.67577 0.484347 1.72956
0.392006 5.40991 1.75822
2.34347 -21.2496 -2.00118
0.918042 -21.0156 -2.85608
-5.98856 19.9359 3.74802
-5.98856 19.9359 4.04767
3.49338 8.67901 0.745531
3.49338 8.67901 1.77547
8.47217 4.16333 -2.08053
8.47217 4.16333 -0.569418
8.87673 6.28552 -1.8007
8.87673 6.28552 1.77136
-16.9805 17.8906 -6.54876
-16.9805 17.8907 -2.21151
-15.4975 15.7336 -6.54876
0.156113 10.8538 3.44481
0.156129 10.8537 4.04767
-5.03245 18.5227 4.04767
-5.03245 18.5227 3.70084
-8.96644 20.0875 3.98768
-8.83187 20.1772 3.85647
-6.98487 21.4085 2.05569
1.18597 6.31175 3.36972
2.34127 7.624 1.99845
0.721977 5.63987 3.98589
-10.4522 22.3031 3.98796
1.35345 6.07994 3.36158
-10.3955 22.3414 3.93245
15.077 -11.2001 1.70445
14.5906 -13.7515 1.69314
7.27929 4.19646 0.219409
7.27929 4.19647 1.76077
5.73548 3.10126 1.75442
8.47217 4.16333 1.76195
5.5675 10.2103 -1.34382
4.19921 9.73437 -0.20683
4.19921 9.73437 1.78071
5.5675 10.2103 1.78425
17.8711 -10.8906 -6.54876
17.8711 -10.8906 -1.95013
17.2107 -14.3538 -1.9382
17.2107 -14.3538 -6.54876
15.7202 -7.82691 -6.54876
15.0771 -11.2001 -6.54876
-17.9711 17.1316 -2.20408
-16.5476 15.0336 -2.22386
-6.98487 21.4085 -2.29837
-8.48824 23.6305 -2.27745
-17.9711 17.2211 -2.20382
-16.5476 15.0336 1.77998
-16.5476 15.0336 -6.54876
-6.98487 21.4085 -6.54876
2.34126 7.624 -6.54876
3.56622 9.01538 0.544501
3.56622 9.01538 1.77697
5.5675 10.2103 -6.54876
4.19921 9.73437 -6.54876
-5.23902 -20.0049 -6.54876
3.56622 9.01538 -6.54876
3.49338 8.67901 -6.54876
-5.6991 22.2656 -2.30838
-5.98856 19.9359 -2.31223
-4.70835 20.8013 -2.32217
-5.03245 18.5227 -2.32553
-3.7513 19.3868 -2.33548
-15.5078 13.5012 1.77467
-15.5078 13.5012 4.05289
-13.1992 15.0617 3.97895
6.56243 -19.0264 -1.98455
6.56243 -19.0264 1.66193
6.3674 -19.1546 1.66118
3.01182 -21.3593 -1.60034
2.60294 -21.628 -1.99776
-2.8547 -23.5512 -6.54876
-3.09002 -23.7094 -2.02448
-3.09002 -23.7094 -6.54876
-4.70834 20.8013 -6.54876
-5.98856 19.9359 -6.54876
-5.98856 19.9359 1.81243
-3.7513 19.3868 -6.54876
-5.03245 18.5227 -6.54876
-5.03245 18.5227 1.80753
14.0551 -16.5597 1.68069
3.01182 -21.3593 1.64813
5.72163 -17.7872 -6.54876
6.56243 -19.0264 -6.54876
-13.0675 20.5354 6.54872
2.34127 7.624 1.76974
9.76163 5.07821 -2.07654
0.918042 -21.0156 -6.54876
9.76163 5.07821 -6.54876
-5.23899 -23.7094 -6.54876
10.2461 -18.9844 -6.54876
15.7202 -7.82688 -1.97819
6.43286 9.61981 -6.54876
6.43286 9.61981 -2.11904
16.1223 -12.7451 -1.95267
10.2461 -18.9844 1.66621
9.76163 5.07821 -1.85159
2.96467 7.20281 1.76865
9.76163 5.07821 1.76725
6.43286 9.61981 -1.66018
6.43286 9.61981 1.78272
-5.6991 22.2656 -6.54876
-8.48824 23.6305 -6.54876
-6.98487 21.4085 1.81754
-17.9711 17.2211 -6.54876
-17.9711 17.2211 1.78763
-8.48824 23.6305 1.82525
1.53938 8.80921 -6.54876
1.53939 8.80922 1.77385
-3.09002 -23.7094 1.63142
5.53765 -17.9109 1.6655
16.1223 -12.7451 -6.54876
-6.67577 0.484347 3.61738
-15.5668 18.8461 4.09807
3.01182 -21.3593 -6.54876
-5.23899 -23.7094 -2.03824
-10.6578 -2.29074 -2.17285
-16.6458 -6.46379 -2.19171
-1.85933 3.84094 6.53789
-8.48824 23.6305 2.06492
2.73467 7.04252 1.99604
17.304 -14.4916 -1.93696
-16.6458 -6.46379 -6.54876
-16.6458 -6.46379 1.68912
17.304 -14.4916 -6.54876
-5.23899 -23.7094 1.62902
-15.0778 -5.37104 -6.54876
-6.71626 0.456132 1.72939
-12.2986 13.6222 3.93364
-14.5566 12.0993 4.00599
-17.9711 17.1316 1.78725
-14.5566 12.0993 1.76981
-17.9711 17.1316 -6.54876
4  215 187 129 125  255 0 0
5  213 188 52 53 130  255 127 0
5  215 131 95 93 187  255 0 0
4  213 55 54 188  255 127 0
4  213 130 56 55  255 127 0
4  215 125 126 131  255 0 0
5  172 156 154 138 49  255 255 0
4  208 192 155 198  255 255 0
4  172 198 155 156  255 255 0
4  208 46 47 192  255 255 0
4  208 198 48 46  255 255 0
4  172 49 48 198  255 255 0
3  33 133 78  255 0 0
6  33 14 15 4 5 6  127 255 0
6  31 35 41 42 81 82  0 255 0
5  31 168 133 33 34  255 0 0
7  79 131 126 56 57 81 80  255 0 0
6  79 38 32 14 33 78  0 255 0
4  81 42 43 210  0 255 0
9  79 78 133 190 161 158 132 95 131  255 0 0
5  207 122 194 72 173  0 255 127
4  207 204 121 122  0 255 127
5  207 173 28 29 204  0 255 127
4  205 36 37 209  0 255 0
4  206 44 25 200  0 255 0
4  206 210 43 44  0 255 0
4  79 209 37 38  0 255 0
4  205 200 25 36  0 255 0
4  81 210 199 80  0 255 0
4  206 200 199 210  0 255 0
4  205 209 199 200  0 255 0
4  79 80 199 209  0 255 0
4  31 180 113 35  127 255 0
5  31 34 7 8 180  127 255 0
4  33 6 7 34  127 255 0
5  204 29 30 177 121  0 255 127
3  81 57 58  255 0 0
14  31 203 104 61 60 62 102 202 189 186 159 162 191 168  255 0 0
9  81 58 59 201 105 107 203 31 82  255 0 0
7  189 202 108 106 167 196 52  255 0 0
4  203 107 103 104  255 0 0
4  202 102 101 108  255 0 0
5  57 214 212 195 58  255 127 0
3  58 195 59  255 127 0
8  167 106 100 64 65 66 105 201  255 0 0
6  201 59 211 148 196 167  255 0 0
5  52 196 148 51 53  255 0 0
5  166 71 70 170 197  0 255 255
3  153 83 152  0 255 255
3  153 50 83  0 255 255
4  149 166 197 50  0 255 255
4  59 195 212 211  255 127 0
7  194 124 32 38 165 71 72  0 255 127
5  194 122 119 123 124  0 255 127
3  166 72 71  0 255 255
3  177 30 24  0 255 127
4  166 149 27 72  0 255 255
3  150 74 73  0 255 255
4  149 150 73 27  0 255 255
4  185 132 127 128  255 0 0
4  185 93 95 132  255 0 0
4  189 128 127 186  255 0 0
6  189 52 54 129 94 128  255 0 0
3  52 188 54  255 127 0
4  187 93 94 129  255 0 0
4  185 128 94 93  255 0 0
6  180 9 10 11 112 113  127 255 0
3  180 8 9  127 255 0
4  178 163 29 28  0 127 255
4  73 110 163 178  0 127 255
4  27 73 178 28  0 127 255
5  165 38 37 68 70  0 255 127
3  154 170 138  255 255 0
3  165 70 71  0 255 127
3  154 84 170  255 255 0
7  4 3 136 137 139 140 5  0 0 255
5  4 15 16 175 3  127 255 0
5  177 24 174 120 121  0 255 127
6  11 1 183 92 19 112  127 255 0
7  11 10 88 135 117 118 1  0 0 255
4  176 2 3 175  127 255 0
4  176 175 16 17  127 255 0
4  123 119 120 174  0 255 127
4  123 39 32 124  0 255 127
4  174 40 39 123  0 255 127
4  109 41 23 24  0 127 255
4  24 23 40 174  0 255 127
4  72 27 28 173  0 255 127
4  182 0 2 176  127 255 0
5  182 176 17 12 91  127 255 0
4  214 146 147 212  255 127 0
5  214 57 56 130 146  255 127 0
4  212 147 148 211  255 127 0
3  5 140 6  0 0 255
4  171 16 15 39  127 0 255
4  169 17 16 171  127 0 255
4  40 21 13 89  127 0 255
4  39 15 14 32  127 0 255
5  40 89 169 171 39  127 0 255
5  87 8 7 6 140  0 0 255
4  168 191 190 133  255 0 0
6  41 109 110 73 74 42  0 127 255
4  41 35 22 23  0 255 0
4  23 22 21 40  127 0 255
4  170 70 68 138  0 255 255
5  170 84 83 50 197  0 255 255
4  179 12 17 169  127 0 255
4  179 169 89 90  127 0 255
4  151 75 74 150  0 255 255
5  151 164 47 76 75  0 255 255
3  151 152 164  0 255 255
3  193 75 76  0 127 255
5  193 43 42 74 75  0 127 255
5  193 76 77 44 43  0 127 255
4  155 192 47 45  255 255 0
5  191 162 144 161 190  255 0 0
4  132 158 157 184  255 0 255
4  184 157 143 141  255 0 255
4  186 127 142 159  255 0 0
4  132 184 141 127  255 0 255
4  183 1 0 182  127 255 0
4  183 182 91 92  127 255 0
4  181 18 12 179  127 0 255
4  181 114 19 18  127 0 255
4  181 179 90 114  127 0 255
5  45 47 164 152 83  0 255 255
4  163 110 30 29  0 127 255
4  160 157 158 161  255 0 255
4  162 159 142 144  255 0 0
4  160 145 143 157  255 0 255
4  161 144 145 160  255 0 255
5  156 155 45 84 154  255 255 0
4  48 26 77 46  0 255 255
4  46 77 76 47  0 255 255
3  153 152 50  0 255 255
5  152 151 150 149 50  0 255 255
4  146 130 53 51  255 127 0
4  148 147 146 51  255 127 0
4  145 144 142 143  255 0 255
4  143 142 127 141  255 0 255
4  87 140 139 134  0 0 255
5  0 115 136 3 2  0 0 255
4  134 139 137 116  0 0 255
3  10 9 88  0 0 255
4  138 68 69 49  0 255 255
4  49 69 26 48  0 255 255
4  88 87 134 135  0 0 255
4  18 92 91 12  127 255 0
3  18 19 92  127 255 0
4  111 112 19 20  127 255 0
5  22 35 113 111 21  127 255 0
4  21 111 20 13  127 255 0
4  115 116 137 136  0 0 255
4  1 118 115 0  0 0 255
4  135 134 116 117  0 0 255
4  129 54 55 125  255 0 0
4  125 55 56 126  255 0 0
4  122 121 120 119  0 255 127
4  118 117 116 115  0 0 255
4  19 114 90 20  127 0 255
3  113 112 111  127 255 0
4  110 109 24 30  0 127 255
5  107 105 66 67 103  255 0 0
4  108 101 100 106  255 0 0
4  103 67 61 104  255 0 0
4  101 63 64 100  255 0 0
4  102 62 63 101  255 0 0
4  60 61 96 99  255 0 127
4  99 85 62 60  255 0 127
4  99 96 97 98  255 0 127
3  67 96 61  255 0 127
4  85 99 98 86  255 0 127
3  85 63 62  255 0 127
4  65 64 86 98  255 0 127
4  98 97 66 65  255 0 127
4  66 97 96 67  255 0 127
4  20 90 89 13  127 0 255
4  88 9 8 87  0 0 255
4  86 64 63 85  255 0 127
3  84 45 83  0 255 255
8  82 31 34 33 78 79 80 81  255 0 0
8  31 82 81 80 79 78 33 34  0 255 0
4  69 36 25 26  0 255 127
4  26 25 44 77  0 127 255
4  68 37 36 69  0 255 127
7  26 69 68 70 71 72 27  0 255 255
7  69 26 27 72 71 70 68  0 255 127
7  77 26 27 73 74 75 76  0 255 255
7  26 77 76 75 74 73 27  0 127 255
6  142 144 161 158 132 127  255 0 255
6  144 142 127 132 158 161  255 0 0
8  67 61 60 62 63 64 65 66  255 0 127
8  61 67 66 65 64 63 62 60  255 0 0
6  58 59 211 148 51 57  255 127 0
6  59 58 57 51 148 211  255 0 0
7  56 57 51 53 52 54 55  255 127 0
7  57 56 55 54 52 53 51  255 0 0
8  48 49 138 170 84 45 47 46  255 255 0
8  49 48 46 47 45 84 170 138  0 255 255
3  25 36 23  0 255 127
3  36 25 23  0 255 0
6  44 25 23 41 42 43  0 127 255
6  25 44 43 42 41 23  0 255 0
4  40 23 32 39  0 255 127
4  23 40 39 32  127 0 255
5  38 32 23 36 37  0 255 127
5  32 38 37 36 23  0 255 0
3  23 32 22  127 0 255
3  32 23 22  0 255 0
3  35 22 31  127 255 0
3  22 35 31  0 255 0
5  34 31 22 14 33  127 255 0
5  31 34 33 14 22  0 255 0
3  32 14 22  127 0 255
3  32 22 14  0 255 0
8  30 24 23 25 26 27 28 29  0 127 255
8  24 30 29 28 27 26 25 23  0 255 127
4  22 14 13 21  127 0 255
4  14 22 21 13  127 255 0
5  20 13 12 18 19  127 0 255
5  13 20 19 18 12  127 255 0
6  17 12 13 14 15 16  127 0 255
6  12 17 16 15 14 13  127 255 0
12  11 1 0 2 3 4 5 6 7 8 9 10  0 0 255
12  1 11 10 9 8 7 6 5 4 3 2 0  127 255 0

