OFF
218 231 0

8.66602 5.18022 -6.54876
8.66603 5.18023 -2.08403
8.47217 4.16333 -6.54876
8.47217 4.16333 -2.08053
6.33399 9.5509 -1.56242
6.33399 9.5509 1.78232
6.33399 9.5509 -2.11935
6.33399 9.5509 -6.54876
4.44463 8.2342 -6.54876
4.00271 7.92622 -6.54876
3.2109 7.37441 -6.54876
3.2109 7.37441 -2.12919
3.2109 7.37441 1.52521
3.2109 7.37441 1.76965
4.00271 7.92622 1.77286
4.44463 8.2342 1.77465
9.33764 5.65669 -1.82721
5.50962 2.94101 -6.54876
7.2793 4.19645 -6.54876
9.33764 5.65668 -6.54876
9.33764 5.65669 -2.08196
9.33763 5.65669 1.76922
8.66603 5.18024 1.76646
8.66603 5.18024 -1.15942
7.2793 4.19646 -2.08832
5.50961 2.94102 -2.09379
5.91172 2.34668 -2.08844
15.077 -11.2001 -1.96657
-13.4072 -11.3602 -2.14813
-10.5868 -15.6242 -2.11019
7.33983 -18.5156 -1.98196
10.2461 -18.9844 -1.96117
14.0552 -16.5597 -1.9481
14.5906 -13.7515 -1.95778
2.73467 7.04252 1.76772
5.91172 2.34668 -6.54876
2.73467 7.04252 -6.54876
2.73467 7.04252 -2.13069
5.50961 2.94103 1.7535
-13.4072 -11.3602 -6.54876
-11.812 -10.2284 -6.54876
-3.43825 -4.28718 -6.54876
7.69144 3.6094 -6.54876
7.69144 3.6094 -2.08294
5.91173 2.34668 1.75143
-3.43825 -4.28718 1.71302
-3.51523 -4.3418 1.7127
-13.4072 -11.3602 1.67206
-5.23902 -20.0049 -6.54876
-7.98774 -19.5536 -6.54876
0.918042 -21.0156 -6.54876
0.918042 -21.0156 -2.85608
0.918042 -21.0156 -2.0114
0.918042 -21.0156 1.64725
-7.98774 -19.5536 1.64351
-7.98774 -19.5536 -2.07522
3.01182 -21.3593 -1.99639
3.01182 -21.3593 -1.60034
-15.4469 13.5423 1.77491
-10.2251 5.71548 1.74769
-12.2986 13.6222 3.93364
-4.86745 1.74458 3.55977
-13.1992 15.0617 3.97895
-16.4744 15.0824 1.78027
-17.923 17.2536 1.78782
-17.9711 17.2211 1.74068
-17.9711 17.1316 1.70014
-16.5476 15.0336 1.70888
-6.67577 0.484347 1.76947
-5.03245 18.5227 2.04371
0.156075 10.8538 2.01186
-5.98856 19.9359 2.04957
-7.78175 18.7238 3.80545
-7.96766 18.5981 3.9875
-7.01878 17.1831 3.98732
-0.492755 7.45131 3.98611
-0.314134 8.38801 3.44261
-7.89206 -16.0588 -6.54876
-10.5868 -15.6242 -6.54876
5.16078 -18.1642 -6.54876
6.07773 -18.3121 -6.54876
7.33983 -18.5156 -6.54876
7.33983 -18.5156 1.66496
6.07773 -18.3121 1.66441
5.77246 -18.2628 1.66428
5.16078 -18.1642 1.66401
-10.5868 -15.6242 1.6572
2.34347 -21.2496 -2.00118
-5.98856 19.9359 3.74802
0.156113 10.8538 3.44481
0.156129 10.8537 4.04767
-5.03245 18.5227 4.04767
-5.03245 18.5227 3.70084
-8.96644 20.0875 3.98768
-8.83187 20.1772 3.85647
-6.98487 21.4085 2.05569
1.18597 6.31175 3.36972
2.34127 7.624 1.99845
0.721977 5.63987 3.98589
-10.4522 22.3031 3.98796
1.35345 6.07994 3.36158
-10.3955 22.3414 3.93245
15.077 -11.2001 1.70445
14.5906 -13.7515 1.69314
7.27929 4.19646 0.219409
7.27929 4.19647 1.76077
5.73548 3.10126 1.75442
8.47217 4.16333 -0.569418
8.47217 4.16333 1.76195
5.5675 10.2103 -1.34382
4.19921 9.73437 -0.20683
4.19921 9.73437 1.78071
5.5675 10.2103 1.78425
17.8711 -10.8906 -6.54876
17.8711 -10.8906 -1.95013
17.2107 -14.3538 -1.9382
17.2107 -14.3538 -6.54876
15.7202 -7.82691 -6.54876
15.0771 -11.2001 -6.54876
-17.9711 17.1316 -2.20408
-16.5476 15.0336 -2.22386
-6.98487 21.4085 -2.29837
-8.48824 23.6305 -2.27745
-17.9711 17.2211 -2.20382
-16.5476 15.0336 1.77998
-16.5476 15.0336 -6.54876
-6.98487 21.4085 -6.54876
2.34126 7.624 -6.54876
0.392006 5.40991 -6.54876
0.392006 5.40991 1.75822
3.56622 9.01538 0.544501
3.56622 9.01538 1.77697
5.5675 10.2103 -6.54876
4.19921 9.73437 -6.54876
3.49338 8.67901 0.745531
3.49338 8.67901 1.77547
3.56622 9.01538 -6.54876
3.49338 8.67901 -6.54876
-5.6991 22.2656 -2.30838
-5.98856 19.9359 -2.31223
-4.70835 20.8013 -2.32217
-5.03245 18.5227 -2.32553
-3.7513 19.3868 -2.33548
-5.98856 19.9359 -6.54876
-5.98856 19.9359 1.81243
-4.70834 20.8013 -6.54876
-3.7513 19.3868 -6.54876
-5.03245 18.5227 -6.54876
-5.03245 18.5227 1.80753
14.0551 -16.5597 1.68069
3.01182 -21.3593 1.64813
9.76163 5.07821 -1.85159
9.76163 5.07821 1.76725
6.43286 9.61981 -1.66018
6.43286 9.61981 1.78272
-5.6991 22.2656 -6.54876
-6.98487 21.4085 1.81754
1.53938 8.80921 -6.54876
1.53939 8.80922 1.77385
-3.09002 -23.7094 1.63142
-3.09002 -23.7094 -2.02448
5.53765 -17.9109 1.6655
6.3674 -19.1546 1.66118
9.76163 5.07821 -2.07654
3.01182 -21.3593 -6.54876
2.34127 7.624 1.76974
9.76163 5.07821 -6.54876
-14.5566 12.0993 4.00599
-14.5566 12.0993 1.76981
6.43286 9.61981 -2.11904
10.2461 -18.9844 -6.54876
15.7202 -7.82688 -1.97819
6.43286 9.61981 -6.54876
16.1223 -12.7451 -1.95267
2.96467 7.20281 1.76865
-2.8547 -23.5512 -6.54876
5.72163 -17.7872 -6.54876
-6.71626 0.456132 1.72939
10.2461 -18.9844 1.66621
-15.0778 -5.37104 -6.54876
-5.23899 -23.7094 -6.54876
-5.23899 -23.7094 1.62902
-6.67577 0.484347 -6.54876
-16.6458 -6.46379 -6.54876
-16.6458 -6.46379 1.68912
-6.67577 0.484347 1.72956
-17.9711 17.1316 -6.54876
-17.9711 17.1316 1.78725
-8.48824 23.6305 -6.54876
17.304 -14.4916 -6.54876
-17.9711 17.2211 -6.54876
-17.9711 17.2211 1.78763
-8.48824 23.6305 1.82525
-5.23899 -23.7094 -2.03824
16.1223 -12.7451 -6.54876
6.56243 -19.0264 1.66193
6.56243 -19.0264 -1.98455
-6.67577 0.484347 -2.16032
-16.6458 -6.46379 -2.19171
-6.67577 0.484347 3.61738
6.56243 -19.0264 -6.54876
-15.5668 18.8461 4.09807
2.60294 -21.628 -1.99776
-5.98856 19.9359 4.04767
-13.0675 20.5354 6.54872
-16.9805 17.8907 -2.21151
17.304 -14.4916 -1.93696
-16.9805 17.8906 -6.54876
-3.09002 -23.7094 -6.54876
-15.4975 15.7336 -6.54876
-15.5078 13.5012 1.77467
-15.5078 13.5012 4.05289
-1.85933 3.84094 6.53789
-8.48824 23.6305 2.06492
8.87673 6.28552 -1.8007
2.73467 7.04252 1.99604
8.87673 6.28552 1.77136
-10.6578 -2.29074 -2.17285
4  186 190 123 119  255 0 0
5  187 191 64 63 124  255 117 0
5  186 125 209 207 190  255 0 0
4  187 66 65 191  255 117 0
4  187 124 67 66  255 117 0
4  186 119 120 125  255 0 0
5  180 208 175 48 49  255 235 0
4  181 159 160 193  255 235 0
4  180 193 160 208  255 235 0
4  181 54 53 159  255 235 0
4  181 193 55 54  255 235 0
4  180 49 55 193  255 235 0
3  36 127 128  255 0 0
6  36 17 18 8 9 10  156 255 0
6  34 38 44 45 185 129  39 255 0
5  34 165 127 36 37  255 0 0
7  182 125 120 67 59 185 197  255 0 0
6  182 41 35 17 36 128  39 255 0
4  185 45 46 177  39 255 0
9  182 128 127 157 147 143 126 209 125  255 0 0
5  189 116 194 81 170  0 255 78
4  189 206 115 116  0 255 78
5  189 170 31 32 206  0 255 78
4  183 39 40 179  39 255 0
4  184 47 28 198  39 255 0
4  184 177 46 47  39 255 0
4  182 179 40 41  39 255 0
4  183 198 28 39  39 255 0
4  185 177 217 197  39 255 0
4  184 198 217 177  39 255 0
4  183 179 217 198  39 255 0
4  182 197 217 179  39 255 0
4  34 174 106 38  156 255 0
5  34 37 11 12 174  156 255 0
4  36 10 11 37  156 255 0
5  206 32 33 173 115  0 255 78
3  185 59 68  255 0 0
14  34 215 97 70 69 71 95 213 192 156 144 148 158 165  255 0 0
9  185 68 61 212 98 100 215 34 129  255 0 0
7  192 213 101 99 204 201 64  255 0 0
4  215 100 96 97  255 0 0
4  213 95 94 101  255 0 0
5  59 168 167 199 68  255 117 0
3  68 199 61  255 117 0
8  204 99 93 73 74 75 98 212  255 0 0
6  212 61 60 62 201 204  255 0 0
5  64 201 62 58 63  255 0 0
5  200 80 79 50 164  0 255 196
3  202 87 57  0 255 196
3  202 56 87  0 255 196
4  196 200 164 56  0 255 196
4  61 199 167 60  255 117 0
7  194 118 35 41 176 80 81  0 255 78
5  194 116 113 117 118  0 255 78
3  200 81 80  0 255 196
3  173 33 27  0 255 78
4  200 196 30 81  0 255 196
3  195 83 82  0 255 196
4  196 195 82 30  0 255 196
4  188 126 121 122  255 0 0
4  188 207 209 126  255 0 0
4  192 122 121 156  255 0 0
6  192 64 65 123 205 122  255 0 0
3  64 191 65  255 117 0
4  190 207 205 123  255 0 0
4  188 122 205 207  255 0 0
6  174 13 14 15 105 106  156 255 0
3  174 12 13  156 255 0
4  178 149 32 31  0 196 255
4  82 103 149 178  0 196 255
4  30 82 178 31  0 196 255
5  176 41 40 77 79  0 255 78
3  175 50 48  255 235 0
3  176 79 80  0 255 78
3  175 51 50  255 235 0
7  8 7 132 133 136 137 9  0 78 255
6  8 18 0 19 172 7  156 255 0
5  173 27 171 114 115  0 255 78
6  15 5 154 216 22 105  156 255 0
7  15 14 135 131 111 112 5  0 78 255
4  169 6 7 172  156 255 0
4  169 172 19 20  156 255 0
4  117 113 114 171  0 255 78
4  117 42 35 118  0 255 78
4  171 43 42 117  0 255 78
4  102 44 26 27  0 196 255
4  27 26 43 171  0 255 78
4  81 30 31 170  0 255 78
4  153 4 6 169  156 255 0
5  153 169 20 16 214  156 255 0
4  168 210 211 167  255 117 0
5  168 59 67 124 210  255 117 0
4  167 211 62 60  255 117 0
3  9 137 10  0 78 255
4  166 19 0 2  39 0 255
4  163 20 19 166  39 0 255
4  43 24 1 3  156 0 255
4  42 18 17 35  156 0 255
4  42 2 0 18  156 0 255
4  43 3 2 42  156 0 255
4  163 166 2 3  39 0 255
5  134 12 11 10 137  0 78 255
4  165 158 157 127  255 0 0
6  44 102 103 82 83 45  0 196 255
4  44 38 25 26  39 255 0
4  26 25 24 43  156 0 255
4  50 79 77 48  0 255 196
5  50 51 87 56 164  0 255 196
4  151 16 20 163  39 0 255
4  151 163 3 107  39 0 255
4  162 84 83 195  0 255 196
5  162 150 53 85 84  0 255 196
3  162 57 150  0 255 196
3  161 84 85  0 196 255
5  161 46 45 83 84  0 196 255
5  161 85 86 47 46  0 196 255
4  160 159 53 52  255 235 0
5  158 148 141 147 157  255 0 0
4  126 143 145 155  255 0 235
4  155 145 140 138  255 0 235
4  156 121 139 144  255 0 0
4  126 155 138 121  255 0 235
4  154 5 4 153  156 255 0
4  154 153 214 216  156 255 0
4  152 21 16 151  39 0 255
4  152 108 22 21  39 0 255
4  152 151 107 108  39 0 255
5  52 53 150 57 87  0 255 196
4  149 103 33 32  0 196 255
4  146 145 143 147  255 0 235
4  148 144 139 141  255 0 0
4  146 142 140 145  255 0 235
4  147 141 142 146  255 0 235
5  208 160 52 51 175  255 235 0
4  55 29 86 54  0 255 196
4  54 86 85 53  0 255 196
3  202 57 56  0 255 196
5  57 162 195 196 56  0 255 196
4  210 124 63 58  255 117 0
4  62 211 210 58  255 117 0
4  142 141 139 140  255 0 235
4  140 139 121 138  255 0 235
4  134 137 136 130  0 78 255
5  4 109 132 7 6  0 78 255
4  130 136 133 110  0 78 255
3  14 13 135  0 78 255
4  48 77 78 49  0 255 196
4  49 78 29 55  0 255 196
4  135 134 130 131  0 78 255
4  21 216 214 16  156 255 0
3  21 22 216  156 255 0
4  104 105 22 23  156 255 0
5  25 38 106 104 24  156 255 0
4  24 104 23 1  156 255 0
4  109 110 133 132  0 78 255
4  5 112 109 4  0 78 255
4  131 130 110 111  0 78 255
4  123 65 66 119  255 0 0
4  119 66 67 120  255 0 0
4  116 115 114 113  0 255 78
4  112 111 110 109  0 78 255
4  22 108 107 23  39 0 255
3  106 105 104  156 255 0
4  103 102 27 33  0 196 255
5  100 98 75 76 96  255 0 0
4  101 94 93 99  255 0 0
4  96 76 70 97  255 0 0
4  94 72 73 93  255 0 0
4  95 71 72 94  255 0 0
4  69 70 89 92  255 0 117
4  92 88 71 69  255 0 117
4  92 89 90 91  255 0 117
3  76 89 70  255 0 117
4  88 92 91 203  255 0 117
3  88 72 71  255 0 117
4  74 73 203 91  255 0 117
4  91 90 75 74  255 0 117
4  75 90 89 76  255 0 117
4  23 107 3 1  39 0 255
4  135 13 12 134  0 78 255
4  203 73 72 88  255 0 117
3  51 52 87  0 255 196
8  129 34 37 36 128 182 197 185  255 0 0
8  34 129 185 197 182 128 36 37  39 255 0
4  78 39 28 29  0 255 78
4  29 28 47 86  0 196 255
4  77 40 39 78  0 255 78
7  29 78 77 79 80 81 30  0 255 196
7  78 29 30 81 80 79 77  0 255 78
7  86 29 30 82 83 84 85  0 255 196
7  29 86 85 84 83 82 30  0 196 255
6  139 141 147 143 126 121  255 0 235
6  141 139 121 126 143 147  255 0 0
8  76 70 69 71 72 73 74 75  255 0 117
8  70 76 75 74 73 72 71 69  255 0 0
6  68 61 60 62 58 59  255 117 0
6  61 68 59 58 62 60  255 0 0
7  67 59 58 63 64 65 66  255 117 0
7  59 67 66 65 64 63 58  255 0 0
8  55 49 48 50 51 52 53 54  255 235 0
8  49 55 54 53 52 51 50 48  0 255 196
3  28 39 26  0 255 78
3  39 28 26  39 255 0
6  47 28 26 44 45 46  0 196 255
6  28 47 46 45 44 26  39 255 0
4  43 26 35 42  0 255 78
4  26 43 42 35  156 0 255
5  41 35 26 39 40  0 255 78
5  35 41 40 39 26  39 255 0
3  26 35 25  156 0 255
3  35 26 25  39 255 0
3  38 25 34  156 255 0
3  25 38 34  39 255 0
5  37 34 25 17 36  156 255 0
5  34 37 36 17 25  39 255 0
3  35 17 25  156 0 255
3  35 25 17  39 255 0
8  33 27 26 28 29 30 31 32  0 196 255
8  27 33 32 31 30 29 28 26  0 255 78
4  25 17 1 24  156 0 255
4  17 25 24 1  156 255 0
5  23 1 16 21 22  39 0 255
5  1 23 22 21 16  156 255 0
5  20 16 1 0 19  39 0 255
5  16 20 19 0 1  156 255 0
4  18 0 1 17  156 0 255
4  18 17 1 0  156 255 0
12  15 5 4 6 7 8 9 10 11 12 13 14  0 78 255
12  5 15 14 13 12 11 10 9 8 7 6 4  156 255 0
4  3 1 0 2  156 0 255
4  1 3 2 0  39 0 255

