COFF
641 1098 0

10.2461 -18.9844 1.66621
7.33984 -18.5156 1.66496
3.01172 -21.3594 1.64813
0.917969 -21.0156 1.64725
-2.94141 -23.6094 1.63201
-5.51172 -23.2969 1.63046
-16.0742 -7.32812 1.68611
-15.2852 -5.51562 1.69464
-6.67578 0.484375 1.72956
3.51172 7.60938 1.77098
3.36328 8.07812 1.77279
3.56641 9.01562 1.77697
4.19922 9.73438 1.78071
5.09766 10.0469 1.78303
6.01172 9.82812 1.78313
6.73828 9.20312 1.7813
9.76172 5.07812 1.76725
-8.51953 23.6094 2.09557
-7.01172 21.3906 2.08186
2.74609 7.07812 1.97225
-17.8711 16.9844 1.70078
-17.7383 17.0781 1.83282
-17.793 17.1719 1.83844
-16.8945 17.7656 2.71326
-16.9805 17.8906 2.71199
17.8711 -10.8906 -1.95013
17.168 -14.5781 -1.93743
7.69141 3.60938 -2.08294
-5.04297 18.5156 4.04735
-5.69922 22.2656 -2.30838
-3.75391 19.3906 -2.33544
2.95215 7.22119 1.76872
-6.71606 0.456299 1.72939
6.36768 -19.1543 1.66118
10.7275 -18.678 1.66804
-17.7842 17.0457 1.7871
-5.03247 18.5227 1.80753
-6.98486 21.4084 1.81754
-15.5078 13.5012 1.77467
-6.79541 0.660645 1.73017
8.47217 4.16333 1.76195
14.0549 -16.5598 1.68069
-13.0674 20.5354 6.54876
-5.03247 18.5227 2.04366
-6.98486 21.4084 2.05576
3.00122 7.14844 1.76846
5.7356 3.10132 1.75442
0.160156 10.8755 1.99939
8.47217 4.16333 -0.569394
-1.82275 3.78662 6.53784
-15.447 13.5425 1.77491
-6.79541 0.660645 1.76864
-15.5078 13.5012 1.71526
-5.03247 18.5227 -2.23396
-6.98486 21.4084 -2.25992
8.47217 4.16333 -2.08053
14.0549 -16.5598 -1.9481
-0.314209 8.38794 3.4426
-15.5669 18.8462 4.09807
-4.83252 1.68896 3.55802
-13.1992 15.0618 3.97895
-15.5078 13.5012 4.05289
-6.79541 0.660645 3.62328
0.160156 10.8755 3.44483
-10.3955 22.3413 3.93245
-5.03247 18.5227 3.70084
1.39185 6.02686 3.35971
-7.78149 18.7234 3.80544
-10.1033 10.1133 3.82319
-9.54004 4.70581 3.75862
-4.56543 1.87524 3.82245
-10.4521 22.303 3.98795
-5.03247 18.5227 4.04767
0.758545 5.58545 3.98588
-7.96753 18.5977 3.98749
-0.492676 7.45142 3.98611
-15.8464 18.6572 3.82396
-13.3577 14.9546 3.82363
-15.5078 13.5012 3.75825
0.160156 10.8755 4.04806
5.65234 3.04224 -2.09335
-6.98486 21.4084 -1.66847
-5.03247 18.5227 -1.69814
13.7739 -9.27148 -1.98391
-13.3469 20.3464 6.27468
-2.12329 3.57715 6.24034
15.0701 -11.2366 -1.96645
14.3474 -15.0269 1.68749
17.1917 -14.4534 -1.93786
-0.72583 4.55103 3.94032
0.599609 5.47485 1.75872
-6.59497 21.6685 -2.3014
-4.64624 18.7849 -2.32852
-0.407959 4.77271 3.41705
-5.03247 18.5227 -2.32553
-6.98486 21.4084 -2.29837
-1.48413 4.02271 6.20289
-1.76147 3.82935 5.64477
-12.8235 20.7004 6.30976
-2.63794 3.21851 3.88162
-3.70166 2.47705 1.74128
-2.83032 3.08447 3.49423
3.58667 9.03857 1.77709
7.0835 4.05762 0.41412
7.0835 4.05762 1.75996
17.8083 -11.2192 -1.949
7.0835 4.05762 -2.08892
-5.69946 22.2654 -2.30838
-5.69214 22.2551 -2.30848
5.51025 2.94141 -1.85834
5.51025 2.94141 1.7535
-2.64966 15.0015 4.04768
0.15625 10.8545 2.01148
15.0774 -11.1978 -1.96658
15.0774 -11.1978 1.70446
17.2112 -14.3513 -1.93821
0.15625 10.8545 3.44482
0.15625 10.8545 4.04768
2.77197 6.98877 1.99526
-5.98828 19.9355 3.748
-5.98828 19.9355 2.04958
2.77197 6.98877 1.76753
-5.98828 19.9355 4.04767
4.28516 8.04346 1.77367
6.38525 9.50684 1.78219
-15.3352 -5.63037 1.6941
-6.67969 0.401611 1.7292
-6.39966 0.596924 1.73034
-6.39966 0.596924 3.60795
-6.39966 0.596924 2.00644
11.5374 -1.8689 -2.03276
11.3416 -2.00781 -2.03337
0.200928 -9.91138 1.69333
-9.71313 -16.9448 1.6526
3.26538 -7.7373 1.70592
9.66431 -3.19775 1.73221
7.46265 -4.75977 1.72316
9.66431 -3.19775 -1.92146
9.73486 -3.14771 -2.03833
-0.104248 -10.1279 1.69208
-6.94629 0.216064 1.72812
6.01831 -19.384 1.65982
-6.98242 0.270752 1.72831
5.90503 -19.2129 1.66041
2.63135 -21.2969 1.64797
14.6052 -13.6748 -1.95804
14.6052 -13.6748 1.69348
14.6052 -13.6748 0.384201
16.1067 -12.719 -1.95289
16.0652 -12.7454 -1.95304
6.25708 -18.9888 1.66175
9.52222 -16.9106 1.67416
13.7891 -14.1943 1.69038
17.718 -11.6934 -1.94737
-10.2332 -2.07471 1.71479
-12.3176 -13.0073 1.66632
-10.2156 -1.98267 1.7152
-6.02563 19.9907 -1.68304
-6.02563 19.9907 -2.24717
-6.02563 19.9907 2.04982
-6.02563 19.9907 1.81262
-6.02563 19.9907 -2.31171
-6.66235 16.6516 3.98725
-8.42163 7.42554 3.73859
-7.40894 12.7368 6.25873
-5.90161 20.6423 -2.31106
-7.50244 12.2463 6.54335
-7.59619 11.7544 6.25709
-8.39404 7.57056 3.82296
-6.04346 19.8982 3.74977
-6.04346 19.8982 2.10351
-9.07178 4.01562 3.73553
-5.61548 22.1421 -2.30955
-6.04346 19.8982 4.04599
-5.98828 19.9355 -2.24667
-5.98828 19.9355 -1.68361
-5.98828 19.9355 1.81243
-5.98828 19.9355 -2.31223
-5.60083 20.1973 -2.31524
-4.70801 20.8008 -2.32217
-10.3149 17.011 6.28612
-10.5808 16.8315 6.54634
-10.8655 16.6389 6.26709
-4.03467 17.0352 4.04748
-6.53149 17.3386 3.99968
-11.3115 17.9199 6.54705
-11.7593 17.9744 6.26983
-10.8987 17.8696 6.29162
-15.7102 18.4546 3.82394
-16.0796 18.4995 3.59532
-9.32739 17.6787 5.31909
-15.29 18.4036 4.08414
-7.17554 17.417 3.98735
-13.0371 20.4902 6.54873
-13.3125 20.2949 6.27458
-12.7966 20.6609 6.3095
-15.8779 18.4751 3.72017
-17.77 17.1326 1.83609
-15.7737 18.5488 3.82395
-11.0818 21.8777 4.60439
-15.5017 18.7419 4.09479
-1.09473 4.29395 5.8181
-1.09473 4.29395 1.75185
-4.42993 -13.1968 1.6743
-6.16699 -22.3064 1.63391
-1.09473 4.29395 4.54755
-2.91333 -5.24365 1.70957
-3.00781 -5.73828 1.70737
-1.93506 -0.113037 1.73231
-1.09473 4.29395 3.92899
-1.09473 4.29395 3.43894
-5.70703 3.08667 3.60201
-0.719727 6.26147 4.67645
-2.31543 5.24561 6.21072
-2.65649 5.02856 6.53865
-2.96387 4.83301 6.24292
-5.47803 3.23242 3.82257
-7.6167 1.87109 3.66378
0.610596 7.10815 3.39768
-0.00146484 6.71875 3.98602
2.0647 8.03394 1.99964
2.08594 8.04736 1.97918
5.19165 10.0244 1.78304
3.604 9.01367 1.77701
3.55981 8.98584 1.77684
6.4314 9.46704 1.78207
9.68701 5.02515 1.76694
9.20532 5.68262 1.76918
5.63818 6.11621 1.76704
-0.602539 6.875 4.32045
-3.67749 7.24902 6.22356
-4.18921 7.31104 6.54013
-4.66089 7.36841 6.24811
-8.34717 7.81665 3.96612
0.108398 6.78857 3.88036
-0.0622559 6.80933 3.98603
0.912109 6.69092 3.38303
2.13184 6.54272 1.76494
2.13184 6.54272 2.62805
9.32983 5.66748 1.76926
3.52515 6.37329 1.76577
3.1582 6.41772 1.76555
-9.88354 8.00342 3.798
-11.9478 8.25439 3.87735
-8.69263 7.85864 3.75222
-8.57837 7.84473 3.82298
-11.5898 -9.18994 1.68325
-13.8037 -10.7605 1.67415
-3.91382 -3.74414 1.71478
-4.19482 -3.9436 1.71363
-2.42627 -2.68896 1.72089
8.66602 5.18018 1.76646
9.26294 5.60376 1.76891
9.33765 5.65674 1.76922
3.33374 1.39746 1.74456
8.66602 5.18018 -1.1595
8.66602 5.18018 -2.08403
-0.911133 -1.61426 1.72712
-0.0424805 -10.2214 1.69175
-2.54419 -23.3425 1.63357
3.62817 9.0293 1.7771
3.62085 8.98975 1.77693
3.41553 7.91333 1.77215
3.33398 7.48608 1.77026
3.31079 7.36426 1.76972
3.21069 6.83887 1.76739
3.13647 6.44995 1.76566
3.13086 6.42114 1.76554
-0.012207 -10.0625 1.69245
3.64209 9.10156 1.77742
1.05054 -4.48999 1.71716
0.0576172 -9.69678 1.69408
1.99146 0.445068 1.73904
2.42993 2.74512 1.74924
-1.93823 9.60693 3.98638
-2.41724 7.0957 5.44346
-1.29224 12.9951 4.04768
-6.5769 -14.7197 1.66548
-7.60815 -20.1277 1.64151
-3.23584 2.80176 1.74317
-2.87427 4.69897 6.24264
-3.23584 2.80176 5.13878
-2.83276 4.9165 6.36912
-4.35742 -3.07935 1.71709
-4.44897 -3.55957 1.71497
-3.38599 2.0144 1.73968
-4.57324 -4.21216 1.71207
-3.23584 2.80176 3.86326
-2.67041 5.76758 6.21407
-2.7771 5.20801 6.53876
-1.29028 13.0051 4.04786
-3.23584 2.80176 3.50715
-3.23584 2.80176 2.67839
-3.73828 0.16748 1.73149
8.75024 -1.84668 -1.90757
8.89209 -1.86963 -2.04969
-1.93701 -0.123047 1.73227
11.8757 -2.35083 -2.02835
11.5449 -2.29736 -2.03072
11.0466 -2.21704 -2.03428
8.75024 -1.84668 1.73689
5.11621 -1.2605 1.73532
1.76904 -0.720703 1.73387
0.611328 -0.533936 1.73337
-1.92725 -0.124512 1.73227
8.3689 6.82349 1.77307
6.99829 5.95093 1.76786
-10.8718 -5.42456 1.69994
-15.4187 -8.31909 1.68266
8.44629 6.8728 1.77336
-5.20093 -1.8147 1.72149
-5.48389 -1.99487 1.72042
-2.1145 0.150146 1.73322
-2.4209 -0.0449219 1.73206
-1.85327 0.316406 1.73422
-3.96631 -1.02881 1.72619
6.13843 5.40356 1.76459
4.76904 4.53198 1.75939
2.49463 3.08423 1.75074
2.29004 2.95386 1.74996
4.53491 4.38306 1.7585
3.75366 -20.5825 1.65224
3.69067 -20.9133 1.65077
8.77197 5.73535 1.76892
6.92383 -3.95654 1.72595
6.6626 -5.32739 1.71987
8.85352 6.1626 1.77082
8.87671 6.2854 1.77136
5.56128 -11.1033 1.69427
4.54639 -16.4248 1.67067
7.63916 -0.204834 -1.89069
7.67407 -0.0229492 -2.0661
7.36865 -1.62378 1.7363
8.22241 2.85303 -2.07601
8.15967 2.52466 -2.07488
7.63916 -0.204834 1.74259
4.43774 -16.9946 1.66815
-8.93384 3.81226 3.72872
-9.07104 4.01978 3.73554
-17.7527 17.145 1.85342
-17.7773 17.1821 1.85369
-15.3936 13.5784 4.04923
-15.3936 13.5784 1.82724
6.18042 -19.0378 1.66146
4.52539 -16.5356 1.67018
-5.2085 -1.81958 1.72146
-6.4563 0.0666504 1.72804
-11.8655 8.24438 3.87418
-4.36133 -3.10059 1.717
6.29077 -19.2048 1.66088
0.162109 -9.93896 1.69317
0.045166 -9.76245 1.69378
-3.92847 -3.75488 1.71472
-6.67847 0.402588 1.72921
-6.7146 0.457275 1.7294
-9.54272 4.73315 3.75894
-2.92017 -5.2793 1.70941
-15.3936 13.5784 3.76173
-9.89429 22.6802 3.44176
-10.05 21.8633 3.91566
-10.9148 17.3289 6.54667
-11.0061 16.8491 6.26752
-10.8308 17.7695 6.29098
-10.8137 17.8594 6.23891
-11.073 16.4988 6.06367
-10.0737 21.7388 3.98788
-12.4722 9.16162 3.90428
-12.4922 9.05664 3.90419
-15.2861 -5.59619 1.6943
-15.7188 -7.86548 1.68424
-15.2686 -5.50391 1.69471
-11.7795 12.7927 3.90753
-0.840332 -8.42358 1.69845
-1.11572 -8.59888 1.6974
8.97339 -2.17651 -1.91096
9.05859 -2.12207 -2.04745
8.97339 -2.17651 1.73575
7.0271 -3.41528 1.72835
10.8948 -0.953369 -2.04115
10.6919 -1.08252 -2.04185
9.34155 -1.94214 -2.04648
6.70044 -3.62329 1.72711
2.34863 -6.39355 1.71057
-3.88989 -10.3647 1.68686
-6.00293 -11.71 1.67883
-11.0505 -14.9231 1.65964
0.458008 -7.59692 1.70338
-0.806152 -8.40186 1.69858
-1.30688 -7.71851 1.70091
-1.39429 -8.17749 1.69887
1.77759 8.45801 2.00142
1.646 7.76733 2.40215
-2.02612 -11.4915 1.68418
-4.30518 -23.4436 1.63119
1.78394 8.49097 1.98235
1.42871 6.62817 3.0632
0.512451 1.82227 1.74321
0.0793457 -0.448242 1.73314
-0.0227051 -0.983887 1.73077
-1.52417 -8.85889 1.69585
-0.310791 -2.49438 1.72407
1.30225 5.96436 1.76157
1.30225 5.96436 3.36257
1.30225 5.96436 3.44827
-1.29688 -7.6665 1.70114
1.33032 6.11182 3.3627
1.07397 4.76733 1.75627
4.96582 8.51758 1.77643
4.74927 7.38232 1.7714
1.15918 -11.4465 1.68792
1.07153 -11.9055 1.68588
4.12817 4.12378 1.75695
3.65112 1.62256 1.74586
3.16138 -0.945312 1.73447
2.17212 -6.13452 1.71147
2.09131 -6.55713 1.70959
1.64746 -8.88525 1.69927
1.17383 -11.3696 1.68826
3.54736 1.07861 1.74345
-0.898193 -22.2363 1.64008
4.53369 6.25073 1.76638
4.32983 5.18188 1.76164
4.2561 4.79517 1.75993
5.25049 10.0103 1.78305
-2.03711 -11.499 1.68413
-2.02979 -11.5098 1.6841
4.0293 -20.407 1.65329
4.16284 -20.603 1.65261
3.84009 -20.1292 1.65425
-7.59448 -3.33838 1.7124
-6.20923 -5.3728 1.70535
-9.02734 -1.23438 1.71968
-9.06421 -1.18018 1.71987
-5.104 -6.99536 1.69973
-3.65356 -9.12524 1.69236
0.452148 -15.1543 1.67148
-3.13623 -9.88501 1.68972
-0.668945 -13.5078 1.67718
17.1399 -14.2458 -1.93916
17.1208 -14.3457 -1.93881
17.0637 -14.6445 -1.93778
17.614 -11.7595 -1.94772
17.7991 -10.7881 -1.95107
17.7366 -11.1167 -1.94994
15.7202 -7.8269 -1.97819
15.6575 -8.15552 -1.97706
14.0562 -16.5542 -1.94812
10.7253 -18.6746 1.66806
10.24 -18.9834 1.66621
14.0562 -16.5542 1.68071
17.1689 -14.5725 -1.93745
17.0649 -14.6389 -1.9378
-3.02612 -16.7356 1.66093
-5.04272 -16.4102 1.66006
5.69189 -18.1416 1.6647
5.5752 -18.1228 1.66465
5.13721 -18.0522 1.66446
-6.84375 -16.1196 1.65928
-8.23413 -15.8955 1.65868
7.20483 -18.3857 1.66535
10.3755 -18.897 1.66673
10.3816 -18.8979 1.66673
2.09106 -17.5608 1.66314
0.0559082 -17.2327 1.66226
-10.667 -15.5032 1.65762
-1.33643 -17.0081 1.66166
4.26294 -17.9111 1.66408
-15.3855 -8.29785 1.68278
-15.7083 -7.81006 1.68448
-16.0554 -7.28491 1.68632
-6.15625 -22.2507 1.63416
-7.59741 -20.072 1.64175
-9.68115 -16.9221 1.65273
-10.614 -15.5117 1.65765
-13.7717 -10.7378 1.67428
-5.46021 -23.3032 1.63049
-11.0173 -14.9019 1.65977
-12.3071 -12.9517 1.66657
-2.72266 -23.4624 1.63287
-4.27295 -23.2739 1.63194
-5.58521 -23.1143 1.63115
-5.63647 -23.1082 1.63112
10.2461 -18.9844 -6.54876
10.24 -18.9834 -6.54876
7.33984 -18.5156 -6.54876
6.36768 -19.1543 -6.54876
3.01172 -21.3594 -6.54876
2.63135 -21.2969 -6.54876
0.917969 -21.0156 -6.54876
-0.898193 -22.2363 -6.54876
-2.94141 -23.6094 -6.54876
-4.30518 -23.4436 -6.54876
-5.51172 -23.2969 -6.54876
-5.63647 -23.1082 -6.54876
-16.0742 -7.32812 -6.54876
-16.0554 -7.28491 -6.54876
-15.2852 -5.51562 -6.54876
-15.2686 -5.50391 -6.54876
-6.67578 0.484375 -6.54876
-6.79541 0.660645 -6.54876
3.51172 7.60938 -6.54876
3.41553 7.91333 -6.54876
3.36328 8.07812 -6.54876
3.55981 8.98584 -6.54876
3.56641 9.01562 -6.54876
3.58667 9.03857 -6.54876
4.19922 9.73438 -6.54876
5.09766 10.0469 -6.54876
5.19165 10.0244 -6.54876
6.01172 9.82812 -6.54876
6.38525 9.50684 -6.54876
6.73828 9.20312 -6.54876
8.44629 6.8728 -6.54876
9.76172 5.07812 -6.54876
9.68701 5.02515 -6.54876
-8.51953 23.6094 -6.54876
-7.01172 21.3906 -6.54876
-6.98486 21.4084 -6.54876
2.74609 7.07812 -6.54876
2.95215 7.22119 -6.54876
-17.8711 16.9844 -6.54876
-17.7842 17.0457 -6.54876
-17.7383 17.0781 -6.54876
-17.77 17.1326 -6.54876
-17.793 17.1719 -6.54876
-17.7773 17.1821 -6.54876
-16.8945 17.7656 -6.54876
-16.9805 17.8906 -6.54876
-16.0796 18.4995 -6.54876
17.8711 -10.8906 -6.54876
17.8083 -11.2192 -6.54876
17.168 -14.5781 -6.54876
17.0637 -14.6445 -6.54876
7.69141 3.60938 -6.54876
8.22241 2.85303 -6.54876
-5.04297 18.5156 -6.54876
-4.03467 17.0352 -6.54876
-5.69922 22.2656 -6.54876
-5.69214 22.2551 -6.54876
-3.75391 19.3906 -6.54876
-4.64624 18.7849 -6.54876
3.33398 7.48608 -6.54876
-6.71606 0.456299 -6.54876
-6.7146 0.457275 -6.54876
6.29077 -19.2048 -6.54876
10.7275 -18.678 -6.54876
10.3816 -18.8979 -6.54876
-13.0674 20.5354 -6.54876
-12.8235 20.7004 -6.54876
-15.5669 18.8462 -6.54876
-13.3469 20.3464 -6.54876
-10.3955 22.3413 -6.54876
-9.89429 22.6802 -6.54876
-9.54004 4.70581 -6.54876
-11.9478 8.25439 -6.54876
-10.4521 22.303 -6.54876
-15.8464 18.6572 -6.54876
17.1917 -14.4534 -6.54876
17.1689 -14.5725 -6.54876
-6.59497 21.6685 -6.54876
-5.69946 22.2654 -6.54876
-5.03247 18.5227 -6.54876
-11.0818 21.8777 -6.54876
3.64209 9.10156 -6.54876
17.718 -11.6934 -6.54876
-5.61548 22.1421 -6.54876
-2.64966 15.0015 -6.54876
-1.29028 13.0051 -6.54876
17.2112 -14.3513 -6.54876
6.4314 9.46704 -6.54876
-15.3352 -5.63037 -6.54876
11.5374 -1.8689 -6.54876
11.8757 -2.35083 -6.54876
-9.71313 -16.9448 -6.54876
-10.667 -15.5032 -6.54876
6.01831 -19.384 -6.54876
4.16284 -20.603 -6.54876
-6.98242 0.270752 -6.54876
-12.3176 -13.0073 -6.54876
-13.8037 -10.7605 -6.54876
-10.2156 -1.98267 -6.54876
-9.06421 -1.18018 -6.54876
-9.07178 4.01562 -6.54876
-4.70801 20.8008 -6.54876
-15.5078 13.5012 -6.54876
-6.16699 -22.3064 -6.54876
-7.60815 -20.1277 -6.54876
0.160156 10.8755 -6.54876
1.78394 8.49097 -6.54876
-7.6167 1.87109 -6.54876
-8.93384 3.81226 -6.54876
2.08594 8.04736 -6.54876
5.25049 10.0103 -6.54876
8.47217 4.16333 -6.54876
9.32983 5.66748 -6.54876
9.33765 5.65674 -6.54876
-12.4922 9.05664 -6.54876
-15.4187 -8.31909 -6.54876
-2.54419 -23.3425 -6.54876
-2.72266 -23.4624 -6.54876
15.7202 -7.8269 -6.54876
-15.7188 -7.86548 -6.54876
8.87671 6.2854 -6.54876
3.69067 -20.9133 -6.54876
10.8948 -0.953369 -6.54876
-11.0505 -14.9231 -6.54876
-5.46021 -23.3032 -6.54876
14.0549 -16.5598 -6.54876
17.7991 -10.7881 -6.54876
10.2461 -18.9844 -6.54876
7.33984 -18.5156 -6.54876
3.01172 -21.3594 -6.54876
0.917969 -21.0156 -6.54876
-2.94141 -23.6094 -6.54876
-5.51172 -23.2969 -6.54876
-16.0742 -7.32812 -6.54876
-15.2852 -5.51562 -6.54876
-6.67578 0.484375 -6.54876
-6.79541 0.660645 -6.54876
3.51172 7.60938 -6.54876
3.36328 8.07812 -6.54876
3.56641 9.01562 -6.54876
6.01172 9.82812 -6.54876
6.73828 9.20312 -6.54876
9.76172 5.07812 -6.54876
-6.98486 21.4084 -6.54876
2.74609 7.07812 -6.54876
-17.8711 16.9844 -6.54876
-17.7383 17.0781 -6.54876
-17.793 17.1719 -6.54876
17.8711 -10.8906 -6.54876
17.168 -14.5781 -6.54876
7.69141 3.60938 -6.54876
-5.04297 18.5156 -6.54876
-5.69922 22.2656 -6.54876
-3.75391 19.3906 -6.54876
-5.03247 18.5227 -6.54876
-15.5078 13.5012 -6.54876
0.160156 10.8755 -6.54876
8.47217 4.16333 -6.54876
14.0549 -16.5598 -6.54876
3  265 45 264  0 0 255
3  346 310 345  0 0 255
3  127 100 285  0 0 255
3  127 285 293  0 0 255
3  267 237 121  0 0 255
3  267 121 266  0 0 255
3  285 100 279  0 0 255
3  81 54 158  0 255 255
3  157 81 158  0 255 255
3  366 341 60  0 192 0
3  366 60 371  0 192 0
3  44 37 160  0 255 255
3  159 44 160  0 255 255
3  50 38 52  0 255 0
3  116 63 47  128 255 64
3  116 47 112  128 255 64
3  147 86 145  192 0 192
3  287 70 281  192 192 0
3  77 60 341  0 255 0
3  357 77 341  0 255 0
3  117 79 63  128 255 64
3  117 63 116  128 255 64
3  169 67 170  0 255 0
3  129 59 100  192 192 0
3  129 100 127  192 192 0
3  59 292 100  192 192 0
3  59 291 292  192 192 0
3  74 67 169  0 255 0
3  173 74 169  0 255 0
3  291 59 70  192 192 0
3  291 70 287  192 192 0
3  128 59 129  192 192 0
3  342 77 357  0 255 0
3  54 95 161  0 255 255
3  158 54 161  0 255 255
3  37 81 157  0 255 255
3  160 37 157  0 255 255
3  86 114 113  192 0 192
3  86 147 114  192 0 192
3  147 146 114  192 0 192
3  97 85 49  192 192 0
3  97 49 96  192 192 0
3  172 91 108  128 255 255
3  172 165 91  128 255 255
3  108 91 107  128 255 255
3  238 118 121  192 192 0
3  238 121 237  192 192 0
3  93 89 73  192 192 0
3  93 73 402  192 192 0
3  402 73 403  192 192 0
3  205 97 96  192 192 0
3  205 96 201  192 192 0
3  209 99 97  192 192 0
3  209 97 205  192 192 0
3  279 100 292  192 192 0
3  210 101 99  192 192 0
3  210 99 209  192 192 0
3  408 123 407  0 0 255
3  103 46 104  255 255 64
3  109 110 46  255 255 64
3  109 106 80  255 255 64
3  109 103 106  255 255 64
3  109 46 103  255 255 64
3  107 29 108  128 255 255
3  266 121 45  0 0 255
3  266 45 265  0 0 255
3  112 57 116  128 255 64
3  116 57 75  128 255 64
3  116 75 117  128 255 64
3  118 45 121  192 192 0
3  161 95 91  128 255 255
3  161 91 165  128 255 255
3  260 223 102  0 0 255
3  260 102 269  0 0 255
3  224 11 102  0 0 255
3  224 102 223  0 0 255
3  192 74 173  128 0 255
3  192 173 184  128 0 255
3  142 32 126  0 0 255
3  142 126 140  0 0 255
3  371 60 364  255 64 64
3  181 166 167  255 64 64
3  181 167 182  255 64 64
3  180 164 166  64 255 255
3  180 166 181  64 255 255
3  138 83 137  255 165 0
3  51 62 128  100 100 100
3  129 51 128  100 100 100
3  276 111 290  128 0 255
3  39 51 129  100 100 100
3  127 39 129  100 100 100
3  244 68 245  255 64 64
3  242 68 244  0 192 0
3  190 74 192  64 255 255
3  298 131 130  128 255 128
3  298 130 297  128 255 128
3  258 139 268  0 0 255
3  417 132 416  0 0 255
3  152 114 146  0 0 255
3  152 136 114  0 0 255
3  136 135 114  0 0 255
3  328 134 325  0 0 255
3  83 135 137  0 255 255
3  83 114 135  0 255 255
3  113 114 83  0 255 255
3  299 131 298  128 255 128
3  375 138 137  255 165 0
3  375 137 374  255 165 0
3  469 125 368  0 0 255
3  469 368 468  0 0 255
3  458 277 457  0 0 255
3  368 125 7  0 0 255
3  368 7 370  0 0 255
3  322 2 144  0 0 255
3  322 144 321  0 0 255
3  147 87 146  192 0 192
3  439 149 148  128 255 128
3  439 148 438  128 255 128
3  343 150 33  0 0 255
3  343 33 349  0 0 255
3  459 151 447  0 0 255
3  459 447 460  0 0 255
3  87 152 146  0 0 255
3  151 449 447  0 0 255
3  151 152 449  0 0 255
3  449 152 87  0 0 255
3  438 148 441  128 255 128
3  446 147 145  192 0 192
3  446 87 147  192 0 192
3  449 87 446  192 0 192
3  429 307 154  0 0 255
3  429 154 431  0 0 255
3  431 154 156  0 0 255
3  431 156 432  0 0 255
3  53 82 175  0 255 255
3  174 53 175  0 255 255
3  36 43 120  0 255 255
3  176 36 120  0 255 255
3  94 53 174  0 255 255
3  177 94 174  0 255 255
3  82 36 176  0 255 255
3  175 82 176  0 255 255
3  275 230 274  64 255 255
3  274 230 164  64 255 255
3  274 164 162  64 255 255
3  178 92 94  128 255 255
3  178 94 177  128 255 255
3  28 183 184  128 0 255
3  28 184 173  128 0 255
3  28 122 72  128 0 255
3  173 122 28  128 0 255
3  233 167 232  255 64 64
3  43 65 119  0 255 255
3  120 43 119  0 255 255
3  120 119 169  0 255 0
3  170 120 169  0 255 0
3  232 167 166  255 64 64
3  232 166 231  255 64 64
3  231 166 164  64 255 255
3  231 164 230  64 255 255
3  211 163 168  255 64 64
3  211 168 216  255 64 64
3  217 337 211  0 192 0
3  211 337 338  0 192 0
3  211 338 163  0 192 0
3  179 30 92  128 255 255
3  179 92 178  128 255 255
3  65 72 122  0 255 255
3  119 65 122  0 255 255
3  119 122 173  0 255 0
3  169 119 173  0 255 0
3  157 158 174  0 255 255
3  175 157 174  0 255 255
3  159 160 176  0 255 255
3  120 159 176  0 255 255
3  158 161 177  0 255 255
3  174 158 177  0 255 255
3  160 157 175  0 255 255
3  176 160 175  0 255 255
3  177 161 165  128 255 255
3  177 165 178  128 255 255
3  170 159 120  64 255 255
3  178 165 172  128 255 255
3  178 172 179  128 255 255
3  52 20 35  255 64 64
3  52 35 50  255 64 64
3  365 71 64  64 255 255
3  365 64 359  64 255 255
3  196 189 76  255 64 64
3  196 76 198  255 64 64
3  195 98 199  64 255 255
3  200 58 84  255 64 64
3  200 84 194  255 64 64
3  198 76 58  255 64 64
3  198 58 200  255 64 64
3  194 84 42  255 64 64
3  194 42 193  255 64 64
3  193 42 98  64 255 255
3  193 98 195  64 255 255
3  359 64 358  64 255 255
3  276 274 111  128 0 255
3  111 274 162  128 0 255
3  111 162 183  128 0 255
3  183 162 184  128 0 255
3  361 186 185  255 64 64
3  361 185 360  255 64 64
3  360 185 187  64 255 255
3  360 187 362  64 255 255
3  339 23 196  255 64 64
3  196 23 189  255 64 64
3  189 23 24  255 64 64
3  23 339 340  255 64 64
3  362 187 363  64 255 255
3  364 186 361  255 64 64
3  364 60 186  255 64 64
3  186 60 191  255 64 64
3  191 60 77  255 64 64
3  191 77 188  255 64 64
3  162 190 192  64 255 255
3  162 164 190  64 255 255
3  164 180 190  64 255 255
3  184 162 192  128 0 255
3  193 185 186  255 64 64
3  193 186 194  255 64 64
3  195 187 185  64 255 255
3  195 185 193  64 255 255
3  77 196 188  255 64 64
3  77 342 196  255 64 64
3  342 339 196  255 64 64
3  198 188 196  255 64 64
3  71 365 199  64 255 255
3  199 365 363  64 255 255
3  199 363 195  64 255 255
3  363 187 195  64 255 255
3  194 186 191  255 64 64
3  194 191 200  255 64 64
3  200 191 188  255 64 64
3  200 188 198  255 64 64
3  234 75 218  64 255 255
3  234 235 75  64 255 255
3  218 75 57  64 255 255
3  229 75 235  64 255 255
3  391 57 390  64 255 255
3  391 218 57  64 255 255
3  390 57 112  64 255 255
3  453 203 452  0 0 255
3  452 203 425  0 0 255
3  203 424 425  0 0 255
3  201 73 89  192 192 0
3  201 89 205  192 192 0
3  388 356 206  0 0 255
3  388 206 404  0 0 255
3  296 208 304  0 0 255
3  314 202 396  0 0 255
3  396 202 406  0 0 255
3  202 90 406  0 0 255
3  436 383 434  0 0 255
3  390 112 47  64 255 255
3  390 47 394  64 255 255
3  205 89 209  192 192 0
3  210 93 90  192 192 0
3  210 90 202  192 192 0
3  209 89 93  192 192 0
3  209 93 210  192 192 0
3  212 201 96  64 255 255
3  212 96 213  64 255 255
3  281 215 280  255 64 64
3  281 216 215  255 64 64
3  281 70 216  255 64 64
3  280 215 282  255 64 64
3  213 96 49  64 255 255
3  213 49 214  64 255 255
3  216 70 59  255 64 64
3  216 59 211  255 64 64
3  59 128 211  0 192 0
3  211 128 217  0 192 0
3  128 62 217  0 192 0
3  234 218 236  64 255 255
3  219 73 201  64 255 255
3  219 201 212  64 255 255
3  395 236 218  64 255 255
3  395 218 391  64 255 255
3  45 19 31  64 255 255
3  19 118 220  64 255 255
3  45 118 19  64 255 255
3  19 220 221  64 255 255
3  261 223 260  0 0 255
3  10 261 262  0 0 255
3  10 224 261  0 0 255
3  224 223 261  0 0 255
3  305 225 15  0 0 255
3  305 15 309  0 0 255
3  316 228 306  0 0 255
3  288 230 275  64 255 255
3  215 216 232  255 64 64
3  232 216 168  255 64 64
3  232 168 233  255 64 64
3  282 215 289  255 64 64
3  289 215 231  255 64 64
3  231 215 232  255 64 64
3  289 231 230  64 255 255
3  289 230 288  64 255 255
3  234 219 235  64 255 255
3  235 219 212  64 255 255
3  235 212 229  64 255 255
3  405 403 236  64 255 255
3  236 403 73  64 255 255
3  236 73 234  64 255 255
3  73 219 234  64 255 255
3  405 236 395  64 255 255
3  252 227 239  0 0 255
3  252 239 253  0 0 255
3  421 240 420  0 0 255
3  406 90 401  0 0 255
3  347 242 355  0 192 0
3  422 241 240  0 0 255
3  422 240 421  0 0 255
3  233 168 245  255 64 64
3  245 168 163  255 64 64
3  245 163 244  255 64 64
3  163 242 244  0 192 0
3  163 338 355  0 192 0
3  163 355 242  0 192 0
3  401 90 93  192 192 0
3  401 93 402  192 192 0
3  474 246 477  0 0 255
3  352 248 206  0 0 255
3  352 206 356  0 0 255
3  250 206 248  0 0 255
3  476 477 384  0 0 255
3  384 477 246  0 0 255
3  384 246 433  0 0 255
3  246 430 433  0 0 255
3  55 106 256  128 255 128
3  334 106 27  128 255 128
3  334 27 333  128 255 128
3  27 106 55  128 255 128
3  253 16 226  0 0 255
3  253 226 252  0 0 255
3  418 254 412  0 0 255
3  251 40 48  192 0 0
3  251 48 255  192 0 0
3  110 109 330  0 255 255
3  335 110 330  0 255 255
3  331 80 106  128 255 128
3  331 106 334  128 255 128
3  255 48 55  192 0 0
3  255 55 256  192 0 0
3  206 400 404  0 0 255
3  206 250 400  0 0 255
3  250 257 400  0 0 255
3  303 272 302  0 0 255
3  465 437 435  0 0 255
3  465 435 463  0 0 255
3  123 261 407  0 0 255
3  407 261 260  0 0 255
3  407 260 222  0 0 255
3  407 222 423  0 0 255
3  264 45 31  0 0 255
3  264 31 263  0 0 255
3  9 264 263  0 0 255
3  123 264 9  0 0 255
3  262 123 9  0 0 255
3  261 123 262  0 0 255
3  240 408 420  0 0 255
3  240 265 264  0 0 255
3  240 264 408  0 0 255
3  264 123 408  0 0 255
3  266 241 267  0 0 255
3  265 240 241  0 0 255
3  265 241 266  0 0 255
3  409 350 132  0 0 255
3  409 132 417  0 0 255
3  269 12 260  0 0 255
3  260 12 222  0 0 255
3  12 13 222  0 0 255
3  415 386 270  0 0 255
3  415 270 414  0 0 255
3  302 272 413  0 0 255
3  413 272 418  0 0 255
3  272 254 418  0 0 255
3  318 422 411  0 0 255
3  318 267 422  0 0 255
3  267 241 422  0 0 255
3  351 271 132  0 0 255
3  351 132 350  0 0 255
3  273 254 272  0 0 255
3  274 75 229  64 255 255
3  274 229 275  64 255 255
3  276 117 75  128 0 255
3  276 75 274  128 0 255
3  457 277 203  0 0 255
3  457 203 453  0 0 255
3  280 85 281  255 64 64
3  85 280 49  255 64 64
3  49 280 214  255 64 64
3  280 282 214  255 64 64
3  348 283 248  0 0 255
3  348 248 352  0 0 255
3  313 293 285  0 0 255
3  313 285 312  0 0 255
3  312 285 314  0 0 255
3  314 285 279  0 0 255
3  314 279 202  0 0 255
3  284 249 286  0 0 255
3  287 281 99  192 192 0
3  281 97 99  192 192 0
3  281 85 97  192 192 0
3  434 383 384  0 0 255
3  434 384 433  0 0 255
3  212 275 229  64 255 255
3  212 213 288  64 255 255
3  212 288 275  64 255 255
3  289 214 282  255 64 64
3  288 213 214  64 255 255
3  288 214 289  64 255 255
3  290 79 117  128 0 255
3  290 117 276  128 0 255
3  291 101 292  192 192 0
3  287 99 101  192 192 0
3  287 101 291  192 192 0
3  279 292 202  192 192 0
3  292 101 202  192 192 0
3  202 101 210  192 192 0
3  354 8 353  0 0 255
3  8 39 127  0 0 255
3  353 8 127  0 0 255
3  310 346 315  0 0 255
3  315 346 293  0 0 255
3  346 353 127  0 0 255
3  346 127 293  0 0 255
3  331 295 294  255 165 0
3  331 294 330  255 165 0
3  315 293 313  0 0 255
3  445 298 297  128 255 128
3  445 297 444  128 255 128
3  445 113 83  128 255 128
3  83 298 445  128 255 128
3  138 298 83  128 255 128
3  138 299 298  128 255 128
3  381 301 332  0 0 255
3  381 332 377  0 0 255
3  300 294 374  0 255 255
3  376 300 374  0 255 255
3  375 295 380  128 255 128
3  400 257 398  0 0 255
3  414 270 302  0 0 255
3  414 302 413  0 0 255
3  304 257 250  0 0 255
3  304 250 296  0 0 255
3  398 257 304  0 0 255
3  398 304 397  0 0 255
3  323 306 305  0 0 255
3  323 305 326  0 0 255
3  467 307 246  0 0 255
3  467 246 474  0 0 255
3  326 305 309  0 0 255
3  326 309 327  0 0 255
3  345 310 283  0 0 255
3  345 283 348  0 0 255
3  430 246 307  0 0 255
3  430 307 429  0 0 255
3  312 208 296  0 0 255
3  312 296 313  0 0 255
3  314 208 312  0 0 255
3  315 283 310  0 0 255
3  248 283 250  0 0 255
3  250 283 315  0 0 255
3  250 315 313  0 0 255
3  250 313 296  0 0 255
3  104 306 251  0 0 255
3  104 316 306  0 0 255
3  251 306 323  0 0 255
3  316 104 46  0 0 255
3  316 46 317  0 0 255
3  318 273 319  0 0 255
3  317 46 110  0 0 255
3  317 110 320  0 0 255
3  254 273 412  0 0 255
3  412 273 318  0 0 255
3  412 318 411  0 0 255
3  304 314 397  0 0 255
3  304 208 314  0 0 255
3  397 314 396  0 0 255
3  427 322 321  0 0 255
3  427 321 426  0 0 255
3  255 103 104  255 255 64
3  255 104 251  255 255 64
3  323 227 252  0 0 255
3  323 252 251  0 0 255
3  324 136 325  0 0 255
3  326 227 323  0 0 255
3  327 239 227  0 0 255
3  327 227 326  0 0 255
3  454 329 459  0 0 255
3  459 329 151  0 0 255
3  329 328 151  0 0 255
3  151 328 152  0 0 255
3  152 328 136  0 0 255
3  328 325 136  0 0 255
3  330 109 80  255 165 0
3  330 80 331  255 165 0
3  377 332 300  0 0 255
3  377 300 376  0 0 255
3  251 252 226  0 0 255
3  251 226 40  0 0 255
3  379 334 333  128 255 128
3  379 333 378  128 255 128
3  335 300 332  0 0 255
3  294 300 335  0 255 255
3  330 294 335  0 255 255
3  380 295 379  128 255 128
3  379 295 331  128 255 128
3  379 331 334  128 255 128
3  426 321 428  0 0 255
3  256 106 103  255 255 64
3  256 103 255  255 255 64
3  455 344 329  0 0 255
3  455 329 454  0 0 255
3  337 171 338  0 192 0
3  339 197 22  255 64 64
3  339 22 340  255 64 64
3  342 35 21  255 64 64
3  342 50 35  255 64 64
3  21 339 342  255 64 64
3  197 339 21  255 64 64
3  456 336 344  0 0 255
3  456 344 455  0 0 255
3  311 346 345  0 0 255
3  311 140 346  0 0 255
3  140 126 346  0 0 255
3  367 61 341  0 192 0
3  367 341 366  0 192 0
3  348 284 311  0 0 255
3  348 311 345  0 0 255
3  349 141 143  0 0 255
3  349 143 343  0 0 255
3  350 268 351  0 0 255
3  352 249 284  0 0 255
3  352 284 348  0 0 255
3  353 126 32  0 0 255
3  353 32 354  0 0 255
3  346 126 353  0 0 255
3  338 171 69  0 192 0
3  338 69 355  0 192 0
3  356 207 249  0 0 255
3  356 249 352  0 0 255
3  355 69 243  0 192 0
3  355 243 347  0 192 0
3  61 78 357  0 255 0
3  341 61 357  0 255 0
3  342 78 38  0 255 0
3  50 342 38  0 255 0
3  342 357 78  0 255 0
3  410 258 409  0 0 255
3  409 258 350  0 0 255
3  258 268 350  0 0 255
3  389 207 356  0 0 255
3  389 356 388  0 0 255
3  44 159 18  64 255 255
3  18 159 170  64 255 255
3  18 170 67  64 255 255
3  18 67 359  64 255 255
3  359 358 18  64 255 255
3  358 17 18  64 255 255
3  360 181 182  255 64 64
3  360 182 361  255 64 64
3  362 180 181  64 255 255
3  362 181 360  64 255 255
3  363 190 180  64 255 255
3  363 180 362  64 255 255
3  361 182 364  255 64 64
3  365 74 190  64 255 255
3  365 190 363  64 255 255
3  366 347 243  0 192 0
3  366 243 367  0 192 0
3  468 368 467  0 0 255
3  467 368 307  0 0 255
3  307 368 154  0 0 255
3  370 156 154  0 0 255
3  370 154 368  0 0 255
3  242 347 68  0 192 0
3  68 347 366  0 192 0
3  68 366 371  0 192 0
3  359 67 74  64 255 255
3  359 74 365  64 255 255
3  371 364 167  255 64 64
3  371 167 68  255 64 64
3  233 245 68  255 64 64
3  68 167 233  255 64 64
3  364 182 167  255 64 64
3  139 351 268  0 0 255
3  139 373 351  0 0 255
3  373 372 351  0 0 255
3  374 294 295  255 165 0
3  374 295 375  255 165 0
3  324 377 136  0 0 255
3  136 377 135  0 0 255
3  377 376 135  0 0 255
3  378 130 131  128 255 128
3  378 131 379  128 255 128
3  379 131 299  128 255 128
3  379 299 380  128 255 128
3  381 325 382  0 0 255
3  382 325 134  0 0 255
3  324 325 381  0 0 255
3  383 203 277  0 0 255
3  383 277 384  0 0 255
3  377 324 381  0 0 255
3  137 135 376  0 255 255
3  374 137 376  0 255 255
3  380 299 138  128 255 128
3  380 138 375  128 255 128
3  473 476 458  0 0 255
3  458 476 277  0 0 255
3  277 476 384  0 0 255
3  386 271 387  0 0 255
3  271 416 132  0 0 255
3  271 386 416  0 0 255
3  416 386 415  0 0 255
3  387 271 351  0 0 255
3  387 351 372  0 0 255
3  424 203 383  0 0 255
3  424 383 436  0 0 255
3  388 372 373  0 0 255
3  388 373 389  0 0 255
3  390 220 391  64 255 255
3  452 425 437  0 0 255
3  452 437 465  0 0 255
3  394 221 220  64 255 255
3  394 220 390  64 255 255
3  118 391 220  64 255 255
3  118 238 391  64 255 255
3  238 395 391  64 255 255
3  303 396 272  0 0 255
3  303 397 396  0 0 255
3  272 396 273  0 0 255
3  396 319 273  0 0 255
3  397 303 398  0 0 255
3  399 373 139  0 0 255
3  399 139 392  0 0 255
3  400 302 270  0 0 255
3  400 398 302  0 0 255
3  398 303 302  0 0 255
3  401 402 66  192 192 0
3  401 238 237  192 192 0
3  401 66 238  192 192 0
3  404 386 387  0 0 255
3  404 270 386  0 0 255
3  404 400 270  0 0 255
3  405 66 403  64 255 255
3  395 238 66  64 255 255
3  395 66 405  64 255 255
3  319 406 318  0 0 255
3  318 406 267  0 0 255
3  406 401 267  0 0 255
3  401 237 267  0 0 255
3  403 66 402  192 192 0
3  404 387 372  0 0 255
3  404 372 388  0 0 255
3  406 319 396  0 0 255
3  389 373 399  0 0 255
3  306 225 305  0 0 255
3  306 228 407  0 0 255
3  228 408 407  0 0 255
3  306 407 225  0 0 255
3  407 124 225  0 0 255
3  409 344 336  0 0 255
3  409 336 410  0 0 255
3  411 320 110  0 0 255
3  411 110 412  0 0 255
3  414 381 382  0 0 255
3  414 413 301  0 0 255
3  414 301 381  0 0 255
3  415 382 134  0 0 255
3  415 134 416  0 0 255
3  417 328 329  0 0 255
3  417 416 328  0 0 255
3  416 134 328  0 0 255
3  332 301 335  0 0 255
3  335 301 110  0 0 255
3  301 418 110  0 0 255
3  418 412 110  0 0 255
3  463 435 462  0 0 255
3  421 228 317  0 0 255
3  421 420 228  0 0 255
3  317 228 316  0 0 255
3  421 317 320  0 0 255
3  421 320 422  0 0 255
3  423 14 124  0 0 255
3  423 124 407  0 0 255
3  408 228 420  0 0 255
3  417 329 344  0 0 255
3  417 344 409  0 0 255
3  414 382 415  0 0 255
3  418 301 413  0 0 255
3  422 320 411  0 0 255
3  424 392 425  0 0 255
3  426 143 141  0 0 255
3  426 141 427  0 0 255
3  466 336 456  0 0 255
3  430 429 286  0 0 255
3  286 429 284  0 0 255
3  429 311 284  0 0 255
3  431 140 311  0 0 255
3  431 311 429  0 0 255
3  432 142 140  0 0 255
3  432 140 431  0 0 255
3  433 207 434  0 0 255
3  433 286 207  0 0 255
3  286 249 207  0 0 255
3  462 336 466  0 0 255
3  462 435 336  0 0 255
3  435 410 336  0 0 255
3  436 399 392  0 0 255
3  436 392 424  0 0 255
3  425 258 437  0 0 255
3  425 392 258  0 0 255
3  392 139 258  0 0 255
3  430 286 433  0 0 255
3  437 258 410  0 0 255
3  437 410 435  0 0 255
3  434 399 436  0 0 255
3  434 389 399  0 0 255
3  434 207 389  0 0 255
3  438 115 88  128 255 128
3  438 88 439  128 255 128
3  451 439 88  128 255 128
3  451 88 450  128 255 128
3  441 153 115  128 255 128
3  441 115 438  128 255 128
3  442 25 105  128 255 128
3  442 105 443  128 255 128
3  443 105 153  128 255 128
3  443 153 441  128 255 128
3  113 148 149  128 255 128
3  113 149 86  128 255 128
3  86 149 145  128 255 128
3  451 145 439  128 255 128
3  451 446 145  128 255 128
3  439 145 149  128 255 128
3  444 442 443  128 255 128
3  444 443 445  128 255 128
3  441 113 443  128 255 128
3  441 148 113  128 255 128
3  443 113 445  128 255 128
3  460 447 34  0 0 255
3  460 34 461  0 0 255
3  449 41 34  0 0 255
3  449 34 447  0 0 255
3  56 41 449  192 0 192
3  446 56 449  192 0 192
3  450 26 440  128 255 128
3  450 440 451  128 255 128
3  451 440 56  128 255 128
3  451 56 446  128 255 128
3  480 470 479  0 0 255
3  479 470 452  0 0 255
3  470 453 452  0 0 255
3  454 150 343  0 0 255
3  454 343 455  0 0 255
3  455 343 143  0 0 255
3  455 143 456  0 0 255
3  472 458 457  0 0 255
3  472 457 471  0 0 255
3  459 150 454  0 0 255
3  1 460 448  0 0 255
3  33 150 459  0 0 255
3  33 459 1  0 0 255
3  1 459 460  0 0 255
3  461 0 448  0 0 255
3  461 448 460  0 0 255
3  471 457 453  0 0 255
3  471 453 470  0 0 255
3  3 419 463  0 0 255
3  3 428 144  0 0 255
3  463 462 3  0 0 255
3  428 321 144  0 0 255
3  462 428 3  0 0 255
3  473 458 472  0 0 255
3  478 479 259  0 0 255
3  259 479 452  0 0 255
3  259 452 465  0 0 255
3  463 419 259  0 0 255
3  463 259 465  0 0 255
3  428 143 426  0 0 255
3  428 466 456  0 0 255
3  428 456 143  0 0 255
3  466 428 462  0 0 255
3  467 308 369  0 0 255
3  467 369 468  0 0 255
3  468 369 6  0 0 255
3  468 6 469  0 0 255
3  470 204 278  0 0 255
3  470 278 471  0 0 255
3  472 133 464  0 0 255
3  472 464 473  0 0 255
3  474 247 308  0 0 255
3  474 308 467  0 0 255
3  481 204 470  0 0 255
3  481 470 480  0 0 255
3  471 278 133  0 0 255
3  471 133 472  0 0 255
3  473 464 385  0 0 255
3  473 385 476  0 0 255
3  477 155 247  0 0 255
3  477 247 474  0 0 255
3  476 385 155  0 0 255
3  476 155 477  0 0 255
3  478 4 393  0 0 255
3  478 393 479  0 0 255
3  479 393 475  0 0 255
3  479 475 480  0 0 255
3  480 475 5  0 0 255
3  480 5 481  0 0 255
3  0 482 483  128 128 255
3  0 483 448  128 128 255
3  1 484 485  128 128 0
3  1 485 33  128 128 0
3  2 486 487  128 64 255
3  2 487 144  128 64 255
3  3 488 489  64 255 128
3  3 489 419  64 255 128
3  4 490 491  64 255 64
3  4 491 393  64 255 64
3  5 492 493  0 192 192
3  5 493 481  0 192 192
3  6 494 495  0 0 192
3  6 495 469  0 0 192
3  7 496 497  192 192 0
3  7 497 370  192 192 0
3  8 498 499  255 128 128
3  8 499 39  255 128 128
3  9 500 501  0 128 64
3  9 501 262  0 128 64
3  10 502 503  128 64 0
3  10 503 224  128 64 0
3  11 504 505  128 0 128
3  11 505 102  128 0 128
3  12 506 507  64 0 128
3  12 507 13  64 0 128
3  13 507 508  64 128 255
3  13 508 222  64 128 255
3  14 509 510  255 64 128
3  14 510 124  255 64 128
3  15 511 512  255 128 64
3  15 512 309  255 128 64
3  16 513 514  255 128 0
3  16 514 226  255 128 0
3  17 515 516  0 255 255
3  17 516 18  0 255 255
3  18 516 517  255 255 0
3  18 517 44  255 255 0
3  19 518 519  192 192 0
3  19 519 31  192 192 0
3  20 520 521  64 64 255
3  20 521 35  64 64 255
3  21 522 523  100 100 100
3  21 523 197  100 100 100
3  22 524 525  64 64 255
3  22 525 340  64 64 255
3  23 526 527  173 216 230
3  23 527 24  173 216 230
3  24 527 528  64 64 255
3  24 528 189  64 64 255
3  25 529 530  0 128 128
3  25 530 105  0 128 128
3  26 531 532  255 255 128
3  26 532 440  255 255 128
3  27 533 534  255 128 255
3  27 534 333  255 128 255
3  28 535 536  0 255 255
3  28 536 183  0 255 255
3  29 537 538  255 64 255
3  29 538 108  255 64 255
3  30 539 540  255 0 0
3  30 540 92  255 0 0
3  31 519 541  192 192 0
3  31 541 263  192 192 0
3  32 542 543  192 192 0
3  32 543 354  192 192 0
3  33 485 544  128 128 0
3  33 544 349  128 128 0
3  34 545 546  255 255 128
3  34 546 461  255 255 128
3  35 521 522  64 64 255
3  35 522 21  64 64 255
3  42 547 548  64 64 255
3  42 548 98  64 64 255
3  58 549 550  64 64 255
3  58 550 84  64 64 255
3  64 551 552  64 64 255
3  64 552 358  64 64 255
3  69 553 554  255 128 128
3  69 554 243  255 128 128
3  71 555 551  64 64 255
3  71 551 64  64 64 255
3  76 556 549  64 64 255
3  76 549 58  64 64 255
3  84 550 547  64 64 255
3  84 547 42  64 64 255
3  88 557 558  0 128 128
3  88 558 450  0 128 128
3  91 559 560  255 255 0
3  91 560 107  255 255 0
3  92 540 561  255 0 0
3  92 561 94  255 0 0
3  98 548 562  64 64 255
3  98 562 199  64 64 255
3  102 505 563  128 0 128
3  102 563 269  128 0 128
3  105 530 564  0 128 128
3  105 564 153  0 128 128
3  107 560 537  100 100 100
3  107 537 29  100 100 100
3  108 538 565  255 64 255
3  108 565 172  255 64 255
3  72 636 535  255 0 0
3  72 535 28  255 0 0
3  111 566 567  0 255 255
3  111 567 290  0 255 255
3  115 568 557  0 128 128
3  115 557 88  0 128 128
3  95 625 559  255 255 0
3  95 559 91  255 255 0
3  124 510 569  255 64 128
3  124 569 225  255 64 128
3  125 570 496  0 0 192
3  125 496 7  0 0 192
3  130 571 572  255 128 255
3  130 572 297  255 128 255
3  133 573 574  0 192 192
3  133 574 464  0 192 192
3  141 575 576  128 128 0
3  141 576 427  128 128 0
3  142 577 542  192 192 0
3  142 542 32  192 192 0
3  144 487 488  128 64 255
3  144 488 3  128 64 255
3  153 564 568  0 128 128
3  153 568 115  0 128 128
3  155 578 579  0 192 192
3  155 579 247  0 192 192
3  156 580 581  192 192 0
3  156 581 432  192 192 0
3  171 582 553  255 128 128
3  171 553 69  255 128 128
3  172 565 583  255 64 255
3  172 583 179  255 64 255
3  179 583 539  255 64 255
3  179 539 30  255 64 255
3  52 584 520  255 128 128
3  52 520 20  255 128 128
3  183 536 566  0 255 255
3  183 566 111  0 255 255
3  189 528 556  64 64 255
3  189 556 76  64 64 255
3  197 523 524  100 100 100
3  197 524 22  100 100 100
3  199 562 555  64 64 255
3  199 555 71  64 64 255
3  204 585 586  0 192 192
3  204 586 278  0 192 192
3  47 587 588  0 255 255
3  47 588 394  0 255 255
3  217 589 590  255 128 128
3  217 590 337  255 128 128
3  221 591 518  0 255 255
3  221 518 19  0 255 255
3  222 508 592  64 128 255
3  222 592 423  64 128 255
3  224 503 504  128 64 0
3  224 504 11  128 64 0
3  225 569 511  255 64 128
3  225 511 15  255 64 128
3  226 514 593  255 128 0
3  226 593 40  255 128 0
3  239 594 595  255 128 64
3  239 595 253  255 128 64
3  243 554 596  255 128 128
3  243 596 367  255 128 128
3  247 579 597  0 192 192
3  247 597 308  0 192 192
3  253 595 513  255 128 64
3  253 513 16  255 128 64
3  259 598 599  64 255 128
3  259 599 478  64 255 128
3  262 501 502  0 128 64
3  262 502 10  0 128 64
3  263 541 500  192 192 0
3  263 500 9  192 192 0
3  269 563 506  128 0 128
3  269 506 12  128 0 128
3  278 586 573  0 192 192
3  278 573 133  0 192 192
3  290 567 638  0 255 255
3  290 638 79  0 255 255
3  62 618 589  255 128 128
3  62 589 217  255 128 128
3  297 572 600  255 128 255
3  297 600 444  255 128 255
3  308 597 601  0 192 192
3  308 601 369  0 192 192
3  309 512 602  255 128 64
3  309 602 327  255 128 64
3  322 603 486  128 128 0
3  322 486 2  128 128 0
3  327 602 594  255 128 64
3  327 594 239  255 128 64
3  55 639 533  255 128 0
3  55 533 27  255 128 0
3  333 534 604  255 128 255
3  333 604 378  255 128 255
3  337 590 582  255 128 128
3  337 582 171  255 128 128
3  340 525 526  64 64 255
3  340 526 23  64 64 255
3  349 544 575  128 128 0
3  349 575 141  128 128 0
3  354 543 498  192 192 0
3  354 498 8  192 192 0
3  358 552 515  64 64 255
3  358 515 17  64 64 255
3  367 596 637  255 128 128
3  367 637 61  255 128 128
3  369 601 494  0 192 192
3  369 494 6  0 192 192
3  370 497 580  192 192 0
3  370 580 156  192 192 0
3  378 604 571  255 128 255
3  378 571 130  255 128 255
3  385 605 578  0 192 192
3  385 578 155  0 192 192
3  393 491 606  64 255 64
3  393 606 475  64 255 64
3  394 588 591  0 255 255
3  394 591 221  0 255 255
3  419 489 598  64 255 128
3  419 598 259  64 255 128
3  423 592 509  64 128 255
3  423 509 14  64 128 255
3  427 576 603  128 128 0
3  427 603 322  128 128 0
3  432 581 577  192 192 0
3  432 577 142  192 192 0
3  440 532 607  255 255 128
3  440 607 56  255 255 128
3  442 608 529  255 128 255
3  442 529 25  255 128 255
3  41 640 545  255 255 128
3  41 545 34  255 255 128
3  444 600 608  255 128 255
3  444 608 442  255 128 255
3  448 483 484  128 128 255
3  448 484 1  128 128 255
3  450 558 531  0 128 128
3  450 531 26  0 128 128
3  461 546 482  255 255 128
3  461 482 0  255 255 128
3  464 574 605  0 192 192
3  464 605 385  0 192 192
3  469 495 570  0 0 192
3  469 570 125  0 0 192
3  475 606 492  64 255 64
3  475 492 5  64 255 64
3  478 599 490  64 255 128
3  478 490 4  64 255 128
3  481 493 585  0 192 192
3  481 585 204  0 192 192
3  610 617 612  255 0 255
3  609 630 610  255 0 255
3  526 617 633  255 0 255
3  615 612 616  255 0 255
3  609 631 630  255 0 255
3  516 526 633  255 0 255
3  624 623 632  255 0 255
3  623 622 619  255 0 255
3  620 619 621  255 0 255
3  632 626 617  255 0 255
3  630 632 610  255 0 255
3  610 632 617  255 0 255
3  610 612 611  255 0 255
3  612 614 613  255 0 255
3  612 615 614  255 0 255
3  628 617 526  255 0 255
3  628 627 617  255 0 255
3  612 617 616  255 0 255
3  619 626 632  255 0 255
3  623 619 632  255 0 255
3  526 629 628  255 0 255
3  526 515 527  255 0 255
3  526 516 515  255 0 255
3  516 633 634  255 0 255
3  633 617 626  255 0 255
3  634 633 635  255 0 255
3  506 621 619  255 0 255
3  622 506 619  255 0 255
3  507 506 622  255 0 255

