OFF
216 225 0

6.33399 9.5509 -1.56242
6.33399 9.5509 1.78232
6.33399 9.5509 -2.11935
6.33399 9.5509 -6.54876
4.44463 8.2342 -6.54876
4.00271 7.92622 -6.54876
3.2109 7.37441 -6.54876
3.2109 7.37441 -2.12919
3.2109 7.37441 1.52521
3.2109 7.37441 1.76965
4.00271 7.92622 1.77286
4.44463 8.2342 1.77465
9.33764 5.65669 -1.82721
8.66603 5.18023 -2.08403
5.50962 2.94101 -6.54876
7.2793 4.19645 -6.54876
9.33764 5.65668 -6.54876
9.33764 5.65669 -2.08196
9.33763 5.65669 1.76922
8.66603 5.18024 1.76646
8.66603 5.18024 -1.15942
7.2793 4.19646 -2.08832
5.50961 2.94102 -2.09379
5.91172 2.34668 -2.08844
15.077 -11.2001 -1.96657
-13.4072 -11.3602 -2.14813
-10.5868 -15.6242 -2.11019
7.33983 -18.5156 -1.98196
10.2461 -18.9844 -1.96117
14.0552 -16.5597 -1.9481
14.5906 -13.7515 -1.95778
2.73467 7.04252 1.76772
5.91172 2.34668 -6.54876
2.73467 7.04252 -6.54876
2.73467 7.04252 -2.13069
5.50961 2.94103 1.7535
-13.4072 -11.3602 -6.54876
-11.812 -10.2284 -6.54876
-3.43825 -4.28718 -6.54876
7.69144 3.6094 -6.54876
7.69144 3.6094 -2.08294
5.91173 2.34668 1.75143
-3.43825 -4.28718 1.71302
-3.51523 -4.3418 1.7127
-13.4072 -11.3602 1.67206
-5.23902 -20.0049 -6.54876
-7.98774 -19.5536 -6.54876
0.918042 -21.0156 -6.54876
0.918042 -21.0156 -2.85608
0.918042 -21.0156 -2.0114
0.918042 -21.0156 1.64725
-7.98774 -19.5536 1.64351
-7.98774 -19.5536 -2.07522
3.01182 -21.3593 -1.99639
3.01182 -21.3593 -1.60034
-15.4469 13.5423 1.77491
-10.2251 5.71548 1.74769
-12.2986 13.6222 3.93364
-4.86745 1.74458 3.55977
-13.1992 15.0617 3.97895
-16.4744 15.0824 1.78027
-17.923 17.2536 1.78782
-17.9711 17.2211 1.74068
-17.9711 17.1316 1.70014
-16.5476 15.0336 1.70888
-6.67577 0.484347 1.76947
-5.03245 18.5227 2.04371
0.156075 10.8538 2.01186
-5.98856 19.9359 2.04957
-7.78175 18.7238 3.80545
-7.96766 18.5981 3.9875
-7.01878 17.1831 3.98732
-0.492755 7.45131 3.98611
-0.314134 8.38801 3.44261
-7.89206 -16.0588 -6.54876
-10.5868 -15.6242 -6.54876
5.16078 -18.1642 -6.54876
6.07773 -18.3121 -6.54876
7.33983 -18.5156 -6.54876
7.33983 -18.5156 1.66496
6.07773 -18.3121 1.66441
5.77246 -18.2628 1.66428
5.16078 -18.1642 1.66401
-10.5868 -15.6242 1.6572
-5.98856 19.9359 3.74802
0.156113 10.8538 3.44481
0.156129 10.8537 4.04767
-8.83187 20.1772 3.85647
-8.96644 20.0875 3.98768
-5.03245 18.5227 3.70084
-6.98487 21.4085 2.05569
1.18597 6.31175 3.36972
2.34127 7.624 1.99845
0.721977 5.63987 3.98589
-10.4522 22.3031 3.98796
1.35345 6.07994 3.36158
-10.3955 22.3414 3.93245
15.077 -11.2001 1.70445
14.5906 -13.7515 1.69314
7.27929 4.19646 0.219409
7.27929 4.19647 1.76077
5.73548 3.10126 1.75442
8.47217 4.16333 -0.569418
8.47217 4.16333 1.76195
5.5675 10.2103 -1.34382
4.19921 9.73437 -0.20683
4.19921 9.73437 1.78071
5.5675 10.2103 1.78425
17.8711 -10.8906 -6.54876
17.8711 -10.8906 -1.95013
17.2107 -14.3538 -1.9382
17.2107 -14.3538 -6.54876
15.7202 -7.82691 -6.54876
15.0771 -11.2001 -6.54876
-17.9711 17.1316 -2.20408
-16.5476 15.0336 -2.22386
-6.98487 21.4085 -2.29837
-8.48824 23.6305 -2.27745
-17.9711 17.2211 -2.20382
0.392006 5.40991 -6.54876
0.392006 5.40991 1.75822
3.56622 9.01538 0.544501
3.56622 9.01538 1.77697
5.5675 10.2103 -6.54876
4.19921 9.73437 -6.54876
3.49338 8.67901 0.745531
3.49338 8.67901 1.77547
3.56622 9.01538 -6.54876
3.49338 8.67901 -6.54876
-5.6991 22.2656 -2.30838
-5.98856 19.9359 -2.31223
-4.70835 20.8013 -2.32217
-3.7513 19.3868 -2.33548
-5.03245 18.5227 -2.32553
-5.98856 19.9359 -6.54876
-5.98856 19.9359 1.81243
-4.70834 20.8013 -6.54876
3.01182 -21.3593 1.64813
2.34347 -21.2496 -2.00118
9.76163 5.07821 -1.85159
9.76163 5.07821 1.76725
6.43286 9.61981 -1.66018
6.43286 9.61981 1.78272
-5.6991 22.2656 -6.54876
-6.98487 21.4085 -6.54876
-6.98487 21.4085 1.81754
1.53938 8.80921 -6.54876
1.53939 8.80922 1.77385
-3.09002 -23.7094 1.63142
-3.09002 -23.7094 -2.02448
5.53765 -17.9109 1.6655
6.3674 -19.1546 1.66118
9.76163 5.07821 -2.07654
3.01182 -21.3593 -6.54876
2.34127 7.624 1.76974
2.34126 7.624 -6.54876
9.76163 5.07821 -6.54876
-14.5566 12.0993 4.00599
-14.5566 12.0993 1.76981
15.7202 -7.82688 -1.97819
6.43286 9.61981 -6.54876
-5.03245 18.5227 -6.54876
6.43286 9.61981 -2.11904
16.1223 -12.7451 -1.95267
2.96467 7.20281 1.76865
-2.8547 -23.5512 -6.54876
5.72163 -17.7872 -6.54876
10.2461 -18.9844 1.66621
-8.48824 23.6305 -6.54876
-17.9711 17.2211 -6.54876
-17.9711 17.2211 1.78763
-8.48824 23.6305 1.82525
6.56243 -19.0264 1.66193
6.56243 -19.0264 -1.98455
6.56243 -19.0264 -6.54876
16.1223 -12.7451 -6.54876
-6.67577 0.484347 3.61738
-15.5668 18.8461 4.09807
-6.67577 0.484347 -6.54876
-6.67577 0.484347 -2.16032
-5.23899 -23.7094 -2.03824
-10.6578 -2.29074 -2.17285
-16.6458 -6.46379 -2.19171
-6.67577 0.484347 1.72956
2.60294 -21.628 -1.99776
-5.98856 19.9359 4.04767
-13.0675 20.5354 6.54872
-16.5476 15.0336 1.77998
-5.23899 -23.7094 -6.54876
-1.85933 3.84094 6.53789
-5.23899 -23.7094 1.62902
-16.5476 15.0336 -6.54876
-15.5078 13.5012 1.77467
-15.5078 13.5012 4.05289
-17.9711 17.1316 -6.54876
-17.9711 17.1316 1.78725
8.47217 4.16333 -2.08053
-8.48824 23.6305 2.06492
2.73467 7.04252 1.99604
8.87673 6.28552 -1.8007
8.87673 6.28552 1.77136
-3.7513 19.3868 -6.54876
-6.71626 0.456132 1.72939
-15.0778 -5.37104 -6.54876
-5.03245 18.5227 1.80753
-5.03245 18.5227 4.04767
-16.6458 -6.46379 -6.54876
-16.6458 -6.46379 1.68912
10.2461 -18.9844 -6.54876
14.0551 -16.5597 1.68069
17.304 -14.4916 -6.54876
-16.9805 17.8906 -6.54876
-16.9805 17.8907 -2.21151
17.304 -14.4916 -1.93696
-3.09002 -23.7094 -6.54876
-15.4975 15.7336 -6.54876
4  194 169 118 114  255 0 0
5  195 170 61 60 187  255 127 0
5  194 191 215 211 169  255 0 0
4  195 63 62 170  255 127 0
4  195 187 64 63  255 127 0
4  194 114 115 191  255 0 0
5  188 214 165 45 46  255 255 0
4  190 148 149 180  255 255 0
4  188 180 149 214  255 255 0
4  190 51 50 148  255 255 0
4  190 180 52 51  255 255 0
4  188 46 52 180  255 255 0
3  33 155 119  255 0 0
6  33 14 15 4 5 6  127 255 0
6  31 35 41 42 183 120  0 255 0
5  31 154 155 33 34  255 0 0
7  178 191 115 64 56 183 179  255 0 0
6  178 38 32 14 33 119  0 255 0
4  183 42 43 202  0 255 0
9  178 119 155 146 161 134 144 215 191  255 0 0
5  210 111 175 78 208  0 255 127
4  210 213 110 111  0 255 127
5  210 208 28 29 213  0 255 127
4  206 36 37 203  0 255 0
4  207 44 25 182  0 255 0
4  207 202 43 44  0 255 0
4  178 203 37 38  0 255 0
4  206 182 25 36  0 255 0
4  183 202 181 179  0 255 0
4  207 182 181 202  0 255 0
4  206 203 181 182  0 255 0
4  178 179 181 203  0 255 0
4  31 164 101 35  127 255 0
5  31 34 7 8 164  127 255 0
4  33 6 7 34  127 255 0
5  213 29 30 163 110  0 255 127
3  183 56 65  255 0 0
14  31 198 92 67 66 68 90 197 171 145 135 204 147 154  255 0 0
9  183 65 58 189 93 95 198 31 120  255 0 0
7  171 197 96 94 186 177 61  255 0 0
4  198 95 91 92  255 0 0
4  197 90 87 96  255 0 0
5  56 158 157 176 65  255 127 0
3  65 176 58  255 127 0
8  186 94 88 70 71 72 93 189  255 0 0
6  189 58 57 59 177 186  255 0 0
5  61 177 59 55 60  255 0 0
5  174 77 76 47 153  0 255 255
3  184 138 54  0 255 255
3  184 53 138  0 255 255
4  173 174 153 53  0 255 255
4  58 176 157 57  255 127 0
7  175 113 32 38 166 77 78  0 255 127
5  175 111 108 112 113  0 255 127
3  174 78 77  0 255 255
3  163 30 24  0 255 127
4  174 173 27 78  0 255 255
3  172 80 79  0 255 255
4  173 172 79 27  0 255 255
4  168 144 116 117  255 0 0
4  168 211 215 144  255 0 0
4  171 117 116 145  255 0 0
6  171 61 62 118 212 117  255 0 0
3  61 170 62  255 127 0
4  169 211 212 118  255 0 0
4  168 117 212 211  255 0 0
6  164 9 10 11 100 101  127 255 0
3  164 8 9  127 255 0
4  167 209 29 28  0 127 255
4  79 98 209 167  0 127 255
4  27 79 167 28  0 127 255
5  166 38 37 74 76  0 255 127
3  165 47 45  255 255 0
3  166 76 77  0 255 127
3  165 48 47  255 255 0
7  4 3 123 124 127 128 5  0 0 255
5  4 15 16 160 3  127 255 0
5  163 24 159 109 110  0 255 127
6  11 1 142 200 19 100  127 255 0
7  11 10 126 122 106 107 1  0 0 255
4  162 2 3 160  127 255 0
4  162 160 16 17  127 255 0
4  112 108 109 159  0 255 127
4  112 39 32 113  0 255 127
4  159 40 39 112  0 255 127
4  97 41 23 24  0 127 255
4  24 23 40 159  0 255 127
4  78 27 28 208  0 255 127
4  141 0 2 162  127 255 0
5  141 162 17 12 199  127 255 0
4  158 192 193 157  255 127 0
5  158 56 64 187 192  255 127 0
4  157 193 59 57  255 127 0
3  5 128 6  0 0 255
4  156 16 15 39  127 0 255
4  152 17 16 156  127 0 255
4  40 21 13 196  127 0 255
4  39 15 14 32  127 0 255
5  40 196 152 156 39  127 0 255
5  125 8 7 6 128  0 0 255
4  154 147 146 155  255 0 0
6  41 97 98 79 80 42  0 127 255
4  41 35 22 23  0 255 0
4  23 22 21 40  127 0 255
4  47 76 74 45  0 255 255
5  47 48 138 53 153  0 255 255
4  139 12 17 152  127 0 255
4  139 152 196 102  127 0 255
4  151 81 80 172  0 255 255
5  151 137 50 82 81  0 255 255
3  151 54 137  0 255 255
3  150 81 82  0 127 255
5  150 43 42 80 81  0 127 255
5  150 82 83 44 43  0 127 255
4  149 148 50 49  255 255 0
5  147 204 133 161 146  255 0 0
4  144 134 136 143  255 0 255
4  143 136 131 129  255 0 255
4  145 116 130 135  255 0 0
4  144 143 129 116  255 0 255
4  142 1 0 141  127 255 0
4  142 141 199 200  127 255 0
4  140 18 12 139  127 0 255
4  140 103 19 18  127 0 255
4  140 139 102 103  127 0 255
5  49 50 137 54 138  0 255 255
4  209 98 30 29  0 127 255
4  201 136 134 161  255 0 255
4  204 135 130 133  255 0 0
4  201 132 131 136  255 0 255
4  161 133 132 201  255 0 255
5  214 149 49 48 165  255 255 0
4  52 26 83 51  0 255 255
4  51 83 82 50  0 255 255
3  184 54 53  0 255 255
5  54 151 172 173 53  0 255 255
4  192 187 60 55  255 127 0
4  59 193 192 55  255 127 0
4  132 133 130 131  255 0 255
4  131 130 116 129  255 0 255
4  125 128 127 121  0 0 255
5  0 104 123 3 2  0 0 255
4  121 127 124 105  0 0 255
3  10 9 126  0 0 255
4  45 74 75 46  0 255 255
4  46 75 26 52  0 255 255
4  126 125 121 122  0 0 255
4  18 200 199 12  127 255 0
3  18 19 200  127 255 0
4  99 100 19 20  127 255 0
5  22 35 101 99 21  127 255 0
4  21 99 20 13  127 255 0
4  104 105 124 123  0 0 255
4  1 107 104 0  0 0 255
4  122 121 105 106  0 0 255
4  118 62 63 114  255 0 0
4  114 63 64 115  255 0 0
4  111 110 109 108  0 255 127
4  107 106 105 104  0 0 255
4  19 103 102 20  127 0 255
3  101 100 99  127 255 0
4  98 97 24 30  0 127 255
5  95 93 72 73 91  255 0 0
4  96 87 88 94  255 0 0
4  91 73 67 92  255 0 0
4  87 69 70 88  255 0 0
4  90 68 69 87  255 0 0
4  66 67 85 89  255 0 127
4  89 84 68 66  255 0 127
4  89 85 86 205  255 0 127
3  73 85 67  255 0 127
4  84 89 205 185  255 0 127
3  84 69 68  255 0 127
4  71 70 185 205  255 0 127
4  205 86 72 71  255 0 127
4  72 86 85 73  255 0 127
4  20 102 196 13  127 0 255
4  126 9 8 125  0 0 255
4  185 70 69 84  255 0 127
3  48 49 138  0 255 255
8  120 31 34 33 119 178 179 183  255 0 0
8  31 120 183 179 178 119 33 34  0 255 0
4  75 36 25 26  0 255 127
4  26 25 44 83  0 127 255
4  74 37 36 75  0 255 127
7  26 75 74 76 77 78 27  0 255 255
7  75 26 27 78 77 76 74  0 255 127
7  83 26 27 79 80 81 82  0 255 255
7  26 83 82 81 80 79 27  0 127 255
6  130 133 161 134 144 116  255 0 255
6  133 130 116 144 134 161  255 0 0
8  73 67 66 68 69 70 71 72  255 0 127
8  67 73 72 71 70 69 68 66  255 0 0
6  65 58 57 59 55 56  255 127 0
6  58 65 56 55 59 57  255 0 0
7  64 56 55 60 61 62 63  255 127 0
7  56 64 63 62 61 60 55  255 0 0
8  52 46 45 47 48 49 50 51  255 255 0
8  46 52 51 50 49 48 47 45  0 255 255
3  25 36 23  0 255 127
3  36 25 23  0 255 0
6  44 25 23 41 42 43  0 127 255
6  25 44 43 42 41 23  0 255 0
4  40 23 32 39  0 255 127
4  23 40 39 32  127 0 255
5  38 32 23 36 37  0 255 127
5  32 38 37 36 23  0 255 0
3  23 32 22  127 0 255
3  32 23 22  0 255 0
3  35 22 31  127 255 0
3  22 35 31  0 255 0
5  34 31 22 14 33  127 255 0
5  31 34 33 14 22  0 255 0
3  32 14 22  127 0 255
3  32 22 14  0 255 0
8  30 24 23 25 26 27 28 29  0 127 255
8  24 30 29 28 27 26 25 23  0 255 127
4  22 14 13 21  127 0 255
4  14 22 21 13  127 255 0
5  20 13 12 18 19  127 0 255
5  13 20 19 18 12  127 255 0
6  17 12 13 14 15 16  127 0 255
6  12 17 16 15 14 13  127 255 0
12  11 1 0 2 3 4 5 6 7 8 9 10  0 0 255
12  1 11 10 9 8 7 6 5 4 3 2 0  127 255 0

