OFF
281 251 0

5.80516 -13.4391 10.9035
9.72 -7.28725 10.9035
5.25406 -14.3051 10.9035
3.18481 -17.5568 10.9035
6.73263 -19.8083 10.9035
9.59245 -21.6232 10.9035
11.6977 -18.5075 10.9035
12.3008 -17.6149 10.9035
16.36 -11.6072 10.9035
12.3464 6.10873 -15.8055
4.52 11.0328 -9.56554
-18.7751 25.689 0.947463
-26.76 30.7128 -9.56554
-26.76 30.7128 0.947463
-26.76 30.7128 -15.8055
4.52 11.0328 -15.8055
12.3464 6.10873 -9.56554
4.52 11.0328 0.947463
0.151464 13.7813 0.947463
-4.46162 16.6836 0.947463
-30.503 24.7019 10.9035
-26.76 30.7128 10.9035
-32.1524 22.053 10.9035
-37.4501 13.5454 10.9035
-30.04 8.71275 10.9035
-29.4427 8.32322 10.9035
-24.1002 17.0204 10.9035
-22.52 19.5928 10.9035
-18.7751 25.689 10.9035
-14.0053 1.3808 10.9035
-6.7987 -6.44463 10.9035
-16.2509 12.1146 10.9035
-20.68 5.51276 10.9035
-14.9333 -0.107257 10.9035
-15.3909 -0.840992 10.9035
-1.66358 -9.79363 10.9035
-1.15227 -8.96651 10.9035
4.04 -0.567245 10.9035
-0.966107 2.56157 10.9035
-9.81841 8.09426 10.9035
0.151464 13.7813 2.14746
2.4942 17.393 0.947463
13.4585 -9.7195 13.8355
13.4585 -9.7195 12.4155
9.42667 -15.7672 13.8355
8.8416 -16.6448 13.8355
8.8416 -16.6448 12.4155
0.151464 13.7813 4.22745
13.4585 -9.7195 15.7055
9.42667 -15.7672 15.7055
28.4248 -29.4165 10.9035
26.4994 -32.3526 10.9035
-30.503 24.7019 12.4155
1.31372 -20.4971 10.9035
7.64047 -24.5122 10.9035
-30.04 8.71275 13.8355
-30.04 8.71275 12.4155
-30.503 24.7019 13.8355
-30.04 8.71275 15.7055
-25.4609 17.8708 15.7055
34.7544 -19.7638 10.9035
33.0028 -22.435 10.9035
35.9801 -24.3721 10.9035
-1.15122 26.3733 2.14746
-1.15122 26.3733 0.947463
-2.2 24.7128 0.947463
-2.2 24.7128 2.14746
-5.28007 -18.9174 12.4155
-5.28007 -18.9174 10.9035
-4.10566 -17.0579 10.9035
-4.10566 -17.0579 12.4155
3.59005 -1.29511 12.4155
-1.15227 -8.96651 13.835
-1.32775 -8.85369 13.8355
29.7217 -34.3976 10.9035
29.7217 -34.3976 0.947463
-27.6832 -4.92592 0.947463
-27.6832 -4.92592 -9.56554
5.5859 22.1594 2.14746
5.5859 22.1594 0.947463
4.54841 20.5599 0.947463
4.54841 20.5599 2.14746
2.4942 17.393 2.14746
4.54841 20.5599 4.22745
2.4942 17.393 4.22745
-0.215726 23.4917 2.14746
-0.215726 23.4917 4.22745
-2.14649 20.3958 2.14746
-2.14649 20.3958 4.22745
4.52 11.0328 4.22745
-4.46162 16.6836 4.22745
8.93982 17.8575 0.947463
-2.14649 20.3958 0.947463
6.82443 14.5911 0.947463
0.814595 25.1437 2.14746
4.52 11.0328 2.14746
19.3396 -7.19738 10.9035
11.1633 -5.01928 10.9035
12.5446 -2.84857 10.9035
16.5584 3.45875 10.9035
0.157826 -22.3135 10.9035
0.157826 -22.3135 0.947463
31.5563 -31.4588 10.9035
31.5563 -31.4588 0.947463
-34.837 -0.458128 0.947463
-34.837 -0.458128 10.3682
-34.837 -0.458128 10.9035
-10.8856 -12.7552 10.9035
-12.1127 -14.6501 10.9035
0.515824 4.84984 10.9035
-8.99103 -9.82984 10.9035
4.52 11.0328 10.9035
-12.1127 -14.6501 0.947463
-2.24462 -14.1112 10.9035
-2.24462 -14.1112 12.4155
6.73263 -19.8083 12.4155
-4.12 21.6728 0.947463
-4.12 21.6728 2.14746
-8.10749 24.2529 0.947463
-6.16289 27.1515 0.947463
-6.16289 27.1515 2.14746
-8.10749 24.2529 2.14746
0.0018014 -19.6645 12.4155
0.0018014 -19.6645 10.9035
-1.19918 -21.466 10.9035
-1.19918 -21.466 12.4155
13.4 -28.1672 12.4155
13.4 -28.1672 10.9035
12.318 -29.9079 10.9035
12.318 -29.9079 12.4155
8.13918 -27.2981 12.4155
8.13918 -27.2981 10.9035
9.24 -25.5272 10.9035
9.24 -25.5272 12.4155
-14.0521 1.30585 12.4155
-16.393 2.85892 12.4155
-12.0546 4.5087 13.0115
-20.5917 5.64441 12.4155
-26.0804 13.7967 13.0092
-28.0491 10.5919 12.4155
-2.2 24.7128 4.22745
-4.12 21.6728 4.22745
12.3008 -17.6149 12.4155
11.6977 -18.5075 12.4155
11.6977 -18.5075 13.8355
12.3008 -17.6149 13.8355
-1.15227 -8.96651 12.4155
-1.66358 -9.79363 12.4155
-1.66358 -9.79363 13.8355
-1.15227 -8.96651 13.8355
5.25406 -14.3051 13.8355
5.25406 -14.3051 12.4155
5.80516 -13.4391 12.4155
5.80516 -13.4391 13.8355
-5.04922 28.8115 0.947463
-5.04922 28.8115 2.14746
9.72 -7.28725 13.8355
9.72 -7.28725 12.4155
16.36 -11.6072 12.4155
16.36 -11.6072 13.8355
-22.52 19.5928 12.4155
-22.52 19.5928 13.8355
12.3464 6.10873 0.947463
16.5584 3.45875 2.14746
-42.9968 4.63792 10.3264
-20.6701 -9.30581 10.4407
1.9355 -16.764 12.4155
1.9355 -16.764 10.9035
-6.16289 27.1515 4.22745
-8.10749 24.2529 4.22745
9.72 -7.28725 15.7055
16.36 -11.6072 15.7055
38.8905 -19.7099 10.9035
40.2203 -11.4283 0.947463
40.2203 -11.4283 10.9035
23.5623 -0.947816 0.947463
23.5623 -0.947816 10.9035
-0.215726 23.4917 0.947463
-14.6634 32.3825 0.947463
-16.3723 29.6007 0.947463
-5.577 -16.1242 10.9035
15.24 -25.2072 12.4155
15.24 -25.2072 10.9035
-14.0053 1.3808 12.4155
-20.68 5.51276 12.4155
5.5859 22.1594 -9.56554
-16.3881 11.9101 12.4155
-10.051 7.72139 12.4155
-14.8244 0.0673974 13.8355
-28.8282 9.32366 13.8355
-24.1057 17.0114 12.4155
-26.76 30.7128 2.14746
-18.7751 25.689 2.14746
11.08 -22.5672 10.9035
11.08 -22.5672 12.4155
27.8762 -37.3541 10.9035
6.46467 -26.2523 10.9035
9.59245 -21.6232 12.4155
-3.74431 -13.1595 10.9035
-6.74006 -18.0056 10.9035
-17.5926 -4.37117 10.9035
3.18481 -17.5568 12.4155
16.5584 3.45875 0.947463
-18.7751 25.689 4.22745
-4.46162 16.6836 2.14746
0.814595 25.1437 0.947463
-4.46162 16.6836 10.9035
-13.5795 34.147 0.947463
-30.503 24.7019 15.7055
-22.52 19.5928 15.7055
-0.0834362 -7.23751 13.8355
-0.0834362 -7.23751 15.7055
-14.0053 1.3808 15.7055
-14.0053 1.3808 13.8355
-20.6701 -9.30581 -9.56554
-20.6701 -9.30581 0.947463
-18.7751 25.689 13.8355
-18.7751 25.689 12.4155
-24.1002 17.0204 12.4155
-24.1002 17.0204 13.8355
-20.6701 -9.30581 10.9035
-29.4427 8.32322 12.4155
4.04 -0.567245 13.8355
-1.15227 -8.96651 15.7055
4.04 -0.567245 15.7055
17.6849 14.5916 -9.56554
-12.1127 -14.6501 -9.56554
-14.9333 -0.107257 12.4155
-14.9333 -0.107257 13.8355
-15.3909 -0.840992 13.8355
-15.3909 -0.840992 12.4155
-9.81841 8.09426 12.4155
-9.81841 8.09426 13.8355
37.7055 -21.6082 0.947463
37.7055 -21.6082 10.9035
0.814595 25.1437 -9.56554
32.2091 -30.4131 10.9035
-32.1524 22.053 15.7055
17.9467 -9.25893 10.9035
-32.1524 22.053 13.8355
-37.4501 13.5454 13.8355
-37.4501 13.5454 15.7055
-29.4427 8.32322 13.8355
-16.2509 12.1146 12.4155
-37.4501 13.5454 0.947463
-24.1002 17.0204 15.7055
-22.0354 3.49238 10.9035
-29.4427 8.32322 15.7055
-32.1524 22.053 12.4155
-37.4501 13.5454 12.4155
-18.4932 8.77238 13.0105
42.9774 -13.1629 -9.56554
42.9774 -13.1629 -15.8055
26.8564 -38.9876 -15.8055
42.9774 -13.1629 0.947463
-19.4369 -7.32845 10.9035
26.8564 -38.9876 -9.56554
26.8564 -38.9876 0.947463
12.3008 -17.6149 15.7055
4.04 -0.567245 12.4155
17.6849 14.5916 -15.8055
42.9774 -13.1629 10.9035
26.8564 -38.9876 10.9035
-26.76 30.7128 13.8355
5.80516 -13.4391 15.7055
9.9557 19.4261 -9.56554
9.9557 19.4261 -15.8055
-14.9333 -0.107257 15.7055
-21.5263 39.1176 -9.56554
-21.5263 39.1176 -15.8055
-9.81841 8.09426 15.7055
-3.93263 -19.7589 -15.8055
-26.76 30.7128 12.4155
-3.93263 -19.7589 -9.56554
9.9557 19.4261 0.947463
-21.5263 39.1176 0.947463
-42.9968 4.63792 -9.56554
-42.9968 4.63792 10.9035
-42.9968 4.63792 0.947463
-42.9968 4.63792 -15.8055
-12.1127 -14.6501 -15.8055
5  278 104 76 77 276  255 0 0
4  13 11 192 191  255 0 0
5  13 244 278 276 12  255 0 0
6  276 77 214 226 280 279  255 0 0
4  277 106 105 164  255 0 0
5  277 23 24 25 106  255 0 0
4  278 164 105 104  255 0 0
5  21 191 192 203 28  255 0 0
7  21 20 22 23 244 13 191  255 0 0
5  278 244 23 277 164  255 0 0
4  279 280 15 14  255 0 0
4  14 15 266 269  203 255 0
4  12 276 279 14  255 0 0
6  13 275 207 178 179 11  203 255 0
4  13 12 268 275  203 255 0
7  268 235 205 64 154 207 275  203 255 0
4  10 16 162 17  255 0 0
4  17 18 41 93  203 255 0
5  17 162 202 163 95  255 0 0
4  265 225 16 10  203 255 0
4  274 79 185 265  203 255 0
4  274 91 80 79  203 255 0
6  17 93 91 274 265 10  203 255 0
4  21 28 217 272  0 255 102
4  21 272 52 20  0 255 102
4  262 128 127 195  255 0 0
4  261 174 173 254  255 0 0
5  261 172 96 176 174  255 0 0
4  272 263 57 52  0 255 102
4  272 217 216 263  0 255 102
4  12 14 269 268  203 255 0
6  265 185 235 268 269 266  203 255 0
4  15 9 260 266  203 255 0
4  266 260 225 265  203 255 0
4  263 216 161 57  0 255 102
7  254 173 175 202 162 16 251  255 0 0
7  257 101 100 196 131 128 262  255 0 0
5  262 195 74 75 257  255 0 0
5  254 233 234 172 261  255 0 0
4  9 252 251 16  255 0 0
4  9 15 280 271  255 0 0
4  16 225 260 9  203 255 0
4  102 74 51 50  255 0 0
6  102 236 62 234 233 103  255 0 0
4  23 22 248 249  0 255 102
4  249 248 239 240  0 255 102
5  102 50 6 7 236  255 0 0
4  249 56 24 23  0 255 102
4  22 20 52 248  0 255 102
4  248 52 57 239  0 255 102
4  234 62 61 60  255 0 0
5  234 60 238 96 172  255 0 0
8  256 273 226 214 215 112 101 257  255 0 0
7  257 75 103 233 254 251 256  255 0 0
4  240 239 237 241  0 255 102
4  240 55 56 249  0 255 102
4  239 57 208 237  0 255 102
4  241 237 59 58  0 255 102
4  241 58 55 240  0 255 102
5  237 208 209 245 59  0 255 102
4  221 56 55 242  0 255 102
4  25 24 56 221  0 255 102
7  25 246 34 200 255 220 106  255 0 0
5  26 31 32 246 25  255 0 0
6  221 139 190 218 26 25  0 255 102
4  253 271 273 256  255 0 0
4  252 9 271 253  255 0 0
4  256 251 252 253  255 0 0
4  247 58 59 245  0 255 102
4  242 55 58 247  0 255 102
5  247 245 219 189 242  0 255 102
5  242 189 138 139 221  0 255 102
5  218 190 138 189 219  0 255 102
5  34 246 32 29 33  255 0 0
4  34 30 110 200  255 0 0
5  230 147 35 30 34  0 102 255
5  39 38 37 259 231  0 102 255
6  39 31 26 27 109 38  255 0 0
4  231 243 31 39  0 102 255
4  231 259 222 232  0 102 255
4  231 187 186 243  0 102 255
4  34 33 227 230  0 102 255
5  33 29 183 134 227  0 102 255
5  236 7 8 61 62  255 0 0
4  235 185 79 205  203 255 0
4  229 148 147 230  0 102 255
4  232 222 224 270  0 102 255
5  229 228 73 149 148  0 102 255
6  232 213 188 136 187 231  0 102 255
5  227 134 136 188 228  0 102 255
4  230 227 228 229  0 102 255
4  226 273 271 280  255 0 0
4  270 224 211 212  0 102 255
4  270 212 213 232  0 102 255
5  228 188 213 212 267  0 102 255
4  267 212 211 223  0 102 255
5  228 267 223 149 73  0 102 255
4  153 44 45 150  204 0 255
4  264 49 44 153  204 0 255
4  264 170 48 49  204 0 255
4  153 156 170 264  204 0 255
5  215 76 104 105 165  255 0 0
5  220 108 112 215 165  255 0 0
4  220 165 105 106  255 0 0
5  97 37 38 109 98  255 0 0
4  97 238 8 1  255 0 0
5  0 36 37 97 1  255 0 0
4  0 1 157 152  204 0 255
4  152 157 156 153  204 0 255
4  223 211 210 149  0 102 255
4  222 210 211 224  0 102 255
4  36 0 2 35  255 0 0
5  146 71 259 37 36  0 102 255
6  149 210 222 259 71 72  0 102 255
3  146 72 71  0 102 255
4  258 49 48 171  204 0 255
4  145 44 49 258  204 0 255
4  258 171 159 145  204 0 255
5  28 206 111 109 27  255 0 0
4  218 160 27 26  0 255 102
4  28 27 160 217  0 255 102
4  245 209 161 219  0 255 102
6  243 186 137 184 32 31  0 102 255
4  238 97 98 96  255 0 0
4  238 60 61 8  255 0 0
4  142 158 8 7  204 0 255
4  220 255 107 108  255 0 0
4  219 161 160 218  0 255 102
4  217 160 161 216  0 255 102
4  145 159 158 142  204 0 255
4  214 77 76 215  255 0 0
4  209 208 57 161  0 255 102
4  205 79 78 94  203 255 0
5  111 206 90 47 89  255 0 0
4  111 99 98 109  255 0 0
4  17 95 40 18  255 0 0
5  111 89 95 163 99  255 0 0
4  11 19 204 192  255 0 0
4  207 154 119 178  203 255 0
4  28 203 90 206  255 0 0
6  11 179 118 116 92 19  203 255 0
4  19 18 40 204  255 0 0
4  205 177 65 64  203 255 0
4  19 92 41 18  203 255 0
4  205 94 85 177  203 255 0
4  204 90 203 192  255 0 0
4  90 204 40 47  255 0 0
4  87 85 86 88  203 255 0
5  202 175 176 99 163  255 0 0
4  99 176 96 98  255 0 0
4  100 124 123 53  255 0 0
4  151 46 115 201  204 0 255
8  2 3 167 113 198 110 30 35  255 0 0
4  100 53 54 196  255 0 0
4  151 201 3 2  204 0 255
4  74 102 103 75  255 0 0
5  74 195 127 182 51  255 0 0
4  3 53 123 167  255 0 0
5  3 4 5 54 53  255 0 0
4  201 115 4 3  204 0 255
4  200 110 107 255  255 0 0
7  199 68 124 100 101 112 108  255 0 0
4  199 108 107 180  255 0 0
4  198 113 69 180  255 0 0
4  199 180 69 68  255 0 0
4  198 180 107 110  255 0 0
6  6 50 51 182 193 5  255 0 0
4  5 4 115 197  204 0 255
4  5 193 132 54  255 0 0
4  143 46 45 144  204 0 255
4  197 115 46 143  204 0 255
4  143 6 5 197  204 0 255
4  196 54 132 131  255 0 0
4  194 181 126 133  255 0 0
4  193 182 181 194  255 0 0
4  133 126 129 130  255 0 0
4  133 132 193 194  255 0 0
3  190 139 138  0 255 102
4  187 136 250 186  0 102 255
4  85 87 92 177  203 255 0
3  184 137 135  0 102 255
3  183 135 134  0 102 255
5  184 135 183 29 32  0 102 255
4  126 181 182 127  255 0 0
4  179 178 119 118  203 255 0
4  92 116 65 177  203 255 0
4  175 173 174 176  255 0 0
4  171 48 42 159  204 0 255
4  156 42 48 170  204 0 255
4  121 117 116 118  203 255 0
4  120 66 140 168  203 255 0
4  169 141 117 121  203 255 0
4  168 140 141 169  203 255 0
4  169 121 120 168  203 255 0
4  166 114 113 167  255 0 0
4  122 70 114 166  255 0 0
4  122 166 167 123  255 0 0
5  158 43 157 1 8  204 0 255
4  152 151 2 0  204 0 255
4  142 7 6 143  204 0 255
4  95 89 47 40  255 0 0
4  146 36 35 147  0 102 255
4  159 42 43 158  204 0 255
4  157 43 42 156  204 0 255
4  154 64 63 155  203 255 0
4  155 63 66 120  203 255 0
4  120 119 154 155  203 255 0
4  150 45 46 151  204 0 255
4  153 150 151 152  204 0 255
5  149 72 146 147 148  0 102 255
4  144 45 44 145  204 0 255
4  145 142 143 144  204 0 255
4  141 140 66 117  203 255 0
5  136 134 135 137 250  0 102 255
4  130 129 128 131  255 0 0
4  133 130 131 132  255 0 0
4  129 126 127 128  255 0 0
4  125 67 70 122  255 0 0
4  124 68 67 125  255 0 0
4  125 122 123 124  255 0 0
4  121 118 119 120  203 255 0
4  117 66 65 116  203 255 0
3  250 137 186  0 102 255
4  70 69 113 114  255 0 0
4  94 78 81 85  203 255 0
4  93 41 80 91  203 255 0
4  87 82 41 92  203 255 0
4  88 86 83 84  203 255 0
4  88 84 82 87  203 255 0
4  86 85 81 83  203 255 0
4  84 83 81 82  203 255 0
4  82 81 80 41  203 255 0
4  81 78 79 80  203 255 0
4  70 67 68 69  255 0 0
4  66 63 64 65  203 255 0
8  39 31 29 30 35 36 37 38  0 102 255
8  31 39 38 37 36 35 30 29  255 0 0
4  34 30 29 33  0 102 255
4  30 34 33 29  255 0 0
3  32 29 31  0 102 255
3  29 32 31  255 0 0
9  28 21 20 22 23 24 25 26 27  0 255 102
9  21 28 27 26 25 24 23 22 20  255 0 0
7  11 13 12 14 15 9 10  255 0 0
7  13 11 10 9 15 14 12  203 255 0
5  19 11 10 17 18  255 0 0
5  11 19 18 17 10  203 255 0
3  16 10 9  255 0 0
3  10 16 9  203 255 0
9  8 1 0 2 3 4 5 6 7  204 0 255
9  1 8 7 6 5 4 3 2 0  255 0 0

