OFF
281 289 0

-2.2 24.7128 0.947463
-6.16289 27.1515 0.947463
-2.2 24.7128 2.14746
-6.16289 27.1515 2.14746
4.54841 20.5599 0.947463
-0.215726 23.4917 0.947463
4.54841 20.5599 2.14746
-0.215726 23.4917 2.14746
9.42667 -15.7672 13.8355
12.3008 -17.6149 13.8355
5.80516 -13.4391 13.8355
9.72 -7.28725 13.8355
13.4585 -9.7195 13.8355
16.36 -11.6072 13.8355
11.6977 -18.5075 10.9035
11.6977 -18.5075 12.4155
5.25406 -14.3051 10.9035
5.25406 -14.3051 12.4155
8.8416 -16.6448 12.4155
-1.32775 -8.85369 13.8355
-1.15227 -8.96651 13.8355
-14.9333 -0.107257 13.8355
-14.8244 0.0673974 13.8355
-14.0053 1.3808 13.8355
-9.81841 8.09426 13.8355
4.04 -0.567245 13.8355
-0.0834362 -7.23751 13.8355
-14.0053 1.3808 12.4155
-10.051 7.72139 12.4155
-14.0521 1.30585 12.4155
-14.0053 1.3808 10.9035
-9.81841 8.09426 10.9035
-9.81841 8.09426 12.4155
-12.0546 4.5087 13.0115
-30.503 24.7019 12.4155
-30.503 24.7019 13.8355
-30.503 24.7019 10.9035
-22.52 19.5928 10.9035
-22.52 19.5928 12.4155
-22.52 19.5928 13.8355
-26.76 30.7128 -9.56554
4.52 11.0328 -9.56554
-21.5263 39.1176 -9.56554
0.814595 25.1437 -9.56554
5.5859 22.1594 -9.56554
9.9557 19.4261 -9.56554
-2.14649 20.3958 0.947463
2.4942 17.393 0.947463
0.814595 25.1437 0.947463
5.5859 22.1594 0.947463
-8.10749 24.2529 0.947463
-4.12 21.6728 0.947463
-5.04922 28.8115 0.947463
-1.15122 26.3733 0.947463
-4.10566 -17.0579 10.9035
-2.24462 -14.1112 10.9035
-5.28007 -18.9174 10.9035
-1.19918 -21.466 10.9035
0.0018014 -19.6645 10.9035
1.9355 -16.764 10.9035
9.24 -25.5272 10.9035
11.08 -22.5672 10.9035
8.13918 -27.2981 10.9035
12.318 -29.9079 10.9035
13.4 -28.1672 10.9035
15.24 -25.2072 10.9035
5.80516 -13.4391 10.9035
9.72 -7.28725 10.9035
3.18481 -17.5568 10.9035
6.73263 -19.8083 10.9035
9.59245 -21.6232 10.9035
12.3008 -17.6149 10.9035
16.36 -11.6072 10.9035
12.3464 6.10873 -15.8055
-18.7751 25.689 0.947463
-26.76 30.7128 0.947463
-26.76 30.7128 -15.8055
4.52 11.0328 -15.8055
12.3464 6.10873 -9.56554
4.52 11.0328 0.947463
0.151464 13.7813 0.947463
-4.46162 16.6836 0.947463
-26.76 30.7128 10.9035
-32.1524 22.053 10.9035
-37.4501 13.5454 10.9035
-30.04 8.71275 10.9035
-29.4427 8.32322 10.9035
-24.1002 17.0204 10.9035
-18.7751 25.689 10.9035
-6.7987 -6.44463 10.9035
-16.2509 12.1146 10.9035
-20.68 5.51276 10.9035
-14.9333 -0.107257 10.9035
-15.3909 -0.840992 10.9035
-0.966107 2.56157 10.9035
0.151464 13.7813 2.14746
13.4585 -9.7195 12.4155
8.8416 -16.6448 13.8355
0.151464 13.7813 4.22745
13.4585 -9.7195 15.7055
9.42667 -15.7672 15.7055
28.4248 -29.4165 10.9035
26.4994 -32.3526 10.9035
1.31372 -20.4971 10.9035
7.64047 -24.5122 10.9035
-30.04 8.71275 13.8355
-30.04 8.71275 12.4155
-30.04 8.71275 15.7055
-25.4609 17.8708 15.7055
34.7544 -19.7638 10.9035
33.0028 -22.435 10.9035
35.9801 -24.3721 10.9035
-1.15122 26.3733 2.14746
-5.28007 -18.9174 12.4155
-4.10566 -17.0579 12.4155
3.59005 -1.29511 12.4155
-1.15227 -8.96651 13.835
29.7217 -34.3976 10.9035
29.7217 -34.3976 0.947463
-27.6832 -4.92592 0.947463
-27.6832 -4.92592 -9.56554
5.5859 22.1594 2.14746
2.4942 17.393 2.14746
4.54841 20.5599 4.22745
2.4942 17.393 4.22745
-0.215726 23.4917 4.22745
-4.46162 16.6836 2.14746
17.9467 -9.25893 10.9035
19.3396 -7.19738 10.9035
23.5623 -0.947816 10.9035
11.1633 -5.01928 10.9035
12.5446 -2.84857 10.9035
16.5584 3.45875 10.9035
0.157826 -22.3135 10.9035
0.157826 -22.3135 0.947463
31.5563 -31.4588 10.9035
31.5563 -31.4588 0.947463
-34.837 -0.458128 0.947463
-34.837 -0.458128 10.3682
-34.837 -0.458128 10.9035
-10.8856 -12.7552 10.9035
-12.1127 -14.6501 10.9035
0.515824 4.84984 10.9035
-8.99103 -9.82984 10.9035
4.52 11.0328 10.9035
-12.1127 -14.6501 0.947463
-2.24462 -14.1112 12.4155
-8.10749 24.2529 2.14746
8.13918 -27.2981 12.4155
-16.393 2.85892 12.4155
-20.5917 5.64441 12.4155
-26.0804 13.7967 13.0092
-28.0491 10.5919 12.4155
-2.2 24.7128 4.22745
-4.12 21.6728 2.14746
-4.12 21.6728 4.22745
12.3008 -17.6149 12.4155
11.6977 -18.5075 13.8355
-1.15227 -8.96651 12.4155
-1.66358 -9.79363 12.4155
-1.66358 -9.79363 13.8355
5.25406 -14.3051 13.8355
5.80516 -13.4391 12.4155
-5.04922 28.8115 2.14746
9.72 -7.28725 12.4155
16.36 -11.6072 12.4155
-1.15227 -8.96651 10.9035
-1.66358 -9.79363 10.9035
12.3464 6.10873 0.947463
16.5584 3.45875 2.14746
4.52 11.0328 2.14746
-42.9968 4.63792 10.3264
-20.6701 -9.30581 10.4407
1.9355 -16.764 12.4155
0.0018014 -19.6645 12.4155
-6.16289 27.1515 4.22745
-8.10749 24.2529 4.22745
9.72 -7.28725 15.7055
16.36 -11.6072 15.7055
38.8905 -19.7099 10.9035
40.2203 -11.4283 0.947463
40.2203 -11.4283 10.9035
23.5623 -0.947816 0.947463
-14.6634 32.3825 0.947463
-2.14649 20.3958 2.14746
-16.3723 29.6007 0.947463
-5.577 -16.1242 10.9035
15.24 -25.2072 12.4155
13.4 -28.1672 12.4155
-20.68 5.51276 12.4155
-16.3881 11.9101 12.4155
-28.8282 9.32366 13.8355
-24.1057 17.0114 12.4155
11.08 -22.5672 12.4155
9.24 -25.5272 12.4155
27.8762 -37.3541 10.9035
6.46467 -26.2523 10.9035
9.59245 -21.6232 12.4155
-3.74431 -13.1595 10.9035
-6.74006 -18.0056 10.9035
-17.5926 -4.37117 10.9035
-12.1127 -14.6501 -9.56554
0.814595 25.1437 2.14746
-14.9333 -0.107257 12.4155
-18.7751 25.689 2.14746
-15.3909 -0.840992 13.8355
-15.3909 -0.840992 12.4155
-4.46162 16.6836 10.9035
37.7055 -21.6082 0.947463
37.7055 -21.6082 10.9035
-13.5795 34.147 0.947463
32.2091 -30.4131 10.9035
-30.503 24.7019 15.7055
-22.52 19.5928 15.7055
-2.14649 20.3958 4.22745
4.52 11.0328 4.22745
-4.46162 16.6836 4.22745
-16.2509 12.1146 12.4155
8.93982 17.8575 0.947463
-22.0354 3.49238 10.9035
6.82443 14.5911 0.947463
-0.0834362 -7.23751 15.7055
-24.1002 17.0204 13.8355
-14.0053 1.3808 15.7055
-24.1002 17.0204 12.4155
-24.1002 17.0204 15.7055
-29.4427 8.32322 12.4155
-18.7751 25.689 13.8355
-29.4427 8.32322 13.8355
-18.7751 25.689 12.4155
-29.4427 8.32322 15.7055
-20.6701 -9.30581 -9.56554
-20.6701 -9.30581 0.947463
42.9774 -13.1629 -9.56554
12.3008 -17.6149 15.7055
42.9774 -13.1629 -15.8055
26.8564 -38.9876 -15.8055
26.8564 -38.9876 -9.56554
-3.93263 -19.7589 -9.56554
3.18481 -17.5568 12.4155
16.5584 3.45875 0.947463
-3.93263 -19.7589 -15.8055
-12.1127 -14.6501 -15.8055
-18.7751 25.689 4.22745
-20.6701 -9.30581 10.9035
4.04 -0.567245 12.4155
4.04 -0.567245 10.9035
-32.1524 22.053 15.7055
-32.1524 22.053 13.8355
-37.4501 13.5454 13.8355
-37.4501 13.5454 15.7055
4.04 -0.567245 15.7055
-37.4501 13.5454 0.947463
-1.15227 -8.96651 15.7055
-32.1524 22.053 12.4155
-37.4501 13.5454 12.4155
42.9774 -13.1629 0.947463
26.8564 -38.9876 0.947463
-42.9968 4.63792 0.947463
-42.9968 4.63792 10.9035
5.80516 -13.4391 15.7055
-42.9968 4.63792 -9.56554
-26.76 30.7128 2.14746
-14.9333 -0.107257 15.7055
-9.81841 8.09426 15.7055
17.6849 14.5916 -9.56554
17.6849 14.5916 -15.8055
-26.76 30.7128 13.8355
-18.4932 8.77238 13.0105
9.9557 19.4261 -15.8055
-19.4369 -7.32845 10.9035
6.73263 -19.8083 12.4155
-21.5263 39.1176 -15.8055
-26.76 30.7128 12.4155
42.9774 -13.1629 10.9035
26.8564 -38.9876 10.9035
9.9557 19.4261 0.947463
-1.19918 -21.466 12.4155
-21.5263 39.1176 0.947463
12.318 -29.9079 12.4155
-42.9968 4.63792 -15.8055
5  258 137 119 120 261  0 255 29
4  75 74 204 262  0 255 29
5  75 252 258 261 40  0 255 29
6  261 120 231 201 242 280  0 255 29
4  259 139 138 171  0 255 29
5  259 84 85 86 139  0 255 29
4  258 171 138 137  0 255 29
5  82 262 204 243 88  0 255 29
7  82 36 83 84 252 75 262  0 255 29
5  258 252 84 259 171  0 255 29
4  280 242 77 76  0 255 29
4  76 77 269 272  255 89 0
4  40 261 280 76  0 255 29
6  75 278 210 183 185 74  0 210 255
4  75 40 42 278  0 210 255
7  42 43 48 53 52 210 278  0 210 255
4  41 78 168 79  0 255 29
4  79 80 47 220  0 210 255
5  79 168 240 169 170  0 255 29
4  45 265 78 41  255 89 0
4  276 49 44 45  0 210 255
4  276 218 4 49  0 210 255
6  79 220 218 276 45 41  0 210 255
4  82 88 229 273  0 120 255
4  82 273 34 36  0 120 255
4  275 63 64 195  0 255 29
4  274 181 180 256  0 255 29
5  274 179 128 129 181  0 255 29
4  273 267 35 34  0 120 255
4  273 229 227 267  0 120 255
4  40 76 272 42  255 89 0
6  45 44 43 42 272 269  255 89 0
4  77 73 266 269  255 89 0
4  269 266 265 45  255 89 0
4  267 227 39 35  0 120 255
7  256 180 182 240 168 78 233  0 255 29
7  257 134 133 196 62 63 275  0 255 29
5  275 195 117 118 257  0 255 29
5  256 208 209 179 274  0 255 29
4  73 235 233 78  0 255 29
4  73 77 242 241  0 255 29
4  78 265 266 73  255 89 0
4  135 117 102 101  0 255 29
6  135 211 111 209 208 136  0 255 29
4  84 83 254 255  255 179 0
4  255 254 248 249  255 179 0
5  135 101 14 71 211  0 255 29
4  255 106 85 84  255 179 0
4  83 36 34 254  255 179 0
4  254 34 35 248  255 179 0
4  209 111 110 109  0 255 29
5  209 109 127 128 179  0 255 29
8  237 238 201 231 232 145 134 257  0 255 29
7  257 118 136 208 256 233 237  0 255 29
4  249 248 247 250  255 179 0
4  249 105 106 255  255 179 0
4  248 35 212 247  255 179 0
4  250 247 108 107  255 179 0
4  250 107 105 249  255 179 0
5  247 212 213 225 108  255 179 0
4  226 106 105 228  255 179 0
4  86 85 106 226  255 179 0
7  86 219 93 200 270 244 139  0 255 29
5  87 90 91 219 86  0 255 29
6  226 152 192 224 87 86  255 179 0
4  236 241 238 237  0 255 29
4  235 73 241 236  0 255 29
4  237 233 235 236  0 255 29
4  230 107 108 225  255 179 0
4  228 105 107 230  255 179 0
5  230 225 222 191 228  255 179 0
5  228 191 151 152 226  255 179 0
5  224 192 151 191 222  255 179 0
5  93 219 91 30 92  0 255 29
4  93 89 143 200  0 255 29
5  206 159 167 89 93  240 255 0
5  31 94 246 245 32  240 255 0
6  31 90 87 37 142 94  0 255 29
4  32 217 90 31  0 30 255
4  32 245 25 24  240 255 0
4  32 28 190 217  0 30 255
4  93 92 203 206  240 255 0
5  92 30 27 29 203  240 255 0
5  211 71 72 110 111  0 255 29
4  43 44 49 48  0 210 255
4  205 160 159 206  240 255 0
4  24 25 251 264  59 0 255
5  205 21 19 20 160  240 255 0
6  24 23 22 33 28 32  240 255 0
5  203 29 33 22 21  240 255 0
4  206 203 21 205  240 255 0
4  201 238 241 242  0 255 29
4  264 251 221 223  59 0 255
4  264 223 23 24  59 0 255
5  21 22 23 223 263  59 0 255
4  263 223 221 253  59 0 255
5  21 263 253 20 19  59 0 255
4  10 8 97 161  150 255 0
4  260 100 8 10  239 0 255
4  260 177 99 100  239 0 255
4  10 11 177 260  239 0 255
5  232 119 137 138 172  0 255 29
5  244 141 145 232 172  0 255 29
4  244 172 138 139  0 255 29
5  130 246 94 142 131  0 255 29
4  130 127 72 67  0 255 29
5  66 166 246 130 67  0 255 29
4  66 67 164 162  150 255 0
4  162 164 11 10  150 255 0
4  253 221 26 20  59 0 255
4  25 26 221 251  59 0 255
4  166 66 16 167  0 255 29
5  158 115 245 246 166  240 255 0
6  20 26 25 245 115 116  240 255 0
3  158 116 115  240 255 0
4  234 100 99 178  239 0 255
4  9 8 100 234  239 0 255
4  234 178 13 9  239 0 255
5  88 207 144 142 37  0 255 29
4  224 38 37 87  255 179 0
4  88 37 38 229  0 120 255
4  225 213 39 222  255 179 0
6  217 190 150 189 91 90  0 30 255
4  127 130 131 128  0 255 29
4  127 109 110 72  0 255 29
4  156 165 72 71  150 255 0
4  244 270 140 141  0 255 29
4  222 39 38 224  255 179 0
4  229 38 39 227  0 120 255
4  9 13 165 156  150 255 0
4  231 120 119 232  0 255 29
4  213 212 35 39  255 179 0
4  48 49 121 202  255 0 180
5  144 207 216 98 215  0 255 29
4  144 132 131 142  0 255 29
4  79 170 95 80  0 255 29
5  144 215 170 169 132  0 255 29
4  74 81 126 204  0 255 29
4  210 52 1 183  0 210 255
4  88 243 216 207  0 255 29
6  74 185 50 51 46 81  0 210 255
4  81 80 95 126  0 255 29
4  48 5 0 53  0 210 255
4  81 46 47 80  0 210 255
4  48 202 7 5  255 0 180
4  126 216 243 204  0 255 29
4  216 126 95 98  0 255 29
4  184 7 125 214  0 255 209
5  240 182 129 132 169  0 255 29
4  132 129 128 131  0 255 29
4  133 57 58 103  0 255 29
4  17 18 271 239  149 0 255
8  16 68 59 55 198 143 89 167  0 255 29
4  133 103 104 196  0 255 29
4  17 239 68 16  149 0 255
4  117 135 136 118  0 255 29
5  117 195 64 65 102  0 255 29
4  68 103 58 59  0 255 29
5  68 69 70 104 103  0 255 29
4  239 271 69 68  149 0 255
4  200 143 140 270  0 255 29
7  199 56 57 133 134 145 141  0 255 29
4  199 141 140 186  0 255 29
4  198 55 54 186  0 255 29
4  199 186 54 56  0 255 29
4  198 186 140 143  0 255 29
6  14 101 102 65 61 70  0 255 29
4  70 69 271 197  149 0 255
4  70 61 60 104  0 255 29
4  15 18 97 157  150 255 0
4  197 271 18 15  149 0 255
4  15 14 70 197  149 0 255
4  196 104 60 62  0 255 29
4  193 187 188 194  255 0 0
4  61 65 187 193  255 0 0
4  194 188 279 148  255 0 0
4  194 60 61 193  255 0 0
3  192 152 151  255 179 0
4  28 33 268 190  0 30 255
4  7 184 46 5  0 255 209
3  189 150 149  0 30 255
3  27 149 29  0 30 255
5  189 149 27 30 91  0 30 255
4  188 187 65 64  255 0 0
4  185 183 1 50  0 210 255
4  46 51 0 5  0 210 255
4  182 180 181 129  0 255 29
4  178 99 12 13  239 0 255
4  11 12 99 177  239 0 255
4  147 154 51 50  0 255 119
4  3 2 153 175  0 255 119
4  176 155 154 147  0 255 119
4  175 153 155 176  0 255 119
4  176 147 3 175  0 255 119
4  173 146 55 59  60 255 0
4  174 114 146 173  60 255 0
4  174 173 59 58  60 255 0
5  165 96 164 67 72  150 255 0
4  162 17 16 66  150 255 0
4  156 71 14 15  150 255 0
4  170 215 98 95  0 255 29
4  158 166 167 159  240 255 0
4  13 12 96 165  150 255 0
4  164 96 12 11  150 255 0
4  52 53 112 163  255 0 90
4  163 112 2 3  255 0 90
4  3 1 52 163  255 0 90
4  161 97 18 17  150 255 0
4  10 161 17 162  150 255 0
5  20 116 158 159 160  240 255 0
4  157 97 8 9  150 255 0
4  9 156 15 157  150 255 0
4  155 153 2 154  0 255 119
5  33 29 149 150 268  0 30 255
4  148 279 63 62  255 0 0
4  194 148 62 60  255 0 0
4  279 188 64 63  255 0 0
4  277 113 114 174  60 255 0
4  57 56 113 277  60 255 0
4  277 174 58 57  60 255 0
4  147 50 1 3  0 255 119
4  154 2 0 51  0 255 119
3  268 150 190  0 30 255
4  114 54 55 146  60 255 0
4  202 121 6 7  255 0 180
4  220 47 4 218  0 210 255
4  184 122 47 46  0 255 209
4  214 125 123 124  0 255 209
4  214 124 122 184  0 255 209
4  125 7 6 123  0 255 209
4  124 123 6 122  0 255 209
4  122 6 4 47  0 255 209
4  6 121 49 4  255 0 180
4  114 113 56 54  60 255 0
4  2 112 53 0  255 0 90
3  31 90 30  0 30 255
3  90 31 30  0 255 29
7  94 31 30 89 167 166 246  240 255 0
7  31 94 246 166 167 89 30  0 255 29
4  93 89 30 92  240 255 0
4  89 93 92 30  0 255 29
3  91 30 90  0 30 255
3  30 91 90  0 255 29
4  88 82 36 37  0 120 255
4  82 88 37 36  0 255 29
7  87 37 36 83 84 85 86  255 179 0
7  37 87 86 85 84 83 36  0 255 29
4  74 75 40 41  0 255 29
4  75 74 41 40  0 210 255
5  81 74 41 79 80  0 255 29
5  74 81 80 79 41  0 210 255
3  78 41 73  0 255 29
3  41 78 73  255 89 0
5  77 73 41 40 76  0 255 29
5  73 77 76 40 41  255 89 0
6  72 67 66 16 14 71  150 255 0
6  67 72 71 14 16 66  0 255 29
5  70 14 16 68 69  149 0 255
5  14 70 69 68 16  0 255 29
6  65 61 60 62 63 64  255 0 0
6  61 65 64 63 62 60  0 255 29
6  59 55 54 56 57 58  60 255 0
6  55 59 58 57 56 54  0 255 29
4  0 51 50 1  0 210 255
4  51 0 1 50  0 255 119
4  53 0 1 52  0 210 255
4  0 53 52 1  255 0 90
4  4 47 46 5  0 210 255
4  47 4 5 46  0 255 209
4  49 4 5 48  0 210 255
4  4 49 48 5  255 0 180
6  45 41 40 42 43 44  255 89 0
6  41 45 44 43 42 40  0 210 255
6  39 35 34 36 37 38  255 179 0
6  35 39 38 37 36 34  0 120 255
4  33 29 27 28  240 255 0
4  29 33 28 27  0 30 255
5  32 28 27 30 31  240 255 0
5  28 32 31 30 27  0 30 255
8  26 20 19 21 22 23 24 25  240 255 0
8  20 26 25 24 23 22 21 19  59 0 255
5  18 15 14 16 17  150 255 0
5  15 18 17 16 14  149 0 255
6  13 9 8 10 11 12  150 255 0
6  9 13 12 11 10 8  239 0 255
4  7 5 4 6  0 255 209
4  5 7 6 4  255 0 180
4  3 1 0 2  0 255 119
4  1 3 2 0  255 0 90

