OFF
281 243 0

-30.503 24.7019 10.9035
-26.76 30.7128 10.9035
-32.1524 22.053 10.9035
-37.4501 13.5454 10.9035
-30.04 8.71275 10.9035
-29.4427 8.32322 10.9035
-24.1002 17.0204 10.9035
-22.52 19.5928 10.9035
-18.7751 25.689 10.9035
-14.0053 1.3808 10.9035
-6.7987 -6.44463 10.9035
-16.2509 12.1146 10.9035
-20.68 5.51276 10.9035
-14.9333 -0.107257 10.9035
-15.3909 -0.840992 10.9035
-1.66358 -9.79363 10.9035
-1.15227 -8.96651 10.9035
4.04 -0.567245 10.9035
-0.966107 2.56157 10.9035
-9.81841 8.09426 10.9035
0.151464 13.7813 0.947463
0.151464 13.7813 2.14746
2.4942 17.393 0.947463
13.4585 -9.7195 13.8355
13.4585 -9.7195 12.4155
9.42667 -15.7672 13.8355
8.8416 -16.6448 13.8355
8.8416 -16.6448 12.4155
0.151464 13.7813 4.22745
13.4585 -9.7195 15.7055
9.42667 -15.7672 15.7055
28.4248 -29.4165 10.9035
26.4994 -32.3526 10.9035
-30.503 24.7019 12.4155
1.31372 -20.4971 10.9035
7.64047 -24.5122 10.9035
-30.04 8.71275 13.8355
-30.04 8.71275 12.4155
-30.503 24.7019 13.8355
-30.04 8.71275 15.7055
-25.4609 17.8708 15.7055
34.7544 -19.7638 10.9035
33.0028 -22.435 10.9035
35.9801 -24.3721 10.9035
16.36 -11.6072 10.9035
-1.15122 26.3733 2.14746
-1.15122 26.3733 0.947463
-2.2 24.7128 0.947463
-2.2 24.7128 2.14746
-5.28007 -18.9174 12.4155
-5.28007 -18.9174 10.9035
-4.10566 -17.0579 10.9035
-4.10566 -17.0579 12.4155
3.59005 -1.29511 12.4155
-1.15227 -8.96651 13.835
-1.32775 -8.85369 13.8355
29.7217 -34.3976 10.9035
29.7217 -34.3976 0.947463
-27.6832 -4.92592 0.947463
-27.6832 -4.92592 -9.56554
5.5859 22.1594 2.14746
5.5859 22.1594 0.947463
4.54841 20.5599 0.947463
4.54841 20.5599 2.14746
2.4942 17.393 2.14746
4.54841 20.5599 4.22745
2.4942 17.393 4.22745
-0.215726 23.4917 2.14746
-0.215726 23.4917 4.22745
-2.14649 20.3958 2.14746
-2.14649 20.3958 4.22745
4.52 11.0328 4.22745
-4.46162 16.6836 4.22745
8.93982 17.8575 0.947463
-2.14649 20.3958 0.947463
6.82443 14.5911 0.947463
0.814595 25.1437 2.14746
4.52 11.0328 2.14746
-4.46162 16.6836 2.14746
17.9467 -9.25893 10.9035
19.3396 -7.19738 10.9035
-8.10749 24.2529 0.947463
-6.16289 27.1515 0.947463
0.0018014 -19.6645 12.4155
0.0018014 -19.6645 10.9035
-1.19918 -21.466 10.9035
-1.19918 -21.466 12.4155
13.4 -28.1672 12.4155
13.4 -28.1672 10.9035
12.318 -29.9079 10.9035
12.318 -29.9079 12.4155
8.13918 -27.2981 12.4155
8.13918 -27.2981 10.9035
9.24 -25.5272 10.9035
9.24 -25.5272 12.4155
-14.0521 1.30585 12.4155
-16.393 2.85892 12.4155
-12.0546 4.5087 13.0115
-20.5917 5.64441 12.4155
-26.0804 13.7967 13.0092
-28.0491 10.5919 12.4155
-2.2 24.7128 4.22745
-3.93263 -19.7589 -15.8055
-4.12 21.6728 2.14746
4.52 11.0328 -15.8055
-4.12 21.6728 4.22745
-20.6701 -9.30581 10.4407
-29.4427 8.32322 12.4155
12.3464 6.10873 -15.8055
-22.52 19.5928 12.4155
12.3464 6.10873 -9.56554
17.6849 14.5916 -9.56554
15.24 -25.2072 10.9035
15.24 -25.2072 12.4155
9.9557 19.4261 -9.56554
-14.0053 1.3808 12.4155
4.52 11.0328 -9.56554
4.52 11.0328 0.947463
-16.3881 11.9101 12.4155
-24.1057 17.0114 12.4155
-26.76 30.7128 2.14746
-18.7751 25.689 2.14746
11.08 -22.5672 10.9035
11.08 -22.5672 12.4155
27.8762 -37.3541 10.9035
6.46467 -26.2523 10.9035
9.59245 -21.6232 10.9035
11.6977 -18.5075 10.9035
9.59245 -21.6232 12.4155
11.6977 -18.5075 12.4155
-3.74431 -13.1595 10.9035
-6.74006 -18.0056 10.9035
-17.5926 -4.37117 10.9035
3.18481 -17.5568 10.9035
3.18481 -17.5568 12.4155
5.25406 -14.3051 10.9035
5.25406 -14.3051 12.4155
0.157826 -22.3135 10.9035
16.5584 3.45875 10.9035
16.5584 3.45875 0.947463
-18.7751 25.689 4.22745
-34.837 -0.458128 10.9035
12.3008 -17.6149 10.9035
23.5623 -0.947816 10.9035
11.1633 -5.01928 10.9035
12.5446 -2.84857 10.9035
-16.2509 12.1146 12.4155
-22.0354 3.49238 10.9035
0.157826 -22.3135 0.947463
31.5563 -31.4588 10.9035
31.5563 -31.4588 0.947463
-24.1002 17.0204 13.8355
-24.1002 17.0204 15.7055
-18.7751 25.689 13.8355
-34.837 -0.458128 0.947463
-34.837 -0.458128 10.3682
-18.7751 25.689 12.4155
-24.1002 17.0204 12.4155
-10.8856 -12.7552 10.9035
-12.1127 -14.6501 10.9035
0.515824 4.84984 10.9035
12.3008 -17.6149 13.8355
12.3008 -17.6149 15.7055
-8.99103 -9.82984 10.9035
4.04 -0.567245 13.8355
4.52 11.0328 10.9035
4.04 -0.567245 12.4155
-1.15227 -8.96651 12.4155
-1.15227 -8.96651 13.8355
-12.1127 -14.6501 0.947463
4.04 -0.567245 15.7055
-1.15227 -8.96651 15.7055
-2.24462 -14.1112 10.9035
-2.24462 -14.1112 12.4155
5.80516 -13.4391 12.4155
5.80516 -13.4391 10.9035
5.80516 -13.4391 13.8355
5.80516 -13.4391 15.7055
6.73263 -19.8083 12.4155
-14.9333 -0.107257 15.7055
6.73263 -19.8083 10.9035
-14.9333 -0.107257 13.8355
-9.81841 8.09426 13.8355
-9.81841 8.09426 15.7055
-4.12 21.6728 0.947463
-3.93263 -19.7589 -9.56554
-6.16289 27.1515 2.14746
-8.10749 24.2529 2.14746
-12.1127 -14.6501 -15.8055
-12.1127 -14.6501 -9.56554
-14.9333 -0.107257 12.4155
-15.3909 -0.840992 13.8355
0.814595 25.1437 0.947463
-15.3909 -0.840992 12.4155
-4.46162 16.6836 0.947463
-9.81841 8.09426 12.4155
-4.46162 16.6836 10.9035
12.3008 -17.6149 12.4155
11.6977 -18.5075 13.8355
-13.5795 34.147 0.947463
37.7055 -21.6082 0.947463
-18.7751 25.689 0.947463
37.7055 -21.6082 10.9035
-1.66358 -9.79363 12.4155
-1.66358 -9.79363 13.8355
0.814595 25.1437 -9.56554
5.25406 -14.3051 13.8355
32.2091 -30.4131 10.9035
-30.503 24.7019 15.7055
-22.52 19.5928 13.8355
-22.52 19.5928 15.7055
-5.04922 28.8115 0.947463
-5.04922 28.8115 2.14746
9.72 -7.28725 13.8355
-0.0834362 -7.23751 13.8355
9.72 -7.28725 12.4155
-0.0834362 -7.23751 15.7055
16.36 -11.6072 12.4155
-14.0053 1.3808 15.7055
16.36 -11.6072 13.8355
-14.0053 1.3808 13.8355
-29.4427 8.32322 13.8355
-29.4427 8.32322 15.7055
-20.6701 -9.30581 -9.56554
-20.6701 -9.30581 0.947463
12.3464 6.10873 0.947463
42.9774 -13.1629 -9.56554
42.9774 -13.1629 -15.8055
26.8564 -38.9876 -15.8055
26.8564 -38.9876 -9.56554
16.5584 3.45875 2.14746
-20.6701 -9.30581 10.9035
-42.9968 4.63792 10.3264
-32.1524 22.053 15.7055
-32.1524 22.053 13.8355
-37.4501 13.5454 13.8355
9.72 -7.28725 10.9035
-37.4501 13.5454 15.7055
-37.4501 13.5454 0.947463
-32.1524 22.053 12.4155
-37.4501 13.5454 12.4155
1.9355 -16.764 12.4155
1.9355 -16.764 10.9035
42.9774 -13.1629 0.947463
-6.16289 27.1515 4.22745
-8.10749 24.2529 4.22745
9.72 -7.28725 15.7055
16.36 -11.6072 15.7055
17.6849 14.5916 -15.8055
38.8905 -19.7099 10.9035
40.2203 -11.4283 0.947463
40.2203 -11.4283 10.9035
26.8564 -38.9876 0.947463
26.8564 -38.9876 10.9035
42.9774 -13.1629 10.9035
23.5623 -0.947816 0.947463
-26.76 30.7128 13.8355
-0.215726 23.4917 0.947463
-14.6634 32.3825 0.947463
9.9557 19.4261 -15.8055
-21.5263 39.1176 -9.56554
-21.5263 39.1176 -15.8055
-16.3723 29.6007 0.947463
-26.76 30.7128 -15.8055
-5.577 -16.1242 10.9035
-26.76 30.7128 -9.56554
-26.76 30.7128 12.4155
9.9557 19.4261 0.947463
-20.68 5.51276 12.4155
-21.5263 39.1176 0.947463
-26.76 30.7128 0.947463
5.5859 22.1594 -9.56554
-18.4932 8.77238 13.0105
-42.9968 4.63792 0.947463
-42.9968 4.63792 10.9035
-42.9968 4.63792 -9.56554
-42.9968 4.63792 -15.8055
-19.4369 -7.32845 10.9035
-14.8244 0.0673974 13.8355
-28.8282 9.32366 13.8355
-10.051 7.72139 12.4155
5  273 154 58 59 275  255 0 0
4  270 201 121 120  255 0 0
5  270 238 273 275 265  255 0 0
6  275 59 223 189 188 276  255 0 0
4  274 141 155 232  255 0 0
5  274 3 4 5 141  255 0 0
4  273 232 155 154  255 0 0
5  1 120 121 140 8  255 0 0
7  1 0 2 3 238 270 120  255 0 0
5  273 238 3 274 232  255 0 0
4  276 188 104 263  255 0 0
4  263 104 259 261  255 0 0
4  265 275 276 263  255 0 0
6  270 269 199 258 262 201  255 0 0
4  270 265 260 269  255 0 0
7  260 205 192 46 211 199 269  255 0 0
4  116 110 225 117  255 0 0
4  117 20 22 75  255 0 0
5  117 225 139 230 77  255 0 0
4  114 111 110 116  255 0 0
4  267 61 271 114  255 0 0
4  267 73 62 61  255 0 0
6  117 75 73 267 114 116  255 0 0
4  1 8 156 266  0 255 0
4  1 266 33 0  0 255 0
4  253 89 88 124  255 0 0
4  254 251 250 243  255 0 0
5  254 249 80 143 251  255 0 0
4  266 256 38 33  0 255 0
4  266 156 153 256  0 255 0
4  265 263 261 260  255 0 0
6  114 271 205 260 261 259  255 0 0
4  104 108 248 259  255 0 0
4  259 248 111 114  255 0 0
4  256 153 209 38  0 255 0
7  243 250 255 139 225 110 226  255 0 0
7  252 148 137 125 92 89 253  255 0 0
5  253 124 56 57 252  255 0 0
5  243 200 202 249 254  255 0 0
4  108 227 226 110  255 0 0
4  108 104 188 102  255 0 0
4  110 111 248 108  255 0 0
4  149 56 32 31  255 0 0
6  149 207 43 202 200 150  255 0 0
4  3 2 239 240  0 255 0
4  240 239 234 235  0 255 0
5  149 31 127 142 207  255 0 0
4  240 37 4 3  0 255 0
4  2 0 33 239  0 255 0
4  239 33 38 234  0 255 0
4  202 43 42 41  255 0 0
5  202 41 79 80 249  255 0 0
8  229 185 189 223 224 169 148 252  255 0 0
7  252 57 150 200 243 226 229  255 0 0
4  235 234 233 237  0 255 0
4  235 36 37 240  0 255 0
4  234 38 208 233  0 255 0
4  237 233 40 39  0 255 0
4  237 39 36 235  0 255 0
5  233 208 210 152 40  0 255 0
4  107 37 36 221  0 255 0
4  5 4 37 107  0 255 0
7  5 147 14 132 277 231 141  255 0 0
5  6 11 12 147 5  255 0 0
6  107 100 119 157 6 5  0 255 0
4  228 102 185 229  255 0 0
4  227 108 102 228  255 0 0
4  229 226 227 228  255 0 0
4  222 39 40 152  0 255 0
4  221 36 39 222  0 255 0
5  222 152 151 279 221  0 255 0
5  221 279 99 100 107  0 255 0
5  157 119 99 279 151  0 255 0
5  14 147 12 9 13  255 0 0
4  14 10 163 132  255 0 0
5  193 203 15 10 14  0 0 255
5  19 18 17 166 195  0 0 255
6  19 11 6 7 160 18  255 0 0
4  195 146 11 19  0 0 255
4  195 166 164 182  0 0 255
4  195 280 118 146  0 0 255
4  14 13 190 193  0 0 255
5  13 9 115 95 190  0 0 255
5  207 142 44 42 43  255 0 0
4  205 271 61 192  255 0 0
4  191 204 203 193  0 0 255
4  182 164 170 183  0 0 255
5  191 181 55 168 204  0 0 255
6  182 220 278 97 280 195  0 0 255
5  190 95 97 278 181  0 0 255
4  193 190 181 191  0 0 255
4  189 185 102 188  255 0 0
4  183 170 216 218  0 0 255
4  183 218 220 182  0 0 255
5  181 278 220 218 179  0 0 255
4  179 218 216 171  0 0 255
5  181 179 171 168 55  0 0 255
4  176 25 26 206  255 0 0
4  177 30 25 176  255 0 0
4  177 246 29 30  255 0 0
4  176 213 246 177  255 0 0
5  224 58 154 155 106  255 0 0
5  231 159 169 224 106  255 0 0
4  231 106 155 141  255 0 0
5  144 17 18 160 145  255 0 0
4  144 79 44 236  255 0 0
5  175 16 17 144 236  255 0 0
4  175 236 215 174  255 0 0
4  174 215 213 176  255 0 0
4  171 216 214 168  0 0 255
4  164 214 216 170  0 0 255
4  16 175 135 15  255 0 0
5  167 53 166 17 16  0 0 255
6  168 214 164 166 53 54  0 0 255
3  167 54 53  0 0 255
4  162 30 29 247  255 0 0
4  161 25 30 162  255 0 0
4  162 247 219 161  255 0 0
5  8 196 165 160 7  255 0 0
4  157 109 7 6  0 255 0
4  8 7 109 156  0 255 0
4  152 210 209 151  0 255 0
6  146 118 98 268 12 11  0 0 255
4  79 144 145 80  255 0 0
4  79 41 42 44  255 0 0
4  197 217 44 142  255 0 0
4  231 277 158 159  255 0 0
4  151 209 109 157  0 255 0
4  156 109 209 153  0 255 0
4  161 219 217 197  255 0 0
4  223 59 58 224  255 0 0
4  210 208 38 209  0 255 0
4  192 61 60 76  255 0 0
5  165 196 72 28 71  255 0 0
4  165 138 145 160  255 0 0
4  117 77 21 20  255 0 0
5  165 71 77 230 138  255 0 0
4  201 194 78 121  255 0 0
4  199 211 82 258  255 0 0
4  8 140 72 196  255 0 0
6  201 262 81 184 74 194  255 0 0
4  194 20 21 78  255 0 0
4  192 257 47 46  255 0 0
4  194 74 22 20  255 0 0
4  192 76 67 257  255 0 0
4  78 72 140 121  255 0 0
4  72 78 21 28  255 0 0
4  69 67 68 70  255 0 0
5  139 255 143 138 230  255 0 0
4  138 143 80 145  255 0 0
4  137 85 84 34  255 0 0
4  136 27 178 134  255 0 0
8  135 133 242 172 130 163 10 15  255 0 0
4  137 34 35 125  255 0 0
4  136 134 133 135  255 0 0
4  56 149 150 57  255 0 0
5  56 124 88 112 32  255 0 0
4  133 34 84 242  255 0 0
5  133 180 126 35 34  255 0 0
4  134 178 180 133  255 0 0
4  132 163 158 277  255 0 0
7  131 50 85 137 148 169 159  255 0 0
4  131 159 158 264  255 0 0
4  130 172 51 264  255 0 0
4  131 264 51 50  255 0 0
4  130 264 158 163  255 0 0
6  127 31 32 112 122 126  255 0 0
4  126 180 178 128  255 0 0
4  126 122 93 35  255 0 0
4  129 27 26 198  255 0 0
4  128 178 27 129  255 0 0
4  129 127 126 128  255 0 0
4  125 35 93 92  255 0 0
4  123 113 87 94  255 0 0
4  122 112 113 123  255 0 0
4  94 87 90 91  255 0 0
4  94 93 122 123  255 0 0
3  119 100 99  0 255 0
4  280 97 272 118  0 0 255
4  67 69 74 257  255 0 0
3  268 98 96  0 0 255
3  115 96 95  0 0 255
5  268 96 115 9 12  0 0 255
4  87 113 112 88  255 0 0
4  262 258 82 81  255 0 0
4  74 184 47 257  255 0 0
4  255 250 251 143  255 0 0
4  247 29 23 219  255 0 0
4  213 23 29 246  255 0 0
4  187 103 184 81  255 0 0
4  186 48 101 244  255 0 0
4  245 105 103 187  255 0 0
4  244 101 105 245  255 0 0
4  245 187 186 244  255 0 0
4  241 173 172 242  255 0 0
4  83 52 173 241  255 0 0
4  83 241 242 84  255 0 0
5  217 24 215 236 44  255 0 0
4  174 136 135 175  255 0 0
4  197 142 127 129  255 0 0
4  77 71 28 21  255 0 0
4  167 16 15 203  0 0 255
4  219 23 24 217  255 0 0
4  215 24 23 213  255 0 0
4  211 46 45 212  255 0 0
4  212 45 48 186  255 0 0
4  186 82 211 212  255 0 0
4  206 26 27 136  255 0 0
4  176 206 136 174  255 0 0
5  168 54 167 203 204  0 0 255
4  198 26 25 161  255 0 0
4  161 197 129 198  255 0 0
4  105 101 48 103  255 0 0
5  97 95 96 98 272  0 0 255
4  91 90 89 92  255 0 0
4  94 91 92 93  255 0 0
4  90 87 88 89  255 0 0
4  86 49 52 83  255 0 0
4  85 50 49 86  255 0 0
4  86 83 84 85  255 0 0
4  187 81 82 186  255 0 0
4  103 48 47 184  255 0 0
3  272 98 118  0 0 255
4  52 51 172 173  255 0 0
4  76 60 63 67  255 0 0
4  75 22 62 73  255 0 0
4  69 64 22 74  255 0 0
4  70 68 65 66  255 0 0
4  70 66 64 69  255 0 0
4  68 67 63 65  255 0 0
4  66 65 63 64  255 0 0
4  64 63 62 22  255 0 0
4  63 60 61 62  255 0 0
4  52 49 50 51  255 0 0
4  48 45 46 47  255 0 0
8  19 11 9 10 15 16 17 18  0 0 255
8  11 19 18 17 16 15 10 9  255 0 0
4  14 10 9 13  0 0 255
4  10 14 13 9  255 0 0
3  12 9 11  0 0 255
3  9 12 11  255 0 0
9  8 1 0 2 3 4 5 6 7  0 255 0
9  1 8 7 6 5 4 3 2 0  255 0 0

