OFF
281 281 0

9.42667 -15.7672 13.8355
12.3008 -17.6149 13.8355
5.80516 -13.4391 13.8355
9.72 -7.28725 13.8355
13.4585 -9.7195 13.8355
16.36 -11.6072 13.8355
11.6977 -18.5075 10.9035
11.6977 -18.5075 12.4155
5.25406 -14.3051 10.9035
5.25406 -14.3051 12.4155
8.8416 -16.6448 12.4155
-1.32775 -8.85369 13.8355
-1.15227 -8.96651 13.8355
-14.9333 -0.107257 13.8355
-14.8244 0.0673974 13.8355
-14.0053 1.3808 13.8355
-9.81841 8.09426 13.8355
4.04 -0.567245 13.8355
-0.0834362 -7.23751 13.8355
-14.0053 1.3808 12.4155
-10.051 7.72139 12.4155
-14.0521 1.30585 12.4155
-14.0053 1.3808 10.9035
-9.81841 8.09426 10.9035
-9.81841 8.09426 12.4155
-12.0546 4.5087 13.0115
-30.503 24.7019 12.4155
-30.503 24.7019 13.8355
-30.503 24.7019 10.9035
-22.52 19.5928 10.9035
-22.52 19.5928 12.4155
-22.52 19.5928 13.8355
-26.76 30.7128 -9.56554
4.52 11.0328 -9.56554
-21.5263 39.1176 -9.56554
0.814595 25.1437 -9.56554
5.5859 22.1594 -9.56554
9.9557 19.4261 -9.56554
-2.14649 20.3958 0.947463
2.4942 17.393 0.947463
-0.215726 23.4917 0.947463
0.814595 25.1437 0.947463
5.5859 22.1594 0.947463
4.54841 20.5599 0.947463
-8.10749 24.2529 0.947463
-4.12 21.6728 0.947463
-6.16289 27.1515 0.947463
-5.04922 28.8115 0.947463
-1.15122 26.3733 0.947463
-2.2 24.7128 0.947463
-4.10566 -17.0579 10.9035
-2.24462 -14.1112 10.9035
-5.28007 -18.9174 10.9035
-1.19918 -21.466 10.9035
0.0018014 -19.6645 10.9035
1.9355 -16.764 10.9035
9.24 -25.5272 10.9035
11.08 -22.5672 10.9035
8.13918 -27.2981 10.9035
12.318 -29.9079 10.9035
13.4 -28.1672 10.9035
15.24 -25.2072 10.9035
5.80516 -13.4391 10.9035
9.72 -7.28725 10.9035
3.18481 -17.5568 10.9035
6.73263 -19.8083 10.9035
9.59245 -21.6232 10.9035
12.3008 -17.6149 10.9035
16.36 -11.6072 10.9035
12.3464 6.10873 -15.8055
-18.7751 25.689 0.947463
-26.76 30.7128 0.947463
-26.76 30.7128 -15.8055
4.52 11.0328 -15.8055
12.3464 6.10873 -9.56554
4.52 11.0328 0.947463
0.151464 13.7813 0.947463
-4.46162 16.6836 0.947463
-26.76 30.7128 10.9035
-32.1524 22.053 10.9035
-6.7987 -6.44463 10.9035
-15.3909 -0.840992 10.9035
-1.66358 -9.79363 10.9035
-1.15227 -8.96651 10.9035
4.04 -0.567245 10.9035
-0.966107 2.56157 10.9035
-16.2509 12.1146 10.9035
0.151464 13.7813 2.14746
13.4585 -9.7195 12.4155
8.8416 -16.6448 13.8355
0.151464 13.7813 4.22745
13.4585 -9.7195 15.7055
9.42667 -15.7672 15.7055
28.4248 -29.4165 10.9035
26.4994 -32.3526 10.9035
1.31372 -20.4971 10.9035
7.64047 -24.5122 10.9035
-30.04 8.71275 13.8355
-30.04 8.71275 12.4155
-30.04 8.71275 10.9035
-30.04 8.71275 15.7055
-25.4609 17.8708 15.7055
34.7544 -19.7638 10.9035
33.0028 -22.435 10.9035
-1.15122 26.3733 2.14746
-5.28007 -18.9174 12.4155
-4.10566 -17.0579 12.4155
3.59005 -1.29511 12.4155
-1.15227 -8.96651 13.835
29.7217 -34.3976 10.9035
29.7217 -34.3976 0.947463
-27.6832 -4.92592 0.947463
-27.6832 -4.92592 -9.56554
5.5859 22.1594 2.14746
4.54841 20.5599 2.14746
2.4942 17.393 2.14746
4.54841 20.5599 4.22745
2.4942 17.393 4.22745
-0.215726 23.4917 2.14746
-0.215726 23.4917 4.22745
-2.14649 20.3958 2.14746
-2.14649 20.3958 4.22745
4.52 11.0328 4.22745
-4.46162 16.6836 4.22745
8.93982 17.8575 0.947463
6.82443 14.5911 0.947463
0.814595 25.1437 2.14746
4.52 11.0328 2.14746
-4.46162 16.6836 2.14746
17.9467 -9.25893 10.9035
19.3396 -7.19738 10.9035
23.5623 -0.947816 10.9035
11.1633 -5.01928 10.9035
12.5446 -2.84857 10.9035
16.5584 3.45875 10.9035
0.157826 -22.3135 10.9035
0.157826 -22.3135 0.947463
31.5563 -31.4588 10.9035
31.5563 -31.4588 0.947463
-34.837 -0.458128 0.947463
-34.837 -0.458128 10.3682
-34.837 -0.458128 10.9035
-10.8856 -12.7552 10.9035
-12.1127 -14.6501 10.9035
0.515824 4.84984 10.9035
-8.99103 -9.82984 10.9035
4.52 11.0328 10.9035
12.318 -29.9079 12.4155
8.13918 -27.2981 12.4155
9.24 -25.5272 12.4155
-16.393 2.85892 12.4155
-20.5917 5.64441 12.4155
-26.0804 13.7967 13.0092
-28.0491 10.5919 12.4155
-2.2 24.7128 4.22745
-2.2 24.7128 2.14746
-4.12 21.6728 2.14746
-4.12 21.6728 4.22745
12.3008 -17.6149 12.4155
11.6977 -18.5075 13.8355
-1.15227 -8.96651 12.4155
-1.66358 -9.79363 12.4155
-1.66358 -9.79363 13.8355
5.25406 -14.3051 13.8355
5.80516 -13.4391 12.4155
-5.04922 28.8115 2.14746
-6.16289 27.1515 2.14746
9.72 -7.28725 12.4155
16.36 -11.6072 12.4155
12.3464 6.10873 0.947463
16.5584 3.45875 2.14746
-42.9968 4.63792 10.3264
-20.6701 -9.30581 10.4407
1.9355 -16.764 12.4155
0.0018014 -19.6645 12.4155
-8.10749 24.2529 2.14746
-6.16289 27.1515 4.22745
-8.10749 24.2529 4.22745
9.72 -7.28725 15.7055
16.36 -11.6072 15.7055
38.8905 -19.7099 10.9035
40.2203 -11.4283 0.947463
40.2203 -11.4283 10.9035
23.5623 -0.947816 0.947463
-14.6634 32.3825 0.947463
-16.3723 29.6007 0.947463
-5.577 -16.1242 10.9035
15.24 -25.2072 12.4155
13.4 -28.1672 12.4155
-20.68 5.51276 10.9035
-20.68 5.51276 12.4155
-16.3881 11.9101 12.4155
-28.8282 9.32366 13.8355
-24.1057 17.0114 12.4155
-26.76 30.7128 2.14746
-18.7751 25.689 2.14746
11.08 -22.5672 12.4155
-17.5926 -4.37117 10.9035
16.5584 3.45875 0.947463
-18.7751 25.689 4.22745
-4.46162 16.6836 10.9035
-13.5795 34.147 0.947463
-18.7751 25.689 10.9035
-30.503 24.7019 15.7055
-22.52 19.5928 15.7055
-0.0834362 -7.23751 15.7055
-14.0053 1.3808 15.7055
-20.6701 -9.30581 -9.56554
-20.6701 -9.30581 0.947463
-18.7751 25.689 13.8355
-18.7751 25.689 12.4155
-24.1002 17.0204 12.4155
-24.1002 17.0204 13.8355
-20.6701 -9.30581 10.9035
-29.4427 8.32322 10.9035
-16.2509 12.1146 12.4155
-22.0354 3.49238 10.9035
-24.1002 17.0204 15.7055
-24.1002 17.0204 10.9035
12.3008 -17.6149 15.7055
4.04 -0.567245 12.4155
4.04 -0.567245 15.7055
-1.15227 -8.96651 15.7055
-29.4427 8.32322 12.4155
5.80516 -13.4391 15.7055
-12.1127 -14.6501 0.947463
-3.93263 -19.7589 -15.8055
-12.1127 -14.6501 -15.8055
-12.1127 -14.6501 -9.56554
-14.9333 -0.107257 12.4155
-15.3909 -0.840992 13.8355
-15.3909 -0.840992 12.4155
-2.24462 -14.1112 12.4155
37.7055 -21.6082 0.947463
37.7055 -21.6082 10.9035
-18.4932 8.77238 13.0105
-14.9333 -0.107257 10.9035
-19.4369 -7.32845 10.9035
32.2091 -30.4131 10.9035
6.73263 -19.8083 12.4155
-29.4427 8.32322 13.8355
-29.4427 8.32322 15.7055
-1.19918 -21.466 12.4155
42.9774 -13.1629 -9.56554
42.9774 -13.1629 -15.8055
26.8564 -38.9876 -15.8055
26.8564 -38.9876 -9.56554
-32.1524 22.053 15.7055
-14.9333 -0.107257 15.7055
-32.1524 22.053 13.8355
-37.4501 13.5454 13.8355
-37.4501 13.5454 15.7055
-9.81841 8.09426 15.7055
-37.4501 13.5454 0.947463
-37.4501 13.5454 10.9035
-37.4501 13.5454 12.4155
42.9774 -13.1629 0.947463
26.8564 -38.9876 0.947463
-32.1524 22.053 12.4155
17.6849 14.5916 -9.56554
17.6849 14.5916 -15.8055
42.9774 -13.1629 10.9035
26.8564 -38.9876 10.9035
-26.76 30.7128 13.8355
27.8762 -37.3541 10.9035
9.9557 19.4261 0.947463
9.9557 19.4261 -15.8055
6.46467 -26.2523 10.9035
-21.5263 39.1176 0.947463
-21.5263 39.1176 -15.8055
9.59245 -21.6232 12.4155
-42.9968 4.63792 -9.56554
-26.76 30.7128 12.4155
-3.74431 -13.1595 10.9035
-42.9968 4.63792 -15.8055
-6.74006 -18.0056 10.9035
-42.9968 4.63792 10.9035
-3.93263 -19.7589 -9.56554
35.9801 -24.3721 10.9035
-42.9968 4.63792 0.947463
3.18481 -17.5568 12.4155
5  279 139 111 112 271  0 255 102
4  71 70 195 194  0 255 102
5  71 253 279 271 32  0 255 102
6  271 112 207 228 227 274  0 255 102
4  276 141 140 171  0 255 102
5  276 254 99 214 141  0 255 102
4  279 171 140 139  0 255 102
5  78 194 195 199 202  0 255 102
7  78 28 79 254 253 71 194  0 255 102
5  279 253 254 276 171  0 255 102
4  274 227 73 72  0 255 102
4  72 73 266 269  255 101 0
4  32 271 274 72  0 255 102
6  71 268 201 184 185 70  0 102 255
4  71 32 34 268  0 102 255
7  34 35 41 48 47 201 268  0 102 255
4  33 74 169 75  0 255 102
4  75 76 39 125  0 102 255
5  75 169 198 170 127  0 255 102
4  37 259 74 33  255 101 0
4  265 42 36 37  0 102 255
4  265 124 43 42  0 102 255
6  75 125 124 265 37 33  0 102 255
4  78 202 210 272  0 0 255
4  78 272 26 28  0 0 255
4  262 59 60 264  0 255 102
4  261 182 181 256  0 255 102
5  261 180 130 131 182  0 255 102
4  272 263 27 26  0 0 255
4  272 210 209 263  0 0 255
4  32 72 269 34  255 101 0
6  37 36 35 34 269 266  255 101 0
4  73 69 260 266  255 101 0
4  266 260 259 37  255 101 0
4  263 209 31 27  0 0 255
7  256 181 183 198 169 74 243  0 255 102
7  257 136 135 267 58 59 262  0 255 102
5  262 264 109 110 257  0 255 102
5  256 233 234 180 261  0 255 102
4  69 244 243 74  0 255 102
4  69 73 227 226  0 255 102
4  74 259 260 69  255 101 0
4  137 109 94 93  0 255 102
6  137 238 278 234 233 138  0 255 102
4  254 79 258 255  255 204 0
4  255 258 249 250  255 204 0
5  137 93 6 67 238  0 255 102
4  255 98 99 254  255 204 0
4  79 28 26 258  255 204 0
4  258 26 27 249  255 204 0
4  234 278 103 102  0 255 102
5  234 102 129 130 180  0 255 102
8  246 277 228 207 208 225 136 257  0 255 102
7  257 110 138 233 256 243 246  0 255 102
4  250 249 247 251  255 204 0
4  250 97 98 255  255 204 0
4  249 27 203 247  255 204 0
4  251 247 101 100  255 204 0
4  251 100 97 250  255 204 0
5  247 203 204 217 101  255 204 0
4  223 98 97 240  255 204 0
4  214 99 98 223  255 204 0
7  214 216 81 197 237 213 141  0 255 102
5  218 86 189 216 214  0 255 102
6  223 153 193 211 218 214  255 204 0
4  245 226 277 246  0 255 102
4  244 69 226 245  0 255 102
4  246 243 244 245  0 255 102
4  241 100 101 217  255 204 0
4  240 97 100 241  255 204 0
5  241 217 212 192 240  255 204 0
5  240 192 152 153 223  255 204 0
5  211 193 152 192 212  255 204 0
5  81 216 189 22 236  0 255 102
4  81 80 145 197  0 255 102
5  231 161 82 80 81  203 255 0
5  23 85 84 220 24  203 255 0
6  23 86 218 29 144 85  0 255 102
4  24 215 86 23  102 0 255
4  24 220 17 16  203 255 0
4  24 20 191 215  102 0 255
4  81 236 229 231  203 255 0
5  236 22 19 21 229  203 255 0
5  238 67 68 103 278  0 255 102
4  35 36 42 41  0 102 255
4  230 162 161 231  203 255 0
4  16 17 221 252  204 0 255
5  230 13 11 12 162  203 255 0
6  16 15 14 25 20 24  203 255 0
5  229 21 25 14 13  203 255 0
4  231 229 13 230  203 255 0
4  228 277 226 227  0 255 102
4  252 221 205 206  204 0 255
4  252 206 15 16  204 0 255
5  13 14 15 206 248  204 0 255
4  248 206 205 222  204 0 255
5  13 248 222 12 11  204 0 255
4  2 0 89 163  101 255 0
4  224 92 0 2  255 0 102
4  224 178 91 92  255 0 102
4  2 3 178 224  255 0 102
5  208 111 139 140 172  0 255 102
5  213 143 225 208 172  0 255 102
4  213 172 140 141  0 255 102
5  132 84 85 144 133  0 255 102
4  132 129 68 63  0 255 102
5  62 83 84 132 63  0 255 102
4  62 63 167 164  101 255 0
4  164 167 3 2  101 255 0
4  222 205 18 12  204 0 255
4  17 18 205 221  204 0 255
4  83 62 8 82  0 255 102
5  160 107 220 84 83  203 255 0
6  12 18 17 220 107 108  203 255 0
3  160 108 107  203 255 0
4  219 92 91 179  255 0 102
4  1 0 92 219  255 0 102
4  219 179 5 1  255 0 102
5  202 200 146 144 29  0 255 102
4  211 30 29 218  255 204 0
4  202 29 30 210  0 0 255
4  217 204 31 212  255 204 0
6  215 191 151 190 189 86  102 0 255
4  129 132 133 130  0 255 102
4  129 102 103 68  0 255 102
4  158 168 68 67  101 255 0
4  213 237 142 143  0 255 102
4  212 31 30 211  255 204 0
4  210 30 31 209  0 0 255
4  1 5 168 158  101 255 0
4  207 112 111 208  0 255 102
4  204 203 27 31  255 204 0
4  41 42 113 126  0 203 255
5  146 200 123 90 122  0 255 102
4  146 134 133 144  0 255 102
4  75 127 87 76  0 255 102
5  146 122 127 170 134  0 255 102
4  70 77 128 195  0 255 102
4  201 47 46 184  0 102 255
4  202 199 123 200  0 255 102
6  70 185 44 45 38 77  0 102 255
4  77 76 87 128  0 255 102
4  41 40 49 48  0 102 255
4  77 38 39 76  0 102 255
4  41 126 118 40  0 203 255
4  128 123 199 195  0 255 102
4  123 128 87 90  0 255 102
4  120 118 119 121  0 203 255
5  198 183 131 134 170  0 255 102
4  134 131 130 133  0 255 102
4  135 53 54 95  0 255 102
4  9 10 239 280  255 0 204
8  8 64 55 51 273 145 80 82  0 255 102
4  135 95 96 267  0 255 102
4  9 280 64 8  255 0 204
4  109 137 138 110  0 255 102
5  109 264 60 61 94  0 255 102
4  64 95 54 55  0 255 102
5  64 65 66 96 95  0 255 102
4  280 239 65 64  255 0 204
4  197 145 142 237  0 255 102
7  275 52 53 135 136 225 143  0 255 102
4  275 143 142 186  0 255 102
4  273 51 50 186  0 255 102
4  275 186 50 52  0 255 102
4  273 186 142 145  0 255 102
6  6 93 94 61 57 66  0 255 102
4  66 65 239 270  255 0 204
4  66 57 56 96  0 255 102
4  7 10 89 159  101 255 0
4  270 239 10 7  255 0 204
4  7 6 66 270  255 0 204
4  267 96 56 58  0 255 102
4  196 187 188 149  255 0 0
4  57 61 187 196  255 0 0
4  149 188 147 148  255 0 0
4  149 56 57 196  255 0 0
3  193 153 152  255 204 0
4  20 25 235 191  102 0 255
4  118 120 38 40  0 203 255
3  190 151 150  102 0 255
3  19 150 21  102 0 255
5  190 150 19 22 189  102 0 255
4  188 187 61 60  255 0 0
4  185 184 46 44  0 102 255
4  38 45 49 40  0 102 255
4  183 181 182 131  0 255 102
4  179 91 4 5  255 0 102
4  3 4 91 178  255 0 102
4  175 156 45 44  0 255 203
4  166 155 154 176  0 255 203
4  177 157 156 175  0 255 203
4  176 154 157 177  0 255 203
4  177 175 166 176  0 255 203
4  173 232 51 55  0 255 0
4  174 106 232 173  0 255 0
4  174 173 55 54  0 255 0
5  168 88 167 63 68  101 255 0
4  164 9 8 62  101 255 0
4  158 67 6 7  101 255 0
4  127 122 90 87  0 255 102
4  160 83 82 161  203 255 0
4  5 4 88 168  101 255 0
4  167 88 4 3  101 255 0
4  47 48 104 165  0 255 203
4  165 104 155 166  0 255 203
4  166 46 47 165  0 255 203
4  163 89 10 9  101 255 0
4  2 163 9 164  101 255 0
5  12 108 160 161 162  203 255 0
4  159 89 0 1  101 255 0
4  1 158 7 159  101 255 0
4  157 154 155 156  0 255 203
5  25 21 150 151 235  102 0 255
4  148 147 59 58  255 0 0
4  149 148 58 56  255 0 0
4  147 188 60 59  255 0 0
4  242 105 106 174  0 255 0
4  53 52 105 242  0 255 0
4  242 174 54 53  0 255 0
4  175 44 46 166  0 255 203
4  156 155 49 45  0 255 203
3  235 151 191  102 0 255
4  106 50 51 232  0 255 0
4  126 113 114 118  0 203 255
4  125 39 43 124  0 102 255
4  120 115 39 38  0 203 255
4  121 119 116 117  0 203 255
4  121 117 115 120  0 203 255
4  119 118 114 116  0 203 255
4  117 116 114 115  0 203 255
4  115 114 43 39  0 203 255
4  114 113 42 43  0 203 255
4  106 105 52 50  0 255 0
4  155 104 48 49  0 255 203
3  23 86 22  102 0 255
3  86 23 22  0 255 102
7  85 23 22 80 82 83 84  203 255 0
7  23 85 84 83 82 80 22  0 255 102
4  81 80 22 236  203 255 0
4  80 81 236 22  0 255 102
3  189 22 86  102 0 255
3  22 189 86  0 255 102
4  202 78 28 29  0 0 255
4  78 202 29 28  0 255 102
7  218 29 28 79 254 99 214  255 204 0
7  29 218 214 99 254 79 28  0 255 102
4  70 71 32 33  0 255 102
4  71 70 33 32  0 102 255
5  77 70 33 75 76  0 255 102
5  70 77 76 75 33  0 102 255
3  74 33 69  0 255 102
3  33 74 69  255 101 0
5  73 69 33 32 72  0 255 102
5  69 73 72 32 33  255 101 0
6  68 63 62 8 6 67  101 255 0
6  63 68 67 6 8 62  0 255 102
5  66 6 8 64 65  255 0 204
5  6 66 65 64 8  0 255 102
6  61 57 56 58 59 60  255 0 0
6  57 61 60 59 58 56  0 255 102
6  55 51 50 52 53 54  0 255 0
6  51 55 54 53 52 50  0 255 102
6  49 45 44 46 47 48  0 102 255
6  45 49 48 47 46 44  0 255 203
6  43 39 38 40 41 42  0 102 255
6  39 43 42 41 40 38  0 203 255
6  37 33 32 34 35 36  255 101 0
6  33 37 36 35 34 32  0 102 255
6  31 27 26 28 29 30  255 204 0
6  27 31 30 29 28 26  0 0 255
4  25 21 19 20  203 255 0
4  21 25 20 19  102 0 255
5  24 20 19 22 23  203 255 0
5  20 24 23 22 19  102 0 255
8  18 12 11 13 14 15 16 17  203 255 0
8  12 18 17 16 15 14 13 11  204 0 255
5  10 7 6 8 9  101 255 0
5  7 10 9 8 6  255 0 204
6  5 1 0 2 3 4  101 255 0
6  1 5 4 3 2 0  255 0 102

