OFF
235 402 0
834502.319999933243 816041.279998779297 9.418999671936
834509.520000457764 816036.720001220703 9.418999671936
834510.559999465942 816038.479999542236 9.418999671936
834516.880001068115 816048.479999542236 9.418999671936
834524.000000000000 816059.919998168945 9.418999671936
834525.680000305176 816062.720001220703 9.418999671936
834509.680000305176 816072.720001220703 9.418999671936
834521.760000228882 816056.400001525879 9.418999671936
834500.000000000000 816089.919998168945 9.418999671936
834500.320000052452 816090.319999694824 9.418999671936
834500.000000000000 816090.479995727539 9.418999671936
834499.039999961853 816088.160003662109 9.418999671936
834492.640000343323 816095.199996948242 9.418999671936
834495.360000133514 816082.479995727539 9.418999671936
834495.039999961853 816081.759994506836 9.418999671936
834487.840000152588 816098.239997863770 9.418999671936
834476.159999847412 816105.519996643066 9.418999671936
834461.200000762939 816114.799995422363 9.418999671936
834459.920001983643 816112.799995422363 9.418999671936
834456.159999847412 816106.720001220703 9.418999671936
834455.360000610352 816105.519996643066 9.418999671936
834450.240001678467 816096.959999084473 9.418999671936
834439.920001983643 816080.720001220703 9.418999671936
834439.680000305176 816080.399993896484 9.418999671936
834455.840000152588 816070.319999694824 9.418999671936
834443.600002288818 816086.720001220703 9.418999671936
834446.880001068115 816091.839996337891 9.418999671936
834482.479999542236 816101.599998474121 9.418999671936
834471.280000686646 816060.639999389648 9.418999671936
834486.800000190735 816051.040000915527 9.418999671936
834500.000000000000 816078.720001220703 9.418999671936
834500.000000000000 816042.720001220703 9.418999671936
834476.159999847412 816105.519996643066 19.931999206543
834461.200000762939 816114.799995422363 19.931999206543
834439.680000305176 816080.399993896484 19.931999206543
834509.520000457764 816036.720001220703 19.931999206543
834525.680000305176 816062.720001220703 19.931999206543
834487.200000762939 816086.800003051758 19.931999206543
834492.480000495911 816095.279998779297 19.931999206543
834485.120000839233 816099.919998168945 19.931999206543
834495.039999961853 816081.759994506836 29.888000488281
834455.920001983643 816106.479995727539 29.888000488281
834439.680000305176 816080.399993896484 29.888000488281
834509.520000457764 816036.720001220703 29.888000488281
834525.680000305176 816062.720001220703 29.888000488281
834519.920000076294 816053.439998626709 29.888000488281
834516.959999084473 816055.279998779297 29.888000488281
834520.159999847412 816060.159999847412 29.888000488281
834523.039999008179 816058.479999542236 29.888000488281
834516.959999084473 816055.279998779297 33.334999084473
834519.920000076294 816053.439998626709 33.334999084473
834523.039999008179 816058.479999542236 33.334999084473
834520.159999847412 816060.159999847412 33.334999084473
834491.840000152588 816059.599998474121 29.888000488281
834492.159999847412 816060.080001831055 29.888000488281
834494.480000019073 816058.479999542236 29.888000488281
834492.079999923706 816054.720001220703 29.888000488281
834486.560000419617 816058.080001831055 29.888000488281
834489.119999885559 816061.919998168945 29.888000488281
834491.360000610352 816060.479999542236 29.888000488281
834491.199999809265 816060.080001831055 29.888000488281
834494.480000019073 816058.479999542236 32.819999694824
834492.159999847412 816060.080001831055 32.819999694824
834491.840000152588 816059.599998474121 32.819999694824
834491.199999809265 816060.080001831055 32.819999694824
834491.360000610352 816060.479999542236 32.819999694824
834489.119999885559 816061.919998168945 32.819999694824
834486.560000419617 816058.080001831055 32.819999694824
834492.079999923706 816054.720001220703 32.819999694824
834499.039999961853 816064.160003662109 29.888000488281
834495.039999961853 816058.239997863770 29.888000488281
834488.480000495911 816062.319999694824 29.888000488281
834492.400000572205 816068.479995727539 29.888000488281
834492.159999847412 816060.080001831055 34.658000946045
834495.039999961853 816058.239997863770 34.658000946045
834499.039999961853 816064.160003662109 34.658000946045
834492.400000572205 816068.479995727539 34.658000946045
834488.480000495911 816062.319999694824 34.658000946045
834491.360000610352 816060.479999542236 34.658000946045
834491.199999809265 816060.080001831055 34.658000946045
834491.840000152588 816059.599998474121 34.658000946045
834493.760000228882 816053.200000762939 29.888000488281
834497.920000076294 816050.559997558594 29.888000488281
834496.079999923706 816047.599998474121 29.888000488281
834491.920000076294 816050.239997863770 29.888000488281
834497.920000076294 816050.559997558594 32.819999694824
834493.760000228882 816053.200000762939 32.819999694824
834491.920000076294 816050.239997863770 32.819999694824
834496.079999923706 816047.599998474121 32.819999694824
834480.399999618530 816061.599998474121 29.888000488281
834484.640001296997 816059.040000915527 29.888000488281
834482.560001373291 816055.919998168945 29.888000488281
834478.480001449585 816058.559997558594 29.888000488281
834484.640001296997 816059.040000915527 32.859718322754
834480.399999618530 816061.599998474121 32.859718322754
834478.480001449585 816058.559997558594 32.859718322754
834482.560001373291 816055.919998168945 32.859718322754
834483.040000915527 816098.800003051758 19.931999206543
834487.119999885559 816096.160003662109 19.931999206543
834485.200000762939 816093.199996948242 19.931999206543
834480.960000991821 816095.839996337891 19.931999206543
834487.119999885559 816096.160003662109 23.211988449097
834483.040000915527 816098.800003051758 23.211988449097
834480.960000991821 816095.839996337891 23.211988449097
834485.200000762939 816093.199996948242 23.211988449097
834476.319999694824 816103.039993286133 19.931999206543
834480.479999542236 816100.479995727539 19.931999206543
834478.560001373291 816097.440002441406 19.931999206543
834474.480001449585 816100.080001831055 19.931999206543
834480.479999542236 816100.479995727539 23.211988449097
834476.319999694824 816103.039993286133 23.211988449097
834474.480001449585 816100.080001831055 23.211988449097
834478.560001373291 816097.440002441406 23.211988449097
834452.159999847412 816100.479995727539 29.888000488281
834455.600002288818 816105.919998168945 29.888000488281
834455.680000305176 816105.919998168945 29.888000488281
834463.600002288818 816100.959999084473 29.888000488281
834460.159999847412 816095.360000610352 29.888000488281
834455.680000305176 816105.919998168945 33.197998046875
834455.600002288818 816105.919998168945 33.197998046875
834452.159999847412 816100.479995727539 33.197998046875
834460.159999847412 816095.360000610352 33.197998046875
834463.600002288818 816100.959999084473 33.197998046875
834453.120002746582 816083.839996337891 29.888000488281
834452.479999542236 816084.160003662109 29.888000488281
834452.639999389648 816084.479995727539 29.888000488281
834453.280002593994 816084.720001220703 29.888000488281
834445.280002593994 816089.279998779297 29.888000488281
834453.600002288818 816084.639999389648 29.888000488281
834452.639999389648 816084.479995727539 34.689998626709
834452.479999542236 816084.160003662109 34.689998626709
834453.120002746582 816083.839996337891 34.689998626709
834453.600002288818 816084.639999389648 34.689998626709
834453.280002593994 816084.720001220703 34.689998626709
834460.159999847412 816095.360000610352 34.689998626709
834452.159999847412 816100.479995727539 34.689998626709
834445.280002593994 816089.279998779297 34.689998626709
834472.000000000000 816082.479995727539 29.888000488281
834468.720001220703 816077.119995117188 29.888000488281
834462.000000000000 816081.279998779297 29.888000488281
834466.240001678467 816087.599998474121 29.888000488281
834473.120000839233 816083.360000610352 29.888000488281
834472.400001525879 816082.239997863770 29.888000488281
834472.000000000000 816082.479995727539 31.399999618530
834472.400001525879 816082.239997863770 31.399999618530
834473.120000839233 816083.360000610352 31.399999618530
834466.240001678467 816087.599998474121 31.399999618530
834462.000000000000 816081.279998779297 31.399999618530
834468.720001220703 816077.119995117188 31.399999618530
834473.280000686646 816083.599998474121 29.888000488281
834486.720000267029 816075.199996948242 29.888000488281
834481.280000686646 816066.400001525879 29.888000488281
834467.360000610352 816075.040000915527 29.888000488281
834472.400001525879 816082.239997863770 34.096000671387
834472.000000000000 816082.479995727539 34.096000671387
834467.360000610352 816075.040000915527 34.096000671387
834481.280000686646 816066.400001525879 34.096000671387
834486.720000267029 816075.199996948242 34.096000671387
834473.280000686646 816083.599998474121 34.096000671387
834464.159999847412 816084.720001220703 32.003829956055
834470.560001373291 816080.160003662109 32.003829956055
834455.920001983643 816106.479995727539 31.087999343872
834456.159999847412 816105.760002136230 31.087999343872
834524.959999084473 816062.479999542236 31.087999343872
834525.680000305176 816062.720001220703 31.087999343872
834509.440000534058 816037.439998626709 31.087999343872
834439.680000305176 816080.399993896484 31.087999343872
834440.400001525879 816080.639999389648 31.087999343872
834509.520000457764 816036.720001220703 31.087999343872
834456.159999847412 816105.760002136230 29.888000488281
834440.400001525879 816080.639999389648 29.888000488281
834509.440000534058 816037.439998626709 29.888000488281
834524.959999084473 816062.479999542236 29.888000488281
834455.920001983643 816106.479995727539 19.931999206543
834487.200000762939 816086.800003051758 21.131999969482
834455.920001983643 816106.479995727539 21.131999969482
834461.200000762939 816114.799995422363 21.131999969482
834461.440002441406 816114.239997863770 21.131999969482
834491.920000076294 816095.039993286133 21.131999969482
834492.640000343323 816095.199996948242 21.131999969482
834487.039999961853 816087.520004272461 21.131999969482
834456.639999389648 816106.559997558594 21.131999969482
834456.639999389648 816106.559997558594 19.931999206543
834487.039999961853 816087.520004272461 19.931999206543
834491.920000076294 816095.039993286133 19.931999206543
834492.640000343323 816095.199996948242 19.931999206543
834461.440002441406 816114.239997863770 19.931999206543
834509.520000457764 816036.720001220703 3.500000000000
834439.680000305176 816080.399993896484 3.500000000000
834455.840000152588 816070.319999694824 3.500000000000
834471.280000686646 816060.639999389648 3.500000000000
834486.800000190735 816051.040000915527 3.500000000000
834500.000000000000 816042.720001220703 3.500000000000
834502.319999933243 816041.279998779297 3.500000000000
834461.200000762939 816114.799995422363 3.500000000000
834459.920001983643 816112.799995422363 3.500000000000
834456.159999847412 816106.720001220703 3.500000000000
834455.360000610352 816105.519996643066 3.500000000000
834450.240001678467 816096.959999084473 3.500000000000
834446.880001068115 816091.839996337891 3.500000000000
834443.600002288818 816086.720001220703 3.500000000000
834439.920001983643 816080.720001220703 3.500000000000
834495.039999961853 816081.759994506836 3.500000000000
834525.680000305176 816062.720001220703 3.500000000000
834509.680000305176 816072.720001220703 3.500000000000
834500.000000000000 816078.720001220703 3.500000000000
834487.200000762939 816086.800003051758 9.418999671936
834487.200000762939 816086.800003051758 29.888000488281
834487.200000762939 816086.800003051758 31.087999343872
834500.320000052452 816090.319999694824 3.500000000000
834495.360000133514 816082.479995727539 3.500000000000
834499.039999961853 816088.160003662109 3.500000000000
834500.000000000000 816089.919998168945 3.500000000000
834492.480000495911 816095.279998779297 9.418999671936
834500.000000000000 816090.479995727539 3.500000000000
834492.640000343323 816095.199996948242 3.500000000000
834487.840000152588 816098.239997863770 3.500000000000
834482.479999542236 816101.599998474121 3.500000000000
834476.159999847412 816105.519996643066 3.500000000000
834485.120000839233 816099.919998168945 9.418999671936
834510.559999465942 816038.479999542236 3.500000000000
834516.880001068115 816048.479999542236 3.500000000000
834521.760000228882 816056.400001525879 3.500000000000
834524.000000000000 816059.919998168945 3.500000000000
834439.053050994873 816080.710929870605 3.766296386719
834460.139377593994 816114.701614379883 3.766296386719
834512.133022308350 816035.375320434570 3.766296386719
834439.892524719238 816080.373237609863 3.279072999954
834455.819610595703 816105.796218872070 3.279072999954
834525.309087753296 816062.262184143066 3.279072999954
834509.382001876831 816036.839202880859 3.279072999954
834455.837074279785 816106.365608215332 3.438549518585
834461.186508178711 816114.814483642578 3.438549518585
834500.051351547241 816090.207084655762 3.438549518585
834494.701917648315 816081.758209228516 3.438549518585
3 0 1 2
3 0 2 3
3 4 5 6
3 7 4 6
3 3 7 6
3 8 9 10
3 11 8 10
3 11 10 12
3 13 11 12
3 14 13 12
3 14 12 15
3 16 17 18
3 16 18 19
3 16 19 20
3 16 20 21
3 22 23 24
3 25 22 24
3 26 25 24
3 21 26 24
3 16 21 24
3 27 16 24
3 27 24 28
3 15 27 28
3 14 15 28
3 14 28 29
3 30 14 29
3 6 30 29
3 6 29 31
3 3 6 31
3 0 3 31
3 32 33 34
3 35 36 37
3 34 35 37
3 32 34 37
3 37 38 39
3 32 37 39
3 40 41 42
3 40 42 43
3 40 43 44
3 45 46 47
3 47 48 45
3 49 50 51
3 51 52 49
3 49 52 47
3 47 46 49
3 52 51 48
3 48 47 52
3 50 49 46
3 46 45 50
3 53 54 55
3 53 55 56
3 53 56 57
3 58 59 60
3 57 58 60
3 53 57 60
3 61 62 63
3 64 65 66
3 64 66 67
3 63 64 67
3 63 67 68
3 61 63 68
3 54 62 61
3 61 55 54
3 53 63 62
3 62 54 53
3 60 64 63
3 63 53 60
3 59 65 64
3 64 60 59
3 58 66 65
3 65 59 58
3 57 67 66
3 66 58 57
3 56 68 67
3 67 57 56
3 55 61 68
3 68 56 55
3 69 70 54
3 53 60 59
3 54 53 59
3 59 71 72
3 54 59 72
3 69 54 72
3 73 74 75
3 73 75 76
3 76 77 78
3 73 76 78
3 78 79 80
3 73 78 80
3 74 73 54
3 54 70 74
3 73 80 53
3 53 54 73
3 80 79 60
3 60 53 80
3 79 78 59
3 59 60 79
3 78 77 71
3 71 59 78
3 77 76 72
3 72 71 77
3 76 75 69
3 69 72 76
3 75 74 70
3 70 69 75
3 81 82 83
3 83 84 81
3 85 86 87
3 87 88 85
3 84 87 86
3 86 81 84
3 83 88 87
3 87 84 83
3 82 85 88
3 88 83 82
3 81 86 85
3 85 82 81
3 89 90 91
3 91 92 89
3 93 94 95
3 95 96 93
3 92 95 94
3 94 89 92
3 91 96 95
3 95 92 91
3 90 93 96
3 96 91 90
3 89 94 93
3 93 90 89
3 97 98 99
3 99 100 97
3 101 102 103
3 103 104 101
3 100 103 102
3 102 97 100
3 99 104 103
3 103 100 99
3 98 101 104
3 104 99 98
3 97 102 101
3 101 98 97
3 105 106 107
3 107 108 105
3 109 110 111
3 111 112 109
3 108 111 110
3 110 105 108
3 107 112 111
3 111 108 107
3 106 109 112
3 112 107 106
3 105 110 109
3 109 106 105
3 113 114 115
3 115 116 117
3 113 115 117
3 118 119 120
3 118 120 121
3 118 121 122
3 122 121 117
3 117 116 122
3 121 120 113
3 113 117 121
3 119 118 115
3 115 114 119
3 118 122 116
3 116 115 118
3 123 124 125
3 113 117 126
3 127 113 126
3 125 127 126
3 123 125 126
3 123 126 128
3 129 130 131
3 131 132 133
3 129 131 133
3 133 134 135
3 133 135 136
3 129 133 136
3 113 135 134
3 134 117 113
3 125 129 136
3 136 127 125
3 124 130 129
3 129 125 124
3 123 131 130
3 130 124 123
3 128 132 131
3 131 123 128
3 126 133 132
3 132 128 126
3 117 134 133
3 133 126 117
3 137 138 139
3 137 139 140
3 137 140 141
3 137 141 142
3 143 144 145
3 143 145 146
3 143 146 147
3 143 147 148
3 139 147 146
3 146 140 139
3 138 148 147
3 147 139 138
3 137 143 148
3 148 138 137
3 142 144 143
3 143 137 142
3 141 145 144
3 144 142 141
3 140 146 145
3 145 141 140
3 142 149 150
3 142 150 151
3 142 151 152
3 142 152 137
3 153 154 155
3 153 155 156
3 153 156 157
3 153 157 158
3 149 158 157
3 157 150 149
3 142 153 158
3 158 149 142
3 137 154 153
3 153 142 137
3 152 155 154
3 154 137 152
3 151 156 155
3 155 152 151
3 150 157 156
3 156 151 150
3 146 159 160
3 160 145 146
3 148 160 159
3 159 147 148
3 159 146 147
3 161 162 163
3 164 161 163
3 164 163 165
3 162 161 166
3 167 162 166
3 167 166 168
3 165 167 168
3 164 165 168
3 41 169 170
3 42 41 170
3 42 170 171
3 169 41 44
3 172 169 44
3 172 44 43
3 171 172 43
3 42 171 43
3 165 163 172
3 172 171 165
3 163 162 169
3 169 172 163
3 162 167 170
3 170 169 162
3 167 165 171
3 171 170 167
3 173 37 174
3 174 175 173
3 176 175 177
3 176 177 178
3 179 176 178
3 179 178 180
3 179 180 174
3 174 180 181
3 181 177 175
3 174 181 175
3 173 182 183
3 37 173 183
3 37 183 184
3 185 37 184
3 185 184 186
3 182 173 33
3 186 182 33
3 185 186 33
3 178 177 186
3 186 184 178
3 177 181 182
3 182 186 177
3 181 180 183
3 183 182 181
3 180 178 184
3 184 183 180
3 187 1 0
3 23 188 189
3 24 23 189
3 24 189 190
3 28 24 190
3 28 190 191
3 29 28 191
3 29 191 192
3 31 29 192
3 31 192 193
3 0 31 193
3 187 0 193
3 34 23 1
3 1 35 34
3 42 34 35
3 35 43 42
3 42 43 168
3 168 166 42
3 188 23 22
3 17 194 195
3 18 17 195
3 18 195 196
3 19 18 196
3 19 196 197
3 20 19 197
3 20 197 198
3 21 20 198
3 21 198 199
3 26 21 199
3 26 199 200
3 25 26 200
3 25 200 201
3 22 25 201
3 188 22 201
3 33 17 23
3 23 34 33
3 41 173 34
3 34 42 41
3 114 113 120
3 120 119 114
3 135 113 127
3 127 136 135
3 41 42 166
3 166 161 41
3 33 173 175
3 175 176 33
3 202 14 30
3 5 203 204
3 6 5 204
3 6 204 205
3 30 6 205
3 202 30 205
3 36 5 206
3 206 37 36
3 44 36 37
3 37 207 44
3 44 207 208
3 208 164 44
3 209 9 8
3 14 202 210
3 13 14 210
3 13 210 211
3 11 13 211
3 11 211 212
3 8 11 212
3 209 8 212
3 37 206 213
3 213 38 37
3 37 185 179
3 179 174 37
3 194 17 16
3 9 209 214
3 10 9 214
3 10 214 215
3 12 10 215
3 12 215 216
3 15 12 216
3 15 216 217
3 27 15 217
3 27 217 218
3 16 27 218
3 194 16 218
3 17 33 32
3 38 213 219
3 39 38 219
3 39 219 16
3 32 39 16
3 17 32 16
3 185 33 176
3 176 179 185
3 203 5 4
3 1 187 220
3 2 1 220
3 2 220 221
3 3 2 221
3 3 221 222
3 7 3 222
3 7 222 223
3 4 7 223
3 203 4 223
3 35 1 5
3 5 36 35
3 43 35 36
3 36 44 43
3 45 48 51
3 51 50 45
3 43 44 164
3 164 168 43
3 208 37 173
3 173 161 208
3 227 229 228
3 227 230 229
3 231 233 232
3 231 234 233
