OFF
281 235 0

0.151464 13.7813 0.947463
2.4942 17.393 0.947463
13.4585 -9.7195 13.8355
13.4585 -9.7195 12.4155
8.8416 -16.6448 12.4155
8.8416 -16.6448 13.8355
0.151464 13.7813 2.14746
0.151464 13.7813 4.22745
13.4585 -9.7195 15.7055
9.42667 -15.7672 15.7055
9.42667 -15.7672 13.8355
28.4248 -29.4165 10.9035
26.4994 -32.3526 10.9035
-30.503 24.7019 12.4155
-30.503 24.7019 10.9035
1.31372 -20.4971 10.9035
-30.503 24.7019 13.8355
-30.04 8.71275 12.4155
-30.04 8.71275 10.9035
-30.04 8.71275 15.7055
-25.4609 17.8708 15.7055
34.7544 -19.7638 10.9035
33.0028 -22.435 10.9035
-1.15122 26.3733 0.947463
-2.2 24.7128 0.947463
-1.15122 26.3733 2.14746
-5.28007 -18.9174 12.4155
-1.15227 -8.96651 13.835
3.59005 -1.29511 12.4155
29.7217 -34.3976 0.947463
-27.6832 -4.92592 0.947463
-27.6832 -4.92592 -9.56554
5.5859 22.1594 2.14746
4.54841 20.5599 2.14746
4.54841 20.5599 0.947463
5.5859 22.1594 0.947463
2.4942 17.393 2.14746
-0.215726 23.4917 4.22745
-2.14649 20.3958 4.22745
4.52 11.0328 4.22745
8.93982 17.8575 0.947463
-2.14649 20.3958 2.14746
-2.14649 20.3958 0.947463
6.82443 14.5911 0.947463
-0.215726 23.4917 2.14746
0.814595 25.1437 2.14746
4.52 11.0328 2.14746
19.3396 -7.19738 10.9035
11.1633 -5.01928 10.9035
12.5446 -2.84857 10.9035
0.157826 -22.3135 10.9035
0.157826 -22.3135 0.947463
31.5563 -31.4588 0.947463
-34.837 -0.458128 10.3682
-10.8856 -12.7552 10.9035
0.515824 4.84984 10.9035
-6.7987 -6.44463 10.9035
-8.99103 -9.82984 10.9035
31.5563 -31.4588 10.9035
-12.1127 -14.6501 10.9035
-12.1127 -14.6501 0.947463
-0.966107 2.56157 10.9035
-2.24462 -14.1112 10.9035
-30.04 8.71275 13.8355
-4.10566 -17.0579 12.4155
-26.76 30.7128 12.4155
-4.10566 -17.0579 10.9035
-34.837 -0.458128 0.947463
16.36 -11.6072 10.9035
-20.5917 5.64441 12.4155
16.36 -11.6072 12.4155
-16.3881 11.9101 12.4155
-18.4932 8.77238 13.0105
-19.4369 -7.32845 10.9035
35.9801 -24.3721 10.9035
6.73263 -19.8083 10.9035
6.73263 -19.8083 12.4155
-8.10749 24.2529 2.14746
3.18481 -17.5568 10.9035
-6.16289 27.1515 4.22745
-4.12 21.6728 0.947463
-4.12 21.6728 2.14746
5.25406 -14.3051 10.9035
-8.10749 24.2529 4.22745
-8.10749 24.2529 0.947463
-5.28007 -18.9174 10.9035
-6.16289 27.1515 0.947463
-6.16289 27.1515 2.14746
9.72 -7.28725 13.8355
0.0018014 -19.6645 12.4155
0.0018014 -19.6645 10.9035
-1.19918 -21.466 12.4155
-1.19918 -21.466 10.9035
13.4 -28.1672 12.4155
12.318 -29.9079 10.9035
12.318 -29.9079 12.4155
8.13918 -27.2981 12.4155
8.13918 -27.2981 10.9035
9.24 -25.5272 12.4155
9.24 -25.5272 10.9035
-32.1524 22.053 15.7055
-37.4501 13.5454 15.7055
-14.0521 1.30585 12.4155
-16.393 2.85892 12.4155
-12.0546 4.5087 13.0115
-26.0804 13.7967 13.0092
-37.4501 13.5454 0.947463
-28.0491 10.5919 12.4155
-20.68 5.51276 12.4155
-2.2 24.7128 4.22745
-20.68 5.51276 10.9035
-2.2 24.7128 2.14746
-32.1524 22.053 13.8355
-37.4501 13.5454 13.8355
42.9774 -13.1629 -9.56554
11.6977 -18.5075 12.4155
26.8564 -38.9876 0.947463
12.3008 -17.6149 13.8355
5.25406 -14.3051 13.8355
-15.3909 -0.840992 13.8355
5.25406 -14.3051 12.4155
-5.04922 28.8115 0.947463
16.36 -11.6072 13.8355
-1.66358 -9.79363 10.9035
-1.66358 -9.79363 12.4155
11.08 -22.5672 12.4155
-22.52 19.5928 13.8355
12.3464 6.10873 0.947463
12.3464 6.10873 -9.56554
16.5584 3.45875 2.14746
27.8762 -37.3541 10.9035
-26.76 30.7128 13.8355
9.59245 -21.6232 10.9035
-42.9968 4.63792 10.3264
12.3008 -17.6149 10.9035
11.6977 -18.5075 10.9035
-2.24462 -14.1112 12.4155
5.80516 -13.4391 12.4155
9.72 -7.28725 12.4155
-17.5926 -4.37117 10.9035
1.9355 -16.764 12.4155
1.9355 -16.764 10.9035
-5.577 -16.1242 10.9035
29.7217 -34.3976 10.9035
4.04 -0.567245 13.8355
42.9774 -13.1629 10.9035
-1.15227 -8.96651 13.8355
16.36 -11.6072 15.7055
9.72 -7.28725 15.7055
38.8905 -19.7099 10.9035
-22.52 19.5928 12.4155
40.2203 -11.4283 0.947463
40.2203 -11.4283 10.9035
23.5623 -0.947816 10.9035
23.5623 -0.947816 0.947463
-0.215726 23.4917 0.947463
-14.6634 32.3825 0.947463
-20.6701 -9.30581 10.9035
-16.3723 29.6007 0.947463
-21.5263 39.1176 -15.8055
-20.6701 -9.30581 10.4407
5.80516 -13.4391 15.7055
-9.81841 8.09426 10.9035
15.24 -25.2072 12.4155
-15.3909 -0.840992 12.4155
15.24 -25.2072 10.9035
5.80516 -13.4391 10.9035
-24.1002 17.0204 15.7055
-5.04922 28.8115 2.14746
9.9557 19.4261 -9.56554
-14.0053 1.3808 10.9035
-14.0053 1.3808 12.4155
-4.46162 16.6836 2.14746
-10.051 7.72139 12.4155
-14.8244 0.0673974 13.8355
-28.8282 9.32366 13.8355
-24.1057 17.0114 12.4155
17.9467 -9.25893 10.9035
-1.15227 -8.96651 10.9035
0.814595 25.1437 0.947463
0.814595 25.1437 -9.56554
37.7055 -21.6082 10.9035
-26.76 30.7128 2.14746
-20.6701 -9.30581 0.947463
-18.7751 25.689 2.14746
-14.9333 -0.107257 12.4155
11.08 -22.5672 10.9035
26.8564 -38.9876 10.9035
13.4 -28.1672 10.9035
7.64047 -24.5122 10.9035
4.52 11.0328 10.9035
6.46467 -26.2523 10.9035
-6.74006 -18.0056 10.9035
9.59245 -21.6232 12.4155
-34.837 -0.458128 10.9035
12.3008 -17.6149 15.7055
-3.74431 -13.1595 10.9035
3.18481 -17.5568 12.4155
-1.32775 -8.85369 13.8355
4.04 -0.567245 15.7055
16.5584 3.45875 10.9035
16.5584 3.45875 0.947463
-4.12 21.6728 4.22745
-1.66358 -9.79363 13.8355
-30.503 24.7019 15.7055
-4.46162 16.6836 4.22745
-22.52 19.5928 10.9035
-14.0053 1.3808 15.7055
-14.0053 1.3808 13.8355
-4.46162 16.6836 0.947463
12.3464 6.10873 -15.8055
-4.46162 16.6836 10.9035
-0.0834362 -7.23751 15.7055
-0.0834362 -7.23751 13.8355
-13.5795 34.147 0.947463
-18.7751 25.689 10.9035
-18.7751 25.689 0.947463
-16.2509 12.1146 10.9035
-26.76 30.7128 0.947463
-22.0354 3.49238 10.9035
4.52 11.0328 0.947463
-42.9968 4.63792 -15.8055
-37.4501 13.5454 12.4155
-9.81841 8.09426 13.8355
4.04 -0.567245 12.4155
-22.52 19.5928 15.7055
4.54841 20.5599 4.22745
-26.76 30.7128 10.9035
2.4942 17.393 4.22745
-1.15227 -8.96651 15.7055
-18.7751 25.689 12.4155
26.8564 -38.9876 -9.56554
-14.9333 -0.107257 10.9035
5.5859 22.1594 -9.56554
-15.3909 -0.840992 10.9035
-21.5263 39.1176 0.947463
-26.76 30.7128 -9.56554
-16.2509 12.1146 12.4155
-26.76 30.7128 -15.8055
-24.1002 17.0204 13.8355
-42.9968 4.63792 10.9035
-12.1127 -14.6501 -9.56554
11.6977 -18.5075 13.8355
-12.1127 -14.6501 -15.8055
-18.7751 25.689 13.8355
-32.1524 22.053 10.9035
-24.1002 17.0204 10.9035
-14.9333 -0.107257 13.8355
-18.7751 25.689 4.22745
-37.4501 13.5454 10.9035
-9.81841 8.09426 12.4155
-1.15227 -8.96651 12.4155
-24.1002 17.0204 12.4155
4.04 -0.567245 10.9035
32.2091 -30.4131 10.9035
-20.6701 -9.30581 -9.56554
4.52 11.0328 -15.8055
5.80516 -13.4391 13.8355
-29.4427 8.32322 13.8355
-42.9968 4.63792 -9.56554
9.72 -7.28725 10.9035
-29.4427 8.32322 12.4155
-14.9333 -0.107257 15.7055
-9.81841 8.09426 15.7055
-3.93263 -19.7589 -15.8055
42.9774 -13.1629 -15.8055
-3.93263 -19.7589 -9.56554
-42.9968 4.63792 0.947463
-32.1524 22.053 12.4155
37.7055 -21.6082 0.947463
17.6849 14.5916 -15.8055
17.6849 14.5916 -9.56554
-29.4427 8.32322 15.7055
26.8564 -38.9876 -15.8055
-29.4427 8.32322 10.9035
12.3008 -17.6149 12.4155
42.9774 -13.1629 0.947463
9.9557 19.4261 0.947463
9.9557 19.4261 -15.8055
-21.5263 39.1176 -9.56554
4.52 11.0328 -9.56554
5  267 67 30 31 259  255 0 0
4  218 216 184 182  255 0 0
5  218 106 267 259 236  255 0 0
6  259 31 255 241 243 221  255 0 0
4  240 194 53 133  255 0 0
5  240 249 18 274 194  255 0 0
4  267 133 53 67  255 0 0
5  227 182 184 248 215  255 0 0
7  227 14 245 249 106 218 182  255 0 0
5  267 106 249 240 133  255 0 0
4  221 243 256 238  255 0 0
4  238 256 278 159  255 0 0
4  236 259 221 238  255 0 0
6  218 235 214 156 158 216  255 0 0
4  218 236 279 235  255 0 0
7  279 180 179 23 121 214 235  255 0 0
4  280 128 127 220  255 0 0
4  220 0 1 43  255 0 0
5  220 127 201 129 46  255 0 0
4  169 271 128 280  255 0 0
4  277 35 233 169  255 0 0
4  277 40 34 35  255 0 0
6  220 43 40 277 169 280  255 0 0
4  227 215 230 65  255 0 0
4  227 65 13 14  255 0 0
4  187 94 188 130  255 0 0
4  145 152 151 276  255 0 0
5  145 149 47 153 152  255 0 0
4  65 131 16 13  255 0 0
4  65 230 244 131  255 0 0
4  236 238 159 279  255 0 0
6  169 233 180 279 159 278  255 0 0
4  256 210 270 278  255 0 0
4  278 270 271 169  255 0 0
4  131 244 126 16  255 0 0
7  276 151 154 201 127 128 114  255 0 0
7  116 51 50 191 97 94 187  255 0 0
5  187 130 143 29 116  255 0 0
5  276 269 181 149 145  255 0 0
4  210 265 114 128  255 0 0
4  210 256 243 264  255 0 0
4  128 271 270 210  255 0 0
4  58 143 12 11  255 0 0
6  58 254 74 181 269 52  255 0 0
4  249 245 268 222  255 0 0
4  222 268 112 113  255 0 0
5  58 11 135 134 254  255 0 0
4  222 17 18 249  255 0 0
4  245 14 13 268  255 0 0
4  268 13 16 112  255 0 0
4  181 74 22 21  255 0 0
5  181 21 177 47 149  255 0 0
8  231 266 241 255 183 60 51 116  255 0 0
7  116 29 52 269 276 114 231  255 0 0
4  113 112 100 101  255 0 0
4  113 63 17 222  255 0 0
4  112 16 204 100  255 0 0
4  101 100 20 19  255 0 0
4  101 19 63 113  255 0 0
5  100 204 225 167 20  255 0 0
4  261 17 63 258  255 0 0
4  274 18 17 261  255 0 0
7  274 219 234 139 73 157 194  255 0 0
5  246 217 110 219 274  255 0 0
6  261 107 176 252 246 274  255 0 0
4  273 264 266 231  255 0 0
4  265 210 264 273  255 0 0
4  231 114 265 273  255 0 0
4  272 19 20 167  255 0 0
4  258 63 19 272  255 0 0
5  272 167 239 175 258  255 0 0
5  258 175 105 107 261  255 0 0
5  252 176 105 175 239  255 0 0
5  234 219 110 170 232  255 0 0
4  234 56 57 139  255 0 0
5  164 124 123 56 234  255 0 0
5  162 61 253 224 250  255 0 0
6  162 217 246 206 55 61  255 0 0
4  250 237 217 162  255 0 0
4  250 224 144 223  255 0 0
4  250 173 71 237  255 0 0
4  234 232 185 164  255 0 0
5  232 170 171 102 185  255 0 0
5  254 134 68 22 74  255 0 0
4  180 233 35 179  255 0 0
4  119 203 124 164  255 0 0
4  223 144 199 263  255 0 0
5  119 247 198 146 203  255 0 0
6  223 208 174 104 173 250  255 0 0
5  185 102 104 174 247  255 0 0
4  164 185 247 119  255 0 0
4  241 266 264 243  255 0 0
4  263 199 212 207  255 0 0
4  263 207 208 223  255 0 0
5  247 174 208 207 262  255 0 0
4  262 207 212 229  255 0 0
5  247 262 229 146 198  255 0 0
4  257 10 5 118  255 0 0
4  161 9 10 257  255 0 0
4  161 148 8 9  255 0 0
4  257 88 148 161  255 0 0
5  183 30 67 53 160  255 0 0
5  157 59 60 183 160  255 0 0
4  157 160 53 194  255 0 0
5  48 253 61 55 49  255 0 0
4  48 177 68 260  255 0 0
5  166 178 253 48 260  255 0 0
4  166 260 138 137  255 0 0
4  137 138 88 257  255 0 0
4  229 212 213 146  255 0 0
4  144 213 212 199  255 0 0
4  178 166 82 123  255 0 0
5  251 28 224 253 178  255 0 0
6  146 213 144 224 28 27  255 0 0
3  251 27 28  255 0 0
4  195 9 8 147  255 0 0
4  117 10 9 195  255 0 0
4  195 147 122 117  255 0 0
5  215 211 190 55 206  255 0 0
4  252 150 206 246  255 0 0
4  215 206 150 230  255 0 0
4  167 225 126 239  255 0 0
6  237 71 69 108 110 217  255 0 0
4  177 48 49 47  255 0 0
4  177 21 22 68  255 0 0
4  275 70 68 134  255 0 0
4  157 73 54 59  255 0 0
4  239 126 150 252  255 0 0
4  230 150 126 244  255 0 0
4  117 122 70 275  255 0 0
4  255 31 30 183  255 0 0
4  225 204 16 126  255 0 0
4  179 35 32 45  255 0 0
5  190 211 205 7 39  255 0 0
4  190 200 49 55  255 0 0
4  220 46 6 0  255 0 0
5  190 39 46 129 200  255 0 0
4  216 209 172 184  255 0 0
4  214 121 86 156  255 0 0
4  215 248 205 211  255 0 0
6  216 158 84 80 42 209  255 0 0
4  209 0 6 172  255 0 0
4  179 155 24 23  255 0 0
4  209 42 1 0  255 0 0
4  179 45 44 155  255 0 0
4  172 205 248 184  255 0 0
4  205 172 6 7  255 0 0
4  41 44 37 38  255 0 0
5  201 154 153 200 129  255 0 0
4  200 153 47 49  255 0 0
4  50 92 90 15  255 0 0
4  120 4 76 197  255 0 0
8  82 78 141 62 196 57 56 123  255 0 0
4  50 15 189 191  255 0 0
4  120 197 78 82  255 0 0
4  143 58 52 29  255 0 0
5  143 130 188 165 12  255 0 0
4  78 15 90 141  255 0 0
5  78 75 132 189 15  255 0 0
4  197 76 75 78  255 0 0
4  139 57 54 73  255 0 0
7  192 85 92 50 51 60 59  255 0 0
4  192 59 54 142  255 0 0
4  196 62 66 142  255 0 0
4  192 142 66 85  255 0 0
4  196 142 54 57  255 0 0
6  135 11 12 165 186 132  255 0 0
4  132 75 76 193  255 0 0
4  132 186 99 189  255 0 0
4  115 4 5 242  255 0 0
4  193 76 4 115  255 0 0
4  115 135 132 193  255 0 0
4  191 189 99 97  255 0 0
4  125 163 93 98  255 0 0
4  186 165 163 125  255 0 0
4  98 93 95 96  255 0 0
4  98 99 186 125  255 0 0
3  176 107 105  255 0 0
4  173 104 72 71  255 0 0
4  44 41 42 155  255 0 0
3  108 69 103  255 0 0
3  171 103 102  255 0 0
5  108 103 171 170 110  255 0 0
4  93 163 165 188  255 0 0
4  158 156 86 84  255 0 0
4  42 80 24 155  255 0 0
4  154 151 152 153  255 0 0
4  147 8 2 122  255 0 0
4  88 2 8 148  255 0 0
4  77 81 80 84  255 0 0
4  87 111 109 79  255 0 0
4  83 202 81 77  255 0 0
4  79 109 202 83  255 0 0
4  83 77 87 79  255 0 0
4  140 136 62 141  255 0 0
4  89 64 136 140  255 0 0
4  89 140 141 90  255 0 0
5  70 3 138 260 68  255 0 0
4  137 120 82 166  255 0 0
4  275 134 135 115  255 0 0
4  46 39 7 6  255 0 0
4  251 178 123 124  255 0 0
4  122 2 3 70  255 0 0
4  138 3 2 88  255 0 0
4  121 23 25 168  255 0 0
4  168 25 111 87  255 0 0
4  87 86 121 168  255 0 0
4  118 5 4 120  255 0 0
4  257 118 120 137  255 0 0
5  146 27 251 124 203  255 0 0
4  242 5 10 117  255 0 0
4  117 275 115 242  255 0 0
4  202 109 111 81  255 0 0
5  104 102 103 69 72  255 0 0
4  96 95 94 97  255 0 0
4  98 96 97 99  255 0 0
4  95 93 188 94  255 0 0
4  91 26 64 89  255 0 0
4  92 85 26 91  255 0 0
4  91 89 90 92  255 0 0
4  77 84 86 87  255 0 0
4  81 111 24 80  255 0 0
3  72 69 71  255 0 0
4  64 66 62 136  255 0 0
4  45 32 33 44  255 0 0
4  43 1 34 40  255 0 0
4  41 36 1 42  255 0 0
4  38 37 226 228  255 0 0
4  38 228 36 41  255 0 0
4  37 44 33 226  255 0 0
4  228 226 33 36  255 0 0
4  36 33 34 1  255 0 0
4  33 32 35 34  255 0 0
4  64 26 85 66  255 0 0
4  111 25 23 24  255 0 0

