COFF
279 402 0

19.64 -34.4872 -9.56554
26.84 -39.0472 -9.56554
27.88 -37.2872 -9.56554
34.2 -27.2872 -9.56554
41.32 -15.8472 -9.56554
43 -13.0472 -9.56554
27 -3.04724 -9.56554
39.08 -19.3672 -9.56554
17.32 14.1528 -9.56554
17.64 14.5528 -9.56554
17.32 14.7128 -9.56554
16.36 12.3928 -9.56554
9.96 19.4328 -9.56554
12.68 6.71275 -9.56554
12.36 5.99275 -9.56554
5.16 22.4728 -9.56554
-6.52 29.7528 -9.56554
-21.48 39.0328 -9.56554
-22.76 37.0328 -9.56554
-26.52 30.9528 -9.56554
-27.32 29.7528 -9.56554
-32.44 21.1928 -9.56554
-42.76 4.95276 -9.56554
-43 4.63275 -9.56554
-26.84 -5.44724 -9.56554
-39.08 10.9528 -9.56554
-35.8 16.0728 -9.56554
-0.200001 25.8328 -9.56554
-11.4 -15.1272 -9.56554
4.12 -24.7272 -9.56554
17.32 2.95276 -9.56554
17.32 -33.0472 -9.56554
-6.52 29.7528 0.947463
-21.48 39.0328 0.947463
-43 4.63275 0.947463
26.84 -39.0472 0.947463
43 -13.0472 0.947463
4.52 11.0328 0.947463
9.8 19.5128 0.947463
2.44 24.1528 0.947463
12.36 5.99275 10.9035
-26.76 30.7128 10.9035
-43 4.63275 10.9035
26.84 -39.0472 10.9035
43 -13.0472 10.9035
37.24 -22.3272 10.9035
34.28 -20.4872 10.9035
37.48 -15.6072 10.9035
40.36 -17.2872 10.9035
34.28 -20.4872 14.3505
37.24 -22.3272 14.3505
40.36 -17.2872 14.3505
37.48 -15.6072 14.3505
9.16 -16.1672 10.9035
9.48 -15.6872 10.9035
11.8 -17.2872 10.9035
9.4 -21.0472 10.9035
3.88 -17.6872 10.9035
6.44 -13.8472 10.9035
8.68 -15.2872 10.9035
8.52 -15.6872 10.9035
11.8 -17.2872 13.8355
9.48 -15.6872 13.8355
9.16 -16.1672 13.8355
8.52 -15.6872 13.8355
8.68 -15.2872 13.8355
6.44 -13.8472 13.8355
3.88 -17.6872 13.8355
9.4 -21.0472 13.8355
16.36 -11.6072 10.9035
12.36 -17.5272 10.9035
5.8 -13.4472 10.9035
9.72 -7.28725 10.9035
9.48 -15.6872 15.6735
12.36 -17.5272 15.6735
16.36 -11.6072 15.6735
9.72 -7.28725 15.6735
5.8 -13.4472 15.6735
8.68 -15.2872 15.6735
8.52 -15.6872 15.6735
9.16 -16.1672 15.6735
11.08 -22.5672 10.9035
15.24 -25.2072 10.9035
13.4 -28.1672 10.9035
9.24 -25.5272 10.9035
15.24 -25.2072 13.8355
11.08 -22.5672 13.8355
9.24 -25.5272 13.8355
13.4 -28.1672 13.8355
-2.28 -14.1672 10.9035
1.96 -16.7272 10.9035
-0.119999 -19.8472 10.9035
-4.2 -17.2072 10.9035
1.96 -16.7272 13.8752
-2.28 -14.1672 13.8752
-4.2 -17.2072 13.8752
-0.119999 -19.8472 13.8752
0.360001 23.0328 0.947463
4.44 20.3928 0.947463
2.52 17.4328 0.947463
-1.72 20.0728 0.947463
4.44 20.3928 4.22745
0.360001 23.0328 4.22745
-1.72 20.0728 4.22745
2.52 17.4328 4.22745
-6.36 27.2728 0.947463
-2.2 24.7128 0.947463
-4.12 21.6728 0.947463
-8.2 24.3128 0.947463
-2.2 24.7128 4.22745
-6.36 27.2728 4.22745
-8.2 24.3128 4.22745
-4.12 21.6728 4.22745
-30.52 24.7128 10.9035
-27.08 30.1528 10.9035
-27 30.1528 10.9035
-19.08 25.1928 10.9035
-22.52 19.5928 10.9035
-27 30.1528 14.2135
-27.08 30.1528 14.2135
-30.52 24.7128 14.2135
-22.52 19.5928 14.2135
-19.08 25.1928 14.2135
-29.56 8.07275 10.9035
-30.2 8.39276 10.9035
-30.04 8.71275 10.9035
-29.4 8.95276 10.9035
-37.4 13.5128 10.9035
-29.08 8.87276 10.9035
-30.04 8.71275 15.7055
-30.2 8.39276 15.7055
-29.56 8.07275 15.7055
-29.08 8.87276 15.7055
-29.4 8.95276 15.7055
-22.52 19.5928 15.7055
-30.52 24.7128 15.7055
-37.4 13.5128 15.7055
-10.68 6.71275 10.9035
-13.96 1.35275 10.9035
-20.68 5.51276 10.9035
-16.44 11.8328 10.9035
-9.56 7.59276 10.9035
-10.28 6.47276 10.9035
-10.68 6.71275 12.4155
-10.28 6.47276 12.4155
-9.56 7.59276 12.4155
-16.44 11.8328 12.4155
-20.68 5.51276 12.4155
-13.96 1.35275 12.4155
-9.4 7.83276 10.9035
4.04 -0.567245 10.9035
-1.4 -9.36724 10.9035
-15.32 -0.727242 10.9035
-10.28 6.47276 15.1115
-10.68 6.71275 15.1115
-15.32 -0.727242 15.1115
-1.4 -9.36724 15.1115
4.04 -0.567245 15.1115
-9.4 7.83276 15.1115
-18.52 8.95276 13.0193
-12.12 4.39276 13.0193
-26.76 30.7128 12.1035
-26.52 29.9928 12.1035
42.28 -13.2872 12.1035
43 -13.0472 12.1035
26.76 -38.3272 12.1035
-43 4.63275 12.1035
-42.28 4.87276 12.1035
26.84 -39.0472 12.1035
-26.52 29.9928 10.9035
-42.28 4.87276 10.9035
26.76 -38.3272 10.9035
42.28 -13.2872 10.9035
-26.76 30.7128 0.947463
4.52 11.0328 2.14746
-26.76 30.7128 2.14746
-21.48 39.0328 2.14746
-21.24 38.4728 2.14746
9.24 19.2728 2.14746
9.96 19.4328 2.14746
4.36 11.7528 2.14746
-26.04 30.7928 2.14746
-26.04 30.7928 0.947463
4.36 11.7528 0.947463
9.24 19.2728 0.947463
9.96 19.4328 0.947463
-21.24 38.4728 0.947463
26.84 -39.0472 -15.4845
-43 4.63275 -15.4845
-26.84 -5.44724 -15.4845
-11.4 -15.1272 -15.4845
4.12 -24.7272 -15.4845
17.32 -33.0472 -15.4845
19.64 -34.4872 -15.4845
-21.48 39.0328 -15.4845
-22.76 37.0328 -15.4845
-26.52 30.9528 -15.4845
-27.32 29.7528 -15.4845
-32.44 21.1928 -15.4845
-35.8 16.0728 -15.4845
-39.08 10.9528 -15.4845
-42.76 4.95276 -15.4845
12.36 5.99275 -15.4845
43 -13.0472 -15.4845
27 -3.04724 -15.4845
17.32 2.95276 -15.4845
4.52 11.0328 -9.56554
4.52 11.0328 10.9035
4.52 11.0328 12.1035
17.64 14.5528 -15.4845
12.68 6.71275 -15.4845
16.36 12.3928 -15.4845
17.32 14.1528 -15.4845
9.8 19.5128 -9.56554
17.32 14.7128 -15.4845
9.96 19.4328 -15.4845
5.16 22.4728 -15.4845
-0.200001 25.8328 -15.4845
-6.52 29.7528 -15.4845
2.44 24.1528 -9.56554
27.88 -37.2872 -15.4845
34.2 -27.2872 -15.4845
39.08 -19.3672 -15.4845
41.32 -15.8472 -15.4845
12.0219 5.99097 -15.546
17.3714 14.4398 -15.546
-21.4935 39.0472 -15.546
-42.7875 4.606 -15.7055
-26.8604 30.029 -15.7055
42.6291 -13.5051 -15.7055
26.702 -38.928 -15.7055
-26.8429 30.5984 -15.546
26.84 -39.0472 -9.56554
43 -13.0472 -9.56554
-6.52 29.7528 -9.56554
-21.48 39.0328 -9.56554
-43 4.63275 -9.56554
-21.48 39.0328 0.947463
-43 4.63275 0.947463
26.84 -39.0472 0.947463
26.84 -39.0472 0.947463
43 -13.0472 0.947463
43 -13.0472 0.947463
4.52 11.0328 0.947463
4.52 11.0328 0.947463
4.52 11.0328 0.947463
-26.76 30.7128 10.9035
-26.76 30.7128 10.9035
-26.76 30.7128 10.9035
-43 4.63275 10.9035
-43 4.63275 10.9035
-43 4.63275 10.9035
26.84 -39.0472 10.9035
26.84 -39.0472 10.9035
26.84 -39.0472 10.9035
43 -13.0472 10.9035
43 -13.0472 10.9035
9.16 -16.1672 10.9035
9.16 -16.1672 10.9035
9.16 -16.1672 10.9035
9.48 -15.6872 10.9035
8.68 -15.2872 10.9035
8.52 -15.6872 10.9035
8.52 -15.6872 10.9035
8.52 -15.6872 10.9035
-30.52 24.7128 10.9035
-22.52 19.5928 10.9035
-10.68 6.71275 10.9035
-10.28 6.47276 10.9035
-9.56 7.59276 12.4155
-16.44 11.8328 12.4155
-16.44 11.8328 12.4155
-20.68 5.51276 12.4155
-20.68 5.51276 12.4155
-13.96 1.35275 12.4155
-26.76 30.7128 12.1035
-26.76 30.7128 0.947463
-26.76 30.7128 0.947463
4.52 11.0328 12.1035
3  0 1 2  255 0 255
3  0 2 3  255 0 255
3  4 5 6  255 0 255
3  7 4 6  255 0 255
3  3 7 6  255 0 255
3  8 9 10  255 0 255
3  11 8 10  255 0 255
3  11 10 12  255 0 255
3  13 11 12  255 0 255
3  14 13 12  255 0 255
3  14 12 15  255 0 255
3  16 17 18  255 0 255
3  16 18 19  255 0 255
3  16 19 20  255 0 255
3  16 20 21  255 0 255
3  22 23 24  255 0 255
3  25 22 24  255 0 255
3  26 25 24  255 0 255
3  21 26 24  255 0 255
3  16 21 24  255 0 255
3  27 16 24  255 0 255
3  27 24 28  255 0 255
3  15 27 28  255 0 255
3  14 15 28  255 0 255
3  14 28 29  255 0 255
3  30 14 29  255 0 255
3  6 30 29  255 0 255
3  6 29 31  255 0 255
3  3 6 31  255 0 255
3  0 3 31  255 0 255
3  32 33 34  0 255 255
3  35 36 37  0 255 255
3  34 35 37  0 255 255
3  32 34 37  0 255 255
3  37 38 39  0 255 255
3  32 37 39  0 255 255
3  40 41 42  0 255 0
3  40 42 43  0 255 0
3  40 43 44  0 255 0
3  45 46 47  0 255 0
3  47 48 45  0 255 0
3  49 50 51  64 64 255
3  51 52 49  64 64 255
3  49 52 47  128 255 64
3  47 46 49  128 255 64
3  52 51 48  64 128 255
3  48 47 52  64 128 255
3  50 49 46  255 64 64
3  46 45 50  255 64 64
3  53 54 55  0 255 0
3  53 55 56  0 255 0
3  53 56 57  0 255 0
3  58 59 60  0 255 0
3  57 58 60  0 255 0
3  53 57 60  0 255 0
3  61 62 63  64 64 255
3  64 65 66  64 64 255
3  64 66 67  64 64 255
3  63 64 67  64 64 255
3  63 67 68  64 64 255
3  61 63 68  64 64 255
3  54 62 61  0 0 192
3  61 55 54  0 0 192
3  257 63 62  64 255 64
3  62 54 257  64 255 64
3  262 64 63  0 0 192
3  63 257 262  0 0 192
3  59 65 64  100 100 100
3  64 262 59  100 100 100
3  58 66 65  0 0 192
3  65 59 58  0 0 192
3  57 67 66  0 128 128
3  66 58 57  0 128 128
3  56 68 67  0 128 64
3  67 57 56  0 128 64
3  55 61 68  128 0 128
3  68 56 55  128 0 128
3  69 70 260  0 255 0
3  258 263 261  0 255 0
3  260 258 261  0 255 0
3  261 71 72  0 255 0
3  260 261 72  0 255 0
3  69 260 72  0 255 0
3  73 74 75  255 0 0
3  73 75 76  255 0 0
3  76 77 78  255 0 0
3  73 76 78  255 0 0
3  78 79 80  255 0 0
3  73 78 80  255 0 0
3  74 73 260  0 0 192
3  260 70 74  0 0 192
3  73 80 259  64 255 64
3  259 260 73  64 255 64
3  80 79 264  0 0 192
3  264 259 80  0 0 192
3  79 78 261  100 100 100
3  261 264 79  100 100 100
3  78 77 71  0 0 192
3  71 261 78  0 0 192
3  77 76 72  0 128 128
3  72 71 77  0 128 128
3  76 75 69  72 61 139
3  69 72 76  72 61 139
3  75 74 70  128 0 128
3  70 69 75  128 0 128
3  81 82 83  0 255 0
3  83 84 81  0 255 0
3  85 86 87  64 64 255
3  87 88 85  64 64 255
3  84 87 86  173 216 230
3  86 81 84  173 216 230
3  83 88 87  64 0 128
3  87 84 83  64 0 128
3  82 85 88  255 165 0
3  88 83 82  255 165 0
3  81 86 85  0 128 64
3  85 82 81  0 128 64
3  89 90 91  0 255 0
3  91 92 89  0 255 0
3  93 94 95  64 64 255
3  95 96 93  64 64 255
3  92 95 94  240 128 128
3  94 89 92  240 128 128
3  91 96 95  64 0 128
3  95 92 91  64 0 128
3  90 93 96  50 205 50
3  96 91 90  50 205 50
3  89 94 93  0 128 64
3  93 90 89  0 128 64
3  97 98 99  0 255 255
3  99 100 97  0 255 255
3  101 102 103  64 255 128
3  103 104 101  64 255 128
3  100 103 102  192 0 0
3  102 97 100  192 0 0
3  99 104 103  255 64 128
3  103 100 99  255 64 128
3  98 101 104  123 104 238
3  104 99 98  123 104 238
3  97 102 101  128 64 0
3  101 98 97  128 64 0
3  105 106 107  0 255 255
3  107 108 105  0 255 255
3  109 110 111  64 255 128
3  111 112 109  64 255 128
3  108 111 110  255 64 255
3  110 105 108  255 64 255
3  107 112 111  255 64 128
3  111 108 107  255 64 128
3  106 109 112  255 20 147
3  112 107 106  255 20 147
3  105 110 109  128 64 0
3  109 106 105  128 64 0
3  113 114 115  0 255 0
3  115 116 117  0 255 0
3  113 115 117  0 255 0
3  118 119 120  64 64 255
3  118 120 121  64 64 255
3  118 121 122  64 64 255
3  122 121 117  255 128 64
3  117 116 122  255 128 64
3  121 120 113  128 64 255
3  113 117 121  128 64 255
3  119 118 115  100 100 100
3  115 114 119  100 100 100
3  118 122 116  255 255 0
3  116 115 118  255 255 0
3  123 124 125  0 255 0
3  265 266 126  0 255 0
3  127 265 126  0 255 0
3  125 127 126  0 255 0
3  123 125 126  0 255 0
3  123 126 128  0 255 0
3  129 130 131  255 0 0
3  131 132 133  255 0 0
3  129 131 133  255 0 0
3  133 134 135  255 0 0
3  133 135 136  255 0 0
3  129 133 136  255 0 0
3  265 135 134  128 64 255
3  134 266 265  128 64 255
3  125 129 136  128 255 255
3  136 127 125  128 255 255
3  124 130 129  0 192 0
3  129 125 124  0 192 0
3  123 131 130  100 100 100
3  130 124 123  100 100 100
3  128 132 131  0 192 0
3  131 123 128  0 192 0
3  126 133 132  100 100 100
3  132 128 126  100 100 100
3  266 134 133  255 128 64
3  133 126 266  255 128 64
3  137 138 139  0 255 0
3  137 139 140  0 255 0
3  137 140 141  0 255 0
3  137 141 142  0 255 0
3  143 144 145  128 0 255
3  143 145 146  128 0 255
3  143 146 147  128 0 255
3  143 147 148  128 0 255
3  139 272 270  255 64 255
3  270 140 139  255 64 255
3  138 148 272  255 255 64
3  272 139 138  255 255 64
3  137 143 148  192 0 0
3  148 138 137  192 0 0
3  142 144 143  100 100 100
3  143 137 142  100 100 100
3  141 145 144  192 0 0
3  144 142 141  192 0 0
3  140 270 145  255 64 64
3  145 141 140  255 64 64
3  268 149 150  0 255 0
3  268 150 151  0 255 0
3  268 151 152  0 255 0
3  268 152 267  0 255 0
3  153 154 155  255 0 0
3  153 155 156  255 0 0
3  153 156 157  255 0 0
3  153 157 158  255 0 0
3  149 158 157  255 64 64
3  157 150 149  255 64 64
3  268 153 158  192 0 0
3  158 149 268  192 0 0
3  267 154 153  100 100 100
3  153 268 267  100 100 100
3  152 155 154  192 0 0
3  154 267 152  192 0 0
3  151 156 155  128 255 255
3  155 152 151  128 255 255
3  150 157 156  128 128 0
3  156 151 150  128 128 0
3  271 159 160  255 128 255
3  160 269 271  255 128 255
3  274 160 159  192 192 0
3  159 273 274  192 192 0
3  159 271 273  100 100 100
3  161 162 163  128 0 255
3  164 161 163  128 0 255
3  164 163 165  128 0 255
3  162 161 166  128 0 255
3  167 162 166  128 0 255
3  167 166 168  128 0 255
3  165 167 168  128 0 255
3  164 165 168  128 0 255
3  246 169 170  0 255 0
3  249 246 170  0 255 0
3  249 170 171  0 255 0
3  169 246 255  0 255 0
3  172 169 255  0 255 0
3  172 255 252  0 255 0
3  171 172 252  0 255 0
3  249 171 252  0 255 0
3  165 163 172  128 128 255
3  172 171 165  128 128 255
3  163 162 169  255 255 0
3  169 172 163  255 255 0
3  162 167 170  0 0 255
3  170 169 162  0 0 255
3  167 165 171  128 255 128
3  171 170 167  128 255 128
3  173 243 174  255 255 0
3  174 175 173  255 255 0
3  176 175 177  192 0 192
3  176 177 178  192 0 192
3  179 176 178  192 0 192
3  179 178 180  192 0 192
3  179 180 174  192 0 192
3  174 180 181  192 0 192
3  181 177 175  192 0 192
3  174 181 175  192 0 192
3  173 182 183  0 255 255
3  243 173 183  0 255 255
3  243 183 184  0 255 255
3  185 243 184  0 255 255
3  185 184 186  0 255 255
3  182 173 237  0 255 255
3  186 182 237  0 255 255
3  185 186 237  0 255 255
3  178 177 186  255 128 128
3  186 184 178  255 128 128
3  177 181 182  0 0 255
3  182 186 177  0 0 255
3  181 180 183  64 255 255
3  183 182 181  64 255 255
3  180 178 184  0 192 192
3  184 183 180  0 192 192
3  187 1 0  128 255 128
3  23 188 189  128 255 128
3  24 23 189  128 255 128
3  24 189 190  128 255 128
3  28 24 190  128 255 128
3  28 190 191  128 255 128
3  29 28 191  128 255 128
3  29 191 192  128 255 128
3  31 29 192  128 255 128
3  31 192 193  128 255 128
3  0 31 193  128 255 128
3  187 0 193  128 255 128
3  34 236 232  128 255 128
3  232 239 34  128 255 128
3  250 238 240  128 255 128
3  240 253 250  128 255 128
3  251 254 168  128 255 128
3  168 166 251  128 255 128
3  188 23 22  0 0 255
3  17 194 195  0 0 255
3  18 17 195  0 0 255
3  18 195 196  0 0 255
3  19 18 196  0 0 255
3  19 196 197  0 0 255
3  20 19 197  0 0 255
3  20 197 198  0 0 255
3  21 20 198  0 0 255
3  21 198 199  0 0 255
3  26 21 199  0 0 255
3  26 199 200  0 0 255
3  25 26 200  0 0 255
3  25 200 201  0 0 255
3  22 25 201  0 0 255
3  188 22 201  0 0 255
3  33 235 236  0 0 255
3  236 34 33  0 0 255
3  247 276 238  0 0 255
3  238 250 247  0 0 255
3  114 113 120  0 0 255
3  120 119 114  0 0 255
3  135 265 127  0 0 255
3  127 136 135  0 0 255
3  248 251 166  0 0 255
3  166 161 248  0 0 255
3  237 173 175  0 0 255
3  175 176 237  0 0 255
3  202 14 30  255 255 0
3  5 203 204  255 255 0
3  6 5 204  255 255 0
3  6 204 205  255 255 0
3  30 6 205  255 255 0
3  202 30 205  255 255 0
3  241 233 206  64 255 255
3  206 37 241  64 255 255
3  256 242 244  255 255 0
3  244 207 256  255 255 0
3  256 207 208  255 255 0
3  208 164 256  255 255 0
3  209 9 8  255 255 128
3  14 202 210  255 255 128
3  13 14 210  255 255 128
3  13 210 211  255 255 128
3  11 13 211  255 255 128
3  11 211 212  255 255 128
3  8 11 212  255 255 128
3  209 8 212  255 255 128
3  37 206 213  0 192 192
3  213 38 37  0 192 192
3  243 185 179  0 192 192
3  179 174 243  0 192 192
3  194 17 16  255 128 128
3  9 209 214  255 128 128
3  10 9 214  255 128 128
3  10 214 215  255 128 128
3  12 10 215  255 128 128
3  12 215 216  255 128 128
3  15 12 216  255 128 128
3  15 216 217  255 128 128
3  27 15 217  255 128 128
3  27 217 218  255 128 128
3  16 27 218  255 128 128
3  194 16 218  255 128 128
3  235 33 32  255 128 128
3  38 213 219  255 128 128
3  39 38 219  255 128 128
3  39 219 234  255 128 128
3  32 39 234  255 128 128
3  235 32 234  255 128 128
3  185 237 176  255 128 128
3  176 179 185  255 128 128
3  203 5 4  128 128 255
3  1 187 220  128 128 255
3  2 1 220  128 128 255
3  2 220 221  128 128 255
3  3 2 221  128 128 255
3  3 221 222  128 128 255
3  7 3 222  128 128 255
3  7 222 223  128 128 255
3  4 7 223  128 128 255
3  203 4 223  128 128 255
3  239 232 233  128 128 255
3  233 241 239  128 128 255
3  253 240 242  128 128 255
3  242 256 253  128 128 255
3  45 48 51  128 128 255
3  51 50 45  128 128 255
3  254 256 164  128 128 255
3  164 168 254  128 128 255
3  278 245 277  255 255 0
3  277 275 278  255 255 0
3  227 229 228  255 128 0
3  227 230 229  255 128 0
3  231 225 226  255 128 0
3  231 224 225  255 128 0

