OFF
641 530 0

8.12198 5.7276 78.05
8.424 5.36267 78.05
8.424 5.36267 76.85
8.38105 5.34 78.05
9.54531 11.1837 67.55
9.54531 11.1837 -78.15
10.5845 10.9239 -78.15
10.5845 10.9239 67.55
-4.58886 -1.95601 78.05
-3.64928 1.75534 78.05
-3.24902 -10.9392 78.05
-4.37111 -10.0041 76.85
-3.24902 -10.9392 76.85
-3.09039 -10.3409 76.85
-1.72 -17.84 -78.15
-0.0694739 -18.1701 -78.15
-0.0694739 -18.1701 67.55
-3.5231 2.25376 78.05
6.12381 4.12571 78.05
6.12381 4.12571 76.85
5.72305 7.73257 78.05
5.58658 2.1917 78.05
-4.58886 -1.95601 76.85
-4.73827 -2.54617 67.55
0.072248 -11.6667 78.05
-0.781125 -11.5482 78.05
-0.534372 -10.678 78.05
-0.534372 -10.678 76.85
0.293204 -10.9056 76.85
0.072248 -11.6667 76.85
9.17061 3.34354 78.05
8.96204 1.35505 76.85
8.96204 1.35505 78.05
3.92598 -10.3571 78.05
2.18488 -11.4258 76.85
3.92598 -10.3571 76.85
-3.81177 -3.52268 78.05
-4.31606 -2.65819 78.05
-3.62395 -2.84181 78.05
1.01531 -11.7977 76.85
1.01531 -11.7977 78.05
8.12198 5.7276 76.85
0.533499 -10.9717 76.85
1.72562 -11.7078 78.05
1.72562 -11.7078 76.85
1.16397 -12.0525 76.85
1.16397 -12.0525 78.05
-4.31606 -2.65819 76.85
-3.62395 -2.84181 76.85
-3.81177 -3.52268 76.85
0.533499 -10.9717 78.05
1.83097 -11.3285 78.05
-5.37009 -9.17159 76.85
-5.37009 -9.17159 78.05
-4.37111 -10.0041 78.05
-4.12 -4.64 78.05
-2.98264 -4.94405 78.05
-1.85673 8.83591 76.85
-0.52216 9.46149 76.85
-0.52216 9.46149 78.05
-1.85673 8.83591 78.05
6.52211 -0.405263 78.05
4.97869 0.00328759 78.05
5.11689 0.500808 78.05
6.6542 0.101107 78.05
6.57837 -7.49996 78.05
6.57837 -7.49996 76.85
6.0726 -8.73068 76.85
6.0726 -8.73068 78.05
0.293204 -10.9056 78.05
-0.241091 -9.64384 78.05
1.83097 -11.3285 76.85
-7.65828 -3.69412 78.05
-7.65828 -3.69412 76.85
-7.70327 -1.75954 76.85
-7.70327 -1.75954 78.05
6.9591 7.13276 78.05
5.31158 1.20168 78.05
-5.35317 -9.11024 76.85
-6.11193 -7.97211 78.05
-5.35317 -9.11024 78.05
1.51321 -5.24377 78.05
9.15376 1.30753 78.05
9.15376 1.30753 76.85
7.10161 1.81618 78.05
6.8654 -7.57669 78.05
6.8654 -7.57669 76.85
5.1814 -7.12651 78.05
5.1814 -7.12651 76.85
3.21053 -8.29895 78.05
2 -10.72 78.05
3.21053 -8.29895 76.85
2 -10.72 76.85
-3.64 8 78.05
-3.64 8 76.85
8.40782 -1.58846 78.05
6.56045 -2.59612 76.85
8.40782 -1.58846 76.85
-1.11495 -2.89068 78.05
8.83566 3.18059 78.05
8.38105 5.34 76.85
8.83566 3.18059 76.85
2.85185 -7.65333 78.05
5.90292 -9.14357 78.05
5.90292 -9.14357 76.85
4.24511 -10.1612 76.85
4.24511 -10.1612 78.05
3.37353 -5.77529 78.05
7.47696 -5.20239 78.05
5.41538 -4.64771 78.05
5.8494 -2.98396 78.05
6.56045 -2.59612 78.05
7.65283 -4.51962 78.05
8.57277 -0.948085 76.85
5.41538 -4.64771 76.85
5.72305 7.73257 76.85
7.65283 -4.51962 76.85
7.47696 -5.20239 76.85
5.8494 -2.98396 76.85
7.25723 2.41271 78.05
7.43546 3.09594 76.85
7.96336 5.11955 76.85
6.6542 0.101107 76.85
8.9396 0.476081 76.85
8.70563 -0.432264 76.85
-5.97855 5.32738 78.05
-3 4.32 78.05
-3 4.32 76.85
5 -6.24 78.05
-5.19556 -4.35247 76.85
-5.19556 -4.35247 78.05
-4.73827 -2.54617 78.05
-4.73827 -2.54617 76.85
5 -6.24 76.85
7.05823 -6.82806 76.85
4.90059 -6.62106 78.05
7.05823 -6.82806 78.05
4.06272 -9.8329 78.05
4.06272 -9.8329 76.85
4.79564 -7.02339 76.85
4.90059 -6.62106 76.85
6.8605 0.891901 78.05
8.9396 0.476081 78.05
6.47455 0.969091 67.55
6.47455 0.969091 76.85
8.57277 -0.948085 78.05
6.36 2 67.55
5.58658 2.1917 76.85
7.10161 1.81618 76.85
7.10161 1.81618 67.55
-0.781125 -11.5482 76.85
-3.31711 -11.196 76.85
-3.31711 -11.196 78.05
-4.58886 -1.95601 67.55
-2.07292 -6.50357 78.05
-1.26775 -3.46692 78.05
-0.132803 0.813429 78.05
-6.76062 2.58874 78.05
0.0017073 1.32072 78.05
-7.9813 -1.68578 78.05
-7.81091 -1.08909 78.05
-3.46314 -2.25889 78.05
-7.9813 -1.68578 76.85
-7.81091 -1.08909 76.85
-3.46314 -2.25889 76.85
-6.21791 -8.39075 76.85
-7.64 -4.48 76.85
-7.64 -4.48 78.05
-6.21791 -8.39075 78.05
9.37469 -0.606218 -78.15
8.89614 0.307368 -78.15
8.89614 0.307368 67.55
8.9396 0.476081 67.55
11.32 -6.41634e-08 67.55
4.335 -6.05 76.85
6.71938 4.46301 76.85
3.1491 -6.58323 67.55
4.335 -6.05 67.55
-3.09039 -10.3409 78.05
5.8494 -2.98396 67.55
-3 -10 78.05
-3 -10 76.85
1.0219 5.16831 78.05
5.84146 7.79716 78.05
5.84146 7.79716 76.85
1.0219 5.16831 76.85
-2.07292 -6.50357 76.85
-0.241091 -9.64384 76.85
-3.64928 1.75534 76.85
-3.64928 1.75534 67.55
-3.5231 2.25376 67.55
-3.5231 2.25376 76.85
-6.76062 2.58874 76.85
-6.62203 3.07407 76.85
-2.44477 1.43271 78.05
3.1491 -6.58323 76.85
4.79564 -7.02339 67.55
2.85185 -7.65333 76.85
3.80696 -4.21495 78.05
1.47628 -3.58787 78.05
2.10181 -6.30326 76.85
7.43546 3.09594 67.55
6.71938 4.46301 67.55
-1.74699 -5.27437 67.55
-2.98264 -4.94405 76.85
-2.98264 -4.94405 67.55
-6.11193 -7.97211 76.85
1.17787 -4.64016 78.05
-15.9556 -6.95754 -78.15
-15.9556 -6.95754 67.55
-15.2513 -6.56629 67.55
-6.05031 5.07606 76.85
-6.05031 5.07606 78.05
0.562817 3.43691 78.05
6.13128 4.15262 76.85
6.8605 0.891901 76.85
2.10181 -6.30326 67.55
-4.12 -4.64 67.55
-4.12 -4.64 76.85
5 -6.24 67.55
4.06272 -9.8329 67.55
3.54929 -11.8011 67.55
1.83097 -11.3285 67.55
2.76687 -14.8003 67.55
1.47957 -12.5935 67.55
2.99567 19.3446 -78.15
4.6591 18.8858 -78.15
4.6591 18.8858 67.55
8.35792 -5.76119 67.55
2.99567 19.3446 67.55
-12.28 -13.28 67.55
-12.28 -13.28 -78.15
-11.579 -12.8419 67.55
8.9396 0.476081 -78.15
-11.579 -12.8419 -78.15
-3.46314 -2.25889 67.55
10.52 4 -78.15
-17.64 9.44 67.55
10.52 4 67.55
10.2503 4.49789 67.55
-19.1259 1.95527 67.55
-19.4763 0.653771 67.55
-10.4309 11.4237 -78.15
5.99292 -10.964 -78.15
7.96336 5.11955 -78.15
6.8605 0.891901 67.55
7.96336 5.11955 67.55
6.13128 4.15262 67.55
-2.57141 23.7168 67.55
-3.09039 -10.3409 67.55
-2.52 -17.68 67.55
17.2186 -2.64563 67.55
11.32 -6.41634e-08 -78.15
-6.62203 3.07407 67.55
17.2186 -2.64563 -78.15
17.08 -13.76 67.55
17.08 -3.2 67.55
2.18227 -17.0413 67.55
10.7572 -12.0091 67.55
-14.0658 4.54548 67.55
-8.74189 8.3834 -78.15
17.08 -3.2 -78.15
16.0057 -7.49711 -78.15
-14.0658 4.54548 -78.15
15.7388 -8.56471 -78.15
7.05546 7.47965 -78.15
-7.88376 11.3868 -78.15
15.7388 -8.56471 67.55
8.89738 14.1106 -78.15
-10.0031 3.96906 67.55
9.3329 -7.47797 67.55
16.3613 -8.72032 67.55
7.05546 7.47965 67.55
-7.88376 11.3868 67.55
16.0057 -7.49711 67.55
3.96 -6.8 76.85
-10.0031 3.96906 -78.15
-19.1259 1.95527 -78.15
18.28 -9.2 -78.15
16.3613 -8.72032 -78.15
9.84294 12.3246 67.55
10.2472 -7.1918 67.55
-12.5272 10.187 67.55
10.2472 -7.1918 -78.15
4.26912 8.20838 67.55
4.26912 8.20838 -78.15
18.28 -9.2 67.55
-12.5272 10.187 -78.15
6.87898 17.9229 -78.15
-11.1887 -0.18029 67.55
11.619 -11.5034 -78.15
9.84294 12.3246 -78.15
9.93907 -8.54533 -78.15
-11.3625 -0.788726 -78.15
11.619 -11.5034 67.55
-7.81091 -1.08909 -78.15
9.93907 -8.54533 67.55
-11.3625 -0.788726 67.55
5 -11.52 67.55
-7.81091 -1.08909 67.55
5 -11.52 -78.15
3.38697 -12.4233 -78.15
3.38697 -12.4233 67.55
6.6542 0.101107 67.55
-18.0129 6.08929 67.55
-9.69185 11.8597 67.55
-3.24151 -20.2243 -78.15
-15.24 0.24 67.55
-3.81177 -3.52268 67.55
2.85185 -7.65333 67.55
-18.1351 5.63546 -78.15
-3.62395 -2.84181 67.55
7 -10.4 -78.15
-18.1351 5.63546 67.55
-19.2978 1.31657 67.55
-14.4202 -21.1821 -78.15
-11.9771 -12.1616 67.55
0.239137 2.21617 78.05
-8.04745 -18.877 -78.15
7.05546 7.47965 78.05
17.3951 -1.9398 -78.15
11.8598 -0.107967 -78.15
6.32059 -10.7805 67.55
0.533499 -10.9717 67.55
6.52211 -0.405263 76.85
-3 4.32 67.55
-17.1335 9.35558 67.55
-17.64 9.44 -78.15
-21.1572 -5.58959 -78.15
0.562817 3.43691 76.85
6.52211 -0.405263 -78.15
9.12977 9.59078 -78.15
9.12977 9.59078 67.55
-1.59221 -23.6519 -78.15
0.6 -15.76 -78.15
0.804582 -5.95647 76.85
3 22.24 67.55
5.41538 -4.64771 67.55
1.98629 8.80543 67.55
6.52211 -0.405263 67.55
1.98629 8.80543 -78.15
2.36 19.52 -78.15
-20.04 -1.44 67.55
-20.04 -1.44 -78.15
9.37469 -0.606218 67.55
8.48173 7.10662 -78.15
-2.57141 23.7168 -78.15
9.3329 -7.47797 -78.15
10.1302 -7.70577 -78.15
10.1302 -7.70577 67.55
-6.76062 2.58874 -78.15
-1.72 -17.84 67.55
-10.4309 11.4237 67.55
-8.74189 8.3834 67.55
7.96336 5.11955 78.05
-19.4763 0.653771 -78.15
4.82737 -15.489 -78.15
-15.0698 0.863964 67.55
8.89738 14.1106 67.55
9.99311 4.5662 67.55
6.8605 0.891901 -78.15
-15.0698 0.863964 -78.15
-15.24 0.24 -78.15
-3.24151 -20.2243 67.55
-7.9813 -1.68578 -78.15
-19.2978 1.31657 -78.15
-7.9813 -1.68578 67.55
-14.4202 -21.1821 67.55
-0.132803 0.813429 -78.15
10.2503 4.49789 -78.15
5.99292 -10.964 67.55
0.0017073 1.32072 -78.15
-9.93864 -8.5399 -78.15
-9.07424 -22.5991 -78.15
-12.7493 -10.8419 67.55
-6.62203 3.07407 78.05
0.128221 1.79786 78.05
-12.7493 -10.8419 -78.15
-9.07424 -22.5991 67.55
-2.07292 -6.50357 67.55
11.8598 -0.107967 67.55
-3.09039 -10.3409 -78.15
6.05885 -10.708 67.55
5.58658 2.1917 67.55
0.562817 3.43691 67.55
21.1246 1.60941 67.55
-8.46708 -18.1599 67.55
11.2883 9.59459 67.55
1.98629 8.80543 76.85
8.25564 1.53014 -78.15
1.98629 8.80543 78.05
7.10161 1.81618 -78.15
8.79234 0.505532 -78.15
-4.31606 -2.65819 67.55
-1.74699 -5.27437 76.85
7.15614 -6.44792 -78.15
9.93941 -0.753047 -78.15
11.9644 0.351511 67.55
-8.34773 -19.9655 67.55
11.9644 0.351511 -78.15
11.0867 4.27571 67.55
9.7509 3.62584 67.55
11.6139 -1.18841 -78.15
12.414 7.46847 67.55
11.6139 -1.18841 67.55
12.7568 3.8321 -78.15
12.7568 3.8321 67.55
8.25564 1.53014 67.55
-4.5008 10.5021 -78.15
-17.1195 -6.65145 67.55
9.48 5.92 -78.15
9.48 5.92 67.55
10.0641 4.84171 67.55
7.68447 2.62055 -78.15
10.0641 4.84171 -78.15
-2.52 -17.68 -78.15
-6.76062 2.58874 67.55
7.05823 -6.82806 -78.15
7.05823 -6.82806 67.55
7.15614 -6.44792 67.55
8.35792 -5.76119 -78.15
3.96 -6.8 67.55
16.5152 2.83377 67.55
-9.93864 -8.5399 67.55
-17.1335 9.35558 -78.15
-14.8526 -7.24759 -78.15
-10.84 12.16 -78.15
-10.84 12.16 67.55
14.5981 3.343 67.55
-8.46708 -18.1599 -78.15
-16.0141 13.5132 -78.15
2.18227 -17.0413 -78.15
10.5141 -6.01954 67.55
-4.04 -23.04 -78.15
-4.04 -23.04 67.55
-1.59221 -23.6519 67.55
9.24583 -11.5905 67.55
9.24583 -11.5905 -78.15
-9.69185 11.8597 -78.15
0.6 -15.76 67.55
8.59793 -13.2763 67.55
-1 -15.36 67.55
8.59793 -13.2763 -78.15
7.37333 -11.072 67.55
8.79234 0.505532 67.55
16.5152 2.83377 -78.15
-1 -15.36 -78.15
-4.5008 10.5021 67.55
-0.968276 -21.4058 -78.15
11.64 10.96 -78.15
10.8062 10.5052 -78.15
6.96665 18.2492 -78.15
10.8062 10.5052 67.55
-13.32 -17.12 -78.15
-18.4817 6.2134 67.55
-0.225 -24.1 67.55
0.36 -21.76 67.55
4.90059 -6.62106 67.55
0.36 -21.76 -78.15
8.70563 -0.432264 78.05
-0.225 -24.1 -78.15
11.64 10.96 67.55
5.58054 -12.565 -78.15
17.08 -13.76 -78.15
5.58054 -12.565 67.55
4.06272 -9.8329 -78.15
6.04 14.8 -78.15
6.04 14.8 67.55
-3 -10 67.55
6.92 14.56 -78.15
6.9591 7.13276 76.85
12.1206 -12.3866 67.55
12.1206 -12.3866 -78.15
11.5904 19.0231 67.55
2.20963 18.8809 -78.15
2.20963 18.8809 67.55
11.4926 -1.72099 -78.15
-5.8 -20.56 67.55
-7.26228 -20.2188 -78.15
-7.26228 -20.2188 67.55
5.84146 7.79716 67.55
-2.2419 -19.6376 -78.15
1.0219 5.16831 67.55
-0.534372 -10.678 -78.15
1.0219 5.16831 -78.15
5.11689 0.500808 -78.15
0.533499 -10.9717 -78.15
-13.7493 -18.7052 -78.15
-13.9389 5.01087 -78.15
6.6542 0.101107 -78.15
0.128221 1.79786 -78.15
2.36 19.52 67.55
-10.9259 -8.28026 67.55
-4.68 20 67.55
-8.34773 -19.9655 -78.15
-15.2513 -6.56629 -78.15
-11.9562 -8.00931 67.55
15.2369 2.13649 -78.15
18.4593 2.31736 67.55
5 -6.24 -78.15
17.3951 -1.9398 67.55
-6.62203 3.07407 -78.15
-18.4817 6.2134 -78.15
6.13128 4.15262 78.05
-16.0141 13.5132 67.55
4.90059 -6.62106 -78.15
10.4774 6.44641 -78.15
3.59163 -16.2142 67.55
7.68447 2.62055 67.55
-3 -10 -78.15
2.76687 -14.8003 -78.15
11.5904 19.0231 -78.15
10.3568 19.3643 67.55
7.48 20.16 67.55
0.804582 -5.95647 67.55
11.4926 -1.72099 67.55
8.17922 11.5252 -78.15
-17.7372 7.11343 67.55
-5.8 -20.56 -78.15
-14.44 -16.88 -78.15
6.92 14.56 67.55
-13.9389 5.01087 67.55
4.82737 -15.489 67.55
-3.56 19.68 67.55
-3.56 19.68 -78.15
-4.68 20 -78.15
18.4593 2.31736 -78.15
9.93941 -0.753047 67.55
6.87898 17.9229 67.55
5.84146 7.79716 -78.15
-11.1887 -0.18029 -78.15
7.25723 2.41271 67.55
9.7509 3.62584 -78.15
7.25723 2.41271 -78.15
17.8566 -2.81151 67.55
10.7572 -12.0091 -78.15
-0.133411 -18.4003 -78.15
-4.76308 14.7674 -78.15
-16.5098 -4.41576 -78.15
17.8566 -2.81151 -78.15
-1.71667 -24.1 67.55
-6.05031 5.07606 67.55
16.9659 -1.12917 -78.15
7.48 20.16 -78.15
11.0916 17.1113 -78.15
10.5108 6.57595 -78.15
-5.51664 -9.70282 67.55
3 22.24 -78.15
-3.22207 21.0599 67.55
-17.7372 7.11343 -78.15
7.25723 2.41271 76.85
10.3568 19.3643 -78.15
-18.0129 6.08929 -78.15
15.2369 2.13649 67.55
9.82776 17.4599 67.55
0.912846 -21.9074 67.55
-0.968276 -21.4058 67.55
8.17922 11.5252 67.55
9.82776 17.4599 -78.15
-13.32 -17.12 67.55
0.912846 -21.9074 -78.15
-14.44 -16.88 67.55
13.4863 5.44306 67.55
13.4863 5.44306 -78.15
6.62043 -14.4368 67.55
3.59163 -16.2142 -78.15
6.62043 -14.4368 -78.15
-8.04745 -18.877 67.55
0.293204 -10.9056 67.55
-5.51664 -9.70282 -78.15
-2.2419 -19.6376 67.55
-4.3253 21.3642 -78.15
-0.241091 -9.64384 67.55
-6.2719 13.8773 -78.15
0.293204 -10.9056 -78.15
7.37333 -11.072 -78.15
6.41118 -9.34012 67.55
6.41118 -9.34012 -78.15
16.9659 -1.12917 67.55
6.32059 -10.7805 -78.15
10.5141 -6.01954 -78.15
-4.76308 14.7674 67.55
-3.22207 21.0599 -78.15
12.414 7.46847 -78.15
21.1246 1.60941 -78.15
-17.1195 -6.65145 -78.15
-2.07292 -6.50357 -78.15
-1.11495 -2.89068 -78.15
-5.97855 5.32738 76.85
7.37619 8.63429 -78.15
-14.8526 -7.24759 67.55
-1.71667 -24.1 -78.15
7.37619 8.63429 67.55
7 -10.4 67.55
13.0829 16.562 67.55
13.0829 16.562 -78.15
6.96665 18.2492 67.55
11.2883 9.59459 -78.15
6.36 2 76.85
6.28 12 67.55
3.02881 -22.4717 67.55
3.02881 -22.4717 -78.15
4.31928 -17.4616 -78.15
4.31928 -17.4616 67.55
11.0867 4.27571 -78.15
7.05546 7.47965 76.85
-15.56 -20.88 67.55
-4.3253 21.3642 67.55
6.28 12 -78.15
-3.64 24 67.55
6.05885 -10.708 -78.15
-0.133411 -18.4003 67.55
-16.5098 -4.41576 67.55
-0.534372 -10.678 67.55
11.0916 17.1113 67.55
9.17061 3.34354 76.85
-11.9771 -12.1616 -78.15
-11.9562 -8.00931 -78.15
-10.9259 -8.28026 -78.15
8.48173 7.10662 67.55
5.26686 7.94744 67.55
10.5108 6.57595 67.55
7.47791 16.7916 -78.15
-21.1572 -5.58959 67.55
7.47791 16.7916 67.55
5.26686 7.94744 -78.15
2.18488 -11.4258 78.05
1.47957 -12.5935 -78.15
9.99311 4.5662 -78.15
5.41538 -4.64771 -78.15
-3.64 24 -78.15
14.5981 3.343 -78.15
-0.241091 -9.64384 -78.15
10.4774 6.44641 67.55
19.8264 -3.32367 -78.15
-6.2719 13.8773 67.55
-13.7493 -18.7052 67.55
19.8264 -3.32367 67.55
1.47628 -3.58787 -78.15
3.80696 -4.21495 -78.15
-15.56 -20.88 -78.15
4  587 368 350 295  255 0 0
4  587 586 632 638  255 0 0
8  587 295 364 372 569 381 509 586  255 0 0
6  371 490 484 340 408 501  255 0 0
7  371 368 587 638 639 629 330  255 0 0
4  371 501 350 368  255 0 0
9  340 226 225 474 537 573 438 266 408  255 0 0
5  340 484 529 625 285  255 0 0
4  340 338 227 226  255 0 0
4  277 361 357 240  255 0 0
4  277 365 362 361  255 0 0
4  277 240 314 365  255 0 0
4  355 365 314 241  255 0 0
5  355 343 328 585 538  255 0 0
11  355 538 495 425 617 618 372 364 293 362 365  255 0 0
4  355 241 342 343  255 0 0
12  629 639 627 334 15 536 431 510 301 465 505 499  255 0 0
5  629 337 179 339 330  255 0 0
4  430 426 427 504  255 0 0
4  629 499 219 337  255 0 0
4  552 488 287 549  255 0 0
4  552 502 454 304  255 0 0
5  552 549 424 327 502  255 0 0
6  430 424 549 287 242 426  255 0 0
4  430 504 326 424  255 0 0
5  330 489 485 490 371  255 0 0
4  330 339 303 489  255 0 0
5  241 612 409 623 342  255 0 0
4  337 114 118 179  255 0 0
4  337 219 133 114  255 0 0
4  438 573 635 305  255 0 0
5  431 560 601 602 565  255 0 0
5  257 555 456 556 611  255 0 0
5  431 536 448 458 560  255 0 0
6  257 611 16 439 224 223  255 0 0
4  328 343 342 623  255 0 0
4  590 374 377 425  255 0 0
4  425 495 210 590  255 0 0
3  425 377 617  255 0 0
4  623 409 585 328  255 0 0
11  590 210 612 241 314 307 297 366 423 492 496  255 0 0
4  240 357 307 314  255 0 0
8  345 331 5 291 268 516 589 265  255 0 0
5  345 244 410 506 545  255 0 0
8  345 265 485 489 360 391 533 244  255 0 0
4  340 285 284 338  255 0 0
8  619 272 592 557 358 280 4 332  255 0 0
4  552 310 263 488  255 0 0
4  552 304 313 310  255 0 0
4  597 545 506 583  255 0 0
4  387 403 633 621  255 0 0
4  597 583 403 387  255 0 0
5  634 584 526 320 539  255 0 0
3  539 320 254  255 0 0
4  637 385 584 634  255 0 0
5  534 500 498 385 637  255 0 0
4  637 634 539 534  255 0 0
5  639 638 632 486 627  255 0 0
4  611 570 351 16  255 0 0
6  536 481 306 433 333 448  255 0 0
4  536 15 14 481  255 0 0
4  306 481 14 415  255 0 0
6  363 570 611 556 435 434  255 0 0
4  363 250 351 570  255 0 0
4  306 415 250 363  255 0 0
9  338 447 273 305 635 581 475 229 227  255 0 0
6  356 462 300 301 510 565  255 0 0
3  522 464 564  255 0 0
3  356 566 462  255 0 0
4  522 564 566 356  255 0 0
5  463 278 279 290 472  255 0 0
3  258 294 471  255 0 0
4  258 440 443 436  255 0 0
4  255 286 278 463  255 0 0
4  535 442 440 258  255 0 0
4  535 290 292 437  255 0 0
3  535 472 290  255 0 0
5  255 471 294 271 286  255 0 0
4  255 463 472 471  255 0 0
4  258 471 472 535  255 0 0
4  438 242 260 266  255 0 0
4  438 305 352 242  255 0 0
3  229 475 491  255 0 0
3  225 341 474  255 0 0
4  229 491 341 225  255 0 0
4  573 537 581 635  255 0 0
4  571 582 346 630  255 0 0
4  607 548 523 493  255 0 0
4  571 525 524 582  255 0 0
4  607 493 525 571  255 0 0
5  640 315 487 453 519  255 0 0
4  606 367 315 640  255 0 0
3  374 590 496  255 0 0
4  374 316 616 377  255 0 0
4  377 616 618 617  255 0 0
5  606 561 559 636 367  255 0 0
4  606 640 519 561  255 0 0
7  616 234 429 318 569 372 618  255 0 0
4  316 374 496 492  255 0 0
4  316 232 234 616  255 0 0
4  315 373 494 487  255 0 0
4  367 378 373 315  255 0 0
4  367 636 398 378  255 0 0
6  338 482 384 325 541 447  255 0 0
4  305 273 353 352  255 0 0
4  517 282 521 304  255 0 0
4  291 544 558 268  255 0 0
3  291 5 6  255 0 0
4  280 358 554 614  255 0 0
5  265 529 484 490 485  255 0 0
3  272 480 592  255 0 0
5  268 622 469 608 516  255 0 0
5  358 624 528 596 554  255 0 0
5  358 557 599 520 624  255 0 0
3  265 589 529  255 0 0
3  257 223 507  255 0 0
4  381 518 477 249  255 0 0
5  249 477 479 567 546  255 0 0
4  249 468 509 381  255 0 0
5  381 569 318 478 518  255 0 0
6  249 546 217 205 379 468  255 0 0
4  586 509 483 632  255 0 0
4  632 483 574 486  255 0 0
4  379 203 514 572  255 0 0
4  572 613 468 379  255 0 0
6  572 514 216 309 222 323  255 0 0
3  567 479 398  255 0 0
7  567 386 232 316 492 423 546  255 0 0
5  318 429 453 487 494  255 0 0
5  567 398 636 559 386  255 0 0
3  318 494 478  255 0 0
4  378 398 494 373  255 0 0
4  304 521 259 313  255 0 0
4  313 259 263 310  255 0 0
4  295 530 293 364  255 0 0
4  299 289 530 295  255 0 0
4  299 153 23 366  255 0 0
4  416 189 153 299  255 0 0
4  299 295 350 416  255 0 0
5  288 622 268 558 451  255 0 0
4  528 624 520 467  255 0 0
4  285 625 620 284  255 0 0
4  288 466 469 622  255 0 0
4  528 467 466 288  255 0 0
5  545 597 450 331 345  255 0 0
5  591 460 458 448 333  255 0 0
4  540 455 460 591  255 0 0
5  540 435 556 456 455  255 0 0
4  540 591 333 435  255 0 0
4  428 553 397 406  255 0 0
4  428 562 563 631  255 0 0
3  631 497 445  255 0 0
4  631 563 604 405  255 0 0
3  428 422 553  255 0 0
4  428 631 445 422  255 0 0
4  385 498 526 584  255 0 0
4  610 243 370 382  255 0 0
6  610 577 505 465 300 243  255 0 0
4  382 576 593 322  255 0 0
7  382 370 298 220 196 457 576  255 0 0
4  610 579 312 577  255 0 0
4  535 437 575 442  255 0 0
4  258 436 296 294  255 0 0
4  382 322 579 610  255 0 0
4  609 248 548 607  255 0 0
4  630 346 248 609  255 0 0
4  607 571 630 609  255 0 0
4  224 439 334 627  255 0 0
5  224 222 221 302 223  255 0 0
3  224 323 222  255 0 0
4  572 323 568 613  255 0 0
4  224 627 486 323  255 0 0
5  621 619 332 452 387  255 0 0
6  280 614 594 461 452 7  255 0 0
6  291 6 450 449 595 544  255 0 0
3  280 7 4  255 0 0
4  387 452 450 597  255 0 0
4  595 449 461 594  255 0 0
4  614 473 511 544  255 0 0
4  544 511 551 558  255 0 0
4  594 614 544 595  255 0 0
4  480 620 625 529  255 0 0
4  589 516 557 592  255 0 0
4  592 480 529 589  255 0 0
4  582 341 547 346  255 0 0
5  537 474 341 582 524  255 0 0
5  548 491 475 581 523  255 0 0
4  581 537 524 523  255 0 0
3  431 565 510  255 0 0
6  522 507 223 302 298 464  255 0 0
5  257 507 603 600 555  255 0 0
4  522 356 565 507  255 0 0
3  534 251 500  255 0 0
4  534 539 254 251  255 0 0
4  359 412 414 628  255 0 0
4  628 532 236 369  255 0 0
7  628 414 410 244 533 413 532  255 0 0
4  631 405 399 497  255 0 0
4  359 239 238 401  255 0 0
4  428 406 400 562  255 0 0
4  628 369 239 359  255 0 0
4  323 486 574 568  255 0 0
4  613 568 574 483  255 0 0
6  290 279 264 283 348 292  255 0 0
4  613 483 509 468  255 0 0
4  339 324 122 303  255 0 0
5  619 246 202 247 272  255 0 0
6  480 272 247 383 384 482  255 0 0
5  620 480 482 338 284  255 0 0
4  363 434 433 306  255 0 0
4  608 469 520 599  255 0 0
4  599 557 516 608  255 0 0
4  602 601 600 603  255 0 0
4  507 565 602 603  255 0 0
4  600 601 560 555  255 0 0
4  528 288 451 596  255 0 0
4  596 513 512 554  255 0 0
4  558 551 543 451  255 0 0
4  451 543 513 596  255 0 0
4  554 512 473 614  255 0 0
4  513 543 551 512  255 0 0
4  439 16 351 441  255 0 0
4  446 14 15 334  255 0 0
4  441 351 14 446  255 0 0
4  441 446 334 439  255 0 0
4  580 262 274 432  255 0 0
4  432 274 267 281  255 0 0
7  436 443 593 576 418 270 296  255 0 0
7  437 292 347 417 577 312 575  255 0 0
4  580 283 264 262  255 0 0
4  432 281 283 580  255 0 0
4  577 417 499 505  255 0 0
4  443 575 312 593  255 0 0
6  296 349 281 267 271 294  255 0 0
3  292 348 347  255 0 0
3  296 270 349  255 0 0
7  546 423 366 23 393 308 217  255 0 0
4  564 464 462 566  255 0 0
7  400 406 397 173 172 401 238  255 0 0
4  562 400 604 563  255 0 0
4  453 231 230 559  255 0 0
4  559 230 232 386  255 0 0
4  561 519 453 559  255 0 0
4  555 560 458 456  255 0 0
5  497 542 320 526 445  255 0 0
5  422 498 500 578 553  255 0 0
4  445 526 498 422  255 0 0
4  553 578 380 397  255 0 0
8  359 401 508 531 201 246 411 412  255 0 0
5  621 633 411 246 619  255 0 0
4  501 276 269 253  255 0 0
4  253 190 189 416  255 0 0
6  253 269 353 273 447 541  255 0 0
4  416 350 501 253  255 0 0
4  248 336 491 548  255 0 0
4  346 547 336 248  255 0 0
4  336 547 341 491  255 0 0
4  409 209 208 585  255 0 0
4  612 210 209 409  255 0 0
4  585 208 495 538  255 0 0
4  633 403 583 506  255 0 0
4  303 245 360 489  255 0 0
4  533 391 389 413  255 0 0
5  401 172 444 407 508  255 0 0
7  532 233 252 399 405 604 236  255 0 0
7  531 149 146 383 247 202 201  255 0 0
5  532 413 389 392 233  255 0 0
4  531 508 407 149  255 0 0
6  504 427 352 282 517 326  255 0 0
4  502 327 237 454  255 0 0
5  320 542 321 402 254  255 0 0
4  523 524 525 493  255 0 0
5  488 276 260 242 287  255 0 0
4  521 269 276 488  255 0 0
4  521 488 263 259  255 0 0
4  476 261 254 402  255 0 0
4  515 256 261 476  255 0 0
4  404 251 256 515  255 0 0
4  404 515 476 402  255 0 0
4  512 551 511 473  255 0 0
4  220 221 222 309  255 0 0
3  465 301 300  255 0 0
4  220 298 302 221  255 0 0
4  464 298 300 462  255 0 0
4  457 219 418 576  255 0 0
5  457 196 421 177 219  255 0 0
4  418 419 228 270  255 0 0
4  417 395 419 418  255 0 0
4  418 219 499 417  255 0 0
4  479 478 494 398  255 0 0
4  479 477 518 478  255 0 0
4  467 520 469 466  255 0 0
4  456 458 460 455  255 0 0
5  304 454 237 326 517  255 0 0
4  450 6 5 331  255 0 0
4  461 449 450 452  255 0 0
4  253 541 325 190  255 0 0
4  443 440 442 575  255 0 0
4  435 333 433 434  255 0 0
3  246 201 202  255 0 0
4  633 506 410 411  255 0 0
4  427 426 242 352  255 0 0
4  237 327 424 326  255 0 0
5  233 170 169 396 252  255 0 0
4  172 171 170 233  255 0 0
4  245 149 407 444  255 0 0
4  245 303 122 215  255 0 0
4  360 392 389 391  255 0 0
4  172 233 392 444  255 0 0
4  245 444 392 360  255 0 0
4  299 366 297 289  255 0 0
4  271 279 278 286  255 0 0
4  270 228 420 347  255 0 0
4  347 420 395 417  255 0 0
4  351 250 415 14  255 0 0
4  411 410 414 412  255 0 0
5  408 266 260 276 501  255 0 0
5  404 380 578 500 251  255 0 0
4  404 402 321 380  255 0 0
4  400 238 236 604  255 0 0
4  399 321 542 497  255 0 0
4  397 380 321 399  255 0 0
5  527 344 171 172 173  255 0 0
4  396 169 344 527  255 0 0
4  397 399 252 173  255 0 0
4  527 173 252 396  255 0 0
4  228 419 395 420  255 0 0
4  235 153 22 164  255 0 0
3  393 311 308  255 0 0
5  393 23 153 235 311  255 0 0
3  379 205 203  255 0 0
4  149 245 143 146  255 0 0
4  184 183 390 388  255 0 0
4  605 319 183 184  255 0 0
4  605 470 76 319  255 0 0
6  605 184 115 19 214 470  255 0 0
5  185 329 147 19 115  255 0 0
4  429 234 231 453  255 0 0
4  147 329 384 383  255 0 0
4  388 390 59 58  255 0 0
4  193 211 212 375  255 0 0
6  329 185 388 58 57 127  255 0 0
4  193 191 127 211  255 0 0
4  192 157 160 163  255 0 0
4  163 160 159 162  255 0 0
4  192 163 22 188  255 0 0
4  188 22 153 189  255 0 0
4  322 593 312 579  255 0 0
6  376 158 17 126 213 317  255 0 0
6  182 213 126 60 59 390  255 0 0
4  375 212 126 17  255 0 0
4  362 293 297 307  255 0 0
4  357 361 362 307  255 0 0
4  297 293 530 289  255 0 0
5  282 352 353 269 521  255 0 0
4  348 283 281 349  255 0 0
4  270 347 348 349  255 0 0
4  339 179 118 324  255 0 0
4  187 335 394 186  255 0 0
4  335 514 203 394  255 0 0
4  332 4 7 452  255 0 0
4  308 49 218 217  255 0 0
4  211 588 125 212  255 0 0
5  211 127 57 94 588  255 0 0
4  329 127 325 384  255 0 0
4  127 191 190 325  255 0 0
5  309 176 421 196 220  255 0 0
3  309 216 176  255 0 0
6  319 76 503 18 20 183  255 0 0
5  182 20 18 21 213  255 0 0
4  317 213 21 77  255 0 0
8  13 181 186 204 218 78 52 11  255 0 0
4  49 308 311 48  255 0 0
4  271 267 264 279  255 0 0
4  274 262 264 267  255 0 0
4  256 251 254 261  255 0 0
4  162 159 75 74  255 0 0
5  49 47 132 129 218  255 0 0
4  245 215 144 143  255 0 0
4  370 243 300 298  255 0 0
4  239 369 236 238  255 0 0
7  71 92 197 200 335 187 42  255 0 0
4  235 164 48 311  255 0 0
4  230 231 234 232  255 0 0
3  186 394 204  255 0 0
6  207 70 154 155 98 199  255 0 0
5  36 55 130 131 37  255 0 0
4  229 225 226 227  255 0 0
4  71 51 626 34  255 0 0
4  219 177 174 133  255 0 0
4  55 80 79 130  255 0 0
4  218 129 206 78  255 0 0
4  194 161 8 9  255 0 0
4  157 9 8 160  255 0 0
4  218 204 205 217  255 0 0
4  335 200 216 514  255 0 0
4  215 148 598 144  255 0 0
3  121 175 120  255 0 0
8  214 19 147 598 148 550 120 175  255 0 0
8  154 180 178 54 53 80 55 56  255 0 0
3  36 56 55  255 0 0
5  212 125 93 60 126  255 0 0
4  210 495 208 209  255 0 0
4  51 71 44 43  255 0 0
7  102 90 51 50 70 207 81  255 0 0
5  129 73 166 165 206  255 0 0
4  130 72 75 131  255 0 0
5  130 79 168 167 72  255 0 0
4  204 394 203 205  255 0 0
3  197 195 200  255 0 0
6  62 198 199 98 156 158  255 0 0
6  138 139 275 195 197 91  255 0 0
5  133 174 275 139 140  255 0 0
4  195 275 421 176  255 0 0
4  156 98 161 194  255 0 0
4  157 192 193 375  255 0 0
4  191 193 192 188  255 0 0
4  191 188 189 190  255 0 0
4  27 187 186 181  255 0 0
4  185 115 184 388  255 0 0
4  183 20 182 390  255 0 0
6  27 181 13 12 151 150  255 0 0
6  26 25 152 10 178 180  255 0 0
5  61 110 109 198 62  255 0 0
4  70 26 180 154  255 0 0
4  195 176 216 200  255 0 0
5  214 175 121 41 470  255 0 0
4  174 177 421 275  255 0 0
8  354 119 84 141 77 21 18 503  255 0 0
4  344 169 170 171  255 0 0
4  354 503 76 0  255 0 0
4  137 138 35 33  255 0 0
6  128 135 137 89 102 107  255 0 0
4  73 129 132 74  255 0 0
4  72 167 166 73  255 0 0
4  168 79 206 165  255 0 0
4  168 165 166 167  255 0 0
5  48 164 22 132 47  255 0 0
5  22 163 162 74 132  255 0 0
5  161 38 37 131 8  255 0 0
5  160 8 131 75 159  255 0 0
7  158 156 194 9 157 375 17  255 0 0
5  155 154 56 36 38  255 0 0
4  77 63 376 317  255 0 0
4  151 12 10 152  255 0 0
4  152 25 150 151  255 0 0
4  383 146 598 147  255 0 0
4  598 146 143 144  255 0 0
4  123 142 82 83  255 0 0
5  123 83 31 148 215  255 0 0
5  550 148 31 615 101  255 0 0
4  142 123 124 459  255 0 0
5  119 99 30 32 84  255 0 0
5  141 84 32 82 142  255 0 0
4  138 137 106 105  255 0 0
7  140 139 138 105 104 67 88  255 0 0
6  135 87 68 103 106 137  255 0 0
4  134 136 108 117  255 0 0
4  134 86 85 136  255 0 0
6  134 133 140 88 66 86  255 0 0
6  136 85 65 87 135 128  255 0 0
4  117 108 112 116  255 0 0
4  134 117 114 133  255 0 0
3  68 87 65  255 0 0
4  68 67 104 103  255 0 0
4  108 136 128 109  255 0 0
4  588 94 93 125  255 0 0
4  63 62 158 376  255 0 0
4  124 123 215 122  255 0 0
6  138 91 92 71 34 35  255 0 0
3  197 92 91  255 0 0
6  137 33 626 51 90 89  255 0 0
3  102 89 90  255 0 0
5  550 101 100 121 120  255 0 0
4  354 3 99 119  255 0 0
4  30 99 101 615  255 0 0
4  116 112 95 97  255 0 0
5  117 116 96 118 114  255 0 0
4  113 145 459 124  255 0 0
4  97 95 145 113  255 0 0
5  118 96 97 113 324  255 0 0
5  111 110 61 145 95  255 0 0
5  112 108 109 110 111  255 0 0
4  109 128 107 198  255 0 0
4  106 103 104 105  255 0 0
4  121 100 2 41  255 0 0
3  107 102 81  255 0 0
4  142 459 64 141  255 0 0
4  3 1 2 100  255 0 0
4  3 100 101 99  255 0 0
4  98 155 38 161  255 0 0
3  116 97 96  255 0 0
3  95 112 111  255 0 0
4  93 94 57 60  255 0 0
3  88 67 66  255 0 0
4  86 66 65 85  255 0 0
4  82 32 31 83  255 0 0
5  198 107 81 207 199  255 0 0
4  80 53 52 78  255 0 0
4  80 78 206 79  255 0 0
4  113 124 122 324  255 0 0
4  141 64 63 77  255 0 0
4  76 470 41 0  255 0 0
4  42 187 27 28  255 0 0
4  459 145 61 64  255 0 0
4  75 72 73 74  255 0 0
5  71 42 39 45 44  255 0 0
4  70 50 69 26  255 0 0
4  68 65 66 67  255 0 0
4  64 61 62 63  255 0 0
4  60 57 58 59  255 0 0
4  54 11 52 53  255 0 0
5  51 43 46 40 50  255 0 0
3  49 48 47  255 0 0
4  45 39 40 46  255 0 0
4  46 43 44 45  255 0 0
4  42 28 29 39  255 0 0
4  50 40 24 69  255 0 0
4  40 39 29 24  255 0 0
3  38 36 37  255 0 0
4  626 33 35 34  255 0 0
4  32 30 615 31  255 0 0
4  29 28 27 150  255 0 0
4  69 24 25 26  255 0 0
4  25 24 29 150  255 0 0
3  13 11 12  255 0 0
3  178 10 54  255 0 0
4  54 10 12 11  255 0 0
4  3 354 0 1  255 0 0
4  0 41 2 1  255 0 0

