OFF
694 651 0

-13.7493 -18.7052 -78.15
-8.34773 -19.9655 -78.15
-14.8773 -18.442 -78.15
-14.8773 -18.442 67.55
-13.7493 -18.7052 67.55
-8.34773 -19.9655 67.55
-8.04745 -18.877 -78.15
-7.26228 -20.2188 -78.15
-8.46708 -18.1599 -78.15
-11.579 -12.8419 -78.15
-11.579 -12.8419 67.55
-8.46708 -18.1599 67.55
-8.04745 -18.877 67.55
-7.26228 -20.2188 67.55
12.1819 -11.173 -78.15
10.1302 -7.70577 -78.15
13.0529 -12.6448 -78.15
13.0529 -12.6448 67.55
12.1819 -11.173 67.55
10.1302 -7.70577 67.55
14.4455 3.63124 -78.15
14.4455 3.63124 67.55
14.2895 3.42498 -78.15
11.9644 0.351511 -78.15
11.9644 0.35151 -78.15
11.9644 0.35151 67.55
11.9644 0.351511 67.55
14.2895 3.42498 67.55
7.05546 7.47965 -78.15
7.05546 7.47965 67.55
7.37619 8.63429 -78.15
7.37619 8.63429 67.55
10.8062 10.5052 67.55
10.8062 10.5052 -78.15
10.8062 10.5052 67.55
9.47296 10.9063 67.55
10.8062 10.5052 -78.15
9.47296 10.9063 -78.15
8.12036 11.3133 67.55
8.12036 11.3133 -78.15
2.76687 -14.8003 -78.15
1.47957 -12.5935 -78.15
3.59163 -16.2142 -78.15
3.59163 -16.2142 67.55
2.76687 -14.8003 67.55
1.47957 -12.5935 67.55
2.47432 -15.9218 -78.15
0.685156 -15.4534 -78.15
3.59163 -16.2142 -78.15
3.59163 -16.2142 67.55
2.47432 -15.9218 67.55
0.685156 -15.4534 67.55
-3.56 19.68 -78.15
1.23963 18.3087 -78.15
-3.56 19.68 67.55
1.23963 18.3087 67.55
-4.76308 14.7674 -78.15
-4.76308 14.7674 67.55
2.20963 18.8809 -78.15
2.99567 19.3446 -78.15
2.99567 19.3446 67.55
2.20963 18.8809 67.55
-7.9813 -1.68578 -78.15
-9.82002 -8.1245 -78.15
-7.81091 -1.08909 -78.15
-7.81091 -1.08909 67.55
-7.9813 -1.68578 67.55
-9.82002 -8.1245 67.55
-4.5008 10.5021 -78.15
-6.62203 3.07407 -78.15
-4.5008 10.5021 67.55
-6.05031 5.07606 67.55
-6.62203 3.07407 67.55
7.96336 5.11955 -78.15
8.48173 7.10662 -78.15
7.25723 2.41271 -78.15
7.10161 1.81618 -78.15
6.8605 0.891901 -78.15
6.8605 0.891901 67.55
7.10161 1.81618 67.55
7.25723 2.41271 67.55
7.43546 3.09594 67.55
7.96336 5.11955 67.55
8.48173 7.10662 67.55
4.90059 -6.62106 -78.15
5 -6.24 -78.15
4.06272 -9.8329 -78.15
3.54929 -11.8011 -78.15
3.54929 -11.8011 67.55
4.06272 -9.8329 67.55
4.79564 -7.02339 67.55
4.90059 -6.62106 67.55
5 -6.24 67.55
4.18563 -11.976 -78.15
5.4459 -12.3226 -78.15
1.83097 -11.3285 -78.15
0.533499 -10.9717 -78.15
0.533499 -10.9717 67.55
1.83097 -11.3285 67.55
4.18563 -11.976 67.55
5.4459 -12.3226 67.55
-3 -10 -78.15
-3 -10 67.55
-13.1934 -7.19682 -78.15
-13.1934 -7.19682 67.55
-5.41538 -9.33577 67.55
-5.05373 -9.43522 78.05
-5.05373 -9.43522 76.85
-3 -10 78.05
-3 -10 76.85
-7.88376 11.3868 -78.15
-7.88376 11.3868 67.55
1.98629 8.80543 -78.15
1.98629 8.80543 67.55
10.5108 6.57595 -78.15
10.5108 6.57595 67.55
-13.3228 -7.64991 -78.15
-13.7475 -9.13621 -78.15
-11.3625 -0.788726 -78.15
-11.3625 -0.788726 67.55
-13.3228 -7.64991 67.55
-13.7475 -9.13621 67.55
-10.0031 3.96906 -78.15
-10.0031 3.96906 67.55
-8.74189 8.3834 -78.15
-7.35472 13.2385 -78.15
-7.35472 13.2385 67.55
-8.74189 8.3834 67.55
10.4774 6.44641 -78.15
10.4774 6.44641 67.55
9.99311 4.5662 -78.15
9.99311 4.5662 67.55
9.7509 3.62584 -78.15
8.9396 0.476081 -78.15
8.9396 0.476081 67.55
9.7509 3.62584 67.55
6.41118 -9.34012 -78.15
7.05823 -6.82806 -78.15
6.05885 -10.708 -78.15
6.05885 -10.708 67.55
6.41118 -9.34012 67.55
7.05823 -6.82806 67.55
8.12198 5.7276 76.85
8.424 5.36267 76.85
8.424 5.36267 78.05
8.12198 5.7276 78.05
7.96336 5.11955 78.05
8.38105 5.34 78.05
10.5845 10.9239 67.55
9.54531 11.1837 67.55
9.54531 11.1837 -78.15
10.5845 10.9239 -78.15
-4.58886 -1.95601 78.05
-3.64928 1.75534 78.05
-3.24902 -10.9392 78.05
-3.24902 -10.9392 76.85
-4.37111 -10.0041 76.85
-4.37111 -10.0041 78.05
-3.09039 -10.3409 78.05
-3.09039 -10.3409 76.85
-1.72 -17.84 -78.15
-0.0694739 -18.1701 -78.15
-1.72 -17.84 67.55
-0.0694739 -18.1701 67.55
-3 4.32 78.05
-3.5231 2.25376 78.05
5.72305 7.73257 78.05
6.12381 4.12571 78.05
5.72305 7.73257 76.85
6.12381 4.12571 76.85
0.562817 3.43691 78.05
5.58658 2.1917 78.05
-4.73827 -2.54617 78.05
-4.73827 -2.54617 76.85
-4.58886 -1.95601 76.85
-4.73827 -2.54617 67.55
-4.58886 -1.95601 67.55
0.072248 -11.6667 78.05
0.072248 -11.6667 76.85
-0.781125 -11.5482 76.85
-0.781125 -11.5482 78.05
-0.534372 -10.678 78.05
0.293204 -10.9056 78.05
-0.534372 -10.678 76.85
0.293204 -10.9056 76.85
9.17061 3.34354 78.05
9.17061 3.34354 76.85
8.96204 1.35505 76.85
8.96204 1.35505 78.05
3.92598 -10.3571 78.05
3.92598 -10.3571 76.85
2.18488 -11.4258 76.85
2.18488 -11.4258 78.05
-3.81177 -3.52268 78.05
-4.31606 -2.65819 78.05
-3.62395 -2.84181 78.05
1.01531 -11.7977 76.85
1.01531 -11.7977 78.05
0.533499 -10.9717 78.05
0.533499 -10.9717 76.85
1.72562 -11.7078 78.05
1.72562 -11.7078 76.85
1.16397 -12.0525 76.85
1.16397 -12.0525 78.05
-4.31606 -2.65819 76.85
-3.62395 -2.84181 76.85
-3.81177 -3.52268 76.85
1.83097 -11.3285 78.05
-5.37009 -9.17159 76.85
-5.37009 -9.17159 78.05
-4.12 -4.64 78.05
-2.98264 -4.94405 78.05
-1.85673 8.83591 76.85
-0.52216 9.46149 76.85
-0.52216 9.46149 78.05
-1.85673 8.83591 78.05
5.1814 -7.12651 76.85
6.8654 -7.57669 76.85
3.21053 -8.29895 78.05
2 -10.72 78.05
3.21053 -8.29895 76.85
2 -10.72 76.85
8.57277 -0.948085 76.85
5.41538 -4.64771 76.85
5.8494 -2.98396 76.85
6.56045 -2.59612 76.85
7.65283 -4.51962 76.85
7.47696 -5.20239 76.85
7.05823 -6.82806 76.85
4.06272 -9.8329 78.05
4.90059 -6.62106 78.05
4.06272 -9.8329 76.85
4.79564 -7.02339 76.85
4.90059 -6.62106 76.85
6.52211 -0.405263 76.85
8.9396 0.476081 78.05
6.8605 0.891901 78.05
7.25723 2.41271 78.05
6.8605 0.891901 76.85
7.10161 1.81618 76.85
7.25723 2.41271 76.85
8.9396 0.476081 76.85
6.36 2 67.55
6.47455 0.969091 67.55
6.47455 0.969091 76.85
6.36 2 76.85
5.58658 2.1917 76.85
5.58658 2.1917 67.55
-3.31711 -11.196 76.85
-3.31711 -11.196 78.05
5.11689 0.500808 78.05
0.128221 1.79786 78.05
0.239137 2.21617 78.05
5.31158 1.20168 78.05
-2.07292 -6.50357 78.05
-1.26775 -3.46692 78.05
-0.132803 0.813429 78.05
-2.44477 1.43271 78.05
-6.76062 2.58874 78.05
-6.62203 3.07407 78.05
0.0017073 1.32072 78.05
-7.9813 -1.68578 78.05
-7.81091 -1.08909 78.05
-3.46314 -2.25889 78.05
6.6542 0.101107 76.85
-7.9813 -1.68578 76.85
-7.81091 -1.08909 76.85
-3.46314 -2.25889 76.85
-6.21791 -8.39075 76.85
-7.64 -4.48 76.85
-7.64 -4.48 78.05
-6.21791 -8.39075 78.05
-7.65828 -3.69412 76.85
-7.65828 -3.69412 78.05
2.85185 -7.65333 78.05
3.37353 -5.77529 78.05
5 -6.24 78.05
6.13128 4.15262 78.05
9.37469 -0.606218 -78.15
8.89614 0.307368 -78.15
8.89614 0.307368 67.55
9.37469 -0.606218 67.55
11.32 -6.41634e-08 67.55
11.32 -6.41634e-08 -78.15
4.335 -6.05 67.55
3.96 -6.8 67.55
3.96 -6.8 76.85
4.335 -6.05 76.85
7.96336 5.11955 76.85
6.71938 4.46301 76.85
6.13128 4.15262 76.85
3.1491 -6.58323 67.55
2.10181 -6.30326 67.55
2.10181 -6.30326 76.85
3.1491 -6.58323 76.85
-0.241091 -9.64384 78.05
5.41538 -4.64771 78.05
3.80696 -4.21495 78.05
4.97869 0.00328759 78.05
6.52211 -0.405263 78.05
1.0219 5.16831 78.05
1.98629 8.80543 78.05
5.84146 7.79716 78.05
1.98629 8.80543 76.85
5.84146 7.79716 76.85
1.0219 5.16831 76.85
-2.07292 -6.50357 76.85
-0.241091 -9.64384 76.85
-3.64928 1.75534 76.85
-3.64928 1.75534 67.55
-3.5231 2.25376 67.55
-3.5231 2.25376 76.85
-6.76062 2.58874 76.85
-6.62203 3.07407 76.85
-1.11495 -2.89068 78.05
2.85185 -7.65333 76.85
5 -6.24 76.85
1.47628 -3.58787 78.05
1.51321 -5.24377 78.05
7.43546 3.09594 76.85
6.71938 4.46301 67.55
-1.74699 -5.27437 76.85
-1.74699 -5.27437 67.55
-2.98264 -4.94405 67.55
-2.98264 -4.94405 76.85
-5.19556 -4.35247 78.05
-5.19556 -4.35247 76.85
1.17787 -4.64016 78.05
-15.2513 -6.56629 -78.15
-15.9556 -6.95754 -78.15
-15.9556 -6.95754 67.55
-15.2513 -6.56629 67.55
-6.05031 5.07606 78.05
-6.05031 5.07606 76.85
0.804582 -5.95647 67.55
0.804582 -5.95647 76.85
-4.12 -4.64 67.55
-4.12 -4.64 76.85
2.85185 -7.65333 67.55
1.83097 -11.3285 76.85
4.6591 18.8858 -78.15
4.6591 18.8858 67.55
-12.28 -13.28 -78.15
-12.28 -13.28 67.55
10.2503 4.49789 -78.15
10.52 4 -78.15
10.52 4 67.55
10.2503 4.49789 67.55
5.99292 -10.964 -78.15
5 -11.52 -78.15
5 -11.52 67.55
5.99292 -10.964 67.55
6.13128 4.15262 67.55
17.2186 -2.64563 67.55
17.2186 -2.64563 -78.15
17.08 -3.2 -78.15
17.08 -3.2 67.55
16.0057 -7.49711 -78.15
15.7388 -8.56471 -78.15
15.7388 -8.56471 67.55
16.0057 -7.49711 67.55
16.3613 -8.72032 -78.15
16.3613 -8.72032 67.55
10.2472 -7.1918 67.55
10.2472 -7.1918 -78.15
11.619 -11.5034 -78.15
9.93907 -8.54533 -78.15
11.619 -11.5034 67.55
9.93907 -8.54533 67.55
3.38697 -12.4233 -78.15
3.38697 -12.4233 67.55
-12.7493 -10.8419 -78.15
-12.7493 -10.8419 67.55
-3.81177 -3.52268 67.55
-3.62395 -2.84181 67.55
-15.56 -20.88 67.55
-15.56 -20.88 -78.15
-4.3253 21.3642 -78.15
-4.3253 21.3642 67.55
-6.2719 13.8773 67.55
-6.2719 13.8773 -78.15
7.05546 7.47965 78.05
-16.0141 13.5132 67.55
-9.69185 11.8597 -78.15
-17.7372 7.11343 -78.15
17.08 -13.76 -78.15
10.7572 -12.0091 -78.15
10.7572 -12.0091 67.55
-3 4.32 67.55
17.08 -13.76 67.55
-3 4.32 76.85
-19.1259 1.95527 67.55
-21.1572 -5.58959 -78.15
-21.1572 -5.58959 67.55
-19.2978 1.31657 -78.15
-19.2978 1.31657 67.55
-9.93864 -8.5399 -78.15
7 -10.4 67.55
7 -10.4 -78.15
6.32059 -10.7805 -78.15
6.32059 -10.7805 67.55
0.6 -15.76 -78.15
0.6 -15.76 67.55
-1 -15.36 67.55
-1 -15.36 -78.15
17.3951 -1.9398 67.55
17.3951 -1.9398 -78.15
11.0867 4.27571 -78.15
11.0867 4.27571 67.55
11.6139 -1.18841 -78.15
11.6139 -1.18841 67.55
12.7568 3.8321 -78.15
12.7568 3.8321 67.55
9.48 5.92 -78.15
10.0641 4.84171 -78.15
10.0641 4.84171 67.55
9.48 5.92 67.55
-2.52 -17.68 67.55
-2.52 -17.68 -78.15
9.3329 -7.47797 -78.15
9.3329 -7.47797 67.55
18.28 -9.2 -78.15
18.28 -9.2 67.55
6.6542 0.101107 67.55
-9.93864 -8.5399 67.55
-17.64 9.44 -78.15
-17.1335 9.35558 -78.15
-17.1335 9.35558 67.55
-17.64 9.44 67.55
-10.84 12.16 -78.15
-10.4309 11.4237 -78.15
-10.4309 11.4237 67.55
-10.84 12.16 67.55
-1.59221 -23.6519 -78.15
-4.04 -23.04 -78.15
-4.04 -23.04 67.55
-1.59221 -23.6519 67.55
8.59793 -13.2763 67.55
8.59793 -13.2763 -78.15
7.37333 -11.072 -78.15
7.37333 -11.072 67.55
11.64 10.96 -78.15
10.8062 10.5052 -78.15
10.8062 10.5052 67.55
11.64 10.96 67.55
5.58054 -12.565 -78.15
3.59163 -16.2142 -78.15
3.59163 -16.2142 67.55
10.3568 19.3643 -78.15
11.5904 19.0231 -78.15
11.5904 19.0231 67.55
10.3568 19.3643 67.55
11.4926 -1.72099 67.55
11.4926 -1.72099 -78.15
-13.9389 5.01087 -78.15
-14.0658 4.54548 -78.15
-14.0658 4.54548 67.55
-13.9389 5.01087 67.55
-4.68 20 -78.15
-4.68 20 67.55
18.4593 2.31736 -78.15
18.4593 2.31736 67.55
3 22.24 67.55
3 22.24 -78.15
15.2369 2.13649 67.55
16.5152 2.83377 -78.15
16.5152 2.83377 67.55
15.2369 2.13649 -78.15
11.0916 17.1113 67.55
9.82776 17.4599 67.55
11.0916 17.1113 -78.15
9.82776 17.4599 -78.15
0.912846 -21.9074 -78.15
0.912846 -21.9074 67.55
-0.968276 -21.4058 -78.15
-0.968276 -21.4058 67.55
-14.44 -16.88 -78.15
-13.32 -17.12 -78.15
-13.32 -17.12 67.55
-14.44 -16.88 67.55
13.4863 5.44306 -78.15
13.4863 5.44306 67.55
7.48 20.16 -78.15
7.48 20.16 67.55
11.8598 -0.107967 67.55
5.58054 -12.565 67.55
11.8598 -0.107967 -78.15
6.62043 -14.4368 -78.15
16.9659 -1.12917 -78.15
6.62043 -14.4368 67.55
16.9659 -1.12917 67.55
6.96665 18.2492 67.55
6.96665 18.2492 -78.15
-5.51664 -9.70282 67.55
-5.51664 -9.70282 -78.15
0.562817 3.43691 76.85
0.562817 3.43691 67.55
6.87898 17.9229 -78.15
6.87898 17.9229 67.55
3.02881 -22.4717 -78.15
3.02881 -22.4717 67.55
10.5141 -6.01954 -78.15
4.31928 -17.4616 -78.15
10.5141 -6.01954 67.55
4.31928 -17.4616 67.55
9.24583 -11.5905 67.55
7.05546 7.47965 76.85
9.24583 -11.5905 -78.15
8.25564 1.53014 67.55
8.25564 1.53014 -78.15
8.17922 11.5252 67.55
8.17922 11.5252 -78.15
6.28 12 -78.15
6.28 12 67.55
8.79234 0.505532 67.55
8.79234 0.505532 -78.15
7.68447 2.62055 67.55
7.68447 2.62055 -78.15
-3.24151 -20.2243 -78.15
-3.24151 -20.2243 67.55
4.26912 8.20838 67.55
5.26686 7.94744 67.55
5.84146 7.79716 67.55
-4.31606 -2.65819 67.55
-2.07292 -6.50357 67.55
6.52211 -0.405263 67.55
-0.534372 -10.678 -78.15
-3.46314 -2.25889 67.55
7.15614 -6.44792 67.55
-0.534372 -10.678 67.55
7.15614 -6.44792 -78.15
8.35792 -5.76119 -78.15
8.35792 -5.76119 67.55
12.1206 -12.3866 67.55
12.1206 -12.3866 -78.15
11.9644 0.351511 -78.15
9.93941 -0.753047 -78.15
9.93941 -0.753047 67.55
11.9644 0.351511 67.55
0.293204 -10.9056 67.55
0.293204 -10.9056 -78.15
-2.2419 -19.6376 67.55
-2.2419 -19.6376 -78.15
-11.1887 -0.18029 67.55
-11.1887 -0.18029 -78.15
-18.4817 6.2134 67.55
6.6542 0.101107 78.05
-17.7372 7.11343 67.55
6.57837 -7.49996 78.05
-18.0129 6.08929 67.55
6.57837 -7.49996 76.85
6.0726 -8.73068 76.85
6.0726 -8.73068 78.05
0.36 -21.76 -78.15
-0.225 -24.1 -78.15
-0.225 -24.1 67.55
0.36 -21.76 67.55
-11.9771 -12.1616 67.55
-10.9259 -8.28026 67.55
-11.9771 -12.1616 -78.15
-10.9259 -8.28026 -78.15
2.18227 -17.0413 67.55
6.92 14.56 67.55
2.18227 -17.0413 -78.15
-11.9562 -8.00931 67.55
6.92 14.56 -78.15
6.04 14.8 -78.15
-11.9562 -8.00931 -78.15
6.04 14.8 67.55
-7.70327 -1.75954 76.85
-7.70327 -1.75954 78.05
5.41538 -4.64771 67.55
-19.4763 0.653771 67.55
7.47791 16.7916 -78.15
7.47791 16.7916 67.55
6.52211 -0.405263 -78.15
5.26686 7.94744 -78.15
0.0017073 1.32072 -78.15
-5.8 -20.56 -78.15
5.41538 -4.64771 -78.15
14.5981 3.343 -78.15
6.9591 7.13276 78.05
-19.4763 0.653771 -78.15
-5.8 -20.56 67.55
6.8654 -7.57669 78.05
9.84294 12.3246 67.55
11.2883 9.59459 67.55
-0.241091 -9.64384 67.55
-0.241091 -9.64384 -78.15
-3.64 8 76.85
-3.64 8 78.05
-3.64 24 -78.15
-3.64 24 67.55
7.65283 -4.51962 78.05
6.56045 -2.59612 78.05
8.40782 -1.58846 78.05
8.40782 -1.58846 76.85
8.38105 5.34 76.85
8.89738 14.1106 67.55
8.83566 3.18059 76.85
8.89738 14.1106 -78.15
8.83566 3.18059 78.05
21.1246 1.60941 -78.15
21.1246 1.60941 67.55
14.5981 3.343 67.55
8.70563 -0.432264 78.05
-1.71667 -24.1 -78.15
-1.71667 -24.1 67.55
-0.133411 -18.4003 -78.15
-0.133411 -18.4003 67.55
5.90292 -9.14357 78.05
5.90292 -9.14357 76.85
4.24511 -10.1612 76.85
4.24511 -10.1612 78.05
4.26912 8.20838 -78.15
-6.76062 2.58874 -78.15
7.47696 -5.20239 78.05
-6.76062 2.58874 67.55
5.8494 -2.98396 78.05
8.57277 -0.948085 78.05
-18.1351 5.63546 -78.15
-18.1351 5.63546 67.55
-0.132803 0.813429 -78.15
-9.07424 -22.5991 -78.15
-19.1259 1.95527 -78.15
5.8494 -2.98396 67.55
-9.07424 -22.5991 67.55
-1.11495 -2.89068 -78.15
-2.07292 -6.50357 -78.15
-14.8526 -7.24759 67.55
-3.09039 -10.3409 67.55
8.70563 -0.432264 76.85
-14.8526 -7.24759 -78.15
-3.09039 -10.3409 -78.15
-18.4817 6.2134 -78.15
4.82737 -15.489 -78.15
4.82737 -15.489 67.55
-5.97855 5.32738 78.05
-9.69185 11.8597 67.55
-5.97855 5.32738 76.85
1.47628 -3.58787 -78.15
9.12977 9.59078 -78.15
9.12977 9.59078 67.55
7.05823 -6.82806 78.05
6.6542 0.101107 -78.15
3.80696 -4.21495 -78.15
9.84294 12.3246 -78.15
12.414 7.46847 67.55
12.414 7.46847 -78.15
19.8264 -3.32367 -78.15
17.8566 -2.81151 -78.15
-14.4202 -21.1821 -78.15
17.8566 -2.81151 67.55
-14.4202 -21.1821 67.55
19.8264 -3.32367 67.55
-20.04 -1.44 67.55
-20.04 -1.44 -78.15
-17.1195 -6.65145 67.55
-17.1195 -6.65145 -78.15
-16.5098 -4.41576 67.55
-16.5098 -4.41576 -78.15
10.1302 -7.70577 -78.15
10.1302 -7.70577 67.55
11.2883 9.59459 -78.15
-18.0129 6.08929 -78.15
2.36 19.52 -78.15
-16.0141 13.5132 -78.15
2.36 19.52 67.55
6.9591 7.13276 76.85
9.15376 1.30753 76.85
-15.24 0.24 -78.15
5.11689 0.500808 -78.15
-5.35317 -9.11024 76.85
-3.22207 21.0599 67.55
-6.11193 -7.97211 78.05
1.0219 5.16831 67.55
-15.0698 0.863964 -78.15
9.15376 1.30753 78.05
13.0829 16.562 -78.15
0.128221 1.79786 -78.15
-6.11193 -7.97211 76.85
5.84146 7.79716 -78.15
7.10161 1.81618 78.05
13.0829 16.562 67.55
1.0219 5.16831 -78.15
-15.24 0.24 67.55
-5.35317 -9.11024 78.05
-15.0698 0.863964 67.55
-3.22207 21.0599 -78.15
5.1814 -7.12651 78.05
-2.57141 23.7168 67.55
-12.5272 10.187 -78.15
-2.57141 23.7168 -78.15
-12.5272 10.187 67.55
4  627 622 615 64  255 0 0
4  627 628 588 640  255 0 0
6  627 64 62 63 101 628  255 0 0
6  577 679 684 112 68 69  255 0 0
7  577 622 627 640 645 579 575  255 0 0
4  577 69 615 622  255 0 0
10  112 340 59 58 53 56 380 125 110 68  255 69 0
5  112 684 681 576 614  255 0 0
4  112 113 341 340  255 69 0
4  624 676 687 391  255 139 0
4  624 394 670 676  255 139 0
4  624 391 395 394  255 139 0
4  582 394 395 572  255 139 0
5  582 656 392 658 660  255 139 0
9  582 660 328 632 116 103 118 670 394  255 139 0
4  582 572 655 656  255 139 0
7  579 645 95 87 86 84 85  255 0 0
5  579 571 625 525 575  255 0 0
4  666 429 432 382  255 208 0
4  579 85 92 571  255 0 0
4  664 454 691 384  255 208 0
4  664 634 545 549  255 208 0
5  664 384 426 425 634  255 208 0
6  666 426 384 691 430 429  255 208 0
4  666 382 427 426  255 208 0
5  575 644 671 679 577  255 0 0
4  575 525 423 644  255 0 0
5  572 659 657 393 655  255 139 0
4  571 223 224 625  255 0 0
4  571 92 316 223  255 0 0
3  383 110 125  255 208 0
4  383 125 126 638  255 208 0
6  563 46 47 401 161 608  231 255 0
5  563 472 499 502 446  231 255 0
5  561 473 556 475 609  231 255 0
5  563 608 474 553 472  231 255 0
6  561 609 163 402 51 50  231 255 0
4  392 656 655 393  255 139 0
4  629 121 117 632  255 139 0
4  632 328 331 629  255 139 0
3  632 117 116  255 139 0
4  393 657 658 392  255 139 0
9  629 331 659 572 395 685 119 104 120  255 139 0
4  391 687 685 395  255 139 0
6  74 641 37 39 30 28  162 255 0
5  74 73 413 128 114  92 255 0
8  74 28 671 644 77 76 75 73  255 0 0
4  112 614 520 113  255 0 0
6  83 29 31 38 35 642  162 255 0
4  664 620 455 454  255 208 0
4  664 549 621 620  255 208 0
4  663 114 128 648  162 255 0
4  586 647 129 115  162 255 0
4  663 648 647 586  162 255 0
5  649 602 460 406 650  23 255 0
3  650 406 354  23 255 0
4  654 603 602 649  23 255 0
5  652 405 461 603 654  23 255 0
4  654 649 650 652  23 255 0
5  645 640 588 96 95  255 0 0
4  609 541 162 163  231 255 0
6  608 542 518 434 433 474  231 255 0
4  608 161 160 542  231 255 0
4  518 542 160 418  231 255 0
6  519 541 609 475 436 435  231 255 0
4  519 417 162 541  231 255 0
4  518 418 417 519  231 255 0
10  113 70 111 126 379 57 55 61 60 341  255 69 0
3  638 126 111  255 208 0
8  635 445 94 93 369 40 42 48  0 255 46
3  636 485 489  0 255 46
3  635 487 445  0 255 46
4  636 489 487 635  0 255 46
5  385 421 361 14 16  0 255 115
3  387 367 533  0 255 185
4  387 437 440 505  0 255 185
4  389 422 421 385  0 255 115
4  386 438 437 387  0 255 185
4  386 365 366 507  0 255 185
3  386 534 365  0 255 185
5  389 17 18 362 422  0 255 115
4  389 385 16 17  0 255 115
4  387 533 534 386  0 255 185
4  383 430 124 110  255 208 0
4  383 638 431 430  255 208 0
3  60 61 667  0 255 255
3  59 665 58  0 255 255
4  60 667 665 59  0 255 255
4  380 56 57 379  255 69 0
4  379 126 125 380  255 69 0
4  377 688 692 591  0 255 255
4  378 673 54 459  0 255 255
4  377 458 52 688  0 255 255
4  378 459 458 377  0 255 255
4  376 651 0 2  0 185 255
4  375 653 651 376  0 185 255
4  372 121 120 564  0 115 255
4  372 557 559 371  0 115 255
4  371 117 121 372  0 115 255
4  371 559 560 567  0 115 255
4  375 3 4 653  0 185 255
4  375 376 2 3  0 185 255
7  559 9 8 6 494 396 560  0 115 255
4  557 372 564 558  0 115 255
4  557 10 9 559  0 115 255
4  651 623 1 0  0 185 255
4  653 626 623 651  0 185 255
4  653 4 5 626  0 185 255
6  113 675 496 388 71 70  255 0 0
4  638 111 127 431  255 208 0
4  547 693 457 549  255 208 0
4  646 470 471 600  0 46 255
3  646 150 151  0 46 255
6  585 149 35 38 510 598  0 46 255
6  646 600 511 39 37 150  0 46 255
4  585 598 469 468  0 46 255
5  28 681 684 679 671  255 0 0
3  29 522 31  255 0 0
5  600 573 565 512 511  0 46 255
5  598 574 498 491 469  0 46 255
5  598 510 513 562 574  0 46 255
3  28 30 681  255 0 0
4  561 50 43 447  231 255 0
4  633 578 583 630  0 115 255
5  633 101 63 396 494  0 115 255
5  630 583 13 12 493  0 115 255
4  630 102 101 633  0 115 255
5  633 494 6 7 578  0 115 255
4  630 493 105 102  0 115 255
3  629 120 121  255 139 0
4  628 101 526 588  255 0 0
4  588 526 540 96  255 0 0
4  524 322 334 587  255 0 0
5  524 102 105 336 323  255 0 0
4  587 529 102 524  255 0 0
6  587 334 292 338 98 97  255 0 0
3  12 13 5  23 0 255
7  12 11 10 557 558 424 493  0 115 255
5  6 8 477 0 1  23 0 255
5  12 5 4 478 11  23 0 255
3  6 1 7  23 0 255
4  626 5 1 623  0 185 255
4  549 457 456 621  255 208 0
4  621 456 455 620  255 208 0
4  64 544 118 62  92 0 255
4  65 543 544 64  92 0 255
4  65 176 175 66  255 0 0
4  617 309 176 65  255 0 0
4  65 64 615 617  255 0 0
5  497 573 600 471 492  0 46 255
4  498 574 562 568  0 46 255
4  614 576 521 520  255 0 0
4  497 566 565 573  0 46 255
4  498 568 566 497  0 46 255
5  114 663 442 641 74  162 255 0
5  606 554 553 474 433  231 255 0
4  607 555 554 606  231 255 0
5  607 436 475 556 555  231 255 0
4  607 606 433 436  231 255 0
4  604 464 26 27  23 255 0
4  604 21 20 580  23 255 0
3  580 467 465  23 255 0
3  580 20 22  23 255 0
3  604 466 464  23 255 0
4  604 580 465 466  23 255 0
4  603 461 460 602  23 255 0
4  138 348 351 139  162 0 255
6  138 136 84 86 349 348  162 0 255
4  139 140 397 400  0 255 185
7  139 351 350 89 90 91 140  162 0 255
4  138 399 398 136  0 255 185
4  386 507 439 438  0 255 185
4  387 505 368 367  0 255 185
4  139 400 399 138  0 255 185
4  592 690 673 378  0 255 255
4  591 692 690 592  0 255 255
4  378 377 591 592  0 255 255
3  41 95 96  0 255 46
4  41 47 46 40  231 0 255
4  45 51 47 41  231 0 255
5  45 98 88 370 44  0 255 46
3  45 97 98  0 255 46
4  587 97 539 529  255 0 0
4  45 41 96 97  0 255 46
5  115 83 642 443 586  162 255 0
7  585 468 683 444 34 32 148  0 46 255
7  646 151 36 33 441 678 470  0 46 255
3  585 148 149  0 46 255
4  586 443 442 663  162 255 0
4  678 441 444 683  0 46 255
4  468 450 449 470  0 46 255
4  470 449 448 471  0 46 255
4  683 468 470 678  0 46 255
4  522 521 576 681  255 0 0
4  30 39 38 31  162 255 0
4  31 522 681 30  255 0 0
4  688 665 463 692  0 255 255
3  56 53 52  255 0 208
5  673 667 61 55 54  0 255 255
5  688 52 53 58 665  0 255 255
3  57 54 55  255 0 208
4  57 56 52 54  255 0 208
4  563 446 42 46  231 255 0
8  636 49 43 44 370 99 100 485  0 255 46
5  561 447 504 500 473  231 255 0
4  636 635 48 49  0 255 46
3  652 353 405  23 255 0
4  652 650 354 353  23 255 0
4  131 415 414 130  92 255 0
4  130 132 345 344  255 0 139
7  130 414 413 73 75 517 132  92 255 0
4  580 22 23 467  23 255 0
4  131 347 346 135  255 0 139
3  604 27 21  23 255 0
4  130 344 347 131  255 0 139
4  567 116 117 371  0 115 255
6  567 560 396 63 103 116  0 115 255
6  564 120 104 67 424 558  0 115 255
4  97 96 540 539  255 0 0
4  529 539 540 526  255 0 0
4  367 18 17 533  0 255 185
5  365 14 15 661 366  0 255 185
4  533 17 16 534  0 255 185
4  534 16 14 365  0 255 185
4  529 526 101 102  255 0 0
4  525 234 264 423  255 0 0
5  83 82 320 352 29  255 0 0
6  522 29 352 247 496 675  255 0 0
5  521 522 675 113 520  255 0 0
4  519 435 434 518  231 255 0
4  510 38 39 511  0 46 255
4  512 565 562 513  0 46 255
4  513 510 511 512  0 46 255
3  446 48 42  231 255 0
4  502 499 500 504  231 255 0
4  447 49 48 446  231 255 0
4  447 446 502 504  231 255 0
4  500 499 472 473  231 255 0
4  498 497 492 491  0 46 255
4  491 483 451 469  0 46 255
4  471 448 482 492  0 46 255
4  492 482 483 491  0 46 255
4  469 451 450 468  0 46 255
4  483 482 448 451  0 46 255
4  401 47 51 402  231 255 0
4  402 163 162 403  231 255 0
4  404 160 161 401  231 255 0
4  403 162 160 404  231 255 0
4  403 404 401 402  231 255 0
4  501 357 360 503  0 255 115
4  503 360 359 363  0 255 115
7  505 440 397 140 141 420 368  0 255 185
7  507 366 419 137 136 398 439  0 255 185
4  501 364 358 357  0 255 115
4  503 363 364 501  0 255 115
4  136 137 85 84  162 0 255
4  440 439 398 397  0 255 185
5  368 662 19 18 367  0 255 185
3  366 661 419  0 255 185
3  368 420 662  0 255 185
4  493 424 67 105  0 115 255
4  489 485 445 487  0 255 46
4  480 20 21 481  255 0 139
5  407 411 22 20 480  255 0 139
5  481 21 27 412 408  255 0 139
7  408 412 538 282 134 135 346  255 0 139
4  481 408 407 480  255 0 139
4  476 2 0 477  23 0 255
4  479 3 2 476  23 0 255
4  477 342 343 478  23 0 255
4  478 4 3 479  23 0 255
4  478 343 10 11  23 0 255
4  479 476 477 478  23 0 255
4  473 472 553 556  231 255 0
5  467 488 406 460 465  23 255 0
5  466 461 405 490 464  23 255 0
4  465 460 461 466  23 255 0
5  464 490 484 25 26  23 255 0
8  131 135 516 80 81 82 416 415  92 255 0
5  115 129 416 82 83  92 255 0
4  69 122 123 72  255 0 69
4  72 310 309 617  255 0 0
6  72 123 127 111 70 71  255 0 69
4  617 615 69 72  255 0 0
4  690 462 667 673  0 255 255
4  692 463 462 690  0 255 255
4  462 463 665 667  0 255 255
4  657 330 329 658  255 139 0
4  659 331 330 657  255 139 0
4  658 329 328 660  255 139 0
4  129 647 648 128  162 255 0
4  423 78 77 644  255 0 0
4  75 76 509 517  92 255 0
5  135 134 514 508 516  92 255 0
7  132 133 283 535 411 407 345  255 0 139
7  80 79 242 247 352 320 81  255 0 0
5  132 517 509 515 133  92 255 0
4  80 516 508 79  92 255 0
6  382 432 431 693 547 427  255 208 0
4  634 425 428 545  255 208 0
5  406 488 486 409 354  23 255 0
4  54 52 458 459  0 255 255
5  454 122 124 430 691  255 208 0
4  457 123 122 454  255 208 0
4  457 454 455 456  255 208 0
4  453 355 354 409  23 255 0
4  452 356 355 453  23 255 0
4  410 353 356 452  23 255 0
4  410 452 453 409  23 255 0
4  451 448 449 450  0 46 255
4  44 50 51 45  231 0 255
3  40 46 42  231 0 255
5  40 369 87 95 41  0 255 46
3  44 43 50  231 0 255
3  447 43 49  231 255 0
4  89 88 98 338  255 0 0
4  86 87 93 349  162 0 255
4  89 350 99 88  162 0 255
4  485 100 94 445  0 255 46
4  91 92 141 140  162 0 255
5  91 90 285 284 92  255 0 0
4  141 528 532 420  0 255 185
4  137 530 528 141  0 255 185
4  141 92 85 137  162 0 255
4  13 7 1 5  23 0 255
4  13 583 578 7  0 115 255
4  568 562 565 566  0 46 255
4  556 553 554 555  231 255 0
5  549 545 428 427 547  255 208 0
4  442 36 37 641  162 255 0
3  443 32 34  162 255 0
3  442 33 36  162 255 0
4  444 441 33 34  0 46 255
4  443 34 33 442  162 255 0
4  72 71 388 310  255 0 0
4  440 437 438 439  0 255 185
4  436 433 434 435  231 255 0
3  82 81 320  255 0 0
4  129 128 413 416  92 255 0
4  432 429 430 431  255 208 0
4  428 425 426 427  255 208 0
5  133 279 278 536 283  255 0 139
4  134 280 279 133  255 0 139
4  78 79 508 514  92 255 0
4  78 423 264 238  255 0 0
4  77 515 509 76  92 255 0
4  134 133 515 514  92 255 0
4  78 514 515 77  92 255 0
4  65 66 119 543  92 0 255
5  362 18 19 363 359  0 255 115
4  362 361 421 422  0 255 115
4  420 532 531 419  0 255 185
4  419 531 530 137  0 255 185
4  162 417 418 160  231 255 0
4  416 413 414 415  92 255 0
5  68 110 124 122 69  255 0 69
4  412 27 26 538  255 0 139
5  410 484 490 405 353  23 255 0
4  411 535 23 22  255 0 139
4  410 409 486 484  23 255 0
4  408 346 345 407  255 0 139
3  535 24 23  255 0 139
4  538 25 24 535  255 0 139
5  467 23 24 486 488  23 255 0
3  538 26 25  255 0 139
5  537 281 280 134 282  255 0 139
4  536 278 281 537  255 0 139
4  538 535 283 282  255 0 139
4  537 282 283 536  255 0 139
4  532 528 530 531  0 255 185
4  527 176 174 267  255 0 0
4  66 67 104 119  92 0 255
7  66 175 523 373 336 105 67  255 0 0
3  523 374 373  255 0 0
5  523 175 176 527 374  255 0 0
3  524 323 322  255 0 0
4  79 78 243 242  255 0 0
4  304 302 301 303  255 0 0
4  506 381 302 304  255 0 0
4  506 668 581 381  255 0 0
6  506 304 168 169 290 668  255 0 0
5  305 495 246 169 168  255 0 0
4  8 9 342 477  23 0 255
4  246 495 496 247  255 0 0
4  303 301 214 213  255 0 0
4  313 333 332 259  255 0 0
6  495 305 303 213 212 390  255 0 0
4  313 311 390 333  255 0 0
4  486 24 25 484  23 255 0
4  312 258 262 266  255 0 0
4  266 262 261 265  255 0 0
4  312 266 174 308  255 0 0
4  308 174 176 309  255 0 0
4  400 397 398 399  0 255 185
6  251 260 165 164 170 252  255 0 0
6  300 170 164 215 214 301  255 0 0
4  259 332 164 165  255 0 0
4  62 118 103 63  92 0 255
4  670 118 119 685  255 139 0
4  687 676 670 685  255 139 0
4  119 118 544 543  92 0 255
5  693 431 127 123 457  255 208 0
4  661 15 19 662  0 255 185
4  420 419 661 662  0 255 185
4  525 625 224 234  255 0 0
4  307 335 321 306  255 0 0
4  335 334 322 321  255 0 0
4  642 35 32 443  162 255 0
4  373 206 337 336  255 0 0
4  333 639 637 332  255 0 0
5  333 390 212 589 639  255 0 0
4  495 390 388 496  255 0 0
4  390 311 310 388  255 0 0
5  338 291 285 90 89  255 0 0
3  338 292 291  255 0 0
6  381 581 277 167 166 302  255 0 0
5  300 166 167 171 170  255 0 0
4  252 170 171 253  255 0 0
4  159 109 107 156  255 0 0
7  306 324 337 672 208 107 109  255 0 0
4  206 373 374 205  255 0 0
3  350 100 99  162 0 255
4  349 94 100 350  162 0 255
3  370 88 99  0 255 46
3  369 93 87  0 255 46
3  349 93 94  162 0 255
5  364 15 14 361 358  0 255 115
4  363 19 15 364  0 255 115
4  362 359 358 361  0 255 115
4  360 357 358 359  0 255 115
4  356 353 354 355  23 255 0
4  265 261 570 569  255 0 0
5  206 204 173 326 337  255 0 0
4  78 238 244 243  255 0 0
4  351 348 349 350  162 0 255
4  347 344 345 346  255 0 139
7  339 221 315 293 335 307 199  255 0 0
4  527 267 205 374  255 0 0
4  343 342 9 10  23 0 255
3  306 321 324  255 0 0
6  327 295 254 255 314 317  255 0 0
5  193 210 325 172 194  255 0 0
4  60 59 340 341  255 69 0
4  339 207 192 191  255 0 0
4  92 284 287 316  255 0 0
4  210 686 674 325  255 0 0
4  337 326 680 672  255 0 0
4  257 263 152 153  255 0 0
4  258 153 152 262  255 0 0
4  337 324 323 336  255 0 0
4  335 293 292 334  255 0 0
4  238 239 245 244  255 0 0
3  288 289 319  255 0 0
8  290 169 246 245 239 240 319 289  255 0 0
7  254 108 106 209 686 210 211  255 0 0
3  193 211 210  255 0 0
4  158 157 106 108  255 0 0
5  332 637 590 215 164  255 0 0
4  331 328 329 330  255 139 0
4  207 339 201 200  255 0 0
7  274 219 207 198 295 327 318  255 0 0
5  326 272 269 268 680  255 0 0
4  325 273 570 172  255 0 0
5  325 674 271 270 273  255 0 0
4  324 321 322 323  255 0 0
3  315 294 293  255 0 0
6  298 297 317 314 256 260  255 0 0
6  231 232 286 294 315 220  255 0 0
5  316 287 286 232 233  255 0 0
4  294 286 285 291  255 0 0
4  256 314 263 257  255 0 0
4  258 312 313 259  255 0 0
4  311 313 312 308  255 0 0
4  311 308 309 310  255 0 0
4  183 307 306 109  255 0 0
4  305 168 304 303  255 0 0
4  302 166 300 301  255 0 0
6  183 109 159 155 248 179  255 0 0
6  181 180 249 154 158 108  255 0 0
5  299 618 296 297 298  255 0 0
4  295 181 108 254  255 0 0
4  294 291 292 293  255 0 0
5  290 289 288 142 668  255 0 0
4  287 284 285 286  255 0 0
8  146 237 682 236 253 171 167 277  255 0 0
4  281 278 279 280  255 0 139
4  146 277 581 145  255 0 0
4  229 231 190 189  255 0 0
6  276 230 229 218 274 275  255 0 0
4  272 326 173 569  255 0 0
4  273 270 269 272  255 0 0
4  271 674 680 268  255 0 0
4  271 268 269 270  255 0 0
5  205 267 174 173 204  255 0 0
5  174 266 265 569 173  255 0 0
5  263 195 194 172 152  255 0 0
5  262 152 172 570 261  255 0 0
7  260 256 257 153 258 259 165  255 0 0
5  255 254 211 193 195  255 0 0
4  253 250 251 252  255 0 0
4  248 155 154 249  255 0 0
4  249 180 179 248  255 0 0
4  247 242 245 246  255 0 0
4  245 242 243 244  255 0 0
4  241 235 677 669  255 0 0
5  241 669 187 239 238  255 0 0
5  240 239 187 186 599  255 0 0
4  235 241 631 605  255 0 0
5  237 601 185 188 682  255 0 0
5  236 682 188 677 235  255 0 0
4  231 229 613 612  255 0 0
7  233 232 231 612 611 551 216  255 0 0
6  230 689 552 610 613 229  255 0 0
4  228 643 616 227  255 0 0
4  228 217 584 643  255 0 0
6  228 316 233 216 550 217  255 0 0
6  643 584 548 689 230 276  255 0 0
4  227 616 593 226  255 0 0
4  228 227 223 316  255 0 0
3  552 689 548  255 0 0
4  552 551 611 610  255 0 0
4  616 643 276 296  255 0 0
4  639 589 590 637  255 0 0
4  250 298 260 251  255 0 0
4  631 241 238 264  255 0 0
6  231 220 221 339 191 190  255 0 0
3  315 221 220  255 0 0
6  229 189 192 207 219 218  255 0 0
3  274 218 219  255 0 0
5  240 599 597 288 319  255 0 0
4  146 147 601 237  255 0 0
4  185 601 599 186  255 0 0
4  226 593 595 596  255 0 0
5  227 226 225 224 223  255 0 0
4  222 619 605 631  255 0 0
4  596 595 619 222  255 0 0
5  224 225 596 222 234  255 0 0
5  594 618 299 619 595  255 0 0
5  593 616 296 618 594  255 0 0
4  296 276 275 297  255 0 0
4  613 610 611 612  255 0 0
4  288 597 143 142  255 0 0
3  275 274 318  255 0 0
4  235 605 546 236  255 0 0
4  147 144 143 597  255 0 0
4  147 597 599 601  255 0 0
4  314 255 195 263  255 0 0
3  226 596 225  255 0 0
3  595 593 594  255 0 0
4  590 589 212 215  255 0 0
3  216 551 550  255 0 0
4  217 550 548 584  255 0 0
4  677 188 187 669  255 0 0
5  297 275 318 327 317  255 0 0
4  686 209 208 672  255 0 0
4  686 672 680 674  255 0 0
4  222 631 264 234  255 0 0
4  236 546 250 253  255 0 0
4  581 668 142 145  255 0 0
4  199 307 183 184  255 0 0
4  605 619 299 546  255 0 0
4  570 273 272 569  255 0 0
5  339 199 196 202 201  255 0 0
4  295 198 182 181  255 0 0
4  552 548 550 551  255 0 0
4  546 299 298 250  255 0 0
4  215 212 213 214  255 0 0
4  157 156 107 106  255 0 0
4  209 106 107 208  255 0 0
5  207 200 203 197 198  255 0 0
3  206 205 204  255 0 0
4  202 196 197 203  255 0 0
4  203 200 201 202  255 0 0
4  199 184 178 196  255 0 0
4  198 197 177 182  255 0 0
4  197 196 178 177  255 0 0
3  195 193 194  255 0 0
4  192 189 190 191  255 0 0
4  188 185 186 187  255 0 0
4  178 184 183 179  255 0 0
4  182 177 180 181  255 0 0
4  180 177 178 179  255 0 0
3  159 156 155  255 0 0
3  158 154 157  255 0 0
4  157 154 155 156  255 0 0
4  150 37 36 151  0 46 255
4  148 32 35 149  0 46 255
4  147 146 145 144  255 0 0
4  145 142 143 144  255 0 0
6  141 137 136 138 139 140  162 0 255
6  137 141 140 139 138 136  0 255 185
6  135 131 130 132 133 134  92 255 0
6  131 135 134 133 132 130  255 0 139
4  129 115 114 128  92 255 0
4  115 129 128 114  162 255 0
6  127 123 122 124 110 111  255 0 69
6  123 127 111 110 124 122  255 208 0
4  126 111 110 125  255 69 0
4  111 126 125 110  255 208 0
6  121 117 116 103 104 120  0 115 255
6  117 121 120 104 103 116  255 139 0
4  119 104 103 118  92 0 255
4  119 118 103 104  255 139 0
4  83 29 28 74  255 0 0
4  29 83 74 28  162 255 0
4  115 83 74 114  92 255 0
4  83 115 114 74  162 255 0
4  70 111 110 68  255 0 69
4  111 70 68 110  255 69 0
4  113 70 68 112  255 0 0
4  70 113 112 68  255 69 0
5  105 102 101 63 67  255 0 0
5  102 105 67 63 101  0 115 255
4  104 67 63 103  92 0 255
4  67 104 103 63  0 115 255
6  100 94 93 87 88 99  162 0 255
6  94 100 99 88 87 93  0 255 46
6  98 88 87 95 96 97  255 0 0
6  88 98 97 96 95 87  0 255 46
9  92 85 84 86 87 88 89 90 91  255 0 0
9  85 92 91 90 89 88 87 86 84  162 0 255
11  83 74 73 75 76 77 78 79 80 81 82  255 0 0
11  74 83 82 81 80 79 78 77 76 75 73  92 255 0
5  72 69 68 70 71  255 0 0
5  69 72 71 70 68  255 0 69
6  67 63 62 64 65 66  255 0 0
6  63 67 66 65 64 62  92 0 255
6  61 55 53 58 59 60  255 69 0
4  57 55 53 56  255 0 208
6  61 60 59 58 53 55  0 255 255
4  56 53 55 57  255 69 0
4  55 53 52 54  0 255 255
4  53 55 54 52  255 0 208
6  51 47 46 42 43 50  231 255 0
6  47 51 50 43 42 46  231 0 255
4  49 43 42 48  231 255 0
4  43 49 48 42  0 255 46
6  45 41 40 42 43 44  231 0 255
6  41 45 44 43 42 40  0 255 46
8  34 33 36 37 39 38 35 32  0 46 255
8  33 34 32 35 38 39 37 36  162 255 0
4  31 29 28 30  162 255 0
4  29 31 30 28  255 0 0
8  27 21 20 22 23 24 25 26  255 0 139
8  21 27 26 25 24 23 22 20  23 255 0
6  19 15 14 16 17 18  0 255 185
6  15 19 18 17 16 14  0 255 115
8  13 7 6 8 9 10 11 12  0 115 255
8  7 13 12 11 10 9 8 6  23 0 255
6  5 1 0 2 3 4  23 0 255
6  1 5 4 3 2 0  0 185 255

