OFF
742 758 0

9.7509 3.62584 -78.15
9.7509 3.62584 67.55
10.52 4 -78.15
10.52 4 67.55
5 -11.52 -78.15
4.06272 -9.8329 -78.15
5 -11.52 67.55
4.06272 -9.8329 67.55
-13.32 -17.12 -78.15
-13.7493 -18.7052 -78.15
-13.32 -17.12 67.55
-13.7493 -18.7052 67.55
11.2173 17.0766 -78.15
11.2173 17.0766 67.55
11.0583 16.9835 -78.15
9.43064 16.0303 -78.15
8.24775 15.3376 -78.15
6.92 14.56 -78.15
6.92 14.56 -78.15
6.92 14.56 67.55
6.92 14.56 67.55
8.24775 15.3376 67.55
9.43064 16.0303 67.55
11.0583 16.9835 67.55
-4.3253 21.3642 -78.15
-4.3253 21.3642 67.55
-3.22207 21.0599 -78.15
2.36 19.52 -78.15
2.36 19.52 67.55
-3.22207 21.0599 67.55
9.3329 -7.47797 -78.15
7.01468 -10.4264 -78.15
9.3329 -7.47797 -78.15
9.3329 -7.47797 67.55
9.3329 -7.47797 67.55
7.01468 -10.4264 67.55
10.7572 -12.0091 -78.15
10.7572 -12.0091 67.55
9.24583 -11.5905 -78.15
7.37333 -11.072 -78.15
7.37333 -11.072 67.55
9.24583 -11.5905 67.55
15.5862 -9.17518 -78.15
15.7388 -8.56471 -78.15
14.6109 -13.0763 -78.15
14.6109 -13.0763 67.55
15.5862 -9.17518 67.55
15.7388 -8.56471 67.55
18.4593 2.31736 -78.15
18.4593 2.31736 67.55
17.3951 -1.9398 -78.15
17.2186 -2.64563 -78.15
17.2186 -2.64563 67.55
17.3951 -1.9398 67.55
9.48 5.92 -78.15
9.48 5.92 67.55
7.96336 5.11955 -78.15
7.96336 5.11955 67.55
-1.98136 -17.7877 -78.15
-1.98136 -17.7877 67.55
-1.79608 -18.1021 -78.15
-1.23816 -19.0486 -78.15
-0.609685 -20.1149 -78.15
0.36 -21.76 -78.15
0.36 -21.76 67.55
7.05546 7.47965 -78.15
5.84146 7.79716 67.55
7.05546 7.47965 67.55
5.8494 -2.98396 67.55
-3.46314 -2.25889 67.55
4.335 -6.05 67.55
6.47455 0.969091 67.55
-4.58886 -1.95601 67.55
-3.64928 1.75534 67.55
-3.5231 2.25376 67.55
-3 4.32 67.55
0.562817 3.43691 67.55
5.58658 2.1917 67.55
6.36 2 67.55
6.8605 0.891901 67.55
6.6542 0.101107 67.55
6.52211 -0.405263 67.55
5.41538 -4.64771 67.55
5 -6.24 67.55
3.96 -6.8 67.55
3.1491 -6.58323 67.55
2.10181 -6.30326 67.55
0.804582 -5.95647 67.55
-1.74699 -5.27437 67.55
-2.98264 -4.94405 67.55
-4.12 -4.64 67.55
-3.81177 -3.52268 67.55
-3.62395 -2.84181 67.55
-3.46314 -2.25889 76.85
-3.64928 1.75534 76.85
5.8494 -2.98396 76.85
4.335 -6.05 76.85
3.96 -6.8 76.85
6.47455 0.969091 76.85
3.1491 -6.58323 76.85
2.10181 -6.30326 76.85
0.804582 -5.95647 76.85
-1.74699 -5.27437 76.85
-2.98264 -4.94405 76.85
-4.12 -4.64 76.85
10.1302 -7.70577 67.55
14.4455 3.63124 -78.15
14.4455 3.63124 67.55
14.2895 3.42498 -78.15
10.8062 10.5052 67.55
10.8062 10.5052 -78.15
10.8062 10.5052 67.55
9.47296 10.9063 67.55
10.8062 10.5052 -78.15
2.76687 -14.8003 -78.15
1.47957 -12.5935 -78.15
3.59163 -16.2142 -78.15
3.59163 -16.2142 67.55
2.76687 -14.8003 67.55
1.47957 -12.5935 67.55
2.47432 -15.9218 -78.15
0.685156 -15.4534 -78.15
3.59163 -16.2142 -78.15
3.59163 -16.2142 67.55
2.47432 -15.9218 67.55
0.685156 -15.4534 67.55
-6.05031 5.07606 67.55
-6.62203 3.07407 -78.15
-6.62203 3.07407 67.55
-9.82002 -8.1245 67.55
-9.82002 -8.1245 -78.15
-4.5008 10.5021 -78.15
-4.5008 10.5021 67.55
8.48173 7.10662 -78.15
7.25723 2.41271 -78.15
7.10161 1.81618 -78.15
6.8605 0.891901 -78.15
7.10161 1.81618 67.55
7.25723 2.41271 67.55
7.43546 3.09594 67.55
8.48173 7.10662 67.55
-13.1934 -7.19682 67.55
-13.1934 -7.19682 -78.15
3.54929 -11.8011 -78.15
4.18563 -11.976 -78.15
-5.05373 -9.43522 76.85
-7.88376 11.3868 67.55
-7.88376 11.3868 -78.15
10.5108 6.57595 -78.15
10.5108 6.57595 67.55
-13.3228 -7.64991 -78.15
-13.7475 -9.13621 -78.15
-11.3625 -0.788726 -78.15
-11.3625 -0.788726 67.55
-13.3228 -7.64991 67.55
-13.7475 -9.13621 67.55
-10.0031 3.96906 -78.15
-10.0031 3.96906 67.55
-8.74189 8.3834 -78.15
-7.35472 13.2385 -78.15
-7.35472 13.2385 67.55
-8.74189 8.3834 67.55
10.4774 6.44641 -78.15
10.4774 6.44641 67.55
9.99311 4.5662 -78.15
9.99311 4.5662 67.55
8.9396 0.476081 -78.15
8.9396 0.476081 67.55
6.41118 -9.34012 -78.15
7.05823 -6.82806 -78.15
6.05885 -10.708 -78.15
6.05885 -10.708 67.55
6.41118 -9.34012 67.55
7.05823 -6.82806 67.55
8.12198 5.7276 76.85
8.424 5.36267 76.85
8.424 5.36267 78.05
8.12198 5.7276 78.05
7.96336 5.11955 78.05
8.38105 5.34 78.05
10.5845 10.9239 67.55
9.54531 11.1837 67.55
9.54531 11.1837 -78.15
10.5845 10.9239 -78.15
-4.58886 -1.95601 78.05
-3.64928 1.75534 78.05
-3.24902 -10.9392 78.05
-3.24902 -10.9392 76.85
-4.37111 -10.0041 76.85
-4.37111 -10.0041 78.05
-3.09039 -10.3409 78.05
-3.09039 -10.3409 76.85
-1.72 -17.84 -78.15
-0.0694739 -18.1701 -78.15
-1.72 -17.84 67.55
-0.0694739 -18.1701 67.55
-3 4.32 78.05
-3.5231 2.25376 78.05
5.72305 7.73257 78.05
6.12381 4.12571 78.05
5.72305 7.73257 76.85
6.12381 4.12571 76.85
0.562817 3.43691 78.05
5.58658 2.1917 78.05
-4.73827 -2.54617 78.05
-4.73827 -2.54617 76.85
-4.58886 -1.95601 76.85
-4.73827 -2.54617 67.55
0.072248 -11.6667 78.05
0.072248 -11.6667 76.85
-0.781125 -11.5482 76.85
-0.781125 -11.5482 78.05
-0.534372 -10.678 78.05
0.293204 -10.9056 78.05
-0.534372 -10.678 76.85
0.293204 -10.9056 76.85
9.17061 3.34354 78.05
9.17061 3.34354 76.85
8.96204 1.35505 76.85
8.96204 1.35505 78.05
3.92598 -10.3571 78.05
3.92598 -10.3571 76.85
2.18488 -11.4258 76.85
2.18488 -11.4258 78.05
1.01531 -11.7977 78.05
0.533499 -10.9717 78.05
0.533499 -10.9717 76.85
1.72562 -11.7078 78.05
1.72562 -11.7078 76.85
1.16397 -12.0525 76.85
1.16397 -12.0525 78.05
-4.31606 -2.65819 76.85
-3.62395 -2.84181 76.85
-3.81177 -3.52268 76.85
1.83097 -11.3285 78.05
-5.37009 -9.17159 76.85
-5.37009 -9.17159 78.05
-4.12 -4.64 78.05
-2.98264 -4.94405 78.05
-1.85673 8.83591 76.85
-0.52216 9.46149 76.85
-0.52216 9.46149 78.05
-1.85673 8.83591 78.05
6.52211 -0.405263 78.05
4.97869 0.00328759 78.05
5.11689 0.500808 78.05
6.6542 0.101107 78.05
6.57837 -7.49996 78.05
6.57837 -7.49996 76.85
6.0726 -8.73068 76.85
6.0726 -8.73068 78.05
-0.241091 -9.64384 78.05
1.83097 -11.3285 76.85
-7.65828 -3.69412 78.05
-7.65828 -3.69412 76.85
-7.70327 -1.75954 76.85
-7.70327 -1.75954 78.05
8.57277 -0.948085 78.05
8.70563 -0.432264 78.05
-0.241091 -9.64384 76.85
6.9591 7.13276 76.85
6.9591 7.13276 78.05
5.31158 1.20168 78.05
6.8605 0.891901 78.05
6.52211 -0.405263 76.85
6.6542 0.101107 76.85
8.70563 -0.432264 76.85
8.57277 -0.948085 76.85
-5.35317 -9.11024 76.85
-6.11193 -7.97211 76.85
-6.11193 -7.97211 78.05
-5.35317 -9.11024 78.05
3.37353 -5.77529 78.05
1.51321 -5.24377 78.05
1.17787 -4.64016 78.05
1.47628 -3.58787 78.05
3.80696 -4.21495 78.05
9.15376 1.30753 76.85
9.15376 1.30753 78.05
7.10161 1.81618 78.05
7.10161 1.81618 76.85
6.8654 -7.57669 78.05
6.8654 -7.57669 76.85
5.1814 -7.12651 78.05
5.1814 -7.12651 76.85
3.21053 -8.29895 78.05
2 -10.72 78.05
3.21053 -8.29895 76.85
2 -10.72 76.85
-3.64 8 76.85
-3.64 8 78.05
7.65283 -4.51962 78.05
6.56045 -2.59612 78.05
8.40782 -1.58846 78.05
6.56045 -2.59612 76.85
8.40782 -1.58846 76.85
7.65283 -4.51962 76.85
-1.26775 -3.46692 78.05
-3.62395 -2.84181 78.05
-3.46314 -2.25889 78.05
-1.11495 -2.89068 78.05
8.38105 5.34 76.85
8.83566 3.18059 76.85
8.83566 3.18059 78.05
8.9396 0.476081 78.05
2.85185 -7.65333 78.05
7.96336 5.11955 76.85
5.90292 -9.14357 78.05
5.90292 -9.14357 76.85
4.24511 -10.1612 76.85
4.24511 -10.1612 78.05
5 -6.24 78.05
5.41538 -4.64771 78.05
7.47696 -5.20239 78.05
5.8494 -2.98396 78.05
5.41538 -4.64771 76.85
7.47696 -5.20239 76.85
7.25723 2.41271 78.05
7.43546 3.09594 76.85
7.25723 2.41271 76.85
4.06272 -9.8329 78.05
2.85185 -7.65333 76.85
4.06272 -9.8329 76.85
6.8605 0.891901 76.85
8.9396 0.476081 76.85
0.0017073 1.32072 78.05
0.128221 1.79786 78.05
-5.97855 5.32738 78.05
-5.97855 5.32738 76.85
-3 4.32 76.85
7.05823 -6.82806 78.05
-5.19556 -4.35247 76.85
-5.19556 -4.35247 78.05
5 -6.24 76.85
7.05823 -6.82806 76.85
4.90059 -6.62106 78.05
4.90059 -6.62106 76.85
4.79564 -7.02339 76.85
6.36 2 76.85
5.58658 2.1917 76.85
-3.31711 -11.196 76.85
-3.31711 -11.196 78.05
0.239137 2.21617 78.05
-2.07292 -6.50357 78.05
-3.81177 -3.52268 78.05
-0.132803 0.813429 78.05
-2.44477 1.43271 78.05
-6.76062 2.58874 78.05
-6.62203 3.07407 78.05
-4.31606 -2.65819 78.05
-7.9813 -1.68578 78.05
-7.81091 -1.08909 78.05
-7.9813 -1.68578 76.85
-7.81091 -1.08909 76.85
-6.21791 -8.39075 76.85
-7.64 -4.48 76.85
-7.64 -4.48 78.05
-6.21791 -8.39075 78.05
6.13128 4.15262 78.05
9.37469 -0.606218 -78.15
8.89614 0.307368 -78.15
8.89614 0.307368 67.55
9.37469 -0.606218 67.55
11.32 -6.41634e-08 67.55
11.32 -6.41634e-08 -78.15
6.71938 4.46301 76.85
6.13128 4.15262 76.85
-3 -10 78.05
-3 -10 76.85
1.0219 5.16831 78.05
1.98629 8.80543 78.05
5.84146 7.79716 78.05
1.98629 8.80543 76.85
5.84146 7.79716 76.85
1.0219 5.16831 76.85
-2.07292 -6.50357 76.85
-3.5231 2.25376 76.85
-6.76062 2.58874 76.85
-6.62203 3.07407 76.85
4.79564 -7.02339 67.55
6.71938 4.46301 67.55
-15.2513 -6.56629 -78.15
-15.9556 -6.95754 -78.15
-15.9556 -6.95754 67.55
-15.2513 -6.56629 67.55
-6.05031 5.07606 78.05
-6.05031 5.07606 76.85
-11.579 -12.8419 -78.15
10.2503 4.49789 -78.15
10.2503 4.49789 67.55
5.99292 -10.964 -78.15
5.99292 -10.964 67.55
6.13128 4.15262 67.55
17.08 -3.2 -78.15
17.08 -3.2 67.55
16.0057 -7.49711 -78.15
16.0057 -7.49711 67.55
0.562817 3.43691 76.85
-5.51664 -9.70282 67.55
10.8062 10.5052 -78.15
9.12977 9.59078 -78.15
10.8062 10.5052 67.55
9.12977 9.59078 67.55
7 -10.4 67.55
6.32059 -10.7805 -78.15
7 -10.4 -78.15
6.32059 -10.7805 67.55
11.8598 -0.107967 -78.15
16.9659 -1.12917 -78.15
11.8598 -0.107967 67.55
16.9659 -1.12917 67.55
-8.46708 -18.1599 67.55
-8.46708 -18.1599 -78.15
7.05546 7.47965 76.85
8.25564 1.53014 67.55
8.25564 1.53014 -78.15
8.79234 0.505532 67.55
8.79234 0.505532 -78.15
7.68447 2.62055 67.55
7.68447 2.62055 -78.15
-4.31606 -2.65819 67.55
-2.07292 -6.50357 67.55
-7.9813 -1.68578 67.55
7.15614 -6.44792 67.55
7.15614 -6.44792 -78.15
8.35792 -5.76119 -78.15
8.35792 -5.76119 67.55
11.9644 0.351511 -78.15
9.93941 -0.753047 -78.15
9.93941 -0.753047 67.55
11.9644 0.351511 67.55
-8.34773 -19.9655 -78.15
-8.34773 -19.9655 67.55
-11.1887 -0.18029 67.55
-11.1887 -0.18029 -78.15
15.2369 2.13649 67.55
15.2369 2.13649 -78.15
11.0867 4.27571 -78.15
11.0867 4.27571 67.55
11.6139 -1.18841 -78.15
11.6139 -1.18841 67.55
12.7568 3.8321 -78.15
12.7568 3.8321 67.55
10.0641 4.84171 -78.15
10.0641 4.84171 67.55
-2.52 -17.68 67.55
-2.52 -17.68 -78.15
9.3329 -7.47797 -78.15
9.3329 -7.47797 67.55
16.3613 -8.72032 -78.15
18.28 -9.2 -78.15
18.28 -9.2 67.55
16.3613 -8.72032 67.55
-9.93864 -8.5399 67.55
-7.81091 -1.08909 67.55
-17.64 9.44 -78.15
-17.1335 9.35558 -78.15
-17.1335 9.35558 67.55
-17.64 9.44 67.55
-10.84 12.16 -78.15
-10.4309 11.4237 -78.15
-10.84 12.16 67.55
-10.4309 11.4237 67.55
-1.59221 -23.6519 -78.15
-4.04 -23.04 -78.15
-4.04 -23.04 67.55
-1.59221 -23.6519 67.55
8.59793 -13.2763 67.55
8.59793 -13.2763 -78.15
11.64 10.96 -78.15
11.64 10.96 67.55
-18.4817 6.2134 67.55
-17.7372 7.11343 67.55
-18.0129 6.08929 67.55
0.36 -21.76 -78.15
-0.225 -24.1 -78.15
-0.225 -24.1 67.55
0.36 -21.76 67.55
6.92 14.56 67.55
6.92 14.56 -78.15
6.04 14.8 -78.15
6.04 14.8 67.55
2.20963 18.8809 -78.15
2.20963 18.8809 67.55
-5.8 -20.56 67.55
-5.8 -20.56 -78.15
-7.26228 -20.2188 -78.15
-7.26228 -20.2188 67.55
1.0219 5.16831 67.55
5.84146 7.79716 -78.15
1.0219 5.16831 -78.15
5.11689 0.500808 -78.15
6.6542 0.101107 -78.15
0.128221 1.79786 -78.15
5 -6.24 -78.15
4.90059 -6.62106 67.55
4.90059 -6.62106 -78.15
5.58054 -12.565 -78.15
5.58054 -12.565 67.55
3.59163 -16.2142 -78.15
3.59163 -16.2142 67.55
10.3568 19.3643 -78.15
11.5904 19.0231 -78.15
11.5904 19.0231 67.55
10.3568 19.3643 67.55
11.4926 -1.72099 67.55
11.4926 -1.72099 -78.15
-4.68 20 -78.15
-4.68 20 67.55
-3.56 19.68 67.55
-3.56 19.68 -78.15
-18.4817 6.2134 -78.15
3 22.24 -78.15
9.82776 17.4599 67.55
11.0916 17.1113 -78.15
9.82776 17.4599 -78.15
0.912846 -21.9074 -78.15
0.912846 -21.9074 67.55
-0.968276 -21.4058 -78.15
13.4863 5.44306 -78.15
6.62043 -14.4368 -78.15
6.62043 -14.4368 67.55
-8.04745 -18.877 67.55
-8.04745 -18.877 -78.15
-5.51664 -9.70282 -78.15
-0.609685 -20.1149 67.55
-1.23816 -19.0486 67.55
9.93907 -8.54533 -78.15
-1.79608 -18.1021 67.55
9.93907 -8.54533 67.55
10.5141 -6.01954 -78.15
10.5141 -6.01954 67.55
-1 -15.36 -78.15
0.6 -15.76 -78.15
0.6 -15.76 67.55
-1 -15.36 67.55
-18.0129 6.08929 -78.15
7.48 20.16 -78.15
-17.7372 7.11343 -78.15
7.48 20.16 67.55
6.96665 18.2492 67.55
-10.4309 11.4237 -78.15
6.96665 18.2492 -78.15
-10.4309 11.4237 67.55
-10.4309 11.4237 -78.15
-12.2922 4.57498 -78.15
-12.2922 4.57498 67.55
-10.4309 11.4237 67.55
6.87898 17.9229 -78.15
6.87898 17.9229 67.55
3.02881 -22.4717 -78.15
3.02881 -22.4717 67.55
4.31928 -17.4616 -78.15
4.31928 -17.4616 67.55
-15.24 0.24 -78.15
-15.24 0.24 67.55
-18.2272 -1.48074 -78.15
-20.3857 -2.72407 -78.15
8.17922 11.5252 67.55
-20.3857 -2.72407 67.55
8.17922 11.5252 -78.15
6.28 12 -78.15
-18.2272 -1.48074 67.55
6.28 12 67.55
-3.24151 -20.2243 -78.15
-3.24151 -20.2243 67.55
1.98629 8.80543 67.55
4.26912 8.20838 67.55
5.26686 7.94744 67.55
-0.534372 -10.678 -78.15
-3 -10 -78.15
-3 -10 67.55
-0.534372 -10.678 67.55
-13.514 -0.217923 -78.15
-13.514 -0.217923 67.55
-15.2513 -6.56629 -78.15
-15.2513 -6.56629 67.55
12.1206 -12.3866 67.55
12.1206 -12.3866 -78.15
11.619 -11.5034 67.55
11.619 -11.5034 -78.15
0.293204 -10.9056 67.55
0.293204 -10.9056 -78.15
-2.2419 -19.6376 67.55
-2.2419 -19.6376 -78.15
0.533499 -10.9717 -78.15
0.533499 -10.9717 67.55
-11.9771 -12.1616 67.55
-10.9259 -8.28026 67.55
-11.9771 -12.1616 -78.15
-10.9259 -8.28026 -78.15
-12.7493 -10.8419 67.55
-11.9562 -8.00931 67.55
-12.7493 -10.8419 -78.15
-11.9562 -8.00931 -78.15
7.47791 16.7916 -78.15
7.47791 16.7916 67.55
5.26686 7.94744 -78.15
-14.8773 -18.442 -78.15
-14.8773 -18.442 67.55
10.1302 -7.70577 -78.15
11.0916 17.1113 67.55
12.1819 -11.173 67.55
13.0829 16.562 -78.15
13.0829 16.562 67.55
12.1819 -11.173 -78.15
13.0529 -12.6448 67.55
11.9644 0.351511 67.55
14.2895 3.42498 67.55
11.9644 0.35151 67.55
-3.64 24 -78.15
11.9644 0.35151 -78.15
-3.64 24 67.55
11.9644 0.351511 -78.15
8.89738 14.1106 67.55
8.89738 14.1106 -78.15
14.5981 3.343 -78.15
21.1246 1.60941 -78.15
21.1246 1.60941 67.55
14.5981 3.343 67.55
7.37619 8.63429 -78.15
-1.71667 -24.1 -78.15
-1.71667 -24.1 67.55
7.37619 8.63429 67.55
-0.133411 -18.4003 -78.15
-0.133411 -18.4003 67.55
2.85185 -7.65333 67.55
3.54929 -11.8011 67.55
1.83097 -11.3285 67.55
9.47296 10.9063 -78.15
8.12036 11.3133 -78.15
2.99567 19.3446 -78.15
4.6591 18.8858 -78.15
8.12036 11.3133 67.55
4.6591 18.8858 67.55
2.99567 19.3446 67.55
4.26912 8.20838 -78.15
-7.81091 -1.08909 -78.15
-6.76062 2.58874 -78.15
-6.76062 2.58874 67.55
-12.28 -13.28 -78.15
-18.1351 5.63546 -78.15
-11.579 -12.8419 67.55
-18.1351 5.63546 67.55
-12.28 -13.28 67.55
-0.132803 0.813429 -78.15
-9.07424 -22.5991 -78.15
-9.07424 -22.5991 67.55
10.2472 -7.1918 67.55
10.2472 -7.1918 -78.15
-0.241091 -9.64384 67.55
-2.07292 -6.50357 -78.15
-0.241091 -9.64384 -78.15
1.23963 18.3087 -78.15
-14.8526 -7.24759 67.55
-3.09039 -10.3409 67.55
-14.8526 -7.24759 -78.15
3.38697 -12.4233 -78.15
1.23963 18.3087 67.55
-3.09039 -10.3409 -78.15
3.38697 -12.4233 67.55
7.05546 7.47965 78.05
-7.9813 -1.68578 -78.15
-14.4202 -21.1821 -78.15
-14.4202 -21.1821 67.55
-13.9389 5.01087 -78.15
-14.0658 4.54548 -78.15
-14.0658 4.54548 67.55
-13.9389 5.01087 67.55
-15.56 -20.88 -78.15
-15.56 -20.88 67.55
-19.1259 1.95527 -78.15
-16.0141 13.5132 67.55
-20.04 -1.44 67.55
-6.2719 13.8773 67.55
-20.04 -1.44 -78.15
-6.2719 13.8773 -78.15
10.1302 -7.70577 -78.15
10.1302 -7.70577 67.55
12.414 7.46847 67.55
12.414 7.46847 -78.15
-9.69185 11.8597 -78.15
17.08 -13.76 -78.15
5.4459 -12.3226 -78.15
17.08 -13.76 67.55
-17.1195 -6.65145 67.55
-17.1195 -6.65145 -78.15
1.83097 -11.3285 -78.15
-16.5098 -4.41576 67.55
-16.5098 -4.41576 -78.15
4.82737 -15.489 -78.15
4.18563 -11.976 67.55
4.82737 -15.489 67.55
5.4459 -12.3226 67.55
-9.69185 11.8597 67.55
-12.5272 10.187 -78.15
-12.5272 10.187 67.55
1.47628 -3.58787 -78.15
3 22.24 67.55
-5.41538 -9.33577 67.55
3.80696 -4.21495 -78.15
-2.57141 23.7168 67.55
-15.0698 0.863964 -78.15
-2.57141 23.7168 -78.15
-15.24 0.24 -78.15
-15.24 0.24 67.55
-5.05373 -9.43522 78.05
-15.0698 0.863964 67.55
19.8264 -3.32367 -78.15
-19.2978 1.31657 -78.15
-4.76308 14.7674 67.55
-4.76308 14.7674 -78.15
-19.2978 1.31657 67.55
1.98629 8.80543 -78.15
-9.93864 -8.5399 -78.15
-19.4763 0.653771 67.55
-19.1259 1.95527 67.55
16.5152 2.83377 67.55
16.5152 2.83377 -78.15
-21.1572 -5.58959 -78.15
-21.1572 -5.58959 67.55
13.0529 -12.6448 -78.15
2.18227 -17.0413 67.55
2.18227 -17.0413 -78.15
-0.968276 -21.4058 67.55
-14.44 -16.88 -78.15
11.2883 9.59459 -78.15
13.4863 5.44306 67.55
-19.4763 0.653771 -78.15
11.2883 9.59459 67.55
-14.44 -16.88 67.55
17.8566 -2.81151 -78.15
9.84294 12.3246 67.55
17.8566 -2.81151 67.55
1.01531 -11.7977 76.85
6.52211 -0.405263 -78.15
19.8264 -3.32367 67.55
9.84294 12.3246 -78.15
0.0017073 1.32072 -78.15
-1.11495 -2.89068 -78.15
5.41538 -4.64771 -78.15
-16.0141 13.5132 -78.15
4  739 645 638 637  255 0 0
4  739 651 652 697  255 0 0
6  739 637 662 130 570 651  255 0 0
6  738 493 490 713 131 127  255 0 0
7  738 645 739 697 700 740 735  255 0 0
4  738 127 638 645  255 0 0
10  713 632 631 482 653 711 676 159 147 131  255 38 0
5  713 490 489 597 636  255 0 0
4  713 566 634 632  255 38 0
4  671 702 707 716  255 76 0
4  671 709 704 702  255 76 0
4  671 716 712 709  255 76 0
4  728 709 712 715  255 76 0
4  728 675 557 556  255 76 0
5  728 556 554 704 709  255 76 0
4  728 715 673 675  255 76 0
7  740 700 687 143 5 496 494  255 0 0
5  740 82 68 81 735  255 0 0
4  741 459 461 672  255 114 0
4  740 494 83 82  255 0 0
4  536 665 695 538  255 114 0
4  536 511 471 473  50 0 255
5  536 538 456 455 511  50 0 255
6  741 456 538 695 460 459  255 114 0
4  741 672 457 456  255 114 0
5  735 492 491 493 738  255 0 0
4  735 81 80 492  255 0 0
4  715 562 559 673  255 76 0
4  82 315 95 68  0 140 255
4  82 83 333 315  0 140 255
3  681 147 159  12 0 255
4  681 159 160 694  12 0 255
6  723 120 121 533 193 624  89 0 255
5  723 516 550 552 499  89 0 255
5  722 517 64 525 625  89 0 255
5  723 624 62 63 516  89 0 255
6  722 625 195 534 125 124  89 0 255
4  719 557 559 720  0 25 255
4  654 155 151 656  0 63 255
4  656 575 576 654  0 63 255
3  656 151 150  0 63 255
5  720 559 562 688 685  0 25 255
5  719 686 689 556 557  0 25 255
4  720 685 686 719  0 25 255
6  654 576 574 153 141 154  0 63 255
4  716 707 705 712  255 76 0
5  715 712 705 555 562  255 76 0
6  133 400 629 630 620 65  255 191 0
5  133 56 54 162 148  255 229 0
8  133 65 491 492 136 135 134 56  255 0 0
4  713 636 567 566  255 0 0
6  140 67 623 633 112 402  255 191 0
4  536 641 666 665  255 114 0
4  536 473 643 641  255 114 0
4  726 148 162 680  255 191 0
4  729 679 163 149  255 191 0
4  726 680 679 729  255 191 0
5  708 617 48 50 731  165 0 255
3  731 50 51  165 0 255
4  736 618 617 708  165 0 255
5  733 53 49 618 736  165 0 255
4  736 708 731 733  165 0 255
5  700 697 652 585 687  255 0 0
5  625 526 528 194 195  89 0 255
3  624 61 62  89 0 255
5  624 193 192 60 61  89 0 255
5  564 584 60 58 446  255 153 0
7  565 583 526 525 724 466 465  255 153 0
5  565 445 59 528 583  255 153 0
4  564 446 445 565  255 153 0
10  566 132 146 160 674 710 658 483 635 634  255 38 0
3  694 160 146  12 0 255
8  690 497 683 144 657 114 116 122  203 255 0
3  692 498 521  203 255 0
3  690 520 497  203 255 0
4  692 521 520 690  203 255 0
5  682 450 449 42 44  204 0 255
3  37 579 577  127 255 0
4  37 467 40 41  242 0 255
4  684 451 450 682  204 0 255
4  36 468 467 37  242 0 255
4  36 580 527 38  127 255 0
3  36 578 580  127 255 0
5  684 45 46 452 451  204 0 255
4  684 682 44 45  204 0 255
4  37 577 578 36  127 255 0
5  681 541 544 158 147  12 0 255
4  681 694 543 541  12 0 255
3  635 483 28  89 255 0
3  631 27 482  89 255 0
4  635 28 27 631  89 255 0
4  676 711 710 674  255 38 0
4  674 160 159 676  255 38 0
4  24 26 703 610  255 0 191
4  25 29 509 508  89 255 0
4  24 507 510 26  89 255 0
4  25 508 507 24  89 255 0
4  669 663 9 598  51 255 0
4  670 664 663 669  51 255 0
4  591 155 154 592  12 255 0
4  591 587 589 593  12 255 0
4  593 151 155 591  12 255 0
4  593 589 590 594  12 255 0
4  670 599 11 664  51 255 0
4  670 669 598 599  51 255 0
7  589 387 412 523 524 714 590  12 255 0
4  587 591 592 588  12 255 0
4  587 642 387 589  12 255 0
4  663 646 431 9  51 255 0
4  664 647 646 663  51 255 0
4  664 11 432 647  51 255 0
6  566 488 76 75 126 132  255 0 0
5  694 146 161 547 543  12 0 255
4  472 696 668 473  255 114 0
4  737 14 15 615  255 0 152
3  737 182 183  255 0 152
6  732 181 112 633 558 614  255 0 152
6  737 615 560 630 629 182  255 0 152
4  732 614 22 23  255 0 152
5  65 489 490 493 491  255 0 0
3  67 66 623  0 102 255
6  615 16 17 479 561 560  255 0 152
3  614 21 22  255 0 152
6  614 558 563 478 20 21  255 0 152
3  65 620 489  0 102 255
4  722 124 117 500  89 0 255
4  659 485 484 655  12 255 0
5  659 570 130 714 524  12 255 0
5  655 484 487 522 398  12 255 0
4  655 571 570 659  12 255 0
5  659 524 523 486 485  12 255 0
6  656 150 142 152 573 575  0 63 255
4  655 398 699 571  12 255 0
3  654 154 155  0 63 255
4  651 570 569 652  255 0 0
4  652 569 582 585  255 0 0
4  421 88 87 650  255 0 0
5  421 571 699 90 89  255 0 0
4  650 572 571 421  255 0 0
6  650 87 86 626 628 586  255 0 0
3  522 487 432  0 255 63
7  522 411 642 587 588 453 398  12 255 0
5  523 412 8 9 431  0 255 63
5  522 432 11 10 411  0 255 63
3  523 431 486  0 255 63
4  647 432 431 646  51 255 0
4  473 668 667 643  255 114 0
4  643 667 666 641  255 114 0
4  637 434 152 662  0 255 102
4  454 433 434 637  0 255 102
4  454 72 207 422  255 0 0
4  639 73 72 454  255 0 0
4  454 637 638 639  255 0 0
6  548 595 16 15 515 542  0 255 25
5  549 596 20 19 481  0 255 25
4  636 597 568 567  255 0 0
5  548 480 18 17 595  0 255 25
4  549 481 480 548  0 255 25
5  148 726 399 400 133  255 191 0
5  621 475 474 518 463  255 153 0
4  622 476 475 621  255 153 0
5  622 466 724 477 476  255 153 0
3  625 525 526  89 0 255
4  622 621 463 466  255 153 0
4  619 435 607 608  242 255 0
4  619 107 106 616  242 255 0
3  616 436 718  242 255 0
3  616 106 108  242 255 0
3  619 717 435  242 255 0
4  619 616 718 717  242 255 0
4  618 49 48 617  165 0 255
3  615 15 16  255 0 152
4  170 390 391 171  255 0 76
6  170 168 496 5 4 390  255 0 76
4  171 172 403 406  255 0 229
7  171 391 6 7 379 495 172  255 0 76
4  170 404 405 168  255 0 229
4  36 38 39 468  242 0 255
4  37 41 529 579  127 255 0
4  171 406 404 170  255 0 229
4  612 701 29 25  255 0 191
4  610 703 701 612  255 0 191
4  25 24 610 612  255 0 191
3  115 687 585  203 255 0
4  115 121 120 114  0 255 178
4  119 125 121 115  0 255 178
5  119 628 627 660 118  203 255 0
3  119 586 628  203 255 0
4  650 586 581 572  255 0 0
4  119 115 585 586  203 255 0
5  149 140 402 401 729  255 191 0
8  732 23 13 604 470 111 109 180  255 0 152
8  737 183 113 110 469 603 12 14  255 0 152
3  732 180 181  255 0 152
4  729 401 399 726  255 191 0
4  603 469 470 604  255 0 152
4  601 503 502 514  0 255 25
4  601 23 22 513  0 255 25
3  514 14 12  0 255 25
4  514 502 501 515  0 255 25
3  601 13 23  0 255 25
4  604 13 12 603  255 0 152
4  514 12 13 601  0 255 25
4  66 568 597 489  255 0 0
4  620 630 633 623  255 191 0
4  623 66 489 620  0 102 255
4  26 27 512 703  255 0 191
3  711 653 510  0 255 216
5  29 28 483 658 509  89 255 0
5  26 510 653 482 27  89 255 0
3  710 509 658  0 255 216
4  710 711 510 509  0 255 216
4  723 499 116 120  89 0 255
8  692 123 117 118 660 691 693 498  203 255 0
5  722 500 553 551 517  89 0 255
4  692 690 122 123  203 255 0
3  733 52 53  165 0 255
4  733 731 51 52  165 0 255
4  165 444 443 164  127 0 255
4  164 0 2 388  255 0 38
7  164 443 54 56 134 419 0  127 0 255
4  616 108 613 436  242 255 0
4  165 389 3 1  255 0 38
3  619 608 107  242 255 0
4  164 388 389 165  255 0 38
3  596 21 20  0 255 25
6  596 549 540 513 22 21  0 255 25
3  595 17 16  0 255 25
4  594 150 151 593  12 255 0
6  594 590 714 130 142 150  12 255 0
6  592 154 141 129 453 588  12 255 0
4  586 585 582 581  255 0 0
4  572 581 582 569  255 0 0
3  584 61 60  255 153 0
7  584 564 464 463 518 62 61  255 153 0
3  583 528 526  255 153 0
4  579 602 606 577  127 255 0
5  580 605 600 677 527  127 255 0
4  577 606 721 578  127 255 0
4  578 721 605 580  127 255 0
4  572 569 570 571  255 0 0
4  81 264 265 80  0 140 255
5  140 57 380 392 67  255 0 0
6  66 67 392 77 76 488  255 0 0
5  568 66 488 566 567  255 0 0
4  565 465 464 564  255 153 0
4  558 633 630 560  255 0 152
4  561 479 478 563  255 0 152
4  563 558 560 561  255 0 152
3  499 122 116  89 0 255
4  552 550 551 553  89 0 255
4  500 123 122 499  89 0 255
4  500 499 552 553  89 0 255
4  551 550 516 517  89 0 255
4  549 548 542 540  0 255 25
4  540 539 504 513  0 255 25
4  515 501 537 542  0 255 25
4  515 15 14 514  0 255 25
4  542 537 539 540  0 255 25
4  513 504 503 601  0 255 25
4  539 537 501 504  0 255 25
4  533 121 125 534  89 0 255
4  534 195 194 535  89 0 255
4  532 192 193 533  89 0 255
4  535 194 192 532  89 0 255
4  535 532 533 534  89 0 255
4  530 395 396 531  165 255 0
4  531 396 47 648  165 255 0
6  41 40 35 34 448 529  127 255 0
6  38 527 447 30 31 39  127 255 0
4  530 649 43 395  165 255 0
4  531 648 649 530  165 255 0
4  168 169 494 496  255 0 76
5  172 173 34 35 403  255 0 229
5  168 405 31 30 169  255 0 229
4  40 39 31 35  127 255 0
5  529 678 105 602 579  127 255 0
3  527 677 447  127 255 0
3  529 448 678  127 255 0
4  398 453 129 699  12 255 0
4  521 498 497 520  203 255 0
4  519 106 107 727  0 255 255
5  437 441 108 106 519  0 255 255
5  727 107 608 442 438  0 255 255
7  438 442 430 363 167 1 3  0 255 255
4  727 438 437 519  0 255 255
4  725 598 9 8  255 0 114
4  730 599 598 725  255 0 114
4  8 640 644 10  0 255 63
4  10 11 599 730  255 0 114
4  10 644 642 411  0 255 63
4  730 725 8 10  255 0 114
4  724 525 64 477  255 153 0
4  518 474 63 62  255 153 0
4  517 516 63 64  89 0 255
5  436 408 50 48 718  242 255 0
5  717 49 53 410 435  242 255 0
4  718 48 49 717  242 255 0
5  435 410 409 609 607  242 255 0
8  165 1 418 138 139 57 55 444  127 0 255
5  149 163 55 57 140  255 229 0
4  127 156 157 128  0 216 255
4  128 74 73 639  255 0 0
6  128 157 161 146 132 126  0 216 255
4  639 638 127 128  255 0 0
4  701 698 28 29  255 0 191
4  703 512 698 701  255 0 191
4  698 512 27 28  255 0 191
6  689 381 575 573 554 556  0 25 255
4  685 383 382 686  0 25 255
4  688 384 383 685  0 25 255
6  688 562 555 574 576 384  0 25 255
4  686 382 381 689  0 25 255
4  163 679 680 162  255 191 0
4  80 79 136 492  255 0 0
4  134 135 415 419  127 0 255
5  1 167 416 414 418  127 0 255
7  0 166 364 427 441 437 2  0 255 255
7  138 137 78 77 392 380 139  255 0 0
5  0 419 415 417 166  127 0 255
4  138 418 414 137  127 0 255
6  672 461 462 696 472 457  255 114 0
4  511 455 458 471  50 0 255
5  50 408 407 439 51  242 255 0
4  509 510 507 508  89 255 0
5  665 545 544 460 695  255 114 0
4  668 546 545 665  255 114 0
4  668 665 666 667  255 114 0
4  506 393 51 439  242 255 0
4  505 394 393 506  242 255 0
4  440 52 394 505  242 255 0
4  440 505 506 439  242 255 0
4  504 501 502 503  0 255 25
4  118 124 125 119  0 255 178
3  114 120 116  0 255 178
5  114 657 143 687 115  203 255 0
3  118 117 124  0 255 178
3  500 117 123  89 0 255
4  7 627 628 626  255 0 0
4  5 143 144 4  0 255 140
4  7 6 691 627  0 255 140
4  498 693 683 497  203 255 0
4  495 83 173 172  255 0 76
5  495 379 84 70 83  255 0 0
5  173 423 426 33 34  255 0 229
4  169 424 423 173  255 0 229
4  173 83 494 169  255 0 76
4  487 486 431 432  0 255 63
4  487 484 485 486  12 255 0
3  479 17 18  255 0 152
3  478 19 20  255 0 152
4  481 19 18 480  0 255 25
4  479 18 19 478  255 0 152
4  477 64 63 474  255 153 0
4  477 474 475 476  255 153 0
5  473 471 458 457 472  50 0 255
4  399 113 629 400  255 191 0
3  401 109 111  255 191 0
3  399 110 113  255 191 0
4  470 469 110 111  255 0 152
4  401 111 110 399  255 191 0
4  128 126 75 74  255 0 0
4  40 467 468 39  242 0 255
4  466 463 464 465  255 153 0
3  57 139 380  255 0 0
4  163 162 54 55  255 229 0
4  460 541 543 462  255 114 0
3  462 543 547  255 114 0
4  461 459 460 462  255 114 0
4  458 455 456 457  50 0 255
5  166 360 359 428 364  0 255 255
4  167 361 360 166  0 255 255
4  79 137 414 416  127 0 255
4  79 80 265 323  0 140 255
4  136 417 415 135  127 0 255
4  167 166 417 416  127 0 255
4  79 416 417 136  127 0 255
4  454 422 153 433  0 255 102
3  452 46 47  204 0 255
4  452 449 450 451  204 0 255
4  448 33 32 447  127 255 0
3  447 32 30  127 255 0
3  448 34 33  127 255 0
5  169 30 32 425 424  255 0 229
3  194 528 59  89 0 255
3  192 58 60  89 0 255
4  194 59 58 192  89 0 255
4  446 58 59 445  255 153 0
4  55 54 443 444  127 0 255
5  131 147 158 156 127  0 216 255
4  442 608 607 430  0 255 255
5  440 409 410 53 52  242 255 0
4  441 427 613 108  0 255 255
4  440 439 407 409  242 255 0
4  438 3 2 437  0 255 255
3  427 611 613  0 255 255
4  430 609 611 427  0 255 255
5  436 613 611 407 408  242 255 0
3  430 607 609  0 255 255
5  429 362 361 167 363  0 255 255
4  428 359 362 429  0 255 255
4  430 427 364 363  0 255 255
4  429 363 364 428  0 255 255
4  425 32 33 426  255 0 229
4  426 423 424 425  255 0 229
4  69 72 206 93  0 140 255
4  422 129 141 153  0 255 102
7  422 207 420 91 90 699 129  255 0 0
3  420 92 91  255 0 0
5  420 207 72 69 92  255 0 0
3  421 89 88  255 0 0
4  137 79 71 78  255 0 0
4  373 371 370 372  0 178 255
4  413 661 371 373  0 178 255
4  413 260 261 661  0 178 255
6  413 373 200 201 366 260  0 178 255
5  374 397 339 201 200  0 178 255
4  412 387 640 8  0 255 63
4  339 397 76 77  0 140 255
4  372 370 241 240  0 178 255
4  378 386 385 348  0 178 255
6  397 374 372 240 239 329  0 178 255
4  378 376 329 386  0 178 255
4  407 611 609 409  242 255 0
4  377 347 351 353  0 178 255
4  353 351 350 352  0 178 255
4  377 353 206 94  0 178 255
4  94 206 72 73  0 140 255
4  403 35 31 405  255 0 229
4  406 403 405 404  255 0 229
6  326 325 197 196 202 342  0 178 255
6  369 202 196 242 241 370  0 178 255
4  348 385 196 197  0 178 255
4  662 152 142 130  0 255 102
4  704 554 555 705  255 76 0
4  707 702 704 705  255 76 0
4  153 574 573 152  0 63 255
4  153 152 434 433  0 255 102
5  696 462 547 546 668  255 114 0
4  156 545 546 157  12 0 255
4  157 546 547 161  12 0 255
4  156 158 544 545  12 0 255
3  460 544 541  255 114 0
4  677 600 105 678  127 255 0
4  448 447 677 678  127 255 0
4  673 559 557 675  255 76 0
4  81 68 95 264  0 140 255
4  259 101 102 375  0 178 255
4  101 87 88 102  0 140 255
4  402 112 109 401  255 191 0
4  91 233 104 90  0 140 255
4  386 328 327 385  0 178 255
5  386 329 239 289 328  0 178 255
4  397 329 75 76  0 140 255
4  329 376 74 75  0 140 255
5  626 85 84 379 7  255 0 0
3  626 86 85  255 0 0
6  661 261 358 199 198 371  0 178 255
5  369 198 199 203 202  0 178 255
4  342 202 203 262  0 178 255
4  191 368 145 188  0 178 255
7  375 103 104 268 235 145 368  0 178 255
4  233 91 92 232  0 140 255
3  6 693 691  0 255 140
4  4 683 693 6  0 255 140
3  660 627 691  203 255 0
3  657 144 143  203 255 0
3  4 144 683  0 255 140
5  649 600 605 42 43  165 255 0
4  648 105 600 649  165 255 0
3  449 43 42  204 0 255
5  648 47 46 602 105  165 255 0
4  452 47 43 449  204 0 255
4  396 395 43 47  165 255 0
4  394 52 51 393  242 255 0
4  352 350 256 255  0 178 255
5  233 231 205 331 104  0 178 255
4  79 323 98 71  0 140 255
4  391 390 4 6  255 0 76
4  389 388 2 3  255 0 38
7  252 288 321 100 101 259 226  0 178 255
4  69 93 232 92  0 140 255
4  644 640 387 642  0 255 63
3  375 102 103  0 178 255
6  274 251 343 297 300 275  0 178 255
5  344 237 332 204 349  0 178 255
4  635 631 632 634  255 38 0
4  252 234 223 222  0 178 255
4  83 70 96 333  0 140 255
4  237 271 270 332  0 178 255
4  104 331 269 268  0 178 255
4  346 299 184 185  0 178 255
4  347 185 184 351  0 178 255
4  104 103 89 90  0 140 255
4  101 100 86 87  0 140 255
4  323 280 338 98  0 178 255
3  306 365 318  0 178 255
8  366 201 339 338 280 319 318 365  0 178 255
7  343 367 706 236 271 237 238  0 178 255
3  344 238 237  0 178 255
4  190 189 706 367  0 178 255
5  385 327 290 242 196  0 178 255
4  384 576 575 381  0 25 255
4  384 381 382 383  0 25 255
4  234 252 228 227  0 178 255
7  305 286 234 225 251 274 273  0 178 255
5  331 254 355 354 269  0 178 255
4  332 253 256 204  0 178 255
5  332 270 357 356 253  0 178 255
4  103 102 88 89  0 140 255
3  321 99 100  0 178 255
6  244 276 275 300 345 325  0 178 255
6  322 337 97 99 321 287  0 178 255
5  333 96 97 337 336  0 178 255
4  99 97 84 85  0 140 255
4  345 300 299 346  0 178 255
4  347 377 378 348  0 178 255
4  376 378 377 94  0 178 255
4  376 94 73 74  0 140 255
4  214 259 375 368  0 178 255
4  374 200 373 372  0 178 255
4  371 198 369 370  0 178 255
6  214 368 191 187 340 210  0 178 255
6  212 211 341 186 190 367  0 178 255
5  243 314 312 276 244  0 178 255
4  251 212 367 343  0 178 255
4  99 85 86 100  0 140 255
5  366 365 306 174 260  0 178 255
4  96 70 84 97  0 140 255
8  178 317 279 263 262 203 199 358  0 178 255
4  362 359 360 361  0 255 255
4  178 358 261 177  0 178 255
4  320 322 221 220  0 178 255
6  311 335 320 285 305 272  0 178 255
4  254 331 205 255  0 178 255
4  253 356 355 254  0 178 255
4  357 270 269 354  0 178 255
4  357 354 355 356  0 178 255
5  232 93 206 205 231  0 178 255
5  206 353 352 255 205  0 178 255
5  299 298 349 204 184  0 178 255
5  351 184 204 256 350  0 178 255
7  325 345 346 185 347 348 197  0 178 255
5  297 343 238 344 298  0 178 255
4  262 245 326 342  0 178 255
4  340 187 186 341  0 178 255
4  341 211 210 340  0 178 255
4  77 78 338 339  0 140 255
4  338 78 71 98  0 140 255
4  324 304 278 277  0 178 255
5  324 277 218 280 323  0 178 255
5  319 280 218 217 302  0 178 255
4  304 324 266 258  0 178 255
5  317 303 216 219 279  0 178 255
5  263 279 219 278 304  0 178 255
4  322 320 310 309  0 178 255
7  336 337 322 309 308 249 284  0 178 255
6  335 283 250 307 310 320  0 178 255
4  334 330 313 316  0 178 255
4  334 282 281 330  0 178 255
6  334 333 336 284 248 282  0 178 255
6  330 281 247 283 335 311  0 178 255
4  316 313 291 296  0 178 255
4  334 316 315 333  0 178 255
3  250 283 247  0 178 255
4  250 249 308 307  0 178 255
4  313 330 311 312  0 178 255
4  328 289 290 327  0 178 255
4  245 244 325 326  0 178 255
4  266 324 323 265  0 178 255
6  322 287 288 252 222 221  0 178 255
3  321 288 287  0 178 255
6  320 220 223 234 286 285  0 178 255
3  305 285 286  0 178 255
5  319 302 301 306 318  0 178 255
4  178 179 303 317  0 178 255
4  216 303 302 217  0 178 255
4  296 291 293 295  0 178 255
5  316 296 294 95 315  0 178 255
4  267 257 258 266  0 178 255
4  295 293 257 267  0 178 255
5  95 294 295 267 264  0 178 255
5  292 314 243 257 293  0 178 255
5  291 313 312 314 292  0 178 255
4  312 311 272 276  0 178 255
4  310 307 308 309  0 178 255
4  306 301 175 174  0 178 255
3  272 305 273  0 178 255
4  304 258 246 263  0 178 255
4  179 176 175 301  0 178 255
4  179 301 302 303  0 178 255
4  300 297 298 299  0 178 255
3  296 295 294  0 178 255
3  293 291 292  0 178 255
4  290 289 239 242  0 178 255
3  284 249 248  0 178 255
4  282 248 247 281  0 178 255
4  278 219 218 277  0 178 255
5  276 272 273 274 275  0 178 255
4  271 236 235 268  0 178 255
4  271 268 269 270  0 178 255
4  267 266 265 264  0 178 255
4  263 246 245 262  0 178 255
4  261 260 174 177  0 178 255
4  226 259 214 215  0 178 255
4  258 257 243 246  0 178 255
4  256 253 254 255  0 178 255
5  252 226 734 229 228  0 178 255
4  251 225 213 212  0 178 255
4  250 247 248 249  0 178 255
4  246 243 244 245  0 178 255
4  242 239 240 241  0 178 255
4  189 188 145 706  0 178 255
4  236 706 145 235  0 178 255
5  234 227 230 224 225  0 178 255
3  233 232 231  0 178 255
4  229 734 224 230  0 178 255
4  230 227 228 229  0 178 255
4  226 215 209 734  0 178 255
4  225 224 208 213  0 178 255
4  224 734 209 208  0 178 255
3  298 344 349  0 178 255
4  223 220 221 222  0 178 255
4  219 216 217 218  0 178 255
4  209 215 214 210  0 178 255
4  213 208 211 212  0 178 255
4  211 208 209 210  0 178 255
3  191 188 187  0 178 255
3  190 186 189  0 178 255
4  189 186 187 188  0 178 255
4  182 629 113 183  255 0 152
4  180 109 112 181  255 0 152
4  179 178 177 176  0 178 255
4  177 174 175 176  0 178 255
6  173 169 168 170 171 172  255 0 76
6  169 173 172 171 170 168  255 0 229
4  1 165 164 0  127 0 255
4  165 1 0 164  255 0 38
4  167 1 0 166  127 0 255
4  1 167 166 0  0 255 255
4  163 149 148 162  255 229 0
4  149 163 162 148  255 191 0
6  161 157 156 158 147 146  0 216 255
6  157 161 146 147 158 156  12 0 255
4  160 146 147 159  255 38 0
4  146 160 159 147  12 0 255
6  155 151 150 142 141 154  12 255 0
6  151 155 154 141 142 150  0 63 255
4  153 141 142 152  0 255 102
4  153 152 142 141  0 63 255
4  140 67 65 133  255 0 0
4  67 140 133 65  255 191 0
4  149 140 133 148  255 229 0
4  140 149 148 133  255 191 0
4  132 146 147 131  0 216 255
4  146 132 131 147  255 38 0
4  566 132 131 713  255 0 0
4  132 566 713 131  255 38 0
5  699 571 570 130 129  255 0 0
5  571 699 129 130 570  12 255 0
4  141 129 130 142  0 255 102
4  129 141 142 130  12 255 0
6  693 683 144 143 627 691  0 255 140
6  683 693 691 627 143 144  203 255 0
6  628 627 143 687 585 586  255 0 0
6  627 628 586 585 687 143  203 255 0
7  83 494 496 5 7 379 495  255 0 0
7  494 83 495 379 7 5 496  255 0 76
4  627 7 5 143  255 0 0
4  7 627 143 5  0 255 140
4  140 133 56 57  255 0 0
4  133 140 57 56  255 229 0
9  139 57 56 134 135 136 79 137 138  255 0 0
9  57 139 138 137 79 136 135 134 56  127 0 255
5  128 127 131 132 126  255 0 0
5  127 128 126 132 131  0 216 255
6  129 130 662 637 454 422  255 0 0
6  130 129 422 454 637 662  0 255 102
6  483 658 653 482 631 635  255 38 0
4  710 658 653 711  0 255 216
6  483 635 631 482 653 658  89 255 0
4  711 653 658 710  255 38 0
4  658 653 510 509  89 255 0
4  653 658 509 510  0 255 216
6  125 121 120 116 117 124  89 0 255
6  121 125 124 117 116 120  0 255 178
4  123 117 116 122  89 0 255
4  117 123 122 116  203 255 0
6  119 115 114 116 117 118  0 255 178
6  115 119 118 117 116 114  203 255 0
8  111 110 113 629 630 633 112 109  255 0 152
8  110 111 109 112 633 630 629 113  255 191 0
4  623 67 65 620  255 191 0
4  67 623 620 65  0 102 255
8  608 107 106 108 613 611 609 607  0 255 255
8  107 608 607 609 611 613 108 106  242 255 0
4  602 46 45 606  165 255 0
4  606 45 44 721  165 255 0
4  721 44 42 605  165 255 0
6  105 600 605 721 606 602  127 255 0
6  600 105 602 606 721 605  165 255 0
8  487 486 523 412 387 642 411 522  12 255 0
8  486 487 522 411 642 387 412 523  0 255 63
4  432 431 9 11  0 255 63
4  431 432 11 9  51 255 0
4  599 11 9 598  255 0 114
4  11 599 598 9  51 255 0
7  96 97 98 323 265 264 95  0 140 255
7  97 96 95 264 265 323 98  0 178 255
4  333 96 95 315  0 140 255
4  96 333 315 95  0 178 255
9  338 98 97 93 94 376 329 397 339  0 140 255
9  98 338 339 397 329 376 94 93 97  0 178 255
3  206 94 93  0 140 255
3  94 206 93  0 178 255
10  232 93 97 99 100 101 102 103 104 233  0 140 255
10  93 232 233 104 103 102 101 100 99 97  0 178 255
7  69 72 71 79 80 81 68  255 0 0
7  72 69 68 81 80 79 71  0 140 255
11  92 69 70 84 85 86 87 88 89 90 91  255 0 0
11  69 92 91 90 89 88 87 86 85 84 70  0 140 255
5  83 70 69 68 82  255 0 0
5  70 83 82 68 69  0 140 255
8  78 71 72 73 74 75 76 77  255 0 0
8  71 78 77 76 75 74 73 72  0 140 255
4  67 66 489 65  255 0 0
4  66 67 65 489  0 102 255
4  574 555 554 573  0 25 255
4  576 574 573 575  0 25 255
4  574 576 575 573  0 63 255
6  562 555 554 556 557 559  255 76 0
6  555 562 559 557 556 554  0 25 255
6  547 543 541 544 545 546  255 114 0
6  543 547 546 545 544 541  12 0 255
6  472 473 536 538 456 457  255 114 0
6  473 472 457 456 538 536  50 0 255
10  528 59 58 60 61 62 63 64 525 526  255 153 0
10  59 528 526 525 64 63 62 61 60 58  89 0 255
4  57 55 54 56  255 229 0
4  55 57 56 54  127 0 255
6  53 49 48 50 51 52  242 255 0
6  49 53 52 51 50 48  165 0 255
6  47 43 42 44 45 46  165 255 0
6  43 47 46 45 44 42  204 0 255
6  41 37 36 38 39 40  127 255 0
6  37 41 40 39 38 36  242 0 255
6  35 31 30 32 33 34  127 255 0
6  31 35 34 33 32 30  255 0 229
6  29 25 24 26 27 28  89 255 0
6  25 29 28 27 26 24  255 0 191
12  23 13 12 14 15 16 17 18 19 20 21 22  0 255 25
12  13 23 22 21 20 19 18 17 16 15 14 12  255 0 152
4  11 9 8 10  0 255 63
4  9 11 10 8  255 0 114
4  7 5 4 6  0 255 140
4  5 7 6 4  255 0 76
4  3 1 0 2  0 255 255
4  1 3 2 0  255 0 38

