OFF
294 469 0
831724 816200 214.7 
831723.28 816201.28 214.7 
831721.6 816200.32 214.7 
831723.6 816207.76 214.7 
831724.48 816206.08 214.7 
831726.24 816207.04 214.7 
831726.56 816205.28 214.7 
831732 816203.84 214.7 
831732.24 816204.8 214.7 
831727.04 816206.88 214.7 
831734.88 816204.16 214.7 
831736.08 816208.64 214.7 
831730.96 816210 214.7 
831730 816209.44 214.7 
831729.52 816210.4 214.7 
831728.4 816212.48 214.7 
831725.44 816211.04 214.7 
831721.84 816208.16 214.7 
831724.4 816212.96 214.7 
831727.28 816214.48 214.7 
831726.16 816216.64 214.7 
831726.56 816218 214.7 
831727.92 816223.28 214.7 
831725.6 816223.92 214.7 
831726.16 816226.16 214.7 
831722.4 816227.2 214.7 
831720.96 816221.84 214.7 
831721.84 816221.6 214.7 
831721.2 816219.04 214.7 
831722.8 816218.64 214.7 
831725.68 816217.52 214.7 
831722.08 816215.76 214.7 
831720 816214.56 214.7 
831716.8 816215.44 214.7 
831719.6 816225.92 214.7 
831717.28 816226.56 214.7 
831717.92 816229.28 214.7 
831711.28 816231.04 214.7 
831710.24 816227.04 214.7 
831711.36 816226.72 214.7 
831710.4 816222.8 214.7 
831710.72 816222.16 214.7 
831710.08 816221.76 214.7 
831704.08 816219.2 214.7 
831698.88 816220.56 214.7 
831697.76 816216.4 214.7 
831704.48 816218.48 214.7 
831697.28 816216.48 214.7 
831696.32 816212.8 214.7 
831700.8 816211.6 214.7 
831701.04 816212.48 214.7 
831705.04 816211.44 214.7 
831705.2 816218.88 214.7 
831704.88 816210.88 214.7 
831707.92 816210.08 214.7 
831719.92 816200.8 214.7 
831706.8 816206.08 214.7 
831703.84 816206.88 214.7 
831703.6 816206.24 214.7 
831699.68 816207.28 214.7 
831699.92 816208.16 214.7 
831695.36 816209.44 214.7 
831694.4 816205.76 214.7 
831694.88 816205.6 214.7 
831693.76 816201.44 214.7 
831695.04 816201.12 214.7 
831698.96 816200.08 214.7 
831699.68 816200.48 214.7 
831699.92 816200 214.7 
831700.08 816199.76 214.7 
831702.96 816194.88 214.7 
831703.28 816194.16 214.7 
831702.64 816193.76 214.7 
831701.6 816189.92 214.7 
831700.48 816190.16 214.7 
831699.36 816186.16 214.7 
831706 816184.4 214.7 
831706.72 816187.04 214.7 
831709.12 816186.48 214.7 
831711.92 816197.04 214.7 
831715.12 816196.16 214.7 
831715.52 816191.28 214.7 
831713.92 816191.68 214.7 
831713.2 816189.2 214.7 
831712.4 816189.36 214.7 
831710.88 816184 214.7 
831714.72 816183.04 214.7 
831715.28 816185.28 214.7 
831717.68 816184.64 214.7 
831719.04 816189.92 214.7 
831718.48 816190.88 214.7 
831716.32 816194.16 214.7 
831719.52 816191.44 214.7 
831721.52 816192.64 214.7 
831719.92 816195.52 214.7 
831721.92 816196.64 214.7 
831723.52 816193.76 214.7 
831725.68 816195.04 214.7 
831732 816193.28 214.7 
831733.2 816197.84 214.7 
831730.64 816198.48 214.7 
831726.8 816194.72 214.7 
831726.4 816195.44 214.7 
831730.88 816199.6 214.7 
831729.12 816200 214.7 
831725.44 816201.04 214.7 
831725.2 816200 214.7 
831725.04 816199.28 214.7 
831724.24 816199.6 214.7 
831719.6 816225.92 69.10000914 
831717.28 816226.56 69.10000914 
831717.92 816229.28 69.10000914 
831711.28 816231.04 69.10000914 
831710.24 816227.04 69.10000914 
831711.36 816226.72 69.10000914 
831710.4 816222.8 69.10000914 
831710.72 816222.16 69.10000914 
831704.48 816218.48 69.10000914 
831710.08 816221.76 69.10000914 
831705.2 816218.88 69.10000914 
831704.08 816219.2 69.10000914 
831698.88 816220.56 69.10000914 
831697.76 816216.4 69.10000914 
831697.28 816216.48 69.10000914 
831696.32 816212.8 69.10000914 
831700.8 816211.6 69.10000914 
831701.04 816212.48 69.10000914 
831705.04 816211.44 69.10000914 
831704.88 816210.88 69.10000914 
831707.92 816210.08 69.10000914 
831706.8 816206.08 69.10000914 
831703.84 816206.88 69.10000914 
831703.6 816206.24 69.10000914 
831699.68 816207.28 69.10000914 
831699.92 816208.16 69.10000914 
831695.36 816209.44 69.10000914 
831694.4 816205.76 69.10000914 
831694.88 816205.6 69.10000914 
831693.76 816201.44 69.10000914 
831698.96 816200.08 69.10000914 
831695.04 816201.12 69.10000914 
831699.68 816200.48 69.10000914 
831703.28 816194.16 69.10000914 
831699.92 816200 69.10000914 
831700.08 816199.76 69.10000914 
831702.96 816194.88 69.10000914 
831702.64 816193.76 69.10000914 
831701.6 816189.92 69.10000914 
831700.48 816190.16 69.10000914 
831699.36 816186.16 69.10000914 
831706 816184.4 69.10000914 
831706.72 816187.04 69.10000914 
831709.12 816186.48 69.10000914 
831711.92 816197.04 69.10000914 
831715.12 816196.16 69.10000914 
831716.32 816194.16 69.10000914 
831715.52 816191.28 69.10000914 
831713.92 816191.68 69.10000914 
831713.2 816189.2 69.10000914 
831712.4 816189.36 69.10000914 
831710.88 816184 69.10000914 
831714.72 816183.04 69.10000914 
831715.28 816185.28 69.10000914 
831717.68 816184.64 69.10000914 
831719.04 816189.92 69.10000914 
831718.48 816190.88 69.10000914 
831721.52 816192.64 69.10000914 
831719.52 816191.44 69.10000914 
831719.92 816195.52 69.10000914 
831721.92 816196.64 69.10000914 
831723.52 816193.76 69.10000914 
831726.4 816195.44 69.10000914 
831725.68 816195.04 69.10000914 
831726.8 816194.72 69.10000914 
831732 816193.28 69.10000914 
831733.2 816197.84 69.10000914 
831730.64 816198.48 69.10000914 
831730.88 816199.6 69.10000914 
831725.44 816201.04 69.10000914 
831729.12 816200 69.10000914 
831725.04 816199.28 69.10000914 
831725.2 816200 69.10000914 
831724.24 816199.6 69.10000914 
831723.28 816201.28 69.10000914 
831724 816200 69.10000914 
831721.6 816200.32 69.10000914 
831719.92 816200.8 69.10000914 
831721.84 816208.16 69.10000914 
831723.6 816207.76 69.10000914 
831724.48 816206.08 69.10000914 
831726.24 816207.04 69.10000914 
831727.04 816206.88 69.10000914 
831726.56 816205.28 69.10000914 
831732 816203.84 69.10000914 
831732.24 816204.8 69.10000914 
831734.88 816204.16 69.10000914 
831736.08 816208.64 69.10000914 
831730.96 816210 69.10000914 
831730 816209.44 69.10000914 
831728.4 816212.48 69.10000914 
831729.52 816210.4 69.10000914 
831725.44 816211.04 69.10000914 
831724.4 816212.96 69.10000914 
831727.28 816214.48 69.10000914 
831725.68 816217.52 69.10000914 
831726.16 816216.64 69.10000914 
831726.56 816218 69.10000914 
831727.92 816223.28 69.10000914 
831725.6 816223.92 69.10000914 
831726.16 816226.16 69.10000914 
831722.4 816227.2 69.10000914 
831720.96 816221.84 69.10000914 
831721.84 816221.6 69.10000914 
831721.2 816219.04 69.10000914 
831722.8 816218.64 69.10000914 
831722.08 816215.76 69.10000914 
831720 816214.56 69.10000914 
831716.8 816215.44 69.10000914 
831711.92 816211.36 214.7 
831721.28 816209.04 214.7 
831721.44 816207.6 214.7 
831718.88 816200.24 214.7 
831710.8 816202.4 214.7 
831711.44 816204.72 214.7 
831719.04 816200.56 214.7 
831719.44 816201.04 214.7 
831719.84 816201.6 214.7 
831720 816202 214.7 
831720.24 816202.48 214.7 
831720.4 816202.8 214.7 
831721.28 816206.16 214.7 
831721.28 816206.32 214.7 
831721.36 816207.04 214.7 
831710.32 816205.04 214.7 
831721.44 816207.6 224.0000002 
831721.28 816209.04 224.0000002 
831711.92 816211.36 224.0000002 
831710.32 816205.04 224.0000002 
831711.44 816204.72 224.0000002 
831710.8 816202.4 224.0000002 
831718.88 816200.24 224.0000002 
831719.04 816200.56 224.0000002 
831719.44 816201.04 224.0000002 
831719.84 816201.6 224.0000002 
831720 816202 224.0000002 
831720.24 816202.48 224.0000002 
831720.4 816202.8 224.0000002 
831721.28 816206.16 224.0000002 
831721.28 816206.32 224.0000002 
831721.36 816207.04 224.0000002 
831718.72 816196.48 224.0000002 
831716.24 816195.2 224.0000002 
831713.36 816195.6 224.0000002 
831711.12 816196.56 224.0000002 
831707.92 816209.04 224.0000002 
831709.04 816212.48 224.0000002 
831711.28 816215.04 224.0000002 
831713.84 816216.24 224.0000002 
831716.48 816216.48 224.0000002 
831718.88 816215.92 224.0000002 
831721.36 816214.8 224.0000002 
831723.28 816212.48 224.0000002 
831723.92 816209.44 224.0000002 
831723.76 816206.4 224.0000002 
831723.36 816204.48 224.0000002 
831722.8 816202.56 224.0000002 
831707.2 816206 224.0000002 
831707.28 816202.56 224.0000002 
831708.24 816199.92 224.0000002 
831721.6 816199.6 224.0000002 
831709.68 816197.76 224.0000002 
831720.64 816197.92 224.0000002 
831711.28 816215.04 225.2 
831709.04 816212.48 225.2 
831707.92 816209.04 225.2 
831713.36 816195.6 225.2 
831716.24 816195.2 225.2 
831718.72 816196.48 225.2 
831711.12 816196.56 225.2 
831720.64 816197.92 225.2 
831721.6 816199.6 225.2 
831709.68 816197.76 225.2 
831708.24 816199.92 225.2 
831722.8 816202.56 225.2 
831707.28 816202.56 225.2 
831707.2 816206 225.2 
831723.36 816204.48 225.2 
831723.76 816206.4 225.2 
831723.92 816209.44 225.2 
831723.28 816212.48 225.2 
831721.36 816214.8 225.2 
831718.88 816215.92 225.2 
831716.48 816216.48 225.2 
831713.84 816216.24 225.2 
3 0 1 2
3 3 4 5
3 6 7 8
3 9 6 8
3 8 10 11
3 8 11 12
3 8 12 13
3 9 8 13
3 9 13 14
3 14 15 16
3 9 14 16
3 5 9 16
3 3 5 16
3 17 3 16
3 17 16 18
3 18 19 20
3 21 22 23
3 23 24 25
3 25 26 27
3 23 25 27
3 27 28 29
3 23 27 29
3 21 23 29
3 30 21 29
3 30 29 31
3 20 30 31
3 18 20 31
3 18 31 32
3 17 18 32
3 17 32 33
3 33 34 35
3 35 36 37
3 37 38 39
3 35 37 39
3 39 40 41
3 35 39 41
3 33 35 41
3 33 41 42
3 43 44 45
3 46 43 45
3 45 47 48
3 48 49 50
3 45 48 50
3 46 45 50
3 46 50 51
3 52 46 51
3 51 53 54
3 52 51 54
3 42 52 54
3 33 42 54
3 17 33 54
3 55 17 54
3 55 54 56
3 56 57 58
3 59 60 61
3 61 62 63
3 59 61 63
3 63 64 65
3 65 66 67
3 63 65 67
3 59 63 67
3 58 59 67
3 58 67 68
3 58 68 69
3 56 58 69
3 56 69 70
3 71 72 73
3 73 74 75
3 75 76 77
3 73 75 77
3 71 73 77
3 77 78 79
3 71 77 79
3 70 71 79
3 56 70 79
3 55 56 79
3 55 79 80
3 81 82 83
3 83 84 85
3 85 86 87
3 83 85 87
3 81 83 87
3 87 88 89
3 81 87 89
3 81 89 90
3 91 81 90
3 91 90 92
3 92 93 94
3 91 92 94
3 80 91 94
3 55 80 94
3 55 94 95
3 2 55 95
3 95 96 97
3 98 99 100
3 101 98 100
3 102 101 100
3 100 103 104
3 102 100 104
3 104 105 106
3 104 106 107
3 102 104 107
3 97 102 107
3 95 97 107
3 95 107 108
3 2 95 108
3 0 2 108
3 34 109 110
3 110 35 34
3 35 110 111
3 111 36 35
3 36 111 112
3 112 37 36
3 37 112 113
3 113 38 37
3 38 113 114
3 114 39 38
3 39 114 115
3 115 40 39
3 40 115 116
3 116 41 40
3 117 46 52
3 41 116 118
3 42 41 118
3 42 118 119
3 52 42 119
3 117 52 119
3 46 117 120
3 120 43 46
3 43 120 121
3 121 44 43
3 44 121 122
3 122 45 44
3 45 122 123
3 123 47 45
3 47 123 124
3 124 48 47
3 48 124 125
3 125 49 48
3 49 125 126
3 126 50 49
3 50 126 127
3 127 51 50
3 51 127 128
3 128 53 51
3 53 128 129
3 129 54 53
3 54 129 130
3 130 56 54
3 56 130 131
3 131 57 56
3 57 131 132
3 132 58 57
3 58 132 133
3 133 59 58
3 59 133 134
3 134 60 59
3 60 134 135
3 135 61 60
3 61 135 136
3 136 62 61
3 62 136 137
3 137 63 62
3 63 137 138
3 138 64 63
3 139 66 65
3 64 138 140
3 65 64 140
3 139 65 140
3 66 139 141
3 141 67 66
3 142 71 70
3 67 141 143
3 68 67 143
3 68 143 144
3 69 68 144
3 69 144 145
3 70 69 145
3 142 70 145
3 71 142 146
3 146 72 71
3 72 146 147
3 147 73 72
3 73 147 148
3 148 74 73
3 74 148 149
3 149 75 74
3 75 149 150
3 150 76 75
3 76 150 151
3 151 77 76
3 77 151 152
3 152 78 77
3 78 152 153
3 153 79 78
3 79 153 154
3 154 80 79
3 80 154 155
3 155 91 80
3 91 155 156
3 156 81 91
3 81 156 157
3 157 82 81
3 82 157 158
3 158 83 82
3 83 158 159
3 159 84 83
3 84 159 160
3 160 85 84
3 85 160 161
3 161 86 85
3 86 161 162
3 162 87 86
3 87 162 163
3 163 88 87
3 88 163 164
3 164 89 88
3 89 164 165
3 165 90 89
3 166 93 92
3 90 165 167
3 92 90 167
3 166 92 167
3 93 166 168
3 168 94 93
3 94 168 169
3 169 95 94
3 95 169 170
3 170 96 95
3 171 102 97
3 96 170 172
3 97 96 172
3 171 97 172
3 102 171 173
3 173 101 102
3 101 173 174
3 174 98 101
3 98 174 175
3 175 99 98
3 99 175 176
3 176 100 99
3 100 176 177
3 177 103 100
3 178 105 104
3 103 177 179
3 104 103 179
3 178 104 179
3 180 107 106
3 105 178 181
3 106 105 181
3 180 106 181
3 107 180 182
3 182 108 107
3 183 1 0
3 108 182 184
3 0 108 184
3 183 0 184
3 1 183 185
3 185 2 1
3 2 185 186
3 186 55 2
3 55 186 187
3 187 17 55
3 17 187 188
3 188 3 17
3 3 188 189
3 189 4 3
3 4 189 190
3 190 5 4
3 5 190 191
3 191 9 5
3 9 191 192
3 192 6 9
3 6 192 193
3 193 7 6
3 7 193 194
3 194 8 7
3 8 194 195
3 195 10 8
3 10 195 196
3 196 11 10
3 11 196 197
3 197 12 11
3 12 197 198
3 198 13 12
3 199 15 14
3 13 198 200
3 14 13 200
3 199 14 200
3 15 199 201
3 201 16 15
3 16 201 202
3 202 18 16
3 18 202 203
3 203 19 18
3 204 30 20
3 19 203 205
3 20 19 205
3 204 20 205
3 30 204 206
3 206 21 30
3 21 206 207
3 207 22 21
3 22 207 208
3 208 23 22
3 23 208 209
3 209 24 23
3 24 209 210
3 210 25 24
3 25 210 211
3 211 26 25
3 26 211 212
3 212 27 26
3 27 212 213
3 213 28 27
3 28 213 214
3 214 29 28
3 29 214 215
3 215 31 29
3 31 215 216
3 216 32 31
3 32 216 217
3 217 33 32
3 33 217 109
3 109 34 33
3 218 219 220
3 221 222 223
3 224 221 223
3 225 224 223
3 226 225 223
3 227 226 223
3 228 227 223
3 229 228 223
3 230 229 223
3 231 230 223
3 232 231 223
3 220 232 223
3 218 220 223
3 218 223 233
3 234 235 236
3 236 237 238
3 234 236 238
3 238 239 240
3 238 240 241
3 238 241 242
3 238 242 243
3 238 243 244
3 238 244 245
3 238 245 246
3 238 246 247
3 238 247 248
3 238 248 249
3 234 238 249
3 236 218 233
3 233 237 236
3 237 233 223
3 223 238 237
3 238 223 222
3 222 239 238
3 239 222 221
3 221 240 239
3 240 221 224
3 224 241 240
3 226 243 242
3 241 224 225
3 242 241 225
3 226 242 225
3 228 245 244
3 243 226 227
3 244 243 227
3 228 244 227
3 230 247 246
3 245 228 229
3 246 245 229
3 230 246 229
3 247 230 231
3 231 248 247
3 220 234 249
3 248 231 232
3 249 248 232
3 220 249 232
3 234 220 219
3 219 235 234
3 235 219 218
3 218 236 235
3 250 251 252
3 250 252 253
3 254 255 256
3 254 256 257
3 254 257 258
3 254 258 259
3 254 259 260
3 254 260 261
3 254 261 262
3 254 262 263
3 254 263 264
3 254 264 265
3 266 254 265
3 267 266 265
3 268 267 265
3 268 265 269
3 270 268 269
3 253 270 269
3 253 269 271
3 250 253 271
3 272 273 274
3 275 276 277
3 278 275 277
3 278 277 279
3 278 279 280
3 281 278 280
3 282 281 280
3 282 280 283
3 284 282 283
3 285 284 283
3 274 285 283
3 274 283 286
3 274 286 287
3 274 287 288
3 274 288 289
3 274 289 290
3 274 290 291
3 274 291 292
3 274 292 293
3 272 274 293
3 266 285 274
3 273 255 254
3 274 273 254
3 266 274 254
3 285 266 267
3 267 284 285
3 284 267 268
3 268 282 284
3 282 268 270
3 270 281 282
3 281 270 253
3 253 278 281
3 278 253 252
3 252 275 278
3 275 252 251
3 251 276 275
3 276 251 250
3 250 277 276
3 277 250 271
3 271 279 277
3 279 271 269
3 269 280 279
3 280 269 265
3 265 283 280
3 263 287 286
3 283 265 264
3 286 283 264
3 263 286 264
3 287 263 262
3 262 288 287
3 288 262 261
3 261 289 288
3 289 261 260
3 260 290 289
3 290 260 259
3 259 291 290
3 291 259 258
3 258 292 291
3 292 258 257
3 257 293 292
3 293 257 256
3 256 272 293
3 272 256 255
3 255 273 272
