COFF
294 469 0

9.08 -7.04 67.55
8.36 -5.76 67.55
6.68 -6.72 67.55
8.68 0.72 67.55
9.56 -0.96 67.55
11.32 0 67.55
11.64 -1.76 67.55
17.08 -3.2 67.55
17.32 -2.24 67.55
12.12 -0.16 67.55
19.96 -2.88 67.55
21.16 1.6 67.55
16.04 2.96 67.55
15.08 2.4 67.55
14.6 3.36 67.55
13.48 5.44 67.55
10.52 4 67.55
6.92 1.12 67.55
9.48 5.92 67.55
12.36 7.44 67.55
11.24 9.6 67.55
11.64 10.96 67.55
13 16.24 67.55
10.68 16.88 67.55
11.24 19.12 67.55
7.48 20.16 67.55
6.04 14.8 67.55
6.92 14.56 67.55
6.28 12 67.55
7.88 11.6 67.55
10.76 10.48 67.55
7.16 8.72 67.55
5.08 7.52 67.55
1.88 8.4 67.55
4.68 18.88 67.55
2.36 19.52 67.55
3 22.24 67.55
-3.64 24 67.55
-4.68 20 67.55
-3.56 19.68 67.55
-4.52 15.76 67.55
-4.2 15.12 67.55
-4.84 14.72 67.55
-10.84 12.16 67.55
-16.04 13.52 67.55
-17.16 9.36 67.55
-10.44 11.44 67.55
-17.64 9.44 67.55
-18.6 5.76 67.55
-14.12 4.56 67.55
-13.88 5.44 67.55
-9.88 4.4 67.55
-9.72 11.84 67.55
-10.04 3.84 67.55
-7 3.04 67.55
5 -6.24 67.55
-8.12 -0.96 67.55
-11.08 -0.16 67.55
-11.32 -0.8 67.55
-15.24 0.24 67.55
-15 1.12 67.55
-19.56 2.4 67.55
-20.52 -1.28 67.55
-20.04 -1.44 67.55
-21.16 -5.6 67.55
-19.88 -5.92 67.55
-15.96 -6.96 67.55
-15.24 -6.56 67.55
-15 -7.04 67.55
-14.84 -7.28 67.55
-11.96 -12.16 67.55
-11.64 -12.88 67.55
-12.28 -13.28 67.55
-13.32 -17.12 67.55
-14.44 -16.88 67.55
-15.56 -20.88 67.55
-8.92 -22.64 67.55
-8.2 -20 67.55
-5.8 -20.56 67.55
-3 -10 67.55
0.2 -10.88 67.55
0.6 -15.76 67.55
-1 -15.36 67.55
-1.72 -17.84 67.55
-2.52 -17.68 67.55
-4.04 -23.04 67.55
-0.2 -24 67.55
0.36 -21.76 67.55
2.76 -22.4 67.55
4.12 -17.12 67.55
3.56 -16.16 67.55
1.4 -12.88 67.55
4.6 -15.6 67.55
6.6 -14.4 67.55
5 -11.52 67.55
7 -10.4 67.55
8.6 -13.28 67.55
10.76 -12 67.55
17.08 -13.76 67.55
18.28 -9.2 67.55
15.72 -8.56 67.55
11.88 -12.32 67.55
11.48 -11.6 67.55
15.96 -7.44 67.55
14.2 -7.04 67.55
10.52 -6 67.55
10.28 -7.04 67.55
10.12 -7.76 67.55
9.32 -7.44 67.55
4.68 18.88 -78.05
2.36 19.52 -78.05
3 22.24 -78.05
-3.64 24 -78.05
-4.68 20 -78.05
-3.56 19.68 -78.05
-4.52 15.76 -78.05
-4.2 15.12 -78.05
-10.44 11.44 -78.05
-4.84 14.72 -78.05
-9.72 11.84 -78.05
-10.84 12.16 -78.05
-16.04 13.52 -78.05
-17.16 9.36 -78.05
-17.64 9.44 -78.05
-18.6 5.76 -78.05
-14.12 4.56 -78.05
-13.88 5.44 -78.05
-9.88 4.4 -78.05
-10.04 3.84 -78.05
-7 3.04 -78.05
-8.12 -0.96 -78.05
-11.08 -0.16 -78.05
-11.32 -0.8 -78.05
-15.24 0.24 -78.05
-15 1.12 -78.05
-19.56 2.4 -78.05
-20.52 -1.28 -78.05
-20.04 -1.44 -78.05
-21.16 -5.6 -78.05
-15.96 -6.96 -78.05
-19.88 -5.92 -78.05
-15.24 -6.56 -78.05
-11.64 -12.88 -78.05
-15 -7.04 -78.05
-14.84 -7.28 -78.05
-11.96 -12.16 -78.05
-12.28 -13.28 -78.05
-13.32 -17.12 -78.05
-14.44 -16.88 -78.05
-15.56 -20.88 -78.05
-8.92 -22.64 -78.05
-8.2 -20 -78.05
-5.8 -20.56 -78.05
-3 -10 -78.05
0.2 -10.88 -78.05
1.4 -12.88 -78.05
0.6 -15.76 -78.05
-1 -15.36 -78.05
-1.72 -17.84 -78.05
-2.52 -17.68 -78.05
-4.04 -23.04 -78.05
-0.2 -24 -78.05
0.36 -21.76 -78.05
2.76 -22.4 -78.05
4.12 -17.12 -78.05
3.56 -16.16 -78.05
6.6 -14.4 -78.05
4.6 -15.6 -78.05
5 -11.52 -78.05
7 -10.4 -78.05
8.6 -13.28 -78.05
11.48 -11.6 -78.05
10.76 -12 -78.05
11.88 -12.32 -78.05
17.08 -13.76 -78.05
18.28 -9.2 -78.05
15.72 -8.56 -78.05
15.96 -7.44 -78.05
10.52 -6 -78.05
14.2 -7.04 -78.05
10.12 -7.76 -78.05
10.28 -7.04 -78.05
9.32 -7.44 -78.05
8.36 -5.76 -78.05
9.08 -7.04 -78.05
6.68 -6.72 -78.05
5 -6.24 -78.05
6.92 1.12 -78.05
8.68 0.72 -78.05
9.56 -0.96 -78.05
11.32 0 -78.05
12.12 -0.16 -78.05
11.64 -1.76 -78.05
17.08 -3.2 -78.05
17.32 -2.24 -78.05
19.96 -2.88 -78.05
21.16 1.6 -78.05
16.04 2.96 -78.05
15.08 2.4 -78.05
13.48 5.44 -78.05
14.6 3.36 -78.05
10.52 4 -78.05
9.48 5.92 -78.05
12.36 7.44 -78.05
10.76 10.48 -78.05
11.24 9.6 -78.05
11.64 10.96 -78.05
13 16.24 -78.05
10.68 16.88 -78.05
11.24 19.12 -78.05
7.48 20.16 -78.05
6.04 14.8 -78.05
6.92 14.56 -78.05
6.28 12 -78.05
7.88 11.6 -78.05
7.16 8.72 -78.05
5.08 7.52 -78.05
1.88 8.4 -78.05
-3 4.32 67.55
6.36 2 67.55
6.52 0.56 67.55
3.96 -6.8 67.55
-4.12 -4.64 67.55
-3.48 -2.32 67.55
4.12 -6.48 67.55
4.52 -6 67.55
4.92 -5.44 67.55
5.08 -5.04 67.55
5.32 -4.56 67.55
5.48 -4.24 67.55
6.36 -0.88 67.55
6.36 -0.72 67.55
6.44 0 67.55
-4.6 -2 67.55
6.52 0.56 76.85
6.36 2 76.85
-3 4.32 76.85
-4.6 -2 76.85
-3.48 -2.32 76.85
-4.12 -4.64 76.85
3.96 -6.8 76.85
4.12 -6.48 76.85
4.52 -6 76.85
4.92 -5.44 76.85
5.08 -5.04 76.85
5.32 -4.56 76.85
5.48 -4.24 76.85
6.36 -0.88 76.85
6.36 -0.72 76.85
6.44 0 76.85
3.8 -10.56 76.85
1.32 -11.84 76.85
-1.56 -11.44 76.85
-3.8 -10.48 76.85
-7 2 76.85
-5.88 5.44 76.85
-3.64 8 76.85
-1.08 9.2 76.85
1.56 9.44 76.85
3.96 8.88 76.85
6.44 7.76 76.85
8.36 5.44 76.85
9 2.4 76.85
8.84 -0.64 76.85
8.44 -2.56 76.85
7.88 -4.48 76.85
-7.72 -1.04 76.85
-7.64 -4.48 76.85
-6.68 -7.12 76.85
6.68 -7.44 76.85
-5.24 -9.28 76.85
5.72 -9.12 76.85
-3.64 8 78.05
-5.88 5.44 78.05
-7 2 78.05
-1.56 -11.44 78.05
1.32 -11.84 78.05
3.8 -10.56 78.05
-3.8 -10.48 78.05
5.72 -9.12 78.05
6.68 -7.44 78.05
-5.24 -9.28 78.05
-6.68 -7.12 78.05
7.88 -4.48 78.05
-7.64 -4.48 78.05
-7.72 -1.04 78.05
8.44 -2.56 78.05
8.84 -0.64 78.05
9 2.4 78.05
8.36 5.44 78.05
6.44 7.76 78.05
3.96 8.88 78.05
1.56 9.44 78.05
-1.08 9.2 78.05
3  0 1 2  255 0 0
3  3 4 5  255 0 0
3  6 7 8  255 0 0
3  9 6 8  255 0 0
3  8 10 11  255 0 0
3  8 11 12  255 0 0
3  8 12 13  255 0 0
3  9 8 13  255 0 0
3  9 13 14  255 0 0
3  14 15 16  255 0 0
3  9 14 16  255 0 0
3  5 9 16  255 0 0
3  3 5 16  255 0 0
3  17 3 16  255 0 0
3  17 16 18  255 0 0
3  18 19 20  255 0 0
3  21 22 23  255 0 0
3  23 24 25  255 0 0
3  25 26 27  255 0 0
3  23 25 27  255 0 0
3  27 28 29  255 0 0
3  23 27 29  255 0 0
3  21 23 29  255 0 0
3  30 21 29  255 0 0
3  30 29 31  255 0 0
3  20 30 31  255 0 0
3  18 20 31  255 0 0
3  18 31 32  255 0 0
3  17 18 32  255 0 0
3  17 32 33  255 0 0
3  33 34 35  255 0 0
3  35 36 37  255 0 0
3  37 38 39  255 0 0
3  35 37 39  255 0 0
3  39 40 41  255 0 0
3  35 39 41  255 0 0
3  33 35 41  255 0 0
3  33 41 42  255 0 0
3  43 44 45  255 0 0
3  46 43 45  255 0 0
3  45 47 48  255 0 0
3  48 49 50  255 0 0
3  45 48 50  255 0 0
3  46 45 50  255 0 0
3  46 50 51  255 0 0
3  52 46 51  255 0 0
3  51 53 54  255 0 0
3  52 51 54  255 0 0
3  42 52 54  255 0 0
3  33 42 54  255 0 0
3  17 33 54  255 0 0
3  55 17 54  255 0 0
3  55 54 56  255 0 0
3  56 57 58  255 0 0
3  59 60 61  255 0 0
3  61 62 63  255 0 0
3  59 61 63  255 0 0
3  63 64 65  255 0 0
3  65 66 67  255 0 0
3  63 65 67  255 0 0
3  59 63 67  255 0 0
3  58 59 67  255 0 0
3  58 67 68  255 0 0
3  58 68 69  255 0 0
3  56 58 69  255 0 0
3  56 69 70  255 0 0
3  71 72 73  255 0 0
3  73 74 75  255 0 0
3  75 76 77  255 0 0
3  73 75 77  255 0 0
3  71 73 77  255 0 0
3  77 78 79  255 0 0
3  71 77 79  255 0 0
3  70 71 79  255 0 0
3  56 70 79  255 0 0
3  55 56 79  255 0 0
3  55 79 80  255 0 0
3  81 82 83  255 0 0
3  83 84 85  255 0 0
3  85 86 87  255 0 0
3  83 85 87  255 0 0
3  81 83 87  255 0 0
3  87 88 89  255 0 0
3  81 87 89  255 0 0
3  81 89 90  255 0 0
3  91 81 90  255 0 0
3  91 90 92  255 0 0
3  92 93 94  255 0 0
3  91 92 94  255 0 0
3  80 91 94  255 0 0
3  55 80 94  255 0 0
3  55 94 95  255 0 0
3  2 55 95  255 0 0
3  95 96 97  255 0 0
3  98 99 100  255 0 0
3  101 98 100  255 0 0
3  102 101 100  255 0 0
3  100 103 104  255 0 0
3  102 100 104  255 0 0
3  104 105 106  255 0 0
3  104 106 107  255 0 0
3  102 104 107  255 0 0
3  97 102 107  255 0 0
3  95 97 107  255 0 0
3  95 107 108  255 0 0
3  2 95 108  255 0 0
3  0 2 108  255 0 0
3  34 109 110  255 128 128
3  110 35 34  255 128 128
3  35 110 111  64 255 128
3  111 36 35  64 255 128
3  36 111 112  224 255 255
3  112 37 36  224 255 255
3  37 112 113  128 255 64
3  113 38 37  128 255 64
3  38 113 114  64 255 255
3  114 39 38  64 255 255
3  39 114 115  128 255 255
3  115 40 39  128 255 255
3  40 115 116  0 128 128
3  116 41 40  0 128 128
3  117 46 52  255 255 0
3  41 116 118  255 255 0
3  42 41 118  255 255 0
3  42 118 119  255 255 0
3  52 42 119  255 255 0
3  117 52 119  255 255 0
3  46 117 120  255 228 196
3  120 43 46  255 228 196
3  43 120 121  255 128 255
3  121 44 43  255 128 255
3  44 121 122  255 255 128
3  122 45 44  255 255 128
3  45 122 123  128 64 255
3  123 47 45  128 64 255
3  47 123 124  192 0 0
3  124 48 47  192 0 0
3  48 124 125  255 255 64
3  125 49 48  255 255 64
3  49 125 126  255 0 255
3  126 50 49  255 0 255
3  50 126 127  64 255 255
3  127 51 50  64 255 255
3  51 127 128  255 20 147
3  128 53 51  255 20 147
3  53 128 129  64 255 64
3  129 54 53  64 255 64
3  54 129 130  128 128 255
3  130 56 54  128 128 255
3  56 130 131  128 255 128
3  131 57 56  128 255 128
3  57 131 132  255 20 147
3  132 58 57  255 20 147
3  58 132 133  255 64 64
3  133 59 58  255 64 64
3  59 133 134  255 0 255
3  134 60 59  255 0 255
3  60 134 135  128 255 128
3  135 61 60  128 255 128
3  61 135 136  192 0 0
3  136 62 61  192 0 0
3  62 136 137  64 128 255
3  137 63 62  64 128 255
3  63 137 138  255 255 128
3  138 64 63  255 255 128
3  139 66 65  255 0 255
3  64 138 140  255 0 255
3  65 64 140  255 0 255
3  139 65 140  255 0 255
3  66 139 141  64 0 128
3  141 67 66  64 0 128
3  142 71 70  0 0 255
3  67 141 143  0 0 255
3  68 67 143  0 0 255
3  68 143 144  0 0 255
3  69 68 144  0 0 255
3  69 144 145  0 0 255
3  70 69 145  0 0 255
3  142 70 145  0 0 255
3  71 142 146  255 64 128
3  146 72 71  255 64 128
3  72 146 147  0 192 0
3  147 73 72  0 192 0
3  73 147 148  255 64 64
3  148 74 73  255 64 64
3  74 148 149  255 128 64
3  149 75 74  255 128 64
3  75 149 150  255 0 0
3  150 76 75  255 0 0
3  76 150 151  64 255 64
3  151 77 76  64 255 64
3  77 151 152  128 255 128
3  152 78 77  128 255 128
3  78 152 153  128 128 0
3  153 79 78  128 128 0
3  79 153 154  192 0 192
3  154 80 79  192 0 192
3  80 154 155  255 165 0
3  155 91 80  255 165 0
3  91 155 156  255 255 0
3  156 81 91  255 255 0
3  81 156 157  50 205 50
3  157 82 81  50 205 50
3  82 157 158  173 216 230
3  158 83 82  173 216 230
3  83 158 159  176 196 222
3  159 84 83  176 196 222
3  84 159 160  192 0 192
3  160 85 84  192 0 192
3  85 160 161  192 0 0
3  161 86 85  192 0 0
3  86 161 162  173 216 230
3  162 87 86  173 216 230
3  87 162 163  64 128 255
3  163 88 87  64 128 255
3  88 163 164  192 192 0
3  164 89 88  192 192 0
3  89 164 165  255 165 0
3  165 90 89  255 165 0
3  166 93 92  255 128 128
3  90 165 167  255 128 128
3  92 90 167  255 128 128
3  166 92 167  255 128 128
3  93 166 168  0 128 128
3  168 94 93  0 128 128
3  94 168 169  176 196 222
3  169 95 94  176 196 222
3  95 169 170  128 0 128
3  170 96 95  128 0 128
3  171 102 97  255 128 128
3  96 170 172  255 128 128
3  97 96 172  255 128 128
3  171 97 172  255 128 128
3  102 171 173  255 128 0
3  173 101 102  255 128 0
3  101 173 174  128 128 255
3  174 98 101  128 128 255
3  98 174 175  255 128 255
3  175 99 98  255 128 255
3  99 175 176  255 255 64
3  176 100 99  255 255 64
3  100 176 177  0 255 0
3  177 103 100  0 255 0
3  178 105 104  128 255 128
3  103 177 179  128 255 128
3  104 103 179  128 255 128
3  178 104 179  128 255 128
3  180 107 106  0 255 255
3  105 178 181  0 255 255
3  106 105 181  0 255 255
3  180 106 181  0 255 255
3  107 180 182  255 128 0
3  182 108 107  255 128 0
3  183 1 0  255 128 0
3  108 182 184  255 128 0
3  0 108 184  255 128 0
3  183 0 184  255 128 0
3  1 183 185  0 255 255
3  185 2 1  0 255 255
3  2 185 186  255 128 0
3  186 55 2  255 128 0
3  55 186 187  128 0 128
3  187 17 55  128 0 128
3  17 187 188  0 0 255
3  188 3 17  0 0 255
3  3 188 189  128 0 255
3  189 4 3  128 0 255
3  4 189 190  0 128 64
3  190 5 4  0 128 64
3  5 190 191  0 0 255
3  191 9 5  0 0 255
3  9 191 192  0 255 255
3  192 6 9  0 255 255
3  6 192 193  64 255 64
3  193 7 6  64 255 64
3  7 193 194  0 255 0
3  194 8 7  0 255 0
3  8 194 195  64 255 255
3  195 10 8  64 255 255
3  10 195 196  255 128 255
3  196 11 10  255 128 255
3  11 196 197  72 61 139
3  197 12 11  72 61 139
3  12 197 198  0 128 64
3  198 13 12  0 128 64
3  199 15 14  128 0 255
3  13 198 200  128 0 255
3  14 13 200  128 0 255
3  199 14 200  128 0 255
3  15 199 201  64 64 255
3  201 16 15  64 64 255
3  16 201 202  123 104 238
3  202 18 16  123 104 238
3  18 202 203  255 64 255
3  203 19 18  255 64 255
3  204 30 20  128 0 255
3  19 203 205  128 0 255
3  20 19 205  128 0 255
3  204 20 205  128 0 255
3  30 204 206  240 128 128
3  206 21 30  240 128 128
3  21 206 207  192 192 0
3  207 22 21  192 192 0
3  22 207 208  255 128 128
3  208 23 22  255 128 128
3  23 208 209  128 0 128
3  209 24 23  128 0 128
3  24 209 210  128 255 255
3  210 25 24  128 255 255
3  25 210 211  0 192 192
3  211 26 25  0 192 192
3  26 211 212  255 240 245
3  212 27 26  255 240 245
3  27 212 213  123 104 238
3  213 28 27  123 104 238
3  28 213 214  72 61 139
3  214 29 28  72 61 139
3  29 214 215  255 255 0
3  215 31 29  255 255 0
3  31 215 216  240 128 128
3  216 32 31  240 128 128
3  32 216 217  255 128 255
3  217 33 32  255 128 255
3  33 217 109  128 128 0
3  109 34 33  128 128 0
3  218 219 220  255 0 0
3  221 222 223  255 0 0
3  224 221 223  255 0 0
3  225 224 223  255 0 0
3  226 225 223  255 0 0
3  227 226 223  255 0 0
3  228 227 223  255 0 0
3  229 228 223  255 0 0
3  230 229 223  255 0 0
3  231 230 223  255 0 0
3  232 231 223  255 0 0
3  220 232 223  255 0 0
3  218 220 223  255 0 0
3  218 223 233  255 0 0
3  234 235 236  0 255 0
3  236 237 238  0 255 0
3  234 236 238  0 255 0
3  238 239 240  0 255 0
3  238 240 241  0 255 0
3  238 241 242  0 255 0
3  238 242 243  0 255 0
3  238 243 244  0 255 0
3  238 244 245  0 255 0
3  238 245 246  0 255 0
3  238 246 247  0 255 0
3  238 247 248  0 255 0
3  238 248 249  0 255 0
3  234 238 249  0 255 0
3  236 218 233  255 64 255
3  233 237 236  255 64 255
3  237 233 223  128 255 128
3  223 238 237  128 255 128
3  238 223 222  64 255 64
3  222 239 238  64 255 64
3  239 222 221  128 64 0
3  221 240 239  128 64 0
3  240 221 224  64 255 128
3  224 241 240  64 255 128
3  226 243 242  64 255 128
3  241 224 225  245 222 179
3  242 241 225  245 222 179
3  226 242 225  64 255 128
3  228 245 244  64 255 128
3  243 226 227  64 255 128
3  244 243 227  64 255 128
3  228 244 227  64 255 128
3  230 247 246  128 0 128
3  245 228 229  64 255 128
3  246 245 229  64 255 128
3  230 246 229  128 0 128
3  247 230 231  128 0 128
3  231 248 247  128 0 128
3  220 234 249  128 0 128
3  248 231 232  128 0 128
3  249 248 232  128 0 128
3  220 249 232  128 0 128
3  234 220 219  50 205 50
3  219 235 234  50 205 50
3  235 219 218  64 64 255
3  218 236 235  64 64 255
3  250 251 252  0 255 0
3  250 252 253  0 255 0
3  254 255 256  0 255 0
3  254 256 257  0 255 0
3  254 257 258  0 255 0
3  254 258 259  0 255 0
3  254 259 260  0 255 0
3  254 260 261  0 255 0
3  254 261 262  0 255 0
3  254 262 263  0 255 0
3  254 263 264  0 255 0
3  254 264 265  0 255 0
3  266 254 265  0 255 0
3  267 266 265  0 255 0
3  268 267 265  0 255 0
3  268 265 269  0 255 0
3  270 268 269  0 255 0
3  253 270 269  0 255 0
3  253 269 271  0 255 0
3  250 253 271  0 255 0
3  272 273 274  0 0 192
3  275 276 277  0 0 192
3  278 275 277  0 0 192
3  278 277 279  0 0 192
3  278 279 280  0 0 192
3  281 278 280  0 0 192
3  282 281 280  0 0 192
3  282 280 283  0 0 192
3  284 282 283  0 0 192
3  285 284 283  0 0 192
3  274 285 283  0 0 192
3  274 283 286  0 0 192
3  274 286 287  0 0 192
3  274 287 288  0 0 192
3  274 288 289  0 0 192
3  274 289 290  0 0 192
3  274 290 291  0 0 192
3  274 291 292  0 0 192
3  274 292 293  0 0 192
3  272 274 293  0 0 192
3  266 285 274  128 128 255
3  273 255 254  128 128 255
3  274 273 254  128 128 255
3  266 274 254  128 128 255
3  285 266 267  255 255 128
3  267 284 285  255 255 128
3  284 267 268  192 192 0
3  268 282 284  192 192 0
3  282 268 270  255 128 64
3  270 281 282  255 128 64
3  281 270 253  255 64 128
3  253 278 281  255 64 128
3  278 253 252  255 165 0
3  252 275 278  255 165 0
3  275 252 251  240 128 128
3  251 276 275  240 128 128
3  276 251 250  64 0 128
3  250 277 276  64 0 128
3  277 250 271  64 0 128
3  271 279 277  64 0 128
3  279 271 269  128 128 0
3  269 280 279  128 128 0
3  280 269 265  128 128 0
3  265 283 280  128 128 0
3  263 287 286  0 0 192
3  283 265 264  128 128 0
3  286 283 264  128 128 0
3  263 286 264  0 0 192
3  287 263 262  0 0 192
3  262 288 287  0 0 192
3  288 262 261  0 192 0
3  261 289 288  0 192 0
3  289 261 260  0 192 192
3  260 290 289  0 192 192
3  290 260 259  128 64 255
3  259 291 290  128 64 255
3  291 259 258  128 255 64
3  258 292 291  128 255 64
3  292 258 257  0 128 64
3  257 293 292  0 128 64
3  293 257 256  255 20 147
3  256 272 293  255 20 147
3  272 256 255  128 64 0
3  255 273 272  128 64 0

