OFF
660 575 0

4.18563 -11.976 -78.15
5.4459 -12.3226 -78.15
3.54929 -11.8011 -78.15
1.83097 -11.3285 -78.15
0.533499 -10.9717 -78.15
0.533499 -10.9717 67.55
1.83097 -11.3285 67.55
3.54929 -11.8011 67.55
4.18563 -11.976 67.55
5.4459 -12.3226 67.55
-3 -10 -78.15
-3 -10 67.55
-9.82002 -8.1245 -78.15
-13.1934 -7.19682 -78.15
-13.1934 -7.19682 67.55
-9.82002 -8.1245 67.55
-5.41538 -9.33577 67.55
-5.05373 -9.43522 78.05
-5.05373 -9.43522 76.85
-3 -10 78.05
-3 -10 76.85
7.05546 7.47965 67.55
-7.88376 11.3868 67.55
-7.88376 11.3868 -78.15
10.5108 6.57595 -78.15
10.5108 6.57595 67.55
-13.3228 -7.64991 -78.15
-13.7475 -9.13621 -78.15
-11.3625 -0.788726 -78.15
-11.3625 -0.788726 67.55
-13.3228 -7.64991 67.55
-13.7475 -9.13621 67.55
-10.0031 3.96906 -78.15
-10.0031 3.96906 67.55
-8.74189 8.3834 -78.15
-7.35472 13.2385 -78.15
-7.35472 13.2385 67.55
-8.74189 8.3834 67.55
10.4774 6.44641 -78.15
10.4774 6.44641 67.55
9.99311 4.5662 -78.15
9.99311 4.5662 67.55
9.7509 3.62584 -78.15
8.9396 0.476081 -78.15
8.9396 0.476081 67.55
9.7509 3.62584 67.55
6.41118 -9.34012 -78.15
7.05823 -6.82806 -78.15
6.05885 -10.708 -78.15
6.05885 -10.708 67.55
6.41118 -9.34012 67.55
7.05823 -6.82806 67.55
8.12198 5.7276 76.85
8.424 5.36267 76.85
8.424 5.36267 78.05
8.12198 5.7276 78.05
7.96336 5.11955 78.05
8.38105 5.34 78.05
10.5845 10.9239 67.55
9.54531 11.1837 67.55
9.54531 11.1837 -78.15
10.5845 10.9239 -78.15
-4.58886 -1.95601 78.05
-3.64928 1.75534 78.05
-3.24902 -10.9392 78.05
-3.24902 -10.9392 76.85
-4.37111 -10.0041 76.85
-4.37111 -10.0041 78.05
-3.09039 -10.3409 78.05
-3.09039 -10.3409 76.85
-1.72 -17.84 -78.15
-0.0694739 -18.1701 -78.15
-1.72 -17.84 67.55
-0.0694739 -18.1701 67.55
-3 4.32 78.05
-3.5231 2.25376 78.05
5.72305 7.73257 78.05
6.12381 4.12571 78.05
5.72305 7.73257 76.85
6.12381 4.12571 76.85
0.562817 3.43691 78.05
5.58658 2.1917 78.05
-4.73827 -2.54617 78.05
-4.73827 -2.54617 76.85
-4.58886 -1.95601 76.85
-4.73827 -2.54617 67.55
-4.58886 -1.95601 67.55
0.072248 -11.6667 78.05
0.072248 -11.6667 76.85
-0.781125 -11.5482 76.85
-0.781125 -11.5482 78.05
-0.534372 -10.678 78.05
0.293204 -10.9056 78.05
-0.534372 -10.678 76.85
0.293204 -10.9056 76.85
9.17061 3.34354 78.05
9.17061 3.34354 76.85
8.96204 1.35505 76.85
8.96204 1.35505 78.05
3.92598 -10.3571 78.05
3.92598 -10.3571 76.85
2.18488 -11.4258 76.85
2.18488 -11.4258 78.05
-3.81177 -3.52268 78.05
-4.31606 -2.65819 78.05
-3.62395 -2.84181 78.05
1.01531 -11.7977 76.85
1.01531 -11.7977 78.05
0.533499 -10.9717 78.05
0.533499 -10.9717 76.85
1.72562 -11.7078 78.05
1.72562 -11.7078 76.85
1.16397 -12.0525 76.85
1.16397 -12.0525 78.05
-4.31606 -2.65819 76.85
-3.62395 -2.84181 76.85
-3.81177 -3.52268 76.85
1.83097 -11.3285 78.05
-5.37009 -9.17159 76.85
-5.37009 -9.17159 78.05
-4.12 -4.64 78.05
-2.98264 -4.94405 78.05
-1.85673 8.83591 76.85
-0.52216 9.46149 76.85
-0.52216 9.46149 78.05
-1.85673 8.83591 78.05
6.52211 -0.405263 78.05
4.97869 0.00328759 78.05
5.11689 0.500808 78.05
6.6542 0.101107 78.05
6.57837 -7.49996 78.05
6.57837 -7.49996 76.85
6.0726 -8.73068 76.85
6.0726 -8.73068 78.05
-0.241091 -9.64384 78.05
1.83097 -11.3285 76.85
-7.65828 -3.69412 78.05
-7.65828 -3.69412 76.85
-7.70327 -1.75954 76.85
-7.70327 -1.75954 78.05
8.57277 -0.948085 78.05
8.70563 -0.432264 78.05
-0.241091 -9.64384 76.85
6.9591 7.13276 76.85
6.9591 7.13276 78.05
5.31158 1.20168 78.05
6.8605 0.891901 78.05
6.52211 -0.405263 76.85
6.6542 0.101107 76.85
8.70563 -0.432264 76.85
8.57277 -0.948085 76.85
-5.35317 -9.11024 76.85
-6.11193 -7.97211 76.85
-6.11193 -7.97211 78.05
-5.35317 -9.11024 78.05
3.37353 -5.77529 78.05
1.51321 -5.24377 78.05
1.17787 -4.64016 78.05
1.47628 -3.58787 78.05
5.1814 -7.12651 78.05
6.8654 -7.57669 76.85
5.1814 -7.12651 76.85
6.8654 -7.57669 78.05
3.21053 -8.29895 78.05
2 -10.72 78.05
3.21053 -8.29895 76.85
2 -10.72 76.85
-3.64 8 76.85
-3.64 8 78.05
7.65283 -4.51962 78.05
6.56045 -2.59612 78.05
8.40782 -1.58846 78.05
6.56045 -2.59612 76.85
8.40782 -1.58846 76.85
7.65283 -4.51962 76.85
-1.26775 -3.46692 78.05
-3.46314 -2.25889 78.05
-1.11495 -2.89068 78.05
8.38105 5.34 76.85
8.83566 3.18059 76.85
8.83566 3.18059 78.05
8.9396 0.476081 78.05
2.85185 -7.65333 78.05
7.96336 5.11955 76.85
5.90292 -9.14357 78.05
5.90292 -9.14357 76.85
4.24511 -10.1612 76.85
4.24511 -10.1612 78.05
5 -6.24 78.05
3.80696 -4.21495 78.05
5.41538 -4.64771 78.05
7.47696 -5.20239 78.05
5.8494 -2.98396 78.05
5.8494 -2.98396 76.85
5.41538 -4.64771 76.85
7.47696 -5.20239 76.85
5.8494 -2.98396 67.55
7.25723 2.41271 78.05
7.43546 3.09594 76.85
7.25723 2.41271 76.85
4.06272 -9.8329 78.05
2.85185 -7.65333 76.85
4.06272 -9.8329 76.85
6.8605 0.891901 76.85
8.9396 0.476081 76.85
0.0017073 1.32072 78.05
0.128221 1.79786 78.05
-5.97855 5.32738 78.05
-5.97855 5.32738 76.85
-3 4.32 76.85
7.05823 -6.82806 78.05
-5.19556 -4.35247 76.85
-5.19556 -4.35247 78.05
5 -6.24 76.85
7.05823 -6.82806 76.85
4.90059 -6.62106 78.05
4.90059 -6.62106 76.85
4.79564 -7.02339 76.85
7.10161 1.81618 76.85
6.36 2 67.55
6.47455 0.969091 67.55
6.47455 0.969091 76.85
6.36 2 76.85
5.58658 2.1917 76.85
5.58658 2.1917 67.55
7.10161 1.81618 67.55
-3.31711 -11.196 76.85
-3.31711 -11.196 78.05
0.239137 2.21617 78.05
-2.07292 -6.50357 78.05
-0.132803 0.813429 78.05
-2.44477 1.43271 78.05
-6.76062 2.58874 78.05
-6.62203 3.07407 78.05
-7.9813 -1.68578 78.05
-7.81091 -1.08909 78.05
-7.9813 -1.68578 76.85
-7.81091 -1.08909 76.85
-3.46314 -2.25889 76.85
-6.21791 -8.39075 76.85
-7.64 -4.48 76.85
-7.64 -4.48 78.05
-6.21791 -8.39075 78.05
6.13128 4.15262 78.05
9.37469 -0.606218 -78.15
8.89614 0.307368 -78.15
8.89614 0.307368 67.55
9.37469 -0.606218 67.55
11.32 -6.41634e-08 67.55
11.32 -6.41634e-08 -78.15
4.335 -6.05 67.55
3.96 -6.8 67.55
3.96 -6.8 76.85
4.335 -6.05 76.85
6.71938 4.46301 76.85
6.13128 4.15262 76.85
3.1491 -6.58323 67.55
2.10181 -6.30326 67.55
2.10181 -6.30326 76.85
3.1491 -6.58323 76.85
1.0219 5.16831 78.05
1.98629 8.80543 78.05
5.84146 7.79716 78.05
1.98629 8.80543 76.85
5.84146 7.79716 76.85
1.0219 5.16831 76.85
-2.07292 -6.50357 76.85
-3.64928 1.75534 76.85
-3.64928 1.75534 67.55
-3.5231 2.25376 67.55
-3.5231 2.25376 76.85
-6.76062 2.58874 76.85
-6.62203 3.07407 76.85
4.79564 -7.02339 67.55
7.43546 3.09594 67.55
6.71938 4.46301 67.55
-1.74699 -5.27437 76.85
-1.74699 -5.27437 67.55
-2.98264 -4.94405 67.55
-2.98264 -4.94405 76.85
-15.2513 -6.56629 -78.15
-15.9556 -6.95754 -78.15
-15.9556 -6.95754 67.55
-15.2513 -6.56629 67.55
-6.05031 5.07606 78.05
-6.05031 5.07606 76.85
-11.579 -12.8419 -78.15
-3.62395 -2.84181 67.55
-3.46314 -2.25889 67.55
0.804582 -5.95647 76.85
10.2503 4.49789 -78.15
10.52 4 -78.15
10.52 4 67.55
10.2503 4.49789 67.55
5.99292 -10.964 -78.15
5 -11.52 -78.15
5 -11.52 67.55
5.99292 -10.964 67.55
6.8605 0.891901 67.55
6.13128 4.15262 67.55
7.96336 5.11955 67.55
17.2186 -2.64563 67.55
17.2186 -2.64563 -78.15
17.08 -3.2 -78.15
17.08 -3.2 67.55
16.0057 -7.49711 -78.15
15.7388 -8.56471 -78.15
15.7388 -8.56471 67.55
16.0057 -7.49711 67.55
16.3613 -8.72032 -78.15
16.3613 -8.72032 67.55
10.2472 -7.1918 67.55
10.2472 -7.1918 -78.15
11.619 -11.5034 -78.15
9.93907 -8.54533 -78.15
11.619 -11.5034 67.55
9.93907 -8.54533 67.55
3.38697 -12.4233 -78.15
3.38697 -12.4233 67.55
-3.81177 -3.52268 67.55
7.05546 7.47965 78.05
2.85185 -7.65333 67.55
-3 4.32 67.55
0.562817 3.43691 67.55
0.562817 3.43691 76.85
-6.05031 5.07606 67.55
-5.51664 -9.70282 67.55
10.8062 10.5052 -78.15
9.12977 9.59078 -78.15
10.8062 10.5052 67.55
9.12977 9.59078 67.55
0.804582 -5.95647 67.55
5.41538 -4.64771 67.55
6.52211 -0.405263 67.55
-20.04 -1.44 67.55
-20.04 -1.44 -78.15
9.3329 -7.47797 -78.15
10.1302 -7.70577 -78.15
10.1302 -7.70577 67.55
9.3329 -7.47797 67.55
-10.4309 11.4237 67.55
-10.4309 11.4237 -78.15
-13.9389 5.01087 -78.15
-12.5272 10.187 -78.15
-13.9389 5.01087 67.55
-12.5272 10.187 67.55
-11.1887 -0.18029 -78.15
-11.1887 -0.18029 67.55
-15.0698 0.863964 -78.15
-15.24 0.24 -78.15
-15.24 0.24 67.55
-15.0698 0.863964 67.55
-7.9813 -1.68578 -78.15
-19.2978 1.31657 -78.15
-7.9813 -1.68578 67.55
-19.2978 1.31657 67.55
-9.07424 -22.5991 -78.15
-9.07424 -22.5991 67.55
-8.04745 -18.877 -78.15
-8.04745 -18.877 67.55
-7.81091 -1.08909 -78.15
-9.93864 -8.5399 -78.15
-13.32 -17.12 67.55
-8.46708 -18.1599 67.55
-13.32 -17.12 -78.15
-8.46708 -18.1599 -78.15
7.05546 7.47965 76.85
8.25564 1.53014 67.55
7.10161 1.81618 -78.15
8.25564 1.53014 -78.15
-12.7493 -10.8419 -78.15
-12.7493 -10.8419 67.55
-15.56 -20.88 67.55
-15.56 -20.88 -78.15
-4.3253 21.3642 -78.15
-4.3253 21.3642 67.55
-6.2719 13.8773 67.55
8.79234 0.505532 67.55
17.8566 -2.81151 -78.15
11.0867 4.27571 -78.15
17.8566 -2.81151 67.55
11.0867 4.27571 67.55
19.8264 -3.32367 67.55
18.28 -9.2 -78.15
18.28 -9.2 67.55
6.6542 0.101107 67.55
-9.93864 -8.5399 67.55
-7.81091 -1.08909 67.55
6.8605 0.891901 -78.15
-17.64 9.44 -78.15
-17.1335 9.35558 -78.15
-17.1335 9.35558 67.55
-17.64 9.44 67.55
-10.84 12.16 -78.15
-10.84 12.16 67.55
7.96336 5.11955 -78.15
-1.59221 -23.6519 -78.15
-4.04 -23.04 -78.15
-4.04 -23.04 67.55
-1.59221 -23.6519 67.55
8.59793 -13.2763 67.55
8.59793 -13.2763 -78.15
7.37333 -11.072 -78.15
7.37333 -11.072 67.55
-4.5008 10.5021 67.55
-6.62203 3.07407 67.55
11.64 10.96 -78.15
11.64 10.96 67.55
-18.4817 6.2134 67.55
-17.7372 7.11343 67.55
-18.0129 6.08929 67.55
0.36 -21.76 -78.15
-0.225 -24.1 -78.15
-0.225 -24.1 67.55
0.36 -21.76 67.55
6.92 14.56 67.55
6.92 14.56 -78.15
6.04 14.8 -78.15
6.04 14.8 67.55
2.36 19.52 -78.15
2.20963 18.8809 -78.15
2.36 19.52 67.55
2.20963 18.8809 67.55
-5.8 -20.56 67.55
-5.8 -20.56 -78.15
-7.26228 -20.2188 -78.15
-7.26228 -20.2188 67.55
5.84146 7.79716 67.55
1.0219 5.16831 67.55
5.84146 7.79716 -78.15
1.0219 5.16831 -78.15
7.05546 7.47965 -78.15
5.11689 0.500808 -78.15
6.6542 0.101107 -78.15
0.128221 1.79786 -78.15
-8.34773 -19.9655 -78.15
-8.34773 -19.9655 67.55
5 -6.24 67.55
5 -6.24 -78.15
4.90059 -6.62106 67.55
4.90059 -6.62106 -78.15
5.58054 -12.565 -78.15
5.58054 -12.565 67.55
4.06272 -9.8329 67.55
4.06272 -9.8329 -78.15
3.59163 -16.2142 -78.15
2.76687 -14.8003 -78.15
3.59163 -16.2142 67.55
2.76687 -14.8003 67.55
10.3568 19.3643 -78.15
11.5904 19.0231 -78.15
11.5904 19.0231 67.55
10.3568 19.3643 67.55
11.4926 -1.72099 67.55
11.4926 -1.72099 -78.15
11.6139 -1.18841 -78.15
11.6139 -1.18841 67.55
-14.0658 4.54548 -78.15
-14.0658 4.54548 67.55
-3.56 19.68 -78.15
-4.68 20 -78.15
-4.68 20 67.55
-3.56 19.68 67.55
18.4593 2.31736 -78.15
18.4593 2.31736 67.55
17.3951 -1.9398 67.55
17.3951 -1.9398 -78.15
-18.4817 6.2134 -78.15
-16.0141 13.5132 67.55
7.25723 2.41271 67.55
7.25723 2.41271 -78.15
12.414 7.46847 67.55
12.414 7.46847 -78.15
-17.1195 -6.65145 67.55
-17.1195 -6.65145 -78.15
-16.5098 -4.41576 67.55
-16.5098 -4.41576 -78.15
3 22.24 -78.15
3 22.24 67.55
-2.57141 23.7168 67.55
-2.57141 23.7168 -78.15
-3.22207 21.0599 67.55
-3.22207 21.0599 -78.15
-6.76062 2.58874 -78.15
-6.62203 3.07407 -78.15
-6.76062 2.58874 67.55
8.48173 7.10662 67.55
10.5141 -6.01954 -78.15
10.5141 -6.01954 67.55
9.24583 -11.5905 67.55
9.24583 -11.5905 -78.15
-1 -15.36 -78.15
0.6 -15.76 -78.15
0.6 -15.76 67.55
-1 -15.36 67.55
6.28 12 -78.15
6.28 12 67.55
8.17922 11.5252 67.55
0.293204 -10.9056 -78.15
-2.2419 -19.6376 67.55
-2.2419 -19.6376 -78.15
0.293204 -10.9056 67.55
-0.534372 -10.678 -78.15
-0.534372 -10.678 67.55
-11.9771 -12.1616 67.55
-10.9259 -8.28026 67.55
-11.9771 -12.1616 -78.15
-10.9259 -8.28026 -78.15
-11.9562 -8.00931 67.55
-11.9562 -8.00931 -78.15
7.47791 16.7916 -78.15
7.47791 16.7916 67.55
5.26686 7.94744 67.55
5.26686 7.94744 -78.15
14.5981 3.343 67.55
14.5981 3.343 -78.15
4.82737 -15.489 -78.15
4.82737 -15.489 67.55
2.18227 -17.0413 67.55
2.18227 -17.0413 -78.15
-4.76308 14.7674 -78.15
-4.76308 14.7674 67.55
7.37619 8.63429 -78.15
7.37619 8.63429 67.55
-4.12 -4.64 76.85
-1.71667 -24.1 -78.15
-1.71667 -24.1 67.55
-0.133411 -18.4003 -78.15
-0.133411 -18.4003 67.55
8.48173 7.10662 -78.15
1.47957 -12.5935 67.55
2.99567 19.3446 -78.15
6.87898 17.9229 -78.15
4.6591 18.8858 -78.15
6.87898 17.9229 67.55
4.6591 18.8858 67.55
2.99567 19.3446 67.55
4.26912 8.20838 67.55
4.26912 8.20838 -78.15
16.5152 2.83377 67.55
16.5152 2.83377 -78.15
15.2369 2.13649 67.55
-2.07292 -6.50357 67.55
15.2369 2.13649 -78.15
-0.241091 -9.64384 67.55
-2.07292 -6.50357 -78.15
-0.241091 -9.64384 -78.15
11.0916 17.1113 67.55
7 -10.4 67.55
11.0916 17.1113 -78.15
7 -10.4 -78.15
13.0829 16.562 -78.15
6.32059 -10.7805 -78.15
13.0829 16.562 67.55
6.32059 -10.7805 67.55
-14.44 -16.88 67.55
9.84294 12.3246 67.55
6.52211 -0.405263 -78.15
8.89738 14.1106 67.55
8.89738 14.1106 -78.15
-18.0129 6.08929 -78.15
-14.44 -16.88 -78.15
1.98629 8.80543 67.55
0.0017073 1.32072 -78.15
-19.4763 0.653771 67.55
-3.09039 -10.3409 -78.15
9.84294 12.3246 -78.15
-16.0141 13.5132 -78.15
1.98629 8.80543 -78.15
11.2883 9.59459 67.55
-19.1259 1.95527 -78.15
5.41538 -4.64771 -78.15
9.15376 1.30753 76.85
1.47957 -12.5935 -78.15
13.4863 5.44306 -78.15
-9.69185 11.8597 67.55
9.15376 1.30753 78.05
13.4863 5.44306 67.55
11.2883 9.59459 -78.15
7.10161 1.81618 78.05
-14.4202 -21.1821 -78.15
-19.4763 0.653771 -78.15
-14.4202 -21.1821 67.55
-1.11495 -2.89068 -78.15
11.8598 -0.107967 67.55
11.8598 -0.107967 -78.15
-3.64 24 -78.15
-3.64 24 67.55
16.9659 -1.12917 -78.15
-4.12 -4.64 67.55
-5.51664 -9.70282 -78.15
16.9659 -1.12917 67.55
21.1246 1.60941 -78.15
21.1246 1.60941 67.55
-6.2719 13.8773 -78.15
8.79234 0.505532 -78.15
7.68447 2.62055 67.55
7.68447 2.62055 -78.15
7.48 20.16 -78.15
-12.28 -13.28 -78.15
-18.1351 5.63546 -78.15
-11.579 -12.8419 67.55
-18.1351 5.63546 67.55
7.48 20.16 67.55
-12.28 -13.28 67.55
-0.132803 0.813429 -78.15
-9.69185 11.8597 -78.15
-4.31606 -2.65819 67.55
-17.7372 7.11343 -78.15
6.96665 18.2492 67.55
17.08 -13.76 -78.15
6.96665 18.2492 -78.15
10.7572 -12.0091 -78.15
10.7572 -12.0091 67.55
9.82776 17.4599 67.55
17.08 -13.76 67.55
7.15614 -6.44792 67.55
9.82776 17.4599 -78.15
7.15614 -6.44792 -78.15
8.35792 -5.76119 -78.15
8.35792 -5.76119 67.55
11.9644 0.351511 -78.15
9.93941 -0.753047 -78.15
3.02881 -22.4717 -78.15
9.93941 -0.753047 67.55
0.912846 -21.9074 -78.15
11.9644 0.351511 67.55
0.912846 -21.9074 67.55
3.02881 -22.4717 67.55
-3.24151 -20.2243 67.55
-3.24151 -20.2243 -78.15
1.47628 -3.58787 -78.15
-13.7493 -18.7052 -78.15
-13.7493 -18.7052 67.55
4.31928 -17.4616 -78.15
4.31928 -17.4616 67.55
3.80696 -4.21495 -78.15
8.17922 11.5252 -78.15
19.8264 -3.32367 -78.15
-0.968276 -21.4058 -78.15
-14.8526 -7.24759 67.55
-2.52 -17.68 67.55
10.0641 4.84171 -78.15
-0.968276 -21.4058 67.55
-3.09039 -10.3409 67.55
-21.1572 -5.58959 67.55
-2.52 -17.68 -78.15
9.48 5.92 67.55
-19.1259 1.95527 67.55
-14.8526 -7.24759 -78.15
-4.5008 10.5021 -78.15
10.0641 4.84171 67.55
12.1206 -12.3866 67.55
12.1206 -12.3866 -78.15
-21.1572 -5.58959 -78.15
9.48 5.92 -78.15
12.7568 3.8321 -78.15
12.7568 3.8321 67.55
6.62043 -14.4368 -78.15
6.62043 -14.4368 67.55
4  583 605 483 360  255 0 0
4  583 545 546 631  255 0 0
6  583 360 352 12 10 545  255 0 0
6  563 434 430 568 650 484  255 0 0
7  563 605 583 631 636 571 557  255 0 0
4  563 484 483 605  255 0 0
9  568 533 531 420 520 594 35 23 650  255 170 0
5  568 430 429 513 538  255 0 0
4  568 562 535 533  255 170 0
4  570 348 351 648  169 255 0
4  570 353 349 348  169 255 0
4  570 648 355 353  169 255 0
4  581 353 355 564  169 255 0
5  581 335 654 474 476  169 255 0
9  581 476 280 649 26 13 28 349 353  169 255 0
4  581 564 334 335  169 255 0
7  571 636 3 2 444 440 438  255 0 0
5  571 332 196 333 557  255 0 0
4  567 393 394 468  0 255 0
4  571 438 437 332  255 0 0
4  560 342 343 608  0 255 0
4  560 467 408 410  0 255 0
5  560 608 390 389 467  0 255 0
6  567 390 608 343 341 393  0 255 0
4  567 468 391 390  0 255 0
5  557 433 432 434 563  255 0 0
4  557 333 385 433  255 0 0
5  564 475 473 645 334  169 255 0
4  332 194 193 196  255 0 0
4  332 437 213 194  255 0 0
3  606 23 35  0 255 0
4  606 35 36 575  0 255 0
9  519 446 317 2 3 573 492 71 527  0 255 170
5  519 625 623 634 445  0 255 170
5  518 627 414 643 528  0 255 170
5  519 527 639 411 625  0 255 170
6  518 528 73 493 530 448  0 255 170
4  654 335 334 645  169 255 0
4  640 31 27 649  169 255 0
4  649 280 283 640  169 255 0
3  649 27 26  169 255 0
4  645 473 474 654  169 255 0
9  640 283 475 564 355 350 29 14 30  169 255 0
4  648 351 350 355  169 255 0
8  529 328 60 566 559 637 522 431  0 170 255
5  529 395 655 38 24  255 0 0
8  529 431 432 433 388 368 470 395  255 0 0
4  568 538 537 562  255 0 0
8  486 21 523 497 558 556 59 330  0 170 255
4  560 600 457 342  0 255 0
4  560 410 602 600  0 255 0
4  578 24 38 472  0 170 255
4  569 471 39 25  0 170 255
4  578 472 471 569  0 170 255
5  638 592 463 466 378  0 0 255
3  378 466 302  0 0 255
4  382 593 592 638  0 0 255
5  380 465 464 593 382  0 0 255
4  382 638 378 380  0 0 255
5  636 631 546 4 3  255 0 0
4  528 499 72 73  0 255 170
6  527 500 630 397 396 639  0 255 170
4  527 71 70 500  0 255 170
4  630 500 70 646  0 255 170
6  629 499 528 643 399 398  0 255 170
4  629 641 72 499  0 255 170
4  630 646 641 629  0 255 170
9  562 404 22 36 376 521 422 536 535  255 170 0
3  575 36 22  0 255 0
7  516 441 1 0 317 446 445  0 255 170
3  517 442 659  0 255 170
3  516 658 441  0 255 170
4  517 659 658 516  0 255 170
5  610 383 309 313 653  169 0 255
3  613 315 652  169 0 255
4  613 400 403 489  169 0 255
4  615 384 383 610  169 0 255
4  612 401 400 613  169 0 255
4  612 313 314 490  169 0 255
3  612 653 313  169 0 255
5  615 652 315 310 384  169 0 255
4  615 610 653 652  169 0 255
4  613 652 653 612  169 0 255
4  606 341 34 23  0 255 0
4  606 575 340 341  0 255 0
3  536 422 421  255 170 0
3  531 419 420  255 170 0
4  536 421 419 531  255 170 0
4  594 520 521 376  255 170 0
4  376 36 35 594  255 170 0
4  374 482 480 586  255 170 0
4  375 481 462 461  255 170 0
4  374 460 459 482  255 170 0
4  375 461 460 374  255 170 0
5  373 580 632 364 561  255 0 169
4  372 582 580 373  255 0 169
4  371 31 30 508  255 0 169
4  371 504 506 370  255 0 169
4  370 27 31 371  255 0 169
4  370 506 507 509  255 0 169
5  372 555 362 633 582  255 0 169
4  372 373 561 555  255 0 169
7  506 286 365 358 590 361 507  255 0 169
4  504 371 508 505  255 0 169
4  504 601 286 506  255 0 169
4  580 356 435 632  255 0 169
4  582 357 356 580  255 0 169
4  582 633 436 357  255 0 169
6  562 428 323 322 325 404  255 0 0
4  575 22 37 340  0 255 0
4  409 345 344 410  0 255 0
4  566 549 617 559  0 170 255
3  566 60 61  0 170 255
4  556 558 614 547  0 170 255
5  431 429 430 434 432  255 0 0
3  21 427 523  0 170 255
5  559 510 416 495 637  0 170 255
5  558 511 534 609 614  0 170 255
5  558 497 496 415 511  0 170 255
3  431 522 429  0 170 255
3  518 448 447  0 255 170
4  565 424 423 644  255 0 169
5  565 10 12 361 590  255 0 169
5  644 423 426 359 326  255 0 169
4  644 11 10 565  255 0 169
5  565 590 358 425 424  255 0 169
4  644 326 16 11  255 0 169
3  640 30 31  169 255 0
4  545 10 502 546  255 0 0
4  546 502 498 4  255 0 0
4  542 277 331 544  255 0 0
5  542 11 16 589 278  255 0 0
4  544 503 11 542  255 0 0
6  544 331 257 321 6 5  255 0 0
3  359 426 436  255 0 169
7  359 363 601 504 505 386 326  255 0 169
5  358 365 364 632 435  255 0 169
5  359 436 633 362 363  255 0 169
3  358 435 425  255 0 169
4  357 436 435 356  255 0 169
4  410 344 458 602  0 255 0
4  602 458 457 600  0 255 0
4  360 346 28 352  255 0 0
4  387 347 346 360  255 0 0
4  387 86 85 354  255 0 0
4  485 268 86 387  255 0 0
4  387 360 483 485  255 0 0
5  532 510 559 617 611  0 170 255
4  534 511 415 418  0 170 255
4  538 513 512 537  255 0 0
4  532 417 416 510  0 170 255
4  534 418 417 532  0 170 255
5  24 578 327 328 529  0 170 255
5  525 412 411 639 396  0 255 170
4  526 413 412 525  0 255 170
5  526 399 643 414 413  0 255 170
4  526 525 396 399  0 255 170
4  514 541 626 657  0 0 255
4  514 577 574 515  0 0 255
3  515 543 540  0 0 255
4  515 574 379 656  0 0 255
3  514 539 541  0 0 255
4  514 515 540 539  0 0 255
4  593 464 463 592  0 0 255
4  48 294 297 49  255 0 0
6  48 46 440 444 295 294  255 0 0
4  49 50 548 554  169 0 255
7  49 297 296 443 273 439 50  255 0 0
4  48 552 550 46  169 0 255
4  612 490 402 401  169 0 255
4  613 489 316 315  169 0 255
4  49 554 552 48  169 0 255
4  587 479 481 375  255 170 0
4  586 480 479 587  255 170 0
4  375 374 586 587  255 170 0
3  573 3 4  0 255 170
4  530 493 492 573  0 255 170
5  530 6 7 318 448  0 255 170
3  530 5 6  0 255 170
4  544 5 501 503  255 0 0
4  530 573 4 5  0 255 170
5  25 486 330 329 569  0 170 255
6  556 547 553 407 329 58  0 170 255
6  566 61 327 406 551 549  0 170 255
3  556 58 59  0 170 255
4  569 329 327 578  0 170 255
4  551 406 407 553  0 170 255
4  547 451 450 549  0 170 255
4  549 450 449 617  0 170 255
4  553 547 549 551  0 170 255
4  427 512 513 429  255 0 0
4  522 637 497 523  0 170 255
4  523 427 429 522  0 170 255
4  482 419 477 480  255 170 0
5  520 420 419 482 459  255 170 0
5  481 421 422 521 462  255 170 0
4  521 520 459 462  255 170 0
3  519 445 446  0 255 170
7  517 447 448 318 8 9 442  0 255 170
5  518 447 635 628 627  0 255 170
4  517 516 445 447  0 255 170
3  380 301 465  0 0 255
4  380 378 302 301  0 0 255
4  41 651 642 40  255 0 0
4  40 42 291 290  0 0 255
7  40 642 655 395 470 597 42  255 0 0
4  515 656 621 543  0 0 255
4  41 293 292 45  0 0 255
4  514 657 381 577  0 0 255
4  40 290 293 41  0 0 255
4  509 26 27 370  255 0 169
6  509 507 361 12 13 26  255 0 169
6  508 30 14 15 386 505  255 0 169
4  5 4 498 501  255 0 0
4  503 501 498 502  255 0 0
6  313 309 306 312 337 314  169 0 255
4  503 502 10 11  255 0 0
4  333 147 148 385  255 0 0
5  486 300 275 299 21  255 0 0
6  427 21 299 224 323 428  255 0 0
5  512 427 428 562 537  255 0 0
4  629 398 397 630  0 255 170
4  495 416 415 496  0 170 255
4  496 497 637 495  0 170 255
4  634 623 628 635  0 255 170
4  447 445 634 635  0 255 170
4  628 623 625 627  0 255 170
4  534 532 611 609  0 170 255
4  609 603 452 614  0 170 255
4  617 449 598 611  0 170 255
4  611 598 603 609  0 170 255
4  614 452 451 547  0 170 255
4  603 598 449 452  0 170 255
4  493 73 72 494  0 255 170
4  491 70 71 492  0 255 170
4  494 72 70 491  0 255 170
4  494 491 492 493  0 255 170
4  487 305 308 488  169 0 255
4  488 308 307 311  169 0 255
7  489 403 548 50 51 339 316  169 0 255
7  490 314 336 47 46 550 402  169 0 255
4  487 312 306 305  169 0 255
4  488 311 312 487  169 0 255
4  46 47 438 440  255 0 0
4  403 402 550 548  169 0 255
6  316 338 311 307 310 315  169 0 255
3  314 337 336  169 0 255
3  316 339 338  169 0 255
4  326 386 15 16  255 0 169
4  659 442 441 658  0 255 170
7  381 657 626 248 44 45 292  0 0 255
4  577 381 379 574  0 0 255
4  364 599 604 362  255 0 169
4  362 604 601 363  255 0 169
4  555 561 364 362  255 0 169
4  627 625 411 414  0 255 170
5  543 588 466 463 540  0 0 255
5  539 464 465 591 541  0 0 255
4  540 463 464 539  0 0 255
4  541 591 584 626  0 0 255
8  41 45 596 469 274 300 647 651  255 0 0
5  25 39 647 300 486  255 0 0
4  484 32 33 405  255 0 0
4  405 269 268 485  255 0 0
6  405 33 37 22 404 325  255 0 0
4  485 483 484 405  255 0 0
4  479 478 421 481  255 170 0
4  480 477 478 479  255 170 0
4  478 477 419 421  255 170 0
4  473 282 281 474  169 255 0
4  475 283 282 473  169 255 0
4  474 281 280 476  169 255 0
4  39 471 472 38  0 170 255
4  385 298 388 433  255 0 0
4  470 368 369 597  255 0 0
5  45 44 377 367 596  255 0 0
7  42 43 249 621 656 379 291  0 0 255
7  469 225 219 224 299 275 274  255 0 0
5  42 597 369 595 43  255 0 0
4  469 596 367 225  255 0 0
6  468 394 340 345 409 391  0 255 0
4  467 389 392 408  0 255 0
5  466 588 585 455 302  0 0 255
4  462 459 460 461  255 170 0
5  342 32 34 341 343  0 255 0
4  344 33 32 342  0 255 0
4  344 342 457 458  0 255 0
4  454 303 302 455  0 0 255
4  453 304 303 454  0 0 255
4  456 301 304 453  0 0 255
4  456 453 454 455  0 0 255
4  452 449 450 451  0 170 255
4  443 7 6 321  255 0 0
4  444 2 0 295  255 0 0
4  443 296 8 7  255 0 0
4  442 9 1 441  0 255 170
4  439 437 51 50  255 0 0
5  439 273 251 250 437  255 0 0
4  51 616 620 339  169 0 255
4  47 618 616 51  169 0 255
4  51 437 438 47  255 0 0
4  426 425 435 436  255 0 169
4  426 423 424 425  255 0 169
4  418 415 416 417  0 170 255
4  414 411 412 413  0 255 170
5  410 408 392 391 409  0 255 0
4  327 61 60 328  0 170 255
4  407 406 327 329  0 170 255
4  405 325 322 269  255 0 0
4  403 400 401 402  169 0 255
4  399 396 397 398  0 255 170
3  300 274 275  255 0 0
4  39 38 655 647  255 0 0
4  394 393 341 340  0 255 0
4  392 389 390 391  0 255 0
5  43 245 244 622 249  0 0 255
4  44 246 245 43  0 0 255
4  298 225 367 377  255 0 0
4  298 385 148 203  255 0 0
4  388 595 369 368  255 0 0
4  44 43 595 377  255 0 0
4  298 377 595 388  255 0 0
4  387 354 29 347  255 0 0
4  310 309 383 384  169 0 255
4  339 620 619 336  169 0 255
4  336 619 618 47  169 0 255
4  72 641 646 70  0 255 170
4  647 655 642 651  255 0 0
5  650 23 34 32 484  255 0 0
5  456 584 591 465 301  0 0 255
4  456 455 585 584  0 0 255
4  381 292 291 379  0 0 255
4  621 585 588 543  0 0 255
4  626 584 585 621  0 0 255
5  624 247 246 44 248  0 0 255
4  622 244 247 624  0 0 255
4  626 621 249 248  0 0 255
4  624 248 249 622  0 0 255
4  620 616 618 619  169 0 255
4  288 86 84 238  255 0 0
4  354 15 14 29  255 0 0
7  354 85 607 319 589 16 15  255 0 0
3  607 287 319  255 0 0
5  607 85 86 288 287  255 0 0
3  542 278 277  255 0 0
4  225 298 220 219  255 0 0
4  264 262 261 263  255 0 0
4  366 320 262 264  255 0 0
4  366 143 144 320  255 0 0
6  366 264 78 79 255 143  255 0 0
5  265 324 223 79 78  255 0 0
4  365 286 599 364  255 0 169
4  223 324 323 224  255 0 0
4  263 261 124 123  255 0 0
4  272 285 284 233  255 0 0
6  324 265 263 123 122 209  255 0 0
4  272 270 209 285  255 0 0
4  271 232 235 237  255 0 0
4  237 235 234 236  255 0 0
4  271 237 84 267  255 0 0
4  267 84 86 268  255 0 0
4  554 548 550 552  169 0 255
6  206 205 75 74 80 228  255 0 0
6  260 80 74 125 124 261  255 0 0
4  233 284 74 75  255 0 0
4  352 28 13 12  255 0 0
4  349 28 29 350  169 255 0
4  351 348 349 350  169 255 0
4  29 28 346 347  255 0 0
5  345 340 37 33 344  0 255 0
4  337 312 311 338  169 0 255
4  339 336 337 338  169 0 255
4  333 196 193 147  255 0 0
4  142 289 276 266  255 0 0
4  289 331 277 276  255 0 0
4  330 59 58 329  0 170 255
4  319 116 524 589  255 0 0
4  285 208 207 284  255 0 0
5  285 209 122 167 208  255 0 0
4  324 209 322 323  255 0 0
4  209 270 269 322  255 0 0
5  321 256 251 273 443  255 0 0
3  321 257 256  255 0 0
6  320 144 243 77 76 262  255 0 0
5  260 76 77 81 80  255 0 0
4  228 80 81 145  255 0 0
4  69 20 18 66  255 0 0
7  266 279 524 151 118 18 20  255 0 0
4  116 319 287 115  255 0 0
3  296 9 8  255 0 0
4  295 1 9 296  255 0 0
3  318 7 8  0 255 170
3  317 0 2  0 255 170
3  295 0 1  255 0 0
4  310 307 306 309  169 0 255
4  308 305 306 307  169 0 255
4  304 301 302 303  0 0 255
4  236 234 139 138  255 0 0
5  116 114 83 211 524  255 0 0
4  298 203 221 220  255 0 0
4  297 294 295 296  255 0 0
4  293 290 291 292  0 0 255
7  135 166 201 258 289 142 109  255 0 0
4  288 238 115 287  255 0 0
4  604 599 286 601  255 0 169
3  266 276 279  255 0 0
6  157 134 229 175 177 158  255 0 0
5  103 120 212 82 104  255 0 0
4  536 531 533 535  255 170 0
4  135 117 102 101  255 0 0
4  437 250 253 213  255 0 0
4  120 154 153 212  255 0 0
4  524 211 152 151  255 0 0
4  231 176 62 63  255 0 0
4  232 63 62 235  255 0 0
4  524 279 278 589  255 0 0
4  289 258 257 331  255 0 0
4  203 218 222 221  255 0 0
3  183 254 198  255 0 0
8  255 79 223 222 218 199 198 254  255 0 0
7  229 19 17 119 154 120 121  255 0 0
3  103 121 120  255 0 0
4  68 67 17 19  255 0 0
5  284 207 168 125 74  255 0 0
4  283 280 281 282  169 255 0
4  117 135 111 110  255 0 0
7  182 164 117 108 134 157 156  255 0 0
5  211 137 240 239 152  255 0 0
4  212 136 139 82  255 0 0
5  212 153 242 241 136  255 0 0
4  279 276 277 278  255 0 0
3  201 259 258  255 0 0
6  127 189 158 177 230 205  255 0 0
6  202 217 252 259 201 165  255 0 0
5  213 253 252 217 216  255 0 0
4  259 252 251 256  255 0 0
4  230 177 176 231  255 0 0
4  232 271 272 233  255 0 0
4  270 272 271 267  255 0 0
4  270 267 268 269  255 0 0
4  93 142 266 20  255 0 0
4  265 78 264 263  255 0 0
4  262 76 260 261  255 0 0
6  93 20 69 65 226 89  255 0 0
6  91 90 227 64 68 19  255 0 0
5  126 192 190 189 127  255 0 0
4  134 91 19 229  255 0 0
4  259 256 257 258  255 0 0
5  255 254 183 52 143  255 0 0
4  253 250 251 252  255 0 0
8  56 197 579 146 145 81 77 243  255 0 0
4  247 244 245 246  0 0 255
4  56 243 144 55  255 0 0
4  200 202 100 99  255 0 0
6  188 215 200 163 182 155  255 0 0
4  137 211 83 138  255 0 0
4  136 241 240 137  255 0 0
4  242 153 152 239  255 0 0
4  242 239 240 241  255 0 0
5  115 238 84 83 114  255 0 0
5  84 237 236 138 83  255 0 0
5  176 105 104 82 62  255 0 0
5  235 62 82 139 234  255 0 0
7  205 230 231 63 232 233 75  255 0 0
5  175 229 121 103 105  255 0 0
4  145 128 206 228  255 0 0
4  226 65 64 227  255 0 0
4  227 90 89 226  255 0 0
4  224 219 222 223  255 0 0
4  222 219 220 221  255 0 0
4  204 181 576 572  255 0 0
5  204 572 97 218 203  255 0 0
5  199 218 97 96 179  255 0 0
4  181 204 149 141  255 0 0
5  197 180 95 98 579  255 0 0
5  146 579 98 576 181  255 0 0
4  202 200 187 186  255 0 0
7  216 217 202 186 185 132 161  255 0 0
6  215 159 133 184 187 200  255 0 0
4  214 210 191 195  255 0 0
4  214 160 162 210  255 0 0
6  214 213 216 161 131 160  255 0 0
6  210 162 130 159 215 188  255 0 0
4  195 191 169 174  255 0 0
4  214 195 194 213  255 0 0
3  133 159 130  255 0 0
4  133 132 185 184  255 0 0
4  191 210 188 190  255 0 0
4  208 167 168 207  255 0 0
4  128 127 205 206  255 0 0
4  149 204 203 148  255 0 0
6  202 165 166 135 101 100  255 0 0
3  201 166 165  255 0 0
6  200 99 102 117 164 163  255 0 0
3  182 163 164  255 0 0
5  199 179 178 183 198  255 0 0
4  56 57 180 197  255 0 0
4  95 180 179 96  255 0 0
4  174 169 171 173  255 0 0
5  195 174 172 193 194  255 0 0
4  150 140 141 149  255 0 0
4  173 171 140 150  255 0 0
5  193 172 173 150 147  255 0 0
5  170 192 126 140 171  255 0 0
5  169 191 190 192 170  255 0 0
4  190 188 155 189  255 0 0
4  187 184 185 186  255 0 0
4  183 178 53 52  255 0 0
3  155 182 156  255 0 0
4  181 141 129 146  255 0 0
4  57 54 53 178  255 0 0
4  57 178 179 180  255 0 0
4  177 175 105 176  255 0 0
3  174 173 172  255 0 0
3  171 169 170  255 0 0
4  168 167 122 125  255 0 0
3  161 132 131  255 0 0
4  160 131 130 162  255 0 0
4  576 98 97 572  255 0 0
5  189 155 156 157 158  255 0 0
4  154 119 118 151  255 0 0
4  154 151 152 153  255 0 0
4  150 149 148 147  255 0 0
4  146 129 128 145  255 0 0
4  144 143 52 55  255 0 0
4  109 142 93 94  255 0 0
4  141 140 126 129  255 0 0
4  139 136 137 138  255 0 0
5  135 109 106 112 111  255 0 0
4  134 108 92 91  255 0 0
4  133 130 131 132  255 0 0
4  129 126 127 128  255 0 0
4  125 122 123 124  255 0 0
4  67 66 18 17  255 0 0
4  119 17 18 118  255 0 0
5  117 110 113 107 108  255 0 0
3  116 115 114  255 0 0
4  112 106 107 113  255 0 0
4  113 110 111 112  255 0 0
4  109 94 88 106  255 0 0
4  108 107 87 92  255 0 0
4  107 106 88 87  255 0 0
3  105 103 104  255 0 0
4  102 99 100 101  255 0 0
4  98 95 96 97  255 0 0
4  88 94 93 89  255 0 0
4  92 87 90 91  255 0 0
4  90 87 88 89  255 0 0
3  69 66 65  255 0 0
3  68 64 67  255 0 0
4  67 64 65 66  255 0 0
4  57 56 55 54  255 0 0
4  55 52 53 54  255 0 0
6  51 47 46 48 49 50  255 0 0
6  47 51 50 49 48 46  169 0 255
6  45 41 40 42 43 44  255 0 0
6  41 45 44 43 42 40  0 0 255
4  39 25 24 38  255 0 0
4  25 39 38 24  0 170 255
6  37 33 32 34 23 22  255 0 0
6  33 37 22 23 34 32  0 255 0
4  36 22 23 35  255 170 0
4  22 36 35 23  0 255 0
6  31 27 26 13 14 30  255 0 169
6  27 31 30 14 13 26  169 255 0
4  29 14 13 28  255 0 0
4  29 28 13 14  169 255 0
8  21 427 429 431 529 24 25 486  255 0 0
8  427 21 486 25 24 529 431 429  0 170 255
6  404 22 23 650 568 562  255 0 0
6  22 404 562 568 650 23  255 170 0
7  16 11 10 12 13 14 15  255 0 0
7  11 16 15 14 13 12 10  255 0 169
10  9 1 0 2 3 4 5 6 7 8  255 0 0
10  1 9 8 7 6 5 4 3 2 0  0 255 170

