OFF
746 776 0

4.335 -6.05 67.55
5.08111 -4.55777 67.55
4.335 -6.05 76.85
5.08111 -4.55777 76.85
-3.46314 -2.25889 67.55
-3.46314 -2.25889 76.85
5.41538 -4.64771 67.55
5.41538 -4.64771 76.85
5.07311 -4.55562 76.85
4.71739 -4.45991 76.85
9.7509 3.62584 -78.15
9.7509 3.62584 67.55
10.52 4 -78.15
10.52 4 67.55
5 -11.52 -78.15
4.06272 -9.8329 -78.15
5 -11.52 67.55
4.06272 -9.8329 67.55
-13.32 -17.12 -78.15
-13.7493 -18.7052 -78.15
-13.32 -17.12 67.55
-13.7493 -18.7052 67.55
11.2173 17.0766 -78.15
11.2173 17.0766 67.55
11.0583 16.9835 -78.15
9.43064 16.0303 -78.15
8.24775 15.3376 -78.15
6.92 14.56 -78.15
6.92 14.56 -78.15
6.92 14.56 67.55
6.92 14.56 67.55
8.24775 15.3376 67.55
9.43064 16.0303 67.55
11.0583 16.9835 67.55
-4.3253 21.3642 -78.15
-4.3253 21.3642 67.55
-3.22207 21.0599 -78.15
2.36 19.52 -78.15
2.36 19.52 67.55
-3.22207 21.0599 67.55
9.3329 -7.47797 -78.15
7.01468 -10.4264 -78.15
9.3329 -7.47797 -78.15
9.3329 -7.47797 67.55
9.3329 -7.47797 67.55
7.01468 -10.4264 67.55
10.7572 -12.0091 -78.15
10.7572 -12.0091 67.55
9.24583 -11.5905 -78.15
7.37333 -11.072 -78.15
7.37333 -11.072 67.55
9.24583 -11.5905 67.55
15.5862 -9.17518 -78.15
15.7388 -8.56471 -78.15
14.6109 -13.0763 -78.15
14.6109 -13.0763 67.55
15.5862 -9.17518 67.55
15.7388 -8.56471 67.55
18.4593 2.31736 -78.15
18.4593 2.31736 67.55
17.3951 -1.9398 -78.15
17.2186 -2.64563 -78.15
17.2186 -2.64563 67.55
17.3951 -1.9398 67.55
9.48 5.92 -78.15
9.48 5.92 67.55
7.96336 5.11955 -78.15
7.96336 5.11955 67.55
-1.98136 -17.7877 -78.15
-1.98136 -17.7877 67.55
-1.79608 -18.1021 -78.15
-1.23816 -19.0486 -78.15
-0.609685 -20.1149 -78.15
0.36 -21.76 -78.15
0.36 -21.76 67.55
5.84146 7.79716 67.55
7.05546 7.47965 67.55
5.8494 -2.98396 67.55
6.47455 0.969091 67.55
-4.58886 -1.95601 67.55
-3.64928 1.75534 67.55
-3.5231 2.25376 67.55
-3 4.32 67.55
0.562817 3.43691 67.55
5.58658 2.1917 67.55
6.36 2 67.55
6.8605 0.891901 67.55
6.6542 0.101107 67.55
6.52211 -0.405263 67.55
5 -6.24 67.55
3.96 -6.8 67.55
3.1491 -6.58323 67.55
2.10181 -6.30326 67.55
0.804582 -5.95647 67.55
-1.74699 -5.27437 67.55
-2.98264 -4.94405 67.55
-4.12 -4.64 67.55
-3.81177 -3.52268 67.55
-3.62395 -2.84181 67.55
-3.64928 1.75534 76.85
5.8494 -2.98396 76.85
3.96 -6.8 76.85
6.47455 0.969091 76.85
3.1491 -6.58323 76.85
2.10181 -6.30326 76.85
0.804582 -5.95647 76.85
-1.74699 -5.27437 76.85
-2.98264 -4.94405 76.85
-4.12 -4.64 76.85
10.1302 -7.70577 67.55
14.4455 3.63124 -78.15
14.4455 3.63124 67.55
14.2895 3.42498 -78.15
10.8062 10.5052 67.55
10.8062 10.5052 -78.15
10.8062 10.5052 67.55
9.47296 10.9063 67.55
10.8062 10.5052 -78.15
2.76687 -14.8003 -78.15
1.47957 -12.5935 -78.15
3.59163 -16.2142 -78.15
3.59163 -16.2142 67.55
2.76687 -14.8003 67.55
1.47957 -12.5935 67.55
2.47432 -15.9218 -78.15
0.685156 -15.4534 -78.15
3.59163 -16.2142 -78.15
3.59163 -16.2142 67.55
2.47432 -15.9218 67.55
0.685156 -15.4534 67.55
-6.05031 5.07606 67.55
-6.62203 3.07407 -78.15
3.54929 -11.8011 -78.15
0.533499 -10.9717 -78.15
1.83097 -11.3285 -78.15
0.533499 -10.9717 67.55
5.4459 -12.3226 67.55
-3 -10 67.55
-5.41538 -9.33577 67.55
4.18563 -11.976 -78.15
5.4459 -12.3226 -78.15
-9.82002 -8.1245 67.55
-13.1934 -7.19682 67.55
-3 -10 -78.15
-9.82002 -8.1245 -78.15
-13.1934 -7.19682 -78.15
-5.05373 -9.43522 76.85
4.18563 -11.976 67.55
-5.05373 -9.43522 78.05
-7.88376 11.3868 -78.15
-7.88376 11.3868 67.55
-4.5008 10.5021 -78.15
1.98629 8.80543 -78.15
1.98629 8.80543 67.55
-4.5008 10.5021 67.55
8.48173 7.10662 -78.15
7.05546 7.47965 -78.15
10.5108 6.57595 -78.15
10.5108 6.57595 67.55
8.48173 7.10662 67.55
-8.74189 8.3834 -78.15
-10.0031 3.96906 -78.15
-7.35472 13.2385 -78.15
-7.35472 13.2385 67.55
-8.74189 8.3834 67.55
-10.0031 3.96906 67.55
-13.7475 -9.13621 67.55
-13.3228 -7.64991 67.55
-11.3625 -0.788726 67.55
-13.3228 -7.64991 -78.15
-13.7475 -9.13621 -78.15
-11.3625 -0.788726 -78.15
10.4774 6.44641 -78.15
10.4774 6.44641 67.55
9.99311 4.5662 -78.15
9.99311 4.5662 67.55
8.9396 0.476081 -78.15
8.9396 0.476081 67.55
6.41118 -9.34012 -78.15
7.05823 -6.82806 -78.15
6.05885 -10.708 -78.15
6.05885 -10.708 67.55
6.41118 -9.34012 67.55
7.05823 -6.82806 67.55
8.12198 5.7276 76.85
8.424 5.36267 76.85
8.424 5.36267 78.05
8.12198 5.7276 78.05
7.96336 5.11955 78.05
8.38105 5.34 78.05
10.5845 10.9239 67.55
9.54531 11.1837 67.55
9.54531 11.1837 -78.15
10.5845 10.9239 -78.15
-4.58886 -1.95601 78.05
-3.64928 1.75534 78.05
-3.24902 -10.9392 78.05
-3.24902 -10.9392 76.85
-4.37111 -10.0041 76.85
-4.37111 -10.0041 78.05
-3.09039 -10.3409 78.05
-3.09039 -10.3409 76.85
-1.72 -17.84 -78.15
-0.0694739 -18.1701 -78.15
-1.72 -17.84 67.55
-0.0694739 -18.1701 67.55
-3 4.32 78.05
-3.5231 2.25376 78.05
5.72305 7.73257 78.05
6.12381 4.12571 78.05
5.72305 7.73257 76.85
6.12381 4.12571 76.85
0.562817 3.43691 78.05
5.58658 2.1917 78.05
-4.73827 -2.54617 78.05
-4.73827 -2.54617 76.85
-4.58886 -1.95601 76.85
-4.73827 -2.54617 67.55
0.072248 -11.6667 78.05
0.072248 -11.6667 76.85
-0.781125 -11.5482 76.85
-0.781125 -11.5482 78.05
-0.534372 -10.678 78.05
0.293204 -10.9056 78.05
-0.534372 -10.678 76.85
0.293204 -10.9056 76.85
9.17061 3.34354 78.05
9.17061 3.34354 76.85
8.96204 1.35505 76.85
8.96204 1.35505 78.05
3.92598 -10.3571 78.05
3.92598 -10.3571 76.85
2.18488 -11.4258 76.85
2.18488 -11.4258 78.05
-3.81177 -3.52268 78.05
-4.31606 -2.65819 78.05
-3.62395 -2.84181 78.05
1.01531 -11.7977 76.85
1.01531 -11.7977 78.05
0.533499 -10.9717 78.05
0.533499 -10.9717 76.85
1.72562 -11.7078 78.05
1.72562 -11.7078 76.85
1.16397 -12.0525 76.85
1.16397 -12.0525 78.05
-4.31606 -2.65819 76.85
-3.62395 -2.84181 76.85
-3.81177 -3.52268 76.85
1.83097 -11.3285 78.05
-5.37009 -9.17159 76.85
-5.37009 -9.17159 78.05
-4.12 -4.64 78.05
-2.98264 -4.94405 78.05
-1.85673 8.83591 76.85
-0.52216 9.46149 76.85
-0.52216 9.46149 78.05
-1.85673 8.83591 78.05
6.52211 -0.405263 78.05
4.97869 0.00328759 78.05
5.11689 0.500808 78.05
6.6542 0.101107 78.05
6.57837 -7.49996 78.05
6.57837 -7.49996 76.85
6.0726 -8.73068 76.85
6.0726 -8.73068 78.05
-0.241091 -9.64384 78.05
1.83097 -11.3285 76.85
-7.65828 -3.69412 78.05
-7.65828 -3.69412 76.85
-7.70327 -1.75954 76.85
-7.70327 -1.75954 78.05
8.57277 -0.948085 78.05
8.70563 -0.432264 78.05
-0.241091 -9.64384 76.85
6.9591 7.13276 76.85
6.9591 7.13276 78.05
5.31158 1.20168 78.05
6.8605 0.891901 78.05
6.52211 -0.405263 76.85
6.6542 0.101107 76.85
8.70563 -0.432264 76.85
8.57277 -0.948085 76.85
-5.35317 -9.11024 76.85
-6.11193 -7.97211 76.85
-6.11193 -7.97211 78.05
-5.35317 -9.11024 78.05
3.37353 -5.77529 78.05
1.51321 -5.24377 78.05
1.17787 -4.64016 78.05
1.47628 -3.58787 78.05
3.80696 -4.21495 78.05
9.15376 1.30753 76.85
9.15376 1.30753 78.05
7.10161 1.81618 78.05
7.10161 1.81618 76.85
6.8654 -7.57669 78.05
6.8654 -7.57669 76.85
5.1814 -7.12651 78.05
5.1814 -7.12651 76.85
3.21053 -8.29895 78.05
2 -10.72 78.05
3.21053 -8.29895 76.85
2 -10.72 76.85
-3.64 8 76.85
-3.64 8 78.05
7.65283 -4.51962 78.05
6.56045 -2.59612 78.05
8.40782 -1.58846 78.05
6.56045 -2.59612 76.85
8.40782 -1.58846 76.85
7.65283 -4.51962 76.85
-1.26775 -3.46692 78.05
-3.46314 -2.25889 78.05
-1.11495 -2.89068 78.05
8.38105 5.34 76.85
8.83566 3.18059 76.85
8.83566 3.18059 78.05
8.9396 0.476081 78.05
2.85185 -7.65333 78.05
7.96336 5.11955 76.85
5.90292 -9.14357 78.05
5.90292 -9.14357 76.85
4.24511 -10.1612 76.85
4.24511 -10.1612 78.05
5 -6.24 78.05
5.41538 -4.64771 78.05
7.47696 -5.20239 78.05
5.8494 -2.98396 78.05
7.47696 -5.20239 76.85
7.25723 2.41271 78.05
7.43546 3.09594 76.85
7.25723 2.41271 76.85
4.06272 -9.8329 78.05
2.85185 -7.65333 76.85
4.06272 -9.8329 76.85
6.8605 0.891901 76.85
8.9396 0.476081 76.85
0.0017073 1.32072 78.05
0.128221 1.79786 78.05
-5.97855 5.32738 78.05
-5.97855 5.32738 76.85
-3 4.32 76.85
7.05823 -6.82806 78.05
-5.19556 -4.35247 76.85
-5.19556 -4.35247 78.05
5 -6.24 76.85
7.05823 -6.82806 76.85
4.90059 -6.62106 78.05
4.90059 -6.62106 76.85
4.79564 -7.02339 76.85
6.36 2 76.85
5.58658 2.1917 76.85
7.10161 1.81618 67.55
-3.31711 -11.196 76.85
-3.31711 -11.196 78.05
0.239137 2.21617 78.05
-2.07292 -6.50357 78.05
-0.132803 0.813429 78.05
-2.44477 1.43271 78.05
-6.76062 2.58874 78.05
-6.62203 3.07407 78.05
-7.9813 -1.68578 78.05
-7.81091 -1.08909 78.05
-7.9813 -1.68578 76.85
-7.81091 -1.08909 76.85
-6.21791 -8.39075 76.85
-7.64 -4.48 76.85
-7.64 -4.48 78.05
-6.21791 -8.39075 78.05
6.13128 4.15262 78.05
9.37469 -0.606218 -78.15
8.89614 0.307368 -78.15
8.89614 0.307368 67.55
9.37469 -0.606218 67.55
11.32 -6.41634e-08 67.55
11.32 -6.41634e-08 -78.15
6.71938 4.46301 76.85
6.13128 4.15262 76.85
-3 -10 78.05
-3 -10 76.85
1.0219 5.16831 78.05
1.98629 8.80543 78.05
5.84146 7.79716 78.05
1.98629 8.80543 76.85
5.84146 7.79716 76.85
1.0219 5.16831 76.85
-2.07292 -6.50357 76.85
-3.5231 2.25376 76.85
-6.76062 2.58874 76.85
-6.62203 3.07407 76.85
4.79564 -7.02339 67.55
7.43546 3.09594 67.55
6.71938 4.46301 67.55
-15.2513 -6.56629 -78.15
-15.2513 -6.56629 67.55
-15.9556 -6.95754 67.55
-15.9556 -6.95754 -78.15
-6.05031 5.07606 78.05
-6.05031 5.07606 76.85
-11.579 -12.8419 -78.15
10.2503 4.49789 -78.15
10.2503 4.49789 67.55
5.99292 -10.964 -78.15
5.99292 -10.964 67.55
6.13128 4.15262 67.55
17.08 -3.2 -78.15
17.08 -3.2 67.55
16.0057 -7.49711 -78.15
16.0057 -7.49711 67.55
-19.2978 1.31657 -78.15
-7.9813 -1.68578 -78.15
-19.2978 1.31657 67.55
-7.81091 -1.08909 -78.15
-9.93864 -8.5399 -78.15
7 -10.4 67.55
7 -10.4 -78.15
6.32059 -10.7805 -78.15
6.32059 -10.7805 67.55
11.8598 -0.107967 67.55
-8.46708 -18.1599 -78.15
-8.46708 -18.1599 67.55
7.05546 7.47965 76.85
8.25564 1.53014 67.55
7.10161 1.81618 -78.15
8.25564 1.53014 -78.15
8.79234 0.505532 67.55
8.79234 0.505532 -78.15
7.68447 2.62055 67.55
7.68447 2.62055 -78.15
-4.31606 -2.65819 67.55
-2.07292 -6.50357 67.55
-7.9813 -1.68578 67.55
7.15614 -6.44792 67.55
7.15614 -6.44792 -78.15
8.35792 -5.76119 -78.15
8.35792 -5.76119 67.55
11.9644 0.351511 -78.15
9.93941 -0.753047 -78.15
9.93941 -0.753047 67.55
11.9644 0.351511 67.55
-8.34773 -19.9655 -78.15
-8.34773 -19.9655 67.55
-11.1887 -0.18029 67.55
-11.1887 -0.18029 -78.15
15.2369 2.13649 67.55
15.2369 2.13649 -78.15
11.0867 4.27571 -78.15
11.0867 4.27571 67.55
11.6139 -1.18841 -78.15
11.6139 -1.18841 67.55
12.7568 3.8321 -78.15
12.7568 3.8321 67.55
10.0641 4.84171 -78.15
10.0641 4.84171 67.55
-2.52 -17.68 67.55
-2.52 -17.68 -78.15
9.3329 -7.47797 -78.15
9.3329 -7.47797 67.55
16.3613 -8.72032 -78.15
18.28 -9.2 -78.15
18.28 -9.2 67.55
16.3613 -8.72032 67.55
-9.93864 -8.5399 67.55
-7.81091 -1.08909 67.55
6.8605 0.891901 -78.15
-17.64 9.44 -78.15
-17.1335 9.35558 -78.15
-17.1335 9.35558 67.55
-17.64 9.44 67.55
-10.84 12.16 -78.15
-10.4309 11.4237 -78.15
-10.4309 11.4237 67.55
-10.84 12.16 67.55
-1.59221 -23.6519 -78.15
-4.04 -23.04 -78.15
-4.04 -23.04 67.55
-1.59221 -23.6519 67.55
8.59793 -13.2763 67.55
8.59793 -13.2763 -78.15
-6.62203 3.07407 67.55
11.64 10.96 -78.15
10.8062 10.5052 -78.15
10.8062 10.5052 67.55
11.64 10.96 67.55
-18.4817 6.2134 67.55
-17.7372 7.11343 67.55
-18.0129 6.08929 67.55
0.36 -21.76 -78.15
-0.225 -24.1 -78.15
-0.225 -24.1 67.55
0.36 -21.76 67.55
6.92 14.56 67.55
6.92 14.56 -78.15
6.04 14.8 -78.15
6.04 14.8 67.55
2.20963 18.8809 -78.15
2.20963 18.8809 67.55
-5.8 -20.56 67.55
-5.8 -20.56 -78.15
-7.26228 -20.2188 -78.15
-7.26228 -20.2188 67.55
1.0219 5.16831 67.55
5.84146 7.79716 -78.15
1.0219 5.16831 -78.15
5.11689 0.500808 -78.15
6.6542 0.101107 -78.15
0.128221 1.79786 -78.15
5 -6.24 -78.15
4.90059 -6.62106 67.55
4.90059 -6.62106 -78.15
5.58054 -12.565 -78.15
5.58054 -12.565 67.55
3.59163 -16.2142 -78.15
3.59163 -16.2142 67.55
10.3568 19.3643 -78.15
11.5904 19.0231 -78.15
11.5904 19.0231 67.55
10.3568 19.3643 67.55
11.4926 -1.72099 67.55
11.4926 -1.72099 -78.15
-4.68 20 -78.15
-4.68 20 67.55
-17.1195 -6.65145 67.55
-16.5098 -4.41576 67.55
-16.5098 -4.41576 -78.15
-17.1195 -6.65145 -78.15
-14.0658 4.54548 67.55
-15.0698 0.863964 -78.15
-14.0658 4.54548 -78.15
-15.0698 0.863964 67.55
16.5152 2.83377 67.55
16.5152 2.83377 -78.15
11.0916 17.1113 67.55
9.82776 17.4599 67.55
11.0916 17.1113 -78.15
9.82776 17.4599 -78.15
0.912846 -21.9074 -78.15
0.912846 -21.9074 67.55
-0.968276 -21.4058 -78.15
-0.968276 -21.4058 67.55
-14.44 -16.88 -78.15
-14.44 -16.88 67.55
13.4863 5.44306 -78.15
13.4863 5.44306 67.55
-1.79608 -18.1021 67.55
-1.23816 -19.0486 67.55
-0.609685 -20.1149 67.55
10.5141 -6.01954 -78.15
10.5141 -6.01954 67.55
-1 -15.36 -78.15
0.6 -15.76 -78.15
0.6 -15.76 67.55
-1 -15.36 67.55
-18.0129 6.08929 -78.15
7.48 20.16 -78.15
-17.7372 7.11343 -78.15
7.48 20.16 67.55
-10.4309 11.4237 -78.15
6.96665 18.2492 67.55
-10.4309 11.4237 67.55
6.96665 18.2492 -78.15
-10.4309 11.4237 -78.15
-12.2922 4.57498 -78.15
-12.2922 4.57498 67.55
-10.4309 11.4237 67.55
6.87898 17.9229 -78.15
6.87898 17.9229 67.55
3.02881 -22.4717 -78.15
3.02881 -22.4717 67.55
4.31928 -17.4616 -78.15
4.31928 -17.4616 67.55
-15.24 0.24 -78.15
-15.24 0.24 67.55
-18.2272 -1.48074 -78.15
-20.3857 -2.72407 -78.15
-20.3857 -2.72407 67.55
8.17922 11.5252 67.55
8.17922 11.5252 -78.15
-18.2272 -1.48074 67.55
6.28 12 -78.15
6.28 12 67.55
-3.24151 -20.2243 -78.15
-3.24151 -20.2243 67.55
4.26912 8.20838 67.55
5.26686 7.94744 67.55
-0.534372 -10.678 -78.15
-0.534372 -10.678 67.55
-13.514 -0.217923 -78.15
-13.514 -0.217923 67.55
-15.2513 -6.56629 -78.15
-15.2513 -6.56629 67.55
12.1206 -12.3866 67.55
12.1206 -12.3866 -78.15
11.619 -11.5034 67.55
11.619 -11.5034 -78.15
0.293204 -10.9056 67.55
0.293204 -10.9056 -78.15
-2.2419 -19.6376 67.55
-2.2419 -19.6376 -78.15
0.562817 3.43691 76.85
-11.9771 -12.1616 67.55
-10.9259 -8.28026 67.55
-11.9771 -12.1616 -78.15
-10.9259 -8.28026 -78.15
-12.7493 -10.8419 67.55
-11.9562 -8.00931 67.55
-12.7493 -10.8419 -78.15
-11.9562 -8.00931 -78.15
7.47791 16.7916 -78.15
7.47791 16.7916 67.55
5.26686 7.94744 -78.15
-4.76308 14.7674 67.55
-8.04745 -18.877 -78.15
-4.76308 14.7674 -78.15
-11.579 -12.8419 67.55
-8.04745 -18.877 67.55
7.37619 8.63429 -78.15
12.1819 -11.173 -78.15
10.1302 -7.70577 -78.15
7.37619 8.63429 67.55
13.0529 -12.6448 -78.15
13.0529 -12.6448 67.55
12.1819 -11.173 67.55
13.0829 16.562 -78.15
13.0829 16.562 67.55
11.2883 9.59459 -78.15
11.2883 9.59459 67.55
9.84294 12.3246 67.55
-19.1259 1.95527 -78.15
9.84294 12.3246 -78.15
14.5981 3.343 -78.15
21.1246 1.60941 -78.15
21.1246 1.60941 67.55
14.2895 3.42498 67.55
14.5981 3.343 67.55
-1.71667 -24.1 -78.15
-1.71667 -24.1 67.55
-0.133411 -18.4003 -78.15
-0.133411 -18.4003 67.55
2.85185 -7.65333 67.55
3.54929 -11.8011 67.55
1.83097 -11.3285 67.55
9.47296 10.9063 -78.15
8.12036 11.3133 -78.15
2.99567 19.3446 -78.15
4.6591 18.8858 -78.15
8.12036 11.3133 67.55
4.6591 18.8858 67.55
2.99567 19.3446 67.55
4.26912 8.20838 -78.15
-6.76062 2.58874 -78.15
-6.76062 2.58874 67.55
-12.28 -13.28 -78.15
-18.1351 5.63546 -78.15
-18.1351 5.63546 67.55
-12.28 -13.28 67.55
-0.132803 0.813429 -78.15
-9.07424 -22.5991 -78.15
-9.07424 -22.5991 67.55
10.2472 -7.1918 67.55
10.2472 -7.1918 -78.15
-0.241091 -9.64384 67.55
-2.07292 -6.50357 -78.15
-0.241091 -9.64384 -78.15
9.93907 -8.54533 -78.15
-3.56 19.68 -78.15
9.93907 -8.54533 67.55
1.23963 18.3087 -78.15
-14.8526 -7.24759 67.55
-3.56 19.68 67.55
-3.09039 -10.3409 67.55
-14.8526 -7.24759 -78.15
3.38697 -12.4233 -78.15
1.23963 18.3087 67.55
-3.09039 -10.3409 -78.15
3.38697 -12.4233 67.55
2.18227 -17.0413 67.55
8.89738 14.1106 -78.15
8.89738 14.1106 67.55
-9.69185 11.8597 67.55
7.05546 7.47965 78.05
-6.2719 13.8773 67.55
-6.2719 13.8773 -78.15
7.25723 2.41271 -78.15
-5.51664 -9.70282 67.55
9.12977 9.59078 -78.15
9.12977 9.59078 67.55
7.25723 2.41271 67.55
-16.0141 13.5132 67.55
-9.69185 11.8597 -78.15
-18.4817 6.2134 -78.15
17.08 -13.76 -78.15
17.08 -13.76 67.55
-20.04 -1.44 67.55
-20.04 -1.44 -78.15
4.82737 -15.489 -78.15
4.82737 -15.489 67.55
10.1302 -7.70577 -78.15
10.1302 -7.70577 67.55
12.414 7.46847 67.55
12.414 7.46847 -78.15
1.47628 -3.58787 -78.15
3.80696 -4.21495 -78.15
19.8264 -3.32367 -78.15
17.8566 -2.81151 -78.15
17.8566 -2.81151 67.55
19.8264 -3.32367 67.55
3 22.24 -78.15
-13.9389 5.01087 -78.15
-12.5272 10.187 -78.15
2.18227 -17.0413 -78.15
-13.9389 5.01087 67.55
0.0017073 1.32072 -78.15
-1.11495 -2.89068 -78.15
11.9644 0.35151 -78.15
11.8598 -0.107967 -78.15
-12.5272 10.187 67.55
-14.4202 -21.1821 -78.15
11.9644 0.351511 -78.15
11.9644 0.351511 67.55
-14.4202 -21.1821 67.55
11.9644 0.35151 67.55
16.9659 -1.12917 -78.15
-3.64 24 -78.15
16.9659 -1.12917 67.55
-3.64 24 67.55
6.62043 -14.4368 -78.15
6.62043 -14.4368 67.55
-14.8773 -18.442 67.55
-2.57141 23.7168 -78.15
-15.24 0.24 -78.15
-21.1572 -5.58959 -78.15
5.41538 -4.64771 -78.15
-14.8773 -18.442 -78.15
-15.24 0.24 67.55
-15.56 -20.88 67.55
-2.57141 23.7168 67.55
-21.1572 -5.58959 67.55
-19.4763 0.653771 67.55
-15.56 -20.88 -78.15
-19.4763 0.653771 -78.15
6.52211 -0.405263 -78.15
3 22.24 67.55
-19.1259 1.95527 67.55
-5.51664 -9.70282 -78.15
-16.0141 13.5132 -78.15
4  713 656 650 412  255 0 0
4  713 662 663 701  255 0 0
6  713 412 410 144 143 662  255 0 0
6  712 506 503 152 151 131  255 0 0
7  712 656 713 701 702 732 741  255 0 0
4  712 131 650 656  255 0 0
10  152 645 644 495 667 613 682 162 149 151  255 36 0
5  152 503 502 610 649  255 0 0
4  152 153 647 645  255 36 0
4  628 527 529 743  255 72 0
4  628 409 730 527  255 72 0
4  628 743 411 409  255 72 0
4  740 409 411 738  255 72 0
4  740 694 574 573  255 72 0
5  740 573 571 730 409  255 72 0
4  740 738 693 694  255 72 0
7  732 702 134 132 15 509 507  255 0 0
5  732 6 77 88 741  255 0 0
4  745 469 472 688  255 109 0
4  732 507 89 6  255 0 0
4  553 708 709 555  255 109 0
4  553 690 484 486  0 0 255
5  553 555 466 465 690  0 0 255
6  745 466 555 709 470 469  255 109 0
4  745 688 467 466  255 109 0
5  741 505 504 506 712  255 0 0
4  741 88 87 505  255 0 0
4  738 578 575 693  255 72 0
4  6 7 100 77  255 0 72
4  6 89 345 7  255 0 36
3  689 149 162  0 36 255
4  689 162 163 679  0 36 255
6  710 124 125 550 203 637  36 0 255
5  710 536 567 569 512  36 0 255
5  676 537 74 546 638  36 0 255
5  710 637 72 73 536  36 0 255
6  676 638 205 551 129 128  36 0 255
4  731 574 575 737  0 72 255
4  668 166 170 671  0 109 255
4  671 589 590 668  0 109 255
3  671 170 169  0 109 255
5  737 575 578 523 522  0 72 255
5  731 525 524 573 574  0 72 255
4  737 522 525 731  0 72 255
6  668 590 588 168 142 167  0 109 255
4  743 529 734 411  255 72 0
5  738 411 734 572 578  255 72 0
6  155 685 642 643 616 156  255 182 0
5  155 66 64 172 157  255 218 0
8  155 156 504 505 464 423 683 66  255 0 0
4  152 649 583 153  255 0 0
6  159 76 619 646 116 686  255 182 0
4  553 653 528 708  255 109 0
4  553 486 654 653  255 109 0
4  625 157 172 700  255 182 0
4  626 699 173 158  255 182 0
4  625 700 699 626  255 182 0
5  703 631 58 60 704  109 0 255
3  704 60 61  109 0 255
4  706 632 631 703  109 0 255
5  705 63 59 632 706  109 0 255
4  706 703 704 705  109 0 255
5  702 701 663 133 134  255 0 0
5  638 545 544 204 205  36 0 255
3  637 71 72  36 0 255
5  637 203 202 70 71  36 0 255
5  581 598 70 68 455  255 145 0
7  582 597 545 546 539 476 475  255 145 0
5  582 454 69 544 597  255 145 0
4  581 455 454 582  255 145 0
10  153 154 150 163 681 611 673 496 648 647  255 36 0
3  679 163 150  0 36 255
8  695 510 140 139 672 118 120 126  218 255 0
3  696 511 727  218 255 0
3  695 726 510  218 255 0
4  696 727 726 695  218 255 0
5  691 459 458 52 54  145 0 255
3  47 593 591  145 255 0
4  47 477 50 51  182 0 255
4  692 460 459 691  145 0 255
4  46 478 477 47  182 0 255
4  46 594 664 48  145 255 0
3  46 592 594  145 255 0
5  692 55 56 461 460  145 0 255
4  692 691 54 55  145 0 255
4  47 591 592 46  145 255 0
5  689 557 561 160 149  0 36 255
4  689 679 559 557  0 36 255
3  648 496 38  109 255 0
3  644 37 495  109 255 0
4  648 38 37 644  109 255 0
4  682 613 611 681  255 36 0
4  681 163 162 682  255 36 0
4  34 36 729 723  255 0 255
4  35 39 669 521  109 255 0
4  34 520 665 36  109 255 0
4  35 521 520 34  109 255 0
4  739 717 19 733  72 255 0
4  735 720 717 739  72 255 0
4  604 166 167 605  36 255 0
4  604 600 602 606  36 255 0
4  606 170 166 604  36 255 0
4  606 602 603 607  36 255 0
4  735 728 21 720  72 255 0
4  735 739 733 728  72 255 0
7  602 399 419 612 744 413 603  36 255 0
4  600 604 605 601  36 255 0
4  600 614 399 602  36 255 0
4  717 657 440 19  72 255 0
4  720 658 657 717  72 255 0
4  720 21 441 658  72 255 0
6  153 501 83 82 130 154  255 0 0
5  679 150 164 564 559  0 36 255
4  485 716 711 486  255 109 0
4  629 24 25 677  255 0 218
3  629 192 193  255 0 218
6  627 191 116 646 576 678  255 0 218
6  629 677 577 643 642 192  255 0 218
4  627 678 32 33  255 0 218
5  156 502 503 506 504  255 0 0
3  76 75 619  0 145 255
6  677 26 27 492 579 577  255 0 218
3  678 31 32  255 0 218
6  678 576 580 491 30 31  255 0 218
3  156 616 502  0 145 255
4  676 128 121 513  36 0 255
4  674 498 497 670  36 255 0
5  674 143 144 413 744  36 255 0
5  670 497 500 615 684  36 255 0
4  670 137 143 674  36 255 0
5  674 744 612 499 498  36 255 0
6  671 169 145 171 587 589  0 109 255
4  670 684 138 137  36 255 0
3  668 167 166  0 109 255
4  662 143 585 663  255 0 0
4  663 585 596 133  255 0 0
4  430 94 93 661  255 0 0
5  430 137 138 96 95  255 0 0
4  661 586 137 430  255 0 0
6  661 93 92 639 641 135  255 0 0
3  615 500 441  0 255 36
7  615 420 614 600 601 462 684  36 255 0
5  612 419 18 19 440  0 255 36
5  615 441 21 20 420  0 255 36
3  612 440 499  0 255 36
4  658 441 440 657  72 255 0
4  486 711 526 654  255 109 0
4  654 526 528 653  255 109 0
4  412 443 171 410  0 255 72
4  463 442 443 412  0 255 72
4  463 79 217 431  255 0 0
4  651 80 79 463  255 0 0
4  463 412 650 651  255 0 0
6  565 608 26 25 535 560  0 255 0
5  566 609 30 29 494  0 255 0
4  649 610 584 583  255 0 0
5  565 493 28 27 608  0 255 0
4  566 494 493 565  0 255 0
5  157 625 481 685 155  255 182 0
5  635 488 487 538 473  255 145 0
4  636 489 488 635  255 145 0
5  636 476 539 490 489  255 145 0
3  638 546 545  36 0 255
4  636 635 473 476  255 145 0
4  634 444 719 633  255 255 0
4  634 111 110 630  255 255 0
3  630 445 531  255 255 0
3  630 110 112  255 255 0
3  634 530 444  255 255 0
4  634 630 531 530  255 255 0
4  632 59 58 631  109 0 255
3  677 25 26  255 0 218
4  180 402 403 181  255 0 145
6  180 178 509 15 14 402  255 0 145
4  181 182 414 417  218 0 255
7  181 403 16 17 390 508 182  255 0 145
4  180 416 415 178  218 0 255
4  46 48 49 478  182 0 255
4  47 51 666 593  145 255 0
4  181 417 416 180  218 0 255
4  725 736 39 35  255 0 255
4  723 729 736 725  255 0 255
4  35 34 723 725  255 0 255
3  119 134 133  218 255 0
4  119 125 124 118  0 255 145
4  123 129 125 119  0 255 145
5  123 641 640 675 122  218 255 0
3  123 135 641  218 255 0
4  661 135 595 586  255 0 0
4  123 119 133 135  218 255 0
5  158 159 686 482 626  255 182 0
8  627 33 23 624 483 115 113 190  255 0 218
8  629 193 117 114 480 623 22 24  255 0 218
3  627 190 191  255 0 218
4  626 482 481 625  255 182 0
4  623 480 483 624  255 0 218
4  532 516 515 534  0 255 0
4  532 33 32 533  0 255 0
3  534 24 22  0 255 0
4  534 515 514 535  0 255 0
3  532 23 33  0 255 0
4  624 23 22 623  255 0 218
4  534 22 23 532  0 255 0
4  75 584 610 502  255 0 0
4  616 643 646 619  255 182 0
4  619 75 502 616  0 145 255
4  36 37 707 729  255 0 255
3  613 667 665  0 255 182
5  39 38 496 673 669  109 255 0
5  36 665 667 495 37  109 255 0
3  611 669 673  0 255 182
4  611 613 665 669  0 255 182
4  710 512 120 124  36 0 255
8  696 127 121 122 675 147 136 511  218 255 0
5  676 513 570 568 537  36 0 255
4  696 695 126 127  218 255 0
3  705 62 63  109 0 255
4  705 704 61 62  109 0 255
4  175 453 452 174  72 0 255
4  174 10 12 400  255 0 109
7  174 452 64 66 683 428 10  72 0 255
4  630 112 718 445  255 255 0
4  175 401 13 11  255 0 109
3  634 633 111  255 255 0
4  174 400 401 175  255 0 109
3  609 31 30  0 255 0
6  609 566 558 533 32 31  0 255 0
3  608 27 26  0 255 0
4  607 169 170 606  36 255 0
6  607 603 413 144 145 169  36 255 0
6  605 167 142 141 462 601  36 255 0
4  135 133 596 595  255 0 0
4  586 595 596 585  255 0 0
3  598 71 70  255 145 0
7  598 581 474 473 538 72 71  255 145 0
3  597 544 545  255 145 0
4  593 622 621 591  145 255 0
5  594 617 618 697 664  145 255 0
4  591 621 620 592  145 255 0
4  592 620 617 594  145 255 0
4  586 585 143 137  255 0 0
4  88 278 279 87  255 0 72
5  159 67 392 404 76  255 0 0
6  75 76 404 84 83 501  255 0 0
5  584 75 501 153 583  255 0 0
4  582 475 474 581  255 145 0
4  576 646 643 577  255 0 218
4  579 492 491 580  255 0 218
4  580 576 577 579  255 0 218
3  512 126 120  36 0 255
4  569 567 568 570  36 0 255
4  513 127 126 512  36 0 255
4  513 512 569 570  36 0 255
4  568 567 536 537  36 0 255
4  566 565 560 558  0 255 0
4  558 556 517 533  0 255 0
4  535 514 554 560  0 255 0
4  535 25 24 534  0 255 0
4  560 554 556 558  0 255 0
4  533 517 516 532  0 255 0
4  556 554 514 517  0 255 0
4  550 125 129 551  36 0 255
4  551 205 204 552  36 0 255
4  549 202 203 550  36 0 255
4  552 204 202 549  36 0 255
4  552 549 550 551  36 0 255
4  547 407 408 548  182 255 0
4  548 408 57 659  182 255 0
6  51 50 45 44 457 666  145 255 0
6  48 664 456 40 41 49  145 255 0
4  547 660 53 407  182 255 0
4  548 659 660 547  182 255 0
4  178 179 507 509  255 0 145
5  182 183 44 45 414  218 0 255
5  178 415 41 40 179  218 0 255
4  50 49 41 45  145 255 0
5  666 698 109 622 593  145 255 0
3  664 697 456  145 255 0
3  666 457 698  145 255 0
4  684 462 141 138  36 255 0
4  727 511 510 726  218 255 0
4  542 110 111 543  0 255 218
5  446 450 112 110 542  0 255 218
5  543 111 633 451 447  0 255 218
7  447 451 439 374 177 11 13  0 255 218
4  543 447 446 542  0 255 218
4  540 733 19 18  255 0 182
4  541 728 733 540  255 0 182
4  18 652 655 20  0 255 36
4  20 21 728 541  255 0 182
4  20 655 614 420  0 255 36
4  541 540 18 20  255 0 182
4  539 546 74 490  255 145 0
4  538 487 73 72  255 145 0
4  537 536 73 74  36 0 255
5  445 722 60 58 531  255 255 0
5  530 59 63 724 444  255 255 0
4  531 58 59 530  255 255 0
5  444 724 418 721 719  255 255 0
8  175 11 427 687 391 67 65 453  72 0 255
5  158 173 65 67 159  255 218 0
4  131 161 165 479  0 255 255
4  479 81 80 651  255 0 0
6  479 165 164 150 154 130  0 255 255
4  651 650 131 479  255 0 0
4  736 742 38 39  255 0 255
4  729 707 742 736  255 0 255
4  742 707 37 38  255 0 255
6  524 393 589 587 571 573  0 72 255
4  522 395 396 525  0 72 255
4  523 394 395 522  0 72 255
6  523 578 572 588 590 394  0 72 255
4  525 396 393 524  0 72 255
4  173 699 700 172  255 182 0
4  87 86 464 505  255 0 0
4  683 423 424 428  72 0 255
5  11 177 425 422 427  72 0 255
7  10 176 375 436 450 446 12  0 255 218
7  687 352 85 84 404 392 391  255 0 0
5  10 428 424 426 176  72 0 255
4  687 427 422 352  72 0 255
6  688 472 471 716 485 467  255 109 0
4  690 465 468 484  0 0 255
5  60 722 715 448 61  255 255 0
4  669 665 520 521  109 255 0
5  708 562 561 470 709  255 109 0
4  711 563 562 708  255 109 0
4  711 708 528 526  255 109 0
4  519 405 61 448  255 255 0
4  518 406 405 519  255 255 0
4  449 62 406 518  255 255 0
4  449 518 519 448  255 255 0
4  517 514 515 516  0 255 0
4  122 128 129 123  0 255 145
3  118 124 120  0 255 145
5  118 672 132 134 119  218 255 0
3  122 121 128  0 255 145
3  513 121 127  36 0 255
4  17 640 641 639  255 0 0
4  15 132 139 14  0 255 109
4  17 16 147 640  0 255 109
4  511 136 140 510  218 255 0
4  508 89 183 182  255 0 145
5  508 390 90 0 89  255 0 0
5  183 432 435 43 44  218 0 255
4  179 433 432 183  218 0 255
4  183 89 507 179  255 0 145
4  500 499 440 441  0 255 36
4  500 497 498 499  36 255 0
3  492 27 28  255 0 218
3  491 29 30  255 0 218
4  494 29 28 493  0 255 0
4  492 28 29 491  255 0 218
4  490 74 73 487  255 145 0
4  490 487 488 489  255 145 0
5  486 484 468 467 485  0 0 255
4  481 117 642 685  255 182 0
3  482 113 115  255 182 0
3  481 114 117  255 182 0
4  483 480 114 115  255 0 218
4  482 115 114 481  255 182 0
4  479 130 82 81  255 0 0
4  50 477 478 49  182 0 255
4  476 473 474 475  255 145 0
3  67 391 392  255 0 0
4  173 172 64 65  255 218 0
4  470 557 559 471  255 109 0
3  471 559 564  255 109 0
4  472 469 470 471  255 109 0
4  468 465 466 467  0 0 255
5  176 371 370 437 375  0 255 218
4  177 372 371 176  0 255 218
4  86 352 422 425  72 0 255
4  86 87 279 335  255 0 72
4  464 426 424 423  72 0 255
4  177 176 426 425  72 0 255
4  86 425 426 464  72 0 255
4  463 431 168 442  0 255 72
3  461 56 57  145 0 255
4  461 458 459 460  145 0 255
4  457 43 42 456  145 255 0
3  456 42 40  145 255 0
3  457 44 43  145 255 0
5  179 40 42 434 433  218 0 255
3  204 544 69  36 0 255
3  202 68 70  36 0 255
4  204 69 68 202  36 0 255
4  455 68 69 454  255 145 0
4  65 64 452 453  72 0 255
5  151 149 160 161 131  0 255 255
4  451 633 719 439  0 255 218
5  449 418 724 63 62  255 255 0
4  450 436 718 112  0 255 218
4  449 448 715 418  255 255 0
4  447 13 12 446  0 255 218
3  436 714 718  0 255 218
4  439 721 714 436  0 255 218
5  445 718 714 715 722  255 255 0
3  439 719 721  0 255 218
5  438 373 372 177 374  0 255 218
4  437 370 373 438  0 255 218
4  439 436 375 374  0 255 218
4  438 374 375 437  0 255 218
4  434 42 43 435  218 0 255
4  435 432 433 434  218 0 255
4  4 79 216 5  255 0 72
4  431 141 142 168  0 255 72
7  431 217 429 97 96 138 141  255 0 0
3  429 98 97  255 0 0
5  429 217 79 4 98  255 0 0
3  430 95 94  255 0 0
4  352 86 78 85  255 0 0
4  384 382 381 383  0 218 255
4  421 680 382 384  0 218 255
4  421 274 275 680  0 218 255
6  421 384 210 211 377 274  0 218 255
5  385 599 351 211 210  0 218 255
4  419 399 652 18  0 255 36
4  351 599 83 84  255 0 72
4  383 381 255 254  0 218 255
4  389 398 397 360  0 218 255
6  599 385 383 254 253 341  0 218 255
4  389 387 341 398  0 218 255
4  715 714 721 418  255 255 0
4  388 359 362 364  0 218 255
4  364 362 361 363  0 218 255
4  388 364 216 99  0 218 255
4  99 216 79 80  255 0 72
4  414 45 41 415  218 0 255
4  417 414 415 416  218 0 255
6  338 337 207 206 212 355  0 218 255
6  380 212 206 256 255 381  0 218 255
4  360 397 206 207  0 218 255
4  410 171 145 144  0 255 72
4  730 571 572 734  255 72 0
4  529 527 730 734  255 72 0
4  168 588 587 171  0 109 255
4  168 171 443 442  0 255 72
5  716 471 564 563 711  255 109 0
4  161 562 563 165  0 36 255
4  165 563 564 164  0 36 255
4  161 160 561 562  0 36 255
3  470 561 557  255 109 0
4  697 618 109 698  145 255 0
4  457 456 697 698  145 255 0
4  693 575 574 694  255 72 0
4  88 77 100 278  255 0 72
4  273 105 106 386  0 218 255
4  105 93 94 106  0 182 255
4  686 116 113 482  255 182 0
4  97 247 108 96  0 182 255
4  398 340 339 397  0 218 255
5  398 341 253 303 340  0 218 255
4  599 341 82 83  255 0 72
4  341 387 81 82  255 0 72
5  639 91 90 390 17  255 0 0
3  639 92 91  255 0 0
6  680 275 369 209 208 382  0 218 255
5  380 208 209 213 212  0 218 255
4  355 212 213 276  0 218 255
4  201 379 146 198  0 218 255
7  386 107 108 282 249 146 379  0 218 255
4  247 97 98 246  0 182 255
3  16 136 147  0 255 109
4  14 140 136 16  0 255 109
3  675 640 147  218 255 0
3  672 139 132  218 255 0
3  14 139 140  0 255 109
5  660 618 617 52 53  182 255 0
4  659 109 618 660  182 255 0
3  458 53 52  145 0 255
5  659 57 56 622 109  182 255 0
4  461 57 53 458  145 0 255
4  408 407 53 57  182 255 0
4  406 62 61 405  255 255 0
4  363 361 270 269  0 218 255
5  247 245 215 343 108  0 218 255
4  86 335 102 78  255 0 72
4  403 402 14 16  255 0 145
4  401 400 12 13  255 0 109
7  266 302 333 104 105 273 240  0 218 255
4  4 5 246 98  0 182 255
4  655 652 399 614  0 255 36
3  386 106 107  0 218 255
6  288 265 356 311 313 289  0 218 255
5  234 251 344 214 235  0 218 255
4  648 644 645 647  255 36 0
4  266 248 233 232  0 218 255
4  89 0 2 345  255 0 36
4  251 285 284 344  0 218 255
4  108 343 283 282  0 218 255
4  358 312 194 195  0 218 255
4  359 195 194 362  0 218 255
4  108 107 95 96  0 182 255
4  105 104 92 93  0 182 255
4  335 294 350 102  0 218 255
3  319 376 330  0 218 255
8  377 211 351 350 294 331 330 376  0 218 255
7  356 378 148 250 285 251 252  0 218 255
3  234 252 251  0 218 255
4  200 199 148 378  0 218 255
5  397 339 304 256 206  0 218 255
4  394 590 589 393  0 72 255
4  394 393 396 395  0 72 255
4  248 266 242 241  0 218 255
7  318 300 248 239 265 288 287  0 218 255
5  343 268 366 365 283  0 218 255
4  344 267 270 214  0 218 255
5  344 284 368 367 267  0 218 255
4  107 106 94 95  0 182 255
3  333 103 104  0 218 255
6  258 290 289 313 357 337  0 218 255
6  334 349 101 103 333 301  0 218 255
5  345 2 101 349 348  0 218 255
4  103 101 90 91  0 182 255
4  357 313 312 358  0 218 255
4  359 388 389 360  0 218 255
4  387 389 388 99  0 218 255
4  387 99 80 81  255 0 72
4  224 273 386 379  0 218 255
4  385 210 384 383  0 218 255
4  382 208 380 381  0 218 255
6  224 379 201 197 353 220  0 218 255
6  222 221 354 196 200 378  0 218 255
5  257 327 325 290 258  0 218 255
4  265 222 378 356  0 218 255
4  103 91 92 104  0 182 255
5  377 376 319 184 274  0 218 255
4  2 0 90 101  0 182 255
8  188 329 293 277 276 213 209 369  0 218 255
4  373 370 371 372  0 255 218
4  188 369 275 187  0 218 255
4  332 334 231 230  0 218 255
6  324 347 332 299 318 286  0 218 255
4  268 343 215 269  0 218 255
4  267 367 366 268  0 218 255
4  368 284 283 365  0 218 255
4  368 365 366 367  0 218 255
5  246 5 216 215 245  0 218 255
5  216 364 363 269 215  0 218 255
5  312 236 235 214 194  0 218 255
5  362 194 214 270 361  0 218 255
7  337 357 358 195 359 360 207  0 218 255
5  311 356 252 234 236  0 218 255
4  276 259 338 355  0 218 255
4  353 197 196 354  0 218 255
4  354 221 220 353  0 218 255
4  84 85 350 351  255 0 72
4  350 85 78 102  255 0 72
4  336 317 292 291  0 218 255
5  336 291 228 294 335  0 218 255
5  331 294 228 227 315  0 218 255
4  317 336 280 272  0 218 255
5  329 316 226 229 293  0 218 255
5  277 293 229 292 317  0 218 255
4  334 332 323 322  0 218 255
7  348 349 334 322 321 263 298  0 218 255
6  347 297 264 320 323 332  0 218 255
4  346 342 326 328  0 218 255
4  346 296 295 342  0 218 255
6  346 345 348 298 262 296  0 218 255
6  342 295 261 297 347 324  0 218 255
4  328 326 305 310  0 218 255
4  346 328 7 345  0 218 255
3  264 297 261  0 218 255
4  264 263 321 320  0 218 255
4  326 342 324 325  0 218 255
4  340 303 304 339  0 218 255
4  259 258 337 338  0 218 255
4  280 336 335 279  0 218 255
6  334 301 302 266 232 231  0 218 255
3  333 302 301  0 218 255
6  332 230 233 248 300 299  0 218 255
3  318 299 300  0 218 255
5  331 315 314 319 330  0 218 255
4  188 189 316 329  0 218 255
4  226 316 315 227  0 218 255
4  310 305 307 309  0 218 255
5  328 310 308 100 7  0 218 255
4  281 271 272 280  0 218 255
4  309 307 271 281  0 218 255
5  100 308 309 281 278  0 218 255
5  306 327 257 271 307  0 218 255
5  305 326 325 327 306  0 218 255
4  325 324 286 290  0 218 255
4  323 320 321 322  0 218 255
4  319 314 185 184  0 218 255
3  286 318 287  0 218 255
4  317 272 260 277  0 218 255
4  189 186 185 314  0 218 255
4  189 314 315 316  0 218 255
4  313 311 236 312  0 218 255
3  310 309 308  0 218 255
3  307 305 306  0 218 255
4  304 303 253 256  0 218 255
3  298 263 262  0 218 255
4  296 262 261 295  0 218 255
4  292 229 228 291  0 218 255
5  290 286 287 288 289  0 218 255
4  285 250 249 282  0 218 255
4  285 282 283 284  0 218 255
4  281 280 279 278  0 218 255
4  277 260 259 276  0 218 255
4  275 274 184 187  0 218 255
4  240 273 224 225  0 218 255
4  272 271 257 260  0 218 255
4  270 267 268 269  0 218 255
5  266 240 237 243 242  0 218 255
4  265 239 223 222  0 218 255
4  264 261 262 263  0 218 255
4  260 257 258 259  0 218 255
4  256 253 254 255  0 218 255
4  199 198 146 148  0 218 255
4  250 148 146 249  0 218 255
5  248 241 244 238 239  0 218 255
3  247 246 245  0 218 255
4  243 237 238 244  0 218 255
4  244 241 242 243  0 218 255
4  240 225 219 237  0 218 255
4  239 238 218 223  0 218 255
4  238 237 219 218  0 218 255
3  236 234 235  0 218 255
4  233 230 231 232  0 218 255
4  229 226 227 228  0 218 255
4  219 225 224 220  0 218 255
4  223 218 221 222  0 218 255
4  221 218 219 220  0 218 255
3  201 198 197  0 218 255
3  200 196 199  0 218 255
4  199 196 197 198  0 218 255
4  192 642 117 193  255 0 218
4  190 113 116 191  255 0 218
4  189 188 187 186  0 218 255
4  187 184 185 186  0 218 255
6  183 179 178 180 181 182  255 0 145
6  179 183 182 181 180 178  218 0 255
4  11 175 174 10  72 0 255
4  175 11 10 174  255 0 109
4  177 11 10 176  72 0 255
4  11 177 176 10  0 255 218
4  173 158 157 172  255 218 0
4  158 173 172 157  255 182 0
6  164 165 161 160 149 150  0 255 255
6  165 164 150 149 160 161  0 36 255
4  163 150 149 162  255 36 0
4  150 163 162 149  0 36 255
6  166 170 169 145 142 167  36 255 0
6  170 166 167 142 145 169  0 109 255
4  168 142 145 171  0 255 72
4  168 171 145 142  0 109 255
4  159 76 156 155  255 0 0
4  76 159 155 156  255 182 0
4  158 159 155 157  255 218 0
4  159 158 157 155  255 182 0
4  154 150 149 151  0 255 255
4  150 154 151 149  255 36 0
4  153 154 151 152  255 0 0
4  154 153 152 151  255 36 0
5  138 137 143 144 141  255 0 0
5  137 138 141 144 143  36 255 0
4  142 141 144 145  0 255 72
4  141 142 145 144  36 255 0
6  136 140 139 132 640 147  0 255 109
6  140 136 147 640 132 139  218 255 0
6  641 640 132 134 133 135  255 0 0
6  640 641 135 133 134 132  218 255 0
7  89 507 509 15 17 390 508  255 0 0
7  507 89 508 390 17 15 509  255 0 145
4  640 17 15 132  255 0 0
4  17 640 132 15  0 255 109
4  159 155 66 67  255 0 0
4  155 159 67 66  255 218 0
9  391 67 66 683 423 464 86 352 687  255 0 0
9  67 391 687 352 86 464 423 683 66  72 0 255
5  479 131 151 154 130  255 0 0
5  131 479 130 154 151  0 255 255
6  141 144 410 412 463 431  255 0 0
6  144 141 431 463 412 410  0 255 72
6  496 673 667 495 644 648  255 36 0
4  611 673 667 613  0 255 182
6  496 648 644 495 667 673  109 255 0
4  613 667 673 611  255 36 0
4  673 667 665 669  109 255 0
4  667 673 669 665  0 255 182
6  129 125 124 120 121 128  36 0 255
6  125 129 128 121 120 124  0 255 145
4  127 121 120 126  36 0 255
4  121 127 126 120  218 255 0
6  123 119 118 120 121 122  0 255 145
6  119 123 122 121 120 118  218 255 0
8  115 114 117 642 643 646 116 113  255 0 218
8  114 115 113 116 646 643 642 117  255 182 0
4  619 76 156 616  255 182 0
4  76 619 616 156  0 145 255
8  633 111 110 112 718 714 721 719  0 255 218
8  111 633 719 721 714 718 112 110  255 255 0
4  622 56 55 621  182 255 0
4  621 55 54 620  182 255 0
4  620 54 52 617  182 255 0
6  109 618 617 620 621 622  145 255 0
6  618 109 622 621 620 617  182 255 0
8  500 499 612 419 399 614 420 615  36 255 0
8  499 500 615 420 614 399 419 612  0 255 36
4  441 440 19 21  0 255 36
4  440 441 21 19  72 255 0
4  728 21 19 733  255 0 182
4  21 728 733 19  72 255 0
4  2 101 9 8  0 182 255
4  101 2 8 9  0 218 255
4  345 2 3 7  255 0 36
4  2 345 7 3  0 218 255
4  100 7 3 8  255 0 72
4  7 100 8 3  0 218 255
7  278 100 8 9 102 335 279  255 0 72
7  100 278 279 335 102 9 8  0 218 255
9  350 102 9 5 99 387 341 599 351  255 0 72
9  102 350 351 599 341 387 99 5 9  0 218 255
3  216 99 5  255 0 72
3  99 216 5  0 218 255
10  246 5 101 103 104 105 106 107 108 247  0 182 255
10  5 246 247 108 107 106 105 104 103 101  0 218 255
3  101 9 5  0 218 255
3  101 5 9  0 182 255
3  2 8 3  0 182 255
7  4 79 78 86 87 88 77  255 0 0
7  79 4 77 88 87 86 78  255 0 72
11  98 4 0 90 91 92 93 94 95 96 97  255 0 0
11  4 98 97 96 95 94 93 92 91 90 0  0 182 255
4  89 0 1 6  255 0 0
4  0 89 6 1  255 0 36
4  77 6 1 4  255 0 0
4  6 77 4 1  255 0 72
8  85 78 79 80 81 82 83 84  255 0 0
8  78 85 84 83 82 81 80 79  255 0 72
3  0 4 1  255 0 0
3  4 0 1  0 182 255
4  76 75 502 156  255 0 0
4  75 76 156 502  0 145 255
4  588 572 571 587  0 72 255
4  590 588 587 589  0 72 255
4  588 590 589 587  0 109 255
6  578 572 571 573 574 575  255 72 0
6  572 578 575 574 573 571  0 72 255
6  564 559 557 561 562 563  255 109 0
6  559 564 563 562 561 557  0 36 255
6  485 486 553 555 466 467  255 109 0
6  486 485 467 466 555 553  0 0 255
10  544 69 68 70 71 72 73 74 546 545  255 145 0
10  69 544 545 546 74 73 72 71 70 68  36 0 255
4  67 65 64 66  255 218 0
4  65 67 66 64  72 0 255
6  63 59 58 60 61 62  255 255 0
6  59 63 62 61 60 58  109 0 255
6  57 53 52 54 55 56  182 255 0
6  53 57 56 55 54 52  145 0 255
6  51 47 46 48 49 50  145 255 0
6  47 51 50 49 48 46  182 0 255
6  45 41 40 42 43 44  145 255 0
6  41 45 44 43 42 40  218 0 255
6  39 35 34 36 37 38  109 255 0
6  35 39 38 37 36 34  255 0 255
12  33 23 22 24 25 26 27 28 29 30 31 32  0 255 0
12  23 33 32 31 30 29 28 27 26 25 24 22  255 0 218
4  21 19 18 20  0 255 36
4  19 21 20 18  255 0 182
4  17 15 14 16  0 255 109
4  15 17 16 14  255 0 145
4  13 11 10 12  0 255 218
4  11 13 12 10  255 0 109
3  8 2 3  0 218 255
6  9 5 4 1 3 8  0 182 255
6  5 9 8 3 1 4  255 0 72
4  7 3 1 6  255 0 36
4  7 6 1 3  255 0 72
4  3 1 0 2  0 182 255
4  1 3 2 0  255 0 36

