OFF
448 370 0

8.26923 -15.2115 -55.0774
-25.79 -17.9895 -55.0774
-11.1345 -13.9926 -55.0774
-25.79 -17.9895 0.078575
-26.1473 -18.6316 0.078575
-20.6178 -8.69575 0.078575
-11.118 -14.0018 -55.0774
-20.6178 -8.69575 -55.0774
-26.1473 -18.6316 -55.0774
-16.6461 -23.9675 -55.0774
-20.8599 -21.601 -55.0774
14.3197 -18.5834 -55.0774
18.7178 -10.7535 -55.0774
17.8 -10.235 -52.0509
17.8 -10.235 -55.0774
-5.49923 1.51109 64.3352
-5.4054 1.03492 64.3352
-4.88834 1.17896 64.3352
-14.3094 -19.7549 -55.0774
2.27457 -1.46449 36.3279
2.27457 -1.46449 -52.0509
2.30633 20.6321 -55.0774
2.30633 20.6321 -52.0509
18.4228 7.67278 -52.0509
25.5624 9.66166 -55.0774
-17.4 4.485 64.3352
18.7191 6.79864 -52.0509
-4.72555 19.8607 36.3279
-15.5991 -1.80476 64.3352
-6.54382 9.13708 59.95
8.26131 4.84208 -64.3352
-7.09962 15.5947 -64.3352
10.5 11.335 -52.0509
-17.0023 6.55025 64.3352
14.1308 13.9439 -55.0774
22.9755 8.94104 -64.3352
10.4056 11.386 -52.0509
-11.7905 18.8784 -55.0774
1.98362 22.6831 -64.3352
37.5964 3.01585 -55.0774
-4.08819 21.0059 -64.3352
-12.7 19.515 -55.0774
-16.0824 -0.546214 64.3352
10.0435 10.7383 36.3279
-15.2916 -1.2499 64.3352
3.2 15.445 36.3279
-15.762 0.0295741 64.3352
-15.7613 -1.38235 64.3352
21.8561 8.6292 -52.0509
12.387 14.9302 -52.0509
-32.4661 -2.07798 52.9446
-36.0266 -13.0833 36.3279
-5.81318 3.10437 59.95
-32.7785 -0.907215 36.3279
-36.0266 -13.0833 0.078575
-32.8 -0.915 36.3279
-8.02139 16.24 52.9446
-28.4995 0.639791 52.9446
13.1129 9.9221 36.3279
-5.21906 2.76875 64.3352
-5.81318 3.10437 64.3352
-4.98745 1.65539 64.3352
-17.6538 5.17542 59.95
-20.2 -7.945 52.9446
-17.9995 4.44612 59.95
-33.0509 -1.0057 -55.0774
-21.4172 -8.24929 36.3279
-33.0509 -1.0057 36.3279
-36.8449 -7.72323 0.078575
-21.1053 12.5342 52.9446
-32.4661 -2.07798 36.3279
-38.6206 -9.67798 -55.0774
-36.6106 -7.65796 0.078575
19.1 5.675 0.352215
19.5 4.495 0.352215
-5.88854 20.5086 -52.0509
19.9229 5.23709 0.352215
-11.521 7.65002 64.3352
-11.2188 8.19316 64.3352
-7.49037 11.6161 59.95
-38.3172 -10.8471 -55.0774
-32.8 -0.915 52.9446
-8.70299 12.2867 59.95
-7.00353 11.3469 52.9446
-7.00353 11.3469 59.95
-17.9995 4.44612 64.3352
-7.49037 11.6161 52.9446
16.4537 7.12426 -52.0509
-32.8 -0.915 -55.0774
-7.04928 9.37759 59.95
24.2616 8.21357 -52.0509
24.2616 8.21357 -55.0774
-14.1562 -1.40279 64.3352
-0.235847 22.07 -55.0774
-14.1562 -1.40279 59.95
-14.893 -1.13752 64.3352
-14.3094 -19.7549 -64.3352
-14.893 -1.13752 59.95
-29.0908 -23.9206 -55.0774
9.32873 11.1413 52.9446
9.40505 10.8341 36.3279
-6.83096 8.2696 64.3352
9.40505 10.8341 52.9446
-8.39715 8.58336 59.95
-6.3 7.965 59.95
-6.7 7.605 59.95
-6.7 7.605 64.3352
17.5744 7.43643 -52.0509
-29.6956 5.26453 -55.0774
-32.7785 -0.907215 52.9446
-29.6 4.895 36.3279
-8.39715 8.58336 64.3352
46.2472 -4.22206 -55.0774
14.7611 11.9742 -52.0509
10.5606 11.3441 -52.0509
-25.5691 14.2647 -55.0774
14.1308 13.9439 -52.0509
6.46784 4.34247 52.9446
-15.5991 -1.80476 59.95
-28.6448 6.62924 52.9446
-41.4 -8.99214 -64.3352
-8.19499 9.05213 64.3352
-7.72692 8.7836 59.95
-8.19499 9.05213 59.95
-7.72692 8.7836 64.3352
-34.0082 -1.21665 36.3279
25.0699 4.87276 -52.0509
25.5208 3.00914 -52.0509
-15.2916 -1.2499 59.95
-15.762 0.0295741 59.95
-29.4505 -24.5671 -55.0774
2.99413 -1.87098 36.3279
-13.0508 7.19298 59.95
-18.9792 16.8927 -55.0774
-16.0824 -0.546214 52.9446
-15.5991 -1.80476 52.9446
-11.7905 18.8784 52.9446
-16.7012 6.10233 59.95
-18.9792 16.8927 52.9446
-16.7012 6.10233 64.3352
-7.09962 15.5947 52.9446
12.7358 -7.37414 -55.0774
-44.7995 -21.0131 -64.3352
-17.2992 5.92365 59.95
-17.8666 5.75413 59.95
34.7602 -2.13856 -49.0288
-30.1 -24.205 -55.0774
-17.2992 5.92365 64.3352
-17.5997 9.7627 52.9446
-17.0023 6.55025 59.95
19.1 5.675 36.3279
-17.5997 9.7627 59.95
-5.49923 1.51109 59.95
0.779781 21.4955 -55.0774
16.4031 7.11014 -52.0509
19.9229 5.23709 -52.0509
20.3083 5.91325 -52.0509
-15.1351 -1.6755 64.3352
-15.1351 -1.6755 59.95
-38.0287 -11.9589 36.3279
-38.3172 -10.8471 36.3279
-3.22505 1.64231 -64.3352
36.6124 1.22761 -52.0509
-38.0287 -11.9589 0.078575
-36.8007 -8.01313 0.078575
-17.4 4.485 59.95
-39.9 -13.805 0.078575
-17.6538 5.17542 64.3352
-11.2188 8.19316 59.95
9.3035 11.1555 52.9446
-42.1 -17.515 0.078575
8.91152 11.0967 52.9446
-27.8175 15.5349 -64.3352
-42.1 -17.515 -55.0774
36.6124 1.22761 -55.0774
-5.4054 1.03492 59.95
-17 -2.195 52.9446
-27.1796 -5.03074 52.9446
-36.8007 -8.01313 36.3279
-36.8007 -8.01313 -55.0774
-20.7173 11.5239 52.9446
2.99413 -1.87098 0.352215
-6.61926 9.49974 59.95
-6.61926 9.49974 52.9446
-13.0508 7.19298 64.3352
36.8698 -21.0078 -55.0774
13.1 -6.735 0.352215
32.5488 -28.7424 -64.3352
13.1 -6.735 36.3279
7.17304 5.60387 36.3279
22.3472 3.94704 -52.0509
12.1 -7.015 0.352215
12.1 -7.015 36.3279
-1.94682 24.8537 -55.0774
-7.6797 12.577 52.9446
12.7358 -7.37414 0.352215
-4.08819 21.0059 -55.0774
9.93839 10.5503 36.3279
16.2821 7.22106 36.3279
27.3399 -15.6242 -52.0509
27.3399 -15.6242 -55.0774
-4.88834 1.17896 36.3279
-19.2584 7.72468 59.95
-17.8978 9.67812 59.95
-19.2584 7.72468 52.9446
-17.8978 9.67812 52.9446
-17 -2.195 -55.0774
-18.6299 6.08788 59.95
-18.6299 6.08788 52.9446
-2.62741 1.30469 -55.0774
22.4292 -4.14608 0.352215
19.9608 3.13567 0.352215
36.8698 -21.0078 -64.3352
22.4292 -4.14608 -49.0288
44.4082 -7.51386 -55.0774
22.4292 -4.14608 -52.0509
47.2977 -2.34169 -64.3352
-20.6178 -8.69575 36.3279
-18.4364 5.58389 59.95
-13.6159 7.51222 59.95
36.6124 1.22761 -49.0288
-11.75 18.85 52.9446
-6.97642 9.00783 59.95
-38.3172 -10.8471 0.078575
13.3414 16.4107 -55.0774
-30.1 -24.205 0.078575
-15.5991 -1.80476 36.3279
-5.88854 20.5086 -55.0774
-8.9852 12.2066 52.9446
-36.9132 -12.5854 0.078575
46.2472 -4.22206 -52.0509
3.2 15.445 -52.0509
0.779781 21.4955 -52.0509
-42.3814 -16.5771 -55.0774
-4.72555 19.8607 -52.0509
16.4031 7.11014 0.352215
9.32873 11.1413 36.3279
-13.6159 7.51222 64.3352
-11.7905 18.8784 -52.0509
-6.83096 8.2696 59.95
-25.5691 14.2647 -64.3352
-6.3 7.965 64.3352
3.28299 15.2375 36.3279
3.28299 15.2375 52.9446
3.2 15.445 52.9446
-18.5 17.875 -52.0509
-18.5 17.875 -55.0774
-17 -2.195 -52.0509
-27.1796 -5.03074 36.3279
-29.9465 6.23461 -55.0774
-8.70299 12.2867 52.9446
-29.9465 6.23461 36.3279
-15.7248 -1.83975 -52.0509
-42.7079 -17.1761 -55.0774
-15.7248 -1.83975 -55.0774
-15.7248 -1.83975 52.9446
16.4031 7.11014 36.3279
-15.7248 -1.83975 36.3279
22.3472 3.94704 0.352215
18.4284 2.61465 0.352215
10.4056 11.386 36.3279
-15.7613 -1.38235 59.95
46.2472 -4.22206 -49.0288
-4.98745 1.65539 59.95
-8.9852 12.2066 59.95
-29.6956 5.26453 36.3279
-16.0824 -0.546214 59.95
-19.8012 9.13814 52.9446
-45.1715 -15.8027 -55.0774
22.9755 8.94104 -52.0509
-41.4 -8.99214 -55.0774
28.1396 6.02011 -52.0509
-11.521 7.65002 59.95
28.1396 6.02011 -55.0774
-17.8067 33.6123 -64.3352
-5.21906 2.76875 59.95
-4.88834 1.17896 59.95
-17.8067 33.6123 -55.0774
3.40444 -1.13705 52.9446
2.27457 -1.46449 52.9446
-33.3581 -1.57979 36.3279
3.40444 -1.13705 36.3279
-29.6956 5.26453 52.9446
-29.9465 6.23461 52.9446
-33.3581 -1.57979 -55.0774
18.7178 -10.7535 -52.0509
-4.88834 1.17896 52.9446
15.9178 8.35937 -52.0509
-27.0428 -4.99265 52.9446
26.2272 2.61556 -52.0509
25.9101 2.05104 -52.0509
16.2821 7.22106 -52.0509
15.9178 8.35937 36.3279
-5.21906 2.76875 52.9446
-29.6 4.895 -55.0774
32.2341 -6.72958 -49.0288
34.7602 -2.13856 -52.0509
-25.2827 14.7902 -64.3352
3.63816 14.3496 52.9446
-25.5691 14.2647 36.3279
-7.28282 12.6895 52.9446
-36.8449 -7.72323 36.3279
-37.0003 -6.70554 36.3279
-26.0773 14.5518 -55.0774
-37.0003 -6.70554 -55.0774
-33.2113 -1.66177 36.3279
-36.8449 -7.72323 -55.0774
-1.94682 24.8537 -64.3352
-15.6667 32.4305 -55.0774
19.2 -9.895 -49.0288
19.2 -9.895 -52.0509
-39.4338 -11.1698 -55.0774
19.2 -9.895 0.352215
17.8 -10.235 0.352215
-12.0804 6.64483 -64.3352
-17 -2.195 36.3279
23.2726 4.26169 -52.0509
23.2726 4.26169 0.352215
25.5208 3.00914 0.352215
25.7293 2.14727 -52.0509
25.7293 2.14727 0.352215
-3.22505 1.64231 -52.0509
3.28299 15.2375 -52.0509
-20.2 -7.945 36.3279
-21.4172 -8.24929 52.9446
-25.0508 15.2156 -55.0774
-25.2827 14.7902 36.3279
-5.88854 20.5086 36.3279
-4.72555 19.8607 -55.0774
-10.0867 19.349 36.3279
-4.08819 21.0059 -52.0509
-19.1 16.645 36.3279
-19.1 16.645 -52.0509
-37.6822 -7.95647 -64.3352
-25.2827 14.7902 -52.0509
-25.5691 14.2647 -52.0509
-5.37263 18.6979 52.9446
10.4246 11.4199 -52.0509
17.9979 1.8592 0.352215
17.9979 1.8592 36.3279
-18.5 17.875 52.9446
16.3246 7.08827 36.3279
3.31631 15.3802 -52.0509
-29.0908 -23.9206 0.078575
13.1129 9.9221 -52.0509
2.99413 -1.87098 -52.0509
-10.0867 19.349 -55.0774
25.5624 9.66166 -64.3352
-19.1 16.645 -55.0774
25.9101 2.05104 0.352215
-47.294 -19.6355 -55.0774
-28.8171 13.7299 -55.0774
-21.9941 -33.6085 -55.0774
-4.85071 19.6358 52.9446
44.4082 -7.51386 -49.0288
-45.1715 -15.8027 -64.3352
7.17304 5.60387 52.9446
-27.4701 15.3386 -55.0774
-26.0773 14.5518 -64.3352
-24.5307 16.1698 -64.3352
-36.6106 -7.65796 -55.0774
22.9755 8.94104 -55.0774
29.0906 7.71321 -55.0774
-0.235847 22.07 -52.0509
-41.9346 -17.6072 -55.0774
-29.0908 -23.9206 -64.3352
6.46784 4.34247 36.3279
9.3035 11.1555 36.3279
-41.1481 -14.3146 0.078575
-39.9 -13.805 -55.0774
-41.1481 -14.3146 -55.0774
25.8 1.855 -52.0509
25.8 1.855 -49.0288
-31.5463 -28.3329 -64.3352
3.63816 14.3496 36.3279
-36.6106 -7.65796 36.3279
28.1187 -7.72903 -52.0509
-12.0804 6.64483 59.95
-3.22505 1.64231 52.9446
10.3658 11.3149 36.3279
-7.05256 -6.67273 -55.0774
-15.6667 32.4305 -64.3352
-12.7 19.515 -52.0509
-19.9246 -29.8778 -55.0774
47.2977 -2.34169 -55.0774
-41.9346 -17.6072 0.078575
-24.7075 13.778 52.9446
-5.06259 19.255 52.9446
-29.6 4.895 52.9446
-34.0082 -1.21665 -55.0774
27.3399 -15.6242 -49.0288
36.8698 -21.0078 -52.0509
-44.7995 -21.0131 -55.0774
3.63816 14.3496 -52.0509
-24.5307 16.1698 -55.0774
-3.22505 1.64231 -55.0774
-36.4963 -7.62611 36.3279
-38.708 -11.5774 -55.0774
46.3011 -4.12559 -55.0774
-42.3814 -16.5771 0.078575
-12.7 19.515 52.9446
46.3011 -4.12559 -64.3352
-47.294 -19.6355 -64.3352
-3.22505 1.64231 36.3279
-25.2827 14.7902 -55.0774
-21.9941 -33.6085 -64.3352
9.93839 10.5503 52.9446
39.7321 -4.90862 -49.0288
32.2341 -6.72958 -52.0509
-27.8175 15.5349 -55.0774
44.4082 -7.51386 -52.0509
-25.0395 13.9656 52.9446
32.5488 -28.7424 -55.0774
-4.72555 19.8607 52.9446
1.98362 22.6831 -55.0774
-42.7079 -17.1761 -64.3352
10.3658 11.3149 -52.0509
-2.62741 1.30469 -64.3352
-19.9246 -29.8778 -64.3352
-37.6822 -7.95647 -55.0774
-18.9792 16.8927 -52.0509
25.9101 2.05104 -49.0288
-10.0867 19.349 -52.0509
-0.235847 22.07 -64.3352
-6.99865 21.1271 -55.0774
-21.4078 11.914 52.9446
-19.1 16.645 52.9446
-17 -2.195 -64.3352
-29.4505 -24.5671 -64.3352
12.7358 -7.37414 -52.0509
-7.05256 -6.67273 -64.3352
-10.0867 19.349 52.9446
19.5 4.495 36.3279
9.3035 11.1555 -52.0509
36.8698 -21.0078 -49.0288
-28.8171 13.7299 -64.3352
-27.4701 15.3386 -64.3352
-26.1473 -18.6316 36.3279
-25.5691 14.2647 52.9446
-31.5463 -28.3329 -55.0774
-38.708 -11.5774 0.078575
-25.2827 14.7902 52.9446
46.2472 -4.22206 -64.3352
-18.3737 27.4646 -55.0774
-7.67289 14.5647 52.9446
16.4537 7.12426 36.3279
-5.88854 20.5086 52.9446
-15.7248 -1.83975 -64.3352
4  314 240 333 427  255 0 0
4  314 161 30 31  255 0 0
4  314 427 447 161  255 0 0
5  427 365 96 430 447  255 0 0
5  427 333 415 428 365  255 0 0
8  314 31 40 307 381 359 297 240  255 0 0
6  161 417 212 442 35 30  255 0 0
7  395 321 20 345 429 141 209  255 0 0
5  240 358 435 120 333  255 0 0
4  333 120 355 415  255 0 0
4  161 447 430 417  255 0 0
4  206 247 252 254  255 0 0
7  206 7 5 217 323 315 247  255 0 0
4  395 254 252 321  255 0 0
4  395 209 380 254  255 0 0
6  206 254 380 6 2 7  255 0 0
6  419 306 360 179 80 71  255 0 0
3  240 297 358  255 0 0
5  115 335 299 251 249  255 0 0
4  115 404 334 335  255 0 0
7  443 308 193 196 328 227 424  255 0 0
4  328 196 330 234  255 0 0
5  443 424 41 246 394  255 0 0
4  328 234 75 227  255 0 0
4  325 394 246 133  255 0 0
4  325 133 348 404  255 0 0
5  227 346 37 41 424  255 0 0
4  227 75 422 346  255 0 0
3  419 304 306  255 0 0
4  12 14 13 285  255 0 0
5  12 200 185 412 11  255 0 0
4  12 285 199 200  255 0 0
4  378 403 201 286  255 0 0
4  378 279 19 403  255 0 0
4  378 117 278 279  255 0 0
7  141 14 12 11 0 380 209  255 0 0
4  141 429 13 14  255 0 0
3  253 233 173  255 0 0
5  130 98 10 9 383  255 0 0
7  130 439 392 253 173 364 146  255 0 0
3  130 146 98  255 0 0
4  176 315 323 63  255 0 0
5  176 63 324 177 288  255 0 0
4  364 173 170 385  255 0 0
4  360 306 68 72  255 0 0
4  364 385 225 146  255 0 0
4  360 72 164 179  255 0 0
8  115 249 389 304 419 270 351 303  255 0 0
4  428 373 405 418  255 0 0
4  428 418 96 365  255 0 0
4  130 383 352 439  255 0 0
4  24 361 34 224  255 0 0
4  193 414 93 196  255 0 0
4  8 98 343 4  255 0 0
6  8 1 2 6 18 10  255 0 0
4  397 80 223 440  255 0 0
4  397 369 370 311  255 0 0
4  8 4 3 1  255 0 0
4  397 440 166 369  255 0 0
5  387 298 169 171 336  255 0 0
9  378 293 183 83 300 444 140 356 117  255 0 0
4  437 4 54 51  255 0 0
5  386 425 180 267 119  255 0 0
9  176 288 57 388 119 267 204 208 134  255 0 0
4  307 40 423 38  255 0 0
5  347 35 442 401 216  255 0 0
4  347 38 423 35  255 0 0
5  347 24 224 414 38  255 0 0
4  193 307 38 414  255 0 0
5  24 362 273 91 361  255 0 0
6  24 347 216 384 39 362  255 0 0
4  346 422 238 37  255 0 0
4  404 348 332 334  255 0 0
5  290 421 349 320 319  255 0 0
5  155 76 73 235 154  255 0 0
4  429 195 313 13  255 0 0
4  290 371 372 421  255 0 0
4  155 190 258 76  255 0 0
3  285 13 310  255 0 0
4  315 176 255 257  255 0 0
4  375 72 68 301  255 0 0
4  375 178 164 72  255 0 0
5  437 217 5 3 4  255 0 0
8  437 51 178 375 396 248 66 217  255 0 0
4  440 163 229 166  255 0 0
7  4 343 225 385 166 229 54  255 0 0
6  336 171 102 406 356 140  255 0 0
6  443 394 357 409 277 308  255 0 0
5  325 404 303 357 394  255 0 0
3  404 115 303  255 0 0
5  195 429 345 181 191  255 0 0
5  349 421 372 213 210  255 0 0
5  349 210 211 258 320  255 0 0
8  195 186 338 259 211 210 312 313  255 0 0
5  76 258 211 259 74  255 0 0
4  321 403 19 20  255 0 0
5  154 235 256 445 87  255 0 0
6  403 321 252 257 226 201  255 0 0
4  256 235 73 150  255 0 0
5  256 150 432 339 341  255 0 0
8  419 71 311 370 233 253 268 270  255 0 0
4  253 392 350 268  255 0 0
4  430 187 212 417  255 0 0
6  380 0 11 412 187 430  255 0 0
5  383 9 18 96 418  255 0 0
5  430 96 18 6 380  255 0 0
4  415 142 373 428  255 0 0
4  185 200 199 391  255 0 0
4  185 391 410 214  255 0 0
4  438 299 326 441  255 0 0
4  438 283 251 299  255 0 0
4  438 411 282 283  255 0 0
5  386 119 388 282 411  255 0 0
4  413 27 45 244  255 0 0
4  446 327 27 413  255 0 0
4  441 326 331 426  255 0 0
4  431 329 327 446  255 0 0
9  446 413 353 387 336 140 56 221 431  255 0 0
7  386 411 438 441 426 69 425  255 0 0
5  384 398 112 174 39  255 0 0
4  384 216 401 398  255 0 0
5  214 112 442 212 185  255 0 0
4  412 185 212 187  255 0 0
5  381 274 172 436 359  255 0 0
4  308 277 274 381  255 0 0
4  307 193 308 381  255 0 0
4  358 436 172 435  255 0 0
4  303 351 409 357  255 0 0
4  299 335 334 326  255 0 0
5  375 301 302 125 280  255 0 0
4  297 359 436 358  255 0 0
4  142 415 355 402  255 0 0
4  142 392 439 373  255 0 0
4  391 434 354 410  255 0 0
4  391 199 390 434  255 0 0
5  285 310 376 408 199  255 0 0
6  290 289 296 408 376 371  255 0 0
4  284 65 67 280  255 0 0
4  125 302 304 389  255 0 0
5  389 249 108 65 284  255 0 0
4  125 389 284 280  255 0 0
4  274 277 409 172  255 0 0
4  131 192 191 181  255 0 0
3  131 19 281  255 0 0
7  366 341 339 188 192 131 281  255 0 0
4  366 281 278 117  255 0 0
4  413 244 243 353  255 0 0
4  387 353 243 298  255 0 0
4  435 351 270 120  255 0 0
4  396 305 70 248  255 0 0
4  305 55 53 70  255 0 0
5  177 50 109 57 288  255 0 0
4  177 248 70 50  255 0 0
4  87 445 198 291  255 0 0
5  344 58 260 36 32  255 0 0
4  344 287 292 58  255 0 0
4  107 87 291 287  255 0 0
6  58 292 198 43 379 260  255 0 0
4  249 251 265 108  255 0 0
3  217 66 323  255 0 0
4  248 177 324 66  255 0 0
4  43 236 367 379  255 0 0
5  36 416 433 393 322  255 0 0
4  260 379 416 36  255 0 0
4  406 102 100 197  255 0 0
5  354 434 390 295 407  255 0 0
4  310 215 371 376  255 0 0
4  309 213 215 310  255 0 0
3  407 295 145  255 0 0
8  426 221 56 444 228 148 180 69  255 0 0
3  425 69 180  255 0 0
5  431 136 238 422 329  255 0 0
4  75 327 329 422  255 0 0
4  340 400 136 138  255 0 0
4  245 382 400 340  255 0 0
4  340 138 420 245  255 0 0
4  382 245 246 41  255 0 0
4  238 136 400 382  255 0 0
4  383 418 405 352  255 0 0
4  367 374 393 433  255 0 0
4  367 236 99 169  255 0 0
4  379 367 433 416  255 0 0
6  414 224 34 21 153 93  255 0 0
4  196 93 363 330  255 0 0
4  234 27 327 75  255 0 0
4  234 231 45 27  255 0 0
7  107 287 113 116 269 48 23  255 0 0
4  344 114 113 287  255 0 0
5  234 330 363 232 231  255 0 0
4  362 39 174 273  255 0 0
4  410 354 262 230  255 0 0
4  214 410 230 112  255 0 0
4  289 271 162 296  255 0 0
4  390 199 408 295  255 0 0
5  354 407 145 220 262  255 0 0
5  256 341 366 189 197  255 0 0
6  117 356 406 197 189 366  255 0 0
4  439 352 405 373  255 0 0
5  289 127 126 90 271  255 0 0
6  156 48 269 90 126 316  255 0 0
4  401 442 112 398  255 0 0
3  377 132 272  255 0 0
5  377 272 103 105 52  255 0 0
3  140 444 56  255 0 0
5  444 300 194 250 228  255 0 0
6  275 104 29 182 183 293  255 0 0
4  311 71 80 397  255 0 0
4  305 396 375 280  255 0 0
4  280 67 55 305  255 0 0
4  374 367 169 298  255 0 0
4  374 242 322 393  255 0 0
4  294 88 65 108  255 0 0
4  110 55 88 294  255 0 0
4  265 110 294 108  255 0 0
4  388 81 55 110  255 0 0
4  388 57 109 81  255 0 0
5  377 129 165 137 132  255 0 0
4  180 148 205 267  255 0 0
6  266 134 208 207 218 64  255 0 0
4  120 270 268 355  255 0 0
4  230 262 220 162  255 0 0
5  385 170 399 368 166  255 0 0
4  289 290 319 127  255 0 0
4  155 156 316 190  255 0 0
4  112 230 162 174  255 0 0
4  271 273 174 162  255 0 0
3  293 378 286  255 0 0
4  176 134 135 255  255 0 0
6  377 52 152 97 128 129  255 0 0
4  371 215 213 372  255 0 0
4  368 399 233 370  255 0 0
4  369 166 368 370  255 0 0
3  18 9 10  255 0 0
3  98 8 10  255 0 0
4  269 116 34 361  255 0 0
4  363 93 153 232  255 0 0
4  355 268 350 402  255 0 0
6  151 219 149 207 202 203  255 0 0
3  267 205 204  255 0 0
4  151 203 205 148  255 0 0
4  145 296 162 220  255 0 0
4  350 392 142 402  255 0 0
5  431 221 426 138 136  255 0 0
7  138 426 331 332 348 133 420  255 0 0
5  345 20 19 131 181  255 0 0
4  338 186 188 339  255 0 0
5  339 432 74 259 338  255 0 0
5  344 32 36 337 114  255 0 0
5  36 322 231 342 337  255 0 0
4  337 342 22 49  255 0 0
4  45 231 322 242  255 0 0
4  332 331 326 334  255 0 0
4  66 324 63 323  255 0 0
4  264 168 219 151  255 0 0
4  228 264 151 148  255 0 0
4  247 315 257 252  255 0 0
3  127 316 126  255 0 0
4  318 317 316 127  255 0 0
4  320 258 317 318  255 0 0
4  320 318 127 319  255 0 0
4  317 258 190 316  255 0 0
4  169 99 102 171  255 0 0
4  312 210 213 309  255 0 0
5  313 312 309 310 13  255 0 0
5  302 301 68 306 304  255 0 0
4  300 83 86 194  255 0 0
6  264 82 79 89 123 168  255 0 0
4  264 228 250 82  255 0 0
4  298 243 242 374  255 0 0
4  145 295 408 296  255 0 0
4  291 198 292 287  255 0 0
4  275 59 241 104  255 0 0
4  276 175 16 17  255 0 0
7  286 135 118 158 94 175 276  255 0 0
5  276 263 275 293 286  255 0 0
4  251 283 282 265  255 0 0
4  278 281 19 279  255 0 0
4  282 388 110 265  255 0 0
4  276 17 61 263  255 0 0
4  275 263 61 59  255 0 0
4  273 271 90 91  255 0 0
4  269 361 91 90  255 0 0
4  118 28 157 158  255 0 0
4  266 42 47 261  255 0 0
4  118 261 47 28  255 0 0
4  266 64 85 42  255 0 0
4  255 135 226 257  255 0 0
3  195 191 186  255 0 0
4  48 156 26 23  255 0 0
3  107 23 26  255 0 0
4  245 420 133 246  255 0 0
4  244 45 242 243  255 0 0
4  37 238 382 41  255 0 0
4  233 399 170 173  255 0 0
5  229 163 159 51 54  255 0 0
4  225 343 98 146  255 0 0
4  182 29 222 89  255 0 0
4  182 84 83 183  255 0 0
4  182 89 79 84  255 0 0
4  168 123 121 78  255 0 0
4  29 104 239 222  255 0 0
4  272 77 111 103  255 0 0
4  222 122 123 89  255 0 0
3  222 239 122  255 0 0
4  52 105 106 60  255 0 0
5  207 149 143 144 218  255 0 0
4  219 237 33 149  255 0 0
4  218 144 62 64  255 0 0
4  132 137 139 184  255 0 0
4  7 1 3 5  255 0 0
4  208 204 202 207  255 0 0
4  205 203 202 204  255 0 0
4  201 226 135 286  255 0 0
5  445 256 197 43 198  255 0 0
4  197 100 236 43  255 0 0
4  191 192 188 186  255 0 0
5  237 184 139 147 33  255 0 0
4  178 160 223 164  255 0 0
4  51 159 160 178  255 0 0
4  179 164 223 80  255 0 0
4  175 94 92 16  255 0 0
4  152 15 95 97  255 0 0
4  409 351 435 172  255 0 0
3  440 223 163  255 0 0
4  160 159 163 223  255 0 0
5  59 60 106 101 241  255 0 0
4  128 97 95 44  255 0 0
4  158 157 92 94  255 0 0
4  15 16 92 95  255 0 0
4  157 44 95 92  255 0 0
6  156 155 154 87 107 26  255 0 0
5  77 78 121 124 111  255 0 0
4  52 60 15 152  255 0 0
5  49 116 113 114 337  255 0 0
5  49 22 21 34 116  255 0 0
4  237 219 168 78  255 0 0
4  149 33 147 143  255 0 0
3  144 143 62  255 0 0
4  129 46 25 165  255 0 0
5  46 42 85 167 25  255 0 0
4  147 139 25 167  255 0 0
4  143 147 167 62  255 0 0
4  165 25 139 137  255 0 0
5  134 266 261 118 135  255 0 0
4  77 272 132 184  255 0 0
4  46 129 128 44  255 0 0
4  122 124 121 123  255 0 0
4  101 106 111 124  255 0 0
4  239 101 124 122  255 0 0
4  111 106 105 103  255 0 0
4  102 99 236 100  255 0 0
3  194 86 250  255 0 0
4  84 79 86 83  255 0 0
4  79 82 250 86  255 0 0
4  104 241 101 239  255 0 0
4  78 77 184 237  255 0 0
3  76 74 73  255 0 0
4  432 150 73 74  255 0 0
4  55 67 65 88  255 0 0
4  167 85 64 62  255 0 0
4  60 59 61 15  255 0 0
4  81 109 53 55  255 0 0
4  50 70 53 109  255 0 0
4  46 44 47 42  255 0 0
5  40 31 30 35 423  255 0 0
4  44 157 28 47  255 0 0
4  232 22 342 231  255 0 0
4  153 21 22 232  255 0 0
4  61 17 16 15  255 0 0
3  7 2 1  255 0 0

