OFF
533 590 0

44.4082 -7.51386 -55.0774
25.8905 2.80313 -55.0774
46.2472 -4.22206 -55.0774
36.6124 1.22761 -55.0774
28.1396 6.02011 -55.0774
24.2616 8.21357 -55.0774
22.9755 8.94104 -55.0774
14.1308 13.9439 -55.0774
2.30633 20.6321 -55.0774
0.779781 21.4955 -55.0774
-0.235847 22.07 -55.0774
-1.24141 17.9195 -55.0774
44.4082 -7.51386 -49.0288
34.7602 -2.13856 -52.0509
-1.24141 17.9195 -64.3352
17.5744 7.43643 -64.3352
44.4082 -7.51386 -64.3352
44.4082 -7.51386 -52.0509
39.7321 -4.90862 -49.0288
-1.40392 16.586 36.3279
2.27457 -1.46449 36.3279
-3.22505 1.64231 36.3279
3.40444 -1.13705 36.3279
6.46784 4.34247 36.3279
7.17304 5.60387 36.3279
9.93839 10.5503 36.3279
9.40505 10.8341 36.3279
25.9101 2.05104 -64.3352
25.9101 2.05104 -52.0509
18.7178 -10.7535 -64.3352
18.7178 -10.7535 -55.0774
-36.6106 -7.65796 36.3279
-41.9346 -17.6072 -55.0774
-39.9 -13.805 -55.0774
-41.9346 -17.6072 0.078575
-30.1 -24.205 -55.0774
-26.1473 -18.6316 -55.0774
-29.0908 -23.9206 -55.0774
-25.79 -17.9895 -55.0774
-20.6178 -8.69575 -55.0774
-29.1395 -3.93602 -55.0774
-33.2113 -1.66177 -55.0774
-33.3581 -1.57979 -55.0774
-34.0082 -1.21665 -55.0774
-32.8 -0.915 -55.0774
-33.2113 -1.66177 -64.3352
-29.6 4.895 -64.3352
-33.2113 -1.66177 -55.1385
-33.2113 -1.66177 36.3279
-32.8 -0.915 36.3279
-29.6 4.895 -55.0774
-27.9479 -1.49317 -56.625
-30.9083 9.95369 -64.3352
-30.9083 9.95369 -55.0774
-29.9465 6.23461 -64.3352
-27.9479 -1.49317 -64.3352
-27.9479 -1.49317 -55.0774
-27.9479 -1.49317 52.9446
-28.4995 0.639791 52.9446
-29.6 4.895 52.9446
-29.6 4.895 36.3279
-29.6956 5.26453 -55.0774
-29.9465 6.23461 -55.0774
-8.9852 12.2066 52.9446
-8.70299 12.2867 52.9446
-17.5997 9.7627 52.9446
-17.8978 9.67812 52.9446
-19.2584 7.72468 52.9446
-18.6299 6.08788 52.9446
-16.0824 -0.546214 52.9446
-15.5991 -1.80476 52.9446
-4.88834 1.17896 52.9446
-5.21906 2.76875 52.9446
-6.61926 9.49974 52.9446
-7.00353 11.3469 52.9446
-7.49037 11.6161 52.9446
-17 -2.195 -55.0774
-17 -2.195 -55.0774
-21.4973 3.51295 -55.0774
-23.9731 6.65517 -55.0774
-23.9731 6.65517 52.9446
-17 -2.195 52.9446
-17 -2.195 52.9446
-17 -2.195 36.3279
-4.72555 19.8607 -55.0774
-17 -2.195 -55.0774
-3.22505 1.64231 -55.0774
-1.40392 16.586 -55.0774
-0.753009 21.9272 -55.0774
-4.08819 21.0059 -55.0774
-5.88854 20.5086 -55.0774
-10.0867 19.349 -55.0774
-11.7905 18.8784 -55.0774
-18.9792 16.8927 -55.0774
-19.1 16.645 -55.0774
-15.7248 -1.83975 -55.0774
-3.22505 1.64231 -55.0774
-19.1 16.645 52.9446
-21.1053 12.5342 52.9446
-19.1 16.645 36.3279
-19.1 16.645 -52.0509
-29.1395 -3.93602 -56.8335
-29.1395 -3.93602 36.3279
-29.1395 -3.93602 -64.3352
-21.4078 11.914 -64.3352
-29.1395 -3.93602 52.9446
-23.2374 8.1633 52.9446
-21.4078 11.914 52.9446
-18.9792 16.8927 -59.0541
-18.9792 16.8927 -64.3352
-28.526 14.2557 -64.3352
-0.753009 21.9272 -63.4577
-0.753009 21.9272 -64.3352
-4.08819 21.0059 -64.3352
-25.0508 15.2156 -64.3352
-26.5293 14.8072 -64.3352
-28.526 14.2557 -55.0774
-26.5293 14.8072 -55.0774
-25.0508 15.2156 -55.0774
-18.9792 16.8927 -52.0509
-18.9792 16.8927 52.9446
-11.7905 18.8784 52.9446
-11.7905 18.8784 -52.0509
-11.118 -14.0018 -64.3352
-36.3651 0.0997707 -64.3352
-36.3651 0.0997707 -55.0774
-34.0082 -1.21665 -64.3352
-27.1796 -5.03074 -64.3352
-20.6178 -8.69575 -64.3352
-11.118 -14.0018 -55.0774
-11.1345 -13.9926 -55.0774
-20.6178 -8.69575 0.078575
-20.6178 -8.69575 36.3279
-21.4172 -8.24929 36.3279
-27.1796 -5.03074 36.3279
-32.4661 -2.07798 36.3279
-33.3581 -1.57979 36.3279
-1.40392 16.586 52.9446
16.4031 7.11014 -52.0509
22.3472 3.94704 -52.0509
25.7293 2.14727 -52.0509
34.539 -2.54073 -52.0509
44.2882 -7.72871 -64.3352
16.4031 7.11014 -64.3352
-1.40392 16.586 -64.3352
-1.40392 16.586 -61.2511
-1.40392 16.586 -52.0509
8.91152 11.0967 52.9446
9.40505 10.8341 52.9446
16.4031 7.11014 36.3279
16.4031 7.11014 0.352215
19.9229 5.23709 -52.0509
22.3472 3.94704 0.352215
25.7293 2.14727 0.352215
34.539 -2.54073 -49.0288
39.2217 -5.0326 -49.0288
44.2882 -7.72871 -49.0288
44.2882 -7.72871 -52.0509
44.2882 -7.72871 -55.0774
-3.22505 1.64231 -52.0509
-1.24141 17.9195 -52.0509
-0.494133 24.0514 -64.3352
-1.96291 11.999 -64.3352
-3.22505 1.64231 -64.3352
-3.22505 1.64231 -64.3352
-3.44604 -0.171094 -64.3352
-4.41734 -8.14133 -64.3352
-4.41734 -8.14133 -55.0774
-3.44604 -0.171094 -55.0774
-3.22505 1.64231 52.9446
-3.22505 1.64231 52.9446
-1.96291 11.999 52.9446
-1.33478 17.1533 52.9446
-1.26833 17.6986 52.9446
-1.24141 17.9195 52.9446
-1.24141 17.9195 36.3279
-0.753009 21.9272 -52.0509
-0.494133 24.0514 -55.0774
8.26923 -15.2115 -55.0774
-25.79 -17.9895 0.078575
-26.1473 -18.6316 0.078575
-20.8599 -21.601 -55.0774
-16.6461 -23.9675 -55.0774
14.3197 -18.5834 -55.0774
17.8 -10.235 -52.0509
17.8 -10.235 -55.0774
-32.7785 -0.907215 36.3279
-32.7785 -0.907215 52.9446
-32.4661 -2.07798 52.9446
-32.8 -0.915 52.9446
-5.49923 1.51109 64.3352
-4.98745 1.65539 64.3352
-5.21906 2.76875 64.3352
-5.81318 3.10437 64.3352
-17.6538 5.17542 59.95
-17.9995 4.44612 59.95
-17.9995 4.44612 64.3352
-17.6538 5.17542 64.3352
-33.0509 -1.0057 -55.0774
-33.0509 -1.0057 36.3279
-38.3172 -10.8471 -55.0774
-38.3172 -10.8471 0.078575
-38.6206 -9.67798 -55.0774
-7.00353 11.3469 59.95
-7.6797 12.577 52.9446
-7.04928 9.37759 59.95
24.2616 8.21357 -52.0509
-14.893 -1.13752 64.3352
-14.1562 -1.40279 64.3352
-14.893 -1.13752 59.95
-14.1562 -1.40279 59.95
9.32873 11.1413 52.9446
9.32873 11.1413 36.3279
-7.72692 8.7836 59.95
-7.72692 8.7836 64.3352
-8.19499 9.05213 64.3352
-8.19499 9.05213 59.95
-17.2992 5.92365 64.3352
-16.0824 -0.546214 64.3352
-15.762 0.0295741 64.3352
-15.762 0.0295741 59.95
-17.8666 5.75413 59.95
-17.2992 5.92365 59.95
-17.0023 6.55025 64.3352
-17.0023 6.55025 59.95
-11.2188 8.19316 59.95
-13.6159 7.51222 59.95
-13.6159 7.51222 64.3352
12.387 14.9302 -52.0509
10.4246 11.4199 -52.0509
-5.49923 1.51109 59.95
-5.81318 3.10437 59.95
-11.2188 8.19316 64.3352
-11.521 7.65002 64.3352
17.5744 7.43643 -52.0509
16.4537 7.12426 -52.0509
20.3083 5.91325 -52.0509
-15.2916 -1.2499 64.3352
-15.1351 -1.6755 64.3352
-5.4054 1.03492 64.3352
-15.1351 -1.6755 59.95
-15.2916 -1.2499 59.95
-38.0287 -11.9589 36.3279
-38.0287 -11.9589 0.078575
-38.3172 -10.8471 36.3279
-38.708 -11.5774 0.078575
-36.8007 -8.01313 0.078575
-6.97642 9.00783 59.95
9.3035 11.1555 52.9446
-27.8175 15.5349 -64.3352
-28.8171 13.7299 -64.3352
-28.8171 13.7299 -55.0774
-27.8175 15.5349 -55.0774
36.6124 1.22761 -52.0509
37.5964 3.01585 -55.0774
-5.4054 1.03492 59.95
-36.0266 -13.0833 36.3279
-36.0266 -13.0833 0.078575
-36.8007 -8.01313 36.3279
-36.8007 -8.01313 -55.0774
-6.61926 9.49974 59.95
-13.0508 7.19298 64.3352
13.1 -6.735 0.352215
13.1 -6.735 36.3279
12.1 -7.015 36.3279
12.1 -7.015 0.352215
10.0435 10.7383 36.3279
16.2821 7.22106 36.3279
16.4537 7.12426 36.3279
27.3399 -15.6242 -52.0509
27.3399 -15.6242 -55.0774
-4.88834 1.17896 36.3279
-19.2584 7.72468 59.95
-17.8978 9.67812 59.95
-18.6299 6.08788 59.95
22.4292 -4.14608 -49.0288
22.4292 -4.14608 0.352215
19.9608 3.13567 0.352215
22.4292 -4.14608 -52.0509
-13.0508 7.19298 59.95
-18.4364 5.58389 59.95
-11.521 7.65002 59.95
-6.54382 9.13708 59.95
-29.0908 -23.9206 0.078575
-30.1 -24.205 0.078575
-39.9 -13.805 0.078575
-36.9132 -12.5854 0.078575
-42.1 -17.515 -55.0774
-42.1 -17.515 0.078575
-42.3814 -16.5771 0.078575
-42.3814 -16.5771 -55.0774
-12.7 19.515 -55.0774
-12.7 19.515 -52.0509
3.2 15.445 36.3279
3.28299 15.2375 36.3279
3.28299 15.2375 52.9446
3.2 15.445 52.9446
-18.5 17.875 -55.0774
-18.5 17.875 -52.0509
21.8561 8.6292 -52.0509
12.7358 -7.37414 0.352215
2.99413 -1.87098 0.352215
-15.7248 -1.83975 -52.0509
-15.7248 -1.83975 36.3279
-15.7248 -1.83975 52.9446
-16.0824 -0.546214 59.95
3.40444 -1.13705 52.9446
2.27457 -1.46449 52.9446
-4.88834 1.17896 59.95
-5.21906 2.76875 59.95
15.9178 8.35937 -52.0509
15.9178 8.35937 36.3279
16.2821 7.22106 -52.0509
32.2341 -6.72958 -49.0288
32.2341 -6.72958 -52.0509
34.7602 -2.13856 -49.0288
3.63816 14.3496 36.3279
3.63816 14.3496 52.9446
-8.9852 12.2066 59.95
-7.28282 12.6895 52.9446
-36.8449 -7.72323 36.3279
-36.8449 -7.72323 -55.0774
-37.0003 -6.70554 -55.0774
-37.0003 -6.70554 36.3279
19.2 -9.895 0.352215
19.2 -9.895 -49.0288
19.2 -9.895 -52.0509
17.8 -10.235 0.352215
-17 -2.195 36.3279
-3.22505 1.64231 36.3279
9.3035 11.1555 36.3279
23.2726 4.26169 -52.0509
23.2726 4.26169 0.352215
25.5208 3.00914 -52.0509
25.5208 3.00914 0.352215
-3.22505 1.64231 -52.0509
-17 -2.195 -52.0509
-8.02139 16.24 52.9446
-20.2 -7.945 36.3279
-20.2 -7.945 52.9446
-21.4172 -8.24929 52.9446
-4.72555 19.8607 36.3279
-5.88854 20.5086 36.3279
-25.5691 14.2647 36.3279
-25.2827 14.7902 36.3279
-10.0867 19.349 36.3279
-11.75 18.85 52.9446
-10.0867 19.349 52.9446
-14.3094 -19.7549 -55.0774
-14.3094 -19.7549 -64.3352
-29.0908 -23.9206 -64.3352
-41.1481 -14.3146 -55.0774
-41.1481 -14.3146 0.078575
25.8 1.855 -52.0509
28.1187 -7.72903 -52.0509
25.8 1.855 -49.0288
-12.0804 6.64483 59.95
-17 -2.195 52.9446
-3.22505 1.64231 52.9446
28.1396 6.02011 -52.0509
46.2472 -4.22206 -52.0509
26.2272 2.61556 -52.0509
46.2472 -4.22206 -49.0288
-45.1715 -15.8027 -64.3352
-45.1715 -15.8027 -55.0774
-41.4 -8.99214 -55.0774
-41.4 -8.99214 -64.3352
-20.7173 11.5239 52.9446
-27.0428 -4.99265 52.9446
-29.6956 5.26453 36.3279
3.28299 15.2375 -52.0509
3.63816 14.3496 -52.0509
-36.4963 -7.62611 36.3279
-39.4338 -11.1698 -55.0774
-38.708 -11.5774 -55.0774
-7.67289 14.5647 52.9446
7.17304 5.60387 52.9446
-7.09962 15.5947 52.9446
46.3011 -4.12559 -55.0774
46.3011 -4.12559 -64.3352
-31.5463 -28.3329 -64.3352
-21.9941 -33.6085 -64.3352
-21.9941 -33.6085 -55.0774
-31.5463 -28.3329 -55.0774
9.93839 10.5503 52.9446
6.46784 4.34247 52.9446
27.3399 -15.6242 -49.0288
29.0906 7.71321 -55.0774
-4.08819 21.0059 -52.0509
-4.72555 19.8607 -52.0509
13.1129 9.9221 -52.0509
1.98362 22.6831 -55.0774
-42.7079 -17.1761 -55.0774
-42.7079 -17.1761 -64.3352
10.3658 11.3149 -52.0509
9.3035 11.1555 -52.0509
10.3658 11.3149 36.3279
-19.9246 -29.8778 -64.3352
-10.0867 19.349 -52.0509
-5.88854 20.5086 -52.0509
-6.99865 21.1271 -55.0774
-24.5307 16.1698 -55.0774
-27.1796 -5.03074 52.9446
-4.85071 19.6358 52.9446
-5.06259 19.255 52.9446
-4.72555 19.8607 52.9446
2.99413 -1.87098 36.3279
-17.8067 33.6123 -55.0774
-17.8067 33.6123 -64.3352
-4.88834 1.17896 64.3352
2.27457 -1.46449 -52.0509
-34.0082 -1.21665 36.3279
10.5 11.335 -52.0509
3.31631 15.3802 -52.0509
2.30633 20.6321 -52.0509
18.7178 -10.7535 -52.0509
36.8698 -21.0078 -52.0509
3.2 15.445 -52.0509
0.779781 21.4955 -52.0509
-44.7995 -21.0131 -55.0774
18.4228 7.67278 -52.0509
-44.7995 -21.0131 -64.3352
18.7191 6.79864 -52.0509
-15.7613 -1.38235 64.3352
-15.5991 -1.80476 64.3352
-27.4701 15.3386 -55.0774
-27.4701 15.3386 -64.3352
-24.5307 16.1698 -64.3352
-7.09962 15.5947 -64.3352
8.26131 4.84208 -64.3352
13.3414 16.4107 -55.0774
-25.2827 14.7902 -55.0774
-26.0773 14.5518 -55.0774
-26.0773 14.5518 -64.3352
-25.2827 14.7902 -64.3352
-15.5991 -1.80476 36.3279
22.9755 8.94104 -64.3352
-0.235847 22.07 -64.3352
1.98362 22.6831 -64.3352
-15.6667 32.4305 -64.3352
-15.6667 32.4305 -55.0774
-1.94682 24.8537 -55.0774
-1.94682 24.8537 -64.3352
-25.0395 13.9656 52.9446
36.8698 -21.0078 -55.0774
-36.6106 -7.65796 0.078575
36.8698 -21.0078 -64.3352
32.5488 -28.7424 -64.3352
-36.8449 -7.72323 0.078575
32.5488 -28.7424 -55.0774
19.5 4.495 0.352215
-7.05256 -6.67273 -64.3352
19.1 5.675 0.352215
-2.62741 1.30469 -64.3352
19.1 5.675 36.3279
-7.05256 -6.67273 -55.0774
19.5 4.495 36.3279
-2.62741 1.30469 -55.0774
47.2977 -2.34169 -64.3352
10.5606 11.3441 -52.0509
47.2977 -2.34169 -55.0774
19.9229 5.23709 0.352215
-25.2827 14.7902 52.9446
-1.24141 17.9195 -61.802
-25.5691 14.2647 52.9446
-24.7075 13.778 52.9446
-5.37263 18.6979 52.9446
-5.88854 20.5086 52.9446
-6.83096 8.2696 59.95
-6.83096 8.2696 64.3352
-6.3 7.965 64.3352
-6.3 7.965 59.95
-29.4505 -24.5671 -64.3352
14.1308 13.9439 -52.0509
-19.9246 -29.8778 -55.0774
-8.70299 12.2867 59.95
-7.49037 11.6161 59.95
-17.5997 9.7627 59.95
-37.6822 -7.95647 -55.0774
12.7358 -7.37414 -52.0509
-25.2827 14.7902 -52.0509
-25.5691 14.2647 -52.0509
25.9101 2.05104 0.352215
-8.39715 8.58336 59.95
-6.7 7.605 59.95
-6.7 7.605 64.3352
-8.39715 8.58336 64.3352
-25.5691 14.2647 -55.0774
-18.3737 27.4646 -55.0774
18.4284 2.61465 0.352215
-19.8012 9.13814 52.9446
-28.6448 6.62924 52.9446
25.5624 9.66166 -64.3352
25.5624 9.66166 -55.0774
-25.5691 14.2647 -64.3352
-36.6106 -7.65796 -55.0774
-29.6956 5.26453 52.9446
-3.22505 1.64231 -64.3352
-37.6822 -7.95647 -64.3352
-29.9465 6.23461 52.9446
-12.0804 6.64483 -64.3352
-29.9465 6.23461 36.3279
10.4056 11.386 -52.0509
10.4056 11.386 36.3279
36.6124 1.22761 -49.0288
-15.7248 -1.83975 -64.3352
-15.5991 -1.80476 59.95
-15.7613 -1.38235 59.95
-29.4505 -24.5671 -55.0774
-16.7012 6.10233 59.95
-16.7012 6.10233 64.3352
-17.4 4.485 64.3352
-17.4 4.485 59.95
13.1129 9.9221 36.3279
-0.235847 22.07 -52.0509
22.9755 8.94104 -52.0509
12.7358 -7.37414 -55.0774
-4.98745 1.65539 59.95
-12.7 19.515 52.9446
17.9979 1.8592 36.3279
16.3246 7.08827 36.3279
-26.1473 -18.6316 36.3279
17.9979 1.8592 0.352215
46.2472 -4.22206 -64.3352
-18.5 17.875 52.9446
2.99413 -1.87098 -52.0509
14.7611 11.9742 -52.0509
-17 -2.195 -64.3352
25.0699 4.87276 -52.0509
36.8698 -21.0078 -49.0288
-47.294 -19.6355 -64.3352
25.9101 2.05104 -49.0288
-47.294 -19.6355 -55.0774
6  500 104 55 103 127 527  26 255 0
5  500 497 163 162 428  26 255 0
4  500 527 505 497  26 255 0
5  527 128 123 451 505  26 255 0
3  527 127 128  26 255 0
5  500 428 113 109 104  26 255 0
3  497 164 163  26 255 0
4  86 335 159 96  0 255 134
5  494 433 250 52 54  0 255 214
5  494 104 109 114 434  0 255 214
5  498 127 103 45 126  0 134 255
4  498 366 363 393  0 134 255
4  498 126 124 366  0 134 255
5  494 54 46 55 104  0 255 214
6  498 393 472 350 128 127  0 134 255
5  497 505 451 165 164  26 255 0
4  85 336 302 95  0 255 134
5  85 77 83 328 336  0 255 134
4  86 95 302 335  0 255 134
5  86 96 168 455 95  26 255 0
7  85 95 455 129 130 39 77  26 255 0
6  478 321 495 259 200 202  0 134 255
3  494 434 433  0 255 214
5  487 481 343 501 62  0 255 214
4  487 431 480 481  0 255 214
6  488 440 441 89 90 400  255 241 0
4  84 89 388 389  0 255 134
5  488 400 291 297 401  255 241 0
3  84 90 89  26 255 0
4  84 389 399 90  0 255 134
4  118 401 297 93  255 241 0
4  118 93 94 431  0 255 214
5  90 91 92 291 400  255 241 0
4  90 399 398 91  0 255 134
3  478 322 321  0 134 255
4  30 185 184 415  255 0 241
5  30 270 444 449 183  255 161 0
4  30 415 269 270  187 0 255
4  358 329 271 71  0 255 134
4  358 169 21 329  0 255 134
3  358 170 169  0 255 134
7  516 457 96 159 410 525 479  255 0 241
8  516 185 30 183 178 167 168 457  255 161 0
4  516 479 184 185  255 0 241
3  392 290 287  0 134 255
5  508 37 181 182 474  0 134 255
7  508 383 419 392 287 32 35  0 134 255
3  508 35 37  0 134 255
4  357 328 83 82  0 255 134
3  357 82 81  0 255 134
4  32 287 288 34  255 0 0
4  495 321 448 445  0 53 255
4  32 34 284 35  26 0 255
4  495 445 246 259  26 0 255
5  487 62 53 251 432  0 255 214
5  478 365 125 43 322  0 134 255
4  472 380 381 397  0 134 255
4  472 397 349 350  0 134 255
4  508 474 382 383  0 134 255
4  493 6 7 430  255 0 80
4  441 177 88 89  255 241 0
4  36 37 283 180  26 0 255
6  36 38 130 129 348 181  0 134 255
4  374 200 201 245  26 0 255
4  374 33 351 373  0 134 255
4  36 180 179 38  26 0 255
4  374 245 285 33  26 0 255
4  404 172 137 466  0 255 134
9  358 72 73 74 319 375 377 171 170  0 255 134
4  521 180 257 256  26 0 255
4  465 107 106 491  0 255 214
8  357 81 80 106 490 67 68 69  0 255 134
4  442 113 112 161  255 241 0
5  492 436 523 379 458  255 0 80
4  492 438 437 436  255 0 80
5  492 493 430 391 438  255 0 80
4  441 442 161 177  255 241 0
5  493 387 4 5 6  255 0 80
6  493 492 458 460 254 387  255 0 80
4  91 398 122 92  0 255 134
4  431 94 100 480  0 255 214
5  28 531 482 153 140  255 0 241
5  151 461 452 150 138  255 0 241
4  479 300 327 184  255 0 241
4  28 353 355 531  255 0 241
4  151 139 152 461  255 0 241
3  415 184 326  255 0 241
4  328 357 304 303  0 255 134
4  31 445 448 320  0 53 255
4  31 258 246 445  26 0 255
5  521 132 131 179 180  26 0 255
8  521 256 258 31 372 134 133 132  26 0 255
4  245 243 286 285  26 0 255
7  180 283 284 34 285 286 257  26 0 255
4  466 137 171 377  0 255 134
6  488 401 425 252 407 440  255 241 0
4  118 431 432 117  0 255 214
3  431 487 432  0 255 214
5  300 479 525 301 265  255 0 241
5  482 531 355 275 276  255 0 241
5  482 276 277 152 153  255 0 241
8  300 262 522 489 277 276 324 327  255 0 241
5  461 152 277 489 450  255 0 241
4  335 329 21 159  0 255 134
5  138 150 149 268 235  255 80 0
6  329 335 302 303 435 271  0 255 134
4  149 150 452 454  255 0 241
5  149 454 456 519 520  255 0 241
8  478 202 373 351 290 392 364 365  0 134 255
4  392 419 532 364  0 134 255
3  451 166 165  26 255 0
4  455 167 166 451  26 255 0
5  474 182 348 349 397  0 134 255
4  451 123 129 455  26 255 0
4  393 421 380 472  0 134 255
4  444 270 269 416  187 0 255
4  444 416 157 158  187 0 255
4  0 158 157 17  255 80 0
4  464 343 344 462  0 255 214
4  464 499 501 343  0 255 214
4  464 443 496 499  0 255 214
5  465 491 59 496 443  0 255 214
4  405 341 175 174  0 255 134
4  467 342 341 405  0 255 134
4  462 344 99 97  0 255 214
4  347 345 342 467  0 255 134
9  467 405 403 404 466 377 337 346 347  0 255 134
7  465 443 464 462 97 98 107  0 255 214
6  446 29 453 165 166 447  255 161 0
4  446 142 27 29  187 0 255
5  460 378 2 3 254  255 0 80
4  460 458 379 378  255 0 80
4  0 2 523 16  255 0 80
4  444 158 142 446  187 0 255
3  453 164 165  255 161 0
7  453 29 27 143 429 163 164  255 0 241
3  457 168 96  255 161 0
3  455 168 167  26 255 0
6  447 166 167 178 183 449  255 161 0
4  449 444 446 447  255 161 0
6  439 427 114 109 113 442  255 241 0
5  439 408 249 426 427  255 241 0
4  440 407 408 439  255 241 0
4  442 441 440 439  255 241 0
4  433 115 110 250  0 255 214
4  432 251 116 117  0 255 214
4  343 481 480 344  0 255 214
5  31 320 323 411 136  0 53 255
4  434 114 115 433  0 255 214
4  426 115 114 427  255 241 0
4  426 249 110 115  255 241 0
4  425 117 116 252  255 241 0
4  401 118 117 425  255 241 0
4  421 393 363 530  0 134 255
4  421 419 383 380  0 134 255
4  416 529 156 157  187 0 255
4  416 269 386 529  187 0 255
4  17 157 156 12  255 80 0
5  415 326 354 314 269  187 0 255
4  28 361 13 141  255 80 0
4  42 198 199 136  187 255 0
4  411 323 322 43  0 53 255
5  43 62 61 198 42  187 255 0
4  411 43 42 136  0 53 255
4  408 407 252 249  255 241 0
4  385 170 171 376  107 0 255
4  406 264 265 301  255 0 241
3  406 20 22  255 0 241
7  23 520 519 263 264 406 22  255 0 241
5  385 306 307 169 170  107 0 255
4  23 22 306 385  107 0 255
4  405 174 173 403  0 255 134
4  404 403 173 172  0 255 134
4  250 251 53 52  0 255 214
4  365 366 124 125  0 134 255
5  372 48 135 102 134  26 0 255
6  402 368 81 82 339 340  0 255 53
4  48 49 186 135  0 214 255
4  402 105 57 368  0 255 53
4  402 134 102 105  0 255 53
4  235 268 267 312  255 80 0
5  390 513 503 502 412  255 80 0
4  390 310 311 513  255 80 0
4  234 235 312 310  255 80 0
6  513 311 267 266 396 503  255 80 0
4  62 43 125 53  187 255 0
4  62 501 369 61  0 255 214
6  132 338 83 77 39 131  0 255 53
3  132 133 338  0 255 53
4  134 402 340 133  0 255 53
4  266 212 330 396  255 80 0
5  502 394 395 371 370  255 80 0
4  503 396 394 502  255 80 0
4  384 148 26 25  107 0 255
6  384 376 171 137 147 148  107 0 255
4  12 156 155 18  255 80 0
5  529 386 313 155 156  187 0 255
4  326 278 353 354  187 0 255
4  325 275 278 326  255 0 241
4  18 155 154 315  255 80 0
4  107 367 490 106  0 255 134
8  97 346 337 375 63 65 367 98  0 255 134
3  107 98 367  0 255 134
5  347 121 122 398 345  0 255 134
4  399 342 345 398  0 255 134
4  524 518 121 120  255 241 0
4  298 292 518 524  255 241 0
4  524 120 119 298  255 241 0
4  292 298 297 291  255 241 0
4  122 121 518 292  255 241 0
4  474 397 381 382  0 134 255
4  330 316 371 395  255 80 0
4  330 212 211 248  255 80 0
4  396 330 395 394  255 80 0
6  391 430 7 8 9 10  255 0 80
4  391 177 161 438  255 0 80
4  391 10 88 177  255 0 80
4  89 88 176 388  0 255 134
4  389 341 342 399  0 255 134
4  389 160 175 341  0 255 134
7  234 310 526 473 515 299 420  255 0 161
4  390 459 526 310  255 0 161
4  389 388 176 160  0 255 134
4  387 254 3 4  255 0 80
4  17 12 362 360  255 0 161
4  0 17 360 2  255 0 161
4  361 359 253 13  255 0 161
5  314 354 353 28 141  187 0 255
4  386 269 314 313  187 0 255
5  12 18 315 504 362  255 0 161
5  149 520 23 24 25  255 0 241
6  385 376 384 25 24 23  107 0 255
4  383 382 381 380  0 134 255
5  361 333 528 206 359  255 0 161
6  236 299 515 206 528 331  255 0 161
4  379 523 2 378  255 0 80
3  356 279 281  107 255 0
5  356 281 483 484 231  107 255 0
3  377 375 337  0 255 134
5  375 319 204 64 63  0 255 134
6  309 471 282 260 73 72  107 255 0
4  373 202 200 374  0 134 255
4  48 372 31 136  26 0 255
4  136 199 49 48  187 255 0
4  316 330 248 317  255 80 0
4  316 294 370 371  255 80 0
4  50 44 198 61  187 255 0
4  60 49 44 50  0 214 255
4  369 60 50 61  0 255 214
6  59 491 106 80 57 58  0 255 214
4  59 189 49 60  0 214 255
4  368 57 80 81  0 255 53
4  59 58 187 189  0 214 255
5  356 220 512 509 279  107 255 0
4  367 65 66 490  0 255 134
6  305 69 68 274 280 195  107 255 0
4  366 365 364 363  0 134 255
4  360 362 504 253  255 0 161
5  34 288 289 352 285  255 0 0
4  361 28 140 333  255 80 0
4  151 236 331 139  255 80 0
4  2 360 253 3  255 0 161
4  359 4 3 253  255 0 161
3  72 358 71  0 255 134
4  357 69 70 304  0 255 134
6  356 231 230 209 241 220  107 255 0
4  353 278 275 355  255 0 241
4  352 289 290 351  255 0 0
4  33 285 352 351  255 0 0
4  348 129 123 349  0 134 255
3  348 182 181  0 134 255
4  349 123 128 350  0 134 255
3  37 36 181  0 134 255
4  514 176 88 10  255 0 161
5  514 418 417 160 176  255 0 161
4  515 473 7 6  255 0 161
4  514 10 9 418  255 0 161
4  363 364 532 530  0 134 255
6  477 226 224 274 272 273  107 255 0
3  490 66 67  0 255 134
4  477 273 66 65  107 255 0
4  315 13 253 504  255 0 161
4  532 419 421 530  0 134 255
5  347 346 97 120 121  0 255 134
7  120 97 99 100 94 93 119  0 255 134
5  525 410 20 406 301  255 0 241
4  522 262 263 519  255 0 241
5  519 456 450 489 522  255 0 241
5  390 412 502 229 459  255 80 0
5  502 370 417 413 229  255 80 0
4  229 413 414 228  255 0 161
4  293 175 160 417  255 80 0
4  293 417 370 294  255 80 0
4  100 99 344 480  0 255 214
4  339 82 83 338  0 255 53
4  133 340 339 338  0 255 53
4  318 225 226 477  107 255 0
4  63 318 477 65  107 255 0
4  336 328 303 302  0 255 134
3  333 331 528  255 0 161
4  334 332 331 333  255 80 0
4  153 152 332 334  255 80 0
4  153 334 333 140  255 80 0
4  332 152 139 331  255 80 0
4  248 211 148 147  255 80 0
4  324 276 275 325  255 0 241
5  327 324 325 326 184  255 0 241
5  323 320 448 321 322  0 53 255
4  319 74 75 204  0 255 134
6  318 475 476 205 216 225  107 255 0
4  318 63 64 475  107 255 0
4  295 173 174 296  255 80 0
4  317 172 173 295  255 80 0
5  317 248 147 137 172  255 80 0
4  317 295 294 316  255 80 0
3  313 154 155  187 0 255
4  315 154 141 13  255 80 0
4  314 141 154 313  187 0 255
4  312 267 311 310  255 80 0
4  309 192 470 471  107 255 0
4  308 255 239 409  107 255 0
7  71 70 506 240 210 255 308  107 255 0
5  308 517 309 72 71  107 255 0
4  501 499 496 369  0 255 214
4  20 21 169 307  107 0 255
4  306 22 20 307  107 0 255
4  496 59 60 369  0 255 214
4  308 409 191 517  107 255 0
4  309 517 191 192  107 255 0
4  4 359 206 5  255 0 161
4  515 6 5 206  255 0 161
4  506 424 238 240  107 255 0
4  305 218 423 507  107 255 0
4  506 507 423 424  107 255 0
4  305 195 196 218  107 255 0
4  304 70 435 303  0 255 134
3  300 265 262  255 0 241
4  299 236 422 420  255 0 161
3  234 420 422  255 0 161
4  298 119 93 297  255 241 0
4  296 174 175 293  255 80 0
4  296 293 294 295  255 80 0
4  92 122 292 291  255 241 0
4  290 289 288 287  255 0 0
5  286 243 242 256 257  26 0 255
4  284 283 37 35  26 0 255
4  260 282 247 205  107 255 0
4  260 203 74 73  107 255 0
4  260 205 476 203  107 255 0
4  225 216 215 232  107 255 0
4  282 471 468 247  107 255 0
4  281 233 486 483  107 255 0
4  247 213 216 205  107 255 0
3  247 468 213  107 255 0
4  231 484 485 193  107 255 0
5  274 224 222 221 280  107 255 0
4  226 227 223 224  107 255 0
4  280 221 194 195  107 255 0
4  279 509 510 261  107 255 0
4  39 38 179 131  26 0 255
4  68 67 272 274  107 255 0
4  66 273 272 67  107 255 0
4  271 435 70 71  0 255 134
5  268 149 25 266 267  255 80 0
4  25 26 212 266  255 80 0
4  265 264 263 262  255 0 241
5  227 261 510 217 223  107 255 0
4  258 244 201 246  26 0 255
4  256 242 244 258  26 0 255
4  259 246 201 200  26 0 255
4  255 210 208 239  107 255 0
4  230 190 207 209  107 255 0
4  252 116 110 249  255 241 0
4  251 250 110 116  0 255 214
3  245 201 243  26 0 255
4  244 242 243 201  26 0 255
5  192 193 485 469 470  107 255 0
4  241 209 207 237  107 255 0
4  240 238 208 210  107 255 0
4  190 239 208 207  107 255 0
4  238 237 207 208  107 255 0
6  236 151 138 235 234 422  255 80 0
5  233 232 215 214 486  107 255 0
4  231 193 190 230  107 255 0
5  228 473 526 459 229  255 0 161
5  228 414 8 7 473  255 0 161
4  227 226 225 232  107 255 0
4  224 223 217 222  107 255 0
3  221 222 194  107 255 0
4  220 219 511 512  107 255 0
5  219 218 196 197 511  107 255 0
4  217 510 511 197  107 255 0
4  222 217 197 194  107 255 0
4  512 511 510 509  107 255 0
5  69 305 507 506 70  107 255 0
4  233 281 279 261  107 255 0
4  219 220 241 237  107 255 0
4  213 214 215 216  107 255 0
4  436 15 16 523  255 0 80
4  469 485 486 214  107 255 0
4  468 469 214 213  107 255 0
4  486 485 484 483  107 255 0
4  148 211 212 26  255 80 0
3  204 75 64  0 255 134
4  203 476 75 74  107 255 0
4  476 475 64 75  107 255 0
4  471 470 469 468  107 255 0
4  232 233 261 227  107 255 0
3  461 450 452  255 0 241
4  456 454 452 450  255 0 241
4  49 199 198 44  187 255 0
4  197 196 195 194  107 255 0
4  193 192 191 190  107 255 0
5  58 57 105 188 187  0 214 255
4  189 187 186 49  0 214 255
4  188 105 102 135  0 214 255
4  188 135 186 187  0 214 255
4  219 237 423 218  107 255 0
6  113 428 162 144 14 112  26 255 0
4  438 161 112 437  255 0 80
5  437 112 14 15 436  255 0 80
4  429 143 144 162  255 0 241
3  429 162 163  255 0 241
4  237 238 424 423  107 255 0
4  418 414 413 417  255 0 161
4  9 8 414 418  255 0 161
4  410 159 21 20  255 0 241
4  191 409 239 190  107 255 0
3  39 130 38  0 134 255
3  177 161 88  255 241 0
3  161 177 88  255 0 80
3  176 88 160  0 255 134
3  88 176 160  255 0 161
8  175 160 146 19 137 172 173 174  0 255 134
8  160 175 174 173 172 137 19 146  255 80 0
6  171 137 19 21 169 170  0 255 134
6  137 171 170 169 21 19  107 0 255
4  159 21 19 146  0 255 134
4  21 159 146 19  255 0 241
4  96 159 146 87  0 255 134
4  159 96 87 146  255 0 241
6  168 96 164 165 166 167  26 255 0
6  96 168 167 166 165 164  255 161 0
6  163 164 96 145 144 162  26 255 0
6  164 163 162 144 145 96  255 0 241
4  112 14 463 111  26 255 0
3  161 112 111  255 241 0
3  112 161 111  255 0 80
3  88 161 111  255 241 0
3  161 88 111  255 0 80
3  96 145 87  255 0 241
3  160 88 11  0 255 134
3  88 160 11  255 0 161
4  160 146 87 11  255 80 0
4  143 15 14 144  255 80 0
4  158 0 16 142  255 80 0
4  146 160 11 87  0 255 134
4  145 463 11 87  255 80 0
3  145 96 87  26 255 0
4  145 463 14 144  26 255 0
4  144 14 463 145  255 80 0
5  142 16 15 143 27  255 80 0
4  145 87 11 463  26 255 0
7  158 142 141 154 155 156 157  255 80 0
7  142 158 157 156 155 154 141  187 0 255
4  28 141 142 27  255 80 0
4  141 28 27 142  187 0 255
13  140 28 27 143 144 145 87 146 19 26 138 151 139  255 80 0
13  28 140 139 151 138 26 19 146 87 145 144 143 27  255 0 241
4  153 140 139 152  255 80 0
4  140 153 152 139  255 0 241
5  150 138 26 25 149  255 80 0
5  138 150 149 25 26  255 0 241
4  148 26 137 147  255 80 0
4  26 148 147 137  107 0 255
3  137 19 26  107 0 255
3  137 26 19  255 80 0
4  126 54 52 124  187 255 0
4  124 52 53 125  187 255 0
4  126 45 46 54  187 255 0
7  43 125 124 126 45 47 42  0 134 255
7  125 43 42 47 45 126 124  187 255 0
4  136 42 41 48  26 0 255
4  42 136 48 41  187 255 0
5  135 48 41 40 102  26 0 255
5  48 135 102 40 41  0 214 255
7  134 102 40 39 131 132 133  26 0 255
7  134 133 132 131 39 40 102  0 255 53
6  130 39 40 101 123 129  0 134 255
6  39 130 129 123 101 40  26 255 0
5  128 123 101 103 127  0 134 255
5  123 128 127 103 101  26 255 0
3  42 41 47  187 255 0
3  42 47 41  0 134 255
4  111 463 11 88  26 255 0
4  111 463 14 112  255 0 80
4  111 88 11 463  255 0 80
10  89 88 111 112 113 109 108 92 91 90  255 241 0
10  88 89 90 91 92 108 109 113 112 111  26 255 0
6  122 92 93 119 120 121  255 241 0
6  92 122 121 120 119 93  0 255 134
6  118 93 108 110 116 117  255 241 0
6  93 118 117 116 110 108  0 255 214
5  115 110 108 109 114  255 241 0
5  110 115 114 109 108  0 255 214
3  93 92 108  255 241 0
3  92 93 108  26 255 0
4  40 41 47 101  0 134 255
4  101 47 41 40  0 214 255
4  101 47 45 103  0 134 255
4  103 45 47 101  0 214 255
4  103 55 46 45  0 214 255
7  94 93 108 109 104 55 51  0 255 214
7  93 94 51 55 104 109 108  26 255 0
9  100 94 79 80 106 107 98 97 99  0 255 214
9  94 100 99 97 98 107 106 80 79  0 255 134
4  57 80 79 56  0 255 214
5  105 57 56 40 102  0 214 255
5  57 105 102 40 56  0 255 53
4  101 40 56 51  0 214 255
4  40 101 51 56  26 255 0
4  103 101 51 55  0 214 255
4  101 103 55 51  26 255 0
4  94 51 56 79  0 255 214
4  94 79 56 51  26 255 0
9  87 11 88 84 78 76 85 95 86  0 255 134
9  88 11 87 86 95 85 76 78 84  26 255 0
3  96 87 86  0 255 134
3  87 96 86  26 255 0
4  39 77 76 40  0 255 53
3  85 77 76  26 255 0
4  39 40 76 77  26 255 0
8  94 79 78 84 90 91 92 93  0 255 134
4  40 56 79 78  26 255 0
8  94 93 92 91 90 84 78 79  26 255 0
3  89 84 88  0 255 134
3  84 89 88  26 255 0
3  40 76 78  0 255 53
3  85 76 77  0 255 134
4  40 78 79 56  0 255 53
3  40 78 76  26 255 0
4  80 57 56 79  0 255 53
8  83 77 76 78 79 80 81 82  0 255 134
8  77 83 82 81 80 79 78 76  0 255 53
13  75 64 63 65 66 67 68 69 70 71 72 73 74  107 255 0
13  64 75 74 73 72 71 70 69 68 67 66 65 63  0 255 134
7  62 53 52 54 46 50 61  187 255 0
7  53 62 61 50 46 54 52  0 255 214
7  60 50 51 56 57 58 59  0 214 255
7  50 60 59 58 57 56 51  0 255 214
4  55 51 50 46  0 214 255
4  51 55 46 50  0 255 214
6  50 46 45 47 41 44  187 255 0
6  46 50 44 41 47 45  0 214 255
4  49 44 41 48  187 255 0
4  44 49 48 41  0 214 255
3  42 43 495  0 53 255
3  43 42 495  0 134 255
9  41 42 495 35 37 36 38 39 40  26 0 255
9  42 41 40 39 38 36 37 35 495  0 134 255
7  32 35 495 259 200 374 33  26 0 255
7  35 32 33 374 200 259 495  0 134 255
5  287 32 33 351 290  255 0 0
5  32 287 290 351 33  0 134 255
4  321 495 43 322  0 53 255
4  495 321 322 43  0 134 255
4  285 33 32 34  255 0 0
4  33 285 34 32  26 0 255
5  31 136 42 495 445  0 53 255
5  136 31 445 495 42  26 0 255
8  96 164 453 29 30 185 516 457  255 161 0
8  164 96 457 516 185 30 29 453  255 0 241
5  270 30 29 446 444  255 161 0
5  30 270 444 446 29  187 0 255
8  353 28 27 29 30 415 326 278  255 0 241
8  28 353 278 326 415 30 29 27  187 0 255
8  24 25 26 19 21 20 22 23  107 0 255
8  25 24 23 22 20 21 19 26  255 0 241
4  463 14 1 11  255 80 0
4  14 463 11 1  255 0 80
16  160 11 1 13 361 333 331 236 422 234 310 390 459 229 413 417  255 80 0
16  11 160 417 413 229 459 390 310 234 422 236 331 333 361 13 1  255 0 161
4  315 13 12 18  255 80 0
4  13 315 18 12  255 0 161
5  17 12 13 1 0  255 80 0
5  12 17 0 1 13  255 0 161
5  16 0 1 14 15  255 80 0
5  0 16 15 14 1  255 0 80
13  9 10 88 11 1 0 2 3 4 5 6 7 8  255 0 161
13  10 9 8 7 6 5 4 3 2 0 1 11 88  255 0 80

