COFF
1375 1704 0

-38 -11.975 0.078575
-34.3 -14.065 0.078575
-30.6 -16.165 0.078575
-26.8 -18.265 0.078575
-25.7 -17.965 0.078575
-30.8 -19.415 0.078575
-29.8 -17.705 0.078575
-29.1 -20.375 0.078575
-28.1 -18.655 0.078575
-27.4 -20.925 0.078575
-29 -23.895 0.078575
-30.1 -24.205 0.078575
-31.7 -21.125 0.078575
-30 -22.085 0.078575
-34.1 -21.975 0.078575
-38.1 -19.745 0.078575
-42.1 -17.515 0.078575
-42.4 -16.515 0.078575
-37.6 -15.615 0.078575
-39.3 -14.665 0.078575
-38.6 -17.325 0.078575
-40.2 -16.375 0.078575
-41.1 -14.295 0.078575
-39.9 -13.805 0.078575
-38.3 -10.815 0.078575
-36.6 -13.905 0.078575
-38.3 -12.945 0.078575
-32.5 -2.045 36.276
-27 -5.145 36.276
-21.4 -8.245 36.276
-20.2 -7.945 36.276
-26.4 -11.475 36.276
-24.9 -8.745 36.276
-24.7 -12.435 36.276
-23.2 -9.705 36.276
-23 -12.955 36.276
-25.7 -17.965 36.276
-26.8 -18.265 36.276
-27.9 -14.195 36.276
-26.2 -15.165 36.276
-32.4 -15.125 36.276
-38 -11.975 36.276
-38.3 -10.815 36.276
-33.3 -7.615 36.276
-35 -6.655 36.276
-34.8 -10.335 36.276
-36.5 -9.375 36.276
-36.8 -8.015 36.276
-37 -6.705 36.276
-34.1 -1.385 36.276
-32.8 -0.915 36.276
-31.7 -4.885 36.276
-33.5 -3.925 36.276
46.3 -4.125 -49.0288
43.8 -8.535 -49.0288
40.6 -14.425 -49.0288
38.3 -18.515 -49.0288
37 -20.835 -49.0288
32.2 -18.175 -49.0288
27.4 -15.515 -49.0288
30.5 -9.945 -49.0288
33.5 -4.365 -49.0288
36.6 1.205 -49.0288
41.4 -1.455 -49.0288
22.4 3.965 0.352215
23.4 4.305 0.352215
19.1 -2.145 0.352215
17.4 -1.175 0.352215
21.1 1.275 0.352215
19.4 2.235 0.352215
20.2 1.765 0.352215
20.3 3.945 0.352215
22 2.985 0.352215
21.2 3.465 0.352215
20.9 -3.115 0.352215
22.8 0.305 0.352215
22 0.795 0.352215
23.8 2.015 0.352215
22.9 2.505 0.352215
25.5 3.095 0.352215
25.8 1.855 0.352215
22.5 -4.015 0.352215
19.2 -9.895 0.352215
17.8 -10.235 0.352215
17.2 -5.565 0.352215
19 -6.525 0.352215
12.1 -7.015 0.352215
13.1 -6.735 0.352215
15.5 -4.595 0.352215
16.3 -1.125 0.352215
19.5 4.495 0.352215
19.1 5.675 0.352215
-11.6 3.735 59.95
-6.7 7.605 59.95
-6.1 4.565 59.95
-5.5 1.515 59.95
-7.9 0.825 59.95
-10.4 0.125 59.95
-12.6 -0.505 59.95
-14.9 -1.135 59.95
-15.4 -0.955 59.95
-14.4 3.145 59.95
-11.1 1.695 59.95
-13.9 1.105 59.95
-15.3 0.815 59.95
-13.7 0.095 59.95
-15.1 -0.205 59.95
-16.4 1.765 59.95
-17.4 4.485 59.95
-16.7 6.105 59.95
-14.6 6.745 59.95
-12.4 7.385 59.95
-8.4 8.585 59.95
-12.4 7.385 64.3352
-16.7 6.105 64.3352
-17.4 4.485 64.3352
-15.4 -0.955 64.3352
-14.9 -1.135 64.3352
-10.4 0.125 64.3352
-10.3 -0.295 64.3352
-15.6 -1.805 64.3352
-18 4.445 64.3352
-17 6.555 64.3352
-12.5 7.825 64.3352
-6.3 7.965 64.3352
-5.6 4.595 64.3352
-4.9 1.235 64.3352
-5.5 1.515 64.3352
-6.7 7.605 64.3352
-8.4 8.585 64.3352
-8.2 9.055 64.3352
15.9 8.415 36.3279
16.3 7.165 36.3279
11.2 2.245 36.3279
13.9 0.725 36.3279
13.2 5.645 36.3279
15.9 4.125 36.3279
19.1 5.675 36.3279
19.5 4.495 36.3279
16.3 -1.125 36.3279
13.1 -6.735 36.3279
12.1 -7.015 36.3279
9.3 -1.145 36.3279
12 -2.665 36.3279
11 -4.375 36.3279
13.3 -3.435 36.3279
12.4 -5.125 36.3279
2.3 -1.465 36.3279
3.4 -1.145 36.3279
8.5 3.775 36.3279
6.6 0.375 36.3279
5.3 1.145 36.3279
5.7 -1.315 36.3279
4.3 -0.555 36.3279
6.5 4.405 36.3279
9.6 9.945 36.3279
9.3 11.155 36.3279
10.5 7.165 36.3279
10.5 11.335 36.3279
-7 11.345 59.9099
-6.3 7.965 59.9099
-8.2 9.055 59.9099
-12.5 7.825 59.9099
-17 6.555 59.9099
-18 4.445 59.9099
-19.3 7.665 59.9099
-17.9 9.675 59.9099
-8.7 12.285 59.9099
-0.2 1.395 52.9446
2.1 5.555 52.9446
4.4 9.705 52.9446
-4.4 3.705 52.9446
-2.1 7.875 52.9446
0.2 12.025 52.9446
-6.2 10.185 52.9446
-3.9 14.335 52.9446
-19.6 -4.135 52.9446
-17.3 0.025 52.9446
-23.8 -1.815 52.9446
-21.5 2.335 52.9446
-28 0.495 52.9446
-25.6 4.655 52.9446
3.2 15.445 52.9446
3.5 14.425 52.9446
1.4 14.105 52.9446
5.5 11.795 52.9446
2.3 10.875 52.9446
3.5 12.945 52.9446
6.4 12.795 52.9446
9.3 11.155 52.9446
9.6 9.945 52.9446
6.4 8.555 52.9446
7.6 10.625 52.9446
8 7.175 52.9446
6.5 4.405 52.9446
5 1.625 52.9446
3.4 -1.145 52.9446
2.3 -1.465 52.9446
-0.6 0.105 52.9446
-3.4 1.675 52.9446
-4.9 1.235 52.9446
-5.6 4.595 52.9446
-6.3 7.965 52.9446
-7 11.345 52.9446
-8.7 12.285 52.9446
-11.8 11.415 52.9446
-14.9 10.545 52.9446
-17.9 9.675 52.9446
-19.3 7.665 52.9446
-18 4.445 52.9446
-16.8 1.325 52.9446
-15.6 -1.805 52.9446
-17 -2.195 52.9446
-18.5 -2.055 52.9446
-18.6 -5.065 52.9446
-20.2 -7.945 52.9446
-21.4 -8.245 52.9446
-24.2 -6.695 52.9446
-27 -5.145 52.9446
-29.7 -3.595 52.9446
-32.5 -2.045 52.9446
-32.8 -0.915 52.9446
-30 1.655 52.9446
-29.1 -1.585 52.9446
-31.2 -0.425 52.9446
-31.2 1.985 52.9446
-29.6 4.895 52.9446
-29.9 6.055 52.9446
-27.7 5.815 52.9446
-26.8 2.575 52.9446
-28.9 3.735 52.9446
-28.3 8.985 52.9446
-26.6 11.935 52.9446
-25 14.875 52.9446
-22 15.765 52.9446
-19.1 16.645 52.9446
-18.5 17.875 52.9446
-15.6 18.695 52.9446
-12.7 19.515 52.9446
-11.8 18.885 52.9446
-8.8 19.695 52.9446
-5.9 20.515 52.9446
-2.8 18.825 52.9446
0.2 17.135 52.9446
-8 16.665 52.9446
-21 12.975 52.9446
36.6 1.205 -52.0509
33.5 -4.365 -52.0509
30.5 -9.945 -52.0509
27.4 -15.515 -52.0509
22.6 -12.875 -52.0509
17.8 -10.235 -52.0509
19.2 -9.895 -52.0509
23.7 -10.945 -52.0509
23.1 -12.015 -52.0509
21.1 -9.485 -52.0509
20.5 -10.555 -52.0509
22.5 -4.015 -52.0509
25.8 1.855 -52.0509
25.5 3.095 -52.0509
29.7 -0.285 -52.0509
28.5 -2.415 -52.0509
29.1 -1.345 -52.0509
25.9 -0.945 -52.0509
27.1 1.185 -52.0509
26.5 0.115 -52.0509
25.7 4.775 -52.0509
30.9 1.845 -52.0509
30.3 0.785 -52.0509
25.1 3.715 -52.0509
28.3 3.315 -52.0509
27.7 2.245 -52.0509
15.4 10.625 -52.0509
20.5 7.705 -52.0509
23.4 4.305 -52.0509
22.4 3.965 -52.0509
20 6.635 -52.0509
23.1 6.235 -52.0509
22.5 5.175 -52.0509
19.1 5.675 -52.0509
16.3 7.165 -52.0509
15.9 8.415 -52.0509
14.8 9.565 -52.0509
18 9.165 -52.0509
17.4 8.105 -52.0509
5 16.485 -52.0509
10.2 13.555 -52.0509
10.5 11.335 -52.0509
9.3 11.155 -52.0509
9.6 12.495 -52.0509
12.8 12.095 -52.0509
12.2 11.025 -52.0509
3.5 14.425 -52.0509
3.2 15.445 -52.0509
-0.2 19.415 -52.0509
4.4 15.415 -52.0509
2.4 17.945 -52.0509
1.8 16.885 -52.0509
-1.3 17.985 -52.0509
-5.9 20.515 -52.0509
-0.2 22.035 -52.0509
7.2 17.875 -52.0509
14.5 13.695 -52.0509
21.9 9.535 -52.0509
29.3 5.375 -52.0509
-2.7 -4.335 -55.0774
-25.4 -22.405 -55.0774
-16.6 -6.795 -55.0774
-12.8 21.985 -55.0774
-16 32.625 -55.0774
-11 29.825 -55.0774
-5.9 27.015 -55.0774
-0.8 24.215 -55.0774
5 21.015 -55.0774
10.8 17.805 -55.0774
16.6 14.605 -55.0774
22.7 11.215 -55.0774
28.9 7.835 -55.0774
35 4.445 -55.0774
41.1 1.055 -55.0774
47.3 -2.335 -55.0774
46.3 -4.125 -55.0774
41.4 -1.455 -55.0774
36.6 1.205 -55.0774
30.5 4.675 -55.0774
24.4 8.155 -55.0774
18.2 11.625 -55.0774
12.1 15.095 -55.0774
5.9 18.555 -55.0774
-0.2 22.035 -55.0774
-5.9 20.515 -55.0774
-11.8 18.885 -55.0774
-12.7 19.515 -55.0774
-17.5 24.665 -55.0774
-10.6 25.895 -55.0774
-18.5 17.875 -55.0774
-19.1 16.645 -55.0774
-25 14.875 -55.0774
-27.5 10.465 -55.0774
-29.9 6.055 -55.0774
-29.6 4.895 -55.0774
-32.8 -0.915 -55.0774
-34.1 -1.385 -55.0774
-37 -6.705 -55.0774
-36.8 -8.015 -55.0774
-38.3 -10.815 -55.0774
-39.9 -13.805 -55.0774
-41.1 -14.295 -55.0774
-42.4 -16.515 -55.0774
-42.1 -17.515 -55.0774
-36.1 -20.865 -55.0774
-30.1 -24.205 -55.0774
-29 -23.895 -55.0774
-27.6 -26.315 -55.0774
-26.5 -24.365 -55.0774
-20.6 -25.085 -55.0774
-22.9 -28.995 -55.0774
-25.7 -17.965 -55.0774
-23 -12.955 -55.0774
-20.2 -7.945 -55.0774
-17 -2.195 -55.0774
-15.6 -1.805 -55.0774
-10.3 -0.295 -55.0774
-4.9 1.235 -55.0774
-3.4 1.675 -55.0774
-14.3 -2.885 -55.0774
-15.5 -4.835 -55.0774
-7.4 -1.665 -55.0774
-11.8 -9.465 -55.0774
-9.6 -5.565 -55.0774
-0.5 -0.425 -55.0774
-6.3 0.295 -55.0774
-2.8 0.915 -55.0774
-1.6 -2.375 -55.0774
-5 -2.995 -55.0774
-3.9 -1.045 -55.0774
2.3 -1.465 -55.0774
7.2 -4.235 -55.0774
12.1 -7.015 -55.0774
17.8 -10.235 -55.0774
22.6 -12.875 -55.0774
27.4 -15.515 -55.0774
32.2 -18.175 -55.0774
37 -20.835 -55.0774
34.8 -24.815 -55.0774
32.6 -28.785 -55.0774
28.9 -26.695 -55.0774
25.1 -24.605 -55.0774
20 -21.775 -55.0774
14.3 -18.625 -55.0774
9.3 -15.875 -55.0774
4.3 -13.145 -55.0774
-0.6 -10.405 -55.0774
-7.1 -6.805 -55.0774
-10.9 -13.585 -55.0774
-14.6 -20.265 -55.0774
-18.3 -26.945 -55.0774
-22 -33.635 -55.0774
-24.2 -32.385 -55.0774
-30 -29.195 -55.0774
-35.7 -26.015 -55.0774
-41.5 -22.825 -55.0774
-47.3 -19.635 -55.0774
-43.7 -13.235 -55.0774
-40.2 -6.825 -55.0774
-36.7 -0.415 -55.0774
-33.1 5.985 -55.0774
-29.3 12.905 -55.0774
-25.5 19.815 -55.0774
-21.7 26.725 -55.0774
-17.8 33.635 -55.0774
-15.3 28.575 -55.0774
25.7 -20.395 -55.0774
6.8 -9.685 -55.0774
17.8 -10.235 -27.3626
12.1 -7.015 -27.3626
12.1 -7.015 -9.37474
2.3 -1.465 -9.37474
2.3 -1.465 16.9373
2.3 -1.465 -19.0701
-3.4 1.675 43.9428
-3.4 1.675 34.9409
-3.4 1.675 25.9391
-3.4 1.675 16.9373
-3.4 1.675 7.93546
-3.4 1.675 -1.06637
-3.4 1.675 -10.0682
-3.4 1.675 -19.0701
-3.4 1.675 -28.0719
-3.4 1.675 -37.0737
-3.4 1.675 -46.0756
-4.9 1.235 43.9428
-4.9 1.235 34.9409
-4.9 1.235 25.9391
-4.9 1.235 16.9373
-4.9 1.235 7.93546
-4.9 1.235 -1.06637
32.6 -28.785 -58.4608
-4.9 1.235 -10.0682
-4.9 1.235 -19.0701
-4.9 1.235 -28.0719
-4.9 1.235 -37.0737
-4.9 1.235 -46.0756
-4.9 1.235 34.482
-4.9 1.235 4.62892
-4.9 1.235 -25.2242
-10.3 -0.295 49.4086
-10.3 -0.295 34.482
-10.3 -0.295 19.5555
-10.3 -0.295 4.62892
-10.3 -0.295 -10.2977
-10.3 -0.295 -25.2242
-10.3 -0.295 -40.1508
-12.9 -1.055 64.3352
-12.9 -1.055 49.4086
25.1 -24.605 -58.4608
-12.9 -1.055 34.482
-12.9 -1.055 19.5555
32.6 -28.785 -55.3343
34 -26.275 -55.3343
-12.9 -1.055 4.62892
-12.9 -1.055 -10.2977
-12.9 -1.055 -25.2242
-12.9 -1.055 -40.1508
-12.9 -1.055 -55.0774
-15.6 -1.805 49.4086
-15.6 -1.805 34.482
-15.6 -1.805 19.5555
-15.6 -1.805 4.62892
-15.6 -1.805 -10.2977
-15.6 -1.805 -25.2242
-15.6 -1.805 -40.1508
-15.6 -1.805 44.6352
-15.6 -1.805 36.3258
-15.6 -1.805 28.0164
-15.6 -1.805 19.7071
-15.6 -1.805 11.3977
-15.6 -1.805 3.08832
-15.6 -1.805 -5.22108
-15.6 -1.805 -13.5305
-15.6 -1.805 -21.8398
-15.6 -1.805 -30.1492
14.3 -18.625 -57.1226
20 -21.775 -57.1226
-15.6 -1.805 -38.4586
-15.6 -1.805 -46.768
-17 -2.195 44.6352
-17 -2.195 36.3258
-17 -2.195 28.0164
-17 -2.195 19.7071
-17 -2.195 11.3977
-17 -2.195 3.08832
-17 -2.195 -5.22108
-17 -2.195 -13.5305
-17 -2.195 -21.8398
-17 -2.195 -30.1492
-17 -2.195 -38.4586
-17 -2.195 -46.768
-17 -2.195 16.9373
-17 -2.195 -19.0701
-20.2 -7.945 16.9373
-20.2 -7.945 -19.0701
-20.2 -7.945 -9.4007
-25.7 -17.965 -9.4007
-25.7 -17.965 -27.4994
-29 -23.895 -27.4994
-29 -23.895 -6.04986
-0.6 -10.405 -57.1226
-29 -23.895 -12.1783
-29 -23.895 -18.3068
-29 -23.895 -24.4352
-29 -23.895 -30.5636
-29 -23.895 -36.6921
-29 -23.895 -42.8205
-29 -23.895 -48.949
-30.1 -24.205 -6.04986
-30.1 -24.205 -12.1783
-30.1 -24.205 -18.3068
-30.1 -24.205 -24.4352
-30.1 -24.205 -30.5636
-30.1 -24.205 -36.6921
-30.1 -24.205 -42.8205
-30.1 -24.205 -48.949
-42.4 -16.515 -48.949
25.1 -24.605 -56.773
-42.4 -16.515 -42.8205
-42.4 -16.515 -36.6921
-42.4 -16.515 -30.5636
-42.4 -16.515 -24.4352
-42.4 -16.515 -18.3068
20 -21.775 -56.773
-0.6 -10.405 -55.4178
-42.4 -16.515 -12.1783
-42.4 -16.515 -6.04986
-22 -33.635 -55.4178
-10.9 -13.585 -55.4178
-7.1 -6.805 -55.4178
-42.1 -17.515 -48.949
-42.1 -17.515 -42.8205
-42.1 -17.515 -36.6921
-42.1 -17.515 -30.5636
-42.1 -17.515 -24.4352
-42.1 -17.515 -18.3068
-42.1 -17.515 -12.1783
-42.1 -17.515 -6.04986
-41.1 -14.295 -41.2884
-41.1 -14.295 -27.4994
-41.1 -14.295 -13.7104
-42.4 -16.515 -41.2884
-42.4 -16.515 -27.4994
-42.4 -16.515 -13.7104
-39.9 -13.805 -47.198
-39.9 -13.805 -39.3186
-39.9 -13.805 -31.4391
-39.9 -13.805 -23.5597
-39.9 -13.805 -15.6803
-39.9 -13.805 -7.80086
-41.1 -14.295 -47.198
-41.1 -14.295 -39.3186
-41.1 -14.295 -31.4391
-41.1 -14.295 -23.5597
32.6 -28.785 -61.8229
34 -26.275 -61.8229
-41.1 -14.295 -15.6803
-41.1 -14.295 -7.80086
-38.3 -10.815 -36.6921
-38.3 -10.815 -18.3068
-39.9 -13.805 -36.6921
-39.9 -13.805 -18.3068
-36.8 -8.015 -36.8067
-36.8 -8.015 -18.536
-36.8 -8.015 -0.265355
-36.8 -8.015 18.0053
-38.3 -10.815 -36.8067
-38.3 -10.815 -18.536
-38.3 -10.815 -0.265355
-38.3 -10.815 18.0053
-37 -6.705 -51.1055
-37 -6.705 -47.1336
-9.1 11.765 -64.3352
-24.1 -15.395 -64.3352
24.1 -6.575 -64.3352
47.3 -2.335 -64.3352
46.3 -4.125 -64.3352
43.8 -8.535 -64.3352
40.6 -14.425 -64.3352
38.3 -18.515 -64.3352
37 -20.835 -64.3352
32.6 -28.785 -64.3352
32.4 -11.165 -64.3352
27.9 0.215 -64.3352
36.1 -4.375 -64.3352
40.3 -6.665 -64.3352
38 -0.975 -64.3352
42.2 -3.265 -64.3352
20.3 -13.375 -64.3352
28.6 -17.955 -64.3352
32.8 -20.245 -64.3352
30.5 -14.555 -64.3352
36.5 -13.455 -64.3352
34.7 -16.855 -64.3352
25.1 -24.605 -64.3352
20 -21.775 -64.3352
14.3 -18.625 -64.3352
6.8 -14.515 -64.3352
-0.6 -10.405 -64.3352
-7.1 -6.805 -64.3352
-10.9 -13.585 -64.3352
-16.4 -23.605 -64.3352
-22 -33.635 -64.3352
-24.2 -32.385 -64.3352
-35.7 -26.015 -64.3352
-47.3 -19.635 -64.3352
-27.9 -22.195 -64.3352
-19.6 -26.775 -64.3352
-21.5 -30.165 -64.3352
-29.7 -25.585 -64.3352
-23.7 -24.485 -64.3352
-25.6 -27.875 -64.3352
-32.4 -10.805 -64.3352
-36.2 -17.605 -64.3352
-42.6 -11.085 -64.3352
-37.8 -2.555 -64.3352
-33.1 5.985 -64.3352
-28 15.205 -64.3352
-22.9 24.415 -64.3352
-17.8 33.635 -64.3352
-16 32.625 -64.3352
-8.4 28.425 -64.3352
-0.8 24.215 -64.3352
7.9 19.415 -64.3352
16.6 14.605 -64.3352
26.8 8.955 -64.3352
37 3.305 -64.3352
-5.4 18.565 -64.3352
-17.4 16.355 -64.3352
-13.6 23.155 -64.3352
-11.8 26.545 -64.3352
-17.8 25.445 -64.3352
-15.9 28.835 -64.3352
-37 -6.705 -43.1617
-37 -6.705 -39.1899
-37 -6.705 -35.218
-37 -6.705 -31.2461
-37 -6.705 -27.2742
-37 -6.705 -23.3023
-37 -6.705 -19.3304
-37 -6.705 -15.3585
-37 -6.705 -11.3866
-37 -6.705 -7.41474
-37 -6.705 -3.44286
-37 -6.705 0.529025
-37 -6.705 4.50092
-37 -6.705 8.47281
-37 -6.705 12.4447
-37 -6.705 16.4166
-37 -6.705 20.3884
-37 -6.705 24.3603
-37 -6.705 28.3322
-37 -6.705 32.3041
-36.9 -7.365 -55.0774
-36.9 -7.365 -51.1055
-36.9 -7.365 -47.1336
-36.9 -7.365 -43.1617
-36.9 -7.365 -39.1899
-36.9 -7.365 -35.218
-36.9 -7.365 -31.2461
-36.9 -7.365 -27.2742
32.6 -28.785 -63.9285
-36.9 -7.365 -23.3023
-36.9 -7.365 -19.3304
-36.9 -7.365 -15.3585
-36.9 -7.365 -11.3866
25.1 -24.605 -63.9285
-36.9 -7.365 -7.41474
-36.9 -7.365 -3.44286
-36.9 -7.365 0.529025
-36.9 -7.365 4.50092
-36.9 -7.365 8.47281
20 -21.775 -63.9285
-36.9 -7.365 12.4447
-36.9 -7.365 16.4166
-36.9 -7.365 20.3884
46.3 -4.125 -59.7063
46.8 -3.235 -64.3352
46.8 -3.235 -59.7063
46.8 -3.235 -55.0774
47.3 -2.335 -59.7063
-36.9 -7.365 24.3603
-36.9 -7.365 28.3322
-36.9 -7.365 32.3041
-36.9 -7.365 36.276
-36.8 -8.015 -51.1055
-36.8 -8.015 -47.1336
-36.8 -8.015 -43.1617
-36.8 -8.015 -39.1899
-36.8 -8.015 -35.218
28.9 -26.695 -64.3352
28.9 -26.695 -63.9285
28.9 -26.695 -58.4608
-26.8 -18.265 6.11149
-26.8 -18.265 12.1444
-26.8 -18.265 18.1773
-26.8 -18.265 24.2102
-26.8 -18.265 30.2431
-25.7 -17.965 6.11149
-25.7 -17.965 12.1444
-25.7 -17.965 18.1773
-25.7 -17.965 24.2102
-25.7 -17.965 30.2431
-38 -11.975 32.9853
-38 -11.975 29.6946
-38 -11.975 26.4039
-38 -11.975 23.1133
-38 -11.975 19.8226
-38 -11.975 16.532
-38 -11.975 13.2413
-38 -11.975 9.95061
-38 -11.975 6.65992
-38 -11.975 3.36926
-38.2 -11.395 36.276
-38.2 -11.395 32.9853
-38.2 -11.395 29.6946
-38.2 -11.395 26.4039
-38.2 -11.395 23.1133
-38.2 -11.395 19.8226
-38.2 -11.395 16.532
-38.2 -11.395 13.2413
-38.2 -11.395 9.95061
-38.2 -11.395 6.65992
-38.2 -11.395 3.36926
-38.2 -11.395 0.078575
-38.3 -10.815 32.9853
-38.3 -10.815 29.6946
-38.3 -10.815 26.4039
-38.3 -10.815 23.1133
-38.3 -10.815 19.8226
-38.3 -10.815 16.532
-38.3 -10.815 13.2413
-38.3 -10.815 9.95061
-38.3 -10.815 6.65992
-38.3 -10.815 3.36926
-21.4 -8.245 41.8322
-21.4 -8.245 47.3884
-20.2 -7.945 41.8322
-20.2 -7.945 47.3884
-32.5 -2.045 49.6109
-32.5 -2.045 46.2772
-32.5 -2.045 42.9434
-32.5 -2.045 39.6097
-32.6 -1.485 52.9446
-32.6 -1.485 49.6109
-32.6 -1.485 46.2772
-32.6 -1.485 42.9434
-32.6 -1.485 39.6097
-32.6 -1.485 36.276
-32.8 -0.915 49.6109
-32.8 -0.915 46.2772
-32.8 -0.915 42.9434
-32.8 -0.915 39.6097
12.1 -7.015 6.34816
12.1 -7.015 12.3441
12.1 -7.015 18.3401
12.1 -7.015 24.336
12.1 -7.015 30.3319
13.1 -6.735 6.34816
13.1 -6.735 12.3441
13.1 -6.735 18.3401
13.1 -6.735 24.336
13.1 -6.735 30.3319
19.5 4.495 7.54735
19.5 4.495 14.7425
19.5 4.495 21.9376
19.5 4.495 29.1327
19.1 5.675 7.54735
19.1 5.675 14.7425
19.1 5.675 21.9376
19.1 5.675 29.1327
-15.4 -0.955 62.1426
-14.9 -1.135 62.1426
-10.4 7.985 59.95
-10.4 7.985 64.3352
2.3 -1.465 39.6512
2.3 -1.465 42.9746
2.3 -1.465 46.2979
2.3 -1.465 49.6213
2.8 -1.305 36.3279
2.8 -1.305 39.6512
2.8 -1.305 42.9746
2.8 -1.305 46.2979
2.8 -1.305 49.6213
2.8 -1.305 52.9446
3.4 -1.145 39.6512
3.4 -1.145 42.9746
3.4 -1.145 46.2979
3.4 -1.145 49.6213
9.6 9.945 39.6512
9.6 9.945 42.9746
9.6 9.945 46.2979
9.6 9.945 49.6213
9.5 10.555 36.3279
9.5 10.555 39.6512
9.5 10.555 42.9746
9.5 10.555 46.2979
9.5 10.555 49.6213
9.5 10.555 52.9446
9.3 11.155 39.6512
9.3 11.155 42.9746
9.3 11.155 46.2979
9.3 11.155 49.6213
-13.3 10.985 59.9099
-13.3 10.985 52.9446
-16.8 1.325 64.3352
32 -7.155 -49.0288
32 -7.155 -52.0509
17.8 -10.235 -48.0199
17.8 -10.235 -43.9889
17.8 -10.235 -39.9579
17.8 -10.235 -35.9269
17.8 -10.235 -31.8959
17.8 -10.235 -27.8649
17.8 -10.235 -23.8339
17.8 -10.235 -19.8028
17.8 -10.235 -15.7718
17.8 -10.235 -11.7408
17.8 -10.235 -7.70981
17.8 -10.235 -3.6788
18.5 -10.065 -52.0509
18.5 -10.065 -48.0199
18.5 -10.065 -43.9889
18.5 -10.065 -39.9579
18.5 -10.065 -35.9269
18.5 -10.065 -31.8959
18.5 -10.065 -27.8649
18.5 -10.065 -23.8339
18.5 -10.065 -19.8028
18.5 -10.065 -15.7718
18.5 -10.065 -11.7408
18.5 -10.065 -7.70981
18.5 -10.065 -3.6788
18.5 -10.065 0.352215
19.2 -9.895 -48.0199
19.2 -9.895 -43.9889
19.2 -9.895 -39.9579
19.2 -9.895 -35.9269
19.2 -9.895 -31.8959
19.2 -9.895 -27.8649
19.2 -9.895 -23.8339
19.2 -9.895 -19.8028
19.2 -9.895 -15.7718
19.2 -9.895 -11.7408
19.2 -9.895 -7.70981
19.2 -9.895 -3.6788
25.8 1.855 -44.5648
25.8 1.855 -37.0786
25.8 1.855 -29.5924
25.8 1.855 -22.1063
25.8 1.855 -14.6201
25.8 1.855 -7.13396
25.5 3.095 -44.5648
25.5 3.095 -37.0786
25.5 3.095 -29.5924
25.5 3.095 -22.1063
25.5 3.095 -14.6201
25.5 3.095 -7.13396
23.4 4.305 -12.7486
23.4 4.305 -25.8494
23.4 4.305 -38.9501
25.5 3.095 -12.7486
25.5 3.095 -25.8494
25.5 3.095 -38.9501
22.4 3.965 -5.47037
22.4 3.965 -11.2929
22.4 3.965 -17.1155
22.4 3.965 -22.9381
22.4 3.965 -28.7606
22.4 3.965 -34.5832
22.4 3.965 -40.4058
22.4 3.965 -46.2284
23.4 4.305 -5.47037
23.4 4.305 -11.2929
23.4 4.305 -17.1155
23.4 4.305 -22.9381
23.4 4.305 -28.7606
23.4 4.305 -34.5832
23.4 4.305 -40.4058
23.4 4.305 -46.2284
19.1 5.675 -17.1155
19.1 5.675 -34.5832
16.3 7.165 18.6521
16.3 7.165 0.976375
16.3 7.165 -16.6994
16.3 7.165 -34.3752
19.1 5.675 18.6521
19.1 5.675 0.976375
19.1 5.675 -16.6994
19.1 5.675 -34.3752
16.3 7.165 -44.686
16.3 7.165 -37.3211
16.3 7.165 -29.9562
16.3 7.165 -22.5913
16.3 7.165 -15.2264
16.3 7.165 -7.8615
16.3 7.165 -0.496605
16.3 7.165 6.86831
16.3 7.165 14.2332
16.3 7.165 21.5981
16.3 7.165 28.963
15.9 8.415 -44.686
15.9 8.415 -37.3211
15.9 8.415 -29.9562
15.9 8.415 -22.5913
15.9 8.415 -15.2264
15.9 8.415 -7.8615
15.9 8.415 -0.496605
15.9 8.415 6.86831
15.9 8.415 14.2332
15.9 8.415 21.5981
15.9 8.415 28.963
10.5 11.335 6.86831
10.5 11.335 -22.5913
9.3 11.155 29.5295
9.3 11.155 22.7311
9.3 11.155 15.9328
9.3 11.155 9.13443
9.3 11.155 2.33605
9.3 11.155 -4.46231
9.3 11.155 -11.2607
9.3 11.155 -18.0591
9.3 11.155 -24.8574
9.3 11.155 -31.6558
9.3 11.155 -38.4542
9.3 11.155 -45.2526
10.5 11.335 29.5295
10.5 11.335 22.7311
10.5 11.335 15.9328
10.5 11.335 9.13443
10.5 11.335 2.33605
10.5 11.335 -4.46231
10.5 11.335 -11.2607
10.5 11.335 -18.0591
10.5 11.335 -24.8574
10.5 11.335 -31.6558
10.5 11.335 -38.4542
10.5 11.335 -45.2526
3.5 14.425 35.4453
3.5 14.425 17.9461
3.5 14.425 0.446865
3.5 14.425 -17.0524
3.5 14.425 -34.5517
6.4 12.795 35.4453
6.4 12.795 17.9461
6.4 12.795 0.446865
6.4 12.795 -17.0524
6.4 12.795 -34.5517
6.4 12.795 -52.0509
9.3 11.155 35.4453
9.3 11.155 17.9461
9.3 11.155 0.446865
9.3 11.155 -17.0524
9.3 11.155 -34.5517
3.5 14.425 -48.9628
3.5 14.425 -45.8747
3.5 14.425 -42.7866
3.5 14.425 -39.6985
3.5 14.425 -36.6104
3.5 14.425 -33.5223
3.5 14.425 -30.4342
3.5 14.425 -27.3461
3.5 14.425 -24.258
3.5 14.425 -21.1699
3.5 14.425 -18.0818
3.5 14.425 -14.9937
3.5 14.425 -11.9056
3.5 14.425 -8.81745
3.5 14.425 -5.72934
3.5 14.425 -2.64124
3.5 14.425 3.53498
3.5 14.425 6.62306
3.5 14.425 9.71118
3.5 14.425 12.7993
3.5 14.425 15.8874
3.5 14.425 18.9755
3.5 14.425 22.0636
3.5 14.425 25.1517
3.5 14.425 28.2398
3.5 14.425 31.3279
3.5 14.425 34.416
3.5 14.425 37.5041
3.5 14.425 40.5922
3.5 14.425 43.6803
3.5 14.425 46.7684
3.5 14.425 49.8565
3.4 14.945 -52.0509
3.4 14.945 -48.9628
3.4 14.945 -45.8747
3.4 14.945 -42.7866
3.4 14.945 -39.6985
3.4 14.945 -36.6104
3.4 14.945 -33.5223
3.4 14.945 -30.4342
3.4 14.945 -27.3461
3.4 14.945 -24.258
3.4 14.945 -21.1699
3.4 14.945 -18.0818
3.4 14.945 -14.9937
3.4 14.945 -11.9056
3.4 14.945 -8.81745
3.4 14.945 -5.72934
3.4 14.945 -2.64124
3.4 14.945 0.446865
3.4 14.945 3.53498
3.4 14.945 6.62306
3.4 14.945 9.71118
3.4 14.945 12.7993
3.4 14.945 15.8874
3.4 14.945 18.9755
3.4 14.945 22.0636
3.4 14.945 25.1517
3.4 14.945 28.2398
3.4 14.945 31.3279
3.4 14.945 34.416
3.4 14.945 37.5041
3.4 14.945 40.5922
3.4 14.945 43.6803
3.4 14.945 46.7684
3.4 14.945 49.8565
3.4 14.945 52.9446
3.2 15.445 -48.9628
3.2 15.445 -45.8747
3.2 15.445 -42.7866
3.2 15.445 -39.6985
3.2 15.445 -36.6104
3.2 15.445 -33.5223
3.2 15.445 -30.4342
3.2 15.445 -27.3461
3.2 15.445 -24.258
3.2 15.445 -21.1699
3.2 15.445 -18.0818
3.2 15.445 -14.9937
3.2 15.445 -11.9056
3.2 15.445 -8.81745
3.2 15.445 -5.72934
3.2 15.445 -2.64124
3.2 15.445 0.446865
3.2 15.445 3.53498
3.2 15.445 6.62306
3.2 15.445 9.71118
3.2 15.445 12.7993
3.2 15.445 15.8874
3.2 15.445 18.9755
3.2 15.445 22.0636
3.2 15.445 25.1517
3.2 15.445 28.2398
3.2 15.445 31.3279
3.2 15.445 34.416
3.2 15.445 37.5041
3.2 15.445 40.5922
3.2 15.445 43.6803
3.2 15.445 46.7684
3.2 15.445 49.8565
-5.9 20.515 0.446865
12.1 15.095 -52.0509
24.4 8.155 -52.0509
-11.8 18.885 34.9409
-11.8 18.885 16.9373
-11.8 18.885 -1.06637
-11.8 18.885 -19.0701
-11.8 18.885 -37.0737
-8.8 19.695 34.9409
-8.8 19.695 16.9373
-8.8 19.695 -1.06637
-8.8 19.695 -19.0701
-8.8 19.695 -37.0737
-8.8 19.695 -55.0774
-5.9 20.515 34.9409
-5.9 20.515 16.9373
-5.9 20.515 -1.06637
-5.9 20.515 -19.0701
-5.9 20.515 -37.0737
-12.7 19.515 46.9434
-12.7 19.515 40.9422
-12.7 19.515 34.9409
-12.7 19.515 28.9397
-12.7 19.515 22.9385
-12.7 19.515 16.9373
-12.7 19.515 10.9361
-12.7 19.515 4.93485
-12.7 19.515 -1.06637
-12.7 19.515 -7.06761
-12.7 19.515 -13.0688
-12.7 19.515 -19.0701
-12.7 19.515 -25.0713
-12.7 19.515 -31.0725
-12.7 19.515 -37.0737
-12.7 19.515 -43.075
-12.7 19.515 -49.0762
-11.8 18.885 46.9434
-11.8 18.885 40.9422
-11.8 18.885 28.9397
-11.8 18.885 22.9385
-11.8 18.885 10.9361
-11.8 18.885 4.93485
-11.8 18.885 -7.06761
-11.8 18.885 -13.0688
-11.8 18.885 -25.0713
-11.8 18.885 -31.0725
-11.8 18.885 -43.075
-11.8 18.885 -49.0762
-18.5 17.875 16.9373
-18.5 17.875 -19.0701
-19.1 16.645 45.2287
-19.1 16.645 37.5129
-19.1 16.645 29.797
-19.1 16.645 22.0812
-19.1 16.645 14.3653
-19.1 16.645 6.64948
-19.1 16.645 -1.06637
-19.1 16.645 -8.78225
-19.1 16.645 -16.4981
-19.1 16.645 -24.214
-19.1 16.645 -31.9298
-19.1 16.645 -39.6457
-19.1 16.645 -47.3615
-18.5 17.875 45.2287
-18.5 17.875 37.5129
-18.5 17.875 29.797
-18.5 17.875 22.0812
-18.5 17.875 14.3653
-18.5 17.875 6.64948
-18.5 17.875 -1.06637
-18.5 17.875 -8.78225
-18.5 17.875 -16.4981
-18.5 17.875 -24.214
-18.5 17.875 -31.9298
-18.5 17.875 -39.6457
-18.5 17.875 -47.3615
-25 14.875 16.9373
-25 14.875 -19.0701
-19.1 16.645 16.9373
-19.1 16.645 -19.0701
-29.9 6.055 -1.06637
-25 14.875 -1.06637
-29.6 4.895 45.7431
-29.6 4.895 38.5417
-29.6 4.895 31.3402
-29.6 4.895 24.1387
-29.6 4.895 16.9373
-29.6 4.895 9.73584
-29.6 4.895 2.53436
-29.6 4.895 -4.66711
-29.6 4.895 -11.8686
-29.6 4.895 -19.0701
-29.6 4.895 -26.2715
-29.6 4.895 -33.473
-29.6 4.895 -40.6745
-29.6 4.895 -47.8759
-29.9 6.055 45.7431
-29.9 6.055 38.5417
-29.9 6.055 31.3402
-29.9 6.055 24.1387
-29.9 6.055 16.9373
-29.9 6.055 9.73584
-29.9 6.055 2.53436
-29.9 6.055 -4.66711
-29.9 6.055 -11.8686
-29.9 6.055 -19.0701
-29.9 6.055 -26.2715
-29.9 6.055 -33.473
-29.9 6.055 -40.6745
-29.9 6.055 -47.8759
-32.8 -0.915 16.9373
-32.8 -0.915 -19.0701
-34.1 -1.385 28.6632
-34.1 -1.385 21.0504
-34.1 -1.385 13.4377
-34.1 -1.385 5.82489
-34.1 -1.385 -1.78791
-34.1 -1.385 -9.4007
-34.1 -1.385 -17.0135
-34.1 -1.385 -24.6263
-34.1 -1.385 -32.239
-34.1 -1.385 -39.8518
-34.1 -1.385 -47.4646
-32.8 -0.915 28.6632
-32.8 -0.915 21.0504
-32.8 -0.915 13.4377
-32.8 -0.915 5.82489
-32.8 -0.915 -1.78791
-32.8 -0.915 -9.4007
-32.8 -0.915 -17.0135
-32.8 -0.915 -24.6263
-32.8 -0.915 -32.239
-32.8 -0.915 -39.8518
-32.8 -0.915 -47.4646
-37 -6.705 5.82489
-37 -6.705 -24.6263
-36.8 -8.015 32.3041
-36.8 -8.015 28.3322
-36.8 -8.015 24.3603
-36.8 -8.015 20.3884
-36.8 -8.015 16.4166
-36.8 -8.015 12.4447
-36.8 -8.015 8.47281
-36.8 -8.015 4.50092
-36.8 -8.015 0.529025
-36.8 -8.015 -3.44286
-36.8 -8.015 -7.41474
-36.8 -8.015 -11.3866
-36.8 -8.015 -15.3585
-36.8 -8.015 -19.3304
-36.8 -8.015 -23.3023
-36.8 -8.015 -27.2742
-36.8 -8.015 -31.2461
-38 -11.975 0.078575
-38 -11.975 0.078575
-26.8 -18.265 0.078575
-25.7 -17.965 0.078575
-29 -23.895 0.078575
-30.1 -24.205 0.078575
-42.1 -17.515 0.078575
-38.3 -10.815 0.078575
-32.5 -2.045 36.276
-20.2 -7.945 36.276
-25.7 -17.965 36.276
-26.8 -18.265 36.276
-38 -11.975 36.276
-38 -11.975 36.276
-38.3 -10.815 36.276
-36.8 -8.015 36.276
-37 -6.705 36.276
-32.8 -0.915 36.276
46.3 -4.125 -49.0288
37 -20.835 -49.0288
27.4 -15.515 -49.0288
27.4 -15.515 -49.0288
36.6 1.205 -49.0288
36.6 1.205 -49.0288
25.8 1.855 0.352215
19.2 -9.895 0.352215
19.2 -9.895 0.352215
17.8 -10.235 0.352215
13.1 -6.735 0.352215
19.5 4.495 0.352215
-5.5 1.515 59.95
-10.4 0.125 59.95
-14.9 -1.135 59.95
-15.4 -0.955 59.95
-12.4 7.385 59.95
-10.3 -0.295 64.3352
-15.6 -1.805 64.3352
-15.6 -1.805 64.3352
-18 4.445 64.3352
-6.3 7.965 64.3352
-4.9 1.235 64.3352
19.5 4.495 36.3279
13.1 -6.735 36.3279
2.3 -1.465 36.3279
3.4 -1.145 36.3279
3.4 -1.145 36.3279
9.6 9.945 36.3279
9.6 9.945 36.3279
9.3 11.155 36.3279
3.2 15.445 52.9446
3.2 15.445 52.9446
3.5 14.425 52.9446
9.3 11.155 52.9446
9.6 9.945 52.9446
9.6 9.945 52.9446
3.4 -1.145 52.9446
3.4 -1.145 52.9446
2.3 -1.465 52.9446
2.3 -1.465 52.9446
-3.4 1.675 52.9446
-4.9 1.235 52.9446
-6.3 7.965 52.9446
-17 -2.195 52.9446
-20.2 -7.945 52.9446
-21.4 -8.245 52.9446
-27 -5.145 52.9446
-32.5 -2.045 52.9446
-32.5 -2.045 52.9446
-32.8 -0.915 52.9446
-32.8 -0.915 52.9446
-29.6 4.895 52.9446
-29.9 6.055 52.9446
-25 14.875 52.9446
-25 14.875 52.9446
-19.1 16.645 52.9446
-18.5 17.875 52.9446
-12.7 19.515 52.9446
-5.9 20.515 52.9446
36.6 1.205 -52.0509
36.6 1.205 -52.0509
27.4 -15.515 -52.0509
27.4 -15.515 -52.0509
17.8 -10.235 -52.0509
17.8 -10.235 -52.0509
19.2 -9.895 -52.0509
19.2 -9.895 -52.0509
25.8 1.855 -52.0509
9.3 11.155 -52.0509
3.5 14.425 -52.0509
3.5 14.425 -52.0509
3.2 15.445 -52.0509
3.2 15.445 -52.0509
-5.9 20.515 -52.0509
-0.8 24.215 -55.0774
16.6 14.605 -55.0774
47.3 -2.335 -55.0774
47.3 -2.335 -55.0774
46.3 -4.125 -55.0774
46.3 -4.125 -55.0774
36.6 1.205 -55.0774
36.6 1.205 -55.0774
24.4 8.155 -55.0774
12.1 15.095 -55.0774
-5.9 20.515 -55.0774
-11.8 18.885 -55.0774
-25 14.875 -55.0774
-29.9 6.055 -55.0774
-37 -6.705 -55.0774
-36.8 -8.015 -55.0774
-42.1 -17.515 -55.0774
-30.1 -24.205 -55.0774
-25.7 -17.965 -55.0774
-20.2 -7.945 -55.0774
-15.6 -1.805 -55.0774
-10.3 -0.295 -55.0774
2.3 -1.465 -55.0774
12.1 -7.015 -55.0774
17.8 -10.235 -55.0774
27.4 -15.515 -55.0774
27.4 -15.515 -55.0774
37 -20.835 -55.0774
37 -20.835 -55.0774
-47.3 -19.635 -55.0774
-33.1 5.985 -55.0774
-3.4 1.675 16.9373
-3.4 1.675 -19.0701
-10.3 -0.295 34.482
-10.3 -0.295 4.62892
-10.3 -0.295 -25.2242
47.3 -2.335 -64.3352
47.3 -2.335 -64.3352
46.3 -4.125 -64.3352
20 -21.775 -64.3352
14.3 -18.625 -64.3352
-0.6 -10.405 -64.3352
-0.6 -10.405 -64.3352
-7.1 -6.805 -64.3352
-7.1 -6.805 -64.3352
-10.9 -13.585 -64.3352
-47.3 -19.635 -64.3352
-33.1 5.985 -64.3352
-0.8 24.215 -64.3352
16.6 14.605 -64.3352
25.1 -24.605 -63.9285
22.4 3.965 -17.1155
22.4 3.965 -34.5832
15.9 8.415 -22.5913
15.9 8.415 6.86831
3.5 14.425 0.446865
3.2 15.445 0.446865
-11.8 18.885 34.9409
-11.8 18.885 16.9373
-11.8 18.885 -1.06637
-11.8 18.885 -19.0701
-11.8 18.885 -37.0737
-12.7 19.515 16.9373
-12.7 19.515 -19.0701
-29.6 4.895 16.9373
-29.6 4.895 -19.0701
-34.1 -1.385 5.82489
-34.1 -1.385 -24.6263
3  6 8 7  128 0 255
3  6 7 5  128 0 255
3  5 7 13  128 0 255
3  5 13 12  128 0 255
3  26 25 18  128 0 255
3  26 18 19  128 0 255
3  19 18 20  128 0 255
3  19 20 21  128 0 255
3  13 10 11  128 0 255
3  12 13 11  128 0 255
3  13 9 10  128 0 255
3  14 12 11  128 0 255
3  5 12 14  128 0 255
3  7 9 13  128 0 255
3  4 9 3  128 0 255
3  8 3 9  128 0 255
3  7 8 9  128 0 255
3  6 2 3  128 0 255
3  5 2 6  128 0 255
3  1 2 5  128 0 255
3  8 6 3  128 0 255
3  18 5 14  128 0 255
3  18 15 20  128 0 255
3  16 20 15  128 0 255
3  5 18 1  128 0 255
3  21 16 17  128 0 255
3  17 22 21  128 0 255
3  20 16 21  128 0 255
3  22 19 21  128 0 255
3  1 18 25  128 0 255
3  0 1 25  128 0 255
3  0 26 23  128 0 255
3  19 23 26  128 0 255
3  23 24 0  128 0 255
3  25 26 0  128 0 255
3  23 19 22  128 0 255
3  15 18 14  128 0 255
3  32 34 33  255 128 128
3  32 33 31  255 128 128
3  31 33 39  255 128 128
3  31 39 38  255 128 128
3  52 51 43  255 128 128
3  52 43 44  255 128 128
3  44 43 45  255 128 128
3  44 45 46  255 128 128
3  39 36 37  255 128 128
3  38 39 37  255 128 128
3  39 35 36  255 128 128
3  37 40 38  255 128 128
3  40 31 38  255 128 128
3  33 35 39  255 128 128
3  30 35 29  255 128 128
3  34 29 35  255 128 128
3  33 34 35  255 128 128
3  32 28 29  255 128 128
3  31 28 32  255 128 128
3  28 31 40  255 128 128
3  34 32 29  255 128 128
3  28 40 43  255 128 128
3  46 45 41  255 128 128
3  40 41 45  255 128 128
3  42 46 41  255 128 128
3  47 44 46  255 128 128
3  46 42 47  255 128 128
3  48 44 47  255 128 128
3  28 43 51  255 128 128
3  27 52 49  255 128 128
3  48 52 44  255 128 128
3  49 50 27  255 128 128
3  51 52 27  255 128 128
3  52 48 49  255 128 128
3  28 51 27  255 128 128
3  40 45 43  255 128 128
3  58 59 60  224 255 255
3  57 58 56  224 255 255
3  58 55 56  224 255 255
3  55 58 60  224 255 255
3  63 61 62  224 255 255
3  54 61 63  224 255 255
3  55 61 54  224 255 255
3  53 54 63  224 255 255
3  60 61 55  224 255 255
3  88 67 66  255 128 0
3  88 66 84  255 128 0
3  69 71 73  255 128 0
3  69 73 70  255 128 0
3  70 73 72  255 128 0
3  70 72 68  255 128 0
3  70 68 66  255 128 0
3  67 69 70  255 128 0
3  66 67 70  255 128 0
3  76 75 74  255 128 0
3  66 68 76  255 128 0
3  74 66 76  255 128 0
3  68 72 78  255 128 0
3  68 78 76  255 128 0
3  76 78 77  255 128 0
3  76 77 75  255 128 0
3  84 66 74  255 128 0
3  84 74 85  255 128 0
3  79 77 65  255 128 0
3  80 77 79  255 128 0
3  80 75 77  255 128 0
3  65 77 78  255 128 0
3  75 80 81  255 128 0
3  72 65 78  255 128 0
3  90 91 71  255 128 0
3  64 71 91  255 128 0
3  64 72 73  255 128 0
3  64 73 71  255 128 0
3  72 64 65  255 128 0
3  71 69 90  255 128 0
3  74 81 85  255 128 0
3  82 85 81  255 128 0
3  84 85 83  255 128 0
3  82 83 85  255 128 0
3  87 84 83  255 128 0
3  89 69 67  255 128 0
3  88 89 67  255 128 0
3  90 69 89  255 128 0
3  84 87 88  255 128 0
3  83 86 87  255 128 0
3  88 87 89  255 128 0
3  81 74 75  255 128 0
3  106 104 103  255 255 0
3  106 103 105  255 255 0
3  103 101 92  255 255 0
3  103 92 102  255 255 0
3  93 111 112  255 255 0
3  92 93 94  255 255 0
3  111 93 92  255 255 0
3  110 111 92  255 255 0
3  108 109 110  255 255 0
3  107 108 101  255 255 0
3  110 101 108  255 255 0
3  101 104 107  255 255 0
3  101 110 92  255 255 0
3  102 92 94  255 255 0
3  102 94 96  255 255 0
3  95 96 94  255 255 0
3  102 97 98  255 255 0
3  96 97 102  255 255 0
3  105 102 98  255 255 0
3  102 105 103  255 255 0
3  101 103 104  255 255 0
3  100 106 99  255 255 0
3  105 99 106  255 255 0
3  104 106 100  255 255 0
3  99 105 98  255 255 0
3  107 104 100  255 255 0
3  117 120 116  0 255 0
3  121 116 120  0 255 0
3  118 119 117  0 255 0
3  120 117 119  0 255 0
3  122 115 121  0 255 0
3  116 121 115  0 255 0
3  114 115 122  0 255 0
3  123 113 114  0 255 0
3  122 123 114  0 255 0
3  128 129 130  0 255 0
3  113 123 129  0 255 0
3  130 129 123  0 255 0
3  124 128 130  0 255 0
3  127 125 126  0 255 0
3  119 127 126  0 255 0
3  128 125 127  0 255 0
3  118 127 119  0 255 0
3  124 125 128  0 255 0
3  153 151 150  255 128 128
3  153 150 152  255 128 128
3  150 149 133  255 128 128
3  150 133 142  255 128 128
3  149 157 135  255 128 128
3  149 135 133  255 128 128
3  133 135 136  255 128 128
3  133 136 134  255 128 128
3  142 133 134  255 128 128
3  142 134 143  255 128 128
3  144 143 145  255 128 128
3  144 145 146  255 128 128
3  136 132 137  255 128 128
3  138 136 137  255 128 128
3  134 136 139  255 128 128
3  138 139 136  255 128 128
3  135 132 136  255 128 128
3  156 158 155  255 128 128
3  131 157 158  255 128 128
3  158 157 155  255 128 128
3  155 157 154  255 128 128
3  135 157 131  255 128 128
3  135 131 132  255 128 128
3  157 149 154  255 128 128
3  145 134 139  255 128 128
3  144 142 143  255 128 128
3  146 140 141  255 128 128
3  141 144 146  255 128 128
3  144 152 150  255 128 128
3  144 150 142  255 128 128
3  145 140 146  255 128 128
3  140 145 139  255 128 128
3  141 152 144  255 128 128
3  154 149 151  255 128 128
3  151 149 150  255 128 128
3  154 151 148  255 128 128
3  148 153 152  255 128 128
3  152 147 148  255 128 128
3  147 152 141  255 128 128
3  153 148 151  255 128 128
3  145 143 134  255 128 128
3  162 163 165  255 255 0
3  165 163 164  255 255 0
3  162 165 166  255 255 0
3  162 167 159  255 255 0
3  159 161 162  255 255 0
3  159 160 161  255 255 0
3  166 167 162  255 255 0
3  185 192 191  255 0 255
3  185 191 170  255 0 255
3  172 169 168  255 0 255
3  172 168 171  255 0 255
3  186 170 169  255 0 255
3  172 173 186  255 0 255
3  169 172 186  255 0 255
3  187 185 170  255 0 255
3  187 170 186  255 0 255
3  184 187 186  255 0 255
3  184 186 173  255 0 255
3  175 173 172  255 0 255
3  175 172 174  255 0 255
3  213 176 178  255 0 255
3  179 177 213  255 0 255
3  178 179 213  255 0 255
3  229 181 179  255 0 255
3  178 180 229  255 0 255
3  179 178 229  255 0 255
3  222 180 223  255 0 255
3  222 223 224  255 0 255
3  228 181 229  255 0 255
3  228 229 230  255 0 255
3  230 229 180  255 0 255
3  230 180 222  255 0 255
3  198 168 197  255 0 255
3  171 199 200  255 0 255
3  199 168 198  255 0 255
3  168 195 196  255 0 255
3  197 168 196  255 0 255
3  195 168 169  255 0 255
3  168 199 171  255 0 255
3  194 195 169  255 0 255
3  171 200 201  255 0 255
3  215 176 214  255 0 255
3  213 212 214  255 0 255
3  204 244 175  255 0 255
3  202 172 201  255 0 255
3  171 201 172  255 0 255
3  203 174 202  255 0 255
3  172 202 174  255 0 255
3  211 212 177  255 0 255
3  191 193 194  255 0 255
3  169 191 194  255 0 255
3  169 170 191  255 0 255
3  190 193 191  255 0 255
3  192 189 190  255 0 255
3  188 192 185  255 0 255
3  187 188 185  255 0 255
3  189 192 188  255 0 255
3  192 190 191  255 0 255
3  184 173 175  255 0 255
3  175 203 204  255 0 255
3  243 184 175  255 0 255
3  183 187 184  255 0 255
3  182 183 184  255 0 255
3  184 243 182  255 0 255
3  243 175 242  255 0 255
3  241 242 244  255 0 255
3  244 242 175  255 0 255
3  188 187 183  255 0 255
3  174 203 175  255 0 255
3  215 216 176  255 0 255
3  218 178 217  255 0 255
3  218 219 223  255 0 255
3  219 220 224  255 0 255
3  219 224 223  255 0 255
3  223 178 218  255 0 255
3  214 176 213  255 0 255
3  210 177 179  255 0 255
3  178 176 216  255 0 255
3  178 216 217  255 0 255
3  212 213 177  255 0 255
3  180 178 223  255 0 255
3  224 221 225  255 0 255
3  220 221 224  255 0 255
3  225 222 224  255 0 255
3  226 228 230  255 0 255
3  225 230 222  255 0 255
3  226 230 225  255 0 255
3  227 228 226  255 0 255
3  208 179 181  255 0 255
3  209 210 179  255 0 255
3  205 206 237  255 0 255
3  239 244 205  255 0 255
3  205 244 204  255 0 255
3  244 239 240  255 0 255
3  205 237 239  255 0 255
3  238 239 237  255 0 255
3  241 244 240  255 0 255
3  245 206 207  255 0 255
3  181 231 232  255 0 255
3  179 208 209  255 0 255
3  245 208 181  255 0 255
3  245 181 232  255 0 255
3  231 228 227  255 0 255
3  233 245 232  255 0 255
3  206 235 237  255 0 255
3  235 206 245  255 0 255
3  245 234 235  255 0 255
3  237 235 236  255 0 255
3  234 245 233  255 0 255
3  245 207 208  255 0 255
3  228 231 181  255 0 255
3  177 210 211  255 0 255
3  294 296 297  128 128 255
3  295 297 296  128 128 255
3  295 296 285  128 128 255
3  291 289 286  128 128 255
3  291 286 290  128 128 255
3  282 291 290  128 128 255
3  282 290 272  128 128 255
3  278 276 273  128 128 255
3  278 273 277  128 128 255
3  269 278 277  128 128 255
3  269 277 266  128 128 255
3  284 282 272  128 128 255
3  284 272 283  128 128 255
3  276 284 283  128 128 255
3  276 283 273  128 128 255
3  260 264 271  128 128 255
3  260 271 268  128 128 255
3  271 269 266  128 128 255
3  271 266 270  128 128 255
3  268 271 270  128 128 255
3  268 270 267  128 128 255
3  261 263 265  128 128 255
3  261 265 262  128 128 255
3  262 265 264  128 128 255
3  262 264 260  128 128 255
3  254 256 255  128 128 255
3  254 255 253  128 128 255
3  296 294 300  128 128 255
3  301 296 300  128 128 255
3  299 300 294  128 128 255
3  301 286 285  128 128 255
3  285 296 301  128 128 255
3  286 289 295  128 128 255
3  286 295 285  128 128 255
3  286 301 302  128 128 255
3  298 294 297  128 128 255
3  302 272 290  128 128 255
3  286 302 290  128 128 255
3  303 283 302  128 128 255
3  302 283 272  128 128 255
3  303 277 273  128 128 255
3  273 283 303  128 128 255
3  277 303 266  128 128 255
3  295 292 293  128 128 255
3  297 293 298  128 128 255
3  289 292 295  128 128 255
3  298 299 294  128 128 255
3  292 289 288  128 128 255
3  288 289 287  128 128 255
3  293 297 295  128 128 255
3  287 291 282  128 128 255
3  279 284 276  128 128 255
3  281 282 284  128 128 255
3  282 281 287  128 128 255
3  284 280 281  128 128 255
3  280 284 279  128 128 255
3  278 279 276  128 128 255
3  289 291 287  128 128 255
3  271 259 269  128 128 255
3  274 278 269  128 128 255
3  278 274 275  128 128 255
3  259 264 258  128 128 255
3  259 274 269  128 128 255
3  258 265 263  128 128 255
3  267 270 304  128 128 255
3  268 267 246  128 128 255
3  304 246 267  128 128 255
3  271 264 259  128 128 255
3  268 247 260  128 128 255
3  265 258 264  128 128 255
3  247 268 246  128 128 255
3  270 266 304  128 128 255
3  266 303 304  128 128 255
3  257 258 263  128 128 255
3  253 255 257  128 128 255
3  256 251 252  128 128 255
3  252 255 256  128 128 255
3  255 252 257  128 128 255
3  250 251 256  128 128 255
3  261 257 263  128 128 255
3  247 261 262  128 128 255
3  261 247 248  128 128 255
3  247 262 260  128 128 255
3  257 248 253  128 128 255
3  249 254 253  128 128 255
3  254 249 250  128 128 255
3  249 253 248  128 128 255
3  256 254 250  128 128 255
3  261 248 257  128 128 255
3  278 275 279  128 128 255
3  354 306 355  128 255 128
3  356 353 354  128 255 128
3  355 356 354  128 255 128
3  366 365 369  128 255 128
3  368 307 366  128 255 128
3  369 368 366  128 255 128
3  372 370 373  128 255 128
3  372 373 375  128 255 128
3  375 373 305  128 255 128
3  375 305 374  128 255 128
3  371 375 374  128 255 128
3  371 374 367  128 255 128
3  411 334 308  128 255 128
3  411 308 333  128 255 128
3  388 412 387  128 255 128
3  389 412 388  128 255 128
3  413 391 392  128 255 128
3  413 390 391  128 255 128
3  413 412 389  128 255 128
3  384 385 386  128 255 128
3  412 384 386  128 255 128
3  413 378 379  128 255 128
3  387 412 386  128 255 128
3  376 413 305  128 255 128
3  390 413 389  128 255 128
3  382 384 412  128 255 128
3  413 392 305  128 255 128
3  376 305 373  128 255 128
3  305 392 393  128 255 128
3  395 396 355  128 255 128
3  397 356 396  128 255 128
3  396 356 355  128 255 128
3  353 356 398  128 255 128
3  307 395 306  128 255 128
3  394 395 307  128 255 128
3  356 397 398  128 255 128
3  367 374 393  128 255 128
3  374 305 393  128 255 128
3  393 368 369  128 255 128
3  362 371 367  128 255 128
3  367 369 362  128 255 128
3  393 369 367  128 255 128
3  368 393 394  128 255 128
3  363 375 371  128 255 128
3  395 355 306  128 255 128
3  381 412 380  128 255 128
3  381 382 412  128 255 128
3  379 380 412  128 255 128
3  382 383 384  128 255 128
3  320 321 322  128 255 128
3  319 320 322  128 255 128
3  318 324 317  128 255 128
3  324 325 317  128 255 128
3  319 322 323  128 255 128
3  319 323 318  128 255 128
3  318 323 324  128 255 128
3  377 413 376  128 255 128
3  413 377 378  128 255 128
3  370 376 373  128 255 128
3  370 372 364  128 255 128
3  363 364 372  128 255 128
3  376 370 364  128 255 128
3  412 413 379  128 255 128
3  316 325 326  128 255 128
3  315 316 326  128 255 128
3  317 325 316  128 255 128
3  314 327 328  128 255 128
3  327 314 315  128 255 128
3  314 328 313  128 255 128
3  326 327 315  128 255 128
3  375 363 372  128 255 128
3  362 363 371  128 255 128
3  351 352 353  128 255 128
3  398 399 353  128 255 128
3  399 351 353  128 255 128
3  354 353 352  128 255 128
3  350 351 400  128 255 128
3  399 400 351  128 255 128
3  401 350 400  128 255 128
3  357 358 306  128 255 128
3  306 354 352  128 255 128
3  306 358 307  128 255 128
3  394 307 368  128 255 128
3  307 359 360  128 255 128
3  307 360 366  128 255 128
3  359 307 358  128 255 128
3  306 352 357  128 255 128
3  402 349 401  128 255 128
3  403 348 402  128 255 128
3  349 402 348  128 255 128
3  346 347 403  128 255 128
3  348 403 347  128 255 128
3  345 346 403  128 255 128
3  404 344 345  128 255 128
3  405 343 404  128 255 128
3  344 404 343  128 255 128
3  341 342 405  128 255 128
3  343 405 342  128 255 128
3  404 345 403  128 255 128
3  406 341 405  128 255 128
3  401 349 350  128 255 128
3  361 362 365  128 255 128
3  365 362 369  128 255 128
3  360 361 365  128 255 128
3  331 332 308  128 255 128
3  332 333 308  128 255 128
3  330 331 308  128 255 128
3  360 365 366  128 255 128
3  312 313 329  128 255 128
3  329 313 328  128 255 128
3  330 312 329  128 255 128
3  311 330 334  128 255 128
3  308 334 330  128 255 128
3  334 310 311  128 255 128
3  411 310 334  128 255 128
3  312 330 311  128 255 128
3  406 339 340  128 255 128
3  407 338 339  128 255 128
3  338 407 337  128 255 128
3  336 337 408  128 255 128
3  407 408 337  128 255 128
3  406 407 339  128 255 128
3  333 335 409  128 255 128
3  408 335 336  128 255 128
3  410 411 409  128 255 128
3  333 409 411  128 255 128
3  411 410 309  128 255 128
3  310 411 309  128 255 128
3  335 408 409  128 255 128
3  335 333 332  128 255 128
3  340 341 406  128 255 128
3  636 635 579  0 192 192
3  634 636 579  0 192 192
3  639 638 636  0 192 192
3  637 639 636  0 192 192
3  619 620 613  0 192 192
3  580 619 613  0 192 192
3  613 616 618  0 192 192
3  617 613 618  0 192 192
3  617 618 615  0 192 192
3  614 617 615  0 192 192
3  590 581 589  0 192 192
3  591 590 589  0 192 192
3  593 591 592  0 192 192
3  594 593 592  0 192 192
3  595 596 598  0 192 192
3  598 589 581  0 192 192
3  598 581 595  0 192 192
3  598 596 597  0 192 192
3  600 598 597  0 192 192
3  589 598 600  0 192 192
3  599 589 600  0 192 192
3  627 626 639  0 192 192
3  627 639 637  0 192 192
3  639 626 638  0 192 192
3  624 635 625  0 192 192
3  635 638 625  0 192 192
3  635 624 623  0 192 192
3  626 625 638  0 192 192
3  636 634 637  0 192 192
3  628 637 634  0 192 192
3  627 637 628  0 192 192
3  634 629 628  0 192 192
3  580 579 623  0 192 192
3  580 606 579  0 192 192
3  579 630 634  0 192 192
3  623 579 635  0 192 192
3  629 634 630  0 192 192
3  635 636 638  0 192 192
3  606 580 607  0 192 192
3  619 623 622  0 192 192
3  623 619 580  0 192 192
3  619 622 621  0 192 192
3  621 612 620  0 192 192
3  611 620 612  0 192 192
3  611 616 620  0 192 192
3  619 621 620  0 192 192
3  580 613 617  0 192 192
3  614 615 609  0 192 192
3  614 608 617  0 192 192
3  608 580 617  0 192 192
3  618 616 610  0 192 192
3  615 610 609  0 192 192
3  610 615 618  0 192 192
3  610 616 611  0 192 192
3  608 614 609  0 192 192
3  616 613 620  0 192 192
3  607 580 608  0 192 192
3  632 631 590  0 192 192
3  633 632 590  0 192 192
3  579 581 631  0 192 192
3  590 631 581  0 192 192
3  590 591 593  0 192 192
3  593 633 590  0 192 192
3  581 579 605  0 192 192
3  594 633 593  0 192 192
3  582 594 583  0 192 192
3  584 583 594  0 192 192
3  584 594 592  0 192 192
3  592 591 589  0 192 192
3  599 592 589  0 192 192
3  592 585 584  0 192 192
3  592 599 585  0 192 192
3  633 594 582  0 192 192
3  605 579 606  0 192 192
3  604 595 581  0 192 192
3  595 603 602  0 192 192
3  595 604 603  0 192 192
3  604 581 605  0 192 192
3  596 595 602  0 192 192
3  599 600 586  0 192 192
3  587 586 600  0 192 192
3  585 599 586  0 192 192
3  587 600 597  0 192 192
3  601 596 602  0 192 192
3  596 601 597  0 192 192
3  588 597 601  0 192 192
3  597 588 587  0 192 192
3  630 579 631  0 192 192
3  685 683 1345  255 128 255
3  685 1345 684  255 128 255
3  686 1311 683  255 128 255
3  686 683 685  255 128 255
3  687 685 684  255 128 255
3  687 684 1343  255 128 255
3  1309 686 685  255 128 255
3  1309 685 687  255 128 255
3  584 54 53  255 128 255
3  583 584 53  255 128 255
3  585 55 54  255 128 255
3  584 585 54  255 128 255
3  586 56 55  255 128 255
3  585 586 55  255 128 255
3  587 57 56  255 128 255
3  586 587 56  255 128 255
3  588 385 1334  255 128 255
3  587 588 1334  255 128 255
3  459 458 561  255 128 255
3  459 561 562  255 128 255
3  601 387 386  123 104 238
3  697 601 386  123 104 238
3  697 386 385  123 104 238
3  588 697 385  123 104 238
3  699 455 673  123 104 238
3  699 673 698  123 104 238
3  437 699 698  123 104 238
3  437 698 668  123 104 238
3  602 388 387  123 104 238
3  601 602 387  123 104 238
3  524 530 679  123 104 238
3  524 679 1357  123 104 238
3  1347 389 388  123 104 238
3  602 1347 388  123 104 238
3  483 482 1347  123 104 238
3  483 1347 1346  123 104 238
3  1348 392 389  123 104 238
3  1347 1348 389  123 104 238
3  482 507 1348  123 104 238
3  482 1348 1347  123 104 238
3  1350 393 392  123 104 238
3  1348 1350 392  123 104 238
3  531 536 1351  123 104 238
3  531 1351 1349  123 104 238
3  1352 394 393  255 128 255
3  1350 1352 393  255 128 255
3  536 535 1352  255 128 255
3  536 1352 1351  255 128 255
3  609 397 394  255 128 255
3  1352 609 394  255 128 255
3  535 534 609  255 128 255
3  535 609 1352  255 128 255
3  610 398 397  192 192 0
3  609 610 397  192 192 0
3  1353 1336 398  192 192 0
3  610 1353 398  192 192 0
3  1336 1353 1354  192 0 192
3  1337 1336 1354  192 0 192
3  1337 1354 626  192 0 192
3  410 1337 626  192 0 192
3  410 626 627  255 255 0
3  309 410 627  255 255 0
3  309 627 1355  255 255 0
3  1307 309 1355  255 255 0
3  1307 1355 1356  255 255 0
3  1308 1307 1356  255 255 0
3  1308 1356 1344  255 255 0
3  1310 1308 1344  255 255 0
3  1225 1226 1214  128 255 255
3  1225 1214 1216  128 255 255
3  3 700 705  64 255 255
3  4 3 705  64 255 255
3  700 701 706  64 255 255
3  705 700 706  64 255 255
3  701 702 707  64 255 255
3  706 701 707  64 255 255
3  702 703 708  64 255 255
3  707 702 708  64 255 255
3  703 704 709  64 255 255
3  708 703 709  64 255 255
3  704 37 36  64 255 255
3  709 704 36  64 255 255
3  721 710 1227  255 0 0
3  721 1227 720  255 0 0
3  722 711 710  255 0 0
3  722 710 721  255 0 0
3  723 712 711  255 0 0
3  723 711 722  255 0 0
3  724 713 712  255 0 0
3  724 712 723  255 0 0
3  725 714 713  255 0 0
3  725 713 724  255 0 0
3  726 715 714  255 0 0
3  726 714 725  255 0 0
3  727 716 715  255 0 0
3  727 715 726  255 0 0
3  728 717 716  255 0 0
3  728 716 727  255 0 0
3  729 718 717  255 0 0
3  729 717 728  255 0 0
3  730 719 718  255 0 0
3  730 718 729  255 0 0
3  731 1215 719  255 0 0
3  731 719 730  255 0 0
3  732 721 720  255 0 0
3  732 720 1228  255 0 0
3  733 722 721  255 0 0
3  733 721 732  255 0 0
3  734 723 722  255 0 0
3  734 722 733  255 0 0
3  735 724 723  255 0 0
3  735 723 734  255 0 0
3  736 725 724  255 0 0
3  736 724 735  255 0 0
3  737 726 725  255 0 0
3  737 725 736  255 0 0
3  738 727 726  255 0 0
3  738 726 737  255 0 0
3  739 728 727  255 0 0
3  739 727 738  255 0 0
3  740 729 728  255 0 0
3  740 728 739  255 0 0
3  741 730 729  255 0 0
3  741 729 740  255 0 0
3  1221 731 730  255 0 0
3  1221 730 741  255 0 0
3  27 1280 1279  255 0 255
3  28 27 1279  255 0 255
3  28 1279 1278  255 0 255
3  29 28 1278  255 0 255
3  29 742 744  50 205 50
3  30 29 744  50 205 50
3  742 743 745  50 205 50
3  744 742 745  50 205 50
3  743 216 215  50 205 50
3  745 743 215  50 205 50
3  751 746 1281  255 128 0
3  751 1281 750  255 128 0
3  752 747 746  255 128 0
3  752 746 751  255 128 0
3  753 748 747  255 128 0
3  753 747 752  255 128 0
3  754 749 748  255 128 0
3  754 748 753  255 128 0
3  755 1222 749  255 128 0
3  755 749 754  255 128 0
3  756 751 750  255 128 0
3  756 750 1282  255 128 0
3  757 752 751  255 128 0
3  757 751 756  255 128 0
3  758 753 752  255 128 0
3  758 752 757  255 128 0
3  759 754 753  255 128 0
3  759 753 758  255 128 0
3  1231 755 754  255 128 0
3  1231 754 759  255 128 0
3  86 760 765  255 64 255
3  87 86 765  255 64 255
3  760 761 766  255 64 255
3  765 760 766  255 64 255
3  761 762 767  255 64 255
3  766 761 767  255 64 255
3  762 763 768  255 64 255
3  767 762 768  255 64 255
3  763 764 769  255 64 255
3  768 763 769  255 64 255
3  764 141 140  255 64 255
3  769 764 140  255 64 255
3  1255 1256 1242  0 255 255
3  1255 1242 1243  0 255 255
3  90 770 774  192 192 0
3  91 90 774  192 192 0
3  770 771 775  192 192 0
3  774 770 775  192 192 0
3  771 772 776  192 192 0
3  775 771 776  192 192 0
3  772 773 777  192 192 0
3  776 772 777  192 192 0
3  773 138 137  192 192 0
3  777 773 137  192 192 0
3  127 1244 93  64 64 255
3  128 127 93  64 64 255
3  118 1245 1244  128 128 255
3  127 118 1244  128 128 255
3  117 1246 1245  128 128 255
3  118 117 1245  128 128 255
3  116 778 779  128 128 0
3  117 116 779  128 128 0
3  778 100 99  128 128 0
3  779 778 99  128 128 0
3  1247 116 115  255 64 64
3  108 1247 115  255 64 64
3  108 115 114  255 64 255
3  109 108 114  255 64 255
3  109 114 113  255 240 245
3  1248 109 113  255 240 245
3  1248 113 781  255 240 245
3  780 1248 781  255 240 245
3  780 781 129  255 240 245
3  112 780 129  255 240 245
3  112 129 128  255 255 64
3  93 112 128  255 255 64
3  787 782 1257  64 255 128
3  787 1257 786  64 255 128
3  788 783 782  64 255 128
3  788 782 787  64 255 128
3  789 784 783  64 255 128
3  789 783 788  64 255 128
3  790 785 784  64 255 128
3  790 784 789  64 255 128
3  791 1271 785  64 255 128
3  791 785 790  64 255 128
3  792 787 786  64 255 128
3  792 786 1258  64 255 128
3  793 788 787  64 255 128
3  793 787 792  64 255 128
3  794 789 788  64 255 128
3  794 788 793  64 255 128
3  795 790 789  64 255 128
3  795 789 794  64 255 128
3  1269 791 790  64 255 128
3  1269 790 795  64 255 128
3  1267 1270 1259  128 255 128
3  1267 1259 1260  128 255 128
3  801 796 1261  255 255 128
3  801 1261 800  255 255 128
3  802 797 796  255 255 128
3  802 796 801  255 255 128
3  803 798 797  255 255 128
3  803 797 802  255 255 128
3  804 799 798  255 255 128
3  804 798 803  255 255 128
3  805 1268 799  255 255 128
3  805 799 804  255 255 128
3  806 801 800  255 255 128
3  806 800 1262  255 255 128
3  807 802 801  255 255 128
3  807 801 806  255 255 128
3  808 803 802  255 255 128
3  808 802 807  255 255 128
3  809 804 803  255 255 128
3  809 803 808  255 255 128
3  1266 805 804  255 255 128
3  1266 804 809  255 255 128
3  130 161 160  64 255 64
3  124 130 160  64 255 64
3  123 162 161  0 192 192
3  130 123 161  0 192 192
3  122 163 162  0 192 192
3  123 122 162  0 192 192
3  121 164 163  128 128 0
3  122 121 163  128 128 0
3  1253 1254 1274  255 128 128
3  1253 1274 1275  255 128 128
3  202 160 159  255 128 128
3  203 202 159  255 128 128
3  167 204 203  64 255 255
3  159 167 203  64 255 255
3  166 207 811  0 0 192
3  810 166 811  0 0 192
3  810 811 204  0 0 192
3  167 810 204  0 0 192
3  165 208 207  128 0 128
3  166 165 207  128 0 128
3  164 209 208  72 61 139
3  165 164 208  72 61 139
3  1250 211 210  72 61 139
3  812 1250 210  72 61 139
3  812 210 209  72 61 139
3  1252 812 209  72 61 139
3  814 1294 1234  255 255 64
3  814 1234 813  255 255 64
3  1292 814 813  255 255 64
3  1292 813 1236  255 255 64
3  828 815 1296  128 255 255
3  828 1296 827  128 255 255
3  829 816 815  128 255 255
3  829 815 828  128 255 255
3  830 817 816  128 255 255
3  830 816 829  128 255 255
3  831 818 817  128 255 255
3  831 817 830  128 255 255
3  832 819 818  128 255 255
3  832 818 831  128 255 255
3  833 820 819  128 255 255
3  833 819 832  128 255 255
3  834 821 820  128 255 255
3  834 820 833  128 255 255
3  835 822 821  128 255 255
3  835 821 834  128 255 255
3  836 823 822  128 255 255
3  836 822 835  128 255 255
3  837 824 823  128 255 255
3  837 823 836  128 255 255
3  838 825 824  128 255 255
3  838 824 837  128 255 255
3  839 826 825  128 255 255
3  839 825 838  128 255 255
3  840 1241 826  128 255 255
3  840 826 839  128 255 255
3  841 828 827  128 255 255
3  841 827 1298  128 255 255
3  842 829 828  128 255 255
3  842 828 841  128 255 255
3  843 830 829  128 255 255
3  843 829 842  128 255 255
3  844 831 830  128 255 255
3  844 830 843  128 255 255
3  845 832 831  128 255 255
3  845 831 844  128 255 255
3  846 833 832  128 255 255
3  846 832 845  128 255 255
3  847 834 833  128 255 255
3  847 833 846  128 255 255
3  848 835 834  128 255 255
3  848 834 847  128 255 255
3  849 836 835  128 255 255
3  849 835 848  128 255 255
3  850 837 836  128 255 255
3  850 836 849  128 255 255
3  851 838 837  128 255 255
3  851 837 850  128 255 255
3  852 839 838  128 255 255
3  852 838 851  128 255 255
3  1239 840 839  128 255 255
3  1239 839 852  128 255 255
3  1238 1240 1299  255 255 128
3  1238 1299 1300  255 255 128
3  258 853 859  0 0 192
3  259 258 859  0 0 192
3  853 854 860  0 0 192
3  859 853 860  0 0 192
3  854 855 861  0 0 192
3  860 854 861  0 0 192
3  855 856 862  0 0 192
3  861 855 862  0 0 192
3  856 857 863  0 0 192
3  862 856 863  0 0 192
3  857 858 864  0 0 192
3  863 857 864  0 0 192
3  858 80 79  0 0 192
3  864 858 79  0 0 192
3  65 865 868  0 128 64
3  79 65 868  0 128 64
3  865 866 869  0 128 64
3  868 865 869  0 128 64
3  866 867 870  0 128 64
3  869 866 870  0 128 64
3  867 274 259  0 128 64
3  870 867 259  0 128 64
3  64 871 879  0 192 0
3  65 64 879  0 192 0
3  871 872 880  0 192 0
3  879 871 880  0 192 0
3  872 873 881  0 192 0
3  880 872 881  0 192 0
3  873 874 882  0 192 0
3  881 873 882  0 192 0
3  874 875 883  0 192 0
3  882 874 883  0 192 0
3  875 876 884  0 192 0
3  883 875 884  0 192 0
3  876 877 885  0 192 0
3  884 876 885  0 192 0
3  877 878 886  0 192 0
3  885 877 886  0 192 0
3  878 275 274  0 192 0
3  886 878 274  0 192 0
3  91 887 1358  173 216 230
3  64 91 1358  173 216 230
3  887 888 1359  173 216 230
3  1358 887 1359  173 216 230
3  888 279 275  173 216 230
3  1359 888 275  173 216 230
3  132 889 893  173 216 230
3  137 132 893  173 216 230
3  889 890 894  173 216 230
3  893 889 894  173 216 230
3  890 891 895  173 216 230
3  894 890 895  173 216 230
3  891 892 896  173 216 230
3  895 891 896  173 216 230
3  892 280 279  173 216 230
3  896 892 279  173 216 230
3  280 897 908  192 0 192
3  281 280 908  192 0 192
3  897 898 909  192 0 192
3  908 897 909  192 0 192
3  898 899 910  192 0 192
3  909 898 910  192 0 192
3  899 900 911  192 0 192
3  910 899 911  192 0 192
3  900 901 912  192 0 192
3  911 900 912  192 0 192
3  901 902 913  192 0 192
3  912 901 913  192 0 192
3  902 903 914  192 0 192
3  913 902 914  192 0 192
3  903 904 915  192 0 192
3  914 903 915  192 0 192
3  904 905 916  192 0 192
3  915 904 916  192 0 192
3  905 906 917  192 0 192
3  916 905 917  192 0 192
3  906 907 918  192 0 192
3  917 906 918  192 0 192
3  907 132 131  192 0 192
3  918 907 131  192 0 192
3  158 919 1361  255 20 147
3  131 158 1361  255 20 147
3  919 920 1360  255 20 147
3  1361 919 1360  255 20 147
3  920 287 281  255 20 147
3  1360 920 281  255 20 147
3  156 921 933  255 64 128
3  158 156 933  255 64 128
3  921 922 934  255 64 128
3  933 921 934  255 64 128
3  922 923 935  255 64 128
3  934 922 935  255 64 128
3  923 924 936  255 64 128
3  935 923 936  255 64 128
3  924 925 937  255 64 128
3  936 924 937  255 64 128
3  925 926 938  255 64 128
3  937 925 938  255 64 128
3  926 927 939  255 64 128
3  938 926 939  255 64 128
3  927 928 940  255 64 128
3  939 927 940  255 64 128
3  928 929 941  255 64 128
3  940 928 941  255 64 128
3  929 930 942  255 64 128
3  941 929 942  255 64 128
3  930 931 943  255 64 128
3  942 930 943  255 64 128
3  931 932 944  255 64 128
3  943 931 944  255 64 128
3  932 288 287  255 64 128
3  944 932 287  255 64 128
3  183 945 950  245 222 179
3  188 183 950  245 222 179
3  945 946 951  245 222 179
3  950 945 951  245 222 179
3  946 947 952  245 222 179
3  951 946 952  245 222 179
3  947 948 953  245 222 179
3  952 947 953  245 222 179
3  948 949 954  245 222 179
3  953 948 954  245 222 179
3  949 1302 955  245 222 179
3  954 949 955  245 222 179
3  188 950 956  245 222 179
3  189 188 956  245 222 179
3  950 951 957  245 222 179
3  956 950 957  245 222 179
3  951 952 958  245 222 179
3  957 951 958  245 222 179
3  952 953 959  245 222 179
3  958 952 959  245 222 179
3  953 954 960  245 222 179
3  959 953 960  245 222 179
3  954 955 1301  245 222 179
3  960 954 1301  245 222 179
3  994 961 1303  0 128 128
3  994 1303 993  0 128 128
3  995 962 961  0 128 128
3  995 961 994  0 128 128
3  996 963 962  0 128 128
3  996 962 995  0 128 128
3  997 964 963  0 128 128
3  997 963 996  0 128 128
3  998 965 964  0 128 128
3  998 964 997  0 128 128
3  999 966 965  0 128 128
3  999 965 998  0 128 128
3  1000 967 966  0 128 128
3  1000 966 999  0 128 128
3  1001 968 967  0 128 128
3  1001 967 1000  0 128 128
3  1002 969 968  0 128 128
3  1002 968 1001  0 128 128
3  1003 970 969  0 128 128
3  1003 969 1002  0 128 128
3  1004 971 970  0 128 128
3  1004 970 1003  0 128 128
3  1005 972 971  0 128 128
3  1005 971 1004  0 128 128
3  1006 973 972  0 128 128
3  1006 972 1005  0 128 128
3  1007 974 973  0 128 128
3  1007 973 1006  0 128 128
3  1008 975 974  0 128 128
3  1008 974 1007  0 128 128
3  1009 976 975  0 128 128
3  1009 975 1008  0 128 128
3  1010 1362 976  0 128 128
3  1010 976 1009  0 128 128
3  1011 977 1362  0 128 128
3  1011 1362 1010  0 128 128
3  1012 978 977  0 128 128
3  1012 977 1011  0 128 128
3  1013 979 978  0 128 128
3  1013 978 1012  0 128 128
3  1014 980 979  0 128 128
3  1014 979 1013  0 128 128
3  1015 981 980  0 128 128
3  1015 980 1014  0 128 128
3  1016 982 981  0 128 128
3  1016 981 1015  0 128 128
3  1017 983 982  0 128 128
3  1017 982 1016  0 128 128
3  1018 984 983  0 128 128
3  1018 983 1017  0 128 128
3  1019 985 984  0 128 128
3  1019 984 1018  0 128 128
3  1020 986 985  0 128 128
3  1020 985 1019  0 128 128
3  1021 987 986  0 128 128
3  1021 986 1020  0 128 128
3  1022 988 987  0 128 128
3  1022 987 1021  0 128 128
3  1023 989 988  0 128 128
3  1023 988 1022  0 128 128
3  1024 990 989  0 128 128
3  1024 989 1023  0 128 128
3  1025 991 990  0 128 128
3  1025 990 1024  0 128 128
3  1026 992 991  0 128 128
3  1026 991 1025  0 128 128
3  1027 1265 992  0 128 128
3  1027 992 1026  0 128 128
3  1028 994 993  64 255 64
3  1028 993 1304  64 255 64
3  1029 995 994  64 255 64
3  1029 994 1028  64 255 64
3  1030 996 995  64 255 64
3  1030 995 1029  64 255 64
3  1031 997 996  64 255 64
3  1031 996 1030  64 255 64
3  1032 998 997  64 255 64
3  1032 997 1031  64 255 64
3  1033 999 998  64 255 64
3  1033 998 1032  64 255 64
3  1034 1000 999  64 255 64
3  1034 999 1033  64 255 64
3  1035 1001 1000  64 255 64
3  1035 1000 1034  64 255 64
3  1036 1002 1001  64 255 64
3  1036 1001 1035  64 255 64
3  1037 1003 1002  64 255 64
3  1037 1002 1036  64 255 64
3  1038 1004 1003  64 255 64
3  1038 1003 1037  64 255 64
3  1039 1005 1004  64 255 64
3  1039 1004 1038  64 255 64
3  1040 1006 1005  64 255 64
3  1040 1005 1039  64 255 64
3  1041 1007 1006  64 255 64
3  1041 1006 1040  64 255 64
3  1042 1008 1007  64 255 64
3  1042 1007 1041  64 255 64
3  1043 1009 1008  64 255 64
3  1043 1008 1042  64 255 64
3  1044 1010 1009  64 255 64
3  1044 1009 1043  64 255 64
3  1045 1011 1010  64 255 64
3  1045 1010 1044  64 255 64
3  1046 1012 1011  64 255 64
3  1046 1011 1045  64 255 64
3  1047 1013 1012  64 255 64
3  1047 1012 1046  64 255 64
3  1048 1014 1013  64 255 64
3  1048 1013 1047  64 255 64
3  1049 1015 1014  64 255 64
3  1049 1014 1048  64 255 64
3  1050 1016 1015  64 255 64
3  1050 1015 1049  64 255 64
3  1051 1017 1016  64 255 64
3  1051 1016 1050  64 255 64
3  1052 1018 1017  64 255 64
3  1052 1017 1051  64 255 64
3  1053 1019 1018  64 255 64
3  1053 1018 1052  64 255 64
3  1054 1020 1019  64 255 64
3  1054 1019 1053  64 255 64
3  1055 1021 1020  64 255 64
3  1055 1020 1054  64 255 64
3  1056 1022 1021  64 255 64
3  1056 1021 1055  64 255 64
3  1057 1023 1022  64 255 64
3  1057 1022 1056  64 255 64
3  1058 1024 1023  64 255 64
3  1058 1023 1057  64 255 64
3  1059 1025 1024  64 255 64
3  1059 1024 1058  64 255 64
3  1060 1026 1025  64 255 64
3  1060 1025 1059  64 255 64
3  1263 1027 1026  64 255 64
3  1263 1026 1060  64 255 64
3  1363 1061 1291  240 128 128
3  1363 1291 1264  240 128 128
3  1305 1306 1061  240 128 128
3  1305 1061 1363  240 128 128
3  1312 1313 1237  0 255 0
3  1312 1237 1232  0 255 0
3  300 329 1316  64 0 128
3  1062 300 1316  64 0 128
3  1062 1316 1315  64 0 128
3  1063 1062 1315  64 0 128
3  1063 1315 1314  64 0 128
3  1293 1063 1314  64 0 128
3  299 330 329  128 64 255
3  300 299 329  128 64 255
3  239 1064 1069  128 64 255
3  240 239 1069  128 64 255
3  1064 1065 1070  128 64 255
3  1069 1064 1070  128 64 255
3  1065 1066 1071  128 64 255
3  1070 1065 1071  128 64 255
3  1066 1067 1072  128 64 255
3  1071 1066 1072  128 64 255
3  1067 1068 1073  128 64 255
3  1072 1067 1073  128 64 255
3  1068 1318 1074  128 64 255
3  1073 1068 1074  128 64 255
3  240 1069 1075  128 64 255
3  241 240 1075  128 64 255
3  1069 1070 1076  128 64 255
3  1075 1069 1076  128 64 255
3  1070 1071 1077  128 64 255
3  1076 1070 1077  128 64 255
3  1071 1072 1078  128 64 255
3  1077 1071 1078  128 64 255
3  1072 1073 1079  128 64 255
3  1078 1072 1079  128 64 255
3  1073 1074 1317  128 64 255
3  1079 1073 1317  128 64 255
3  238 1080 1097  64 64 255
3  239 238 1097  64 64 255
3  1080 1081 1098  64 64 255
3  1097 1080 1098  64 64 255
3  1081 1082 1364  64 64 255
3  1098 1081 1364  64 64 255
3  1082 1083 1099  64 64 255
3  1364 1082 1099  64 64 255
3  1083 1084 1100  64 64 255
3  1099 1083 1100  64 64 255
3  1084 1085 1365  64 64 255
3  1100 1084 1365  64 64 255
3  1085 1086 1101  64 64 255
3  1365 1085 1101  64 64 255
3  1086 1087 1102  64 64 255
3  1101 1086 1102  64 64 255
3  1087 1088 1366  64 64 255
3  1102 1087 1366  64 64 255
3  1088 1089 1103  64 64 255
3  1366 1088 1103  64 64 255
3  1089 1090 1104  64 64 255
3  1103 1089 1104  64 64 255
3  1090 1091 1367  64 64 255
3  1104 1090 1367  64 64 255
3  1091 1092 1105  64 64 255
3  1367 1091 1105  64 64 255
3  1092 1093 1106  64 64 255
3  1105 1092 1106  64 64 255
3  1093 1094 1368  64 64 255
3  1106 1093 1368  64 64 255
3  1094 1095 1107  64 64 255
3  1368 1094 1107  64 64 255
3  1095 1096 1108  64 64 255
3  1107 1095 1108  64 64 255
3  1096 332 331  64 64 255
3  1108 1096 331  64 64 255
3  1289 1109 1369  192 0 0
3  1290 1289 1369  192 0 0
3  1109 1110 1370  192 0 0
3  1369 1109 1370  192 0 0
3  1110 335 332  192 0 0
3  1370 1110 332  192 0 0
3  235 1111 1124  0 192 0
3  236 235 1124  0 192 0
3  1111 1112 1125  0 192 0
3  1124 1111 1125  0 192 0
3  1112 1113 1126  0 192 0
3  1125 1112 1126  0 192 0
3  1113 1114 1127  0 192 0
3  1126 1113 1127  0 192 0
3  1114 1115 1128  0 192 0
3  1127 1114 1128  0 192 0
3  1115 1116 1129  0 192 0
3  1128 1115 1129  0 192 0
3  1116 1117 1130  0 192 0
3  1129 1116 1130  0 192 0
3  1117 1118 1131  0 192 0
3  1130 1117 1131  0 192 0
3  1118 1119 1132  0 192 0
3  1131 1118 1132  0 192 0
3  1119 1120 1133  0 192 0
3  1132 1119 1133  0 192 0
3  1120 1121 1134  0 192 0
3  1133 1120 1134  0 192 0
3  1121 1122 1135  0 192 0
3  1134 1121 1135  0 192 0
3  1122 1123 1136  0 192 0
3  1135 1122 1136  0 192 0
3  1123 336 335  0 192 0
3  1136 1123 335  0 192 0
3  1286 1137 1139  255 228 196
3  1288 1286 1139  255 228 196
3  1137 1138 1140  255 228 196
3  1139 1137 1140  255 228 196
3  1138 337 336  255 228 196
3  1140 1138 336  255 228 196
3  1142 1141 1285  128 64 0
3  1142 1285 1287  128 64 0
3  1319 1320 1141  128 64 0
3  1319 1141 1142  128 64 0
3  226 1143 1157  128 0 255
3  227 226 1157  128 0 255
3  1143 1144 1158  128 0 255
3  1157 1143 1158  128 0 255
3  1144 1145 1159  128 0 255
3  1158 1144 1159  128 0 255
3  1145 1146 1160  128 0 255
3  1159 1145 1160  128 0 255
3  1146 1147 1161  128 0 255
3  1160 1146 1161  128 0 255
3  1147 1148 1162  128 0 255
3  1161 1147 1162  128 0 255
3  1148 1149 1163  128 0 255
3  1162 1148 1163  128 0 255
3  1149 1150 1164  128 0 255
3  1163 1149 1164  128 0 255
3  1150 1151 1165  128 0 255
3  1164 1150 1165  128 0 255
3  1151 1152 1166  128 0 255
3  1165 1151 1166  128 0 255
3  1152 1153 1167  128 0 255
3  1166 1152 1167  128 0 255
3  1153 1154 1168  128 0 255
3  1167 1153 1168  128 0 255
3  1154 1155 1169  128 0 255
3  1168 1154 1169  128 0 255
3  1155 1156 1170  128 0 255
3  1169 1155 1170  128 0 255
3  1156 340 339  128 0 255
3  1170 1156 339  128 0 255
3  1283 1171 1371  255 0 0
3  1284 1283 1371  255 0 0
3  1171 1172 1372  255 0 0
3  1371 1171 1372  255 0 0
3  1172 341 340  255 0 0
3  1372 1172 340  255 0 0
3  49 1173 1184  64 128 255
3  50 49 1184  64 128 255
3  1173 1174 1185  64 128 255
3  1184 1173 1185  64 128 255
3  1174 1175 1186  64 128 255
3  1185 1174 1186  64 128 255
3  1175 1176 1187  64 128 255
3  1186 1175 1187  64 128 255
3  1176 1177 1188  64 128 255
3  1187 1176 1188  64 128 255
3  1177 1178 1189  64 128 255
3  1188 1177 1189  64 128 255
3  1178 1179 1190  64 128 255
3  1189 1178 1190  64 128 255
3  1179 1180 1191  64 128 255
3  1190 1179 1191  64 128 255
3  1180 1181 1192  64 128 255
3  1191 1180 1192  64 128 255
3  1181 1182 1193  64 128 255
3  1192 1181 1193  64 128 255
3  1182 1183 1194  64 128 255
3  1193 1182 1194  64 128 255
3  1183 342 341  64 128 255
3  1194 1183 341  64 128 255
3  48 1195 1373  128 64 0
3  49 48 1373  128 64 0
3  1195 1196 1374  128 64 0
3  1373 1195 1374  128 64 0
3  1196 343 342  128 64 0
3  1374 1196 342  128 64 0
3  690 1197 1229  0 0 255
3  690 1229 691  0 0 255
3  689 1198 1197  0 0 255
3  689 1197 690  0 0 255
3  688 1199 1198  0 0 255
3  688 1198 689  0 0 255
3  682 1200 1199  0 0 255
3  682 1199 688  0 0 255
3  681 1201 1200  0 0 255
3  681 1200 682  0 0 255
3  680 1202 1201  0 0 255
3  680 1201 681  0 0 255
3  678 1203 1202  0 0 255
3  678 1202 680  0 0 255
3  677 1204 1203  0 0 255
3  677 1203 678  0 0 255
3  676 1205 1204  0 0 255
3  676 1204 677  0 0 255
3  675 1206 1205  0 0 255
3  675 1205 676  0 0 255
3  674 1207 1206  0 0 255
3  674 1206 675  0 0 255
3  672 1208 1207  0 0 255
3  672 1207 674  0 0 255
3  671 1209 1208  0 0 255
3  671 1208 672  0 0 255
3  670 1210 1209  0 0 255
3  670 1209 671  0 0 255
3  669 1211 1210  0 0 255
3  669 1210 670  0 0 255
3  667 1212 1211  0 0 255
3  667 1211 669  0 0 255
3  666 1213 1212  0 0 255
3  666 1212 667  0 0 255
3  665 696 1213  0 0 255
3  665 1213 666  0 0 255
3  664 695 696  0 0 255
3  664 696 665  0 0 255
3  663 694 695  0 0 255
3  663 695 664  0 0 255
3  662 693 694  0 0 255
3  662 694 663  0 0 255
3  661 692 693  0 0 255
3  661 693 662  0 0 255
3  660 1322 692  0 0 255
3  660 692 661  0 0 255
3  659 690 691  0 0 255
3  659 691 1230  0 0 255
3  658 689 690  0 0 255
3  658 690 659  0 0 255
3  657 688 689  0 0 255
3  657 689 658  0 0 255
3  656 682 688  0 0 255
3  656 688 657  0 0 255
3  655 681 682  0 0 255
3  655 682 656  0 0 255
3  654 680 681  0 0 255
3  654 681 655  0 0 255
3  653 678 680  0 0 255
3  653 680 654  0 0 255
3  652 677 678  0 0 255
3  652 678 653  0 0 255
3  651 676 677  0 0 255
3  651 677 652  0 0 255
3  650 675 676  0 0 255
3  650 676 651  0 0 255
3  649 674 675  0 0 255
3  649 675 650  0 0 255
3  648 672 674  0 0 255
3  648 674 649  0 0 255
3  647 671 672  0 0 255
3  647 672 648  0 0 255
3  646 670 671  0 0 255
3  646 671 647  0 0 255
3  645 669 670  0 0 255
3  645 670 646  0 0 255
3  644 667 669  0 0 255
3  644 669 645  0 0 255
3  643 666 667  0 0 255
3  643 667 644  0 0 255
3  642 665 666  0 0 255
3  642 666 643  0 0 255
3  641 664 665  0 0 255
3  641 665 642  0 0 255
3  640 663 664  0 0 255
3  640 664 641  0 0 255
3  578 662 663  0 0 255
3  578 663 640  0 0 255
3  577 661 662  0 0 255
3  577 662 578  0 0 255
3  1321 660 661  0 0 255
3  1321 661 577  0 0 255
3  42 576 572  255 128 64
3  47 42 572  255 128 64
3  576 575 571  255 128 64
3  572 576 571  255 128 64
3  575 574 570  255 128 64
3  571 575 570  255 128 64
3  574 573 569  255 128 64
3  570 574 569  255 128 64
3  573 345 344  255 128 64
3  569 573 344  255 128 64
3  23 568 566  255 128 64
3  24 23 566  255 128 64
3  568 567 565  255 128 64
3  566 568 565  255 128 64
3  567 346 345  255 128 64
3  565 567 345  255 128 64
3  22 564 556  255 64 64
3  23 22 556  255 64 64
3  564 563 555  255 64 64
3  556 564 555  255 64 64
3  563 560 554  255 64 64
3  555 563 554  255 64 64
3  560 559 553  255 64 64
3  554 560 553  255 64 64
3  559 558 552  255 64 64
3  553 559 552  255 64 64
3  558 557 551  255 64 64
3  552 558 551  255 64 64
3  557 347 346  255 64 64
3  551 557 346  255 64 64
3  17 550 547  128 0 128
3  22 17 547  128 0 128
3  550 549 546  128 0 128
3  547 550 546  128 0 128
3  549 548 545  128 0 128
3  546 549 545  128 0 128
3  548 348 347  128 0 128
3  545 548 347  128 0 128
3  16 544 533  0 255 255
3  17 16 533  0 255 255
3  544 543 532  0 255 255
3  533 544 532  0 255 255
3  543 542 529  0 255 255
3  532 543 529  0 255 255
3  542 541 528  0 255 255
3  529 542 528  0 255 255
3  541 540 527  0 255 255
3  528 541 527  0 255 255
3  540 539 526  0 255 255
3  527 540 526  0 255 255
3  539 538 525  0 255 255
3  526 539 525  0 255 255
3  538 537 523  0 255 255
3  525 538 523  0 255 255
3  537 349 348  0 255 255
3  523 537 348  0 255 255
3  1219 1220 1323  0 0 255
3  1219 1323 1324  0 0 255
3  351 522 514  192 0 0
3  352 351 514  192 0 0
3  522 521 513  192 0 0
3  514 522 513  192 0 0
3  521 520 512  192 0 0
3  513 521 512  192 0 0
3  520 519 511  192 0 0
3  512 520 511  192 0 0
3  519 518 510  192 0 0
3  511 519 510  192 0 0
3  518 517 509  192 0 0
3  510 518 509  192 0 0
3  517 516 508  192 0 0
3  509 517 508  192 0 0
3  516 515 506  192 0 0
3  508 516 506  192 0 0
3  515 11 10  192 0 0
3  506 515 10  192 0 0
3  352 505 504  128 255 64
3  357 352 504  128 255 64
3  505 1218 1217  128 255 64
3  504 505 1217  128 255 64
3  502 503 1325  128 255 64
3  502 1325 1326  128 255 64
3  1223 1224 503  128 255 64
3  1223 503 502  128 255 64
3  359 501 499  128 255 64
3  360 359 499  128 255 64
3  501 500 498  128 255 64
3  499 501 498  128 255 64
3  500 1277 1276  128 255 64
3  498 500 1276  128 255 64
3  360 497 485  255 165 0
3  361 360 485  255 165 0
3  497 496 484  255 165 0
3  485 497 484  255 165 0
3  496 495 481  255 165 0
3  484 496 481  255 165 0
3  495 494 480  255 165 0
3  481 495 480  255 165 0
3  494 493 479  255 165 0
3  480 494 479  255 165 0
3  493 492 478  255 165 0
3  479 493 478  255 165 0
3  492 491 477  255 165 0
3  478 492 477  255 165 0
3  491 490 476  255 165 0
3  477 491 476  255 165 0
3  490 489 475  255 165 0
3  476 490 475  255 165 0
3  489 488 474  255 165 0
3  475 489 474  255 165 0
3  488 487 473  255 165 0
3  474 488 473  255 165 0
3  487 486 472  255 165 0
3  473 487 472  255 165 0
3  486 212 211  255 165 0
3  472 486 211  255 165 0
3  463 471 1327  255 165 0
3  463 1327 464  255 165 0
3  462 470 471  255 165 0
3  462 471 463  255 165 0
3  461 469 470  255 165 0
3  461 470 462  255 165 0
3  460 468 469  255 165 0
3  460 469 461  255 165 0
3  457 467 468  255 165 0
3  457 468 460  255 165 0
3  456 466 467  255 165 0
3  456 467 457  255 165 0
3  454 465 466  255 165 0
3  454 466 456  255 165 0
3  453 1251 465  255 165 0
3  453 465 454  255 165 0
3  452 463 464  255 165 0
3  452 464 1328  255 165 0
3  451 462 463  255 165 0
3  451 463 452  255 165 0
3  450 461 462  255 165 0
3  450 462 451  255 165 0
3  449 460 461  255 165 0
3  449 461 450  255 165 0
3  448 457 460  255 165 0
3  448 460 449  255 165 0
3  447 456 457  255 165 0
3  447 457 448  255 165 0
3  446 454 456  255 165 0
3  446 456 447  255 165 0
3  1249 453 454  255 165 0
3  1249 454 446  255 165 0
3  362 1342 445  255 165 0
3  363 362 445  255 165 0
3  1342 1341 444  255 165 0
3  445 1342 444  255 165 0
3  1341 1340 443  255 165 0
3  444 1341 443  255 165 0
3  1340 119 126  255 165 0
3  443 1340 126  255 165 0
3  363 442 430  255 165 0
3  364 363 430  255 165 0
3  442 441 429  255 165 0
3  430 442 429  255 165 0
3  441 440 428  255 165 0
3  429 441 428  255 165 0
3  440 439 427  255 165 0
3  428 440 427  255 165 0
3  439 438 426  255 165 0
3  427 439 426  255 165 0
3  438 436 425  255 165 0
3  426 438 425  255 165 0
3  436 435 424  255 165 0
3  425 436 424  255 165 0
3  435 434 423  255 165 0
3  424 435 423  255 165 0
3  434 433 422  255 165 0
3  423 434 422  255 165 0
3  433 432 421  255 165 0
3  422 433 421  255 165 0
3  432 431 420  255 165 0
3  421 432 420  255 165 0
3  431 200 199  255 165 0
3  420 431 199  255 165 0
3  364 1339 419  176 196 222
3  376 364 419  176 196 222
3  1339 1338 418  176 196 222
3  419 1339 418  176 196 222
3  1338 1273 1272  176 196 222
3  418 1338 1272  176 196 222
3  1329 417 416  176 196 222
3  1330 1329 416  176 196 222
3  417 147 141  176 196 222
3  416 417 141  176 196 222
3  378 415 414  176 196 222
3  379 378 414  176 196 222
3  415 86 83  176 196 222
3  414 415 83  176 196 222
3  1295 1297 1331  176 196 222
3  1295 1331 1332  176 196 222
3  1233 1235 1333  176 196 222
3  1233 1333 1335  176 196 222

