OFF
505 479 0

-29.1395 -3.93602 -56.8335
-19.1 16.645 -55.0774
-18.9792 16.8927 -59.0541
-18.9792 16.8927 -55.0774
-18.9792 16.8927 -64.3352
-21.4078 11.914 -64.3352
-29.1395 -3.93602 -64.3352
-29.1395 -3.93602 -55.0774
-29.1395 -3.93602 36.3279
-29.1395 -3.93602 52.9446
-27.9479 -1.49317 52.9446
-23.2374 8.1633 52.9446
-21.4078 11.914 52.9446
-21.1053 12.5342 52.9446
-19.1 16.645 52.9446
-19.1 16.645 36.3279
-19.1 16.645 -52.0509
-28.526 14.2557 -64.3352
-11.7905 18.8784 -55.0774
-0.753009 21.9272 -63.4577
-0.753009 21.9272 -55.0774
-0.753009 21.9272 -64.3352
-4.08819 21.0059 -64.3352
-25.0508 15.2156 -64.3352
-26.5293 14.8072 -64.3352
-28.526 14.2557 -55.0774
-26.5293 14.8072 -55.0774
-25.0508 15.2156 -55.0774
-18.9792 16.8927 -52.0509
-18.9792 16.8927 52.9446
-11.7905 18.8784 52.9446
-11.7905 18.8784 -52.0509
-10.0867 19.349 -55.0774
-5.88854 20.5086 -55.0774
-4.08819 21.0059 -55.0774
-11.118 -14.0018 -64.3352
-33.3581 -1.57979 -55.0774
-20.6178 -8.69575 -55.0774
-36.3651 0.0997707 -64.3352
-36.3651 0.0997707 -55.0774
-34.0082 -1.21665 -64.3352
-27.1796 -5.03074 -64.3352
-20.6178 -8.69575 -64.3352
-11.118 -14.0018 -55.0774
-11.1345 -13.9926 -55.0774
-20.6178 -8.69575 0.078575
-20.6178 -8.69575 36.3279
-21.4172 -8.24929 36.3279
-27.1796 -5.03074 36.3279
-32.4661 -2.07798 36.3279
-33.2113 -1.66177 36.3279
-33.3581 -1.57979 36.3279
-34.0082 -1.21665 -55.0774
-1.40392 16.586 52.9446
9.40505 10.8341 36.3279
16.4031 7.11014 -52.0509
22.3472 3.94704 -52.0509
25.7293 2.14727 -52.0509
34.539 -2.54073 -52.0509
44.2882 -7.72871 -64.3352
16.4031 7.11014 -64.3352
-1.40392 16.586 -64.3352
-1.40392 16.586 -61.2511
-1.40392 16.586 -52.0509
8.91152 11.0967 52.9446
9.40505 10.8341 52.9446
9.93839 10.5503 36.3279
16.4031 7.11014 36.3279
16.4031 7.11014 0.352215
19.9229 5.23709 -52.0509
22.3472 3.94704 0.352215
25.7293 2.14727 0.352215
25.9101 2.05104 -52.0509
34.539 -2.54073 -49.0288
39.2217 -5.0326 -49.0288
44.2882 -7.72871 -49.0288
44.2882 -7.72871 -52.0509
44.2882 -7.72871 -55.0774
-3.22505 1.64231 -52.0509
-1.24141 17.9195 -52.0509
-3.22505 1.64231 -55.0774
-0.494133 24.0514 -64.3352
-1.96291 11.999 -64.3352
-3.22505 1.64231 -64.3352
-3.22505 1.64231 -64.3352
-3.44604 -0.171094 -64.3352
-4.41734 -8.14133 -64.3352
-4.41734 -8.14133 -55.0774
-3.44604 -0.171094 -55.0774
-3.22505 1.64231 36.3279
-3.22505 1.64231 52.9446
-3.22505 1.64231 52.9446
-1.96291 11.999 52.9446
-1.33478 17.1533 52.9446
-1.26833 17.6986 52.9446
-1.24141 17.9195 52.9446
-1.24141 17.9195 36.3279
-0.753009 21.9272 -52.0509
-0.494133 24.0514 -55.0774
8.26923 -15.2115 -55.0774
-25.79 -17.9895 -55.0774
-25.79 -17.9895 0.078575
-32.8 -0.915 -55.0774
-38.3172 -10.8471 -55.0774
-38.3172 -10.8471 0.078575
-38.6206 -9.67798 -55.0774
22.9755 8.94104 -64.3352
46.2472 -4.22206 -64.3352
-5.4054 1.03492 64.3352
-15.1351 -1.6755 64.3352
-15.1351 -1.6755 59.95
-17.8978 9.67812 59.95
-17.8978 9.67812 52.9446
-19.2584 7.72468 59.95
-19.2584 7.72468 52.9446
-18.6299 6.08788 59.95
-18.6299 6.08788 52.9446
22.4292 -4.14608 -49.0288
22.4292 -4.14608 0.352215
19.9608 3.13567 0.352215
22.4292 -4.14608 -52.0509
-13.0508 7.19298 59.95
-18.4364 5.58389 59.95
-13.6159 7.51222 59.95
-5.81318 3.10437 59.95
-6.97642 9.00783 59.95
-11.521 7.65002 59.95
-6.54382 9.13708 59.95
-11.2188 8.19316 59.95
-6.61926 9.49974 59.95
-30.1 -24.205 -55.0774
-29.0908 -23.9206 -55.0774
-29.0908 -23.9206 0.078575
-30.1 -24.205 0.078575
-39.9 -13.805 0.078575
-36.9132 -12.5854 0.078575
-42.1 -17.515 -55.0774
-42.1 -17.515 0.078575
-42.3814 -16.5771 0.078575
-42.3814 -16.5771 -55.0774
-12.7 19.515 -55.0774
-12.7 19.515 -52.0509
3.2 15.445 36.3279
3.28299 15.2375 36.3279
3.28299 15.2375 52.9446
3.2 15.445 52.9446
-18.5 17.875 -55.0774
-18.5 17.875 -52.0509
17.5744 7.43643 -52.0509
20.3083 5.91325 -52.0509
21.8561 8.6292 -52.0509
12.7358 -7.37414 0.352215
2.99413 -1.87098 0.352215
-15.7248 -1.83975 -52.0509
-15.7248 -1.83975 36.3279
-15.7248 -1.83975 52.9446
-15.7248 -1.83975 -55.0774
-16.0824 -0.546214 59.95
18.4284 2.61465 0.352215
-15.7613 -1.38235 59.95
-4.98745 1.65539 59.95
-15.5991 -1.80476 59.95
22.9755 8.94104 -55.0774
22.9755 8.94104 -52.0509
28.1396 6.02011 -52.0509
28.1396 6.02011 -55.0774
-5.21906 2.76875 59.95
-4.88834 1.17896 59.95
-29.6956 5.26453 36.3279
-29.6 4.895 36.3279
-29.6 4.895 52.9446
-29.6956 5.26453 52.9446
3.40444 -1.13705 36.3279
2.27457 -1.46449 36.3279
2.27457 -1.46449 52.9446
3.40444 -1.13705 52.9446
-29.9465 6.23461 52.9446
-29.9465 6.23461 36.3279
-5.21906 2.76875 52.9446
-4.88834 1.17896 52.9446
15.9178 8.35937 -52.0509
15.9178 8.35937 36.3279
16.2821 7.22106 36.3279
16.2821 7.22106 -52.0509
32.2341 -6.72958 -49.0288
32.2341 -6.72958 -52.0509
34.7602 -2.13856 -52.0509
34.7602 -2.13856 -49.0288
3.63816 14.3496 36.3279
3.63816 14.3496 52.9446
-8.9852 12.2066 52.9446
-8.9852 12.2066 59.95
-7.28282 12.6895 52.9446
-19.9246 -29.8778 -55.0774
18.4228 7.67278 -52.0509
-17 -2.195 -52.0509
-19.9246 -29.8778 -64.3352
18.7191 6.79864 -52.0509
-17.5997 9.7627 52.9446
-7.05256 -6.67273 -55.0774
-15.7613 -1.38235 64.3352
-17.5997 9.7627 59.95
-15.5991 -1.80476 64.3352
-7.05256 -6.67273 -64.3352
-15.2916 -1.2499 64.3352
-42.7079 -17.1761 -55.0774
-37.6822 -7.95647 -55.0774
-7.09962 15.5947 -64.3352
8.26131 4.84208 -64.3352
-20.7173 11.5239 52.9446
-3.22505 1.64231 36.3279
-8.02139 16.24 52.9446
-7.67289 14.5647 52.9446
13.3414 16.4107 -55.0774
14.1308 13.9439 -55.0774
-20.2 -7.945 36.3279
-20.2 -7.945 52.9446
-15.5991 -1.80476 52.9446
-21.4172 -8.24929 52.9446
-15.5991 -1.80476 36.3279
-0.235847 22.07 -64.3352
1.98362 22.6831 -55.0774
1.98362 22.6831 -64.3352
-4.72555 19.8607 36.3279
-5.88854 20.5086 36.3279
-25.5691 14.2647 36.3279
-25.2827 14.7902 36.3279
-16.0824 -0.546214 64.3352
-10.0867 19.349 36.3279
-15.762 0.0295741 64.3352
-32.7785 -0.907215 36.3279
-32.7785 -0.907215 52.9446
-32.4661 -2.07798 52.9446
-25.2827 14.7902 -52.0509
-5.88854 20.5086 -52.0509
-4.72555 19.8607 -52.0509
-25.5691 14.2647 -52.0509
19.5 4.495 36.3279
-47.294 -19.6355 -64.3352
19.5 4.495 0.352215
-44.7995 -21.0131 -64.3352
19.1 5.675 36.3279
-44.7995 -21.0131 -55.0774
-47.294 -19.6355 -55.0774
-8.70299 12.2867 59.95
-29.0908 -23.9206 -64.3352
-8.70299 12.2867 52.9446
-14.3094 -19.7549 -55.0774
-7.00353 11.3469 52.9446
-7.49037 11.6161 52.9446
-14.893 -1.13752 59.95
-12.0804 6.64483 59.95
-17 -2.195 52.9446
9.32873 11.1413 52.9446
-3.22505 1.64231 52.9446
9.32873 11.1413 36.3279
46.2472 -4.22206 -52.0509
-8.39715 8.58336 64.3352
-8.39715 8.58336 59.95
46.2472 -4.22206 -49.0288
-6.7 7.605 59.95
16.4537 7.12426 -52.0509
-6.7 7.605 64.3352
-45.1715 -15.8027 -64.3352
-45.1715 -15.8027 -55.0774
-41.4 -8.99214 -55.0774
-7.72692 8.7836 59.95
-41.4 -8.99214 -64.3352
-7.72692 8.7836 64.3352
-6.83096 8.2696 64.3352
-6.83096 8.2696 59.95
-16.0824 -0.546214 52.9446
7.17304 5.60387 36.3279
46.2472 -4.22206 -55.0774
-27.0428 -4.99265 52.9446
14.7611 11.9742 -52.0509
10.5606 11.3441 -52.0509
-29.6956 5.26453 -55.0774
-29.6 4.895 -55.0774
14.1308 13.9439 -52.0509
-28.6448 6.62924 52.9446
-19.8012 9.13814 52.9446
3.28299 15.2375 -52.0509
3.63816 14.3496 -52.0509
-8.19499 9.05213 59.95
-8.19499 9.05213 64.3352
-36.6106 -7.65796 36.3279
-36.4963 -7.62611 36.3279
-39.4338 -11.1698 -55.0774
25.0699 4.87276 -52.0509
-38.708 -11.5774 -55.0774
23.2726 4.26169 -52.0509
24.2616 8.21357 -52.0509
25.5208 3.00914 -52.0509
-15.2916 -1.2499 59.95
-15.762 0.0295741 59.95
7.17304 5.60387 52.9446
-7.09962 15.5947 52.9446
-11.521 7.65002 64.3352
46.3011 -4.12559 -55.0774
46.3011 -4.12559 -64.3352
-16.7012 6.10233 59.95
26.2272 2.61556 -52.0509
-16.7012 6.10233 64.3352
-17.4 4.485 64.3352
-31.5463 -28.3329 -64.3352
-17.4 4.485 59.95
-21.9941 -33.6085 -64.3352
-21.9941 -33.6085 -55.0774
-31.5463 -28.3329 -55.0774
9.93839 10.5503 52.9446
6.46784 4.34247 36.3279
-17.6538 5.17542 59.95
6.46784 4.34247 52.9446
-17.6538 5.17542 64.3352
-17.2992 5.92365 64.3352
-17.2992 5.92365 59.95
39.7321 -4.90862 -49.0288
44.4082 -7.51386 -49.0288
27.3399 -15.6242 -52.0509
27.3399 -15.6242 -49.0288
-17.8666 5.75413 59.95
-17.0023 6.55025 64.3352
44.4082 -7.51386 -52.0509
-17.0023 6.55025 59.95
44.4082 -7.51386 -55.0774
29.0906 7.71321 -55.0774
-4.08819 21.0059 -52.0509
13.1129 9.9221 -52.0509
-13.6159 7.51222 64.3352
12.387 14.9302 -52.0509
10.4246 11.4199 -52.0509
-5.49923 1.51109 59.95
-5.49923 1.51109 64.3352
-11.2188 8.19316 64.3352
-42.7079 -17.1761 -64.3352
10.3658 11.3149 -52.0509
9.3035 11.1555 -52.0509
9.3035 11.1555 36.3279
10.3658 11.3149 36.3279
-5.81318 3.10437 64.3352
-12.7 19.515 52.9446
-5.21906 2.76875 64.3352
-38.0287 -11.9589 36.3279
-38.0287 -11.9589 0.078575
-38.3172 -10.8471 36.3279
-18.5 17.875 52.9446
-10.0867 19.349 -52.0509
-38.708 -11.5774 0.078575
-36.8007 -8.01313 0.078575
-7.04928 9.37759 59.95
-10.0867 19.349 52.9446
-6.99865 21.1271 -55.0774
9.3035 11.1555 52.9446
-24.5307 16.1698 -55.0774
-27.8175 15.5349 -64.3352
-28.8171 13.7299 -64.3352
-28.8171 13.7299 -55.0774
-27.8175 15.5349 -55.0774
36.6124 1.22761 -55.0774
19.2 -9.895 -52.0509
36.6124 1.22761 -52.0509
19.2 -9.895 -49.0288
37.5964 3.01585 -55.0774
36.8698 -21.0078 -49.0288
-5.4054 1.03492 59.95
25.9101 2.05104 -49.0288
-36.0266 -13.0833 36.3279
-36.0266 -13.0833 0.078575
-36.8007 -8.01313 36.3279
10.4056 11.386 -52.0509
10.4056 11.386 36.3279
-36.8007 -8.01313 -55.0774
10.0435 10.7383 36.3279
-27.1796 -5.03074 52.9446
-6.61926 9.49974 52.9446
-13.0508 7.19298 64.3352
-29.9465 6.23461 -55.0774
13.1 -6.735 0.352215
13.1 -6.735 36.3279
12.1 -7.015 36.3279
12.1 -7.015 0.352215
13.1129 9.9221 36.3279
16.4537 7.12426 36.3279
-4.85071 19.6358 52.9446
-5.06259 19.255 52.9446
-4.72555 19.8607 52.9446
18.7178 -10.7535 -52.0509
36.8698 -21.0078 -52.0509
-27.4701 15.3386 -55.0774
-27.4701 15.3386 -64.3352
-24.5307 16.1698 -64.3352
-25.2827 14.7902 -55.0774
-26.0773 14.5518 -55.0774
-26.0773 14.5518 -64.3352
-25.2827 14.7902 -64.3352
-15.6667 32.4305 -64.3352
-15.6667 32.4305 -55.0774
-1.94682 24.8537 -55.0774
-1.94682 24.8537 -64.3352
-25.0395 13.9656 52.9446
36.8698 -21.0078 -55.0774
-26.1473 -18.6316 0.078575
36.8698 -21.0078 -64.3352
32.5488 -28.7424 -64.3352
32.5488 -28.7424 -55.0774
-20.8599 -21.601 -55.0774
-26.1473 -18.6316 -55.0774
-16.6461 -23.9675 -55.0774
-2.62741 1.30469 -64.3352
-2.62741 1.30469 -55.0774
-36.8449 -7.72323 36.3279
-36.8449 -7.72323 -55.0774
-37.0003 -6.70554 -55.0774
-37.0003 -6.70554 36.3279
14.3197 -18.5834 -55.0774
18.7178 -10.7535 -55.0774
47.2977 -2.34169 -64.3352
17.8 -10.235 -52.0509
17.8 -10.235 -55.0774
47.2977 -2.34169 -55.0774
-4.88834 1.17896 64.3352
19.2 -9.895 0.352215
-4.98745 1.65539 64.3352
-25.2827 14.7902 52.9446
-5.37263 18.6979 52.9446
2.27457 -1.46449 -52.0509
0.779781 21.4955 -55.0774
-29.4505 -24.5671 -64.3352
23.2726 4.26169 0.352215
-5.88854 20.5086 52.9446
10.5 11.335 -52.0509
0.779781 21.4955 -52.0509
12.7358 -7.37414 -52.0509
-3.22505 1.64231 -52.0509
-32.8 -0.915 36.3279
-32.8 -0.915 52.9446
19.9229 5.23709 0.352215
-28.4995 0.639791 52.9446
25.9101 2.05104 0.352215
3.2 15.445 -52.0509
-25.5691 14.2647 -55.0774
27.3399 -15.6242 -55.0774
-18.3737 27.4646 -55.0774
-4.88834 1.17896 36.3279
-41.9346 -17.6072 0.078575
-17.9995 4.44612 59.95
-17.9995 4.44612 64.3352
17.9979 1.8592 36.3279
16.3246 7.08827 36.3279
17.9979 1.8592 0.352215
-33.0509 -1.0057 -55.0774
-33.0509 -1.0057 36.3279
-26.1473 -18.6316 36.3279
2.99413 -1.87098 36.3279
-17 -2.195 36.3279
2.99413 -1.87098 -52.0509
-36.6106 -7.65796 0.078575
-36.8449 -7.72323 0.078575
25.5624 9.66166 -64.3352
25.5624 9.66166 -55.0774
-11.75 18.85 52.9446
36.6124 1.22761 -49.0288
-15.7248 -1.83975 -64.3352
-29.4505 -24.5671 -55.0774
-25.5691 14.2647 52.9446
17.8 -10.235 0.352215
-24.7075 13.778 52.9446
-6.3 7.965 64.3352
-36.6106 -7.65796 -55.0774
-6.3 7.965 59.95
-41.9346 -17.6072 -55.0774
-0.235847 22.07 -55.0774
3.31631 15.3802 -52.0509
-0.235847 22.07 -52.0509
2.30633 20.6321 -52.0509
2.30633 20.6321 -55.0774
12.7358 -7.37414 -55.0774
-7.49037 11.6161 59.95
-41.1481 -14.3146 -55.0774
25.5208 3.00914 0.352215
-7.00353 11.3469 59.95
-41.1481 -14.3146 0.078575
-39.9 -13.805 -55.0774
-17.8067 33.6123 -55.0774
-7.6797 12.577 52.9446
-4.72555 19.8607 -55.0774
-17.8067 33.6123 -64.3352
24.2616 8.21357 -55.0774
-25.5691 14.2647 -64.3352
-14.893 -1.13752 64.3352
-14.1562 -1.40279 64.3352
-17 -2.195 -55.0774
25.8 1.855 -52.0509
-3.22505 1.64231 -55.0774
-34.0082 -1.21665 36.3279
-14.1562 -1.40279 59.95
25.8 1.855 -49.0288
-37.6822 -7.95647 -64.3352
-14.3094 -19.7549 -64.3352
19.1 5.675 0.352215
-3.22505 1.64231 -64.3352
28.1187 -7.72903 -52.0509
-12.0804 6.64483 -64.3352
-17 -2.195 -64.3352
5  503 5 6 41 504  255 0 255
5  503 501 83 82 207  255 0 255
4  503 504 463 501  255 0 255
5  504 42 35 203 463  255 0 255
3  504 41 42  255 0 255
5  503 207 22 4 5  255 0 255
3  501 84 83  255 0 255
4  494 434 78 80  255 0 255
5  489 394 356 38 40  0 0 255
5  489 5 4 23 395  0 0 255
4  498 41 6 40  255 0 0
4  498 267 263 335  255 0 0
4  498 40 38 267  255 0 0
4  489 40 6 5  0 0 255
6  498 335 428 245 42 41  255 0 0
5  501 463 203 85 84  255 0 255
4  492 195 153 156  255 0 255
7  492 37 45 46 215 455 195  255 0 255
4  494 156 153 434  255 0 255
5  494 80 88 199 156  255 0 255
6  492 156 199 43 44 37  255 0 255
6  206 412 469 372 103 105  255 0 0
3  489 395 394  0 0 255
5  441 236 225 177 377  0 0 255
4  441 392 233 236  0 0 255
6  443 397 398 34 33 352  0 255 255
4  486 34 327 235  255 0 255
5  443 352 140 146 354  0 255 255
3  486 33 34  255 0 255
4  486 235 234 33  255 0 255
4  27 354 146 3  0 255 255
4  27 3 1 392  0 0 255
5  33 32 18 140 352  0 255 255
4  33 234 347 32  255 0 255
3  206 413 412  255 0 0
4  416 419 418 387  0 255 0
5  416 442 401 405 415  0 255 0
4  416 387 319 442  0 255 0
4  254 210 444 179  255 0 255
4  254 90 89 210  255 0 255
3  254 91 90  255 0 255
7  477 410 80 78 426 456 433  0 255 0
8  477 419 416 415 99 87 88 410  0 255 0
4  477 433 418 419  0 255 0
3  205 139 136  255 0 0
5  464 131 406 408 193  255 0 0
7  464 309 242 205 136 471 130  255 0 0
3  464 130 131  255 0 0
4  252 455 215 216  255 0 255
5  252 216 218 374 274  255 0 255
4  471 136 137 445  255 0 0
4  469 412 458 457  255 0 0
4  471 445 133 130  255 0 0
4  469 457 349 372  255 0 0
6  441 377 52 39 357 393  0 0 255
5  206 265 39 52 413  255 0 0
4  428 305 307 196  255 0 0
4  428 196 499 245  255 0 0
4  464 193 308 309  255 0 0
4  460 162 214 213  255 255 0
4  398 98 20 34  0 255 255
4  407 131 132 402  255 0 0
6  407 100 44 43 247 406  255 0 0
4  290 103 104 348  255 0 0
4  290 483 479 288  255 0 0
4  407 402 101 100  255 0 0
4  290 348 134 483  255 0 0
4  385 93 53 425  255 0 255
9  254 178 375 248 192 212 297 92 91  255 0 255
4  453 402 368 367  255 0 0
4  467 12 11 280  0 0 255
8  252 274 10 11 281 114 116 271  255 0 255
4  399 22 21 81  0 255 255
5  459 106 107 300 417  255 255 0
4  459 222 220 106  255 255 0
5  459 460 213 221 222  255 255 0
4  398 399 81 98  0 255 255
5  460 326 165 488 162  255 255 0
6  460 459 417 420 363 326  255 255 0
4  32 347 31 18  255 0 255
4  392 1 16 233  0 0 255
5  72 366 439 71 57  0 255 0
5  69 437 500 68 55  0 255 0
4  433 151 466 418  0 255 0
4  72 493 497 366  0 255 0
4  69 56 70 437  0 255 0
3  387 418 360  0 255 0
4  455 252 155 154  255 0 255
4  286 457 458 411  255 0 0
4  286 369 349 457  255 0 0
5  453 46 45 101 402  255 0 0
8  453 367 369 286 287 48 47 46  255 0 0
4  348 344 135 134  255 0 0
7  402 132 133 445 134 135 368  255 0 0
4  425 53 92 297  255 0 255
6  443 354 389 358 484 397  0 255 255
4  27 392 393 26  0 0 255
3  392 441 393  0 0 255
5  151 433 456 152 381  0 255 0
5  439 366 497 117 118  0 255 0
5  439 118 119 70 71  0 255 0
8  151 378 450 158 119 118 422 466  0 255 0
5  437 70 119 158 239  0 255 0
4  434 210 89 78  255 0 255
5  55 68 67 383 261  255 255 0
6  210 434 153 154 219 444  255 0 255
4  67 68 500 241  0 255 0
5  67 241 237 448 449  0 255 0
8  206 105 288 479 139 205 264 265  255 0 0
4  205 242 243 264  255 0 0
3  203 86 85  255 0 255
4  199 87 86 203  255 0 255
5  193 408 247 499 196  255 0 0
4  203 35 43 199  255 0 255
4  335 240 305 428  255 0 0
4  401 442 319 388  0 255 0
4  401 388 76 77  0 255 0
4  325 77 76 323  255 255 0
4  465 225 226 424  0 0 255
4  465 176 177 225  0 0 255
4  465 400 171 176  0 0 255
5  467 280 170 171 400  0 0 255
4  386 223 96 95  255 0 255
4  430 224 223 386  255 0 255
4  424 226 15 14  0 0 255
4  351 228 224 430  255 0 255
9  430 386 384 385 425 297 211 461 351  255 0 255
7  467 400 465 424 14 13 12  0 0 255
5  403 409 85 86 404  0 255 0
7  403 59 60 208 83 84 409  0 255 0
5  420 299 273 359 363  255 255 0
4  420 417 300 299  255 255 0
5  325 273 107 59 77  255 255 0
4  401 77 59 403  0 255 0
3  409 84 85  0 255 0
3  410 88 80  0 255 0
3  199 88 87  255 0 255
6  404 86 87 99 415 405  0 255 0
4  405 401 403 404  0 255 0
6  396 391 23 4 22 399  0 255 255
5  396 487 355 390 391  0 255 255
4  397 484 487 396  0 255 255
4  399 398 397 396  0 255 255
4  394 24 17 356  0 0 255
4  393 357 25 26  0 0 255
4  225 236 233 226  0 0 255
5  286 411 414 495 51  255 0 0
4  395 23 24 394  0 0 255
4  390 24 23 391  0 255 255
4  390 355 17 24  0 255 255
4  389 26 25 358  0 255 255
4  354 27 26 389  0 255 255
4  240 335 263 238  255 0 0
4  240 242 309 305  255 0 0
4  388 364 75 76  0 255 0
4  388 319 320 364  0 255 0
4  323 76 75 318  255 255 0
5  387 360 502 185 319  0 255 0
4  72 302 186 58  255 255 0
4  36 451 452 51  0 0 255
4  495 414 413 52  255 0 0
5  52 377 277 451 36  0 0 255
4  495 52 36 51  255 0 0
4  487 484 358 355  0 255 255
4  313 91 92 296  0 255 0
4  454 380 381 152  0 255 0
3  454 173 172  0 255 0
7  311 449 448 379 380 454 172  0 255 0
5  313 175 174 90 91  0 255 0
4  311 172 175 313  0 255 0
4  386 95 94 384  255 0 255
4  385 384 94 93  255 0 255
4  356 357 39 38  0 0 255
4  265 267 38 39  255 0 0
5  287 50 49 8 48  255 0 0
4  50 435 230 49  0 0 255
4  374 9 10 274  255 0 255
4  374 48 8 9  255 0 255
4  261 383 182 183  255 255 0
5  328 382 371 370 431  255 255 0
4  328 180 181 382  255 255 0
4  148 261 183 180  255 255 0
6  382 181 182 373 339 371  255 255 0
4  377 177 168 277  0 0 255
3  46 47 215  255 0 255
4  48 374 218 47  255 0 255
4  373 255 338 339  255 255 0
5  370 336 337 283 282  255 255 0
4  371 339 336 370  255 255 0
4  310 65 54 66  0 255 0
6  310 296 92 53 64 65  0 255 0
4  318 75 74 317  255 255 0
5  364 320 184 74 75  0 255 0
4  360 120 493 502  0 255 0
4  362 117 120 360  0 255 0
4  317 74 73 187  255 255 0
4  12 209 281 11  255 0 255
8  14 461 211 212 190 198 209 13  255 0 255
3  12 13 209  255 0 255
5  351 30 31 347 228  255 0 255
4  234 224 228 347  255 0 255
4  346 341 30 29  0 255 255
4  147 141 341 346  0 255 255
4  346 29 28 147  0 255 255
4  141 147 146 140  0 255 255
4  31 30 341 141  0 255 255
4  193 196 307 308  255 0 0
4  338 188 283 337  255 255 0
4  338 255 253 353  255 255 0
4  339 338 337 336  255 255 0
6  221 213 214 476 427 472  255 255 0
4  221 98 81 222  255 255 0
4  221 472 20 98  255 255 0
4  34 20 97 327  255 0 255
4  235 223 224 234  255 0 255
4  235 79 96 223  255 0 255
7  148 180 275 279 163 150 194  255 255 0
4  328 276 275 180  255 255 0
4  235 327 97 79  255 0 255
4  326 363 359 165  255 255 0
4  323 318 259 256  255 255 0
4  325 323 256 273  255 255 0
4  302 164 361 186  255 255 0
5  185 502 493 72 58  0 255 0
4  320 319 185 184  0 255 0
5  318 317 187 462 259  255 255 0
5  67 449 311 272 66  0 255 0
6  313 296 310 66 272 311  0 255 0
4  309 308 307 305  255 0 0
5  302 293 289 292 164  255 255 0
6  149 150 163 292 289 291  255 255 0
4  300 107 273 299  255 255 0
3  251 121 126  255 0 255
5  251 126 258 260 124  255 0 255
3  297 212 211  255 0 255
5  212 192 485 246 190  255 0 255
6  166 470 127 129 375 178  255 0 255
4  288 105 103 290  255 0 0
4  50 287 286 51  255 0 0
4  51 452 435 50  0 0 255
4  188 338 353 189  255 255 0
4  188 143 282 283  255 255 0
4  278 102 451 277  0 0 255
4  169 435 102 278  0 0 255
4  168 169 278 277  0 0 255
5  170 280 11 10 438  0 0 255
4  170 436 435 169  0 0 255
4  170 438 231 436  0 0 255
5  251 295 306 301 121  255 0 255
4  209 198 112 281  255 0 255
6  157 271 116 115 122 446  255 0 255
4  267 265 264 263  255 0 0
4  256 259 462 361  255 255 0
5  445 137 138 482 134  255 0 0
4  302 72 57 293  255 255 0
4  69 149 291 56  255 255 0
4  273 256 361 359  255 255 0
4  164 165 359 361  255 255 0
3  178 254 179  255 0 255
4  252 271 217 155  255 0 255
6  251 124 332 250 294 295  255 0 255
4  493 120 117 497  0 255 0
4  482 138 139 479  255 0 0
4  483 134 482 479  255 0 0
4  247 43 35 499  255 0 0
3  247 408 406  255 0 0
4  499 35 42 245  255 0 0
3  131 407 406  255 0 0
4  474 97 20 472  255 255 0
5  474 432 440 79 97  255 255 0
4  163 279 214 162  255 255 0
4  474 472 427 432  255 255 0
4  263 264 243 238  255 0 0
6  201 123 324 115 113 111  255 0 255
3  281 112 114  255 0 255
4  201 111 112 198  255 0 255
4  187 186 361 462  255 255 0
4  243 242 240 238  255 0 0
5  351 461 14 29 30  255 0 255
7  29 14 15 16 1 3 28  255 0 255
5  456 426 173 454 152  0 255 0
4  450 378 379 448  0 255 0
5  448 237 239 158 450  0 255 0
5  328 431 370 331 276  255 255 0
5  370 282 440 473 331  255 255 0
4  331 473 475 330  255 255 0
4  142 96 79 440  255 255 0
4  142 440 282 143  255 255 0
4  16 15 226 233  0 0 255
4  47 218 216 215  255 0 255
4  191 128 123 201  255 0 255
4  190 191 201 198  255 0 255
4  195 455 154 153  255 0 255
3  293 291 289  255 255 0
4  480 429 291 293  255 255 0
4  71 70 429 480  255 255 0
4  71 480 293 57  255 255 0
4  429 70 56 291  255 255 0
4  353 253 65 64  255 255 0
4  422 118 117 362  0 255 0
5  466 422 362 360 418  0 255 0
5  414 411 458 412 413  255 0 0
4  192 248 249 485  255 0 255
6  191 244 478 350 284 128  255 0 255
4  191 190 246 244  255 0 255
4  144 94 95 145  255 255 0
4  189 93 94 144  255 255 0
5  189 353 64 53 93  255 255 0
4  189 144 143 188  255 255 0
3  184 73 74  0 255 0
4  187 73 58 186  255 255 0
4  185 58 73 184  0 255 0
4  183 182 181 180  255 255 0
4  166 342 468 470  255 0 255
4  167 365 108 421  255 0 255
7  179 217 161 110 496 365 167  255 0 255
5  167 160 166 178 179  255 0 255
4  177 176 171 168  0 0 255
4  173 89 90 174  0 255 0
4  175 172 173 174  0 255 0
4  171 170 169 168  0 0 255
4  167 421 423 160  255 0 255
4  166 160 423 342  255 0 255
4  165 164 292 488  255 255 0
4  163 162 488 292  255 255 0
4  161 202 109 110  255 0 255
4  157 227 200 159  255 0 255
4  161 159 200 202  255 0 255
4  157 446 447 227  255 0 255
4  155 217 219 154  255 0 255
3  151 381 378  0 255 0
4  150 149 197 194  255 255 0
3  148 194 197  255 255 0
4  147 28 3 146  0 255 255
4  145 95 96 142  255 255 0
4  145 142 143 144  255 255 0
4  18 31 141 140  0 255 255
4  139 138 137 136  255 0 0
5  135 344 343 367 368  255 0 0
4  133 132 131 130  255 0 0
4  129 127 125 350  255 0 255
4  129 481 248 375  255 0 255
4  129 350 478 481  255 0 255
4  128 284 285 334  255 0 255
4  127 470 270 125  255 0 255
4  126 298 257 258  255 0 255
4  125 266 284 350  255 0 255
3  125 270 266  255 0 255
4  124 260 262 340  255 0 255
5  115 324 316 321 122  255 0 255
4  123 329 322 324  255 0 255
4  122 321 312 446  255 0 255
4  121 301 303 376  255 0 255
4  37 100 101 45  255 0 0
4  116 114 113 115  255 0 255
4  112 111 113 114  255 0 255
4  444 219 217 179  255 0 255
5  383 67 66 373 182  255 255 0
4  66 54 255 373  255 255 0
4  381 380 379 378  0 255 0
5  329 376 303 315 322  255 0 255
4  369 345 104 349  255 0 0
4  367 343 345 369  255 0 0
4  372 349 104 103  255 0 0
4  365 496 491 108  255 0 255
4  332 333 490 250  255 0 255
4  358 25 17 355  0 255 255
4  357 356 17 25  0 0 255
3  348 104 344  255 0 0
4  345 343 344 104  255 0 0
5  342 340 262 269 468  255 0 255
4  294 250 490 204  255 0 255
4  110 109 491 496  255 0 255
4  333 108 491 490  255 0 255
4  109 204 490 491  255 0 255
6  149 69 55 261 148 197  255 255 0
5  298 334 285 268 257  255 0 255
4  124 340 333 332  255 0 255
5  330 279 275 276 331  255 255 0
5  330 475 476 214 279  255 255 0
4  329 123 128 334  255 0 255
4  324 322 315 316  255 0 255
3  321 316 312  255 0 255
4  295 229 304 306  255 0 255
5  229 227 447 314 304  255 0 255
4  315 303 304 314  255 0 255
4  316 315 314 312  255 0 255
4  306 304 303 301  255 0 255
5  271 157 159 161 217  255 0 255
4  298 126 121 376  255 0 255
4  229 295 294 204  255 0 255
4  266 268 285 284  255 0 255
4  106 60 59 107  255 255 0
4  269 262 257 268  255 0 255
4  270 269 268 266  255 0 255
4  257 262 260 258  255 0 255
4  65 253 255 54  255 255 0
3  485 249 246  255 0 255
4  481 478 249 248  255 0 255
4  478 244 246 249  255 0 255
4  470 468 269 270  255 0 255
4  334 298 376 329  255 0 255
3  437 239 500  0 255 0
4  237 241 500 239  0 255 0
4  435 452 451 102  0 0 255
4  314 447 446 312  255 0 255
4  340 342 423 333  255 0 255
5  438 10 9 232 231  0 0 255
4  436 231 230 435  0 0 255
4  232 9 8 49  0 0 255
4  232 49 230 231  0 0 255
4  229 204 200 227  255 0 255
5  22 207 82 61 21  255 0 255
4  222 81 21 220  255 255 0
5  220 21 61 60 106  255 255 0
4  208 60 61 82  0 255 0
3  208 82 83  0 255 0
4  204 109 202 200  255 0 255
4  432 475 473 440  255 255 0
4  427 476 475 432  255 255 0
4  426 78 89 173  0 255 0
4  423 421 108 333  255 0 255
3  37 44 100  255 0 0
3  98 81 20  0 255 255
3  81 98 20  255 255 0
3  97 20 79  255 0 255
3  20 97 79  255 255 0
7  96 79 63 53 93 94 95  255 0 255
7  79 96 95 94 93 53 63  255 255 0
7  92 53 63 78 89 90 91  255 0 255
7  53 92 91 90 89 78 63  0 255 0
4  80 78 63 62  255 0 255
4  78 80 62 63  0 255 0
10  88 80 62 61 82 83 84 85 86 87  255 0 255
10  80 88 87 86 85 84 83 82 61 62  0 255 0
4  21 61 62 19  255 0 255
3  81 21 19  0 255 255
3  21 81 19  255 255 0
3  20 81 19  0 255 255
3  81 20 19  255 255 0
5  79 20 19 62 63  255 0 255
5  20 79 63 62 19  255 255 0
4  61 21 19 62  255 255 0
7  77 59 58 73 74 75 76  255 255 0
7  59 77 76 75 74 73 58  0 255 0
13  72 58 59 60 61 62 63 53 54 55 69 56 57  255 255 0
13  58 72 57 56 69 55 54 53 63 62 61 60 59  0 255 0
4  71 57 56 70  255 255 0
4  57 71 70 56  0 255 0
5  68 55 54 66 67  255 255 0
5  55 68 67 66 54  0 255 0
4  65 54 53 64  255 255 0
4  54 65 64 53  0 255 0
7  52 39 38 40 6 0 36  255 0 0
7  39 52 36 0 6 40 38  0 0 255
6  51 36 7 8 49 50  255 0 0
6  36 51 50 49 8 7  0 0 255
7  48 8 7 37 45 46 47  255 0 0
7  48 47 46 45 37 7 8  255 0 255
6  44 37 7 0 35 43  255 0 0
6  37 44 43 35 0 7  255 0 255
5  42 35 0 6 41  255 0 0
5  35 42 41 6 0  255 0 255
3  36 7 0  0 0 255
3  36 0 7  255 0 0
10  34 20 19 21 22 4 2 18 32 33  0 255 255
10  20 34 33 32 18 2 4 22 21 19  255 0 255
6  31 18 3 28 29 30  0 255 255
6  18 31 30 29 28 3  255 0 255
6  27 3 2 17 25 26  0 255 255
6  3 27 26 25 17 2  0 0 255
5  24 17 2 4 23  0 255 255
5  17 24 23 4 2  0 0 255
3  3 18 2  0 255 255
3  18 3 2  255 0 255
7  1 3 2 4 5 6 0  0 0 255
7  3 1 0 6 5 4 2  255 0 255
12  16 1 0 7 8 9 10 11 12 13 14 15  0 0 255
12  1 16 15 14 13 12 11 10 9 8 7 0  255 0 255

