OFF
562 677 0

-8.19499 9.05213 52.9446
-8.19499 9.05213 59.95
-6.3 7.965 52.9446
-6.3 7.965 59.95
-17.0023 6.55025 52.9446
-17.0023 6.55025 59.95
-17.9995 4.44612 52.9446
-17.9995 4.44612 59.95
-18.6299 6.08788 52.9446
-6.61926 9.49974 52.9446
-18.6299 6.08788 59.95
-13.6159 7.51222 59.95
-11.2188 8.19316 59.95
-7.04928 9.37759 59.95
-6.61926 9.49974 59.95
9.3035 11.1555 -52.0509
16.2821 7.22106 -52.0509
16.4537 7.12426 -64.3352
17.7515 6.39257 -64.3352
3.63816 14.3496 -64.3352
3.63816 14.3496 -52.0509
9.3035 11.1555 36.3279
9.32873 11.1413 36.3279
10.0435 10.7383 36.3279
16.2821 7.22106 36.3279
16.4537 7.12426 -52.0509
17.7515 6.39257 -52.0509
3.86515 13.7821 -64.3352
3.2 15.445 -64.3352
3.86515 13.7821 0.352215
3.86515 13.7821 36.3279
3.86515 13.7821 44.8445
3.86515 13.7821 52.9446
3.63816 14.3496 52.9446
3.63816 14.3496 36.3279
3.28299 15.2375 -52.0509
3.2 15.445 -52.0509
3.2 15.445 -55.0774
3.2 15.445 -62.8198
-26.1473 -18.6316 0.078575
-36.0266 -13.0833 0.078575
-25.79 -17.9895 0.078575
-20.6178 -8.69575 0.078575
-29.1395 -3.93602 0.078575
-33.2113 -1.66177 0.078575
-33.3581 -1.57979 0.078575
-36.6106 -7.65796 0.078575
34.539 -2.54073 -52.0509
44.2882 -7.72871 -52.0509
32.2341 -6.72958 -52.0509
27.3399 -15.6242 -52.0509
36.8698 -21.0078 -52.0509
19.1 5.675 0.352215
19.5 4.495 0.352215
16.4031 7.11014 0.352215
12.2537 9.31822 0.352215
-1.40392 16.586 0.352215
-3.22505 1.64231 0.352215
2.27457 -1.46449 0.352215
2.99413 -1.87098 0.352215
12.1 -7.015 0.352215
13.1 -6.735 0.352215
17.9979 1.8592 0.352215
18.4284 2.61465 0.352215
-25.2827 14.7902 -55.0774
-19.1 16.645 -55.0774
-25.5691 14.2647 -55.0774
-29.9465 6.23461 -55.0774
-29.6956 5.26453 -55.0774
-29.6 4.895 -55.0774
-27.9479 -1.49317 -55.0774
-25.4682 3.59022 -55.0774
-23.9731 6.65517 -55.0774
-7.05256 -6.67273 -64.3352
-7.05256 -6.67273 -55.0774
-15.7248 -1.83975 -64.3352
-16.5472 -1.3814 -64.3352
-25.4682 3.59022 -64.3352
-25.4682 3.59022 -56.1913
-22.8914 2.15416 -55.0774
-18.4973 -0.294617 -55.0774
-15.7248 -1.83975 -55.0774
-0.753009 21.9272 -55.0774
-0.235847 22.07 -55.0774
-1.24141 17.9195 -55.0774
25.8905 2.80313 -55.0774
44.4082 -7.51386 -55.0774
46.2472 -4.22206 -55.0774
36.6124 1.22761 -55.0774
28.1396 6.02011 -55.0774
24.2616 8.21357 -55.0774
22.9755 8.94104 -55.0774
14.1308 13.9439 -55.0774
2.30633 20.6321 -55.0774
0.779781 21.4955 -55.0774
44.4082 -7.51386 -49.0288
34.7602 -2.13856 -52.0509
-1.24141 17.9195 -64.3352
17.5744 7.43643 -64.3352
44.4082 -7.51386 -64.3352
44.4082 -7.51386 -52.0509
39.7321 -4.90862 -49.0288
34.7602 -2.13856 -49.0288
26.2272 2.61556 -52.0509
25.5208 3.00914 -52.0509
23.2726 4.26169 -52.0509
20.3083 5.91325 -52.0509
18.7191 6.79864 -52.0509
17.5744 7.43643 -52.0509
15.9178 8.35937 -52.0509
13.1129 9.9221 -52.0509
10.5606 11.3441 -52.0509
10.4246 11.4199 -52.0509
3.31631 15.3802 -52.0509
-1.24141 17.9195 -52.0509
-1.24141 17.9195 -61.802
9.40505 10.8341 36.3279
9.93839 10.5503 36.3279
-1.40392 16.586 36.3279
-3.22505 1.64231 36.3279
2.27457 -1.46449 36.3279
3.40444 -1.13705 36.3279
6.46784 4.34247 36.3279
7.17304 5.60387 36.3279
25.9101 2.05104 -64.3352
25.9101 2.05104 -52.0509
18.7178 -10.7535 -64.3352
18.7178 -10.7535 -55.0774
18.7178 -10.7535 -52.0509
19.2 -9.895 -52.0509
22.4292 -4.14608 -52.0509
25.8 1.855 -52.0509
-2.62741 1.30469 -64.3352
-3.22505 1.64231 -64.3352
36.8698 -21.0078 -64.3352
36.8698 -21.0078 -55.0774
27.3399 -15.6242 -55.0774
17.8 -10.235 -55.0774
12.7358 -7.37414 -55.0774
-2.62741 1.30469 -55.0774
-3.22505 1.64231 -55.0774
-33.3581 -1.57979 -55.0774
-33.3581 -1.57979 36.3279
-36.6106 -7.65796 -55.0774
-36.6106 -7.65796 36.3279
-27.9479 -1.49317 -56.625
-27.9479 -1.49317 52.9446
-27.9479 -1.49317 -64.3352
-29.9465 6.23461 -64.3352
-30.9083 9.95369 -55.0774
-30.9083 9.95369 -64.3352
-8.9852 12.2066 52.9446
-8.70299 12.2867 52.9446
-17.5997 9.7627 52.9446
-17.8978 9.67812 52.9446
-19.2584 7.72468 52.9446
-16.0824 -0.546214 52.9446
-15.5991 -1.80476 52.9446
-4.88834 1.17896 52.9446
-5.21906 2.76875 52.9446
-7.00353 11.3469 52.9446
-7.49037 11.6161 52.9446
-17 -2.195 -55.0774
-17 -2.195 -55.0774
-21.4973 3.51295 -55.0774
-23.9731 6.65517 52.9446
-17 -2.195 52.9446
-17 -2.195 52.9446
-17 -2.195 36.3279
-4.72555 19.8607 -55.0774
-29.1395 -3.93602 -55.0774
-17 -2.195 -55.0774
-3.22505 1.64231 -55.0774
-1.40392 16.586 -55.0774
-4.08819 21.0059 -55.0774
-5.88854 20.5086 -55.0774
-10.0867 19.349 -55.0774
-11.7905 18.8784 -55.0774
-18.9792 16.8927 -55.0774
-20.6178 -8.69575 -55.0774
-29.1395 -3.93602 -56.8335
-18.9792 16.8927 -59.0541
-18.9792 16.8927 -64.3352
-21.4078 11.914 -64.3352
-29.1395 -3.93602 -64.3352
-29.1395 -3.93602 36.3279
-29.1395 -3.93602 52.9446
-23.2374 8.1633 52.9446
-21.4078 11.914 52.9446
-21.1053 12.5342 52.9446
-19.1 16.645 52.9446
-19.1 16.645 36.3279
-19.1 16.645 -52.0509
-28.526 14.2557 -64.3352
-0.753009 21.9272 -63.4577
-0.753009 21.9272 -64.3352
-4.08819 21.0059 -64.3352
-25.0508 15.2156 -64.3352
-26.5293 14.8072 -64.3352
-28.526 14.2557 -55.0774
-26.5293 14.8072 -55.0774
-25.0508 15.2156 -55.0774
-18.9792 16.8927 -52.0509
-18.9792 16.8927 52.9446
-11.7905 18.8784 52.9446
-11.7905 18.8784 -52.0509
-11.118 -14.0018 -64.3352
-36.3651 0.0997707 -64.3352
-36.3651 0.0997707 -55.0774
-34.0082 -1.21665 -64.3352
-27.1796 -5.03074 -64.3352
-20.6178 -8.69575 -64.3352
-11.118 -14.0018 -55.0774
-11.1345 -13.9926 -55.0774
-20.6178 -8.69575 36.3279
-21.4172 -8.24929 36.3279
-27.1796 -5.03074 36.3279
-32.4661 -2.07798 36.3279
-33.2113 -1.66177 36.3279
-34.0082 -1.21665 -55.0774
-1.40392 16.586 52.9446
16.4031 7.11014 -52.0509
22.3472 3.94704 -52.0509
25.7293 2.14727 -52.0509
44.2882 -7.72871 -64.3352
16.4031 7.11014 -64.3352
-1.40392 16.586 -64.3352
-1.40392 16.586 -61.2511
-1.40392 16.586 -52.0509
8.91152 11.0967 52.9446
9.40505 10.8341 52.9446
16.4031 7.11014 36.3279
-3.22505 1.64231 -64.3352
-3.44604 -0.171094 -64.3352
-4.41734 -8.14133 -64.3352
-4.41734 -8.14133 -55.0774
-0.494133 24.0514 -55.0774
-1.24141 17.9195 36.3279
-3.22505 1.64231 -52.0509
-1.24141 17.9195 52.9446
-1.26833 17.6986 52.9446
-1.33478 17.1533 52.9446
-1.96291 11.999 52.9446
-3.22505 1.64231 52.9446
-3.22505 1.64231 52.9446
8.26923 -15.2115 -55.0774
-25.79 -17.9895 -55.0774
-20.8599 -21.601 -55.0774
-26.1473 -18.6316 -55.0774
-16.6461 -23.9675 -55.0774
14.3197 -18.5834 -55.0774
17.8 -10.235 -52.0509
-37.6822 -7.95647 -64.3352
-5.49923 1.51109 64.3352
-25.5691 14.2647 -64.3352
-5.4054 1.03492 64.3352
-4.88834 1.17896 64.3352
-4.98745 1.65539 64.3352
-3.22505 1.64231 -64.3352
-12.0804 6.64483 -64.3352
-17 -2.195 -64.3352
2.27457 -1.46449 -52.0509
0.779781 21.4955 -52.0509
18.4228 7.67278 -52.0509
-15.7613 -1.38235 64.3352
-15.5991 -1.80476 64.3352
-15.1351 -1.6755 64.3352
-15.2916 -1.2499 64.3352
-7.09962 15.5947 -64.3352
8.26131 4.84208 -64.3352
13.3414 16.4107 -55.0774
-15.5991 -1.80476 36.3279
22.9755 8.94104 -64.3352
-0.235847 22.07 -64.3352
1.98362 22.6831 -55.0774
1.98362 22.6831 -64.3352
-16.0824 -0.546214 64.3352
-15.762 0.0295741 64.3352
-32.7785 -0.907215 36.3279
-32.7785 -0.907215 52.9446
-32.4661 -2.07798 52.9446
-32.8 -0.915 36.3279
-32.8 -0.915 52.9446
-28.4995 0.639791 52.9446
-5.21906 2.76875 64.3352
-5.81318 3.10437 64.3352
-17.6538 5.17542 59.95
-17.9995 4.44612 64.3352
-17.6538 5.17542 64.3352
-32.8 -0.915 -55.0774
-33.0509 -1.0057 -55.0774
-33.0509 -1.0057 36.3279
-38.3172 -10.8471 -55.0774
-38.3172 -10.8471 0.078575
-38.6206 -9.67798 -55.0774
-36.8007 -8.01313 0.078575
-36.8449 -7.72323 0.078575
19.1 5.675 36.3279
19.5 4.495 36.3279
19.9229 5.23709 0.352215
-13.6159 7.51222 64.3352
-13.0508 7.19298 64.3352
-11.521 7.65002 64.3352
-11.2188 8.19316 64.3352
-6.83096 8.2696 59.95
-6.83096 8.2696 64.3352
-6.3 7.965 64.3352
14.1308 13.9439 -52.0509
-8.70299 12.2867 59.95
-7.49037 11.6161 59.95
-7.00353 11.3469 59.95
-7.6797 12.577 52.9446
24.2616 8.21357 -52.0509
-14.893 -1.13752 64.3352
-14.1562 -1.40279 64.3352
-14.893 -1.13752 59.95
-14.1562 -1.40279 59.95
9.32873 11.1413 52.9446
-8.39715 8.58336 59.95
-6.7 7.605 59.95
-6.7 7.605 64.3352
-8.39715 8.58336 64.3352
-7.72692 8.7836 59.95
-7.72692 8.7836 64.3352
46.2472 -4.22206 -64.3352
14.7611 11.9742 -52.0509
-28.6448 6.62924 52.9446
-19.8012 9.13814 52.9446
-8.19499 9.05213 64.3352
-5.49923 1.51109 59.95
-5.4054 1.03492 59.95
-36.0266 -13.0833 36.3279
-36.8007 -8.01313 36.3279
-36.8007 -8.01313 -55.0774
13.1 -6.735 36.3279
12.1 -7.015 36.3279
16.4537 7.12426 36.3279
-4.88834 1.17896 36.3279
-19.2584 7.72468 59.95
-17.8978 9.67812 59.95
22.4292 -4.14608 -49.0288
22.4292 -4.14608 0.352215
19.9608 3.13567 0.352215
-13.0508 7.19298 59.95
-18.4364 5.58389 59.95
-5.81318 3.10437 59.95
-6.97642 9.00783 59.95
-11.521 7.65002 59.95
-6.54382 9.13708 59.95
-30.1 -24.205 -55.0774
-29.0908 -23.9206 -55.0774
-29.0908 -23.9206 0.078575
-30.1 -24.205 0.078575
-39.9 -13.805 0.078575
-36.9132 -12.5854 0.078575
-42.1 -17.515 -55.0774
-42.1 -17.515 0.078575
-42.3814 -16.5771 0.078575
-42.3814 -16.5771 -55.0774
-12.7 19.515 -55.0774
-12.7 19.515 -52.0509
3.2 15.445 36.3279
3.28299 15.2375 36.3279
3.28299 15.2375 52.9446
3.2 15.445 52.9446
-18.5 17.875 -55.0774
-18.5 17.875 -52.0509
21.8561 8.6292 -52.0509
12.7358 -7.37414 0.352215
-15.7248 -1.83975 -52.0509
-15.7248 -1.83975 36.3279
-15.7248 -1.83975 52.9446
-16.0824 -0.546214 59.95
22.3472 3.94704 0.352215
-15.7613 -1.38235 59.95
-4.98745 1.65539 59.95
-15.5991 -1.80476 59.95
22.9755 8.94104 -52.0509
28.1396 6.02011 -52.0509
-5.21906 2.76875 59.95
-4.88834 1.17896 59.95
-29.6956 5.26453 36.3279
-29.6 4.895 36.3279
-29.6 4.895 52.9446
-29.6956 5.26453 52.9446
2.27457 -1.46449 52.9446
3.40444 -1.13705 52.9446
-29.9465 6.23461 52.9446
-29.9465 6.23461 36.3279
15.9178 8.35937 36.3279
32.2341 -6.72958 -49.0288
-8.9852 12.2066 59.95
-7.28282 12.6895 52.9446
-36.8449 -7.72323 36.3279
-36.8449 -7.72323 -55.0774
-41.9346 -17.6072 -55.0774
-37.0003 -6.70554 -55.0774
-39.9 -13.805 -55.0774
-37.0003 -6.70554 36.3279
-41.9346 -17.6072 0.078575
25.0699 4.87276 -52.0509
-15.2916 -1.2499 59.95
19.2 -9.895 0.352215
-15.762 0.0295741 59.95
19.2 -9.895 -49.0288
17.8 -10.235 0.352215
-17 -2.195 36.3279
-3.22505 1.64231 36.3279
9.3035 11.1555 52.9446
-16.7012 6.10233 59.95
-16.7012 6.10233 64.3352
-17.4 4.485 64.3352
-17.4 4.485 59.95
-38.708 -11.5774 -55.0774
23.2726 4.26169 0.352215
-41.1481 -14.3146 -55.0774
-17.2992 5.92365 64.3352
-17.2992 5.92365 59.95
25.5208 3.00914 0.352215
25.7293 2.14727 0.352215
-17.8666 5.75413 59.95
-33.2113 -1.66177 -55.0774
-3.22505 1.64231 -52.0509
-17 -2.195 -52.0509
-17.0023 6.55025 64.3352
-17.5997 9.7627 59.95
-33.2113 -1.66177 -64.3352
-29.6 4.895 -64.3352
2.99413 -1.87098 -52.0509
-14.3094 -19.7549 -55.0774
37.5964 3.01585 -55.0774
-29.0908 -23.9206 -64.3352
-14.3094 -19.7549 -64.3352
-41.1481 -14.3146 0.078575
28.1187 -7.72903 -52.0509
25.8 1.855 -49.0288
-12.0804 6.64483 59.95
-17 -2.195 52.9446
-3.22505 1.64231 52.9446
46.2472 -4.22206 -52.0509
19.9229 5.23709 -52.0509
46.2472 -4.22206 -49.0288
-45.1715 -15.8027 -64.3352
-45.1715 -15.8027 -55.0774
-41.4 -8.99214 -55.0774
-41.4 -8.99214 -64.3352
-20.7173 11.5239 52.9446
-27.0428 -4.99265 52.9446
-36.4963 -7.62611 36.3279
-39.4338 -11.1698 -55.0774
-7.67289 14.5647 52.9446
7.17304 5.60387 52.9446
-7.09962 15.5947 52.9446
46.3011 -4.12559 -55.0774
46.3011 -4.12559 -64.3352
-31.5463 -28.3329 -64.3352
-21.9941 -33.6085 -64.3352
-21.9941 -33.6085 -55.0774
-31.5463 -28.3329 -55.0774
9.93839 10.5503 52.9446
6.46784 4.34247 52.9446
12.7358 -7.37414 -52.0509
-19.9246 -29.8778 -55.0774
-12.7 19.515 52.9446
-18.5 17.875 52.9446
34.539 -2.54073 -49.0288
39.2217 -5.0326 -49.0288
44.2882 -7.72871 -49.0288
-10.0867 19.349 -52.0509
-5.88854 20.5086 -52.0509
44.2882 -7.72871 -55.0774
-10.0867 19.349 52.9446
-6.99865 21.1271 -55.0774
-24.5307 16.1698 -55.0774
36.8698 -21.0078 -49.0288
-44.7995 -21.0131 -55.0774
-44.7995 -21.0131 -64.3352
-26.0773 14.5518 -64.3352
-1.96291 11.999 -64.3352
-15.6667 32.4305 -64.3352
-15.6667 32.4305 -55.0774
-1.94682 24.8537 -55.0774
-1.94682 24.8537 -64.3352
-0.494133 24.0514 -64.3352
-33.2113 -1.66177 -55.1385
-25.0395 13.9656 52.9446
-0.753009 21.9272 -52.0509
-8.02139 16.24 52.9446
32.5488 -28.7424 -64.3352
32.5488 -28.7424 -55.0774
-3.44604 -0.171094 -55.0774
12.387 14.9302 -52.0509
-20.2 -7.945 36.3279
-20.2 -7.945 52.9446
-21.4172 -8.24929 52.9446
47.2977 -2.34169 -64.3352
47.2977 -2.34169 -55.0774
-11.75 18.85 52.9446
-4.72555 19.8607 36.3279
-5.88854 20.5086 36.3279
-25.5691 14.2647 36.3279
-25.2827 14.7902 36.3279
-47.294 -19.6355 -64.3352
-10.0867 19.349 36.3279
-25.2827 14.7902 52.9446
-25.5691 14.2647 52.9446
-47.294 -19.6355 -55.0774
-24.7075 13.778 52.9446
-5.37263 18.6979 52.9446
25.9101 2.05104 -49.0288
-5.06259 19.255 52.9446
-4.72555 19.8607 52.9446
-15.1351 -1.6755 59.95
-5.88854 20.5086 52.9446
25.9101 2.05104 0.352215
10.5 11.335 -52.0509
10.4056 11.386 -52.0509
27.3399 -15.6242 -49.0288
-38.0287 -11.9589 0.078575
-42.7079 -17.1761 -64.3352
29.0906 7.71321 -55.0774
-38.708 -11.5774 0.078575
-4.08819 21.0059 -52.0509
-38.3172 -10.8471 36.3279
-19.9246 -29.8778 -64.3352
-4.72555 19.8607 -52.0509
-38.0287 -11.9589 36.3279
-26.1473 -18.6316 36.3279
13.1129 9.9221 36.3279
-0.235847 22.07 -52.0509
17.9979 1.8592 36.3279
-42.7079 -17.1761 -55.0774
16.3246 7.08827 36.3279
-37.6822 -7.95647 -55.0774
-27.8175 15.5349 -64.3352
-28.8171 13.7299 -64.3352
-28.8171 13.7299 -55.0774
-27.8175 15.5349 -55.0774
10.3658 11.3149 -52.0509
-27.1796 -5.03074 52.9446
10.3658 11.3149 36.3279
36.6124 1.22761 -52.0509
2.99413 -1.87098 36.3279
25.5624 9.66166 -64.3352
25.5624 9.66166 -55.0774
-4.85071 19.6358 52.9446
-17.8067 33.6123 -55.0774
-17.8067 33.6123 -64.3352
-29.4505 -24.5671 -55.0774
-29.4505 -24.5671 -64.3352
-34.0082 -1.21665 36.3279
36.6124 1.22761 -49.0288
2.30633 20.6321 -52.0509
-24.5307 16.1698 -64.3352
-27.4701 15.3386 -55.0774
-18.3737 27.4646 -55.0774
-27.4701 15.3386 -64.3352
-26.0773 14.5518 -55.0774
-25.2827 14.7902 -64.3352
-25.5691 14.2647 -52.0509
10.4056 11.386 36.3279
-25.2827 14.7902 -52.0509
4  259 183 77 76  255 0 0
5  259 258 232 478 268  255 0 0
4  259 76 75 258  255 0 0
6  260 76 77 147 184 210  255 56 0
5  260 211 206 73 75  255 56 0
3  260 210 211  255 56 0
5  259 268 196 182 183  255 0 0
3  258 133 232  255 0 0
4  172 422 238 140  255 113 0
5  254 477 535 150 148  255 170 0
5  254 183 182 197 558  255 170 0
5  252 210 184 426 209  255 226 0
4  252 445 442 519  255 226 0
4  252 209 207 445  255 226 0
6  254 148 427 147 77 183  255 170 0
6  252 519 549 431 211 210  255 226 0
5  258 75 73 233 133  255 0 0
3  260 75 76  255 56 0
4  171 423 369 81  255 113 0
5  171 163 168 406 423  255 113 0
4  172 81 369 422  255 113 0
5  172 140 490 74 81  255 0 0
7  171 81 74 212 213 179 163  255 56 0
6  533 394 143 333 292 294  255 226 0
3  254 558 477  255 170 0
5  66 559 500 388 67  226 255 0
4  66 64 561 559  226 255 0
6  555 480 481 174 175 472  169 255 0
4  169 174 522 525  255 113 0
5  555 472 359 365 473  169 255 0
3  169 175 174  255 0 0
4  169 525 469 175  255 113 0
4  201 473 365 178  169 255 0
4  201 178 65 64  255 170 0
5  175 176 177 359 472  169 255 0
4  175 469 468 176  255 113 0
3  533 396 394  255 226 0
4  127 137 251 128  113 255 0
5  127 136 135 489 250  56 255 0
4  127 128 50 136  0 255 0
4  438 407 337 158  255 113 0
4  438 243 119 407  255 113 0
3  438 244 243  255 113 0
7  138 139 140 238 261 428 461  113 255 0
8  138 137 127 250 245 235 490 139  56 255 0
4  138 461 251 137  113 255 0
3  531 358 355  255 226 0
5  548 350 247 249 462  255 226 0
7  548 458 475 531 355 395 349  255 226 0
3  548 349 350  255 226 0
4  437 406 168 167  255 113 0
3  437 167 166  255 113 0
4  395 355 356 399  0 255 56
4  143 394 296 46  0 255 113
4  395 399 352 349  0 255 170
4  143 46 295 333  0 255 170
5  66 67 149 536 557  255 170 0
5  533 444 208 219 396  255 226 0
4  549 455 456 524  255 226 0
4  549 524 432 431  255 226 0
4  548 462 457 458  255 226 0
4  544 91 92 270  0 255 226
4  481 236 82 174  169 255 0
4  248 350 351 39  0 255 170
6  248 246 213 212 429 247  255 226 0
4  413 292 293 521  0 255 170
4  413 397 415 449  255 226 0
4  248 39 41 246  0 255 170
4  413 521 353 397  0 255 170
4  510 241 220 508  255 113 0
10  438 159 2 9 160 392 450 452 242 244  255 113 0
4  527 39 40 331  0 226 255
4  507 188 187 326  226 255 0
9  437 166 165 187 327 155 8 6 156  255 113 0
4  482 196 195 483  169 255 0
5  543 272 324 454 495  0 255 226
4  543 275 273 272  0 255 226
5  543 544 270 274 275  0 255 226
4  481 482 483 236  169 255 0
5  544 520 89 90 91  0 255 226
6  544 543 495 496 430 520  0 255 226
4  176 468 205 177  255 113 0
4  64 65 192 561  226 255 0
5  125 509 514 419 223  113 255 0
6  440 299 52 54 221 26  113 255 0
4  461 368 405 251  113 255 0
4  125 131 435 509  113 255 0
4  440 222 373 299  113 255 0
3  128 251 129  113 255 0
4  406 437 371 370  255 113 0
4  144 46 296 393  0 255 113
4  144 332 295 46  0 226 255
5  527 214 42 41 39  0 226 255
8  527 331 332 144 448 216 215 214  0 226 255
4  521 518 354 353  0 255 170
7  39 351 352 399 353 354 40  0 255 170
4  508 220 242 452  255 113 0
6  555 473 554 537 546 480  169 255 0
4  201 64 557 200  255 170 0
3  64 66 557  255 170 0
5  368 461 428 59 60  113 255 0
5  514 509 435 340 341  113 255 0
5  514 341 342 373 419  113 255 0
8  368 61 62 63 342 341 402 405  113 255 0
5  299 373 342 63 53  113 255 0
5  422 407 119 57 238  255 113 0
5  221 54 231 336 25  0 170 255
6  407 422 369 370 271 337  255 113 0
4  231 54 52 297  0 113 255
5  231 297 298 530 532  0 113 255
8  533 294 449 415 358 531 443 444  255 226 0
4  531 475 506 443  255 226 0
3  73 234 233  255 0 0
4  74 235 234 73  255 0 0
5  462 249 429 432 524  255 226 0
4  73 206 212 74  255 56 0
4  519 476 455 549  255 226 0
4  135 136 50 51  0 255 0
4  135 51 48 470  0 255 0
4  86 470 48 100  0 56 255
4  505 500 501 504  226 255 0
4  505 387 388 500  226 255 0
4  505 485 384 387  226 255 0
5  507 326 383 384 485  226 255 0
4  511 498 237 239  255 113 0
4  513 499 498 511  255 113 0
4  504 501 191 190  226 255 0
4  471 503 499 513  255 113 0
9  513 511 545 510 508 452 487 497 471  255 113 0
7  507 485 505 504 190 189 188  226 255 0
6  134 126 132 233 234 488  56 255 0
4  134 224 124 126  0 255 0
5  496 453 87 88 430  0 255 226
4  496 495 454 453  0 255 226
4  86 87 324 99  0 255 226
4  135 470 224 134  0 255 0
3  132 133 233  56 255 0
8  132 126 124 18 225 269 232 133  113 255 0
3  139 490 140  56 255 0
3  74 490 235  255 0 0
6  488 234 235 245 250 489  56 255 0
4  489 135 134 488  56 255 0
6  479 553 197 182 196 482  169 255 0
5  479 547 534 556 553  169 255 0
4  480 546 547 479  169 255 0
4  482 481 480 479  169 255 0
4  477 198 193 535  255 170 0
4  557 536 199 200  255 170 0
4  500 559 561 501  226 255 0
5  144 393 398 550 142  0 255 113
4  558 197 198 477  255 170 0
4  556 198 197 553  169 255 0
4  556 534 193 198  169 255 0
4  554 200 199 537  169 255 0
4  473 201 200 554  169 255 0
4  476 519 442 502  255 226 0
4  476 475 458 455  255 226 0
4  51 474 467 48  0 0 255
4  51 50 517 474  0 0 255
4  100 48 467 95  0 56 255
5  128 129 434 49 50  0 255 0
4  125 103 96 47  0 56 255
5  141 290 291 142 45  56 0 255
4  550 398 396 219  0 255 113
5  219 67 68 290 141  56 0 255
5  550 219 141 45 142  0 255 113
4  547 546 537 534  169 255 0
4  460 244 242 451  113 0 255
4  542 335 60 59  0 113 255
3  542 120 121  0 113 255
7  122 532 530 334 335 542 121  0 113 255
5  460 386 385 243 244  113 0 255
4  122 121 386 460  113 0 255
4  511 239 240 545  255 113 0
4  510 545 240 241  255 113 0
4  535 536 149 150  255 170 0
4  444 445 207 208  255 226 0
5  448 218 217 185 216  0 226 255
6  539 447 166 167 493 494  169 0 255
4  218 281 278 217  226 0 255
4  539 186 146 447  169 0 255
4  539 216 185 186  169 0 255
4  25 336 24 16  0 170 255
5  110 528 560 516 515  0 56 255
4  110 109 389 528  0 56 255
4  108 25 16 109  0 56 255
6  528 389 24 23 540 560  0 56 255
4  67 219 208 149  56 0 255
4  67 388 381 68  226 255 0
6  214 492 168 163 179 42  169 0 255
3  214 215 492  169 0 255
4  216 539 494 215  169 0 255
4  23 22 21 540  0 56 255
5  516 538 15 20 35  0 56 255
4  560 540 538 516  0 56 255
4  459 230 116 117  113 0 255
7  459 451 242 220 32 229 230  113 0 255
4  95 467 466 101  0 56 255
5  474 517 390 466 467  0 0 255
4  129 130 131 434  0 255 0
4  404 340 130 129  113 255 0
4  101 466 465 102  0 56 255
4  188 446 327 187  255 113 0
8  190 497 487 450 151 153 446 189  255 113 0
3  188 189 446  255 113 0
5  471 204 205 468 503  255 113 0
4  469 499 503 468  255 113 0
4  464 463 204 203  169 255 0
4  366 360 463 464  169 255 0
4  464 203 202 366  169 255 0
4  360 366 365 359  169 255 0
4  205 204 463 360  169 255 0
4  462 524 456 457  255 226 0
4  21 34 20 15  0 170 255
4  21 22 317 408  0 170 255
4  540 21 15 538  0 56 255
6  274 270 92 93 94 83  0 255 226
4  274 236 483 275  0 255 226
4  274 83 82 236  0 255 226
4  174 82 486 522  255 113 0
4  525 498 499 469  255 113 0
4  525 114 237 498  255 113 0
7  108 109 325 307 377 367 263  255 0 226
4  110 111 325 109  255 0 226
4  525 522 486 114  255 113 0
4  520 430 88 89  0 255 226
4  100 95 441 439  255 0 226
4  86 100 439 87  255 0 226
4  103 378 541 96  255 0 226
5  49 434 131 125 47  0 255 0
4  517 50 49 390  0 0 255
5  95 101 102 551 441  255 0 226
5  231 532 122 123 117  0 113 255
6  460 451 459 117 123 122  113 0 255
4  458 457 456 455  255 226 0
5  103 104 400 312 378  255 0 226
6  106 367 377 312 400 105  255 0 226
4  454 324 87 453  0 255 226
3  436 343 347  255 0 169
5  436 347 318 319 345  255 0 169
3  452 450 487  255 113 0
5  450 392 311 152 151  255 113 0
4  379 3 2 159  255 0 169
4  449 294 292 413  255 226 0
4  218 448 144 142  0 226 255
4  142 291 281 218  56 0 255
4  34 21 408 33  0 170 255
4  34 362 35 20  255 0 113
4  69 289 290 68  56 0 255
4  382 281 289 69  226 0 255
4  381 382 69 68  226 255 0
6  383 326 187 165 146 283  226 255 0
4  383 282 281 382  226 0 255
4  447 146 165 166  169 0 255
4  383 283 279 282  226 0 255
5  436 403 412 409 343  255 0 169
4  446 153 154 327  255 113 0
4  372 156 6 7  255 0 169
4  445 444 443 442  255 226 0
4  439 441 551 541  255 0 226
5  399 356 357 433 353  0 255 56
4  103 125 223 104  0 56 255
4  440 106 105 222  0 56 255
4  87 439 541 88  255 0 226
4  378 89 88 541  255 0 226
3  159 438 158  255 113 0
4  437 156 157 371  255 113 0
6  436 345 329 315 401 403  255 0 169
4  131 130 340 435  113 255 0
4  433 357 358 415  0 255 56
4  397 353 433 415  0 255 56
4  429 212 206 432  255 226 0
3  429 249 247  255 226 0
4  432 206 211 431  255 226 0
3  350 248 247  255 226 0
4  529 486 82 83  255 0 226
5  529 262 36 114 486  255 0 226
4  377 307 92 91  255 0 226
4  529 83 94 262  255 0 226
4  442 443 506 502  255 226 0
6  425 11 5 10 338 339  255 0 56
3  327 154 155  255 113 0
4  425 339 154 153  255 0 56
4  102 96 541 551  255 0 226
4  506 475 476 502  255 226 0
5  471 497 190 203 204  255 113 0
7  203 190 191 192 65 178 202  255 113 0
4  428 261 58 59  113 255 0
4  542 59 58 120  0 113 255
4  62 61 334 530  0 113 255
5  530 298 53 63 62  0 113 255
5  110 515 516 112 111  0 56 255
5  516 35 36 113 112  0 56 255
4  112 113 552 491  255 0 226
4  361 237 114 36  255 0 113
4  361 36 35 362  255 0 113
4  192 191 501 561  226 255 0
4  493 167 168 492  169 0 255
4  215 494 493 492  169 0 255
4  391 12 11 425  255 0 56
4  151 391 425 153  255 0 56
4  423 406 370 369  255 113 0
3  104 105 400  255 0 226
4  418 414 105 104  0 56 255
4  419 373 414 418  0 56 255
4  419 418 104 223  0 56 255
4  414 373 222 105  0 56 255
4  408 317 230 229  0 170 255
4  402 341 340 404  113 255 0
5  405 402 404 129 251  113 255 0
5  398 393 296 394 396  0 255 113
4  392 160 161 311  255 113 0
6  391 308 309 13 1 12  255 0 56
4  391 151 152 308  255 0 56
4  363 240 239 364  255 0 113
4  33 241 240 363  255 0 113
4  33 408 229 32  0 170 255
4  33 363 362 34  255 0 113
3  390 465 466  0 0 255
4  102 465 47 96  0 56 255
4  49 47 465 390  0 0 255
4  16 24 389 109  0 56 255
4  379 284 306 3  255 0 169
4  380 330 255 256  255 0 169
7  158 157 376 512 316 330 380  255 0 169
5  380 375 379 159 158  255 0 169
4  388 387 384 381  226 255 0
4  120 119 243 385  113 0 255
4  386 121 120 385  113 0 255
4  384 383 382 381  226 255 0
4  380 256 257 375  255 0 169
4  379 375 257 284  255 0 169
4  89 378 312 90  255 0 226
4  377 91 90 312  255 0 226
4  376 265 266 512  255 0 169
4  372 276 264 374  255 0 169
4  376 374 264 265  255 0 169
4  372 7 287 276  255 0 169
4  371 157 271 370  255 113 0
3  368 60 61  113 255 0
4  367 106 107 263  255 0 226
3  108 263 107  255 0 226
4  366 202 178 365  169 255 0
4  364 239 237 361  255 0 113
4  364 361 362 363  255 0 113
4  177 205 360 359  169 255 0
4  358 357 356 355  0 255 56
5  354 518 526 331 40  0 226 255
4  352 351 350 349  0 255 170
4  14 348 346 13  255 0 169
4  14 310 160 9  255 0 56
4  14 13 309 310  255 0 56
4  12 1 328 303  255 0 169
4  348 3 304 346  255 0 169
5  348 14 9 2 3  255 0 169
4  347 302 321 318  255 0 169
4  346 322 1 13  255 0 169
3  346 304 322  255 0 169
4  345 319 320 285  255 0 169
5  10 344 7 6 8  255 0 169
5  10 5 417 420 344  255 0 169
4  11 300 424 5  255 0 169
4  344 420 286 7  255 0 169
4  343 409 410 301  255 0 169
4  179 246 41 42  0 255 170
4  8 155 338 10  255 0 56
4  154 339 338 155  255 0 56
4  337 271 157 158  255 113 0
5  336 231 117 23 24  0 170 255
4  117 116 22 23  0 170 255
4  60 335 334 61  0 113 255
5  300 301 410 416 424  255 0 169
4  332 523 293 295  0 226 255
4  331 526 523 332  0 226 255
4  333 295 293 292  0 255 170
4  330 316 314 255  255 0 169
4  329 253 313 315  255 0 169
4  537 199 193 534  169 255 0
4  536 535 193 199  255 170 0
3  521 293 518  0 255 170
4  523 526 518 293  0 226 255
5  284 285 320 305 306  255 0 169
4  401 315 313 267  255 0 169
4  512 266 314 316  255 0 169
4  253 255 314 313  255 0 169
4  266 267 313 314  255 0 169
6  106 440 26 25 108 107  0 56 255
3  221 25 26  0 170 255
5  302 303 328 323 321  255 0 169
4  345 285 253 329  255 0 169
5  491 307 325 111 112  255 0 226
5  491 552 93 92 307  255 0 226
4  300 11 12 303  255 0 169
4  5 424 416 417  255 0 169
3  420 417 286  255 0 169
4  403 277 411 412  255 0 169
5  277 276 287 288 411  255 0 169
4  416 410 411 288  255 0 169
4  417 416 288 286  255 0 169
4  412 411 410 409  255 0 169
5  156 372 374 376 157  255 0 169
4  302 347 343 301  255 0 169
4  277 403 401 267  255 0 169
4  322 323 328 1  255 0 169
4  272 98 99 324  0 255 226
4  305 320 321 323  255 0 169
4  304 305 323 322  255 0 169
4  321 320 319 318  255 0 169
4  230 317 22 116  0 170 255
3  311 161 152  255 113 0
4  310 309 161 160  255 0 56
4  309 308 152 161  255 0 56
4  3 306 305 304  255 0 169
4  303 302 301 300  255 0 169
3  299 53 52  113 255 0
4  298 297 52 53  0 113 255
4  281 291 290 289  56 0 255
4  288 287 7 286  255 0 169
4  285 284 257 253  255 0 169
5  283 146 186 280 279  226 0 255
4  282 279 278 281  226 0 255
4  280 186 185 217  226 0 255
4  280 217 278 279  226 0 255
4  277 267 264 276  255 0 169
6  196 268 478 226 97 195  255 0 0
4  275 483 195 273  0 255 226
6  273 195 97 28 98 272  0 255 226
5  269 225 27 226 478  113 255 0
3  269 478 232  113 255 0
4  267 266 265 264  255 0 169
4  262 552 113 36  255 0 226
4  94 93 552 262  255 0 226
4  261 238 57 58  113 255 0
4  120 58 57 119  0 113 255
4  257 256 255 253  255 0 169
3  179 213 246  255 226 0
4  241 33 32 220  255 0 113
3  236 483 82  169 255 0
3  483 236 82  0 255 226
3  486 82 114  255 113 0
3  82 486 114  255 0 226
9  237 114 228 56 118 220 241 240 239  255 113 0
9  114 237 239 240 241 220 118 56 228  255 0 113
6  242 220 118 119 243 244  255 113 0
6  220 242 244 243 119 118  113 0 255
4  238 57 56 228  255 113 0
4  119 57 56 118  0 113 255
4  140 238 228 173  255 113 0
4  238 140 173 228  113 255 0
6  490 140 133 233 234 235  255 0 0
6  140 490 235 234 233 133  56 255 0
6  232 133 140 227 226 478  255 0 0
6  133 232 478 226 227 140  113 255 0
4  195 97 115 194  255 0 0
3  483 195 194  169 255 0
3  195 483 194  0 255 226
3  82 483 194  169 255 0
3  483 82 194  0 255 226
3  140 227 173  113 255 0
3  114 82 84  255 113 0
3  82 114 84  255 0 226
4  114 228 173 84  255 0 113
4  238 228 56 57  113 255 0
4  225 17 19 27  0 170 255
4  470 86 99 224  0 56 255
4  228 114 84 173  255 113 0
4  227 115 84 173  255 0 113
3  227 140 173  255 0 0
4  227 115 97 226  255 0 0
4  226 97 115 227  255 0 113
6  224 99 98 17 18 124  0 56 255
3  225 18 17  0 170 255
5  226 27 19 28 97  255 0 113
4  227 173 84 115  255 0 0
4  470 224 47 48  0 56 255
4  224 470 48 47  0 255 0
5  467 48 47 465 466  0 56 255
5  48 467 466 465 47  0 0 255
4  125 47 224 124  0 56 255
4  47 125 124 224  0 255 0
7  223 125 124 18 26 440 222  0 56 255
7  125 223 222 440 26 18 124  113 255 0
4  419 223 222 373  0 56 255
4  223 419 373 222  113 255 0
7  221 26 18 225 27 29 55  0 170 255
3  54 221 55  0 170 255
3  221 54 55  113 255 0
5  231 54 55 116 117  0 170 255
5  54 231 117 116 55  0 113 255
5  230 116 31 32 229  0 170 255
5  116 230 229 32 31  113 0 255
3  220 32 31  255 0 113
7  228 56 29 27 226 227 173  255 0 113
4  220 118 30 31  113 0 255
7  228 173 227 226 27 29 56  113 255 0
7  225 18 26 221 55 29 27  113 255 0
4  116 55 29 30  0 170 255
4  220 31 30 118  255 0 113
3  116 31 30  113 0 255
3  220 31 32  113 0 255
4  209 148 150 207  56 0 255
4  207 150 149 208  56 0 255
4  209 426 427 148  56 0 255
7  219 208 207 209 426 484 141  255 226 0
7  208 219 141 484 426 209 207  56 0 255
4  142 45 44 218  0 226 255
4  141 45 44 421  56 0 255
4  142 218 44 45  56 0 255
5  217 218 44 43 185  0 226 255
5  218 217 185 43 44  226 0 255
6  216 185 43 42 214 215  0 226 255
6  216 215 214 42 43 185  169 0 255
4  179 42 43 170  0 255 170
4  42 179 170 43  169 0 255
6  213 179 170 180 206 212  255 226 0
6  179 213 212 206 180 170  255 56 0
5  211 206 180 184 210  255 226 0
5  206 211 210 184 180  255 56 0
4  141 421 44 45  0 255 170
3  141 421 484  56 0 255
3  141 484 421  255 226 0
4  194 115 84 82  255 0 0
4  194 115 97 195  0 255 226
4  194 82 84 115  0 255 226
10  174 82 194 195 196 182 181 177 176 175  169 255 0
10  82 174 175 176 177 181 182 196 195 194  255 0 0
6  205 177 178 202 203 204  169 255 0
6  177 205 204 203 202 178  255 113 0
6  201 178 181 193 199 200  169 255 0
6  178 201 200 199 193 181  255 170 0
5  198 193 181 182 197  169 255 0
5  193 198 197 182 181  255 170 0
3  178 177 181  169 255 0
3  177 178 181  255 0 0
4  170 421 44 43  226 0 255
4  170 421 484 180  255 226 0
4  180 484 421 170  226 0 255
4  180 484 426 184  255 226 0
4  184 426 484 180  226 0 255
4  184 147 427 426  226 0 255
4  170 43 44 421  0 255 170
7  65 178 181 182 183 77 78  255 170 0
7  178 65 78 77 183 182 181  255 0 0
9  192 65 72 165 187 188 189 190 191  226 255 0
9  65 192 191 190 189 188 187 165 72  255 113 0
5  146 165 72 71 70  226 255 0
6  186 146 70 170 43 185  226 0 255
6  146 186 185 43 170 70  169 0 255
4  180 170 70 145  226 0 255
4  170 180 145 70  255 56 0
4  184 180 145 147  226 0 255
4  180 184 147 145  255 56 0
4  65 78 71 72  255 170 0
4  65 72 71 78  255 0 0
8  173 84 82 169 164 80 81 172  255 113 0
8  82 84 173 172 81 80 164 169  255 0 0
3  140 173 172  255 113 0
3  173 140 172  255 0 0
4  171 81 80 162  255 113 0
4  81 171 162 80  255 56 0
4  179 163 162 170  169 0 255
3  171 163 162  255 56 0
4  179 170 162 163  255 56 0
8  65 72 164 169 175 176 177 178  255 113 0
4  170 70 71 79  255 56 0
8  65 178 177 176 175 169 164 72  255 0 0
3  174 169 82  255 113 0
3  169 174 82  255 0 0
4  170 162 80 79  169 0 255
3  171 162 163  255 113 0
4  170 79 71 70  169 0 255
4  170 79 80 162  255 56 0
5  165 146 70 71 72  169 0 255
4  72 71 79 164  169 0 255
3  164 79 80  169 0 255
4  164 79 71 72  255 0 0
3  164 80 79  255 0 0
9  168 163 162 80 164 72 165 166 167  255 113 0
9  163 168 167 166 165 72 164 80 162  169 0 255
11  161 152 151 153 154 155 8 4 0 9 160  255 0 56
11  152 161 160 9 0 4 8 155 154 153 151  255 113 0
8  159 2 0 4 6 156 157 158  255 0 169
3  9 2 0  255 113 0
8  159 158 157 156 6 4 0 2  255 113 0
3  8 6 4  255 0 169
4  70 71 78 145  255 170 0
4  145 78 77 147  255 170 0
4  145 78 71 70  255 56 0
4  147 77 78 145  255 56 0
7  67 149 150 148 427 69 68  56 0 255
7  149 67 68 69 427 148 150  255 170 0
6  382 69 70 146 283 383  226 0 255
6  69 382 383 283 146 70  226 255 0
3  145 70 69  226 0 255
3  70 145 69  255 170 0
4  147 145 69 427  226 0 255
4  145 147 427 69  255 170 0
6  69 427 426 484 421 289  56 0 255
6  427 69 289 421 484 426  226 0 255
5  281 289 421 44 218  56 0 255
5  289 281 218 44 421  226 0 255
3  141 219 143  0 255 113
3  219 141 143  255 226 0
9  421 141 143 349 350 248 246 179 170  0 255 170
9  141 421 170 179 246 248 350 349 143  255 226 0
7  395 349 143 333 292 413 397  0 255 170
7  349 395 397 413 292 333 143  255 226 0
5  355 395 397 415 358  0 255 56
5  395 355 358 415 397  255 226 0
4  394 143 219 396  0 255 113
4  143 394 396 219  255 226 0
4  353 397 395 399  0 255 56
4  397 353 399 395  0 255 170
4  144 142 45 46  0 255 113
4  142 144 46 45  0 226 255
4  143 46 45 141  0 255 113
4  46 143 141 45  0 255 170
8  140 133 132 126 127 137 138 139  56 255 0
8  133 140 139 138 137 127 126 132  113 255 0
5  136 127 126 134 135  56 255 0
5  127 136 135 134 126  0 255 0
8  131 125 124 126 127 128 129 130  113 255 0
8  125 131 130 129 128 127 126 124  0 255 0
4  118 56 29 30  0 113 255
4  118 56 57 119  255 113 0
4  116 30 29 55  0 113 255
3  116 30 31  0 170 255
4  118 30 29 56  255 0 113
9  123 117 116 30 118 119 120 121 122  113 0 255
9  117 123 122 121 120 119 118 30 116  0 113 255
4  98 28 19 17  0 56 255
5  115 97 38 37 84  255 0 113
5  97 115 84 37 38  0 255 226
4  114 84 37 36  255 0 113
4  84 114 36 37  255 0 226
15  113 36 37 85 96 103 104 105 106 107 108 109 110 111 112  0 56 255
15  36 113 112 111 110 109 108 107 106 105 104 103 96 85 37  255 0 226
4  102 96 95 101  0 56 255
4  96 102 101 95  255 0 226
5  100 95 96 85 86  0 56 255
5  95 100 86 85 96  255 0 226
6  99 86 85 38 28 98  0 56 255
6  86 99 98 28 38 85  0 255 226
3  97 28 38  255 0 113
3  97 38 28  0 255 226
3  85 38 37  0 255 226
3  85 37 38  0 56 255
14  94 83 82 84 37 85 86 87 88 89 90 91 92 93  255 0 226
14  83 94 93 92 91 90 89 88 87 86 85 37 84 82  0 255 226
10  81 74 73 75 76 77 78 71 79 80  255 0 0
10  74 81 80 79 71 78 77 76 75 73  255 56 0
9  72 65 64 66 67 68 69 70 71  226 255 0
9  65 72 71 70 69 68 67 66 64  255 170 0
13  63 53 52 54 55 29 56 57 58 59 60 61 62  0 113 255
13  53 63 62 61 60 59 58 57 56 29 55 54 52  113 255 0
5  51 48 47 49 50  0 0 255
5  48 51 50 49 47  0 255 0
12  44 45 46 295 293 518 354 40 39 41 42 43  0 226 255
12  45 44 43 42 41 39 40 354 518 293 295 46  0 255 170
7  38 28 19 20 35 36 37  255 0 113
7  28 38 37 36 35 20 19  0 56 255
8  34 20 27 29 30 31 32 33  255 0 113
8  20 34 33 32 31 30 29 27  0 170 255
3  27 19 20  0 170 255
3  27 20 19  255 0 113
8  26 18 17 19 20 15 16 25  0 56 255
8  18 26 25 16 15 20 19 17  0 170 255
6  24 16 15 21 22 23  0 56 255
6  16 24 23 22 21 15  0 170 255
3  9 0 2  255 0 169
3  8 4 6  255 113 0
5  14 9 0 1 13  255 0 56
5  9 14 13 1 0  255 0 169
6  12 1 0 4 5 11  255 0 56
6  1 12 11 5 4 0  255 0 169
4  10 5 4 8  255 0 56
4  5 10 8 4  255 0 169

