OFF
570 730 0

-15.2916 -1.2499 59.95
-15.7613 -1.38235 59.95
-5.49923 1.51109 59.95
-5.4054 1.03492 59.95
-6.7 7.605 59.95
-6.83096 8.2696 59.95
-8.39715 8.58336 59.95
-8.19499 9.05213 59.95
-11.2188 8.19316 59.95
-13.6159 7.51222 59.95
-16.4384 6.71042 59.95
-16.7012 6.10233 59.95
-13.0508 7.19298 59.95
-11.521 7.65002 59.95
-5.81318 3.10437 59.95
-14.893 -1.13752 59.95
-15.762 0.0295741 59.95
-17.4 4.485 59.95
-17.7253 3.73215 59.95
-16.0824 -0.546214 59.95
-15.5991 -1.80476 59.95
-15.1351 -1.6755 59.95
-14.1562 -1.40279 59.95
-4.88834 1.17896 59.95
-4.98745 1.65539 59.95
-5.21906 2.76875 59.95
-6.3 7.965 59.95
-7.72692 8.7836 59.95
-16.4384 6.71042 52.9446
-17.7253 3.73215 64.3352
-17.7253 3.73215 52.9446
-16.4384 6.71042 64.3352
-16.7012 6.10233 64.3352
-17.4 4.485 64.3352
36.6124 1.22761 -52.0509
46.2472 -4.22206 -52.0509
34.7602 -2.13856 -52.0509
44.4082 -7.51386 -52.0509
-23.9731 6.65517 36.3279
-17 -2.195 36.3279
-27.9479 -1.49317 36.3279
-29.1395 -3.93602 36.3279
-27.1796 -5.03074 36.3279
-21.4172 -8.24929 36.3279
-20.2 -7.945 36.3279
34.539 -2.54073 -52.0509
44.2882 -7.72871 -52.0509
25.5208 3.00914 -52.0509
25.7293 2.14727 -52.0509
23.2726 4.26169 -52.0509
22.3472 3.94704 -52.0509
10.3658 11.3149 -52.0509
16.2821 7.22106 -52.0509
15.9178 8.35937 -52.0509
13.1129 9.9221 -52.0509
10.5 11.335 -52.0509
10.4056 11.386 -52.0509
9.3035 11.1555 -52.0509
-8.19499 9.05213 52.9446
3.28299 15.2375 -52.0509
3.2 15.445 -55.0774
3.2 15.445 -52.0509
3.2 15.445 -62.8198
3.2 15.445 -64.3352
3.86515 13.7821 36.3279
3.86515 13.7821 0.352215
3.86515 13.7821 -64.3352
3.86515 13.7821 44.8445
3.86515 13.7821 52.9446
3.63816 14.3496 52.9446
-36.6106 -7.65796 0.078575
-33.3581 -1.57979 0.078575
-36.8007 -8.01313 0.078575
-38.3172 -10.8471 0.078575
-38.0287 -11.9589 0.078575
-36.9132 -12.5854 0.078575
-36.0266 -13.0833 0.078575
-26.1473 -18.6316 0.078575
-25.79 -17.9895 0.078575
2.27457 -1.46449 0.352215
-25.2827 14.7902 -55.0774
-19.1 16.645 -55.0774
-25.5691 14.2647 -55.0774
-1.24141 17.9195 -55.0774
44.4082 -7.51386 -55.0774
25.8905 2.80313 -55.0774
46.2472 -4.22206 -55.0774
36.6124 1.22761 -55.0774
28.1396 6.02011 -55.0774
24.2616 8.21357 -55.0774
22.9755 8.94104 -55.0774
14.1308 13.9439 -55.0774
2.30633 20.6321 -55.0774
0.779781 21.4955 -55.0774
-0.235847 22.07 -55.0774
44.4082 -7.51386 -49.0288
-1.24141 17.9195 -64.3352
17.5744 7.43643 -64.3352
44.4082 -7.51386 -64.3352
39.7321 -4.90862 -49.0288
-1.40392 16.586 36.3279
2.27457 -1.46449 36.3279
36.8698 -21.0078 -64.3352
27.3399 -15.6242 -55.0774
36.8698 -21.0078 -55.0774
18.7178 -10.7535 -55.0774
-34.0082 -1.21665 -55.0774
-36.6106 -7.65796 -55.0774
-37.0003 -6.70554 -55.0774
-36.8449 -7.72323 -55.0774
-20.6178 -8.69575 -55.0774
-33.2113 -1.66177 -55.0774
-29.1395 -3.93602 -55.0774
-33.3581 -1.57979 -55.0774
-32.8 -0.915 -55.0774
-33.2113 -1.66177 -64.3352
-29.6 4.895 -64.3352
-33.2113 -1.66177 -55.1385
-33.2113 -1.66177 36.3279
-32.8 -0.915 36.3279
-29.6 4.895 -55.0774
-27.9479 -1.49317 -56.625
-30.9083 9.95369 -64.3352
-30.9083 9.95369 -55.0774
-29.9465 6.23461 -64.3352
-27.9479 -1.49317 -64.3352
-27.9479 -1.49317 -55.0774
-27.9479 -1.49317 52.9446
-28.4995 0.639791 52.9446
-29.6 4.895 52.9446
-29.6 4.895 36.3279
-29.6956 5.26453 -55.0774
-29.9465 6.23461 -55.0774
-8.9852 12.2066 52.9446
-8.70299 12.2867 52.9446
-17.5997 9.7627 52.9446
-17.8978 9.67812 52.9446
-19.2584 7.72468 52.9446
-18.6299 6.08788 52.9446
-16.0824 -0.546214 52.9446
-15.5991 -1.80476 52.9446
-4.88834 1.17896 52.9446
-5.21906 2.76875 52.9446
-6.61926 9.49974 52.9446
-7.00353 11.3469 52.9446
-7.49037 11.6161 52.9446
-17 -2.195 -55.0774
-17 -2.195 -55.0774
-21.4973 3.51295 -55.0774
-23.9731 6.65517 -55.0774
-23.9731 6.65517 52.9446
-17 -2.195 52.9446
-17 -2.195 52.9446
-4.72555 19.8607 -55.0774
-17 -2.195 -55.0774
-3.22505 1.64231 -55.0774
-1.40392 16.586 -55.0774
-0.753009 21.9272 -55.0774
-4.08819 21.0059 -55.0774
-5.88854 20.5086 -55.0774
-10.0867 19.349 -55.0774
-11.7905 18.8784 -55.0774
-18.9792 16.8927 -55.0774
-15.7248 -1.83975 -55.0774
-3.22505 1.64231 -55.0774
-29.1395 -3.93602 -56.8335
-18.9792 16.8927 -59.0541
-18.9792 16.8927 -64.3352
-21.4078 11.914 -64.3352
-29.1395 -3.93602 -64.3352
-29.1395 -3.93602 52.9446
-23.2374 8.1633 52.9446
-21.4078 11.914 52.9446
-21.1053 12.5342 52.9446
-19.1 16.645 52.9446
-19.1 16.645 36.3279
-19.1 16.645 -52.0509
-28.526 14.2557 -64.3352
-0.753009 21.9272 -63.4577
-0.753009 21.9272 -64.3352
-4.08819 21.0059 -64.3352
-25.0508 15.2156 -64.3352
-26.5293 14.8072 -64.3352
-28.526 14.2557 -55.0774
-26.5293 14.8072 -55.0774
-25.0508 15.2156 -55.0774
-18.9792 16.8927 -52.0509
-18.9792 16.8927 52.9446
-11.7905 18.8784 52.9446
-11.7905 18.8784 -52.0509
-11.118 -14.0018 -64.3352
-36.3651 0.0997707 -64.3352
-36.3651 0.0997707 -55.0774
-34.0082 -1.21665 -64.3352
-27.1796 -5.03074 -64.3352
-20.6178 -8.69575 -64.3352
-11.118 -14.0018 -55.0774
-11.1345 -13.9926 -55.0774
-20.6178 -8.69575 0.078575
-20.6178 -8.69575 36.3279
-32.4661 -2.07798 36.3279
-33.3581 -1.57979 36.3279
-1.40392 16.586 52.9446
9.40505 10.8341 36.3279
16.4031 7.11014 -52.0509
44.2882 -7.72871 -64.3352
16.4031 7.11014 -64.3352
-1.40392 16.586 -64.3352
-1.40392 16.586 -61.2511
-1.40392 16.586 -52.0509
8.91152 11.0967 52.9446
9.40505 10.8341 52.9446
9.93839 10.5503 36.3279
16.4031 7.11014 36.3279
16.4031 7.11014 0.352215
19.9229 5.23709 -52.0509
22.3472 3.94704 0.352215
25.7293 2.14727 0.352215
25.9101 2.05104 -52.0509
34.539 -2.54073 -49.0288
39.2217 -5.0326 -49.0288
44.2882 -7.72871 -49.0288
44.2882 -7.72871 -55.0774
-3.22505 1.64231 -52.0509
-1.24141 17.9195 -52.0509
-0.494133 24.0514 -64.3352
-1.96291 11.999 -64.3352
-3.22505 1.64231 -64.3352
-3.22505 1.64231 -64.3352
-3.44604 -0.171094 -64.3352
-4.41734 -8.14133 -64.3352
-4.41734 -8.14133 -55.0774
-3.44604 -0.171094 -55.0774
-3.22505 1.64231 36.3279
-3.22505 1.64231 52.9446
-3.22505 1.64231 52.9446
-1.96291 11.999 52.9446
-1.33478 17.1533 52.9446
-1.26833 17.6986 52.9446
-1.24141 17.9195 52.9446
-1.24141 17.9195 36.3279
-0.753009 21.9272 -52.0509
-0.494133 24.0514 -55.0774
8.26923 -15.2115 -55.0774
-25.79 -17.9895 -55.0774
-20.8599 -21.601 -55.0774
-26.1473 -18.6316 -55.0774
-16.6461 -23.9675 -55.0774
14.3197 -18.5834 -55.0774
17.8 -10.235 -52.0509
17.8 -10.235 -55.0774
-15.7613 -1.38235 64.3352
-32.7785 -0.907215 36.3279
-32.7785 -0.907215 52.9446
-32.4661 -2.07798 52.9446
-32.8 -0.915 52.9446
-5.49923 1.51109 64.3352
-4.98745 1.65539 64.3352
-5.21906 2.76875 64.3352
-5.81318 3.10437 64.3352
-17.6538 5.17542 59.95
-17.9995 4.44612 59.95
-17.9995 4.44612 64.3352
-17.6538 5.17542 64.3352
-33.0509 -1.0057 -55.0774
-33.0509 -1.0057 36.3279
-38.3172 -10.8471 -55.0774
-7.00353 11.3469 59.95
46.2472 -4.22206 -64.3352
22.9755 8.94104 -64.3352
-17.8666 5.75413 59.95
-17.2992 5.92365 59.95
-17.2992 5.92365 64.3352
-17.0023 6.55025 64.3352
-17.0023 6.55025 59.95
-13.6159 7.51222 64.3352
12.387 14.9302 -52.0509
10.4246 11.4199 -52.0509
-11.2188 8.19316 64.3352
-11.521 7.65002 64.3352
17.5744 7.43643 -52.0509
16.4537 7.12426 -52.0509
20.3083 5.91325 -52.0509
-15.2916 -1.2499 64.3352
-15.1351 -1.6755 64.3352
-5.4054 1.03492 64.3352
-38.0287 -11.9589 36.3279
-38.3172 -10.8471 36.3279
-38.708 -11.5774 0.078575
-7.04928 9.37759 59.95
-6.97642 9.00783 59.95
9.3035 11.1555 52.9446
-27.8175 15.5349 -64.3352
-28.8171 13.7299 -64.3352
-28.8171 13.7299 -55.0774
-27.8175 15.5349 -55.0774
37.5964 3.01585 -55.0774
-36.0266 -13.0833 36.3279
-36.8007 -8.01313 36.3279
-36.8007 -8.01313 -55.0774
-6.61926 9.49974 59.95
-13.0508 7.19298 64.3352
13.1 -6.735 0.352215
13.1 -6.735 36.3279
12.1 -7.015 36.3279
12.1 -7.015 0.352215
10.0435 10.7383 36.3279
16.2821 7.22106 36.3279
16.4537 7.12426 36.3279
27.3399 -15.6242 -52.0509
-4.88834 1.17896 36.3279
-19.2584 7.72468 59.95
-17.8978 9.67812 59.95
-18.6299 6.08788 59.95
22.4292 -4.14608 -49.0288
22.4292 -4.14608 0.352215
19.9608 3.13567 0.352215
22.4292 -4.14608 -52.0509
-18.4364 5.58389 59.95
-6.54382 9.13708 59.95
-30.1 -24.205 -55.0774
-29.0908 -23.9206 -55.0774
-29.0908 -23.9206 0.078575
-30.1 -24.205 0.078575
-39.9 -13.805 0.078575
-42.1 -17.515 -55.0774
-42.1 -17.515 0.078575
-42.3814 -16.5771 0.078575
-42.3814 -16.5771 -55.0774
-12.7 19.515 -55.0774
-12.7 19.515 -52.0509
3.2 15.445 36.3279
3.28299 15.2375 36.3279
3.28299 15.2375 52.9446
3.2 15.445 52.9446
-18.5 17.875 -55.0774
-18.5 17.875 -52.0509
21.8561 8.6292 -52.0509
12.7358 -7.37414 0.352215
2.99413 -1.87098 0.352215
-15.7248 -1.83975 -52.0509
-15.7248 -1.83975 36.3279
-15.7248 -1.83975 52.9446
18.4284 2.61465 0.352215
22.9755 8.94104 -52.0509
28.1396 6.02011 -52.0509
-29.6956 5.26453 36.3279
-29.6956 5.26453 52.9446
3.40444 -1.13705 36.3279
2.27457 -1.46449 52.9446
3.40444 -1.13705 52.9446
-29.9465 6.23461 52.9446
-29.9465 6.23461 36.3279
15.9178 8.35937 36.3279
32.2341 -6.72958 -49.0288
32.2341 -6.72958 -52.0509
34.7602 -2.13856 -49.0288
3.63816 14.3496 36.3279
-8.9852 12.2066 59.95
-7.28282 12.6895 52.9446
-36.8449 -7.72323 36.3279
-37.0003 -6.70554 36.3279
19.2 -9.895 0.352215
19.2 -9.895 -49.0288
19.2 -9.895 -52.0509
17.8 -10.235 0.352215
-17 -2.195 36.3279
-3.22505 1.64231 36.3279
9.3035 11.1555 36.3279
23.2726 4.26169 0.352215
25.5208 3.00914 0.352215
-3.22505 1.64231 -52.0509
-17 -2.195 -52.0509
-8.02139 16.24 52.9446
16.3246 7.08827 36.3279
17.9979 1.8592 36.3279
36.6124 1.22761 -49.0288
-29.0908 -23.9206 -64.3352
-14.3094 -19.7549 -64.3352
-14.3094 -19.7549 -55.0774
-41.1481 -14.3146 -55.0774
-41.1481 -14.3146 0.078575
-39.9 -13.805 -55.0774
25.8 1.855 -52.0509
28.1187 -7.72903 -52.0509
25.8 1.855 -49.0288
-12.0804 6.64483 59.95
-17 -2.195 52.9446
-3.22505 1.64231 52.9446
26.2272 2.61556 -52.0509
-41.9346 -17.6072 0.078575
46.2472 -4.22206 -49.0288
-4.72555 19.8607 -52.0509
-45.1715 -15.8027 -64.3352
-45.1715 -15.8027 -55.0774
-41.4 -8.99214 -55.0774
-41.4 -8.99214 -64.3352
-6.3 7.965 52.9446
-20.7173 11.5239 52.9446
-27.0428 -4.99265 52.9446
-17.0023 6.55025 52.9446
-17.9995 4.44612 52.9446
3.63816 14.3496 -52.0509
-36.6106 -7.65796 36.3279
-36.4963 -7.62611 36.3279
-39.4338 -11.1698 -55.0774
-38.708 -11.5774 -55.0774
-7.67289 14.5647 52.9446
7.17304 5.60387 52.9446
-7.09962 15.5947 52.9446
46.3011 -4.12559 -55.0774
46.3011 -4.12559 -64.3352
16.4537 7.12426 -64.3352
17.7515 6.39257 -64.3352
3.63816 14.3496 -64.3352
-31.5463 -28.3329 -64.3352
-21.9941 -33.6085 -64.3352
-21.9941 -33.6085 -55.0774
-31.5463 -28.3329 -55.0774
9.32873 11.1413 36.3279
9.93839 10.5503 52.9446
6.46784 4.34247 36.3279
6.46784 4.34247 52.9446
17.7515 6.39257 -52.0509
27.3399 -15.6242 -49.0288
29.0906 7.71321 -55.0774
-4.08819 21.0059 -52.0509
1.98362 22.6831 -55.0774
-42.7079 -17.1761 -55.0774
-42.7079 -17.1761 -64.3352
10.3658 11.3149 36.3279
-19.9246 -29.8778 -64.3352
-19.9246 -29.8778 -55.0774
-29.1395 -3.93602 0.078575
-12.7 19.515 52.9446
-33.2113 -1.66177 0.078575
-18.5 17.875 52.9446
-10.0867 19.349 -52.0509
-5.88854 20.5086 -52.0509
-10.0867 19.349 52.9446
-6.99865 21.1271 -55.0774
-24.5307 16.1698 -55.0774
-1.40392 16.586 0.352215
10.4056 11.386 36.3279
12.2537 9.31822 0.352215
-3.22505 1.64231 0.352215
-27.1796 -5.03074 52.9446
-4.85071 19.6358 52.9446
-5.06259 19.255 52.9446
-4.72555 19.8607 52.9446
2.99413 -1.87098 36.3279
-25.4682 3.59022 -55.0774
-17.8067 33.6123 -55.0774
-17.8067 33.6123 -64.3352
-7.05256 -6.67273 -64.3352
-4.88834 1.17896 64.3352
-7.05256 -6.67273 -55.0774
-15.7248 -1.83975 -64.3352
-16.5472 -1.3814 -64.3352
-25.4682 3.59022 -64.3352
-34.0082 -1.21665 36.3279
2.27457 -1.46449 -52.0509
-25.4682 3.59022 -56.1913
3.31631 15.3802 -52.0509
-22.8914 2.15416 -55.0774
2.30633 20.6321 -52.0509
-18.4973 -0.294617 -55.0774
18.7178 -10.7535 -52.0509
36.8698 -21.0078 -52.0509
0.779781 21.4955 -52.0509
-44.7995 -21.0131 -55.0774
-44.7995 -21.0131 -64.3352
18.4228 7.67278 -52.0509
18.7191 6.79864 -52.0509
-27.4701 15.3386 -55.0774
-15.5991 -1.80476 64.3352
-27.4701 15.3386 -64.3352
-24.5307 16.1698 -64.3352
-7.09962 15.5947 -64.3352
8.26131 4.84208 -64.3352
13.3414 16.4107 -55.0774
-26.0773 14.5518 -55.0774
-26.0773 14.5518 -64.3352
-25.2827 14.7902 -64.3352
-15.5991 -1.80476 36.3279
-25.5691 14.2647 36.3279
-0.235847 22.07 -64.3352
1.98362 22.6831 -64.3352
-15.6667 32.4305 -64.3352
-15.6667 32.4305 -55.0774
-1.94682 24.8537 -55.0774
-1.94682 24.8537 -64.3352
-16.0824 -0.546214 64.3352
-15.762 0.0295741 64.3352
-38.6206 -9.67798 -55.0774
-25.0395 13.9656 52.9446
32.5488 -28.7424 -64.3352
32.5488 -28.7424 -55.0774
-36.8449 -7.72323 0.078575
19.5 4.495 0.352215
-2.62741 1.30469 -64.3352
19.1 5.675 0.352215
19.1 5.675 36.3279
-2.62741 1.30469 -55.0774
19.5 4.495 36.3279
-37.6822 -7.95647 -64.3352
-25.5691 14.2647 -64.3352
47.2977 -2.34169 -64.3352
-3.22505 1.64231 -64.3352
10.5606 11.3441 -52.0509
-12.0804 6.64483 -64.3352
47.2977 -2.34169 -55.0774
-17 -2.195 -64.3352
19.9229 5.23709 0.352215
-25.2827 14.7902 52.9446
-1.24141 17.9195 -61.802
-25.5691 14.2647 52.9446
-24.7075 13.778 52.9446
-5.37263 18.6979 52.9446
-5.88854 20.5086 52.9446
-6.83096 8.2696 64.3352
-6.3 7.965 64.3352
-29.4505 -24.5671 -64.3352
14.1308 13.9439 -52.0509
-8.70299 12.2867 59.95
-7.49037 11.6161 59.95
-17.5997 9.7627 59.95
-37.6822 -7.95647 -55.0774
12.7358 -7.37414 -52.0509
-20.2 -7.945 52.9446
-7.6797 12.577 52.9446
-21.4172 -8.24929 52.9446
24.2616 8.21357 -52.0509
7.17304 5.60387 36.3279
25.9101 2.05104 0.352215
-14.893 -1.13752 64.3352
-14.1562 -1.40279 64.3352
-4.72555 19.8607 36.3279
-5.88854 20.5086 36.3279
-18.3737 27.4646 -55.0774
-25.2827 14.7902 36.3279
-10.0867 19.349 36.3279
9.32873 11.1413 52.9446
25.9101 2.05104 -64.3352
18.7178 -10.7535 -64.3352
-25.2827 14.7902 -52.0509
-26.1473 -18.6316 36.3279
-25.5691 14.2647 -52.0509
-6.7 7.605 64.3352
-8.39715 8.58336 64.3352
-7.72692 8.7836 64.3352
25.5624 9.66166 -64.3352
25.5624 9.66166 -55.0774
17.9979 1.8592 0.352215
2.99413 -1.87098 -52.0509
14.7611 11.9742 -52.0509
12.7358 -7.37414 -55.0774
-28.6448 6.62924 52.9446
-19.8012 9.13814 52.9446
-8.19499 9.05213 64.3352
-29.4505 -24.5671 -55.0774
-11.75 18.85 52.9446
-41.9346 -17.6072 -55.0774
13.1129 9.9221 36.3279
-0.235847 22.07 -52.0509
25.0699 4.87276 -52.0509
-47.294 -19.6355 -64.3352
36.8698 -21.0078 -49.0288
-47.294 -19.6355 -55.0774
25.9101 2.05104 -49.0288
4  510 168 459 458  255 0 0
5  510 508 227 226 478  255 0 0
4  510 458 457 508  255 0 0
6  512 458 459 125 169 194  255 42 0
5  512 195 190 454 457  255 42 0
3  512 194 195  255 42 0
5  510 478 180 167 168  255 0 0
3  508 228 227  255 0 0
4  155 371 223 164  255 85 0
5  506 482 293 122 124  255 127 0
5  506 168 167 181 483  255 127 0
5  505 194 169 115 193  255 170 0
4  505 396 393 429  255 170 0
4  505 193 191 396  255 170 0
6  506 124 116 125 459 168  255 127 0
6  505 429 522 377 195 194  255 170 0
5  508 457 454 229 228  255 0 0
3  512 457 458  255 42 0
4  154 372 340 163  255 85 0
5  154 147 39 366 372  255 85 0
4  155 163 340 371  255 85 0
5  155 164 232 456 163  255 0 0
7  154 163 456 196 197 110 147  255 42 0
6  527 109 107 299 266 494  255 170 0
3  506 483 482  255 127 0
5  82 547 485 352 132  255 212 0
4  82 80 545 547  255 212 0
6  539 489 490 158 159 440  169 0 255
4  153 158 426 392  127 0 255
5  539 440 329 335 441  169 0 255
3  153 159 158  255 0 0
4  153 392 438 159  255 85 0
4  185 441 335 162  169 0 255
4  185 162 81 80  255 127 0
5  159 160 161 329 440  169 0 255
4  159 438 437 160  255 85 0
3  527 108 109  255 170 0
4  105 250 249 467  212 255 0
5  105 103 104 497 248  169 255 0
4  105 467 309 103  127 255 0
4  388 367 310 141  255 85 0
4  388 234 233 367  255 85 0
3  388 235 234  255 85 0
7  556 503 164 223 461 554 528  212 255 0
8  556 250 105 248 243 231 232 503  169 255 0
4  556 528 249 250  212 255 0
3  428 328 325  255 170 0
5  560 321 245 247 432  255 170 0
7  560 418 470 428 325 562 320  255 170 0
3  560 320 321  255 170 0
4  387 366 39 152  255 85 0
3  387 152 151  255 85 0
4  562 325 326 390  85 255 0
4  107 109 498 70  42 255 0
4  562 390 323 320  0 255 0
4  107 70 72 299  0 255 0
5  82 132 123 294 481  255 127 0
5  527 395 192 106 108  255 170 0
4  522 415 416 431  255 170 0
4  522 431 378 377  255 170 0
4  560 432 417 418  255 170 0
4  552 90 91 480  0 255 42
4  490 242 157 158  169 0 255
4  246 321 322 77  0 255 0
6  246 244 197 196 379 245  255 170 0
4  406 266 73 288  0 255 0
4  406 382 380 405  255 170 0
4  246 77 78 244  0 255 0
4  406 288 324 382  0 255 0
4  448 237 202 518  255 85 0
10  388 142 397 143 144 359 407 409 236 235  255 85 0
4  546 77 76 297  0 255 84
4  517 172 171 557  255 212 0
10  387 151 150 171 558 137 138 401 30 139  255 85 0
4  491 180 179 225  169 0 255
5  551 269 268 411 507  0 255 42
4  551 487 486 269  0 255 42
5  551 552 480 427 487  0 255 42
4  490 491 225 242  169 0 255
5  552 425 88 89 90  0 255 42
6  552 551 507 511 296 425  0 255 42
4  160 437 189 161  255 85 0
4  80 81 176 545  255 212 0
5  218 569 534 217 48  212 255 0
6  215 513 501 214 204 423  212 255 0
4  528 338 365 249  212 255 0
4  218 383 385 569  212 255 0
4  215 50 216 513  212 255 0
3  467 249 364  212 255 0
4  366 387 342 341  255 85 0
4  403 70 498 360  42 255 0
4  403 298 72 70  0 255 84
5  546 199 198 78 77  0 255 84
8  546 297 298 403 404 42 43 199  0 255 84
4  288 74 75 324  0 255 0
7  77 322 323 390 324 75 76  0 255 0
4  518 202 236 409  255 85 0
6  539 441 474 295 452 489  169 0 255
4  185 80 481 184  255 127 0
3  80 82 481  255 127 0
5  338 528 554 339 305  212 255 0
5  534 569 385 314 315  212 255 0
5  534 315 316 216 217  212 255 0
8  338 302 553 343 316 315 362 365  212 255 0
5  513 216 316 343 499  212 255 0
5  371 367 233 445 223  255 85 0
5  204 214 213 308 281  0 255 127
6  367 371 340 341 484 310  255 85 0
4  213 214 501 502  0 255 170
5  213 502 504 375 374  0 255 170
8  527 494 405 380 328 428 394 395  255 170 0
4  428 470 568 394  255 170 0
3  454 230 229  255 0 0
4  456 231 230 454  255 0 0
5  432 247 379 378 431  255 170 0
4  454 190 196 456  255 42 0
4  429 471 415 522  255 170 0
4  104 103 309 468  127 255 0
4  104 468 46 222  127 255 0
4  84 222 46 37  255 0 212
4  516 485 540 514  255 212 0
4  516 351 352 485  255 212 0
4  516 495 347 351  255 212 0
5  517 557 129 347 495  255 212 0
4  449 537 240 239  255 85 0
4  519 538 537 449  255 85 0
4  514 540 175 174  255 212 0
4  439 541 538 519  255 85 0
9  519 449 447 448 518 409 373 561 439  255 85 0
7  517 495 516 514 174 173 172  255 212 0
6  102 544 500 229 230 496  169 255 0
4  102 205 543 544  127 255 0
5  511 410 86 87 296  0 255 42
4  511 507 411 410  0 255 42
4  84 86 268 98  0 255 42
4  104 222 205 102  127 255 0
3  500 228 229  169 255 0
8  500 544 543 413 206 479 227 228  212 255 0
3  503 232 164  169 255 0
3  456 232 231  255 0 0
6  496 230 231 243 248 497  169 255 0
4  497 104 102 496  169 255 0
6  488 477 181 167 180 491  169 0 255
5  488 453 292 476 477  169 0 255
4  489 452 453 488  169 0 255
4  491 490 489 488  169 0 255
4  482 182 177 293  255 127 0
4  481 294 183 184  255 127 0
4  485 547 545 540  255 212 0
5  403 360 361 460 201  42 255 0
4  483 181 182 482  255 127 0
4  476 182 181 477  169 0 255
4  476 292 177 182  169 0 255
4  474 184 183 295  169 0 255
4  441 185 184 474  169 0 255
4  471 429 393 566  255 170 0
4  471 470 418 415  255 170 0
4  468 567 221 46  0 255 255
4  468 309 424 567  0 255 255
4  37 46 221 95  255 0 255
5  467 364 384 355 309  127 255 0
4  218 389 36 45  255 0 212
5  113 264 265 201 71  0 212 255
4  460 361 108 106  42 255 0
5  106 132 131 264 113  0 212 255
5  460 106 113 71 201  42 255 0
4  453 452 295 292  169 0 255
4  422 235 236 408  0 170 255
4  450 304 305 339  0 255 170
3  450 101 348  0 255 170
7  421 374 375 303 304 450 348  0 255 170
5  422 350 349 234 235  0 170 255
4  421 348 350 422  0 170 255
4  449 239 238 447  255 85 0
4  448 447 238 237  255 85 0
4  293 294 123 122  255 127 0
4  395 396 191 192  255 170 0
5  404 118 200 41 42  0 255 84
6  446 399 151 152 529 531  0 127 255
4  118 119 252 200  0 84 255
4  446 170 127 399  0 127 255
4  446 42 41 170  0 127 255
4  281 308 307 52  0 255 127
5  54 563 443 56 55  0 255 212
4  54 53 353 563  0 255 212
4  280 281 52 53  255 0 212
6  563 353 307 306 430 443  0 255 212
4  132 106 192 123  0 212 255
4  132 352 346 131  255 212 0
6  199 44 39 147 110 198  255 0 169
3  199 43 44  255 0 169
4  42 446 531 43  0 127 255
4  306 419 368 430  0 255 212
5  56 51 57 402 59  255 0 212
4  443 430 51 56  0 255 212
4  420 211 203 212  0 170 255
7  420 408 236 202 68 210 211  0 170 255
4  95 221 220 99  255 0 255
5  567 424 354 220 221  0 255 255
4  364 317 383 384  127 255 0
4  363 314 317 364  212 255 0
4  99 220 219 356  255 0 255
4  172 398 558 171  255 85 0
8  174 561 373 407 133 135 398 173  255 85 0
3  172 173 398  255 85 0
5  439 188 189 437 541  255 85 0
4  438 538 541 437  255 85 0
4  436 434 188 187  255 255 0
4  336 330 434 436  255 255 0
4  436 187 186 336  255 255 0
4  330 336 335 329  255 255 0
4  189 188 434 330  255 255 0
4  432 431 416 417  255 170 0
4  368 357 402 57  0 255 127
4  368 419 542 291  0 255 127
4  430 368 57 51  0 255 212
6  427 480 91 92 93 94  0 255 42
4  427 242 225 487  0 255 42
4  427 94 157 242  0 255 42
4  158 157 241 426  127 0 255
4  392 537 538 438  255 85 0
4  392 224 240 537  255 85 0
7  280 53 555 523 344 337 472  255 0 127
4  54 509 555 53  255 0 127
4  392 426 241 224  127 0 255
4  425 296 87 88  0 255 42
4  37 95 391 35  0 42 255
4  84 37 35 86  255 0 127
4  389 345 34 36  255 0 127
5  355 384 383 218 45  127 255 0
4  424 309 355 354  0 255 255
5  95 99 356 376 391  0 42 255
5  213 374 421 533 212  0 255 170
6  422 408 420 212 533 421  0 170 255
4  418 417 416 415  255 170 0
5  389 47 565 532 345  255 0 127
6  282 337 344 532 565 49  255 0 127
4  411 268 86 410  0 255 42
3  386 12 13  255 0 42
5  386 13 6 4 14  255 0 42
3  409 407 373  255 85 0
5  407 359 530 134 133  255 85 0
4  25 26 397 142  255 0 42
4  405 494 266 406  255 170 0
4  118 404 403 201  0 255 84
4  201 265 119 118  0 212 255
4  357 368 291 69  0 255 127
4  357 332 59 402  42 0 255
4  120 114 264 131  0 212 255
4  130 119 114 120  0 84 255
4  346 130 120 131  255 212 0
6  129 557 171 150 127 128  255 212 0
4  129 255 119 130  0 84 255
4  399 127 150 151  0 127 255
4  129 128 253 255  0 84 255
5  386 16 17 11 12  255 0 42
4  398 135 136 558  255 85 0
4  19 139 30 18  255 0 42
4  396 395 394 393  255 170 0
4  35 391 376 34  0 42 255
5  390 326 327 381 324  85 255 0
4  389 218 48 47  255 0 212
4  215 282 49 50  255 0 212
4  86 35 34 87  255 0 127
4  345 88 87 34  255 0 127
3  142 388 141  255 85 0
4  387 139 140 342  255 85 0
6  386 14 2 15 0 16  255 0 42
4  383 317 314 385  212 255 0
4  381 327 328 380  85 255 0
4  382 324 381 380  85 255 0
4  379 196 190 378  255 170 0
3  379 247 245  255 170 0
4  378 190 195 377  255 170 0
3  321 246 245  255 170 0
4  564 241 157 94  255 0 127
5  564 469 61 224 241  255 0 127
4  344 523 91 90  255 0 127
4  564 94 93 469  255 0 127
4  393 394 568 566  255 170 0
7  526 9 10 274 313 311 312  85 0 255
3  558 136 137  255 85 0
4  526 312 136 135  85 0 255
4  356 36 34 376  0 42 255
4  568 470 471 566  255 170 0
5  439 561 174 187 188  255 85 0
7  187 174 175 176 81 162 186  255 85 0
4  554 461 79 339  212 255 0
4  450 339 79 101  0 255 170
4  553 302 303 375  0 255 170
5  375 504 499 343 553  0 255 170
5  54 55 56 277 509  255 0 212
5  56 59 61 463 277  255 0 212
4  277 463 465 276  255 0 127
4  331 240 224 61  42 0 255
4  331 61 59 332  42 0 255
4  176 175 540 545  255 212 0
4  529 152 39 44  0 127 255
4  43 531 529 44  0 127 255
4  358 8 9 526  85 0 255
4  133 358 526 135  85 0 255
4  372 366 341 340  255 85 0
3  47 49 565  255 0 127
4  370 369 49 47  212 0 255
4  217 216 369 370  212 0 255
4  217 370 47 48  212 0 255
4  369 216 50 49  212 0 255
4  291 542 211 210  0 255 127
4  362 315 314 363  212 255 0
5  365 362 363 364 249  212 255 0
5  361 360 498 109 108  42 255 0
4  359 144 145 530  255 85 0
6  358 524 525 289 7 8  85 0 255
4  358 133 134 524  85 0 255
4  333 238 239 334  42 0 255
4  69 237 238 333  42 0 255
4  69 291 210 68  0 255 127
4  69 333 332 357  42 0 255
3  354 219 220  0 255 255
4  356 219 45 36  255 0 255
4  355 45 219 354  0 255 255
4  52 307 353 53  0 255 212
4  25 258 521 26  0 0 255
4  23 3 285 455  0 0 255
7  141 140 20 21 22 3 23  255 0 42
5  23 24 25 142 141  255 0 42
4  352 351 347 346  255 212 0
4  101 233 234 349  0 170 255
4  350 348 101 349  0 170 255
4  347 129 130 346  255 212 0
4  23 455 257 24  0 0 255
4  25 24 257 258  0 0 255
4  88 345 532 89  255 0 127
4  344 90 89 532  255 0 127
4  20 475 284 21  0 0 255
4  19 492 251 1  0 0 255
4  20 1 251 475  0 0 255
4  19 18 29 492  0 0 255
4  342 140 484 341  255 85 0
3  338 305 302  212 255 0
4  337 282 473 472  255 0 127
3  280 472 473  255 0 127
4  336 186 162 335  255 255 0
4  334 239 240 331  42 0 255
4  334 331 332 333  42 0 255
4  161 189 330 329  255 255 0
4  328 327 326 325  85 255 0
5  75 74 286 297 76  0 255 84
4  323 322 321 320  0 255 0
4  300 319 290 289  255 0 42
4  300 267 144 143  85 0 255
4  300 289 525 267  85 0 255
4  8 7 559 278  0 0 255
4  319 26 5 290  255 0 42
5  319 300 143 397 26  255 0 42
4  13 279 549 6  0 0 255
4  290 27 7 289  255 0 42
3  290 5 27  255 0 42
4  14 4 548 259  0 0 255
5  313 318 261 401 138  255 0 85
5  313 274 271 270 318  255 0 85
4  9 275 31 10  0 0 255
4  318 270 260 261  255 0 85
4  12 11 32 301  0 0 255
4  110 244 78 198  0 255 0
4  138 137 311 313  85 0 255
4  136 312 311 137  85 0 255
4  310 484 140 141  255 85 0
5  308 213 212 306 307  0 255 127
4  212 203 419 306  0 255 127
4  305 304 303 302  0 255 170
4  275 301 32 31  0 0 255
4  298 287 73 72  0 255 84
4  297 286 287 298  0 255 84
4  299 72 73 266  0 255 0
4  3 22 536 285  0 0 255
4  2 256 535 15  0 0 255
4  295 183 177 292  169 0 255
4  294 293 177 183  255 127 0
3  288 73 74  0 255 0
4  287 286 74 73  0 255 84
5  258 259 548 520 521  0 0 255
4  0 15 535 283  0 0 255
4  21 284 536 22  0 0 255
4  256 285 536 535  0 0 255
4  284 283 535 536  0 0 255
6  282 215 423 281 280 473  255 0 212
3  204 281 423  0 255 127
5  279 278 559 550 549  0 0 255
4  14 259 256 2  0 0 255
5  276 523 555 509 277  255 0 127
5  276 465 92 91 523  255 0 127
4  275 9 8 278  0 0 255
4  274 10 31 273  255 0 85
4  273 31 32 272  255 0 85
4  274 273 272 271  255 0 85
3  270 271 260  255 0 85
4  16 493 33 17  0 0 255
4  493 492 29 33  0 0 255
4  272 32 33 263  255 0 85
4  263 33 29 262  255 0 85
4  271 272 263 260  255 0 85
4  17 33 32 11  255 0 85
5  139 19 1 20 140  255 0 42
4  279 13 12 301  0 0 255
4  493 16 0 283  0 0 255
4  27 550 559 7  0 0 255
4  269 97 98 268  0 255 42
4  520 548 549 550  0 0 255
4  5 520 550 27  0 0 255
4  549 548 4 6  0 0 255
4  211 542 419 203  0 255 127
3  530 145 134  255 85 0
4  267 525 145 144  85 0 255
4  525 524 134 145  85 0 255
4  26 521 520 5  0 0 255
4  278 279 301 275  0 0 255
3  513 499 501  212 255 0
4  504 502 501 499  0 255 170
4  119 265 264 114  0 212 255
4  261 18 30 401  255 0 85
4  262 29 18 261  255 0 85
4  263 262 261 260  255 0 85
4  259 258 257 256  0 0 255
5  128 127 170 254 253  0 84 255
4  255 253 252 119  0 84 255
4  254 170 41 200  0 84 255
4  254 200 252 253  0 84 255
4  493 283 251 492  0 0 255
6  180 478 226 207 96 179  255 0 0
4  487 225 179 486  0 255 42
6  486 179 96 63 97 269  0 255 42
5  479 206 66 207 226  212 255 0
3  479 226 227  212 255 0
4  283 284 475 251  0 0 255
4  469 465 463 61  255 0 127
4  93 92 465 469  255 0 127
4  461 223 445 79  212 255 0
4  101 79 445 233  0 255 170
4  257 455 285 256  0 0 255
3  110 197 244  255 170 0
4  237 69 68 202  42 0 255
3  242 225 157  169 0 255
3  225 242 157  0 255 42
3  241 157 224  127 0 255
3  157 241 224  255 0 127
9  240 224 209 442 100 202 237 238 239  255 85 0
9  224 240 239 238 237 202 100 442 209  42 0 255
6  236 202 100 233 234 235  255 85 0
6  202 236 235 234 233 100  0 170 255
4  223 445 442 209  255 85 0
4  233 445 442 100  0 255 170
4  164 223 209 156  255 85 0
4  223 164 156 209  212 255 0
6  232 164 228 229 230 231  255 0 0
6  164 232 231 230 229 228  169 255 0
6  227 228 164 208 207 226  255 0 0
6  228 227 226 207 208 164  212 255 0
4  179 96 515 178  255 0 0
3  225 179 178  169 0 255
3  179 225 178  0 255 42
3  157 225 178  169 0 255
3  225 157 178  0 255 42
3  164 208 156  212 255 0
3  224 157 83  127 0 255
3  157 224 83  255 0 127
4  224 209 156 83  42 0 255
4  223 209 442 445  212 255 0
4  206 412 414 66  0 255 127
4  222 84 98 205  255 0 212
4  209 224 83 156  255 85 0
4  208 515 83 156  42 0 255
3  208 164 156  255 0 0
4  208 515 96 207  255 0 0
4  207 96 515 208  42 0 255
6  205 98 97 412 413 543  255 0 212
3  206 413 412  0 255 127
5  207 66 414 63 96  42 0 255
4  208 156 83 515  255 0 0
4  222 205 45 46  255 0 212
4  205 222 46 45  127 255 0
5  221 46 45 219 220  255 0 255
5  46 221 220 219 45  0 255 255
4  218 45 205 543  255 0 212
4  45 218 543 205  127 255 0
7  48 218 543 413 423 215 50  255 0 212
7  218 48 50 215 423 413 543  212 255 0
4  217 48 50 216  212 0 255
4  48 217 216 50  212 255 0
7  204 423 413 206 66 65 444  0 255 127
3  214 204 444  0 255 127
3  204 214 444  212 255 0
5  213 214 444 203 212  0 255 127
5  214 213 212 203 444  0 255 170
5  211 203 67 68 210  0 255 127
5  203 211 210 68 67  0 170 255
3  202 68 67  42 0 255
7  209 442 65 66 207 208 156  42 0 255
4  202 100 64 67  0 170 255
7  209 156 208 207 66 65 442  212 255 0
7  206 413 423 204 444 65 66  212 255 0
4  203 444 65 64  0 255 127
4  202 67 64 100  42 0 255
3  203 67 64  0 170 255
3  202 67 68  0 170 255
4  193 124 122 191  0 212 255
4  191 122 123 192  0 212 255
4  193 115 116 124  0 212 255
7  106 192 191 193 115 117 113  255 170 0
7  192 106 113 117 115 193 191  0 212 255
4  201 71 435 118  0 255 84
4  113 71 435 111  0 212 255
4  201 118 435 71  0 212 255
5  200 118 435 433 41  0 255 84
5  118 200 41 433 435  0 84 255
6  42 41 433 198 199 43  0 255 84
6  42 43 199 198 433 41  255 0 169
4  110 198 433 112  0 255 0
4  198 110 112 433  255 0 169
6  197 110 112 165 190 196  255 170 0
6  110 197 196 190 165 112  255 42 0
5  195 190 165 169 194  255 170 0
5  190 195 194 169 165  255 42 0
4  113 111 435 71  0 255 0
3  113 111 117  0 212 255
3  113 117 111  255 170 0
4  178 515 83 157  255 0 0
4  178 515 96 179  0 255 42
4  178 157 83 515  0 255 42
10  158 157 178 179 180 167 166 161 160 159  169 0 255
10  157 158 159 160 161 166 167 180 179 178  255 0 0
6  189 161 162 186 187 188  255 255 0
6  161 189 188 187 186 162  255 85 0
6  185 162 166 177 183 184  169 0 255
6  162 185 184 183 177 166  255 127 0
5  182 177 166 167 181  169 0 255
5  177 182 181 167 166  255 127 0
3  162 161 166  169 0 255
3  161 162 166  255 0 0
4  112 111 435 433  0 84 255
4  112 111 117 165  255 170 0
4  165 117 111 112  0 84 255
4  165 117 115 169  255 170 0
4  169 115 117 165  0 84 255
4  169 125 116 115  0 84 255
4  112 433 435 111  0 255 0
7  81 162 166 167 168 459 462  255 127 0
7  162 81 462 459 168 167 166  255 0 0
10  176 81 149 38 150 171 172 173 174 175  255 212 0
10  81 176 175 174 173 172 171 150 38 149  255 85 0
4  127 150 38 40  255 212 0
4  170 127 40 41  0 84 255
4  127 170 41 40  0 127 255
5  112 433 41 40 126  0 84 255
5  41 433 112 126 40  255 0 169
4  165 112 126 121  0 84 255
4  112 165 121 126  255 42 0
4  169 165 121 125  0 84 255
4  165 169 125 121  255 42 0
4  81 462 451 149  255 127 0
4  81 149 451 462  255 0 0
7  156 83 153 148 466 163 155  255 85 0
3  157 83 153  255 0 0
3  164 156 155  255 85 0
3  156 164 155  255 0 0
7  155 163 466 148 153 83 156  255 0 0
4  154 163 466 146  255 85 0
4  163 154 146 466  255 42 0
4  110 147 146 112  255 0 169
3  154 147 146  255 42 0
4  110 112 146 147  255 42 0
8  81 149 148 153 159 160 161 162  255 85 0
4  112 126 451 464  255 42 0
8  81 162 161 160 159 153 148 149  255 0 0
3  158 153 157  127 0 255
3  153 158 157  255 0 0
3  157 153 83  127 0 255
4  112 146 466 464  255 0 169
3  154 146 147  255 85 0
4  112 464 451 126  255 0 169
4  112 464 466 146  255 42 0
4  150 127 40 38  0 127 255
4  149 451 464 148  255 0 169
5  149 451 126 40 38  255 212 0
3  148 464 466  255 0 169
4  148 464 451 149  255 0 0
5  149 38 40 126 451  255 0 169
3  148 466 464  255 0 0
7  39 147 146 466 148 149 38  255 85 0
7  147 39 38 149 148 466 146  255 0 169
5  152 39 38 150 151  255 85 0
5  39 152 151 150 38  0 127 255
12  145 134 133 135 136 137 138 400 28 58 143 144  85 0 255
12  134 145 144 143 58 28 400 138 137 136 135 133  255 85 0
8  142 397 58 28 30 139 140 141  255 0 42
3  143 397 58  255 85 0
8  142 141 140 139 30 28 58 397  255 85 0
3  138 401 400  255 0 85
4  126 451 462 121  255 127 0
4  121 462 459 125  255 127 0
4  121 462 451 126  255 42 0
4  125 459 462 121  255 42 0
7  132 123 122 124 116 120 131  0 212 255
7  123 132 131 120 116 124 122  255 127 0
7  130 120 126 40 127 128 129  0 84 255
7  120 130 129 128 127 40 126  255 212 0
3  121 126 120  0 84 255
3  126 121 120  255 127 0
4  125 121 120 116  0 84 255
4  121 125 116 120  255 127 0
6  120 116 115 117 111 114  0 212 255
6  116 120 114 111 117 115  0 84 255
5  119 114 111 435 118  0 212 255
5  114 119 118 435 111  0 84 255
3  113 106 107  42 255 0
3  106 113 107  255 170 0
9  111 113 107 320 321 246 244 110 112  0 255 0
9  113 111 112 110 244 246 321 320 107  255 170 0
7  562 320 107 299 266 406 382  0 255 0
7  320 562 382 406 266 299 107  255 170 0
5  325 562 382 380 328  85 255 0
5  562 325 328 380 382  255 170 0
4  109 107 106 108  42 255 0
4  107 109 108 106  255 170 0
4  324 382 562 390  85 255 0
4  382 324 390 562  0 255 0
4  403 201 71 70  42 255 0
4  201 403 70 71  0 255 84
4  107 70 71 113  42 255 0
4  70 107 113 71  0 255 0
8  164 228 500 544 105 250 556 503  169 255 0
8  228 164 503 556 250 105 544 500  212 255 0
5  103 105 544 102 104  169 255 0
5  105 103 104 102 544  127 255 0
8  383 218 543 544 105 467 364 317  212 255 0
8  218 383 317 364 467 105 544 543  127 255 0
4  100 442 65 64  0 255 170
4  100 442 445 233  255 85 0
4  203 64 65 444  0 255 170
3  203 64 67  0 255 127
4  100 64 65 442  42 0 255
9  533 212 203 64 100 233 101 348 421  0 170 255
9  212 533 421 348 101 233 100 64 203  0 255 170
4  97 63 414 412  255 0 212
5  515 96 62 60 83  42 0 255
5  96 515 83 60 62  0 255 42
4  224 83 60 61  42 0 255
4  83 224 61 60  255 0 127
15  463 61 60 85 36 389 47 49 282 473 280 53 54 509 277  255 0 212
15  61 463 277 509 54 53 280 473 282 49 47 389 36 85 60  255 0 127
4  356 36 95 99  255 0 255
4  36 356 99 95  0 42 255
3  37 95 36  255 0 255
3  95 37 36  0 42 255
4  84 37 36 85  255 0 212
4  37 84 85 36  255 0 127
6  98 84 85 62 63 97  255 0 212
6  84 98 97 63 62 85  0 255 42
3  96 63 62  42 0 255
3  96 62 63  0 255 42
3  85 62 60  0 255 42
3  85 60 62  255 0 212
14  93 94 157 83 60 85 84 86 87 88 89 90 91 92  255 0 127
14  94 93 92 91 90 89 88 87 86 84 85 60 83 157  0 255 42
10  163 456 454 457 458 459 462 451 464 466  255 0 0
10  456 163 466 464 451 462 459 458 457 454  255 42 0
9  149 81 80 82 132 131 120 126 451  255 212 0
9  81 149 451 126 120 131 132 82 80  255 127 0
13  343 499 501 214 444 65 442 445 79 339 305 302 553  0 255 170
13  499 343 553 302 305 339 79 445 442 65 444 214 501  212 255 0
5  468 46 45 355 309  0 255 255
5  46 468 309 355 45  127 255 0
12  435 71 70 72 73 74 75 76 77 78 198 433  0 255 84
12  71 435 433 198 78 77 76 75 74 73 72 70  0 255 0
7  62 63 414 402 59 61 60  42 0 255
7  63 62 60 61 59 402 414  255 0 212
8  357 402 66 65 64 67 68 69  42 0 255
8  402 357 69 68 67 64 65 66  0 255 127
3  66 414 402  0 255 127
3  66 402 414  42 0 255
8  423 413 412 414 402 57 52 281  255 0 212
8  413 423 281 52 57 402 414 412  0 255 127
6  307 52 57 368 419 306  0 255 212
6  52 307 306 419 368 57  0 255 127
3  143 58 397  255 0 42
3  138 400 401  255 85 0
5  300 143 58 7 289  85 0 255
5  143 300 289 7 58  255 0 42
6  8 7 58 28 10 9  85 0 255
6  7 8 9 10 28 58  255 0 42
4  274 10 28 400  85 0 255
4  313 274 400 138  85 0 255
4  274 313 138 400  255 0 85
4  401 30 28 400  255 0 85
4  400 28 10 274  255 0 85
4  400 28 30 401  255 85 0
4  224 392 153 83  255 85 0
4  392 224 83 153  127 0 255
4  161 329 335 162  255 255 0
4  329 161 162 335  169 0 255
3  57 52 51  0 255 212
3  52 57 51  255 0 212
6  56 51 52 53 54 55  0 255 212
6  51 56 55 54 53 52  255 0 212
4  50 48 47 49  212 0 255
4  48 50 49 47  255 0 212
4  46 37 36 45  255 0 255
4  37 46 45 36  255 0 212
7  44 39 38 40 41 42 43  0 127 255
7  39 44 43 42 41 40 38  255 0 169
4  37 35 34 36  0 42 255
4  35 37 36 34  255 0 127
4  33 29 18 17  0 0 255
4  29 33 17 18  255 0 85
5  11 17 18 30 28  255 0 42
5  17 11 28 30 18  255 0 85
4  32 11 10 31  0 0 255
4  11 32 31 10  255 0 85
3  28 10 11  255 0 42
3  10 28 11  255 0 85
5  27 7 6 4 5  0 0 255
5  7 27 5 4 6  255 0 42
9  26 5 4 14 2 3 23 24 25  0 0 255
9  5 26 25 24 23 3 2 14 4  255 0 42
8  22 3 2 15 0 1 20 21  0 0 255
8  3 22 21 20 1 0 15 2  255 0 42
6  19 1 0 16 17 18  0 0 255
6  1 19 18 17 16 0  255 0 42
8  13 6 7 8 9 10 11 12  0 0 255
8  6 13 12 11 10 9 8 7  255 0 42

