# exported by https://3dviewer.net
mtllib model.mtl
g Mesh
v 54.8626 -31.7411 21.35
v 54.8626 -31.7411 -21.45
v -6.31179 37.63 -21.45
v 1.70038 30.888 -21.45
v 1.70038 30.888 21.35
v -6.31179 37.63 21.35
v 33.4151 -25.4566 -21.45
v 46.5773 -37.1193 -21.45
v 46.5773 -37.1193 21.35
v 39.7942 -41.5223 21.35
v -0.867054 6.63091 -21.45
v -5.95812 13.1088 -21.45
v -0.867054 6.63091 21.35
v 13.4996 -22.6368 -21.45
v 11.0226 -29.0979 21.35
v 13.4996 -22.6368 21.35
v -17.7969 -51.3633 21.35
v -17.7969 -51.3633 -21.45
v 11.0226 -29.0979 -21.45
v 55.6937 -35.9797 -21.45
v 36.0312 -38.4375 21.35
v -1.69495 -43.2178 21.35
v 29.4687 -5.875 -21.45
v 48.7029 -1.65526 21.35
v 48.7029 -1.65526 -21.45
v -18.6916 24.543 21.35
v -30.1839 26.3759 -21.45
v -30.1839 26.3759 21.35
v -18.6916 24.543 -21.45
v 12.3699 16.7552 21.35
v 12.3699 16.7552 -21.45
v -35.3812 44.8778 -21.45
v -20.6688 43.3065 -21.45
v -20.6688 43.3065 21.35
v 24.4246 19.1535 21.35
v 17.3243 17.7409 21.35
v 24.4246 19.1535 -21.45
v 19.0493 -8.1609 -21.45
v 29.4687 -5.875 21.35
v -16.0225 -31.0408 -21.45
v -5.15031 -21.854 -21.45
v -16.0225 -31.0408 21.35
v -5.15031 -21.854 21.35
v 26.1806 10.4405 -21.45
v 39.248 44.5258 21.35
v 26.1806 10.4405 21.35
v -9.34334 17.4161 -21.45
v -22.5186 27.4606 -21.45
v 55.6937 -35.8009 -21.45
v -1.69495 -43.2178 -21.45
v 36.0312 -38.4375 -21.45
v -2.00443 -12.7798 -21.45
v -2.00443 -12.7798 21.35
v 26.1365 10.3256 21.35
v -7.49347 -28.6128 21.35
v -7.49347 -28.6128 -21.45
v 23.0398 26.0251 21.35
v -0.730483 -26.6876 -21.45
v -0.788584 -12.5131 21.35
v -0.730483 -26.6876 21.35
v 36.7575 -42.0412 21.35
v -5.95812 13.1088 21.35
v -17.766 28.1332 21.35
v -17.766 28.1332 -21.45
v -0.897733 14.1156 -21.45
v -0.964936 30.5108 -21.45
v -0.964936 30.5108 21.35
v 17.2935 54.5375 -21.45
v -9.34334 17.4161 21.35
v 39.248 44.5258 -21.45
v -0.788584 -12.5131 -21.45
v 33.4151 -25.4566 21.35
v 31.7971 -17.4281 21.35
v -0.897733 14.1156 21.35
v -35.7555 -54.4321 21.35
v -22.5186 27.4606 21.35
v 17.3243 17.7409 -21.45
v -55.5982 40.3338 21.35
v -35.7555 -54.4321 -21.45
v -35.3812 44.8778 21.35
v -52.0283 23.2845 -21.45
v -55.5982 40.3338 -21.45
v 21.4951 33.6893 21.35
v 36.7575 -42.0412 -21.45
v 29.9204 -8.11625 21.35
v 19.0493 -8.1609 21.35
v 22.4907 0.815634 -21.45
v 23.0398 26.0251 -21.45
v 5.34185 27.8238 -21.45
v 5.34185 27.8238 21.35
v 55.6937 -35.8009 21.35
v 17.2935 54.5375 21.35
v 22.4907 0.815634 21.35
v -39.2678 -37.6579 21.35
v 55.6937 -35.9797 21.35
v 26.1365 10.3256 -21.45
v 39.7942 -41.5223 -21.45
v 29.9204 -8.11625 -21.45
v -39.2678 -37.6579 -21.45
v 21.4951 33.6893 -21.45
v -52.0283 23.2845 21.35
v 31.7971 -17.4281 -21.45
v 37.1983 54.5375 21.35
v 37.1983 54.5375 -21.45
vn 0 0 1
vn 0 0 1
vn 0 0 1
vn 0 0 1
vn 0 0 1
vn 0 -1 0
vn 0 -1 0
vn -0.9999999999999999 0 0
vn -0.9999999999999999 0 0
vn 0 0 -0.9999999999999999
vn 0 0 -0.9999999999999999
vn 0 0 -1
vn 0 0 -1
vn 0 0 -1
vn 0 0 -1
vn 0 0 -1
vn 0 0 -1
vn 0 0 1
vn 0 0 1
vn 0 0 1
vn 0 0 1
vn 0 0 1
vn 0 0 1
vn 0 0 0.9999999999999999
vn 0 0 0.9999999999999999
vn 0 0 -1
vn 0 0 -1
vn 0 0 -1
vn 0 0 -1
vn 0 0 -1
vn -0.9796824013545059 -0.20055521054380246 0
vn -0.9796824013545059 -0.20055521054380246 0
vn -0.9796793315600522 -0.20057020544948737 0
vn -0.9796793315600522 -0.20057020544948737 0
vn 0.9802906164554939 0.197560895141998 0
vn 0.9802906164554939 0.197560895141998 0
vn 0.9802907956661744 0.1975600059024565 0
vn 0.9802907956661744 0.1975600059024565 0
vn 0.9802894938010823 0.19756646563427147 0
vn 0.9802894938010823 0.19756646563427147 0
vn 0.9787739968245354 0.2049425849844892 0
vn 0.9787739968245354 0.2049425849844892 0
vn 0 0 1
vn 0 0 0.9999999999999999
vn 0 0 0.9999999999999999
vn 0 0 1
vn 0 0 0.9999999999999999
vn 0 0 -1
vn 0 0 -1
vn 0 0 1
vn 0 0 1
vn 0 0 -0.9999999999999999
vn 0 0 -1
vn 0 0 -0.9999999999999999
vn 0 0 -0.9999999999999999
vn 0 0 -1
vn 0.2737870787251714 -0.9617903282541038 0
vn 0.2737870787251714 -0.9617903282541038 0
vn 0.9787740241546049 0.2049424544602724 0
vn 0.9787740241546049 0.2049424544602724 0
vn 0.9802878695541459 0.19757452468624087 0
vn 0.9802878695541459 0.19757452468624087 0
vn 0 0 -1
vn 0 0 -1
vn 0 0 -1
vn 0 0 -0.9999999999999999
vn 0 0 -1
vn 0 0 1
vn 0 0 -1
vn 0 0 1
vn 0 0 -1
vn 0 0 1
vn 0 0 -1
vn 0 0 1
vn 0 0 0.9999999999999999
vn 0 0 1
vn 0 0 1
vn 0 0 1
vn -0.14012289719972623 0.9901341190365853 0
vn -0.14012289719972623 0.9901341190365853 0
vn 0.9802894140207857 0.19756686148943275 0
vn 0.9802894140207857 0.19756686148943275 0
vn 0 0 1
vn 0 0 1
vn 0 0 1
vn 0 0 1
vn 0 0 -1
vn 0 0 1
vn 0 0 -1
vn 0 0 -1
vn 0 0 -1
vn 0 0 1
vn 0 0 -1
vn 0 0 1
vn 0 0 1
vn 0 0 1
vn 0 0 -1
vn 0 0 -1
vn -0.933733074004939 0.35797003577015657 0
vn -0.933733074004939 0.35797003577015657 0
vn 0.9802921102048652 0.1975534830624163 0
vn 0.9802921102048652 0.1975534830624163 0
vn 0 0 -1
vn 0 0 -0.9999999999999999
vn 0 0 1
vn 0 0 1
vn 0 0 1
vn 0 0 0.9999999999999999
vn 0 0 1
vn 0 0 -1
vn 0 0 -1
vn 0 0 -1
vn -0.6438528114167774 -0.765149369228461 0
vn -0.6438528114167774 -0.765149369228461 0
vn 0 0 -1
vn 0 0 -1
vn 0 0 -1
vn 0 0 -1
vn 0 0 1
vn 0 0 1
vn 0 0 1
vn 0 0 1
vn -0.8442001330482127 -0.5360281106074383 0
vn -0.8442001330482127 -0.5360281106074383 0
vn 0.21929055810508785 -0.9756595979776754 0
vn 0.21929055810508785 -0.9756595979776754 0
vn 0.9802887420887348 0.19757019545995763 0
vn 0.9802887420887348 0.19757019545995763 0
vn 0 0 -1
vn 0 0 -1
vn -0.1684403311452205 0.9857118518328207 0
vn -0.1684403311452205 0.9857118518328207 0
vn 0.2142593506279089 -0.9767768069874032 0
vn 0.2142593506279089 -0.9767768069874032 0
vn 0 0 1
vn 0 0 1
vn 0 0 1
vn 0 0 1
vn 0 0 -1
vn 0 0 -1
vn 0 0 -1
vn 0 0 -1
vn 0.9999915994830557 0.004098897817721335 0
vn 0.9999915994830557 0.004098897817721335 0
vn 0 0 1
vn 0 0 1
vn 0 0 1
vn 0 0 1
vn 0 0 1
vn 0 0 -1
vn 0 0 -1
vn 0.7862373828200915 0.6179245729506256 0
vn 0.7862373828200915 0.6179245729506256 0
vn 0 0 1
vn 0 0 1
vn -0.1684349322077669 0.9857127743983868 0
vn -0.1684349322077669 0.9857127743983868 0
vn 0 0 -1
vn 0 0 -0.9999999999999999
vn 0 0 -1
vn 0 0 -1
vn 0 0 1
vn 0.9448311285750007 -0.32755783989349185 0
vn 0.9448311285750007 -0.32755783989349185 0
vn 0 0 1
vn 0 0 -1
vn 0.606280886910815 0.7952505807395779 0
vn 0.606280886910815 0.7952505807395779 0
vn -0.9796783724170726 -0.20057489029845096 0
vn -0.9796783724170726 -0.20057489029845096 0
vn 0 0 -1
vn 0 0 -1
vn 0.6454202714321536 -0.7638276462818332 0
vn 0.6454202714321536 -0.7638276462818332 0
vn -0.21429233568076345 0.976769571018919 0
vn -0.21429233568076345 0.976769571018919 0
vn 0.19512520385906915 -0.9807783413284352 0
vn 0.19512520385906915 -0.9807783413284352 0
vn -0.3676853738480577 -0.92995024913068 0
vn -0.3676853738480577 -0.92995024913068 0
vn -0.10619711613251122 -0.9943450973002974 0
vn -0.10619711613251122 -0.9943450973002974 0
vn 0.195130038538179 -0.9807773794598286 0
vn 0.195130038538179 -0.9807773794598286 0
vn 0.15749883760145705 0.9875191725501788 0
vn 0.15749883760145705 0.9875191725501788 0
vn -0.9796779752286459 -0.20057683029677387 0
vn -0.9796779752286459 -0.20057683029677387 0
vn 0.980290317201954 0.19756238002234267 0
vn 0.980290317201954 0.19756238002234267 0
vn -0.12404009312478156 0.9922772068820263 0
vn -0.12404009312478156 0.9922772068820263 0
vn -0.7430418483743085 0.6692449563235355 0
vn -0.7430418483743085 0.6692449563235355 0
vn -0.4513993218236106 0.8923220563547583 0
vn -0.4513993218236106 0.8923220563547583 0
vn -0.9337342831850852 0.3579668817151035 0
vn -0.9337342831850852 0.3579668817151035 0
vn 0.7862419580853628 0.6179187514116193 0
vn 0.7862419580853628 0.6179187514116193 0
vn -0.5444653611300307 0.8387833275223974 0
vn -0.5444653611300307 0.8387833275223974 0
vn -0.6438512672343308 -0.7651506686141929 0
vn -0.6438512672343308 -0.7651506686141929 0
usemtl FF0000
f 104//1 68//1 100//1
f 104//2 100//2 88//2
f 104//3 88//3 37//3
f 104//4 37//4 44//4
f 104//5 44//5 70//5
f 103//6 92//6 68//6
f 103//7 68//7 104//7
f 49//8 20//8 95//8
f 49//9 95//9 91//9
f 91//10 95//10 9//10
f 91//11 9//11 21//11
f 91//12 21//12 72//12
f 91//13 72//13 73//13
f 91//14 73//14 85//14
f 91//15 85//15 39//15
f 91//16 39//16 24//16
f 91//17 24//17 1//17
f 49//18 2//18 25//18
f 49//19 25//19 23//19
f 49//20 23//20 98//20
f 49//21 98//21 102//21
f 49//22 102//22 7//22
f 49//23 7//23 51//23
f 49//24 51//24 8//24
f 49//25 8//25 20//25
f 103//26 45//26 46//26
f 103//27 46//27 35//27
f 103//28 35//28 57//28
f 103//29 57//29 83//29
f 103//30 83//30 92//30
f 91//31 1//31 2//31
f 91//32 2//32 49//32
f 104//33 70//33 45//33
f 104//34 45//34 103//34
f 92//35 83//35 100//35
f 92//36 100//36 68//36
f 73//37 72//37 7//37
f 73//38 7//38 102//38
f 102//39 98//39 85//39
f 102//40 85//40 73//40
f 94//41 75//41 79//41
f 94//42 79//42 99//42
f 99//43 79//43 18//43
f 99//44 18//44 50//44
f 99//45 50//45 19//45
f 99//46 19//46 14//46
f 99//47 14//47 58//47
f 99//48 58//48 56//48
f 99//49 56//49 40//49
f 94//50 42//50 55//50
f 94//51 55//51 60//51
f 94//52 60//52 16//52
f 94//53 16//53 15//53
f 94//54 15//54 22//54
f 94//55 22//55 17//55
f 94//56 17//56 75//56
f 99//57 40//57 42//57
f 99//58 42//58 94//58
f 81//59 82//59 78//59
f 81//60 78//60 101//60
f 83//61 57//61 88//61
f 83//62 88//62 100//62
f 101//63 78//63 80//63
f 101//64 80//64 34//64
f 101//65 34//65 6//65
f 101//66 6//66 5//66
f 101//67 5//67 67//67
f 101//68 67//68 63//68
f 101//69 63//69 76//69
f 101//70 76//70 28//70
f 81//71 27//71 48//71
f 81//72 48//72 64//72
f 81//73 64//73 66//73
f 81//74 66//74 4//74
f 81//75 4//75 3//75
f 81//76 3//76 33//76
f 81//77 33//77 32//77
f 81//78 32//78 82//78
f 101//79 28//79 27//79
f 101//80 27//80 81//80
f 98//81 23//81 39//81
f 98//82 39//82 85//82
f 44//83 37//83 77//83
f 44//84 77//84 96//84
f 44//85 23//85 25//85
f 44//86 25//86 70//86
f 46//87 39//87 86//87
f 46//88 86//88 93//88
f 46//89 93//89 54//89
f 16//90 60//90 59//90
f 16//91 59//91 86//91
f 44//92 96//92 87//92
f 44//93 87//93 38//93
f 44//94 38//94 23//94
f 14//95 38//95 71//95
f 14//96 71//96 58//96
f 46//97 54//97 36//97
f 46//98 36//98 35//98
f 16//99 86//99 38//99
f 16//100 38//100 14//100
f 57//101 35//101 37//101
f 57//102 37//102 88//102
f 54//103 93//103 30//103
f 54//104 30//104 36//104
f 4//105 66//105 65//105
f 4//106 65//106 31//106
f 4//107 31//107 89//107
f 96//108 77//108 31//108
f 96//109 31//109 87//109
f 5//110 90//110 30//110
f 5//111 30//111 74//111
f 5//112 74//112 67//112
f 5//113 4//113 89//113
f 5//114 89//114 90//114
f 93//115 86//115 59//115
f 93//116 59//116 13//116
f 93//117 13//117 74//117
f 93//118 74//118 30//118
f 87//119 31//119 65//119
f 87//120 65//120 11//120
f 87//121 11//121 71//121
f 87//122 71//122 38//122
f 89//123 31//123 30//123
f 89//124 30//124 90//124
f 82//125 32//125 80//125
f 82//126 80//126 78//126
f 84//127 51//127 21//127
f 84//128 21//128 61//128
f 61//129 21//129 9//129
f 61//130 9//130 10//130
f 75//131 17//131 18//131
f 75//132 18//132 79//132
f 59//133 53//133 52//133
f 59//134 52//134 71//134
f 71//135 52//135 41//135
f 71//136 41//136 56//136
f 71//137 56//137 58//137
f 65//138 12//138 11//138
f 74//139 62//139 69//139
f 74//140 69//140 63//140
f 74//141 63//141 67//141
f 74//142 13//142 62//142
f 59//143 71//143 11//143
f 59//144 11//144 13//144
f 66//145 64//145 47//145
f 66//146 47//146 12//146
f 66//147 12//147 65//147
f 64//148 48//148 29//148
f 64//149 29//149 47//149
f 63//150 69//150 26//150
f 63//151 26//151 76//151
f 62//152 12//152 47//152
f 62//153 47//153 69//153
f 84//154 97//154 8//154
f 84//155 8//155 51//155
f 61//156 10//156 97//156
f 61//157 97//157 84//157
f 60//158 55//158 43//158
f 60//159 43//159 53//159
f 60//160 53//160 59//160
f 55//161 42//161 43//161
f 56//162 41//162 40//162
f 53//163 43//163 41//163
f 53//164 41//164 52//164
f 48//165 27//165 29//165
f 76//166 26//166 28//166
f 69//167 47//167 29//167
f 69//168 29//168 26//168
f 70//169 25//169 24//169
f 70//170 24//170 45//170
f 45//171 24//171 39//171
f 45//172 39//172 46//172
f 42//173 40//173 41//173
f 42//174 41//174 43//174
f 86//175 39//175 23//175
f 86//176 23//176 38//176
f 35//177 36//177 77//177
f 35//178 77//178 37//178
f 33//179 3//179 6//179
f 33//180 6//180 34//180
f 80//181 32//181 33//181
f 80//182 33//182 34//182
f 36//183 30//183 31//183
f 36//184 31//184 77//184
f 28//185 26//185 29//185
f 28//186 29//186 27//186
f 25//187 2//187 1//187
f 25//188 1//188 24//188
f 51//189 7//189 72//189
f 51//190 72//190 21//190
f 95//191 20//191 8//191
f 95//192 8//192 9//192
f 22//193 15//193 19//193
f 22//194 19//194 50//194
f 17//195 22//195 50//195
f 17//196 50//196 18//196
f 15//197 16//197 14//197
f 15//198 14//198 19//198
f 13//199 11//199 12//199
f 13//200 12//200 62//200
f 9//201 8//201 97//201
f 9//202 97//202 10//202
f 6//203 3//203 4//203
f 6//204 4//204 5//204
