COFF
226 389 0

6.473 2.283 2.81311
6.21101 2.539 3.31395
6.16201 2.489 3.3132
2.46001 4.413 5.0868
1.00801 5.81 5.02768
3.279 5.264 3.58933
-6.473 -1.614 -1.15205
-1.98999 -5.81 -1.07826
-1.19756 -5.0522 3.17031
1.41019 -2.5585 3.04887
5.95843 2.6849 3.69949
2.09161 2.4586 7.2283
4.3191 0.2233 2.91341
1.72958 -0.2069 5.00783
-0.99953 -0.6603 7.21515
5.85907 1.6959 2.8417
4.87042 2.6213 4.6924
6.1184 1.9439 2.82962
5.36387 2.6501 4.24209
-3.36448 1.4708 7.21952
-1.4327 -5.2771 2.78419
-5.92613 -1.0713 2.93118
-1.52991 -5.37 -1.03341
-6.12214 -1.2658 -1.1173
-0.22502 4.5864 7.22842
-1.80799 3.0155 4.98818
-1.4327 -5.2771 -0.898428
-5.92613 -1.0713 -0.839904
1.85489 0.7157 5.77641
-5.92613 -1.0713 -1.09789
-1.4327 -5.2771 -1.02394
0.7136 -0.3757 5.82956
1.29963 0.1847 5.00544
2.69512 4.6573 4.65692
2.94359 4.9155 4.20262
-6.38649 -1.695 -1.15063
-6.0337 -1.3449 -1.11569
-3.27639 1.3914 7.21936
-5.83963 -1.1523 2.92835
-0.13773 4.5062 7.22841
-1.72034 2.9356 4.98867
-5.83963 -1.1523 -0.841031
1.09335 5.7279 5.03116
-5.83963 -1.1523 -1.09647
-1.1828 -4.725 3.47163
-2.13723 -5.6722 -1.08069
-1.68926 -5.2276 -1.03632
-1.59037 -5.1295 2.78935
-1.59037 -5.1295 -0.896375
-1.59037 -5.1295 -1.02653
1.47403 -2.0884 3.44043
3.69982 0.1204 3.41429
5.56489 1.9712 3.39238
5.81938 2.2238 3.38939
6.12374 2.5258 3.38582
-4.98495 -0.3041 4.35913
-5.07028 -0.222 4.36392
-1.14991 -3.9955 4.14352
-0.79342 -4.3386 3.46706
-0.62294 -4.5027 3.14355
-6.22994 -1.8415 -1.14805
-5.87364 -1.4879 -1.11277
-5.68307 -1.2988 2.92323
0.02026 4.3611 7.2284
-3.11695 1.2478 7.21906
-1.56173 2.7911 4.98955
-5.68307 -1.2988 -0.84307
-5.68307 -1.2988 -1.09389
1.24781 5.5793 5.03744
-4.83052 -0.4527 4.35044
-4.6818 -2.236 2.89048
-3.82708 -1.4186 4.29403
-2.047 0.2836 7.21709
-0.46733 1.7943 4.99563
-4.85322 -2.3999 -1.09412
-5.2391 -2.7689 -1.13174
1.14071 3.332 7.22835
-4.6818 -2.236 -0.856111
-4.6818 -2.236 -1.07741
2.36586 4.5036 5.08297
4.23639 4.3425 3.62869
3.89974 4.0205 4.21821
-0.99974 -0.6647 7.21102
-3.79925 -3.3419 -1.07487
-4.20866 -3.7334 -1.11478
-3.65136 -3.2004 2.85677
0.57695 0.843 5.00142
-0.9941 -0.6593 7.21075
-3.65136 -3.2004 -0.869531
-3.65136 -3.2004 -1.06045
3.6404 3.7725 4.67234
2.2778 2.4695 7.05839
2.06553 2.2665 7.06827
-2.8109 -2.3967 4.2369
-1.97043 2.3856 5.57546
-2.12699 2.5321 5.57162
0.13211 0.4176 5.62701
1.62466 -0.9794 4.36431
0.93955 -0.3381 5.64681
2.12227 -1.4451 3.43281
-2.21349 2.613 5.5695
0.8452 -0.2498 5.82343
0.8452 -0.2498 5.64449
-0.89833 1.3821 5.60174
2.35077 -1.659 3.00507
3.38769 3.5309 5.11485
4.36353 2.5916 5.15498
5.29071 1.6992 3.3956
2.46541 4.4186 5.07693
5.57565 1.4249 2.8549
0.73888 5.0742 5.9458
0.58233 5.2207 5.94325
0.49582 5.3017 5.94184
1.86266 4.0224 5.96413
3.44854 2.538 5.98999
2.8931 3.0579 5.98093
4.83159 1.2435 3.40099
5.11177 0.9813 2.8765
-5.4764 -1.4922 2.91647
-4.61068 -0.6644 4.33808
-2.85652 1.0131 7.21858
-1.2726 2.5278 4.99115
1.58209 5.2577 5.05105
1.06806 4.7661 5.95117
0.33868 4.0686 7.22839
-5.66597 -1.6735 -1.10897
-6.0337 -2.0252 -1.14482
-1.69294 2.1258 5.58226
-5.4764 -1.4922 -0.845761
-5.4764 -1.4922 -1.09049
5.42495 2.6537 4.18635
5.70359 2.9302 3.68902
-2.56317 -5.2735 -1.0877
-2.12473 -4.8384 -1.04428
-2.0163 -4.7308 2.80329
-2.0163 -4.7308 -0.890827
-2.0163 -4.7308 -1.03354
4.40565 1.6422 4.19832
4.87056 2.1036 4.19286
-1.14404 -3.8652 4.2635
1.60296 -1.1391 4.23123
1.69634 -1.0465 4.23014
5.13896 2.3699 4.18971
5.39344 2.6224 4.18672
-1.21357 -3.9342 4.1471
2.70577 -0.0447 4.21828
4.93962 3.6656 3.6576
4.61284 3.3531 4.22984
-1.06332 -2.0749 5.9123
-2.93827 -3.8679 2.83344
-2.10768 -3.0736 4.19736
-3.06987 -3.9937 -1.06155
-3.49556 -4.4008 -1.10304
-2.93827 -3.8679 -0.878819
-2.93827 -3.8679 -1.04872
4.3535 3.1051 4.68397
4.09092 2.854 5.14377
3.78085 2.5575 5.68672
3.6062 2.3905 5.69486
-5.26455 -0.4148 4.03869
-5.17805 -0.4957 4.03586
-4.8022 -0.8475 4.02357
-4.0076 -1.5913 3.99758
-1.16162 -4.255 3.90448
-2.97717 -2.5557 3.96387
-2.26407 -3.2232 3.94054
-0.92879 -4.473 3.46865
-0.7585 -4.6323 3.14987
-1.35472 -4.0743 3.9108
-5.0215 -0.6423 4.03074
6.473 2.283 -7.22842
6.21101 2.539 -7.22842
6.16201 2.489 -7.22842
6.12374 2.5258 -7.22842
2.46001 4.413 -7.22842
2.36586 4.5036 -7.22842
1.00801 5.81 -7.22842
0.49582 5.3017 -7.22842
3.279 5.264 -7.22842
2.94359 4.9155 -7.22842
-6.473 -1.614 -7.22842
-6.38649 -1.695 -7.22842
-1.98999 -5.81 -7.22842
-1.52991 -5.37 -7.22842
-1.19756 -5.0522 -7.22842
-0.7585 -4.6323 -7.22842
1.41019 -2.5585 -7.22842
2.35077 -1.659 -7.22842
4.3191 0.2233 -7.22842
5.11177 0.9813 -7.22842
5.85907 1.6959 -7.22842
6.1184 1.9439 -7.22842
5.95843 2.6849 -7.22842
5.70359 2.9302 -7.22842
-1.4327 -5.2771 -7.22842
-6.12214 -1.2658 -7.22842
-1.80799 3.0155 -7.22842
-2.21349 2.613 -7.22842
-0.22502 4.5864 -7.22842
-3.36448 1.4708 -7.22842
-5.07028 -0.222 -7.22842
2.69512 4.6573 -7.22842
2.46541 4.4186 -7.22842
-6.22994 -1.8415 -7.22842
1.09335 5.7279 -7.22842
-2.13723 -5.6722 -7.22842
-5.92613 -1.0713 -7.22842
-5.26455 -0.4148 -7.22842
-0.62294 -4.5027 -7.22842
-6.0337 -2.0252 -7.22842
1.24781 5.5793 -7.22842
-5.2391 -2.7689 -7.22842
-4.20866 -3.7334 -7.22842
1.58209 5.2577 -7.22842
4.23639 4.3425 -7.22842
-3.49556 -4.4008 -7.22842
5.57565 1.4249 -7.22842
4.93962 3.6656 -7.22842
-2.56317 -5.2735 -7.22842
2.46001 4.413 -7.22842
1.00801 5.81 -7.22842
3.279 5.264 -7.22842
-6.473 -1.614 -7.22842
-1.98999 -5.81 -7.22842
-1.4327 -5.2771 -7.22842
-5.92613 -1.0713 -7.22842
3  36 23 6  0 0 255
3  140 148 139  0 255 255
3  97 140 141  0 255 255
3  16 106 138  0 255 255
3  101 31 98  0 255 255
3  143 18 16  0 255 255
3  18 143 130  0 255 255
3  19 37 95  255 128 255
3  38 21 27  255 255 0
3  23 36 43  0 0 255
3  39 111 112  255 128 0
3  63 65 121  128 255 255
3  41 27 29  255 255 0
3  20 8 44  255 255 128
3  102 31 101  192 0 0
3  16 18 147  255 128 0
3  130 147 18  255 128 0
3  36 35 60  0 0 255
3  64 94 95  255 128 255
3  62 38 41  255 255 0
3  43 36 61  0 0 255
3  39 63 110  255 128 0
3  39 24 25  128 255 255
3  66 41 43  255 255 0
3  160 55 56  255 255 128
3  45 7 22  0 0 255
3  48 26 20  255 255 0
3  22 30 49  0 0 255
3  49 30 26  255 255 0
3  59 9 50  0 255 255
3  50 9 104  0 255 255
3  15 52 107  0 255 255
3  15 17 53  0 255 255
3  0 1 2  0 255 255
3  69 169 161  255 255 128
3  37 19 56  255 255 128
3  44 166 163  0 255 255
3  44 8 167  0 255 255
3  120 64 69  255 255 128
3  132 133 151  0 0 255
3  153 135 134  255 255 0
3  151 133 136  0 0 255
3  156 106 16  255 128 0
3  154 136 135  255 255 0
3  37 55 69  255 255 128
3  63 39 40  128 255 255
3  69 55 160  255 255 128
3  72 82 14  255 255 128
3  126 75 74  0 0 255
3  120 72 103  255 128 255
3  128 77 70  255 255 0
3  74 78 129  0 0 255
3  124 76 113  255 128 0
3  129 78 77  255 255 0
3  76 92 11  128 255 255
3  71 162 164  255 255 128
3  5 34 81  255 128 0
3  83 74 75  0 0 255
3  87 103 72  255 128 255
3  85 70 77  255 255 0
3  89 78 74  0 0 255
3  90 33 108  255 128 0
3  88 77 78  255 255 0
3  87 14 82  0 255 255
3  91 11 92  0 255 255
3  34 33 90  255 128 0
3  144 57 139  255 255 128
3  86 32 28  128 255 255
3  57 144 168  255 255 128
3  65 40 95  255 128 255
3  97 13 98  0 255 255
3  97 141 145  0 255 255
3  98 13 28  0 255 255
3  40 25 100  255 128 255
3  28 32 102  192 0 0
3  103 73 121  255 128 255
3  86 73 103  255 128 255
3  12 51 99  0 255 255
3  115 91 114  255 128 0
3  145 28 13  0 255 255
3  91 113 76  255 128 0
3  12 117 116  0 255 255
3  42 111 110  255 128 0
3  42 4 112  255 128 0
3  113 79 122  255 128 0
3  106 156 157  255 128 0
3  106 158 137  0 255 255
3  3 113 115  255 128 0
3  107 116 117  0 255 255
3  119 71 72  255 255 128
3  68 110 123  255 128 0
3  73 76 124  128 255 255
3  125 61 60  0 0 255
3  94 64 120  255 128 255
3  118 62 66  255 255 0
3  67 61 125  0 0 255
3  110 63 124  255 128 0
3  128 66 67  255 255 0
3  121 65 94  255 128 255
3  71 119 161  255 255 128
3  130 10 131  255 128 0
3  45 46 133  0 0 255
3  135 48 47  255 255 0
3  46 49 136  0 0 255
3  136 49 48  255 255 0
3  137 116 107  0 255 255
3  58 139 57  0 255 255
3  50 99 141  0 255 255
3  138 107 52  0 255 255
3  52 53 143  0 255 255
3  10 143 53  0 255 255
3  82 93 150  255 255 128
3  150 93 164  255 255 128
3  141 99 51  0 255 255
3  51 116 137  0 255 255
3  80 81 147  255 128 0
3  139 148 150  255 255 128
3  144 150 165  255 255 128
3  83 84 152  0 0 255
3  102 96 87  255 128 255
3  149 85 88  255 255 0
3  89 83 151  0 0 255
3  90 105 156  255 128 0
3  153 88 89  255 255 0
3  157 156 105  255 128 0
3  114 158 157  0 255 255
3  31 87 82  0 255 255
3  147 81 90  255 128 0
3  32 86 96  255 128 255
3  28 158 114  0 255 255
3  38 160 159  255 255 128
3  118 70 162  255 255 128
3  85 149 165  255 255 128
3  166 58 57  0 255 255
3  58 166 167  0 255 255
3  149 134 168  255 255 128
3  62 169 160  255 255 128
3  70 85 164  255 255 128
3  44 168 134  255 255 128
3  62 118 161  255 255 128
3  171 1 0  128 0 255
3  1 171 172  0 192 0
3  173 54 2  128 0 255
3  3 174 175  255 128 128
3  177 112 4  255 0 255
3  179 34 5  128 255 128
3  180 181 35  128 128 255
3  182 183 22  255 0 0
3  184 185 167  255 0 0
3  186 187 104  255 0 0
3  188 189 117  255 0 0
3  190 191 17  255 0 0
3  191 170 0  255 0 0
3  10 192 193  128 0 255
3  183 194 30  255 0 0
3  23 195 180  255 0 255
3  197 100 25  255 0 255
3  24 198 196  255 0 255
3  19 199 200  255 0 255
3  202 108 33  128 255 128
3  201 33 34  128 255 128
3  181 203 60  128 128 255
3  42 204 176  255 128 128
3  205 182 7  128 128 255
3  192 10 54  128 0 255
3  29 206 195  255 0 255
3  224 184 8  255 0 0
3  56 200 207  255 0 255
3  208 186 9  255 0 0
3  203 209 126  128 128 255
3  68 210 204  255 128 128
3  211 212 84  128 128 255
3  79 175 213  255 128 128
3  80 214 178  128 0 255
3  212 215 152  128 128 255
3  199 19 100  255 0 255
3  187 188 12  255 0 0
3  174 3 108  128 255 128
3  216 190 15  255 0 0
3  198 24 112  255 0 255
3  189 216 109  255 0 0
3  122 213 210  255 128 128
3  209 211 75  128 128 255
3  131 193 217  128 0 255
3  218 205 45  128 128 255
3  146 217 214  128 0 255
3  215 218 132  128 128 255
3  159 207 225  255 0 255
3  185 208 59  255 0 0
3  219 223 222  0 255 0
3  6 35 36  0 0 255
3  31 148 140  0 255 255
3  98 31 140  0 255 255
3  97 98 140  0 255 255
3  138 142 16  0 255 255
3  16 142 143  0 255 255
3  95 100 19  255 128 255
3  27 41 38  255 255 0
3  43 29 23  0 0 255
3  112 24 39  255 128 0
3  121 124 63  128 255 255
3  29 43 41  255 255 0
3  44 47 20  255 255 128
3  147 155 16  255 128 0
3  146 147 130  255 128 0
3  131 146 130  255 128 0
3  60 61 36  0 0 255
3  95 37 64  255 128 255
3  41 66 62  255 255 0
3  61 67 43  0 0 255
3  110 111 39  255 128 0
3  25 40 39  128 255 255
3  43 67 66  255 255 0
3  56 159 160  255 255 128
3  22 46 45  0 0 255
3  20 47 48  255 255 0
3  49 46 22  0 0 255
3  26 48 49  255 255 0
3  50 58 59  0 255 255
3  104 99 50  0 255 255
3  107 109 15  0 255 255
3  53 52 15  0 255 255
3  17 0 2  0 255 255
3  53 17 2  0 255 255
3  54 53 2  0 255 255
3  161 119 69  255 255 128
3  56 55 37  255 255 128
3  167 166 44  0 255 255
3  69 119 120  255 255 128
3  151 152 132  0 0 255
3  134 149 153  255 255 0
3  136 154 151  0 0 255
3  16 155 156  255 128 0
3  135 153 154  255 255 0
3  69 64 37  255 255 128
3  40 65 63  128 255 255
3  160 169 69  255 255 128
3  93 82 72  255 255 128
3  71 93 72  255 255 128
3  74 125 126  0 0 255
3  103 127 120  255 128 255
3  70 118 128  255 255 0
3  129 125 74  0 0 255
3  113 123 124  255 128 0
3  77 128 129  255 255 0
3  73 92 76  128 255 255
3  86 92 73  128 255 255
3  164 93 71  255 255 128
3  81 80 5  255 128 0
3  75 84 83  0 0 255
3  96 103 87  255 128 255
3  14 87 72  255 128 255
3  77 88 85  255 255 0
3  74 83 89  0 0 255
3  108 105 90  255 128 0
3  78 89 88  255 255 0
3  90 81 34  255 128 0
3  28 92 86  128 255 255
3  168 163 57  255 255 128
3  95 94 65  255 128 255
3  145 13 97  0 255 255
3  28 101 98  0 255 255
3  100 95 40  255 128 255
3  102 101 28  192 0 0
3  121 127 103  255 128 255
3  103 96 86  255 128 255
3  99 104 12  0 255 255
3  158 28 145  0 255 255
3  137 158 145  0 255 255
3  115 113 91  255 128 0
3  11 91 76  255 128 0
3  116 51 12  0 255 255
3  110 68 42  255 128 0
3  112 111 42  255 128 0
3  122 123 113  255 128 0
3  157 158 106  0 255 255
3  138 106 137  0 255 255
3  79 113 3  255 128 0
3  105 3 115  255 128 0
3  108 3 105  255 128 0
3  117 109 107  0 255 255
3  72 120 119  255 255 128
3  123 122 68  255 128 0
3  124 121 73  128 255 255
3  60 126 125  0 0 255
3  120 127 94  255 128 255
3  66 128 118  255 255 0
3  125 129 67  0 0 255
3  124 123 110  255 128 0
3  67 129 128  255 255 0
3  94 127 121  255 128 255
3  161 162 71  255 255 128
3  133 132 45  0 0 255
3  47 134 135  255 255 0
3  136 133 46  0 0 255
3  48 135 136  255 255 0
3  107 138 137  0 255 255
3  50 139 58  0 255 255
3  140 139 50  0 255 255
3  141 140 50  0 255 255
3  52 142 138  0 255 255
3  143 142 52  0 255 255
3  130 143 10  0 255 255
3  54 10 53  0 255 255
3  150 148 82  255 255 128
3  164 165 150  255 255 128
3  51 145 141  0 255 255
3  137 145 51  0 255 255
3  147 146 80  255 128 0
3  150 144 139  255 255 128
3  165 168 144  255 255 128
3  152 151 83  0 0 255
3  87 31 102  255 128 255
3  88 153 149  255 255 0
3  151 154 89  0 0 255
3  156 155 90  255 128 0
3  89 154 153  255 255 0
3  115 157 105  255 128 0
3  114 157 115  255 128 0
3  82 148 31  0 255 255
3  90 155 147  255 128 0
3  96 102 32  255 128 255
3  92 28 114  0 255 255
3  91 92 114  0 255 255
3  159 21 38  255 255 128
3  162 161 118  255 255 128
3  165 164 85  255 255 128
3  57 163 166  0 255 255
3  167 59 58  0 255 255
3  168 165 149  255 255 128
3  160 38 62  255 255 128
3  164 162 70  255 255 128
3  163 168 44  255 255 128
3  47 44 134  255 255 128
3  161 169 62  255 255 128
3  0 170 171  128 0 255
3  172 2 1  0 192 0
3  2 172 173  128 0 255
3  175 79 3  255 128 128
3  4 176 177  255 0 255
3  5 178 179  128 255 128
3  35 6 180  128 128 255
3  22 7 182  255 0 0
3  167 8 184  255 0 0
3  104 9 186  255 0 0
3  117 12 188  255 0 0
3  17 15 190  255 0 0
3  0 17 191  255 0 0
3  193 131 10  128 0 255
3  30 22 183  255 0 0
3  180 6 23  255 0 255
3  25 196 197  255 0 255
3  196 25 24  255 0 255
3  200 56 19  255 0 255
3  33 201 202  128 255 128
3  34 179 201  128 255 128
3  60 35 181  128 128 255
3  176 4 42  255 128 128
3  7 45 205  128 128 255
3  54 173 192  128 0 255
3  195 23 29  255 0 255
3  8 20 224  255 0 0
3  207 159 56  255 0 255
3  9 59 208  255 0 0
3  126 60 203  128 128 255
3  204 42 68  255 128 128
3  84 75 211  128 128 255
3  213 122 79  255 128 128
3  178 5 80  128 0 255
3  152 84 212  128 128 255
3  100 197 199  255 0 255
3  12 104 187  255 0 0
3  108 202 174  128 255 128
3  15 109 216  255 0 0
3  112 177 198  255 0 255
3  109 117 189  255 0 0
3  210 68 122  255 128 128
3  75 126 209  128 128 255
3  217 146 131  128 0 255
3  45 132 218  128 128 255
3  214 80 146  128 0 255
3  132 152 215  128 128 255
3  225 21 159  255 0 255
3  59 167 185  255 0 0
3  172 223 219  0 255 0
3  170 223 172  0 255 0
3  171 170 172  0 255 0
3  221 172 219  0 255 0
3  220 219 222  0 255 0

