OFF
54 51 0

2.46002 4.41301 1.01553
2.46002 4.41301 5.08679
2.46002 4.41301 -0.388946
2.46002 4.41301 -7.32842
5.33592 1.64605 -7.32842
5.57063 1.42023 -7.32842
5.57063 1.42023 -0.341231
5.57063 1.42023 1.15328
5.57063 1.42023 2.85526
4.35375 2.59102 5.1639
-6.47301 -1.61401 -1.61385
-1.98999 -5.80999 -1.67217
-6.12215 -1.26582 -1.11731
-1.52996 -5.37006 -1.03342
-4.29086 -2.60188 -0.861179
-1.4327 -5.27706 -0.898382
-5.92613 -1.07129 -0.839893
-1.80799 3.01548 4.98817
-0.250364 1.59663 4.99683
1.72957 -0.206896 5.00783
1.41016 -2.55843 3.04892
6.42425 2.23654 -0.258018
1.008 5.81003 -0.411219
-5.92613 -1.07129 -1.09789
1.008 5.81003 0.951231
-1.44106 -5.26923 -7.32842
-1.44106 -5.26923 -1.02408
-1.4327 -5.27706 -1.02394
-0.999533 -0.660244 7.21516
-1.76151 0.0263816 7.21656
-3.36449 1.47084 7.21953
-6.47301 -1.61401 -1.15205
-4.29086 -2.60188 -1.07098
-1.98999 -5.80999 -1.07826
-1.4327 -5.27706 -7.32842
1.28879 3.19598 7.22834
-1.4327 -5.27706 2.78419
-5.92613 -1.07129 -7.32842
-5.92613 -1.07129 2.93119
-0.225033 4.58638 7.22841
2.09162 2.45861 7.2283
-4.29086 -2.60188 2.8777
1.008 5.81003 5.02766
1.008 5.81003 -7.32842
3.27901 5.26402 -7.32842
3.27901 5.26402 3.58931
5.9584 2.68495 3.69952
-1.19757 -5.0522 3.1703
-4.29086 -2.60188 -7.32842
6.42425 2.23654 2.81553
4.31895 0.223241 2.91352
-1.98999 -5.80999 -7.32842
-6.47301 -1.61401 -7.32842
6.42425 2.23654 -7.32842
4  53 5 6 21  127 0 255
5  53 44 3 4 5  127 0 255
6  53 21 49 46 45 44  127 0 255
6  51 34 25 48 37 52  255 0 0
5  52 37 23 12 10  255 0 0
5  51 11 13 27 34  255 0 0
4  52 10 11 51  255 0 0
5  49 21 6 7 8  127 0 255
4  49 8 9 46  127 0 255
4  47 20 15 36  127 255 0
4  47 28 19 20  127 255 0
5  47 36 41 29 28  127 255 0
4  43 37 48 3  255 0 0
5  8 50 19 40 9  255 0 0
4  5 34 27 6  255 0 0
4  5 4 25 34  255 0 0
3  8 7 50  255 0 0
4  43 22 23 37  255 0 0
4  43 3 2 22  255 0 0
4  38 30 29 41  127 255 0
4  38 16 17 30  127 255 0
4  38 41 14 16  127 255 0
4  36 15 14 41  127 255 0
4  42 24 0 1  255 0 0
4  42 39 17 24  255 0 0
4  9 40 35 1  255 0 0
4  42 1 35 39  255 0 0
4  48 25 4 3  255 0 0
5  15 27 26 32 14  255 0 0
4  14 32 23 16  255 0 0
6  20 50 7 6 27 15  255 0 0
3  20 19 50  255 0 0
4  40 19 18 35  255 0 0
4  46 9 1 45  127 0 255
6  1 0 2 3 44 45  127 0 255
5  16 23 22 24 17  255 0 0
4  35 18 17 39  255 0 0
3  31 10 12  0 255 255
4  33 11 10 31  0 255 255
3  33 13 11  0 255 255
4  33 31 12 13  0 255 255
6  27 13 12 23 32 26  255 0 0
4  18 29 30 17  127 255 0
4  19 28 29 18  127 255 0
4  2 0 24 22  255 0 0
7  20 15 14 16 17 18 19  255 0 0
7  15 20 19 18 17 16 14  127 255 0
4  13 11 10 12  255 0 0
4  11 13 12 10  0 255 255
10  9 1 0 2 3 4 5 6 7 8  255 0 0
10  1 9 8 7 6 5 4 3 2 0  127 0 255

