NOFF
439 190 0
83.36668 137.2155 4.064529 0.572053 -0.56946 0.590315 
83.10469 137.4715 4.565363 0.572051 -0.569461 0.590314 
83.05569 137.4215 4.564614 0.572217 -0.569391 0.590222 
79.35369 139.3455 6.338216 0.531219 0.578314 0.61916 
77.90169 140.7425 6.279098 0.531138 0.578353 0.619193 
80.17268 140.1965 4.840744 0.531215 0.578311 0.619167 
70.42068 133.3185 0.09936783 -0.0563982 -0.0427044 0.997495 
74.90369 129.1225 0.1731535 -0.0563916 -0.042712 0.997495 
75.69612 129.8803 4.421729 0.572074 -0.569418 0.590334 
78.30387 132.374 4.300292 0.572021 -0.569413 0.59039 
82.85211 137.6174 4.950912 0.57202 -0.569497 0.590311 
78.98529 137.3911 8.479715 0.572045 -0.569442 0.59034 
81.21278 135.1558 4.164832 0.572056 -0.569479 0.590293 
78.62326 134.7256 6.259243 0.572047 -0.569459 0.590321 
75.89415 134.2722 8.46657 0.57594 -0.574438 0.581648 
82.75275 136.6284 4.093119 0.572057 -0.56947 0.590301 
81.7641 137.5538 5.943817 0.572038 -0.569465 0.590324 
83.01208 136.8764 4.081042 0.572057 -0.569458 0.590313 
82.25755 137.5826 5.493508 0.572063 -0.569463 0.590301 
75.69612 129.8803 4.421729 -0.511866 -0.569327 0.643319 
82.85211 137.6174 4.950912 0.53121 0.578326 0.619157 
75.89415 134.2722 8.46657 0.47523 0.525932 0.705374 
73.5292 136.4033 8.47094 0.478611 0.529503 0.700399 
75.46098 129.6554 4.035612 0.68339 0.730054 0 
70.96755 133.8612 4.1826 0.683583 0.729872 0 
75.36377 129.5625 0.2180038 -0.0564001 -0.0427198 0.997494 
70.77154 133.6667 0.1341127 -0.0564098 -0.0426977 0.997494 
78.98529 137.3911 8.479715 0.531204 0.578305 0.619181 
76.66866 139.5189 8.479835 0.531311 0.578229 0.61916 
75.08569 137.948 6.239598 0.478672 0.529457 0.700391 
75.46098 129.6554 0.3529893 0.68339 0.730054 0 
70.96755 133.8612 0.4115134 0.683583 0.729872 0 
78.74857 135.6482 7.027828 0.691109 -0.72275 3.15135e-05 
78.98529 137.3911 8.479715 -0.479632 -0.522256 0.705125 
76.66866 139.5189 8.479835 -0.479725 -0.522158 0.705134 
70.96755 133.8612 0.1535235 0.683583 0.729872 0 
75.46098 129.6554 0.2274809 0.68339 0.730054 0 
77.60728 134.5568 7.080976 0.691287 -0.72258 0 
75.89415 134.2722 8.46657 -0.508625 -0.572462 0.643108 
73.5292 136.4033 8.47094 -0.511969 -0.569277 0.643282 
75.08569 137.948 6.239598 -0.479821 -0.522071 0.705134 
78.19331 135.1172 6.256856 0.691109 -0.722751 3.73248e-05 
81.7641 137.5538 5.943817 0.531204 0.578329 0.619159 
79.5888 139.5898 5.908342 0.531198 0.5783 0.619191 
82.25755 137.5826 5.493508 0.531197 0.578343 0.619152 
79.83727 139.848 5.454038 0.531216 0.578303 0.619173 
70.50719 133.2375 0.1007916 -0.0563954 -0.0427099 0.997495 
70.85998 133.5876 0.1357283 -0.0563994 -0.0427079 0.997494 
73.61729 136.3239 8.470777 0.478487 0.529611 0.700402 
71.05405 133.7802 4.17977 0.68342 0.730026 0 
76.75595 139.4387 8.47983 -0.479679 -0.522201 0.705134 
76.75595 139.4387 8.47983 0.531264 0.578276 0.619157 
75.17334 137.8681 6.240085 0.47864 0.52951 0.700373 
71.05405 133.7802 0.4103868 0.683417 0.730028 0 
77.98703 140.6604 6.282573 0.531154 0.578341 0.619191 
71.05405 133.7802 0.1549473 0.683418 0.730027 0 
73.61729 136.3239 8.470777 -0.511845 -0.569392 0.643279 
75.17334 137.8681 6.240085 -0.479748 -0.522139 0.705133 
75.71088 130.2075 4.723047 0.572012 -0.569496 0.59032 
74.75645 129.2603 0.1707301 -0.0563936 -0.0427106 0.997495 
75.20442 129.7049 0.2150929 -0.0563977 -0.0427157 0.997494 
75.30331 129.803 4.04077 0.683395 0.730049 0 
75.30331 129.803 0.3550429 0.683395 0.730049 0 
75.30331 129.803 0.2248858 0.683395 0.730049 0 
78.36771 132.8441 4.691844 0.572042 -0.569437 0.590347 
80.5935 135.0529 4.665703 0.572048 -0.569461 0.590318 
82.45857 136.9037 4.643799 0.572032 -0.569482 0.590313 
82.71306 137.1563 4.64081 0.572064 -0.569457 0.590306 
83.01742 137.4583 4.637236 0.572077 -0.569467 0.590284 
75.71088 130.2075 4.723047 -0.511868 -0.569349 0.643298 
75.30331 129.803 0.2248858 -0.0564061 -0.0427218 0.997494 
71.05405 133.7802 0.1549473 -0.0563994 -0.0427089 0.997494 
70.96755 133.8612 4.1826 -0.512055 -0.569201 0.643281 
71.05405 133.7802 4.17977 -0.511907 -0.56932 0.643293 
75.46098 129.6554 0.2274809 -0.0564134 -0.0427274 0.997493 
70.96755 133.8612 0.1535235 -0.0564101 -0.0426978 0.997494 
75.30331 129.803 4.04077 -0.511881 -0.569312 0.643321 
75.46098 129.6554 4.035612 -0.511876 -0.56931 0.643326 
71.90873 134.6284 5.610543 -0.511764 -0.569475 0.64327 
71.8234 134.7105 5.61534 -0.511734 -0.569492 0.643279 
75.74377 130.937 5.394934 0.572026 -0.569463 0.590337 
76.10026 130.5939 4.718474 0.572091 -0.569422 0.590314 
76.27074 130.4298 4.39497 0.572002 -0.569497 0.590328 
75.74377 130.937 5.394934 -0.511976 -0.569265 0.643286 
70.66374 133.091 0.1033683 -0.0563936 -0.0427126 0.997495 
71.02004 133.4446 0.1386523 -0.0563916 -0.0427149 0.997495 
71.21061 133.6337 4.174649 0.683252 0.730183 0 
76.91394 139.2936 8.479822 0.531224 0.578311 0.619159 
73.77673 136.1803 8.470482 0.47845 0.529642 0.700404 
75.33195 137.7236 6.240965 0.478539 0.529597 0.700377 
71.21061 133.6337 0.4083477 0.683252 0.730183 0 
71.21061 133.6337 0.157524 -0.0563906 -0.0427161 0.997495 
78.14149 140.5118 6.288862 0.531182 0.578317 0.619189 
71.21061 133.6337 0.157524 0.683252 0.730183 0 
71.21061 133.6337 4.174649 -0.511799 -0.569422 0.643288 
73.77673 136.1803 8.470482 -0.51181 -0.569417 0.643284 
72.06316 134.4798 5.601861 -0.511892 -0.569347 0.643282 
75.33195 137.7236 6.240965 -0.479622 -0.522256 0.705132 
76.91394 139.2936 8.479822 -0.47965 -0.522235 0.705129 
72.21188 132.6965 4.141895 -0.511878 -0.569362 0.643279 
73.0666 133.5139 5.545446 -0.511843 -0.569361 0.643308 
74.84668 135.2161 8.468505 -0.511882 -0.569357 0.643281 
76.42635 136.7268 6.247043 -0.479639 -0.522251 0.705124 
72.04046 132.5326 0.1572934 -0.0563966 -0.0427114 0.997494 
71.65458 132.1636 0.1196765 -0.0563961 -0.0427118 0.997495 
72.21188 132.6965 4.141895 0.683357 0.730085 0 
78.03439 138.2645 8.479764 0.531195 0.578322 0.619173 
76.42635 136.7268 6.247043 0.478511 0.529584 0.700406 
74.84668 135.2161 8.468505 0.478509 0.529588 0.700404 
72.21188 132.6965 0.3953068 0.683356 0.730085 0 
72.21188 132.6965 0.1740039 -0.0563963 -0.0427108 0.997495 
79.25954 139.4361 6.334383 0.531214 0.578312 0.619166 
72.21188 132.6965 0.1740039 0.683357 0.730085 0 
78.03439 138.2645 8.479764 -0.479636 -0.522257 0.705122 
81.13007 139.275 4.880108 0.531179 0.578315 0.619193 
80.79342 138.953 5.469631 0.531189 0.578316 0.619183 
75.89394 134.2678 8.462434 -0.501338 -0.579328 0.642681 
73.09443 131.5906 0.1765474 -0.0563891 -0.0427072 0.997495 
72.68502 131.1991 0.1366365 -0.0563951 -0.0427125 0.997495 
73.24232 131.7321 4.108188 0.683354 0.730087 0 
77.47063 135.7755 6.252842 0.478529 0.529592 0.700387 
75.89958 134.2732 8.462171 0.477399 0.528368 0.702081 
73.24232 131.7321 0.3818861 0.683354 0.730087 0 
73.24232 131.7321 0.1909639 -0.0563841 -0.0427024 0.997496 
80.53408 138.705 5.923758 0.531204 0.578326 0.619162 
79.17148 137.402 8.309807 0.531206 0.578308 0.619177 
73.24232 131.7321 0.1909639 0.683354 0.730087 0 
75.89958 134.2732 8.462171 0.572977 -0.57083 0.588091 
75.89394 134.2678 8.462434 0.57313 -0.571206 0.587576 
79.17148 137.402 8.309807 0.572049 -0.569446 0.590332 
78.95921 137.199 8.319692 0.572048 -0.569449 0.59033 
73.24232 131.7321 4.108188 -0.511876 -0.569364 0.643279 
74.08278 132.5358 5.488316 -0.511873 -0.569361 0.643284 
77.47063 135.7755 6.252842 -0.479645 -0.52224 0.705129 
78.95921 137.199 8.319692 -0.479584 -0.522296 0.705128 
74.92325 137.3181 6.826874 0.478536 0.529592 0.700382 
74.76669 137.4646 6.823036 0.478387 0.529701 0.700402 
77.02579 135.3501 6.878428 0.478517 0.529588 0.700399 
78.51834 133.9531 5.615731 0.57204 -0.569476 0.590312 
77.83323 134.5944 6.898226 0.572081 -0.569461 0.590286 
79.01595 133.4874 4.684231 0.572041 -0.569457 0.590328 
74.68019 137.5455 6.820915 0.478301 0.529761 0.700415 
77.73888 134.6827 7.074847 0.691201 -0.722662 0 
77.73888 134.6827 6.895912 0.691154 -0.722707 1.0546e-05 
75.99535 136.3146 6.853162 0.478504 0.529585 0.70041 
79.24445 133.2735 4.256492 0.572036 -0.569442 0.590348 
80.28137 138.4634 6.366272 0.531204 0.578329 0.619158 
81.25721 137.5241 6.406395 0.531191 0.578321 0.619178 
81.25721 137.5241 6.406395 0.572051 -0.569459 0.590317 
82.18439 136.6317 4.647019 0.572023 -0.569481 0.590322 
79.35909 139.3511 6.328351 0.531204 0.578318 0.619169 
82.46933 136.3574 4.106317 0.572024 -0.569484 0.590319 
77.63256 140.0067 7.197217 0.531173 0.578337 0.619178 
77.47601 140.1532 7.194664 0.531239 0.578281 0.619173 
77.3895 140.2342 7.193254 0.531338 0.578196 0.619168 
78.75634 138.9549 7.215544 0.531198 0.578319 0.619174 
80.34222 137.4705 7.241406 0.531186 0.578311 0.619191 
79.78678 137.9904 7.232348 0.531203 0.57831 0.619177 
80.34222 137.4705 7.241406 0.572075 -0.56948 0.590274 
81.72527 136.176 4.652411 0.572075 -0.569445 0.590307 
82.00545 135.9138 4.127919 0.572077 -0.569461 0.59029 
71.41728 133.4403 4.167888 -0.511849 -0.569391 0.643277 
72.283 134.2681 5.5895 -0.511954 -0.56932 0.643255 
74.03716 135.9456 8.470001 -0.511886 -0.569346 0.643287 
75.62108 137.4603 6.242571 -0.479601 -0.522283 0.705127 
78.47577 140.1902 6.302472 0.53118 0.57832 0.619188 
77.96174 139.6986 7.202586 0.531186 0.578322 0.619181 
77.23236 139.0011 8.479806 -0.479647 -0.522246 0.705123 
71.22771 133.259 0.142446 -0.056392 -0.0427099 0.997495 
70.85998 132.9073 0.1065982 -0.0563939 -0.0427091 0.997495 
71.41728 133.4403 4.167888 0.683319 0.73012 0 
77.23236 139.0011 8.479806 0.53121 0.578314 0.619168 
75.20074 137.0583 6.833678 0.478535 0.529573 0.700397 
74.03716 135.9456 8.470001 0.478535 0.529571 0.700399 
71.41728 133.4403 0.405656 0.68332 0.730119 0 
71.41728 133.4403 0.1609256 -0.056389 -0.0427097 0.997495 
75.62108 137.4603 6.242571 0.478465 0.529616 0.700413 
71.41728 133.4403 0.1609256 0.683319 0.73012 0 
82.31863 137.5862 5.437765 0.57225 -0.569283 0.590293 
82.31863 137.5862 5.437765 0.531033 0.578494 0.619152 
82.59727 137.8627 4.940434 0.531209 0.578319 0.619164 
74.33051 129.659 0.1637196 -0.0563951 -0.0427103 0.997495 
74.76895 130.0941 0.2071376 -0.0563948 -0.0427112 0.997495 
74.87738 130.2017 4.054703 0.683364 0.730078 0 
74.87738 130.2017 0.3605904 0.683364 0.730078 0 
74.87738 130.2017 0.2178753 -0.0563955 -0.0427123 0.997495 
74.87738 130.2017 0.2178753 0.683364 0.730078 0 
81.29933 136.5747 5.449737 0.572051 -0.569447 0.590329 
81.76424 137.0361 5.444276 0.572036 -0.569465 0.590326 
75.74964 131.0673 5.514915 0.572018 -0.569422 0.590384 
78.49664 133.7934 5.482652 0.572013 -0.569553 0.590262 
78.59002 133.886 5.481556 0.571971 -0.569542 0.590314 
82.03264 137.3024 5.441124 0.571981 -0.569504 0.590342 
82.28712 137.5549 5.438135 0.572169 -0.569367 0.590291 
75.74964 131.0673 5.514915 -0.511894 -0.569343 0.643283 
74.87738 130.2017 4.054703 -0.511866 -0.569358 0.643292 
75.68011 130.9983 5.398513 -0.511941 -0.569283 0.643299 
79.59945 134.8878 5.469701 0.572055 -0.569459 0.590313 
81.8333 138.5981 4.909022 0.531215 0.578311 0.619167 
81.50652 138.2856 5.48126 0.531199 0.578322 0.61917 
75.83036 132.8576 7.163722 -0.511875 -0.569355 0.643288 
73.95541 131.0646 4.084862 -0.511876 -0.569362 0.64328 
74.786 131.8589 5.44878 -0.511855 -0.569349 0.643308 
78.74857 135.6482 7.027828 -0.479637 -0.522246 0.70513 
73.82381 130.9388 0.1898718 -0.0563972 -0.0427144 0.997494 
73.39812 130.5317 0.1483733 -0.0563938 -0.0427123 0.997495 
73.95541 131.0646 4.084862 0.683356 0.730085 0 
77.73888 134.6827 6.895912 0.478482 0.529578 0.70043 
77.60728 134.5568 7.080976 0.478488 0.529567 0.700434 
73.95541 131.0646 0.3725984 0.683356 0.730086 0 
73.95541 131.0646 0.2027007 -0.0564018 -0.0427176 0.997494 
81.24718 138.0376 5.935387 0.531177 0.578332 0.619179 
80.9846 137.7865 6.395186 0.531203 0.578322 0.619166 
73.95541 131.0646 0.2027007 0.683356 0.730085 0 
80.67453 137.49 6.938141 0.531176 0.578322 0.61919 
80.67453 137.49 6.938141 0.572045 -0.569482 0.590301 
80.49988 137.323 6.946274 0.572064 -0.569481 0.590284 
77.60728 134.5568 7.080976 0.572123 -0.569442 0.590263 
75.83036 132.8576 7.163722 0.572039 -0.56946 0.590328 
77.73888 134.6827 7.074847 0.572128 -0.569427 0.590274 
78.19331 135.1172 6.256856 -0.479635 -0.522252 0.705126 
78.19331 135.1172 6.256856 0.478528 0.529607 0.700377 
78.74857 135.6482 7.027828 0.57206 -0.569465 0.590303 
71.62913 134.5177 5.29011 -0.511672 -0.56955 0.643277 
71.71563 134.4368 5.287281 -0.511798 -0.569419 0.643293 
72.09148 134.085 5.274986 -0.511876 -0.569378 0.643266 
72.88608 133.3412 5.248993 -0.511856 -0.569358 0.6433 
75.73206 130.6775 5.155897 0.571974 -0.569525 0.590328 
73.91651 132.3768 5.215286 -0.511876 -0.56936 0.643282 
74.62961 131.7093 5.19196 -0.511862 -0.569351 0.643302 
75.96489 130.4595 4.720064 0.572081 -0.569444 0.590303 
76.13518 130.3002 4.401283 0.572043 -0.5695 0.590285 
75.53896 130.8582 5.162213 -0.511845 -0.569393 0.643278 
71.87218 134.2902 5.282159 -0.511868 -0.569319 0.643324 
75.73206 130.6775 5.155897 -0.511828 -0.569423 0.643265 
83.10469 137.4715 4.565363 0.698884 0.715235 0 
83.36668 137.2155 4.064529 0.698884 0.715235 0 
83.36668 137.2155 -5.977 0.698884 0.715235 0 
83.10469 137.4715 -5.977 0.698884 0.715235 0 
83.05569 137.4215 4.564614 -0.714208 0.699933 0 
83.10469 137.4715 4.565363 -0.714208 0.699933 0 
83.10469 137.4715 -5.977 -0.714209 0.699933 0 
83.05569 137.4215 -5.977 -0.714208 0.699933 0 
83.01742 137.4583 4.637236 0.693178 0.720767 0 
83.05569 137.4215 4.564614 0.693178 0.720767 0 
83.05569 137.4215 -5.977 0.693178 0.720767 0 
83.01742 137.4583 -5.977 0.693178 0.720767 0 
79.25954 139.4361 6.334383 0.693341 0.72061 0 
79.35369 139.3455 6.338216 0.693341 0.72061 0 
79.35369 139.3455 -5.977 0.693341 0.72061 0 
79.25954 139.4361 -5.977 0.693341 0.72061 0 
77.3895 140.2342 7.193254 -0.7044 0.709803 0 
77.90169 140.7425 6.279098 -0.7044 0.709803 0 
77.90169 140.7425 -5.977 -0.7044 0.709803 0 
77.3895 140.2342 -5.977 -0.7044 0.709803 0 
79.83727 139.848 5.454038 -0.720503 0.693452 0 
80.17268 140.1965 4.840744 -0.720503 0.693452 0 
80.17268 140.1965 -5.977 -0.720503 0.693452 0 
79.83727 139.848 -5.977 -0.720503 0.693452 0 
70.50719 133.2375 0.1007916 -0.683451 -0.729997 0 
70.42068 133.3185 0.09936783 -0.683451 -0.729997 0 
70.42068 133.3185 -5.977 -0.683451 -0.729997 0 
70.50719 133.2375 -5.977 -0.683451 -0.729997 0 
75.36377 129.5625 0.2180038 0.69116 -0.722702 0 
74.90369 129.1225 0.1731535 0.691159 -0.722702 0 
74.90369 129.1225 -5.977 0.691159 -0.722702 0 
75.36377 129.5625 -5.977 0.691159 -0.722702 0 
76.13518 130.3002 4.401283 0.691171 -0.722692 0 
75.69612 129.8803 4.421729 0.691171 -0.722692 0 
75.69612 129.8803 -5.977 0.691171 -0.722691 0 
76.13518 130.3002 -5.977 0.691171 -0.722691 0 
79.24445 133.2735 4.256492 0.69115 -0.722712 0 
78.30387 132.374 4.300292 0.69115 -0.722712 0 
78.30387 132.374 -5.977 0.69115 -0.722712 0 
79.24445 133.2735 -5.977 0.69115 -0.722712 0 
82.00545 135.9138 4.127919 0.691125 -0.722735 0 
81.21278 135.1558 4.164832 0.691125 -0.722735 0 
81.21278 135.1558 -5.977 0.691125 -0.722735 0 
82.00545 135.9138 -5.977 0.691125 -0.722735 0 
83.01208 136.8764 4.081042 0.691144 -0.722718 0 
82.75275 136.6284 4.093119 0.691143 -0.722718 0 
82.75275 136.6284 -5.977 0.691143 -0.722718 0 
83.01208 136.8764 -5.977 0.691144 -0.722718 0 
83.36668 137.2155 4.064529 0.691132 -0.722729 0 
83.01208 136.8764 4.081042 0.691132 -0.722729 0 
83.01208 136.8764 -5.977 0.691132 -0.722729 0 
83.36668 137.2155 -5.977 0.691132 -0.722729 0 
82.59727 137.8627 4.940434 0.693487 0.720469 0 
82.85211 137.6174 4.950912 0.693487 0.720469 0 
82.85211 137.6174 -5.977 0.693487 0.720469 0 
82.59727 137.8627 -5.977 0.693487 0.720469 0 
75.46098 129.6554 0.2274809 0.690867 -0.722982 0 
75.36377 129.5625 0.2180038 0.690867 -0.722982 0 
75.36377 129.5625 -5.977 0.690867 -0.722982 0 
75.46098 129.6554 -5.977 0.690867 -0.722982 0 
70.42068 133.3185 0.09936783 -0.704416 0.709787 0 
70.77154 133.6667 0.1341127 -0.704416 0.709787 0 
70.77154 133.6667 -5.977 -0.704416 0.709787 0 
70.42068 133.3185 -5.977 -0.704416 0.709787 0 
74.68019 137.5455 6.820915 -0.704471 0.709733 0 
75.08569 137.948 6.239598 -0.704471 0.709733 0 
75.08569 137.948 -5.977 -0.704471 0.709733 0 
74.68019 137.5455 -5.977 -0.704471 0.709732 0 
75.08569 137.948 6.239598 -0.704397 0.709806 0 
76.66866 139.5189 8.479835 -0.704397 0.709806 0 
76.66866 139.5189 -5.977 -0.704397 0.709806 0 
75.08569 137.948 -5.977 -0.704397 0.709806 0 
71.8234 134.7105 5.61534 -0.7044 0.709803 0 
73.5292 136.4033 8.47094 -0.7044 0.709803 0 
73.5292 136.4033 -5.977 -0.7044 0.709803 0 
71.8234 134.7105 -5.977 -0.7044 0.709803 0 
79.35909 139.3511 6.328351 -0.720542 0.693411 0 
79.5888 139.5898 5.908342 -0.720542 0.693411 0 
79.5888 139.5898 -5.977 -0.720542 0.693412 0 
79.35909 139.3511 -5.977 -0.720542 0.693412 0 
79.5888 139.5898 5.908342 -0.72056 0.693393 0 
79.83727 139.848 5.454038 -0.72056 0.693393 0 
79.83727 139.848 -5.977 -0.72056 0.693393 0 
79.5888 139.5898 -5.977 -0.72056 0.693393 0 
70.66374 133.091 0.1033683 -0.683269 -0.730167 0 
70.50719 133.2375 0.1007916 -0.683268 -0.730167 0 
70.50719 133.2375 -5.977 -0.683269 -0.730167 0 
70.66374 133.091 -5.977 -0.683269 -0.730167 0 
77.90169 140.7425 6.279098 0.69325 0.720697 0 
77.98703 140.6604 6.282573 0.69325 0.720697 0 
77.98703 140.6604 -5.977 0.69325 0.720697 0 
77.90169 140.7425 -5.977 0.69325 0.720697 0 
74.90369 129.1225 0.1731535 -0.68332 -0.730119 0 
74.75645 129.2603 0.1707301 -0.683321 -0.730119 0 
74.75645 129.2603 -5.977 -0.68332 -0.730119 0 
74.90369 129.1225 -5.977 -0.683321 -0.730119 0 
82.85211 137.6174 4.950912 0.69346 0.720495 0 
83.01742 137.4583 4.637236 0.69346 0.720495 0 
83.01742 137.4583 -5.977 0.69346 0.720495 0 
82.85211 137.6174 -5.977 0.69346 0.720495 0 
70.77154 133.6667 0.1341127 -0.704366 0.709837 0 
70.96755 133.8612 0.1535235 -0.704366 0.709837 0 
70.96755 133.8612 -5.977 -0.704366 0.709837 0 
70.77154 133.6667 -5.977 -0.704366 0.709837 0 
75.69612 129.8803 4.421729 0.691198 -0.722665 0 
75.46098 129.6554 4.035612 0.691198 -0.722665 0 
75.46098 129.6554 -5.977 0.691198 -0.722665 0 
75.69612 129.8803 -5.977 0.691198 -0.722665 0 
71.62913 134.5177 5.29011 -0.704398 0.709805 0 
71.8234 134.7105 5.61534 -0.704398 0.709805 0 
71.8234 134.7105 -5.977 -0.704398 0.709805 0 
71.62913 134.5177 -5.977 -0.704398 0.709805 0 
78.30387 132.374 4.300292 0.691123 -0.722737 0 
76.27074 130.4298 4.39497 0.691123 -0.722737 0 
76.27074 130.4298 -5.977 0.691123 -0.722738 0 
78.30387 132.374 -5.977 0.691123 -0.722738 0 
70.85998 132.9073 0.1065982 -0.683406 -0.730039 0 
70.66374 133.091 0.1033683 -0.683406 -0.730039 0 
70.66374 133.091 -5.977 -0.683406 -0.730039 0 
70.85998 132.9073 -5.977 -0.683406 -0.730039 0 
77.98703 140.6604 6.282573 0.693324 0.720626 0 
78.14149 140.5118 6.288862 0.693324 0.720626 0 
78.14149 140.5118 -5.977 0.693324 0.720626 0 
77.98703 140.6604 -5.977 0.693324 0.720626 0 
72.68502 131.1991 0.1366365 -0.683364 -0.730078 0 
71.65458 132.1636 0.1196765 -0.683364 -0.730078 0 
71.65458 132.1636 -5.977 -0.683364 -0.730078 0 
72.68502 131.1991 -5.977 -0.683364 -0.730078 0 
78.47577 140.1902 6.302472 0.693339 0.720612 0 
79.25954 139.4361 6.334383 0.693339 0.720612 0 
79.25954 139.4361 -5.977 0.693339 0.720612 0 
78.47577 140.1902 -5.977 0.693339 0.720612 0 
80.17268 140.1965 4.840744 0.693477 0.720479 0 
81.13007 139.275 4.880108 0.693477 0.720479 0 
81.13007 139.275 -5.977 0.693477 0.720479 0 
80.17268 140.1965 -5.977 0.693477 0.720479 0 
73.39812 130.5317 0.1483733 -0.683328 -0.730111 0 
72.68502 131.1991 0.1366365 -0.683329 -0.730111 0 
72.68502 131.1991 -5.977 -0.683329 -0.730111 0 
73.39812 130.5317 -5.977 -0.683329 -0.730111 0 
73.5292 136.4033 8.47094 -0.704389 0.709814 0 
74.68019 137.5455 6.820915 -0.704389 0.709814 0 
74.68019 137.5455 -5.977 -0.704389 0.709814 0 
73.5292 136.4033 -5.977 -0.704389 0.709814 0 
81.21278 135.1558 4.164832 0.691138 -0.722723 0 
79.24445 133.2735 4.256492 0.691138 -0.722723 0 
79.24445 133.2735 -5.977 0.691138 -0.722723 0 
81.21278 135.1558 -5.977 0.691138 -0.722723 0 
79.35369 139.3455 6.338216 -0.719739 0.694244 0 
79.35909 139.3511 6.328351 -0.719739 0.694244 0 
79.35909 139.3511 -5.977 -0.719739 0.694244 0 
79.35369 139.3455 -5.977 -0.719739 0.694244 0 
82.75275 136.6284 4.093119 0.691092 -0.722767 0 
82.46933 136.3574 4.106317 0.691092 -0.722767 0 
82.46933 136.3574 -5.977 0.691092 -0.722767 0 
82.75275 136.6284 -5.977 0.691092 -0.722767 0 
76.66866 139.5189 8.479835 -0.704374 0.709829 0 
77.3895 140.2342 7.193254 -0.704374 0.709829 0 
77.3895 140.2342 -5.977 -0.704374 0.709829 0 
76.66866 139.5189 -5.977 -0.704374 0.709829 0 
82.46933 136.3574 4.106317 0.691133 -0.722728 0 
82.00545 135.9138 4.127919 0.691133 -0.722728 0 
82.00545 135.9138 -5.977 0.691133 -0.722728 0 
82.46933 136.3574 -5.977 0.691133 -0.722728 0 
78.14149 140.5118 6.288862 0.693298 0.720651 0 
78.47577 140.1902 6.302472 0.693298 0.720651 0 
78.47577 140.1902 -5.977 0.693298 0.720651 0 
78.14149 140.5118 -5.977 0.693298 0.720651 0 
71.65458 132.1636 0.1196765 -0.683334 -0.730106 0 
70.85998 132.9073 0.1065982 -0.683334 -0.730106 0 
70.85998 132.9073 -5.977 -0.683334 -0.730106 0 
71.65458 132.1636 -5.977 -0.683334 -0.730106 0 
81.8333 138.5981 4.909022 0.693506 0.720451 0 
82.59727 137.8627 4.940434 0.693506 0.720451 0 
82.59727 137.8627 -5.977 0.693506 0.720451 0 
81.8333 138.5981 -5.977 0.693506 0.720451 0 
74.75645 129.2603 0.1707301 -0.683379 -0.730064 0 
74.33051 129.659 0.1637196 -0.683379 -0.730064 0 
74.33051 129.659 -5.977 -0.683379 -0.730064 0 
74.75645 129.2603 -5.977 -0.683379 -0.730064 0 
81.13007 139.275 4.880108 0.693491 0.720465 0 
81.8333 138.5981 4.909022 0.693491 0.720465 0 
81.8333 138.5981 -5.977 0.693491 0.720465 0 
81.13007 139.275 -5.977 0.693491 0.720465 0 
74.33051 129.659 0.1637196 -0.683347 -0.730094 0 
73.39812 130.5317 0.1483733 -0.683347 -0.730094 0 
73.39812 130.5317 -5.977 -0.683347 -0.730094 0 
74.33051 129.659 -5.977 -0.683347 -0.730094 0 
70.96755 133.8612 4.1826 -0.704376 0.709827 0 
71.62913 134.5177 5.29011 -0.704376 0.709827 0 
71.62913 134.5177 -5.977 -0.704376 0.709827 0 
70.96755 133.8612 -5.977 -0.704376 0.709827 0 
76.27074 130.4298 4.39497 0.691021 -0.722834 0 
76.13518 130.3002 4.401283 0.691021 -0.722835 0 
76.13518 130.3002 -5.977 0.691021 -0.722835 0 
76.27074 130.4298 -5.977 0.691021 -0.722835 0 
80.17268 140.1965 -5.977 0 0 -1 
83.05569 137.4215 -5.977 0 0 -1 
83.10469 137.4715 -5.977 0 0 -1 
83.36668 137.2155 -5.977 0 0 -1 
74.90369 129.1225 -5.977 0 0 -1 
70.42068 133.3185 -5.977 0 0 -1 
77.90169 140.7425 -5.977 0 0 -1 
79.35369 139.3455 -5.977 0 0 -1 
4 6 46 47 26 
6 190 138 139 217 218 189 
3 191 190 138 
4 148 188 192 16 
3 139 217 219 
4 16 192 193 18 
3 178 193 18 
4 136 141 22 48 
4 24 49 53 31 
4 71 75 26 47 
4 153 154 28 51 
4 97 164 167 98 
4 53 55 35 31 
4 69 76 77 19 
3 143 37 142 
4 44 199 211 42 
5 179 180 198 199 44 
4 46 84 85 47 
4 135 136 48 88 
4 49 86 90 53 
4 47 85 91 71 
4 152 153 51 87 
4 40 57 50 34 
4 90 93 55 53 
4 79 223 224 78 
4 25 60 59 7 
4 30 62 61 23 
4 74 70 60 25 
4 63 62 30 36 
4 64 81 82 9 
4 9 145 140 64 
4 149 151 15 66 
4 17 67 66 15 
6 68 67 17 0 1 2 
4 233 225 162 96 
4 79 78 56 39 
3 227 230 58 
4 8 231 230 58 
4 96 162 163 95 
4 182 204 205 181 
4 184 209 206 183 
4 185 210 204 182 
4 42 211 212 147 
4 213 209 184 186 
4 78 96 95 56 
4 57 97 98 50 
4 78 224 233 96 
5 101 100 132 116 38 
4 103 168 169 104 
4 144 172 173 108 
4 109 174 170 105 
4 110 175 168 103 
4 155 166 171 106 
4 177 174 109 112 
5 113 102 133 134 33 
4 226 228 132 100 
4 45 115 114 5 
4 104 118 117 103 
5 21 121 137 144 108 
4 105 119 122 109 
4 103 117 123 110 
4 43 150 146 124 
4 122 126 112 109 
3 128 14 127 
3 130 11 129 
4 43 124 115 45 
3 194 83 196 
4 220 203 134 133 
4 196 232 234 83 
4 136 135 89 52 
3 139 13 138 
4 191 197 13 138 
4 13 222 219 139 
4 141 136 52 29 
4 41 32 142 143 
4 107 176 172 144 
4 144 137 120 107 
4 140 145 12 65 
3 156 125 157 
5 197 187 216 222 13 
5 27 125 157 155 106 
4 160 159 65 12 
4 153 152 92 54 
4 154 153 54 4 
4 111 165 166 155 
3 214 212 147 
5 188 148 215 216 187 
6 146 150 3 111 155 157 
4 159 160 151 149 
4 101 163 162 100 
4 152 166 165 92 
4 113 167 164 102 
4 84 169 168 85 
4 88 173 172 135 
4 86 170 174 90 
4 85 168 175 91 
4 87 171 166 152 
4 174 177 93 90 
4 135 172 176 89 
4 225 226 100 162 
3 180 20 179 
4 60 182 181 59 
4 62 184 183 61 
4 70 185 182 60 
4 186 184 62 63 
4 149 188 187 159 
5 81 64 190 189 80 
4 191 190 64 140 
4 66 192 188 149 
4 67 193 192 66 
5 68 10 178 193 67 
4 202 200 116 132 
4 228 229 202 132 
4 65 197 191 140 
4 159 187 197 65 
4 115 199 198 114 
4 200 202 196 194 
4 202 229 232 196 
4 118 205 204 117 
4 121 208 207 137 
4 119 206 209 122 
4 117 204 210 123 
4 146 212 211 124 
4 209 213 126 122 
5 157 156 214 212 146 
3 215 216 158 
4 128 218 217 127 
4 124 211 199 115 
4 137 207 221 120 
5 129 130 222 216 158 
4 224 223 72 73 
4 226 225 161 99 
4 229 228 131 201 
4 80 227 230 81 
4 230 231 82 81 
4 232 229 201 195 
4 233 224 73 94 
4 228 226 99 131 
5 76 69 234 232 195 
4 225 233 94 161 
4 235 236 237 238 
4 242 239 240 241 
4 243 244 245 246 
4 250 247 248 249 
4 251 252 253 254 
4 255 256 257 258 
4 259 260 261 262 
4 263 264 265 266 
4 270 267 268 269 
4 274 271 272 273 
4 278 275 276 277 
4 282 279 280 281 
4 286 283 284 285 
4 290 287 288 289 
4 291 292 293 294 
4 298 295 296 297 
4 299 300 301 302 
4 306 303 304 305 
4 310 307 308 309 
4 311 312 313 314 
4 315 316 317 318 
4 319 320 321 322 
4 326 323 324 325 
4 327 328 329 330 
4 331 332 333 334 
4 338 335 336 337 
4 339 340 341 342 
4 346 343 344 345 
4 350 347 348 349 
4 351 352 353 354 
4 358 355 356 357 
4 359 360 361 362 
4 366 363 364 365 
4 370 367 368 369 
4 371 372 373 374 
4 375 376 377 378 
4 382 379 380 381 
4 383 384 385 386 
4 390 387 388 389 
4 391 392 393 394 
4 398 395 396 397 
4 402 399 400 401 
4 403 404 405 406 
4 410 407 408 409 
4 411 412 413 414 
4 418 415 416 417 
4 419 420 421 422 
4 426 423 424 425 
4 430 427 428 429 
8 437 438 431 432 433 434 435 436 
