OFF
54 51 0

2.46002 4.41301 1.01553
2.46002 4.41301 5.08679
2.46002 4.41301 -0.388946
2.46002 4.41301 -7.32842
5.33592 1.64605 -7.32842
5.57063 1.42023 -7.32842
5.57063 1.42023 -0.341231
5.57063 1.42023 1.15328
5.57063 1.42023 2.85526
4.35375 2.59102 5.1639
-6.47301 -1.61401 -1.61385
-1.98999 -5.80999 -1.67217
-6.12215 -1.26582 -1.11731
-1.52996 -5.37006 -1.03342
-4.29086 -2.60188 -0.861179
-1.4327 -5.27706 -0.898382
-5.92613 -1.07129 -0.839893
-1.80799 3.01548 4.98817
-0.250364 1.59663 4.99683
1.72957 -0.206896 5.00783
1.41016 -2.55843 3.04892
6.42425 2.23654 -0.258018
1.008 5.81003 -0.411219
-5.92613 -1.07129 -1.09789
1.008 5.81003 0.951231
-1.44106 -5.26923 -7.32842
-1.44106 -5.26923 -1.02408
-1.4327 -5.27706 -1.02394
4.31895 0.223241 2.91352
-0.999533 -0.660244 7.21516
-1.76151 0.0263816 7.21656
-3.36449 1.47084 7.21953
-1.19757 -5.0522 3.1703
6.42425 2.23654 2.81553
-6.47301 -1.61401 -1.15205
-1.98999 -5.80999 -1.07826
-4.29086 -2.60188 -1.07098
-0.225033 4.58638 7.22841
1.28879 3.19598 7.22834
3.27901 5.26402 -7.32842
3.27901 5.26402 3.58931
5.9584 2.68495 3.69952
2.09162 2.45861 7.2283
-4.29086 -2.60188 2.8777
-4.29086 -2.60188 -7.32842
1.008 5.81003 5.02766
-1.4327 -5.27706 2.78419
-5.92613 -1.07129 2.93119
-1.4327 -5.27706 -7.32842
-5.92613 -1.07129 -7.32842
-1.98999 -5.80999 -7.32842
1.008 5.81003 -7.32842
-6.47301 -1.61401 -7.32842
6.42425 2.23654 -7.32842
4  53 5 6 21  127 0 255
5  53 39 3 4 5  127 0 255
6  53 21 33 41 40 39  127 0 255
6  50 48 25 44 49 52  255 0 0
5  52 49 23 12 10  255 0 0
5  50 11 13 27 48  255 0 0
4  52 10 11 50  255 0 0
5  33 21 6 7 8  127 0 255
4  33 8 9 41  127 0 255
4  32 20 15 46  127 255 0
4  32 29 19 20  127 255 0
5  32 46 43 30 29  127 255 0
4  51 49 44 3  255 0 0
5  8 28 19 42 9  255 0 0
4  5 48 27 6  255 0 0
4  5 4 25 48  255 0 0
3  8 7 28  255 0 0
4  51 22 23 49  255 0 0
4  51 3 2 22  255 0 0
4  47 31 30 43  127 255 0
4  47 16 17 31  127 255 0
4  47 43 14 16  127 255 0
4  46 15 14 43  127 255 0
4  45 24 0 1  255 0 0
4  45 37 17 24  255 0 0
4  9 42 38 1  255 0 0
4  45 1 38 37  255 0 0
4  44 25 4 3  255 0 0
5  15 27 26 36 14  255 0 0
4  14 36 23 16  255 0 0
6  20 28 7 6 27 15  255 0 0
3  20 19 28  255 0 0
4  42 19 18 38  255 0 0
4  41 9 1 40  127 0 255
6  1 0 2 3 39 40  127 0 255
5  16 23 22 24 17  255 0 0
4  38 18 17 37  255 0 0
3  34 10 12  0 255 255
4  35 11 10 34  0 255 255
3  35 13 11  0 255 255
4  35 34 12 13  0 255 255
6  27 13 12 23 36 26  255 0 0
4  18 30 31 17  127 255 0
4  19 29 30 18  127 255 0
4  2 0 24 22  255 0 0
7  20 15 14 16 17 18 19  255 0 0
7  15 20 19 18 17 16 14  127 255 0
4  13 11 10 12  255 0 0
4  11 13 12 10  0 255 255
10  9 1 0 2 3 4 5 6 7 8  255 0 0
10  1 9 8 7 6 5 4 3 2 0  127 0 255

