OFF
50 41 0

6.42425 2.23654 -0.258018
5.57063 1.42023 -0.341231
1.008 5.81003 -0.411219
1.008 5.81003 0.951231
-1.80799 3.01548 4.98817
-1.44106 -5.26923 -7.32842
5.33592 1.64605 -7.32842
-1.44106 -5.26923 -1.02408
-1.4327 -5.27706 -1.02394
5.57063 1.42023 1.15328
1.72957 -0.206896 5.00783
-1.76151 0.0263816 7.21656
-0.999533 -0.660244 7.21516
-3.36449 1.47084 7.21953
-0.250364 1.59663 4.99683
2.46002 4.41301 -0.388946
-5.92613 -1.07129 -1.09789
-4.29086 -2.60188 -1.07098
-6.47301 -1.61401 -1.15205
1.28879 3.19598 7.22834
-4.29086 -2.60188 -0.861179
5.57063 1.42023 -7.32842
-5.92613 -1.07129 -0.839893
2.46002 4.41301 -7.32842
2.46002 4.41301 1.01553
3.27901 5.26402 3.58931
-0.225033 4.58638 7.22841
3.27901 5.26402 -7.32842
4.35375 2.59102 5.1639
5.9584 2.68495 3.69952
1.41016 -2.55843 3.04892
-1.19757 -5.0522 3.1703
-1.4327 -5.27706 -0.898382
2.46002 4.41301 5.08679
2.09162 2.45861 7.2283
-4.29086 -2.60188 2.8777
-4.29086 -2.60188 -7.32842
-1.98999 -5.80999 -7.32842
-6.47301 -1.61401 -7.32842
-5.92613 -1.07129 -7.32842
4.31895 0.223241 2.91352
-1.4327 -5.27706 -7.32842
6.42425 2.23654 2.81553
6.42425 2.23654 -7.32842
-1.4327 -5.27706 2.78419
5.57063 1.42023 2.85526
1.008 5.81003 5.02766
1.008 5.81003 -7.32842
-1.98999 -5.80999 -1.07826
-5.92613 -1.07129 2.93119
4  43 21 1 0  255 0 0
5  43 27 23 6 21  255 0 0
6  43 0 42 29 25 27  255 0 0
6  37 41 5 36 39 38  255 0 0
4  38 39 16 18  255 0 0
4  37 48 8 41  255 0 0
4  38 18 48 37  255 0 0
5  42 0 1 9 45  255 0 0
4  42 45 28 29  255 0 0
4  31 30 32 44  255 0 0
4  31 12 10 30  255 0 0
5  31 44 35 11 12  255 0 0
4  47 39 36 23  255 0 0
5  45 40 10 34 28  255 0 0
4  21 41 8 1  255 0 0
4  21 6 5 41  255 0 0
3  45 9 40  255 0 0
4  47 2 16 39  255 0 0
4  47 23 15 2  255 0 0
4  49 13 11 35  255 0 0
4  49 22 4 13  255 0 0
4  49 35 20 22  255 0 0
4  44 32 20 35  255 0 0
4  46 3 24 33  255 0 0
4  46 26 4 3  255 0 0
4  28 34 19 33  255 0 0
4  46 33 19 26  255 0 0
4  36 5 6 23  255 0 0
5  32 8 7 17 20  255 0 0
4  20 17 16 22  255 0 0
6  30 40 9 1 8 32  255 0 0
3  30 10 40  255 0 0
4  34 10 14 19  255 0 0
4  29 28 33 25  255 0 0
6  33 24 15 23 27 25  255 0 0
5  22 16 2 3 4  255 0 0
4  19 14 4 26  255 0 0
6  48 18 16 17 7 8  255 0 0
4  14 11 13 4  255 0 0
4  10 12 11 14  255 0 0
4  15 24 3 2  255 0 0

