OFF
50 41 0

1.008 5.81003 -0.411219
2.46002 4.41301 1.01553
1.008 5.81003 0.951231
-1.80799 3.01548 4.98817
5.57063 1.42023 -0.341231
2.46002 4.41301 -0.388946
5.57063 1.42023 1.15328
4.31895 0.223241 2.91352
1.72957 -0.206896 5.00783
-0.999533 -0.660244 7.21516
-1.76151 0.0263816 7.21656
-0.250364 1.59663 4.99683
-3.36449 1.47084 7.21953
-6.47301 -1.61401 -1.15205
-5.92613 -1.07129 -1.09789
-4.29086 -2.60188 -1.07098
-1.4327 -5.27706 -1.02394
-1.98999 -5.80999 -1.07826
-0.225033 4.58638 7.22841
1.28879 3.19598 7.22834
-4.29086 -2.60188 -0.861179
-5.92613 -1.07129 -0.839893
3.27901 5.26402 3.58931
3.27901 5.26402 -7.32842
4.35375 2.59102 5.1639
5.9584 2.68495 3.69952
2.09162 2.45861 7.2283
-1.4327 -5.27706 -0.898382
1.41016 -2.55843 3.04892
2.46002 4.41301 5.08679
2.46002 4.41301 -7.32842
-4.29086 -2.60188 2.8777
-4.29086 -2.60188 -7.32842
-1.4327 -5.27706 2.78419
-5.92613 -1.07129 2.93119
-1.4327 -5.27706 -7.32842
-5.92613 -1.07129 -7.32842
1.008 5.81003 -7.32842
5.57063 1.42023 2.85526
-1.19757 -5.0522 3.1703
-1.44106 -5.26923 -7.32842
6.42425 2.23654 2.81553
1.008 5.81003 5.02766
5.33592 1.64605 -7.32842
-1.98999 -5.80999 -7.32842
-1.44106 -5.26923 -1.02408
-6.47301 -1.61401 -7.32842
5.57063 1.42023 -7.32842
6.42425 2.23654 -0.258018
6.42425 2.23654 -7.32842
4  49 47 4 48  255 0 0
5  49 23 30 43 47  255 0 0
6  49 48 41 25 22 23  255 0 0
6  44 35 40 32 36 46  255 0 0
4  46 36 14 13  255 0 0
4  44 17 16 35  255 0 0
4  46 13 17 44  255 0 0
5  41 48 4 6 38  255 0 0
4  41 38 24 25  255 0 0
4  39 28 27 33  255 0 0
4  39 9 8 28  255 0 0
5  39 33 31 10 9  255 0 0
4  37 36 32 30  255 0 0
5  38 7 8 26 24  255 0 0
4  47 35 16 4  255 0 0
4  47 43 40 35  255 0 0
3  38 6 7  255 0 0
4  37 0 14 36  255 0 0
4  37 30 5 0  255 0 0
4  34 12 10 31  255 0 0
4  34 21 3 12  255 0 0
4  34 31 20 21  255 0 0
4  33 27 20 31  255 0 0
4  42 2 1 29  255 0 0
4  42 18 3 2  255 0 0
4  24 26 19 29  255 0 0
4  42 29 19 18  255 0 0
4  32 40 43 30  255 0 0
5  27 16 45 15 20  255 0 0
4  20 15 14 21  255 0 0
6  28 7 6 4 16 27  255 0 0
3  28 8 7  255 0 0
4  26 8 11 19  255 0 0
4  25 24 29 22  255 0 0
6  29 1 5 30 23 22  255 0 0
5  21 14 0 2 3  255 0 0
4  19 11 3 18  255 0 0
6  17 13 14 15 45 16  255 0 0
4  11 10 12 3  255 0 0
4  8 9 10 11  255 0 0
4  5 1 2 0  255 0 0

