OFF
54 51 0

2.46002 4.41301 1.01553
2.46002 4.41301 5.08679
2.46002 4.41301 -0.388946
2.46002 4.41301 -7.32842
5.33592 1.64605 -7.32842
5.57063 1.42023 -7.32842
5.57063 1.42023 -0.341231
5.57063 1.42023 1.15328
5.57063 1.42023 2.85526
4.35375 2.59102 5.1639
-6.47301 -1.61401 -1.61385
-1.98999 -5.80999 -1.67217
-6.12215 -1.26582 -1.11731
-1.52996 -5.37006 -1.03342
-4.29086 -2.60188 -0.861179
-1.4327 -5.27706 -0.898382
-5.92613 -1.07129 -0.839893
-1.80799 3.01548 4.98817
-0.250364 1.59663 4.99683
1.72957 -0.206896 5.00783
1.41016 -2.55843 3.04892
1.008 5.81003 -0.411219
1.008 5.81003 0.951231
4.31895 0.223241 2.91352
-0.999533 -0.660244 7.21516
-1.76151 0.0263816 7.21656
-3.36449 1.47084 7.21953
-6.47301 -1.61401 -1.15205
-5.92613 -1.07129 -1.09789
-4.29086 -2.60188 -1.07098
-1.4327 -5.27706 -1.02394
-1.98999 -5.80999 -1.07826
-0.225033 4.58638 7.22841
1.28879 3.19598 7.22834
3.27901 5.26402 3.58931
3.27901 5.26402 -7.32842
5.9584 2.68495 3.69952
2.09162 2.45861 7.2283
-4.29086 -2.60188 2.8777
-4.29086 -2.60188 -7.32842
-1.4327 -5.27706 2.78419
-5.92613 -1.07129 2.93119
-1.4327 -5.27706 -7.32842
-5.92613 -1.07129 -7.32842
1.008 5.81003 -7.32842
-1.19757 -5.0522 3.1703
-1.44106 -5.26923 -7.32842
6.42425 2.23654 2.81553
1.008 5.81003 5.02766
-1.98999 -5.80999 -7.32842
-1.44106 -5.26923 -1.02408
-6.47301 -1.61401 -7.32842
6.42425 2.23654 -0.258018
6.42425 2.23654 -7.32842
4  53 5 6 52  127 0 255
5  53 35 3 4 5  127 0 255
6  53 52 47 36 34 35  127 0 255
6  49 42 46 39 43 51  255 0 0
5  51 43 28 12 10  255 0 0
5  49 11 13 30 42  255 0 0
4  51 10 11 49  255 0 0
5  47 52 6 7 8  127 0 255
4  47 8 9 36  127 0 255
4  45 20 15 40  127 255 0
4  45 24 19 20  127 255 0
5  45 40 38 25 24  127 255 0
4  44 43 39 3  255 0 0
5  8 23 19 37 9  255 0 0
4  5 42 30 6  255 0 0
4  5 4 46 42  255 0 0
3  8 7 23  255 0 0
4  44 21 28 43  255 0 0
4  44 3 2 21  255 0 0
4  41 26 25 38  127 255 0
4  41 16 17 26  127 255 0
4  41 38 14 16  127 255 0
4  40 15 14 38  127 255 0
4  48 22 0 1  255 0 0
4  48 32 17 22  255 0 0
4  9 37 33 1  255 0 0
4  48 1 33 32  255 0 0
4  39 46 4 3  255 0 0
5  15 30 50 29 14  255 0 0
4  14 29 28 16  255 0 0
6  20 23 7 6 30 15  255 0 0
3  20 19 23  255 0 0
4  37 19 18 33  255 0 0
4  36 9 1 34  127 0 255
6  1 0 2 3 35 34  127 0 255
5  16 28 21 22 17  255 0 0
4  33 18 17 32  255 0 0
3  27 10 12  0 255 255
4  31 11 10 27  0 255 255
3  31 13 11  0 255 255
4  31 27 12 13  0 255 255
6  30 13 12 28 29 50  255 0 0
4  18 25 26 17  127 255 0
4  19 24 25 18  127 255 0
4  2 0 22 21  255 0 0
7  20 15 14 16 17 18 19  255 0 0
7  15 20 19 18 17 16 14  127 255 0
4  13 11 10 12  255 0 0
4  11 13 12 10  0 255 255
10  9 1 0 2 3 4 5 6 7 8  255 0 0
10  1 9 8 7 6 5 4 3 2 0  127 0 255

