OFF
57 50 0

1.77397 -1.90654 2.84355
-1.94984 1.78637 -3.1378
-1.94984 1.78637 -6.27609
-1.94984 1.78637 2.81568
3.1965 5.0145 5.15347
2.49885 4.28648 5.14913
4.00166 4.2394 -6.27609
0.00984386 -3.66129 3.00134
0.00984357 -3.66129 -6.27609
-1.59044 1.42995 3.42274
-6.0095 -2.22951 -3.22568
1.9073 -1.77391 2.83163
-1.70523 -1.96044 6.17609
3.1965 5.0145 -3.052
-2.61904 -1.05422 -6.27609
-1.94984 1.78637 5.20023
-3.71884 0.0364504 -3.1761
2.24219 5.9332 -3.04706
-3.71884 0.0364506 2.55834
3.57316 4.65191 5.12803
0.00984367 -3.66129 -3.19691
6.0095 2.3065 -6.27609
6.0095 2.3065 -3.06658
4.00166 4.2394 -3.05618
-4.2758 -3.94881 -3.23536
0.00984382 -3.66129 1.82481
2.24219 5.9332 -6.27609
4.20872 3.25584 5.05627
2.24219 5.9332 2.91236
-3.71884 0.0364503 -6.27609
-1.94984 1.78637 3.49345
4.58798 3.67496 5.05949
-1.98515 -1.68286 5.07381
-1.07606 -2.58439 5.01144
4.00166 4.2394 5.09909
-0.593231 0.441017 5.10715
2.94532 4.01736 5.12488
1.30498 5.00609 5.21397
-3.29052 0.460154 2.78476
3.1965 5.0145 4.50101
4.00166 4.2394 5.84136
-6.0095 -2.22951 -6.27609
4.08428 4.15986 5.9789
2.24219 5.9332 5.21793
-4.2758 -3.94881 1.00642
-1.98515 -1.68286 2.21728
-1.98515 -1.68286 -3.18577
-6.0095 -2.22951 1.34748
-2.2745 -5.9335 -3.24653
-4.2758 -3.94881 -6.27609
-1.98515 -1.68286 -6.27609
-1.98515 -1.68286 5.70329
-2.34327 -1.32771 5.09838
-3.71884 0.0364506 2.77488
3.1965 5.0145 -6.27609
6.0095 2.3065 2.46472
-2.2745 -5.9335 -6.27609
5  26 2 29 14 54  255 0 0
4  21 8 20 22  255 0 0
4  21 6 50 8  255 0 0
4  26 17 1 2  255 0 0
4  21 22 23 6  255 0 0
4  26 54 13 17  255 0 0
5  55 22 20 25 11  255 0 0
5  55 31 34 23 22  255 0 0
4  55 11 27 31  255 0 0
4  41 29 16 10  255 0 0
4  56 8 50 49  255 0 0
5  41 49 50 14 29  255 0 0
4  56 48 20 8  255 0 0
4  41 10 24 49  255 0 0
4  56 49 24 48  255 0 0
4  29 2 1 16  255 0 0
4  7 0 11 25  255 0 0
5  7 33 27 11 0  255 0 0
5  7 25 45 32 33  255 0 0
5  28 43 37 30 3  255 0 0
7  28 17 13 23 34 19 39  255 0 0
5  42 31 27 33 12  255 0 0
3  53 18 38  255 0 0
4  12 33 32 51  255 0 0
4  42 40 34 31  255 0 0
4  28 39 4 43  255 0 0
4  28 3 1 17  255 0 0
5  53 52 32 45 18  255 0 0
4  12 51 40 42  255 0 0
5  53 38 9 35 52  255 0 0
6  51 52 35 36 19 40  255 0 0
3  51 32 52  255 0 0
4  25 20 46 45  255 0 0
4  45 46 24 44  255 0 0
4  44 24 10 47  255 0 0
4  20 48 24 46  255 0 0
5  18 16 1 3 38  255 0 0
4  47 10 16 18  255 0 0
4  45 44 47 18  255 0 0
3  40 19 34  255 0 0
3  19 4 39  255 0 0
4  19 36 5 4  255 0 0
4  43 4 5 37  255 0 0
4  6 54 14 50  255 0 0
4  6 23 13 54  255 0 0
5  36 35 15 37 5  255 0 0
3  37 15 30  255 0 0
3  38 3 9  255 0 0
4  15 35 9 30  255 0 0
3  30 9 3  255 0 0

