COFF
198 328 0

6.0095 2.3065 2.46472
-2.2745 -5.93349 -3.24653
-6.0095 -2.2295 1.34748
3.1965 5.0145 5.15347
3.1275 4.9425 5.15304
2.3595 5.6825 5.20494
2.4285 5.75449 5.20537
2.2425 5.93349 5.21793
4.08428 4.15986 5.97891
1.90731 -1.7739 2.83163
4.45782 3.80025 5.29706
4.58798 3.67496 5.05949
4.20872 3.25584 5.05627
0.00984335 -3.66129 3.00134
3.57316 4.65191 5.12803
4.06154 4.13583 5.97968
3.54988 4.62838 5.12791
3.08606 4.15961 5.12559
3.60099 3.64895 5.99537
-0.59323 0.441017 5.10715
0.00512075 -0.152367 6.11784
-1.94984 1.78637 2.81568
-1.37534 -1.6117 6.16486
-2.01499 -0.995918 5.10003
-3.40741 0.344521 2.78206
-1.70524 -1.96044 6.17609
-2.65848 -5.5527 -3.24439
-2.56031 -5.65006 -3.24493
-1.78967 -4.88351 -3.22819
-1.50386 -5.16695 -3.22979
-1.88784 -4.78616 -3.22765
-0.275969 -3.37785 -3.19531
0.00984335 -3.66129 -3.19691
-0.37414 -3.28049 -3.19477
-4.2758 -3.94881 -3.23536
2.94532 4.01736 5.12488
3.72348 4.46127 5.41691
3.12572 4.12028 5.19259
3.75344 4.47836 5.42815
-1.59045 1.42995 3.42274
-3.29052 0.460152 2.78476
1.30498 5.00608 5.21397
-1.94984 1.78637 3.49345
-4.2758 -3.94881 1.00642
-3.40741 0.344521 2.72297
0.00984335 -3.66129 1.82481
-0.400811 0.63549 5.10812
-1.07607 -2.58439 5.01144
-1.94984 1.78637 5.20023
-2.34327 -1.32771 5.09838
-1.6923 1.53097 3.2507
-3.14604 0.0929031 2.67433
-3.14604 0.0929031 3.21716
-1.6923 1.53097 5.18256
-5.75196 -2.4849 1.29682
-2.07226 1.1551 3.24193
1.62544 4.81292 5.19657
-1.6923 1.53097 3.44278
2.43295 5.61173 5.19997
-0.37414 -3.28049 1.90035
2.54783 -0.374046 3.45078
5.61982 2.68163 3.17602
-0.37414 -3.28049 3.71212
-5.04123 -1.78184 1.67252
-3.54312 -3.22402 1.39372
-5.3026 -1.53022 1.72116
-3.54312 -3.22402 -3.2195
-1.90387 -4.8021 -3.22799
-1.51419 -5.17722 -3.23001
-1.80424 -4.898 -3.22851
5.98604 2.28315 2.46682
5.59636 2.65829 3.17811
4.44324 3.76838 5.28296
2.40528 5.73026 5.20522
2.21866 5.90992 5.21783
4.56577 3.65041 5.0593
3.17361 4.99061 5.15333
-2.46492 -0.562782 2.54757
-2.46492 -0.562782 4.35103
-4.3601 -2.43754 1.54576
-5.08082 -3.15047 1.16479
2.46055 4.30956 5.15121
-2.79016 -0.884529 2.37564
-1.02116 0.865395 5.13651
-1.02116 0.865395 4.38433
-2.79016 -0.884529 4.34353
3.11377 4.95573 5.15397
2.02686 5.21001 5.19826
2.698 4.54444 5.15221
5.0989 2.16348 3.22261
5.48289 1.78268 2.51183
4.10877 3.14539 5.05542
4.14276 3.11169 4.99251
1.76932 5.46542 5.21593
0.595165 -0.737511 5.02562
1.38999 -1.52573 3.55434
1.77397 -1.90653 2.84355
-1.98515 -1.68285 2.21728
-1.98515 -1.68285 -3.18577
-1.98515 -1.68285 5.70329
-1.98515 -1.68285 5.07381
3.97814 4.2161 5.84084
3.50302 3.74612 5.82988
4.00167 4.23939 5.84138
-0.216143 0.0670547 5.7441
-1.64793 -1.34928 5.71107
-0.0139813 -2.92225 3.67991
-0.74499 -2.21853 5.01425
0.375696 -3.29739 2.96862
-0.832987 1.05154 5.13731
-1.51411 1.70724 5.18331
2.00306 -1.67866 2.82306
1.96684 -1.64379 2.88918
1.61339 -1.30352 3.53436
0.795478 -0.516151 5.02732
0.201713 0.0554581 6.11114
-0.0160012 0.265038 5.74871
-1.77548 1.95885 5.20097
0.0856452 -3.01815 3.49806
1.48816 -1.6231 3.37262
2.38407 -0.731941 3.29248
5.19707 2.06612 3.04089
1.71301 -1.39944 3.3525
-0.275969 -3.37785 1.88104
5.69599 2.56239 2.99626
-0.275969 -3.37785 3.5304
5.71945 2.58572 2.99416
-3.50303 -3.18438 -3.21863
-3.50303 -3.18438 1.41491
-4.30805 -2.38604 1.57328
-4.97919 -1.72047 1.70531
-5.23673 -1.46507 1.75597
-3.4613 -0.218956 2.50767
-3.71885 0.0364456 2.55834
-5.05001 -3.12 1.18107
-4.23303 -3.9065 1.02903
-4.23303 -3.9065 -3.23443
-5.73113 -2.4643 1.30783
-5.9925 -2.21268 1.35647
-2.59185 -5.48641 -3.24294
-2.20217 -5.86155 -3.24496
-2.49222 -5.58233 -3.24346
6.0095 2.3065 -6.17609
5.71945 2.58572 -6.17609
-2.2745 -5.93349 -6.17609
-2.20217 -5.86155 -6.17609
-6.0095 -2.2295 -6.17609
-5.75196 -2.4849 -6.17609
3.1965 5.0145 -6.17609
3.17361 4.99061 -6.17609
3.1275 4.9425 -6.17609
3.11377 4.95573 -6.17609
2.3595 5.6825 -6.17609
2.40528 5.73026 -6.17609
2.4285 5.75449 -6.17609
2.2425 5.93349 -6.17609
2.21866 5.90992 -6.17609
1.90731 -1.7739 -6.17609
2.00306 -1.67866 -6.17609
4.45782 3.80025 -6.17609
4.08428 4.15986 -6.17609
4.58798 3.67496 -6.17609
4.00167 4.23939 -6.17609
-1.94984 1.78637 -6.17609
-3.29052 0.460152 -6.17609
3.57316 4.65191 -6.17609
-2.65848 -5.5527 -6.17609
-2.56031 -5.65006 -6.17609
-1.50386 -5.16695 -6.17609
0.00984335 -3.66129 -6.17609
3.75344 4.47836 -6.17609
-3.40741 0.344521 -6.17609
1.30498 5.00608 -6.17609
-1.77548 1.95885 -6.17609
-5.08082 -3.15047 -6.17609
2.43295 5.61173 -6.17609
5.61982 2.68163 -6.17609
-5.3026 -1.53022 -6.17609
-5.9925 -2.21268 -6.17609
-1.51419 -5.17722 -6.17609
5.98604 2.28315 -6.17609
1.76932 5.46542 -6.17609
-4.2758 -3.94881 -6.17609
5.48289 1.78268 -6.17609
1.77397 -1.90653 -6.17609
0.375696 -3.29739 -6.17609
-3.71885 0.0364456 -6.17609
-5.23673 -1.46507 -6.17609
6.0095 2.3065 -6.17609
-2.2745 -5.93349 -6.17609
-6.0095 -2.2295 -6.17609
3.1965 5.0145 -6.17609
3.1275 4.9425 -6.17609
2.3595 5.6825 -6.17609
-1.94984 1.78637 -6.17609
0.00984335 -3.66129 -6.17609
-3.40741 0.344521 -6.17609
-4.2758 -3.94881 -6.17609
3  89 71 92  255 255 128
3  71 75 92  255 255 128
3  92 75 12  255 255 128
3  72 12 75  255 255 128
3  102 18 15  255 128 255
3  102 15 101  255 128 255
3  101 15 8  255 128 255
3  101 8 103  255 128 255
3  116 104 20  255 128 255
3  116 20 115  255 128 255
3  25 22 105  255 128 255
3  25 105 99  255 128 255
3  49 23 78  255 128 255
3  49 78 85  255 128 255
3  105 22 20  255 128 255
3  105 20 104  255 128 255
3  78 23 19  255 128 255
3  78 19 84  255 128 255
3  84 19 83  128 255 128
3  136 34 26  255 255 0
3  136 26 139  255 255 0
3  141 27 1  255 255 0
3  141 1 140  255 255 0
3  139 26 27  255 255 0
3  139 27 141  255 255 0
3  31 28 29  255 255 0
3  31 29 32  255 255 0
3  33 30 28  255 255 0
3  33 28 31  255 255 0
3  97 47 100  255 0 255
3  97 59 62  255 0 255
3  97 62 47  255 0 255
3  36 16 17  255 128 255
3  36 17 37  255 128 255
3  38 14 16  255 128 255
3  38 16 36  255 128 255
3  37 17 35  255 128 255
3  55 39 50  255 128 255
3  4 16 76  0 255 255
3  17 4 88  0 255 255
3  88 4 86  0 255 255
3  17 16 4  0 255 255
3  50 39 57  128 255 128
3  98 33 59  255 0 255
3  98 59 97  255 0 255
3  52 24 44  0 192 0
3  52 44 51  0 192 0
3  100 47 25  255 0 255
3  100 25 99  255 0 255
3  55 40 24  255 128 255
3  55 24 52  255 128 255
3  53 48 42  128 255 128
3  53 42 57  128 255 128
3  50 21 40  255 128 255
3  50 40 55  255 128 255
3  87 58 5  0 255 255
3  5 74 93  0 255 255
3  87 5 93  0 255 255
3  5 73 74  0 255 255
3  57 42 21  128 255 128
3  57 21 50  128 255 128
3  123 59 33  255 0 255
3  123 33 31  255 0 255
3  78 52 51  0 192 0
3  78 51 77  0 192 0
3  124 71 89  255 255 128
3  124 89 121  255 255 128
3  125 62 59  255 0 255
3  125 59 123  255 0 255
3  134 79 63  128 128 255
3  134 63 137  128 128 255
3  122 113 95  255 255 128
3  122 95 119  255 255 128
3  137 63 65  128 128 255
3  137 65 138  128 128 255
3  136 66 64  192 0 0
3  136 64 135  192 0 0
3  117 48 53  0 255 255
3  117 53 110  0 255 255
3  92 12 91  255 255 128
3  12 72 18  255 255 128
3  12 18 91  255 255 128
3  72 15 18  255 255 128
3  109 83 19  0 255 255
3  109 19 46  0 255 255
3  68 29 28  255 255 0
3  68 28 69  255 255 0
3  69 28 30  255 255 0
3  69 30 67  255 255 0
3  126 61 71  255 255 128
3  126 71 124  255 255 128
3  72 10 8  255 255 128
3  72 8 15  255 255 128
3  73 6 7  0 255 255
3  73 7 74  0 255 255
3  71 61 11  255 255 128
3  71 11 75  255 255 128
3  75 11 10  255 255 128
3  75 10 72  255 255 128
3  16 14 3  0 255 255
3  16 3 76  0 255 255
3  135 64 79  128 128 255
3  135 79 134  128 128 255
3  110 53 83  0 255 255
3  110 83 109  0 255 255
3  52 78 55  255 128 255
3  55 78 84  255 128 255
3  55 84 39  255 128 255
3  57 84 53  128 255 128
3  57 39 84  128 255 128
3  53 84 83  128 255 128
3  88 86 58  0 255 255
3  88 58 87  0 255 255
3  87 56 81  0 255 255
3  87 81 88  0 255 255
3  112 9 111  255 255 128
3  114 94 95  255 255 128
3  114 95 113  255 255 128
3  115 20 94  255 255 128
3  115 94 114  255 255 128
3  93 41 56  0 255 255
3  93 56 87  0 255 255
3  92 60 89  255 255 128
3  88 81 35  0 255 255
3  88 35 17  0 255 255
3  62 106 107  255 255 128
3  62 107 47  255 255 128
3  47 107 22  255 255 128
3  47 22 25  255 255 128
3  125 118 106  255 255 128
3  125 106 62  255 255 128
3  99 49 100  255 0 255
3  101 36 37  255 128 255
3  101 37 102  255 128 255
3  103 38 36  255 128 255
3  103 36 101  255 128 255
3  46 19 104  255 128 255
3  46 104 116  255 128 255
3  99 105 23  255 128 255
3  99 23 49  255 128 255
3  104 19 23  255 128 255
3  104 23 105  255 128 255
3  82 97 85  255 0 255
3  85 97 100  255 0 255
3  85 100 49  255 0 255
3  128 64 66  192 0 0
3  128 66 127  192 0 0
3  129 79 64  128 128 255
3  129 64 128  128 128 255
3  106 95 94  255 255 128
3  106 94 107  255 255 128
3  107 94 20  255 255 128
3  107 20 22  255 255 128
3  119 95 106  255 255 128
3  119 106 118  255 255 128
3  130 63 79  128 128 255
3  130 79 129  128 128 255
3  131 65 63  128 128 255
3  131 63 130  128 128 255
3  109 81 56  0 255 255
3  109 56 110  0 255 255
3  121 89 60  255 255 128
3  121 60 120  255 255 128
3  60 92 91  255 255 128
3  60 91 114  255 255 128
3  60 114 113  255 255 128
3  114 91 18  255 255 128
3  114 18 115  255 255 128
3  116 35 46  255 128 255
3  116 102 35  255 128 255
3  35 102 37  255 128 255
3  120 60 113  255 255 128
3  120 113 122  255 255 128
3  110 56 41  0 255 255
3  110 41 117  0 255 255
3  46 35 81  0 255 255
3  46 81 109  0 255 255
3  115 18 102  255 128 255
3  115 102 116  255 128 255
3  13 108 118  255 255 128
3  13 118 125  255 255 128
3  118 108 96  255 255 128
3  118 96 119  255 255 128
3  90 121 120  255 255 128
3  90 120 111  255 255 128
3  111 120 112  255 255 128
3  122 112 120  255 255 128
3  31 32 45  255 0 255
3  31 45 123  255 0 255
3  121 90 70  255 255 128
3  121 70 124  255 255 128
3  123 45 13  255 0 255
3  123 13 125  255 0 255
3  119 112 122  255 255 128
3  119 96 112  255 255 128
3  96 9 112  255 255 128
3  124 70 0  255 255 128
3  124 0 126  255 255 128
3  97 128 127  192 0 0
3  97 127 98  192 0 0
3  82 129 128  128 128 255
3  82 128 97  128 128 255
3  132 130 129  128 128 255
3  132 129 82  128 128 255
3  133 131 130  128 128 255
3  133 130 132  128 128 255
3  127 66 67  255 255 0
3  127 67 30  255 255 0
3  98 127 30  255 255 0
3  98 30 33  255 255 0
3  82 77 51  128 128 255
3  82 51 132  128 128 255
3  78 77 82  128 255 255
3  85 78 82  128 255 255
3  132 51 44  128 128 255
3  132 44 133  128 128 255
3  134 80 43  128 128 255
3  134 43 135  128 128 255
3  137 54 80  128 128 255
3  137 80 134  128 128 255
3  138 2 54  128 128 255
3  138 54 137  128 128 255
3  135 43 34  192 0 0
3  135 34 136  192 0 0
3  139 67 66  255 255 0
3  139 66 136  255 255 0
3  140 68 69  255 255 0
3  140 69 141  255 255 0
3  141 69 67  255 255 0
3  141 67 139  255 255 0
3  0 142 143  0 255 0
3  0 143 126  0 255 0
3  1 144 145  0 0 255
3  1 145 140  0 0 255
3  2 146 147  255 128 128
3  2 147 54  255 128 128
3  3 148 149  128 255 255
3  3 149 76  128 255 255
3  4 150 151  0 255 0
3  4 151 86  0 255 0
3  5 152 153  255 0 0
3  5 153 73  255 0 0
3  6 154 155  0 255 0
3  6 155 7  0 255 0
3  7 155 156  128 0 255
3  7 156 74  128 0 255
3  9 157 158  0 0 255
3  9 158 111  0 0 255
3  10 159 160  0 255 0
3  10 160 8  0 255 0
3  11 161 159  0 255 0
3  11 159 10  0 255 0
3  8 160 162  0 255 0
3  8 162 103  0 255 0
3  21 163 164  128 0 255
3  21 164 40  128 0 255
3  14 165 148  0 255 0
3  14 148 3  0 255 0
3  26 166 167  255 128 128
3  26 167 27  255 128 128
3  27 167 144  255 128 128
3  27 144 1  255 128 128
3  29 168 169  0 0 255
3  29 169 32  0 0 255
3  38 170 165  0 255 0
3  38 165 14  0 255 0
3  40 164 171  128 0 255
3  40 171 24  128 0 255
3  41 172 173  128 0 255
3  41 173 117  128 0 255
3  54 147 174  255 128 128
3  54 174 80  255 128 128
3  58 175 152  0 255 0
3  58 152 5  0 255 0
3  61 176 161  0 255 0
3  61 161 11  0 255 0
3  65 177 178  128 0 255
3  65 178 138  128 0 255
3  68 179 168  0 0 255
3  68 168 29  0 0 255
3  70 180 142  0 0 255
3  70 142 0  0 0 255
3  73 153 154  255 0 0
3  73 154 6  255 0 0
3  74 156 181  128 0 255
3  74 181 93  128 0 255
3  76 149 150  128 255 255
3  76 150 4  128 255 255
3  80 174 182  255 128 128
3  80 182 43  255 128 128
3  86 151 175  0 255 0
3  86 175 58  0 255 0
3  90 183 180  0 0 255
3  90 180 70  0 0 255
3  93 181 172  128 0 255
3  93 172 41  128 0 255
3  96 184 157  0 0 255
3  96 157 9  0 0 255
3  103 162 170  0 255 0
3  103 170 38  0 255 0
3  34 197 166  255 128 128
3  34 166 26  255 128 128
3  108 185 184  0 0 255
3  108 184 96  0 0 255
3  44 196 186  128 0 255
3  44 186 133  128 0 255
3  111 158 183  0 0 255
3  111 183 90  0 0 255
3  117 173 194  128 0 255
3  117 194 48  128 0 255
3  126 143 176  0 255 0
3  126 176 61  0 255 0
3  131 187 177  128 0 255
3  131 177 65  128 0 255
3  13 195 185  0 0 255
3  13 185 108  0 0 255
3  133 186 187  128 0 255
3  133 187 131  128 0 255
3  138 178 146  128 0 255
3  138 146 2  128 0 255
3  140 145 179  0 0 255
3  140 179 68  0 0 255
3  188 189 192  255 128 0
3  192 189 190  255 128 0
3  193 190 155  255 128 0
3  192 190 193  255 128 0
3  155 154 193  255 128 0
3  192 191 188  255 128 0

