OFF
57 50 0

1.77397 -1.90654 2.84355
-1.94984 1.78637 -3.1378
-1.94984 1.78637 -6.27609
-1.94984 1.78637 2.81568
3.1965 5.0145 5.15347
2.49885 4.28648 5.14913
3.1965 5.0145 4.50101
-1.59044 1.42995 3.42274
-1.94984 1.78637 3.49345
-3.71884 0.0364504 -3.1761
-6.0095 -2.22951 -3.22568
-4.2758 -3.94881 -3.23536
3.1965 5.0145 -6.27609
3.1965 5.0145 -3.052
-2.61904 -1.05422 -6.27609
2.24219 5.9332 -3.04706
4.00166 4.2394 -3.05618
-3.71884 0.0364506 2.55834
-3.29052 0.460154 2.78476
3.57316 4.65191 5.12803
4.00166 4.2394 5.09909
0.00984367 -3.66129 -3.19691
6.0095 2.3065 -3.06658
0.00984382 -3.66129 1.82481
1.9073 -1.77391 2.83163
4.20872 3.25584 5.05627
4.58798 3.67496 5.05949
-1.98515 -1.68286 5.07381
-1.07606 -2.58439 5.01144
-0.593231 0.441017 5.10715
-1.94984 1.78637 5.20023
2.94532 4.01736 5.12488
1.30498 5.00609 5.21397
-1.98515 -1.68286 -6.27609
4.00166 4.2394 -6.27609
4.00166 4.2394 5.84136
2.24219 5.9332 5.21793
-2.34327 -1.32771 5.09838
-1.98515 -1.68286 5.70329
-4.2758 -3.94881 1.00642
-6.0095 -2.22951 1.34748
-1.98515 -1.68286 2.21728
-2.2745 -5.9335 -3.24653
-1.98515 -1.68286 -3.18577
-6.0095 -2.22951 -6.27609
-2.2745 -5.9335 -6.27609
6.0095 2.3065 2.46472
2.24219 5.9332 -6.27609
6.0095 2.3065 -6.27609
-4.2758 -3.94881 -6.27609
-3.71884 0.0364506 2.77488
4.08428 4.15986 5.9789
-1.70523 -1.96044 6.17609
-3.71884 0.0364503 -6.27609
2.24219 5.9332 2.91236
0.00984357 -3.66129 -6.27609
0.00984386 -3.66129 3.00134
5  47 2 53 14 12  255 0 0
4  48 55 21 22  255 0 0
4  48 34 33 55  255 0 0
4  47 15 1 2  255 0 0
4  48 22 16 34  255 0 0
4  47 12 13 15  255 0 0
5  46 22 21 23 24  255 0 0
5  46 26 20 16 22  255 0 0
4  46 24 25 26  255 0 0
4  44 53 9 10  255 0 0
4  45 55 33 49  255 0 0
5  44 49 33 14 53  255 0 0
4  45 42 21 55  255 0 0
4  44 10 11 49  255 0 0
4  45 49 11 42  255 0 0
4  53 2 1 9  255 0 0
4  56 0 24 23  255 0 0
5  56 28 25 24 0  255 0 0
5  56 23 41 27 28  255 0 0
5  54 36 32 8 3  255 0 0
7  54 15 13 16 20 19 6  255 0 0
5  51 26 25 28 52  255 0 0
3  50 17 18  255 0 0
4  52 28 27 38  255 0 0
4  51 35 20 26  255 0 0
4  54 6 4 36  255 0 0
4  54 3 1 15  255 0 0
5  50 37 27 41 17  255 0 0
4  52 38 35 51  255 0 0
5  50 18 7 29 37  255 0 0
6  38 37 29 31 19 35  255 0 0
3  38 27 37  255 0 0
4  23 21 43 41  255 0 0
4  41 43 11 39  255 0 0
4  39 11 10 40  255 0 0
4  21 42 11 43  255 0 0
5  17 9 1 3 18  255 0 0
4  40 10 9 17  255 0 0
4  41 39 40 17  255 0 0
3  35 19 20  255 0 0
3  19 4 6  255 0 0
4  19 31 5 4  255 0 0
4  36 4 5 32  255 0 0
4  34 12 14 33  255 0 0
4  34 16 13 12  255 0 0
5  31 29 30 32 5  255 0 0
3  32 30 8  255 0 0
3  18 3 7  255 0 0
4  30 29 7 8  255 0 0
3  8 7 3  255 0 0

