OFF
57 60 0

2.24219 5.9332 2.91236
-1.94984 1.78637 2.81568
3.1965 5.0145 4.50101
3.57316 4.65191 5.12803
2.94532 4.01736 5.12488
-0.593231 0.441017 5.10715
-1.59044 1.42995 3.42274
-6.0095 -2.22951 -3.22568
-4.2758 -3.94881 -3.23536
-3.71884 0.0364504 -3.1761
-1.98515 -1.68286 -3.18577
-3.71884 0.0364503 -6.27609
0.00984357 -3.66129 -6.27609
0.00984367 -3.66129 -3.19691
-1.98515 -1.68286 -6.27609
-2.61904 -1.05422 -6.27609
-3.71884 0.0364506 2.55834
-1.98515 -1.68286 2.21728
1.77397 -1.90654 2.84355
-1.94984 1.78637 -3.1378
-1.94984 1.78637 -6.27609
3.1965 5.0145 5.15347
2.49885 4.28648 5.14913
-1.94984 1.78637 3.49345
3.1965 5.0145 -6.27609
3.1965 5.0145 -3.052
2.24219 5.9332 -3.04706
4.00166 4.2394 -3.05618
-3.29052 0.460154 2.78476
4.00166 4.2394 5.09909
-6.0095 -2.22951 -6.27609
6.0095 2.3065 -3.06658
-2.2745 -5.9335 -6.27609
6.0095 2.3065 2.46472
2.24219 5.9332 -6.27609
6.0095 2.3065 -6.27609
0.00984382 -3.66129 1.82481
1.9073 -1.77391 2.83163
-1.07606 -2.58439 5.01144
4.58798 3.67496 5.05949
-1.94984 1.78637 5.20023
1.30498 5.00609 5.21397
4.00166 4.2394 -6.27609
4.00166 4.2394 5.84136
2.24219 5.9332 5.21793
-2.34327 -1.32771 5.09838
-1.98515 -1.68286 5.70329
-4.2758 -3.94881 1.00642
-6.0095 -2.22951 1.34748
-1.98515 -1.68286 5.07381
-2.2745 -5.9335 -3.24653
-4.2758 -3.94881 -6.27609
-3.71884 0.0364506 2.77488
4.08428 4.15986 5.9789
-1.70523 -1.96044 6.17609
4.20872 3.25584 5.05627
0.00984386 -3.66129 3.00134
5  34 20 11 15 24  255 0 0
4  35 12 13 31  255 0 0
4  35 42 14 12  255 0 0
4  34 26 19 20  255 0 0
4  35 31 27 42  255 0 0
4  34 24 25 26  255 0 0
5  33 31 13 36 37  255 0 0
5  33 39 29 27 31  255 0 0
4  33 37 55 39  255 0 0
4  30 11 9 7  127 255 0
4  32 12 14 51  127 255 0
5  30 51 14 15 11  127 255 0
4  32 50 13 12  127 255 0
4  30 7 8 51  127 255 0
4  32 51 8 50  127 255 0
4  11 20 19 9  255 0 0
4  56 18 37 36  255 0 0
5  56 38 55 37 18  255 0 0
5  56 36 17 49 38  255 0 0
5  0 44 41 23 1  127 0 255
7  0 26 25 27 29 3 2  255 0 0
5  53 39 55 38 54  255 0 0
3  52 16 28  255 0 0
4  54 38 49 46  255 0 0
4  53 43 29 39  255 0 0
4  0 2 21 44  127 0 255
4  0 1 19 26  255 0 0
5  52 45 49 17 16  255 0 0
4  54 46 43 53  255 0 0
5  52 28 6 5 45  255 0 0
6  46 45 5 4 3 43  255 0 0
3  46 49 45  255 0 0
4  36 13 10 17  255 0 0
4  17 10 8 47  0 255 255
4  47 8 7 48  0 255 255
4  13 50 8 10  127 255 0
5  16 9 19 1 28  255 0 0
4  48 7 9 16  0 255 255
4  17 47 48 16  0 255 255
3  43 3 29  255 0 0
3  3 21 2  127 0 255
4  3 4 22 21  127 0 255
4  44 21 22 41  127 0 255
4  42 24 15 14  255 0 0
4  42 27 25 24  255 0 0
5  4 5 40 41 22  127 0 255
3  41 40 23  127 0 255
3  28 1 6  255 0 0
4  40 5 6 23  127 0 255
3  23 6 1  127 0 255
6  10 13 12 14 15 11  255 0 0
6  13 10 11 15 14 12  127 255 0
4  17 10 9 16  255 0 0
4  10 17 16 9  0 255 255
3  11 9 10  255 0 0
3  9 11 10  127 255 0
4  10 8 7 9  127 255 0
4  8 10 9 7  0 255 255
7  6 1 0 2 3 4 5  255 0 0
7  1 6 5 4 3 2 0  127 0 255

