OFF
389 328 0
27.946687698364 190.941497802734 2.663815975189
19.662687301636 182.701507568359 -3.047438144684
15.927687644958 186.405502319336 1.546574115753
25.133687973022 193.649505615234 5.352561950684
25.064687728882 193.577499389648 5.352132797241
24.296688079834 194.317504882813 5.404029369354
24.365688323975 194.389495849609 5.404458045959
24.179687500000 194.568496704102 5.417018890381
26.021471023560 192.794860839844 6.177996635437
23.844495773315 186.861099243164 3.030720472336
26.395011901855 192.435256958008 5.496154785156
26.525165557861 192.309967041016 5.258579254150
26.145910263062 191.890838623047 5.255362033844
26.021471023560 192.794860839844 6.177996635437
21.947031021118 184.973709106445 3.200432062149
25.510343551636 193.286911010742 5.327122211456
25.998731613159 192.770828247070 6.178771018982
25.487070083618 193.263381958008 5.327005386353
25.023248672485 192.794616699219 5.324681282043
25.538179397583 192.283950805664 6.194457054138
21.343957901001 189.076019287109 5.306244850159
21.942308425903 188.482635498047 6.316929817200
19.987344741821 190.421371459961 3.014770507813
20.561847686768 187.023300170898 6.363947391510
19.922199249268 187.639083862305 5.299120903015
18.529779434204 188.979522705078 2.981151103973
25.510343551636 193.286911010742 5.327122211456
19.987344741821 190.421371459961 3.014770507813
20.231950759888 186.674560546875 6.375183105469
18.529779434204 188.979522705078 2.981151103973
19.278705596924 183.082305908203 -3.045295000076
19.376874923706 182.984939575195 -3.045842885971
20.147516250610 183.751495361328 -3.029102802277
20.433326721191 183.468048095703 -3.030697822571
20.049345016479 183.848846435547 -3.028554916382
21.661218643188 185.257156372070 -2.996221542358
21.947031021118 184.973709106445 -2.997816562653
21.563047409058 185.354507446289 -2.995673656464
21.947031021118 184.973709106445 -2.997816562653
17.661388397217 184.686187744141 -3.036268711090
24.882507324219 192.652359008789 5.323976039886
25.660669326782 193.096267700195 5.615997791290
25.062911987305 192.755279541016 5.391676902771
25.690628051758 193.113357543945 5.627239704132
24.882507324219 192.652359008789 5.323976039886
20.346742630005 190.064956665039 3.621835708618
18.646667480469 189.095153808594 2.983847379684
23.242164611816 193.641082763672 5.413061141968
19.987344741821 190.421371459961 3.692538499832
20.346742630005 190.064956665039 3.621835708618
17.661388397217 184.686187744141 1.205511212349
18.529779434204 188.979522705078 2.922058582306
21.947031021118 184.973709106445 2.023903369904
21.536376953125 189.270492553711 5.307209491730
20.861122131348 186.050613403320 5.210534572601
21.343957901001 189.076019287109 5.306244850159
19.987344741821 190.421371459961 5.399320602417
19.593919754028 187.307296752930 5.297475814819
20.244884490967 190.165969848633 3.449786663055
18.791149139404 188.727905273438 2.873418092728
18.791149139404 188.727905273438 3.416255712509
20.244884490967 190.165969848633 5.381650924683
16.185228347778 186.150100708008 1.495909214020
18.791149139404 188.727905273438 3.416255712509
19.864923477173 189.790100097656 3.441022634506
23.562627792358 193.447921752930 5.395657062531
20.244884490967 190.165969848633 3.641873836517
20.244884490967 190.165969848633 3.449786663055
24.370140075684 194.246734619141 5.399065971375
21.563047409058 185.354507446289 -2.995673656464
21.563047409058 185.354507446289 2.099442243576
24.485013961792 188.260955810547 3.649870634079
27.557012557983 191.316635131836 3.375107765198
21.563047409058 185.354507446289 3.911214590073
16.895961761475 186.853164672852 1.871608257294
18.394069671631 185.410980224609 1.592812657356
16.634592056274 187.104782104492 1.920248866081
18.394069671631 185.410980224609 -3.020408153534
20.033319473267 183.832901000977 -3.028903007507
20.422994613647 183.457778930664 -3.030922412872
20.132946014404 183.736999511719 -3.029419183731
27.923223495483 190.918151855469 2.665914535522
27.533548355103 191.293289184570 3.377206325531
25.998731613159 192.770828247070 6.178771018982
26.380424499512 192.403381347656 5.482052803040
24.342466354370 194.365264892578 5.404314041138
24.155851364136 194.544921875000 5.416918277740
26.502954483032 192.285415649414 5.258390903473
25.487070083618 193.263381958008 5.327005386353
25.110795974731 193.625610351563 5.352419853210
19.472270965576 188.072219848633 2.746662378311
19.472270965576 188.072219848633 4.550121307373
17.577083587646 186.197463989258 1.744852542877
16.856370925903 185.484527587891 1.363878488541
24.397741317749 192.944564819336 5.350303173065
19.147026062012 187.750473022461 2.574735403061
20.916027069092 189.500396728516 5.335604667664
20.916027069092 189.500396728516 4.583422183990
19.472270965576 188.072219848633 4.550121307373
20.916027069092 189.500396728516 4.583422183990
19.147026062012 187.750473022461 4.542619705200
25.050956726074 193.590728759766 5.353060722351
23.964048385620 193.845016479492 5.397351741791
24.635190963745 193.179443359375 5.351305484772
27.036090850830 190.798477172852 3.421699285507
27.420074462891 190.417678833008 2.710916757584
26.045959472656 191.780395507813 5.254514217377
26.079946517944 191.746688842773 5.191600322723
25.538179397583 192.283950805664 6.194457054138
23.706508636475 194.100418090820 5.415021419525
25.023248672485 192.794616699219 5.324681282043
20.244884490967 190.165969848633 5.381650924683
20.916027069092 189.500396728516 5.335604667664
22.532352447510 187.897491455078 5.224710941315
23.327175140381 187.109268188477 3.753428936005
21.942308425903 188.482635498047 6.316929817200
23.711158752441 186.728469848633 3.042646408081
19.987344741821 190.421371459961 5.399320602417
21.343957901001 189.076019287109 5.306244850159
18.394069671631 185.410980224609 1.592812657356
17.661388397217 184.686187744141 1.205511212349
18.394069671631 185.410980224609 -3.020408153534
19.952041625977 186.952148437500 2.416368246078
19.952041625977 186.952148437500 -2.986682653427
19.952041625977 186.952148437500 5.902385234833
19.952041625977 186.952148437500 5.272905826569
25.915328979492 192.851104736328 6.039930820465
25.440208435059 192.381118774414 6.028972148895
25.938859939575 192.874389648438 6.040473461151
21.721044540405 188.702056884766 5.943188190460
20.289257049561 187.285720825195 5.910163402557
17.661388397217 184.686187744141 -3.036268711090
19.472270965576 188.072219848633 2.746662378311
21.923206329346 185.712753295898 3.879001379013
21.192197799683 186.416473388672 5.213343143463
20.561847686768 187.023300170898 6.363947391510
22.312883377075 185.337615966797 3.167709589005
18.791149139404 188.727905273438 2.873418092728
19.472270965576 188.072219848633 4.550121307373
19.472270965576 188.072219848633 2.746662378311
18.529779434204 188.979522705078 2.922058582306
21.104200363159 189.686538696289 5.336399078369
20.423078536987 190.342239379883 5.382403373718
23.940248489380 186.956344604492 3.022156238556
23.904029846191 186.991210937500 3.088268041611
23.550573348999 187.331481933594 3.733448028564
22.732666015625 188.118850708008 5.226409912109
22.138900756836 188.690460205078 6.310234069824
22.138900756836 188.690460205078 6.310234069824
21.921186447144 188.900039672852 5.947804450989
21.536376953125 189.270492553711 5.307209491730
20.161708831787 190.593856811523 5.400056838989
22.022832870483 185.616851806641 3.697149038315
23.425346374512 187.011901855469 3.571706771851
24.321254730225 187.903060913086 3.491575479507
27.134262084961 190.701126098633 3.239977121353
23.650199890137 187.235565185547 3.551595687866
21.661218643188 185.257156372070 -2.996221542358
21.661218643188 185.257156372070 2.080129623413
27.633174896240 191.197387695313 3.195353984833
21.661218643188 185.257156372070 3.729492187500
27.656639099121 191.220718383789 3.193255186081
18.434156417847 185.450622558594 -3.019540548325
18.434156417847 185.450622558594 -3.019540548325
18.434156417847 185.450622558594 1.614002943039
18.434156417847 185.450622558594 1.614002943039
17.629140853882 186.248962402344 1.772370219231
16.957998275757 186.914535522461 1.904400944710
16.700456619263 187.169937133789 1.955065727234
21.661218643188 185.257156372070 3.729492187500
21.947031021118 184.973709106445 3.200432062149
19.952041625977 186.952148437500 -2.986682653427
19.952041625977 186.952148437500 2.416368246078
19.147026062012 187.750473022461 4.542619705200
20.861122131348 186.050613403320 5.210534572601
21.563047409058 185.354507446289 3.911214590073
20.231950759888 186.674560546875 6.375183105469
20.231950759888 186.674560546875 6.375183105469
19.952041625977 186.952148437500 -2.986682653427
19.593919754028 187.307296752930 5.297475814819
19.952041625977 186.952148437500 5.902385234833
19.952041625977 186.952148437500 2.416368246078
19.147026062012 187.750473022461 2.574735403061
18.475883483887 188.416046142578 2.706766128540
19.147026062012 187.750473022461 2.574735403061
19.147026062012 187.750473022461 4.542619705200
18.218341827393 188.671447753906 2.757431030273
16.887174606323 185.514999389648 1.380161881447
17.704160690308 184.728500366211 1.228121876717
17.704160690308 184.728500366211 -3.035342693329
16.206052780151 186.170700073242 1.506917476654
17.704160690308 184.728500366211 1.228121876717
15.944683074951 186.422317504883 1.555558085442
17.704160690308 184.728500366211 -3.035342693329
19.345340728760 183.148590087891 -3.043847560883
19.735015869141 182.773452758789 -3.045866966248
19.444967269897 183.052673339844 -3.044363737106
27.656639099121 191.220718383789 3.193255186081
27.946687698364 190.941497802734 2.663815975189
27.946687698364 190.941497802734 -5.977000236511
27.656639099121 191.220718383789 -5.977000236511
19.735015869141 182.773452758789 -3.045866966248
19.662687301636 182.701507568359 -3.047438144684
19.662687301636 182.701507568359 -5.977000236511
19.735015869141 182.773452758789 -5.977000236511
16.185228347778 186.150100708008 1.495909214020
15.927687644958 186.405502319336 1.546574115753
15.927687644958 186.405502319336 -5.977000236511
16.185228347778 186.150100708008 -5.977000236511
25.110795974731 193.625610351563 5.352419853210
25.133687973022 193.649505615234 5.352561950684
25.133687973022 193.649505615234 -5.977000236511
25.110795974731 193.625610351563 -5.977000236511
25.050956726074 193.590728759766 5.353060722351
25.064687728882 193.577499389648 5.352132797241
25.064687728882 193.577499389648 -5.977000236511
25.050956726074 193.590728759766 -5.977000236511
24.342466354370 194.365264892578 5.404314041138
24.296688079834 194.317504882813 5.404029369354
24.296688079834 194.317504882813 -5.977000236511
24.342466354370 194.365264892578 -5.977000236511
24.179687500000 194.568496704102 5.417018890381
24.365688323975 194.389495849609 5.404458045959
24.365688323975 194.389495849609 -5.977000236511
24.179687500000 194.568496704102 -5.977000236511
24.155851364136 194.544921875000 5.416918277740
24.179687500000 194.568496704102 5.417018890381
24.179687500000 194.568496704102 -5.977000236511
24.155851364136 194.544921875000 -5.977000236511
23.940248489380 186.956344604492 3.022156238556
23.844495773315 186.861099243164 3.030720472336
23.844495773315 186.861099243164 -5.977000236511
23.940248489380 186.956344604492 -5.977000236511
26.021471023560 192.794860839844 6.177996635437
26.395011901855 192.435256958008 5.496154785156
26.395011901855 192.435256958008 -5.977000236511
26.021471023560 192.794860839844 -5.977000236511
26.395011901855 192.435256958008 5.496154785156
26.525165557861 192.309967041016 5.258579254150
26.525165557861 192.309967041016 -5.977000236511
26.395011901855 192.435256958008 -5.977000236511
25.938859939575 192.874389648438 6.040473461151
26.021471023560 192.794860839844 6.177996635437
26.021471023560 192.794860839844 -5.977000236511
25.938859939575 192.874389648438 -5.977000236511
18.646667480469 189.095153808594 2.983847379684
19.987344741821 190.421371459961 3.014770507813
19.987344741821 190.421371459961 -5.977000236511
18.646667480469 189.095153808594 -5.977000236511
25.133687973022 193.649505615234 5.352561950684
25.510343551636 193.286911010742 5.327122211456
25.510343551636 193.286911010742 -5.977000236511
25.133687973022 193.649505615234 -5.977000236511
19.376874923706 182.984939575195 -3.045842885971
19.278705596924 183.082305908203 -3.045295000076
19.278705596924 183.082305908203 -5.977000236511
19.376874923706 182.984939575195 -5.977000236511
19.662687301636 182.701507568359 -3.047438144684
19.376874923706 182.984939575195 -3.045842885971
19.376874923706 182.984939575195 -5.977000236511
19.662687301636 182.701507568359 -5.977000236511
21.947031021118 184.973709106445 -2.997816562653
20.433326721191 183.468048095703 -3.030697822571
20.433326721191 183.468048095703 -5.977000236511
21.947031021118 184.973709106445 -5.977000236511
25.510343551636 193.286911010742 5.327122211456
25.690628051758 193.113357543945 5.627239704132
25.690628051758 193.113357543945 -5.977000236511
25.510343551636 193.286911010742 -5.977000236511
18.529779434204 188.979522705078 2.981151103973
18.646667480469 189.095153808594 2.983847379684
18.646667480469 189.095153808594 -5.977000236511
18.529779434204 188.979522705078 -5.977000236511
20.161708831787 190.593856811523 5.400056838989
23.242164611816 193.641082763672 5.413061141968
23.242164611816 193.641082763672 -5.977000236511
20.161708831787 190.593856811523 -5.977000236511
16.856370925903 185.484527587891 1.363878488541
16.185228347778 186.150100708008 1.495909214020
16.185228347778 186.150100708008 -5.977000236511
16.856370925903 185.484527587891 -5.977000236511
24.296688079834 194.317504882813 5.404029369354
24.370140075684 194.246734619141 5.399065971375
24.370140075684 194.246734619141 -5.977000236511
24.296688079834 194.317504882813 -5.977000236511
26.525165557861 192.309967041016 5.258579254150
27.557012557983 191.316635131836 3.375107765198
27.557012557983 191.316635131836 -5.977000236511
26.525165557861 192.309967041016 -5.977000236511
15.944683074951 186.422317504883 1.555558085442
16.634592056274 187.104782104492 1.920248866081
16.634592056274 187.104782104492 -5.977000236511
15.944683074951 186.422317504883 -5.977000236511
20.433326721191 183.468048095703 -3.030697822571
20.422994613647 183.457778930664 -3.030922412872
20.422994613647 183.457778930664 -5.977000236511
20.433326721191 183.468048095703 -5.977000236511
27.946687698364 190.941497802734 2.663815975189
27.923223495483 190.918151855469 2.665914535522
27.923223495483 190.918151855469 -5.977000236511
27.946687698364 190.941497802734 -5.977000236511
24.365688323975 194.389495849609 5.404458045959
24.342466354370 194.365264892578 5.404314041138
24.342466354370 194.365264892578 -5.977000236511
24.365688323975 194.389495849609 -5.977000236511
23.706508636475 194.100418090820 5.415021419525
24.155851364136 194.544921875000 5.416918277740
24.155851364136 194.544921875000 -5.977000236511
23.706508636475 194.100418090820 -5.977000236511
25.064687728882 193.577499389648 5.352132797241
25.110795974731 193.625610351563 5.352419853210
25.110795974731 193.625610351563 -5.977000236511
25.064687728882 193.577499389648 -5.977000236511
17.661388397217 184.686187744141 1.205511212349
16.856370925903 185.484527587891 1.363878488541
16.856370925903 185.484527587891 -5.977000236511
17.661388397217 184.686187744141 -5.977000236511
24.370140075684 194.246734619141 5.399065971375
25.050956726074 193.590728759766 5.353060722351
25.050956726074 193.590728759766 -5.977000236511
24.370140075684 194.246734619141 -5.977000236511
27.923223495483 190.918151855469 2.665914535522
27.420074462891 190.417678833008 2.710916757584
27.420074462891 190.417678833008 -5.977000236511
27.923223495483 190.918151855469 -5.977000236511
23.242164611816 193.641082763672 5.413061141968
23.706508636475 194.100418090820 5.415021419525
23.706508636475 194.100418090820 -5.977000236511
23.242164611816 193.641082763672 -5.977000236511
23.844495773315 186.861099243164 3.030720472336
23.711158752441 186.728469848633 3.042646408081
23.711158752441 186.728469848633 -5.977000236511
23.844495773315 186.861099243164 -5.977000236511
25.690628051758 193.113357543945 5.627239704132
25.938859939575 192.874389648438 6.040473461151
25.938859939575 192.874389648438 -5.977000236511
25.690628051758 193.113357543945 -5.977000236511
19.278705596924 183.082305908203 -3.045295000076
17.661388397217 184.686187744141 -3.036268711090
17.661388397217 184.686187744141 -5.977000236511
19.278705596924 183.082305908203 -5.977000236511
23.711158752441 186.728469848633 3.042646408081
22.312883377075 185.337615966797 3.167709589005
22.312883377075 185.337615966797 -5.977000236511
23.711158752441 186.728469848633 -5.977000236511
18.218341827393 188.671447753906 2.757431030273
18.529779434204 188.979522705078 2.922058582306
18.529779434204 188.979522705078 -5.977000236511
18.218341827393 188.671447753906 -5.977000236511
27.420074462891 190.417678833008 2.710916757584
23.940248489380 186.956344604492 3.022156238556
23.940248489380 186.956344604492 -5.977000236511
27.420074462891 190.417678833008 -5.977000236511
19.987344741821 190.421371459961 5.399320602417
20.161708831787 190.593856811523 5.400056838989
20.161708831787 190.593856811523 -5.977000236511
19.987344741821 190.421371459961 -5.977000236511
27.557012557983 191.316635131836 3.375107765198
27.656639099121 191.220718383789 3.193255186081
27.656639099121 191.220718383789 -5.977000236511
27.557012557983 191.316635131836 -5.977000236511
16.634592056274 187.104782104492 1.920248866081
16.700456619263 187.169937133789 1.955065727234
16.700456619263 187.169937133789 -5.977000236511
16.634592056274 187.104782104492 -5.977000236511
22.312883377075 185.337615966797 3.167709589005
21.947031021118 184.973709106445 3.200432062149
21.947031021118 184.973709106445 -5.977000236511
22.312883377075 185.337615966797 -5.977000236511
16.700456619263 187.169937133789 1.955065727234
18.218341827393 188.671447753906 2.757431030273
18.218341827393 188.671447753906 -5.977000236511
16.700456619263 187.169937133789 -5.977000236511
15.927687644958 186.405502319336 1.546574115753
15.944683074951 186.422317504883 1.555558085442
15.944683074951 186.422317504883 -5.977000236511
15.927687644958 186.405502319336 -5.977000236511
20.422994613647 183.457778930664 -3.030922412872
19.735015869141 182.773452758789 -3.045866966248
19.735015869141 182.773452758789 -5.977000236511
20.422994613647 183.457778930664 -5.977000236511
19.662687301636 182.701507568359 -5.977000236511
15.927687644958 186.405502319336 -5.977000236511
24.179687500000 194.568496704102 -5.977000236511
24.365688323975 194.389495849609 -5.977000236511
24.296688079834 194.317504882813 -5.977000236511
25.064687728882 193.577499389648 -5.977000236511
25.133687973022 193.649505615234 -5.977000236511
27.946687698364 190.941497802734 -5.977000236511
3 104 82 107
3 82 87 107
3 107 87 12
3 84 12 87
3 127 19 16
3 127 16 126
3 126 16 13
3 126 13 128
3 149 129 21
3 149 21 148
3 177 23 130
3 177 130 180
3 179 24 98
3 179 98 173
3 130 23 21
3 130 21 129
3 98 24 20
3 98 20 97
3 99 55 96
3 189 131 30
3 189 30 194
3 196 31 1
3 196 1 195
3 194 30 31
3 194 31 196
3 35 32 33
3 35 33 36
3 37 34 32
3 37 32 35
3 122 54 125
3 122 70 73
3 122 73 54
3 41 17 18
3 41 18 42
3 43 15 17
3 43 17 41
3 42 18 44
3 64 45 67
3 4 88 89
3 110 4 103
3 103 4 101
3 110 88 4
3 58 49 66
3 123 69 70
3 123 70 122
3 60 29 51
3 60 51 59
3 125 54 28
3 125 28 124
3 64 46 25
3 64 25 63
3 61 56 48
3 61 48 66
3 67 22 46
3 67 46 64
3 102 68 5
3 5 86 109
3 102 5 109
3 5 85 86
3 66 48 27
3 66 27 58
3 158 70 69
3 158 69 157
3 91 60 59
3 91 59 90
3 159 82 104
3 159 104 155
3 160 73 70
3 160 70 158
3 187 92 74
3 187 74 190
3 156 145 114
3 156 114 153
3 190 74 76
3 190 76 192
3 193 77 75
3 193 75 191
3 151 117 111
3 151 111 142
3 107 12 106
3 12 84 108
3 12 108 106
3 84 83 108
3 141 112 118
3 141 118 53
3 79 33 32
3 79 32 80
3 80 32 34
3 80 34 78
3 161 72 82
3 161 82 159
3 84 10 8
3 84 8 83
3 85 6 7
3 85 7 86
3 82 72 11
3 82 11 87
3 87 11 10
3 87 10 84
3 88 26 3
3 88 3 89
3 188 119 92
3 188 92 187
3 142 111 112
3 142 112 141
3 63 98 64
3 64 98 97
3 64 97 45
3 66 99 61
3 66 49 99
3 61 99 96
3 103 101 68
3 103 68 102
3 102 65 94
3 102 94 103
3 144 9 143
3 146 113 114
3 146 114 145
3 147 115 113
3 147 113 146
3 109 47 65
3 109 65 102
3 107 71 104
3 103 94 40
3 103 40 110
3 175 133 134
3 175 134 174
3 174 134 135
3 174 135 176
3 169 152 133
3 169 133 175
3 124 57 125
3 126 41 42
3 126 42 127
3 128 43 41
3 128 41 126
3 150 20 129
3 150 129 149
3 180 130 24
3 180 24 179
3 129 20 24
3 129 24 130
3 95 122 100
3 100 122 125
3 100 125 57
3 164 75 77
3 164 77 163
3 166 92 119
3 166 119 165
3 133 114 113
3 133 113 134
3 134 113 115
3 134 115 135
3 153 114 133
3 153 133 152
3 167 74 92
3 167 92 166
3 168 76 74
3 168 74 167
3 141 94 65
3 141 65 142
3 155 104 71
3 155 71 154
3 71 107 106
3 71 106 146
3 71 146 145
3 146 106 108
3 146 108 147
3 149 44 150
3 149 127 44
3 44 127 42
3 154 71 145
3 154 145 156
3 142 65 47
3 142 47 151
3 53 40 94
3 53 94 141
3 148 19 127
3 148 127 149
3 170 136 152
3 170 152 169
3 152 136 116
3 152 116 153
3 105 155 154
3 105 154 143
3 143 154 144
3 156 144 154
3 157 38 52
3 157 52 158
3 155 105 81
3 155 81 159
3 158 52 14
3 158 14 160
3 153 144 156
3 153 116 144
3 116 9 144
3 159 81 0
3 159 0 161
3 172 164 163
3 172 163 171
3 182 166 165
3 182 165 181
3 183 167 166
3 183 166 182
3 186 168 167
3 186 167 183
3 162 121 78
3 162 78 34
3 178 162 34
3 178 34 37
3 182 132 137
3 182 137 183
3 184 139 138
3 184 138 185
3 183 137 140
3 183 140 186
3 187 93 120
3 187 120 188
3 190 62 93
3 190 93 187
3 192 2 62
3 192 62 190
3 191 50 39
3 191 39 193
3 194 78 121
3 194 121 189
3 195 79 80
3 195 80 196
3 196 80 78
3 196 78 194
3 198 199 200
3 198 200 197
3 202 203 204
3 202 204 201
3 206 207 208
3 206 208 205
3 210 211 212
3 210 212 209
3 214 215 216
3 214 216 213
3 218 219 220
3 218 220 217
3 222 223 224
3 222 224 221
3 226 227 228
3 226 228 225
3 230 231 232
3 230 232 229
3 234 235 236
3 234 236 233
3 238 239 240
3 238 240 237
3 242 243 244
3 242 244 241
3 246 247 248
3 246 248 245
3 250 251 252
3 250 252 249
3 254 255 256
3 254 256 253
3 258 259 260
3 258 260 257
3 262 263 264
3 262 264 261
3 266 267 268
3 266 268 265
3 270 271 272
3 270 272 269
3 274 275 276
3 274 276 273
3 278 279 280
3 278 280 277
3 282 283 284
3 282 284 281
3 286 287 288
3 286 288 285
3 290 291 292
3 290 292 289
3 294 295 296
3 294 296 293
3 298 299 300
3 298 300 297
3 302 303 304
3 302 304 301
3 306 307 308
3 306 308 305
3 310 311 312
3 310 312 309
3 314 315 316
3 314 316 313
3 318 319 320
3 318 320 317
3 322 323 324
3 322 324 321
3 326 327 328
3 326 328 325
3 330 331 332
3 330 332 329
3 334 335 336
3 334 336 333
3 338 339 340
3 338 340 337
3 342 343 344
3 342 344 341
3 346 347 348
3 346 348 345
3 350 351 352
3 350 352 349
3 354 355 356
3 354 356 353
3 358 359 360
3 358 360 357
3 362 363 364
3 362 364 361
3 366 367 368
3 366 368 365
3 370 371 372
3 370 372 369
3 374 375 376
3 374 376 373
3 378 379 380
3 378 380 377
3 388 381 386
3 386 381 382
3 385 382 383
3 386 382 385
3 383 384 385
3 386 387 388
