OFF
57 60 0

2.24219 5.9332 2.91236
-4.2758 -3.94881 -3.23536
-3.71884 0.0364504 -3.1761
-6.0095 -2.22951 -3.22568
-1.98515 -1.68286 -3.18577
-3.71884 0.0364503 -6.27609
0.00984357 -3.66129 -6.27609
0.00984367 -3.66129 -3.19691
-1.98515 -1.68286 -6.27609
-2.61904 -1.05422 -6.27609
-3.71884 0.0364506 2.55834
-1.98515 -1.68286 2.21728
1.77397 -1.90654 2.84355
-1.94984 1.78637 -3.1378
-1.94984 1.78637 -6.27609
-1.94984 1.78637 2.81568
3.1965 5.0145 5.15347
2.49885 4.28648 5.14913
3.1965 5.0145 -6.27609
2.24219 5.9332 -3.04706
4.00166 4.2394 -3.05618
-3.29052 0.460154 2.78476
3.57316 4.65191 5.12803
4.00166 4.2394 5.09909
6.0095 2.3065 -3.06658
0.00984382 -3.66129 1.82481
1.9073 -1.77391 2.83163
-1.07606 -2.58439 5.01144
4.58798 3.67496 5.05949
-0.593231 0.441017 5.10715
-1.59044 1.42995 3.42274
-1.94984 1.78637 3.49345
-1.94984 1.78637 5.20023
2.94532 4.01736 5.12488
1.30498 5.00609 5.21397
4.00166 4.2394 -6.27609
4.00166 4.2394 5.84136
2.24219 5.9332 5.21793
-2.34327 -1.32771 5.09838
-1.98515 -1.68286 5.70329
-4.2758 -3.94881 1.00642
-6.0095 -2.22951 1.34748
-1.98515 -1.68286 5.07381
-2.2745 -5.9335 -3.24653
-4.2758 -3.94881 -6.27609
4.20872 3.25584 5.05627
3.1965 5.0145 4.50101
-2.2745 -5.9335 -6.27609
-6.0095 -2.22951 -6.27609
-1.70523 -1.96044 6.17609
-3.71884 0.0364506 2.77488
4.08428 4.15986 5.9789
0.00984386 -3.66129 3.00134
6.0095 2.3065 2.46472
3.1965 5.0145 -3.052
2.24219 5.9332 -6.27609
6.0095 2.3065 -6.27609
5  55 14 5 9 18  255 0 0
4  56 6 7 24  255 0 0
4  56 35 8 6  255 0 0
4  55 19 13 14  255 0 0
4  56 24 20 35  255 0 0
4  55 18 54 19  255 0 0
5  53 24 7 25 26  255 0 0
5  53 28 23 20 24  255 0 0
4  53 26 45 28  255 0 0
4  48 5 2 3  127 255 0
4  47 6 8 44  127 255 0
5  48 44 8 9 5  127 255 0
4  47 43 7 6  127 255 0
4  48 3 1 44  127 255 0
4  47 44 1 43  127 255 0
4  5 14 13 2  255 0 0
4  52 12 26 25  255 0 0
5  52 27 45 26 12  255 0 0
5  52 25 11 42 27  255 0 0
5  0 37 34 31 15  127 0 255
7  0 19 54 20 23 22 46  255 0 0
5  51 28 45 27 49  255 0 0
3  50 10 21  255 0 0
4  49 27 42 39  255 0 0
4  51 36 23 28  255 0 0
4  0 46 16 37  127 0 255
4  0 15 13 19  255 0 0
5  50 38 42 11 10  255 0 0
4  49 39 36 51  255 0 0
5  50 21 30 29 38  255 0 0
6  39 38 29 33 22 36  255 0 0
3  39 42 38  255 0 0
4  25 7 4 11  255 0 0
4  11 4 1 40  0 255 255
4  40 1 3 41  0 255 255
4  7 43 1 4  127 255 0
5  10 2 13 15 21  255 0 0
4  41 3 2 10  0 255 255
4  11 40 41 10  0 255 255
3  36 22 23  255 0 0
3  22 16 46  127 0 255
4  22 33 17 16  127 0 255
4  37 16 17 34  127 0 255
4  35 18 9 8  255 0 0
4  35 20 54 18  255 0 0
5  33 29 32 34 17  127 0 255
3  34 32 31  127 0 255
3  21 15 30  255 0 0
4  32 29 30 31  127 0 255
3  31 30 15  127 0 255
6  4 7 6 8 9 5  255 0 0
6  7 4 5 9 8 6  127 255 0
4  11 4 2 10  255 0 0
4  4 11 10 2  0 255 255
3  5 2 4  255 0 0
3  2 5 4  127 255 0
4  4 1 3 2  127 255 0
4  1 4 2 3  0 255 255
7  30 15 0 46 22 33 29  255 0 0
7  15 30 29 33 22 46 0  127 0 255

