OFF
1131 2320 0
835295.919999957085 815759.280000001192 131.000000000000
835294.960000000894 815761.200000047684 131.000000000000
835293.519999980927 815762.879999876022 131.000000000000
835291.759999990463 815764.239999771118 131.000000000000
835254.639999389648 815777.279998779297 131.000000000000
835252.479999542236 815777.359998703003 131.000000000000
835250.240001678467 815776.959999084473 131.000000000000
835248.240001678467 815776.079999923706 131.000000000000
835246.479999542236 815774.880000114441 131.000000000000
835244.960002899170 815773.279999732971 131.000000000000
835243.760002136230 815771.439999580383 131.000000000000
835243.040000915527 815769.279999732971 131.000000000000
835242.720001220703 815767.119999885559 131.000000000000
835242.960002899170 815764.960000038147 131.000000000000
835243.600002288818 815762.879999876022 131.000000000000
835244.639999389648 815760.879999995232 131.000000000000
835246.080001831055 815759.199999988079 131.000000000000
835247.840000152588 815757.920000076294 131.000000000000
835256.720001220703 815776.799999237061 131.000000000000
835249.760002136230 815756.960000038147 131.000000000000
835282.800000190735 815745.360000610352 131.000000000000
835289.760000228882 815765.119999885559 131.000000000000
835284.960000038147 815744.880000114441 131.000000000000
835287.120000362396 815744.800000190735 131.000000000000
835289.280000209808 815745.200000762939 131.000000000000
835291.360000133514 815746.000000000000 131.000000000000
835293.120000004768 815747.280000686646 131.000000000000
835294.640000015497 815748.880000114441 131.000000000000
835295.759999990463 815750.720000267029 131.000000000000
835296.480000019073 815752.880000114441 131.000000000000
835296.719999909401 815754.960000038147 131.000000000000
835296.559999942780 815757.120000004768 131.000000000000
835295.919999957085 815759.280000001192 113.364999771118
835294.960000000894 815761.200000047684 113.364999771118
835294.960000000894 815761.200000047684 126.434999942780
835295.919999957085 815759.280000001192 126.434999942780
835293.519999980927 815762.879999876022 113.364999771118
835293.519999980927 815762.879999876022 126.434999942780
835291.759999990463 815764.239999771118 113.364999771118
835291.759999990463 815764.239999771118 126.434999942780
835289.760000228882 815765.119999885559 113.364999771118
835289.760000228882 815765.119999885559 126.434999942780
835256.720001220703 815776.799999237061 113.364999771118
835256.720001220703 815776.799999237061 126.434999942780
835254.639999389648 815777.279998779297 113.364999771118
835254.639999389648 815777.279998779297 126.434999942780
835252.479999542236 815777.359998703003 113.364999771118
835252.479999542236 815777.359998703003 126.434999942780
835250.240001678467 815776.959999084473 113.364999771118
835250.240001678467 815776.959999084473 126.434999942780
835248.240001678467 815776.079999923706 113.364999771118
835248.240001678467 815776.079999923706 126.434999942780
835246.479999542236 815774.880000114441 113.364999771118
835246.479999542236 815774.880000114441 126.434999942780
835244.960002899170 815773.279999732971 113.364999771118
835244.960002899170 815773.279999732971 126.434999942780
835243.760002136230 815771.439999580383 113.364999771118
835243.760002136230 815771.439999580383 126.434999942780
835243.040000915527 815769.279999732971 113.364999771118
835243.040000915527 815769.279999732971 126.434999942780
835242.720001220703 815767.119999885559 113.364999771118
835242.720001220703 815767.119999885559 126.434999942780
835242.960002899170 815764.960000038147 113.364999771118
835242.960002899170 815764.960000038147 126.434999942780
835243.600002288818 815762.879999876022 113.364999771118
835243.600002288818 815762.879999876022 126.434999942780
835244.639999389648 815760.879999995232 113.364999771118
835244.639999389648 815760.879999995232 126.434999942780
835246.080001831055 815759.199999988079 113.364999771118
835246.080001831055 815759.199999988079 126.434999942780
835247.840000152588 815757.920000076294 113.364999771118
835247.840000152588 815757.920000076294 126.434999942780
835249.760002136230 815756.960000038147 113.364999771118
835249.760002136230 815756.960000038147 126.434999942780
835282.800000190735 815745.360000610352 113.364999771118
835282.800000190735 815745.360000610352 126.434999942780
835284.960000038147 815744.880000114441 113.364999771118
835284.960000038147 815744.880000114441 126.434999942780
835287.120000362396 815744.800000190735 113.364999771118
835287.120000362396 815744.800000190735 126.434999942780
835289.280000209808 815745.200000762939 113.364999771118
835289.280000209808 815745.200000762939 126.434999942780
835291.360000133514 815746.000000000000 113.364999771118
835291.360000133514 815746.000000000000 126.434999942780
835293.120000004768 815747.280000686646 113.364999771118
835293.120000004768 815747.280000686646 126.434999942780
835294.640000015497 815748.880000114441 113.364999771118
835294.640000015497 815748.880000114441 126.434999942780
835295.759999990463 815750.720000267029 113.364999771118
835295.759999990463 815750.720000267029 126.434999942780
835296.480000019073 815752.880000114441 113.364999771118
835296.480000019073 815752.880000114441 126.434999942780
835296.719999909401 815754.960000038147 113.364999771118
835296.719999909401 815754.960000038147 126.434999942780
835296.559999942780 815757.120000004768 113.364999771118
835296.559999942780 815757.120000004768 126.434999942780
835258.319999694824 815722.080001831055 38.835296630859
835260.560001373291 815722.000000000000 38.835296630859
835262.720001220703 815722.400001525879 38.835296630859
835264.720001220703 815723.280002593994 38.835296630859
835254.639999389648 815777.279998779297 38.835296630859
835252.479999542236 815777.359998703003 38.835296630859
835250.240001678467 815776.959999084473 38.835296630859
835248.240001678467 815776.079999923706 38.835296630859
835246.479999542236 815774.880000114441 38.835296630859
835244.960002899170 815773.279999732971 38.835296630859
835243.760002136230 815771.439999580383 38.835296630859
835243.040000915527 815769.279999732971 38.835296630859
835242.720001220703 815767.119999885559 38.835296630859
835242.960002899170 815764.960000038147 38.835296630859
835256.720001220703 815776.799999237061 38.835296630859
835289.760000228882 815765.119999885559 38.835296630859
835291.759999990463 815764.239999771118 38.835296630859
835293.519999980927 815762.879999876022 38.835296630859
835294.960000000894 815761.200000047684 38.835296630859
835295.919999957085 815759.280000001192 38.835296630859
835296.559999942780 815757.120000004768 38.835296630859
835296.719999909401 815754.960000038147 38.835296630859
835296.480000019073 815752.880000114441 38.835296630859
835295.759999990463 815750.720000267029 38.835296630859
835294.640000015497 815748.880000114441 38.835296630859
835293.120000004768 815747.280000686646 38.835296630859
835266.480001449585 815724.560001373291 38.835296630859
835249.360000610352 815730.560001373291 38.835296630859
835250.000000000000 815728.480001449585 38.835296630859
835251.040000915527 815726.560001373291 38.835296630859
835252.479999542236 815724.880001068115 38.835296630859
835254.240001678467 815723.520000457764 38.835296630859
835256.159999847412 815722.560001373291 38.835296630859
835258.319999694824 815722.080001831055 27.745002746582
835260.560001373291 815722.000000000000 27.745002746582
835262.720001220703 815722.400001525879 27.745002746582
835264.720001220703 815723.280002593994 27.745002746582
835266.480001449585 815724.560001373291 27.745002746582
835293.120000004768 815747.280000686646 27.745002746582
835294.640000015497 815748.880000114441 27.745002746582
835295.759999990463 815750.720000267029 27.745002746582
835296.480000019073 815752.880000114441 27.745002746582
835296.719999909401 815754.960000038147 27.745002746582
835296.559999942780 815757.120000004768 27.745002746582
835295.919999957085 815759.280000001192 27.745002746582
835294.960000000894 815761.200000047684 27.745002746582
835293.519999980927 815762.879999876022 27.745002746582
835291.759999990463 815764.239999771118 27.745002746582
835289.760000228882 815765.119999885559 27.745002746582
835256.720001220703 815776.799999237061 27.745002746582
835254.639999389648 815777.279998779297 27.745002746582
835252.479999542236 815777.359998703003 27.745002746582
835250.240001678467 815776.959999084473 27.745002746582
835248.240001678467 815776.079999923706 27.745002746582
835246.479999542236 815774.880000114441 27.745002746582
835244.960002899170 815773.279999732971 27.745002746582
835243.760002136230 815771.439999580383 27.745002746582
835243.040000915527 815769.279999732971 27.745002746582
835242.720001220703 815767.119999885559 27.745002746582
835242.960002899170 815764.960000038147 27.745002746582
835249.360000610352 815730.560001373291 27.745002746582
835250.000000000000 815728.480001449585 27.745002746582
835251.040000915527 815726.560001373291 27.745002746582
835252.479999542236 815724.880001068115 27.745002746582
835254.240001678467 815723.520000457764 27.745002746582
835256.159999847412 815722.560001373291 27.745002746582
835250.159999847412 815736.960000991821 111.835000991821
835249.520000457764 815734.880001068115 111.835000991821
835249.200000762939 815732.720001220703 111.835000991821
835254.639999389648 815777.279998779297 111.835000991821
835252.479999542236 815777.359998703003 111.835000991821
835250.240001678467 815776.959999084473 111.835000991821
835248.240001678467 815776.079999923706 111.835000991821
835246.479999542236 815774.880000114441 111.835000991821
835244.960002899170 815773.279999732971 111.835000991821
835243.760002136230 815771.439999580383 111.835000991821
835243.040000915527 815769.279999732971 111.835000991821
835242.720001220703 815767.119999885559 111.835000991821
835242.960002899170 815764.960000038147 111.835000991821
835243.600002288818 815762.879999876022 111.835000991821
835244.639999389648 815760.879999995232 111.835000991821
835246.080001831055 815759.199999988079 111.835000991821
835247.840000152588 815757.920000076294 111.835000991821
835256.720001220703 815776.799999237061 111.835000991821
835249.760002136230 815756.960000038147 111.835000991821
835252.880001068115 815755.840000152588 111.835000991821
835289.760000228882 815765.119999885559 111.835000991821
835291.759999990463 815764.239999771118 111.835000991821
835293.519999980927 815762.879999876022 111.835000991821
835294.960000000894 815761.200000047684 111.835000991821
835295.919999957085 815759.280000001192 111.835000991821
835296.559999942780 815757.120000004768 111.835000991821
835296.719999909401 815754.960000038147 111.835000991821
835296.480000019073 815752.880000114441 111.835000991821
835295.759999990463 815750.720000267029 111.835000991821
835294.640000015497 815748.880000114441 111.835000991821
835293.120000004768 815747.280000686646 111.835000991821
835255.360000610352 815742.559999465942 111.835000991821
835252.880001068115 815740.479999542236 111.835000991821
835266.480001449585 815724.560001373291 111.835000991821
835264.720001220703 815723.280002593994 111.835000991821
835262.720001220703 815722.400001525879 111.835000991821
835260.560001373291 815722.000000000000 111.835000991821
835258.319999694824 815722.080001831055 111.835000991821
835256.159999847412 815722.560001373291 111.835000991821
835254.240001678467 815723.520000457764 111.835000991821
835252.479999542236 815724.880001068115 111.835000991821
835251.040000915527 815726.560001373291 111.835000991821
835250.000000000000 815728.480001449585 111.835000991821
835249.360000610352 815730.560001373291 111.835000991821
835251.360000610352 815738.880001068115 111.835000991821
835250.159999847412 815736.960000991821 98.764980316162
835249.520000457764 815734.880001068115 98.764980316162
835249.200000762939 815732.720001220703 98.764980316162
835249.360000610352 815730.560001373291 98.764980316162
835250.000000000000 815728.480001449585 98.764980316162
835251.040000915527 815726.560001373291 98.764980316162
835252.479999542236 815724.880001068115 98.764980316162
835254.240001678467 815723.520000457764 98.764980316162
835256.159999847412 815722.560001373291 98.764980316162
835258.319999694824 815722.080001831055 98.764980316162
835260.560001373291 815722.000000000000 98.764980316162
835262.720001220703 815722.400001525879 98.764980316162
835264.720001220703 815723.280002593994 98.764980316162
835266.480001449585 815724.560001373291 98.764980316162
835293.120000004768 815747.280000686646 98.764980316162
835294.640000015497 815748.880000114441 98.764980316162
835295.759999990463 815750.720000267029 98.764980316162
835296.480000019073 815752.880000114441 98.764980316162
835296.719999909401 815754.960000038147 98.764980316162
835296.559999942780 815757.120000004768 98.764980316162
835295.919999957085 815759.280000001192 98.764980316162
835294.960000000894 815761.200000047684 98.764980316162
835293.519999980927 815762.879999876022 98.764980316162
835291.759999990463 815764.239999771118 98.764980316162
835289.760000228882 815765.119999885559 98.764980316162
835256.720001220703 815776.799999237061 98.764980316162
835254.639999389648 815777.279998779297 98.764980316162
835252.479999542236 815777.359998703003 98.764980316162
835250.240001678467 815776.959999084473 98.764980316162
835248.240001678467 815776.079999923706 98.764980316162
835246.479999542236 815774.880000114441 98.764980316162
835244.960002899170 815773.279999732971 98.764980316162
835243.760002136230 815771.439999580383 98.764980316162
835243.040000915527 815769.279999732971 98.764980316162
835242.720001220703 815767.119999885559 98.764980316162
835242.960002899170 815764.960000038147 98.764980316162
835243.600002288818 815762.879999876022 98.764980316162
835244.639999389648 815760.879999995232 98.764980316162
835246.080001831055 815759.199999988079 98.764980316162
835247.840000152588 815757.920000076294 98.764980316162
835249.760002136230 815756.960000038147 98.764980316162
835252.880001068115 815755.840000152588 98.764980316162
835255.360000610352 815742.559999465942 98.764980316162
835252.880001068115 815740.479999542236 98.764980316162
835251.360000610352 815738.880001068115 98.764980316162
835260.479999542236 815774.559999465942 97.233917236328
835261.920001983643 815772.880000114441 97.233905792236
835262.959999084473 815770.880000114441 97.233905792236
835281.280000686646 815764.480000019073 97.233905792236
835283.280000686646 815765.359999656677 97.233905792236
835285.440000534058 815765.679999828339 97.233917236328
835287.600000381470 815765.679999828339 97.233917236328
835279.440000534058 815763.199999809265 97.233905792236
835289.760000228882 815765.119999885559 97.233917236328
835291.759999990463 815764.239999771118 97.233917236328
835276.960000991821 815761.119999885559 97.233898162842
835249.200000762939 815732.720001220703 97.233798980713
835249.520000457764 815734.880001068115 97.233798980713
835250.159999847412 815736.960000991821 97.233810424805
835251.360000610352 815738.880001068115 97.233810424805
835249.360000610352 815730.560001373291 97.233798980713
835252.880001068115 815740.479999542236 97.233818054199
835250.000000000000 815728.480001449585 97.233791351318
835251.040000915527 815726.560001373291 97.233779907227
835252.479999542236 815724.880001068115 97.233779907227
835254.240001678467 815723.520000457764 97.233779907227
835256.159999847412 815722.560001373291 97.233779907227
835258.319999694824 815722.080001831055 97.233779907227
835260.560001373291 815722.000000000000 97.233779907227
835262.720001220703 815722.400001525879 97.233779907227
835264.720001220703 815723.280002593994 97.233791351318
835266.480001449585 815724.560001373291 97.233798980713
835293.120000004768 815747.280000686646 97.233879089355
835255.360000610352 815742.559999465942 97.233829498291
835252.880001068115 815755.920000076294 97.233860015869
835294.640000015497 815748.880000114441 97.233879089355
835295.759999990463 815750.800000190735 97.233886718750
835296.480000019073 815752.880000114441 97.233886718750
835296.719999909401 815754.960000038147 97.233898162842
835296.559999942780 815757.120000004768 97.233905792236
835295.919999957085 815759.280000001192 97.233905792236
835294.960000000894 815761.200000047684 97.233905792236
835293.519999980927 815762.879999876022 97.233917236328
835270.560001373291 815763.279999732971 97.233898162842
835264.159999847412 815765.519999980927 97.233898162842
835263.600000381470 815768.800000190735 97.233905792236
835249.760002136230 815756.960000038147 97.233860015869
835247.840000152588 815757.920000076294 97.233860015869
835246.080001831055 815759.280000001192 97.233867645264
835244.639999389648 815760.879999995232 97.233867645264
835243.600002288818 815762.879999876022 97.233879089355
835242.960002899170 815764.960000038147 97.233879089355
835242.720001220703 815767.119999885559 97.233879089355
835243.040000915527 815769.359999656677 97.233886718750
835243.760002136230 815771.439999580383 97.233886718750
835244.960002899170 815773.279999732971 97.233898162842
835246.479999542236 815774.880000114441 97.233905792236
835248.240001678467 815776.079999923706 97.233905792236
835250.240001678467 815776.959999084473 97.233905792236
835252.479999542236 815777.359998703003 97.233917236328
835254.639999389648 815777.279998779297 97.233917236328
835256.720001220703 815776.799999237061 97.233917236328
835258.720001220703 815775.840000152588 97.233917236328
835249.200000762939 815732.720001220703 84.163993835449
835249.520000457764 815734.880001068115 84.164005279541
835250.159999847412 815736.960000991821 84.164012908936
835251.360000610352 815738.880001068115 84.164012908936
835252.880001068115 815740.479999542236 84.164012908936
835255.360000610352 815742.559999465942 84.164024353027
835252.880001068115 815755.920000076294 84.164062500000
835249.760002136230 815756.960000038147 84.164062500000
835247.840000152588 815757.920000076294 84.164062500000
835246.080001831055 815759.280000001192 84.164062500000
835244.639999389648 815760.879999995232 84.164062500000
835243.600002288818 815762.879999876022 84.164073944092
835242.960002899170 815764.960000038147 84.164073944092
835242.720001220703 815767.119999885559 84.164081573486
835243.040000915527 815769.359999656677 84.164081573486
835243.760002136230 815771.439999580383 84.164093017578
835244.960002899170 815773.279999732971 84.164093017578
835246.479999542236 815774.880000114441 84.164104461670
835248.240001678467 815776.079999923706 84.164112091064
835250.240001678467 815776.959999084473 84.164112091064
835252.479999542236 815777.359998703003 84.164112091064
835254.639999389648 815777.279998779297 84.164123535156
835256.720001220703 815776.799999237061 84.164123535156
835258.720001220703 815775.840000152588 84.164123535156
835260.479999542236 815774.559999465942 84.164112091064
835261.920001983643 815772.880000114441 84.164112091064
835262.959999084473 815770.880000114441 84.164112091064
835263.600000381470 815768.800000190735 84.164104461670
835264.159999847412 815765.519999980927 84.164093017578
835270.560001373291 815763.279999732971 84.164093017578
835276.960000991821 815761.119999885559 84.164093017578
835279.440000534058 815763.199999809265 84.164104461670
835281.280000686646 815764.480000019073 84.164112091064
835283.280000686646 815765.359999656677 84.164112091064
835285.440000534058 815765.679999828339 84.164112091064
835287.600000381470 815765.679999828339 84.164123535156
835289.760000228882 815765.119999885559 84.164123535156
835291.759999990463 815764.239999771118 84.164123535156
835293.519999980927 815762.879999876022 84.164112091064
835294.960000000894 815761.200000047684 84.164112091064
835295.919999957085 815759.280000001192 84.164112091064
835296.559999942780 815757.120000004768 84.164104461670
835296.719999909401 815754.960000038147 84.164093017578
835296.480000019073 815752.880000114441 84.164093017578
835295.759999990463 815750.800000190735 84.164081573486
835294.640000015497 815748.880000114441 84.164081573486
835293.120000004768 815747.280000686646 84.164073944092
835266.480001449585 815724.560001373291 84.163986206055
835264.720001220703 815723.280002593994 84.163986206055
835262.720001220703 815722.400001525879 84.163974761963
835260.560001373291 815722.000000000000 84.163974761963
835258.319999694824 815722.080001831055 84.163974761963
835256.159999847412 815722.560001373291 84.163974761963
835254.240001678467 815723.520000457764 84.163974761963
835252.479999542236 815724.880001068115 84.163974761963
835251.040000915527 815726.560001373291 84.163974761963
835250.000000000000 815728.480001449585 84.163986206055
835249.360000610352 815730.560001373291 84.163986206055
835258.400001525879 815722.319999694824 40.365043640137
835260.560001373291 815722.319999694824 40.365043640137
835262.720001220703 815722.639999389648 40.365043640137
835264.720001220703 815723.440002441406 40.365043640137
835254.720001220703 815776.959999084473 40.365043640137
835252.560001373291 815777.039999008179 40.365043640137
835250.400001525879 815776.639999389648 40.365043640137
835248.400001525879 815775.760000228882 40.365043640137
835246.639999389648 815774.559999465942 40.365043640137
835245.120002746582 815772.960000038147 40.365043640137
835244.000000000000 815771.119999885559 40.365043640137
835243.280002593994 815769.119999885559 40.365043640137
835243.040000915527 815766.879999637604 40.365043640137
835243.120002746582 815764.799999713898 40.365043640137
835256.799999237061 815776.479999542236 40.365043640137
835289.519999980927 815764.960000038147 40.365043640137
835291.519999980927 815764.000000000000 40.365043640137
835293.200000047684 815762.720000028610 40.365043640137
835294.640000015497 815761.119999885559 40.365043640137
835295.599999964237 815759.119999997318 40.365043640137
835296.240000009537 815757.120000004768 40.365043640137
835296.480000019073 815754.880000114441 40.365043640137
835296.159999966621 815752.800000190735 40.365043640137
835295.439999997616 815750.720000267029 40.365043640137
835294.319999992847 815748.880000114441 40.365043640137
835292.799999952316 815747.280000686646 40.365043640137
835266.480001449585 815724.720001220703 40.365043640137
835249.520000457764 815730.720001220703 40.365043640137
835250.159999847412 815728.560001373291 40.365043640137
835251.200000762939 815726.720001220703 40.365043640137
835252.639999389648 815725.119998931885 40.365043640137
835254.319999694824 815723.680000305176 40.365043640137
835256.319999694824 815722.880001068115 40.365043640137
835258.400001525879 815722.319999694824 38.835296630859
835260.560001373291 815722.319999694824 38.835296630859
835262.720001220703 815722.639999389648 38.835296630859
835264.720001220703 815723.440002441406 38.835296630859
835266.480001449585 815724.720001220703 38.835296630859
835292.799999952316 815747.280000686646 38.835296630859
835294.319999992847 815748.880000114441 38.835296630859
835295.439999997616 815750.720000267029 38.835296630859
835296.159999966621 815752.800000190735 38.835296630859
835296.480000019073 815754.880000114441 38.835296630859
835296.240000009537 815757.120000004768 38.835296630859
835295.599999964237 815759.119999997318 38.835296630859
835294.640000015497 815761.119999885559 38.835296630859
835293.200000047684 815762.720000028610 38.835296630859
835291.519999980927 815764.000000000000 38.835296630859
835289.519999980927 815764.960000038147 38.835296630859
835256.799999237061 815776.479999542236 38.835296630859
835254.720001220703 815776.959999084473 38.835296630859
835252.560001373291 815777.039999008179 38.835296630859
835250.400001525879 815776.639999389648 38.835296630859
835248.400001525879 815775.760000228882 38.835296630859
835246.639999389648 815774.559999465942 38.835296630859
835245.120002746582 815772.960000038147 38.835296630859
835244.000000000000 815771.119999885559 38.835296630859
835243.280002593994 815769.119999885559 38.835296630859
835243.040000915527 815766.879999637604 38.835296630859
835243.120002746582 815764.799999713898 38.835296630859
835249.520000457764 815730.720001220703 38.835296630859
835250.159999847412 815728.560001373291 38.835296630859
835251.200000762939 815726.720001220703 38.835296630859
835252.639999389648 815725.119998931885 38.835296630859
835254.319999694824 815723.680000305176 38.835296630859
835256.319999694824 815722.880001068115 38.835296630859
835258.319999694824 815722.080001831055 53.435028076172
835260.560001373291 815722.000000000000 53.435028076172
835262.720001220703 815722.400001525879 53.435028076172
835264.720001220703 815723.280002593994 53.435028076172
835254.639999389648 815777.279998779297 53.435028076172
835252.479999542236 815777.359998703003 53.435028076172
835250.240001678467 815776.959999084473 53.435028076172
835248.240001678467 815776.079999923706 53.435028076172
835246.479999542236 815774.880000114441 53.435028076172
835244.960002899170 815773.279999732971 53.435028076172
835243.760002136230 815771.439999580383 53.435028076172
835243.040000915527 815769.279999732971 53.435028076172
835242.720001220703 815767.119999885559 53.435028076172
835242.960002899170 815764.960000038147 53.435028076172
835256.720001220703 815776.799999237061 53.435028076172
835289.760000228882 815765.119999885559 53.435028076172
835291.759999990463 815764.239999771118 53.435028076172
835293.519999980927 815762.879999876022 53.435028076172
835294.960000000894 815761.200000047684 53.435028076172
835295.919999957085 815759.280000001192 53.435028076172
835296.559999942780 815757.120000004768 53.435028076172
835296.719999909401 815754.960000038147 53.435028076172
835296.480000019073 815752.880000114441 53.435028076172
835295.759999990463 815750.720000267029 53.435028076172
835294.640000015497 815748.880000114441 53.435028076172
835293.120000004768 815747.280000686646 53.435028076172
835266.480001449585 815724.560001373291 53.435028076172
835249.360000610352 815730.560001373291 53.435028076172
835250.000000000000 815728.480001449585 53.435028076172
835251.040000915527 815726.560001373291 53.435028076172
835252.479999542236 815724.880001068115 53.435028076172
835254.240001678467 815723.520000457764 53.435028076172
835256.159999847412 815722.560001373291 53.435028076172
835258.319999694824 815722.080001831055 40.365318298340
835260.560001373291 815722.000000000000 40.365318298340
835262.720001220703 815722.400001525879 40.365318298340
835264.720001220703 815723.280002593994 40.365318298340
835266.480001449585 815724.560001373291 40.365318298340
835293.120000004768 815747.280000686646 40.365318298340
835294.640000015497 815748.880000114441 40.365318298340
835295.759999990463 815750.720000267029 40.365318298340
835296.480000019073 815752.880000114441 40.365318298340
835296.719999909401 815754.960000038147 40.365318298340
835296.559999942780 815757.120000004768 40.365318298340
835295.919999957085 815759.280000001192 40.365318298340
835294.960000000894 815761.200000047684 40.365318298340
835293.519999980927 815762.879999876022 40.365318298340
835291.759999990463 815764.239999771118 40.365318298340
835289.760000228882 815765.119999885559 40.365318298340
835256.720001220703 815776.799999237061 40.365318298340
835254.639999389648 815777.279998779297 40.365318298340
835252.479999542236 815777.359998703003 40.365318298340
835250.240001678467 815776.959999084473 40.365318298340
835248.240001678467 815776.079999923706 40.365318298340
835246.479999542236 815774.880000114441 40.365318298340
835244.960002899170 815773.279999732971 40.365318298340
835243.760002136230 815771.439999580383 40.365318298340
835243.040000915527 815769.279999732971 40.365318298340
835242.720001220703 815767.119999885559 40.365318298340
835242.960002899170 815764.960000038147 40.365318298340
835249.360000610352 815730.560001373291 40.365318298340
835250.000000000000 815728.480001449585 40.365318298340
835251.040000915527 815726.560001373291 40.365318298340
835252.479999542236 815724.880001068115 40.365318298340
835254.240001678467 815723.520000457764 40.365318298340
835256.159999847412 815722.560001373291 40.365318298340
835258.319999694824 815722.080001831055 68.035007476807
835260.560001373291 815722.000000000000 68.035007476807
835262.720001220703 815722.400001525879 68.035007476807
835264.720001220703 815723.280002593994 68.035007476807
835254.639999389648 815777.279998779297 68.035007476807
835252.479999542236 815777.359998703003 68.035007476807
835250.240001678467 815776.959999084473 68.035007476807
835248.240001678467 815776.079999923706 68.035007476807
835246.479999542236 815774.880000114441 68.035007476807
835244.960002899170 815773.279999732971 68.035007476807
835243.760002136230 815771.439999580383 68.035007476807
835243.040000915527 815769.279999732971 68.035007476807
835242.720001220703 815767.119999885559 68.035007476807
835242.960002899170 815764.960000038147 68.035007476807
835256.720001220703 815776.799999237061 68.035007476807
835289.760000228882 815765.119999885559 68.035007476807
835291.759999990463 815764.239999771118 68.035007476807
835293.519999980927 815762.879999876022 68.035007476807
835294.960000000894 815761.200000047684 68.035007476807
835295.919999957085 815759.280000001192 68.035007476807
835296.559999942780 815757.120000004768 68.035007476807
835296.719999909401 815754.960000038147 68.035007476807
835296.480000019073 815752.880000114441 68.035007476807
835295.759999990463 815750.720000267029 68.035007476807
835294.640000015497 815748.880000114441 68.035007476807
835293.120000004768 815747.280000686646 68.035007476807
835266.480001449585 815724.560001373291 68.035007476807
835249.360000610352 815730.560001373291 68.035007476807
835250.000000000000 815728.480001449585 68.035007476807
835251.040000915527 815726.560001373291 68.035007476807
835252.479999542236 815724.880001068115 68.035007476807
835254.240001678467 815723.520000457764 68.035007476807
835256.159999847412 815722.560001373291 68.035007476807
835258.319999694824 815722.080001831055 54.965019226074
835260.560001373291 815722.000000000000 54.965019226074
835262.720001220703 815722.400001525879 54.965019226074
835264.720001220703 815723.280002593994 54.965019226074
835266.480001449585 815724.560001373291 54.965019226074
835293.120000004768 815747.280000686646 54.965019226074
835294.640000015497 815748.880000114441 54.965019226074
835295.759999990463 815750.720000267029 54.965019226074
835296.480000019073 815752.880000114441 54.965019226074
835296.719999909401 815754.960000038147 54.965019226074
835296.559999942780 815757.120000004768 54.965019226074
835295.919999957085 815759.280000001192 54.965019226074
835294.960000000894 815761.200000047684 54.965019226074
835293.519999980927 815762.879999876022 54.965019226074
835291.759999990463 815764.239999771118 54.965019226074
835289.760000228882 815765.119999885559 54.965019226074
835256.720001220703 815776.799999237061 54.965019226074
835254.639999389648 815777.279998779297 54.965019226074
835252.479999542236 815777.359998703003 54.965019226074
835250.240001678467 815776.959999084473 54.965019226074
835248.240001678467 815776.079999923706 54.965019226074
835246.479999542236 815774.880000114441 54.965019226074
835244.960002899170 815773.279999732971 54.965019226074
835243.760002136230 815771.439999580383 54.965019226074
835243.040000915527 815769.279999732971 54.965019226074
835242.720001220703 815767.119999885559 54.965019226074
835242.960002899170 815764.960000038147 54.965019226074
835249.360000610352 815730.560001373291 54.965019226074
835250.000000000000 815728.480001449585 54.965019226074
835251.040000915527 815726.560001373291 54.965019226074
835252.479999542236 815724.880001068115 54.965019226074
835254.240001678467 815723.520000457764 54.965019226074
835256.159999847412 815722.560001373291 54.965019226074
835258.400001525879 815722.319999694824 54.964996337891
835260.560001373291 815722.319999694824 54.964996337891
835262.720001220703 815722.639999389648 54.964996337891
835264.720001220703 815723.440002441406 54.964996337891
835254.720001220703 815776.959999084473 54.964996337891
835252.560001373291 815777.039999008179 54.964996337891
835250.400001525879 815776.639999389648 54.964996337891
835248.400001525879 815775.760000228882 54.964996337891
835246.639999389648 815774.559999465942 54.964996337891
835245.120002746582 815772.960000038147 54.964996337891
835244.000000000000 815771.119999885559 54.964996337891
835243.280002593994 815769.119999885559 54.964996337891
835243.040000915527 815766.879999637604 54.964996337891
835243.120002746582 815764.799999713898 54.964996337891
835256.799999237061 815776.479999542236 54.964996337891
835289.519999980927 815764.960000038147 54.964996337891
835291.519999980927 815764.000000000000 54.964996337891
835293.200000047684 815762.720000028610 54.964996337891
835294.640000015497 815761.119999885559 54.964996337891
835295.599999964237 815759.119999997318 54.964996337891
835296.240000009537 815757.120000004768 54.964996337891
835296.480000019073 815754.880000114441 54.964996337891
835296.159999966621 815752.800000190735 54.964996337891
835295.439999997616 815750.720000267029 54.964996337891
835294.319999992847 815748.880000114441 54.964996337891
835292.799999952316 815747.280000686646 54.964996337891
835266.480001449585 815724.720001220703 54.964996337891
835249.520000457764 815730.720001220703 54.964996337891
835250.159999847412 815728.560001373291 54.964996337891
835251.200000762939 815726.720001220703 54.964996337891
835252.639999389648 815725.119998931885 54.964996337891
835254.319999694824 815723.680000305176 54.964996337891
835256.319999694824 815722.880001068115 54.964996337891
835258.400001525879 815722.319999694824 53.435028076172
835260.560001373291 815722.319999694824 53.435028076172
835262.720001220703 815722.639999389648 53.435028076172
835264.720001220703 815723.440002441406 53.435028076172
835266.480001449585 815724.720001220703 53.435028076172
835292.799999952316 815747.280000686646 53.435028076172
835294.319999992847 815748.880000114441 53.435028076172
835295.439999997616 815750.720000267029 53.435028076172
835296.159999966621 815752.800000190735 53.435028076172
835296.480000019073 815754.880000114441 53.435028076172
835296.240000009537 815757.120000004768 53.435028076172
835295.599999964237 815759.119999997318 53.435028076172
835294.640000015497 815761.119999885559 53.435028076172
835293.200000047684 815762.720000028610 53.435028076172
835291.519999980927 815764.000000000000 53.435028076172
835289.519999980927 815764.960000038147 53.435028076172
835256.799999237061 815776.479999542236 53.435028076172
835254.720001220703 815776.959999084473 53.435028076172
835252.560001373291 815777.039999008179 53.435028076172
835250.400001525879 815776.639999389648 53.435028076172
835248.400001525879 815775.760000228882 53.435028076172
835246.639999389648 815774.559999465942 53.435028076172
835245.120002746582 815772.960000038147 53.435028076172
835244.000000000000 815771.119999885559 53.435028076172
835243.280002593994 815769.119999885559 53.435028076172
835243.040000915527 815766.879999637604 53.435028076172
835243.120002746582 815764.799999713898 53.435028076172
835249.520000457764 815730.720001220703 53.435028076172
835250.159999847412 815728.560001373291 53.435028076172
835251.200000762939 815726.720001220703 53.435028076172
835252.639999389648 815725.119998931885 53.435028076172
835254.319999694824 815723.680000305176 53.435028076172
835256.319999694824 815722.880001068115 53.435028076172
835258.400001525879 815722.319999694824 69.565021514893
835260.560001373291 815722.319999694824 69.565021514893
835262.720001220703 815722.639999389648 69.565021514893
835264.720001220703 815723.440002441406 69.565021514893
835254.720001220703 815776.959999084473 69.565021514893
835252.560001373291 815777.039999008179 69.565021514893
835250.400001525879 815776.639999389648 69.565021514893
835248.400001525879 815775.760000228882 69.565021514893
835246.639999389648 815774.559999465942 69.565021514893
835245.120002746582 815772.960000038147 69.565021514893
835244.000000000000 815771.119999885559 69.565021514893
835243.280002593994 815769.119999885559 69.565021514893
835243.040000915527 815766.879999637604 69.565021514893
835243.120002746582 815764.799999713898 69.565021514893
835256.799999237061 815776.479999542236 69.565021514893
835289.519999980927 815764.960000038147 69.565021514893
835291.519999980927 815764.000000000000 69.565021514893
835293.200000047684 815762.720000028610 69.565021514893
835294.640000015497 815761.119999885559 69.565021514893
835295.599999964237 815759.119999997318 69.565021514893
835296.240000009537 815757.120000004768 69.565021514893
835296.480000019073 815754.880000114441 69.565021514893
835296.159999966621 815752.800000190735 69.565021514893
835295.439999997616 815750.720000267029 69.565021514893
835294.319999992847 815748.880000114441 69.565021514893
835292.799999952316 815747.280000686646 69.565021514893
835266.480001449585 815724.720001220703 69.565021514893
835249.520000457764 815730.720001220703 69.565021514893
835250.159999847412 815728.560001373291 69.565021514893
835251.200000762939 815726.720001220703 69.565021514893
835252.639999389648 815725.119998931885 69.565021514893
835254.319999694824 815723.680000305176 69.565021514893
835256.319999694824 815722.880001068115 69.565021514893
835258.400001525879 815722.319999694824 68.035007476807
835260.560001373291 815722.319999694824 68.035007476807
835262.720001220703 815722.639999389648 68.035007476807
835264.720001220703 815723.440002441406 68.035007476807
835266.480001449585 815724.720001220703 68.035007476807
835292.799999952316 815747.280000686646 68.035007476807
835294.319999992847 815748.880000114441 68.035007476807
835295.439999997616 815750.720000267029 68.035007476807
835296.159999966621 815752.800000190735 68.035007476807
835296.480000019073 815754.880000114441 68.035007476807
835296.240000009537 815757.120000004768 68.035007476807
835295.599999964237 815759.119999997318 68.035007476807
835294.640000015497 815761.119999885559 68.035007476807
835293.200000047684 815762.720000028610 68.035007476807
835291.519999980927 815764.000000000000 68.035007476807
835289.519999980927 815764.960000038147 68.035007476807
835256.799999237061 815776.479999542236 68.035007476807
835254.720001220703 815776.959999084473 68.035007476807
835252.560001373291 815777.039999008179 68.035007476807
835250.400001525879 815776.639999389648 68.035007476807
835248.400001525879 815775.760000228882 68.035007476807
835246.639999389648 815774.559999465942 68.035007476807
835245.120002746582 815772.960000038147 68.035007476807
835244.000000000000 815771.119999885559 68.035007476807
835243.280002593994 815769.119999885559 68.035007476807
835243.040000915527 815766.879999637604 68.035007476807
835243.120002746582 815764.799999713898 68.035007476807
835249.520000457764 815730.720001220703 68.035007476807
835250.159999847412 815728.560001373291 68.035007476807
835251.200000762939 815726.720001220703 68.035007476807
835252.639999389648 815725.119998931885 68.035007476807
835254.319999694824 815723.680000305176 68.035007476807
835256.319999694824 815722.880001068115 68.035007476807
835287.120000362396 815744.800000190735 82.635002136230
835289.280000209808 815745.200000762939 82.635002136230
835291.360000133514 815746.000000000000 82.635002136230
835250.000000000000 815728.480001449585 82.635002136230
835251.040000915527 815726.560001373291 82.635002136230
835252.479999542236 815724.880001068115 82.635002136230
835254.240001678467 815723.520000457764 82.635002136230
835256.159999847412 815722.560001373291 82.635002136230
835258.319999694824 815722.080001831055 82.635002136230
835260.560001373291 815722.000000000000 82.635002136230
835262.720001220703 815722.400001525879 82.635002136230
835264.720001220703 815723.280002593994 82.635002136230
835266.480001449585 815724.560001373291 82.635002136230
835268.079999923706 815726.080001831055 82.635002136230
835269.200000762939 815728.000000000000 82.635002136230
835269.920000076294 815730.000000000000 82.635002136230
835270.159999847412 815732.239999771118 82.635002136230
835249.360000610352 815730.560001373291 82.635002136230
835270.000000000000 815734.399999618530 82.635002136230
835269.360000610352 815737.680000305176 82.635002136230
835242.960002899170 815764.960000038147 82.635002136230
835242.720001220703 815767.119999885559 82.635002136230
835243.040000915527 815769.279999732971 82.635002136230
835243.760002136230 815771.439999580383 82.635002136230
835244.960002899170 815773.279999732971 82.635002136230
835246.479999542236 815774.880000114441 82.635002136230
835248.240001678467 815776.079999923706 82.635002136230
835250.240001678467 815776.959999084473 82.635002136230
835252.479999542236 815777.359998703003 82.635002136230
835254.639999389648 815777.279998779297 82.635002136230
835256.720001220703 815776.799999237061 82.635002136230
835279.600000381470 815746.480000495911 82.635002136230
835282.800000190735 815745.360000610352 82.635002136230
835289.760000228882 815765.119999885559 82.635002136230
835291.759999990463 815764.239999771118 82.635002136230
835293.519999980927 815762.879999876022 82.635002136230
835294.960000000894 815761.200000047684 82.635002136230
835295.919999957085 815759.280000001192 82.635002136230
835296.559999942780 815757.120000004768 82.635002136230
835296.719999909401 815754.960000038147 82.635002136230
835296.480000019073 815752.880000114441 82.635002136230
835295.759999990463 815750.720000267029 82.635002136230
835294.640000015497 815748.880000114441 82.635002136230
835293.120000004768 815747.280000686646 82.635002136230
835284.960000038147 815744.880000114441 82.635002136230
835287.120000362396 815744.800000190735 69.564952850342
835289.280000209808 815745.200000762939 69.564952850342
835291.360000133514 815746.000000000000 69.564952850342
835293.120000004768 815747.280000686646 69.564952850342
835294.640000015497 815748.880000114441 69.564952850342
835295.759999990463 815750.720000267029 69.564952850342
835296.480000019073 815752.880000114441 69.564952850342
835296.719999909401 815754.960000038147 69.564952850342
835296.559999942780 815757.120000004768 69.564952850342
835295.919999957085 815759.280000001192 69.564952850342
835294.960000000894 815761.200000047684 69.564952850342
835293.519999980927 815762.879999876022 69.564952850342
835291.759999990463 815764.239999771118 69.564952850342
835289.760000228882 815765.119999885559 69.564952850342
835256.720001220703 815776.799999237061 69.564952850342
835254.639999389648 815777.279998779297 69.564952850342
835252.479999542236 815777.359998703003 69.564952850342
835250.240001678467 815776.959999084473 69.564952850342
835248.240001678467 815776.079999923706 69.564952850342
835246.479999542236 815774.880000114441 69.564952850342
835244.960002899170 815773.279999732971 69.564952850342
835243.760002136230 815771.439999580383 69.564952850342
835243.040000915527 815769.279999732971 69.564952850342
835242.720001220703 815767.119999885559 69.564952850342
835242.960002899170 815764.960000038147 69.564952850342
835249.360000610352 815730.560001373291 69.564952850342
835250.000000000000 815728.480001449585 69.564952850342
835251.040000915527 815726.560001373291 69.564952850342
835252.479999542236 815724.880001068115 69.564952850342
835254.240001678467 815723.520000457764 69.564952850342
835256.159999847412 815722.560001373291 69.564952850342
835258.319999694824 815722.080001831055 69.564952850342
835260.560001373291 815722.000000000000 69.564952850342
835262.720001220703 815722.400001525879 69.564952850342
835264.720001220703 815723.280002593994 69.564952850342
835266.480001449585 815724.560001373291 69.564952850342
835268.079999923706 815726.080001831055 69.564952850342
835269.200000762939 815728.000000000000 69.564952850342
835269.920000076294 815730.000000000000 69.564952850342
835270.159999847412 815732.239999771118 69.564952850342
835270.000000000000 815734.399999618530 69.564952850342
835269.360000610352 815737.680000305176 69.564952850342
835279.600000381470 815746.480000495911 69.564952850342
835282.800000190735 815745.360000610352 69.564952850342
835284.960000038147 815744.880000114441 69.564952850342
835258.400001525879 815722.319999694824 84.164012908936
835260.560001373291 815722.319999694824 84.164012908936
835262.720001220703 815722.639999389648 84.164012908936
835264.720001220703 815723.440002441406 84.164012908936
835254.720001220703 815776.959999084473 84.164012908936
835252.560001373291 815777.039999008179 84.164012908936
835250.400001525879 815776.639999389648 84.164012908936
835248.400001525879 815775.760000228882 84.164012908936
835246.639999389648 815774.559999465942 84.164012908936
835245.120002746582 815772.960000038147 84.164012908936
835244.000000000000 815771.119999885559 84.164012908936
835243.280002593994 815769.119999885559 84.164012908936
835243.040000915527 815766.879999637604 84.164012908936
835243.120002746582 815764.799999713898 84.164012908936
835256.799999237061 815776.479999542236 84.164012908936
835289.519999980927 815764.960000038147 84.164012908936
835291.519999980927 815764.000000000000 84.164012908936
835293.200000047684 815762.720000028610 84.164012908936
835294.640000015497 815761.119999885559 84.164012908936
835295.599999964237 815759.119999997318 84.164012908936
835296.240000009537 815757.120000004768 84.164012908936
835296.480000019073 815754.880000114441 84.164012908936
835296.159999966621 815752.800000190735 84.164012908936
835295.439999997616 815750.720000267029 84.164012908936
835294.319999992847 815748.880000114441 84.164012908936
835292.799999952316 815747.280000686646 84.164012908936
835266.480001449585 815724.720001220703 84.164012908936
835249.520000457764 815730.720001220703 84.164012908936
835250.159999847412 815728.560001373291 84.164012908936
835251.200000762939 815726.720001220703 84.164012908936
835252.639999389648 815725.119998931885 84.164012908936
835254.319999694824 815723.680000305176 84.164012908936
835256.319999694824 815722.880001068115 84.164012908936
835258.400001525879 815722.319999694824 82.635009765625
835260.560001373291 815722.319999694824 82.635009765625
835262.720001220703 815722.639999389648 82.635009765625
835264.720001220703 815723.440002441406 82.635009765625
835266.480001449585 815724.720001220703 82.635009765625
835292.799999952316 815747.280000686646 82.635009765625
835294.319999992847 815748.880000114441 82.635009765625
835295.439999997616 815750.720000267029 82.635009765625
835296.159999966621 815752.800000190735 82.635009765625
835296.480000019073 815754.880000114441 82.635009765625
835296.240000009537 815757.120000004768 82.635009765625
835295.599999964237 815759.119999997318 82.635009765625
835294.640000015497 815761.119999885559 82.635009765625
835293.200000047684 815762.720000028610 82.635009765625
835291.519999980927 815764.000000000000 82.635009765625
835289.519999980927 815764.960000038147 82.635009765625
835256.799999237061 815776.479999542236 82.635009765625
835254.720001220703 815776.959999084473 82.635009765625
835252.560001373291 815777.039999008179 82.635009765625
835250.400001525879 815776.639999389648 82.635009765625
835248.400001525879 815775.760000228882 82.635009765625
835246.639999389648 815774.559999465942 82.635009765625
835245.120002746582 815772.960000038147 82.635009765625
835244.000000000000 815771.119999885559 82.635009765625
835243.280002593994 815769.119999885559 82.635009765625
835243.040000915527 815766.879999637604 82.635009765625
835243.120002746582 815764.799999713898 82.635009765625
835249.520000457764 815730.720001220703 82.635009765625
835250.159999847412 815728.560001373291 82.635009765625
835251.200000762939 815726.720001220703 82.635009765625
835252.639999389648 815725.119998931885 82.635009765625
835254.319999694824 815723.680000305176 82.635009765625
835256.319999694824 815722.880001068115 82.635009765625
835250.400001525879 815737.120000839233 98.764999389648
835249.600002288818 815735.040000915527 98.764999389648
835249.360000610352 815732.880001068115 98.764999389648
835254.720001220703 815776.959999084473 98.764999389648
835252.560001373291 815777.039999008179 98.764999389648
835250.400001525879 815776.639999389648 98.764999389648
835248.400001525879 815775.760000228882 98.764999389648
835246.639999389648 815774.559999465942 98.764999389648
835245.120002746582 815772.960000038147 98.764999389648
835244.000000000000 815771.119999885559 98.764999389648
835243.280002593994 815769.119999885559 98.764999389648
835243.040000915527 815766.879999637604 98.764999389648
835243.120002746582 815764.799999713898 98.764999389648
835243.760002136230 815762.639999866486 98.764999389648
835244.799999237061 815760.799999952316 98.764999389648
835246.240001678467 815759.119999997318 98.764999389648
835247.920001983643 815757.759999990463 98.764999389648
835256.799999237061 815776.479999542236 98.764999389648
835249.920001983643 815756.880000114441 98.764999389648
835253.040000915527 815755.759999990463 98.764999389648
835289.519999980927 815764.960000038147 98.764999389648
835291.519999980927 815764.000000000000 98.764999389648
835293.200000047684 815762.720000028610 98.764999389648
835294.640000015497 815761.119999885559 98.764999389648
835295.599999964237 815759.119999997318 98.764999389648
835296.240000009537 815757.120000004768 98.764999389648
835296.480000019073 815754.880000114441 98.764999389648
835296.159999966621 815752.800000190735 98.764999389648
835295.439999997616 815750.720000267029 98.764999389648
835294.319999992847 815748.880000114441 98.764999389648
835292.799999952316 815747.280000686646 98.764999389648
835255.520000457764 815742.640001296997 98.764999389648
835253.040000915527 815740.559999465942 98.764999389648
835266.480001449585 815724.720001220703 98.764999389648
835264.720001220703 815723.440002441406 98.764999389648
835262.720001220703 815722.639999389648 98.764999389648
835260.560001373291 815722.319999694824 98.764999389648
835258.400001525879 815722.319999694824 98.764999389648
835256.319999694824 815722.880001068115 98.764999389648
835254.319999694824 815723.680000305176 98.764999389648
835252.639999389648 815725.119998931885 98.764999389648
835251.200000762939 815726.720001220703 98.764999389648
835250.159999847412 815728.560001373291 98.764999389648
835249.520000457764 815730.720001220703 98.764999389648
835251.520000457764 815738.880001068115 98.764999389648
835250.400001525879 815737.120000839233 97.236465454102
835249.600002288818 815735.040000915527 97.236465454102
835249.360000610352 815732.880001068115 97.236465454102
835249.520000457764 815730.720001220703 97.236465454102
835250.159999847412 815728.560001373291 97.236465454102
835251.200000762939 815726.720001220703 97.236465454102
835252.639999389648 815725.119998931885 97.236465454102
835254.319999694824 815723.680000305176 97.236465454102
835256.319999694824 815722.880001068115 97.236465454102
835258.400001525879 815722.319999694824 97.236465454102
835260.560001373291 815722.319999694824 97.236465454102
835262.720001220703 815722.639999389648 97.236465454102
835264.720001220703 815723.440002441406 97.236465454102
835266.480001449585 815724.720001220703 97.236465454102
835292.799999952316 815747.280000686646 97.236465454102
835294.319999992847 815748.880000114441 97.236465454102
835295.439999997616 815750.720000267029 97.236465454102
835296.159999966621 815752.800000190735 97.236465454102
835296.480000019073 815754.880000114441 97.236465454102
835296.240000009537 815757.120000004768 97.236465454102
835295.599999964237 815759.119999997318 97.236465454102
835294.640000015497 815761.119999885559 97.236465454102
835293.200000047684 815762.720000028610 97.236465454102
835291.519999980927 815764.000000000000 97.236465454102
835289.519999980927 815764.960000038147 97.236465454102
835256.799999237061 815776.479999542236 97.236465454102
835254.720001220703 815776.959999084473 97.236465454102
835252.560001373291 815777.039999008179 97.236465454102
835250.400001525879 815776.639999389648 97.236465454102
835248.400001525879 815775.760000228882 97.236465454102
835246.639999389648 815774.559999465942 97.236465454102
835245.120002746582 815772.960000038147 97.236465454102
835244.000000000000 815771.119999885559 97.236465454102
835243.280002593994 815769.119999885559 97.236465454102
835243.040000915527 815766.879999637604 97.236465454102
835243.120002746582 815764.799999713898 97.236465454102
835243.760002136230 815762.639999866486 97.236465454102
835244.799999237061 815760.799999952316 97.236465454102
835246.240001678467 815759.119999997318 97.236465454102
835247.920001983643 815757.759999990463 97.236465454102
835249.920001983643 815756.880000114441 97.236465454102
835253.040000915527 815755.759999990463 97.236465454102
835255.520000457764 815742.640001296997 97.236465454102
835253.040000915527 815740.559999465942 97.236465454102
835251.520000457764 815738.880001068115 97.236465454102
835250.400001525879 815737.120000839233 113.364999771118
835249.600002288818 815735.040000915527 113.364999771118
835249.360000610352 815732.880001068115 113.364999771118
835254.720001220703 815776.959999084473 113.364999771118
835252.560001373291 815777.039999008179 113.364999771118
835250.400001525879 815776.639999389648 113.364999771118
835248.400001525879 815775.760000228882 113.364999771118
835246.639999389648 815774.559999465942 113.364999771118
835245.120002746582 815772.960000038147 113.364999771118
835244.000000000000 815771.119999885559 113.364999771118
835243.280002593994 815769.119999885559 113.364999771118
835243.040000915527 815766.879999637604 113.364999771118
835243.120002746582 815764.799999713898 113.364999771118
835243.760002136230 815762.639999866486 113.364999771118
835244.799999237061 815760.799999952316 113.364999771118
835246.240001678467 815759.119999997318 113.364999771118
835247.920001983643 815757.759999990463 113.364999771118
835256.799999237061 815776.479999542236 113.364999771118
835249.920001983643 815756.880000114441 113.364999771118
835253.040000915527 815755.759999990463 113.364999771118
835289.519999980927 815764.960000038147 113.364999771118
835291.519999980927 815764.000000000000 113.364999771118
835293.200000047684 815762.720000028610 113.364999771118
835294.640000015497 815761.119999885559 113.364999771118
835295.599999964237 815759.119999997318 113.364999771118
835296.240000009537 815757.120000004768 113.364999771118
835296.480000019073 815754.880000114441 113.364999771118
835296.159999966621 815752.800000190735 113.364999771118
835295.439999997616 815750.720000267029 113.364999771118
835294.319999992847 815748.880000114441 113.364999771118
835292.799999952316 815747.280000686646 113.364999771118
835255.520000457764 815742.640001296997 113.364999771118
835253.040000915527 815740.559999465942 113.364999771118
835266.480001449585 815724.720001220703 113.364999771118
835264.720001220703 815723.440002441406 113.364999771118
835262.720001220703 815722.639999389648 113.364999771118
835260.560001373291 815722.319999694824 113.364999771118
835258.400001525879 815722.319999694824 113.364999771118
835256.319999694824 815722.880001068115 113.364999771118
835254.319999694824 815723.680000305176 113.364999771118
835252.639999389648 815725.119998931885 113.364999771118
835251.200000762939 815726.720001220703 113.364999771118
835250.159999847412 815728.560001373291 113.364999771118
835249.520000457764 815730.720001220703 113.364999771118
835251.520000457764 815738.880001068115 113.364999771118
835250.400001525879 815737.120000839233 111.835010528564
835249.600002288818 815735.040000915527 111.835010528564
835249.360000610352 815732.880001068115 111.835010528564
835249.520000457764 815730.720001220703 111.835010528564
835250.159999847412 815728.560001373291 111.835010528564
835251.200000762939 815726.720001220703 111.835010528564
835252.639999389648 815725.119998931885 111.835010528564
835254.319999694824 815723.680000305176 111.835010528564
835256.319999694824 815722.880001068115 111.835010528564
835258.400001525879 815722.319999694824 111.835010528564
835260.560001373291 815722.319999694824 111.835010528564
835262.720001220703 815722.639999389648 111.835010528564
835264.720001220703 815723.440002441406 111.835010528564
835266.480001449585 815724.720001220703 111.835010528564
835292.799999952316 815747.280000686646 111.835010528564
835294.319999992847 815748.880000114441 111.835010528564
835295.439999997616 815750.720000267029 111.835010528564
835296.159999966621 815752.800000190735 111.835010528564
835296.480000019073 815754.880000114441 111.835010528564
835296.240000009537 815757.120000004768 111.835010528564
835295.599999964237 815759.119999997318 111.835010528564
835294.640000015497 815761.119999885559 111.835010528564
835293.200000047684 815762.720000028610 111.835010528564
835291.519999980927 815764.000000000000 111.835010528564
835289.519999980927 815764.960000038147 111.835010528564
835256.799999237061 815776.479999542236 111.835010528564
835254.720001220703 815776.959999084473 111.835010528564
835252.560001373291 815777.039999008179 111.835010528564
835250.400001525879 815776.639999389648 111.835010528564
835248.400001525879 815775.760000228882 111.835010528564
835246.639999389648 815774.559999465942 111.835010528564
835245.120002746582 815772.960000038147 111.835010528564
835244.000000000000 815771.119999885559 111.835010528564
835243.280002593994 815769.119999885559 111.835010528564
835243.040000915527 815766.879999637604 111.835010528564
835243.120002746582 815764.799999713898 111.835010528564
835243.760002136230 815762.639999866486 111.835010528564
835244.799999237061 815760.799999952316 111.835010528564
835246.240001678467 815759.119999997318 111.835010528564
835247.920001983643 815757.759999990463 111.835010528564
835249.920001983643 815756.880000114441 111.835010528564
835253.040000915527 815755.759999990463 111.835010528564
835255.520000457764 815742.640001296997 111.835010528564
835253.040000915527 815740.559999465942 111.835010528564
835251.520000457764 815738.880001068115 111.835010528564
835250.159999847412 815736.960000991821 27.745002746582
835249.520000457764 815734.880001068115 27.745002746582
835249.200000762939 815732.720001220703 27.745002746582
835243.600002288818 815762.879999876022 27.745002746582
835244.639999389648 815760.879999995232 27.745002746582
835246.080001831055 815759.199999988079 27.745002746582
835247.840000152588 815757.920000076294 27.745002746582
835249.760002136230 815756.960000038147 27.745002746582
835252.880001068115 815755.840000152588 27.745002746582
835255.360000610352 815742.559999465942 27.745002746582
835252.880001068115 815740.479999542236 27.745002746582
835251.360000610352 815738.880001068115 27.745002746582
835250.159999847412 815736.960000991821 25.875000000000
835249.520000457764 815734.880001068115 25.875000000000
835249.200000762939 815732.720001220703 25.875000000000
835249.360000610352 815730.560001373291 25.875000000000
835250.000000000000 815728.480001449585 25.875000000000
835251.040000915527 815726.560001373291 25.875000000000
835252.479999542236 815724.880001068115 25.875000000000
835254.240001678467 815723.520000457764 25.875000000000
835256.159999847412 815722.560001373291 25.875000000000
835258.319999694824 815722.080001831055 25.875000000000
835260.560001373291 815722.000000000000 25.875000000000
835262.720001220703 815722.400001525879 25.875000000000
835264.720001220703 815723.280002593994 25.875000000000
835266.480001449585 815724.560001373291 25.875000000000
835293.120000004768 815747.280000686646 25.875000000000
835294.640000015497 815748.880000114441 25.875000000000
835295.759999990463 815750.720000267029 25.875000000000
835296.480000019073 815752.880000114441 25.875000000000
835296.719999909401 815754.960000038147 25.875000000000
835296.559999942780 815757.120000004768 25.875000000000
835295.919999957085 815759.280000001192 25.875000000000
835294.960000000894 815761.200000047684 25.875000000000
835293.519999980927 815762.879999876022 25.875000000000
835291.759999990463 815764.239999771118 25.875000000000
835289.760000228882 815765.119999885559 25.875000000000
835256.720001220703 815776.799999237061 25.875000000000
835254.639999389648 815777.279998779297 25.875000000000
835252.479999542236 815777.359998703003 25.875000000000
835250.240001678467 815776.959999084473 25.875000000000
835248.240001678467 815776.079999923706 25.875000000000
835246.479999542236 815774.880000114441 25.875000000000
835244.960002899170 815773.279999732971 25.875000000000
835243.760002136230 815771.439999580383 25.875000000000
835243.040000915527 815769.279999732971 25.875000000000
835242.720001220703 815767.119999885559 25.875000000000
835242.960002899170 815764.960000038147 25.875000000000
835243.600002288818 815762.879999876022 25.875000000000
835244.639999389648 815760.879999995232 25.875000000000
835246.080001831055 815759.199999988079 25.875000000000
835247.840000152588 815757.920000076294 25.875000000000
835249.760002136230 815756.960000038147 25.875000000000
835252.880001068115 815755.840000152588 25.875000000000
835255.360000610352 815742.559999465942 25.875000000000
835252.880001068115 815740.479999542236 25.875000000000
835251.360000610352 815738.880001068115 25.875000000000
835250.720001220703 815742.479999542236 25.874923706055
835250.560001373291 815743.039999961853 25.874923706055
835250.560001373291 815743.039999961853 27.744926452637
835250.720001220703 815742.479999542236 27.744926452637
835250.080001831055 815743.440000534058 25.874923706055
835250.080001831055 815743.440000534058 27.744926452637
835249.440002441406 815743.440000534058 25.874923706055
835249.440002441406 815743.440000534058 27.744926452637
835248.960002899170 815743.039999961853 25.874923706055
835248.960002899170 815743.039999961853 27.744926452637
835248.720001220703 815742.479999542236 25.874923706055
835248.720001220703 815742.479999542236 27.744926452637
835248.960002899170 815741.920000076294 25.874923706055
835248.960002899170 815741.920000076294 27.744926452637
835249.440002441406 815741.520000457764 25.874923706055
835249.440002441406 815741.520000457764 27.744926452637
835250.080001831055 815741.520000457764 25.874923706055
835250.080001831055 815741.520000457764 27.744926452637
835250.560001373291 815741.920000076294 25.874923706055
835250.560001373291 815741.920000076294 27.744926452637
835248.560001373291 815753.840000152588 25.874923706055
835248.400001525879 815754.400000095367 25.874923706055
835248.400001525879 815754.400000095367 27.744926452637
835248.560001373291 815753.840000152588 27.744926452637
835247.920001983643 815754.800000190735 25.874923706055
835247.920001983643 815754.800000190735 27.744926452637
835247.280002593994 815754.800000190735 25.874923706055
835247.280002593994 815754.800000190735 27.744926452637
835246.720001220703 815754.400000095367 25.874923706055
835246.720001220703 815754.400000095367 27.744926452637
835246.560001373291 815753.840000152588 25.874923706055
835246.560001373291 815753.840000152588 27.744926452637
835246.720001220703 815753.280000209808 25.874923706055
835246.720001220703 815753.280000209808 27.744926452637
835247.280002593994 815752.880000114441 25.874923706055
835247.280002593994 815752.880000114441 27.744926452637
835247.920001983643 815752.880000114441 25.874923706055
835247.920001983643 815752.880000114441 27.744926452637
835248.400001525879 815753.280000209808 25.874923706055
835248.400001525879 815753.280000209808 27.744926452637
3 0 1 2
3 0 2 3
3 4 5 6
3 4 6 7
3 4 7 8
3 4 8 9
3 4 9 10
3 4 10 11
3 4 11 12
3 4 12 13
3 4 13 14
3 4 14 15
3 4 15 16
3 4 16 17
3 18 4 17
3 18 17 19
3 18 19 20
3 21 18 20
3 21 20 22
3 21 22 23
3 21 23 24
3 21 24 25
3 21 25 26
3 21 26 27
3 21 27 28
3 21 28 29
3 21 29 30
3 21 30 31
3 3 21 31
3 0 3 31
3 32 33 34
3 34 35 32
3 33 36 37
3 37 34 33
3 36 38 39
3 39 37 36
3 38 40 41
3 41 39 38
3 40 42 43
3 43 41 40
3 42 44 45
3 45 43 42
3 44 46 47
3 47 45 44
3 46 48 49
3 49 47 46
3 48 50 51
3 51 49 48
3 50 52 53
3 53 51 50
3 52 54 55
3 55 53 52
3 54 56 57
3 57 55 54
3 56 58 59
3 59 57 56
3 58 60 61
3 61 59 58
3 60 62 63
3 63 61 60
3 62 64 65
3 65 63 62
3 64 66 67
3 67 65 64
3 66 68 69
3 69 67 66
3 68 70 71
3 71 69 68
3 70 72 73
3 73 71 70
3 72 74 75
3 75 73 72
3 74 76 77
3 77 75 74
3 76 78 79
3 79 77 76
3 78 80 81
3 81 79 78
3 80 82 83
3 83 81 80
3 82 84 85
3 85 83 82
3 84 86 87
3 87 85 84
3 86 88 89
3 89 87 86
3 88 90 91
3 91 89 88
3 90 92 93
3 93 91 90
3 92 94 95
3 95 93 92
3 94 32 35
3 35 95 94
3 96 97 98
3 96 98 99
3 100 101 102
3 100 102 103
3 100 103 104
3 100 104 105
3 100 105 106
3 100 106 107
3 100 107 108
3 100 108 109
3 110 100 109
3 111 110 109
3 112 111 109
3 113 112 109
3 114 113 109
3 115 114 109
3 116 115 109
3 117 116 109
3 118 117 109
3 119 118 109
3 120 119 109
3 121 120 109
3 122 121 109
3 122 109 123
3 99 122 123
3 99 123 124
3 99 124 125
3 99 125 126
3 99 126 127
3 99 127 128
3 96 99 128
3 129 130 97
3 97 96 129
3 130 131 98
3 98 97 130
3 131 132 99
3 99 98 131
3 132 133 122
3 122 99 132
3 133 134 121
3 121 122 133
3 134 135 120
3 120 121 134
3 135 136 119
3 119 120 135
3 136 137 118
3 118 119 136
3 137 138 117
3 117 118 137
3 138 139 116
3 116 117 138
3 139 140 115
3 115 116 139
3 140 141 114
3 114 115 140
3 141 142 113
3 113 114 141
3 142 143 112
3 112 113 142
3 143 144 111
3 111 112 143
3 144 145 110
3 110 111 144
3 145 146 100
3 100 110 145
3 146 147 101
3 101 100 146
3 147 148 102
3 102 101 147
3 148 149 103
3 103 102 148
3 149 150 104
3 104 103 149
3 150 151 105
3 105 104 150
3 151 152 106
3 106 105 151
3 152 153 107
3 107 106 152
3 153 154 108
3 108 107 153
3 154 155 109
3 109 108 154
3 155 156 123
3 123 109 155
3 156 157 124
3 124 123 156
3 157 158 125
3 125 124 157
3 158 159 126
3 126 125 158
3 159 160 127
3 127 126 159
3 160 161 128
3 128 127 160
3 161 129 96
3 96 128 161
3 162 163 164
3 165 166 167
3 165 167 168
3 165 168 169
3 165 169 170
3 165 170 171
3 165 171 172
3 165 172 173
3 165 173 174
3 165 174 175
3 165 175 176
3 165 176 177
3 165 177 178
3 179 165 178
3 179 178 180
3 179 180 181
3 182 179 181
3 183 182 181
3 184 183 181
3 185 184 181
3 186 185 181
3 187 186 181
3 188 187 181
3 189 188 181
3 190 189 181
3 191 190 181
3 192 191 181
3 192 181 193
3 192 193 194
3 195 192 194
3 196 195 194
3 197 196 194
3 198 197 194
3 199 198 194
3 200 199 194
3 201 200 194
3 202 201 194
3 203 202 194
3 204 203 194
3 205 204 194
3 205 194 206
3 164 205 206
3 162 164 206
3 207 208 163
3 163 162 207
3 208 209 164
3 164 163 208
3 209 210 205
3 205 164 209
3 210 211 204
3 204 205 210
3 211 212 203
3 203 204 211
3 212 213 202
3 202 203 212
3 213 214 201
3 201 202 213
3 214 215 200
3 200 201 214
3 215 216 199
3 199 200 215
3 216 217 198
3 198 199 216
3 217 218 197
3 197 198 217
3 218 219 196
3 196 197 218
3 219 220 195
3 195 196 219
3 220 221 192
3 192 195 220
3 221 222 191
3 191 192 221
3 222 223 190
3 190 191 222
3 223 224 189
3 189 190 223
3 224 225 188
3 188 189 224
3 225 226 187
3 187 188 225
3 226 227 186
3 186 187 226
3 227 228 185
3 185 186 227
3 228 229 184
3 184 185 228
3 229 230 183
3 183 184 229
3 230 231 182
3 182 183 230
3 231 232 179
3 179 182 231
3 232 233 165
3 165 179 232
3 233 234 166
3 166 165 233
3 234 235 167
3 167 166 234
3 235 236 168
3 168 167 235
3 236 237 169
3 169 168 236
3 237 238 170
3 170 169 237
3 238 239 171
3 171 170 238
3 239 240 172
3 172 171 239
3 240 241 173
3 173 172 240
3 241 242 174
3 174 173 241
3 242 243 175
3 175 174 242
3 243 244 176
3 176 175 243
3 244 245 177
3 177 176 244
3 245 246 178
3 178 177 245
3 246 247 180
3 180 178 246
3 247 248 181
3 181 180 247
3 248 249 193
3 193 181 248
3 249 250 194
3 194 193 249
3 250 251 206
3 206 194 250
3 251 207 162
3 162 206 251
3 252 253 254
3 255 256 257
3 255 257 258
3 259 255 258
3 259 258 260
3 259 260 261
3 262 259 261
3 263 264 265
3 263 265 266
3 267 263 266
3 267 266 268
3 269 267 268
3 270 269 268
3 271 270 268
3 272 271 268
3 273 272 268
3 274 273 268
3 275 274 268
3 276 275 268
3 277 276 268
3 278 277 268
3 279 278 268
3 279 268 280
3 279 280 281
3 282 279 281
3 283 282 281
3 284 283 281
3 285 284 281
3 286 285 281
3 287 286 281
3 288 287 281
3 289 288 281
3 261 289 281
3 262 261 281
3 290 262 281
3 291 290 281
3 292 291 281
3 292 281 293
3 292 293 294
3 292 294 295
3 292 295 296
3 292 296 297
3 292 297 298
3 292 298 299
3 292 299 300
3 292 300 301
3 292 301 302
3 292 302 303
3 292 303 304
3 292 304 305
3 292 305 306
3 292 306 307
3 292 307 308
3 292 308 309
3 254 292 309
3 252 254 309
3 310 263 264
3 264 311 310
3 311 264 265
3 265 312 311
3 312 265 266
3 266 313 312
3 313 266 268
3 268 314 313
3 314 268 280
3 280 315 314
3 315 280 281
3 281 316 315
3 316 281 293
3 293 317 316
3 317 293 294
3 294 318 317
3 318 294 295
3 295 319 318
3 319 295 296
3 296 320 319
3 320 296 297
3 297 321 320
3 321 297 298
3 298 322 321
3 322 298 299
3 299 323 322
3 323 299 300
3 300 324 323
3 324 300 301
3 301 325 324
3 325 301 302
3 302 326 325
3 326 302 303
3 303 327 326
3 327 303 304
3 304 328 327
3 328 304 305
3 305 329 328
3 329 305 306
3 306 330 329
3 330 306 307
3 307 331 330
3 331 307 308
3 308 332 331
3 332 308 309
3 309 333 332
3 333 309 252
3 252 334 333
3 334 252 253
3 253 335 334
3 335 253 254
3 254 336 335
3 336 254 292
3 292 337 336
3 337 292 291
3 291 338 337
3 338 291 290
3 290 339 338
3 339 290 262
3 262 340 339
3 340 262 259
3 259 341 340
3 341 259 255
3 255 342 341
3 342 255 256
3 256 343 342
3 343 256 257
3 257 344 343
3 344 257 258
3 258 345 344
3 345 258 260
3 260 346 345
3 346 260 261
3 261 347 346
3 347 261 289
3 289 348 347
3 348 289 288
3 288 349 348
3 349 288 287
3 287 350 349
3 350 287 286
3 286 351 350
3 351 286 285
3 285 352 351
3 352 285 284
3 284 353 352
3 353 284 283
3 283 354 353
3 354 283 282
3 282 355 354
3 355 282 279
3 279 356 355
3 356 279 278
3 278 357 356
3 357 278 277
3 277 358 357
3 358 277 276
3 276 359 358
3 359 276 275
3 275 360 359
3 360 275 274
3 274 361 360
3 361 274 273
3 273 362 361
3 362 273 272
3 272 363 362
3 363 272 271
3 271 364 363
3 364 271 270
3 270 365 364
3 365 270 269
3 269 366 365
3 366 269 267
3 267 367 366
3 367 267 263
3 263 310 367
3 368 369 370
3 368 370 371
3 372 373 374
3 372 374 375
3 372 375 376
3 372 376 377
3 372 377 378
3 372 378 379
3 372 379 380
3 372 380 381
3 382 372 381
3 383 382 381
3 384 383 381
3 385 384 381
3 386 385 381
3 387 386 381
3 388 387 381
3 389 388 381
3 390 389 381
3 391 390 381
3 392 391 381
3 393 392 381
3 394 393 381
3 394 381 395
3 371 394 395
3 371 395 396
3 371 396 397
3 371 397 398
3 371 398 399
3 371 399 400
3 368 371 400
3 401 402 369
3 369 368 401
3 402 403 370
3 370 369 402
3 403 404 371
3 371 370 403
3 404 405 394
3 394 371 404
3 405 406 393
3 393 394 405
3 406 407 392
3 392 393 406
3 407 408 391
3 391 392 407
3 408 409 390
3 390 391 408
3 409 410 389
3 389 390 409
3 410 411 388
3 388 389 410
3 411 412 387
3 387 388 411
3 412 413 386
3 386 387 412
3 413 414 385
3 385 386 413
3 414 415 384
3 384 385 414
3 415 416 383
3 383 384 415
3 416 417 382
3 382 383 416
3 417 418 372
3 372 382 417
3 418 419 373
3 373 372 418
3 419 420 374
3 374 373 419
3 420 421 375
3 375 374 420
3 421 422 376
3 376 375 421
3 422 423 377
3 377 376 422
3 423 424 378
3 378 377 423
3 424 425 379
3 379 378 424
3 425 426 380
3 380 379 425
3 426 427 381
3 381 380 426
3 427 428 395
3 395 381 427
3 428 429 396
3 396 395 428
3 429 430 397
3 397 396 429
3 430 431 398
3 398 397 430
3 431 432 399
3 399 398 431
3 432 433 400
3 400 399 432
3 433 401 368
3 368 400 433
3 434 435 436
3 434 436 437
3 438 439 440
3 438 440 441
3 438 441 442
3 438 442 443
3 438 443 444
3 438 444 445
3 438 445 446
3 438 446 447
3 448 438 447
3 449 448 447
3 450 449 447
3 451 450 447
3 452 451 447
3 453 452 447
3 454 453 447
3 455 454 447
3 456 455 447
3 457 456 447
3 458 457 447
3 459 458 447
3 460 459 447
3 460 447 461
3 437 460 461
3 437 461 462
3 437 462 463
3 437 463 464
3 437 464 465
3 437 465 466
3 434 437 466
3 467 468 435
3 435 434 467
3 468 469 436
3 436 435 468
3 469 470 437
3 437 436 469
3 470 471 460
3 460 437 470
3 471 472 459
3 459 460 471
3 472 473 458
3 458 459 472
3 473 474 457
3 457 458 473
3 474 475 456
3 456 457 474
3 475 476 455
3 455 456 475
3 476 477 454
3 454 455 476
3 477 478 453
3 453 454 477
3 478 479 452
3 452 453 478
3 479 480 451
3 451 452 479
3 480 481 450
3 450 451 480
3 481 482 449
3 449 450 481
3 482 483 448
3 448 449 482
3 483 484 438
3 438 448 483
3 484 485 439
3 439 438 484
3 485 486 440
3 440 439 485
3 486 487 441
3 441 440 486
3 487 488 442
3 442 441 487
3 488 489 443
3 443 442 488
3 489 490 444
3 444 443 489
3 490 491 445
3 445 444 490
3 491 492 446
3 446 445 491
3 492 493 447
3 447 446 492
3 493 494 461
3 461 447 493
3 494 495 462
3 462 461 494
3 495 496 463
3 463 462 495
3 496 497 464
3 464 463 496
3 497 498 465
3 465 464 497
3 498 499 466
3 466 465 498
3 499 467 434
3 434 466 499
3 500 501 502
3 500 502 503
3 504 505 506
3 504 506 507
3 504 507 508
3 504 508 509
3 504 509 510
3 504 510 511
3 504 511 512
3 504 512 513
3 514 504 513
3 515 514 513
3 516 515 513
3 517 516 513
3 518 517 513
3 519 518 513
3 520 519 513
3 521 520 513
3 522 521 513
3 523 522 513
3 524 523 513
3 525 524 513
3 526 525 513
3 526 513 527
3 503 526 527
3 503 527 528
3 503 528 529
3 503 529 530
3 503 530 531
3 503 531 532
3 500 503 532
3 533 534 501
3 501 500 533
3 534 535 502
3 502 501 534
3 535 536 503
3 503 502 535
3 536 537 526
3 526 503 536
3 537 538 525
3 525 526 537
3 538 539 524
3 524 525 538
3 539 540 523
3 523 524 539
3 540 541 522
3 522 523 540
3 541 542 521
3 521 522 541
3 542 543 520
3 520 521 542
3 543 544 519
3 519 520 543
3 544 545 518
3 518 519 544
3 545 546 517
3 517 518 545
3 546 547 516
3 516 517 546
3 547 548 515
3 515 516 547
3 548 549 514
3 514 515 548
3 549 550 504
3 504 514 549
3 550 551 505
3 505 504 550
3 551 552 506
3 506 505 551
3 552 553 507
3 507 506 552
3 553 554 508
3 508 507 553
3 554 555 509
3 509 508 554
3 555 556 510
3 510 509 555
3 556 557 511
3 511 510 556
3 557 558 512
3 512 511 557
3 558 559 513
3 513 512 558
3 559 560 527
3 527 513 559
3 560 561 528
3 528 527 560
3 561 562 529
3 529 528 561
3 562 563 530
3 530 529 562
3 563 564 531
3 531 530 563
3 564 565 532
3 532 531 564
3 565 533 500
3 500 532 565
3 566 567 568
3 566 568 569
3 570 571 572
3 570 572 573
3 570 573 574
3 570 574 575
3 570 575 576
3 570 576 577
3 570 577 578
3 570 578 579
3 580 570 579
3 581 580 579
3 582 581 579
3 583 582 579
3 584 583 579
3 585 584 579
3 586 585 579
3 587 586 579
3 588 587 579
3 589 588 579
3 590 589 579
3 591 590 579
3 592 591 579
3 592 579 593
3 569 592 593
3 569 593 594
3 569 594 595
3 569 595 596
3 569 596 597
3 569 597 598
3 566 569 598
3 599 600 567
3 567 566 599
3 600 601 568
3 568 567 600
3 601 602 569
3 569 568 601
3 602 603 592
3 592 569 602
3 603 604 591
3 591 592 603
3 604 605 590
3 590 591 604
3 605 606 589
3 589 590 605
3 606 607 588
3 588 589 606
3 607 608 587
3 587 588 607
3 608 609 586
3 586 587 608
3 609 610 585
3 585 586 609
3 610 611 584
3 584 585 610
3 611 612 583
3 583 584 611
3 612 613 582
3 582 583 612
3 613 614 581
3 581 582 613
3 614 615 580
3 580 581 614
3 615 616 570
3 570 580 615
3 616 617 571
3 571 570 616
3 617 618 572
3 572 571 617
3 618 619 573
3 573 572 618
3 619 620 574
3 574 573 619
3 620 621 575
3 575 574 620
3 621 622 576
3 576 575 621
3 622 623 577
3 577 576 622
3 623 624 578
3 578 577 623
3 624 625 579
3 579 578 624
3 625 626 593
3 593 579 625
3 626 627 594
3 594 593 626
3 627 628 595
3 595 594 627
3 628 629 596
3 596 595 628
3 629 630 597
3 597 596 629
3 630 631 598
3 598 597 630
3 631 599 566
3 566 598 631
3 632 633 634
3 632 634 635
3 636 637 638
3 636 638 639
3 636 639 640
3 636 640 641
3 636 641 642
3 636 642 643
3 636 643 644
3 636 644 645
3 646 636 645
3 647 646 645
3 648 647 645
3 649 648 645
3 650 649 645
3 651 650 645
3 652 651 645
3 653 652 645
3 654 653 645
3 655 654 645
3 656 655 645
3 657 656 645
3 658 657 645
3 658 645 659
3 635 658 659
3 635 659 660
3 635 660 661
3 635 661 662
3 635 662 663
3 635 663 664
3 632 635 664
3 665 666 633
3 633 632 665
3 666 667 634
3 634 633 666
3 667 668 635
3 635 634 667
3 668 669 658
3 658 635 668
3 669 670 657
3 657 658 669
3 670 671 656
3 656 657 670
3 671 672 655
3 655 656 671
3 672 673 654
3 654 655 672
3 673 674 653
3 653 654 673
3 674 675 652
3 652 653 674
3 675 676 651
3 651 652 675
3 676 677 650
3 650 651 676
3 677 678 649
3 649 650 677
3 678 679 648
3 648 649 678
3 679 680 647
3 647 648 679
3 680 681 646
3 646 647 680
3 681 682 636
3 636 646 681
3 682 683 637
3 637 636 682
3 683 684 638
3 638 637 683
3 684 685 639
3 639 638 684
3 685 686 640
3 640 639 685
3 686 687 641
3 641 640 686
3 687 688 642
3 642 641 687
3 688 689 643
3 643 642 688
3 689 690 644
3 644 643 689
3 690 691 645
3 645 644 690
3 691 692 659
3 659 645 691
3 692 693 660
3 660 659 692
3 693 694 661
3 661 660 693
3 694 695 662
3 662 661 694
3 695 696 663
3 663 662 695
3 696 697 664
3 664 663 696
3 697 665 632
3 632 664 697
3 698 699 700
3 701 702 703
3 701 703 704
3 701 704 705
3 701 705 706
3 701 706 707
3 701 707 708
3 701 708 709
3 701 709 710
3 701 710 711
3 701 711 712
3 701 712 713
3 701 713 714
3 715 701 714
3 715 714 716
3 715 716 717
3 718 715 717
3 719 718 717
3 720 719 717
3 721 720 717
3 722 721 717
3 723 722 717
3 724 723 717
3 725 724 717
3 726 725 717
3 727 726 717
3 728 727 717
3 728 717 729
3 728 729 730
3 731 728 730
3 732 731 730
3 733 732 730
3 734 733 730
3 735 734 730
3 736 735 730
3 737 736 730
3 738 737 730
3 739 738 730
3 740 739 730
3 741 740 730
3 741 730 742
3 700 741 742
3 698 700 742
3 743 744 699
3 699 698 743
3 744 745 700
3 700 699 744
3 745 746 741
3 741 700 745
3 746 747 740
3 740 741 746
3 747 748 739
3 739 740 747
3 748 749 738
3 738 739 748
3 749 750 737
3 737 738 749
3 750 751 736
3 736 737 750
3 751 752 735
3 735 736 751
3 752 753 734
3 734 735 752
3 753 754 733
3 733 734 753
3 754 755 732
3 732 733 754
3 755 756 731
3 731 732 755
3 756 757 728
3 728 731 756
3 757 758 727
3 727 728 757
3 758 759 726
3 726 727 758
3 759 760 725
3 725 726 759
3 760 761 724
3 724 725 760
3 761 762 723
3 723 724 761
3 762 763 722
3 722 723 762
3 763 764 721
3 721 722 763
3 764 765 720
3 720 721 764
3 765 766 719
3 719 720 765
3 766 767 718
3 718 719 766
3 767 768 715
3 715 718 767
3 768 769 701
3 701 715 768
3 769 770 702
3 702 701 769
3 770 771 703
3 703 702 770
3 771 772 704
3 704 703 771
3 772 773 705
3 705 704 772
3 773 774 706
3 706 705 773
3 774 775 707
3 707 706 774
3 775 776 708
3 708 707 775
3 776 777 709
3 709 708 776
3 777 778 710
3 710 709 777
3 778 779 711
3 711 710 778
3 779 780 712
3 712 711 779
3 780 781 713
3 713 712 780
3 781 782 714
3 714 713 781
3 782 783 716
3 716 714 782
3 783 784 717
3 717 716 783
3 784 785 729
3 729 717 784
3 785 786 730
3 730 729 785
3 786 787 742
3 742 730 786
3 787 743 698
3 698 742 787
3 788 789 790
3 788 790 791
3 792 793 794
3 792 794 795
3 792 795 796
3 792 796 797
3 792 797 798
3 792 798 799
3 792 799 800
3 792 800 801
3 802 792 801
3 803 802 801
3 804 803 801
3 805 804 801
3 806 805 801
3 807 806 801
3 808 807 801
3 809 808 801
3 810 809 801
3 811 810 801
3 812 811 801
3 813 812 801
3 814 813 801
3 814 801 815
3 791 814 815
3 791 815 816
3 791 816 817
3 791 817 818
3 791 818 819
3 791 819 820
3 788 791 820
3 821 822 789
3 789 788 821
3 822 823 790
3 790 789 822
3 823 824 791
3 791 790 823
3 824 825 814
3 814 791 824
3 825 826 813
3 813 814 825
3 826 827 812
3 812 813 826
3 827 828 811
3 811 812 827
3 828 829 810
3 810 811 828
3 829 830 809
3 809 810 829
3 830 831 808
3 808 809 830
3 831 832 807
3 807 808 831
3 832 833 806
3 806 807 832
3 833 834 805
3 805 806 833
3 834 835 804
3 804 805 834
3 835 836 803
3 803 804 835
3 836 837 802
3 802 803 836
3 837 838 792
3 792 802 837
3 838 839 793
3 793 792 838
3 839 840 794
3 794 793 839
3 840 841 795
3 795 794 840
3 841 842 796
3 796 795 841
3 842 843 797
3 797 796 842
3 843 844 798
3 798 797 843
3 844 845 799
3 799 798 844
3 845 846 800
3 800 799 845
3 846 847 801
3 801 800 846
3 847 848 815
3 815 801 847
3 848 849 816
3 816 815 848
3 849 850 817
3 817 816 849
3 850 851 818
3 818 817 850
3 851 852 819
3 819 818 851
3 852 853 820
3 820 819 852
3 853 821 788
3 788 820 853
3 854 855 856
3 857 858 859
3 857 859 860
3 857 860 861
3 857 861 862
3 857 862 863
3 857 863 864
3 857 864 865
3 857 865 866
3 857 866 867
3 857 867 868
3 857 868 869
3 857 869 870
3 871 857 870
3 871 870 872
3 871 872 873
3 874 871 873
3 875 874 873
3 876 875 873
3 877 876 873
3 878 877 873
3 879 878 873
3 880 879 873
3 881 880 873
3 882 881 873
3 883 882 873
3 884 883 873
3 884 873 885
3 884 885 886
3 887 884 886
3 888 887 886
3 889 888 886
3 890 889 886
3 891 890 886
3 892 891 886
3 893 892 886
3 894 893 886
3 895 894 886
3 896 895 886
3 897 896 886
3 897 886 898
3 856 897 898
3 854 856 898
3 899 900 855
3 855 854 899
3 900 901 856
3 856 855 900
3 901 902 897
3 897 856 901
3 902 903 896
3 896 897 902
3 903 904 895
3 895 896 903
3 904 905 894
3 894 895 904
3 905 906 893
3 893 894 905
3 906 907 892
3 892 893 906
3 907 908 891
3 891 892 907
3 908 909 890
3 890 891 908
3 909 910 889
3 889 890 909
3 910 911 888
3 888 889 910
3 911 912 887
3 887 888 911
3 912 913 884
3 884 887 912
3 913 914 883
3 883 884 913
3 914 915 882
3 882 883 914
3 915 916 881
3 881 882 915
3 916 917 880
3 880 881 916
3 917 918 879
3 879 880 917
3 918 919 878
3 878 879 918
3 919 920 877
3 877 878 919
3 920 921 876
3 876 877 920
3 921 922 875
3 875 876 921
3 922 923 874
3 874 875 922
3 923 924 871
3 871 874 923
3 924 925 857
3 857 871 924
3 925 926 858
3 858 857 925
3 926 927 859
3 859 858 926
3 927 928 860
3 860 859 927
3 928 929 861
3 861 860 928
3 929 930 862
3 862 861 929
3 930 931 863
3 863 862 930
3 931 932 864
3 864 863 931
3 932 933 865
3 865 864 932
3 933 934 866
3 866 865 933
3 934 935 867
3 867 866 934
3 935 936 868
3 868 867 935
3 936 937 869
3 869 868 936
3 937 938 870
3 870 869 937
3 938 939 872
3 872 870 938
3 939 940 873
3 873 872 939
3 940 941 885
3 885 873 940
3 941 942 886
3 886 885 941
3 942 943 898
3 898 886 942
3 943 899 854
3 854 898 943
3 944 945 946
3 947 948 949
3 947 949 950
3 947 950 951
3 947 951 952
3 947 952 953
3 947 953 954
3 947 954 955
3 947 955 956
3 947 956 957
3 947 957 958
3 947 958 959
3 947 959 960
3 961 947 960
3 961 960 962
3 961 962 963
3 964 961 963
3 965 964 963
3 966 965 963
3 967 966 963
3 968 967 963
3 969 968 963
3 970 969 963
3 971 970 963
3 972 971 963
3 973 972 963
3 974 973 963
3 974 963 975
3 974 975 976
3 977 974 976
3 978 977 976
3 979 978 976
3 980 979 976
3 981 980 976
3 982 981 976
3 983 982 976
3 984 983 976
3 985 984 976
3 986 985 976
3 987 986 976
3 987 976 988
3 946 987 988
3 944 946 988
3 989 990 945
3 945 944 989
3 990 991 946
3 946 945 990
3 991 992 987
3 987 946 991
3 992 993 986
3 986 987 992
3 993 994 985
3 985 986 993
3 994 995 984
3 984 985 994
3 995 996 983
3 983 984 995
3 996 997 982
3 982 983 996
3 997 998 981
3 981 982 997
3 998 999 980
3 980 981 998
3 999 1000 979
3 979 980 999
3 1000 1001 978
3 978 979 1000
3 1001 1002 977
3 977 978 1001
3 1002 1003 974
3 974 977 1002
3 1003 1004 973
3 973 974 1003
3 1004 1005 972
3 972 973 1004
3 1005 1006 971
3 971 972 1005
3 1006 1007 970
3 970 971 1006
3 1007 1008 969
3 969 970 1007
3 1008 1009 968
3 968 969 1008
3 1009 1010 967
3 967 968 1009
3 1010 1011 966
3 966 967 1010
3 1011 1012 965
3 965 966 1011
3 1012 1013 964
3 964 965 1012
3 1013 1014 961
3 961 964 1013
3 1014 1015 947
3 947 961 1014
3 1015 1016 948
3 948 947 1015
3 1016 1017 949
3 949 948 1016
3 1017 1018 950
3 950 949 1017
3 1018 1019 951
3 951 950 1018
3 1019 1020 952
3 952 951 1019
3 1020 1021 953
3 953 952 1020
3 1021 1022 954
3 954 953 1021
3 1022 1023 955
3 955 954 1022
3 1023 1024 956
3 956 955 1023
3 1024 1025 957
3 957 956 1024
3 1025 1026 958
3 958 957 1025
3 1026 1027 959
3 959 958 1026
3 1027 1028 960
3 960 959 1027
3 1028 1029 962
3 962 960 1028
3 1029 1030 963
3 963 962 1029
3 1030 1031 975
3 975 963 1030
3 1031 1032 976
3 976 975 1031
3 1032 1033 988
3 988 976 1032
3 1033 989 944
3 944 988 1033
3 35 34 1
3 1 0 35
3 34 37 2
3 2 1 34
3 37 39 3
3 3 2 37
3 39 41 21
3 21 3 39
3 41 43 18
3 18 21 41
3 43 45 4
3 4 18 43
3 45 47 5
3 5 4 45
3 47 49 6
3 6 5 47
3 49 51 7
3 7 6 49
3 51 53 8
3 8 7 51
3 53 55 9
3 9 8 53
3 55 57 10
3 10 9 55
3 57 59 11
3 11 10 57
3 59 61 12
3 12 11 59
3 61 63 13
3 13 12 61
3 63 65 14
3 14 13 63
3 65 67 15
3 15 14 65
3 67 69 16
3 16 15 67
3 69 71 17
3 17 16 69
3 71 73 19
3 19 17 71
3 73 75 20
3 20 19 73
3 75 77 22
3 22 20 75
3 77 79 23
3 23 22 77
3 79 81 24
3 24 23 79
3 81 83 25
3 25 24 81
3 83 85 26
3 26 25 83
3 85 87 27
3 27 26 85
3 87 89 28
3 28 27 87
3 89 91 29
3 29 28 89
3 91 93 30
3 30 29 91
3 93 95 31
3 31 30 93
3 95 35 0
3 0 31 95
3 1034 1035 1036
3 146 147 148
3 146 148 149
3 146 149 150
3 146 150 151
3 146 151 152
3 146 152 153
3 146 153 154
3 146 154 155
3 146 155 1037
3 146 1037 1038
3 146 1038 1039
3 146 1039 1040
3 145 146 1040
3 145 1040 1041
3 145 1041 1042
3 144 145 1042
3 143 144 1042
3 142 143 1042
3 141 142 1042
3 140 141 1042
3 139 140 1042
3 138 139 1042
3 137 138 1042
3 136 137 1042
3 135 136 1042
3 134 135 1042
3 134 1042 1043
3 134 1043 1044
3 133 134 1044
3 132 133 1044
3 131 132 1044
3 130 131 1044
3 129 130 1044
3 161 129 1044
3 160 161 1044
3 159 160 1044
3 158 159 1044
3 157 158 1044
3 156 157 1044
3 156 1044 1045
3 1036 156 1045
3 1034 1036 1045
3 1035 1034 1046
3 1046 1047 1035
3 1036 1035 1047
3 1047 1048 1036
3 156 1036 1048
3 1048 1049 156
3 157 156 1049
3 1049 1050 157
3 158 157 1050
3 1050 1051 158
3 159 158 1051
3 1051 1052 159
3 160 159 1052
3 1052 1053 160
3 161 160 1053
3 1053 1054 161
3 129 161 1054
3 1054 1055 129
3 130 129 1055
3 1055 1056 130
3 131 130 1056
3 1056 1057 131
3 132 131 1057
3 1057 1058 132
3 133 132 1058
3 1058 1059 133
3 134 133 1059
3 1059 1060 134
3 135 134 1060
3 1060 1061 135
3 136 135 1061
3 1061 1062 136
3 137 136 1062
3 1062 1063 137
3 138 137 1063
3 1063 1064 138
3 139 138 1064
3 1064 1065 139
3 140 139 1065
3 1065 1066 140
3 141 140 1066
3 1066 1067 141
3 142 141 1067
3 1067 1068 142
3 143 142 1068
3 1068 1069 143
3 144 143 1069
3 1069 1070 144
3 145 144 1070
3 1070 1071 145
3 146 145 1071
3 1071 1072 146
3 147 146 1072
3 1072 1073 147
3 148 147 1073
3 1073 1074 148
3 149 148 1074
3 1074 1075 149
3 150 149 1075
3 1075 1076 150
3 151 150 1076
3 1076 1077 151
3 152 151 1077
3 1077 1078 152
3 153 152 1078
3 1078 1079 153
3 154 153 1079
3 1079 1080 154
3 155 154 1080
3 1080 1081 155
3 1037 155 1081
3 1081 1082 1037
3 1038 1037 1082
3 1082 1083 1038
3 1039 1038 1083
3 1083 1084 1039
3 1040 1039 1084
3 1084 1085 1040
3 1041 1040 1085
3 1085 1086 1041
3 1042 1041 1086
3 1086 1087 1042
3 1043 1042 1087
3 1087 1088 1043
3 1044 1043 1088
3 1088 1089 1044
3 1045 1044 1089
3 1089 1090 1045
3 1034 1045 1090
3 1090 1046 1034
3 1091 1092 1093
3 1093 1094 1091
3 1092 1095 1096
3 1096 1093 1092
3 1095 1097 1098
3 1098 1096 1095
3 1097 1099 1100
3 1100 1098 1097
3 1099 1101 1102
3 1102 1100 1099
3 1101 1103 1104
3 1104 1102 1101
3 1103 1105 1106
3 1106 1104 1103
3 1105 1107 1108
3 1108 1106 1105
3 1107 1109 1110
3 1110 1108 1107
3 1109 1091 1094
3 1094 1110 1109
3 1107 1105 1103
3 1103 1101 1099
3 1099 1097 1095
3 1095 1092 1091
3 1099 1095 1091
3 1103 1099 1091
3 1107 1103 1091
3 1109 1107 1091
3 1093 1096 1098
3 1098 1100 1102
3 1102 1104 1106
3 1106 1108 1110
3 1102 1106 1110
3 1098 1102 1110
3 1093 1098 1110
3 1094 1093 1110
3 1111 1112 1113
3 1113 1114 1111
3 1112 1115 1116
3 1116 1113 1112
3 1115 1117 1118
3 1118 1116 1115
3 1117 1119 1120
3 1120 1118 1117
3 1119 1121 1122
3 1122 1120 1119
3 1121 1123 1124
3 1124 1122 1121
3 1123 1125 1126
3 1126 1124 1123
3 1125 1127 1128
3 1128 1126 1125
3 1127 1129 1130
3 1130 1128 1127
3 1129 1111 1114
3 1114 1130 1129
3 1127 1125 1123
3 1123 1121 1119
3 1119 1117 1115
3 1115 1112 1111
3 1119 1115 1111
3 1123 1119 1111
3 1127 1123 1111
3 1129 1127 1111
3 1113 1116 1118
3 1118 1120 1122
3 1122 1124 1126
3 1126 1128 1130
3 1122 1126 1130
3 1118 1122 1130
3 1113 1118 1130
3 1114 1113 1130
3 94 92 90
3 90 88 86
3 86 84 82
3 90 86 82
3 82 80 78
3 78 76 74
3 82 78 74
3 74 72 70
3 70 68 66
3 74 70 66
3 82 74 66
3 66 64 62
3 62 60 58
3 66 62 58
3 58 56 54
3 54 52 50
3 58 54 50
3 66 58 50
3 50 48 46
3 46 44 42
3 50 46 42
3 42 40 38
3 38 36 33
3 42 38 33
3 50 42 33
3 66 50 33
3 82 66 33
3 90 82 33
3 94 90 33
3 32 94 33
3 161 160 159
3 159 158 157
3 161 159 157
3 157 156 155
3 155 154 153
3 157 155 153
3 161 157 153
3 153 152 151
3 151 150 149
3 153 151 149
3 149 148 147
3 147 146 145
3 149 147 145
3 153 149 145
3 161 153 145
3 145 144 143
3 143 142 141
3 145 143 141
3 141 140 139
3 139 138 137
3 141 139 137
3 145 141 137
3 161 145 137
3 137 136 135
3 135 134 133
3 137 135 133
3 161 137 133
3 133 132 131
3 161 133 131
3 161 131 130
3 129 161 130
3 207 251 250
3 207 250 249
3 248 247 246
3 246 245 244
3 248 246 244
3 244 243 242
3 242 241 240
3 244 242 240
3 248 244 240
3 240 239 238
3 238 237 236
3 240 238 236
3 236 235 234
3 234 233 232
3 236 234 232
3 240 236 232
3 248 240 232
3 249 248 232
3 232 231 230
3 230 229 228
3 232 230 228
3 228 227 226
3 226 225 224
3 228 226 224
3 232 228 224
3 224 223 222
3 222 221 220
3 224 222 220
3 220 219 218
3 218 217 216
3 220 218 216
3 224 220 216
3 232 224 216
3 249 232 216
3 207 249 216
3 216 215 214
3 214 213 212
3 216 214 212
3 207 216 212
3 212 211 210
3 207 212 210
3 207 210 209
3 207 209 208
3 311 312 313
3 313 314 315
3 311 313 315
3 316 317 318
3 318 319 320
3 316 318 320
3 320 321 322
3 322 323 324
3 320 322 324
3 316 320 324
3 324 325 326
3 326 327 328
3 324 326 328
3 328 329 330
3 330 331 332
3 328 330 332
3 324 328 332
3 316 324 332
3 315 316 332
3 332 333 334
3 334 335 336
3 332 334 336
3 336 337 338
3 332 336 338
3 315 332 338
3 338 339 340
3 340 341 342
3 342 343 344
3 340 342 344
3 344 345 346
3 346 347 348
3 344 346 348
3 340 344 348
3 348 349 350
3 350 351 352
3 348 350 352
3 352 353 354
3 354 355 356
3 352 354 356
3 348 352 356
3 340 348 356
3 338 340 356
3 315 338 356
3 356 357 358
3 358 359 360
3 356 358 360
3 360 361 362
3 362 363 364
3 360 362 364
3 356 360 364
3 315 356 364
3 311 315 364
3 364 365 366
3 311 364 366
3 311 366 367
3 311 367 310
3 263 267 269
3 269 270 271
3 263 269 271
3 271 272 273
3 273 274 275
3 271 273 275
3 263 271 275
3 275 276 277
3 277 278 279
3 275 277 279
3 279 282 283
3 283 284 285
3 279 283 285
3 275 279 285
3 285 286 287
3 287 288 289
3 285 287 289
3 289 261 260
3 260 258 257
3 289 260 257
3 285 289 257
3 275 285 257
3 257 256 255
3 255 259 262
3 257 255 262
3 275 257 262
3 262 290 291
3 291 292 254
3 254 253 252
3 291 254 252
3 252 309 308
3 308 307 306
3 252 308 306
3 291 252 306
3 306 305 304
3 304 303 302
3 306 304 302
3 302 301 300
3 300 299 298
3 302 300 298
3 306 302 298
3 291 306 298
3 262 291 298
3 298 297 296
3 296 295 294
3 298 296 294
3 294 293 281
3 298 294 281
3 262 298 281
3 275 262 281
3 275 281 280
3 263 275 280
3 280 268 266
3 263 280 266
3 263 266 265
3 263 265 264
3 433 432 431
3 431 430 429
3 433 431 429
3 429 428 427
3 427 426 425
3 429 427 425
3 433 429 425
3 425 424 423
3 423 422 421
3 425 423 421
3 421 420 419
3 419 418 417
3 421 419 417
3 425 421 417
3 433 425 417
3 417 416 415
3 415 414 413
3 417 415 413
3 413 412 411
3 411 410 409
3 413 411 409
3 417 413 409
3 433 417 409
3 409 408 407
3 407 406 405
3 409 407 405
3 433 409 405
3 405 404 403
3 433 405 403
3 433 403 402
3 401 433 402
3 499 498 497
3 497 496 495
3 499 497 495
3 495 494 493
3 493 492 491
3 495 493 491
3 499 495 491
3 491 490 489
3 489 488 487
3 491 489 487
3 487 486 485
3 485 484 483
3 487 485 483
3 491 487 483
3 499 491 483
3 483 482 481
3 481 480 479
3 483 481 479
3 479 478 477
3 477 476 475
3 479 477 475
3 483 479 475
3 499 483 475
3 475 474 473
3 473 472 471
3 475 473 471
3 499 475 471
3 471 470 469
3 499 471 469
3 499 469 468
3 467 499 468
3 565 564 563
3 563 562 561
3 565 563 561
3 561 560 559
3 559 558 557
3 561 559 557
3 565 561 557
3 557 556 555
3 555 554 553
3 557 555 553
3 553 552 551
3 551 550 549
3 553 551 549
3 557 553 549
3 565 557 549
3 549 548 547
3 547 546 545
3 549 547 545
3 545 544 543
3 543 542 541
3 545 543 541
3 549 545 541
3 565 549 541
3 541 540 539
3 539 538 537
3 541 539 537
3 565 541 537
3 537 536 535
3 565 537 535
3 565 535 534
3 533 565 534
3 631 630 629
3 629 628 627
3 631 629 627
3 627 626 625
3 625 624 623
3 627 625 623
3 631 627 623
3 623 622 621
3 621 620 619
3 623 621 619
3 619 618 617
3 617 616 615
3 619 617 615
3 623 619 615
3 631 623 615
3 615 614 613
3 613 612 611
3 615 613 611
3 611 610 609
3 609 608 607
3 611 609 607
3 615 611 607
3 631 615 607
3 607 606 605
3 605 604 603
3 607 605 603
3 631 607 603
3 603 602 601
3 631 603 601
3 631 601 600
3 599 631 600
3 697 696 695
3 695 694 693
3 697 695 693
3 693 692 691
3 691 690 689
3 693 691 689
3 697 693 689
3 689 688 687
3 687 686 685
3 689 687 685
3 685 684 683
3 683 682 681
3 685 683 681
3 689 685 681
3 697 689 681
3 681 680 679
3 679 678 677
3 681 679 677
3 677 676 675
3 675 674 673
3 677 675 673
3 681 677 673
3 697 681 673
3 673 672 671
3 671 670 669
3 673 671 669
3 697 673 669
3 669 668 667
3 697 669 667
3 697 667 666
3 665 697 666
3 743 787 786
3 743 786 785
3 784 783 782
3 782 781 780
3 784 782 780
3 780 779 778
3 778 777 776
3 780 778 776
3 784 780 776
3 776 775 774
3 774 773 772
3 776 774 772
3 772 771 770
3 770 769 768
3 772 770 768
3 776 772 768
3 784 776 768
3 785 784 768
3 768 767 766
3 766 765 764
3 768 766 764
3 764 763 762
3 762 761 760
3 764 762 760
3 768 764 760
3 760 759 758
3 758 757 756
3 760 758 756
3 756 755 754
3 754 753 752
3 756 754 752
3 760 756 752
3 768 760 752
3 785 768 752
3 743 785 752
3 752 751 750
3 750 749 748
3 752 750 748
3 743 752 748
3 748 747 746
3 743 748 746
3 743 746 745
3 743 745 744
3 853 852 851
3 851 850 849
3 853 851 849
3 849 848 847
3 847 846 845
3 849 847 845
3 853 849 845
3 845 844 843
3 843 842 841
3 845 843 841
3 841 840 839
3 839 838 837
3 841 839 837
3 845 841 837
3 853 845 837
3 837 836 835
3 835 834 833
3 837 835 833
3 833 832 831
3 831 830 829
3 833 831 829
3 837 833 829
3 853 837 829
3 829 828 827
3 827 826 825
3 829 827 825
3 853 829 825
3 825 824 823
3 853 825 823
3 853 823 822
3 821 853 822
3 899 943 942
3 899 942 941
3 940 939 938
3 938 937 936
3 940 938 936
3 936 935 934
3 934 933 932
3 936 934 932
3 940 936 932
3 932 931 930
3 930 929 928
3 932 930 928
3 928 927 926
3 926 925 924
3 928 926 924
3 932 928 924
3 940 932 924
3 941 940 924
3 924 923 922
3 922 921 920
3 924 922 920
3 920 919 918
3 918 917 916
3 920 918 916
3 924 920 916
3 916 915 914
3 914 913 912
3 916 914 912
3 912 911 910
3 910 909 908
3 912 910 908
3 916 912 908
3 924 916 908
3 941 924 908
3 899 941 908
3 908 907 906
3 906 905 904
3 908 906 904
3 899 908 904
3 904 903 902
3 899 904 902
3 899 902 901
3 899 901 900
3 989 1033 1032
3 989 1032 1031
3 1030 1029 1028
3 1028 1027 1026
3 1030 1028 1026
3 1026 1025 1024
3 1024 1023 1022
3 1026 1024 1022
3 1030 1026 1022
3 1022 1021 1020
3 1020 1019 1018
3 1022 1020 1018
3 1018 1017 1016
3 1016 1015 1014
3 1018 1016 1014
3 1022 1018 1014
3 1030 1022 1014
3 1031 1030 1014
3 1014 1013 1012
3 1012 1011 1010
3 1014 1012 1010
3 1010 1009 1008
3 1008 1007 1006
3 1010 1008 1006
3 1014 1010 1006
3 1006 1005 1004
3 1004 1003 1002
3 1006 1004 1002
3 1002 1001 1000
3 1000 999 998
3 1002 1000 998
3 1006 1002 998
3 1014 1006 998
3 1031 1014 998
3 989 1031 998
3 998 997 996
3 996 995 994
3 998 996 994
3 989 998 994
3 994 993 992
3 989 994 992
3 989 992 991
3 989 991 990
3 1046 1090 1089
3 1046 1089 1088
3 1087 1086 1085
3 1085 1084 1083
3 1087 1085 1083
3 1083 1082 1081
3 1081 1080 1079
3 1083 1081 1079
3 1087 1083 1079
3 1079 1078 1077
3 1077 1076 1075
3 1079 1077 1075
3 1075 1074 1073
3 1073 1072 1071
3 1075 1073 1071
3 1079 1075 1071
3 1087 1079 1071
3 1088 1087 1071
3 1071 1070 1069
3 1069 1068 1067
3 1071 1069 1067
3 1067 1066 1065
3 1065 1064 1063
3 1067 1065 1063
3 1071 1067 1063
3 1063 1062 1061
3 1061 1060 1059
3 1063 1061 1059
3 1059 1058 1057
3 1057 1056 1055
3 1059 1057 1055
3 1063 1059 1055
3 1071 1063 1055
3 1088 1071 1055
3 1046 1088 1055
3 1055 1054 1053
3 1053 1052 1051
3 1055 1053 1051
3 1046 1055 1051
3 1051 1050 1049
3 1046 1051 1049
3 1046 1049 1048
3 1046 1048 1047
