OFF
632 729 0

-2.28986 1.09181 34.9275
-7.51557 25.1658 34.9275
14.4036 -4.76902 34.9275
16.7064 -5.57753 34.9275
18.4216 -4.91784 34.9275
22.069 -3.515 34.9275
25.4966 -0.590174 34.9275
27.1 4.22 34.9275
27.1 7.8 34.9275
24.7778 12.4444 34.9275
23.9787 14.0427 34.9275
13.0379 17.9068 34.9275
-0.305212 -11.9529 -8.87251
-2.21037 0.477544 -8.87251
-0.305212 -11.9529 4.19755
-2.21037 0.477544 4.19755
-20.6479 27.0714 -8.87251
27.1 4.22 -8.87251
14.8671 -4.78619 -8.87251
27.1 4.59297 -8.87251
27.1 7.8 -8.87251
25.7716 10.4568 -8.87251
24.7778 12.4444 -8.87251
23.9787 14.0427 -8.87251
18.1518 16.1006 -8.87251
16.1349 16.8129 -8.87251
14.6718 17.3297 -8.87251
-7.51557 25.1658 -8.87251
-9.11617 25.7311 -8.87251
-14.9174 27.78 -8.87251
-20.7818 27.78 -8.87251
-21.6285 26.8963 -8.87251
-22.5453 25.9313 -8.87251
-25.6638 22.6486 -8.87251
-26.68 19.6 -8.87251
-27.0698 16.9687 -8.87251
-26.2333 12.4814 -8.87251
-25.6968 9.60348 -8.87251
-19.0162 7.00766 -8.87251
-16.6841 6.10147 -8.87251
-4.93995 1.53815 -8.87251
0.785761 -0.686642 -8.87251
9.06239 -3.90263 -8.87251
10.9643 -4.64164 -8.87251
17.0405 -5.44905 -8.87251
18.4216 -4.91784 -8.87251
22.069 -3.515 -8.87251
25.4966 -0.590174 -8.87251
-20.6479 27.0714 -50.6925
-14.9174 27.78 -50.6925
-20.7818 27.78 -50.6925
-21.6285 26.8963 -50.6925
-22.5453 25.9313 -50.6925
-25.6638 22.6486 -50.6925
-26.68 19.6 -50.6925
-27.0698 16.9687 -50.6925
-26.2333 12.4814 -50.6925
-22.5387 8.37638 -50.6925
-16.6841 6.10147 -50.6925
-4.93995 1.53815 -50.6925
17.6873 -7.25395 -50.6925
24.5922 -1.36189 -50.6925
25.4966 -0.590174 -50.6925
27.1 4.22 -50.6925
27.1 7.8 -50.6925
24.7778 12.4444 -50.6925
23.9787 14.0427 -50.6925
13.0379 17.9068 -50.6925
-20.6479 27.0714 4.19755
27.1 4.22 4.19755
14.8671 -4.78619 4.19755
27.1 4.59297 4.19755
27.1 7.8 4.19755
24.7778 12.4444 4.19755
23.9787 14.0427 4.19755
18.1518 16.1006 4.19755
16.1349 16.8129 4.19755
14.6718 17.3297 4.19755
-7.51557 25.1658 4.19755
-9.11617 25.7311 4.19755
-14.9174 27.78 4.19755
-20.7818 27.78 4.19755
-21.6285 26.8963 4.19755
-22.5453 25.9313 4.19755
-25.6638 22.6486 4.19755
-26.68 19.6 4.19755
-27.0698 16.9687 4.19755
-26.2333 12.4814 4.19755
-25.6968 9.60348 4.19755
-16.9283 6.19638 4.19755
-16.6841 6.10147 4.19755
-4.93995 1.53815 4.19755
9.06239 -3.90263 4.19755
10.9643 -4.64164 4.19755
17.0405 -5.44905 4.19755
18.4216 -4.91784 4.19755
22.069 -3.515 4.19755
25.4966 -0.590174 4.19755
-20.6479 27.0714 -39.6022
-14.9174 27.78 -39.6022
-20.7818 27.78 -39.6022
-21.6285 26.8963 -39.6022
-22.5453 25.9313 -39.6022
-25.6638 22.6486 -39.6022
-26.68 19.6 -39.6022
-27.0698 16.9687 -39.6022
-26.2333 12.4814 -39.6022
-25.6968 9.60348 -39.6022
-23.9251 8.91509 -39.6022
-18.6738 6.87463 -39.6022
-16.6841 6.10147 -39.6022
-16.4789 6.02177 -39.6022
-4.93995 1.53815 -39.6022
17.6873 -7.25395 -39.6022
24.5922 -1.36189 -39.6022
25.4966 -0.590174 -39.6022
27.1 4.22 -39.6022
27.1 7.8 -39.6022
24.7778 12.4444 -39.6022
23.9787 14.0427 -39.6022
13.0379 17.9068 -39.6022
24.7778 12.4444 -38.0721
27.1 7.8 -38.0721
-6.68904 -0.0543802 18.7964
-10.0685 -3.13131 18.7964
-4.93995 1.53815 18.7964
-14.2237 -6.91461 18.7964
-2.15156 0.45469 18.7964
-20.6479 27.0714 20.3275
-16.693 6.14855 20.3275
-20.7818 27.78 20.3275
-21.6285 26.8963 20.3275
-22.5453 25.9313 20.3275
-25.6638 22.6486 20.3275
-26.68 19.6 20.3275
-27.1 16.765 20.3275
-27.1 13.4444 20.3275
-25.7252 11.9169 20.3275
-25.08 11.2 20.3275
-23.4316 9.36842 20.3275
-22.5387 8.37638 20.3275
-17.8569 6.5572 20.3275
-2.28986 1.09181 20.3275
-5.16498 14.3371 20.3275
-7.51557 25.1658 20.3275
-9.11617 25.7311 20.3275
-14.9174 27.78 20.3275
-14.2237 -6.91461 4.19755
-14.2237 -6.91461 5.72656
-9.68917 -2.78597 -8.87251
-8.27199 -1.49564 4.19755
-14.5995 -7.25673 4.19755
27.1 4.59297 5.72663
27.1 4.59297 18.7964
7.16727 11.445 5.72663
7.16727 11.445 18.7964
-20.6479 27.0714 18.7964
-2.28986 1.09181 18.7964
-17.8569 6.5572 18.7964
-22.5387 8.37638 18.7964
-23.4316 9.36842 18.7964
-25.7252 11.9169 18.7964
-26.2333 12.4814 18.7964
-27.0698 16.9687 18.7964
-26.68 19.6 18.7964
-25.6638 22.6486 18.7964
-22.5453 25.9313 18.7964
-21.6285 26.8963 18.7964
-20.7818 27.78 18.7965
-14.9174 27.78 18.7965
-2.28986 1.09181 34.2575
-2.28986 1.09181 5.7266
-17.8569 6.5572 5.7266
-16.693 6.14855 33.3975
-16.693 6.14855 34.9275
-7.11863 23.3372 18.7965
-7.51557 25.1658 18.7965
-7.51557 25.1658 33.3975
-2.15156 0.45469 5.7266
-2.15156 0.454689 34.9275
-2.28986 1.09181 52.5625
-2.80808 3.47919 52.5625
-4.86078 12.9356 5.72663
-7.51557 25.1658 52.5625
-20.7818 27.78 5.72665
-5.481 15.7929 5.72663
-20.6479 27.0714 5.72665
17.6873 -7.25395 5.72659
9.96575 -4.25364 5.72659
-4.93995 1.53815 5.7266
-16.6841 6.10147 5.7266
-22.5387 8.37638 5.7266
-26.2333 12.4814 5.72661
-27.0698 16.9687 5.72662
-26.68 19.6 5.72662
-25.6638 22.6486 5.72663
-22.5453 25.9313 5.72665
-21.6285 26.8963 5.72665
-14.9174 27.78 5.72666
-9.11617 25.7311 5.72666
-6.57927 20.8524 5.72665
-3.6147 15.1513 5.72663
-2.01809 14.6025 5.72663
5.35263 12.0688 5.72663
11.2997 14.6855 5.72665
12.5763 15.6865 5.72665
13.7776 15.7757 5.72665
18.1518 16.1006 5.72666
23.9787 14.0427 5.72665
24.7778 12.4444 5.72665
27.1 7.8 5.72664
27.1 4.22 5.72663
25.4966 -0.590174 5.72662
22.069 -3.515 5.72661
20.3417 -4.98895 5.7266
19.0752 -6.06964 5.7266
-21.3994 -13.448 -23.4724
-14.2237 -6.91461 -50.6925
-4.93995 1.53815 34.9275
-4.93995 1.53815 -17.9143
-4.93995 1.53815 -25.7192
-4.93995 1.53815 -52.6625
-14.2237 -6.91461 -52.6625
-18.1869 -10.5231 -50.6925
-19.3967 -11.6246 -50.6925
-21.3994 -13.448 -50.6925
-21.3994 -13.448 -39.6022
-21.3994 -13.448 -38.0721
-21.3994 -13.448 -25.0024
-21.3994 -13.448 -10.4025
-21.3994 -13.448 -8.87251
-21.3994 -13.448 4.19755
-21.3994 -13.448 5.72654
-19.3967 -11.6246 5.72655
-18.1869 -10.5231 5.72655
-14.2237 -6.91461 20.3275
-14.2237 -6.91461 33.3975
-14.2237 -6.91461 34.9275
17.6873 -7.25395 18.7964
-25.6968 9.60348 -50.6925
15.0311 -6.22186 -8.87251
17.6873 -7.25395 -8.87251
13.457 -5.61019 -8.87251
13.457 -5.61019 4.19755
15.0311 -6.22186 4.19755
17.6873 -7.25395 4.19755
17.6873 -7.25395 20.3275
17.6873 -7.25395 33.3975
17.6873 -7.25395 34.9275
15.0311 -6.22186 34.9275
10.9643 -4.64164 34.9275
-25.6968 9.60348 5.7266
-25.6968 9.60348 -10.4025
-25.6968 9.60348 -23.4724
-25.6968 9.60348 -25.0024
-25.6968 9.60348 -38.0721
-22.5387 8.37638 33.3975
-22.5387 8.37638 34.9275
-22.5387 8.37638 52.5625
-16.6841 6.10147 34.9275
-16.6841 6.10147 33.3975
-17.8569 6.5572 33.3975
-17.8569 6.5572 34.9275
17.6873 -7.25395 -38.0721
-17.8569 6.5572 52.5625
17.6873 -7.25395 -52.6625
-16.6841 6.10147 -52.6625
-22.5453 25.9313 33.3975
-22.5453 25.9313 34.9275
-22.5453 25.9313 -25.0024
-22.5453 25.9313 -23.4724
-23.4316 9.36842 33.3975
-23.4316 9.36842 34.9275
-25.08 11.2 33.3975
-25.08 11.2 34.9275
-20.5408 -16.6791 18.7963
-20.5408 -16.6791 20.3275
16.1349 16.8129 18.7965
16.1349 16.8129 20.3275
-20.7825 -17.7469 18.7963
-20.7825 -17.7469 20.3275
-22.5453 25.9313 -52.6625
-8.32912 24.2175 18.7965
-20.2829 -20.1608 33.3975
-20.2829 -20.1608 20.3275
-20.5408 -16.6791 34.9275
-20.5408 -16.6791 33.3975
-20.7825 -17.7469 34.9275
-20.7825 -17.7469 33.3975
0.0994993 -20.618 4.19755
0.0994993 -20.618 -8.87251
0.830726 -19.3645 4.19755
0.830726 -19.3645 -8.87251
20.3417 -4.98895 -8.87251
20.3417 -4.98895 -10.4025
-21.0814 -15.1542 -38.0721
-21.0814 -15.1542 -39.6022
-19.6927 -12.9324 -52.6625
-19.6927 -12.9324 -50.6925
-21.0814 -15.1542 -23.4724
-21.0814 -15.1542 -25.0024
20.3417 -4.98895 34.9275
20.3417 -4.98895 33.3975
-14.6203 -4.81648 -50.6925
-18.1869 -10.5231 -52.6625
-14.6203 -4.81648 -52.6625
-6.84768 22.089 18.7964
-0.5257 14.7133 18.7964
24.7778 12.4444 18.7965
24.7778 12.4444 -10.4025
24.7778 12.4444 -23.4724
24.7778 12.4444 33.3975
24.7778 12.4444 20.3275
22.069 -3.515 -10.4025
19.0752 -6.06964 -8.87251
19.0752 -6.06964 -10.4025
20.3417 -4.98895 18.7964
20.3417 -4.98895 -23.4724
-22.5453 25.9313 -38.0721
-22.5453 25.9313 -10.4025
27.1 10.65 -50.6925
27.1 10.65 -39.6022
24.7778 12.4444 52.5625
24.7778 12.4444 -25.0024
27.1 10.65 -38.0721
-0.0943558 -22.4273 -8.87251
-0.0943558 -22.4273 -10.4025
1.13887 -21.375 -8.87251
1.13887 -21.375 -10.4025
18.1518 16.1006 18.7965
18.1518 16.1006 20.3275
-26.2333 12.4814 -23.4724
-26.2333 12.4814 -25.0024
-26.2333 12.4814 -38.0721
-20.6813 -17.3 -23.4724
-20.6813 -17.3 -25.0024
-22.5453 25.9313 52.5625
-23.4316 9.36842 52.5625
-25.08 11.2 52.5625
-20.6813 -17.3 -38.0721
-20.6813 -17.3 -39.6022
23.9787 14.0427 -52.6625
11.2997 14.6855 18.7964
5.35263 12.0688 18.7964
20.3417 -4.98895 4.19755
25.7716 10.4568 -10.4025
13.0379 17.9068 -25.0024
13.0379 17.9068 -23.4724
22.069 -3.515 -23.4724
-3.6147 15.1513 18.7964
-6.57927 20.8524 18.7964
-2.01809 14.6025 18.7964
12.5763 15.6865 18.7965
5.32254 -7.11657 4.19755
5.32254 -7.11657 -8.87251
-0.280963 -12.1111 4.19755
-0.280963 -12.1111 -8.87251
-16.3246 4.19969 33.3975
-16.3246 4.19969 20.3275
-21.1613 7.71734 33.3975
-21.1613 7.71734 20.3275
-16.0927 2.97276 33.3975
-16.0927 2.97276 20.3275
24.5922 -1.36189 -10.4025
24.5922 -1.36189 -23.4724
-16.6841 6.10147 20.3275
17.6873 -7.25395 -10.4025
23.9787 14.0427 -10.4025
27.1 7.8 -10.4025
27.1 4.22 -10.4025
25.4966 -0.590174 -10.4025
-17.5208 -3.33691 -50.6925
-23.8834 8.89888 -50.6925
-21.0814 -15.1542 -50.6925
18.4216 -4.91784 52.5625
-21.0814 -15.1542 4.19755
-21.0814 -15.1542 -8.87251
-12.24 -27.78 -10.4025
-12.24 -27.78 -8.87251
-16.52 -25.64 -8.87251
-16.52 -25.64 -10.4025
-21.0814 -15.1542 -10.4025
-9.11617 25.7311 18.7965
-20.6813 -17.3 -52.6625
-19.3967 -11.6246 -52.6625
-20.6813 -17.3 -50.6925
-20.6813 -17.3 -8.87251
-20.6813 -17.3 4.19755
22.069 -3.515 33.3975
13.0379 17.9068 33.3975
23.9787 14.0427 33.3975
27.1 7.8 33.3975
27.1 4.22 33.3975
25.4966 -0.590174 33.3975
18.1518 16.1006 33.3975
-16.4107 1.5675 -50.6925
-26.2333 12.4814 -52.6625
-22.5387 8.37638 -52.6625
-27.1 13.4444 33.3975
-22.3079 8.11988 33.3975
-22.3079 8.11988 34.9275
-27.1 13.4444 34.9275
14.4036 -4.76902 52.5625
-25.6638 22.6486 33.3975
-25.6638 22.6486 34.9275
-21.6285 26.8963 34.9275
-21.6285 26.8963 33.3975
-16.0927 2.97276 -50.6925
-16.0927 2.97276 -52.6625
-21.0814 -15.1542 5.72654
-19.6927 -12.9324 5.72654
-19.6927 -12.9324 18.7963
13.7776 15.7757 18.7965
16.1349 16.8129 5.72666
-27.1 16.765 34.9275
-27.1 16.765 33.3975
-20.6479 27.0714 33.3975
-21.6285 26.8963 -23.4724
-19.851 -21.7538 4.19755
-16.52 -25.64 4.19755
-19.851 -21.7538 5.72652
-20.7818 27.78 33.3975
-20.7818 27.78 34.9275
-26.68 19.6 -23.4724
-26.68 19.6 -25.0024
-25.6638 22.6486 -23.4724
-27.0698 16.9687 -25.0024
-27.0698 16.9687 -23.4724
-21.6285 26.8963 -25.0024
-20.6479 27.0714 -25.0024
-20.6479 27.0714 -23.4724
-20.7818 27.78 -25.0024
-20.7818 27.78 -23.4724
-10.2796 -27.78 -23.4724
-10.2796 -27.78 -25.0024
-19.851 -21.7538 -25.0024
-19.851 -21.7538 -10.4025
-19.851 -21.7538 -8.87251
-25.6638 22.6486 -10.4025
-21.6285 26.8963 -10.4025
-21.0206 -18.7989 20.3275
-21.0206 -18.7989 18.7963
-20.6813 -17.3 18.7963
-19.3967 -11.6246 18.7964
-19.3967 -11.6246 20.3275
-9.11617 25.7311 33.3975
14.6718 17.3297 20.3275
14.6718 17.3297 33.3975
27.1 4.59297 33.3975
27.1 4.59297 20.3275
0.479403 -17.0722 -8.87251
-0.0943558 -22.4273 4.19755
0.479403 -17.0722 4.19755
19.0752 -6.06964 -23.4724
-26.68 19.6 -10.4025
-20.6813 -17.3 -10.4025
13.0379 17.9068 -38.0721
17.6873 -7.25395 -25.0024
23.9787 14.0427 -38.0721
27.1 7.8 -25.0024
23.9787 14.0427 -25.0024
27.1 4.22 -38.0721
25.4966 -0.590174 -38.0721
25.4966 -0.590174 -25.0024
27.1 4.22 -25.0024
-12.24 -27.78 -50.6925
-12.24 -27.78 -39.6022
-16.52 -25.64 -39.6022
-16.52 -25.64 -50.6925
27.1 4.22 -52.6625
25.4966 -0.590174 -52.6625
25.7716 10.4568 -23.4724
-4.55624 1.88751 52.5625
-4.55624 1.88751 34.9275
13.0379 17.9068 52.5625
-27.0698 16.9687 -10.4025
-20.6813 -17.3 5.72653
-20.6479 27.0714 -10.4025
-20.7818 27.78 -10.4025
-10.2796 -27.78 -8.87251
-10.2796 -27.78 -10.4025
-26.2333 12.4814 -10.4025
-12.24 -27.78 -52.6625
-16.52 -25.64 -52.6625
-19.851 -21.7538 -52.6625
-19.851 -21.7538 -50.6925
-25.6638 22.6486 -52.6625
-21.6285 26.8963 -52.6625
-26.68 19.6 -52.6625
-27.0698 16.9687 -52.6625
-20.6479 27.0714 -52.6625
-20.7818 27.78 -52.6625
-10.2796 -27.78 -50.6925
-10.2796 -27.78 -52.6625
17.6873 -7.25395 -23.4724
23.9787 14.0427 -23.4724
27.1 7.8 -23.4724
-20.0772 -20.5405 18.7963
-18.68 -23.12 18.7963
-18.68 -23.12 20.3275
-12.24 -27.78 -38.0721
27.1 4.22 20.3275
-18.68 -23.12 34.9275
-18.68 -23.12 33.3975
-12.24 -27.78 33.3975
-12.24 -27.78 34.9275
-16.52 -25.64 34.9275
-16.52 -25.64 33.3975
19.0752 -6.06964 4.19755
-22.3079 8.11988 20.3275
-22.3079 8.11988 52.5625
-27.1 13.4444 52.5625
-16.6841 6.10147 18.7964
-12.24 -27.78 18.7963
-12.24 -27.78 20.3275
-16.52 -25.64 20.3275
-16.52 -25.64 18.7963
-27.1 16.765 18.7964
-20.6479 27.0714 -38.0721
-21.0206 -18.7989 33.3975
-14.9174 27.78 -38.0721
-19.3967 -11.6246 33.3975
-20.7818 27.78 -38.0721
-21.6285 26.8963 -38.0721
-25.6638 22.6486 -38.0721
-19.851 -21.7538 -38.0721
-26.68 19.6 -38.0721
-27.0698 16.9687 -38.0721
-19.851 -21.7538 -23.4724
-23.6807 8.82012 -38.0721
-17.7049 6.49815 -38.0721
-16.6841 6.10147 -38.0721
-15.2072 5.52764 -38.0721
-4.93995 1.53815 -38.0721
24.5922 -1.36189 -38.0721
-25.6638 22.6486 -25.0024
-10.2796 -27.78 34.9275
-10.2796 -27.78 33.3975
-26.68 19.6 33.3975
-18.1869 -10.5231 18.7964
-6.36717 -27.78 18.7963
-10.2796 -27.78 18.7963
-10.2796 -27.78 20.3275
-14.9174 27.78 -10.4025
-14.2237 -6.91461 -8.87251
-25.6638 22.6486 52.5625
-21.6285 26.8963 52.5625
-6.36717 -27.78 33.3975
-14.9174 27.78 33.3975
-16.6841 6.10147 -39.8489
-16.6841 6.10147 -36.46
-26.68 19.6 52.5625
-26.68 19.6 34.9275
-16.0927 2.97276 5.72659
-14.6203 -4.81648 5.72657
-27.1 16.765 52.5625
-10.2796 -27.78 -39.6022
18.7933 -6.3102 33.3975
27.1 0.778023 -38.0721
-6.36717 -27.78 -38.0721
-6.36717 -27.78 -8.87251
-6.36717 -27.78 -39.6022
27.1 0.778023 -39.6022
25.4966 -0.590174 18.7964
18.7933 -6.3102 20.3275
-6.36717 -27.78 20.3275
14.6718 17.3297 18.7965
14.6718 17.3297 5.72666
-17.8115 -10.1812 -8.87251
-5.481 15.7929 18.7964
-7.51557 25.1658 5.72666
-20.7818 27.78 52.5625
-16.693 6.14855 52.5625
24.5922 -1.36189 -25.0024
-0.0943558 -22.4273 -23.4724
1.13887 -21.375 -23.4724
-12.24 -27.78 4.19755
-10.2796 -27.78 4.19755
-6.36717 -27.78 4.19755
-6.36717 -27.78 5.72652
-14.6203 -4.81648 18.7964
-16.0927 2.97276 18.7964
25.4966 -0.590174 -23.4724
27.1 4.22 -23.4724
23.9787 14.0427 18.7965
27.1 7.8 18.7964
27.1 7.8 20.3275
-14.9174 27.78 -23.4724
23.9787 14.0427 20.3275
-14.9174 27.78 -25.0024
-12.24 -27.78 5.72651
27.1 4.22 18.7964
25.4966 -0.590174 20.3275
-16.52 -25.64 5.72651
22.069 -3.515 18.7964
19.0752 -6.06964 18.7964
27.1 12.9403 -39.6022
27.1 12.9403 -38.0721
-12.24 -27.78 -25.0024
-21.0206 -18.7989 34.9275
-16.52 -25.64 -25.0024
-16.52 -25.64 -38.0721
-19.3967 -11.6246 34.9275
-19.851 -21.7538 -39.6022
-10.2796 -27.78 5.72651
-6.36717 -27.78 -50.6925
-6.36717 -27.78 -52.6625
-12.24 -27.78 -23.4724
-16.52 -25.64 -23.4724
-14.9174 27.78 -52.6625
27.1 12.9403 -52.6625
27.1 12.9403 -50.6925
-10.2796 -27.78 -38.0721
27.1 4.22 52.5625
18.7933 -6.3102 34.9275
27.1 7.8 52.5625
-6.36717 -27.78 -23.4724
-14.9174 27.78 52.5625
23.9787 14.0427 52.5625
-6.36717 -27.78 -25.0024
-27.1 13.4444 18.7964
22.069 -3.515 20.3275
1.13887 -21.375 4.19755
22.069 -3.515 52.5625
16.7064 -5.57753 52.5625
-6.36717 -27.78 34.9275
-6.36717 -27.78 -10.4025
-14.9174 27.78 34.9275
-20.6479 27.0714 34.9275
25.4966 -0.590174 52.5625
-20.6479 27.0714 52.5625
-19.851 -21.7538 18.7963
4  169 168 184 198  255 0 0
4  169 146 130 168  0 178 255
4  169 382 145 146  0 178 255
4  548 146 145 445  255 76 0
4  548 627 422 421  255 76 0
4  548 421 130 146  255 76 0
5  548 445 177 1 627  255 76 0
4  547 537 536 625  0 102 255
4  547 625 248 247  0 102 255
4  80 81 30 29  127 0 255
4  80 198 184 81  255 229 0
14  80 79 78 77 76 75 74 208 207 413 567 570 199 198  255 229 0
4  169 198 199 382  255 0 0
4  543 478 432 587  255 0 229
4  587 432 431 589  255 0 229
5  587 347 495 367 543  255 0 229
4  627 617 571 422  255 76 0
4  627 1 183 617  255 76 0
8  625 536 237 218 179 250 249 248  0 102 255
4  589 431 522 520  255 0 229
4  520 522 100 99  0 25 255
4  597 324 121 458  0 25 255
4  520 456 346 589  255 0 229
4  29 30 478 543  255 0 229
4  29 28 79 80  127 0 255
4  565 542 537 547  0 102 255
4  565 547 247 246  0 102 255
4  49 50 491 609  204 0 255
10  596 321 117 116 562 558 461 122 324 597  0 25 255
4  99 100 50 49  50 0 255
4  611 320 65 66  204 0 255
4  596 119 118 321  0 25 255
4  49 67 120 99  50 0 255
4  560 479 577 578  203 255 0
4  578 577 604 579  255 153 0
4  560 578 451 325  203 255 0
7  617 183 181 472 572 630 571  255 76 0
4  614 248 249 3  255 0 76
4  614 301 302 557  255 0 76
4  614 3 4 301  255 0 76
4  616 433 480 626  51 255 0
4  626 480 479 560  51 255 0
4  616 626 326 574  51 255 0
4  540 541 542 565  0 102 255
4  579 604 541 540  255 153 0
4  579 540 238 187  255 153 0
4  559 612 434 619  51 255 0
4  619 434 433 616  51 255 0
3  558 462 461  0 25 255
4  559 619 457 263  51 255 0
4  605 492 556 561  51 255 0
4  561 556 612 559  51 255 0
3  562 116 115  0 25 255
4  605 561 113 60  51 255 0
4  577 576 590 604  255 153 0
4  479 378 576 577  203 255 0
4  81 68 16 30  127 0 255
4  604 590 513 541  255 153 0
4  541 513 514 542  0 102 255
4  168 156 186 184  255 0 0
4  591 153 152 211  0 255 25
6  211 152 210 72 71 69  255 229 0
4  212 213 594 563  0 255 25
4  591 211 212 563  0 255 25
10  609 491 490 266 221 265 470 469 610 341  204 0 255
6  610 469 63 64 320 611  204 0 255
4  611 66 341 610  204 0 255
5  609 341 66 67 49  204 0 255
4  606 493 492 605  51 255 0
5  606 265 221 222 493  51 255 0
4  606 605 60 265  51 255 0
4  156 167 197 186  255 0 0
4  163 162 192 193  255 0 0
4  163 193 194 164  255 0 0
4  194 195 165 164  255 0 0
4  197 167 166 196  255 0 0
4  165 195 196 166  255 0 0
5  420 476 442 497 631  255 153 0
3  631 497 498  255 153 0
5  631 498 516 593 420  255 153 0
9  543 367 23 24 25 26 27 28 29  255 0 229
8  597 458 456 520 99 120 119 596  0 25 255
4  69 71 19 17  127 0 255
5  17 19 20 368 369  255 0 229
4  47 46 96 97  127 0 255
4  69 17 47 97  127 0 255
4  74 75 24 23  127 0 255
4  20 19 71 72  127 0 255
4  74 23 22 73  127 0 255
5  72 73 22 21 20  127 0 255
4  584 329 207 208  0 255 102
4  210 152 153 585  0 255 102
4  585 153 449 586  255 0 76
4  584 208 209 308  0 255 102
4  585 308 209 210  0 255 102
4  238 595 215 187  0 255 25
4  512 581 553 190  0 255 178
7  190 553 233 232 251 191 172  0 255 255
4  593 516 513 590  255 153 0
4  589 346 347 587  255 0 229
6  241 327 292 450 356 240  51 255 0
4  245 508 94 244  255 229 0
4  241 240 44 314  255 0 229
6  245 244 355 452 291 622  255 153 0
4  92 93 43 42  127 0 255
4  42 43 242 354  51 255 0
4  92 353 243 93  255 153 0
4  92 42 354 353  255 0 152
3  251 192 191  255 229 0
4  512 190 172 158  0 255 178
5  557 302 388 621 564  255 0 76
4  557 247 248 614  255 0 76
4  564 246 247 557  255 0 76
4  542 514 504 537  0 102 255
4  537 504 505 536  0 102 255
4  129 141 261 173  255 76 0
3  129 365 141  0 255 178
4  173 260 365 129  0 255 178
4  515 499 503 507  0 102 255
4  515 507 504 514  0 102 255
4  503 499 284 283  0 102 255
4  235 362 361 236  0 255 178
4  235 236 521 444  0 102 255
6  578 579 187 245 622 451  255 153 0
10  187 215 214 213 212 97 96 344 508 245  255 229 0
4  68 82 31 16  127 0 255
4  480 377 378 479  51 255 0
4  433 607 377 480  51 255 0
4  478 477 430 432  255 0 229
4  174 262 264 572  255 76 0
4  174 473 218 259  0 255 178
4  572 472 473 174  255 76 0
12  572 264 258 337 338 511 555 551 545 336 546 630  255 76 0
4  571 630 628 422  255 76 0
4  148 554 580 126  0 255 178
4  232 233 410 409  255 153 0
3  148 234 554  0 255 255
4  148 126 539 234  255 153 0
4  153 591 501 449  255 0 76
6  570 567 205 202 201 200  255 229 0
4  185 201 349 569  0 255 25
3  569 349 350  255 0 76
4  176 566 446 144  255 0 76
4  176 382 282 175  0 178 255
3  570 200 199  255 229 0
3  185 200 201  255 229 0
6  176 175 306 307 352 566  255 0 76
4  569 350 200 185  255 0 0
4  567 413 206 205  255 229 0
4  155 343 203 154  0 255 25
3  154 203 204  255 229 0
4  566 277 278 446  255 0 76
3  155 342 343  255 0 76
4  566 352 412 277  255 0 76
4  155 154 204 342  0 255 102
4  540 565 246 238  0 102 255
9  564 621 592 563 594 316 595 238 246  255 0 76
4  561 559 263 113  51 255 0
8  558 562 115 114 113 263 534 462  0 25 255
4  14 353 354 12  255 0 152
4  327 325 290 292  51 255 0
5  12 354 242 240 356  51 255 0
5  14 355 244 243 353  255 153 0
4  622 291 289 451  255 153 0
4  14 12 356 355  203 255 0
4  86 87 36 35  127 0 255
4  86 35 34 85  127 0 255
6  619 616 574 575 494 457  51 255 0
4  477 439 417 430  255 0 229
4  630 546 405 628  255 76 0
4  626 560 325 326  51 255 0
4  327 241 366 328  51 255 0
4  241 314 315 366  255 0 229
4  612 500 598 434  51 255 0
4  434 598 607 433  51 255 0
4  431 429 518 522  255 0 229
4  429 428 523 518  255 0 229
4  173 261 262 174  255 76 0
4  556 466 500 612  51 255 0
4  492 465 466 556  51 255 0
4  100 98 48 50  50 0 255
4  475 481 331 427  255 0 229
4  475 427 423 454  255 0 229
4  414 401 398 415  255 76 0
4  555 511 401 414  255 76 0
4  555 414 552 551  255 76 0
4  552 404 545 551  255 76 0
4  405 546 336 268  255 76 0
4  545 404 268 336  255 76 0
4  130 128 156 168  0 178 255
8  126 580 581 512 365 358 362 235  0 255 178
4  421 416 128 130  255 76 0
4  416 406 131 128  255 76 0
4  135 136 620 517  0 178 255
4  415 398 136 135  255 76 0
4  415 135 134 538  255 76 0
4  134 133 403 538  255 76 0
4  131 406 267 132  255 76 0
4  403 133 132 267  255 76 0
4  426 332 333 527  255 0 229
4  426 527 526 424  255 0 229
4  34 33 84 85  127 0 255
4  31 82 83 32  127 0 255
4  84 33 32 83  127 0 255
4  437 386 387 418  203 255 0
4  418 419 379 437  203 255 0
9  536 505 506 502 599 287 285 602 237  0 102 255
4  174 259 260 173  0 255 178
6  236 361 357 260 259 237  0 255 178
4  526 524 535 424  255 0 229
4  523 428 269 318  255 0 229
4  535 524 318 269  255 0 229
4  98 101 51 48  50 0 255
4  105 106 56 55  50 0 255
4  105 55 54 104  50 0 255
4  54 53 103 104  50 0 255
4  51 101 102 52  50 0 255
4  103 53 52 102  50 0 255
4  423 425 438 454  255 0 229
4  417 439 319 270  255 0 229
4  438 425 270 319  255 0 229
4  528 334 455 436  51 255 0
4  436 380 608 528  51 255 0
4  525 339 335 435  51 255 0
4  435 600 601 525  51 255 0
8  232 409 476 420 418 387 375 231  255 153 0
4  251 232 231 88  0 255 255
6  193 192 251 88 87 86  255 229 0
4  519 283 284 440  0 102 255
4  521 286 276 444  0 102 255
4  440 280 288 519  0 102 255
4  128 131 167 156  0 178 255
4  517 620 162 163  0 178 255
5  135 517 163 164 134  0 178 255
4  133 134 164 165  0 178 255
4  167 131 132 166  0 178 255
4  133 165 166 132  0 178 255
4  499 515 516 498  0 102 255
4  516 515 514 513  0 102 255
4  141 360 359 261  255 76 0
4  141 140 509 360  255 76 0
4  141 365 512 158  0 255 178
4  510 264 262 400  255 76 0
5  400 262 261 359 399  255 76 0
3  510 258 264  255 76 0
4  511 338 274 401  255 76 0
4  510 400 257 258  255 76 0
4  507 503 502 506  0 102 255
4  140 141 158 159  0 178 255
4  399 359 360 509  255 76 0
5  398 273 138 137 136  255 76 0
4  399 509 140 256  255 76 0
4  140 139 271 256  255 76 0
4  314 293 294 315  255 0 229
4  508 344 95 94  255 229 0
4  314 44 45 293  255 0 229
4  507 506 505 504  0 102 255
5  502 503 283 519 599  0 102 255
3  237 259 218  0 255 178
4  236 237 602 521  0 102 255
4  27 26 77 78  127 0 255
4  78 79 28 27  127 0 255
4  613 615 8 7  127 255 0
5  7 8 391 448 392  255 0 76
4  6 5 623 629  127 255 0
12  629 623 374 624 402 180 181 474 618 322 615 613  127 255 0
4  613 7 6 629  127 255 0
4  618 474 11 10  127 255 0
6  10 11 389 447 394 390  255 0 76
4  618 10 9 322  127 255 0
4  615 322 9 8  127 255 0
4  393 388 5 6  255 0 76
4  392 448 449 501  255 0 76
4  592 621 388 393  255 0 76
4  392 501 592 393  255 0 76
4  390 394 330 588  255 0 76
4  588 330 329 584  255 0 76
4  586 449 448 391  255 0 76
4  390 588 312 311  255 0 76
4  391 311 312 586  255 0 76
4  485 385 340 603  51 255 0
4  603 467 468 485  51 255 0
4  379 419 576 378  203 255 0
4  608 380 377 607  51 255 0
4  184 186 68 81  255 229 0
4  595 316 214 215  0 255 25
4  601 600 598 500  51 255 0
4  382 176 144 145  0 178 255
4  350 306 175 282  0 178 255
5  350 282 382 199 200  255 0 0
4  497 442 279 441  0 102 255
6  440 284 499 498 497 441  0 102 255
5  126 235 444 443 539  0 102 255
4  369 368 496 583  255 0 229
4  583 496 459 464  255 0 229
4  582 364 363 370  255 0 229
5  370 363 313 46 47  255 0 229
4  369 583 582 370  255 0 229
4  495 347 346 460  255 0 229
4  367 495 310 309  255 0 229
4  368 345 471 496  255 0 229
4  366 315 453 494  255 0 229
4  494 575 328 366  51 255 0
9  494 453 317 348 364 582 463 573 457  255 0 229
4  55 56 396 489  204 0 255
4  493 482 465 492  51 255 0
9  493 222 304 384 297 383 484 483 482  51 255 0
4  50 48 490 491  204 0 255
9  490 487 281 486 488 489 396 397 266  204 0 255
4  48 51 487 490  204 0 255
4  55 489 488 54  204 0 255
4  53 54 488 486  204 0 255
4  487 51 52 281  204 0 255
4  53 486 281 52  204 0 255
4  484 383 385 485  51 255 0
4  485 468 483 484  51 255 0
4  483 468 465 482  51 255 0
5  266 408 305 222 221  0 255 178
4  58 407 408 266  0 255 178
4  239 56 106 107  50 0 255
5  239 225 224 371 372  0 255 255
4  58 57 395 407  0 255 255
4  239 372 57 56  50 0 255
4  58 266 397 57  204 0 255
3  217 303 223  0 255 255
4  222 305 303 217  0 255 178
4  225 373 298 224  51 255 0
4  225 239 107 226  0 255 255
4  222 217 223 304  51 255 0
4  253 331 481 252  255 0 229
4  252 229 216 253  0 255 255
6  35 36 37 252 481 475  255 0 229
8  436 455 381 229 230 376 386 437  51 255 0
4  30 16 477 478  255 0 229
4  16 31 439 477  255 0 229
4  254 228 227 255  0 255 255
4  255 333 332 254  255 0 229
4  159 158 172 191  255 0 0
6  162 161 160 159 191 192  255 0 0
4  233 234 539 443  255 153 0
3  476 409 410  255 153 0
5  442 476 410 411 275  255 153 0
4  443 411 410 233  255 153 0
4  26 25 76 77  127 0 255
4  37 36 87 88  127 0 255
4  37 230 229 252  0 255 255
4  88 231 230 37  0 255 255
4  231 375 376 230  203 255 0
4  352 342 204 205  0 255 102
3  329 277 412  255 0 76
4  205 204 203 202  255 229 0
3  207 206 413  255 229 0
4  329 412 206 207  0 255 102
4  352 205 206 412  0 255 102
4  35 475 454 34  255 0 229
4  474 183 1 11  127 255 0
4  473 0 179 218  0 255 178
4  11 1 177 389  255 0 76
4  472 180 0 473  255 76 0
3  472 181 180  255 76 0
3  474 181 183  127 255 0
3  5 301 4  255 0 76
4  3 2 402 624  127 255 0
4  624 374 4 3  127 255 0
4  5 4 374 623  127 255 0
4  186 197 82 68  255 229 0
4  193 86 85 194  255 229 0
4  195 194 85 84  255 229 0
4  345 309 310 471  255 0 229
4  62 61 114 115  50 0 255
5  470 265 60 61 62  204 0 255
4  63 469 470 62  204 0 255
4  468 467 466 465  51 255 0
4  464 459 122 461  255 0 229
4  462 534 573 463  255 0 229
4  464 461 462 463  255 0 229
4  460 346 456 458  255 0 229
3  122 121 324  0 25 255
4  460 458 121 323  255 0 229
4  459 323 121 122  255 0 229
4  457 573 534 263  255 0 229
4  229 381 299 216  51 255 0
4  334 299 381 455  51 255 0
4  228 300 295 227  51 255 0
4  339 295 300 335  51 255 0
3  46 293 45  255 0 229
4  44 18 70 94  127 0 255
5  94 70 93 243 244  255 229 0
3  96 95 344  255 229 0
4  94 95 45 44  127 0 255
4  46 45 95 96  127 0 255
4  33 34 454 438  255 0 229
4  315 294 317 453  255 0 229
4  452 355 356 450  203 255 0
4  325 327 328 326  51 255 0
3  450 292 290  51 255 0
3  452 289 291  255 153 0
4  452 450 290 289  203 255 0
4  451 289 290 325  203 255 0
5  144 446 447 389 177  255 0 76
4  177 445 145 144  255 76 0
5  446 278 330 394 447  255 0 76
5  444 276 275 411 443  0 102 255
5  442 275 276 280 279  0 102 255
4  441 279 280 440  0 102 255
6  439 31 32 33 438 319  255 0 229
4  437 379 380 436  51 255 0
4  334 528 435 335  51 255 0
4  216 299 300 228  51 255 0
4  253 216 228 254  0 255 255
4  331 253 254 332  255 0 229
4  427 331 332 426  255 0 229
4  335 300 299 334  51 255 0
4  432 430 429 431  255 0 229
4  430 417 428 429  255 0 229
4  427 426 424 423  255 0 229
4  425 423 424 535  255 0 229
4  211 69 97 212  255 229 0
6  208 74 73 72 210 209  255 229 0
4  422 628 416 421  255 76 0
6  82 197 196 195 84 83  255 229 0
4  420 593 419 418  255 153 0
4  280 276 286 288  0 102 255
4  428 417 270 269  255 0 229
4  425 535 269 270  255 0 229
4  528 608 600 435  51 255 0
4  388 302 301 5  255 0 76
4  213 214 316 594  0 255 25
4  249 250 2 3  255 0 76
4  600 608 607 598  51 255 0
5  136 137 161 162 620  0 178 255
4  140 159 160 139  0 178 255
4  628 405 406 416  255 76 0
4  414 415 538 552  255 76 0
4  404 552 538 403  255 76 0
4  419 593 590 576  255 153 0
4  339 525 603 340  51 255 0
4  227 295 296 226  51 255 0
4  255 227 226 107  0 255 255
4  333 255 107 106  0 25 255
4  527 333 106 105  0 25 255
4  522 518 98 100  0 25 255
4  518 523 101 98  0 25 255
4  527 105 104 526  0 25 255
4  524 526 104 103  0 25 255
6  101 523 318 524 103 102  0 25 255
4  525 601 467 603  51 255 0
4  467 601 500 466  51 255 0
4  602 285 286 521  0 102 255
4  288 286 285 287  0 102 255
4  519 288 287 599  0 102 255
5  240 242 43 18 44  255 0 229
4  277 329 330 278  255 0 76
4  116 117 64 63  50 0 255
4  116 63 62 115  50 0 255
3  117 321 118  0 25 255
4  119 120 67 66  50 0 255
3  64 65 320  204 0 255
4  119 66 65 118  50 0 255
4  117 118 65 64  50 0 255
4  113 114 61 60  50 0 255
4  75 76 25 24  127 0 255
4  501 591 563 592  255 0 76
6  588 584 308 585 586 312  255 0 76
6  224 223 303 407 395 371  0 255 255
4  407 303 305 408  0 255 178
4  384 304 223 224  51 255 0
4  406 405 268 267  255 76 0
4  404 403 267 268  255 76 0
4  250 179 0 2  255 0 76
4  2 0 180 402  127 255 0
4  401 274 273 398  255 76 0
4  400 399 256 257  255 76 0
4  57 372 371 395  0 255 255
4  56 57 397 396  204 0 255
4  70 18 43 93  127 0 255
4  583 464 463 582  255 0 229
7  495 460 323 459 496 471 310  255 0 229
4  553 554 234 233  0 255 255
4  581 580 554 553  0 255 178
4  575 574 326 328  51 255 0
4  226 296 373 225  51 255 0
4  385 373 296 340  51 255 0
4  340 296 295 339  51 255 0
3  385 298 373  51 255 0
4  7 392 393 6  255 0 76
6  10 390 311 391 8 9  255 0 76
4  386 376 375 387  203 255 0
4  385 383 297 298  51 255 0
4  224 298 297 384  51 255 0
4  380 379 378 377  51 255 0
4  17 369 370 47  255 0 229
6  23 367 309 345 21 22  255 0 229
4  20 21 345 368  255 0 229
4  260 357 358 365  0 255 178
4  364 348 313 363  255 0 229
4  362 358 357 361  0 255 178
4  351 349 201 202  0 255 25
5  351 343 342 352 307  255 0 76
4  202 203 343 351  0 255 25
5  351 307 306 350 349  255 0 76
4  348 317 294 313  255 0 229
4  313 294 293 46  255 0 229
4  274 272 271 273  255 76 0
4  338 337 272 274  255 76 0
4  272 257 256 271  255 76 0
4  337 258 257 272  255 76 0
5  138 139 160 161 137  0 178 255
4  273 271 139 138  255 76 0
3  107 239 108  0 255 255
3  239 107 108  50 0 255
4  255 107 108 529  0 255 255
4  107 255 529 108  0 25 255
7  254 255 529 38 37 252 253  0 255 255
7  255 254 253 252 37 38 529  255 0 229
4  88 37 38 89  0 255 255
4  37 88 89 38  127 0 255
6  251 88 89 190 172 191  0 255 255
6  88 251 191 172 190 89  255 229 0
8  250 179 127 238 246 247 248 249  0 102 255
4  218 179 127 125  0 255 178
8  250 249 248 247 246 238 127 179  255 0 76
3  187 238 188  255 153 0
3  238 187 188  0 255 25
7  245 187 188 92 93 243 244  255 153 0
7  187 245 244 243 93 92 188  255 229 0
3  42 92 41  255 0 152
3  92 42 41  127 0 255
11  43 42 220 533 263 457 494 366 241 240 242  51 255 0
11  42 43 242 240 241 366 494 457 263 533 220  255 0 229
4  113 263 533 112  51 255 0
4  263 113 112 533  0 25 255
4  60 113 112 59  51 255 0
4  113 60 59 112  50 0 255
4  265 60 59 221  51 255 0
4  60 265 221 59  204 0 255
4  266 221 59 58  0 255 178
4  266 58 59 221  204 0 255
5  57 58 549 239 372  0 255 255
5  58 57 372 239 549  50 0 255
3  190 89 90  0 255 255
3  239 108 109  50 0 255
3  239 109 108  0 255 255
4  239 109 110 549  50 0 255
4  92 41 13 15  127 0 255
4  239 549 110 109  0 255 255
4  42 220 219 41  255 0 229
6  92 188 178 189 91 15  255 153 0
4  238 188 178 127  0 255 25
5  58 59 112 111 549  0 255 178
5  59 58 549 111 112  50 0 255
4  220 42 41 219  51 255 0
3  220 532 533  0 255 178
5  220 532 531 550 219  255 0 229
4  219 41 13 40  51 255 0
5  219 550 531 532 220  0 255 178
4  219 550 39 40  255 0 229
3  220 533 532  255 0 229
4  219 40 39 550  0 255 178
4  218 125 127 179  0 102 255
4  219 40 13 41  255 0 229
6  237 218 124 126 235 236  0 255 178
6  218 237 236 235 126 124  0 102 255
3  148 126 124  0 255 178
3  126 148 124  255 153 0
6  234 148 151 231 232 233  0 255 255
6  148 234 233 232 231 151  255 153 0
4  230 231 151 568  0 255 255
4  231 230 568 151  203 255 0
4  229 230 568 216  0 255 255
4  230 229 216 568  51 255 0
10  228 216 568 544 217 223 224 225 226 227  0 255 255
10  216 228 227 226 225 224 223 217 544 568  51 255 0
10  222 217 149 40 219 220 533 112 59 221  0 255 178
10  217 222 221 59 112 533 220 219 40 149  51 255 0
3  218 125 123  0 255 178
5  148 124 123 150 147  0 255 178
3  218 124 123  0 102 255
3  218 123 124  0 255 178
3  218 123 125  0 102 255
3  217 149 544  51 255 0
3  148 151 147  255 153 0
6  188 92 15 91 189 178  255 229 0
4  188 238 127 178  255 153 0
4  189 125 127 178  0 255 178
4  189 91 90 190  255 229 0
5  189 91 150 123 125  0 255 178
5  189 125 123 150 91  255 153 0
4  189 178 127 125  255 153 0
4  189 190 90 91  0 255 178
8  215 187 154 152 211 212 213 214  255 229 0
8  187 215 214 213 212 211 152 154  0 255 25
9  210 152 154 204 205 206 207 208 209  255 229 0
9  152 210 209 208 207 206 205 204 154  0 255 102
6  203 154 187 185 201 202  255 229 0
6  154 203 202 201 185 187  0 255 25
5  200 185 184 198 199  255 229 0
5  185 200 199 198 184  255 0 0
4  186 184 185 182  255 229 0
4  184 186 182 185  255 0 0
11  197 186 182 171 172 191 192 193 194 195 196  255 229 0
11  186 197 196 195 194 193 192 191 172 171 182  255 0 0
5  190 172 171 178 189  255 229 0
5  190 189 178 171 172  0 255 178
5  188 178 171 182 187  255 229 0
5  188 187 182 171 178  0 255 25
3  185 187 182  255 229 0
3  187 185 182  0 255 25
3  0 179 170  255 0 76
3  179 0 170  0 255 178
5  180 0 1 183 181  127 255 0
5  0 180 181 183 1  255 76 0
3  177 1 0  255 0 76
3  1 177 0  255 76 0
5  144 177 0 170 143  255 0 76
5  177 144 143 170 0  255 76 0
7  176 144 143 569 350 306 175  255 0 76
7  144 176 175 306 350 569 143  0 178 255
5  185 569 157 171 182  0 255 25
5  569 185 182 171 157  255 0 0
4  178 171 157 127  0 255 25
5  179 127 157 142 170  255 0 76
4  178 127 157 171  0 255 178
4  569 143 142 157  255 0 76
5  179 170 142 157 127  0 255 178
3  170 143 142  255 76 0
3  170 142 143  255 0 76
5  473 0 129 173 174  255 76 0
5  0 473 174 173 129  0 255 178
3  141 129 158  0 178 255
3  129 141 158  0 255 178
4  172 158 157 171  255 0 0
4  158 172 171 157  0 255 178
4  170 142 129 0  255 76 0
4  170 0 129 142  0 255 178
4  158 129 142 157  0 178 255
4  129 158 157 142  0 255 178
4  157 142 143 569  0 178 255
8  595 238 155 153 591 563 594 316  0 255 25
8  238 595 316 594 563 591 153 155  255 0 76
9  585 153 155 342 352 412 329 584 308  0 255 102
9  153 585 308 584 329 412 352 342 155  255 0 76
8  343 155 238 127 157 569 349 351  0 255 25
8  155 343 351 349 569 157 127 238  255 0 76
8  569 157 156 168 169 382 282 350  255 0 0
8  157 569 350 282 382 169 168 156  0 178 255
12  167 156 157 158 159 160 161 162 163 164 165 166  255 0 0
12  156 167 166 165 164 163 162 161 160 159 158 157  0 178 255
4  155 153 152 154  0 255 102
4  153 155 154 152  0 255 25
4  151 568 544 147  203 255 0
3  151 148 147  0 255 255
5  150 123 124 148 147  255 153 0
4  150 149 40 91  203 255 0
4  150 149 544 147  0 255 178
4  91 40 13 15  203 255 0
4  91 40 39 90  127 0 255
4  91 40 149 150  0 255 178
4  92 15 13 41  255 0 152
4  91 15 13 40  127 0 255
4  150 147 544 149  203 255 0
4  151 147 544 568  0 255 255
4  353 92 15 14  255 153 0
4  92 353 14 15  255 0 152
9  355 14 419 576 577 578 451 289 452  255 153 0
9  14 355 452 289 451 578 577 576 419  203 255 0
11  418 419 14 15 91 150 147 151 231 375 387  255 153 0
11  419 418 387 375 231 151 147 150 91 15 14  203 255 0
3  149 217 544  0 255 178
4  40 91 90 39  0 255 178
5  354 42 41 13 12  255 0 152
5  42 354 12 13 41  51 255 0
9  356 12 379 378 479 560 325 290 450  203 255 0
9  12 356 450 290 325 560 479 378 379  51 255 0
11  437 379 12 13 40 149 544 568 230 376 386  203 255 0
11  379 437 386 376 230 568 544 149 40 13 12  51 255 0
3  550 530 531  0 255 255
5  550 530 529 38 39  255 0 229
3  549 111 110  0 255 178
3  550 531 530  255 0 229
3  549 110 111  50 0 255
5  550 39 38 529 530  0 255 255
3  190 90 89  255 229 0
16  554 148 147 544 217 303 407 58 549 110 531 550 39 90 190 553  0 255 178
16  148 554 553 190 90 39 550 531 110 549 58 407 303 217 544 147  0 255 255
8  146 130 128 129 142 143 144 145  255 76 0
8  130 146 145 144 143 142 129 128  0 178 255
13  141 129 128 131 132 133 134 135 136 137 138 139 140  255 76 0
13  129 141 140 139 138 137 136 135 134 133 132 131 128  0 178 255
17  541 513 516 498 497 442 275 411 443 539 126 124 123 125 127 238 540  255 153 0
17  513 541 540 238 127 125 123 124 126 539 443 411 275 442 497 498 516  0 102 255
4  530 109 108 529  0 25 255
4  530 109 110 531  0 255 255
4  529 108 109 530  0 255 255
4  531 110 109 530  0 25 255
4  531 110 111 532  0 255 178
4  533 112 111 532  0 25 255
4  532 111 110 531  0 25 255
4  532 111 112 533  0 255 178
17  462 461 518 523 318 524 526 527 333 255 529 530 531 532 533 263 534  255 0 229
17  461 462 534 263 533 532 531 530 529 255 333 527 526 524 318 523 518  0 25 255
8  522 518 461 122 121 458 456 520  255 0 229
8  518 522 520 456 458 121 122 461  0 25 255
22  120 99 98 101 102 103 104 105 106 107 108 109 110 111 112 113 114 115 116 117 118 119  0 25 255
22  99 120 119 118 117 116 115 114 113 112 111 110 109 108 107 106 105 104 103 102 101 98  50 0 255
3  100 98 99  0 25 255
3  98 100 99  50 0 255
4  90 39 38 89  127 0 255
4  89 38 39 90  0 255 255
6  97 69 70 94 95 96  255 229 0
6  69 97 96 95 94 70  127 0 255
16  93 70 69 68 82 83 84 85 86 87 88 89 90 91 15 92  255 229 0
16  70 93 92 15 91 90 89 88 87 86 85 84 83 82 68 69  127 0 255
13  81 68 69 71 72 73 74 75 76 77 78 79 80  255 229 0
13  68 81 80 79 78 77 76 75 74 73 72 71 69  127 0 255
19  67 49 48 51 52 53 54 55 56 57 58 59 60 61 62 63 64 65 66  50 0 255
19  49 67 66 65 64 63 62 61 60 59 58 57 56 55 54 53 52 51 48  204 0 255
3  50 48 49  50 0 255
3  48 50 49  204 0 255
6  47 17 18 44 45 46  127 0 255
6  17 47 46 45 44 18  255 0 229
17  43 18 17 16 31 32 33 34 35 36 37 38 39 40 13 41 42  127 0 255
17  18 43 42 41 13 40 39 38 37 36 35 34 33 32 31 16 17  255 0 229
14  30 16 17 19 20 21 22 23 24 25 26 27 28 29  127 0 255
14  16 30 29 28 27 26 25 24 23 22 21 20 19 17  255 0 229
4  15 13 12 14  203 255 0
4  13 15 14 12  255 0 152
12  11 1 0 2 3 4 5 6 7 8 9 10  127 255 0
12  1 11 10 9 8 7 6 5 4 3 2 0  255 0 76

