OFF
573 483 0

-22.5453 25.9313 33.3975
-22.5453 25.9313 34.9275
-23.4316 9.36842 18.7964
-23.4316 9.36842 20.3275
-25.7252 11.9169 18.7964
-25.7252 11.9169 20.3275
-22.5453 25.9313 -25.0024
-22.5453 25.9313 18.7964
-22.5453 25.9313 20.3275
-23.4316 9.36842 34.9275
-25.08 11.2 33.3975
-25.08 11.2 34.9275
-20.5408 -16.6791 18.7963
-20.5408 -16.6791 20.3275
16.1349 16.8129 18.7965
16.1349 16.8129 20.3275
-20.7825 -17.7469 20.3275
-20.7825 -17.7469 18.7963
-22.5453 25.9313 -52.6625
-7.11863 23.3372 18.7965
-8.32912 24.2175 18.7965
16.1349 16.8129 -8.87251
16.1349 16.8129 4.19755
-20.2829 -20.1608 33.3975
-20.2829 -20.1608 20.3275
-20.5408 -16.6791 34.9275
-20.7825 -17.7469 34.9275
0.830726 -19.3645 -8.87251
-21.0814 -15.1542 -38.0721
-21.0814 -15.1542 -39.6022
-19.6927 -12.9324 -50.6925
-19.6927 -12.9324 -52.6625
-21.0814 -15.1542 -23.4724
20.3417 -4.98895 34.9275
-14.6203 -4.81648 -50.6925
-18.1869 -10.5231 -50.6925
-14.6203 -4.81648 -52.6625
-6.84768 22.089 18.7964
-0.5257 14.7133 18.7964
24.7778 12.4444 5.72665
24.7778 12.4444 18.7965
24.7778 12.4444 -10.4025
24.7778 12.4444 33.3975
24.7778 12.4444 20.3275
24.7778 12.4444 4.19755
24.7778 12.4444 -8.87251
-22.5453 25.9313 -50.6925
-22.5453 25.9313 -39.6022
22.069 -3.515 -8.87251
22.069 -3.515 -10.4025
19.0752 -6.06964 -8.87251
19.0752 -6.06964 -10.4025
20.3417 -4.98895 18.7964
20.3417 -4.98895 5.7266
20.3417 -4.98895 -10.4025
20.3417 -4.98895 -23.4724
-22.5453 25.9313 -38.0721
-22.5453 25.9313 -23.4724
-22.5453 25.9313 -10.4025
27.1 10.65 -50.6925
24.7778 12.4444 -39.6022
24.7778 12.4444 34.9275
27.1 10.65 -38.0721
-22.5453 25.9313 -8.87251
-22.5453 25.9313 4.19755
-0.0943558 -22.4273 -8.87251
1.13887 -21.375 -8.87251
18.1518 16.1006 18.7965
18.1518 16.1006 20.3275
-26.2333 12.4814 -38.0721
-26.2333 12.4814 -39.6022
-20.6813 -17.3 -25.0024
-22.5453 25.9313 52.5625
-25.08 11.2 52.5625
-20.6813 -17.3 -38.0721
-20.6813 -17.3 -39.6022
23.9787 14.0427 -52.6625
-21.3994 -13.448 -38.0721
-21.3994 -13.448 -39.6022
-25.6968 9.60348 -39.6022
11.2997 14.6855 5.72665
11.2997 14.6855 18.7964
5.35263 12.0688 5.72663
5.35263 12.0688 18.7964
18.4216 -4.91784 4.19755
18.4216 -4.91784 -8.87251
20.3417 -4.98895 -8.87251
25.7716 10.4568 -8.87251
13.0379 17.9068 -23.4724
27.1 10.65 -39.6022
22.069 -3.515 -23.4724
-3.6147 15.1513 18.7964
-3.6147 15.1513 5.72663
24.7778 12.4444 -25.0024
-22.5453 25.9313 5.72665
-2.01809 14.6025 5.72663
13.457 -5.61019 4.19755
5.32254 -7.11657 4.19755
13.457 -5.61019 -8.87251
5.32254 -7.11657 -8.87251
-0.280963 -12.1111 4.19755
-0.280963 -12.1111 -8.87251
15.0311 -6.22186 4.19755
15.0311 -6.22186 -8.87251
-21.1613 7.71734 20.3275
-21.1613 7.71734 33.3975
-16.3246 4.19969 33.3975
-16.0927 2.97276 20.3275
24.5922 -1.36189 -23.4724
24.5922 -1.36189 -10.4025
24.5922 -1.36189 -39.6022
24.5922 -1.36189 -50.6925
-16.6841 6.10147 20.3275
17.6873 -7.25395 20.3275
17.6873 -7.25395 33.3975
-16.6841 6.10147 33.3975
23.9787 14.0427 -10.4025
0.0994993 -20.618 4.19755
25.7716 10.4568 -10.4025
27.1 7.8 -8.87251
27.1 4.22 -10.4025
0.830726 -19.3645 4.19755
25.4966 -0.590174 -10.4025
25.4966 -0.590174 -8.87251
0.0994993 -20.618 -8.87251
27.1 4.22 -8.87251
-23.8834 8.89888 -50.6925
-17.5208 -3.33691 -50.6925
-21.0814 -15.1542 -50.6925
18.4216 -4.91784 34.9275
18.4216 -4.91784 52.5625
-21.0814 -15.1542 -25.0024
-21.0814 -15.1542 4.19755
-23.4316 9.36842 33.3975
-21.0814 -15.1542 -8.87251
-21.3994 -13.448 -23.4724
-21.3994 -13.448 -25.0024
-25.6968 9.60348 -23.4724
-25.6968 9.60348 -25.0024
-16.52 -25.64 -8.87251
-16.52 -25.64 -10.4025
-12.24 -27.78 -10.4025
-21.0814 -15.1542 -10.4025
-9.11617 25.7311 20.3275
-20.5408 -16.6791 33.3975
-19.3967 -11.6246 -52.6625
-19.3967 -11.6246 -50.6925
-20.6813 -17.3 -50.6925
-20.6813 -17.3 -8.87251
22.069 -3.515 34.9275
22.069 -3.515 33.3975
13.0379 17.9068 34.9275
13.0379 17.9068 33.3975
23.9787 14.0427 33.3975
27.1 4.22 33.3975
25.4966 -0.590174 34.9275
18.1518 16.1006 33.3975
-22.5387 8.37638 -50.6925
-16.4107 1.5675 -50.6925
-26.68 19.6 -8.87251
24.5922 -1.36189 -25.0024
24.5922 -1.36189 -38.0721
-16.52 -25.64 33.3975
-14.9174 27.78 33.3975
19.0752 -6.06964 4.19755
-0.0943558 -22.4273 -23.4724
1.13887 -21.375 -10.4025
1.13887 -21.375 -23.4724
-18.1869 -10.5231 18.7964
-18.1869 -10.5231 5.72655
-14.6203 -4.81648 5.72657
-19.3967 -11.6246 5.72655
27.1 7.8 -25.0024
23.9787 14.0427 -23.4724
-27.0698 16.9687 -8.87251
-25.6638 22.6486 -25.0024
27.1 7.8 -23.4724
25.4966 -0.590174 -25.0024
14.8671 -4.78619 -8.87251
10.9643 -4.64164 4.19755
14.8671 -4.78619 4.19755
-21.6285 26.8963 -38.0721
10.9643 -4.64164 -8.87251
-0.305212 -11.9529 -8.87251
-0.305212 -11.9529 4.19755
-22.5387 8.37638 -52.6625
27.1 7.8 -50.6925
24.7778 12.4444 -50.6925
23.9787 14.0427 -50.6925
27.1 7.8 -39.6022
-27.1 13.4444 33.3975
25.4966 -0.590174 -39.6022
-10.2796 -27.78 33.3975
-22.3079 8.11988 33.3975
27.1 0.778023 -39.6022
-22.3079 8.11988 34.9275
-27.1 13.4444 34.9275
14.4036 -4.76902 34.9275
10.9643 -4.64164 34.9275
14.6718 17.3297 18.7965
14.4036 -4.76902 52.5625
14.6718 17.3297 5.72666
-21.6285 26.8963 33.3975
-5.481 15.7929 5.72663
-25.6638 22.6486 33.3975
13.7776 15.7757 5.72665
-26.68 19.6 4.19755
-7.51557 25.1658 18.7965
-16.0927 2.97276 -52.6625
14.6718 17.3297 20.3275
-18.68 -23.12 18.7963
23.9787 14.0427 18.7965
27.1 7.8 18.7964
-16.0927 2.97276 33.3975
27.1 4.22 20.3275
20.3417 -4.98895 4.19755
-20.6479 27.0714 -50.6925
13.0379 17.9068 -50.6925
-6.36717 -27.78 -25.0024
25.7716 10.4568 -23.4724
13.0379 17.9068 -39.6022
17.6873 -7.25395 -50.6925
17.6873 -7.25395 -39.6022
1.13887 -21.375 4.19755
-26.2333 12.4814 -50.6925
23.9787 14.0427 -39.6022
-26.2333 12.4814 -52.6625
25.4966 -0.590174 -50.6925
27.1 4.22 -39.6022
-10.2796 -27.78 34.9275
27.1 4.22 -50.6925
-6.36717 -27.78 -38.0721
17.6873 -7.25395 18.7964
7.16727 11.445 5.72663
-19.6927 -12.9324 18.7963
-19.6927 -12.9324 5.72654
24.7778 12.4444 -38.0721
-21.6285 26.8963 4.19755
-21.0814 -15.1542 5.72654
-6.57927 20.8524 18.7964
-25.6638 22.6486 -8.87251
-5.481 15.7929 18.7964
13.7776 15.7757 18.7965
-2.01809 14.6025 18.7964
17.0405 -5.44905 4.19755
-19.3967 -11.6246 34.9275
-21.0206 -18.7989 34.9275
-12.24 -27.78 -39.6022
-12.24 -27.78 -38.0721
-16.52 -25.64 -38.0721
-16.52 -25.64 -39.6022
-19.851 -21.7538 -39.6022
13.0379 17.9068 -25.0024
-19.851 -21.7538 -38.0721
-25.6638 22.6486 -38.0721
-16.3246 4.19969 20.3275
-26.68 19.6 -39.6022
-21.6285 26.8963 -39.6022
-20.6479 27.0714 -39.6022
7.16727 11.445 18.7964
-25.6638 22.6486 34.9275
-20.7818 27.78 -39.6022
-21.6285 26.8963 34.9275
-20.7818 27.78 -38.0721
-26.68 19.6 -10.4025
-16.6841 6.10147 -50.6925
-27.0698 16.9687 -38.0721
-25.6968 9.60348 -38.0721
-25.6968 9.60348 -50.6925
-12.24 -27.78 4.19755
27.1 4.59297 18.7964
-16.52 -25.64 5.72651
-21.3994 -13.448 4.19755
-26.68 19.6 34.9275
-22.3079 8.11988 52.5625
-26.68 19.6 33.3975
-14.9174 27.78 34.9275
-9.11617 25.7311 5.72666
27.1 7.8 20.3275
-27.1 16.765 34.9275
-17.8569 6.5572 20.3275
-20.6479 27.0714 33.3975
-22.5387 8.37638 18.7964
-27.1 13.4444 20.3275
-27.1 13.4444 18.7964
-6.36717 -27.78 -23.4724
14.6718 17.3297 -8.87251
-20.6813 -17.3 -10.4025
-14.2237 -6.91461 34.9275
-16.52 -25.64 -23.4724
18.7933 -6.3102 34.9275
-16.52 -25.64 18.7963
15.0311 -6.22186 34.9275
-14.9174 27.78 52.5625
-4.93995 1.53815 34.9275
-4.55624 1.88751 34.9275
-26.68 19.6 18.7964
17.6873 -7.25395 -8.87251
-26.68 19.6 20.3275
22.069 -3.515 5.72661
17.6873 -7.25395 -10.4025
22.069 -3.515 18.7964
22.069 -3.515 20.3275
-27.0698 16.9687 18.7964
-21.6285 26.8963 -25.0024
-20.6479 27.0714 18.7964
-21.6285 26.8963 -23.4724
-20.6479 27.0714 5.72665
-20.7825 -17.7469 33.3975
17.6873 -7.25395 34.9275
-10.2796 -27.78 -52.6625
25.4966 -0.590174 5.72662
-19.851 -21.7538 5.72652
-27.0698 16.9687 -50.6925
-25.6638 22.6486 5.72663
-21.6285 26.8963 5.72665
-10.2796 -27.78 18.7963
-20.7818 27.78 18.7965
-20.7818 27.78 33.3975
-20.7818 27.78 34.9275
17.6873 -7.25395 5.72659
17.6873 -7.25395 4.19755
23.9787 14.0427 4.19755
-26.68 19.6 -23.4724
-26.68 19.6 -25.0024
-25.6638 22.6486 -23.4724
-27.0698 16.9687 -25.0024
-20.6479 27.0714 -25.0024
-20.7818 27.78 -25.0024
-20.7818 27.78 -23.4724
-10.2796 -27.78 -23.4724
-26.2333 12.4814 -25.0024
-14.9174 27.78 18.7965
-14.9174 27.78 4.19755
-20.6813 -17.3 -23.4724
-19.851 -21.7538 -10.4025
25.4966 -0.590174 33.3975
23.9787 14.0427 34.9275
-19.851 -21.7538 -8.87251
-21.6285 26.8963 -8.87251
-21.6285 26.8963 -10.4025
-25.6638 22.6486 -10.4025
-21.0206 -18.7989 20.3275
-19.3967 -11.6246 20.3275
-20.6813 -17.3 18.7963
-21.0206 -18.7989 18.7963
20.3417 -4.98895 33.3975
-9.11617 25.7311 33.3975
-14.2237 -6.91461 20.3275
14.6718 17.3297 33.3975
-20.7818 27.78 -50.6925
-10.2796 -27.78 -39.6022
-7.51557 25.1658 33.3975
-7.51557 25.1658 20.3275
-16.693 6.14855 52.5625
16.7064 -5.57753 52.5625
27.1 4.59297 20.3275
-20.6479 27.0714 -10.4025
27.1 4.59297 33.3975
-16.693 6.14855 33.3975
-20.6479 27.0714 -8.87251
16.7064 -5.57753 34.9275
-10.2796 -27.78 -8.87251
0.479403 -17.0722 -8.87251
-20.6479 27.0714 34.9275
0.479403 -17.0722 4.19755
-27.0698 16.9687 -10.4025
-0.0943558 -22.4273 4.19755
-26.2333 12.4814 -23.4724
18.1518 16.1006 -8.87251
-12.24 -27.78 -23.4724
19.0752 -6.06964 -23.4724
17.0405 -5.44905 -8.87251
-16.52 -25.64 4.19755
22.069 -3.515 4.19755
-12.24 -27.78 -52.6625
-18.68 -23.12 20.3275
-25.6638 22.6486 18.7964
-21.3994 -13.448 -10.4025
23.9787 14.0427 5.72665
13.0379 17.9068 -38.0721
27.1 7.8 5.72664
23.9787 14.0427 -8.87251
17.6873 -7.25395 -38.0721
17.6873 -7.25395 -25.0024
27.1 7.8 4.19755
-6.36717 -27.78 20.3275
23.9787 14.0427 -38.0721
27.1 7.8 -38.0721
-14.9174 27.78 -25.0024
25.4966 -0.590174 4.19755
23.9787 14.0427 -25.0024
27.1 4.22 -38.0721
27.1 12.9403 -38.0721
25.4966 -0.590174 -38.0721
27.1 4.22 -25.0024
27.1 12.9403 -39.6022
-14.9174 27.78 20.3275
-14.9174 27.78 -8.87251
-14.9174 27.78 -10.4025
-12.24 -27.78 -50.6925
-16.52 -25.64 -50.6925
24.7778 12.4444 52.5625
25.4966 -0.590174 18.7964
-6.36717 -27.78 34.9275
25.4966 -0.590174 -52.6625
-25.08 11.2 20.3275
-19.851 -21.7538 18.7963
-19.851 -21.7538 -50.6925
27.1 4.22 -52.6625
-21.6285 26.8963 18.7964
-19.851 -21.7538 -52.6625
-25.6638 22.6486 -50.6925
-26.68 19.6 5.72662
-16.0927 2.97276 -50.6925
-20.6813 -17.3 -52.6625
-27.0698 16.9687 4.19755
-20.6813 -17.3 4.19755
22.069 -3.515 52.5625
-4.55624 1.88751 52.5625
13.0379 17.9068 52.5625
-10.2796 -27.78 -50.6925
-9.11617 25.7311 4.19755
-26.2333 12.4814 4.19755
23.9787 14.0427 20.3275
-6.36717 -27.78 -39.6022
-22.3079 8.11988 20.3275
-26.2333 12.4814 -8.87251
18.1518 16.1006 5.72666
-16.52 -25.64 -25.0024
-14.2237 -6.91461 -52.6625
27.1 7.8 34.9275
12.5763 15.6865 18.7965
-21.3994 -13.448 -50.6925
-6.36717 -27.78 -50.6925
12.5763 15.6865 5.72665
-16.6841 6.10147 -52.6625
-21.3994 -13.448 -8.87251
-6.36717 -27.78 5.72652
-25.6968 9.60348 -8.87251
-25.6968 9.60348 4.19755
-12.24 -27.78 -25.0024
14.6718 17.3297 4.19755
-20.6813 -17.3 5.72653
-22.5387 8.37638 5.7266
-19.851 -21.7538 -23.4724
-9.11617 25.7311 18.7965
-26.2333 12.4814 5.72661
-14.6203 -4.81648 18.7964
-26.2333 12.4814 18.7964
-26.68 19.6 -50.6925
27.1 12.9403 -52.6625
-16.6841 6.10147 34.9275
-10.2796 -27.78 5.72651
-20.7818 27.78 -10.4025
-10.2796 -27.78 -10.4025
27.1 7.8 33.3975
-25.6968 9.60348 -10.4025
-20.7818 27.78 5.72665
-25.6638 22.6486 4.19755
-26.2333 12.4814 -10.4025
-20.7818 27.78 -8.87251
-14.2237 -6.91461 -50.6925
-22.5387 8.37638 20.3275
-10.2796 -27.78 -25.0024
-12.24 -27.78 5.72651
-19.851 -21.7538 -25.0024
27.1 0.778023 -38.0721
-16.52 -25.64 -52.6625
16.1349 16.8129 5.72666
-27.0698 16.9687 5.72662
-21.6285 26.8963 -50.6925
-21.6285 26.8963 -52.6625
-25.6638 22.6486 -52.6625
-26.68 19.6 -52.6625
25.4966 -0.590174 -23.4724
-27.0698 16.9687 -52.6625
-6.36717 -27.78 -52.6625
-20.6479 27.0714 -52.6625
27.1 4.22 5.72663
-20.6479 27.0714 -38.0721
17.6873 -7.25395 -23.4724
-23.4316 9.36842 52.5625
27.1 7.8 -10.4025
-12.24 -27.78 33.3975
18.7933 -6.3102 33.3975
27.1 4.22 -23.4724
-14.2237 -6.91461 18.7964
-27.0698 16.9687 -23.4724
-20.0772 -20.5405 18.7963
-0.0943558 -22.4273 -10.4025
-6.57927 20.8524 5.72665
-14.9174 27.78 -23.4724
-18.68 -23.12 33.3975
-18.68 -23.12 34.9275
-20.6479 27.0714 20.3275
-12.24 -27.78 18.7963
27.1 4.22 18.7964
-12.24 -27.78 34.9275
19.0752 -6.06964 18.7964
-20.6479 27.0714 4.19755
-20.7818 27.78 4.19755
-10.2796 -27.78 4.19755
27.1 4.59297 -8.87251
-12.24 -27.78 -8.87251
-14.2237 -6.91461 33.3975
-16.693 6.14855 34.9275
-16.0927 2.97276 18.7964
-6.36717 -27.78 18.7963
25.4966 -0.590174 20.3275
-16.6841 6.10147 18.7964
23.9787 14.0427 52.5625
-14.9174 27.78 5.72666
27.1 7.8 52.5625
27.1 4.22 34.9275
-7.51557 25.1658 -8.87251
-19.3967 -11.6246 33.3975
-16.52 -25.64 34.9275
27.1 4.59297 4.19755
24.7778 12.4444 -23.4724
-16.52 -25.64 20.3275
-14.9174 27.78 -39.6022
-16.0927 2.97276 5.72659
-12.24 -27.78 20.3275
-27.1 16.765 18.7964
27.1 4.22 4.19755
-27.0698 16.9687 -39.6022
-27.1 16.765 20.3275
-10.2796 -27.78 -38.0721
-25.6638 22.6486 52.5625
-25.6638 22.6486 -39.6022
-26.68 19.6 -38.0721
-6.36717 -27.78 33.3975
-27.1 13.4444 52.5625
-19.851 -21.7538 4.19755
-25.6638 22.6486 20.3275
-21.6285 26.8963 20.3275
-21.0206 -18.7989 33.3975
-20.7818 27.78 20.3275
-14.9174 27.78 -50.6925
-26.68 19.6 52.5625
-27.1 16.765 33.3975
-27.1 16.765 52.5625
-6.36717 -27.78 4.19755
-10.2796 -27.78 20.3275
-6.36717 -27.78 -8.87251
9.06239 -3.90263 -8.87251
-20.6479 27.0714 52.5625
-20.6479 27.0714 -23.4724
-21.6285 26.8963 52.5625
-7.51557 25.1658 5.72666
-20.7818 27.78 -52.6625
27.1 4.59297 5.72663
-21.3994 -13.448 5.72654
-14.2237 -6.91461 5.72656
-19.3967 -11.6246 18.7964
-14.9174 27.78 -38.0721
-20.7818 27.78 52.5625
19.0752 -6.06964 5.7266
-14.9174 27.78 -52.6625
25.4966 -0.590174 52.5625
18.7933 -6.3102 20.3275
-7.51557 25.1658 4.19755
9.06239 -3.90263 4.19755
-25.6968 9.60348 5.7266
-9.11617 25.7311 -8.87251
-16.6841 6.10147 5.7266
27.1 4.22 52.5625
-16.693 6.14855 20.3275
18.1518 16.1006 4.19755
-6.36717 -27.78 -10.4025
27.1 12.9403 -50.6925
-18.1869 -10.5231 -52.6625
4  332 317 458 512  255 0 0
4  332 397 538 317  255 0 0
4  332 446 143 397  255 0 0
4  163 397 143 347  255 0 0
4  163 276 319 318  255 0 0
4  163 318 538 397  255 0 0
6  163 347 352 152 151 276  255 0 0
4  532 192 229 404  255 0 0
6  532 404 309 290 485 114  255 0 0
4  333 501 461 398  255 0 0
4  333 512 458 501  255 0 0
14  333 422 562 442 22 569 322 379 428 469 201 550 277 512  255 0 0
4  332 512 277 446  255 0 0
4  399 454 329 492  255 0 0
4  492 329 328 389  255 0 0
5  492 88 173 116 399  255 0 0
4  276 293 557 319  255 0 0
4  276 151 420 293  255 0 0
8  404 229 288 452 294 198 292 309  255 0 0
4  389 328 263 556  255 0 0
4  556 263 261 521  255 0 0
4  393 62 236 387  255 0 0
4  556 380 252 389  255 0 0
4  398 461 454 399  255 0 0
4  398 565 422 333  255 0 0
4  386 544 192 532  255 0 0
4  386 532 114 113  255 0 0
4  539 350 551 559  255 0 0
10  396 89 189 228 194 467 392 388 62 393  255 0 0
4  521 261 350 539  255 0 0
4  571 59 187 188  255 0 0
4  396 225 60 89  255 0 0
4  539 217 220 521  255 0 0
4  545 362 502 543  255 0 0
4  543 502 453 438  255 0 0
4  545 543 367 65  255 0 0
6  293 420 419 354 547 557  255 0 0
4  290 309 292 361  255 0 0
4  290 33 346 485  255 0 0
4  290 361 129 33  255 0 0
4  285 330 455 570  255 0 0
4  570 455 362 545  255 0 0
4  285 570 490 165  255 0 0
4  508 316 544 386  255 0 0
4  438 453 316 508  255 0 0
4  438 508 232 320  255 0 0
4  231 528 464 218  255 0 0
4  218 464 330 285  255 0 0
3  467 394 392  255 0 0
4  231 218 384 383  255 0 0
4  434 421 351 425  255 0 0
4  425 351 528 231  255 0 0
3  194 228 191  255 0 0
4  434 425 222 221  255 0 0
4  502 269 465 453  255 0 0
4  362 504 269 502  255 0 0
4  501 500 360 461  255 0 0
4  453 465 496 316  255 0 0
4  316 496 523 544  255 0 0
4  317 305 307 458  255 0 0
4  497 270 552 479  255 0 0
6  479 552 381 385 518 525  255 0 0
4  311 299 301 403  255 0 0
4  497 479 311 403  255 0 0
13  559 551 478 436 208 36 430 310 477 405 409 451 76  255 0 0
6  451 409 230 186 59 571  255 0 0
4  571 188 76 451  255 0 0
5  559 76 188 217 539  255 0 0
4  477 310 421 434  255 0 0
6  477 434 221 111 227 405  255 0 0
4  305 410 315 307  255 0 0
4  303 449 447 470  255 0 0
4  303 470 413 296  255 0 0
4  413 314 377 296  255 0 0
4  315 410 7 94  255 0 0
4  377 314 94 7  255 0 0
5  312 443 344 489 407  255 0 0
3  407 489 210  255 0 0
5  407 210 291 271 312  255 0 0
9  399 116 382 369 21 286 515 565 398  255 0 0
8  393 387 380 556 521 220 225 396  255 0 0
4  525 518 503 125  255 0 0
5  125 503 119 483 120  255 0 0
4  123 48 374 390  255 0 0
4  525 125 123 390  255 0 0
4  322 569 369 382  255 0 0
4  119 503 518 385  255 0 0
4  322 382 45 44  255 0 0
5  385 44 45 87 119  255 0 0
4  211 67 428 379  255 0 0
4  381 552 270 212  255 0 0
4  212 270 356 278  255 0 0
4  211 379 39 40  255 0 0
4  212 40 39 381  255 0 0
4  232 499 558 320  255 0 0
4  510 507 522 566  255 0 0
6  566 522 171 553 564 444  255 0 0
4  271 291 496 465  255 0 0
4  389 252 88 492  255 0 0
6  297 66 27 363 101 103  255 0 0
4  321 164 244 102  255 0 0
4  297 103 372 50  255 0 0
6  321 102 100 365 121 223  255 0 0
4  563 179 182 546  255 0 0
4  546 182 98 99  255 0 0
4  563 97 96 179  255 0 0
4  563 546 99 97  255 0 0
3  564 447 444  255 0 0
4  510 566 444 282  255 0 0
5  485 346 150 302 561  255 0 0
4  561 113 114 485  255 0 0
4  544 523 484 192  255 0 0
4  192 484 498 229  255 0 0
5  568 280 104 105 359  255 0 0
3  568 112 280  255 0 0
4  359 115 112 568  255 0 0
4  520 376 493 162  255 0 0
4  520 162 484 523  255 0 0
4  493 376 24 23  255 0 0
4  348 107 213 505  255 0 0
4  348 505 516 343  255 0 0
6  543 438 320 321 223 367  255 0 0
10  320 558 53 299 311 390 374 215 164 321  255 0 0
4  500 237 339 360  255 0 0
4  455 141 504 362  255 0 0
4  330 370 141 455  255 0 0
4  454 357 548 329  255 0 0
4  506 195 274 354  255 0 0
4  506 295 294 452  255 0 0
4  354 419 295 506  255 0 0
11  354 274 482 73 533 542 540 529 72 549 547  255 0 0
4  557 547 364 319  255 0 0
4  554 170 448 487  255 0 0
4  553 171 235 238  255 0 0
3  554 169 170  255 0 0
4  554 487 168 169  255 0 0
4  270 497 214 356  255 0 0
6  550 201 435 95 92 491  255 0 0
4  203 92 91 241  255 0 0
3  241 91 239  255 0 0
4  207 199 209 353  255 0 0
4  207 446 20 19  255 0 0
3  550 491 277  255 0 0
3  203 491 92  255 0 0
6  207 19 37 38 432 199  255 0 0
4  241 239 491 203  255 0 0
4  201 469 205 435  255 0 0
4  259 83 82 233  255 0 0
3  233 82 80  255 0 0
4  199 14 15 209  255 0 0
3  259 81 83  255 0 0
4  199 432 242 14  255 0 0
4  259 233 80 81  255 0 0
4  508 386 113 232  255 0 0
9  561 302 509 403 301 52 499 232 113  255 0 0
10  425 231 383 161 394 467 194 191 110 222  255 0 0
4  184 97 99 183  255 0 0
4  66 65 124 27  255 0 0
5  183 99 98 103 101  255 0 0
5  184 100 102 96 97  255 0 0
4  223 121 117 367  255 0 0
4  184 183 101 100  255 0 0
4  416 423 427 174  255 0 0
4  416 174 159 206  255 0 0
6  218 285 165 167 481 384  255 0 0
4  357 340 306 548  255 0 0
4  547 549 262 364  255 0 0
4  570 545 65 490  255 0 0
4  66 297 300 166  255 0 0
4  297 50 51 300  255 0 0
4  528 248 441 464  255 0 0
4  464 441 370 330  255 0 0
4  328 327 480 263  255 0 0
4  327 304 181 480  255 0 0
5  359 105 193 195 506  255 0 0
4  351 247 248 528  255 0 0
4  421 400 247 351  255 0 0
4  261 258 216 350  255 0 0
4  366 460 368 488  255 0 0
4  366 488 323 264  255 0 0
4  279 196 190 541  255 0 0
4  542 533 196 279  255 0 0
4  542 279 273 540  255 0 0
4  273 260 529 540  255 0 0
4  262 549 72 1  255 0 0
4  529 260 1 72  255 0 0
4  538 495 305 317  255 0 0
8  487 448 507 510 112 255 107 348  255 0 0
4  318 281 495 538  255 0 0
4  281 202 536 495  255 0 0
4  527 283 284 524  255 0 0
4  541 190 283 527  255 0 0
4  541 527 298 275  255 0 0
4  298 535 204 275  255 0 0
4  536 202 0 8  255 0 0
4  204 535 8 0  255 0 0
4  326 331 69 266  255 0 0
4  326 266 531 324  255 0 0
4  159 240 459 206  255 0 0
4  339 237 64 63  255 0 0
4  459 240 63 64  255 0 0
4  338 148 417 534  255 0 0
4  534 373 139 338  255 0 0
9  229 498 517 494 246 26 25 245 288  255 0 0
8  506 452 288 505 213 106 115 359  255 0 0
4  531 254 175 324  255 0 0
4  181 304 6 56  255 0 0
4  175 254 56 6  255 0 0
4  258 257 471 216  255 0 0
4  526 70 224 313  255 0 0
4  526 313 450 256  255 0 0
4  450 412 530 256  255 0 0
4  471 257 47 46  255 0 0
4  530 412 46 47  255 0 0
4  323 325 341 264  255 0 0
4  306 340 58 57  255 0 0
4  341 325 57 58  255 0 0
4  445 334 287 335  255 0 0
4  335 140 289 445  255 0 0
4  253 74 71 466  255 0 0
4  466 429 249 253  255 0 0
14  553 238 443 312 534 417 132 272 440 423 416 470 447 564  255 0 0
4  537 23 24 342  255 0 0
4  516 144 13 343  255 0 0
4  342 16 308 537  255 0 0
4  495 536 410 305  255 0 0
4  524 284 449 303  255 0 0
5  527 524 303 296 298  255 0 0
4  535 298 296 377  255 0 0
4  410 536 8 7  255 0 0
4  535 377 7 8  255 0 0
4  376 520 291 210  255 0 0
4  291 520 523 496  255 0 0
4  280 463 426 104  255 0 0
5  280 112 510 282 463  255 0 0
4  533 73 11 196  255 0 0
4  274 195 9 482  255 0 0
4  162 493 494 517  255 0 0
4  193 105 104 426  255 0 0
5  190 10 406 5 283  255 0 0
5  193 426 463 3 133  255 0 0
4  50 86 54 51  255 0 0
4  164 215 84 244  255 0 0
4  50 372 85 86  255 0 0
4  162 517 498 484  255 0 0
5  494 493 23 537 246  255 0 0
4  505 288 245 516  255 0 0
4  515 286 442 562  255 0 0
4  562 422 565 515  255 0 0
4  567 513 431 514  255 0 0
5  514 431 456 358 154  255 0 0
4  155 149 418 560  255 0 0
11  560 418 130 355 200 419 420 511 402 513 567  255 0 0
4  567 514 155 560  255 0 0
4  511 420 151 337  255 0 0
6  337 151 152 349 156 153  255 0 0
4  511 337 61 402  255 0 0
4  513 402 61 431  255 0 0
4  336 150 149 155  255 0 0
4  154 358 356 214  255 0 0
4  509 302 150 336  255 0 0
4  154 214 509 336  255 0 0
4  153 156 68 424  255 0 0
4  424 68 67 211  255 0 0
4  278 356 358 456  255 0 0
4  153 424 43 42  255 0 0
4  456 42 43 278  255 0 0
4  408 147 75 251  255 0 0
4  251 250 401 408  255 0 0
4  139 373 269 504  255 0 0
4  289 140 141 370  255 0 0
4  458 307 500 501  255 0 0
4  499 52 53 558  255 0 0
4  249 429 441 248  255 0 0
4  446 207 353 143  255 0 0
4  239 37 19 20  255 0 0
5  239 20 446 277 491  255 0 0
4  489 344 17 345  255 0 0
6  342 24 376 210 489 345  255 0 0
5  487 348 343 555 168  255 0 0
4  120 483 176 486  255 0 0
4  486 176 172 395  255 0 0
4  475 108 109 122  255 0 0
5  122 109 49 48 123  255 0 0
4  120 486 475 122  255 0 0
4  173 88 252 391  255 0 0
4  116 173 519 41  255 0 0
4  483 118 219 176  255 0 0
4  300 51 371 481  255 0 0
4  481 167 166 300  255 0 0
9  481 371 55 90 108 475 177 160 384  255 0 0
4  313 224 226 476  255 0 0
4  310 375 400 421  255 0 0
9  310 430 572 145 31 415 411 468 375  255 0 0
4  350 216 478 551  255 0 0
9  478 472 18 473 474 476 226 185 436  255 0 0
4  216 471 472 478  255 0 0
4  313 476 474 450  255 0 0
4  412 450 474 473  255 0 0
4  472 471 46 18  255 0 0
4  412 473 18 46  255 0 0
4  411 415 147 408  255 0 0
4  408 401 468 411  255 0 0
4  468 401 400 375  255 0 0
4  265 414 208 436  255 0 0
4  268 224 70 79  255 0 0
5  268 433 146 127 126  255 0 0
4  265 157 158 414  255 0 0
4  268 126 157 224  255 0 0
4  265 436 185 157  255 0 0
3  462 34 35  255 0 0
4  430 36 34 462  255 0 0
4  433 128 30 146  255 0 0
4  433 268 79 78  255 0 0
4  430 462 35 572  255 0 0
4  137 368 460 457  255 0 0
4  457 378 135 137  255 0 0
14  174 427 439 437 134 148 338 335 287 142 378 457 460 366  255 0 0
4  461 360 357 454  255 0 0
4  360 339 340 357  255 0 0
4  138 136 77 267  255 0 0
4  267 69 331 138  255 0 0
6  449 4 2 282 444 447  255 0 0
4  171 169 168 555  255 0 0
3  443 238 235  255 0 0
5  344 443 235 234 12  255 0 0
4  555 234 235 171  255 0 0
4  286 21 22 442  255 0 0
4  439 427 423 440  255 0 0
4  440 272 437 439  255 0 0
4  272 132 134 437  255 0 0
4  432 81 80 435  255 0 0
3  67 14 242  255 0 0
4  435 80 82 95  255 0 0
3  428 205 469  255 0 0
4  67 242 205 428  255 0 0
4  432 435 205 242  255 0 0
4  174 366 264 159  255 0 0
4  295 197 198 294  255 0 0
4  419 200 197 295  255 0 0
3  149 33 129  255 0 0
4  361 197 200 355  255 0 0
4  355 130 129 361  255 0 0
4  149 129 130 418  255 0 0
4  307 315 237 500  255 0 0
4  470 416 206 413  255 0 0
4  314 413 206 459  255 0 0
4  118 41 519 219  255 0 0
4  227 111 110 191  255 0 0
4  230 409 405 227  255 0 0
4  401 250 247 400  255 0 0
4  395 172 388 392  255 0 0
4  394 161 160 177  255 0 0
4  395 392 394 177  255 0 0
4  391 252 380 387  255 0 0
3  388 236 62  255 0 0
4  391 387 236 93  255 0 0
4  172 93 236 388  255 0 0
4  384 160 161 383  255 0 0
4  378 142 32 135  255 0 0
4  334 32 142 287  255 0 0
4  136 131 28 77  255 0 0
4  74 28 131 71  255 0 0
3  48 86 85  255 0 0
4  372 178 180 244  255 0 0
5  244 180 179 96 102  255 0 0
3  374 84 215  255 0 0
4  244 84 85 372  255 0 0
4  48 85 84 374  255 0 0
4  240 159 264 341  255 0 0
4  51 54 55 371  255 0 0
4  365 100 101 363  255 0 0
4  65 66 166 490  255 0 0
3  363 27 124  255 0 0
3  365 117 121  255 0 0
4  365 363 124 117  255 0 0
4  367 117 124 65  255 0 0
5  353 209 349 152 352  255 0 0
4  352 347 143 353  255 0 0
5  209 15 68 156 349  255 0 0
5  343 13 12 234 555  255 0 0
5  344 12 13 16 17  255 0 0
4  345 17 16 342  255 0 0
6  340 339 63 240 341 58  255 0 0
4  338 139 140 335  255 0 0
4  334 445 466 71  255 0 0
4  135 32 131 136  255 0 0
4  137 135 136 138  255 0 0
4  368 137 138 331  255 0 0
4  488 368 331 326  255 0 0
4  71 131 32 334  255 0 0
4  329 548 327 328  255 0 0
4  548 306 304 327  255 0 0
4  488 326 324 323  255 0 0
4  325 323 324 175  255 0 0
4  479 525 390 311  255 0 0
6  379 322 44 385 381 39  255 0 0
4  319 364 281 318  255 0 0
6  237 315 94 314 459 64  255 0 0
4  312 271 373 534  255 0 0
4  16 13 144 308  255 0 0
4  304 306 57 6  255 0 0
4  325 175 6 57  255 0 0
4  445 289 429 466  255 0 0
4  150 346 33 149  255 0 0
4  299 53 52 301  255 0 0
4  292 198 197 361  255 0 0
4  429 289 370 441  255 0 0
5  283 5 4 449 284  255 0 0
4  463 282 2 3  255 0 0
4  364 262 202 281  255 0 0
4  279 541 275 273  255 0 0
4  260 273 275 204  255 0 0
4  373 271 465 269  255 0 0
4  74 253 251 75  255 0 0
4  77 28 29 78  255 0 0
4  267 77 78 79  255 0 0
4  69 267 79 70  255 0 0
4  266 69 70 526  255 0 0
4  263 480 258 261  255 0 0
4  480 181 257 258  255 0 0
4  266 526 256 531  255 0 0
4  254 531 256 530  255 0 0
6  257 181 56 254 530 47  255 0 0
4  253 249 250 251  255 0 0
4  250 249 248 247  255 0 0
4  245 25 144 516  255 0 0
4  308 144 25 26  255 0 0
4  537 308 26 246  255 0 0
5  103 98 182 178 372  255 0 0
4  14 67 68 15  255 0 0
4  228 189 186 230  255 0 0
4  228 230 227 191  255 0 0
3  189 89 60  255 0 0
4  225 220 217 188  255 0 0
3  186 187 59  255 0 0
4  225 188 187 60  255 0 0
4  189 60 187 186  255 0 0
4  222 110 111 221  255 0 0
4  569 22 21 369  255 0 0
4  214 497 403 509  255 0 0
6  424 211 40 212 278 43  255 0 0
6  146 35 34 414 158 127  255 0 0
4  414 34 36 208  255 0 0
4  145 572 35 146  255 0 0
4  202 262 1 0  255 0 0
4  260 204 0 1  255 0 0
4  196 11 10 190  255 0 0
4  195 193 133 9  255 0 0
4  157 126 127 158  255 0 0
4  224 157 185 226  255 0 0
4  180 178 182 179  255 0 0
4  486 395 177 475  255 0 0
7  173 391 93 172 176 219 519  255 0 0
4  522 170 169 171  255 0 0
4  507 448 170 522  255 0 0
4  167 165 490 166  255 0 0
4  78 29 128 433  255 0 0
4  147 128 29 75  255 0 0
4  75 29 28 74  255 0 0
3  147 30 128  255 0 0
4  514 154 336 155  255 0 0
6  337 153 42 456 431 61  255 0 0
4  148 134 132 417  255 0 0
4  147 415 31 30  255 0 0
4  146 30 31 145  255 0 0
4  140 139 504 141  255 0 0
4  125 120 122 123  255 0 0
6  382 116 41 118 87 45  255 0 0
4  119 87 118 483  255 0 0
4  115 106 255 112  255 0 0
4  108 90 49 109  255 0 0
4  107 255 106 213  255 0 0
4  243 91 92 95  255 0 0
5  243 83 81 432 38  255 0 0
4  95 82 83 243  255 0 0
5  243 38 37 239 91  255 0 0
4  90 55 54 49  255 0 0
4  49 54 86 48  255 0 0
4  11 9 133 10  255 0 0
4  73 482 9 11  255 0 0
5  406 3 2 4 5  255 0 0
4  10 133 3 406  255 0 0

