OFF
584 531 0

-14.2237 -6.91461 5.72656
-4.93995 1.53815 -17.9143
-4.93995 1.53815 34.9275
-4.93995 1.53815 -25.7192
-4.93995 1.53815 -50.6925
-4.93995 1.53815 -52.6625
-14.2237 -6.91461 -52.6625
-22.5387 8.37638 -50.6925
-16.6841 6.10147 -52.6625
-16.6841 6.10147 -50.6925
17.6873 -7.25395 -52.6625
17.6873 -7.25395 -38.0721
17.6873 -7.25395 -39.6022
-17.8569 6.5572 52.5625
-22.5387 8.37638 52.5625
-17.8569 6.5572 34.9275
-17.8569 6.5572 20.3275
-17.8569 6.5572 33.3975
17.6873 -7.25395 -50.6925
17.6873 -7.25395 34.9275
17.6873 -7.25395 33.3975
-22.5387 8.37638 34.9275
-22.5387 8.37638 33.3975
-22.5453 25.9313 33.3975
-22.5453 25.9313 34.9275
-23.4316 9.36842 18.7964
-23.4316 9.36842 20.3275
-25.7252 11.9169 18.7964
-25.7252 11.9169 20.3275
-22.5453 25.9313 -25.0024
-22.5453 25.9313 -23.4724
-22.5453 25.9313 18.7964
-22.5453 25.9313 20.3275
-23.4316 9.36842 33.3975
-23.4316 9.36842 34.9275
-25.08 11.2 33.3975
-25.08 11.2 34.9275
-20.5408 -16.6791 18.7963
-20.5408 -16.6791 20.3275
16.1349 16.8129 18.7965
16.1349 16.8129 20.3275
-20.7825 -17.7469 18.7963
-20.7825 -17.7469 20.3275
-22.5453 25.9313 -52.6625
-22.5453 25.9313 -50.6925
-8.32912 24.2175 18.7965
-7.11863 23.3372 18.7965
16.1349 16.8129 4.19755
16.1349 16.8129 -8.87251
-20.2829 -20.1608 33.3975
-20.2829 -20.1608 20.3275
-20.5408 -16.6791 34.9275
-20.5408 -16.6791 33.3975
-20.7825 -17.7469 34.9275
-20.7825 -17.7469 33.3975
0.0994993 -20.618 4.19755
0.0994993 -20.618 -8.87251
0.830726 -19.3645 4.19755
0.830726 -19.3645 -8.87251
20.3417 -4.98895 -8.87251
20.3417 -4.98895 -10.4025
-21.0814 -15.1542 -38.0721
-21.0814 -15.1542 -39.6022
-25.08 11.2 20.3275
-19.6927 -12.9324 -52.6625
-19.6927 -12.9324 -50.6925
-21.0814 -15.1542 -23.4724
-21.0814 -15.1542 -25.0024
20.3417 -4.98895 34.9275
20.3417 -4.98895 33.3975
-14.6203 -4.81648 -50.6925
-18.1869 -10.5231 -50.6925
-18.1869 -10.5231 -52.6625
-14.6203 -4.81648 -52.6625
-6.84768 22.089 18.7964
-0.5257 14.7133 18.7964
24.7778 12.4444 18.7965
24.7778 12.4444 5.72665
24.7778 12.4444 -10.4025
24.7778 12.4444 -23.4724
24.7778 12.4444 33.3975
24.7778 12.4444 20.3275
24.7778 12.4444 4.19755
24.7778 12.4444 -8.87251
-22.5453 25.9313 -39.6022
22.069 -3.515 -8.87251
22.069 -3.515 -10.4025
19.0752 -6.06964 -8.87251
19.0752 -6.06964 -10.4025
20.3417 -4.98895 5.7266
20.3417 -4.98895 18.7964
20.3417 -4.98895 -23.4724
-22.5453 25.9313 -38.0721
-22.5453 25.9313 -10.4025
24.7778 12.4444 -39.6022
24.7778 12.4444 -50.6925
27.1 10.65 -50.6925
27.1 10.65 -39.6022
24.7778 12.4444 52.5625
24.7778 12.4444 34.9275
24.7778 12.4444 -25.0024
24.7778 12.4444 -38.0721
27.1 10.65 -38.0721
-22.5453 25.9313 5.72665
-22.5453 25.9313 4.19755
-22.5453 25.9313 -8.87251
-0.0943558 -22.4273 -8.87251
-0.0943558 -22.4273 -10.4025
1.13887 -21.375 -8.87251
1.13887 -21.375 -10.4025
18.1518 16.1006 18.7965
18.1518 16.1006 20.3275
-26.2333 12.4814 -23.4724
-26.2333 12.4814 -25.0024
-26.2333 12.4814 -38.0721
-26.2333 12.4814 -39.6022
-20.6813 -17.3 -23.4724
-20.6813 -17.3 -25.0024
-22.5453 25.9313 52.5625
-23.4316 9.36842 52.5625
-25.08 11.2 52.5625
-20.6813 -17.3 -38.0721
-20.6813 -17.3 -39.6022
23.9787 14.0427 -52.6625
23.9787 14.0427 -50.6925
-21.3994 -13.448 -38.0721
-21.3994 -13.448 -39.6022
-25.6968 9.60348 -38.0721
-25.6968 9.60348 -39.6022
11.2997 14.6855 5.72665
5.35263 12.0688 5.72663
11.2997 14.6855 18.7964
5.35263 12.0688 18.7964
18.4216 -4.91784 4.19755
18.4216 -4.91784 -8.87251
20.3417 -4.98895 4.19755
25.7716 10.4568 -10.4025
25.7716 10.4568 -8.87251
13.0379 17.9068 -25.0024
13.0379 17.9068 -23.4724
22.069 -3.515 -23.4724
-3.6147 15.1513 18.7964
-3.6147 15.1513 5.72663
-6.57927 20.8524 18.7964
-6.57927 20.8524 5.72665
-2.01809 14.6025 5.72663
-2.01809 14.6025 18.7964
12.5763 15.6865 18.7965
12.5763 15.6865 5.72665
13.457 -5.61019 4.19755
5.32254 -7.11657 4.19755
5.32254 -7.11657 -8.87251
13.457 -5.61019 -8.87251
-0.280963 -12.1111 4.19755
-0.280963 -12.1111 -8.87251
15.0311 -6.22186 4.19755
15.0311 -6.22186 -8.87251
-16.3246 4.19969 33.3975
-16.3246 4.19969 20.3275
-21.1613 7.71734 33.3975
-21.1613 7.71734 20.3275
-16.0927 2.97276 33.3975
-16.0927 2.97276 20.3275
24.5922 -1.36189 -10.4025
24.5922 -1.36189 -23.4724
24.5922 -1.36189 -50.6925
24.5922 -1.36189 -39.6022
-16.6841 6.10147 20.3275
-16.6841 6.10147 33.3975
17.6873 -7.25395 20.3275
17.6873 -7.25395 -8.87251
17.6873 -7.25395 -10.4025
23.9787 14.0427 -10.4025
27.1 7.8 -10.4025
27.1 7.8 -8.87251
23.9787 14.0427 -8.87251
27.1 4.22 -10.4025
25.4966 -0.590174 -10.4025
25.4966 -0.590174 -8.87251
27.1 4.22 -8.87251
-17.5208 -3.33691 -50.6925
-23.8834 8.89888 -50.6925
-21.0814 -15.1542 -50.6925
18.4216 -4.91784 52.5625
18.4216 -4.91784 34.9275
-21.0814 -15.1542 4.19755
-21.0814 -15.1542 -8.87251
-21.3994 -13.448 -23.4724
-21.3994 -13.448 -25.0024
-25.6968 9.60348 -23.4724
-25.6968 9.60348 -25.0024
-12.24 -27.78 -10.4025
-12.24 -27.78 -8.87251
-16.52 -25.64 -8.87251
-16.52 -25.64 -10.4025
-21.0814 -15.1542 -10.4025
-9.11617 25.7311 18.7965
-9.11617 25.7311 20.3275
-20.6813 -17.3 -8.87251
22.069 -3.515 34.9275
22.069 -3.515 33.3975
13.0379 17.9068 34.9275
13.0379 17.9068 33.3975
23.9787 14.0427 33.3975
27.1 7.8 33.3975
27.1 7.8 34.9275
23.9787 14.0427 34.9275
27.1 4.22 33.3975
25.4966 -0.590174 33.3975
25.4966 -0.590174 34.9275
27.1 4.22 34.9275
18.1518 16.1006 33.3975
-16.4107 1.5675 -50.6925
-25.6638 22.6486 34.9275
-21.6285 26.8963 34.9275
-21.6285 26.8963 33.3975
-25.6638 22.6486 33.3975
-19.3967 -11.6246 -50.6925
-16.0927 2.97276 -50.6925
-16.0927 2.97276 -52.6625
-19.3967 -11.6246 -52.6625
14.6718 17.3297 18.7965
14.6718 17.3297 20.3275
-7.51557 25.1658 18.7965
-7.51557 25.1658 20.3275
27.1 4.59297 18.7964
27.1 4.59297 20.3275
17.6873 -7.25395 18.7964
23.9787 14.0427 18.7965
27.1 7.8 18.7964
27.1 7.8 20.3275
23.9787 14.0427 20.3275
27.1 4.22 18.7964
25.4966 -0.590174 18.7964
25.4966 -0.590174 20.3275
27.1 4.22 20.3275
18.1518 16.1006 4.19755
18.1518 16.1006 -8.87251
13.0379 17.9068 -39.6022
13.0379 17.9068 -50.6925
27.1 7.8 -50.6925
27.1 7.8 -39.6022
23.9787 14.0427 -39.6022
27.1 4.22 -50.6925
25.4966 -0.590174 -50.6925
25.4966 -0.590174 -39.6022
27.1 4.22 -39.6022
-19.6927 -12.9324 18.7963
-19.6927 -12.9324 5.72654
-21.0814 -15.1542 5.72654
13.7776 15.7757 18.7965
13.7776 15.7757 5.72665
16.1349 16.8129 5.72666
17.0405 -5.44905 -8.87251
17.0405 -5.44905 4.19755
-21.0206 -18.7989 34.9275
-21.0206 -18.7989 33.3975
-19.3967 -11.6246 33.3975
-19.3967 -11.6246 34.9275
-12.24 -27.78 -39.6022
-12.24 -27.78 -38.0721
-16.52 -25.64 -38.0721
-16.52 -25.64 -39.6022
-19.851 -21.7538 -39.6022
-19.851 -21.7538 -38.0721
-25.6638 22.6486 -39.6022
-25.6638 22.6486 -38.0721
-21.6285 26.8963 -38.0721
-21.6285 26.8963 -39.6022
-26.68 19.6 -38.0721
-26.68 19.6 -39.6022
-27.0698 16.9687 -39.6022
-27.0698 16.9687 -38.0721
-20.6479 27.0714 -39.6022
-20.6479 27.0714 -38.0721
-20.7818 27.78 -39.6022
-20.7818 27.78 -38.0721
-10.2796 -27.78 -38.0721
-10.2796 -27.78 -39.6022
-12.24 -27.78 4.19755
-12.24 -27.78 5.72651
-16.52 -25.64 5.72651
-16.52 -25.64 4.19755
-26.68 19.6 34.9275
-26.68 19.6 33.3975
-27.1 16.765 33.3975
-27.1 16.765 34.9275
-20.6479 27.0714 33.3975
-20.6479 27.0714 34.9275
-27.1 13.4444 18.7964
-26.2333 12.4814 18.7964
-22.5387 8.37638 18.7964
-22.5387 8.37638 20.3275
-27.1 13.4444 20.3275
-12.24 -27.78 -25.0024
-12.24 -27.78 -23.4724
-16.52 -25.64 -23.4724
-16.52 -25.64 -25.0024
15.0311 -6.22186 34.9275
16.7064 -5.57753 34.9275
-4.55624 1.88751 34.9275
22.069 -3.515 5.72661
22.069 -3.515 18.7964
22.069 -3.515 20.3275
-19.851 -21.7538 -25.0024
-19.851 -21.7538 -23.4724
-25.6638 22.6486 -25.0024
-25.6638 22.6486 -23.4724
-21.6285 26.8963 -23.4724
-21.6285 26.8963 -25.0024
-16.6841 6.10147 34.9275
-19.851 -21.7538 4.19755
-19.851 -21.7538 5.72652
-25.6638 22.6486 4.19755
-25.6638 22.6486 5.72663
-21.6285 26.8963 5.72665
-21.6285 26.8963 4.19755
-20.7818 27.78 33.3975
-20.7818 27.78 34.9275
17.6873 -7.25395 5.72659
17.6873 -7.25395 4.19755
23.9787 14.0427 4.19755
27.1 7.8 4.19755
27.1 7.8 5.72664
23.9787 14.0427 5.72665
27.1 4.22 4.19755
25.4966 -0.590174 4.19755
25.4966 -0.590174 5.72662
27.1 4.22 5.72663
-26.68 19.6 -23.4724
-26.68 19.6 -25.0024
-27.0698 16.9687 -25.0024
-27.0698 16.9687 -23.4724
-20.6479 27.0714 -25.0024
-20.6479 27.0714 -23.4724
-20.7818 27.78 -25.0024
-20.7818 27.78 -23.4724
-10.2796 -27.78 -23.4724
-10.2796 -27.78 -25.0024
-19.851 -21.7538 -10.4025
-19.851 -21.7538 -8.87251
-25.6638 22.6486 -10.4025
-25.6638 22.6486 -8.87251
-21.6285 26.8963 -8.87251
-21.6285 26.8963 -10.4025
-21.0206 -18.7989 20.3275
-21.0206 -18.7989 18.7963
-20.6813 -17.3 18.7963
-19.3967 -11.6246 18.7964
-19.3967 -11.6246 20.3275
25.4966 -0.590174 -52.6625
27.1 4.22 -52.6625
-19.3967 -11.6246 5.72655
-20.6813 -17.3 5.72653
-26.2333 12.4814 5.72661
-22.5387 8.37638 5.7266
-20.6479 27.0714 -10.4025
-20.6479 27.0714 -8.87251
-20.7818 27.78 -10.4025
-20.7818 27.78 -8.87251
-10.2796 -27.78 -8.87251
-10.2796 -27.78 -10.4025
-25.6968 9.60348 -10.4025
-26.2333 12.4814 -10.4025
-27.0698 16.9687 -8.87251
-14.2237 -6.91461 -50.6925
-21.3994 -13.448 -50.6925
-25.6968 9.60348 -50.6925
-12.24 -27.78 -52.6625
-12.24 -27.78 -50.6925
-16.52 -25.64 -50.6925
-16.52 -25.64 -52.6625
-19.851 -21.7538 -52.6625
-19.851 -21.7538 -50.6925
-25.6638 22.6486 -52.6625
-25.6638 22.6486 -50.6925
-21.6285 26.8963 -50.6925
-21.6285 26.8963 -52.6625
-26.68 19.6 -50.6925
-26.68 19.6 -52.6625
-27.0698 16.9687 -52.6625
-27.0698 16.9687 -50.6925
-20.6479 27.0714 -52.6625
-20.6479 27.0714 -50.6925
-20.7818 27.78 -52.6625
-20.7818 27.78 -50.6925
-10.2796 -27.78 -50.6925
-10.2796 -27.78 -52.6625
17.6873 -7.25395 -23.4724
23.9787 14.0427 -23.4724
27.1 7.8 -23.4724
-18.68 -23.12 18.7963
-18.68 -23.12 20.3275
-20.0772 -20.5405 18.7963
23.9787 14.0427 52.5625
27.1 7.8 52.5625
25.4966 -0.590174 52.5625
27.1 4.22 52.5625
-9.11617 25.7311 4.19755
-9.11617 25.7311 -8.87251
-7.51557 25.1658 -8.87251
-7.51557 25.1658 4.19755
-14.2237 -6.91461 34.9275
-14.2237 -6.91461 33.3975
-18.68 -23.12 33.3975
-18.68 -23.12 34.9275
-12.24 -27.78 33.3975
-12.24 -27.78 34.9275
-16.52 -25.64 34.9275
-16.52 -25.64 33.3975
19.0752 -6.06964 4.19755
27.1 4.59297 -8.87251
27.1 4.59297 4.19755
-22.3079 8.11988 20.3275
-22.3079 8.11988 33.3975
-27.1 13.4444 33.3975
-6.36717 -27.78 33.3975
-22.3079 8.11988 52.5625
-20.6813 -17.3 -50.6925
-27.1 13.4444 34.9275
-20.6813 -17.3 -52.6625
-14.9174 27.78 33.3975
-16.6841 6.10147 18.7964
-20.6813 -17.3 4.19755
-14.9174 27.78 18.7965
-12.24 -27.78 18.7963
-12.24 -27.78 20.3275
-16.52 -25.64 20.3275
-16.52 -25.64 18.7963
-25.6638 22.6486 18.7964
-25.6638 22.6486 20.3275
-21.6285 26.8963 20.3275
-21.6285 26.8963 18.7964
-26.68 19.6 20.3275
-26.68 19.6 18.7964
-27.1 16.765 18.7964
-27.0698 16.9687 18.7964
-27.1 16.765 20.3275
-20.6479 27.0714 18.7964
-20.6479 27.0714 20.3275
-27.0698 16.9687 5.72662
-25.6968 9.60348 5.7266
-21.3994 -13.448 5.72654
-26.2333 12.4814 -50.6925
24.5922 -1.36189 -25.0024
24.5922 -1.36189 -38.0721
-26.68 19.6 -10.4025
-0.0943558 -22.4273 -23.4724
1.13887 -21.375 -23.4724
-18.1869 -10.5231 18.7964
-18.1869 -10.5231 5.72655
-14.6203 -4.81648 5.72657
-14.6203 -4.81648 18.7964
-16.0927 2.97276 5.72659
-16.0927 2.97276 18.7964
17.6873 -7.25395 -25.0024
-16.693 6.14855 33.3975
23.9787 14.0427 -25.0024
-16.693 6.14855 34.9275
27.1 7.8 -25.0024
-10.2796 -27.78 34.9275
25.7716 10.4568 -23.4724
-10.2796 -27.78 33.3975
27.1 4.22 -25.0024
25.4966 -0.590174 -25.0024
25.4966 -0.590174 -23.4724
27.1 4.22 -23.4724
14.8671 -4.78619 -8.87251
10.9643 -4.64164 -8.87251
10.9643 -4.64164 4.19755
14.8671 -4.78619 4.19755
-26.68 19.6 4.19755
-26.68 19.6 -8.87251
-26.2333 12.4814 -52.6625
-22.5387 8.37638 -52.6625
-22.3079 8.11988 34.9275
14.4036 -4.76902 34.9275
10.9643 -4.64164 34.9275
-20.7818 27.78 20.3275
14.4036 -4.76902 52.5625
-14.2237 -6.91461 18.7964
-20.7818 27.78 18.7965
-10.2796 -27.78 18.7963
-10.2796 -27.78 20.3275
19.0752 -6.06964 -23.4724
-21.3994 -13.448 -10.4025
-21.3994 -13.448 4.19755
-27.1 16.765 52.5625
-21.3994 -13.448 -8.87251
-27.0698 16.9687 -10.4025
22.069 -3.515 4.19755
-14.2237 -6.91461 20.3275
-20.6813 -17.3 -10.4025
-6.36717 -27.78 -8.87251
-6.36717 -27.78 -10.4025
13.0379 17.9068 -38.0721
-20.6479 27.0714 52.5625
-6.36717 -27.78 -23.4724
-6.36717 -27.78 -25.0024
23.9787 14.0427 -38.0721
27.1 7.8 -38.0721
-27.0698 16.9687 4.19755
-0.305212 -11.9529 -8.87251
-0.305212 -11.9529 4.19755
1.13887 -21.375 4.19755
9.06239 -3.90263 4.19755
27.1 4.22 -38.0721
25.4966 -0.590174 -38.0721
27.1 0.778023 -39.6022
-16.6841 6.10147 5.7266
27.1 0.778023 -38.0721
-6.36717 -27.78 -38.0721
-6.36717 -27.78 -39.6022
9.06239 -3.90263 -8.87251
18.7933 -6.3102 20.3275
-6.36717 -27.78 20.3275
-6.36717 -27.78 18.7963
7.16727 11.445 5.72663
7.16727 11.445 18.7964
14.6718 17.3297 5.72666
-5.481 15.7929 5.72663
-5.481 15.7929 18.7964
-9.11617 25.7311 5.72666
-7.51557 25.1658 5.72666
-26.68 19.6 5.72662
27.1 4.59297 5.72663
-20.6479 27.0714 4.19755
-20.6479 27.0714 5.72665
22.069 -3.515 52.5625
16.7064 -5.57753 52.5625
19.0752 -6.06964 5.7266
-20.7818 27.78 52.5625
19.0752 -6.06964 18.7964
-16.693 6.14855 52.5625
13.0379 17.9068 52.5625
-20.7818 27.78 4.19755
-4.55624 1.88751 52.5625
-20.7818 27.78 5.72665
-10.2796 -27.78 4.19755
-10.2796 -27.78 5.72651
-26.2333 12.4814 -8.87251
-26.2333 12.4814 4.19755
-6.36717 -27.78 5.72652
18.1518 16.1006 5.72666
-6.36717 -27.78 4.19755
-14.9174 27.78 -23.4724
-14.9174 27.78 -25.0024
-25.6968 9.60348 4.19755
-25.6968 9.60348 -8.87251
-16.693 6.14855 20.3275
-14.9174 27.78 -50.6925
-14.9174 27.78 -52.6625
27.1 12.9403 -52.6625
27.1 12.9403 -50.6925
-14.9174 27.78 -10.4025
-27.1 13.4444 52.5625
-14.9174 27.78 4.19755
-6.36717 -27.78 -50.6925
18.7933 -6.3102 34.9275
-14.9174 27.78 52.5625
14.6718 17.3297 -8.87251
14.6718 17.3297 4.19755
18.7933 -6.3102 33.3975
-14.9174 27.78 5.72666
-9.11617 25.7311 33.3975
-14.9174 27.78 -39.6022
27.1 12.9403 -39.6022
-14.9174 27.78 -38.0721
14.6718 17.3297 33.3975
-14.9174 27.78 -8.87251
27.1 12.9403 -38.0721
27.1 4.59297 33.3975
-14.9174 27.78 34.9275
0.479403 -17.0722 -8.87251
-6.36717 -27.78 34.9275
-7.51557 25.1658 33.3975
-19.851 -21.7538 18.7963
-0.0943558 -22.4273 4.19755
-25.6638 22.6486 52.5625
0.479403 -17.0722 4.19755
-21.6285 26.8963 52.5625
-14.9174 27.78 20.3275
-26.68 19.6 52.5625
-6.36717 -27.78 -52.6625
4  424 481 537 563  255 0 0
4  424 581 478 481  255 0 0
4  424 196 197 581  255 0 0
4  421 581 197 564  255 0 0
4  421 572 318 317  255 0 0
4  421 317 478 581  255 0 0
6  421 564 575 202 201 572  255 0 0
4  416 462 460 574  0 255 0
4  416 574 19 20  0 255 0
4  556 535 359 569  255 0 0
4  556 563 537 535  255 0 0
14  556 398 401 561 47 236 321 324 543 252 519 523 522 563  255 0 0
4  424 563 522 196  255 0 0
4  554 358 336 545  255 0 0
4  545 336 335 546  255 0 0
5  545 139 389 172 554  255 0 0
4  572 559 531 318  255 0 0
4  572 201 534 559  255 0 0
7  574 460 402 2 477 298 19  0 255 0
4  546 335 276 567  255 0 0
4  567 276 275 565  255 0 0
4  570 102 101 499  255 0 0
4  567 495 138 546  255 0 0
4  569 359 358 554  255 0 0
4  569 399 398 556  255 0 0
4  515 483 462 416  0 255 0
4  515 416 20 169  0 255 0
4  550 385 384 551  255 0 0
10  566 97 241 246 508 510 506 500 102 570  255 0 0
4  565 275 385 550  255 0 0
4  553 96 95 124  255 0 0
4  566 242 94 97  255 0 0
4  550 239 238 565  255 0 0
4  493 360 538 544  0 255 0
4  544 538 539 542  0 255 0
4  493 544 577 106  0 255 0
6  559 534 536 533 496 531  255 0 0
4  558 19 298 299  255 0 0
4  558 68 69 562  255 0 0
4  558 299 184 68  255 0 0
4  497 337 361 494  0 255 0
4  494 361 360 493  0 255 0
4  497 494 107 447  0 255 0
4  516 482 483 515  0 255 0
4  542 539 482 516  0 255 0
4  542 516 227 319  0 255 0
4  511 277 338 498  0 255 0
4  498 338 337 497  0 255 0
3  510 507 506  255 0 0
4  511 498 455 11  0 255 0
4  557 386 278 512  0 255 0
4  512 278 277 511  0 255 0
3  508 246 245  255 0 0
4  557 512 12 18  0 255 0
4  538 279 280 539  0 255 0
4  360 192 279 538  0 255 0
4  535 526 357 359  255 0 0
4  539 280 425 482  0 255 0
4  482 425 426 483  0 255 0
4  481 438 527 537  255 0 0
4  232 225 525 328  255 0 0
6  328 525 323 322 412 325  255 0 0
4  327 301 302 233  255 0 0
4  232 328 327 233  255 0 0
10  551 384 382 8 5 10 350 351 552 123  255 0 0
6  552 351 243 240 96 553  255 0 0
4  553 124 123 552  255 0 0
5  551 123 124 239 550  255 0 0
4  583 387 386 557  0 255 0
5  583 10 5 6 387  0 255 0
4  583 557 18 10  0 255 0
4  438 432 315 527  255 0 0
4  436 290 354 440  255 0 0
4  436 440 524 434  255 0 0
4  524 314 429 434  255 0 0
4  315 432 31 103  255 0 0
4  429 314 103 31  255 0 0
5  312 353 347 393 576  0 255 0
3  576 393 391  0 255 0
5  576 391 428 281 312  0 255 0
9  554 172 175 237 48 560 400 399 569  255 0 0
8  570 499 495 567 565 238 242 566  255 0 0
4  325 412 411 179  255 0 0
5  179 411 174 173 176  255 0 0
4  178 85 490 326  255 0 0
4  325 179 178 326  255 0 0
4  321 236 237 175  255 0 0
4  174 411 412 322  255 0 0
4  321 175 83 82  255 0 0
5  322 82 83 137 174  255 0 0
4  228 110 543 324  255 0 0
4  323 525 225 229  255 0 0
4  229 225 226 230  255 0 0
4  228 324 77 76  255 0 0
4  229 76 77 323  255 0 0
4  227 532 530 319  255 0 0
4  422 454 453 509  0 0 255
6  509 453 352 442 441 355  0 0 255
4  281 428 425 280  0 255 0
4  546 138 139 545  255 0 0
6  170 108 58 573 154 156  0 255 0
4  320 410 254 155  255 0 0
4  170 156 253 87  255 0 0
6  320 155 153 579 57 504  0 255 0
4  505 469 468 513  255 0 0
4  513 468 152 151  0 255 0
4  505 150 149 469  0 255 0
4  505 513 151 150  0 255 0
3  441 354 355  255 0 0
4  422 509 355 291  255 0 0
5  562 69 200 303 514  255 0 0
4  562 20 19 558  255 0 0
4  514 169 20 562  255 0 0
4  483 426 406 462  0 255 0
4  462 406 407 460  0 255 0
4  549 16 17 456  255 0 0
3  549 167 16  255 0 0
4  456 168 167 549  255 0 0
4  427 392 404 409  0 255 0
4  427 409 406 426  0 255 0
4  404 392 50 49  0 255 0
4  491 162 161 403  0 0 255
4  491 403 257 349  0 255 0
6  544 542 319 320 504 577  0 255 0
10  319 530 89 301 327 326 490 135 410 320  255 0 0
4  526 316 343 357  255 0 0
4  361 191 192 360  0 255 0
4  337 295 191 361  0 255 0
4  358 356 334 336  255 0 0
4  458 15 13 533  255 0 0
4  458 300 2 310  255 0 0
4  533 536 300 458  255 0 0
12  533 13 14 119 120 555 487 582 578 118 580 496  255 0 0
4  531 496 288 318  255 0 0
4  0 451 452 480  0 0 255
4  442 352 248 249  0 255 0
3  0 450 451  0 0 255
4  0 480 449 450  0 255 0
4  225 232 235 226  255 0 0
6  523 519 148 145 142 144  255 0 0
4  520 142 141 521  255 0 0
3  521 141 143  255 0 0
4  223 221 222 224  255 0 0
4  223 196 45 46  255 0 0
3  523 144 522  255 0 0
3  520 144 142  255 0 0
6  223 46 74 75 147 221  255 0 0
4  521 143 144 520  255 0 0
4  519 252 251 148  255 0 0
4  518 132 130 517  255 0 0
3  517 130 129  255 0 0
4  221 39 40 222  255 0 0
3  518 131 132  255 0 0
4  221 147 250 39  255 0 0
4  518 517 129 131  255 0 0
4  516 515 169 227  0 255 0
9  514 303 234 233 302 90 532 227 169  255 0 0
4  512 511 11 12  0 255 0
8  510 508 245 166 12 11 445 507  255 0 0
4  503 150 151 502  0 255 0
4  108 106 56 58  0 255 0
5  502 151 152 156 154  0 255 0
5  503 153 155 149 150  0 255 0
4  504 57 55 577  0 255 0
4  503 502 154 153  0 255 0
4  501 541 540 364  255 0 0
4  501 364 472 471  255 0 0
6  498 497 447 448 388 455  0 255 0
4  356 344 308 334  255 0 0
4  496 580 214 288  255 0 0
4  494 493 106 107  0 255 0
4  108 170 171 109  0 255 0
4  170 87 88 171  255 0 0
4  277 260 294 338  0 255 0
4  338 294 295 337  0 255 0
4  335 333 274 276  255 0 0
4  333 309 267 274  255 0 0
4  456 17 15 458  255 0 0
4  278 259 260 277  0 255 0
4  386 369 259 278  0 255 0
4  275 273 383 385  255 0 0
4  489 363 112 332  255 0 0
4  489 332 329 446  255 0 0
4  286 419 415 285  255 0 0
4  487 555 419 286  255 0 0
4  487 286 283 582  255 0 0
4  283 213 578 582  255 0 0
4  214 580 118 24  255 0 0
4  578 213 24 118  255 0 0
4  478 439 438 481  255 0 0
8  480 452 454 422 167 158 162 491  0 0 255
4  317 287 439 478  255 0 0
4  287 215 431 439  255 0 0
4  437 293 289 435  255 0 0
4  285 415 293 437  255 0 0
4  285 437 433 284  255 0 0
4  433 430 216 284  255 0 0
4  431 215 23 32  255 0 0
4  216 430 32 23  255 0 0
4  331 113 114 272  255 0 0
4  331 272 269 330  255 0 0
4  472 342 313 471  255 0 0
4  343 316 104 105  255 0 0
4  313 342 105 104  255 0 0
4  340 198 423 311  0 255 0
4  311 282 193 340  0 255 0
9  460 407 408 405 255 53 51 258 402  0 255 0
4  458 310 168 456  255 0 0
6  403 161 157 168 310 402  0 0 255
4  269 266 306 330  255 0 0
4  267 309 29 92  255 0 0
4  306 266 92 29  255 0 0
4  273 268 376 383  255 0 0
4  271 115 443 381  255 0 0
4  271 381 378 270  255 0 0
4  378 375 265 270  255 0 0
4  376 268 84 44  255 0 0
4  265 375 44 84  255 0 0
4  329 307 341 446  255 0 0
4  308 344 93 30  255 0 0
4  341 307 30 93  255 0 0
4  305 116 492 339  0 255 0
4  339 194 296 305  0 255 0
4  264 121 117 304  0 255 0
4  304 297 261 264  0 255 0
8  442 249 353 312 311 423 185 486  0 255 0
4  441 442 486 547  0 0 255
6  440 354 441 547 541 501  255 0 0
4  256 49 50 345  0 255 0
4  257 52 38 349  0 255 0
4  345 42 54 256  0 255 0
4  439 431 432 438  255 0 0
4  435 289 290 436  255 0 0
5  437 435 436 434 433  255 0 0
4  430 433 434 429  255 0 0
4  432 431 32 31  255 0 0
4  430 429 31 32  255 0 0
4  392 427 428 391  0 255 0
4  428 427 426 425  0 255 0
4  16 160 159 17  255 0 0
4  16 292 413 160  255 0 0
5  16 167 422 291 292  255 0 0
4  417 13 15 475  255 0 0
5  475 15 17 159 414  255 0 0
3  417 14 13  255 0 0
4  555 120 36 419  255 0 0
4  417 475 21 14  255 0 0
4  409 404 405 408  0 255 0
4  414 159 160 413  255 0 0
5  415 35 63 28 293  255 0 0
4  414 413 292 22  255 0 0
4  292 26 33 22  255 0 0
4  87 59 60 88  255 0 0
4  410 135 133 254  255 0 0
4  87 253 134 59  255 0 0
4  409 408 407 406  0 255 0
5  405 404 49 256 255  0 255 0
3  402 310 2  0 0 255
4  403 402 258 257  0 255 0
4  400 560 561 401  255 0 0
4  401 398 399 400  255 0 0
4  397 395 205 210  255 0 0
5  210 205 204 571 207  255 0 0
4  209 199 528 396  255 0 0
11  396 528 183 529 479 536 534 394 98 395 397  255 0 0
4  397 210 209 396  255 0 0
4  394 534 201 206  255 0 0
6  206 201 202 568 211 203  255 0 0
4  394 206 99 98  255 0 0
4  395 98 99 205  255 0 0
4  208 200 199 209  255 0 0
4  207 571 226 235  255 0 0
4  234 303 200 208  255 0 0
4  207 235 234 208  255 0 0
4  203 211 111 231  255 0 0
4  231 111 110 228  255 0 0
4  230 226 571 204  255 0 0
4  203 231 81 80  255 0 0
4  204 80 81 230  255 0 0
4  373 418 122 263  0 255 0
4  263 262 370 373  0 255 0
4  193 282 279 192  0 255 0
4  296 194 191 295  0 255 0
4  537 527 526 535  255 0 0
4  532 90 89 530  255 0 0
4  261 297 294 260  0 255 0
4  196 223 224 197  255 0 0
4  143 74 46 45  255 0 0
5  143 45 196 522 144  255 0 0
4  393 347 41 346  0 255 0
6  345 50 392 391 393 346  0 255 0
5  480 491 349 348 449  0 255 0
4  176 173 390 466  255 0 0
4  466 390 459 463  255 0 0
4  465 164 163 177  255 0 0
5  177 163 86 85 178  255 0 0
4  176 466 465 177  255 0 0
4  389 139 138 457  255 0 0
4  172 389 79 78  255 0 0
4  173 136 461 390  255 0 0
4  171 88 484 388  255 0 0
4  388 448 109 171  0 255 0
9  388 484 91 140 164 465 464 444 455  255 0 0
4  381 443 473 380  255 0 0
4  387 368 369 386  0 255 0
9  387 6 72 220 64 420 372 371 368  0 255 0
4  385 383 382 384  255 0 0
9  382 377 43 374 379 380 473 474 8  255 0 0
4  383 376 377 382  255 0 0
4  381 380 379 378  255 0 0
4  375 378 379 374  255 0 0
4  377 376 44 43  255 0 0
4  375 374 43 44  255 0 0
4  372 420 418 373  0 255 0
4  373 370 371 372  0 255 0
4  371 370 369 368  0 255 0
5  8 219 73 6 5  0 0 255
4  9 218 219 8  0 0 255
4  367 443 115 128  255 0 0
5  367 366 217 180 181  0 0 255
4  9 7 212 218  0 0 255
4  367 181 7 443  255 0 0
4  9 8 474 7  255 0 0
3  365 70 71  0 0 255
4  6 73 70 365  0 0 255
4  366 182 65 217  0 255 0
4  366 367 128 126  0 0 255
4  6 365 71 72  0 255 0
4  189 112 363 362  255 0 0
4  362 485 187 189  0 0 255
6  364 540 548 362 363 489  255 0 0
8  339 492 195 485 488 186 198 340  0 255 0
4  359 357 356 358  255 0 0
4  357 343 344 356  255 0 0
4  190 188 125 127  0 0 255
4  127 114 113 190  255 0 0
6  290 27 25 291 355 354  255 0 0
4  352 450 449 348  0 255 0
3  353 249 248  0 255 0
5  347 353 248 247 37  0 255 0
4  348 247 248 352  0 255 0
4  560 48 47 561  255 0 0
4  548 540 541 547  255 0 0
4  548 488 485 362  0 0 255
4  547 486 488 548  0 0 255
4  486 185 186 488  0 255 0
4  147 131 129 148  255 0 0
3  110 39 250  255 0 0
4  148 129 130 145  255 0 0
3  543 251 252  255 0 0
4  110 250 251 543  255 0 0
4  147 148 251 250  255 0 0
4  364 489 446 472  255 0 0
4  300 476 477 2  255 0 0
4  536 479 476 300  255 0 0
3  199 68 184  255 0 0
4  299 476 479 529  255 0 0
4  529 183 184 299  255 0 0
4  199 184 183 528  255 0 0
4  527 315 316 526  255 0 0
4  440 501 471 524  255 0 0
4  314 524 471 313  255 0 0
4  136 78 79 461  255 0 0
4  244 165 166 245  255 0 0
5  350 10 18 165 244  255 0 0
4  243 351 350 244  255 0 0
4  370 262 259 369  0 255 0
4  463 459 500 506  255 0 0
4  507 445 444 464  255 0 0
4  463 506 507 464  255 0 0
4  457 138 495 499  255 0 0
3  500 101 102  255 0 0
4  457 499 101 100  255 0 0
4  459 100 101 500  255 0 0
4  455 444 445 11  255 0 0
4  485 195 66 187  0 255 0
4  116 66 195 492  0 255 0
4  188 67 61 125  0 255 0
4  121 61 67 117  0 255 0
3  85 59 134  255 0 0
4  253 467 470 254  255 0 0
5  254 470 469 149 155  255 0 0
3  490 133 135  255 0 0
4  254 133 134 253  255 0 0
4  85 134 133 490  255 0 0
4  342 472 446 341  255 0 0
4  88 60 91 484  255 0 0
4  579 153 154 573  0 255 0
4  106 108 109 107  0 255 0
3  573 58 56  0 255 0
3  579 55 57  0 255 0
4  579 573 56 55  0 255 0
4  577 55 56 106  0 255 0
5  224 222 568 202 575  255 0 0
4  575 564 197 224  255 0 0
5  222 40 111 211 568  255 0 0
5  349 38 37 247 348  0 255 0
5  347 37 38 42 41  0 255 0
4  346 41 42 345  0 255 0
6  344 343 105 342 341 93  255 0 0
4  340 193 194 339  0 255 0
4  116 305 304 117  0 255 0
4  187 66 67 188  0 255 0
4  189 187 188 190  0 0 255
4  112 189 190 113  255 0 0
4  332 112 113 331  255 0 0
4  117 67 66 116  0 255 0
4  336 334 333 335  255 0 0
4  334 308 309 333  255 0 0
4  332 331 330 329  255 0 0
4  307 329 330 306  255 0 0
4  328 325 326 327  255 0 0
6  324 321 82 322 323 77  255 0 0
4  318 288 287 317  255 0 0
6  316 315 103 314 313 104  255 0 0
4  312 281 282 311  0 255 0
4  42 38 52 54  0 255 0
4  309 308 30 29  255 0 0
4  307 306 29 30  255 0 0
4  305 296 297 304  0 255 0
4  200 69 68 199  255 0 0
4  301 89 90 302  255 0 0
4  298 477 476 299  255 0 0
4  297 296 295 294  0 255 0
5  293 28 27 290 289  255 0 0
4  292 291 25 26  255 0 0
4  288 214 215 287  255 0 0
4  286 285 284 283  255 0 0
4  213 283 284 216  255 0 0
4  282 281 280 279  0 255 0
4  121 264 263 122  0 255 0
4  125 61 62 126  0 255 0
4  127 125 126 128  0 0 255
4  114 127 128 115  255 0 0
4  272 114 115 271  255 0 0
4  276 274 273 275  255 0 0
4  274 267 268 273  255 0 0
4  272 271 270 269  255 0 0
4  266 269 270 265  255 0 0
6  268 267 92 266 265 84  255 0 0
4  264 261 262 263  0 255 0
4  262 261 260 259  0 255 0
4  258 51 52 257  0 255 0
4  54 52 51 53  0 255 0
4  256 54 53 255  0 255 0
5  156 152 468 467 253  255 0 0
4  39 110 111 40  255 0 0
4  246 241 240 243  255 0 0
4  246 243 244 245  255 0 0
3  241 97 94  255 0 0
4  242 238 239 124  255 0 0
3  240 95 96  255 0 0
4  242 124 95 94  255 0 0
4  241 94 95 240  255 0 0
4  12 166 165 18  255 0 0
4  236 47 48 237  255 0 0
4  235 232 233 234  255 0 0
6  231 228 76 229 230 81  255 0 0
6  217 71 70 218 212 180  0 0 255
4  218 70 73 219  0 0 255
4  220 72 71 217  0 255 0
4  215 214 24 23  255 0 0
4  213 216 23 24  255 0 0
4  419 36 35 415  255 0 0
4  475 414 22 21  255 0 0
4  7 181 180 212  0 0 255
4  443 7 474 473  255 0 0
4  470 467 468 469  255 0 0
4  466 463 464 465  255 0 0
7  389 457 100 459 390 461 79  255 0 0
4  453 451 450 352  0 0 255
4  454 452 451 453  0 0 255
4  448 447 107 109  0 255 0
4  126 62 182 366  0 255 0
4  418 182 62 122  0 255 0
4  122 62 61 121  0 255 0
3  418 65 182  0 255 0
4  210 207 208 209  255 0 0
6  206 203 80 204 205 99  255 0 0
4  198 186 185 423  0 255 0
4  418 420 64 65  0 255 0
4  217 65 64 220  0 255 0
4  194 193 192 191  0 255 0
4  179 176 177 178  255 0 0
6  175 172 78 136 137 83  255 0 0
4  174 137 136 173  255 0 0
4  168 157 158 167  0 0 255
4  164 140 86 163  255 0 0
4  162 158 157 161  0 0 255
4  146 141 142 145  255 0 0
5  146 132 131 147 75  255 0 0
4  145 130 132 146  255 0 0
5  146 75 74 143 141  255 0 0
4  140 91 60 86  255 0 0
4  86 60 59 85  255 0 0
4  36 34 33 35  255 0 0
4  120 119 34 36  255 0 0
4  34 21 22 33  255 0 0
4  119 14 21 34  255 0 0
5  63 26 25 27 28  255 0 0
4  35 33 26 63  255 0 0
11  128 367 509 355 441 547 548 362 189 190 127  0 0 255
11  367 128 127 190 189 362 548 547 441 355 509  255 0 0
6  422 509 2 310 168 167  0 0 255
6  509 422 167 168 310 2  255 0 0
9  477 2 1 505 227 169 20 19 298  0 255 0
9  2 477 298 19 20 169 227 505 1  255 0 0
7  319 227 505 469 149 155 320  0 255 0
7  227 319 320 155 149 469 505  255 0 0
4  513 505 1 3  0 255 0
4  505 513 3 1  255 0 0
13  468 513 3 4 18 12 11 455 388 171 170 156 152  0 255 0
13  513 468 152 156 170 171 388 455 11 12 18 4 3  255 0 0
4  10 18 4 5  0 255 0
4  18 10 5 4  255 0 0
4  8 5 4 9  0 0 255
4  8 9 4 5  255 0 0
6  7 9 4 3 367 181  0 0 255
6  9 7 181 367 3 4  255 0 0
4  509 367 1 2  0 0 255
4  367 509 2 1  255 0 0
3  367 1 3  255 0 0
3  367 3 1  0 0 255
6  402 2 0 480 491 403  0 0 255
6  2 402 403 491 480 0  0 255 0
8  450 0 187 485 488 486 442 352  0 0 255
8  0 450 352 442 486 488 485 187  0 255 0
10  188 187 0 2 365 71 217 366 126 125  0 0 255
10  187 188 125 126 366 217 71 365 2 0  0 255 0
7  6 365 2 1 3 4 5  0 0 255
7  365 6 5 4 3 1 2  0 255 0

