COFF
1338 2316 0

26.2 9.6 52.5625
25.24 11.52 52.5625
23.8 13.2 52.5625
22.04 14.56 52.5625
-15.08 27.6 52.5625
-17.24 27.68 52.5625
-19.48 27.28 52.5625
-21.48 26.4 52.5625
-23.24 25.2 52.5625
-24.76 23.6 52.5625
-25.96 21.76 52.5625
-26.68 19.6 52.5625
-27 17.44 52.5625
-26.76 15.28 52.5625
-26.12 13.2 52.5625
-25.08 11.2 52.5625
-23.64 9.52 52.5625
-21.88 8.24 52.5625
-13 27.12 52.5625
-19.96 7.28 52.5625
13.08 -4.32 52.5625
20.04 15.44 52.5625
15.24 -4.8 52.5625
17.4 -4.88 52.5625
19.56 -4.48 52.5625
21.64 -3.68 52.5625
23.4 -2.4 52.5625
24.92 -0.799999 52.5625
26.04 1.04 52.5625
26.76 3.2 52.5625
27 5.28 52.5625
26.84 7.44 52.5625
26.2 9.6 34.9275
25.24 11.52 34.9275
25.24 11.52 47.9975
26.2 9.6 47.9975
23.8 13.2 34.9275
23.8 13.2 47.9975
22.04 14.56 34.9275
22.04 14.56 47.9975
20.04 15.44 34.9275
20.04 15.44 47.9975
-13 27.12 34.9275
-13 27.12 47.9975
-15.08 27.6 34.9275
-15.08 27.6 47.9975
-17.24 27.68 34.9275
-17.24 27.68 47.9975
-19.48 27.28 34.9275
-19.48 27.28 47.9975
-21.48 26.4 34.9275
-21.48 26.4 47.9975
-23.24 25.2 34.9275
-23.24 25.2 47.9975
-24.76 23.6 34.9275
-24.76 23.6 47.9975
-25.96 21.76 34.9275
-25.96 21.76 47.9975
-26.68 19.6 34.9275
-26.68 19.6 47.9975
-27 17.44 34.9275
-27 17.44 47.9975
-26.76 15.28 34.9275
-26.76 15.28 47.9975
-26.12 13.2 34.9275
-26.12 13.2 47.9975
-25.08 11.2 34.9275
-25.08 11.2 47.9975
-23.64 9.52 34.9275
-23.64 9.52 47.9975
-21.88 8.24 34.9275
-21.88 8.24 47.9975
-19.96 7.28 34.9275
-19.96 7.28 47.9975
13.08 -4.32 34.9275
13.08 -4.32 47.9975
15.24 -4.8 34.9275
15.24 -4.8 47.9975
17.4 -4.88 34.9275
17.4 -4.88 47.9975
19.56 -4.48 34.9275
19.56 -4.48 47.9975
21.64 -3.68 34.9275
21.64 -3.68 47.9975
23.4 -2.4 34.9275
23.4 -2.4 47.9975
24.92 -0.799999 34.9275
24.92 -0.799999 47.9975
26.04 1.04 34.9275
26.04 1.04 47.9975
26.76 3.2 34.9275
26.76 3.2 47.9975
27 5.28 34.9275
27 5.28 47.9975
26.84 7.44 34.9275
26.84 7.44 47.9975
-11.4 -27.6 -39.6022
-9.16 -27.68 -39.6022
-7 -27.28 -39.6022
-5 -26.4 -39.6022
-15.08 27.6 -39.6022
-17.24 27.68 -39.6022
-19.48 27.28 -39.6022
-21.48 26.4 -39.6022
-23.24 25.2 -39.6022
-24.76 23.6 -39.6022
-25.96 21.76 -39.6022
-26.68 19.6 -39.6022
-27 17.44 -39.6022
-26.76 15.28 -39.6022
-13 27.12 -39.6022
20.04 15.44 -39.6022
22.04 14.56 -39.6022
23.8 13.2 -39.6022
25.24 11.52 -39.6022
26.2 9.6 -39.6022
26.84 7.44 -39.6022
27 5.28 -39.6022
26.76 3.2 -39.6022
26.04 1.04 -39.6022
24.92 -0.799999 -39.6022
23.4 -2.4 -39.6022
-3.24 -25.12 -39.6022
-20.36 -19.12 -39.6022
-19.72 -21.2 -39.6022
-18.68 -23.12 -39.6022
-17.24 -24.8 -39.6022
-15.48 -26.16 -39.6022
-13.56 -27.12 -39.6022
-11.4 -27.6 -50.6925
-9.16 -27.68 -50.6925
-7 -27.28 -50.6925
-5 -26.4 -50.6925
-3.24 -25.12 -50.6925
23.4 -2.4 -50.6925
24.92 -0.799999 -50.6925
26.04 1.04 -50.6925
26.76 3.2 -50.6925
27 5.28 -50.6925
26.84 7.44 -50.6925
26.2 9.6 -50.6925
25.24 11.52 -50.6925
23.8 13.2 -50.6925
22.04 14.56 -50.6925
20.04 15.44 -50.6925
-13 27.12 -50.6925
-15.08 27.6 -50.6925
-17.24 27.68 -50.6925
-19.48 27.28 -50.6925
-21.48 26.4 -50.6925
-23.24 25.2 -50.6925
-24.76 23.6 -50.6925
-25.96 21.76 -50.6925
-26.68 19.6 -50.6925
-27 17.44 -50.6925
-26.76 15.28 -50.6925
-20.36 -19.12 -50.6925
-19.72 -21.2 -50.6925
-18.68 -23.12 -50.6925
-17.24 -24.8 -50.6925
-15.48 -26.16 -50.6925
-13.56 -27.12 -50.6925
-19.56 -12.72 33.3975
-20.2 -14.8 33.3975
-20.52 -16.96 33.3975
-15.08 27.6 33.3975
-17.24 27.68 33.3975
-19.48 27.28 33.3975
-21.48 26.4 33.3975
-23.24 25.2 33.3975
-24.76 23.6 33.3975
-25.96 21.76 33.3975
-26.68 19.6 33.3975
-27 17.44 33.3975
-26.76 15.28 33.3975
-26.12 13.2 33.3975
-25.08 11.2 33.3975
-23.64 9.52 33.3975
-21.88 8.24 33.3975
-13 27.12 33.3975
-19.96 7.28 33.3975
-16.84 6.16 33.3975
20.04 15.44 33.3975
22.04 14.56 33.3975
23.8 13.2 33.3975
25.24 11.52 33.3975
26.2 9.6 33.3975
26.84 7.44 33.3975
27 5.28 33.3975
26.76 3.2 33.3975
26.04 1.04 33.3975
24.92 -0.799999 33.3975
23.4 -2.4 33.3975
-14.36 -7.12 33.3975
-16.84 -9.2 33.3975
-3.24 -25.12 33.3975
-5 -26.4 33.3975
-7 -27.28 33.3975
-9.16 -27.68 33.3975
-11.4 -27.6 33.3975
-13.56 -27.12 33.3975
-15.48 -26.16 33.3975
-17.24 -24.8 33.3975
-18.68 -23.12 33.3975
-19.72 -21.2 33.3975
-20.36 -19.12 33.3975
-18.36 -10.8 33.3975
-19.56 -12.72 20.3275
-20.2 -14.8 20.3275
-20.52 -16.96 20.3275
-20.36 -19.12 20.3275
-19.72 -21.2 20.3275
-18.68 -23.12 20.3275
-17.24 -24.8 20.3275
-15.48 -26.16 20.3275
-13.56 -27.12 20.3275
-11.4 -27.6 20.3275
-9.16 -27.68 20.3275
-7 -27.28 20.3275
-5 -26.4 20.3275
-3.24 -25.12 20.3275
23.4 -2.4 20.3275
24.92 -0.799999 20.3275
26.04 1.04 20.3275
26.76 3.2 20.3275
27 5.28 20.3275
26.84 7.44 20.3275
26.2 9.6 20.3275
25.24 11.52 20.3275
23.8 13.2 20.3275
22.04 14.56 20.3275
20.04 15.44 20.3275
-13 27.12 20.3275
-15.08 27.6 20.3275
-17.24 27.68 20.3275
-19.48 27.28 20.3275
-21.48 26.4 20.3275
-23.24 25.2 20.3275
-24.76 23.6 20.3275
-25.96 21.76 20.3275
-26.68 19.6 20.3275
-27 17.44 20.3275
-26.76 15.28 20.3275
-26.12 13.2 20.3275
-25.08 11.2 20.3275
-23.64 9.52 20.3275
-21.88 8.24 20.3275
-19.96 7.28 20.3275
-16.84 6.16 20.3275
-14.36 -7.12 20.3275
-16.84 -9.2 20.3275
-18.36 -10.8 20.3275
-9.24 24.88 18.7965
-7.8 23.2 18.7964
-6.76 21.2 18.7964
11.56 14.8 18.7964
13.56 15.68 18.7964
15.72 16 18.7965
17.88 16 18.7965
9.72 13.52 18.7964
20.04 15.44 18.7965
22.04 14.56 18.7965
7.24 11.44 18.7964
-20.52 -16.96 18.7963
-20.2 -14.8 18.7963
-19.56 -12.72 18.7963
-18.36 -10.8 18.7963
-20.36 -19.12 18.7963
-16.84 -9.2 18.7964
-19.72 -21.2 18.7963
-18.68 -23.12 18.7963
-17.24 -24.8 18.7963
-15.48 -26.16 18.7963
-13.56 -27.12 18.7963
-11.4 -27.6 18.7963
-9.16 -27.68 18.7963
-7 -27.28 18.7963
-5 -26.4 18.7963
-3.24 -25.12 18.7963
23.4 -2.4 18.7964
-14.36 -7.12 18.7964
-16.84 6.24 18.7964
24.92 -0.799999 18.7964
26.04 1.12 18.7964
26.76 3.2 18.7964
27 5.28 18.7964
26.84 7.44 18.7964
26.2 9.6 18.7964
25.24 11.52 18.7964
23.8 13.2 18.7965
0.840001 13.6 18.7964
-5.56 15.84 18.7964
-6.12 19.12 18.7964
-19.96 7.28 18.7964
-21.88 8.24 18.7964
-23.64 9.6 18.7964
-25.08 11.2 18.7964
-26.12 13.2 18.7964
-26.76 15.28 18.7964
-27 17.44 18.7964
-26.68 19.68 18.7964
-25.96 21.76 18.7964
-24.76 23.6 18.7964
-23.24 25.2 18.7964
-21.48 26.4 18.7964
-19.48 27.28 18.7964
-17.24 27.68 18.7965
-15.08 27.6 18.7965
-13 27.12 18.7965
-11 26.16 18.7965
-20.52 -16.96 5.72653
-20.2 -14.8 5.72654
-19.56 -12.72 5.72655
-18.36 -10.8 5.72655
-16.84 -9.2 5.72655
-14.36 -7.12 5.72656
-16.84 6.24 5.7266
-19.96 7.28 5.7266
-21.88 8.24 5.7266
-23.64 9.6 5.7266
-25.08 11.2 5.7266
-26.12 13.2 5.72661
-26.76 15.28 5.72661
-27 17.44 5.72662
-26.68 19.68 5.72662
-25.96 21.76 5.72663
-24.76 23.6 5.72663
-23.24 25.2 5.72664
-21.48 26.4 5.72665
-19.48 27.28 5.72665
-17.24 27.68 5.72665
-15.08 27.6 5.72666
-13 27.12 5.72666
-11 26.16 5.72666
-9.24 24.88 5.72665
-7.8 23.2 5.72665
-6.76 21.2 5.72665
-6.12 19.12 5.72664
-5.56 15.84 5.72663
0.840001 13.6 5.72663
7.24 11.44 5.72663
9.72 13.52 5.72664
11.56 14.8 5.72665
13.56 15.68 5.72665
15.72 16 5.72665
17.88 16 5.72666
20.04 15.44 5.72666
22.04 14.56 5.72666
23.8 13.2 5.72665
25.24 11.52 5.72665
26.2 9.6 5.72665
26.84 7.44 5.72664
27 5.28 5.72663
26.76 3.2 5.72663
26.04 1.12 5.72662
24.92 -0.799999 5.72662
23.4 -2.4 5.72661
-3.24 -25.12 5.72652
-5 -26.4 5.72652
-7 -27.28 5.72651
-9.16 -27.68 5.72651
-11.4 -27.6 5.72651
-13.56 -27.12 5.72651
-15.48 -26.16 5.72651
-17.24 -24.8 5.72651
-18.68 -23.12 5.72651
-19.72 -21.2 5.72652
-20.36 -19.12 5.72652
-11.32 -27.36 -38.0724
-9.16 -27.36 -38.0724
-7 -27.04 -38.0724
-5 -26.24 -38.0724
-15 27.28 -38.0724
-17.16 27.36 -38.0724
-19.32 26.96 -38.0724
-21.32 26.08 -38.0724
-23.08 24.88 -38.0724
-24.6 23.28 -38.0724
-25.72 21.44 -38.0724
-26.44 19.44 -38.0724
-26.68 17.2 -38.0724
-26.6 15.12 -38.0724
-12.92 26.8 -38.0724
19.8 15.28 -38.0724
21.8 14.32 -38.0724
23.48 13.04 -38.0724
24.92 11.44 -38.0724
25.88 9.44 -38.0724
26.52 7.44 -38.0724
26.76 5.2 -38.0724
26.44 3.12 -38.0724
25.72 1.04 -38.0724
24.6 -0.799999 -38.0724
23.08 -2.4 -38.0724
-3.24 -24.96 -38.0724
-20.2 -18.96 -38.0724
-19.56 -21.12 -38.0724
-18.52 -22.96 -38.0724
-17.08 -24.56 -38.0724
-15.4 -26 -38.0724
-13.4 -26.8 -38.0724
-11.32 -27.36 -39.6022
-9.16 -27.36 -39.6022
-7 -27.04 -39.6022
-5 -26.24 -39.6022
-3.24 -24.96 -39.6022
23.08 -2.4 -39.6022
24.6 -0.799999 -39.6022
25.72 1.04 -39.6022
26.44 3.12 -39.6022
26.76 5.2 -39.6022
26.52 7.44 -39.6022
25.88 9.44 -39.6022
24.92 11.44 -39.6022
23.48 13.04 -39.6022
21.8 14.32 -39.6022
19.8 15.28 -39.6022
-12.92 26.8 -39.6022
-15 27.28 -39.6022
-17.16 27.36 -39.6022
-19.32 26.96 -39.6022
-21.32 26.08 -39.6022
-23.08 24.88 -39.6022
-24.6 23.28 -39.6022
-25.72 21.44 -39.6022
-26.44 19.44 -39.6022
-26.68 17.2 -39.6022
-26.6 15.12 -39.6022
-20.2 -18.96 -39.6022
-19.56 -21.12 -39.6022
-18.52 -22.96 -39.6022
-17.08 -24.56 -39.6022
-15.4 -26 -39.6022
-13.4 -26.8 -39.6022
-11.4 -27.6 -25.0024
-9.16 -27.68 -25.0024
-7 -27.28 -25.0024
-5 -26.4 -25.0024
-15.08 27.6 -25.0024
-17.24 27.68 -25.0024
-19.48 27.28 -25.0024
-21.48 26.4 -25.0024
-23.24 25.2 -25.0024
-24.76 23.6 -25.0024
-25.96 21.76 -25.0024
-26.68 19.6 -25.0024
-27 17.44 -25.0024
-26.76 15.28 -25.0024
-13 27.12 -25.0024
20.04 15.44 -25.0024
22.04 14.56 -25.0024
23.8 13.2 -25.0024
25.24 11.52 -25.0024
26.2 9.6 -25.0024
26.84 7.44 -25.0024
27 5.28 -25.0024
26.76 3.2 -25.0024
26.04 1.04 -25.0024
24.92 -0.799999 -25.0024
23.4 -2.4 -25.0024
-3.24 -25.12 -25.0024
-20.36 -19.12 -25.0024
-19.72 -21.2 -25.0024
-18.68 -23.12 -25.0024
-17.24 -24.8 -25.0024
-15.48 -26.16 -25.0024
-13.56 -27.12 -25.0024
-11.4 -27.6 -38.0721
-9.16 -27.68 -38.0721
-7 -27.28 -38.0721
-5 -26.4 -38.0721
-3.24 -25.12 -38.0721
23.4 -2.4 -38.0721
24.92 -0.799999 -38.0721
26.04 1.04 -38.0721
26.76 3.2 -38.0721
27 5.28 -38.0721
26.84 7.44 -38.0721
26.2 9.6 -38.0721
25.24 11.52 -38.0721
23.8 13.2 -38.0721
22.04 14.56 -38.0721
20.04 15.44 -38.0721
-13 27.12 -38.0721
-15.08 27.6 -38.0721
-17.24 27.68 -38.0721
-19.48 27.28 -38.0721
-21.48 26.4 -38.0721
-23.24 25.2 -38.0721
-24.76 23.6 -38.0721
-25.96 21.76 -38.0721
-26.68 19.6 -38.0721
-27 17.44 -38.0721
-26.76 15.28 -38.0721
-20.36 -19.12 -38.0721
-19.72 -21.2 -38.0721
-18.68 -23.12 -38.0721
-17.24 -24.8 -38.0721
-15.48 -26.16 -38.0721
-13.56 -27.12 -38.0721
-11.4 -27.6 -10.4025
-9.16 -27.68 -10.4025
-7 -27.28 -10.4025
-5 -26.4 -10.4025
-15.08 27.6 -10.4025
-17.24 27.68 -10.4025
-19.48 27.28 -10.4025
-21.48 26.4 -10.4025
-23.24 25.2 -10.4025
-24.76 23.6 -10.4025
-25.96 21.76 -10.4025
-26.68 19.6 -10.4025
-27 17.44 -10.4025
-26.76 15.28 -10.4025
-13 27.12 -10.4025
20.04 15.44 -10.4025
22.04 14.56 -10.4025
23.8 13.2 -10.4025
25.24 11.52 -10.4025
26.2 9.6 -10.4025
26.84 7.44 -10.4025
27 5.28 -10.4025
26.76 3.2 -10.4025
26.04 1.04 -10.4025
24.92 -0.799999 -10.4025
23.4 -2.4 -10.4025
-3.24 -25.12 -10.4025
-20.36 -19.12 -10.4025
-19.72 -21.2 -10.4025
-18.68 -23.12 -10.4025
-17.24 -24.8 -10.4025
-15.48 -26.16 -10.4025
-13.56 -27.12 -10.4025
-11.4 -27.6 -23.4724
-9.16 -27.68 -23.4724
-7 -27.28 -23.4724
-5 -26.4 -23.4724
-3.24 -25.12 -23.4724
23.4 -2.4 -23.4724
24.92 -0.799999 -23.4724
26.04 1.04 -23.4724
26.76 3.2 -23.4724
27 5.28 -23.4724
26.84 7.44 -23.4724
26.2 9.6 -23.4724
25.24 11.52 -23.4724
23.8 13.2 -23.4724
22.04 14.56 -23.4724
20.04 15.44 -23.4724
-13 27.12 -23.4724
-15.08 27.6 -23.4724
-17.24 27.68 -23.4724
-19.48 27.28 -23.4724
-21.48 26.4 -23.4724
-23.24 25.2 -23.4724
-24.76 23.6 -23.4724
-25.96 21.76 -23.4724
-26.68 19.6 -23.4724
-27 17.44 -23.4724
-26.76 15.28 -23.4724
-20.36 -19.12 -23.4724
-19.72 -21.2 -23.4724
-18.68 -23.12 -23.4724
-17.24 -24.8 -23.4724
-15.48 -26.16 -23.4724
-13.56 -27.12 -23.4724
-11.32 -27.36 -23.4725
-9.16 -27.36 -23.4725
-7 -27.04 -23.4725
-5 -26.24 -23.4725
-15 27.28 -23.4725
-17.16 27.36 -23.4725
-19.32 26.96 -23.4725
-21.32 26.08 -23.4725
-23.08 24.88 -23.4725
-24.6 23.28 -23.4725
-25.72 21.44 -23.4725
-26.44 19.44 -23.4725
-26.68 17.2 -23.4725
-26.6 15.12 -23.4725
-12.92 26.8 -23.4725
19.8 15.28 -23.4725
21.8 14.32 -23.4725
23.48 13.04 -23.4725
24.92 11.44 -23.4725
25.88 9.44 -23.4725
26.52 7.44 -23.4725
26.76 5.2 -23.4725
26.44 3.12 -23.4725
25.72 1.04 -23.4725
24.6 -0.799999 -23.4725
23.08 -2.4 -23.4725
-3.24 -24.96 -23.4725
-20.2 -18.96 -23.4725
-19.56 -21.12 -23.4725
-18.52 -22.96 -23.4725
-17.08 -24.56 -23.4725
-15.4 -26 -23.4725
-13.4 -26.8 -23.4725
-11.32 -27.36 -25.0024
-9.16 -27.36 -25.0024
-7 -27.04 -25.0024
-5 -26.24 -25.0024
-3.24 -24.96 -25.0024
23.08 -2.4 -25.0024
24.6 -0.799999 -25.0024
25.72 1.04 -25.0024
26.44 3.12 -25.0024
26.76 5.2 -25.0024
26.52 7.44 -25.0024
25.88 9.44 -25.0024
24.92 11.44 -25.0024
23.48 13.04 -25.0024
21.8 14.32 -25.0024
19.8 15.28 -25.0024
-12.92 26.8 -25.0024
-15 27.28 -25.0024
-17.16 27.36 -25.0024
-19.32 26.96 -25.0024
-21.32 26.08 -25.0024
-23.08 24.88 -25.0024
-24.6 23.28 -25.0024
-25.72 21.44 -25.0024
-26.44 19.44 -25.0024
-26.68 17.2 -25.0024
-26.6 15.12 -25.0024
-20.2 -18.96 -25.0024
-19.56 -21.12 -25.0024
-18.52 -22.96 -25.0024
-17.08 -24.56 -25.0024
-15.4 -26 -25.0024
-13.4 -26.8 -25.0024
-11.32 -27.36 -8.87244
-9.16 -27.36 -8.87244
-7 -27.04 -8.87244
-5 -26.24 -8.87244
-15 27.28 -8.87244
-17.16 27.36 -8.87244
-19.32 26.96 -8.87244
-21.32 26.08 -8.87244
-23.08 24.88 -8.87244
-24.6 23.28 -8.87244
-25.72 21.44 -8.87244
-26.44 19.44 -8.87244
-26.68 17.2 -8.87244
-26.6 15.12 -8.87244
-12.92 26.8 -8.87244
19.8 15.28 -8.87244
21.8 14.32 -8.87244
23.48 13.04 -8.87244
24.92 11.44 -8.87244
25.88 9.44 -8.87244
26.52 7.44 -8.87244
26.76 5.2 -8.87244
26.44 3.12 -8.87244
25.72 1.04 -8.87244
24.6 -0.799999 -8.87244
23.08 -2.4 -8.87244
-3.24 -24.96 -8.87244
-20.2 -18.96 -8.87244
-19.56 -21.12 -8.87244
-18.52 -22.96 -8.87244
-17.08 -24.56 -8.87244
-15.4 -26 -8.87244
-13.4 -26.8 -8.87244
-11.32 -27.36 -10.4025
-9.16 -27.36 -10.4025
-7 -27.04 -10.4025
-5 -26.24 -10.4025
-3.24 -24.96 -10.4025
23.08 -2.4 -10.4025
24.6 -0.799999 -10.4025
25.72 1.04 -10.4025
26.44 3.12 -10.4025
26.76 5.2 -10.4025
26.52 7.44 -10.4025
25.88 9.44 -10.4025
24.92 11.44 -10.4025
23.48 13.04 -10.4025
21.8 14.32 -10.4025
19.8 15.28 -10.4025
-12.92 26.8 -10.4025
-15 27.28 -10.4025
-17.16 27.36 -10.4025
-19.32 26.96 -10.4025
-21.32 26.08 -10.4025
-23.08 24.88 -10.4025
-24.6 23.28 -10.4025
-25.72 21.44 -10.4025
-26.44 19.44 -10.4025
-26.68 17.2 -10.4025
-26.6 15.12 -10.4025
-20.2 -18.96 -10.4025
-19.56 -21.12 -10.4025
-18.52 -22.96 -10.4025
-17.08 -24.56 -10.4025
-15.4 -26 -10.4025
-13.4 -26.8 -10.4025
17.4 -4.88 4.19754
19.56 -4.48 4.19754
21.64 -3.68 4.19754
-19.72 -21.2 4.19754
-18.68 -23.12 4.19754
-17.24 -24.8 4.19754
-15.48 -26.16 4.19754
-13.56 -27.12 4.19754
-11.4 -27.6 4.19754
-9.16 -27.68 4.19754
-7 -27.28 4.19754
-5 -26.4 4.19754
-3.24 -25.12 4.19754
-1.64 -23.6 4.19754
-0.52 -21.68 4.19754
0.2 -19.68 4.19754
0.439999 -17.44 4.19754
-20.36 -19.12 4.19754
0.279999 -15.28 4.19754
-0.36 -12 4.19754
-26.76 15.28 4.19754
-27 17.44 4.19754
-26.68 19.6 4.19754
-25.96 21.76 4.19754
-24.76 23.6 4.19754
-23.24 25.2 4.19754
-21.48 26.4 4.19754
-19.48 27.28 4.19754
-17.24 27.68 4.19754
-15.08 27.6 4.19754
-13 27.12 4.19754
9.88 -3.2 4.19754
13.08 -4.32 4.19754
20.04 15.44 4.19754
22.04 14.56 4.19754
23.8 13.2 4.19754
25.24 11.52 4.19754
26.2 9.6 4.19754
26.84 7.44 4.19754
27 5.28 4.19754
26.76 3.2 4.19754
26.04 1.04 4.19754
24.92 -0.799999 4.19754
23.4 -2.4 4.19754
15.24 -4.8 4.19754
17.4 -4.88 -8.87251
19.56 -4.48 -8.87251
21.64 -3.68 -8.87251
23.4 -2.4 -8.87251
24.92 -0.799999 -8.87251
26.04 1.04 -8.87251
26.76 3.2 -8.87251
27 5.28 -8.87251
26.84 7.44 -8.87251
26.2 9.6 -8.87251
25.24 11.52 -8.87251
23.8 13.2 -8.87251
22.04 14.56 -8.87251
20.04 15.44 -8.87251
-13 27.12 -8.87251
-15.08 27.6 -8.87251
-17.24 27.68 -8.87251
-19.48 27.28 -8.87251
-21.48 26.4 -8.87251
-23.24 25.2 -8.87251
-24.76 23.6 -8.87251
-25.96 21.76 -8.87251
-26.68 19.6 -8.87251
-27 17.44 -8.87251
-26.76 15.28 -8.87251
-20.36 -19.12 -8.87251
-19.72 -21.2 -8.87251
-18.68 -23.12 -8.87251
-17.24 -24.8 -8.87251
-15.48 -26.16 -8.87251
-13.56 -27.12 -8.87251
-11.4 -27.6 -8.87251
-9.16 -27.68 -8.87251
-7 -27.28 -8.87251
-5 -26.4 -8.87251
-3.24 -25.12 -8.87251
-1.64 -23.6 -8.87251
-0.52 -21.68 -8.87251
0.2 -19.68 -8.87251
0.439999 -17.44 -8.87251
0.279999 -15.28 -8.87251
-0.36 -12 -8.87251
9.88 -3.2 -8.87251
13.08 -4.32 -8.87251
15.24 -4.8 -8.87251
-11.32 -27.36 5.72655
-9.16 -27.36 5.72655
-7 -27.04 5.72655
-5 -26.24 5.72655
-15 27.28 5.72655
-17.16 27.36 5.72655
-19.32 26.96 5.72655
-21.32 26.08 5.72655
-23.08 24.88 5.72655
-24.6 23.28 5.72655
-25.72 21.44 5.72655
-26.44 19.44 5.72655
-26.68 17.2 5.72655
-26.6 15.12 5.72655
-12.92 26.8 5.72655
19.8 15.28 5.72655
21.8 14.32 5.72655
23.48 13.04 5.72655
24.92 11.44 5.72655
25.88 9.44 5.72655
26.52 7.44 5.72655
26.76 5.2 5.72655
26.44 3.12 5.72655
25.72 1.04 5.72655
24.6 -0.799999 5.72655
23.08 -2.4 5.72655
-3.24 -24.96 5.72655
-20.2 -18.96 5.72655
-19.56 -21.12 5.72655
-18.52 -22.96 5.72655
-17.08 -24.56 5.72655
-15.4 -26 5.72655
-13.4 -26.8 5.72655
-11.32 -27.36 4.19755
-9.16 -27.36 4.19755
-7 -27.04 4.19755
-5 -26.24 4.19755
-3.24 -24.96 4.19755
23.08 -2.4 4.19755
24.6 -0.799999 4.19755
25.72 1.04 4.19755
26.44 3.12 4.19755
26.76 5.2 4.19755
26.52 7.44 4.19755
25.88 9.44 4.19755
24.92 11.44 4.19755
23.48 13.04 4.19755
21.8 14.32 4.19755
19.8 15.28 4.19755
-12.92 26.8 4.19755
-15 27.28 4.19755
-17.16 27.36 4.19755
-19.32 26.96 4.19755
-21.32 26.08 4.19755
-23.08 24.88 4.19755
-24.6 23.28 4.19755
-25.72 21.44 4.19755
-26.44 19.44 4.19755
-26.68 17.2 4.19755
-26.6 15.12 4.19755
-20.2 -18.96 4.19755
-19.56 -21.12 4.19755
-18.52 -22.96 4.19755
-17.08 -24.56 4.19755
-15.4 -26 4.19755
-13.4 -26.8 4.19755
-19.32 -12.56 20.3275
-20.12 -14.64 20.3275
-20.36 -16.8 20.3275
-15 27.28 20.3275
-17.16 27.36 20.3275
-19.32 26.96 20.3275
-21.32 26.08 20.3275
-23.08 24.88 20.3275
-24.6 23.28 20.3275
-25.72 21.44 20.3275
-26.44 19.44 20.3275
-26.68 17.2 20.3275
-26.6 15.12 20.3275
-25.96 12.96 20.3275
-24.92 11.12 20.3275
-23.48 9.44 20.3275
-21.8 8.08 20.3275
-12.92 26.8 20.3275
-19.8 7.2 20.3275
-16.68 6.08 20.3275
19.8 15.28 20.3275
21.8 14.32 20.3275
23.48 13.04 20.3275
24.92 11.44 20.3275
25.88 9.44 20.3275
26.52 7.44 20.3275
26.76 5.2 20.3275
26.44 3.12 20.3275
25.72 1.04 20.3275
24.6 -0.799999 20.3275
23.08 -2.4 20.3275
-14.2 -7.04 20.3275
-16.68 -9.12 20.3275
-3.24 -24.96 20.3275
-5 -26.24 20.3275
-7 -27.04 20.3275
-9.16 -27.36 20.3275
-11.32 -27.36 20.3275
-13.4 -26.8 20.3275
-15.4 -26 20.3275
-17.08 -24.56 20.3275
-18.52 -22.96 20.3275
-19.56 -21.12 20.3275
-20.2 -18.96 20.3275
-18.2 -10.8 20.3275
-19.32 -12.56 18.799
-20.12 -14.64 18.799
-20.36 -16.8 18.799
-20.2 -18.96 18.799
-19.56 -21.12 18.799
-18.52 -22.96 18.799
-17.08 -24.56 18.799
-15.4 -26 18.799
-13.4 -26.8 18.799
-11.32 -27.36 18.799
-9.16 -27.36 18.799
-7 -27.04 18.799
-5 -26.24 18.799
-3.24 -24.96 18.799
23.08 -2.4 18.799
24.6 -0.799999 18.799
25.72 1.04 18.799
26.44 3.12 18.799
26.76 5.2 18.799
26.52 7.44 18.799
25.88 9.44 18.799
24.92 11.44 18.799
23.48 13.04 18.799
21.8 14.32 18.799
19.8 15.28 18.799
-12.92 26.8 18.799
-15 27.28 18.799
-17.16 27.36 18.799
-19.32 26.96 18.799
-21.32 26.08 18.799
-23.08 24.88 18.799
-24.6 23.28 18.799
-25.72 21.44 18.799
-26.44 19.44 18.799
-26.68 17.2 18.799
-26.6 15.12 18.799
-25.96 12.96 18.799
-24.92 11.12 18.799
-23.48 9.44 18.799
-21.8 8.08 18.799
-19.8 7.2 18.799
-16.68 6.08 18.799
-14.2 -7.04 18.799
-16.68 -9.12 18.799
-18.2 -10.8 18.799
-19.32 -12.56 34.9275
-20.12 -14.64 34.9275
-20.36 -16.8 34.9275
-15 27.28 34.9275
-17.16 27.36 34.9275
-19.32 26.96 34.9275
-21.32 26.08 34.9275
-23.08 24.88 34.9275
-24.6 23.28 34.9275
-25.72 21.44 34.9275
-26.44 19.44 34.9275
-26.68 17.2 34.9275
-26.6 15.12 34.9275
-25.96 12.96 34.9275
-24.92 11.12 34.9275
-23.48 9.44 34.9275
-21.8 8.08 34.9275
-12.92 26.8 34.9275
-19.8 7.2 34.9275
-16.68 6.08 34.9275
19.8 15.28 34.9275
21.8 14.32 34.9275
23.48 13.04 34.9275
24.92 11.44 34.9275
25.88 9.44 34.9275
26.52 7.44 34.9275
26.76 5.2 34.9275
26.44 3.12 34.9275
25.72 1.04 34.9275
24.6 -0.799999 34.9275
23.08 -2.4 34.9275
-14.2 -7.04 34.9275
-16.68 -9.12 34.9275
-3.24 -24.96 34.9275
-5 -26.24 34.9275
-7 -27.04 34.9275
-9.16 -27.36 34.9275
-11.32 -27.36 34.9275
-13.4 -26.8 34.9275
-15.4 -26 34.9275
-17.08 -24.56 34.9275
-18.52 -22.96 34.9275
-19.56 -21.12 34.9275
-20.2 -18.96 34.9275
-18.2 -10.8 34.9275
-19.32 -12.56 33.3975
-20.12 -14.64 33.3975
-20.36 -16.8 33.3975
-20.2 -18.96 33.3975
-19.56 -21.12 33.3975
-18.52 -22.96 33.3975
-17.08 -24.56 33.3975
-15.4 -26 33.3975
-13.4 -26.8 33.3975
-11.32 -27.36 33.3975
-9.16 -27.36 33.3975
-7 -27.04 33.3975
-5 -26.24 33.3975
-3.24 -24.96 33.3975
23.08 -2.4 33.3975
24.6 -0.799999 33.3975
25.72 1.04 33.3975
26.44 3.12 33.3975
26.76 5.2 33.3975
26.52 7.44 33.3975
25.88 9.44 33.3975
24.92 11.44 33.3975
23.48 13.04 33.3975
21.8 14.32 33.3975
19.8 15.28 33.3975
-12.92 26.8 33.3975
-15 27.28 33.3975
-17.16 27.36 33.3975
-19.32 26.96 33.3975
-21.32 26.08 33.3975
-23.08 24.88 33.3975
-24.6 23.28 33.3975
-25.72 21.44 33.3975
-26.44 19.44 33.3975
-26.68 17.2 33.3975
-26.6 15.12 33.3975
-25.96 12.96 33.3975
-24.92 11.12 33.3975
-23.48 9.44 33.3975
-21.8 8.08 33.3975
-19.8 7.2 33.3975
-16.68 6.08 33.3975
-14.2 -7.04 33.3975
-16.68 -9.12 33.3975
-18.2 -10.8 33.3975
-19.56 -12.72 -50.6925
-20.2 -14.8 -50.6925
-20.52 -16.96 -50.6925
-26.12 13.2 -50.6925
-25.08 11.2 -50.6925
-23.64 9.52 -50.6925
-21.88 8.24 -50.6925
-19.96 7.28 -50.6925
-16.84 6.16 -50.6925
-14.36 -7.12 -50.6925
-16.84 -9.2 -50.6925
-18.36 -10.8 -50.6925
-19.56 -12.72 -52.5625
-20.2 -14.8 -52.5625
-20.52 -16.96 -52.5625
-20.36 -19.12 -52.5625
-19.72 -21.2 -52.5625
-18.68 -23.12 -52.5625
-17.24 -24.8 -52.5625
-15.48 -26.16 -52.5625
-13.56 -27.12 -52.5625
-11.4 -27.6 -52.5625
-9.16 -27.68 -52.5625
-7 -27.28 -52.5625
-5 -26.4 -52.5625
-3.24 -25.12 -52.5625
23.4 -2.4 -52.5625
24.92 -0.799999 -52.5625
26.04 1.04 -52.5625
26.76 3.2 -52.5625
27 5.28 -52.5625
26.84 7.44 -52.5625
26.2 9.6 -52.5625
25.24 11.52 -52.5625
23.8 13.2 -52.5625
22.04 14.56 -52.5625
20.04 15.44 -52.5625
-13 27.12 -52.5625
-15.08 27.6 -52.5625
-17.24 27.68 -52.5625
-19.48 27.28 -52.5625
-21.48 26.4 -52.5625
-23.24 25.2 -52.5625
-24.76 23.6 -52.5625
-25.96 21.76 -52.5625
-26.68 19.6 -52.5625
-27 17.44 -52.5625
-26.76 15.28 -52.5625
-26.12 13.2 -52.5625
-25.08 11.2 -52.5625
-23.64 9.52 -52.5625
-21.88 8.24 -52.5625
-19.96 7.28 -52.5625
-16.84 6.16 -52.5625
-14.36 -7.12 -52.5625
-16.84 -9.2 -52.5625
-18.36 -10.8 -52.5625
-19 -7.2 -52.5625
-19.16 -6.64 -52.5625
-19.16 -6.64 -50.6925
-19 -7.2 -50.6925
-19.64 -6.24 -52.5625
-19.64 -6.24 -50.6925
-20.28 -6.24 -52.5625
-20.28 -6.24 -50.6925
-20.76 -6.64 -52.5625
-20.76 -6.64 -50.6925
-21 -7.2 -52.5625
-21 -7.2 -50.6925
-20.76 -7.76 -52.5625
-20.76 -7.76 -50.6925
-20.28 -8.16 -52.5625
-20.28 -8.16 -50.6925
-19.64 -8.16 -52.5625
-19.64 -8.16 -50.6925
-19.16 -7.76 -52.5625
-19.16 -7.76 -50.6925
-21.16 4.16 -52.5625
-21.32 4.72 -52.5625
-21.32 4.72 -50.6925
-21.16 4.16 -50.6925
-21.8 5.12 -52.5625
-21.8 5.12 -50.6925
-22.44 5.12 -52.5625
-22.44 5.12 -50.6925
-23 4.72 -52.5625
-23 4.72 -50.6925
-23.16 4.16 -52.5625
-23.16 4.16 -50.6925
-23 3.6 -52.5625
-23 3.6 -50.6925
-22.44 3.2 -52.5625
-22.44 3.2 -50.6925
-21.8 3.2 -52.5625
-21.8 3.2 -50.6925
-21.32 3.6 -52.5625
-21.32 3.6 -50.6925
-11.4 -27.6 -50.6925
-11.4 -27.6 -50.6925
-11.4 -27.6 -50.6925
-9.16 -27.68 -50.6925
-9.16 -27.68 -50.6925
-9.16 -27.68 -50.6925
-7 -27.28 -50.6925
-7 -27.28 -50.6925
-7 -27.28 -50.6925
-5 -26.4 -50.6925
-5 -26.4 -50.6925
-5 -26.4 -50.6925
-3.24 -25.12 -50.6925
-3.24 -25.12 -50.6925
-3.24 -25.12 -50.6925
23.4 -2.4 -50.6925
23.4 -2.4 -50.6925
23.4 -2.4 -50.6925
24.92 -0.799999 -50.6925
24.92 -0.799999 -50.6925
24.92 -0.799999 -50.6925
26.04 1.04 -50.6925
26.04 1.04 -50.6925
26.04 1.04 -50.6925
26.76 3.2 -50.6925
26.76 3.2 -50.6925
26.76 3.2 -50.6925
27 5.28 -50.6925
27 5.28 -50.6925
27 5.28 -50.6925
26.84 7.44 -50.6925
26.84 7.44 -50.6925
26.84 7.44 -50.6925
26.2 9.6 -50.6925
26.2 9.6 -50.6925
26.2 9.6 -50.6925
25.24 11.52 -50.6925
25.24 11.52 -50.6925
25.24 11.52 -50.6925
23.8 13.2 -50.6925
23.8 13.2 -50.6925
23.8 13.2 -50.6925
22.04 14.56 -50.6925
22.04 14.56 -50.6925
22.04 14.56 -50.6925
20.04 15.44 -50.6925
20.04 15.44 -50.6925
20.04 15.44 -50.6925
-13 27.12 -50.6925
-13 27.12 -50.6925
-13 27.12 -50.6925
-15.08 27.6 -50.6925
-15.08 27.6 -50.6925
-15.08 27.6 -50.6925
-17.24 27.68 -50.6925
-17.24 27.68 -50.6925
-17.24 27.68 -50.6925
-19.48 27.28 -50.6925
-19.48 27.28 -50.6925
-19.48 27.28 -50.6925
-21.48 26.4 -50.6925
-21.48 26.4 -50.6925
-21.48 26.4 -50.6925
-23.24 25.2 -50.6925
-23.24 25.2 -50.6925
-23.24 25.2 -50.6925
-24.76 23.6 -50.6925
-24.76 23.6 -50.6925
-24.76 23.6 -50.6925
-25.96 21.76 -50.6925
-25.96 21.76 -50.6925
-25.96 21.76 -50.6925
-26.68 19.6 -50.6925
-26.68 19.6 -50.6925
-26.68 19.6 -50.6925
-27 17.44 -50.6925
-27 17.44 -50.6925
-27 17.44 -50.6925
-26.76 15.28 -50.6925
-20.36 -19.12 -50.6925
-19.72 -21.2 -50.6925
-19.72 -21.2 -50.6925
-19.72 -21.2 -50.6925
-18.68 -23.12 -50.6925
-18.68 -23.12 -50.6925
-18.68 -23.12 -50.6925
-17.24 -24.8 -50.6925
-17.24 -24.8 -50.6925
-17.24 -24.8 -50.6925
-15.48 -26.16 -50.6925
-15.48 -26.16 -50.6925
-15.48 -26.16 -50.6925
-13.56 -27.12 -50.6925
-13.56 -27.12 -50.6925
-13.56 -27.12 -50.6925
-9.24 24.88 18.7965
-9.24 24.88 18.7965
-6.76 21.2 18.7964
-6.76 21.2 18.7964
11.56 14.8 18.7964
11.56 14.8 18.7964
15.72 16 18.7965
15.72 16 18.7965
17.88 16 18.7965
17.88 16 18.7965
9.72 13.52 18.7964
9.72 13.52 18.7964
20.04 15.44 18.7965
20.04 15.44 18.7965
22.04 14.56 18.7965
22.04 14.56 18.7965
7.24 11.44 18.7964
7.24 11.44 18.7964
7.24 11.44 18.7964
7.24 11.44 18.7964
-20.52 -16.96 18.7963
-20.52 -16.96 18.7963
-18.36 -10.8 18.7963
-18.36 -10.8 18.7963
-20.36 -19.12 18.7963
-20.36 -19.12 18.7963
-16.84 -9.2 18.7964
-16.84 -9.2 18.7964
-19.72 -21.2 18.7963
-19.72 -21.2 18.7963
-18.68 -23.12 18.7963
-18.68 -23.12 18.7963
-17.24 -24.8 18.7963
-17.24 -24.8 18.7963
-15.48 -26.16 18.7963
-15.48 -26.16 18.7963
-13.56 -27.12 18.7963
-13.56 -27.12 18.7963
-11.4 -27.6 18.7963
-11.4 -27.6 18.7963
-9.16 -27.68 18.7963
-9.16 -27.68 18.7963
-7 -27.28 18.7963
-7 -27.28 18.7963
-5 -26.4 18.7963
-5 -26.4 18.7963
-3.24 -25.12 18.7963
-3.24 -25.12 18.7963
23.4 -2.4 18.7964
23.4 -2.4 18.7964
-14.36 -7.12 18.7964
-14.36 -7.12 18.7964
-16.84 6.24 18.7964
-16.84 6.24 18.7964
-16.84 6.24 18.7964
-16.84 6.24 18.7964
24.92 -0.799999 18.7964
24.92 -0.799999 18.7964
26.04 1.12 18.7964
26.04 1.12 18.7964
26.76 3.2 18.7964
26.76 3.2 18.7964
27 5.28 18.7964
27 5.28 18.7964
26.84 7.44 18.7964
26.84 7.44 18.7964
26.2 9.6 18.7964
26.2 9.6 18.7964
25.24 11.52 18.7964
25.24 11.52 18.7964
23.8 13.2 18.7965
23.8 13.2 18.7965
0.840001 13.6 18.7964
0.840001 13.6 18.7964
-5.56 15.84 18.7964
-5.56 15.84 18.7964
-6.12 19.12 18.7964
-6.12 19.12 18.7964
-19.96 7.28 18.7964
-19.96 7.28 18.7964
-21.88 8.24 18.7964
-21.88 8.24 18.7964
-23.64 9.6 18.7964
-23.64 9.6 18.7964
-25.08 11.2 18.7964
-25.08 11.2 18.7964
-26.12 13.2 18.7964
-26.12 13.2 18.7964
-26.76 15.28 18.7964
-26.76 15.28 18.7964
-27 17.44 18.7964
-27 17.44 18.7964
-26.68 19.68 18.7964
-26.68 19.68 18.7964
-25.96 21.76 18.7964
-25.96 21.76 18.7964
-24.76 23.6 18.7964
-24.76 23.6 18.7964
-23.24 25.2 18.7964
-23.24 25.2 18.7964
-21.48 26.4 18.7964
-21.48 26.4 18.7964
-19.48 27.28 18.7964
-19.48 27.28 18.7964
-17.24 27.68 18.7965
-17.24 27.68 18.7965
-15.08 27.6 18.7965
-15.08 27.6 18.7965
-13 27.12 18.7965
-13 27.12 18.7965
-11 26.16 18.7965
-11 26.16 18.7965
3  0 1 2  128 0 128
3  0 2 3  128 0 128
3  4 5 6  128 0 128
3  4 6 7  128 0 128
3  4 7 8  128 0 128
3  4 8 9  128 0 128
3  4 9 10  128 0 128
3  4 10 11  128 0 128
3  4 11 12  128 0 128
3  4 12 13  128 0 128
3  4 13 14  128 0 128
3  4 14 15  128 0 128
3  4 15 16  128 0 128
3  4 16 17  128 0 128
3  18 4 17  128 0 128
3  18 17 19  128 0 128
3  18 19 20  128 0 128
3  21 18 20  128 0 128
3  21 20 22  128 0 128
3  21 22 23  128 0 128
3  21 23 24  128 0 128
3  21 24 25  128 0 128
3  21 25 26  128 0 128
3  21 26 27  128 0 128
3  21 27 28  128 0 128
3  21 28 29  128 0 128
3  21 29 30  128 0 128
3  21 30 31  128 0 128
3  3 21 31  128 0 128
3  0 3 31  128 0 128
3  32 33 34  255 20 147
3  34 35 32  255 20 147
3  33 36 37  128 255 128
3  37 34 33  128 255 128
3  36 38 39  255 255 128
3  39 37 36  255 255 128
3  38 40 41  192 0 0
3  41 39 38  192 0 0
3  40 42 43  192 0 0
3  43 41 40  192 0 0
3  42 44 45  192 0 0
3  45 43 42  192 0 0
3  44 46 47  255 0 0
3  47 45 44  255 0 0
3  46 48 49  255 128 255
3  49 47 46  255 128 255
3  48 50 51  255 64 128
3  51 49 48  255 64 128
3  50 52 53  255 255 0
3  53 51 50  255 255 0
3  52 54 55  128 255 64
3  55 53 52  128 255 64
3  54 56 57  245 222 179
3  57 55 54  245 222 179
3  56 58 59  0 128 128
3  59 57 56  0 128 128
3  58 60 61  255 165 0
3  61 59 58  255 165 0
3  60 62 63  255 228 196
3  63 61 60  255 228 196
3  62 64 65  64 0 128
3  65 63 62  64 0 128
3  64 66 67  64 255 128
3  67 65 64  64 255 128
3  66 68 69  128 64 0
3  69 67 66  128 64 0
3  68 70 71  128 64 255
3  71 69 68  128 64 255
3  70 72 73  0 0 192
3  73 71 70  0 0 192
3  72 74 75  0 0 192
3  75 73 72  0 0 192
3  74 76 77  0 0 192
3  77 75 74  0 0 192
3  76 78 79  255 240 245
3  79 77 76  255 240 245
3  78 80 81  176 196 222
3  81 79 78  176 196 222
3  80 82 83  123 104 238
3  83 81 80  123 104 238
3  82 84 85  50 205 50
3  85 83 82  50 205 50
3  84 86 87  72 61 139
3  87 85 84  72 61 139
3  86 88 89  0 255 255
3  89 87 86  0 255 255
3  88 90 91  255 128 128
3  91 89 88  255 128 128
3  90 92 93  0 255 0
3  93 91 90  0 255 0
3  92 94 95  255 0 255
3  95 93 92  255 0 255
3  94 32 35  255 128 64
3  35 95 94  255 128 64
3  96 97 98  128 0 255
3  96 98 99  128 0 255
3  100 101 102  128 0 255
3  100 102 103  128 0 255
3  100 103 104  128 0 255
3  100 104 105  128 0 255
3  100 105 106  128 0 255
3  100 106 107  128 0 255
3  100 107 108  128 0 255
3  100 108 109  128 0 255
3  110 100 109  128 0 255
3  111 110 109  128 0 255
3  112 111 109  128 0 255
3  113 112 109  128 0 255
3  114 113 109  128 0 255
3  115 114 109  128 0 255
3  116 115 109  128 0 255
3  117 116 109  128 0 255
3  118 117 109  128 0 255
3  119 118 109  128 0 255
3  120 119 109  128 0 255
3  121 120 109  128 0 255
3  122 121 109  128 0 255
3  122 109 123  128 0 255
3  99 122 123  128 0 255
3  99 123 124  128 0 255
3  99 124 125  128 0 255
3  99 125 126  128 0 255
3  99 126 127  128 0 255
3  99 127 128  128 0 255
3  96 99 128  128 0 255
3  129 130 97  240 128 128
3  97 96 129  240 128 128
3  130 131 98  192 192 0
3  98 97 130  192 192 0
3  131 132 99  0 192 0
3  99 98 131  0 192 0
3  132 133 122  192 192 0
3  122 99 132  192 192 0
3  133 134 121  192 192 0
3  121 122 133  192 192 0
3  134 135 120  192 192 0
3  120 121 134  192 192 0
3  135 136 119  0 255 255
3  119 120 135  0 255 255
3  136 137 118  255 128 128
3  118 119 136  255 128 128
3  137 138 117  0 255 0
3  117 118 137  0 255 0
3  138 139 116  255 0 255
3  116 117 138  255 0 255
3  139 140 115  255 128 64
3  115 116 139  255 128 64
3  140 141 114  255 20 147
3  114 115 140  255 20 147
3  141 142 113  128 255 128
3  113 114 141  128 255 128
3  142 143 112  255 255 128
3  112 113 142  255 255 128
3  143 144 111  192 0 0
3  111 112 143  192 0 0
3  144 145 110  192 0 0
3  110 111 144  192 0 0
3  145 146 100  192 0 0
3  100 110 145  192 0 0
3  146 147 101  255 0 0
3  101 100 146  255 0 0
3  147 148 102  255 128 255
3  102 101 147  255 128 255
3  148 149 103  255 64 128
3  103 102 148  255 64 128
3  149 150 104  255 255 0
3  104 103 149  255 255 0
3  150 151 105  128 255 64
3  105 104 150  128 255 64
3  151 152 106  245 222 179
3  106 105 151  245 222 179
3  152 153 107  0 128 128
3  107 106 152  0 128 128
3  153 154 108  255 165 0
3  108 107 153  255 165 0
3  154 155 109  192 0 192
3  109 108 154  192 0 192
3  155 156 123  192 0 192
3  123 109 155  192 0 192
3  156 157 124  192 0 192
3  124 123 156  192 0 192
3  157 158 125  128 255 255
3  125 124 157  128 255 255
3  158 159 126  128 128 255
3  126 125 158  128 128 255
3  159 160 127  0 0 255
3  127 126 159  0 0 255
3  160 161 128  128 0 255
3  128 127 160  128 0 255
3  161 129 96  173 216 230
3  96 128 161  173 216 230
3  162 163 164  255 0 255
3  165 166 167  255 0 255
3  165 167 168  255 0 255
3  165 168 169  255 0 255
3  165 169 170  255 0 255
3  165 170 171  255 0 255
3  165 171 172  255 0 255
3  165 172 173  255 0 255
3  165 173 174  255 0 255
3  165 174 175  255 0 255
3  165 175 176  255 0 255
3  165 176 177  255 0 255
3  165 177 178  255 0 255
3  179 165 178  255 0 255
3  179 178 180  255 0 255
3  179 180 181  255 0 255
3  182 179 181  255 0 255
3  183 182 181  255 0 255
3  184 183 181  255 0 255
3  185 184 181  255 0 255
3  186 185 181  255 0 255
3  187 186 181  255 0 255
3  188 187 181  255 0 255
3  189 188 181  255 0 255
3  190 189 181  255 0 255
3  191 190 181  255 0 255
3  192 191 181  255 0 255
3  192 181 193  255 0 255
3  192 193 194  255 0 255
3  195 192 194  255 0 255
3  196 195 194  255 0 255
3  197 196 194  255 0 255
3  198 197 194  255 0 255
3  199 198 194  255 0 255
3  200 199 194  255 0 255
3  201 200 194  255 0 255
3  202 201 194  255 0 255
3  203 202 194  255 0 255
3  204 203 194  255 0 255
3  205 204 194  255 0 255
3  205 194 206  255 0 255
3  164 205 206  255 0 255
3  162 164 206  255 0 255
3  207 208 163  64 255 255
3  163 162 207  64 255 255
3  208 209 164  64 255 255
3  164 163 208  64 255 255
3  209 210 205  192 0 192
3  205 164 209  192 0 192
3  210 211 204  255 128 0
3  204 205 210  255 128 0
3  211 212 203  128 255 255
3  203 204 211  128 255 255
3  212 213 202  128 128 255
3  202 203 212  128 128 255
3  213 214 201  0 0 255
3  201 202 213  0 0 255
3  214 215 200  128 0 255
3  200 201 214  128 0 255
3  215 216 199  173 216 230
3  199 200 215  173 216 230
3  216 217 198  240 128 128
3  198 199 216  240 128 128
3  217 218 197  192 192 0
3  197 198 217  192 192 0
3  218 219 196  0 192 0
3  196 197 218  0 192 0
3  219 220 195  192 192 0
3  195 196 219  192 192 0
3  220 221 192  192 192 0
3  192 195 220  192 192 0
3  221 222 191  192 192 0
3  191 192 221  192 192 0
3  222 223 190  0 255 255
3  190 191 222  0 255 255
3  223 224 189  255 128 128
3  189 190 223  255 128 128
3  224 225 188  0 255 0
3  188 189 224  0 255 0
3  225 226 187  255 0 255
3  187 188 225  255 0 255
3  226 227 186  255 128 64
3  186 187 226  255 128 64
3  227 228 185  255 20 147
3  185 186 227  255 20 147
3  228 229 184  128 255 128
3  184 185 228  128 255 128
3  229 230 183  255 255 128
3  183 184 229  255 255 128
3  230 231 182  192 0 0
3  182 183 230  192 0 0
3  231 232 179  192 0 0
3  179 182 231  192 0 0
3  232 233 165  192 0 0
3  165 179 232  192 0 0
3  233 234 166  255 0 0
3  166 165 233  255 0 0
3  234 235 167  255 128 255
3  167 166 234  255 128 255
3  235 236 168  255 64 128
3  168 167 235  255 64 128
3  236 237 169  255 255 0
3  169 168 236  255 255 0
3  237 238 170  128 255 64
3  170 169 237  128 255 64
3  238 239 171  245 222 179
3  171 170 238  245 222 179
3  239 240 172  0 128 128
3  172 171 239  0 128 128
3  240 241 173  255 165 0
3  173 172 240  255 165 0
3  241 242 174  255 228 196
3  174 173 241  255 228 196
3  242 243 175  64 0 128
3  175 174 242  64 0 128
3  243 244 176  64 255 128
3  176 175 243  64 255 128
3  244 245 177  128 64 0
3  177 176 244  128 64 0
3  245 246 178  64 64 255
3  178 177 245  64 64 255
3  246 247 180  64 64 255
3  180 178 246  64 64 255
3  247 248 181  64 64 255
3  181 180 247  64 64 255
3  248 249 193  255 64 255
3  193 181 248  255 64 255
3  249 250 194  255 64 64
3  194 193 249  255 64 64
3  250 251 206  255 64 64
3  206 194 250  255 64 64
3  251 207 162  64 255 64
3  162 206 251  64 255 64
3  252 253 254  0 0 255
3  255 256 257  0 0 255
3  1230 1232 258  0 0 255
3  259 1230 258  0 0 255
3  259 258 260  0 0 255
3  259 260 261  0 0 255
3  262 259 261  0 0 255
3  263 264 265  0 0 255
3  263 265 266  0 0 255
3  267 1246 1248  0 0 255
3  267 1248 268  0 0 255
3  269 267 268  0 0 255
3  270 269 268  0 0 255
3  271 270 268  0 0 255
3  272 271 268  0 0 255
3  273 272 268  0 0 255
3  274 273 268  0 0 255
3  275 274 268  0 0 255
3  276 275 268  0 0 255
3  277 276 268  0 0 255
3  278 277 268  0 0 255
3  279 278 268  0 0 255
3  279 268 280  0 0 255
3  279 280 281  0 0 255
3  282 279 281  0 0 255
3  283 282 281  0 0 255
3  284 283 281  0 0 255
3  285 284 281  0 0 255
3  286 285 281  0 0 255
3  287 286 281  0 0 255
3  288 287 281  0 0 255
3  289 288 281  0 0 255
3  261 289 281  0 0 255
3  262 261 281  0 0 255
3  290 1242 1278  0 0 255
3  291 290 1278  0 0 255
3  292 291 1278  0 0 255
3  292 1278 293  0 0 255
3  292 293 294  0 0 255
3  292 294 295  0 0 255
3  292 295 296  0 0 255
3  292 296 297  0 0 255
3  292 297 298  0 0 255
3  292 298 299  0 0 255
3  292 299 300  0 0 255
3  292 300 301  0 0 255
3  292 301 302  0 0 255
3  292 302 303  0 0 255
3  292 303 304  0 0 255
3  292 304 305  0 0 255
3  292 305 306  0 0 255
3  292 306 307  0 0 255
3  292 307 308  0 0 255
3  292 308 309  0 0 255
3  1228 292 309  0 0 255
3  1226 1228 309  0 0 255
3  264 263 310  64 255 255
3  310 311 264  64 255 255
3  265 264 311  64 255 255
3  311 312 265  64 255 255
3  266 265 312  64 255 64
3  312 313 266  64 255 64
3  1252 266 313  255 64 64
3  313 314 1252  255 64 64
3  1276 1252 314  255 64 64
3  314 315 1276  255 64 64
3  1279 1276 315  255 64 255
3  315 316 1279  255 64 255
3  1304 1279 316  64 64 255
3  316 317 1304  64 64 255
3  1306 1304 317  64 64 255
3  317 318 1306  64 64 255
3  1308 1306 318  128 64 255
3  318 319 1308  128 64 255
3  1310 1308 319  128 64 0
3  319 320 1310  128 64 0
3  1312 1310 320  64 255 128
3  320 321 1312  64 255 128
3  1314 1312 321  64 0 128
3  321 322 1314  64 0 128
3  1316 1314 322  255 228 196
3  322 323 1316  255 228 196
3  1318 1316 323  255 165 0
3  323 324 1318  255 165 0
3  1320 1318 324  0 128 128
3  324 325 1320  0 128 128
3  1322 1320 325  245 222 179
3  325 326 1322  245 222 179
3  1324 1322 326  128 255 64
3  326 327 1324  128 255 64
3  1326 1324 327  255 255 0
3  327 328 1326  255 255 0
3  1328 1326 328  255 64 128
3  328 329 1328  255 64 128
3  1330 1328 329  255 128 255
3  329 330 1330  255 128 255
3  1332 1330 330  255 0 0
3  330 331 1332  255 0 0
3  1334 1332 331  224 255 255
3  331 332 1334  224 255 255
3  1336 1334 332  64 128 255
3  332 333 1336  64 128 255
3  252 1336 333  0 128 64
3  333 334 252  0 128 64
3  253 252 334  0 192 192
3  334 335 253  0 192 192
3  254 253 335  0 0 192
3  335 336 254  0 0 192
3  1302 254 336  64 255 64
3  336 337 1302  64 255 64
3  1300 1302 337  64 255 64
3  337 338 1300  64 255 64
3  1298 1300 338  0 192 0
3  338 339 1298  0 192 0
3  1243 1298 339  0 192 0
3  339 340 1243  0 192 0
3  1236 1243 340  0 192 192
3  340 341 1236  0 192 192
3  255 1236 341  0 192 192
3  341 342 255  0 192 192
3  256 255 342  64 64 255
3  342 343 256  64 64 255
3  257 256 343  255 64 255
3  343 344 257  255 64 255
3  1234 257 344  255 64 255
3  344 345 1234  255 64 255
3  1238 1234 345  192 0 0
3  345 346 1238  192 0 0
3  1240 1238 346  192 0 0
3  346 347 1240  192 0 0
3  1296 1240 347  255 255 128
3  347 348 1296  255 255 128
3  1294 1296 348  128 255 128
3  348 349 1294  128 255 128
3  1292 1294 349  255 20 147
3  349 350 1292  255 20 147
3  1290 1292 350  255 128 64
3  350 351 1290  255 128 64
3  1288 1290 351  255 0 255
3  351 352 1288  255 0 255
3  1286 1288 352  0 255 0
3  352 353 1286  0 255 0
3  1284 1286 353  255 128 128
3  353 354 1284  255 128 128
3  1282 1284 354  0 255 255
3  354 355 1282  0 255 255
3  1274 1282 355  192 192 0
3  355 356 1274  192 192 0
3  1272 1274 356  192 192 0
3  356 357 1272  192 192 0
3  1270 1272 357  192 192 0
3  357 358 1270  192 192 0
3  1268 1270 358  0 192 0
3  358 359 1268  0 192 0
3  1266 1268 359  192 192 0
3  359 360 1266  192 192 0
3  1264 1266 360  240 128 128
3  360 361 1264  240 128 128
3  1262 1264 361  173 216 230
3  361 362 1262  173 216 230
3  1260 1262 362  128 0 255
3  362 363 1260  128 0 255
3  1258 1260 363  0 0 255
3  363 364 1258  0 0 255
3  1256 1258 364  128 128 255
3  364 365 1256  128 128 255
3  1254 1256 365  128 255 255
3  365 366 1254  128 255 255
3  1250 1254 366  255 128 0
3  366 367 1250  255 128 0
3  263 1250 367  192 0 192
3  367 310 263  192 0 192
3  368 369 370  128 128 255
3  368 370 371  128 128 255
3  372 373 374  128 128 255
3  372 374 375  128 128 255
3  372 375 376  128 128 255
3  372 376 377  128 128 255
3  372 377 378  128 128 255
3  372 378 379  128 128 255
3  372 379 380  128 128 255
3  372 380 381  128 128 255
3  382 372 381  128 128 255
3  383 382 381  128 128 255
3  384 383 381  128 128 255
3  385 384 381  128 128 255
3  386 385 381  128 128 255
3  387 386 381  128 128 255
3  388 387 381  128 128 255
3  389 388 381  128 128 255
3  390 389 381  128 128 255
3  391 390 381  128 128 255
3  392 391 381  128 128 255
3  393 392 381  128 128 255
3  394 393 381  128 128 255
3  394 381 395  128 128 255
3  371 394 395  128 128 255
3  371 395 396  128 128 255
3  371 396 397  128 128 255
3  371 397 398  128 128 255
3  371 398 399  128 128 255
3  371 399 400  128 128 255
3  368 371 400  128 128 255
3  401 402 369  192 192 0
3  369 368 401  192 192 0
3  402 403 370  192 192 0
3  370 369 402  192 192 0
3  403 404 371  0 192 0
3  371 370 403  0 192 0
3  404 405 394  192 192 0
3  394 371 404  192 192 0
3  405 406 393  192 192 0
3  393 394 405  192 192 0
3  406 407 392  192 192 0
3  392 393 406  192 192 0
3  407 408 391  0 255 255
3  391 392 407  0 255 255
3  408 409 390  255 128 128
3  390 391 408  255 128 128
3  409 410 389  255 128 128
3  389 390 409  255 128 128
3  410 411 388  255 0 255
3  388 389 410  255 0 255
3  411 412 387  255 20 147
3  387 388 411  255 20 147
3  412 413 386  255 20 147
3  386 387 412  255 20 147
3  413 414 385  128 255 128
3  385 386 413  128 255 128
3  414 415 384  255 255 128
3  384 385 414  255 255 128
3  415 416 383  192 0 0
3  383 384 415  192 0 0
3  416 417 382  192 0 0
3  382 383 416  192 0 0
3  417 418 372  192 0 0
3  372 382 417  192 0 0
3  418 419 373  255 0 0
3  373 372 418  255 0 0
3  419 420 374  255 128 255
3  374 373 419  255 128 255
3  420 421 375  255 64 128
3  375 374 420  255 64 128
3  421 422 376  255 255 0
3  376 375 421  255 255 0
3  422 423 377  128 255 64
3  377 376 422  128 255 64
3  423 424 378  245 222 179
3  378 377 423  245 222 179
3  424 425 379  0 128 128
3  379 378 424  0 128 128
3  425 426 380  255 165 0
3  380 379 425  255 165 0
3  426 427 381  192 0 192
3  381 380 426  192 0 192
3  427 428 395  192 0 192
3  395 381 427  192 0 192
3  428 429 396  192 0 192
3  396 395 428  192 0 192
3  429 430 397  128 255 255
3  397 396 429  128 255 255
3  430 431 398  128 128 255
3  398 397 430  128 128 255
3  431 432 399  128 128 255
3  399 398 431  128 128 255
3  432 433 400  128 0 255
3  400 399 432  128 0 255
3  433 401 368  128 0 255
3  368 400 433  128 0 255
3  434 435 436  128 255 128
3  434 436 437  128 255 128
3  438 439 440  128 255 128
3  438 440 441  128 255 128
3  438 441 442  128 255 128
3  438 442 443  128 255 128
3  438 443 444  128 255 128
3  438 444 445  128 255 128
3  438 445 446  128 255 128
3  438 446 447  128 255 128
3  448 438 447  128 255 128
3  449 448 447  128 255 128
3  450 449 447  128 255 128
3  451 450 447  128 255 128
3  452 451 447  128 255 128
3  453 452 447  128 255 128
3  454 453 447  128 255 128
3  455 454 447  128 255 128
3  456 455 447  128 255 128
3  457 456 447  128 255 128
3  458 457 447  128 255 128
3  459 458 447  128 255 128
3  460 459 447  128 255 128
3  460 447 461  128 255 128
3  437 460 461  128 255 128
3  437 461 462  128 255 128
3  437 462 463  128 255 128
3  437 463 464  128 255 128
3  437 464 465  128 255 128
3  437 465 466  128 255 128
3  434 437 466  128 255 128
3  467 468 435  240 128 128
3  435 434 467  240 128 128
3  468 469 436  192 192 0
3  436 435 468  192 192 0
3  469 470 437  0 192 0
3  437 436 469  0 192 0
3  470 471 460  192 192 0
3  460 437 470  192 192 0
3  471 472 459  192 192 0
3  459 460 471  192 192 0
3  472 473 458  192 192 0
3  458 459 472  192 192 0
3  473 474 457  0 255 255
3  457 458 473  0 255 255
3  474 475 456  255 128 128
3  456 457 474  255 128 128
3  475 476 455  0 255 0
3  455 456 475  0 255 0
3  476 477 454  255 0 255
3  454 455 476  255 0 255
3  477 478 453  255 128 64
3  453 454 477  255 128 64
3  478 479 452  255 20 147
3  452 453 478  255 20 147
3  479 480 451  128 255 128
3  451 452 479  128 255 128
3  480 481 450  255 255 128
3  450 451 480  255 255 128
3  481 482 449  192 0 0
3  449 450 481  192 0 0
3  482 483 448  192 0 0
3  448 449 482  192 0 0
3  483 484 438  192 0 0
3  438 448 483  192 0 0
3  484 485 439  255 0 0
3  439 438 484  255 0 0
3  485 486 440  255 128 255
3  440 439 485  255 128 255
3  486 487 441  255 64 128
3  441 440 486  255 64 128
3  487 488 442  255 255 0
3  442 441 487  255 255 0
3  488 489 443  128 255 64
3  443 442 488  128 255 64
3  489 490 444  245 222 179
3  444 443 489  245 222 179
3  490 491 445  0 128 128
3  445 444 490  0 128 128
3  491 492 446  255 165 0
3  446 445 491  255 165 0
3  492 493 447  192 0 192
3  447 446 492  192 0 192
3  493 494 461  192 0 192
3  461 447 493  192 0 192
3  494 495 462  192 0 192
3  462 461 494  192 0 192
3  495 496 463  128 255 255
3  463 462 495  128 255 255
3  496 497 464  128 128 255
3  464 463 496  128 128 255
3  497 498 465  0 0 255
3  465 464 497  0 0 255
3  498 499 466  128 0 255
3  466 465 498  128 0 255
3  499 467 434  173 216 230
3  434 466 499  173 216 230
3  500 501 502  255 255 128
3  500 502 503  255 255 128
3  504 505 506  255 255 128
3  504 506 507  255 255 128
3  504 507 508  255 255 128
3  504 508 509  255 255 128
3  504 509 510  255 255 128
3  504 510 511  255 255 128
3  504 511 512  255 255 128
3  504 512 513  255 255 128
3  514 504 513  255 255 128
3  515 514 513  255 255 128
3  516 515 513  255 255 128
3  517 516 513  255 255 128
3  518 517 513  255 255 128
3  519 518 513  255 255 128
3  520 519 513  255 255 128
3  521 520 513  255 255 128
3  522 521 513  255 255 128
3  523 522 513  255 255 128
3  524 523 513  255 255 128
3  525 524 513  255 255 128
3  526 525 513  255 255 128
3  526 513 527  255 255 128
3  503 526 527  255 255 128
3  503 527 528  255 255 128
3  503 528 529  255 255 128
3  503 529 530  255 255 128
3  503 530 531  255 255 128
3  503 531 532  255 255 128
3  500 503 532  255 255 128
3  533 534 501  240 128 128
3  501 500 533  240 128 128
3  534 535 502  192 192 0
3  502 501 534  192 192 0
3  535 536 503  0 192 0
3  503 502 535  0 192 0
3  536 537 526  192 192 0
3  526 503 536  192 192 0
3  537 538 525  192 192 0
3  525 526 537  192 192 0
3  538 539 524  192 192 0
3  524 525 538  192 192 0
3  539 540 523  0 255 255
3  523 524 539  0 255 255
3  540 541 522  255 128 128
3  522 523 540  255 128 128
3  541 542 521  0 255 0
3  521 522 541  0 255 0
3  542 543 520  255 0 255
3  520 521 542  255 0 255
3  543 544 519  255 128 64
3  519 520 543  255 128 64
3  544 545 518  255 20 147
3  518 519 544  255 20 147
3  545 546 517  128 255 128
3  517 518 545  128 255 128
3  546 547 516  255 255 128
3  516 517 546  255 255 128
3  547 548 515  192 0 0
3  515 516 547  192 0 0
3  548 549 514  192 0 0
3  514 515 548  192 0 0
3  549 550 504  192 0 0
3  504 514 549  192 0 0
3  550 551 505  255 0 0
3  505 504 550  255 0 0
3  551 552 506  255 128 255
3  506 505 551  255 128 255
3  552 553 507  255 64 128
3  507 506 552  255 64 128
3  553 554 508  255 255 0
3  508 507 553  255 255 0
3  554 555 509  128 255 64
3  509 508 554  128 255 64
3  555 556 510  245 222 179
3  510 509 555  245 222 179
3  556 557 511  0 128 128
3  511 510 556  0 128 128
3  557 558 512  255 165 0
3  512 511 557  255 165 0
3  558 559 513  192 0 192
3  513 512 558  192 0 192
3  559 560 527  192 0 192
3  527 513 559  192 0 192
3  560 561 528  192 0 192
3  528 527 560  192 0 192
3  561 562 529  128 255 255
3  529 528 561  128 255 255
3  562 563 530  128 128 255
3  530 529 562  128 128 255
3  563 564 531  0 0 255
3  531 530 563  0 0 255
3  564 565 532  128 0 255
3  532 531 564  128 0 255
3  565 533 500  173 216 230
3  500 532 565  173 216 230
3  566 567 568  255 128 0
3  566 568 569  255 128 0
3  570 571 572  255 128 0
3  570 572 573  255 128 0
3  570 573 574  255 128 0
3  570 574 575  255 128 0
3  570 575 576  255 128 0
3  570 576 577  255 128 0
3  570 577 578  255 128 0
3  570 578 579  255 128 0
3  580 570 579  255 128 0
3  581 580 579  255 128 0
3  582 581 579  255 128 0
3  583 582 579  255 128 0
3  584 583 579  255 128 0
3  585 584 579  255 128 0
3  586 585 579  255 128 0
3  587 586 579  255 128 0
3  588 587 579  255 128 0
3  589 588 579  255 128 0
3  590 589 579  255 128 0
3  591 590 579  255 128 0
3  592 591 579  255 128 0
3  592 579 593  255 128 0
3  569 592 593  255 128 0
3  569 593 594  255 128 0
3  569 594 595  255 128 0
3  569 595 596  255 128 0
3  569 596 597  255 128 0
3  569 597 598  255 128 0
3  566 569 598  255 128 0
3  599 600 567  192 192 0
3  567 566 599  192 192 0
3  600 601 568  192 192 0
3  568 567 600  192 192 0
3  601 602 569  0 192 0
3  569 568 601  0 192 0
3  602 603 592  192 192 0
3  592 569 602  192 192 0
3  603 604 591  192 192 0
3  591 592 603  192 192 0
3  604 605 590  192 192 0
3  590 591 604  192 192 0
3  605 606 589  0 255 255
3  589 590 605  0 255 255
3  606 607 588  255 128 128
3  588 589 606  255 128 128
3  607 608 587  255 128 128
3  587 588 607  255 128 128
3  608 609 586  255 0 255
3  586 587 608  255 0 255
3  609 610 585  255 20 147
3  585 586 609  255 20 147
3  610 611 584  255 20 147
3  584 585 610  255 20 147
3  611 612 583  128 255 128
3  583 584 611  128 255 128
3  612 613 582  255 255 128
3  582 583 612  255 255 128
3  613 614 581  192 0 0
3  581 582 613  192 0 0
3  614 615 580  192 0 0
3  580 581 614  192 0 0
3  615 616 570  192 0 0
3  570 580 615  192 0 0
3  616 617 571  255 0 0
3  571 570 616  255 0 0
3  617 618 572  255 128 255
3  572 571 617  255 128 255
3  618 619 573  255 64 128
3  573 572 618  255 64 128
3  619 620 574  255 255 0
3  574 573 619  255 255 0
3  620 621 575  128 255 64
3  575 574 620  128 255 64
3  621 622 576  245 222 179
3  576 575 621  245 222 179
3  622 623 577  0 128 128
3  577 576 622  0 128 128
3  623 624 578  255 165 0
3  578 577 623  255 165 0
3  624 625 579  192 0 192
3  579 578 624  192 0 192
3  625 626 593  192 0 192
3  593 579 625  192 0 192
3  626 627 594  192 0 192
3  594 593 626  192 0 192
3  627 628 595  128 255 255
3  595 594 627  128 255 255
3  628 629 596  128 128 255
3  596 595 628  128 128 255
3  629 630 597  128 128 255
3  597 596 629  128 128 255
3  630 631 598  128 0 255
3  598 597 630  128 0 255
3  631 599 566  128 0 255
3  566 598 631  128 0 255
3  632 633 634  255 255 0
3  632 634 635  255 255 0
3  636 637 638  255 255 0
3  636 638 639  255 255 0
3  636 639 640  255 255 0
3  636 640 641  255 255 0
3  636 641 642  255 255 0
3  636 642 643  255 255 0
3  636 643 644  255 255 0
3  636 644 645  255 255 0
3  646 636 645  255 255 0
3  647 646 645  255 255 0
3  648 647 645  255 255 0
3  649 648 645  255 255 0
3  650 649 645  255 255 0
3  651 650 645  255 255 0
3  652 651 645  255 255 0
3  653 652 645  255 255 0
3  654 653 645  255 255 0
3  655 654 645  255 255 0
3  656 655 645  255 255 0
3  657 656 645  255 255 0
3  658 657 645  255 255 0
3  658 645 659  255 255 0
3  635 658 659  255 255 0
3  635 659 660  255 255 0
3  635 660 661  255 255 0
3  635 661 662  255 255 0
3  635 662 663  255 255 0
3  635 663 664  255 255 0
3  632 635 664  255 255 0
3  665 666 633  192 192 0
3  633 632 665  192 192 0
3  666 667 634  192 192 0
3  634 633 666  192 192 0
3  667 668 635  0 192 0
3  635 634 667  0 192 0
3  668 669 658  192 192 0
3  658 635 668  192 192 0
3  669 670 657  192 192 0
3  657 658 669  192 192 0
3  670 671 656  192 192 0
3  656 657 670  192 192 0
3  671 672 655  0 255 255
3  655 656 671  0 255 255
3  672 673 654  255 128 128
3  654 655 672  255 128 128
3  673 674 653  255 128 128
3  653 654 673  255 128 128
3  674 675 652  255 0 255
3  652 653 674  255 0 255
3  675 676 651  255 20 147
3  651 652 675  255 20 147
3  676 677 650  255 20 147
3  650 651 676  255 20 147
3  677 678 649  128 255 128
3  649 650 677  128 255 128
3  678 679 648  255 255 128
3  648 649 678  255 255 128
3  679 680 647  192 0 0
3  647 648 679  192 0 0
3  680 681 646  192 0 0
3  646 647 680  192 0 0
3  681 682 636  192 0 0
3  636 646 681  192 0 0
3  682 683 637  255 0 0
3  637 636 682  255 0 0
3  683 684 638  255 128 255
3  638 637 683  255 128 255
3  684 685 639  255 64 128
3  639 638 684  255 64 128
3  685 686 640  255 255 0
3  640 639 685  255 255 0
3  686 687 641  128 255 64
3  641 640 686  128 255 64
3  687 688 642  245 222 179
3  642 641 687  245 222 179
3  688 689 643  0 128 128
3  643 642 688  0 128 128
3  689 690 644  255 165 0
3  644 643 689  255 165 0
3  690 691 645  192 0 192
3  645 644 690  192 0 192
3  691 692 659  192 0 192
3  659 645 691  192 0 192
3  692 693 660  192 0 192
3  660 659 692  192 0 192
3  693 694 661  128 255 255
3  661 660 693  128 255 255
3  694 695 662  128 128 255
3  662 661 694  128 128 255
3  695 696 663  128 128 255
3  663 662 695  128 128 255
3  696 697 664  128 0 255
3  664 663 696  128 0 255
3  697 665 632  128 0 255
3  632 664 697  128 0 255
3  698 699 700  255 128 255
3  701 702 703  255 128 255
3  701 703 704  255 128 255
3  701 704 705  255 128 255
3  701 705 706  255 128 255
3  701 706 707  255 128 255
3  701 707 708  255 128 255
3  701 708 709  255 128 255
3  701 709 710  255 128 255
3  701 710 711  255 128 255
3  701 711 712  255 128 255
3  701 712 713  255 128 255
3  701 713 714  255 128 255
3  715 701 714  255 128 255
3  715 714 716  255 128 255
3  715 716 717  255 128 255
3  718 715 717  255 128 255
3  719 718 717  255 128 255
3  720 719 717  255 128 255
3  721 720 717  255 128 255
3  722 721 717  255 128 255
3  723 722 717  255 128 255
3  724 723 717  255 128 255
3  725 724 717  255 128 255
3  726 725 717  255 128 255
3  727 726 717  255 128 255
3  728 727 717  255 128 255
3  728 717 729  255 128 255
3  728 729 730  255 128 255
3  731 728 730  255 128 255
3  732 731 730  255 128 255
3  733 732 730  255 128 255
3  734 733 730  255 128 255
3  735 734 730  255 128 255
3  736 735 730  255 128 255
3  737 736 730  255 128 255
3  738 737 730  255 128 255
3  739 738 730  255 128 255
3  740 739 730  255 128 255
3  741 740 730  255 128 255
3  741 730 742  255 128 255
3  700 741 742  255 128 255
3  698 700 742  255 128 255
3  743 744 699  176 196 222
3  699 698 743  176 196 222
3  744 745 700  123 104 238
3  700 699 744  123 104 238
3  745 746 741  50 205 50
3  741 700 745  50 205 50
3  746 747 740  72 61 139
3  740 741 746  72 61 139
3  747 748 739  0 255 255
3  739 740 747  0 255 255
3  748 749 738  255 128 128
3  738 739 748  255 128 128
3  749 750 737  0 255 0
3  737 738 749  0 255 0
3  750 751 736  255 0 255
3  736 737 750  255 0 255
3  751 752 735  255 128 64
3  735 736 751  255 128 64
3  752 753 734  255 20 147
3  734 735 752  255 20 147
3  753 754 733  128 255 128
3  733 734 753  128 255 128
3  754 755 732  255 255 128
3  732 733 754  255 255 128
3  755 756 731  192 0 0
3  731 732 755  192 0 0
3  756 757 728  192 0 0
3  728 731 756  192 0 0
3  757 758 727  192 0 0
3  727 728 757  192 0 0
3  758 759 726  255 0 0
3  726 727 758  255 0 0
3  759 760 725  255 128 255
3  725 726 759  255 128 255
3  760 761 724  255 64 128
3  724 725 760  255 64 128
3  761 762 723  255 255 0
3  723 724 761  255 255 0
3  762 763 722  128 255 64
3  722 723 762  128 255 64
3  763 764 721  245 222 179
3  721 722 763  245 222 179
3  764 765 720  0 128 128
3  720 721 764  0 128 128
3  765 766 719  255 165 0
3  719 720 765  255 165 0
3  766 767 718  192 0 192
3  718 719 766  192 0 192
3  767 768 715  192 0 192
3  715 718 767  192 0 192
3  768 769 701  192 0 192
3  701 715 768  192 0 192
3  769 770 702  128 255 255
3  702 701 769  128 255 255
3  770 771 703  128 128 255
3  703 702 770  128 128 255
3  771 772 704  0 0 255
3  704 703 771  0 0 255
3  772 773 705  128 0 255
3  705 704 772  128 0 255
3  773 774 706  173 216 230
3  706 705 773  173 216 230
3  774 775 707  240 128 128
3  707 706 774  240 128 128
3  775 776 708  192 192 0
3  708 707 775  192 192 0
3  776 777 709  0 192 0
3  709 708 776  0 192 0
3  777 778 710  192 192 0
3  710 709 777  192 192 0
3  778 779 711  192 192 0
3  711 710 778  192 192 0
3  779 780 712  255 64 64
3  712 711 779  255 64 64
3  780 781 713  255 255 64
3  713 712 780  255 255 64
3  781 782 714  192 0 0
3  714 713 781  192 0 0
3  782 783 716  255 255 64
3  716 714 782  255 255 64
3  783 784 717  255 255 64
3  717 716 783  255 255 64
3  784 785 729  64 255 255
3  729 717 784  64 255 255
3  785 786 730  128 128 0
3  730 729 785  128 128 0
3  786 787 742  128 128 0
3  742 730 786  128 128 0
3  787 743 698  255 240 245
3  698 742 787  255 240 245
3  788 789 790  128 255 255
3  788 790 791  128 255 255
3  792 793 794  128 255 255
3  792 794 795  128 255 255
3  792 795 796  128 255 255
3  792 796 797  128 255 255
3  792 797 798  128 255 255
3  792 798 799  128 255 255
3  792 799 800  128 255 255
3  792 800 801  128 255 255
3  802 792 801  128 255 255
3  803 802 801  128 255 255
3  804 803 801  128 255 255
3  805 804 801  128 255 255
3  806 805 801  128 255 255
3  807 806 801  128 255 255
3  808 807 801  128 255 255
3  809 808 801  128 255 255
3  810 809 801  128 255 255
3  811 810 801  128 255 255
3  812 811 801  128 255 255
3  813 812 801  128 255 255
3  814 813 801  128 255 255
3  814 801 815  128 255 255
3  791 814 815  128 255 255
3  791 815 816  128 255 255
3  791 816 817  128 255 255
3  791 817 818  128 255 255
3  791 818 819  128 255 255
3  791 819 820  128 255 255
3  788 791 820  128 255 255
3  821 822 789  192 192 0
3  789 788 821  192 192 0
3  822 823 790  192 192 0
3  790 789 822  192 192 0
3  823 824 791  0 192 0
3  791 790 823  0 192 0
3  824 825 814  192 192 0
3  814 791 824  192 192 0
3  825 826 813  192 192 0
3  813 814 825  192 192 0
3  826 827 812  192 192 0
3  812 813 826  192 192 0
3  827 828 811  0 255 255
3  811 812 827  0 255 255
3  828 829 810  255 128 128
3  810 811 828  255 128 128
3  829 830 809  255 128 128
3  809 810 829  255 128 128
3  830 831 808  255 0 255
3  808 809 830  255 0 255
3  831 832 807  255 20 147
3  807 808 831  255 20 147
3  832 833 806  255 20 147
3  806 807 832  255 20 147
3  833 834 805  128 255 128
3  805 806 833  128 255 128
3  834 835 804  255 255 128
3  804 805 834  255 255 128
3  835 836 803  192 0 0
3  803 804 835  192 0 0
3  836 837 802  192 0 0
3  802 803 836  192 0 0
3  837 838 792  192 0 0
3  792 802 837  192 0 0
3  838 839 793  255 0 0
3  793 792 838  255 0 0
3  839 840 794  255 128 255
3  794 793 839  255 128 255
3  840 841 795  255 64 128
3  795 794 840  255 64 128
3  841 842 796  255 255 0
3  796 795 841  255 255 0
3  842 843 797  128 255 64
3  797 796 842  128 255 64
3  843 844 798  245 222 179
3  798 797 843  245 222 179
3  844 845 799  0 128 128
3  799 798 844  0 128 128
3  845 846 800  255 165 0
3  800 799 845  255 165 0
3  846 847 801  192 0 192
3  801 800 846  192 0 192
3  847 848 815  192 0 192
3  815 801 847  192 0 192
3  848 849 816  192 0 192
3  816 815 848  192 0 192
3  849 850 817  128 255 255
3  817 816 849  128 255 255
3  850 851 818  128 128 255
3  818 817 850  128 128 255
3  851 852 819  128 128 255
3  819 818 851  128 128 255
3  852 853 820  128 0 255
3  820 819 852  128 0 255
3  853 821 788  128 0 255
3  788 820 853  128 0 255
3  854 855 856  255 128 128
3  857 858 859  255 128 128
3  857 859 860  255 128 128
3  857 860 861  255 128 128
3  857 861 862  255 128 128
3  857 862 863  255 128 128
3  857 863 864  255 128 128
3  857 864 865  255 128 128
3  857 865 866  255 128 128
3  857 866 867  255 128 128
3  857 867 868  255 128 128
3  857 868 869  255 128 128
3  857 869 870  255 128 128
3  871 857 870  255 128 128
3  871 870 872  255 128 128
3  871 872 873  255 128 128
3  874 871 873  255 128 128
3  875 874 873  255 128 128
3  876 875 873  255 128 128
3  877 876 873  255 128 128
3  878 877 873  255 128 128
3  879 878 873  255 128 128
3  880 879 873  255 128 128
3  881 880 873  255 128 128
3  882 881 873  255 128 128
3  883 882 873  255 128 128
3  884 883 873  255 128 128
3  884 873 885  255 128 128
3  884 885 886  255 128 128
3  887 884 886  255 128 128
3  888 887 886  255 128 128
3  889 888 886  255 128 128
3  890 889 886  255 128 128
3  891 890 886  255 128 128
3  892 891 886  255 128 128
3  893 892 886  255 128 128
3  894 893 886  255 128 128
3  895 894 886  255 128 128
3  896 895 886  255 128 128
3  897 896 886  255 128 128
3  897 886 898  255 128 128
3  856 897 898  255 128 128
3  854 856 898  255 128 128
3  899 900 855  64 255 255
3  855 854 899  64 255 255
3  900 901 856  64 255 255
3  856 855 900  64 255 255
3  901 902 897  192 0 192
3  897 856 901  192 0 192
3  902 903 896  255 128 0
3  896 897 902  255 128 0
3  903 904 895  128 255 255
3  895 896 903  128 255 255
3  904 905 894  128 128 255
3  894 895 904  128 128 255
3  905 906 893  128 128 255
3  893 894 905  128 128 255
3  906 907 892  128 0 255
3  892 893 906  128 0 255
3  907 908 891  128 0 255
3  891 892 907  128 0 255
3  908 909 890  192 192 0
3  890 891 908  192 192 0
3  909 910 889  192 192 0
3  889 890 909  192 192 0
3  910 911 888  0 192 0
3  888 889 910  0 192 0
3  911 912 887  192 192 0
3  887 888 911  192 192 0
3  912 913 884  192 192 0
3  884 887 912  192 192 0
3  913 914 883  72 61 139
3  883 884 913  72 61 139
3  914 915 882  0 255 255
3  882 883 914  0 255 255
3  915 916 881  255 128 128
3  881 882 915  255 128 128
3  916 917 880  255 128 128
3  880 881 916  255 128 128
3  917 918 879  255 0 255
3  879 880 917  255 0 255
3  918 919 878  255 20 147
3  878 879 918  255 20 147
3  919 920 877  255 20 147
3  877 878 919  255 20 147
3  920 921 876  128 255 128
3  876 877 920  128 255 128
3  921 922 875  255 255 128
3  875 876 921  255 255 128
3  922 923 874  192 0 0
3  874 875 922  192 0 0
3  923 924 871  192 0 0
3  871 874 923  192 0 0
3  924 925 857  192 0 0
3  857 871 924  192 0 0
3  925 926 858  255 0 0
3  858 857 925  255 0 0
3  926 927 859  255 128 255
3  859 858 926  255 128 255
3  927 928 860  255 64 128
3  860 859 927  255 64 128
3  928 929 861  255 255 0
3  861 860 928  255 255 0
3  929 930 862  128 255 64
3  862 861 929  128 255 64
3  930 931 863  245 222 179
3  863 862 930  245 222 179
3  931 932 864  0 128 128
3  864 863 931  0 128 128
3  932 933 865  255 165 0
3  865 864 932  255 165 0
3  933 934 866  255 165 0
3  866 865 933  255 165 0
3  934 935 867  64 0 128
3  867 866 934  64 0 128
3  935 936 868  64 255 128
3  868 867 935  64 255 128
3  936 937 869  128 64 0
3  869 868 936  128 64 0
3  937 938 870  128 64 0
3  870 869 937  128 64 0
3  938 939 872  64 64 255
3  872 870 938  64 64 255
3  939 940 873  64 64 255
3  873 872 939  64 64 255
3  940 941 885  255 64 255
3  885 873 940  255 64 255
3  941 942 886  255 64 64
3  886 885 941  255 64 64
3  942 943 898  255 64 64
3  898 886 942  255 64 64
3  943 899 854  255 64 64
3  854 898 943  255 64 64
3  944 945 946  0 255 255
3  947 948 949  0 255 255
3  947 949 950  0 255 255
3  947 950 951  0 255 255
3  947 951 952  0 255 255
3  947 952 953  0 255 255
3  947 953 954  0 255 255
3  947 954 955  0 255 255
3  947 955 956  0 255 255
3  947 956 957  0 255 255
3  947 957 958  0 255 255
3  947 958 959  0 255 255
3  947 959 960  0 255 255
3  961 947 960  0 255 255
3  961 960 962  0 255 255
3  961 962 963  0 255 255
3  964 961 963  0 255 255
3  965 964 963  0 255 255
3  966 965 963  0 255 255
3  967 966 963  0 255 255
3  968 967 963  0 255 255
3  969 968 963  0 255 255
3  970 969 963  0 255 255
3  971 970 963  0 255 255
3  972 971 963  0 255 255
3  973 972 963  0 255 255
3  974 973 963  0 255 255
3  974 963 975  0 255 255
3  974 975 976  0 255 255
3  977 974 976  0 255 255
3  978 977 976  0 255 255
3  979 978 976  0 255 255
3  980 979 976  0 255 255
3  981 980 976  0 255 255
3  982 981 976  0 255 255
3  983 982 976  0 255 255
3  984 983 976  0 255 255
3  985 984 976  0 255 255
3  986 985 976  0 255 255
3  987 986 976  0 255 255
3  987 976 988  0 255 255
3  946 987 988  0 255 255
3  944 946 988  0 255 255
3  989 990 945  64 255 255
3  945 944 989  64 255 255
3  990 991 946  64 255 255
3  946 945 990  64 255 255
3  991 992 987  192 0 192
3  987 946 991  192 0 192
3  992 993 986  255 128 0
3  986 987 992  255 128 0
3  993 994 985  128 255 255
3  985 986 993  128 255 255
3  994 995 984  128 128 255
3  984 985 994  128 128 255
3  995 996 983  128 128 255
3  983 984 995  128 128 255
3  996 997 982  128 0 255
3  982 983 996  128 0 255
3  997 998 981  128 0 255
3  981 982 997  128 0 255
3  998 999 980  192 192 0
3  980 981 998  192 192 0
3  999 1000 979  192 192 0
3  979 980 999  192 192 0
3  1000 1001 978  0 192 0
3  978 979 1000  0 192 0
3  1001 1002 977  192 192 0
3  977 978 1001  192 192 0
3  1002 1003 974  192 192 0
3  974 977 1002  192 192 0
3  1003 1004 973  72 61 139
3  973 974 1003  72 61 139
3  1004 1005 972  0 255 255
3  972 973 1004  0 255 255
3  1005 1006 971  255 128 128
3  971 972 1005  255 128 128
3  1006 1007 970  255 128 128
3  970 971 1006  255 128 128
3  1007 1008 969  255 0 255
3  969 970 1007  255 0 255
3  1008 1009 968  255 20 147
3  968 969 1008  255 20 147
3  1009 1010 967  255 20 147
3  967 968 1009  255 20 147
3  1010 1011 966  128 255 128
3  966 967 1010  128 255 128
3  1011 1012 965  255 255 128
3  965 966 1011  255 255 128
3  1012 1013 964  192 0 0
3  964 965 1012  192 0 0
3  1013 1014 961  192 0 0
3  961 964 1013  192 0 0
3  1014 1015 947  192 0 0
3  947 961 1014  192 0 0
3  1015 1016 948  255 0 0
3  948 947 1015  255 0 0
3  1016 1017 949  255 128 255
3  949 948 1016  255 128 255
3  1017 1018 950  255 64 128
3  950 949 1017  255 64 128
3  1018 1019 951  255 255 0
3  951 950 1018  255 255 0
3  1019 1020 952  128 255 64
3  952 951 1019  128 255 64
3  1020 1021 953  245 222 179
3  953 952 1020  245 222 179
3  1021 1022 954  0 128 128
3  954 953 1021  0 128 128
3  1022 1023 955  255 165 0
3  955 954 1022  255 165 0
3  1023 1024 956  255 165 0
3  956 955 1023  255 165 0
3  1024 1025 957  64 0 128
3  957 956 1024  64 0 128
3  1025 1026 958  64 255 128
3  958 957 1025  64 255 128
3  1026 1027 959  128 64 0
3  959 958 1026  128 64 0
3  1027 1028 960  128 64 0
3  960 959 1027  128 64 0
3  1028 1029 962  64 64 255
3  962 960 1028  64 64 255
3  1029 1030 963  64 64 255
3  963 962 1029  64 64 255
3  1030 1031 975  255 64 255
3  975 963 1030  255 64 255
3  1031 1032 976  255 64 64
3  976 975 1031  255 64 64
3  1032 1033 988  255 64 64
3  988 976 1032  255 64 64
3  1033 989 944  255 64 64
3  944 988 1033  255 64 64
3  35 34 1  255 20 147
3  1 0 35  255 20 147
3  34 37 2  128 255 128
3  2 1 34  128 255 128
3  37 39 3  255 255 128
3  3 2 37  255 255 128
3  39 41 21  192 0 0
3  21 3 39  192 0 0
3  41 43 18  192 0 0
3  18 21 41  192 0 0
3  43 45 4  192 0 0
3  4 18 43  192 0 0
3  45 47 5  255 0 0
3  5 4 45  255 0 0
3  47 49 6  255 128 255
3  6 5 47  255 128 255
3  49 51 7  255 64 128
3  7 6 49  255 64 128
3  51 53 8  255 255 0
3  8 7 51  255 255 0
3  53 55 9  128 255 64
3  9 8 53  128 255 64
3  55 57 10  245 222 179
3  10 9 55  245 222 179
3  57 59 11  0 128 128
3  11 10 57  0 128 128
3  59 61 12  255 165 0
3  12 11 59  255 165 0
3  61 63 13  255 228 196
3  13 12 61  255 228 196
3  63 65 14  64 0 128
3  14 13 63  64 0 128
3  65 67 15  64 255 128
3  15 14 65  64 255 128
3  67 69 16  128 64 0
3  16 15 67  128 64 0
3  69 71 17  128 64 255
3  17 16 69  128 64 255
3  71 73 19  0 0 192
3  19 17 71  0 0 192
3  73 75 20  0 0 192
3  20 19 73  0 0 192
3  75 77 22  0 0 192
3  22 20 75  0 0 192
3  77 79 23  255 240 245
3  23 22 77  255 240 245
3  79 81 24  176 196 222
3  24 23 79  176 196 222
3  81 83 25  123 104 238
3  25 24 81  123 104 238
3  83 85 26  50 205 50
3  26 25 83  50 205 50
3  85 87 27  72 61 139
3  27 26 85  72 61 139
3  87 89 28  0 255 255
3  28 27 87  0 255 255
3  89 91 29  255 128 128
3  29 28 89  255 128 128
3  91 93 30  0 255 0
3  30 29 91  0 255 0
3  93 95 31  255 0 255
3  31 30 93  255 0 255
3  95 35 0  255 128 64
3  0 31 95  255 128 64
3  1034 1035 1036  255 0 0
3  1182 1185 1188  255 0 0
3  1182 1188 1191  255 0 0
3  1182 1191 1194  255 0 0
3  1182 1194 1197  255 0 0
3  1182 1197 1200  255 0 0
3  1182 1200 1203  255 0 0
3  1182 1203 1206  255 0 0
3  1182 1206 1209  255 0 0
3  1182 1209 1037  255 0 0
3  1182 1037 1038  255 0 0
3  1182 1038 1039  255 0 0
3  1182 1039 1040  255 0 0
3  1179 1182 1040  255 0 0
3  1179 1040 1041  255 0 0
3  1179 1041 1042  255 0 0
3  1176 1179 1042  255 0 0
3  1173 1176 1042  255 0 0
3  1170 1173 1042  255 0 0
3  1167 1170 1042  255 0 0
3  1164 1167 1042  255 0 0
3  1161 1164 1042  255 0 0
3  1158 1161 1042  255 0 0
3  1155 1158 1042  255 0 0
3  1152 1155 1042  255 0 0
3  1149 1152 1042  255 0 0
3  1146 1149 1042  255 0 0
3  1146 1042 1043  255 0 0
3  1146 1043 1044  255 0 0
3  1143 1146 1044  255 0 0
3  1140 1143 1044  255 0 0
3  1137 1140 1044  255 0 0
3  1134 1137 1044  255 0 0
3  1131 1134 1044  255 0 0
3  1223 1131 1044  255 0 0
3  1220 1223 1044  255 0 0
3  1217 1220 1044  255 0 0
3  1214 1217 1044  255 0 0
3  1211 1214 1044  255 0 0
3  1210 1211 1044  255 0 0
3  1210 1044 1045  255 0 0
3  1036 1210 1045  255 0 0
3  1034 1036 1045  255 0 0
3  1035 1034 1046  64 255 255
3  1046 1047 1035  64 255 255
3  1036 1035 1047  64 255 255
3  1047 1048 1036  64 255 255
3  1210 1036 1048  192 0 192
3  1048 1049 1210  192 0 192
3  1212 1210 1049  255 128 0
3  1049 1050 1212  255 128 0
3  1215 1212 1050  128 255 255
3  1050 1051 1215  128 255 255
3  1218 1215 1051  128 128 255
3  1051 1052 1218  128 128 255
3  1221 1218 1052  0 0 255
3  1052 1053 1221  0 0 255
3  1224 1221 1053  128 0 255
3  1053 1054 1224  128 0 255
3  1132 1224 1054  173 216 230
3  1054 1055 1132  173 216 230
3  1135 1132 1055  240 128 128
3  1055 1056 1135  240 128 128
3  1138 1135 1056  192 192 0
3  1056 1057 1138  192 192 0
3  1141 1138 1057  0 192 0
3  1057 1058 1141  0 192 0
3  1144 1141 1058  192 192 0
3  1058 1059 1144  192 192 0
3  1147 1144 1059  192 192 0
3  1059 1060 1147  192 192 0
3  1150 1147 1060  192 192 0
3  1060 1061 1150  192 192 0
3  1153 1150 1061  0 255 255
3  1061 1062 1153  0 255 255
3  1156 1153 1062  255 128 128
3  1062 1063 1156  255 128 128
3  1159 1156 1063  0 255 0
3  1063 1064 1159  0 255 0
3  1162 1159 1064  255 0 255
3  1064 1065 1162  255 0 255
3  1165 1162 1065  255 128 64
3  1065 1066 1165  255 128 64
3  1168 1165 1066  255 20 147
3  1066 1067 1168  255 20 147
3  1171 1168 1067  128 255 128
3  1067 1068 1171  128 255 128
3  1174 1171 1068  255 255 128
3  1068 1069 1174  255 255 128
3  1177 1174 1069  192 0 0
3  1069 1070 1177  192 0 0
3  1180 1177 1070  192 0 0
3  1070 1071 1180  192 0 0
3  1183 1180 1071  192 0 0
3  1071 1072 1183  192 0 0
3  1186 1183 1072  255 0 0
3  1072 1073 1186  255 0 0
3  1189 1186 1073  255 128 255
3  1073 1074 1189  255 128 255
3  1192 1189 1074  255 64 128
3  1074 1075 1192  255 64 128
3  1195 1192 1075  255 255 0
3  1075 1076 1195  255 255 0
3  1198 1195 1076  128 255 64
3  1076 1077 1198  128 255 64
3  1201 1198 1077  245 222 179
3  1077 1078 1201  245 222 179
3  1204 1201 1078  0 128 128
3  1078 1079 1204  0 128 128
3  1207 1204 1079  255 165 0
3  1079 1080 1207  255 165 0
3  1209 1207 1080  255 228 196
3  1080 1081 1209  255 228 196
3  1037 1209 1081  64 0 128
3  1081 1082 1037  64 0 128
3  1038 1037 1082  64 255 128
3  1082 1083 1038  64 255 128
3  1039 1038 1083  128 64 0
3  1083 1084 1039  128 64 0
3  1040 1039 1084  64 64 255
3  1084 1085 1040  64 64 255
3  1041 1040 1085  64 64 255
3  1085 1086 1041  64 64 255
3  1042 1041 1086  64 64 255
3  1086 1087 1042  64 64 255
3  1043 1042 1087  255 64 255
3  1087 1088 1043  255 64 255
3  1044 1043 1088  255 64 64
3  1088 1089 1044  255 64 64
3  1045 1044 1089  255 64 64
3  1089 1090 1045  255 64 64
3  1034 1045 1090  64 255 64
3  1090 1046 1034  64 255 64
3  1091 1092 1093  100 100 100
3  1093 1094 1091  100 100 100
3  1092 1095 1096  100 100 100
3  1096 1093 1092  100 100 100
3  1095 1097 1098  100 100 100
3  1098 1096 1095  100 100 100
3  1097 1099 1100  100 100 100
3  1100 1098 1097  100 100 100
3  1099 1101 1102  100 100 100
3  1102 1100 1099  100 100 100
3  1101 1103 1104  100 100 100
3  1104 1102 1101  100 100 100
3  1103 1105 1106  100 100 100
3  1106 1104 1103  100 100 100
3  1105 1107 1108  100 100 100
3  1108 1106 1105  100 100 100
3  1107 1109 1110  100 100 100
3  1110 1108 1107  100 100 100
3  1109 1091 1094  100 100 100
3  1094 1110 1109  100 100 100
3  1107 1105 1103  0 255 0
3  1103 1101 1099  0 255 0
3  1099 1097 1095  0 255 0
3  1095 1092 1091  0 255 0
3  1099 1095 1091  0 255 0
3  1103 1099 1091  0 255 0
3  1107 1103 1091  0 255 0
3  1109 1107 1091  0 255 0
3  1093 1096 1098  255 0 0
3  1098 1100 1102  255 0 0
3  1102 1104 1106  255 0 0
3  1106 1108 1110  255 0 0
3  1102 1106 1110  255 0 0
3  1098 1102 1110  255 0 0
3  1093 1098 1110  255 0 0
3  1094 1093 1110  255 0 0
3  1111 1112 1113  100 100 100
3  1113 1114 1111  100 100 100
3  1112 1115 1116  100 100 100
3  1116 1113 1112  100 100 100
3  1115 1117 1118  100 100 100
3  1118 1116 1115  100 100 100
3  1117 1119 1120  100 100 100
3  1120 1118 1117  100 100 100
3  1119 1121 1122  100 100 100
3  1122 1120 1119  100 100 100
3  1121 1123 1124  100 100 100
3  1124 1122 1121  100 100 100
3  1123 1125 1126  100 100 100
3  1126 1124 1123  100 100 100
3  1125 1127 1128  100 100 100
3  1128 1126 1125  100 100 100
3  1127 1129 1130  100 100 100
3  1130 1128 1127  100 100 100
3  1129 1111 1114  100 100 100
3  1114 1130 1129  100 100 100
3  1127 1125 1123  0 255 0
3  1123 1121 1119  0 255 0
3  1119 1117 1115  0 255 0
3  1115 1112 1111  0 255 0
3  1119 1115 1111  0 255 0
3  1123 1119 1111  0 255 0
3  1127 1123 1111  0 255 0
3  1129 1127 1111  0 255 0
3  1113 1116 1118  255 0 0
3  1118 1120 1122  255 0 0
3  1122 1124 1126  255 0 0
3  1126 1128 1130  255 0 0
3  1122 1126 1130  255 0 0
3  1118 1122 1130  255 0 0
3  1113 1118 1130  255 0 0
3  1114 1113 1130  255 0 0
3  94 92 90  0 255 255
3  90 88 86  0 255 255
3  86 84 82  0 255 255
3  90 86 82  0 255 255
3  82 80 78  0 255 255
3  78 76 74  0 255 255
3  82 78 74  0 255 255
3  74 72 70  0 255 255
3  70 68 66  0 255 255
3  74 70 66  0 255 255
3  82 74 66  0 255 255
3  66 64 62  0 255 255
3  62 60 58  0 255 255
3  66 62 58  0 255 255
3  58 56 54  0 255 255
3  54 52 50  0 255 255
3  58 54 50  0 255 255
3  66 58 50  0 255 255
3  50 48 46  0 255 255
3  46 44 42  0 255 255
3  50 46 42  0 255 255
3  42 40 38  0 255 255
3  38 36 33  0 255 255
3  42 38 33  0 255 255
3  50 42 33  0 255 255
3  66 50 33  0 255 255
3  82 66 33  0 255 255
3  90 82 33  0 255 255
3  94 90 33  0 255 255
3  32 94 33  0 255 255
3  1225 1222 1219  255 0 0
3  1219 1216 1213  255 0 0
3  1225 1219 1213  255 0 0
3  1213 156 155  255 0 0
3  155 1208 1205  255 0 0
3  1213 155 1205  255 0 0
3  1225 1213 1205  255 0 0
3  1205 1202 1199  255 0 0
3  1199 1196 1193  255 0 0
3  1205 1199 1193  255 0 0
3  1193 1190 1187  255 0 0
3  1187 1184 1181  255 0 0
3  1193 1187 1181  255 0 0
3  1205 1193 1181  255 0 0
3  1225 1205 1181  255 0 0
3  1181 1178 1175  255 0 0
3  1175 1172 1169  255 0 0
3  1181 1175 1169  255 0 0
3  1169 1166 1163  255 0 0
3  1163 1160 1157  255 0 0
3  1169 1163 1157  255 0 0
3  1181 1169 1157  255 0 0
3  1225 1181 1157  255 0 0
3  1157 1154 1151  255 0 0
3  1151 1148 1145  255 0 0
3  1157 1151 1145  255 0 0
3  1225 1157 1145  255 0 0
3  1145 1142 1139  255 0 0
3  1225 1145 1139  255 0 0
3  1225 1139 1136  255 0 0
3  1133 1225 1136  255 0 0
3  207 251 250  255 128 128
3  207 250 249  255 128 128
3  248 247 246  255 128 128
3  246 245 244  255 128 128
3  248 246 244  255 128 128
3  244 243 242  255 128 128
3  242 241 240  255 128 128
3  244 242 240  255 128 128
3  248 244 240  255 128 128
3  240 239 238  255 128 128
3  238 237 236  255 128 128
3  240 238 236  255 128 128
3  236 235 234  255 128 128
3  234 233 232  255 128 128
3  236 234 232  255 128 128
3  240 236 232  255 128 128
3  248 240 232  255 128 128
3  249 248 232  255 128 128
3  232 231 230  255 128 128
3  230 229 228  255 128 128
3  232 230 228  255 128 128
3  228 227 226  255 128 128
3  226 225 224  255 128 128
3  228 226 224  255 128 128
3  232 228 224  255 128 128
3  224 223 222  255 128 128
3  222 221 220  255 128 128
3  224 222 220  255 128 128
3  220 219 218  255 128 128
3  218 217 216  255 128 128
3  220 218 216  255 128 128
3  224 220 216  255 128 128
3  232 224 216  255 128 128
3  249 232 216  255 128 128
3  207 249 216  255 128 128
3  216 215 214  255 128 128
3  214 213 212  255 128 128
3  216 214 212  255 128 128
3  207 216 212  255 128 128
3  212 211 210  255 128 128
3  207 212 210  255 128 128
3  207 210 209  255 128 128
3  207 209 208  255 128 128
3  313 312 311  128 255 255
3  315 314 313  128 255 255
3  315 313 311  128 255 255
3  318 317 316  128 255 255
3  320 319 318  128 255 255
3  320 318 316  128 255 255
3  322 321 320  128 255 255
3  324 323 322  128 255 255
3  324 322 320  128 255 255
3  324 320 316  128 255 255
3  326 325 324  128 255 255
3  328 327 326  128 255 255
3  328 326 324  128 255 255
3  330 329 328  128 255 255
3  332 331 330  128 255 255
3  332 330 328  128 255 255
3  332 328 324  128 255 255
3  332 324 316  128 255 255
3  332 316 315  128 255 255
3  334 333 332  128 255 255
3  336 335 334  128 255 255
3  336 334 332  128 255 255
3  338 337 336  128 255 255
3  338 336 332  128 255 255
3  338 332 315  128 255 255
3  340 339 338  128 255 255
3  342 341 340  128 255 255
3  344 343 342  128 255 255
3  344 342 340  128 255 255
3  346 345 344  128 255 255
3  348 347 346  128 255 255
3  348 346 344  128 255 255
3  348 344 340  128 255 255
3  350 349 348  128 255 255
3  352 351 350  128 255 255
3  352 350 348  128 255 255
3  354 353 352  128 255 255
3  356 355 354  128 255 255
3  356 354 352  128 255 255
3  356 352 348  128 255 255
3  356 348 340  128 255 255
3  356 340 338  128 255 255
3  356 338 315  128 255 255
3  358 357 356  128 255 255
3  360 359 358  128 255 255
3  360 358 356  128 255 255
3  362 361 360  128 255 255
3  364 363 362  128 255 255
3  364 362 360  128 255 255
3  364 360 356  128 255 255
3  364 356 315  128 255 255
3  364 315 311  128 255 255
3  366 365 364  128 255 255
3  366 364 311  128 255 255
3  367 366 311  128 255 255
3  310 367 311  128 255 255
3  1247 1251 1255  0 0 255
3  1255 1257 1259  0 0 255
3  1247 1255 1259  0 0 255
3  1259 1261 1263  0 0 255
3  1263 1265 1267  0 0 255
3  1259 1263 1267  0 0 255
3  1247 1259 1267  0 0 255
3  1267 1269 1271  0 0 255
3  1271 1273 1275  0 0 255
3  1267 1271 1275  0 0 255
3  1275 1283 1285  0 0 255
3  1285 1287 1289  0 0 255
3  1275 1285 1289  0 0 255
3  1267 1275 1289  0 0 255
3  1289 1291 1293  0 0 255
3  1293 1295 1297  0 0 255
3  1289 1293 1297  0 0 255
3  1297 1241 1239  0 0 255
3  1239 1235 1233  0 0 255
3  1297 1239 1233  0 0 255
3  1289 1297 1233  0 0 255
3  1267 1289 1233  0 0 255
3  1046 1048 1047  0 255 0
3  1231 1237 1244  0 0 255
3  1233 1231 1244  0 0 255
3  1267 1233 1244  0 0 255
3  1245 1299 1301  0 0 255
3  1301 1303 1229  0 0 255
3  1046 1049 1048  0 255 0
3  1301 1229 1227  0 0 255
3  1227 1337 1335  0 0 255
3  1335 1333 1331  0 0 255
3  1227 1335 1331  0 0 255
3  1301 1227 1331  0 0 255
3  1331 1329 1327  0 0 255
3  1327 1325 1323  0 0 255
3  1331 1327 1323  0 0 255
3  1323 1321 1319  0 0 255
3  1319 1317 1315  0 0 255
3  1323 1319 1315  0 0 255
3  1331 1323 1315  0 0 255
3  1301 1331 1315  0 0 255
3  1245 1301 1315  0 0 255
3  1315 1313 1311  0 0 255
3  1311 1309 1307  0 0 255
3  1315 1311 1307  0 0 255
3  1307 1305 1280  0 0 255
3  1315 1307 1280  0 0 255
3  1245 1315 1280  0 0 255
3  1267 1244 1281  0 0 255
3  1267 1281 1277  0 0 255
3  1247 1267 1277  0 0 255
3  1277 1253 1249  0 0 255
3  1247 1277 1249  0 0 255
3  1046 1051 1049  0 255 0
3  1051 1050 1049  0 255 0
3  433 432 431  128 0 255
3  431 430 429  128 0 255
3  433 431 429  128 0 255
3  429 428 427  128 0 255
3  427 426 425  128 0 255
3  429 427 425  128 0 255
3  433 429 425  128 0 255
3  425 424 423  128 0 255
3  423 422 421  128 0 255
3  425 423 421  128 0 255
3  421 420 419  128 0 255
3  419 418 417  128 0 255
3  421 419 417  128 0 255
3  425 421 417  128 0 255
3  433 425 417  128 0 255
3  417 416 415  128 0 255
3  415 414 413  128 0 255
3  417 415 413  128 0 255
3  413 412 411  128 0 255
3  411 410 409  128 0 255
3  413 411 409  128 0 255
3  417 413 409  128 0 255
3  433 417 409  128 0 255
3  409 408 407  128 0 255
3  407 406 405  128 0 255
3  409 407 405  128 0 255
3  433 409 405  128 0 255
3  405 404 403  128 0 255
3  433 405 403  128 0 255
3  433 403 402  128 0 255
3  401 433 402  128 0 255
3  499 498 497  128 128 255
3  497 496 495  128 128 255
3  499 497 495  128 128 255
3  495 494 493  128 128 255
3  493 492 491  128 128 255
3  495 493 491  128 128 255
3  499 495 491  128 128 255
3  491 490 489  128 128 255
3  489 488 487  128 128 255
3  491 489 487  128 128 255
3  487 486 485  128 128 255
3  485 484 483  128 128 255
3  487 485 483  128 128 255
3  491 487 483  128 128 255
3  499 491 483  128 128 255
3  483 482 481  128 128 255
3  481 480 479  128 128 255
3  483 481 479  128 128 255
3  479 478 477  128 128 255
3  477 476 475  128 128 255
3  479 477 475  128 128 255
3  483 479 475  128 128 255
3  499 483 475  128 128 255
3  475 474 473  128 128 255
3  473 472 471  128 128 255
3  475 473 471  128 128 255
3  499 475 471  128 128 255
3  471 470 469  128 128 255
3  499 471 469  128 128 255
3  499 469 468  128 128 255
3  467 499 468  128 128 255
3  565 564 563  255 128 0
3  563 562 561  255 128 0
3  565 563 561  255 128 0
3  561 560 559  255 128 0
3  559 558 557  255 128 0
3  561 559 557  255 128 0
3  565 561 557  255 128 0
3  557 556 555  255 128 0
3  555 554 553  255 128 0
3  557 555 553  255 128 0
3  553 552 551  255 128 0
3  551 550 549  255 128 0
3  553 551 549  255 128 0
3  557 553 549  255 128 0
3  565 557 549  255 128 0
3  549 548 547  255 128 0
3  547 546 545  255 128 0
3  549 547 545  255 128 0
3  545 544 543  255 128 0
3  543 542 541  255 128 0
3  545 543 541  255 128 0
3  549 545 541  255 128 0
3  565 549 541  255 128 0
3  541 540 539  255 128 0
3  539 538 537  255 128 0
3  541 539 537  255 128 0
3  565 541 537  255 128 0
3  537 536 535  255 128 0
3  565 537 535  255 128 0
3  565 535 534  255 128 0
3  533 565 534  255 128 0
3  631 630 629  128 255 128
3  629 628 627  128 255 128
3  631 629 627  128 255 128
3  627 626 625  128 255 128
3  625 624 623  128 255 128
3  627 625 623  128 255 128
3  631 627 623  128 255 128
3  623 622 621  128 255 128
3  621 620 619  128 255 128
3  623 621 619  128 255 128
3  619 618 617  128 255 128
3  617 616 615  128 255 128
3  619 617 615  128 255 128
3  623 619 615  128 255 128
3  631 623 615  128 255 128
3  615 614 613  128 255 128
3  613 612 611  128 255 128
3  615 613 611  128 255 128
3  611 610 609  128 255 128
3  609 608 607  128 255 128
3  611 609 607  128 255 128
3  615 611 607  128 255 128
3  631 615 607  128 255 128
3  607 606 605  128 255 128
3  605 604 603  128 255 128
3  607 605 603  128 255 128
3  631 607 603  128 255 128
3  603 602 601  128 255 128
3  631 603 601  128 255 128
3  631 601 600  128 255 128
3  599 631 600  128 255 128
3  697 696 695  255 255 128
3  695 694 693  255 255 128
3  697 695 693  255 255 128
3  693 692 691  255 255 128
3  691 690 689  255 255 128
3  693 691 689  255 255 128
3  697 693 689  255 255 128
3  689 688 687  255 255 128
3  687 686 685  255 255 128
3  689 687 685  255 255 128
3  685 684 683  255 255 128
3  683 682 681  255 255 128
3  685 683 681  255 255 128
3  689 685 681  255 255 128
3  697 689 681  255 255 128
3  681 680 679  255 255 128
3  679 678 677  255 255 128
3  681 679 677  255 255 128
3  677 676 675  255 255 128
3  675 674 673  255 255 128
3  677 675 673  255 255 128
3  681 677 673  255 255 128
3  697 681 673  255 255 128
3  673 672 671  255 255 128
3  671 670 669  255 255 128
3  673 671 669  255 255 128
3  697 673 669  255 255 128
3  669 668 667  255 255 128
3  697 669 667  255 255 128
3  697 667 666  255 255 128
3  665 697 666  255 255 128
3  743 787 786  255 255 0
3  743 786 785  255 255 0
3  784 783 782  255 255 0
3  782 781 780  255 255 0
3  784 782 780  255 255 0
3  780 779 778  255 255 0
3  778 777 776  255 255 0
3  780 778 776  255 255 0
3  784 780 776  255 255 0
3  776 775 774  255 255 0
3  774 773 772  255 255 0
3  776 774 772  255 255 0
3  772 771 770  255 255 0
3  770 769 768  255 255 0
3  772 770 768  255 255 0
3  776 772 768  255 255 0
3  784 776 768  255 255 0
3  785 784 768  255 255 0
3  768 767 766  255 255 0
3  766 765 764  255 255 0
3  768 766 764  255 255 0
3  764 763 762  255 255 0
3  762 761 760  255 255 0
3  764 762 760  255 255 0
3  768 764 760  255 255 0
3  760 759 758  255 255 0
3  758 757 756  255 255 0
3  760 758 756  255 255 0
3  756 755 754  255 255 0
3  754 753 752  255 255 0
3  756 754 752  255 255 0
3  760 756 752  255 255 0
3  768 760 752  255 255 0
3  785 768 752  255 255 0
3  743 785 752  255 255 0
3  752 751 750  255 255 0
3  750 749 748  255 255 0
3  752 750 748  255 255 0
3  743 752 748  255 255 0
3  748 747 746  255 255 0
3  743 748 746  255 255 0
3  743 746 745  255 255 0
3  743 745 744  255 255 0
3  853 852 851  255 128 255
3  851 850 849  255 128 255
3  853 851 849  255 128 255
3  849 848 847  255 128 255
3  847 846 845  255 128 255
3  849 847 845  255 128 255
3  853 849 845  255 128 255
3  845 844 843  255 128 255
3  843 842 841  255 128 255
3  845 843 841  255 128 255
3  841 840 839  255 128 255
3  839 838 837  255 128 255
3  841 839 837  255 128 255
3  845 841 837  255 128 255
3  853 845 837  255 128 255
3  837 836 835  255 128 255
3  835 834 833  255 128 255
3  837 835 833  255 128 255
3  833 832 831  255 128 255
3  831 830 829  255 128 255
3  833 831 829  255 128 255
3  837 833 829  255 128 255
3  853 837 829  255 128 255
3  829 828 827  255 128 255
3  827 826 825  255 128 255
3  829 827 825  255 128 255
3  853 829 825  255 128 255
3  825 824 823  255 128 255
3  853 825 823  255 128 255
3  853 823 822  255 128 255
3  821 853 822  255 128 255
3  899 943 942  0 0 255
3  899 942 941  0 0 255
3  940 939 938  0 0 255
3  938 937 936  0 0 255
3  940 938 936  0 0 255
3  936 935 934  0 0 255
3  934 933 932  0 0 255
3  936 934 932  0 0 255
3  940 936 932  0 0 255
3  932 931 930  0 0 255
3  930 929 928  0 0 255
3  932 930 928  0 0 255
3  928 927 926  0 0 255
3  926 925 924  0 0 255
3  928 926 924  0 0 255
3  932 928 924  0 0 255
3  940 932 924  0 0 255
3  941 940 924  0 0 255
3  924 923 922  0 0 255
3  922 921 920  0 0 255
3  924 922 920  0 0 255
3  920 919 918  0 0 255
3  918 917 916  0 0 255
3  920 918 916  0 0 255
3  924 920 916  0 0 255
3  916 915 914  0 0 255
3  914 913 912  0 0 255
3  916 914 912  0 0 255
3  912 911 910  0 0 255
3  910 909 908  0 0 255
3  912 910 908  0 0 255
3  916 912 908  0 0 255
3  924 916 908  0 0 255
3  941 924 908  0 0 255
3  899 941 908  0 0 255
3  908 907 906  0 0 255
3  906 905 904  0 0 255
3  908 906 904  0 0 255
3  899 908 904  0 0 255
3  904 903 902  0 0 255
3  899 904 902  0 0 255
3  899 902 901  0 0 255
3  899 901 900  0 0 255
3  989 1033 1032  255 0 255
3  989 1032 1031  255 0 255
3  1030 1029 1028  255 0 255
3  1028 1027 1026  255 0 255
3  1030 1028 1026  255 0 255
3  1026 1025 1024  255 0 255
3  1024 1023 1022  255 0 255
3  1026 1024 1022  255 0 255
3  1030 1026 1022  255 0 255
3  1022 1021 1020  255 0 255
3  1020 1019 1018  255 0 255
3  1022 1020 1018  255 0 255
3  1018 1017 1016  255 0 255
3  1016 1015 1014  255 0 255
3  1018 1016 1014  255 0 255
3  1022 1018 1014  255 0 255
3  1030 1022 1014  255 0 255
3  1031 1030 1014  255 0 255
3  1014 1013 1012  255 0 255
3  1012 1011 1010  255 0 255
3  1014 1012 1010  255 0 255
3  1010 1009 1008  255 0 255
3  1008 1007 1006  255 0 255
3  1010 1008 1006  255 0 255
3  1014 1010 1006  255 0 255
3  1006 1005 1004  255 0 255
3  1004 1003 1002  255 0 255
3  1006 1004 1002  255 0 255
3  1002 1001 1000  255 0 255
3  1000 999 998  255 0 255
3  1002 1000 998  255 0 255
3  1006 1002 998  255 0 255
3  1014 1006 998  255 0 255
3  1031 1014 998  255 0 255
3  989 1031 998  255 0 255
3  998 997 996  255 0 255
3  996 995 994  255 0 255
3  998 996 994  255 0 255
3  989 998 994  255 0 255
3  994 993 992  255 0 255
3  989 994 992  255 0 255
3  989 992 991  255 0 255
3  989 991 990  255 0 255
3  1046 1090 1089  0 255 0
3  1046 1089 1088  0 255 0
3  1087 1086 1085  0 255 0
3  1085 1084 1083  0 255 0
3  1087 1085 1083  0 255 0
3  1083 1082 1081  0 255 0
3  1081 1080 1079  0 255 0
3  1083 1081 1079  0 255 0
3  1087 1083 1079  0 255 0
3  1079 1078 1077  0 255 0
3  1077 1076 1075  0 255 0
3  1079 1077 1075  0 255 0
3  1075 1074 1073  0 255 0
3  1073 1072 1071  0 255 0
3  1075 1073 1071  0 255 0
3  1079 1075 1071  0 255 0
3  1087 1079 1071  0 255 0
3  1088 1087 1071  0 255 0
3  1071 1070 1069  0 255 0
3  1069 1068 1067  0 255 0
3  1071 1069 1067  0 255 0
3  1067 1066 1065  0 255 0
3  1065 1064 1063  0 255 0
3  1067 1065 1063  0 255 0
3  1071 1067 1063  0 255 0
3  1063 1062 1061  0 255 0
3  1061 1060 1059  0 255 0
3  1063 1061 1059  0 255 0
3  1059 1058 1057  0 255 0
3  1057 1056 1055  0 255 0
3  1059 1057 1055  0 255 0
3  1063 1059 1055  0 255 0
3  1071 1063 1055  0 255 0
3  1088 1071 1055  0 255 0
3  1046 1088 1055  0 255 0
3  1055 1054 1053  0 255 0
3  1053 1052 1051  0 255 0
3  1055 1053 1051  0 255 0
3  1046 1055 1051  0 255 0

