OFF
637 754 0

-16.6841 6.10147 33.3975
-16.6841 6.10147 34.9275
-16.6841 6.10147 20.3275
-16.6841 6.10147 18.7964
-16.6841 6.10147 5.7266
-4.93995 1.53815 5.7266
-4.93995 1.53815 18.7964
-4.93995 1.53815 34.9275
-19.6927 -12.9324 -50.6925
-20.6813 -17.3 -50.6925
-19.3967 -11.6246 -50.6925
-19.3967 -11.6246 -15.3232
-19.3967 -11.6246 -8.87251
-20.6813 -17.3 -8.87251
-20.6813 -17.3 -10.4025
-20.6813 -17.3 -23.4724
-20.6813 -17.3 -25.0024
-20.6813 -17.3 -38.0721
-20.6813 -17.3 -39.6022
-16.52 -25.64 5.72651
-12.24 -27.78 5.72651
-19.851 -21.7538 5.72652
-20.6813 -17.3 5.72653
-19.6927 -12.9324 5.72654
-19.3967 -11.6246 5.72655
-18.1869 -10.5231 5.72655
-14.2237 -6.91461 5.72656
-8.1062 -1.34469 5.72659
-2.15156 0.45469 5.7266
9.96575 -4.25364 5.72659
17.6873 -7.25395 5.72659
-6.36717 -27.78 5.72652
-10.2796 -27.78 5.72651
-1.55008 0.220978 -8.87251
14.8671 -4.78619 -8.87251
-1.55008 0.220978 4.19755
14.8671 -4.78619 4.19755
-2.28986 1.09181 34.9275
-7.51557 25.1658 34.9275
14.4036 -4.76902 34.9275
16.7064 -5.57753 34.9275
18.4216 -4.91784 34.9275
22.069 -3.515 34.9275
25.4966 -0.590174 34.9275
27.1 4.22 34.9275
27.1 7.8 34.9275
24.7778 12.4444 34.9275
23.9787 14.0427 34.9275
13.0379 17.9068 34.9275
-0.305212 -11.9529 -8.87251
-2.21037 0.477544 -8.87251
-0.305212 -11.9529 4.19755
-2.21037 0.477544 4.19755
-20.6479 27.0714 -8.87251
27.1 4.22 -8.87251
27.1 4.59297 -8.87251
27.1 7.8 -8.87251
25.7716 10.4568 -8.87251
24.7778 12.4444 -8.87251
23.9787 14.0427 -8.87251
18.1518 16.1006 -8.87251
16.1349 16.8129 -8.87251
14.6718 17.3297 -8.87251
-7.51557 25.1658 -8.87251
-9.11617 25.7311 -8.87251
-14.9174 27.78 -8.87251
-20.7818 27.78 -8.87251
-21.6285 26.8963 -8.87251
-22.5453 25.9313 -8.87251
-25.6638 22.6486 -8.87251
-26.68 19.6 -8.87251
-27.0698 16.9687 -8.87251
-26.2333 12.4814 -8.87251
-25.6968 9.60348 -8.87251
-19.0162 7.00766 -8.87251
-16.6841 6.10147 -8.87251
-4.93995 1.53815 -8.87251
0.785761 -0.686642 -8.87251
9.06239 -3.90263 -8.87251
10.9643 -4.64164 -8.87251
17.0405 -5.44905 -8.87251
18.4216 -4.91784 -8.87251
22.069 -3.515 -8.87251
25.4966 -0.590174 -8.87251
-20.6479 27.0714 -50.6925
-14.9174 27.78 -50.6925
-20.7818 27.78 -50.6925
-21.6285 26.8963 -50.6925
-22.5453 25.9313 -50.6925
-25.6638 22.6486 -50.6925
-26.68 19.6 -50.6925
-27.0698 16.9687 -50.6925
-26.2333 12.4814 -50.6925
-22.5387 8.37638 -50.6925
-16.6841 6.10147 -50.6925
-4.93995 1.53815 -50.6925
17.6873 -7.25395 -50.6925
24.5922 -1.36189 -50.6925
25.4966 -0.590174 -50.6925
27.1 4.22 -50.6925
27.1 7.8 -50.6925
24.7778 12.4444 -50.6925
23.9787 14.0427 -50.6925
13.0379 17.9068 -50.6925
-20.6479 27.0714 4.19755
27.1 4.22 4.19755
27.1 4.59297 4.19755
27.1 7.8 4.19755
24.7778 12.4444 4.19755
23.9787 14.0427 4.19755
18.1518 16.1006 4.19755
16.1349 16.8129 4.19755
14.6718 17.3297 4.19755
-7.51557 25.1658 4.19755
-9.11617 25.7311 4.19755
-14.9174 27.78 4.19755
-20.7818 27.78 4.19755
-21.6285 26.8963 4.19755
-22.5453 25.9313 4.19755
-25.6638 22.6486 4.19755
-26.68 19.6 4.19755
-27.0698 16.9687 4.19755
-26.2333 12.4814 4.19755
-25.6968 9.60348 4.19755
-16.9283 6.19638 4.19755
-16.6841 6.10147 4.19755
-4.93995 1.53815 4.19755
9.06239 -3.90263 4.19755
10.9643 -4.64164 4.19755
17.0405 -5.44905 4.19755
18.4216 -4.91784 4.19755
22.069 -3.515 4.19755
25.4966 -0.590174 4.19755
-6.68904 -0.0543802 18.7964
-20.6479 27.0714 20.3275
-16.693 6.14855 20.3275
-20.7818 27.78 20.3275
-21.6285 26.8963 20.3275
-22.5453 25.9313 20.3275
-25.6638 22.6486 20.3275
-16.6841 6.10147 -39.8489
-14.2237 -6.91461 4.19755
-16.6841 6.10147 -36.46
-14.2237 -6.91461 -8.87251
-16.52 -25.64 -8.87251
-9.68917 -2.78597 -8.87251
-17.8115 -10.1812 -8.87251
-21.3994 -13.448 -8.87251
-21.0814 -15.1542 -8.87251
-19.851 -21.7538 -8.87251
-12.24 -27.78 -8.87251
-10.2796 -27.78 -8.87251
-6.36717 -27.78 -8.87251
-0.0943558 -22.4273 -8.87251
0.0994993 -20.618 -8.87251
0.479403 -17.0722 -8.87251
-0.280963 -12.1111 -8.87251
5.32254 -7.11657 -8.87251
-26.68 19.6 18.7964
-27.0698 16.9687 18.7964
-25.6638 22.6486 18.7964
-2.15156 0.45469 18.7964
-17.8569 6.5572 18.7964
-2.28986 1.09181 34.2575
-2.28986 1.09181 5.7266
-17.8569 6.5572 5.7266
-17.8569 6.5572 20.3275
-16.693 6.14855 33.3975
-16.693 6.14855 34.9275
-4.55624 1.88751 34.9275
-2.15156 0.454689 34.9275
-2.28986 1.09181 52.5625
-2.80808 3.47919 52.5625
-4.86078 12.9356 5.72663
-7.51557 25.1658 52.5625
-20.7818 27.78 5.72665
-5.481 15.7929 5.72663
-20.6479 27.0714 5.72665
7.16727 11.445 5.72663
24.7778 12.4444 5.72665
27.1 4.59297 5.72663
27.1 7.8 5.72664
27.1 4.22 5.72663
25.4966 -0.590174 5.72662
22.069 -3.515 5.72661
20.3417 -4.98895 5.7266
19.0752 -6.06964 5.7266
-21.3994 -13.448 -23.4724
-14.2237 -6.91461 -50.6925
-4.93995 1.53815 -17.9143
-4.93995 1.53815 -25.7192
-4.93995 1.53815 -52.6625
-14.2237 -6.91461 -52.6625
-18.1869 -10.5231 -50.6925
-21.3994 -13.448 -50.6925
-21.3994 -13.448 -39.6022
-21.3994 -13.448 -38.0721
-21.3994 -13.448 -25.0024
-21.3994 -13.448 -10.4025
-21.3994 -13.448 4.19755
-21.3994 -13.448 5.72654
-14.2237 -6.91461 18.7964
-14.2237 -6.91461 20.3275
-14.2237 -6.91461 33.3975
-14.2237 -6.91461 34.9275
17.6873 -7.25395 18.7964
-25.6968 9.60348 -50.6925
-23.8834 8.89888 -50.6925
-16.6841 6.10147 -52.6625
17.6873 -7.25395 -52.6625
17.6873 -7.25395 -39.6022
17.6873 -7.25395 -38.0721
17.6873 -7.25395 -25.0024
17.6873 -7.25395 -23.4724
17.6873 -7.25395 -10.4025
17.6873 -7.25395 -8.87251
15.0311 -6.22186 -8.87251
13.457 -5.61019 -8.87251
13.457 -5.61019 4.19755
15.0311 -6.22186 4.19755
17.6873 -7.25395 4.19755
17.6873 -7.25395 20.3275
17.6873 -7.25395 33.3975
17.6873 -7.25395 34.9275
15.0311 -6.22186 34.9275
10.9643 -4.64164 34.9275
-22.5387 8.37638 5.7266
-25.6968 9.60348 5.7266
-25.6968 9.60348 -10.4025
-25.6968 9.60348 -23.4724
-25.6968 9.60348 -25.0024
-25.6968 9.60348 -38.0721
-25.6968 9.60348 -39.6022
-22.5387 8.37638 33.3975
-22.5387 8.37638 34.9275
-22.5387 8.37638 20.3275
-22.5387 8.37638 52.5625
-17.8569 6.5572 33.3975
-17.8569 6.5572 34.9275
-17.8569 6.5572 52.5625
-22.5453 25.9313 33.3975
-22.5453 25.9313 34.9275
-23.4316 9.36842 18.7964
-23.4316 9.36842 20.3275
-25.7252 11.9169 18.7964
-25.7252 11.9169 20.3275
-22.5453 25.9313 -25.0024
-22.5453 25.9313 -23.4724
-22.5453 25.9313 18.7964
-23.4316 9.36842 33.3975
-23.4316 9.36842 34.9275
-25.08 11.2 33.3975
-25.08 11.2 34.9275
-20.5408 -16.6791 18.7963
-20.5408 -16.6791 20.3275
16.1349 16.8129 18.7965
16.1349 16.8129 20.3275
-20.7825 -17.7469 18.7963
-20.7825 -17.7469 20.3275
-22.5453 25.9313 -52.6625
-8.32912 24.2175 18.7965
-7.11863 23.3372 18.7965
-20.2829 -20.1608 33.3975
-20.2829 -20.1608 20.3275
-20.5408 -16.6791 34.9275
-20.5408 -16.6791 33.3975
-20.7825 -17.7469 34.9275
-20.7825 -17.7469 33.3975
0.0994993 -20.618 4.19755
0.830726 -19.3645 4.19755
0.830726 -19.3645 -8.87251
20.3417 -4.98895 -8.87251
20.3417 -4.98895 -10.4025
-21.0814 -15.1542 -38.0721
-21.0814 -15.1542 -39.6022
-25.08 11.2 20.3275
-19.6927 -12.9324 -52.6625
-21.0814 -15.1542 -23.4724
-21.0814 -15.1542 -25.0024
20.3417 -4.98895 34.9275
20.3417 -4.98895 33.3975
-14.6203 -4.81648 -50.6925
-18.1869 -10.5231 -52.6625
-14.6203 -4.81648 -52.6625
-6.84768 22.089 18.7964
-0.5257 14.7133 18.7964
24.7778 12.4444 18.7965
24.7778 12.4444 -10.4025
24.7778 12.4444 -23.4724
24.7778 12.4444 33.3975
24.7778 12.4444 20.3275
-22.5453 25.9313 -39.6022
22.069 -3.515 -10.4025
19.0752 -6.06964 -8.87251
19.0752 -6.06964 -10.4025
20.3417 -4.98895 18.7964
20.3417 -4.98895 -23.4724
-22.5453 25.9313 -38.0721
-22.5453 25.9313 -10.4025
24.7778 12.4444 -39.6022
27.1 10.65 -50.6925
27.1 10.65 -39.6022
24.7778 12.4444 52.5625
24.7778 12.4444 -25.0024
24.7778 12.4444 -38.0721
27.1 10.65 -38.0721
-22.5453 25.9313 5.72665
-0.0943558 -22.4273 -10.4025
1.13887 -21.375 -8.87251
1.13887 -21.375 -10.4025
18.1518 16.1006 18.7965
18.1518 16.1006 20.3275
-26.2333 12.4814 -23.4724
-26.2333 12.4814 -25.0024
-26.2333 12.4814 -38.0721
-26.2333 12.4814 -39.6022
-22.5453 25.9313 52.5625
-23.4316 9.36842 52.5625
-25.08 11.2 52.5625
23.9787 14.0427 -52.6625
11.2997 14.6855 5.72665
5.35263 12.0688 5.72663
11.2997 14.6855 18.7964
5.35263 12.0688 18.7964
20.3417 -4.98895 4.19755
25.7716 10.4568 -10.4025
13.0379 17.9068 -25.0024
13.0379 17.9068 -23.4724
22.069 -3.515 -23.4724
-3.6147 15.1513 18.7964
-3.6147 15.1513 5.72663
-6.57927 20.8524 18.7964
-6.57927 20.8524 5.72665
-2.01809 14.6025 5.72663
-2.01809 14.6025 18.7964
12.5763 15.6865 18.7965
12.5763 15.6865 5.72665
5.32254 -7.11657 4.19755
-0.280963 -12.1111 4.19755
-16.3246 4.19969 33.3975
-16.3246 4.19969 20.3275
-21.1613 7.71734 33.3975
-21.1613 7.71734 20.3275
-16.0927 2.97276 33.3975
-16.0927 2.97276 20.3275
24.5922 -1.36189 -10.4025
24.5922 -1.36189 -23.4724
24.5922 -1.36189 -39.6022
23.9787 14.0427 -10.4025
27.1 7.8 -10.4025
27.1 4.22 -10.4025
25.4966 -0.590174 -10.4025
-17.5208 -3.33691 -50.6925
-21.0814 -15.1542 -50.6925
18.4216 -4.91784 52.5625
-21.0814 -15.1542 4.19755
-12.24 -27.78 -10.4025
-16.52 -25.64 -10.4025
-20.6479 27.0714 -39.6022
-21.0814 -15.1542 -10.4025
-14.9174 27.78 -39.6022
-20.7818 27.78 -39.6022
-9.11617 25.7311 18.7965
-9.11617 25.7311 20.3275
-21.6285 26.8963 -39.6022
-25.6638 22.6486 -39.6022
-26.68 19.6 -39.6022
-20.6813 -17.3 -52.6625
-19.3967 -11.6246 -52.6625
-27.0698 16.9687 -39.6022
-23.9251 8.91509 -39.6022
-20.6813 -17.3 4.19755
-18.6738 6.87463 -39.6022
-16.6841 6.10147 -39.6022
-16.4789 6.02177 -39.6022
22.069 -3.515 33.3975
-4.93995 1.53815 -39.6022
13.0379 17.9068 33.3975
23.9787 14.0427 33.3975
27.1 7.8 33.3975
25.4966 -0.590174 -39.6022
27.1 4.22 -39.6022
27.1 4.22 33.3975
27.1 7.8 -39.6022
25.4966 -0.590174 33.3975
24.5922 -1.36189 -25.0024
23.9787 14.0427 -39.6022
24.5922 -1.36189 -38.0721
18.1518 16.1006 33.3975
13.0379 17.9068 -39.6022
-0.0943558 -22.4273 -23.4724
-16.4107 1.5675 -50.6925
-16.0927 2.97276 -50.6925
-16.6841 6.10147 -38.0721
-15.2072 5.52764 -38.0721
-17.7049 6.49815 -38.0721
-27.1 13.4444 33.3975
-23.6807 8.82012 -38.0721
-22.3079 8.11988 33.3975
-16.0927 2.97276 -52.6625
-22.3079 8.11988 34.9275
-27.1 13.4444 34.9275
-21.0814 -15.1542 5.72654
-19.6927 -12.9324 18.7963
13.7776 15.7757 18.7965
13.7776 15.7757 5.72665
16.1349 16.8129 5.72666
-27.1 16.765 34.9275
-27.1 16.765 33.3975
-21.6285 26.8963 33.3975
-20.6479 27.0714 33.3975
-20.6479 27.0714 34.9275
-27.1 13.4444 18.7964
-26.2333 12.4814 18.7964
-22.5387 8.37638 18.7964
-27.1 13.4444 20.3275
-12.24 -27.78 -25.0024
-12.24 -27.78 -23.4724
-16.52 -25.64 -23.4724
-16.52 -25.64 -25.0024
22.069 -3.515 18.7964
22.069 -3.515 20.3275
-19.851 -21.7538 -25.0024
-19.851 -21.7538 -23.4724
-25.6638 22.6486 -25.0024
-25.6638 22.6486 -23.4724
-21.6285 26.8963 -23.4724
-21.6285 26.8963 -25.0024
-19.851 -21.7538 4.19755
-16.52 -25.64 4.19755
-25.6638 22.6486 5.72663
-21.6285 26.8963 5.72665
-20.7818 27.78 33.3975
-20.7818 27.78 34.9275
23.9787 14.0427 5.72665
-10.2796 -27.78 4.19755
-6.36717 -27.78 -39.6022
-6.36717 -27.78 -50.6925
-26.68 19.6 -23.4724
-26.68 19.6 -25.0024
27.1 0.778023 -39.6022
-27.0698 16.9687 -25.0024
-6.36717 -27.78 -25.0024
-6.36717 -27.78 -38.0721
-27.0698 16.9687 -23.4724
-6.36717 -27.78 33.3975
14.6718 17.3297 20.3275
-6.36717 -27.78 20.3275
14.6718 17.3297 33.3975
19.0752 -6.06964 -23.4724
-26.68 19.6 -10.4025
13.0379 17.9068 -38.0721
23.9787 14.0427 -38.0721
27.1 7.8 -38.0721
27.1 7.8 -25.0024
23.9787 14.0427 -25.0024
27.1 4.22 -38.0721
25.4966 -0.590174 -38.0721
25.4966 -0.590174 -25.0024
27.1 4.22 -25.0024
-12.24 -27.78 -50.6925
-12.24 -27.78 -39.6022
-16.52 -25.64 -39.6022
-16.52 -25.64 -50.6925
27.1 4.22 -52.6625
25.4966 -0.590174 -52.6625
25.7716 10.4568 -23.4724
-26.68 19.6 5.72662
-27.0698 16.9687 5.72662
22.069 -3.515 52.5625
16.7064 -5.57753 52.5625
13.0379 17.9068 52.5625
-4.55624 1.88751 52.5625
-27.0698 16.9687 -10.4025
18.1518 16.1006 5.72666
-19.3967 -11.6246 18.7964
-20.6813 -17.3 18.7963
-26.2333 12.4814 5.72661
-21.6285 26.8963 -10.4025
-20.6479 27.0714 -10.4025
-20.7818 27.78 -10.4025
-10.2796 -27.78 -10.4025
-19.851 -21.7538 -10.4025
-26.2333 12.4814 -10.4025
-12.24 -27.78 -52.6625
-16.52 -25.64 -52.6625
-19.851 -21.7538 -52.6625
-19.851 -21.7538 -50.6925
-25.6638 22.6486 -52.6625
-21.6285 26.8963 -52.6625
-26.68 19.6 -52.6625
-27.0698 16.9687 -52.6625
-20.6479 27.0714 -52.6625
-20.7818 27.78 -52.6625
-10.2796 -27.78 -50.6925
-10.2796 -27.78 -52.6625
23.9787 14.0427 -23.4724
27.1 7.8 -23.4724
-20.0772 -20.5405 18.7963
-18.68 -23.12 18.7963
-18.68 -23.12 20.3275
-21.0206 -18.7989 20.3275
-9.11617 25.7311 5.72666
27.1 4.22 20.3275
25.4966 -0.590174 20.3275
27.1 7.8 52.5625
23.9787 14.0427 52.5625
25.4966 -0.590174 52.5625
27.1 4.22 52.5625
-19.3967 -11.6246 33.3975
-18.68 -23.12 33.3975
-18.68 -23.12 34.9275
-12.24 -27.78 33.3975
-12.24 -27.78 34.9275
-16.52 -25.64 34.9275
-16.52 -25.64 33.3975
19.0752 -6.06964 4.19755
-22.3079 8.11988 20.3275
-22.3079 8.11988 52.5625
-27.1 13.4444 52.5625
-19.851 -21.7538 -38.0721
-5.16498 14.3371 20.3275
-2.28986 1.09181 20.3275
-7.51557 25.1658 20.3275
-14.9174 27.78 20.3275
-25.6638 22.6486 -38.0721
-21.6285 26.8963 -38.0721
-26.68 19.6 -38.0721
-10.2796 -27.78 34.9275
-10.2796 -27.78 33.3975
-27.0698 16.9687 -38.0721
-25.6638 22.6486 33.3975
-16.0927 2.97276 5.72659
-14.6203 -4.81648 5.72657
-26.68 19.6 33.3975
-26.68 19.6 20.3275
-27.1 16.765 20.3275
-20.6479 27.0714 18.7964
-20.7818 27.78 18.7965
-10.2796 -27.78 18.7963
-10.2796 -27.78 20.3275
-25.6638 22.6486 34.9275
-25.6638 22.6486 52.5625
-21.6285 26.8963 52.5625
-21.6285 26.8963 34.9275
1.13887 -21.375 -23.4724
-8.27199 -1.49564 4.19755
-26.68 19.6 52.5625
-14.5995 -7.25673 4.19755
-26.68 19.6 34.9275
-18.1869 -10.5231 18.7964
-27.1 16.765 52.5625
-14.6203 -4.81648 18.7964
-20.6479 27.0714 -38.0721
-12.24 -27.78 4.19755
-6.36717 -27.78 4.19755
-10.2796 -27.78 -39.6022
-0.0943558 -22.4273 4.19755
-16.0927 2.97276 18.7964
-14.9174 27.78 -38.0721
0.479403 -17.0722 4.19755
-20.7818 27.78 -38.0721
18.7933 -6.3102 33.3975
-20.6479 27.0714 -25.0024
-20.7818 27.78 -25.0024
-10.2796 -27.78 -38.0721
-10.2796 -27.78 -25.0024
25.4966 -0.590174 -23.4724
27.1 4.22 -23.4724
-6.36717 -27.78 -10.4025
-20.6479 27.0714 52.5625
-4.93995 1.53815 -38.0721
-20.6479 27.0714 -23.4724
-26.2333 12.4814 -52.6625
-22.5387 8.37638 -52.6625
-6.36717 -27.78 -23.4724
27.1 4.59297 18.7964
7.16727 11.445 18.7964
1.13887 -21.375 4.19755
27.1 0.778023 -38.0721
14.4036 -4.76902 52.5625
-2.28986 1.09181 18.7964
25.4966 -0.590174 18.7964
18.7933 -6.3102 20.3275
-6.36717 -27.78 18.7963
14.6718 17.3297 18.7965
14.6718 17.3297 5.72666
-7.51557 25.1658 18.7965
-21.6285 26.8963 18.7964
-5.481 15.7929 18.7964
27.1 4.59297 20.3275
-16.52 -25.64 18.7963
-12.24 -27.78 18.7963
-7.51557 25.1658 5.72666
-14.9174 27.78 18.7965
23.9787 14.0427 18.7965
27.1 7.8 18.7964
27.1 7.8 20.3275
23.9787 14.0427 20.3275
27.1 4.22 18.7964
-10.0685 -3.13131 18.7964
-20.7818 27.78 52.5625
-16.693 6.14855 52.5625
-7.51557 25.1658 33.3975
-14.9174 27.78 -23.4724
-14.9174 27.78 -25.0024
27.1 12.9403 -39.6022
27.1 12.9403 -38.0721
-14.9174 27.78 -10.4025
-19.851 -21.7538 18.7963
-14.9174 27.78 -52.6625
-14.9174 27.78 5.72666
-14.9174 27.78 34.9275
-6.36717 -27.78 34.9275
18.7933 -6.3102 34.9275
-20.7818 27.78 -23.4724
-12.24 -27.78 20.3275
-10.2796 -27.78 -23.4724
-16.52 -25.64 20.3275
-21.0206 -18.7989 34.9275
19.0752 -6.06964 18.7964
-27.1 16.765 18.7964
-25.6638 22.6486 -10.4025
-12.24 -27.78 -38.0721
-16.52 -25.64 -38.0721
-14.9174 27.78 52.5625
-19.851 -21.7538 -39.6022
-21.0206 -18.7989 18.7963
-6.36717 -27.78 -52.6625
27.1 12.9403 -50.6925
-19.3967 -11.6246 20.3275
-21.0206 -18.7989 33.3975
27.1 12.9403 -52.6625
-9.11617 25.7311 33.3975
27.1 4.59297 33.3975
-14.9174 27.78 33.3975
-19.3967 -11.6246 34.9275
4  594 538 175 611  255 0 0
4  594 524 136 538  0 255 191
4  594 362 363 524  0 255 191
4  635 524 363 633  255 63 0
4  635 612 433 432  255 63 0
4  635 432 136 524  255 63 0
5  635 633 603 38 612  255 63 0
4  445 529 528 613  0 255 255
4  445 613 223 222  0 255 255
4  115 116 66 65  0 63 255
4  115 611 175 116  255 191 0
14  115 114 113 112 111 110 109 434 474 406 586 593 502 611  255 191 0
4  594 611 502 362  255 0 0
4  608 480 615 604  63 0 255
4  604 615 564 605  63 0 255
5  604 327 496 348 608  63 0 255
4  612 625 601 433  255 63 0
4  612 38 174 625  255 63 0
8  613 528 204 7 170 225 224 223  0 255 255
4  605 564 561 559  63 0 255
4  559 561 361 360  0 191 255
4  607 305 304 452  0 191 255
4  559 451 326 605  63 0 255
4  65 66 480 608  63 0 255
4  65 64 114 115  0 63 255
4  447 540 529 445  0 255 255
4  447 445 222 221  0 255 255
4  85 86 493 610  0 0 255
10  606 301 383 381 440 579 456 453 305 607  0 191 255
4  360 361 86 85  0 127 255
4  629 300 101 102  0 0 255
4  606 386 299 301  0 191 255
4  85 103 389 360  0 127 255
4  152 151 435 555  255 255 0
4  555 435 32 31  255 127 0
4  152 555 557 153  255 255 0
7  625 174 172 472 602 570 601  255 63 0
4  614 223 224 40  191 0 255
4  614 279 280 562  191 0 255
4  614 40 41 279  191 0 255
4  575 617 481 569  127 255 0
4  569 481 151 152  127 255 0
4  575 569 307 390  127 255 0
4  584 539 540 447  0 255 255
4  31 32 539 584  255 0 191
4  31 584 205 30  255 0 191
4  443 565 566 442  127 255 0
4  442 566 617 575  127 255 0
3  579 457 456  0 191 255
4  443 442 212 211  127 255 0
4  437 494 556 436  127 255 0
4  436 556 565 443  127 255 0
3  440 381 380  0 191 255
4  437 436 210 96  127 255 0
4  435 554 20 32  255 127 0
4  151 150 554 435  255 255 0
4  116 104 53 66  0 63 255
4  32 20 592 539  255 0 191
4  539 592 616 540  0 255 255
4  538 537 177 175  255 0 0
4  599 576 180 182  63 255 0
6  182 180 181 107 106 105  255 191 0
4  183 184 420 582  63 255 0
4  599 182 183 582  63 255 0
10  610 493 492 208 191 209 465 464 632 319  0 0 255
6  632 464 99 100 300 629  0 0 255
4  629 102 319 632  0 0 255
5  610 319 102 103 85  0 0 255
4  628 495 494 437  127 255 0
5  628 209 191 192 495  127 255 0
4  628 437 96 209  127 255 0
4  537 588 431 177  255 0 0
4  159 413 477 468  255 0 0
4  159 468 467 158  255 0 0
4  467 430 160 158  255 0 0
4  431 588 248 306  255 0 0
4  160 430 306 248  255 0 0
5  21 22 476 498 609  255 0 191
3  609 498 499  255 0 191
5  609 499 591 19 21  255 0 191
9  608 348 59 60 61 62 63 64 65  63 0 255
8  607 452 451 559 360 389 386 606  0 191 255
4  105 106 55 54  0 63 255
5  54 55 56 349 350  63 0 255
4  83 82 131 132  0 63 255
4  105 54 83 132  0 63 255
4  109 110 60 59  0 63 255
4  56 55 106 107  0 63 255
4  109 59 58 108  0 63 255
5  107 108 58 57 56  0 63 255
4  595 310 474 434  0 255 0
4  181 180 576 596  0 255 0
4  596 576 590 597  191 0 255
4  595 434 179 286  0 255 0
4  596 286 179 181  0 255 0
4  205 620 186 30  63 255 0
4  3 558 532 4  0 255 63
7  4 532 24 200 227 226 165  0 255 127
4  19 591 592 20  255 0 191
4  605 326 327 604  63 0 255
6  215 308 270 155 156 216  127 255 0
4  220 516 129 219  255 191 0
4  215 216 80 293  63 0 255
6  220 219 338 560 269 578  255 127 0
4  127 128 79 78  255 0 255
4  78 79 217 157  127 255 0
4  127 337 218 128  255 127 0
4  127 78 157 337  127 0 255
3  227 477 226  255 191 0
4  3 4 165 162  255 0 63
5  562 280 375 421 583  191 0 255
4  562 222 223 614  191 0 255
4  583 221 222 562  191 0 255
4  540 616 512 529  0 255 255
4  529 512 513 528  0 255 255
4  135 166 237 167  255 63 0
3  135 2 166  255 0 63
4  167 0 2 135  255 0 63
4  618 500 510 515  0 255 255
4  618 515 512 616  0 255 255
4  510 500 263 262  0 255 255
4  202 344 343 203  0 255 63
4  202 203 509 630  0 255 255
6  555 31 30 220 578 557  255 127 0
10  30 186 185 184 183 132 131 324 516 220  255 191 0
4  104 117 67 53  0 63 255
4  481 356 150 151  127 255 0
4  617 417 356 481  127 255 0
4  480 479 572 615  63 0 255
4  168 238 239 602  255 63 0
4  168 169 7 1  255 0 63
4  602 472 169 168  255 63 0
12  602 239 236 317 318 519 551 547 542 316 543 570  255 63 0
4  601 570 411 433  255 63 0
4  26 533 552 201  0 255 63
4  200 24 23 402  255 127 0
3  26 25 533  0 255 127
4  26 201 550 25  255 0 191
4  576 599 503 590  191 0 255
6  593 586 336 333 330 332  255 191 0
4  176 330 329 589  63 255 0
3  589 329 331  191 0 255
4  587 585 446 523  191 0 255
4  587 362 260 261  0 255 191
3  593 332 502  255 191 0
3  176 332 330  255 191 0
6  587 261 284 285 335 585  191 0 255
4  589 331 332 176  255 0 0
4  586 406 405 336  255 191 0
4  577 323 321 178  63 255 0
3  178 321 320  255 191 0
4  585 255 256 446  191 0 255
3  577 322 323  191 0 255
4  585 335 404 255  191 0 255
4  577 178 320 322  0 255 0
4  584 447 221 205  0 255 255
9  583 421 504 582 420 295 620 205 221  191 0 255
4  436 443 211 210  127 255 0
8  579 440 380 347 210 211 387 457  0 191 255
4  51 337 157 49  127 0 255
4  308 153 154 270  127 255 0
5  49 157 217 216 156  127 255 0
5  51 338 219 218 337  255 127 0
4  578 269 268 557  255 127 0
4  51 49 156 338  255 255 0
4  121 122 72 71  0 63 255
4  121 71 70 120  0 63 255
6  442 575 390 545 213 212  127 255 0
4  479 478 426 572  63 0 255
4  570 543 544 411  255 63 0
4  569 152 153 307  127 255 0
4  308 215 214 309  127 255 0
4  215 293 294 214  63 0 255
4  565 623 416 566  127 255 0
4  566 416 417 617  127 255 0
4  564 563 553 561  63 0 255
4  563 427 526 553  63 0 255
4  167 237 238 168  255 63 0
4  556 461 623 565  127 255 0
4  494 460 461 556  127 255 0
4  361 358 84 86  0 127 255
4  473 483 312 444  63 0 255
4  473 444 438 450  63 0 255
4  407 401 396 408  255 63 0
4  551 519 401 407  255 63 0
4  551 407 549 547  255 63 0
4  549 541 542 547  255 63 0
4  544 543 316 241  255 63 0
4  542 541 241 316  255 63 0
4  136 134 537 538  0 255 191
8  201 552 558 3 2 340 344 202  0 255 63
4  432 410 134 136  255 63 0
4  410 409 137 134  255 63 0
4  536 415 412 621  0 255 191
4  408 396 415 536  255 63 0
4  408 536 535 534  255 63 0
4  535 139 531 534  255 63 0
4  137 409 240 138  255 63 0
4  531 139 138 240  255 63 0
4  441 313 314 530  63 0 255
4  441 530 527 439  63 0 255
4  70 69 119 120  0 63 255
4  67 117 118 68  0 63 255
4  119 69 68 118  0 63 255
4  149 13 371 428  255 255 0
4  428 429 144 149  255 255 0
9  528 513 514 511 619 266 264 636 204  0 255 255
4  168 1 0 167  255 0 63
6  203 343 339 0 1 204  0 255 63
4  527 525 424 439  63 0 255
4  526 427 246 297  63 0 255
4  424 525 297 246  63 0 255
4  358 364 87 84  0 127 255
4  369 315 92 91  0 127 255
4  369 91 90 366  0 127 255
4  90 89 365 366  0 127 255
4  87 364 291 88  0 127 255
4  365 89 88 291  0 127 255
4  438 425 622 450  63 0 255
4  426 478 298 247  63 0 255
4  622 425 247 298  63 0 255
4  423 15 14 482  127 255 0
4  482 357 418 423  127 255 0
4  520 17 16 422  127 255 0
4  422 419 624 520  127 255 0
8  200 402 22 21 428 371 355 199  255 127 0
4  227 200 199 123  0 255 127
6  468 477 227 123 122 121  255 191 0
4  631 262 263 501  0 255 255
4  509 265 254 630  0 255 255
4  501 258 267 631  0 255 255
4  134 137 588 537  0 255 191
4  621 412 413 159  0 255 191
5  536 621 159 158 535  0 255 191
4  139 535 158 160  0 255 191
4  588 137 138 248  0 255 191
4  139 160 248 138  0 255 191
4  500 618 591 499  0 255 255
4  591 618 616 592  0 255 255
4  166 342 341 237  255 63 0
4  166 235 517 342  255 63 0
4  166 2 3 162  255 0 63
4  518 239 238 400  255 63 0
5  400 238 237 341 398  255 63 0
3  518 236 239  255 63 0
4  519 318 252 401  255 63 0
4  518 400 234 236  255 63 0
4  515 510 511 514  0 255 255
4  235 166 162 414  0 255 191
4  398 341 342 517  255 63 0
5  396 251 275 245 415  255 63 0
4  398 517 235 233  255 63 0
4  235 243 249 233  255 63 0
4  293 271 272 294  63 0 255
4  516 324 130 129  255 191 0
4  293 80 81 271  63 0 255
4  515 514 513 512  0 255 255
5  511 510 262 631 619  0 255 255
3  204 1 7  0 255 63
4  203 204 636 509  0 255 255
4  63 62 112 113  0 63 255
4  113 114 64 63  0 63 255
4  508 505 45 44  191 255 0
5  44 45 379 634 382  191 0 255
4  43 42 469 507  191 255 0
12  507 469 354 470 580 171 172 471 506 302 505 508  191 255 0
4  508 44 43 507  191 255 0
4  506 471 48 47  191 255 0
6  47 48 377 448 388 378  191 0 255
4  506 47 46 302  191 255 0
4  505 302 46 45  191 255 0
4  384 375 42 43  191 0 255
4  382 634 590 503  191 0 255
4  504 421 375 384  191 0 255
4  382 503 504 384  191 0 255
4  378 388 311 598  191 0 255
4  598 311 310 595  191 0 255
4  597 590 634 379  191 0 255
4  378 598 290 289  191 0 255
4  379 289 290 597  191 0 255
4  487 9 18 626  127 255 0
4  626 462 463 487  127 255 0
4  144 429 554 150  255 255 0
4  418 357 356 417  127 255 0
4  175 177 104 116  255 191 0
4  620 295 185 186  63 255 0
4  624 419 416 623  127 255 0
4  362 587 523 363  0 255 191
4  331 284 261 260  0 255 191
5  331 260 362 502 332  255 0 0
4  498 476 257 627  0 255 255
6  501 263 500 499 498 627  0 255 255
5  201 202 630 475 550  0 255 255
4  350 349 497 568  63 0 255
4  568 497 454 459  63 0 255
4  567 346 345 351  63 0 255
5  351 345 292 82 83  63 0 255
4  350 568 567 351  63 0 255
4  496 327 326 455  63 0 255
4  348 496 288 287  63 0 255
4  349 325 466 497  63 0 255
4  214 294 449 213  63 0 255
4  213 545 309 214  127 255 0
9  213 449 296 328 346 567 458 385 212  63 0 255
4  91 92 573 491  0 0 255
4  495 484 460 494  127 255 0
9  495 192 282 368 276 367 486 485 484  127 255 0
4  86 84 492 493  0 0 255
9  492 489 259 488 490 491 573 574 208  0 0 255
4  84 87 489 492  0 0 255
4  91 491 490 90  0 0 255
4  89 90 490 488  0 0 255
4  489 87 88 259  0 0 255
4  89 488 259 88  0 0 255
4  486 367 9 487  127 255 0
4  487 463 485 486  127 255 0
4  485 463 460 484  127 255 0
5  208 399 283 192 191  0 255 63
4  94 392 399 208  0 255 63
4  206 92 315 232  0 127 255
5  206 194 10 352 207  0 255 127
4  94 93 391 392  0 255 127
4  206 207 93 92  0 127 255
4  94 208 574 93  0 0 255
3  188 281 193  0 255 127
4  192 283 281 188  0 255 63
4  194 353 8 10  255 0 127
4  194 206 232 195  0 255 127
4  192 188 193 282  127 255 0
4  229 312 483 228  63 0 255
4  228 198 187 229  0 255 127
6  71 72 73 228 483 473  63 0 255
4  482 14 13 149  127 255 0
4  66 53 479 480  63 0 255
4  53 67 478 479  63 0 255
4  230 197 196 231  0 255 127
4  231 314 313 230  63 0 255
4  414 162 165 226  255 0 0
6  413 244 242 414 226 477  255 0 0
4  24 25 550 475  255 0 191
3  22 402 23  255 127 0
5  476 22 23 403 253  255 0 191
4  475 403 23 24  255 0 191
4  62 61 111 112  0 63 255
4  73 72 122 123  0 63 255
4  73 147 198 228  0 255 127
4  123 199 147 73  0 255 127
6  147 148 13 14 359 198  255 0 127
4  199 355 148 147  255 255 0
4  335 322 320 336  0 255 0
3  310 255 404  191 0 255
4  336 320 321 333  255 191 0
3  474 405 406  255 191 0
4  310 404 405 474  0 255 0
4  335 336 405 404  0 255 0
4  71 473 450 70  63 0 255
4  471 174 38 48  191 255 0
4  169 37 170 7  255 0 63
4  48 38 603 377  191 0 255
4  472 171 37 169  255 63 0
3  472 172 171  255 63 0
3  471 172 174  191 255 0
3  42 279 41  191 0 255
4  40 39 580 470  191 255 0
4  470 354 41 40  191 255 0
4  42 41 354 469  191 255 0
4  177 431 117 104  255 191 0
4  468 121 120 467  255 191 0
4  430 467 120 119  255 191 0
4  325 287 288 466  63 0 255
4  98 97 347 380  0 127 255
5  465 209 96 97 98  0 0 255
4  99 464 465 98  0 0 255
4  463 462 461 460  127 255 0
4  459 454 453 456  63 0 255
4  457 387 385 458  63 0 255
4  459 456 457 458  63 0 255
4  455 326 451 452  63 0 255
3  453 304 305  0 191 255
4  455 452 304 303  63 0 255
4  454 303 304 453  63 0 255
4  212 385 387 211  63 0 255
4  198 359 277 187  255 0 127
4  15 277 359 14  255 0 127
4  197 278 273 196  255 0 127
4  17 273 278 16  255 0 127
3  82 271 81  63 0 255
4  80 34 36 129  0 63 255
5  129 36 128 218 219  255 191 0
3  131 130 324  255 191 0
4  129 130 81 80  0 63 255
4  82 81 130 131  0 63 255
4  69 70 450 622  63 0 255
4  294 272 296 449  63 0 255
4  560 338 156 155  255 255 0
4  153 308 309 307  127 255 0
3  155 270 154  127 255 0
3  560 268 269  255 127 0
4  560 155 154 268  255 255 0
4  557 268 154 153  255 255 0
5  523 446 448 377 603  191 0 255
4  603 633 363 523  255 63 0
5  446 256 311 388 448  191 0 255
5  630 254 253 403 475  0 255 255
5  476 253 254 258 257  0 255 255
4  627 257 258 501  0 255 255
6  478 67 68 69 622 298  63 0 255
4  149 144 357 482  127 255 0
4  15 423 422 16  127 255 0
4  187 277 278 197  255 0 127
4  229 187 197 230  0 255 127
4  312 229 230 313  63 0 255
4  444 312 313 441  63 0 255
4  16 278 277 15  255 0 127
4  615 572 563 564  63 0 255
4  572 426 427 563  63 0 255
4  444 441 439 438  63 0 255
4  425 438 439 424  63 0 255
4  182 105 132 183  255 191 0
6  434 109 108 107 181 179  255 191 0
4  433 411 410 432  255 63 0
6  117 431 306 430 119 118  255 191 0
4  21 19 429 428  255 127 0
4  258 254 265 267  0 255 255
4  427 426 247 246  63 0 255
4  425 424 246 247  63 0 255
4  423 418 419 422  127 255 0
4  375 280 279 42  191 0 255
4  184 185 295 420  63 255 0
4  224 225 39 40  191 0 255
4  419 418 417 416  127 255 0
5  415 245 244 413 412  0 255 191
4  235 414 242 243  0 255 191
4  411 544 409 410  255 63 0
4  407 408 534 549  255 63 0
4  541 549 534 531  255 63 0
4  429 19 20 554  255 127 0
4  17 520 626 18  127 255 0
4  196 273 274 195  255 0 127
4  231 196 195 232  0 255 127
4  314 231 232 315  0 191 255
4  530 314 315 369  0 191 255
4  561 553 358 361  0 191 255
4  553 526 364 358  0 191 255
4  530 369 366 527  0 191 255
4  525 527 366 365  0 191 255
6  364 526 297 525 365 291  0 191 255
4  520 624 462 626  127 255 0
4  462 624 623 461  127 255 0
4  636 264 265 509  0 255 255
4  267 265 264 266  0 255 255
4  631 267 266 619  0 255 255
5  216 217 79 34 80  63 0 255
4  255 310 311 256  191 0 255
4  381 383 100 99  0 127 255
4  381 99 98 380  0 127 255
3  383 301 299  0 191 255
4  386 389 103 102  0 127 255
3  100 101 300  0 0 255
4  386 102 101 299  0 127 255
4  383 299 101 100  0 127 255
4  210 347 97 96  0 127 255
4  110 111 61 60  0 63 255
4  503 599 582 504  191 0 255
6  598 595 286 596 597 290  191 0 255
6  10 193 281 392 391 352  0 255 127
4  392 281 283 399  0 255 63
4  368 282 193 10  127 255 0
4  409 544 241 240  255 63 0
4  541 531 240 241  255 63 0
4  225 170 37 39  191 0 255
4  39 37 171 580  191 255 0
4  401 252 251 396  255 63 0
4  400 398 233 234  255 63 0
4  93 207 352 391  0 255 127
4  92 93 574 573  0 0 255
4  36 34 79 128  255 0 255
4  568 459 458 567  63 0 255
7  496 455 303 454 497 466 288  63 0 255
4  532 533 25 24  0 255 127
4  558 552 533 532  0 255 63
4  545 390 307 309  127 255 0
4  195 274 353 194  255 0 127
4  9 353 274 18  255 0 127
4  18 274 273 17  255 0 127
3  9 8 353  255 0 127
4  44 382 384 43  191 0 255
6  47 378 289 379 45 46  191 0 255
4  13 148 355 371  255 255 0
4  9 367 276 8  127 255 0
4  10 8 276 368  127 255 0
4  357 144 150 356  127 255 0
4  54 350 351 83  63 0 255
6  59 348 287 325 57 58  63 0 255
4  56 57 325 349  63 0 255
4  0 339 340 2  0 255 63
4  346 328 292 345  63 0 255
4  344 340 339 343  0 255 63
4  334 329 330 333  63 255 0
5  334 323 322 335 285  191 0 255
4  333 321 323 334  63 255 0
5  334 285 284 331 329  191 0 255
4  328 296 272 292  63 0 255
4  292 272 271 82  63 0 255
4  252 250 249 251  255 63 0
4  318 317 250 252  255 63 0
4  250 234 233 249  255 63 0
4  317 236 234 250  255 63 0
5  275 243 242 244 245  0 255 191
4  251 249 243 275  255 63 0
3  232 206 370  0 255 127
3  206 232 370  0 127 255
4  231 232 370 397  0 255 127
4  232 231 397 370  0 191 255
7  230 231 397 74 73 228 229  0 255 127
7  231 230 229 228 73 74 397  63 0 255
4  123 73 74 124  0 255 127
4  73 123 124 74  0 63 255
6  227 123 124 4 165 226  0 255 127
6  123 227 226 165 4 124  255 191 0
8  225 170 161 205 221 222 223 224  0 255 255
4  7 170 161 6  255 0 63
8  225 224 223 222 221 205 161 170  191 0 255
3  30 205 29  255 0 191
3  205 30 29  63 255 0
7  220 30 29 127 128 218 219  255 127 0
7  30 220 219 218 128 127 29  255 191 0
3  78 127 77  127 0 255
3  127 78 77  255 0 255
11  79 78 190 571 211 212 213 214 215 216 217  127 255 0
11  78 79 217 216 215 214 213 212 211 571 190  63 0 255
4  210 211 571 376  127 255 0
4  211 210 376 571  0 191 255
4  96 210 376 95  127 255 0
4  210 96 95 376  0 127 255
4  209 96 95 191  127 255 0
4  96 209 191 95  0 0 255
4  208 191 95 94  0 255 63
4  208 94 95 191  0 0 255
5  93 94 140 206 207  0 255 127
5  94 93 207 206 140  0 127 255
3  4 124 125  0 255 127
3  206 370 372  0 127 255
3  206 372 370  0 255 127
4  206 372 373 140  0 127 255
4  127 77 33 35  255 0 255
4  206 140 373 372  0 255 127
4  78 190 189 77  63 0 255
7  127 29 28 5 126 52 35  255 127 0
4  205 29 28 161  63 255 0
5  94 95 376 374 140  0 255 63
5  95 94 140 374 376  0 127 255
4  190 78 77 189  127 255 0
3  190 394 571  0 255 63
5  190 394 393 142 189  63 0 255
5  189 77 33 50 76  127 255 0
5  189 142 393 394 190  0 255 63
4  189 142 75 76  63 0 255
3  190 571 394  63 0 255
4  189 76 75 142  0 255 63
4  7 6 161 170  0 255 255
5  189 76 50 33 77  63 0 255
6  204 7 600 201 202 203  0 255 63
6  7 204 203 202 201 600  0 255 255
3  26 201 600  0 255 63
3  201 26 600  255 0 191
6  25 26 548 199 200 24  0 255 127
6  26 25 24 200 199 548  255 127 0
5  147 199 548 146 12  0 255 127
5  199 147 12 146 548  255 255 0
5  198 147 12 11 187  0 255 127
5  147 198 187 11 12  255 0 127
7  197 187 11 10 194 195 196  0 255 127
7  187 197 196 195 194 10 11  255 0 127
6  193 10 11 146 143 188  0 255 127
6  10 193 188 143 146 11  127 255 0
10  192 188 145 76 189 190 571 376 95 191  0 255 63
10  188 192 191 95 376 571 190 189 76 145  127 255 0
3  7 6 133  0 255 63
4  26 600 133 27  0 255 63
3  7 600 133  0 255 255
3  7 133 600  0 255 63
3  7 133 6  0 255 255
3  188 145 143  127 255 0
3  26 548 141  255 127 0
7  29 127 35 52 126 5 28  255 191 0
4  29 205 161 28  255 0 191
4  5 6 161 28  255 0 63
4  5 126 125 4  255 191 0
4  5 126 546 27  0 255 63
4  5 6 133 27  255 0 191
4  5 28 161 6  255 0 191
4  5 4 125 126  0 255 63
8  186 30 178 180 182 183 184 185  255 191 0
8  30 186 185 184 183 182 180 178  63 255 0
9  181 180 178 320 336 405 474 434 179  255 191 0
9  180 181 179 434 474 405 336 320 178  0 255 0
6  321 178 30 176 330 333  255 191 0
6  178 321 333 330 176 30  63 255 0
5  332 176 175 611 502  255 191 0
5  176 332 502 611 175  255 0 0
4  177 175 176 173  255 191 0
4  175 177 173 176  255 0 0
11  431 177 173 164 165 226 477 468 467 430 306  255 191 0
11  177 431 306 430 467 468 477 226 165 164 173  255 0 0
5  4 165 164 28 5  255 191 0
5  4 5 28 164 165  255 0 63
5  29 28 164 173 30  255 191 0
5  29 30 173 164 28  63 255 0
3  176 30 173  255 191 0
3  30 176 173  63 255 0
3  37 170 163  191 0 255
3  170 37 163  255 0 63
5  171 37 38 174 172  191 255 0
5  37 171 172 174 38  255 63 0
3  603 38 37  191 0 255
3  38 603 37  255 63 0
5  523 603 37 163 521  191 0 255
5  603 523 521 163 37  255 63 0
7  587 523 521 589 331 284 261  191 0 255
7  523 587 261 284 331 589 521  0 255 191
5  176 589 581 164 173  63 255 0
5  589 176 173 164 581  255 0 0
4  28 164 581 161  63 255 0
5  170 161 581 522 163  191 0 255
4  28 161 581 164  255 0 63
4  589 521 522 581  191 0 255
5  170 163 522 581 161  255 0 63
3  163 521 522  255 63 0
3  163 522 521  191 0 255
5  169 37 135 167 168  255 63 0
5  37 169 168 167 135  255 0 63
3  166 135 162  0 255 191
3  135 166 162  255 0 63
4  165 162 581 164  255 0 0
4  162 165 164 581  255 0 63
4  163 522 135 37  255 63 0
4  163 37 135 522  255 0 63
4  162 135 522 581  0 255 191
4  135 162 581 522  255 0 63
4  581 522 521 589  0 255 191
8  620 205 577 576 599 582 420 295  63 255 0
8  205 620 295 420 582 599 576 577  191 0 255
9  596 576 577 322 335 404 310 595 286  0 255 0
9  576 596 286 595 310 404 335 322 577  191 0 255
8  323 577 205 161 581 589 329 334  63 255 0
8  577 323 334 329 589 581 161 205  191 0 255
8  589 581 537 538 594 362 260 331  255 0 0
8  581 589 331 260 362 594 538 537  0 255 191
12  588 537 581 162 414 242 244 413 159 158 160 248  255 0 0
12  537 588 248 160 158 159 413 244 242 414 162 581  0 255 191
4  577 576 180 178  0 255 0
4  576 577 178 180  63 255 0
4  548 146 143 141  255 255 0
3  548 26 141  0 255 127
4  546 27 26 141  255 127 0
4  546 145 76 126  255 255 0
4  546 145 143 141  0 255 63
4  126 5 27 546  255 127 0
4  126 76 50 52  255 255 0
4  126 76 75 125  0 63 255
4  126 76 145 546  0 255 63
4  127 35 33 77  127 0 255
4  126 52 50 76  0 63 255
4  546 141 143 145  255 255 0
4  548 141 143 146  0 255 127
4  546 141 26 27  0 255 63
5  337 127 35 52 51  255 127 0
5  127 337 51 52 35  127 0 255
9  338 51 429 554 435 555 557 268 560  255 127 0
9  51 338 560 268 557 555 435 554 429  255 255 0
11  428 429 51 52 126 546 141 548 199 355 371  255 127 0
11  429 428 371 355 199 548 141 546 126 52 51  255 255 0
3  146 11 12  0 255 127
3  145 188 143  0 255 63
4  76 126 125 75  0 255 63
3  146 12 11  127 255 0
6  157 78 77 33 50 49  127 0 255
6  78 157 49 50 33 77  127 255 0
9  156 49 144 150 151 152 153 154 155  255 255 0
9  49 156 155 154 153 152 151 150 144  127 255 0
10  149 144 49 50 76 145 143 146 12 13  255 255 0
10  144 149 13 12 146 143 145 76 50 49  127 255 0
4  148 13 12 147  255 255 0
4  13 148 147 12  255 0 127
3  142 395 393  0 255 127
5  142 395 397 74 75  63 0 255
3  140 374 373  0 255 63
3  142 393 395  63 0 255
3  140 373 374  0 127 255
5  142 75 74 397 395  0 255 127
3  4 125 124  255 191 0
16  533 26 141 143 188 281 392 94 140 373 393 142 75 125 4 532  0 255 63
16  26 533 532 4 125 75 142 393 373 140 94 392 281 188 143 141  0 255 127
8  524 136 134 135 522 521 523 363  255 63 0
8  136 524 363 523 521 522 135 134  0 255 191
13  166 135 134 137 138 139 535 536 415 245 275 243 235  255 63 0
13  135 166 235 243 275 245 415 536 535 139 138 137 134  0 255 191
4  6 5 27 133  0 255 63
4  600 26 27 133  255 0 191
17  539 592 591 499 498 476 253 403 475 550 201 600 133 6 161 205 584  255 0 191
17  592 539 584 205 161 6 133 600 201 550 475 403 253 476 498 499 591  0 255 255
4  395 372 370 397  0 191 255
4  395 372 373 393  0 255 127
4  397 370 372 395  0 255 127
4  393 373 372 395  0 191 255
4  393 373 374 394  0 255 63
4  571 376 374 394  0 191 255
4  394 374 373 393  0 191 255
4  394 374 376 571  0 255 63
17  457 456 553 526 297 525 527 530 314 231 397 395 393 394 571 211 387  63 0 255
17  456 457 387 211 571 394 393 395 397 231 314 530 527 525 297 526 553  0 191 255
8  561 553 456 453 304 452 451 559  63 0 255
8  553 561 559 451 452 304 453 456  0 191 255
22  389 360 358 364 291 365 366 369 315 232 370 372 373 374 376 210 347 380 381 383 299 386  0 191 255
22  360 389 386 299 383 381 380 347 210 376 374 373 372 370 232 315 369 366 365 291 364 358  0 127 255
3  361 358 360  0 191 255
3  358 361 360  0 127 255
4  125 75 74 124  0 63 255
4  124 74 75 125  0 255 127
6  132 105 36 129 130 131  255 191 0
6  105 132 131 130 129 36  0 63 255
4  128 36 35 127  255 191 0
4  36 128 127 35  255 0 255
15  126 52 35 36 105 104 117 118 119 120 121 122 123 124 125  255 191 0
15  126 125 124 123 122 121 120 119 118 117 104 105 36 35 52  0 63 255
13  116 104 105 106 107 108 109 110 111 112 113 114 115  255 191 0
13  104 116 115 114 113 112 111 110 109 108 107 106 105  0 63 255
19  103 85 84 87 88 89 90 91 92 93 94 95 96 97 98 99 100 101 102  0 127 255
19  85 103 102 101 100 99 98 97 96 95 94 93 92 91 90 89 88 87 84  0 0 255
3  86 84 85  0 127 255
3  84 86 85  0 0 255
6  83 54 34 80 81 82  0 63 255
6  54 83 82 81 80 34  63 0 255
5  79 34 33 77 78  255 0 255
5  34 79 78 77 33  63 0 255
15  76 50 33 34 54 53 67 68 69 70 71 72 73 74 75  0 63 255
15  76 75 74 73 72 71 70 69 68 67 53 54 34 33 50  63 0 255
14  66 53 54 55 56 57 58 59 60 61 62 63 64 65  0 63 255
14  53 66 65 64 63 62 61 60 59 58 57 56 55 54  63 0 255
4  52 35 33 50  0 63 255
4  50 33 35 52  127 0 255
4  52 50 49 51  255 255 0
4  50 52 51 49  127 0 255
12  48 38 37 39 40 41 42 43 44 45 46 47  191 255 0
12  38 48 47 46 45 44 43 42 41 40 39 37  191 0 255
4  36 34 33 35  0 63 255
4  34 36 35 33  255 0 255
15  32 20 19 21 22 23 24 25 26 27 5 28 29 30 31  255 127 0
15  20 32 31 30 29 28 5 27 26 25 24 23 22 21 19  255 0 191
11  18 9 8 10 11 12 13 14 15 16 17  127 255 0
11  9 18 17 16 15 14 13 12 11 10 8  255 0 127
8  7 1 0 2 3 4 5 6  0 255 63
8  1 7 6 5 4 3 2 0  255 0 63

