OFF
611 637 0

-14.2237 -6.91461 4.19755
-14.2237 -6.91461 5.72656
0.785761 -0.686642 -8.87251
-4.93995 1.53815 -8.87251
-9.68917 -2.78597 -8.87251
-8.27199 -1.49564 4.19755
-14.5995 -7.25673 4.19755
27.1 4.59297 5.72663
-3.6147 15.1513 18.7964
5.35263 12.0688 18.7964
-2.01809 14.6025 18.7964
7.16727 11.445 18.7964
11.2997 14.6855 18.7964
12.5763 15.6865 18.7965
13.7776 15.7757 18.7965
18.1518 16.1006 18.7965
23.9787 14.0427 18.7965
24.7778 12.4444 18.7965
27.1 7.8 18.7964
27.1 4.59297 18.7964
27.1 4.22 18.7964
25.4966 -0.590174 18.7964
22.069 -3.515 18.7964
20.3417 -4.98895 18.7964
19.0752 -6.06964 18.7964
17.6873 -7.25395 18.7964
-2.28986 1.09181 18.7964
-2.15156 0.45469 18.7964
-5.481 15.7929 18.7964
-17.8569 6.5572 18.7964
-16.693 6.14855 20.3275
-2.28986 1.09181 34.9275
-2.28986 1.09181 34.2575
-2.28986 1.09181 5.7266
-17.8569 6.5572 5.7266
-17.8569 6.5572 20.3275
-16.693 6.14855 33.3975
-16.693 6.14855 34.9275
-4.55624 1.88751 34.9275
-7.51557 25.1658 33.3975
-2.15156 0.454689 34.9275
-2.15156 0.45469 5.7266
-4.86078 12.9356 5.72663
-5.481 15.7929 5.72663
-6.57927 20.8524 18.7964
-6.84768 22.089 18.7964
-7.11863 23.3372 18.7965
-7.51557 25.1658 18.7965
-7.51557 25.1658 20.3275
-7.51557 25.1658 34.9275
-7.51557 25.1658 52.5625
-2.80808 3.47919 52.5625
-2.28986 1.09181 52.5625
-20.7818 27.78 5.72665
-20.6479 27.0714 5.72665
17.6873 -7.25395 5.72659
7.16727 11.445 5.72663
9.96575 -4.25364 5.72659
-4.93995 1.53815 5.7266
-16.6841 6.10147 5.7266
-22.5387 8.37638 5.7266
-26.2333 12.4814 5.72661
-27.0698 16.9687 5.72662
-26.68 19.6 5.72662
-25.6638 22.6486 5.72663
-22.5453 25.9313 5.72665
-21.6285 26.8963 5.72665
-14.9174 27.78 5.72666
-9.11617 25.7311 5.72666
-6.57927 20.8524 5.72665
-3.6147 15.1513 5.72663
-2.01809 14.6025 5.72663
5.35263 12.0688 5.72663
11.2997 14.6855 5.72665
12.5763 15.6865 5.72665
13.7776 15.7757 5.72665
18.1518 16.1006 5.72666
23.9787 14.0427 5.72665
24.7778 12.4444 5.72665
27.1 7.8 5.72664
27.1 4.22 5.72663
25.4966 -0.590174 5.72662
22.069 -3.515 5.72661
20.3417 -4.98895 5.7266
19.0752 -6.06964 5.7266
-21.3994 -13.448 -23.4724
-14.2237 -6.91461 -50.6925
-4.93995 1.53815 34.9275
-4.93995 1.53815 -17.9143
-4.93995 1.53815 -25.7192
-4.93995 1.53815 -50.6925
-4.93995 1.53815 -52.6625
-14.2237 -6.91461 -52.6625
-18.1869 -10.5231 -50.6925
-19.3967 -11.6246 -50.6925
-21.3994 -13.448 -50.6925
-21.3994 -13.448 -39.6022
-21.3994 -13.448 -38.0721
-21.3994 -13.448 -25.0024
-21.3994 -13.448 -10.4025
-21.3994 -13.448 -8.87251
-21.3994 -13.448 4.19755
-21.3994 -13.448 5.72654
-19.3967 -11.6246 5.72655
-18.1869 -10.5231 5.72655
-14.2237 -6.91461 18.7964
-14.2237 -6.91461 20.3275
-14.2237 -6.91461 33.3975
-14.2237 -6.91461 34.9275
-16.6841 6.10147 -50.6925
17.6873 -7.25395 -50.6925
9.06239 -3.90263 4.19755
9.06239 -3.90263 -8.87251
-25.6968 9.60348 -50.6925
-23.8834 8.89888 -50.6925
-22.5387 8.37638 -50.6925
-16.6841 6.10147 -52.6625
17.6873 -7.25395 -52.6625
17.6873 -7.25395 -39.6022
17.6873 -7.25395 -38.0721
17.6873 -7.25395 -25.0024
17.6873 -7.25395 -23.4724
17.6873 -7.25395 -10.4025
17.6873 -7.25395 -8.87251
15.0311 -6.22186 -8.87251
13.457 -5.61019 -8.87251
10.9643 -4.64164 -8.87251
10.9643 -4.64164 4.19755
13.457 -5.61019 4.19755
15.0311 -6.22186 4.19755
17.6873 -7.25395 4.19755
17.6873 -7.25395 20.3275
17.6873 -7.25395 33.3975
17.6873 -7.25395 34.9275
15.0311 -6.22186 34.9275
10.9643 -4.64164 34.9275
-25.6968 9.60348 5.7266
-25.6968 9.60348 4.19755
-25.6968 9.60348 -8.87251
-25.6968 9.60348 -10.4025
-25.6968 9.60348 -23.4724
-25.6968 9.60348 -25.0024
-25.6968 9.60348 -38.0721
-25.6968 9.60348 -39.6022
-22.5387 8.37638 33.3975
-22.5387 8.37638 34.9275
-22.5387 8.37638 20.3275
-22.5387 8.37638 52.5625
-16.6841 6.10147 34.9275
-16.6841 6.10147 33.3975
-17.8569 6.5572 33.3975
-17.8569 6.5572 34.9275
-17.8569 6.5572 52.5625
-22.5453 25.9313 33.3975
-22.5453 25.9313 34.9275
-23.4316 9.36842 18.7964
-23.4316 9.36842 20.3275
-25.7252 11.9169 18.7964
-25.7252 11.9169 20.3275
-22.5453 25.9313 -25.0024
-22.5453 25.9313 -23.4724
-22.5453 25.9313 18.7964
-22.5453 25.9313 20.3275
-23.4316 9.36842 33.3975
-23.4316 9.36842 34.9275
-25.08 11.2 33.3975
-25.08 11.2 34.9275
-20.5408 -16.6791 18.7963
-20.5408 -16.6791 20.3275
16.1349 16.8129 18.7965
16.1349 16.8129 20.3275
-20.7825 -17.7469 18.7963
-20.7825 -17.7469 20.3275
-22.5453 25.9313 -52.6625
-22.5453 25.9313 -50.6925
-8.32912 24.2175 18.7965
16.1349 16.8129 4.19755
16.1349 16.8129 -8.87251
-20.2829 -20.1608 33.3975
-20.2829 -20.1608 20.3275
-20.5408 -16.6791 34.9275
-20.5408 -16.6791 33.3975
-20.7825 -17.7469 34.9275
-20.7825 -17.7469 33.3975
0.0994993 -20.618 4.19755
0.0994993 -20.618 -8.87251
0.830726 -19.3645 4.19755
0.830726 -19.3645 -8.87251
20.3417 -4.98895 -8.87251
20.3417 -4.98895 -10.4025
-21.0814 -15.1542 -38.0721
-21.0814 -15.1542 -39.6022
-25.08 11.2 20.3275
-19.6927 -12.9324 -52.6625
-19.6927 -12.9324 -50.6925
-21.0814 -15.1542 -23.4724
-21.0814 -15.1542 -25.0024
20.3417 -4.98895 34.9275
20.3417 -4.98895 33.3975
-14.6203 -4.81648 -50.6925
-18.1869 -10.5231 -52.6625
-14.6203 -4.81648 -52.6625
-0.5257 14.7133 18.7964
24.7778 12.4444 -10.4025
24.7778 12.4444 -23.4724
24.7778 12.4444 33.3975
24.7778 12.4444 20.3275
24.7778 12.4444 4.19755
24.7778 12.4444 -8.87251
-22.5453 25.9313 -39.6022
22.069 -3.515 -8.87251
22.069 -3.515 -10.4025
19.0752 -6.06964 -8.87251
19.0752 -6.06964 -10.4025
20.3417 -4.98895 -23.4724
-22.5453 25.9313 -38.0721
-22.5453 25.9313 -10.4025
24.7778 12.4444 -39.6022
24.7778 12.4444 -50.6925
27.1 10.65 -50.6925
27.1 10.65 -39.6022
24.7778 12.4444 52.5625
24.7778 12.4444 34.9275
24.7778 12.4444 -25.0024
24.7778 12.4444 -38.0721
27.1 10.65 -38.0721
-22.5453 25.9313 4.19755
-22.5453 25.9313 -8.87251
-0.0943558 -22.4273 -8.87251
-0.0943558 -22.4273 -10.4025
1.13887 -21.375 -8.87251
1.13887 -21.375 -10.4025
18.1518 16.1006 20.3275
-26.2333 12.4814 -23.4724
-26.2333 12.4814 -25.0024
-26.2333 12.4814 -38.0721
-26.2333 12.4814 -39.6022
-20.6813 -17.3 -23.4724
-20.6813 -17.3 -25.0024
-22.5453 25.9313 52.5625
-23.4316 9.36842 52.5625
-25.08 11.2 52.5625
-20.6813 -17.3 -38.0721
-20.6813 -17.3 -39.6022
23.9787 14.0427 -52.6625
23.9787 14.0427 -50.6925
18.4216 -4.91784 4.19755
18.4216 -4.91784 -8.87251
20.3417 -4.98895 4.19755
25.7716 10.4568 -10.4025
25.7716 10.4568 -8.87251
13.0379 17.9068 -25.0024
13.0379 17.9068 -23.4724
22.069 -3.515 -23.4724
5.32254 -7.11657 4.19755
5.32254 -7.11657 -8.87251
-0.280963 -12.1111 4.19755
-0.280963 -12.1111 -8.87251
-16.3246 4.19969 33.3975
-16.3246 4.19969 20.3275
-21.1613 7.71734 33.3975
-21.1613 7.71734 20.3275
-16.0927 2.97276 33.3975
-16.0927 2.97276 20.3275
24.5922 -1.36189 -10.4025
24.5922 -1.36189 -23.4724
24.5922 -1.36189 -50.6925
24.5922 -1.36189 -39.6022
-16.6841 6.10147 20.3275
23.9787 14.0427 -10.4025
27.1 7.8 -10.4025
27.1 7.8 -8.87251
23.9787 14.0427 -8.87251
27.1 4.22 -10.4025
25.4966 -0.590174 -10.4025
25.4966 -0.590174 -8.87251
27.1 4.22 -8.87251
-17.5208 -3.33691 -50.6925
-21.0814 -15.1542 -50.6925
-21.0814 -15.1542 4.19755
-21.0814 -15.1542 -8.87251
-12.24 -27.78 -10.4025
-12.24 -27.78 -8.87251
-16.52 -25.64 -8.87251
-16.52 -25.64 -10.4025
-21.0814 -15.1542 -10.4025
-9.11617 25.7311 18.7965
-9.11617 25.7311 20.3275
-20.6813 -17.3 -52.6625
-19.3967 -11.6246 -52.6625
-20.6813 -17.3 -50.6925
-20.6813 -17.3 -8.87251
-20.6813 -17.3 4.19755
22.069 -3.515 34.9275
22.069 -3.515 33.3975
13.0379 17.9068 34.9275
13.0379 17.9068 33.3975
23.9787 14.0427 33.3975
27.1 7.8 33.3975
27.1 7.8 34.9275
23.9787 14.0427 34.9275
27.1 4.22 33.3975
25.4966 -0.590174 33.3975
25.4966 -0.590174 34.9275
27.1 4.22 34.9275
18.1518 16.1006 33.3975
-16.4107 1.5675 -50.6925
14.8671 -4.78619 4.19755
14.8671 -4.78619 -8.87251
18.1518 16.1006 4.19755
13.0379 17.9068 -39.6022
13.0379 17.9068 -50.6925
27.1 7.8 -50.6925
27.1 7.8 -39.6022
23.9787 14.0427 -39.6022
27.1 4.22 -50.6925
25.4966 -0.590174 -50.6925
25.4966 -0.590174 -39.6022
27.1 4.22 -39.6022
-19.6927 -12.9324 18.7963
-19.6927 -12.9324 5.72654
-21.0814 -15.1542 5.72654
16.1349 16.8129 5.72666
17.0405 -5.44905 -8.87251
17.0405 -5.44905 4.19755
-21.0206 -18.7989 34.9275
-21.0206 -18.7989 33.3975
-19.3967 -11.6246 33.3975
-19.3967 -11.6246 34.9275
-12.24 -27.78 -39.6022
-12.24 -27.78 -38.0721
-16.52 -25.64 -38.0721
-16.52 -25.64 -39.6022
-19.851 -21.7538 -39.6022
-19.851 -21.7538 -38.0721
-25.6638 22.6486 -39.6022
-25.6638 22.6486 -38.0721
-21.6285 26.8963 -38.0721
-21.6285 26.8963 -39.6022
-26.68 19.6 -38.0721
-26.68 19.6 -39.6022
-27.0698 16.9687 -39.6022
-27.0698 16.9687 -38.0721
-20.6479 27.0714 -39.6022
-20.6479 27.0714 -38.0721
-20.7818 27.78 -39.6022
-20.7818 27.78 -38.0721
-10.2796 -27.78 -38.0721
-10.2796 -27.78 -39.6022
-12.24 -27.78 4.19755
-12.24 -27.78 5.72651
-16.52 -25.64 5.72651
-16.52 -25.64 4.19755
-26.68 19.6 34.9275
-26.68 19.6 33.3975
-25.6638 22.6486 34.9275
-27.1 16.765 33.3975
-27.1 16.765 34.9275
-21.6285 26.8963 33.3975
-20.6479 27.0714 33.3975
-20.6479 27.0714 34.9275
-27.1 13.4444 18.7964
-26.2333 12.4814 18.7964
-22.5387 8.37638 18.7964
-27.1 13.4444 20.3275
-12.24 -27.78 -25.0024
-12.24 -27.78 -23.4724
-16.52 -25.64 -23.4724
-16.52 -25.64 -25.0024
16.7064 -5.57753 34.9275
22.069 -3.515 20.3275
-19.851 -21.7538 -25.0024
-19.851 -21.7538 -23.4724
-25.6638 22.6486 -25.0024
-25.6638 22.6486 -23.4724
-21.6285 26.8963 -23.4724
-21.6285 26.8963 -25.0024
-19.851 -21.7538 4.19755
-19.851 -21.7538 5.72652
-25.6638 22.6486 4.19755
-21.6285 26.8963 4.19755
-20.7818 27.78 33.3975
-20.7818 27.78 34.9275
23.9787 14.0427 4.19755
27.1 7.8 4.19755
27.1 4.22 4.19755
25.4966 -0.590174 4.19755
-26.68 19.6 -23.4724
-26.68 19.6 -25.0024
-27.0698 16.9687 -25.0024
-27.0698 16.9687 -23.4724
-20.6479 27.0714 -25.0024
-20.6479 27.0714 -23.4724
-20.7818 27.78 -25.0024
-20.7818 27.78 -23.4724
-10.2796 -27.78 -23.4724
-10.2796 -27.78 -25.0024
-19.851 -21.7538 -10.4025
-19.851 -21.7538 -8.87251
-25.6638 22.6486 -10.4025
-25.6638 22.6486 -8.87251
-21.6285 26.8963 -8.87251
-21.6285 26.8963 -10.4025
-21.0206 -18.7989 20.3275
-21.0206 -18.7989 18.7963
-20.6813 -17.3 18.7963
-19.3967 -11.6246 18.7964
-19.3967 -11.6246 20.3275
-9.11617 25.7311 33.3975
14.6718 17.3297 20.3275
14.6718 17.3297 33.3975
27.1 4.59297 33.3975
27.1 4.59297 20.3275
0.479403 -17.0722 -8.87251
-0.0943558 -22.4273 4.19755
0.479403 -17.0722 4.19755
19.0752 -6.06964 -23.4724
-26.68 19.6 -8.87251
-26.68 19.6 -10.4025
22.069 -3.515 4.19755
-20.6813 -17.3 -10.4025
13.0379 17.9068 -38.0721
23.9787 14.0427 -38.0721
27.1 7.8 -38.0721
27.1 7.8 -25.0024
23.9787 14.0427 -25.0024
27.1 4.22 -38.0721
25.4966 -0.590174 -38.0721
25.4966 -0.590174 -25.0024
27.1 4.22 -25.0024
-12.24 -27.78 -50.6925
-16.52 -25.64 -50.6925
27.1 4.22 -52.6625
25.4966 -0.590174 -52.6625
25.7716 10.4568 -23.4724
-26.68 19.6 4.19755
-27.0698 16.9687 4.19755
-20.6479 27.0714 4.19755
22.069 -3.515 52.5625
16.7064 -5.57753 52.5625
13.0379 17.9068 52.5625
-4.55624 1.88751 52.5625
-27.0698 16.9687 -10.4025
-27.0698 16.9687 -8.87251
-26.2333 12.4814 -8.87251
-26.2333 12.4814 4.19755
14.6718 17.3297 -8.87251
14.6718 17.3297 4.19755
-20.6813 -17.3 5.72653
-20.6479 27.0714 -10.4025
-20.6479 27.0714 -8.87251
-20.7818 27.78 -10.4025
-20.7818 27.78 -8.87251
-10.2796 -27.78 -8.87251
-10.2796 -27.78 -10.4025
-26.2333 12.4814 -10.4025
-12.24 -27.78 -52.6625
-16.52 -25.64 -52.6625
-19.851 -21.7538 -52.6625
-19.851 -21.7538 -50.6925
-25.6638 22.6486 -52.6625
-25.6638 22.6486 -50.6925
-21.6285 26.8963 -50.6925
-21.6285 26.8963 -52.6625
-26.68 19.6 -50.6925
-26.68 19.6 -52.6625
-27.0698 16.9687 -52.6625
-27.0698 16.9687 -50.6925
-20.6479 27.0714 -52.6625
-20.6479 27.0714 -50.6925
-20.7818 27.78 -52.6625
-20.7818 27.78 -50.6925
-10.2796 -27.78 -50.6925
-10.2796 -27.78 -52.6625
23.9787 14.0427 -23.4724
27.1 7.8 -23.4724
27.1 4.22 -23.4724
25.4966 -0.590174 -23.4724
-20.0772 -20.5405 18.7963
-18.68 -23.12 18.7963
-18.68 -23.12 20.3275
-20.7818 27.78 4.19755
-10.2796 -27.78 4.19755
-10.2796 -27.78 5.72651
23.9787 14.0427 20.3275
27.1 7.8 20.3275
27.1 4.22 20.3275
25.4966 -0.590174 20.3275
27.1 7.8 52.5625
23.9787 14.0427 52.5625
25.4966 -0.590174 52.5625
27.1 4.22 52.5625
-9.11617 25.7311 4.19755
-9.11617 25.7311 -8.87251
-7.51557 25.1658 -8.87251
-7.51557 25.1658 4.19755
-18.68 -23.12 33.3975
-18.68 -23.12 34.9275
-14.9174 27.78 -10.4025
-14.9174 27.78 18.7965
-12.24 -27.78 33.3975
-14.9174 27.78 4.19755
-12.24 -27.78 34.9275
-16.52 -25.64 34.9275
18.4216 -4.91784 52.5625
-16.52 -25.64 33.3975
18.4216 -4.91784 34.9275
-6.36717 -27.78 33.3975
-14.9174 27.78 33.3975
-22.3079 8.11988 20.3275
-22.3079 8.11988 33.3975
-27.1 13.4444 33.3975
-27.1 13.4444 34.9275
-22.3079 8.11988 34.9275
-22.3079 8.11988 52.5625
-27.1 13.4444 52.5625
-16.6841 6.10147 18.7964
-12.24 -27.78 18.7963
-12.24 -27.78 20.3275
-16.52 -25.64 20.3275
-16.52 -25.64 18.7963
-25.6638 22.6486 18.7964
-25.6638 22.6486 20.3275
-21.6285 26.8963 20.3275
-21.6285 26.8963 18.7964
-26.68 19.6 20.3275
-26.68 19.6 18.7964
-27.1 16.765 18.7964
-27.0698 16.9687 18.7964
-27.1 16.765 20.3275
-20.6479 27.0714 18.7964
-20.6479 27.0714 20.3275
-6.36717 -27.78 -50.6925
-6.36717 -27.78 -52.6625
-14.9174 27.78 -50.6925
-14.9174 27.78 -52.6625
27.1 12.9403 -52.6625
27.1 12.9403 -50.6925
-25.6638 22.6486 33.3975
-6.36717 -27.78 -38.0721
18.7933 -6.3102 34.9275
27.1 0.778023 -38.0721
-14.9174 27.78 52.5625
-6.36717 -27.78 -25.0024
-20.7818 27.78 20.3275
-14.2237 -6.91461 -8.87251
-25.6638 22.6486 52.5625
-21.6285 26.8963 52.5625
-21.6285 26.8963 34.9275
-16.0927 2.97276 -50.6925
-16.6841 6.10147 -39.8489
-16.6841 6.10147 -36.46
-26.68 19.6 52.5625
-16.0927 2.97276 5.72659
-14.6203 -4.81648 5.72657
-27.1 16.765 52.5625
18.7933 -6.3102 33.3975
-6.36717 -27.78 -8.87251
-6.36717 -27.78 -10.4025
-20.6479 27.0714 52.5625
-0.305212 -11.9529 -8.87251
-6.36717 -27.78 -23.4724
-17.8115 -10.1812 -8.87251
-0.305212 -11.9529 4.19755
1.13887 -21.375 4.19755
27.1 0.778023 -39.6022
-6.36717 -27.78 -39.6022
18.7933 -6.3102 20.3275
-6.36717 -27.78 20.3275
-6.36717 -27.78 18.7963
14.6718 17.3297 18.7965
14.6718 17.3297 5.72666
-26.2333 12.4814 -50.6925
-20.7818 27.78 52.5625
-16.693 6.14855 52.5625
-4.93995 1.53815 4.19755
24.5922 -1.36189 -25.0024
24.5922 -1.36189 -38.0721
-0.0943558 -22.4273 -23.4724
1.13887 -21.375 -23.4724
-18.1869 -10.5231 18.7964
-6.36717 -27.78 4.19755
-6.36717 -27.78 5.72652
-14.6203 -4.81648 18.7964
-16.0927 2.97276 18.7964
-10.2796 -27.78 20.3275
-10.2796 -27.78 33.3975
-26.2333 12.4814 -52.6625
-22.5387 8.37638 -52.6625
-14.9174 27.78 -23.4724
-14.9174 27.78 -25.0024
14.4036 -4.76902 34.9275
14.4036 -4.76902 52.5625
-16.0927 2.97276 -52.6625
-20.7818 27.78 18.7965
-10.2796 -27.78 18.7963
-10.2796 -27.78 34.9275
-14.9174 27.78 -38.0721
-14.9174 27.78 -39.6022
27.1 12.9403 -39.6022
27.1 12.9403 -38.0721
-14.9174 27.78 -8.87251
-19.851 -21.7538 18.7963
18.1518 16.1006 -8.87251
-7.51557 25.1658 5.72666
27.1 4.59297 -8.87251
27.1 4.59297 4.19755
19.0752 -6.06964 4.19755
-14.9174 27.78 20.3275
-6.36717 -27.78 34.9275
-14.9174 27.78 34.9275
4  499 594 53 67  255 0 0
4  499 608 544 594  255 139 0
4  499 286 287 608  255 139 0
4  508 608 287 408  255 139 0
4  508 610 382 381  255 139 0
4  508 381 544 608  255 139 0
5  508 408 39 49 610  255 139 0
4  507 586 596 609  231 255 0
4  507 609 133 132  231 255 0
4  501 481 452 601  92 255 0
4  501 67 53 481  92 255 0
14  501 492 495 447 176 309 383 77 76 322 571 604 68 67  92 255 0
4  499 67 68 286  255 0 0
4  498 451 394 589  92 255 0
4  589 394 393 590  92 255 0
5  589 252 474 269 498  92 255 0
4  610 542 573 382  255 139 0
4  610 49 50 542  255 139 0
8  609 596 108 87 40 135 134 133  231 255 0
4  590 393 346 597  92 255 0
4  597 346 345 598  92 255 0
4  600 225 224 422  92 255 0
4  597 421 251 590  92 255 0
4  601 452 451 498  92 255 0
4  601 493 492 501  92 255 0
4  568 585 586 507  231 255 0
4  568 507 132 131  231 255 0
4  534 471 470 535  92 255 0
10  599 220 313 318 565 541 426 423 225 600  92 255 0
4  598 345 471 534  92 255 0
4  537 219 218 245  92 255 0
4  599 314 217 220  92 255 0
4  534 311 310 598  92 255 0
4  557 453 482 581  0 255 46
4  581 482 483 582  231 255 0
4  557 581 414 228  0 255 46
7  542 50 51 441 574 559 573  255 139 0
4  540 133 134 369  0 255 185
4  540 197 198 556  0 255 185
4  540 369 506 197  0 255 185
4  561 395 454 558  0 185 255
4  558 454 453 557  0 185 255
4  561 558 229 578  0 185 255
4  569 595 585 568  231 255 0
4  582 483 595 569  231 255 0
4  582 569 25 55  231 255 0
4  539 347 396 543  0 185 255
4  543 396 395 561  0 185 255
3  541 427 426  92 255 0
4  539 543 120 119  0 185 255
4  532 472 348 566  0 185 255
4  566 348 347 539  0 185 255
3  565 318 317  92 255 0
4  532 566 118 110  0 185 255
4  482 349 350 483  231 255 0
4  453 282 349 482  0 255 46
4  481 437 450 452  92 255 0
4  483 350 517 595  231 255 0
4  595 517 518 585  231 255 0
4  594 530 54 53  255 0 0
4  20 19 7 80  0 46 255
6  80 7 79 384 606 385  92 255 0
4  81 82 22 21  0 46 255
4  20 80 81 21  0 46 255
10  535 470 468 116 91 117 433 432 536 244  92 255 0
6  536 432 315 312 219 537  92 255 0
4  537 245 244 536  92 255 0
5  535 244 245 311 534  92 255 0
4  533 473 472 532  0 185 255
5  533 117 91 92 473  0 185 255
4  533 532 110 117  0 185 255
4  530 524 66 54  255 0 0
4  528 362 61 62  255 0 0
4  528 62 63 526  255 0 0
4  63 64 521 526  255 0 0
4  66 524 161 65  255 0 0
4  521 64 65 161  255 0 0
5  378 448 405 478 602  231 255 0
3  602 478 479  231 255 0
5  602 479 520 351 378  231 255 0
9  498 269 272 603 177 446 494 493 601  92 255 0
8  600 422 421 597 598 310 314 599  92 255 0
4  385 606 605 276  92 255 0
5  276 605 271 270 273  92 255 0
4  275 210 419 386  92 255 0
4  385 276 275 386  92 255 0
4  383 309 603 272  92 255 0
4  271 605 606 384  92 255 0
4  383 272 208 207  92 255 0
5  384 207 208 250 271  92 255 0
4  16 15 76 77  92 0 255
4  79 7 19 18  92 0 255
4  18 19 412 485  0 255 185
4  16 77 78 17  92 0 255
4  18 17 78 79  92 0 255
4  25 24 84 55  0 46 255
4  516 584 553 59  231 0 255
7  59 553 103 102 136 60 34  255 0 139
4  351 520 517 350  231 255 0
4  590 251 252 589  92 255 0
6  123 230 187 413 257 124  0 185 255
4  130 607 324 129  92 255 0
4  123 124 323 212  92 255 0
6  130 129 256 415 186 564  231 255 0
4  111 127 126 112  92 255 0
4  112 126 125 255  0 185 255
4  111 254 128 127  231 255 0
4  111 112 255 254  0 255 46
3  136 61 60  92 255 0
4  516 59 34 29  231 0 255
5  556 198 294 370 567  0 255 185
4  556 132 133 540  0 255 185
4  567 131 132 556  0 255 185
4  585 518 500 586  231 255 0
4  586 500 502 596  231 255 0
4  30 35 150 36  255 139 0
3  30 268 35  231 0 255
4  36 149 268 30  231 0 255
4  519 480 496 505  231 255 0
4  519 505 500 518  231 255 0
4  496 480 179 178  231 255 0
4  106 263 262 107  231 0 255
4  106 107 327 407  231 255 0
6  581 582 55 130 564 414  231 255 0
10  55 84 83 82 81 386 419 248 607 130  92 255 0
4  437 380 401 450  92 255 0
4  454 281 282 453  0 185 255
4  395 366 281 454  0 185 255
4  451 449 392 394  92 255 0
4  37 151 152 574  255 139 0
4  37 38 87 148  231 0 255
4  574 441 38 37  255 139 0
12  574 152 147 240 241 515 555 552 546 239 547 559  255 139 0
4  573 559 360 382  255 139 0
4  1 554 583 105  231 0 255
4  102 103 320 321  231 255 0
3  1 104 554  255 0 139
4  1 105 580 104  231 255 0
4  19 20 486 412  0 255 185
6  604 571 74 71 70 69  92 255 0
4  43 70 8 28  0 46 255
3  28 8 44  0 255 185
4  47 570 409 48  0 255 185
4  47 286 175 46  255 139 0
3  604 69 68  92 255 0
3  43 69 70  92 255 0
6  47 46 45 202 13 570  0 255 185
4  28 44 69 43  255 0 0
4  571 322 75 74  92 255 0
4  11 9 72 56  0 46 255
3  56 72 73  92 255 0
4  570 169 170 409  0 255 185
3  11 12 9  0 255 185
4  570 13 14 169  0 255 185
4  11 56 73 12  92 0 255
4  569 568 131 25  231 255 0
9  567 370 487 21 22 23 24 25 131  0 255 185
4  566 539 119 118  0 185 255
8  541 565 317 267 118 119 577 427  92 255 0
4  563 254 255 560  0 255 46
4  230 228 185 187  0 185 255
5  560 255 125 124 257  0 185 255
5  563 256 129 128 254  231 255 0
4  564 186 184 414  231 255 0
4  563 560 257 256  0 255 46
4  436 445 444 443  92 255 0
4  436 443 417 435  92 255 0
6  543 561 578 579 121 120  0 185 255
4  449 402 375 392  92 255 0
4  559 547 548 360  255 139 0
4  558 557 228 229  0 185 255
4  230 123 122 231  0 185 255
4  123 212 213 122  92 255 0
4  347 330 365 396  0 185 255
4  396 365 366 395  0 185 255
4  393 391 344 346  92 255 0
4  391 376 337 344  92 255 0
4  36 150 151 37  255 139 0
4  348 329 330 347  0 185 255
4  472 430 329 348  0 185 255
4  345 343 469 471  92 255 0
4  442 455 233 390  92 255 0
4  442 390 387 418  92 255 0
4  357 512 511 356  255 139 0
4  555 515 512 357  255 139 0
4  555 357 353 552  255 139 0
4  353 355 546 552  255 139 0
4  548 547 239 154  255 139 0
4  546 355 154 239  255 139 0
4  544 531 530 594  255 139 0
8  105 583 584 516 268 259 263 106  231 0 255
4  381 359 531 544  255 139 0
4  359 358 523 531  255 139 0
4  529 364 361 527  255 139 0
4  356 511 364 529  255 139 0
4  356 529 525 354  255 139 0
4  525 522 538 354  255 139 0
4  523 358 153 162  255 139 0
4  538 522 162 153  255 139 0
4  389 234 235 342  92 255 0
4  389 342 339 388  92 255 0
4  417 400 379 435  92 255 0
4  401 380 226 227  92 255 0
4  379 400 227 226  92 255 0
4  398 291 292 377  0 255 46
4  377 352 283 398  0 255 46
9  596 502 503 497 325 182 180 328 108  231 255 0
4  37 148 149 36  231 0 255
6  107 262 258 149 148 108  231 0 255
4  339 336 373 388  92 255 0
4  337 376 159 215  92 255 0
4  373 336 215 159  92 255 0
4  343 338 462 469  92 255 0
4  341 236 572 467  92 255 0
4  341 467 464 340  92 255 0
4  464 461 335 340  92 255 0
4  462 338 209 174  92 255 0
4  335 461 174 209  92 255 0
4  387 374 399 418  92 255 0
4  375 402 216 160  92 255 0
4  399 374 160 216  92 255 0
4  372 237 420 397  0 185 255
4  397 284 367 372  0 185 255
4  334 242 238 371  0 185 255
4  371 368 331 334  0 185 255
8  102 321 448 378 377 292 279 101  231 255 0
4  136 102 101 137  255 0 139
6  62 61 136 137 445 436  92 255 0
4  326 178 179 403  231 255 0
4  327 181 168 407  231 255 0
4  403 172 183 326  231 255 0
4  531 523 524 530  255 139 0
4  527 361 362 528  255 139 0
5  529 527 528 526 525  255 139 0
4  522 525 526 521  255 139 0
4  524 523 162 161  255 139 0
4  522 521 161 162  255 139 0
4  480 519 520 479  231 255 0
4  520 519 518 517  231 255 0
4  35 261 260 150  255 139 0
4  35 146 509 261  255 139 0
4  35 268 516 29  231 0 255
4  514 152 151 513  255 139 0
5  513 151 150 260 510  255 139 0
3  514 147 152  255 139 0
4  515 241 166 512  255 139 0
4  514 513 145 147  255 139 0
4  505 496 497 503  231 255 0
4  146 35 29 363  255 139 0
4  510 260 261 509  255 139 0
5  511 165 192 158 364  255 139 0
4  510 509 146 144  255 139 0
4  146 156 163 144  255 139 0
4  212 188 189 213  92 255 0
4  607 248 246 324  92 255 0
4  212 323 247 188  92 255 0
4  505 503 502 500  231 255 0
5  497 496 178 326 325  231 255 0
3  108 148 87  231 0 255
4  107 108 328 327  231 255 0
4  494 446 447 495  92 255 0
4  495 492 493 494  92 255 0
4  491 488 299 304  0 255 185
5  304 299 298 411 301  0 255 185
4  303 293 438 490  0 255 185
12  490 438 504 439 592 52 51 440 489 221 488 491  0 255 185
4  491 304 303 490  0 255 185
4  489 440 295 300  0 255 185
6  300 295 296 410 305 297  0 255 185
4  489 300 222 221  0 255 185
4  488 221 222 299  0 255 185
4  302 294 293 303  0 255 185
4  301 411 412 486  0 255 185
4  487 370 294 302  0 255 185
4  301 486 487 302  0 255 185
4  297 305 232 484  0 255 185
4  484 232 15 16  0 255 185
4  485 412 411 298  0 255 185
4  297 484 206 205  0 255 185
4  298 205 206 485  0 255 185
4  459 290 243 333  0 185 255
4  333 332 431 459  0 185 255
4  283 352 349 282  0 255 46
4  367 284 281 366  0 185 255
4  53 54 437 481  92 255 0
4  24 23 83 84  0 46 255
4  331 368 365 330  0 185 255
4  286 47 48 287  255 139 0
4  44 45 46 175  255 139 0
5  44 175 286 68 69  255 0 0
4  478 405 171 404  231 255 0
6  403 179 480 479 478 404  231 255 0
5  105 106 407 406 580  231 255 0
4  273 270 475 476  92 255 0
4  476 475 424 429  92 255 0
4  477 265 264 274  92 255 0
5  274 264 211 210 275  92 255 0
4  273 476 477 274  92 255 0
4  474 252 251 425  92 255 0
4  269 474 204 203  92 255 0
4  270 249 434 475  92 255 0
4  122 213 416 121  92 255 0
4  121 579 231 122  0 185 255
9  121 416 214 253 265 477 428 576 120  92 255 0
4  467 572 587 466  92 255 0
4  473 456 430 472  0 185 255
9  473 92 200 289 193 288 458 457 456  0 185 255
4  471 469 468 470  92 255 0
9  468 463 173 460 465 466 587 588 116  92 255 0
4  469 462 463 468  92 255 0
4  467 466 465 464  92 255 0
4  461 464 465 460  92 255 0
4  463 462 174 173  92 255 0
4  461 460 173 174  92 255 0
4  458 288 290 459  0 185 255
4  459 431 457 458  0 185 255
4  457 431 430 456  0 185 255
5  116 593 201 92 91  231 0 255
4  109 549 593 116  231 0 255
4  113 572 236 143  92 255 0
5  113 95 94 277 114  255 0 139
4  109 115 306 549  255 0 139
4  113 114 115 572  92 255 0
4  109 116 588 115  92 255 0
3  86 199 93  255 0 139
4  92 201 199 86  231 0 255
4  95 278 194 94  0 185 255
4  95 113 143 96  255 0 139
4  92 86 93 200  0 185 255
4  140 233 455 139  92 255 0
4  139 99 85 140  255 0 139
6  443 444 138 139 455 442  92 255 0
8  397 420 285 99 100 280 291 398  0 185 255
4  452 450 449 451  92 255 0
4  450 401 402 449  92 255 0
4  141 98 97 142  255 0 139
4  142 235 234 141  92 255 0
4  363 29 34 60  255 0 0
6  362 157 155 363 60 61  255 0 0
4  103 104 580 406  231 255 0
3  448 321 320  231 255 0
5  405 448 320 319 167  231 255 0
4  406 319 320 103  231 255 0
4  446 177 176 447  92 255 0
4  138 444 445 137  92 255 0
4  138 100 99 139  255 0 139
4  137 101 100 138  255 0 139
4  101 279 280 100  0 255 46
4  13 12 73 74  92 0 255
3  15 169 14  0 255 185
4  74 73 72 71  92 255 0
3  76 75 322  92 255 0
4  15 14 75 76  92 0 255
4  13 74 75 14  92 0 255
4  443 442 418 417  92 255 0
4  440 50 49 295  0 255 185
4  38 31 40 87  231 0 255
4  295 49 39 296  0 255 185
4  441 52 31 38  255 139 0
3  441 51 52  255 139 0
3  440 51 50  0 255 185
3  293 197 506  0 255 185
4  369 591 592 439  0 255 185
4  439 504 506 369  0 255 185
4  293 506 504 438  0 255 185
4  54 66 380 437  92 255 0
4  62 436 435 63  92 255 0
4  64 63 435 379  92 255 0
4  249 203 204 434  92 255 0
4  316 266 267 317  92 255 0
5  433 117 110 266 316  92 255 0
4  315 432 433 316  92 255 0
4  431 332 329 430  0 185 255
4  429 424 423 426  92 255 0
4  427 577 576 428  92 255 0
4  429 426 427 428  92 255 0
4  425 251 421 422  92 255 0
3  423 224 225  92 255 0
4  425 422 224 223  92 255 0
4  424 223 224 423  92 255 0
4  120 576 577 119  92 255 0
4  99 285 195 85  0 185 255
4  237 195 285 420  0 185 255
4  98 196 190 97  0 185 255
4  242 190 196 238  0 185 255
3  210 188 247  92 255 0
4  323 308 307 324  92 255 0
5  324 307 127 128 129  92 255 0
3  419 246 248  92 255 0
4  324 246 247 323  92 255 0
4  210 247 246 419  92 255 0
4  400 417 418 399  92 255 0
4  213 189 214 416  92 255 0
4  415 256 257 413  0 255 46
4  228 230 231 229  0 185 255
3  413 187 185  0 185 255
3  415 184 186  231 255 0
4  415 413 185 184  0 255 46
4  414 184 185 228  0 255 46
5  48 409 410 296 39  0 255 185
4  39 408 287 48  255 139 0
5  409 170 232 305 410  0 255 185
5  407 168 167 319 406  231 255 0
5  405 167 168 172 171  231 255 0
4  404 171 172 403  231 255 0
6  402 401 227 400 399 216  92 255 0
4  398 283 284 397  0 185 255
4  237 372 371 238  0 185 255
4  85 195 196 98  0 185 255
4  140 85 98 141  255 0 139
4  233 140 141 234  92 255 0
4  390 233 234 389  92 255 0
4  238 196 195 237  0 185 255
4  394 392 391 393  92 255 0
4  392 375 376 391  92 255 0
4  390 389 388 387  92 255 0
4  374 387 388 373  92 255 0
4  80 385 386 81  92 255 0
6  77 383 207 384 79 78  92 255 0
4  382 360 359 381  255 139 0
6  380 66 65 64 379 226  92 255 0
4  378 351 352 377  231 255 0
4  172 168 181 183  231 255 0
4  376 375 160 159  92 255 0
4  374 373 159 160  92 255 0
4  372 367 368 371  0 185 255
4  294 198 197 293  0 255 185
4  82 83 23 22  0 46 255
4  134 135 591 369  0 255 185
4  368 367 366 365  0 185 255
5  364 158 157 362 361  255 139 0
4  146 363 155 156  255 139 0
4  360 548 358 359  255 139 0
4  357 356 354 353  255 139 0
4  355 353 354 538  255 139 0
4  352 351 350 349  231 255 0
4  242 334 333 243  0 185 255
4  97 190 191 96  0 185 255
4  142 97 96 143  255 0 139
4  235 142 143 236  92 255 0
4  342 235 236 341  92 255 0
4  346 344 343 345  92 255 0
4  344 337 338 343  92 255 0
4  342 341 340 339  92 255 0
4  336 339 340 335  92 255 0
6  338 337 215 336 335 209  92 255 0
4  334 331 332 333  0 185 255
4  332 331 330 329  0 185 255
4  328 180 181 327  231 255 0
4  183 181 180 182  231 255 0
4  326 183 182 325  231 255 0
5  124 125 126 308 323  92 255 0
4  169 15 232 170  0 255 185
4  318 313 312 315  92 255 0
4  318 315 316 317  92 255 0
3  313 220 217  92 255 0
4  314 310 311 245  92 255 0
3  312 218 219  92 255 0
4  314 245 218 217  92 255 0
4  313 217 218 312  92 255 0
4  118 267 266 110  92 255 0
4  309 176 177 603  92 255 0
4  486 20 21 487  0 255 185
6  484 16 17 18 485 206  0 255 185
6  94 93 199 549 306 277  255 0 139
4  549 199 201 593  231 0 255
4  289 200 93 94  0 185 255
4  358 548 154 153  255 139 0
4  355 538 153 154  255 139 0
4  135 40 31 591  0 255 185
4  591 31 52 592  0 255 185
4  512 166 165 511  255 139 0
4  513 510 144 145  255 139 0
4  115 114 277 306  255 0 139
4  572 115 588 587  92 255 0
4  307 308 126 127  92 255 0
4  476 429 428 477  92 255 0
7  474 425 223 424 475 434 204  92 255 0
4  553 554 104 103  255 0 139
4  584 583 554 553  231 0 255
4  579 578 229 231  0 185 255
4  96 191 278 95  0 185 255
4  290 278 191 243  0 185 255
4  243 191 190 242  0 185 255
3  290 194 278  0 185 255
4  304 301 302 303  0 255 185
6  300 297 205 298 299 222  0 255 185
4  291 280 279 292  0 255 46
4  290 288 193 194  0 185 255
4  94 194 193 289  0 185 255
4  284 283 282 281  0 185 255
4  276 273 274 275  92 255 0
6  272 269 203 249 250 208  92 255 0
4  271 250 249 270  92 255 0
4  149 258 259 268  231 0 255
4  265 253 211 264  92 255 0
4  263 259 258 262  231 0 255
4  10 8 70 71  0 46 255
5  10 9 12 13 202  0 255 185
4  71 72 9 10  0 46 255
5  10 202 45 44 8  0 255 185
4  253 214 189 211  92 255 0
4  211 189 188 210  92 255 0
4  166 164 163 165  255 139 0
4  241 240 164 166  255 139 0
4  164 145 144 163  255 139 0
4  240 147 145 164  255 139 0
5  192 156 155 157 158  255 139 0
4  165 163 156 192  255 139 0
12  143 113 59 34 60 136 137 138 139 140 141 142  255 0 139
12  113 143 142 141 140 139 138 137 136 60 34 59  92 255 0
8  135 40 27 25 131 132 133 134  231 255 0
5  87 40 27 41 58  231 0 255
8  135 134 133 132 131 25 27 40  0 255 185
3  55 25 57  231 255 0
3  25 55 57  0 46 255
7  130 55 57 111 127 128 129  231 255 0
7  55 130 129 128 127 111 57  92 255 0
3  112 111 2  0 255 46
3  111 112 2  92 255 0
13  126 112 89 90 110 118 119 120 121 122 123 124 125  0 185 255
13  112 126 125 124 123 122 121 120 119 118 110 90 89  92 255 0
4  117 110 90 91  0 185 255
4  110 117 91 90  92 255 0
4  116 91 90 109  231 0 255
4  116 109 90 91  92 255 0
5  115 109 550 113 114  255 0 139
5  109 115 114 113 550  92 255 0
3  59 113 551  255 0 139
3  113 59 551  92 255 0
3  113 551 550  92 255 0
4  111 2 3 575  92 255 0
3  113 550 551  255 0 139
4  112 89 88 2  92 255 0
5  111 57 41 58 575  231 255 0
4  25 57 41 27  0 46 255
4  109 90 89 550  231 0 255
4  90 109 550 89  92 255 0
4  89 112 2 88  0 185 255
4  89 550 551 88  92 255 0
3  88 2 3  0 185 255
4  88 551 550 89  231 0 255
6  88 551 59 58 575 3  92 255 0
6  88 3 575 58 59 551  231 0 255
5  87 58 41 27 40  231 255 0
3  88 3 2  92 255 0
6  108 87 1 105 106 107  231 0 255
6  87 108 107 106 105 1  231 255 0
6  104 1 6 101 102 103  255 0 139
6  1 104 103 102 101 6  231 255 0
4  100 101 6 562  255 0 139
4  101 100 562 6  0 255 46
4  99 100 562 85  255 0 139
4  100 99 85 562  0 185 255
10  98 85 562 545 86 93 94 95 96 97  255 0 139
10  85 98 97 96 95 94 93 86 545 562  0 185 255
8  92 86 4 3 88 89 90 91  231 0 255
8  86 92 91 90 89 88 3 4  0 185 255
4  87 58 575 5  231 0 255
4  1 87 5 0  231 0 255
4  87 1 0 5  231 255 0
4  87 5 575 58  231 255 0
3  86 4 545  0 185 255
3  1 6 0  231 255 0
5  57 111 575 58 41  92 255 0
4  57 25 27 41  231 255 0
8  84 55 56 7 80 81 82 83  92 255 0
8  55 84 83 82 81 80 7 56  0 46 255
9  79 7 56 73 74 75 76 77 78  92 255 0
9  7 79 78 77 76 75 74 73 56  92 0 255
6  72 56 55 43 70 71  92 255 0
6  56 72 71 70 43 55  0 46 255
5  69 43 53 67 68  92 255 0
5  43 69 68 67 53  255 0 0
4  54 53 43 42  92 255 0
4  53 54 42 43  255 0 0
11  66 54 42 33 34 60 61 62 63 64 65  92 255 0
11  54 66 65 64 63 62 61 60 34 33 42  255 0 0
5  59 34 33 41 58  92 255 0
5  59 58 41 33 34  231 0 255
5  57 41 33 42 55  92 255 0
5  57 55 42 33 41  0 46 255
3  43 55 42  92 255 0
3  55 43 42  0 46 255
3  31 40 32  0 255 185
3  40 31 32  231 0 255
6  52 31 39 49 50 51  0 255 185
6  31 52 51 50 49 39  255 139 0
9  48 39 31 32 28 44 45 46 47  0 255 185
9  39 48 47 46 45 44 28 32 31  255 139 0
5  43 28 26 33 42  0 46 255
5  28 43 42 33 26  255 0 0
4  41 33 26 27  0 46 255
4  40 27 26 32  0 255 185
4  41 27 26 33  231 0 255
3  28 32 26  0 255 185
4  40 32 26 27  231 0 255
3  32 28 26  255 139 0
5  38 31 30 36 37  255 139 0
5  31 38 37 36 30  231 0 255
3  35 30 29  255 139 0
3  30 35 29  231 0 255
4  34 29 26 33  255 0 0
4  29 34 33 26  231 0 255
5  32 26 29 30 31  255 139 0
5  32 31 30 29 26  231 0 255
8  24 25 11 19 20 21 22 23  0 46 255
8  25 24 23 22 21 20 19 11  0 255 185
9  18 19 11 12 13 14 15 16 17  92 0 255
9  19 18 17 16 15 14 13 12 11  0 255 185
8  9 11 25 27 26 28 8 10  0 46 255
8  11 9 10 8 28 26 27 25  0 255 185
8  28 26 530 594 499 286 175 44  255 0 0
8  26 28 44 175 286 499 594 530  255 139 0
12  524 530 26 29 363 155 157 362 528 526 521 161  255 0 0
12  530 524 161 521 526 528 362 157 155 363 29 26  255 139 0
4  11 19 7 56  92 0 255
4  19 11 56 7  0 46 255
4  6 562 545 0  0 255 46
3  6 1 0  255 0 139
4  5 4 3 575  0 255 46
4  5 4 545 0  231 0 255
4  575 3 2 111  0 255 46
4  575 3 4 5  231 0 255
4  5 0 545 4  0 255 46
4  6 0 545 562  255 0 139
12  254 111 575 5 0 6 101 279 292 377 352 563  231 255 0
12  111 254 563 352 377 292 279 101 6 0 5 575  0 255 46
9  256 563 352 349 482 581 414 184 415  231 255 0
9  563 256 415 184 414 581 482 349 352  0 255 46
3  4 86 545  231 0 255
13  255 112 2 3 4 545 562 100 280 291 398 283 560  0 255 46
13  112 255 560 283 398 291 280 100 562 545 4 3 2  0 185 255
9  257 560 283 282 453 557 228 185 413  0 255 46
9  560 257 413 185 228 557 453 282 283  0 185 255
12  554 1 0 545 86 199 549 109 550 551 59 553  231 0 255
12  1 554 553 59 551 550 109 549 199 86 545 0  255 0 139

