COFF
337 602 0

-28.65 -27.25 -148.575
-33.75 -27.65 -148.575
-33.75 -27.65 -174.575
-28.65 -27.25 -174.575
-26.45 -22.85 -148.575
-26.45 -22.85 -174.575
-22.45 -24.85 -148.575
-22.45 -24.85 -174.575
-8.05 5.15 -148.575
-8.05 5.15 -174.575
-12.25 7.15 -148.575
-12.25 7.15 -174.575
-6.55 19.15 -148.575
-6.55 19.15 -174.575
-12.65 28.05 -148.575
-12.65 28.05 -174.575
-25.15 27.15 -148.575
-25.15 27.15 -174.575
-31.15 36.75 -148.575
-31.15 36.75 -174.575
-34.25 41.35 -148.575
-34.25 41.35 -174.575
-39.15 41.05 -148.575
-39.15 41.05 -174.575
-37.05 14.25 -148.575
-37.05 14.25 -174.575
-36.65 9.55 -148.575
-36.65 9.55 -174.575
-19.25 -31.65 91.325
-24.45 -29.15 91.325
-24.45 -29.15 -174.575
-19.25 -31.65 -174.575
-16.35 -35.95 91.325
-16.35 -35.95 -174.575
-15.85 -41.35 91.325
-15.85 -41.35 -174.575
32.95 -37.35 91.325
32.95 -37.35 -174.575
32.55 -31.35 91.325
32.55 -31.35 -174.575
34.55 -26.95 91.325
34.55 -26.95 -174.575
39.15 -23.95 91.325
39.15 -23.95 -174.575
11.75 15.85 91.325
11.75 15.85 -174.575
7.95 12.75 91.325
7.95 12.75 -174.575
1.65 12.35 91.325
1.65 12.35 -174.575
-3.35 15.05 91.325
-3.35 15.05 -174.575
28.25 -26.75 100.325
28.45 -29.65 100.325
28.45 -29.65 91.325
28.25 -26.75 91.325
30.55 -24.85 100.325
30.55 -24.85 91.325
8.05 7.95 100.325
8.05 7.95 91.3252
5.25 6.35 100.325
5.25 6.35 91.325
2.35 7.55 100.325
2.35 7.55 91.325
-15.45 -29.05 100.325
-15.45 -29.05 91.325
-12.95 -30.45 100.325
-12.95 -30.45 91.325
-12.65 -33.25 100.325
-12.65 -33.25 91.325
5.35 5.55 109.325
27.55 -26.45 109.325
27.55 -26.45 100.325
5.35 5.55 100.325
-12.25 -30.05 109.325
-12.25 -30.05 100.325
24.25 -24.85 118.325
-9.25 -27.95 118.325
-9.25 -27.95 109.325
24.25 -24.85 109.325
5.55 2.05 118.325
5.55 2.05 109.325
6.65 -12.65 130.325
3.35 -19.25 130.325
10.75 -18.55 130.325
11.05 -18.15 147.944
7.75 -16.45 153.702
7.15 -17.65 153.702
10.45 -19.35 147.944
10.35 -17.85 147.706
7.15 -16.05 153.264
9.75 -18.95 147.706
6.55 -17.25 153.264
11.05 -18.15 130.519
10.45 -19.35 130.504
10.35 -17.85 130.146
9.75 -18.95 130.131
33.55 -29.35 109.529
32.95 -30.55 109.493
32.85 -29.05 109.157
32.15 -30.15 109.121
33.75 -28.85 91.3476
33.15 -29.95 91.3008
33.05 -28.45 91.3493
32.55 -29.65 91.3025
3.35 -19.25 144.075
6.65 -12.65 144.075
6.65 -12.65 143.075
3.35 -19.25 143.075
10.75 -18.55 144.075
10.75 -18.55 143.075
4.55 -18.45 144.075
9.65 -18.05 144.075
9.65 -18.05 143.075
4.55 -18.45 143.075
6.75 -13.95 144.075
6.75 -13.95 143.075
7.75 -16.85 131.325
7.75 -16.45 131.325
7.75 -16.45 174.575
7.75 -16.85 174.575
7.35 -16.15 131.325
7.35 -16.15 174.575
6.95 -16.05 131.325
6.95 -16.05 174.575
6.55 -16.15 131.325
6.55 -16.15 174.575
6.25 -16.45 131.325
6.25 -16.45 174.575
6.15 -16.85 131.325
6.15 -16.85 174.575
6.25 -17.25 131.325
6.25 -17.25 174.575
6.55 -17.55 131.325
6.55 -17.55 174.575
6.95 -17.65 131.325
6.95 -17.65 174.575
7.35 -17.55 131.325
7.35 -17.55 174.575
7.75 -17.25 131.325
7.75 -17.25 174.575
7.55 -16.85 131.325
7.45 -16.55 131.325
7.25 -16.45 131.325
6.95 -16.35 131.325
6.75 -16.45 131.325
6.55 -16.55 131.325
6.45 -16.85 131.325
6.55 -17.15 131.325
6.75 -17.25 131.325
6.95 -17.35 131.325
7.25 -17.25 131.325
7.45 -17.15 131.325
7.25 -16.85 131.325
7.25 -16.75 131.325
7.15 -16.65 131.325
6.95 -16.55 131.325
6.85 -16.65 131.325
6.75 -16.75 131.325
6.75 -16.85 131.325
6.75 -16.95 131.325
6.85 -17.05 131.325
6.95 -17.15 131.325
7.15 -17.05 131.325
7.25 -16.95 131.325
6.95 -16.85 131.325
7.45 -16.55 174.575
7.55 -16.85 174.575
7.25 -16.45 174.575
6.95 -16.35 174.575
6.75 -16.45 174.575
6.55 -16.55 174.575
6.45 -16.85 174.575
6.55 -17.15 174.575
6.75 -17.25 174.575
6.95 -17.35 174.575
7.25 -17.25 174.575
7.45 -17.15 174.575
7.25 -16.75 174.575
7.25 -16.85 174.575
7.15 -16.65 174.575
6.95 -16.55 174.575
6.85 -16.65 174.575
6.75 -16.75 174.575
6.75 -16.85 174.575
6.75 -16.95 174.575
6.85 -17.05 174.575
6.95 -17.15 174.575
7.15 -17.05 174.575
7.25 -16.95 174.575
6.95 -16.85 174.575
3.35 -19.25 135.575
6.65 -12.65 135.575
6.65 -12.65 134.575
3.35 -19.25 134.575
10.75 -18.55 135.575
10.75 -18.55 134.575
4.55 -18.45 135.575
9.65 -18.05 135.575
9.65 -18.05 134.575
4.55 -18.45 134.575
6.75 -13.95 135.575
6.75 -13.95 134.575
3.35 -19.25 131.325
6.65 -12.65 131.325
10.75 -18.55 131.325
4.55 -18.45 131.325
9.65 -18.05 131.325
9.65 -18.05 130.325
4.55 -18.45 130.325
6.75 -13.95 131.325
6.75 -13.95 130.325
3.35 -19.25 139.825
6.65 -12.65 139.825
6.65 -12.65 138.825
3.35 -19.25 138.825
10.75 -18.55 139.825
10.75 -18.55 138.825
4.55 -18.45 139.825
9.65 -18.05 139.825
9.65 -18.05 138.825
4.55 -18.45 138.825
6.75 -13.95 139.825
6.75 -13.95 138.825
3.35 -19.25 148.325
6.65 -12.65 148.325
6.65 -12.65 147.325
3.35 -19.25 147.325
10.75 -18.55 148.325
10.75 -18.55 147.325
4.55 -18.45 148.325
9.65 -18.05 148.325
9.65 -18.05 147.325
4.55 -18.45 147.325
6.75 -13.95 148.325
6.75 -13.95 147.325
3.95 -19.95 148.534
6.95 -16.95 153.789
6.35 -16.45 153.789
3.35 -19.35 148.534
4.85 -19.05 148.116
7.55 -16.35 153.044
4.25 -18.45 148.116
6.95 -15.75 153.044
3.95 -19.95 130.579
3.35 -19.35 130.646
4.85 -19.15 130.004
4.25 -18.45 130.071
-8.55 -28.45 118.72
-9.05 -27.85 118.839
-8.05 -27.85 117.811
-8.55 -27.25 117.93
-17.55 -34.05 109.553
-18.15 -33.35 109.632
-16.65 -33.15 109.018
-17.25 -32.55 109.097
-17.55 -34.05 91.325
-18.15 -33.35 91.325
-16.65 -33.15 91.325
-17.25 -32.55 91.325
5.95 -12.25 148.476
6.35 -16.85 153.681
7.65 -16.75 153.681
7.35 -12.15 148.476
6.05 -13.05 148.174
6.35 -17.45 153.152
7.35 -12.95 148.174
7.65 -17.35 153.152
5.95 -12.25 130.506
7.35 -12.15 130.52
6.05 -13.05 130.13
7.35 -12.95 130.144
4.75 13.05 109.503
6.05 13.15 109.516
4.85 12.25 109.134
6.15 12.35 109.147
4.75 12.65 91.3172
6.05 12.75 91.3151
4.85 11.85 91.3349
6.15 11.95 91.3328
6.15 6.25 101.018
5.95 12.05 100.832
4.95 11.95 100.832
5.15 6.15 101.018
6.15 6.15 100.019
5.95 11.95 99.8323
5.15 6.15 100.019
4.95 11.95 99.8323
4.55 13.05 110.003
5.05 5.55 109.825
5.55 5.55 109.825
4.95 13.05 110.003
4.55 13.05 109.003
5.05 5.55 108.825
4.95 13.05 109.003
5.55 5.55 108.825
27.35 -26.95 109.268
32.75 -29.25 109.081
33.15 -28.35 109.081
27.75 -26.05 109.268
27.35 -26.85 107.768
32.65 -29.25 107.582
27.75 -26.05 107.769
33.05 -28.35 107.582
28.15 -27.25 100.268
33.45 -29.55 100.081
33.85 -28.65 100.081
28.55 -26.25 100.268
28.15 -27.25 98.7684
33.45 -29.55 98.5822
28.55 -26.25 98.7687
33.85 -28.55 98.5822
-17.05 -33.75 109.786
-12.15 -30.25 109.825
-12.35 -29.85 109.825
-17.25 -33.35 109.786
-17.05 -33.75 108.786
-12.15 -30.25 108.825
-17.25 -33.35 108.786
-12.35 -29.85 108.825
-17.85 -33.65 100.518
-12.85 -30.65 100.332
-13.05 -30.15 100.332
-18.05 -33.25 100.518
-17.85 -33.65 99.5186
-12.85 -30.65 99.3323
-18.15 -33.25 99.5186
-13.05 -30.25 99.3323
6.65 -12.65 130.325
6.65 -12.65 130.325
6.65 -12.65 130.325
3.35 -19.25 130.325
3.35 -19.25 130.325
3.35 -19.25 130.325
10.75 -18.55 130.325
10.75 -18.55 130.325
10.75 -18.55 130.325
3  0 1 2  192 0 192
3  2 3 0  192 0 192
3  4 0 3  255 64 255
3  3 5 4  255 64 255
3  6 4 5  0 0 192
3  5 7 6  0 0 192
3  8 6 7  255 128 0
3  7 9 8  255 128 0
3  10 8 9  64 0 128
3  9 11 10  64 0 128
3  12 10 11  173 216 230
3  11 13 12  173 216 230
3  14 12 13  0 128 128
3  13 15 14  0 128 128
3  16 14 15  64 255 255
3  15 17 16  64 255 255
3  18 16 17  255 165 0
3  17 19 18  255 165 0
3  20 18 19  128 255 64
3  19 21 20  128 255 64
3  22 20 21  0 192 192
3  21 23 22  0 192 192
3  24 22 23  128 0 255
3  23 25 24  128 0 255
3  26 24 25  128 0 255
3  25 27 26  128 0 255
3  1 26 27  128 0 255
3  27 2 1  128 0 255
3  3 2 27  255 0 0
3  5 3 27  255 0 0
3  25 23 21  255 0 0
3  25 21 19  255 0 0
3  25 19 17  255 0 0
3  17 15 13  255 0 0
3  17 13 11  255 0 0
3  25 17 11  255 0 0
3  27 25 11  255 0 0
3  27 11 9  255 0 0
3  5 27 9  255 0 0
3  5 9 7  255 0 0
3  4 6 8  255 255 0
3  12 14 16  255 255 0
3  10 12 16  255 255 0
3  20 22 24  255 255 0
3  18 20 24  255 255 0
3  16 18 24  255 255 0
3  10 16 24  255 255 0
3  10 24 26  255 255 0
3  8 10 26  255 255 0
3  4 8 26  255 255 0
3  26 1 0  255 255 0
3  4 26 0  255 255 0
3  28 29 30  128 255 255
3  30 31 28  128 255 255
3  32 28 31  64 255 128
3  31 33 32  64 255 128
3  34 32 33  128 255 128
3  33 35 34  128 255 128
3  36 34 35  0 255 255
3  35 37 36  0 255 255
3  38 36 37  255 128 255
3  37 39 38  255 128 255
3  40 38 39  128 64 255
3  39 41 40  128 64 255
3  42 40 41  255 255 128
3  41 43 42  255 255 128
3  44 42 43  255 0 255
3  43 45 44  255 0 255
3  46 44 45  255 128 128
3  45 47 46  255 128 128
3  48 46 47  255 64 128
3  47 49 48  255 64 128
3  50 48 49  128 128 255
3  49 51 50  128 128 255
3  29 50 51  255 128 0
3  51 30 29  255 128 0
3  30 51 49  255 0 0
3  31 30 49  255 0 0
3  47 45 43  255 0 0
3  47 43 41  255 0 0
3  47 41 39  255 0 0
3  49 47 39  255 0 0
3  31 49 39  255 0 0
3  33 31 39  255 0 0
3  35 33 39  255 0 0
3  35 39 37  255 0 0
3  34 36 38  0 255 0
3  42 44 46  0 255 0
3  40 42 46  0 255 0
3  38 40 46  0 255 0
3  38 46 48  0 255 0
3  48 50 29  0 255 0
3  48 29 28  0 255 0
3  38 48 28  0 255 0
3  38 28 32  0 255 0
3  34 38 32  0 255 0
3  52 53 54  100 100 100
3  54 55 52  100 100 100
3  56 52 55  100 100 100
3  55 57 56  100 100 100
3  58 56 57  192 192 0
3  57 59 58  192 192 0
3  60 58 59  100 100 100
3  59 61 60  100 100 100
3  62 60 61  100 100 100
3  61 63 62  100 100 100
3  64 62 63  0 192 0
3  63 65 64  0 192 0
3  66 64 65  100 100 100
3  65 67 66  100 100 100
3  68 66 67  100 100 100
3  67 69 68  100 100 100
3  53 68 69  192 0 0
3  69 54 53  192 0 0
3  59 57 55  0 255 0
3  61 59 55  0 255 0
3  63 61 55  0 255 0
3  54 69 67  0 255 0
3  55 54 67  0 255 0
3  63 55 67  0 255 0
3  63 67 65  0 255 0
3  62 64 66  0 0 255
3  66 68 53  0 0 255
3  66 53 52  0 0 255
3  62 66 52  0 0 255
3  52 56 58  0 0 255
3  52 58 60  0 0 255
3  62 52 60  0 0 255
3  70 71 72  128 128 0
3  72 73 70  128 128 0
3  74 70 73  128 0 128
3  73 75 74  128 0 128
3  71 74 75  255 128 64
3  75 72 71  255 128 64
3  73 72 75  0 0 255
3  70 74 71  64 64 255
3  76 77 78  0 128 64
3  78 79 76  0 128 64
3  80 76 79  64 128 255
3  79 81 80  64 128 255
3  77 80 81  128 64 0
3  81 78 77  128 64 0
3  81 79 78  64 64 255
3  82 83 84  100 100 100
3  77 76 334  64 255 64
3  334 331 77  64 255 64
3  76 80 328  255 255 64
3  328 334 76  255 255 64
3  80 77 331  255 64 64
3  331 328 80  255 64 64
3  85 86 87  100 100 100
3  87 88 85  100 100 100
3  89 90 86  100 100 100
3  86 85 89  100 100 100
3  91 92 90  100 100 100
3  90 89 91  100 100 100
3  88 87 92  100 100 100
3  92 91 88  100 100 100
3  93 85 88  100 100 100
3  88 94 93  100 100 100
3  95 89 85  100 100 100
3  85 93 95  100 100 100
3  96 91 89  100 100 100
3  89 95 96  100 100 100
3  94 88 91  100 100 100
3  91 96 94  100 100 100
3  97 93 94  100 100 100
3  94 98 97  100 100 100
3  99 95 93  100 100 100
3  93 97 99  100 100 100
3  100 96 95  100 100 100
3  95 99 100  100 100 100
3  98 94 96  100 100 100
3  96 100 98  100 100 100
3  101 97 98  100 100 100
3  98 102 101  100 100 100
3  103 99 97  100 100 100
3  97 101 103  100 100 100
3  104 100 99  100 100 100
3  99 103 104  100 100 100
3  102 98 100  100 100 100
3  100 104 102  100 100 100
3  90 92 87  100 100 100
3  87 86 90  100 100 100
3  103 101 102  100 100 100
3  104 103 102  100 100 100
3  105 106 107  100 100 100
3  107 108 105  100 100 100
3  109 105 108  100 100 100
3  108 110 109  100 100 100
3  106 109 110  100 100 100
3  110 107 106  100 100 100
3  111 112 113  100 100 100
3  113 114 111  100 100 100
3  115 111 114  100 100 100
3  114 116 115  100 100 100
3  112 115 116  100 100 100
3  116 113 112  100 100 100
3  116 114 107  100 100 100
3  108 107 114  100 100 100
3  108 114 113  100 100 100
3  110 108 113  100 100 100
3  107 110 113  100 100 100
3  116 107 113  100 100 100
3  111 106 105  100 100 100
3  112 111 105  100 100 100
3  112 105 109  100 100 100
3  112 109 106  100 100 100
3  115 112 106  100 100 100
3  115 106 111  100 100 100
3  117 118 119  100 100 100
3  119 120 117  100 100 100
3  118 121 122  100 100 100
3  122 119 118  100 100 100
3  121 123 124  100 100 100
3  124 122 121  100 100 100
3  123 125 126  100 100 100
3  126 124 123  100 100 100
3  125 127 128  100 100 100
3  128 126 125  100 100 100
3  127 129 130  100 100 100
3  130 128 127  100 100 100
3  129 131 132  100 100 100
3  132 130 129  100 100 100
3  131 133 134  100 100 100
3  134 132 131  100 100 100
3  133 135 136  100 100 100
3  136 134 133  100 100 100
3  135 137 138  100 100 100
3  138 136 135  100 100 100
3  137 139 140  100 100 100
3  140 138 137  100 100 100
3  139 117 120  100 100 100
3  120 140 139  100 100 100
3  118 117 141  100 100 100
3  141 142 118  100 100 100
3  121 118 142  100 100 100
3  142 143 121  100 100 100
3  123 121 143  100 100 100
3  143 144 123  100 100 100
3  125 123 144  100 100 100
3  144 145 125  100 100 100
3  127 125 145  100 100 100
3  145 146 127  100 100 100
3  129 127 146  100 100 100
3  146 147 129  100 100 100
3  131 129 147  100 100 100
3  147 148 131  100 100 100
3  133 131 148  100 100 100
3  148 149 133  100 100 100
3  135 133 149  100 100 100
3  149 150 135  100 100 100
3  137 135 150  100 100 100
3  150 151 137  100 100 100
3  139 137 151  100 100 100
3  151 152 139  100 100 100
3  117 139 152  100 100 100
3  152 141 117  100 100 100
3  142 141 153  100 100 100
3  153 154 142  100 100 100
3  143 142 154  100 100 100
3  154 155 143  100 100 100
3  144 143 155  100 100 100
3  155 156 144  100 100 100
3  145 144 156  100 100 100
3  156 157 145  100 100 100
3  146 145 157  100 100 100
3  157 158 146  100 100 100
3  147 146 158  100 100 100
3  158 159 147  100 100 100
3  148 147 159  100 100 100
3  159 160 148  100 100 100
3  149 148 160  100 100 100
3  160 161 149  100 100 100
3  150 149 161  100 100 100
3  161 162 150  100 100 100
3  151 150 162  100 100 100
3  162 163 151  100 100 100
3  152 151 163  100 100 100
3  163 164 152  100 100 100
3  141 152 164  100 100 100
3  164 153 141  100 100 100
3  154 153 165  100 100 100
3  155 154 165  100 100 100
3  156 155 165  100 100 100
3  157 156 165  100 100 100
3  158 157 165  100 100 100
3  159 158 165  100 100 100
3  160 159 165  100 100 100
3  161 160 165  100 100 100
3  162 161 165  100 100 100
3  163 162 165  100 100 100
3  164 163 165  100 100 100
3  153 164 165  100 100 100
3  120 119 166  100 100 100
3  166 167 120  100 100 100
3  119 122 168  100 100 100
3  168 166 119  100 100 100
3  122 124 169  100 100 100
3  169 168 122  100 100 100
3  124 126 170  100 100 100
3  170 169 124  100 100 100
3  126 128 171  100 100 100
3  171 170 126  100 100 100
3  128 130 172  100 100 100
3  172 171 128  100 100 100
3  130 132 173  100 100 100
3  173 172 130  100 100 100
3  132 134 174  100 100 100
3  174 173 132  100 100 100
3  134 136 175  100 100 100
3  175 174 134  100 100 100
3  136 138 176  100 100 100
3  176 175 136  100 100 100
3  138 140 177  100 100 100
3  177 176 138  100 100 100
3  140 120 167  100 100 100
3  167 177 140  100 100 100
3  167 166 178  100 100 100
3  178 179 167  100 100 100
3  166 168 180  100 100 100
3  180 178 166  100 100 100
3  168 169 181  100 100 100
3  181 180 168  100 100 100
3  169 170 182  100 100 100
3  182 181 169  100 100 100
3  170 171 183  100 100 100
3  183 182 170  100 100 100
3  171 172 184  100 100 100
3  184 183 171  100 100 100
3  172 173 185  100 100 100
3  185 184 172  100 100 100
3  173 174 186  100 100 100
3  186 185 173  100 100 100
3  174 175 187  100 100 100
3  187 186 174  100 100 100
3  175 176 188  100 100 100
3  188 187 175  100 100 100
3  176 177 189  100 100 100
3  189 188 176  100 100 100
3  177 167 179  100 100 100
3  179 189 177  100 100 100
3  179 178 190  100 100 100
3  178 180 190  100 100 100
3  180 181 190  100 100 100
3  181 182 190  100 100 100
3  182 183 190  100 100 100
3  183 184 190  100 100 100
3  184 185 190  100 100 100
3  185 186 190  100 100 100
3  186 187 190  100 100 100
3  187 188 190  100 100 100
3  188 189 190  100 100 100
3  189 179 190  100 100 100
3  191 192 193  100 100 100
3  193 194 191  100 100 100
3  195 191 194  100 100 100
3  194 196 195  100 100 100
3  192 195 196  100 100 100
3  196 193 192  100 100 100
3  197 198 199  100 100 100
3  199 200 197  100 100 100
3  201 197 200  100 100 100
3  200 202 201  100 100 100
3  198 201 202  100 100 100
3  202 199 198  100 100 100
3  202 200 193  100 100 100
3  194 193 200  100 100 100
3  194 200 199  100 100 100
3  196 194 199  100 100 100
3  193 196 199  100 100 100
3  202 193 199  100 100 100
3  197 192 191  100 100 100
3  198 197 191  100 100 100
3  198 191 195  100 100 100
3  198 195 192  100 100 100
3  201 198 192  100 100 100
3  201 192 197  100 100 100
3  203 204 329  100 100 100
3  329 332 203  100 100 100
3  205 203 332  100 100 100
3  332 335 205  100 100 100
3  204 205 335  100 100 100
3  335 329 204  100 100 100
3  206 207 208  100 100 100
3  208 209 206  100 100 100
3  210 206 209  100 100 100
3  209 211 210  100 100 100
3  207 210 211  100 100 100
3  211 208 207  100 100 100
3  211 209 330  100 100 100
3  333 330 209  100 100 100
3  333 209 208  100 100 100
3  336 333 208  100 100 100
3  330 336 208  100 100 100
3  211 330 208  100 100 100
3  206 204 203  100 100 100
3  207 206 203  100 100 100
3  207 203 205  100 100 100
3  207 205 204  100 100 100
3  210 207 204  100 100 100
3  210 204 206  100 100 100
3  212 213 214  100 100 100
3  214 215 212  100 100 100
3  216 212 215  100 100 100
3  215 217 216  100 100 100
3  213 216 217  100 100 100
3  217 214 213  100 100 100
3  218 219 220  100 100 100
3  220 221 218  100 100 100
3  222 218 221  100 100 100
3  221 223 222  100 100 100
3  219 222 223  100 100 100
3  223 220 219  100 100 100
3  223 221 214  100 100 100
3  215 214 221  100 100 100
3  215 221 220  100 100 100
3  217 215 220  100 100 100
3  214 217 220  100 100 100
3  223 214 220  100 100 100
3  218 213 212  100 100 100
3  219 218 212  100 100 100
3  219 212 216  100 100 100
3  219 216 213  100 100 100
3  222 219 213  100 100 100
3  222 213 218  100 100 100
3  224 225 226  100 100 100
3  226 227 224  100 100 100
3  228 224 227  100 100 100
3  227 229 228  100 100 100
3  225 228 229  100 100 100
3  229 226 225  100 100 100
3  230 231 232  100 100 100
3  232 233 230  100 100 100
3  234 230 233  100 100 100
3  233 235 234  100 100 100
3  231 234 235  100 100 100
3  235 232 231  100 100 100
3  235 233 226  100 100 100
3  227 226 233  100 100 100
3  227 233 232  100 100 100
3  229 227 232  100 100 100
3  226 229 232  100 100 100
3  235 226 232  100 100 100
3  230 225 224  100 100 100
3  231 230 224  100 100 100
3  231 224 228  100 100 100
3  231 228 225  100 100 100
3  234 231 225  100 100 100
3  234 225 230  100 100 100
3  236 237 238  100 100 100
3  238 239 236  100 100 100
3  240 241 237  100 100 100
3  237 236 240  100 100 100
3  242 243 241  100 100 100
3  241 240 242  100 100 100
3  239 238 243  100 100 100
3  243 242 239  100 100 100
3  244 236 239  100 100 100
3  239 245 244  100 100 100
3  246 240 236  100 100 100
3  236 244 246  100 100 100
3  247 242 240  100 100 100
3  240 246 247  100 100 100
3  245 239 242  100 100 100
3  242 247 245  100 100 100
3  248 244 245  100 100 100
3  245 249 248  100 100 100
3  250 246 244  100 100 100
3  244 248 250  100 100 100
3  251 247 246  100 100 100
3  246 250 251  100 100 100
3  249 245 247  100 100 100
3  247 251 249  100 100 100
3  252 248 249  100 100 100
3  249 253 252  100 100 100
3  254 250 248  100 100 100
3  248 252 254  100 100 100
3  255 251 250  100 100 100
3  250 254 255  100 100 100
3  253 249 251  100 100 100
3  251 255 253  100 100 100
3  256 252 253  100 100 100
3  253 257 256  100 100 100
3  258 254 252  100 100 100
3  252 256 258  100 100 100
3  259 255 254  100 100 100
3  254 258 259  100 100 100
3  257 253 255  100 100 100
3  255 259 257  100 100 100
3  241 243 238  100 100 100
3  238 237 241  100 100 100
3  258 256 257  0 255 0
3  259 258 257  0 255 0
3  260 261 262  100 100 100
3  262 263 260  100 100 100
3  264 265 261  100 100 100
3  261 260 264  100 100 100
3  266 267 265  100 100 100
3  265 264 266  100 100 100
3  263 262 267  100 100 100
3  267 266 263  100 100 100
3  268 260 263  100 100 100
3  263 269 268  100 100 100
3  270 264 260  100 100 100
3  260 268 270  100 100 100
3  271 266 264  100 100 100
3  264 270 271  100 100 100
3  269 263 266  100 100 100
3  266 271 269  100 100 100
3  272 268 269  100 100 100
3  269 273 272  100 100 100
3  274 270 268  100 100 100
3  268 272 274  100 100 100
3  275 271 270  100 100 100
3  270 274 275  100 100 100
3  273 269 271  100 100 100
3  271 275 273  100 100 100
3  276 272 273  100 100 100
3  273 277 276  100 100 100
3  278 274 272  100 100 100
3  272 276 278  100 100 100
3  279 275 274  100 100 100
3  274 278 279  100 100 100
3  277 273 275  100 100 100
3  275 279 277  100 100 100
3  265 267 262  100 100 100
3  262 261 265  100 100 100
3  278 276 277  100 100 100
3  279 278 277  100 100 100
3  280 281 282  100 100 100
3  282 283 280  100 100 100
3  284 285 281  100 100 100
3  281 280 284  100 100 100
3  286 287 285  100 100 100
3  285 284 286  100 100 100
3  283 282 287  100 100 100
3  287 286 283  100 100 100
3  285 287 282  100 100 100
3  282 281 285  100 100 100
3  284 280 283  100 100 100
3  286 284 283  100 100 100
3  288 289 290  100 100 100
3  290 291 288  100 100 100
3  292 293 289  100 100 100
3  289 288 292  100 100 100
3  294 295 293  100 100 100
3  293 292 294  100 100 100
3  291 290 295  100 100 100
3  295 294 291  100 100 100
3  293 295 290  100 100 100
3  290 289 293  100 100 100
3  292 288 291  100 100 100
3  294 292 291  100 100 100
3  296 297 298  100 100 100
3  298 299 296  100 100 100
3  300 301 297  100 100 100
3  297 296 300  100 100 100
3  302 303 301  100 100 100
3  301 300 302  100 100 100
3  299 298 303  100 100 100
3  303 302 299  100 100 100
3  301 303 298  100 100 100
3  298 297 301  100 100 100
3  300 296 299  100 100 100
3  302 300 299  100 100 100
3  304 305 306  100 100 100
3  306 307 304  100 100 100
3  308 309 305  100 100 100
3  305 304 308  100 100 100
3  310 311 309  100 100 100
3  309 308 310  100 100 100
3  307 306 311  100 100 100
3  311 310 307  100 100 100
3  309 311 306  100 100 100
3  306 305 309  100 100 100
3  308 304 307  100 100 100
3  310 308 307  100 100 100
3  312 313 314  100 100 100
3  314 315 312  100 100 100
3  316 317 313  100 100 100
3  313 312 316  100 100 100
3  318 319 317  100 100 100
3  317 316 318  100 100 100
3  315 314 319  100 100 100
3  319 318 315  100 100 100
3  317 319 314  100 100 100
3  314 313 317  100 100 100
3  316 312 315  100 100 100
3  318 316 315  100 100 100
3  320 321 322  100 100 100
3  322 323 320  100 100 100
3  324 325 321  100 100 100
3  321 320 324  100 100 100
3  326 327 325  100 100 100
3  325 324 326  100 100 100
3  323 322 327  100 100 100
3  327 326 323  100 100 100
3  325 327 322  100 100 100
3  322 321 325  100 100 100
3  324 320 323  100 100 100
3  326 324 323  100 100 100

