OFF
329 602 0
835899.799999952316 815666.599999964237 30.500000000000
835894.700000286102 815666.199999988079 30.500000000000
835894.700000286102 815666.199999988079 4.500000000000
835899.799999952316 815666.599999964237 4.500000000000
835902.000000000000 815671.000000000000 30.500000000000
835902.000000000000 815671.000000000000 4.500000000000
835906.000000000000 815669.000000000000 30.500000000000
835906.000000000000 815669.000000000000 4.500000000000
835920.399999618530 815699.000000000000 30.500000000000
835920.399999618530 815699.000000000000 4.500000000000
835916.199998855591 815701.000000000000 30.500000000000
835916.199998855591 815701.000000000000 4.500000000000
835921.899999618530 815713.000000000000 30.500000000000
835921.899999618530 815713.000000000000 4.500000000000
835915.799999237061 815721.899997711182 30.500000000000
835915.799999237061 815721.899997711182 4.500000000000
835903.299999713898 815721.000000000000 30.500000000000
835903.299999713898 815721.000000000000 4.500000000000
835897.300000071526 815730.599998474121 30.500000000000
835897.300000071526 815730.599998474121 4.500000000000
835894.200000286102 815735.199996948242 30.500000000000
835894.200000286102 815735.199996948242 4.500000000000
835889.300000190735 815734.900001525879 30.500000000000
835889.300000190735 815734.900001525879 4.500000000000
835891.400000095367 815708.099998474121 30.500000000000
835891.400000095367 815708.099998474121 4.500000000000
835891.800000190735 815703.399997711182 30.500000000000
835891.800000190735 815703.399997711182 4.500000000000
835909.199999809265 815662.200000047684 270.399993896484
835904.000000000000 815664.700000047684 270.399993896484
835904.000000000000 815664.700000047684 4.500030994415
835909.199999809265 815662.200000047684 4.500030994415
835912.099999427795 815657.900000572205 270.399993896484
835912.099999427795 815657.900000572205 4.500030994415
835912.599999427795 815652.500000000000 270.399993896484
835912.599999427795 815652.500000000000 4.500030994415
835961.399997711182 815656.500000000000 270.399993896484
835961.399997711182 815656.500000000000 4.500030994415
835961.000000000000 815662.500000000000 270.399993896484
835961.000000000000 815662.500000000000 4.500030994415
835963.000000000000 815666.899999976158 270.399993896484
835963.000000000000 815666.899999976158 4.500030994415
835967.599998474121 815669.899999856949 270.399993896484
835967.599998474121 815669.899999856949 4.500030994415
835940.200000762939 815709.700000762939 270.399993896484
835940.200000762939 815709.700000762939 4.500030994415
835936.399997711182 815706.599998474121 270.399993896484
835936.399997711182 815706.599998474121 4.500030994415
835930.099998474121 815706.200000762939 270.399993896484
835930.099998474121 815706.200000762939 4.500030994415
835925.099998474121 815708.899997711182 270.399993896484
835925.099998474121 815708.899997711182 4.500030994415
835956.699996948242 815667.100000023842 279.399993896484
835956.899997711182 815664.200000047684 279.399993896484
835956.899997711182 815664.200000047684 270.399993896484
835956.699996948242 815667.100000023842 270.399993896484
835959.000000000000 815669.000000000000 279.399993896484
835959.000000000000 815669.000000000000 270.399993896484
835936.500000000000 815701.799999237061 279.400177001953
835936.500000000000 815701.799999237061 270.400177001953
835933.700000762939 815700.200000762939 279.399993896484
835933.700000762939 815700.200000762939 270.399993896484
835930.799999237061 815701.399997711182 279.399993896484
835930.799999237061 815701.399997711182 270.399993896484
835913.000000000000 815664.800000071526 279.399993896484
835913.000000000000 815664.800000071526 270.399993896484
835915.500000000000 815663.400000095367 279.399993896484
835915.500000000000 815663.400000095367 270.399993896484
835915.799999237061 815660.599999904633 279.399993896484
835915.799999237061 815660.599999904633 270.399993896484
835933.799999237061 815699.399997711182 288.399993896484
835956.000000000000 815667.399999976158 288.399993896484
835956.000000000000 815667.399999976158 279.399993896484
835933.799999237061 815699.399997711182 279.399993896484
835916.199998855591 815663.799999952316 288.399993896484
835916.199998855591 815663.799999952316 279.399993896484
835952.699996948242 815669.000000000000 297.399993896484
835919.199998855591 815665.900000005960 297.399993896484
835919.199998855591 815665.900000005960 288.399993896484
835952.699996948242 815669.000000000000 288.399993896484
835934.000000000000 815695.899999618530 297.399993896484
835934.000000000000 815695.899999618530 288.399993896484
835935.099998474121 815681.199999809265 309.399993896484
835931.799999237061 815674.599999427795 309.399993896484
835939.200000762939 815675.300000190735 309.399993896484
835939.500000000000 815675.699999809265 327.019287109375
835936.200000762939 815677.399999618530 332.776580810547
835935.599998474121 815676.199999809265 332.776580810547
835938.899997711182 815674.500000000000 327.019287109375
835938.799999237061 815676.000000000000 326.780700683594
835935.599998474121 815677.800000190735 332.338500976563
835938.200000762939 815674.899999618530 326.780700683594
835935.000000000000 815676.599999427795 332.338500976563
835939.500000000000 815675.699999809265 309.594177246094
835938.899997711182 815674.500000000000 309.579376220703
835938.799999237061 815676.000000000000 309.220611572266
835938.200000762939 815674.899999618530 309.205780029297
835962.000000000000 815664.500000000000 288.604278564453
835961.399997711182 815663.299999952316 288.568481445313
835961.299999237061 815664.800000071526 288.231506347656
835960.599998474121 815663.700000047684 288.195709228516
835962.199996948242 815665.000000000000 270.422576904297
835961.599998474121 815663.900000095367 270.375793457031
835961.500000000000 815665.400000035763 270.424285888672
835961.000000000000 815664.200000047684 270.377502441406
835931.799999237061 815674.599999427795 323.149993896484
835935.099998474121 815681.199999809265 323.149993896484
835935.099998474121 815681.199999809265 322.149993896484
835931.799999237061 815674.599999427795 322.149993896484
835939.200000762939 815675.300000190735 323.149993896484
835939.200000762939 815675.300000190735 322.149993896484
835933.000000000000 815675.399999618530 323.149993896484
835938.099998474121 815675.800000190735 323.149993896484
835938.099998474121 815675.800000190735 322.149993896484
835933.000000000000 815675.399999618530 322.149993896484
835935.200000762939 815679.899999618530 323.149993896484
835935.200000762939 815679.899999618530 322.149993896484
835936.200000762939 815677.000000000000 310.399993896484
835936.200000762939 815677.399999618530 310.399993896484
835936.200000762939 815677.399999618530 353.649993896484
835936.200000762939 815677.000000000000 353.649993896484
835935.799999237061 815677.699999809265 310.399993896484
835935.799999237061 815677.699999809265 353.649993896484
835935.399997711182 815677.800000190735 310.399993896484
835935.399997711182 815677.800000190735 353.649993896484
835935.000000000000 815677.699999809265 310.399993896484
835935.000000000000 815677.699999809265 353.649993896484
835934.700000762939 815677.399999618530 310.399993896484
835934.700000762939 815677.399999618530 353.649993896484
835934.599998474121 815677.000000000000 310.399993896484
835934.599998474121 815677.000000000000 353.649993896484
835934.700000762939 815676.599999427795 310.399993896484
835934.700000762939 815676.599999427795 353.649993896484
835935.000000000000 815676.300000190735 310.399993896484
835935.000000000000 815676.300000190735 353.649993896484
835935.399997711182 815676.199999809265 310.399993896484
835935.399997711182 815676.199999809265 353.649993896484
835935.799999237061 815676.300000190735 310.399993896484
835935.799999237061 815676.300000190735 353.649993896484
835936.200000762939 815676.599999427795 310.399993896484
835936.200000762939 815676.599999427795 353.649993896484
835936.000000000000 815677.000000000000 310.399993896484
835935.899997711182 815677.300000190735 310.399993896484
835935.700000762939 815677.399999618530 310.399993896484
835935.399997711182 815677.500000000000 310.399993896484
835935.200000762939 815677.399999618530 310.399993896484
835935.000000000000 815677.300000190735 310.399993896484
835934.899997711182 815677.000000000000 310.399993896484
835935.000000000000 815676.699999809265 310.399993896484
835935.200000762939 815676.599999427795 310.399993896484
835935.399997711182 815676.500000000000 310.399993896484
835935.700000762939 815676.599999427795 310.399993896484
835935.899997711182 815676.699999809265 310.399993896484
835935.700000762939 815677.000000000000 310.399993896484
835935.700000762939 815677.099999427795 310.399993896484
835935.599998474121 815677.199999809265 310.399993896484
835935.399997711182 815677.300000190735 310.399993896484
835935.299999237061 815677.199999809265 310.399993896484
835935.200000762939 815677.099999427795 310.399993896484
835935.200000762939 815677.000000000000 310.399993896484
835935.200000762939 815676.899999618530 310.399993896484
835935.299999237061 815676.800000190735 310.399993896484
835935.399997711182 815676.699999809265 310.399993896484
835935.599998474121 815676.800000190735 310.399993896484
835935.700000762939 815676.899999618530 310.399993896484
835935.399997711182 815677.000000000000 310.399993896484
835935.899997711182 815677.300000190735 353.649993896484
835936.000000000000 815677.000000000000 353.649993896484
835935.700000762939 815677.399999618530 353.649993896484
835935.399997711182 815677.500000000000 353.649993896484
835935.200000762939 815677.399999618530 353.649993896484
835935.000000000000 815677.300000190735 353.649993896484
835934.899997711182 815677.000000000000 353.649993896484
835935.000000000000 815676.699999809265 353.649993896484
835935.200000762939 815676.599999427795 353.649993896484
835935.399997711182 815676.500000000000 353.649993896484
835935.700000762939 815676.599999427795 353.649993896484
835935.899997711182 815676.699999809265 353.649993896484
835935.700000762939 815677.099999427795 353.649993896484
835935.700000762939 815677.000000000000 353.649993896484
835935.599998474121 815677.199999809265 353.649993896484
835935.399997711182 815677.300000190735 353.649993896484
835935.299999237061 815677.199999809265 353.649993896484
835935.200000762939 815677.099999427795 353.649993896484
835935.200000762939 815677.000000000000 353.649993896484
835935.200000762939 815676.899999618530 353.649993896484
835935.299999237061 815676.800000190735 353.649993896484
835935.399997711182 815676.699999809265 353.649993896484
835935.599998474121 815676.800000190735 353.649993896484
835935.700000762939 815676.899999618530 353.649993896484
835935.399997711182 815677.000000000000 353.649993896484
835931.799999237061 815674.599999427795 314.649993896484
835935.099998474121 815681.199999809265 314.649993896484
835935.099998474121 815681.199999809265 313.649993896484
835931.799999237061 815674.599999427795 313.649993896484
835939.200000762939 815675.300000190735 314.649993896484
835939.200000762939 815675.300000190735 313.649993896484
835933.000000000000 815675.399999618530 314.649993896484
835938.099998474121 815675.800000190735 314.649993896484
835938.099998474121 815675.800000190735 313.649993896484
835933.000000000000 815675.399999618530 313.649993896484
835935.200000762939 815679.899999618530 314.649993896484
835935.200000762939 815679.899999618530 313.649993896484
835931.799999237061 815674.599999427795 310.399993896484
835935.099998474121 815681.199999809265 310.399993896484
835931.799999237061 815674.599999427795 309.399993896484
835939.200000762939 815675.300000190735 310.399993896484
835933.000000000000 815675.399999618530 310.399993896484
835938.099998474121 815675.800000190735 310.399993896484
835938.099998474121 815675.800000190735 309.399993896484
835933.000000000000 815675.399999618530 309.399993896484
835935.200000762939 815679.899999618530 310.399993896484
835935.200000762939 815679.899999618530 309.399993896484
835931.799999237061 815674.599999427795 318.899993896484
835935.099998474121 815681.199999809265 318.899993896484
835935.099998474121 815681.199999809265 317.899993896484
835931.799999237061 815674.599999427795 317.899993896484
835939.200000762939 815675.300000190735 318.899993896484
835939.200000762939 815675.300000190735 317.899993896484
835933.000000000000 815675.399999618530 318.899993896484
835938.099998474121 815675.800000190735 318.899993896484
835938.099998474121 815675.800000190735 317.899993896484
835933.000000000000 815675.399999618530 317.899993896484
835935.200000762939 815679.899999618530 318.899993896484
835935.200000762939 815679.899999618530 317.899993896484
835931.799999237061 815674.599999427795 327.399993896484
835935.099998474121 815681.199999809265 327.399993896484
835935.099998474121 815681.199999809265 326.399993896484
835931.799999237061 815674.599999427795 326.399993896484
835939.200000762939 815675.300000190735 327.399993896484
835939.200000762939 815675.300000190735 326.399993896484
835933.000000000000 815675.399999618530 327.399993896484
835938.099998474121 815675.800000190735 327.399993896484
835938.099998474121 815675.800000190735 326.399993896484
835933.000000000000 815675.399999618530 326.399993896484
835935.200000762939 815679.899999618530 327.399993896484
835935.200000762939 815679.899999618530 326.399993896484
835932.399997711182 815673.899999618530 327.608886718750
835935.399997711182 815676.899999618530 332.863891601563
835934.799999237061 815677.399999618530 332.863891601563
835931.799999237061 815674.500000000000 327.608886718750
835933.299999237061 815674.800000190735 327.191101074219
835936.000000000000 815677.500000000000 332.118774414063
835932.700000762939 815675.399999618530 327.191101074219
835935.399997711182 815678.099999427795 332.118774414063
835932.399997711182 815673.899999618530 309.654479980469
835931.799999237061 815674.500000000000 309.721405029297
835933.299999237061 815674.699999809265 309.078582763672
835932.700000762939 815675.399999618530 309.145507812500
835919.899999618530 815665.400000035763 297.795104980469
835919.399999618530 815666.000000000000 297.913909912109
835920.399999618530 815666.000000000000 296.886077880859
835919.899999618530 815666.599999964237 297.004882812500
835910.899999618530 815659.800000190735 288.628387451172
835910.300000190735 815660.500000000000 288.706787109375
835911.799999237061 815660.700000286102 288.093200683594
835911.199999809265 815661.300000190735 288.171600341797
835910.899999618530 815659.800000190735 270.399993896484
835910.300000190735 815660.500000000000 270.399993896484
835911.799999237061 815660.700000286102 270.399993896484
835911.199999809265 815661.300000190735 270.399993896484
835934.399997711182 815681.599999427795 327.551086425781
835934.799999237061 815677.000000000000 332.755706787109
835936.099998474121 815677.099999427795 332.755706787109
835935.799999237061 815681.699999809265 327.551086425781
835934.500000000000 815680.799999237061 327.248901367188
835934.799999237061 815676.399999618530 332.226898193359
835935.799999237061 815680.899999618530 327.248901367188
835936.099998474121 815676.500000000000 332.226898193359
835934.399997711182 815681.599999427795 309.580688476563
835935.799999237061 815681.699999809265 309.594787597656
835934.500000000000 815680.799999237061 309.205078125000
835935.799999237061 815680.899999618530 309.219177246094
835933.200000762939 815706.899997711182 288.577697753906
835934.500000000000 815707.000000000000 288.590881347656
835933.299999237061 815706.099998474121 288.209106445313
835934.599998474121 815706.200000762939 288.222290039063
835933.200000762939 815706.500000000000 270.392211914063
835934.500000000000 815706.599998474121 270.390106201172
835933.299999237061 815705.700000762939 270.409881591797
835934.599998474121 815705.799999237061 270.407775878906
835934.599998474121 815700.099998474121 280.093109130859
835934.399997711182 815705.899997711182 279.906707763672
835933.399997711182 815705.799999237061 279.906707763672
835933.599998474121 815700.000000000000 280.093109130859
835934.599998474121 815700.000000000000 279.093597412109
835934.399997711182 815705.799999237061 278.907287597656
835933.599998474121 815700.000000000000 279.093597412109
835933.399997711182 815705.799999237061 278.907287597656
835933.000000000000 815706.899997711182 289.077606201172
835933.500000000000 815699.399997711182 288.899810791016
835934.000000000000 815699.399997711182 288.899810791016
835933.399997711182 815706.899997711182 289.077606201172
835933.000000000000 815706.899997711182 288.077880859375
835933.500000000000 815699.399997711182 287.900177001953
835933.399997711182 815706.899997711182 288.077880859375
835934.000000000000 815699.399997711182 287.900177001953
835955.799999237061 815666.899999976158 288.342681884766
835961.199996948242 815664.600000023842 288.156402587891
835961.599998474121 815665.500000000000 288.156402587891
835956.199996948242 815667.799999952316 288.342895507813
835955.799999237061 815667.000000000000 286.843383789063
835961.099998474121 815664.600000023842 286.657196044922
835956.199996948242 815667.799999952316 286.843688964844
835961.500000000000 815665.500000000000 286.657196044922
835956.599998474121 815666.599999964237 279.342681884766
835961.899997711182 815664.300000071526 279.156402587891
835962.299999237061 815665.200000047684 279.156402587891
835957.000000000000 815667.599999904633 279.342895507813
835956.599998474121 815666.599999964237 277.843383789063
835961.899997711182 815664.300000071526 277.657196044922
835957.000000000000 815667.599999904633 277.843688964844
835962.299999237061 815665.300000011921 277.657196044922
835911.399999618530 815660.099999904633 288.860809326172
835916.299999237061 815663.600000143051 288.899993896484
835916.100000381470 815664.000000000000 288.899993896484
835911.199999809265 815660.500000000000 288.860809326172
835911.399999618530 815660.099999904633 287.860809326172
835916.299999237061 815663.600000143051 287.899993896484
835911.199999809265 815660.500000000000 287.860809326172
835916.100000381470 815664.000000000000 287.899993896484
835910.599999427795 815660.200000286102 279.593109130859
835915.600000381470 815663.200000047684 279.406707763672
835915.399999618530 815663.700000047684 279.406707763672
835910.399999618530 815660.599999904633 279.593109130859
835910.599999427795 815660.200000286102 278.593597412109
835915.600000381470 815663.200000047684 278.407287597656
835910.300000190735 815660.599999904633 278.593597412109
835915.399999618530 815663.600000143051 278.407287597656
3 0 1 2
3 2 3 0
3 4 0 3
3 3 5 4
3 6 4 5
3 5 7 6
3 8 6 7
3 7 9 8
3 10 8 9
3 9 11 10
3 12 10 11
3 11 13 12
3 14 12 13
3 13 15 14
3 16 14 15
3 15 17 16
3 18 16 17
3 17 19 18
3 20 18 19
3 19 21 20
3 22 20 21
3 21 23 22
3 24 22 23
3 23 25 24
3 26 24 25
3 25 27 26
3 1 26 27
3 27 2 1
3 3 2 27
3 5 3 27
3 25 23 21
3 25 21 19
3 25 19 17
3 17 15 13
3 17 13 11
3 25 17 11
3 27 25 11
3 27 11 9
3 5 27 9
3 5 9 7
3 4 6 8
3 12 14 16
3 10 12 16
3 20 22 24
3 18 20 24
3 16 18 24
3 10 16 24
3 10 24 26
3 8 10 26
3 4 8 26
3 26 1 0
3 4 26 0
3 28 29 30
3 30 31 28
3 32 28 31
3 31 33 32
3 34 32 33
3 33 35 34
3 36 34 35
3 35 37 36
3 38 36 37
3 37 39 38
3 40 38 39
3 39 41 40
3 42 40 41
3 41 43 42
3 44 42 43
3 43 45 44
3 46 44 45
3 45 47 46
3 48 46 47
3 47 49 48
3 50 48 49
3 49 51 50
3 29 50 51
3 51 30 29
3 30 51 49
3 31 30 49
3 47 45 43
3 47 43 41
3 47 41 39
3 49 47 39
3 31 49 39
3 33 31 39
3 35 33 39
3 35 39 37
3 34 36 38
3 42 44 46
3 40 42 46
3 38 40 46
3 38 46 48
3 48 50 29
3 48 29 28
3 38 48 28
3 38 28 32
3 34 38 32
3 52 53 54
3 54 55 52
3 56 52 55
3 55 57 56
3 58 56 57
3 57 59 58
3 60 58 59
3 59 61 60
3 62 60 61
3 61 63 62
3 64 62 63
3 63 65 64
3 66 64 65
3 65 67 66
3 68 66 67
3 67 69 68
3 53 68 69
3 69 54 53
3 59 57 55
3 61 59 55
3 63 61 55
3 54 69 67
3 55 54 67
3 63 55 67
3 63 67 65
3 62 64 66
3 66 68 53
3 66 53 52
3 62 66 52
3 52 56 58
3 52 58 60
3 62 52 60
3 70 71 72
3 72 73 70
3 74 70 73
3 73 75 74
3 71 74 75
3 75 72 71
3 73 72 75
3 70 74 71
3 76 77 78
3 78 79 76
3 80 76 79
3 79 81 80
3 77 80 81
3 81 78 77
3 81 79 78
3 82 83 84
3 77 76 84
3 84 83 77
3 76 80 82
3 82 84 76
3 80 77 83
3 83 82 80
3 85 86 87
3 87 88 85
3 89 90 86
3 86 85 89
3 91 92 90
3 90 89 91
3 88 87 92
3 92 91 88
3 93 85 88
3 88 94 93
3 95 89 85
3 85 93 95
3 96 91 89
3 89 95 96
3 94 88 91
3 91 96 94
3 97 93 94
3 94 98 97
3 99 95 93
3 93 97 99
3 100 96 95
3 95 99 100
3 98 94 96
3 96 100 98
3 101 97 98
3 98 102 101
3 103 99 97
3 97 101 103
3 104 100 99
3 99 103 104
3 102 98 100
3 100 104 102
3 90 92 87
3 87 86 90
3 103 101 102
3 104 103 102
3 105 106 107
3 107 108 105
3 109 105 108
3 108 110 109
3 106 109 110
3 110 107 106
3 111 112 113
3 113 114 111
3 115 111 114
3 114 116 115
3 112 115 116
3 116 113 112
3 116 114 107
3 108 107 114
3 108 114 113
3 110 108 113
3 107 110 113
3 116 107 113
3 111 106 105
3 112 111 105
3 112 105 109
3 112 109 106
3 115 112 106
3 115 106 111
3 117 118 119
3 119 120 117
3 118 121 122
3 122 119 118
3 121 123 124
3 124 122 121
3 123 125 126
3 126 124 123
3 125 127 128
3 128 126 125
3 127 129 130
3 130 128 127
3 129 131 132
3 132 130 129
3 131 133 134
3 134 132 131
3 133 135 136
3 136 134 133
3 135 137 138
3 138 136 135
3 137 139 140
3 140 138 137
3 139 117 120
3 120 140 139
3 118 117 141
3 141 142 118
3 121 118 142
3 142 143 121
3 123 121 143
3 143 144 123
3 125 123 144
3 144 145 125
3 127 125 145
3 145 146 127
3 129 127 146
3 146 147 129
3 131 129 147
3 147 148 131
3 133 131 148
3 148 149 133
3 135 133 149
3 149 150 135
3 137 135 150
3 150 151 137
3 139 137 151
3 151 152 139
3 117 139 152
3 152 141 117
3 142 141 153
3 153 154 142
3 143 142 154
3 154 155 143
3 144 143 155
3 155 156 144
3 145 144 156
3 156 157 145
3 146 145 157
3 157 158 146
3 147 146 158
3 158 159 147
3 148 147 159
3 159 160 148
3 149 148 160
3 160 161 149
3 150 149 161
3 161 162 150
3 151 150 162
3 162 163 151
3 152 151 163
3 163 164 152
3 141 152 164
3 164 153 141
3 154 153 165
3 155 154 165
3 156 155 165
3 157 156 165
3 158 157 165
3 159 158 165
3 160 159 165
3 161 160 165
3 162 161 165
3 163 162 165
3 164 163 165
3 153 164 165
3 120 119 166
3 166 167 120
3 119 122 168
3 168 166 119
3 122 124 169
3 169 168 122
3 124 126 170
3 170 169 124
3 126 128 171
3 171 170 126
3 128 130 172
3 172 171 128
3 130 132 173
3 173 172 130
3 132 134 174
3 174 173 132
3 134 136 175
3 175 174 134
3 136 138 176
3 176 175 136
3 138 140 177
3 177 176 138
3 140 120 167
3 167 177 140
3 167 166 178
3 178 179 167
3 166 168 180
3 180 178 166
3 168 169 181
3 181 180 168
3 169 170 182
3 182 181 169
3 170 171 183
3 183 182 170
3 171 172 184
3 184 183 171
3 172 173 185
3 185 184 172
3 173 174 186
3 186 185 173
3 174 175 187
3 187 186 174
3 175 176 188
3 188 187 175
3 176 177 189
3 189 188 176
3 177 167 179
3 179 189 177
3 179 178 190
3 178 180 190
3 180 181 190
3 181 182 190
3 182 183 190
3 183 184 190
3 184 185 190
3 185 186 190
3 186 187 190
3 187 188 190
3 188 189 190
3 189 179 190
3 191 192 193
3 193 194 191
3 195 191 194
3 194 196 195
3 192 195 196
3 196 193 192
3 197 198 199
3 199 200 197
3 201 197 200
3 200 202 201
3 198 201 202
3 202 199 198
3 202 200 193
3 194 193 200
3 194 200 199
3 196 194 199
3 193 196 199
3 202 193 199
3 197 192 191
3 198 197 191
3 198 191 195
3 198 195 192
3 201 198 192
3 201 192 197
3 203 204 82
3 82 205 203
3 206 203 205
3 205 84 206
3 204 206 84
3 84 82 204
3 207 208 209
3 209 210 207
3 211 207 210
3 210 212 211
3 208 211 212
3 212 209 208
3 212 210 82
3 205 82 210
3 205 210 209
3 84 205 209
3 82 84 209
3 212 82 209
3 207 204 203
3 208 207 203
3 208 203 206
3 208 206 204
3 211 208 204
3 211 204 207
3 213 214 215
3 215 216 213
3 217 213 216
3 216 218 217
3 214 217 218
3 218 215 214
3 219 220 221
3 221 222 219
3 223 219 222
3 222 224 223
3 220 223 224
3 224 221 220
3 224 222 215
3 216 215 222
3 216 222 221
3 218 216 221
3 215 218 221
3 224 215 221
3 219 214 213
3 220 219 213
3 220 213 217
3 220 217 214
3 223 220 214
3 223 214 219
3 225 226 227
3 227 228 225
3 229 225 228
3 228 230 229
3 226 229 230
3 230 227 226
3 231 232 233
3 233 234 231
3 235 231 234
3 234 236 235
3 232 235 236
3 236 233 232
3 236 234 227
3 228 227 234
3 228 234 233
3 230 228 233
3 227 230 233
3 236 227 233
3 231 226 225
3 232 231 225
3 232 225 229
3 232 229 226
3 235 232 226
3 235 226 231
3 237 238 239
3 239 240 237
3 241 242 238
3 238 237 241
3 243 244 242
3 242 241 243
3 240 239 244
3 244 243 240
3 245 237 240
3 240 246 245
3 247 241 237
3 237 245 247
3 248 243 241
3 241 247 248
3 246 240 243
3 243 248 246
3 249 245 246
3 246 250 249
3 251 247 245
3 245 249 251
3 252 248 247
3 247 251 252
3 250 246 248
3 248 252 250
3 253 249 250
3 250 254 253
3 255 251 249
3 249 253 255
3 256 252 251
3 251 255 256
3 254 250 252
3 252 256 254
3 257 253 254
3 254 258 257
3 259 255 253
3 253 257 259
3 260 256 255
3 255 259 260
3 258 254 256
3 256 260 258
3 242 244 239
3 239 238 242
3 259 257 258
3 260 259 258
3 261 262 263
3 263 264 261
3 265 266 262
3 262 261 265
3 267 268 266
3 266 265 267
3 264 263 268
3 268 267 264
3 269 261 264
3 264 270 269
3 271 265 261
3 261 269 271
3 272 267 265
3 265 271 272
3 270 264 267
3 267 272 270
3 273 269 270
3 270 274 273
3 275 271 269
3 269 273 275
3 276 272 271
3 271 275 276
3 274 270 272
3 272 276 274
3 277 273 274
3 274 278 277
3 279 275 273
3 273 277 279
3 280 276 275
3 275 279 280
3 278 274 276
3 276 280 278
3 266 268 263
3 263 262 266
3 279 277 278
3 280 279 278
3 281 282 283
3 283 284 281
3 285 286 282
3 282 281 285
3 287 288 286
3 286 285 287
3 284 283 288
3 288 287 284
3 286 288 283
3 283 282 286
3 285 281 284
3 287 285 284
3 289 290 291
3 291 292 289
3 293 294 290
3 290 289 293
3 295 296 294
3 294 293 295
3 292 291 296
3 296 295 292
3 294 296 291
3 291 290 294
3 293 289 292
3 295 293 292
3 297 298 299
3 299 300 297
3 301 302 298
3 298 297 301
3 303 304 302
3 302 301 303
3 300 299 304
3 304 303 300
3 302 304 299
3 299 298 302
3 301 297 300
3 303 301 300
3 305 306 307
3 307 308 305
3 309 310 306
3 306 305 309
3 311 312 310
3 310 309 311
3 308 307 312
3 312 311 308
3 310 312 307
3 307 306 310
3 309 305 308
3 311 309 308
3 313 314 315
3 315 316 313
3 317 318 314
3 314 313 317
3 319 320 318
3 318 317 319
3 316 315 320
3 320 319 316
3 318 320 315
3 315 314 318
3 317 313 316
3 319 317 316
3 321 322 323
3 323 324 321
3 325 326 322
3 322 321 325
3 327 328 326
3 326 325 327
3 324 323 328
3 328 327 324
3 326 328 323
3 323 322 326
3 325 321 324
3 327 325 324
