OFF
135 120 0

1.65 12.35 -174.675
1.65 12.35 91.325
21.562 1.59753 -174.675
21.562 1.59753 91.325
7.02143 9.44944 91.325
5.14573 10.4623 91.325
-16.6316 -32.9089 -174.675
-16.35 -35.95 -174.675
-18.1932 -16.0434 -174.675
-18.1932 -16.0434 -148.575
-18.1932 -16.0434 91.325
-16.7428 -31.7082 91.325
-16.6316 -32.9089 91.325
-16.35 -35.95 91.325
-12.25 -30.05 91.325
27.55 -26.45 91.325
5.35 5.55 91.325
-13.8855 -33.3582 91.325
-16.106 -30.3988 91.325
2.85918 8.59696 91.325
3.09992 8.79336 91.325
7.17043 9.23223 91.325
31.4082 -26.101 91.325
29.6944 -29.541 91.325
-22.4074 -24.8713 -174.675
-22.4074 -24.8713 -148.575
-8.0712 5.1601 -174.675
-8.0712 5.1601 -148.575
-34.4298 -18.8601 -148.575
-26.4904 -22.8298 -148.575
-12.25 7.15 -148.575
-20.25 10.9595 -148.575
27.55 -26.45 100.325
29.6944 -29.541 100.325
-14.2334 -34.0618 91.325
-26.45 -22.85 -174.675
-26.45 -22.85 -148.575
5.35 5.55 100.325
3.09992 8.79336 100.325
7.17043 9.23223 100.325
6.93631 -16.7727 133.719
24.2484 -24.8477 118.325
5.55137 2.04804 118.325
34.55 -26.95 91.325
34.55 -26.95 -174.675
13.6357 13.111 -174.675
32.55 -31.35 -174.675
13.6357 13.111 91.325
32.55 -31.35 91.325
-10.1354 11.6017 -174.675
-17.7768 -33.8344 91.325
-17.7768 -33.8344 -174.675
-9.24702 -27.944 118.335
5.55 2.05 118.322
-9.25 -27.95 118.326
24.25 -24.85 118.321
-11.6038 6.84231 -174.675
-11.6038 6.84231 -148.575
-9.19426 11.6615 -148.575
-9.19426 11.6615 -174.675
-27.4501 -24.8502 -174.675
-27.4501 -24.8502 -148.575
-23.3443 -26.8339 -148.575
-23.3443 -26.8339 -174.675
-28.5551 -27.1764 -174.675
-28.5551 -27.1764 -148.575
-10.1354 11.6017 -148.575
27.55 -26.45 109.325
26.3079 -24.6596 109.325
6.47597 3.92697 109.325
5.35 5.55 109.325
-36.6976 9.91525 -148.575
-33.98 -24.5683 -148.575
-24.45 -29.15 -148.575
-4.83549 11.9382 -148.575
-12.65 28.05 -148.575
-12.65 28.05 -174.675
-6.55 19.15 -174.675
-6.55 19.15 -148.575
5.55 2.05 109.325
24.25 -24.85 109.325
-9.25 -27.95 109.325
-11.3059 -28.1402 109.325
-25.15 27.15 -148.575
-24.8406 26.6549 -148.575
-25.15 27.15 -174.675
-24.8406 26.6549 -174.675
31.4082 -26.101 100.325
-16.106 -30.3988 100.325
32.1953 -26.0298 91.325
-12.25 -30.05 100.325
-12.25 -30.05 109.325
-19.25 -31.65 -174.675
-19.25 -31.65 91.325
7.95 12.75 -174.675
11.75 15.85 -174.675
11.75 15.85 91.325
7.95 12.75 91.325
-3.35 15.05 91.325
-3.35 15.05 -148.575
-3.35 15.05 -174.675
-25.686 27.1114 -148.575
-25.686 27.1114 -174.675
2.85918 8.59696 100.325
32.4135 -29.3028 91.325
-15.4177 -33.4924 91.325
29.7017 -37.6163 91.325
-12.3558 -3.81527 91.325
-7.4467 17.2622 -174.675
-7.4467 17.2622 -148.575
-33.98 -24.5683 -174.675
-38.6024 34.0863 -148.575
39.15 -23.95 91.325
39.15 -23.95 -174.675
32.3522 -28.3833 -174.675
32.3522 -28.3833 91.325
-24.45 -29.15 -174.675
-24.45 -29.15 91.325
-1.51757 -40.1752 -174.675
-39.1512 41.0499 -148.575
-1.51757 -40.1752 91.325
-39.1512 41.0499 -174.675
-34.0333 41.3633 -174.675
-34.0333 41.3633 -148.575
-38.6024 34.0863 -174.675
31.2961 -12.5418 91.325
-13.8855 -33.3582 100.325
-15.85 -41.35 91.325
32.95 -37.35 -174.675
31.2961 -12.5418 -174.675
-4.83549 11.9382 91.325
-15.85 -41.35 -174.675
-36.6976 9.91525 -174.675
32.95 -37.35 91.325
-4.83549 11.9382 -174.675
4  45 2 3 47  204 0 255
3  45 95 94  204 0 255
4  134 100 99 74  255 0 0
11  134 26 8 6 118 128 46 114 129 2 0  255 0 0
6  47 3 4 5 1 97  204 0 255
4  47 96 95 45  204 0 255
3  130 98 1  255 0 0
6  130 107 10 9 27 74  255 0 0
4  130 74 99 98  255 0 0
4  134 74 27 26  255 0 0
3  134 0 100  255 0 0
4  45 94 0 2  204 0 255
6  130 1 5 20 19 107  255 0 0
3  47 97 96  204 0 255
4  129 113 112 125  255 0 0
3  133 106 48  255 0 0
5  128 118 120 106 133  255 0 0
5  125 112 43 115 89  255 0 0
4  125 3 2 129  255 0 0
6  125 89 22 21 4 3  255 0 0
4  129 114 44 113  255 0 0
4  133 48 46 128  255 0 0
4  118 131 127 120  255 0 0
5  117 10 11 12 93  0 102 255
4  116 63 62 73  0 102 255
6  120 127 13 12 105 34  255 0 0
7  120 34 17 23 104 48 106  255 0 0
6  117 73 62 25 9 10  0 102 255
6  116 92 6 8 24 63  0 102 255
4  118 6 7 131  255 0 0
5  117 93 92 116 73  0 102 255
4  6 92 51 7  0 102 255
4  12 13 50 93  0 102 255
4  131 7 13 127  255 0 0
4  132 124 111 71  203 255 0
5  132 110 64 60 49  203 255 0
6  132 49 108 86 102 124  203 255 0
5  132 71 28 72 110  203 255 0
4  124 121 119 111  203 255 0
5  124 102 85 122 121  203 255 0
7  71 111 101 84 109 66 31  203 255 0
6  115 104 23 15 22 89  255 0 0
3  114 46 44  255 0 0
4  115 43 48 104  255 0 0
4  113 44 43 112  255 0 0
5  111 119 123 83 101  203 255 0
4  110 72 65 64  203 255 0
5  109 84 83 75 78  203 255 0
5  108 77 76 85 86  203 255 0
4  109 78 77 108  203 255 0
5  10 107 19 18 11  255 0 0
6  12 11 18 14 17 105  255 0 0
5  5 4 21 16 20  255 0 0
3  105 17 34  255 0 0
4  19 20 38 103  0 255 102
5  103 38 37 90 88  0 255 102
4  103 88 18 19  0 255 102
3  102 86 85  203 255 0
3  101 83 84  203 255 0
4  0 94 97 1  204 0 255
5  1 98 99 100 0  255 0 0
4  97 94 95 96  204 0 255
4  13 7 51 50  0 102 255
4  93 50 51 92  0 102 255
4  85 76 75 83  203 255 0
4  83 123 122 85  203 255 0
6  91 82 81 80 68 67  0 255 102
4  91 67 32 90  0 255 102
5  70 69 79 81 82  0 255 102
4  87 32 37 39  0 255 102
4  90 32 33 126  0 255 102
5  91 90 37 70 82  0 255 102
4  88 90 14 18  0 255 102
4  22 15 32 87  0 255 102
4  87 39 21 22  0 255 102
4  68 80 79 69  0 255 102
4  81 54 55 80  0 255 102
5  81 79 53 52 54  0 255 102
6  80 55 41 42 53 79  0 255 102
4  78 75 76 77  203 255 0
5  72 28 29 61 65  203 255 0
5  71 31 30 29 28  203 255 0
6  70 37 32 67 68 69  0 255 102
7  66 58 57 36 61 29 30  203 255 0
4  49 59 58 66  203 255 0
5  49 60 35 56 59  203 255 0
3  66 30 31  203 255 0
4  65 61 60 64  203 255 0
4  63 24 25 62  0 102 255
4  61 36 35 60  203 255 0
4  59 56 57 58  203 255 0
5  56 35 24 8 26  203 255 0
5  27 9 25 36 57  203 255 0
4  57 56 26 27  203 255 0
5  55 54 52 40 41  0 255 102
4  53 42 40 52  0 255 102
4  66 109 108 49  203 255 0
4  48 43 44 46  255 0 0
3  41 40 42  0 255 102
4  126 33 23 17  0 255 102
4  126 17 14 90  0 255 102
4  123 119 121 122  203 255 0
4  39 37 16 21  0 255 102
4  38 20 16 37  0 255 102
4  36 25 24 35  203 255 0
4  33 32 15 23  0 255 102
4  27 9 8 26  255 0 0
4  25 9 8 24  203 255 0
4  27 26 8 9  203 255 0
4  24 8 9 25  0 102 255
4  23 17 14 15  255 0 0
4  17 23 15 14  0 255 102
4  22 15 16 21  255 0 0
4  15 22 21 16  0 255 102
6  20 16 15 14 18 19  255 0 0
6  16 20 19 18 14 15  0 255 102
8  13 7 6 8 9 10 11 12  255 0 0
8  7 13 12 11 10 9 8 6  0 102 255
6  5 1 0 2 3 4  255 0 0
6  1 5 4 3 2 0  204 0 255

