OFF
132 102 0

-34.4298 -18.8601 -148.575
-26.4904 -22.8298 -148.575
-12.25 7.15 -148.575
-20.25 10.9595 -148.575
27.55 -26.45 100.325
27.55 -26.45 91.325
29.6944 -29.541 91.325
29.6944 -29.541 100.325
-14.2334 -34.0618 91.325
-13.8855 -33.3582 91.325
-22.4074 -24.8713 -148.575
-22.4074 -24.8713 -174.675
-26.45 -22.85 -174.675
-26.45 -22.85 -148.575
3.09992 8.79336 91.325
5.35 5.55 91.325
5.35 5.55 100.325
3.09992 8.79336 100.325
7.17043 9.23223 91.325
7.17043 9.23223 100.325
-39.1512 41.0499 -148.575
-39.1512 41.0499 -174.675
-34.0333 41.3633 -174.675
-34.0333 41.3633 -148.575
24.2484 -24.8477 118.325
6.93631 -16.7727 133.719
5.55137 2.04804 118.325
34.55 -26.95 91.325
34.55 -26.95 -174.675
32.55 -31.35 -174.675
32.55 -31.35 91.325
-7.4467 17.2622 -148.575
-7.4467 17.2622 -174.675
-10.1354 11.6017 -174.675
-10.1354 11.6017 -148.575
-17.7768 -33.8344 91.325
-17.7768 -33.8344 -174.675
-9.24702 -27.944 118.335
5.55 2.05 118.322
-9.25 -27.95 118.326
24.25 -24.85 118.321
-11.6038 6.84231 -174.675
-8.0712 5.1601 -174.675
-8.0712 5.1601 -148.575
-11.6038 6.84231 -148.575
-9.19426 11.6615 -148.575
-9.19426 11.6615 -174.675
-27.4501 -24.8502 -174.675
-27.4501 -24.8502 -148.575
-23.3443 -26.8339 -148.575
-23.3443 -26.8339 -174.675
-28.5551 -27.1764 -174.675
-28.5551 -27.1764 -148.575
27.55 -26.45 109.325
26.3079 -24.6596 109.325
6.47597 3.92697 109.325
5.35 5.55 109.325
-36.6976 9.91525 -148.575
-33.98 -24.5683 -148.575
-24.45 -29.15 -148.575
-4.83549 11.9382 -148.575
-12.65 28.05 -148.575
-12.65 28.05 -174.675
-6.55 19.15 -174.675
-6.55 19.15 -148.575
5.55 2.05 109.325
24.25 -24.85 109.325
-9.25 -27.95 109.325
-11.3059 -28.1402 109.325
-25.15 27.15 -148.575
-24.8406 26.6549 -148.575
-25.15 27.15 -174.675
-24.8406 26.6549 -174.675
31.4082 -26.101 91.325
31.4082 -26.101 100.325
7.02143 9.44944 91.325
-16.106 -30.3988 91.325
-16.106 -30.3988 100.325
32.1953 -26.0298 91.325
-12.25 -30.05 100.325
-12.25 -30.05 109.325
-16.35 -35.95 -174.675
-19.25 -31.65 -174.675
-19.25 -31.65 91.325
-16.35 -35.95 91.325
-24.45 -29.15 -174.675
-24.45 -29.15 91.325
-1.51757 -40.1752 -174.675
-25.686 27.1114 -148.575
-25.686 27.1114 -174.675
13.6357 13.111 -174.675
13.6357 13.111 91.325
2.85918 8.59696 91.325
-15.4177 -33.4924 91.325
29.7017 -37.6163 91.325
5.14573 10.4623 91.325
-12.3558 -3.81527 91.325
-18.1932 -16.0434 91.325
-16.6316 -32.9089 91.325
1.65 12.35 91.325
21.562 1.59753 91.325
-33.98 -24.5683 -174.675
-38.6024 34.0863 -148.575
39.15 -23.95 91.325
39.15 -23.95 -174.675
32.3522 -28.3833 -174.675
32.3522 -28.3833 91.325
-3.35 15.05 -148.575
-1.51757 -40.1752 91.325
7.95 12.75 -174.675
11.75 15.85 -174.675
-38.6024 34.0863 -174.675
11.75 15.85 91.325
7.95 12.75 91.325
-3.35 15.05 -174.675
-3.35 15.05 91.325
32.95 -37.35 -174.675
32.95 -37.35 91.325
-12.25 -30.05 91.325
-36.6976 9.91525 -174.675
31.2961 -12.5418 -174.675
-13.8855 -33.3582 100.325
31.2961 -12.5418 91.325
-4.83549 11.9382 91.325
1.65 12.35 -174.675
-15.85 -41.35 -174.675
-15.85 -41.35 91.325
-16.6316 -32.9089 -174.675
-4.83549 11.9382 -174.675
2.85918 8.59696 100.325
-16.7428 -31.7082 91.325
32.4135 -29.3028 91.325
5  90 120 122 100 91  255 0 0
3  90 110 109  255 0 0
4  128 114 107 60  255 0 0
15  128 42 11 50 85 82 127 87 116 29 105 120 90 109 124  255 0 0
6  91 100 75 95 99 113  255 0 0
4  91 112 110 90  255 0 0
3  123 115 99  255 0 0
9  123 96 97 86 59 49 10 43 60  255 0 0
4  123 60 107 115  255 0 0
4  128 60 43 42  255 0 0
3  128 124 114  255 0 0
6  123 99 95 14 92 96  255 0 0
3  91 113 112  255 0 0
4  120 104 103 122  255 0 0
3  117 94 30  255 0 0
5  116 87 108 94 117  255 0 0
5  122 103 27 106 78  255 0 0
6  122 78 73 18 75 100  255 0 0
4  120 105 28 104  255 0 0
4  117 30 29 116  255 0 0
4  87 125 126 108  255 0 0
5  86 97 130 98 83  255 0 0
4  85 50 49 59  255 0 0
6  108 126 84 98 93 8  255 0 0
7  108 8 9 6 131 30 94  255 0 0
4  87 127 81 125  255 0 0
5  86 83 82 85 59  255 0 0
4  127 82 36 81  255 0 0
4  98 84 35 83  255 0 0
4  125 81 84 126  255 0 0
4  119 111 102 57  255 0 0
5  119 101 51 47 33  255 0 0
6  119 33 32 72 89 111  255 0 0
5  119 57 0 58 101  255 0 0
4  111 21 20 102  255 0 0
5  111 89 71 22 21  255 0 0
7  57 102 88 70 31 34 3  255 0 0
6  106 131 6 5 73 78  255 0 0
3  105 29 28  255 0 0
4  106 27 30 131  255 0 0
4  104 28 27 103  255 0 0
5  102 20 23 69 88  255 0 0
4  101 58 52 51  255 0 0
5  31 70 69 61 64  255 0 0
5  32 63 62 71 72  255 0 0
4  31 64 63 32  255 0 0
5  97 96 92 76 130  255 0 0
6  98 130 76 118 9 93  255 0 0
5  95 75 18 15 14  255 0 0
3  93 9 8  255 0 0
4  92 14 17 129  255 0 0
5  129 17 16 79 77  255 0 0
4  129 77 76 92  255 0 0
3  89 72 71  255 0 0
3  88 69 70  255 0 0
4  124 109 113 99  255 0 0
5  99 115 107 114 124  255 0 0
4  113 109 110 112  255 0 0
4  84 81 36 35  255 0 0
4  83 35 36 82  255 0 0
4  71 62 61 69  255 0 0
4  69 23 22 71  255 0 0
6  80 68 67 66 54 53  255 0 0
4  80 53 4 79  255 0 0
5  56 55 65 67 68  255 0 0
4  74 4 16 19  255 0 0
4  79 4 7 121  255 0 0
5  80 79 16 56 68  255 0 0
4  77 79 118 76  255 0 0
4  73 5 4 74  255 0 0
4  74 19 18 73  255 0 0
4  54 66 65 55  255 0 0
4  67 39 40 66  255 0 0
5  67 65 38 37 39  255 0 0
6  66 40 24 26 38 65  255 0 0
4  64 61 62 63  255 0 0
5  58 0 1 48 52  255 0 0
5  57 3 2 1 0  255 0 0
6  56 16 4 53 54 55  255 0 0
7  34 45 44 13 48 1 2  255 0 0
4  33 46 45 34  255 0 0
5  33 47 12 41 46  255 0 0
3  34 2 3  255 0 0
4  52 48 47 51  255 0 0
4  50 11 10 49  255 0 0
4  48 13 12 47  255 0 0
4  46 41 44 45  255 0 0
4  41 12 11 42  255 0 0
4  43 10 13 44  255 0 0
4  44 41 42 43  255 0 0
5  40 39 37 25 24  255 0 0
4  38 26 25 37  255 0 0
4  34 31 32 33  255 0 0
4  30 27 28 29  255 0 0
3  24 25 26  255 0 0
4  121 7 6 9  255 0 0
4  121 9 118 79  255 0 0
4  23 20 21 22  255 0 0
4  19 16 15 18  255 0 0
4  17 14 15 16  255 0 0
4  13 10 11 12  255 0 0
4  7 4 5 6  255 0 0

