OFF
132 102 0

-26.4904 -22.8298 -148.575
-34.4298 -18.8601 -148.575
-12.25 7.15 -148.575
27.55 -26.45 100.325
27.55 -26.45 91.325
29.6944 -29.541 91.325
29.6944 -29.541 100.325
-20.25 10.9595 -148.575
-14.2334 -34.0618 91.325
-13.8855 -33.3582 91.325
-22.4074 -24.8713 -148.575
-22.4074 -24.8713 -174.675
-26.45 -22.85 -174.675
-26.45 -22.85 -148.575
3.09992 8.79336 91.325
5.35 5.55 91.325
5.35 5.55 100.325
3.09992 8.79336 100.325
7.17043 9.23223 91.325
-34.0333 41.3633 -174.675
-34.0333 41.3633 -148.575
-39.1512 41.0499 -174.675
32.3522 -28.3833 -174.675
-12.25 -30.05 100.325
-36.6976 9.91525 -148.575
-13.8855 -33.3582 100.325
-3.35 15.05 -148.575
-28.5551 -27.1764 -148.575
-12.25 -30.05 91.325
5.55137 2.04804 118.325
24.2484 -24.8477 118.325
34.55 -26.95 -174.675
32.55 -31.35 91.325
1.65 12.35 91.325
34.55 -26.95 91.325
-16.6316 -32.9089 -174.675
32.55 -31.35 -174.675
-10.1354 11.6017 -174.675
-10.1354 11.6017 -148.575
-7.4467 17.2622 -148.575
-17.7768 -33.8344 91.325
-17.7768 -33.8344 -174.675
-9.24702 -27.944 118.335
5.55 2.05 118.322
-9.25 -27.95 118.326
24.25 -24.85 118.321
-8.0712 5.1601 -174.675
-11.6038 6.84231 -148.575
-12.25 -30.05 109.325
-8.0712 5.1601 -148.575
-18.1932 -16.0434 91.325
-11.6038 6.84231 -174.675
-9.19426 11.6615 -148.575
7.17043 9.23223 100.325
-27.4501 -24.8502 -174.675
-27.4501 -24.8502 -148.575
32.3522 -28.3833 91.325
-39.1512 41.0499 -148.575
-9.19426 11.6615 -174.675
21.562 1.59753 91.325
-23.3443 -26.8339 -148.575
-23.3443 -26.8339 -174.675
-38.6024 34.0863 -148.575
-4.83549 11.9382 -148.575
31.2961 -12.5418 -174.675
-19.25 -31.65 91.325
-4.83549 11.9382 91.325
7.95 12.75 -174.675
-36.6976 9.91525 -174.675
27.55 -26.45 109.325
6.47597 3.92697 109.325
31.4082 -26.101 100.325
-16.106 -30.3988 91.325
-33.98 -24.5683 -148.575
-7.4467 17.2622 -174.675
31.2961 -12.5418 91.325
-24.45 -29.15 -148.575
-12.65 28.05 -174.675
-6.55 19.15 -174.675
-25.15 27.15 -174.675
-6.55 19.15 -148.575
-12.65 28.05 -148.575
-28.5551 -27.1764 -174.675
5.55 2.05 109.325
6.93631 -16.7727 133.719
-38.6024 34.0863 -174.675
-16.35 -35.95 91.325
24.25 -24.85 109.325
-9.25 -27.95 109.325
-11.3059 -28.1402 109.325
26.3079 -24.6596 109.325
-25.15 27.15 -148.575
-24.8406 26.6549 -148.575
2.85918 8.59696 91.325
-24.8406 26.6549 -174.675
-16.6316 -32.9089 91.325
-24.45 -29.15 -174.675
31.4082 -26.101 91.325
7.02143 9.44944 91.325
-16.106 -30.3988 100.325
32.95 -37.35 91.325
32.1953 -26.0298 91.325
5.35 5.55 109.325
-16.35 -35.95 -174.675
-24.45 -29.15 91.325
13.6357 13.111 -174.675
11.75 15.85 -174.675
-3.35 15.05 91.325
13.6357 13.111 91.325
-19.25 -31.65 -174.675
7.95 12.75 91.325
-4.83549 11.9382 -174.675
11.75 15.85 91.325
-15.85 -41.35 -174.675
1.65 12.35 -174.675
5.14573 10.4623 91.325
-33.98 -24.5683 -174.675
-25.686 27.1114 -174.675
-16.7428 -31.7082 91.325
2.85918 8.59696 100.325
32.4135 -29.3028 91.325
-15.4177 -33.4924 91.325
29.7017 -37.6163 91.325
-15.85 -41.35 91.325
-12.3558 -3.81527 91.325
-25.686 27.1114 -148.575
39.15 -23.95 -174.675
39.15 -23.95 91.325
-3.35 15.05 -174.675
-1.51757 -40.1752 91.325
-1.51757 -40.1752 -174.675
32.95 -37.35 -174.675
5  105 64 75 59 108  255 0 0
3  105 106 67  255 0 0
4  111 128 26 63  255 0 0
15  111 46 11 61 96 109 35 130 131 36 22 64 105 67 114  255 0 0
6  108 59 98 115 33 110  255 0 0
4  108 112 106 105  255 0 0
3  66 107 33  255 0 0
9  66 124 50 104 76 60 10 49 63  255 0 0
4  66 63 26 107  255 0 0
4  111 63 49 46  255 0 0
3  111 114 128  255 0 0
6  66 33 115 14 93 124  255 0 0
3  108 110 112  255 0 0
4  64 126 127 75  255 0 0
3  100 122 32  255 0 0
5  131 130 129 122 100  255 0 0
5  75 127 34 56 101  255 0 0
6  75 101 97 18 98 59  255 0 0
4  64 22 31 126  255 0 0
4  100 32 36 131  255 0 0
4  130 113 123 129  255 0 0
5  104 50 118 95 65  255 0 0
4  96 61 60 76  255 0 0
6  129 123 86 95 121 8  255 0 0
7  129 8 9 5 120 32 122  255 0 0
4  130 35 103 113  255 0 0
5  104 65 109 96 76  255 0 0
4  35 109 41 103  255 0 0
4  95 86 40 65  255 0 0
4  113 103 86 123  255 0 0
4  68 85 62 24  255 0 0
5  68 116 82 54 37  255 0 0
6  68 37 74 94 117 85  255 0 0
5  68 24 1 73 116  255 0 0
4  85 21 57 62  255 0 0
5  85 117 79 19 21  255 0 0
7  24 62 125 92 39 38 7  255 0 0
6  56 120 5 4 97 101  255 0 0
3  22 36 31  255 0 0
4  56 34 32 120  255 0 0
4  126 31 34 127  255 0 0
5  62 57 20 91 125  255 0 0
4  116 73 27 82  255 0 0
5  39 92 91 81 80  255 0 0
5  74 78 77 79 94  255 0 0
4  39 80 78 74  255 0 0
5  50 124 93 72 118  255 0 0
6  95 118 72 28 9 121  255 0 0
5  115 98 18 15 14  255 0 0
3  121 9 8  255 0 0
4  93 14 17 119  255 0 0
5  119 17 16 23 99  255 0 0
4  119 99 72 93  255 0 0
3  117 94 79  255 0 0
3  125 91 92  255 0 0
4  114 67 110 33  255 0 0
5  33 107 26 128 114  255 0 0
4  110 67 106 112  255 0 0
4  86 103 41 40  255 0 0
4  65 40 41 109  255 0 0
4  79 77 81 91  255 0 0
4  91 20 19 79  255 0 0
6  48 89 88 87 90 69  255 0 0
4  48 69 3 23  255 0 0
5  102 70 83 88 89  255 0 0
4  71 3 16 53  255 0 0
4  23 3 6 25  255 0 0
5  48 23 16 102 89  255 0 0
4  99 23 28 72  255 0 0
4  97 4 3 71  255 0 0
4  71 53 18 97  255 0 0
4  90 87 83 70  255 0 0
4  88 44 45 87  255 0 0
5  88 83 43 42 44  255 0 0
6  87 45 30 29 43 83  255 0 0
4  80 81 77 78  255 0 0
5  73 1 0 55 27  255 0 0
5  24 7 2 0 1  255 0 0
6  102 16 3 69 90 70  255 0 0
7  38 52 47 13 55 0 2  255 0 0
4  37 58 52 38  255 0 0
5  37 54 12 51 58  255 0 0
3  38 2 7  255 0 0
4  27 55 54 82  255 0 0
4  61 11 10 60  255 0 0
4  55 13 12 54  255 0 0
4  58 51 47 52  255 0 0
4  51 12 11 46  255 0 0
4  49 10 13 47  255 0 0
4  47 51 46 49  255 0 0
5  45 44 42 84 30  255 0 0
4  43 29 84 42  255 0 0
4  38 39 74 37  255 0 0
4  32 34 31 36  255 0 0
3  30 84 29  255 0 0
4  25 6 5 9  255 0 0
4  25 9 28 23  255 0 0
4  20 57 21 19  255 0 0
4  53 16 15 18  255 0 0
4  17 14 15 16  255 0 0
4  13 10 11 12  255 0 0
4  6 3 4 5  255 0 0

