OFF
143 161 0

5.35 5.55 91.325
-12.25 -30.05 91.325
5.35 5.55 100.325
-12.25 -30.05 100.325
27.55 -26.45 91.325
27.55 -26.45 100.325
-27.4501 -24.8502 -174.675
-10.1354 11.6017 -174.675
-27.4501 -24.8502 -148.575
-26.4904 -22.8298 -148.575
-12.25 7.15 -148.575
-10.1354 11.6017 -148.575
-9.25 -27.95 109.325
24.25 -24.85 109.325
5.55 2.05 109.325
-11.6038 6.84231 -174.675
-11.6038 6.84231 -148.575
-26.45 -22.85 -174.675
-26.45 -22.85 -148.575
-28.6019 -27.1539 -148.575
-28.6019 -27.1539 -174.675
-37.983 26.226 -174.675
-37.983 26.226 -148.575
-25.686 27.1114 -174.675
-25.15 27.15 -174.675
-25.15 27.15 -148.575
-25.686 27.1114 -148.575
-19.25 -31.65 -174.675
-16.6316 -32.9089 -174.675
-19.25 -31.65 91.325
-16.6316 -32.9089 91.325
34.55 -26.95 -174.675
37.2007 -21.1185 -174.675
34.55 -26.95 91.325
37.2007 -21.1185 91.325
29.7017 -37.6163 -174.675
32.55 -31.35 -174.675
29.7017 -37.6163 91.325
32.55 -31.35 91.325
5.14573 10.4623 -174.675
5.14573 10.4623 91.325
7.95 12.75 -174.675
7.95 12.75 91.325
1.65 12.35 -174.675
1.65 12.35 91.325
21.562 1.59753 -174.675
21.562 1.59753 91.325
7.02143 9.44944 91.325
-18.1932 -16.0434 -174.675
-18.1932 -16.0434 -148.575
2.85918 8.59696 91.325
3.09992 8.79336 91.325
7.17043 9.23223 91.325
31.4082 -26.101 91.325
29.6944 -29.541 91.325
-13.8855 -33.3582 91.325
-22.4074 -24.8713 -174.675
-22.4074 -24.8713 -148.575
-8.0712 5.1601 -174.675
-8.0712 5.1601 -148.575
-34.4298 -18.8601 -148.575
-20.25 10.9595 -148.575
29.6944 -29.541 100.325
-14.2334 -34.0618 91.325
3.09992 8.79336 100.325
7.17043 9.23223 100.325
-39.1512 41.0499 -148.575
-39.1512 41.0499 -174.675
-38.6024 34.0863 -148.575
24.25 -24.85 118.321
39.15 -23.95 91.325
-9.25 -27.95 118.326
39.15 -23.95 -174.675
-28.5551 -27.1764 -148.575
-28.5551 -27.1764 -174.675
27.55 -26.45 109.325
26.3079 -24.6596 109.325
6.47597 3.92697 109.325
5.35 5.55 109.325
-36.6976 9.91525 -148.575
-33.98 -24.5683 -148.575
-24.45 -29.15 -148.575
-4.83549 11.9382 -148.575
-12.65 28.05 -148.575
-12.65 28.05 -174.675
-6.55 19.15 -174.675
-6.55 19.15 -148.575
-24.8406 26.6549 -148.575
-24.8406 26.6549 -174.675
31.4082 -26.101 100.325
-16.106 -30.3988 91.325
-16.106 -30.3988 100.325
32.1953 -26.0298 91.325
-12.25 -30.05 109.325
-16.35 -35.95 -174.675
-16.35 -35.95 91.325
11.75 15.85 -174.675
11.75 15.85 91.325
-34.0333 41.3633 -174.675
-34.0333 41.3633 -148.575
-3.35 15.05 91.325
-13.8855 -33.3582 100.325
32.4135 -29.3028 91.325
6.93631 -16.7727 133.719
5.55137 2.04804 118.325
24.2484 -24.8477 118.325
-15.4177 -33.4924 91.325
-12.3558 -3.81527 91.325
-18.1932 -16.0434 91.325
-7.4467 17.2622 -148.575
-7.4467 17.2622 -174.675
-17.7768 -33.8344 91.325
-17.7768 -33.8344 -174.675
-9.24702 -27.944 118.335
5.55 2.05 118.322
-33.98 -24.5683 -174.675
32.3522 -28.3833 -174.675
32.3522 -28.3833 91.325
-3.35 15.05 -148.575
-11.3059 -28.1402 109.325
-1.51757 -40.1752 -174.675
-38.6024 34.0863 -174.675
-24.45 -29.15 -174.675
-24.45 -29.15 91.325
-3.35 15.05 -174.675
-1.51757 -40.1752 91.325
-9.19426 11.6615 -148.575
-9.19426 11.6615 -174.675
-36.6976 9.91525 -174.675
-16.7428 -31.7082 91.325
13.6357 13.111 91.325
-23.3443 -26.8339 -148.575
-15.85 -41.35 -174.675
-4.83549 11.9382 91.325
-23.3443 -26.8339 -174.675
32.95 -37.35 -174.675
32.95 -37.35 91.325
-15.85 -41.35 91.325
31.2961 -12.5418 -174.675
31.2961 -12.5418 91.325
13.6357 13.111 -174.675
2.85918 8.59696 100.325
-4.83549 11.9382 -174.675
4  140 45 46 130  255 0 0
3  140 96 41  255 0 0
4  142 124 118 82  255 95 0
12  142 58 48 28 120 35 36 116 138 45 39 43  255 95 0
5  130 46 47 40 42  255 0 0
4  130 97 96 140  255 0 0
3  133 100 44  255 95 0
6  133 107 108 49 59 82  255 95 0
4  133 82 118 100  255 95 0
4  142 82 59 58  255 95 0
3  142 43 124  255 95 0
4  140 41 39 45  255 0 0
6  133 44 40 51 50 107  255 95 0
3  130 42 97  255 0 0
4  138 32 34 139  255 95 0
3  136 37 38  255 191 0
4  135 35 37 136  255 191 0
5  139 34 33 117 92  255 95 0
4  139 46 45 138  255 95 0
6  139 92 53 52 47 46  255 95 0
3  135 36 35  255 191 0
4  138 116 31 32  255 95 0
4  136 38 36 135  255 191 0
4  120 132 137 125  255 95 0
5  123 108 129 30 29  223 255 0
4  122 134 131 81  223 255 0
6  125 137 95 30 106 63  255 95 0
4  125 37 35 120  255 95 0
7  125 63 55 54 102 38 37  255 95 0
6  123 81 131 57 49 108  223 255 0
6  122 27 28 48 56 134  223 255 0
4  120 28 94 132  255 95 0
5  123 29 27 122 81  223 255 0
4  28 27 112 94  127 255 0
4  30 95 111 29  127 255 0
4  132 94 95 137  255 95 0
4  128 21 22 79  31 255 0
5  128 115 20 6 7  31 255 0
6  128 7 110 88 23 21  31 255 0
5  128 79 60 80 115  31 255 0
3  121 21 23  0 255 63
4  121 67 66 68  0 255 63
5  121 23 24 98 67  0 255 63
4  121 68 22 21  0 255 63
7  79 22 26 87 109 11 61  31 255 0
3  68 26 22  0 255 63
4  70 34 32 72  0 255 159
6  117 102 54 4 53 92  255 95 0
3  72 32 31  0 255 159
3  116 36 31  255 95 0
4  117 33 38 102  255 95 0
3  70 33 34  0 255 159
4  72 31 33 70  0 255 159
5  68 66 99 25 26  0 255 63
4  115 80 19 20  31 255 0
5  109 87 25 83 86  31 255 0
5  110 85 84 24 88  31 255 0
4  109 86 85 110  31 255 0
3  44 42 40  0 255 255
5  108 107 50 90 129  255 95 0
6  30 129 90 1 55 106  255 95 0
5  40 47 52 0 51  255 95 0
3  106 55 63  255 95 0
4  50 51 64 141  255 0 95
5  141 64 2 3 91  255 0 95
4  141 91 90 50  255 0 95
3  23 88 24  31 255 0
3  26 25 87  31 255 0
4  43 41 42 44  0 255 255
5  44 100 118 124 43  255 95 0
3  41 43 39  0 255 255
4  42 41 96 97  255 0 0
4  95 94 112 111  127 255 0
4  29 111 112 27  127 255 0
4  24 84 83 25  31 255 0
4  25 99 98 24  0 255 63
6  93 119 12 13 76 75  0 63 255
4  93 75 5 3  0 63 255
5  78 77 14 12 119  0 63 255
4  89 5 2 65  255 0 191
4  3 5 62 101  0 159 255
5  93 3 2 78 119  0 63 255
4  91 3 1 90  255 0 95
4  53 4 5 89  255 0 191
4  89 65 52 53  255 0 191
4  76 13 14 77  0 63 255
4  12 71 69 13  31 0 255
5  12 14 114 113 71  31 0 255
6  13 69 105 104 114 14  31 0 255
4  86 83 84 85  31 255 0
5  80 60 9 8 19  31 255 0
5  79 61 10 9 60  31 255 0
6  78 2 5 75 76 77  0 63 255
4  74 20 19 73  31 255 0
7  11 126 16 18 8 9 10  223 0 255
4  7 127 126 11  223 0 255
3  73 19 8  31 255 0
5  7 6 17 15 127  223 0 255
3  74 6 20  31 255 0
3  11 10 61  31 255 0
4  73 8 6 74  31 255 0
4  134 56 57 131  223 255 0
4  8 18 17 6  223 0 255
4  127 15 16 126  223 0 255
5  15 17 56 48 58  127 0 255
5  59 49 57 18 16  127 0 255
4  16 15 58 59  127 0 255
5  69 71 113 103 105  31 0 255
4  114 104 103 113  31 0 255
4  11 109 110 7  31 255 0
4  38 33 31 36  255 95 0
3  105 103 104  31 0 255
4  101 62 54 55  0 159 255
4  101 55 1 3  0 159 255
4  99 66 67 98  0 255 63
4  65 2 0 52  255 0 191
4  64 51 0 2  255 0 95
4  18 57 56 17  127 0 255
4  62 5 4 54  0 159 255
4  59 49 48 58  255 95 0
4  57 49 48 56  127 0 255
4  59 58 48 49  127 0 255
4  56 48 49 57  223 255 0
4  54 55 1 4  255 95 0
4  55 54 4 1  0 159 255
4  53 4 0 52  255 95 0
4  4 53 52 0  255 0 191
5  51 0 1 90 50  255 95 0
5  0 51 50 90 1  255 0 95
3  0 4 1  255 95 0
3  4 0 1  0 159 255
4  95 94 28 30  255 95 0
4  94 95 30 28  127 255 0
6  129 30 28 48 49 108  255 95 0
6  30 129 108 49 48 28  223 255 0
4  40 44 43 39  255 95 0
4  44 40 39 43  0 255 255
5  47 40 39 45 46  255 95 0
5  40 47 46 45 39  255 0 0
4  42 40 39 41  255 0 0
4  40 42 41 39  0 255 255
4  38 36 35 37  255 95 0
4  36 38 37 35  255 191 0
4  34 32 31 33  255 95 0
4  32 34 33 31  0 255 159
4  30 28 27 29  223 255 0
4  28 30 29 27  127 255 0
6  26 22 21 23 24 25  31 255 0
6  22 26 25 24 23 21  0 255 63
4  18 16 15 17  223 0 255
4  16 18 17 15  127 0 255
3  14 13 12  0 63 255
3  13 14 12  31 0 255
3  5 3 2  0 159 255
3  3 5 2  0 63 255
6  11 7 6 8 9 10  31 255 0
6  7 11 10 9 8 6  223 0 255
4  2 0 4 5  0 159 255
4  0 2 5 4  255 0 191
4  3 1 0 2  0 159 255
4  1 3 2 0  255 0 95

