OFF
143 153 0

5.35 5.55 100.325
-12.25 -30.05 100.325
27.55 -26.45 100.325
-9.25 -27.95 109.325
24.25 -24.85 109.325
5.55 2.05 109.325
-11.6038 6.84231 -174.675
-11.6038 6.84231 -148.575
-26.45 -22.85 -174.675
-26.45 -22.85 -148.575
-27.4501 -24.8502 -148.575
-28.6019 -27.1539 -148.575
-28.6019 -27.1539 -174.675
-27.4501 -24.8502 -174.675
-37.983 26.226 -174.675
-37.983 26.226 -148.575
-25.686 27.1114 -174.675
-25.15 27.15 -174.675
-25.15 27.15 -148.575
-25.686 27.1114 -148.575
-19.25 -31.65 -174.675
-16.6316 -32.9089 -174.675
-19.25 -31.65 91.325
-16.6316 -32.9089 91.325
34.55 -26.95 -174.675
37.2007 -21.1185 -174.675
34.55 -26.95 91.325
37.2007 -21.1185 91.325
29.7017 -37.6163 -174.675
32.55 -31.35 -174.675
29.7017 -37.6163 91.325
32.55 -31.35 91.325
5.14573 10.4623 -174.675
5.14573 10.4623 91.325
7.95 12.75 -174.675
7.95 12.75 91.325
1.65 12.35 -174.675
1.65 12.35 91.325
21.562 1.59753 -174.675
21.562 1.59753 91.325
7.02143 9.44944 91.325
-16.35 -35.95 -174.675
-18.1932 -16.0434 -174.675
-18.1932 -16.0434 -148.575
-18.1932 -16.0434 91.325
-16.7428 -31.7082 91.325
-16.35 -35.95 91.325
-12.25 -30.05 91.325
27.55 -26.45 91.325
5.35 5.55 91.325
-13.8855 -33.3582 91.325
-16.106 -30.3988 91.325
2.85918 8.59696 91.325
3.09992 8.79336 91.325
7.17043 9.23223 91.325
31.4082 -26.101 91.325
29.6944 -29.541 91.325
-22.4074 -24.8713 -174.675
-22.4074 -24.8713 -148.575
-8.0712 5.1601 -174.675
-8.0712 5.1601 -148.575
-34.4298 -18.8601 -148.575
-26.4904 -22.8298 -148.575
-12.25 7.15 -148.575
-20.25 10.9595 -148.575
29.6944 -29.541 100.325
-14.2334 -34.0618 91.325
3.09992 8.79336 100.325
7.17043 9.23223 100.325
-39.1512 41.0499 -148.575
-39.1512 41.0499 -174.675
-34.0333 41.3633 -174.675
-34.0333 41.3633 -148.575
6.93631 -16.7727 133.719
24.2484 -24.8477 118.325
5.55137 2.04804 118.325
-7.4467 17.2622 -148.575
-7.4467 17.2622 -174.675
-10.1354 11.6017 -174.675
-10.1354 11.6017 -148.575
-17.7768 -33.8344 91.325
-17.7768 -33.8344 -174.675
-9.24702 -27.944 118.335
5.55 2.05 118.322
-9.25 -27.95 118.326
24.25 -24.85 118.321
-9.19426 11.6615 -148.575
-9.19426 11.6615 -174.675
-23.3443 -26.8339 -148.575
-23.3443 -26.8339 -174.675
-28.5551 -27.1764 -174.675
-28.5551 -27.1764 -148.575
27.55 -26.45 109.325
26.3079 -24.6596 109.325
6.47597 3.92697 109.325
5.35 5.55 109.325
-36.6976 9.91525 -148.575
-33.98 -24.5683 -148.575
-24.45 -29.15 -148.575
-4.83549 11.9382 -148.575
-12.65 28.05 -148.575
-12.65 28.05 -174.675
-6.55 19.15 -174.675
-6.55 19.15 -148.575
-11.3059 -28.1402 109.325
-24.8406 26.6549 -148.575
-24.8406 26.6549 -174.675
31.4082 -26.101 100.325
-16.106 -30.3988 100.325
32.1953 -26.0298 91.325
-12.25 -30.05 109.325
-24.45 -29.15 -174.675
-24.45 -29.15 91.325
-1.51757 -40.1752 -174.675
-1.51757 -40.1752 91.325
11.75 15.85 -174.675
11.75 15.85 91.325
13.6357 13.111 -174.675
-4.83549 11.9382 -174.675
2.85918 8.59696 100.325
13.6357 13.111 91.325
-4.83549 11.9382 91.325
32.4135 -29.3028 91.325
-15.4177 -33.4924 91.325
-12.3558 -3.81527 91.325
-33.98 -24.5683 -174.675
-38.6024 34.0863 -148.575
39.15 -23.95 91.325
39.15 -23.95 -174.675
32.3522 -28.3833 -174.675
32.3522 -28.3833 91.325
-3.35 15.05 -148.575
-38.6024 34.0863 -174.675
-3.35 15.05 -174.675
-3.35 15.05 91.325
-36.6976 9.91525 -174.675
-13.8855 -33.3582 100.325
32.95 -37.35 91.325
31.2961 -12.5418 91.325
-15.85 -41.35 -174.675
31.2961 -12.5418 -174.675
-15.85 -41.35 91.325
32.95 -37.35 -174.675
4  117 38 39 120  255 0 0
3  117 115 34  255 0 0
4  118 133 131 99  255 117 0
12  118 59 42 21 113 28 29 129 140 38 32 36  255 117 0
5  120 39 40 33 35  255 0 0
4  120 116 115 117  255 0 0
3  121 134 37  255 117 0
6  121 124 44 43 60 99  255 117 0
4  121 99 131 134  255 117 0
4  118 99 60 59  255 117 0
3  118 36 133  255 117 0
4  117 34 32 38  255 0 0
6  121 37 33 53 52 124  255 117 0
3  120 35 116  255 0 0
4  140 25 27 138  255 117 0
3  137 30 31  255 235 0
4  142 28 30 137  255 235 0
5  138 27 26 130 109  255 117 0
4  138 39 38 140  255 117 0
6  138 109 55 54 40 39  255 117 0
3  142 29 28  255 235 0
4  140 129 24 25  255 117 0
4  137 31 29 142  255 235 0
4  113 139 141 114  255 117 0
5  112 44 45 23 22  156 255 0
4  111 89 88 98  156 255 0
6  114 141 46 23 123 66  255 117 0
4  114 30 28 113  255 117 0
7  114 66 50 56 122 31 30  255 117 0
6  112 98 88 58 43 44  156 255 0
6  111 20 21 42 57 89  156 255 0
4  113 21 41 139  255 117 0
5  112 22 20 111 98  156 255 0
4  21 20 81 41  39 255 0
4  23 46 80 22  39 255 0
4  139 41 46 141  255 117 0
4  135 14 15 96  0 255 78
5  135 125 12 13 78  0 255 78
6  135 78 77 106 16 14  0 255 78
5  135 96 61 97 125  0 255 78
3  132 14 16  0 255 196
4  132 70 69 126  0 255 196
5  132 16 17 71 70  0 255 196
4  132 126 15 14  0 255 196
7  96 15 19 105 76 79 64  0 255 78
3  126 19 15  0 255 196
4  127 27 25 128  0 196 255
6  130 122 56 48 55 109  255 117 0
3  128 25 24  0 196 255
3  129 29 24  255 117 0
4  130 26 31 122  255 117 0
3  127 26 27  0 196 255
4  128 24 26 127  0 196 255
5  126 69 72 18 19  0 255 196
4  125 97 11 12  0 255 78
5  76 105 18 100 103  0 255 78
5  77 102 101 17 106  0 255 78
4  76 103 102 77  0 255 78
3  37 35 33  0 78 255
5  44 124 52 51 45  255 117 0
6  23 45 51 47 50 123  255 117 0
5  33 40 54 49 53  255 117 0
3  123 50 66  255 117 0
4  52 53 67 119  39 0 255
5  119 67 0 1 108  39 0 255
4  119 108 51 52  39 0 255
3  16 106 17  0 255 78
3  19 18 105  0 255 78
4  36 34 35 37  0 78 255
5  37 134 131 133 36  255 117 0
3  34 36 32  0 78 255
4  35 34 115 116  255 0 0
4  46 41 81 80  39 255 0
4  22 80 81 20  39 255 0
4  17 101 100 18  0 255 78
4  18 72 71 17  0 255 196
6  110 104 3 4 93 92  156 0 255
4  110 92 2 1  156 0 255
5  95 94 5 3 104  156 0 255
4  107 2 0 68  39 0 255
4  1 2 65 136  39 0 255
5  110 1 0 95 104  156 0 255
4  108 1 47 51  39 0 255
4  55 48 2 107  39 0 255
4  107 68 54 55  39 0 255
4  93 4 5 94  156 0 255
4  3 84 85 4  255 0 235
5  3 5 83 82 84  255 0 235
6  4 85 74 75 83 5  255 0 235
4  103 100 101 102  0 255 78
5  97 61 62 10 11  0 255 78
5  96 64 63 62 61  0 255 78
6  95 0 2 92 93 94  156 0 255
4  90 12 11 91  0 255 78
7  79 86 7 9 10 62 63  0 255 78
4  78 87 86 79  0 255 78
3  91 11 10  0 255 78
5  78 13 8 6 87  0 255 78
3  90 13 12  0 255 78
3  79 63 64  0 255 78
4  91 10 13 90  0 255 78
4  89 57 58 88  156 255 0
4  10 9 8 13  0 255 78
4  87 6 7 86  0 255 78
5  6 8 57 42 59  255 0 117
5  60 43 58 9 7  255 0 117
4  7 6 59 60  255 0 117
5  85 84 82 73 74  255 0 235
4  83 75 73 82  255 0 235
4  79 76 77 78  0 255 78
4  31 26 24 29  255 117 0
3  74 73 75  255 0 235
4  136 65 56 50  39 0 255
4  136 50 47 1  39 0 255
4  72 69 70 71  0 255 196
4  68 0 49 54  39 0 255
4  67 53 49 0  39 0 255
4  9 58 57 8  255 0 117
4  65 2 48 56  39 0 255
4  60 43 42 59  255 117 0
4  58 43 42 57  255 0 117
4  60 59 42 43  255 0 117
4  57 42 43 58  156 255 0
4  56 50 47 48  255 117 0
4  50 56 48 47  39 0 255
4  55 48 49 54  255 117 0
4  48 55 54 49  39 0 255
6  53 49 48 47 51 52  255 117 0
6  49 53 52 51 47 48  39 0 255
4  46 41 21 23  255 117 0
4  41 46 23 21  39 255 0
6  45 23 21 42 43 44  255 117 0
6  23 45 44 43 42 21  156 255 0
4  33 37 36 32  255 117 0
4  37 33 32 36  0 78 255
5  40 33 32 38 39  255 117 0
5  33 40 39 38 32  255 0 0
4  35 33 32 34  255 0 0
4  33 35 34 32  0 78 255
4  31 29 28 30  255 117 0
4  29 31 30 28  255 235 0
4  27 25 24 26  255 117 0
4  25 27 26 24  0 196 255
4  23 21 20 22  156 255 0
4  21 23 22 20  39 255 0
6  19 15 14 16 17 18  0 255 78
6  15 19 18 17 16 14  0 255 196
4  9 7 6 8  0 255 78
4  7 9 8 6  255 0 117
3  5 4 3  156 0 255
3  4 5 3  255 0 235
3  2 1 0  39 0 255
3  1 2 0  156 0 255

