OFF
66 67 0

-18.7748 -17.0279 -21.75
-17.6409 -21.9414 -21.75
-18.7748 -17.0279 21.65
-17.6409 -21.9414 21.65
-20.0998 -11.286 -21.75
-18.9965 -16.0671 -21.75
-20.0998 -11.286 21.65
-18.9965 -16.0671 21.65
-21.5077 -5.18545 -21.75
-20.4649 -9.70394 -21.75
-21.5077 -5.18545 21.65
-20.4649 -9.70394 21.65
-22.9153 0.914442 -21.75
-21.7697 -4.05009 -21.75
-22.9153 0.914442 21.65
-21.7697 -4.05009 21.65
-24.1758 6.37661 -21.75
-23.2805 2.49686 -21.75
-24.1758 6.37661 21.65
-23.2805 2.49686 21.65
-25.448 11.8892 -21.75
-24.5662 8.06819 -21.75
-25.448 11.8892 21.65
-24.5662 8.06819 21.65
26.5937 -13.125 -21.75
26.5937 -13.125 21.65
-11.3421 -21.1803 21.65
-11.3421 -21.1803 -21.75
-25.8437 4.1875 -21.75
-25.8437 4.1875 21.65
-19.9857 4.98337 -21.75
-19.9857 4.98337 21.65
-21.0449 -19.7448 21.65
-21.0449 -19.7448 -21.75
4.70024 19.5409 21.65
-11.5706 -0.683978 21.65
4.70024 19.5409 -21.75
-11.5706 -0.683978 -21.75
11.6227 -16.3039 21.65
11.6227 -16.3039 -21.75
-22.216 -13.9165 21.65
-22.216 -13.9165 -21.75
-27.1562 9.8125 -21.75
-27.1562 9.8125 21.65
-17.4397 -22.475 21.65
27.2562 -12.9843 21.65
19.0994 22.475 21.65
-23.4697 -7.56371 21.65
-24.9687 -1.9375 -21.75
-24.9687 -1.9375 21.65
-11.9465 16.1489 21.65
-11.9465 16.1489 -21.75
0.395991 -18.6878 21.65
0.395991 -18.6878 -21.75
-17.5178 -22.475 -21.75
-17.5178 -22.475 21.65
-23.9572 13.7016 -21.75
-23.9572 13.7016 21.65
20.2472 22.475 21.65
20.2472 22.475 -21.75
-23.4697 -7.56371 -21.75
27.2562 -12.2817 -21.75
27.2562 -12.2817 21.65
19.0994 22.475 -21.75
-17.4397 -22.475 -21.75
27.2562 -12.9843 -21.75
4  64 54 55 44  255 0 0
8  65 61 59 63 36 37 39 24  255 0 0
4  65 45 62 61  255 0 0
11  64 27 53 13 8 9 4 5 0 1 54  255 0 0
4  64 44 26 27  255 0 0
4  65 24 25 45  255 0 0
4  63 59 58 46  255 0 0
4  63 46 34 36  255 0 0
8  45 25 38 35 34 46 58 62  255 0 0
11  44 55 3 2 7 6 11 10 15 52 26  255 0 0
4  62 58 59 61  255 0 0
4  56 51 50 57  255 0 0
5  57 50 31 23 22  255 0 0
5  56 20 21 30 51  255 0 0
4  57 22 20 56  255 0 0
3  20 42 21  255 218 0
4  22 43 42 20  255 218 0
3  22 23 43  255 218 0
4  55 54 1 3  255 0 0
4  15 10 8 13  255 0 0
6  15 14 31 35 38 52  255 0 0
6  53 39 37 30 12 13  255 0 0
4  53 27 26 52  255 0 0
3  13 12 48  0 255 145
4  52 38 39 53  255 0 0
3  1 0 33  255 0 218
3  3 32 2  255 0 218
4  3 1 33 32  255 0 218
5  14 19 18 23 31  255 0 0
3  14 15 49  0 255 145
4  12 17 19 14  255 0 0
4  50 34 35 31  255 0 0
4  51 36 34 50  255 0 0
4  51 30 37 36  255 0 0
5  12 30 21 16 17  255 0 0
4  15 13 48 49  0 255 145
3  9 8 60  0 145 255
4  11 6 4 9  255 0 0
3  11 47 10  0 145 255
4  11 9 60 47  0 145 255
4  14 49 48 12  0 255 145
4  10 47 60 8  0 145 255
4  23 18 16 21  255 0 0
4  23 21 42 43  255 218 0
4  7 2 0 5  255 0 0
3  5 4 41  72 0 255
3  7 40 6  72 0 255
4  7 5 41 40  72 0 255
4  6 40 41 4  72 0 255
4  38 25 24 39  255 0 0
4  2 32 33 0  255 0 218
3  17 16 28  72 255 0
3  19 29 18  72 255 0
4  19 17 28 29  72 255 0
4  29 28 16 18  72 255 0
4  23 21 20 22  255 0 0
4  21 23 22 20  255 218 0
4  19 17 16 18  255 0 0
4  17 19 18 16  72 255 0
4  15 13 12 14  255 0 0
4  13 15 14 12  0 255 145
4  11 9 8 10  255 0 0
4  9 11 10 8  0 145 255
4  7 5 4 6  255 0 0
4  5 7 6 4  72 0 255
4  3 1 0 2  255 0 0
4  1 3 2 0  255 0 218

