OFF
58 85 0
835405.318023681641 817534.630371093750 60.299999237061
835405.130523681641 817534.380371093750 60.299999237061
835405.318023681641 817534.255371093750 60.299999237061
835409.193023681641 817531.755371093750 60.299999237061
835402.193023681641 817567.817871093750 60.299999237061
835399.005523681641 817563.942871093750 60.299999237061
835402.068023681641 817561.880371093750 60.299999237061
835434.255523681641 817574.380371093750 60.299999237061
835402.318023681641 817560.942871093750 60.299999237061
835400.318023681641 817558.317871093750 60.299999237061
835403.255523681641 817556.380371093750 60.299999237061
835403.443023681641 817555.317871093750 60.299999237061
835401.193023681641 817552.192871093750 60.299999237061
835404.505523681641 817550.005371093750 60.299999237061
835404.755523681641 817549.067871093750 60.299999237061
835402.693023681641 817546.567871093750 60.299999237061
835405.318023681641 817544.692871093750 60.299999237061
835405.693023681641 817544.442871093750 60.299999237061
835406.068023681641 817542.817871093750 60.299999237061
835405.318023681641 817541.942871093750 60.299999237061
835403.943023681641 817540.192871093750 60.299999237061
835405.318023681641 817539.317871093750 60.299999237061
835406.943023681641 817538.192871093750 60.299999237061
835444.943023681641 817576.505371093750 60.299999237061
835446.693008422852 817575.255371093750 60.299999237061
835449.193008422852 817562.755371093750 60.299999237061
835453.318008422852 817542.380371093750 60.299999237061
835452.755508422852 817541.005371093750 60.299999237061
835407.255523681641 817536.942871093750 60.299999237061
835405.318023681641 817541.942871093750 17.000000000000
835403.943023681641 817540.192871093750 17.000000000000
835405.318023681641 817539.317871093750 17.000000000000
835406.943023681641 817538.192871093750 17.000000000000
835407.255523681641 817536.942871093750 17.000000000000
835405.318023681641 817534.630371093750 17.000000000000
835405.130523681641 817534.380371093750 17.000000000000
835405.318023681641 817534.255371093750 17.000000000000
835409.193023681641 817531.755371093750 17.000000000000
835452.755508422852 817541.005371093750 17.000000000000
835453.318008422852 817542.380371093750 17.000000000000
835449.193008422852 817562.755371093750 17.000000000000
835446.693008422852 817575.255371093750 17.000000000000
835444.943023681641 817576.505371093750 17.000000000000
835434.255523681641 817574.380371093750 17.000000000000
835402.193023681641 817567.817871093750 17.000000000000
835399.005523681641 817563.942871093750 17.000000000000
835402.068023681641 817561.880371093750 17.000000000000
835402.318023681641 817560.942871093750 17.000000000000
835400.318023681641 817558.317871093750 17.000000000000
835403.255523681641 817556.380371093750 17.000000000000
835403.443023681641 817555.317871093750 17.000000000000
835401.193023681641 817552.192871093750 17.000000000000
835404.505523681641 817550.005371093750 17.000000000000
835404.755523681641 817549.067871093750 17.000000000000
835402.693023681641 817546.567871093750 17.000000000000
835405.318023681641 817544.692871093750 17.000000000000
835405.693023681641 817544.442871093750 17.000000000000
835406.068023681641 817542.817871093750 17.000000000000
3 0 1 2
3 0 2 3
3 4 5 6
3 7 4 6
3 7 6 8
3 8 9 10
3 7 8 10
3 7 10 11
3 11 12 13
3 7 11 13
3 7 13 14
3 14 15 16
3 14 16 17
3 14 17 18
3 7 14 18
3 7 18 19
3 19 20 21
3 7 19 21
3 7 21 22
3 23 7 22
3 24 23 22
3 25 24 22
3 26 25 22
3 27 26 22
3 27 22 28
3 3 27 28
3 0 3 28
3 29 30 20
3 20 19 29
3 30 31 21
3 21 20 30
3 31 32 22
3 22 21 31
3 32 33 28
3 28 22 32
3 33 34 0
3 0 28 33
3 34 35 1
3 1 0 34
3 35 36 2
3 2 1 35
3 36 37 3
3 3 2 36
3 37 38 27
3 27 3 37
3 38 39 26
3 26 27 38
3 39 40 25
3 25 26 39
3 40 41 24
3 24 25 40
3 41 42 23
3 23 24 41
3 42 43 7
3 7 23 42
3 43 44 4
3 4 7 43
3 44 45 5
3 5 4 44
3 45 46 6
3 6 5 45
3 46 47 8
3 8 6 46
3 47 48 9
3 9 8 47
3 48 49 10
3 10 9 48
3 49 50 11
3 11 10 49
3 50 51 12
3 12 11 50
3 51 52 13
3 13 12 51
3 52 53 14
3 14 13 52
3 53 54 15
3 15 14 53
3 54 55 16
3 16 15 54
3 55 56 17
3 17 16 55
3 56 57 18
3 18 17 56
3 57 29 19
3 19 18 57
