OFF
66 55 0

26.5937 -13.125 -21.75
26.5937 -13.125 21.65
-11.3421 -21.1803 21.65
-11.3421 -21.1803 -21.75
-25.8437 4.1875 -21.75
-24.1758 6.37661 -21.75
-24.1758 6.37661 21.65
-25.8437 4.1875 21.65
-23.2805 2.49686 -21.75
-23.2805 2.49686 21.65
-24.5662 8.06819 -21.75
-19.9857 4.98337 -21.75
-24.5662 8.06819 21.65
-19.9857 4.98337 21.65
-21.0449 -19.7448 21.65
-21.0449 -19.7448 -21.75
-18.7748 -17.0279 -21.75
-18.7748 -17.0279 21.65
4.70024 19.5409 21.65
-11.5706 -0.683978 21.65
4.70024 19.5409 -21.75
-11.5706 -0.683978 -21.75
11.6227 -16.3039 21.65
11.6227 -16.3039 -21.75
-22.216 -13.9165 21.65
-22.216 -13.9165 -21.75
-20.0998 -11.286 -21.75
-20.0998 -11.286 21.65
-17.4397 -22.475 21.65
27.2562 -12.9843 21.65
-18.9965 -16.0671 -21.75
19.0994 22.475 21.65
-18.9965 -16.0671 21.65
-27.1562 9.8125 -21.75
-27.1562 9.8125 21.65
-23.4697 -7.56371 21.65
-23.4697 -7.56371 -21.75
-21.5077 -5.18545 -21.75
-21.5077 -5.18545 21.65
-24.9687 -1.9375 21.65
-24.9687 -1.9375 -21.75
-22.9153 0.914442 -21.75
-22.9153 0.914442 21.65
-20.4649 -9.70394 -21.75
-20.4649 -9.70394 21.65
-21.7697 -4.05009 -21.75
-21.7697 -4.05009 21.65
-11.9465 16.1489 21.65
-11.9465 16.1489 -21.75
-17.6409 -21.9414 -21.75
-17.6409 -21.9414 21.65
0.395991 -18.6878 21.65
0.395991 -18.6878 -21.75
-17.5178 -22.475 -21.75
-17.5178 -22.475 21.65
-25.448 11.8892 -21.75
-25.448 11.8892 21.65
27.2562 -12.9843 -21.75
19.0994 22.475 -21.75
-17.4397 -22.475 -21.75
20.2472 22.475 21.65
27.2562 -12.2817 21.65
20.2472 22.475 -21.75
27.2562 -12.2817 -21.75
-23.9572 13.7016 -21.75
-23.9572 13.7016 21.65
4  59 53 54 28  255 0 0
8  57 63 62 58 20 21 23 0  255 0 0
4  57 29 61 63  255 0 0
11  59 3 52 45 37 43 26 30 16 49 53  255 0 0
4  59 28 2 3  255 0 0
4  57 0 1 29  255 0 0
4  58 62 60 31  255 0 0
4  58 31 18 20  255 0 0
8  29 1 22 19 18 31 60 61  255 0 0
11  28 54 50 17 32 27 44 38 46 51 2  255 0 0
4  61 60 62 63  255 0 0
4  64 48 47 65  255 0 0
5  65 47 13 12 56  255 0 0
5  64 55 10 11 48  255 0 0
4  65 56 55 64  255 0 0
3  55 33 10  255 0 0
4  56 34 33 55  255 0 0
3  56 12 34  255 0 0
4  54 53 49 50  255 0 0
4  46 38 37 45  255 0 0
6  46 42 13 19 22 51  255 0 0
6  52 23 21 11 41 45  255 0 0
4  52 3 2 51  255 0 0
3  45 41 40  255 0 0
4  51 22 23 52  255 0 0
3  49 16 15  255 0 0
3  50 14 17  255 0 0
4  50 49 15 14  255 0 0
5  42 9 6 12 13  255 0 0
3  42 46 39  255 0 0
4  41 8 9 42  255 0 0
4  47 18 19 13  255 0 0
4  48 20 18 47  255 0 0
4  48 11 21 20  255 0 0
5  41 11 10 5 8  255 0 0
4  46 45 40 39  255 0 0
3  43 37 36  255 0 0
4  44 27 26 43  255 0 0
3  44 35 38  255 0 0
4  44 43 36 35  255 0 0
4  42 39 40 41  255 0 0
4  38 35 36 37  255 0 0
4  12 6 5 10  255 0 0
4  12 10 33 34  255 0 0
4  32 17 16 30  255 0 0
3  30 26 25  255 0 0
3  32 24 27  255 0 0
4  32 30 25 24  255 0 0
4  27 24 25 26  255 0 0
4  22 1 0 23  255 0 0
4  17 14 15 16  255 0 0
3  8 5 4  255 0 0
3  9 7 6  255 0 0
4  9 8 4 7  255 0 0
4  7 4 5 6  255 0 0

