OFF
66 67 0

-18.9965 -16.0671 -21.75
-20.0998 -11.286 21.65
-20.0998 -11.286 -21.75
-18.9965 -16.0671 21.65
-21.5077 -5.18545 -21.75
-20.4649 -9.70394 -21.75
-21.5077 -5.18545 21.65
-20.4649 -9.70394 21.65
-22.9153 0.914442 -21.75
-21.7697 -4.05009 -21.75
-22.9153 0.914442 21.65
-21.7697 -4.05009 21.65
-24.1758 6.37661 -21.75
-23.2805 2.49686 -21.75
-24.1758 6.37661 21.65
-23.2805 2.49686 21.65
-25.448 11.8892 -21.75
-24.5662 8.06819 -21.75
-25.448 11.8892 21.65
-24.5662 8.06819 21.65
26.5937 -13.125 -21.75
26.5937 -13.125 21.65
-11.3421 -21.1803 21.65
-11.3421 -21.1803 -21.75
-25.8437 4.1875 -21.75
-25.8437 4.1875 21.65
-19.9857 4.98337 -21.75
11.6227 -16.3039 -21.75
-19.9857 4.98337 21.65
-22.216 -13.9165 21.65
-22.216 -13.9165 -21.75
-27.1562 9.8125 -21.75
-27.1562 9.8125 21.65
-23.4697 -7.56371 21.65
-23.4697 -7.56371 -21.75
-24.9687 -1.9375 21.65
-24.9687 -1.9375 -21.75
-11.9465 16.1489 21.65
-11.9465 16.1489 -21.75
27.2562 -12.9843 21.65
-18.7748 -17.0279 21.65
19.0994 22.475 -21.75
-18.7748 -17.0279 -21.75
-17.6409 -21.9414 -21.75
-21.0449 -19.7448 -21.75
-17.6409 -21.9414 21.65
-21.0449 -19.7448 21.65
27.2562 -12.9843 -21.75
-17.4397 -22.475 -21.75
4.70024 19.5409 21.65
0.395991 -18.6878 21.65
-11.5706 -0.683978 21.65
0.395991 -18.6878 -21.75
4.70024 19.5409 -21.75
-11.5706 -0.683978 -21.75
-17.4397 -22.475 21.65
19.0994 22.475 21.65
-17.5178 -22.475 -21.75
11.6227 -16.3039 21.65
-17.5178 -22.475 21.65
-23.9572 13.7016 -21.75
-23.9572 13.7016 21.65
20.2472 22.475 21.65
27.2562 -12.2817 -21.75
20.2472 22.475 -21.75
27.2562 -12.2817 21.65
4  48 57 59 55  255 0 0
8  47 63 64 41 53 54 27 20  255 0 0
4  47 39 65 63  255 0 0
11  48 23 52 9 4 5 2 0 42 43 57  255 0 0
4  48 55 22 23  255 0 0
4  47 20 21 39  255 0 0
4  41 64 62 56  255 0 0
4  41 56 49 53  255 0 0
8  39 21 58 51 49 56 62 65  255 0 0
11  55 59 45 40 3 1 7 6 11 50 22  255 0 0
4  65 62 64 63  255 0 0
4  60 38 37 61  255 0 0
5  61 37 28 19 18  255 0 0
5  60 16 17 26 38  255 0 0
4  61 18 16 60  255 0 0
3  16 31 17  255 218 0
4  18 32 31 16  255 218 0
3  18 19 32  255 218 0
4  59 57 43 45  255 0 0
4  11 6 4 9  255 0 0
6  11 10 28 51 58 50  255 0 0
6  52 27 54 26 8 9  255 0 0
4  52 23 22 50  255 0 0
3  9 8 36  0 255 145
4  50 58 27 52  255 0 0
3  43 42 44  255 0 218
3  45 46 40  255 0 218
4  45 43 44 46  255 0 218
5  10 15 14 19 28  255 0 0
3  10 11 35  0 255 145
4  8 13 15 10  255 0 0
4  37 49 51 28  255 0 0
4  38 53 49 37  255 0 0
4  38 26 54 53  255 0 0
5  8 26 17 12 13  255 0 0
4  11 9 36 35  0 255 145
3  5 4 34  0 145 255
4  7 1 2 5  255 0 0
3  7 33 6  0 145 255
4  7 5 34 33  0 145 255
4  10 35 36 8  0 255 145
4  6 33 34 4  0 145 255
4  19 14 12 17  255 0 0
4  19 17 31 32  255 218 0
4  3 40 42 0  255 0 0
3  0 2 30  72 0 255
3  3 29 1  72 0 255
4  3 0 30 29  72 0 255
4  1 29 30 2  72 0 255
4  58 21 20 27  255 0 0
4  40 46 44 42  255 0 218
3  13 12 24  72 255 0
3  15 25 14  72 255 0
4  15 13 24 25  72 255 0
4  25 24 12 14  72 255 0
4  19 17 16 18  255 0 0
4  17 19 18 16  255 218 0
4  15 13 12 14  255 0 0
4  13 15 14 12  72 255 0
4  11 9 8 10  255 0 0
4  9 11 10 8  0 255 145
4  7 5 4 6  255 0 0
4  5 7 6 4  0 145 255
4  3 0 2 1  255 0 0
4  0 3 1 2  72 0 255
4  45 43 42 40  255 0 0
4  43 45 40 42  255 0 218

