COFF
58 85 0

-20.8437 -19.5 21.65
-21.0312 -19.75 21.65
-20.8437 -19.875 21.65
-16.9687 -22.375 21.65
-23.9687 13.6875 21.65
-27.1562 9.8125 21.65
-24.0937 7.75 21.65
8.09376 20.25 21.65
-23.8437 6.8125 21.65
-25.8437 4.1875 21.65
-22.9062 2.25 21.65
-22.7187 1.1875 21.65
-24.9687 -1.9375 21.65
-21.6562 -4.125 21.65
-21.4062 -5.0625 21.65
-23.4687 -7.5625 21.65
-20.8437 -9.4375 21.65
-20.4687 -9.6875 21.65
-20.0937 -11.3125 21.65
-20.8437 -12.1875 21.65
-22.2187 -13.9375 21.65
-20.8437 -14.8125 21.65
-19.2187 -15.9375 21.65
18.7813 22.375 21.65
20.5312 21.125 21.65
23.0312 8.625 21.65
27.1562 -11.75 21.65
26.5937 -13.125 21.65
-18.9062 -17.1875 21.65
-20.8437 -12.1875 -21.65
-22.2187 -13.9375 -21.65
-20.8437 -14.8125 -21.65
-19.2187 -15.9375 -21.65
-18.9062 -17.1875 -21.65
-20.8437 -19.5 -21.65
-21.0312 -19.75 -21.65
-20.8437 -19.875 -21.65
-16.9687 -22.375 -21.65
26.5937 -13.125 -21.65
27.1562 -11.75 -21.65
23.0312 8.625 -21.65
20.5312 21.125 -21.65
18.7813 22.375 -21.65
8.09376 20.25 -21.65
-23.9687 13.6875 -21.65
-27.1562 9.8125 -21.65
-24.0937 7.75 -21.65
-23.8437 6.8125 -21.65
-25.8437 4.1875 -21.65
-22.9062 2.25 -21.65
-22.7187 1.1875 -21.65
-24.9687 -1.9375 -21.65
-21.6562 -4.125 -21.65
-21.4062 -5.0625 -21.65
-23.4687 -7.5625 -21.65
-20.8437 -9.4375 -21.65
-20.4687 -9.6875 -21.65
-20.0937 -11.3125 -21.65
3  0 1 2  255 0 0
3  0 2 3  255 0 0
3  4 5 6  255 0 0
3  7 4 6  255 0 0
3  7 6 8  255 0 0
3  8 9 10  255 0 0
3  7 8 10  255 0 0
3  7 10 11  255 0 0
3  11 12 13  255 0 0
3  7 11 13  255 0 0
3  7 13 14  255 0 0
3  14 15 16  255 0 0
3  14 16 17  255 0 0
3  14 17 18  255 0 0
3  7 14 18  255 0 0
3  7 18 19  255 0 0
3  19 20 21  255 0 0
3  7 19 21  255 0 0
3  7 21 22  255 0 0
3  23 7 22  255 0 0
3  24 23 22  255 0 0
3  25 24 22  255 0 0
3  26 25 22  255 0 0
3  27 26 22  255 0 0
3  27 22 28  255 0 0
3  3 27 28  255 0 0
3  0 3 28  255 0 0
3  29 30 20  255 128 128
3  20 19 29  255 128 128
3  30 31 21  128 0 255
3  21 20 30  128 0 255
3  31 32 22  128 0 255
3  22 21 31  128 0 255
3  32 33 28  255 128 255
3  28 22 32  255 128 255
3  33 34 0  0 255 255
3  0 28 33  0 255 255
3  34 35 1  0 255 255
3  1 0 34  0 255 255
3  35 36 2  0 0 255
3  2 1 35  0 0 255
3  36 37 3  0 0 255
3  3 2 36  0 0 255
3  37 38 27  255 128 0
3  27 3 37  255 128 0
3  38 39 26  128 255 128
3  26 27 38  128 255 128
3  39 40 25  0 255 0
3  25 26 39  0 255 0
3  40 41 24  0 255 0
3  24 25 40  0 255 0
3  41 42 23  0 192 0
3  23 24 41  0 192 0
3  42 43 7  255 0 255
3  7 23 42  255 0 255
3  43 44 4  255 0 255
3  4 7 43  255 0 255
3  44 45 5  192 0 0
3  5 4 44  192 0 0
3  45 46 6  255 255 128
3  6 5 45  255 255 128
3  46 47 8  0 0 192
3  8 6 46  0 0 192
3  47 48 9  192 0 192
3  9 8 47  192 0 192
3  48 49 10  128 255 255
3  10 9 48  128 255 255
3  49 50 11  255 128 255
3  11 10 49  255 128 255
3  50 51 12  0 192 192
3  12 11 50  0 192 192
3  51 52 13  128 128 255
3  13 12 51  128 128 255
3  52 53 14  255 128 255
3  14 13 52  255 128 255
3  53 54 15  192 192 0
3  15 14 53  192 192 0
3  54 55 16  255 255 0
3  16 15 54  255 255 0
3  55 56 17  255 255 0
3  17 16 55  255 255 0
3  56 57 18  255 128 255
3  18 17 56  255 128 255
3  57 29 19  255 128 128
3  19 18 57  255 128 128

