OFF
66 55 0

26.5937 -13.125 -21.75
26.5937 -13.125 21.65
-11.3421 -21.1803 21.65
-11.3421 -21.1803 -21.75
-24.1758 6.37661 21.65
-25.8437 4.1875 -21.75
-25.8437 4.1875 21.65
-23.2805 2.49686 -21.75
-23.2805 2.49686 21.65
-24.5662 8.06819 21.65
-19.9857 4.98337 21.65
-21.0449 -19.7448 21.65
-24.1758 6.37661 -21.75
-21.0449 -19.7448 -21.75
-18.7748 -17.0279 -21.75
-18.7748 -17.0279 21.65
-19.9857 4.98337 -21.75
11.6227 -16.3039 -21.75
11.6227 -16.3039 21.65
-22.216 -13.9165 -21.75
-24.5662 8.06819 -21.75
-11.5706 -0.683978 21.65
4.70024 19.5409 -21.75
0.395991 -18.6878 21.65
4.70024 19.5409 21.65
-18.9965 -16.0671 21.65
-11.5706 -0.683978 -21.75
19.0994 22.475 21.65
-17.4397 -22.475 21.65
-20.0998 -11.286 -21.75
-22.216 -13.9165 21.65
27.2562 -12.9843 21.65
-20.4649 -9.70394 21.65
-20.0998 -11.286 21.65
20.2472 22.475 21.65
-18.9965 -16.0671 -21.75
-27.1562 9.8125 -21.75
20.2472 22.475 -21.75
-27.1562 9.8125 21.65
-20.4649 -9.70394 -21.75
19.0994 22.475 -21.75
-24.9687 -1.9375 -21.75
-23.4697 -7.56371 21.65
-23.4697 -7.56371 -21.75
-21.5077 -5.18545 -21.75
-21.5077 -5.18545 21.65
-21.7697 -4.05009 21.65
-24.9687 -1.9375 21.65
-22.9153 0.914442 21.65
27.2562 -12.2817 -21.75
-11.9465 16.1489 21.65
-11.9465 16.1489 -21.75
0.395991 -18.6878 -21.75
-25.448 11.8892 -21.75
-25.448 11.8892 21.65
-22.9153 0.914442 -21.75
-17.5178 -22.475 21.65
-17.4397 -22.475 -21.75
-17.6409 -21.9414 21.65
-21.7697 -4.05009 -21.75
-17.6409 -21.9414 -21.75
-17.5178 -22.475 -21.75
27.2562 -12.2817 21.65
-23.9572 13.7016 21.65
-23.9572 13.7016 -21.75
27.2562 -12.9843 -21.75
4  57 61 56 28  255 0 0
8  65 49 37 40 22 26 17 0  255 0 0
4  65 31 62 49  255 0 0
11  57 3 52 59 44 39 29 35 14 60 61  255 0 0
4  57 28 2 3  255 0 0
4  65 0 1 31  255 0 0
4  40 37 34 27  255 0 0
4  40 27 24 22  255 0 0
8  31 1 18 21 24 27 34 62  255 0 0
11  28 56 58 15 25 33 32 45 46 23 2  255 0 0
4  62 34 37 49  255 0 0
4  64 51 50 63  255 0 0
5  63 50 10 9 54  255 0 0
5  64 53 20 16 51  255 0 0
4  63 54 53 64  255 0 0
3  53 36 20  255 0 0
4  54 38 36 53  255 0 0
3  54 9 38  255 0 0
4  56 61 60 58  255 0 0
4  46 45 44 59  255 0 0
6  46 48 10 21 18 23  255 0 0
6  52 17 26 16 55 59  255 0 0
4  52 3 2 23  255 0 0
3  59 55 41  255 0 0
4  23 18 17 52  255 0 0
3  60 14 13  255 0 0
3  58 11 15  255 0 0
4  58 60 13 11  255 0 0
5  48 8 4 9 10  255 0 0
3  48 46 47  255 0 0
4  55 7 8 48  255 0 0
4  50 24 21 10  255 0 0
4  51 22 24 50  255 0 0
4  51 16 26 22  255 0 0
5  55 16 20 12 7  255 0 0
4  46 59 41 47  255 0 0
3  39 44 43  255 0 0
4  32 33 29 39  255 0 0
3  32 42 45  255 0 0
4  32 39 43 42  255 0 0
4  48 47 41 55  255 0 0
4  45 42 43 44  255 0 0
4  9 4 12 20  255 0 0
4  9 20 36 38  255 0 0
4  25 15 14 35  255 0 0
3  35 29 19  255 0 0
3  25 30 33  255 0 0
4  25 35 19 30  255 0 0
4  33 30 19 29  255 0 0
4  18 1 0 17  255 0 0
4  15 11 13 14  255 0 0
3  7 12 5  255 0 0
3  8 6 4  255 0 0
4  8 7 5 6  255 0 0
4  6 5 12 4  255 0 0

