OFF
153 135 0

0.273406 5.89059 -1.07571
0.273406 5.89059 -0.532345
0.898396 4.51568 1.3644
0.898396 4.51568 -1.08737
-0.0246537 5.75372 -0.531354
0.945704 4.53779 -1.08841
0.945718 4.53779 1.3638
-2.74536 -3.98462 -0.749119
-3.50294 -2.33689 1.53128
-2.74536 -3.98462 1.52582
-2.60933 -3.92183 -1.00142
-2.52581 -4.10592 -1.00297
-2.60933 -3.92183 -0.748788
-1.84692 3.23256 1.57043
-1.79058 3.10875 1.57002
-1.72311 3.29043 1.39761
-2.14719 4.77904 -0.524295
-1.60671 3.60388 1.10017
-2.14719 4.77904 1.11071
-2.31253 4.70312 -1.01874
-2.31253 4.70312 -0.523745
0.898396 4.51568 -4.22405
-7.83912 -2.70118 -0.890798
-8.14061 -2.82812 -4.22405
-8.14061 -2.82812 1.50577
-8.3125 -1.67187 -0.881953
-8.61717 -1.79687 1.50918
-8.61717 -1.79687 -4.22405
-8.3125 -1.67188 -4.22405
-8.3125 -1.67187 1.51137
9.83597 -5.73441 -4.22405
9.83597 -5.73441 -1.26604
9.61432 -5.83291 -4.22405
-7.83912 -2.70117 1.50796
-7.83912 -2.70117 3.3912
-8.14061 -2.82812 3.40441
-0.0246537 5.75372 -4.22405
-0.0246537 5.75372 -1.06914
0.945686 4.53778 -4.22405
0.604231 4.37819 -4.22405
-0.589683 5.49425 -1.05669
-0.969454 5.31986 -0.528211
-2.31253 4.70312 1.34079
-1.6788 3.40975 1.28438
-9.68698 1.31674 -0.85627
-9.68698 1.31674 -0.49922
-9.02511 -0.122408 -0.868637
8.78906 -5.85938 -4.22405
8.92188 -6.14063 -1.24592
8.78906 -5.85938 -1.24342
8.92188 -6.14063 -4.22405
4.89185 -4.14868 1.5624
4.57041 -4.29683 1.56
4.57041 -4.29683 -1.15493
3.57031 -2.10935 1.56727
3.57031 -2.10935 -1.13626
3.89734 -1.9595 1.56971
3.89733 -1.95951 -1.14346
-6.21085 3.32817 -0.985144
-2.69534 5.48439 -1.61597
-2.48803 5.06129 -1.02448
-6.2598 3.8703 1.55232
-4.50153 4.6665 3.88231
-7.83912 -2.70118 -4.22405
-8.41405 -2.2364 4.22406
-2.84147 5.41822 1.57772
-2.48488 5.05486 -1.01549
-2.22653 -4.7656 -4.22405
7.36849 -0.368938 -1.9268
-2.48089 4.6258 1.57508
3.57031 -2.10935 -4.22405
-5.9043 3.05376 1.54951
-9.68698 1.31674 1.52127
3.5065 -1.09916 1.57259
-8.61716 -1.79687 3.61598
-8.3125 -1.67187 3.632
-9.02511 -0.122409 -4.22405
-6.42187 3.79692 -0.929449
-6.42187 3.79691 1.33755
-6.21085 3.32817 -0.93338
-6.21085 3.32817 1.34362
-2.22653 -4.7656 -1.91383
4.57041 -4.29683 -4.22405
7.36849 -0.368938 -1.21993
3.50649 -1.09917 -0.733911
4.89182 -4.14869 -4.22405
4.33165 -3.7746 -4.22405
4.3749 6.14054 -4.22405
0.677133 4.21873 1.58831
0.604231 4.37819 1.36812
3.50649 -1.09917 -1.13617
9.48438 -5.54688 -1.25873
1.8817 2.47751 4.20575
9.48438 -5.54688 -4.22405
-9.83591 1.64056 -4.22405
-9.8359 1.64056 -0.946843
7.13215 0.144989 -1.21551
9.61432 -5.83291 -1.26116
-9.80504 1.57344 -0.854064
4.89184 -4.14869 -1.16201
-2.31253 4.70312 -4.22405
-2.69534 5.4844 -4.22405
-5.25064 1.5524 1.54436
-9.68698 1.31674 -4.22405
-2.69534 5.48439 1.37486
-2.48803 5.06129 -1.01543
8.16403 -2.64055 -1.23411
-2.22653 -4.7656 -1.00855
-7.89332 2.54491 -0.8963
8.36959 -2.5458 -4.22405
2.41382 0.420175 1.57568
-2.48803 5.06129 1.35641
-6.42187 3.79692 -1.63072
-9.0251 -0.122407 1.5165
-6.21085 3.32817 -4.22405
3.17781 -1.25087 -4.22405
-6.42187 3.79692 -4.22405
3.63962 -1.39223 -1.13865
2.74598 0.574954 1.57818
-2.48803 5.06129 -4.22405
-6.0553 3.40059 1.5507
3.57031 -2.10935 -1.92166
-2.60933 -3.92183 1.52684
-9.8359 1.64056 -0.853487
-9.0251 -0.122407 1.49014
-2.22653 -4.7656 1.52402
-3.35885 -2.26974 1.53236
3.17781 -1.25087 1.57013
0.273406 5.89059 -4.22405
-5.28295 1.62661 1.54461
-2.60933 -3.92183 -4.22405
-2.70763 0.639343 3.91335
-1.69928 5.42849 -1.03281
4.6545 -3.62628 -4.22405
-4.30135 4.21712 3.88578
-2.64566 4.98791 1.57628
-2.69534 5.48439 -1.01152
-2.82533 0.322395 4.21412
-8.11569 -2.09979 4.22353
8.16403 -2.64055 -4.22405
-6.46031 -5.6992 -0.758156
8.36959 -2.5458 -1.23864
-9.8359 1.64056 1.52234
8.13182 -2.02878 -4.22405
-9.01636 -0.141427 1.51644
-7.21183 -4.06513 1.50344
7.36849 -0.368938 -4.22405
3.50647 -1.09918 -4.22405
-6.46031 -5.6992 -0.916562
4.3749 6.14054 -1.16399
-6.46032 -5.6992 -4.22405
1.0205 4.37318 1.59086
3.89731 -1.95951 -4.22405
5  143 133 85 139 109  255 0 0
6  143 146 152 70 86 133  255 0 0
3  143 68 146  255 0 0
4  138 34 35 64  255 0 0
9  138 137 92 118 110 126 8 145 34  255 0 0
6  138 75 144 102 131 137  255 0 0
3  98 45 44  255 0 0
3  98 95 123  255 0 0
5  96 149 87 146 68  255 0 0
5  98 44 103 94 95  255 0 0
5  96 117 90 5 149  255 0 0
6  92 137 131 14 88 151  255 0 0
3  117 84 90  255 0 0
3  92 151 118  255 0 0
5  146 87 38 147 152  255 0 0
4  152 147 115 70  255 0 0
5  94 103 100 119 114  255 0 0
3  132 60 66  255 0 0
4  95 94 114 58  255 0 0
3  96 68 83  255 0 0
5  68 143 109 141 83  255 0 0
3  144 75 29  255 0 0
3  144 124 113  255 0 0
5  145 140 148 22 33  255 0 0
6  151 6 5 90 84 118  255 0 0
3  145 33 34  255 0 0
5  144 29 25 46 124  255 0 0
4  145 8 7 140  255 0 0
5  151 88 89 2 6  255 0 0
5  147 38 21 39 115  255 0 0
4  150 63 22 148  255 0 0
7  150 130 115 39 76 28 63  255 0 0
4  150 148 10 130  255 0 0
4  115 130 67 70  255 0 0
4  149 5 38 87  255 0 0
4  117 96 83 57  255 0 0
5  83 141 106 99 57  255 0 0
5  57 56 73 84 117  255 0 0
3  118 84 73  255 0 0
4  118 73 127 110  255 0 0
4  56 54 127 73  255 0 0
4  133 86 82 85  255 0 0
4  109 30 31 141  255 0 0
5  141 31 97 91 106  255 0 0
5  109 139 93 32 30  255 0 0
4  85 99 106 139  255 0 0
4  76 103 44 46  255 0 0
5  39 36 100 103 76  255 0 0
4  46 25 28 76  255 0 0
4  46 44 45 124  255 0 0
5  98 123 142 72 45  255 0 0
3  132 66 105  255 0 0
4  144 113 129 102  255 0 0
4  142 120 71 72  255 0 0
5  142 123 108 80 120  255 0 0
4  70 67 81 121  255 0 0
4  121 81 107 55  255 0 0
3  70 121 86  255 0 0
5  10 11 81 67 130  255 0 0
4  55 107 125 54  255 0 0
4  54 125 122 127  255 0 0
4  127 122 126 110  255 0 0
4  12 7 9 122  255 0 0
4  122 9 8 126  255 0 0
5  122 125 107 11 12  255 0 0
4  106 91 93 139  255 0 0
6  14 131 134 135 69 13  255 0 0
6  131 102 129 71 120 134  255 0 0
4  124 45 72 113  255 0 0
4  113 72 71 129  255 0 0
4  15 89 88 14  255 0 0
6  15 43 17 41 4 89  255 0 0
5  15 13 69 42 43  255 0 0
4  135 111 42 69  255 0 0
4  101 116 114 119  255 0 0
4  59 112 116 101  255 0 0
4  119 60 59 101  255 0 0
4  116 112 58 114  255 0 0
4  112 59 136 77  255 0 0
6  65 61 78 77 136 104  255 0 0
4  135 65 104 111  255 0 0
3  61 65 62  255 0 0
3  108 79 80  255 0 0
4  120 80 78 61  255 0 0
4  105 111 104 136  255 0 0
4  36 39 21 128  255 0 0
5  36 37 40 19 100  255 0 0
5  19 66 60 119 100  255 0 0
4  138 64 74 75  255 0 0
5  64 35 24 26 74  255 0 0
4  32 93 47 50  255 0 0
4  97 48 49 91  255 0 0
4  97 32 50 48  255 0 0
4  93 91 49 47  255 0 0
5  148 140 7 12 10  255 0 0
4  89 4 1 2  255 0 0
5  121 55 53 82 86  255 0 0
4  53 99 85 82  255 0 0
3  11 107 81  255 0 0
4  77 78 80 79  255 0 0
4  75 74 26 29  255 0 0
3  41 17 16  255 0 0
4  20 16 18 42  255 0 0
4  42 18 17 43  255 0 0
5  42 111 105 66 20  255 0 0
4  135 134 62 65  255 0 0
4  134 120 61 62  255 0 0
3  132 105 60  255 0 0
5  79 108 123 95 58  255 0 0
4  60 105 136 59  255 0 0
4  112 77 79 58  255 0 0
4  56 57 99 51  255 0 0
4  56 51 52 54  255 0 0
4  55 54 52 53  255 0 0
4  52 51 99 53  255 0 0
4  47 49 48 50  255 0 0
5  40 41 16 20 19  255 0 0
4  37 4 41 40  255 0 0
4  5 3 21 38  255 0 0
4  37 36 128 0  255 0 0
4  24 35 34 33  255 0 0
4  97 31 30 32  255 0 0
4  26 24 23 27  255 0 0
4  27 23 63 28  255 0 0
5  29 26 27 28 25  255 0 0
5  23 24 33 22 63  255 0 0
4  21 3 0 128  255 0 0
3  20 66 19  255 0 0
3  17 18 16  255 0 0
3  15 14 13  255 0 0
3  12 11 10  255 0 0
3  8 9 7  255 0 0
4  6 2 3 5  255 0 0
4  4 37 0 1  255 0 0
4  3 2 1 0  255 0 0

