COFF
213 344 0

8.16406 -2.64062 -1.23411
4.375 6.14062 -1.164
9.83594 -5.73438 -1.26603
8.92188 -6.14062 -1.24591
8.78906 -5.85938 -1.24342
9.48438 -5.54688 -1.25873
-8.61719 -1.79688 3.61598
-8.3125 -1.67188 3.632
0.273438 5.89062 -0.532295
0.898438 4.51562 1.36449
-6.46875 -5.70312 -0.758196
-7.84375 -2.70312 3.3914
-8.14062 -2.82812 3.40441
4.57031 -4.29688 1.56
3.57031 -2.10938 1.56727
-2.22656 -4.76562 1.52402
-2.60938 -3.92188 1.52684
-9.83594 1.64062 1.52234
-6.21094 3.32812 1.54954
-6.42188 3.79688 1.55111
-2.69531 5.48438 1.37482
-2.3125 4.70312 1.34073
7.13208 0.14502 -1.21551
4.40723 6.07031 -1.1646
3.69385 -1.36841 -1.13985
0.992432 4.50562 -1.08937
0.971924 4.55005 -1.08899
0.945801 4.5376 -1.08841
4.89185 -4.14868 -1.16201
-9.01636 -0.141357 1.51644
0.945801 4.5376 1.36389
-2.14722 4.77905 -0.524201
-8.41406 -2.23633 4.22405
1.88159 2.47754 4.2057
3.63965 -1.39233 -1.13866
-2.74536 -3.98462 -0.749127
-6.25977 3.87036 1.55232
-5.25073 1.55249 1.54436
1.02051 4.37305 1.59086
-7.21826 -4.06812 1.5034
2.74609 0.574951 1.57818
-3.50293 -2.33691 1.53128
-1.79053 3.10864 1.57002
4.89185 -4.14868 1.5624
-2.74536 -3.98462 1.52582
-2.84155 5.41821 1.57772
-3.54834 -2.35791 1.53094
-2.3855 0.523682 4.21331
-2.70752 0.639404 3.91337
-4.50146 4.6665 3.8823
-4.53857 -4.81226 -0.753495
-0.969482 5.31982 -0.528139
-2.51416 0.205078 3.91673
-2.8252 0.32251 4.21409
1.09912 -3.2417 1.54883
-0.0456543 -0.72583 1.55723
-1.60669 3.60376 1.10028
-2.14722 4.77905 1.1108
-1.73633 3.25513 1.43104
-1.83643 3.20923 1.57035
-9.03955 -0.0913086 1.5166
-5.28418 1.62939 1.54462
-3.51074 2.44214 3.89946
0.96582 4.49341 -1.08878
0.96582 4.49341 1.42508
4.95825 -4.11792 -1.16348
-6.12817 3.56787 1.55128
-6.28564 3.49438 1.5501
-4.37671 4.38647 3.88446
-2.72363 5.15918 1.57686
-2.57104 5.23071 1.36375
-8.93848 -0.106445 1.51701
-9.75024 1.68042 1.52298
-8.96167 -0.0556641 1.51718
-7.15259 -4.0376 1.50389
-6.40845 -5.67529 -0.75805
-8.04712 -2.06836 4.22339
9.74927 -5.77295 -1.26413
7.07275 0.118896 -1.21421
4.37549 6.05566 -1.1639
4.34375 6.12598 -1.16331
3.67969 -1.48047 -1.1394
3.73389 -1.45581 -1.1406
3.67969 -1.48047 1.57131
0.875488 -2.75024 1.55047
-2.4563 -4.25903 1.52571
7.09644 0.0666504 -1.21465
7.15576 0.09375 -1.21596
-6.34082 3.8335 1.55171
-6.20264 3.5332 1.55072
-5.28467 1.53711 1.54411
-3.52271 -2.29443 1.59022
-4.39551 -0.396484 4.21689
-5.31958 1.61328 1.54436
1.23975 -2.58545 1.55318
1.4646 -3.07422 1.55156
-0.572021 1.354 4.21008
0.308594 -0.560791 1.55988
-1.44971 3.26221 1.57255
-1.49683 3.36499 1.43052
-4.29395 4.20044 3.8859
-6.05615 3.40234 1.55071
-6.12769 3.36987 1.55018
-2.63013 4.95386 1.57617
-2.4707 5.02588 1.35482
-6.2124 3.33154 1.54955
3.70068 -1.47095 -1.13986
3.66064 -1.38306 -1.13912
4.91284 -4.13916 -1.16247
0.986572 4.50293 -1.08924
0.966553 4.54736 -1.08887
-1.93945 4.32739 0.100078
-3.93506 3.39478 3.89211
-1.93945 4.32739 1.10676
-5.69458 2.57227 1.54786
-5.74902 2.54688 1.54745
-2.27393 4.17114 1.57356
-9.37402 0.852295 1.52022
-9.45581 0.814209 1.5196
-1.21167 4.66748 0.0908246
0.47168 5.45435 0.0694213
4.87598 -4.11377 1.56252
4.55347 -4.25977 1.56012
4.87598 -4.11377 -1.16172
4.89697 -4.10425 -1.16218
4.94238 -4.0835 -1.16318
8.29272 -2.56641 -1.23696
8.36426 -2.53418 -1.23854
-7.9458 0.340088 1.52438
-7.04834 -1.61108 4.22161
-8.77173 2.13599 1.53032
-8.39233 1.31128 1.52759
-7.97217 0.397705 1.52457
-6.14771 -3.56934 1.51143
-5.39453 -5.20728 -0.75558
8.16406 -2.64062 -4.22405
4.95825 -4.11792 -4.22405
4.375 6.14062 -4.22405
4.40723 6.07031 -4.22405
9.83594 -5.73438 -4.22405
9.74927 -5.77295 -4.22405
8.92188 -6.14062 -4.22405
8.78906 -5.85938 -4.22405
9.48438 -5.54688 -4.22405
-8.61719 -1.79688 -4.22405
-8.3125 -1.67188 -4.22405
-9.01636 -0.141357 -4.22405
0.273438 5.89062 -4.22405
0.47168 5.45435 -4.22405
0.898438 4.51562 -4.22405
0.945801 4.5376 -4.22405
-6.46875 -5.70312 -4.22405
-7.21826 -4.06812 -4.22405
-7.84375 -2.70312 -4.22405
-8.14062 -2.82812 -4.22405
-8.41406 -2.23633 -4.22405
4.57031 -4.29688 -4.22405
4.55347 -4.25977 -4.22405
3.57031 -2.10938 -4.22405
1.4646 -3.07422 -4.22405
-2.22656 -4.76562 -4.22405
-2.4563 -4.25903 -4.22405
-2.60938 -3.92188 -4.22405
-2.74536 -3.98462 -4.22405
-9.83594 1.64062 -4.22405
-9.75024 1.68042 -4.22405
-6.21094 3.32812 -4.22405
-6.2124 3.33154 -4.22405
-6.42188 3.79688 -4.22405
-6.34082 3.8335 -4.22405
-2.69531 5.48438 -4.22405
-2.57104 5.23071 -4.22405
-2.3125 4.70312 -4.22405
-2.14722 4.77905 -4.22405
7.13208 0.14502 -4.22405
7.15576 0.09375 -4.22405
0.971924 4.55005 -4.22405
4.34375 6.12598 -4.22405
-9.03955 -0.0913086 -4.22405
-6.25977 3.87036 -4.22405
-4.50146 4.6665 -4.22405
-2.84155 5.41821 -4.22405
-4.53857 -4.81226 -4.22405
-5.39453 -5.20728 -4.22405
-0.969482 5.31982 -4.22405
1.09912 -3.2417 -4.22405
-9.45581 0.814209 -4.22405
4.91284 -4.13916 -4.22405
-6.28564 3.49438 -4.22405
-2.4707 5.02588 -4.22405
4.89185 -4.14868 -4.22405
0.966553 4.54736 -4.22405
-8.77173 2.13599 -4.22405
-6.40845 -5.67529 -4.22405
8.36426 -2.53418 -4.22405
4.375 6.14062 -4.22405
9.83594 -5.73438 -4.22405
0.273438 5.89062 -4.22405
0.898438 4.51562 -4.22405
0.945801 4.5376 -4.22405
-6.46875 -5.70312 -4.22405
4.57031 -4.29688 -4.22405
3.57031 -2.10938 -4.22405
-2.22656 -4.76562 -4.22405
-2.60938 -3.92188 -4.22405
-2.74536 -3.98462 -4.22405
-9.83594 1.64062 -4.22405
-6.21094 3.32812 -4.22405
-6.42188 3.79688 -4.22405
-2.69531 5.48438 -4.22405
-2.3125 4.70312 -4.22405
-2.14722 4.77905 -4.22405
4.89185 -4.14868 -4.22405
3  94 84 55  0 255 255
3  94 55 97  0 255 255
3  111 56 113  128 128 0
3  80 1 23  255 0 0
3  80 23 79  255 0 0
3  79 23 22  255 0 0
3  79 22 78  255 0 0
3  109 25 24  255 0 0
3  109 24 107  255 0 0
3  110 26 25  255 0 0
3  110 25 109  255 0 0
3  55 96 97  128 128 255
3  55 52 96  128 128 255
3  52 47 96  128 128 255
3  64 30 27  0 0 192
3  64 27 63  0 0 192
3  123 28 43  0 0 192
3  123 43 121  0 0 192
3  44 35 41  255 64 255
3  59 42 48  0 192 0
3  59 48 62  0 192 0
3  90 37 92  192 192 0
3  37 48 92  192 192 0
3  92 48 53  192 192 0
3  112 62 61  255 255 64
3  112 61 114  255 255 64
3  40 33 38  0 0 192
3  58 42 59  0 192 0
3  119 56 111  192 192 0
3  53 47 52  128 128 255
3  71 29 60  0 255 255
3  71 60 73  0 255 255
3  75 10 39  128 128 255
3  75 39 74  128 128 255
3  76 11 32  128 128 255
3  11 12 32  128 128 255
3  11 76 74  128 128 255
3  39 11 74  128 128 255
3  127 2 77  255 0 0
3  127 77 126  255 0 0
3  41 46 91  128 128 255
3  48 47 53  192 192 0
3  35 50 46  128 128 255
3  35 46 41  128 128 255
3  69 45 20  0 192 0
3  69 20 70  0 192 0
3  89 67 19  0 255 255
3  89 19 88  0 255 255
3  63 38 64  0 0 192
3  63 34 40  0 0 192
3  63 40 38  0 0 192
3  68 49 45  0 192 0
3  68 45 69  0 192 0
3  62 48 37  255 255 64
3  62 37 61  255 255 64
3  125 65 108  255 0 0
3  125 108 124  255 0 0
3  118 17 72  0 255 255
3  118 72 117  0 255 255
3  100 68 69  0 192 0
3  100 69 103  0 192 0
3  103 69 70  0 192 0
3  103 70 104  0 192 0
3  66 36 49  255 255 64
3  66 49 68  255 255 64
3  99 64 38  192 192 0
3  99 38 98  192 192 0
3  99 9 64  192 192 0
3  99 56 9  192 192 0
3  9 119 120  192 192 0
3  56 119 9  192 192 0
3  64 9 30  192 192 0
3  98 38 33  192 192 0
3  98 33 96  192 192 0
3  105 67 89  0 255 255
3  105 89 102  0 255 255
3  128 71 73  0 255 255
3  128 73 132  0 255 255
3  134 75 74  128 128 255
3  134 74 133  128 128 255
3  133 74 76  128 128 255
3  133 76 129  128 128 255
3  32 7 76  192 192 0
3  7 29 71  192 192 0
3  32 6 7  192 192 0
3  76 7 71  192 192 0
3  3 5 77  255 0 0
3  3 4 5  255 0 0
3  65 125 0  255 0 0
3  5 126 77  255 0 0
3  0 125 126  255 0 0
3  0 126 5  255 0 0
3  79 25 26  255 0 0
3  79 26 80  255 0 0
3  78 24 25  255 0 0
3  78 25 79  255 0 0
3  107 24 82  255 0 0
3  107 82 106  255 0 0
3  84 54 15  0 255 255
3  84 15 85  0 255 255
3  86 78 22  255 0 0
3  86 22 87  255 0 0
3  95 54 84  0 255 255
3  95 84 94  0 255 255
3  83 40 34  0 0 192
3  83 34 81  0 0 192
3  82 24 78  255 0 0
3  82 78 86  255 0 0
3  88 36 66  0 255 255
3  88 66 89  0 255 255
3  16 44 41  0 255 255
3  16 41 55  0 255 255
3  16 84 85  0 255 255
3  55 84 16  0 255 255
3  91 52 55  128 128 255
3  91 55 41  128 128 255
3  128 90 92  192 192 0
3  128 92 129  192 192 0
3  102 89 66  0 255 255
3  102 66 101  0 255 255
3  93 61 37  0 255 255
3  93 37 90  0 255 255
3  92 53 52  128 128 255
3  92 52 91  128 128 255
3  122 14 121  0 255 255
3  95 94 14  0 255 255
3  14 94 83  0 255 255
3  14 83 121  0 255 255
3  97 40 83  0 255 255
3  97 83 94  0 255 255
3  96 33 40  128 128 255
3  96 40 97  128 128 255
3  98 42 58  192 192 0
3  98 58 99  192 192 0
3  99 58 56  192 192 0
3  48 96 47  192 192 0
3  48 42 96  192 192 0
3  42 98 96  192 192 0
3  115 102 101  0 255 255
3  115 101 114  0 255 255
3  112 100 103  0 192 0
3  112 103 116  0 192 0
3  101 66 68  255 255 64
3  101 68 100  255 255 64
3  57 113 21  0 192 0
3  21 113 116  0 192 0
3  21 116 103  0 192 0
3  103 104 21  0 192 0
3  131 117 72  0 255 255
3  131 72 130  0 255 255
3  106 81 34  255 0 0
3  106 34 107  255 0 0
3  124 108 28  255 0 0
3  124 28 123  255 0 0
3  107 34 63  255 0 0
3  107 63 109  255 0 0
3  109 63 27  255 0 0
3  109 27 110  255 0 0
3  114 61 93  0 255 255
3  114 93 115  0 255 255
3  116 59 62  0 192 0
3  116 62 112  0 192 0
3  58 116 56  0 192 0
3  56 116 113  0 192 0
3  58 59 116  0 192 0
3  132 73 117  0 255 255
3  132 117 131  0 255 255
3  117 73 60  0 255 255
3  117 60 118  0 255 255
3  111 31 51  192 192 0
3  111 51 119  192 192 0
3  113 57 31  128 128 0
3  113 31 111  128 128 0
3  114 101 100  255 255 64
3  114 100 112  255 255 64
3  119 51 8  192 192 0
3  119 8 120  192 192 0
3  121 43 13  0 255 255
3  121 13 122  0 255 255
3  123 81 106  255 0 0
3  123 106 124  255 0 0
3  124 106 82  255 0 0
3  124 82 125  255 0 0
3  126 86 87  255 0 0
3  126 87 127  255 0 0
3  121 83 81  0 0 192
3  121 81 123  0 0 192
3  125 82 86  255 0 0
3  125 86 126  255 0 0
3  129 76 71  192 192 0
3  129 71 128  192 192 0
3  18 102 115  0 255 255
3  131 130 18  0 255 255
3  131 18 115  0 255 255
3  18 105 102  0 255 255
3  131 115 93  0 255 255
3  131 93 132  0 255 255
3  132 93 90  0 255 255
3  132 90 128  0 255 255
3  133 46 50  128 128 255
3  133 50 134  128 128 255
3  129 92 91  128 128 255
3  129 91 133  128 128 255
3  133 91 46  128 128 255
3  0 135 136  0 0 255
3  0 136 65  0 0 255
3  1 137 138  255 128 128
3  1 138 23  255 128 128
3  2 139 140  192 0 0
3  2 140 77  192 0 0
3  3 141 142  128 64 255
3  3 142 4  128 64 255
3  4 142 143  128 0 128
3  4 143 5  128 0 128
3  5 143 135  64 255 255
3  5 135 0  64 255 255
3  6 144 145  255 128 64
3  6 145 7  255 128 64
3  7 145 146  0 192 192
3  7 146 29  0 192 192
3  8 147 148  192 0 192
3  8 148 120  192 0 192
3  9 149 150  0 255 0
3  9 150 30  0 255 0
3  10 151 152  0 192 192
3  10 152 39  0 192 192
3  11 153 154  0 128 128
3  11 154 12  0 128 128
3  12 154 155  255 64 64
3  12 155 32  255 64 64
3  13 156 157  255 128 255
3  13 157 122  255 128 255
3  14 158 159  128 0 255
3  14 159 95  128 0 255
3  15 160 161  64 64 255
3  15 161 85  64 64 255
3  16 162 163  255 0 255
3  16 163 44  255 0 255
3  17 164 165  128 255 128
3  17 165 72  128 255 128
3  18 166 167  64 255 64
3  18 167 105  64 255 64
3  19 168 169  128 255 255
3  19 169 88  128 255 255
3  20 170 171  255 255 128
3  20 171 70  255 255 128
3  21 172 173  255 128 0
3  21 173 57  255 128 0
3  22 174 175  255 128 128
3  22 175 87  255 128 128
3  23 138 174  255 128 128
3  23 174 22  255 128 128
3  26 176 177  0 255 0
3  26 177 80  0 255 0
3  29 146 178  0 192 192
3  29 178 60  0 192 192
3  32 155 144  255 64 64
3  32 144 6  255 64 64
3  36 179 180  128 255 255
3  36 180 49  128 255 255
3  39 152 153  0 192 192
3  39 153 11  0 192 192
3  45 181 170  128 255 255
3  45 170 20  128 255 255
3  49 180 181  128 255 255
3  49 181 45  128 255 255
3  50 182 183  255 0 255
3  50 183 134  255 0 255
3  51 184 147  255 128 0
3  51 147 8  255 128 0
3  54 185 160  128 0 255
3  54 160 15  128 0 255
3  60 178 186  0 192 192
3  60 186 118  0 192 192
3  65 136 187  0 0 255
3  65 187 108  0 0 255
3  67 188 168  64 255 64
3  67 168 19  64 255 64
3  70 171 189  255 255 128
3  70 189 104  255 255 128
3  43 190 156  0 0 255
3  43 156 13  0 0 255
3  27 199 191  0 255 0
3  27 191 110  0 255 0
3  72 165 192  128 255 128
3  72 192 130  128 255 128
3  75 193 151  255 0 255
3  75 151 10  255 0 255
3  77 140 141  192 0 0
3  77 141 3  192 0 0
3  80 177 137  0 255 0
3  80 137 1  0 255 0
3  85 161 162  64 64 255
3  85 162 16  64 64 255
3  87 175 194  255 128 128
3  87 194 127  255 128 128
3  88 169 179  128 255 255
3  88 179 36  128 255 255
3  35 205 182  255 0 255
3  35 182 50  255 0 255
3  95 159 185  128 0 255
3  95 185 54  128 0 255
3  31 211 184  255 128 0
3  31 184 51  255 128 0
3  104 189 172  255 255 128
3  104 172 21  255 255 128
3  105 167 188  64 255 64
3  105 188 67  64 255 64
3  108 187 212  0 0 255
3  108 212 28  0 0 255
3  110 191 176  0 255 0
3  110 176 26  0 255 0
3  118 186 164  0 192 192
3  118 164 17  0 192 192
3  120 148 149  192 0 192
3  120 149 9  192 0 192
3  122 157 158  255 128 255
3  122 158 14  255 128 255
3  127 194 139  255 128 128
3  127 139 2  255 128 128
3  130 192 166  128 255 128
3  130 166 18  128 255 128
3  134 183 193  255 0 255
3  134 193 75  255 0 255
3  196 135 143  255 255 0
3  141 196 143  255 255 0
3  153 200 204  255 255 0
3  143 142 141  255 255 0
3  135 196 195  255 255 0
3  198 204 202  255 255 0
3  202 135 195  255 255 0
3  204 203 202  255 255 0
3  209 207 210  255 255 0
3  204 210 207  255 255 0
3  145 154 153  255 255 0
3  145 144 154  255 255 0
3  204 145 153  255 255 0
3  207 206 145  255 255 0
3  209 208 207  255 255 0
3  204 207 145  255 255 0
3  202 201 135  255 255 0
3  210 204 198  255 255 0
3  198 202 195  255 255 0
3  210 198 197  255 255 0

