OFF
162 180 0

-1.63948 3.32951 1.39655
-0.653309 1.31686 4.21026
-1.57813 3.20431 1.57159
0.274502 -0.576692 1.55963
0.595142 -1.23108 0.643605
1.07939 -2.21936 -0.739815
1.07939 -2.21936 -4.22405
-1.6788 3.40975 1.28438
-2.31253 4.70312 -0.523745
3.29067 -1.19877 -0.734436
3.50649 -1.09917 -0.733911
3.50649 -1.09917 -1.13617
3.50647 -1.09918 -4.22405
-6.21085 3.32817 -0.985144
-9.0251 -0.122407 1.49014
-1.72311 3.29043 1.39761
-2.69534 5.48439 -1.61597
-5.25064 1.5524 1.54436
-6.42187 3.79692 -1.63072
-9.8359 1.64056 -0.946843
-9.80504 1.57344 -0.854064
-9.68698 1.31674 -0.49922
-9.01636 -0.141427 1.51644
-2.70763 0.639343 3.91335
-1.79058 3.10875 1.57002
-1.60671 3.60388 1.10017
-2.14719 4.77904 -0.524295
-2.48488 5.05486 -1.01549
-2.48803 5.06129 -1.02448
-2.60933 -3.92183 -0.748788
2.74598 0.574954 1.57818
3.57031 -2.10935 -1.92166
2.41382 0.420175 1.57568
-3.35885 -2.26974 1.53236
-3.50294 -2.33689 1.53128
-2.74536 -3.98462 -0.749119
-2.52581 -4.10592 -1.00297
-2.22653 -4.7656 -1.91383
4.33165 -3.7746 -4.22405
4.6545 -3.62628 -4.22405
3.63962 -1.39223 -1.13865
4.89182 -4.14869 -4.22405
3.89731 -1.95951 -4.22405
0.945686 4.53778 -4.22405
0.945704 4.53779 -1.08841
3.89733 -1.95951 -1.14346
4.89184 -4.14869 -1.16201
0.273406 5.89059 -1.07571
0.273406 5.89059 -0.532345
0.898396 4.51568 1.3644
0.898396 4.51568 -1.08737
-0.0246537 5.75372 -1.06914
-0.0246537 5.75372 -0.531354
0.945718 4.53779 1.3638
-2.74536 -3.98462 1.52582
-2.60933 -3.92183 -1.00142
-1.84692 3.23256 1.57043
-2.14719 4.77904 1.11071
-2.31253 4.70312 1.34079
-2.31253 4.70312 -1.01874
0.273406 5.89059 -4.22405
0.898396 4.51568 -4.22405
-7.83912 -2.70118 -4.22405
-7.83912 -2.70118 -0.890798
-7.83912 -2.70117 1.50796
-8.14061 -2.82812 1.50577
-8.14061 -2.82812 -4.22405
-8.3125 -1.67187 -0.881953
-8.3125 -1.67188 -4.22405
-8.61717 -1.79687 -4.22405
-8.61717 -1.79687 1.50918
-8.3125 -1.67187 1.51137
8.78906 -5.85938 -1.24342
8.92188 -6.14063 -4.22405
8.78906 -5.85938 -4.22405
8.92188 -6.14063 -1.24592
4.57041 -4.29683 -1.15493
4.89185 -4.14868 1.5624
4.57041 -4.29683 1.56
3.57031 -2.10935 1.56727
3.57031 -2.10935 -1.13626
3.89734 -1.9595 1.56971
-6.21085 3.32817 -0.93338
-6.42187 3.79692 -0.929449
-2.69534 5.48439 -1.01152
-2.48803 5.06129 -1.01543
-1.69928 5.42849 -1.03281
-4.50153 4.6665 3.88231
-6.2598 3.8703 1.55232
-6.0553 3.40059 1.5507
-4.30135 4.21712 3.88578
-2.84147 5.41822 1.57772
-2.64566 4.98791 1.57628
-2.48803 5.06129 1.35641
-2.48089 4.6258 1.57508
-9.68698 1.31674 1.52127
-5.9043 3.05376 1.54951
-0.969454 5.31986 -0.528211
-8.61716 -1.79687 3.61598
-8.3125 -1.67187 3.632
-6.21085 3.32817 1.34362
-6.42187 3.79691 1.33755
-2.22653 -4.7656 -1.00855
4.57041 -4.29683 -4.22405
0.604231 4.37819 1.36812
0.677133 4.21873 1.58831
-6.46031 -5.6992 -0.758156
-6.46031 -5.6992 -0.916562
9.48438 -5.54688 -1.25873
9.48438 -5.54688 -4.22405
9.61432 -5.83291 -4.22405
9.61432 -5.83291 -1.26116
-8.41405 -2.2364 4.22406
-8.11569 -2.09979 4.22353
-2.31253 4.70312 -4.22405
-2.48803 5.06129 -4.22405
-0.0246537 5.75372 -4.22405
-9.68698 1.31674 -4.22405
-9.68698 1.31674 -0.85627
-2.69534 5.48439 1.37486
-7.89332 2.54491 -0.8963
-6.21085 3.32817 -4.22405
-6.42187 3.79692 -4.22405
-2.69534 5.4844 -4.22405
7.13215 0.144989 -1.21551
4.3749 6.14054 -4.22405
-0.589683 5.49425 -1.05669
4.3749 6.14054 -1.16399
-1.63948 3.32951 -4.22405
-2.22653 -4.7656 -4.22405
-2.60933 -3.92183 -4.22405
3.17781 -1.25087 -4.22405
3.57031 -2.10935 -4.22405
3.5065 -1.09916 1.57259
-9.8359 1.64056 -0.853487
-9.8359 1.64056 1.52234
-9.02511 -0.122409 -4.22405
0.604231 4.37819 -4.22405
-9.02511 -0.122408 -0.868637
8.36959 -2.5458 -1.23864
8.36959 -2.5458 -4.22405
8.16403 -2.64055 -1.23411
7.36849 -0.368938 -1.21993
-6.46032 -5.6992 -4.22405
9.83597 -5.73441 -4.22405
-2.22653 -4.7656 1.52402
9.83597 -5.73441 -1.26604
-7.21183 -4.06513 1.50344
-2.60933 -3.92183 1.52684
1.0205 4.37318 1.59086
-8.14061 -2.82812 3.40441
7.36849 -0.368938 -1.9268
-2.82533 0.322395 4.21412
-9.0251 -0.122407 1.5165
-7.83912 -2.70117 3.3912
1.8817 2.47751 4.20575
8.13182 -2.02878 -4.22405
8.16403 -2.64055 -4.22405
3.17781 -1.25087 1.57013
-9.83591 1.64056 -4.22405
-5.28295 1.62661 1.54461
7.36849 -0.368938 -4.22405
5  156 39 41 157 140  255 0 0
4  156 161 42 39  255 0 0
3  156 151 161  255 0 0
4  113 154 150 112  255 255 0
8  113 152 1 3 33 34 147 154  255 255 0
6  113 99 22 17 23 152  255 255 0
3  20 21 118  255 255 0
3  20 19 134  0 255 0
5  124 127 125 161 151  255 0 0
5  20 118 117 159 19  255 255 0
5  124 40 11 44 127  255 0 0
5  155 1 2 105 149  0 255 255
5  155 30 32 3 1  0 255 255
3  40 10 11  0 0 255
3  155 149 30  0 255 255
5  161 125 43 12 42  255 0 0
4  42 132 38 39  0 0 255
4  42 12 131 132  0 0 255
5  159 117 114 115 121  255 255 0
3  86 28 27  0 255 0
4  19 159 121 13  255 255 0
3  124 151 142  255 0 0
5  151 156 140 139 142  255 0 0
3  22 99 71  255 255 0
3  22 14 153  0 255 0
5  147 106 107 63 64  255 255 0
6  149 53 44 11 10 30  0 255 255
3  147 64 154  255 255 0
5  22 71 67 138 14  255 255 0
4  147 34 35 106  255 255 0
5  149 105 104 49 53  0 255 255
5  12 43 61 137 131  0 255 255
4  143 62 63 107  255 255 0
7  143 130 6 128 136 68 62  255 255 0
4  143 107 55 130  255 255 0
5  131 6 130 129 132  0 0 255
4  131 137 128 6  0 255 255
4  127 44 43 125  255 0 0
4  40 124 142 45  255 0 0
5  142 139 141 46 45  255 0 0
5  45 81 133 10 40  255 0 255
3  30 10 133  255 0 255
4  30 133 158 32  255 0 255
4  81 79 158 133  255 0 255
4  39 38 103 41  255 0 255
4  140 144 146 139  255 0 0
5  139 146 111 108 141  255 0 0
5  140 157 109 110 144  255 0 0
4  41 46 141 157  255 0 0
4  136 117 118 138  255 255 0
4  137 116 114 128  0 255 255
4  138 67 68 136  255 255 0
4  138 118 21 14  255 255 0
4  136 128 114 117  255 255 0
5  20 134 135 95 21  0 255 0
3  86 27 85  0 255 0
4  22 153 160 17  0 255 0
4  135 89 96 95  0 255 0
5  135 134 120 100 89  0 255 0
4  132 129 37 31  0 0 255
4  31 37 102 80  255 0 255
3  132 31 38  0 0 255
5  55 36 37 129 130  0 0 255
4  80 102 145 79  255 0 255
4  79 145 148 158  255 0 255
5  158 148 33 3 32  255 0 255
4  29 35 54 148  255 0 255
4  148 54 34 33  255 0 255
5  148 145 102 36 29  255 0 255
4  141 108 109 157  255 0 0
5  24 2 1 152 23  255 255 0
6  24 23 90 92 94 56  0 255 0
6  23 17 160 96 89 90  0 255 0
4  14 21 95 153  0 255 0
4  153 95 96 160  0 255 0
4  15 0 2 24  255 255 0
3  15 7 0  255 255 0
5  15 56 94 58 7  0 255 0
4  92 93 58 94  0 255 0
4  123 122 121 115  255 255 0
4  16 18 122 123  255 255 0
4  115 28 16 123  255 255 0
4  122 18 13 121  255 255 0
4  18 16 84 83  0 255 0
6  91 88 101 83 84 119  0 255 0
4  92 91 119 93  0 255 0
3  88 91 87  0 255 0
3  120 82 100  0 255 0
4  89 100 101 88  0 255 0
4  85 93 119 84  0 255 0
4  116 137 61 60  0 255 255
5  116 51 126 59 114  0 255 255
5  59 27 28 115 114  255 255 0
4  113 112 98 99  255 255 0
5  112 150 65 70 98  255 255 0
4  110 109 74 73  255 0 0
4  111 75 72 108  255 0 0
4  111 110 73 75  255 0 0
4  109 108 72 74  255 0 0
5  107 106 35 29 55  255 255 0
6  104 0 7 25 97 52  0 255 255
4  105 2 0 104  0 255 255
4  104 52 48 49  0 255 255
5  31 80 76 103 38  255 0 255
4  76 46 41 103  255 0 255
3  36 102 37  255 0 255
4  83 101 100 82  0 255 0
4  99 98 70 71  255 255 0
3  97 25 26  0 255 255
4  8 26 57 58  0 255 0
4  58 57 25 7  0 255 0
5  58 93 85 27 8  0 255 0
4  92 90 87 91  0 255 0
4  90 89 88 87  0 255 0
3  86 85 28  0 255 0
5  82 120 134 19 13  0 255 0
4  28 85 84 16  0 255 0
4  18 83 82 13  0 255 0
4  81 45 46 77  255 0 255
4  81 77 78 79  255 0 255
4  80 79 78 76  255 0 255
4  78 77 46 76  255 0 255
4  74 72 75 73  255 0 0
5  126 97 26 8 59  0 255 255
4  51 52 97 126  0 255 255
4  44 50 61 43  0 255 255
4  51 116 60 47  0 255 255
4  65 150 154 64  255 255 0
4  111 146 144 110  255 0 0
4  70 65 66 69  255 255 0
4  69 66 62 68  255 255 0
5  71 70 69 68 67  255 255 0
5  66 65 64 63 62  255 255 0
4  61 50 47 60  0 255 255
3  8 27 59  255 255 0
3  25 57 26  0 255 0
3  15 24 56  0 255 0
3  29 36 55  0 0 255
3  34 54 35  255 0 255
4  53 49 50 44  0 255 255
4  52 51 47 48  0 255 255
4  50 49 48 47  0 255 255
5  46 41 39 40 45  255 0 0
5  41 46 45 40 39  255 0 255
5  11 40 39 42 12  255 0 0
5  40 11 12 42 39  0 0 255
4  44 11 12 43  255 0 0
4  11 44 43 12  0 255 255
3  10 30 9  255 0 255
3  30 10 9  0 255 255
6  40 10 9 31 38 39  255 0 255
6  10 40 39 38 31 9  0 0 255
6  37 31 9 5 29 36  255 0 255
6  31 37 36 29 5 9  0 0 255
6  35 29 4 3 33 34  255 0 255
6  29 35 34 33 3 4  255 255 0
4  32 3 4 30  255 0 255
4  32 30 4 3  0 255 255
4  30 9 5 4  0 255 255
4  30 4 5 9  255 0 255
3  29 4 5  255 255 0
8  28 16 17 23 24 15 8 27  0 255 0
8  16 28 27 8 15 24 23 17  255 255 0
4  26 8 7 25  0 255 0
4  8 26 25 7  0 255 255
3  15 7 8  0 255 0
3  7 15 8  255 255 0
5  22 17 16 13 14  0 255 0
5  17 22 14 13 16  255 255 0
5  21 14 13 19 20  0 255 0
5  14 21 20 19 13  255 255 0
3  18 13 16  0 255 0
3  13 18 16  255 255 0
3  29 5 4  255 0 255
7  9 5 6 131 12 11 10  0 0 255
5  29 5 6 130 55  255 255 0
7  9 10 11 12 131 6 5  0 255 255
5  130 6 5 29 55  0 0 255
12  5 6 128 114 59 8 7 0 2 1 3 4  0 255 255
12  6 5 4 3 1 2 0 7 8 59 114 128  255 255 0

