OFF
165 199 0

-1.63948 3.32951 -4.22405
-1.63948 3.32951 1.39655
-5.28295 1.62661 1.54461
-5.25064 1.5524 1.54436
-5.9043 3.05376 1.54951
-6.0553 3.40059 1.5507
-7.89332 2.54491 -0.8963
-6.21085 3.32817 1.34362
-7.94628 2.52026 -0.966808
-7.11361 2.22129 -0.191118
-6.21085 3.32817 -4.22405
-2.48803 5.06129 -4.22405
-6.21085 3.32817 -0.985144
-3.17951 4.73938 -1.01717
-2.48803 5.06129 -1.02448
-7.83912 -2.70118 -4.22405
-8.3125 -1.67188 -4.22405
-7.83912 -2.70118 -0.890798
-7.83912 -2.70117 1.50796
-7.83912 -2.70117 3.3912
-8.11569 -2.09979 4.22353
-8.3125 -1.67187 3.632
-8.3125 -1.67187 1.51137
-8.3125 -1.67187 -0.881953
-0.653309 1.31686 4.21026
-2.60933 -3.92183 -1.00142
-2.60933 -3.92183 -0.748788
-2.60933 -3.92183 -4.22405
3.17781 -1.25087 -4.22405
3.50647 -1.09918 -4.22405
3.50649 -1.09917 -1.13617
3.50649 -1.09917 -0.733911
3.29067 -1.19877 -0.734436
-9.0251 -0.122407 1.49014
-1.72311 3.29043 1.39761
-2.31253 4.70312 -0.523745
-2.69534 5.48439 -1.61597
-6.42187 3.79692 -1.63072
-9.8359 1.64056 -0.946843
-9.80504 1.57344 -0.854064
-9.68698 1.31674 -0.49922
-9.01636 -0.141427 1.51644
-2.70763 0.639343 3.91335
-1.79058 3.10875 1.57002
-1.6788 3.40975 1.28438
-1.60671 3.60388 1.10017
-2.14719 4.77904 -0.524295
-2.48488 5.05486 -1.01549
2.74598 0.574954 1.57818
3.57031 -2.10935 -1.92166
2.41382 0.420175 1.57568
-3.35885 -2.26974 1.53236
-3.50294 -2.33689 1.53128
-2.74536 -3.98462 -0.749119
-2.52581 -4.10592 -1.00297
-2.22653 -4.7656 -1.91383
4.33165 -3.7746 -4.22405
4.6545 -3.62628 -4.22405
3.63962 -1.39223 -1.13865
4.89182 -4.14869 -4.22405
3.89731 -1.95951 -4.22405
0.945686 4.53778 -4.22405
0.945704 4.53779 -1.08841
3.89733 -1.95951 -1.14346
4.89184 -4.14869 -1.16201
0.273406 5.89059 -1.07571
0.273406 5.89059 -0.532345
0.898396 4.51568 1.3644
0.898396 4.51568 -1.08737
-0.0246537 5.75372 -1.06914
-0.0246537 5.75372 -0.531354
0.945718 4.53779 1.3638
-2.74536 -3.98462 1.52582
-1.84692 3.23256 1.57043
-2.14719 4.77904 1.11071
-2.31253 4.70312 1.34079
-2.31253 4.70312 -1.01874
0.273406 5.89059 -4.22405
0.898396 4.51568 -4.22405
-8.14061 -2.82812 1.50577
-8.14061 -2.82812 -4.22405
-8.61717 -1.79687 -4.22405
-8.61717 -1.79687 1.50918
9.61432 -5.83291 -4.22405
9.83597 -5.73441 -4.22405
9.83597 -5.73441 -1.26604
9.61432 -5.83291 -1.26116
-8.14061 -2.82812 3.40441
-0.0246537 5.75372 -4.22405
0.604231 4.37819 -4.22405
-0.589683 5.49425 -1.05669
-0.969454 5.31986 -0.528211
-9.68698 1.31674 -0.85627
-9.02511 -0.122408 -0.868637
8.92188 -6.14063 -4.22405
8.92188 -6.14063 -1.24592
8.78906 -5.85938 -1.24342
8.78906 -5.85938 -4.22405
-4.50153 4.6665 3.88231
-6.2598 3.8703 1.55232
-7.21183 -4.06513 1.50344
-4.30135 4.21712 3.88578
-9.68698 1.31674 1.52127
-8.61716 -1.79687 3.61598
1.8817 2.47751 4.20575
-6.42187 3.79692 -0.929449
-2.22653 -4.7656 -1.00855
4.57041 -4.29683 -4.22405
4.57041 -4.29683 -1.15493
3.57031 -2.10935 -1.13626
0.604231 4.37819 1.36812
0.677133 4.21873 1.58831
-6.46031 -5.6992 -0.758156
-6.46031 -5.6992 -0.916562
9.48438 -5.54688 -1.25873
9.48438 -5.54688 -4.22405
-8.41405 -2.2364 4.22406
-2.31253 4.70312 -4.22405
-9.68698 1.31674 -4.22405
-2.69534 5.48439 -1.01152
-2.69534 5.48439 1.37486
-2.48803 5.06129 1.35641
-2.48803 5.06129 -1.01543
-2.84147 5.41822 1.57772
-2.64566 4.98791 1.57628
-6.42187 3.79692 -4.22405
-2.69534 5.4844 -4.22405
-2.60933 -3.92183 1.52684
3.17781 -1.25087 1.57013
-9.0251 -0.122407 1.5165
-2.82533 0.322395 4.21412
8.16403 -2.64055 -4.22405
8.16403 -2.64055 -1.23411
-2.22653 -4.7656 1.52402
1.07939 -2.21936 -4.22405
3.57031 -2.10935 1.56727
-2.22653 -4.7656 -4.22405
-1.57813 3.20431 1.57159
0.274502 -0.576692 1.55963
0.595142 -1.23108 0.643605
1.07939 -2.21936 -0.739815
3.57031 -2.10935 -4.22405
3.5065 -1.09916 1.57259
-9.8359 1.64056 -0.853487
-9.8359 1.64056 1.52234
-1.69928 5.42849 -1.03281
-9.02511 -0.122409 -4.22405
7.36849 -0.368938 -1.9268
7.36849 -0.368938 -1.21993
8.36959 -2.5458 -4.22405
8.36959 -2.5458 -1.23864
7.13215 0.144989 -1.21551
4.3749 6.14054 -4.22405
4.89185 -4.14868 1.5624
4.57041 -4.29683 1.56
4.3749 6.14054 -1.16399
3.89734 -1.9595 1.56971
-6.46032 -5.6992 -4.22405
-6.21085 3.32817 -0.93338
1.0205 4.37318 1.59086
8.13182 -2.02878 -4.22405
-9.83591 1.64056 -4.22405
-2.48089 4.6258 1.57508
7.36849 -0.368938 -4.22405
-6.42187 3.79691 1.33755
5  160 57 59 131 149  255 0 0
4  160 163 60 57  255 0 0
3  160 147 163  255 0 0
4  20 19 87 116  255 153 0
8  20 130 24 138 51 52 100 19  50 0 255
6  20 21 41 3 42 130  50 0 255
3  39 40 92  50 0 255
3  39 38 143  203 255 0
5  151 155 152 163 147  255 0 0
5  39 92 118 161 38  50 0 255
5  151 58 30 62 155  255 0 0
5  104 24 137 111 159  255 0 152
5  104 48 50 138 24  255 0 152
3  58 31 30  0 255 102
3  104 159 48  255 0 152
5  163 152 61 29 60  255 0 0
4  60 141 56 57  0 255 102
4  60 29 28 141  0 255 102
5  161 118 117 11 10  50 0 255
3  145 14 47  204 0 255
5  38 161 10 12 8  50 0 255
3  151 147 148  255 0 0
5  147 160 149 150 148  255 0 0
3  41 21 22  50 0 255
3  41 33 129  203 255 0
5  100 112 113 17 18  50 0 255
6  159 71 62 30 31 48  255 0 152
3  100 18 19  50 0 255
5  41 22 23 93 33  50 0 255
4  100 52 53 112  50 0 255
5  159 111 110 67 71  255 0 152
5  29 61 78 89 28  255 0 152
4  157 15 17 113  50 0 255
7  157 27 134 0 146 16 15  50 0 255
4  157 113 25 27  50 0 255
5  28 134 27 136 141  0 255 102
4  28 89 0 134  255 0 152
4  155 62 61 152  255 0 0
4  58 151 148 63  255 0 0
5  148 150 132 64 63  255 0 0
5  63 156 142 31 58  0 255 255
3  48 31 142  0 255 255
4  48 142 128 50  0 255 255
4  156 135 128 142  0 255 255
4  57 56 107 59  0 255 255
4  149 84 85 150  255 0 0
5  150 85 86 114 132  255 0 0
5  149 131 115 83 84  255 0 0
4  59 64 132 131  255 0 0
4  146 118 92 93  50 0 255
4  89 88 117 0  51 255 0
4  93 23 16 146  50 0 255
4  93 92 40 33  50 0 255
4  146 0 117 118  50 0 255
5  39 143 144 102 40  203 255 0
3  145 47 122  204 0 255
4  41 129 2 3  203 255 0
4  144 5 4 102  203 255 0
5  144 143 6 7 5  203 255 0
4  141 136 55 49  0 255 102
4  49 55 106 109  0 255 255
3  141 49 56  0 255 102
5  25 54 55 136 27  0 255 102
4  109 106 133 135  0 255 255
4  135 133 127 128  0 255 255
5  128 127 51 138 50  0 255 255
4  26 53 72 127  0 255 255
4  127 72 52 51  0 255 255
5  127 133 106 54 26  0 255 255
4  132 114 115 131  255 0 0
5  43 137 24 130 42  50 0 255
6  43 42 101 124 162 73  204 0 255
6  42 3 2 4 5 101  204 0 255
4  33 40 102 129  203 255 0
4  129 102 4 2  203 255 0
4  34 1 137 43  50 0 255
3  34 44 1  50 0 255
5  34 73 162 75 44  204 0 255
4  124 121 75 162  204 0 255
4  126 125 10 11  0 102 255
4  36 37 125 126  0 102 255
4  11 14 36 126  0 102 255
4  125 37 12 10  0 102 255
4  37 36 119 105  204 0 255
6  123 99 164 105 119 120  204 0 255
4  124 123 120 121  204 0 255
3  99 123 98  204 0 255
3  6 158 7  204 0 255
4  5 7 164 99  204 0 255
4  122 121 120 119  204 0 255
4  88 89 78 77  51 255 0
5  88 69 90 76 117  51 255 0
5  76 47 14 11 117  50 0 255
4  20 116 103 21  255 153 0
5  116 87 79 82 103  255 153 0
4  83 115 97 94  255 0 0
4  86 95 96 114  255 0 0
4  86 83 94 95  255 0 0
4  115 114 96 97  255 0 0
5  113 112 53 26 25  50 0 255
6  110 1 44 45 91 70  51 255 0
4  111 137 1 110  255 0 152
4  110 70 66 67  51 255 0
5  49 109 108 107 56  0 255 255
4  108 64 59 107  0 255 255
3  54 106 55  0 255 255
4  105 164 7 158  204 0 255
4  21 103 82 22  255 153 0
3  91 45 46  51 255 0
4  35 46 74 75  204 0 255
4  75 74 45 44  204 0 255
5  75 121 122 47 35  204 0 255
4  124 101 98 123  204 0 255
4  101 5 99 98  204 0 255
3  145 122 14  204 0 255
4  158 6 8 12  204 0 255
4  6 143 38 8  203 255 0
4  14 122 119 36  204 0 255
4  37 105 158 12  204 0 255
4  156 63 64 153  0 255 255
4  156 153 154 135  0 255 255
4  109 135 154 108  0 255 255
4  154 153 64 108  0 255 255
4  97 96 95 94  255 0 0
5  90 91 46 35 76  51 255 0
4  69 70 91 90  51 255 0
4  62 68 78 61  255 0 152
4  69 88 77 65  51 255 0
4  79 87 19 18  255 153 0
4  86 85 84 83  255 0 0
4  82 79 80 81  255 153 0
4  81 80 15 16  255 153 0
5  22 82 81 16 23  255 153 0
5  80 79 18 17 15  255 153 0
4  78 68 65 77  51 255 0
3  35 47 76  50 0 255
3  45 74 46  204 0 255
3  34 43 73  204 0 255
3  26 54 25  0 255 102
3  52 72 53  0 255 255
4  71 67 68 62  255 0 152
4  70 69 65 66  51 255 0
4  68 67 66 65  51 255 0
5  64 59 57 58 63  255 0 0
5  59 64 63 58 57  0 255 255
5  30 58 57 60 29  255 0 0
5  58 30 29 60 57  0 255 102
4  62 30 29 61  255 0 0
4  30 62 61 29  255 0 152
3  31 48 32  0 255 255
3  48 31 32  255 0 152
6  58 31 32 49 56 57  0 255 255
6  31 58 57 56 49 32  0 255 102
6  55 49 32 140 26 54  0 255 255
6  49 55 54 26 140 32  0 255 102
6  53 26 139 138 51 52  0 255 255
6  26 53 52 51 138 139  50 0 255
4  50 138 139 48  0 255 255
4  50 48 139 138  255 0 152
4  48 32 140 139  255 0 152
4  48 139 140 32  0 255 255
3  26 139 140  50 0 255
3  14 36 13  204 0 255
3  36 14 13  0 102 255
8  47 14 13 3 42 43 34 35  204 0 255
8  14 47 35 34 43 42 3 13  50 0 255
4  46 35 44 45  204 0 255
4  35 46 45 44  51 255 0
3  34 44 35  204 0 255
3  44 34 35  50 0 255
4  41 3 9 33  203 255 0
4  3 41 33 9  50 0 255
6  40 33 9 8 38 39  203 255 0
6  33 40 39 38 8 9  50 0 255
3  12 8 9  204 0 255
3  37 12 36  204 0 255
3  12 37 36  0 102 255
4  3 13 12 9  204 0 255
3  36 13 12  0 102 255
3  36 12 13  204 0 255
3  12 9 8  50 0 255
3  26 140 139  0 255 255
7  32 140 134 28 29 30 31  0 255 102
5  26 140 134 27 25  50 0 255
7  32 31 30 29 28 134 140  255 0 152
5  27 134 140 26 25  0 255 102
8  140 134 0 1 137 24 138 139  255 0 152
8  134 140 139 138 24 137 1 0  50 0 255
6  44 1 0 117 76 35  51 255 0
6  1 44 35 76 117 0  50 0 255
9  23 16 15 17 18 19 20 21 22  255 153 0
9  16 23 22 21 20 19 18 17 15  50 0 255
4  13 3 9 12  50 0 255
5  14 11 10 12 13  0 102 255
5  11 14 13 12 10  50 0 255
8  9 3 2 4 5 7 6 8  203 255 0
8  3 9 8 6 7 5 4 2  204 0 255
7  110 67 68 78 89 0 1  51 255 0
7  67 110 1 0 89 78 68  255 0 152

