OFF
172 226 0

-2.60933 -3.92183 -0.748788
-2.60933 -3.92183 1.52684
1.07939 -2.21936 -0.739815
3.29067 -1.19877 -0.734436
3.50649 -1.09917 -0.733911
3.5065 -1.09916 1.57259
3.17781 -1.25087 1.57013
3.57031 -2.10935 -1.13626
3.57031 -2.10935 1.56727
3.57031 -2.10935 -1.92166
3.89732 -1.95951 -1.92211
3.89733 -1.95951 -1.14346
3.89734 -1.9595 1.56971
-2.31253 4.70312 -0.523745
-1.6788 3.40975 1.28438
-2.31253 4.70312 1.34079
-3.17951 4.73938 -1.01717
-2.48803 5.06129 -1.02448
-6.21085 3.32817 -0.985144
-6.21085 3.32817 -0.93338
-6.21085 3.32817 1.34362
-6.0553 3.40059 1.5507
-4.30135 4.21712 3.88578
-2.64566 4.98791 1.57628
-2.48803 5.06129 1.35641
-2.48803 5.06129 -1.01543
3.57031 -2.10935 -4.22405
3.89731 -1.95951 -4.22405
4.20982 6.06338 -4.22405
4.20982 6.06338 -1.16035
7.17278 -0.45862 -4.22405
7.92853 -2.12217 -4.22405
8.16403 -2.64055 -4.22405
8.16403 -2.64055 -1.23411
7.17278 -0.45862 -1.21562
6.93748 0.0593081 -1.21123
9.61432 -5.83291 -4.22405
9.48438 -5.54688 -4.22405
9.61432 -5.83291 -1.26116
9.48438 -5.54688 -1.25873
0.898396 4.51568 -1.08737
0.898396 4.51568 1.3644
0.898396 4.51568 -4.22405
0.604231 4.37819 -4.22405
-1.63948 3.32951 -4.22405
-1.63948 3.32951 1.39655
0.604231 4.37819 1.36812
-5.28295 1.62661 1.54461
-5.25064 1.5524 1.54436
-5.9043 3.05376 1.54951
-7.89332 2.54491 -0.8963
-7.94628 2.52026 -0.966808
-7.11361 2.22129 -0.191118
-6.21085 3.32817 -4.22405
-2.48803 5.06129 -4.22405
-7.83912 -2.70118 -4.22405
-8.3125 -1.67188 -4.22405
-7.83912 -2.70118 -0.890798
-7.83912 -2.70117 1.50796
-7.83912 -2.70117 3.3912
-8.11569 -2.09979 4.22353
-8.3125 -1.67187 3.632
-8.3125 -1.67187 1.51137
-8.3125 -1.67187 -0.881953
-0.653309 1.31686 4.21026
-2.60933 -3.92183 -1.00142
-2.60933 -3.92183 -4.22405
-2.69534 5.48439 -1.61597
-6.42187 3.79692 -1.63072
-9.8359 1.64056 -0.946843
-9.80504 1.57344 -0.854064
-9.68698 1.31674 -0.49922
3.63962 -1.39223 -1.13865
-9.0251 -0.122407 1.49014
1.8817 2.47751 4.20575
-9.01636 -0.141427 1.51644
7.13215 0.144989 -1.21551
-2.70763 0.639343 3.91335
-1.79058 3.10875 1.57002
-2.48488 5.05486 -1.01549
2.74598 0.574954 1.57818
2.41382 0.420175 1.57568
-3.35885 -2.26974 1.53236
-3.50294 -2.33689 1.53128
-2.74536 -3.98462 -0.749119
-2.52581 -4.10592 -1.00297
-2.22653 -4.7656 -1.91383
4.33165 -3.7746 -4.22405
4.6545 -3.62628 -4.22405
4.89182 -4.14869 -4.22405
3.50647 -1.09918 -4.22405
0.945686 4.53778 -4.22405
0.945704 4.53779 -1.08841
3.50649 -1.09917 -1.13617
4.89184 -4.14869 -1.16201
0.273406 5.89059 -1.07571
0.273406 5.89059 -0.532345
-0.0246537 5.75372 -1.06914
-0.0246537 5.75372 -0.531354
0.945718 4.53779 1.3638
-2.74536 -3.98462 1.52582
-1.84692 3.23256 1.57043
-1.72311 3.29043 1.39761
-2.14719 4.77904 -0.524295
-2.14719 4.77904 1.11071
-1.60671 3.60388 1.10017
-2.31253 4.70312 -1.01874
0.273406 5.89059 -4.22405
-8.14061 -2.82812 1.50577
-8.14061 -2.82812 -4.22405
-8.61717 -1.79687 -4.22405
-8.61717 -1.79687 1.50918
9.83597 -5.73441 -4.22405
9.83597 -5.73441 -1.26604
-8.14061 -2.82812 3.40441
-0.0246537 5.75372 -4.22405
-0.589683 5.49425 -1.05669
-0.969454 5.31986 -0.528211
-9.68698 1.31674 -0.85627
-9.02511 -0.122408 -0.868637
8.92188 -6.14063 -4.22405
8.92188 -6.14063 -1.24592
8.78906 -5.85938 -1.24342
8.78906 -5.85938 -4.22405
4.57041 -4.29683 -1.15493
4.89185 -4.14868 1.5624
4.57041 -4.29683 1.56
-6.42187 3.79692 -0.929449
-2.69534 5.48439 -1.01152
-2.48089 4.6258 1.57508
-9.68698 1.31674 1.52127
-8.61716 -1.79687 3.61598
-6.42187 3.79691 1.33755
-2.22653 -4.7656 -1.00855
4.57041 -4.29683 -4.22405
0.677133 4.21873 1.58831
-6.46031 -5.6992 -0.758156
-6.46031 -5.6992 -0.916562
-8.41405 -2.2364 4.22406
-2.31253 4.70312 -4.22405
-9.68698 1.31674 -4.22405
-2.69534 5.48439 1.37486
-6.2598 3.8703 1.55232
-2.84147 5.41822 1.57772
-6.42187 3.79692 -4.22405
-2.69534 5.4844 -4.22405
-9.0251 -0.122407 1.5165
-2.82533 0.322395 4.21412
-2.22653 -4.7656 1.52402
7.36849 -0.368938 -1.9268
-1.57813 3.20431 1.57159
1.0205 4.37318 1.59086
0.274502 -0.576692 1.55963
-7.21183 -4.06513 1.50344
-9.83591 1.64056 -4.22405
-2.22653 -4.7656 -4.22405
0.595142 -1.23108 0.643605
-1.69928 5.42849 -1.03281
8.13182 -2.02878 -4.22405
1.07939 -2.21936 -4.22405
3.17781 -1.25087 -4.22405
7.36849 -0.368938 -4.22405
8.36959 -2.5458 -4.22405
-9.8359 1.64056 -0.853487
4.3749 6.14054 -1.16399
4.3749 6.14054 -4.22405
-4.50153 4.6665 3.88231
-6.46032 -5.6992 -4.22405
-9.02511 -0.122409 -4.22405
7.36849 -0.368938 -1.21993
-9.8359 1.64056 1.52234
8.36959 -2.5458 -1.23864
4  158 31 32 162  255 0 0
4  158 161 30 31  255 0 0
3  158 149 161  255 0 0
4  60 59 114 138  255 89 0
8  60 147 64 152 82 83 153 59  255 179 0
6  60 61 75 48 77 147  255 179 0
3  70 71 118  255 179 0
3  70 69 163  240 255 0
5  76 164 165 161 149  255 0 0
5  70 118 140 154 69  255 179 0
4  76 35 29 164  255 0 0
5  74 64 150 135 151  150 255 0
5  74 80 81 152 64  150 255 0
5  72 93 92 29 35  60 255 0
3  72 4 93  0 255 29
3  74 151 80  150 255 0
4  161 165 28 30  255 0 0
5  27 30 28 91 90  60 255 0
4  27 26 87 88  0 255 119
4  27 90 160 26  0 255 29
5  154 140 139 54 53  255 179 0
3  157 17 79  0 255 209
5  69 154 53 18 51  255 179 0
3  76 149 169  255 0 0
5  149 158 162 171 169  255 0 0
3  75 61 62  255 179 0
3  75 73 146  240 255 0
5  153 136 137 57 58  255 179 0
6  151 99 92 93 4 80  150 255 0
3  153 58 59  255 179 0
5  75 62 63 119 73  255 179 0
4  153 83 84 136  255 179 0
5  151 135 46 41 99  150 255 0
5  90 91 42 43 160  150 255 0
4  167 55 57 137  255 179 0
7  167 66 159 44 168 56 55  255 179 0
4  167 137 65 66  255 179 0
5  160 159 66 155 26  0 255 29
4  160 43 44 159  150 255 0
4  164 29 28 165  255 0 0
4  92 91 28 29  60 255 0
4  72 35 34 11  60 255 0
4  76 169 34 35  255 0 0
4  169 171 33 34  255 0 0
4  11 34 33 94  60 255 0
5  11 12 5 4 72  0 210 255
3  80 4 5  0 120 255
4  80 5 6 81  0 120 255
4  12 8 6 5  0 210 255
4  88 87 134 89  0 30 255
4  88 31 30 27  60 255 0
4  88 89 32 31  60 255 0
4  162 112 113 171  255 0 0
5  171 113 38 39 33  255 0 0
5  162 32 37 36 112  255 0 0
4  89 94 33 32  60 255 0
4  168 140 118 119  255 179 0
4  43 115 139 44  59 0 255
4  119 63 56 168  255 179 0
4  119 118 71 73  255 179 0
4  168 44 139 140  255 179 0
5  70 163 170 130 71  240 255 0
3  157 79 25  0 255 209
4  75 146 47 48  240 255 0
4  170 21 49 130  240 255 0
5  170 163 50 20 21  240 255 0
4  26 155 86 9  0 255 29
4  9 86 133 7  0 210 255
3  26 9 87  0 255 119
5  65 85 86 155 66  0 255 29
4  7 133 148 8  0 210 255
4  8 148 1 6  0 210 255
5  6 1 82 152 81  0 120 255
4  0 84 100 1  0 120 255
4  1 100 83 82  0 120 255
5  1 148 133 85 0  0 210 255
4  33 39 37 32  255 0 0
5  78 150 64 147 77  255 179 0
6  78 77 22 23 129 101  0 255 209
6  77 48 47 49 21 22  0 255 209
4  73 71 130 146  240 255 0
4  146 130 49 47  240 255 0
4  102 45 150 78  255 179 0
3  102 14 45  255 179 0
5  102 101 129 15 14  0 255 209
4  23 24 15 129  0 255 209
4  145 144 53 54  149 0 255
4  67 68 144 145  149 0 255
4  54 17 67 145  149 0 255
4  144 68 18 53  149 0 255
4  68 67 128 127  239 0 255
6  143 142 132 127 128 141  239 0 255
4  23 143 141 24  239 0 255
3  142 143 166  239 0 255
3  50 19 20  0 255 209
4  21 20 132 142  239 0 255
4  25 24 141 128  239 0 255
4  115 43 42 107  59 0 255
5  115 97 116 106 139  59 0 255
5  106 79 17 54 139  255 179 0
4  60 138 131 61  255 89 0
5  138 114 108 111 131  255 89 0
4  36 37 123 120  255 0 180
4  38 121 122 39  255 0 180
4  38 36 120 121  255 0 180
4  37 39 122 123  255 0 180
5  137 136 84 0 65  255 179 0
6  46 45 14 105 117 98  59 0 255
4  135 150 45 46  150 255 0
4  46 98 96 41  59 0 255
5  9 7 124 134 87  0 30 255
4  124 94 89 134  0 30 255
3  85 133 86  0 210 255
4  127 132 20 19  239 0 255
4  61 131 111 62  255 89 0
3  117 105 103  59 0 255
4  13 103 104 15  255 0 90
4  15 104 105 14  255 0 90
5  15 24 25 79 13  0 255 209
4  23 22 166 143  239 0 255
4  22 21 142 166  239 0 255
3  157 25 17  0 255 209
4  19 50 51 18  0 255 209
4  50 163 69 51  240 255 0
4  17 25 128 67  239 0 255
4  68 127 19 18  239 0 255
4  12 11 94 125  0 30 255
4  12 125 126 8  0 30 255
4  7 8 126 124  0 30 255
4  126 125 94 124  0 30 255
4  123 122 121 120  255 0 180
5  116 117 103 13 106  59 0 255
4  97 98 117 116  59 0 255
4  92 40 42 91  150 255 0
4  97 115 107 95  59 0 255
4  108 114 59 58  255 89 0
4  38 113 112 36  255 0 0
4  111 108 109 110  255 89 0
4  110 109 55 56  255 89 0
5  62 111 110 56 63  255 89 0
5  109 108 58 57 55  255 89 0
4  42 40 95 107  59 0 255
3  13 79 106  255 179 0
3  105 104 103  255 0 90
3  102 78 101  0 255 209
3  0 85 65  0 255 29
3  83 100 84  0 120 255
4  99 41 40 92  150 255 0
4  98 97 95 96  59 0 255
4  40 41 96 95  59 0 255
5  94 89 88 10 11  60 255 0
5  89 94 11 10 88  0 30 255
3  72 11 10  60 255 0
3  11 72 10  0 210 255
5  93 72 10 27 90  60 255 0
5  72 93 90 27 10  0 255 29
4  92 93 90 91  60 255 0
4  93 92 91 90  150 255 0
3  88 27 10  60 255 0
3  27 88 10  0 255 119
3  4 80 3  0 120 255
3  80 4 3  150 255 0
5  72 4 3 9 10  0 210 255
5  4 72 10 9 3  0 255 29
4  88 10 9 87  0 30 255
4  88 87 9 10  0 255 119
6  86 9 3 2 0 85  0 210 255
6  9 86 85 0 2 3  0 255 29
6  84 0 156 152 82 83  0 120 255
6  0 84 83 82 152 156  255 179 0
4  81 152 156 80  0 120 255
4  81 80 156 152  150 255 0
4  80 3 2 156  150 255 0
4  80 156 2 3  0 120 255
3  0 156 2  255 179 0
3  17 67 16  239 0 255
3  67 17 16  149 0 255
8  79 17 16 48 77 78 102 13  0 255 209
8  17 79 13 102 78 77 48 16  255 179 0
4  103 13 14 105  255 0 90
4  13 103 105 14  59 0 255
3  102 14 13  0 255 209
3  14 102 13  255 179 0
4  75 48 52 73  240 255 0
4  48 75 73 52  255 179 0
6  71 73 52 51 69 70  240 255 0
6  73 71 70 69 51 52  255 179 0
3  18 51 52  0 255 209
3  68 18 67  239 0 255
3  18 68 67  149 0 255
4  48 16 18 52  0 255 209
3  67 16 18  149 0 255
3  67 18 16  239 0 255
3  18 52 51  255 179 0
3  0 2 156  0 120 255
7  3 2 159 160 90 93 4  0 255 29
5  0 2 159 66 65  255 179 0
7  3 4 93 90 160 159 2  150 255 0
5  66 159 2 0 65  0 255 29
8  2 159 44 45 150 64 152 156  150 255 0
8  159 2 156 152 64 150 45 44  255 179 0
6  14 45 44 139 106 13  59 0 255
6  45 14 13 106 139 44  255 179 0
9  63 56 55 57 58 59 60 61 62  255 89 0
9  56 63 62 61 60 59 58 57 55  255 179 0
4  16 48 52 18  255 179 0
5  17 54 53 18 16  149 0 255
5  54 17 16 18 53  255 179 0
8  52 48 47 49 21 20 50 51  240 255 0
8  48 52 51 50 20 21 49 47  0 255 209
7  46 41 40 42 43 44 45  59 0 255
7  41 46 45 44 43 42 40  150 255 0
4  39 37 36 38  255 0 180
4  37 39 38 36  255 0 0
8  35 29 28 30 31 32 33 34  60 255 0
8  29 35 34 33 32 31 30 28  255 0 0
4  10 9 26 27  0 255 119
4  9 10 27 26  0 255 29
10  25 17 16 18 19 20 21 22 23 24  239 0 255
10  17 25 24 23 22 21 20 19 18 16  0 255 209
3  15 14 13  255 0 90
3  14 15 13  0 255 209
6  12 8 7 9 10 11  0 30 255
6  8 12 11 10 9 7  0 210 255
7  6 1 0 2 3 4 5  0 210 255
7  1 6 5 4 3 2 0  0 120 255

