OFF
172 226 0

3.5065 -1.09916 1.57259
3.50649 -1.09917 -0.733911
3.17781 -1.25087 1.57013
3.89731 -1.95951 -4.22405
3.57031 -2.10935 -4.22405
3.89732 -1.95951 -1.92211
3.57031 -2.10935 -1.92166
6.93748 0.0593081 -1.21123
9.61432 -5.83291 -4.22405
9.48438 -5.54688 -4.22405
9.61432 -5.83291 -1.26116
9.48438 -5.54688 -1.25873
7.92853 -2.12217 -4.22405
7.17278 -0.45862 -4.22405
4.20982 6.06338 -4.22405
7.17278 -0.45862 -1.21562
4.20982 6.06338 -1.16035
0.898396 4.51568 -1.08737
0.898396 4.51568 1.3644
0.898396 4.51568 -4.22405
0.604231 4.37819 -4.22405
-1.63948 3.32951 -4.22405
-1.63948 3.32951 1.39655
0.604231 4.37819 1.36812
-5.28295 1.62661 1.54461
-5.25064 1.5524 1.54436
-5.9043 3.05376 1.54951
-6.0553 3.40059 1.5507
-6.21085 3.32817 1.34362
-7.89332 2.54491 -0.8963
-7.94628 2.52026 -0.966808
-7.11361 2.22129 -0.191118
-6.21085 3.32817 -4.22405
-2.48803 5.06129 -4.22405
-6.21085 3.32817 -0.985144
-3.17951 4.73938 -1.01717
-2.48803 5.06129 -1.02448
-7.83912 -2.70118 -4.22405
-8.3125 -1.67188 -4.22405
-7.83912 -2.70118 -0.890798
-7.83912 -2.70117 1.50796
-7.83912 -2.70117 3.3912
-8.11569 -2.09979 4.22353
-8.3125 -1.67187 3.632
-8.3125 -1.67187 1.51137
-8.3125 -1.67187 -0.881953
-0.653309 1.31686 4.21026
-1.57813 3.20431 1.57159
0.274502 -0.576692 1.55963
0.595142 -1.23108 0.643605
1.07939 -2.21936 -0.739815
1.07939 -2.21936 -4.22405
-1.6788 3.40975 1.28438
-2.31253 4.70312 -0.523745
-2.31253 4.70312 -4.22405
-2.60933 -3.92183 -1.00142
-2.60933 -3.92183 -0.748788
-2.60933 -3.92183 -4.22405
3.17781 -1.25087 -4.22405
3.50647 -1.09918 -4.22405
3.50649 -1.09917 -1.13617
3.29067 -1.19877 -0.734436
-9.0251 -0.122407 1.49014
-1.72311 3.29043 1.39761
-2.69534 5.48439 -1.61597
-6.42187 3.79692 -1.63072
-9.8359 1.64056 -0.946843
-9.80504 1.57344 -0.854064
-9.68698 1.31674 -0.49922
-9.01636 -0.141427 1.51644
-2.70763 0.639343 3.91335
-1.79058 3.10875 1.57002
-1.60671 3.60388 1.10017
-2.14719 4.77904 -0.524295
-2.48488 5.05486 -1.01549
2.74598 0.574954 1.57818
2.41382 0.420175 1.57568
-3.35885 -2.26974 1.53236
-3.50294 -2.33689 1.53128
-2.74536 -3.98462 -0.749119
-2.52581 -4.10592 -1.00297
-2.22653 -4.7656 -1.91383
4.33165 -3.7746 -4.22405
4.6545 -3.62628 -4.22405
3.63962 -1.39223 -1.13865
4.89182 -4.14869 -4.22405
0.945686 4.53778 -4.22405
0.945704 4.53779 -1.08841
3.89733 -1.95951 -1.14346
4.89184 -4.14869 -1.16201
0.273406 5.89059 -1.07571
0.273406 5.89059 -0.532345
-0.0246537 5.75372 -1.06914
-0.0246537 5.75372 -0.531354
0.945718 4.53779 1.3638
-2.74536 -3.98462 1.52582
-1.84692 3.23256 1.57043
-2.14719 4.77904 1.11071
-2.31253 4.70312 1.34079
-2.31253 4.70312 -1.01874
0.273406 5.89059 -4.22405
-8.14061 -2.82812 1.50577
-8.14061 -2.82812 -4.22405
-8.61717 -1.79687 -4.22405
-8.61717 -1.79687 1.50918
9.83597 -5.73441 -4.22405
9.83597 -5.73441 -1.26604
-8.14061 -2.82812 3.40441
-6.21085 3.32817 -0.93338
-6.42187 3.79692 -0.929449
-2.69534 5.48439 -1.01152
-4.50153 4.6665 3.88231
-2.84147 5.41822 1.57772
-2.64566 4.98791 1.57628
-2.48803 5.06129 -1.01543
-2.48803 5.06129 1.35641
-2.48089 4.6258 1.57508
-9.68698 1.31674 1.52127
-0.969454 5.31986 -0.528211
-8.61716 -1.79687 3.61598
-6.42187 3.79691 1.33755
-2.22653 -4.7656 -1.00855
4.57041 -4.29683 -4.22405
4.57041 -4.29683 -1.15493
3.57031 -2.10935 -1.13626
0.677133 4.21873 1.58831
-6.46031 -5.6992 -0.758156
-6.46031 -5.6992 -0.916562
-8.41405 -2.2364 4.22406
-0.0246537 5.75372 -4.22405
-9.68698 1.31674 -4.22405
-9.68698 1.31674 -0.85627
-2.69534 5.48439 1.37486
-6.2598 3.8703 1.55232
-6.42187 3.79692 -4.22405
-2.69534 5.4844 -4.22405
-2.60933 -3.92183 1.52684
-2.22653 -4.7656 -4.22405
7.36849 -0.368938 -1.9268
-9.0251 -0.122407 1.5165
-0.589683 5.49425 -1.05669
-4.30135 4.21712 3.88578
8.92188 -6.14063 -4.22405
8.92188 -6.14063 -1.24592
-9.02511 -0.122408 -0.868637
8.78906 -5.85938 -1.24342
8.78906 -5.85938 -4.22405
-9.8359 1.64056 -0.853487
-9.8359 1.64056 1.52234
-2.82533 0.322395 4.21412
-1.69928 5.42849 -1.03281
-9.02511 -0.122409 -4.22405
8.16403 -2.64055 -4.22405
8.16403 -2.64055 -1.23411
-2.22653 -4.7656 1.52402
8.36959 -2.5458 -1.23864
8.36959 -2.5458 -4.22405
3.57031 -2.10935 1.56727
3.89734 -1.9595 1.56971
7.36849 -0.368938 -1.21993
7.13215 0.144989 -1.21551
4.3749 6.14054 -4.22405
4.3749 6.14054 -1.16399
-6.46032 -5.6992 -4.22405
1.0205 4.37318 1.59086
-7.21183 -4.06513 1.50344
8.13182 -2.02878 -4.22405
-9.83591 1.64056 -4.22405
4.89185 -4.14868 1.5624
4.57041 -4.29683 1.56
1.8817 2.47751 4.20575
7.36849 -0.368938 -4.22405
4  166 12 152 156  255 0 0
4  166 171 13 12  255 0 0
3  166 138 171  255 0 0
4  42 41 107 128  255 89 0
8  42 149 46 48 77 78 165 41  255 179 0
6  42 43 69 25 70 149  255 179 0
3  67 68 131  255 179 0
3  67 66 147  240 255 0
5  160 162 161 171 138  255 0 0
5  67 131 130 167 66  255 179 0
4  160 7 16 162  255 0 0
5  170 46 47 125 164  150 255 0
5  170 75 76 48 46  150 255 0
5  84 60 87 16 7  60 255 0
3  84 1 60  0 255 29
3  170 164 75  150 255 0
4  171 161 14 13  255 0 0
5  3 13 14 86 59  60 255 0
4  3 4 82 83  0 255 119
4  3 59 58 4  0 255 29
5  167 130 54 33 32  255 179 0
3  150 36 74  0 255 209
5  66 167 32 34 30  255 179 0
3  160 138 159  255 0 0
5  138 166 156 155 159  255 0 0
3  69 43 44  255 179 0
3  69 62 139  240 255 0
5  165 126 127 39 40  255 179 0
6  164 94 87 60 1 75  150 255 0
3  165 40 41  255 179 0
5  69 44 45 144 62  255 179 0
4  165 78 79 126  255 179 0
5  164 125 23 18 94  150 255 0
5  59 86 19 20 58  150 255 0
4  163 37 39 127  255 179 0
7  163 57 51 21 151 38 37  255 179 0
4  163 127 55 57  255 179 0
5  58 51 57 137 4  0 255 29
4  58 20 21 51  150 255 0
4  162 16 14 161  255 0 0
4  87 86 14 16  60 255 0
4  84 7 15 88  60 255 0
4  160 159 15 7  255 0 0
4  159 155 153 15  255 0 0
4  88 15 153 89  60 255 0
5  88 158 0 1 84  0 210 255
3  75 1 0  0 120 255
4  75 0 2 76  0 120 255
4  158 157 2 0  0 210 255
4  83 82 122 85  0 30 255
4  83 12 13 3  60 255 0
4  83 85 152 12  60 255 0
4  156 105 106 155  255 0 0
5  155 106 10 11 153  255 0 0
5  156 152 9 8 105  255 0 0
4  85 89 153 152  60 255 0
4  151 130 131 144  255 179 0
4  20 129 54 21  59 0 255
4  144 45 38 151  255 179 0
4  144 131 68 62  255 179 0
4  151 21 54 130  255 179 0
5  67 147 148 117 68  240 255 0
3  150 74 114  0 255 209
4  69 139 24 25  240 255 0
4  148 27 26 117  240 255 0
5  148 147 29 28 27  240 255 0
4  4 137 81 6  0 255 29
4  6 81 121 124  0 210 255
3  4 6 82  0 255 119
5  55 80 81 137 57  0 255 29
4  124 121 154 157  0 210 255
4  157 154 136 2  0 210 255
5  2 136 77 48 76  0 120 255
4  56 79 95 136  0 120 255
4  136 95 78 77  0 120 255
5  136 154 121 80 56  0 210 255
4  153 11 9 152  255 0 0
5  71 47 46 149 70  255 179 0
6  71 70 141 113 116 96  0 255 209
6  70 25 24 26 27 141  0 255 209
4  62 68 117 139  240 255 0
4  139 117 26 24  240 255 0
4  63 22 47 71  255 179 0
3  63 52 22  255 179 0
5  63 96 116 98 52  0 255 209
4  113 115 98 116  0 255 209
4  135 134 32 33  149 0 255
4  64 65 134 135  149 0 255
4  33 36 64 135  149 0 255
4  134 65 34 32  149 0 255
4  65 64 110 109  239 0 255
6  112 133 120 109 110 132  239 0 255
4  113 112 132 115  239 0 255
3  133 112 111  239 0 255
3  29 108 28  0 255 209
4  27 28 120 133  239 0 255
4  114 115 132 110  239 0 255
4  129 20 19 100  59 0 255
5  129 92 140 99 54  59 0 255
5  99 74 36 33 54  255 179 0
4  42 128 119 43  255 89 0
5  128 107 101 104 119  255 89 0
4  8 9 146 142  255 0 180
4  10 143 145 11  255 0 180
4  10 8 142 143  255 0 180
4  9 11 145 146  255 0 180
5  127 126 79 56 55  255 179 0
6  23 22 52 72 118 93  59 0 255
4  125 47 22 23  150 255 0
4  23 93 91 18  59 0 255
5  6 124 123 122 82  0 30 255
4  123 89 85 122  0 30 255
3  80 121 81  0 210 255
4  109 120 28 108  239 0 255
4  43 119 104 44  255 89 0
3  118 72 73  59 0 255
4  53 73 97 98  255 0 90
4  98 97 72 52  255 0 90
5  98 115 114 74 53  0 255 209
4  113 141 111 112  239 0 255
4  141 27 133 111  239 0 255
3  150 114 36  0 255 209
4  108 29 30 34  0 255 209
4  29 147 66 30  240 255 0
4  36 114 110 64  239 0 255
4  65 109 108 34  239 0 255
4  158 88 89 168  0 30 255
4  158 168 169 157  0 30 255
4  124 157 169 123  0 30 255
4  169 168 89 123  0 30 255
4  146 145 143 142  255 0 180
5  140 118 73 53 99  59 0 255
4  92 93 118 140  59 0 255
4  87 17 19 86  150 255 0
4  92 129 100 90  59 0 255
4  101 107 41 40  255 89 0
4  10 106 105 8  255 0 0
4  104 101 102 103  255 89 0
4  103 102 37 38  255 89 0
5  44 104 103 38 45  255 89 0
5  102 101 40 39 37  255 89 0
4  19 17 90 100  59 0 255
3  53 74 99  255 179 0
3  72 97 73  255 0 90
3  63 71 96  0 255 209
3  56 80 55  0 255 29
3  78 95 79  0 120 255
4  94 18 17 87  150 255 0
4  93 92 90 91  59 0 255
4  17 18 91 90  59 0 255
5  89 85 83 5 88  60 255 0
5  85 89 88 5 83  0 30 255
3  84 88 5  60 255 0
3  88 84 5  0 210 255
5  60 84 5 3 59  60 255 0
5  84 60 59 3 5  0 255 29
4  87 60 59 86  60 255 0
4  60 87 86 59  150 255 0
3  83 3 5  60 255 0
3  3 83 5  0 255 119
3  1 75 61  0 120 255
3  75 1 61  150 255 0
5  84 1 61 6 5  0 210 255
5  1 84 5 6 61  0 255 29
4  83 5 6 82  0 30 255
4  83 82 6 5  0 255 119
6  81 6 61 50 56 80  0 210 255
6  6 81 80 56 50 61  0 255 29
6  79 56 49 48 77 78  0 120 255
6  56 79 78 77 48 49  255 179 0
4  76 48 49 75  0 120 255
4  76 75 49 48  150 255 0
4  75 61 50 49  150 255 0
4  75 49 50 61  0 120 255
3  56 49 50  255 179 0
3  36 64 35  239 0 255
3  64 36 35  149 0 255
8  74 36 35 25 70 71 63 53  0 255 209
8  36 74 53 63 71 70 25 35  255 179 0
4  73 53 52 72  255 0 90
4  53 73 72 52  59 0 255
3  63 52 53  0 255 209
3  52 63 53  255 179 0
4  69 25 31 62  240 255 0
4  25 69 62 31  255 179 0
6  68 62 31 30 66 67  240 255 0
6  62 68 67 66 30 31  255 179 0
3  34 30 31  0 255 209
3  65 34 64  239 0 255
3  34 65 64  149 0 255
4  25 35 34 31  0 255 209
3  64 35 34  149 0 255
3  64 34 35  239 0 255
3  34 31 30  255 179 0
3  56 50 49  0 120 255
7  61 50 51 58 59 60 1  0 255 29
5  56 50 51 57 55  255 179 0
7  61 1 60 59 58 51 50  150 255 0
5  57 51 50 56 55  0 255 29
8  50 51 21 22 47 46 48 49  150 255 0
8  51 50 49 48 46 47 22 21  255 179 0
6  52 22 21 54 99 53  59 0 255
6  22 52 53 99 54 21  255 179 0
9  45 38 37 39 40 41 42 43 44  255 89 0
9  38 45 44 43 42 41 40 39 37  255 179 0
4  35 25 31 34  255 179 0
5  36 33 32 34 35  149 0 255
5  33 36 35 34 32  255 179 0
8  31 25 24 26 27 28 29 30  240 255 0
8  25 31 30 29 28 27 26 24  0 255 209
7  23 18 17 19 20 21 22  59 0 255
7  18 23 22 21 20 19 17  150 255 0
4  11 9 8 10  255 0 180
4  9 11 10 8  255 0 0
8  7 16 14 13 12 152 153 15  60 255 0
8  16 7 15 153 152 12 13 14  255 0 0
4  5 6 4 3  0 255 119
4  6 5 3 4  0 255 29
10  114 36 35 34 108 28 27 141 113 115  239 0 255
10  36 114 115 113 141 27 28 108 34 35  0 255 209
3  98 52 53  255 0 90
3  52 98 53  0 255 209
6  158 157 124 6 5 88  0 30 255
6  157 158 88 5 6 124  0 210 255
7  2 136 56 50 61 1 0  0 210 255
7  136 2 0 1 61 50 56  0 120 255

