OFF
452 344 0
-2398.742187500000 -2076.718750000000 2.989941596985
-2402.531250000000 -2067.937500000000 3.060052871704
-2397.070312500000 -2079.812500000000 2.958014011383
-2397.984375000000 -2080.218750000000 2.978134393692
-2398.117187500000 -2079.937500000000 2.980625629425
-2397.421875000000 -2079.625000000000 2.965315818787
-2415.523437500000 -2075.875000000000 7.840029239655
-2415.218750000000 -2075.750000000000 7.856053352356
-2406.632812500000 -2068.187500000000 3.691753864288
-2406.007812500000 -2069.562500000000 5.588541030884
-2413.375000000000 -2079.781250000000 3.465852260590
-2414.750000000000 -2076.781250000000 7.615451812744
-2415.046875000000 -2076.906250000000 7.628462314606
-2402.335937500000 -2078.375000000000 5.784047603607
-2403.335937500000 -2076.187500000000 5.791321754456
-2409.132812500000 -2078.843750000000 5.748065471649
-2409.515625000000 -2078.000000000000 5.750885963440
-2416.742187500000 -2072.437500000000 5.746387958527
-2413.117187500000 -2070.750000000000 5.773585319519
-2413.328125000000 -2070.281250000000 5.775160312653
-2409.601562500000 -2068.593750000000 5.598866462708
-2409.218750000000 -2069.375000000000 5.564780712128
-2399.774169921875 -2073.933105468750 3.008533954620
-2402.499023437500 -2068.007812500000 3.059448719025
-2403.212402343750 -2075.446533203125 3.084202051163
-2405.913818359375 -2069.572509765625 3.134679794312
-2405.934326171875 -2069.528076171875 3.135061979294
-2405.960449218750 -2069.540527343750 3.135639429092
-2402.014404296875 -2078.226806640625 3.062036752701
-2415.922607421875 -2074.219482421875 5.740486145020
-2405.960449218750 -2069.540527343750 5.587940216064
-2409.053466796875 -2069.299072265625 3.699847936630
-2415.320312500000 -2076.314453125000 8.448097229004
-2415.320312500000 -2076.314453125000 8.448097229004
-2405.024658203125 -2071.600585937500 8.429753303528
-2403.266601562500 -2075.470458984375 3.085392951965
-2409.651611328125 -2078.062744140625 3.474921703339
-2415.922607421875 -2074.219482421875 5.740486145020
-2413.166015625000 -2070.207763671875 5.776364803314
-2412.156982421875 -2072.525634765625 5.768408775330
-2405.885742187500 -2069.705078125000 5.814909934998
-2414.124511718750 -2078.146240234375 5.727443695068
-2404.160156250000 -2073.503173828125 5.802226066589
-2410.409179687500 -2076.415039062500 5.755326271057
-2408.696777343750 -2070.969482421875 5.794065952301
-2402.014404296875 -2078.226806640625 5.786451816559
-2409.651611328125 -2078.062744140625 5.749869346619
-2409.747802734375 -2068.659912109375 5.801769733429
-2412.156982421875 -2072.525634765625 5.768408775330
-2410.454589843750 -2076.436035156250 5.754986286163
-2409.291748046875 -2073.554443359375 8.437355995178
-2412.156982421875 -2072.525634765625 5.768408775330
-2413.166015625000 -2070.207763671875 5.776364803314
-2409.291748046875 -2073.554443359375 8.437355995178
-2409.613769531250 -2073.438720703125 8.137423515320
-2411.407714843750 -2069.411621093750 8.106349945068
-2411.444824218750 -2078.890380859375 3.470553874969
-2407.875732421875 -2068.758300781250 3.695909976959
-2408.696777343750 -2070.969482421875 5.794065952301
-2409.420410156250 -2073.873046875000 8.140773773193
-2409.731445312500 -2073.755615234375 8.438139915466
-2409.613769531250 -2073.438720703125 8.137423515320
-2405.807128906250 -2077.319824218750 5.772881507874
-2406.951904296875 -2074.803955078125 5.781274318695
-2408.512939453125 -2070.474365234375 5.324332237244
-2409.053466796875 -2069.299072265625 5.334851741791
-2406.951904296875 -2074.803955078125 5.781274318695
-2409.731445312500 -2073.755615234375 8.438139915466
-2411.407714843750 -2069.411621093750 8.106349945068
-2409.613769531250 -2073.438720703125 8.137423515320
-2408.642578125000 -2070.822998046875 5.655092716217
-2408.742675781250 -2070.868896484375 5.794401645660
-2408.642578125000 -2070.822998046875 5.655092716217
-2415.945800781250 -2074.169433593750 5.740652084351
-2412.190429687500 -2072.448730468750 5.768673419952
-2410.416992187500 -2071.635986328125 8.123513221741
-2405.940429687500 -2069.584716796875 3.135263681412
-2410.416992187500 -2071.635986328125 8.123513221741
-2412.190429687500 -2072.448730468750 5.768673419952
-2405.940429687500 -2069.584716796875 5.649124622345
-2401.947998046875 -2078.196044921875 3.060572862625
-2413.034423828125 -2070.510253906250 5.775327205658
-2413.191894531250 -2070.583740234375 5.774143695831
-2411.282958984375 -2069.691650390625 8.108510017395
-2409.629882812500 -2068.918945312500 5.800906181335
-2411.282958984375 -2069.691650390625 8.108510017395
-2409.477294921875 -2068.847412109375 5.587795734406
-2413.034423828125 -2070.510253906250 5.775327205658
-2405.885742187500 -2069.705078125000 5.814909934998
-2405.940429687500 -2069.584716796875 5.649124622345
-2405.024658203125 -2071.600585937500 8.429753303528
-2405.960449218750 -2069.540527343750 5.587940216064
-2402.014404296875 -2078.226806640625 3.062036752701
-2403.266601562500 -2075.470458984375 3.085392951965
-2404.160156250000 -2073.503173828125 5.802226066589
-2402.014404296875 -2078.226806640625 5.786451816559
-2405.940429687500 -2069.584716796875 3.135263681412
-2405.960449218750 -2069.540527343750 3.135639429092
-2405.024658203125 -2071.600585937500 8.429753303528
-2404.160156250000 -2073.503173828125 5.802226066589
-2415.844726562500 -2074.184570312500 5.741063594818
-2416.656494140625 -2072.397705078125 5.747030735016
-2415.867919921875 -2074.133789062500 5.741232872009
-2415.844726562500 -2074.184570312500 5.741063594818
-2414.058837890625 -2078.115722656250 5.727935791016
-2413.314697265625 -2079.753417968750 3.465998888016
-2414.953369140625 -2076.146484375000 8.447443008423
-2414.953369140625 -2076.146484375000 8.447443008423
-2397.156982421875 -2079.851074218750 2.959920167923
-2399.833496093750 -2073.959228515625 3.009842634201
-2402.530761718750 -2068.022460937500 3.060148477554
-2402.562500000000 -2067.952148437500 3.060743331909
-2403.226562500000 -2075.558593750000 3.084645748138
-2403.172363281250 -2075.533935546875 3.083450794220
-2403.226562500000 -2075.558593750000 5.795362472534
-2406.030761718750 -2076.828369140625 5.774521350861
-2409.362548828125 -2078.337158203125 5.749758720398
-2399.809814453125 -2074.011474609375 3.009401321411
-2399.750488281250 -2073.984375000000 3.008092880249
-2403.226562500000 -2075.558593750000 3.084645748138
-2403.226562500000 -2075.558593750000 5.795362472534
-2413.247070312500 -2070.244628906250 5.775762557983
-2413.108886718750 -2070.544921875000 5.774767398834
-2412.190917968750 -2072.541015625000 5.768157005310
-2410.409179687500 -2076.415039062500 5.755326271057
-2409.651611328125 -2078.062744140625 5.749869346619
-2410.428955078125 -2076.372558593750 5.814266681671
-2410.409179687500 -2076.415039062500 5.755326271057
-2409.651611328125 -2078.062744140625 3.474921703339
-2411.301757812500 -2074.474609375000 8.440937042236
-2412.225830078125 -2072.464843750000 5.768408775330
-2412.190917968750 -2072.541015625000 5.768157005310
-2411.301757812500 -2074.474609375000 8.440937042236
-2405.666503906250 -2076.663574218750 5.777227878571
-2405.441650390625 -2077.152343750000 5.775608539581
-2407.478271484375 -2072.724121093750 8.434124946594
-2408.512939453125 -2070.474365234375 5.324332237244
-2409.053466796875 -2069.299072265625 3.699847936630
-2408.512939453125 -2070.474365234375 5.324332237244
-2406.597656250000 -2074.638916015625 5.783932685852
-2407.478271484375 -2072.724121093750 8.434124946594
-2406.597656250000 -2074.638916015625 5.783932685852
-2409.053466796875 -2069.299072265625 5.334851741791
-2408.355957031250 -2070.815917968750 5.796594142914
-2408.403076171875 -2070.713134765625 5.654563903809
-2411.200195312500 -2069.877685546875 8.109946250916
-2412.962402343750 -2070.675781250000 5.774758815765
-2413.033935546875 -2070.708251953125 5.774227142334
-2411.200195312500 -2069.877685546875 8.109946250916
-2409.536376953125 -2069.124267578125 5.800220489502
-2412.962402343750 -2070.675781250000 5.774758815765
-2409.376953125000 -2069.052246093750 5.578866004944
-2413.118652343750 -2070.746582031250 5.773596763611
-2403.205566406250 -2075.549072265625 3.084185838699
-2403.245605468750 -2075.461181640625 3.084931135178
-2401.993408203125 -2078.217285156250 3.061578035355
-2405.919677734375 -2069.575195312500 3.134804487228
-2405.939697265625 -2069.530761718750 3.135181665421
-2408.845703125000 -2069.750732421875 4.324126243591
-2410.841308593750 -2070.683349609375 8.116163253784
-2408.845703125000 -2069.750732421875 5.330809116364
-2410.841308593750 -2070.683349609375 8.116163253784
-2412.600830078125 -2071.505859375000 5.771909236908
-2412.655273437500 -2071.531250000000 5.771500587463
-2409.180175781250 -2069.906982421875 5.797609806061
-2416.280273437500 -2073.225830078125 5.744265079498
-2416.362060546875 -2073.263916015625 5.743650913239
-2408.117919921875 -2069.410644531250 4.314873218536
-2408.845703125000 -2069.750732421875 5.330809116364
-2412.600830078125 -2071.505859375000 5.771909236908
-2408.845703125000 -2069.750732421875 4.324126243591
-2406.434570312500 -2068.623779296875 4.293469905853
-2402.030273437500 -2078.191894531250 5.786568641663
-2402.352783203125 -2078.337890625000 5.784170627594
-2402.030273437500 -2078.191894531250 3.062333345413
-2402.009277343750 -2078.182373046875 3.061873435974
-2401.963867187500 -2078.161621093750 3.060869455338
-2402.030273437500 -2078.191894531250 5.786568641663
-2398.613525390625 -2076.644531250000 2.987088918686
-2398.541992187500 -2076.612304687500 2.985513210297
-2402.030273437500 -2078.191894531250 3.062333345413
-2414.852050781250 -2073.738037109375 5.748424530029
-2413.954589843750 -2075.689208984375 8.445663452148
-2415.677978515625 -2071.942138671875 5.754372596741
-2415.298583984375 -2072.766845703125 5.751640796661
-2414.878417968750 -2073.680419921875 5.748615264893
-2414.852050781250 -2073.738037109375 5.748424530029
-2413.053955078125 -2077.647460937500 5.735476970673
-2412.300781250000 -2079.285400390625 3.468468904495
-2413.954589843750 -2075.689208984375 8.445663452148
-2401.947998046875 -2078.196044921875 3.060572862625
-2398.742187500000 -2076.718750000000 2.989941596985
-2398.742187500000 -2076.718750000000 0.000000000000
-2401.947998046875 -2078.196044921875 -0.000000000000
-2402.499023437500 -2068.007812500000 3.059448719025
-2402.531250000000 -2067.937500000000 3.060052871704
-2402.531250000000 -2067.937500000000 0.000000000000
-2402.499023437500 -2068.007812500000 0.000000000000
-2397.156982421875 -2079.851074218750 2.959920167923
-2397.070312500000 -2079.812500000000 2.958014011383
-2397.070312500000 -2079.812500000000 0.000000000000
-2397.156982421875 -2079.851074218750 0.000000000000
-2398.117187500000 -2079.937500000000 2.980625629425
-2397.984375000000 -2080.218750000000 2.978134393692
-2397.984375000000 -2080.218750000000 0.000000000000
-2398.117187500000 -2079.937500000000 0.000000000000
-2397.421875000000 -2079.625000000000 2.965315818787
-2398.117187500000 -2079.937500000000 2.980625629425
-2398.117187500000 -2079.937500000000 0.000000000000
-2397.421875000000 -2079.625000000000 0.000000000000
-2398.742187500000 -2076.718750000000 2.989941596985
-2397.421875000000 -2079.625000000000 2.965315818787
-2397.421875000000 -2079.625000000000 0.000000000000
-2398.742187500000 -2076.718750000000 0.000000000000
-2415.218750000000 -2075.750000000000 7.856053352356
-2415.523437500000 -2075.875000000000 7.840029239655
-2415.523437500000 -2075.875000000000 0.000000000000
-2415.218750000000 -2075.750000000000 0.000000000000
-2415.922607421875 -2074.219482421875 5.740486145020
-2415.218750000000 -2075.750000000000 7.856053352356
-2415.218750000000 -2075.750000000000 0.000000000000
-2415.922607421875 -2074.219482421875 0.000000000000
-2406.434570312500 -2068.623779296875 4.293469905853
-2406.632812500000 -2068.187500000000 3.691753864288
-2406.632812500000 -2068.187500000000 0.000000000000
-2406.434570312500 -2068.623779296875 0.000000000000
-2405.960449218750 -2069.540527343750 5.587940216064
-2406.007812500000 -2069.562500000000 5.588541030884
-2406.007812500000 -2069.562500000000 0.000000000000
-2405.960449218750 -2069.540527343750 -0.000000000000
-2414.124511718750 -2078.146240234375 5.727443695068
-2413.375000000000 -2079.781250000000 3.465852260590
-2413.375000000000 -2079.781250000000 0.000000000000
-2414.124511718750 -2078.146240234375 0.000000000000
-2415.046875000000 -2076.906250000000 7.628462314606
-2414.750000000000 -2076.781250000000 7.615451812744
-2414.750000000000 -2076.781250000000 -0.000000000000
-2415.046875000000 -2076.906250000000 -0.000000000000
-2415.320312500000 -2076.314453125000 8.448097229004
-2415.046875000000 -2076.906250000000 7.628462314606
-2415.046875000000 -2076.906250000000 -0.000000000000
-2415.320312500000 -2076.314453125000 0.000000000000
-2402.352783203125 -2078.337890625000 5.784170627594
-2402.335937500000 -2078.375000000000 5.784047603607
-2402.335937500000 -2078.375000000000 0.000000000000
-2402.352783203125 -2078.337890625000 -0.000000000000
-2405.441650390625 -2077.152343750000 5.775608539581
-2403.335937500000 -2076.187500000000 5.791321754456
-2403.335937500000 -2076.187500000000 0.000000000000
-2405.441650390625 -2077.152343750000 0.000000000000
-2409.362548828125 -2078.337158203125 5.749758720398
-2409.132812500000 -2078.843750000000 5.748065471649
-2409.132812500000 -2078.843750000000 0.000000000000
-2409.362548828125 -2078.337158203125 -0.000000000000
-2409.651611328125 -2078.062744140625 5.749869346619
-2409.515625000000 -2078.000000000000 5.750885963440
-2409.515625000000 -2078.000000000000 0.000000000000
-2409.651611328125 -2078.062744140625 0.000000000000
-2416.656494140625 -2072.397705078125 5.747030735016
-2416.742187500000 -2072.437500000000 5.746387958527
-2416.742187500000 -2072.437500000000 0.000000000000
-2416.656494140625 -2072.397705078125 0.000000000000
-2413.118652343750 -2070.746582031250 5.773596763611
-2413.117187500000 -2070.750000000000 5.773585319519
-2413.117187500000 -2070.750000000000 0.000000000000
-2413.118652343750 -2070.746582031250 0.000000000000
-2413.247070312500 -2070.244628906250 5.775762557983
-2413.328125000000 -2070.281250000000 5.775160312653
-2413.328125000000 -2070.281250000000 0.000000000000
-2413.247070312500 -2070.244628906250 0.000000000000
-2409.477294921875 -2068.847412109375 5.587795734406
-2409.601562500000 -2068.593750000000 5.598866462708
-2409.601562500000 -2068.593750000000 0.000000000000
-2409.477294921875 -2068.847412109375 0.000000000000
-2409.053466796875 -2069.299072265625 5.334851741791
-2409.218750000000 -2069.375000000000 5.564780712128
-2409.218750000000 -2069.375000000000 0.000000000000
-2409.053466796875 -2069.299072265625 0.000000000000
-2399.750488281250 -2073.984375000000 3.008092880249
-2399.774169921875 -2073.933105468750 3.008533954620
-2399.774169921875 -2073.933105468750 0.000000000000
-2399.750488281250 -2073.984375000000 0.000000000000
-2399.774169921875 -2073.933105468750 3.008533954620
-2402.499023437500 -2068.007812500000 3.059448719025
-2402.499023437500 -2068.007812500000 0.000000000000
-2399.774169921875 -2073.933105468750 0.000000000000
-2402.562500000000 -2067.952148437500 3.060743331909
-2405.934326171875 -2069.528076171875 3.135061979294
-2405.934326171875 -2069.528076171875 0.000000000000
-2402.562500000000 -2067.952148437500 0.000000000000
-2415.945800781250 -2074.169433593750 5.740652084351
-2415.922607421875 -2074.219482421875 5.740486145020
-2415.922607421875 -2074.219482421875 0.000000000000
-2415.945800781250 -2074.169433593750 0.000000000000
-2415.523437500000 -2075.875000000000 7.840029239655
-2415.320312500000 -2076.314453125000 8.448097229004
-2415.320312500000 -2076.314453125000 0.000000000000
-2415.523437500000 -2075.875000000000 0.000000000000
-2411.407714843750 -2069.411621093750 8.106349945068
-2413.166015625000 -2070.207763671875 5.776364803314
-2413.166015625000 -2070.207763671875 0.000000000000
-2411.407714843750 -2069.411621093750 0.000000000000
-2414.750000000000 -2076.781250000000 7.615451812744
-2414.124511718750 -2078.146240234375 5.727443695068
-2414.124511718750 -2078.146240234375 0.000000000000
-2414.750000000000 -2076.781250000000 -0.000000000000
-2409.601562500000 -2068.593750000000 5.598866462708
-2409.747802734375 -2068.659912109375 5.801769733429
-2409.747802734375 -2068.659912109375 0.000000000000
-2409.601562500000 -2068.593750000000 0.000000000000
-2409.747802734375 -2068.659912109375 5.801769733429
-2411.407714843750 -2069.411621093750 8.106349945068
-2411.407714843750 -2069.411621093750 0.000000000000
-2409.747802734375 -2068.659912109375 0.000000000000
-2412.300781250000 -2079.285400390625 3.468468904495
-2411.444824218750 -2078.890380859375 3.470553874969
-2411.444824218750 -2078.890380859375 0.000000000000
-2412.300781250000 -2079.285400390625 0.000000000000
-2406.632812500000 -2068.187500000000 3.691753864288
-2407.875732421875 -2068.758300781250 3.695909976959
-2407.875732421875 -2068.758300781250 0.000000000000
-2406.632812500000 -2068.187500000000 0.000000000000
-2409.132812500000 -2078.843750000000 5.748065471649
-2405.807128906250 -2077.319824218750 5.772881507874
-2405.807128906250 -2077.319824218750 0.000000000000
-2409.132812500000 -2078.843750000000 0.000000000000
-2416.362060546875 -2073.263916015625 5.743650913239
-2415.945800781250 -2074.169433593750 5.740652084351
-2415.945800781250 -2074.169433593750 0.000000000000
-2416.362060546875 -2073.263916015625 0.000000000000
-2401.993408203125 -2078.217285156250 3.061578035355
-2401.947998046875 -2078.196044921875 3.060572862625
-2401.947998046875 -2078.196044921875 -0.000000000000
-2401.993408203125 -2078.217285156250 0.000000000000
-2413.328125000000 -2070.281250000000 5.775160312653
-2413.191894531250 -2070.583740234375 5.774143695831
-2413.191894531250 -2070.583740234375 0.000000000000
-2413.328125000000 -2070.281250000000 0.000000000000
-2409.376953125000 -2069.052246093750 5.578866004944
-2409.477294921875 -2068.847412109375 5.587795734406
-2409.477294921875 -2068.847412109375 0.000000000000
-2409.376953125000 -2069.052246093750 -0.000000000000
-2402.335937500000 -2078.375000000000 5.784047603607
-2402.014404296875 -2078.226806640625 5.786451816559
-2402.014404296875 -2078.226806640625 0.000000000000
-2402.335937500000 -2078.375000000000 0.000000000000
-2405.939697265625 -2069.530761718750 3.135181665421
-2405.960449218750 -2069.540527343750 3.135639429092
-2405.960449218750 -2069.540527343750 0.000000000000
-2405.939697265625 -2069.530761718750 0.000000000000
-2415.677978515625 -2071.942138671875 5.754372596741
-2416.656494140625 -2072.397705078125 5.747030735016
-2416.656494140625 -2072.397705078125 0.000000000000
-2415.677978515625 -2071.942138671875 0.000000000000
-2413.375000000000 -2079.781250000000 3.465852260590
-2413.314697265625 -2079.753417968750 3.465998888016
-2413.314697265625 -2079.753417968750 0.000000000000
-2413.375000000000 -2079.781250000000 0.000000000000
-2397.984375000000 -2080.218750000000 2.978134393692
-2397.156982421875 -2079.851074218750 2.959920167923
-2397.156982421875 -2079.851074218750 0.000000000000
-2397.984375000000 -2080.218750000000 0.000000000000
-2402.531250000000 -2067.937500000000 3.060052871704
-2402.562500000000 -2067.952148437500 3.060743331909
-2402.562500000000 -2067.952148437500 0.000000000000
-2402.531250000000 -2067.937500000000 0.000000000000
-2409.515625000000 -2078.000000000000 5.750885963440
-2409.362548828125 -2078.337158203125 5.749758720398
-2409.362548828125 -2078.337158203125 -0.000000000000
-2409.515625000000 -2078.000000000000 0.000000000000
-2398.541992187500 -2076.612304687500 2.985513210297
-2399.750488281250 -2073.984375000000 3.008092880249
-2399.750488281250 -2073.984375000000 0.000000000000
-2398.541992187500 -2076.612304687500 -0.000000000000
-2413.166015625000 -2070.207763671875 5.776364803314
-2413.247070312500 -2070.244628906250 5.775762557983
-2413.247070312500 -2070.244628906250 0.000000000000
-2413.166015625000 -2070.207763671875 0.000000000000
-2411.444824218750 -2078.890380859375 3.470553874969
-2409.651611328125 -2078.062744140625 3.474921703339
-2409.651611328125 -2078.062744140625 0.000000000000
-2411.444824218750 -2078.890380859375 0.000000000000
-2405.807128906250 -2077.319824218750 5.772881507874
-2405.441650390625 -2077.152343750000 5.775608539581
-2405.441650390625 -2077.152343750000 0.000000000000
-2405.807128906250 -2077.319824218750 0.000000000000
-2407.875732421875 -2068.758300781250 3.695909976959
-2409.053466796875 -2069.299072265625 3.699847936630
-2409.053466796875 -2069.299072265625 0.000000000000
-2407.875732421875 -2068.758300781250 0.000000000000
-2409.218750000000 -2069.375000000000 5.564780712128
-2409.376953125000 -2069.052246093750 5.578866004944
-2409.376953125000 -2069.052246093750 -0.000000000000
-2409.218750000000 -2069.375000000000 0.000000000000
-2413.191894531250 -2070.583740234375 5.774143695831
-2413.118652343750 -2070.746582031250 5.773596763611
-2413.118652343750 -2070.746582031250 0.000000000000
-2413.191894531250 -2070.583740234375 0.000000000000
-2402.014404296875 -2078.226806640625 3.062036752701
-2401.993408203125 -2078.217285156250 3.061578035355
-2401.993408203125 -2078.217285156250 0.000000000000
-2402.014404296875 -2078.226806640625 -0.000000000000
-2405.934326171875 -2069.528076171875 3.135061979294
-2405.939697265625 -2069.530761718750 3.135181665421
-2405.939697265625 -2069.530761718750 0.000000000000
-2405.934326171875 -2069.528076171875 0.000000000000
-2416.742187500000 -2072.437500000000 5.746387958527
-2416.362060546875 -2073.263916015625 5.743650913239
-2416.362060546875 -2073.263916015625 0.000000000000
-2416.742187500000 -2072.437500000000 0.000000000000
-2406.007812500000 -2069.562500000000 5.588541030884
-2406.434570312500 -2068.623779296875 4.293469905853
-2406.434570312500 -2068.623779296875 0.000000000000
-2406.007812500000 -2069.562500000000 0.000000000000
-2403.335937500000 -2076.187500000000 5.791321754456
-2402.352783203125 -2078.337890625000 5.784170627594
-2402.352783203125 -2078.337890625000 -0.000000000000
-2403.335937500000 -2076.187500000000 0.000000000000
-2397.070312500000 -2079.812500000000 2.958014011383
-2398.541992187500 -2076.612304687500 2.985513210297
-2398.541992187500 -2076.612304687500 -0.000000000000
-2397.070312500000 -2079.812500000000 0.000000000000
-2413.117187500000 -2070.750000000000 5.773585319519
-2415.677978515625 -2071.942138671875 5.754372596741
-2415.677978515625 -2071.942138671875 0.000000000000
-2413.117187500000 -2070.750000000000 0.000000000000
-2413.314697265625 -2079.753417968750 3.465998888016
-2412.300781250000 -2079.285400390625 3.468468904495
-2412.300781250000 -2079.285400390625 0.000000000000
-2413.314697265625 -2079.753417968750 0.000000000000
-2398.742187500000 -2076.718750000000 0.000000000000
-2402.335937500000 -2078.375000000000 0.000000000000
-2403.335937500000 -2076.187500000000 0.000000000000
-2409.132812500000 -2078.843750000000 0.000000000000
-2409.515625000000 -2078.000000000000 0.000000000000
-2413.375000000000 -2079.781250000000 0.000000000000
-2414.750000000000 -2076.781250000000 0.000000000000
-2415.046875000000 -2076.906250000000 0.000000000000
-2415.523437500000 -2075.875000000000 0.000000000000
-2415.218750000000 -2075.750000000000 0.000000000000
-2416.742187500000 -2072.437500000000 0.000000000000
-2413.117187500000 -2070.750000000000 0.000000000000
-2413.328125000000 -2070.281250000000 0.000000000000
-2409.601562500000 -2068.593750000000 0.000000000000
-2409.218750000000 -2069.375000000000 0.000000000000
-2406.632812500000 -2068.187500000000 0.000000000000
-2406.007812500000 -2069.562500000000 0.000000000000
-2402.531250000000 -2067.937500000000 0.000000000000
-2397.070312500000 -2079.812500000000 0.000000000000
-2397.984375000000 -2080.218750000000 0.000000000000
-2398.117187500000 -2079.937500000000 0.000000000000
-2397.421875000000 -2079.625000000000 0.000000000000
3 133 115 63
3 133 63 139
3 170 64 168
3 111 1 23
3 111 23 110
3 110 23 22
3 110 22 109
3 156 25 24
3 156 24 154
3 157 26 25
3 157 25 156
3 66 140 141
3 66 59 140
3 59 50 140
3 79 30 27
3 79 27 76
3 180 28 45
3 180 45 177
3 43 36 46
3 71 44 54
3 71 54 75
3 123 48 129
3 48 61 129
3 129 61 67
3 159 77 78
3 159 78 169
3 42 34 40
3 70 44 71
3 167 136 158
3 60 50 59
3 103 29 73
3 103 73 102
3 105 10 41
3 105 41 104
3 106 11 32
3 11 12 32
3 11 106 104
3 41 11 104
3 179 2 108
3 179 108 178
3 127 49 126
3 61 53 67
3 128 56 49
3 128 49 127
3 84 47 20
3 84 20 86
3 122 82 19
3 122 19 121
3 76 40 79
3 76 35 42
3 76 42 40
3 83 55 47
3 83 47 84
3 77 69 39
3 77 39 78
3 176 80 155
3 176 155 175
3 166 17 101
3 166 101 165
3 145 83 84
3 145 84 149
3 149 84 86
3 149 86 151
3 87 38 68
3 87 68 85
3 144 89 88
3 144 88 143
3 144 9 89
3 144 136 9
3 9 167 171
3 136 167 9
3 89 9 91
3 143 88 90
3 143 90 135
3 152 82 122
3 152 122 147
3 186 103 102
3 186 102 185
3 188 105 104
3 188 104 187
3 187 104 106
3 187 106 189
3 33 7 107
3 7 37 100
3 33 6 7
3 107 7 100
3 3 5 108
3 3 4 5
3 80 176 0
3 5 178 108
3 0 176 178
3 0 178 5
3 110 25 26
3 110 26 111
3 109 24 25
3 109 25 110
3 154 24 113
3 154 113 153
3 115 62 15
3 115 15 116
3 117 109 22
3 117 22 118
3 134 62 115
3 134 115 133
3 114 42 35
3 114 35 119
3 113 24 109
3 113 109 117
3 121 52 81
3 121 81 122
3 16 125 124
3 16 124 63
3 16 115 116
3 63 115 16
3 126 59 66
3 126 66 127
3 181 123 129
3 181 129 182
3 147 122 81
3 147 81 146
3 130 74 51
3 130 51 131
3 132 60 59
3 132 59 126
3 173 14 172
3 134 133 14
3 14 133 120
3 14 120 172
3 139 94 120
3 139 120 133
3 140 98 99
3 140 99 141
3 143 58 72
3 143 72 144
3 144 72 136
3 61 135 53
3 61 58 135
3 58 143 135
3 163 147 146
3 163 146 162
3 161 145 149
3 161 149 164
3 150 87 85
3 150 85 148
3 142 160 21
3 21 160 164
3 21 164 149
3 149 151 21
3 184 165 101
3 184 101 183
3 153 112 93
3 153 93 154
3 175 155 92
3 175 92 174
3 154 93 96
3 154 96 156
3 156 96 97
3 156 97 157
3 162 74 130
3 162 130 163
3 164 71 75
3 164 75 161
3 70 164 138
3 138 164 160
3 70 71 164
3 185 102 165
3 185 165 184
3 165 102 73
3 165 73 166
3 158 137 57
3 158 57 167
3 168 65 31
3 168 31 170
3 169 150 148
3 169 148 159
3 167 57 8
3 167 8 171
3 172 95 13
3 172 13 173
3 174 112 153
3 174 153 175
3 175 153 113
3 175 113 176
3 178 117 118
3 178 118 179
3 177 114 119
3 177 119 180
3 176 113 117
3 176 117 178
3 182 107 100
3 182 100 181
3 18 147 163
3 184 183 18
3 184 18 163
3 18 152 147
3 184 163 130
3 184 130 185
3 185 130 131
3 185 131 186
3 187 49 56
3 187 56 188
3 189 132 126
3 189 126 187
3 187 126 49
3 191 192 193
3 191 193 190
3 195 196 197
3 195 197 194
3 199 200 201
3 199 201 198
3 203 204 205
3 203 205 202
3 207 208 209
3 207 209 206
3 211 212 213
3 211 213 210
3 215 216 217
3 215 217 214
3 219 220 221
3 219 221 218
3 223 224 225
3 223 225 222
3 227 228 229
3 227 229 226
3 231 232 233
3 231 233 230
3 235 236 237
3 235 237 234
3 239 240 241
3 239 241 238
3 243 244 245
3 243 245 242
3 247 248 249
3 247 249 246
3 251 252 253
3 251 253 250
3 255 256 257
3 255 257 254
3 259 260 261
3 259 261 258
3 263 264 265
3 263 265 262
3 267 268 269
3 267 269 266
3 271 272 273
3 271 273 270
3 275 276 277
3 275 277 274
3 279 280 281
3 279 281 278
3 283 284 285
3 283 285 282
3 287 288 289
3 287 289 286
3 291 292 293
3 291 293 290
3 295 296 297
3 295 297 294
3 299 300 301
3 299 301 298
3 303 304 305
3 303 305 302
3 307 308 309
3 307 309 306
3 311 312 313
3 311 313 310
3 315 316 317
3 315 317 314
3 319 320 321
3 319 321 318
3 323 324 325
3 323 325 322
3 327 328 329
3 327 329 326
3 331 332 333
3 331 333 330
3 335 336 337
3 335 337 334
3 339 340 341
3 339 341 338
3 343 344 345
3 343 345 342
3 347 348 349
3 347 349 346
3 351 352 353
3 351 353 350
3 355 356 357
3 355 357 354
3 359 360 361
3 359 361 358
3 363 364 365
3 363 365 362
3 367 368 369
3 367 369 366
3 371 372 373
3 371 373 370
3 375 376 377
3 375 377 374
3 379 380 381
3 379 381 378
3 383 384 385
3 383 385 382
3 387 388 389
3 387 389 386
3 391 392 393
3 391 393 390
3 395 396 397
3 395 397 394
3 399 400 401
3 399 401 398
3 403 404 405
3 403 405 402
3 407 408 409
3 407 409 406
3 411 412 413
3 411 413 410
3 415 416 417
3 415 417 414
3 419 420 421
3 419 421 418
3 423 424 425
3 423 425 422
3 427 428 429
3 427 429 426
3 451 430 448
3 451 448 449
3 434 435 436
3 449 450 451
3 447 448 430
3 432 434 446
3 447 430 432
3 432 433 434
3 444 441 443
3 441 444 434
3 436 437 439
3 437 438 439
3 436 439 434
3 439 440 441
3 441 442 443
3 439 441 434
3 430 431 432
3 446 434 444
3 447 432 446
3 445 446 444
