OFF
1177 1111 0

39.3123 9.17227 -78.8768
39.3123 9.17227 -79.973
39.3123 9.17227 -77.8228
39.3123 9.17227 -74.289
38.9157 8.36007 -74.289
29.3125 6.0625 -74.289
31.5625 24.375 -74.289
32.2738 4.72286 -74.289
37.6875 7.6875 -74.289
33.6978 5.50267 -74.289
40.0288 8.96965 -74.289
40.9375 12.5 -74.289
41.1237 14.2504 -74.289
41.4122 16.962 -74.289
40.2385 19.1492 -74.289
39.9767 19.6371 -74.289
39.3125 20.875 -74.289
36.3361 23.5963 -74.289
35.1426 23.9941 -74.289
14.7868 4.88498 -74.289
15.5765 7.78067 -74.289
24.9451 2.01416 -74.289
26.5165 1.57006 -74.289
35.7558 -1.04105 -74.289
36.6757 -1.30101 -74.289
38.4411 -1.79993 -74.289
40.7283 -2.4463 -74.289
41.7804 -2.74366 -74.289
42.6054 0.308751 -74.289
41.922 0.497687 -74.289
39.3043 1.22132 -74.289
36.892 1.88819 -74.289
35.8902 2.16511 -74.289
30.671 3.60792 -74.289
27.1134 4.59141 -74.289
21.2635 6.20856 -74.289
20.4194 6.4419 -74.289
16.9846 7.39142 -74.289
19.9557 27.6919 -80.9993
20.9253 27.3927 -93.623
17.5722 28.4272 -93.623
17.5722 28.4272 -88.404
17.5722 28.4272 -81.217
19.9557 27.6919 -79.973
20.9253 27.3927 -79.973
-10.86 4.12652 -74.289
-10.3765 5.80724 -74.289
-9.85474 3.86428 -74.289
-9.39232 5.52128 -74.289
-15.4628 -0.302004 46.44
-16.0073 -4.11385 46.44
-15.2385 1.26825 46.44
-14.6875 5.125 46.44
-10.86 4.12652 46.44
-9.85474 3.86428 46.44
0.933887 1.04986 46.44
4.98064 -0.00581908 46.44
3.40067 -5.54185 46.44
2.37467 -9.13681 46.44
-14.6875 5.125 -88.404
9.09296 -1.0786 -88.404
-16.7786 5.67051 -88.404
-14.9071 7.12364 -88.404
-14.339 7.56482 -88.404
-13.9357 7.87797 -88.404
-10.318 10.687 -88.404
-9.09726 11.6348 -88.404
-8.58585 12.0319 -88.404
1.50243 19.8651 -88.404
13.9633 29.5406 -88.404
11.1057 5.92529 -88.404
10.75 4.6875 -88.404
-28.1555 -16.1999 46.44
-29.1333 -20.2742 46.44
-26.1998 -8.05122 46.44
-24.6857 -1.74245 46.44
-21.4345 -2.63086 46.44
-20.3027 -2.94013 46.44
-1.78437 -23.7096 46.44
-2.9375 -27.75 46.44
-6.96615 -26.6003 46.44
-18.7397 -23.2403 46.44
-24.6461 -21.5547 46.44
-27.259 -7.74161 -79.973
-30.2173 -24.7908 -79.973
-31.9522 -24.3221 -79.973
-35.1903 -23.4473 -79.973
-33.8107 -18.678 -79.973
-33.4613 -17.4705 -79.973
-31.3721 -10.2486 -79.973
-30.3951 -6.87129 -79.973
-30.3828 -6.8285 -79.973
-26.0049 -3.311 -79.973
-25.498 -1.52048 -79.973
-24.6857 -1.74245 -79.973
-25.5901 -5.51072 -79.973
-47.6805 -20.073 -79.973
-45.3125 -20.7127 -79.973
-49.3518 -19.6214 -79.973
-49.1866 -19.4932 -79.973
-47.9874 -18.562 -79.973
-47.9108 -18.5026 -79.973
-47.875 -18.5 -79.973
-46.0188 -18.3674 -79.973
-45.3125 -18.317 -79.973
-46.4387 -17.3596 -79.973
-46.2931 -17.7091 -79.973
-45.3125 -16.4851 -79.973
-45.3125 -17.2187 -79.973
14.7868 4.88498 -93.623
21.2604 28.6215 -93.623
14.7868 4.88498 -88.404
14.7868 4.88498 -79.973
15.5765 7.78067 -79.973
17.6285 15.3046 -79.973
18.2835 17.7062 -79.973
18.7653 19.4727 -79.973
20.3948 25.4475 -79.973
21.2604 28.6215 -79.973
21.2604 28.6215 -81.0298
21.2604 28.6215 -88.404
14.0888 16.3056 -79.973
17.9456 29.7265 -93.623
11.1057 5.92529 -93.623
11.1057 5.92529 -79.973
11.9287 8.78909 -79.973
17.5722 28.4272 -79.973
17.9456 29.7265 -88.404
-9.85474 3.86428 -79.973
-9.4081 5.46474 -79.973
-8.125 10.0625 -79.973
-8.125 10.0625 -78.8768
-8.125 10.0625 -76.4633
-8.125 10.0625 -74.289
-9.39232 5.52128 46.44
35.1426 23.9941 -79.973
22.3935 13.957 -79.973
41.7804 -2.74366 -79.973
38.4411 -1.79993 -79.973
35.7558 -1.04105 -79.973
26.5165 1.57006 -79.973
19.4506 14.7893 -79.973
21.7588 14.1365 -79.973
22.5 14.6875 -79.973
23.1676 19.2653 -79.973
23.8476 20.0091 -79.973
24.125 20.3125 -79.973
24.7075 20.9496 -79.973
27.0282 23.4878 -79.973
31.4472 24.3524 -79.973
31.5625 24.375 -79.973
31.9041 24.3387 -79.973
36.3361 23.5963 -79.973
36.7737 23.1962 -79.973
39.3125 20.875 -79.973
39.9767 19.6371 -79.973
40.2385 19.1492 -79.973
41.4122 16.962 -79.973
41.3012 15.9185 -79.973
41.1237 14.2504 -79.973
40.9375 12.5 -79.973
40.5464 8.82329 -79.973
41.4068 8.57996 -79.973
42.6611 8.22523 -79.973
44.597 7.67774 -79.973
-9.07461 10.3329 -79.973
-10.3765 5.80724 -79.973
9.09296 -1.0786 -79.973
-14.6875 5.125 -79.973
-14.4221 6.98271 -79.973
-10.318 10.687 -79.973
-9.09726 11.6348 -79.973
-8.58585 12.0319 -79.973
-7.29587 13.0335 -79.973
-7.78936 11.2652 -79.973
-0.919675 8.01065 -79.973
10.75 4.6875 -79.973
-16.0073 -4.11385 54.665
-15.2385 1.26825 -74.289
-16.0073 -4.11385 -93.623
-15.2385 1.26825 -79.973
-14.6875 5.125 -93.623
-15.4628 -0.302004 -93.623
-16.0073 -4.11385 -51.4215
-15.4628 -0.302004 54.665
-15.2385 1.26825 -76.4633
-15.2385 1.26825 -78.8768
-20.3027 -2.94013 -74.289
-21.4345 -2.63086 -79.973
-24.6857 -1.74245 -88.404
-20.3027 -2.94013 -93.623
-24.6857 -1.74245 -93.623
6.45668 -10.2522 -93.623
6.45668 -10.2522 -88.404
6.45668 -10.2522 -79.973
6.45668 -10.2522 -74.289
6.45668 -10.2522 46.44
2.37467 -9.13681 54.665
2.01557 -9.03869 54.665
-1.66148 -8.03392 54.665
-20.3027 -2.94013 54.665
-21.4345 -2.63086 -74.289
-21.4345 -2.63086 -76.4633
-21.4345 -2.63086 -78.8768
-17.5742 -19.2132 54.665
-5.8125 -22.5625 54.665
-18.1413 -19.0516 54.665
-23.6932 -17.4707 54.665
-21.7957 -9.33857 54.665
-19.43 0.8 54.665
-12.3803 -1.15825 54.665
-11.3372 -1.44799 54.665
-0.629596 -4.42233 54.665
-24.3101 -0.177415 -93.623
-30.2173 -24.7908 -74.289
-26.1998 -8.05122 -74.289
-30.2173 -24.7908 46.44
-30.2173 -24.7908 -76.4633
-30.2173 -24.7908 -77.951
-30.2173 -24.7908 -88.404
-30.2173 -24.7908 -93.623
-24.3101 -0.177415 -88.404
-24.6857 -1.74245 -78.8768
-24.6857 -1.74245 -76.4633
-24.6857 -1.74245 -74.289
-25.127 -3.58112 -74.289
9.09296 -1.0786 -74.289
9.09296 -1.0786 -72.3539
9.09296 -1.0786 46.44
-14.6875 5.125 -78.8768
-14.6875 5.125 -76.4633
-14.6875 5.125 -74.289
26.8316 23.2729 -72.2569
25.6595 21.9909 -72.3539
22.8237 16.9071 -72.2225
29.2634 15.5726 -70.1424
28.5518 14.4755 -70.1424
22.4064 14.046 -71.8129
33.8982 24.3348 -72.3539
34.5 24.0625 -72.3539
37.125 22.875 -72.3539
37.1269 22.8741 -72.3539
35.5804 23.5738 -72.0304
22.3935 13.957 -72.3539
22.5 14.6875 -72.3539
22.9575 17.8249 -72.3539
22.3935 13.957 -71.8001
30.5078 17.4913 -70.1424
26.663 23.5381 -72.3539
27.1201 23.5884 -72.3539
28.0853 23.6947 -72.3539
32.9363 24.2288 -72.3539
33.3432 17.8035 -70.1424
37.1286 22.8717 -72.3539
41.384 16.6968 -72.3539
41.9019 15.9453 -72.3539
34.6849 15.8566 -70.1424
26.5726 23.3987 -72.3539
27.3131 12.5657 -70.1424
32.7295 11.0339 -70.1424
41.0914 13.9464 -72.3539
39.1718 9.21203 -72.3539
25.2596 7.89596 -72.6839
26.6875 7.25 -72.4891
22.5 14.6875 -74.289
22.5 14.6875 -73.4414
21.7588 14.1365 -74.289
27.0282 23.4878 -73.4355
28.1693 24.736 -73.5374
33.3042 2.88 -72.3539
33.3042 2.88 -72.6778
41.869 12.2737 -72.8863
41.571 13.7971 -72.8632
32.25 5.6875 -72.8443
30.7879 5.39507 -72.8426
30.7879 5.39507 -72.3539
32.25 5.6875 -72.3539
40.6605 9.89651 -72.9948
39.8363 10.2451 -73.0224
30.3832 3.6875 -72.7517
30.3832 3.6875 -73.0195
30.3832 3.6875 -72.4753
30.2469 24.515 -74.289
29.2454 24.6215 -73.9266
28.5684 23.7892 -73.8871
29.9392 24.0574 -74.289
30.0913 24.5315 -73.9132
31.6727 25.3415 -73.9426
31.6727 25.3415 -72.7817
30.0913 24.5315 -72.5644
41.869 12.2737 -73.115
41.869 12.2737 -72.8022
40.7872 11.0872 -72.6172
27.1134 4.59141 -72.3539
28.2697 2.53013 -72.3539
26.5165 1.57006 -72.3539
30.3832 3.6875 -72.3539
31.0504 3.50304 -72.3539
35.2078 -0.564338 -72.3539
27.1134 4.59141 -72.8833
27.1134 4.59141 -73.0705
27.1134 4.59141 -72.8344
25.2596 7.89596 -73.0365
23.6898 8.60608 -73.0915
23.6898 8.60608 -72.898
23.6898 8.60608 -74.289
25.2596 7.89596 -74.289
42.8565 16.4294 -72.7453
41.5609 18.3602 -72.7559
41.4122 16.962 -72.7954
42.3045 15.299 -72.7959
30.7879 5.39507 -72.3539
30.7879 5.39507 -72.8426
29.0881 5.05513 -72.8406
29.0881 5.05513 -72.4492
29.4002 5.11754 -72.3539
40.7872 11.0872 -73.0598
41.0852 7.45455 -74.289
38.1907 6.87564 -74.289
40.0541 21.5499 -73.6486
40.3765 19.9022 -73.5539
40.3765 19.9022 -72.771
40.3765 19.9022 -72.7189
40.0541 21.5499 -72.966
36.67 6.57149 -74.289
39.9767 19.6371 -73.5431
40.8879 19.4346 -73.5228
27.0787 4.65323 -74.289
29.0881 5.05513 -74.289
26.0548 6.47837 -74.289
35.8902 2.16511 -74.0259
39.9401 3.44643 -74.289
40.7641 19.5479 -72.7625
23.3599 10.2924 -74.289
24.0562 6.73352 -74.289
26.6875 7.25 -74.289
26.6875 7.25 -72.9864
24.5 9.25 -74.289
38.5965 22.2093 -72.6612
38.5965 22.2093 -73.6998
36.0008 23.9028 -73.8197
37.7899 23.7125 -73.7913
37.7899 23.7125 -72.7309
36.451 23.8549 -72.3539
36.0008 23.9028 -72.3539
39.3125 20.875 -73.6185
39.3125 20.875 -72.5993
23.1821 11.201 -72.3539
23.3599 10.2924 -72.5444
41.6988 14.0587 -73.2159
41.1237 14.2504 -73.2323
41.571 13.7971 -72.5202
41.571 13.7971 -73.2026
42.1101 11.0415 -73.0441
42.1212 10.9846 -73.0408
30.7879 5.39507 -74.289
27.0282 23.4878 -72.3539
27.2264 1.36943 -73.8773
15.0505 5.85169 -73.0241
26.3821 4.79356 -72.8529
14.7868 4.88498 -73.3355
35.3583 -0.928715 -72.4457
24.5 9.25 -73.1193
22.2833 13.2015 -74.289
22.2833 13.2015 -73.3609
35.2904 -0.90952 -72.4224
35.1286 -0.863778 -72.4516
35.6704 -1.01689 -72.3539
38.9157 8.36007 -72.9268
35.8902 2.16511 -72.6124
24.5 9.25 -72.5254
23.6773 10.7166 -72.3539
22.2833 13.2015 -72.3539
29.3125 6.0625 -72.8943
32.2738 4.72286 -72.7905
36.2717 2.05965 -72.3539
35.0907 -0.853081 -72.3539
34.5 24.0625 -73.8434
27.0282 23.4878 -74.289
27.0282 23.4878 -73.8856
31.5625 24.375 -73.8899
36.0008 23.9028 -74.289
41.4122 16.962 -73.3801
31.5625 24.375 -72.4555
40.9375 12.5 -73.1368
39.3123 9.17227 -72.968
33.6978 5.50267 -72.8197
33.6978 5.50267 -72.3539
28.3026 6.19143 -72.3539
27.7711 6.25927 -72.4711
27.7711 6.25927 -72.9206
40.0288 8.96965 -72.6481
40.0288 8.96965 -72.9496
38.8008 8.29718 -72.3539
28.1693 24.736 -73.9437
28.1693 24.736 -72.7066
41.4122 16.962 -72.4179
40.9375 12.5 -72.4871
39.3123 9.17227 -72.4021
27.7711 6.25927 -74.289
22.0356 11.5032 -73.269
22.0356 11.5032 -72.5664
30.671 3.60792 -72.4229
30.671 3.60792 -72.7444
41.6054 18.7786 -73.4792
41.6054 18.7786 -72.8571
40.5464 8.82329 -72.8257
40.5464 8.82329 -72.9363
22.3935 13.957 -73.4018
22.1402 12.2204 -72.3539
23.1676 19.2653 -73.6892
23.1676 19.2653 -72.5601
30.5088 3.75628 -74.289
22.0356 11.5032 -74.289
41.4068 8.57996 -74.289
39.3043 1.22132 -73.3925
22.3935 13.957 -74.289
21.2635 6.20856 -74.1353
23.1676 19.2653 -74.289
23.8476 20.0091 -74.289
26.2886 22.6789 -74.289
28.6199 4.17495 -72.7963
36.9485 1.87255 -72.5857
15.5765 7.78067 -72.3539
15.5765 7.78067 -73.1261
42.6054 0.308751 -72.4426
42.6054 0.308751 -72.3539
42.066 10.8874 -73.036
17.5906 9.20943 -74.289
19.4506 14.7893 -74.289
16.3084 10.464 -74.289
44.1249 5.93073 -74.289
14.7868 4.88498 -72.973
38.9423 -1.94157 -72.3539
42.1521 -1.36863 -72.3539
14.7868 4.88498 -72.3539
40.8462 8.7385 -72.9286
41.7804 -2.74366 -72.3539
10.75 4.6875 -72.3539
-11.9583 -9.84993 76.2421
24.8099 21.8264 -79.973
23.4387 21.1241 -79.973
-46.2931 -17.7091 -79.6574
-46.4387 -17.3596 -79.7049
40.2385 19.1492 -76.3702
40.2385 19.1492 -76.4633
25.419 23.173 -79.973
24.125 20.3125 -79.9345
24.125 20.3125 -78.8768
23.6881 22.8344 -79.973
-47.1875 -22.5 -79.973
-47.1875 -22.5 -88.404
-45.3125 -22.6442 -79.973
-46.0188 -18.3674 -79.5679
-11.4604 -8.83636 78.2352
-11.4599 -8.8365 76.5533
-11.8031 -9.533 78.238
-11.8824 -9.69442 78.1856
-11.8818 -9.69407 76.8391
-25.498 -1.52048 -93.623
-25.3454 -0.981327 -93.623
-25.498 -1.52048 -88.404
-25.3454 -0.981327 -88.404
-46.2931 -17.7091 -78.8768
-46.4387 -17.3596 -78.8768
-12.4169 -9.99651 76.2421
-12.4176 -9.99693 76.6905
31.9041 24.3387 -77.9437
31.9041 24.3387 -77.7541
-45.3125 -17.2187 -79.6569
-47.875 -18.5 -79.6583
22.2223 16.1066 -79.973
21.522 14.5586 -79.973
-15.2295 -7.79659 71.9125
-16.6964 -8.9375 70.0849
-14.359 -8.03673 73.4256
-16.484 -7.45053 69.7321
-17.0089 -11.1246 70.6038
-15.3843 -11.6007 73.4407
-16.8882 -10.2796 70.4033
-15.0748 -10.5248 73.4361
-47.08 -17.8575 -88.404
-47.08 -17.8575 -93.623
-46.0188 -18.3674 -78.8768
42.6611 8.22523 -77.7541
42.6611 8.22523 -76.4633
35.1426 23.9941 -76.06
33.0985 24.6755 -75.2152
31.5625 24.375 -74.7649
-10.406 -6.69829 70.4225
-9.76906 -7.75989 71.8522
40.2385 19.1492 -77.7541
26.5165 1.57006 -77.7541
26.5165 1.57006 -78.8768
35.7558 -1.04105 -77.7541
35.7558 -1.04105 -78.8768
38.5385 21.5827 -77.7541
36.3361 23.5963 -76.5533
31.9041 24.3387 -79.9455
26.5165 1.57006 -77.6946
35.7558 -1.04105 -76.8777
26.5165 1.57006 -76.4633
35.7558 -1.04105 -76.4633
40.7872 11.0872 -77.7541
40.7872 11.0872 -76.4633
40.1956 19.0061 -78.8768
38.983 14.964 -78.8768
38.983 14.964 -78.4917
39.9767 19.6371 -78.8768
39.9767 19.6371 -77.7541
-10.5021 -10.2608 76.2421
-10.7586 -11.136 76.2421
-10.7568 -11.1298 77.2751
-10.7156 -10.9894 77.5209
-11.8784 -10.9729 76.2421
-12.2025 -10.9222 76.7897
-12.2841 -10.9094 76.9276
21.6061 29.8891 -79.973
24.2326 29.1352 -79.973
41.4122 16.962 -79.7735
40.2481 19.1314 -78.8879
-9.07461 10.3329 -78.8768
-10.318 10.687 -78.8768
-7.29587 13.0335 -78.8768
-7.78936 11.2652 -78.8768
-47.9874 -18.562 -76.4633
-49.3518 -19.6214 -76.4633
-47.6805 -20.073 -76.4633
-49.1866 -19.4932 -93.623
-49.1866 -19.4932 -88.404
26.2886 22.6789 -77.7541
26.2886 22.6789 -78.5803
23.8476 20.0091 -77.7541
23.8476 20.0091 -78.8571
21.8799 17.8569 -79.973
22.5 14.6875 -79.3951
22.5 14.6875 -78.8768
20.5114 16.3601 -79.973
21.7588 14.1365 -78.8768
20.1744 16.9608 -79.973
21.3596 20.5163 -79.973
41.1237 14.2504 -76.4633
41.1237 14.2504 -75.8256
41.1237 14.2504 -78.8768
41.1237 14.2504 -78.2903
-11.3883 -14.1942 72.0326
-10.9555 -13.9778 72.5817
-13.397 -10.7516 76.2421
22.5 14.6875 -77.7541
-12.0087 -8.68511 77.511
-11.2815 -8.88571 76.2421
-10.7238 -9.03955 76.2421
-10.7238 -9.03955 78.2352
-11.592 -8.80005 78.2352
-11.8431 -9.67221 78.2385
39.9767 19.6371 -78.9601
40.8879 19.4346 -79.973
19.666 15.4354 -79.973
21.7588 14.1365 -77.7541
40.2385 19.1492 -78.8905
-45.3125 -17.2187 -78.8768
-47.875 -18.5 -78.8768
22.5 14.6875 -76.4633
24.0296 25.1764 -79.973
28.1693 24.736 -79.973
36.7737 23.1962 -79.5412
-30.3828 -6.8285 -78.8768
-32.194 -6.29905 -78.8768
-29.6605 -4.33184 -78.8768
-31.3721 -10.2486 -79.6492
21.7588 14.1365 -76.4633
-45.3125 -16.4851 -79.7392
-9.4375 -8.3125 76.2421
-9.4375 -8.3125 74.366
-8.84006 -9.30823 74.366
-8.84006 -9.30823 76.2421
-10.029 -8.64684 74.366
-10.1888 -9.192 74.366
-10.4493 -10.0807 76.2421
-10.4493 -10.0807 75.9258
-10.029 -8.64684 76.2421
47.8611 19.7546 -81.3165
47.3844 17.991 -81.5561
-26.0049 -3.311 -74.289
-14.9071 7.12364 -80.6663
-14.339 7.56482 -80.6836
-5.77458 -14.4174 64.7768
-7.42325 -11.6696 68.7142
-12.3152 -12.5003 76.2421
-13.78 -12.0709 76.2421
-13.0462 -12.286 77.5235
-13.3059 -6.30042 71.1039
-11.9278 -5.22859 68.7359
40.5949 9.27965 -76.4633
40.5949 9.27965 -77.7541
33.0985 24.6755 -74.289
23.8476 20.0091 -79.9161
23.8476 20.0091 -78.8768
39.9767 19.6371 -76.4633
39.9767 19.6371 -76.4245
-44.2012 -22.7297 -88.404
-44.0077 -23.194 -88.404
-44.0077 -23.194 -79.973
-44.2012 -22.7297 -79.973
-45.3125 -22.6442 -88.404
-35.3169 -23.4131 -79.973
-47.9108 -18.5026 -79.66
-33.4613 -17.4705 -78.9568
-49.3518 -19.6214 -78.8768
-47.6805 -20.073 -78.8768
-15.5389 -12.1382 73.4429
39.3125 20.875 -78.8768
26.2886 22.6789 -76.4633
-6.59745 -11.7987 67.3189
-4.50833 -10.7542 64.4231
-9.94854 -5.76944 68.7073
-11.4579 -8.83393 74.366
-25.498 -1.52048 -76.4633
-33.4613 -17.4705 -74.289
-33.4613 -17.4705 -76.4633
26.5165 1.57006 -88.404
35.7558 -1.04105 -88.404
45.5481 18.399 -79.973
44.6474 15.9973 -79.973
-12.4043 -10.0582 77.5158
-15.2992 -11.6257 76.2421
-15.2992 -11.6257 78.2488
-13.46 -12.1647 78.2488
-10.029 -8.64684 73.4091
-10.1833 -9.17318 74.3329
-9.24223 -5.96245 68.6971
-31.9522 -24.3221 -78.102
-35.1903 -23.4473 -78.3838
-31.9522 -24.3221 -76.4633
-35.1903 -23.4473 -76.4633
42.6611 8.22523 -78.8768
-0.629596 -4.42233 61.0784
-1.58458 -7.76477 61.077
-8.58585 12.0319 -80.859
1.50243 19.8651 -81.1666
49.2028 24.7191 -80.6422
-13.5482 -10.6359 78.2436
-13.059 -10.7739 78.2436
-13.4681 -10.9962 76.2421
-13.945 -10.8602 76.2421
-13.0182 -10.3364 77.5155
-13.1208 -29.4097 -76.4633
-19.3795 -27.7188 -77.0079
-25.6868 -26.0148 -77.5568
-19.3795 -27.7188 -76.4633
-2.99622 -32.1449 -76.4633
-25.6868 -26.0148 -76.4633
-9.4375 -8.3125 78.2314
-8.84006 -9.30823 78.2343
-10.2076 -9.1867 74.366
-10.0579 -8.66315 74.366
-9.18689 -9.4747 74.366
-10.029 -8.64684 78.2331
-10.4493 -10.0807 78.2386
-11.1543 -10.4191 78.2404
-11.9896 -10.1809 78.2404
-10.7052 -10.2035 76.2421
-11.5872 -9.95465 76.2421
-11.4415 -9.44518 76.2421
-20.4854 2.79232 -78.8768
42.1101 11.0415 -79.973
45.1989 9.90482 -79.973
45.1989 9.90482 -88.404
46.41 14.3858 -79.973
46.41 14.3858 -82.0458
46.41 14.3858 -88.404
45.9396 12.6451 -82.2823
47.3844 17.991 -88.404
47.3844 17.991 -79.973
45.9396 12.6451 -88.404
45.9396 12.6451 -79.973
10.75 4.6875 -78.9384
0.747769 8.85253 -79.973
23.8476 20.0091 -76.4633
-45.3125 -20.7127 -78.8768
-45.3125 -18.317 -78.8768
-41.1413 -18.019 -79.973
-44.6518 -20.8912 -79.973
-33.4613 -17.4705 -78.8768
-47.9108 -18.5026 -78.8768
13.9375 5.125 -79.973
13.9375 5.125 -88.404
-11.12 3.22267 54.665
-10.86 4.12652 54.665
19.6701 29.1516 -81.1794
17.9456 29.7265 -81.3417
14.9994 16.0481 -79.973
19.6701 29.1516 -79.973
19.6701 29.1516 -88.404
-13.0128 -10.3379 77.5155
38.4411 -1.79993 -88.404
38.4411 -1.79993 -78.8768
38.4411 -1.79993 -77.7541
41.7804 -2.74366 -77.7541
14.7868 4.88498 -77.7541
31.5625 24.375 -79.969
35.1426 23.9941 -79.7233
23.1676 19.2653 -79.8712
39.3125 20.875 -79.1367
40.2898 19.0537 -78.8768
36.3361 23.5963 -79.611
22.3935 13.957 -79.3191
23.1676 19.2653 -76.3831
23.8269 19.9865 -76.4633
41.4122 16.962 -76.127
39.7893 19.9865 -76.4633
39.3123 9.17227 -75.261
40.9375 12.5 -75.631
22.3935 13.957 -75.793
27.0282 23.4878 -76.4633
31.5625 24.375 -76.4633
35.1426 23.9941 -76.4633
39.3125 20.875 -76.4633
41.4122 16.962 -76.4633
40.9375 12.5 -76.4633
39.3123 9.17227 -76.4633
31.5625 24.375 -78.8768
27.0282 23.4878 -78.8768
35.1426 23.9941 -78.8768
41.4122 16.962 -78.8768
40.9375 12.5 -78.8768
40.9375 12.5 -77.7541
39.3123 9.17227 -77.7541
-18.6287 4.23395 -80.5528
-20.4854 2.79232 -80.4962
41.1237 14.2504 -77.7541
43.2469 13.5427 -79.973
27.0282 23.4878 -77.7541
31.5625 24.375 -77.7541
35.1426 23.9941 -77.7541
39.3125 20.875 -77.7541
41.4122 16.962 -77.7541
-14.9071 7.12364 -93.623
38.4411 -1.79993 -76.4633
14.7868 4.88498 -76.1218
-45.3125 -20.7127 -76.4633
-45.3125 -18.317 -76.4633
-47.9108 -18.5026 -76.4633
-46.4387 -17.3596 -88.404
-26.0049 -3.311 -78.8768
-26.0049 -3.311 -76.4633
13.9633 29.5406 -81.5466
13.9633 29.5406 -79.973
44.292 18.6782 -79.973
42.9714 14.0561 -79.973
-46.4387 -17.3596 -93.623
28.9049 30.3906 -79.973
-20.33 1.05001 -76.4633
-20.33 1.05001 -74.289
-45.3125 -22.9092 -88.404
-45.3125 -22.9092 -79.973
-45.3125 -21.9643 -79.973
0.609128 -0.0868036 54.665
0.933887 1.04986 54.665
4.98064 -0.00581908 54.665
3.40067 -5.54185 54.665
-10.1131 2.93856 54.665
-9.85474 3.86428 54.665
-14.4221 6.98271 -78.8768
-10.3765 5.80724 -78.8768
-43.0609 -21.321 -93.623
-30.0505 -17.6037 -93.623
-27.6814 -2.79514 -93.623
-26.0049 -3.311 -93.623
-31.9522 -24.3221 -93.623
-47.6805 -20.073 -93.623
-47.9874 -18.562 -93.623
-25.8988 -1.41098 -93.623
-20.4854 2.79232 -79.973
-20.4854 2.79232 -88.404
-19.0616 2.37876 -88.404
-19.0616 2.37876 -79.973
-19.0616 2.37876 -78.8768
-19.0616 2.37876 -74.289
-19.0616 2.37876 -76.4633
-19.43 0.8 -76.4633
-16.7786 5.67051 -79.973
-45.3125 -16.4851 -93.623
-45.3125 -16.4851 -88.404
-27.6814 -2.79514 -88.404
-47.9874 -18.562 -88.404
-25.8988 -1.41098 -88.404
-17.5742 -19.2132 61.0733
-17.5735 -19.211 61.077
47.8611 19.7546 -79.973
47.8611 19.7546 -88.404
10.75 4.6875 -76.4633
38.2971 27.7663 -79.973
42.662 26.5466 -79.973
42.662 26.5466 -88.404
-8.65961 -9.60899 71.667
43.7583 16.8103 -79.973
-20.33 1.05001 -79.973
-20.33 1.05001 -78.8768
-22.0971 1.54087 -88.404
-22.0971 1.54087 -79.973
46.2534 25.5432 -79.973
44.8832 20.7473 -79.973
-14.9071 7.12364 -79.973
-12.7872 -8.45884 74.366
-12.4138 -9.99475 74.366
-13.5579 -5.25178 69.5191
-33.8107 -18.678 -74.289
-33.8107 -18.678 -76.4633
-6.8612 -26.2329 54.665
-14.4221 6.98271 -74.289
-14.4221 6.98271 -76.4633
-10.3765 5.80724 -76.4633
-31.9522 -24.3221 -74.289
14.7868 4.88498 -76.4633
15.5765 7.78067 -76.4633
-28.1555 -16.1999 54.665
25.0135 31.4779 -79.973
23.7812 27.7813 -79.973
41.7804 -2.74366 -76.4633
41.7804 -2.74366 -78.8768
14.7868 4.88498 -78.8768
32.2738 4.72286 -72.3539
-27.259 -7.74161 -76.4633
29.3125 6.0625 -72.3539
19.4506 14.7893 -78.8768
-30.3828 -6.8285 -76.4633
20.3609 3.30968 -73.5783
22.3935 13.957 -78.8768
-25.498 -1.52048 -78.8768
20.3609 3.30968 -72.8301
22.3935 13.957 -77.7541
-6.96615 -26.6003 54.665
26.969 4.63131 -72.8773
26.969 4.63131 -72.838
-8.15234 -30.7519 46.44
19.4506 14.7893 -77.7541
-18.6287 4.23395 -88.404
-18.6287 4.23395 -93.623
-25.6868 -26.0148 -93.623
-33.8107 -18.678 -78.8768
-25.6868 -26.0148 -88.404
-43.0609 -21.321 -79.973
21.2635 6.20856 -72.3539
21.2635 6.20856 -72.9823
38.4411 -1.79993 -73.5039
-19.43 0.8 -78.8768
26.5165 1.57006 -72.6723
26.5165 1.57006 -73.8464
-22.0971 1.54087 -78.8768
-1.78437 -23.7096 54.665
2.25852 -24.8609 46.44
43.9484 5.49558 -74.289
22.3935 13.957 -76.4633
36.3361 23.5963 -76.4633
42.3045 15.299 -72.5585
-12.5801 -11.1035 74.366
42.3045 15.299 -73.2788
-13.0148 -10.3344 74.366
41.9573 15.946 -72.3708
-10.7256 -9.04055 74.366
-10.2076 -9.1867 74.366
19.4506 14.7893 -76.4633
-10.4655 -10.0884 74.366
-12.2269 -10.9339 74.366
41.4053 9.72343 -72.9778
40.5949 9.27965 -72.9612
-24.6857 -1.74245 54.665
22.25 32.25 -88.404
21.8799 17.8569 -73.6237
22.25 32.25 -79.973
21.8799 17.8569 -72.6666
17.6285 15.3046 -76.4633
22.1344 16.5559 -72.3539
17.6285 15.3046 -77.7541
17.6285 15.3046 -78.8768
17.6285 15.3046 -74.289
-10.6625 -13.8312 72.9534
-23.6923 -17.4668 61.077
21.7588 14.1365 -72.3539
-18.141 -19.0493 61.077
21.7588 14.1365 -73.4181
-9.59511 -13.2976 71.4739
-24.5604 -21.1875 54.665
-18.6857 -22.8622 54.665
-33.8805 -18.9194 -74.289
-33.8805 -18.9194 46.44
-3.66399 -15.036 61.077
-11.2236 -12.8202 74.3285
33.1309 24.6819 -72.5014
-11.25 -12.8125 74.3289
33.1309 24.6819 -73.8914
-11.2438 -12.7913 74.366
-11.0238 -12.0409 74.366
-10.762 -11.1475 74.3557
-11.3743 -13.2367 73.5861
-24.3101 -0.177415 -79.973
-16.0073 -4.11385 68.7948
42.6244 15.9542 -72.5753
22.25 32.25 -93.623
21.3897 7.07392 -74.289
-9.23711 -8.64648 73.0462
-8.84006 -9.30823 72.0979
-8.65961 -9.60899 74.3425
-8.84006 -9.30823 73.9374
35.8902 2.16511 -73.2489
30.671 3.60792 -73.0315
39.2996 1.22261 -73.3909
27.9502 4.36008 -72.9182
-30.5395 -26.1335 -88.404
-30.5395 -26.1335 -93.623
-49.4125 -22.0144 -93.623
-49.4125 -22.0144 -88.404
-9.1721 -9.46761 72.5613
-35.6451 -25.0192 -88.404
-9.1721 -9.46761 74.3477
-10.2019 -9.18353 74.3582
-2.59076 -11.2832 61.077
-32.3529 -25.7377 -88.404
-32.3529 -25.7377 -93.623
40.5464 8.82329 -77.7541
40.5464 8.82329 -76.4633
-27.259 -7.74161 -78.8768
-30.3828 -6.8285 -78.8768
10.75 4.6875 -78.8768
15.5765 7.78067 -75.1063
17.6285 15.3046 -75.9428
-47.1875 -22.5 -79.973
32.4369 29.4037 -80.484
-6.15904 -22.4638 61.0788
-5.81722 -22.5612 61.0789
-9.83075 -21.4182 61.077
-12.5251 -10.4762 77.5167
-12.5249 -10.4766 77.5172
-30.6814 -19.8324 46.44
-31.9522 -24.3221 46.44
-11.2388 -12.7927 74.366
-11.6995 -12.6614 74.366
-12.5801 -11.1035 76.4778
-12.2613 -10.9504 76.8718
-4.54418 -7.24621 66.1037
-35.1903 -23.4473 -78.8768
-47.9874 -18.562 -78.8768
-32.194 -6.29905 -79.973
-29.6605 -4.33184 -79.973
1.50243 19.8651 -79.973
1.09735 -28.9015 -74.289
1.09735 -28.9015 46.44
-19.3795 -27.7188 -79.973
-19.3795 -27.7188 -88.404
-14.339 7.56482 -79.973
40.5464 8.82329 -74.289
15.5765 7.78067 -78.8768
-12.3803 -1.15825 62.3439
-13.4329 -4.81733 68.7576
-12.3803 -1.15825 61.077
-27.259 -7.74161 -74.289
-27.259 -7.74161 46.44
-25.498 -1.52048 -74.289
41.4068 8.57996 -76.4633
-9.07461 10.3329 -76.4633
-18.7397 -23.2403 54.665
-24.6461 -21.5547 54.665
44.597 7.67774 -77.7541
-19.43 0.8 -93.623
7.48435 -6.67621 -93.623
7.48435 -6.67621 -88.404
15.3269 30.5994 -93.623
-10.3765 5.80724 46.44
15.3269 30.5994 -88.404
-9.09726 11.6348 -93.623
44.597 7.67774 -88.404
-16.7786 5.67051 -93.623
9.09296 -1.0786 -93.623
-19.43 0.8 46.44
-32.194 -6.29905 -80.1392
-37.6456 -10.532 -79.973
7.48435 -6.67621 46.44
7.48435 -6.67621 -74.289
22.25 32.25 -81.381
-18.1413 -19.0516 61.073
-5.81612 -22.5615 61.077
-20.3027 -2.94013 61.4795
-2.1502 -23.6054 54.665
-19.43 0.8 61.1367
-18.71 0.599992 62.3889
-16.0905 -4.09113 68.796
-35.6451 -25.0192 -79.973
-12.5245 -10.4764 77.5167
-49.4125 -22.0144 -79.973
49.2028 24.7191 -88.404
49.2028 24.7191 -93.623
-18.6287 4.23395 -79.973
-20.3027 -2.94013 61.077
-25.6868 -26.0148 -79.973
-15.4628 -0.302004 62.3658
-15.4628 -0.302004 61.077
-2.83231 -27.3814 54.665
-19.0616 2.37876 46.44
-2.99622 -32.1449 -74.289
-2.99622 -32.1449 -79.973
-2.9375 -27.75 54.665
-2.99622 -32.1449 -93.623
-2.99622 -32.1449 -88.404
-6.00467 -6.84712 68.6504
23.1676 19.2653 -77.7541
23.1676 19.2653 -76.4633
-14.8105 4.26397 54.665
4.27946 -1.12242 54.665
23.1676 19.2653 -78.8768
-19.3795 -27.7188 -74.289
5.33668 1.2417 46.44
29.2783 25.9489 -79.973
36.3361 23.5963 -77.7541
-23.6932 -17.4707 61.0704
16.9846 7.39142 -73.0905
-11.81 -10.7338 76.2421
-32.194 -6.29905 -88.404
-11.7383 -10.6994 77.5185
-12.3806 -9.976 77.5155
-30.3828 -6.8285 -74.289
-12.5247 -10.476 77.5172
4.62529 0.08688 54.665
47.8611 19.7546 -93.623
3.04393 -5.44276 54.665
7.48435 -6.67621 -79.973
-13.9575 -8.66648 74.366
-13.8132 -8.16935 74.366
-0.629596 -4.42233 61.077
-29.1333 -20.2742 54.665
35.7558 -1.04105 -72.5822
-30.5395 -26.1335 -79.973
36.3361 23.5963 -78.8768
35.7558 -1.04105 -74.2489
-12.0044 -11.4135 76.2421
-32.7179 -14.9007 46.44
23.3599 10.2924 -73.1885
-47.1875 -22.5 -88.404
-20.4854 2.79232 -93.623
22.2223 16.1066 -73.523
21.522 14.5586 -72.3539
-47.1875 -22.5 -93.623
-22.0971 1.54087 -93.623
21.522 14.5586 -73.4439
-1.66154 -8.0339 61.077
37.6875 7.6875 -72.9016
37.6875 7.6875 -72.3539
-12.0912 -9.81243 76.2421
-0.628776 -4.42256 61.077
-13.0148 -10.3344 76.2421
-12.5801 -11.1035 76.2421
-2.0943 -9.54715 61.077
38.9157 8.36007 -72.3814
38.3893 7.28233 -72.3539
41.4068 8.57996 -78.8768
35.8902 2.16511 -72.3539
40.5464 8.82329 -78.8768
41.6054 18.7786 -79.973
41.4068 8.57996 -77.7541
15.5765 7.78067 -77.7541
44.597 7.67774 -76.4633
26.0548 6.47837 -72.8497
26.0548 6.47837 -72.9498
-23.4693 -16.5114 62.7234
-27.6814 -2.79514 -79.973
-16.0217 -4.21432 68.9642
-17.2918 -13.1048 71.0736
-26.0049 -3.311 -88.404
44.597 7.67774 -78.8768
-9.59511 -13.2976 74.3074
35.4872 5.27424 -74.289
25.0135 31.4779 -88.404
-9.07461 10.3329 -74.289
-13.9357 7.87797 -93.623
37.2959 5.04335 -74.289
-4.10622 -31.845 46.44
24.3804 27.5815 -79.973
-19.43 0.8 -74.289
6.65307 5.85417 46.44
6.65307 5.85417 -74.289
41.7804 -2.74366 -93.623
-12.7027 -10.1581 77.0821
41.7804 -2.74366 -88.404
-13.0148 -10.3344 76.6624
-6.57108 -6.69235 68.6586
-14.1986 -7.47915 73.4233
-49.4125 -19.605 -88.404
-14.3437 -7.98333 73.4254
-12.8373 -10.6484 77.0946
-16.1129 -4.85307 69.1158
-6.1583 -22.4651 61.077
44.597 7.67774 -74.289
-6.15904 -22.4638 61.077
-20.7654 -4.92315 -93.623
5.65221 -13.0516 -93.623
-49.3518 -19.6214 -88.404
49.2028 24.7191 -79.973
-10.2063 -9.1823 74.366
-4.10622 -31.845 -74.289
-10.7238 -9.03955 75.2689
-10.9614 -8.97401 74.366
-49.4125 -19.605 -79.973
30.537 27.3256 -79.973
31.3202 28.1822 -79.973
-9.4375 -8.3125 72.5964
33.0985 24.6755 -79.973
-8.125 10.0625 46.44
46.2569 20.2894 -79.973
43.6736 13.4005 -79.973
-10.4493 -10.0807 74.3434
-13.1873 -10.0291 76.2421
-9.59484 -21.4854 61.0771
-30.3828 -6.8285 46.44
32.4369 29.4037 -79.973
-11.7703 -12.6412 74.366
32.4369 29.4037 -88.404
-31.3721 -10.2486 -78.8768
24.125 20.3125 -72.4808
24.125 20.3125 -73.7379
-26.1998 -8.05122 54.665
-14.856 -11.7616 74.366
28.9049 30.3906 -88.404
-45.3125 -16.4851 -78.8768
-29.6605 -4.33184 -88.404
-12.4818 -11.2774 76.2421
-19.43 0.8 61.077
-45.3125 -18.317 -79.5336
38.1907 6.87564 -72.3539
38.1907 6.87564 -72.8514
-49.3518 -19.6214 -93.623
36.67 6.57149 -72.8496
36.67 6.57149 -72.3539
-47.1875 -22.5 -79.973
-47.1875 -22.5 -88.404
-1.66148 -8.03392 61.0769
26.5165 1.57006 -74.0054
-10.1875 -9.1875 74.3331
30.0176 11.8009 -74.289
-1.30942 -4.23349 62.2653
-32.3529 -25.7377 -79.973
27.0282 23.4878 -78.4965
31.5625 24.375 -77.9824
33.5765 24.1607 -77.7541
23.6734 19.8185 -78.8768
-19.3795 -27.7188 46.44
-10.7681 -11.1465 74.366
-2.90341 -12.3764 61.077
-25.6868 -26.0148 46.44
-25.6868 -26.0148 -74.289
5.65221 -13.0516 -88.404
-29.5415 -15.8052 46.44
48.0399 25.044 -79.973
-5.81644 -22.5626 61.077
-3.20008 -27.2766 54.665
-0.0625004 -32.9375 -88.404
-14.6875 5.125 54.665
42.4735 26.5993 -79.973
-0.0625004 -32.9375 -79.973
28.9049 30.3906 -80.795
38.2971 27.7663 -88.404
-0.0625004 -32.9375 -93.623
41.4122 16.962 -78.5784
10.75 4.6875 46.44
42.4735 26.5993 -88.404
-49.4125 -19.605 -93.623
40.9375 12.5 -78.1043
-0.0625004 -32.9375 46.44
40.9375 12.5 -72.9214
-5.8125 -22.5625 61.0707
-2.99622 -32.1449 -75.5823
-35.1903 -23.4473 46.44
42.3045 15.299 -72.7959
-0.0625004 -32.9375 -75.327
-35.1903 -23.4473 -74.289
-0.0625004 -32.9375 -74.289
10.75 4.6875 -74.289
22.2223 16.1066 -72.3539
5  1164 911 1041 770 1129  255 0 0
5  1160 1094 1093 839 1002  255 72 0
4  1164 1086 912 911  255 0 0
4  1160 1154 1149 1094  255 72 0
4  1160 1002 1003 1154  255 72 0
4  1164 1129 1095 1086  255 0 0
4  1101 1086 1095 98  255 0 0
4  1157 1154 1003 1000  255 72 0
6  1157 1172 1174 946 195 194  255 72 0
5  1157 194 193 1149 1154  255 72 0
5  1157 1000 650 1169 1172  255 72 0
7  176 167 226 1175 791 924 676  255 145 0
4  176 124 70 71  255 218 0
4  176 175 677 124  255 218 0
3  176 676 175  255 145 0
4  86 605 842 87  255 0 0
5  86 941 632 631 85  218 255 0
4  86 87 840 941  218 255 0
5  1175 438 1162 1078 1079  255 145 0
5  1173 634 808 807 885  218 255 0
4  1173 1170 935 813  218 255 0
4  1174 1172 1169 999  255 72 0
4  1174 1166 947 946  255 72 0
4  1175 226 227 438  255 145 0
5  1175 1079 133 132 791  255 145 0
5  1174 999 1098 1075 1166  255 72 0
4  1173 813 633 634  218 255 0
4  1173 885 886 1170  218 255 0
4  1162 438 227 228  255 145 0
4  1166 1075 79 947  255 72 0
5  1162 228 56 1011 1078  255 145 0
4  1170 886 934 935  218 255 0
4  214 813 935 216  218 255 0
4  214 1148 651 217  255 72 0
4  216 935 934 73  218 255 0
4  216 1147 1148 214  255 72 0
4  216 73 82 1147  255 72 0
4  1086 1101 989 912  255 0 0
4  1147 1144 1010 1148  255 72 0
4  1148 1010 649 651  255 72 0
4  1147 82 81 1144  255 72 0
7  1010 1098 999 1169 650 646 649  255 72 0
5  1144 835 1075 1098 1010  255 72 0
4  1144 81 80 835  255 72 0
5  226 978 977 228 227  145 255 0
4  228 977 57 56  145 255 0
4  231 810 46 45  72 255 0
4  52 51 178 231  145 255 0
4  52 231 45 53  145 255 0
4  71 60 167 176  255 218 0
5  71 70 123 973 60  0 255 0
4  1129 770 771 528  255 0 0
5  65 64 1073 970 66  0 255 0
4  1129 528 529 1095  255 0 0
4  974 998 51 49  0 255 72
4  974 77 187 1077  0 255 72
4  1077 187 201 753  0 255 72
4  1077 778 998 974  0 255 72
5  75 74 215 225 224  255 72 0
4  224 225 583 958  218 255 0
6  1123 1017 783 782 767 784  255 0 0
4  74 72 1150 957  218 255 0
4  1020 618 619 826  218 255 0
7  1112 1035 886 885 807 618 1020  218 255 0
4  215 956 583 225  218 255 0
4  1112 957 1150 1035  218 255 0
4  1112 1020 956 957  218 255 0
4  74 957 956 215  218 255 0
4  60 966 1025 167  145 255 0
4  973 965 966 60  145 255 0
7  973 123 970 1073 737 972 181  0 255 0
4  133 1079 1078 1106  255 145 0
4  133 1072 960 132  72 255 0
4  54 53 968 134  0 255 145
4  1106 1078 1011 134  255 145 0
4  133 48 46 1072  72 255 0
5  54 134 1011 56 55  255 145 0
4  1106 134 48 133  255 145 0
4  74 75 867 1119  0 255 218
4  75 224 201 76  255 72 0
4  77 76 201 187  255 72 0
5  124 125 113 112 685  0 218 255
4  124 685 686 70  0 218 255
4  86 85 1139 987  255 0 0
5  1101 98 96 927 989  255 0 0
5  86 987 602 603 605  255 0 0
4  1075 835 80 79  255 72 0
4  77 974 209 200  0 255 72
6  49 51 52 1155 1007 184  0 145 255
4  944 91 566 568  255 0 0
5  170 165 166 169 950  255 218 0
5  944 1064 92 83 91  255 0 0
4  944 1123 784 1064  255 0 0
6  170 950 585 63 64 65  255 218 0
4  1082 695 138 137  0 72 255
4  137 164 971 1082  0 72 255
5  123 40 122 967 970  0 255 0
4  123 109 39 40  0 218 255
5  70 686 111 109 123  0 218 255
4  1155 688 687 1007  0 145 255
4  1155 52 53 688  0 145 255
4  54 55 758 762  0 145 255
4  990 790 581 640  0 72 255
4  1096 789 1107 1151  0 72 255
4  1096 640 581 789  0 72 255
7  990 640 1096 1151 801 793 794  0 72 255
5  944 943 975 1017 1123  255 0 0
4  1095 529 99 98  255 0 0
4  184 1007 687 210  0 145 255
4  184 210 955 996  0 0 255
4  880 1066 610 788  0 0 255
4  1152 1090 929 930  0 0 255
4  1152 981 1092 1090  0 0 255
7  1152 930 877 882 586 887 981  0 0 255
6  1044 1051 614 795 902 940  0 0 255
4  137 138 696 820  72 0 255
5  27 819 738 25 26  72 0 255
12  27 28 431 1091 1060 963 1068 164 137 820 698 819  72 0 255
7  121 125 124 677 174 173 945  255 218 0
7  121 126 43 117 116 115 691  0 218 255
6  1091 431 852 331 317 414  72 0 255
4  164 666 667 971  0 72 255
5  121 691 114 113 125  0 218 255
6  164 163 665 749 731 666  0 72 255
5  1091 414 959 485 1060  72 0 255
4  164 1068 635 163  72 0 255
4  977 196 58 57  145 255 0
4  196 977 978 195  145 255 0
4  196 851 78 58  255 72 0
4  65 66 171 170  255 218 0
4  197 198 1024 760  0 145 255
6  197 850 997 1153 983 198  0 255 218
7  961 884 809 1153 997 1001 832  0 255 218
4  996 955 953 995  0 0 255
7  1080 109 111 620 621 695 1082  0 72 255
5  1080 1023 110 39 109  0 72 255
9  1082 971 667 674 670 672 790 1023 1080  0 72 255
4  870 817 518 517  0 72 255
3  114 691 115  0 218 255
4  114 141 825 875  72 0 255
4  876 429 428 430  72 0 255
6  114 115 116 539 557 141  0 72 255
5  876 926 872 862 429  72 0 255
4  789 673 622 1107  0 72 255
4  118 517 518 818  0 72 255
4  118 44 43 692  145 0 255
7  118 818 540 539 116 117 44  0 72 255
4  197 58 78 850  0 255 218
5  1001 997 850 78 79  0 255 218
4  53 54 762 688  0 145 255
4  53 45 46 968  0 255 145
4  170 522 521 165  72 255 0
6  1068 963 484 1058 1054 635  72 0 255
4  875 825 836 874  72 0 255
4  872 874 836 862  72 0 255
4  1060 485 484 963  72 0 255
5  988 1021 660 659 1018  0 0 255
4  1004 940 902 901  0 0 255
7  988 662 663 458 1019 624 1021  0 0 255
4  1004 901 1104 1084  0 0 255
5  897 954 806 1085 1065  0 0 255
7  988 932 1081 466 1047 439 662  0 0 255
4  79 78 851 947  255 72 0
4  1001 79 80 832  0 255 218
4  961 832 80 81  0 255 218
4  51 998 778 178  0 255 72
4  884 961 962 883  0 255 218
5  884 206 204 205 809  0 255 218
4  880 788 787 980  0 0 255
4  209 1125 993 200  0 0 255
4  209 184 996 1125  0 0 255
5  996 995 985 984 1125  0 0 255
4  200 208 1119 867  0 255 218
6  200 993 878 1014 207 208  0 0 255
4  993 982 1063 878  0 0 255
4  991 1023 790 990  0 72 255
4  991 899 110 1023  0 72 255
10  991 990 794 1163 1159 1115 1121 1071 868 899  0 72 255
4  1153 809 205 983  0 255 218
4  198 199 212 1024  0 145 255
4  198 983 205 199  0 255 218
8  1044 1134 1168 981 887 1146 917 1051  0 0 255
4  989 927 1037 912  255 0 0
4  914 601 602 987  255 0 0
4  206 884 883 207  0 255 218
3  931 1090 1092  0 0 255
7  931 788 610 1120 1114 545 1111  0 0 255
3  931 787 788  0 0 255
7  981 1168 205 204 787 931 1092  0 0 255
4  980 787 204 206  0 0 255
6  978 226 167 1025 194 195  145 255 0
5  195 946 947 851 196  255 72 0
4  878 1063 1066 880  0 0 255
4  184 209 974 49  0 255 72
4  134 968 46 48  0 255 145
4  84 994 841 219  255 72 0
4  84 85 631 218  218 255 0
4  219 841 839 220  255 72 0
4  84 1031 1139 85  255 0 0
4  84 219 909 1031  255 0 0
9  429 266 416 363 413 900 35 36 428  72 0 255
7  862 570 853 713 416 266 429  72 0 255
4  853 570 558 831  72 0 255
5  416 713 707 418 264  218 0 255
5  853 562 1006 707 713  218 0 255
4  959 921 920 1058  72 0 255
4  414 951 921 959  72 0 255
4  220 769 919 910  255 0 0
5  220 839 1093 190 191  255 72 0
4  219 220 910 909  255 0 0
9  914 918 919 1041 1037 1133 451 754 601  255 0 0
4  912 1037 1041 911  255 0 0
4  910 919 918 909  255 0 0
5  760 1024 1008 1022 759  0 145 255
5  868 1071 817 870 979  0 72 255
4  111 686 685 112  0 218 255
4  868 120 110 899  0 72 255
3  897 1065 986  0 0 255
5  896 800 797 188 94  0 255 72
4  84 218 648 994  255 72 0
4  214 217 633 813  218 255 0
4  762 758 757 761  0 145 255
4  73 72 816 1029  0 255 218
4  886 1035 1150 934  218 255 0
4  73 934 1150 72  218 255 0
5  883 962 1029 816 207  0 255 218
4  880 980 1014 878  0 0 255
4  112 140 620 111  0 72 255
3  19 21 739  72 0 255
4  112 821 493 140  72 0 255
5  876 430 20 925 926  72 0 255
6  19 739 814 815 925 20  72 0 255
4  112 113 952 821  72 0 255
4  114 875 952 113  72 0 255
4  875 874 1059 952  72 0 255
4  874 872 815 1059  72 0 255
4  872 926 925 815  72 0 255
5  870 517 118 119 979  0 72 255
4  868 979 119 120  0 72 255
5  867 75 76 77 200  0 255 218
4  836 558 570 862  72 0 255
5  854 716 734 1013 497  218 0 255
5  17 18 486 716 854  218 0 255
4  17 854 717 16  218 0 255
4  831 558 538 828  72 0 255
4  853 831 548 562  218 0 255
4  221 462 460 213  255 0 0
4  221 799 800 896  0 255 72
4  213 1042 799 221  0 255 72
4  213 460 459 191  255 0 0
7  213 191 190 964 838 1038 1042  0 255 72
6  220 191 459 768 766 769  255 0 0
4  221 189 461 462  255 0 0
4  837 774 1038 838  0 255 72
5  837 61 781 992 728  0 255 72
4  838 972 61 837  0 255 72
5  841 949 1003 1002 839  255 72 0
5  838 964 182 181 972  0 255 72
3  837 775 774  0 255 72
4  825 538 558 836  72 0 255
5  828 538 142 136 706  72 0 255
4  831 828 536 548  218 0 255
8  818 1076 563 449 441 144 534 540  0 72 255
4  141 142 538 825  72 0 255
5  141 557 537 472 142  0 72 255
5  1076 818 518 1102 1012  0 72 255
4  1076 1012 564 563  0 72 255
5  136 142 472 471 143  0 72 255
4  828 706 535 536  218 0 255
4  136 143 535 706  218 0 255
5  1071 1121 1158 751 817  0 72 255
5  817 751 1103 1102 518  0 72 255
4  982 993 1125 984  0 0 255
10  1066 1063 982 986 1065 1089 476 474 479 477  0 0 255
4  1054 1056 161 162  72 0 255
4  1058 484 485 959  72 0 255
4  1058 920 1056 1054  72 0 255
9  802 152 1103 751 1113 792 1156 793 801  0 72 255
4  802 1107 622 748  0 72 255
10  162 161 160 159 158 157 1057 796 749 665  0 72 255
4  162 163 635 1054  72 0 255
8  802 748 796 1057 556 154 153 152  0 72 255
3  162 665 163  0 72 255
4  1024 212 757 1008  0 145 255
3  1048 1028 637  0 0 255
3  1044 637 1134  0 0 255
4  1006 562 548 1005  218 0 255
5  418 707 708 678 419  218 0 255
3  1006 708 707  218 0 255
4  760 57 58 197  0 145 255
5  992 781 168 180 776  0 255 72
4  994 948 949 841  255 72 0
4  994 648 647 948  255 72 0
4  778 1077 780 779  0 255 72
4  1134 199 205 1168  0 0 255
4  980 206 207 1014  0 0 255
6  1048 636 1138 953 955 1028  0 0 255
6  1044 940 1004 1138 636 637  0 0 255
3  1048 637 636  0 0 255
8  1138 1004 1084 630 615 592 954 953  0 0 255
4  995 953 954 897  0 0 255
4  127 41 69 969  0 255 0
4  127 690 42 41  145 0 255
4  120 119 689 693  145 0 255
4  118 692 689 119  145 0 255
4  127 693 689 690  145 0 255
4  987 1139 918 914  255 0 0
4  909 918 1139 1031  255 0 0
4  1121 1115 928 1158  0 72 255
4  751 1158 928 1113  0 72 255
5  1115 1159 792 1113 928  0 72 255
4  212 211 761 757  0 145 255
5  1028 955 210 211 212  0 0 255
5  1028 212 199 1134 637  0 0 255
4  1013 734 723 1032  218 0 255
4  1032 723 701 705  218 0 255
5  1013 1032 611 735 496  218 0 255
6  152 135 1105 1012 1102 1103  0 72 255
4  796 748 622 623  0 72 255
4  152 705 701 135  218 0 255
5  1032 705 565 703 611  218 0 255
4  152 153 565 705  218 0 255
5  66 67 638 172 171  255 218 0
4  208 207 816 1119  0 255 218
4  1119 816 72 74  0 255 218
4  962 82 73 1029  0 255 218
5  1000 948 647 646 650  255 72 0
4  1003 949 948 1000  255 72 0
5  759 1022 758 55 56  0 145 255
4  1022 1008 757 758  0 145 255
4  224 958 617 223  218 255 0
4  94 222 829 93  218 255 0
4  91 90 976 943  255 0 0
5  91 923 1116 569 90  218 255 0
4  1020 826 823 956  218 255 0
4  91 83 922 923  218 255 0
3  943 976 975  255 0 0
5  1017 975 976 107 783  255 0 0
6  785 481 743 105 101 100  255 0 0
4  785 529 528 771  255 0 0
4  100 99 529 785  255 0 0
7  68 67 66 970 967 969 69  0 255 0
4  68 69 746 639  255 218 0
5  945 173 172 638 639  255 218 0
4  945 747 126 121  255 218 0
4  68 639 638 67  255 218 0
4  945 639 746 747  255 218 0
7  988 516 939 1034 588 590 933  0 0 255
5  854 497 496 735 717  218 0 255
3  1013 496 497  218 0 255
4  20 430 428 37  72 0 255
4  1009 536 535 702  218 0 255
4  144 143 471 534  0 72 255
5  144 441 440 146 145  0 72 255
4  1012 1105 150 564  0 72 255
4  144 702 535 143  218 0 255
5  1009 702 596 597 1143  218 0 255
4  144 145 596 702  218 0 255
4  950 803 584 585  255 218 0
5  950 169 168 781 803  255 218 0
4  810 231 230 811  72 255 0
4  231 178 185 230  145 255 0
4  168 169 763 229  72 255 0
4  168 229 186 180  145 255 0
5  130 175 676 924 131  255 145 0
4  896 94 189 221  0 255 72
4  1005 548 536 1009  218 0 255
5  1005 1009 1143 533 532  218 0 255
4  122 40 39 110  145 0 255
5  110 120 693 127 122  145 0 255
5  1006 1005 532 678 708  218 0 255
4  131 132 960 521  72 255 0
4  229 230 185 186  145 255 0
4  229 763 811 230  72 255 0
6  952 1059 815 814 699 821  72 0 255
4  687 761 211 210  0 145 255
4  958 583 745 617  218 255 0
4  93 829 744 92  218 255 0
4  83 92 744 922  218 255 0
4  956 823 745 583  218 255 0
4  995 897 986 985  0 0 255
4  132 131 924 791  255 145 0
5  992 776 775 837 728  0 255 72
6  932 694 645 644 643 1088  0 0 255
4  1066 477 478 610  0 0 255
4  932 1088 1083 1081  0 0 255
4  1065 1085 1087 1089  0 0 255
4  961 81 82 962  0 255 218
3  988 933 932  0 0 255
4  986 982 984 985  0 0 255
5  61 62 584 803 781  255 218 0
4  972 737 62 61  0 255 0
4  973 181 182 965  145 255 0
4  127 969 967 122  0 255 0
4  964 190 179 182  0 255 72
4  965 192 193 966  145 255 0
4  966 193 194 1025  145 255 0
4  965 182 179 192  145 255 0
5  107 976 90 89 108  255 0 0
4  107 105 743 783  255 0 0
4  783 743 750 782  255 0 0
3  786 462 461  255 0 0
4  786 784 767 772  255 0 0
4  786 461 1067 784  255 0 0
4  94 93 461 189  255 0 0
4  960 812 764 521  72 255 0
4  688 762 761 687  0 145 255
4  954 592 591 806  0 0 255
4  821 699 492 493  72 0 255
6  951 10 3 711 720 921  72 0 255
6  951 414 317 318 4 10  72 0 255
5  921 720 719 504 593  218 0 255
5  63 62 737 1073 64  0 255 0
4  63 585 584 62  255 218 0
4  98 608 609 96  255 0 218
4  944 568 567 943  255 0 0
5  100 101 606 684 942  255 0 218
5  98 99 100 942 608  255 0 218
4  91 943 567 566  255 0 0
7  96 97 682 842 756 1132 927  255 0 0
4  96 609 679 97  255 0 218
4  942 525 526 608  255 0 218
5  923 826 619 683 1116  218 255 0
4  609 527 740 679  255 0 218
5  941 840 808 634 632  218 255 0
4  942 684 742 525  255 0 218
4  527 609 608 526  255 0 218
4  826 923 922 823  218 255 0
5  527 525 742 741 740  255 0 218
6  171 172 173 523 522 170  72 255 0
4  174 677 175 130  255 218 0
4  130 131 524 174  72 255 0
4  173 174 524 523  72 255 0
5  190 1093 1094 192 179  255 72 0
4  192 1094 1149 193  255 72 0
4  1090 931 1111 929  0 0 255
5  1088 643 547 1110 1083  0 0 255
5  1089 1087 475 473 476  0 0 255
4  1085 1027 1026 1087  0 0 255
6  1087 1026 1110 547 480 475  0 0 255
5  1085 806 591 804 1027  0 0 255
5  1083 1110 1026 858 1049  0 0 255
4  1084 1104 490 630  0 0 255
5  1083 1049 465 466 1081  0 0 255
3  939 516 515  0 0 255
4  938 1124 1034 939  0 0 255
5  938 1050 856 937 1124  0 0 255
5  939 515 1016 1050 938  0 0 255
5  937 895 546 545 1114  0 0 255
4  936 888 890 892  0 0 255
4  856 1050 1049 858  0 0 255
4  863 1109 894 1145  0 0 255
4  937 892 890 895  0 0 255
7  936 893 894 587 586 882 888  0 0 255
3  863 1145 864  0 0 255
6  856 864 1145 893 892 937  0 0 255
3  936 892 893  0 0 255
6  933 642 641 645 694 932  0 0 255
4  933 590 627 642  0 0 255
4  929 546 877 930  0 0 255
4  929 1111 545 546  0 0 255
4  42 746 69 41  255 218 0
4  800 773 664 849  0 255 72
4  1077 753 752 780  0 255 72
4  800 849 798 797  0 255 72
4  224 223 202 201  255 72 0
4  94 188 203 222  255 72 0
4  846 780 752 798  0 255 72
4  222 223 617 829  218 255 0
4  222 203 202 223  255 72 0
4  93 92 1067 461  255 0 0
4  92 1064 784 1067  255 0 0
3  1047 466 465  0 0 255
5  662 654 1097 1099 663  0 0 255
3  1016 515 514  0 0 255
7  1016 662 439 1047 465 1049 1050  0 0 255
5  1041 919 769 765 770  255 0 0
9  770 765 766 768 767 782 750 482 771  255 0 0
4  1072 46 812 960  72 255 0
4  780 846 777 779  0 255 72
4  927 1132 1133 1037  255 0 0
5  1146 887 586 587 613  0 0 255
3  1145 894 893  0 0 255
4  1146 613 614 917  0 0 255
5  842 605 603 452 756  255 0 0
5  842 682 681 88 87  255 0 0
4  1132 450 451 1133  255 0 0
4  1132 756 452 450  255 0 0
4  790 672 582 581  0 72 255
6  643 1120 610 478 480 547  0 0 255
5  1124 937 1114 1120 643  0 0 255
5  643 589 588 1034 1124  0 0 255
5  860 628 629 916 861  0 0 255
6  860 1100 616 489 490 628  0 0 255
5  860 805 804 616 1100  0 0 255
5  1027 804 805 858 1026  0 0 255
5  988 1018 513 512 516  0 0 255
6  1021 624 1019 457 554 660  0 0 255
5  1019 549 553 456 457  0 0 255
4  1019 458 455 549  0 0 255
4  1018 661 510 513  0 0 255
5  1018 659 658 578 661  0 0 255
5  661 579 577 654 662  0 0 255
6  1016 514 511 510 661 662  0 0 255
5  861 916 1136 1109 863  0 0 255
5  656 579 578 575 574  0 0 255
3  656 577 579  0 0 255
4  829 617 745 744  218 255 0
4  922 744 745 823  218 255 0
5  920 727 2 0 1056  72 0 255
5  920 594 503 726 727  218 0 255
4  921 593 594 920  218 0 255
5  916 629 901 904 915  0 0 255
3  913 1109 1136  0 0 255
3  915 904 903  0 0 255
3  917 614 1051  0 0 255
5  913 795 587 894 1109  0 0 255
6  916 915 903 795 913 1136  0 0 255
4  901 629 628 1104  0 0 255
4  795 614 613 587  0 0 255
5  904 901 902 795 903  0 0 255
5  895 890 888 877 546  0 0 255
3  877 888 1069  0 0 255
4  752 202 203 798  0 255 72
4  812 811 763 764  72 255 0
7  864 856 858 805 860 861 863  0 0 255
5  849 664 777 846 798  0 255 72
4  521 764 166 165  72 255 0
5  87 88 607 683 840  218 255 0
4  840 683 619 808  218 255 0
3  888 882 1069  0 0 255
3  877 1069 882  0 0 255
4  1056 0 1 161  72 0 255
4  808 619 618 807  218 255 0
3  161 1 160  0 72 255
5  1057 157 156 155 556  0 72 255
4  1042 1038 774 799  0 255 72
5  799 774 729 773 800  0 255 72
4  820 696 697 698  72 0 255
4  819 698 697 738  72 0 255
5  814 739 21 22 501  72 0 255
5  814 501 499 492 699  72 0 255
4  46 810 811 812  72 255 0
6  804 591 592 615 489 616  0 0 255
4  801 1151 1107 802  0 72 255
4  798 203 188 797  0 255 72
4  668 673 582 669  0 72 255
4  668 675 1108 623  0 72 255
5  796 623 1108 731 749  0 72 255
4  668 623 622 673  0 72 255
4  793 1156 1163 794  0 72 255
4  1159 1163 1156 792  0 72 255
4  789 581 582 673  0 72 255
4  772 460 462 786  255 0 0
4  772 767 768 459  255 0 0
4  771 482 481 785  255 0 0
4  185 779 777 186  0 255 72
4  178 778 779 185  0 255 72
4  186 777 776 180  0 255 72
5  776 773 729 774 775  0 255 72
3  772 459 460  255 0 0
3  769 766 765  255 0 0
4  764 763 169 166  72 255 0
4  760 759 56 57  0 145 255
3  755 450 452  255 0 0
4  754 451 450 755  255 0 0
4  754 604 600 601  255 0 0
4  755 452 604 754  255 0 0
4  753 201 202 752  0 255 72
4  743 481 482 750  255 0 0
5  666 675 671 674 667  0 72 255
4  666 731 1108 675  0 72 255
4  126 747 746 42  255 218 0
6  663 1099 655 576 580 551  0 0 255
4  663 550 455 458  0 0 255
3  663 551 550  0 0 255
4  105 107 571 443  255 0 218
4  684 464 463 561  255 0 218
6  684 561 483 680 741 742  255 0 218
4  741 680 679 740  255 0 218
5  738 502 23 24 25  72 0 255
4  726 503 504 719  218 0 255
6  726 730 736 1161 544 1165  218 0 255
4  719 541 730 726  218 0 255
4  718 541 542 709  218 0 255
4  736 730 541 718  218 0 255
4  718 445 491 736  218 0 255
5  735 509 598 710 717  218 0 255
6  716 715 733 468 1142 734  218 0 255
4  732 530 531 1140  218 0 255
4  714 612 530 732  218 0 255
4  714 732 733 715  218 0 255
4  675 668 669 671  0 72 255
4  541 719 712 542  218 0 255
4  532 530 612 678  218 0 255
4  678 612 420 419  218 0 255
4  725 543 159 160  218 0 255
4  725 1165 544 543  218 0 255
4  727 726 1165 2  218 0 255
4  0 2 1165 725  218 0 255
4  0 725 160 1  218 0 255
3  154 556 155  0 72 255
3  157 158 519  218 0 255
5  724 543 506 505 704  218 0 255
4  154 703 565 153  218 0 255
5  724 519 158 159 543  218 0 255
4  724 704 520 519  218 0 255
5  157 519 520 559 156  218 0 255
4  154 155 555 703  218 0 255
4  611 703 555 508  218 0 255
5  564 148 446 449 563  0 72 255
4  564 150 149 148  0 72 255
4  135 151 150 1105  0 72 255
5  723 721 700 498 701  218 0 255
4  135 701 498 151  218 0 255
5  722 448 447 147 148  218 0 255
5  148 147 146 440 446  0 72 255
4  150 151 498 700  218 0 255
5  722 148 149 700 721  218 0 255
3  150 700 149  218 0 255
4  11 12 542 712  218 0 255
4  3 11 712 711  218 0 255
4  720 711 712 719  218 0 255
4  13 709 542 12  218 0 255
4  13 14 444 709  218 0 255
4  718 709 444 445  218 0 255
5  717 710 599 15 16  218 0 255
4  18 595 487 486  218 0 255
3  18 17 381  255 0 145
3  18 6 595  218 0 255
4  716 486 488 715  218 0 255
4  378 420 612 714  218 0 255
3  6 282 285  255 0 145
6  378 714 715 488 6 285  218 0 255
3  710 598 599  218 0 255
5  704 508 555 559 520  218 0 255
3  147 447 146  218 0 255
5  697 494 500 502 738  72 0 255
4  696 495 494 697  72 0 255
4  695 621 139 138  0 72 255
4  138 139 495 696  72 0 255
3  117 43 44  0 218 255
4  692 43 38 689  145 0 255
4  690 689 38 42  145 0 255
4  101 105 106 102  255 0 0
4  88 89 569 607  218 255 0
4  684 606 443 464  255 0 218
5  88 681 104 108 89  255 0 0
4  683 607 569 1116  218 255 0
4  680 483 453 1126  255 0 218
4  101 102 470 606  255 0 218
4  682 97 104 681  255 0 0
4  104 103 106 108  255 0 0
4  104 1126 453 103  255 0 218
5  680 1126 104 97 679  255 0 218
4  599 444 14 15  218 0 255
4  674 671 669 670  0 72 255
4  672 670 669 582  0 72 255
3  661 578 579  0 0 255
3  554 457 456  0 0 255
6  554 552 657 658 659 660  0 0 255
4  580 572 652 657  0 0 255
4  657 652 653 658  0 0 255
4  657 552 551 580  0 0 255
4  658 653 575 578  0 0 255
3  655 1099 1097  0 0 255
5  656 574 573 576 577  0 0 255
5  655 1097 654 577 576  0 0 255
4  572 580 576 573  0 0 255
4  653 652 572 575  0 0 255
4  651 648 218 217  255 72 0
4  217 218 631 633  218 255 0
4  649 647 648 651  255 72 0
3  649 646 647  255 72 0
5  645 641 626 625 644  0 0 255
4  644 625 589 643  0 0 255
4  642 627 626 641  0 0 255
4  145 146 447 596  218 0 255
4  596 447 448 597  218 0 255
4  633 631 632 634  218 255 0
3  628 490 1104  0 0 255
4  630 490 489 615  0 0 255
5  627 590 589 625 626  0 0 255
4  621 620 140 139  0 72 255
4  139 140 493 495  72 0 255
4  530 532 533 531  218 0 255
4  598 445 444 599  218 0 255
4  509 491 445 598  218 0 255
4  509 735 611 508  218 0 255
6  736 491 509 508 704 1161  218 0 255
6  734 1142 467 1141 721 723  218 0 255
7  722 1140 531 533 1143 597 448  218 0 255
4  733 1141 467 468  218 0 255
4  732 1140 1141 733  218 0 255
4  721 1141 1140 722  218 0 255
5  1161 704 505 507 544  218 0 255
4  777 664 773 776  0 255 72
3  1142 468 467  218 0 255
3  90 569 89  218 255 0
4  606 470 442 443  255 0 218
4  1122 464 443 571  255 0 218
4  1122 560 463 464  255 0 218
4  571 469 560 1122  255 0 218
4  452 603 600 604  255 0 0
4  603 602 601 600  255 0 0
4  6 488 487 595  218 0 255
4  593 504 503 594  218 0 255
3  590 588 589  0 0 255
4  38 43 126 42  0 218 255
4  155 156 559 555  218 0 255
4  495 493 492 494  72 0 255
4  575 572 573 574  0 0 255
4  469 571 107 108  255 0 218
3  568 566 567  255 0 0
4  470 453 483 561  255 0 218
4  561 463 442 470  255 0 218
4  560 469 442 463  255 0 218
5  557 539 540 534 537  0 72 255
4  554 456 454 552  0 0 255
3  553 454 456  0 0 255
4  553 549 455 454  0 0 255
5  552 454 455 550 551  0 0 255
4  480 478 477 479  0 0 255
4  544 507 506 543  218 0 255
4  537 534 471 472  0 72 255
3  527 526 525  255 0 218
5  524 131 521 522 523  72 255 0
4  502 501 22 23  72 0 255
4  501 502 500 499  72 0 255
5  516 512 511 514 515  0 0 255
4  513 510 511 512  0 0 255
3  507 505 506  218 0 255
4  494 492 499 500  72 0 255
3  488 486 487  218 0 255
4  453 470 102 103  255 0 218
5  479 474 473 475 480  0 0 255
3  476 473 474  0 0 255
3  102 106 103  255 0 0
4  442 469 108 106  255 0 218
4  449 446 440 441  0 72 255
4  443 442 106 105  255 0 218
6  21 19 360 827 848 1135  255 0 72
7  22 21 1135 357 1033 24 23  255 0 72
5  25 24 1033 1030 845  255 0 72
7  27 26 845 1030 361 433 437  255 0 72
3  437 433 434  255 0 72
5  437 434 425 28 27  255 0 72
4  3 10 392 385  255 0 145
3  436 407 406  255 0 145
4  436 865 866 407  255 0 145
7  436 406 292 291 354 427 865  255 0 145
4  261 260 397 398  255 0 145
5  435 295 847 830 432  255 0 72
6  435 423 843 293 294 295  255 0 72
5  435 432 358 424 423  255 0 72
5  19 20 424 358 360  255 0 72
3  255 254 260  255 0 145
3  434 426 425  255 0 72
7  433 367 376 298 375 426 434  255 0 72
3  432 360 358  255 0 72
4  432 830 827 360  255 0 72
4  433 361 365 367  255 0 72
4  28 29 852 431  72 0 255
6  425 422 907 415 29 28  255 0 72
4  20 37 1015 424  255 0 72
4  248 257 356 249  255 0 145
4  408 881 879 243  255 0 145
4  245 873 871 411  255 0 145
5  243 879 1040 1176 244  255 0 145
10  243 261 393 1046 387 276 824 388 371 372  255 0 145
5  408 265 1039 1043 881  255 0 145
4  245 244 1176 873  255 0 145
4  245 411 1117 233  255 0 145
4  408 416 264 265  255 0 145
4  29 30 331 852  72 0 255
4  422 369 905 907  255 0 72
3  29 415 30  255 0 72
3  36 37 428  72 0 255
3  36 35 417  255 0 72
4  421 301 299 908  255 0 72
5  36 417 844 1015 37  255 0 72
4  421 908 280 279  255 0 72
6  253 241 343 342 338 346  255 0 145
4  253 346 396 254  255 0 145
3  427 354 353  255 0 145
7  427 353 290 316 277 866 865  255 0 145
4  426 375 422 425  255 0 72
3  421 279 281  255 0 72
5  424 1015 844 843 423  255 0 72
4  375 1055 369 422  255 0 72
5  261 398 391 1052 393  255 0 145
5  297 269 1055 375 298  255 0 72
4  297 296 281 402  255 0 72
5  421 281 296 293 301  255 0 72
5  297 402 403 270 269  255 0 72
5  17 16 345 340 381  255 0 145
4  410 265 264 418  255 0 145
7  410 418 419 420 378 379 1118  255 0 145
4  35 34 300 417  255 0 72
6  417 300 299 833 359 844  255 0 72
6  35 900 334 329 327 34  72 0 255
4  408 364 363 416  255 0 145
6  415 907 905 330 31 30  255 0 72
3  30 31 331  72 0 255
4  413 363 337 333  72 0 255
5  33 32 330 905 906  255 0 72
5  33 34 327 328 412  72 0 255
4  403 279 280 906  255 0 72
4  400 1036 362 364  255 0 145
5  413 333 305 334 900  72 0 255
7  33 412 7 9 1070 1074 32  72 0 255
6  33 906 280 908 300 34  255 0 72
5  403 906 905 369 270  255 0 72
6  392 407 866 277 278 385  255 0 145
4  412 328 355 7  72 0 255
4  10 4 368 392  255 0 145
3  233 356 257  255 0 145
5  249 395 289 383 250  255 0 145
4  411 410 1118 1117  255 0 145
6  233 1117 1118 379 267 356  255 0 145
5  249 356 267 268 395  255 0 145
4  407 392 391 406  255 0 145
4  404 326 325 382  255 0 145
4  12 11 384 350  255 0 145
4  13 12 350 382  255 0 145
4  409 347 348 401  255 0 145
4  409 372 371 347  255 0 145
5  409 401 400 364 372  255 0 145
4  243 372 364 408  255 0 145
6  405 332 321 320 326 404  255 0 145
5  406 391 398 397 292  255 0 145
3  405 308 332  255 0 145
5  405 404 382 309 308  255 0 145
6  254 396 309 1167 397 260  255 0 145
4  402 281 279 403  255 0 72
4  401 348 1036 400  255 0 145
4  386 1045 8 9  255 0 145
4  399 335 336 390  255 0 145
4  399 328 327 329  72 0 255
4  390 336 302 1062  255 0 145
4  390 313 312 373  255 0 145
4  9 7 374 386  255 0 145
4  9 8 324 1070  72 0 255
4  399 5 355 328  72 0 255
4  390 373 5 399  255 0 145
4  384 316 290 352  255 0 145
4  384 278 277 316  255 0 145
5  346 322 332 308 396  255 0 145
5  396 308 307 898 859  255 0 145
4  345 320 319 339  255 0 145
4  382 350 349 857  255 0 145
4  345 325 326 320  255 0 145
3  251 250 383  255 0 145
4  394 379 284 283  255 0 145
3  344 240 239  255 0 145
4  340 345 339 341  255 0 145
6  251 383 289 288 889 238  255 0 145
4  394 268 267 379  255 0 145
6  395 268 394 283 286 289  255 0 145
4  344 239 377 340  255 0 145
5  393 1053 1127 1131 1046  255 0 145
3  393 1052 1053  255 0 145
4  386 374 822 387  255 0 145
4  392 368 1052 391  255 0 145
4  388 315 314 389  255 0 145
4  389 314 313 390  255 0 145
5  389 263 370 371 388  255 0 145
4  387 1046 1045 386  255 0 145
4  387 822 275 276  255 0 145
4  388 824 311 315  255 0 145
5  385 278 384 11 3  255 0 145
5  380 377 891 287 286  255 0 145
5  382 325 15 14 13  255 0 145
4  16 15 325 345  255 0 145
5  380 286 283 282 6  255 0 145
6  340 377 380 6 18 381  255 0 145
4  379 378 285 284  255 0 145
5  238 889 891 377 239  255 0 145
6  376 295 294 296 297 298  255 0 72
3  376 367 365  255 0 72
3  361 366 365  255 0 72
5  376 365 366 847 295  255 0 72
3  373 273 274  255 0 145
4  374 7 355 274  255 0 145
4  373 274 355 5  255 0 145
4  370 348 347 371  255 0 145
3  370 263 262  255 0 145
4  362 1036 303 302  255 0 145
4  362 336 335 337  255 0 145
3  32 31 330  255 0 72
4  368 1045 1130 1128  255 0 145
4  4 8 1045 368  255 0 145
6  32 1074 318 317 331 31  72 0 255
4  4 318 324 8  72 0 255
5  366 361 1030 1033 357  255 0 72
4  366 357 848 847  255 0 72
3  337 335 306  72 0 255
4  364 362 337 363  255 0 145
3  26 25 845  255 0 72
6  359 834 301 293 843 844  255 0 72
3  357 1135 848  255 0 72
3  908 299 300  255 0 72
3  359 833 834  255 0 72
4  399 329 306 335  72 0 255
3  898 855 859  255 0 145
4  397 351 291 292  255 0 145
4  384 352 349 350  255 0 145
4  898 307 310 855  255 0 145
4  397 1167 272 351  255 0 145
4  889 288 287 891  255 0 145
4  410 869 1039 265  255 0 145
4  411 871 869 410  255 0 145
4  881 1043 1040 879  255 0 145
5  873 1176 1039 869 871  255 0 145
5  857 349 352 272 1171  255 0 145
5  396 859 855 310 309  255 0 145
4  857 1171 309 382  255 0 145
4  848 827 830 847  255 0 72
4  389 1061 262 263  255 0 145
4  390 1062 1061 389  255 0 145
4  833 299 301 834  255 0 72
4  824 276 273 373  255 0 145
4  822 374 274 275  255 0 145
4  824 373 312 311  255 0 145
4  1074 1070 324 318  72 0 255
3  362 302 336  255 0 145
4  370 262 304 348  255 0 145
4  1062 302 262 1061  255 0 145
4  1055 269 270 369  255 0 72
5  1053 1052 368 1128 1127  255 0 145
4  1046 1131 1130 1045  255 0 145
4  1040 1043 1039 1176  255 0 145
4  1171 272 1167 309  255 0 145
4  348 304 303 1036  255 0 145
4  1131 1127 1128 1130  255 0 145
3  293 296 294  255 0 72
5  354 291 271 290 353  255 0 145
4  352 290 271 272  255 0 145
4  351 272 271 291  255 0 145
4  346 338 323 322  255 0 145
4  343 241 240 344  255 0 145
4  341 339 338 342  255 0 145
5  344 340 341 342 343  255 0 145
4  339 319 323 338  255 0 145
4  329 334 305 306  72 0 255
4  337 306 305 333  72 0 255
3  332 322 321  255 0 145
5  323 319 320 321 322  255 0 145
5  315 311 312 313 314  255 0 145
4  310 307 308 309  255 0 145
4  304 262 302 303  255 0 145
4  289 286 287 288  255 0 145
4  285 282 283 284  255 0 145
4  276 275 274 273  255 0 145
5  261 243 246 258 259  255 0 145
7  259 258 236 235 247 252 256  255 0 145
5  261 259 256 255 260  255 0 145
4  258 246 237 236  255 0 145
4  257 248 232 233  255 0 145
6  245 233 232 247 235 234  255 0 145
7  256 252 242 241 253 254 255  255 0 145
9  252 247 232 248 249 250 251 238 242  255 0 145
6  246 243 244 245 234 237  255 0 145
5  242 238 239 240 241  255 0 145
4  237 234 235 236  255 0 145
7  56 228 227 226 47 54 55  255 145 0
7  228 56 55 54 47 226 227  145 255 0
4  53 54 47 45  0 255 145
4  54 53 45 47  145 255 0
5  231 45 168 229 230  72 255 0
5  45 231 230 229 168  145 255 0
3  781 168 61  255 218 0
3  168 781 61  0 255 72
4  972 61 59 181  0 255 0
4  61 972 181 59  0 255 72
4  973 181 59 60  0 255 0
4  973 60 59 181  145 255 0
5  167 60 59 168 128  255 218 0
5  60 167 128 168 59  145 255 0
4  226 167 128 47  255 145 0
4  167 226 47 128  145 255 0
4  168 45 47 128  72 255 0
4  45 168 128 47  145 255 0
3  61 168 59  255 218 0
3  168 61 59  0 255 72
6  73 216 214 215 74 72  255 72 0
6  216 73 72 74 215 214  218 255 0
7  225 215 95 94 222 223 224  255 72 0
7  215 225 224 223 222 94 95  218 255 0
3  189 94 95  255 72 0
3  94 189 95  255 0 0
3  221 189 213  0 255 72
3  189 221 213  255 0 0
3  191 213 189  0 255 72
3  213 191 189  255 0 0
6  220 191 189 95 84 219  255 72 0
6  191 220 219 84 95 189  255 0 0
6  218 84 95 215 214 217  255 72 0
6  84 218 217 214 215 95  218 255 0
8  199 205 204 206 207 208 200 177  0 255 218
8  205 199 177 200 208 207 206 204  0 0 255
6  212 199 177 184 210 211  0 145 255
6  199 212 211 210 184 177  0 0 255
4  209 184 177 200  0 255 72
4  184 209 200 177  0 0 255
7  189 191 190 179 183 187 188  255 72 0
7  191 189 188 187 183 179 190  0 255 72
3  94 189 188  255 72 0
3  189 94 188  0 255 72
5  203 188 187 201 202  255 72 0
5  188 203 202 201 187  0 255 72
4  77 187 183 50  255 72 0
4  187 77 50 183  0 255 72
4  200 77 50 177  0 255 218
4  77 200 177 50  0 255 72
6  199 177 50 58 197 198  0 255 218
6  199 198 197 58 50 177  0 145 255
8  196 58 183 179 192 193 194 195  255 72 0
8  58 196 195 194 193 192 179 183  145 255 0
3  58 183 50  145 255 0
3  183 58 50  255 72 0
6  180 168 59 181 182 179  0 255 72
6  168 180 179 182 181 59  145 255 0
8  186 180 179 183 50 49 178 185  0 255 72
8  180 186 185 178 49 50 183 179  145 255 0
3  51 178 49  0 255 72
3  178 51 49  145 255 0
3  184 49 177  0 255 72
3  49 184 177  0 145 255
3  177 50 49  0 145 255
3  177 49 50  0 255 72
5  176 167 129 130 175  255 218 0
5  167 176 175 130 129  255 145 0
7  174 130 165 170 171 172 173  255 218 0
7  130 174 173 172 171 170 165  72 255 0
4  166 165 130 129  255 218 0
4  165 166 129 130  72 255 0
5  169 166 129 128 168  255 218 0
5  166 169 168 128 129  72 255 0
3  167 128 129  255 218 0
3  167 129 128  255 145 0
6  164 137 1 161 162 163  0 72 255
6  137 164 163 162 161 1  72 0 255
11  160 1 135 152 153 154 155 156 157 158 159  0 72 255
11  1 160 159 158 157 156 155 154 153 152 135  218 0 255
12  151 135 1 136 143 144 145 146 147 148 149 150  0 72 255
12  135 151 150 149 148 147 146 145 144 143 136 1  218 0 255
10  142 136 137 138 139 140 112 113 114 141  0 72 255
10  136 142 141 114 113 112 140 139 138 137  72 0 255
3  1 137 136  0 72 255
3  137 1 136  72 0 255
3  47 128 48  255 145 0
3  128 47 48  72 255 0
4  54 47 48 134  255 145 0
4  47 54 134 48  0 255 145
7  133 48 128 129 130 131 132  255 145 0
7  48 133 132 131 130 129 128  72 255 0
3  127 122 41  0 255 0
3  122 127 41  145 0 255
4  42 41 121 126  255 218 0
4  41 42 126 121  0 218 255
5  125 121 41 70 124  255 218 0
5  121 125 124 70 41  0 218 255
4  123 70 41 40  0 255 0
4  70 123 40 41  0 218 255
3  122 40 41  0 255 0
3  122 41 40  145 0 255
6  120 110 39 44 118 119  145 0 255
6  110 120 119 118 44 39  0 72 255
10  117 44 39 109 111 112 113 114 115 116  0 218 255
10  44 117 116 115 114 113 112 111 109 39  0 72 255
4  108 106 105 107  255 0 0
4  106 108 107 105  255 0 218
9  104 97 96 98 99 100 101 102 103  255 0 0
9  97 104 103 102 101 100 99 98 96  255 0 218
6  95 84 83 92 93 94  255 0 0
6  84 95 94 93 92 83  218 255 0
9  91 83 84 85 86 87 88 89 90  255 0 0
9  83 91 90 89 88 87 86 85 84  218 255 0
13  82 73 72 74 75 76 77 50 58 78 79 80 81  255 72 0
13  73 82 81 80 79 78 58 50 77 76 75 74 72  0 255 218
14  71 60 59 61 62 63 64 65 66 67 68 69 41 70  0 255 0
14  60 71 70 41 69 68 67 66 65 64 63 62 61 59  255 218 0
10  58 50 49 51 52 53 54 55 56 57  145 255 0
10  50 58 57 56 55 54 53 52 51 49  0 145 255
4  48 46 45 47  0 255 145
4  46 48 47 45  72 255 0
4  44 39 38 43  145 0 255
4  39 44 43 38  0 218 255
5  42 38 39 40 41  145 0 255
5  38 42 41 40 39  0 218 255
19  37 20 19 21 22 23 24 25 26 27 28 29 30 31 32 33 34 35 36  255 0 72
19  20 37 36 35 34 33 32 31 30 29 28 27 26 25 24 23 22 21 19  72 0 255
11  18 6 1137 3 11 12 13 14 15 16 17  255 0 145
11  6 18 17 16 15 14 13 12 11 3 1137  218 0 255
3  10 3 4  255 0 145
3  3 10 4  72 0 255
8  8 4 3 1137 5 355 7 9  255 0 145
8  4 8 9 7 355 5 1137 3  72 0 255
7  399 5 1137 416 363 337 335  255 0 145
7  5 399 335 337 363 416 1137  72 0 255
9  264 416 1137 6 285 378 420 419 418  255 0 145
9  416 264 418 419 420 378 285 6 1137  218 0 255
11  706 136 720 711 3 1137 416 713 853 831 828  72 0 255
11  136 706 828 831 853 713 416 1137 3 711 720  218 0 255
4  921 720 136 727  72 0 255
4  720 921 727 136  218 0 255
3  920 921 727  72 0 255
3  921 920 727  218 0 255
5  2 727 136 1 0  72 0 255
5  727 2 0 1 136  218 0 255

