OFF
1162 959 0

22.8237 16.9071 -72.2225
29.2634 15.5726 -70.1424
22.4064 14.046 -71.8129
28.5518 14.4755 -70.1424
33.8982 24.3348 -72.3539
34.5 24.0625 -72.3539
37.125 22.875 -72.3539
37.1269 22.8741 -72.3539
35.5804 23.5738 -72.0304
22.3935 13.957 -72.3539
22.5 14.6875 -72.3539
22.3935 13.957 -71.8001
27.1201 23.5884 -72.3539
32.9363 24.2288 -72.3539
30.5078 17.4913 -70.1424
33.3432 17.8035 -70.1424
37.1286 22.8717 -72.3539
34.6849 15.8566 -70.1424
25.6595 21.9909 -72.3539
27.3131 12.5657 -70.1424
32.7295 11.0339 -70.1424
39.1718 9.21203 -72.3539
26.6875 7.25 -72.4891
22.5 14.6875 -74.289
22.5 14.6875 -73.4414
21.7588 14.1365 -74.289
33.3042 2.88 -72.3539
41.869 12.2737 -72.8863
32.25 5.6875 -72.3539
39.8363 10.2451 -73.0224
40.6605 9.89651 -72.9948
30.3832 3.6875 -72.7517
30.3832 3.6875 -73.0195
30.3832 3.6875 -72.4753
30.2469 24.515 -74.289
29.2454 24.6215 -73.9266
28.5684 23.7892 -73.8871
29.9392 24.0574 -74.289
31.6727 25.3415 -73.9426
30.0913 24.5315 -72.5644
30.0913 24.5315 -73.9132
40.7872 11.0872 -72.6172
28.2697 2.53013 -72.3539
30.3832 3.6875 -72.3539
31.0504 3.50304 -72.3539
35.2078 -0.564338 -72.3539
27.1134 4.59141 -72.8344
27.1134 4.59141 -72.8833
25.2596 7.89596 -72.6839
25.2596 7.89596 -73.0365
23.6898 8.60608 -73.0915
23.6898 8.60608 -72.898
25.2596 7.89596 -74.289
23.6898 8.60608 -74.289
42.8565 16.4294 -72.7453
41.4122 16.962 -72.7954
41.5609 18.3602 -72.7559
29.0881 5.05513 -72.8406
29.4002 5.11754 -72.3539
26.8316 23.2729 -72.2569
30.7879 5.39507 -72.8426
30.7879 5.39507 -72.3539
30.7879 5.39507 -72.3539
41.869 12.2737 -73.115
40.7872 11.0872 -73.0598
41.0852 7.45455 -74.289
38.1907 6.87564 -74.289
29.0881 5.05513 -72.4492
40.3765 19.9022 -72.771
40.3765 19.9022 -72.7189
40.0541 21.5499 -72.966
22.9575 17.8249 -72.3539
40.0541 21.5499 -73.6486
40.3765 19.9022 -73.5539
36.67 6.57149 -74.289
39.9767 19.6371 -73.5431
39.9767 19.6371 -74.289
40.8879 19.4346 -73.5228
27.0787 4.65323 -74.289
27.1134 4.59141 -74.289
26.0548 6.47837 -74.289
27.1134 4.59141 -73.0705
36.892 1.88819 -74.289
35.8902 2.16511 -74.0259
39.9401 3.44643 -74.289
40.7641 19.5479 -72.7625
23.3599 10.2924 -74.289
26.6875 7.25 -74.289
24.5 9.25 -74.289
38.5965 22.2093 -73.6998
38.5965 22.2093 -72.6612
37.7899 23.7125 -73.7913
36.451 23.8549 -72.3539
39.3125 20.875 -72.5993
31.6727 25.3415 -72.7817
23.1821 11.201 -72.3539
32.25 5.6875 -72.8443
41.6988 14.0587 -73.2159
41.1237 14.2504 -73.2323
41.571 13.7971 -72.5202
42.1212 10.9846 -73.0408
41.571 13.7971 -73.2026
41.571 13.7971 -72.8632
42.1101 11.0415 -73.0441
30.7879 5.39507 -74.289
30.7879 5.39507 -72.8426
24.125 20.3125 -72.4808
24.125 20.3125 -73.7379
27.1134 4.59141 -72.3539
35.7558 -1.04105 -72.5822
35.7558 -1.04105 -74.2489
38.1907 6.87564 -72.8514
36.67 6.57149 -72.8496
36.67 6.57149 -72.3539
38.1907 6.87564 -72.3539
26.5165 1.57006 -74.0054
26.5165 1.57006 -73.8464
26.5165 1.57006 -72.3539
26.5165 1.57006 -72.6723
23.3599 10.2924 -72.5444
24.0562 6.73352 -74.289
23.3599 10.2924 -73.1885
21.2635 6.20856 -72.9823
21.2635 6.20856 -74.1353
16.9846 7.39142 -74.289
16.9846 7.39142 -73.0905
42.3045 15.299 -72.7959
21.522 14.5586 -72.3539
22.2223 16.1066 -72.3539
22.2223 16.1066 -73.523
21.522 14.5586 -73.4439
37.6875 7.6875 -72.3539
38.9157 8.36007 -72.3814
38.3893 7.28233 -72.3539
35.8902 2.16511 -72.3539
26.0548 6.47837 -72.9498
24.5 9.25 -72.5254
26.0548 6.47837 -72.8497
35.4872 5.27424 -74.289
37.6875 7.6875 -74.289
37.6875 7.6875 -72.9016
37.2959 5.04335 -74.289
33.6978 5.50267 -74.289
29.3125 6.0625 -72.3539
32.2738 4.72286 -72.3539
29.3125 6.0625 -72.8943
32.2738 4.72286 -72.7905
27.0282 23.4878 -72.3539
26.5726 23.3987 -72.3539
20.3609 3.30968 -73.5783
26.969 4.63131 -72.8773
26.969 4.63131 -72.838
38.4411 -1.79993 -74.289
38.4411 -1.79993 -73.5039
43.9484 5.49558 -74.289
42.3045 15.299 -72.5585
42.3045 15.299 -73.2788
41.9573 15.946 -72.3708
41.4053 9.72343 -72.9778
40.5949 9.27965 -72.9612
21.8799 17.8569 -73.6237
21.8799 17.8569 -72.6666
22.1344 16.5559 -72.3539
21.7588 14.1365 -73.4181
23.1676 19.2653 -72.5601
33.1309 24.6819 -72.5014
33.1309 24.6819 -73.8914
40.9375 12.5 -72.4871
42.6244 15.9542 -72.5753
40.9375 12.5 -73.1368
21.3897 7.07392 -74.289
27.7711 6.25927 -74.289
27.2264 1.36943 -73.8773
36.6757 -1.30101 -74.289
35.8902 2.16511 -73.2489
30.671 3.60792 -73.0315
39.2996 1.22261 -73.3909
14.7868 4.88498 -73.3355
26.3821 4.79356 -72.8529
27.9502 4.36008 -72.9182
15.0505 5.85169 -73.0241
35.3583 -0.928715 -72.4457
40.7283 -2.4463 -74.289
24.5 9.25 -73.1193
22.2833 13.2015 -74.289
22.2833 13.2015 -73.3609
35.2904 -0.90952 -72.4224
35.1286 -0.863778 -72.4516
35.6704 -1.01689 -72.3539
38.9157 8.36007 -74.289
35.8902 2.16511 -72.6124
38.9157 8.36007 -72.9268
35.8902 2.16511 -74.289
22.2833 13.2015 -72.3539
32.2738 4.72286 -74.289
29.3125 6.0625 -74.289
36.2717 2.05965 -72.3539
35.0907 -0.853081 -72.3539
34.5 24.0625 -73.8434
27.0282 23.4878 -74.289
27.0282 23.4878 -73.8856
31.5625 24.375 -74.289
31.5625 24.375 -73.8899
36.0008 23.9028 -74.289
36.0008 23.9028 -73.8197
41.4122 16.962 -74.289
31.5625 24.375 -72.4555
28.0853 23.6947 -72.3539
40.9375 12.5 -74.289
39.3123 9.17227 -74.289
39.3123 9.17227 -72.968
33.6978 5.50267 -72.8197
27.7711 6.25927 -72.9206
28.3026 6.19143 -72.3539
33.6978 5.50267 -72.3539
27.7711 6.25927 -72.4711
38.8008 8.29718 -72.3539
40.0288 8.96965 -72.6481
36.0008 23.9028 -72.3539
28.1693 24.736 -72.7066
28.1693 24.736 -73.9437
39.3125 20.875 -73.6185
41.4122 16.962 -72.4179
41.4122 16.962 -73.3801
39.3123 9.17227 -72.4021
27.0282 23.4878 -73.4355
22.0356 11.5032 -72.5664
30.671 3.60792 -72.7444
30.671 3.60792 -72.4229
41.6054 18.7786 -73.4792
41.0914 13.9464 -72.3539
41.384 16.6968 -72.3539
41.6054 18.7786 -72.8571
22.3935 13.957 -73.4018
22.1402 12.2204 -72.3539
41.1237 14.2504 -74.289
40.5464 8.82329 -72.9363
23.1676 19.2653 -73.6892
40.0288 8.96965 -74.289
30.5088 3.75628 -74.289
40.0288 8.96965 -72.9496
30.671 3.60792 -74.289
22.0356 11.5032 -74.289
39.3043 1.22132 -74.289
41.4068 8.57996 -74.289
22.3935 13.957 -74.289
23.8476 20.0091 -74.289
26.2886 22.6789 -74.289
23.1676 19.2653 -74.289
28.6199 4.17495 -72.7963
15.5765 7.78067 -72.3539
15.5765 7.78067 -73.1261
42.6054 0.308751 -72.3539
42.066 10.8874 -73.036
17.5906 9.20943 -74.289
20.4194 6.4419 -74.289
16.3084 10.464 -74.289
36.9485 1.87255 -72.5857
44.1249 5.93073 -74.289
41.922 0.497687 -74.289
26.663 23.5381 -72.3539
15.5765 7.78067 -74.289
42.6054 0.308751 -72.4426
14.7868 4.88498 -72.973
38.9423 -1.94157 -72.3539
41.9019 15.9453 -72.3539
14.7868 4.88498 -74.289
14.7868 4.88498 -72.3539
41.7804 -2.74366 -74.289
41.7804 -2.74366 -72.3539
26.5165 1.57006 -74.289
9.09296 -1.0786 -72.3539
10.75 4.6875 -72.3539
-11.9583 -9.84993 76.2421
24.8099 21.8264 -79.973
22.0356 11.5032 -73.269
23.4387 21.1241 -79.973
15.5765 7.78067 -78.8768
-46.2931 -17.7091 -79.973
-8.125 10.0625 -74.289
-9.09726 11.6348 -88.404
-46.2931 -17.7091 -79.6574
-8.125 10.0625 46.44
36.3361 23.5963 -79.973
-46.4387 -17.3596 -79.7049
40.2385 19.1492 -76.4633
24.125 20.3125 -79.9345
39.3123 9.17227 -77.7541
25.419 23.173 -79.973
21.2635 6.20856 -74.289
39.9767 19.6371 -78.8768
24.125 20.3125 -79.973
23.6881 22.8344 -79.973
-47.1875 -22.5 -79.973
-46.0188 -18.3674 -79.973
-11.4604 -8.83636 78.2352
-29.6605 -4.33184 -79.973
-11.8031 -9.533 78.238
-11.8824 -9.69442 78.1856
-11.4599 -8.8365 76.5533
-20.3027 -2.94013 46.44
-25.498 -1.52048 -88.404
-46.4387 -17.3596 -78.8768
-49.4125 -22.0144 -88.404
-12.4176 -9.99693 76.6905
31.9041 24.3387 -77.7541
-33.4613 -17.4705 -76.4633
31.9041 24.3387 -77.9437
9.09296 -1.0786 -79.973
-45.3125 -17.2187 -79.973
-45.3125 -17.2187 -79.6569
-47.875 -18.5 -79.973
43.6736 13.4005 -79.973
22.2223 16.1066 -79.973
21.522 14.5586 -79.973
-15.2295 -7.79659 71.9125
-14.359 -8.03673 73.4256
36.3361 23.5963 -77.7541
-16.484 -7.45053 69.7321
-49.4125 -19.605 -79.973
-17.0089 -11.1246 70.6038
-32.194 -6.29905 -88.404
-47.08 -17.8575 -93.623
-22.0971 1.54087 -88.404
-46.2931 -17.7091 -78.8768
-30.2173 -24.7908 -74.289
-46.0188 -18.3674 -79.5679
42.6611 8.22523 -77.7541
35.1426 23.9941 -76.06
-10.406 -6.69829 70.4225
26.5165 1.57006 -78.8768
38.5385 21.5827 -77.7541
33.3042 2.88 -72.6778
26.5165 1.57006 -77.6946
26.5165 1.57006 -77.7541
22.5 14.6875 -78.8768
40.7872 11.0872 -77.7541
-26.0049 -3.311 -93.623
40.7872 11.0872 -76.4633
35.1426 23.9941 -77.7541
-2.99622 -32.1449 -88.404
40.1956 19.0061 -78.8768
38.983 14.964 -78.8768
36.3361 23.5963 -74.289
-10.7568 -11.1298 77.2751
-10.5021 -10.2608 76.2421
-12.2841 -10.9094 76.9276
-26.1998 -8.05122 46.44
-45.3125 -18.317 -78.8768
-19.0616 2.37876 -78.8768
-45.3125 -18.317 -76.4633
26.5165 1.57006 -76.4633
-11.4415 -9.44518 76.2421
21.6061 29.8891 -79.973
-16.6964 -8.9375 70.0849
24.2326 29.1352 -79.973
-9.39232 5.52128 -74.289
40.2481 19.1314 -78.8879
41.3012 15.9185 -79.973
46.41 14.3858 -79.973
41.4122 16.962 -79.7735
22.25 32.25 -93.623
-7.29587 13.0335 -78.8768
-25.6868 -26.0148 -76.4633
-7.78936 11.2652 -78.8768
-19.3795 -27.7188 -76.4633
-21.4345 -2.63086 -78.8768
-47.9874 -18.562 -76.4633
14.7868 4.88498 -88.404
-20.33 1.05001 -79.973
-47.6805 -20.073 -76.4633
-49.1866 -19.4932 -93.623
-49.1866 -19.4932 -88.404
44.8832 20.7473 -79.973
20.9253 27.3927 -79.973
22.5 14.6875 -79.973
42.1101 11.0415 -79.973
22.5 14.6875 -79.3951
20.5114 16.3601 -79.973
21.7588 14.1365 -79.973
21.7588 14.1365 -78.8768
42.6611 8.22523 -79.973
18.7653 19.4727 -79.973
-28.1555 -16.1999 54.665
20.1744 16.9608 -79.973
46.41 14.3858 -88.404
21.3596 20.5163 -79.973
21.8799 17.8569 -79.973
-12.4169 -9.99651 76.2421
28.1693 24.736 -73.5374
-11.3883 -14.1942 72.0326
-2.99622 -32.1449 -79.973
-13.397 -10.7516 76.2421
-15.0748 -10.5248 73.4361
35.7558 -1.04105 -76.8777
-29.1333 -20.2742 46.44
-18.141 -19.0493 61.077
-12.0087 -8.68511 77.511
-10.7238 -9.03955 78.2352
-10.7238 -9.03955 76.2421
-11.592 -8.80005 78.2352
-47.1875 -22.5 -79.973
35.7558 -1.04105 -78.8768
-19.0616 2.37876 -76.4633
39.9767 19.6371 -78.9601
40.8879 19.4346 -79.973
-15.2385 1.26825 -76.4633
19.666 15.4354 -79.973
36.3361 23.5963 -76.5533
23.1676 19.2653 -79.973
40.2385 19.1492 -78.8905
-19.3795 -27.7188 -79.973
40.2385 19.1492 -79.973
-47.875 -18.5 -78.8768
23.1676 19.2653 -76.3831
41.1237 14.2504 -78.2903
22.5 14.6875 -76.4633
-15.3843 -11.6007 73.4407
42.6054 0.308751 -74.289
-2.90341 -12.3764 61.077
22.5 14.6875 -77.7541
24.0296 25.1764 -79.973
28.1693 24.736 -79.973
-28.1555 -16.1999 46.44
-16.8882 -10.2796 70.4033
-27.259 -7.74161 -79.973
42.1521 -1.36863 -72.3539
-32.7179 -14.9007 46.44
36.7737 23.1962 -79.973
36.7737 23.1962 -79.5412
-8.15234 -30.7519 46.44
-24.6857 -1.74245 -76.4633
-49.1866 -19.4932 -79.973
-46.0188 -18.3674 -78.8768
40.8462 8.7385 -72.9286
20.3609 3.30968 -72.8301
-30.3828 -6.8285 -78.8768
-29.6605 -4.33184 -78.8768
-13.0148 -10.3344 76.2421
-33.8107 -18.678 -79.973
-31.3721 -10.2486 -79.973
-11.81 -10.7338 76.2421
-31.3721 -10.2486 -79.6492
14.7868 4.88498 -93.623
-10.318 10.687 -78.8768
21.7588 14.1365 -77.7541
-49.3518 -19.6214 -76.4633
17.6285 15.3046 -77.7541
-45.3125 -16.4851 -79.7392
-9.4375 -8.3125 74.366
-8.84006 -9.30823 74.366
-8.84006 -9.30823 76.2421
-10.029 -8.64684 74.366
-10.4493 -10.0807 75.9258
-10.1888 -9.192 74.366
-49.4125 -22.0144 -93.623
26.2886 22.6789 -77.7541
-30.2173 -24.7908 -93.623
-16.7786 5.67051 -79.973
23.8476 20.0091 -77.7541
40.2385 19.1492 -76.3702
-11.8431 -9.67221 78.2385
23.8476 20.0091 -78.8571
40.2385 19.1492 -74.289
-20.33 1.05001 -78.8768
47.8611 19.7546 -81.3165
47.3844 17.991 -81.5561
-25.498 -1.52048 -76.4633
31.9041 24.3387 -79.973
-5.8125 -22.5625 54.665
-1.78437 -23.7096 54.665
-26.0049 -3.311 -74.289
31.9041 24.3387 -79.9455
-1.78437 -23.7096 46.44
-25.127 -3.58112 -74.289
2.25852 -24.8609 46.44
39.9767 19.6371 -79.973
17.5722 28.4272 -81.217
17.5722 28.4272 -79.973
-11.2236 -12.8202 74.3285
19.9557 27.6919 -79.973
-14.339 7.56482 -80.6836
-11.3743 -13.2367 73.5861
-14.9071 7.12364 -80.6663
-8.84006 -9.30823 73.9374
-7.42325 -11.6696 68.7142
-12.3152 -12.5003 76.2421
-13.3059 -6.30042 71.1039
40.5949 9.27965 -77.7541
41.1237 14.2504 -78.8768
-25.6868 -26.0148 -74.289
31.5625 24.375 -77.9824
40.5949 9.27965 -76.4633
33.0985 24.6755 -74.289
23.8476 20.0091 -78.8768
39.9767 19.6371 -76.4633
-44.2012 -22.7297 -88.404
-31.9522 -24.3221 -78.102
-44.0077 -23.194 -88.404
-44.2012 -22.7297 -79.973
-24.6857 -1.74245 -79.973
-44.0077 -23.194 -79.973
-35.3169 -23.4131 -79.973
-10.2063 -9.1823 74.366
-10.9614 -8.97401 74.366
-12.7027 -10.1581 77.0821
30.537 27.3256 -79.973
40.5464 8.82329 -78.8768
31.5625 24.375 -74.7649
21.7588 14.1365 -76.4633
-9.76906 -7.75989 71.8522
-32.3529 -25.7377 -79.973
33.0985 24.6755 -79.973
-19.43 0.8 54.665
44.6474 15.9973 -79.973
-22.0971 1.54087 -79.973
-31.9522 -24.3221 -76.4633
17.5722 28.4272 -88.404
-13.1873 -10.0291 76.2421
-12.3803 -1.15825 62.3439
-21.4345 -2.63086 -74.289
-15.4628 -0.302004 61.077
-31.3721 -10.2486 -78.8768
-17.5735 -19.211 61.077
-45.3125 -17.2187 -78.8768
-45.3125 -16.4851 -78.8768
-14.856 -11.7616 74.366
-12.4818 -11.2774 76.2421
-11.3372 -1.44799 54.665
-5.81722 -22.5612 61.0789
-47.9108 -18.5026 -79.66
-30.3951 -6.87129 -79.973
-37.6456 -10.532 -79.973
-6.15904 -22.4638 61.0788
-33.4613 -17.4705 -78.9568
-45.3125 -18.317 -79.5336
-1.30942 -4.23349 62.2653
-9.4375 -8.3125 72.5964
-10.1875 -9.1875 74.3331
-23.6932 -17.4707 61.0704
47.8611 19.7546 -88.404
-10.4493 -10.0807 74.3434
-47.1875 -22.5 -88.404
-11.9278 -5.22859 68.7359
27.0282 23.4878 -78.4965
23.6734 19.8185 -78.8768
-25.6868 -26.0148 -79.973
46.2569 20.2894 -79.973
-27.6814 -2.79514 -93.623
-47.6805 -20.073 -78.8768
-27.6814 -2.79514 -88.404
-49.3518 -19.6214 -78.8768
-15.5389 -12.1382 73.4429
38.4411 -1.79993 -77.7541
38.4411 -1.79993 -76.4633
40.2898 19.0537 -78.8768
41.4122 16.962 -78.5784
40.9375 12.5 -78.1043
39.3123 9.17227 -77.8228
27.0282 23.4878 -78.8768
31.5625 24.375 -77.7541
10.75 4.6875 -74.289
-35.1903 -23.4473 -74.289
39.3125 20.875 -77.7541
-25.3454 -0.981327 -93.623
41.4122 16.962 -77.7541
39.9767 19.6371 -77.7541
7.48435 -6.67621 -74.289
13.9633 29.5406 -79.973
-6.59745 -11.7987 67.3189
-35.1903 -23.4473 -76.4633
-9.94854 -5.76944 68.7073
-11.4579 -8.83393 74.366
-5.81612 -22.5615 61.077
-35.1903 -23.4473 -78.8768
-33.4613 -17.4705 -74.289
-10.7256 -9.04055 74.366
4.98064 -0.00581908 46.44
35.7558 -1.04105 -79.973
-13.46 -12.1647 78.2488
-15.2992 -11.6257 76.2421
-15.2992 -11.6257 78.2488
-25.3454 -0.981327 -88.404
41.4068 8.57996 -77.7541
-10.029 -8.64684 73.4091
-45.3125 -16.4851 -79.973
-9.24223 -5.96245 68.6971
-11.2388 -12.7927 74.366
-10.1833 -9.17318 74.3329
40.9375 12.5 -75.631
10.75 4.6875 -76.4633
-35.1903 -23.4473 -78.3838
-19.43 0.8 -93.623
40.9375 12.5 -72.9214
41.4122 16.962 -76.4633
23.8476 20.0091 -79.9161
41.1237 14.2504 -75.8256
-16.7786 5.67051 -93.623
41.1237 14.2504 -79.973
23.8476 20.0091 -79.973
21.2604 28.6215 -93.623
42.6611 8.22523 -78.8768
31.5625 24.375 -78.8768
-0.629596 -4.42233 61.0784
-19.3795 -27.7188 -88.404
-1.58458 -7.76477 61.077
-7.29587 13.0335 -79.973
-8.58585 12.0319 -80.859
-19.0616 2.37876 46.44
49.2028 24.7191 -80.6422
-47.08 -17.8575 -88.404
-13.5482 -10.6359 78.2436
-13.059 -10.7739 78.2436
-13.945 -10.8602 76.2421
29.2783 25.9489 -79.973
-13.0182 -10.3364 77.5155
-13.1208 -29.4097 -76.4633
41.1237 14.2504 -77.7541
-30.2173 -24.7908 -79.973
-25.6868 -26.0148 -77.5568
-19.3795 -27.7188 -77.0079
-30.2173 -24.7908 -77.951
-2.99622 -32.1449 -76.4633
-8.125 10.0625 -78.8768
-30.2173 -24.7908 -76.4633
-9.4375 -8.3125 78.2314
-9.4375 -8.3125 76.2421
-8.84006 -9.30823 78.2343
3.40067 -5.54185 54.665
-10.2076 -9.1867 74.366
-9.18689 -9.4747 74.366
46.2534 25.5432 -79.973
-10.029 -8.64684 78.2331
-30.5395 -26.1335 -88.404
-10.4493 -10.0807 78.2386
-10.4493 -10.0807 76.2421
-14.9071 7.12364 -88.404
24.9451 2.01416 -74.289
-30.5395 -26.1335 -93.623
-10.029 -8.64684 76.2421
-11.1543 -10.4191 78.2404
26.2886 22.6789 -78.5803
-12.7872 -8.45884 74.366
-12.2025 -10.9222 76.7897
-15.2385 1.26825 -78.8768
-45.3125 -20.7127 -78.8768
-11.9896 -10.1809 78.2404
-11.5872 -9.95465 76.2421
-20.4854 2.79232 -78.8768
-10.3765 5.80724 -74.289
45.1989 9.90482 -79.973
45.1989 9.90482 -88.404
29.0881 5.05513 -74.289
-27.259 -7.74161 -78.8768
46.41 14.3858 -82.0458
14.7868 4.88498 -76.4633
45.9396 12.6451 -82.2823
47.3844 17.991 -79.973
47.3844 17.991 -88.404
45.9396 12.6451 -88.404
35.7558 -1.04105 -88.404
0.747769 8.85253 -79.973
-15.4628 -0.302004 54.665
26.2886 22.6789 -76.4633
7.48435 -6.67621 46.44
23.8476 20.0091 -76.4633
-24.6857 -1.74245 46.44
2.37467 -9.13681 54.665
38.4411 -1.79993 -79.973
-45.3125 -20.7127 -79.973
-45.3125 -18.317 -79.973
-44.6518 -20.8912 -79.973
-47.9108 -18.5026 -79.973
-13.0462 -12.286 77.5235
-33.4613 -17.4705 -79.973
24.7075 20.9496 -79.973
13.9375 5.125 -79.973
22.3935 13.957 -79.3191
-10.86 4.12652 54.665
19.9557 27.6919 -80.9993
17.9456 29.7265 -81.3417
14.9994 16.0481 -79.973
18.2835 17.7062 -79.973
24.3804 27.5815 -79.973
19.6701 29.1516 -79.973
19.6701 29.1516 -81.1794
19.6701 29.1516 -88.404
22.3935 13.957 -77.7541
20.3948 25.4475 -79.973
-13.4681 -10.9962 76.2421
-13.0128 -10.3379 77.5155
38.4411 -1.79993 -88.404
17.6285 15.3046 -74.289
14.7868 4.88498 -79.973
-23.6923 -17.4668 61.077
-12.0044 -11.4135 76.2421
38.4411 -1.79993 -78.8768
31.4472 24.3524 -79.973
-46.4387 -17.3596 -79.973
35.1426 23.9941 -79.7233
39.3125 20.875 -78.8768
31.5625 24.375 -79.969
39.3125 20.875 -79.1367
36.3361 23.5963 -79.611
23.1676 19.2653 -79.8712
-18.1413 -19.0516 54.665
39.3123 9.17227 -75.261
41.4122 16.962 -76.127
22.3935 13.957 -75.793
-14.6875 5.125 -76.4633
23.8269 19.9865 -76.4633
26.5165 1.57006 -79.973
45.9396 12.6451 -79.973
-27.259 -7.74161 46.44
-6.57108 -6.69235 68.6586
14.7868 4.88498 -78.8768
26.5165 1.57006 -88.404
31.3202 28.1822 -79.973
17.9456 29.7265 -93.623
31.5625 24.375 -76.4633
35.1426 23.9941 -74.289
31.5625 24.375 -79.973
-9.09726 11.6348 -93.623
39.3125 20.875 -76.4633
-6.15904 -22.4638 61.077
-12.8373 -10.6484 77.0946
-10.7586 -11.136 76.2421
5.65221 -13.0516 -93.623
35.1426 23.9941 -78.8768
42.662 26.5466 -79.973
41.4122 16.962 -79.973
39.3125 20.875 -79.973
40.9375 12.5 -78.8768
-32.3529 -25.7377 -93.623
39.3123 9.17227 -79.973
40.9375 12.5 -77.7541
-2.83231 -27.3814 54.665
39.3123 9.17227 -78.8768
-7.78936 11.2652 -79.973
-18.6287 4.23395 -80.5528
43.2469 13.5427 -79.973
36.3361 23.5963 -78.8768
27.0282 23.4878 -77.7541
27.0282 23.4878 -76.4633
-2.99622 -32.1449 -93.623
38.983 14.964 -78.4917
-13.9575 -8.66648 74.366
39.3123 9.17227 -76.4633
40.9375 12.5 -76.4633
39.3125 20.875 -74.289
-49.3518 -19.6214 -79.973
-14.9071 7.12364 -93.623
27.0282 23.4878 -79.973
10.75 4.6875 -79.973
-30.3828 -6.8285 46.44
-45.3125 -20.7127 -76.4633
35.7558 -1.04105 -76.4633
-33.4613 -17.4705 -78.8768
-46.4387 -17.3596 -88.404
9.09296 -1.0786 46.44
4.27946 -1.12242 54.665
-26.0049 -3.311 -78.8768
-26.0049 -3.311 -79.973
21.2604 28.6215 -88.404
11.9287 8.78909 -79.973
-13.4329 -4.81733 68.7576
23.6773 10.7166 -72.3539
-9.83075 -21.4182 61.077
-47.9874 -18.562 -78.8768
44.292 18.6782 -79.973
-30.3828 -6.8285 -78.8768
2.01557 -9.03869 54.665
42.9714 14.0561 -79.973
-47.6805 -20.073 -79.973
-46.4387 -17.3596 -93.623
41.7804 -2.74366 -77.7541
-27.6814 -2.79514 -79.973
14.7868 4.88498 -77.7541
-8.58585 12.0319 -79.973
-8.58585 12.0319 -88.404
-22.0971 1.54087 -78.8768
-15.4628 -0.302004 62.3658
-20.33 1.05001 -74.289
-45.3125 -22.9092 -79.973
-45.3125 -22.9092 -88.404
13.9633 29.5406 -88.404
-45.3125 -21.9643 -79.973
-20.3027 -2.94013 -74.289
-24.6461 -21.5547 54.665
6.65307 5.85417 46.44
41.7804 -2.74366 -88.404
-11.7703 -12.6412 74.366
0.609128 -0.0868036 54.665
0.933887 1.04986 54.665
0.933887 1.04986 46.44
17.9456 29.7265 -88.404
35.7558 -1.04105 -77.7541
3.40067 -5.54185 46.44
-10.1131 2.93856 54.665
-45.3125 -22.6442 -79.973
-14.4221 6.98271 -78.8768
-26.1998 -8.05122 54.665
-10.3765 5.80724 -79.973
-15.4628 -0.302004 46.44
-10.3765 5.80724 -78.8768
-12.4043 -10.0582 77.5158
40.5464 8.82329 -72.8257
-43.0609 -21.321 -93.623
-45.3125 -16.4851 -88.404
-30.0505 -17.6037 -93.623
32.4369 29.4037 -79.973
-31.9522 -24.3221 -93.623
-25.498 -1.52048 -93.623
-47.9874 -18.562 -93.623
-25.8988 -1.41098 -93.623
39.3043 1.22132 -73.3925
-24.6857 -1.74245 -93.623
-20.4854 2.79232 -88.404
-19.0616 2.37876 -79.973
-12.5801 -11.1035 74.366
-19.43 0.8 61.077
-20.4854 2.79232 -79.973
-19.0616 2.37876 -88.404
-15.2385 1.26825 -79.973
-26.1998 -8.05122 -74.289
-15.2385 1.26825 -74.289
33.0985 24.6755 -75.2152
-10.0579 -8.66315 74.366
-19.43 0.8 -76.4633
-14.6875 5.125 -79.973
-9.07461 10.3329 -78.8768
-14.4221 6.98271 -79.973
-45.3125 -16.4851 -93.623
35.7558 -1.04105 -74.289
-47.9874 -18.562 -88.404
-23.4693 -16.5114 62.7234
-47.9108 -18.5026 -78.8768
-4.54418 -7.24621 66.1037
-17.5742 -19.2132 61.0733
-17.5742 -19.2132 54.665
-12.5247 -10.476 77.5172
47.8611 19.7546 -79.973
7.48435 -6.67621 -93.623
15.5765 7.78067 -79.973
42.4735 26.5993 -79.973
42.4735 26.5993 -88.404
-20.7654 -4.92315 -93.623
-20.3027 -2.94013 -93.623
38.2971 27.7663 -79.973
13.9375 5.125 -88.404
38.2971 27.7663 -88.404
6.45668 -10.2522 -88.404
35.1426 23.9941 -79.973
42.662 26.5466 -88.404
41.869 12.2737 -72.8022
-8.65961 -9.60899 71.667
-21.4345 -2.63086 -79.973
-47.875 -18.5 -79.6583
-24.6857 -1.74245 -74.289
-29.1333 -20.2742 54.665
-14.9071 7.12364 -79.973
-45.3125 -22.6442 -88.404
-21.4345 -2.63086 46.44
-47.6805 -20.073 -93.623
-16.7786 5.67051 -88.404
-25.8988 -1.41098 -88.404
-10.7238 -9.03955 75.2689
-12.4138 -9.99475 74.366
-13.5579 -5.25178 69.5191
-20.3027 -2.94013 61.4795
-11.2815 -8.88571 76.2421
-30.2173 -24.7908 46.44
-19.43 0.8 46.44
-22.0971 1.54087 -93.623
-33.8107 -18.678 -74.289
-6.8612 -26.2329 54.665
10.75 4.6875 46.44
42.6611 8.22523 -76.4633
-47.1875 -22.5 -88.404
-27.259 -7.74161 -74.289
44.597 7.67774 -78.8768
-14.4221 6.98271 -76.4633
-10.3765 5.80724 -76.4633
-31.9522 -24.3221 -74.289
-23.6932 -17.4707 54.665
-25.498 -1.52048 -78.8768
25.0135 31.4779 -79.973
23.7812 27.7813 -79.973
41.7804 -2.74366 -76.4633
40.2385 19.1492 -77.7541
41.7804 -2.74366 -78.8768
-20.4854 2.79232 -93.623
-2.0943 -9.54715 61.077
-4.50833 -10.7542 64.4231
42.3045 15.299 -72.7959
40.5464 8.82329 -79.973
41.6054 18.7786 -79.973
6.45668 -10.2522 -74.289
3.04393 -5.44276 54.665
-33.8107 -18.678 -76.4633
-33.8107 -18.678 -78.8768
37.7899 23.7125 -72.7309
-32.3529 -25.7377 -88.404
-9.59511 -13.2976 74.3074
-9.59511 -13.2976 71.4739
-13.9357 7.87797 -88.404
-0.0625004 -32.9375 -93.623
-16.0073 -4.11385 68.7948
-13.9357 7.87797 -93.623
1.09735 -28.9015 -74.289
-49.4125 -19.605 -93.623
-26.0049 -3.311 -76.4633
-27.259 -7.74161 -76.4633
-1.66154 -8.0339 61.077
47.8611 19.7546 -93.623
-25.498 -1.52048 -79.973
-6.96615 -26.6003 54.665
-10.762 -11.1475 74.3557
-19.43 0.8 -78.8768
15.5765 7.78067 -76.4633
21.2635 6.20856 -72.3539
13.9633 29.5406 -81.5466
-9.07461 10.3329 -79.973
-10.4655 -10.0884 74.366
-13.0148 -10.3344 74.366
-20.33 1.05001 -76.4633
-21.4345 -2.63086 -76.4633
-10.6625 -13.8312 72.9534
-3.66399 -15.036 61.077
-11.2438 -12.7913 74.366
-9.23711 -8.64648 73.0462
22.25 32.25 -81.381
-5.77458 -14.4174 64.7768
-8.65961 -9.60899 74.3425
-9.1721 -9.46761 74.3477
-9.1721 -9.46761 72.5613
-2.59076 -11.2832 61.077
-10.2019 -9.18353 74.3582
-47.1875 -22.5 -88.404
-14.1986 -7.47915 73.4233
15.3269 30.5994 -88.404
-14.3437 -7.98333 73.4254
35.1426 23.9941 -76.4633
40.5464 8.82329 -76.4633
40.5464 8.82329 -77.7541
-2.9375 -27.75 46.44
22.25 32.25 -88.404
43.7583 16.8103 -79.973
10.75 4.6875 -78.8768
39.9767 19.6371 -76.4245
-12.5245 -10.4764 77.5167
17.6285 15.3046 -75.9428
-24.6857 -1.74245 -88.404
-18.6857 -22.8622 54.665
1.50243 19.8651 -81.1666
-19.43 0.8 61.1367
-19.43 0.8 -74.289
-10.7052 -10.2035 76.2421
22.25 32.25 -79.973
-12.3806 -9.976 77.5155
-18.7397 -23.2403 54.665
-8.84006 -9.30823 72.0979
-41.1413 -18.019 -79.973
-13.8132 -8.16935 74.366
-12.5801 -11.1035 76.2421
-11.6995 -12.6614 74.366
1.50243 19.8651 -88.404
-11.12 3.22267 54.665
-6.00467 -6.84712 68.6504
44.597 7.67774 -74.289
-47.1875 -22.5 -79.973
2.37467 -9.13681 46.44
-43.0609 -21.321 -79.973
-31.9522 -24.3221 -79.973
-1.66148 -8.03392 54.665
-21.7957 -9.33857 54.665
-10.7681 -11.1465 74.366
-12.2269 -10.9339 74.366
41.4122 16.962 -78.8768
41.7804 -2.74366 -93.623
-19.3795 -27.7188 -74.289
45.5481 18.399 -79.973
21.7588 14.1365 -72.3539
-29.5415 -15.8052 46.44
-35.1903 -23.4473 -79.973
-10.2076 -9.1867 74.366
-9.07461 10.3329 -76.4633
-25.6868 -26.0148 46.44
-10.3765 5.80724 46.44
32.4369 29.4037 -80.484
-10.86 4.12652 46.44
28.9049 30.3906 -80.795
9.09296 -1.0786 -74.289
-0.0625004 -32.9375 -75.327
-2.99622 -32.1449 -75.5823
41.4068 8.57996 -76.4633
-8.125 10.0625 -76.4633
-11.8818 -9.69407 76.8391
-24.5604 -21.1875 54.665
41.1237 14.2504 -76.4633
-47.1875 -22.5 -93.623
-0.0625004 -32.9375 -88.404
-12.0912 -9.81243 76.2421
21.2604 28.6215 -81.0298
-49.4125 -19.605 -88.404
-9.59484 -21.4854 61.0771
15.5765 7.78067 -77.7541
-20.3027 -2.94013 61.077
-26.0049 -3.311 -88.404
7.48435 -6.67621 -79.973
1.09735 -28.9015 46.44
-11.0238 -12.0409 74.366
22.3935 13.957 -78.8768
-19.0616 2.37876 -74.289
-0.628776 -4.42256 61.077
-30.3828 -6.8285 -74.289
15.3269 30.5994 -93.623
-12.3803 -1.15825 61.077
-4.10622 -31.845 46.44
6.65307 5.85417 -74.289
-18.7397 -23.2403 46.44
-14.6875 5.125 -78.8768
-49.3518 -19.6214 -93.623
-18.6287 4.23395 -88.404
-12.5251 -10.4762 77.5167
-12.5249 -10.4766 77.5172
-30.6814 -19.8324 46.44
-12.5801 -11.1035 76.4778
-12.2613 -10.9504 76.8718
-24.3101 -0.177415 -88.404
-11.7383 -10.6994 77.5185
14.0888 16.3056 -79.973
-24.6857 -1.74245 54.665
22.3935 13.957 -79.973
-13.0148 -10.3344 76.6624
-16.0217 -4.21432 68.9642
5.65221 -13.0516 -88.404
6.45668 -10.2522 -93.623
-20.3027 -2.94013 54.665
40.9375 12.5 -79.973
-19.3795 -27.7188 46.44
-8.125 10.0625 -79.973
-9.09726 11.6348 -79.973
-14.8105 4.26397 54.665
-10.318 10.687 -79.973
-9.85474 3.86428 46.44
-9.39232 5.52128 46.44
-30.3828 -6.8285 -76.4633
-18.1413 -19.0516 61.073
28.9049 30.3906 -79.973
-14.6875 5.125 54.665
-32.194 -6.29905 -78.8768
-35.6451 -25.0192 -79.973
-24.6857 -1.74245 -78.8768
-17.2918 -13.1048 71.0736
-6.96615 -26.6003 46.44
-33.8805 -18.9194 46.44
-32.194 -6.29905 -79.973
-30.3828 -6.8285 -79.973
19.4506 14.7893 -76.4633
4.98064 -0.00581908 54.665
-47.9874 -18.562 -79.973
-12.3803 -1.15825 54.665
25.0135 31.4779 -88.404
-30.5395 -26.1335 -79.973
1.50243 19.8651 -79.973
-0.629596 -4.42233 61.077
-2.99622 -32.1449 -74.289
-14.339 7.56482 -79.973
-14.339 7.56482 -88.404
23.1676 19.2653 -78.8768
7.48435 -6.67621 -88.404
40.5464 8.82329 -74.289
23.1676 19.2653 -77.7541
10.75 4.6875 -78.9384
-18.71 0.599992 62.3889
-0.0625004 -32.9375 46.44
4.62529 0.08688 54.665
22.3935 13.957 -76.4633
11.1057 5.92529 -93.623
44.597 7.67774 -76.4633
-32.194 -6.29905 -80.1392
17.6285 15.3046 -76.4633
15.5765 7.78067 -75.1063
-10.9555 -13.9778 72.5817
-31.9522 -24.3221 46.44
-16.0905 -4.09113 68.796
-14.4221 6.98271 -74.289
-6.1583 -22.4651 61.077
21.2604 28.6215 -79.973
-18.6287 4.23395 -79.973
39.7893 19.9865 -76.4633
-25.498 -1.52048 -74.289
48.0399 25.044 -79.973
11.1057 5.92529 -88.404
24.125 20.3125 -78.8768
-13.78 -12.0709 76.2421
-33.8805 -18.9194 -74.289
-24.3101 -0.177415 -79.973
-9.85474 3.86428 54.665
-35.6451 -25.0192 -88.404
17.6285 15.3046 -78.8768
-16.1129 -4.85307 69.1158
23.1676 19.2653 -76.4633
-49.4125 -22.0144 -79.973
-25.6868 -26.0148 -88.404
-10.318 10.687 -88.404
-14.6875 5.125 -74.289
-20.4854 2.79232 -80.4962
-10.86 4.12652 -74.289
26.6875 7.25 -72.9864
17.6285 15.3046 -79.973
-4.10622 -31.845 -74.289
19.4506 14.7893 -74.289
-0.0625004 -32.9375 -74.289
-9.07461 10.3329 -74.289
-35.1903 -23.4473 46.44
9.09296 -1.0786 -93.623
36.3361 23.5963 -76.4633
-24.6461 -21.5547 46.44
44.597 7.67774 -79.973
19.4506 14.7893 -77.7541
-0.629596 -4.42233 54.665
-1.66148 -8.03392 61.0769
-47.9108 -18.5026 -76.4633
32.4369 29.4037 -88.404
41.4068 8.57996 -79.973
28.9049 30.3906 -88.404
9.09296 -1.0786 -88.404
11.1057 5.92529 -79.973
5.33668 1.2417 46.44
49.2028 24.7191 -88.404
-10.7156 -10.9894 77.5209
-3.20008 -27.2766 54.665
-5.8125 -22.5625 61.0707
14.7868 4.88498 -76.1218
41.7804 -2.74366 -79.973
-18.6287 4.23395 -93.623
41.4068 8.57996 -78.8768
-2.1502 -23.6054 54.665
-24.3101 -0.177415 -93.623
10.75 4.6875 -88.404
19.4506 14.7893 -79.973
19.4506 14.7893 -78.8768
-5.81644 -22.5626 61.077
-49.3518 -19.6214 -88.404
-25.6868 -26.0148 -93.623
-0.919675 8.01065 -79.973
44.597 7.67774 -77.7541
-11.25 -12.8125 74.3289
-2.9375 -27.75 54.665
-30.2173 -24.7908 -88.404
-11.8784 -10.9729 76.2421
44.597 7.67774 -88.404
6.45668 -10.2522 46.44
-0.0625004 -32.9375 -79.973
49.2028 24.7191 -93.623
-15.2385 1.26825 46.44
33.5765 24.1607 -77.7541
49.2028 24.7191 -79.973
-14.6875 5.125 46.44
-29.6605 -4.33184 -88.404
5  910 455 1000 863 1022  255 0 0
5  906 727 846 1146 744  255 0 0
4  910 1004 303 455  255 0 0
4  906 1001 1036 727  255 0 0
4  906 744 340 1001  255 0 0
4  910 1022 1145 1004  255 0 0
4  319 1004 1145 750  255 0 0
4  1155 1001 340 391  255 0 0
9  1155 993 1114 909 897 567 992 308 1009  255 0 0
6  1155 1009 1071 851 1036 1001  255 0 0
5  1155 391 622 994 993  255 0 0
7  753 308 992 561 590 948 1074  255 0 0
4  753 1129 1094 1141  255 0 0
4  753 1147 661 1129  255 0 0
3  753 1074 1147  255 0 0
4  984 502 972 439  255 0 0
5  984 574 591 497 973  255 0 0
4  984 439 900 574  255 0 0
5  561 272 876 789 1019  255 0 0
5  562 570 899 874 1097  255 0 0
4  562 1116 1085 883  255 0 0
4  1114 993 994 1067  255 0 0
4  1114 1076 1010 909  255 0 0
4  561 992 271 272  255 0 0
5  561 1019 279 996 590  255 0 0
5  1114 1067 1112 1018 1076  255 0 0
4  562 883 516 570  255 0 0
4  562 1097 1056 1116  255 0 0
4  876 272 271 759  255 0 0
4  1076 1018 945 1010  255 0 0
5  876 759 577 1130 789  255 0 0
4  1116 1056 1026 1085  255 0 0
4  325 883 1085 871  255 0 0
4  325 490 363 624  255 0 0
4  871 1085 1026 395  255 0 0
4  871 987 490 325  255 0 0
4  871 395 1119 987  255 0 0
4  1004 319 1104 303  255 0 0
4  987 1040 980 490  255 0 0
4  490 980 365 363  255 0 0
4  987 1119 1020 1040  255 0 0
7  980 1112 1067 994 622 616 365  255 0 0
5  1040 430 1018 1112 980  255 0 0
4  1040 1020 1055 430  255 0 0
5  992 567 664 759 271  255 0 0
4  759 664 797 577  255 0 0
4  1107 1087 649 1109  255 0 0
4  1160 1157 825 1107  255 0 0
4  1160 1107 1109 990  255 0 0
4  1141 1128 308 753  255 0 0
5  1141 1094 1079 1117 1128  255 0 0
4  1022 863 813 371  255 0 0
5  1106 905 908 722 280  255 0 0
4  1022 371 372 1145  255 0 0
4  872 608 1157 803  255 0 0
4  872 300 787 956  255 0 0
4  956 787 520 782  255 0 0
4  956 1013 608 872  255 0 0
5  666 347 824 474 858  255 0 0
4  858 474 471 1092  255 0 0
6  1161 321 808 832 548 550  255 0 0
4  347 423 983 713  255 0 0
4  1015 575 306 1047  255 0 0
7  754 427 1056 1097 874 575 1015  255 0 0
4  824 879 471 474  255 0 0
4  754 713 983 427  255 0 0
4  754 1015 879 713  255 0 0
4  347 713 879 824  255 0 0
4  1128 1071 1009 308  255 0 0
4  1117 842 1071 1128  255 0 0
6  1117 1079 722 908 751 597  255 0 0
4  279 1019 789 282  255 0 0
4  279 1115 986 996  255 0 0
4  1045 990 988 1046  255 0 0
4  282 789 1130 1046  255 0 0
4  279 356 649 1115  255 0 0
5  1045 1046 1130 577 794  255 0 0
4  282 1046 356 279  255 0 0
4  347 666 1032 801  255 0 0
4  666 858 520 862  255 0 0
4  300 862 520 787  255 0 0
5  1129 764 843 693 676  255 0 0
4  1129 676 849 1094  255 0 0
4  984 973 511 1052  255 0 0
5  319 750 773 401 1104  255 0 0
5  984 1052 501 499 502  255 0 0
4  1018 430 1055 945  255 0 0
4  300 872 513 1038  255 0 0
6  803 1157 1160 1050 1043 662  255 0 0
4  296 1058 436 437  255 0 0
5  1044 922 802 831 1068  255 0 0
5  296 776 762 425 1058  255 0 0
4  296 1161 550 776  255 0 0
6  1044 1068 481 1069 905 1106  255 0 0
4  790 691 668 1136  255 0 0
4  1136 1120 1153 790  255 0 0
4  1079 718 1016 722  255 0 0
4  1079 443 600 718  255 0 0
5  1094 849 368 443 1079  255 0 0
4  1050 678 967 1043  255 0 0
4  1050 1160 990 678  255 0 0
4  1045 794 793 1099  255 0 0
4  1131 540 465 609  255 0 0
4  1159 841 547 1093  255 0 0
4  1159 609 465 841  255 0 0
7  1131 609 1159 1093 631 729 853  255 0 0
5  296 1057 1081 321 1161  255 0 0
4  1145 372 432 750  255 0 0
4  662 1043 967 1062  255 0 0
4  662 1062 1017 521  255 0 0
4  396 1054 552 523  255 0 0
4  1144 1088 533 529  255 0 0
4  1144 573 724 1088  255 0 0
7  1144 529 927 904 932 928 573  255 0 0
6  913 892 893 855 961 837  255 0 0
4  1136 668 696 890  255 0 0
5  268 888 554 152 182  255 0 0
12  268 418 258 969 1080 1148 880 1120 1136 890 775 888  255 0 0
7  1031 764 1129 661 738 606 1065  255 0 0
7  1031 478 480 688 382 682 681  255 0 0
6  969 258 154 84 65 244  255 0 0
4  1120 650 651 1153  255 0 0
5  1031 681 1111 843 764  255 0 0
6  1120 381 376 772 740 650  255 0 0
5  969 244 995 877 1080  255 0 0
4  1120 880 601 381  255 0 0
4  664 1154 971 797  255 0 0
4  1154 664 567 897  255 0 0
4  1154 475 473 971  255 0 0
4  1106 280 1042 1044  255 0 0
4  667 771 898 628  255 0 0
6  667 470 736 1133 1139 771  255 0 0
7  960 953 875 1133 736 1150 916  255 0 0
4  521 1017 519 781  255 0 0
7  979 443 368 716 660 691 790  255 0 0
4  979 914 600 443  255 0 0
9  790 1153 651 659 385 658 540 914 979  255 0 0
4  958 886 355 353  255 0 0
3  1111 681 682  255 0 0
4  1111 1142 1143 1101  255 0 0
4  692 1113 254 256  255 0 0
6  1111 682 382 384 407 1142  255 0 0
5  692 951 1082 1059 1113  255 0 0
4  841 657 981 547  255 0 0
4  1089 353 355 887  255 0 0
4  1089 374 480 684  255 0 0
7  1089 887 386 384 382 688 374  255 0 0
4  667 971 473 470  255 0 0
5  1150 736 470 473 945  255 0 0
4  990 1045 1099 678  255 0 0
4  990 1109 649 988  255 0 0
4  1044 444 830 922  255 0 0
6  880 1148 327 583 1138 601  255 0 0
4  1101 1143 1121 447  255 0 0
4  1082 447 1121 1059  255 0 0
4  1080 877 327 1148  255 0 0
5  950 840 646 640 1030  255 0 0
4  968 837 961 930  255 0 0
7  950 647 352 997 959 805 840  255 0 0
4  968 930 537 714  255 0 0
5  907 765 868 939 1035  255 0 0
7  950 1024 505 304 1002 273 647  255 0 0
4  945 473 475 1010  255 0 0
4  1150 945 1055 916  255 0 0
4  960 916 1055 1020  255 0 0
4  1157 608 1013 825  255 0 0
4  953 960 788 998  255 0 0
5  953 705 839 469 875  255 0 0
4  396 523 838 1048  255 0 0
4  513 820 1007 1038  255 0 0
4  513 662 521 820  255 0 0
5  521 781 1075 955 820  255 0 0
4  1038 975 801 1032  255 0 0
6  1038 1007 694 539 884 975  255 0 0
4  1007 869 835 694  255 0 0
4  1156 914 540 1131  255 0 0
4  1156 361 600 914  255 0 0
10  1156 1131 853 845 850 1125 1127 1063 946 361  255 0 0
4  1133 875 469 1139  255 0 0
4  771 974 1122 898  255 0 0
4  771 1139 469 974  255 0 0
8  913 1123 1134 573 928 419 936 892  255 0 0
4  1104 401 878 303  255 0 0
4  1100 498 501 1052  255 0 0
4  705 953 998 884  255 0 0
3  767 1088 724  255 0 0
7  767 523 552 526 791 390 1005  255 0 0
3  767 838 523  255 0 0
7  573 1134 469 839 838 767 724  255 0 0
4  1048 838 839 705  255 0 0
5  897 909 1010 475 1154  255 0 0
4  694 835 1054 396  255 0 0
4  662 513 872 803  255 0 0
4  1046 988 649 356  255 0 0
4  618 546 1105 1151  255 0 0
4  618 973 497 621  255 0 0
4  1151 1105 1146 457  255 0 0
4  618 1064 511 973  255 0 0
4  618 1151 633 1064  255 0 0
9  1113 25 245 184 242 170 289 255 254  255 0 0
7  1059 509 1078 708 245 25 1113  255 0 0
4  1078 509 445 687  255 0 0
5  245 708 414 248 23  255 0 0
5  1078 416 1103 414 708  255 0 0
4  995 943 944 583  255 0 0
4  244 1072 943 995  255 0 0
4  457 811 733 638  255 0 0
10  457 1146 846 847 592 1137 891 873 1140 816  255 0 0
4  1151 457 638 633  255 0 0
9  1100 902 733 1000 878 542 938 784 498  255 0 0
4  303 878 1000 455  255 0 0
4  638 733 902 633  255 0 0
5  628 898 760 1077 1060  255 0 0
5  946 1063 886 958 931  255 0 0
4  368 849 676 693  255 0 0
4  946 763 600 361  255 0 0
3  907 1035 1086  255 0 0
5  1098 515 369 856 500  255 0 0
4  618 621 619 546  255 0 0
4  325 624 516 883  255 0 0
4  1099 793 792 798  255 0 0
4  395 423 383 859  255 0 0
4  1056 427 983 1026  255 0 0
4  395 1026 983 423  255 0 0
5  998 788 859 383 884  255 0 0
4  396 1048 539 694  255 0 0
4  693 711 716 368  255 0 0
3  266 637 1135  255 0 0
4  693 715 330 711  255 0 0
5  692 256 261 1083 951  255 0 0
6  266 1135 655 919 1083 261  255 0 0
4  693 843 277 715  255 0 0
4  1111 1101 277 843  255 0 0
4  1101 447 1006 277  255 0 0
4  447 1082 919 1006  255 0 0
4  1082 951 1083 919  255 0 0
5  958 353 1089 1003 931  255 0 0
4  946 931 1003 763  255 0 0
5  1032 666 862 300 1038  255 0 0
4  1121 445 509 1059  255 0 0
5  1118 942 339 317 408  255 0 0
5  343 720 328 942 1118  255 0 0
4  343 1118 723 749  255 0 0
4  687 445 380 1012  255 0 0
4  1078 687 420 416  255 0 0
4  1029 582 564 1140  255 0 0
4  1029 323 515 1098  255 0 0
4  1140 873 323 1029  255 0 0
4  1140 564 812 816  255 0 0
6  457 816 812 337 809 811  255 0 0
4  1029 952 301 582  255 0 0
4  1023 817 891 1137  255 0 0
5  1023 864 458 1090 739  255 0 0
4  1137 597 864 1023  255 0 0
5  1105 604 340 744 1146  255 0 0
5  1137 592 842 1117 597  255 0 0
3  1023 822 817  255 0 0
4  1143 380 445 1121  255 0 0
5  1012 380 379 1033 677  255 0 0
4  687 1012 335 420  255 0 0
8  887 683 421 292 276 409 387 386  255 0 0
4  1142 379 380 1143  255 0 0
5  1142 407 378 314 379  255 0 0
5  683 887 355 506 614  255 0 0
4  683 614 422 421  255 0 0
5  1033 379 314 313 375  255 0 0
4  1012 677 377 335  255 0 0
4  1033 375 377 677  255 0 0
5  1063 1127 991 1049 886  255 0 0
5  886 1049 717 506 355  255 0 0
4  869 1007 820 955  255 0 0
10  1054 835 869 1086 1035 1102 318 354 424 320  255 0 0
4  1138 507 895 1126  255 0 0
4  583 327 877 995  255 0 0
4  583 944 507 1138  255 0 0
9  373 283 717 1049 810 848 844 729 631  255 0 0
4  373 547 981 769  255 0 0
10  1126 895 1039 598 358 730 896 947 772 376  255 0 0
4  1126 381 601 1138  255 0 0
8  373 769 947 896 405 731 428 283  255 0 0
3  1126 376 381  255 0 0
4  898 1122 792 760  255 0 0
3  1014 1066 605  255 0 0
3  913 605 1123  255 0 0
4  1103 416 420 1073  255 0 0
5  248 414 710 665 246  255 0 0
3  1103 710 414  255 0 0
4  628 797 971 667  255 0 0
5  1090 458 829 823 818  255 0 0
4  546 411 604 1105  255 0 0
4  546 619 620 411  255 0 0
4  1013 956 828 403  255 0 0
4  1123 974 469 1134  255 0 0
4  1048 705 884 539  255 0 0
6  1014 603 536 519 1017 1066  255 0 0
6  913 837 968 536 603 605  255 0 0
3  1014 605 603  255 0 0
8  536 968 714 586 571 543 765 519  255 0 0
4  781 519 765 907  255 0 0
4  795 517 785 940  255 0 0
4  795 680 477 517  255 0 0
4  763 1003 685 686  255 0 0
4  1089 684 685 1003  255 0 0
4  795 686 685 680  255 0 0
4  1052 511 902 1100  255 0 0
4  633 902 511 1064  255 0 0
4  1127 1125 989 991  255 0 0
4  1049 991 989 810  255 0 0
5  1125 850 848 810 989  255 0 0
4  1122 528 798 792  255 0 0
5  1066 1017 1062 528 1122  255 0 0
5  1066 1122 974 1123 605  255 0 0
4  317 339 728 741  255 0 0
4  741 728 699 703  255 0 0
5  317 741 700 563 331  255 0 0
6  283 852 512 614 506 717  255 0 0
4  947 769 981 514  255 0 0
4  283 703 699 852  255 0 0
5  741 703 429 702 700  255 0 0
4  283 428 429 703  255 0 0
5  280 779 607 778 1042  255 0 0
4  975 884 383 801  255 0 0
4  801 383 423 347  255 0 0
4  788 1119 395 859  255 0 0
5  391 411 620 616 622  255 0 0
4  340 604 411 391  255 0 0
5  1060 1077 793 794 577  255 0 0
4  1077 760 792 793  255 0 0
4  858 1092 467 431  255 0 0
4  500 1053 885 915  255 0 0
4  1058 531 532 1057  255 0 0
5  1058 770 522 442 531  255 0 0
4  1015 1047 912 879  255 0 0
4  1058 425 653 770  255 0 0
3  1057 532 1081  255 0 0
5  321 1081 532 585 808  255 0 0
6  834 610 758 698 672 1061  255 0 0
4  834 372 371 813  255 0 0
4  1061 432 372 834  255 0 0
7  966 779 280 722 1016 940 785  255 0 0
4  966 785 921 954  255 0 0
5  1065 606 778 607 954  255 0 0
4  1065 568 478 1031  255 0 0
4  966 954 607 779  255 0 0
4  1065 954 921 568  255 0 0
7  950 346 1028 695 486 673 1025  255 0 0
5  1118 408 331 563 723  255 0 0
3  317 331 408  255 0 0
4  261 256 254 124  255 0 0
4  1070 335 377 704  255 0 0
4  409 375 313 387  255 0 0
5  409 276 274 291 599  255 0 0
4  614 512 721 422  255 0 0
4  409 704 377 375  255 0 0
5  1070 704 595 494 545  255 0 0
4  409 599 595 704  255 0 0
4  1068 860 483 481  255 0 0
5  1068 831 829 458 860  255 0 0
4  1087 1107 709 881  255 0 0
4  1107 825 406 709  255 0 0
4  829 831 800 1021  255 0 0
4  829 1021 644 823  255 0 0
5  1041 1147 1074 948 623  255 0 0
4  1098 500 952 1029  255 0 0
4  1073 420 335 1070  255 0 0
5  1073 1070 545 462 459  255 0 0
5  600 763 686 795 718  255 0 0
5  1103 1073 459 665 710  255 0 0
4  623 996 986 830  255 0 0
4  1021 709 406 644  255 0 0
4  1021 800 881 709  255 0 0
6  277 1006 919 655 777 715  255 0 0
4  967 798 528 1062  255 0 0
4  1092 471 911 467  255 0 0
4  915 885 761 762  255 0 0
4  425 762 761 653  255 0 0
4  879 912 911 471  255 0 0
4  781 907 1086 1075  255 0 0
4  996 623 948 590  255 0 0
5  1090 818 822 1023 739  255 0 0
6  1024 690 615 613 689 725  255 0 0
4  1054 320 417 552  255 0 0
4  1024 725 1034 505  255 0 0
4  1035 939 941 1102  255 0 0
4  960 1020 1119 788  255 0 0
3  950 1025 1024  255 0 0
4  1086 869 955 1075  255 0 0
5  864 636 483 860 458  255 0 0
4  597 751 636 864  255 0 0
4  795 940 1016 718  255 0 0
4  592 847 1037 842  255 0 0
4  842 1037 851 1071  255 0 0
5  585 532 531 440 309  255 0 0
4  585 698 758 808  255 0 0
4  808 758 774 832  255 0 0
3  865 582 301  255 0 0
4  865 550 548 814  255 0 0
4  865 301 1008 550  255 0 0
4  500 915 301 952  255 0 0
4  986 882 804 830  255 0 0
4  678 1099 798 967  255 0 0
4  765 543 487 868  255 0 0
4  715 777 334 330  255 0 0
6  1072 238 209 706 747 943  255 0 0
6  1072 244 65 66 189 238  255 0 0
5  943 747 748 338 492  255 0 0
5  1069 636 751 908 905  255 0 0
4  1069 481 483 636  255 0 0
4  750 551 549 773  255 0 0
4  296 437 1051 1057  255 0 0
5  1061 672 530 836 768  255 0 0
5  750 432 1061 768 551  255 0 0
4  1058 1057 1051 436  255 0 0
7  773 669 671 972 786 970 401  255 0 0
4  773 549 645 669  255 0 0
4  768 367 446 551  255 0 0
5  770 1047 306 757 522  255 0 0
4  549 370 755 645  255 0 0
5  574 900 899 570 591  255 0 0
4  768 836 1124 367  255 0 0
4  370 549 551 446  255 0 0
4  1047 770 653 912  255 0 0
5  370 367 1124 350 755  255 0 0
6  1042 778 606 362 444 1044  255 0 0
4  738 661 1147 1041  255 0 0
4  1041 623 364 738  255 0 0
4  606 738 364 362  255 0 0
4  847 846 727 1037  255 0 0
4  1037 727 1036 851  255 0 0
4  1088 767 1005 533  255 0 0
5  725 689 392 518 1034  255 0 0
5  1102 941 316 315 318  255 0 0
4  939 963 746 941  255 0 0
6  941 746 518 392 393 316  255 0 0
5  939 868 487 642 963  255 0 0
5  1034 518 746 924 438  255 0 0
4  714 537 510 586  255 0 0
5  1034 438 388 304 505  255 0 0
3  1028 346 643  255 0 0
4  1027 527 695 1028  255 0 0
5  1027 964 819 965 527  255 0 0
5  1028 643 441 964 1027  255 0 0
5  965 482 1084 390 791  255 0 0
4  587 479 1149 929  255 0 0
4  819 964 438 924  255 0 0
4  923 541 917 976  255 0 0
4  965 929 1149 482  255 0 0
7  587 1011 917 485 932 904 479  255 0 0
3  923 976 977  255 0 0
6  819 977 976 1011 929 965  255 0 0
3  587 929 1011  255 0 0
6  1025 612 611 615 690 1024  255 0 0
4  1025 673 579 612  255 0 0
4  533 1084 927 529  255 0 0
4  533 1005 390 1084  255 0 0
4  477 921 785 517  255 0 0
4  515 821 648 780  255 0 0
4  956 782 925 828  255 0 0
4  515 780 464 369  255 0 0
4  858 431 926 520  255 0 0
4  500 856 366 1053  255 0 0
4  918 828 925 464  255 0 0
4  1053 431 467 885  255 0 0
4  1053 366 926 431  255 0 0
4  915 762 1008 301  255 0 0
4  762 776 550 1008  255 0 0
3  1002 304 388  255 0 0
5  647 629 503 866 352  255 0 0
3  441 643 1152  255 0 0
7  441 647 273 1002 388 438 964  255 0 0
5  1000 733 811 807 863  255 0 0
9  863 807 809 337 548 832 774 322 813  255 0 0
4  1115 649 882 986  255 0 0
4  828 918 349 403  255 0 0
4  401 970 542 878  255 0 0
5  419 928 932 485 569  255 0 0
3  976 917 1011  255 0 0
4  419 569 893 936  255 0 0
5  972 502 499 799 786  255 0 0
5  972 671 962 674 439  255 0 0
4  970 293 938 542  255 0 0
4  970 786 799 293  255 0 0
4  540 658 466 465  255 0 0
6  689 526 552 417 393 392  255 0 0
5  527 965 791 526 689  255 0 0
5  689 1096 486 695 527  255 0 0
5  576 584 588 937 985  255 0 0
6  576 504 572 329 510 584  255 0 0
5  576 867 642 572 504  255 0 0
5  963 642 867 924 746  255 0 0
5  950 1030 1132 344 346  255 0 0
6  840 805 959 298 461 646  255 0 0
5  959 397 400 297 298  255 0 0
4  959 997 299 397  255 0 0
4  1030 957 345 1132  255 0 0
5  1030 640 634 635 957  255 0 0
5  957 453 454 629 647  255 0 0
6  441 1152 726 345 957 647  255 0 0
5  985 937 538 541 923  255 0 0
5  630 453 635 451 450  255 0 0
3  630 454 453  255 0 0
4  885 467 911 761  255 0 0
4  653 761 911 912  255 0 0
5  944 287 558 737 507  255 0 0
5  944 488 336 735 287  255 0 0
4  943 492 488 944  255 0 0
5  937 588 930 484 934  255 0 0
3  935 541 538  255 0 0
3  934 484 933  255 0 0
3  936 893 892  255 0 0
5  935 855 485 917 541  255 0 0
6  937 934 933 855 935 538  255 0 0
4  930 588 584 537  255 0 0
4  855 893 569 485  255 0 0
5  484 930 961 855 933  255 0 0
5  482 1149 479 927 1084  255 0 0
3  927 479 903  255 0 0
4  925 926 366 464  255 0 0
4  882 881 800 804  255 0 0
7  977 819 924 867 576 985 923  255 0 0
5  780 648 349 918 464  255 0 0
4  830 804 802 922  255 0 0
5  439 674 534 757 900  255 0 0
4  900 757 306 899  255 0 0
3  479 904 903  255 0 0
3  927 903 904  255 0 0
4  507 737 734 895  255 0 0
4  899 306 575 874  255 0 0
3  895 734 1039  255 0 0
5  896 730 412 476 405  255 0 0
4  873 891 817 323  255 0 0
5  323 817 1108 821 515  255 0 0
4  890 696 553 775  255 0 0
4  888 775 553 554  255 0 0
5  655 1135 637 270 351  255 0 0
5  655 351 333 334 777  255 0 0
4  649 1087 881 882  255 0 0
6  642 487 543 571 329 572  255 0 0
4  631 1093 547 373  255 0 0
4  464 366 856 369  255 0 0
4  359 657 466 654  255 0 0
4  359 712 312 514  255 0 0
5  947 514 312 740 772  255 0 0
4  359 514 981 657  255 0 0
4  729 844 845 853  255 0 0
4  850 845 844 848  255 0 0
4  841 465 466 657  255 0 0
4  814 564 582 865  255 0 0
4  814 548 337 812  255 0 0
4  813 322 610 834  255 0 0
4  406 403 349 644  255 0 0
4  825 1013 403 406  255 0 0
4  644 349 818 823  255 0 0
5  818 821 1108 817 822  255 0 0
3  814 812 564  255 0 0
3  811 809 807  255 0 0
4  804 800 831 802  255 0 0
4  628 1060 577 797  255 0 0
3  783 293 799  255 0 0
4  784 938 293 783  255 0 0
4  784 861 496 498  255 0 0
4  783 799 861 784  255 0 0
4  782 520 926 925  255 0 0
4  758 610 322 774  255 0 0
5  650 712 656 659 651  255 0 0
4  650 740 312 712  255 0 0
4  478 568 921 477  255 0 0
6  352 866 827 452 639 399  255 0 0
4  352 870 299 997  255 0 0
3  352 399 870  255 0 0
4  698 585 448 284  255 0 0
4  836 302 324 413  255 0 0
6  836 413 433 348 350 1124  255 0 0
4  350 348 645 755  255 0 0
5  554 756 833 173 152  255 0 0
4  735 336 338 748  255 0 0
6  735 617 565 556 415 557  255 0 0
4  748 999 617 735  255 0 0
4  594 999 596 707  255 0 0
4  565 617 999 594  255 0 0
4  594 285 889 565  255 0 0
5  563 566 495 1091 723  255 0 0
6  942 719 560 305 1158 339  255 0 0
4  742 456 641 544  255 0 0
4  743 663 456 742  255 0 0
4  743 742 560 719  255 0 0
4  712 359 654 656  255 0 0
4  999 748 589 596  255 0 0
4  459 456 663 665  255 0 0
4  665 663 247 246  255 0 0
4  732 489 598 1039  255 0 0
4  732 557 415 489  255 0 0
4  287 735 557 558  255 0 0
4  737 558 557 732  255 0 0
4  737 732 1039 734  255 0 0
3  731 405 476  255 0 0
3  730 358 360  255 0 0
5  978 489 342 341 555  255 0 0
4  731 702 429 428  255 0 0
5  978 360 358 598 489  255 0 0
4  978 555 357 360  255 0 0
5  730 360 357 410 412  255 0 0
4  731 476 404 702  255 0 0
4  700 702 404 290  255 0 0
5  422 752 288 292 421  255 0 0
4  422 721 697 752  255 0 0
4  852 468 721 512  255 0 0
5  728 602 701 472 699  255 0 0
4  852 699 472 468  255 0 0
5  559 1095 286 675 752  255 0 0
5  752 675 291 274 288  255 0 0
4  721 468 472 701  255 0 0
5  559 752 697 701 602  255 0 0
3  721 701 697  255 0 0
4  208 235 596 589  255 0 0
4  209 208 589 706  255 0 0
4  747 706 589 748  255 0 0
4  205 707 596 235  255 0 0
4  205 463 460 707  255 0 0
4  594 707 460 285  255 0 0
5  723 1091 949 76 749  255 0 0
4  720 493 826 328  255 0 0
3  720 343 203  255 0 0
3  720 201 493  255 0 0
4  942 328 508 719  255 0 0
4  199 247 663 743  255 0 0
3  201 34 37  255 0 0
6  199 743 719 508 201 37  255 0 0
3  1091 495 949  255 0 0
5  555 290 404 410 357  255 0 0
3  675 286 291  255 0 0
5  553 796 394 756 554  255 0 0
4  696 402 796 553  255 0 0
4  691 660 578 668  255 0 0
4  668 578 402 696  255 0 0
3  688 480 374  255 0 0
4  684 480 679 685  255 0 0
4  680 685 679 477  255 0 0
4  672 698 278 311  255 0 0
4  674 440 442 534  255 0 0
4  836 530 284 302  255 0 0
5  674 962 670 309 440  255 0 0
4  757 534 442 522  255 0 0
4  348 433 326 535  255 0 0
4  672 311 857 530  255 0 0
4  671 669 670 962  255 0 0
4  670 294 278 309  255 0 0
4  670 535 326 294  255 0 0
5  348 535 670 669 645  255 0 0
4  949 460 463 76  255 0 0
4  659 656 654 385  255 0 0
4  658 385 654 466  255 0 0
3  957 635 453  255 0 0
3  461 298 297  255 0 0
6  461 398 632 634 640 646  255 0 0
4  639 626 625 632  255 0 0
4  632 625 627 634  255 0 0
4  632 398 399 639  255 0 0
4  634 627 451 635  255 0 0
3  827 866 503  255 0 0
5  630 450 449 452 454  255 0 0
5  827 503 629 454 452  255 0 0
4  626 639 452 449  255 0 0
4  627 625 626 451  255 0 0
4  363 619 621 624  255 0 0
4  624 621 497 516  255 0 0
4  365 620 619 363  255 0 0
3  365 616 620  255 0 0
5  615 611 581 580 613  255 0 0
4  613 580 1096 689  255 0 0
4  612 579 581 611  255 0 0
4  599 291 286 595  255 0 0
4  595 286 1095 494  255 0 0
4  516 497 591 570  255 0 0
3  584 510 537  255 0 0
4  586 510 329 571  255 0 0
5  579 673 1096 580 581  255 0 0
4  660 716 711 578  255 0 0
4  578 711 330 402  255 0 0
4  456 459 462 641  255 0 0
4  495 285 460 949  255 0 0
4  566 889 285 495  255 0 0
4  566 563 700 290  255 0 0
6  565 889 566 290 555 556  255 0 0
6  339 1158 307 491 602 728  255 0 0
7  559 544 641 462 545 494 1095  255 0 0
4  560 491 307 305  255 0 0
4  742 544 491 560  255 0 0
4  602 491 544 559  255 0 0
5  556 555 341 745 415  255 0 0
4  349 648 821 818  255 0 0
3  1158 305 307  255 0 0
3  531 442 440  255 0 0
4  530 857 281 284  255 0 0
4  525 302 284 448  255 0 0
4  525 524 324 302  255 0 0
4  448 310 524 525  255 0 0
4  799 499 496 861  255 0 0
4  499 501 498 496  255 0 0
4  201 508 826 493  255 0 0
4  492 338 336 488  255 0 0
3  673 486 1096  255 0 0
4  679 480 478 477  255 0 0
4  476 412 410 404  255 0 0
4  402 330 334 796  255 0 0
4  451 626 449 450  255 0 0
4  310 448 585 309  255 0 0
3  437 436 1051  255 0 0
4  857 326 433 413  255 0 0
4  413 324 281 857  255 0 0
4  524 310 281 324  255 0 0
5  407 384 386 387 378  255 0 0
4  461 297 295 398  255 0 0
3  400 295 297  255 0 0
4  400 397 299 295  255 0 0
5  398 295 299 870 399  255 0 0
4  393 417 320 424  255 0 0
4  415 745 342 489  255 0 0
4  378 387 313 314  255 0 0
3  370 446 367  255 0 0
5  364 623 830 444 362  255 0 0
4  756 351 270 833  255 0 0
4  351 756 394 333  255 0 0
5  346 344 726 1152 643  255 0 0
4  1132 345 726 344  255 0 0
3  745 341 342  255 0 0
4  796 334 333 394  255 0 0
3  508 328 826  255 0 0
4  326 857 311 294  255 0 0
5  424 354 315 316 393  255 0 0
3  318 315 354  255 0 0
3  311 278 294  255 0 0
4  281 310 309 278  255 0 0
4  292 288 274 276  255 0 0
4  284 281 278 698  255 0 0
6  637 266 177 149 116 115  255 0 0
7  270 637 115 172 110 173 833  255 0 0
5  152 173 110 109 153  255 0 0
7  268 182 153 109 181 264 269  255 0 0
3  269 264 426  255 0 0
5  269 426 262 418 268  255 0 0
4  209 238 240 210  255 0 0
3  434 236 806  255 0 0
4  434 158 159 236  255 0 0
7  434 806 41 854 100 253 158  255 0 0
4  21 230 167 224  255 0 0
5  267 117 118 435 263  255 0 0
6  267 250 920 108 42 117  255 0 0
5  267 263 180 251 250  255 0 0
5  266 261 251 180 177  255 0 0
3  265 231 230  255 0 0
3  426 252 262  255 0 0
7  264 188 197 45 196 252 426  255 0 0
3  263 177 180  255 0 0
4  263 435 149 177  255 0 0
4  264 181 186 188  255 0 0
4  418 259 154 258  255 0 0
6  262 257 176 815 259 418  255 0 0
4  261 124 125 251  255 0 0
4  260 148 147 12  255 0 0
4  233 163 982 9  255 0 0
4  71 162 161 164  255 0 0
5  9 982 127 128 10  255 0 0
10  9 21 216 131 214 28 143 213 766 193  255 0 0
5  233 24 129 130 163  255 0 0
4  71 10 128 162  255 0 0
4  71 164 106 18  255 0 0
4  233 245 23 24  255 0 0
4  259 243 84 154  255 0 0
4  257 190 174 176  255 0 0
3  259 815 243  255 0 0
3  255 124 254  255 0 0
3  255 289 123  255 0 0
4  249 46 47 179  255 0 0
5  255 123 122 125 124  255 0 0
4  249 179 32 31  255 0 0
6  16 7 92 901 90 93  255 0 0
4  16 93 222 231  255 0 0
3  253 100 103  255 0 0
7  253 103 63 64 30 159 158  255 0 0
4  252 196 257 262  255 0 0
3  249 31 33  255 0 0
5  251 125 122 920 250  255 0 0
4  196 134 190 257  255 0 0
5  21 224 217 132 216  255 0 0
5  44 26 134 196 45  255 0 0
4  44 43 33 228  255 0 0
5  249 33 43 108 46  255 0 0
5  44 228 227 332 26  255 0 0
5  343 749 221 204 203  255 0 0
4  237 24 23 248  255 0 0
7  237 248 246 247 199 200 107  255 0 0
4  289 79 81 123  255 0 0
6  123 81 47 150 178 122  255 0 0
6  289 170 120 80 78 79  255 0 0
4  233 185 184 245  255 0 0
6  815 176 174 83 82 243  255 0 0
3  243 82 84  255 0 0
4  242 184 88 86  255 0 0
5  241 192 83 174 175  255 0 0
5  241 79 78 652 239  255 0 0
4  227 31 32 175  255 0 0
4  275 121 183 185  255 0 0
5  242 86 53 120 170  255 0 0
7  241 239 194 142 138 141 192  255 0 0
6  241 175 32 179 81 79  255 0 0
5  227 175 174 190 332  255 0 0
6  240 236 159 30 29 210  255 0 0
4  239 652 104 194  255 0 0
4  238 189 191 240  255 0 0
3  18 147 148  255 0 0
5  12 219 39 206 207  255 0 0
4  164 237 107 106  255 0 0
6  18 106 107 200 225 147  255 0 0
5  12 147 225 389 219  255 0 0
4  236 240 217 806  255 0 0
4  229 77 75 223  255 0 0
4  235 208 169 98  255 0 0
4  205 235 98 223  255 0 0
4  234 95 119 226  255 0 0
4  234 193 766 95  255 0 0
5  234 226 275 185 193  255 0 0
4  9 193 185 233  255 0 0
6  232 85 68 73 77 229  255 0 0
5  806 217 224 167 41  255 0 0
3  232 56 85  255 0 0
5  232 229 223 55 56  255 0 0
6  231 222 55 593 167 230  255 0 0
4  228 33 31 227  255 0 0
4  226 119 121 275  255 0 0
4  211 140 139 142  255 0 0
4  171 87 1110 212  255 0 0
4  171 652 78 80  255 0 0
4  212 1110 49 135  255 0 0
4  212 57 105 145  255 0 0
4  142 194 146 211  255 0 0
4  142 139 74 138  255 0 0
4  171 195 104 652  255 0 0
4  212 145 195 171  255 0 0
4  169 64 63 101  255 0 0
4  169 29 30 64  255 0 0
5  93 69 85 56 222  255 0 0
5  222 56 54 168 157  255 0 0
4  221 73 72 89  255 0 0
4  223 98 97 156  255 0 0
4  221 75 77 73  255 0 0
3  13 207 206  255 0 0
4  220 200 36 35  255 0 0
3  218 6 5  255 0 0
4  204 221 89 91  255 0 0
6  13 206 39 94 165 4  255 0 0
4  220 389 225 200  255 0 0
6  219 389 220 35 40 39  255 0 0
4  218 5 198 204  255 0 0
5  216 133 114 113 131  255 0 0
3  216 132 133  255 0 0
4  211 146 144 214  255 0 0
4  240 191 132 217  255 0 0
4  213 58 67 215  255 0 0
4  215 67 57 212  255 0 0
5  215 22 136 766 213  255 0 0
4  214 131 140 211  255 0 0
4  214 144 62 28  255 0 0
4  213 143 61 58  255 0 0
5  210 29 169 208 209  255 0 0
5  202 198 166 38 40  255 0 0
5  223 75 76 463 205  255 0 0
4  749 76 75 221  255 0 0
5  202 40 35 34 201  255 0 0
6  204 198 202 201 720 203  255 0 0
4  200 199 37 36  255 0 0
5  4 165 166 198 5  255 0 0
6  197 117 42 43 44 45  255 0 0
3  197 188 186  255 0 0
3  181 187 186  255 0 0
5  197 186 187 118 117  255 0 0
3  145 96 60  255 0 0
4  146 194 104 60  255 0 0
4  145 60 104 195  255 0 0
4  136 119 95 766  255 0 0
3  136 22 48  255 0 0
4  183 121 50 49  255 0 0
4  183 1110 87 88  255 0 0
3  192 82 83  255 0 0
4  191 140 112 111  255 0 0
4  189 139 140 191  255 0 0
6  192 141 66 65 84 82  255 0 0
4  189 66 74 139  255 0 0
5  187 181 109 110 172  255 0 0
4  187 172 116 118  255 0 0
3  88 87 52  255 0 0
4  185 183 88 184  255 0 0
3  182 152 153  255 0 0
6  178 151 46 108 920 122  255 0 0
3  172 115 116  255 0 0
3  179 47 81  255 0 0
3  178 150 151  255 0 0
4  171 80 52 87  255 0 0
3  168 155 157  255 0 0
4  167 99 854 41  255 0 0
4  169 101 97 98  255 0 0
4  168 54 126 155  255 0 0
4  167 593 102 99  255 0 0
4  165 94 38 166  255 0 0
4  237 160 129 24  255 0 0
4  164 161 160 237  255 0 0
4  163 130 127 982  255 0 0
5  162 128 129 160 161  255 0 0
5  156 97 101 102 894  255 0 0
5  222 157 155 126 55  255 0 0
4  156 894 55 223  255 0 0
4  116 149 435 118  255 0 0
4  215 137 48 22  255 0 0
4  212 135 137 215  255 0 0
4  150 47 46 151  255 0 0
4  143 28 96 145  255 0 0
4  144 146 60 62  255 0 0
4  143 145 105 61  255 0 0
4  141 138 74 66  255 0 0
3  183 49 1110  255 0 0
4  136 48 51 119  255 0 0
4  135 49 48 137  255 0 0
4  134 26 332 190  255 0 0
5  133 132 191 111 114  255 0 0
4  131 113 112 140  255 0 0
4  127 130 129 128  255 0 0
4  894 102 593 55  255 0 0
4  119 51 50 121  255 0 0
4  113 114 111 112  255 0 0
3  108 43 42  255 0 0
5  100 854 27 63 103  255 0 0
4  101 63 27 102  255 0 0
4  99 102 27 854  255 0 0
4  93 90 70 69  255 0 0
4  92 7 6 218  255 0 0
4  91 89 90 901  255 0 0
5  218 204 91 901 92  255 0 0
4  89 72 70 90  255 0 0
4  80 120 53 52  255 0 0
4  88 52 53 86  255 0 0
3  85 69 68  255 0 0
5  70 72 73 68 69  255 0 0
5  58 61 105 57 67  255 0 0
4  126 54 56 55  255 0 0
4  51 48 49 50  255 0 0
4  39 40 38 94  255 0 0
4  37 34 35 36  255 0 0
4  28 62 60 96  255 0 0
5  21 9 11 19 20  255 0 0
7  20 19 3 1 14 15 17  255 0 0
5  21 20 17 265 230  255 0 0
4  19 11 2 3  255 0 0
4  148 260 59 18  255 0 0
6  71 18 59 14 1 0  255 0 0
7  17 15 8 7 16 231 265  255 0 0
9  15 14 59 260 12 207 13 4 8  255 0 0
6  11 9 10 71 0 2  255 0 0
5  8 4 5 6 7  255 0 0
4  2 0 1 3  255 0 0

