OFF
1192 1227 0

40.9375 12.5 -72.9214
41.4122 16.962 -73.3801
41.4122 16.962 -72.7954
40.0288 8.96965 -72.9496
38.9157 8.36007 -72.9268
39.3123 9.17227 -72.968
39.8363 10.2451 -73.0224
22.9575 17.8249 -72.3539
25.6595 21.9909 -72.3539
22.5 14.6875 -72.3539
22.3935 13.957 -72.3539
39.1718 9.21203 -72.3539
34.5 24.0625 -72.3539
39.9767 19.6371 -78.8768
40.1956 19.0061 -78.8768
38.983 14.964 -78.8768
39.3123 9.17227 -78.8768
30.7516 11.5933 -78.8768
27.6777 12.4626 -78.8768
22.3935 13.957 -78.8768
22.5 14.6875 -78.8768
23.1676 19.2653 -78.8768
23.6734 19.8185 -78.8768
23.8476 20.0091 -78.8768
24.125 20.3125 -78.8768
27.0282 23.4878 -78.8768
31.5625 24.375 -78.8768
35.1426 23.9941 -78.8768
36.3361 23.5963 -78.8768
39.3125 20.875 -78.8768
40.2898 19.0537 -78.8768
41.1237 14.2504 -78.8768
40.9375 12.5 -78.8768
-11.7703 -12.6412 74.366
-11.6995 -12.6614 74.366
-14.856 -11.7616 74.366
-14.5188 -10.5999 74.366
-13.9575 -8.66648 74.366
-13.0148 -10.3344 74.366
-12.5801 -11.1035 74.366
-11.5872 -9.95465 76.2421
-12.5245 -10.4764 77.5167
-11.81 -10.7338 76.2421
-12.2025 -10.9222 76.7897
-12.2841 -10.9094 76.9276
-9.4375 -8.3125 76.2421
-8.84006 -9.30823 76.2421
-10.029 -8.64684 76.2421
-10.7238 -9.03955 76.2421
-11.4415 -9.44518 76.2421
-10.7052 -10.2035 76.2421
-10.4493 -10.0807 76.2421
-12.5801 -11.1035 76.2421
-12.4818 -11.2774 76.2421
-13.0148 -10.3344 76.2421
-13.1873 -10.0291 76.2421
-13.397 -10.7516 76.2421
-13.4681 -10.9962 76.2421
-15.2385 1.26825 -93.623
-19.0616 2.37876 -88.404
-20.4854 2.79232 -93.623
-20.4854 2.79232 -88.404
-19.0616 2.37876 -93.623
-15.2385 1.26825 -79.973
-19.0616 2.37876 -79.973
-19.5806 0.154714 -79.973
-19.43 0.8 -78.8768
-20.3027 -2.94013 -79.973
-20.3027 -2.94013 -74.289
-19.0616 2.37876 -78.8768
-19.43 0.8 -76.4633
-19.43 0.8 -74.289
-15.4628 -0.302004 -74.289
-15.4628 -0.302004 46.44
-19.43 0.8 46.44
-20.33 1.05001 -79.973
-20.4854 2.79232 -79.973
-16.0073 -4.11385 -79.973
-21.4345 -2.63086 -79.973
-22.0971 1.54087 -79.973
-19.0616 2.37876 -74.289
-16.0073 -4.11385 -74.289
-15.2385 1.26825 -74.289
-10.3765 5.80724 -76.4633
-10.3765 5.80724 -74.289
-10.3765 5.80724 -78.8768
-10.3765 5.80724 -79.973
-9.39232 5.52128 -79.973
-9.39232 5.52128 -74.289
-26.1998 -8.05122 -79.973
-27.259 -7.74161 -79.973
-26.1998 -8.05122 -74.289
-27.259 -7.74161 -74.289
-27.259 -7.74161 -76.4633
-27.259 -7.74161 -78.8768
-25.127 -3.58112 -88.404
-26.0049 -3.311 -88.404
-25.127 -3.58112 -84.2902
-25.127 -3.58112 -79.973
-26.0049 -3.311 -79.973
-45.3125 -22.6442 -88.404
-49.4125 -19.605 -88.404
-44.2012 -22.7297 -88.404
-30.5395 -26.1335 -88.404
-49.3518 -19.6214 -88.404
-32.3529 -25.7377 -88.404
-35.6451 -25.0192 -88.404
-44.0077 -23.194 -88.404
-45.3125 -22.9092 -88.404
-47.1875 -22.5 -88.404
-47.1875 -22.5 -88.404
-47.1875 -22.5 -88.404
-49.4125 -22.0144 -88.404
-49.1866 -19.4932 -88.404
-47.9874 -18.562 -88.404
-47.08 -17.8575 -88.404
-46.4387 -17.3596 -88.404
-45.3125 -16.4851 -88.404
-32.194 -6.29905 -88.404
-29.6605 -4.33184 -88.404
-27.6814 -2.79514 -88.404
-25.498 -1.52048 -88.404
-24.6857 -1.74245 -88.404
-30.2173 -24.7908 -88.404
-32.194 -6.29905 -79.973
-30.3828 -6.8285 -79.973
-29.6605 -4.33184 -79.973
39.3123 9.17227 -77.7541
40.5464 8.82329 -76.4633
22.3935 13.957 -79.973
39.3123 9.17227 -76.4633
39.3123 9.17227 -79.973
39.3123 9.17227 -77.8228
40.5464 8.82329 -77.7541
39.3123 9.17227 -75.261
39.3123 9.17227 -74.289
30.0176 11.8009 -74.289
22.3935 13.957 -74.289
22.3935 13.957 -75.793
22.3935 13.957 -76.4633
22.3935 13.957 -77.7541
22.3935 13.957 -79.3191
38.9157 8.36007 -74.289
29.3125 6.0625 -74.289
31.5625 24.375 -74.289
29.9392 24.0574 -74.289
27.0282 23.4878 -74.289
26.2886 22.6789 -74.289
23.8476 20.0091 -74.289
23.1676 19.2653 -74.289
22.5 14.6875 -74.289
22.2833 13.2015 -74.289
24.5 9.25 -74.289
26.6875 7.25 -74.289
27.7711 6.25927 -74.289
30.7879 5.39507 -74.289
32.2738 4.72286 -74.289
33.6978 5.50267 -74.289
37.6875 7.6875 -74.289
40.0288 8.96965 -74.289
40.9375 12.5 -74.289
41.1237 14.2504 -74.289
41.4122 16.962 -74.289
40.2385 19.1492 -74.289
39.9767 19.6371 -74.289
39.3125 20.875 -74.289
36.3361 23.5963 -74.289
35.1426 23.9941 -74.289
14.7868 4.88498 -74.289
15.5765 7.78067 -74.289
24.9451 2.01416 -74.289
26.5165 1.57006 -74.289
35.7558 -1.04105 -74.289
36.6757 -1.30101 -74.289
38.4411 -1.79993 -74.289
40.7283 -2.4463 -74.289
41.7804 -2.74366 -74.289
42.6054 0.308751 -74.289
41.922 0.497687 -74.289
39.3043 1.22132 -74.289
36.892 1.88819 -74.289
35.8902 2.16511 -74.289
30.671 3.60792 -74.289
27.1134 4.59141 -74.289
21.2635 6.20856 -74.289
20.4194 6.4419 -74.289
16.9846 7.39142 -74.289
19.9557 27.6919 -80.9993
20.9253 27.3927 -93.623
17.5722 28.4272 -93.623
17.5722 28.4272 -88.404
17.5722 28.4272 -81.217
19.9557 27.6919 -79.973
20.9253 27.3927 -79.973
-10.86 4.12652 -74.289
-9.85474 3.86428 -74.289
-16.0073 -4.11385 46.44
-15.2385 1.26825 46.44
-14.6875 5.125 46.44
-10.86 4.12652 46.44
-9.85474 3.86428 46.44
0.933887 1.04986 46.44
4.98064 -0.00581908 46.44
3.40067 -5.54185 46.44
2.37467 -9.13681 46.44
-14.6875 5.125 -88.404
9.09296 -1.0786 -88.404
-16.7786 5.67051 -88.404
-14.9071 7.12364 -88.404
-14.339 7.56482 -88.404
-13.9357 7.87797 -88.404
-10.318 10.687 -88.404
-9.09726 11.6348 -88.404
-8.58585 12.0319 -88.404
1.50243 19.8651 -88.404
13.9633 29.5406 -88.404
11.1057 5.92529 -88.404
10.75 4.6875 -88.404
-28.1555 -16.1999 46.44
-29.1333 -20.2742 46.44
-26.1998 -8.05122 46.44
-24.6857 -1.74245 46.44
-21.4345 -2.63086 46.44
-20.3027 -2.94013 46.44
-1.78437 -23.7096 46.44
-2.9375 -27.75 46.44
-6.96615 -26.6003 46.44
-18.7397 -23.2403 46.44
-24.6461 -21.5547 46.44
-30.2173 -24.7908 -79.973
-31.9522 -24.3221 -79.973
-35.1903 -23.4473 -79.973
-33.8107 -18.678 -79.973
-33.4613 -17.4705 -79.973
-31.3721 -10.2486 -79.973
-30.3951 -6.87129 -79.973
-25.498 -1.52048 -79.973
-24.6857 -1.74245 -79.973
-25.5901 -5.51072 -79.973
-47.6805 -20.073 -79.973
-45.3125 -20.7127 -79.973
-49.3518 -19.6214 -79.973
-49.1866 -19.4932 -79.973
-47.9874 -18.562 -79.973
-47.9108 -18.5026 -79.973
-47.875 -18.5 -79.973
-46.0188 -18.3674 -79.973
-45.3125 -18.317 -79.973
-46.4387 -17.3596 -79.973
-46.2931 -17.7091 -79.973
-45.3125 -16.4851 -79.973
-45.3125 -17.2187 -79.973
14.7868 4.88498 -93.623
21.2604 28.6215 -93.623
14.7868 4.88498 -88.404
14.7868 4.88498 -79.973
15.5765 7.78067 -79.973
17.6285 15.3046 -79.973
18.2835 17.7062 -79.973
18.7653 19.4727 -79.973
20.3948 25.4475 -79.973
21.2604 28.6215 -79.973
21.2604 28.6215 -81.0298
21.2604 28.6215 -88.404
14.0888 16.3056 -79.973
17.9456 29.7265 -93.623
11.1057 5.92529 -93.623
11.1057 5.92529 -79.973
11.9287 8.78909 -79.973
17.5722 28.4272 -79.973
17.9456 29.7265 -88.404
-9.85474 3.86428 -79.973
-9.4081 5.46474 -79.973
-8.125 10.0625 -79.973
-8.125 10.0625 -78.8768
-8.125 10.0625 -76.4633
-8.125 10.0625 -74.289
-9.39232 5.52128 46.44
35.1426 23.9941 -79.973
41.7804 -2.74366 -79.973
38.4411 -1.79993 -79.973
35.7558 -1.04105 -79.973
26.5165 1.57006 -79.973
19.4506 14.7893 -79.973
21.7588 14.1365 -79.973
22.5 14.6875 -79.973
23.1676 19.2653 -79.973
23.8476 20.0091 -79.973
24.125 20.3125 -79.973
24.7075 20.9496 -79.973
27.0282 23.4878 -79.973
31.4472 24.3524 -79.973
31.5625 24.375 -79.973
31.9041 24.3387 -79.973
36.3361 23.5963 -79.973
36.7737 23.1962 -79.973
39.3125 20.875 -79.973
39.9767 19.6371 -79.973
40.2385 19.1492 -79.973
41.4122 16.962 -79.973
41.3012 15.9185 -79.973
41.1237 14.2504 -79.973
40.9375 12.5 -79.973
40.5464 8.82329 -79.973
41.4068 8.57996 -79.973
42.6611 8.22523 -79.973
44.597 7.67774 -79.973
-9.07461 10.3329 -79.973
9.09296 -1.0786 -79.973
-14.6875 5.125 -79.973
-14.4221 6.98271 -79.973
-10.318 10.687 -79.973
-9.09726 11.6348 -79.973
-8.58585 12.0319 -79.973
-7.29587 13.0335 -79.973
-7.78936 11.2652 -79.973
-0.919675 8.01065 -79.973
10.75 4.6875 -79.973
-16.0073 -4.11385 54.665
-16.0073 -4.11385 -93.623
-14.6875 5.125 -93.623
-15.4628 -0.302004 -93.623
-16.0073 -4.11385 -51.4215
-15.4628 -0.302004 54.665
-15.2385 1.26825 -76.4633
-15.2385 1.26825 -78.8768
-20.3027 -2.94013 -93.623
-24.6857 -1.74245 -93.623
6.45668 -10.2522 -93.623
6.45668 -10.2522 -88.404
6.45668 -10.2522 -79.973
6.45668 -10.2522 -74.289
6.45668 -10.2522 46.44
2.37467 -9.13681 54.665
2.01557 -9.03869 54.665
-1.66148 -8.03392 54.665
-20.3027 -2.94013 54.665
-21.4345 -2.63086 -74.289
-21.4345 -2.63086 -76.4633
-21.4345 -2.63086 -78.8768
-17.5742 -19.2132 54.665
-5.8125 -22.5625 54.665
-18.1413 -19.0516 54.665
-23.6932 -17.4707 54.665
-21.7957 -9.33857 54.665
-19.43 0.8 54.665
-12.3803 -1.15825 54.665
-11.3372 -1.44799 54.665
-0.629596 -4.42233 54.665
-24.3101 -0.177415 -93.623
-30.2173 -24.7908 -74.289
-30.2173 -24.7908 46.44
-30.2173 -24.7908 -76.4633
-30.2173 -24.7908 -77.951
-30.2173 -24.7908 -93.623
-24.3101 -0.177415 -88.404
-24.6857 -1.74245 -78.8768
-24.6857 -1.74245 -76.4633
-24.6857 -1.74245 -74.289
-25.127 -3.58112 -74.289
9.09296 -1.0786 -74.289
9.09296 -1.0786 -72.3539
9.09296 -1.0786 46.44
9.09296 -1.0786 -93.623
-16.7786 5.67051 -93.623
-16.7786 5.67051 -79.973
-14.6875 5.125 -78.8768
-14.6875 5.125 -76.4633
-14.6875 5.125 -74.289
26.8316 23.2729 -72.2569
22.8237 16.9071 -72.2225
29.2634 15.5726 -70.1424
28.5518 14.4755 -70.1424
22.4064 14.046 -71.8129
33.8982 24.3348 -72.3539
37.125 22.875 -72.3539
37.1269 22.8741 -72.3539
35.5804 23.5738 -72.0304
22.3935 13.957 -71.8001
30.5078 17.4913 -70.1424
26.663 23.5381 -72.3539
27.1201 23.5884 -72.3539
28.0853 23.6947 -72.3539
32.9363 24.2288 -72.3539
33.3432 17.8035 -70.1424
37.1286 22.8717 -72.3539
41.384 16.6968 -72.3539
41.9019 15.9453 -72.3539
34.6849 15.8566 -70.1424
26.5726 23.3987 -72.3539
27.3131 12.5657 -70.1424
32.7295 11.0339 -70.1424
41.0914 13.9464 -72.3539
25.2596 7.89596 -72.6839
26.6875 7.25 -72.4891
22.5 14.6875 -73.4414
21.7588 14.1365 -74.289
27.0282 23.4878 -73.4355
28.1693 24.736 -73.5374
33.3042 2.88 -72.3539
33.3042 2.88 -72.6778
41.869 12.2737 -72.8863
41.571 13.7971 -72.8632
32.25 5.6875 -72.8443
30.7879 5.39507 -72.8426
30.7879 5.39507 -72.3539
32.25 5.6875 -72.3539
40.6605 9.89651 -72.9948
30.3832 3.6875 -72.7517
30.3832 3.6875 -73.0195
30.3832 3.6875 -72.4753
30.2469 24.515 -74.289
29.2454 24.6215 -73.9266
28.5684 23.7892 -73.8871
30.0913 24.5315 -73.9132
31.6727 25.3415 -73.9426
31.6727 25.3415 -72.7817
30.0913 24.5315 -72.5644
41.869 12.2737 -73.115
41.869 12.2737 -72.8022
40.7872 11.0872 -72.6172
27.1134 4.59141 -72.3539
28.2697 2.53013 -72.3539
26.5165 1.57006 -72.3539
30.3832 3.6875 -72.3539
31.0504 3.50304 -72.3539
35.2078 -0.564338 -72.3539
27.1134 4.59141 -72.8833
27.1134 4.59141 -73.0705
27.1134 4.59141 -72.8344
25.2596 7.89596 -73.0365
23.6898 8.60608 -73.0915
23.6898 8.60608 -72.898
23.6898 8.60608 -74.289
25.2596 7.89596 -74.289
42.8565 16.4294 -72.7453
41.5609 18.3602 -72.7559
42.3045 15.299 -72.7959
30.7879 5.39507 -72.3539
30.7879 5.39507 -72.8426
29.0881 5.05513 -72.8406
29.0881 5.05513 -72.4492
29.4002 5.11754 -72.3539
40.7872 11.0872 -73.0598
41.0852 7.45455 -74.289
38.1907 6.87564 -74.289
40.0541 21.5499 -73.6486
40.3765 19.9022 -73.5539
40.3765 19.9022 -72.771
40.3765 19.9022 -72.7189
40.0541 21.5499 -72.966
36.67 6.57149 -74.289
39.9767 19.6371 -73.5431
40.8879 19.4346 -73.5228
27.0787 4.65323 -74.289
29.0881 5.05513 -74.289
26.0548 6.47837 -74.289
35.8902 2.16511 -74.0259
39.9401 3.44643 -74.289
40.7641 19.5479 -72.7625
23.3599 10.2924 -74.289
24.0562 6.73352 -74.289
26.6875 7.25 -72.9864
38.5965 22.2093 -72.6612
38.5965 22.2093 -73.6998
36.0008 23.9028 -73.8197
37.7899 23.7125 -73.7913
37.7899 23.7125 -72.7309
36.451 23.8549 -72.3539
36.0008 23.9028 -72.3539
39.3125 20.875 -73.6185
39.3125 20.875 -72.5993
23.1821 11.201 -72.3539
23.3599 10.2924 -72.5444
41.6988 14.0587 -73.2159
41.1237 14.2504 -73.2323
41.571 13.7971 -72.5202
41.571 13.7971 -73.2026
42.1101 11.0415 -73.0441
42.1212 10.9846 -73.0408
24.125 20.3125 -72.4808
24.125 20.3125 -73.7379
35.7558 -1.04105 -74.2489
35.7558 -1.04105 -72.5822
38.1907 6.87564 -72.3539
38.1907 6.87564 -72.8514
36.67 6.57149 -72.8496
36.67 6.57149 -72.3539
26.5165 1.57006 -74.0054
26.5165 1.57006 -73.8464
26.5165 1.57006 -72.6723
23.3599 10.2924 -73.1885
21.2635 6.20856 -72.9823
21.2635 6.20856 -74.1353
17.5906 9.20943 -74.289
16.9846 7.39142 -73.0905
42.3045 15.299 -72.7959
21.522 14.5586 -73.4439
22.2223 16.1066 -73.523
22.2223 16.1066 -72.3539
21.522 14.5586 -72.3539
37.6875 7.6875 -72.9016
37.6875 7.6875 -72.3539
38.9157 8.36007 -72.3814
38.3893 7.28233 -72.3539
35.8902 2.16511 -72.3539
35.8902 2.16511 -72.6124
26.0548 6.47837 -72.8497
26.0548 6.47837 -72.9498
24.5 9.25 -72.5254
24.5 9.25 -73.1193
35.4872 5.27424 -74.289
37.2959 5.04335 -74.289
29.3125 6.0625 -72.8943
32.2738 4.72286 -72.7905
29.3125 6.0625 -72.3539
32.2738 4.72286 -72.3539
27.0282 23.4878 -72.3539
20.3609 3.30968 -73.5783
20.3609 3.30968 -72.8301
26.969 4.63131 -72.8773
26.969 4.63131 -72.838
27.7711 6.25927 -72.4711
27.7711 6.25927 -72.9206
21.2635 6.20856 -72.3539
38.4411 -1.79993 -73.5039
43.9484 5.49558 -74.289
42.3045 15.299 -72.5585
42.3045 15.299 -73.2788
41.9573 15.946 -72.3708
41.4122 16.962 -72.4179
41.4053 9.72343 -72.9778
40.5949 9.27965 -72.9612
21.8799 17.8569 -73.6237
21.8799 17.8569 -72.6666
22.1344 16.5559 -72.3539
21.7588 14.1365 -72.3539
21.7588 14.1365 -73.4181
23.1676 19.2653 -73.6892
23.1676 19.2653 -72.5601
33.1309 24.6819 -72.5014
33.1309 24.6819 -73.8914
40.9375 12.5 -72.4871
42.6244 15.9542 -72.5753
40.9375 12.5 -73.1368
21.3897 7.07392 -74.289
27.2264 1.36943 -73.8773
35.8902 2.16511 -73.2489
30.671 3.60792 -73.0315
39.2996 1.22261 -73.3909
27.9502 4.36008 -72.9182
14.7868 4.88498 -73.3355
26.3821 4.79356 -72.8529
15.0505 5.85169 -73.0241
35.3583 -0.928715 -72.4457
22.2833 13.2015 -73.3609
35.2904 -0.90952 -72.4224
35.1286 -0.863778 -72.4516
35.6704 -1.01689 -72.3539
23.6773 10.7166 -72.3539
22.2833 13.2015 -72.3539
36.2717 2.05965 -72.3539
35.0907 -0.853081 -72.3539
34.5 24.0625 -73.8434
27.0282 23.4878 -73.8856
31.5625 24.375 -73.8899
36.0008 23.9028 -74.289
31.5625 24.375 -72.4555
33.6978 5.50267 -72.8197
33.6978 5.50267 -72.3539
28.3026 6.19143 -72.3539
40.0288 8.96965 -72.6481
38.8008 8.29718 -72.3539
28.1693 24.736 -73.9437
28.1693 24.736 -72.7066
39.3123 9.17227 -72.4021
22.0356 11.5032 -73.269
22.0356 11.5032 -72.5664
30.671 3.60792 -72.4229
30.671 3.60792 -72.7444
41.6054 18.7786 -73.4792
41.6054 18.7786 -72.8571
40.5464 8.82329 -72.8257
40.5464 8.82329 -72.9363
22.3935 13.957 -73.4018
22.1402 12.2204 -72.3539
30.5088 3.75628 -74.289
22.0356 11.5032 -74.289
41.4068 8.57996 -74.289
39.3043 1.22132 -73.3925
28.6199 4.17495 -72.7963
36.9485 1.87255 -72.5857
15.5765 7.78067 -72.3539
15.5765 7.78067 -73.1261
42.6054 0.308751 -72.4426
42.6054 0.308751 -72.3539
42.066 10.8874 -73.036
19.4506 14.7893 -74.289
16.3084 10.464 -74.289
44.1249 5.93073 -74.289
14.7868 4.88498 -72.973
38.9423 -1.94157 -72.3539
42.1521 -1.36863 -72.3539
14.7868 4.88498 -72.3539
40.8462 8.7385 -72.9286
41.7804 -2.74366 -72.3539
10.75 4.6875 -72.3539
-11.9583 -9.84993 76.2421
24.8099 21.8264 -79.973
23.4387 21.1241 -79.973
-10.406 -6.69829 70.4225
-9.76906 -7.75989 71.8522
40.2385 19.1492 -76.4633
40.2385 19.1492 -77.7541
26.5165 1.57006 -77.7541
26.5165 1.57006 -78.8768
35.7558 -1.04105 -77.7541
35.7558 -1.04105 -78.8768
38.5385 21.5827 -77.7541
36.3361 23.5963 -76.5533
31.9041 24.3387 -79.9455
26.5165 1.57006 -77.6946
35.7558 -1.04105 -76.8777
26.5165 1.57006 -76.4633
35.7558 -1.04105 -76.4633
40.7872 11.0872 -77.7541
40.7872 11.0872 -76.4633
38.983 14.964 -78.4917
39.9767 19.6371 -77.7541
-10.5021 -10.2608 76.2421
-10.7586 -11.136 76.2421
-10.7568 -11.1298 77.2751
-10.7156 -10.9894 77.5209
-11.8784 -10.9729 76.2421
21.6061 29.8891 -79.973
24.2326 29.1352 -79.973
41.4122 16.962 -79.7735
40.8879 19.4346 -79.973
19.666 15.4354 -79.973
-10.1888 -9.192 74.366
-10.029 -8.64684 74.366
-10.4493 -10.0807 75.9258
40.2385 19.1492 -76.3702
47.8611 19.7546 -81.3165
47.3844 17.991 -81.5561
-26.0049 -3.311 -74.289
39.9767 19.6371 -78.9601
-14.9071 7.12364 -80.6663
-14.339 7.56482 -80.6836
-5.77458 -14.4174 64.7768
-7.42325 -11.6696 68.7142
-12.3152 -12.5003 76.2421
-13.78 -12.0709 76.2421
-13.0462 -12.286 77.5235
-13.3059 -6.30042 71.1039
-11.9278 -5.22859 68.7359
43.6736 13.4005 -79.973
-10.762 -11.1475 74.3557
-10.4493 -10.0807 74.3434
-31.9522 -24.3221 -78.102
-31.9522 -24.3221 -76.4633
-45.3125 -17.2187 -79.6569
-31.3721 -10.2486 -78.8768
-31.3721 -10.2486 -79.6492
-45.3125 -17.2187 -78.8768
-45.3125 -16.4851 -78.8768
-45.3125 -16.4851 -79.7392
-47.9108 -18.5026 -79.66
-45.3125 -18.317 -79.5336
-37.6456 -10.532 -79.973
26.5165 1.57006 -88.404
35.7558 -1.04105 -88.404
-9.24223 -5.96245 68.6971
-10.029 -8.64684 73.4091
-10.1833 -9.17318 74.3329
23.8476 20.0091 -79.9161
42.6611 8.22523 -78.8768
-0.629596 -4.42233 61.0784
-1.58458 -7.76477 61.077
-8.58585 12.0319 -80.859
1.50243 19.8651 -81.1666
49.2028 24.7191 -80.6422
-13.5482 -10.6359 78.2436
-13.059 -10.7739 78.2436
-13.945 -10.8602 76.2421
-13.0182 -10.3364 77.5155
-13.1208 -29.4097 -76.4633
-19.3795 -27.7188 -77.0079
-25.6868 -26.0148 -77.5568
-19.3795 -27.7188 -76.4633
-2.99622 -32.1449 -76.4633
-25.6868 -26.0148 -76.4633
-9.4375 -8.3125 78.2314
-8.84006 -9.30823 78.2343
-10.2076 -9.1867 74.366
-10.0579 -8.66315 74.366
-9.18689 -9.4747 74.366
-10.029 -8.64684 78.2331
-10.4493 -10.0807 78.2386
-11.1543 -10.4191 78.2404
-11.9896 -10.1809 78.2404
-11.8431 -9.67221 78.2385
-20.4854 2.79232 -78.8768
42.1101 11.0415 -79.973
45.1989 9.90482 -79.973
45.1989 9.90482 -88.404
46.41 14.3858 -79.973
46.41 14.3858 -82.0458
46.41 14.3858 -88.404
45.9396 12.6451 -82.2823
47.3844 17.991 -88.404
47.3844 17.991 -79.973
45.9396 12.6451 -88.404
45.9396 12.6451 -79.973
10.75 4.6875 -78.9384
0.747769 8.85253 -79.973
26.2886 22.6789 -76.4633
39.9767 19.6371 -76.4245
23.8476 20.0091 -76.4633
41.1237 14.2504 -75.8256
-45.3125 -20.7127 -78.8768
-45.3125 -18.317 -78.8768
-41.1413 -18.019 -79.973
-44.6518 -20.8912 -79.973
-33.4613 -17.4705 -78.8768
-47.9108 -18.5026 -78.8768
13.9375 5.125 -79.973
13.9375 5.125 -88.404
-11.12 3.22267 54.665
-10.86 4.12652 54.665
19.6701 29.1516 -81.1794
17.9456 29.7265 -81.3417
14.9994 16.0481 -79.973
19.6701 29.1516 -79.973
19.6701 29.1516 -88.404
-13.0128 -10.3379 77.5155
38.4411 -1.79993 -88.404
38.4411 -1.79993 -78.8768
38.4411 -1.79993 -77.7541
41.7804 -2.74366 -77.7541
14.7868 4.88498 -77.7541
31.5625 24.375 -79.969
35.1426 23.9941 -79.7233
23.1676 19.2653 -79.8712
39.3125 20.875 -79.1367
36.3361 23.5963 -79.611
23.1676 19.2653 -76.3831
23.8269 19.9865 -76.4633
41.4122 16.962 -76.127
39.7893 19.9865 -76.4633
40.9375 12.5 -75.631
27.0282 23.4878 -76.4633
31.5625 24.375 -76.4633
35.1426 23.9941 -76.4633
39.3125 20.875 -76.4633
41.4122 16.962 -76.4633
40.9375 12.5 -76.4633
28.1693 24.736 -79.973
41.4122 16.962 -78.8768
40.9375 12.5 -77.7541
-18.6287 4.23395 -80.5528
-20.4854 2.79232 -80.4962
23.8476 20.0091 -77.7541
41.1237 14.2504 -76.4633
41.1237 14.2504 -77.7541
43.2469 13.5427 -79.973
27.0282 23.4878 -77.7541
31.5625 24.375 -77.7541
35.1426 23.9941 -77.7541
39.3125 20.875 -77.7541
41.4122 16.962 -77.7541
-14.9071 7.12364 -93.623
38.4411 -1.79993 -76.4633
14.7868 4.88498 -76.1218
-45.3125 -20.7127 -76.4633
-45.3125 -18.317 -76.4633
-47.9108 -18.5026 -76.4633
-33.4613 -17.4705 -76.4633
-26.0049 -3.311 -78.8768
-26.0049 -3.311 -76.4633
13.9633 29.5406 -81.5466
13.9633 29.5406 -79.973
44.292 18.6782 -79.973
42.9714 14.0561 -79.973
-46.4387 -17.3596 -93.623
28.9049 30.3906 -79.973
-20.33 1.05001 -76.4633
-20.33 1.05001 -74.289
-45.3125 -22.9092 -79.973
-45.3125 -21.9643 -79.973
0.609128 -0.0868036 54.665
0.933887 1.04986 54.665
4.98064 -0.00581908 54.665
3.40067 -5.54185 54.665
-10.1131 2.93856 54.665
-9.85474 3.86428 54.665
-14.4221 6.98271 -78.8768
-43.0609 -21.321 -93.623
-30.0505 -17.6037 -93.623
-27.6814 -2.79514 -93.623
-26.0049 -3.311 -93.623
-31.9522 -24.3221 -93.623
-25.498 -1.52048 -93.623
-47.6805 -20.073 -93.623
-47.9874 -18.562 -93.623
-25.8988 -1.41098 -93.623
-19.0616 2.37876 -76.4633
-45.3125 -16.4851 -93.623
-25.8988 -1.41098 -88.404
-17.5742 -19.2132 61.0733
-17.5735 -19.211 61.077
47.8611 19.7546 -79.973
47.8611 19.7546 -88.404
10.75 4.6875 -76.4633
42.4735 26.5993 -79.973
42.4735 26.5993 -88.404
38.2971 27.7663 -88.404
38.2971 27.7663 -79.973
42.662 26.5466 -79.973
42.662 26.5466 -88.404
-8.65961 -9.60899 71.667
43.7583 16.8103 -79.973
-20.33 1.05001 -78.8768
-22.0971 1.54087 -88.404
46.2534 25.5432 -79.973
44.8832 20.7473 -79.973
-14.9071 7.12364 -79.973
-12.7872 -8.45884 74.366
-12.4138 -9.99475 74.366
-13.5579 -5.25178 69.5191
-33.8107 -18.678 -74.289
-33.8107 -18.678 -76.4633
-6.8612 -26.2329 54.665
-14.4221 6.98271 -74.289
-14.4221 6.98271 -76.4633
-31.9522 -24.3221 -74.289
14.7868 4.88498 -76.4633
15.5765 7.78067 -76.4633
-28.1555 -16.1999 54.665
25.0135 31.4779 -79.973
23.7812 27.7813 -79.973
41.7804 -2.74366 -76.4633
41.7804 -2.74366 -78.8768
14.7868 4.88498 -78.8768
-22.0971 1.54087 -93.623
-4.50833 -10.7542 64.4231
-2.0943 -9.54715 61.077
40.5464 8.82329 -78.8768
41.6054 18.7786 -79.973
-33.8107 -18.678 -78.8768
-9.59511 -13.2976 74.3074
-9.59511 -13.2976 71.4739
-10.6625 -13.8312 72.9534
-11.2236 -12.8202 74.3285
-13.9357 7.87797 -93.623
-10.9555 -13.9778 72.5817
-3.66399 -15.036 61.077
-11.25 -12.8125 74.3289
-11.2438 -12.7913 74.366
-11.0238 -12.0409 74.366
-11.3743 -13.2367 73.5861
-9.23711 -8.64648 73.0462
-8.84006 -9.30823 72.0979
-8.65961 -9.60899 74.3425
-8.84006 -9.30823 73.9374
-9.1721 -9.46761 72.5613
-9.1721 -9.46761 74.3477
-10.2019 -9.18353 74.3582
-2.59076 -11.2832 61.077
-13.8132 -8.16935 74.366
-10.7256 -9.04055 74.366
-9.59484 -21.4854 61.0771
-12.0044 -11.4135 76.2421
-0.0625004 -32.9375 -75.327
-2.99622 -32.1449 -75.5823
-27.6814 -2.79514 -79.973
-9.83075 -21.4182 61.077
-6.15904 -22.4638 61.0788
-5.81722 -22.5612 61.0789
-12.5251 -10.4762 77.5167
-12.5249 -10.4766 77.5172
-30.6814 -19.8324 46.44
-31.9522 -24.3221 46.44
-11.2388 -12.7927 74.366
-10.4655 -10.0884 74.366
-12.5801 -11.1035 76.4778
-12.2613 -10.9504 76.8718
-4.54418 -7.24621 66.1037
-12.7027 -10.1581 77.0821
-13.0148 -10.3344 76.6624
-6.57108 -6.69235 68.6586
-14.1986 -7.47915 73.4233
-14.3437 -7.98333 73.4254
-13.4329 -4.81733 68.7576
-12.8373 -10.6484 77.0946
-16.1129 -4.85307 69.1158
-6.1583 -22.4651 61.077
-6.15904 -22.4638 61.077
-20.7654 -4.92315 -93.623
5.65221 -13.0516 -93.623
5.65221 -13.0516 -88.404
-10.318 10.687 -78.8768
-47.9874 -18.562 -76.4633
-47.6805 -20.073 -76.4633
-35.1903 -23.4473 -76.4633
-30.3828 -6.8285 -76.4633
-47.6805 -20.073 -78.8768
-32.194 -6.29905 -78.8768
-47.9874 -18.562 -78.8768
-30.3828 -6.8285 -78.8768
-35.1903 -23.4473 -78.8768
-30.3828 -6.8285 -78.8768
1.50243 19.8651 -79.973
1.09735 -28.9015 -74.289
1.09735 -28.9015 46.44
-19.3795 -27.7188 -79.973
-19.3795 -27.7188 -88.404
-14.339 7.56482 -79.973
40.5464 8.82329 -74.289
15.5765 7.78067 -78.8768
-12.3803 -1.15825 62.3439
-12.3803 -1.15825 61.077
-9.07461 10.3329 -78.8768
-9.07461 10.3329 -76.4633
-19.43 0.8 -93.623
7.48435 -6.67621 -93.623
7.48435 -6.67621 -88.404
15.3269 30.5994 -93.623
15.3269 30.5994 -88.404
-9.09726 11.6348 -93.623
-32.194 -6.29905 -80.1392
22.25 32.25 -81.381
-20.3027 -2.94013 61.4795
-19.43 0.8 61.1367
-18.71 0.599992 62.3889
-16.0905 -4.09113 68.796
17.6285 15.3046 -76.4633
-24.6461 -21.5547 54.665
-18.7397 -23.2403 54.665
-16.0217 -4.21432 68.9642
-17.2918 -13.1048 71.0736
-27.259 -7.74161 46.44
-18.6287 4.23395 -88.404
-18.6287 4.23395 -79.973
-25.6868 -26.0148 -88.404
-25.6868 -26.0148 -79.973
-16.0073 -4.11385 68.7948
-15.4628 -0.302004 62.3658
-25.498 -1.52048 -74.289
17.6285 15.3046 -78.8768
-2.99622 -32.1449 -74.289
-2.99622 -32.1449 -79.973
-2.99622 -32.1449 -93.623
-2.99622 -32.1449 -88.404
23.1676 19.2653 -77.7541
23.1676 19.2653 -76.4633
-14.8105 4.26397 54.665
4.27946 -1.12242 54.665
-24.3101 -0.177415 -79.973
-19.3795 -27.7188 -74.289
5.33668 1.2417 46.44
29.2783 25.9489 -79.973
-30.3828 -6.8285 -74.289
4.62529 0.08688 54.665
3.04393 -5.44276 54.665
32.4369 29.4037 -79.973
32.4369 29.4037 -88.404
-5.8125 -22.5625 61.0707
-1.66148 -8.03392 61.0769
41.4068 8.57996 -78.8768
-23.4693 -16.5114 62.7234
25.419 23.173 -79.973
24.125 20.3125 -79.9345
25.0135 31.4779 -88.404
24.3804 27.5815 -79.973
23.6881 22.8344 -79.973
-47.1875 -22.5 -79.973
-45.3125 -22.6442 -79.973
19.4506 14.7893 -78.8768
-46.0188 -18.3674 -79.5679
19.4506 14.7893 -77.7541
-11.4604 -8.83636 78.2352
-11.4599 -8.8365 76.5533
-18.6287 4.23395 -93.623
-11.8031 -9.533 78.238
-11.8824 -9.69442 78.1856
-25.6868 -26.0148 -93.623
-11.8818 -9.69407 76.8391
-25.3454 -0.981327 -93.623
-25.3454 -0.981327 -88.404
-46.2931 -17.7091 -78.8768
-46.4387 -17.3596 -78.8768
36.3361 23.5963 -76.4633
-46.2931 -17.7091 -79.6574
-46.4387 -17.3596 -79.7049
19.4506 14.7893 -76.4633
-12.4169 -9.99651 76.2421
-12.4176 -9.99693 76.6905
-24.6857 -1.74245 54.665
31.9041 24.3387 -77.9437
31.9041 24.3387 -77.7541
22.25 32.25 -88.404
22.25 32.25 -79.973
17.6285 15.3046 -77.7541
-47.875 -18.5 -79.6583
17.6285 15.3046 -74.289
22.2223 16.1066 -79.973
21.522 14.5586 -79.973
-23.6923 -17.4668 61.077
-18.141 -19.0493 61.077
-15.2295 -7.79659 71.9125
-24.5604 -21.1875 54.665
-16.6964 -8.9375 70.0849
-18.6857 -22.8622 54.665
-33.8805 -18.9194 -74.289
-33.8805 -18.9194 46.44
-14.359 -8.03673 73.4256
-16.484 -7.45053 69.7321
-17.0089 -11.1246 70.6038
-15.3843 -11.6007 73.4407
-16.8882 -10.2796 70.4033
-15.0748 -10.5248 73.4361
22.25 32.25 -93.623
-47.08 -17.8575 -93.623
-46.0188 -18.3674 -78.8768
42.6611 8.22523 -77.7541
42.6611 8.22523 -76.4633
-30.5395 -26.1335 -93.623
-49.4125 -22.0144 -93.623
35.1426 23.9941 -76.06
33.0985 24.6755 -75.2152
31.5625 24.375 -74.7649
40.2481 19.1314 -78.8879
41.4068 8.57996 -76.4633
-7.29587 13.0335 -78.8768
-7.78936 11.2652 -78.8768
-49.3518 -19.6214 -76.4633
44.597 7.67774 -77.7541
-49.1866 -19.4932 -93.623
26.2886 22.6789 -77.7541
26.2886 22.6789 -78.5803
23.8476 20.0091 -78.8571
22.5 14.6875 -79.3951
-49.4125 -22.0144 -79.973
-12.0087 -8.68511 77.511
-35.6451 -25.0192 -79.973
-11.2815 -8.88571 76.2421
-10.7238 -9.03955 78.2352
-11.592 -8.80005 78.2352
40.2385 19.1492 -78.8905
-10.3765 5.80724 46.44
-2.83231 -27.3814 54.665
-6.96615 -26.6003 54.665
22.5 14.6875 -77.7541
24.0296 25.1764 -79.973
-8.15234 -30.7519 46.44
-2.9375 -27.75 54.665
36.7737 23.1962 -79.5412
-43.0609 -21.321 -79.973
-6.00467 -6.84712 68.6504
44.597 7.67774 -76.4633
-29.6605 -4.33184 -78.8768
-22.0971 1.54087 -78.8768
-1.78437 -23.7096 54.665
44.597 7.67774 -78.8768
2.25852 -24.8609 46.44
-9.07461 10.3329 -74.289
21.7588 14.1365 -76.4633
-10.2076 -9.1867 74.366
21.7588 14.1365 -77.7541
-12.2269 -10.9339 74.366
-4.10622 -31.845 46.44
-9.4375 -8.3125 74.366
-8.84006 -9.30823 74.366
6.65307 5.85417 46.44
6.65307 5.85417 -74.289
41.7804 -2.74366 -93.623
41.7804 -2.74366 -88.404
-32.3529 -25.7377 -93.623
40.5949 9.27965 -76.4633
-15.4628 -0.302004 61.077
40.5949 9.27965 -77.7541
33.0985 24.6755 -74.289
-25.498 -1.52048 -78.8768
7.48435 -6.67621 46.44
39.9767 19.6371 -76.4633
44.597 7.67774 -74.289
-44.0077 -23.194 -79.973
-44.2012 -22.7297 -79.973
10.75 4.6875 -78.8768
-11.7383 -10.6994 77.5185
31.3202 28.1822 -79.973
-12.3806 -9.976 77.5155
-9.4375 -8.3125 72.5964
-33.4613 -17.4705 -78.9568
-4.10622 -31.845 -74.289
47.8611 19.7546 -93.623
-29.1333 -20.2742 54.665
-47.1875 -22.5 -79.973
-49.4125 -19.605 -79.973
-26.1998 -8.05122 54.665
-10.1875 -9.1875 74.3331
-32.3529 -25.7377 -79.973
27.0282 23.4878 -78.4965
31.5625 24.375 -77.9824
33.5765 24.1607 -77.7541
-8.125 10.0625 46.44
-10.7681 -11.1465 74.366
-2.90341 -12.3764 61.077
36.3361 23.5963 -77.7541
-29.5415 -15.8052 46.44
46.2569 20.2894 -79.973
-32.7179 -14.9007 46.44
48.0399 25.044 -79.973
-0.629596 -4.42233 61.077
-30.3828 -6.8285 46.44
-49.3518 -19.6214 -78.8768
-47.1875 -22.5 -79.973
-15.5389 -12.1382 73.4429
32.4369 29.4037 -80.484
28.9049 30.3906 -80.795
44.597 7.67774 -88.404
-19.43 0.8 61.077
21.7588 14.1365 -78.8768
-20.3027 -2.94013 61.077
20.5114 16.3601 -79.973
-47.1875 -22.5 -93.623
-30.5395 -26.1335 -79.973
20.1744 16.9608 -79.973
21.8799 17.8569 -79.973
21.3596 20.5163 -79.973
-12.0912 -9.81243 76.2421
-19.3795 -27.7188 46.44
7.48435 -6.67621 -74.289
-18.1413 -19.0516 61.073
-6.59745 -11.7987 67.3189
41.1237 14.2504 -78.2903
-1.30942 -4.23349 62.2653
-5.81612 -22.5615 61.077
-25.6868 -26.0148 46.44
-25.6868 -26.0148 -74.289
-2.1502 -23.6054 54.665
-9.94854 -5.76944 68.7073
-11.3883 -14.1942 72.0326
-11.4579 -8.83393 74.366
-0.628776 -4.42256 61.077
-1.66154 -8.0339 61.077
15.5765 7.78067 -77.7541
-0.0625004 -32.9375 -88.404
-23.6932 -17.4707 61.0704
-25.498 -1.52048 -76.4633
-33.4613 -17.4705 -74.289
45.5481 18.399 -79.973
-3.20008 -27.2766 54.665
44.6474 15.9973 -79.973
-35.1903 -23.4473 46.44
-5.81644 -22.5626 61.077
10.75 4.6875 46.44
49.2028 24.7191 -88.404
-0.0625004 -32.9375 46.44
49.2028 24.7191 -93.623
-35.3169 -23.4131 -79.973
-12.4043 -10.0582 77.5158
15.5765 7.78067 -75.1063
17.6285 15.3046 -75.9428
41.4068 8.57996 -77.7541
-15.2992 -11.6257 76.2421
-35.1903 -23.4473 -74.289
-15.2992 -11.6257 78.2488
-10.2063 -9.1823 74.366
-13.46 -12.1647 78.2488
-0.0625004 -32.9375 -74.289
-10.7238 -9.03955 75.2689
10.75 4.6875 -74.289
49.2028 24.7191 -79.973
30.537 27.3256 -79.973
-14.6875 5.125 54.665
41.4122 16.962 -78.5784
-12.5247 -10.476 77.5172
-35.1903 -23.4473 -78.3838
-47.875 -18.5 -78.8768
33.0985 24.6755 -79.973
40.9375 12.5 -78.1043
-0.0625004 -32.9375 -79.973
-19.0616 2.37876 46.44
7.48435 -6.67621 -79.973
-10.9614 -8.97401 74.366
28.9049 30.3906 -88.404
-49.4125 -19.605 -93.623
-49.3518 -19.6214 -93.623
22.5 14.6875 -76.4633
-0.0625004 -32.9375 -93.623
5  1188 1028 1126 803 1189  255 0 0
5  1191 899 898 986 952  255 39 0
4  1188 101 112 1028  255 0 0
4  1191 1148 900 899  255 39 0
4  1191 952 953 1148  255 39 0
4  1188 1189 104 101  255 0 0
4  1099 101 104 241  255 78 0
4  1183 1148 953 951  255 39 0
6  1183 873 1171 913 331 330  255 39 0
5  1183 330 329 900 1148  255 39 0
5  1183 951 690 874 873  255 39 0
7  317 308 360 1173 813 1089 714  255 117 0
4  317 267 216 217  255 156 0
4  317 316 715 267  255 156 0
3  317 714 316  255 117 0
4  231 1161 1058 232  255 78 0
5  231 910 1179 659 230  255 196 0
4  231 232 849 910  255 196 0
5  1173 606 1157 1074 1075  255 117 0
5  1167 904 831 830 1014  255 196 0
4  1167 1155 882 835  255 196 0
4  1171 873 874 950  255 39 0
4  1171 1159 914 913  255 39 0
4  1173 360 361 606  255 117 0
5  1173 1075 276 275 813  255 117 0
5  1171 950 1095 1071 1159  255 39 0
4  1167 835 660 904  255 196 0
4  1167 1014 1015 1155  255 196 0
4  1157 606 361 362  255 117 0
4  1159 1071 225 914  255 39 0
5  1157 362 202 960 1074  255 117 0
4  1155 1015 881 882  255 196 0
4  350 835 882 351  255 196 0
4  350 1140 691 352  255 39 0
4  351 882 881 219  255 196 0
4  351 1139 1140 350  255 39 0
4  351 219 228 1139  255 39 0
4  101 1099 1043 112  255 78 0
4  1139 1132 959 1140  255 39 0
4  1140 959 689 691  255 39 0
4  1139 228 227 1132  255 39 0
7  959 1095 950 874 690 686 689  255 39 0
5  1132 1055 1071 1095 959  255 39 0
4  1132 227 226 1055  255 39 0
5  360 1133 1084 362 361  255 235 0
4  362 1084 203 202  255 235 0
4  368 833 84 194  235 255 0
4  198 197 82 368  255 235 0
4  198 368 194 199  255 235 0
4  217 206 308 317  255 156 0
5  217 216 266 363 206  196 255 0
4  1189 803 804 1038  255 0 0
5  211 210 854 929 212  196 255 0
4  1189 1038 113 104  255 0 0
4  74 1184 197 73  156 255 0
4  74 223 68 71  117 255 0
4  71 68 337 787  78 255 0
4  71 80 1184 74  156 255 0
5  221 220 91 359 358  255 39 0
4  358 359 645 948  39 255 0
6  119 118 117 807 799 120  255 0 0
4  220 218 1110 941  255 196 0
4  962 1151 777 905  255 196 0
7  1115 1112 1015 1014 830 1151 962  255 196 0
4  91 92 645 359  39 255 0
4  1115 941 1110 1112  255 196 0
4  1115 962 92 941  255 196 0
4  220 941 92 91  255 196 0
4  206 926 1185 308  255 235 0
4  363 925 926 206  255 235 0
7  363 266 929 854 771 364 320  196 255 0
4  276 1075 1074 1106  255 117 0
4  276 1066 923 275  0 255 0
4  200 199 1050 277  0 255 39
4  1106 1074 960 277  255 117 0
4  276 88 84 1066  0 255 0
5  200 277 960 202 201  255 117 0
4  1106 277 88 276  255 117 0
4  220 221 998 1100  0 255 78
4  221 358 337 222  255 39 0
4  223 222 337 68  255 39 0
5  267 268 256 255 726  0 255 117
4  267 726 727 216  0 255 117
4  231 230 1102 1045  255 78 0
5  1099 241 239 1117 1043  255 78 0
5  231 1045 1087 1088 1161  255 78 0
4  1071 1055 226 225  255 39 0
4  223 74 345 336  117 255 0
6  73 197 198 1176 956 323  0 255 156
4  126 125 911 1061  0 255 196
5  311 307 86 310 917  255 156 0
5  126 875 99 90 125  255 78 0
4  126 119 120 875  255 78 0
6  311 917 648 209 210 211  255 156 0
4  1077 736 280 279  0 255 235
4  279 306 1121 1077  0 255 235
5  266 189 265 927 929  196 255 0
4  266 252 188 189  0 255 117
5  216 727 254 252 266  0 255 117
4  1176 729 728 956  0 255 156
4  1176 198 199 729  0 255 156
4  200 201 791 795  0 255 156
4  1158 812 643 681  0 255 235
4  1174 811 1111 1113  0 255 235
4  1174 681 643 811  0 255 235
7  1158 681 1174 1113 824 818 819  0 255 235
5  126 124 930 118 119  255 78 0
4  104 113 242 241  255 78 0
4  323 956 728 346  0 255 156
4  323 346 921 1080  0 235 255
4  1009 940 1118 810  0 235 255
4  1156 896 877 878  0 235 255
4  1156 1138 897 896  0 235 255
7  1156 878 852 851 649 856 1138  0 235 255
6  1146 846 845 820 862 887  0 235 255
4  279 280 737 842  0 196 255
5  176 841 772 174 175  0 196 255
12  176 177 599 1086 1060 1037 1064 306 279 842 739 841  0 196 255
7  264 268 267 715 315 314 912  255 156 0
7  264 269 192 260 259 258 732  0 255 117
6  1086 599 526 458 444 588  0 196 255
4  306 704 705 1121  0 255 235
5  264 732 257 256 268  0 255 117
6  306 305 703 783 765 704  0 255 235
5  1086 588 1033 1026 1060  0 196 255
4  306 1064 676 305  0 196 255
4  1084 332 204 203  255 235 0
4  332 1084 1133 331  255 235 0
4  332 1065 224 204  255 39 0
4  211 212 312 311  255 156 0
4  333 334 964 793  0 255 156
6  333 1063 1051 1153 1141 334  0 255 78
7  938 1013 832 1153 1051 1056 1052  0 255 78
4  1080 921 920 947  0 235 255
7  1076 252 254 670 671 736 1077  0 255 235
5  1076 1096 253 188 252  0 255 235
9  1077 1121 705 712 708 710 812 1096 1076  0 255 235
4  1002 839 635 634  0 255 235
3  257 732 258  0 255 117
4  257 283 978 949  0 196 255
4  1005 597 494 598  0 196 255
6  257 258 259 1128 638 283  0 255 235
5  1005 1164 936 995 597  0 196 255
4  811 711 1152 1111  0 255 235
4  261 634 635 840  0 255 235
4  261 193 192 733  0 156 255
7  261 840 1130 1128 259 260 193  0 255 235
4  333 204 224 1063  0 255 78
5  1056 1051 1063 224 225  0 255 78
4  199 200 795 729  0 255 156
4  199 194 84 1050  0 255 39
4  311 901 922 307  0 255 0
6  1064 1037 1025 1165 969 676  0 196 255
4  949 978 980 1003  0 196 255
4  936 1003 980 995  0 196 255
4  1060 1026 1025 1037  0 196 255
5  41 1178 700 699 1090  0 117 255
4  1059 887 862 861  0 235 255
7  41 40 49 987 1092 1162 1178  0 117 255
4  1059 861 1093 890  0 235 255
5  946 893 829 891 939  0 235 255
7  41 879 888 997 1131 607 40  0 78 255
4  225 224 1065 914  255 39 0
4  1056 225 226 1052  0 255 78
4  938 1052 226 227  0 255 78
4  197 1184 80 82  156 255 0
4  1013 938 937 1011  0 255 78
5  1013 342 340 341 832  0 255 78
4  1009 810 809 1134  0 235 255
4  345 1122 1124 336  0 235 255
4  345 323 1080 1122  0 235 255
5  1080 947 934 933 1122  0 235 255
4  336 344 1100 998  0 255 78
6  336 1124 1008 1149 343 344  0 235 255
4  1124 932 970 1008  0 235 255
4  1160 1096 812 1158  0 255 235
4  1160 1022 253 1096  0 255 235
10  1160 1158 819 815 816 966 1187 973 1001 1022  0 255 235
4  1153 832 341 1141  0 255 78
4  334 335 348 964  0 255 156
4  334 1141 341 335  0 255 78
8  1146 968 967 1138 856 1108 868 846  0 235 255
4  1043 1117 111 112  255 78 0
4  106 107 1087 1045  255 78 0
4  342 1013 1011 343  0 255 78
3  876 896 897  0 235 255
7  876 810 1118 35 33 1143 871  0 235 255
3  876 809 810  0 235 255
7  1138 967 341 340 809 876 897  0 235 255
4  1134 809 340 342  0 235 255
6  1133 360 308 1185 330 331  255 235 0
5  331 913 914 1065 332  255 39 0
4  1008 970 940 1009  0 235 255
4  323 345 74 73  117 255 0
4  277 1050 84 88  0 255 39
4  229 945 944 123  255 39 0
4  229 230 659 353  255 196 0
4  123 944 986 354  255 39 0
4  229 1127 1102 230  255 78 0
4  229 123 103 1127  255 78 0
9  597 396 137 151 587 545 184 185 494  0 196 255
7  995 1067 139 138 137 396 597  0 196 255
4  139 1067 1069 140  0 196 255
5  137 138 746 149 150  0 39 255
5  139 1190 955 746 138  0 39 255
4  1033 128 133 1165  0 196 255
4  588 918 128 1033  0 196 255
4  354 801 1078 1027  255 0 0
5  354 986 898 326 327  255 39 0
4  123 354 1027 103  255 0 0
9  106 105 1078 1126 111 110 109 108 107  255 0 0
4  112 111 1126 1028  255 0 0
4  1027 1078 105 103  255 0 0
5  793 964 957 963 792  0 255 156
5  1001 973 839 1002 931  0 255 235
4  254 727 726 255  0 255 117
4  1001 263 253 1022  0 255 235
3  946 939 935  0 235 255
5  958 79 75 78 237  0 0 255
4  229 353 688 945  255 39 0
4  350 352 660 835  255 196 0
4  795 791 790 794  0 255 156
4  219 218 838 1097  0 255 78
4  1015 1112 1110 881  255 196 0
4  219 881 1110 218  255 196 0
5  1011 937 1097 838 343  0 255 78
4  1009 1134 1149 1008  0 235 255
4  255 282 670 254  0 255 235
3  168 170 773  0 196 255
4  255 843 615 282  0 196 255
5  1005 598 169 1163 1164  0 196 255
6  168 773 836 837 1163 169  0 196 255
4  255 256 919 843  0 196 255
4  257 949 919 256  0 196 255
4  949 1003 1147 919  0 196 255
4  1003 936 837 1147  0 196 255
4  936 1164 1163 837  0 196 255
5  1002 634 261 262 931  0 255 235
4  1001 931 262 263  0 255 235
5  998 221 222 223 336  0 255 78
4  980 1069 1067 995  0 196 255
5  992 753 768 1109 619  0 39 255
5  166 167 1029 753 992  0 39 255
4  166 992 754 165  0 39 255
4  140 1069 1123 19  0 196 255
4  139 140 1053 1190  0 39 255
4  355 989 988 349  255 0 0
4  355 823 79 958  0 0 255
4  349 844 823 355  0 0 255
4  349 988 802 327  255 0 0
7  349 327 326 924 62 60 844  0 0 255
6  354 327 802 800 798 801  255 0 0
4  355 122 121 989  255 0 0
4  942 61 60 983  39 0 255
5  942 207 365 943 760  39 0 255
3  983 60 62  39 0 255
4  983 364 207 942  39 0 255
5  944 916 953 952 986  255 39 0
5  983 62 58 320 364  39 0 255
3  942 59 61  39 0 255
4  978 1123 1069 980  0 196 255
5  19 1123 284 129 141  0 196 255
4  140 19 20 1053  0 39 255
8  840 974 1054 975 609 286 1129 1130  0 255 235
4  283 284 1123 978  0 196 255
5  283 638 1125 1007 284  0 255 235
5  974 840 635 1175 961  0 255 235
4  974 961 757 1054  0 255 235
5  129 284 1007 1006 285  0 255 235
4  19 141 1042 20  78 0 255
4  129 285 1042 141  78 0 255
5  973 1187 1120 785 839  0 255 235
5  839 785 1091 1175 635  0 255 235
4  932 1124 1122 933  0 235 255
10  940 970 932 935 939 895 1017 1012 1020 1018  0 235 255
4  969 847 303 304  0 196 255
4  1165 1025 1026 1033  0 196 255
4  1165 133 847 969  0 196 255
9  825 294 1091 785 965 817 814 818 824  0 255 235
4  825 1111 1152 782  0 255 235
10  304 303 302 301 300 299 848 821 783 703  0 255 235
4  304 305 676 969  0 196 255
8  825 782 821 848 637 296 295 294  0 255 235
3  304 703 305  0 255 235
4  964 348 790 957  0 255 156
3  1145 1114 678  0 235 255
3  1146 678 968  0 235 255
4  955 1190 1053 954  0 39 255
5  149 746 747 718 148  0 39 255
3  955 747 746  0 39 255
4  793 203 204 333  0 255 156
5  943 365 309 63 64  39 0 255
4  945 915 916 944  255 39 0
4  945 688 687 915  255 39 0
4  80 71 70 806  117 0 255
4  968 335 341 967  0 235 255
4  1134 342 343 1149  0 235 255
6  1145 677 1137 920 921 1114  0 235 255
6  1146 887 1059 1137 677 678  0 235 255
3  1145 678 677  0 235 255
8  1137 1059 890 672 1142 655 893 920  0 235 255
4  947 920 893 946  0 235 255
4  270 190 215 928  196 255 0
4  270 731 191 190  0 156 255
4  263 262 730 734  0 156 255
4  261 733 730 262  0 156 255
4  270 734 730 731  0 156 255
4  1045 1102 105 106  255 78 0
4  103 105 1102 1127  255 78 0
4  1187 966 1119 1120  0 255 235
4  785 1120 1119 965  0 255 235
5  966 816 817 965 1119  0 255 235
4  348 347 794 790  0 255 156
5  1114 921 346 347 348  0 235 255
5  1114 348 335 968 678  0 235 255
4  1109 768 27 28  0 39 255
4  28 27 742 745  78 0 255
5  1109 28 29 769 618  0 39 255
6  294 278 1181 961 1175 1091  0 255 235
4  821 782 1152 1154  0 255 235
4  294 745 742 278  78 0 255
5  28 745 1057 744 29  78 0 255
4  294 295 1057 745  78 0 255
5  212 213 679 313 312  255 156 0
4  344 343 838 1100  0 255 78
4  1100 838 218 220  0 255 78
4  937 228 219 1097  0 255 78
5  951 915 687 686 690  255 39 0
4  953 916 915 951  255 39 0
5  792 963 791 201 202  0 255 156
4  963 957 790 791  0 255 156
4  358 948 1150 357  39 255 0
4  237 356 1083 236  39 255 0
4  125 235 669 124  255 78 0
5  125 909 662 663 235  255 196 0
4  962 905 93 92  255 196 0
4  125 90 94 909  255 196 0
3  124 669 930  255 78 0
5  118 930 669 250 117  255 78 0
6  114 115 116 248 244 243  255 78 0
4  114 113 1038 804  255 0 0
4  243 242 113 114  255 78 0
7  214 213 212 929 927 928 215  196 255 0
4  214 215 780 680  255 156 0
5  912 314 313 679 680  255 156 0
4  912 781 269 264  255 156 0
4  214 680 679 213  255 156 0
4  912 680 780 781  255 156 0
7  41 44 886 872 651 653 880  0 78 255
5  992 619 618 769 754  0 39 255
3  1109 618 619  0 39 255
4  169 598 494 186  0 196 255
4  21 20 1042 743  78 0 255
4  286 285 1006 1129  0 255 235
5  286 609 608 288 287  0 255 235
4  961 1181 292 757  0 255 235
4  286 743 1042 285  78 0 255
5  21 743 675 23 22  78 0 255
4  286 287 675 743  78 0 255
4  917 826 647 648  255 156 0
5  917 310 309 365 826  255 156 0
4  833 368 367 834  235 255 0
4  368 82 324 367  255 235 0
4  309 310 796 366  235 255 0
4  309 366 325 63  255 235 0
5  273 316 714 1089 274  255 117 0
4  958 237 122 355  0 0 255
4  954 1053 20 21  0 39 255
5  954 21 22 1041 762  0 39 255
4  265 189 188 253  0 156 255
5  253 263 734 270 265  0 156 255
5  955 954 762 718 747  0 39 255
4  274 275 923 922  0 255 0
4  366 367 324 325  255 235 0
4  366 796 834 367  235 255 0
6  919 1147 837 836 740 843  0 196 255
4  728 794 347 346  0 255 156
4  948 645 779 1150  39 255 0
4  236 1083 778 99  39 255 0
4  90 99 778 94  39 255 0
4  92 93 779 645  39 255 0
4  947 946 935 934  0 235 255
4  275 274 1089 813  255 117 0
5  943 64 59 942 760  39 0 255
6  879 735 685 684 57 894  0 78 255
4  940 1018 1019 1118  0 235 255
4  879 894 889 888  0 78 255
4  939 891 892 895  0 235 255
4  938 227 228 937  0 255 78
3  41 880 879  0 78 255
4  935 932 933 934  0 235 255
5  207 208 647 826 365  255 156 0
4  364 771 208 207  196 255 0
5  363 320 58 321 925  255 235 0
4  270 928 927 265  196 255 0
4  924 326 319 321  0 0 255
4  925 328 329 926  255 235 0
4  926 329 330 1185  255 235 0
4  925 321 319 328  255 235 0
4  924 321 58 62  0 0 255
5  250 669 235 234 251  255 78 0
4  250 248 116 117  255 78 0
4  117 116 784 807  255 0 0
3  808 989 121  255 0 0
4  808 120 799 805  255 0 0
4  808 121 96 120  255 0 0
4  237 236 121 122  156 0 255
4  923 83 85 922  0 255 0
4  729 795 794 728  0 255 156
4  893 655 654 829  0 235 255
4  843 740 614 615  0 196 255
6  918 159 135 134 130 128  0 196 255
6  918 588 444 445 142 159  0 196 255
5  128 130 756 626 1079  0 39 255
5  209 208 771 854 210  196 255 0
4  209 648 647 208  255 156 0
4  241 1116 906 239  196 0 255
4  126 1061 907 124  0 255 196
5  243 244 667 725 908  196 0 255
5  241 242 243 908 1116  196 0 255
4  125 124 907 911  0 255 196
7  239 240 723 1058 789 1098 1117  255 78 0
4  239 906 720 240  196 0 255
4  908 902 1036 1116  196 0 255
5  909 905 777 724 662  255 196 0
4  906 903 774 720  196 0 255
5  910 849 831 904 1179  255 196 0
4  908 725 776 902  196 0 255
4  903 906 1116 1036  196 0 255
4  905 909 94 93  255 196 0
5  903 902 776 775 774  196 0 255
6  312 313 314 1034 901 311  0 255 0
4  315 715 316 273  255 156 0
4  273 274 1035 315  0 255 0
4  314 315 1035 1034  0 255 0
5  326 898 899 328 319  255 39 0
4  328 899 900 329  255 39 0
4  896 876 871 877  0 235 255
5  894 57 56 55 889  0 78 255
5  895 892 1016 1010 1017  0 235 255
4  891 869 37 892  0 235 255
5  892 37 36 1021 1016  0 235 255
5  891 829 654 827 869  0 235 255
3  889 55 54  0 78 255
4  890 1093 611 672  0 235 255
5  889 54 996 997 888  0 78 255
3  886 44 43  0 78 255
4  885 53 872 886  0 78 255
3  885 52 53  0 78 255
5  886 43 42 52 885  0 78 255
4  34 53 52 39  235 0 255
5  34 860 855 1143 33  0 235 255
4  883 853 857 858  0 235 255
4  39 52 54 38  235 0 255
4  884 658 657 1107  0 235 255
4  34 858 857 860  0 235 255
7  883 859 657 650 649 851 853  0 235 255
3  884 1107 1070  0 235 255
6  39 1070 1107 859 858 34  0 235 255
3  883 858 859  0 235 255
6  880 683 682 685 735 879  0 78 255
4  880 653 1170 683  0 78 255
4  877 855 852 878  0 235 255
4  877 871 1143 855  0 235 255
4  191 780 215 190  255 156 0
4  79 76 702 1062  78 255 0
4  71 787 786 70  78 255 0
4  79 1062 822 75  78 255 0
4  358 357 338 337  255 39 0
4  237 78 339 356  255 39 0
4  66 70 786 822  78 255 0
4  356 357 1150 1083  39 255 0
4  356 339 338 357  255 39 0
4  236 99 96 121  156 0 255
4  99 875 120 96  255 78 0
3  1131 997 996  0 78 255
5  40 694 1169 1172 49  255 0 235
3  42 43 633  0 117 255
7  42 40 607 1131 996 54 52  0 78 255
5  1126 1078 801 797 803  255 0 0
9  803 797 798 800 799 807 784 1023 804  255 0 0
4  1066 84 83 923  0 255 0
4  70 66 69 806  117 0 255
4  1117 1098 110 111  255 78 0
5  1108 856 649 650 1135  0 235 255
3  1107 657 859  0 235 255
4  1108 1135 845 868  0 235 255
5  1058 1161 1088 977 789  255 78 0
5  1058 723 722 233 232  255 78 0
4  1098 976 109 110  255 78 0
4  1098 789 977 976  255 78 0
4  812 710 644 643  0 255 235
4  57 35 36 56  235 0 255
5  53 34 33 35 57  235 0 255
5  57 652 651 872 53  0 78 255
5  35 1118 1019 1021 36  0 235 255
4  37 55 56 36  235 0 255
5  870 673 674 867 1068  0 235 255
4  38 54 55 37  235 0 255
6  870 1186 1144 610 611 673  0 235 255
5  870 828 827 1144 1186  0 235 255
5  869 827 828 38 37  0 235 255
5  41 1090 632 631 44  0 117 255
6  1178 1162 1092 985 701 700  0 117 255
5  1092 1044 1048 984 985  0 117 255
4  1092 987 982 1044  0 117 255
4  1090 50 629 632  0 117 255
5  1090 699 698 51 50  0 117 255
5  50 641 639 694 40  255 0 235
6  42 633 630 629 50 40  0 117 255
5  1068 867 1101 658 884  0 235 255
5  696 641 51 46 1073  255 0 235
3  696 639 641  255 0 235
4  1083 1150 779 778  39 255 0
4  94 778 779 93  39 255 0
5  133 127 132 16 847  0 196 255
5  133 1081 625 759 127  0 39 255
4  128 1079 1081 133  0 39 255
5  867 674 861 864 866  0 235 255
3  865 658 1101  0 235 255
3  866 864 863  0 235 255
3  868 845 846  0 235 255
5  865 820 650 657 658  0 235 255
6  867 866 863 820 865 1101  0 235 255
4  861 674 673 1093  0 235 255
4  820 845 1135 650  0 235 255
5  864 861 862 820 863  0 235 255
5  860 857 853 852 855  0 235 255
3  852 853 850  0 235 255
4  786 338 339 822  78 255 0
4  83 834 796 85  235 255 0
7  1070 39 38 828 870 1068 884  0 235 255
5  1062 702 69 66 822  78 255 0
4  922 85 86 307  0 255 0
5  232 233 1094 724 849  255 196 0
4  849 724 777 831  255 196 0
3  853 851 850  0 235 255
3  852 850 851  0 235 255
4  847 16 131 303  0 196 255
4  831 777 1151 830  255 196 0
3  303 131 302  0 255 235
5  848 299 298 297 637  0 255 235
4  844 60 61 823  0 0 255
5  823 61 761 76 79  0 0 255
4  842 737 738 739  0 196 255
4  841 739 738 772  0 196 255
5  836 773 170 171 623  0 196 255
5  836 623 621 614 740  0 196 255
4  84 833 834 83  235 255 0
6  827 654 655 1142 610 1144  0 235 255
4  824 1113 1111 825  0 255 235
4  822 339 78 75  78 255 0
4  706 711 644 707  0 255 235
4  706 713 656 1154  0 255 235
5  821 1154 656 765 783  0 255 235
4  706 1154 1152 711  0 255 235
4  818 814 815 819  0 255 235
4  816 815 814 817  0 255 235
4  811 643 644 711  0 255 235
4  805 988 989 808  255 0 0
4  805 799 800 802  255 0 0
4  804 1023 115 114  255 0 0
4  324 806 69 325  117 0 255
4  82 80 806 324  117 0 255
4  325 69 64 63  117 0 255
5  64 76 761 61 59  0 0 255
3  805 802 988  255 0 0
3  801 798 797  255 0 0
4  85 796 310 86  235 255 0
4  793 792 202 203  0 255 156
3  788 976 977  255 78 0
4  108 109 976 788  255 78 0
4  108 100 102 107  255 0 0
4  788 977 100 108  255 78 0
4  787 337 338 786  78 255 0
4  116 115 1023 784  255 0 0
5  704 713 709 712 705  0 255 235
4  704 765 656 713  0 255 235
4  269 781 780 191  255 156 0
6  49 1172 695 640 47 48  255 0 235
4  49 1046 982 987  0 117 255
3  49 48 1046  0 117 255
4  248 250 666 994  196 0 255
4  725 991 990 1180  196 0 255
6  725 1180 1024 721 775 776  196 0 255
4  775 721 720 774  196 0 255
5  772 624 172 173 174  0 196 255
4  759 625 626 756  0 39 255
6  759 764 770 1177 1136 1182  0 39 255
4  756 763 764 759  0 39 255
4  755 763 719 748  0 39 255
4  770 764 763 755  0 39 255
4  755 612 613 770  0 39 255
5  769 628 1085 749 754  0 39 255
6  753 752 767 1000 1105 768  0 39 255
4  766 1039 1040 1103  0 39 255
4  751 716 1039 766  0 39 255
4  751 766 767 752  0 39 255
4  713 706 707 709  0 255 235
4  763 756 750 719  0 39 255
4  762 1039 716 718  0 39 255
4  718 716 147 148  0 39 255
4  32 31 301 302  78 0 255
4  32 1182 1136 31  0 39 255
4  127 759 1182 132  0 39 255
4  16 132 1182 32  0 39 255
4  16 32 302 131  78 0 255
3  296 637 297  0 255 235
3  299 300 636  78 0 255
5  758 31 15 14 30  78 0 255
4  296 744 1057 295  78 0 255
5  758 636 300 301 31  78 0 255
4  758 30 1032 636  78 0 255
5  299 636 1032 1049 298  78 0 255
4  296 297 646 744  78 0 255
4  29 744 646 13  78 0 255
5  757 290 971 975 1054  0 255 235
4  757 292 291 290  0 255 235
4  278 293 292 1181  0 255 235
5  27 26 741 620 742  78 0 255
4  278 742 620 293  78 0 255
5  25 24 972 289 290  78 0 255
5  290 289 288 608 971  0 255 235
4  292 293 620 741  78 0 255
5  25 290 291 741 26  78 0 255
3  292 741 291  78 0 255
4  160 161 719 750  0 39 255
4  135 160 750 134  0 39 255
4  130 134 750 756  0 39 255
4  162 748 719 161  0 39 255
4  162 163 642 748  0 39 255
4  755 748 642 612  0 39 255
5  754 749 717 164 165  0 39 255
4  167 1082 1030 1029  0 39 255
3  167 166 566  255 0 196
3  167 144 1082  0 39 255
4  753 1029 1031 752  0 39 255
4  146 147 716 751  0 39 255
3  144 411 145  255 0 196
6  146 751 752 1031 144 145  0 39 255
3  749 1085 717  0 39 255
5  30 13 646 1049 1032  78 0 255
3  289 972 288  78 0 255
5  738 616 622 624 772  0 196 255
4  737 617 616 738  0 196 255
4  736 671 281 280  0 255 235
4  280 281 617 737  0 196 255
3  260 192 193  0 255 117
4  733 192 187 730  0 156 255
4  731 730 187 191  0 156 255
4  244 248 249 245  255 78 0
4  233 234 663 1094  255 196 0
4  725 667 994 991  196 0 255
5  233 722 247 251 234  255 78 0
4  724 1094 663 662  255 196 0
4  721 1024 979 668  196 0 255
4  244 245 1004 667  196 0 255
4  723 240 247 722  255 78 0
4  247 246 249 251  255 78 0
4  247 668 979 246  196 0 255
5  721 668 247 240 720  196 0 255
4  717 642 163 164  0 39 255
4  712 709 707 708  0 255 235
4  710 708 707 644  0 255 235
3  50 51 641  255 0 235
3  701 985 984  0 117 255
6  701 1047 697 698 699 700  0 117 255
4  47 45 692 697  0 117 255
4  697 692 693 698  0 117 255
4  697 1047 48 47  0 117 255
4  698 693 46 51  0 117 255
3  695 1172 1169  255 0 235
5  696 1073 1072 640 639  255 0 235
5  695 1169 694 639 640  255 0 235
4  45 47 640 1072  255 0 235
4  693 692 45 46  0 117 255
4  691 688 353 352  255 39 0
4  352 353 659 660  255 196 0
4  689 687 688 691  255 39 0
3  689 686 687  255 39 0
5  685 682 1168 1166 684  0 78 255
4  684 1166 652 57  0 78 255
4  683 1170 1168 682  0 78 255
4  287 288 972 675  78 0 255
4  675 972 24 23  78 0 255
4  660 659 1179 904  255 196 0
3  673 611 1093  0 235 255
4  672 611 610 1142  0 235 255
5  1170 653 652 1166 1168  0 78 255
4  671 670 282 281  0 255 235
4  281 282 615 617  0 196 255
4  1039 762 1041 1040  0 39 255
4  1085 612 642 717  0 39 255
4  628 613 612 1085  0 39 255
4  628 769 29 13  0 39 255
6  770 613 628 13 30 1177  0 39 255
6  768 1105 999 1104 26 27  0 39 255
7  25 1103 1040 1041 22 23 24  0 39 255
4  767 1104 999 1000  0 39 255
4  766 1103 1104 767  0 39 255
4  26 1104 1103 25  0 39 255
5  1177 30 14 627 1136  0 39 255
4  69 702 76 64  78 255 0
3  1105 1000 999  0 39 255
3  235 663 234  255 196 0
4  667 1004 993 994  196 0 255
4  665 991 994 666  196 0 255
4  665 664 990 991  196 0 255
4  666 661 664 665  196 0 255
4  977 1088 102 100  255 78 0
4  1088 1087 107 102  255 78 0
4  144 1031 1030 1082  0 39 255
4  1079 626 625 1081  0 39 255
3  653 651 652  0 78 255
4  187 192 269 191  0 255 117
4  297 298 1049 646  78 0 255
4  617 615 614 616  0 196 255
4  46 45 1072 1073  255 0 235
4  661 666 250 251  196 0 255
3  1061 911 907  0 255 196
4  1004 979 1024 1180  196 0 255
4  1180 990 993 1004  196 0 255
4  664 661 993 990  196 0 255
5  638 1128 1130 1129 1125  0 255 235
4  701 984 981 1047  0 117 255
3  1048 981 984  0 117 255
4  1048 1044 982 981  0 117 255
5  1047 981 982 1046 48  0 117 255
4  1021 1019 1018 1020  0 235 255
4  1136 627 15 31  0 39 255
4  1125 1129 1006 1007  0 255 235
3  903 1036 902  196 0 255
5  1035 274 922 901 1034  0 255 0
4  624 623 171 172  0 196 255
4  623 624 622 621  0 196 255
5  44 631 630 633 43  0 117 255
4  632 629 630 631  0 117 255
3  627 14 15  0 39 255
4  616 614 621 622  0 196 255
3  1031 1029 1030  0 39 255
4  979 1004 245 246  196 0 255
5  1020 1012 1010 1016 1021  0 235 255
3  1017 1010 1012  0 235 255
3  245 249 246  255 78 0
4  993 661 251 249  196 0 255
4  975 971 608 609  0 255 235
4  994 993 249 248  196 0 255
6  170 168 551 518 489 488  255 0 156
7  171 170 488 546 482 173 172  255 0 156
5  174 173 482 483 525  255 0 156
7  176 175 525 483 554 601 605  255 0 156
3  605 601 602  255 0 156
5  605 602 594 177 176  255 0 156
4  135 159 3 5  255 0 196
3  604 583 582  255 0 117
4  604 531 532 583  255 0 117
7  604 582 420 419 479 596 531  255 0 117
4  11 392 542 575  255 0 78
5  603 423 490 519 600  255 0 156
6  603 592 524 421 422 423  255 0 156
5  603 600 553 593 592  255 0 156
5  168 169 593 553 551  255 0 156
3  387 386 392  255 0 39
3  602 595 594  255 0 156
7  601 558 562 426 561 595 602  255 0 156
3  600 551 553  255 0 156
4  600 519 518 551  255 0 156
4  601 554 556 558  255 0 156
4  177 178 526 599  0 196 255
6  594 591 549 589 178 177  255 0 156
4  169 186 495 593  255 0 156
4  380 389 517 381  255 0 39
4  584 537 536 10  255 0 78
4  7 535 534 539  255 0 78
5  10 536 500 499 9  255 0 78
10  10 11 572 502 569 406 515 570 559 560  255 0 78
5  584 395 498 497 537  255 0 78
4  7 9 499 535  255 0 78
4  7 539 480 8  255 0 78
4  584 137 150 395  255 0 196
4  178 179 458 526  0 196 255
4  591 506 547 549  255 0 156
3  178 589 179  255 0 156
3  185 186 494  0 196 255
3  185 184 493  255 0 156
4  590 429 427 550  255 0 156
5  185 493 492 495 186  255 0 156
4  590 550 409 408  255 0 156
6  385 376 468 467 463 471  255 0 78
4  385 471 530 386  255 0 78
3  596 479 478  255 0 117
7  596 478 418 443 407 532 531  255 0 117
4  595 561 591 594  255 0 156
3  590 408 410  255 0 156
5  593 495 492 524 592  255 0 156
4  561 505 506 591  255 0 156
5  11 575 571 503 572  255 0 78
5  425 399 505 561 426  255 0 156
4  425 424 410 578  255 0 156
5  590 410 424 421 429  255 0 156
5  425 578 579 400 399  255 0 156
5  166 165 470 465 566  255 0 196
4  538 395 150 149  255 0 196
7  538 149 148 147 146 564 481  255 0 196
4  184 183 428 493  255 0 156
6  493 428 427 520 552 492  255 0 156
6  184 545 461 456 454 183  0 196 255
4  584 555 151 137  255 0 196
6  589 549 547 457 180 179  255 0 156
3  179 180 458  0 196 255
4  587 151 152 460  0 196 255
5  182 181 457 547 548  255 0 156
5  182 183 454 455 586  0 196 255
4  579 408 409 548  255 0 156
4  576 491 510 555  255 0 78
5  587 460 433 461 545  0 196 255
7  182 586 156 157 511 512 181  0 196 255
6  182 548 409 550 428 183  255 0 156
5  579 548 547 506 400  255 0 156
6  3 583 532 407 6 5  255 0 78
4  586 455 155 156  0 196 255
4  159 142 4 3  255 0 196
3  8 517 389  255 0 39
5  381 574 417 567 382  255 0 78
4  539 538 481 480  255 0 78
6  8 480 481 564 397 517  255 0 78
5  381 517 397 398 574  255 0 78
4  583 3 571 582  255 0 78
4  580 453 452 1  255 0 78
4  161 160 544 475  255 0 196
4  162 161 475 1  255 0 196
4  585 472 473 577  255 0 78
4  585 560 559 472  255 0 78
5  585 577 576 555 560  255 0 78
4  10 560 555 584  255 0 78
6  581 459 448 447 453 580  255 0 78
5  582 571 575 542 420  255 0 78
3  581 436 459  255 0 78
5  581 580 1 2 436  255 0 78
6  386 530 2 0 542 392  255 0 78
4  578 410 408 579  255 0 156
4  577 473 491 576  255 0 78
4  568 501 158 157  255 0 196
4  154 153 462 523  255 0 196
4  154 455 454 456  0 196 255
4  523 462 430 508  255 0 78
4  523 440 439 513  255 0 78
4  157 156 514 568  255 0 196
4  157 158 451 511  0 196 255
4  154 143 155 455  0 196 255
4  523 513 143 154  255 0 196
4  544 443 418 477  255 0 117
4  544 6 407 443  255 0 78
5  471 449 459 436 530  255 0 78
5  530 436 435 543 529  255 0 78
4  470 447 446 464  255 0 78
4  1 475 474 528  255 0 117
4  470 452 453 447  255 0 78
3  383 382 567  255 0 78
4  573 564 413 412  255 0 78
3  469 375 12  255 0 78
4  465 470 464 466  255 0 78
6  383 567 417 416 540 374  255 0 78
4  573 398 397 564  255 0 78
6  574 398 573 412 414 417  255 0 78
4  469 12 563 465  255 0 78
5  572 504 484 487 502  255 0 78
3  572 503 504  255 0 78
4  568 514 516 569  255 0 78
4  3 4 503 571  255 0 78
4  570 442 441 522  255 0 78
4  522 441 440 523  255 0 78
5  522 394 509 559 570  255 0 78
4  569 502 501 568  255 0 78
4  569 516 405 406  255 0 78
4  570 515 438 442  255 0 78
5  5 6 544 160 135  255 0 196
5  565 563 541 415 414  255 0 78
5  1 452 164 163 162  255 0 196
4  165 164 452 470  255 0 196
5  565 414 412 411 144  255 0 196
6  465 563 565 144 167 566  255 0 196
4  564 146 145 413  255 0 196
5  374 540 541 563 12  255 0 78
6  562 423 422 424 425 426  255 0 156
3  562 558 556  255 0 156
3  554 557 556  255 0 156
5  562 556 557 490 423  255 0 156
3  513 403 404  255 0 196
4  514 156 155 404  255 0 196
4  513 404 155 143  255 0 196
4  509 473 472 559  255 0 78
3  509 394 393  255 0 78
4  510 491 431 430  255 0 78
4  510 462 153 152  255 0 196
3  181 180 457  255 0 156
4  4 501 486 485  255 0 78
4  142 158 501 4  255 0 196
6  181 512 445 444 458 180  0 196 255
4  142 445 451 158  0 196 255
5  557 554 483 482 546  255 0 156
4  557 546 489 490  255 0 156
3  152 153 434  0 196 255
4  555 510 152 151  255 0 196
3  175 174 525  255 0 156
6  552 521 429 421 524 492  255 0 156
3  546 488 489  255 0 156
3  550 427 428  255 0 156
3  552 520 521  255 0 156
4  154 456 434 153  0 196 255
3  543 527 529  255 0 78
4  542 476 419 420  255 0 117
4  544 477 474 475  255 0 117
4  543 435 437 527  255 0 78
4  542 0 402 476  255 0 117
4  540 416 415 541  255 0 78
4  538 533 498 395  255 0 78
4  539 534 533 538  255 0 78
4  537 497 500 536  255 0 78
5  535 499 498 533 534  255 0 78
5  528 474 477 402 496  255 0 117
5  530 529 527 437 2  255 0 78
4  528 496 2 1  255 0 117
4  489 518 519 490  255 0 156
4  522 507 393 394  255 0 78
4  523 508 507 522  255 0 78
4  520 427 429 521  255 0 156
4  515 406 403 513  255 0 78
4  516 514 404 405  255 0 78
4  515 513 439 438  255 0 78
4  512 511 451 445  0 196 255
3  510 430 462  255 0 78
4  509 393 432 473  255 0 78
4  508 430 393 507  255 0 78
4  505 399 400 506  255 0 156
5  504 503 4 485 484  255 0 78
4  502 487 486 501  255 0 78
4  500 497 498 499  255 0 78
4  496 402 0 2  255 0 117
4  473 432 431 491  255 0 78
4  487 484 485 486  255 0 78
3  421 424 422  255 0 156
5  479 419 401 418 478  255 0 117
4  477 418 401 402  255 0 117
4  476 402 401 419  255 0 117
4  471 463 450 449  255 0 78
4  468 376 375 469  255 0 78
4  466 464 463 467  255 0 78
5  469 465 466 467 468  255 0 78
4  464 446 450 463  255 0 78
4  456 461 433 434  0 196 255
4  152 434 433 460  0 196 255
3  459 449 448  255 0 78
5  450 446 447 448 449  255 0 78
5  442 438 439 440 441  255 0 78
4  437 435 436 2  255 0 78
4  432 393 430 431  255 0 78
4  417 414 415 416  255 0 78
4  145 411 412 413  255 0 196
4  406 405 404 403  255 0 78
5  11 10 378 390 391  255 0 39
7  391 390 372 371 379 384 388  255 0 39
5  11 391 388 387 392  255 0 39
4  390 378 373 372  255 0 39
4  389 380 369 8  255 0 39
6  7 8 369 379 371 370  255 0 39
7  388 384 377 376 385 386 387  255 0 39
9  384 379 369 380 381 382 383 374 377  255 0 39
6  378 10 9 7 370 373  255 0 39
5  377 374 12 375 376  255 0 39
4  373 370 371 372  255 0 39
7  202 362 361 360 195 200 201  255 117 0
7  362 202 201 200 195 360 361  255 235 0
4  199 200 195 194  0 255 39
4  200 199 194 195  255 235 0
5  368 194 309 366 367  235 255 0
5  194 368 367 366 309  255 235 0
3  365 309 207  255 156 0
3  309 365 207  39 0 255
4  364 207 205 320  196 255 0
4  207 364 320 205  39 0 255
4  363 320 205 206  196 255 0
4  363 206 205 320  255 235 0
5  308 206 205 309 271  255 156 0
5  206 308 271 309 205  255 235 0
4  360 308 271 195  255 117 0
4  308 360 195 271  255 235 0
4  309 194 195 271  235 255 0
4  194 309 271 195  255 235 0
3  207 309 205  255 156 0
3  309 207 205  39 0 255
6  219 351 350 91 220 218  255 39 0
6  351 219 218 220 91 350  255 196 0
8  359 91 238 98 237 356 357 358  255 39 0
8  91 359 358 357 356 237 98 238  39 255 0
4  122 237 98 97  255 39 0
4  237 122 97 98  156 0 255
3  355 122 349  0 0 255
3  122 355 349  255 0 0
3  327 349 122  0 0 255
3  349 327 122  255 0 0
5  354 327 122 95 123  255 39 0
5  327 354 123 95 122  255 0 0
6  229 123 95 97 238 89  255 39 0
6  123 229 89 238 97 95  255 78 0
6  353 229 89 91 350 352  255 39 0
6  229 353 352 350 91 89  255 196 0
3  122 97 95  255 39 0
3  91 238 89  39 255 0
8  335 341 340 342 343 344 336 318  0 255 78
8  341 335 318 336 344 343 342 340  0 235 255
6  348 335 318 323 346 347  0 255 156
6  335 348 347 346 323 318  0 235 255
4  345 323 318 336  117 255 0
4  323 345 336 318  0 235 255
7  122 327 326 319 77 67 78  255 39 0
7  327 122 78 67 77 319 326  0 0 255
3  237 122 78  255 39 0
3  122 237 78  0 0 255
5  339 78 68 337 338  255 39 0
5  78 339 338 337 68  78 255 0
4  223 68 322 196  255 39 0
4  68 223 196 322  117 255 0
4  336 223 196 318  0 255 78
4  223 336 318 196  117 255 0
6  335 318 196 204 333 334  0 255 78
6  335 334 333 204 196 318  0 255 156
10  332 204 322 81 77 319 328 329 330 331  255 39 0
10  204 332 331 330 329 328 319 77 81 322  255 235 0
3  68 78 67  255 39 0
3  78 68 67  78 255 0
3  68 322 81  117 255 0
3  204 322 196  255 235 0
3  322 204 196  255 39 0
3  322 68 81  255 39 0
5  63 309 205 320 58  39 0 255
5  309 63 58 320 205  255 235 0
7  325 63 77 81 72 82 324  117 0 255
7  63 325 324 82 72 81 77  255 235 0
3  197 82 73  156 255 0
3  82 197 73  255 235 0
3  323 73 318  117 255 0
3  73 323 318  0 255 156
5  322 196 73 72 81  117 255 0
3  318 196 73  0 255 156
3  319 77 63  0 0 255
5  322 81 72 73 196  255 235 0
4  321 319 63 58  0 0 255
4  319 321 58 63  255 235 0
3  319 63 77  255 235 0
3  73 82 72  156 255 0
3  82 73 72  255 235 0
3  318 73 196  117 255 0
6  317 308 272 87 273 316  255 156 0
6  308 317 316 273 87 272  255 117 0
7  315 273 307 311 312 313 314  255 156 0
7  273 315 314 313 312 311 307  0 255 0
4  86 307 273 87  255 156 0
4  307 86 87 273  0 255 0
5  310 86 272 271 309  255 156 0
5  86 310 309 271 272  235 255 0
3  308 271 272  255 156 0
3  308 272 271  255 117 0
3  86 272 87  235 255 0
6  306 279 131 303 304 305  0 255 235
6  279 306 305 304 303 131  0 196 255
11  302 131 278 294 295 296 297 298 299 300 301  0 255 235
11  131 302 301 300 299 298 297 296 295 294 278  78 0 255
12  293 278 131 129 285 286 287 288 289 290 291 292  0 255 235
12  278 293 292 291 290 289 288 287 286 285 129 131  78 0 255
10  284 129 279 280 281 282 255 256 257 283  0 255 235
10  129 284 283 257 256 255 282 281 280 279  0 196 255
3  131 279 129  0 255 235
3  279 131 129  0 196 255
3  272 86 87  255 156 0
3  195 271 88  255 117 0
3  271 195 88  235 255 0
4  200 195 88 277  255 117 0
4  195 200 277 88  0 255 39
6  276 88 87 273 274 275  255 117 0
6  88 276 275 274 273 87  0 255 0
4  272 87 88 271  255 117 0
4  272 271 88 87  235 255 0
3  270 265 190  196 255 0
3  265 270 190  0 156 255
4  191 190 264 269  255 156 0
4  190 191 269 264  0 255 117
5  268 264 190 216 267  255 156 0
5  264 268 267 216 190  0 255 117
4  266 216 190 189  196 255 0
4  216 266 189 190  0 255 117
3  265 189 190  196 255 0
3  265 190 189  0 156 255
6  263 253 188 193 261 262  0 156 255
6  253 263 262 261 193 188  0 255 235
10  260 193 188 252 254 255 256 257 258 259  0 255 117
10  193 260 259 258 257 256 255 254 252 188  0 255 235
3  238 97 98  255 39 0
3  238 91 89  255 39 0
3  238 98 97  255 78 0
4  251 249 248 250  255 78 0
4  249 251 250 248  196 0 255
9  247 240 239 241 242 243 244 245 246  255 78 0
9  240 247 246 245 244 243 242 241 239  196 0 255
5  238 89 90 99 98  255 78 0
3  229 89 90  255 196 0
4  237 98 99 236  156 0 255
5  238 98 99 90 89  39 255 0
4  237 236 99 98  39 255 0
9  125 90 229 230 231 232 233 234 235  255 78 0
9  90 125 235 234 233 232 231 230 229  255 196 0
3  229 90 89  255 78 0
13  228 219 218 220 221 222 223 196 204 224 225 226 227  255 39 0
13  219 228 227 226 225 224 204 196 223 222 221 220 218  0 255 78
14  217 206 205 207 208 209 210 211 212 213 214 215 190 216  196 255 0
14  206 217 216 190 215 214 213 212 211 210 209 208 207 205  255 156 0
10  204 196 73 197 198 199 200 201 202 203  255 235 0
10  196 204 203 202 201 200 199 198 197 73  0 255 156
4  88 84 194 195  0 255 39
4  84 88 195 194  235 255 0
4  193 188 187 192  0 156 255
4  188 193 192 187  0 255 117
5  191 187 188 189 190  0 156 255
5  187 191 190 189 188  0 255 117
19  186 169 168 170 171 172 173 174 175 176 177 178 179 180 181 182 183 184 185  255 0 156
19  169 186 185 184 183 182 181 180 179 178 177 176 175 174 173 172 171 170 168  0 196 255
11  167 144 136 135 160 161 162 163 164 165 166  255 0 196
11  144 167 166 165 164 163 162 161 160 135 136  0 39 255
3  159 135 142  255 0 196
3  135 159 142  0 196 255
8  158 142 135 136 143 155 156 157  255 0 196
8  142 158 157 156 155 143 136 135  0 196 255
7  154 143 136 137 151 152 153  255 0 196
7  143 154 153 152 151 137 136  0 196 255
9  150 137 136 144 145 146 147 148 149  255 0 196
9  137 150 149 148 147 146 145 144 136  0 39 255
4  141 129 18 19  0 196 255
4  129 141 19 18  78 0 255
10  140 19 18 130 134 135 136 137 138 139  0 196 255
10  19 140 139 138 137 136 135 134 130 18  0 39 255
5  128 130 18 17 127  0 196 255
5  130 128 127 17 18  0 39 255
3  133 128 127  0 196 255
3  128 133 127  0 39 255
4  132 127 17 16  0 196 255
4  127 132 16 17  0 39 255
4  131 16 17 129  0 196 255
4  16 131 129 17  78 0 255
3  129 18 17  78 0 255
3  129 17 18  0 196 255
3  126 125 124  255 78 0
3  125 126 124  0 255 196
3  122 95 97  156 0 255
4  123 103 96 95  255 0 0
4  103 123 95 96  255 78 0
4  122 95 96 121  255 0 0
4  122 121 96 95  156 0 255
11  120 96 103 104 113 114 115 116 117 118 119  255 0 0
11  96 120 119 118 117 116 115 114 113 104 103  255 78 0
5  101 104 103 102 100  255 0 0
5  104 101 100 102 103  255 78 0
7  112 101 100 108 109 110 111  255 0 0
7  101 112 111 110 109 108 100  255 78 0
5  107 102 103 105 106  255 0 0
5  102 107 106 105 103  255 78 0
5  99 96 95 97 98  255 78 0
5  96 99 98 97 95  156 0 255
6  94 90 89 91 92 93  255 196 0
6  90 94 93 92 91 89  39 255 0
6  88 84 83 85 86 87  235 255 0
6  84 88 87 86 85 83  0 255 0
4  81 77 67 68  117 0 255
4  81 68 67 77  255 39 0
4  82 80 71 72  156 255 0
4  80 82 72 71  117 0 255
4  81 72 71 68  117 255 0
4  81 68 71 72  117 0 255
4  63 77 65 64  0 0 255
4  77 63 64 65  117 0 255
4  76 64 65 75  0 0 255
4  64 76 75 65  78 255 0
3  79 76 75  0 0 255
3  76 79 75  78 255 0
4  78 75 65 67  0 0 255
4  75 78 67 65  78 255 0
3  77 67 65  0 0 255
3  77 65 67  117 0 255
4  74 73 72 71  156 255 0
4  73 74 71 72  117 255 0
6  71 68 67 65 66 70  117 0 255
6  68 71 70 66 65 67  78 255 0
4  69 66 65 64  117 0 255
4  66 69 64 65  78 255 0
5  59 61 60 62 58  0 0 255
5  61 59 58 62 60  39 0 255
4  64 59 58 63  0 0 255
4  59 64 63 58  39 0 255
6  57 53 52 54 55 56  0 78 255
6  53 57 56 55 54 52  235 0 255
8  51 46 45 47 48 49 40 50  0 117 255
8  46 51 50 40 49 48 47 45  255 0 235
5  44 41 40 42 43  0 78 255
5  41 44 43 42 40  0 117 255
7  39 34 33 35 36 37 38  0 235 255
7  34 39 38 37 36 35 33  235 0 255
4  32 16 15 31  78 0 255
4  16 32 31 15  0 39 255
17  14 15 16 17 18 19 20 21 22 23 24 25 26 27 28 29 13  78 0 255
17  15 14 13 29 28 27 26 25 24 23 22 21 20 19 18 17 16  0 39 255
3  30 14 13  78 0 255
3  14 30 13  0 39 255
16  12 374 383 382 381 517 8 7 9 10 11 392 386 385 376 375  255 0 39
16  374 12 375 376 385 386 392 11 10 9 7 8 517 381 382 383  255 0 78
24  414 412 413 395 584 555 510 462 523 513 403 568 501 4 5 6 544 475 1 452 470 465 563 565  255 0 78
24  412 414 565 563 465 470 452 1 475 544 6 5 4 501 568 403 513 523 462 510 555 584 395 413  255 0 196
3  3 5 4  255 0 78
3  5 3 4  255 0 196
4  514 568 403 404  255 0 78
4  568 514 404 403  255 0 196
5  538 395 413 564 481  255 0 78
5  395 538 481 564 413  255 0 196
3  2 1 0  255 0 78
3  1 2 0  255 0 117
4  542 0 582 420  255 0 78
4  0 542 420 582  255 0 117
9  583 582 0 1 475 544 443 407 532  255 0 78
9  582 583 532 407 443 544 475 1 0  255 0 117

