OFF
1171 1046 0

14.7868 4.88498 -93.623
21.2604 28.6215 -93.623
14.7868 4.88498 -88.404
14.7868 4.88498 -79.973
15.5765 7.78067 -79.973
17.6285 15.3046 -79.973
18.2835 17.7062 -79.973
18.7653 19.4727 -79.973
20.3948 25.4475 -79.973
20.9253 27.3927 -79.973
21.2604 28.6215 -79.973
21.2604 28.6215 -81.0298
21.2604 28.6215 -88.404
14.0888 16.3056 -79.973
17.5722 28.4272 -88.404
17.9456 29.7265 -93.623
11.1057 5.92529 -93.623
11.1057 5.92529 -88.404
11.1057 5.92529 -79.973
11.9287 8.78909 -79.973
17.5722 28.4272 -79.973
17.5722 28.4272 -81.217
17.9456 29.7265 -88.404
-9.39232 5.52128 -74.289
-9.85474 3.86428 -79.973
-9.4081 5.46474 -79.973
-8.125 10.0625 -79.973
-8.125 10.0625 -78.8768
-8.125 10.0625 -76.4633
-8.125 10.0625 -74.289
-9.39232 5.52128 46.44
-9.85474 3.86428 46.44
-9.85474 3.86428 -74.289
35.1426 23.9941 -79.973
39.3123 9.17227 -79.973
22.3935 13.957 -79.973
41.7804 -2.74366 -79.973
38.4411 -1.79993 -79.973
35.7558 -1.04105 -79.973
26.5165 1.57006 -79.973
19.4506 14.7893 -79.973
21.7588 14.1365 -79.973
22.5 14.6875 -79.973
23.1676 19.2653 -79.973
23.8476 20.0091 -79.973
24.125 20.3125 -79.973
24.7075 20.9496 -79.973
27.0282 23.4878 -79.973
31.4472 24.3524 -79.973
31.5625 24.375 -79.973
31.9041 24.3387 -79.973
36.3361 23.5963 -79.973
36.7737 23.1962 -79.973
39.3125 20.875 -79.973
39.9767 19.6371 -79.973
40.2385 19.1492 -79.973
41.4122 16.962 -79.973
41.3012 15.9185 -79.973
41.1237 14.2504 -79.973
40.9375 12.5 -79.973
40.5464 8.82329 -79.973
41.4068 8.57996 -79.973
42.6611 8.22523 -79.973
44.597 7.67774 -79.973
-9.07461 10.3329 -79.973
-10.3765 5.80724 -79.973
9.09296 -1.0786 -79.973
-14.6875 5.125 -79.973
-14.4221 6.98271 -79.973
-10.318 10.687 -79.973
-9.09726 11.6348 -79.973
-8.58585 12.0319 -79.973
-7.29587 13.0335 -79.973
-7.78936 11.2652 -79.973
-0.919675 8.01065 -79.973
10.75 4.6875 -79.973
-16.0073 -4.11385 54.665
-15.4628 -0.302004 46.44
-15.2385 1.26825 -74.289
-16.0073 -4.11385 -93.623
-15.2385 1.26825 -79.973
-14.6875 5.125 -93.623
-15.4628 -0.302004 -93.623
-16.0073 -4.11385 -51.4215
-15.4628 -0.302004 54.665
-15.2385 1.26825 46.44
-15.2385 1.26825 -76.4633
-15.2385 1.26825 -78.8768
2.37467 -9.13681 46.44
-20.3027 -2.94013 -74.289
-21.4345 -2.63086 -79.973
-24.6857 -1.74245 -88.404
-20.3027 -2.94013 -93.623
-24.6857 -1.74245 -93.623
6.45668 -10.2522 -93.623
6.45668 -10.2522 -88.404
6.45668 -10.2522 -79.973
6.45668 -10.2522 -74.289
6.45668 -10.2522 46.44
2.37467 -9.13681 54.665
2.01557 -9.03869 54.665
-1.66148 -8.03392 54.665
-20.3027 -2.94013 54.665
-20.3027 -2.94013 46.44
-21.4345 -2.63086 -74.289
-21.4345 -2.63086 -76.4633
-21.4345 -2.63086 -78.8768
-24.6857 -1.74245 -79.973
-17.5742 -19.2132 54.665
-5.8125 -22.5625 54.665
-18.1413 -19.0516 54.665
-23.6932 -17.4707 54.665
-21.7957 -9.33857 54.665
-19.43 0.8 54.665
-12.3803 -1.15825 54.665
-11.3372 -1.44799 54.665
-0.629596 -4.42233 54.665
-24.3101 -0.177415 -93.623
-30.2173 -24.7908 -74.289
-26.1998 -8.05122 -74.289
-30.2173 -24.7908 46.44
-30.2173 -24.7908 -76.4633
-30.2173 -24.7908 -77.951
-30.2173 -24.7908 -79.973
-30.2173 -24.7908 -88.404
-30.2173 -24.7908 -93.623
-24.3101 -0.177415 -88.404
-24.6857 -1.74245 -78.8768
-24.6857 -1.74245 -76.4633
-24.6857 -1.74245 -74.289
-25.127 -3.58112 -74.289
-26.1998 -8.05122 46.44
-28.1555 -16.1999 46.44
-29.1333 -20.2742 46.44
-16.7786 5.67051 -88.404
9.09296 -1.0786 -74.289
-10.86 4.12652 -74.289
9.09296 -1.0786 -72.3539
9.09296 -1.0786 46.44
9.09296 -1.0786 -88.404
9.09296 -1.0786 -93.623
-16.7786 5.67051 -93.623
-16.7786 5.67051 -79.973
-14.6875 5.125 -78.8768
-14.6875 5.125 -76.4633
-14.6875 5.125 -74.289
-10.86 4.12652 46.44
0.933887 1.04986 46.44
4.98064 -0.00581908 46.44
26.8316 23.2729 -72.2569
25.6595 21.9909 -72.3539
22.8237 16.9071 -72.2225
29.2634 15.5726 -70.1424
28.5518 14.4755 -70.1424
22.4064 14.046 -71.8129
33.8982 24.3348 -72.3539
34.5 24.0625 -72.3539
37.125 22.875 -72.3539
37.1269 22.8741 -72.3539
35.5804 23.5738 -72.0304
22.3935 13.957 -72.3539
22.5 14.6875 -72.3539
22.9575 17.8249 -72.3539
22.3935 13.957 -71.8001
30.5078 17.4913 -70.1424
26.663 23.5381 -72.3539
27.1201 23.5884 -72.3539
28.0853 23.6947 -72.3539
32.9363 24.2288 -72.3539
33.3432 17.8035 -70.1424
37.1286 22.8717 -72.3539
41.384 16.6968 -72.3539
41.9019 15.9453 -72.3539
34.6849 15.8566 -70.1424
26.5726 23.3987 -72.3539
27.3131 12.5657 -70.1424
32.7295 11.0339 -70.1424
41.0914 13.9464 -72.3539
39.1718 9.21203 -72.3539
25.2596 7.89596 -72.6839
26.6875 7.25 -72.4891
22.5 14.6875 -74.289
22.5 14.6875 -73.4414
21.7588 14.1365 -74.289
27.0282 23.4878 -73.4355
28.1693 24.736 -73.5374
33.3042 2.88 -72.3539
33.3042 2.88 -72.6778
41.869 12.2737 -72.8863
41.571 13.7971 -72.8632
32.25 5.6875 -72.8443
30.7879 5.39507 -72.8426
30.7879 5.39507 -72.3539
32.25 5.6875 -72.3539
40.6605 9.89651 -72.9948
39.8363 10.2451 -73.0224
30.3832 3.6875 -72.7517
30.3832 3.6875 -73.0195
30.3832 3.6875 -72.4753
30.2469 24.515 -74.289
29.2454 24.6215 -73.9266
28.5684 23.7892 -73.8871
29.9392 24.0574 -74.289
30.0913 24.5315 -73.9132
31.6727 25.3415 -73.9426
31.6727 25.3415 -72.7817
30.0913 24.5315 -72.5644
41.869 12.2737 -73.115
41.869 12.2737 -72.8022
40.7872 11.0872 -72.6172
27.1134 4.59141 -72.3539
28.2697 2.53013 -72.3539
26.5165 1.57006 -72.3539
30.3832 3.6875 -72.3539
31.0504 3.50304 -72.3539
35.2078 -0.564338 -72.3539
27.1134 4.59141 -72.8833
27.1134 4.59141 -73.0705
27.1134 4.59141 -72.8344
25.2596 7.89596 -73.0365
23.6898 8.60608 -73.0915
23.6898 8.60608 -72.898
23.6898 8.60608 -74.289
25.2596 7.89596 -74.289
42.8565 16.4294 -72.7453
41.5609 18.3602 -72.7559
41.4122 16.962 -72.7954
42.3045 15.299 -72.7959
30.7879 5.39507 -72.3539
30.7879 5.39507 -72.8426
29.0881 5.05513 -72.8406
29.0881 5.05513 -72.4492
29.4002 5.11754 -72.3539
40.7872 11.0872 -73.0598
41.0852 7.45455 -74.289
38.1907 6.87564 -74.289
40.0541 21.5499 -73.6486
40.3765 19.9022 -73.5539
40.3765 19.9022 -72.771
40.3765 19.9022 -72.7189
40.0541 21.5499 -72.966
36.67 6.57149 -74.289
39.9767 19.6371 -73.5431
39.9767 19.6371 -74.289
40.8879 19.4346 -73.5228
27.0787 4.65323 -74.289
29.0881 5.05513 -74.289
27.1134 4.59141 -74.289
26.0548 6.47837 -74.289
36.892 1.88819 -74.289
35.8902 2.16511 -74.0259
39.9401 3.44643 -74.289
40.7641 19.5479 -72.7625
23.3599 10.2924 -74.289
24.0562 6.73352 -74.289
26.6875 7.25 -74.289
26.6875 7.25 -72.9864
24.5 9.25 -74.289
38.5965 22.2093 -72.6612
38.5965 22.2093 -73.6998
36.0008 23.9028 -73.8197
37.7899 23.7125 -73.7913
37.7899 23.7125 -72.7309
36.451 23.8549 -72.3539
36.0008 23.9028 -72.3539
39.3125 20.875 -73.6185
39.3125 20.875 -72.5993
23.1821 11.201 -72.3539
23.3599 10.2924 -72.5444
41.6988 14.0587 -73.2159
41.1237 14.2504 -73.2323
41.1237 14.2504 -74.289
41.571 13.7971 -72.5202
41.571 13.7971 -73.2026
42.1101 11.0415 -73.0441
42.1212 10.9846 -73.0408
30.7879 5.39507 -74.289
24.125 20.3125 -72.4808
24.125 20.3125 -73.7379
35.7558 -1.04105 -74.2489
35.7558 -1.04105 -72.5822
38.1907 6.87564 -72.3539
38.1907 6.87564 -72.8514
36.67 6.57149 -72.8496
36.67 6.57149 -72.3539
26.5165 1.57006 -74.0054
26.5165 1.57006 -73.8464
26.5165 1.57006 -72.6723
23.3599 10.2924 -73.1885
21.2635 6.20856 -72.9823
21.2635 6.20856 -74.1353
16.9846 7.39142 -74.289
17.5906 9.20943 -74.289
16.9846 7.39142 -73.0905
40.9375 12.5 -72.9214
42.3045 15.299 -72.7959
21.522 14.5586 -73.4439
22.2223 16.1066 -73.523
22.2223 16.1066 -72.3539
21.522 14.5586 -72.3539
37.6875 7.6875 -72.9016
37.6875 7.6875 -72.3539
38.9157 8.36007 -72.3814
38.9157 8.36007 -72.9268
38.3893 7.28233 -72.3539
35.8902 2.16511 -72.3539
35.8902 2.16511 -72.6124
26.0548 6.47837 -72.8497
26.0548 6.47837 -72.9498
24.5 9.25 -72.5254
24.5 9.25 -73.1193
35.4872 5.27424 -74.289
37.6875 7.6875 -74.289
37.2959 5.04335 -74.289
33.6978 5.50267 -74.289
29.3125 6.0625 -72.8943
32.2738 4.72286 -72.7905
29.3125 6.0625 -72.3539
32.2738 4.72286 -72.3539
27.0282 23.4878 -72.3539
20.3609 3.30968 -73.5783
20.3609 3.30968 -72.8301
26.969 4.63131 -72.8773
26.969 4.63131 -72.838
27.7711 6.25927 -72.4711
27.7711 6.25927 -72.9206
21.2635 6.20856 -72.3539
38.4411 -1.79993 -74.289
38.4411 -1.79993 -73.5039
43.9484 5.49558 -74.289
41.4122 16.962 -73.3801
42.3045 15.299 -72.5585
42.3045 15.299 -73.2788
41.9573 15.946 -72.3708
41.4122 16.962 -72.4179
41.4053 9.72343 -72.9778
40.5949 9.27965 -72.9612
21.8799 17.8569 -73.6237
21.8799 17.8569 -72.6666
22.1344 16.5559 -72.3539
21.7588 14.1365 -72.3539
21.7588 14.1365 -73.4181
23.1676 19.2653 -73.6892
23.1676 19.2653 -72.5601
33.1309 24.6819 -72.5014
33.1309 24.6819 -73.8914
40.9375 12.5 -72.4871
42.6244 15.9542 -72.5753
40.9375 12.5 -73.1368
21.3897 7.07392 -74.289
27.7711 6.25927 -74.289
27.2264 1.36943 -73.8773
36.6757 -1.30101 -74.289
35.8902 2.16511 -73.2489
30.671 3.60792 -73.0315
39.2996 1.22261 -73.3909
27.9502 4.36008 -72.9182
14.7868 4.88498 -73.3355
26.3821 4.79356 -72.8529
15.0505 5.85169 -73.0241
35.3583 -0.928715 -72.4457
40.7283 -2.4463 -74.289
22.2833 13.2015 -74.289
22.2833 13.2015 -73.3609
35.2904 -0.90952 -72.4224
35.1286 -0.863778 -72.4516
35.6704 -1.01689 -72.3539
24.9451 2.01416 -74.289
38.9157 8.36007 -74.289
35.8902 2.16511 -74.289
23.6773 10.7166 -72.3539
22.2833 13.2015 -72.3539
32.2738 4.72286 -74.289
29.3125 6.0625 -74.289
36.2717 2.05965 -72.3539
35.0907 -0.853081 -72.3539
34.5 24.0625 -73.8434
27.0282 23.4878 -74.289
27.0282 23.4878 -73.8856
31.5625 24.375 -74.289
31.5625 24.375 -73.8899
35.1426 23.9941 -74.289
36.0008 23.9028 -74.289
39.3125 20.875 -74.289
40.2385 19.1492 -74.289
41.4122 16.962 -74.289
31.5625 24.375 -72.4555
40.9375 12.5 -74.289
39.3123 9.17227 -74.289
39.3123 9.17227 -72.968
33.6978 5.50267 -72.8197
33.6978 5.50267 -72.3539
28.3026 6.19143 -72.3539
40.0288 8.96965 -72.6481
40.0288 8.96965 -72.9496
38.8008 8.29718 -72.3539
28.1693 24.736 -73.9437
28.1693 24.736 -72.7066
39.3123 9.17227 -72.4021
22.0356 11.5032 -73.269
22.0356 11.5032 -72.5664
30.671 3.60792 -72.4229
30.671 3.60792 -72.7444
41.6054 18.7786 -73.4792
41.6054 18.7786 -72.8571
40.5464 8.82329 -72.8257
40.5464 8.82329 -72.9363
22.3935 13.957 -73.4018
22.1402 12.2204 -72.3539
40.0288 8.96965 -74.289
30.5088 3.75628 -74.289
30.671 3.60792 -74.289
22.0356 11.5032 -74.289
39.3043 1.22132 -74.289
41.4068 8.57996 -74.289
39.3043 1.22132 -73.3925
22.3935 13.957 -74.289
21.2635 6.20856 -74.289
23.1676 19.2653 -74.289
23.8476 20.0091 -74.289
26.2886 22.6789 -74.289
36.3361 23.5963 -74.289
28.6199 4.17495 -72.7963
36.9485 1.87255 -72.5857
15.5765 7.78067 -72.3539
15.5765 7.78067 -73.1261
42.6054 0.308751 -72.4426
42.6054 0.308751 -72.3539
42.066 10.8874 -73.036
19.4506 14.7893 -74.289
20.4194 6.4419 -74.289
16.3084 10.464 -74.289
41.922 0.497687 -74.289
44.1249 5.93073 -74.289
15.5765 7.78067 -74.289
42.6054 0.308751 -74.289
14.7868 4.88498 -72.973
38.9423 -1.94157 -72.3539
42.1521 -1.36863 -72.3539
14.7868 4.88498 -74.289
14.7868 4.88498 -72.3539
40.8462 8.7385 -72.9286
41.7804 -2.74366 -74.289
41.7804 -2.74366 -72.3539
35.7558 -1.04105 -74.289
26.5165 1.57006 -74.289
10.75 4.6875 -72.3539
-11.9583 -9.84993 76.2421
24.8099 21.8264 -79.973
23.4387 21.1241 -79.973
-46.2931 -17.7091 -79.973
-10.406 -6.69829 70.4225
-9.76906 -7.75989 71.8522
40.2385 19.1492 -76.4633
40.2385 19.1492 -77.7541
26.5165 1.57006 -77.7541
26.5165 1.57006 -78.8768
35.7558 -1.04105 -77.7541
35.7558 -1.04105 -78.8768
38.5385 21.5827 -77.7541
36.3361 23.5963 -76.5533
31.9041 24.3387 -79.9455
26.5165 1.57006 -77.6946
35.7558 -1.04105 -76.8777
26.5165 1.57006 -76.4633
35.7558 -1.04105 -76.4633
40.7872 11.0872 -77.7541
40.7872 11.0872 -76.4633
40.1956 19.0061 -78.8768
38.983 14.964 -78.8768
38.983 14.964 -78.4917
39.9767 19.6371 -78.8768
39.9767 19.6371 -77.7541
-10.5021 -10.2608 76.2421
-10.7586 -11.136 76.2421
-10.7568 -11.1298 77.2751
-10.7156 -10.9894 77.5209
-11.8784 -10.9729 76.2421
-12.2025 -10.9222 76.7897
-12.2841 -10.9094 76.9276
21.6061 29.8891 -79.973
24.2326 29.1352 -79.973
41.4122 16.962 -79.7735
40.8879 19.4346 -79.973
19.666 15.4354 -79.973
-10.1888 -9.192 74.366
-10.029 -8.64684 74.366
-10.4493 -10.0807 75.9258
40.2385 19.1492 -76.3702
47.8611 19.7546 -81.3165
47.3844 17.991 -81.5561
-26.0049 -3.311 -74.289
39.9767 19.6371 -78.9601
19.9557 27.6919 -79.973
19.9557 27.6919 -80.9993
-14.9071 7.12364 -80.6663
-14.339 7.56482 -80.6836
-5.77458 -14.4174 64.7768
-7.42325 -11.6696 68.7142
-12.3152 -12.5003 76.2421
-13.78 -12.0709 76.2421
-13.0462 -12.286 77.5235
-13.3059 -6.30042 71.1039
-11.9278 -5.22859 68.7359
43.6736 13.4005 -79.973
-10.762 -11.1475 74.3557
-10.4493 -10.0807 74.3434
-31.9522 -24.3221 -78.102
-31.9522 -24.3221 -76.4633
-13.1873 -10.0291 76.2421
-13.4681 -10.9962 76.2421
-45.3125 -17.2187 -79.6569
-31.3721 -10.2486 -78.8768
-31.3721 -10.2486 -79.6492
-45.3125 -17.2187 -78.8768
-45.3125 -16.4851 -78.8768
-45.3125 -16.4851 -79.7392
-47.9108 -18.5026 -79.66
-45.3125 -18.317 -79.5336
-30.3951 -6.87129 -79.973
-37.6456 -10.532 -79.973
39.3123 9.17227 -77.8228
40.9375 12.5 -78.1043
26.5165 1.57006 -88.404
35.7558 -1.04105 -88.404
-9.24223 -5.96245 68.6971
-10.029 -8.64684 73.4091
-10.1833 -9.17318 74.3329
23.8476 20.0091 -79.9161
41.1237 14.2504 -78.8768
42.6611 8.22523 -78.8768
-0.629596 -4.42233 61.0784
-1.58458 -7.76477 61.077
-8.58585 12.0319 -80.859
1.50243 19.8651 -81.1666
49.2028 24.7191 -80.6422
-13.5482 -10.6359 78.2436
-13.059 -10.7739 78.2436
-13.945 -10.8602 76.2421
-13.0182 -10.3364 77.5155
-13.1208 -29.4097 -76.4633
-19.3795 -27.7188 -77.0079
-25.6868 -26.0148 -77.5568
-19.3795 -27.7188 -76.4633
-2.99622 -32.1449 -76.4633
-25.6868 -26.0148 -76.4633
-9.4375 -8.3125 78.2314
-9.4375 -8.3125 76.2421
-8.84006 -9.30823 76.2421
-8.84006 -9.30823 78.2343
-10.2076 -9.1867 74.366
-10.0579 -8.66315 74.366
-9.18689 -9.4747 74.366
-10.029 -8.64684 78.2331
-10.4493 -10.0807 78.2386
-10.4493 -10.0807 76.2421
-10.029 -8.64684 76.2421
-11.1543 -10.4191 78.2404
-11.9896 -10.1809 78.2404
-11.8431 -9.67221 78.2385
-10.7052 -10.2035 76.2421
-11.5872 -9.95465 76.2421
-11.4415 -9.44518 76.2421
-20.4854 2.79232 -78.8768
42.1101 11.0415 -79.973
45.1989 9.90482 -79.973
45.1989 9.90482 -88.404
46.41 14.3858 -79.973
46.41 14.3858 -82.0458
46.41 14.3858 -88.404
45.9396 12.6451 -82.2823
47.3844 17.991 -88.404
47.3844 17.991 -79.973
45.9396 12.6451 -88.404
45.9396 12.6451 -79.973
10.75 4.6875 -78.9384
0.747769 8.85253 -79.973
26.2886 22.6789 -76.4633
39.9767 19.6371 -76.4245
23.8476 20.0091 -76.4633
41.1237 14.2504 -75.8256
-45.3125 -18.317 -79.973
-45.3125 -20.7127 -79.973
-45.3125 -20.7127 -78.8768
-45.3125 -18.317 -78.8768
-41.1413 -18.019 -79.973
-44.6518 -20.8912 -79.973
-47.9108 -18.5026 -79.973
-33.4613 -17.4705 -79.973
-33.4613 -17.4705 -78.8768
-47.9108 -18.5026 -78.8768
13.9375 5.125 -79.973
13.9375 5.125 -88.404
-11.12 3.22267 54.665
-10.86 4.12652 54.665
19.6701 29.1516 -81.1794
17.9456 29.7265 -81.3417
14.9994 16.0481 -79.973
19.6701 29.1516 -79.973
19.6701 29.1516 -88.404
-13.0128 -10.3379 77.5155
38.4411 -1.79993 -88.404
38.4411 -1.79993 -78.8768
38.4411 -1.79993 -77.7541
41.7804 -2.74366 -77.7541
14.7868 4.88498 -77.7541
31.5625 24.375 -79.969
35.1426 23.9941 -79.7233
23.1676 19.2653 -79.8712
39.3125 20.875 -79.1367
40.2898 19.0537 -78.8768
36.3361 23.5963 -79.611
22.3935 13.957 -79.3191
23.1676 19.2653 -76.3831
23.8269 19.9865 -76.4633
41.4122 16.962 -76.127
39.7893 19.9865 -76.4633
39.3123 9.17227 -75.261
40.9375 12.5 -75.631
22.3935 13.957 -75.793
27.0282 23.4878 -76.4633
31.5625 24.375 -76.4633
35.1426 23.9941 -76.4633
39.3125 20.875 -76.4633
41.4122 16.962 -76.4633
40.9375 12.5 -76.4633
39.3123 9.17227 -76.4633
31.5625 24.375 -78.8768
27.0282 23.4878 -78.8768
35.1426 23.9941 -78.8768
28.1693 24.736 -79.973
39.3125 20.875 -78.8768
41.4122 16.962 -78.8768
40.9375 12.5 -78.8768
39.3123 9.17227 -78.8768
40.9375 12.5 -77.7541
39.3123 9.17227 -77.7541
-18.6287 4.23395 -80.5528
-20.4854 2.79232 -80.4962
23.8476 20.0091 -77.7541
41.1237 14.2504 -76.4633
41.1237 14.2504 -77.7541
43.2469 13.5427 -79.973
27.0282 23.4878 -77.7541
31.5625 24.375 -77.7541
35.1426 23.9941 -77.7541
39.3125 20.875 -77.7541
41.4122 16.962 -77.7541
-14.9071 7.12364 -93.623
-14.9071 7.12364 -88.404
38.4411 -1.79993 -76.4633
14.7868 4.88498 -76.1218
-45.3125 -20.7127 -76.4633
-45.3125 -18.317 -76.4633
-47.9108 -18.5026 -76.4633
-33.4613 -17.4705 -76.4633
-46.4387 -17.3596 -79.973
-46.4387 -17.3596 -88.404
-26.0049 -3.311 -78.8768
-26.0049 -3.311 -79.973
-26.0049 -3.311 -76.4633
13.9633 29.5406 -81.5466
13.9633 29.5406 -79.973
44.292 18.6782 -79.973
42.9714 14.0561 -79.973
-46.4387 -17.3596 -93.623
-8.58585 12.0319 -88.404
28.9049 30.3906 -79.973
-20.33 1.05001 -76.4633
-20.33 1.05001 -74.289
-45.3125 -22.9092 -88.404
-45.3125 -22.9092 -79.973
-45.3125 -21.9643 -79.973
0.609128 -0.0868036 54.665
0.933887 1.04986 54.665
4.98064 -0.00581908 54.665
3.40067 -5.54185 46.44
3.40067 -5.54185 54.665
-10.1131 2.93856 54.665
-9.85474 3.86428 54.665
-14.4221 6.98271 -78.8768
-10.3765 5.80724 -78.8768
-43.0609 -21.321 -93.623
-30.0505 -17.6037 -93.623
-27.6814 -2.79514 -93.623
-26.0049 -3.311 -93.623
-31.9522 -24.3221 -93.623
-25.498 -1.52048 -93.623
-47.6805 -20.073 -93.623
-47.9874 -18.562 -93.623
-25.8988 -1.41098 -93.623
-20.4854 2.79232 -79.973
-20.4854 2.79232 -88.404
-19.0616 2.37876 -88.404
-19.0616 2.37876 -79.973
-19.0616 2.37876 -78.8768
-19.0616 2.37876 -74.289
-19.0616 2.37876 -76.4633
-19.43 0.8 -76.4633
-45.3125 -16.4851 -93.623
-45.3125 -16.4851 -88.404
-27.6814 -2.79514 -88.404
-47.9874 -18.562 -88.404
-25.8988 -1.41098 -88.404
-17.5742 -19.2132 61.0733
-17.5735 -19.211 61.077
47.8611 19.7546 -79.973
47.8611 19.7546 -88.404
10.75 4.6875 -76.4633
42.4735 26.5993 -79.973
42.4735 26.5993 -88.404
38.2971 27.7663 -88.404
38.2971 27.7663 -79.973
42.662 26.5466 -79.973
42.662 26.5466 -88.404
-8.65961 -9.60899 71.667
43.7583 16.8103 -79.973
-20.33 1.05001 -79.973
-20.33 1.05001 -78.8768
-22.0971 1.54087 -88.404
-22.0971 1.54087 -79.973
46.2534 25.5432 -79.973
44.8832 20.7473 -79.973
-14.9071 7.12364 -79.973
-12.7872 -8.45884 74.366
-12.4138 -9.99475 74.366
-13.5579 -5.25178 69.5191
-33.8107 -18.678 -74.289
-33.8107 -18.678 -76.4633
-6.8612 -26.2329 54.665
-14.4221 6.98271 -74.289
-14.4221 6.98271 -76.4633
-10.3765 5.80724 -76.4633
-10.3765 5.80724 -74.289
-31.9522 -24.3221 -74.289
-31.9522 -24.3221 -79.973
14.7868 4.88498 -76.4633
15.5765 7.78067 -76.4633
-28.1555 -16.1999 54.665
25.0135 31.4779 -79.973
23.7812 27.7813 -79.973
41.7804 -2.74366 -76.4633
41.7804 -2.74366 -78.8768
14.7868 4.88498 -78.8768
-20.4854 2.79232 -93.623
-22.0971 1.54087 -93.623
-4.50833 -10.7542 64.4231
-2.0943 -9.54715 61.077
40.5464 8.82329 -78.8768
41.6054 18.7786 -79.973
-33.8107 -18.678 -78.8768
40.5464 8.82329 -77.7541
-9.59511 -13.2976 74.3074
-9.59511 -13.2976 71.4739
-10.6625 -13.8312 72.9534
-11.2236 -12.8202 74.3285
-13.9357 7.87797 -88.404
-13.9357 7.87797 -93.623
-10.9555 -13.9778 72.5817
-3.66399 -15.036 61.077
-11.25 -12.8125 74.3289
-11.2438 -12.7913 74.366
-11.0238 -12.0409 74.366
-11.3743 -13.2367 73.5861
-9.23711 -8.64648 73.0462
-8.84006 -9.30823 72.0979
-8.65961 -9.60899 74.3425
-8.84006 -9.30823 73.9374
-9.1721 -9.46761 72.5613
-9.1721 -9.46761 74.3477
-10.2019 -9.18353 74.3582
-2.59076 -11.2832 61.077
-13.8132 -8.16935 74.366
-10.7256 -9.04055 74.366
-13.9575 -8.66648 74.366
-13.0148 -10.3344 74.366
-9.59484 -21.4854 61.0771
-11.7703 -12.6412 74.366
-14.856 -11.7616 74.366
-11.6995 -12.6614 74.366
-12.0044 -11.4135 76.2421
-12.4818 -11.2774 76.2421
-0.0625004 -32.9375 -75.327
-2.99622 -32.1449 -75.5823
-27.6814 -2.79514 -79.973
-26.0049 -3.311 -88.404
13.9633 29.5406 -88.404
-9.83075 -21.4182 61.077
-6.15904 -22.4638 61.0788
-5.81722 -22.5612 61.0789
-12.5251 -10.4762 77.5167
-12.5249 -10.4766 77.5172
-30.6814 -19.8324 46.44
-31.9522 -24.3221 46.44
-11.2388 -12.7927 74.366
-12.5801 -11.1035 74.366
-10.4655 -10.0884 74.366
-12.5801 -11.1035 76.4778
-12.2613 -10.9504 76.8718
-4.54418 -7.24621 66.1037
-12.7027 -10.1581 77.0821
-13.0148 -10.3344 76.6624
-6.57108 -6.69235 68.6586
-14.1986 -7.47915 73.4233
-14.3437 -7.98333 73.4254
-13.4329 -4.81733 68.7576
-12.8373 -10.6484 77.0946
-16.1129 -4.85307 69.1158
-6.1583 -22.4651 61.077
-6.15904 -22.4638 61.077
-20.7654 -4.92315 -93.623
5.65221 -13.0516 -93.623
5.65221 -13.0516 -88.404
-10.318 10.687 -78.8768
-47.9874 -18.562 -76.4633
-47.6805 -20.073 -76.4633
-35.1903 -23.4473 -76.4633
-30.3828 -6.8285 -76.4633
-47.6805 -20.073 -78.8768
-32.194 -6.29905 -78.8768
-47.9874 -18.562 -78.8768
-30.3828 -6.8285 -78.8768
-35.1903 -23.4473 -78.8768
-30.3828 -6.8285 -78.8768
-47.9874 -18.562 -79.973
-47.6805 -20.073 -79.973
-32.194 -6.29905 -79.973
-30.3828 -6.8285 -79.973
-49.3518 -19.6214 -79.973
-29.6605 -4.33184 -79.973
1.50243 19.8651 -79.973
1.09735 -28.9015 -74.289
1.09735 -28.9015 46.44
-2.9375 -27.75 46.44
-19.3795 -27.7188 -79.973
-19.3795 -27.7188 -88.404
-14.339 7.56482 -79.973
-14.339 7.56482 -88.404
40.5464 8.82329 -76.4633
40.5464 8.82329 -74.289
15.5765 7.78067 -78.8768
-12.3803 -1.15825 62.3439
-12.3803 -1.15825 61.077
-9.07461 10.3329 -78.8768
-9.07461 10.3329 -76.4633
-45.3125 -16.4851 -79.973
-19.43 0.8 -93.623
7.48435 -6.67621 -93.623
7.48435 -6.67621 -88.404
15.3269 30.5994 -93.623
15.3269 30.5994 -88.404
-9.09726 11.6348 -88.404
-9.09726 11.6348 -93.623
-32.194 -6.29905 -80.1392
22.25 32.25 -81.381
-20.3027 -2.94013 61.4795
-19.43 0.8 61.1367
-18.71 0.599992 62.3889
-16.0905 -4.09113 68.796
17.6285 15.3046 -76.4633
-12.5245 -10.4764 77.5167
-18.7397 -23.2403 46.44
-24.6461 -21.5547 46.44
-24.6461 -21.5547 54.665
-18.7397 -23.2403 54.665
-16.0217 -4.21432 68.9642
-17.2918 -13.1048 71.0736
-27.259 -7.74161 46.44
-18.6287 4.23395 -88.404
-18.6287 4.23395 -79.973
-25.6868 -26.0148 -88.404
-25.6868 -26.0148 -79.973
-16.0073 -4.11385 68.7948
-15.4628 -0.302004 62.3658
-27.259 -7.74161 -74.289
-27.259 -7.74161 -79.973
-25.498 -1.52048 -79.973
-25.498 -1.52048 -74.289
17.6285 15.3046 -78.8768
-2.99622 -32.1449 -74.289
-2.99622 -32.1449 -79.973
-2.99622 -32.1449 -93.623
-2.99622 -32.1449 -88.404
23.1676 19.2653 -77.7541
23.1676 19.2653 -76.4633
-14.8105 4.26397 54.665
4.27946 -1.12242 54.665
23.1676 19.2653 -78.8768
-24.3101 -0.177415 -79.973
-19.3795 -27.7188 -74.289
5.33668 1.2417 46.44
29.2783 25.9489 -79.973
-32.194 -6.29905 -88.404
-30.3828 -6.8285 -74.289
4.62529 0.08688 54.665
3.04393 -5.44276 54.665
32.4369 29.4037 -79.973
32.4369 29.4037 -88.404
28.9049 30.3906 -88.404
-5.8125 -22.5625 61.0707
-1.66148 -8.03392 61.0769
41.4068 8.57996 -78.8768
-23.4693 -16.5114 62.7234
25.419 23.173 -79.973
24.125 20.3125 -79.9345
24.125 20.3125 -78.8768
25.0135 31.4779 -88.404
22.3935 13.957 -78.8768
24.3804 27.5815 -79.973
23.6881 22.8344 -79.973
-47.1875 -22.5 -79.973
-47.1875 -22.5 -88.404
-45.3125 -22.6442 -79.973
19.4506 14.7893 -78.8768
-46.0188 -18.3674 -79.973
22.3935 13.957 -77.7541
-46.0188 -18.3674 -79.5679
19.4506 14.7893 -77.7541
-11.4604 -8.83636 78.2352
-11.4599 -8.8365 76.5533
-18.6287 4.23395 -93.623
-11.8031 -9.533 78.238
-11.8824 -9.69442 78.1856
-25.6868 -26.0148 -93.623
-11.8818 -9.69407 76.8391
-25.3454 -0.981327 -93.623
-25.498 -1.52048 -88.404
-25.3454 -0.981327 -88.404
22.3935 13.957 -76.4633
-46.2931 -17.7091 -78.8768
-46.4387 -17.3596 -78.8768
36.3361 23.5963 -76.4633
-46.2931 -17.7091 -79.6574
-46.4387 -17.3596 -79.7049
19.4506 14.7893 -76.4633
-12.4169 -9.99651 76.2421
-12.4176 -9.99693 76.6905
-24.6857 -1.74245 46.44
-21.4345 -2.63086 46.44
-24.6857 -1.74245 54.665
31.9041 24.3387 -77.9437
31.9041 24.3387 -77.7541
22.25 32.25 -88.404
22.25 32.25 -79.973
-45.3125 -17.2187 -79.973
17.6285 15.3046 -77.7541
-47.875 -18.5 -79.973
-47.875 -18.5 -79.6583
17.6285 15.3046 -74.289
22.2223 16.1066 -79.973
21.522 14.5586 -79.973
-23.6923 -17.4668 61.077
-18.141 -19.0493 61.077
-15.2295 -7.79659 71.9125
-24.5604 -21.1875 54.665
-16.6964 -8.9375 70.0849
-18.6857 -22.8622 54.665
-33.8805 -18.9194 -74.289
-33.8805 -18.9194 46.44
-14.359 -8.03673 73.4256
-16.484 -7.45053 69.7321
-17.0089 -11.1246 70.6038
-15.3843 -11.6007 73.4407
-16.8882 -10.2796 70.4033
-15.0748 -10.5248 73.4361
-47.08 -17.8575 -88.404
22.25 32.25 -93.623
-47.08 -17.8575 -93.623
-46.0188 -18.3674 -78.8768
42.6611 8.22523 -77.7541
42.6611 8.22523 -76.4633
-30.5395 -26.1335 -88.404
-30.5395 -26.1335 -93.623
-49.4125 -22.0144 -93.623
35.1426 23.9941 -76.06
-49.4125 -22.0144 -88.404
33.0985 24.6755 -75.2152
-35.6451 -25.0192 -88.404
31.5625 24.375 -74.7649
40.2481 19.1314 -78.8879
41.4068 8.57996 -76.4633
-7.29587 13.0335 -78.8768
-7.78936 11.2652 -78.8768
-49.3518 -19.6214 -76.4633
-49.1866 -19.4932 -93.623
44.597 7.67774 -77.7541
-49.1866 -19.4932 -88.404
26.2886 22.6789 -77.7541
26.2886 22.6789 -78.5803
23.8476 20.0091 -78.8571
22.5 14.6875 -79.3951
-10.3765 5.80724 46.44
22.5 14.6875 -78.8768
-12.0087 -8.68511 77.511
-49.4125 -22.0144 -79.973
-11.2815 -8.88571 76.2421
-35.6451 -25.0192 -79.973
-10.7238 -9.03955 76.2421
-10.7238 -9.03955 78.2352
-11.592 -8.80005 78.2352
40.2385 19.1492 -78.8905
-2.83231 -27.3814 54.665
-6.96615 -26.6003 54.665
22.5 14.6875 -77.7541
24.0296 25.1764 -79.973
-6.96615 -26.6003 46.44
-8.15234 -30.7519 46.44
-2.9375 -27.75 54.665
36.7737 23.1962 -79.5412
-33.8107 -18.678 -79.973
-43.0609 -21.321 -79.973
-49.1866 -19.4932 -79.973
-6.00467 -6.84712 68.6504
44.597 7.67774 -76.4633
-19.43 0.8 -78.8768
-29.6605 -4.33184 -78.8768
-22.0971 1.54087 -78.8768
44.597 7.67774 -78.8768
-1.78437 -23.7096 54.665
-1.78437 -23.7096 46.44
2.25852 -24.8609 46.44
-31.3721 -10.2486 -79.973
-9.07461 10.3329 -74.289
21.7588 14.1365 -76.4633
21.7588 14.1365 -77.7541
-10.2076 -9.1867 74.366
-12.2269 -10.9339 74.366
-4.10622 -31.845 46.44
-9.4375 -8.3125 74.366
-8.84006 -9.30823 74.366
6.65307 5.85417 46.44
6.65307 5.85417 -74.289
41.7804 -2.74366 -93.623
41.7804 -2.74366 -88.404
-32.3529 -25.7377 -88.404
-32.3529 -25.7377 -93.623
40.5949 9.27965 -76.4633
-15.4628 -0.302004 61.077
40.5949 9.27965 -77.7541
33.0985 24.6755 -74.289
-49.4125 -19.605 -88.404
-10.318 10.687 -88.404
23.8476 20.0091 -78.8768
-27.259 -7.74161 -78.8768
7.48435 -6.67621 46.44
-25.498 -1.52048 -78.8768
39.9767 19.6371 -76.4633
-44.2012 -22.7297 -88.404
44.597 7.67774 -74.289
-44.0077 -23.194 -88.404
-44.0077 -23.194 -79.973
-44.2012 -22.7297 -79.973
10.75 4.6875 -78.8768
-11.7383 -10.6994 77.5185
31.3202 28.1822 -79.973
-12.3806 -9.976 77.5155
-9.4375 -8.3125 72.5964
-33.4613 -17.4705 -78.9568
-4.10622 -31.845 -74.289
47.8611 19.7546 -93.623
-29.1333 -20.2742 54.665
-47.1875 -22.5 -79.973
-35.1903 -23.4473 -79.973
-47.1875 -22.5 -88.404
-49.4125 -19.605 -79.973
-26.1998 -8.05122 54.665
-10.1875 -9.1875 74.3331
-32.3529 -25.7377 -79.973
27.0282 23.4878 -78.4965
31.5625 24.375 -77.9824
33.5765 24.1607 -77.7541
23.6734 19.8185 -78.8768
36.3361 23.5963 -78.8768
-8.125 10.0625 46.44
-10.7681 -11.1465 74.366
-2.90341 -12.3764 61.077
36.3361 23.5963 -77.7541
-29.5415 -15.8052 46.44
46.2569 20.2894 -79.973
-32.7179 -14.9007 46.44
48.0399 25.044 -79.973
-0.629596 -4.42233 61.077
-30.3828 -6.8285 46.44
-49.3518 -19.6214 -78.8768
-47.1875 -22.5 -88.404
-47.1875 -22.5 -79.973
-15.5389 -12.1382 73.4429
-29.6605 -4.33184 -88.404
32.4369 29.4037 -80.484
28.9049 30.3906 -80.795
-19.43 0.8 -74.289
-49.3518 -19.6214 -93.623
-19.43 0.8 61.077
-49.3518 -19.6214 -88.404
21.7588 14.1365 -78.8768
44.597 7.67774 -88.404
-20.3027 -2.94013 61.077
20.5114 16.3601 -79.973
10.75 4.6875 -88.404
-47.1875 -22.5 -93.623
-30.5395 -26.1335 -79.973
20.1744 16.9608 -79.973
-19.43 0.8 46.44
-14.6875 5.125 46.44
21.8799 17.8569 -79.973
21.3596 20.5163 -79.973
-12.0912 -9.81243 76.2421
-13.0148 -10.3344 76.2421
-12.5801 -11.1035 76.2421
-19.3795 -27.7188 46.44
7.48435 -6.67621 -74.289
-11.81 -10.7338 76.2421
-6.59745 -11.7987 67.3189
41.1237 14.2504 -78.2903
-18.1413 -19.0516 61.073
-1.30942 -4.23349 62.2653
-5.81612 -22.5615 61.077
-25.6868 -26.0148 46.44
-9.94854 -5.76944 68.7073
-25.6868 -26.0148 -74.289
-11.3883 -14.1942 72.0326
-2.1502 -23.6054 54.665
-11.4579 -8.83393 74.366
-0.628776 -4.42256 61.077
-1.66154 -8.0339 61.077
-13.397 -10.7516 76.2421
15.5765 7.78067 -77.7541
-23.6932 -17.4707 61.0704
-25.498 -1.52048 -76.4633
-0.0625004 -32.9375 -88.404
-33.4613 -17.4705 -74.289
45.5481 18.399 -79.973
44.6474 15.9973 -79.973
-35.1903 -23.4473 46.44
-45.3125 -22.6442 -88.404
-5.81644 -22.5626 61.077
-3.20008 -27.2766 54.665
10.75 4.6875 46.44
-0.0625004 -32.9375 46.44
49.2028 24.7191 -88.404
49.2028 24.7191 -93.623
-35.3169 -23.4131 -79.973
-12.4043 -10.0582 77.5158
15.5765 7.78067 -75.1063
17.6285 15.3046 -75.9428
41.4068 8.57996 -77.7541
-15.2992 -11.6257 76.2421
-35.1903 -23.4473 -74.289
-15.2992 -11.6257 78.2488
-10.2063 -9.1823 74.366
-13.46 -12.1647 78.2488
-0.0625004 -32.9375 -74.289
-10.7238 -9.03955 75.2689
10.75 4.6875 -74.289
49.2028 24.7191 -79.973
30.537 27.3256 -79.973
-14.6875 5.125 54.665
41.4122 16.962 -78.5784
-12.5247 -10.476 77.5172
-27.259 -7.74161 -76.4633
-35.1903 -23.4473 -78.3838
-47.875 -18.5 -78.8768
33.0985 24.6755 -79.973
-0.0625004 -32.9375 -79.973
-19.0616 2.37876 46.44
1.50243 19.8651 -88.404
7.48435 -6.67621 -79.973
-10.9614 -8.97401 74.366
-49.4125 -19.605 -93.623
22.5 14.6875 -76.4633
-0.0625004 -32.9375 -93.623
5  1168 973 1099 688 1091  231 255 0
5  1170 811 810 923 881  255 139 0
4  1168 1040 975 973  231 255 0
4  1170 1129 812 811  255 139 0
4  1170 881 882 1129  255 139 0
4  1168 1091 1093 1040  231 255 0
4  1064 1040 1093 828  231 255 0
4  1163 1129 882 880  255 139 0
6  1163 782 1151 831 97 96  255 139 0
5  1163 96 95 812 1129  255 139 0
5  1163 880 544 783 782  255 139 0
7  75 66 135 1153 708 1052 575  0 185 255
4  75 18 17 1098  255 0 0
4  75 74 576 18  255 0 0
3  75 575 74  0 185 255
4  1062 1141 1010 1009  231 255 0
5  1062 822 1160 507 735  231 255 0
4  1062 1009 750 822  231 255 0
5  1153 446 1137 1030 1031  0 185 255
5  1147 816 728 727 957  231 255 0
4  1147 1133 793 734  231 255 0
4  1151 782 783 879  255 139 0
4  1151 1138 832 831  255 139 0
4  1153 135 137 446  0 185 255
5  1153 1031 29 28 708  0 185 255
5  1151 879 1058 1027 1138  255 139 0
4  1147 734 508 816  231 255 0
4  1147 957 958 1133  231 255 0
4  1137 446 137 138  0 185 255
4  1138 1027 833 832  255 139 0
5  1137 138 148 890 1030  0 185 255
4  1133 958 792 793  231 255 0
4  118 734 793 120  231 255 0
4  118 1119 545 121  255 139 0
4  120 793 792 133  231 255 0
4  120 1117 1119 118  255 139 0
4  120 133 862 1117  255 139 0
4  1040 1064 994 975  231 255 0
4  1117 1109 889 1119  255 139 0
4  1119 889 543 545  255 139 0
4  1117 862 861 1109  255 139 0
7  889 1058 879 783 544 540 543  255 139 0
5  1109 1006 1027 1058 889  255 139 0
4  1109 861 1005 1006  255 139 0
5  135 1110 1044 138 137  0 255 185
4  138 1044 676 148  0 255 185
4  145 730 733 136  92 0 255
4  1103 85 78 145  0 255 185
4  1103 145 136 146  0 255 185
4  1098 139 66 75  255 0 0
5  1098 17 16 140 139  255 0 0
4  1091 688 689 984  231 255 0
5  1041 756 757 852 851  255 0 0
4  1091 984 986 1093  231 255 0
4  1102 1164 85 77  0 255 46
4  1102 103 89 1090  0 255 46
4  1090 89 104 669  0 255 46
4  1090 696 1164 1102  0 255 46
5  937 131 119 130 129  255 139 0
4  129 130 491 877  231 255 0
6  1087 892 700 699 684 701  231 255 0
4  131 132 1077 867  231 255 0
4  893 1130 655 817  231 255 0
7  1082 1079 958 957 727 1130 893  231 255 0
4  119 874 491 130  231 255 0
4  1082 867 1077 1079  231 255 0
4  1082 893 874 867  231 255 0
4  131 867 874 119  231 255 0
4  139 848 1166 66  0 255 185
4  140 847 848 139  0 255 185
7  140 16 852 757 648 141 81  255 0 0
4  29 1031 1030 1073  0 185 255
4  29 1022 844 28  92 0 255
4  31 146 991 30  92 0 255
4  1073 1030 890 30  0 185 255
4  29 23 733 1022  92 0 255
5  31 30 890 148 147  0 185 255
4  1073 30 23 29  0 185 255
4  131 937 939 1065  255 139 0
4  937 129 104 938  255 139 0
4  103 938 104 89  255 139 0
5  18 19 4 3 591  231 0 255
4  18 591 592 17  231 0 255
4  1062 735 1067 996  231 255 0
5  1064 828 825 1085 994  231 255 0
5  1062 996 1050 1051 1141  231 255 0
4  1027 1006 1005 833  255 139 0
4  103 1102 113 102  0 255 46
6  77 85 1103 1156 885 84  0 255 185
4  829 827 823 1015  231 255 0
5  69 64 65 68 836  255 0 0
5  829 784 659 875 827  231 255 0
4  829 1087 701 784  231 255 0
6  69 836 496 837 756 1041  255 0 0
4  1033 601 37 36  255 0 139
4  36 63 1095 1033  255 0 139
4  16 15 849 852  255 0 0
4  16 0 1 15  231 0 255
5  17 592 2 0 16  231 0 255
4  1156 594 593 885  0 255 185
4  1156 1103 146 594  0 255 185
4  31 147 674 679  0 255 185
4  1139 707 489 535  255 0 139
4  1154 706 1078 1080  255 0 139
4  1154 535 489 706  255 0 139
7  1139 535 1154 1080 721 713 714  255 0 139
5  829 826 853 892 1087  231 255 0
4  1093 986 1011 828  231 255 0
4  84 885 593 114  0 255 185
4  84 114 842 1037  92 255 0
4  952 866 1086 705  92 255 0
4  1135 808 788 789  92 255 0
4  1135 1116 809 808  92 255 0
7  1135 789 754 753 497 759 1116  92 255 0
6  1124 747 746 715 765 799  92 255 0
4  36 37 602 742  0 46 255
5  442 741 650 327 361  0 46 255
12  442 435 433 1048 1013 985 1017 63 36 742 604 741  0 46 255
7  13 19 18 576 73 72 830  255 0 0
7  13 20 493 8 7 6 597  231 0 255
6  1048 433 329 251 234 414  0 46 255
4  63 565 566 1095  255 0 139
5  13 597 5 4 19  231 0 255
6  63 62 564 664 642 565  255 0 139
5  1048 414 980 970 1013  0 46 255
4  63 1017 530 62  0 46 255
4  1044 98 88 676  0 255 185
4  98 1044 1110 97  0 255 185
4  98 1020 1019 88  255 139 0
4  1041 851 70 69  255 0 0
4  99 100 895 677  0 255 185
6  99 1018 1001 1136 1121 100  255 139 0
7  864 956 729 1136 1001 1007 1002  255 139 0
4  1037 842 841 873  92 255 0
7  1032 0 2 523 524 601 1033  255 0 139
4  1032 1059 1 0  255 0 139
9  1033 1095 566 573 569 571 707 1059 1032  255 0 139
4  943 739 481 480  255 0 139
3  5 597 6  231 0 255
4  5 40 913 878  0 46 255
4  948 429 292 431  0 46 255
6  5 6 7 1101 484 40  255 0 139
5  948 1144 859 934 429  0 46 255
4  706 572 1131 1078  255 0 139
4  10 480 481 740  255 0 139
4  10 9 493 598  231 0 255
7  10 740 1105 1101 7 8 9  255 0 139
4  99 88 1019 1018  255 139 0
5  1007 1001 1018 1019 833  255 139 0
4  146 31 679 594  0 255 185
4  146 136 733 991  92 0 255
4  69 813 843 64  92 0 255
6  1017 985 969 1145 901 530  0 46 255
4  878 913 917 945  0 46 255
4  859 945 917 934  0 46 255
4  1013 970 969 985  0 46 255
5  860 1158 558 557 1053  92 255 0
4  1012 799 765 764  92 255 0
7  860 561 562 924 1055 1142 1158  92 255 0
4  1012 764 1056 802  92 255 0
5  872 805 726 803 865  92 255 0
7  860 790 800 936 1106 447 561  92 255 0
4  833 1019 1020 832  255 139 0
4  1007 833 1005 1002  255 139 0
4  864 1002 1005 861  255 139 0
4  85 1164 696 78  0 255 46
4  956 864 863 954  255 139 0
5  956 110 108 109 729  255 139 0
4  952 705 704 1114  92 255 0
4  113 1092 1096 102  92 255 0
4  113 84 1037 1092  92 255 0
5  1037 873 857 856 1092  92 255 0
4  102 112 1065 939  255 139 0
6  102 1096 951 1127 111 112  92 255 0
4  1096 855 902 951  92 255 0
4  1140 1059 707 1139  255 0 139
4  1140 966 1 1059  255 0 139
10  1140 1139 714 710 711 897 898 906 942 966  255 0 139
4  1136 729 109 1121  255 139 0
4  100 101 116 895  0 255 185
4  100 1121 109 101  255 139 0
8  1124 900 899 1116 759 1075 771 747  92 255 0
4  994 1085 1084 975  231 255 0
4  977 1049 1050 996  231 255 0
4  110 956 954 111  255 139 0
3  787 808 809  92 255 0
7  787 705 1086 778 777 1120 776  92 255 0
3  787 704 705  92 255 0
7  1116 899 109 108 704 787 809  92 255 0
4  1114 704 108 110  92 255 0
6  1110 135 66 1166 96 97  0 255 185
5  97 831 832 1020 98  255 139 0
4  951 902 866 952  92 255 0
4  84 113 1102 77  0 255 46
4  30 991 733 23  92 0 255
4  123 871 870 124  255 139 0
4  123 735 507 122  231 255 0
4  124 870 923 125  255 139 0
4  123 1100 1067 735  231 255 0
4  123 124 971 1100  231 255 0
9  429 183 416 362 412 349 417 430 292  0 46 255
7  934 1023 928 619 416 183 429  0 46 255
4  928 1023 1024 915  0 46 255
5  416 619 613 418 181  0 46 255
5  928 1169 884 613 619  0 46 255
4  980 838 751 1145  0 46 255
4  414 839 838 980  0 46 255
4  125 686 1035 972  231 255 0
5  125 923 810 92 93  255 139 0
4  124 125 972 971  231 255 0
9  977 1034 1035 1099 1084 1063 911 670 1049  231 255 0
4  975 1084 1099 973  231 255 0
4  972 1035 1034 971  231 255 0
5  677 895 886 894 675  0 255 185
5  942 906 739 943 854  255 0 139
4  2 592 591 3  231 0 255
4  942 12 1 966  255 0 139
3  872 865 858  92 255 0
5  888 720 717 90 107  0 255 46
4  123 122 542 871  255 139 0
4  118 121 508 734  231 255 0
4  679 674 673 678  0 255 185
4  133 132 738 1060  255 139 0
4  958 1079 1077 792  231 255 0
4  133 792 1077 132  231 255 0
5  954 863 1060 738 111  255 139 0
4  952 1114 1127 951  92 255 0
4  3 39 523 2  255 0 139
3  439 367 651  0 46 255
4  3 743 456 39  0 46 255
5  948 431 434 1143 1144  0 46 255
6  439 651 736 737 1143 434  0 46 255
4  3 4 840 743  0 46 255
4  5 878 840 4  0 46 255
4  878 945 1126 840  0 46 255
4  945 859 737 1126  0 46 255
4  859 1144 1143 737  0 46 255
5  943 480 10 11 854  255 0 139
4  942 854 11 12  255 0 139
5  939 937 938 103 102  255 139 0
4  917 1024 1023 934  0 46 255
5  931 622 645 1076 460  0 46 255
5  421 381 974 622 931  0 46 255
4  421 931 623 383  0 46 255
4  915 1024 1094 907  0 46 255
4  928 915 1003 1169  0 46 255
4  126 927 925 117  231 255 0
4  126 719 720 888  0 255 46
4  117 745 719 126  0 255 46
4  117 925 687 93  231 255 0
7  117 93 92 846 920 744 745  0 255 46
6  125 93 687 685 683 686  231 255 0
4  126 91 926 927  231 255 0
4  868 692 744 920  0 255 46
5  868 134 142 869 637  0 255 46
4  920 141 134 868  0 255 46
5  870 835 882 881 923  255 139 0
5  920 846 82 81 141  0 255 46
3  868 693 692  0 255 46
4  913 1094 1024 917  0 46 255
5  907 1094 41 35 612  0 46 255
4  915 907 992 1003  0 46 255
8  740 908 1004 909 449 43 1104 1105  255 0 139
4  40 41 1094 913  0 46 255
5  40 484 1097 950 41  255 0 139
5  908 740 481 1155 891  255 0 139
4  908 891 630 1004  255 0 139
5  35 41 950 949 42  255 0 139
4  907 612 990 992  0 46 255
4  35 42 990 612  0 46 255
5  906 898 1089 667 739  255 0 139
5  739 667 1054 1155 481  255 0 139
4  855 1096 1092 856  92 255 0
10  866 902 855 858 865 807 960 955 963 961  92 255 0
4  901 748 60 61  0 46 255
4  1145 969 970 980  0 46 255
4  1145 751 748 901  0 46 255
9  722 51 1054 667 896 712 709 713 721  255 0 139
4  722 1078 1131 663  255 0 139
10  61 60 59 58 57 56 749 716 664 564  255 0 139
4  61 62 530 901  0 46 255
8  722 663 716 749 483 53 52 51  255 0 139
3  61 564 62  255 0 139
4  895 116 673 886  0 255 185
3  1123 1081 532  92 255 0
3  1124 532 900  92 255 0
4  884 1169 1003 883  0 46 255
5  418 613 614 579 419  0 46 255
3  884 614 613  0 46 255
4  677 676 88 99  0 255 185
5  869 142 67 80 694  0 255 46
4  871 834 835 870  255 139 0
4  871 542 541 834  255 139 0
4  696 1090 698 697  0 255 46
4  900 101 109 899  92 255 0
4  1114 110 111 1127  92 255 0
6  1123 531 1115 841 842 1081  92 255 0
6  1124 799 1012 1115 531 532  92 255 0
3  1123 532 531  92 255 0
8  1115 1012 802 525 1118 503 805 841  92 255 0
4  873 841 805 872  92 255 0
4  22 14 786 850  255 0 0
4  22 596 21 14  231 0 255
4  12 11 595 599  231 0 255
4  10 598 595 11  231 0 255
4  22 599 595 596  231 0 255
4  996 1067 1034 977  231 255 0
4  971 1034 1067 1100  231 255 0
4  898 897 1088 1089  255 0 139
4  667 1089 1088 896  255 0 139
5  897 711 712 896 1088  255 0 139
4  116 115 678 673  0 255 185
5  1081 842 114 115 116  92 255 0
5  1081 116 101 900 532  92 255 0
4  1076 645 629 1072  0 46 255
4  1072 629 607 611  0 46 255
5  1076 1072 631 646 459  0 46 255
6  51 33 1162 891 1155 1054  255 0 139
4  716 663 1131 1132  255 0 139
4  51 611 607 33  0 46 255
5  1072 611 1008 609 631  0 46 255
4  51 52 1008 611  0 46 255
5  851 666 533 71 70  255 0 0
4  112 111 738 1065  255 139 0
4  1065 738 132 131  255 139 0
4  863 862 133 1060  255 139 0
5  880 834 541 540 544  255 139 0
4  882 835 834 880  255 139 0
5  675 894 674 147 148  0 255 185
4  894 886 673 674  0 255 185
4  129 877 1128 128  231 255 0
4  107 127 1045 876  231 255 0
4  827 519 520 826  231 255 0
5  827 821 512 513 519  231 255 0
4  893 817 1159 874  231 255 0
4  827 875 1043 821  231 255 0
3  826 520 853  231 255 0
5  892 853 520 845 700  231 255 0
6  702 965 657 656 587 824  231 255 0
4  702 986 984 689  231 255 0
4  824 1011 986 702  231 255 0
7  1165 666 851 852 849 850 786  255 0 0
4  1165 786 661 534  255 0 0
5  830 72 71 533 534  255 0 0
4  830 662 20 13  255 0 0
4  1165 534 533 666  255 0 0
4  830 534 661 662  255 0 0
7  860 479 798 780 499 501 791  92 255 0
5  931 460 459 646 623  0 46 255
3  1076 459 460  0 46 255
4  434 431 292 291  0 46 255
4  887 992 990 608  0 46 255
4  43 42 949 1104  255 0 139
5  43 449 448 45 44  255 0 139
4  891 1162 49 630  255 0 139
4  43 608 990 42  0 46 255
5  887 608 528 1042 1071  0 46 255
4  43 44 528 608  0 46 255
4  836 723 495 496  255 0 0
5  836 68 67 142 723  255 0 0
4  730 145 144 731  92 0 255
4  145 78 86 144  0 255 185
4  67 68 680 143  92 0 255
4  67 143 87 80  0 255 185
5  26 74 575 1052 27  0 185 255
4  888 107 91 126  0 255 46
4  883 1003 992 887  0 46 255
5  883 887 1071 989 639  0 46 255
5  1 12 599 22 15  231 0 255
5  884 883 639 579 614  0 46 255
4  27 28 844 843  92 0 255
4  143 144 86 87  0 255 185
4  143 680 731 144  92 0 255
6  840 1126 737 736 605 743  0 46 255
4  593 678 115 114  0 255 185
4  877 491 660 1128  231 255 0
4  876 1045 658 659  231 255 0
4  875 659 658 1043  231 255 0
4  874 1159 660 491  231 255 0
4  873 872 858 857  92 255 0
4  28 27 1052 708  0 185 255
5  869 694 693 868 637  0 255 46
6  790 600 539 538 510 806  92 255 0
4  866 961 962 1086  92 255 0
4  790 806 801 800  92 255 0
4  865 803 804 807  92 255 0
4  864 861 862 863  255 139 0
3  860 791 790  92 255 0
4  858 855 856 857  92 255 0
5  134 649 495 723 142  255 0 0
4  141 648 649 134  255 0 0
4  140 81 82 847  0 255 185
4  22 850 849 15  255 0 0
4  846 92 79 82  0 255 46
4  847 94 95 848  0 255 185
4  848 95 96 1166  0 255 185
4  847 82 79 94  0 255 185
5  845 520 519 1021 944  231 255 0
4  845 656 657 700  231 255 0
4  700 657 665 699  231 255 0
3  703 927 926  231 255 0
4  703 701 684 690  231 255 0
4  703 926 785 701  231 255 0
4  107 876 926 91  231 255 0
4  844 732 681 843  92 0 255
4  594 679 678 593  0 255 185
4  805 503 502 726  92 255 0
4  743 605 455 456  0 46 255
6  839 409 388 617 626 838  0 46 255
6  839 414 234 235 368 409  0 46 255
5  838 626 625 467 1036  0 46 255
5  837 649 648 757 756  255 0 0
4  837 496 495 649  255 0 0
4  828 1083 818 825  231 255 0
4  829 1015 819 826  231 255 0
5  824 587 517 590 820  231 255 0
5  828 1011 824 820 1083  231 255 0
4  827 826 819 823  231 255 0
7  825 582 586 1010 672 1061 1085  231 255 0
4  825 818 583 582  231 255 0
4  820 814 983 1083  231 255 0
5  821 817 655 589 512  231 255 0
4  818 815 652 583  231 255 0
5  822 750 728 816 1160  231 255 0
4  820 590 654 814  231 255 0
4  815 818 1083 983  231 255 0
4  817 821 1043 1159  231 255 0
5  815 814 654 653 652  231 255 0
6  70 71 72 981 813 69  92 0 255
4  73 576 74 26  255 0 0
4  26 27 982 73  92 0 255
4  72 73 982 981  92 0 255
5  92 810 811 94 79  255 139 0
4  94 811 812 95  255 139 0
4  808 787 776 788  92 255 0
5  806 510 1125 509 801  92 255 0
5  807 804 959 953 960  92 255 0
4  803 772 774 804  92 255 0
6  804 774 509 1125 964 959  92 255 0
5  803 726 502 724 772  92 255 0
5  801 509 774 775 1107  92 255 0
4  802 1056 452 525  92 255 0
5  801 1107 935 936 800  92 255 0
3  798 479 478  92 255 0
4  797 781 780 798  92 255 0
5  797 1108 795 779 781  92 255 0
5  798 478 1111 1108 797  92 255 0
5  779 763 758 1120 777  92 255 0
4  794 755 760 761  92 255 0
4  795 1108 1107 775  92 255 0
4  796 506 505 1074  92 255 0
4  779 761 760 763  92 255 0
7  794 762 505 498 497 753 755  92 255 0
3  796 1074 1026  92 255 0
6  795 1026 1074 762 761 779  92 255 0
3  794 761 762  92 255 0
6  791 537 536 539 600 790  92 255 0
4  791 501 1150 537  92 255 0
4  788 758 754 789  92 255 0
4  788 776 1120 758  92 255 0
4  21 661 786 14  255 0 0
4  720 691 563 1016  0 255 46
4  1090 669 668 698  0 255 46
4  720 1016 718 717  0 255 46
4  129 128 105 104  255 139 0
4  107 90 106 127  255 139 0
4  1014 698 668 718  0 255 46
4  127 128 1128 1045  231 255 0
4  127 106 105 128  255 139 0
4  876 659 785 926  231 255 0
4  659 784 701 785  231 255 0
3  1106 936 935  92 255 0
5  561 550 1149 1152 562  92 255 0
3  1111 478 477  92 255 0
7  1111 561 447 1106 935 1107 1108  92 255 0
5  1099 1035 686 682 688  231 255 0
9  688 682 683 685 684 699 665 967 689  231 255 0
4  1022 733 732 844  92 0 255
4  698 1014 695 697  0 255 46
4  1085 1061 1063 1084  231 255 0
5  1075 759 497 498 1112  92 255 0
3  1074 505 762  92 255 0
4  1075 1112 746 771  92 255 0
5  1010 1141 1051 912 672  231 255 0
5  1010 586 585 588 1009  231 255 0
4  1061 910 911 1063  231 255 0
4  1061 672 912 910  231 255 0
4  707 571 490 489  255 0 139
6  510 778 1086 962 964 1125  92 255 0
5  781 779 777 778 510  92 255 0
5  510 500 499 780 781  92 255 0
5  773 526 527 770 1025  92 255 0
6  773 1167 1122 451 452 526  92 255 0
5  773 725 724 1122 1167  92 255 0
5  772 724 725 775 774  92 255 0
5  860 1053 476 475 479  92 255 0
6  1158 1142 1055 922 559 558  92 255 0
5  1055 993 999 921 922  92 255 0
4  1055 924 919 993  92 255 0
4  1053 560 473 476  92 255 0
5  1053 557 554 555 560  92 255 0
5  560 487 485 550 561  92 255 0
6  1111 477 474 473 560 561  92 255 0
5  1025 770 1066 506 796  92 255 0
5  552 487 555 548 1029  92 255 0
3  552 485 487  92 255 0
4  1045 1128 660 658  231 255 0
4  1043 658 660 1159  231 255 0
5  751 636 521 634 748  0 46 255
5  751 1038 466 635 636  0 46 255
4  838 1036 1038 751  0 46 255
5  770 527 764 767 769  92 255 0
3  768 506 1066  92 255 0
3  769 767 766  92 255 0
3  771 746 747  92 255 0
5  768 715 498 505 506  92 255 0
6  770 769 766 715 768 1066  92 255 0
4  764 527 526 1056  92 255 0
4  715 746 1112 498  92 255 0
5  767 764 765 715 766  92 255 0
5  763 760 755 754 758  92 255 0
3  754 755 752  92 255 0
4  668 105 106 718  0 255 46
4  732 731 680 681  92 0 255
7  1026 795 775 725 773 1025 796  92 255 0
5  1016 563 695 1014 718  0 255 46
4  843 681 65 64  92 0 255
5  1009 588 1057 589 750  231 255 0
4  750 589 655 728  231 255 0
3  755 753 752  92 255 0
3  754 752 753  92 255 0
4  748 634 34 60  0 46 255
4  728 655 1130 727  231 255 0
3  60 34 59  255 0 139
5  749 56 55 54 483  255 0 139
4  745 744 692 719  0 255 46
5  719 692 638 691 720  0 255 46
4  742 602 603 604  0 46 255
4  741 604 603 650  0 46 255
5  736 651 367 445 464  0 46 255
5  736 464 462 455 605  0 46 255
4  733 730 731 732  92 0 255
6  724 502 503 1118 451 1122  92 255 0
4  721 1080 1078 722  255 0 139
4  718 106 90 717  0 255 46
4  567 572 490 568  255 0 139
4  567 574 504 1132  255 0 139
5  716 1132 504 642 664  255 0 139
4  567 1132 1131 572  255 0 139
4  713 709 710 714  255 0 139
4  711 710 709 712  255 0 139
4  706 489 490 572  255 0 139
4  690 925 927 703  231 255 0
4  690 684 685 687  231 255 0
4  689 967 965 702  231 255 0
4  86 697 695 87  0 255 46
4  78 696 697 86  0 255 46
4  87 695 694 80  0 255 46
5  694 691 638 692 693  0 255 46
3  690 687 925  231 255 0
3  686 683 682  231 255 0
4  681 680 68 65  92 0 255
4  677 675 148 676  0 255 185
3  671 910 912  231 255 0
4  670 911 910 671  231 255 0
4  670 1134 1047 1049  231 255 0
4  671 912 1134 670  231 255 0
4  669 104 105 668  0 255 46
4  657 965 967 665  231 255 0
5  565 574 570 573 566  255 0 139
4  565 642 504 574  255 0 139
4  20 662 661 21  255 0 0
6  562 1152 551 486 556 997  92 255 0
4  562 995 919 924  92 255 0
3  562 997 995  92 255 0
4  656 845 516 933  231 255 0
4  590 930 929 1161  231 255 0
6  590 1161 968 584 653 654  231 255 0
4  653 584 583 652  231 255 0
5  650 465 444 352 327  0 46 255
4  635 466 467 625  0 46 255
6  635 641 647 1157 1113 522  0 46 255
4  625 640 641 635  0 46 255
4  624 640 580 615  0 46 255
4  647 641 640 624  0 46 255
4  624 453 454 647  0 46 255
5  646 472 1046 616 623  0 46 255
6  622 621 644 941 1070 645  0 46 255
4  643 987 988 1068  0 46 255
4  620 577 987 643  0 46 255
4  620 643 644 621  0 46 255
4  574 567 568 570  255 0 139
4  640 625 618 580  0 46 255
4  639 987 577 579  0 46 255
4  579 577 420 419  0 46 255
4  633 529 58 59  0 46 255
4  633 522 1113 529  0 46 255
4  636 635 522 521  0 46 255
4  634 521 522 633  0 46 255
4  634 633 59 34  0 46 255
3  53 483 54  255 0 139
3  56 57 482  0 46 255
5  632 529 469 468 610  0 46 255
4  53 609 1008 52  0 46 255
5  632 482 57 58 529  0 46 255
4  632 610 979 482  0 46 255
5  56 482 979 1000 55  0 46 255
4  53 54 492 609  0 46 255
4  631 609 492 471  0 46 255
5  630 47 903 909 1004  255 0 139
4  630 49 48 47  255 0 139
4  33 50 49 1162  255 0 139
5  629 627 606 461 607  0 46 255
4  33 607 461 50  0 46 255
5  628 905 904 46 47  0 46 255
5  47 46 45 448 903  255 0 139
4  49 50 461 606  0 46 255
5  628 47 48 606 627  0 46 255
3  49 606 48  0 46 255
4  387 271 580 618  0 46 255
4  388 387 618 617  0 46 255
4  626 617 618 625  0 46 255
4  385 615 580 271  0 46 255
4  385 384 488 615  0 46 255
4  624 615 488 453  0 46 255
5  623 616 578 243 383  0 46 255
4  381 1039 976 974  0 46 255
3  381 421 382  0 46 255
3  381 379 1039  0 46 255
4  622 974 978 621  0 46 255
4  377 420 577 620  0 46 255
3  379 199 202  0 46 255
6  377 620 621 978 379 202  0 46 255
3  616 1046 578  0 46 255
5  610 471 492 1000 979  0 46 255
3  46 904 45  0 46 255
5  603 457 463 465 650  0 46 255
4  602 458 457 603  0 46 255
4  601 524 38 37  255 0 139
4  37 38 458 602  0 46 255
3  8 493 9  231 0 255
4  598 493 494 595  231 0 255
4  596 595 494 21  231 0 255
4  587 656 450 946  231 255 0
4  588 1021 513 1057  231 255 0
4  590 517 933 930  231 255 0
5  588 585 581 944 1021  231 255 0
4  589 1057 513 512  231 255 0
4  584 968 916 518  231 255 0
4  587 946 947 517  231 255 0
4  586 582 581 585  231 255 0
4  581 914 450 944  231 255 0
4  581 518 916 914  231 255 0
5  584 518 581 582 583  231 255 0
4  578 488 384 243  0 46 255
4  573 570 568 569  255 0 139
4  571 569 568 490  255 0 139
3  560 555 487  92 255 0
3  559 922 921  92 255 0
6  559 998 553 554 557 558  92 255 0
4  556 547 546 553  92 255 0
4  553 546 549 554  92 255 0
4  553 998 997 556  92 255 0
4  554 549 548 555  92 255 0
3  551 1152 1149  92 255 0
5  552 1029 1028 486 485  92 255 0
5  551 1149 550 485 486  92 255 0
4  547 556 486 1028  92 255 0
4  549 546 547 548  92 255 0
4  545 542 122 121  255 139 0
4  121 122 507 508  231 255 0
4  543 541 542 545  255 139 0
3  543 540 541  255 139 0
5  539 536 1148 1146 538  92 255 0
4  538 1146 500 510  92 255 0
4  537 1150 1148 536  92 255 0
4  44 45 904 528  0 46 255
4  528 904 905 1042  0 46 255
4  508 507 1160 816  231 255 0
3  526 452 1056  92 255 0
4  525 452 451 1118  92 255 0
5  1150 501 500 1146 1148  92 255 0
4  524 523 39 38  255 0 139
4  38 39 456 458  0 46 255
4  987 639 989 988  0 46 255
4  1046 453 488 578  0 46 255
4  472 454 453 1046  0 46 255
4  472 646 631 471  0 46 255
6  647 454 472 471 610 1157  0 46 255
6  645 1070 940 1069 627 629  0 46 255
7  628 1068 988 989 1071 1042 905  0 46 255
4  644 1069 940 941  0 46 255
4  643 1068 1069 644  0 46 255
4  627 1069 1068 628  0 46 255
5  1157 610 468 470 1113  0 46 255
4  695 563 691 694  0 255 46
3  1070 941 940  0 46 255
3  519 513 1021  231 255 0
4  517 947 932 933  231 255 0
4  515 930 933 516  231 255 0
4  515 514 929 930  231 255 0
4  516 511 514 515  231 255 0
4  912 1051 1047 1134  231 255 0
4  1051 1050 1049 1047  231 255 0
4  379 978 976 1039  0 46 255
4  1036 467 466 1038  0 46 255
3  501 499 500  92 255 0
4  494 493 20 21  231 0 255
4  54 55 1000 492  0 46 255
4  458 456 455 457  0 46 255
4  548 547 1028 1029  92 255 0
4  511 516 845 944  231 255 0
3  1015 823 819  231 255 0
4  947 916 968 1161  231 255 0
4  1161 929 932 947  231 255 0
4  514 511 932 929  231 255 0
5  484 1101 1105 1104 1097  255 0 139
4  559 921 918 998  92 255 0
3  999 918 921  92 255 0
4  999 993 919 918  92 255 0
5  998 918 919 995 997  92 255 0
4  964 962 961 963  92 255 0
4  1113 470 469 529  0 46 255
4  1097 1104 949 950  255 0 139
3  815 983 814  231 255 0
5  982 27 843 813 981  92 0 255
4  465 464 445 444  0 46 255
4  464 465 463 462  0 46 255
5  479 475 474 477 478  92 255 0
4  476 473 474 475  92 255 0
3  470 468 469  0 46 255
4  457 455 462 463  0 46 255
3  978 974 976  0 46 255
4  916 947 946 914  231 255 0
5  963 955 953 959 964  92 255 0
3  960 953 955  92 255 0
3  946 450 914  231 255 0
4  932 511 944 450  231 255 0
4  909 903 448 449  255 0 139
4  933 932 450 656  231 255 0
6  367 439 357 320 286 285  0 46 255
7  445 367 285 351 279 352 444  0 46 255
5  327 352 279 280 328  0 46 255
7  442 361 328 280 360 437 443  0 46 255
3  443 437 438  0 46 255
5  443 438 426 435 442  0 46 255
4  388 409 394 389  0 46 255
3  441 406 405  0 46 255
4  441 335 336 406  0 46 255
7  441 405 209 208 275 428 335  0 46 255
4  178 177 346 398  0 46 255
5  440 212 287 321 436  0 46 255
6  440 424 326 210 211 212  0 46 255
5  440 436 359 425 424  0 46 255
5  439 434 425 359 357  0 46 255
3  172 171 177  0 46 255
3  438 427 426  0 46 255
7  437 366 375 215 374 427 438  0 46 255
3  436 357 359  0 46 255
4  436 321 320 357  0 46 255
4  437 360 364 366  0 46 255
4  435 432 329 433  0 46 255
6  426 423 355 415 432 435  0 46 255
4  434 291 293 425  0 46 255
4  165 174 319 166  0 46 255
4  407 341 340 160  0 46 255
4  162 339 338 343  0 46 255
5  160 340 299 298 161  0 46 255
10  160 178 395 301 391 193 317 392 370 371  0 46 255
5  407 182 297 296 341  0 46 255
4  162 161 298 339  0 46 255
4  162 343 277 150  0 46 255
4  407 416 181 182  0 46 255
4  432 413 251 329  0 46 255
4  423 306 353 355  0 46 255
3  432 415 413  0 46 255
3  430 291 292  0 46 255
3  430 417 290  0 46 255
4  422 218 216 356  0 46 255
5  430 290 289 293 291  0 46 255
4  422 356 197 196  0 46 255
6  170 158 263 262 258 266  0 46 255
4  170 266 334 171  0 46 255
3  428 275 274  0 46 255
7  428 274 207 233 194 336 335  0 46 255
4  427 374 423 426  0 46 255
3  422 196 198  0 46 255
5  425 293 289 326 424  0 46 255
4  374 305 306 423  0 46 255
5  178 398 393 302 395  0 46 255
5  214 186 305 374 215  0 46 255
4  214 213 198 401  0 46 255
5  422 198 213 210 218  0 46 255
5  214 401 402 187 186  0 46 255
5  421 383 265 260 382  0 46 255
4  342 182 181 418  0 46 255
7  342 418 419 420 377 378 278  0 46 255
4  417 247 217 290  0 46 255
6  290 217 216 322 358 289  0 46 255
6  417 349 254 248 245 247  0 46 255
4  407 363 362 416  0 46 255
6  415 355 353 250 249 413  0 46 255
3  413 249 251  0 46 255
4  412 362 257 253  0 46 255
5  411 369 250 353 354  0 46 255
5  411 247 245 246 410  0 46 255
4  402 196 197 354  0 46 255
4  399 288 310 363  0 46 255
5  412 253 222 254 349  0 46 255
7  411 410 372 314 311 313 369  0 46 255
6  411 354 197 356 217 247  0 46 255
5  402 354 353 306 187  0 46 255
6  394 406 336 194 195 389  0 46 255
4  410 246 276 372  0 46 255
4  409 368 303 394  0 46 255
3  150 319 174  0 46 255
5  166 397 206 386 167  0 46 255
4  343 342 278 277  0 46 255
6  150 277 278 378 184 319  0 46 255
5  166 319 184 185 397  0 46 255
4  406 394 393 405  0 46 255
4  403 244 242 330  0 46 255
4  271 387 348 270  0 46 255
4  385 271 270 330  0 46 255
4  408 267 268 400  0 46 255
4  408 371 370 267  0 46 255
5  408 400 399 363 371  0 46 255
4  160 371 363 407  0 46 255
6  404 252 238 237 244 403  0 46 255
5  405 393 398 346 209  0 46 255
3  404 225 252  0 46 255
5  404 403 330 226 225  0 46 255
6  171 334 226 294 346 177  0 46 255
4  401 198 196 402  0 46 255
4  400 268 288 399  0 46 255
4  390 300 312 314  0 46 255
4  350 255 256 325  0 46 255
4  350 246 245 248  0 46 255
4  325 256 219 308  0 46 255
4  325 230 229 315  0 46 255
4  314 372 316 390  0 46 255
4  314 312 241 311  0 46 255
4  350 373 276 246  0 46 255
4  325 315 373 350  0 46 255
4  348 233 207 273  0 46 255
4  348 195 194 233  0 46 255
5  266 239 252 225 334  0 46 255
5  334 225 224 347 333  0 46 255
4  265 237 236 259  0 46 255
4  330 270 269 332  0 46 255
4  265 242 244 237  0 46 255
3  168 167 386  0 46 255
4  396 378 201 200  0 46 255
3  264 157 156  0 46 255
4  260 265 259 261  0 46 255
6  168 386 206 205 344 155  0 46 255
4  396 185 184 378  0 46 255
6  397 185 396 200 203 206  0 46 255
4  264 156 376 260  0 46 255
5  395 304 281 284 301  0 46 255
3  395 302 304  0 46 255
4  390 316 318 391  0 46 255
4  394 303 302 393  0 46 255
4  392 232 231 324  0 46 255
4  324 231 230 325  0 46 255
5  324 180 309 370 392  0 46 255
4  391 301 300 390  0 46 255
4  391 318 192 193  0 46 255
4  392 317 228 232  0 46 255
5  389 195 348 387 388  0 46 255
5  380 376 345 204 203  0 46 255
5  330 242 243 384 385  0 46 255
4  383 243 242 265  0 46 255
5  380 203 200 199 379  0 46 255
6  260 376 380 379 381 382  0 46 255
4  378 377 202 201  0 46 255
5  155 344 345 376 156  0 46 255
6  375 212 211 213 214 215  0 46 255
3  375 366 364  0 46 255
3  360 365 364  0 46 255
5  375 364 365 287 212  0 46 255
3  315 190 191  0 46 255
4  316 372 276 191  0 46 255
4  315 191 276 373  0 46 255
4  309 268 267 370  0 46 255
3  309 180 179  0 46 255
4  310 288 220 219  0 46 255
4  310 256 255 257  0 46 255
3  369 249 250  0 46 255
4  303 300 283 282  0 46 255
4  368 312 300 303  0 46 255
6  369 313 235 234 251 249  0 46 255
4  368 235 241 312  0 46 255
5  365 360 280 279 351  0 46 255
4  365 351 286 287  0 46 255
3  257 255 223  0 46 255
4  363 310 257 362  0 46 255
3  361 327 328  0 46 255
6  358 323 218 210 326 289  0 46 255
3  351 285 286  0 46 255
3  356 216 217  0 46 255
3  358 322 323  0 46 255
4  350 248 223 255  0 46 255
3  347 331 333  0 46 255
4  346 272 208 209  0 46 255
4  348 273 269 270  0 46 255
4  347 224 227 331  0 46 255
4  346 294 189 272  0 46 255
4  344 205 204 345  0 46 255
4  342 337 297 182  0 46 255
4  343 338 337 342  0 46 255
4  341 296 299 340  0 46 255
5  339 298 297 337 338  0 46 255
5  332 269 273 189 295  0 46 255
5  334 333 331 227 226  0 46 255
4  332 295 226 330  0 46 255
4  286 320 321 287  0 46 255
4  324 307 179 180  0 46 255
4  325 308 307 324  0 46 255
4  322 216 218 323  0 46 255
4  317 193 190 315  0 46 255
4  318 316 191 192  0 46 255
4  317 315 229 228  0 46 255
4  313 311 241 235  0 46 255
3  310 219 256  0 46 255
4  309 179 221 268  0 46 255
4  308 219 179 307  0 46 255
4  305 186 187 306  0 46 255
5  304 302 303 282 281  0 46 255
4  301 284 283 300  0 46 255
4  299 296 297 298  0 46 255
4  295 189 294 226  0 46 255
4  268 221 220 288  0 46 255
4  284 281 282 283  0 46 255
3  210 213 211  0 46 255
5  275 208 188 207 274  0 46 255
4  273 207 188 189  0 46 255
4  272 189 188 208  0 46 255
4  266 258 240 239  0 46 255
4  263 158 157 264  0 46 255
4  261 259 258 262  0 46 255
5  264 260 261 262 263  0 46 255
4  259 236 240 258  0 46 255
4  248 254 222 223  0 46 255
4  257 223 222 253  0 46 255
3  252 239 238  0 46 255
5  240 236 237 238 239  0 46 255
5  232 228 229 230 231  0 46 255
4  227 224 225 226  0 46 255
4  221 179 219 220  0 46 255
4  206 203 204 205  0 46 255
4  202 199 200 201  0 46 255
4  193 192 191 190  0 46 255
5  178 160 163 175 176  0 46 255
7  176 175 153 152 164 169 173  0 46 255
5  178 176 173 172 177  0 46 255
4  175 163 154 153  0 46 255
4  174 165 149 150  0 46 255
6  162 150 149 164 152 151  0 46 255
7  173 169 159 158 170 171 172  0 46 255
9  169 164 149 165 166 167 168 155 159  0 46 255
6  163 160 161 162 151 154  0 46 255
5  159 155 156 157 158  0 46 255
4  154 151 152 153  0 46 255
7  148 138 137 135 32 31 147  0 185 255
7  138 148 147 31 32 135 137  0 255 185
4  146 31 32 136  92 0 255
4  31 146 136 32  0 255 185
5  145 136 67 143 144  92 0 255
5  136 145 144 143 67  0 255 185
3  142 67 134  255 0 0
3  67 142 134  0 255 46
4  141 134 67 81  255 0 0
4  134 141 81 67  0 255 46
6  140 81 67 24 66 139  255 0 0
6  140 139 66 24 67 81  0 255 185
4  135 66 24 32  0 185 255
4  66 135 32 24  0 255 185
4  67 136 32 24  92 0 255
4  136 67 24 32  0 255 185
6  133 120 118 119 131 132  255 139 0
6  120 133 132 131 119 118  231 255 0
7  130 119 91 107 127 128 129  255 139 0
7  119 130 129 128 127 107 91  231 255 0
3  126 91 117  0 255 46
3  91 126 117  231 255 0
3  93 117 91  0 255 46
3  117 93 91  231 255 0
9  125 93 91 119 118 121 122 123 124  255 139 0
9  93 125 124 123 122 121 118 119 91  231 255 0
8  101 109 108 110 111 112 102 76  255 139 0
8  109 101 76 102 112 111 110 108  92 255 0
6  116 101 76 84 114 115  0 255 185
6  101 116 115 114 84 76  92 255 0
4  113 84 76 102  0 255 46
4  84 113 102 76  92 255 0
7  91 93 92 79 83 89 90  255 139 0
7  93 91 90 89 83 79 92  0 255 46
3  107 91 90  255 139 0
3  91 107 90  0 255 46
5  106 90 89 104 105  255 139 0
5  90 106 105 104 89  0 255 46
5  103 89 83 76 102  255 139 0
5  89 103 102 76 83  0 255 46
6  101 76 83 88 99 100  255 139 0
6  101 100 99 88 83 76  0 255 185
8  98 88 83 79 94 95 96 97  255 139 0
8  88 98 97 96 95 94 79 83  0 255 185
5  80 67 81 82 79  0 255 46
5  67 80 79 82 81  0 255 185
8  87 80 79 83 76 77 78 86  0 255 46
8  80 87 86 78 77 76 83 79  0 255 185
3  85 78 77  0 255 46
3  78 85 77  0 255 185
3  84 77 76  0 255 46
3  77 84 76  0 255 185
5  75 66 25 26 74  255 0 0
5  66 75 74 26 25  0 185 255
7  73 26 64 69 70 71 72  255 0 0
7  26 73 72 71 70 69 64  92 0 255
4  65 64 26 25  255 0 0
4  64 65 25 26  92 0 255
5  68 65 25 24 67  255 0 0
5  65 68 67 24 25  92 0 255
3  66 24 25  255 0 0
3  66 25 24  0 185 255
6  63 36 34 60 61 62  255 0 139
6  36 63 62 61 60 34  0 46 255
11  59 34 33 51 52 53 54 55 56 57 58  255 0 139
11  34 59 58 57 56 55 54 53 52 51 33  0 46 255
13  50 33 34 36 35 42 43 44 45 46 47 48 49  255 0 139
13  33 50 49 48 47 46 45 44 43 42 35 36 34  0 46 255
10  41 35 36 37 38 39 3 4 5 40  255 0 139
10  35 41 40 5 4 3 39 38 37 36  0 46 255
5  32 24 23 30 31  0 185 255
5  24 32 31 30 23  92 0 255
7  29 23 24 25 26 27 28  0 185 255
7  23 29 28 27 26 25 24  92 0 255
3  22 15 14  255 0 0
3  15 22 14  231 0 255
4  21 14 13 20  255 0 0
4  14 21 20 13  231 0 255
7  19 13 14 15 16 17 18  255 0 0
7  13 19 18 17 16 15 14  231 0 255
13  12 1 0 2 3 4 5 6 7 8 9 10 11  231 0 255
13  1 12 11 10 9 8 7 6 5 4 3 2 0  255 0 139

