OFF
1162 967 0

-16.7786 5.67051 -88.404
-14.6875 5.125 -79.973
9.09296 -1.0786 -74.289
-10.86 4.12652 -74.289
9.09296 -1.0786 -72.3539
9.09296 -1.0786 46.44
9.09296 -1.0786 -79.973
9.09296 -1.0786 -88.404
9.09296 -1.0786 -93.623
-16.7786 5.67051 -93.623
-16.7786 5.67051 -79.973
-14.6875 5.125 -78.8768
-14.6875 5.125 -76.4633
-14.6875 5.125 -74.289
-10.86 4.12652 46.44
-9.85474 3.86428 46.44
0.933887 1.04986 46.44
4.98064 -0.00581908 46.44
26.8316 23.2729 -72.2569
25.6595 21.9909 -72.3539
22.8237 16.9071 -72.2225
29.2634 15.5726 -70.1424
28.5518 14.4755 -70.1424
22.4064 14.046 -71.8129
33.8982 24.3348 -72.3539
34.5 24.0625 -72.3539
37.125 22.875 -72.3539
37.1269 22.8741 -72.3539
35.5804 23.5738 -72.0304
22.3935 13.957 -72.3539
22.5 14.6875 -72.3539
22.9575 17.8249 -72.3539
22.3935 13.957 -71.8001
30.5078 17.4913 -70.1424
26.663 23.5381 -72.3539
27.1201 23.5884 -72.3539
28.0853 23.6947 -72.3539
32.9363 24.2288 -72.3539
33.3432 17.8035 -70.1424
37.1286 22.8717 -72.3539
41.384 16.6968 -72.3539
41.9019 15.9453 -72.3539
34.6849 15.8566 -70.1424
26.5726 23.3987 -72.3539
27.3131 12.5657 -70.1424
32.7295 11.0339 -70.1424
41.0914 13.9464 -72.3539
39.1718 9.21203 -72.3539
25.2596 7.89596 -72.6839
26.6875 7.25 -72.4891
22.5 14.6875 -74.289
22.5 14.6875 -73.4414
21.7588 14.1365 -74.289
27.0282 23.4878 -73.4355
28.1693 24.736 -73.5374
33.3042 2.88 -72.3539
33.3042 2.88 -72.6778
41.869 12.2737 -72.8863
41.571 13.7971 -72.8632
32.25 5.6875 -72.8443
30.7879 5.39507 -72.8426
30.7879 5.39507 -72.3539
32.25 5.6875 -72.3539
40.6605 9.89651 -72.9948
39.8363 10.2451 -73.0224
30.3832 3.6875 -72.7517
30.3832 3.6875 -73.0195
30.3832 3.6875 -72.4753
30.2469 24.515 -74.289
29.2454 24.6215 -73.9266
28.5684 23.7892 -73.8871
29.9392 24.0574 -74.289
30.0913 24.5315 -73.9132
31.6727 25.3415 -73.9426
31.6727 25.3415 -72.7817
30.0913 24.5315 -72.5644
41.869 12.2737 -73.115
41.869 12.2737 -72.8022
40.7872 11.0872 -72.6172
27.1134 4.59141 -72.3539
28.2697 2.53013 -72.3539
26.5165 1.57006 -72.3539
30.3832 3.6875 -72.3539
31.0504 3.50304 -72.3539
35.2078 -0.564338 -72.3539
27.1134 4.59141 -72.8833
27.1134 4.59141 -73.0705
27.1134 4.59141 -72.8344
25.2596 7.89596 -73.0365
23.6898 8.60608 -73.0915
23.6898 8.60608 -72.898
23.6898 8.60608 -74.289
25.2596 7.89596 -74.289
42.8565 16.4294 -72.7453
41.5609 18.3602 -72.7559
41.4122 16.962 -72.7954
42.3045 15.299 -72.7959
30.7879 5.39507 -72.3539
30.7879 5.39507 -72.8426
29.0881 5.05513 -72.8406
29.0881 5.05513 -72.4492
29.4002 5.11754 -72.3539
40.7872 11.0872 -73.0598
41.0852 7.45455 -74.289
38.1907 6.87564 -74.289
40.0541 21.5499 -73.6486
40.3765 19.9022 -73.5539
40.3765 19.9022 -72.771
40.3765 19.9022 -72.7189
40.0541 21.5499 -72.966
36.67 6.57149 -74.289
39.9767 19.6371 -73.5431
39.9767 19.6371 -74.289
40.8879 19.4346 -73.5228
27.0787 4.65323 -74.289
29.0881 5.05513 -74.289
27.1134 4.59141 -74.289
26.0548 6.47837 -74.289
36.892 1.88819 -74.289
35.8902 2.16511 -74.0259
39.9401 3.44643 -74.289
40.7641 19.5479 -72.7625
23.3599 10.2924 -74.289
24.0562 6.73352 -74.289
26.6875 7.25 -74.289
26.6875 7.25 -72.9864
24.5 9.25 -74.289
38.5965 22.2093 -72.6612
38.5965 22.2093 -73.6998
36.0008 23.9028 -73.8197
37.7899 23.7125 -73.7913
37.7899 23.7125 -72.7309
36.451 23.8549 -72.3539
36.0008 23.9028 -72.3539
39.3125 20.875 -73.6185
39.3125 20.875 -72.5993
23.1821 11.201 -72.3539
23.3599 10.2924 -72.5444
41.6988 14.0587 -73.2159
41.1237 14.2504 -73.2323
41.1237 14.2504 -74.289
41.571 13.7971 -72.5202
41.571 13.7971 -73.2026
42.1101 11.0415 -73.0441
42.1212 10.9846 -73.0408
30.7879 5.39507 -74.289
24.125 20.3125 -72.4808
24.125 20.3125 -73.7379
35.7558 -1.04105 -74.2489
35.7558 -1.04105 -72.5822
38.1907 6.87564 -72.3539
38.1907 6.87564 -72.8514
36.67 6.57149 -72.8496
36.67 6.57149 -72.3539
26.5165 1.57006 -74.0054
26.5165 1.57006 -73.8464
26.5165 1.57006 -72.6723
23.3599 10.2924 -73.1885
21.2635 6.20856 -72.9823
21.2635 6.20856 -74.1353
16.9846 7.39142 -74.289
17.5906 9.20943 -74.289
16.9846 7.39142 -73.0905
40.9375 12.5 -72.9214
42.3045 15.299 -72.7959
21.522 14.5586 -73.4439
22.2223 16.1066 -73.523
22.2223 16.1066 -72.3539
21.522 14.5586 -72.3539
37.6875 7.6875 -72.9016
37.6875 7.6875 -72.3539
38.9157 8.36007 -72.3814
38.9157 8.36007 -72.9268
38.3893 7.28233 -72.3539
35.8902 2.16511 -72.3539
35.8902 2.16511 -72.6124
26.0548 6.47837 -72.8497
26.0548 6.47837 -72.9498
24.5 9.25 -72.5254
24.5 9.25 -73.1193
35.4872 5.27424 -74.289
37.6875 7.6875 -74.289
37.2959 5.04335 -74.289
33.6978 5.50267 -74.289
29.3125 6.0625 -72.8943
32.2738 4.72286 -72.7905
29.3125 6.0625 -72.3539
32.2738 4.72286 -72.3539
27.0282 23.4878 -72.3539
20.3609 3.30968 -73.5783
20.3609 3.30968 -72.8301
26.969 4.63131 -72.8773
26.969 4.63131 -72.838
27.7711 6.25927 -72.4711
27.7711 6.25927 -72.9206
21.2635 6.20856 -72.3539
38.4411 -1.79993 -74.289
38.4411 -1.79993 -73.5039
43.9484 5.49558 -74.289
41.4122 16.962 -73.3801
42.3045 15.299 -72.5585
42.3045 15.299 -73.2788
41.9573 15.946 -72.3708
41.4122 16.962 -72.4179
41.4053 9.72343 -72.9778
40.5949 9.27965 -72.9612
21.8799 17.8569 -73.6237
21.8799 17.8569 -72.6666
22.1344 16.5559 -72.3539
21.7588 14.1365 -72.3539
21.7588 14.1365 -73.4181
23.1676 19.2653 -73.6892
23.1676 19.2653 -72.5601
33.1309 24.6819 -72.5014
33.1309 24.6819 -73.8914
40.9375 12.5 -72.4871
42.6244 15.9542 -72.5753
40.9375 12.5 -73.1368
21.3897 7.07392 -74.289
27.7711 6.25927 -74.289
27.2264 1.36943 -73.8773
36.6757 -1.30101 -74.289
35.8902 2.16511 -73.2489
30.671 3.60792 -73.0315
39.2996 1.22261 -73.3909
27.9502 4.36008 -72.9182
14.7868 4.88498 -73.3355
26.3821 4.79356 -72.8529
15.0505 5.85169 -73.0241
35.3583 -0.928715 -72.4457
40.7283 -2.4463 -74.289
22.2833 13.2015 -74.289
22.2833 13.2015 -73.3609
35.2904 -0.90952 -72.4224
35.1286 -0.863778 -72.4516
35.6704 -1.01689 -72.3539
24.9451 2.01416 -74.289
38.9157 8.36007 -74.289
35.8902 2.16511 -74.289
23.6773 10.7166 -72.3539
22.2833 13.2015 -72.3539
32.2738 4.72286 -74.289
29.3125 6.0625 -74.289
36.2717 2.05965 -72.3539
35.0907 -0.853081 -72.3539
34.5 24.0625 -73.8434
27.0282 23.4878 -74.289
27.0282 23.4878 -73.8856
31.5625 24.375 -74.289
31.5625 24.375 -73.8899
35.1426 23.9941 -74.289
36.0008 23.9028 -74.289
39.3125 20.875 -74.289
40.2385 19.1492 -74.289
41.4122 16.962 -74.289
31.5625 24.375 -72.4555
40.9375 12.5 -74.289
39.3123 9.17227 -74.289
39.3123 9.17227 -72.968
33.6978 5.50267 -72.8197
33.6978 5.50267 -72.3539
28.3026 6.19143 -72.3539
40.0288 8.96965 -72.6481
40.0288 8.96965 -72.9496
38.8008 8.29718 -72.3539
28.1693 24.736 -73.9437
28.1693 24.736 -72.7066
39.3123 9.17227 -72.4021
22.0356 11.5032 -73.269
22.0356 11.5032 -72.5664
30.671 3.60792 -72.4229
30.671 3.60792 -72.7444
41.6054 18.7786 -73.4792
41.6054 18.7786 -72.8571
40.5464 8.82329 -72.8257
40.5464 8.82329 -72.9363
22.3935 13.957 -73.4018
22.1402 12.2204 -72.3539
40.0288 8.96965 -74.289
30.5088 3.75628 -74.289
30.671 3.60792 -74.289
22.0356 11.5032 -74.289
39.3043 1.22132 -74.289
41.4068 8.57996 -74.289
39.3043 1.22132 -73.3925
22.3935 13.957 -74.289
21.2635 6.20856 -74.289
23.1676 19.2653 -74.289
23.8476 20.0091 -74.289
26.2886 22.6789 -74.289
36.3361 23.5963 -74.289
28.6199 4.17495 -72.7963
36.9485 1.87255 -72.5857
15.5765 7.78067 -72.3539
15.5765 7.78067 -73.1261
42.6054 0.308751 -72.4426
42.6054 0.308751 -72.3539
42.066 10.8874 -73.036
19.4506 14.7893 -74.289
20.4194 6.4419 -74.289
16.3084 10.464 -74.289
41.922 0.497687 -74.289
44.1249 5.93073 -74.289
15.5765 7.78067 -74.289
42.6054 0.308751 -74.289
14.7868 4.88498 -72.973
38.9423 -1.94157 -72.3539
42.1521 -1.36863 -72.3539
14.7868 4.88498 -74.289
14.7868 4.88498 -72.3539
40.8462 8.7385 -72.9286
41.7804 -2.74366 -74.289
41.7804 -2.74366 -72.3539
35.7558 -1.04105 -74.289
26.5165 1.57006 -74.289
10.75 4.6875 -72.3539
-11.9583 -9.84993 76.2421
24.8099 21.8264 -79.973
23.4387 21.1241 -79.973
-46.2931 -17.7091 -79.973
-46.0188 -18.3674 -79.973
-9.76906 -7.75989 71.8522
-10.406 -6.69829 70.4225
40.2385 19.1492 -76.4633
40.2385 19.1492 -77.7541
26.5165 1.57006 -77.7541
26.5165 1.57006 -78.8768
35.7558 -1.04105 -77.7541
35.7558 -1.04105 -78.8768
38.5385 21.5827 -77.7541
36.3361 23.5963 -76.5533
31.9041 24.3387 -79.973
31.9041 24.3387 -79.9455
26.5165 1.57006 -77.6946
35.7558 -1.04105 -76.8777
26.5165 1.57006 -76.4633
35.7558 -1.04105 -76.4633
40.7872 11.0872 -77.7541
40.7872 11.0872 -76.4633
40.1956 19.0061 -78.8768
38.983 14.964 -78.8768
38.983 14.964 -78.4917
39.9767 19.6371 -78.8768
39.9767 19.6371 -77.7541
-10.5021 -10.2608 76.2421
-10.7586 -11.136 76.2421
-10.7568 -11.1298 77.2751
-10.7156 -10.9894 77.5209
-11.8784 -10.9729 76.2421
-12.2025 -10.9222 76.7897
-12.2841 -10.9094 76.9276
21.6061 29.8891 -79.973
24.2326 29.1352 -79.973
41.4122 16.962 -79.7735
41.3012 15.9185 -79.973
40.8879 19.4346 -79.973
19.666 15.4354 -79.973
23.1676 19.2653 -79.973
-10.029 -8.64684 74.366
-10.4493 -10.0807 75.9258
40.2385 19.1492 -76.3702
35.7558 -1.04105 -79.973
47.8611 19.7546 -81.3165
47.3844 17.991 -81.5561
-26.0049 -3.311 -74.289
-25.127 -3.58112 -74.289
39.9767 19.6371 -79.973
39.9767 19.6371 -78.9601
17.5722 28.4272 -81.217
17.5722 28.4272 -79.973
19.9557 27.6919 -79.973
19.9557 27.6919 -80.9993
-14.9071 7.12364 -80.6663
-14.339 7.56482 -80.6836
-5.77458 -14.4174 64.7768
-7.42325 -11.6696 68.7142
-12.3152 -12.5003 76.2421
-13.78 -12.0709 76.2421
-13.0462 -12.286 77.5235
-13.3059 -6.30042 71.1039
-11.9278 -5.22859 68.7359
43.6736 13.4005 -79.973
-10.762 -11.1475 74.3557
-10.4493 -10.0807 74.3434
-31.9522 -24.3221 -78.102
-30.2173 -24.7908 -77.951
-31.9522 -24.3221 -76.4633
-30.2173 -24.7908 -76.4633
-13.1873 -10.0291 76.2421
-13.4681 -10.9962 76.2421
-45.3125 -17.2187 -79.6569
-31.3721 -10.2486 -78.8768
-31.3721 -10.2486 -79.6492
-45.3125 -17.2187 -78.8768
-45.3125 -16.4851 -78.8768
-45.3125 -16.4851 -79.7392
-47.9108 -18.5026 -79.66
-45.3125 -18.317 -79.5336
-30.3951 -6.87129 -79.973
-37.6456 -10.532 -79.973
40.9375 12.5 -78.1043
39.3123 9.17227 -77.8228
26.5165 1.57006 -79.973
26.5165 1.57006 -88.404
35.7558 -1.04105 -88.404
45.5481 18.399 -79.973
44.6474 15.9973 -79.973
-12.4043 -10.0582 77.5158
-15.2992 -11.6257 76.2421
-15.2992 -11.6257 78.2488
-13.46 -12.1647 78.2488
-10.029 -8.64684 73.4091
-10.1833 -9.17318 74.3329
-9.24223 -5.96245 68.6971
-35.1903 -23.4473 -78.3838
-35.1903 -23.4473 -76.4633
23.8476 20.0091 -79.973
23.8476 20.0091 -79.9161
41.1237 14.2504 -78.8768
41.1237 14.2504 -79.973
42.6611 8.22523 -78.8768
42.6611 8.22523 -79.973
-0.629596 -4.42233 61.0784
-1.58458 -7.76477 61.077
-8.58585 12.0319 -80.859
1.50243 19.8651 -81.1666
49.2028 24.7191 -80.6422
-13.5482 -10.6359 78.2436
-13.059 -10.7739 78.2436
-13.945 -10.8602 76.2421
-13.0182 -10.3364 77.5155
-13.1208 -29.4097 -76.4633
-19.3795 -27.7188 -77.0079
-25.6868 -26.0148 -77.5568
-19.3795 -27.7188 -76.4633
-2.99622 -32.1449 -76.4633
-25.6868 -26.0148 -76.4633
-9.4375 -8.3125 78.2314
-9.4375 -8.3125 76.2421
-8.84006 -9.30823 76.2421
-8.84006 -9.30823 78.2343
-10.2076 -9.1867 74.366
-10.0579 -8.66315 74.366
-9.18689 -9.4747 74.366
-10.029 -8.64684 78.2331
-10.4493 -10.0807 78.2386
-10.4493 -10.0807 76.2421
-10.029 -8.64684 76.2421
-11.1543 -10.4191 78.2404
-11.9896 -10.1809 78.2404
-11.8431 -9.67221 78.2385
-10.7052 -10.2035 76.2421
-11.5872 -9.95465 76.2421
-11.4415 -9.44518 76.2421
-20.4854 2.79232 -78.8768
42.1101 11.0415 -79.973
45.1989 9.90482 -79.973
45.1989 9.90482 -88.404
46.41 14.3858 -79.973
46.41 14.3858 -82.0458
46.41 14.3858 -88.404
45.9396 12.6451 -82.2823
47.3844 17.991 -88.404
47.3844 17.991 -79.973
45.9396 12.6451 -88.404
45.9396 12.6451 -79.973
10.75 4.6875 -78.9384
-0.919675 8.01065 -79.973
0.747769 8.85253 -79.973
26.2886 22.6789 -76.4633
39.9767 19.6371 -76.4245
23.8476 20.0091 -76.4633
41.1237 14.2504 -75.8256
-45.3125 -18.317 -79.973
-45.3125 -20.7127 -79.973
-45.3125 -20.7127 -78.8768
-45.3125 -18.317 -78.8768
-41.1413 -18.019 -79.973
-44.6518 -20.8912 -79.973
-47.9108 -18.5026 -79.973
-33.4613 -17.4705 -79.973
-33.4613 -17.4705 -78.8768
-47.9108 -18.5026 -78.8768
13.9375 5.125 -79.973
13.9375 5.125 -88.404
-11.12 3.22267 54.665
-10.86 4.12652 54.665
19.6701 29.1516 -81.1794
17.9456 29.7265 -81.3417
18.2835 17.7062 -79.973
14.9994 16.0481 -79.973
19.6701 29.1516 -79.973
19.6701 29.1516 -88.404
20.3948 25.4475 -79.973
-13.0128 -10.3379 77.5155
38.4411 -1.79993 -79.973
38.4411 -1.79993 -88.404
14.7868 4.88498 -79.973
14.7868 4.88498 -88.404
38.4411 -1.79993 -78.8768
38.4411 -1.79993 -77.7541
41.7804 -2.74366 -77.7541
14.7868 4.88498 -77.7541
31.5625 24.375 -79.969
31.4472 24.3524 -79.973
35.1426 23.9941 -79.7233
24.7075 20.9496 -79.973
23.1676 19.2653 -79.8712
39.3125 20.875 -79.1367
40.2898 19.0537 -78.8768
36.3361 23.5963 -79.611
22.3935 13.957 -79.3191
23.1676 19.2653 -76.3831
23.8269 19.9865 -76.4633
41.4122 16.962 -76.127
39.7893 19.9865 -76.4633
39.3123 9.17227 -75.261
40.9375 12.5 -75.631
22.3935 13.957 -75.793
27.0282 23.4878 -76.4633
31.5625 24.375 -76.4633
35.1426 23.9941 -76.4633
39.3125 20.875 -76.4633
41.4122 16.962 -76.4633
40.9375 12.5 -76.4633
39.3123 9.17227 -76.4633
27.0282 23.4878 -79.973
31.5625 24.375 -79.973
31.5625 24.375 -78.8768
27.0282 23.4878 -78.8768
35.1426 23.9941 -79.973
35.1426 23.9941 -78.8768
28.1693 24.736 -79.973
39.3125 20.875 -78.8768
39.3125 20.875 -79.973
41.4122 16.962 -79.973
41.4122 16.962 -78.8768
40.9375 12.5 -78.8768
40.9375 12.5 -79.973
39.3123 9.17227 -79.973
39.3123 9.17227 -78.8768
40.9375 12.5 -77.7541
39.3123 9.17227 -77.7541
-18.6287 4.23395 -80.5528
-20.4854 2.79232 -80.4962
23.8476 20.0091 -77.7541
41.1237 14.2504 -76.4633
41.1237 14.2504 -77.7541
43.2469 13.5427 -79.973
27.0282 23.4878 -77.7541
31.5625 24.375 -77.7541
35.1426 23.9941 -77.7541
39.3125 20.875 -77.7541
41.4122 16.962 -77.7541
-14.9071 7.12364 -93.623
-14.9071 7.12364 -88.404
38.4411 -1.79993 -76.4633
14.7868 4.88498 -76.1218
-45.3125 -20.7127 -76.4633
-45.3125 -18.317 -76.4633
-47.9108 -18.5026 -76.4633
-33.4613 -17.4705 -76.4633
-46.4387 -17.3596 -79.973
-46.4387 -17.3596 -88.404
-26.0049 -3.311 -78.8768
-26.0049 -3.311 -79.973
-26.0049 -3.311 -76.4633
13.9633 29.5406 -81.5466
13.9633 29.5406 -79.973
44.292 18.6782 -79.973
42.9714 14.0561 -79.973
-46.4387 -17.3596 -93.623
-8.58585 12.0319 -79.973
-8.58585 12.0319 -88.404
36.3361 23.5963 -79.973
28.9049 30.3906 -79.973
-21.4345 -2.63086 -74.289
-21.4345 -2.63086 -76.4633
-20.33 1.05001 -76.4633
-20.33 1.05001 -74.289
-45.3125 -22.9092 -88.404
-45.3125 -22.9092 -79.973
-45.3125 -21.9643 -79.973
0.609128 -0.0868036 54.665
0.933887 1.04986 54.665
4.98064 -0.00581908 54.665
3.40067 -5.54185 46.44
3.40067 -5.54185 54.665
-11.3372 -1.44799 54.665
-10.1131 2.93856 54.665
-9.85474 3.86428 54.665
-14.4221 6.98271 -78.8768
-14.4221 6.98271 -79.973
-10.3765 5.80724 -79.973
-10.3765 5.80724 -78.8768
-43.0609 -21.321 -93.623
-30.0505 -17.6037 -93.623
-27.6814 -2.79514 -93.623
-26.0049 -3.311 -93.623
-31.9522 -24.3221 -93.623
-25.498 -1.52048 -93.623
-47.6805 -20.073 -93.623
-47.9874 -18.562 -93.623
-25.8988 -1.41098 -93.623
-24.6857 -1.74245 -93.623
-20.4854 2.79232 -79.973
-20.4854 2.79232 -88.404
-19.0616 2.37876 -88.404
-19.0616 2.37876 -79.973
-19.0616 2.37876 -78.8768
-15.2385 1.26825 -79.973
-15.2385 1.26825 -78.8768
-19.0616 2.37876 -74.289
-19.0616 2.37876 -76.4633
-15.2385 1.26825 -76.4633
-15.2385 1.26825 -74.289
-19.43 0.8 -76.4633
-45.3125 -16.4851 -93.623
-45.3125 -16.4851 -88.404
-27.6814 -2.79514 -88.404
-47.9874 -18.562 -88.404
-25.8988 -1.41098 -88.404
-17.5742 -19.2132 61.0733
-17.5742 -19.2132 54.665
-17.5735 -19.211 61.077
47.8611 19.7546 -79.973
47.8611 19.7546 -88.404
10.75 4.6875 -76.4633
-8.125 10.0625 -76.4633
42.4735 26.5993 -79.973
42.4735 26.5993 -88.404
38.2971 27.7663 -88.404
38.2971 27.7663 -79.973
42.662 26.5466 -79.973
42.662 26.5466 -88.404
-8.65961 -9.60899 71.667
43.7583 16.8103 -79.973
-21.4345 -2.63086 -78.8768
-21.4345 -2.63086 -79.973
-20.33 1.05001 -79.973
-20.33 1.05001 -78.8768
-22.0971 1.54087 -88.404
-22.0971 1.54087 -79.973
46.2534 25.5432 -79.973
44.8832 20.7473 -79.973
-14.9071 7.12364 -79.973
-12.7872 -8.45884 74.366
-12.4138 -9.99475 74.366
-13.5579 -5.25178 69.5191
-33.8107 -18.678 -74.289
-33.8107 -18.678 -76.4633
-6.8612 -26.2329 54.665
-5.8125 -22.5625 54.665
-14.4221 6.98271 -74.289
-14.4221 6.98271 -76.4633
-10.3765 5.80724 -76.4633
-10.3765 5.80724 -74.289
-31.9522 -24.3221 -74.289
-31.9522 -24.3221 -79.973
14.7868 4.88498 -76.4633
15.5765 7.78067 -76.4633
-23.6932 -17.4707 54.665
-28.1555 -16.1999 54.665
25.0135 31.4779 -79.973
23.7812 27.7813 -79.973
41.7804 -2.74366 -76.4633
41.7804 -2.74366 -78.8768
14.7868 4.88498 -78.8768
-20.4854 2.79232 -93.623
-22.0971 1.54087 -93.623
-4.50833 -10.7542 64.4231
-2.0943 -9.54715 61.077
40.5464 8.82329 -79.973
40.5464 8.82329 -78.8768
41.6054 18.7786 -79.973
-33.8107 -18.678 -78.8768
40.5464 8.82329 -77.7541
-9.59511 -13.2976 74.3074
-9.59511 -13.2976 71.4739
-10.6625 -13.8312 72.9534
-11.2236 -12.8202 74.3285
-13.9357 7.87797 -88.404
-13.9357 7.87797 -93.623
-10.9555 -13.9778 72.5817
-3.66399 -15.036 61.077
-11.25 -12.8125 74.3289
-11.2438 -12.7913 74.366
-11.0238 -12.0409 74.366
-11.3743 -13.2367 73.5861
-9.23711 -8.64648 73.0462
-8.84006 -9.30823 72.0979
-8.65961 -9.60899 74.3425
-8.84006 -9.30823 73.9374
-9.1721 -9.46761 72.5613
-9.1721 -9.46761 74.3477
-10.2019 -9.18353 74.3582
-2.59076 -11.2832 61.077
-10.7256 -9.04055 74.366
-13.9575 -8.66648 74.366
-13.8132 -8.16935 74.366
-13.0148 -10.3344 74.366
-9.59484 -21.4854 61.0771
-11.7703 -12.6412 74.366
-14.856 -11.7616 74.366
-11.6995 -12.6614 74.366
-12.0044 -11.4135 76.2421
-12.4818 -11.2774 76.2421
-0.0625004 -32.9375 -75.327
-2.99622 -32.1449 -75.5823
-27.6814 -2.79514 -79.973
-26.0049 -3.311 -88.404
-25.498 -1.52048 -88.404
-25.498 -1.52048 -79.973
-24.6857 -1.74245 -78.8768
-22.0971 1.54087 -78.8768
-19.43 0.8 -78.8768
-24.6857 -1.74245 -79.973
-24.6857 -1.74245 -74.289
-19.43 0.8 -74.289
17.5722 28.4272 -88.404
13.9633 29.5406 -88.404
-15.5389 -12.1382 73.4429
-6.15904 -22.4638 61.0788
-5.81722 -22.5612 61.0789
-9.83075 -21.4182 61.077
-12.5251 -10.4762 77.5167
-12.5249 -10.4766 77.5172
-30.6814 -19.8324 46.44
-31.9522 -24.3221 46.44
-11.2388 -12.7927 74.366
-12.5801 -11.1035 74.366
-10.4655 -10.0884 74.366
-12.5801 -11.1035 76.4778
-12.2613 -10.9504 76.8718
-4.54418 -7.24621 66.1037
-12.7027 -10.1581 77.0821
-13.0148 -10.3344 76.6624
-6.57108 -6.69235 68.6586
-14.1986 -7.47915 73.4233
-14.3437 -7.98333 73.4254
-13.4329 -4.81733 68.7576
-12.8373 -10.6484 77.0946
-16.1129 -4.85307 69.1158
-6.1583 -22.4651 61.077
-6.15904 -22.4638 61.077
-20.7654 -4.92315 -93.623
5.65221 -13.0516 -93.623
5.65221 -13.0516 -88.404
-20.3027 -2.94013 -93.623
6.45668 -10.2522 -93.623
6.45668 -10.2522 -88.404
-7.78936 11.2652 -79.973
-7.29587 13.0335 -79.973
-8.125 10.0625 -79.973
-10.318 10.687 -78.8768
-10.318 10.687 -79.973
-9.09726 11.6348 -79.973
-47.9874 -18.562 -76.4633
-47.6805 -20.073 -76.4633
-30.3828 -6.8285 -76.4633
-47.6805 -20.073 -78.8768
-32.194 -6.29905 -78.8768
-47.9874 -18.562 -78.8768
-30.3828 -6.8285 -78.8768
-35.1903 -23.4473 -78.8768
-30.3828 -6.8285 -78.8768
-47.9874 -18.562 -79.973
-47.6805 -20.073 -79.973
-32.194 -6.29905 -79.973
-30.3828 -6.8285 -79.973
-49.3518 -19.6214 -79.973
-29.6605 -4.33184 -79.973
14.0888 16.3056 -79.973
1.50243 19.8651 -79.973
1.09735 -28.9015 -74.289
1.09735 -28.9015 46.44
-2.9375 -27.75 46.44
-19.3795 -27.7188 -79.973
-19.3795 -27.7188 -88.404
-14.339 7.56482 -79.973
-14.339 7.56482 -88.404
40.5464 8.82329 -76.4633
40.5464 8.82329 -74.289
15.5765 7.78067 -78.8768
-12.3803 -1.15825 62.3439
-12.3803 -1.15825 61.077
-9.07461 10.3329 -78.8768
-9.07461 10.3329 -76.4633
-24.6857 -1.74245 -88.404
-45.3125 -16.4851 -79.973
-19.43 0.8 -93.623
7.48435 -6.67621 -93.623
7.48435 -6.67621 -88.404
17.9456 29.7265 -93.623
15.3269 30.5994 -93.623
15.3269 30.5994 -88.404
17.9456 29.7265 -88.404
-9.09726 11.6348 -88.404
-9.09726 11.6348 -93.623
11.1057 5.92529 -93.623
-32.194 -6.29905 -80.1392
21.2604 28.6215 -81.0298
10.75 4.6875 -79.973
22.25 32.25 -81.381
-0.0625004 -32.9375 -79.973
-49.4125 -19.605 -79.973
-20.3027 -2.94013 61.4795
-49.4125 -19.605 -93.623
-19.43 0.8 61.1367
-0.0625004 -32.9375 -93.623
-18.71 0.599992 62.3889
-16.0905 -4.09113 68.796
17.6285 15.3046 -76.4633
-12.5245 -10.4764 77.5167
-18.7397 -23.2403 46.44
-24.6461 -21.5547 46.44
-24.6461 -21.5547 54.665
-18.7397 -23.2403 54.665
-16.0217 -4.21432 68.9642
-17.2918 -13.1048 71.0736
-16.0073 -4.11385 68.7948
-15.4628 -0.302004 62.3658
-27.259 -7.74161 -74.289
-27.259 -7.74161 -79.973
-25.498 -1.52048 -74.289
-12.3803 -1.15825 54.665
-0.629596 -4.42233 54.665
17.6285 15.3046 -78.8768
-2.99622 -32.1449 -74.289
-2.99622 -32.1449 -79.973
-8.125 10.0625 -78.8768
-2.99622 -32.1449 -93.623
-2.99622 -32.1449 -88.404
23.1676 19.2653 -77.7541
23.1676 19.2653 -76.4633
-14.8105 4.26397 54.665
4.27946 -1.12242 54.665
21.2604 28.6215 -88.404
21.2604 28.6215 -93.623
23.1676 19.2653 -78.8768
-24.3101 -0.177415 -88.404
-24.3101 -0.177415 -79.973
-8.125 10.0625 -74.289
-19.3795 -27.7188 -74.289
-9.39232 5.52128 46.44
5.33668 1.2417 46.44
29.2783 25.9489 -79.973
15.5765 7.78067 -79.973
11.9287 8.78909 -79.973
-32.194 -6.29905 -88.404
-30.3828 -6.8285 -74.289
4.62529 0.08688 54.665
3.04393 -5.44276 54.665
32.4369 29.4037 -79.973
32.4369 29.4037 -88.404
-1.66148 -8.03392 54.665
-5.8125 -22.5625 61.0707
-1.66148 -8.03392 61.0769
-25.6868 -26.0148 -74.289
-25.6868 -26.0148 -79.973
-18.6287 4.23395 -79.973
41.4068 8.57996 -77.7541
41.4068 8.57996 -76.4633
2.37467 -9.13681 46.44
2.37467 -9.13681 54.665
-1.66154 -8.0339 61.077
2.01557 -9.03869 54.665
-0.628776 -4.42256 61.077
41.4068 8.57996 -79.973
41.4068 8.57996 -78.8768
-23.4693 -16.5114 62.7234
-46.2931 -17.7091 -79.6574
-46.4387 -17.3596 -79.7049
25.419 23.173 -79.973
24.125 20.3125 -79.973
24.125 20.3125 -79.9345
24.125 20.3125 -78.8768
25.0135 31.4779 -88.404
22.3935 13.957 -79.973
22.3935 13.957 -78.8768
23.6881 22.8344 -79.973
24.3804 27.5815 -79.973
-47.1875 -22.5 -79.973
-47.1875 -22.5 -88.404
19.4506 14.7893 -79.973
-45.3125 -22.6442 -79.973
19.4506 14.7893 -78.8768
-46.0188 -18.3674 -79.5679
22.3935 13.957 -77.7541
19.4506 14.7893 -77.7541
-11.4604 -8.83636 78.2352
-11.4599 -8.8365 76.5533
-18.6287 4.23395 -88.404
-11.8031 -9.533 78.238
-18.6287 4.23395 -93.623
-11.8824 -9.69442 78.1856
-25.6868 -26.0148 -93.623
-11.8818 -9.69407 76.8391
-25.6868 -26.0148 -88.404
-24.3101 -0.177415 -93.623
-25.3454 -0.981327 -93.623
-30.2173 -24.7908 -93.623
-25.3454 -0.981327 -88.404
22.3935 13.957 -76.4633
-46.2931 -17.7091 -78.8768
-46.4387 -17.3596 -78.8768
36.3361 23.5963 -76.4633
19.4506 14.7893 -76.4633
-12.4169 -9.99651 76.2421
-12.4176 -9.99693 76.6905
-24.6857 -1.74245 46.44
-21.4345 -2.63086 46.44
-20.3027 -2.94013 46.44
-20.3027 -2.94013 54.665
31.9041 24.3387 -77.9437
-24.6857 -1.74245 54.665
31.9041 24.3387 -77.7541
22.25 32.25 -88.404
22.25 32.25 -79.973
-45.3125 -17.2187 -79.973
17.6285 15.3046 -77.7541
-47.875 -18.5 -79.973
17.6285 15.3046 -79.973
-47.875 -18.5 -79.6583
17.6285 15.3046 -74.289
22.2223 16.1066 -79.973
21.522 14.5586 -79.973
-23.6923 -17.4668 61.077
-18.141 -19.0493 61.077
-15.2295 -7.79659 71.9125
-16.6964 -8.9375 70.0849
-24.5604 -21.1875 54.665
-18.6857 -22.8622 54.665
-33.8805 -18.9194 -74.289
-14.359 -8.03673 73.4256
-33.8805 -18.9194 46.44
-16.484 -7.45053 69.7321
-29.1333 -20.2742 46.44
-17.0089 -11.1246 70.6038
-15.3843 -11.6007 73.4407
-16.8882 -10.2796 70.4033
-15.0748 -10.5248 73.4361
-30.2173 -24.7908 -74.289
-30.2173 -24.7908 -79.973
-47.08 -17.8575 -88.404
-47.08 -17.8575 -93.623
22.25 32.25 -93.623
14.7868 4.88498 -93.623
-46.0188 -18.3674 -78.8768
42.6611 8.22523 -77.7541
42.6611 8.22523 -76.4633
-30.5395 -26.1335 -88.404
-30.5395 -26.1335 -93.623
35.1426 23.9941 -76.06
-49.4125 -22.0144 -93.623
33.0985 24.6755 -75.2152
-49.4125 -22.0144 -88.404
31.5625 24.375 -74.7649
-35.6451 -25.0192 -88.404
-30.2173 -24.7908 -88.404
40.2481 19.1314 -78.8879
-27.259 -7.74161 46.44
-7.29587 13.0335 -78.8768
-7.78936 11.2652 -78.8768
-49.3518 -19.6214 -76.4633
-49.1866 -19.4932 -93.623
44.597 7.67774 -77.7541
-49.1866 -19.4932 -88.404
26.2886 22.6789 -77.7541
26.2886 22.6789 -78.5803
23.8476 20.0091 -78.8571
22.5 14.6875 -79.3951
-10.3765 5.80724 46.44
22.5 14.6875 -78.8768
22.5 14.6875 -79.973
-9.39232 5.52128 -74.289
-12.0087 -8.68511 77.511
-49.4125 -22.0144 -79.973
-11.2815 -8.88571 76.2421
-35.6451 -25.0192 -79.973
-10.7238 -9.03955 76.2421
-10.7238 -9.03955 78.2352
-11.592 -8.80005 78.2352
-3.20008 -27.2766 54.665
49.2028 24.7191 -88.404
49.2028 24.7191 -93.623
-20.3027 -2.94013 61.077
21.7588 14.1365 -78.8768
21.7588 14.1365 -77.7541
-15.4628 -0.302004 61.077
-15.4628 -0.302004 54.665
-19.43 0.8 54.665
40.2385 19.1492 -79.973
40.2385 19.1492 -78.8905
-2.83231 -27.3814 54.665
-27.259 -7.74161 -76.4633
-25.498 -1.52048 -76.4633
-47.875 -18.5 -78.8768
-19.0616 2.37876 46.44
-15.2385 1.26825 46.44
-25.498 -1.52048 -78.8768
22.5 14.6875 -76.4633
-6.96615 -26.6003 54.665
22.5 14.6875 -77.7541
-6.96615 -26.6003 46.44
-8.15234 -30.7519 46.44
24.0296 25.1764 -79.973
36.7737 23.1962 -79.973
-2.9375 -27.75 54.665
36.7737 23.1962 -79.5412
-33.8107 -18.678 -79.973
-43.0609 -21.321 -79.973
-49.1866 -19.4932 -79.973
-6.00467 -6.84712 68.6504
-9.07461 10.3329 -79.973
44.597 7.67774 -76.4633
-29.6605 -4.33184 -78.8768
-1.78437 -23.7096 54.665
44.597 7.67774 -78.8768
-1.78437 -23.7096 46.44
2.25852 -24.8609 46.44
-31.3721 -10.2486 -79.973
-9.07461 10.3329 -74.289
21.7588 14.1365 -76.4633
-10.2076 -9.1867 74.366
-12.2269 -10.9339 74.366
-4.10622 -31.845 46.44
21.2604 28.6215 -79.973
-9.4375 -8.3125 74.366
-8.84006 -9.30823 74.366
6.65307 5.85417 46.44
-10.1888 -9.192 74.366
6.65307 5.85417 -74.289
41.7804 -2.74366 -93.623
41.7804 -2.74366 -88.404
-32.3529 -25.7377 -88.404
-32.3529 -25.7377 -93.623
40.5949 9.27965 -76.4633
40.5949 9.27965 -77.7541
33.0985 24.6755 -74.289
-49.4125 -19.605 -88.404
-10.318 10.687 -88.404
6.45668 -10.2522 46.44
-27.259 -7.74161 -78.8768
23.8476 20.0091 -78.8768
7.48435 -6.67621 46.44
39.9767 19.6371 -76.4633
44.597 7.67774 -79.973
-44.2012 -22.7297 -88.404
44.597 7.67774 -74.289
-44.0077 -23.194 -88.404
-44.0077 -23.194 -79.973
-44.2012 -22.7297 -79.973
10.75 4.6875 -78.8768
41.7804 -2.74366 -79.973
15.5765 7.78067 -75.1063
-35.3169 -23.4131 -79.973
-49.3518 -19.6214 -88.404
17.6285 15.3046 -75.9428
-29.6605 -4.33184 -88.404
-45.3125 -22.6442 -88.404
-10.2063 -9.1823 74.366
-10.7238 -9.03955 75.2689
49.2028 24.7191 -79.973
-10.9614 -8.97401 74.366
-11.81 -10.7338 76.2421
30.537 27.3256 -79.973
-14.6875 5.125 46.44
-14.6875 5.125 54.665
-11.7383 -10.6994 77.5185
31.3202 28.1822 -79.973
11.1057 5.92529 -88.404
-12.3806 -9.976 77.5155
-12.5247 -10.476 77.5172
-9.4375 -8.3125 72.5964
36.3361 23.5963 -77.7541
33.0985 24.6755 -79.973
47.8611 19.7546 -93.623
7.48435 -6.67621 -79.973
46.2569 20.2894 -79.973
-30.2173 -24.7908 46.44
1.50243 19.8651 -88.404
-15.4628 -0.302004 46.44
-29.1333 -20.2742 54.665
-47.1875 -22.5 -79.973
-35.1903 -23.4473 -79.973
-47.1875 -22.5 -88.404
-33.4613 -17.4705 -78.9568
-26.1998 -8.05122 46.44
11.1057 5.92529 -79.973
-26.1998 -8.05122 54.665
-21.7957 -9.33857 54.665
-10.1875 -9.1875 74.3331
-32.3529 -25.7377 -79.973
-20.3027 -2.94013 -74.289
27.0282 23.4878 -78.4965
31.5625 24.375 -77.9824
33.5765 24.1607 -77.7541
23.6734 19.8185 -78.8768
36.3361 23.5963 -78.8768
-8.125 10.0625 46.44
-10.7681 -11.1465 74.366
-2.90341 -12.3764 61.077
-29.5415 -15.8052 46.44
-32.7179 -14.9007 46.44
-28.1555 -16.1999 46.44
48.0399 25.044 -79.973
-26.1998 -8.05122 -74.289
-0.629596 -4.42233 61.077
-30.3828 -6.8285 46.44
-49.3518 -19.6214 -78.8768
-47.1875 -22.5 -88.404
-47.1875 -22.5 -79.973
32.4369 29.4037 -80.484
28.9049 30.3906 -80.795
-19.43 0.8 46.44
41.4122 16.962 -78.5784
20.9253 27.3927 -79.973
21.8799 17.8569 -79.973
28.9049 30.3906 -88.404
-24.6857 -1.74245 -76.4633
-49.3518 -19.6214 -93.623
20.5114 16.3601 -79.973
21.7588 14.1365 -79.973
44.597 7.67774 -88.404
-19.43 0.8 61.077
10.75 4.6875 -88.404
-47.1875 -22.5 -93.623
20.1744 16.9608 -79.973
-30.5395 -26.1335 -79.973
18.7653 19.4727 -79.973
21.3596 20.5163 -79.973
6.45668 -10.2522 -74.289
-12.0912 -9.81243 76.2421
-13.0148 -10.3344 76.2421
-12.5801 -11.1035 76.2421
-19.3795 -27.7188 46.44
-0.0625004 -32.9375 -74.289
-33.4613 -17.4705 -74.289
7.48435 -6.67621 -74.289
-23.6932 -17.4707 61.0704
-35.1903 -23.4473 -74.289
41.1237 14.2504 -78.2903
-1.30942 -4.23349 62.2653
-6.59745 -11.7987 67.3189
-0.0625004 -32.9375 46.44
-11.3883 -14.1942 72.0326
-2.1502 -23.6054 54.665
-9.94854 -5.76944 68.7073
-25.6868 -26.0148 46.44
-35.1903 -23.4473 46.44
-18.1413 -19.0516 54.665
-11.4579 -8.83393 74.366
10.75 4.6875 46.44
-5.81612 -22.5615 61.077
-13.397 -10.7516 76.2421
-18.1413 -19.0516 61.073
15.5765 7.78067 -77.7541
-0.0625004 -32.9375 -88.404
-5.81644 -22.5626 61.077
10.75 4.6875 -74.289
-4.10622 -31.845 -74.289
5  807 954 1127 601 1121  0 255 255
5  809 746 745 896 831  0 255 255
4  807 1040 956 954  0 255 255
4  809 1158 747 746  0 255 255
4  809 831 832 1158  0 255 255
4  807 1121 1057 1040  0 255 255
4  805 1040 1057 770  0 255 255
4  804 1158 832 829  0 255 255
9  804 707 1137 774 1132 1139 2 6 1078  0 255 255
6  804 1078 792 750 747 1158  0 255 255
5  804 829 435 708 707  0 255 255
7  802 6 2 1160 627 1053 466  255 0 0
4  802 1089 1071 1126  255 0 0
4  802 467 468 1089  255 0 0
3  802 466 467  255 0 0
4  1085 1056 1011 1010  0 255 255
5  1085 764 414 384 658  0 255 255
4  1085 1010 675 764  0 255 255
5  1160 315 1153 1030 1032  255 0 0
5  1141 415 650 649 933  0 255 255
4  1141 1150 728 657  0 255 255
4  1137 707 708 828  0 255 255
4  1137 1145 775 774  0 255 255
4  1160 2 4 315  255 0 0
5  1160 1032 842 628 627  255 0 0
5  1137 828 1161 1026 1145  0 255 255
4  1141 657 386 415  0 255 255
4  1141 933 935 1150  0 255 255
4  1153 315 4 5  255 0 0
4  1145 1026 776 775  0 255 255
5  1153 5 17 845 1030  255 0 0
4  1150 935 727 728  0 255 255
4  942 657 728 1080  0 255 255
4  942 858 436 387  0 255 255
4  1080 728 727 937  0 255 255
4  1080 1149 858 942  0 255 255
4  1080 937 815 1149  0 255 255
4  1040 805 977 956  0 255 255
4  1149 1136 843 858  0 255 255
4  858 843 434 436  0 255 255
4  1149 815 814 1136  0 255 255
7  843 1161 828 708 435 431 434  0 255 255
5  1136 1005 1026 1161 843  0 255 255
4  1136 814 1004 1005  0 255 255
5  2 1139 1045 5 4  0 255 255
4  5 1045 586 17  0 255 255
4  13 653 656 3  255 0 0
4  1067 999 615 13  0 255 255
4  1067 13 3 14  0 255 255
4  1126 7 6 802  255 0 0
5  1126 1071 799 8 7  255 0 0
4  1121 601 602 965  0 255 255
5  1041 681 682 798 797  255 0 0
4  1121 965 967 1057  0 255 255
4  1115 998 999 1082  0 255 255
4  1115 912 1094 718  0 255 255
4  718 1094 576 579  0 255 255
4  718 612 998 1115  0 255 255
5  910 1088 1107 365 717  0 255 255
4  717 365 364 824  0 255 255
6  1059 849 618 617 597 619  0 255 255
4  1088 1105 1103 961  0 255 255
4  850 1138 561 759  0 255 255
7  1109 1104 935 933 649 1138 850  0 255 255
4  1107 822 364 365  0 255 255
4  1109 961 1103 1104  0 255 255
4  1109 850 822 961  0 255 255
4  1088 961 822 1107  0 255 255
4  7 792 1078 6  0 255 255
4  8 791 792 7  0 255 255
6  8 799 798 682 554 9  255 0 0
4  842 1032 1030 1100  255 0 0
4  842 1022 787 628  255 0 0
4  15 14 972 844  255 0 0
4  1100 1030 845 844  255 0 0
4  842 975 656 1022  255 0 0
5  15 844 845 17 16  255 0 0
4  1100 844 975 842  255 0 0
4  1088 910 915 1090  0 255 255
4  910 717 576 911  0 255 255
4  912 911 576 1094  0 255 255
5  1089 848 847 497 483  255 0 0
4  1089 483 484 1071  255 0 0
4  1085 658 1093 979  0 255 255
5  805 770 767 1112 977  0 255 255
5  1085 979 1051 1052 1056  0 255 255
4  1026 1005 1004 776  0 255 255
4  912 1115 991 913  0 255 255
6  1082 999 1067 1068 835 990  0 255 255
4  771 769 765 1016  0 255 255
5  755 1014 593 592 779  255 0 0
5  771 709 565 823 769  0 255 255
4  771 1059 619 709  0 255 255
6  755 779 373 780 681 1041  255 0 0
4  1034 496 495 1054  255 0 0
4  1054 1047 1124 1034  255 0 0
4  799 793 794 798  255 0 0
4  799 947 838 793  255 0 0
5  1071 484 498 947 799  255 0 0
4  1068 486 485 835  0 255 255
4  1068 1067 14 486  0 255 255
4  15 16 584 590  0 255 255
4  984 626 362 426  255 0 0
4  1063 625 1079 1106  255 0 0
4  1063 426 362 625  255 0 0
7  984 426 1063 1106 643 633 634  255 0 0
5  771 768 800 849 1059  0 255 255
4  1057 967 1012 770  0 255 255
4  990 835 485 825  0 255 255
4  990 825 785 989  0 255 255
4  928 819 721 624  0 255 255
4  1159 743 722 723  0 255 255
4  1159 1154 744 743  0 255 255
7  1159 723 679 678 374 684 1154  0 255 255
6  865 671 670 635 690 734  0 255 255
4  1054 495 499 666  255 0 0
5  311 665 556 196 230  255 0 0
12  311 304 302 1049 1015 966 1018 1047 1054 666 501 665  255 0 0
7  772 848 1089 468 751 752 773  255 0 0
7  772 369 370 493 1130 489 490  255 0 0
6  1049 302 198 120 103 283  255 0 0
4  1047 456 457 1124  255 0 0
5  772 490 922 847 848  255 0 0
6  1047 421 455 570 548 456  255 0 0
5  1049 283 862 950 1015  255 0 0
4  1047 1018 420 421  255 0 0
4  1045 1042 863 586  0 255 255
4  1042 1045 1139 1132  0 255 255
4  1042 1020 1019 863  0 255 255
4  1041 797 756 755  255 0 0
4  864 866 852 587  0 255 255
6  864 1017 994 983 1147 866  0 255 255
7  817 932 651 983 994 1008 1002  0 255 255
4  989 785 784 821  0 255 255
7  1033 947 498 403 404 496 1034  255 0 0
4  1033 1077 838 947  255 0 0
9  1034 1124 457 464 460 462 626 1077 1033  255 0 0
4  918 663 352 351  255 0 0
3  922 490 489  255 0 0
4  922 884 886 827  255 0 0
4  924 298 161 300  255 0 0
6  922 489 1130 1128 356 884  255 0 0
5  924 1058 812 907 298  255 0 0
4  625 463 405 1079  255 0 0
4  1027 351 352 664  255 0 0
4  1027 1117 370 491  255 0 0
7  1027 664 1131 1128 1130 493 1117  255 0 0
4  864 863 1019 1017  0 255 255
5  1008 994 1017 1019 776  0 255 255
4  14 15 590 486  0 255 255
4  14 3 656 972  255 0 0
4  755 754 786 1014  255 0 0
6  1018 966 949 861 869 420  255 0 0
4  827 886 889 920  255 0 0
4  812 920 889 907  255 0 0
4  1015 950 949 966  255 0 0
5  813 1073 449 448 1069  0 255 255
4  1013 734 690 689  0 255 255
7  813 452 453 897 1072 407 1073  0 255 255
4  1013 689 1074 737  0 255 255
5  820 740 648 738 818  0 255 255
7  813 725 735 909 1133 316 452  0 255 255
4  776 1019 1020 775  0 255 255
4  1008 776 1004 1002  0 255 255
4  817 1002 1004 814  0 255 255
4  999 998 612 615  0 255 255
4  932 817 816 931  0 255 255
5  932 1151 623 652 651  0 255 255
4  928 624 622 1156  0 255 255
4  991 1125 986 913  0 255 255
4  991 990 989 1125  0 255 255
5  989 821 810 808 1125  0 255 255
4  913 1091 1090 915  0 255 255
6  913 986 927 1140 661 1091  0 255 255
4  986 806 870 927  0 255 255
4  985 1077 626 984  255 0 0
4  985 946 838 1077  255 0 0
10  985 984 634 630 631 854 1119 877 917 946  255 0 0
4  983 651 652 1147  0 255 255
4  866 855 826 852  0 255 255
4  866 1147 652 855  0 255 255
8  865 857 856 1154 684 1102 696 671  0 255 255
4  977 1112 1111 956  0 255 255
4  958 1050 1051 979  0 255 255
4  1151 932 931 661  0 255 255
3  724 743 744  0 255 255
7  724 624 721 703 702 1146 701  0 255 255
3  724 622 624  0 255 255
7  1154 856 652 623 622 724 744  0 255 255
4  1156 622 623 1151  0 255 255
5  1132 774 775 1020 1042  0 255 255
4  927 870 819 928  0 255 255
4  990 991 1115 1082  0 255 255
4  844 972 656 975  255 0 0
4  943 859 898 959  0 255 255
4  943 658 384 385  0 255 255
4  959 898 896 901  0 255 255
4  943 1129 1093 658  0 255 255
4  943 959 951 1129  0 255 255
9  298 52 285 231 281 218 286 299 161  255 0 0
7  907 1023 903 518 285 52 298  255 0 0
4  903 1023 988 888  255 0 0
5  285 518 512 287 50  255 0 0
5  903 1001 834 512 518  255 0 0
4  862 781 676 861  255 0 0
4  283 782 781 862  255 0 0
4  901 599 1036 952  0 255 255
10  901 896 745 748 790 894 668 669 899 604  0 255 255
4  959 901 952 951  0 255 255
9  958 1035 1036 1127 1111 1086 883 580 1050  0 255 255
4  956 1111 1127 954  0 255 255
4  952 1036 1035 951  0 255 255
5  587 852 836 851 585  0 255 255
5  917 877 663 918 803  255 0 0
4  498 484 483 497  255 0 0
4  917 837 838 946  255 0 0
3  820 818 811  0 255 255
5  841 642 639 638 716  0 255 255
4  943 385 433 859  0 255 255
4  942 387 386 657  0 255 255
4  590 584 583 589  0 255 255
4  937 1105 662 1083  0 255 255
4  935 1104 1103 727  0 255 255
4  937 727 1103 1105  0 255 255
5  931 816 1083 662 661  0 255 255
4  928 1156 1140 927  0 255 255
4  497 402 403 498  255 0 0
3  308 236 557  255 0 0
4  497 667 326 402  255 0 0
5  924 300 303 1055 1058  255 0 0
6  308 557 659 660 1055 303  255 0 0
4  497 847 783 667  255 0 0
4  922 827 783 847  255 0 0
4  827 920 1157 783  255 0 0
4  920 812 660 1157  255 0 0
4  812 1058 1055 660  255 0 0
5  918 351 1027 801 803  255 0 0
4  917 803 801 837  255 0 0
5  915 910 911 912 913  0 255 255
4  889 988 1023 907  255 0 0
5  906 521 551 1075 330  255 0 0
5  290 250 953 521 906  255 0 0
4  290 906 522 252  255 0 0
4  888 988 987 879  255 0 0
4  903 888 1003 1001  255 0 0
4  840 902 900 899  0 255 255
4  840 641 642 841  0 255 255
4  899 669 641 840  0 255 255
4  899 900 600 604  0 255 255
6  901 604 600 598 596 599  0 255 255
4  840 788 711 902  0 255 255
4  892 606 668 894  0 255 255
5  892 0 10 860 543  0 255 255
4  894 9 0 892  0 255 255
5  898 778 832 831 896  0 255 255
5  894 790 791 8 9  0 255 255
3  892 607 606  0 255 255
4  886 987 988 889  255 0 0
5  879 987 1123 878 511  255 0 0
4  888 879 973 1003  255 0 0
8  664 881 1006 880 318 357 1118 1131  255 0 0
4  884 1123 987 886  255 0 0
5  884 356 1122 926 1123  255 0 0
5  881 664 352 1066 846  255 0 0
4  881 846 532 1006  255 0 0
5  878 1123 926 925 974  255 0 0
4  879 511 971 973  255 0 0
4  878 974 971 511  255 0 0
5  877 1119 1114 575 663  255 0 0
5  663 575 1070 1066 352  255 0 0
4  806 986 1125 808  0 255 255
10  819 870 806 811 818 742 936 930 940 938  0 255 255
4  869 673 672 868  255 0 0
4  861 949 950 862  255 0 0
4  861 676 673 869  255 0 0
9  644 574 1070 575 853 632 629 633 643  255 0 0
4  644 1079 405 569  255 0 0
10  868 672 538 419 354 535 674 636 570 455  255 0 0
4  868 421 420 869  255 0 0
8  644 569 636 674 355 534 1007 574  255 0 0
3  868 455 421  255 0 0
4  852 826 583 836  0 255 255
3  867 1108 423  0 255 255
3  865 423 857  0 255 255
4  834 1001 1003 833  255 0 0
5  287 512 513 471 288  255 0 0
3  834 513 512  255 0 0
4  587 586 863 864  0 255 255
5  860 10 1 610 608  0 255 255
4  859 777 778 898  0 255 255
4  859 433 432 777  0 255 255
4  612 718 616 613  0 255 255
4  857 855 652 856  0 255 255
4  1156 1151 661 1140  0 255 255
6  867 422 1143 784 785 1108  0 255 255
6  865 734 1013 1143 422 423  0 255 255
3  867 423 422  0 255 255
8  1143 1013 737 413 1148 380 740 784  0 255 255
4  821 784 740 820  0 255 255
4  796 719 720 795  255 0 0
4  796 488 368 719  255 0 0
4  837 801 487 492  255 0 0
4  1027 491 487 801  255 0 0
4  796 492 487 488  255 0 0
4  979 1093 1035 958  0 255 255
4  951 1035 1093 1129  0 255 255
4  1119 854 1113 1114  255 0 0
4  575 1114 1113 853  255 0 0
5  854 631 632 853 1113  255 0 0
4  826 588 589 583  0 255 255
5  1108 785 825 588 826  0 255 255
5  1108 826 855 857 423  0 255 255
4  1075 551 531 1099  255 0 0
4  1099 531 505 510  255 0 0
5  1075 1099 533 552 329  255 0 0
6  574 530 1076 846 1066 1070  255 0 0
4  636 569 405 406  255 0 0
4  574 510 505 530  255 0 0
5  1099 510 1009 508 533  255 0 0
4  574 1007 1009 510  255 0 0
5  797 573 424 572 756  255 0 0
4  1091 661 662 1090  0 255 255
4  1090 662 1105 1088  0 255 255
4  816 815 937 1083  0 255 255
5  829 777 432 431 435  0 255 255
4  832 778 777 829  0 255 255
5  585 851 584 16 17  0 255 255
4  851 836 583 584  0 255 255
4  717 824 996 1120  0 255 255
4  716 713 1000 712  0 255 255
4  769 398 399 768  0 255 255
5  769 763 391 392 398  0 255 255
4  850 759 995 822  0 255 255
4  769 823 1043 763  0 255 255
3  768 399 800  0 255 255
5  849 800 399 789 618  0 255 255
6  620 944 563 562 479 766  0 255 255
4  620 967 965 602  0 255 255
4  766 1012 967 620  0 255 255
7  1081 573 797 798 794 795 720  255 0 0
4  1081 720 567 425  255 0 0
5  773 752 572 424 425  255 0 0
4  773 568 369 772  255 0 0
4  1081 425 424 573  255 0 0
4  773 425 567 568  255 0 0
7  813 350 733 705 376 378 726  0 255 255
5  906 330 329 552 522  255 0 0
3  1075 329 330  255 0 0
4  303 300 161 160  255 0 0
4  839 973 971 507  255 0 0
4  357 974 925 1118  255 0 0
5  357 318 317 874 416  255 0 0
4  846 1076 527 532  255 0 0
4  357 507 971 974  255 0 0
5  839 507 417 1044 1098  255 0 0
4  357 416 417 507  255 0 0
4  779 645 372 373  255 0 0
5  779 592 1 10 645  255 0 0
4  653 13 12 654  255 0 0
4  13 615 614 12  0 255 255
4  1 592 591 11  255 0 0
4  1 11 611 610  0 255 255
5  753 467 466 1053 830  255 0 0
4  841 716 788 840  0 255 255
4  833 1003 973 839  255 0 0
5  833 839 1098 970 545  255 0 0
5  838 837 492 796 793  255 0 0
5  834 833 545 471 513  255 0 0
4  830 628 787 786  255 0 0
4  11 12 614 611  0 255 255
4  11 591 654 12  255 0 0
6  783 1157 660 659 502 667  255 0 0
4  485 589 588 825  0 255 255
4  824 364 566 996  0 255 255
4  712 1000 564 565  0 255 255
4  823 565 564 1043  0 255 255
4  822 995 566 364  0 255 255
4  821 820 811 810  0 255 255
4  628 830 1053 627  255 0 0
5  860 608 607 892 543  0 255 255
6  725 494 430 429 389 741  0 255 255
4  819 938 939 721  0 255 255
4  725 741 736 735  0 255 255
4  818 738 739 742  0 255 255
4  817 814 815 816  0 255 255
3  813 726 725  0 255 255
4  811 806 808 810  0 255 255
5  0 555 372 645 10  255 0 0
4  9 554 555 0  255 0 0
4  796 795 794 793  255 0 0
4  790 748 749 791  0 255 255
4  791 749 750 792  0 255 255
5  789 399 398 1021 919  0 255 255
4  789 562 563 618  0 255 255
4  618 563 571 617  0 255 255
3  621 902 711  0 255 255
4  621 619 597 603  0 255 255
4  621 711 710 619  0 255 255
4  716 712 711 788  0 255 255
4  787 655 594 786  255 0 0
4  486 590 589 485  0 255 255
4  740 380 379 648  0 255 255
4  667 502 325 326  255 0 0
6  782 278 257 516 525 781  255 0 0
6  782 283 103 104 237 278  255 0 0
5  781 525 524 338 1037  255 0 0
5  780 555 554 682 681  255 0 0
4  780 373 372 555  255 0 0
4  770 1110 760 767  0 255 255
4  771 1016 761 768  0 255 255
5  766 479 396 482 762  0 255 255
5  770 1012 766 762 1110  0 255 255
4  769 768 761 765  0 255 255
7  767 474 478 1011 582 1084 1112  0 255 255
4  767 760 475 474  0 255 255
4  762 757 964 1110  0 255 255
5  763 759 561 481 391  0 255 255
4  760 758 558 475  0 255 255
5  764 675 650 415 414  0 255 255
4  762 482 560 757  0 255 255
4  758 760 1110 964  0 255 255
4  759 763 1043 995  0 255 255
5  758 757 560 559 558  0 255 255
6  756 572 752 962 754 755  255 0 0
4  751 468 467 753  255 0 0
4  753 830 963 751  255 0 0
4  752 751 963 962  255 0 0
4  748 745 746 749  0 255 255
4  749 746 747 750  0 255 255
4  743 724 701 722  0 255 255
5  741 389 1155 388 736  0 255 255
5  742 739 934 929 936  0 255 255
4  738 699 698 739  0 255 255
6  739 698 388 1155 941 934  0 255 255
5  738 648 379 646 699  0 255 255
5  736 388 698 700 1134  0 255 255
4  737 1074 321 413  0 255 255
5  736 1134 908 909 735  0 255 255
3  733 350 349  0 255 255
4  732 706 705 733  0 255 255
5  732 1135 730 704 706  0 255 255
5  733 349 1065 1135 732  0 255 255
5  704 688 683 1146 702  0 255 255
4  729 680 685 686  0 255 255
4  730 1135 1134 700  0 255 255
4  731 383 382 1101  0 255 255
4  704 686 685 688  0 255 255
7  729 687 382 375 374 678 680  0 255 255
3  731 1101 1025  0 255 255
6  730 1025 1101 687 686 704  0 255 255
3  729 686 687  0 255 255
6  726 428 427 430 494 725  0 255 255
4  726 378 410 428  0 255 255
4  722 683 679 723  0 255 255
4  722 701 1146 683  0 255 255
4  368 567 720 719  255 0 0
4  642 605 454 714  0 255 255
4  718 579 578 616  0 255 255
4  642 714 640 639  0 255 255
4  717 1120 577 576  0 255 255
4  716 638 637 713  0 255 255
4  715 616 578 640  0 255 255
4  713 1120 996 1000  0 255 255
4  713 637 577 1120  0 255 255
4  712 565 710 711  0 255 255
4  565 709 619 710  0 255 255
3  1133 909 908  0 255 255
5  452 441 1061 1062 453  0 255 255
3  1065 349 348  0 255 255
7  1065 452 316 1133 908 1134 1135  0 255 255
5  1127 1036 599 595 601  0 255 255
9  601 595 596 598 597 617 571 945 602  0 255 255
4  1022 656 655 787  255 0 0
4  616 715 609 613  0 255 255
4  1112 1084 1086 1111  0 255 255
5  1102 684 374 375 1144  0 255 255
3  1101 382 687  0 255 255
4  1102 1144 670 696  0 255 255
5  1011 1056 1052 885 582  0 255 255
5  1011 478 477 480 1010  0 255 255
4  1084 882 883 1086  0 255 255
4  1084 582 885 882  0 255 255
4  626 462 363 362  255 0 0
6  389 703 721 939 941 1155  0 255 255
5  706 704 702 703 389  0 255 255
5  389 377 376 705 706  0 255 255
5  697 411 412 695 1024  0 255 255
6  697 1064 1152 322 321 411  0 255 255
5  697 647 646 1152 1064  0 255 255
5  699 646 647 700 698  0 255 255
5  813 1069 347 346 350  0 255 255
6  1073 407 1072 895 450 449  0 255 255
5  1072 976 982 893 895  0 255 255
4  1072 897 891 976  0 255 255
4  1069 451 344 347  0 255 255
5  1069 448 445 446 451  0 255 255
5  451 359 1031 441 452  0 255 255
6  1065 348 345 344 451 452  0 255 255
5  1024 695 1092 383 731  0 255 255
5  443 359 446 439 1029  0 255 255
3  443 1031 359  0 255 255
4  1000 996 566 564  0 255 255
4  1043 564 566 995  0 255 255
5  676 542 401 540 673  255 0 0
5  676 1038 337 541 542  255 0 0
4  781 1037 1038 676  255 0 0
5  695 412 689 692 694  0 255 255
3  693 383 1092  0 255 255
3  694 692 691  0 255 255
3  696 670 671  0 255 255
5  693 635 375 382 383  0 255 255
6  695 694 691 635 693 1092  0 255 255
4  689 412 411 1074  0 255 255
4  635 670 1144 375  0 255 255
5  692 689 690 635 691  0 255 255
5  688 685 680 679 683  0 255 255
3  679 680 677  0 255 255
4  578 577 637 640  0 255 255
4  655 654 591 594  255 0 0
7  1025 730 700 647 697 1024 731  0 255 255
5  714 454 609 715 640  0 255 255
4  786 594 593 1014  255 0 0
5  1010 480 1087 481 675  0 255 255
4  675 481 561 650  0 255 255
3  680 678 677  0 255 255
3  679 677 678  0 255 255
4  673 540 539 672  255 0 0
4  650 561 1138 649  0 255 255
3  672 539 538  255 0 0
5  674 535 992 366 355  255 0 0
4  669 668 606 641  0 255 255
5  641 606 544 605 642  0 255 255
4  666 499 500 501  255 0 0
4  665 501 500 556  255 0 0
5  659 557 236 314 335  255 0 0
5  659 335 333 325 502  255 0 0
4  656 653 654 655  255 0 0
6  646 379 380 1148 322 1152  0 255 255
4  643 1106 1079 644  255 0 0
4  640 637 638 639  0 255 255
4  458 463 363 459  255 0 0
4  458 465 381 406  255 0 0
5  636 406 381 548 570  255 0 0
4  458 406 405 463  255 0 0
4  633 629 630 634  255 0 0
4  631 630 629 632  255 0 0
4  625 362 363 463  255 0 0
4  603 900 902 621  0 255 255
4  603 597 598 600  0 255 255
4  602 945 944 620  0 255 255
4  614 613 609 611  0 255 255
4  615 612 613 614  0 255 255
4  611 609 608 610  0 255 255
5  608 605 544 606 607  0 255 255
3  603 600 900  0 255 255
3  599 596 595  0 255 255
4  594 591 592 593  255 0 0
4  587 585 17 586  0 255 255
3  581 882 885  0 255 255
4  580 883 882 581  0 255 255
4  580 1060 1048 1050  0 255 255
4  581 885 1060 580  0 255 255
4  579 576 577 578  0 255 255
4  563 944 945 571  0 255 255
5  456 465 461 464 457  255 0 0
4  456 548 381 465  255 0 0
4  369 568 567 368  255 0 0
6  453 1062 442 358 447 980  0 255 255
4  453 978 891 897  0 255 255
3  453 980 978  0 255 255
4  562 789 395 872  0 255 255
4  482 905 904 997  0 255 255
6  482 997 948 476 559 560  0 255 255
4  559 476 475 558  0 255 255
5  556 336 313 221 196  255 0 0
4  541 337 338 524  255 0 0
6  541 547 553 1116 1142 400  255 0 0
4  524 546 547 541  255 0 0
4  523 546 472 514  255 0 0
4  553 547 546 523  255 0 0
4  523 323 324 553  255 0 0
5  552 343 1046 515 522  255 0 0
6  521 520 550 916 1097 551  255 0 0
4  549 968 969 1095  255 0 0
4  519 469 968 549  255 0 0
4  519 549 550 520  255 0 0
4  465 458 459 461  255 0 0
4  546 524 517 472  255 0 0
4  545 968 469 471  255 0 0
4  471 469 289 288  255 0 0
4  537 418 419 538  255 0 0
4  537 400 1142 418  255 0 0
4  542 541 400 401  255 0 0
4  540 401 400 537  255 0 0
4  540 537 538 539  255 0 0
3  534 355 366  255 0 0
3  535 354 353  255 0 0
5  536 418 340 339 509  255 0 0
4  534 508 1009 1007  255 0 0
5  536 353 354 419 418  255 0 0
4  536 509 960 353  255 0 0
5  535 353 960 993 992  255 0 0
4  534 366 367 508  255 0 0
4  533 508 367 342  255 0 0
5  532 526 873 880 1006  255 0 0
4  532 527 504 526  255 0 0
4  530 331 527 1076  255 0 0
5  531 528 503 332 505  255 0 0
4  530 505 332 331  255 0 0
5  529 876 875 506 526  255 0 0
5  526 506 874 317 873  255 0 0
4  527 331 332 503  255 0 0
5  529 526 504 503 528  255 0 0
3  527 503 504  255 0 0
4  256 140 472 517  255 0 0
4  257 256 517 516  255 0 0
4  525 516 517 524  255 0 0
4  254 514 472 140  255 0 0
4  254 253 360 514  255 0 0
4  523 514 360 323  255 0 0
5  522 515 470 112 252  255 0 0
4  250 1039 955 953  255 0 0
3  250 290 251  255 0 0
3  250 248 1039  255 0 0
4  521 953 957 520  255 0 0
4  246 289 469 519  255 0 0
3  248 68 71  255 0 0
6  246 519 520 957 248 71  255 0 0
3  515 1046 470  255 0 0
5  509 342 367 993 960  255 0 0
3  506 875 874  255 0 0
5  500 327 334 336 556  255 0 0
4  499 328 327 500  255 0 0
4  496 404 361 495  255 0 0
4  495 361 328 499  255 0 0
3  493 370 1117  255 0 0
4  491 370 371 487  255 0 0
4  488 487 371 368  255 0 0
4  479 562 319 921  0 255 255
4  480 1021 392 1087  0 255 255
4  482 396 872 905  0 255 255
5  480 477 473 919 1021  0 255 255
4  481 1087 392 391  0 255 255
4  476 948 887 397  0 255 255
4  479 921 923 396  0 255 255
4  478 474 473 477  0 255 255
4  473 320 319 919  0 255 255
4  473 397 887 320  0 255 255
5  476 397 473 474 475  0 255 255
4  470 360 253 112  255 0 0
4  464 461 459 460  255 0 0
4  462 460 459 363  255 0 0
3  451 446 359  0 255 255
3  450 895 893  0 255 255
6  450 981 444 445 448 449  0 255 255
4  447 438 437 444  0 255 255
4  444 437 440 445  0 255 255
4  444 981 980 447  0 255 255
4  445 440 439 446  0 255 255
3  442 1062 1061  0 255 255
5  443 1029 1028 358 1031  0 255 255
5  442 1061 441 1031 358  0 255 255
4  438 447 358 1028  0 255 255
4  440 437 438 439  0 255 255
4  436 433 385 387  0 255 255
4  387 385 384 386  0 255 255
4  434 432 433 436  0 255 255
3  434 431 432  0 255 255
5  430 427 409 408 429  0 255 255
4  429 408 377 389  0 255 255
4  428 410 409 427  0 255 255
4  416 874 875 417  255 0 0
4  417 875 876 1044  255 0 0
4  386 384 414 415  0 255 255
3  411 321 1074  0 255 255
4  413 321 322 1148  0 255 255
5  410 378 377 408 409  0 255 255
4  404 403 402 361  255 0 0
4  361 402 326 328  255 0 0
4  968 545 970 969  255 0 0
4  1046 323 360 470  255 0 0
4  343 324 323 1046  255 0 0
4  343 552 533 342  255 0 0
6  553 324 343 342 509 1116  255 0 0
6  551 1097 914 1096 528 531  255 0 0
7  529 1095 969 970 1098 1044 876  255 0 0
4  550 1096 914 916  255 0 0
4  549 1095 1096 550  255 0 0
4  528 1096 1095 529  255 0 0
5  1116 509 339 341 1142  255 0 0
4  609 454 605 608  0 255 255
3  1097 916 914  255 0 0
3  398 392 1021  0 255 255
4  396 923 871 872  0 255 255
4  394 905 872 395  0 255 255
4  394 393 904 905  0 255 255
4  395 390 393 394  0 255 255
4  885 1052 1048 1060  0 255 255
4  1052 1051 1050 1048  0 255 255
4  248 957 955 1039  255 0 0
4  1037 338 337 1038  255 0 0
3  378 376 377  0 255 255
4  371 370 369 368  255 0 0
4  366 992 993 367  255 0 0
4  328 326 325 327  255 0 0
4  439 438 1028 1029  0 255 255
4  390 395 789 919  0 255 255
3  1016 765 761  0 255 255
4  923 887 948 997  0 255 255
4  997 904 871 923  0 255 255
4  393 390 871 904  0 255 255
5  356 1128 1131 1118 1122  255 0 0
4  450 893 890 981  0 255 255
3  982 890 893  0 255 255
4  982 976 891 890  0 255 255
5  981 890 891 978 980  0 255 255
4  941 939 938 940  0 255 255
4  1142 341 340 418  255 0 0
4  1122 1118 925 926  255 0 0
3  758 964 757  0 255 255
5  963 830 786 754 962  255 0 0
4  336 335 314 313  255 0 0
4  335 336 334 333  255 0 0
5  350 346 345 348 349  0 255 255
4  347 344 345 346  0 255 255
3  341 339 340  255 0 0
4  327 325 333 334  255 0 0
3  957 953 955  255 0 0
4  887 923 921 320  0 255 255
5  940 930 929 934 941  0 255 255
3  936 929 930  0 255 255
3  921 319 320  0 255 255
4  871 390 919 319  0 255 255
4  880 873 317 318  255 0 0
4  872 871 319 562  0 255 255
6  236 308 226 189 155 154  255 0 0
7  314 236 154 220 148 221 313  255 0 0
5  196 221 148 149 197  255 0 0
7  311 230 197 149 229 306 312  255 0 0
3  312 306 307  255 0 0
5  312 307 295 304 311  255 0 0
4  257 278 263 258  255 0 0
3  310 275 274  255 0 0
4  310 204 205 275  255 0 0
7  310 274 78 77 144 297 204  255 0 0
4  47 46 215 267  255 0 0
5  309 81 156 190 305  255 0 0
6  309 293 195 79 80 81  255 0 0
5  309 305 228 294 293  255 0 0
5  308 303 294 228 226  255 0 0
3  41 40 46  255 0 0
3  307 296 295  255 0 0
7  306 235 244 84 243 296 307  255 0 0
3  305 226 228  255 0 0
4  305 190 189 226  255 0 0
4  306 229 233 235  255 0 0
4  304 301 198 302  255 0 0
6  295 292 224 284 301 304  255 0 0
4  303 160 162 294  255 0 0
4  34 43 188 35  255 0 0
4  276 210 209 29  255 0 0
4  31 208 207 212  255 0 0
5  29 209 168 167 30  255 0 0
10  29 47 264 170 260 62 186 261 239 240  255 0 0
5  276 51 166 165 210  255 0 0
4  31 30 167 208  255 0 0
4  31 212 146 19  255 0 0
4  276 285 50 51  255 0 0
4  301 282 120 198  255 0 0
4  292 175 222 224  255 0 0
3  301 284 282  255 0 0
3  299 160 161  255 0 0
3  299 286 159  255 0 0
4  291 87 85 225  255 0 0
5  299 159 158 162 160  255 0 0
4  291 225 66 65  255 0 0
6  39 27 132 131 127 135  255 0 0
4  39 135 203 40  255 0 0
3  297 144 143  255 0 0
7  297 143 76 102 63 205 204  255 0 0
4  296 243 292 295  255 0 0
3  291 65 67  255 0 0
5  294 162 158 195 293  255 0 0
4  243 174 175 292  255 0 0
5  47 267 262 171 264  255 0 0
5  83 55 174 243 84  255 0 0
4  83 82 67 270  255 0 0
5  291 67 82 79 87  255 0 0
5  83 270 271 56 55  255 0 0
5  290 252 134 129 251  255 0 0
4  211 51 50 287  255 0 0
7  211 287 288 289 246 247 147  255 0 0
4  286 116 86 159  255 0 0
6  159 86 85 191 227 158  255 0 0
6  286 218 123 117 114 116  255 0 0
4  276 232 231 285  255 0 0
6  284 224 222 119 118 282  255 0 0
3  282 118 120  255 0 0
4  281 231 126 122  255 0 0
5  280 238 119 222 223  255 0 0
5  280 116 114 115 279  255 0 0
4  271 65 66 223  255 0 0
4  268 157 179 232  255 0 0
5  281 122 91 123 218  255 0 0
7  280 279 241 183 180 182 238  255 0 0
6  280 223 66 225 86 116  255 0 0
5  271 223 222 175 56  255 0 0
6  263 275 205 63 64 258  255 0 0
4  279 115 145 241  255 0 0
4  278 237 172 263  255 0 0
3  19 188 43  255 0 0
5  35 266 75 255 36  255 0 0
4  212 211 147 146  255 0 0
6  19 146 147 247 53 188  255 0 0
5  35 188 53 54 266  255 0 0
4  275 263 262 274  255 0 0
4  272 113 111 199  255 0 0
4  140 256 217 139  255 0 0
4  254 140 139 199  255 0 0
4  277 136 137 269  255 0 0
4  277 240 239 136  255 0 0
5  277 269 268 232 240  255 0 0
4  29 240 232 276  255 0 0
6  273 121 107 106 113 272  255 0 0
5  274 262 267 215 78  255 0 0
3  273 94 121  255 0 0
5  273 272 199 95 94  255 0 0
6  40 203 95 163 215 46  255 0 0
4  270 67 65 271  255 0 0
4  269 137 157 268  255 0 0
4  259 169 181 183  255 0 0
4  219 124 125 194  255 0 0
4  219 115 114 117  255 0 0
4  194 125 88 177  255 0 0
4  194 99 98 184  255 0 0
4  183 241 185 259  255 0 0
4  183 181 110 180  255 0 0
4  219 242 145 115  255 0 0
4  194 184 242 219  255 0 0
4  217 102 76 142  255 0 0
4  217 64 63 102  255 0 0
5  135 108 121 94 203  255 0 0
5  203 94 93 216 202  255 0 0
4  134 106 105 128  255 0 0
4  199 139 138 201  255 0 0
4  134 111 113 106  255 0 0
3  37 36 255  255 0 0
4  265 247 70 69  255 0 0
3  133 26 25  255 0 0
4  129 134 128 130  255 0 0
6  37 255 75 74 213 24  255 0 0
4  265 54 53 247  255 0 0
6  266 54 265 69 72 75  255 0 0
4  133 25 245 129  255 0 0
5  264 173 150 153 170  255 0 0
3  264 171 173  255 0 0
4  259 185 187 260  255 0 0
4  263 172 171 262  255 0 0
4  261 101 100 193  255 0 0
4  193 100 99 194  255 0 0
5  193 49 178 239 261  255 0 0
4  260 170 169 259  255 0 0
4  260 187 61 62  255 0 0
4  261 186 97 101  255 0 0
5  258 64 217 256 257  255 0 0
5  249 245 214 73 72  255 0 0
5  199 111 112 253 254  255 0 0
4  252 112 111 134  255 0 0
5  249 72 69 68 248  255 0 0
6  129 245 249 248 250 251  255 0 0
4  247 246 71 70  255 0 0
5  24 213 214 245 25  255 0 0
6  244 81 80 82 83 84  255 0 0
3  244 235 233  255 0 0
3  229 234 233  255 0 0
5  244 233 234 156 81  255 0 0
3  184 59 60  255 0 0
4  185 241 145 60  255 0 0
4  184 60 145 242  255 0 0
4  178 137 136 239  255 0 0
3  178 49 48  255 0 0
4  179 157 89 88  255 0 0
4  179 125 124 126  255 0 0
3  238 118 119  255 0 0
4  172 169 152 151  255 0 0
4  237 181 169 172  255 0 0
6  238 182 104 103 120 118  255 0 0
4  237 104 110 181  255 0 0
5  234 229 149 148 220  255 0 0
4  234 220 155 156  255 0 0
3  126 124 92  255 0 0
4  232 179 126 231  255 0 0
3  230 196 197  255 0 0
6  227 192 87 79 195 158  255 0 0
3  220 154 155  255 0 0
3  225 85 86  255 0 0
3  227 191 192  255 0 0
4  219 117 92 124  255 0 0
3  216 200 202  255 0 0
4  215 141 77 78  255 0 0
4  217 142 138 139  255 0 0
4  216 93 96 200  255 0 0
4  215 163 58 141  255 0 0
4  213 74 73 214  255 0 0
4  211 206 166 51  255 0 0
4  212 207 206 211  255 0 0
4  210 165 168 209  255 0 0
5  208 167 166 206 207  255 0 0
5  201 138 142 58 164  255 0 0
5  203 202 200 96 95  255 0 0
4  201 164 95 199  255 0 0
4  155 189 190 156  255 0 0
4  193 176 48 49  255 0 0
4  194 177 176 193  255 0 0
4  191 85 87 192  255 0 0
4  186 62 59 184  255 0 0
4  187 185 60 61  255 0 0
4  186 184 98 97  255 0 0
4  182 180 110 104  255 0 0
3  179 88 125  255 0 0
4  178 48 90 137  255 0 0
4  177 88 48 176  255 0 0
4  174 55 56 175  255 0 0
5  173 171 172 151 150  255 0 0
4  170 153 152 169  255 0 0
4  168 165 166 167  255 0 0
4  164 58 163 95  255 0 0
4  137 90 89 157  255 0 0
4  153 150 151 152  255 0 0
3  79 82 80  255 0 0
5  144 77 57 76 143  255 0 0
4  142 76 57 58  255 0 0
4  141 58 57 77  255 0 0
4  135 127 109 108  255 0 0
4  132 27 26 133  255 0 0
4  130 128 127 131  255 0 0
5  133 129 130 131 132  255 0 0
4  128 105 109 127  255 0 0
4  117 123 91 92  255 0 0
4  126 92 91 122  255 0 0
3  121 108 107  255 0 0
5  109 105 106 107 108  255 0 0
5  101 97 98 99 100  255 0 0
4  96 93 94 95  255 0 0
4  90 48 88 89  255 0 0
4  75 72 73 74  255 0 0
4  71 68 69 70  255 0 0
4  62 61 60 59  255 0 0
5  47 29 32 44 45  255 0 0
7  45 44 22 21 33 38 42  255 0 0
5  47 45 42 41 46  255 0 0
4  44 32 23 22  255 0 0
4  43 34 18 19  255 0 0
6  31 19 18 33 21 20  255 0 0
7  42 38 28 27 39 40 41  255 0 0
9  38 33 18 34 35 36 37 24 28  255 0 0
6  32 29 30 31 20 23  255 0 0
5  28 24 25 26 27  255 0 0
4  23 20 21 22  255 0 0
8  17 5 4 2 3 14 15 16  255 0 0
8  5 17 16 15 14 3 2 4  0 255 255
5  13 3 1 11 12  255 0 0
5  3 13 12 11 1  0 255 255
3  10 1 0  255 0 0
3  1 10 0  0 255 255
8  9 0 1 3 2 6 7 8  255 0 0
8  0 9 8 7 6 2 3 1  0 255 255

