OFF
1043 1009 0

34.9895 11.1681 -4.17435
33.7544 10.273 -1.4069
34.9512 11.1403 0.419571
27.6119 5.8213 -4.17435
27.6119 5.8213 -1.4069
27.6119 5.8213 -7.41226
34.9895 11.1681 -7.41226
34.9895 11.1681 -1.4069
34.9895 11.1681 0.418766
34.9512 11.1403 1.52169
33.7544 10.273 1.52169
33.7544 10.273 0.444707
20.3939 15.8953 -7.41226
22.2788 13.1562 -7.41226
20.3939 15.8953 -4.17435
22.2788 13.1562 -4.17435
14.5122 24.4423 -7.41226
16.5599 21.4667 -7.41226
14.5122 24.4423 -4.17435
14.5122 24.4423 -1.4069
16.5599 21.4667 -1.4069
16.5599 21.4667 -4.17435
9.59839 31.5828 -7.41226
10.7915 29.8491 -7.41226
9.59839 31.5828 -4.17435
10.7915 29.8491 -4.17435
-20.8994 -27.7519 -1.4069
-22.4038 -28.7684 -7.41226
-20.8994 -27.7519 -7.41226
-14.8193 -23.6437 -7.41226
-14.8193 -23.6437 -4.17435
-14.8193 -23.6437 -1.4069
-20.8994 -27.7519 0.232111
-20.8994 -27.7519 1.52169
-22.4038 -28.7684 1.52169
-22.4038 -28.7684 0.200336
-22.4038 -28.7684 -1.4069
-23.7049 -26.9123 3.02341
-27.3894 -21.6559 3.01899
-29.6695 -18.4031 3.01625
-33.1596 -13.4242 3.01207
-39.0014 -5.09038 3.00507
-35.3065 -10.3615 3.0095
-21.6803 -29.8005 1.52169
-21.6341 -29.8665 1.52169
-21.6341 -29.8665 1.60613
-21.6341 -29.8665 -4.20629
-21.6341 -29.8665 -7.41226
-23.7049 -26.9123 4.14867
-23.7049 -26.9123 1.52169
-23.7049 -26.9123 -2.17581
-23.7049 -26.9123 -7.41226
-26.5721 -22.822 -7.41226
-27.3894 -21.6559 -7.41226
-27.3894 -21.6559 -4.17435
-27.3894 -21.6559 1.52169
-27.3894 -21.6559 4.14867
-29.5469 -18.5781 -4.17435
-33.1596 -13.4242 -4.17435
-33.1596 -13.4242 4.14867
-29.4614 -18.7 1.52169
-29.4614 -18.7 -4.17435
-29.5469 -18.5781 -7.41226
-33.1596 -13.4242 -7.41226
-33.1596 -13.4242 1.52169
-29.6695 -18.4031 4.14867
-29.4614 -18.7 3.0165
-35.3065 -10.3615 4.14867
-35.3065 -10.3615 1.52169
-35.3065 -10.3615 -4.17435
-35.3065 -10.3615 -7.41226
-39.0014 -5.09038 -7.41226
-39.0014 -5.09038 -4.17435
-39.0014 -5.09038 1.52169
-39.0014 -5.09038 4.14867
-32.6789 1.81805 1.52169
-32.6789 1.81805 3.02551
-32.6789 1.81805 -1.4069
-32.6789 1.81805 -4.17435
-32.6789 1.81805 -7.41226
-31.6258 0.316682 -7.41226
-31.6258 0.316682 -4.17435
-31.6258 0.316682 -1.4069
-31.6258 0.316682 1.52169
-31.6258 0.316682 3.02327
-25.7813 -8.01565 -7.41226
-27.8095 -5.12403 -7.41226
-25.7813 -8.01565 -4.17435
-25.7813 -8.01565 -1.4069
-25.7813 -8.01565 1.52169
-25.7813 -8.01565 3.01086
-27.8095 -5.12403 3.01517
-27.8095 -5.12403 1.52169
-27.8095 -5.12403 -1.4069
-27.8095 -5.12403 -4.17435
-21.9453 -13.4844 1.52169
-21.9453 -13.4844 3.00272
-21.9453 -13.4844 -1.4069
-21.9453 -13.4844 -4.17435
-21.9453 -13.4844 -7.41226
-19.9118 -16.3835 -7.41226
-19.9118 -16.3835 -4.17435
-19.9118 -16.3835 -1.4069
-19.9118 -16.3835 1.52169
-19.9118 -16.3835 2.99841
-9.89924 -30.6579 1.52169
-9.6986 -30.944 1.52169
-12.269 -27.2795 1.52169
-14.139 -24.6135 1.52169
-11.1738 -22.5354 1.52169
-8.28583 -20.5113 1.52169
-2.81614 -16.6779 1.52169
0.0665913 -14.6575 1.52169
5.55095 -10.8138 1.52169
8.5625 -8.70312 1.52169
14.0469 -4.85937 1.52169
16.9149 -2.84933 1.52169
22.3992 0.994418 1.52169
25.4679 3.14511 1.52169
27.9641 4.89459 1.52169
32.3643 -1.49954 1.52169
30.1751 -3.03198 1.52169
29.7506 -3.32919 1.52169
26.8481 -5.36095 1.52169
26.6152 -5.52394 1.52169
21.3506 -9.20921 1.52169
18.4817 -11.2175 1.52169
13.1296 -14.964 1.52169
10.0017 -17.1536 1.52169
9.73801 -17.3382 1.52169
4.52585 -20.9867 1.52169
1.61194 -23.0265 1.52169
1.36599 -23.1987 1.52169
-3.84923 -26.8494 1.52169
-6.75948 -28.8866 1.52169
-6.98956 -29.0476 1.52169
-11.1738 -22.5354 1.60089
-11.1738 -22.5354 -1.4069
-11.1738 -22.5354 -4.17435
-11.1738 -22.5354 -7.41226
-8.28583 -20.5113 -7.41226
-8.28583 -20.5113 -4.17435
-8.28583 -20.5113 -1.4069
-8.28583 -20.5113 1.59945
-2.81614 -16.6779 1.59671
-2.81614 -16.6779 -1.4069
-2.81614 -16.6779 -4.17435
-2.81614 -16.6779 -7.41226
0.0665913 -14.6575 -7.41226
0.0665913 -14.6575 -4.17435
0.0665913 -14.6575 -1.4069
0.0665913 -14.6575 1.59527
8.5625 -8.70312 -7.41226
5.55095 -10.8138 -7.41226
8.5625 -8.70312 -4.17435
8.5625 -8.70312 -1.4069
8.5625 -8.70312 1.59102
5.55095 -10.8138 1.59253
5.55095 -10.8138 -1.4069
5.55095 -10.8138 -4.17435
14.0469 -4.85937 1.58827
14.0469 -4.85937 -1.4069
14.0469 -4.85937 -4.17435
14.0469 -4.85937 -7.41226
16.9149 -2.84933 -7.41226
16.9149 -2.84933 -4.17435
16.9149 -2.84933 -1.4069
16.9149 -2.84933 1.58684
22.3992 0.994418 1.58409
22.3992 0.994418 -1.4069
22.3992 0.994418 -4.17435
22.3992 0.994418 -7.41226
25.2819 3.01472 -7.41226
25.4679 3.14511 -7.41226
25.4679 3.14511 -4.17435
25.4679 3.14511 -1.4069
25.4679 3.14511 1.58256
25.2819 3.01472 1.58265
-20.137 -28.8173 -1.4069
-23.3485 -31.0681 -7.41226
-22.1312 -30.2149 -7.41226
-21.0694 -29.4708 -7.41226
-20.137 -28.8173 -7.41226
-14.139 -24.6135 -7.41226
-14.139 -24.6135 -4.17435
-14.139 -24.6135 -1.4069
-20.137 -28.8173 1.52169
-21.0694 -29.4708 1.52169
-22.1312 -30.2149 1.52169
-23.3485 -31.0681 1.52169
-23.3485 -31.0681 -1.4069
28.1604 5.03213 -1.4069
28.1604 5.03213 1.52169
28.1604 5.03213 -4.17435
28.1604 5.03213 -7.41226
35.0617 9.86895 -7.41226
36.1194 10.6102 -7.41226
37.3347 11.462 -7.41226
37.3347 11.462 -1.4069
37.3347 11.462 1.52169
36.1194 10.6102 1.52169
35.6327 10.2691 1.52169
35.0617 9.86895 1.52169
34.3836 9.39373 1.52169
-12.1094 -34.9844 1.52169
-12.1094 -34.9844 -0.508892
-12.2346 -34.8062 -0.279446
-12.2346 -34.8062 1.52169
-8.60142 -32.5082 -0.491117
-8.60142 -32.5082 1.52169
-8.70705 -32.3576 1.52169
33.4583 -3.08924 1.52169
33.4583 -3.08924 -0.511178
-32.4683 1.96035 -7.41226
-32.4683 1.96035 -4.17435
10.4208 -18.3093 1.52169
21.9307 29.9376 -7.41226
21.6769 29.7739 -7.41226
24.186 26.6817 -7.41226
23.986 26.5466 -7.41226
-6.22059 -30.0962 1.52169
18.974 -12.3796 0.221344
18.974 -12.3796 -1.4069
19.2765 -12.8297 -1.4069
19.2765 -12.8297 -0.349862
2.1221 -24.2297 1.52169
14.1986 -16.458 -0.413502
14.1777 -16.4288 -0.375697
14.1777 -16.4288 1.52169
14.1986 -16.458 1.52169
10.4607 -18.366 1.52169
10.4607 -18.366 0.197966
10.7833 -18.8249 -0.392896
10.7833 -18.8249 1.52169
22.3861 1.0132 -7.41226
22.3861 1.0132 -4.17435
28.2266 21.8906 2.48048
27.7426 21.5472 3.04895
27.7426 21.5472 4.14867
28.2266 21.8906 4.14867
27.7121 -7.07784 -0.482036
-32.8133 2.00963 -4.17435
-40.3127 -3.21963 -4.17435
36.6845 12.3965 -1.4069
35.4802 11.5237 -1.4069
18.974 -12.3796 1.52169
19.2765 -12.8297 1.52169
-23.3953 -31.0015 1.52169
-24.1396 -29.9413 0.163674
-24.1396 -29.9413 1.52169
-22.9059 -29.1077 0.189731
-22.9059 -29.1077 1.52169
27.1417 -6.26972 1.52169
27.1417 -6.26972 0.560015
-0.49581 -13.8593 -7.41226
-0.44502 -13.9314 -7.41226
-0.445011 -13.9314 -4.17435
-0.49581 -13.8593 -4.17435
30.663 -3.73429 1.52169
30.8616 -4.02031 1.52169
30.8616 -4.02031 0.253988
30.663 -3.73429 0.620859
27.6166 -6.94256 -7.41226
27.7121 -7.07784 -7.41226
27.7121 -7.07784 -4.17435
27.6166 -6.94256 -4.17435
-32.4683 1.96035 -1.4069
-32.4683 1.96035 1.52169
-6.22059 -30.0962 0.152158
-6.22059 -30.0962 -1.4069
-5.96038 -30.451 -1.4069
-5.96038 -30.451 -0.311265
2.1221 -24.2297 0.175067
2.1221 -24.2297 -1.4069
2.41903 -24.6346 -1.4069
2.41903 -24.6346 -0.353762
36.6845 12.3965 1.52169
36.6845 12.3965 0.383165
37.3048 11.505 1.52169
30.2017 -4.48435 0.252176
30.2017 -4.48435 -1.4069
27.3145 -6.5146 1.52169
27.3145 -6.5146 0.244248
27.6166 -6.94256 -0.307603
27.6166 -6.94256 1.52169
18.974 -12.3796 -4.17435
19.2765 -12.8297 -4.17435
10.7851 -18.8274 -0.396191
10.7851 -18.8274 -1.4069
11.337 -19.6122 -1.4069
27.6236 21.4627 3.18869
26.8063 20.8827 4.14867
27.6236 21.4627 4.14867
-24.1396 -29.9412 -1.4069
-22.9059 -29.1076 -1.4069
-5.96038 -30.451 1.52169
28.2266 21.8906 -4.17435
27.7426 21.5472 -4.17435
27.7426 21.5472 -1.4069
28.2266 21.8906 -1.4069
19.2765 -12.8297 -7.41226
-8.70705 -32.3576 -0.297336
18.974 -12.3796 -7.41226
-32.4683 1.96035 2.7814
34.078 13.5277 -2.15547
33.5781 13.1406 -2.12372
33.57 13.1343 -2.1232
33.57 13.1343 -1.4069
34.078 13.5277 -1.4069
10.8719 29.905 1.52169
10.7915 29.8491 1.52169
10.7915 29.8491 2.99042
10.8719 29.905 3.08464
10.4607 -18.366 -1.4069
10.4607 -18.366 -4.17435
10.7833 -18.8249 -4.17435
10.7833 -18.8249 -1.4069
-31.4032 0.471703 1.52169
28.2266 21.8906 -7.41226
27.7426 21.5472 -7.41226
-31.4032 0.471703 2.76266
16.6793 21.5499 1.52169
16.5599 21.4667 1.52169
16.5599 21.4667 2.91779
16.6793 21.5499 3.0578
2.41903 -24.6346 1.52169
14.5122 24.4423 2.94357
14.5122 24.4423 1.52169
14.6177 24.516 1.52169
14.6177 24.516 3.06733
27.7121 -7.07784 -1.4069
10.8719 29.905 -1.4069
-19.7432 -16.2647 2.8003
10.7915 29.8491 -1.4069
-19.7432 -16.2647 1.52169
13.7056 -4.37014 -4.17435
13.7056 -4.37013 -7.41226
13.6532 -4.29498 -7.41226
13.6532 -4.29498 -4.17435
-21.8031 -13.3858 2.83652
-21.8031 -13.3858 1.52169
27.3145 -6.5146 -1.4069
27.6166 -6.94256 -1.4069
22.4375 13.2656 1.52169
22.2788 13.1562 1.52169
22.2788 13.1562 2.84578
10.8719 29.905 -4.17435
22.4375 13.2656 3.03119
20.3939 15.8953 2.86952
20.3939 15.8953 1.52169
20.5395 15.9963 1.52169
20.5395 15.9963 3.03996
10.4607 -18.366 -7.41226
10.7833 -18.8249 -7.41226
-25.4802 -7.80603 1.52169
-25.4802 -7.80603 2.6585
16.7931 36.5996 1.52169
16.7931 36.5996 -1.4069
16.7931 36.5996 -4.17435
-27.536 -4.93294 1.52169
-27.536 -4.93294 2.69465
17.1457 36.8455 -1.4069
9.67066 31.6332 -1.4069
-12.1094 -34.9844 -1.3131
-12.2346 -34.8062 -1.33013
10.8719 29.905 -7.41226
9.59839 31.5828 1.52169
9.59839 31.5828 3.00544
9.67066 31.6332 3.09019
18.3478 35.11 -7.41226
18.0214 34.8828 -7.41226
26.9491 4.18317 1.58182
36.4781 1.38019 1.52169
22.3861 1.0132 -1.4069
37.2394 0.273928 0.107077
37.2394 0.273928 1.52169
28.2266 21.8906 1.52169
27.7426 21.5472 1.52169
30.8546 -4.89653 -1.4069
30.8546 -4.89653 -0.497973
30.7419 -4.73651 -0.291768
14.1986 -16.458 -1.4069
30.7419 -4.73651 -1.4069
14.1777 -16.4288 -1.4069
8.49044 -8.59943 -1.4069
8.49044 -8.59943 -4.17435
27.7121 -7.07784 1.52169
2.1221 -24.2297 -4.17435
2.41903 -24.6346 -4.17435
8.49044 -8.59943 1.45865
22.3861 1.0132 1.56007
36.8672 0.0156199 1.52169
19.5326 15.2977 -4.17435
19.5326 15.2977 -7.41226
-2.937 -16.5046 1.37524
-2.85708 -16.6192 1.52169
21.912 1.69044 -4.17435
21.5915 2.14828 -4.17435
21.5915 2.14828 -1.4069
21.912 1.69044 -1.4069
34.078 13.5277 2.4721
33.57 13.1343 3.08683
33.57 13.1343 4.14867
34.078 13.5277 4.14867
27.5431 -6.35385 -1.4069
27.5431 -6.35385 -4.17435
22.0522 -10.215 0.229797
22.0522 -10.215 1.52169
21.9218 -10.0282 1.52169
21.9218 -10.0282 0.469822
30.4442 -4.31387 0.252842
30.2469 -4.03385 0.613671
-19.5336 -16.1168 -4.17435
-19.7432 -16.2647 -4.17435
-19.7432 -16.2647 -1.4069
-19.5336 -16.1168 -1.4069
-2.937 -16.5046 -4.17435
-2.937 -16.5046 -1.4069
-0.0426905 -14.5024 -1.4069
-0.0426905 -14.5024 -4.17435
14.6177 24.516 -7.41226
14.6177 24.516 -4.17435
22.4375 13.2656 -1.4069
22.2788 13.1562 -1.4069
-6.01784 -29.9536 1.52169
-6.01784 -29.9536 0.152715
-24.2025 -27.2545 2.44152
-24.2025 -27.2545 4.14867
2.34288 -24.0745 1.52169
2.34288 -24.0745 0.175674
5.25737 -22.025 0.183677
5.25737 -22.025 1.52169
36.8672 0.0156199 -1.4069
37.2109 -0.484381 -1.4069
37.2109 -0.484381 -0.530209
36.8672 0.0156199 0.108989
22.3892 30.2335 2.48884
21.9307 29.9376 3.01117
21.9307 29.9376 4.14867
22.3892 30.2335 4.14867
27.9641 4.89459 1.58131
30.1536 1.71302 5.62984
21.912 1.69044 -7.41226
21.5915 2.14828 -7.41226
-38.0386 -4.39593 4.14867
-30.1627 -18.7363 2.44294
-30.1627 -18.7363 4.14867
17.3533 34.4176 4.14867
18.0214 34.8828 4.14867
27.3694 -6.10573 0.563951
18.0214 34.8828 3.36886
27.5431 -6.35385 0.244876
33.57 13.1343 1.52169
34.078 13.5277 1.52169
14.1986 -16.458 -4.17435
14.1777 -16.4288 -4.17435
13.7056 -4.37015 -1.4069
13.6532 -4.29498 -1.4069
19.3239 -12.9004 -1.4069
19.3239 -12.9004 -4.17435
14.1986 -16.458 -7.41226
14.1777 -16.4288 -7.41226
5.55991 -22.4544 -1.4069
-22.5028 -26.593 4.14867
6.12697 -23.2593 -1.4069
-23.4483 -27.2783 3.02371
-23.4483 -27.2783 4.14867
27.5431 -6.35385 -7.41226
5.46547 -10.692 -4.17435
5.46547 -10.692 -1.4069
-12.7123 -34.6611 0.134331
-12.7123 -34.6611 -1.34878
-13.1466 -34.0541 -1.4069
-13.6379 -33.3675 -1.4069
-13.6379 -33.3675 1.52169
-13.4786 -33.59 1.52169
5.46547 -10.692 1.43657
5.51212 -10.7585 1.52169
5.55991 -22.4544 -0.369691
5.55991 -22.4544 1.52169
-33.6406 -13.7656 2.44378
-33.6406 -13.7656 1.52169
22.4242 -10.7484 -4.17435
22.4242 -10.7484 -1.4069
22.3585 -10.6542 -1.4069
22.3585 -10.6542 -4.17435
-27.8785 -22.0008 2.4424
-27.8785 -22.0008 4.14867
16.4895 -2.23944 -1.4069
16.4895 -2.23944 -4.17435
16.6079 -2.40917 -4.17435
16.6079 -2.40918 -1.4069
24.7605 3.75484 -1.4069
24.7605 3.75484 -4.17435
25.0734 3.31074 -4.17435
25.0734 3.31073 -1.4069
-6.01784 -29.9536 -1.4069
-6.01784 -29.9536 -4.17435
22.4242 -10.7484 -7.41226
22.3585 -10.6542 -7.41226
30.8546 -4.89653 -7.41226
30.8546 -4.89653 -4.17435
30.7419 -4.73651 -4.17435
30.7419 -4.73651 -7.41226
-32.1975 -12.7415 4.14867
13.7883 -15.8846 1.52169
13.7883 -15.8846 0.329282
15.5978 20.7969 -4.17435
15.5978 20.7969 -7.41226
13.497 23.733 -7.41226
13.497 23.733 -4.17435
28.001 21.174 -7.41226
20.5395 15.9963 -7.41226
8.23031 -8.22513 0.980813
8.23031 -8.22513 -1.4069
5.24998 -10.3851 -1.4069
5.24998 -10.3851 1.04341
29.9095 18.4188 3.06304
29.9095 18.4188 4.14867
30.4129 18.7659 4.14867
30.4129 18.7659 2.47735
20.3939 15.8953 -1.4069
20.5395 15.9963 -4.17435
20.5395 15.9963 -1.4069
-25.4802 -7.80603 -4.17435
-25.4802 -7.80603 -1.4069
-27.536 -4.93294 -4.17435
-27.536 -4.93294 -1.4069
-20.7717 -12.67 -1.4069
-20.7717 -12.67 -4.17435
-18.7703 -15.5786 -4.17435
-18.7703 -15.5786 -1.4069
16.1698 -1.78106 -7.41226
14.7793 0.212525 -7.41226
14.7793 0.212525 -4.17435
16.1698 -1.78106 -4.17435
24.4387 4.21173 -7.41226
-2.66454 -15.431 -7.41226
-21.5924 -13.2395 -1.4069
24.4387 4.21173 -4.17435
-21.5924 -13.2395 -4.17435
-2.66495 -15.4313 -4.17435
-10.4884 -17.3648 -7.41226
-8.89514 -19.6409 -7.41226
-8.89513 -19.6409 -4.17435
-21.8031 -13.3858 -4.17435
-21.8031 -13.3858 -1.4069
26.0572 8.05793 -1.4069
9.59839 31.5828 -1.4069
26.0572 8.05793 -2.28169
26.0572 8.05793 1.52169
13.497 23.733 -1.4069
15.5978 20.7969 -1.4069
-0.174018 -14.316 -7.41226
-29.9506 -19.0394 -4.17435
-0.0426905 -14.5024 -7.41226
5.46547 -10.692 -7.41226
-29.9506 -19.0394 1.52169
27.9641 4.89459 -1.4069
-12.4609 -34.4844 0.135021
18.3478 35.11 4.14867
-8.94799 -32.0141 1.52169
18.3478 35.11 2.98789
29.9095 18.4188 1.52169
30.4129 18.7659 1.52169
-14.2211 -24.4964 -1.4069
32.6924 12.4549 4.14867
27.9641 4.89459 -4.17435
28.9765 17.7753 4.14867
37.2109 -0.484381 1.52169
17.1457 36.8455 -4.17435
32.974 15.1056 -4.17435
33.9322 10.6797 4.14867
34.8385 11.303 3.09508
4.92893 -9.92775 -4.17435
4.92893 -9.92775 -7.41226
8.23031 -8.22513 -4.17435
3.37811 -7.71868 -7.41226
3.37811 -7.71868 -4.17435
2.1221 -24.2297 -7.41226
2.41903 -24.6346 -7.41226
5.24998 -10.3851 -4.17435
33.6924 -2.92672 -4.17435
-8.70705 -32.3576 -4.17435
-5.34521 -31.2899 -1.4069
13.8557 -15.9788 0.207289
13.8557 -15.9788 1.52169
-25.2925 -25.6967 -4.17435
-5.96038 -30.451 -4.17435
-31.4032 0.471703 -4.17435
-3.02326 -16.3809 -7.41226
-31.4032 0.471703 -1.4069
-3.35868 -15.9 -7.41226
40.2891 2.3906 -1.4069
-3.35867 -15.9001 -4.17435
-3.02326 -16.3809 -4.17435
22.1571 1.3403 -1.4069
22.1571 1.34031 -4.17435
40.2891 2.3906 -7.41226
16.7931 36.5996 -7.41226
-0.174018 -14.316 -4.17435
27.8869 21.0948 -7.41226
10.6813 -18.1217 0.275597
-22.7424 -26.2506 4.14867
10.6813 -18.1217 1.52169
-19.5336 -16.1168 -7.41226
-14.8192 -23.6437 2.9876
27.3145 -6.5146 -4.17435
35.4802 11.5237 -7.41226
27.3145 -6.5146 -7.41226
35.4802 11.5237 0.40846
-14.2211 -24.4964 -4.17435
27.988 5.28011 -4.17435
10.4593 -19.0536 -1.4069
-8.10223 -33.2199 -1.4069
-8.60142 -32.5082 -1.4069
-8.70705 -32.3576 -1.4069
16.6793 21.5499 -1.4069
17.1457 36.8455 2.98007
33.4583 -3.08924 -1.4069
33.4583 -3.08924 -4.17435
14.6177 24.516 -1.4069
36.1074 1.12068 1.52169
33.6924 -2.92672 -1.4069
13.9981 -4.7894 -4.17435
13.9981 -4.7894 -1.4069
16.8783 -2.79693 -1.4069
16.8783 -2.79693 -4.17435
2.34288 -24.0745 -1.4069
2.34288 -24.0745 -4.17435
5.25737 -22.025 -4.17435
5.55991 -22.4544 -4.17435
5.25737 -22.025 -1.4069
-30.2787 3.43984 -7.41226
-30.2787 3.43984 -4.17435
-20.137 -28.8173 1.60538
-20.1835 -28.7524 1.52169
22.1571 1.34029 1.14151
22.3651 1.04318 1.52169
15.5392 25.1597 4.14867
21.104 29.0474 4.14867
21.8325 29.5563 3.29735
-14.8192 -23.6437 0.36053
-39.4727 -5.43037 -7.41226
-39.4727 -5.43037 -4.17435
27.3694 -6.10573 1.52169
-12.1094 -34.9844 -7.41226
-12.2346 -34.8062 -7.41226
-35.7874 -10.6974 1.52169
-35.7874 -10.6974 2.44429
16.6793 21.5499 -4.17435
-35.7874 -10.6974 4.14867
29.9095 18.4188 -4.17435
29.9095 18.4188 -1.4069
-26.4311 -20.9803 4.14867
30.4129 18.7659 -1.4069
30.4129 18.7659 -4.17435
22.1571 1.34033 -7.41226
-27.536 -4.93294 -7.41226
-24.2025 -27.2545 1.52169
22.4242 -10.7484 -0.455218
22.4242 -10.7484 1.52169
13.9981 -4.7894 -7.41226
22.3585 -10.6542 1.52169
22.3585 -10.6542 -0.334246
30.8546 -4.89653 1.52169
16.8783 -2.79693 -7.41226
30.7419 -4.73651 1.52169
10.7232 -18.1815 0.198687
10.7232 -18.1815 -1.4069
22.3892 30.2335 -4.17435
21.9307 29.9376 -4.17435
21.9307 29.9376 -1.4069
22.3892 30.2335 -1.4069
24.186 26.6816 -4.17435
24.6534 26.9974 -4.17435
-31.4032 0.471703 -7.41226
24.6534 26.9974 -1.4069
24.186 26.6816 -1.4069
2.34288 -24.0745 -7.41226
29.9095 18.4188 -7.41226
5.25737 -22.025 -7.41226
5.55991 -22.4544 -7.41226
30.4129 18.7659 -7.41226
10.7851 -18.8274 -4.17435
10.7851 -18.8274 -7.41226
33.976 12.5845 -1.4069
27.8869 21.0948 3.18375
16.7931 36.5996 3.39191
-34.3372 -9.68433 4.14867
21.4864 16.6534 4.14867
16.145 36.1477 4.14867
10.5732 32.2626 4.14867
34.0611 10.4952 4.14867
28.5728 6.51768 4.14867
21.9307 29.9376 1.52169
22.3892 30.2335 1.52169
-12.4609 -34.4844 1.52169
24.6534 26.9974 1.52169
22.4375 13.2656 -4.17435
24.186 26.6816 1.52169
16.6793 21.5499 -7.41226
-8.60142 -32.5082 -1.48297
-8.70705 -32.3576 -1.49736
7.91139 -7.76624 -7.41226
8.15678 -8.11934 -7.41226
8.15679 -8.11935 -4.17435
7.91139 -7.76624 -4.17435
8.23031 -8.22513 -7.41226
8.49044 -8.59943 -7.41226
24.6534 26.9974 2.4856
5.24998 -10.3851 -7.41226
24.1861 26.6816 3.02584
-24.2025 -27.2545 -7.41226
-24.2025 -27.2545 -2.18124
33.6924 -2.92672 -7.41226
33.6924 -2.92672 -0.512365
-12.4609 -34.4844 -1.4069
-15.8828 -36.8906 -1.4069
-15.8828 -36.8906 -7.41226
-19.2031 -32.1406 -1.4069
18.7709 35.4046 4.14867
19.0796 -12.0747 1.52169
19.0796 -12.0747 0.42071
18.7709 35.4046 2.49402
-40.3127 -3.21963 1.52169
-40.3127 -3.21963 -7.41226
9.67066 31.6332 -7.41226
9.67066 31.6332 1.52169
16.4895 -2.23944 -7.41226
27.6119 5.8213 0.573725
16.6079 -2.40916 -7.41226
13.9981 -4.7894 1.49884
14.0105 -4.80728 1.52169
-14.2211 -24.4964 -7.41226
16.8783 -2.79693 1.51987
16.8793 -2.79836 1.52169
-8.43041 -20.3048 -1.4069
-8.43041 -20.3048 -4.17435
16.1698 -1.78106 -1.4069
13.3335 -3.83663 -4.17435
24.4387 4.21173 -1.4069
-15.7874 -22.2634 -1.4069
-8.43041 -20.3048 -7.41226
25.2811 3.01585 -7.41226
-29.9506 -19.0394 2.44289
28.001 21.174 3.05063
28.001 21.174 1.52169
13.3335 -3.83663 -7.41226
-17.7068 -14.8288 -7.41226
-17.7068 -14.8288 -4.17435
22.0522 -10.215 -1.4069
13.8557 -15.9788 -7.41226
13.8557 -15.9788 -4.17435
-3.10838 -27.9077 -1.4069
-2.84285 -28.2871 -1.4069
-2.84285 -28.2871 -0.327076
-3.10838 -27.9077 0.160704
30.4442 -4.31387 -1.4069
-12.4609 -34.4844 -7.41226
-12.4609 -34.4844 -1.3609
20.1719 11.7031 -7.41226
20.1719 11.7031 -4.17435
-11.2882 -22.3708 -7.41226
-11.8145 -21.6134 -7.41226
-11.8145 -21.6135 -4.17435
-11.2882 -22.3708 -4.17435
18.3478 35.11 -4.17435
18.3478 35.11 -1.4069
18.7709 35.4046 -1.4069
18.7709 35.4046 -4.17435
-15.8828 -36.8906 -1.196
18.3478 35.11 1.52169
18.7709 35.4046 1.52169
19.1875 -12.2295 1.52169
19.1875 -12.2295 0.22193
13.7057 -4.37016 0.963004
35.9784 1.30837 1.52169
39.3938 3.67143 1.52169
39.3938 3.67143 -1.4069
32.447 -1.13495 1.52169
36.9688 7.14066 1.52169
30.1365 2.18906 1.52169
20.2719 4.03341 -7.41226
20.2719 4.03341 -4.17435
18.7709 35.4046 -7.41226
-2.84285 -28.2871 1.52169
-3.10838 -27.9077 1.52169
30.4442 -4.31387 1.52169
5.38125 -21.9379 1.52169
32.8289 -2.17472 1.52169
33.0433 -2.48619 1.52169
10.4593 -19.0536 -0.394538
10.4593 -19.0536 1.52169
33.5651 -2.74363 1.52169
-12.9588 -23.7864 1.60179
22.4375 13.2656 -7.41226
33.2736 -2.32423 1.52169
33.6924 -2.92672 1.52169
32.5904 -1.34128 1.52169
-11.2882 -22.3708 -1.4069
30.0094 -4.2049 0.609566
-11.2882 -22.3708 1.39078
-11.2169 -22.4733 1.52169
34.3836 9.39373 1.5781
34.3523 9.43749 1.52169
-6.22059 -30.0962 -4.17435
35.6327 10.2691 1.57747
33.4583 -3.08924 -7.41226
35.6017 10.3124 1.52169
-28.6955 -17.745 4.14867
38.016 7.89958 -1.4069
36.9688 7.14066 -1.4069
38.016 7.89958 1.52169
27.6236 21.4627 -7.41226
19.3239 -12.9004 -0.439495
-6.22059 -30.0962 -7.41226
-5.96038 -30.451 -7.41226
-30.1627 -18.7363 1.52169
10.7232 -18.1815 -4.17435
19.3239 -12.9004 -7.41226
-39.3377 -2.53978 4.14867
-21.4373 -28.1153 4.14867
31.27 -4.6082 -0.50008
21.6769 29.7739 3.30027
31.27 -4.6082 -1.4069
21.6769 29.7739 4.14867
36.8672 0.0156199 -7.41226
37.2109 -0.484381 -7.41226
37.2109 -0.484381 -4.17435
23.9861 26.5465 3.25694
19.3239 -12.9004 1.52169
24.1861 26.6816 4.14867
23.9861 26.5465 4.14867
20.9321 29.2934 4.14867
-23.4483 -27.2783 1.52169
-27.8785 -22.0008 -4.17435
-27.8785 -22.0008 1.52169
23.2147 26.0253 4.14867
25.2811 3.01585 -4.17435
25.2811 3.01585 -1.4069
33.5069 13.2402 -7.41226
-12.7123 -34.6611 1.52169
30.6424 17.2436 -7.41226
-29.262 1.96244 -7.41226
-29.262 1.96244 -4.17435
27.988 5.2801 -1.4069
31.27 -4.6082 1.52169
31.156 -4.44416 1.52169
34.2835 9.53374 1.52169
16.6079 -2.40919 1.0243
34.2835 9.53374 1.39763
-3.27051 -28.0217 -1.4069
-3.27051 -28.0217 0.160259
25.2811 3.01585 1.58119
25.2484 3.06226 1.52169
25.0734 3.31072 1.2031
34.9895 11.1681 1.52169
35.5477 10.3879 1.52169
27.988 5.28009 1.26466
27.988 5.28009 1.52169
36.6845 12.3965 -7.41226
36.0414 10.7216 1.52169
37.3347 11.462 1.57662
-3.02326 -16.3809 -1.4069
-3.02326 -16.3809 1.21718
-28.7769 -5.79983 4.14867
-21.5924 -13.2395 -7.41226
-0.174018 -14.316 1.15734
-0.174018 -14.316 -1.4069
-0.0426905 -14.5024 1.39637
-22.9254 -14.1646 4.14867
-27.8785 -22.0008 -7.41226
-15.8209 -24.3205 4.14867
-39.4727 -5.43037 2.44517
-33.7722 1.34101 4.14867
-39.4727 -5.43037 4.14867
9.67066 31.6332 -4.17435
8.55205 28.2899 -7.41226
8.55205 28.2899 -4.17435
-33.6406 -13.7656 -4.17435
-35.7874 -10.6974 -4.17435
28.001 21.174 -4.17435
28.001 21.174 -1.4069
19.1875 -12.2295 -1.4069
19.1875 -12.2295 -4.17435
-8.58568 -20.4122 -1.4069
-8.58568 -20.4122 1.33401
-2.937 -16.5046 -7.41226
-3.10838 -27.9077 -4.17435
-2.84285 -28.2871 -4.17435
30.4442 -4.31387 -4.17435
-8.58568 -20.4122 -4.17435
-8.58568 -20.4122 -7.41226
24.6535 26.9973 4.14867
-13.218 -33.4076 1.52169
26.5335 7.37271 -1.4069
-39.4727 -5.43037 1.52169
-14.139 -24.6135 1.60238
22.0522 -10.215 -4.17435
22.0522 -10.215 -7.41226
-4.99999 -13.5469 -7.41226
-4.99999 -13.5469 -4.17435
36.3504 1.56579 1.52169
36.3504 1.56579 -1.4069
37.2393 0.273928 -1.4069
-2.125 -11.5469 -7.41226
-36.5591 -0.602296 7.41226
-2.125 -11.5469 -4.17435
-32.8133 2.00963 3.02579
28.1604 5.03213 1.58121
23.2639 12.0767 -7.41226
28.128 5.07876 1.52169
27.9641 4.89459 -7.41226
13.3532 34.201 7.40881
0.0261659 -14.6001 1.52169
-19.2031 -32.1406 -7.41226
-19.7642 -32.534 -7.41226
36.1194 10.6102 1.57723
-19.7642 -32.534 1.52169
36.089 10.6536 1.52169
-19.2031 -32.1406 1.52169
-22.1312 -30.2149 1.60638
-22.1775 -30.1487 1.52169
-32.8133 2.00963 1.52169
-27.0633 -23.166 -7.41226
-3.10838 -27.9077 -7.41226
-2.84285 -28.2871 -7.41226
30.4442 -4.31387 -7.41226
39.2109 8.76563 -1.4069
39.2109 8.76563 -7.41226
38.016 7.89958 -7.41226
-23.4922 -6.42179 -4.17435
-25.4802 -7.80603 -7.41226
-23.4922 -6.42179 -7.41226
-25.4971 -3.50853 -7.41226
-8.94799 -32.0141 -7.41226
-25.4971 -3.50853 -4.17435
33.5069 13.2402 -4.17435
35.4802 11.5237 -4.17435
34.0263 13.6016 -7.41226
34.0263 13.6016 -4.17435
31.2032 17.6364 -7.41226
26.0572 8.05793 -7.41226
26.0572 8.05793 -4.17435
-14.8192 -23.6437 1.52169
6.41173 -5.60836 -7.41226
6.41173 -5.60836 -4.17435
27.6119 5.8213 1.52169
-8.70705 -32.3576 -7.41226
10.4593 -19.0536 -4.17435
-30.0547 -18.8906 -4.17435
-28.496 -18.0301 4.14867
-30.0547 -18.8906 -7.41226
-33.6406 -13.7656 -7.41226
10.7232 -18.1815 1.52169
-11.8145 -21.6135 -1.4069
-8.43279 -20.3014 -4.17435
-8.43279 -20.3014 -1.4069
-8.89512 -19.6409 -1.4069
13.8557 -15.9788 -1.4069
27.988 5.28012 -7.41226
36.0414 10.7216 -7.41226
-18.6333 -26.2208 7.40858
-22.4038 -28.7684 3.02497
-8.43041 -20.3048 1.33515
-8.32836 -20.4506 1.52169
-11.9354 -27.7551 5.62511
-17.3034 -20.1021 -4.17435
25.0268 9.54045 -4.17435
34.9512 11.1403 3.09581
17.1457 36.8455 1.52169
33.346 -2.4283 1.52169
31.3111 8.50224 7.40138
5.10634 -10.1805 -4.17435
27.6119 5.8213 3.00728
5.10634 -10.1804 -7.41226
34.078 13.5277 -4.17435
33.5781 13.1406 -4.17435
33.346 -2.4283 -7.41226
-19.7028 -11.9283 -7.41226
-19.7028 -11.9283 -4.17435
-16.3589 -21.4486 -1.4069
-32.8133 2.00963 -1.4069
-16.3589 -21.4486 1.52169
-16.3589 -21.4486 -2.45018
36.9688 7.14066 -7.41226
8.52476 -8.64881 1.52169
-33.6406 -13.7656 4.14867
-8.43279 -20.3014 -7.41226
-10.4884 -17.3648 -4.17435
-8.60142 -32.5082 -4.17435
24.7605 3.75484 -7.41226
14.3903 19.9561 -7.41226
-16.3589 -21.4486 -4.17435
-8.60142 -32.5082 -7.41226
12.3203 22.911 -4.17435
22.3892 30.2335 -7.41226
-16.3589 -21.4486 -7.41226
12.3203 22.911 -7.41226
17.1457 36.8455 -7.41226
-13.3784 -33.1795 1.52169
18.2683 14.4203 -4.17435
18.2683 14.4203 -7.41226
30.697 17.2819 -7.41226
-16.7625 -35.6321 1.52169
33.2736 -2.32423 -7.41226
-16.7625 -35.6321 -1.4069
33.9591 12.5726 -1.4069
-20.2636 -32.8841 -7.41226
-21.4766 -33.7344 -7.41226
-21.4766 -33.7344 1.52169
-20.2636 -32.8841 1.52169
25.0733 3.31075 -7.41226
24.6534 26.9975 -7.41226
11.9043 -1.78752 -7.41226
11.9043 -1.78752 -4.17435
-32.8133 2.00963 -7.41226
-35.7874 -10.6974 -7.41226
-23.3485 -31.0681 1.60699
-24.1397 -29.9412 -7.41226
39.2109 8.76563 1.52169
19.1875 -12.2295 -7.41226
-19.0771 -17.5735 -7.41226
10.4593 -19.0536 -7.41226
33.5651 -2.74363 -7.41226
-22.9059 -29.1076 -7.41226
-13.3728 -19.3714 -7.41226
34.2835 9.53375 -1.4069
-13.3728 -19.3714 -4.17435
27.0593 20.5205 4.14867
-40.3127 -3.21963 3.00349
10.7232 -18.1815 -7.41226
-6.01784 -29.9536 -7.41226
13.3335 -3.83663 -1.4069
-16.7625 -35.6321 -1.31622
-14.9511 -34.3193 -1.4069
23.1527 6.0374 -7.41226
35.4802 11.5237 1.52169
7.34564 30.012 -7.41226
14.3903 19.9561 -4.17435
23.1527 6.0374 -4.17435
7.34564 30.012 -4.17435
17  898 795 136 143 144 151 157 156 160 167 168 177 176 371 440 441 967  255 0 0
7  1023 52 51 27 28 29 998  255 72 0
15  1023 100 99 85 86 80 79 1017 726 71 70 63 62 53 52  255 72 0
4  1023 968 101 100  255 72 0
5  301 271 584 614 208  255 145 0
19  967 441 120 121 122 123 124 125 126 127 128 129 130 131 132 133 134 135 106  255 0 0
4  949 817 816 936  255 145 0
4  949 647 646 995  255 145 0
4  183 139 138 184  255 145 0
7  183 182 181 916 719 759 936  255 145 0
31  183 936 816 1033 926 579 679 681 352 1032 752 302 1022 900 609 467 928 1006 194 913 173 172 171 164 163 152 153 148 147 140 139  255 145 0
4  949 936 759 647  255 145 0
4  949 583 588 817  255 145 0
5  898 108 109 136 795  255 0 0
6  898 967 106 105 107 108  255 0 0
4  910 804 203 192  255 218 0
8  911 843 1004 680 511 601 512 796  218 255 0
4  910 912 805 804  255 218 0
4  911 796 699 969  218 255 0
3  912 859 860  255 218 0
8  912 860 849 858 862 920 809 805  255 218 0
11  727 365 420 701 512 601 814 219 217 370 599  218 255 0
4  728 362 357 356  218 255 0
4  727 599 358 877  218 255 0
4  920 278 863 918  255 218 0
5  942 1004 843 841 940  218 255 0
4  942 683 680 1004  218 255 0
5  920 862 1038 276 278  255 218 0
4  942 571 656 683  218 255 0
5  183 734 29 28 182  145 255 0
4  183 184 611 734  145 255 0
4  1023 998 994 968  255 72 0
6  728 356 688 691 692 368  218 255 0
4  1017 79 78 241  255 72 0
4  924 75 76 909  255 72 0
4  924 983 77 75  255 72 0
5  924 725 242 241 983  255 72 0
4  1017 241 242 726  255 72 0
4  923 247 249 251  72 255 0
4  923 43 45 922  72 255 0
4  925 52 53 872  0 255 0
4  923 251 34 43  72 255 0
4  925 872 836 587  0 255 0
6  924 909 875 821 1031 725  255 72 0
4  922 45 44 188  72 255 0
4  922 1019 247 923  72 255 0
4  918 807 809 920  255 218 0
4  918 863 199 200  255 218 0
5  368 692 639 329 312  218 255 0
3  914 692 691  218 255 0
6  914 973 694 690 639 692  218 255 0
13  914 691 447 834 640 838 291 1030 568 566 572 693 973  218 255 0
5  194 195 196 962 961  255 218 0
4  194 193 567 913  255 145 0
4  911 943 841 843  218 255 0
6  912 910 192 191 846 859  255 218 0
4  911 969 944 943  218 255 0
4  194 961 612 193  255 218 0
6  909 76 84 91 866 875  255 72 0
6  907 875 866 871 873 963  255 72 0
3  907 821 875  255 72 0
12  907 963 822 463 603 654 952 810 504 689 444 821  255 72 0
4  108 185 137 109  255 145 0
4  108 186 178 185  255 145 0
4  106 895 1001 105  255 145 0
5  108 107 921 187 186  255 145 0
4  188 44 919 1012  255 145 0
4  188 189 1019 922  72 255 0
4  180 179 1010 1009  255 145 0
4  180 47 27 1026  72 255 0
4  180 1009 917 47  255 145 0
4  188 1012 1011 189  255 145 0
5  5 961 962 608 6  255 218 0
4  5 943 944 3  218 255 0
6  730 896 549 547 550 948  218 255 0
4  734 611 30 29  145 255 0
4  5 3 612 961  255 218 0
3  730 4 896  218 255 0
4  727 22 23 365  218 255 0
4  728 366 548 362  218 255 0
4  727 877 24 22  218 255 0
4  52 925 713 51  0 255 0
4  43 636 635 45  145 255 0
4  43 34 33 636  145 255 0
4  725 73 72 242  255 72 0
4  726 242 72 71  255 72 0
5  948 550 343 347 975  218 255 0
6  945 984 982 985 742 642  255 72 0
3  642 742 31  255 72 0
5  196 197 861 608 962  255 218 0
4  196 195 986 931  255 145 0
4  918 200 201 807  255 218 0
4  942 940 941 571  218 255 0
5  47 181 182 28 27  145 255 0
4  44 187 921 919  255 145 0
4  47 917 916 181  255 145 0
4  180 1026 1020 179  72 255 0
4  925 587 714 713  0 255 0
5  187 44 45 635 186  145 255 0
4  719 718 717 759  255 145 0
5  719 916 720 1007 718  255 145 0
5  715 828 827 979 1025  255 145 0
4  715 808 620 582  255 145 0
4  716 434 433 623  255 145 0
5  715 1025 503 500 808  255 145 0
7  194 1006 979 827 598 986 195  255 145 0
4  716 623 619 212  255 145 0
4  715 582 829 828  255 145 0
4  200 199 1021 813  255 145 0
5  192 203 202 781 782  255 145 0
4  799 780 777 622  255 145 0
4  196 931 930 197  255 145 0
5  200 813 781 202 201  255 145 0
5  979 1006 928 503 1025  255 145 0
4  29 30 994 998  255 72 0
4  3 4 846 612  255 218 0
5  968 985 982 102 101  255 72 0
5  30 31 742 985 994  255 72 0
6  969 549 896 4 3 944  218 255 0
3  968 994 985  255 72 0
6  192 119 558 567 193 191  255 145 0
6  799 120 119 192 782 780  255 145 0
4  1038 862 858 857  255 218 0
4  1038 857 8 610  255 218 0
4  948 10 11 730  218 255 0
4  1000 599 370 369  218 255 0
4  971 356 357 361  218 255 0
4  2 8 857 9  255 218 0
5  9 857 858 849 10  255 218 0
4  1000 570 358 599  218 255 0
4  2 1008 686 8  218 255 0
5  9 452 307 1008 2  218 255 0
4  1000 369 767 570  218 255 0
4  971 361 768 772  218 255 0
4  992 442 657 1013  0 255 72
4  1037 783 443 536  0 255 72
4  1041 784 783 1037  0 255 72
4  992 536 443 442  0 255 72
4  1041 539 397 784  0 255 72
4  1041 1037 536 539  0 255 72
4  493 539 536 992  0 255 72
4  542 1027 764 543  0 255 145
4  990 1029 1027 542  0 255 145
5  543 764 763 893 989  0 255 145
4  544 765 1029 990  0 255 145
4  990 542 543 544  0 255 145
3  537 255 254  0 255 218
5  537 592 590 553 255  0 255 218
5  541 594 902 908 257  0 255 218
3  541 257 256  0 255 218
5  537 254 906 901 592  0 255 218
4  533 1015 748 532  0 218 255
4  534 1016 1015 533  0 218 255
4  532 748 337 729  0 218 255
4  535 740 1016 534  0 218 255
4  534 533 532 535  0 218 255
4  1031 821 444 41  255 72 0
4  1031 41 73 725  255 72 0
4  1016 740 748 1015  0 218 255
4  877 362 548 24  218 255 0
5  969 699 422 547 549  218 255 0
4  241 78 77 983  255 72 0
4  22 1039 878 23  0 145 255
4  24 1042 1039 22  0 145 255
4  24 25 879 1042  0 145 255
4  199 198 929 1021  255 145 0
4  197 930 929 198  255 145 0
4  867 605 749 980  0 72 255
4  980 749 750 981  0 72 255
4  981 750 530 529  0 72 255
5  981 529 540 867 980  0 72 255
5  975 347 351 690 694  218 255 0
7  975 694 693 970 9 10 948  218 255 0
3  973 693 694  218 255 0
4  618 688 356 971  218 255 0
4  970 693 572 573  218 255 0
4  618 562 450 688  218 255 0
5  970 573 401 452 9  218 255 0
4  971 772 562 618  218 255 0
4  611 565 31 30  145 255 0
4  612 846 191 193  255 218 0
4  184 185 565 611  145 255 0
4  184 138 137 185  255 145 0
4  610 244 243 277  255 218 0
5  608 861 243 244 939  255 218 0
5  606 104 103 984 945  255 72 0
4  34 835 465 964  255 72 0
4  964 465 463 822  255 72 0
5  606 873 871 96 104  255 72 0
7  34 964 822 873 606 945 33  255 72 0
3  963 873 822  255 72 0
5  35 50 49 835 34  255 72 0
4  251 250 35 34  72 255 0
5  202 203 804 807 201  255 218 0
5  598 827 432 905 593  255 145 0
5  598 593 779 812 986  255 145 0
4  593 905 904 779  255 145 0
5  587 836 837 659 714  0 255 0
4  582 623 433 829  255 145 0
5  583 703 616 270 588  255 145 0
4  582 620 619 623  255 145 0
4  577 946 947 578  0 0 255
4  578 947 707 574  0 0 255
4  575 704 946 577  0 0 255
4  574 707 706 974  0 0 255
4  578 574 575 577  0 0 255
5  571 304 308 655 656  218 255 0
4  570 361 357 358  218 255 0
4  570 767 768 361  218 255 0
4  119 118 175 558  255 145 0
5  440 371 176 118 119  255 0 0
4  567 174 173 913  255 145 0
4  567 558 175 174  255 145 0
4  557 818 445 745  72 0 255
4  60 55 54 61  255 72 0
6  554 951 880 481 818 557  72 0 255
4  61 57 951 554  72 0 255
5  61 54 53 62 57  255 72 0
4  557 60 61 554  72 0 255
4  1008 306 305 686  218 255 0
3  1008 307 306  218 255 0
4  1042 879 878 1039  0 145 255
4  12 13 796 512  218 255 0
5  14 15 762 1002 392  145 0 255
5  1003 761 13 12 393  145 0 255
4  1002 762 761 1003  145 0 255
4  14 392 393 12  145 0 255
4  1003 393 392 1002  145 0 255
4  999 993 508 509  218 0 255
4  16 17 701 420  218 255 0
4  996 1040 993 999  218 0 255
4  16 509 508 17  218 0 255
4  996 510 507 1040  218 0 255
4  18 510 509 16  218 0 255
4  999 509 510 996  218 0 255
4  21 17 508 507  218 0 255
4  1040 507 508 993  218 0 255
4  691 688 450 447  218 255 0
5  792 287 289 464 478  255 145 0
4  950 631 462 613  255 145 0
4  950 684 685 1024  255 145 0
4  792 613 288 287  255 145 0
3  950 315 684  255 145 0
4  792 232 316 613  255 145 0
4  950 613 316 315  255 145 0
4  949 995 991 583  255 145 0
4  616 703 702 615  255 145 0
4  583 991 702 703  255 145 0
4  704 575 976 705  0 0 255
4  947 946 704 707  0 0 255
4  945 642 32 33  255 72 0
4  5 6 841 943  218 255 0
4  730 11 1 4  218 255 0
4  610 8 7 244  255 218 0
4  608 939 0 6  255 218 0
4  939 244 7 0  255 218 0
4  571 941 977 304  218 255 0
4  935 934 932 937  255 0 218
4  937 932 524 526  255 0 218
4  658 933 934 935  255 0 218
4  937 526 658 935  255 0 218
4  933 658 86 85  255 0 218
4  932 934 933 524  255 0 218
4  765 544 959 956  0 255 145
4  1029 765 764 1027  0 255 145
4  250 248 293 294  72 255 0
4  1026 294 293 1020  72 255 0
4  1024 682 631 950  255 145 0
3  1024 685 353  255 145 0
5  1024 353 352 681 682  255 145 0
5  189 1011 1010 179 190  255 145 0
4  1012 1009 1010 1011  255 145 0
4  811 929 930 931  255 145 0
5  891 405 404 280 758  255 145 0
4  928 467 405 891  255 145 0
4  891 502 503 928  255 145 0
4  926 1033 497 889  255 145 0
5  889 497 496 852 754  255 145 0
4  927 580 579 926  255 145 0
4  890 388 580 927  255 145 0
4  889 890 927 926  255 145 0
5  921 1005 1035 1007 720  255 145 0
5  921 720 916 917 919  255 145 0
5  541 256 600 595 594  0 255 218
4  908 902 901 906  0 255 218
4  908 906 254 257  0 255 218
4  902 594 592 901  0 255 218
5  893 763 139 140 743  0 255 145
4  892 957 989 893  0 255 145
3  173 744 172  0 255 72
4  174 839 744 173  0 255 72
4  893 743 738 892  0 255 145
4  758 280 279 410  255 145 0
4  758 382 502 891  255 145 0
4  754 852 853 757  255 145 0
4  755 274 388 890  255 145 0
4  754 755 890 889  255 145 0
4  747 563 517 746  218 255 0
4  747 377 298 883  218 255 0
4  883 653 563 747  218 255 0
4  883 298 297 882  218 255 0
3  176 177 854  0 255 72
4  887 802 800 886  0 255 145
4  886 958 957 892  0 255 145
5  887 965 966 803 802  0 255 145
5  176 854 840 175 118  0 255 72
4  886 737 965 887  0 255 145
4  900 1022 885 899  255 145 0
4  499 262 609 900  255 145 0
4  899 885 884 751  255 145 0
4  899 485 499 900  255 145 0
4  1022 302 285 885  255 145 0
4  885 285 222 884  255 145 0
4  919 917 1009 1012  255 145 0
4  175 840 839 174  0 255 72
4  892 738 737 886  0 255 145
6  247 1019 189 190 293 248  72 255 0
4  1020 293 190 179  72 255 0
4  751 884 775 406  255 145 0
4  751 484 485 899  255 145 0
4  511 319 814 601  218 255 0
4  511 680 652 882  218 255 0
4  882 297 319 511  218 255 0
4  882 652 653 883  218 255 0
4  70 71 643 1018  255 0 145
4  69 58 63 70  255 72 0
4  1018 643 644 881  255 0 145
4  881 644 897 648  255 0 145
4  881 69 70 1018  255 0 145
4  544 543 989 957  0 255 145
4  812 779 778 781  255 145 0
4  811 931 986 812  255 145 0
5  886 800 956 959 958  0 255 145
4  729 337 336 731  0 218 255
4  535 532 729 489  0 218 255
4  884 222 221 775  255 145 0
4  648 897 874 649  255 0 145
4  68 64 58 69  255 72 0
4  648 68 69 881  255 0 145
4  64 68 42 40  255 72 0
4  880 951 953 954  72 0 255
4  64 481 880 58  72 0 255
4  1013 657 234 744  0 255 72
4  744 234 171 172  0 255 72
4  494 1013 744 839  0 255 72
4  666 662 163 164  0 218 255
4  731 336 662 666  0 218 255
4  490 731 666 627  0 218 255
4  819 753 752 1032  255 145 0
4  819 314 313 669  255 145 0
4  1032 352 314 819  255 145 0
4  25 23 878 879  0 145 255
4  877 358 357 362  218 255 0
4  53 54 836 872  0 255 0
4  99 100 605 867  0 72 255
4  98 87 85 99  255 72 0
5  540 545 98 99 867  0 72 255
6  278 277 243 198 199 863  255 218 0
4  197 198 243 861  255 218 0
4  855 638 637 856  0 255 72
4  856 637 596 495  0 255 72
4  854 390 638 855  0 255 72
5  856 495 840 854 855  0 255 72
4  735 732 776 850  0 218 255
4  850 776 456 491  0 218 255
4  850 491 626 735  0 218 255
4  845 634 633 844  255 0 72
4  676 213 79 80  255 0 72
4  589 214 634 845  255 0 72
4  844 633 213 676  255 0 72
4  845 844 676 589  255 0 72
4  495 494 839 840  0 255 72
4  491 490 627 626  0 218 255
4  55 60 66 38  255 72 0
4  54 55 837 836  0 255 0
5  432 827 828 829 433  255 145 0
4  669 960 753 819  255 145 0
4  669 313 231 668  255 145 0
4  624 662 336 335  0 218 255
6  781 778 903 777 780 782  255 145 0
4  813 811 812 781  255 145 0
5  620 501 378 825 619  255 145 0
4  808 500 501 620  255 145 0
4  625 624 335 456  0 218 255
4  792 478 479 793  255 145 0
4  716 212 211 798  255 145 0
4  301 210 295 271  255 145 0
4  716 798 569 434  255 145 0
5  798 211 847 848 794  255 145 0
5  799 797 791 790 120  255 145 0
4  106 135 220 561  255 145 0
4  210 561 220 295  255 145 0
5  799 622 391 972 797  255 145 0
5  798 794 972 391 569  255 145 0
6  797 972 794 848 259 791  255 145 0
4  210 207 697 561  255 145 0
4  106 561 697 895  255 145 0
6  793 479 431 789 230 233  255 145 0
4  793 233 232 792  255 145 0
4  791 259 258 790  255 145 0
4  120 790 258 121  255 145 0
5  789 431 130 129 215  255 145 0
3  789 215 230  255 145 0
4  122 121 261 411  255 145 0
5  411 801 449 123 122  255 145 0
4  411 261 260 410  255 145 0
4  133 132 225 787  255 145 0
4  787 225 325 786  255 145 0
5  757 853 425 134 133  255 145 0
3  133 787 757  255 145 0
4  410 260 259 788  255 145 0
4  410 279 801 411  255 145 0
4  788 259 848 667  255 145 0
4  667 848 847 665  255 145 0
4  788 667 380 410  255 145 0
4  756 275 274 755  255 145 0
4  786 325 275 756  255 145 0
4  787 786 756 757  255 145 0
4  406 775 723 409  255 145 0
4  663 284 386 661  255 145 0
4  407 281 284 663  255 145 0
4  407 663 664 406  255 145 0
4  369 216 997 785  218 255 0
4  785 997 670 770  218 255 0
4  770 670 673 769  218 255 0
4  785 770 767 369  218 255 0
4  784 397 443 783  0 255 72
4  779 904 903 778  255 145 0
4  435 374 905 432  255 145 0
4  622 372 375 391  255 145 0
4  777 903 372 622  255 145 0
4  66 39 810 952  255 72 0
4  745 445 39 66  72 0 255
4  732 735 736 733  0 218 255
4  732 625 456 776  0 218 255
4  775 221 245 774  255 145 0
5  774 245 586 505 722  255 145 0
4  769 673 696 773  218 255 0
4  773 696 436 724  218 255 0
4  769 773 772 768  218 255 0
4  771 718 1007 1035  255 145 0
5  771 471 760 717 718  255 145 0
4  746 237 377 747  218 255 0
5  746 517 568 1030 687  218 255 0
4  770 769 768 767  218 255 0
4  766 763 764 765  0 255 145
4  15 13 761 762  145 0 255
4  760 471 470 559  255 145 0
5  364 647 759 717 760  255 145 0
4  410 380 382 758  255 145 0
4  757 756 755 754  255 145 0
4  461 300 302 752  255 145 0
4  455 461 752 753  255 145 0
4  406 664 484 751  255 145 0
4  409 723 126 125  255 145 0
4  125 124 252 408  255 145 0
4  408 252 281 407  255 145 0
3  125 408 409  255 145 0
5  750 749 605 412 530  0 72 255
4  338 337 748 740  0 218 255
4  655 308 453 564  218 255 0
4  564 453 400 520  218 255 0
4  655 564 563 653  218 255 0
4  745 66 60 557  72 0 255
4  140 147 146 141  255 145 0
4  141 146 145 142  255 145 0
4  141 738 743 140  0 255 145
4  177 168 390 854  0 255 72
4  110 111 144 143  255 0 0
4  143 136 803 966  0 255 145
4  142 145 111 110  255 145 0
6  966 965 737 142 110 143  0 255 145
4  897 644 72 73  255 0 145
4  859 846 1028 851  255 218 0
4  846 4 1 1028  255 218 0
4  960 669 668 585  255 145 0
4  383 455 753 960  255 145 0
4  959 544 957 958  0 255 145
4  800 766 765 956  0 255 145
4  668 231 230 955  255 145 0
4  955 230 215 604  255 145 0
4  954 953 62 63  72 0 255
4  58 880 954 63  72 0 255
4  57 62 953 951  72 0 255
4  1030 291 290 687  218 255 0
4  746 687 290 237  218 255 0
4  11 851 1028 1  255 218 0
4  813 1021 929 811  255 145 0
4  494 493 992 1013  0 255 72
4  492 399 398 741  0 255 72
4  492 741 539 493  0 255 72
4  741 398 397 539  0 255 72
4  740 535 739 1034  0 218 255
4  488 457 1034 739  0 218 255
4  739 535 489 488  0 218 255
4  142 737 738 141  0 255 145
4  166 169 117 116  255 145 0
4  116 117 168 167  255 0 0
4  167 160 733 736  0 218 255
6  736 735 626 166 116 167  0 218 255
4  490 489 729 731  0 218 255
4  722 505 127 126  255 145 0
3  722 126 723  255 145 0
4  952 654 38 66  255 72 0
4  974 706 576 581  0 0 255
4  574 974 976 575  0 0 255
4  659 837 486 426  0 255 0
5  50 35 36 27 51  255 72 0
4  49 50 714 659  0 255 0
5  686 305 978 0 7  218 255 0
4  674 671 216 218  218 255 0
4  218 319 318 1014  218 255 0
4  218 216 217 219  218 255 0
4  675 296 299 677  218 255 0
4  1014 318 296 675  218 255 0
4  674 218 1014 675  218 255 0
4  671 674 678 672  218 255 0
4  216 369 370 217  218 255 0
4  670 997 216 671  218 255 0
3  208 614 615  255 145 0
5  991 995 646 363 702  255 145 0
5  208 615 702 363 205  255 145 0
4  1038 610 277 276  255 218 0
4  160 156 114 115  255 0 0
4  161 155 154 162  255 145 0
4  115 114 155 161  255 145 0
6  733 160 115 161 625 732  0 218 255
4  721 439 438 560  218 255 0
4  560 438 826 448  218 255 0
4  724 436 439 721  218 255 0
4  724 721 560 562  218 255 0
4  938 978 977 941  218 255 0
4  938 941 940 841  218 255 0
5  938 841 6 0 978  218 255 0
6  107 105 1001 474 1005 921  255 145 0
5  1005 474 473 1036 1035  255 145 0
3  1036 473 472  255 145 0
5  1036 472 471 771 1035  255 145 0
4  895 475 474 1001  255 145 0
4  581 576 514 515  0 0 255
4  711 708 705 976  0 0 255
4  581 711 976 974  0 0 255
4  250 294 36 35  72 255 0
4  27 36 294 1026  72 255 0
4  50 51 713 714  0 255 0
4  556 709 708 711  0 0 255
4  468 556 711 581  0 0 255
4  709 556 153 152  0 0 255
4  385 576 708 709  0 0 255
4  707 704 705 706  0 0 255
4  698 376 236 710  218 255 0
4  677 299 376 698  218 255 0
4  700 695 672 678  218 255 0
4  700 678 677 698  218 255 0
4  695 700 712 437  218 255 0
4  696 673 672 695  218 255 0
4  689 504 40 42  255 72 0
4  67 74 444 689  255 72 0
3  67 689 42  255 72 0
3  8 686 7  218 255 0
4  681 679 629 630  255 145 0
4  630 629 628 632  255 145 0
4  630 631 682 681  255 145 0
4  679 579 387 629  255 145 0
4  629 387 273 628  255 145 0
4  678 674 675 677  218 255 0
4  673 670 671 672  218 255 0
4  164 171 170 165  255 145 0
4  165 170 169 166  255 145 0
4  165 627 666 164  0 218 255
4  162 154 152 163  255 145 0
4  624 162 163 662  0 218 255
4  94 81 80 86  255 72 0
4  526 94 86 658  255 0 218
4  656 655 653 652  218 255 0
4  649 874 876 651  255 0 145
4  651 876 74 67  255 0 145
4  651 67 42 649  255 0 145
4  649 42 68 648  255 0 145
4  364 363 646 647  255 145 0
4  644 643 71 72  255 0 145
4  642 31 26 32  255 72 0
5  185 178 26 31 565  145 255 0
6  32 26 178 186 635 636  145 255 0
4  498 263 262 499  255 145 0
4  482 264 263 498  255 145 0
4  634 214 213 633  255 0 72
4  632 628 429 430  255 145 0
4  632 462 631 630  255 145 0
4  628 273 272 429  255 145 0
4  166 626 627 165  0 218 255
4  625 161 162 624  0 218 255
4  619 825 823 212  255 145 0
4  212 823 847 211  255 145 0
5  616 615 614 584 270  255 145 0
5  613 462 464 289 288  255 145 0
4  379 823 825 378  255 145 0
4  87 98 97 88  255 72 0
4  524 933 85 87  255 0 218
4  457 338 740 1034  0 218 255
4  602 506 585 668  255 145 0
4  604 215 129 128  255 145 0
4  128 127 506 602  255 145 0
3  604 128 602  255 145 0
4  553 590 888 555  0 255 218
4  256 255 553 600  0 255 218
4  595 600 869 864  0 255 218
4  595 590 592 594  0 255 218
4  228 246 831 229  255 145 0
4  586 245 246 228  255 145 0
4  228 227 585 586  255 145 0
4  515 514 513 516  0 0 255
4  469 468 581 515  0 0 255
4  384 514 576 385  0 0 255
4  391 375 374 435  255 145 0
4  391 435 434 569  255 145 0
4  520 400 403 519  218 255 0
4  564 520 517 563  218 255 0
4  559 470 842 697  255 145 0
4  159 149 148 153  255 145 0
4  468 159 153 556  0 0 255
4  55 38 486 837  0 255 0
4  773 724 562 772  218 255 0
4  497 806 269 496  255 145 0
4  1033 816 806 497  255 145 0
4  502 382 378 501  255 145 0
4  227 383 960 585  255 145 0
4  512 701 650 522  218 255 0
4  522 650 617 523  218 255 0
4  522 14 12 512  218 255 0
4  988 446 445 480  72 0 255
4  480 445 818 481  72 0 255
4  59 65 446 988  72 0 255
4  59 988 480 40  72 0 255
4  366 310 333 548  218 255 0
4  24 548 333 25  218 255 0
4  15 14 521 423  218 255 0
4  984 103 102 982  255 72 0
4  526 524 525 527  255 0 218
4  214 589 591 266  255 0 72
4  538 415 414 546  0 72 255
4  538 546 545 540  0 72 255
4  98 545 546 97  0 72 255
4  19 20 552 551  218 0 255
4  19 551 510 18  218 0 255
4  20 19 327 322  218 255 0
4  20 21 507 552  218 0 255
4  552 507 510 551  218 0 255
4  550 547 422 343  218 255 0
4  350 321 324 351  218 255 0
4  523 617 321 350  218 255 0
4  349 344 423 521  218 255 0
4  350 349 521 523  218 255 0
4  538 528 531 415  0 72 255
4  540 529 528 538  0 72 255
4  415 531 530 412  0 72 255
4  531 528 529 530  0 72 255
4  93 82 81 94  255 72 0
4  527 93 94 526  255 0 218
4  88 97 95 89  255 72 0
4  525 524 87 88  255 0 218
4  523 521 14 522  218 255 0
4  519 403 402 518  218 255 0
4  518 402 566 568  218 255 0
4  520 519 518 517  218 255 0
4  516 513 389 476  0 0 255
4  476 389 987 477  0 0 255
4  476 469 515 516  0 0 255
4  389 513 514 384  0 0 255
3  127 505 506  255 145 0
4  504 810 65 59  255 72 0
3  504 59 40  255 72 0
4  503 502 501 500  255 145 0
4  499 485 482 498  255 145 0
4  496 269 268 425  255 145 0
4  491 456 457 488  0 218 255
4  495 596 399 492  0 255 72
4  495 492 493 494  0 255 72
4  491 488 489 490  0 218 255
4  487 427 426 486  0 255 0
4  56 48 427 487  0 255 0
4  38 56 487 486  0 255 0
4  483 330 264 482  255 145 0
4  485 484 483 482  255 145 0
4  40 480 481 64  72 0 255
4  430 429 131 130  255 145 0
4  431 479 478 430  255 145 0
4  429 272 225 428  255 145 0
4  428 225 132 131  255 145 0
4  158 150 149 159  255 145 0
4  113 112 150 158  255 145 0
4  477 987 156 157  0 0 255
4  157 151 112 113  255 0 0
6  477 157 113 158 469 476  0 0 255
4  151 144 395 915  0 255 218
4  915 395 394 870  0 255 218
4  870 394 865 868  0 255 218
6  915 870 418 150 112 151  0 255 218
5  372 903 904 905 374  255 145 0
4  475 895 697 842  255 145 0
6  475 470 471 472 473 474  255 145 0
4  469 158 159 468  0 0 255
4  451 282 253 449  255 145 0
4  451 279 280 404  255 145 0
4  467 609 607 405  255 145 0
4  405 607 341 404  255 145 0
4  381 458 459 454  255 145 0
4  454 459 820 460  255 145 0
4  458 381 226 815  255 145 0
4  453 308 307 452  218 255 0
4  448 826 834 447  218 255 0
3  450 448 447  218 255 0
3  444 74 41  255 72 0
3  33 32 636  145 255 0
4  874 897 73 41  255 0 145
4  894 239 238 832  218 255 0
4  710 236 239 894  218 255 0
4  832 238 292 833  218 255 0
4  832 712 710 894  218 255 0
4  555 888 147 148  0 255 218
4  149 419 555 148  0 255 218
4  416 146 147 888  0 255 218
4  460 820 300 461  255 145 0
4  396 442 443 397  0 255 72
4  120 441 440 119  255 0 0
5  437 712 830 641 824  218 255 0
4  439 436 437 438  218 255 0
4  435 432 433 434  255 145 0
3  130 431 430  255 145 0
3  429 428 131  255 145 0
4  48 56 654 603  255 72 0
4  48 466 465 37  255 72 0
4  37 465 835 49  255 72 0
4  48 37 426 427  0 255 0
4  102 414 413 101  0 72 255
4  425 268 220 424  255 145 0
4  425 853 852 496  255 145 0
4  424 220 135 134  255 145 0
3  425 424 134  255 145 0
4  343 422 423 344  218 255 0
4  420 365 346 421  218 255 0
4  421 346 331 621  218 255 0
4  421 18 16 420  218 255 0
4  150 418 419 149  0 255 218
4  417 145 146 416  0 255 218
4  415 412 413 414  0 72 255
4  409 408 407 406  255 145 0
4  404 341 282 451  255 145 0
4  401 573 572 566  218 255 0
4  403 400 401 402  218 255 0
4  399 396 397 398  0 255 72
6  395 144 111 145 417 394  0 255 218
4  712 700 698 710  218 255 0
4  436 696 695 437  218 255 0
4  430 478 462 632  255 145 0
4  650 701 17 21  218 255 0
4  422 699 15 423  218 255 0
4  207 206 559 697  255 145 0
5  351 324 329 639 690  218 255 0
4  235 234 657 597  0 255 72
4  683 656 652 680  218 255 0
4  589 676 80 81  255 0 72
4  621 331 309 328  218 255 0
4  621 19 18 421  218 255 0
4  665 847 823 379  255 145 0
4  380 667 665 379  255 145 0
4  661 386 240 660  255 145 0
4  660 240 330 483  255 145 0
4  664 663 661 660  255 145 0
4  37 49 659 426  0 255 0
4  396 597 657 442  0 255 72
3  654 56 38  255 72 0
4  617 650 21 20  218 255 0
4  400 453 452 401  218 255 0
4  449 253 252 645  255 145 0
4  449 801 279 451  255 145 0
4  645 252 124 123  255 145 0
3  645 123 449  255 145 0
4  640 834 824 641  218 255 0
4  328 309 312 329  218 255 0
4  641 830 838 640  218 255 0
5  390 373 596 637 638  0 255 72
4  527 525 354 359  255 0 218
4  97 546 340 95  0 72 255
4  92 83 82 93  255 72 0
4  359 92 93 527  255 0 218
4  89 95 96 90  255 72 0
4  354 525 88 89  255 0 218
4  546 414 334 340  0 72 255
4  103 334 414 102  0 72 255
4  83 92 91 84  255 72 0
4  317 267 266 591  255 0 72
4  317 591 82 83  255 0 72
4  328 327 19 621  218 255 0
4  321 617 20 322  218 255 0
4  373 235 597 596  0 255 72
3  478 464 462  255 145 0
4  265 607 609 262  255 145 0
5  412 605 100 101 413  0 72 255
4  603 463 466 48  255 72 0
4  399 596 597 396  0 255 72
4  591 589 81 82  255 0 72
4  388 387 579 580  255 145 0
3  517 518 568  218 255 0
3  402 401 566  218 255 0
4  562 560 448 450  218 255 0
4  419 600 553 555  0 255 218
4  416 888 590 595  0 255 218
4  154 385 709 152  0 0 255
4  342 341 607 265  255 145 0
4  206 364 760 559  255 145 0
4  304 977 978 305  218 255 0
4  775 774 722 723  255 145 0
6  987 389 384 155 114 156  0 0 255
4  274 273 387 388  255 145 0
4  155 384 385 154  0 0 255
4  382 380 379 378  255 145 0
3  375 372 374  255 145 0
4  418 869 600 419  0 255 218
4  864 869 868 865  0 255 218
4  417 416 595 864  0 255 218
4  876 874 41 74  255 0 145
4  870 868 869 418  0 255 218
4  394 417 864 865  0 255 218
4  860 859 851 849  255 218 0
4  10 849 851 11  255 218 0
4  766 138 139 763  0 255 145
3  475 842 470  255 145 0
4  484 664 660 483  255 145 0
4  833 292 291 838  218 255 0
3  833 838 830  218 255 0
3  826 824 834  218 255 0
4  833 830 712 832  218 255 0
4  438 437 824 826  218 255 0
4  588 806 816 817  255 145 0
4  800 137 138 766  0 255 145
3  65 810 39  255 72 0
4  270 269 806 588  255 145 0
6  803 136 109 137 800 802  0 255 145
4  699 796 13 15  218 255 0
3  584 271 270  255 145 0
4  346 365 23 25  218 255 0
4  206 205 363 364  255 145 0
4  315 314 352 353  255 145 0
4  331 346 25 333  218 255 0
4  283 282 341 342  255 145 0
4  338 335 336 337  0 218 255
4  309 331 333 310  218 255 0
4  325 225 272 275  255 145 0
4  319 218 219 814  218 255 0
4  296 318 319 297  218 255 0
4  316 313 314 315  255 145 0
5  308 304 305 306 307  218 255 0
4  286 285 302 300  255 145 0
3  466 463 465  255 72 0
4  454 460 461 455  255 145 0
4  457 456 335 338  0 218 255
4  381 454 455 383  255 145 0
4  376 299 298 377  218 255 0
4  446 65 39 445  72 0 255
4  668 955 604 602  255 145 0
4  586 585 506 505  255 145 0
4  299 296 297 298  218 255 0
4  295 220 268 271  255 145 0
3  292 290 291  218 255 0
3  261 121 258  255 145 0
3  289 287 288  255 145 0
4  223 222 285 286  255 145 0
4  284 281 282 283  255 145 0
3  278 276 277  255 218 0
4  275 272 273 274  255 145 0
4  271 268 269 270  255 145 0
4  266 77 78 214  255 0 72
4  267 75 77 266  255 0 72
4  265 262 263 264  255 145 0
4  261 258 259 260  255 145 0
4  257 254 255 256  0 255 218
4  251 249 248 250  72 255 0
3  249 247 248  72 255 0
4  246 245 221 224  255 145 0
4  239 236 237 238  218 255 0
4  235 170 171 234  0 255 72
4  233 230 231 232  255 145 0
4  229 831 815 226  255 145 0
4  229 226 227 228  255 145 0
4  224 221 222 223  255 145 0
4  214 78 79 213  255 0 72
5  390 168 117 169 373  0 255 72
4  284 283 240 386  255 145 0
4  226 381 383 227  255 145 0
4  236 376 377 237  218 255 0
4  373 169 170 235  0 255 72
5  871 866 91 90 96  255 72 0
4  706 705 708 576  0 0 255
4  232 231 313 316  255 145 0
4  342 265 264 330  255 145 0
4  252 253 282 281  255 145 0
4  238 237 290 292  218 255 0
4  283 342 330 240  255 145 0
4  246 224 815 831  255 145 0
4  286 300 820 459  255 145 0
4  224 223 458 815  255 145 0
4  807 804 805 809  255 218 0
4  223 286 459 458  255 145 0
4  315 353 685 684  255 145 0
4  728 368 367 366  218 255 0
4  351 347 345 348  218 255 0
4  329 324 323 326  218 255 0
4  368 312 311 367  218 255 0
4  359 354 355 360  255 0 218
4  267 317 320 303  255 0 72
4  367 311 310 366  218 255 0
4  322 327 326 323  218 255 0
4  344 349 348 345  218 255 0
4  96 339 332 104  0 72 255
4  95 340 339 96  0 72 255
4  360 355 90 91  255 0 218
4  360 91 92 359  255 0 218
4  355 354 89 90  255 0 218
4  351 348 349 350  218 255 0
4  347 343 344 345  218 255 0
4  340 334 332 339  0 72 255
4  104 332 334 103  0 72 255
4  329 326 327 328  218 255 0
4  324 321 322 323  218 255 0
4  84 76 303 320  255 0 72
4  320 317 83 84  255 0 72
4  312 309 310 311  218 255 0
4  303 76 75 267  255 0 72
4  301 208 209 210  255 145 0
4  210 209 204 207  255 145 0
4  209 208 205 204  255 145 0
4  207 204 205 206  255 145 0
13  203 192 191 193 194 195 196 197 198 199 200 201 202  255 145 0
13  192 203 202 201 200 199 198 197 196 195 194 193 191  255 218 0
6  190 179 46 44 188 189  255 145 0
6  179 190 189 188 44 46  72 255 0
5  187 44 46 178 186  255 145 0
5  44 187 186 178 46  145 255 0
8  185 178 46 47 181 182 183 184  255 145 0
8  178 185 184 183 182 181 47 46  145 255 0
4  180 47 46 179  255 145 0
4  47 180 179 46  72 255 0
5  177 168 117 118 176  255 0 0
5  168 177 176 118 117  0 255 72
9  175 118 117 169 170 171 172 173 174  255 145 0
9  118 175 174 173 172 171 170 169 117  0 255 72
4  167 160 115 116  255 0 0
4  160 167 116 115  0 218 255
8  166 116 115 161 162 163 164 165  255 145 0
8  116 166 165 164 163 162 161 115  0 218 255
8  159 153 152 154 155 114 113 158  255 145 0
8  153 159 158 113 114 155 154 152  0 0 255
4  157 113 114 156  255 0 0
4  113 157 156 114  0 0 255
4  151 144 111 112  255 0 0
4  144 151 112 111  0 255 218
8  150 112 111 145 146 147 148 149  255 145 0
8  112 150 149 148 147 146 145 111  0 255 218
4  143 136 109 110  255 0 0
4  136 143 110 109  0 255 145
8  142 110 109 137 138 139 140 141  255 145 0
8  110 142 141 140 139 138 137 109  0 255 145
31  135 106 105 107 108 109 110 111 112 113 114 115 116 117 118 119 120 121 122 123 124 125 126 127 128 129 130 131 132 133 134  255 145 0
31  106 135 134 133 132 131 130 129 128 127 126 125 124 123 122 121 120 119 118 117 116 115 114 113 112 111 110 109 108 107 105  255 0 0
10  104 96 95 97 98 99 100 101 102 103  255 72 0
10  96 104 103 102 101 100 99 98 97 95  0 72 255
10  94 86 85 87 88 89 90 91 92 93  255 72 0
10  86 94 93 92 91 90 89 88 87 85  255 0 218
10  84 76 75 77 78 79 80 81 82 83  255 72 0
10  76 84 83 82 81 80 79 78 77 75  255 0 72
4  74 67 42 41  255 72 0
4  67 74 41 42  255 0 145
8  73 41 42 68 69 70 71 72  255 72 0
8  41 73 72 71 70 69 68 42  255 0 145
7  60 61 57 58 64 40 39  255 72 0
7  61 60 39 40 64 58 57  72 0 255
3  66 60 39  255 72 0
3  60 66 39  72 0 255
3  65 39 59  255 72 0
3  39 65 59  72 0 255
3  40 59 39  255 72 0
3  59 40 39  72 0 255
4  63 58 57 62  255 72 0
4  58 63 62 57  72 0 255
4  56 48 37 38  255 72 0
4  48 56 38 37  0 255 0
9  55 38 37 49 50 51 52 53 54  255 72 0
9  38 55 54 53 52 51 50 49 37  0 255 0
7  43 45 44 46 47 27 36  145 255 0
7  45 43 36 27 47 46 44  72 255 0
4  34 43 36 35  145 255 0
4  43 34 35 36  72 255 0
7  36 27 26 32 33 34 35  145 255 0
7  27 36 35 34 33 32 26  255 72 0
6  31 26 27 28 29 30  145 255 0
6  26 31 30 29 28 27  255 72 0
4  25 23 22 24  218 255 0
4  23 25 24 22  0 145 255
6  21 17 16 18 19 20  218 255 0
6  17 21 20 19 18 16  218 0 255
4  15 13 12 14  218 255 0
4  13 15 14 12  145 0 255
6  1 4 3 5 6 0  255 218 0
6  4 1 0 6 5 3  218 255 0
5  11 1 2 9 10  255 218 0
5  1 11 10 9 2  218 255 0
5  8 2 1 0 7  255 218 0
5  2 8 7 0 1  218 255 0

