OFF
1042 939 0

-20.137 -28.8173 -1.4069
-23.3485 -31.0681 -7.41226
-22.1312 -30.2149 -7.41226
-21.6341 -29.8665 -7.41226
-21.0694 -29.4708 -7.41226
-20.137 -28.8173 -7.41226
-14.139 -24.6135 -7.41226
-14.139 -24.6135 -4.17435
-14.139 -24.6135 -1.4069
-20.137 -28.8173 1.52169
-21.0694 -29.4708 1.52169
-21.6341 -29.8665 1.52169
-22.1312 -30.2149 1.52169
-23.3485 -31.0681 1.52169
-23.3485 -31.0681 -1.4069
28.1604 5.03213 -1.4069
28.1604 5.03213 1.52169
28.1604 5.03213 -4.17435
28.1604 5.03213 -7.41226
35.0617 9.86895 -7.41226
36.1194 10.6102 -7.41226
37.3347 11.462 -7.41226
37.3347 11.462 -1.4069
37.3347 11.462 1.52169
36.1194 10.6102 1.52169
35.6327 10.2691 1.52169
35.0617 9.86895 1.52169
34.3836 9.39373 1.52169
-12.1094 -34.9844 1.52169
-12.1094 -34.9844 -0.508892
-12.2346 -34.8062 -0.279446
-12.2346 -34.8062 1.52169
-8.60142 -32.5082 -0.491117
-8.60142 -32.5082 1.52169
-8.70705 -32.3576 1.52169
33.4583 -3.08924 1.52169
33.4583 -3.08924 -0.511178
-8.70705 -32.3576 -0.297336
-32.6789 1.81805 3.02551
-32.6789 1.81805 1.52169
-32.4683 1.96035 1.52169
-32.4683 1.96035 2.7814
10.8719 29.905 1.52169
10.7915 29.8491 1.52169
10.7915 29.8491 2.99042
10.8719 29.905 3.08464
-31.4032 0.471703 1.52169
-31.6258 0.316682 1.52169
-31.6258 0.316682 3.02327
-31.4032 0.471703 2.76266
16.6793 21.5499 1.52169
16.5599 21.4667 1.52169
16.5599 21.4667 2.91779
16.6793 21.5499 3.0578
14.5122 24.4423 2.94357
14.5122 24.4423 1.52169
14.6177 24.516 1.52169
14.6177 24.516 3.06733
-19.7432 -16.2647 2.8003
-19.7432 -16.2647 1.52169
-19.9118 -16.3835 1.52169
-19.9118 -16.3835 2.99841
-21.8031 -13.3858 2.83652
-21.8031 -13.3858 1.52169
22.4375 13.2656 1.52169
22.2788 13.1562 1.52169
22.2788 13.1562 2.84578
22.4375 13.2656 3.03119
20.3939 15.8953 2.86952
20.3939 15.8953 1.52169
20.5395 15.9963 1.52169
20.5395 15.9963 3.03996
-25.4802 -7.80603 1.52169
-25.7813 -8.01565 1.52169
-25.7813 -8.01565 3.01086
-25.4802 -7.80603 2.6585
-27.8095 -5.12403 3.01517
-27.8095 -5.12403 1.52169
-27.536 -4.93294 1.52169
-27.536 -4.93294 2.69465
-21.9453 -13.4844 3.00272
-21.9453 -13.4844 1.52169
9.59839 31.5828 1.52169
9.59839 31.5828 3.00544
9.67066 31.6332 3.09019
26.9491 4.18317 1.58182
-12.9588 -23.7864 1.60179
9.67066 31.6332 1.52169
10.7833 -18.8249 -7.41226
10.7851 -18.8274 -7.41226
10.7851 -18.8274 -4.17435
10.7833 -18.8249 -4.17435
10.4607 -18.366 1.52169
10.4208 -18.3093 1.52169
19.2765 -12.8297 -4.17435
19.3239 -12.9004 -4.17435
19.3239 -12.9004 -1.4069
19.2765 -12.8297 -1.4069
30.0094 -4.2049 0.609566
30.2017 -4.48435 0.252176
34.3836 9.39373 1.5781
34.3523 9.43749 1.52169
35.6327 10.2691 1.57747
35.6017 10.3124 1.52169
36.6845 12.3965 -1.4069
27.7426 21.5472 -7.41226
27.6236 21.4627 -7.41226
19.3239 -12.9004 -0.439495
19.2765 -12.8297 -0.349862
-22.4038 -28.7684 -1.4069
-22.9059 -29.1076 -1.4069
-30.1627 -18.7363 2.44294
-30.1627 -18.7363 1.52169
19.2765 -12.8297 -7.41226
19.3239 -12.9004 -7.41226
31.27 -4.6082 -0.50008
31.27 -4.6082 -1.4069
19.3239 -12.9004 1.52169
19.2765 -12.8297 1.52169
-23.4483 -27.2783 1.52169
-23.4483 -27.2783 3.02371
27.6166 -6.94256 -1.4069
27.7121 -7.07784 -1.4069
27.7121 -7.07784 -0.482036
27.6166 -6.94256 -0.307603
27.7426 21.5472 3.04895
27.6236 21.4627 3.18869
27.6236 21.4627 4.14867
27.7426 21.5472 4.14867
-20.8994 -27.7519 -7.41226
33.5069 13.2402 -7.41226
30.6424 17.2436 -7.41226
27.988 5.2801 -1.4069
31.27 -4.6082 1.52169
31.156 -4.44416 1.52169
27.1417 -6.26972 0.560015
27.3145 -6.5146 0.244248
27.3145 -6.5146 1.52169
27.1417 -6.26972 1.52169
-3.27051 -28.0217 -1.4069
-3.27051 -28.0217 0.160259
27.6166 -6.94256 -4.17435
27.7121 -7.07784 -4.17435
10.4607 -18.366 0.197966
10.4607 -18.366 -1.4069
10.7833 -18.8249 -1.4069
10.7833 -18.8249 -0.392896
30.8616 -4.02031 1.52169
8.15678 -8.11934 -7.41226
8.23031 -8.22513 -7.41226
8.23031 -8.22513 -4.17435
8.15679 -8.11935 -4.17435
-28.7769 -5.79983 4.14867
-22.9254 -14.1646 4.14867
-21.4373 -28.1153 4.14867
-15.8209 -24.3205 4.14867
-33.7722 1.34101 4.14867
-39.3377 -2.53978 4.14867
22.3992 0.994418 -1.4069
22.3992 0.994418 -4.17435
22.3861 1.0132 -4.17435
22.3861 1.0132 -1.4069
28.2266 21.8906 1.52169
27.7426 21.5472 1.52169
28.2266 21.8906 2.48048
14.1986 -16.458 -1.4069
14.1777 -16.4288 -1.4069
14.1777 -16.4288 -0.375697
14.1986 -16.458 -0.413502
27.7121 -7.07784 1.52169
27.6166 -6.94256 1.52169
22.3992 0.994418 1.58409
22.3992 0.994418 1.52169
22.3861 1.0132 1.56007
-32.6789 1.81805 -4.17435
-32.6789 1.81805 -7.41226
-32.4683 1.96035 -7.41226
-32.4683 1.96035 -4.17435
9.73801 -17.3382 1.52169
21.9307 29.9376 -7.41226
21.6769 29.7739 -7.41226
24.186 26.6817 -7.41226
23.986 26.5466 -7.41226
-6.22059 -30.0962 1.52169
-6.98956 -29.0476 1.52169
18.974 -12.3796 0.221344
18.974 -12.3796 -1.4069
2.1221 -24.2297 1.52169
1.36599 -23.1987 1.52169
14.1777 -16.4288 1.52169
14.1986 -16.458 1.52169
10.7833 -18.8249 1.52169
22.3992 0.994418 -7.41226
22.3861 1.0132 -7.41226
28.2266 21.8906 4.14867
-32.8133 2.00963 -4.17435
-40.3127 -3.21963 -4.17435
35.4802 11.5237 -1.4069
18.974 -12.3796 1.52169
-23.3953 -31.0015 1.52169
-24.1396 -29.9413 0.163674
-24.1396 -29.9413 1.52169
-22.9059 -29.1077 0.189731
-22.9059 -29.1077 1.52169
26.6152 -5.52394 1.52169
-0.49581 -13.8593 -7.41226
-0.44502 -13.9314 -7.41226
-0.445011 -13.9314 -4.17435
-0.49581 -13.8593 -4.17435
30.663 -3.73429 1.52169
30.8616 -4.02031 0.253988
30.663 -3.73429 0.620859
27.6166 -6.94256 -7.41226
27.7121 -7.07784 -7.41226
-32.6789 1.81805 -1.4069
-32.4683 1.96035 -1.4069
-6.22059 -30.0962 0.152158
-6.22059 -30.0962 -1.4069
-5.96038 -30.451 -1.4069
-5.96038 -30.451 -0.311265
2.1221 -24.2297 0.175067
2.1221 -24.2297 -1.4069
2.41903 -24.6346 -1.4069
2.41903 -24.6346 -0.353762
36.6845 12.3965 1.52169
36.6845 12.3965 0.383165
37.3048 11.505 1.52169
30.2017 -4.48435 -1.4069
18.974 -12.3796 -4.17435
10.7851 -18.8274 -0.396191
10.7851 -18.8274 -1.4069
11.337 -19.6122 -1.4069
30.1751 -3.03198 1.52169
26.8063 20.8827 4.14867
-24.1396 -29.9412 -1.4069
-5.96038 -30.451 1.52169
28.2266 21.8906 -4.17435
27.7426 21.5472 -4.17435
27.7426 21.5472 -1.4069
28.2266 21.8906 -1.4069
13.8557 -15.9788 0.207289
13.7883 -15.8846 0.329282
13.7883 -15.8846 1.52169
13.8557 -15.9788 1.52169
10.6813 -18.1217 0.275597
10.6813 -18.1217 1.52169
10.7232 -18.1815 1.52169
10.7232 -18.1815 0.198687
-29.6695 -18.4031 4.14867
-29.6695 -18.4031 3.01625
-30.1627 -18.7363 4.14867
27.3694 -6.10573 0.563951
27.5431 -6.35385 0.244876
14.1986 -16.458 -4.17435
14.1777 -16.4288 -4.17435
13.7056 -4.37015 -1.4069
13.7056 -4.37014 -4.17435
13.6532 -4.29498 -4.17435
13.6532 -4.29498 -1.4069
14.1986 -16.458 -7.41226
14.1777 -16.4288 -7.41226
-22.5028 -26.593 4.14867
-23.4483 -27.2783 4.14867
18.974 -12.3796 -7.41226
34.078 13.5277 -2.15547
33.5781 13.1406 -2.12372
33.57 13.1343 -2.1232
33.57 13.1343 -1.4069
34.078 13.5277 -1.4069
10.4607 -18.366 -4.17435
28.2266 21.8906 -7.41226
2.41903 -24.6346 1.52169
10.8719 29.905 -1.4069
10.7915 29.8491 -1.4069
13.7056 -4.37013 -7.41226
13.6532 -4.29498 -7.41226
27.3145 -6.5146 -1.4069
10.8719 29.905 -4.17435
10.7915 29.8491 -4.17435
10.4607 -18.366 -7.41226
16.7931 36.5996 1.52169
16.7931 36.5996 -1.4069
16.7931 36.5996 -4.17435
17.1457 36.8455 -1.4069
9.67066 31.6332 -1.4069
-12.1094 -34.9844 -1.3131
-12.2346 -34.8062 -1.33013
10.8719 29.905 -7.41226
10.7915 29.8491 -7.41226
18.3478 35.11 -7.41226
18.0214 34.8828 -7.41226
-28.6955 -17.745 4.14867
-39.4727 -5.43037 4.14867
-2.937 -16.5046 -4.17435
-3.02326 -16.3809 -4.17435
-3.02326 -16.3809 -1.4069
-2.937 -16.5046 -1.4069
-0.174018 -14.316 -1.4069
-0.174018 -14.316 -4.17435
-0.0426905 -14.5024 -4.17435
-0.0426905 -14.5024 -1.4069
36.4781 1.38019 1.52169
37.2394 0.273928 0.107077
37.2394 0.273928 1.52169
30.8546 -4.89653 -1.4069
30.8546 -4.89653 -0.497973
30.7419 -4.73651 -0.291768
30.7419 -4.73651 -1.4069
8.49044 -8.59943 -1.4069
8.49044 -8.59943 -4.17435
8.5625 -8.70312 -4.17435
8.5625 -8.70312 -1.4069
2.1221 -24.2297 -4.17435
2.41903 -24.6346 -4.17435
8.49044 -8.59943 1.45865
8.5625 -8.70312 1.52169
8.5625 -8.70312 1.59102
8.52476 -8.64881 1.52169
19.0796 -12.0747 0.42071
19.0796 -12.0747 1.52169
19.1875 -12.2295 1.52169
19.1875 -12.2295 0.22193
34.078 13.5277 -4.17435
33.5781 13.1406 -4.17435
-12.4609 -34.4844 -1.3609
-12.4609 -34.4844 0.135021
27.3145 -6.5146 -4.17435
27.5431 -6.35385 -1.4069
8.49044 -8.59943 -7.41226
8.5625 -8.70312 -7.41226
-2.937 -16.5046 -7.41226
-3.02326 -16.3809 -7.41226
36.1074 1.12068 1.52169
36.8672 0.0156199 1.52169
19.5326 15.2977 -4.17435
19.5326 15.2977 -7.41226
16.5599 21.4667 -1.4069
16.6793 21.5499 -1.4069
16.6793 21.5499 -4.17435
-27.3894 -21.6559 3.01899
-27.3894 -21.6559 4.14867
-26.4311 -20.9803 4.14867
22.1571 1.34031 -4.17435
22.1571 1.34033 -7.41226
21.912 1.69044 -7.41226
21.912 1.69044 -4.17435
-23.7049 -26.9123 1.52169
-24.2025 -27.2545 1.52169
-24.2025 -27.2545 2.44152
-23.7049 -26.9123 3.02341
22.4242 -10.7484 -0.455218
22.4242 -10.7484 1.52169
22.3585 -10.6542 1.52169
22.3585 -10.6542 -0.334246
30.8546 -4.89653 1.52169
30.7419 -4.73651 1.52169
14.5122 24.4423 -1.4069
14.5122 24.4423 -4.17435
14.6177 24.516 -4.17435
14.6177 24.516 -1.4069
-31.4032 0.471703 -7.41226
-31.6258 0.316682 -7.41226
-31.6258 0.316682 -4.17435
-31.4032 0.471703 -4.17435
24.6534 26.9974 2.4856
-2.81614 -16.6779 1.59671
14.6177 24.516 -7.41226
2.34288 -24.0745 0.175674
1.61194 -23.0265 1.52169
5.25737 -22.025 0.183677
5.25737 -22.025 1.52169
4.52585 -20.9867 1.52169
36.8672 0.0156199 -1.4069
37.2109 -0.484381 -1.4069
37.2109 -0.484381 -0.530209
36.8672 0.0156199 0.108989
22.3892 30.2335 2.48884
21.9307 29.9376 3.01117
21.9307 29.9376 4.14867
22.3892 30.2335 4.14867
27.9641 4.89459 1.52169
27.9641 4.89459 1.58131
30.1536 1.71302 5.62984
32.3643 -1.49954 1.52169
21.5915 2.14828 -7.41226
21.5915 2.14828 -4.17435
-2.81614 -16.6779 -4.17435
-2.81614 -16.6779 -7.41226
-0.0426905 -14.5024 -7.41226
0.0665913 -14.6575 -7.41226
0.0665913 -14.6575 -4.17435
24.1861 26.6816 3.02584
24.6535 26.9973 4.14867
24.1861 26.6816 4.14867
-12.4609 -34.4844 1.52169
-13.218 -33.4076 1.52169
-39.4727 -5.43037 1.52169
-39.0014 -5.09038 1.52169
18.0214 34.8828 3.36886
18.0214 34.8828 4.14867
17.3533 34.4176 4.14867
33.57 13.1343 1.52169
34.078 13.5277 1.52169
5.55991 -22.4544 -1.4069
6.12697 -23.2593 -1.4069
27.5431 -6.35385 -4.17435
27.5431 -6.35385 -7.41226
5.55095 -10.8138 -1.4069
5.55095 -10.8138 -4.17435
5.46547 -10.692 -4.17435
5.46547 -10.692 -1.4069
-12.7123 -34.6611 0.134331
-12.7123 -34.6611 -1.34878
-13.1466 -34.0541 -1.4069
-13.6379 -33.3675 -1.4069
-13.6379 -33.3675 1.52169
-13.4786 -33.59 1.52169
36.3504 1.56579 1.52169
36.3504 1.56579 -1.4069
37.2393 0.273928 -1.4069
-0.0426905 -14.5024 1.39637
0.0665913 -14.6575 -1.4069
0.0665913 -14.6575 1.52169
0.0665913 -14.6575 1.59527
0.0261659 -14.6001 1.52169
5.55095 -10.8138 1.59253
5.55095 -10.8138 1.52169
5.46547 -10.692 1.43657
5.51212 -10.7585 1.52169
2.34288 -24.0745 1.52169
5.55991 -22.4544 -0.369691
5.55991 -22.4544 1.52169
-33.6406 -13.7656 2.44378
-33.6406 -13.7656 1.52169
-33.1596 -13.4242 1.52169
-33.1596 -13.4242 3.01207
22.4242 -10.7484 -4.17435
22.4242 -10.7484 -1.4069
22.3585 -10.6542 -1.4069
22.3585 -10.6542 -4.17435
-27.8785 -22.0008 2.4424
-27.8785 -22.0008 4.14867
16.4895 -2.23944 -1.4069
16.4895 -2.23944 -4.17435
16.6079 -2.40917 -4.17435
16.6079 -2.40918 -1.4069
24.7605 3.75484 -1.4069
24.7605 3.75484 -4.17435
25.0734 3.31074 -4.17435
25.0734 3.31073 -1.4069
-6.01784 -29.9536 -1.4069
-6.01784 -29.9536 -4.17435
22.4242 -10.7484 -7.41226
22.3585 -10.6542 -7.41226
30.8546 -4.89653 -7.41226
30.8546 -4.89653 -4.17435
30.7419 -4.73651 -4.17435
30.7419 -4.73651 -7.41226
-33.1596 -13.4242 4.14867
-32.1975 -12.7415 4.14867
13.1296 -14.964 1.52169
15.5978 20.7969 -4.17435
15.5978 20.7969 -7.41226
13.497 23.733 -7.41226
13.497 23.733 -4.17435
28.001 21.174 -7.41226
20.5395 15.9963 -7.41226
8.23031 -8.22513 0.980813
8.23031 -8.22513 -1.4069
5.24998 -10.3851 -1.4069
5.24998 -10.3851 1.04341
29.9095 18.4188 3.06304
29.9095 18.4188 4.14867
30.4129 18.7659 4.14867
30.4129 18.7659 2.47735
20.3939 15.8953 -1.4069
20.3939 15.8953 -4.17435
20.5395 15.9963 -4.17435
20.5395 15.9963 -1.4069
-25.4802 -7.80603 -4.17435
-25.7813 -8.01565 -4.17435
-25.7813 -8.01565 -1.4069
-25.4802 -7.80603 -1.4069
-27.8095 -5.12403 -1.4069
-27.8095 -5.12403 -4.17435
-27.536 -4.93294 -4.17435
-27.536 -4.93294 -1.4069
-20.7717 -12.67 -1.4069
-20.7717 -12.67 -4.17435
-18.7703 -15.5786 -4.17435
-18.7703 -15.5786 -1.4069
-19.5336 -16.1168 -4.17435
-19.5336 -16.1168 -1.4069
-21.5924 -13.2395 -1.4069
-21.5924 -13.2395 -4.17435
-21.8031 -13.3858 -4.17435
-21.8031 -13.3858 -1.4069
26.0572 8.05793 -1.4069
9.59839 31.5828 -1.4069
26.0572 8.05793 -2.28169
26.0572 8.05793 1.52169
13.497 23.733 -1.4069
15.5978 20.7969 -1.4069
16.5599 21.4667 -4.17435
-21.9453 -13.4844 -1.4069
-21.9453 -13.4844 -4.17435
-16.3589 -21.4486 -1.4069
-32.8133 2.00963 -1.4069
-16.3589 -21.4486 1.52169
-16.3589 -21.4486 -2.45018
22.2788 13.1562 -4.17435
9.59839 31.5828 -4.17435
-33.6406 -13.7656 4.14867
20.3939 15.8953 -7.41226
13.8557 -15.9788 -1.4069
-6.01784 -29.9536 -7.41226
18.3478 35.11 1.52169
18.3478 35.11 2.98789
18.7709 35.4046 2.49402
18.7709 35.4046 1.52169
-27.8785 -22.0008 1.52169
-27.3894 -21.6559 1.52169
5.55095 -10.8138 -7.41226
5.46547 -10.692 -7.41226
-8.94799 -32.0141 1.52169
29.9095 18.4188 1.52169
30.4129 18.7659 1.52169
37.2109 -0.484381 1.52169
5.24998 -10.3851 -4.17435
-3.35868 -15.9 -7.41226
-3.35867 -15.9001 -4.17435
-0.174018 -14.316 -7.41226
10.0017 -17.1536 1.52169
13.3335 -3.83663 -4.17435
13.3335 -3.83663 -1.4069
-25.4802 -7.80603 -7.41226
-25.7813 -8.01565 -7.41226
10.4593 -19.0536 -1.4069
-8.10223 -33.2199 -1.4069
-8.60142 -32.5082 -1.4069
-8.70705 -32.3576 -1.4069
33.4583 -3.08924 -1.4069
33.4583 -3.08924 -4.17435
33.6924 -2.92672 -1.4069
14.0469 -4.85937 -1.4069
14.0469 -4.85937 -4.17435
13.9981 -4.7894 -4.17435
13.9981 -4.7894 -1.4069
16.8783 -2.79693 -1.4069
16.8783 -2.79693 -4.17435
16.9149 -2.84933 -4.17435
16.9149 -2.84933 -1.4069
2.34288 -24.0745 -1.4069
2.34288 -24.0745 -4.17435
5.25737 -22.025 -4.17435
5.55991 -22.4544 -4.17435
5.25737 -22.025 -1.4069
-30.2787 3.43984 -7.41226
-30.2787 3.43984 -4.17435
2.41903 -24.6346 -7.41226
-20.8994 -27.7519 -1.4069
-20.137 -28.8173 1.60538
-20.1835 -28.7524 1.52169
-20.8994 -27.7519 0.232111
-14.8193 -23.6437 -1.4069
-14.2211 -24.4964 -1.4069
-14.8192 -23.6437 0.36053
-14.8193 -23.6437 -7.41226
-22.4038 -28.7684 -7.41226
-39.4727 -5.43037 -7.41226
-39.0014 -5.09038 -7.41226
-39.0014 -5.09038 -4.17435
-39.4727 -5.43037 -4.17435
-12.1094 -34.9844 -7.41226
-12.2346 -34.8062 -7.41226
-35.7874 -10.6974 1.52169
-35.3065 -10.3615 1.52169
-35.3065 -10.3615 3.0095
-35.7874 -10.6974 2.44429
-35.3065 -10.3615 4.14867
-35.7874 -10.6974 4.14867
29.9095 18.4188 -4.17435
29.9095 18.4188 -1.4069
30.4129 18.7659 -1.4069
30.4129 18.7659 -4.17435
-27.8095 -5.12403 -7.41226
-27.536 -4.93294 -7.41226
14.0469 -4.85937 -7.41226
13.9981 -4.7894 -7.41226
16.8783 -2.79693 -7.41226
16.9149 -2.84933 -7.41226
10.7232 -18.1815 -1.4069
22.3892 30.2335 -4.17435
21.9307 29.9376 -4.17435
21.9307 29.9376 -1.4069
22.3892 30.2335 -1.4069
24.186 26.6816 -4.17435
24.6534 26.9974 -4.17435
24.6534 26.9974 -1.4069
24.186 26.6816 -1.4069
2.34288 -24.0745 -7.41226
5.25737 -22.025 -7.41226
5.55991 -22.4544 -7.41226
33.976 12.5845 -1.4069
34.9895 11.1681 -1.4069
34.9895 11.1681 0.418766
27.8869 21.0948 3.18375
16.7931 36.5996 3.39191
-34.3372 -9.68433 4.14867
21.9307 29.9376 1.52169
22.3892 30.2335 1.52169
24.6534 26.9974 1.52169
24.186 26.6816 1.52169
-8.60142 -32.5082 -1.48297
-8.70705 -32.3576 -1.49736
7.91139 -7.76624 -7.41226
7.91139 -7.76624 -4.17435
5.24998 -10.3851 -7.41226
-23.7049 -26.9123 -7.41226
-24.2025 -27.2545 -7.41226
-24.2025 -27.2545 -2.18124
-23.7049 -26.9123 -2.17581
-22.9059 -29.1076 -7.41226
-22.4038 -28.7684 0.200336
5.10634 -10.1804 -7.41226
5.10634 -10.1805 -4.17435
-13.3784 -33.1795 1.52169
-15.8828 -36.8906 -1.196
-16.7625 -35.6321 -1.31622
-14.9511 -34.3193 -1.4069
-16.7625 -35.6321 1.52169
-9.89924 -30.6579 1.52169
-16.7625 -35.6321 -1.4069
-19.2031 -32.1406 1.52169
-12.269 -27.2795 1.52169
-12.4609 -34.4844 -1.4069
-15.8828 -36.8906 -1.4069
-19.2031 -32.1406 -1.4069
24.6534 26.9975 -7.41226
34.9895 11.1681 -4.17435
33.346 -2.4283 1.52169
4.92893 -9.92775 -7.41226
4.92893 -9.92775 -4.17435
-28.496 -18.0301 4.14867
-29.4614 -18.7 3.0165
18.4817 -11.2175 1.52169
16.4895 -2.23944 -7.41226
16.6079 -2.40916 -7.41226
16.8783 -2.79693 1.51987
34.2835 9.53375 -1.4069
27.0593 20.5205 4.14867
27.988 5.28009 1.26466
27.988 5.28012 -7.41226
-8.28583 -20.5113 -7.41226
25.2811 3.01585 -7.41226
25.2819 3.01472 -7.41226
-11.9354 -27.7551 5.62511
-8.70705 -32.3576 -7.41226
-29.9506 -19.0394 1.52169
-29.4614 -18.7 1.52169
-29.9506 -19.0394 2.44289
-19.0771 -17.5735 -7.41226
-14.139 -24.6135 1.60238
28.001 21.174 3.05063
28.001 21.174 1.52169
13.3335 -3.83663 -7.41226
-17.7068 -14.8288 -7.41226
-19.5336 -16.1168 -7.41226
-17.7068 -14.8288 -4.17435
21.9218 -10.0282 0.469822
21.9218 -10.0282 1.52169
21.3506 -9.20921 1.52169
22.0522 -10.215 -1.4069
22.0522 -10.215 0.229797
13.8557 -15.9788 -7.41226
13.8557 -15.9788 -4.17435
-3.10838 -27.9077 -1.4069
-2.84285 -28.2871 -1.4069
-12.4609 -34.4844 -7.41226
-26.5721 -22.822 -7.41226
-21.6341 -29.8665 1.60613
18.3478 35.11 -1.4069
18.7709 35.4046 -1.4069
13.7057 -4.37016 0.963004
13.9981 -4.7894 1.49884
35.9784 1.30837 1.52169
39.3938 3.67143 1.52169
39.3938 3.67143 -1.4069
32.447 -1.13495 1.52169
36.9688 7.14066 1.52169
30.1365 2.18906 1.52169
20.2719 4.03341 -7.41226
20.2719 4.03341 -4.17435
18.3478 35.11 -4.17435
18.7709 35.4046 -4.17435
18.7709 35.4046 -7.41226
22.0522 -10.215 1.52169
-3.10838 -27.9077 0.160704
-2.84285 -28.2871 -0.327076
-2.84285 -28.2871 1.52169
-3.10838 -27.9077 1.52169
30.4442 -4.31387 0.252842
30.4442 -4.31387 1.52169
-3.84923 -26.8494 1.52169
30.2469 -4.03385 0.613671
29.7506 -3.32919 1.52169
5.38125 -21.9379 1.52169
32.8289 -2.17472 1.52169
33.0433 -2.48619 1.52169
10.4593 -19.0536 -0.394538
10.4593 -19.0536 1.52169
33.5651 -2.74363 1.52169
-9.6986 -30.944 1.52169
33.2736 -2.32423 1.52169
33.6924 -2.92672 1.52169
32.5904 -1.34128 1.52169
33.6924 -2.92672 -0.512365
33.4583 -3.08924 -7.41226
38.016 7.89958 -1.4069
36.9688 7.14066 -1.4069
38.016 7.89958 1.52169
10.7232 -18.1815 -4.17435
36.8672 0.0156199 -7.41226
37.2109 -0.484381 -7.41226
37.2109 -0.484381 -4.17435
-27.8785 -22.0008 -4.17435
-27.3894 -21.6559 -4.17435
25.2811 3.01585 -4.17435
25.2811 3.01585 -1.4069
-29.262 1.96244 -7.41226
-29.262 1.96244 -4.17435
16.6079 -2.40919 1.0243
25.2811 3.01585 1.58119
25.2484 3.06226 1.52169
25.0734 3.31072 1.2031
36.6845 12.3965 -7.41226
37.3347 11.462 1.57662
-21.9453 -13.4844 -7.41226
-21.5924 -13.2395 -7.41226
-27.8785 -22.0008 -7.41226
-27.3894 -21.6559 -7.41226
17.1457 36.8455 -4.17435
9.67066 31.6332 -4.17435
8.55205 28.2899 -7.41226
8.55205 28.2899 -4.17435
10.7232 -18.1815 -7.41226
25.0733 3.31075 -7.41226
-33.6406 -13.7656 -4.17435
-33.1596 -13.4242 -4.17435
-35.7874 -10.6974 -4.17435
-35.3065 -10.3615 -4.17435
28.001 21.174 -4.17435
28.001 21.174 -1.4069
27.988 5.28011 -4.17435
27.6119 5.8213 -4.17435
19.1875 -12.2295 -1.4069
19.1875 -12.2295 -4.17435
16.1698 -1.78106 -7.41226
16.1698 -1.78106 -4.17435
-8.58568 -20.4122 -1.4069
-8.43279 -20.3014 -4.17435
-8.43279 -20.3014 -7.41226
22.0522 -10.215 -7.41226
-8.58568 -20.4122 1.33401
25.4679 3.14511 -7.41226
-8.58568 -20.4122 -7.41226
25.4679 3.14511 -4.17435
-8.58568 -20.4122 -4.17435
26.5335 7.37271 -1.4069
27.6119 5.8213 -1.4069
-4.99999 -13.5469 -7.41226
-4.99999 -13.5469 -4.17435
-2.125 -11.5469 -7.41226
-2.125 -11.5469 -4.17435
-2.66495 -15.4313 -4.17435
-14.2211 -24.4964 -4.17435
-14.8193 -23.6437 -4.17435
27.9641 4.89459 -7.41226
27.9641 4.89459 -4.17435
-19.2031 -32.1406 -7.41226
-19.7642 -32.534 -7.41226
-19.7642 -32.534 1.52169
-3.10838 -27.9077 -7.41226
-2.84285 -28.2871 -7.41226
-2.84285 -28.2871 -4.17435
-3.10838 -27.9077 -4.17435
30.4442 -4.31387 -7.41226
30.4442 -4.31387 -4.17435
39.2109 8.76563 -1.4069
-5.34521 -31.2899 -1.4069
39.2109 8.76563 -7.41226
-11.8145 -21.6135 -4.17435
-11.8145 -21.6134 -7.41226
-11.1738 -22.5354 -1.4069
-13.3728 -19.3714 -7.41226
-11.1738 -22.5354 -4.17435
-13.3728 -19.3714 -4.17435
-11.2882 -22.3708 -4.17435
-11.2882 -22.3708 -1.4069
-6.22059 -30.0962 -4.17435
-6.22059 -30.0962 -7.41226
-5.96038 -30.451 -7.41226
-5.96038 -30.451 -4.17435
-23.4922 -6.42179 -7.41226
-23.4922 -6.42179 -4.17435
21.6769 29.7739 3.30027
21.6769 29.7739 4.14867
-25.4971 -3.50853 -7.41226
23.9861 26.5465 3.25694
-25.4971 -3.50853 -4.17435
23.9861 26.5465 4.14867
20.9321 29.2934 4.14867
35.4802 11.5237 -4.17435
32.974 15.1056 -4.17435
35.4802 11.5237 -7.41226
35.4802 11.5237 0.40846
27.6119 5.8213 0.573725
27.6119 5.8213 -7.41226
23.2147 26.0253 4.14867
-14.8192 -23.6437 1.52169
6.41173 -5.60836 -7.41226
6.41173 -5.60836 -4.17435
-12.7123 -34.6611 1.52169
-8.70705 -32.3576 -4.17435
33.6924 -2.92672 -4.17435
-11.1738 -22.5354 -7.41226
-11.2882 -22.3708 -7.41226
10.4593 -19.0536 -4.17435
34.2835 9.53374 1.52169
34.2835 9.53374 1.39763
33.7544 10.273 0.444707
34.0611 10.4952 4.14867
33.7544 10.273 1.52169
16.145 36.1477 4.14867
16.5599 21.4667 -7.41226
14.3903 19.9561 -7.41226
14.3903 19.9561 -4.17435
34.9895 11.1681 1.52169
35.5477 10.3879 1.52169
12.3203 22.911 -4.17435
12.3203 22.911 -7.41226
14.5122 24.4423 -7.41226
27.988 5.28009 1.52169
36.0414 10.7216 1.52169
18.2683 14.4203 -4.17435
18.2683 14.4203 -7.41226
-3.02326 -16.3809 1.21718
-2.937 -16.5046 1.37524
-0.174018 -14.316 1.15734
7.34564 30.012 -7.41226
7.34564 30.012 -4.17435
33.9591 12.5726 -1.4069
-39.4727 -5.43037 2.44517
-39.0014 -5.09038 3.00507
-39.0014 -5.09038 4.14867
-29.9506 -19.0394 -4.17435
-29.4614 -18.7 -4.17435
18.3478 35.11 4.14867
33.57 13.1343 3.08683
32.6924 12.4549 4.14867
27.9641 4.89459 -1.4069
33.57 13.1343 4.14867
28.9765 17.7753 4.14867
33.9322 10.6797 4.14867
34.8385 11.303 3.09508
2.1221 -24.2297 -7.41226
3.37811 -7.71868 -7.41226
3.37811 -7.71868 -4.17435
27.8869 21.0948 -7.41226
40.2891 2.3906 -7.41226
16.7931 36.5996 -7.41226
-23.7049 -26.9123 4.14867
-22.7424 -26.2506 4.14867
-19.9118 -16.3835 -7.41226
-22.4038 -28.7684 1.52169
-19.9118 -16.3835 -4.17435
-19.7432 -16.2647 -4.17435
-14.8192 -23.6437 2.9876
-18.6333 -26.2208 7.40858
27.3145 -6.5146 -7.41226
-22.4038 -28.7684 3.02497
22.1571 1.3403 -1.4069
17.1457 36.8455 2.98007
17.1457 36.8455 1.52169
34.9512 11.1403 1.52169
34.9512 11.1403 3.09581
-31.4032 0.471703 -1.4069
-31.6258 0.316682 -1.4069
27.6119 5.8213 1.52169
31.3111 8.50224 7.40138
27.6119 5.8213 3.00728
-19.7432 -16.2647 -1.4069
-19.9118 -16.3835 -1.4069
-19.7028 -11.9283 -7.41226
34.9895 11.1681 -7.41226
-19.7028 -11.9283 -4.17435
33.5069 13.2402 -4.17435
34.0263 13.6016 -7.41226
14.0105 -4.80728 1.52169
15.5392 25.1597 4.14867
-40.3127 -3.21963 1.52169
14.0469 -4.85937 1.52169
-40.3127 -3.21963 3.00349
21.104 29.0474 4.14867
14.0469 -4.85937 1.58827
21.8325 29.5563 3.29735
-21.6803 -29.8005 1.52169
14.7793 0.212525 -7.41226
35.4802 11.5237 1.52169
14.7793 0.212525 -4.17435
-8.60142 -32.5082 -7.41226
-8.60142 -32.5082 -4.17435
26.8481 -5.36095 1.52169
27.3694 -6.10573 1.52169
24.4387 4.21173 -7.41226
-2.66454 -15.431 -7.41226
22.3892 30.2335 -7.41226
24.4387 4.21173 -4.17435
34.078 13.5277 2.4721
-6.01784 -29.9536 0.152715
-10.4884 -17.3648 -7.41226
-8.89514 -19.6409 -7.41226
-8.89513 -19.6409 -4.17435
-10.4884 -17.3648 -4.17435
29.9095 18.4188 -7.41226
16.9149 -2.84933 1.52169
16.9149 -2.84933 1.58684
16.8793 -2.79836 1.52169
30.4129 18.7659 -7.41226
23.1527 6.0374 -7.41226
24.7605 3.75484 -7.41226
23.1527 6.0374 -4.17435
-8.43041 -20.3048 -1.4069
-8.43041 -20.3048 -4.17435
-8.28583 -20.5113 -4.17435
-8.28583 -20.5113 -1.4069
-16.3589 -21.4486 -4.17435
-16.3589 -21.4486 -7.41226
16.1698 -1.78106 -1.4069
17.1457 36.8455 -7.41226
21.4864 16.6534 4.14867
34.9512 11.1403 0.419571
24.4387 4.21173 -1.4069
30.697 17.2819 -7.41226
10.5732 32.2626 4.14867
28.5728 6.51768 4.14867
-8.94799 -32.0141 -7.41226
33.2736 -2.32423 -7.41226
-15.7874 -22.2634 -1.4069
22.4375 13.2656 -4.17435
22.2788 13.1562 -1.4069
22.4375 13.2656 -1.4069
-14.139 -24.6135 1.52169
-17.3034 -20.1021 -4.17435
16.6793 21.5499 -7.41226
25.0268 9.54045 -4.17435
39.2109 8.76563 1.52169
38.016 7.89958 -7.41226
36.9688 7.14066 -7.41226
33.346 -2.4283 -7.41226
33.7544 10.273 -1.4069
31.2032 17.6364 -7.41226
34.078 13.5277 4.14867
-23.3485 -31.0681 1.60699
36.1194 10.6102 1.57723
-24.1397 -29.9412 -7.41226
-11.8145 -21.6135 -1.4069
25.4679 3.14511 -1.4069
-40.3127 -3.21963 -7.41226
-8.43279 -20.3014 -1.4069
-8.89512 -19.6409 -1.4069
-20.2636 -32.8841 -7.41226
-20.2636 -32.8841 1.52169
-2.81614 -16.6779 -1.4069
19.1875 -12.2295 -7.41226
9.67066 31.6332 -7.41226
-14.2211 -24.4964 -7.41226
-11.2882 -22.3708 1.39078
-38.0386 -4.39593 4.14867
23.2639 12.0767 -7.41226
22.0522 -10.215 -4.17435
-11.1738 -22.5354 1.60089
28.1604 5.03213 1.58121
10.4593 -19.0536 -7.41226
36.0414 10.7216 -7.41226
33.5651 -2.74363 -7.41226
25.4679 3.14511 1.52169
25.4679 3.14511 1.58256
-6.75948 -28.8866 1.52169
-8.43041 -20.3048 1.33515
-6.01784 -29.9536 1.52169
-36.5591 -0.602296 7.41226
-8.28583 -20.5113 1.52169
-8.28583 -20.5113 1.59945
-32.8133 2.00963 3.02579
-8.32836 -20.4506 1.52169
25.2819 3.01472 1.58265
34.0263 13.6016 -4.17435
-22.1775 -30.1487 1.52169
-24.2025 -27.2545 4.14867
9.59839 31.5828 -7.41226
-32.8133 2.00963 -7.41226
-25.2925 -25.6967 -4.17435
36.089 10.6536 1.52169
-35.7874 -10.6974 -7.41226
-2.81614 -16.6779 1.52169
33.6924 -2.92672 -7.41226
22.4375 13.2656 -7.41226
-32.8133 2.00963 1.52169
-35.3065 -10.3615 -7.41226
26.0572 8.05793 -7.41226
22.2788 13.1562 -7.41226
-8.43041 -20.3048 -7.41226
20.1719 11.7031 -7.41226
-22.1312 -30.2149 1.60638
-29.5469 -18.5781 -7.41226
20.1719 11.7031 -4.17435
21.912 1.69044 -1.4069
30.4442 -4.31387 -1.4069
-30.0547 -18.8906 -7.41226
-2.85708 -16.6192 1.52169
26.0572 8.05793 -4.17435
40.2891 2.3906 -1.4069
-30.0547 -18.8906 -4.17435
-11.1738 -22.5354 1.52169
-21.4766 -33.7344 1.52169
-29.5469 -18.5781 -4.17435
-20.8994 -27.7519 1.52169
-27.0633 -23.166 -7.41226
-15.8828 -36.8906 -7.41226
-21.4766 -33.7344 -7.41226
-11.2169 -22.4733 1.52169
18.7709 35.4046 4.14867
-33.1596 -13.4242 -7.41226
21.5915 2.14828 -1.4069
22.1571 1.34029 1.14151
11.9043 -1.78752 -4.17435
28.128 5.07876 1.52169
22.3651 1.04318 1.52169
11.9043 -1.78752 -7.41226
-33.6406 -13.7656 -7.41226
13.3532 34.201 7.40881
17  662 86 981 993 365 423 425 316 904 926 171 996 987 85 381 382 656  255 0 0
7  661 679 618 568 129 567 937  0 255 0
15  661 873 737 536 585 361 175 1001 968 570 1009 1033 1015 740 679  0 255 0
4  661 953 875 873  0 255 0
5  37 219 789 538 32  255 0 0
19  656 382 383 232 705 912 204 671 645 460 532 178 371 368 188 703 988 184 712  255 0 0
4  657 801 800 946  255 0 0
4  657 574 573 910  255 0 0
4  6 825 795 7  255 0 0
7  6 5 4 779 1029 678 946  255 0 0
31  6 946 800 515 782 865 600 601 279 745 674 263 974 762 879 406 786 947 18 777 764 655 192 590 587 329 522 389 387 653 825  255 0 0
4  657 946 678 574  255 0 0
4  657 823 802 801  255 0 0
5  662 952 1024 981 86  255 0 0
6  662 656 712 631 634 952  255 0 0
4  982 100 27 16  0 0 255
8  979 131 943 924 465 868 466 1007  0 0 255
4  982 1037 101 100  0 0 255
4  979 1007 949 955  0 0 255
3  1037 651 842  0 0 255
8  1037 842 828 838 843 1003 103 101  0 0 255
11  975 287 366 954 466 868 106 182 180 290 870  0 0 255
4  87 284 281 280  0 0 255
4  975 870 282 742  0 0 255
4  1003 226 736 964  0 0 255
5  961 943 131 130 897  0 0 255
4  961 928 924 943  0 0 255
5  1003 843 908 224 226  0 0 255
4  961 813 584 928  0 0 255
5  6 976 567 129 5  0 255 0
4  6 7 775 976  0 255 0
4  661 937 936 953  0 255 0
6  87 280 607 833 944 84  0 0 255
4  1001 175 174 195  0 255 0
4  1008 39 38 994  0 255 0
4  1008 507 214 39  0 255 0
5  1008 900 196 195 507  0 255 0
4  1001 195 196 968  0 255 0
4  998 199 201 203  0 255 0
4  998 906 680 1014  0 255 0
4  1028 679 740 739  0 255 0
4  998 203 874 906  0 255 0
4  1028 739 725 1002  0 255 0
6  1008 994 156 157 902 900  0 255 0
4  1014 680 11 12  0 255 0
4  1014 963 199 998  0 255 0
4  964 102 103 1003  0 0 255
4  964 736 23 24  0 0 255
5  84 944 899 57 45  0 0 255
3  1041 944 833  0 0 255
6  1041 889 945 940 899 944  0 0 255
13  1041 833 400 811 903 818 233 650 862 859 863 831 889  0 0 255
5  18 19 20 984 652  0 0 255
4  18 17 778 777  255 0 0
4  979 1010 130 131  0 0 255
6  1037 982 16 15 132 651  0 0 255
4  979 955 1021 1010  0 0 255
4  18 652 753 17  0 0 255
6  994 38 48 76 152 156  0 255 0
6  991 156 152 153 155 878  0 255 0
3  991 157 156  0 255 0
12  991 878 154 261 872 341 643 291 459 608 978 157  0 255 0
4  952 8 793 1024  255 0 0
4  952 9 0 8  255 0 0
4  712 395 626 631  255 0 0
5  952 634 633 10 9  255 0 0
4  12 11 781 972  255 0 0
4  12 13 963 1014  0 255 0
4  2 1 1030 971  255 0 0
4  2 3 568 622  0 255 0
4  2 971 780 3  255 0 0
4  12 972 1025 13  255 0 0
5  817 652 984 814 894  0 0 255
4  817 1010 1021 754  0 0 255
6  816 768 499 497 500 888  0 0 255
4  976 775 776 567  0 255 0
4  817 754 753 652  0 0 255
3  816 769 768  0 0 255
4  975 1000 288 287  0 0 255
4  87 82 498 284  0 0 255
4  975 742 511 1000  0 0 255
4  679 1028 619 618  0 255 0
4  906 562 561 680  0 255 0
4  906 874 1027 562  0 255 0
4  900 397 571 196  0 255 0
4  968 196 571 570  0 255 0
5  888 500 64 67 890  0 0 255
6  819 508 506 509 948 566  0 255 0
3  566 948 564  0 255 0
5  20 21 735 814 984  0 0 255
4  20 19 958 957  255 0 0
4  964 24 25 102  0 0 255
4  961 897 997 813  0 0 255
5  3 4 5 129 568  0 255 0
4  11 10 633 781  255 0 0
4  3 780 779 4  255 0 0
4  2 622 965 1  0 255 0
4  1028 1002 620 619  0 255 0
5  10 11 680 561 9  0 255 0
4  1029 636 635 678  255 0 0
5  1029 779 637 632 636  255 0 0
5  1006 723 722 959 985  255 0 0
4  1006 717 542 824  255 0 0
4  716 374 373 543  255 0 0
5  1006 985 457 454 717  255 0 0
7  18 947 959 722 869 958 19  255 0 0
4  716 543 541 36  255 0 0
4  1006 824 724 723  255 0 0
4  24 23 956 720  255 0 0
5  16 27 26 689 690  255 0 0
4  715 688 685 332  255 0 0
4  20 957 790 21  255 0 0
5  24 720 689 26 25  255 0 0
5  959 947 786 457 985  255 0 0
4  567 776 936 937  0 255 0
4  754 769 132 753  0 0 255
5  953 509 506 892 875  0 255 0
5  776 564 948 509 936  0 255 0
6  955 499 768 769 754 1021  0 0 255
3  953 936 509  0 255 0
6  16 380 860 778 17 15  255 0 0
6  715 383 380 16 690 688  255 0 0
4  908 843 838 837  0 0 255
4  908 837 605 815  0 0 255
4  888 832 830 816  0 0 255
4  939 870 290 289  0 0 255
4  883 280 281 283  0 0 255
4  941 605 837 884  0 0 255
5  884 837 838 828 832  0 0 255
4  939 741 282 870  0 0 255
4  941 851 603 605  0 0 255
5  884 401 267 851 941  0 0 255
4  939 289 693 741  0 0 255
4  883 283 681 516  0 0 255
4  930 344 343 746  255 0 0
4  929 691 384 914  255 0 0
4  931 692 691 929  255 0 0
4  930 914 384 344  255 0 0
4  931 917 385 692  255 0 0
4  931 929 914 917  255 0 0
4  447 917 914 930  255 0 0
4  920 794 792 921  255 0 0
4  923 796 794 920  255 0 0
5  921 792 826 765 761  255 0 0
4  922 791 796 923  255 0 0
4  923 920 921 922  255 0 0
3  915 206 205  255 0 0
5  915 529 331 531 206  255 0 0
5  774 530 771 773 208  255 0 0
3  774 208 207  255 0 0
5  915 205 772 770 529  255 0 0
4  907 1039 665 757  255 0 0
4  909 1036 1039 907  255 0 0
4  757 665 275 646  255 0 0
4  758 533 1036 909  255 0 0
4  909 907 757 758  255 0 0
4  902 157 978 853  0 255 0
4  902 853 397 900  0 255 0
4  1036 533 665 1039  255 0 0
4  742 284 498 511  0 0 255
5  955 949 951 497 499  0 0 255
4  195 174 214 507  0 255 0
4  1000 849 743 288  0 0 255
4  511 850 849 1000  0 0 255
4  511 278 744 850  0 0 255
4  23 22 788 956  255 0 0
4  21 790 788 22  255 0 0
4  738 667 666 893  0 255 0
4  893 666 668 895  0 255 0
4  895 668 489 488  0 255 0
5  895 488 494 738 893  0 255 0
5  890 67 71 940 945  0 0 255
7  890 945 831 885 884 832 888  0 0 255
3  889 831 945  0 0 255
4  882 607 280 883  0 0 255
4  885 831 863 864  0 0 255
4  882 517 398 607  0 0 255
5  885 864 858 401 884  0 0 255
4  883 516 517 882  0 0 255
4  775 565 564 776  0 255 0
4  753 132 15 17  0 0 255
4  7 8 565 775  0 255 0
4  7 795 793 8  255 0 0
4  815 197 104 225  0 0 255
5  814 735 104 197 812  0 0 255
5  877 61 60 508 819  0 255 0
4  874 119 120 880  0 255 0
4  880 120 261 154  0 255 0
5  877 155 153 80 61  0 255 0
7  874 880 154 155 877 819 1027  0 255 0
3  878 155 154  0 255 0
5  623 621 346 119 874  0 255 0
4  203 202 623 874  0 255 0
5  26 27 100 102 25  0 0 255
5  869 722 372 419 1022  255 0 0
5  869 1022 687 719 958  255 0 0
4  1022 419 418 687  255 0 0
5  1002 725 520 347 620  0 255 0
4  824 543 373 724  255 0 0
5  823 614 540 218 802  255 0 0
4  824 542 541 543  255 0 0
4  866 820 821 867  255 0 0
4  867 821 616 642  255 0 0
4  641 615 820 866  255 0 0
4  642 616 151 625  255 0 0
4  867 642 641 866  255 0 0
5  813 264 268 583 584  0 0 255
4  741 283 281 282  0 0 255
4  741 693 681 283  0 0 255
4  380 986 967 860  255 0 0
5  381 85 987 986 380  255 0 0
4  778 766 764 777  255 0 0
4  778 860 967 766  255 0 0
4  658 112 111 660  0 255 0
4  659 521 726 856  0 255 0
6  855 1023 747 433 112 658  0 255 0
4  856 1026 1023 855  0 255 0
5  856 726 740 1015 1026  0 255 0
4  658 659 856 855  0 255 0
4  851 266 265 603  0 0 255
3  851 267 266  0 0 255
4  850 744 743 849  0 0 255
4  513 1011 1007 466  0 0 255
5  476 510 1016 844 334  0 0 255
5  845 1013 1011 513 335  0 0 255
4  844 1016 1013 845  0 0 255
4  476 334 335 513  0 0 255
4  845 335 334 844  0 0 255
4  840 835 462 463  0 0 255
4  841 834 954 366  0 0 255
4  839 836 835 840  0 0 255
4  841 463 462 834  0 0 255
4  839 464 461 836  0 0 255
4  357 464 463 841  0 0 255
4  840 463 464 839  0 0 255
4  503 834 462 461  0 0 255
4  836 461 462 835  0 0 255
4  833 607 398 400  0 0 255
5  709 229 231 404 430  255 0 0
4  827 555 403 537  255 0 0
4  827 90 89 983  255 0 0
4  709 537 230 229  255 0 0
3  827 91 90  255 0 0
4  709 146 145 537  255 0 0
4  827 537 145 91  255 0 0
4  657 910 911 823  255 0 0
4  540 614 613 539  255 0 0
4  823 911 613 614  255 0 0
4  615 641 624 148  255 0 0
4  821 820 615 616  255 0 0
4  819 566 563 1027  0 255 0
4  817 894 130 1010  0 0 255
4  816 830 960 769  0 0 255
4  815 605 604 197  0 0 255
4  814 812 639 894  0 0 255
4  812 197 604 639  0 0 255
4  813 997 322 264  0 0 255
4  807 803 804 809  0 255 0
4  809 804 479 485  0 255 0
4  586 535 803 807  0 255 0
4  809 485 586 807  0 255 0
4  535 586 585 536  0 255 0
4  804 803 535 479  0 255 0
4  791 922 970 966  255 0 0
4  796 791 792 794  255 0 0
4  202 200 234 110  0 255 0
4  622 110 234 965  0 255 0
4  983 602 555 827  255 0 0
3  983 89 88  255 0 0
5  983 88 279 601 602  255 0 0
5  13 1025 1030 1 14  255 0 0
4  972 971 1030 1025  255 0 0
4  718 788 790 957  255 0 0
5  787 405 327 227 1018  255 0 0
4  786 406 405 787  255 0 0
4  787 456 457 786  255 0 0
4  782 515 451 785  255 0 0
5  785 451 450 139 676  255 0 0
4  783 559 865 782  255 0 0
4  784 313 559 783  255 0 0
4  785 784 783 782  255 0 0
5  633 630 628 632 637  255 0 0
5  633 637 779 780 781  255 0 0
5  774 207 298 294 530  255 0 0
4  773 771 770 772  255 0 0
4  773 772 205 208  255 0 0
4  771 530 529 770  255 0 0
5  765 826 825 653 1012  255 0 0
4  767 760 761 765  255 0 0
3  764 654 655  255 0 0
4  766 727 654 764  255 0 0
4  765 1012 933 767  255 0 0
4  1018 227 99 701  255 0 0
4  1018 307 456 787  255 0 0
4  676 139 140 697  255 0 0
4  677 222 313 784  255 0 0
4  676 677 784 785  255 0 0
4  664 525 471 663  0 0 255
4  664 163 238 752  0 0 255
4  752 582 525 664  0 0 255
4  752 238 237 751  0 0 255
3  987 996 732  255 0 0
4  763 977 798 759  255 0 0
4  759 969 760 767  255 0 0
5  763 989 995 1031 977  255 0 0
5  987 732 728 967 986  255 0 0
4  759 932 989 763  255 0 0
4  762 974 756 980  255 0 0
4  453 212 879 762  255 0 0
4  980 756 755 672  255 0 0
4  980 439 453 762  255 0 0
4  974 263 228 756  255 0 0
4  756 228 186 755  255 0 0
4  781 780 971 972  255 0 0
4  967 728 727 766  255 0 0
4  767 933 932 759  255 0 0
6  199 963 13 14 234 200  0 255 0
4  965 234 14 1  0 255 0
4  672 755 321 673  255 0 0
4  672 438 439 980  255 0 0
4  465 105 106 868  0 0 255
4  465 924 581 751  0 0 255
4  751 237 105 465  0 0 255
4  751 581 582 752  0 0 255
4  1009 570 569 1004  0 255 0
4  750 748 1033 1009  0 255 0
4  1004 569 572 749  0 255 0
4  749 572 396 575  0 255 0
4  749 750 1009 1004  0 255 0
4  922 921 761 760  255 0 0
4  719 687 686 689  255 0 0
4  718 957 958 719  255 0 0
5  759 798 966 970 969  255 0 0
4  646 275 274 647  255 0 0
4  758 757 646 443  255 0 0
4  755 186 185 321  255 0 0
4  575 396 852 578  0 255 0
4  576 434 748 750  0 255 0
4  575 576 750 749  0 255 0
4  434 576 577 435  0 255 0
4  747 1023 1019 1040  0 255 0
4  434 433 747 748  0 255 0
4  746 343 193 654  255 0 0
4  654 193 192 655  255 0 0
4  448 746 654 727  255 0 0
4  589 588 587 590  255 0 0
4  647 274 588 589  255 0 0
4  444 647 589 549  255 0 0
4  721 675 674 745  255 0 0
4  721 269 144 591  255 0 0
4  745 279 269 721  255 0 0
4  278 288 743 744  0 0 255
4  742 282 281 284  0 0 255
4  740 726 725 739  0 255 0
4  737 873 667 738  0 255 0
4  505 480 536 737  0 255 0
5  494 495 505 737 738  0 255 0
6  226 225 104 22 23 736  0 0 255
4  21 22 104 735  0 0 255
4  733 1038 1035 734  255 0 0
4  734 1035 881 449  255 0 0
4  732 173 1038 733  255 0 0
5  734 449 728 732 733  255 0 0
4  648 684 683 731  255 0 0
4  731 683 255 445  255 0 0
4  731 445 548 648  255 0 0
4  730 558 557 729  0 255 0
4  360 176 175 361  0 255 0
4  363 177 558 730  0 255 0
4  729 557 176 360  0 255 0
4  730 729 360 363  0 255 0
4  449 448 727 728  255 0 0
4  445 444 549 548  255 0 0
4  521 659 644 339  0 255 0
4  726 521 520 725  0 255 0
5  372 722 723 724 373  255 0 0
4  591 514 675 721  255 0 0
4  591 144 143 247  255 0 0
4  546 588 274 256  255 0 0
6  689 686 417 685 688 690  255 0 0
4  720 718 719 689  255 0 0
5  542 455 304 116 541  255 0 0
4  717 454 455 542  255 0 0
4  547 546 256 255  255 0 0
4  709 430 431 710  255 0 0
4  716 36 35 714  255 0 0
4  37 34 235 219  255 0 0
4  716 714 527 374  255 0 0
5  714 35 133 134 711  255 0 0
5  715 713 708 707 383  255 0 0
4  712 184 183 524  255 0 0
4  34 524 183 235  255 0 0
5  715 332 333 640 713  255 0 0
5  714 711 640 333 527  255 0 0
6  713 640 711 134 147 708  255 0 0
4  34 31 394 524  255 0 0
4  712 524 394 395  255 0 0
6  710 431 370 706 92 191  255 0 0
4  710 191 146 709  255 0 0
4  708 147 209 707  255 0 0
4  383 707 209 232  255 0 0
5  706 370 371 178 93  255 0 0
3  706 93 92  255 0 0
4  705 232 211 704  255 0 0
5  704 98 251 912 705  255 0 0
4  704 211 210 701  255 0 0
4  703 188 187 700  255 0 0
4  700 187 271 699  255 0 0
5  697 140 919 988 703  255 0 0
3  703 700 697  255 0 0
4  701 210 147 702  255 0 0
4  701 99 98 704  255 0 0
4  702 147 134 355  255 0 0
4  355 134 133 354  255 0 0
4  702 355 306 701  255 0 0
4  698 223 222 677  255 0 0
4  699 271 223 698  255 0 0
4  700 699 698 697  255 0 0
4  673 321 318 669  255 0 0
4  352 170 169 351  255 0 0
4  696 137 170 352  255 0 0
4  696 352 353 673  255 0 0
4  289 179 916 695  0 0 255
4  695 916 592 694  0 0 255
4  694 592 595 682  0 0 255
4  695 694 693 289  0 0 255
4  692 385 384 691  255 0 0
4  687 418 417 686  255 0 0
4  375 302 419 372  255 0 0
4  332 301 303 333  255 0 0
4  685 417 301 332  255 0 0
4  644 249 291 643  0 255 0
4  660 111 249 644  0 255 0
4  684 648 927 898  255 0 0
4  684 547 255 683  255 0 0
4  321 185 198 320  255 0 0
5  320 198 243 242 319  255 0 0
4  682 595 610 519  0 0 255
4  519 610 376 518  0 0 255
4  682 519 516 681  0 0 255
4  627 636 632 628  255 0 0
5  627 412 324 635 636  255 0 0
4  663 125 163 664  0 0 255
5  663 471 862 650 606  0 0 255
4  694 682 681 693  0 0 255
4  797 826 792 791  255 0 0
4  510 1011 1013 1016  0 0 255
4  324 412 411 325  255 0 0
5  286 574 678 635 324  255 0 0
4  701 306 307 1018  255 0 0
4  697 698 677 676  255 0 0
4  260 113 263 674  255 0 0
4  254 260 674 675  255 0 0
4  673 353 438 672  255 0 0
4  669 318 645 671  255 0 0
4  671 204 138 670  255 0 0
4  670 138 137 696  255 0 0
3  671 670 669  255 0 0
5  668 666 667 491 489  0 255 0
4  257 275 665 533  255 0 0
4  583 268 402 526  0 0 255
4  526 402 918 474  0 0 255
4  583 526 525 582  0 0 255
4  660 644 659 658  0 255 0
4  653 387 386 934  255 0 0
4  934 386 973 935  255 0 0
4  934 933 1012 653  255 0 0
4  996 171 173 732  255 0 0
4  992 1005 365 993  255 0 0
4  993 981 1031 995  255 0 0
4  935 973 1005 992  255 0 0
6  995 989 932 935 992 993  255 0 0
4  396 572 571 397  0 255 0
4  651 132 649 829  0 0 255
4  132 769 960 649  0 0 255
4  514 591 247 240  255 0 0
4  166 254 675 514  255 0 0
4  970 922 760 969  255 0 0
4  798 797 791 966  255 0 0
4  247 143 92 246  255 0 0
4  246 92 93 245  255 0 0
4  1040 1019 1015 1033  0 255 0
4  748 747 1040 1033  0 255 0
4  1026 1015 1019 1023  0 255 0
4  650 233 126 606  0 0 255
4  663 606 126 125  0 0 255
4  830 829 649 960  0 0 255
4  720 956 788 718  255 0 0
4  448 447 930 746  255 0 0
4  446 1017 1034 942  255 0 0
4  446 942 917 447  255 0 0
4  942 1034 385 917  255 0 0
4  533 758 938 534  255 0 0
4  442 258 534 938  255 0 0
4  938 758 443 442  255 0 0
4  935 932 933 934  255 0 0
4  551 158 172 925  255 0 0
4  925 172 171 926  255 0 0
4  926 904 898 927  255 0 0
6  927 648 548 551 925 926  255 0 0
4  444 443 646 647  255 0 0
4  319 242 460 645  255 0 0
3  319 645 318  255 0 0
4  643 341 339 644  0 255 0
4  625 151 150 528  255 0 0
4  642 625 624 641  255 0 0
4  347 520 440 348  0 255 0
5  621 623 109 568 618  0 255 0
4  346 621 620 347  0 255 0
5  603 265 323 639 604  0 0 255
4  596 593 179 181  0 0 255
4  181 105 270 638  0 0 255
4  181 179 180 182  0 0 255
4  597 236 239 598  0 0 255
4  638 270 236 597  0 0 255
4  596 181 638 597  0 0 255
4  593 596 599 594  0 0 255
4  179 289 290 180  0 0 255
4  592 916 179 593  0 0 255
3  32 538 539  255 0 0
5  911 910 573 285 613  255 0 0
5  32 539 613 285 29  255 0 0
4  908 815 225 224  0 0 255
4  904 316 315 901  255 0 0
4  544 311 310 545  255 0 0
4  901 315 311 544  255 0 0
6  898 904 901 544 547 684  255 0 0
4  1032 379 378 857  0 0 255
4  857 378 806 399  0 0 255
4  518 376 379 1032  0 0 255
4  518 1032 857 517  0 0 255
4  896 323 322 997  0 0 255
4  896 997 897 130  0 0 255
5  896 130 894 639 323  0 0 255
6  634 631 626 415 630 633  255 0 0
5  630 415 414 629 628  255 0 0
3  629 414 413  255 0 0
5  629 413 412 627 628  255 0 0
4  395 416 415 626  255 0 0
4  528 150 468 469  255 0 0
4  617 149 148 624  255 0 0
4  528 617 624 625  255 0 0
4  202 110 109 623  0 255 0
4  568 109 110 622  0 255 0
4  621 618 619 620  0 255 0
4  523 328 149 617  255 0 0
4  409 523 617 528  255 0 0
4  328 523 522 329  255 0 0
4  309 150 149 328  255 0 0
4  616 615 148 151  255 0 0
4  611 162 164 364  0 0 255
4  598 239 162 611  0 0 255
4  612 609 594 599  0 0 255
4  612 599 598 611  0 0 255
4  609 612 391 377  0 0 255
4  610 595 594 609  0 0 255
4  608 459 435 577  0 255 0
4  579 854 978 608  0 255 0
3  579 608 577  0 255 0
3  605 603 604  0 0 255
4  601 600 553 554  255 0 0
4  554 553 552 556  255 0 0
4  554 555 602 601  255 0 0
4  600 865 312 553  255 0 0
4  553 312 221 552  255 0 0
4  599 596 597 598  0 0 255
4  595 592 593 594  0 0 255
4  590 192 159 550  255 0 0
4  550 159 158 551  255 0 0
4  550 549 589 590  255 0 0
4  545 310 329 587  255 0 0
4  546 545 587 588  255 0 0
4  484 362 361 585  0 255 0
4  485 484 585 586  0 255 0
4  584 583 582 581  0 0 255
4  578 852 292 580  0 255 0
4  580 292 854 579  0 255 0
4  580 579 577 578  0 255 0
4  578 577 576 575  0 255 0
4  286 285 573 574  255 0 0
4  572 569 570 571  0 255 0
4  566 564 560 563  0 255 0
5  8 0 560 564 565  0 255 0
6  563 560 0 9 561 562  0 255 0
4  452 213 212 453  255 0 0
4  436 142 213 452  255 0 0
4  558 177 176 557  0 255 0
4  556 552 367 369  255 0 0
4  556 403 555 554  255 0 0
4  552 221 220 367  255 0 0
4  551 548 549 550  255 0 0
4  547 544 545 546  255 0 0
4  541 116 115 36  255 0 0
4  36 115 133 35  255 0 0
5  540 539 538 789 218  255 0 0
5  537 403 404 231 230  255 0 0
4  305 115 116 304  255 0 0
4  480 505 504 481  0 255 0
4  479 535 536 480  0 255 0
4  258 257 533 534  255 0 0
4  244 241 240 247  255 0 0
4  245 93 178 532  255 0 0
4  532 460 241 244  255 0 0
3  245 532 244  255 0 0
4  531 331 330 388  255 0 0
4  207 206 531 298  255 0 0
4  294 298 297 295  255 0 0
4  294 331 529 530  255 0 0
4  189 118 117 190  255 0 0
4  243 198 118 189  255 0 0
4  189 167 240 243  255 0 0
4  469 468 467 470  255 0 0
4  410 409 528 469  255 0 0
4  308 468 150 309  255 0 0
4  333 303 302 375  255 0 0
4  333 375 374 527  255 0 0
4  474 918 962 473  0 0 255
4  526 474 471 525  0 0 255
4  325 411 822 394  255 0 0
4  408 390 389 522  255 0 0
4  409 408 522 523  255 0 0
4  521 339 440 520  0 255 0
4  519 518 517 516  0 0 255
4  451 799 217 450  255 0 0
4  515 800 799 451  255 0 0
4  456 307 304 455  255 0 0
4  167 166 514 240  255 0 0
4  466 954 338 477  0 0 255
4  477 338 337 478  0 0 255
4  477 476 513 466  0 0 255
4  512 250 111 432  0 255 0
4  432 111 112 433  0 255 0
4  458 248 250 512  0 255 0
4  458 512 432 435  0 255 0
4  82 43 273 498  0 0 255
4  511 498 273 278  0 0 255
4  510 476 475 950  0 0 255
4  508 60 892 506  0 255 0
4  485 479 482 486  0 255 0
4  177 363 886 215  0 255 0
4  493 492 891 496  0 255 0
4  493 496 495 494  0 255 0
4  505 495 496 504  0 255 0
4  356 336 502 501  0 0 255
4  356 501 464 357  0 0 255
4  336 356 55 51  0 0 255
4  336 503 461 502  0 0 255
4  502 461 464 501  0 0 255
4  500 497 951 64  0 0 255
4  70 50 53 71  0 0 255
4  478 337 50 70  0 0 255
4  69 65 950 475  0 0 255
4  70 69 475 478  0 0 255
4  493 487 490 492  0 255 0
4  494 488 487 493  0 255 0
4  492 490 489 491  0 255 0
4  490 487 488 489  0 255 0
4  483 887 362 484  0 255 0
4  486 483 484 485  0 255 0
4  481 504 81 73  0 255 0
4  482 479 480 481  0 255 0
4  478 475 476 477  0 0 255
4  473 962 861 472  0 0 255
4  472 861 859 862  0 0 255
4  474 473 472 471  0 0 255
4  470 467 314 427  255 0 0
4  427 314 317 428  255 0 0
4  427 410 469 470  255 0 0
4  314 467 468 308  255 0 0
3  460 242 241  255 0 0
4  459 291 248 458  0 255 0
3  459 458 435  0 255 0
4  457 456 455 454  255 0 0
4  453 439 436 452  255 0 0
4  450 217 216 919  255 0 0
4  445 255 258 442  255 0 0
4  449 881 1017 446  255 0 0
4  449 446 447 448  255 0 0
4  445 442 443 444  255 0 0
4  441 999 348 440  0 255 0
4  340 871 999 441  0 255 0
4  339 340 441 440  0 255 0
4  437 122 142 436  255 0 0
4  439 438 437 436  255 0 0
4  435 432 433 434  0 255 0
4  369 367 368 371  255 0 0
4  370 431 430 369  255 0 0
4  367 220 187 429  255 0 0
4  429 187 188 368  255 0 0
4  407 421 390 408  255 0 0
4  426 422 421 407  255 0 0
4  428 317 316 425  255 0 0
4  425 423 422 426  255 0 0
6  428 425 426 407 410 427  255 0 0
4  423 365 1020 424  255 0 0
4  424 1020 847 420  255 0 0
4  420 847 846 848  255 0 0
6  424 420 300 421 422 423  255 0 0
5  301 417 418 419 302  255 0 0
4  416 395 394 822  255 0 0
6  416 411 412 413 414 415  255 0 0
4  410 407 408 409  255 0 0
4  252 136 135 251  255 0 0
4  252 99 227 327  255 0 0
4  406 879 326 405  255 0 0
4  405 326 276 327  255 0 0
4  165 96 95 253  255 0 0
4  253 95 114 259  255 0 0
4  96 165 168 107  255 0 0
4  402 268 267 401  0 0 255
4  399 806 811 400  0 0 255
3  398 399 400  0 0 255
3  978 854 853  0 255 0
3  1027 563 562  0 255 0
4  852 396 397 853  0 255 0
4  392 194 128 393  0 0 255
4  364 164 194 392  0 0 255
4  393 128 127 810  0 0 255
4  393 391 364 392  0 0 255
4  388 330 387 389  255 0 0
4  390 299 388 389  255 0 0
4  293 386 387 330  255 0 0
4  259 114 113 260  255 0 0
4  345 344 384 385  255 0 0
4  383 382 381 380  255 0 0
5  377 391 808 905 805  0 0 255
4  379 376 377 378  0 0 255
4  375 372 373 374  255 0 0
3  371 370 369  255 0 0
3  367 429 368  255 0 0
4  871 340 341 872  0 255 0
4  871 262 120 349  0 255 0
4  349 120 119 346  0 255 0
4  871 349 348 999  0 255 0
4  892 891 876 875  0 255 0
4  919 216 183 990  255 0 0
4  919 140 139 450  255 0 0
4  990 183 184 988  255 0 0
3  919 990 988  255 0 0
4  64 951 950 65  0 0 255
4  366 287 277 358  0 0 255
4  358 277 272 359  0 0 255
4  358 357 841 366  0 0 255
4  421 300 299 390  255 0 0
4  296 973 386 293  255 0 0
4  492 491 876 891  0 255 0
4  669 670 696 673  255 0 0
4  327 276 136 252  255 0 0
4  858 864 863 859  0 0 255
4  962 918 858 861  0 0 255
4  1017 345 385 1034  255 0 0
6  1020 365 1005 973 296 847  255 0 0
4  391 612 611 364  0 0 255
4  376 610 609 377  0 0 255
4  369 430 403 556  255 0 0
4  338 954 834 503  0 0 255
4  951 949 510 950  0 0 255
4  31 30 325 394  255 0 0
5  71 53 57 899 940  0 0 255
4  160 193 343 342  255 0 0
4  928 584 581 924  0 0 255
4  363 360 361 362  0 255 0
4  359 272 42 56  0 0 255
4  359 356 357 358  0 0 255
4  354 133 115 305  255 0 0
4  306 355 354 305  255 0 0
4  351 169 123 350  255 0 0
4  350 123 122 437  255 0 0
4  353 352 351 350  255 0 0
4  349 346 347 348  0 255 0
4  345 342 343 344  255 0 0
3  341 340 339  0 255 0
4  337 338 503 336  0 0 255
4  918 402 401 858  0 0 255
4  251 135 138 913  255 0 0
4  251 98 99 252  255 0 0
4  913 138 204 912  255 0 0
3  913 912 251  255 0 0
4  903 811 805 905  0 0 255
4  56 42 45 57  0 0 255
4  905 808 818 903  0 0 255
5  173 161 881 1035 1038  255 0 0
4  486 482 72 78  0 255 0
4  504 496 63 81  0 255 0
4  77 47 887 483  0 255 0
4  78 77 483 486  0 255 0
4  73 81 80 74  0 255 0
4  72 482 481 73  0 255 0
4  496 891 59 63  0 255 0
4  60 59 891 892  0 255 0
4  47 77 76 48  0 255 0
4  46 40 215 886  0 255 0
4  46 886 887 47  0 255 0
4  56 55 356 359  0 0 255
4  50 337 336 51  0 0 255
4  161 160 342 881  255 0 0
3  430 404 403  255 0 0
4  141 326 879 212  255 0 0
5  491 667 873 875 876  0 255 0
4  872 261 262 871  0 255 0
4  1017 881 342 345  255 0 0
4  886 363 362 887  0 255 0
4  313 312 865 559  255 0 0
3  471 472 862  0 0 255
3  861 858 859  0 0 255
4  517 857 399 398  0 0 255
4  299 298 531 388  255 0 0
4  293 330 331 294  255 0 0
4  310 309 328 329  255 0 0
4  121 276 326 141  255 0 0
4  30 286 324 325  255 0 0
4  264 322 323 265  0 0 255
4  321 320 319 318  255 0 0
6  317 314 308 311 315 316  255 0 0
4  222 221 312 313  255 0 0
4  311 308 309 310  255 0 0
4  307 306 305 304  255 0 0
3  303 301 302  255 0 0
4  300 297 298 299  255 0 0
4  295 297 848 846  255 0 0
4  296 293 294 295  255 0 0
4  292 852 853 854  0 255 0
4  420 848 297 300  255 0 0
4  847 296 295 846  255 0 0
4  842 651 829 828  0 0 255
4  832 828 829 830  0 0 255
4  797 795 825 826  255 0 0
3  416 822 411  255 0 0
4  438 353 350 437  255 0 0
4  810 127 233 818  0 0 255
3  810 818 808  0 0 255
3  806 805 811  0 0 255
4  810 808 391 393  0 0 255
4  378 377 805 806  0 0 255
4  802 799 800 801  255 0 0
4  798 793 795 797  255 0 0
3  248 291 249  0 255 0
4  218 217 799 802  255 0 0
6  1031 981 1024 793 798 977  255 0 0
4  949 1007 1011 510  0 0 255
3  789 219 218  255 0 0
4  277 287 288 278  0 0 255
4  30 29 285 286  255 0 0
4  91 269 279 88  255 0 0
4  272 277 278 273  0 0 255
4  124 136 276 121  255 0 0
4  257 256 274 275  255 0 0
4  42 272 273 43  0 0 255
4  271 187 220 223  255 0 0
4  105 181 182 106  0 0 255
4  236 270 105 237  0 0 255
4  145 144 269 91  255 0 0
5  268 264 265 266 267  0 0 255
4  94 228 263 113  255 0 0
3  262 261 120  0 255 0
4  253 259 260 254  255 0 0
4  258 255 256 257  255 0 0
4  165 253 254 166  255 0 0
4  162 239 238 163  0 0 255
4  250 248 249 111  0 255 0
4  247 246 245 244  255 0 0
4  243 240 241 242  255 0 0
4  239 236 237 238  0 0 255
4  235 183 216 219  255 0 0
3  127 126 233  0 0 255
3  211 232 209  255 0 0
3  231 229 230  255 0 0
4  97 186 228 94  255 0 0
4  170 137 136 124  255 0 0
3  226 224 225  0 0 255
4  223 220 221 222  255 0 0
4  219 216 217 218  255 0 0
4  215 214 174 177  0 255 0
4  40 39 214 215  0 255 0
4  141 212 213 142  255 0 0
4  211 209 147 210  255 0 0
4  208 205 206 207  255 0 0
4  203 201 200 202  0 255 0
3  201 199 200  0 255 0
4  118 198 185 108  255 0 0
4  194 164 125 128  0 0 255
4  160 159 192 193  255 0 0
4  191 92 143 146  255 0 0
4  190 117 107 168  255 0 0
4  190 168 167 189  255 0 0
4  108 185 186 97  255 0 0
4  177 174 175 176  0 255 0
5  173 171 172 158 161  255 0 0
4  170 124 123 169  255 0 0
4  168 165 166 167  255 0 0
4  164 162 163 125  0 0 255
4  161 158 159 160  255 0 0
5  153 152 76 74 80  0 255 0
4  151 148 149 150  255 0 0
4  146 143 144 145  255 0 0
4  121 141 142 122  255 0 0
4  138 135 136 137  255 0 0
4  128 125 126 127  0 0 255
4  124 121 122 123  255 0 0
4  118 108 107 117  255 0 0
4  94 113 114 95  255 0 0
4  108 97 96 107  255 0 0
4  102 100 101 103  0 0 255
4  97 94 95 96  255 0 0
4  91 88 89 90  255 0 0
4  87 84 83 82  0 0 255
4  71 67 66 68  0 0 255
4  57 53 52 54  0 0 255
4  84 45 44 83  0 0 255
4  78 72 75 79  0 255 0
4  40 46 49 41  0 255 0
4  83 44 43 82  0 0 255
4  51 55 54 52  0 0 255
4  65 69 68 66  0 0 255
4  80 62 58 61  0 255 0
4  81 63 62 80  0 255 0
4  79 75 74 76  0 255 0
4  79 76 77 78  0 255 0
4  75 72 73 74  0 255 0
4  71 68 69 70  0 0 255
4  67 64 65 66  0 0 255
4  63 59 58 62  0 255 0
4  61 58 59 60  0 255 0
4  57 54 55 56  0 0 255
4  53 50 51 52  0 0 255
4  48 38 41 49  0 255 0
4  49 46 47 48  0 255 0
4  45 42 43 44  0 0 255
4  41 38 39 40  0 255 0
4  37 32 33 34  255 0 0
4  34 33 28 31  255 0 0
4  33 32 29 28  255 0 0
4  31 28 29 30  255 0 0
13  27 16 15 17 18 19 20 21 22 23 24 25 26  255 0 0
13  16 27 26 25 24 23 22 21 20 19 18 17 15  0 0 255
8  14 1 0 9 10 11 12 13  255 0 0
8  1 14 13 12 11 10 9 0  0 255 0
9  8 0 1 2 3 4 5 6 7  255 0 0
9  0 8 7 6 5 4 3 2 1  0 255 0

