OFF
1096 1207 0

-32.6789 1.81805 -4.17435
-31.6258 0.316682 -4.17435
-32.4683 1.96035 -4.17435
-31.4032 0.471703 -4.17435
-27.8095 -5.12403 -4.17435
-25.7813 -8.01565 -4.17435
-27.536 -4.93294 -4.17435
-25.4802 -7.80603 -4.17435
13.497 23.733 -4.17435
15.5978 20.7969 -4.17435
14.5122 24.4423 -4.17435
16.5599 21.4667 -4.17435
5.46547 -10.692 -4.17435
5.55095 -10.8138 -4.17435
5.24998 -10.3851 -4.17435
8.23031 -8.22513 -4.17435
8.49044 -8.59943 -4.17435
8.5625 -8.70312 -4.17435
-21.8031 -13.3858 -1.4069
-21.9453 -13.4844 -1.4069
-19.7432 -16.2647 -1.4069
-19.9118 -16.3835 -1.4069
13.3335 -3.83663 -7.41226
13.3335 -3.83663 -4.17435
16.1698 -1.78106 -7.41226
16.1698 -1.78106 -4.17435
-2.937 -16.5046 -4.17435
-2.81614 -16.6779 -4.17435
-3.02326 -16.3809 -4.17435
-0.174018 -14.316 -4.17435
-0.0426905 -14.5024 -4.17435
0.0665913 -14.6575 -4.17435
-8.89514 -19.6409 -7.41226
-11.8145 -21.6134 -7.41226
-8.89513 -19.6409 -4.17435
-11.8145 -21.6135 -4.17435
25.0733 3.31075 -7.41226
22.1571 1.34033 -7.41226
25.0734 3.31074 -4.17435
25.0734 3.31073 -1.4069
22.1571 1.3403 -1.4069
22.1571 1.34031 -4.17435
21.5915 2.14828 -7.41226
21.5915 2.14828 -4.17435
24.4387 4.21173 -7.41226
24.4387 4.21173 -4.17435
33.1857 13.6891 -4.17435
33.5069 13.2402 -4.17435
29.9095 18.4188 -4.17435
30.4129 18.7659 -4.17435
32.974 15.1056 -4.17435
34.0263 13.6016 -4.17435
33.5781 13.1406 -2.12372
33.1857 13.6891 -7.41226
33.5069 13.2402 -7.41226
33.5781 13.1406 -4.17435
33.5781 13.1406 -1.4069
33.5781 13.1406 1.52169
33.5781 13.1406 3.07697
33.1857 13.6891 3.08433
33.1857 13.6891 -1.57873
18.3478 35.11 1.52169
18.3478 35.11 2.98789
18.3478 35.11 -1.4069
18.3478 35.11 -4.17435
18.3478 35.11 -7.41226
21.9307 29.9376 -7.41226
21.9307 29.9376 -4.17435
21.9307 29.9376 -1.4069
21.9307 29.9376 1.52169
21.9307 29.9376 3.01117
27.7426 21.5472 -7.41226
24.186 26.6817 -7.41226
27.7426 21.5472 -4.17435
27.7426 21.5472 -1.4069
27.7426 21.5472 1.52169
27.7426 21.5472 3.04895
24.1861 26.6816 3.02584
24.186 26.6816 1.52169
24.186 26.6816 -1.4069
24.186 26.6816 -4.17435
29.9095 18.4188 3.06304
29.9095 18.4188 1.52169
29.9095 18.4188 -1.4069
29.9095 18.4188 -7.41226
30.697 17.2819 -7.41226
33.57 13.1343 3.08683
34.9512 11.1403 -4.0885
34.9512 11.1403 0.419571
34.9512 11.1403 -7.41226
33.5 13.2354 -7.41226
18.0214 34.8828 3.36886
17.3533 34.4176 4.14867
18.7709 35.4046 2.49402
22.3892 30.2335 2.48884
21.6769 29.7739 3.30027
20.9321 29.2934 4.14867
23.9861 26.5465 3.25694
23.2147 26.0253 4.14867
24.6534 26.9974 2.4856
28.2266 21.8906 2.48048
27.6236 21.4627 3.18869
26.8063 20.8827 4.14867
28.9765 17.7753 4.14867
30.4129 18.7659 2.47735
34.078 13.5277 2.4721
32.6924 12.4549 4.14867
37.2716 11.5527 -1.4069
34.2835 9.53375 -1.4069
36.0414 10.7216 -7.41226
27.988 5.28012 -7.41226
37.2715 11.5528 -7.41226
37.2716 11.5527 1.46074
37.2716 11.5527 1.52169
36.0414 10.7216 1.52169
35.5477 10.3879 1.52169
34.2835 9.53374 1.52169
34.2835 9.53374 1.39763
27.988 5.2801 -1.4069
27.988 5.28011 -4.17435
39.3938 3.67143 -7.41226
39.3938 3.67143 -1.4069
36.3504 1.56579 -7.41226
36.3504 1.56579 -1.4069
37.151 0.402322 -7.41226
33.9966 4.98661 1.52169
33.9966 4.98661 -7.41226
37.151 0.402323 -1.4069
36.3504 1.56579 1.52169
-16.7625 -35.6321 -7.41226
-14.9511 -34.3193 -1.4069
-13.6379 -33.3675 -2.69152
-13.6379 -33.3675 -1.4069
-13.6379 -33.3675 -7.41226
-16.7625 -35.6321 -1.4069
-16.7625 -35.6321 -1.31622
-21.0694 -29.4708 -7.41226
-19.2031 -32.1406 -7.41226
-21.0694 -29.4708 -3.15043
-21.0694 -29.4708 1.52169
-19.2031 -32.1406 1.52169
-19.2031 -32.1406 -1.4069
-15.4432 -30.8443 -7.41226
-13.1466 -34.0541 -1.4069
-12.7123 -34.6611 -1.4069
-12.7123 -34.6611 -1.34878
-12.7123 -34.6611 -7.41226
-15.4432 -30.8443 1.52169
-13.6379 -33.3675 1.52169
36.9688 7.14066 -1.4069
36.9688 7.14066 1.52169
36.9688 7.14066 -7.41226
30.1365 2.18906 -7.41226
-11.681 -28.1177 -7.41226
-18.5403 -33.0889 -7.41226
-18.5403 -33.0889 -1.4069
-18.5403 -33.0889 1.52169
-11.681 -28.1177 1.52169
29.9293 2.03888 1.52169
30.1365 2.18906 1.52169
36.656 0.0542406 -1.27618
36.656 0.0542406 1.52169
36.656 0.0542406 -1.61115
36.656 0.0542406 -7.41226
36.8672 0.0156198 -7.41226
36.8672 0.0156197 -7.41226
36.8672 0.0156197 -1.4069
36.8672 0.0156197 0.108989
36.8672 0.0156197 1.52169
36.8672 0.0156198 1.52169
10.4593 -19.0536 -1.4069
10.4593 -19.0536 -0.394538
5.55991 -22.4544 -1.4069
5.55991 -22.4544 -0.369691
-8.70705 -32.3576 -1.4069
-12.4609 -34.4844 -1.4069
-6.22059 -30.0962 -1.4069
-5.96038 -30.451 -1.4069
-8.60142 -32.5082 -1.4069
-10.1724 -33.6171 -1.4069
-12.1094 -34.9844 -1.4069
-12.2346 -34.8062 -1.4069
30.4442 -4.31387 -4.17435
30.8616 -4.02031 0.253988
40.1867 2.53702 -7.41226
40.1867 2.53702 -1.4069
33.2736 -2.32423 -7.41226
30.4442 -4.31387 -7.41226
30.4442 -4.31387 -1.4069
30.4442 -4.31387 0.252842
30.8616 -4.02031 1.52169
33.0433 -2.48619 1.52169
33.2736 -2.32423 1.52169
36.7805 0.141757 1.52169
37.151 0.402323 1.52169
37.151 0.402323 0.271259
27.3145 -6.5146 0.244248
27.3145 -6.5146 1.52169
27.3145 -6.5146 -1.4069
27.3145 -6.5146 -4.17435
27.3145 -6.5146 -7.41226
22.0522 -10.215 -7.41226
22.0522 -10.215 -4.17435
22.0522 -10.215 -1.4069
22.0522 -10.215 0.229797
22.0522 -10.215 1.52169
18.974 -12.3796 0.221344
18.974 -12.3796 1.52169
18.974 -12.3796 -1.4069
18.974 -12.3796 -4.17435
18.974 -12.3796 -7.41226
13.8557 -15.9788 -7.41226
13.8557 -15.9788 -4.17435
13.8557 -15.9788 -1.4069
13.8557 -15.9788 0.207289
13.8557 -15.9788 1.52169
10.4607 -18.366 0.197966
10.4607 -18.366 1.52169
10.4607 -18.366 -1.4069
10.4607 -18.366 -4.17435
10.4607 -18.366 -7.41226
5.25737 -22.025 -7.41226
5.25737 -22.025 -4.17435
5.25737 -22.025 -1.4069
5.25737 -22.025 0.183677
5.25737 -22.025 1.52169
5.38125 -21.9379 1.52169
-3.10838 -27.9077 -7.41226
2.1221 -24.2297 -7.41226
-3.10838 -27.9077 -4.17435
-3.10838 -27.9077 -1.4069
-3.10838 -27.9077 0.160704
-3.10838 -27.9077 1.52169
2.1221 -24.2297 1.52169
2.1221 -24.2297 0.175067
2.1221 -24.2297 -1.4069
2.1221 -24.2297 -4.17435
-8.94799 -32.0141 -7.41226
-6.22059 -30.0962 -7.41226
-12.4609 -34.4844 -7.41226
-12.4609 -34.4844 -1.3609
-12.4609 -34.4844 0.135021
-12.4609 -34.4844 1.52169
-8.94799 -32.0141 1.52169
-6.22059 -30.0962 1.52169
-6.22059 -30.0962 0.152158
-6.22059 -30.0962 -4.17435
-38.0386 -4.39593 4.14867
-39.0014 -5.09038 3.00507
-34.3372 -9.68433 4.14867
-35.3065 -10.3615 3.0095
-32.1975 -12.7415 4.14867
-33.1596 -13.4242 3.01207
-28.6955 -17.745 4.14867
-29.6695 -18.4031 3.01625
-26.4311 -20.9803 4.14867
-27.3894 -21.6559 3.01899
-22.7424 -26.2506 4.14867
-22.5028 -26.593 4.14867
-23.4483 -27.2783 3.02371
-23.7049 -26.9123 3.02341
34.9895 11.1681 -4.17435
33.7544 10.273 -1.4069
27.6119 5.8213 -4.17435
27.6119 5.8213 -1.4069
27.6119 5.8213 -7.41226
34.9895 11.1681 -7.41226
34.9895 11.1681 -1.4069
34.9895 11.1681 0.418766
34.9512 11.1403 1.52169
33.7544 10.273 1.52169
33.7544 10.273 0.444707
20.3939 15.8953 -7.41226
22.2788 13.1562 -7.41226
20.3939 15.8953 -4.17435
22.2788 13.1562 -4.17435
14.5122 24.4423 -7.41226
16.5599 21.4667 -7.41226
14.5122 24.4423 -1.4069
16.5599 21.4667 -1.4069
9.59839 31.5828 -7.41226
10.7915 29.8491 -7.41226
9.59839 31.5828 -4.17435
10.7915 29.8491 -4.17435
-20.8994 -27.7519 -1.4069
-22.4038 -28.7684 -7.41226
-20.8994 -27.7519 -7.41226
-14.8193 -23.6437 -7.41226
-14.8193 -23.6437 -4.17435
-14.8193 -23.6437 -1.4069
-20.8994 -27.7519 0.232111
-20.8994 -27.7519 1.52169
-22.4038 -28.7684 1.52169
-22.4038 -28.7684 0.200336
-22.4038 -28.7684 -1.4069
-21.6803 -29.8005 1.52169
-21.6341 -29.8665 1.52169
-21.6341 -29.8665 1.60613
-21.6341 -29.8665 -4.20629
-21.6341 -29.8665 -7.41226
-23.7049 -26.9123 4.14867
-23.7049 -26.9123 1.52169
-23.7049 -26.9123 -2.17581
-23.7049 -26.9123 -7.41226
-26.5721 -22.822 -7.41226
-27.3894 -21.6559 -7.41226
-27.3894 -21.6559 -4.17435
-27.3894 -21.6559 1.52169
-27.3894 -21.6559 4.14867
-29.5469 -18.5781 -4.17435
-33.1596 -13.4242 -4.17435
-33.1596 -13.4242 4.14867
-29.4614 -18.7 1.52169
-29.4614 -18.7 -4.17435
-29.5469 -18.5781 -7.41226
-33.1596 -13.4242 -7.41226
-33.1596 -13.4242 1.52169
-29.6695 -18.4031 4.14867
-29.4614 -18.7 3.0165
-35.3065 -10.3615 4.14867
-35.3065 -10.3615 1.52169
-35.3065 -10.3615 -4.17435
-35.3065 -10.3615 -7.41226
-39.0014 -5.09038 -7.41226
-39.0014 -5.09038 -4.17435
-39.0014 -5.09038 1.52169
-39.0014 -5.09038 4.14867
-32.6789 1.81805 1.52169
-32.6789 1.81805 3.02551
-32.6789 1.81805 -1.4069
-32.6789 1.81805 -7.41226
-31.6258 0.316682 -7.41226
-31.6258 0.316682 -1.4069
-31.6258 0.316682 1.52169
-31.6258 0.316682 3.02327
-25.7813 -8.01565 -7.41226
-27.8095 -5.12403 -7.41226
-25.7813 -8.01565 -1.4069
-25.7813 -8.01565 1.52169
-25.7813 -8.01565 3.01086
-27.8095 -5.12403 3.01517
-27.8095 -5.12403 1.52169
-27.8095 -5.12403 -1.4069
-21.9453 -13.4844 1.52169
-21.9453 -13.4844 3.00272
-21.9453 -13.4844 -4.17435
-21.9453 -13.4844 -7.41226
-19.9118 -16.3835 -7.41226
-19.9118 -16.3835 -4.17435
-19.9118 -16.3835 1.52169
-19.9118 -16.3835 2.99841
-9.89924 -30.6579 1.52169
-9.6986 -30.944 1.52169
-12.269 -27.2795 1.52169
-14.139 -24.6135 1.52169
-11.1738 -22.5354 1.52169
-8.28583 -20.5113 1.52169
-2.81614 -16.6779 1.52169
0.0665913 -14.6575 1.52169
5.55095 -10.8138 1.52169
8.5625 -8.70312 1.52169
14.0469 -4.85937 1.52169
16.9149 -2.84933 1.52169
22.3992 0.994418 1.52169
25.4679 3.14511 1.52169
27.9641 4.89459 1.52169
32.3643 -1.49954 1.52169
30.1751 -3.03198 1.52169
29.7506 -3.32919 1.52169
26.8481 -5.36095 1.52169
26.6152 -5.52394 1.52169
21.3506 -9.20921 1.52169
18.4817 -11.2175 1.52169
13.1296 -14.964 1.52169
10.0017 -17.1536 1.52169
9.73801 -17.3382 1.52169
4.52585 -20.9867 1.52169
1.61194 -23.0265 1.52169
1.36599 -23.1987 1.52169
-3.84923 -26.8494 1.52169
-6.75948 -28.8866 1.52169
-6.98956 -29.0476 1.52169
-11.1738 -22.5354 1.60089
-11.1738 -22.5354 -1.4069
-11.1738 -22.5354 -4.17435
-11.1738 -22.5354 -7.41226
-8.28583 -20.5113 -7.41226
-8.28583 -20.5113 -4.17435
-8.28583 -20.5113 -1.4069
-8.28583 -20.5113 1.59945
-2.81614 -16.6779 1.59671
-2.81614 -16.6779 -1.4069
-2.81614 -16.6779 -7.41226
0.0665913 -14.6575 -7.41226
0.0665913 -14.6575 -1.4069
0.0665913 -14.6575 1.59527
8.5625 -8.70312 -7.41226
5.55095 -10.8138 -7.41226
8.5625 -8.70312 -1.4069
8.5625 -8.70312 1.59102
5.55095 -10.8138 1.59253
5.55095 -10.8138 -1.4069
14.0469 -4.85937 1.58827
14.0469 -4.85937 -1.4069
14.0469 -4.85937 -4.17435
14.0469 -4.85937 -7.41226
16.9149 -2.84933 -7.41226
16.9149 -2.84933 -4.17435
16.9149 -2.84933 -1.4069
16.9149 -2.84933 1.58684
22.3992 0.994418 1.58409
22.3992 0.994418 -1.4069
22.3992 0.994418 -4.17435
22.3992 0.994418 -7.41226
25.2819 3.01472 -7.41226
25.4679 3.14511 -7.41226
25.4679 3.14511 -4.17435
25.4679 3.14511 -1.4069
25.4679 3.14511 1.58256
25.2819 3.01472 1.58265
-20.137 -28.8173 -1.4069
-23.3485 -31.0681 -7.41226
-22.1312 -30.2149 -7.41226
-20.137 -28.8173 -7.41226
-14.139 -24.6135 -7.41226
-14.139 -24.6135 -4.17435
-14.139 -24.6135 -1.4069
-20.137 -28.8173 1.52169
-22.1312 -30.2149 1.52169
-23.3485 -31.0681 1.52169
-23.3485 -31.0681 -1.4069
28.1604 5.03213 -1.4069
28.1604 5.03213 1.52169
28.1604 5.03213 -4.17435
28.1604 5.03213 -7.41226
35.0617 9.86895 -7.41226
36.1194 10.6102 -7.41226
37.3347 11.462 -7.41226
37.3347 11.462 -1.4069
37.3347 11.462 1.52169
36.1194 10.6102 1.52169
35.6327 10.2691 1.52169
35.0617 9.86895 1.52169
34.3836 9.39373 1.52169
-12.1094 -34.9844 1.52169
-12.1094 -34.9844 -0.508892
-12.2346 -34.8062 -0.279446
-12.2346 -34.8062 1.52169
-8.60142 -32.5082 -0.491117
-8.60142 -32.5082 1.52169
-8.70705 -32.3576 1.52169
33.4583 -3.08924 1.52169
33.4583 -3.08924 -0.511178
-8.70705 -32.3576 -0.297336
-32.4683 1.96035 1.52169
-32.4683 1.96035 2.7814
10.8719 29.905 1.52169
10.7915 29.8491 1.52169
10.7915 29.8491 2.99042
10.8719 29.905 3.08464
-31.4032 0.471703 1.52169
-31.4032 0.471703 2.76266
16.6793 21.5499 1.52169
16.5599 21.4667 1.52169
16.5599 21.4667 2.91779
16.6793 21.5499 3.0578
14.5122 24.4423 2.94357
14.5122 24.4423 1.52169
14.6177 24.516 1.52169
14.6177 24.516 3.06733
-19.7432 -16.2647 2.8003
-19.7432 -16.2647 1.52169
-21.8031 -13.3858 2.83652
-21.8031 -13.3858 1.52169
22.4375 13.2656 1.52169
22.2788 13.1562 1.52169
22.2788 13.1562 2.84578
22.4375 13.2656 3.03119
20.3939 15.8953 2.86952
20.3939 15.8953 1.52169
20.5395 15.9963 1.52169
20.5395 15.9963 3.03996
-25.4802 -7.80603 1.52169
-25.4802 -7.80603 2.6585
-27.536 -4.93294 1.52169
-27.536 -4.93294 2.69465
9.59839 31.5828 1.52169
9.59839 31.5828 3.00544
9.67066 31.6332 3.09019
26.9491 4.18317 1.58182
-12.9588 -23.7864 1.60179
9.67066 31.6332 1.52169
10.7833 -18.8249 -7.41226
10.7851 -18.8274 -7.41226
10.7851 -18.8274 -4.17435
10.7833 -18.8249 -4.17435
10.4208 -18.3093 1.52169
19.2765 -12.8297 -4.17435
19.3239 -12.9004 -4.17435
19.3239 -12.9004 -1.4069
19.2765 -12.8297 -1.4069
30.0094 -4.2049 0.609566
30.2017 -4.48435 0.252176
34.3836 9.39373 1.5781
34.3523 9.43749 1.52169
35.6327 10.2691 1.57747
35.6017 10.3124 1.52169
36.6845 12.3965 -1.4069
27.6236 21.4627 -7.41226
19.3239 -12.9004 -0.439495
19.2765 -12.8297 -0.349862
-22.9059 -29.1076 -1.4069
-30.1627 -18.7363 2.44294
-30.1627 -18.7363 1.52169
19.2765 -12.8297 -7.41226
19.3239 -12.9004 -7.41226
31.27 -4.6082 -0.50008
31.27 -4.6082 -1.4069
19.3239 -12.9004 1.52169
19.2765 -12.8297 1.52169
-23.4483 -27.2783 1.52169
27.6166 -6.94256 -1.4069
27.7121 -7.07784 -1.4069
27.7121 -7.07784 -0.482036
27.6166 -6.94256 -0.307603
27.6236 21.4627 4.14867
27.7426 21.5472 4.14867
30.6424 17.2436 -7.41226
31.27 -4.6082 1.52169
31.156 -4.44416 1.52169
27.1417 -6.26972 0.560015
27.1417 -6.26972 1.52169
-3.27051 -28.0217 -1.4069
-3.27051 -28.0217 0.160259
27.6166 -6.94256 -4.17435
27.7121 -7.07784 -4.17435
10.7833 -18.8249 -1.4069
10.7833 -18.8249 -0.392896
8.15678 -8.11934 -7.41226
8.23031 -8.22513 -7.41226
8.15679 -8.11935 -4.17435
-28.7769 -5.79983 4.14867
-22.9254 -14.1646 4.14867
-21.4373 -28.1153 4.14867
-15.8209 -24.3205 4.14867
-33.7722 1.34101 4.14867
-39.3377 -2.53978 4.14867
22.3861 1.0132 -4.17435
22.3861 1.0132 -1.4069
28.2266 21.8906 1.52169
14.1986 -16.458 -1.4069
14.1777 -16.4288 -1.4069
14.1777 -16.4288 -0.375697
14.1986 -16.458 -0.413502
27.7121 -7.07784 1.52169
27.6166 -6.94256 1.52169
22.3861 1.0132 1.56007
-32.4683 1.96035 -7.41226
21.6769 29.7739 -7.41226
23.986 26.5466 -7.41226
14.1777 -16.4288 1.52169
14.1986 -16.458 1.52169
10.7833 -18.8249 1.52169
22.3861 1.0132 -7.41226
28.2266 21.8906 4.14867
-32.8133 2.00963 -4.17435
-40.3127 -3.21963 -4.17435
35.4802 11.5237 -1.4069
-23.3953 -31.0015 1.52169
-24.1396 -29.9413 0.163674
-24.1396 -29.9413 1.52169
-22.9059 -29.1077 0.189731
-22.9059 -29.1077 1.52169
-0.49581 -13.8593 -7.41226
-0.44502 -13.9314 -7.41226
-0.445011 -13.9314 -4.17435
-0.49581 -13.8593 -4.17435
30.663 -3.73429 1.52169
30.663 -3.73429 0.620859
27.6166 -6.94256 -7.41226
27.7121 -7.07784 -7.41226
-32.4683 1.96035 -1.4069
-5.96038 -30.451 -0.311265
2.41903 -24.6346 -1.4069
2.41903 -24.6346 -0.353762
36.6845 12.3965 1.52169
36.6845 12.3965 0.383165
37.3048 11.505 1.52169
30.2017 -4.48435 -1.4069
10.7851 -18.8274 -0.396191
10.7851 -18.8274 -1.4069
11.337 -19.6122 -1.4069
-24.1396 -29.9412 -1.4069
-5.96038 -30.451 1.52169
28.2266 21.8906 -4.17435
28.2266 21.8906 -1.4069
13.7883 -15.8846 0.329282
13.7883 -15.8846 1.52169
10.6813 -18.1217 0.275597
10.6813 -18.1217 1.52169
10.7232 -18.1815 1.52169
10.7232 -18.1815 0.198687
-30.1627 -18.7363 4.14867
27.3694 -6.10573 0.563951
27.5431 -6.35385 0.244876
14.1986 -16.458 -4.17435
14.1777 -16.4288 -4.17435
13.7056 -4.37015 -1.4069
13.7056 -4.37014 -4.17435
13.6532 -4.29498 -4.17435
13.6532 -4.29498 -1.4069
14.1986 -16.458 -7.41226
14.1777 -16.4288 -7.41226
-23.4483 -27.2783 4.14867
34.078 13.5277 -2.15547
33.57 13.1343 -2.1232
33.57 13.1343 -1.4069
34.078 13.5277 -1.4069
28.2266 21.8906 -7.41226
2.41903 -24.6346 1.52169
10.8719 29.905 -1.4069
10.7915 29.8491 -1.4069
13.7056 -4.37013 -7.41226
13.6532 -4.29498 -7.41226
10.8719 29.905 -4.17435
16.7931 36.5996 1.52169
16.7931 36.5996 -1.4069
16.7931 36.5996 -4.17435
17.1457 36.8455 -1.4069
9.67066 31.6332 -1.4069
-12.1094 -34.9844 -1.3131
-12.2346 -34.8062 -1.33013
10.8719 29.905 -7.41226
18.0214 34.8828 -7.41226
-3.02326 -16.3809 -1.4069
-2.937 -16.5046 -1.4069
-0.174018 -14.316 -1.4069
-0.0426905 -14.5024 -1.4069
36.4781 1.38019 1.52169
37.2394 0.273928 0.107077
37.2394 0.273928 1.52169
30.8546 -4.89653 -1.4069
30.8546 -4.89653 -0.497973
30.7419 -4.73651 -0.291768
30.7419 -4.73651 -1.4069
8.49044 -8.59943 -1.4069
2.41903 -24.6346 -4.17435
8.49044 -8.59943 1.45865
8.52476 -8.64881 1.52169
19.0796 -12.0747 0.42071
19.0796 -12.0747 1.52169
19.1875 -12.2295 1.52169
19.1875 -12.2295 0.22193
34.078 13.5277 -4.17435
27.5431 -6.35385 -1.4069
8.49044 -8.59943 -7.41226
-2.937 -16.5046 -7.41226
-3.02326 -16.3809 -7.41226
36.1074 1.12068 1.52169
36.8672 0.0156199 1.52169
19.5326 15.2977 -4.17435
16.6793 21.5499 -1.4069
16.6793 21.5499 -4.17435
21.912 1.69044 -7.41226
21.912 1.69044 -4.17435
-24.2025 -27.2545 1.52169
-24.2025 -27.2545 2.44152
22.4242 -10.7484 -0.455218
22.4242 -10.7484 1.52169
22.3585 -10.6542 1.52169
22.3585 -10.6542 -0.334246
30.8546 -4.89653 1.52169
30.7419 -4.73651 1.52169
14.6177 24.516 -4.17435
14.6177 24.516 -1.4069
-31.4032 0.471703 -7.41226
-2.937 -16.5046 1.37524
-2.85708 -16.6192 1.52169
21.5915 2.14828 -1.4069
21.912 1.69044 -1.4069
33.57 13.1343 4.14867
34.078 13.5277 4.14867
27.9641 4.89459 1.58131
30.1536 1.71302 5.62984
24.6535 26.9973 4.14867
24.1861 26.6816 4.14867
-39.4727 -5.43037 2.44517
-39.4727 -5.43037 1.52169
-20.1835 -28.7524 1.52169
18.0214 34.8828 4.14867
33.57 13.1343 1.52169
34.078 13.5277 1.52169
6.12697 -23.2593 -1.4069
27.5431 -6.35385 -4.17435
27.5431 -6.35385 -7.41226
5.46547 -10.692 -1.4069
-12.7123 -34.6611 0.134331
-13.4786 -33.59 1.52169
37.2393 0.273928 -1.4069
-0.0426905 -14.5024 1.39637
0.0261659 -14.6001 1.52169
5.46547 -10.692 1.43657
5.51212 -10.7585 1.52169
2.34288 -24.0745 1.52169
2.34288 -24.0745 0.175674
5.55991 -22.4544 1.52169
-33.6406 -13.7656 2.44378
-33.6406 -13.7656 1.52169
22.4242 -10.7484 -4.17435
22.4242 -10.7484 -1.4069
22.3585 -10.6542 -1.4069
22.3585 -10.6542 -4.17435
-27.8785 -22.0008 2.4424
-27.8785 -22.0008 4.14867
16.4895 -2.23944 -1.4069
16.4895 -2.23944 -4.17435
16.6079 -2.40917 -4.17435
16.6079 -2.40918 -1.4069
24.7605 3.75484 -1.4069
24.7605 3.75484 -4.17435
-6.01784 -29.9536 -1.4069
-6.01784 -29.9536 -4.17435
22.4242 -10.7484 -7.41226
22.3585 -10.6542 -7.41226
30.8546 -4.89653 -7.41226
30.8546 -4.89653 -4.17435
30.7419 -4.73651 -4.17435
30.7419 -4.73651 -7.41226
15.5978 20.7969 -7.41226
13.497 23.733 -7.41226
28.001 21.174 -7.41226
20.5395 15.9963 -7.41226
8.23031 -8.22513 0.980813
8.23031 -8.22513 -1.4069
5.24998 -10.3851 -1.4069
5.24998 -10.3851 1.04341
29.9095 18.4188 4.14867
30.4129 18.7659 4.14867
20.3939 15.8953 -1.4069
20.5395 15.9963 -4.17435
20.5395 15.9963 -1.4069
-25.4802 -7.80603 -1.4069
-27.536 -4.93294 -1.4069
-20.7717 -12.67 -1.4069
-20.7717 -12.67 -4.17435
-18.7703 -15.5786 -4.17435
-18.7703 -15.5786 -1.4069
-19.5336 -16.1168 -4.17435
-19.5336 -16.1168 -1.4069
-21.5924 -13.2395 -1.4069
-21.5924 -13.2395 -4.17435
-21.8031 -13.3858 -4.17435
26.0572 8.05793 -1.4069
9.59839 31.5828 -1.4069
26.0572 8.05793 -2.28169
26.0572 8.05793 1.52169
13.497 23.733 -1.4069
15.5978 20.7969 -1.4069
-16.3589 -21.4486 -1.4069
-32.8133 2.00963 -1.4069
-16.3589 -21.4486 1.52169
-16.3589 -21.4486 -2.45018
-33.6406 -13.7656 4.14867
-6.01784 -29.9536 -7.41226
18.7709 35.4046 1.52169
-27.8785 -22.0008 1.52169
5.46547 -10.692 -7.41226
30.4129 18.7659 1.52169
36.8672 0.0156199 0.108989
37.2109 -0.484381 -0.530209
37.2109 -0.484381 1.52169
-3.35868 -15.9 -7.41226
-3.35867 -15.9001 -4.17435
-0.174018 -14.316 -7.41226
13.3335 -3.83663 -1.4069
-25.4802 -7.80603 -7.41226
-8.10223 -33.2199 -1.4069
33.4583 -3.08924 -1.4069
33.4583 -3.08924 -4.17435
33.6924 -2.92672 -1.4069
13.9981 -4.7894 -4.17435
13.9981 -4.7894 -1.4069
16.8783 -2.79693 -1.4069
16.8783 -2.79693 -4.17435
2.34288 -24.0745 -1.4069
2.34288 -24.0745 -4.17435
5.55991 -22.4544 -4.17435
-30.2787 3.43984 -7.41226
-30.2787 3.43984 -4.17435
2.41903 -24.6346 -7.41226
-20.137 -28.8173 1.60538
-14.2211 -24.4964 -1.4069
-14.8192 -23.6437 0.36053
-39.4727 -5.43037 -7.41226
-39.4727 -5.43037 -4.17435
-12.1094 -34.9844 -7.41226
-12.2346 -34.8062 -7.41226
-35.7874 -10.6974 1.52169
-35.7874 -10.6974 2.44429
-35.7874 -10.6974 4.14867
30.4129 18.7659 -1.4069
-27.536 -4.93294 -7.41226
13.9981 -4.7894 -7.41226
16.8783 -2.79693 -7.41226
10.7232 -18.1815 -1.4069
22.3892 30.2335 -4.17435
22.3892 30.2335 -1.4069
24.6534 26.9974 -4.17435
24.6534 26.9974 -1.4069
2.34288 -24.0745 -7.41226
5.55991 -22.4544 -7.41226
33.976 12.5845 -1.4069
27.8869 21.0948 3.18375
16.7931 36.5996 3.39191
22.3892 30.2335 1.52169
24.6534 26.9974 1.52169
-8.60142 -32.5082 -1.48297
-8.70705 -32.3576 -1.49736
7.91139 -7.76624 -7.41226
7.91139 -7.76624 -4.17435
5.24998 -10.3851 -7.41226
-24.2025 -27.2545 -7.41226
-24.2025 -27.2545 -2.18124
-22.9059 -29.1076 -7.41226
5.10634 -10.1804 -7.41226
5.10634 -10.1805 -4.17435
-13.3784 -33.1795 1.52169
-13.218 -33.4076 1.52169
-15.8828 -36.8906 -1.196
-16.7625 -35.6321 1.52169
-15.8828 -36.8906 -1.4069
24.6534 26.9975 -7.41226
33.346 -2.4283 1.52169
4.92893 -9.92775 -7.41226
4.92893 -9.92775 -4.17435
-28.496 -18.0301 4.14867
16.4895 -2.23944 -7.41226
16.6079 -2.40916 -7.41226
27.0593 20.5205 4.14867
28.001 21.174 3.05063
-30.0547 -18.8906 -7.41226
-30.0547 -18.8906 -4.17435
-33.6406 -13.7656 -4.17435
-33.6406 -13.7656 -7.41226
-8.32836 -20.4506 1.52169
-17.7068 -14.8288 -7.41226
-19.5336 -16.1168 -7.41226
-17.7068 -14.8288 -4.17435
-2.84285 -28.2871 -1.4069
-2.84285 -28.2871 -0.327076
20.1719 11.7031 -7.41226
20.1719 11.7031 -4.17435
-11.2882 -22.3708 -7.41226
-11.2882 -22.3708 -4.17435
18.7709 35.4046 -1.4069
18.7709 35.4046 -4.17435
13.7057 -4.37016 0.963004
13.9981 -4.7894 1.49884
-29.9506 -19.0394 2.44289
35.9784 1.30837 1.52169
36.8672 0.0156199 -1.4069
39.3938 3.67143 1.52169
32.447 -1.13495 1.52169
20.2719 4.03341 -7.41226
20.2719 4.03341 -4.17435
18.7709 35.4046 -7.41226
-2.84285 -28.2871 1.52169
30.4442 -4.31387 1.52169
30.2469 -4.03385 0.613671
32.8289 -2.17472 1.52169
10.4593 -19.0536 1.52169
33.5651 -2.74363 1.52169
33.6924 -2.92672 1.52169
32.5904 -1.34128 1.52169
33.6924 -2.92672 -0.512365
33.4583 -3.08924 -7.41226
38.016 7.89958 -1.4069
38.016 7.89958 1.52169
10.7232 -18.1815 -4.17435
36.8672 0.0156199 -7.41226
37.2109 -0.484381 -7.41226
37.2109 -0.484381 -4.17435
37.2109 -0.484381 -1.4069
-27.8785 -22.0008 -4.17435
25.2811 3.01585 -4.17435
25.2811 3.01585 -1.4069
-29.262 1.96244 -7.41226
-29.262 1.96244 -4.17435
16.8783 -2.79693 1.51987
16.6079 -2.40919 1.0243
25.2811 3.01585 1.58119
25.2484 3.06226 1.52169
25.0734 3.31072 1.2031
36.6845 12.3965 -7.41226
37.3347 11.462 1.57662
-21.5924 -13.2395 -7.41226
-27.8785 -22.0008 -7.41226
17.1457 36.8455 -4.17435
9.67066 31.6332 -4.17435
8.55205 28.2899 -7.41226
8.55205 28.2899 -4.17435
10.7232 -18.1815 -7.41226
25.2811 3.01585 -7.41226
-35.7874 -10.6974 -4.17435
28.001 21.174 -4.17435
28.001 21.174 -1.4069
19.1875 -12.2295 -1.4069
19.1875 -12.2295 -4.17435
-8.58568 -20.4122 -1.4069
-8.43279 -20.3014 -4.17435
-8.43279 -20.3014 -7.41226
-35.7874 -10.6974 -7.41226
-23.3485 -31.0681 1.60699
-24.1397 -29.9412 -7.41226
28.001 21.174 1.52169
-2.125 -11.5469 -7.41226
-2.125 -11.5469 -4.17435
-2.84285 -28.2871 -7.41226
-2.84285 -28.2871 -4.17435
39.2109 8.76563 -7.41226
38.016 7.89958 -7.41226
22.4375 13.2656 -4.17435
39.2109 8.76563 -1.4069
22.4375 13.2656 -7.41226
-20.2636 -32.8841 -7.41226
-21.4766 -33.7344 -7.41226
-21.4766 -33.7344 1.52169
-11.2882 -22.3708 -1.4069
-20.2636 -32.8841 1.52169
-11.2882 -22.3708 1.39078
-11.2169 -22.4733 1.52169
10.4593 -19.0536 -4.17435
10.4593 -19.0536 -7.41226
-5.96038 -30.451 -4.17435
33.5651 -2.74363 -7.41226
-13.3728 -19.3714 -7.41226
-13.3728 -19.3714 -4.17435
-5.96038 -30.451 -7.41226
-23.4922 -6.42179 -7.41226
-23.4922 -6.42179 -4.17435
21.6769 29.7739 4.14867
21.9307 29.9376 4.14867
-25.4971 -3.50853 -7.41226
-25.4971 -3.50853 -4.17435
23.9861 26.5465 4.14867
35.4802 11.5237 -4.17435
35.4802 11.5237 -7.41226
35.4802 11.5237 0.40846
27.6119 5.8213 0.573725
-14.8192 -23.6437 1.52169
6.41173 -5.60836 -7.41226
6.41173 -5.60836 -4.17435
-12.7123 -34.6611 1.52169
-8.70705 -32.3576 -4.17435
33.6924 -2.92672 -4.17435
-8.70705 -32.3576 -7.41226
34.0611 10.4952 4.14867
16.145 36.1477 4.14867
14.3903 19.9561 -7.41226
14.3903 19.9561 -4.17435
34.9895 11.1681 1.52169
12.3203 22.911 -4.17435
27.988 5.28009 1.26466
12.3203 22.911 -7.41226
27.988 5.28009 1.52169
18.2683 14.4203 -4.17435
-3.02326 -16.3809 1.21718
18.2683 14.4203 -7.41226
-0.174018 -14.316 1.15734
7.34564 30.012 -7.41226
7.34564 30.012 -4.17435
33.9591 12.5726 -1.4069
-39.4727 -5.43037 4.14867
-29.9506 -19.0394 -4.17435
-0.0426905 -14.5024 -7.41226
-29.9506 -19.0394 1.52169
18.3478 35.11 4.14867
27.9641 4.89459 -1.4069
27.9641 4.89459 -4.17435
33.9322 10.6797 4.14867
34.8385 11.303 3.09508
3.37811 -7.71868 -7.41226
3.37811 -7.71868 -4.17435
-5.34521 -31.2899 -1.4069
-18.6333 -26.2208 7.40858
-14.8192 -23.6437 2.9876
31.3111 8.50224 7.40138
27.6119 5.8213 3.00728
-31.4032 0.471703 -1.4069
-19.7028 -11.9283 -7.41226
26.0572 8.05793 -7.41226
34.0263 13.6016 -7.41226
26.0572 8.05793 -4.17435
-17.3034 -20.1021 -4.17435
25.0268 9.54045 -4.17435
18.7709 35.4046 4.14867
11.9043 -1.78752 -7.41226
11.9043 -1.78752 -4.17435
22.1571 1.34029 1.14151
22.3651 1.04318 1.52169
14.0105 -4.80728 1.52169
-40.3127 -3.21963 1.52169
15.5392 25.1597 4.14867
-40.3127 -3.21963 3.00349
21.104 29.0474 4.14867
21.8325 29.5563 3.29735
14.7793 0.212525 -7.41226
35.4802 11.5237 1.52169
14.7793 0.212525 -4.17435
-8.60142 -32.5082 -7.41226
-8.60142 -32.5082 -4.17435
27.3694 -6.10573 1.52169
-2.66454 -15.431 -7.41226
22.3892 30.2335 -7.41226
-2.66495 -15.4313 -4.17435
-6.01784 -29.9536 0.152715
-10.4884 -17.3648 -7.41226
-10.4884 -17.3648 -4.17435
30.4129 18.7659 -7.41226
16.8793 -2.79836 1.52169
23.1527 6.0374 -7.41226
24.7605 3.75484 -7.41226
23.1527 6.0374 -4.17435
-8.43041 -20.3048 -1.4069
-8.43041 -20.3048 -4.17435
-16.3589 -21.4486 -4.17435
-16.3589 -21.4486 -7.41226
16.1698 -1.78106 -1.4069
17.1457 36.8455 1.52169
17.1457 36.8455 -7.41226
21.4864 16.6534 4.14867
24.4387 4.21173 -1.4069
10.5732 32.2626 4.14867
39.2109 8.76563 1.52169
16.6793 21.5499 -7.41226
33.346 -2.4283 -7.41226
33.6924 -2.92672 -7.41226
-11.8145 -21.6135 -1.4069
-15.8828 -36.8906 -7.41226
-8.58568 -20.4122 -4.17435
21.9218 -10.0282 1.52169
21.9218 -10.0282 0.469822
-8.43279 -20.3014 -1.4069
-8.89512 -19.6409 -1.4069
-19.7642 -32.534 -7.41226
-19.7432 -16.2647 -4.17435
-19.7642 -32.534 1.52169
-27.0633 -23.166 -7.41226
-22.1312 -30.2149 1.60638
19.1875 -12.2295 -7.41226
31.2032 17.6364 -7.41226
36.1194 10.6102 1.57723
14.6177 24.516 -7.41226
-8.58568 -20.4122 1.33401
27.6119 5.8213 1.52169
22.4375 13.2656 -1.4069
-40.3127 -3.21963 -7.41226
22.2788 13.1562 -1.4069
-8.43041 -20.3048 1.33515
-6.01784 -29.9536 1.52169
9.67066 31.6332 -7.41226
-14.2211 -24.4964 -7.41226
-25.2925 -25.6967 -4.17435
-24.2025 -27.2545 4.14867
-8.43041 -20.3048 -7.41226
40.2891 2.3906 -1.4069
16.7931 36.5996 -7.41226
-8.58568 -20.4122 -7.41226
-36.5591 -0.602296 7.41226
27.8869 21.0948 -7.41226
40.2891 2.3906 -7.41226
-32.8133 2.00963 3.02579
28.1604 5.03213 1.58121
23.2639 12.0767 -7.41226
28.128 5.07876 1.52169
26.5335 7.37271 -1.4069
13.3532 34.201 7.40881
36.089 10.6536 1.52169
-22.4038 -28.7684 3.02497
22.3892 30.2335 4.14867
-4.99999 -13.5469 -7.41226
-4.99999 -13.5469 -4.17435
-22.1775 -30.1487 1.52169
-32.8133 2.00963 1.52169
28.5728 6.51768 4.14867
-32.8133 2.00963 -7.41226
-14.2211 -24.4964 -4.17435
-19.0771 -17.5735 -7.41226
27.9641 4.89459 -7.41226
17.1457 36.8455 2.98007
-15.7874 -22.2634 -1.4069
19.5326 15.2977 -7.41226
-14.139 -24.6135 1.60238
-19.7028 -11.9283 -4.17435
-11.9354 -27.7551 5.62511
34.9512 11.1403 3.09581
17  1092 490 382 389 390 395 400 399 402 409 410 419 418 489 682 683 1094  255 0 0
7  1087 304 303 285 286 287 1026  255 26 0
15  1087 347 346 335 336 331 330 1085 1056 323 322 315 314 305 304  255 26 0
4  1087 993 348 347  255 26 0
5  453 582 983 776 448  255 53 0
19  1094 683 366 367 368 369 370 371 372 373 374 375 376 377 378 379 380 381 352  255 0 0
4  955 937 238 237  255 80 0
4  955 796 795 1009  255 80 0
4  424 385 384 425  255 107 0
7  424 423 136 137 154 142 153  255 107 0
16  424 153 152 434 1088 415 414 413 406 405 396 397 393 392 386 385  255 107 0
4  955 237 239 796  255 80 0
4  955 953 933 937  255 80 0
5  1092 354 355 382 490  255 0 0
7  1092 1094 352 351 157 353 354  255 0 0
4  1072 503 443 432  255 134 0
8  1073 527 85 84 730 1069 731 923  255 161 0
4  1072 1074 504 503  255 134 0
4  1073 923 921 994  255 161 0
3  1074 962 964  255 134 0
8  1074 964 116 115 114 1077 506 504  255 134 0
11  1060 632 1052 1034 731 1069 508 559 558 633 1066  255 161 0
4  491 629 626 625  255 161 0
4  1060 1066 627 898  255 161 0
4  1077 587 894 1051  255 134 0
5  1050 85 53 54 991  255 187 0
4  1050 1018 84 85  255 187 0
4  1077 114 113 587  255 134 0
4  1050 50 49 1018  255 187 0
5  424 1061 287 286 423  255 214 0
4  424 425 1086 1061  255 214 0
4  1087 1026 1025 993  255 26 0
6  491 625 813 957 1032 488  255 161 0
4  1085 330 0 565  255 26 0
4  1083 327 328 1071  255 26 0
4  1083 759 329 327  255 26 0
5  1083 1001 566 565 759  255 26 0
4  1085 565 566 1056  255 26 0
4  1082 568 570 572  255 241 0
4  1082 295 297 1048  255 241 0
4  1047 304 305 896  241 255 0
4  1082 572 292 295  255 241 0
4  1047 896 883 1062  241 255 0
6  1083 1071 545 546 1003 1001  255 26 0
4  1048 297 296 428  255 241 0
4  1048 912 568 1082  255 241 0
4  1051 505 506 1077  255 134 0
4  1051 894 439 440  255 134 0
5  488 1032 1002 469 459  255 161 0
3  1076 1032 957  255 161 0
6  1076 986 1084 1030 1002 1032  255 161 0
13  1076 957 92 96 1004 98 102 838 103 106 979 956 986  255 161 0
5  434 435 436 109 110  255 134 0
4  434 433 978 1088  255 107 0
5  1073 990 90 53 527  255 161 0
6  1074 1072 432 431 118 962  255 134 0
4  1073 994 992 990  255 161 0
4  434 110 119 433  255 134 0
6  1071 328 334 340 541 545  255 26 0
6  1068 545 541 542 544 984  255 26 0
3  1068 546 545  255 26 0
12  1068 984 543 258 257 255 835 253 251 249 247 546  255 26 0
4  354 426 383 355  255 107 0
4  354 427 420 426  255 107 0
4  352 827 826 351  214 255 0
5  354 353 140 139 427  255 107 0
4  428 296 1046 928  187 255 0
4  428 429 912 1048  255 241 0
4  422 421 925 924  187 255 0
4  422 299 285 823  255 241 0
4  422 924 1044 299  187 255 0
4  428 928 926 429  187 255 0
6  265 110 109 946 266 89  161 255 0
4  265 990 992 263  255 161 0
6  948 1075 754 752 755 1054  255 161 0
4  1061 1086 288 287  255 214 0
4  265 263 119 110  161 255 0
3  948 264 1075  255 161 0
4  1060 280 281 632  255 161 0
4  491 486 753 629  255 161 0
4  1060 898 282 280  255 161 0
4  304 1047 821 303  241 255 0
4  295 688 790 297  255 214 0
4  295 292 291 688  255 214 0
4  1001 325 324 566  255 26 0
4  1056 566 324 323  255 26 0
5  1054 755 474 477 987  255 161 0
6  949 760 758 761 1090 792  255 26 0
3  792 1090 289  255 26 0
4  436 437 111 109  255 134 0
4  436 435 151 920  255 107 0
4  1051 440 441 505  255 134 0
4  1050 991 51 50  255 187 0
5  299 136 423 286 285  255 214 0
4  296 139 140 1046  187 255 0
4  299 1044 137 136  187 255 0
4  422 823 913 421  255 241 0
4  1047 1062 822 821  241 255 0
6  237 153 142 133 146 239  214 255 0
5  139 296 297 790 427  255 214 0
4  1038 146 133 129  134 255 0
4  1038 830 144 146  134 255 0
4  1038 129 134 830  134 255 0
6  1036 880 165 164 1035 934  107 255 0
4  1036 875 778 954  107 255 0
4  874 769 882 779  107 255 0
5  1036 934 727 724 875  107 255 0
5  434 152 126 151 435  255 107 0
4  874 779 777 452  107 255 0
4  1036 954 881 880  107 255 0
4  440 439 1033 877  255 107 0
6  432 443 442 150 125 159  255 107 0
4  873 862 859 658  214 255 0
4  436 920 919 437  255 107 0
5  440 877 150 442 441  255 107 0
5  1035 186 187 727 934  107 255 0
4  1035 164 163 186  107 255 0
4  287 288 1025 1026  255 26 0
4  263 264 118 119  161 255 0
5  993 761 758 21 348  255 26 0
5  288 289 1090 761 1025  255 26 0
6  994 754 1075 264 263 992  255 161 0
3  993 1025 761  255 26 0
6  432 365 977 978 433 431  255 107 0
5  873 366 158 159 862  214 255 0
4  432 159 158 365  255 107 0
19  186 152 153 237 238 763 227 228 809 221 220 901 211 210 1049 201 200 694 187  214 255 0
4  1007 114 115 960  161 255 0
4  1007 960 268 947  161 255 0
4  1054 270 271 948  255 161 0
4  1029 1066 633 65  255 161 0
4  1028 625 626 628  255 161 0
3  85 527 53  255 161 0
4  88 268 960 269  161 255 0
5  269 960 115 116 270  161 255 0
4  1029 897 627 1066  255 161 0
4  88 971 811 268  255 161 0
5  269 690 616 971 88  255 161 0
4  1029 65 64 897  255 161 0
4  1028 628 63 61  255 161 0
4  1021 663 37 36  80 255 0
4  1020 863 42 44  53 255 0
4  1022 864 863 1020  53 255 0
4  1021 44 42 663  80 255 0
4  1022 45 43 864  53 255 0
4  1022 1020 44 45  53 255 0
4  719 45 44 1021  80 255 0
4  1016 935 33 32  26 255 0
4  1017 936 935 1016  26 255 0
5  32 33 852 1067 910  0 255 0
4  34 35 936 1017  26 255 0
4  1017 1016 32 34  26 255 0
3  1012 574 573  0 255 26
5  1012 771 657 773 574  0 255 26
5  1014 772 1081 916 576  0 255 26
3  1014 576 575  0 255 26
5  1012 573 915 1080 771  0 255 26
4  1006 996 22 24  0 255 53
4  1008 997 996 1006  0 255 53
4  24 22 623 836  0 255 80
4  25 23 997 1008  0 255 53
4  1008 1006 24 25  0 255 53
4  1003 546 247 248  255 26 0
4  1003 248 325 1001  255 26 0
4  997 23 22 996  0 255 53
4  898 629 753 282  255 161 0
5  994 921 1055 752 754  255 161 0
4  565 0 329 759  255 26 0
4  280 969 899 281  0 255 107
4  282 970 969 280  0 255 107
4  282 283 900 970  0 255 107
4  439 438 922 1033  255 107 0
4  437 919 922 438  255 107 0
4  895 846 845 989  0 255 134
4  989 845 847 1093  0 255 134
4  1093 847 745 744  0 255 134
5  1093 744 750 895 989  0 255 134
5  987 477 481 1030 1084  255 161 0
7  987 1084 956 1095 269 270 1054  255 161 0
3  986 956 1084  255 161 0
4  1089 813 625 1028  255 161 0
4  1095 956 979 980  255 161 0
4  1089 62 91 813  255 161 0
5  1095 980 86 690 269  255 161 0
4  1028 61 62 1089  255 161 0
4  1086 791 289 288  255 214 0
4  119 118 431 433  255 134 0
4  425 426 791 1086  255 214 0
4  425 384 383 426  255 107 0
4  946 109 111 893  161 255 0
4  947 567 507 586  161 255 0
5  946 893 507 567 945  161 255 0
5  985 350 349 760 949  255 26 0
4  292 520 259 1078  255 26 0
4  1078 259 258 543  255 26 0
5  985 544 542 344 350  255 26 0
7  292 1078 543 544 985 949 291  255 26 0
3  984 544 543  255 26 0
5  293 302 301 520 292  255 26 0
4  572 571 293 292  255 241 0
5  442 443 503 505 441  255 134 0
5  1070 879 860 698 1065  0 255 161
6  1070 184 124 163 164 879  0 255 161
4  1070 1065 185 184  0 255 161
4  1065 698 127 185  0 255 161
5  1062 883 765 665 822  241 255 0
4  954 779 882 881  107 255 0
5  953 817 174 177 933  255 80 0
4  954 778 777 779  107 255 0
4  981 950 951 982  0 255 187
4  982 951 819 834  0 255 187
4  833 818 950 981  0 255 187
4  834 819 540 825  0 255 187
4  982 834 833 981  0 255 187
5  50 614 617 800 49  0 255 214
4  897 628 626 627  255 161 0
4  897 64 63 628  255 161 0
4  365 364 417 977  255 107 0
5  682 489 418 364 365  255 0 0
4  978 416 415 1088  255 107 0
4  978 977 417 416  255 107 0
4  975 513 512 858  0 255 241
4  312 307 306 313  255 26 0
6  973 841 842 707 513 975  0 255 241
4  313 309 841 973  0 255 241
5  313 306 305 314 309  255 26 0
4  975 312 313 973  0 255 241
4  971 615 52 811  255 161 0
3  971 616 615  255 161 0
4  970 900 899 969  0 255 107
4  272 273 923 731  255 161 0
5  274 275 851 965 660  0 241 255
5  967 850 273 272 1091  0 241 255
4  965 851 850 967  0 241 255
4  274 660 1091 272  0 241 255
4  967 1091 660 965  0 241 255
4  963 958 728 729  0 214 255
4  276 277 1034 1052  255 161 0
4  961 959 958 963  0 214 255
4  276 729 728 277  0 214 255
4  961 8 9 959  0 214 255
4  10 8 729 276  0 214 255
4  963 729 8 961  0 214 255
4  11 277 728 9  0 214 255
4  959 9 728 958  0 214 255
4  957 813 91 92  255 161 0
5  171 589 591 692 173  0 187 255
4  931 786 172 170  0 161 255
4  931 494 493 932  0 161 255
4  171 170 590 589  0 187 255
3  931 495 494  0 161 255
4  171 537 536 170  0 161 255
4  931 170 536 495  0 161 255
4  955 1009 1010 953  255 80 0
4  174 817 816 178  255 80 0
4  953 1010 816 817  255 80 0
4  818 833 824 538  0 255 187
4  951 950 818 819  0 255 187
4  949 792 290 291  255 26 0
4  265 89 90 990  255 161 0
4  948 271 262 264  255 161 0
4  947 268 267 567  161 255 0
4  946 945 261 266  161 255 0
4  945 567 267 261  161 255 0
4  50 51 653 614  0 255 214
4  942 938 939 943  0 134 255
4  943 939 7 6  0 134 255
4  801 775 938 942  0 134 255
4  943 6 801 942  0 134 255
4  775 801 336 335  0 134 255
4  939 938 775 7  0 134 255
4  35 34 1043 1037  0 255 0
4  936 35 33 935  26 255 0
4  571 569 592 511  255 241 0
4  823 511 592 913  255 241 0
4  932 810 786 931  0 161 255
3  932 493 492  0 161 255
5  932 492 220 221 810  0 161 255
5  429 926 925 421 430  187 255 0
4  928 924 925 926  187 255 0
4  876 922 919 920  255 107 0
5  182 693 654 588 188  214 255 0
4  187 694 693 182  214 255 0
4  182 726 727 187  107 255 0
4  227 763 721 229  214 255 0
5  229 721 720 532 230  214 255 0
4  917 789 228 227  0 107 255
4  918 646 789 917  0 107 255
4  229 918 917 227  0 107 255
4  140 156 155 141  255 107 0
4  137 141 155 154  255 107 0
5  140 141 137 1044 1046  187 255 0
5  1014 575 29 28 772  0 255 26
4  916 1081 1080 915  0 255 26
4  916 915 573 576  0 255 26
4  1081 772 771 1080  0 255 26
5  1067 852 385 386 1064  0 255 0
4  1039 909 910 1067  0 255 0
3  415 902 414  0 80 255
4  416 884 902 415  0 80 255
4  1067 1064 1024 1039  0 255 0
4  188 588 502 189  214 255 0
4  188 644 726 182  107 255 0
4  230 532 533 231  214 255 0
4  848 583 646 918  0 107 255
4  230 848 918 229  0 107 255
4  914 82 81 839  255 161 0
4  914 75 74 905  255 161 0
4  905 83 82 914  255 161 0
4  905 74 73 904  255 161 0
3  418 419 890  0 80 255
4  1053 929 927 908  0 255 0
4  908 1042 909 1039  0 255 0
5  1053 1058 844 930 929  0 255 0
5  418 890 885 417 364  0 80 255
4  908 1023 1058 1053  0 255 0
4  201 1049 907 202  214 255 0
4  723 579 200 201  0 53 255
4  202 907 906 203  214 255 0
4  202 711 723 201  0 53 255
4  1049 210 209 907  214 255 0
4  907 209 208 906  214 255 0
4  1046 1044 924 928  187 255 0
4  417 885 884 416  0 80 255
4  1039 1024 1023 908  0 255 0
6  568 912 429 430 592 569  255 241 0
4  913 592 430 421  255 241 0
4  203 906 652 204  214 255 0
4  203 710 711 202  0 53 255
4  730 71 508 1069  255 161 0
4  730 84 48 904  255 161 0
4  904 73 71 730  255 161 0
4  904 48 83 905  255 161 0
4  322 323 793 911  0 26 255
4  321 310 315 322  255 26 0
4  911 793 794 903  0 26 255
4  903 794 687 797  0 26 255
4  903 321 322 911  0 26 255
4  34 32 910 909  0 255 0
4  151 120 121 149  0 0 255
4  149 121 861 150  0 0 255
4  876 920 151 149  255 107 0
5  908 927 1037 1043 1042  0 255 0
4  836 623 622 837  0 255 80
4  25 24 836 715  0 255 80
4  906 208 206 652  214 255 0
4  797 687 686 798  0 26 255
4  320 316 310 321  255 26 0
4  797 320 321 903  0 26 255
4  316 320 250 252  255 26 0
4  842 841 840 843  0 255 241
4  316 707 842 310  0 255 241
4  36 37 563 902  0 80 255
4  902 563 413 414  0 80 255
4  38 36 902 884  0 80 255
4  803 802 405 406  0 255 80
4  837 622 802 803  0 255 80
4  716 837 803 783  0 255 80
4  878 212 211 901  214 255 0
4  878 219 218 804  214 255 0
4  901 220 219 878  214 255 0
4  283 281 899 900  0 255 107
4  898 627 626 629  255 161 0
4  305 306 883 896  241 255 0
4  346 347 846 895  0 255 134
4  345 5 335 346  255 26 0
5  750 751 345 346 895  0 255 134
6  587 112 107 438 439 894  255 134 0
4  437 438 107 111  255 134 0
4  893 111 107 507  161 255 0
4  586 507 107 112  161 255 0
4  891 999 998 892  0 80 255
4  892 998 40 39  0 80 255
4  890 556 999 891  0 80 255
5  892 39 885 890 891  0 80 255
4  888 857 856 889  0 255 80
4  889 856 607 717  0 255 80
4  889 717 782 888  0 255 80
4  887 788 787 886  26 0 255
4  675 557 330 331  26 0 255
4  3 2 788 887  26 0 255
4  886 787 557 675  26 0 255
4  887 886 675 3  26 0 255
4  39 38 884 885  0 80 255
4  717 716 783 782  0 255 80
4  307 312 318 256  255 26 0
4  306 307 765 883  241 255 0
3  879 164 165  0 255 161
4  860 879 165 166  0 255 161
5  882 166 165 880 881  107 255 0
4  804 213 212 878  214 255 0
4  804 218 216 601  214 255 0
4  780 802 622 608  0 255 80
4  150 861 128 125  0 0 255
4  877 876 149 150  255 107 0
5  778 725 641 517 777  107 255 0
4  875 724 725 778  107 255 0
4  781 780 608 607  0 255 80
4  171 173 705 870  0 161 255
4  874 452 451 872  107 255 0
4  453 450 593 582  255 53 0
4  874 872 770 769  107 255 0
5  872 451 528 529 871  107 255 0
5  873 192 191 869 366  214 255 0
4  352 381 244 243  214 255 0
4  450 243 244 593  255 53 0
5  873 658 193 161 192  214 255 0
6  872 871 832 169 168 770  107 255 0
6  192 832 871 529 190 191  107 255 0
4  450 447 242 243  255 53 0
4  352 243 242 827  214 255 0
6  870 705 225 226 217 562  0 161 255
4  870 562 537 171  0 161 255
4  191 190 577 869  214 255 0
4  366 869 577 367  214 255 0
5  226 225 376 375 496  214 255 0
3  226 496 217  214 255 0
4  368 367 578 868  214 255 0
5  868 501 603 369 368  214 255 0
4  868 578 183 189  214 255 0
4  379 378 233 232  214 255 0
4  232 233 619 866  0 107 255
5  231 533 1015 380 379  214 255 0
3  379 232 231  214 255 0
4  189 183 190 867  107 255 0
4  189 502 501 868  214 255 0
4  867 190 529 672  107 255 0
4  672 529 528 671  107 255 0
4  867 672 643 189  107 255 0
4  849 584 583 848  0 107 255
4  866 619 584 849  0 107 255
4  232 866 849 231  0 107 255
4  204 652 649 1041  214 255 0
4  669 555 554 668  0 53 255
4  205 197 555 669  0 53 255
4  205 669 670 204  0 53 255
4  65 66 1013 865  53 0 255
4  865 1013 805 855  53 0 255
4  855 805 806 854  53 0 255
4  865 855 64 65  53 0 255
4  864 43 42 863  53 255 0
5  159 125 128 859 862  214 255 0
4  121 185 127 123  80 0 255
4  121 123 128 861  0 0 255
4  768 639 698 860  0 255 161
4  658 638 194 193  214 255 0
4  859 128 638 658  214 255 0
4  318 254 253 835  255 26 0
4  858 512 254 318  0 255 241
4  857 888 1019 1000  0 255 80
4  857 781 607 856  0 255 80
4  652 206 207 651  214 255 0
5  651 207 215 597 650  214 255 0
4  854 806 814 764  53 0 255
4  764 814 94 93  53 0 255
4  854 764 61 63  53 0 255
4  828 830 134 135  134 255 0
4  828 145 144 830  134 255 0
4  839 76 75 914  255 161 0
5  839 81 103 838 812  255 161 0
4  855 854 63 64  53 0 255
4  853 852 33 35  0 255 0
4  275 273 850 851  0 241 255
4  239 146 144 175  214 255 0
4  240 145 696 241  214 255 0
4  240 175 144 145  214 255 0
4  631 181 175 240  255 53 0
4  239 175 181 796  255 80 0
4  189 643 644 188  107 255 0
4  231 849 848 230  0 107 255
4  612 514 210 211  107 0 255
4  606 612 211 212  107 0 255
4  204 670 710 203  0 53 255
4  1041 649 372 371  214 255 0
4  371 370 531 1040  214 255 0
4  1040 531 197 205  214 255 0
3  371 1040 1041  214 255 0
5  847 845 846 747 745  0 255 134
4  609 623 22 23  0 255 80
4  800 617 691 767  0 255 214
4  767 691 105 104  0 255 214
4  800 767 82 83  0 255 214
4  858 318 312 975  0 255 241
4  386 392 27 387  255 107 0
4  387 27 391 388  255 107 0
4  387 1024 1064 386  0 255 0
4  419 410 556 890  0 80 255
4  356 357 390 389  255 0 0
4  389 382 930 844  0 255 0
4  388 391 357 356  255 107 0
6  844 1058 1023 388 356 389  0 255 0
4  687 794 324 325  0 26 255
4  962 118 108 117  255 134 0
4  118 264 262 108  161 255 0
4  213 804 601 214  214 255 0
4  551 606 212 213  107 0 255
4  1043 34 909 1042  0 255 0
4  927 853 35 1037  0 255 0
4  601 216 217 600  214 255 0
4  600 217 496 599  214 255 0
4  843 840 314 315  0 255 241
4  310 842 843 315  0 255 241
4  309 314 840 841  0 255 241
4  838 102 101 812  255 161 0
4  839 812 101 76  255 161 0
4  271 117 108 262  161 255 0
4  877 1033 922 876  255 107 0
4  38 719 1021 36  80 255 0
4  718 679 678 1031  80 255 0
4  718 1031 45 719  80 255 0
4  1031 678 43 45  80 255 0
4  23 25 1027 774  0 255 80
4  714 610 774 1027  0 255 80
4  1027 25 715 714  0 255 80
4  388 1023 1024 387  0 255 0
4  408 411 363 362  255 107 0
4  362 363 410 409  255 0 0
4  409 402 1000 1019  0 255 80
6  1019 888 782 408 362 409  0 255 80
4  716 715 836 837  0 255 80
4  650 597 373 372  214 255 0
3  650 372 649  214 255 0
4  835 255 256 318  255 26 0
4  825 540 15 14  0 255 187
4  834 825 824 833  0 255 187
4  832 192 161 169  107 255 0
4  665 765 712 666  241 255 0
5  302 293 294 285 303  255 26 0
4  301 302 822 665  241 255 0
5  811 52 55 261 267  255 161 0
4  80 67 66 72  255 161 0
4  72 71 618 831  134 0 255
4  72 66 558 559  255 161 0
4  807 594 595 808  134 0 255
4  831 618 594 807  134 0 255
4  80 72 831 807  134 0 255
4  67 80 79 68  255 161 0
4  66 65 633 558  255 161 0
4  805 1013 66 67  53 0 255
3  448 776 178  255 53 0
6  1010 1009 795 180 179 816  255 80 0
5  448 178 179 630 445  255 53 0
4  1007 585 113 114  161 255 0
4  1007 947 586 585  161 255 0
4  402 399 360 361  255 0 0
4  403 398 17 404  255 107 0
4  361 360 398 403  255 107 0
6  1000 402 361 403 781 857  0 255 80
4  995 1079 941 976  161 0 255
4  976 941 940 689  161 0 255
4  93 94 1079 995  161 0 255
4  93 995 976 62  161 0 255
4  47 55 653 51  0 255 214
4  47 51 991 54  255 187 0
4  54 90 89 266  255 161 0
5  47 54 266 261 55  255 161 0
5  353 157 147 156 140  255 107 0
4  829 156 147 148  187 0 255
5  134 155 156 829 135  187 0 255
5  351 826 148 147 157  214 255 0
5  829 148 132 130 135  187 0 255
3  130 132 143  134 255 0
5  130 143 145 828 135  134 255 0
4  827 697 148 826  214 255 0
4  14 15 733 734  214 0 255
4  820 539 538 824  0 255 187
4  14 820 824 825  0 255 187
4  571 511 294 293  255 241 0
4  285 294 511 823  255 241 0
4  302 303 821 822  241 255 0
4  766 655 539 820  0 255 187
4  12 766 820 14  0 255 187
4  655 766 397 396  0 255 187
4  16 15 539 655  0 255 187
4  819 818 538 540  0 255 187
3  816 179 178  255 80 0
4  815 549 100 99  134 0 255
4  808 595 549 815  134 0 255
4  78 69 68 79  255 161 0
4  78 79 808 815  134 0 255
4  69 78 77 70  255 161 0
4  814 806 68 69  53 0 255
4  249 251 252 250  255 26 0
4  319 326 247 249  241 0 255
3  319 249 250  241 0 255
3  268 811 267  255 161 0
4  221 809 785 222  214 255 0
4  222 785 784 223  214 255 0
4  222 786 810 221  0 161 255
4  809 228 236 785  214 255 0
4  785 236 235 784  214 255 0
4  79 80 807 808  134 0 255
4  806 805 67 68  53 0 255
4  406 413 412 407  255 107 0
4  407 412 411 408  255 107 0
4  407 783 803 406  0 255 80
4  404 17 396 405  255 107 0
4  780 404 405 802  0 255 80
4  4 1 331 336  255 26 0
4  6 4 336 801  0 134 255
4  49 800 83 48  0 255 214
4  798 686 972 799  0 26 255
4  799 972 326 319  0 26 255
4  799 319 250 798  0 26 255
4  798 250 320 797  0 26 255
3  630 179 180  255 53 0
4  631 630 180 181  255 53 0
4  796 181 180 795  255 80 0
4  794 793 323 324  0 26 255
4  792 289 284 290  255 26 0
5  426 420 284 289 791  255 214 0
6  290 284 420 427 790 688  255 214 0
4  722 580 579 723  0 53 255
4  708 535 580 722  0 53 255
4  788 2 557 787  26 0 255
4  223 784 704 224  214 255 0
4  223 172 786 222  0 161 255
4  784 235 234 704  214 255 0
4  408 782 783 407  0 255 80
4  781 403 404 780  0 255 80
4  777 517 516 452  107 255 0
4  452 516 528 451  107 255 0
5  174 178 776 983 177  255 53 0
5  170 172 692 591 590  0 187 255
4  642 516 517 641  107 255 0
4  5 345 19 337  255 26 0
4  7 775 335 5  0 134 255
4  610 609 23 774  0 255 80
4  598 596 214 601  214 255 0
4  599 496 375 374  214 255 0
4  374 373 596 598  214 255 0
3  599 374 598  214 255 0
4  773 657 656 974  0 255 26
4  575 574 773 29  0 255 26
4  28 29 636 634  255 0 241
4  28 657 771 772  0 255 26
4  560 519 518 561  107 0 255
4  215 207 519 560  107 0 255
4  560 552 214 215  107 0 255
4  734 733 732 735  214 0 255
4  695 12 14 734  214 0 255
4  645 733 15 16  214 0 255
4  659 169 161 193  0 255 161
4  659 640 639 768  0 255 161
3  659 168 169  0 255 161
4  659 768 167 168  0 255 161
4  770 168 167 769  107 255 0
4  104 105 681 737  255 0 214
4  767 104 81 82  0 255 214
4  241 696 952 242  214 255 0
4  13 31 393 397  255 107 0
4  12 13 397 766  0 255 187
4  307 256 712 765  241 255 0
4  764 93 62 61  53 0 255
4  721 246 176 720  214 255 0
4  763 238 246 721  214 255 0
4  726 644 641 725  107 255 0
4  552 551 213 214  107 0 255
4  731 1034 662 739  255 161 0
4  739 662 661 740  255 161 0
4  739 274 272 731  255 161 0
4  762 602 512 706  0 255 241
4  706 512 513 707  0 255 241
4  311 317 602 762  0 255 241
4  311 762 706 252  0 255 241
4  486 457 621 753  255 161 0
4  282 753 621 283  255 161 0
4  275 274 738 1057  255 161 0
4  760 349 21 758  255 26 0
4  6 7 741 742  255 0 187
4  2 3 988 581  255 0 161
4  749 748 20 18  0 255 134
4  749 18 751 750  0 255 134
4  345 751 18 19  0 255 134
4  278 279 757 756  255 0 134
4  278 756 8 10  255 0 134
4  279 278 467 463  255 161 0
4  279 11 9 757  255 0 134
4  757 9 8 756  255 0 134
4  755 752 1055 474  255 161 0
4  480 462 465 481  255 161 0
4  740 661 462 480  255 161 0
4  479 475 1057 738  255 161 0
4  480 479 738 740  255 161 0
4  749 743 746 748  0 255 134
4  750 744 743 749  0 255 134
4  748 746 745 747  0 255 134
4  746 743 744 745  0 255 134
4  342 332 1 4  255 26 0
4  742 342 4 6  255 0 187
4  337 19 343 338  255 26 0
4  741 7 5 337  255 0 187
4  740 738 274 739  255 161 0
4  737 681 680 736  255 0 214
4  736 680 106 103  255 0 214
4  104 737 736 81  255 0 214
4  735 732 647 701  214 0 255
4  701 647 648 702  214 0 255
4  701 695 734 735  214 0 255
4  647 732 733 645  214 0 255
3  373 597 596  214 255 0
4  251 253 317 311  255 0 107
3  251 311 252  255 0 107
4  727 726 725 724  107 255 0
4  723 711 708 722  0 53 255
4  720 176 245 1015  214 255 0
4  717 607 610 714  0 255 80
4  39 40 679 718  80 255 0
4  39 718 719 38  80 255 0
4  717 714 715 716  0 255 80
4  713 1063 666 712  241 255 0
4  308 300 1063 713  241 255 0
4  256 308 713 712  241 255 0
4  709 522 535 708  0 53 255
4  711 710 709 708  0 53 255
4  252 706 707 316  0 255 241
4  224 704 377 376  214 255 0
4  225 705 173 224  0 161 255
4  704 234 233 703  214 255 0
4  703 233 378 377  214 255 0
4  401 394 31 13  255 107 0
4  359 358 394 401  255 107 0
4  702 648 399 400  214 0 255
4  400 395 358 359  255 0 0
6  702 400 359 401 695 701  214 0 255
4  395 390 677 700  255 0 241
4  700 677 676 699  255 0 241
4  699 676 966 968  255 0 241
6  700 699 637 394 358 395  255 0 241
5  638 128 123 127 195  214 255 0
4  639 195 127 698  0 255 161
4  697 827 242 952  214 255 0
6  697 696 145 143 132 148  214 255 0
4  695 401 13 12  214 0 255
4  604 196 530 603  214 255 0
4  604 502 588 654  214 255 0
4  694 200 199 693  214 255 0
4  693 199 198 654  214 255 0
4  550 499 498 605  107 0 255
4  605 498 515 611  107 0 255
4  499 550 553 509  107 0 255
4  691 617 56 57  0 255 214
4  690 57 56 616  255 161 0
4  689 940 96 92  161 0 255
3  91 689 92  161 0 255
3  247 326 248  241 0 255
3  291 290 688  255 214 0
4  686 687 325 248  0 26 255
4  684 564 526 685  255 0 80
4  99 100 564 684  255 0 80
4  685 526 525 944  255 0 80
4  685 77 99 684  255 0 80
4  974 656 392 393  0 255 26
4  31 30 974 393  0 255 26
4  26 27 392 656  0 255 26
4  611 515 514 612  107 0 255
4  664 663 42 43  80 255 0
5  366 683 682 365 158  255 0 0
5  70 77 97 1005 95  255 161 0
4  1079 94 70 941  161 0 255
4  768 860 166 167  0 255 161
4  769 167 166 882  107 255 0
3  376 225 224  214 255 0
3  704 703 377  214 255 0
4  300 308 255 257  255 0 53
4  300 613 259 260  255 0 53
4  260 259 520 301  255 26 0
4  300 260 666 1063  241 255 0
4  21 20 1045 348  0 255 134
4  1015 245 244 1059  214 255 0
4  1015 533 532 720  214 255 0
4  1059 244 381 380  214 255 0
3  1015 1059 380  214 255 0
4  474 1055 1057 475  255 161 0
4  1052 632 624 673  255 161 0
4  673 624 620 674  255 161 0
4  673 10 276 1052  255 161 0
4  394 637 30 31  255 0 241
4  635 391 27 26  255 0 241
4  748 747 1045 20  0 255 134
4  1041 1040 205 204  214 255 0
4  654 198 196 604  214 255 0
4  86 980 979 106  255 161 0
5  681 105 58 86 680  255 0 214
4  679 664 43 678  80 255 0
6  677 390 357 391 635 676  255 0 241
4  77 78 815 99  134 0 255
4  94 814 69 70  53 0 255
4  224 173 172 223  0 161 255
4  662 1034 277 11  255 161 0
4  1055 921 275 1057  255 161 0
4  447 446 241 242  255 53 0
5  481 465 469 1002 1030  255 161 0
4  547 563 37 41  0 80 255
4  1018 49 48 84  255 187 0
4  3 675 331 1  26 0 255
4  674 620 456 468  255 161 0
4  674 278 10 673  255 161 0
4  671 528 516 642  107 255 0
4  643 672 671 642  107 255 0
4  668 554 523 667  0 53 255
4  667 523 522 709  0 53 255
4  670 669 668 667  0 53 255
4  260 301 665 666  241 255 0
4  664 41 37 663  80 255 0
3  255 308 256  255 0 53
4  661 662 11 279  255 161 0
4  105 691 57 58  0 255 214
4  86 58 57 690  255 161 0
4  603 530 531 1011  214 255 0
4  603 501 502 604  214 255 0
4  1011 531 370 369  214 255 0
3  1011 369 603  214 255 0
4  1004 96 95 1005  255 161 0
4  468 456 459 469  255 161 0
4  1005 97 98 1004  255 161 0
5  556 548 40 998 999  0 80 255
4  742 741 482 484  255 0 187
4  19 18 473 343  255 0 26
4  341 333 332 342  255 26 0
4  484 341 342 742  255 0 187
4  338 343 344 339  255 26 0
4  482 741 337 338  255 0 187
4  18 20 471 473  255 0 26
4  349 471 20 21  255 0 26
4  333 341 340 334  255 26 0
4  460 454 581 988  255 0 161
4  460 988 332 333  255 0 161
4  659 193 194 640  0 255 161
4  468 467 278 674  255 161 0
4  462 661 279 463  255 161 0
4  548 547 41 40  0 80 255
3  173 692 172  0 187 255
4  534 199 200 579  0 53 255
5  747 846 347 348 1045  0 255 134
4  257 258 613 300  255 0 53
4  679 40 41 664  80 255 0
4  988 3 1 332  255 0 161
4  646 236 228 789  0 107 255
3  81 736 103  255 0 214
3  680 86 106  255 0 214
4  62 976 689 91  161 0 255
4  30 29 773 974  0 255 26
4  26 656 657 28  0 255 26
4  17 16 655 396  0 255 187
4  521 198 199 534  0 53 255
4  446 631 240 241  255 53 0
4  614 653 55 52  0 255 214
4  652 651 650 649  214 255 0
6  648 647 645 398 360 399  214 0 255
4  583 235 236 646  0 107 255
4  398 645 16 17  214 0 255
4  644 643 642 641  107 255 0
4  640 194 195 639  0 255 161
3  638 195 194  214 255 0
4  637 636 29 30  255 0 241
4  634 636 968 966  255 0 241
4  635 26 28 634  255 0 241
4  972 686 248 326  0 26 255
4  699 968 636 637  255 0 241
4  676 635 634 966  255 0 241
4  964 962 117 116  255 134 0
4  270 116 117 271  161 255 0
4  853 384 385 852  0 255 0
3  697 952 696  214 255 0
4  710 670 667 709  0 53 255
4  944 525 102 98  255 0 80
3  944 98 97  255 0 80
3  940 95 96  161 0 255
4  944 97 77 685  255 0 80
4  941 70 95 940  161 0 255
4  933 246 238 937  255 80 0
4  927 383 384 853  0 255 0
3  317 253 254  255 0 107
4  177 176 246 933  255 80 0
6  930 382 355 383 927 929  0 255 0
4  921 923 273 275  255 161 0
3  983 582 177  255 53 0
4  624 632 281 283  255 161 0
4  446 445 630 631  255 53 0
4  495 219 220 492  0 161 255
4  620 624 283 621  255 161 0
4  524 196 198 521  0 53 255
4  609 608 622 623  0 255 80
4  456 620 621 457  255 161 0
4  619 233 234 584  0 107 255
4  71 72 559 508  255 161 0
4  594 618 71 73  134 0 255
4  536 218 219 495  0 161 255
4  617 614 52 56  0 255 214
4  616 56 52 615  255 161 0
4  497 209 210 514  107 0 255
3  613 258 259  255 0 53
4  605 611 612 606  107 0 255
4  610 607 608 609  0 255 80
4  550 605 606 551  107 0 255
4  549 595 74 75  134 0 255
4  602 317 254 512  0 255 241
4  601 600 599 598  214 255 0
4  215 214 596 597  214 255 0
4  595 594 73 74  134 0 255
4  593 244 245 582  255 53 0
3  525 101 102  255 0 80
3  578 367 577  214 255 0
3  591 589 590  0 187 255
4  500 208 209 497  107 0 255
4  555 197 196 524  0 53 255
3  587 113 112  255 134 0
4  586 112 113 585  161 255 0
4  584 234 235 583  0 107 255
4  582 245 176 177  255 53 0
4  581 329 0 2  255 0 161
4  454 327 329 581  255 0 161
4  534 579 580 535  0 53 255
4  578 577 190 183  214 255 0
4  576 573 574 575  0 255 26
4  572 570 569 571  255 241 0
3  570 568 569  255 241 0
4  519 207 206 510  107 0 255
4  564 100 76 526  255 0 80
4  547 412 413 563  0 80 255
4  562 217 216 537  0 161 255
4  561 518 509 553  107 0 255
4  561 553 552 560  107 0 255
4  510 206 208 500  107 0 255
4  2 0 330 557  26 0 255
5  556 410 363 411 548  0 80 255
4  555 524 523 554  0 53 255
4  553 550 551 552  107 0 255
4  100 549 75 76  134 0 255
4  548 411 412 547  0 80 255
5  542 541 340 339 344  255 26 0
4  540 538 539 15  0 255 187
4  537 216 218 536  0 161 255
4  521 534 535 522  0 53 255
4  531 530 196 197  214 255 0
3  54 53 90  255 161 0
4  526 76 101 525  255 0 80
4  524 521 522 523  0 53 255
4  519 510 509 518  107 0 255
4  497 514 515 498  107 0 255
4  510 500 499 509  107 0 255
4  505 503 504 506  255 134 0
4  500 497 498 499  107 0 255
4  495 492 493 494  0 161 255
4  491 488 487 486  255 161 0
4  481 477 476 478  255 161 0
4  469 465 464 466  255 161 0
4  488 459 458 487  255 161 0
4  484 482 483 485  255 0 187
4  454 460 461 455  255 0 161
4  487 458 457 486  255 161 0
4  463 467 466 464  255 161 0
4  475 479 478 476  255 161 0
4  344 472 470 350  255 0 26
4  343 473 472 344  255 0 26
4  485 483 339 340  255 0 187
4  485 340 341 484  255 0 187
4  483 482 338 339  255 0 187
4  481 478 479 480  255 161 0
4  477 474 475 476  255 161 0
4  473 471 470 472  255 0 26
4  350 470 471 349  255 0 26
4  469 466 467 468  255 161 0
4  465 462 463 464  255 161 0
4  334 328 455 461  255 0 161
4  461 460 333 334  255 0 161
4  459 456 457 458  255 161 0
4  455 328 327 454  255 0 161
4  453 448 449 450  255 53 0
4  450 449 444 447  255 53 0
4  449 448 445 444  255 53 0
4  447 444 445 446  255 53 0
13  443 432 431 433 434 435 436 437 438 439 440 441 442  255 107 0
13  432 443 442 441 440 439 438 437 436 435 434 433 431  255 134 0
6  430 421 298 296 428 429  187 255 0
6  421 430 429 428 296 298  255 241 0
4  139 296 298 138  187 255 0
4  296 139 138 298  255 214 0
4  427 139 138 420  255 107 0
4  139 427 420 138  255 214 0
7  426 420 138 136 423 424 425  255 107 0
7  420 426 425 424 423 136 138  255 214 0
4  299 136 138 298  187 255 0
4  136 299 298 138  255 214 0
4  422 299 298 421  187 255 0
4  299 422 421 298  255 241 0
5  419 410 363 364 418  255 0 0
5  410 419 418 364 363  0 80 255
9  417 364 363 411 412 413 414 415 416  255 107 0
9  364 417 416 415 414 413 412 411 363  0 80 255
4  409 402 361 362  255 0 0
4  402 409 362 361  0 255 80
8  408 362 361 403 404 405 406 407  255 107 0
8  362 408 407 406 405 404 403 361  0 255 80
4  13 397 396 17  255 107 0
4  397 13 17 396  0 255 187
6  401 13 17 398 360 359  255 107 0
6  13 401 359 360 398 17  214 0 255
4  400 359 360 399  255 0 0
4  359 400 399 360  214 0 255
4  395 390 357 358  255 0 0
4  390 395 358 357  255 0 241
6  394 358 357 391 27 31  255 107 0
6  358 394 31 27 391 357  255 0 241
4  393 31 27 392  255 107 0
4  31 393 392 27  0 255 26
4  389 382 355 356  255 0 0
4  382 389 356 355  0 255 0
8  388 356 355 383 384 385 386 387  255 107 0
8  356 388 387 386 385 384 383 355  0 255 0
20  381 352 351 157 158 366 367 368 369 370 371 372 373 374 375 376 377 378 379 380  214 255 0
20  352 381 380 379 378 377 376 375 374 373 372 371 370 369 368 367 366 158 157 351  255 0 0
15  365 158 157 353 354 355 356 357 358 359 360 361 362 363 364  255 107 0
15  365 364 363 362 361 360 359 358 357 356 355 354 353 157 158  255 0 0
6  350 344 343 19 21 349  255 26 0
6  344 350 349 21 19 343  255 0 26
6  348 21 19 345 346 347  255 26 0
6  21 348 347 346 345 19  0 255 134
4  4 336 335 5  255 26 0
4  336 4 5 335  0 134 255
8  342 4 5 337 338 339 340 341  255 26 0
8  4 342 341 340 339 338 337 5  255 0 187
8  334 328 327 329 0 1 332 333  255 26 0
8  328 334 333 332 1 0 329 327  255 0 161
4  331 1 0 330  255 26 0
4  1 331 330 0  26 0 255
4  326 319 250 248  241 0 255
4  319 326 248 250  0 26 255
8  325 248 250 320 321 322 323 324  255 26 0
8  248 325 324 323 322 321 320 250  0 26 255
7  312 313 309 310 316 252 254  255 26 0
7  313 312 254 252 316 310 309  0 255 241
3  318 312 254  255 26 0
3  312 318 254  0 255 241
3  317 254 311  255 0 107
3  254 317 311  0 255 241
3  252 311 254  255 0 107
3  311 252 254  0 255 241
4  315 310 309 314  255 26 0
4  310 315 314 309  0 255 241
4  308 300 260 256  255 0 53
4  300 308 256 260  241 255 0
9  307 256 260 301 302 303 304 305 306  255 26 0
9  256 307 306 305 304 303 302 301 260  241 255 0
7  295 297 296 298 299 285 294  255 214 0
7  297 295 294 285 299 298 296  255 241 0
4  292 295 294 293  255 214 0
4  295 292 293 294  255 241 0
7  294 285 284 290 291 292 293  255 214 0
7  285 294 293 292 291 290 284  255 26 0
6  289 284 285 286 287 288  255 214 0
6  284 289 288 287 286 285  255 26 0
4  283 281 280 282  255 161 0
4  281 283 282 280  0 255 107
4  11 277 276 10  255 161 0
4  277 11 10 276  0 214 255
4  279 11 10 278  255 161 0
4  11 279 278 10  255 0 134
4  275 273 272 274  255 161 0
4  273 275 274 272  0 241 255
6  262 264 263 265 89 87  161 255 0
6  264 262 87 89 265 263  255 161 0
5  271 262 88 269 270  161 255 0
5  262 271 270 269 88  255 161 0
5  268 88 87 261 267  161 255 0
5  88 268 267 261 87  255 161 0
4  266 261 87 89  161 255 0
4  261 266 89 87  255 161 0
3  88 262 87  161 255 0
3  262 88 87  255 161 0
6  260 256 255 257 258 259  255 26 0
6  256 260 259 258 257 255  255 0 53
4  254 252 251 253  255 26 0
4  252 254 253 251  255 0 107
4  250 248 247 249  255 26 0
4  248 250 249 247  241 0 255
4  185 121 120 184  80 0 255
4  184 120 122 124  80 0 255
6  186 163 124 122 126 152  214 255 0
6  246 238 237 239 175 176  214 255 0
6  238 246 176 175 239 237  255 80 0
8  245 176 175 240 241 242 243 244  214 255 0
8  176 245 244 243 242 241 240 175  255 53 0
10  236 228 227 229 230 231 232 233 234 235  214 255 0
10  228 236 235 234 233 232 231 230 229 227  0 107 255
11  226 217 216 218 219 220 221 222 223 224 225  214 255 0
11  217 226 225 224 223 222 221 220 219 218 216  0 161 255
10  215 207 206 208 209 210 211 212 213 214  214 255 0
10  207 215 214 213 212 211 210 209 208 206  107 0 255
10  205 197 196 198 199 200 201 202 203 204  214 255 0
10  197 205 204 203 202 201 200 199 198 196  0 53 255
4  127 185 184 124  80 0 255
4  185 127 124 184  0 255 161
6  195 127 160 161 193 194  214 255 0
6  127 195 194 193 161 160  0 255 161
6  192 161 160 183 190 191  214 255 0
6  192 191 190 183 160 161  107 255 0
6  189 183 160 162 182 188  214 255 0
6  183 189 188 182 162 160  107 255 0
5  187 182 162 163 186  214 255 0
5  182 187 186 163 162  107 255 0
3  127 160 162  0 255 161
3  127 162 160  214 255 0
4  127 162 163 124  0 255 161
6  181 175 174 178 179 180  255 80 0
6  175 181 180 179 178 174  255 53 0
4  177 174 175 176  255 80 0
4  174 177 176 175  255 53 0
4  173 171 170 172  0 161 255
4  171 173 172 170  0 187 255
4  162 127 124 163  214 255 0
10  169 161 160 162 163 164 165 166 167 168  107 255 0
10  161 169 168 167 166 165 164 163 162 160  0 255 161
4  154 129 133 142  187 0 255
4  155 134 129 154  187 0 255
4  151 126 122 120  0 0 255
9  159 125 126 152 153 142 147 157 158  255 107 0
5  150 125 126 151 149  0 0 255
9  159 158 157 147 142 153 152 126 125  214 255 0
5  156 147 142 154 155  255 107 0
5  156 155 154 142 147  187 0 255
5  151 126 125 150 149  255 107 0
6  143 145 144 146 133 131  214 255 0
6  145 143 131 133 146 144  134 255 0
3  132 143 131  214 255 0
3  143 132 131  134 255 0
4  148 132 142 147  214 255 0
4  132 148 147 142  187 0 255
3  142 133 131  187 0 255
3  142 131 133  214 255 0
3  142 131 132  187 0 255
3  142 132 131  214 255 0
6  141 137 136 138 139 140  255 107 0
6  137 141 140 139 138 136  187 255 0
5  130 132 131 133 129  187 0 255
5  132 130 129 133 131  134 255 0
4  135 130 129 134  187 0 255
4  130 135 134 129  134 255 0
3  128 125 123  214 255 0
3  125 128 123  0 0 255
3  127 123 124  214 255 0
3  123 127 124  80 0 255
4  126 122 123 125  214 255 0
3  124 122 123  80 0 255
4  126 125 123 122  0 0 255
3  124 123 122  214 255 0
4  123 121 120 122  0 0 255
4  121 123 122 120  80 0 255
7  119 110 109 111 107 108 118  255 134 0
7  110 119 118 108 107 111 109  161 255 0
8  117 108 107 112 113 114 115 116  255 134 0
8  108 117 116 115 114 113 112 107  161 255 0
5  106 103 81 59 86  255 161 0
5  103 106 86 59 81  255 0 214
5  105 58 59 81 104  0 255 214
3  86 58 59  255 0 214
5  105 104 81 59 58  255 0 214
6  102 98 97 77 76 101  255 161 0
6  98 102 101 76 77 97  255 0 80
4  100 76 77 99  134 0 255
4  76 100 99 77  255 0 80
6  96 92 91 62 70 95  255 161 0
6  92 96 95 70 62 91  161 0 255
4  94 70 62 93  53 0 255
4  70 94 93 62  161 0 255
3  86 59 58  255 161 0
3  81 59 60  0 255 214
5  85 53 46 48 84  255 161 0
5  53 85 84 48 46  255 187 0
6  83 48 46 60 81 82  255 161 0
6  48 83 82 81 60 46  0 255 214
3  81 60 59  255 161 0
10  80 72 71 73 74 75 76 77 78 79  255 161 0
10  72 80 79 78 77 76 75 74 73 71  134 0 255
10  70 62 61 63 64 65 66 67 68 69  255 161 0
10  62 70 69 68 67 66 65 64 63 61  53 0 255
8  60 46 47 52 56 57 58 59  255 161 0
3  53 46 47  255 187 0
8  60 59 58 57 56 52 47 46  0 255 214
3  55 52 47  255 161 0
3  52 55 47  0 255 214
3  54 47 53  255 161 0
3  47 54 53  255 187 0
3  53 47 46  255 161 0
6  51 47 46 48 49 50  255 187 0
6  47 51 50 49 48 46  0 255 214
4  45 43 42 44  80 255 0
4  43 45 44 42  53 255 0
6  41 37 36 38 39 40  0 80 255
6  37 41 40 39 38 36  80 255 0
4  35 33 32 34  0 255 0
4  33 35 34 32  26 255 0
6  31 27 26 28 29 30  0 255 26
6  27 31 30 29 28 26  255 0 241
4  25 23 22 24  0 255 80
4  23 25 24 22  0 255 53
4  21 19 18 20  0 255 134
4  19 21 20 18  255 0 26
6  17 13 12 14 15 16  0 255 187
6  13 17 16 15 14 12  214 0 255
4  11 9 8 10  0 214 255
4  9 11 10 8  255 0 134
4  7 5 4 6  0 134 255
4  5 7 6 4  255 0 187
4  3 1 0 2  26 0 255
4  1 3 2 0  255 0 161

