OFF
1042 933 0

-12.1094 -34.9844 1.52169
-12.1094 -34.9844 -0.508892
-12.2346 -34.8062 1.52169
-8.60142 -32.5082 -0.491117
-8.60142 -32.5082 1.52169
33.4583 -3.08924 1.52169
-8.70705 -32.3576 1.52169
-8.70705 -32.3576 -0.297336
-32.4683 1.96035 2.7814
-32.6789 1.81805 3.02551
10.8719 29.905 1.52169
10.8719 29.905 3.08464
10.7915 29.8491 2.99042
-31.6258 0.316682 1.52169
-31.6258 0.316682 3.02327
-31.4032 0.471703 1.52169
-31.4032 0.471703 2.76266
16.6793 21.5499 1.52169
16.5599 21.4667 2.91779
16.6793 21.5499 3.0578
14.5122 24.4423 2.94357
14.5122 24.4423 1.52169
14.6177 24.516 1.52169
14.6177 24.516 3.06733
-19.7432 -16.2647 2.8003
-19.7432 -16.2647 1.52169
-19.9118 -16.3835 1.52169
-19.9118 -16.3835 2.99841
-21.8031 -13.3858 2.83652
22.4375 13.2656 1.52169
22.2788 13.1562 1.52169
22.4375 13.2656 3.03119
22.2788 13.1562 2.84578
20.3939 15.8953 2.86952
20.5395 15.9963 1.52169
-25.4802 -7.80603 2.6585
-25.4802 -7.80603 1.52169
-25.7813 -8.01565 3.01086
-27.536 -4.93294 1.52169
-27.536 -4.93294 2.69465
-21.9453 -13.4844 1.52169
10.7915 29.8491 1.52169
9.59839 31.5828 1.52169
9.59839 31.5828 3.00544
9.67066 31.6332 3.09019
20.5395 15.9963 3.03996
26.9491 4.18317 1.58182
-12.9588 -23.7864 1.60179
9.67066 31.6332 1.52169
10.7833 -18.8249 -7.41226
10.7851 -18.8274 -7.41226
10.7851 -18.8274 -4.17435
10.7833 -18.8249 -4.17435
10.4607 -18.366 1.52169
10.4208 -18.3093 1.52169
19.2765 -12.8297 -4.17435
19.3239 -12.9004 -4.17435
19.3239 -12.9004 -1.4069
19.2765 -12.8297 -1.4069
30.0094 -4.2049 0.609566
34.3836 9.39373 1.5781
34.3836 9.39373 1.52169
34.3523 9.43749 1.52169
35.6327 10.2691 1.57747
35.6327 10.2691 1.52169
35.6017 10.3124 1.52169
37.3347 11.462 -1.4069
36.6845 12.3965 -1.4069
27.7426 21.5472 -7.41226
27.6236 21.4627 -7.41226
19.3239 -12.9004 -0.439495
19.2765 -12.8297 -0.349862
-22.4038 -28.7684 -1.4069
-22.9059 -29.1076 -1.4069
-30.1627 -18.7363 2.44294
-30.1627 -18.7363 1.52169
19.2765 -12.8297 -7.41226
19.3239 -12.9004 -7.41226
-12.2346 -34.8062 -0.279446
31.27 -4.6082 -0.50008
31.27 -4.6082 -1.4069
19.3239 -12.9004 1.52169
19.2765 -12.8297 1.52169
-23.4483 -27.2783 1.52169
-23.4483 -27.2783 3.02371
27.6166 -6.94256 -1.4069
27.7121 -7.07784 -1.4069
27.6166 -6.94256 -0.307603
27.7426 21.5472 3.04895
27.6236 21.4627 3.18869
27.6236 21.4627 4.14867
27.7426 21.5472 4.14867
-20.137 -28.8173 -7.41226
-20.8994 -27.7519 -7.41226
30.6424 17.2436 -7.41226
31.27 -4.6082 1.52169
27.3145 -6.5146 1.52169
27.1417 -6.26972 1.52169
27.3145 -6.5146 0.244248
-3.27051 -28.0217 0.160259
27.6166 -6.94256 -4.17435
27.7121 -7.07784 -4.17435
10.4607 -18.366 0.197966
10.4607 -18.366 -1.4069
10.7833 -18.8249 -0.392896
31.156 -4.44416 1.52169
8.15678 -8.11934 -7.41226
8.23031 -8.22513 -7.41226
8.23031 -8.22513 -4.17435
8.15679 -8.11935 -4.17435
-28.7769 -5.79983 4.14867
-27.8095 -5.12403 3.01517
-27.8095 -5.12403 1.52169
-21.9453 -13.4844 3.00272
-33.7722 1.34101 4.14867
-15.8209 -24.3205 4.14867
22.3861 1.0132 -1.4069
22.3992 0.994418 -4.17435
28.2266 21.8906 1.52169
28.2266 21.8906 2.48048
14.1986 -16.458 -1.4069
14.1777 -16.4288 -1.4069
14.1777 -16.4288 -0.375697
27.7121 -7.07784 -0.482036
27.7121 -7.07784 1.52169
22.3861 1.0132 1.56007
22.3992 0.994418 1.58409
-32.6789 1.81805 -4.17435
-32.4683 1.96035 -7.41226
-32.4683 1.96035 -4.17435
-32.6789 1.81805 -7.41226
9.73801 -17.3382 1.52169
21.9307 29.9376 -7.41226
23.986 26.5466 -7.41226
-6.98956 -29.0476 1.52169
18.974 -12.3796 -1.4069
2.1221 -24.2297 1.52169
14.1986 -16.458 -0.413502
14.1986 -16.458 1.52169
10.7833 -18.8249 1.52169
22.3861 1.0132 -7.41226
22.3861 1.0132 -4.17435
22.3992 0.994418 -7.41226
28.2266 21.8906 4.14867
-32.8133 2.00963 -4.17435
-40.3127 -3.21963 -4.17435
18.974 -12.3796 0.221344
18.974 -12.3796 1.52169
-24.1396 -29.9413 0.163674
-24.1396 -29.9413 1.52169
-23.3953 -31.0015 1.52169
-22.9059 -29.1077 0.189731
26.6152 -5.52394 1.52169
27.1417 -6.26972 0.560015
-0.49581 -13.8593 -7.41226
-0.44502 -13.9314 -7.41226
-0.445011 -13.9314 -4.17435
-0.49581 -13.8593 -4.17435
30.663 -3.73429 1.52169
30.8616 -4.02031 1.52169
30.8616 -4.02031 0.253988
30.663 -3.73429 0.620859
27.6166 -6.94256 -7.41226
27.7121 -7.07784 -7.41226
-32.4683 1.96035 -1.4069
-32.4683 1.96035 1.52169
-32.6789 1.81805 -1.4069
-6.22059 -30.0962 0.152158
-6.22059 -30.0962 -1.4069
-5.96038 -30.451 -0.311265
2.1221 -24.2297 0.175067
2.1221 -24.2297 -1.4069
2.41903 -24.6346 -1.4069
2.41903 -24.6346 -0.353762
36.6845 12.3965 1.52169
36.6845 12.3965 0.383165
37.3048 11.505 1.52169
30.2017 -4.48435 -1.4069
27.6166 -6.94256 1.52169
18.974 -12.3796 -4.17435
10.7851 -18.8274 -1.4069
11.337 -19.6122 -1.4069
10.7851 -18.8274 -0.396191
26.8063 20.8827 4.14867
-23.3485 -31.0681 -1.4069
-24.1396 -29.9412 -1.4069
-6.22059 -30.0962 1.52169
-5.96038 -30.451 1.52169
28.2266 21.8906 -4.17435
27.7426 21.5472 -4.17435
28.2266 21.8906 -1.4069
13.7883 -15.8846 0.329282
10.7232 -18.1815 0.198687
-29.6695 -18.4031 4.14867
-30.1627 -18.7363 4.14867
27.3694 -6.10573 0.563951
27.7426 21.5472 -1.4069
27.7426 21.5472 1.52169
14.1986 -16.458 -4.17435
14.1777 -16.4288 -4.17435
13.7056 -4.37015 -1.4069
13.7056 -4.37014 -4.17435
13.6532 -4.29498 -4.17435
13.6532 -4.29498 -1.4069
14.1986 -16.458 -7.41226
14.1777 -16.4288 -7.41226
-22.5028 -26.593 4.14867
-23.4483 -27.2783 4.14867
18.974 -12.3796 -7.41226
34.078 13.5277 -2.15547
33.5781 13.1406 -2.12372
33.57 13.1343 -2.1232
33.57 13.1343 -1.4069
34.078 13.5277 -1.4069
10.4607 -18.366 -4.17435
10.7833 -18.8249 -1.4069
28.2266 21.8906 -7.41226
2.41903 -24.6346 1.52169
10.8719 29.905 -1.4069
10.7915 29.8491 -1.4069
-32.6789 1.81805 1.52169
13.6532 -4.29498 -7.41226
27.3145 -6.5146 -1.4069
10.8719 29.905 -4.17435
10.7915 29.8491 -4.17435
10.4607 -18.366 -7.41226
16.7931 36.5996 1.52169
16.7931 36.5996 -1.4069
16.7931 36.5996 -4.17435
30.1751 -3.03198 1.52169
9.67066 31.6332 -1.4069
-12.1094 -34.9844 -1.3131
-12.2346 -34.8062 -1.33013
10.8719 29.905 -7.41226
10.7915 29.8491 -7.41226
18.0214 34.8828 -7.41226
22.4375 13.2656 -7.41226
22.3892 30.2335 1.52169
22.2788 13.1562 -4.17435
24.186 26.6816 -1.4069
24.6534 26.9974 1.52169
-11.1738 -22.5354 1.52169
-11.1738 -22.5354 -1.4069
-11.1738 -22.5354 1.60089
-11.2169 -22.4733 1.52169
-11.2882 -22.3708 1.39078
-8.70705 -32.3576 -1.49736
-8.60142 -32.5082 -1.48297
-5.96038 -30.451 -4.17435
-28.6955 -17.745 4.14867
7.91139 -7.76624 -4.17435
-29.6695 -18.4031 3.01625
-6.22059 -30.0962 -7.41226
-5.96038 -30.451 -7.41226
21.9307 29.9376 4.14867
16.7931 36.5996 -7.41226
21.6769 29.7739 3.30027
23.9861 26.5465 3.25694
24.1861 26.6816 3.02584
24.1861 26.6816 4.14867
9.59839 31.5828 -4.17435
23.9861 26.5465 4.14867
-23.7049 -26.9123 4.14867
9.59839 31.5828 -7.41226
20.9321 29.2934 4.14867
21.6769 29.7739 4.14867
23.2147 26.0253 4.14867
14.5122 24.4423 -7.41226
27.3145 -6.5146 -4.17435
27.3145 -6.5146 -7.41226
18.2683 14.4203 -7.41226
22.4242 -10.7484 -1.4069
20.3939 15.8953 -4.17435
22.3585 -10.6542 -0.334246
22.3585 -10.6542 -1.4069
-12.7123 -34.6611 1.52169
20.3939 15.8953 -7.41226
-12.7123 -34.6611 0.134331
-13.4786 -33.59 1.52169
-11.2882 -22.3708 -7.41226
5.55991 -22.4544 -1.4069
-11.2882 -22.3708 -4.17435
6.12697 -23.2593 -1.4069
-11.1738 -22.5354 -7.41226
34.2835 9.53374 1.52169
33.7544 10.273 0.444707
33.7544 10.273 1.52169
33.9591 12.5726 -1.4069
35.5477 10.3879 1.52169
-26.4311 -20.9803 4.14867
-23.7049 -26.9123 3.02341
27.988 5.28009 1.52169
22.4242 -10.7484 -0.455218
-3.02326 -16.3809 1.21718
13.3335 -3.83663 -7.41226
30.7419 -4.73651 -0.291768
11.9043 -1.78752 -4.17435
-0.174018 -14.316 -1.4069
-39.0014 -5.09038 4.14867
-2.937 -16.5046 -4.17435
-3.02326 -16.3809 -1.4069
-2.937 -16.5046 -1.4069
-0.174018 -14.316 -4.17435
-0.0426905 -14.5024 -1.4069
-23.7049 -26.9123 -2.17581
10.5732 32.2626 4.14867
36.4781 1.38019 1.52169
-24.2025 -27.2545 1.52169
37.2394 0.273928 0.107077
30.8546 -4.89653 -0.497973
8.49044 -8.59943 -4.17435
8.5625 -8.70312 -4.17435
8.5625 -8.70312 -1.4069
2.41903 -24.6346 -4.17435
33.346 -2.4283 1.52169
2.1221 -24.2297 -4.17435
8.49044 -8.59943 1.45865
8.49044 -8.59943 -1.4069
8.5625 -8.70312 1.59102
8.52476 -8.64881 1.52169
19.1875 -12.2295 1.52169
19.1875 -12.2295 0.22193
10.4593 -19.0536 -7.41226
19.0796 -12.0747 1.52169
30.8546 -4.89653 -1.4069
-24.2025 -27.2545 4.14867
34.078 13.5277 -4.17435
-13.3728 -19.3714 -7.41226
4.52585 -20.9867 1.52169
8.5625 -8.70312 -7.41226
37.2109 -0.484381 -0.530209
-27.536 -4.93294 -4.17435
-3.02326 -16.3809 -7.41226
-27.536 -4.93294 -7.41226
-3.02326 -16.3809 -4.17435
-0.174018 -14.316 -7.41226
-0.0426905 -14.5024 -4.17435
18.0214 34.8828 3.36886
18.0214 34.8828 4.14867
18.3478 35.11 2.98789
-25.4971 -3.50853 -7.41226
33.57 13.1343 3.08683
22.3892 30.2335 4.14867
32.6924 12.4549 4.14867
21.5915 2.14828 -4.17435
28.9765 17.7753 4.14867
35.4802 11.5237 0.40846
33.9322 10.6797 4.14867
2.1221 -24.2297 -7.41226
2.41903 -24.6346 -7.41226
-19.7028 -11.9283 -7.41226
-5.96038 -30.451 -1.4069
-5.34521 -31.2899 -1.4069
-31.6258 0.316682 -4.17435
-31.6258 0.316682 -1.4069
-31.4032 0.471703 -1.4069
-31.4032 0.471703 -4.17435
22.1571 1.3403 -1.4069
22.1571 1.34031 -4.17435
27.8869 21.0948 -7.41226
-22.7424 -26.2506 4.14867
-19.5336 -16.1168 -7.41226
-19.9118 -16.3835 -4.17435
-19.5336 -16.1168 -4.17435
-19.9118 -16.3835 -7.41226
34.9895 11.1681 0.418766
32.3643 -1.49954 1.52169
-27.8785 -22.0008 -4.17435
16.5599 21.4667 -1.4069
-27.8785 -22.0008 1.52169
16.5599 21.4667 1.52169
16.6793 21.5499 -1.4069
14.5122 24.4423 -1.4069
14.6177 24.516 -1.4069
-25.7813 -8.01565 1.52169
36.1074 1.12068 1.52169
-8.94799 -32.0141 1.52169
19.5326 15.2977 -4.17435
19.5326 15.2977 -7.41226
16.6079 -2.40918 -1.4069
33.2736 -2.32423 1.52169
33.6924 -2.92672 1.52169
25.2811 3.01585 1.58119
-19.7432 -16.2647 -1.4069
-19.9118 -16.3835 -1.4069
25.2811 3.01585 -1.4069
-21.8031 -13.3858 1.52169
-21.8031 -13.3858 -1.4069
37.3347 11.462 -7.41226
-25.7813 -8.01565 -1.4069
7.34564 30.012 -7.41226
34.2835 9.53374 1.39763
-27.8095 -5.12403 -1.4069
-21.9453 -13.4844 -7.41226
-27.3894 -21.6559 -7.41226
-21.9453 -13.4844 -1.4069
2.34288 -24.0745 0.175674
2.34288 -24.0745 -1.4069
-19.2031 -32.1406 -7.41226
-3.10838 -27.9077 -7.41226
22.3651 1.04318 1.52169
-40.3127 -3.21963 -7.41226
22.1571 1.34029 1.14151
21.104 29.0474 4.14867
10.7232 -18.1815 1.52169
-9.6986 -30.944 1.52169
21.8325 29.5563 3.29735
15.5392 25.1597 4.14867
26.8481 -5.36095 1.52169
38.016 7.89958 -7.41226
27.3694 -6.10573 1.52169
34.078 13.5277 1.52169
-39.4727 -5.43037 2.44517
34.078 13.5277 2.4721
-20.2636 -32.8841 1.52169
-6.01784 -29.9536 -1.4069
16.6793 21.5499 -4.17435
16.5599 21.4667 -4.17435
-27.3894 -21.6559 3.01899
-27.3894 -21.6559 4.14867
21.912 1.69044 -7.41226
-29.4614 -18.7 1.52169
22.3585 -10.6542 1.52169
-29.9506 -19.0394 1.52169
22.4242 -10.7484 1.52169
30.8546 -4.89653 1.52169
-0.174018 -14.316 1.15734
14.5122 24.4423 -4.17435
14.6177 24.516 -4.17435
-31.6258 0.316682 -7.41226
27.9641 4.89459 -1.4069
14.0105 -4.80728 1.52169
29.9095 18.4188 -7.41226
30.4129 18.7659 -4.17435
-21.6803 -29.8005 1.52169
30.4129 18.7659 -7.41226
16.1698 -1.78106 -4.17435
21.4864 16.6534 4.14867
34.0611 10.4952 4.14867
24.4387 4.21173 -1.4069
-12.4609 -34.4844 1.52169
22.2788 13.1562 -1.4069
22.4375 13.2656 -1.4069
16.6793 21.5499 -7.41226
5.25737 -22.025 -1.4069
-29.4614 -18.7 3.0165
21.9307 29.9376 3.01117
18.4817 -11.2175 1.52169
24.6534 26.9974 2.4856
-2.81614 -16.6779 1.52169
-2.81614 -16.6779 -1.4069
-2.81614 -16.6779 1.59671
16.9149 -2.84933 1.52169
21.5915 2.14828 -1.4069
25.0733 3.31075 -7.41226
25.0734 3.31074 -4.17435
33.57 13.1343 4.14867
21.912 1.69044 -4.17435
34.078 13.5277 4.14867
27.5431 -6.35385 -1.4069
22.0522 -10.215 0.229797
21.9218 -10.0282 1.52169
30.4442 -4.31387 0.252842
-19.5336 -16.1168 -1.4069
13.8557 -15.9788 -4.17435
26.0572 8.05793 1.52169
-2.81614 -16.6779 -4.17435
10.0017 -17.1536 1.52169
13.8557 -15.9788 -7.41226
3.37811 -7.71868 -7.41226
15.5978 20.7969 -4.17435
27.5431 -6.35385 -7.41226
0.0665913 -14.6575 -4.17435
4.92893 -9.92775 -4.17435
-3.10838 -27.9077 -1.4069
10.6813 -18.1217 1.52169
0.0665913 -14.6575 -1.4069
-3.10838 -27.9077 0.160704
13.3335 -3.83663 -4.17435
-2.84285 -28.2871 -1.4069
3.37811 -7.71868 -4.17435
22.1571 1.34033 -7.41226
27.988 5.28009 1.26466
14.6177 24.516 -7.41226
-6.75948 -28.8866 1.52169
-6.01784 -29.9536 1.52169
33.6924 -2.92672 -4.17435
-6.01784 -29.9536 0.152715
-11.8145 -21.6134 -7.41226
10.4593 -19.0536 -4.17435
33.5651 -2.74363 -7.41226
40.2891 2.3906 -1.4069
18.3478 35.11 -4.17435
-8.10223 -33.2199 -1.4069
-40.3127 -3.21963 1.52169
-13.3728 -19.3714 -4.17435
14.7793 0.212525 -4.17435
2.34288 -24.0745 1.52169
-23.4922 -6.42179 -4.17435
1.61194 -23.0265 1.52169
5.25737 -22.025 0.183677
36.8672 0.0156199 -1.4069
37.2109 -0.484381 -1.4069
36.8672 0.0156199 0.108989
22.3892 30.2335 2.48884
27.9641 4.89459 1.52169
29.9095 18.4188 4.14867
17.1457 36.8455 1.52169
35.4802 11.5237 -4.17435
30.1536 1.71302 5.62984
21.5915 2.14828 -7.41226
28.5728 6.51768 4.14867
-21.5924 -13.2395 -7.41226
-2.81614 -16.6779 -7.41226
0.0665913 -14.6575 -7.41226
-32.8133 2.00963 -7.41226
-0.0426905 -14.5024 -7.41226
24.6535 26.9973 4.14867
-14.139 -24.6135 -7.41226
33.5069 13.2402 -7.41226
-19.7642 -32.534 1.52169
31.2032 17.6364 -7.41226
-13.218 -33.4076 1.52169
8.23031 -8.22513 0.980813
-39.4727 -5.43037 1.52169
-39.0014 -5.09038 3.00507
-20.8994 -27.7519 0.232111
5.46547 -10.692 -1.4069
-20.1835 -28.7524 1.52169
5.24998 -10.3851 -1.4069
-20.8994 -27.7519 1.52169
5.24998 -10.3851 1.04341
5.46547 -10.692 1.43657
30.4129 18.7659 2.47735
-38.0386 -4.39593 4.14867
17.3533 34.4176 4.14867
-27.8095 -5.12403 -4.17435
33.57 13.1343 1.52169
-18.7703 -15.5786 -4.17435
20.3939 15.8953 1.52169
10.6813 -18.1217 0.275597
27.5431 -6.35385 -4.17435
5.55095 -10.8138 -4.17435
-12.7123 -34.6611 -1.34878
-2.937 -16.5046 -7.41226
-30.0547 -18.8906 -7.41226
-13.6379 -33.3675 1.52169
37.2393 0.273928 -1.4069
36.3504 1.56579 1.52169
0.0665913 -14.6575 1.52169
0.0665913 -14.6575 1.59527
0.0261659 -14.6001 1.52169
-0.0426905 -14.5024 1.39637
16.8783 -2.79693 1.51987
-2.937 -16.5046 1.37524
-22.9254 -14.1646 4.14867
5.51212 -10.7585 1.52169
5.55095 -10.8138 1.52169
-24.2025 -27.2545 -7.41226
5.55095 -10.8138 -1.4069
5.55095 -10.8138 1.59253
5.55991 -22.4544 -0.369691
22.3992 0.994418 -1.4069
5.55991 -22.4544 1.52169
5.25737 -22.025 1.52169
25.4679 3.14511 1.58256
-33.6406 -13.7656 2.44378
-33.1596 -13.4242 1.52169
-13.3784 -33.1795 1.52169
-33.6406 -13.7656 1.52169
28.1604 5.03213 -1.4069
-33.1596 -13.4242 3.01207
22.4242 -10.7484 -4.17435
-8.58568 -20.4122 -1.4069
-27.8785 -22.0008 2.4424
16.6079 -2.40917 -4.17435
-16.7625 -35.6321 1.52169
24.7605 3.75484 -4.17435
25.0734 3.31073 -1.4069
-11.8145 -21.6135 -1.4069
-8.89512 -19.6409 -1.4069
-6.01784 -29.9536 -4.17435
22.4242 -10.7484 -7.41226
22.3585 -10.6542 -4.17435
-22.4038 -28.7684 1.52169
-15.8828 -36.8906 -1.4069
22.3585 -10.6542 -7.41226
-19.2031 -32.1406 -1.4069
21.6769 29.7739 -7.41226
35.4802 11.5237 -7.41226
30.7419 -4.73651 -4.17435
-12.4609 -34.4844 -1.4069
30.7419 -4.73651 -7.41226
-8.58568 -20.4122 -4.17435
-33.1596 -13.4242 4.14867
25.4679 3.14511 -7.41226
-32.1975 -12.7415 4.14867
24.186 26.6817 -7.41226
-8.58568 -20.4122 -7.41226
13.7883 -15.8846 1.52169
13.1296 -14.964 1.52169
34.0263 13.6016 -4.17435
22.4375 13.2656 -4.17435
16.8783 -2.79693 -4.17435
35.4802 11.5237 -1.4069
27.988 5.2801 -1.4069
15.5978 20.7969 -7.41226
-14.2211 -24.4964 -4.17435
33.5069 13.2402 -4.17435
13.497 23.733 -7.41226
13.497 23.733 -4.17435
28.001 21.174 -7.41226
20.5395 15.9963 -7.41226
8.23031 -8.22513 -1.4069
-11.1738 -22.5354 -4.17435
30.4129 18.7659 4.14867
-17.3034 -20.1021 -4.17435
20.3939 15.8953 -1.4069
-3.27051 -28.0217 -1.4069
20.5395 15.9963 -4.17435
-25.4802 -7.80603 -4.17435
34.9895 11.1681 1.52169
-25.4802 -7.80603 -1.4069
28.128 5.07876 1.52169
36.0414 10.7216 1.52169
-27.536 -4.93294 -1.4069
29.9095 18.4188 1.52169
-18.7703 -15.5786 -1.4069
-20.7717 -12.67 -4.17435
-20.7717 -12.67 -1.4069
-8.70705 -32.3576 -7.41226
-21.5924 -13.2395 -1.4069
-21.5924 -13.2395 -4.17435
-21.8031 -13.3858 -4.17435
30.4442 -4.31387 -7.41226
9.59839 31.5828 -1.4069
21.3506 -9.20921 1.52169
26.0572 8.05793 -1.4069
26.0572 8.05793 -2.28169
15.5978 20.7969 -1.4069
13.497 23.733 -1.4069
33.976 12.5845 -1.4069
-39.4727 -5.43037 4.14867
-12.4609 -34.4844 -7.41226
-25.7813 -8.01565 -7.41226
20.1719 11.7031 -7.41226
28.001 21.174 1.52169
-9.89924 -30.6579 1.52169
16.4895 -2.23944 -4.17435
-21.9453 -13.4844 -4.17435
35.0617 9.86895 1.52169
21.9307 29.9376 1.52169
34.9895 11.1681 -4.17435
-32.8133 2.00963 -1.4069
-16.3589 -21.4486 -1.4069
-14.139 -24.6135 -4.17435
26.0572 8.05793 -7.41226
-6.22059 -30.0962 -4.17435
1.36599 -23.1987 1.52169
-30.2787 3.43984 -4.17435
-16.3589 -21.4486 1.52169
-39.0014 -5.09038 1.52169
-16.3589 -21.4486 -2.45018
14.0469 -4.85937 1.58827
-33.6406 -13.7656 4.14867
25.2819 3.01472 1.58265
13.8557 -15.9788 -1.4069
13.8557 -15.9788 0.207289
-8.28583 -20.5113 -4.17435
30.8546 -4.89653 -4.17435
-8.43041 -20.3048 -4.17435
-6.01784 -29.9536 -7.41226
-27.3894 -21.6559 1.52169
18.3478 35.11 1.52169
29.9095 18.4188 -1.4069
18.7709 35.4046 2.49402
5.46547 -10.692 -7.41226
-20.137 -28.8173 1.52169
21.912 1.69044 -1.4069
29.9095 18.4188 3.06304
37.2109 -0.484381 1.52169
-11.9354 -27.7551 5.62511
36.8672 0.0156199 1.52169
-14.139 -24.6135 1.60238
22.0522 -10.215 -7.41226
5.24998 -10.3851 -4.17435
28.001 21.174 3.05063
13.8557 -15.9788 1.52169
-3.35868 -15.9 -7.41226
-3.35867 -15.9001 -4.17435
17.1457 36.8455 -4.17435
-14.8192 -23.6437 1.52169
13.3335 -3.83663 -1.4069
30.7419 -4.73651 -1.4069
-12.4609 -34.4844 -1.3609
-25.4802 -7.80603 -7.41226
-25.7813 -8.01565 -4.17435
-23.3485 -31.0681 1.52169
22.3892 30.2335 -1.4069
27.5431 -6.35385 0.244876
-25.2925 -25.6967 -4.17435
10.4593 -19.0536 -1.4069
-8.60142 -32.5082 -1.4069
33.5781 13.1406 -4.17435
-8.70705 -32.3576 -1.4069
33.4583 -3.08924 -1.4069
33.4583 -3.08924 -0.511178
33.6924 -2.92672 -1.4069
14.0469 -4.85937 -1.4069
14.0469 -4.85937 -4.17435
13.9981 -4.7894 -4.17435
16.8783 -2.79693 -1.4069
16.9149 -2.84933 -1.4069
27.6119 5.8213 -1.4069
2.34288 -24.0745 -4.17435
5.25737 -22.025 -4.17435
5.55991 -22.4544 -4.17435
-30.2787 3.43984 -7.41226
-39.4727 -5.43037 -4.17435
-8.43041 -20.3048 -1.4069
25.2811 3.01585 -4.17435
-8.43041 -20.3048 1.33515
-20.8994 -27.7519 -1.4069
-20.137 -28.8173 -1.4069
-20.137 -28.8173 1.60538
-14.8193 -23.6437 -1.4069
-14.2211 -24.4964 -1.4069
-14.139 -24.6135 -1.4069
38.016 7.89958 -1.4069
-14.8193 -23.6437 -7.41226
-22.4038 -28.7684 -7.41226
13.9981 -4.7894 -7.41226
-39.4727 -5.43037 -7.41226
-39.0014 -5.09038 -4.17435
-39.0014 -5.09038 -7.41226
13.7056 -4.37013 -7.41226
-12.1094 -34.9844 -7.41226
-12.2346 -34.8062 -7.41226
10.7232 -18.1815 -7.41226
-35.7874 -10.6974 1.52169
-35.3065 -10.3615 3.0095
10.7232 -18.1815 -4.17435
-35.3065 -10.3615 1.52169
-35.7874 -10.6974 2.44429
-35.3065 -10.3615 4.14867
-35.7874 -10.6974 4.14867
33.6924 -2.92672 -7.41226
30.4129 18.7659 -1.4069
27.6119 5.8213 3.00728
19.1875 -12.2295 -1.4069
16.1698 -1.78106 -7.41226
16.1698 -1.78106 -1.4069
16.4895 -2.23944 -7.41226
29.9095 18.4188 -4.17435
-27.8095 -5.12403 -7.41226
16.145 36.1477 4.14867
-19.7028 -11.9283 -4.17435
-13.6379 -33.3675 -1.4069
14.0469 -4.85937 -7.41226
16.8783 -2.79693 -7.41226
16.9149 -2.84933 -7.41226
5.10634 -10.1804 -7.41226
21.9307 29.9376 -1.4069
-35.7874 -10.6974 -7.41226
22.3892 30.2335 -4.17435
24.186 26.6816 1.52169
27.6119 5.8213 1.52169
35.4802 11.5237 1.52169
2.34288 -24.0745 -7.41226
-2.85708 -16.6192 1.52169
5.25737 -22.025 -7.41226
5.55991 -22.4544 -7.41226
33.2736 -2.32423 -7.41226
34.9895 11.1681 -1.4069
-8.28583 -20.5113 -1.4069
27.8869 21.0948 3.18375
16.7931 36.5996 3.39191
-14.8193 -23.6437 -4.17435
-19.7642 -32.534 -7.41226
-34.3372 -9.68433 4.14867
19.1875 -12.2295 -4.17435
27.6119 5.8213 -4.17435
24.6534 26.9974 -1.4069
22.2788 13.1562 -7.41226
7.91139 -7.76624 -7.41226
22.3992 0.994418 1.52169
16.4895 -2.23944 -1.4069
-3.10838 -27.9077 1.52169
8.49044 -8.59943 -7.41226
5.24998 -10.3851 -7.41226
5.46547 -10.692 -4.17435
-23.7049 -26.9123 -7.41226
-24.2025 -27.2545 -2.18124
-22.9059 -29.1076 -7.41226
-39.3377 -2.53978 4.14867
-22.4038 -28.7684 0.200336
5.10634 -10.1805 -4.17435
22.0522 -10.215 -4.17435
25.4679 3.14511 1.52169
-12.4609 -34.4844 0.135021
-15.8828 -36.8906 -1.196
-14.9511 -34.3193 -1.4069
-16.7625 -35.6321 -1.31622
-8.58568 -20.4122 1.33401
-16.7625 -35.6321 -1.4069
-2.84285 -28.2871 -4.17435
-19.2031 -32.1406 1.52169
30.4442 -4.31387 -4.17435
-12.269 -27.2795 1.52169
-23.7049 -26.9123 1.52169
-29.9506 -19.0394 -4.17435
-8.89513 -19.6409 -4.17435
-8.43279 -20.3014 -4.17435
25.4679 3.14511 -4.17435
34.9895 11.1681 -7.41226
30.7419 -4.73651 1.52169
34.0263 13.6016 -7.41226
11.9043 -1.78752 -7.41226
-19.7432 -16.2647 -4.17435
26.5335 7.37271 -1.4069
4.92893 -9.92775 -7.41226
13.9981 -4.7894 1.49884
14.0469 -4.85937 1.52169
18.3478 35.11 4.14867
13.9981 -4.7894 -1.4069
25.4679 3.14511 -1.4069
27.9641 4.89459 -4.17435
-8.60142 -32.5082 -7.41226
-8.60142 -32.5082 -4.17435
22.3892 30.2335 -7.41226
21.9307 29.9376 -4.17435
24.7605 3.75484 -1.4069
-24.2025 -27.2545 2.44152
32.5904 -1.34128 1.52169
24.6534 26.9974 -4.17435
33.4583 -3.08924 -4.17435
-28.496 -18.0301 4.14867
19.0796 -12.0747 0.42071
-8.32836 -20.4506 1.52169
16.9149 -2.84933 1.58684
16.8793 -2.79836 1.52169
-2.125 -11.5469 -4.17435
24.4387 4.21173 -4.17435
16.5599 21.4667 -7.41226
-15.7874 -22.2634 -1.4069
36.9688 7.14066 -1.4069
-16.3589 -21.4486 -4.17435
37.3347 11.462 1.52169
-23.4922 -6.42179 -7.41226
39.2109 8.76563 -1.4069
-35.7874 -10.6974 -4.17435
39.2109 8.76563 1.52169
20.1719 11.7031 -4.17435
-25.4971 -3.50853 -4.17435
36.1194 10.6102 -7.41226
33.5651 -2.74363 1.52169
-29.5469 -18.5781 -4.17435
-30.0547 -18.8906 -4.17435
-13.1466 -34.0541 -1.4069
-15.8828 -36.8906 -7.41226
-14.8192 -23.6437 0.36053
-29.5469 -18.5781 -7.41226
-33.1596 -13.4242 -7.41226
-11.8145 -21.6135 -4.17435
28.1604 5.03213 1.52169
-22.9059 -29.1077 1.52169
-11.2882 -22.3708 -1.4069
-8.43279 -20.3014 -1.4069
28.1604 5.03213 -4.17435
18.7709 35.4046 4.14867
27.988 5.28012 -7.41226
36.0414 10.7216 -7.41226
17.1457 36.8455 -7.41226
-8.28583 -20.5113 1.52169
27.9641 4.89459 1.58131
-8.43041 -20.3048 -7.41226
-8.94799 -32.0141 -7.41226
25.2819 3.01472 -7.41226
30.4442 -4.31387 -1.4069
36.8672 0.0156199 -7.41226
-22.1312 -30.2149 1.52169
-29.9506 -19.0394 2.44289
37.2109 -0.484381 -4.17435
36.3504 1.56579 -1.4069
10.7232 -18.1815 -1.4069
18.7709 35.4046 1.52169
30.4129 18.7659 1.52169
-17.7068 -14.8288 -7.41226
14.1777 -16.4288 1.52169
21.9218 -10.0282 0.469822
33.7544 10.273 -1.4069
22.0522 -10.215 -1.4069
17.1457 36.8455 2.98007
27.0593 20.5205 4.14867
-24.1397 -29.9412 -7.41226
-33.1596 -13.4242 -4.17435
-23.3485 -31.0681 -7.41226
18.7709 35.4046 -4.17435
18.7709 35.4046 -1.4069
23.1527 6.0374 -7.41226
-21.6341 -29.8665 -7.41226
34.2835 9.53375 -1.4069
-21.6341 -29.8665 1.60613
18.3478 35.11 -1.4069
-2.66495 -15.4313 -4.17435
24.4387 4.21173 -7.41226
-26.5721 -22.822 -7.41226
-10.4884 -17.3648 -7.41226
-33.6406 -13.7656 -7.41226
35.9784 1.30837 1.52169
34.9512 11.1403 1.52169
-22.1312 -30.2149 1.60638
-14.8192 -23.6437 2.9876
13.3532 34.201 7.40881
39.3938 3.67143 1.52169
-27.0633 -23.166 -7.41226
32.447 -1.13495 1.52169
39.3938 3.67143 -1.4069
-22.1775 -30.1487 1.52169
36.9688 7.14066 1.52169
30.1365 2.18906 1.52169
20.2719 4.03341 -7.41226
36.1194 10.6102 1.57723
20.2719 4.03341 -4.17435
37.2109 -0.484381 -7.41226
28.1604 5.03213 -7.41226
18.3478 35.11 -7.41226
18.7709 35.4046 -7.41226
30.2017 -4.48435 0.252176
5.55095 -10.8138 -7.41226
-21.0694 -29.4708 -7.41226
22.0522 -10.215 1.52169
-2.84285 -28.2871 -0.327076
28.1604 5.03213 1.58121
27.6119 5.8213 -7.41226
29.7506 -3.32919 1.52169
32.8289 -2.17472 1.52169
16.6079 -2.40916 -7.41226
33.0433 -2.48619 1.52169
10.4593 -19.0536 -0.394538
10.4593 -19.0536 1.52169
16.6079 -2.40919 1.0243
-29.4614 -18.7 -4.17435
24.186 26.6816 -4.17435
-8.28583 -20.5113 1.59945
33.6924 -2.92672 -0.512365
8.55205 28.2899 -7.41226
30.8546 -4.89653 -7.41226
33.4583 -3.08924 -7.41226
38.016 7.89958 1.52169
8.55205 28.2899 -4.17435
-21.4373 -28.1153 4.14867
16.9149 -2.84933 -4.17435
17.1457 36.8455 -1.4069
-3.10838 -27.9077 -4.17435
-2.84285 -28.2871 1.52169
-14.139 -24.6135 1.52169
30.4442 -4.31387 1.52169
-31.4032 0.471703 -7.41226
-29.262 1.96244 -7.41226
-3.84923 -26.8494 1.52169
-20.2636 -32.8841 -7.41226
-21.4766 -33.7344 1.52169
25.2484 3.06226 1.52169
25.0268 9.54045 -4.17435
25.0734 3.31072 1.2031
5.38125 -21.9379 1.52169
37.3347 11.462 1.57662
-29.262 1.96244 -4.17435
-22.1312 -30.2149 -7.41226
-27.8785 -22.0008 -7.41226
-27.3894 -21.6559 -4.17435
-27.8785 -22.0008 4.14867
36.6845 12.3965 -7.41226
9.67066 31.6332 -4.17435
20.5395 15.9963 -1.4069
-17.7068 -14.8288 -4.17435
-35.3065 -10.3615 -7.41226
25.2811 3.01585 -7.41226
-33.6406 -13.7656 -4.17435
-10.4884 -17.3648 -4.17435
-35.3065 -10.3615 -4.17435
13.7057 -4.37016 0.963004
28.001 21.174 -4.17435
28.001 21.174 -1.4069
26.0572 8.05793 -4.17435
36.9688 7.14066 -7.41226
-8.43279 -20.3014 -7.41226
27.988 5.28011 -4.17435
36.1194 10.6102 1.52169
-21.6341 -29.8665 1.52169
-8.89514 -19.6409 -7.41226
-23.3485 -31.0681 1.60699
12.3203 22.911 -7.41226
-8.28583 -20.5113 -7.41226
34.8385 11.303 3.09508
36.089 10.6536 1.52169
30.2469 -4.03385 0.613671
-21.4766 -33.7344 -7.41226
37.2394 0.273928 1.52169
32.974 15.1056 -4.17435
-22.4038 -28.7684 3.02497
30.697 17.2819 -7.41226
6.41173 -5.60836 -7.41226
40.2891 2.3906 -7.41226
6.41173 -5.60836 -4.17435
-2.125 -11.5469 -7.41226
24.6534 26.9975 -7.41226
39.2109 8.76563 -7.41226
-4.99999 -13.5469 -7.41226
-4.99999 -13.5469 -4.17435
9.67066 31.6332 -7.41226
31.3111 8.50224 7.40138
27.9641 4.89459 -7.41226
-2.66454 -15.431 -7.41226
-2.84285 -28.2871 -7.41226
27.6119 5.8213 0.573725
12.3203 22.911 -4.17435
-19.0771 -17.5735 -7.41226
33.346 -2.4283 -7.41226
14.7793 0.212525 -7.41226
8.5625 -8.70312 1.52169
-8.70705 -32.3576 -4.17435
24.7605 3.75484 -7.41226
14.3903 19.9561 -7.41226
18.2683 14.4203 -4.17435
-40.3127 -3.21963 3.00349
23.1527 6.0374 -4.17435
7.34564 30.012 -4.17435
19.1875 -12.2295 -7.41226
34.9512 11.1403 0.419571
34.9512 11.1403 3.09581
14.3903 19.9561 -4.17435
35.0617 9.86895 -7.41226
-18.6333 -26.2208 7.40858
23.2639 12.0767 -7.41226
-32.8133 2.00963 3.02579
-32.8133 2.00963 1.52169
-21.0694 -29.4708 1.52169
-36.5591 -0.602296 7.41226
-14.2211 -24.4964 -7.41226
-16.3589 -21.4486 -7.41226
17  683 47 243 944 451 550 560 318 663 839 126 665 565 46 874 509 681  255 0 0
7  1018 906 791 730 93 729 1041  255 0 0
15  1018 364 393 644 754 429 130 515 401 734 977 862 861 394 906  255 0 0
4  1018 616 362 364  255 0 0
5  7 169 352 493 3  255 0 0
19  681 509 366 229 935 408 152 636 447 600 467 131 328 499 658 960 484 134 405  255 0 0
4  630 253 252 876  255 0 0
4  630 737 736 827  255 0 0
4  518 283 614 655  255 0 0
7  518 92 930 398 859 643 876  255 0 0
31  518 876 252 671 399 348 768 770 225 738 468 208 1029 684 269 471 634 772 925 1013 595 877 142 760 758 329 929 514 513 994 283  255 0 0
4  630 876 643 737  255 0 0
4  630 1022 248 253  255 0 0
5  683 956 241 243 47  255 0 0
6  683 681 405 647 808 956  255 0 0
4  933 60 61 864  255 0 0
8  1035 94 1002 432 611 359 612 236  255 0 0
4  933 623 62 60  255 0 0
4  1035 236 602 964  255 0 0
3  623 482 291  255 0 0
8  623 291 284 288 624 996 65 62  255 0 0
11  1011 233 483 443 612 359 69 133 588 235 255  255 0 0
4  48 230 227 226  255 0 0
4  1011 255 228 974  255 0 0
4  996 176 967 922  255 0 0
5  521 1002 94 519 816  255 0 0
4  521 435 432 1002  255 0 0
5  996 624 767 174 176  255 0 0
4  521 1000 433 435  255 0 0
5  518 1040 729 93 92  255 0 0
4  518 655 607 1040  255 0 0
4  1018 1041 846 616  255 0 0
6  48 226 776 755 305 44  255 0 0
4  515 130 127 144  255 0 0
4  1037 220 9 1036  255 0 0
4  1037 653 166 220  255 0 0
5  1037 494 145 144 653  255 0 0
4  515 144 145 401  255 0 0
4  918 150 149 865  255 0 0
4  918 434 902 911  255 0 0
4  915 906 394 970  255 0 0
4  918 865 584 434  255 0 0
4  915 970 367 700  255 0 0
6  1037 1036 114 794 1026 494  255 0 0
4  911 902 990 880  255 0 0
4  911 992 150 918  255 0 0
4  922 63 65 996  255 0 0
4  922 967 847 989  255 0 0
5  44 305 407 23 11  255 0 0
3  913 305 755  255 0 0
6  913 1012 511 437 407 305  255 0 0
13  913 755 535 264 403 266 183 893 345 343 347 438 1012  255 0 0
5  925 1033 854 871 870  255 0 0
4  925 868 826 1013  255 0 0
4  1035 656 519 94  255 0 0
6  623 933 864 570 605 482  255 0 0
4  1035 964 985 656  255 0 0
4  925 870 988 868  255 0 0
6  1036 9 14 111 110 114  255 0 0
6  1039 114 110 555 115 1034  255 0 0
3  1039 794 114  255 0 0
12  1039 1034 951 206 360 289 836 249 596 779 534 794  255 0 0
4  956 727 242 241  255 0 0
4  956 677 723 727  255 0 0
4  405 522 568 647  255 0 0
5  956 808 806 1038 677  255 0 0
4  880 990 520 414  255 0 0
4  880 697 992 911  255 0 0
4  969 896 998 961  255 0 0
4  969 900 730 793  255 0 0
4  969 961 778 900  255 0 0
4  880 414 962 697  255 0 0
5  934 870 871 589 814  255 0 0
4  934 656 985 781  255 0 0
6  1016 819 638 637 465 766  255 0 0
4  1040 607 777 729  255 0 0
4  934 781 988 870  255 0 0
3  1016 713 819  255 0 0
4  1011 263 234 233  255 0 0
4  48 42 635 230  255 0 0
4  1011 974 260 263  255 0 0
4  906 915 558 791  255 0 0
4  434 528 724 902  255 0 0
4  434 584 530 528  255 0 0
4  494 661 733 145  255 0 0
4  401 145 733 734  255 0 0
5  766 465 29 31 748  255 0 0
6  691 660 654 662 844 860  255 0 0
3  860 844 725  255 0 0
5  854 388 973 589 871  255 0 0
4  854 1033 986 409  255 0 0
4  922 989 64 63  255 0 0
4  521 816 601 1000  255 0 0
5  900 930 92 93 730  255 0 0
4  990 1038 806 520  255 0 0
4  900 778 398 930  255 0 0
4  969 793 894 896  255 0 0
4  915 700 792 558  255 0 0
5  1038 990 902 724 677  255 0 0
4  859 585 591 643  255 0 0
5  859 398 587 804 585  255 0 0
5  746 924 879 1019 490  255 0 0
4  746 948 835 486  255 0 0
4  945 330 502 707  255 0 0
5  746 490 592 947 948  255 0 0
7  925 772 1019 879 1004 986 1033  255 0 0
4  945 707 705 706  255 0 0
4  746 486 882 924  255 0 0
4  989 847 851 949  255 0 0
5  864 61 650 919 920  255 0 0
4  833 916 909 375  255 0 0
4  854 409 1008 388  255 0 0
5  989 949 919 650 64  255 0 0
5  1019 772 634 592 490  255 0 0
4  729 777 846 1041  255 0 0
4  781 713 605 988  255 0 0
5  616 662 654 384 362  255 0 0
5  777 725 844 662 846  255 0 0
6  964 638 819 713 781 985  255 0 0
3  616 846 662  255 0 0
6  864 505 430 826 868 570  255 0 0
6  833 366 505 864 920 916  255 0 0
4  767 624 288 621  255 0 0
4  767 621 365 346  255 0 0
4  766 286 285 1016  255 0 0
4  872 255 235 926  255 0 0
4  507 226 227 953  255 0 0
4  1030 365 621 910  255 0 0
5  910 621 288 284 286  255 0 0
4  872 690 228 255  255 0 0
4  1030 287 641 365  255 0 0
5  910 537 212 287 1030  255 0 0
4  872 926 492 690  255 0 0
4  507 953 903 673  255 0 0
4  1023 420 481 454  255 0 0
4  899 921 510 905  255 0 0
4  1027 923 921 899  255 0 0
4  1023 905 510 420  255 0 0
4  1027 842 344 923  255 0 0
4  1027 899 905 842  255 0 0
4  577 842 905 1023  255 0 0
4  907 327 488 991  255 0 0
4  980 495 327 907  255 0 0
5  991 488 279 598 987  255 0 0
4  811 863 495 980  255 0 0
4  980 907 991 811  255 0 0
3  1014 155 154  255 0 0
5  1014 688 332 335 155  255 0 0
5  904 689 1010 841 157  255 0 0
3  904 157 156  255 0 0
5  1014 154 1006 1009 688  255 0 0
4  1020 817 294 750  255 0 0
4  496 296 817 1020  255 0 0
4  750 294 221 752  255 0 0
4  436 478 296 496  255 0 0
4  496 1020 750 436  255 0 0
4  1026 794 534 525  255 0 0
4  1026 525 661 494  255 0 0
4  296 478 294 817  255 0 0
4  974 230 635 260  255 0 0
5  964 602 442 637 638  255 0 0
4  144 127 166 653  255 0 0
4  263 390 946 234  255 0 0
4  260 1028 390 263  255 0 0
4  260 224 950 1028  255 0 0
4  847 66 849 851  255 0 0
4  388 1008 849 66  255 0 0
4  512 361 887 350  255 0 0
4  350 887 976 756  255 0 0
4  756 976 538 628  255 0 0
5  756 628 632 512 350  255 0 0
5  748 31 45 437 511  255 0 0
7  748 511 438 1031 910 286 766  255 0 0
3  1012 438 511  255 0 0
4  892 776 226 507  255 0 0
4  1031 438 347 995  255 0 0
4  892 339 337 776  255 0 0
5  1031 995 341 537 910  255 0 0
4  507 673 339 892  255 0 0
4  607 726 725 777  255 0 0
4  988 605 570 868  255 0 0
4  655 727 726 607  255 0 0
4  655 614 242 727  255 0 0
4  346 604 67 175  255 0 0
5  589 973 67 604 508  255 0 0
5  912 27 26 660 691  255 0 0
4  584 83 84 1001  255 0 0
4  1001 84 206 951  255 0 0
5  912 115 555 113 27  255 0 0
7  584 1001 951 115 912 691 530  255 0 0
3  1034 115 951  255 0 0
5  795 304 809 83 584  255 0 0
4  865 151 795 584  255 0 0
5  650 61 60 63 64  255 0 0
5  1004 879 501 547 491  255 0 0
5  1004 491 917 845 986  255 0 0
4  491 547 883 917  255 0 0
5  700 367 369 307 792  255 0 0
4  486 707 502 882  255 0 0
5  1022 246 704 351 248  255 0 0
4  486 835 705 707  255 0 0
4  469 1003 1005 480  255 0 0
4  480 1005 250 473  255 0 0
4  820 784 1003 469  255 0 0
4  473 250 109 796  255 0 0
4  480 473 820 469  255 0 0
5  1000 209 213 747 433  255 0 0
4  690 953 227 228  255 0 0
4  690 492 903 953  255 0 0
4  505 798 825 430  255 0 0
5  874 46 565 798 505  255 0 0
4  826 813 595 1013  255 0 0
4  826 430 825 813  255 0 0
4  423 75 74 881  255 0 0
4  421 672 971 942  255 0 0
6  810 857 979 569 75 423  255 0 0
4  942 856 857 810  255 0 0
5  942 971 394 861 856  255 0 0
4  423 421 942 810  255 0 0
4  287 211 210 641  255 0 0
3  287 212 211  255 0 0
4  1028 950 946 390  255 0 0
4  276 783 236 612  255 0 0
5  272 238 852 1025 377  255 0 0
5  270 645 783 276 378  255 0 0
4  1025 852 645 270  255 0 0
4  272 377 378 276  255 0 0
4  270 378 377 1025  255 0 0
4  993 1024 606 609  255 0 0
4  267 843 443 483  255 0 0
4  1017 1032 1024 993  255 0 0
4  267 609 606 843  255 0 0
4  1017 610 470 1032  255 0 0
4  427 610 609 267  255 0 0
4  993 609 610 1017  255 0 0
4  417 843 606 470  255 0 0
4  1032 470 606 1024  255 0 0
4  755 776 337 535  255 0 0
5  939 182 181 282 561  255 0 0
4  489 716 280 701  255 0 0
4  489 51 50 322  255 0 0
4  939 701 180 182  255 0 0
3  489 52 51  255 0 0
4  939 104 215 701  255 0 0
4  489 701 215 52  255 0 0
4  630 827 828 1022  255 0 0
4  704 246 247 702  255 0 0
4  1022 828 247 246  255 0 0
4  784 820 761 106  255 0 0
4  1005 1003 784 250  255 0 0
4  691 860 526 530  255 0 0
4  934 814 519 656  255 0 0
4  1016 285 890 713  255 0 0
4  346 365 773 604  255 0 0
4  589 508 652 814  255 0 0
4  508 604 773 652  255 0 0
4  1000 601 326 209  255 0 0
4  340 848 498 853  255 0 0
4  853 498 620 331  255 0 0
4  333 695 848 340  255 0 0
4  853 331 333 340  255 0 0
4  695 333 754 644  255 0 0
4  498 848 695 620  255 0 0
4  863 811 580 579  255 0 0
4  495 863 488 327  255 0 0
4  151 148 185 73  255 0 0
4  793 73 185 894  255 0 0
4  322 771 716 489  255 0 0
3  322 50 49  255 0 0
5  322 49 225 770 771  255 0 0
5  697 962 998 896 184  255 0 0
4  414 961 998 962  255 0 0
4  728 849 1008 409  255 0 0
5  807 541 459 177 878  255 0 0
4  634 471 541 807  255 0 0
4  807 590 592 634  255 0 0
4  399 671 581 954  255 0 0
5  954 581 415 618 474  255 0 0
4  1015 349 348 399  255 0 0
4  805 313 349 1015  255 0 0
4  954 805 1015 399  255 0 0
5  806 576 802 804 587  255 0 0
5  806 587 398 778 520  255 0 0
5  904 156 302 334 689  255 0 0
4  841 1010 1009 1006  255 0 0
4  841 1006 154 157  255 0 0
4  1010 689 688 1009  255 0 0
5  598 279 283 994 875  255 0 0
4  593 812 987 598  255 0 0
3  595 978 877  255 0 0
4  813 720 978 595  255 0 0
4  598 875 670 593  255 0 0
4  878 177 928 462  255 0 0
4  878 693 590 807  255 0 0
4  474 618 99 477  255 0 0
4  479 172 313 805  255 0 0
4  474 479 805 954  255 0 0
4  646 626 679 686  255 0 0
4  646 197 196 984  255 0 0
4  984 674 626 646  255 0 0
4  984 196 189 983  255 0 0
3  565 665 382  255 0 0
4  803 245 866 573  255 0 0
4  573 867 812 593  255 0 0
5  803 721 838 244 245  255 0 0
5  565 382 385 825 798  255 0 0
4  573 719 721 803  255 0 0
4  684 1029 780 797  255 0 0
4  586 162 269 684  255 0 0
4  797 780 749 891  255 0 0
4  797 583 586 684  255 0 0
4  1029 208 179 780  255 0 0
4  780 179 135 749  255 0 0
4  520 778 961 414  255 0 0
4  825 385 720 813  255 0 0
4  593 670 719 573  255 0 0
6  150 992 697 184 185 148  255 0 0
4  894 185 184 896  255 0 0
4  891 749 321 460  255 0 0
4  891 274 583 797  255 0 0
4  611 68 69 359  255 0 0
4  611 432 753 983  255 0 0
4  983 189 68 611  255 0 0
4  983 753 674 984  255 0 0
4  977 734 732 763  255 0 0
4  981 895 862 977  255 0 0
4  763 732 718 850  255 0 0
4  850 718 524 739  255 0 0
4  850 981 977 763  255 0 0
4  811 991 987 812  255 0 0
4  845 917 914 919  255 0 0
4  728 409 986 845  255 0 0
5  573 866 579 580 867  255 0 0
4  752 221 735 937  255 0 0
4  436 750 752 648  255 0 0
4  749 135 146 321  255 0 0
4  739 524 412 743  255 0 0
4  742 567 895 981  255 0 0
4  739 742 981 850  255 0 0
4  567 742 740 571  255 0 0
4  979 857 545 908  255 0 0
4  567 569 979 895  255 0 0
4  454 481 140 978  255 0 0
4  978 140 142 877  255 0 0
4  455 454 978 720  255 0 0
4  759 731 758 760  255 0 0
4  937 735 731 759  255 0 0
4  575 937 759 603  255 0 0
4  741 464 468 738  255 0 0
4  741 214 103 884  255 0 0
4  738 225 214 741  255 0 0
4  224 234 946 950  255 0 0
4  974 228 227 230  255 0 0
4  394 971 367 970  255 0 0
4  393 364 361 512  255 0 0
4  649 696 644 393  255 0 0
5  632 633 649 393 512  255 0 0
6  176 175 67 66 847 967  255 0 0
4  388 66 67 973  255 0 0
4  963 400 402 965  255 0 0
4  965 402 357 578  255 0 0
4  382 125 400 963  255 0 0
5  965 578 385 382 963  255 0 0
4  553 821 982 941  255 0 0
4  941 982 200 379  255 0 0
4  941 379 711 553  255 0 0
4  968 659 717 959  255 0 0
4  958 128 130 429  255 0 0
4  356 129 659 968  255 0 0
4  959 717 128 958  255 0 0
4  968 959 958 356  255 0 0
4  578 455 720 385  255 0 0
4  379 575 603 711  255 0 0
4  672 421 445 418  255 0 0
4  971 672 369 367  255 0 0
5  501 879 924 882 502  255 0 0
4  884 666 464 741  255 0 0
4  884 103 102 192  255 0 0
4  710 731 735 201  255 0 0
6  919 914 548 909 916 920  255 0 0
4  949 728 845 919  255 0 0
5  835 669 324 80 705  255 0 0
4  948 947 669 835  255 0 0
4  824 710 201 200  255 0 0
4  939 561 563 940  255 0 0
4  945 706 5 381  255 0 0
4  7 6 187 169  255 0 0
4  945 381 680 330  255 0 0
5  381 5 95 105 855  255 0 0
5  833 380 938 936 366  255 0 0
4  405 134 186 376  255 0 0
4  6 376 186 187  255 0 0
5  833 375 682 314 380  255 0 0
5  381 855 314 682 680  255 0 0
6  380 314 855 105 159 938  255 0 0
4  6 2 440 376  255 0 0
4  405 376 440 522  255 0 0
6  940 563 564 966 53 139  255 0 0
4  940 139 104 939  255 0 0
4  938 159 158 936  255 0 0
4  366 936 158 229  255 0 0
5  966 564 328 131 54  255 0 0
3  966 54 53  255 0 0
4  935 229 161 997  255 0 0
5  997 59 195 408 935  255 0 0
4  997 161 160 462  255 0 0
4  960 658 136 787  255 0 0
4  787 136 217 955  255 0 0
5  477 99 487 484 960  255 0 0
3  960 787 477  255 0 0
4  462 160 159 957  255 0 0
4  462 928 59 997  255 0 0
4  957 159 105 815  255 0 0
4  815 105 95 425  255 0 0
4  957 815 295 462  255 0 0
4  932 173 172 479  255 0 0
4  955 217 173 932  255 0 0
4  787 955 932 477  255 0 0
4  460 321 837 889  255 0 0
4  422 178 124 424  255 0 0
4  931 96 178 422  255 0 0
4  931 422 273 460  255 0 0
4  926 132 829 927  255 0 0
4  927 829 764 897  255 0 0
4  897 764 698 898  255 0 0
4  927 897 492 926  255 0 0
4  923 344 510 921  255 0 0
4  917 883 548 914  255 0 0
4  503 308 547 501  255 0 0
4  375 306 999 682  255 0 0
4  909 548 306 375  255 0 0
4  445 251 249 836  255 0 0
4  881 74 251 445  255 0 0
4  821 553 840 431  255 0 0
4  821 824 200 982  255 0 0
4  321 146 147 320  255 0 0
5  320 147 687 599 323  255 0 0
4  898 698 237 885  255 0 0
4  885 237 504 675  255 0 0
4  898 885 673 903  255 0 0
4  800 585 804 802  255 0 0
5  800 543 694 591 585  255 0 0
4  686 88 197 646  255 0 0
5  686 679 345 893 775  255 0 0
4  897 898 903 492  255 0 0
4  281 279 488 863  255 0 0
4  238 783 645 852  255 0 0
4  694 543 277 799  255 0 0
5  232 737 643 591 694  255 0 0
4  462 295 693 878  255 0 0
4  477 932 479 474  255 0 0
4  205 76 208 468  255 0 0
4  199 205 468 464  255 0 0
4  460 273 274 891  255 0 0
4  889 837 447 636  255 0 0
4  636 152 97 461  255 0 0
4  461 97 96 931  255 0 0
3  636 461 889  255 0 0
5  976 887 361 363 538  255 0 0
4  202 221 294 478  255 0 0
4  747 213 411 886  255 0 0
4  886 411 413 533  255 0 0
4  747 886 626 674  255 0 0
4  881 445 421 423  255 0 0
4  994 513 466 668  255 0 0
4  668 466 450 774  255 0 0
4  668 670 875 994  255 0 0
4  665 126 125 382  255 0 0
4  873 449 451 944  255 0 0
4  944 243 244 838  255 0 0
4  774 450 449 873  255 0 0
6  838 721 719 774 873 944  255 0 0
4  524 718 733 661  255 0 0
4  482 605 901 391  255 0 0
4  605 713 890 901  255 0 0
4  666 884 192 667  255 0 0
4  121 199 464 666  255 0 0
4  580 811 812 867  255 0 0
4  866 281 863 579  255 0 0
4  192 102 53 404  255 0 0
4  404 53 54 475  255 0 0
4  908 545 861 862  255 0 0
4  895 979 908 862  255 0 0
4  856 861 545 857  255 0 0
4  893 183 89 775  255 0 0
4  686 775 89 88  255 0 0
4  285 391 901 890  255 0 0
4  949 851 849 728  255 0 0
4  455 577 1023 454  255 0 0
4  831 678 453 439  255 0 0
4  831 439 842 577  255 0 0
4  439 453 344 842  255 0 0
4  478 436 751 692  255 0 0
4  786 203 692 751  255 0 0
4  751 436 648 786  255 0 0
4  774 719 670 668  255 0 0
4  712 562 785 452  255 0 0
4  452 785 126 839  255 0 0
4  839 663 431 840  255 0 0
6  840 553 711 712 452 839  255 0 0
4  575 648 752 937  255 0 0
4  323 599 600 447  255 0 0
3  323 447 837  255 0 0
4  836 289 418 445  255 0 0
4  796 109 108 685  255 0 0
4  473 796 761 820  255 0 0
4  307 369 574 832  255 0 0
5  304 795 72 730 791  255 0 0
4  809 304 792 307  255 0 0
5  641 210 703 652 773  255 0 0
4  943 830 132 597  255 0 0
4  597 68 216 1007  255 0 0
4  597 132 588 133  255 0 0
4  834 188 190 782  255 0 0
4  1007 216 188 834  255 0 0
4  943 597 1007 834  255 0 0
4  830 943 239 762  255 0 0
4  132 926 235 588  255 0 0
4  764 829 132 830  255 0 0
3  3 493 702  255 0 0
5  828 827 736 231 247  255 0 0
5  3 702 247 231 1  255 0 0
4  767 346 175 174  255 0 0
4  663 318 1021 822  255 0 0
4  708 312 311 709  255 0 0
4  822 1021 312 708  255 0 0
6  431 663 822 708 824 821  255 0 0
4  869 342 254 823  255 0 0
4  823 254 265 338  255 0 0
4  675 504 342 869  255 0 0
4  675 869 823 339  255 0 0
4  608 703 326 601  255 0 0
4  608 601 816 519  255 0 0
5  608 519 814 652 703  255 0 0
6  808 647 568 546 576 806  255 0 0
5  576 546 757 801 802  255 0 0
3  801 757 858  255 0 0
5  801 858 543 800 802  255 0 0
4  522 278 546 568  255 0 0
4  685 108 613 529  255 0 0
4  789 107 106 761  255 0 0
4  685 789 761 796  255 0 0
4  151 73 72 795  255 0 0
4  730 72 73 793  255 0 0
4  304 791 558 792  255 0 0
4  676 788 107 789  255 0 0
4  790 676 789 685  255 0 0
4  788 676 929 329  255 0 0
4  310 108 107 788  255 0 0
4  250 784 106 109  255 0 0
4  240 118 119 448  255 0 0
4  782 190 118 240  255 0 0
4  765 651 762 239  255 0 0
4  765 239 782 240  255 0 0
4  651 765 258 446  255 0 0
4  237 698 762 651  255 0 0
4  779 596 571 740  255 0 0
4  744 298 534 779  255 0 0
3  744 779 740  255 0 0
3  365 641 773  255 0 0
4  770 768 714 715  255 0 0
4  715 714 397 444  255 0 0
4  715 716 771 770  255 0 0
4  768 348 315 714  255 0 0
4  714 315 171 397  255 0 0
4  239 943 834 782  255 0 0
4  698 764 830 762  255 0 0
4  760 142 117 952  255 0 0
4  952 117 562 712  255 0 0
4  952 603 759 760  255 0 0
4  709 311 329 758  255 0 0
4  710 709 758 731  255 0 0
4  536 353 429 754  255 0 0
4  331 536 754 333  255 0 0
4  433 747 674 753  255 0 0
4  743 412 642 745  255 0 0
4  745 642 298 744  255 0 0
4  745 744 740 743  255 0 0
4  743 740 742 739  255 0 0
4  232 231 736 737  255 0 0
4  718 732 734 733  255 0 0
4  860 725 722 526  255 0 0
5  727 723 722 725 726  255 0 0
6  526 722 723 677 724 528  255 0 0
4  582 163 162 586  255 0 0
4  572 101 163 582  255 0 0
4  659 129 128 717  255 0 0
4  444 397 396 500  255 0 0
4  444 280 716 715  255 0 0
4  397 171 170 396  255 0 0
4  712 711 603 952  255 0 0
4  824 708 709 710  255 0 0
4  705 80 79 706  255 0 0
4  706 79 95 5  255 0 0
5  704 702 493 352 351  255 0 0
5  701 280 282 181 180  255 0 0
4  309 79 80 324  255 0 0
4  696 649 395 389  255 0 0
4  620 695 644 696  255 0 0
4  203 202 478 692  255 0 0
4  540 191 667 192  255 0 0
4  475 54 131 467  255 0 0
4  467 600 191 540  255 0 0
3  475 467 540  255 0 0
4  335 332 544 516  255 0 0
4  156 155 335 302  255 0 0
4  334 302 297 300  255 0 0
4  334 332 688 689  255 0 0
4  888 82 81 138  255 0 0
4  687 147 82 888  255 0 0
4  888 122 667 687  255 0 0
4  529 613 523 531  255 0 0
4  527 790 685 529  255 0 0
4  317 613 108 310  255 0 0
4  682 999 308 503  255 0 0
4  682 503 330 680  255 0 0
4  533 413 458 615  255 0 0
4  886 533 679 626  255 0 0
4  799 277 275 440  255 0 0
4  542 472 514 929  255 0 0
4  790 542 929 676  255 0 0
4  672 418 574 369  255 0 0
4  885 675 339 673  255 0 0
4  581 657 168 415  255 0 0
4  671 252 657 581  255 0 0
4  590 693 324 669  255 0 0
4  122 121 666 667  255 0 0
4  612 443 416 619  255 0 0
4  619 416 371 975  255 0 0
4  619 272 276 612  255 0 0
4  664 194 74 566  255 0 0
4  566 74 75 569  255 0 0
4  594 193 194 664  255 0 0
4  594 664 566 571  255 0 0
4  42 41 219 635  255 0 0
4  260 635 219 224  255 0 0
4  238 272 617 441  255 0 0
4  660 26 384 654  255 0 0
4  331 620 622 625  255 0 0
4  129 356 355 164  255 0 0
4  631 463 383 387  255 0 0
4  631 387 633 632  255 0 0
4  649 633 387 395  255 0 0
4  372 368 639 640  255 0 0
4  372 640 610 427  255 0 0
4  368 372 21 370  255 0 0
4  368 417 470 639  255 0 0
4  639 470 610 640  255 0 0
4  465 637 442 29  255 0 0
4  34 17 19 45  255 0 0
4  975 371 17 34  255 0 0
4  539 30 441 617  255 0 0
4  34 539 617 975  255 0 0
4  631 629 627 463  255 0 0
4  632 628 629 631  255 0 0
4  463 627 538 363  255 0 0
4  627 629 628 538  255 0 0
4  392 354 353 536  255 0 0
4  625 392 536 331  255 0 0
4  389 395 40 374  255 0 0
4  622 620 696 389  255 0 0
4  975 617 272 619  255 0 0
4  615 458 456 506  255 0 0
4  506 456 343 345  255 0 0
4  533 615 506 679  255 0 0
4  531 523 316 532  255 0 0
4  532 316 319 556  255 0 0
4  532 527 529 531  255 0 0
4  316 523 613 317  255 0 0
3  600 599 191  255 0 0
4  596 249 193 594  255 0 0
3  596 594 571  255 0 0
4  592 590 669 947  255 0 0
4  586 583 572 582  255 0 0
4  415 168 167 487  255 0 0
4  379 200 203 786  255 0 0
4  578 357 678 831  255 0 0
4  578 831 577 455  255 0 0
4  379 786 648 575  255 0 0
4  972 325 832 574  255 0 0
4  419 262 325 972  255 0 0
4  418 419 972 574  255 0 0
4  271 86 101 572  255 0 0
4  583 274 271 572  255 0 0
4  571 566 569 567  255 0 0
4  500 396 499 328  255 0 0
4  564 563 561 500  255 0 0
4  396 170 136 497  255 0 0
4  497 136 658 499  255 0 0
4  559 476 472 542  255 0 0
4  557 549 476 559  255 0 0
4  556 319 318 560  255 0 0
4  560 550 549 557  255 0 0
6  556 560 557 559 527 532  255 0 0
4  550 451 769 551  255 0 0
4  551 769 554 552  255 0 0
4  552 554 293 426  255 0 0
6  551 552 303 476 549 550  255 0 0
5  306 548 883 547 308  255 0 0
4  278 522 440 275  255 0 0
6  278 277 543 858 757 546  255 0 0
4  527 559 542 790  255 0 0
4  699 98 153 195  255 0 0
4  699 928 177 459  255 0 0
4  471 269 268 541  255 0 0
4  541 268 222 459  255 0 0
4  120 57 56 198  255 0 0
4  198 56 77 204  255 0 0
4  57 120 137 70  255 0 0
4  411 213 212 537  255 0 0
4  338 265 264 535  255 0 0
3  337 338 535  255 0 0
3  534 298 525  255 0 0
3  530 526 528  255 0 0
4  412 524 661 525  255 0 0
4  517 143 91 259  255 0 0
4  448 119 143 517  255 0 0
4  259 91 90 261  255 0 0
4  259 258 448 517  255 0 0
4  516 544 513 514  255 0 0
4  472 336 516 514  255 0 0
4  299 466 513 544  255 0 0
4  204 77 76 205  255 0 0
4  457 420 510 344  255 0 0
4  366 509 874 505  255 0 0
5  446 258 257 406 256  255 0 0
4  342 504 446 254  255 0 0
4  503 501 502 330  255 0 0
3  328 564 500  255 0 0
3  396 497 499  255 0 0
4  262 419 289 360  255 0 0
4  262 207 84 290  255 0 0
4  290 84 83 809  255 0 0
4  262 290 832 325  255 0 0
4  384 383 818 362  255 0 0
4  487 167 186 485  255 0 0
4  487 99 618 415  255 0 0
4  485 186 134 484  255 0 0
3  487 485 484  255 0 0
4  29 442 441 30  255 0 0
4  483 233 223 428  255 0 0
4  428 223 218 373  255 0 0
4  428 427 267 483  255 0 0
4  476 303 336 472  255 0 0
4  301 450 466 299  255 0 0
4  463 363 818 383  255 0 0
4  889 461 931 460  255 0 0
4  459 222 98 699  255 0 0
4  341 995 347 343  255 0 0
4  458 413 341 456  255 0 0
4  678 457 344 453  255 0 0
6  769 451 449 450 301 554  255 0 0
4  258 765 240 448  255 0 0
4  504 237 651 446  255 0 0
4  500 561 280 444  255 0 0
4  416 443 843 417  255 0 0
4  442 602 238 441  255 0 0
4  2 78 799 440  255 0 0
5  45 19 23 407 437  255 0 0
4  141 140 481 358  255 0 0
4  435 433 753 432  255 0 0
4  356 958 429 353  255 0 0
4  373 218 10 22  255 0 0
4  373 372 427 428  255 0 0
4  425 95 79 309  255 0 0
4  295 815 425 309  255 0 0
4  424 124 123 292  255 0 0
4  292 123 86 271  255 0 0
4  273 422 424 292  255 0 0
4  290 809 307 832  255 0 0
4  457 358 481 420  255 0 0
3  289 419 418  255 0 0
4  371 416 417 368  255 0 0
4  413 411 537 341  255 0 0
4  195 153 97 410  255 0 0
4  195 59 928 699  255 0 0
4  410 97 152 408  255 0 0
3  410 408 195  255 0 0
4  403 264 256 406  255 0 0
4  22 10 11 23  255 0 0
4  406 257 266 403  255 0 0
5  125 116 357 402 400  255 0 0
4  625 622 36 38  255 0 0
4  395 387 386 40  255 0 0
4  112 13 354 392  255 0 0
4  38 112 392 625  255 0 0
4  374 40 113 37  255 0 0
4  36 622 389 374  255 0 0
4  387 383 25 386  255 0 0
4  26 25 383 384  255 0 0
4  13 112 111 14  255 0 0
4  15 165 164 355  255 0 0
4  15 355 354 13  255 0 0
4  22 21 372 373  255 0 0
4  17 371 368 370  255 0 0
4  116 141 358 357  255 0 0
3  561 282 280  255 0 0
4  100 268 269 162  255 0 0
5  363 361 364 362 818  255 0 0
4  360 206 207 262  255 0 0
4  678 357 358 457  255 0 0
4  355 356 353 354  255 0 0
4  313 315 348 349  255 0 0
3  679 506 345  255 0 0
3  456 341 343  255 0 0
4  339 823 338 337  255 0 0
4  336 302 335 516  255 0 0
4  299 544 332 334  255 0 0
4  311 310 788 329  255 0 0
4  85 222 268 100  255 0 0
4  78 232 694 799  255 0 0
4  209 326 703 210  255 0 0
4  321 320 323 837  255 0 0
6  319 316 317 312 1021 318  255 0 0
4  172 171 315 313  255 0 0
4  312 317 310 311  255 0 0
4  693 295 309 324  255 0 0
3  999 306 308  255 0 0
4  303 297 302 336  255 0 0
4  300 297 426 293  255 0 0
4  301 299 334 300  255 0 0
4  642 412 525 298  255 0 0
4  552 426 297 303  255 0 0
4  554 301 300 293  255 0 0
4  291 482 391 284  255 0 0
4  286 284 391 285  255 0 0
4  281 614 283 279  255 0 0
3  278 275 277  255 0 0
4  274 273 292 271  255 0 0
4  261 90 183 266  255 0 0
3  261 266 257  255 0 0
3  265 256 264  255 0 0
4  261 257 258 259  255 0 0
4  254 446 256 265  255 0 0
4  248 657 252 253  255 0 0
4  866 242 614 281  255 0 0
3  193 249 251  255 0 0
4  351 168 657 248  255 0 0
6  244 243 241 242 866 245  255 0 0
4  602 236 783 238  255 0 0
3  352 169 351  255 0 0
4  223 233 234 224  255 0 0
4  78 1 231 232  255 0 0
4  52 214 225 49  255 0 0
4  218 223 224 219  255 0 0
4  87 98 222 85  255 0 0
4  202 201 735 221  255 0 0
4  10 218 219 41  255 0 0
4  217 136 170 173  255 0 0
4  68 597 133 69  255 0 0
4  188 216 68 189  255 0 0
4  215 103 214 52  255 0 0
5  213 209 210 211 212  255 0 0
4  55 179 208 76  255 0 0
3  207 206 84  255 0 0
4  198 204 205 199  255 0 0
4  203 200 201 202  255 0 0
4  120 198 199 121  255 0 0
4  118 190 196 197  255 0 0
4  194 193 251 74  255 0 0
4  192 404 475 540  255 0 0
4  687 667 191 599  255 0 0
4  190 188 189 196  255 0 0
4  187 186 167 169  255 0 0
3  90 89 183  255 0 0
3  161 229 158  255 0 0
3  181 182 180  255 0 0
4  58 135 179 55  255 0 0
4  178 96 98 87  255 0 0
3  176 174 175  255 0 0
4  173 170 171 172  255 0 0
4  169 167 168 351  255 0 0
4  164 166 127 129  255 0 0
4  165 220 166 164  255 0 0
4  100 162 163 101  255 0 0
4  161 158 159 160  255 0 0
4  157 154 155 156  255 0 0
4  865 149 148 151  255 0 0
3  149 150 148  255 0 0
4  82 147 146 71  255 0 0
4  143 119 88 91  255 0 0
4  141 117 142 140  255 0 0
4  139 53 102 104  255 0 0
4  138 81 70 137  255 0 0
4  138 137 122 888  255 0 0
4  71 146 135 58  255 0 0
4  129 127 130 128  255 0 0
5  125 126 785 562 116  255 0 0
4  178 87 123 124  255 0 0
4  137 120 121 122  255 0 0
4  119 118 197 88  255 0 0
4  116 562 117 141  255 0 0
5  555 110 111 37 113  255 0 0
4  109 106 107 108  255 0 0
4  104 102 103 215  255 0 0
4  85 100 101 86  255 0 0
4  97 153 98 96  255 0 0
4  91 88 89 90  255 0 0
4  87 85 86 123  255 0 0
4  82 71 70 81  255 0 0
4  55 76 77 56  255 0 0
4  71 58 57 70  255 0 0
4  63 60 62 65  255 0 0
4  58 55 56 57  255 0 0
4  52 49 50 51  255 0 0
4  48 44 43 42  255 0 0
4  45 31 32 33  255 0 0
4  23 19 18 20  255 0 0
4  44 11 12 43  255 0 0
4  38 36 35 39  255 0 0
4  165 15 16 8  255 0 0
4  43 12 41 42  255 0 0
4  370 21 20 18  255 0 0
4  30 539 33 32  255 0 0
4  113 28 24 27  255 0 0
4  40 386 28 113  255 0 0
4  39 35 37 111  255 0 0
4  39 111 112 38  255 0 0
4  35 36 374 37  255 0 0
4  45 33 539 34  255 0 0
4  31 29 30 32  255 0 0
4  386 25 24 28  255 0 0
4  27 24 25 26  255 0 0
4  23 20 21 22  255 0 0
4  19 17 370 18  255 0 0
4  14 9 8 16  255 0 0
4  16 15 13 14  255 0 0
4  11 10 41 12  255 0 0
4  8 9 220 165  255 0 0
4  7 3 4 6  255 0 0
4  6 4 0 2  255 0 0
4  4 3 1 0  255 0 0
4  2 0 1 78  255 0 0

