OFF
1105 1279 0

13.7056 -4.37013 -7.41226
16.6079 -2.40917 -4.17435
16.6079 -2.40916 -7.41226
16.6079 -2.40918 -1.4069
13.7056 -4.37015 -1.4069
13.7056 -4.37014 -4.17435
34.9512 11.1403 -1.4069
33.7544 10.273 -1.4069
34.9895 11.1681 -1.4069
35.4802 11.5237 -1.4069
36.6845 12.3965 -1.4069
37.2716 11.5527 -1.4069
34.2835 9.53375 -1.4069
-13.4786 -33.59 1.52169
-12.7123 -34.6611 0.134331
-13.218 -33.4076 1.52169
-9.6986 -30.944 1.52169
-6.98956 -29.0476 1.52169
-6.75948 -28.8866 1.52169
-6.01784 -29.9536 0.152715
-6.22059 -30.0962 0.152158
-12.4609 -34.4844 0.135021
-3.84923 -26.8494 1.52169
-3.10838 -27.9077 0.160704
1.36599 -23.1987 1.52169
1.61194 -23.0265 1.52169
2.34288 -24.0745 0.175674
2.1221 -24.2297 0.175067
4.52585 -20.9867 1.52169
5.25737 -22.025 0.183677
9.73801 -17.3382 1.52169
10.0017 -17.1536 1.52169
10.6813 -18.1217 0.275597
10.7232 -18.1815 0.198687
10.4607 -18.366 0.197966
13.7883 -15.8846 0.329282
13.8557 -15.9788 0.207289
13.1296 -14.964 1.52169
18.4817 -11.2175 1.52169
19.0796 -12.0747 0.42071
19.1875 -12.2295 0.22193
18.974 -12.3796 0.221344
26.8481 -5.36095 1.52169
27.1417 -6.26972 0.560015
22.0522 -10.215 0.229797
21.9218 -10.0282 0.469822
21.3506 -9.20921 1.52169
26.6152 -5.52394 1.52169
27.3694 -6.10573 0.563951
27.3145 -6.5146 0.244248
30.663 -3.73429 0.620859
30.8616 -4.02031 0.253988
30.1751 -3.03198 1.52169
32.3643 -1.49954 1.52169
32.5904 -1.34128 1.52169
36.1074 1.12068 1.52169
36.4781 1.38019 1.52169
37.151 0.402323 0.271259
36.656 0.0542406 0.2699
-20.8994 -27.7519 -1.4069
-22.4038 -28.7684 -1.4069
-20.137 -28.8173 -1.4069
-21.0694 -29.4708 -1.4069
-21.6341 -29.8665 -1.4069
33.57 13.1343 -2.1232
33.1857 13.6891 -7.41226
33.5 13.2354 -7.41226
34.9512 11.1403 -7.41226
34.9512 11.1403 -4.0885
34.9512 11.1403 0.419571
33.9591 12.5726 -1.4069
33.57 13.1343 -1.4069
33.57 13.1343 1.52169
33.57 13.1343 3.08683
33.1857 13.6891 3.08433
33.1857 13.6891 -1.57873
33.1857 13.6891 -4.17435
-8.60142 -32.5082 -1.4069
-5.86718 -30.5781 -1.4069
-8.60142 -32.5082 -0.491117
-5.86718 -30.5781 -0.477263
-8.70705 -32.3576 -0.297336
-12.1094 -34.9844 -0.508892
-12.2346 -34.8062 -0.279446
-5.96038 -30.451 -0.311265
-32.6789 1.81805 -4.17435
-31.6258 0.316682 -4.17435
-32.4683 1.96035 -4.17435
-31.4032 0.471703 -4.17435
-27.8095 -5.12403 -4.17435
-25.7813 -8.01565 -4.17435
-27.536 -4.93294 -4.17435
-25.4802 -7.80603 -4.17435
13.497 23.733 -4.17435
15.5978 20.7969 -4.17435
14.5122 24.4423 -4.17435
16.5599 21.4667 -4.17435
5.46547 -10.692 -4.17435
5.55095 -10.8138 -4.17435
5.24998 -10.3851 -4.17435
8.23031 -8.22513 -4.17435
8.49044 -8.59943 -4.17435
8.5625 -8.70312 -4.17435
-21.8031 -13.3858 -1.4069
-21.9453 -13.4844 -1.4069
-19.7432 -16.2647 -1.4069
-19.9118 -16.3835 -1.4069
13.3335 -3.83663 -7.41226
13.3335 -3.83663 -4.17435
16.1698 -1.78106 -7.41226
16.1698 -1.78106 -4.17435
-2.937 -16.5046 -4.17435
-2.81614 -16.6779 -4.17435
-3.02326 -16.3809 -4.17435
-0.174018 -14.316 -4.17435
-0.0426905 -14.5024 -4.17435
0.0665913 -14.6575 -4.17435
-8.89514 -19.6409 -7.41226
-11.8145 -21.6134 -7.41226
-8.89513 -19.6409 -4.17435
-11.8145 -21.6135 -4.17435
25.0733 3.31075 -7.41226
22.1571 1.34033 -7.41226
25.0734 3.31074 -4.17435
25.0734 3.31073 -1.4069
22.1571 1.3403 -1.4069
22.1571 1.34031 -4.17435
21.5915 2.14828 -7.41226
21.5915 2.14828 -4.17435
24.4387 4.21173 -7.41226
24.4387 4.21173 -4.17435
33.5069 13.2402 -4.17435
29.9095 18.4188 -4.17435
30.4129 18.7659 -4.17435
32.974 15.1056 -4.17435
34.0263 13.6016 -4.17435
33.5781 13.1406 -2.12372
33.5069 13.2402 -7.41226
33.5781 13.1406 -4.17435
33.5781 13.1406 -1.4069
33.5781 13.1406 1.52169
33.5781 13.1406 3.07697
18.3478 35.11 1.52169
18.3478 35.11 2.98789
18.3478 35.11 -1.4069
18.3478 35.11 -4.17435
18.3478 35.11 -7.41226
21.9307 29.9376 -7.41226
21.9307 29.9376 -4.17435
21.9307 29.9376 -1.4069
21.9307 29.9376 1.52169
21.9307 29.9376 3.01117
27.7426 21.5472 -7.41226
24.186 26.6817 -7.41226
27.7426 21.5472 -4.17435
27.7426 21.5472 -1.4069
27.7426 21.5472 1.52169
27.7426 21.5472 3.04895
24.1861 26.6816 3.02584
24.186 26.6816 1.52169
24.186 26.6816 -1.4069
24.186 26.6816 -4.17435
29.9095 18.4188 3.06304
29.9095 18.4188 1.52169
29.9095 18.4188 -1.4069
29.9095 18.4188 -7.41226
30.697 17.2819 -7.41226
18.0214 34.8828 3.36886
17.3533 34.4176 4.14867
18.7709 35.4046 2.49402
22.3892 30.2335 2.48884
21.6769 29.7739 3.30027
20.9321 29.2934 4.14867
23.9861 26.5465 3.25694
23.2147 26.0253 4.14867
24.6534 26.9974 2.4856
28.2266 21.8906 2.48048
27.6236 21.4627 3.18869
26.8063 20.8827 4.14867
28.9765 17.7753 4.14867
30.4129 18.7659 2.47735
34.078 13.5277 2.4721
32.6924 12.4549 4.14867
36.0414 10.7216 -7.41226
27.988 5.28012 -7.41226
37.2715 11.5528 -7.41226
37.2716 11.5527 1.46074
37.2716 11.5527 1.52169
36.0414 10.7216 1.52169
35.5477 10.3879 1.52169
34.2835 9.53374 1.52169
34.2835 9.53374 1.39763
27.988 5.2801 -1.4069
27.988 5.28011 -4.17435
39.3938 3.67143 -7.41226
39.3938 3.67143 -1.4069
36.3504 1.56579 -7.41226
36.3504 1.56579 -1.4069
37.151 0.402322 -7.41226
33.9966 4.98661 1.52169
33.9966 4.98661 -7.41226
37.151 0.402323 -1.4069
36.3504 1.56579 1.52169
-16.7625 -35.6321 -7.41226
-14.9511 -34.3193 -1.4069
-13.6379 -33.3675 -2.69152
-13.6379 -33.3675 -1.4069
-13.6379 -33.3675 -7.41226
-16.7625 -35.6321 -1.4069
-16.7625 -35.6321 -1.31622
-21.0694 -29.4708 -7.41226
-19.2031 -32.1406 -7.41226
-21.0694 -29.4708 -3.15043
-21.0694 -29.4708 1.52169
-19.2031 -32.1406 1.52169
-19.2031 -32.1406 -1.4069
-15.4432 -30.8443 -7.41226
-13.1466 -34.0541 -1.4069
-12.7123 -34.6611 -1.4069
-12.7123 -34.6611 -1.34878
-12.7123 -34.6611 -7.41226
-15.4432 -30.8443 1.52169
-13.6379 -33.3675 1.52169
36.9688 7.14066 -1.4069
36.9688 7.14066 1.52169
36.9688 7.14066 -7.41226
30.1365 2.18906 -7.41226
-11.681 -28.1177 -7.41226
-18.5403 -33.0889 -7.41226
-18.5403 -33.0889 -1.4069
-18.5403 -33.0889 1.52169
-11.681 -28.1177 1.52169
29.9293 2.03888 1.52169
30.1365 2.18906 1.52169
36.656 0.0542406 -1.27618
36.656 0.0542406 1.52169
36.656 0.0542406 -1.61115
36.656 0.0542406 -7.41226
36.8672 0.0156198 -7.41226
36.8672 0.0156197 -7.41226
36.8672 0.0156197 -1.4069
36.8672 0.0156197 0.108989
36.8672 0.0156197 1.52169
36.8672 0.0156198 1.52169
10.4593 -19.0536 -1.4069
10.4593 -19.0536 -0.394538
5.55991 -22.4544 -1.4069
5.55991 -22.4544 -0.369691
-8.70705 -32.3576 -1.4069
-12.4609 -34.4844 -1.4069
-6.22059 -30.0962 -1.4069
-5.96038 -30.451 -1.4069
-10.1724 -33.6171 -1.4069
-12.1094 -34.9844 -1.4069
-12.2346 -34.8062 -1.4069
30.4442 -4.31387 -4.17435
40.1867 2.53702 -7.41226
40.1867 2.53702 -1.4069
33.2736 -2.32423 -7.41226
30.4442 -4.31387 -7.41226
30.4442 -4.31387 -1.4069
30.4442 -4.31387 0.252842
30.8616 -4.02031 1.52169
33.0433 -2.48619 1.52169
33.2736 -2.32423 1.52169
36.7805 0.141757 1.52169
37.151 0.402323 1.52169
27.3145 -6.5146 1.52169
27.3145 -6.5146 -1.4069
27.3145 -6.5146 -4.17435
27.3145 -6.5146 -7.41226
22.0522 -10.215 -7.41226
22.0522 -10.215 -4.17435
22.0522 -10.215 -1.4069
22.0522 -10.215 1.52169
18.974 -12.3796 1.52169
18.974 -12.3796 -1.4069
18.974 -12.3796 -4.17435
18.974 -12.3796 -7.41226
13.8557 -15.9788 -7.41226
13.8557 -15.9788 -4.17435
13.8557 -15.9788 -1.4069
13.8557 -15.9788 1.52169
10.4607 -18.366 1.52169
10.4607 -18.366 -1.4069
10.4607 -18.366 -4.17435
10.4607 -18.366 -7.41226
5.25737 -22.025 -7.41226
5.25737 -22.025 -4.17435
5.25737 -22.025 -1.4069
5.25737 -22.025 1.52169
5.38125 -21.9379 1.52169
-3.10838 -27.9077 -7.41226
2.1221 -24.2297 -7.41226
-3.10838 -27.9077 -4.17435
-3.10838 -27.9077 -1.4069
-3.10838 -27.9077 1.52169
2.1221 -24.2297 1.52169
2.1221 -24.2297 -1.4069
2.1221 -24.2297 -4.17435
-8.94799 -32.0141 -7.41226
-6.22059 -30.0962 -7.41226
-12.4609 -34.4844 -7.41226
-12.4609 -34.4844 -1.3609
-12.4609 -34.4844 1.52169
-8.94799 -32.0141 1.52169
-6.22059 -30.0962 1.52169
-6.22059 -30.0962 -4.17435
-38.0386 -4.39593 4.14867
-39.0014 -5.09038 3.00507
-34.3372 -9.68433 4.14867
-35.3065 -10.3615 3.0095
-32.1975 -12.7415 4.14867
-33.1596 -13.4242 3.01207
-28.6955 -17.745 4.14867
-29.6695 -18.4031 3.01625
-26.4311 -20.9803 4.14867
-27.3894 -21.6559 3.01899
-22.7424 -26.2506 4.14867
-22.5028 -26.593 4.14867
-23.4483 -27.2783 3.02371
-23.7049 -26.9123 3.02341
34.9895 11.1681 -4.17435
27.6119 5.8213 -4.17435
27.6119 5.8213 -1.4069
27.6119 5.8213 -7.41226
34.9895 11.1681 -7.41226
34.9895 11.1681 0.418766
34.9512 11.1403 1.52169
33.7544 10.273 1.52169
33.7544 10.273 0.444707
20.3939 15.8953 -7.41226
22.2788 13.1562 -7.41226
20.3939 15.8953 -4.17435
22.2788 13.1562 -4.17435
14.5122 24.4423 -7.41226
16.5599 21.4667 -7.41226
14.5122 24.4423 -1.4069
16.5599 21.4667 -1.4069
9.59839 31.5828 -7.41226
10.7915 29.8491 -7.41226
9.59839 31.5828 -4.17435
10.7915 29.8491 -4.17435
-22.4038 -28.7684 -7.41226
-20.8994 -27.7519 -7.41226
-14.8193 -23.6437 -7.41226
-14.8193 -23.6437 -4.17435
-14.8193 -23.6437 -1.4069
-20.8994 -27.7519 0.232111
-20.8994 -27.7519 1.52169
-22.4038 -28.7684 1.52169
-22.4038 -28.7684 0.200336
-21.6803 -29.8005 1.52169
-21.6341 -29.8665 1.52169
-21.6341 -29.8665 1.60613
-21.6341 -29.8665 -4.20629
-21.6341 -29.8665 -7.41226
-23.7049 -26.9123 4.14867
-23.7049 -26.9123 1.52169
-23.7049 -26.9123 -2.17581
-23.7049 -26.9123 -7.41226
-26.5721 -22.822 -7.41226
-27.3894 -21.6559 -7.41226
-27.3894 -21.6559 -4.17435
-27.3894 -21.6559 1.52169
-27.3894 -21.6559 4.14867
-29.5469 -18.5781 -4.17435
-33.1596 -13.4242 -4.17435
-33.1596 -13.4242 4.14867
-29.4614 -18.7 1.52169
-29.4614 -18.7 -4.17435
-29.5469 -18.5781 -7.41226
-33.1596 -13.4242 -7.41226
-33.1596 -13.4242 1.52169
-29.6695 -18.4031 4.14867
-29.4614 -18.7 3.0165
-35.3065 -10.3615 4.14867
-35.3065 -10.3615 1.52169
-35.3065 -10.3615 -4.17435
-35.3065 -10.3615 -7.41226
-39.0014 -5.09038 -7.41226
-39.0014 -5.09038 -4.17435
-39.0014 -5.09038 1.52169
-39.0014 -5.09038 4.14867
-32.6789 1.81805 1.52169
-32.6789 1.81805 3.02551
-32.6789 1.81805 -1.4069
-32.6789 1.81805 -7.41226
-31.6258 0.316682 -7.41226
-31.6258 0.316682 -1.4069
-31.6258 0.316682 1.52169
-31.6258 0.316682 3.02327
-25.7813 -8.01565 -7.41226
-27.8095 -5.12403 -7.41226
-25.7813 -8.01565 -1.4069
-25.7813 -8.01565 1.52169
-25.7813 -8.01565 3.01086
-27.8095 -5.12403 3.01517
-27.8095 -5.12403 1.52169
-27.8095 -5.12403 -1.4069
-21.9453 -13.4844 1.52169
-21.9453 -13.4844 3.00272
-21.9453 -13.4844 -4.17435
-21.9453 -13.4844 -7.41226
-19.9118 -16.3835 -7.41226
-19.9118 -16.3835 -4.17435
-19.9118 -16.3835 1.52169
-19.9118 -16.3835 2.99841
-9.89924 -30.6579 1.52169
-12.269 -27.2795 1.52169
-14.139 -24.6135 1.52169
-11.1738 -22.5354 1.52169
-8.28583 -20.5113 1.52169
-2.81614 -16.6779 1.52169
0.0665913 -14.6575 1.52169
5.55095 -10.8138 1.52169
8.5625 -8.70312 1.52169
14.0469 -4.85937 1.52169
16.9149 -2.84933 1.52169
22.3992 0.994418 1.52169
25.4679 3.14511 1.52169
27.9641 4.89459 1.52169
29.7506 -3.32919 1.52169
-11.1738 -22.5354 1.60089
-11.1738 -22.5354 -1.4069
-11.1738 -22.5354 -4.17435
-11.1738 -22.5354 -7.41226
-8.28583 -20.5113 -7.41226
-8.28583 -20.5113 -4.17435
-8.28583 -20.5113 -1.4069
-8.28583 -20.5113 1.59945
-2.81614 -16.6779 1.59671
-2.81614 -16.6779 -1.4069
-2.81614 -16.6779 -7.41226
0.0665913 -14.6575 -7.41226
0.0665913 -14.6575 -1.4069
0.0665913 -14.6575 1.59527
8.5625 -8.70312 -7.41226
5.55095 -10.8138 -7.41226
8.5625 -8.70312 -1.4069
8.5625 -8.70312 1.59102
5.55095 -10.8138 1.59253
5.55095 -10.8138 -1.4069
14.0469 -4.85937 1.58827
14.0469 -4.85937 -1.4069
14.0469 -4.85937 -4.17435
14.0469 -4.85937 -7.41226
16.9149 -2.84933 -7.41226
16.9149 -2.84933 -4.17435
16.9149 -2.84933 -1.4069
16.9149 -2.84933 1.58684
22.3992 0.994418 1.58409
22.3992 0.994418 -1.4069
22.3992 0.994418 -4.17435
22.3992 0.994418 -7.41226
25.2819 3.01472 -7.41226
25.4679 3.14511 1.58256
25.2819 3.01472 1.58265
-23.3485 -31.0681 -7.41226
-22.1312 -30.2149 -7.41226
-20.137 -28.8173 -7.41226
-14.139 -24.6135 -7.41226
-14.139 -24.6135 -4.17435
-14.139 -24.6135 -1.4069
-20.137 -28.8173 1.52169
-22.1312 -30.2149 1.52169
-23.3485 -31.0681 1.52169
-23.3485 -31.0681 -1.4069
28.1604 5.03213 -1.4069
28.1604 5.03213 1.52169
28.1604 5.03213 -4.17435
28.1604 5.03213 -7.41226
35.0617 9.86895 -7.41226
36.1194 10.6102 -7.41226
37.3347 11.462 -7.41226
37.3347 11.462 -1.4069
37.3347 11.462 1.52169
36.1194 10.6102 1.52169
35.6327 10.2691 1.52169
35.0617 9.86895 1.52169
34.3836 9.39373 1.52169
-12.1094 -34.9844 1.52169
-12.2346 -34.8062 1.52169
-8.60142 -32.5082 1.52169
-8.70705 -32.3576 1.52169
33.4583 -3.08924 1.52169
33.4583 -3.08924 -0.511178
-32.4683 1.96035 1.52169
-32.4683 1.96035 2.7814
10.8719 29.905 1.52169
10.7915 29.8491 1.52169
10.7915 29.8491 2.99042
10.8719 29.905 3.08464
-31.4032 0.471703 1.52169
-31.4032 0.471703 2.76266
16.6793 21.5499 1.52169
16.5599 21.4667 1.52169
16.5599 21.4667 2.91779
16.6793 21.5499 3.0578
14.5122 24.4423 2.94357
14.5122 24.4423 1.52169
14.6177 24.516 1.52169
14.6177 24.516 3.06733
-19.7432 -16.2647 2.8003
-19.7432 -16.2647 1.52169
-21.8031 -13.3858 2.83652
-21.8031 -13.3858 1.52169
22.4375 13.2656 1.52169
22.2788 13.1562 1.52169
22.2788 13.1562 2.84578
22.4375 13.2656 3.03119
20.3939 15.8953 2.86952
20.3939 15.8953 1.52169
20.5395 15.9963 1.52169
20.5395 15.9963 3.03996
-25.4802 -7.80603 1.52169
-25.4802 -7.80603 2.6585
-27.536 -4.93294 1.52169
-27.536 -4.93294 2.69465
9.59839 31.5828 1.52169
9.59839 31.5828 3.00544
9.67066 31.6332 3.09019
26.9491 4.18317 1.58182
-12.9588 -23.7864 1.60179
9.67066 31.6332 1.52169
10.7833 -18.8249 -7.41226
10.7851 -18.8274 -7.41226
10.7851 -18.8274 -4.17435
10.7833 -18.8249 -4.17435
10.4208 -18.3093 1.52169
19.2765 -12.8297 -4.17435
19.3239 -12.9004 -4.17435
19.3239 -12.9004 -1.4069
19.2765 -12.8297 -1.4069
30.0094 -4.2049 0.609566
30.2017 -4.48435 0.252176
34.3836 9.39373 1.5781
34.3523 9.43749 1.52169
35.6327 10.2691 1.57747
35.6017 10.3124 1.52169
27.6236 21.4627 -7.41226
19.3239 -12.9004 -0.439495
19.2765 -12.8297 -0.349862
-22.9059 -29.1076 -1.4069
-30.1627 -18.7363 2.44294
-30.1627 -18.7363 1.52169
19.2765 -12.8297 -7.41226
19.3239 -12.9004 -7.41226
31.27 -4.6082 -0.50008
31.27 -4.6082 -1.4069
19.3239 -12.9004 1.52169
19.2765 -12.8297 1.52169
-23.4483 -27.2783 1.52169
27.6166 -6.94256 -1.4069
27.7121 -7.07784 -1.4069
27.7121 -7.07784 -0.482036
27.6166 -6.94256 -0.307603
27.6236 21.4627 4.14867
27.7426 21.5472 4.14867
30.6424 17.2436 -7.41226
31.27 -4.6082 1.52169
31.156 -4.44416 1.52169
27.1417 -6.26972 1.52169
-3.27051 -28.0217 -1.4069
-3.27051 -28.0217 0.160259
27.6166 -6.94256 -4.17435
27.7121 -7.07784 -4.17435
10.7833 -18.8249 -1.4069
10.7833 -18.8249 -0.392896
8.15678 -8.11934 -7.41226
8.23031 -8.22513 -7.41226
8.15679 -8.11935 -4.17435
-28.7769 -5.79983 4.14867
-22.9254 -14.1646 4.14867
-21.4373 -28.1153 4.14867
-15.8209 -24.3205 4.14867
-33.7722 1.34101 4.14867
-39.3377 -2.53978 4.14867
22.3861 1.0132 -4.17435
22.3861 1.0132 -1.4069
28.2266 21.8906 1.52169
14.1986 -16.458 -1.4069
14.1777 -16.4288 -1.4069
14.1777 -16.4288 -0.375697
14.1986 -16.458 -0.413502
27.7121 -7.07784 1.52169
27.6166 -6.94256 1.52169
22.3861 1.0132 1.56007
-32.4683 1.96035 -7.41226
21.6769 29.7739 -7.41226
23.986 26.5466 -7.41226
14.1777 -16.4288 1.52169
14.1986 -16.458 1.52169
10.7833 -18.8249 1.52169
22.3861 1.0132 -7.41226
28.2266 21.8906 4.14867
-32.8133 2.00963 -4.17435
-40.3127 -3.21963 -4.17435
-23.3953 -31.0015 1.52169
-24.1396 -29.9413 0.163674
-24.1396 -29.9413 1.52169
-22.9059 -29.1077 0.189731
-22.9059 -29.1077 1.52169
-0.49581 -13.8593 -7.41226
-0.44502 -13.9314 -7.41226
-0.445011 -13.9314 -4.17435
-0.49581 -13.8593 -4.17435
30.663 -3.73429 1.52169
27.6166 -6.94256 -7.41226
27.7121 -7.07784 -7.41226
-32.4683 1.96035 -1.4069
2.41903 -24.6346 -1.4069
2.41903 -24.6346 -0.353762
36.6845 12.3965 1.52169
36.6845 12.3965 0.383165
37.3048 11.505 1.52169
30.2017 -4.48435 -1.4069
10.7851 -18.8274 -0.396191
10.7851 -18.8274 -1.4069
11.337 -19.6122 -1.4069
-24.1396 -29.9412 -1.4069
-5.96038 -30.451 1.52169
28.2266 21.8906 -4.17435
28.2266 21.8906 -1.4069
13.7883 -15.8846 1.52169
10.6813 -18.1217 1.52169
10.7232 -18.1815 1.52169
-30.1627 -18.7363 4.14867
27.5431 -6.35385 0.244876
14.1986 -16.458 -4.17435
14.1777 -16.4288 -4.17435
13.6532 -4.29498 -4.17435
13.6532 -4.29498 -1.4069
14.1986 -16.458 -7.41226
14.1777 -16.4288 -7.41226
-23.4483 -27.2783 4.14867
34.078 13.5277 -2.15547
34.078 13.5277 -1.4069
28.2266 21.8906 -7.41226
2.41903 -24.6346 1.52169
10.8719 29.905 -1.4069
10.7915 29.8491 -1.4069
13.6532 -4.29498 -7.41226
10.8719 29.905 -4.17435
16.7931 36.5996 1.52169
16.7931 36.5996 -1.4069
16.7931 36.5996 -4.17435
17.1457 36.8455 -1.4069
9.67066 31.6332 -1.4069
-12.1094 -34.9844 -1.3131
-12.2346 -34.8062 -1.33013
10.8719 29.905 -7.41226
18.0214 34.8828 -7.41226
-39.4727 -5.43037 4.14867
-3.02326 -16.3809 -1.4069
-2.937 -16.5046 -1.4069
-0.174018 -14.316 -1.4069
-0.0426905 -14.5024 -1.4069
37.2394 0.273928 0.107077
37.2394 0.273928 1.52169
30.8546 -4.89653 -1.4069
30.8546 -4.89653 -0.497973
30.7419 -4.73651 -0.291768
30.7419 -4.73651 -1.4069
8.49044 -8.59943 -1.4069
2.41903 -24.6346 -4.17435
8.49044 -8.59943 1.45865
8.52476 -8.64881 1.52169
19.0796 -12.0747 1.52169
19.1875 -12.2295 1.52169
34.078 13.5277 -4.17435
27.5431 -6.35385 -1.4069
8.49044 -8.59943 -7.41226
-2.937 -16.5046 -7.41226
-3.02326 -16.3809 -7.41226
36.8672 0.0156199 1.52169
19.5326 15.2977 -4.17435
16.6793 21.5499 -1.4069
16.6793 21.5499 -4.17435
21.912 1.69044 -7.41226
21.912 1.69044 -4.17435
-24.2025 -27.2545 1.52169
-24.2025 -27.2545 2.44152
22.4242 -10.7484 -0.455218
22.4242 -10.7484 1.52169
22.3585 -10.6542 1.52169
22.3585 -10.6542 -0.334246
30.8546 -4.89653 1.52169
30.7419 -4.73651 1.52169
14.6177 24.516 -4.17435
14.6177 24.516 -1.4069
-31.4032 0.471703 -7.41226
14.6177 24.516 -7.41226
36.8672 0.0156199 -1.4069
37.2109 -0.484381 -1.4069
37.2109 -0.484381 -0.530209
36.8672 0.0156199 0.108989
21.9307 29.9376 4.14867
22.3892 30.2335 4.14867
27.9641 4.89459 1.58131
30.1536 1.71302 5.62984
-22.1775 -30.1487 1.52169
-32.8133 2.00963 -7.41226
-32.8133 2.00963 1.52169
-19.0771 -17.5735 -7.41226
-0.0426905 -14.5024 -7.41226
31.2032 17.6364 -7.41226
36.089 10.6536 1.52169
9.67066 31.6332 -7.41226
28.128 5.07876 1.52169
24.6535 26.9973 4.14867
24.1861 26.6816 4.14867
23.2639 12.0767 -7.41226
28.1604 5.03213 1.58121
-11.9354 -27.7551 5.62511
-14.139 -24.6135 1.60238
18.0214 34.8828 4.14867
34.078 13.5277 1.52169
6.12697 -23.2593 -1.4069
27.5431 -6.35385 -4.17435
27.5431 -6.35385 -7.41226
5.46547 -10.692 -1.4069
37.2393 0.273928 -1.4069
-0.0426905 -14.5024 1.39637
0.0261659 -14.6001 1.52169
5.46547 -10.692 1.43657
5.51212 -10.7585 1.52169
2.34288 -24.0745 1.52169
5.55991 -22.4544 1.52169
-33.6406 -13.7656 2.44378
-33.6406 -13.7656 1.52169
22.4242 -10.7484 -4.17435
22.4242 -10.7484 -1.4069
22.3585 -10.6542 -1.4069
22.3585 -10.6542 -4.17435
-27.8785 -22.0008 2.4424
-27.8785 -22.0008 4.14867
16.4895 -2.23944 -1.4069
16.4895 -2.23944 -4.17435
24.7605 3.75484 -1.4069
24.7605 3.75484 -4.17435
-6.01784 -29.9536 -1.4069
-6.01784 -29.9536 -4.17435
22.4242 -10.7484 -7.41226
22.3585 -10.6542 -7.41226
30.8546 -4.89653 -7.41226
30.8546 -4.89653 -4.17435
30.7419 -4.73651 -4.17435
30.7419 -4.73651 -7.41226
15.5978 20.7969 -7.41226
13.497 23.733 -7.41226
28.001 21.174 -7.41226
20.5395 15.9963 -7.41226
8.23031 -8.22513 0.980813
8.23031 -8.22513 -1.4069
5.24998 -10.3851 -1.4069
5.24998 -10.3851 1.04341
29.9095 18.4188 4.14867
30.4129 18.7659 4.14867
20.3939 15.8953 -1.4069
20.5395 15.9963 -4.17435
20.5395 15.9963 -1.4069
-25.4802 -7.80603 -1.4069
-27.536 -4.93294 -1.4069
-20.7717 -12.67 -1.4069
-20.7717 -12.67 -4.17435
-18.7703 -15.5786 -4.17435
-18.7703 -15.5786 -1.4069
-19.5336 -16.1168 -4.17435
-19.5336 -16.1168 -1.4069
-21.5924 -13.2395 -1.4069
-21.5924 -13.2395 -4.17435
-21.8031 -13.3858 -4.17435
26.0572 8.05793 -1.4069
9.59839 31.5828 -1.4069
26.0572 8.05793 -2.28169
26.0572 8.05793 1.52169
13.497 23.733 -1.4069
15.5978 20.7969 -1.4069
-16.3589 -21.4486 -1.4069
-32.8133 2.00963 -1.4069
-16.3589 -21.4486 1.52169
-16.3589 -21.4486 -2.45018
-33.6406 -13.7656 4.14867
-6.01784 -29.9536 -7.41226
18.7709 35.4046 1.52169
-27.8785 -22.0008 1.52169
5.46547 -10.692 -7.41226
30.4129 18.7659 1.52169
37.2109 -0.484381 1.52169
-3.35868 -15.9 -7.41226
-3.35867 -15.9001 -4.17435
-0.174018 -14.316 -7.41226
13.3335 -3.83663 -1.4069
-25.4802 -7.80603 -7.41226
-8.70705 -32.3576 -7.41226
-8.10223 -33.2199 -1.4069
33.4583 -3.08924 -1.4069
33.4583 -3.08924 -4.17435
33.6924 -2.92672 -1.4069
2.34288 -24.0745 -1.4069
5.55991 -22.4544 -4.17435
-30.2787 3.43984 -7.41226
-30.2787 3.43984 -4.17435
2.41903 -24.6346 -7.41226
-20.137 -28.8173 1.60538
-20.1835 -28.7524 1.52169
-14.2211 -24.4964 -1.4069
-14.8192 -23.6437 0.36053
-39.4727 -5.43037 -7.41226
-39.4727 -5.43037 -4.17435
-12.1094 -34.9844 -7.41226
-12.2346 -34.8062 -7.41226
-35.7874 -10.6974 1.52169
-35.7874 -10.6974 2.44429
-35.7874 -10.6974 4.14867
30.4129 18.7659 -1.4069
-27.536 -4.93294 -7.41226
13.9981 -4.7894 -7.41226
13.9981 -4.7894 -4.17435
16.8783 -2.79693 -4.17435
16.8783 -2.79693 -7.41226
10.7232 -18.1815 -1.4069
22.3892 30.2335 -4.17435
22.3892 30.2335 -1.4069
24.6534 26.9974 -4.17435
24.6534 26.9974 -1.4069
2.34288 -24.0745 -4.17435
2.34288 -24.0745 -7.41226
5.55991 -22.4544 -7.41226
33.976 12.5845 -1.4069
27.8869 21.0948 3.18375
16.7931 36.5996 3.39191
22.3892 30.2335 1.52169
24.6534 26.9974 1.52169
-8.60142 -32.5082 -1.48297
-8.70705 -32.3576 -1.49736
7.91139 -7.76624 -7.41226
7.91139 -7.76624 -4.17435
5.24998 -10.3851 -7.41226
-24.2025 -27.2545 -7.41226
-24.2025 -27.2545 -2.18124
-22.9059 -29.1076 -7.41226
5.10634 -10.1804 -7.41226
5.10634 -10.1805 -4.17435
-13.3784 -33.1795 1.52169
-15.8828 -36.8906 -1.196
-16.7625 -35.6321 1.52169
-15.8828 -36.8906 -1.4069
24.6534 26.9975 -7.41226
33.346 -2.4283 1.52169
4.92893 -9.92775 -7.41226
4.92893 -9.92775 -4.17435
-28.496 -18.0301 4.14867
16.4895 -2.23944 -7.41226
27.0593 20.5205 4.14867
27.988 5.28009 1.26466
25.2811 3.01585 -7.41226
-29.9506 -19.0394 1.52169
-29.9506 -19.0394 2.44289
28.001 21.174 3.05063
28.001 21.174 1.52169
-17.7068 -14.8288 -7.41226
-19.5336 -16.1168 -7.41226
-17.7068 -14.8288 -4.17435
21.9218 -10.0282 1.52169
-2.84285 -28.2871 -1.4069
-2.84285 -28.2871 -0.327076
20.1719 11.7031 -7.41226
20.1719 11.7031 -4.17435
-11.2882 -22.3708 -7.41226
-11.2882 -22.3708 -4.17435
13.9981 -4.7894 -1.4069
13.7057 -4.37016 0.963004
13.9981 -4.7894 1.49884
35.9784 1.30837 1.52169
39.3938 3.67143 1.52169
32.447 -1.13495 1.52169
20.2719 4.03341 -7.41226
20.2719 4.03341 -4.17435
18.7709 35.4046 -4.17435
18.7709 35.4046 -7.41226
-2.84285 -28.2871 1.52169
30.4442 -4.31387 1.52169
30.2469 -4.03385 0.613671
32.8289 -2.17472 1.52169
10.4593 -19.0536 1.52169
33.5651 -2.74363 1.52169
33.6924 -2.92672 1.52169
33.6924 -2.92672 -0.512365
33.4583 -3.08924 -7.41226
38.016 7.89958 -1.4069
38.016 7.89958 1.52169
10.7232 -18.1815 -4.17435
36.8672 0.0156199 -7.41226
37.2109 -0.484381 -7.41226
37.2109 -0.484381 -4.17435
-27.8785 -22.0008 -4.17435
16.8783 -2.79693 -1.4069
25.2811 3.01585 -4.17435
25.2811 3.01585 -1.4069
-29.262 1.96244 -7.41226
-29.262 1.96244 -4.17435
16.8783 -2.79693 1.51987
16.6079 -2.40919 1.0243
25.2811 3.01585 1.58119
25.2484 3.06226 1.52169
25.0734 3.31072 1.2031
36.6845 12.3965 -7.41226
37.3347 11.462 1.57662
-21.5924 -13.2395 -7.41226
-27.8785 -22.0008 -7.41226
17.1457 36.8455 -4.17435
9.67066 31.6332 -4.17435
8.55205 28.2899 -7.41226
8.55205 28.2899 -4.17435
10.7232 -18.1815 -7.41226
-33.6406 -13.7656 -4.17435
19.1875 -12.2295 -4.17435
19.1875 -12.2295 -1.4069
-8.58568 -20.4122 -1.4069
-8.43279 -20.3014 -4.17435
-8.43279 -20.3014 -7.41226
-8.58568 -20.4122 1.33401
25.4679 3.14511 -7.41226
-8.58568 -20.4122 -7.41226
25.4679 3.14511 -4.17435
-8.58568 -20.4122 -4.17435
26.5335 7.37271 -1.4069
-4.99999 -13.5469 -7.41226
-4.99999 -13.5469 -4.17435
-2.125 -11.5469 -7.41226
-2.125 -11.5469 -4.17435
-2.66495 -15.4313 -4.17435
-14.2211 -24.4964 -4.17435
27.9641 4.89459 -7.41226
27.9641 4.89459 -4.17435
-19.7642 -32.534 -7.41226
-19.7642 -32.534 1.52169
-2.84285 -28.2871 -7.41226
-2.84285 -28.2871 -4.17435
39.2109 8.76563 -1.4069
-5.34521 -31.2899 -1.4069
39.2109 8.76563 -7.41226
38.016 7.89958 -7.41226
22.4375 13.2656 -7.41226
22.4375 13.2656 -4.17435
-20.2636 -32.8841 -7.41226
-21.4766 -33.7344 -7.41226
-21.4766 -33.7344 1.52169
-20.2636 -32.8841 1.52169
-11.2882 -22.3708 -1.4069
-11.2882 -22.3708 1.39078
-11.2169 -22.4733 1.52169
10.4593 -19.0536 -4.17435
10.4593 -19.0536 -7.41226
33.5651 -2.74363 -7.41226
-5.96038 -30.451 -4.17435
23.9861 26.5465 4.14867
-25.4971 -3.50853 -4.17435
-25.4971 -3.50853 -7.41226
35.4802 11.5237 -4.17435
21.6769 29.7739 4.14867
35.4802 11.5237 -7.41226
35.4802 11.5237 0.40846
27.6119 5.8213 0.573725
-14.8192 -23.6437 1.52169
6.41173 -5.60836 -7.41226
6.41173 -5.60836 -4.17435
-12.7123 -34.6611 1.52169
-8.70705 -32.3576 -4.17435
33.6924 -2.92672 -4.17435
34.0611 10.4952 4.14867
16.145 36.1477 4.14867
14.3903 19.9561 -7.41226
14.3903 19.9561 -4.17435
34.9895 11.1681 1.52169
12.3203 22.911 -4.17435
12.3203 22.911 -7.41226
27.988 5.28009 1.52169
18.2683 14.4203 -4.17435
18.2683 14.4203 -7.41226
-3.02326 -16.3809 1.21718
-2.937 -16.5046 1.37524
-0.174018 -14.316 1.15734
7.34564 30.012 -7.41226
7.34564 30.012 -4.17435
-39.4727 -5.43037 2.44517
-29.9506 -19.0394 -4.17435
18.3478 35.11 4.14867
27.9641 4.89459 -1.4069
33.57 13.1343 4.14867
33.9322 10.6797 4.14867
34.8385 11.303 3.09508
3.37811 -7.71868 -7.41226
3.37811 -7.71868 -4.17435
27.8869 21.0948 -7.41226
40.2891 2.3906 -7.41226
16.7931 36.5996 -7.41226
-19.7432 -16.2647 -4.17435
-14.8192 -23.6437 2.9876
-18.6333 -26.2208 7.40858
-22.4038 -28.7684 3.02497
17.1457 36.8455 2.98007
19.5326 15.2977 -7.41226
17.1457 36.8455 1.52169
34.9512 11.1403 3.09581
-31.4032 0.471703 -1.4069
27.6119 5.8213 1.52169
31.3111 8.50224 7.40138
27.6119 5.8213 3.00728
-19.7028 -11.9283 -7.41226
-19.7028 -11.9283 -4.17435
34.0263 13.6016 -7.41226
26.0572 8.05793 -7.41226
26.0572 8.05793 -4.17435
-17.3034 -20.1021 -4.17435
25.0268 9.54045 -4.17435
18.7709 35.4046 4.14867
11.9043 -1.78752 -7.41226
11.9043 -1.78752 -4.17435
22.1571 1.34029 1.14151
22.3651 1.04318 1.52169
14.0105 -4.80728 1.52169
-40.3127 -3.21963 1.52169
15.5392 25.1597 4.14867
-40.3127 -3.21963 3.00349
21.104 29.0474 4.14867
21.8325 29.5563 3.29735
14.7793 0.212525 -7.41226
35.4802 11.5237 1.52169
14.7793 0.212525 -4.17435
-8.60142 -32.5082 -7.41226
-8.60142 -32.5082 -4.17435
27.3694 -6.10573 1.52169
-2.66454 -15.431 -7.41226
22.3892 30.2335 -7.41226
-10.4884 -17.3648 -7.41226
-10.4884 -17.3648 -4.17435
30.4129 18.7659 -7.41226
16.8793 -2.79836 1.52169
23.1527 6.0374 -7.41226
24.7605 3.75484 -7.41226
23.1527 6.0374 -4.17435
-8.43041 -20.3048 -1.4069
-8.43041 -20.3048 -4.17435
-16.3589 -21.4486 -4.17435
-16.3589 -21.4486 -7.41226
16.1698 -1.78106 -1.4069
17.1457 36.8455 -7.41226
21.4864 16.6534 4.14867
24.4387 4.21173 -1.4069
10.5732 32.2626 4.14867
16.6793 21.5499 -7.41226
-35.7874 -10.6974 -4.17435
39.2109 8.76563 1.52169
28.001 21.174 -4.17435
33.346 -2.4283 -7.41226
28.001 21.174 -1.4069
-35.7874 -10.6974 -7.41226
33.6924 -2.92672 -7.41226
-30.0547 -18.8906 -7.41226
-2.85708 -16.6192 1.52169
-30.0547 -18.8906 -4.17435
-15.8828 -36.8906 -7.41226
21.5915 2.14828 -1.4069
21.912 1.69044 -1.4069
-33.6406 -13.7656 -7.41226
-27.0633 -23.166 -7.41226
-22.1312 -30.2149 1.60638
-23.3485 -31.0681 1.60699
34.078 13.5277 4.14867
-24.1397 -29.9412 -7.41226
36.1194 10.6102 1.57723
-11.8145 -21.6135 -1.4069
25.4679 3.14511 -1.4069
-40.3127 -3.21963 -7.41226
-8.43279 -20.3014 -1.4069
-8.89512 -19.6409 -1.4069
19.1875 -12.2295 -7.41226
22.2788 13.1562 -1.4069
-39.4727 -5.43037 1.52169
22.4375 13.2656 -1.4069
25.2819 3.01472 1.52169
-8.43041 -20.3048 1.33515
-6.01784 -29.9536 1.52169
-36.5591 -0.602296 7.41226
-32.8133 2.00963 3.02579
-8.32836 -20.4506 1.52169
-20.7717 -12.67 -7.41226
13.3532 34.201 7.40881
-18.7703 -15.5786 -7.41226
-23.4922 -6.42179 -7.41226
-5.96038 -30.451 -7.41226
-8.43041 -20.3048 -7.41226
18.7709 35.4046 -1.4069
-24.2025 -27.2545 4.14867
-13.3728 -19.3714 -7.41226
-25.2925 -25.6967 -4.17435
-13.3728 -19.3714 -4.17435
28.5728 6.51768 4.14867
40.2891 2.3906 -1.4069
-23.4922 -6.42179 -4.17435
-15.7874 -22.2634 -1.4069
-14.2211 -24.4964 -7.41226
17  715 523 423 430 431 436 441 440 443 450 451 457 456 522 699 700 714  255 0 0
7  704 361 360 343 344 345 1047  255 21 0
15  704 404 403 392 393 388 387 702 1076 380 379 372 371 362 361  255 21 0
4  704 1016 405 404  255 21 0
4  81 84 80 79  255 43 0
19  714 700 53 52 422 42 47 46 38 37 31 30 28 25 24 22 18 17 16  255 0 0
4  795 1093 301 300  255 65 0
4  795 812 811 1032  255 65 0
4  461 426 425 462  255 87 0
7  461 460 210 211 228 216 227  255 87 0
16  461 227 226 471 935 924 455 454 447 446 437 438 434 433 427 426  255 87 0
4  795 300 302 812  255 65 0
4  795 970 957 1093  255 65 0
5  715 410 411 423 523  255 0 0
7  715 714 16 408 231 409 410  255 0 0
4  713 536 480 469  255 109 0
8  712 559 166 165 751 996 752 945  255 131 0
4  713 709 537 536  255 109 0
4  712 945 946 1017  255 131 0
3  709 856 979  255 109 0
8  709 979 190 189 188 707 539 537  255 109 0
11  708 651 692 1053 752 996 540 590 589 652 998  255 131 0
4  524 648 645 644  255 131 0
4  708 998 646 913  255 131 0
4  707 615 909 1073  255 109 0
5  706 166 65 137 1013  255 153 0
4  706 1039 165 166  255 153 0
4  707 188 187 615  255 109 0
4  706 134 133 1039  255 153 0
5  461 1104 345 344 460  255 174 0
4  461 462 934 1104  255 174 0
4  704 1047 1046 1016  255 21 0
6  524 644 832 973 1052 521  255 131 0
4  702 387 85 596  255 21 0
4  703 384 385 1087  255 21 0
4  703 780 386 384  255 21 0
5  703 1024 597 596 780  255 21 0
4  702 596 597 1076  255 21 0
4  701 598 600 602  255 196 0
4  701 352 354 1069  255 196 0
4  1068 361 362 911  255 218 0
4  701 602 350 352  255 196 0
4  1068 911 897 1098  255 218 0
6  703 1087 576 577 1026 1024  255 21 0
4  1069 354 353 465  255 196 0
4  1069 1070 598 701  255 196 0
4  1073 538 539 707  255 109 0
4  1073 909 476 477  255 109 0
5  521 1052 1025 502 492  255 131 0
3  1090 1052 973  255 131 0
6  1090 1009 1100 1050 1025 1052  255 131 0
13  1090 973 168 172 1027 174 178 855 179 182 992 972 1009  255 131 0
5  471 472 473 183 184  255 109 0
4  471 470 936 935  255 87 0
5  712 1014 66 65 559  255 131 0
6  709 713 469 468 192 856  255 109 0
4  712 1017 1015 1014  255 131 0
4  471 184 193 470  255 109 0
6  1087 385 391 397 572 576  255 21 0
6  1086 576 572 573 575 1001  255 21 0
3  1086 577 576  255 21 0
12  1086 1001 574 319 318 316 853 314 312 310 308 577  255 21 0
4  410 463 424 411  255 87 0
4  410 464 61 463  255 87 0
4  16 15 845 408  255 240 0
5  410 409 214 213 464  255 87 0
4  465 353 938 950  247 255 0
4  465 466 1070 1069  255 196 0
4  459 458 948 947  247 255 0
4  459 356 343 842  255 196 0
4  459 947 937 356  247 255 0
4  465 950 949 466  247 255 0
6  325 184 183 963 326 67  225 255 0
4  325 1014 1015 323  255 131 0
6  965 928 775 773 776 1008  255 131 0
4  1104 934 346 345  255 174 0
4  325 323 193 184  225 255 0
3  965 324 928  255 131 0
4  708 339 340 651  255 131 0
4  524 519 774 648  255 131 0
4  708 913 341 339  255 131 0
4  361 1068 840 360  255 218 0
4  352 806 805 354  203 255 0
4  352 350 349 806  203 255 0
4  1024 382 381 597  255 21 0
4  1076 597 381 380  255 21 0
5  1008 776 507 510 1010  255 131 0
6  966 781 779 782 1103 808  255 21 0
3  808 1103 347  255 21 0
4  473 474 185 183  255 109 0
4  473 472 225 944  255 87 0
4  1073 477 478 538  255 109 0
4  706 1013 135 134  255 153 0
5  356 210 460 344 343  255 174 0
4  353 213 214 938  247 255 0
4  356 937 211 210  247 255 0
4  459 842 1072 458  255 196 0
4  1068 1098 841 840  255 218 0
6  300 227 216 207 220 302  255 240 0
5  213 353 354 805 464  203 255 0
4  1064 220 207 203  182 255 0
4  1064 848 218 220  182 255 0
4  1064 203 208 848  182 255 0
6  1060 895 239 238 1057 956  160 255 0
4  1060 890 798 971  160 255 0
4  889 695 694 799  160 255 0
5  1060 956 748 745 890  160 255 0
5  471 226 200 225 472  255 87 0
4  889 799 797 486  160 255 0
4  1060 971 896 895  160 255 0
4  477 476 1055 892  255 87 0
6  469 480 479 224 199 233  255 87 0
4  54 877 875 55  255 240 0
4  473 944 943 474  255 87 0
5  477 892 224 479 478  255 87 0
5  1057 258 259 748 956  160 255 0
4  1057 238 237 258  160 255 0
4  345 346 1046 1047  255 21 0
4  323 324 192 193  225 255 0
5  1016 782 779 106 405  255 21 0
5  346 347 1103 782 1046  255 21 0
6  1017 775 928 324 323 1015  255 131 0
3  1016 1046 782  255 21 0
6  469 421 990 936 470 468  255 87 0
5  54 53 232 233 877  255 240 0
4  469 233 232 421  255 87 0
19  258 226 227 300 301 784 292 293 828 287 286 916 279 278 1079 271 270 720 259  255 240 0
4  1030 188 189 976  138 255 0
4  1030 976 327 964  138 255 0
4  1008 329 330 965  255 131 0
4  1049 998 652 146  255 131 0
4  1005 644 645 647  255 131 0
3  166 559 65  255 131 0
4  69 327 976 328  138 255 0
5  328 976 189 190 329  138 255 0
4  1049 912 646 998  255 131 0
4  69 70 830 327  116 255 0
5  328 72 71 70 69  255 131 0
4  1049 146 145 912  255 131 0
4  1005 647 144 142  255 131 0
4  1042 679 122 121  94 255 0
4  1041 878 127 129  72 255 0
4  1043 879 878 1041  72 255 0
4  1042 129 127 679  94 255 0
4  1043 130 128 879  72 255 0
4  1043 1041 129 130  72 255 0
4  740 130 129 1042  94 255 0
4  1037 1097 118 117  51 255 0
4  1038 1099 1097 1037  51 255 0
5  117 118 870 925 922  29 255 0
4  119 120 1099 1038  51 255 0
4  1038 1037 117 119  51 255 0
3  1035 604 603  7 255 0
5  1035 790 674 792 604  7 255 0
5  933 791 930 932 606  7 255 0
3  933 606 605  7 255 0
5  1035 603 931 929 790  7 255 0
4  1029 1019 107 109  0 255 14
4  1031 1020 1019 1029  0 255 14
4  109 107 642 854  0 255 36
4  110 108 1020 1031  0 255 14
4  1031 1029 109 110  0 255 14
4  1026 577 308 309  255 21 0
4  1026 309 382 1024  255 21 0
4  1020 108 107 1019  0 255 14
4  913 648 774 341  255 131 0
5  1017 946 1082 773 775  255 131 0
4  596 85 386 780  255 21 0
4  339 985 914 340  0 255 58
4  341 986 985 339  0 255 58
4  341 342 915 986  0 255 58
4  476 475 941 1055  255 87 0
4  474 943 941 475  255 87 0
4  910 863 1091 1089  0 255 80
4  1011 862 864 1012  0 255 102
4  1012 864 766 765  0 255 102
4  1011 1089 1091 862  0 255 102
4  1012 765 1089 1011  0 255 102
4  910 1089 765 771  0 255 80
5  1010 510 514 1050 1100  255 131 0
7  1010 1100 972 1006 328 329 1008  255 131 0
3  1009 972 1100  255 131 0
4  1003 832 644 1005  255 131 0
4  1006 972 992 993  255 131 0
4  1003 143 167 832  255 131 0
5  1006 993 73 72 328  255 131 0
4  1005 142 143 1003  255 131 0
4  934 807 347 346  255 174 0
4  193 192 468 470  255 109 0
4  462 463 807 934  255 174 0
4  462 425 424 463  255 87 0
4  963 183 185 908  225 255 0
4  964 9 10 614  138 255 0
5  963 908 10 9 961  225 255 0
5  1000 407 406 781 966  255 21 0
4  350 552 320 1002  255 21 0
4  1002 320 319 574  255 21 0
5  1000 575 573 401 407  255 21 0
7  350 1002 574 575 1000 966 349  255 21 0
3  1001 575 574  255 21 0
5  351 359 358 552 350  255 21 0
4  602 601 351 350  255 196 0
5  479 480 536 538 478  255 109 0
5  997 894 693 722 1101  0 255 123
6  997 256 198 237 238 894  0 255 123
4  997 1101 257 256  0 255 123
4  1101 722 201 257  0 255 123
5  1098 897 786 681 841  255 218 0
4  971 799 694 896  160 255 0
5  970 836 248 251 957  255 65 0
4  971 798 797 799  160 255 0
4  994 967 968 995  0 255 145
4  995 968 838 852  0 255 145
4  851 837 967 994  0 255 145
4  852 838 571 844  0 255 145
4  995 852 851 994  0 255 145
5  134 636 637 816 133  0 255 167
4  912 647 645 646  255 131 0
4  912 145 144 647  255 131 0
4  421 420 1075 990  255 87 0
5  699 522 456 420 421  255 0 0
4  936 926 924 935  255 87 0
4  936 990 1075 926  255 87 0
4  858 545 544 859  0 255 189
4  369 364 363 370  255 21 0
6  988 1063 917 730 545 858  0 255 189
4  370 366 1063 988  0 255 189
5  370 363 362 371 366  255 21 0
4  858 369 370 988  0 255 189
4  70 64 136 830  116 255 0
3  70 71 64  255 131 0
4  986 915 914 985  0 255 58
4  331 332 945 752  255 131 0
5  333 334 869 980 676  0 255 211
5  981 868 332 331 1004  0 255 211
4  980 869 868 981  0 255 211
4  333 676 1004 331  0 255 211
4  981 1004 676 980  0 255 211
4  978 974 749 750  0 255 233
4  335 336 1053 692  255 131 0
4  977 975 974 978  0 255 233
4  335 750 749 336  0 255 233
4  977 93 94 975  0 255 233
4  95 93 750 335  0 255 233
4  978 750 93 977  0 255 233
4  96 336 749 94  0 255 233
4  975 94 749 974  0 255 233
4  973 832 167 168  255 131 0
5  245 617 619 718 247  0 255 255
4  954 801 246 244  0 233 255
4  954 527 526 955  0 233 255
4  245 244 618 617  0 255 255
3  954 528 527  0 233 255
4  245 568 567 244  0 233 255
4  954 244 567 528  0 233 255
4  795 1032 1033 970  255 65 0
4  248 836 835 77  255 65 0
4  970 1033 835 836  255 65 0
4  837 851 843 569  0 255 145
4  968 967 837 838  0 255 145
4  966 808 348 349  255 21 0
4  325 67 66 1014  255 131 0
4  965 330 7 324  255 131 0
4  964 327 8 9  138 255 0
4  963 961 322 326  225 255 0
4  961 9 8 322  225 255 0
4  134 135 670 636  0 255 167
4  960 1092 1102 959  0 211 255
4  959 1102 92 91  0 211 255
4  817 794 1092 960  0 211 255
4  959 91 817 960  0 211 255
4  794 817 393 392  0 211 255
4  1102 1092 794 92  0 211 255
4  120 119 1078 1074  29 255 0
4  1099 120 118 1097  51 255 0
4  601 599 620 543  255 196 0
4  842 543 620 1072  255 196 0
4  955 829 801 954  0 233 255
3  955 526 525  0 233 255
5  955 525 286 287 829  0 233 255
5  466 949 948 458 467  247 255 0
4  950 947 948 949  247 255 0
4  891 941 943 944  255 87 0
5  255 719 671 616 260  255 240 0
4  259 720 719 255  255 240 0
4  255 747 748 259  160 255 0
4  292 784 742 294  255 240 0
5  294 742 741 563 295  255 240 0
4  939 804 293 292  0 189 255
4  940 665 804 939  0 189 255
4  294 940 939 292  0 189 255
4  214 230 229 215  255 87 0
4  211 215 229 228  255 87 0
5  214 215 211 937 938  247 255 0
5  933 605 114 113 791  7 255 0
4  932 930 929 931  7 255 0
4  932 931 603 606  7 255 0
4  930 791 790 929  7 255 0
5  925 870 426 427 1094  29 255 0
4  927 921 922 925  29 255 0
3  924 857 455  255 87 0
4  926 899 857 924  255 87 0
4  925 1094 1045 927  29 255 0
4  260 616 535 261  255 240 0
4  260 663 747 255  160 255 0
4  295 563 564 23  255 240 0
4  866 611 665 940  0 189 255
4  295 866 940 294  0 189 255
4  861 163 162 860  255 131 0
4  861 156 155 1058  255 131 0
4  1058 164 163 861  255 131 0
4  1058 155 154 1056  255 131 0
3  456 457 905  255 87 0
4  923 952 951 920  29 255 0
4  920 1077 921 927  29 255 0
5  923 1084 1088 953 952  29 255 0
5  456 905 900 1075 420  255 87 0
4  920 1044 1084 923  29 255 0
4  271 1079 918 272  255 240 0
4  744 608 270 271  0 167 255
4  272 918 919 273  255 240 0
4  272 734 744 271  0 167 255
4  1079 278 277 918  255 240 0
4  918 277 276 919  255 240 0
4  938 937 947 950  247 255 0
4  1075 900 899 926  255 87 0
4  927 1045 1044 920  29 255 0
6  598 1070 466 467 620 599  255 196 0
4  1072 620 467 458  255 196 0
4  273 919 40 44  255 240 0
4  273 733 734 272  0 167 255
4  751 152 540 996  255 131 0
4  751 165 132 1056  255 131 0
4  1056 154 152 751  255 131 0
4  1056 132 164 1058  255 131 0
4  379 380 809 1059  0 145 255
4  378 367 372 379  255 21 0
4  1059 809 810 1054  0 145 255
4  1054 810 1081 813  0 145 255
4  1054 378 379 1059  0 145 255
4  119 117 922 921  29 255 0
4  225 194 195 223  0 123 255
4  223 195 876 224  0 123 255
4  891 944 225 223  255 87 0
5  920 951 1074 1078 1077  29 255 0
4  854 642 0 2  0 255 36
4  110 109 854 738  0 255 36
4  919 276 41 40  255 240 0
4  813 1081 987 814  0 145 255
4  377 373 367 378  255 21 0
4  813 377 378 1054  0 145 255
4  373 377 311 313  255 21 0
4  917 1063 1061 1067  0 255 189
4  373 730 917 367  0 255 189
4  121 122 594 857  0 102 255
4  857 594 454 455  0 102 255
4  123 121 857 899  0 102 255
4  821 818 446 447  0 80 255
4  2 0 818 821  0 80 255
4  1 2 821 820  0 80 255
4  893 280 279 916  255 240 0
4  893 285 284 822  255 240 0
4  916 286 285 893  255 240 0
4  342 340 914 915  0 255 58
4  913 646 645 648  255 131 0
4  362 363 897 911  255 218 0
4  403 404 863 910  0 255 80
4  402 90 392 403  255 21 0
5  771 772 402 403 910  0 255 80
6  615 186 11 475 476 909  255 109 0
4  474 475 11 185  255 109 0
4  908 185 11 10  225 255 0
4  614 10 11 186  138 255 0
4  906 1022 1021 907  0 102 255
4  907 1021 125 124  0 102 255
4  905 587 1022 906  0 102 255
5  907 124 900 905 906  0 102 255
4  903 874 873 904  0 80 255
4  904 873 4 3  0 80 255
4  904 3 898 903  0 80 255
4  902 803 802 901  0 58 255
4  691 588 387 388  0 58 255
4  88 87 803 902  0 58 255
4  901 802 588 691  0 58 255
4  902 901 691 88  0 58 255
4  124 123 899 900  0 102 255
4  3 1 820 898  0 80 255
4  364 369 375 317  255 21 0
4  363 364 786 897  255 218 0
3  894 238 239  0 255 123
4  693 894 239 240  0 255 123
5  694 240 239 895 896  160 255 0
4  822 281 280 893  255 240 0
4  822 284 34 33  255 240 0
4  819 818 0 5  0 80 255
4  224 876 202 199  0 123 255
4  892 891 223 224  255 87 0
5  798 746 660 549 797  160 255 0
4  890 745 746 798  160 255 0
4  872 819 5 4  0 80 255
4  245 247 728 886  0 233 255
4  889 486 485 888  160 255 0
4  81 484 621 84  0 36 255
4  889 888 789 695  160 255 0
5  888 485 560 561 887  160 255 0
5  54 264 263 885 53  0 14 255
4  16 17 306 305  7 0 255
4  484 305 306 621  0 36 255
5  54 55 265 235 264  0 14 255
6  888 887 850 243 242 789  160 255 0
6  264 850 887 561 262 263  160 255 0
4  484 482 304 305  0 36 255
4  16 305 304 15  7 0 255
6  886 728 290 291 283 593  0 233 255
4  886 593 568 245  0 233 255
4  263 262 607 885  0 14 255
4  53 885 607 52  0 14 255
5  291 290 28 30 529  29 0 255
3  291 529 283  29 0 255
4  422 52 50 884  255 240 0
5  884 534 48 42 422  255 240 0
4  884 50 51 261  255 240 0
4  22 24 297 296  50 0 255
4  296 297 639 882  0 189 255
5  23 564 19 18 22  255 240 0
3  22 296 23  50 0 255
4  261 51 262 883  160 255 0
4  261 535 534 884  255 240 0
4  883 262 561 688  160 255 0
4  688 561 560 687  160 255 0
4  883 688 662 261  160 255 0
4  867 612 611 866  0 189 255
4  882 639 612 867  0 189 255
4  296 882 867 23  0 189 255
4  44 40 39 45  255 240 0
4  685 586 585 684  0 167 255
4  274 267 586 685  0 167 255
4  274 685 686 44  0 167 255
4  146 147 1036 881  72 0 255
4  881 1036 823 880  72 0 255
4  880 823 824 1095  72 0 255
4  881 880 145 146  72 0 255
4  879 128 127 878  72 255 0
5  233 199 202 875 877  255 240 0
4  195 257 201 197  94 0 255
4  195 197 202 876  0 123 255
4  696 658 722 693  0 255 123
4  55 56 266 265  0 14 255
4  875 202 56 55  255 240 0
4  375 315 314 853  255 21 0
4  859 544 315 375  0 255 189
4  874 903 1040 1023  0 80 255
4  874 872 4 873  0 80 255
4  40 41 275 669  116 0 255
5  669 275 282 624 668  116 0 255
4  1095 824 833 785  72 0 255
4  785 833 170 169  72 0 255
4  1095 785 142 144  72 0 255
4  846 848 208 209  182 255 0
4  846 219 218 848  182 255 0
4  860 157 156 861  255 131 0
5  860 162 179 855 831  255 131 0
4  880 1095 144 145  72 0 255
4  871 870 118 120  29 255 0
4  334 332 868 869  0 255 211
4  302 220 218 249  255 240 0
4  303 219 14 21  255 240 0
4  303 249 218 219  255 240 0
4  650 254 249 303  255 43 0
4  302 249 254 812  255 65 0
4  261 662 663 260  160 255 0
4  23 867 866 295  0 189 255
4  634 546 278 279  138 0 255
4  630 634 279 280  138 0 255
4  44 686 733 273  0 167 255
4  45 39 38 46  255 240 0
4  46 47 562 865  160 0 255
4  865 562 267 274  160 0 255
3  46 865 45  160 0 255
4  864 862 1091 766  0 255 102
4  768 766 1091 863  0 255 80
4  631 642 107 108  0 255 36
4  816 637 717 788  0 255 167
4  788 717 181 180  0 255 167
4  816 788 163 164  0 255 167
4  859 375 369 858  0 255 189
4  427 433 112 428  255 87 0
4  428 112 432 429  255 87 0
4  428 1045 1094 427  29 255 0
4  457 451 587 905  0 102 255
4  412 413 431 430  255 0 0
4  430 423 953 1088  29 255 0
4  429 432 413 412  255 87 0
6  1088 1084 1044 429 412 430  29 255 0
4  1081 810 381 382  0 145 255
4  856 192 12 191  255 109 0
4  192 324 7 12  225 255 0
4  281 822 33 36  255 240 0
4  582 630 280 281  138 0 255
4  1078 119 921 1077  29 255 0
4  951 871 120 1074  29 255 0
4  33 34 283 626  29 0 255
4  626 283 529 625  29 0 255
4  1067 1061 371 372  0 255 189
4  367 917 1067 372  0 255 189
4  366 371 1061 1063  0 255 189
4  855 178 177 831  255 131 0
4  860 831 177 157  255 131 0
4  330 191 12 7  138 255 0
4  892 1055 941 891  255 87 0
4  123 740 1042 121  94 255 0
4  739 1066 1065 1051  94 255 0
4  739 1051 130 740  94 255 0
4  1051 1065 128 130  94 255 0
4  108 110 1048 793  0 255 36
4  737 632 793 1048  0 255 36
4  1048 110 738 737  0 255 36
4  429 1044 1045 428  29 255 0
4  449 452 419 418  255 87 0
4  418 419 451 450  255 0 0
4  450 443 1023 1040  0 80 255
6  1040 903 898 449 418 450  0 80 255
4  1 738 854 2  0 255 36
4  668 624 37 38  116 0 255
3  668 38 39  116 0 255
4  853 316 317 375  255 21 0
4  844 571 100 99  0 255 145
4  852 844 843 851  0 255 145
4  850 264 235 243  160 255 0
4  681 786 735 682  255 218 0
5  359 351 60 343 360  255 21 0
4  358 359 841 681  255 218 0
5  830 136 138 322 8  116 255 0
4  161 148 147 153  255 131 0
4  153 152 638 849  182 0 255
4  153 147 589 590  255 131 0
4  825 622 623 826  182 0 255
4  849 638 622 825  182 0 255
4  161 153 849 825  182 0 255
4  148 161 160 149  255 131 0
4  147 146 652 589  255 131 0
4  823 1036 147 148  72 0 255
3  79 796 77  204 0 255
6  1033 1032 811 253 252 835  255 65 0
5  79 77 252 649 82  255 43 0
4  1030 613 187 188  138 255 0
4  1030 964 614 613  138 255 0
4  443 440 416 417  255 0 0
4  444 439 102 445  255 87 0
4  417 416 439 444  255 87 0
6  1023 443 417 444 872 874  0 80 255
4  1018 698 697 989  225 0 255
4  989 697 962 716  225 0 255
4  169 170 698 1018  225 0 255
4  169 1018 989 143  225 0 255
4  131 138 670 135  0 255 167
4  131 135 1013 137  255 153 0
4  137 66 67 326  116 255 0
5  131 137 326 322 138  116 255 0
5  409 231 221 230 214  255 87 0
4  847 230 221 222  247 0 255
5  208 229 230 847 209  247 0 255
5  408 845 222 221 231  255 240 0
5  847 222 206 204 209  247 0 255
3  204 206 217  182 255 0
5  204 217 219 846 209  182 255 0
4  15 13 222 845  255 240 0
4  99 100 754 755  255 0 240
4  839 570 569 843  0 255 145
4  99 839 843 844  0 255 145
4  601 543 60 351  255 196 0
4  343 60 543 842  255 196 0
4  359 360 840 841  255 218 0
4  787 672 570 839  0 255 145
4  97 787 839 99  0 255 145
4  672 787 438 437  0 255 145
4  101 100 570 672  0 255 145
4  838 837 569 571  0 255 145
3  835 252 77  255 65 0
4  834 580 176 175  182 0 255
4  826 623 580 834  182 0 255
4  159 150 149 160  255 131 0
4  159 160 826 834  182 0 255
4  150 159 158 151  255 131 0
4  833 824 149 150  72 0 255
4  310 312 313 311  255 21 0
4  376 383 308 310  255 0 218
3  376 310 311  255 0 218
3  327 830 8  116 255 0
4  287 828 827 288  255 240 0
4  288 827 800 289  255 240 0
4  288 801 829 287  0 233 255
4  828 293 299 827  255 240 0
4  827 299 298 800  255 240 0
4  160 161 825 826  182 0 255
4  824 823 148 149  72 0 255
4  447 454 453 448  255 87 0
4  448 453 452 449  255 87 0
4  448 820 821 447  0 80 255
4  445 102 437 446  255 87 0
4  819 445 446 818  0 80 255
4  89 86 388 393  255 21 0
4  91 89 393 817  0 211 255
4  133 816 164 132  0 255 167
4  814 987 653 815  0 145 255
4  815 653 383 376  0 145 255
4  815 376 311 814  0 145 255
4  814 311 377 813  0 145 255
3  649 252 253  255 43 0
4  650 649 253 254  255 43 0
4  812 254 253 811  255 65 0
4  810 809 380 381  0 145 255
4  808 347 59 348  255 21 0
5  463 61 59 347 807  255 174 0
6  348 59 61 464 805 806  203 255 0
4  743 609 608 744  0 167 255
4  731 566 609 743  0 167 255
4  803 87 588 802  0 58 255
4  289 800 26 29  255 240 0
4  289 246 801 288  0 233 255
4  800 298 27 26  255 240 0
4  449 898 820 448  0 80 255
4  872 444 445 819  0 80 255
4  797 549 548 486  160 255 0
4  486 548 560 485  160 255 0
4  796 79 80 942  204 0 255
4  248 77 78 251  255 43 0
4  77 796 942 78  204 0 255
5  244 246 718 619 618  0 255 255
4  661 548 549 660  160 255 0
4  90 402 104 394  255 21 0
4  92 794 392 90  0 211 255
4  632 631 108 793  0 255 36
4  32 35 36 33  255 240 0
4  625 529 30 31  29 0 255
4  31 37 35 32  255 240 0
3  625 31 32  29 0 255
4  792 674 673 705  7 255 0
4  605 604 792 114  7 255 0
4  113 114 656 654  255 0 196
4  113 674 790 791  7 255 0
4  591 551 550 592  138 0 255
4  282 275 551 591  138 0 255
4  591 583 36 282  138 0 255
4  755 754 753 756  255 0 240
4  721 97 99 755  255 0 240
4  664 754 100 101  255 0 240
4  675 243 235 265  0 255 123
4  675 659 658 696  0 255 123
3  675 242 243  0 255 123
4  675 696 241 242  0 255 123
4  789 242 241 695  160 255 0
4  180 181 1071 758  255 0 174
4  788 180 162 163  0 255 167
4  21 14 969 304  7 0 255
4  98 116 434 438  255 87 0
4  97 98 438 787  0 255 145
4  364 317 735 786  255 218 0
4  785 169 143 142  72 0 255
4  742 307 250 741  255 240 0
4  784 301 307 742  255 240 0
4  747 663 660 746  160 255 0
4  583 582 281 36  138 0 255
4  752 1053 678 760  255 131 0
4  760 678 677 761  255 131 0
4  760 333 331 752  255 131 0
4  783 627 544 729  0 255 189
4  729 544 545 730  0 255 189
4  368 374 627 783  0 255 189
4  368 783 729 313  0 255 189
4  519 490 641 774  255 131 0
4  341 774 641 342  255 131 0
4  334 333 759 1080  255 131 0
4  781 406 106 779  255 21 0
4  91 92 762 763  255 0 152
4  87 88 1007 610  255 0 131
4  770 769 105 103  0 255 80
4  770 103 772 771  0 255 80
4  402 772 103 104  0 255 80
4  337 338 778 777  255 0 109
4  337 777 93 95  255 0 109
4  338 337 500 496  255 131 0
4  338 96 94 778  255 0 109
4  778 94 93 777  255 0 109
4  776 773 1082 507  255 131 0
4  513 495 498 514  255 131 0
4  761 677 495 513  255 131 0
4  512 508 1080 759  255 131 0
4  513 512 759 761  255 131 0
4  770 764 767 769  0 255 80
4  771 765 764 770  0 255 80
4  769 767 766 768  0 255 80
4  767 764 765 766  0 255 80
4  399 389 86 89  255 21 0
4  763 399 89 91  255 0 152
4  394 104 400 395  255 21 0
4  762 92 90 394  255 0 152
4  761 759 333 760  255 131 0
4  758 1071 991 757  255 0 174
4  757 991 182 179  255 0 174
4  180 758 757 162  255 0 174
4  756 753 666 725  255 0 240
4  725 666 667 726  255 0 240
4  725 721 755 756  255 0 240
4  666 753 754 664  255 0 240
3  37 624 35  116 0 255
4  312 314 374 368  255 0 87
3  312 368 313  255 0 87
4  748 747 746 745  160 255 0
4  744 734 731 743  0 167 255
4  741 250 20 19  255 240 0
4  3 4 632 737  0 255 36
4  124 125 1066 739  94 255 0
4  124 739 740 123  94 255 0
4  3 737 738 1  0 255 36
4  736 1096 682 735  255 218 0
4  365 357 1096 736  255 218 0
4  317 365 736 735  255 218 0
4  732 554 566 731  0 167 255
4  734 733 732 731  0 167 255
4  313 729 730 373  0 255 189
4  29 26 25 28  255 240 0
4  290 728 247 29  0 233 255
4  26 27 297 727  50 0 255
4  727 297 24 25  50 0 255
4  442 435 116 98  255 87 0
4  415 414 435 442  255 87 0
4  726 667 440 441  255 0 240
4  441 436 414 415  255 0 0
6  726 441 415 442 721 725  255 0 240
4  436 431 1062 724  255 0 196
4  724 1062 983 723  255 0 196
4  723 983 982 984  255 0 196
6  724 723 657 435 414 436  255 0 196
5  56 202 197 201 57  255 240 0
4  658 57 201 722  0 255 123
4  13 15 304 969  7 0 255
6  13 14 219 217 206 222  255 240 0
4  721 442 98 97  255 0 240
4  628 49 43 48  255 240 0
4  628 535 616 671  255 240 0
4  720 270 269 719  255 240 0
4  719 269 268 671  255 240 0
4  581 532 531 629  138 0 255
4  629 531 547 633  138 0 255
4  532 581 584 541  138 0 255
4  717 637 139 140  0 255 167
4  72 140 139 71  116 255 0
4  716 962 172 168  225 0 255
3  167 716 168  225 0 255
3  308 383 309  255 0 218
3  349 348 806  203 255 0
4  987 1081 382 309  0 145 255
4  710 595 558 711  255 0 65
4  175 176 595 710  255 0 65
4  711 558 557 958  255 0 65
4  711 158 175 710  255 0 65
4  705 673 433 434  7 255 0
4  116 115 705 434  7 255 0
4  111 112 433 673  7 255 0
4  633 547 546 634  138 0 255
4  680 679 127 128  94 255 0
5  53 700 699 421 232  255 0 0
5  151 158 173 1028 171  255 131 0
4  698 170 151 697  225 0 255
4  696 693 240 241  0 255 123
4  695 241 240 694  160 255 0
3  28 290 29  29 0 255
3  26 727 25  50 0 255
4  357 365 316 318  255 0 43
4  357 635 320 321  255 0 43
4  321 320 552 358  255 21 0
4  357 321 682 1096  255 218 0
4  106 105 999 405  0 255 80
4  19 20 306 1085  7 0 255
4  19 564 563 741  255 240 0
4  1085 306 17 18  7 0 255
3  19 1085 18  7 0 255
4  507 1082 1080 508  255 131 0
4  692 651 643 689  255 131 0
4  689 643 640 690  255 131 0
4  689 95 335 692  255 131 0
4  435 657 115 116  255 0 196
4  655 432 112 111  255 0 196
4  769 768 999 105  0 255 80
4  45 865 274 44  160 0 255
4  671 268 49 628  255 240 0
4  73 993 992 182  255 131 0
5  1071 181 141 73 991  255 0 174
4  1066 680 128 1065  94 255 0
6  1062 431 413 432 655 983  255 0 196
4  158 159 834 175  182 0 255
4  170 833 150 151  72 0 255
4  29 247 246 289  0 233 255
4  678 1053 336 96  255 131 0
4  1082 946 334 1080  255 131 0
4  482 83 21 304  0 36 255
5  514 498 502 1025 1050  255 131 0
4  578 594 122 126  0 102 255
4  1039 133 132 165  255 153 0
4  88 691 388 86  0 58 255
4  690 640 489 501  255 131 0
4  690 337 95 689  255 131 0
4  687 560 548 661  160 255 0
4  662 688 687 661  160 255 0
4  684 585 555 683  0 167 255
4  683 555 554 732  0 167 255
4  686 685 684 683  0 167 255
4  321 358 681 682  255 218 0
4  680 126 122 679  94 255 0
3  316 365 317  255 0 43
4  677 678 96 338  255 131 0
4  181 717 140 141  0 255 167
4  73 141 140 72  116 255 0
4  48 43 562 1034  160 0 255
4  48 534 535 628  255 240 0
4  1034 562 47 42  160 0 255
3  1034 42 48  160 0 255
4  1027 172 171 1028  255 131 0
4  501 489 492 502  255 131 0
4  1028 173 174 1027  255 131 0
5  587 579 125 1021 1022  0 102 255
4  763 762 515 517  255 0 152
4  104 103 506 400  255 0 21
4  398 390 389 399  255 21 0
4  517 398 399 763  255 0 152
4  395 400 401 396  255 21 0
4  515 762 394 395  255 0 152
4  103 105 504 506  255 0 21
4  406 504 105 106  255 0 21
4  390 398 397 391  255 21 0
4  493 487 610 1007  255 0 131
4  493 1007 389 390  255 0 131
4  675 265 266 659  0 255 123
4  501 500 337 690  255 131 0
4  495 677 338 496  255 131 0
4  579 578 126 125  0 102 255
3  247 718 246  0 255 255
4  565 269 270 608  0 167 255
5  768 863 404 405 999  0 255 80
4  318 319 635 357  255 0 43
4  1066 125 126 680  94 255 0
4  1007 88 86 389  255 0 131
4  665 299 293 804  0 189 255
3  162 757 179  255 0 174
3  991 73 182  255 0 174
4  143 989 716 167  225 0 255
4  115 114 792 705  7 255 0
4  111 673 674 113  7 255 0
4  102 101 672 437  0 255 145
4  553 268 269 565  0 167 255
4  83 650 303 21  255 43 0
4  636 670 138 136  0 255 167
4  40 669 668 39  116 0 255
6  667 666 664 439 416 440  255 0 240
4  611 298 299 665  0 189 255
4  439 664 101 102  255 0 240
4  663 662 661 660  160 255 0
4  659 266 57 658  0 255 123
3  56 57 266  0 14 255
4  657 656 114 115  255 0 196
4  654 656 984 982  255 0 196
4  655 111 113 654  255 0 196
4  653 987 309 383  0 145 255
4  723 984 656 657  255 0 196
4  983 655 654 982  255 0 196
4  979 856 191 190  255 109 0
4  329 190 191 330  138 255 0
4  871 425 426 870  29 255 0
3  13 969 14  7 0 255
4  733 686 683 732  0 167 255
4  958 557 178 174  255 0 65
3  958 174 173  255 0 65
3  962 171 172  225 0 255
4  958 173 158 711  255 0 65
4  697 151 171 962  225 0 255
4  957 307 301 1093  255 65 0
4  951 424 425 871  29 255 0
3  374 314 315  255 0 87
4  251 250 307 957  255 65 0
6  953 423 411 424 951 952  29 255 0
4  946 945 332 334  255 131 0
3  942 80 78  204 0 255
4  251 78 80 84  255 43 0
4  643 651 340 342  255 131 0
4  83 82 649 650  255 43 0
4  528 285 286 525  0 233 255
4  640 643 342 641  255 131 0
4  556 49 268 553  0 167 255
4  631 5 0 642  0 255 36
4  489 640 641 490  255 131 0
4  639 297 27 612  0 189 255
4  152 153 590 540  255 131 0
4  622 638 152 154  182 0 255
4  567 284 285 528  0 233 255
4  637 636 136 139  0 255 167
4  71 139 136 64  116 255 0
4  530 277 278 546  138 0 255
3  635 319 320  255 0 43
4  629 633 634 630  138 0 255
4  632 4 5 631  0 255 36
4  581 629 630 582  138 0 255
4  580 623 155 156  182 0 255
4  627 374 315 544  0 255 189
4  33 626 625 32  29 0 255
4  282 36 35 624  116 0 255
4  623 622 154 155  182 0 255
4  621 306 20 84  0 36 255
3  557 177 178  255 0 65
3  50 52 607  0 14 255
3  619 617 618  0 255 255
4  533 276 277 530  138 0 255
4  586 267 49 556  0 167 255
3  615 187 186  255 109 0
4  614 186 187 613  138 255 0
4  612 27 298 611  0 189 255
4  84 20 250 251  255 43 0
4  610 386 85 87  255 0 131
4  487 384 386 610  255 0 131
4  565 608 609 566  0 167 255
4  50 607 262 51  0 14 255
4  606 603 604 605  7 255 0
4  602 600 599 601  255 196 0
3  600 598 599  255 196 0
4  551 275 41 542  138 0 255
4  595 176 157 558  255 0 65
4  578 453 454 594  0 102 255
4  593 283 34 568  0 233 255
4  592 550 541 584  138 0 255
4  592 584 583 591  138 0 255
4  542 41 276 533  138 0 255
4  87 85 387 588  0 58 255
5  587 451 419 452 579  0 102 255
4  586 556 555 585  0 167 255
4  584 581 582 583  138 0 255
4  176 580 156 157  182 0 255
4  579 452 453 578  0 102 255
5  573 572 397 396 401  255 21 0
4  571 569 570 100  0 255 145
4  568 34 284 567  0 233 255
4  553 565 566 554  0 167 255
4  562 43 49 267  160 0 255
3  137 65 66  116 255 0
4  558 157 177 557  255 0 65
4  556 553 554 555  0 167 255
4  551 542 541 550  138 0 255
4  530 546 547 531  138 0 255
4  542 533 532 541  138 0 255
4  538 536 537 539  255 109 0
4  533 530 531 532  138 0 255
4  528 525 526 527  0 233 255
4  524 521 520 519  255 131 0
4  514 510 509 511  255 131 0
4  502 498 497 499  255 131 0
4  521 492 491 520  255 131 0
4  517 515 516 518  255 0 152
4  487 493 494 488  255 0 131
4  520 491 490 519  255 131 0
4  496 500 499 497  255 131 0
4  508 512 511 509  255 131 0
4  401 505 503 407  255 0 21
4  400 506 505 401  255 0 21
4  518 516 396 397  255 0 152
4  518 397 398 517  255 0 152
4  516 515 395 396  255 0 152
4  514 511 512 513  255 131 0
4  510 507 508 509  255 131 0
4  506 504 503 505  255 0 21
4  407 503 504 406  255 0 21
4  502 499 500 501  255 131 0
4  498 495 496 497  255 131 0
4  391 385 488 494  255 0 131
4  494 493 390 391  255 0 131
4  492 489 490 491  255 131 0
4  488 385 384 487  255 0 131
4  81 79 483 484  0 36 255
4  484 483 481 482  0 36 255
4  483 79 82 481  0 36 255
4  482 481 82 83  0 36 255
13  480 469 468 470 471 472 473 474 475 476 477 478 479  255 87 0
13  469 480 479 478 477 476 475 474 473 472 471 470 468  255 109 0
7  467 458 355 63 353 465 466  247 255 0
7  458 467 466 465 353 63 355  255 196 0
4  213 353 63 62  247 255 0
4  353 213 62 63  203 255 0
4  464 213 62 61  255 87 0
4  213 464 61 62  203 255 0
7  463 61 212 210 460 461 462  255 87 0
7  61 463 462 461 460 210 212  255 174 0
4  356 210 212 355  247 255 0
4  210 356 355 212  255 174 0
4  459 356 355 458  247 255 0
4  356 459 458 355  255 196 0
3  61 212 62  255 174 0
4  457 451 419 1083  255 0 0
4  451 457 1083 419  0 102 255
4  456 457 1083 420  255 0 0
4  457 456 420 1083  255 87 0
6  454 455 1083 419 452 453  255 87 0
6  455 454 453 452 419 1083  0 102 255
4  450 443 417 418  255 0 0
4  443 450 418 417  0 80 255
8  449 418 417 444 445 446 447 448  255 87 0
8  418 449 448 447 446 445 444 417  0 80 255
4  98 438 437 102  255 87 0
4  438 98 102 437  0 255 145
6  442 98 102 439 416 415  255 87 0
6  98 442 415 416 439 102  255 0 240
4  441 415 416 440  255 0 0
4  415 441 440 416  255 0 240
4  436 431 413 414  255 0 0
4  431 436 414 413  255 0 196
6  435 414 413 432 112 116  255 87 0
6  414 435 116 112 432 413  255 0 196
4  434 116 112 433  255 87 0
4  116 434 433 112  7 255 0
4  430 423 411 412  255 0 0
4  423 430 412 411  29 255 0
8  429 412 411 424 425 426 427 428  255 87 0
8  412 429 428 427 426 425 424 411  29 255 0
20  17 16 408 231 232 53 52 422 42 47 46 38 37 31 30 28 25 24 22 18  255 240 0
20  16 17 18 22 24 25 28 30 31 37 38 46 47 42 422 52 53 232 231 408  255 0 0
16  421 232 231 409 410 411 412 413 414 415 416 417 418 419 1083 420  255 87 0
16  421 420 1083 419 418 417 416 415 414 413 412 411 410 409 231 232  255 0 0
6  407 401 400 104 106 406  255 21 0
6  401 407 406 106 104 400  255 0 21
6  405 106 104 402 403 404  255 21 0
6  106 405 404 403 402 104  0 255 80
4  89 393 392 90  255 21 0
4  393 89 90 392  0 211 255
8  399 89 90 394 395 396 397 398  255 21 0
8  89 399 398 397 396 395 394 90  255 0 152
8  391 385 384 386 85 86 389 390  255 21 0
8  385 391 390 389 86 85 386 384  255 0 131
4  388 86 85 387  255 21 0
4  86 388 387 85  0 58 255
4  355 212 62 63  247 255 0
4  355 63 62 212  255 174 0
4  383 376 311 309  255 0 218
4  376 383 309 311  0 145 255
8  382 309 311 377 378 379 380 381  255 21 0
8  309 382 381 380 379 378 377 311  0 145 255
7  369 370 366 367 373 313 315  255 21 0
7  370 369 315 313 373 367 366  0 255 189
3  375 369 315  255 21 0
3  369 375 315  0 255 189
3  374 315 368  255 0 87
3  315 374 368  0 255 189
3  313 368 315  255 0 87
3  368 313 315  0 255 189
4  372 367 366 371  255 21 0
4  367 372 371 366  0 255 189
4  365 357 321 317  255 0 43
4  357 365 317 321  255 218 0
9  364 317 321 358 359 360 361 362 363  255 21 0
9  317 364 363 362 361 360 359 358 321  255 218 0
5  352 354 353 63 60  203 255 0
5  354 352 60 63 353  255 196 0
4  350 352 60 351  203 255 0
4  352 350 351 60  255 196 0
5  343 60 63 355 356  255 174 0
5  60 343 356 355 63  255 196 0
3  60 343 59  255 174 0
3  343 60 59  255 21 0
6  351 60 59 348 349 350  203 255 0
6  60 351 350 349 348 59  255 21 0
6  347 59 343 344 345 346  255 174 0
6  59 347 346 345 344 343  255 21 0
4  342 340 339 341  255 131 0
4  340 342 341 339  0 255 58
4  96 336 335 95  255 131 0
4  336 96 95 335  0 255 233
4  338 96 95 337  255 131 0
4  96 338 337 95  255 0 109
4  334 332 331 333  255 131 0
4  332 334 333 331  0 255 211
6  7 324 323 325 67 68  225 255 0
6  324 7 68 67 325 323  255 131 0
5  330 7 69 328 329  138 255 0
5  7 330 329 328 69  255 131 0
4  327 69 6 8  138 255 0
4  69 327 8 6  116 255 0
4  322 8 6 68  225 255 0
4  8 322 68 6  116 255 0
4  326 322 68 67  225 255 0
4  322 326 67 68  116 255 0
3  69 7 6  138 255 0
3  7 69 6  255 131 0
3  7 68 6  225 255 0
6  321 317 316 318 319 320  255 21 0
6  317 321 320 319 318 316  255 0 43
4  315 313 312 314  255 21 0
4  313 315 314 312  255 0 87
4  311 309 308 310  255 21 0
4  309 311 310 308  255 0 218
4  257 195 194 256  94 0 255
4  256 194 196 198  94 0 255
6  258 237 198 196 200 226  255 240 0
6  307 301 300 302 249 250  255 240 0
6  301 307 250 249 302 300  255 65 0
5  20 250 249 303 21  255 240 0
5  250 20 21 303 249  255 43 0
5  306 20 21 304 305  7 0 255
5  20 306 305 304 21  0 36 255
8  299 293 292 294 295 23 27 298  255 240 0
8  293 299 298 27 23 295 294 292  0 189 255
4  297 27 23 296  50 0 255
4  27 297 296 23  0 189 255
5  291 283 34 29 290  29 0 255
5  283 291 290 29 34  0 233 255
8  289 29 34 284 285 286 287 288  255 240 0
8  29 289 288 287 286 285 284 34  0 233 255
4  282 275 41 36  116 0 255
4  275 282 36 41  138 0 255
8  281 36 41 276 277 278 279 280  255 240 0
8  36 281 280 279 278 277 276 41  138 0 255
4  274 267 49 44  160 0 255
4  267 274 44 49  0 167 255
8  273 44 49 268 269 270 271 272  255 240 0
8  44 273 272 271 270 269 268 49  0 167 255
4  201 257 256 198  94 0 255
4  257 201 198 256  0 255 123
4  57 201 234 58  255 240 0
4  201 57 58 234  0 255 123
5  266 57 58 235 265  0 14 255
5  57 266 265 235 58  0 255 123
6  264 235 58 51 262 263  0 14 255
6  264 263 262 51 58 235  160 255 0
6  261 51 234 236 255 260  255 240 0
6  51 261 260 255 236 234  160 255 0
5  259 255 236 237 258  255 240 0
5  255 259 258 237 236  160 255 0
3  201 234 236  0 255 123
3  51 234 58  160 255 0
3  201 236 234  255 240 0
4  201 236 237 198  0 255 123
6  254 249 248 77 252 253  255 65 0
6  249 254 253 252 77 248  255 43 0
4  251 248 249 250  255 65 0
4  248 251 250 249  255 43 0
4  247 245 244 246  0 233 255
4  245 247 246 244  0 255 255
3  234 51 58  255 240 0
4  236 201 198 237  255 240 0
11  243 235 58 234 236 237 238 239 240 241 242  160 255 0
11  235 243 242 241 240 239 238 237 236 234 58  0 255 123
4  228 203 207 216  247 0 255
4  229 208 203 228  247 0 255
4  225 200 196 194  0 123 255
9  233 199 200 226 227 216 221 231 232  255 87 0
5  224 199 200 225 223  0 123 255
9  233 232 231 221 216 227 226 200 199  255 240 0
5  230 221 216 228 229  255 87 0
5  230 229 228 216 221  247 0 255
5  225 200 199 224 223  255 87 0
6  217 219 218 220 207 205  255 240 0
6  219 217 205 207 220 218  182 255 0
3  206 217 205  255 240 0
3  217 206 205  182 255 0
4  222 206 216 221  255 240 0
4  206 222 221 216  247 0 255
3  216 207 205  247 0 255
3  216 205 207  255 240 0
3  216 205 206  247 0 255
3  216 206 205  255 240 0
3  212 61 62  255 87 0
7  215 211 210 212 62 213 214  255 87 0
7  211 215 214 213 62 212 210  247 255 0
5  204 206 205 207 203  247 0 255
5  206 204 203 207 205  182 255 0
4  209 204 203 208  247 0 255
4  204 209 208 203  182 255 0
3  202 199 197  255 240 0
3  199 202 197  0 123 255
3  201 197 198  255 240 0
3  197 201 198  94 0 255
4  200 196 197 199  255 240 0
3  198 196 197  94 0 255
4  200 199 197 196  0 123 255
3  198 197 196  255 240 0
4  197 195 194 196  0 123 255
4  195 197 196 194  94 0 255
7  193 184 183 185 11 12 192  255 109 0
7  184 193 192 12 11 185 183  225 255 0
8  191 12 11 186 187 188 189 190  255 109 0
8  12 191 190 189 188 187 186 11  138 255 0
5  182 179 162 74 73  255 131 0
5  179 182 73 74 162  255 0 174
5  181 141 74 162 180  0 255 167
3  73 141 74  255 0 174
5  181 180 162 74 141  255 0 174
6  178 174 173 158 157 177  255 131 0
6  174 178 177 157 158 173  255 0 65
4  176 157 158 175  182 0 255
4  157 176 175 158  255 0 65
6  172 168 167 143 151 171  255 131 0
6  168 172 171 151 143 167  225 0 255
4  170 151 143 169  72 0 255
4  151 170 169 143  225 0 255
3  68 7 6  255 131 0
3  73 74 141  116 255 0
3  162 74 75  0 255 167
5  166 65 76 132 165  255 131 0
5  65 166 165 132 76  255 153 0
6  164 132 76 75 162 163  255 131 0
6  132 164 163 162 75 76  0 255 167
3  162 75 74  255 131 0
10  161 153 152 154 155 156 157 158 159 160  255 131 0
10  153 161 160 159 158 157 156 155 154 152  182 0 255
10  151 143 142 144 145 146 147 148 149 150  255 131 0
10  143 151 150 149 148 147 146 145 144 142  72 0 255
8  75 76 131 136 139 140 141 74  116 255 0
3  65 76 131  255 153 0
8  75 74 141 140 139 136 131 76  0 255 167
3  138 136 131  116 255 0
3  136 138 131  0 255 167
3  137 131 65  116 255 0
3  131 137 65  255 153 0
3  65 131 76  116 255 0
6  135 131 76 132 133 134  255 153 0
6  131 135 134 133 132 76  0 255 167
4  130 128 127 129  94 255 0
4  128 130 129 127  72 255 0
6  126 122 121 123 124 125  0 102 255
6  122 126 125 124 123 121  94 255 0
4  120 118 117 119  29 255 0
4  118 120 119 117  51 255 0
6  116 112 111 113 114 115  7 255 0
6  112 116 115 114 113 111  255 0 196
4  110 108 107 109  0 255 36
4  108 110 109 107  0 255 14
4  106 104 103 105  0 255 80
4  104 106 105 103  255 0 21
6  102 98 97 99 100 101  0 255 145
6  98 102 101 100 99 97  255 0 240
4  96 94 93 95  0 255 233
4  94 96 95 93  255 0 109
4  92 90 89 91  0 211 255
4  90 92 91 89  255 0 152
4  88 86 85 87  0 58 255
4  86 88 87 85  255 0 131
3  79 82 81  255 43 0
3  82 79 81  0 36 255
3  84 81 20  255 43 0
3  81 84 20  0 36 255
5  21 20 81 82 83  255 43 0
5  20 21 83 82 81  0 36 255
4  80 78 77 79  255 43 0
4  78 80 79 77  204 0 255
8  76 65 64 71 72 73 74 75  255 131 0
8  65 76 75 74 73 72 71 64  116 255 0
8  70 64 65 66 67 68 6 69  255 131 0
8  64 70 69 6 68 67 66 65  116 255 0
5  63 60 59 61 62  255 174 0
5  60 63 62 61 59  203 255 0
9  58 51 50 52 53 54 55 56 57  255 240 0
9  51 58 57 56 55 54 53 52 50  0 14 255
3  49 44 43  255 240 0
3  44 49 43  160 0 255
3  48 43 42  255 240 0
3  43 48 42  160 0 255
6  47 42 43 44 45 46  255 240 0
6  42 47 46 45 44 43  160 0 255
7  41 36 35 37 38 39 40  255 240 0
7  36 41 40 39 38 37 35  116 0 255
7  34 29 28 30 31 32 33  255 240 0
7  29 34 33 32 31 30 28  29 0 255
6  27 23 22 24 25 26  255 240 0
6  23 27 26 25 24 22  50 0 255
9  21 14 13 15 16 17 18 19 20  255 240 0
9  14 21 20 19 18 17 16 15 13  7 0 255
7  12 7 6 8 9 10 11  225 255 0
7  7 12 11 10 9 8 6  138 255 0
6  5 0 2 1 3 4  0 80 255
6  0 5 4 3 1 2  0 255 36
4  766 765 1089 1091  0 255 80
4  765 766 1091 1089  0 255 102
7  457 905 900 899 857 455 1083  0 102 255
7  905 457 1083 455 857 899 900  255 87 0

