OFF
699 755 0

-3.11737 -11.3729 90.9743
-3.11761 -11.3737 92.0847
-3.11732 -11.3727 90.7401
-3.11457 -11.3629 78.3375
-1.99836 -7.39417 78.3375
-1.99861 -7.39504 82.4495
-1.99932 -7.39759 94.498
-2.72839 -9.98983 92.9247
-2.74722 -10.0568 92.884
-14.2804 1.79582 78.3375
-12.0152 10.1635 78.3375
-14.87 -0.382146 78.3375
-14.6499 0.430755 78.3375
-14.8957 -0.477009 78.3375
-15.6192 -3.14981 78.3375
-11.6018 11.7195 86.4773
-11.5834 11.7873 86.4302
0.159999 0.28 99.4715
2.63423 7.93313 94.2822
-0.195457 -0.983847 100.347
-0.195458 -0.983847 100.347
-2.32699 -0.348027 99.1236
-13.1034 3.96001 92.08
-13.6652 4.11589 91.7669
-12.3158 9.08838 88.3077
-11.8151 10.9336 87.0241
-11.7055 11.8204 86.3628
-11.04 11.64 86.7303
-10.1075 11.3872 87.2453
3.33269 7.74379 94.6679
2.45795 3.2619 97.9015
1.96493 0.73579 99.724
1.78973 -0.161897 100.372
1.77486 -0.168053 100.371
0.965304 -0.503242 100.361
2.25212 8.03671 94.5079
2.33524 8.01418 94.4588
5.95734 7.03229 78.3375
15.52 4.44 78.3375
2.33524 8.01418 78.3375
-1.39319 9.0249 78.3375
-11.04 11.64 78.3375
-11.04 11.64 86.6973
-7.42079 10.6589 88.824
2.33524 8.01418 94.5568
13.882 4.88403 87.6362
15.4496 4.45908 86.7099
15.52 4.44 86.6683
-8.26588 17.1882 75.6225
-5.32233 -6.49519 75.6225
-1.39319 9.0249 75.6225
-15.6372 -10.1101 75.6225
-6.83194 -12.4581 75.6225
-19.1878 -9.16326 75.6225
-22.8 -8.2 75.6225
-25.2359 -7.55043 75.6225
-24.9275 -6.38579 75.6225
-24.9182 -6.35083 75.6225
-24.8337 -6.03153 75.6225
-24.7105 -5.56647 75.6225
-24.3098 -4.05327 75.6225
-23.6451 -1.54313 75.6225
-21.5659 6.308 75.6225
5.95734 7.03229 75.6225
0.0207382 -14.2855 44.2875
4.40357 1.45283 44.2875
3.84301 -0.560103 44.2875
4.86117 3.09601 44.2875
7.60685 12.9555 44.2875
4.75998 2.73265 78.3375
5.85803 6.67566 44.2875
-18.2468 18.8416 44.2875
-24.3098 -4.05327 69.8375
-18.8778 16.4589 69.8375
-25.2359 -7.55043 44.2875
-25.2359 -7.55043 69.8375
-24.9761 -6.56926 44.2875
-24.9382 -6.42641 44.2875
-24.9074 -6.31001 44.2875
-24.8404 -6.05704 44.2875
-23.272 -0.134534 44.2875
-22.0145 4.61412 44.2875
-18.2468 18.8416 69.8375
-18.8778 16.4589 75.6225
-19.5435 13.9452 75.6225
-20.0432 12.0582 75.6225
-24.9182 -6.35083 69.8375
8.31842 -16.4982 75.6225
0.0207382 -14.2855 75.6225
10.1462 -16.9857 75.6225
12.1926 -17.5314 75.6225
18.3946 -18.1187 44.2875
20.96 -16.2 44.2875
11.2029 -20.8304 44.2875
-19.8594 -11.7145 44.2875
-23.3219 -9.99767 44.2875
-22.8 -8.2 44.2875
15.7544 -18.4812 44.2875
11.2962 -20.5194 44.2875
-27.1867 -7.03021 44.2875
-15.5647 19.1346 44.2875
-11.263 21.0193 44.2875
20.1784 12.6153 44.2875
23.04 8.84 44.2875
25.0917 7.00826 44.2875
26.384 4.13999 44.2875
-26.88 -5.88 44.2875
-25.8457 -7.3878 44.2875
-15.2803 -3.80449 78.3375
-6.54002 -11.3051 78.3375
-5.32247 -6.49577 78.3375
-8.72403 16.2719 78.3375
-9.10881 15.5024 78.3375
-0.150448 13.9337 78.3375
15.92 3.8 78.3375
16.0573 4.29434 78.3375
19.711 1.78353 78.3375
17.9622 -4.65933 78.3375
16.3056 -10.7624 78.3375
15.9064 -12.2333 78.3375
11.9173 -11.1551 78.3375
11.7764 -11.1171 78.3375
10.68 -15.064 78.3375
0.560075 -12.3488 78.3375
1.66419 -8.38405 78.3375
-5.79509 -8.3626 78.3375
-6.33586 -10.4987 78.3375
-15.5682 -8.89126 78.3375
-15.5197 -8.03464 78.3375
-15.635 -3.70863 78.3375
-15.7612 -3.6745 78.3375
-19.462 -1.11078 78.3375
24.9681 6.54467 78.3375
24.9681 6.54467 75.6225
24.8925 6.26081 75.6225
24.8927 6.26161 78.3375
15.7549 10.7827 75.6225
15.7549 10.7827 77.6174
20.8065 3.00693 78.3375
21.5311 5.67675 78.3375
15.7529 10.728 78.3375
15.7114 9.60788 78.3375
-0.778394 11.4533 75.6225
-0.830204 11.2487 78.3375
3.26678 11.3263 75.6225
3.20927 11.1219 78.3375
20.3157 -10.911 75.6225
20.3157 -10.911 78.3375
17.0615 -10.7904 78.3375
23.2039 -0.0744334 78.3375
20.3781 1.42869 78.3375
23.2039 -0.0744334 75.6225
-20.0974 11.8536 78.3375
-16.7568 11.7487 78.3375
24.489 4.74725 78.3375
24.489 4.74725 75.6225
19.0343 -15.7186 78.3375
15.7702 -14.9026 78.3375
-5.79509 -8.3626 75.6225
-12.0528 18.1981 78.3375
-12.5459 16.4365 78.3375
15.6803 8.76735 84.8139
15.6803 8.7672 84.3453
15.5212 4.47231 86.6545
-13.4178 5.03196 92.4284
-13.6652 4.1159 91.788
8.31842 -16.4982 78.3375
8.90664 -15.4349 78.3375
-1.30426 -7.58553 94.9059
1.60266 -1.12314 99.5885
-8.46253 16.7949 78.3375
-8.26588 17.1882 78.3375
15.4311 2.04 88.8922
15.4311 2.04 87.9622
15.92 3.8 87.5136
15.92 3.8 86.728
18.6721 -4.85632 78.3375
16.6176 -12.4255 78.3375
-20.5889 -2.36972 78.3375
-21.3436 -5.15021 78.3375
-14.6636 4.39289 91.2105
15.9875 10.7207 78.3375
15.1107 10.9545 75.6225
-24.7111 -5.56861 78.3375
-24.8337 -6.03153 78.3375
7.08999 11.0995 77.0279
7.06253 11.0009 78.3375
6.64395 11.2203 75.6225
7.08988 11.0991 75.6225
7.0901 11.0999 78.3375
6.4587 8.83261 78.3375
3.00662 0.998844 98.7928
14.1769 -2.47509 92.429
16.3056 -10.7624 85.1766
16.3056 -10.7624 84.8758
11.9907 -10.6026 86.6986
-19.8594 -11.7145 75.6225
-19.8594 -11.7145 69.8375
-19.6841 -11.0486 69.8375
-19.6841 -11.0486 75.6225
-18.4669 5.44816 78.3375
-14.8166 4.38604 91.1641
-14.8139 4.4346 91.1267
-15.52 -8.04003 84.7971
-15.52 -8.03956 84.2389
-15.2804 -3.80634 86.5982
-15.2804 -3.80636 86.7028
-15.627 -3.1457 87.6066
-14.9107 -3.52574 87.9219
15.2165 -3.7558 91.0784
15.2113 -3.89607 90.969
15.2794 -3.91497 90.932
12.2616 -9.37013 87.5872
12.2616 -9.37013 88.5392
11.92 -10.6 87.5733
11.92 -10.6 86.7285
13.649 -4.37568 92.4615
13.8845 -3.52794 91.867
-18.8778 16.4589 78.3375
-15.5696 15.5786 78.3375
-16.0419 11.1905 85.3898
-16.0332 11.2204 84.993
-11.8118 10.9452 86.8708
11.3568 -11.0057 87.4137
11.3569 -11.0056 86.6633
9.52674 -10.5114 88.4967
9.52748 -10.5114 87.7392
-11.04 11.64 87.5136
-2.71069 -10.0581 92.909
-3.07453 -11.3853 92.11
-1.98256 -7.40212 94.5078
15.92 3.8 86.646
19.711 1.78353 84.8042
19.711 1.78353 85.1846
7.2276 17.8641 -101.437
28.7 10.2329 -101.437
-18.9804 23.26 -101.437
19.8073 -23.1545 -101.437
25.983 10.3526 44.2875
-28.6715 -10.0601 -101.437
23.6825 11.2494 44.2875
-19.8083 23.26 -101.437
15.52 4.44 87.4448
-13.6693 4.10074 91.7774
-13.9368 3.11509 92.4631
7.31292 11.9 75.6225
7.31248 11.8984 78.3375
19.1322 8.67494 78.3375
18.9223 7.88421 78.3375
25.1024 7.04848 75.6225
25.0917 7.00826 75.6225
-9.10792 15.5042 84.7897
-15.2804 -3.80654 87.4852
-9.10798 15.504 84.3415
-10.9077 11.9046 86.5667
-15.1411 -1.34596 89.0027
-15.1414 -1.35058 87.9669
-0.0474612 14.3405 78.3375
-0.0474612 14.3405 75.6225
-0.150042 13.9353 75.6225
4.21332 10.027 92.3338
13.882 4.88403 88.4156
2.89298 9.99728 93.27
10.5269 10.1689 87.857
19.0343 -15.7186 75.6225
2.77 9.99452 93.3572
2.89001 9.98669 93.4105
15.7549 10.7827 78.3375
11.0643 10.8752 78.3375
-6.73201 20.256 75.6225
-6.51339 20.6932 75.6225
1.11542 18.9339 75.6225
0.108142 14.9552 75.6225
1.16081 19.1132 75.6225
11.3569 -11.0056 86.5844
9.31207 -14.702 84.3179
9.31185 -14.7024 84.8466
-18.3856 18.3175 78.3375
-18.3856 18.3175 75.6225
-18.2468 18.8416 75.6225
-17.9974 19.7833 75.6225
-17.9974 19.7833 78.3375
26.384 4.13999 69.8375
27.0227 3.93531 69.8375
27.0227 3.93531 75.6225
26.384 4.13999 75.6225
12.1926 -17.5314 78.3375
12.765 -15.6234 78.3375
-15.6372 -10.1101 78.3375
8.75243 17.0692 75.6225
8.75243 17.0692 69.8375
8.81655 17.2994 69.8375
8.81655 17.2994 75.6225
-21.4363 17.1397 75.6225
-21.4363 17.1397 69.8375
-20.8058 16.972 69.8375
-20.8058 16.972 75.6225
-26.2363 -3.46599 75.6225
-26.2363 -3.46599 69.8375
-26.8664 -3.27391 69.8375
-26.8664 -3.27391 75.6225
-15.8519 -3.02632 86.6242
-19.4675 -1.10785 84.8884
-19.4678 -1.1077 85.221
21.616 -16.364 69.8375
20.96 -16.2 69.8375
20.96 -16.2 75.6225
21.616 -16.364 75.6225
-7.10299 10.5727 89.8266
3.3336 12.1252 92.1048
1.56074 8.22414 94.9164
7.05924 -18.7744 75.6225
6.79731 -19.2479 75.6225
6.60841 -19.5894 75.6225
-16.3925 13.091 78.3375
0.108142 14.9552 78.3375
3.79899 13.2186 75.6225
7.60685 12.9555 75.6225
7.60685 12.9555 78.3375
19.4315 9.80225 75.6225
19.4315 9.80225 78.3375
-2.74722 -10.0568 92.9244
-15.6262 -3.14608 86.7326
-12.0528 18.1981 75.6225
-6.53927 -11.3021 75.6225
-6.83194 -12.4581 78.3375
18.5351 -17.5917 75.6225
18.3946 -18.1187 75.6225
18.1292 -19.1145 75.6225
18.1292 -19.1145 78.3375
18.5351 -17.5917 78.3375
24.489 4.74725 69.8375
25.0917 7.00826 69.8375
-0.892107 -17.5635 75.6225
-0.892107 -17.5635 69.8375
-7.52608 -15.2 75.6225
-7.66152 -15.735 75.6225
-7.66152 -15.735 69.8375
-0.355782 13.1227 75.6225
-0.35558 13.1235 78.3375
0.338593 -13.1441 78.3375
0.339407 -13.1412 75.6225
0.56067 -12.3467 75.6225
11.7759 -11.1188 86.3593
11.9198 -11.1576 86.2819
11.9198 -11.1576 86.3323
11.7759 -11.1188 86.4169
-24.5243 -7.74018 78.3375
-25.0914 -7.0048 78.3375
25.2512 7.60681 78.3375
24.6291 8.41623 78.3375
-0.612175 -16.5583 75.6225
-0.765961 -17.1105 75.6225
-8.72557 16.2689 83.8687
-0.354773 13.1267 89.1792
-0.151984 13.9277 88.617
-17.7391 5.11276 89.6017
-15.5701 -2.9382 86.8571
-17.7046 5.23664 89.5158
25.4113 8.20764 78.3375
25.4113 8.20764 75.6225
25.102 7.04688 78.3375
15.6802 8.76533 78.3375
-13.4482 -4.3018 87.7782
-13.4475 -4.30216 88.5661
-2.72839 -9.98983 92.9645
23.8083 2.19317 75.6225
23.8083 2.19317 78.3375
20.0953 3.1997 78.3375
20.7115 5.46977 78.3375
24.3891 6.39846 78.3375
-19.1878 -9.16326 78.3375
-18.8828 -8.00505 78.3375
13.9196 -3.40157 91.7784
18.001 -4.51638 89.5755
16.0573 4.29434 86.3813
17.9622 -4.65933 89.4748
13.8845 -3.52794 91.6896
-6.33532 -10.4965 75.6225
9.32859 17.1175 75.6225
9.32859 17.1175 69.8375
19.0343 -15.7186 69.8375
-20.7874 16.9671 69.8375
-21.3317 14.4299 75.6225
-17.9974 19.7833 69.8375
-25.1056 -3.81065 69.8375
-25.5975 -6.18781 69.8375
-25.5231 -6.20564 75.6225
-26.88 -5.88 69.8375
11.9335 -10.5515 86.7576
-11.263 21.0193 69.8375
-11.263 21.0193 75.6225
-12.0528 18.1981 69.8375
-24.9283 -6.38873 78.3375
-25.2359 -7.55043 78.3375
-25.5633 -6.21579 75.6225
-25.5694 -6.21732 78.3375
-3.33818 -12.158 75.6225
-3.339 -12.1609 78.3375
-15.8872 11.7214 78.3375
-11.6297 11.5878 78.3375
1.66435 -8.38348 75.6225
21.7051 -5.69784 78.3375
-15.5679 12.8675 78.3375
-14.974 14.9994 78.3375
-23.6452 -1.5437 78.3375
-21.5659 6.308 78.3375
10.5349 10.1667 87.882
13.3684 10.2422 85.7172
-3.11763 -11.3738 92.1353
-1.99932 -7.39759 94.5177
20.32 -18.6 69.8375
20.32 -18.6 44.2875
18.3946 -18.1187 69.8375
25.7262 1.67326 75.6225
15.7544 -18.4812 75.6225
10.1462 -16.9857 78.3375
7.31069 11.892 89.3031
7.09104 11.1033 89.9213
3.48024 12.0853 92.0595
3.70227 12.8748 91.439
3.70443 12.8824 78.3375
-10.2491 16.6878 78.3375
-19.5435 13.9452 78.3375
-20.1693 19.2852 69.8375
-20.1693 19.2852 44.2875
-20.0378 -12.3921 44.2875
-20.0378 -12.3921 69.8375
15.9061 -12.2345 83.9881
11.798 -11.0392 86.4647
17.9622 -4.65933 88.5563
27.0004 6.45155 44.2875
27.0004 6.45155 69.8375
21.616 -16.364 44.2875
27.0227 3.93531 44.2875
-15.6385 -3.70951 86.4108
9.32859 17.1175 44.2875
9.32859 17.1175 -101.437
-15.5647 19.1346 75.6225
-9.98678 17.6471 75.6225
-9.9892 17.6478 78.3375
2.24 8.04 95.3155
0.159997 0.280002 101.337
20.3352 13.2058 69.8375
20.3352 13.2058 44.2875
20.1784 12.6153 69.8375
-21.4363 17.1397 44.2875
-20.7874 16.9671 44.2875
23.04 8.84 75.6225
-23.3219 -9.99767 69.8375
-22.8 -8.2 69.8375
-15.6385 -3.70952 86.4926
-2.67825 -7.21419 94.9169
-3.17223 -11.3592 92.1673
-3.11763 -11.3738 92.1353
-17.7038 5.23644 88.7245
-15.7689 -3.67426 86.4161
28.0686 10.4573 44.2875
28.0686 10.4573 -101.437
27.3321 7.69543 -101.437
27.3321 7.69543 44.2875
-17.7036 5.23638 88.4753
-11.6017 11.7195 86.4177
-11.7055 11.8204 86.3063
20.1784 12.6153 75.6225
19.4315 9.80225 69.8375
-15.5647 19.1346 69.8375
-9.1694 20.6666 75.6225
5.2123 18.2437 75.6225
6.14042 18.0874 69.8375
6.14042 18.0874 75.6225
2.93025 7.85288 94.9064
-26.2363 -3.46599 44.2875
-26.8664 -3.27391 44.2875
-27.5188 -5.72669 44.2875
-20.8253 19.4366 44.2875
9.45691 -19.4671 75.6225
9.31977 -19.9608 75.6225
9.22651 -20.2966 75.6225
-11.0904 21.6356 44.2875
-11.0904 21.6356 69.8375
12.1926 -17.5314 69.8375
11.44 -20.04 69.8375
11.44 -20.04 75.6225
-9.02236 21.2098 75.6225
-10.4698 15.8723 78.3375
20.96 -16.2 -101.437
21.616 -16.364 -101.437
27.0227 3.93531 -101.437
26.384 4.13999 -101.437
20.9767 -18.7642 -101.437
20.0465 -19.6257 -101.437
23.04 8.84 -101.437
23.8693 11.9498 44.2875
23.8693 11.9498 -101.437
19.1526 -22.9777 -101.437
20.0465 -19.6257 44.2875
3.48018 12.0851 91.2987
3.48025 12.0853 92.191
3.29958 11.443 92.5643
-11.5834 11.7873 86.3781
-11.5762 11.7854 78.3375
-11.5841 11.7875 87.194
3.48024 12.0853 92.0595
-17.9662 17.9096 78.3375
3.47911 12.0813 78.3375
11.2029 -20.8304 69.8375
11.2962 -20.5194 69.8375
-14.9595 21.6421 44.2875
-14.9595 21.6421 69.8375
-17.3965 22.0526 44.2875
23.6825 11.2494 69.8375
6.13712 18.0886 69.8375
6.13712 18.0886 44.2875
17.9622 -4.65933 88.6223
16.0573 4.29434 86.3509
-4.27792 -15.4993 75.6225
2.33524 8.01418 75.6225
-4.43912 -16.0724 75.6225
-1.9982 -7.3936 75.6225
15.7544 -18.4812 69.8375
-25.7019 -9.31012 44.2875
15.0598 -21.0857 44.2875
15.0598 -21.0857 69.8375
7.60685 12.9555 61.2046
-3.11397 -11.3608 75.6225
3.47889 12.0805 75.6225
0.17494 -13.7318 44.2875
-3.66047 -13.3039 75.6225
-4.57844 -16.5678 75.6225
-11.0904 21.6356 -101.437
4.62047 2.2317 78.3375
-14.7778 22.3948 44.2875
-14.7778 22.3948 -101.437
-17.1752 22.8883 -101.437
-17.1752 22.8883 44.2875
23.04 8.84 69.8375
3.99581 13.9185 75.6225
-3.11764 -11.3738 92.1996
0.159999 0.28 101.337
2.33524 8.01418 95.2591
16.0571 4.29441 87.1265
0.159999 0.28 101.337
25.4113 8.20764 69.8375
25.4113 8.20764 44.2875
18.1292 -19.1145 44.2875
18.1292 -19.1145 69.8375
-20.0378 -12.3921 -101.437
-19.8594 -11.7145 -101.437
11.2029 -20.8304 -101.437
11.2962 -20.5194 -101.437
-23.7277 -11.3954 44.2875
-23.7277 -11.3954 -101.437
-23.52 -10.68 -101.437
-25.8875 -10.0109 -101.437
14.9365 -21.5481 -101.437
15.7544 -18.4812 -101.437
14.8642 -21.8194 -101.437
14.8642 -21.8194 44.2875
-26.0855 -10.7586 44.2875
-26.0855 -10.7586 -101.437
-25.2359 -7.55043 -101.437
18.1292 -19.1145 -101.437
17.2375 -22.4604 -101.437
17.2375 -22.4604 44.2875
-26.8664 -3.27391 -101.437
-27.5188 -5.72669 -101.437
-20.8253 19.4366 -101.437
25.4113 8.20764 -101.437
20.7008 -19.8002 -101.437
21.7051 -5.69784 75.6225
5.22169 18.2771 75.6225
13.9068 -3.44736 93.1906
16.0573 4.29434 87.1263
26.3735 1.4978 75.6225
-22.1016 14.6386 75.6225
26.3735 1.4978 69.8375
-22.1016 14.6386 69.8375
-26.2208 -0.846986 75.6225
22.2591 -13.9496 75.6225
22.2594 -13.9484 69.8375
-26.2205 -0.84576 69.8375
-12.7578 18.3861 44.2875
3.70239 12.8752 90.7517
15.758 10.7819 44.2875
24.2675 -6.4088 75.6225
-24.1284 7.01899 75.6225
-18.6682 -7.18989 78.3375
0.0207382 -14.2855 78.3375
26.189 11.1253 44.2875
26.189 11.1253 -101.437
11.9201 -11.1579 87.0804
17.422 -21.7681 44.2875
14.9365 -21.5481 44.2875
14.9365 -21.5481 69.8375
-15.5686 -8.89811 84.345
-25.8875 -10.0109 44.2875
-15.52 -8.04009 84.8742
-15.7696 -3.67424 87.1966
-15.6388 -3.70961 87.2738
-6.54313 -11.3173 89.6798
-6.33826 -10.5081 90.2973
13.8845 -3.52794 93.1273
0.159999 0.28 101.337
-11.6024 11.7201 87.2462
-6.33824 -10.508 90.1923
-11.7055 11.8204 87.1227
2.33524 8.01418 95.3715
17.1856 8.3562 78.3375
16.0574 4.29448 78.3375
-3.34301 -12.1751 91.5713
27.643 6.26414 44.2875
-1.99937 -7.39776 95.3173
11.7759 -11.1189 87.1658
-25.5838 -1.01915 75.6225
-17.9974 19.7833 44.2875
-10.0915 17.27 78.3375
20.3352 13.2058 75.6225
-1.99937 -7.39776 95.3173
0.159999 0.28 101.338
0.159999 0.28 101.338
7.2276 17.8641 44.2875
0.160006 0.279998 101.338
0.159999 0.28 101.337
21.6071 -13.7734 75.6225
11.798 -11.0392 87.2284
0.159999 0.279999 101.338
0.16 0.28 101.338
0.159999 0.28 101.337
0.159999 0.28 101.337
-13.6664 4.11623 93.1379
0.557735 -12.3572 89.0062
0.159999 0.28 101.337
3.70488 12.884 75.6225
27.643 6.26414 -101.437
-23.52 -10.68 44.2875
27.0004 6.45155 -101.437
12.9131 -11.426 85.7482
-25.8457 -7.3878 69.8375
0.159999 0.28 101.338
-23.52 -10.68 69.8375
3.48023 12.0853 92.0182
7.09104 11.1033 89.886
20.3352 13.2058 -101.437
20.1784 12.6153 -101.437
16.0571 4.29441 86.351
-16.8453 -7.679 78.3375
-15.7804 -3.74536 78.3375
-11.263 21.0193 -101.437
15.6803 8.76736 84.835
15.7113 9.60414 84.3304
-14.9595 21.6421 -101.437
-15.5647 19.1346 -101.437
-11.5956 11.7136 78.3375
-17.3965 22.0526 -101.437
6.14042 18.0874 -101.437
-20.0378 -12.3921 75.6225
6.13712 18.0886 -101.437
23.6825 11.2494 -101.437
11.2029 -20.8304 75.6225
11.2962 -20.5194 75.6225
17.9385 -17.0114 78.3375
-23.8817 -5.79114 78.3375
-17.9974 19.7833 -101.437
19.6908 -13.2555 75.6225
-27.1867 -7.03021 69.8375
19.6907 -13.256 78.3375
-19.9011 20.291 44.2875
-11.7055 11.8204 78.3375
16.0571 4.29441 78.3375
20.7008 -19.8002 44.2875
-27.8206 -6.86118 44.2875
-27.8206 -6.86118 -101.437
15.3048 -14.4498 78.3375
-11.0904 21.6356 75.6225
6.13712 18.0886 75.6225
24.2062 3.68588 44.2875
-17.6945 5.23385 78.3375
7.2276 17.8641 69.8375
27.9783 7.52312 44.2875
-20.5519 20.4645 44.2875
27.9783 7.52312 -101.437
19.1526 -22.9777 44.2875
-20.5519 20.4645 -101.437
-23.3219 -9.99767 75.6225
20.9767 -18.7642 44.2875
-28.6715 -10.0601 44.2875
10.4615 -15.8506 78.3375
20.32 -18.6 -101.437
10.6789 -15.0681 83.586
0.161299 0.279639 101.337
-19.8083 23.26 44.2875
-19.867 -2.56482 78.3375
2.2043 0.796237 99.51
19.8073 -23.1545 44.2875
-20.53 -4.94476 78.3375
-18.9804 23.26 44.2875
0.159999 0.28 101.337
28.7 10.2329 44.2875
4  241 236 696 691  255 0 0
5  239 560 554 561 672  255 0 0
6  241 683 663 654 534 236  255 0 0
4  239 686 559 560  255 0 0
4  241 691 680 683  255 0 0
4  239 672 671 686  255 0 0
4  237 495 682 694  255 0 0
4  237 569 491 495  255 0 0
4  237 694 670 569  255 0 0
4  236 534 535 696  255 0 0
4  235 681 679 698  255 0 0
6  234 657 655 644 643 437  255 0 0
4  235 458 459 681  255 0 0
4  234 621 513 657  255 0 0
4  235 698 457 458  255 0 0
4  234 437 436 621  255 0 0
4  621 678 512 513  255 117 0
7  621 436 444 443 380 291 678  255 117 0
4  694 682 496 670  255 0 0
4  698 679 460 457  255 0 0
7  696 535 510 615 667 680 691  255 0 0
8  686 671 99 107 74 521 596 559  255 0 0
4  681 634 611 679  255 0 0
4  679 611 431 460  255 0 0
4  680 475 567 683  255 0 0
12  683 567 565 566 672 561 556 562 568 492 652 663  255 0 0
4  681 459 636 634  255 0 0
4  680 667 425 475  255 0 0
5  678 291 290 469 512  255 117 0
7  120 673 157 661 287 122 121  255 235 0
5  129 647 695 692 130  156 255 0
5  129 108 128 646 647  156 255 0
4  120 121 343 344  39 255 0
4  129 435 205 108  39 255 0
5  668 653 400 399 403  156 255 0
7  668 404 219 504 160 485 501  156 255 0
5  669 609 369 368 115  255 235 0
5  669 38 362 608 609  255 235 0
4  668 463 462 653  39 255 0
6  668 501 500 16 26 463  39 255 0
4  669 645 47 38  39 255 0
4  671 474 106 99  255 0 0
4  670 685 490 569  255 0 0
4  670 496 412 685  255 0 0
7  669 115 515 375 573 541 645  39 255 0
3  668 403 404  156 255 0
5  39 37 190 186 145  0 255 78
4  115 368 116 114  255 235 0
4  115 114 231 515  39 255 0
5  4 110 125 126 3  0 255 196
4  4 3 123 124  0 196 255
3  120 119 673  255 235 0
6  120 344 345 637 428 119  39 255 0
3  662 184 183  156 255 0
6  662 179 695 647 646 587  156 255 0
8  3 398 610 538 454 1 0 2  0 255 196
4  3 126 109 398  0 255 196
5  662 587 372 393 184  156 255 0
4  661 157 156 330  255 235 0
5  661 330 329 286 287  255 235 0
5  3 2 0 631 123  0 196 255
4  564 682 495 563  255 0 0
5  564 558 593 522 592  255 0 0
5  545 496 682 564 592  255 0 0
4  545 97 520 546  255 235 0
4  545 592 522 97  255 0 0
4  589 493 494 590  255 0 0
5  589 457 460 544 238  255 0 0
4  544 103 240 238  255 0 0
4  544 460 431 104  255 0 0
4  543 536 103 544  255 235 0
4  589 238 240 493  255 0 0
4  535 532 508 510  255 0 0
4  615 100 466 384  0 78 255
4  615 510 508 100  255 0 0
5  122 123 631 275 689  0 196 255
5  122 287 286 416 687  255 235 0
4  121 122 689 343  0 196 255
5  646 128 127 372 587  156 255 0
4  620 623 622 627  39 0 255
3  618 410 452  39 255 0
4  639 629 628 619  39 0 255
4  619 628 623 620  39 0 255
4  639 21 17 629  39 0 255
4  599 252 206 451  39 255 0
8  618 452 364 252 599 208 21 20  39 255 0
4  619 20 21 639  39 0 255
4  559 551 552 560  255 0 0
4  75 638 386 86  156 0 255
4  75 450 96 74  0 78 255
4  74 96 95 521  255 0 0
4  74 107 638 75  156 0 255
4  559 596 635 551  255 0 0
4  558 93 98 593  255 0 0
4  558 564 563 557  255 0 0
4  520 523 482 481  255 0 235
4  520 97 522 523  255 0 235
3  620 627 626  39 0 255
4  39 145 143 40  0 255 78
4  653 462 222 400  39 255 0
4  632 542 697 623  39 0 255
4  623 697 690 622  39 0 255
4  604 15 26 606  39 0 255
6  629 17 22 23 165 630  39 0 255
3  630 165 164  39 0 255
4  603 539 542 632  39 0 255
7  604 164 165 23 24 25 15  39 0 255
9  632 623 628 629 630 164 604 442 603  39 0 255
3  602 217 216  39 255 0
4  625 429 345 591  39 255 0
4  625 214 215 429  39 255 0
8  602 216 213 214 625 169 34 33  39 255 0
6  627 622 690 33 34 626  39 0 255
4  607 540 539 603  39 0 255
5  618 612 168 230 410  39 255 0
5  620 626 19 20 619  39 0 255
4  618 20 19 612  39 255 0
4  493 444 643 494  255 0 0
4  536 465 445 511  255 117 0
4  493 240 102 444  255 0 0
4  536 511 240 103  255 117 0
6  119 177 666 156 157 673  255 235 0
6  117 176 148 177 119 118  255 235 0
4  117 118 194 430  39 255 0
4  119 428 194 118  39 255 0
4  613 346 224 223  39 255 0
4  611 434 105 431  255 0 0
4  634 488 434 611  255 0 0
4  685 433 487 490  255 0 0
4  490 487 486 688  255 0 0
6  434 433 304 580 576 283  255 0 117
4  488 487 433 434  255 0 0
4  488 634 636 489  255 0 0
4  505 145 186 189  0 255 78
4  505 421 113 339  0 255 78
3  370 132 135  255 235 0
6  370 139 369 609 608 248  255 235 0
4  505 189 246 421  0 255 78
5  370 248 247 361 132  255 235 0
5  608 362 141 247 248  255 235 0
4  606 26 16 502  39 0 255
6  607 441 310 35 44 540  39 0 255
4  607 603 442 441  39 0 255
8  606 502 227 308 310 441 442 604  39 0 255
6  602 572 192 373 377 217  39 255 0
4  602 33 32 572  39 255 0
4  599 451 456 598  39 255 0
5  129 130 456 451 435  39 255 0
4  130 692 131 14  156 255 0
4  130 14 322 456  39 255 0
4  598 456 322 207  39 255 0
4  599 598 207 208  39 255 0
4  596 521 95 635  255 0 0
4  594 523 522 593  255 0 235
4  594 507 482 523  255 0 235
4  594 593 98 507  255 0 235
4  591 345 346 613  39 255 0
5  590 494 658 492 568  255 0 0
4  590 458 457 589  255 0 0
4  568 459 458 590  255 0 0
5  586 578 581 577 575  156 0 255
6  586 575 383 84 85 62  156 0 255
5  585 574 576 580 579  255 0 117
6  585 579 624 664 146 570  255 0 117
5  586 62 61 614 578  156 0 255
6  585 570 151 366 414 574  255 0 117
6  581 299 473 446 294 577  156 0 255
4  578 300 299 581  156 0 255
4  579 307 306 624  255 0 117
4  580 304 307 579  255 0 117
4  578 614 297 300  156 0 255
4  574 284 283 576  255 0 117
4  575 293 296 383  156 0 255
4  577 294 293 575  156 0 255
4  574 414 285 284  255 0 117
4  520 481 90 415  255 235 0
4  546 520 415 328  255 235 0
4  573 375 175 174  39 255 0
3  690 32 33  39 0 255
5  697 542 31 32 690  39 0 255
6  572 32 31 693 191 192  39 255 0
6  573 174 172 192 191 541  39 255 0
7  625 591 613 223 225 168 169  39 255 0
3  626 34 19  39 0 255
5  612 19 34 169 168  39 255 0
5  692 178 200 677 131  156 255 0
6  677 200 153 314 403 399  156 255 0
5  677 461 455 302 131  39 255 0
4  39 40 50 517  156 255 0
4  517 50 142 144  0 78 255
4  517 63 37 39  156 255 0
8  571 273 270 484 674 480 512 675  255 117 0
4  571 675 470 468  255 117 0
5  517 144 187 188 63  0 78 255
4  571 468 271 273  255 117 0
5  419 641 497 583 420  0 255 78
5  503 641 262 266 499  0 255 78
3  540 44 471  39 0 255
4  541 242 47 645  39 255 0
3  503 499 498  0 255 78
4  419 418 642 641  0 255 78
4  551 426 547 552  255 0 0
4  635 94 426 551  255 0 0
4  640 197 94 635  255 0 235
4  569 490 688 491  255 0 0
4  672 566 474 671  255 0 0
8  562 491 688 486 489 636 459 568  255 0 0
5  562 556 555 557 563  255 0 0
4  545 91 412 496  255 0 0
5  475 446 473 565 567  255 0 0
4  566 565 473 474  255 0 0
4  474 473 472 106  255 0 0
4  563 495 491 562  255 0 0
4  560 552 553 554  255 0 0
7  561 554 553 548 550 555 556  255 0 0
4  557 549 93 558  255 0 0
4  557 555 550 549  255 0 0
4  552 547 548 553  255 0 0
4  550 548 547 549  255 0 0
4  549 547 426 93  255 0 0
6  93 426 427 337 334 506  255 0 235
4  546 413 91 545  255 235 0
4  544 104 332 543  255 235 0
6  542 539 540 471 30 31  39 0 255
7  541 191 693 30 29 261 242  39 255 0
3  538 453 454  0 255 196
4  537 316 258 272  0 78 255
9  537 468 470 289 464 319 136 182 317  255 117 0
5  537 317 245 633 316  0 78 255
4  537 272 271 468  255 117 0
4  536 543 360 448  255 235 0
4  384 466 438 280  0 78 255
4  534 533 532 535  255 0 0
4  533 530 479 532  255 0 0
4  533 534 654 651  255 0 0
4  532 479 101 508  255 0 0
4  479 513 512 480  255 117 0
4  530 657 513 479  255 0 0
4  530 533 651 648  255 0 0
4  55 54 450 75  0 78 255
4  4 124 401 519  156 255 0
5  529 333 334 337 336  255 0 235
4  529 336 335 518  255 0 235
4  528 88 351 516  255 0 235
4  528 52 324 397  0 78 255
4  519 401 342 525  0 78 255
4  519 49 110 4  156 255 0
4  529 518 352 333  255 0 235
8  528 516 199 684 54 53 51 52  255 0 235
4  528 397 341 88  0 78 255
5  519 525 378 158 49  0 78 255
4  525 397 324 378  0 78 255
4  525 342 341 397  0 78 255
5  526 633 245 188 187  0 78 255
4  526 144 142 338  0 78 255
3  526 187 144  0 78 255
6  368 138 150 176 117 116  255 235 0
5  117 430 514 232 116  39 255 0
4  518 516 351 352  255 0 235
5  518 335 196 199 516  255 0 235
5  514 376 374 233 232  39 255 0
5  514 430 194 193 376  39 255 0
4  515 231 175 375  39 255 0
4  511 445 102 240  255 117 0
4  466 392 323 438  0 78 255
4  509 390 392 466  255 117 0
4  508 101 390 509  255 117 0
4  466 100 508 509  255 117 0
6  506 334 333 313 478 659  255 0 235
4  507 98 93 506  255 0 235
4  504 219 218 277  156 255 0
5  504 277 281 159 160  156 255 0
4  505 339 143 145  0 255 78
8  503 498 309 251 253 354 497 641  0 255 78
4  501 41 42 500  39 255 0
4  485 112 41 501  156 255 0
6  485 160 159 440 616 422  156 255 0
4  502 16 27 227  39 0 255
5  44 36 18 29 471  39 0 255
4  500 42 27 16  39 255 0
4  44 266 262 36  0 255 78
5  499 266 265 309 498  0 255 78
4  44 35 265 266  0 255 78
3  28 42 254  0 255 78
5  28 43 308 227 27  39 0 255
6  28 254 251 309 265 43  0 255 78
3  471 29 30  39 0 255
3  693 31 30  39 255 0
4  366 155 285 414  255 0 117
6  133 250 332 331 155 134  255 235 0
5  543 332 250 249 360  255 235 0
6  403 314 423 218 219 404  156 255 0
4  677 399 221 461  39 255 0
4  684 199 198 449  255 0 235
4  449 198 197 640  255 0 235
4  54 684 449 450  255 0 235
4  448 319 465 536  255 235 0
4  469 290 289 470  255 117 0
4  512 469 470 675  255 117 0
4  615 71 425 667  255 0 0
4  384 82 71 615  0 78 255
4  665 638 107 99  156 0 255
4  665 388 386 638  156 0 255
4  99 106 388 665  156 0 255
4  663 652 651 654  255 0 0
4  494 643 644 658  255 0 0
7  492 658 644 655 648 651 652  255 0 0
4  657 530 648 655  255 0 0
4  444 436 437 643  255 0 0
4  449 640 635 95  255 0 235
4  526 338 259 633  0 78 255
4  412 92 433 685  255 0 0
4  489 486 487 488  255 0 0
4  484 270 269 467  255 117 0
4  439 323 391 467  255 117 0
4  485 422 111 112  156 255 0
4  484 467 391 674  255 117 0
4  439 467 269 48  255 117 0
4  440 171 170 616  156 255 0
4  439 48 171 440  156 255 0
4  483 476 89 90  255 0 235
4  90 481 482 483  255 0 235
4  390 101 479 480  255 117 0
4  478 313 312 477  255 0 235
4  477 312 311 476  255 0 235
4  477 660 659 478  255 0 235
4  476 311 87 89  255 0 235
4  476 483 660 477  255 0 235
5  122 687 167 340 123  255 235 0
4  425 447 446 475  255 0 0
4  424 382 447 425  156 0 255
4  388 298 385 386  156 0 255
4  106 472 298 388  156 0 255
4  299 298 472 473  156 0 255
6  54 55 394 347 371 53  156 255 0
5  464 289 292 379 617  255 117 0
4  319 464 445 465  255 117 0
4  463 26 15 462  39 255 0
4  462 15 25 222  39 255 0
5  461 221 220 358 455  39 255 0
5  455 358 356 303 302  39 255 0
5  410 6 363 364 452  39 255 0
4  409 1 8 321  0 196 255
5  453 601 605 1 454  0 255 196
4  410 365 7 6  0 196 255
7  1 409 229 276 275 631 0  0 196 255
4  451 206 205 435  39 255 0
7  1 605 203 206 363 7 8  0 255 196
3  6 7 363  0 255 196
4  450 449 95 96  255 0 235
6  448 360 359 350 320 319  255 235 0
4  382 424 82 73  156 0 255
5  382 295 294 446 447  156 0 255
4  445 443 444 102  255 117 0
4  440 159 323 439  156 255 0
5  438 323 159 281 280  156 255 0
4  92 412 411 305  255 0 117
4  431 105 282 432  255 0 117
4  432 282 331 332  255 0 117
4  282 105 434 283  255 0 117
4  305 411 413 381  255 0 117
4  304 433 92 305  255 0 117
4  332 104 431 432  255 0 117
4  345 344 343 346  39 255 0
5  429 215 195 637 345  39 255 0
4  428 637 195 194  39 255 0
4  427 426 94 197  255 0 235
4  82 424 425 71  156 0 255
4  416 166 167 687  255 235 0
4  416 89 87 166  255 235 0
4  406 200 178 405  156 255 0
4  84 383 296 83  156 0 255
4  423 314 153 152  156 255 0
4  406 152 153 200  156 255 0
4  423 152 85 84  156 255 0
4  62 85 152 406  156 255 0
4  232 231 114 116  39 255 0
4  422 616 170 111  156 255 0
4  421 583 355 113  0 255 78
5  421 246 417 420 583  0 255 78
5  361 247 320 350 349  255 235 0
4  420 417 418 419  0 255 78
4  246 268 408 417  0 255 78
4  417 408 407 418  0 255 78
4  418 407 263 642  0 255 78
4  416 286 90 89  255 235 0
5  415 90 286 329 328  255 235 0
4  413 411 412 91  255 0 117
4  346 343 274 224  39 255 0
5  410 230 228 321 365  0 196 255
4  409 321 228 229  0 196 255
4  408 650 649 407  0 255 78
4  268 141 650 408  0 255 78
5  268 246 318 267 140  255 235 0
4  407 649 161 263  0 255 78
5  405 178 179 662 183  156 255 0
4  406 405 61 62  156 255 0
3  359 349 350  255 235 0
4  40 143 142 50  156 255 0
4  338 142 143 339  156 255 0
6  367 138 139 370 135 154  255 235 0
4  402 176 150 149  255 235 0
4  367 149 150 138  255 235 0
4  205 204 128 108  0 255 196
4  124 123 342 401  255 235 0
4  400 222 221 399  39 255 0
3  396 184 393  156 255 0
5  395 387 58 184 396  156 255 0
4  395 56 57 387  156 255 0
4  396 393 56 395  156 255 0
5  393 372 371 347 348  156 255 0
3  394 348 347  156 255 0
5  393 348 394 55 56  156 255 0
3  215 389 195  39 255 0
4  423 84 83 218  156 255 0
4  277 218 83 278  156 255 0
5  322 357 256 255 207  39 255 0
3  322 301 357  39 255 0
5  322 14 131 302 301  39 255 0
4  244 255 256 243  39 255 0
5  23 243 201 202 180  39 255 0
4  358 202 201 356  39 255 0
4  391 390 480 674  255 117 0
4  664 624 306 264  255 0 117
4  666 177 148 147  255 235 0
4  402 147 148 176  255 235 0
4  402 570 146 147  255 235 0
4  666 147 146 664  255 235 0
4  666 664 264 156  255 235 0
4  330 156 264 326  255 235 0
4  323 392 390 391  255 117 0
4  660 507 506 659  255 0 235
4  656 336 337 427  255 0 235
4  196 335 336 656  255 0 235
4  656 427 197 196  255 0 235
3  141 268 140  255 235 0
6  650 141 362 162 161 649  0 255 78
6  263 161 163 46 45 260  0 255 78
5  642 263 260 262 641  0 255 78
5  36 262 260 45 18  0 255 78
5  389 215 214 213 212  39 255 0
5  377 212 213 216 217  39 255 0
6  376 193 195 389 212 211  39 255 0
4  377 210 211 212  39 255 0
5  46 47 242 261 45  39 255 0
3  46 163 47  0 255 78
4  343 689 275 274  0 196 255
4  483 482 507 660  255 0 235
4  633 259 258 316  0 78 255
4  402 149 151 570  255 235 0
4  366 151 149 367  255 235 0
5  326 264 381 413 327  255 235 0
4  328 327 413 546  255 235 0
4  617 379 380 443  255 117 0
4  464 617 443 445  255 117 0
3  58 387 57  156 255 0
4  61 60 297 614  156 0 255
5  56 55 75 86 57  0 78 255
6  58 57 86 72 60 59  0 78 255
4  386 385 72 86  156 0 255
5  297 60 72 385 298  156 0 255
5  278 83 73 82 279  0 78 255
4  280 279 82 384  0 78 255
5  296 295 382 73 83  156 0 255
4  264 306 305 381  255 0 117
4  695 179 178 692  156 255 0
5  405 183 59 60 61  156 255 0
4  398 109 600 610  0 255 196
5  610 600 601 453 538  0 255 196
4  109 127 595 600  0 255 196
4  600 595 597 601  0 255 196
4  601 597 203 605  0 255 196
4  127 109 325 288  156 255 0
6  597 595 127 128 204 203  0 255 196
4  88 87 311 351  255 0 235
4  588 166 87 88  255 235 0
4  340 167 166 588  255 235 0
4  340 588 88 341  255 235 0
4  583 497 354 355  0 255 78
4  354 253 353 355  0 255 78
4  379 292 291 380  255 117 0
4  110 49 158 125  156 255 0
4  126 125 158 378  156 255 0
4  192 172 173 373  39 255 0
4  377 373 209 210  39 255 0
5  376 211 210 209 374  39 255 0
5  374 209 173 175 233  39 255 0
3  373 173 209  39 255 0
4  372 127 288 371  156 255 0
4  371 288 51 53  156 255 0
4  369 139 138 368  255 235 0
4  367 154 155 366  255 235 0
4  134 155 154 135  255 235 0
4  365 321 8 7  0 196 255
4  363 206 252 364  39 255 0
5  163 162 362 38 47  0 255 78
5  361 349 359 360 249  255 235 0
6  358 220 25 24 180 202  39 255 0
3  23 180 24  39 255 0
6  357 301 303 356 201 256  39 255 0
3  243 256 201  39 255 0
4  113 111 170 257  156 255 0
4  355 353 111 113  0 255 78
4  253 112 111 353  0 255 78
4  352 312 313 333  255 0 235
4  351 311 312 352  255 0 235
4  257 170 171 315  156 255 0
4  123 340 341 342  255 235 0
4  113 259 338 339  156 255 0
4  155 331 282 285  255 0 117
5  330 326 327 328 329  255 235 0
4  52 51 288 325  156 255 0
4  109 324 52 325  156 255 0
5  207 255 244 21 208  39 255 0
5  226 224 276 229 228  0 196 255
4  226 230 168 225  39 255 0
3  226 228 230  0 196 255
5  247 141 140 181 320  255 235 0
5  320 181 137 136 319  255 235 0
6  317 182 137 181 267 318  255 235 0
4  318 246 245 317  255 235 0
4  272 48 269 271  255 117 0
4  315 171 48 272  156 255 0
4  257 315 272 258  156 255 0
4  310 308 43 35  39 0 255
3  35 43 265  0 255 78
4  307 304 305 306  255 0 117
3  303 301 302  39 255 0
4  300 297 298 299  156 0 255
4  296 293 294 295  156 0 255
4  292 289 290 291  255 117 0
4  285 282 283 284  255 0 117
5  281 277 278 279 280  156 255 0
4  224 226 225 223  39 255 0
4  224 274 275 276  0 196 255
4  271 269 270 273  255 117 0
3  181 140 267  255 235 0
4  261 29 18 45  39 255 0
4  113 257 258 259  156 255 0
3  42 28 27  39 255 0
5  42 41 112 253 254  0 255 78
3  251 254 253  0 255 78
4  126 378 324 109  156 255 0
5  361 249 250 133 132  255 235 0
5  189 185 188 245 246  255 235 0
5  17 21 244 243 22  39 255 0
3  23 22 243  39 255 0
4  175 173 172 174  39 255 0
4  233 175 231 232  39 255 0
4  222 25 220 221  39 255 0
4  206 203 204 205  0 255 196
4  199 196 197 198  255 0 235
3  195 193 194  39 255 0
6  37 63 188 185 186 190  255 235 0
3  189 186 185  255 235 0
4  184 58 59 183  156 255 0
3  182 136 137  255 235 0
3  163 161 162  0 255 78
4  135 132 133 134  255 235 0
3  14 131 13  156 255 0
3  131 14 13  39 255 0
4  130 14 108 129  156 255 0
4  14 130 129 108  39 255 0
4  128 108 109 127  156 255 0
4  108 128 127 109  0 255 196
5  126 109 108 110 125  156 255 0
5  109 126 125 110 108  0 255 196
6  4 110 14 13 531 124  156 255 0
6  110 4 124 531 13 14  39 255 0
4  123 124 121 122  255 235 0
4  124 123 122 121  0 196 255
9  120 121 124 531 114 116 117 118 119  255 235 0
9  121 120 119 118 117 116 114 531 124  39 255 0
6  115 114 531 69 38 669  255 235 0
6  114 115 669 38 69 531  39 255 0
4  362 38 37 141  255 235 0
4  38 362 141 37  0 255 78
7  268 141 37 190 186 189 246  255 235 0
7  141 268 246 189 186 190 37  0 255 78
5  39 37 12 9 40  156 255 0
5  37 39 40 9 12  39 255 0
5  143 40 41 113 339  156 255 0
5  40 143 339 113 41  0 255 78
4  111 113 41 112  156 255 0
4  113 111 112 41  0 255 78
6  501 41 10 131 400 653  156 255 0
6  41 501 653 400 131 10  39 255 0
3  668 501 653  156 255 0
3  501 668 653  39 255 0
4  399 400 131 677  156 255 0
4  400 399 677 131  39 255 0
3  131 13 11  39 255 0
3  38 69 37  255 235 0
3  131 11 13  156 255 0
3  131 11 12  39 255 0
3  131 12 11  156 255 0
3  131 12 9  39 255 0
4  37 12 11 69  39 255 0
4  40 9 10 41  156 255 0
3  131 9 12  156 255 0
3  131 9 10  39 255 0
3  131 10 9  156 255 0
4  41 10 9 40  39 255 0
3  108 14 110  156 255 0
3  14 108 110  39 255 0
6  205 108 5 6 363 206  0 255 196
6  108 205 206 363 6 5  39 255 0
3  410 6 230  0 196 255
3  6 410 230  39 255 0
6  226 230 6 5 274 224  0 196 255
6  230 226 224 274 5 6  39 255 0
6  343 274 5 4 124 121  0 196 255
6  274 343 121 124 4 5  39 255 0
4  110 4 5 108  0 255 196
4  4 110 108 5  39 255 0
4  107 99 76 74  255 0 0
4  99 107 74 76  156 0 255
5  96 74 76 66 527  255 0 0
5  74 96 527 66 76  0 78 255
5  95 96 98 93 94  255 0 0
5  96 95 94 93 98  255 0 235
3  635 95 94  255 0 0
3  95 635 94  255 0 235
3  426 94 93  255 0 0
3  94 426 93  255 0 235
6  593 98 96 64 97 522  255 0 0
6  98 593 522 97 64 96  255 0 235
5  545 97 64 527 91  255 0 0
5  97 545 91 527 64  255 235 0
3  412 91 92  255 0 0
3  91 412 92  255 0 117
3  433 92 434  255 0 0
3  92 433 434  255 0 117
5  105 434 92 91 676  255 0 0
5  434 105 676 91 92  255 0 117
4  431 105 676 104  255 0 0
4  105 431 104 676  255 0 117
5  544 104 65 67 103  255 0 0
5  104 544 103 67 65  255 235 0
4  240 103 584 102  255 0 0
4  103 240 102 584  255 117 0
9  444 102 584 68 582 101 513 621 436  255 0 0
9  102 444 436 621 513 101 582 68 584  255 117 0
3  479 513 101  255 0 0
3  513 479 101  255 117 0
3  508 101 100  255 0 0
3  101 508 100  255 117 0
3  615 100 71  255 0 0
3  100 615 71  0 78 255
6  425 71 99 106 472 447  255 0 0
6  71 425 447 472 106 99  156 0 255
4  446 447 472 473  255 0 0
4  447 446 473 472  156 0 255
3  99 76 77  156 0 255
3  99 77 76  255 0 0
3  99 77 78  156 0 255
4  104 65 66 676  255 235 0
4  103 67 70 584  255 0 0
3  99 78 77  255 0 0
3  99 78 79  156 0 255
3  99 79 78  255 0 0
3  99 79 80  156 0 255
3  101 582 100  255 0 0
3  99 80 79  255 0 0
3  99 80 81  156 0 255
3  100 81 71  255 0 0
3  99 81 80  255 0 0
3  99 81 71  156 0 255
4  100 81 80 582  0 78 255
3  99 71 81  255 0 0
3  96 64 527  0 78 255
4  91 527 66 676  255 0 0
3  96 527 64  255 0 0
3  101 100 582  255 117 0
3  100 71 81  0 78 255
5  582 80 79 70 68  0 78 255
4  582 80 81 100  255 0 0
4  584 70 67 103  255 235 0
3  584 70 68  255 0 0
3  584 68 70  255 235 0
5  582 68 70 79 80  255 0 0
3  466 100 392  0 78 255
3  100 466 392  255 117 0
3  323 392 439  0 78 255
3  392 323 439  255 117 0
8  48 439 392 100 524 317 537 272  0 78 255
8  439 48 272 537 317 524 100 392  255 117 0
6  182 317 524 465 319 136  255 235 0
6  317 182 136 319 465 524  255 117 0
6  536 465 524 68 584 103  255 235 0
6  465 536 103 584 68 524  255 117 0
4  582 68 524 100  0 78 255
4  582 100 524 68  255 117 0
3  520 97 481  255 235 0
3  97 520 481  255 0 235
3  90 481 89  255 235 0
3  481 90 89  255 0 235
6  87 89 481 97 64 88  255 235 0
6  89 87 88 64 97 481  255 0 235
9  528 88 64 96 450 54 53 51 52  0 78 255
9  88 528 52 51 53 54 450 96 64  255 0 235
4  676 66 527 91  255 235 0
4  676 66 65 104  255 0 0
3  332 104 331  255 235 0
3  104 332 331  255 0 117
3  155 331 366  255 235 0
3  331 155 366  255 0 117
9  151 366 331 104 381 264 664 146 570  255 235 0
9  366 151 570 146 664 264 381 104 331  255 0 117
5  413 381 104 676 91  255 235 0
5  381 413 91 676 104  255 0 117
4  79 70 67 78  255 0 0
4  78 67 70 79  0 78 255
4  78 67 65 77  255 0 0
4  76 66 65 77  0 78 255
4  77 65 67 78  0 78 255
4  77 65 66 76  255 0 0
11  86 75 74 76 77 78 79 80 81 71 72  0 78 255
11  75 86 72 71 81 80 79 78 77 76 74  156 0 255
8  60 72 73 83 84 85 62 61  0 78 255
8  72 60 61 62 85 84 83 73  156 0 255
4  82 73 72 71  0 78 255
4  73 82 71 72  156 0 255
4  69 11 12 37  156 255 0
3  69 38 37  39 255 0
4  69 11 13 531  39 255 0
4  531 13 11 69  156 255 0
12  341 88 64 527 66 65 67 70 68 524 401 342  255 235 0
12  88 341 342 401 524 68 70 67 65 66 527 64  0 78 255
6  124 401 63 37 69 531  255 235 0
6  401 124 531 69 37 63  156 255 0
6  188 63 401 524 317 245  255 235 0
6  63 188 245 317 524 401  0 78 255
26  324 52 51 53 54 55 56 57 58 59 60 61 62 85 84 83 278 279 280 438 323 439 48 49 158 378  0 78 255
26  52 324 378 158 49 48 439 323 438 280 279 278 83 84 85 62 61 60 59 58 57 56 55 54 53 51  156 255 0
6  519 49 50 517 63 401  0 78 255
6  49 519 401 63 517 50  156 255 0
8  142 50 49 48 272 258 259 338  0 78 255
8  50 142 338 259 258 272 48 49  156 255 0
11  47 38 37 39 40 41 42 28 18 45 46  0 255 78
11  38 47 46 45 18 28 42 41 40 39 37  39 255 0
5  36 18 28 43 35  0 255 78
3  44 36 35  0 255 78
3  36 44 35  39 0 255
5  35 43 28 18 36  39 0 255
9  34 19 17 18 29 30 31 32 33  39 255 0
9  19 34 33 32 31 30 29 18 17  39 0 255
10  28 18 17 22 23 24 25 15 16 27  39 255 0
10  18 28 27 16 15 25 24 23 22 17  39 0 255
3  26 16 15  39 255 0
3  16 26 15  39 0 255
4  21 17 19 20  39 255 0
4  17 21 20 19  39 0 255
9  8 1 0 2 3 4 5 6 7  0 196 255
9  1 8 7 6 5 4 3 2 0  0 255 196

