OFF
663 547 0

24.9681 6.54467 75.6225
24.8927 6.26161 78.3375
24.9681 6.54467 78.3375
15.7549 10.7827 75.6225
15.7549 10.7827 77.6174
20.8065 3.00693 78.3375
21.5311 5.67675 78.3375
15.7529 10.728 78.3375
15.7114 9.60788 78.3375
-0.778394 11.4533 75.6225
-0.830204 11.2487 78.3375
3.26678 11.3263 75.6225
3.20927 11.1219 78.3375
20.3157 -10.911 75.6225
20.3157 -10.911 78.3375
17.0615 -10.7904 78.3375
20.3781 1.42869 78.3375
23.2039 -0.0744334 78.3375
23.2039 -0.0744334 75.6225
-20.0432 12.0582 75.6225
-20.0974 11.8536 78.3375
-16.7568 11.7487 78.3375
24.489 4.74725 75.6225
24.489 4.74725 78.3375
19.0343 -15.7186 78.3375
15.7702 -14.9026 78.3375
-5.79509 -8.3626 75.6225
-12.5459 16.4365 78.3375
15.5212 4.47231 86.6545
-13.4178 5.03196 92.4284
-13.6652 4.1159 91.788
8.90664 -15.4349 78.3375
-1.30426 -7.58553 94.9059
1.60266 -1.12314 99.5885
-8.46253 16.7949 78.3375
15.4311 2.04 87.9622
15.4311 2.04 88.8922
15.92 3.8 87.5136
18.6721 -4.85632 78.3375
16.6176 -12.4255 78.3375
-21.3436 -5.15021 78.3375
-12.3158 9.08838 88.3077
15.1107 10.9545 75.6225
-24.7105 -5.56647 75.6225
-24.7111 -5.56861 78.3375
7.06253 11.0009 78.3375
6.64395 11.2203 75.6225
7.08999 11.0995 77.0279
5.95734 7.03229 75.6225
7.0901 11.0999 78.3375
6.4587 8.83261 78.3375
7.08988 11.0991 75.6225
16.3056 -10.7624 84.8758
11.9907 -10.6026 86.6986
-19.8594 -11.7145 75.6225
-19.8594 -11.7145 69.8375
-19.6841 -11.0486 75.6225
-19.6841 -11.0486 69.8375
-20.5889 -2.36972 78.3375
-15.52 -8.04003 84.7971
-15.627 -3.1457 87.6066
-14.9107 -3.52574 87.9219
15.2165 -3.7558 91.0784
15.2113 -3.89607 90.969
15.2794 -3.91497 90.932
12.2616 -9.37013 87.5872
12.2616 -9.37013 88.5392
11.92 -10.6 87.5733
11.92 -10.6 86.7285
24.8925 6.26081 75.6225
16.3056 -10.7624 85.1766
13.649 -4.37568 92.4615
13.8845 -3.52794 91.867
-18.8778 16.4589 75.6225
-15.5696 15.5786 78.3375
-18.8778 16.4589 78.3375
-16.0419 11.1905 85.3898
-16.0332 11.2204 84.993
-11.8151 10.9336 87.0241
11.3568 -11.0057 87.4137
11.3569 -11.0056 86.6633
9.52674 -10.5114 88.4967
9.52748 -10.5114 87.7392
-11.04 11.64 86.6973
-11.04 11.64 87.5136
-2.71069 -10.0581 92.909
15.92 3.8 86.728
15.92 3.8 86.646
19.711 1.78353 85.1846
25.983 10.3526 44.2875
23.6825 11.2494 44.2875
-13.1034 3.96001 92.08
-13.6693 4.10074 91.7774
-2.32699 -0.348027 99.1236
7.31292 11.9 75.6225
19.1322 8.67494 78.3375
18.9223 7.88421 78.3375
25.1024 7.04848 75.6225
25.0917 7.00826 75.6225
25.102 7.04688 78.3375
-6.33532 -10.4965 75.6225
-6.53927 -11.3021 75.6225
-6.54002 -11.3051 78.3375
-6.33586 -10.4987 78.3375
-18.8828 -8.00505 78.3375
-10.9077 11.9046 86.5667
-15.2804 -3.80654 87.4852
-15.2804 -3.80636 86.7028
-11.04 11.64 78.3375
-15.1411 -1.34596 89.0027
-15.1414 -1.35058 87.9669
-14.8166 4.38604 91.1641
-0.0474612 14.3405 78.3375
-0.0474612 14.3405 75.6225
-0.150042 13.9353 75.6225
-0.150448 13.9337 78.3375
13.882 4.88403 87.6362
4.21332 10.027 92.3338
13.882 4.88403 88.4156
2.89298 9.99728 93.27
19.0343 -15.7186 75.6225
2.77 9.99452 93.3572
2.89001 9.98669 93.4105
15.7549 10.7827 78.3375
15.9875 10.7207 78.3375
-8.26588 17.1882 75.6225
-6.73201 20.256 75.6225
1.11542 18.9339 75.6225
0.108142 14.9552 75.6225
1.16081 19.1132 75.6225
15.52 4.44 87.4448
9.31185 -14.7024 84.8466
-17.9974 19.7833 75.6225
-17.9974 19.7833 78.3375
26.384 4.13999 69.8375
27.0227 3.93531 75.6225
26.384 4.13999 75.6225
12.1926 -17.5314 75.6225
12.765 -15.6234 78.3375
12.1926 -17.5314 78.3375
-15.5682 -8.89126 78.3375
-15.6372 -10.1101 78.3375
8.81655 17.2994 75.6225
8.75243 17.0692 69.8375
8.75243 17.0692 75.6225
-8.26588 17.1882 78.3375
-6.51339 20.6932 75.6225
-21.4363 17.1397 75.6225
-21.4363 17.1397 69.8375
-20.8058 16.972 75.6225
-26.2363 -3.46599 69.8375
-26.8664 -3.27391 69.8375
-26.8664 -3.27391 75.6225
-26.2363 -3.46599 75.6225
9.31207 -14.702 84.3179
-19.4675 -1.10785 84.8884
-19.4678 -1.1077 85.221
21.616 -16.364 75.6225
21.616 -16.364 69.8375
-7.42079 10.6589 88.824
-7.10299 10.5727 89.8266
3.3336 12.1252 92.1048
2.25212 8.03671 94.5079
1.56074 8.22414 94.9164
8.31842 -16.4982 75.6225
7.05924 -18.7744 75.6225
8.31842 -16.4982 78.3375
6.79731 -19.2479 75.6225
6.60841 -19.5894 75.6225
-9.10792 15.5042 84.7897
-18.4669 5.44816 78.3375
-16.3925 13.091 78.3375
3.79899 13.2186 75.6225
7.31248 11.8984 78.3375
7.60685 12.9555 75.6225
19.4315 9.80225 75.6225
19.4315 9.80225 78.3375
-2.74722 -10.0568 92.9244
-2.74722 -10.0568 92.884
-12.0528 18.1981 78.3375
-6.83194 -12.4581 75.6225
-6.83194 -12.4581 78.3375
15.6803 8.76735 84.8139
18.3946 -18.1187 75.6225
18.1292 -19.1145 75.6225
18.1292 -19.1145 78.3375
18.5351 -17.5917 78.3375
24.489 4.74725 69.8375
-0.892107 -17.5635 69.8375
-7.66152 -15.735 69.8375
-7.66152 -15.735 75.6225
-7.52608 -15.2 75.6225
-1.98256 -7.40212 94.5078
-8.72403 16.2719 78.3375
-0.355782 13.1227 75.6225
-0.35558 13.1235 78.3375
0.339407 -13.1412 75.6225
0.56067 -12.3467 75.6225
0.560075 -12.3488 78.3375
0.338593 -13.1441 78.3375
11.9198 -11.1576 86.2819
0.159999 0.28 99.4715
-24.5243 -7.74018 78.3375
-25.0914 -7.0048 78.3375
-9.10798 15.504 84.3415
25.2512 7.60681 78.3375
24.6291 8.41623 78.3375
-9.10881 15.5024 78.3375
-0.612175 -16.5583 75.6225
-0.765961 -17.1105 75.6225
-0.892107 -17.5635 75.6225
0.0207382 -14.2855 75.6225
-8.72557 16.2689 83.8687
-0.354773 13.1267 89.1792
-0.151984 13.9277 88.617
0.108142 14.9552 78.3375
-17.7391 5.11276 89.6017
-15.5701 -2.9382 86.8571
-17.7046 5.23664 89.5158
-11.6018 11.7195 86.4773
25.4113 8.20764 75.6225
7.60685 12.9555 78.3375
15.6802 8.76533 78.3375
15.52 4.44 78.3375
15.52 4.44 86.6683
-24.8337 -6.03153 75.6225
-2.72839 -9.98983 92.9247
-13.4482 -4.3018 87.7782
-13.4475 -4.30216 88.5661
-2.72839 -9.98983 92.9645
23.8083 2.19317 78.3375
20.0953 3.1997 78.3375
20.7115 5.46977 78.3375
24.3891 6.39846 78.3375
-19.1878 -9.16326 78.3375
-19.1878 -9.16326 75.6225
13.9196 -3.40157 91.7784
18.001 -4.51638 89.5755
16.0573 4.29434 86.3813
14.1769 -2.47509 92.429
-5.32233 -6.49519 75.6225
-5.79509 -8.3626 78.3375
9.32859 17.1175 75.6225
-24.9182 -6.35083 75.6225
9.32859 17.1175 69.8375
-21.5659 6.308 78.3375
3.48018 12.0851 91.2987
23.8693 11.9498 -101.437
3.70239 12.8752 90.7517
23.04 8.84 -101.437
20.0465 -19.6257 44.2875
6.13712 18.0886 69.8375
11.9335 -10.5515 86.7576
0.0207382 -14.2855 78.3375
19.1526 -22.9777 44.2875
12.9131 -11.426 85.7482
15.0598 -21.0857 44.2875
-4.27792 -15.4993 75.6225
-15.5686 -8.89811 84.345
10.5269 10.1689 87.857
-15.52 -8.03956 84.2389
-15.52 -8.04009 84.8742
-4.43912 -16.0724 75.6225
7.09104 11.1033 89.886
-6.54313 -11.3173 89.6798
7.2276 17.8641 -101.437
-6.33826 -10.5081 90.2973
-23.52 -10.68 69.8375
-6.33824 -10.508 90.1923
20.1784 12.6153 44.2875
20.1784 12.6153 -101.437
-24.8337 -6.03153 78.3375
-12.0528 18.1981 75.6225
-3.339 -12.1609 78.3375
-23.6451 -1.54313 75.6225
-15.8872 11.7214 78.3375
-20.53 -4.94476 78.3375
20.96 -16.2 75.6225
0.159997 0.280002 101.337
-15.2804 -3.80634 86.5982
19.0343 -15.7186 69.8375
12.1926 -17.5314 69.8375
20.3352 13.2058 69.8375
20.1784 12.6153 69.8375
11.798 -11.0392 87.2284
-18.2468 18.8416 75.6225
16.0573 4.29434 78.3375
-18.2468 18.8416 69.8375
-10.2491 16.6878 78.3375
-24.3098 -4.05327 69.8375
-24.3098 -4.05327 75.6225
9.32859 17.1175 -101.437
-24.9182 -6.35083 69.8375
-25.5975 -6.18781 69.8375
19.711 1.78353 84.8042
-25.5231 -6.20564 75.6225
-25.5838 -1.01915 75.6225
-11.0904 21.6356 69.8375
20.96 -16.2 69.8375
11.44 -20.04 69.8375
-10.0915 17.27 78.3375
-20.5519 20.4645 -101.437
26.384 4.13999 44.2875
18.5351 -17.5917 75.6225
0.557735 -12.3572 89.0062
-17.3965 22.0526 44.2875
27.0004 6.45155 44.2875
21.7051 -5.69784 75.6225
3.70488 12.884 75.6225
-3.11737 -11.3729 90.9743
7.2276 17.8641 44.2875
11.7759 -11.1188 86.3593
-19.8083 23.26 44.2875
10.6789 -15.0681 83.586
6.14042 18.0874 69.8375
5.95734 7.03229 78.3375
-14.9595 21.6421 44.2875
15.4496 4.45908 86.7099
6.13712 18.0886 44.2875
15.6803 8.7672 84.3453
27.3321 7.69543 -101.437
17.9622 -4.65933 89.4748
20.0465 -19.6257 -101.437
19.1526 -22.9777 -101.437
-14.6636 4.39289 91.2105
2.33524 8.01418 94.4588
-25.8457 -7.3878 44.2875
3.48023 12.0853 92.0182
16.0571 4.29441 86.351
17.422 -21.7681 44.2875
15.6803 8.76736 84.835
-23.52 -10.68 44.2875
15.0598 -21.0857 69.8375
15.7113 9.60414 84.3304
-25.7019 -9.31012 44.2875
20.3352 13.2058 44.2875
-3.11397 -11.3608 75.6225
20.3352 13.2058 -101.437
-20.0378 -12.3921 69.8375
-25.2359 -7.55043 78.3375
-25.2359 -7.55043 75.6225
-20.0378 -12.3921 75.6225
-12.0528 18.1981 69.8375
6.14042 18.0874 -101.437
-20.1693 19.2852 44.2875
19.6907 -13.256 78.3375
19.6908 -13.2555 75.6225
10.1462 -16.9857 75.6225
21.7051 -5.69784 78.3375
15.3048 -14.4498 78.3375
-1.99937 -7.39776 95.3173
-11.263 21.0193 75.6225
13.9068 -3.44736 93.1906
-13.6652 4.11589 91.7669
16.0573 4.29434 87.1263
-19.8083 23.26 -101.437
-15.6262 -3.14608 86.7326
-9.9892 17.6478 78.3375
-15.6192 -3.14981 78.3375
-19.462 -1.11078 78.3375
-19.5435 13.9452 75.6225
-18.3856 18.3175 78.3375
26.3735 1.4978 75.6225
-1.99932 -7.39759 94.5177
-19.5435 13.9452 78.3375
-22.1016 14.6386 69.8375
-9.02236 21.2098 75.6225
-15.7689 -3.67426 86.4161
22.2591 -13.9496 75.6225
-26.2208 -0.846986 75.6225
23.04 8.84 69.8375
15.9061 -12.2345 83.9881
13.8845 -3.52794 91.6896
11.9198 -11.1576 86.3323
16.3056 -10.7624 78.3375
10.4615 -15.8506 78.3375
25.0917 7.00826 69.8375
-23.8817 -5.79114 78.3375
-11.0904 21.6356 -101.437
-24.9283 -6.38873 78.3375
-11.263 21.0193 -101.437
-3.34301 -12.1751 91.5713
-25.5694 -6.21732 78.3375
-3.33818 -12.158 75.6225
-15.5647 19.1346 -101.437
17.9622 -4.65933 78.3375
-25.5633 -6.21579 75.6225
-11.6297 11.5878 78.3375
-5.32247 -6.49577 78.3375
-17.3965 22.0526 -101.437
-20.1693 19.2852 69.8375
9.32859 17.1175 44.2875
3.47889 12.0805 75.6225
1.66419 -8.38405 78.3375
1.66435 -8.38348 75.6225
-3.66047 -13.3039 75.6225
-15.5647 19.1346 75.6225
2.24 8.04 95.3155
-15.2803 -3.80449 78.3375
-15.5197 -8.03464 78.3375
-15.6385 -3.70952 86.4926
-1.39319 9.0249 75.6225
-22.1016 14.6386 75.6225
25.4113 8.20764 78.3375
23.8083 2.19317 75.6225
-15.5679 12.8675 78.3375
-14.974 14.9994 78.3375
-24.9275 -6.38579 75.6225
-21.5659 6.308 75.6225
-19.867 -2.56482 78.3375
-20.8058 16.972 69.8375
-19.8594 -11.7145 -101.437
-23.6452 -1.5437 78.3375
-20.7874 16.9671 44.2875
-17.6945 5.23385 78.3375
10.5349 10.1667 87.882
-25.8875 -10.0109 -101.437
11.0643 10.8752 78.3375
13.3684 10.2422 85.7172
14.8642 -21.8194 -101.437
-3.11763 -11.3738 92.1353
11.7759 -11.1188 86.4169
-25.2359 -7.55043 -101.437
20.32 -18.6 44.2875
21.6071 -13.7734 75.6225
18.3946 -18.1187 44.2875
-2.67825 -7.21419 94.9169
18.3946 -18.1187 69.8375
27.9783 7.52312 -101.437
17.2375 -22.4604 -101.437
20.32 -18.6 69.8375
25.7262 1.67326 75.6225
15.7544 -18.4812 75.6225
7.09104 11.1033 89.9213
-18.6682 -7.18989 78.3375
7.31069 11.892 89.3031
3.70227 12.8748 91.439
-4.57844 -16.5678 75.6225
19.711 1.78353 78.3375
23.6825 11.2494 -101.437
6.13712 18.0886 -101.437
23.8693 11.9498 44.2875
-18.2468 18.8416 44.2875
11.44 -20.04 75.6225
11.2962 -20.5194 69.8375
-14.7778 22.3948 -101.437
-19.8594 -11.7145 44.2875
-14.8139 4.4346 91.1267
-14.7778 22.3948 44.2875
-20.0378 -12.3921 44.2875
21.616 -16.364 -101.437
-21.3317 14.4299 75.6225
-17.1752 22.8883 44.2875
11.798 -11.0392 86.4647
-17.9974 19.7833 69.8375
17.9622 -4.65933 88.5563
-14.9595 21.6421 -101.437
25.0917 7.00826 44.2875
-15.635 -3.70863 78.3375
-11.7055 11.8204 78.3375
-11.263 21.0193 69.8375
27.0004 6.45155 69.8375
-11.8118 10.9452 86.8708
-3.11764 -11.3738 92.1996
21.616 -16.364 44.2875
-25.1056 -3.81065 69.8375
2.33524 8.01418 95.2591
27.0227 3.93531 44.2875
27.0227 3.93531 69.8375
0.159999 0.28 101.337
25.4113 8.20764 44.2875
9.45691 -19.4671 75.6225
20.96 -16.2 44.2875
20.3352 13.2058 75.6225
27.643 6.26414 -101.437
-15.6385 -3.70951 86.4108
-3.11732 -11.3727 90.7401
-11.263 21.0193 44.2875
3.70443 12.8824 78.3375
-20.7874 16.9671 69.8375
-21.4363 17.1397 44.2875
-11.0904 21.6356 75.6225
11.7759 -11.1189 87.1658
15.92 3.8 78.3375
-13.9368 3.11509 92.4631
-23.3219 -9.99767 69.8375
-23.3219 -9.99767 44.2875
-22.8 -8.2 44.2875
-22.8 -8.2 69.8375
-1.99932 -7.39759 94.498
-3.11761 -11.3737 92.0847
-3.17223 -11.3592 92.1673
-3.11763 -11.3738 92.1353
-18.3856 18.3175 75.6225
26.189 11.1253 44.2875
10.1462 -16.9857 78.3375
-23.7277 -11.3954 44.2875
-17.7038 5.23644 88.7245
-11.6017 11.7195 86.4177
-11.7055 11.8204 86.3063
-17.7036 5.23638 88.4753
20.1784 12.6153 75.6225
19.4315 9.80225 69.8375
-16.8453 -7.679 78.3375
-9.1694 20.6666 75.6225
5.2123 18.2437 75.6225
11.9201 -11.1579 87.0804
-22.8 -8.2 75.6225
2.93025 7.85288 94.9064
-18.9804 23.26 -101.437
-26.8664 -3.27391 44.2875
-26.2363 -3.46599 44.2875
-26.88 -5.88 44.2875
-3.07453 -11.3853 92.11
-26.88 -5.88 69.8375
-20.8253 19.4366 44.2875
-27.5188 -5.72669 44.2875
9.31977 -19.9608 75.6225
9.22651 -20.2966 75.6225
10.68 -15.064 78.3375
-1.9982 -7.3936 75.6225
-11.0904 21.6356 44.2875
3.48024 12.0853 92.0595
-9.98678 17.6471 75.6225
26.3735 1.4978 69.8375
20.96 -16.2 -101.437
-17.1752 22.8883 -101.437
-14.9595 21.6421 69.8375
17.2375 -22.4604 44.2875
-15.5647 19.1346 69.8375
27.0227 3.93531 -101.437
26.384 4.13999 -101.437
20.9767 -18.7642 -101.437
20.32 -18.6 -101.437
16.0571 4.29441 78.3375
-25.8457 -7.3878 69.8375
28.7 10.2329 -101.437
-11.6024 11.7201 87.2462
11.9173 -11.1551 78.3375
-15.8519 -3.02632 86.6242
-11.7055 11.8204 86.3628
-11.5956 11.7136 78.3375
3.29958 11.443 92.5643
-15.6388 -3.70961 87.2738
2.33524 8.01418 78.3375
-28.6715 -10.0601 -101.437
2.33524 8.01418 94.5568
-26.2205 -0.84576 69.8375
11.3569 -11.0056 86.5844
14.8642 -21.8194 44.2875
2.33524 8.01418 75.6225
-17.9974 19.7833 -101.437
23.04 8.84 75.6225
18.1292 -19.1145 69.8375
-27.1867 -7.03021 69.8375
-27.1867 -7.03021 44.2875
-11.5841 11.7875 87.194
-28.6715 -10.0601 44.2875
11.2029 -20.8304 44.2875
-3.11457 -11.3629 78.3375
-17.9974 19.7833 44.2875
6.13712 18.0886 75.6225
25.4113 8.20764 -101.437
27.643 6.26414 44.2875
23.6825 11.2494 69.8375
27.0004 6.45155 -101.437
16.0573 4.29434 86.3509
26.189 11.1253 -101.437
13.8845 -3.52794 93.1273
20.7008 -19.8002 44.2875
0.160006 0.279998 101.338
28.7 10.2329 44.2875
-15.7696 -3.67424 87.1966
-27.8206 -6.86118 44.2875
25.4113 8.20764 69.8375
15.7544 -18.4812 44.2875
2.2043 0.796237 99.51
0.159999 0.28 101.337
-25.2359 -7.55043 69.8375
-10.1075 11.3872 87.2453
-13.6664 4.11623 93.1379
3.00662 0.998844 98.7928
-1.99836 -7.39417 78.3375
-11.5834 11.7873 86.3781
18.1292 -19.1145 44.2875
-11.5762 11.7854 78.3375
15.9064 -12.2333 78.3375
24.2675 -6.4088 75.6225
3.48024 12.0853 92.0595
3.47911 12.0813 78.3375
-18.9804 23.26 44.2875
11.2029 -20.8304 69.8375
-15.5647 19.1346 44.2875
-10.4698 15.8723 78.3375
-25.8875 -10.0109 44.2875
2.33524 8.01418 95.3715
17.9622 -4.65933 88.6223
-15.7612 -3.6745 78.3375
0.159999 0.28 101.337
15.7544 -18.4812 69.8375
0.159999 0.28 101.338
27.9783 7.52312 44.2875
0.159999 0.28 101.338
3.99581 13.9185 75.6225
11.2029 -20.8304 75.6225
28.0686 10.4573 -101.437
16.0571 4.29441 87.1265
11.2962 -20.5194 75.6225
17.9385 -17.0114 78.3375
0.159999 0.28 101.337
-19.9011 20.291 44.2875
-20.0378 -12.3921 -101.437
-15.6372 -10.1101 75.6225
18.1292 -19.1145 -101.437
8.81655 17.2994 69.8375
-18.8778 16.4589 69.8375
11.2029 -20.8304 -101.437
-15.7804 -3.74536 78.3375
11.2962 -20.5194 -101.437
-27.8206 -6.86118 -101.437
17.1856 8.3562 78.3375
6.14042 18.0874 75.6225
-26.0855 -10.7586 -101.437
-11.7055 11.8204 87.1227
11.2962 -20.5194 44.2875
-23.7277 -11.3954 -101.437
-23.52 -10.68 -101.437
7.2276 17.8641 69.8375
14.9365 -21.5481 -101.437
0.161299 0.279639 101.337
22.2594 -13.9484 69.8375
15.7544 -18.4812 -101.437
-26.0855 -10.7586 44.2875
-1.39319 9.0249 78.3375
-26.8664 -3.27391 -101.437
-27.5188 -5.72669 -101.437
-20.8253 19.4366 -101.437
20.7008 -19.8002 -101.437
0.159999 0.279999 101.338
28.0686 10.4573 44.2875
16.0574 4.29448 78.3375
5.22169 18.2771 75.6225
0.159999 0.28 101.337
20.9767 -18.7642 44.2875
11.7764 -11.1171 78.3375
-20.5519 20.4645 44.2875
-25.2359 -7.55043 44.2875
27.3321 7.69543 44.2875
-24.1284 7.01899 75.6225
19.8073 -23.1545 -101.437
-23.3219 -9.99767 75.6225
19.8073 -23.1545 44.2875
14.9365 -21.5481 44.2875
0.159999 0.28 101.337
3.48025 12.0853 92.191
-17.9662 17.9096 78.3375
14.9365 -21.5481 69.8375
23.04 8.84 44.2875
0.159999 0.28 101.337
0.159999 0.28 101.337
0.159999 0.28 101.338
-1.99937 -7.39776 95.3173
0.16 0.28 101.338
4  355 509 590 312  255 0 0
5  545 622 416 422 619  255 0 0
6  355 301 551 389 526 509  255 0 0
4  545 557 632 622  255 0 0
4  355 312 645 301  255 0 0
4  545 619 573 557  255 0 0
4  649 323 254 651  255 0 0
4  649 637 322 323  255 0 0
4  649 651 569 637  255 0 0
4  509 526 452 590  255 0 0
4  536 428 601 571  255 0 0
6  265 440 343 270 337 291  255 0 0
4  536 605 320 428  255 0 0
4  265 310 318 440  255 0 0
4  536 571 639 605  255 0 0
4  265 291 391 310  255 0 0
4  310 627 251 318  255 0 0
7  310 391 335 282 244 614 627  255 0 0
4  651 254 250 569  255 0 0
4  571 601 647 639  255 0 0
7  590 452 305 560 610 645 312  255 0 0
8  557 573 555 326 646 334 594 632  255 0 0
4  428 474 563 601  255 0 0
4  601 563 306 647  255 0 0
4  645 515 636 301  255 0 0
12  301 636 634 635 619 422 631 613 562 249 384 551  255 0 0
4  428 320 565 474  255 0 0
4  645 610 344 515  255 0 0
5  627 614 143 314 251  255 0 0
7  538 349 25 608 138 519 644  255 0 0
5  458 617 276 409 597  255 0 0
5  458 398 399 503 617  255 0 0
4  538 644 311 200  255 0 0
4  458 475 279 398  255 0 0
5  459 541 387 275 405  255 0 0
7  459 406 74 655 27 593 585  255 0 0
5  534 640 232 231 286  255 0 0
5  534 223 222 620 640  255 0 0
4  459 499 498 541  255 0 0
7  459 585 583 556 623 540 499  255 0 0
4  534 328 224 223  255 0 0
4  573 516 512 555  255 0 0
4  569 643 532 637  255 0 0
4  569 250 423 643  255 0 0
7  534 286 566 238 354 606 328  255 0 0
3  459 405 406  255 0 0
5  544 315 50 45 12  255 0 0
4  286 231 438 483  255 0 0
4  286 483 87 566  255 0 0
5  582 388 241 103 559  255 0 0
4  582 559 198 393  255 0 0
3  538 586 349  255 0 0
6  538 200 373 255 371 586  255 0 0
3  377 271 44  255 0 0
6  377 40 276 617 503 434  255 0 0
8  559 273 381 463 492 490 309 476  255 0 0
4  559 103 102 273  255 0 0
5  377 434 104 379 271  255 0 0
4  608 25 24 186  255 0 0
5  608 186 185 139 138  255 0 0
5  559 476 309 304 198  255 0 0
4  528 254 323 429  255 0 0
5  528 549 652 256 329  255 0 0
5  584 250 254 528 329  255 0 0
4  584 575 599 553  255 0 0
4  584 329 256 575  255 0 0
4  494 441 247 567  255 0 0
5  494 639 647 470 89  255 0 0
4  470 657 90 89  255 0 0
4  470 647 306 457  255 0 0
4  574 370 657 470  255 0 0
4  494 89 90 441  255 0 0
4  452 448 316 305  255 0 0
4  560 592 529 454  255 0 0
4  560 305 316 592  255 0 0
5  519 198 304 154 313  255 0 0
5  519 138 139 495 375  255 0 0
4  644 519 313 311  255 0 0
5  503 399 140 104 434  255 0 0
4  602 642 570 662  255 0 0
3  661 363 426  255 0 0
4  660 658 659 600  255 0 0
4  600 659 642 602  255 0 0
4  660 93 201 658  255 0 0
4  543 106 107 400  255 0 0
9  661 426 228 106 543 61 93 660 600  255 0 0
4  632 496 625 622  255 0 0
4  578 535 293 292  255 0 0
4  578 488 487 646  255 0 0
4  646 487 486 334  255 0 0
4  646 326 535 578  255 0 0
4  632 594 331 496  255 0 0
4  549 558 624 652  255 0 0
4  549 528 429 419  255 0 0
4  599 332 299 281  255 0 0
4  599 575 256 332  255 0 0
3  602 662 638  255 0 0
4  544 12 10 633  255 0 0
4  541 498 462 387  255 0 0
4  653 609 598 642  255 0 0
4  642 598 629 570  255 0 0
4  537 219 540 623  255 0 0
6  658 201 91 353 30 580  255 0 0
3  580 30 29  255 0 0
4  577 469 609 653  255 0 0
7  537 29 30 353 41 78 219  255 0 0
9  653 642 659 658 580 29 537 278 577  255 0 0
3  568 72 71  255 0 0
4  284 453 373 506  255 0 0
4  284 67 68 453  255 0 0
10  568 71 66 67 284 33 638 662 570 629  255 0 0
4  595 466 469 577  255 0 0
5  661 350 32 192 363  255 0 0
5  602 638 350 661 600  255 0 0
4  441 335 337 247  255 0 0
4  370 502 283 564  255 0 0
4  441 90 269 335  255 0 0
4  370 564 90 657  255 0 0
6  586 39 345 24 25 349  255 0 0
6  385 38 15 39 586 374  255 0 0
4  385 374 52 455  255 0 0
4  586 371 52 374  255 0 0
4  482 421 80 79  255 0 0
4  563 467 302 306  255 0 0
4  474 530 467 563  255 0 0
4  643 464 450 532  255 0 0
4  532 450 525 533  255 0 0
6  467 464 158 630 524 468  255 0 0
4  530 450 464 467  255 0 0
4  530 474 565 531  255 0 0
4  589 12 45 49  255 0 0
4  589 478 115 195  255 0 0
3  233 2 1  255 0 0
6  233 6 232 640 620 96  255 0 0
4  589 49 173 478  255 0 0
5  233 96 95 99 2  255 0 0
5  620 222 8 95 96  255 0 0
6  595 397 163 162 546 466  255 0 0
4  595 577 278 397  255 0 0
8  623 556 84 160 163 397 278 537  255 0 0
6  568 352 239 236 372 72  255 0 0
3  568 629 352  255 0 0
4  543 400 367 572  255 0 0
5  458 597 367 400 475  255 0 0
4  597 409 359 358  255 0 0
4  597 358 356 367  255 0 0
4  572 367 356 60  255 0 0
4  543 572 60 61  255 0 0
4  594 334 486 331  255 0 0
4  656 332 256 652  255 0 0
4  656 444 299 332  255 0 0
4  656 652 624 444  255 0 0
4  506 373 421 482  255 0 0
5  567 247 439 249 562  255 0 0
4  567 605 639 494  255 0 0
4  562 320 605 567  255 0 0
5  648 369 547 365 402  255 0 0
6  648 402 451 360 19 408  255 0 0
5  587 362 524 630 368  255 0 0
6  587 368 424 346 13 307  255 0 0
5  648 408 274 296 369  255 0 0
6  587 307 18 404 431 362  255 0 0
6  547 151 510 480 148 365  255 0 0
4  369 152 151 547  255 0 0
4  368 157 277 424  255 0 0
4  630 158 157 368  255 0 0
4  369 296 153 152  255 0 0
4  362 135 468 524  255 0 0
4  402 147 149 451  255 0 0
4  365 148 147 402  255 0 0
4  362 431 136 135  255 0 0
4  599 281 137 432  255 0 0
4  553 599 432 184  255 0 0
4  354 238 86 37  255 0 0
7  598 609 576 581 239 352 629  255 0 0
6  354 37 36 239 581 606  255 0 0
7  284 506 482 79 81 32 33  255 0 0
4  638 33 32 350  255 0 0
5  409 58 170 414 359  255 0 0
6  414 170 21 171 405 275  255 0 0
5  414 500 497 155 359  255 0 0
4  544 633 401 550  255 0 0
4  550 401 9 11  255 0 0
4  550 48 315 544  255 0 0
8  641 129 146 366 481 297 251 561  255 0 0
4  641 561 621 505  255 0 0
5  550 11 46 51 48  255 0 0
4  641 505 127 129  255 0 0
5  522 327 246 248 436  255 0 0
5  588 327 119 122 542  255 0 0
3  466 546 508  255 0 0
4  606 130 224 328  255 0 0
3  588 542 654  255 0 0
4  522 433 263 327  255 0 0
4  496 449 611 625  255 0 0
4  331 446 449 496  255 0 0
4  267 55 446 331  255 0 0
4  637 532 533 322  255 0 0
4  619 635 516 573  255 0 0
8  613 322 533 525 531 565 320 562  255 0 0
5  613 631 628 419 429  255 0 0
4  584 425 423 250  255 0 0
5  515 480 510 634 636  255 0 0
4  635 634 510 516  255 0 0
4  516 510 511 512  255 0 0
4  429 323 322 613  255 0 0
4  622 625 626 416  255 0 0
7  422 416 626 411 618 628 631  255 0 0
4  419 616 558 549  255 0 0
4  419 628 618 616  255 0 0
4  625 611 411 626  255 0 0
4  618 411 611 616  255 0 0
4  616 611 449 558  255 0 0
6  558 449 338 189 188 591  255 0 0
4  553 427 425 584  255 0 0
4  470 457 376 574  255 0 0
5  609 469 466 508 576  255 0 0
6  606 581 576 508 118 130  255 0 0
3  463 491 492  255 0 0
4  603 172 113 128  255 0 0
9  603 505 621 144 501 175 3 42 174  255 0 0
5  603 174 94 308 172  255 0 0
4  603 128 127 505  255 0 0
4  370 574 220 552  255 0 0
4  454 529 396 132  255 0 0
4  526 445 448 452  255 0 0
4  445 378 521 448  255 0 0
4  445 526 389 456  255 0 0
4  448 521 477 316  255 0 0
4  521 318 251 297  255 0 0
4  378 440 318 521  255 0 0
4  378 445 456 380  255 0 0
4  340 507 488 578  255 0 0
4  582 393 394 520  255 0 0
5  437 210 188 189 190  255 0 0
4  437 190 191 262  255 0 0
4  395 211 208 257  255 0 0
4  395 180 101 383  255 0 0
4  520 394 197 336  255 0 0
4  520 240 388 582  255 0 0
4  437 262 209 210  255 0 0
8  395 257 56 650 507 235 612 180  255 0 0
4  395 383 196 211  255 0 0
5  520 336 100 26 240  255 0 0
4  336 383 101 100  255 0 0
4  336 197 196 383  255 0 0
5  392 308 94 51 46  255 0 0
4  392 11 9 194  255 0 0
3  392 46 11  255 0 0
6  231 5 16 38 385 438  255 0 0
5  385 455 596 294 438  255 0 0
4  262 257 208 209  255 0 0
5  262 191 54 56 257  255 0 0
5  596 321 237 88 294  255 0 0
5  596 455 52 70 321  255 0 0
4  566 87 86 238  255 0 0
4  564 283 269 90  255 0 0
4  529 342 272 396  255 0 0
4  527 460 342 529  255 0 0
4  316 477 460 527  255 0 0
4  529 592 316 527  255 0 0
6  591 188 210 168 518 604  255 0 0
4  444 624 558 591  255 0 0
4  655 74 75 361  255 0 0
5  655 361 133 179 27  255 0 0
4  589 195 10 12  255 0 0
8  588 654 161 169 204 213 246 327  255 0 0
4  585 108 83 583  255 0 0
4  593 207 108 585  255 0 0
6  593 27 179 357 300 288  255 0 0
4  556 583 83 84  255 0 0
5  546 325 116 118 508  255 0 0
4  546 122 119 325  255 0 0
5  542 122 121 161 654  255 0 0
4  546 162 121 122  255 0 0
3  579 83 105  255 0 0
5  579 159 160 84 83  255 0 0
6  579 105 169 161 121 159  255 0 0
4  404 22 136 431  255 0 0
6  0 98 376 187 22 69  255 0 0
5  574 376 98 97 220  255 0 0
6  405 171 364 75 74 406  255 0 0
4  414 275 77 500  255 0 0
4  650 56 57 485  255 0 0
4  485 57 55 267  255 0 0
4  507 650 485 488  255 0 0
4  552 175 502 370  255 0 0
4  314 143 144 621  255 0 0
4  251 314 621 561  255 0 0
4  560 442 344 610  255 0 0
4  454 287 442 560  255 0 0
4  554 535 326 555  255 0 0
4  554 514 293 535  255 0 0
4  555 512 514 554  255 0 0
4  551 384 456 389  255 0 0
4  247 337 270 439  255 0 0
7  249 439 270 343 380 456 384  255 0 0
4  440 378 380 343  255 0 0
4  335 391 291 337  255 0 0
4  485 267 331 486  255 0 0
4  392 194 114 308  255 0 0
4  423 472 464 643  255 0 0
4  531 525 450 530  255 0 0
4  366 146 126 504  255 0 0
4  523 272 351 504  255 0 0
4  593 288 193 207  255 0 0
4  366 504 351 481  255 0 0
4  523 504 126 125  255 0 0
4  357 145 34 300  255 0 0
4  523 125 145 357  255 0 0
4  443 471 347 137  255 0 0
4  137 281 299 443  255 0 0
4  460 477 521 297  255 0 0
4  518 168 167 517  255 0 0
4  517 167 165 471  255 0 0
4  517 607 604 518  255 0 0
4  471 165 164 347  255 0 0
4  471 443 607 517  255 0 0
5  519 375 31 199 198  255 0 0
4  344 413 480 515  255 0 0
4  390 479 413 344  255 0 0
4  514 150 465 293  255 0 0
4  512 511 150 514  255 0 0
4  151 150 511 510  255 0 0
6  507 340 339 202 234 235  255 0 0
5  501 144 142 242 473  255 0 0
4  175 501 283 502  255 0 0
4  499 540 219 498  255 0 0
4  498 219 78 462  255 0 0
5  500 77 76 218 497  255 0 0
5  497 218 216 156 155  255 0 0
5  363 489 227 228 426  255 0 0
4  420 490 178 177  255 0 0
5  491 266 268 490 492  255 0 0
4  363 229 226 489  255 0 0
7  490 420 513 131 154 304 309  255 0 0
4  400 107 279 475  255 0 0
7  490 268 59 107 227 226 178  255 0 0
3  489 226 227  255 0 0
4  488 485 486 487  255 0 0
6  552 220 403 206 176 175  255 0 0
4  479 390 287 615  255 0 0
5  479 410 148 480 413  255 0 0
4  283 282 335 269  255 0 0
4  357 179 272 523  255 0 0
5  396 272 179 133 132  255 0 0
4  472 423 430 298  255 0 0
4  306 302 134 461  255 0 0
4  461 134 187 376  255 0 0
4  134 302 467 468  255 0 0
4  298 430 427 280  255 0 0
4  158 464 472 298  255 0 0
4  376 457 306 461  255 0 0
4  373 200 311 421  255 0 0
5  453 68 53 255 373  255 0 0
4  371 255 53 52  255 0 0
4  338 449 446 55  255 0 0
4  287 390 344 442  255 0 0
4  495 166 31 375  255 0 0
4  495 347 164 166  255 0 0
4  245 170 58 412  255 0 0
4  360 451 149 73  255 0 0
4  364 171 21 20  255 0 0
4  245 20 21 170  255 0 0
4  364 20 19 360  255 0 0
4  408 19 20 245  255 0 0
4  294 87 483 438  255 0 0
4  288 300 34 193  255 0 0
4  478 248 214 115  255 0 0
5  478 173 435 436 248  255 0 0
5  99 95 176 206 205  255 0 0
4  436 435 433 522  255 0 0
4  173 417 418 435  255 0 0
4  435 418 415 433  255 0 0
4  433 415 259 263  255 0 0
4  495 139 137 347  255 0 0
5  432 137 139 185 184  255 0 0
4  427 430 423 425  255 0 0
4  421 311 548 80  255 0 0
5  363 192 85 177 229  255 0 0
4  420 177 85 513  255 0 0
4  418 333 330 415  255 0 0
4  417 8 333 418  255 0 0
5  417 173 221 123 7  255 0 0
4  415 330 182 259  255 0 0
5  412 58 40 377 44  255 0 0
4  245 412 274 408  255 0 0
3  403 205 206  255 0 0
4  633 10 9 401  255 0 0
4  194 9 10 195  255 0 0
6  230 5 6 233 1 23  255 0 0
4  348 38 16 17  255 0 0
4  230 17 16 5  255 0 0
4  279 260 399 398  255 0 0
4  393 198 197 394  255 0 0
4  387 462 77 275  255 0 0
3  382 271 379  255 0 0
5  386 295 225 271 382  255 0 0
4  386 407 243 295  255 0 0
4  382 379 407 386  255 0 0
5  379 104 234 202 203  255 0 0
3  339 203 202  255 0 0
5  379 203 339 340 407  255 0 0
3  68 252 53  255 0 0
4  364 360 73 75  255 0 0
4  361 75 73 493  255 0 0
5  356 217 110 109 60  255 0 0
3  356 539 217  255 0 0
5  356 358 359 155 539  255 0 0
4  484 109 110 92  255 0 0
5  353 92 111 447 324  255 0 0
4  218 447 111 216  255 0 0
4  351 460 297 481  255 0 0
4  346 424 277 120  255 0 0
4  345 39 15 14  255 0 0
4  348 14 15 38  255 0 0
4  348 307 13 14  255 0 0
4  345 14 13 346  255 0 0
4  345 346 120 24  255 0 0
4  186 24 120 303  255 0 0
4  272 342 460 351  255 0 0
4  607 444 591 604  255 0 0
4  341 190 189 338  255 0 0
4  54 191 190 341  255 0 0
4  341 338 55 54  255 0 0
3  8 417 7  255 0 0
6  333 8 222 319 182 330  255 0 0
6  259 182 28 317 116 117  255 0 0
5  263 259 117 119 327  255 0 0
4  325 119 117 116  255 0 0
5  252 68 67 66 65  255 0 0
5  372 65 66 71 72  255 0 0
6  321 70 53 252 65 64  255 0 0
4  372 63 64 65  255 0 0
5  317 224 130 118 116  255 0 0
3  317 28 224  255 0 0
4  311 313 154 548  255 0 0
4  443 299 444 607  255 0 0
4  308 114 113 172  255 0 0
4  348 17 18 307  255 0 0
4  404 18 17 230  255 0 0
5  303 120 280 427 183  255 0 0
4  184 183 427 553  255 0 0
4  473 242 244 282  255 0 0
4  501 473 282 283  255 0 0
3  225 295 243  255 0 0
4  274 290 153 296  255 0 0
5  407 340 578 292 243  255 0 0
6  225 243 292 289 290 43  255 0 0
4  293 465 289 292  255 0 0
5  153 290 289 465 150  255 0 0
5  493 73 615 287 285  255 0 0
4  132 285 287 454  255 0 0
5  149 410 479 615 73  255 0 0
4  120 277 298 280  255 0 0
4  276 40 58 409  255 0 0
5  412 44 43 290 274  255 0 0
4  273 102 264 381  255 0 0
5  381 264 266 491 463  255 0 0
4  102 140 258 264  255 0 0
4  264 258 261 266  255 0 0
4  266 261 59 268  255 0 0
4  140 102 181 141  255 0 0
6  261 258 140 399 260 59  255 0 0
4  211 164 165 208  255 0 0
4  253 166 164 211  255 0 0
4  199 31 166 253  255 0 0
4  199 253 211 196  255 0 0
4  248 246 213 214  255 0 0
4  213 204 212 214  255 0 0
4  242 142 614 244  255 0 0
4  388 240 26 241  255 0 0
4  103 241 26 100  255 0 0
4  239 36 35 236  255 0 0
4  372 236 62 63  255 0 0
5  321 64 63 62 237  255 0 0
5  237 62 35 86 88  255 0 0
3  236 35 62  255 0 0
4  104 140 141 234  255 0 0
4  234 141 612 235  255 0 0
4  232 6 5 231  255 0 0
4  230 23 22 404  255 0 0
4  69 22 23 1  255 0 0
4  229 177 178 226  255 0 0
4  227 107 106 228  255 0 0
5  28 319 222 223 224  255 0 0
5  99 205 403 220 97  255 0 0
6  218 76 78 41 324 447  255 0 0
3  353 324 41  255 0 0
6  217 539 156 216 111 110  255 0 0
3  92 110 111  255 0 0
4  115 193 34 112  255 0 0
4  214 212 193 115  255 0 0
4  204 207 193 212  255 0 0
4  209 167 168 210  255 0 0
4  208 165 167 209  255 0 0
4  112 34 145 215  255 0 0
4  198 199 196 197  255 0 0
4  115 114 194 195  255 0 0
4  22 187 134 136  255 0 0
5  186 303 183 184 185  255 0 0
4  180 612 141 181  255 0 0
4  102 101 180 181  255 0 0
5  60 109 484 93 61  255 0 0
5  82 80 131 513 85  255 0 0
4  82 192 32 81  255 0 0
3  82 85 192  255 0 0
5  95 8 7 124 176  255 0 0
5  176 124 4 3 175  255 0 0
6  174 42 4 124 123 221  255 0 0
4  221 173 94 174  255 0 0
4  128 125 126 127  255 0 0
4  215 145 125 128  255 0 0
4  112 215 128 113  255 0 0
4  163 160 159 162  255 0 0
3  162 159 121  255 0 0
4  157 158 298 277  255 0 0
3  156 539 155  255 0 0
4  152 153 150 151  255 0 0
4  149 147 148 410  255 0 0
4  142 144 143 614  255 0 0
4  136 134 468 135  255 0 0
5  133 361 493 285 132  255 0 0
4  80 82 81 79  255 0 0
4  80 548 154 131  255 0 0
4  127 126 146 129  255 0 0
3  124 7 123  255 0 0
4  115 112 113 114  255 0 0
5  83 108 207 204 105  255 0 0
3  169 105 204  255 0 0
4  103 100 101 102  255 0 0
5  99 97 98 0 2  255 0 0
5  49 47 51 94 173  255 0 0
5  201 93 484 92 91  255 0 0
3  353 91 92  255 0 0
4  86 35 36 37  255 0 0
4  88 86 87 294  255 0 0
4  462 78 76 77  255 0 0
4  107 59 260 279  255 0 0
4  56 54 55 57  255 0 0
3  53 70 52  255 0 0
6  315 48 51 47 45 50  255 0 0
3  49 45 47  255 0 0
4  271 225 43 44  255 0 0
3  42 3 4  255 0 0
3  28 182 319  255 0 0
4  1 2 0 69  255 0 0

