OFF
663 547 0

-16.7568 11.7487 78.3375
-20.0432 12.0582 75.6225
-20.0974 11.8536 78.3375
24.489 4.74725 78.3375
24.489 4.74725 75.6225
19.0343 -15.7186 78.3375
15.7702 -14.9026 78.3375
-5.79509 -8.3626 78.3375
-5.79509 -8.3626 75.6225
-12.0528 18.1981 78.3375
-12.5459 16.4365 78.3375
15.6803 8.76735 84.8139
15.6803 8.7672 84.3453
15.5212 4.47231 86.6545
-13.4178 5.03196 92.4284
-13.6652 4.1159 91.788
8.31842 -16.4982 78.3375
8.90664 -15.4349 78.3375
-1.30426 -7.58553 94.9059
1.60266 -1.12314 99.5885
-8.46253 16.7949 78.3375
-8.26588 17.1882 78.3375
15.4311 2.04 88.8922
15.4311 2.04 87.9622
15.92 3.8 87.5136
15.92 3.8 86.728
18.6721 -4.85632 78.3375
16.6176 -12.4255 78.3375
-20.5889 -2.36972 78.3375
-21.3436 -5.15021 78.3375
-12.3158 9.08838 88.3077
-14.6636 4.39289 91.2105
15.9875 10.7207 78.3375
15.1107 10.9545 75.6225
-24.8337 -6.03153 75.6225
-24.7105 -5.56647 75.6225
-24.7111 -5.56861 78.3375
-24.8337 -6.03153 78.3375
7.08999 11.0995 77.0279
7.06253 11.0009 78.3375
3.26678 11.3263 75.6225
6.64395 11.2203 75.6225
3.20927 11.1219 78.3375
5.95734 7.03229 75.6225
7.08988 11.0991 75.6225
7.0901 11.0999 78.3375
6.4587 8.83261 78.3375
5.95734 7.03229 78.3375
3.00662 0.998844 98.7928
14.1769 -2.47509 92.429
16.3056 -10.7624 85.1766
16.3056 -10.7624 84.8758
11.9907 -10.6026 86.6986
-19.8594 -11.7145 75.6225
-19.8594 -11.7145 69.8375
-14.9107 -3.52574 87.9219
15.2165 -3.7558 91.0784
15.2113 -3.89607 90.969
15.2794 -3.91497 90.932
12.2616 -9.37013 87.5872
12.2616 -9.37013 88.5392
11.92 -10.6 87.5733
11.92 -10.6 86.7285
13.649 -4.37568 92.4615
13.8845 -3.52794 91.867
-18.8778 16.4589 75.6225
-18.8778 16.4589 78.3375
-15.5696 15.5786 78.3375
-11.8151 10.9336 87.0241
-16.0419 11.1905 85.3898
-16.0332 11.2204 84.993
-11.8118 10.9452 86.8708
11.3568 -11.0057 87.4137
11.3569 -11.0056 86.6633
9.52674 -10.5114 88.4967
9.52748 -10.5114 87.7392
-11.04 11.64 87.5136
-11.04 11.64 86.6973
-2.71069 -10.0581 92.909
-3.07453 -11.3853 92.11
-1.98256 -7.40212 94.5078
15.92 3.8 86.646
19.711 1.78353 84.8042
19.711 1.78353 85.1846
25.983 10.3526 44.2875
23.6825 11.2494 44.2875
15.52 4.44 87.4448
15.52 4.44 86.6683
-13.6693 4.10074 91.7774
-13.1034 3.96001 92.08
-2.32699 -0.348027 99.1236
-13.9368 3.11509 92.4631
-13.6652 4.11589 91.7669
0.159999 0.28 99.4715
7.31292 11.9 75.6225
7.31248 11.8984 78.3375
19.1322 8.67494 78.3375
18.9223 7.88421 78.3375
25.1024 7.04848 75.6225
25.0917 7.00826 75.6225
24.9681 6.54467 75.6225
24.9681 6.54467 78.3375
25.102 7.04688 78.3375
-6.33532 -10.4965 75.6225
-6.53927 -11.3021 75.6225
-6.54002 -11.3051 78.3375
-6.33586 -10.4987 78.3375
-18.8828 -8.00505 78.3375
-18.6682 -7.18989 78.3375
-10.9077 11.9046 86.5667
-9.10798 15.504 84.3415
-9.10792 15.5042 84.7897
-15.52 -8.04003 84.7971
-15.2804 -3.80654 87.4852
-15.2804 -3.80636 86.7028
-11.04 11.64 78.3375
-9.10881 15.5024 78.3375
-0.830204 11.2487 78.3375
-15.1411 -1.34596 89.0027
-15.1414 -1.35058 87.9669
-14.8166 4.38604 91.1641
-0.0474612 14.3405 78.3375
-0.0474612 14.3405 75.6225
-0.150042 13.9353 75.6225
-0.150448 13.9337 78.3375
13.882 4.88403 87.6362
4.21332 10.027 92.3338
13.882 4.88403 88.4156
2.89298 9.99728 93.27
10.5269 10.1689 87.857
19.0343 -15.7186 75.6225
2.77 9.99452 93.3572
2.89001 9.98669 93.4105
15.7529 10.728 78.3375
15.7549 10.7827 78.3375
11.0643 10.8752 78.3375
-8.26588 17.1882 75.6225
-6.73201 20.256 75.6225
-6.51339 20.6932 75.6225
1.11542 18.9339 75.6225
0.108142 14.9552 75.6225
1.16081 19.1132 75.6225
11.3569 -11.0056 86.5844
9.31207 -14.702 84.3179
9.31185 -14.7024 84.8466
27.0227 3.93531 69.8375
27.0227 3.93531 75.6225
26.384 4.13999 75.6225
12.1926 -17.5314 78.3375
12.765 -15.6234 78.3375
12.1926 -17.5314 75.6225
-15.5682 -8.89126 78.3375
-15.6372 -10.1101 78.3375
-15.6372 -10.1101 75.6225
8.75243 17.0692 75.6225
8.75243 17.0692 69.8375
8.81655 17.2994 69.8375
8.81655 17.2994 75.6225
-21.4363 17.1397 75.6225
-21.4363 17.1397 69.8375
-20.8058 16.972 69.8375
-20.8058 16.972 75.6225
-26.2363 -3.46599 75.6225
-26.2363 -3.46599 69.8375
-26.8664 -3.27391 69.8375
-26.8664 -3.27391 75.6225
-15.8519 -3.02632 86.6242
-19.4675 -1.10785 84.8884
-19.4678 -1.1077 85.221
21.616 -16.364 69.8375
20.96 -16.2 69.8375
20.96 -16.2 75.6225
21.616 -16.364 75.6225
-7.42079 10.6589 88.824
-7.10299 10.5727 89.8266
3.3336 12.1252 92.1048
2.25212 8.03671 94.5079
1.56074 8.22414 94.9164
8.31842 -16.4982 75.6225
7.05924 -18.7744 75.6225
6.79731 -19.2479 75.6225
6.60841 -19.5894 75.6225
-18.4669 5.44816 78.3375
-16.3925 13.091 78.3375
0.108142 14.9552 78.3375
3.79899 13.2186 75.6225
7.60685 12.9555 75.6225
7.60685 12.9555 78.3375
19.4315 9.80225 75.6225
19.4315 9.80225 78.3375
-2.74722 -10.0568 92.884
-2.74722 -10.0568 92.9244
-15.627 -3.1457 87.6066
-15.6262 -3.14608 86.7326
-12.0528 18.1981 75.6225
-17.9974 19.7833 78.3375
-6.83194 -12.4581 75.6225
-6.83194 -12.4581 78.3375
18.5351 -17.5917 75.6225
18.3946 -18.1187 75.6225
18.1292 -19.1145 75.6225
18.1292 -19.1145 78.3375
18.5351 -17.5917 78.3375
24.489 4.74725 69.8375
26.384 4.13999 69.8375
25.0917 7.00826 69.8375
-0.892107 -17.5635 75.6225
-0.892107 -17.5635 69.8375
-7.52608 -15.2 75.6225
-7.66152 -15.735 75.6225
-7.66152 -15.735 69.8375
-8.72403 16.2719 78.3375
-0.355782 13.1227 75.6225
-0.35558 13.1235 78.3375
0.338593 -13.1441 78.3375
0.339407 -13.1412 75.6225
0.56067 -12.3467 75.6225
0.560075 -12.3488 78.3375
11.7759 -11.1188 86.3593
11.9198 -11.1576 86.2819
11.9198 -11.1576 86.3323
11.7759 -11.1188 86.4169
-24.5243 -7.74018 78.3375
-25.0914 -7.0048 78.3375
25.2512 7.60681 78.3375
24.6291 8.41623 78.3375
-0.612175 -16.5583 75.6225
-0.765961 -17.1105 75.6225
0.0207382 -14.2855 75.6225
-8.72557 16.2689 83.8687
-0.354773 13.1267 89.1792
-0.151984 13.9277 88.617
-17.7391 5.11276 89.6017
-15.5701 -2.9382 86.8571
-17.7046 5.23664 89.5158
-11.6018 11.7195 86.4773
-11.7055 11.8204 86.3628
25.4113 8.20764 78.3375
25.4113 8.20764 75.6225
15.6802 8.76533 78.3375
15.52 4.44 78.3375
-2.72839 -9.98983 92.9247
-13.4482 -4.3018 87.7782
-13.4475 -4.30216 88.5661
-2.72839 -9.98983 92.9645
24.8927 6.26161 78.3375
24.8925 6.26081 75.6225
23.8083 2.19317 75.6225
23.8083 2.19317 78.3375
20.0953 3.1997 78.3375
20.7115 5.46977 78.3375
24.3891 6.39846 78.3375
-19.1878 -9.16326 78.3375
-19.1878 -9.16326 75.6225
13.9196 -3.40157 91.7784
18.001 -4.51638 89.5755
16.0573 4.29434 86.3813
17.9622 -4.65933 89.4748
13.8845 -3.52794 91.6896
-5.32233 -6.49519 75.6225
-5.32247 -6.49577 78.3375
9.32859 17.1175 75.6225
9.32859 17.1175 69.8375
-24.9283 -6.38873 78.3375
-3.17223 -11.3592 92.1673
-3.11764 -11.3738 92.1996
-3.34301 -12.1751 91.5713
-3.339 -12.1609 78.3375
-24.3098 -4.05327 75.6225
-23.6451 -1.54313 75.6225
-23.6452 -1.5437 78.3375
-19.867 -2.56482 78.3375
-20.53 -4.94476 78.3375
19.0343 -15.7186 69.8375
-20.7874 16.9671 69.8375
-18.8778 16.4589 69.8375
-18.2468 18.8416 75.6225
-18.2468 18.8416 69.8375
-21.3317 14.4299 75.6225
-17.9974 19.7833 69.8375
-17.9974 19.7833 75.6225
-18.3856 18.3175 75.6225
11.2962 -20.5194 75.6225
11.44 -20.04 75.6225
15.6803 8.76736 84.835
15.7114 9.60788 78.3375
-11.0904 21.6356 69.8375
-11.0904 21.6356 75.6225
-11.263 21.0193 75.6225
-15.6192 -3.14981 78.3375
-19.462 -1.11078 78.3375
-19.5435 13.9452 75.6225
-18.3856 18.3175 78.3375
-19.5435 13.9452 78.3375
-15.7689 -3.67426 86.4161
-15.6385 -3.70952 86.4926
16.3056 -10.7624 78.3375
-3.33818 -12.158 75.6225
10.4615 -15.8506 78.3375
-23.8817 -5.79114 78.3375
3.70488 12.884 75.6225
-25.2359 -7.55043 78.3375
-25.2359 -7.55043 75.6225
-24.9275 -6.38579 75.6225
20.32 -18.6 44.2875
18.3946 -18.1187 44.2875
18.3946 -18.1187 69.8375
20.32 -18.6 69.8375
25.7262 1.67326 75.6225
15.7544 -18.4812 75.6225
10.1462 -16.9857 75.6225
10.1462 -16.9857 78.3375
7.31069 11.892 89.3031
7.09104 11.1033 89.9213
3.48024 12.0853 92.0595
3.70227 12.8748 91.439
3.70443 12.8824 78.3375
-10.2491 16.6878 78.3375
15.92 3.8 78.3375
19.711 1.78353 78.3375
-21.5659 6.308 78.3375
-21.5659 6.308 75.6225
-20.1693 19.2852 69.8375
-20.1693 19.2852 44.2875
-18.2468 18.8416 44.2875
-20.0378 -12.3921 44.2875
-19.8594 -11.7145 44.2875
-20.0378 -12.3921 69.8375
15.9061 -12.2345 83.9881
11.798 -11.0392 86.4647
17.9622 -4.65933 88.5563
25.0917 7.00826 44.2875
27.0004 6.45155 44.2875
27.0004 6.45155 69.8375
-15.6385 -3.70951 86.4108
-3.11732 -11.3727 90.7401
9.32859 17.1175 44.2875
9.32859 17.1175 -101.437
-15.5647 19.1346 75.6225
-9.98678 17.6471 75.6225
-9.9892 17.6478 78.3375
2.24 8.04 95.3155
0.159997 0.280002 101.337
20.3352 13.2058 69.8375
20.3352 13.2058 44.2875
20.1784 12.6153 44.2875
20.1784 12.6153 69.8375
-21.4363 17.1397 44.2875
-20.7874 16.9671 44.2875
23.04 8.84 75.6225
-23.3219 -9.99767 69.8375
-23.3219 -9.99767 44.2875
-22.8 -8.2 44.2875
-22.8 -8.2 69.8375
-1.99932 -7.39759 94.498
-3.11761 -11.3737 92.0847
-1.99932 -7.39759 94.5177
-2.67825 -7.21419 94.9169
-3.11763 -11.3738 92.1353
-3.11763 -11.3738 92.1353
-17.7038 5.23644 88.7245
28.0686 10.4573 44.2875
28.0686 10.4573 -101.437
27.3321 7.69543 -101.437
27.3321 7.69543 44.2875
-17.7036 5.23638 88.4753
-11.6017 11.7195 86.4177
-11.7055 11.8204 86.3063
20.1784 12.6153 75.6225
19.4315 9.80225 69.8375
-15.5647 19.1346 69.8375
-9.1694 20.6666 75.6225
5.2123 18.2437 75.6225
6.14042 18.0874 69.8375
6.14042 18.0874 75.6225
-22.8 -8.2 75.6225
2.93025 7.85288 94.9064
2.33524 8.01418 94.5568
-26.2363 -3.46599 44.2875
-26.8664 -3.27391 44.2875
-26.88 -5.88 44.2875
-26.88 -5.88 69.8375
-27.5188 -5.72669 44.2875
-20.8253 19.4366 44.2875
9.45691 -19.4671 75.6225
9.31977 -19.9608 75.6225
9.22651 -20.2966 75.6225
10.68 -15.064 78.3375
-11.263 21.0193 44.2875
-11.0904 21.6356 44.2875
-11.263 21.0193 69.8375
12.1926 -17.5314 69.8375
11.44 -20.04 69.8375
-9.02236 21.2098 75.6225
-10.4698 15.8723 78.3375
20.96 -16.2 -101.437
21.616 -16.364 -101.437
20.96 -16.2 44.2875
21.616 -16.364 44.2875
27.0227 3.93531 44.2875
27.0227 3.93531 -101.437
26.384 4.13999 -101.437
26.384 4.13999 44.2875
20.9767 -18.7642 -101.437
-15.5647 19.1346 -101.437
-14.9595 21.6421 -101.437
-17.9974 19.7833 44.2875
6.13712 18.0886 75.6225
6.13712 18.0886 69.8375
23.04 8.84 69.8375
19.1526 -22.9777 -101.437
20.0465 -19.6257 -101.437
20.0465 -19.6257 44.2875
19.1526 -22.9777 44.2875
-23.3219 -9.99767 75.6225
-17.6945 5.23385 78.3375
-15.5679 12.8675 78.3375
25.4113 8.20764 69.8375
2.2043 0.796237 99.51
-10.1075 11.3872 87.2453
3.48018 12.0851 91.2987
3.48025 12.0853 92.191
3.29958 11.443 92.5643
17.9622 -4.65933 78.3375
3.47889 12.0805 75.6225
-3.11397 -11.3608 75.6225
-1.9982 -7.3936 75.6225
-1.99836 -7.39417 78.3375
-3.66047 -13.3039 75.6225
-4.57844 -16.5678 75.6225
-25.2359 -7.55043 69.8375
-11.0904 21.6356 -101.437
-14.7778 22.3948 44.2875
-14.7778 22.3948 -101.437
-17.1752 22.8883 -101.437
-17.1752 22.8883 44.2875
3.99581 13.9185 75.6225
0.159999 0.28 101.337
2.33524 8.01418 95.2591
16.0571 4.29441 87.1265
0.159999 0.28 101.337
25.4113 8.20764 44.2875
18.1292 -19.1145 44.2875
18.1292 -19.1145 69.8375
-20.0378 -12.3921 -101.437
-19.8594 -11.7145 -101.437
11.2029 -20.8304 -101.437
11.2029 -20.8304 44.2875
11.2962 -20.5194 -101.437
11.2962 -20.5194 44.2875
-23.7277 -11.3954 44.2875
-23.7277 -11.3954 -101.437
-23.52 -10.68 -101.437
-25.8875 -10.0109 -101.437
14.9365 -21.5481 -101.437
15.7544 -18.4812 -101.437
14.8642 -21.8194 -101.437
14.8642 -21.8194 44.2875
-26.0855 -10.7586 -101.437
-25.2359 -7.55043 -101.437
18.1292 -19.1145 -101.437
17.2375 -22.4604 -101.437
17.2375 -22.4604 44.2875
-26.8664 -3.27391 -101.437
-27.5188 -5.72669 -101.437
-20.8253 19.4366 -101.437
25.4113 8.20764 -101.437
20.7008 -19.8002 -101.437
-22.1016 14.6386 69.8375
-22.1016 14.6386 75.6225
-11.5834 11.7873 86.3781
-25.5633 -6.21579 75.6225
-25.5694 -6.21732 78.3375
26.3735 1.4978 69.8375
26.3735 1.4978 75.6225
-26.2208 -0.846986 75.6225
22.2591 -13.9496 75.6225
22.2594 -13.9484 69.8375
-11.5762 11.7854 78.3375
-26.2205 -0.84576 69.8375
-27.8206 -6.86118 -101.437
-11.5841 11.7875 87.194
20.7008 -19.8002 44.2875
-27.8206 -6.86118 44.2875
-15.8872 11.7214 78.3375
-11.6297 11.5878 78.3375
3.48024 12.0853 92.0595
-17.9662 17.9096 78.3375
24.2675 -6.4088 75.6225
-23.52 -10.68 44.2875
3.47911 12.0813 78.3375
-24.1284 7.01899 75.6225
-23.52 -10.68 69.8375
11.2029 -20.8304 69.8375
26.189 11.1253 44.2875
11.2962 -20.5194 69.8375
1.66435 -8.38348 75.6225
26.189 11.1253 -101.437
1.66419 -8.38405 78.3375
-15.5647 19.1346 44.2875
3.70239 12.8752 90.7517
-14.9595 21.6421 44.2875
-14.9595 21.6421 69.8375
11.9201 -11.1579 87.0804
2.33524 8.01418 75.6225
14.9365 -21.5481 44.2875
2.33524 8.01418 78.3375
-15.52 -8.03956 84.2389
14.9365 -21.5481 69.8375
0.0207382 -14.2855 78.3375
5.22169 18.2771 75.6225
-15.5197 -8.03464 78.3375
-15.2803 -3.80449 78.3375
-15.2804 -3.80634 86.5982
-25.8875 -10.0109 44.2875
-17.3965 22.0526 44.2875
-15.7696 -3.67424 87.1966
-15.6388 -3.70961 87.2738
21.7051 -5.69784 78.3375
17.422 -21.7681 44.2875
15.7549 10.7827 75.6225
-15.7612 -3.6745 78.3375
15.0598 -21.0857 44.2875
23.6825 11.2494 69.8375
15.7549 10.7827 77.6174
11.7759 -11.1189 87.1658
-1.39319 9.0249 75.6225
-1.99937 -7.39776 95.3173
-1.39319 9.0249 78.3375
-15.5686 -8.89811 84.345
0.159999 0.279999 101.338
-15.635 -3.70863 78.3375
11.798 -11.0392 87.2284
6.13712 18.0886 44.2875
20.8065 3.00693 78.3375
13.8845 -3.52794 93.1273
21.5311 5.67675 78.3375
0.159999 0.28 101.337
-15.52 -8.04009 84.8742
-11.6024 11.7201 87.2462
16.0573 4.29434 87.1263
-11.7055 11.8204 87.1227
13.9068 -3.44736 93.1906
2.33524 8.01418 95.3715
0.161299 0.279639 101.337
-0.778394 11.4533 75.6225
0.159999 0.28 101.337
17.9622 -4.65933 88.6223
16.0573 4.29434 86.3509
-14.974 14.9994 78.3375
17.1856 8.3562 78.3375
16.0574 4.29448 78.3375
-6.54313 -11.3173 89.6798
-4.27792 -15.4993 75.6225
-6.33826 -10.5081 90.2973
20.3157 -10.911 75.6225
7.2276 17.8641 -101.437
20.3157 -10.911 78.3375
28.7 10.2329 -101.437
-18.9804 23.26 -101.437
17.0615 -10.7904 78.3375
23.2039 -0.0744334 75.6225
20.9767 -18.7642 44.2875
27.643 6.26414 -101.437
-25.7019 -9.31012 44.2875
27.643 6.26414 44.2875
-24.3098 -4.05327 69.8375
-25.1056 -3.81065 69.8375
15.9064 -12.2333 78.3375
23.04 8.84 44.2875
-24.9182 -6.35083 69.8375
-24.9182 -6.35083 75.6225
23.8693 11.9498 44.2875
-25.5975 -6.18781 69.8375
-25.5231 -6.20564 75.6225
-1.99937 -7.39776 95.3173
0.159999 0.28 101.338
0.159999 0.28 101.338
0.160006 0.279998 101.338
0.159999 0.28 101.337
-25.5838 -1.01915 75.6225
0.16 0.28 101.338
-10.0915 17.27 78.3375
20.3352 13.2058 75.6225
0.159999 0.28 101.337
0.159999 0.28 101.337
-13.6664 4.11623 93.1379
0.159999 0.28 101.337
21.6071 -13.7734 75.6225
-19.6841 -11.0486 69.8375
-20.5519 20.4645 -101.437
-26.0855 -10.7586 44.2875
-19.6841 -11.0486 75.6225
-20.5519 20.4645 44.2875
10.6789 -15.0681 83.586
-3.11737 -11.3729 90.9743
0.159999 0.28 101.338
27.0004 6.45155 -101.437
15.4496 4.45908 86.7099
11.9335 -10.5515 86.7576
-16.8453 -7.679 78.3375
-15.7804 -3.74536 78.3375
12.9131 -11.426 85.7482
-25.8457 -7.3878 69.8375
-25.8457 -7.3878 44.2875
11.7764 -11.1171 78.3375
2.33524 8.01418 94.4588
3.48023 12.0853 92.0182
7.09104 11.1033 89.886
20.3352 13.2058 -101.437
20.1784 12.6153 -101.437
16.0571 4.29441 86.351
-11.263 21.0193 -101.437
-6.33824 -10.508 90.1923
-4.43912 -16.0724 75.6225
10.5349 10.1667 87.882
15.7113 9.60414 84.3304
-3.11457 -11.3629 78.3375
19.8073 -23.1545 -101.437
13.3684 10.2422 85.7172
17.9385 -17.0114 78.3375
15.7544 -18.4812 69.8375
-28.6715 -10.0601 -101.437
-19.8083 23.26 -101.437
23.2039 -0.0744334 78.3375
23.6825 11.2494 -101.437
11.2029 -20.8304 75.6225
16.0573 4.29434 78.3375
6.13712 18.0886 -101.437
-11.7055 11.8204 78.3375
16.0571 4.29441 78.3375
23.8693 11.9498 -101.437
-12.0528 18.1981 69.8375
23.04 8.84 -101.437
-28.6715 -10.0601 44.2875
-11.5956 11.7136 78.3375
27.9783 7.52312 44.2875
-19.8083 23.26 44.2875
27.9783 7.52312 -101.437
-18.9804 23.26 44.2875
28.7 10.2329 44.2875
0.557735 -12.3572 89.0062
-17.9974 19.7833 -101.437
19.8073 -23.1545 44.2875
19.6908 -13.2555 75.6225
7.2276 17.8641 44.2875
15.7544 -18.4812 44.2875
-27.1867 -7.03021 69.8375
-27.1867 -7.03021 44.2875
19.6907 -13.256 78.3375
21.7051 -5.69784 75.6225
11.9173 -11.1551 78.3375
-19.9011 20.291 44.2875
-14.8139 4.4346 91.1267
20.32 -18.6 -101.437
15.3048 -14.4498 78.3375
7.2276 17.8641 69.8375
-25.2359 -7.55043 44.2875
15.0598 -21.0857 69.8375
20.3781 1.42869 78.3375
-17.3965 22.0526 -101.437
6.14042 18.0874 -101.437
-20.0378 -12.3921 75.6225
4  623 559 639 637  255 0 0
5  622 458 453 459 480  255 0 0
6  623 590 642 660 434 559  255 0 0
4  622 634 591 458  255 0 0
4  623 637 593 590  255 0 0
4  622 480 483 634  255 0 0
4  618 410 413 643  255 0 0
4  618 467 411 410  255 0 0
4  618 643 482 467  255 0 0
4  559 434 435 639  255 0 0
4  558 638 636 640  255 0 0
6  556 628 661 610 609 337  255 0 0
4  558 362 363 638  255 0 0
4  556 645 533 628  255 0 0
4  558 640 361 362  255 0 0
4  556 337 336 645  255 0 0
4  645 656 408 533  255 0 0
7  645 336 344 343 262 156 656  255 0 0
4  643 413 412 482  255 0 0
4  640 636 364 361  255 0 0
7  639 435 515 406 652 593 637  255 0 0
8  634 483 648 604 657 564 514 591  255 0 0
4  638 563 565 636  255 0 0
4  636 565 332 364  255 0 0
4  593 383 465 590  255 0 0
12  590 465 463 464 480 459 455 460 466 633 404 642  255 0 0
4  638 363 597 563  255 0 0
4  593 652 323 383  255 0 0
5  656 156 155 373 408  255 0 0
7  651 655 6 620 149 387 605  255 0 0
5  531 601 272 271 521  255 0 0
5  531 512 511 600 601  255 0 0
4  651 605 218 219  255 0 0
4  531 334 513 512  255 0 0
5  629 635 485 484 416  255 0 0
7  629 549 67 487 10 394 478  255 0 0
5  630 551 250 249 627  255 0 0
5  630 240 239 550 551  255 0 0
4  629 367 366 635  255 0 0
7  629 478 470 481 541 236 367  255 0 0
4  630 611 87 240  255 0 0
4  483 382 380 648  255 0 0
4  482 562 403 467  255 0 0
4  482 412 304 562  255 0 0
7  630 627 548 256 540 439 611  255 0 0
3  629 416 549  255 0 0
5  506 47 46 39 42  255 0 0
4  627 249 319 318  255 0 0
4  627 318 81 548  255 0 0
5  427 260 7 106 617  255 0 0
4  427 617 217 498  255 0 0
3  651 568 655  255 0 0
6  651 219 220 602 328 568  255 0 0
3  299 37 36  255 0 0
6  299 29 272 601 600 108  255 0 0
8  617 267 266 265 358 355 595 335  255 0 0
4  617 106 105 267  255 0 0
5  299 108 107 263 37  255 0 0
4  620 6 5 202  255 0 0
5  620 202 201 148 149  255 0 0
5  617 335 595 641 217  255 0 0
4  462 413 410 461  255 0 0
5  462 457 505 522 519  255 0 0
5  442 412 413 462 519  255 0 0
4  442 646 621 443  255 0 0
4  442 519 522 646  255 0 0
4  494 572 631 497  255 0 0
5  494 361 364 441 84  255 0 0
4  441 569 85 84  255 0 0
4  441 364 332 331  255 0 0
4  417 409 569 441  255 0 0
4  494 84 85 572  255 0 0
4  435 432 501 515  255 0 0
4  406 499 370 279  255 0 0
4  406 515 501 499  255 0 0
5  387 217 641 143 594  255 0 0
5  387 149 148 311 298  255 0 0
4  605 387 594 218  255 0 0
5  600 511 151 107 108  255 0 0
4  577 579 578 581  255 0 0
3  575 356 357  255 0 0
4  596 585 584 576  255 0 0
4  576 584 579 577  255 0 0
4  596 90 93 585  255 0 0
4  517 113 114 295  255 0 0
9  575 357 243 113 517 55 90 596 576  255 0 0
4  591 450 451 458  255 0 0
4  430 603 573 570  255 0 0
4  430 353 352 657  255 0 0
4  657 352 351 564  255 0 0
4  657 604 603 430  255 0 0
4  591 514 489 450  255 0 0
4  457 447 449 505  255 0 0
4  457 462 461 456  255 0 0
4  621 658 392 391  255 0 0
4  621 646 522 658  255 0 0
3  577 581 530  255 0 0
4  506 42 117 528  255 0 0
4  635 366 71 485  255 0 0
4  587 440 546 579  255 0 0
4  579 546 544 578  255 0 0
4  539 235 236 541  255 0 0
6  585 93 89 92 15 586  255 0 0
3  586 15 14  255 0 0
4  537 437 440 587  255 0 0
7  539 14 15 92 30 68 235  255 0 0
9  587 579 584 585 586 14 539 342 537  255 0 0
3  535 64 63  255 0 0
4  532 329 220 503  255 0 0
4  532 61 62 329  255 0 0
10  535 63 60 61 532 19 530 581 578 544  255 0 0
4  543 438 437 537  255 0 0
5  575 527 18 80 356  255 0 0
5  577 530 527 575 576  255 0 0
4  572 344 609 631  255 0 0
4  409 369 346 523  255 0 0
4  572 85 345 344  255 0 0
4  409 523 85 569  255 0 0
6  568 27 649 5 6 655  255 0 0
6  423 26 560 27 568 296  255 0 0
4  423 296 51 330  255 0 0
4  568 328 51 296  255 0 0
4  525 221 73 72  255 0 0
4  565 399 402 332  255 0 0
4  563 400 399 565  255 0 0
4  562 398 396 403  255 0 0
4  403 396 395 654  255 0 0
6  399 398 169 477 473 145  255 0 0
4  400 396 398 399  255 0 0
4  400 563 597 401  255 0 0
4  490 42 39 45  255 0 0
4  490 316 124 213  255 0 0
3  251 101 245  255 0 0
6  251 536 250 551 550 97  255 0 0
4  490 45 95 316  255 0 0
5  251 97 96 102 101  255 0 0
5  550 239 285 96 97  255 0 0
6  543 341 177 176 377 438  255 0 0
4  543 537 342 341  255 0 0
8  541 481 76 174 177 341 342 539  255 0 0
6  535 542 49 254 258 64  255 0 0
3  535 544 542  255 0 0
4  517 295 294 516  255 0 0
5  531 521 294 295 334  255 0 0
4  521 271 290 289  255 0 0
4  521 289 193 294  255 0 0
4  516 294 193 192  255 0 0
4  517 516 192 55  255 0 0
4  514 564 351 489  255 0 0
4  508 658 522 505  255 0 0
4  508 495 392 658  255 0 0
4  508 505 449 495  255 0 0
4  503 220 221 525  255 0 0
5  497 631 625 633 466  255 0 0
4  497 362 361 494  255 0 0
4  466 363 362 497  255 0 0
5  491 475 479 468 469  255 0 0
6  491 469 278 291 1 321  255 0 0
5  488 474 473 477 476  255 0 0
6  488 476 588 644 555 650  255 0 0
5  491 321 269 580 475  255 0 0
6  488 650 561 247 308 474  255 0 0
6  479 164 379 347 159 468  255 0 0
4  475 165 164 479  255 0 0
4  476 172 171 588  255 0 0
4  477 169 172 476  255 0 0
4  475 580 162 165  255 0 0
4  474 146 145 473  255 0 0
4  469 158 161 278  255 0 0
4  468 159 158 469  255 0 0
4  474 308 147 146  255 0 0
4  621 391 150 309  255 0 0
4  443 621 309 200  255 0 0
4  540 256 25 24  255 0 0
7  546 440 418 48 49 542 544  255 0 0
6  540 24 22 49 48 439  255 0 0
7  532 503 525 72 74 18 19  255 0 0
4  530 19 18 527  255 0 0
5  271 28 182 415 290  255 0 0
6  415 182 0 183 416 484  255 0 0
5  415 365 360 167 290  255 0 0
4  506 528 526 504  255 0 0
4  504 526 545 40  255 0 0
4  504 43 47 506  255 0 0
8  510 141 138 393 287 286 408 407  255 0 0
4  510 407 374 372  255 0 0
5  504 40 41 44 43  255 0 0
4  510 372 139 141  255 0 0
5  314 607 420 500 315  255 0 0
5  486 607 128 132 422  255 0 0
3  438 377 376  255 0 0
4  439 86 87 611  255 0 0
3  486 422 421  255 0 0
4  314 313 608 607  255 0 0
4  450 325 444 451  255 0 0
4  489 326 325 450  255 0 0
4  492 54 326 489  255 0 0
4  467 403 654 411  255 0 0
4  480 464 382 483  255 0 0
8  460 411 654 395 401 597 363 466  255 0 0
5  460 455 454 456 461  255 0 0
4  442 305 304 412  255 0 0
5  383 347 379 463 465  255 0 0
4  464 463 379 382  255 0 0
4  382 379 378 380  255 0 0
4  461 410 411 460  255 0 0
4  458 451 452 453  255 0 0
7  459 453 452 445 448 454 455  255 0 0
4  456 446 447 457  255 0 0
4  456 454 448 446  255 0 0
4  451 444 445 452  255 0 0
4  448 445 444 446  255 0 0
4  446 444 325 447  255 0 0
6  447 325 327 210 207 493  255 0 0
4  443 306 305 442  255 0 0
4  441 331 205 417  255 0 0
5  440 437 438 376 418  255 0 0
6  439 48 418 376 127 86  255 0 0
3  265 264 358  255 0 0
4  436 185 122 140  255 0 0
9  436 372 374 154 368 188 520 33 186  255 0 0
5  436 186 94 300 185  255 0 0
4  436 140 139 372  255 0 0
4  409 417 238 349  255 0 0
4  279 370 338 280  255 0 0
4  434 433 432 435  255 0 0
4  433 431 389 432  255 0 0
4  433 434 660 405  255 0 0
4  432 389 388 501  255 0 0
4  389 533 408 286  255 0 0
4  431 628 533 389  255 0 0
4  431 433 405 612  255 0 0
4  302 375 353 430  255 0 0
4  427 498 496 426  255 0 0
5  429 206 207 210 209  255 0 0
4  429 209 208 614  255 0 0
4  428 228 226 553  255 0 0
4  428 196 104 297  255 0 0
4  426 496 216 425  255 0 0
4  426 259 260 427  255 0 0
4  429 614 227 206  255 0 0
8  428 553 592 414 375 253 153 196  255 0 0
4  428 297 215 228  255 0 0
5  426 425 103 8 259  255 0 0
4  425 297 104 103  255 0 0
4  425 216 215 297  255 0 0
5  424 300 94 44 41  255 0 0
4  424 40 545 212  255 0 0
3  424 41 40  255 0 0
6  249 534 659 26 423 319  255 0 0
5  423 330 547 82 319  255 0 0
4  614 553 226 227  255 0 0
5  614 208 53 592 553  255 0 0
5  547 257 255 83 82  255 0 0
5  547 330 51 50 257  255 0 0
4  548 81 25 256  255 0 0
4  523 346 345 85  255 0 0
4  370 632 194 338  255 0 0
4  502 390 632 370  255 0 0
4  501 388 390 502  255 0 0
4  370 499 501 502  255 0 0
6  493 207 206 181 386 626  255 0 0
4  495 449 447 493  255 0 0
4  487 67 66 292  255 0 0
5  487 292 195 9 10  255 0 0
4  490 213 117 42  255 0 0
8  486 421 175 111 110 230 420 607  255 0 0
4  478 115 77 470  255 0 0
4  394 116 115 478  255 0 0
6  394 10 9 340 582 317  255 0 0
4  481 470 77 76  255 0 0
5  377 606 125 127 376  255 0 0
4  377 132 128 606  255 0 0
5  422 132 131 175 421  255 0 0
4  377 176 131 132  255 0 0
3  419 77 109  255 0 0
5  419 173 174 76 77  255 0 0
6  419 109 111 175 131 173  255 0 0
4  247 4 147 308  255 0 0
6  100 99 205 203 4 246  255 0 0
5  417 205 99 98 238  255 0 0
6  416 183 293 66 67 549  255 0 0
4  415 484 70 365  255 0 0
4  414 592 589 350  255 0 0
4  350 589 54 492  255 0 0
4  375 414 350 353  255 0 0
4  349 188 369 409  255 0 0
4  373 155 154 374  255 0 0
4  408 373 374 407  255 0 0
4  406 324 323 652  255 0 0
4  279 277 324 406  255 0 0
4  647 603 604 648  255 0 0
4  647 381 573 603  255 0 0
4  648 380 381 647  255 0 0
4  642 404 405 660  255 0 0
4  631 609 610 625  255 0 0
7  633 625 610 661 612 405 404  255 0 0
4  628 431 612 661  255 0 0
4  344 336 337 609  255 0 0
4  350 492 489 351  255 0 0
4  424 212 123 300  255 0 0
4  304 397 398 562  255 0 0
4  401 395 396 400  255 0 0
4  393 138 137 371  255 0 0
4  339 194 288 371  255 0 0
4  394 317 211 116  255 0 0
4  393 371 288 287  255 0 0
4  339 371 137 136  255 0 0
4  340 21 20 582  255 0 0
4  339 136 21 340  255 0 0
4  283 384 310 150  255 0 0
4  150 391 392 283  255 0 0
4  390 388 389 286  255 0 0
4  386 181 180 385  255 0 0
4  385 180 179 384  255 0 0
4  385 282 626 386  255 0 0
4  384 179 178 310  255 0 0
4  384 283 282 385  255 0 0
5  387 298 17 214 217  255 0 0
4  323 348 347 383  255 0 0
4  322 274 348 323  255 0 0
4  381 163 567 573  255 0 0
4  380 378 163 381  255 0 0
4  164 163 378 379  255 0 0
6  375 302 301 222 252 253  255 0 0
5  368 154 157 261 583  255 0 0
4  188 368 346 369  255 0 0
4  367 236 235 366  255 0 0
4  366 235 68 71  255 0 0
5  365 70 69 234 360  255 0 0
5  360 234 232 168 167  255 0 0
5  356 354 242 243 357  255 0 0
4  359 355 190 191  255 0 0
5  264 554 613 355 358  255 0 0
4  356 244 241 354  255 0 0
7  355 359 79 144 143 641 595  255 0 0
4  295 114 513 334  255 0 0
7  355 613 112 114 242 241 190  255 0 0
3  354 241 242  255 0 0
4  353 350 351 352  255 0 0
6  349 238 237 225 189 188  255 0 0
4  274 322 277 275  255 0 0
5  274 160 159 347 348  255 0 0
4  346 343 344 345  255 0 0
4  340 9 194 339  255 0 0
5  338 194 9 195 280  255 0 0
4  397 304 307 170  255 0 0
4  332 402 204 333  255 0 0
4  333 204 203 205  255 0 0
4  204 402 399 145  255 0 0
4  170 307 306 273  255 0 0
4  169 398 397 170  255 0 0
4  205 331 332 333  255 0 0
4  220 219 218 221  255 0 0
5  329 62 52 602 220  255 0 0
4  328 602 52 51  255 0 0
4  327 325 326 54  255 0 0
4  277 322 323 324  255 0 0
4  311 16 17 298  255 0 0
4  311 310 178 16  255 0 0
4  320 182 28 270  255 0 0
4  291 278 161 65  255 0 0
4  293 183 0 2  255 0 0
4  320 2 0 182  255 0 0
4  293 2 1 291  255 0 0
4  321 1 2 320  255 0 0
4  82 81 318 319  255 0 0
4  317 582 20 211  255 0 0
4  316 500 231 124  255 0 0
5  316 95 312 315 500  255 0 0
5  102 96 189 225 224  255 0 0
4  315 312 313 314  255 0 0
4  95 135 619 312  255 0 0
4  312 619 615 313  255 0 0
4  313 615 129 608  255 0 0
4  311 148 150 310  255 0 0
5  309 150 148 201 200  255 0 0
4  306 307 304 305  255 0 0
4  221 218 142 73  255 0 0
5  356 80 78 191 244  255 0 0
4  359 191 78 79  255 0 0
4  619 616 284 615  255 0 0
4  135 285 616 619  255 0 0
5  135 95 187 134 133  255 0 0
4  615 284 11 129  255 0 0
5  270 28 29 299 36  255 0 0
4  320 270 269 321  255 0 0
3  237 224 225  255 0 0
4  528 117 545 526  255 0 0
4  212 545 117 213  255 0 0
6  248 534 536 251 245 3  255 0 0
4  518 26 659 624  255 0 0
4  248 624 659 534  255 0 0
4  513 507 511 512  255 0 0
4  498 217 216 496  255 0 0
4  485 71 70 484  255 0 0
3  472 37 263  255 0 0
5  471 574 34 37 472  255 0 0
4  471 303 571 574  255 0 0
4  472 263 303 471  255 0 0
5  263 107 252 222 223  255 0 0
3  301 223 222  255 0 0
5  263 223 301 302 303  255 0 0
3  62 599 52  255 0 0
4  293 291 65 66  255 0 0
4  292 66 65 281  255 0 0
5  193 233 119 118 192  255 0 0
3  193 166 233  255 0 0
5  193 289 290 167 166  255 0 0
4  91 118 119 88  255 0 0
5  92 88 120 653 31  255 0 0
4  234 653 120 232  255 0 0
4  288 390 286 287  255 0 0
4  644 588 171 130  255 0 0
4  649 27 560 557  255 0 0
4  518 557 560 26  255 0 0
4  518 650 555 557  255 0 0
4  649 557 555 644  255 0 0
4  649 644 130 5  255 0 0
4  202 5 130 198  255 0 0
4  194 632 390 288  255 0 0
4  282 495 493 626  255 0 0
4  662 209 210 327  255 0 0
4  53 208 209 662  255 0 0
4  662 327 54 53  255 0 0
3  285 135 133  255 0 0
6  616 285 239 12 11 284  255 0 0
6  129 11 13 598 125 126  255 0 0
5  608 129 126 128 607  255 0 0
4  606 128 126 125  255 0 0
5  599 62 61 60 59  255 0 0
5  258 59 60 63 64  255 0 0
6  257 50 52 599 59 58  255 0 0
4  258 57 58 59  255 0 0
5  598 87 86 127 125  255 0 0
3  598 13 87  255 0 0
4  218 594 143 142  255 0 0
4  283 392 495 282  255 0 0
4  300 123 122 185  255 0 0
4  518 624 561 650  255 0 0
4  247 561 624 248  255 0 0
5  198 130 273 306 199  255 0 0
4  200 199 306 443  255 0 0
4  583 261 262 343  255 0 0
4  368 583 343 346  255 0 0
3  34 574 571  255 0 0
4  269 268 162 580  255 0 0
5  303 302 430 570 571  255 0 0
6  34 571 570 566 268 35  255 0 0
4  573 567 566 570  255 0 0
5  162 268 566 567 163  255 0 0
5  281 65 275 277 276  255 0 0
4  280 276 277 279  255 0 0
5  161 160 274 275 65  255 0 0
4  130 171 170 273  255 0 0
4  272 29 28 271  255 0 0
5  270 36 35 268 269  255 0 0
4  267 105 552 266  255 0 0
5  266 552 554 264 265  255 0 0
4  105 151 529 552  255 0 0
4  552 529 538 554  255 0 0
4  554 538 112 613  255 0 0
4  151 105 197 152  255 0 0
6  538 529 151 511 507 112  255 0 0
4  228 178 179 226  255 0 0
4  509 16 178 228  255 0 0
4  214 17 16 509  255 0 0
4  214 509 228 215  255 0 0
4  500 420 230 231  255 0 0
4  230 110 229 231  255 0 0
4  261 157 156 262  255 0 0
4  260 259 8 7  255 0 0
4  106 7 8 103  255 0 0
4  49 22 23 254  255 0 0
4  258 254 56 57  255 0 0
5  257 58 57 56 255  255 0 0
5  255 56 23 25 83  255 0 0
3  254 23 56  255 0 0
4  107 151 152 252  255 0 0
4  252 152 153 253  255 0 0
4  250 536 534 249  255 0 0
4  248 3 4 247  255 0 0
4  246 4 3 245  255 0 0
4  244 191 190 241  255 0 0
4  242 114 113 243  255 0 0
5  13 12 239 240 87  255 0 0
5  102 224 237 238 98  255 0 0
6  234 69 68 30 31 653  255 0 0
3  92 31 30  255 0 0
6  233 166 168 232 120 119  255 0 0
3  88 119 120  255 0 0
4  124 211 20 121  255 0 0
4  231 229 211 124  255 0 0
4  110 116 211 229  255 0 0
4  227 180 181 206  255 0 0
4  226 179 180 227  255 0 0
4  121 20 21 184  255 0 0
4  217 214 215 216  255 0 0
4  124 123 212 213  255 0 0
4  4 203 204 147  255 0 0
5  202 198 199 200 201  255 0 0
4  196 153 152 197  255 0 0
4  105 104 196 197  255 0 0
5  192 118 91 90 55  255 0 0
5  75 73 144 79 78  255 0 0
4  75 80 18 74  255 0 0
3  75 78 80  255 0 0
5  96 285 133 32 189  255 0 0
5  189 32 524 520 188  255 0 0
6  186 33 524 32 134 187  255 0 0
4  187 95 94 186  255 0 0
4  140 136 137 139  255 0 0
4  184 21 136 140  255 0 0
4  121 184 140 122  255 0 0
4  177 174 173 176  255 0 0
3  176 173 131  255 0 0
4  172 169 170 171  255 0 0
3  168 166 167  255 0 0
4  165 162 163 164  255 0 0
4  161 158 159 160  255 0 0
4  157 154 155 156  255 0 0
4  147 204 145 146  255 0 0
5  195 292 281 276 280  255 0 0
4  73 75 74 72  255 0 0
4  73 142 143 144  255 0 0
4  139 137 138 141  255 0 0
3  32 133 134  255 0 0
4  124 121 122 123  255 0 0
5  77 115 116 110 109  255 0 0
3  111 109 110  255 0 0
4  106 103 104 105  255 0 0
5  102 98 99 100 101  255 0 0
5  45 38 44 94 95  255 0 0
5  93 90 91 88 89  255 0 0
3  92 89 88  255 0 0
4  25 23 22 24  255 0 0
4  83 25 81 82  255 0 0
4  71 68 69 70  255 0 0
4  114 112 507 513  255 0 0
4  592 53 54 589  255 0 0
3  52 50 51  255 0 0
6  47 43 44 38 39 46  255 0 0
3  45 39 38  255 0 0
4  37 34 35 36  255 0 0
3  33 520 524  255 0 0
3  13 11 12  255 0 0
4  245 101 100 246  255 0 0

