OFF
740 897 0

24.489 4.74725 69.8375
19.0343 -15.7186 69.8375
26.384 4.13999 69.8375
20.96 -16.2 69.8375
26.384 4.13999 75.6225
26.384 4.13999 44.2875
20.96 -16.2 44.2875
20.96 -16.2 75.6225
21.6071 -13.7734 75.6225
23.619 -6.22885 75.6225
25.7262 1.67326 75.6225
11.2962 -20.5194 44.2875
12.1926 -17.5314 44.2875
11.2962 -20.5194 69.8375
11.44 -20.04 69.8375
12.1926 -17.5314 69.8375
-19.1878 -9.16326 44.2875
-19.6841 -11.0486 69.8375
-19.8594 -11.7145 44.2875
-19.8594 -11.7145 69.8375
-19.2699 -9.47545 44.2875
-19.1878 -9.16326 75.6225
-19.6841 -11.0486 75.6225
-20.7874 16.9671 69.8375
-26.2363 -3.46599 69.8375
-18.8778 16.4589 69.8375
-24.3098 -4.05327 69.8375
-25.1056 -3.81065 69.8375
-26.2363 -3.46599 75.6225
-26.2363 -3.46599 44.2875
-20.7874 16.9671 44.2875
-20.7874 16.9671 75.6225
-20.8738 16.6432 75.6225
-21.4551 14.4634 75.6225
-23.4877 6.84121 75.6225
-25.5838 -1.01915 75.6225
4.30222 12.7114 91.0839
4.10961 11.9141 91.6466
3.48018 12.0851 91.2987
2.63423 7.93313 94.2822
-7.45727 10.6688 88.7089
-10.1075 11.3872 87.2453
-10.9077 11.9046 86.5667
-9.10798 15.504 84.3415
-0.354773 13.1267 89.1792
3.70239 12.8752 90.7517
4.14476 11.9046 91.666
3.40347 10.0088 92.908
-12.0152 10.1635 78.3375
-11.6297 11.5878 78.3375
-14.2804 1.79582 78.3375
-14.6499 0.430755 78.3375
-14.87 -0.382146 78.3375
-14.8957 -0.477009 78.3375
-15.6192 -3.14981 78.3375
-15.6262 -3.14609 86.7118
-15.5701 -2.9382 86.8571
-15.1414 -1.35058 87.9669
-13.6693 4.10074 91.7774
-13.6652 4.11589 91.7669
-12.3158 9.08838 88.3077
-11.8151 10.9336 87.0241
-11.8118 10.9452 86.8708
-11.0858 11.5707 78.3375
-10.7448 11.56 78.3375
11.9907 -10.6026 86.6986
16.3056 -10.7624 84.8758
11.9335 -10.5515 86.7576
14.0747 -2.84311 91.3867
15.2402 -3.11337 90.733
18.1958 -3.79868 89.0753
17.9772 -4.6041 88.5896
17.9622 -4.65933 88.5563
11.7759 -11.1188 86.4169
11.9198 -11.1576 86.3323
11.798 -11.0392 86.4647
-15.7688 -3.67426 86.3426
-15.8519 -3.02632 86.6242
-13.1034 3.96001 92.08
0.274271 0.63346 99.2319
1.86763 0.237248 100.084
2.28019 -0.294882 100.081
2.27584 -0.307053 100.072
1.88559 -1.39832 99.2455
-0.413089 -7.82627 94.3786
-1.12727 -7.63316 94.0048
-1.99927 -7.39739 93.5485
-15.2804 -3.80634 86.5982
-15.6385 -3.70951 86.4108
15.4311 2.04 87.9622
11.7759 -11.1188 86.3593
11.7764 -11.1171 78.3375
15.92 3.8 78.3375
15.92 3.8 86.646
15.92 3.8 86.728
13.9196 -3.40157 91.7784
13.8845 -3.52794 91.6896
12.2616 -9.37013 87.5872
11.92 -10.6 86.7285
11.798 -11.0392 87.2284
11.7759 -11.1189 87.1658
-1.39319 9.0249 75.6225
-1.39319 9.0249 78.3375
-5.32233 -6.49519 75.6225
-5.32247 -6.49577 78.3375
-3.39462 1.11926 78.3375
-3.31036 1.45208 78.3375
-2.59092 4.29385 78.3375
16.2886 10.6404 44.2875
20.1784 12.6153 44.2875
16.2886 10.6404 67.5429
16.2886 10.6404 69.8375
20.1784 12.6153 69.8375
20.1784 12.6153 69.8375
-11.263 21.0193 44.2875
-12.0528 18.1981 44.2875
-11.263 21.0193 69.8375
-12.0528 18.1981 69.8375
-12.0528 18.1981 46.8515
8.75243 17.0692 69.8375
20.3352 13.2058 69.8375
-11.0904 21.6356 69.8375
6.13712 18.0886 69.8375
6.14042 18.0874 69.8375
8.81655 17.2994 69.8375
9.32859 17.1175 69.8375
20.1784 12.6153 69.8375
19.4315 9.80225 69.8375
7.60685 12.9555 69.8375
-3.11737 -11.3729 90.9743
-3.11761 -11.3737 92.0847
-3.11732 -11.3727 90.7401
-3.11457 -11.3629 78.3375
-1.99836 -7.39417 78.3375
-1.99861 -7.39504 82.4495
-1.99932 -7.39759 94.498
-2.72839 -9.98983 92.9247
-2.74722 -10.0568 92.884
-11.6018 11.7195 86.4773
-11.5834 11.7873 86.4302
0.159999 0.28 99.4715
-0.195457 -0.983847 100.347
-0.195458 -0.983847 100.347
-2.32699 -0.348027 99.1236
-11.7055 11.8204 86.3628
-11.04 11.64 86.7303
3.33269 7.74379 94.6679
2.45795 3.2619 97.9015
1.96493 0.73579 99.724
1.78973 -0.161897 100.372
1.77486 -0.168053 100.371
0.965304 -0.503242 100.361
2.25212 8.03671 94.5079
2.33524 8.01418 94.4588
5.95734 7.03229 78.3375
15.52 4.44 78.3375
2.33524 8.01418 78.3375
-11.04 11.64 78.3375
-11.04 11.64 86.6973
-7.42079 10.6589 88.824
2.33524 8.01418 94.5568
13.882 4.88403 87.6362
15.4496 4.45908 86.7099
15.52 4.44 86.6683
-8.26588 17.1882 75.6225
-15.6372 -10.1101 75.6225
-6.83194 -12.4581 75.6225
-22.8 -8.2 75.6225
-25.2359 -7.55043 75.6225
-24.9275 -6.38579 75.6225
-24.9182 -6.35083 75.6225
-24.8337 -6.03153 75.6225
-24.7105 -5.56647 75.6225
-24.3098 -4.05327 75.6225
-23.6451 -1.54313 75.6225
-21.5659 6.308 75.6225
5.95734 7.03229 75.6225
25.4113 8.20764 -101.437
0.0207382 -14.2855 44.2875
26.189 11.1253 -101.437
11.9201 -11.1579 87.0804
4.40357 1.45283 44.2875
25.0917 7.00826 44.2875
24.2062 3.68588 44.2875
18.3946 -18.1187 44.2875
18.3946 -18.1187 69.8375
19.0343 -15.7186 75.6225
19.6908 -13.2555 75.6225
20.3157 -10.911 75.6225
21.7051 -5.69784 75.6225
23.2039 -0.0744334 75.6225
23.8083 2.19317 75.6225
24.489 4.74725 75.6225
10.1462 -16.9857 75.6225
15.7544 -18.4812 44.2875
-22.8 -8.2 44.2875
-22.8 -8.2 69.8375
-3.66047 -13.3039 75.6225
0.0207382 -14.2855 75.6225
8.31842 -16.4982 75.6225
12.1926 -17.5314 75.6225
15.7544 -18.4812 69.8375
-9.98678 17.6471 75.6225
-15.5647 19.1346 44.2875
-12.7578 18.3861 44.2875
15.758 10.7819 44.2875
23.04 8.84 44.2875
23.04 8.84 69.8375
19.4315 9.80225 75.6225
15.7549 10.7827 75.6225
15.1107 10.9545 75.6225
7.60685 12.9555 75.6225
3.99581 13.9185 75.6225
0.108142 14.9552 75.6225
-12.0528 18.1981 75.6225
-15.5647 19.1346 69.8375
-18.2468 18.8416 44.2875
6.13712 18.0886 44.2875
27.0227 3.93531 44.2875
11.2029 -20.8304 44.2875
-23.3219 -9.99767 44.2875
-27.1867 -7.03021 44.2875
20.1784 12.6153 44.2875
14.9365 -21.5481 44.2875
-20.0378 -12.3921 44.2875
-23.52 -10.68 44.2875
-25.2359 -7.55043 44.2875
-25.8457 -7.3878 44.2875
-1.98256 -7.40212 94.5078
11.3569 -11.0056 86.5844
-15.2803 -3.80449 78.3375
1.66419 -8.38405 78.3375
11.3569 -11.0056 86.6633
9.52748 -10.5114 87.7392
-1.99932 -7.39759 94.5177
-13.4482 -4.3018 87.7782
-15.2804 -3.80636 86.7028
-11.5956 11.7136 78.3375
-11.5762 11.7854 78.3375
-0.150448 13.9337 78.3375
15.7114 9.60788 78.3375
-6.54002 -11.3051 78.3375
-19.462 -1.11078 78.3375
-17.6945 5.23385 78.3375
-15.8872 11.7214 78.3375
-11.7055 11.8204 78.3375
-9.10881 15.5024 78.3375
-8.72403 16.2719 78.3375
-0.35558 13.1235 78.3375
-0.830204 11.2487 78.3375
6.4587 8.83261 78.3375
7.06253 11.0009 78.3375
7.0901 11.0999 78.3375
7.31248 11.8984 78.3375
11.0643 10.8752 78.3375
15.6802 8.76533 78.3375
16.0571 4.29441 78.3375
16.0573 4.29434 78.3375
19.711 1.78353 78.3375
17.9622 -4.65933 78.3375
16.3056 -10.7624 78.3375
15.9064 -12.2333 78.3375
11.9173 -11.1551 78.3375
10.68 -15.064 78.3375
0.560075 -12.3488 78.3375
-5.79509 -8.3626 78.3375
-6.33586 -10.4987 78.3375
-15.5682 -8.89126 78.3375
-15.5197 -8.03464 78.3375
-15.635 -3.70863 78.3375
-15.7612 -3.6745 78.3375
24.9681 6.54467 78.3375
24.9681 6.54467 75.6225
24.8925 6.26081 75.6225
24.8927 6.26161 78.3375
15.7549 10.7827 77.6174
20.8065 3.00693 78.3375
21.5311 5.67675 78.3375
15.7529 10.728 78.3375
-0.778394 11.4533 75.6225
3.26678 11.3263 75.6225
3.20927 11.1219 78.3375
20.3157 -10.911 78.3375
17.0615 -10.7904 78.3375
23.2039 -0.0744334 78.3375
20.3781 1.42869 78.3375
-20.0974 11.8536 78.3375
-20.0432 12.0582 75.6225
-16.7568 11.7487 78.3375
24.489 4.74725 78.3375
19.0343 -15.7186 78.3375
15.7702 -14.9026 78.3375
-5.79509 -8.3626 75.6225
-12.0528 18.1981 78.3375
-12.5459 16.4365 78.3375
15.6803 8.76735 84.8139
15.6803 8.7672 84.3453
15.5212 4.47231 86.6545
-13.4178 5.03196 92.4284
-13.6652 4.1159 91.788
8.31842 -16.4982 78.3375
8.90664 -15.4349 78.3375
-1.30426 -7.58553 94.9059
1.60266 -1.12314 99.5885
-8.46253 16.7949 78.3375
-8.26588 17.1882 78.3375
15.4311 2.04 88.8922
15.92 3.8 87.5136
18.6721 -4.85632 78.3375
16.6176 -12.4255 78.3375
-20.5889 -2.36972 78.3375
-21.3436 -5.15021 78.3375
-14.6636 4.39289 91.2105
15.9875 10.7207 78.3375
-24.7111 -5.56861 78.3375
-24.8337 -6.03153 78.3375
7.08999 11.0995 77.0279
6.64395 11.2203 75.6225
7.08988 11.0991 75.6225
3.00662 0.998844 98.7928
14.1769 -2.47509 92.429
16.3056 -10.7624 85.1766
-19.8594 -11.7145 75.6225
-18.4669 5.44816 78.3375
-14.8166 4.38604 91.1641
-14.8139 4.4346 91.1267
-15.52 -8.04003 84.7971
-15.52 -8.03956 84.2389
-15.627 -3.1457 87.6066
-14.9107 -3.52574 87.9219
15.2165 -3.7558 91.0784
15.2113 -3.89607 90.969
15.2794 -3.91497 90.932
12.2616 -9.37013 88.5392
11.92 -10.6 87.5733
13.649 -4.37568 92.4615
13.8845 -3.52794 91.867
-18.8778 16.4589 75.6225
-18.8778 16.4589 78.3375
-15.5696 15.5786 78.3375
-16.0419 11.1905 85.3898
-16.0332 11.2204 84.993
11.3568 -11.0057 87.4137
9.52674 -10.5114 88.4967
-11.04 11.64 87.5136
-2.71069 -10.0581 92.909
-3.07453 -11.3853 92.11
19.711 1.78353 84.8042
19.711 1.78353 85.1846
25.983 10.3526 44.2875
23.6825 11.2494 44.2875
15.52 4.44 87.4448
-13.9368 3.11509 92.4631
7.31292 11.9 75.6225
19.1322 8.67494 78.3375
18.9223 7.88421 78.3375
25.1024 7.04848 75.6225
25.0917 7.00826 75.6225
25.102 7.04688 78.3375
-6.33532 -10.4965 75.6225
-6.53927 -11.3021 75.6225
-18.8828 -8.00505 78.3375
-18.6682 -7.18989 78.3375
-9.10792 15.5042 84.7897
-15.2804 -3.80654 87.4852
-15.1411 -1.34596 89.0027
-0.0474612 14.3405 78.3375
-0.0474612 14.3405 75.6225
-0.150042 13.9353 75.6225
4.21332 10.027 92.3338
13.882 4.88403 88.4156
2.89298 9.99728 93.27
10.5269 10.1689 87.857
2.77 9.99452 93.3572
2.89001 9.98669 93.4105
15.7549 10.7827 78.3375
-6.73201 20.256 75.6225
-6.51339 20.6932 75.6225
1.11542 18.9339 75.6225
1.16081 19.1132 75.6225
9.31207 -14.702 84.3179
9.31185 -14.7024 84.8466
-18.3856 18.3175 78.3375
-18.3856 18.3175 75.6225
-18.2468 18.8416 75.6225
-17.9974 19.7833 75.6225
-17.9974 19.7833 78.3375
27.0227 3.93531 69.8375
27.0227 3.93531 75.6225
12.1926 -17.5314 78.3375
12.765 -15.6234 78.3375
-15.6372 -10.1101 78.3375
8.75243 17.0692 75.6225
8.81655 17.2994 75.6225
-21.4363 17.1397 75.6225
-21.4363 17.1397 69.8375
-20.8058 16.972 69.8375
-20.8058 16.972 75.6225
-26.8664 -3.27391 69.8375
-26.8664 -3.27391 75.6225
-19.4675 -1.10785 84.8884
-19.4678 -1.1077 85.221
21.616 -16.364 69.8375
21.616 -16.364 75.6225
-7.10299 10.5727 89.8266
3.3336 12.1252 92.1048
1.56074 8.22414 94.9164
7.05924 -18.7744 75.6225
6.79731 -19.2479 75.6225
6.60841 -19.5894 75.6225
-16.3925 13.091 78.3375
0.108142 14.9552 78.3375
3.79899 13.2186 75.6225
7.60685 12.9555 78.3375
19.4315 9.80225 78.3375
-2.74722 -10.0568 92.9244
-15.6262 -3.14608 86.7326
-6.83194 -12.4581 78.3375
18.5351 -17.5917 75.6225
18.3946 -18.1187 75.6225
18.1292 -19.1145 75.6225
18.1292 -19.1145 78.3375
18.5351 -17.5917 78.3375
25.0917 7.00826 69.8375
-0.892107 -17.5635 75.6225
-0.892107 -17.5635 69.8375
-7.52608 -15.2 75.6225
-7.66152 -15.735 75.6225
-7.66152 -15.735 69.8375
-0.355782 13.1227 75.6225
0.338593 -13.1441 78.3375
0.339407 -13.1412 75.6225
0.56067 -12.3467 75.6225
11.9198 -11.1576 86.2819
-24.5243 -7.74018 78.3375
-25.0914 -7.0048 78.3375
25.2512 7.60681 78.3375
24.6291 8.41623 78.3375
-0.612175 -16.5583 75.6225
-0.765961 -17.1105 75.6225
-8.72557 16.2689 83.8687
-0.151984 13.9277 88.617
-17.7391 5.11276 89.6017
-17.7046 5.23664 89.5158
25.4113 8.20764 78.3375
25.4113 8.20764 75.6225
-13.4475 -4.30216 88.5661
-2.72839 -9.98983 92.9645
23.8083 2.19317 78.3375
20.0953 3.1997 78.3375
20.7115 5.46977 78.3375
24.3891 6.39846 78.3375
-19.1878 -9.16326 78.3375
18.001 -4.51638 89.5755
16.0573 4.29434 86.3813
17.9622 -4.65933 89.4748
9.32859 17.1175 75.6225
0.0207382 -14.2855 78.3375
17.422 -21.7681 44.2875
15.0598 -21.0857 44.2875
-15.5686 -8.89811 84.345
-15.52 -8.04009 84.8742
-6.54313 -11.3173 89.6798
-6.33826 -10.5081 90.2973
-6.33824 -10.508 90.1923
-24.9283 -6.38873 78.3375
-3.17223 -11.3592 92.1673
-3.11764 -11.3738 92.1996
-3.34301 -12.1751 91.5713
-3.339 -12.1609 78.3375
-23.6452 -1.5437 78.3375
-19.867 -2.56482 78.3375
-20.53 -4.94476 78.3375
-18.2468 18.8416 69.8375
-21.3317 14.4299 75.6225
-17.9974 19.7833 69.8375
10.6789 -15.0681 83.586
12.9131 -11.426 85.7482
3.48023 12.0853 92.0182
7.09104 11.1033 89.886
16.0571 4.29441 86.351
15.6803 8.76736 84.835
15.7113 9.60414 84.3304
-20.0378 -12.3921 69.8375
-20.0378 -12.3921 75.6225
11.2029 -20.8304 69.8375
11.2029 -20.8304 75.6225
11.2962 -20.5194 75.6225
-11.263 21.0193 75.6225
19.6907 -13.256 78.3375
21.7051 -5.69784 78.3375
15.3048 -14.4498 78.3375
-11.0904 21.6356 75.6225
-19.5435 13.9452 75.6225
-19.5435 13.9452 78.3375
-15.7689 -3.67426 86.4161
-15.6385 -3.70952 86.4926
-3.33818 -12.158 75.6225
10.4615 -15.8506 78.3375
-23.8817 -5.79114 78.3375
3.70488 12.884 75.6225
-25.2359 -7.55043 78.3375
-25.5633 -6.21579 75.6225
-25.5694 -6.21732 78.3375
1.66435 -8.38348 75.6225
-15.5679 12.8675 78.3375
-14.974 14.9994 78.3375
-21.5659 6.308 78.3375
10.5349 10.1667 87.882
13.3684 10.2422 85.7172
-3.11763 -11.3738 92.1353
20.32 -18.6 69.8375
20.32 -18.6 44.2875
15.7544 -18.4812 75.6225
10.1462 -16.9857 78.3375
7.31069 11.892 89.3031
7.09104 11.1033 89.9213
3.48024 12.0853 92.0595
3.70227 12.8748 91.439
3.70443 12.8824 78.3375
-10.2491 16.6878 78.3375
-20.1693 19.2852 69.8375
-20.1693 19.2852 44.2875
15.9061 -12.2345 83.9881
27.0004 6.45155 44.2875
27.0004 6.45155 69.8375
21.616 -16.364 44.2875
9.32859 17.1175 44.2875
9.32859 17.1175 -101.437
-15.5647 19.1346 75.6225
-9.9892 17.6478 78.3375
2.24 8.04 95.3155
0.159997 0.280002 101.337
20.3352 13.2058 44.2875
-21.4363 17.1397 44.2875
23.04 8.84 75.6225
-23.3219 -9.99767 69.8375
-2.67825 -7.21419 94.9169
-3.11763 -11.3738 92.1353
-17.7038 5.23644 88.7245
28.0686 10.4573 44.2875
28.0686 10.4573 -101.437
27.3321 7.69543 -101.437
27.3321 7.69543 44.2875
-17.7036 5.23638 88.4753
-11.6017 11.7195 86.4177
-11.7055 11.8204 86.3063
20.1784 12.6153 75.6225
-9.1694 20.6666 75.6225
5.2123 18.2437 75.6225
6.14042 18.0874 75.6225
2.93025 7.85288 94.9064
-26.8664 -3.27391 44.2875
-26.88 -5.88 44.2875
-26.88 -5.88 69.8375
-27.5188 -5.72669 44.2875
-20.8253 19.4366 44.2875
9.45691 -19.4671 75.6225
9.31977 -19.9608 75.6225
9.22651 -20.2966 75.6225
-11.0904 21.6356 44.2875
11.44 -20.04 75.6225
-9.02236 21.2098 75.6225
-10.4698 15.8723 78.3375
20.96 -16.2 -101.437
21.616 -16.364 -101.437
27.0227 3.93531 -101.437
26.384 4.13999 -101.437
20.9767 -18.7642 -101.437
20.32 -18.6 -101.437
27.643 6.26414 44.2875
27.643 6.26414 -101.437
27.0004 6.45155 -101.437
20.0465 -19.6257 44.2875
20.0465 -19.6257 -101.437
-25.8457 -7.3878 69.8375
3.47889 12.0805 75.6225
-23.52 -10.68 69.8375
20.3352 13.2058 -101.437
20.1784 12.6153 -101.437
-11.0904 21.6356 -101.437
-11.263 21.0193 -101.437
-14.7778 22.3948 -101.437
-14.9595 21.6421 -101.437
-14.7778 22.3948 44.2875
-14.9595 21.6421 44.2875
-15.5647 19.1346 -101.437
-17.3965 22.0526 -101.437
6.14042 18.0874 -101.437
6.13712 18.0886 -101.437
23.6825 11.2494 -101.437
23.8693 11.9498 -101.437
23.04 8.84 -101.437
23.8693 11.9498 44.2875
-17.1752 22.8883 -101.437
-17.9974 19.7833 -101.437
-27.1867 -7.03021 69.8375
-19.9011 20.291 44.2875
-17.9974 19.7833 44.2875
6.13712 18.0886 75.6225
19.1526 -22.9777 -101.437
19.1526 -22.9777 44.2875
-23.3219 -9.99767 75.6225
25.4113 8.20764 69.8375
2.2043 0.796237 99.51
3.48025 12.0853 92.191
3.29958 11.443 92.5643
-11.5834 11.7873 86.3781
-11.5841 11.7875 87.194
3.48024 12.0853 92.0595
-17.9662 17.9096 78.3375
3.47911 12.0813 78.3375
-14.9595 21.6421 69.8375
-17.3965 22.0526 44.2875
23.6825 11.2494 69.8375
17.9622 -4.65933 88.6223
16.0573 4.29434 86.3509
-4.27792 -15.4993 75.6225
2.33524 8.01418 75.6225
-4.43912 -16.0724 75.6225
-1.9982 -7.3936 75.6225
-25.7019 -9.31012 44.2875
15.0598 -21.0857 69.8375
7.60685 12.9555 61.2046
-3.11397 -11.3608 75.6225
0.17494 -13.7318 44.2875
3.84301 -0.560103 44.2875
4.86117 3.09601 44.2875
5.85803 6.67566 44.2875
-4.57844 -16.5678 75.6225
7.60685 12.9555 44.2875
-25.2359 -7.55043 69.8375
4.75998 2.73265 78.3375
4.62047 2.2317 78.3375
-17.1752 22.8883 44.2875
0.159999 0.28 101.337
2.33524 8.01418 95.2591
16.0571 4.29441 87.1265
0.159999 0.28 101.337
25.4113 8.20764 44.2875
18.1292 -19.1145 44.2875
18.1292 -19.1145 69.8375
-20.0378 -12.3921 -101.437
-19.8594 -11.7145 -101.437
11.2029 -20.8304 -101.437
11.2962 -20.5194 -101.437
-22.1016 14.6386 69.8375
-22.1016 14.6386 75.6225
26.3735 1.4978 69.8375
26.3735 1.4978 75.6225
-26.2208 -0.846986 75.6225
22.2591 -13.9496 75.6225
-23.7277 -11.3954 44.2875
22.2594 -13.9484 69.8375
-23.7277 -11.3954 -101.437
-26.2205 -0.84576 69.8375
-23.52 -10.68 -101.437
-25.8875 -10.0109 -101.437
14.9365 -21.5481 -101.437
24.2675 -6.4088 75.6225
-24.1284 7.01899 75.6225
15.7544 -18.4812 -101.437
14.8642 -21.8194 -101.437
14.8642 -21.8194 44.2875
26.189 11.1253 44.2875
-26.0855 -10.7586 44.2875
-26.0855 -10.7586 -101.437
-25.2359 -7.55043 -101.437
14.9365 -21.5481 69.8375
-25.8875 -10.0109 44.2875
18.1292 -19.1145 -101.437
17.2375 -22.4604 -101.437
-15.6388 -3.70961 87.2738
17.2375 -22.4604 44.2875
0.159999 0.28 101.338
0.159999 0.28 101.338
-15.7696 -3.67424 87.1966
-1.99937 -7.39776 95.3173
-26.8664 -3.27391 -101.437
0.159999 0.28 101.338
-16.8453 -7.679 78.3375
-27.5188 -5.72669 -101.437
-15.7804 -3.74536 78.3375
13.8845 -3.52794 93.1273
0.159999 0.28 101.337
-11.6024 11.7201 87.2462
-11.7055 11.8204 87.1227
-20.8253 19.4366 -101.437
2.33524 8.01418 95.3715
17.1856 8.3562 78.3375
16.0574 4.29448 78.3375
20.7008 -19.8002 -101.437
-27.8206 -6.86118 -101.437
-24.9761 -6.56926 44.2875
20.7008 -19.8002 44.2875
-24.9382 -6.42641 44.2875
-27.8206 -6.86118 44.2875
-24.9074 -6.31001 44.2875
-24.8404 -6.05704 44.2875
-23.272 -0.134534 44.2875
-22.0145 4.61412 44.2875
20.9767 -18.7642 44.2875
17.9385 -17.0114 78.3375
5.22169 18.2771 75.6225
-24.9182 -6.35083 69.8375
-1.99937 -7.39776 95.3173
0.159999 0.279999 101.338
16.0573 4.29434 87.1263
13.9068 -3.44736 93.1906
0.161299 0.279639 101.337
0.159999 0.28 101.337
7.2276 17.8641 69.8375
27.9783 7.52312 44.2875
-20.5519 20.4645 44.2875
27.9783 7.52312 -101.437
-20.5519 20.4645 -101.437
7.2276 17.8641 44.2875
28.7 10.2329 44.2875
19.8073 -23.1545 44.2875
7.2276 17.8641 -101.437
-18.9804 23.26 44.2875
28.7 10.2329 -101.437
-18.9804 23.26 -101.437
19.8073 -23.1545 -101.437
-28.6715 -10.0601 -101.437
-19.8083 23.26 -101.437
-25.5975 -6.18781 69.8375
-25.5231 -6.20564 75.6225
0.160006 0.279998 101.338
0.159999 0.28 101.337
-10.0915 17.27 78.3375
0.16 0.28 101.338
20.3352 13.2058 75.6225
0.159999 0.28 101.337
0.159999 0.28 101.337
-13.6664 4.11623 93.1379
0.159999 0.28 101.337
0.557735 -12.3572 89.0062
-28.6715 -10.0601 44.2875
-19.8083 23.26 44.2875
4  725 722 720 739  255 0 0
5  724 666 657 667 692  255 0 0
6  725 715 595 587 594 722  255 0 0
4  724 738 665 666  255 0 0
4  725 739 713 715  255 0 0
4  724 692 696 738  255 0 0
4  723 600 601 718  255 0 0
4  723 691 574 600  255 0 0
4  723 718 694 691  255 0 0
4  722 594 634 720  255 0 0
4  721 714 712 717  255 0 0
6  719 589 588 579 578 528  255 0 0
4  721 541 542 714  255 0 0
4  719 716 217 589  255 0 0
4  721 717 540 541  255 0 0
4  719 528 527 716  255 0 0
4  716 711 122 217  255 52 0
7  716 527 533 120 125 124 711  255 52 0
4  718 601 573 694  255 0 0
4  717 712 543 540  255 0 0
7  720 634 613 598 597 713 739  255 0 0
8  738 696 221 227 226 621 669 665  255 0 0
4  714 571 570 712  255 0 0
4  712 570 524 543  255 0 0
4  713 556 687 715  255 0 0
12  715 687 678 681 692 667 661 670 177 592 586 595  255 0 0
4  714 542 572 571  255 0 0
4  713 597 522 556  255 0 0
5  711 124 119 123 122  255 52 0
7  262 491 291 702 390 263 91  255 105 0
5  269 682 472 471 270  255 158 0
5  269 230 268 680 682  255 158 0
4  262 91 90 433  255 211 0
4  269 88 87 230  246 255 0
5  245 237 49 244 505  255 158 0
7  245 506 339 610 294 563 238  255 158 0
5  256 690 450 449 257  255 105 0
5  256 155 255 689 690  255 105 0
4  245 546 545 237  193 255 0
6  245 238 607 139 144 546  193 255 0
4  256 480 163 155  246 255 0
4  696 555 553 221  255 0 0
4  694 701 568 691  255 0 0
4  694 573 512 701  255 0 0
7  256 257 616 454 707 637 480  246 255 0
3  245 505 506  255 158 0
5  156 154 250 251 281  140 255 0
4  257 449 258 92  255 105 0
4  257 92 93 616  246 255 0
5  133 104 265 266 132  87 255 0
4  133 132 264 231  35 255 0
3  262 261 491  255 105 0
6  262 433 74 477 523 261  255 211 0
3  499 315 314  255 158 0
6  499 311 472 682 680 362  255 158 0
8  132 469 468 467 538 130 129 131  87 255 0
4  132 266 241 469  87 255 0
5  499 362 361 465 315  255 158 0
4  702 291 290 422  255 105 0
5  702 422 421 389 390  255 105 0
5  132 131 129 737 264  35 255 0
4  673 601 600 671  255 0 0
5  673 663 223 459 458  255 0 0
5  640 573 601 673 458  255 0 0
4  640 194 201 641  255 105 0
4  640 458 459 194  255 0 0
4  664 593 591 179  255 0 0
5  664 540 543 639 349  255 0 0
4  639 206 350 349  255 0 0
4  639 543 524 182  255 0 0
4  603 207 206 639  255 105 0
4  664 349 350 593  255 0 0
4  634 584 585 613  255 0 0
4  598 203 215 475  0 255 17
4  598 613 585 203  255 0 0
5  263 264 737 380 476  35 255 0
5  263 390 389 514 498  255 105 0
4  91 263 476 90  35 255 0
5  680 268 267 361 362  255 158 0
4  679 729 728 731  0 255 70
3  677 234 537  0 255 123
4  674 734 733 675  0 255 70
4  675 733 729 679  0 255 70
4  674 143 140 734  0 255 70
4  672 364 236 496  0 255 123
8  677 537 446 364 672 329 143 142  0 255 123
4  675 142 143 674  0 255 70
4  665 652 654 666  255 0 0
4  631 575 726 704  0 255 175
4  631 196 195 226  0 255 17
4  226 195 220 621  255 0 0
4  226 227 575 631  0 255 175
4  665 669 225 652  255 0 0
4  663 219 11 223  255 0 0
4  663 673 671 662  255 0 0
4  201 622 14 15  0 255 228
4  201 194 459 622  0 255 228
3  679 731 706  0 255 70
4  156 281 249 102  140 255 0
4  237 545 62 49  193 255 0
4  736 638 710 729  0 255 70
4  729 710 709 728  0 255 70
4  685 138 144 686  0 255 70
6  734 140 78 59 299 735  0 255 70
3  735 299 298  0 255 70
4  684 635 638 736  0 255 70
7  685 298 299 59 60 61 138  0 255 70
9  736 729 733 734 735 298 685 532 684  0 255 70
3  683 336 335  246 255 0
4  99 75 74 180  246 255 0
4  99 334 98 75  246 255 0
7  683 335 333 334 99 83 82  246 255 0
6  731 728 709 150 151 706  0 255 70
4  688 636 635 684  0 255 70
5  677 705 302 228 234  0 255 123
5  679 706 141 142 675  0 255 70
4  677 142 141 705  0 255 123
4  593 533 578 591  255 0 0
5  207 127 112 113 614  0 228 255
5  593 350 109 222 533  255 0 0
4  207 614 350 206  0 228 255
6  261 309 489 290 291 491  255 105 0
6  259 308 283 309 261 260  255 105 0
4  259 260 66 72  255 211 0
4  261 523 66 260  255 211 0
4  100 73 232 342  246 255 0
4  570 218 5 524  255 0 0
4  571 566 218 570  255 0 0
4  701 526 565 568  255 0 0
4  568 565 564 569  255 0 0
6  218 526 402 653 648 387  0 175 255
4  566 565 526 218  255 0 0
4  566 571 572 567  255 0 0
4  611 281 251 252  140 255 0
4  611 519 239 248  140 255 0
3  451 271 274  255 105 0
6  451 277 450 690 689 355  255 105 0
4  611 252 253 519  140 255 0
5  451 355 354 358 271  255 105 0
5  689 255 240 354 355  255 105 0
4  686 144 139 608  0 255 70
6  688 531 406 152 160 636  0 255 70
4  688 684 532 531  0 255 70
8  686 608 344 404 406 531 532 685  0 255 70
6  683 708 320 95 96 336  246 255 0
4  683 82 81 708  246 255 0
4  672 496 495 676  0 255 123
4  269 270 76 88  246 255 0
4  270 471 242 54  255 158 0
4  270 54 55 76  246 255 0
4  676 495 416 328  0 255 123
4  672 676 328 329  0 255 123
4  669 621 220 225  255 0 0
4  668 622 459 223  0 255 228
4  668 13 14 622  0 255 228
4  668 223 11 13  0 255 228
4  180 74 73 100  246 255 0
5  179 591 590 592 177  255 0 0
4  179 541 540 664  255 0 0
4  177 542 541 179  255 0 0
5  660 650 655 646 647  0 123 255
4  660 647 33 34  0 123 255
5  659 649 648 653 651  0 175 255
4  659 651 8 9  0 175 255
4  660 34 35 650  0 123 255
4  659 9 10 649  0 175 255
6  655 398 552 534 395 646  0 123 255
4  650 399 398 655  0 123 255
4  651 403 7 8  0 175 255
4  653 402 403 651  0 175 255
4  650 35 28 399  0 123 255
4  649 388 387 648  0 175 255
5  647 394 397 32 33  0 123 255
4  646 395 394 647  0 123 255
4  649 10 4 388  0 175 255
4  201 15 200 513  255 105 0
4  641 201 513 420  255 105 0
4  707 454 94 307  246 255 0
3  709 149 150  0 255 70
6  710 638 148 80 149 709  0 255 70
7  708 81 80 148 604 319 320  246 255 0
6  707 307 306 320 319 637  246 255 0
3  99 180 100  246 255 0
3  706 151 141  0 255 70
5  705 141 151 303 302  0 255 123
6  100 342 343 84 83 99  246 255 0
5  471 310 323 243 242  255 158 0
6  243 323 288 410 505 244  255 158 0
5  243 544 539 400 242  0 70 255
4  156 102 101 618  0 17 255
4  618 101 279 280  0 255 17
4  618 176 154 156  0 17 255
8  703 379 377 562 492 121 122 599  35 0 255
4  703 599 550 549  35 0 255
5  618 280 317 318 176  0 255 17
4  703 549 378 379  35 0 255
5  517 478 38 45 518  87 0 255
5  609 478 371 374 606  87 0 255
3  636 160 551  0 255 70
4  637 351 163 480  246 255 0
3  609 606 605  87 0 255
4  517 46 37 478  87 0 255
4  652 224 642 654  255 0 0
4  225 18 224 652  255 0 0
4  577 19 18 225  140 0 255
4  691 568 569 574  255 0 0
4  692 681 555 696  255 0 0
8  670 574 569 564 567 572 542 177  255 0 0
5  670 661 658 662 671  255 0 0
4  640 184 512 573  255 0 0
5  556 534 552 678 687  255 0 0
4  681 678 552 555  255 0 0
4  555 552 29 553  255 0 0
4  671 600 574 670  255 0 0
4  666 654 656 657  255 0 0
7  667 657 656 643 645 658 661  255 0 0
4  662 644 219 663  255 0 0
4  662 658 645 644  255 0 0
4  654 642 643 656  255 0 0
4  645 643 642 644  255 0 0
4  644 642 224 219  255 0 0
6  219 224 483 428 425 485  193 0 255
4  641 185 184 640  255 105 0
4  639 182 423 603  255 105 0
6  638 635 636 551 147 148  0 255 70
7  637 319 604 147 146 370 351  246 255 0
3  467 466 538  87 255 0
4  212 412 367 213  0 255 17
9  212 549 550 392 547 208 209 210 211  35 0 255
5  212 211 353 500 412  0 255 17
4  212 213 378 549  35 0 255
4  207 603 445 535  255 105 0
4  475 215 529 385  0 255 17
4  594 582 584 634  255 0 0
4  582 580 560 584  255 0 0
4  582 594 587 583  255 0 0
4  584 560 114 585  255 0 0
4  560 217 122 121  255 52 0
4  580 589 217 560  255 0 0
4  580 582 583 581  255 0 0
4  168 167 196 631  0 255 17
4  133 231 504 620  0 17 255
5  629 424 425 428 427  193 0 255
4  629 427 426 619  193 0 255
4  197 198 438 617  193 0 255
4  197 166 360 497  0 255 17
4  620 504 432 624  0 255 17
4  620 103 104 133  0 17 255
4  629 619 439 424  193 0 255
6  197 617 22 21 165 166  193 0 255
4  197 497 431 198  0 255 17
5  620 624 359 292 103  0 255 17
4  624 497 360 359  0 255 17
4  624 432 431 497  0 255 17
5  576 500 353 318 317  0 255 17
4  576 280 279 429  0 255 17
3  576 317 280  0 255 17
6  449 276 285 308 259 258  255 105 0
5  259 72 71 347 258  255 211 0
4  619 617 438 439  193 0 255
5  619 426 322 22 617  193 0 255
5  615 455 453 70 71  246 0 255
5  615 72 66 321 455  246 0 255
4  616 93 94 454  246 255 0
3  615 71 72  246 0 255
4  614 113 109 350  0 228 255
4  215 117 214 529  0 255 17
4  612 116 117 215  255 0 211
4  585 114 116 612  255 0 211
4  215 203 585 612  255 0 211
6  485 425 424 409 559 486  193 0 255
4  13 11 219 485  193 0 255
4  610 339 338 382  255 158 0
5  610 382 386 293 294  255 158 0
4  611 248 249 281  140 255 0
8  609 605 405 363 43 44 38 478  87 0 255
4  238 157 158 607  193 255 0
4  563 246 157 238  255 158 0
6  563 294 293 530 730 520  255 158 0
4  608 139 145 344  0 255 70
5  160 153 39 146 551  0 255 70
4  607 158 145 139  193 255 0
4  160 374 371 153  87 0 255
5  606 374 373 405 605  87 0 255
4  160 152 373 374  87 0 255
3  41 158 42  140 255 0
5  41 159 404 344 145  0 255 70
6  41 42 363 405 373 159  87 0 255
3  551 146 147  0 255 70
3  604 148 147  246 255 0
5  191 10 9 189 190  255 0 158
4  191 192 4 10  255 0 158
6  272 357 423 0 192 273  255 105 0
5  603 423 357 356 445  255 105 0
6  505 410 494 338 339 506  255 158 0
4  243 244 341 544  0 70 255
4  167 21 22 602  140 0 255
4  602 22 17 536  140 0 255
4  536 17 19 577  140 0 255
4  167 602 536 196  140 0 255
4  535 208 127 207  255 105 0
4  123 119 392 550  35 0 255
4  122 123 550 599  35 0 255
4  598 216 522 597  255 0 0
4  475 473 216 598  0 255 17
4  596 575 227 221  0 255 175
4  596 554 726 575  0 255 175
4  221 553 554 596  0 255 175
4  595 586 583 587  255 0 0
4  591 578 579 590  255 0 0
7  592 590 579 588 581 583 586  255 0 0
4  589 580 581 588  255 0 0
4  222 109 113 126  255 52 0
4  533 527 528 578  255 0 0
4  536 577 225 220  140 0 255
4  576 429 368 500  0 255 17
4  512 6 526 701  255 0 0
4  567 564 565 566  255 0 0
4  562 377 376 548  35 0 255
4  202 214 488 548  35 0 255
4  563 520 247 246  255 158 0
4  562 548 488 492  35 0 255
4  202 548 376 164  35 0 255
4  530 305 304 730  255 158 0
4  202 164 305 530  255 158 0
4  561 557 193 200  193 0 255
4  200 15 14 561  193 0 255
4  116 114 560 121  255 52 0
4  559 409 408 558  193 0 255
4  558 408 407 557  193 0 255
4  558 487 486 559  193 0 255
4  557 407 199 193  193 0 255
4  557 561 487 558  193 0 255
5  263 498 301 430 264  255 105 0
4  522 30 534 556  255 0 0
4  521 23 30 522  0 255 175
4  554 24 27 726  0 255 175
4  553 29 24 554  0 255 175
4  398 24 29 552  0 123 255
6  167 168 501 434 452 21  255 158 0
5  547 392 393 456 732  35 0 255
3  126 113 112  255 52 0
5  208 547 126 112 127  35 0 255
4  546 144 138 545  193 255 0
4  545 138 61 62  193 255 0
5  544 341 340 443 539  0 70 255
5  539 443 442 401 400  0 70 255
4  495 76 55 416  0 255 123
5  234 135 235 446 537  0 255 123
4  510 130 137 415  35 255 0
5  466 463 464 130 538  87 255 0
4  234 447 136 135  35 255 0
4  496 88 76 495  0 255 123
7  130 510 346 381 380 737 129  35 255 0
4  496 236 87 88  0 255 123
7  130 464 326 236 235 136 137  87 255 0
3  135 136 235  87 255 0
4  196 536 220 195  140 0 255
6  535 445 444 437 414 208  255 105 0
4  23 521 473 25  0 255 175
5  23 396 395 534 30  0 123 255
4  126 120 533 222  255 52 0
4  530 293 214 202  255 158 0
5  529 214 293 386 385  255 158 0
4  6 512 511 3  255 0 105
4  524 5 2 525  255 0 105
4  525 2 0 423  255 0 105
4  2 5 218 387  0 175 255
4  3 511 185 1  255 0 105
4  402 526 6 3  0 175 255
4  423 182 524 525  255 0 105
4  74 433 90 73  255 211 0
5  75 98 65 477 74  255 211 0
4  523 477 65 66  255 211 0
4  483 224 18 19  193 0 255
4  473 521 522 216  0 255 175
4  514 300 301 498  255 105 0
4  514 193 199 300  255 105 0
4  507 323 310 470  255 158 0
5  493 474 32 31 337  255 0 52
6  175 34 33 474 493 287  255 0 52
4  494 410 288 286  255 158 0
4  507 286 288 323  255 158 0
4  494 286 287 493  255 158 0
4  175 287 286 507  255 158 0
4  347 71 70 348  255 211 0
4  347 93 92 258  255 211 0
4  520 730 304 247  255 158 0
4  519 45 441 239  140 255 0
5  519 253 515 36 45  140 255 0
5  358 354 414 437 436  255 105 0
3  518 45 36  87 0 255
4  518 36 46 517  87 0 255
4  253 254 509 515  140 255 0
4  515 509 508 516  140 255 0
4  516 46 36 515  140 255 0
4  516 508 372 479  140 255 0
4  516 479 37 46  140 255 0
4  514 389 200 193  255 105 0
5  513 200 389 421 420  255 105 0
4  185 511 512 184  255 0 105
4  73 90 229 232  246 255 0
5  234 228 345 415 447  35 255 0
4  510 415 345 346  35 255 0
4  509 482 481 508  140 255 0
4  254 240 482 509  140 255 0
5  254 253 413 375 278  255 105 0
4  508 481 295 372  140 255 0
4  174 35 34 175  255 0 52
5  470 310 311 499 314  255 158 0
4  507 470 174 175  255 158 0
3  444 436 437  255 105 0
4  102 249 279 101  255 158 0
4  429 279 249 248  255 158 0
6  448 276 277 451 274 289  255 105 0
4  490 308 285 284  255 105 0
4  448 284 285 276  255 105 0
4  87 327 268 230  87 255 0
4  231 264 432 504  255 105 0
4  49 62 341 244  0 70 255
3  503 315 465  255 158 0
5  502 727 171 315 503  255 158 0
4  502 169 170 727  255 158 0
4  503 465 169 502  255 158 0
5  465 361 452 434 435  255 158 0
3  501 435 434  255 158 0
5  465 435 501 168 169  255 158 0
3  98 67 65  255 211 0
4  494 493 337 338  255 158 0
4  382 338 337 383  255 158 0
5  416 56 57 365 328  0 255 123
3  416 77 56  0 255 123
3  416 55 77  0 255 123
5  400 77 55 54 242  0 70 255
4  352 365 57 58  0 255 123
5  59 58 324 325 312  0 70 255
4  443 325 324 442  0 70 255
4  488 116 121 492  35 0 255
5  189 9 8 187 188  255 0 158
4  187 8 7 186  255 0 158
4  489 309 283 282  255 105 0
4  490 282 283 308  255 105 0
4  490 189 188 282  255 105 0
4  489 282 188 187  255 105 0
4  489 187 186 290  255 105 0
4  422 290 186 418  255 105 0
4  214 117 116 488  35 0 255
4  487 13 485 486  193 0 255
4  484 427 428 483  193 0 255
4  322 426 427 484  193 0 255
4  484 483 19 322  193 0 255
3  240 254 278  255 105 0
6  482 240 255 296 295 481  140 255 0
6  372 295 297 162 161 369  140 255 0
5  479 372 369 47 37  140 255 0
4  478 37 47 371  87 0 255
4  153 371 47 39  87 0 255
5  67 98 334 333 97  246 255 0
5  96 97 333 335 336  246 255 0
6  455 321 65 67 97 332  246 0 255
4  96 331 332 97  246 0 255
5  162 163 351 370 161  246 255 0
3  162 297 163  140 255 0
4  90 476 380 229  35 255 0
4  561 14 13 487  193 0 255
4  500 368 367 412  0 255 17
4  490 284 190 189  255 105 0
4  191 190 284 448  255 105 0
5  418 186 1 185 419  255 105 0
4  420 419 185 641  255 105 0
4  732 456 125 120  35 0 255
4  547 732 120 126  35 0 255
3  171 727 170  255 158 0
4  174 173 28 35  255 0 52
5  169 168 631 704 170  0 255 17
6  171 170 704 26 173 172  0 255 17
4  726 27 26 704  0 255 175
5  28 173 26 27 24  255 0 52
5  383 337 25 473 384  0 255 17
4  385 384 473 475  0 255 17
3  474 33 32  255 0 52
3  397 31 32  0 123 255
4  397 396 23 31  0 123 255
4  337 31 23 25  255 0 52
4  186 7 3 1  255 0 158
4  472 311 310 471  255 158 0
5  470 314 172 173 174  255 158 0
4  469 241 462 468  87 255 0
5  468 462 463 466 467  87 255 0
4  241 267 460 462  87 255 0
4  462 460 461 463  87 255 0
4  463 461 326 464  87 255 0
4  267 241 417 391  255 158 0
6  461 460 267 268 327 326  87 255 0
4  198 199 407 438  193 0 255
4  457 300 199 198  255 105 0
4  430 301 300 457  255 105 0
4  430 457 198 431  255 105 0
4  45 38 44 441  140 255 0
4  44 43 440 441  140 255 0
4  456 393 124 125  35 0 255
4  104 103 292 265  255 158 0
4  266 265 292 359  255 158 0
5  320 306 89 68 95  246 255 0
4  96 95 330 331  246 0 255
5  455 332 331 330 453  246 0 255
4  453 330 69 70  246 0 255
4  95 68 69 330  246 0 255
4  361 267 391 452  255 158 0
4  452 391 165 21  255 158 0
4  450 277 276 449  255 105 0
4  448 289 192 191  255 105 0
4  273 192 289 274  255 105 0
4  447 415 137 136  35 255 0
4  235 236 364 446  0 255 123
5  297 296 255 155 163  140 255 0
5  358 436 444 445 356  255 105 0
6  443 340 61 60 312 325  0 70 255
3  59 312 60  0 70 255
6  56 77 401 442 324 57  0 70 255
3  58 57 324  0 70 255
4  239 247 304 366  255 158 0
4  441 440 247 239  140 255 0
4  43 246 247 440  140 255 0
4  439 408 409 424  193 0 255
4  438 407 408 439  193 0 255
4  366 304 305 411  255 158 0
4  264 430 431 432  255 105 0
4  239 368 429 248  255 158 0
4  192 0 2 4  255 0 158
5  422 418 419 420 421  255 105 0
4  166 165 391 417  255 158 0
4  241 360 166 417  255 158 0
5  328 365 352 143 329  0 255 123
5  233 232 381 346 345  35 255 0
4  233 85 84 343  246 255 0
4  233 345 228 85  35 255 0
5  354 240 278 313 414  255 105 0
5  414 313 275 209 208  255 105 0
6  211 210 275 313 375 413  255 105 0
4  413 253 353 211  255 105 0
4  213 164 376 378  35 0 255
4  411 305 164 213  255 158 0
4  366 411 213 367  255 158 0
4  406 404 159 152  0 255 70
3  152 159 373  87 0 255
4  403 402 3 7  0 175 255
3  401 77 400  0 70 255
4  399 28 24 398  0 123 255
4  397 394 395 396  0 123 255
4  393 392 119 124  35 0 255
4  4 2 387 388  0 175 255
5  386 382 383 384 385  255 158 0
4  232 233 343 342  246 255 0
4  232 229 380 381  35 255 0
4  378 376 377 379  35 0 255
3  313 278 375  255 105 0
4  370 146 39 161  246 255 0
4  161 39 47 369  140 255 0
4  239 366 367 368  255 158 0
3  158 41 145  193 255 0
5  158 157 246 43 42  140 255 0
3  363 42 43  87 0 255
4  266 359 360 241  255 158 0
5  358 356 357 272 271  255 105 0
5  252 316 318 353 253  255 105 0
5  140 143 352 58 78  0 255 123
3  59 78 58  246 255 0
5  348 70 69 89 94  255 211 0
4  94 89 306 307  246 255 0
4  348 94 93 347  255 211 0
4  302 84 85 228  0 255 123
4  62 61 340 341  0 70 255
3  89 69 68  255 211 0
4  236 326 327 87  87 255 0
4  22 322 19 17  193 0 255
3  65 321 66  246 0 255
6  154 176 318 316 251 250  255 105 0
3  252 251 316  255 105 0
4  315 171 172 314  255 158 0
3  210 209 275  255 105 0
4  303 83 84 302  0 255 123
5  303 151 150 82 83  0 255 123
3  297 295 296  140 255 0
4  274 271 272 273  255 105 0
3  54 242 53  255 158 0
3  242 54 53  0 70 255
4  270 54 230 269  255 158 0
4  54 270 269 230  246 255 0
4  268 230 241 267  255 158 0
4  230 268 267 241  87 255 0
5  266 241 230 104 265  255 158 0
5  241 266 265 104 230  87 255 0
5  133 104 105 633 231  0 17 255
5  104 133 231 633 105  246 255 0
4  264 231 91 263  255 105 0
4  231 264 263 91  35 255 0
7  262 91 92 258 259 260 261  255 105 0
7  91 262 261 260 259 258 92  255 211 0
6  257 92 633 632 155 256  255 105 0
6  92 257 256 155 632 633  246 255 0
4  255 155 154 240  255 105 0
4  155 255 240 154  140 255 0
7  254 240 154 250 251 252 253  255 105 0
7  240 254 253 252 251 250 154  140 255 0
4  156 154 107 102  0 17 255
4  154 156 102 107  246 255 0
6  249 102 64 157 239 248  255 158 0
6  102 249 248 239 157 64  140 255 0
4  247 239 157 246  255 158 0
4  239 247 246 157  140 255 0
5  238 157 63 49 237  255 158 0
5  157 238 237 49 63  193 255 0
3  245 238 237  255 158 0
3  238 245 237  193 255 0
4  244 49 242 243  255 158 0
4  49 244 243 242  0 70 255
3  242 53 52  0 70 255
4  92 633 231 91  246 255 0
3  155 632 154  255 105 0
3  242 52 53  255 158 0
3  242 52 51  0 70 255
3  242 51 52  255 158 0
3  242 51 50  0 70 255
4  154 107 106 632  246 255 0
5  102 50 48 63 64  255 158 0
3  242 50 51  255 158 0
3  242 50 48  0 70 255
4  102 50 51 107  246 255 0
3  242 48 50  255 158 0
3  242 48 49  0 70 255
3  157 63 64  193 255 0
3  242 49 48  255 158 0
3  230 54 104  255 158 0
3  54 230 104  246 255 0
4  104 54 53 105  255 158 0
4  54 104 105 53  246 255 0
4  91 231 633 92  255 105 0
4  87 230 134 86  87 255 0
4  230 87 86 134  246 255 0
5  236 87 86 135 235  87 255 0
5  87 236 235 135 86  0 255 123
3  234 135 228  35 255 0
3  135 234 228  0 255 123
6  233 85 86 134 229 232  35 255 0
4  228 85 86 135  0 255 123
6  233 232 229 134 86 85  246 255 0
6  90 229 134 133 231 91  35 255 0
6  229 90 91 231 133 134  246 255 0
4  104 133 134 230  87 255 0
4  133 104 230 134  246 255 0
4  228 135 86 85  35 255 0
4  227 221 693 226  255 0 0
4  221 227 226 693  0 255 175
5  195 226 693 626 625  255 0 0
5  226 195 625 626 693  0 255 17
4  220 195 20 18  255 0 0
4  195 220 18 20  140 0 255
3  225 220 18  255 0 0
3  220 225 18  140 0 255
3  224 18 219  255 0 0
3  18 224 219  193 0 255
4  11 219 18 20  255 0 0
4  219 11 20 18  193 0 255
5  223 11 12 194 459  255 0 0
5  11 223 459 194 12  0 255 228
6  640 194 12 178 625 184  255 0 0
6  194 640 184 625 178 12  255 105 0
3  512 184 6  255 0 0
3  184 512 6  255 0 105
3  526 6 218  255 0 0
3  6 526 218  0 175 255
3  5 218 6  255 0 0
3  218 5 6  0 175 255
4  524 5 183 182  255 0 0
4  5 524 182 183  255 0 105
5  639 182 181 627 206  255 0 0
5  182 639 206 627 181  255 105 0
4  350 206 108 109  255 0 0
4  206 350 109 108  0 228 255
4  222 109 108 205  255 0 0
9  533 222 205 630 115 114 217 716 527  255 0 0
9  222 533 527 716 217 114 115 630 205  255 52 0
3  560 217 114  255 0 0
3  217 560 114  255 52 0
3  585 114 203  255 0 0
3  114 585 203  255 0 211
3  598 203 216  255 0 0
3  203 598 216  0 255 17
6  522 216 221 553 29 30  255 0 0
6  216 522 30 29 553 221  0 255 175
4  534 30 29 552  255 0 0
4  30 534 552 29  0 123 255
3  221 693 695  0 255 175
4  5 183 184 6  255 0 105
3  221 695 693  255 0 0
3  221 695 697  0 255 175
4  182 181 626 183  255 105 0
5  206 627 628 205 108  255 0 0
3  221 697 695  255 0 0
3  221 697 698  0 255 175
3  221 698 697  255 0 0
3  221 698 699  0 255 175
4  222 205 108 109  255 52 0
3  114 204 203  255 0 0
3  221 699 698  255 0 0
3  221 699 700  0 255 175
3  114 204 115  255 0 211
3  203 700 216  255 0 0
3  221 700 699  255 0 0
3  221 700 216  0 255 175
4  203 700 699 204  0 255 17
3  221 216 700  255 0 0
5  11 20 16 178 12  255 0 0
3  195 20 16  140 0 255
3  195 16 20  255 0 0
4  195 16 178 625  0 255 17
4  184 625 626 183  255 0 0
4  195 625 178 16  255 0 0
4  6 184 183 5  255 0 0
3  114 203 204  255 0 211
3  203 216 700  0 255 17
6  204 699 698 628 630 115  0 255 17
4  204 699 700 203  255 0 0
3  204 114 115  255 0 0
5  205 628 627 206 108  255 105 0
3  205 628 630  255 0 0
3  205 630 628  255 105 0
6  204 115 630 628 698 699  255 0 0
3  215 203 117  0 255 17
3  203 215 117  255 0 211
3  214 117 202  0 255 17
3  117 214 202  35 0 255
7  164 202 117 128 211 212 213  0 255 17
7  202 164 213 212 211 128 117  35 0 255
7  210 211 128 111 127 208 209  255 105 0
7  211 210 209 208 127 111 128  35 0 255
5  207 127 110 108 206  255 105 0
5  127 207 206 108 110  0 228 255
5  205 108 110 623 630  255 105 0
4  204 115 118 203  0 255 17
5  205 630 623 110 108  255 52 0
4  204 203 118 115  255 0 211
3  117 203 118  0 255 17
3  203 117 118  255 0 211
3  127 110 111  0 228 255
3  201 194 15  255 105 0
3  194 201 15  0 255 228
3  200 15 193  255 105 0
3  15 200 193  193 0 255
6  199 193 15 12 178 198  255 105 0
6  193 199 198 178 12 15  193 0 255
7  197 198 178 16 21 165 166  0 255 17
7  198 197 166 165 21 16 178  193 0 255
5  167 21 16 195 196  0 255 17
5  21 167 196 195 16  140 0 255
3  194 12 15  255 105 0
3  194 15 12  0 255 228
4  183 626 625 184  255 105 0
4  183 626 181 182  255 0 0
3  423 182 0  255 105 0
3  182 423 0  255 0 105
3  192 0 191  255 105 0
3  0 192 191  255 0 158
8  190 191 0 1 186 187 188 189  255 105 0
8  191 190 189 188 187 186 1 0  255 0 158
5  185 1 182 183 184  255 105 0
5  1 185 184 183 182  255 0 105
3  0 182 1  255 105 0
3  182 0 1  255 0 105
4  698 628 627 697  255 0 0
4  697 627 628 698  0 255 17
4  697 627 181 695  255 0 0
4  693 626 181 695  0 255 17
4  695 181 627 697  0 255 17
4  695 181 626 693  255 0 0
11  704 631 226 693 695 697 698 699 700 216 26  0 255 17
11  631 704 26 216 700 699 698 697 695 693 226  0 255 175
8  173 26 25 337 493 287 175 174  0 255 17
8  26 173 174 175 287 493 337 25  255 0 52
4  473 25 26 216  0 255 17
4  25 473 216 26  0 255 175
4  632 106 107 154  0 17 255
3  632 155 154  246 255 0
4  632 106 105 633  246 255 0
4  630 115 118 623  255 52 0
5  178 16 20 11 12  193 0 255
4  623 118 115 630  0 255 17
4  623 110 111 128  255 105 0
4  623 118 117 128  255 52 0
4  633 105 106 632  0 17 255
4  623 128 117 118  0 255 17
4  623 128 111 110  255 52 0
12  431 198 178 625 626 181 627 628 630 623 504 432  255 105 0
12  198 431 432 504 623 630 628 627 181 626 625 178  0 255 17
6  231 504 176 154 632 633  255 105 0
6  504 231 633 632 154 176  0 17 255
7  318 176 504 623 128 211 353  255 105 0
7  176 318 353 211 128 623 504  0 255 17
26  360 166 165 21 167 168 169 170 171 172 173 174 175 287 493 337 383 384 385 529 214 202 164 103 292 359  0 255 17
26  166 360 359 292 103 164 202 214 529 385 384 383 337 493 287 175 174 173 172 171 170 169 168 167 21 165  255 158 0
6  620 103 101 618 176 504  0 255 17
6  103 620 504 176 618 101  0 17 255
8  279 101 103 164 213 367 368 429  0 255 17
8  101 279 429 368 367 213 164 103  255 158 0
5  102 64 63 48 50  246 255 0
3  157 64 63  255 158 0
10  163 155 154 156 102 64 40 39 161 162  140 255 0
10  155 163 162 161 39 40 64 102 156 154  246 255 0
6  153 39 40 41 159 152  87 0 255
3  160 153 152  87 0 255
3  153 160 152  0 255 70
6  152 159 41 40 39 153  0 255 70
5  158 41 40 64 157  140 255 0
5  41 158 157 64 40  193 255 0
4  149 81 82 150  0 255 123
3  149 80 81  0 255 123
7  151 141 140 79 80 149 150  0 255 123
7  141 151 150 149 80 79 140  0 255 70
6  148 80 79 39 146 147  246 255 0
6  148 147 146 39 79 80  0 255 70
6  41 40 61 138 139 145  193 255 0
7  39 40 61 60 59 78 79  0 255 70
6  41 145 139 138 61 40  0 255 70
3  144 139 138  193 255 0
3  139 144 138  0 255 70
7  60 61 40 39 79 78 59  246 255 0
3  140 78 79  0 255 123
3  78 140 79  0 255 70
4  143 140 141 142  0 255 123
4  140 143 142 141  0 255 70
4  51 107 106 52  255 158 0
3  48 63 49  246 255 0
4  52 106 107 51  246 255 0
4  52 106 105 53  255 158 0
4  50 102 107 51  255 158 0
4  53 105 106 52  246 255 0
10  137 130 129 131 132 133 134 86 135 136  35 255 0
10  130 137 136 135 86 134 133 132 131 129  87 255 0
3  127 111 110  255 105 0
7  128 117 119 120 126 112 111  255 52 0
7  117 128 111 112 126 120 119  35 0 255
3  127 111 112  0 228 255
3  127 112 111  35 0 255
4  125 120 119 124  255 52 0
4  120 125 124 119  35 0 255
6  123 119 117 116 121 122  255 52 0
6  119 123 122 121 116 117  35 0 255
5  118 115 114 116 117  255 52 0
5  115 118 117 116 114  255 0 211
6  113 109 108 110 111 112  255 52 0
6  109 113 112 111 110 108  0 228 255
7  107 102 101 103 104 105 106  255 158 0
7  102 107 106 105 104 103 101  0 17 255
10  98 75 73 90 91 92 93 94 89 67  255 211 0
10  75 98 67 89 94 93 92 91 90 73  246 255 0
5  97 67 68 95 96  246 0 255
5  67 97 96 95 68  246 255 0
3  89 68 67  255 211 0
3  89 67 68  246 255 0
16  88 76 55 56 57 58 78 79 80 81 82 83 84 85 86 87  246 255 0
16  76 88 87 86 85 84 83 82 81 80 79 78 58 57 56 55  0 255 123
3  77 56 55  0 70 255
3  56 77 55  0 255 123
3  75 74 73  255 211 0
3  74 75 73  246 255 0
8  72 66 65 67 68 69 70 71  255 211 0
8  66 72 71 70 69 68 67 65  246 0 255
3  63 48 49  255 158 0
6  64 40 61 62 49 63  246 255 0
6  40 64 63 49 62 61  193 255 0
15  62 49 48 50 51 52 53 54 55 56 57 58 59 60 61  0 70 255
15  49 62 61 60 59 58 57 56 55 54 53 52 51 50 48  246 255 0
6  47 39 38 45 36 37  140 255 0
6  39 47 37 36 45 38  87 0 255
3  46 37 36  140 255 0
3  37 46 36  87 0 255
7  44 38 39 40 41 42 43  140 255 0
7  38 44 43 42 41 40 39  87 0 255
8  35 28 24 23 31 32 33 34  255 0 52
8  28 35 34 33 32 31 23 24  0 123 255
4  30 23 24 29  0 255 175
4  23 30 29 24  0 123 255
5  27 24 23 25 26  0 255 175
5  24 27 26 25 23  255 0 52
5  17 19 18 20 16  193 0 255
5  19 17 16 20 18  140 0 255
4  22 17 16 21  193 0 255
4  17 22 21 16  140 0 255
5  15 12 11 13 14  193 0 255
5  12 15 14 13 11  0 255 228
7  10 4 2 3 7 8 9  255 0 158
7  4 10 9 8 7 3 2  0 175 255
4  6 3 2 5  255 0 105
4  3 6 5 2  0 175 255
4  3 1 0 2  255 0 105
4  1 3 2 0  255 0 158

