OFF
665 635 0

18.3946 -18.1187 44.2875
20.96 -16.2 44.2875
11.2029 -20.8304 44.2875
-19.8594 -11.7145 44.2875
-23.3219 -9.99767 44.2875
-22.8 -8.2 44.2875
15.7544 -18.4812 44.2875
11.2962 -20.5194 44.2875
-18.2468 18.8416 44.2875
-27.1867 -7.03021 44.2875
-15.5647 19.1346 44.2875
-11.263 21.0193 44.2875
20.1784 12.6153 44.2875
23.04 8.84 44.2875
25.0917 7.00826 44.2875
26.384 4.13999 44.2875
-26.88 -5.88 44.2875
-25.8457 -7.3878 44.2875
-25.2359 -7.55043 44.2875
-1.98256 -7.40212 94.5078
-1.99932 -7.39759 94.498
11.3569 -11.0056 86.5844
-15.2803 -3.80449 78.3375
-5.32247 -6.49577 78.3375
-1.99836 -7.39417 78.3375
1.66419 -8.38405 78.3375
11.7764 -11.1171 78.3375
11.7759 -11.1188 86.3593
11.3569 -11.0056 86.6633
9.52748 -10.5114 87.7392
-19.462 -1.11078 78.3375
15.52 4.44 78.3375
15.92 3.8 78.3375
15.7114 9.60788 78.3375
15.6802 8.76533 78.3375
16.0571 4.29441 78.3375
-6.54002 -11.3051 78.3375
-6.33586 -10.4987 78.3375
-15.5682 -8.89126 78.3375
-15.5197 -8.03464 78.3375
-15.635 -3.70863 78.3375
-15.7612 -3.6745 78.3375
-15.6192 -3.14981 78.3375
24.9681 6.54467 78.3375
24.9681 6.54467 75.6225
24.8925 6.26081 75.6225
24.8927 6.26161 78.3375
15.7549 10.7827 75.6225
15.7549 10.7827 77.6174
20.8065 3.00693 78.3375
21.5311 5.67675 78.3375
15.7529 10.728 78.3375
-0.778394 11.4533 75.6225
-0.830204 11.2487 78.3375
3.26678 11.3263 75.6225
3.20927 11.1219 78.3375
20.3157 -10.911 75.6225
20.3157 -10.911 78.3375
17.0615 -10.7904 78.3375
23.2039 -0.0744334 78.3375
20.3781 1.42869 78.3375
23.2039 -0.0744334 75.6225
-20.0974 11.8536 78.3375
-20.0432 12.0582 75.6225
-16.7568 11.7487 78.3375
24.489 4.74725 78.3375
24.489 4.74725 75.6225
19.0343 -15.7186 78.3375
15.7702 -14.9026 78.3375
-5.79509 -8.3626 78.3375
-5.79509 -8.3626 75.6225
-12.0528 18.1981 78.3375
-12.5459 16.4365 78.3375
15.6803 8.76735 84.8139
15.6803 8.7672 84.3453
15.5212 4.47231 86.6545
-13.4178 5.03196 92.4284
-13.6652 4.1159 91.788
8.31842 -16.4982 78.3375
8.90664 -15.4349 78.3375
-1.30426 -7.58553 94.9059
1.60266 -1.12314 99.5885
-8.46253 16.7949 78.3375
-8.26588 17.1882 78.3375
15.4311 2.04 88.8922
15.4311 2.04 87.9622
15.92 3.8 87.5136
15.92 3.8 86.728
18.6721 -4.85632 78.3375
16.6176 -12.4255 78.3375
-20.5889 -2.36972 78.3375
-21.3436 -5.15021 78.3375
-12.3158 9.08838 88.3077
-14.6636 4.39289 91.2105
15.9875 10.7207 78.3375
15.1107 10.9545 75.6225
-24.8337 -6.03153 75.6225
-24.7105 -5.56647 75.6225
-24.7111 -5.56861 78.3375
-24.8337 -6.03153 78.3375
7.08999 11.0995 77.0279
7.06253 11.0009 78.3375
6.64395 11.2203 75.6225
5.95734 7.03229 75.6225
7.08988 11.0991 75.6225
7.0901 11.0999 78.3375
6.4587 8.83261 78.3375
5.95734 7.03229 78.3375
3.00662 0.998844 98.7928
14.1769 -2.47509 92.429
16.3056 -10.7624 85.1766
16.3056 -10.7624 84.8758
11.9907 -10.6026 86.6986
-19.8594 -11.7145 75.6225
-19.8594 -11.7145 69.8375
-19.6841 -11.0486 69.8375
-19.6841 -11.0486 75.6225
-18.4669 5.44816 78.3375
-14.8166 4.38604 91.1641
-14.8139 4.4346 91.1267
-15.52 -8.04003 84.7971
-15.52 -8.03956 84.2389
-15.2804 -3.80634 86.5982
-15.2804 -3.80636 86.7028
-15.627 -3.1457 87.6066
-14.9107 -3.52574 87.9219
15.2165 -3.7558 91.0784
15.2113 -3.89607 90.969
15.2794 -3.91497 90.932
12.2616 -9.37013 87.5872
12.2616 -9.37013 88.5392
11.92 -10.6 87.5733
11.92 -10.6 86.7285
13.649 -4.37568 92.4615
13.8845 -3.52794 91.867
-18.8778 16.4589 75.6225
-18.8778 16.4589 78.3375
-15.5696 15.5786 78.3375
-11.8151 10.9336 87.0241
-16.0419 11.1905 85.3898
-16.0332 11.2204 84.993
-11.8118 10.9452 86.8708
11.3568 -11.0057 87.4137
9.52674 -10.5114 88.4967
-11.04 11.64 87.5136
-11.04 11.64 86.6973
-2.71069 -10.0581 92.909
-3.07453 -11.3853 92.11
15.92 3.8 86.646
19.711 1.78353 84.8042
19.711 1.78353 85.1846
25.983 10.3526 44.2875
23.6825 11.2494 44.2875
15.52 4.44 87.4448
15.52 4.44 86.6683
-13.6693 4.10074 91.7774
-13.1034 3.96001 92.08
-2.32699 -0.348027 99.1236
-13.9368 3.11509 92.4631
-13.6652 4.11589 91.7669
0.159999 0.28 99.4715
7.31292 11.9 75.6225
7.31248 11.8984 78.3375
19.1322 8.67494 78.3375
18.9223 7.88421 78.3375
25.1024 7.04848 75.6225
25.0917 7.00826 75.6225
25.102 7.04688 78.3375
-6.33532 -10.4965 75.6225
-6.53927 -11.3021 75.6225
-18.8828 -8.00505 78.3375
-18.6682 -7.18989 78.3375
-10.9077 11.9046 86.5667
-9.10798 15.504 84.3415
-9.10792 15.5042 84.7897
-15.2804 -3.80654 87.4852
-11.04 11.64 78.3375
-9.10881 15.5024 78.3375
-15.1411 -1.34596 89.0027
-15.1414 -1.35058 87.9669
4.21332 10.027 92.3338
13.882 4.88403 88.4156
2.89298 9.99728 93.27
10.5269 10.1689 87.857
19.0343 -15.7186 75.6225
2.77 9.99452 93.3572
2.89001 9.98669 93.4105
15.7549 10.7827 78.3375
11.0643 10.8752 78.3375
-8.26588 17.1882 75.6225
-6.73201 20.256 75.6225
-6.51339 20.6932 75.6225
1.11542 18.9339 75.6225
0.108142 14.9552 75.6225
1.16081 19.1132 75.6225
9.31207 -14.702 84.3179
9.31185 -14.7024 84.8466
-18.3856 18.3175 78.3375
-18.3856 18.3175 75.6225
-18.2468 18.8416 75.6225
-17.9974 19.7833 75.6225
-17.9974 19.7833 78.3375
26.384 4.13999 69.8375
27.0227 3.93531 69.8375
27.0227 3.93531 75.6225
26.384 4.13999 75.6225
12.1926 -17.5314 78.3375
12.765 -15.6234 78.3375
12.1926 -17.5314 75.6225
-15.6372 -10.1101 78.3375
-15.6372 -10.1101 75.6225
8.75243 17.0692 75.6225
8.75243 17.0692 69.8375
8.81655 17.2994 69.8375
8.81655 17.2994 75.6225
-21.4363 17.1397 75.6225
-21.4363 17.1397 69.8375
-20.8058 16.972 69.8375
-20.8058 16.972 75.6225
-26.2363 -3.46599 75.6225
-26.2363 -3.46599 69.8375
-26.8664 -3.27391 69.8375
-26.8664 -3.27391 75.6225
-15.8519 -3.02632 86.6242
-19.4675 -1.10785 84.8884
-19.4678 -1.1077 85.221
21.616 -16.364 69.8375
20.96 -16.2 69.8375
20.96 -16.2 75.6225
21.616 -16.364 75.6225
-7.42079 10.6589 88.824
-7.10299 10.5727 89.8266
3.3336 12.1252 92.1048
2.25212 8.03671 94.5079
1.56074 8.22414 94.9164
8.31842 -16.4982 75.6225
7.05924 -18.7744 75.6225
6.79731 -19.2479 75.6225
6.60841 -19.5894 75.6225
-16.3925 13.091 78.3375
0.108142 14.9552 78.3375
-0.0474612 14.3405 75.6225
-0.0474612 14.3405 78.3375
3.79899 13.2186 75.6225
7.60685 12.9555 75.6225
7.60685 12.9555 78.3375
19.4315 9.80225 75.6225
19.4315 9.80225 78.3375
-2.74722 -10.0568 92.884
-2.74722 -10.0568 92.9244
-15.6262 -3.14608 86.7326
-12.0528 18.1981 75.6225
-6.83194 -12.4581 75.6225
-6.83194 -12.4581 78.3375
18.5351 -17.5917 75.6225
18.3946 -18.1187 75.6225
18.1292 -19.1145 75.6225
18.1292 -19.1145 78.3375
18.5351 -17.5917 78.3375
24.489 4.74725 69.8375
25.0917 7.00826 69.8375
-0.892107 -17.5635 75.6225
-0.892107 -17.5635 69.8375
-7.52608 -15.2 75.6225
-7.66152 -15.735 75.6225
-7.66152 -15.735 69.8375
-8.72403 16.2719 78.3375
-0.150042 13.9353 75.6225
-0.355782 13.1227 75.6225
-0.35558 13.1235 78.3375
-0.150448 13.9337 78.3375
0.338593 -13.1441 78.3375
0.339407 -13.1412 75.6225
0.56067 -12.3467 75.6225
0.560075 -12.3488 78.3375
11.9198 -11.1576 86.2819
11.9198 -11.1576 86.3323
11.7759 -11.1188 86.4169
-24.5243 -7.74018 78.3375
-25.0914 -7.0048 78.3375
25.2512 7.60681 78.3375
24.6291 8.41623 78.3375
-0.612175 -16.5583 75.6225
-0.765961 -17.1105 75.6225
0.0207382 -14.2855 75.6225
-8.72557 16.2689 83.8687
-0.354773 13.1267 89.1792
-0.151984 13.9277 88.617
-17.7391 5.11276 89.6017
-15.5701 -2.9382 86.8571
-17.7046 5.23664 89.5158
-11.6018 11.7195 86.4773
-11.7055 11.8204 86.3628
25.4113 8.20764 78.3375
25.4113 8.20764 75.6225
-2.72839 -9.98983 92.9247
-13.4482 -4.3018 87.7782
-13.4475 -4.30216 88.5661
-2.72839 -9.98983 92.9645
23.8083 2.19317 75.6225
23.8083 2.19317 78.3375
20.0953 3.1997 78.3375
20.7115 5.46977 78.3375
24.3891 6.39846 78.3375
-19.1878 -9.16326 78.3375
-19.1878 -9.16326 75.6225
13.9196 -3.40157 91.7784
18.001 -4.51638 89.5755
16.0573 4.29434 86.3813
17.9622 -4.65933 89.4748
13.8845 -3.52794 91.6896
-5.32233 -6.49519 75.6225
9.32859 17.1175 75.6225
9.32859 17.1175 69.8375
19.0343 -15.7186 69.8375
-20.7874 16.9671 69.8375
-18.8778 16.4589 69.8375
-18.2468 18.8416 69.8375
-21.3317 14.4299 75.6225
-17.9974 19.7833 69.8375
-24.3098 -4.05327 75.6225
-24.3098 -4.05327 69.8375
-25.1056 -3.81065 69.8375
-24.9182 -6.35083 69.8375
-24.9182 -6.35083 75.6225
-25.5975 -6.18781 69.8375
-25.5231 -6.20564 75.6225
-26.88 -5.88 69.8375
11.9335 -10.5515 86.7576
12.9131 -11.426 85.7482
2.33524 8.01418 94.4588
3.48023 12.0853 92.0182
7.09104 11.1033 89.886
16.0571 4.29441 86.351
-11.0904 21.6356 69.8375
-11.0904 21.6356 75.6225
-11.263 21.0193 75.6225
3.70488 12.884 75.6225
-25.2359 -7.55043 78.3375
-25.2359 -7.55043 75.6225
-15.8872 11.7214 78.3375
1.66435 -8.38348 75.6225
21.7051 -5.69784 78.3375
-1.39319 9.0249 75.6225
-1.39319 9.0249 78.3375
-15.5679 12.8675 78.3375
-14.974 14.9994 78.3375
-23.6452 -1.5437 78.3375
-23.6451 -1.54313 75.6225
-21.5659 6.308 75.6225
-21.5659 6.308 78.3375
10.5349 10.1667 87.882
13.3684 10.2422 85.7172
-3.11763 -11.3738 92.1353
-1.99932 -7.39759 94.5177
20.32 -18.6 69.8375
20.32 -18.6 44.2875
18.3946 -18.1187 69.8375
25.7262 1.67326 75.6225
15.7544 -18.4812 75.6225
10.1462 -16.9857 75.6225
10.1462 -16.9857 78.3375
7.31069 11.892 89.3031
7.09104 11.1033 89.9213
3.48024 12.0853 92.0595
3.70227 12.8748 91.439
3.70443 12.8824 78.3375
-10.2491 16.6878 78.3375
19.711 1.78353 78.3375
-19.5435 13.9452 75.6225
-19.5435 13.9452 78.3375
-20.1693 19.2852 69.8375
-20.1693 19.2852 44.2875
-20.0378 -12.3921 44.2875
-20.0378 -12.3921 69.8375
15.9061 -12.2345 83.9881
11.798 -11.0392 86.4647
17.9622 -4.65933 88.5563
27.0004 6.45155 44.2875
27.0004 6.45155 69.8375
21.616 -16.364 44.2875
27.0227 3.93531 44.2875
-15.6385 -3.70951 86.4108
-3.11732 -11.3727 90.7401
9.32859 17.1175 44.2875
9.32859 17.1175 -101.437
-15.5647 19.1346 75.6225
-9.98678 17.6471 75.6225
-9.9892 17.6478 78.3375
2.24 8.04 95.3155
0.159997 0.280002 101.337
20.3352 13.2058 69.8375
20.3352 13.2058 44.2875
20.1784 12.6153 69.8375
-21.4363 17.1397 44.2875
-20.7874 16.9671 44.2875
23.04 8.84 75.6225
-23.3219 -9.99767 69.8375
-22.8 -8.2 69.8375
-3.11761 -11.3737 92.0847
-15.6385 -3.70952 86.4926
-2.67825 -7.21419 94.9169
-3.17223 -11.3592 92.1673
-3.11763 -11.3738 92.1353
-17.7038 5.23644 88.7245
-15.7689 -3.67426 86.4161
28.0686 10.4573 44.2875
28.0686 10.4573 -101.437
27.3321 7.69543 -101.437
27.3321 7.69543 44.2875
-17.7036 5.23638 88.4753
-11.6017 11.7195 86.4177
-11.7055 11.8204 86.3063
20.1784 12.6153 75.6225
19.4315 9.80225 69.8375
-15.5647 19.1346 69.8375
-9.1694 20.6666 75.6225
5.2123 18.2437 75.6225
6.14042 18.0874 69.8375
6.14042 18.0874 75.6225
-22.8 -8.2 75.6225
2.93025 7.85288 94.9064
2.33524 8.01418 94.5568
-26.2363 -3.46599 44.2875
-26.8664 -3.27391 44.2875
-27.5188 -5.72669 44.2875
-20.8253 19.4366 44.2875
9.45691 -19.4671 75.6225
9.31977 -19.9608 75.6225
9.22651 -20.2966 75.6225
10.68 -15.064 78.3375
-11.0904 21.6356 44.2875
-11.263 21.0193 69.8375
12.1926 -17.5314 69.8375
11.44 -20.04 69.8375
11.44 -20.04 75.6225
-9.02236 21.2098 75.6225
-10.4698 15.8723 78.3375
20.96 -16.2 -101.437
21.616 -16.364 -101.437
27.0227 3.93531 -101.437
26.384 4.13999 -101.437
20.9767 -18.7642 -101.437
-25.8457 -7.3878 69.8375
3.47889 12.0805 75.6225
-23.52 -10.68 69.8375
-23.52 -10.68 44.2875
20.3352 13.2058 -101.437
20.1784 12.6153 -101.437
-17.9974 19.7833 44.2875
6.13712 18.0886 75.6225
2.2043 0.796237 99.51
-17.9662 17.9096 78.3375
11.2029 -20.8304 69.8375
11.2962 -20.5194 69.8375
-14.9595 21.6421 44.2875
-14.9595 21.6421 69.8375
-17.3965 22.0526 44.2875
23.6825 11.2494 69.8375
6.13712 18.0886 69.8375
6.13712 18.0886 44.2875
17.9622 -4.65933 88.6223
16.0573 4.29434 86.3509
-4.27792 -15.4993 75.6225
-4.43912 -16.0724 75.6225
15.7544 -18.4812 69.8375
-25.7019 -9.31012 44.2875
15.0598 -21.0857 44.2875
15.0598 -21.0857 69.8375
-3.11397 -11.3608 75.6225
17.9622 -4.65933 78.3375
-1.9982 -7.3936 75.6225
-3.66047 -13.3039 75.6225
-4.57844 -16.5678 75.6225
-25.2359 -7.55043 69.8375
-11.0904 21.6356 -101.437
-14.7778 22.3948 44.2875
-14.7778 22.3948 -101.437
-17.1752 22.8883 -101.437
-17.1752 22.8883 44.2875
23.04 8.84 69.8375
3.99581 13.9185 75.6225
-3.11764 -11.3738 92.1996
0.159999 0.28 101.337
2.33524 8.01418 95.2591
16.0571 4.29441 87.1265
0.159999 0.28 101.337
25.4113 8.20764 69.8375
25.4113 8.20764 44.2875
18.1292 -19.1145 44.2875
18.1292 -19.1145 69.8375
-20.0378 -12.3921 -101.437
-19.8594 -11.7145 -101.437
11.2029 -20.8304 -101.437
11.2962 -20.5194 -101.437
-23.7277 -11.3954 44.2875
-23.7277 -11.3954 -101.437
-23.52 -10.68 -101.437
-25.8875 -10.0109 -101.437
14.9365 -21.5481 -101.437
15.7544 -18.4812 -101.437
14.8642 -21.8194 -101.437
14.8642 -21.8194 44.2875
-26.0855 -10.7586 44.2875
-26.0855 -10.7586 -101.437
-25.2359 -7.55043 -101.437
18.1292 -19.1145 -101.437
17.2375 -22.4604 -101.437
17.2375 -22.4604 44.2875
-26.8664 -3.27391 -101.437
-27.5188 -5.72669 -101.437
-20.8253 19.4366 -101.437
25.4113 8.20764 -101.437
20.7008 -19.8002 -101.437
-27.8206 -6.86118 44.2875
-27.8206 -6.86118 -101.437
13.9068 -3.44736 93.1906
0.159999 0.28 101.337
16.0573 4.29434 87.1263
0.161299 0.279639 101.337
22.2591 -13.9496 75.6225
22.2594 -13.9484 69.8375
-26.2205 -0.84576 69.8375
-26.2208 -0.846986 75.6225
-12.0528 18.1981 69.8375
3.48018 12.0851 91.2987
-12.7578 18.3861 44.2875
3.70239 12.8752 90.7517
15.758 10.7819 44.2875
24.2675 -6.4088 75.6225
-24.1284 7.01899 75.6225
0.0207382 -14.2855 78.3375
26.189 11.1253 44.2875
26.189 11.1253 -101.437
11.9201 -11.1579 87.0804
17.422 -21.7681 44.2875
14.9365 -21.5481 44.2875
14.9365 -21.5481 69.8375
-15.5686 -8.89811 84.345
-25.8875 -10.0109 44.2875
-15.52 -8.04009 84.8742
-15.7696 -3.67424 87.1966
-15.6388 -3.70961 87.2738
-6.54313 -11.3173 89.6798
-6.33826 -10.5081 90.2973
13.8845 -3.52794 93.1273
0.159999 0.28 101.337
-11.6024 11.7201 87.2462
-6.33824 -10.508 90.1923
-11.7055 11.8204 87.1227
2.33524 8.01418 95.3715
17.1856 8.3562 78.3375
16.0574 4.29448 78.3375
-24.9283 -6.38873 78.3375
3.47911 12.0813 78.3375
-3.34301 -12.1751 91.5713
-3.339 -12.1609 78.3375
20.9767 -18.7642 44.2875
-19.867 -2.56482 78.3375
-20.53 -4.94476 78.3375
27.643 6.26414 -101.437
27.643 6.26414 44.2875
-1.99937 -7.39776 95.3173
11.7759 -11.1189 87.1658
15.9064 -12.2333 78.3375
-25.5838 -1.01915 75.6225
-24.9275 -6.38579 75.6225
23.8693 11.9498 44.2875
-10.0915 17.27 78.3375
20.3352 13.2058 75.6225
-1.99937 -7.39776 95.3173
0.159999 0.28 101.338
0.159999 0.28 101.338
7.2276 17.8641 44.2875
0.160006 0.279998 101.338
0.159999 0.28 101.337
21.6071 -13.7734 75.6225
11.798 -11.0392 87.2284
0.159999 0.279999 101.338
0.159999 0.28 101.337
20.32 -18.6 -101.437
10.6789 -15.0681 83.586
0.159999 0.28 101.337
-3.11737 -11.3729 90.9743
-11.5956 11.7136 78.3375
2.33524 8.01418 78.3375
27.0004 6.45155 -101.437
15.4496 4.45908 86.7099
20.0465 -19.6257 44.2875
20.0465 -19.6257 -101.437
-11.263 21.0193 -101.437
15.6803 8.76736 84.835
15.7113 9.60414 84.3304
-14.9595 21.6421 -101.437
0.159999 0.28 101.338
-15.5647 19.1346 -101.437
-17.3965 22.0526 -101.437
-11.5762 11.7854 78.3375
6.14042 18.0874 -101.437
-20.0378 -12.3921 75.6225
-16.8453 -7.679 78.3375
-15.7804 -3.74536 78.3375
6.13712 18.0886 -101.437
23.6825 11.2494 -101.437
11.2029 -20.8304 75.6225
11.2962 -20.5194 75.6225
23.8693 11.9498 -101.437
23.04 8.84 -101.437
-17.9974 19.7833 -101.437
19.6908 -13.2555 75.6225
-27.1867 -7.03021 69.8375
19.6907 -13.256 78.3375
-11.6297 11.5878 78.3375
-19.9011 20.291 44.2875
21.7051 -5.69784 75.6225
-3.11457 -11.3629 78.3375
17.9385 -17.0114 78.3375
15.3048 -14.4498 78.3375
20.7008 -19.8002 44.2875
-23.8817 -5.79114 78.3375
-17.6945 5.23385 78.3375
11.9173 -11.1551 78.3375
19.1526 -22.9777 -101.437
16.0573 4.29434 78.3375
3.48024 12.0853 92.0595
-11.7055 11.8204 78.3375
19.1526 -22.9777 44.2875
2.33524 8.01418 75.6225
5.22169 18.2771 75.6225
-23.3219 -9.99767 75.6225
16.3056 -10.7624 78.3375
7.2276 17.8641 69.8375
27.9783 7.52312 44.2875
-20.5519 20.4645 44.2875
27.9783 7.52312 -101.437
-3.33818 -12.158 75.6225
10.4615 -15.8506 78.3375
-20.5519 20.4645 -101.437
-10.1075 11.3872 87.2453
0.16 0.28 101.338
3.48025 12.0853 92.191
3.29958 11.443 92.5643
-28.6715 -10.0601 44.2875
7.2276 17.8641 -101.437
26.3735 1.4978 75.6225
-19.8083 23.26 44.2875
28.7 10.2329 -101.437
-22.1016 14.6386 75.6225
-11.5834 11.7873 86.3781
-25.5633 -6.21579 75.6225
-18.9804 23.26 44.2875
-18.9804 23.26 -101.437
-25.5694 -6.21732 78.3375
28.7 10.2329 44.2875
26.3735 1.4978 69.8375
19.8073 -23.1545 44.2875
19.8073 -23.1545 -101.437
-22.1016 14.6386 69.8375
0.159999 0.28 101.337
-13.6664 4.11623 93.1379
0.557735 -12.3572 89.0062
13.882 4.88403 87.6362
-28.6715 -10.0601 -101.437
-19.8083 23.26 -101.437
-11.5841 11.7875 87.194
4  663 651 650 645  255 0 0
5  662 504 498 505 515  255 0 0
6  663 637 608 596 478 651  255 0 0
4  662 642 503 504  255 0 0
4  663 645 633 637  255 0 0
4  662 515 514 642  255 0 0
4  656 622 626 655  255 0 0
4  656 513 589 622  255 0 0
4  656 655 618 513  255 0 0
4  651 478 479 650  255 0 0
4  646 634 632 653  255 0 0
6  643 602 598 448 447 385  255 0 0
4  646 407 408 634  255 0 0
4  643 573 460 602  255 0 0
4  646 653 406 407  255 0 0
4  643 385 384 573  255 0 0
4  573 631 459 460  204 0 255
7  573 384 392 391 313 213 631  204 0 255
4  655 626 588 618  255 0 0
4  653 632 409 406  255 0 0
7  650 479 457 449 613 633 645  255 0 0
8  642 514 9 17 18 466 539 503  255 0 0
4  634 560 561 632  255 0 0
4  632 561 378 409  255 0 0
4  633 426 511 637  255 0 0
12  637 511 509 510 515 505 500 506 512 607 595 608  255 0 0
4  634 408 586 560  255 0 0
4  633 613 372 426  255 0 0
5  631 213 212 418 459  204 0 255
7  621 617 68 616 207 430 26  0 102 255
5  40 601 559 558 41  0 102 255
5  40 22 39 600 601  0 102 255
4  621 26 27 275  0 255 102
4  40 382 122 22  0 255 102
5  625 584 612 340 345  0 102 255
7  625 346 137 452 72 437 597  0 102 255
5  35 552 302 301 623  0 102 255
5  35 31 34 551 552  0 102 255
4  625 412 411 584  0 255 102
7  625 597 648 664 549 292 412  0 255 102
4  35 333 154 31  0 255 102
4  514 425 16 9  255 0 0
4  618 557 442 513  255 0 0
4  618 588 356 557  255 0 0
7  35 623 462 308 518 485 333  0 255 102
3  625 345 346  0 102 255
5  585 107 106 101 55  0 255 102
4  623 301 368 32  0 102 255
4  623 32 148 462  0 255 102
5  24 23 69 37 615  203 255 0
4  24 615 274 25  203 255 0
3  621 564 617  0 102 255
6  621 275 276 329 375 564  0 255 102
3  619 99 98  0 102 255
6  619 91 559 601 600 171  0 102 255
8  615 556 555 482 403 399 583 383  203 255 0
4  615 37 36 556  203 255 0
5  619 171 170 553 99  0 102 255
4  616 68 67 258  0 102 255
5  616 258 257 206 207  0 102 255
5  615 383 583 660 274  203 255 0
4  508 626 622 507  255 0 0
5  508 502 536 467 535  255 0 0
5  489 588 626 508 535  255 0 0
4  489 6 465 490  0 102 255
4  489 535 467 6  255 0 0
4  532 567 606 533  255 0 0
5  532 406 409 488 151  255 0 0
4  488 13 152 151  255 0 0
4  488 409 378 14  255 0 0
4  487 480 13 488  0 102 255
4  532 151 152 567  255 0 0
4  479 476 455 457  255 0 0
4  449 10 415 319  0 102 255
4  449 457 455 10  255 0 0
5  430 274 660 195 581  203 255 0
5  430 207 206 361 636  0 102 255
4  26 430 581 27  203 255 0
5  600 39 38 170 171  0 102 255
4  572 575 574 639  0 255 102
3  570 354 401  0 255 102
4  594 579 658 571  0 255 102
4  571 658 575 572  0 255 102
4  594 157 160 579  0 255 102
4  542 175 123 400  0 255 102
9  570 401 297 175 542 125 157 594 571  0 255 102
4  503 495 496 504  255 0 0
4  474 443 325 323  0 102 255
4  474 398 5 18  0 102 255
4  18 5 4 466  255 0 0
4  18 17 443 474  0 102 255
4  503 539 446 495  255 0 0
4  502 2 7 536  255 0 0
4  502 508 507 501  255 0 0
4  465 468 434 433  0 102 255
4  465 6 467 468  0 102 255
3  572 639 578  0 255 102
4  585 55 53 344  0 255 102
4  584 411 141 612  0 255 102
4  582 486 517 575  0 255 102
4  575 517 519 574  0 255 102
4  547 291 292 549  0 255 102
6  579 160 156 159 77 659  0 255 102
3  659 77 76  0 255 102
4  546 483 486 582  0 255 102
7  547 76 77 159 92 138 291  0 255 102
9  582 575 658 579 659 76 547 390 546  0 255 102
3  545 134 133  0 255 102
4  577 376 276 534  0 255 102
4  577 131 132 376  0 255 102
10  545 133 130 131 577 81 578 639 574 519  0 255 102
4  550 484 483 546  0 255 102
5  570 562 80 19 354  0 255 102
5  572 578 562 570 571  0 255 102
4  567 392 447 606  255 0 0
4  480 414 393 458  204 0 255
4  567 152 12 392  255 0 0
4  480 458 152 13  204 0 255
6  564 89 611 67 68 617  0 102 255
6  470 88 58 89 564 630  0 102 255
4  470 630 111 377  0 255 102
4  564 375 111 630  0 255 102
4  563 277 28 142  0 255 102
4  561 381 15 378  255 0 0
4  560 440 381 561  255 0 0
4  557 380 439 442  255 0 0
4  442 439 438 580  255 0 0
6  381 380 226 521 654 203  0 102 255
4  440 439 380 381  255 0 0
4  440 560 586 441  255 0 0
4  554 55 101 105  0 255 102
4  554 366 270 269  0 255 102
3  303 43 46  0 102 255
6  303 50 302 552 551 164  0 102 255
4  554 105 162 366  0 255 102
5  303 164 163 167 43  0 102 255
5  551 34 33 163 164  0 102 255
6  550 389 234 233 422 484  0 255 102
4  550 546 390 389  0 255 102
8  549 664 144 231 234 389 390 547  0 255 102
6  545 516 109 306 310 134  0 255 102
3  545 519 516  0 255 102
4  542 400 405 541  0 255 102
5  40 41 405 400 382  0 255 102
4  41 558 30 42  0 102 255
4  41 42 250 405  0 255 102
4  541 405 250 124  0 255 102
4  542 541 124 125  0 255 102
4  539 466 4 446  255 0 0
4  537 468 467 536  0 102 255
4  537 454 434 468  0 102 255
4  537 536 7 454  0 102 255
4  534 276 277 563  0 255 102
5  533 606 603 607 512  255 0 0
4  533 407 406 532  255 0 0
4  512 408 407 533  255 0 0
5  530 523 522 657 647  0 102 255
6  530 647 318 369 63 349  0 102 255
5  529 644 654 521 520  0 102 255
6  529 520 576 609 56 614  0 102 255
5  530 349 348 565 523  0 102 255
6  529 614 61 299 358 644  0 102 255
6  522 221 424 394 216 657  0 102 255
4  523 222 221 522  0 102 255
4  520 229 228 576  0 102 255
4  521 226 229 520  0 102 255
4  523 565 219 222  0 102 255
4  644 204 203 654  0 102 255
4  647 215 218 318  0 102 255
4  657 216 215 647  0 102 255
4  644 358 205 204  0 102 255
4  465 433 208 359  0 102 255
4  490 465 359 256  0 102 255
4  518 308 87 86  0 255 102
7  517 486 451 108 109 516 519  0 255 102
6  518 86 84 109 108 485  0 255 102
7  577 534 563 142 143 80 81  0 255 102
4  578 81 80 562  0 255 102
5  558 90 117 620 30  0 102 255
6  620 117 64 239 345 340  0 102 255
5  620 410 404 224 30  0 255 102
4  585 344 343 627  0 102 255
4  627 343 52 54  0 102 255
4  627 103 107 585  0 102 255
8  628 194 191 436 335 334 459 450  204 0 255
4  628 450 419 417  204 0 255
5  627 54 102 104 103  0 102 255
4  628 417 192 194  204 0 255
5  364 331 525 527 365  0 255 102
5  624 331 182 186 641  0 255 102
3  484 422 421  0 255 102
4  485 153 154 333  0 255 102
3  624 641 640  0 255 102
4  364 363 332 331  0 255 102
4  495 373 491 496  255 0 0
4  446 3 373 495  255 0 0
4  445 114 3 446  0 102 255
4  513 442 580 589  255 0 0
4  515 510 425 514  255 0 0
8  506 589 580 438 441 586 408 512  255 0 0
5  506 500 499 501 507  255 0 0
4  489 0 356 588  255 0 0
5  426 394 424 509 511  255 0 0
4  510 509 424 425  255 0 0
4  425 424 423 16  255 0 0
4  507 622 589 506  255 0 0
4  504 496 497 498  255 0 0
7  505 498 497 492 494 499 500  255 0 0
4  501 493 2 502  255 0 0
4  501 499 494 493  255 0 0
4  496 491 492 497  255 0 0
4  494 492 491 493  255 0 0
4  493 491 373 2  255 0 0
6  2 373 374 265 262 453  0 102 255
4  490 357 0 489  0 102 255
4  488 14 260 487  0 102 255
5  486 483 484 421 451  0 255 102
6  485 108 451 421 181 153  0 255 102
3  482 402 403  203 255 0
4  481 243 241 193  0 102 255
9  481 417 419 211 413 246 47 95 244  204 0 255
5  481 244 161 337 243  0 102 255
4  481 193 192 417  204 0 255
4  480 487 294 396  0 102 255
4  319 415 386 200  0 102 255
4  478 477 476 479  255 0 0
4  477 475 431 476  255 0 0
4  477 478 596 593  255 0 0
4  476 431 11 455  255 0 0
4  431 460 459 334  204 0 255
4  475 602 460 431  255 0 0
4  475 477 593 590  255 0 0
4  339 420 398 474  0 102 255
4  24 25 341 471  0 102 255
5  473 261 262 265 264  0 102 255
4  473 264 263 464  0 102 255
4  472 284 282 463  0 102 255
4  472 252 169 635  0 102 255
4  471 341 273 469  0 102 255
4  471 311 23 24  0 102 255
4  473 464 283 261  0 102 255
8  472 463 116 629 420 305 210 252  0 102 255
4  472 635 272 284  0 102 255
5  471 469 168 70 311  0 102 255
4  469 635 169 168  0 102 255
4  469 273 272 635  0 102 255
5  444 337 161 104 102  0 102 255
4  444 54 52 268  0 102 255
3  444 102 54  0 102 255
6  301 49 60 88 470 368  0 102 255
5  470 377 461 149 368  0 255 102
4  464 463 282 283  0 102 255
5  464 263 113 116 463  0 102 255
5  461 309 307 150 149  0 255 102
5  461 377 111 110 309  0 255 102
4  462 148 87 308  0 255 102
4  458 393 12 152  204 0 255
4  415 524 251 386  0 102 255
4  456 432 524 415  204 0 255
4  455 11 432 456  204 0 255
4  415 10 455 456  204 0 255
6  453 262 261 238 429 604  0 102 255
4  454 7 2 453  0 102 255
4  452 137 136 197  0 102 255
5  452 197 201 71 72  0 102 255
4  554 269 53 55  0 255 102
8  624 640 232 174 173 286 525 331  0 255 102
4  597 176 145 648  0 255 102
4  437 177 176 597  0 102 255
6  437 72 71 388 568 367  0 102 255
4  664 648 145 144  0 255 102
5  422 330 661 181 421  0 255 102
4  422 186 182 330  0 255 102
5  641 186 185 232 640  0 255 102
4  422 233 185 186  0 255 102
3  638 145 172  0 255 102
5  638 230 231 144 145  0 255 102
6  638 172 174 232 185 230  0 255 102
4  299 66 205 358  0 102 255
6  44 166 260 259 66 45  0 102 255
5  487 260 166 165 294  0 102 255
6  345 239 370 136 137 346  0 102 255
4  620 340 140 410  0 255 102
4  629 116 115 397  0 102 255
4  397 115 114 445  0 102 255
4  420 629 397 398  0 102 255
4  396 246 414 480  0 102 255
4  418 212 211 419  204 0 255
4  459 418 419 450  204 0 255
4  449 8 372 613  255 0 0
4  319 317 8 449  0 102 255
4  610 443 17 9  0 102 255
4  610 327 325 443  0 102 255
4  9 16 327 610  0 102 255
4  608 595 593 596  255 0 0
4  606 447 448 603  255 0 0
7  607 603 448 598 590 593 595  255 0 0
4  602 475 590 598  255 0 0
4  392 384 385 447  255 0 0
4  397 445 446 4  0 102 255
4  444 268 267 337  0 102 255
4  356 1 380 557  255 0 0
4  441 438 439 440  255 0 0
4  436 191 190 416  204 0 255
4  387 251 336 416  204 0 255
4  437 367 266 177  0 102 255
4  436 416 336 335  204 0 255
4  387 416 190 189  204 0 255
4  388 83 82 568  0 102 255
4  387 189 83 388  0 102 255
4  435 427 360 208  0 102 255
4  208 433 434 435  0 102 255
4  432 11 431 334  204 0 255
4  429 238 237 428  0 102 255
4  428 237 236 427  0 102 255
4  428 605 604 429  0 102 255
4  427 236 235 360  0 102 255
4  427 435 605 428  0 102 255
5  430 636 79 271 274  0 102 255
4  372 395 394 426  255 0 0
4  371 315 395 372  0 102 255
4  327 220 322 325  0 102 255
4  16 423 220 327  0 102 255
4  221 220 423 424  0 102 255
6  420 339 338 278 304 305  0 102 255
5  413 211 214 312 569  204 0 255
4  246 413 393 414  204 0 255
4  412 292 291 411  0 255 102
4  411 291 138 141  0 255 102
5  410 140 139 290 404  0 255 102
5  404 290 288 225 224  0 255 102
5  354 20 296 297 401  0 255 102
4  353 399 248 249  203 255 0
5  402 544 548 399 403  203 255 0
4  354 298 295 20  203 255 0
7  399 353 147 196 195 660 583  203 255 0
4  400 123 122 382  0 255 102
7  399 548 120 123 296 295 248  203 255 0
3  20 295 296  203 255 0
4  398 397 4 5  0 102 255
6  396 294 293 281 247 246  0 102 255
4  315 371 317 316  0 102 255
5  315 217 216 394 395  0 102 255
4  393 391 392 12  204 0 255
4  388 71 251 387  0 102 255
5  386 251 71 201 200  0 102 255
4  1 356 355 227  0 102 255
4  378 15 202 379  0 102 255
4  379 202 259 260  0 102 255
4  202 15 381 203  0 102 255
4  227 355 357 314  0 102 255
4  226 380 1 227  0 102 255
4  260 14 378 379  0 102 255
4  276 275 27 277  0 255 102
5  376 132 112 329 276  0 255 102
4  375 329 112 111  0 255 102
4  374 373 3 114  0 102 255
4  317 371 372 8  0 102 255
4  361 78 79 636  0 102 255
4  361 360 235 78  0 102 255
4  350 117 90 347  0 102 255
4  369 318 218 135  0 102 255
4  370 239 64 62  0 102 255
4  350 62 64 117  0 102 255
4  370 62 63 369  0 102 255
4  349 63 62 350  0 102 255
4  149 148 32 368  0 255 102
4  367 568 82 266  0 102 255
4  366 527 287 270  0 255 102
5  366 162 362 365 527  0 255 102
5  167 163 247 281 280  0 102 255
4  365 362 363 364  0 255 102
4  162 188 352 362  0 255 102
4  362 352 351 363  0 255 102
4  363 351 183 332  0 255 102
4  361 206 208 360  0 102 255
5  359 208 206 257 256  0 102 255
4  357 355 356 0  0 102 255
4  277 27 21 28  0 255 102
5  354 19 146 249 298  203 255 0
4  353 249 146 147  203 255 0
4  352 592 591 351  0 255 102
4  188 33 592 352  0 255 102
5  188 162 245 187 51  0 102 255
4  351 591 73 183  0 255 102
5  347 90 91 619 98  0 102 255
4  350 347 348 349  0 102 255
3  293 280 281  0 102 255
4  344 53 52 343  0 102 255
4  268 52 53 269  0 102 255
6  300 49 50 303 46 65  0 102 255
4  342 88 60 59  0 102 255
4  300 59 60 49  0 102 255
4  122 121 39 22  203 255 0
4  25 274 273 341  0 102 255
4  612 141 140 340  0 255 102
3  652 99 553  0 102 255
5  649 326 96 99 652  0 102 255
4  649 566 324 326  0 102 255
4  652 553 566 649  0 102 255
5  553 170 304 278 279  0 102 255
3  338 279 278  0 102 255
5  553 279 338 339 566  0 102 255
3  132 328 112  0 255 102
4  370 369 135 136  0 102 255
4  197 136 135 198  0 102 255
5  250 289 179 178 124  0 255 102
3  250 223 289  0 255 102
5  250 42 30 224 223  0 255 102
4  158 178 179 155  0 255 102
5  159 155 118 119 93  0 255 102
4  290 119 118 288  0 255 102
4  336 432 334 335  204 0 255
4  609 576 228 184  0 102 255
4  611 89 58 57  0 102 255
4  342 57 58 88  0 102 255
4  342 614 56 57  0 102 255
4  611 57 56 609  0 102 255
4  611 609 184 67  0 102 255
4  258 67 184 254  0 102 255
4  251 524 432 336  204 0 255
4  605 454 453 604  0 102 255
4  599 264 265 374  0 102 255
4  113 263 264 599  0 102 255
4  599 374 114 113  0 102 255
3  33 188 51  0 102 255
6  592 33 34 74 73 591  0 255 102
6  183 73 75 587 661 180  0 255 102
5  332 183 180 182 331  0 255 102
4  330 182 180 661  0 255 102
5  328 132 131 130 129  0 255 102
5  310 129 130 133 134  0 255 102
6  309 110 112 328 129 128  0 255 102
4  310 127 128 129  0 255 102
5  587 154 153 181 661  0 255 102
3  587 75 154  0 255 102
4  27 581 195 21  203 255 0
4  435 434 454 605  0 102 255
4  337 267 241 243  0 102 255
4  342 59 61 614  0 102 255
4  299 61 59 300  0 102 255
5  254 184 314 357 255  0 102 255
4  256 255 357 490  0 102 255
4  569 312 313 391  204 0 255
4  413 569 391 393  204 0 255
3  96 326 324  0 102 255
4  348 320 219 565  0 102 255
5  566 339 474 323 324  0 102 255
6  96 324 323 321 320 97  0 102 255
4  325 322 321 323  0 102 255
5  219 320 321 322 220  0 102 255
5  198 135 316 317 199  0 102 255
4  200 199 317 319  0 102 255
5  218 217 315 316 135  0 102 255
4  184 228 227 314  0 102 255
4  559 91 90 558  0 102 255
5  347 98 97 320 348  0 102 255
4  556 36 543 555  203 255 0
5  555 543 544 402 482  203 255 0
4  36 38 538 543  203 255 0
4  543 538 540 544  203 255 0
4  544 540 120 548  203 255 0
4  38 36 253 209  0 102 255
6  540 538 38 39 121 120  203 255 0
4  284 235 236 282  0 102 255
4  531 78 235 284  0 102 255
4  271 79 78 531  0 102 255
4  271 531 284 272  0 102 255
4  527 525 286 287  0 255 102
4  286 173 285 287  0 255 102
4  312 214 213 313  204 0 255
4  23 311 70 69  0 102 255
4  37 69 70 168  0 102 255
4  109 84 85 306  0 255 102
4  310 306 126 127  0 255 102
5  309 128 127 126 307  0 255 102
5  307 126 85 87 150  0 255 102
3  306 85 126  0 255 102
4  170 38 209 304  0 102 255
4  304 209 210 305  0 102 255
4  302 50 49 301  0 102 255
4  300 65 66 299  0 102 255
4  45 66 65 46  0 102 255
4  298 249 248 295  203 255 0
4  296 123 175 297  0 255 102
5  75 74 34 31 154  0 255 102
5  167 280 293 294 165  0 102 255
6  290 139 138 92 93 119  0 255 102
3  159 93 92  0 255 102
6  289 223 225 288 118 179  0 255 102
3  155 179 118  0 255 102
4  270 266 82 242  0 102 255
4  287 285 266 270  0 255 102
4  173 177 266 285  0 255 102
4  283 237 238 261  0 102 255
4  282 236 237 283  0 102 255
4  242 82 83 240  0 102 255
4  274 271 272 273  0 102 255
4  270 267 268 269  0 102 255
4  66 259 202 205  0 102 255
5  258 254 255 256 257  0 102 255
4  252 210 209 253  0 102 255
4  36 169 252 253  0 102 255
5  124 178 158 157 125  0 255 102
5  29 28 196 147 146  203 255 0
4  29 19 80 143  0 255 102
3  29 146 19  203 255 0
5  163 33 51 94 247  0 102 255
5  247 94 48 47 246  0 102 255
6  244 95 48 94 187 245  0 102 255
4  245 162 161 244  0 102 255
4  193 189 190 192  204 0 255
4  240 83 189 193  0 102 255
4  242 240 193 241  0 102 255
4  234 231 230 233  0 255 102
3  233 230 185  0 255 102
4  229 226 227 228  0 102 255
3  225 223 224  0 255 102
4  222 219 220 221  0 102 255
4  218 215 216 217  0 102 255
4  214 211 212 213  204 0 255
4  205 202 203 204  0 102 255
5  201 197 198 199 200  0 102 255
4  28 29 143 142  0 255 102
4  28 21 195 196  203 255 0
4  192 190 191 194  204 0 255
3  94 51 187  0 102 255
4  270 242 241 267  0 102 255
5  145 176 177 173 172  0 255 102
3  174 172 173  0 255 102
4  37 168 169 36  0 102 255
5  167 165 166 44 43  0 102 255
5  105 100 104 161 162  0 102 255
5  160 157 158 155 156  0 255 102
3  159 156 155  0 255 102
4  87 85 84 86  0 255 102
4  150 87 148 149  0 255 102
4  141 138 139 140  0 255 102
4  123 120 121 122  203 255 0
4  116 113 114 115  0 102 255
3  112 110 111  0 255 102
6  107 103 104 100 101 106  0 102 255
3  105 101 100  0 102 255
4  99 96 97 98  0 102 255
3  95 47 48  0 102 255
3  75 73 74  0 255 102
4  46 43 44 45  0 102 255
12  42 30 32 368 470 630 564 621 26 25 24 23  0 102 255
12  30 42 23 24 25 26 621 564 630 470 368 32  0 255 102
4  41 42 22 40  0 102 255
4  42 41 40 22  0 255 102
4  39 22 36 38  0 102 255
4  22 39 38 36  203 255 0
5  37 36 22 23 69  0 102 255
5  36 37 69 23 22  203 255 0
4  274 25 26 430  0 102 255
4  25 274 430 26  203 255 0
5  623 32 30 31 35  0 102 255
5  32 623 35 31 30  0 255 102
5  34 31 30 107 33  0 102 255
5  31 34 33 107 30  0 255 102
7  188 33 107 106 101 105 162  0 102 255
7  33 188 162 105 101 106 107  0 255 102
4  585 107 30 344  0 102 255
4  107 585 344 30  0 255 102
6  53 344 30 176 270 269  0 102 255
6  344 53 269 270 176 30  0 255 102
4  266 270 176 177  0 102 255
4  270 266 177 176  0 255 102
5  597 176 30 612 584  0 102 255
5  176 597 584 612 30  0 255 102
3  625 597 584  0 102 255
3  597 625 584  0 255 102
4  340 612 30 620  0 102 255
4  612 340 620 30  0 255 102
3  22 42 23  0 102 255
3  42 22 23  0 255 102
9  122 22 21 28 29 19 20 296 123  203 255 0
9  22 122 123 296 20 19 29 28 21  0 255 102
3  354 20 19  203 255 0
3  20 354 19  0 255 102
7  27 21 22 23 24 25 26  203 255 0
7  21 27 26 25 24 23 22  0 255 102
8  17 9 15 381 1 0 5 18  255 0 0
8  9 17 18 5 0 1 381 15  0 102 255
5  4 5 7 2 3  255 0 0
5  5 4 3 2 7  0 102 255
3  446 4 3  255 0 0
3  4 446 3  0 102 255
3  373 3 2  255 0 0
3  3 373 2  0 102 255
5  536 7 5 6 467  255 0 0
5  7 536 467 6 5  0 102 255
4  489 6 5 0  255 0 0
4  6 489 0 5  0 102 255
3  356 0 1  255 0 0
3  0 356 1  0 102 255
3  380 1 381  255 0 0
3  1 380 381  0 102 255
4  378 15 9 14  255 0 0
4  15 378 14 9  0 102 255
4  488 14 9 13  255 0 0
4  14 488 13 9  0 102 255
4  152 13 528 12  255 0 0
4  13 152 12 528  204 0 255
8  392 12 528 526 11 460 573 384  255 0 0
8  12 392 384 573 460 11 526 528  204 0 255
3  431 460 11  255 0 0
3  460 431 11  204 0 255
3  455 11 10  255 0 0
3  11 455 10  204 0 255
3  449 10 8  255 0 0
3  10 449 8  0 102 255
6  372 8 9 16 423 395  255 0 0
6  8 372 395 423 16 9  0 102 255
4  394 395 423 424  255 0 0
4  395 394 424 423  0 102 255
3  13 9 528  255 0 0
3  9 13 528  0 102 255
3  9 528 526  0 102 255
3  11 526 10  255 0 0
3  9 526 528  255 0 0
3  9 526 10  0 102 255
3  10 9 8  255 0 0
3  9 10 526  255 0 0
3  9 10 8  0 102 255
3  11 10 526  204 0 255
3  415 10 524  0 102 255
3  10 415 524  204 0 255
3  251 524 387  0 102 255
3  524 251 387  204 0 255
11  189 387 524 10 414 246 47 95 244 481 193  0 102 255
11  387 189 193 481 244 95 47 246 414 10 524  204 0 255
6  480 414 10 526 528 13  0 102 255
6  414 480 13 528 526 10  204 0 255

