OFF
103 113 0

-5.80969 1.84521 -6.10547
-0.0854178 4.34038 -6.10547
-5.80969 1.84521 -1.27739
-2.12108 3.45305 -1.30113
-0.0855063 4.34034 -1.31423
6.38543 -7.2506 2.83148
4.64915 -4.422 2.65302
2.0919 -1.08612 1.53268
4.70746 -5.46053 1.68442
6.19653 -7.95093 1.7708
8.0596 -11.0668 1.87888
8.19293 -10.9862 2.20019
8.44252 -10.8354 2.80169
6.55918 -6.65074 3.76134
6.97347 -5.2204 5.97851
6.95021 -5.17918 5.97956
5.35149 -4.65311 3.66836
2.70146 -0.814246 2.9019
3.30606 -7.4312 5.91
5.44044 -7.81917 2.85772
3.78746 -5.00432 2.71159
11.644 -8.90027 -6.06017
11.4831 -8.59524 -6.10547
5.77048 0.626959 -6.10547
3.39765 -0.478041 -1.17857
2.95274 -0.68523 -0.254764
1.38613 -1.41479 2.99813
3.3454 -7.49355 5.90885
7.63281 -11.3248 2.82418
7.90549 -11.16 2.22021
9.31743 -10.3065 -0.907093
8.91609 -10.5491 -0.0181604
7.8984 -1.7969 1.78546
6.465 0.921493 -1.19987
7.96516 -1.92351 2.03958
7.8984 -1.7969 -1.12569
7.8984 -1.7969 -6.10547
6.45551 0.939493 -6.10547
6.47112 0.909882 1.96441
2.94023 -0.664306 -6.10547
-2.53697 -3.16321 -6.10547
-2.52558 -3.18063 -1.13743
0.892628 -1.62101 -1.16117
2.95078 -0.681937 -1.17546
-7.42833 12.3886 -1.54761
7.71457 -0.511113 -0.326029
8.36972 -1.43208 -1.1327
8.8736 -1.13995 -1.13775
8.33326 -0.127141 -0.316678
3.77494 6.02309 -1.33908
3.77494 6.02309 -6.10547
8.19374 -1.19028 1.15225
8.91619 -10.5491 -6.10547
8.10524 0.300251 -1.17709
-2.5193 -3.19025 1.60559
4.76922 -13.0557 2.90373
2.54335 -9.56222 2.93816
6.03319 -5.7808 6.01466
3.36535 -7.4421 5.98273
8.89061 -1.17185 -6.10547
8.89061 -1.17185 -1.13688
11.644 -8.90027 -6.10547
4.25644 -13.3656 -6.10547
4.25644 -13.3656 -0.853234
11.644 -8.90027 -0.931852
4.12975 -13.3656 -0.853796
2.85207 -11.4103 -0.908247
-0.164892 -6.79332 1.65176
-5.45541 13.2228 -6.10547
7.50801 1.41969 -6.10547
4.12976 -13.3656 -6.10547
8.40009 -1.48086 1.08501
-11.5582 10.6424 -6.10547
8.40302 -1.47901 -1.13138
-5.45549 13.2228 -1.55966
-0.0638624 -2.09003 6.00887
6.27897 -12.1431 5.82278
8.03059 -1.71363 1.78559
6.64434 0.993338 0.991721
8.91602 -10.5492 3.94277
8.0415 0.419728 0.126662
2.96074 -0.698602 3.48432
7.04036 1.17417 0.957759
6.91415 -11.7592 -0.881517
6.645 0.990611 1.65692
-11.5582 10.6424 -1.52237
6.64216 1.00233 -1.2011
8.9161 -10.5491 -0.902822
9.84469 -5.48796 2.13416
2.20861 -10.4256 1.69831
10.5037 -6.73784 -0.990861
-1.00178 -5.51259 -1.07249
7.51758 1.40175 -1.20718
7.52015 1.39693 0.109293
-0.126396 -6.85222 -6.10547
11.644 -8.90027 2.2247
4.80361 -3.7465 -6.10547
6.93838 -5.21713 6.02549
-0.126398 -6.85222 -1.03518
4.12975 -13.3656 1.73599
4.25644 -13.3656 1.91229
9.7094 -10.0696 5.85472
4.12843 -0.177799 6.10723
5  70 62 52 96 94  0 255 255
4  70 65 63 62  0 255 255
5  70 94 98 66 65  0 255 255
4  65 99 100 63  0 255 255
4  65 66 89 99  0 255 255
6  61 22 23 39 96 52  0 255 255
6  64 90 35 36 22 21  0 0 255
3  61 21 22  0 255 255
5  62 63 83 87 52  0 255 255
3  64 21 30  0 0 255
5  61 52 87 30 21  0 255 255
4  64 95 88 90  0 0 255
7  63 100 55 28 29 10 83  0 255 255
6  64 30 31 79 101 95  0 0 255
5  100 99 89 56 55  0 255 255
8  95 101 14 15 102 38 34 88  0 0 255
4  87 83 10 31  0 255 255
3  87 31 30  0 255 255
4  54 67 91 41  0 255 255
5  41 91 98 94 40  0 255 255
4  41 2 3 42  255 0 255
5  43 4 49 33 24  255 0 255
4  43 42 3 4  255 0 255
4  54 75 18 67  0 255 255
6  54 41 42 7 26 75  0 255 255
4  43 25 7 42  0 255 255
4  33 49 50 37  255 0 255
6  38 102 81 25 24 33  0 0 255
3  43 24 25  0 255 255
5  79 31 10 11 12  0 0 255
4  81 17 7 25  0 0 255
4  81 16 6 17  0 0 255
4  79 12 5 13  0 0 255
3  7 17 26  0 255 0
4  76 55 56 27  0 255 255
3  10 29 11  0 255 0
3  76 28 55  0 255 255
4  76 27 19 28  0 255 255
4  75 26 20 18  0 255 255
5  37 50 1 39 23  255 0 255
4  37 36 59 69  255 255 0
4  39 1 0 40  255 0 255
4  37 23 22 36  0 0 255
4  1 68 72 0  255 0 0
4  4 74 68 1  255 0 0
4  50 49 4 1  255 0 255
4  40 94 96 39  0 255 255
4  40 0 2 41  255 0 255
4  81 102 15 16  0 0 255
4  101 79 13 14  0 0 255
5  33 37 69 92 86  255 255 0
5  98 91 67 89 66  0 255 255
5  18 27 56 89 67  0 255 255
3  27 18 58  0 255 0
4  74 4 3 44  255 0 0
4  85 2 0 72  255 0 0
4  85 44 3 2  255 0 0
5  68 74 44 85 72  255 0 0
6  16 57 58 18 20 6  0 255 0
6  92 69 59 60 47 53  255 255 0
5  35 90 88 34 32  0 0 255
4  60 73 46 47  255 255 0
5  35 73 60 59 36  255 255 0
6  27 58 57 13 5 19  0 255 0
4  6 20 26 17  0 255 0
4  29 28 12 11  0 255 0
4  12 28 19 5  0 255 0
3  15 14 97  0 255 0
4  16 15 97 57  0 255 0
4  13 57 97 14  0 255 0
5  38 84 51 77 34  255 255 0
5  38 33 86 78 84  255 255 0
5  93 82 78 86 92  255 255 0
3  93 80 82  255 255 0
5  93 92 53 48 80  255 255 0
3  53 47 48  255 255 0
3  34 77 32  255 255 0
4  51 84 78 45  255 255 0
5  82 80 48 45 78  255 255 0
3  77 51 71  255 255 0
5  32 77 71 73 35  255 255 0
5  73 71 51 45 46  255 255 0
4  48 47 46 45  255 255 0
7  43 24 23 39 40 41 42  255 0 255
4  33 24 23 37  0 0 255
7  43 42 41 40 39 23 24  0 255 255
4  37 23 24 33  255 0 255
4  38 34 32 33  255 255 0
4  34 38 33 32  0 0 255
5  37 33 32 35 36  255 255 0
5  33 37 36 35 32  0 0 255
5  30 21 9 10 31  0 0 255
5  21 30 31 10 9  0 255 255
5  29 10 9 19 28  0 255 0
5  10 29 28 19 9  0 255 255
3  27 19 18  0 255 0
3  19 27 18  0 255 255
5  20 18 19 9 8  0 255 0
5  18 20 8 9 19  0 255 255
4  26 20 8 7  0 255 0
4  20 26 7 8  0 255 255
7  25 7 8 21 22 23 24  0 0 255
7  7 25 24 23 22 21 8  0 255 255
3  21 9 8  0 255 255
3  21 8 9  0 0 255
3  17 7 6  0 255 0
3  7 17 6  0 0 255
6  16 6 5 13 14 15  0 255 0
6  6 16 15 14 13 5  0 0 255
8  12 5 6 7 8 9 10 11  0 255 0
8  5 12 11 10 9 8 7 6  0 0 255
5  4 1 0 2 3  255 0 0
5  1 4 3 2 0  255 0 255

