COFF
974 1781 0

-2.89062 -2.64062 -1.15252
-11.4688 10.5156 -1.51881
-11.5625 10.6406 -1.52234
-6.90625 12.6094 -1.5508
-6.89844 12.6094 -1.55076
-5.34375 13.2656 -1.56024
-2.14062 7.45312 -1.40101
0.101562 4.42188 -1.31544
3.75781 6.01562 -1.33897
7.89844 -1.79688 2.03615
11.5234 -8.67188 2.21882
11.5625 -8.73438 2.21186
11.4531 -9.01562 2.58283
4.42188 -13.2656 2.23215
-2.16406 -3.48438 1.83624
-2.17969 -3.51562 1.78648
7.27344 1.85938 1.29377
8.89062 -1.17188 -1.16365
6.25781 1.32812 -1.16586
0.374695 4.54095 -1.31719
-7.42828 12.3886 -1.54761
8.8736 -1.13995 -1.13775
6.22882 1.38251 -1.21242
-2.29254 -3.37671 -1.1315
8.41541 -1.47119 -1.13152
8.03055 -1.71362 1.78564
7.96518 -1.9234 2.03951
9.84464 -5.48792 2.13422
7.77676 -2.52771 2.77084
9.70938 -10.0696 5.85473
6.59912 1.50665 1.32404
8.0415 0.419739 0.126662
6.2901 1.34503 1.88453
8.41541 -1.47119 1.05595
6.46271 1.4353 1.57145
2.3186 -10.1419 2.10571
0.189575 -6.97992 1.97773
2.86633 -8.72919 4.1344
6.27899 -12.1431 5.8228
-2.29254 -3.37671 1.75395
3.3454 -7.49353 5.90885
3.3175 -0.345032 -1.18224
-0.0910034 -2.047 6.00966
3.30609 -7.43121 5.91001
8.0596 -11.0668 1.8789
4.16705 -0.246216 6.10547
2.10999 -1.11633 1.53372
0.8974 -1.62903 -1.16095
7.22906 -9.67786 1.83071
6.97345 -5.2204 5.97851
6.9502 -5.1792 5.97956
6.09235 -4.89691 4.7394
0.0962524 -6.84131 1.97212
3.36536 -7.44208 5.98274
3.78748 -5.00433 2.71159
4.64917 -4.422 2.65302
8.19785 -1.17706 1.13628
8.33325 -0.127136 -0.316669
5.44043 -7.81915 2.85772
6.72156 -6.09015 4.63026
6.42859 -5.53461 6.0194
6.38544 -7.25061 2.83148
-6.58252 12.7427 -1.55269
-6.55487 10.9181 -1.50704
-6.43195 2.79065 -1.30373
-2.29254 -3.37671 1.58034
2.03387 -1.1485 1.36465
8.41541 -1.47119 -1.17355
8.38144 -1.42529 -1.13282
2.2019 -1.07745 1.34675
7.70816 -0.515076 -0.326113
6.2901 1.34503 1.33792
6.46271 1.4353 1.33017
-6.50073 7.33862 -1.4175
5.49475 0.556274 3.61423
1.80707 -1.24438 0.860631
-0.960388 -2.41455 -1.14959
2.44122 -0.976257 1.32125
-8.99347 11.7269 -1.53804
10.8498 -9.38031 3.71493
8.69434 -5.38074 3.67439
7.54956 -3.25659 3.65287
2.27417 -1.04694 1.19988
4.50122 -0.0442505 2.83655
4.76923 -13.0557 2.90373
2.54333 -9.56219 2.93816
1.4035 -7.77319 2.95579
0.904358 -6.98981 2.96351
3.7616 -5.1347 2.8834
2.85199 -1.09314 2.88266
5.93036 0.81958 2.79685
-1.59229 -3.07147 3.00212
1.42871 -1.40436 2.91909
6.73383 -9.88727 2.83793
7.67105 -9.49097 2.81286
4.78857 -4.4679 2.85461
2.71783 -0.859314 2.88461
7.63281 -11.3248 2.82418
11.38 -9.05981 2.72008
9.38611 -5.44519 2.74817
8.4425 -10.8354 2.80169
2.13965 -2.54114 2.90822
-6.57184 12.7473 -1.55275
-4.57587 11.8723 -1.52207
2.28223 -2.2514 2.9031
3.84674 -4.96423 2.70756
1.67377 -1.30078 2.91254
1.52405 -1.36407 2.72531
-6.45819 4.52649 -1.34716
-10.8208 10.9542 -1.52688
9.91074 -9.94794 5.47695
7.13611 -5.23553 5.76076
7.00305 -5.00964 5.77437
5.73328 -7.64294 2.84959
6.68188 -6.01501 4.8182
-1.3678 -2.97363 -1.13745
0.561401 -1.77112 1.52157
7.07697 -9.74219 2.82875
6.80402 -5.80548 5.07159
6.409 -5.0011 5.19712
4.09003 -0.279114 5.93401
7.76114 -11.2473 2.53998
4.02026 -4.96674 2.87615
4.19012 -0.232239 6.06209
6.86725 -9.83081 2.56654
6.14526 -4.99731 4.94092
9.0838 -10.4478 4.34713
8.15448 -1.11847 1.15228
8.0491 0.405457 0.115087
8.42914 -5.35602 4.02946
8.58032 -7.68835 5.61303
8.39471 -4.82483 3.66876
5.00818 -10.129 5.86008
8.60815 -8.11774 5.90455
6.32098 -6.6344 4.06922
4.58612 -7.6864 4.10195
6.61566 -6.45569 4.06367
7.47559 -7.17303 4.85817
8.1651 -1.2821 1.26337
8.18671 -1.6153 1.48961
8.24051 -2.44562 2.05339
8.30829 -3.49127 2.76335
1.78882 -1.25214 -1.16639
7.33643 -0.0125122 0.119271
3.3595 -0.588013 -1.00733
6.2901 1.34503 -1.16471
-4.40594 3.651 -1.31621
-5.6911 3.3963 -1.31556
0.022583 4.52869 -1.31845
-2.46692 4.03528 -1.31719
4.11798 5.34033 -1.32053
0.616638 4.64642 -1.31875
-6.43884 3.24811 -1.31518
-6.69684 3.19702 -1.31505
-6.38251 4.41498 -1.34404
-4.77747 4.30499 -1.33417
-2.53583 4.15137 -1.32039
-2.04938 4.11804 -1.3174
0.74469 3.92657 -1.30023
5.02856 3.633 -1.27389
-6.4566 4.42004 -1.34449
-7.54285 4.49451 -1.35117
8.19293 -10.9863 2.20019
4.422 -0.0921021 2.77453
0.366455 -6.14563 2.97183
6.00085 0.862183 2.66454
-1.48077 -3.02289 3.2008
1.39008 -1.42072 2.99766
7.90552 -11.16 2.22021
6.98346 -9.78168 2.33023
7.43872 -9.58923 2.29656
2.7243 -0.856567 2.89898
1.72217 -1.28033 2.9731
10.1647 -6.09491 2.15035
9.79886 -5.48364 2.19553
8.27206 -2.93268 2.38407
7.8634 -2.24982 2.43453
4.53705 -13.196 2.45486
2.48163 -9.72137 2.70964
1.28247 -7.69415 2.85828
0.861145 -6.98187 2.91051
3.03247 -0.726318 2.87619
7.4093 -9.97919 1.84117
5.33521 -6.21545 6.00632
6.02509 -7.46741 2.84149
7.24054 -9.67297 2.31122
7.24054 -9.67297 1.85616
2.44672 -0.973938 2.91951
2.44672 -0.973938 2.89186
-0.29303 3.99768 -1.3066
-0.525757 4.41998 -1.31817
4.48187 -4.66699 2.86321
4.42889 -4.57086 2.66799
2.44672 -0.973938 1.32524
2.44672 -0.973938 1.32066
2.44672 -0.973938 2.28207
2.40015 -0.889404 -1.17273
8.02139 -11.0899 1.96355
5.75513 -6.97748 4.0799
7.24054 -9.67297 2.82438
4.65204 -4.97583 3.49001
2.69183 -1.41876 2.88841
-4.65051 11.905 -1.52321
2.44672 -0.973938 -1.09977
-5.38965 13.2462 -1.55996
5.93298 -7.30023 3.26401
2.44672 -0.973938 0.848918
-10.7722 10.8828 -1.52488
-11.5046 10.5635 -1.52016
-8.96216 11.6718 -1.53653
-6.53345 12.7304 -1.55216
-6.58197 12.7092 -1.55185
-5.38202 13.2323 -1.55958
-7.40552 12.3503 -1.54655
-5.33636 13.2522 -1.55987
1.78925 -2.01733 2.95003
7.57016 -9.8327 2.27976
8.3522 -10.89 2.58407
2.15448 -2.51111 2.90769
3.41412 -4.21405 2.76163
1.35797 -1.43433 0.534394
1.35797 -1.43433 -0.137467
5.88354 -7.55255 2.84542
7.40164 -9.60486 2.2993
7.40164 -9.60486 2.2142
3.97034 -4.966 2.82763
3.92828 -4.90918 2.70202
5.03351 -6.40332 6.00271
5.55017 -7.10181 4.08377
7.40164 -9.60486 2.82007
3.98688 -4.9884 2.87709
6.62262 -8.5517 2.83308
-1.56641 2.51917 -1.27537
1.35797 -1.43433 3.00004
1.35797 -1.43433 2.92099
-2.65961 3.99713 -1.31709
-2.78644 4.16858 -1.32193
1.35797 -1.43433 3.06301
1.35797 -1.43433 2.51766
1.35797 -1.43433 1.43668
-6.52936 9.22864 -1.46478
-8.48901 11.878 -1.53958
-8.52405 11.9254 -1.54091
5.82898 -7.47876 3.04817
1.35797 -1.43433 -1.16376
-11.4954 10.5675 -1.52022
-11.5526 10.6448 -1.52241
2.836 -8.80737 4.02217
5.60486 -12.5506 4.51939
2.6958 -8.61774 3.99698
1.58398 -7.11475 3.79733
-1.45203 -3.01031 3.19868
-1.45203 -3.01031 2.99836
-1.45203 -3.01031 1.49753
-1.45203 -3.01031 -1.13691
-1.45203 -3.01031 3.25213
-6.12701 3.30994 -1.31534
-6.97443 4.45557 -1.34768
-6.44629 3.74158 -1.32752
-4.74854 1.44635 -1.26273
-6.07471 3.96155 -1.33136
-6.31128 4.4101 -1.3436
-9.91998 11.2542 -1.53036
-9.95483 11.3204 -1.53217
-2.22174 -3.34583 1.57337
-2.22174 -3.34583 -1.13196
-2.09332 -3.58942 1.84049
-5.76862 3.38098 -1.31552
-6.46069 4.69354 -1.35134
-2.22174 -3.34583 1.88014
-9.91534 8.4314 -1.45992
-10.0668 8.36536 -1.45894
-6.90894 9.74188 -1.47927
-7.67596 9.40753 -1.47433
-4.08118 10.9745 -1.49747
-4.12683 10.9546 -1.49718
-6.07275 10.1064 -1.48465
-6.53955 9.90289 -1.48165
-8.70886 8.95728 -1.46768
-9.29266 8.70282 -1.46393
-6.50665 7.72784 -1.42724
-5.75519 8.18207 -1.43524
-8.76215 6.3645 -1.40324
-8.50256 6.52142 -1.406
-6.66681 7.63104 -1.42554
-3.38757 9.61316 -1.46043
-3.34509 9.63885 -1.46089
-5.14789 8.54913 -1.4417
-8.013 6.81732 -1.41121
-7.68506 7.01556 -1.4147
-4.42407 0.830933 -1.24593
-4.33374 0.885559 -1.24689
-4.94775 0.514404 -1.24036
-1.5835 2.54791 -1.27616
-0.0161743 3.4953 -1.29284
0.702148 3.9295 -1.30049
0.732056 3.94757 -1.30081
2.50854 5.02136 -1.31971
-3.21808 1.55994 -1.25877
-1.58636 2.5462 -1.27613
-4.08789 1.03418 -1.24951
3.85425 5.83478 -1.33403
6.41742 1.11401 -0.965388
6.41742 1.11401 1.14914
6.41742 1.11401 1.88291
5.00732 3.67279 -1.27498
4.09131 5.33502 -1.32051
3.8255 5.81738 -1.33373
7.98981 -1.73932 1.86292
3.7243 6.00104 -1.33876
1.57178 -1.69226 2.97598
-0.904724 -2.77179 2.98368
-0.904724 -2.77179 3.15838
2.87 -1.1264 2.88037
2.87085 -1.12598 2.88239
-0.904724 -2.77179 4.22754
-0.904724 -2.77179 -1.14043
2.59644 -1.24561 2.90052
2.82629 -1.14545 2.88359
7.44617 0.868347 0.620883
7.73499 0.994263 0.592428
6.88959 0.625732 1.59296
1.55438 -1.69983 3.01156
0.0921021 -2.33722 6.00429
1.88184 -1.55713 2.95315
6.297 0.367432 2.62797
6.20245 0.326233 2.79302
4.21765 -0.53894 5.89346
-0.904724 -2.77179 -0.554577
-0.904724 -2.77179 1.44362
5.72974 0.120178 3.61865
4.33948 -0.48584 6.04682
4.30957 -0.49884 6.09902
6.72583 0.554382 1.87899
6.88959 0.625732 0.675717
6.87048 0.617432 1.62634
6.95233 0.506775 1.59612
6.03308 1.74951 -1.22244
4.61914 3.66107 -1.27641
6.3205 1.3609 1.82938
3.47174 5.21222 -1.3202
3.27173 5.48267 -1.32783
3.0921 5.72546 -1.33469
6.95233 0.506775 0.579525
3.60297 -0.175659 -1.1852
1.46606 3.87714 -1.29579
1.2605 4.26697 -1.30643
1.01843 4.72601 -1.31896
0.977478 4.80371 -1.32107
3.73639 -0.42865 2.26202
3.73639 -0.42865 1.18323
3.73639 -0.42865 2.82413
3.73639 -0.42865 5.14807
3.8736 -0.688904 5.12427
7.14874 -6.90033 4.55616
9.03479 -10.4774 4.229
3.73639 -0.42865 -0.96917
3.73639 -0.42865 2.85736
8.14752 -10.9022 2.20599
8.30914 -10.8317 2.5673
7.99966 -10.9666 1.87542
4.42969 -12.5228 2.90899
5.30273 -12.1422 4.46514
7.8266 -11.0421 2.22962
7.67371 -11.1087 2.54257
6.06793 -11.8087 5.82899
4.03693 -12.6939 2.20901
4.19843 -12.6235 2.49684
7.96237 -10.9828 1.95175
8.41415 -10.7859 2.8021
8.80923 -10.6137 3.68544
7.53537 -11.169 2.82567
7.32855 -10.5618 2.55283
7.45441 -10.4857 2.27404
7.86816 -10.2355 2.39572
7.80746 -10.2723 2.24944
7.64371 -10.3712 1.85477
5.12079 -11.8962 4.43247
4.33362 -12.372 2.91047
5.84644 -11.4576 5.83548
4.12445 -12.4984 2.50601
3.96869 -12.5926 2.20491
8.65616 -9.75928 4.29468
8.03906 -10.1323 2.80753
10.9882 -8.34967 2.7256
11.2653 -8.18219 2.20581
7.62991 -10.3796 1.88528
9.49951 -9.24951 5.51901
10.4648 -8.66602 3.70769
9.31097 -9.36346 5.87276
8.72519 -9.71753 4.46109
7.20306 -10.6376 2.83076
-11.0374 9.85406 -1.50039
-10.9892 9.88318 -1.5009
-5.62006 13.1285 -1.55804
-5.508 13.1963 -1.55924
-8.724 11.2524 -1.52501
-8.24182 11.5438 -1.53014
-10.3543 10.267 -1.50766
-9.63019 10.7047 -1.51537
-6.57959 12.5486 -1.54783
-6.3858 12.6657 -1.54989
-7.27399 12.1288 -1.54044
-10.3415 9.00757 -1.47618
-10.4543 8.95984 -1.47549
-7.31299 10.2881 -1.49469
-8.00897 9.99377 -1.49044
-4.38513 11.526 -1.51258
-4.43103 11.5066 -1.5123
-6.40796 10.6707 -1.50022
-6.55023 10.6106 -1.49935
-9.02814 9.56287 -1.48421
-9.68726 9.28418 -1.48018
-6.40082 3.25568 -1.3152
-6.44006 3.33008 -1.31723
-7.03571 4.45978 -1.34805
-9.20422 8.57245 -1.46028
-9.27667 8.70978 -1.46403
-8.2146 6.6955 -1.40906
-4.98792 0.575989 -1.24207
-10.1597 10.3846 -1.50973
-10.4878 11.0067 -1.52671
-10.5258 11.0789 -1.52868
-9.59912 9.32141 -1.48072
-7.18011 4.73364 -1.35553
-6.2998 6.98486 -1.40779
-5.31152 7.58228 -1.4183
-6.49359 6.86774 -1.40572
-8.3562 5.74188 -1.3859
-8.05884 5.92163 -1.38907
-7.86749 6.03729 -1.3911
-3.02875 8.96204 -1.4426
-2.98627 8.98773 -1.44305
-4.76849 7.91046 -1.42408
-7.59528 6.20184 -1.394
-7.33801 6.35736 -1.39674
-0.380493 4.00366 -1.30714
-0.667603 4.39191 -1.3181
3.09784 -0.698669 1.79818
3.09784 -0.698669 1.25128
3.09784 -0.698669 2.87136
3.09784 -0.698669 3.72898
3.09784 -0.698669 -1.03384
-4.17688 9.13611 -1.45203
-5.18182 10.4947 -1.49039
-0.0504761 3.55756 -1.29455
6.23883 -4.94513 4.95119
6.66321 -5.5188 5.11632
2.98303 -0.543518 -1.17877
6.82404 -5.73627 5.1789
3.28149 -0.947021 3.80045
5.8172 -4.37506 4.78713
9.93054 -9.93597 5.43979
9.79889 -9.758 5.48839
-0.00805664 3.50018 -1.29293
8.68054 -8.24603 5.90128
9.4465 -9.28156 5.61849
-6.66351 12.4979 -1.54694
-6.7619 12.6309 -1.55069
-6.78229 12.6584 -1.55147
3.09784 -0.698669 2.87444
-3.73315 8.53625 -1.4351
3.09784 -0.698669 -0.475129
-5.57312 11.0237 -1.50532
-6.57703 12.3809 -1.54364
8.54935 -8.06866 5.85023
3.10339 5.71021 -1.33426
1.56024 5.05768 -1.32483
-0.416565 4.22186 -1.31275
-0.512024 4.18152 -1.31216
-5.2804 2.16534 -1.28302
-5.7265 1.97675 -1.2803
-5.86346 1.91882 -1.27946
-5.15552 2.21814 -1.28379
0.0908203 4.4364 -1.31585
-2.25189 3.44586 -1.30153
-3.89484 2.75122 -1.29149
-2.14392 3.49152 -1.30219
-4.95038 2.30493 -1.28504
3.77032 5.99219 -1.33833
3.73694 5.97809 -1.33813
-0.855652 4.03625 -1.31006
0.262024 -2.60657 5.99931
4.09521 -0.289673 5.93236
1.61859 -1.78662 2.99474
6.58026 1.2124 1.57737
6.58026 1.2124 1.14998
6.80743 1.34973 1.15115
6.47668 1.14978 1.77173
-1.12878 -3.44727 3.31017
-1.20312 -3.49219 3.16639
2.83081 -1.05389 2.88537
-1.29053 -3.54504 2.99745
4.16516 -0.247375 6.10091
4.16516 -0.247375 1.13754
4.16516 -0.247375 -0.925749
3.76752 -0.487732 5.14267
4.16516 -0.247375 6.02792
4.16516 -0.247375 2.84589
1.63019 -1.7796 2.96901
1.91193 -1.60931 2.94938
2.29956 -1.375 2.92238
-1.88239 -3.90277 1.85317
3.1969 -0.832642 3.76754
2.57574 -1.20807 2.90314
7.36539 1.68701 1.15402
4.16516 -0.247375 2.57346
4.16516 -0.247375 2.79242
-1.06891 -2.46045 2.98591
-1.06891 -2.46045 3.17952
6.71326 0.830017 1.68439
6.60022 0.782227 1.88059
6.1601 0.59613 2.64487
-1.67059 -2.71484 -1.14525
-2.39337 -3.02045 -1.14084
-2.53381 -3.07983 -1.13998
-1.06891 -2.46045 4.27821
-1.06891 -2.46045 -1.14893
7.21533 1.0423 0.812491
7.61844 1.21271 0.769537
6.76935 0.85376 1.5869
6.07373 0.559631 2.79483
-1.57178 -2.67303 -1.14586
-1.06891 -2.46045 -0.517039
-1.06891 -2.46045 1.6953
5.60071 0.359619 3.61622
4.19232 -0.235901 6.06187
4.16718 -0.246521 6.10546
6.76935 0.85376 0.860016
8.06494 -1.60339 1.65219
8.10001 -1.66992 1.65396
3.55328 -4.45532 2.74425
3.4585 -4.51257 2.75085
4.46509 -3.90417 2.8593
4.39307 -3.94769 2.68574
2.01508 -5.38507 5.94788
5.85687 -3.06293 5.89161
7.05493 -2.33875 3.64357
7.5181 -2.05878 2.77448
3.39612 -4.55029 2.889
7.68771 -1.9563 2.45623
7.91122 -1.82117 2.03679
5.7818 -3.10828 6.03242
0.469238 -6.3194 2.95908
-0.0455933 -6.63062 1.96359
0.833069 -6.09955 3.66248
4.16235 -4.08716 2.70182
3.58044 -4.4389 2.74235
5.15875 -3.48486 4.53091
0.474976 -6.31598 2.97015
5.54865 -3.24921 5.47051
5.30212 -3.39819 4.87647
4.45343 -4.68549 2.86401
4.38867 -4.59802 2.67072
1.87567 -1.20062 -1.16729
-1.10919 2.83466 -1.28121
4.60498 -4.89044 3.31666
2.09576 -1.49817 2.93657
2.4303 -1.95038 2.89779
4.05762 -4.15045 2.70911
6.36145 -7.26501 2.83215
1.88403 -1.21191 2.96113
1.88403 -1.21191 2.90691
-2.05731 4.11646 -1.3174
-2.05896 4.11871 -1.31746
-5.27795 8.47052 -1.44032
-6.38678 9.96948 -1.48263
1.88403 -1.21191 0.916501
1.88403 -1.21191 -1.15676
6.50531 -7.45947 2.82975
8.34537 -9.94714 3.54575
8.82944 -10.6015 3.73409
1.88403 -1.21191 1.99325
1.88403 -1.21191 1.38062
1.88403 -1.21191 1.03156
2.0766 -1.47223 2.9388
-7.76465 11.8323 -1.53522
-7.9668 12.1056 -1.54294
-7.99799 12.1478 -1.54413
-4.83429 7.87067 -1.42338
-6.78693 10.5105 -1.49791
-1.72583 3.66827 -1.30475
-4.38062 7.25732 -1.40607
-6.54376 10.1818 -1.48862
5.50629 -6.10889 6.00836
6.02692 -6.81274 4.07477
4.66833 -4.97607 3.50583
6.1333 -6.95654 3.67966
2.75287 -6.55438 5.92624
7.09369 -4.71899 5.42265
6.88409 -4.80762 5.78654
3.54657 -6.21875 4.31213
6.76819 -4.85657 5.98779
8.10681 -4.29059 3.66335
4.99866 -5.6048 4.76675
4.57526 -5.78381 4.63419
1.07806 -7.26251 2.96082
1.47498 -7.09467 3.66355
6.41882 -5.00433 5.21137
1.54675 -7.06433 3.79064
6.19818 -5.0976 4.72104
6.31512 -5.04816 4.98086
0.534546 -7.49231 1.99847
0.801147 -7.37958 2.47049
1.03729 -7.27972 2.88867
8.8873 -3.96063 2.30809
8.62772 -4.07037 2.75885
5.10132 -5.5614 4.79888
6.19818 -5.0976 4.92882
6.19818 -5.0976 5.14229
8.35333 -4.1864 3.23529
6.41199 -5.0072 5.19616
9.0116 -3.90802 2.09224
7.26355 -5.45197 5.74772
7.55676 -5.27478 5.19752
5.23621 -6.67737 5.24976
5.5014 -6.51709 5.24379
2.37396 -8.40747 3.73771
1.96509 -8.6546 2.9471
2.48883 -8.33801 3.95982
3.17999 -7.92029 5.29606
6.77533 -5.74707 5.0807
6.59735 -5.85468 4.6518
3.49463 -7.7301 5.90448
7.14465 -5.52386 5.97076
1.8808 -8.70557 2.78412
1.50458 -8.93298 2.05678
5.71344 -6.38892 5.23902
8.37173 -4.78217 3.66833
6.81451 -5.72339 5.1752
8.85815 -4.48816 2.7556
9.11142 -4.33508 2.28042
6.59735 -5.85468 5.21912
6.59735 -5.85468 4.83754
3.77539 -7.56036 5.28265
8.39117 -4.77039 3.63181
9.20645 -4.27759 2.10206
6.83057 -5.71368 5.21387
8.4621 -5.86438 4.37459
7.69684 -6.18793 5.7034
5.58405 -7.08124 4.08313
5.54663 -7.09705 4.09678
1.94336 -8.62061 2.94744
2.20288 -8.51086 3.40693
6.55316 -6.67151 3.72916
6.7663 -6.58136 4.20286
6.94147 -6.50732 4.59211
7.11304 -6.43475 4.97338
7.55353 -6.24854 5.95226
3.61151 -7.91528 5.90105
1.43811 -8.83423 2.05278
1.85309 -8.65875 2.78755
6.07269 -6.87463 3.90464
5.76917 -7.00299 4.0155
9.71072 -5.33643 2.20641
9.44125 -5.45038 2.6743
4.26935 -7.63715 4.56331
9.75488 -5.31775 2.1297
2.40283 -8.42633 3.76097
2.51813 -8.37756 3.96508
3.09766 -8.13257 4.99125
9.39883 -5.46826 2.74799
8.86349 -5.69464 3.67758
6.21637 -6.8139 3.85216
7.2865 -6.36145 5.35884
-0.688782 -3.18134 4.16088
0.845825 -6.0918 3.68716
2.13623 -8.53906 3.28883
2.14105 -8.54828 3.28734
1.39288 -7.12939 3.51828
1.90533 -8.1012 3.36011
-6.45679 7.758 -1.42777
-6.50854 7.8562 -1.43045
-7.39185 9.53137 -1.47616
2.59943 -9.4176 3.14584
3.31067 -10.7665 2.92629
4.19983 -12.4529 2.65182
4.27277 -12.5911 2.62931
-4.30212 3.67157 -1.31626
-4.6308 4.29492 -1.33327
-2.8089 0.8396 -1.23898
-3.1958 1.57336 -1.259
-6.10974 7.09973 -1.40981
-8.60297 11.8283 -1.53884
-8.63043 11.8804 -1.54026
-7.70374 10.1229 -1.4923
-8.40192 11.4471 -1.52844
1.36383 -7.07428 3.52725
0.891663 -6.17877 3.673
4.57849 -13.171 2.53493
-3.83105 2.77814 -1.29188
7.88016 -2.19611 2.36948
7.73776 -1.92603 2.3623
6.04938 1.27606 -1.21056
5.22064 2.8479 -1.25345
6.36273 0.681824 2.29301
6.20312 0.984497 2.28497
6.20312 0.984497 -0.961617
6.48523 0.449524 2.29918
11.4628 -8.99072 2.55001
11.0918 -8.28705 2.53132
8.27258 -2.94031 2.38925
8.2424 -2.88306 2.38773
8.82452 -3.98712 2.41707
9.56784 -5.39685 2.45452
9.03299 -4.38245 2.42757
4.79834 3.64874 -1.27531
3.69611 5.7392 -1.33235
3.60059 5.92041 -1.33729
6.20312 0.984497 1.14803
3.92645 5.30237 -1.32043
3.58911 5.94208 -1.33789
9.60403 -5.46552 2.45635
7.9277 -9.38245 3.38322
8.3609 -9.19928 4.3459
4.37311 -10.8854 4.2982
5.25122 -10.5141 5.85295
3.16357 -11.3968 2.15651
3.41089 -11.2922 2.59445
3.5556 -11.2311 2.85068
3.59583 -11.2141 2.92188
9.24887 -8.82385 5.54465
9.14151 -8.86926 5.73109
10.9872 -8.08881 2.52605
10.8714 -8.13782 2.72724
9.05319 -8.90656 5.88442
8.45181 -9.16083 4.54796
11.1743 -8.0097 2.20123
10.3084 -8.37585 3.70475
8.71625 -9.87323 4.28426
8.42221 -10.051 3.57564
7.39719 -10.6705 2.55079
7.526 -10.5927 2.26549
7.94501 -10.3394 2.42562
7.86865 -10.3856 2.24162
7.70972 -10.4816 1.8586
5.19763 -12.0001 4.44627
4.40277 -12.4805 2.9094
5.9151 -11.5664 5.83347
4.18994 -12.6092 2.49789
4.08258 -12.674 2.2904
8.10309 -10.2439 2.8066
4.25995 -12.5668 2.63326
11.1519 -8.40106 2.53434
11.3253 -8.2962 2.20884
4.04065 -12.6994 2.20924
7.69205 -10.4923 1.89771
9.56479 -9.36035 5.51233
10.5259 -8.77942 3.70884
9.37421 -9.47552 5.8699
8.78214 -9.83344 4.443
11.0504 -8.4624 2.72472
9.52332 -9.38544 5.59013
7.27124 -10.7466 2.82971
2.41589 -6.02032 5.93612
2.065 -5.35486 5.83728
0.245789 -1.90454 -0.273475
0.245789 -1.90454 -1.15696
-5.23761 8.49493 -1.44075
-6.08453 10.1012 -1.48458
5.58008 -12.0213 4.95939
5.79767 -12.434 4.89221
3.1441 -7.40143 5.71133
3.2807 -7.66046 5.66917
4.8703 -10.6752 5.17848
5.41901 -11.7159 5.00909
5.47913 -11.8299 4.99054
-2.8465 3.96008 -1.317
-2.96277 4.18066 -1.32302
-1.97662 2.3103 -1.27198
-3.37836 4.96887 -1.34453
-4.8905 7.83667 -1.42278
-5.09253 8.21985 -1.43324
3.36023 -7.81134 5.64461
3.45087 -7.98322 5.61664
4.35834 -9.70428 5.33651
0.245789 -1.90454 3.08229
0.245789 -1.90454 2.95074
0.245789 -1.90454 1.5552
0.245789 -1.90454 1.12691
0.245789 -1.90454 5.32475
2.70758 -6.57349 5.84608
0.402588 -2.2019 5.36892
0.530396 -2.4444 5.40494
-2.51642 3.33405 -1.29991
-6.20197 10.3239 -1.49065
-7.18274 12.184 -1.54141
-7.29565 12.3982 -1.54726
-7.31573 12.4362 -1.5483
-6.38904 10.6787 -1.50034
-6.55609 10.9955 -1.50898
4.90155 -11.5997 4.39309
5.2746 -11.442 5.05368
3.65503 -12.1268 2.18606
3.85461 -12.0424 2.53945
5.71826 -11.2544 5.83924
3.9599 -11.9979 2.72587
7.85089 -10.3527 2.24389
7.93005 -10.3192 2.4198
7.67667 -10.4263 1.85668
8.09109 -10.2511 2.7777
11.5397 -8.79297 2.28917
11.3916 -8.85565 2.54642
10.72 -9.13959 3.71249
9.69095 -9.57465 5.49943
9.48038 -9.6637 5.86509
7.26349 -10.6011 2.69688
7.19763 -10.6289 2.83084
8.45609 -10.0968 3.58883
8.7652 -9.96613 4.27577
7.47247 -10.5127 2.27188
7.33441 -10.571 2.55266
8.1041 -10.2456 2.80659
7.65967 -10.4335 1.89123
8.83316 -9.93738 4.42678
4.06653 -11.9528 2.9146
11.2908 -8.89819 2.72134
9.66989 -9.58356 5.53601
-2.89062 -2.64062 -6.10547
-4.94775 0.514404 -6.10547
-11.4688 10.5156 -6.10547
-11.5046 10.5635 -6.10547
-11.5625 10.6406 -6.10547
-11.5526 10.6448 -6.10547
-6.90625 12.6094 -6.10547
-6.89844 12.6094 -6.10547
-6.78229 12.6584 -6.10547
-5.34375 13.2656 -6.10547
-5.33636 13.2522 -6.10547
-2.14062 7.45312 -6.10547
0.022583 4.52869 -6.10547
0.101562 4.42188 -6.10547
0.374695 4.54095 -6.10547
3.75781 6.01562 -6.10547
3.77032 5.99219 -6.10547
7.89844 -1.79688 -6.10547
7.91122 -1.82117 -6.10547
11.5234 -8.67188 -6.10547
11.5625 -8.73438 -6.10547
11.5397 -8.79297 -6.10547
11.4531 -9.01562 -6.10547
11.38 -9.05981 -6.10547
4.42188 -13.2656 -6.10547
4.04065 -12.6994 -6.10547
-2.16406 -3.48438 -6.10547
-2.17969 -3.51562 -6.10547
-2.29254 -3.37671 -6.10547
7.27344 1.85938 -6.10547
7.36539 1.68701 -6.10547
8.89062 -1.17188 -6.10547
8.41541 -1.47119 -6.10547
6.25781 1.32812 -6.10547
6.2901 1.34503 -6.10547
0.616638 4.64642 -6.10547
-7.42828 12.3886 -6.10547
-7.31573 12.4362 -6.10547
8.8736 -1.13995 -6.10547
6.22882 1.38251 -6.10547
8.03055 -1.71362 -6.10547
7.98981 -1.73932 -6.10547
7.96518 -1.9234 -6.10547
8.24051 -2.44562 -6.10547
9.84464 -5.48792 -6.10547
10.1647 -6.09491 -6.10547
9.70938 -10.0696 -6.10547
9.0838 -10.4478 -6.10547
6.59912 1.50665 -6.10547
8.0415 0.419739 -6.10547
8.0491 0.405457 -6.10547
2.3186 -10.1419 -6.10547
1.50458 -8.93298 -6.10547
0.189575 -6.97992 -6.10547
0.0962524 -6.84131 -6.10547
6.27899 -12.1431 -6.10547
5.79767 -12.434 -6.10547
8.0596 -11.0668 -6.10547
8.02139 -11.0899 -6.10547
-0.0455933 -6.63062 -6.10547
8.33325 -0.127136 -6.10547
-6.58252 12.7427 -6.10547
-6.57184 12.7473 -6.10547
-6.43195 2.79065 -6.10547
-6.69684 3.19702 -6.10547
-8.99347 11.7269 -6.10547
-8.63043 11.8804 -6.10547
10.8498 -9.38031 -6.10547
9.93054 -9.93597 -6.10547
4.76923 -13.0557 -6.10547
4.57849 -13.171 -6.10547
7.63281 -11.3248 -6.10547
8.4425 -10.8354 -6.10547
8.3522 -10.89 -6.10547
-5.508 13.1963 -6.10547
-4.57587 11.8723 -6.10547
-4.38513 11.526 -6.10547
-10.8208 10.9542 -6.10547
-10.5258 11.0789 -6.10547
9.91074 -9.94794 -6.10547
7.76114 -11.2473 -6.10547
9.03479 -10.4774 -6.10547
8.18671 -1.6153 -6.10547
8.10001 -1.66992 -6.10547
9.0116 -3.90802 -6.10547
0.0908203 4.4364 -6.10547
4.11798 5.34033 -6.10547
5.00732 3.67279 -6.10547
0.977478 4.80371 -6.10547
-7.54285 4.49451 -6.10547
5.02856 3.633 -6.10547
6.03308 1.74951 -6.10547
-8.3562 5.74188 -6.10547
8.19293 -10.9863 -6.10547
7.90552 -11.16 -6.10547
11.1743 -8.0097 -6.10547
4.53705 -13.196 -6.10547
-5.38965 13.2462 -6.10547
-8.52405 11.9254 -6.10547
-7.99799 12.1478 -6.10547
5.60486 -12.5506 -6.10547
-9.95483 11.3204 -6.10547
-2.09332 -3.58942 -6.10547
-10.0668 8.36536 -6.10547
-10.4543 8.95984 -6.10547
-4.08118 10.9745 -6.10547
-3.34509 9.63885 -6.10547
-8.76215 6.3645 -6.10547
-2.98627 8.98773 -6.10547
-4.98792 0.575989 -6.10547
3.85425 5.83478 -6.10547
6.3205 1.3609 -6.10547
3.7243 6.00104 -6.10547
-2.53381 -3.07983 -6.10547
7.73499 0.994263 -6.10547
6.46271 1.4353 -6.10547
3.0921 5.72546 -6.10547
3.58911 5.94208 -6.10547
1.56024 5.05768 -6.10547
8.82944 -10.6015 -6.10547
4.03693 -12.6939 -6.10547
3.96869 -12.5926 -6.10547
8.80923 -10.6137 -6.10547
3.65503 -12.1268 -6.10547
11.2653 -8.18219 -6.10547
11.3253 -8.2962 -6.10547
-11.0374 9.85406 -6.10547
-5.86346 1.91882 -6.10547
-1.88239 -3.90277 -6.10547
7.61844 1.21271 -6.10547
0.534546 -7.49231 -6.10547
9.20645 -4.27759 -6.10547
1.43811 -8.83423 -6.10547
9.75488 -5.31775 -6.10547
11.4628 -8.99072 -6.10547
3.16357 -11.3968 -6.10547
-2.89062 -2.64062 -6.10547
-11.4688 10.5156 -6.10547
-11.5625 10.6406 -6.10547
-5.34375 13.2656 -6.10547
-2.14062 7.45312 -6.10547
0.101562 4.42188 -6.10547
3.75781 6.01562 -6.10547
7.89844 -1.79688 -6.10547
11.4531 -9.01562 -6.10547
4.42188 -13.2656 -6.10547
-2.16406 -3.48438 -6.10547
-2.17969 -3.51562 -6.10547
-2.17969 -3.51562 -6.10547
-2.29254 -3.37671 -6.10547
7.27344 1.85938 -6.10547
8.89062 -1.17188 -6.10547
8.41541 -1.47119 -6.10547
6.25781 1.32812 -6.10547
6.2901 1.34503 -6.10547
6.46271 1.4353 -6.10547
3  307 301 150  0 255 255
3  307 150 306  0 255 255
3  459 62 211  0 255 255
3  459 211 458  0 255 255
3  578 20 213  0 255 255
3  578 213 577  0 255 255
3  33 56 70  192 0 192
3  68 33 70  192 0 192
3  24 33 68  192 0 192
3  529 138 139  0 192 0
3  529 139 530  0 192 0
3  174 27 173  0 192 0
3  140 691 26  0 192 0
3  140 175 702  0 192 0
3  140 702 691  0 192 0
3  320 31 319  64 255 64
3  362 248 84  192 0 0
3  362 84 361  192 0 0
3  668 618 642  192 0 0
3  668 642 667  192 0 0
3  670 86 596  192 0 0
3  670 596 669  192 0 0
3  255 166 251  255 64 64
3  53 40 43  192 0 0
3  67 24 68  192 0 192
3  621 447 629  192 192 0
3  69 46 66  255 128 0
3  493 120 497  255 128 0
3  735 360 368  128 255 255
3  735 368 746  128 255 255
3  490 166 255  192 0 0
3  490 255 489  192 0 0
3  70 56 127  192 0 192
3  143 70 127  192 0 192
3  608 125 51  100 100 100
3  608 51 600  100 100 100
3  725 389 390  192 192 0
3  725 390 726  192 192 0
3  218 101 215  255 255 128
3  564 157 563  0 255 255
3  236 156 149  0 255 255
3  236 149 235  0 255 255
3  65 23 265  255 64 64
3  264 65 265  255 64 64
3  574 75 567  255 128 0
3  77 69 82  255 128 0
3  525 74 90  0 192 0
3  525 90 521  0 192 0
3  155 146 147  0 255 255
3  260 155 147  0 255 255
3  260 261 155  0 255 255
3  506 163 507  255 128 0
3  756 76 757  255 128 0
3  263 78 209  0 255 255
3  263 209 262  0 255 255
3  638 614 129  0 192 0
3  638 639 614  0 192 0
3  639 613 614  0 192 0
3  589 81 593  0 192 0
3  526 123 74  0 192 0
3  526 74 525  0 192 0
3  689 177 367  192 0 0
3  689 367 677  192 0 0
3  642 618 625  192 0 0
3  642 625 651  192 0 0
3  596 86 179  192 0 0
3  596 179 604  192 0 0
3  543 164 549  192 0 0
3  90 74 83  255 128 0
3  39 65 264  255 64 64
3  269 39 264  255 64 64
3  124 93 117  100 100 100
3  460 181 440  255 128 0
3  649 623 634  128 255 255
3  649 634 656  128 255 255
3  803 748 751  0 192 0
3  803 751 816  0 192 0
3  610 81 141  0 192 0
3  141 81 28  0 192 0
3  610 593 81  0 192 0
3  359 217 162  192 192 0
3  359 162 358  192 192 0
3  101 219 532  255 255 128
3  532 219 531  255 255 128
3  218 219 101  255 255 128
3  534 313 314  192 192 0
3  534 314 533  192 192 0
3  106 92 107  255 128 0
3  212 204 5  0 255 255
3  212 5 214  0 255 255
3  550 327 332  192 192 0
3  550 332 542  192 192 0
3  531 219 547  255 255 128
3  106 107 572  255 128 0
3  562 106 572  255 128 0
3  260 147 267  0 255 255
3  257 160 258  0 255 255
3  648 624 613  0 192 0
3  648 613 639  0 192 0
3  111 49 50  0 192 0
3  111 50 112  0 192 0
3  328 115 316  255 64 64
3  171 181 460  255 128 0
3  441 171 460  255 128 0
3  731 364 371  128 255 255
3  731 371 753  128 255 255
3  527 45 123  0 192 0
3  527 123 526  0 192 0
3  123 45 493  255 128 0
3  497 123 493  255 128 0
3  238 116 239  255 128 0
3  169 124 117  100 100 100
3  169 117 185  100 100 100
3  185 117 199  100 100 100
3  533 314 450  192 192 0
3  533 450 548  192 192 0
3  609 125 608  100 100 100
3  370 100 369  192 192 0
3  557 500 324  255 255 128
3  557 324 575  255 255 128
3  804 747 748  0 192 0
3  804 748 803  0 192 0
3  131 80 129  0 192 0
3  773 620 763  192 0 0
3  652 585 134  64 64 255
3  652 134 663  64 64 255
3  646 354 645  192 192 0
3  605 175 140  0 192 0
3  605 140 612  0 192 0
3  221 47 244  255 128 0
3  77 82 206  255 128 0
3  194 77 206  255 128 0
3  663 134 136  64 64 255
3  663 136 644  64 64 255
3  753 371 365  128 255 255
3  753 365 738  128 255 255
3  610 141 606  0 192 0
3  664 465 137  192 192 0
3  664 137 647  192 192 0
3  817 752 747  0 192 0
3  817 747 804  0 192 0
3  680 76 517  0 255 255
3  448 158 41  0 255 255
3  448 454 158  0 255 255
3  454 295 158  0 255 255
3  293 232 299  0 255 255
3  706 159 337  0 255 255
3  706 337 694  0 255 255
3  513 291 300  0 255 255
3  513 300 522  0 255 255
3  152 64 153  0 255 255
3  268 155 261  0 255 255
3  268 425 155  0 255 255
3  268 427 425  0 255 255
3  408 202 103  0 255 255
3  408 103 407  0 255 255
3  410 63 409  0 255 255
3  296 158 295  0 255 255
3  306 150 305  0 255 255
3  160 108 154  0 255 255
3  246 109 207  0 255 255
3  246 207 245  0 255 255
3  186 182 48  192 192 0
3  163 83 498  255 128 0
3  507 163 498  255 128 0
3  492 91 166  192 0 0
3  492 166 490  192 0 0
3  90 83 163  255 128 0
3  165 90 163  255 128 0
3  166 91 252  255 64 64
3  251 166 252  255 64 64
3  732 363 364  128 255 255
3  732 364 731  128 255 255
3  186 48 169  100 100 100
3  186 169 185  100 100 100
3  532 54 88  128 255 255
3  532 88 539  128 255 255
3  172 106 562  255 128 0
3  561 172 562  255 128 0
3  11 801 10  0 192 0
3  10 801 802  0 192 0
3  10 802 743  0 192 0
3  10 743 744  0 192 0
3  702 175 701  0 192 0
3  192 55 95  0 0 192
3  192 95 191  0 0 192
3  74 497 498  255 128 0
3  83 74 498  255 128 0
3  74 123 497  255 128 0
3  193 77 194  255 128 0
3  745 366 740  192 0 0
3  651 625 626  192 0 0
3  651 626 650  192 0 0
3  604 179 603  192 0 0
3  15 39 14  192 0 0
3  14 269 266  192 0 0
3  39 269 14  192 0 0
3  193 46 69  255 128 0
3  77 193 69  255 128 0
3  193 195 46  255 128 0
3  521 90 165  0 192 0
3  521 165 512  0 192 0
3  92 106 172  255 128 0
3  167 92 172  255 128 0
3  171 96 181  255 128 0
3  225 122 230  0 0 192
3  701 175 605  0 192 0
3  701 605 703  0 192 0
3  358 162 44  192 192 0
3  358 44 360  192 192 0
3  224 186 185  100 100 100
3  224 185 223  100 100 100
3  96 171 187  255 128 0
3  188 96 187  255 128 0
3  469 437 190  0 255 255
3  469 190 468  0 255 255
3  553 192 191  0 0 192
3  553 191 552  0 0 192
3  193 194 439  255 128 0
3  438 193 439  255 128 0
3  181 96 195  255 128 0
3  193 438 195  255 128 0
3  438 181 195  255 128 0
3  440 181 438  255 128 0
3  640 641 198  64 64 255
3  641 615 616  64 64 255
3  641 616 198  64 64 255
3  223 185 199  100 100 100
3  223 199 229  100 100 100
3  230 122 200  0 0 192
3  230 200 595  0 0 192
3  200 594 595  0 0 192
3  318 201 317  255 255 128
3  555 294 196  0 255 255
3  555 196 554  0 255 255
3  211 62 102  0 255 255
3  211 102 210  0 255 255
3  552 191 556  0 0 192
3  395 204 212  0 255 255
3  395 212 394  0 255 255
3  546 201 534  255 255 128
3  534 201 313  255 255 128
3  201 318 313  255 255 128
3  195 96 188  255 128 0
3  640 198 653  64 64 255
3  206 203 442  255 128 0
3  462 206 442  255 128 0
3  194 206 462  255 128 0
3  439 194 462  255 128 0
3  243 205 184  64 64 255
3  243 184 222  64 64 255
3  403 393 398  0 255 255
3  403 398 412  0 255 255
3  411 399 396  0 255 255
3  411 396 406  0 255 255
3  408 463 202  0 255 255
3  463 464 401  0 255 255
3  202 463 401  0 255 255
3  464 400 401  0 255 255
3  394 212 202  0 255 255
3  394 202 401  0 255 255
3  457 400 464  0 255 255
3  580 63 410  0 255 255
3  580 576 63  0 255 255
3  576 402 63  0 255 255
3  214 103 202  0 255 255
3  214 202 212  0 255 255
3  369 100 217  192 192 0
3  369 217 359  192 192 0
3  218 104 219  255 255 128
3  221 75 220  255 128 0
3  170 216 224  192 192 0
3  223 170 224  100 100 100
3  225 105 226  0 0 192
3  746 368 363  128 255 255
3  746 363 732  128 255 255
3  656 634 615  64 64 255
3  656 615 641  64 64 255
3  229 94 170  100 100 100
3  229 170 223  100 100 100
3  591 88 230  0 0 192
3  591 230 595  0 0 192
3  47 232 244  0 255 255
3  92 167 233  255 128 0
3  234 92 233  255 128 0
3  768 236 235  0 255 255
3  768 235 767  0 255 255
3  88 225 230  0 0 192
3  88 54 225  0 0 192
3  54 105 225  0 0 192
3  233 167 237  255 128 0
3  572 238 239  255 128 0
3  573 572 239  255 128 0
3  572 107 238  255 128 0
3  222 184 231  255 255 0
3  757 232 47  0 255 255
3  757 769 232  0 255 255
3  769 299 232  0 255 255
3  770 236 768  0 255 255
3  684 242 241  0 255 255
3  684 241 683  0 255 255
3  107 92 234  255 128 0
3  238 107 234  255 128 0
3  58 135 228  64 64 255
3  58 243 113  64 64 255
3  58 228 243  64 64 255
3  222 113 243  64 64 255
3  686 397 405  0 255 255
3  686 405 685  0 255 255
3  499 310 324  255 255 128
3  499 324 500  255 255 128
3  547 219 559  255 255 128
3  559 219 104  255 255 128
3  559 104 558  255 255 128
3  75 239 220  255 128 0
3  75 574 239  255 128 0
3  574 573 239  255 128 0
3  142 221 244  255 128 0
3  142 568 221  255 128 0
3  567 75 221  255 128 0
3  568 567 221  255 128 0
3  245 208 2  0 255 255
3  245 2 246  0 255 255
3  761 248 362  192 0 0
3  761 362 760  192 0 0
3  249 37 247  192 0 0
3  619 250 620  192 0 0
3  250 762 620  192 0 0
3  620 762 763  192 0 0
3  251 252 311  255 64 64
3  312 251 311  255 64 64
3  328 253 254  255 64 64
3  115 328 254  255 64 64
3  328 329 253  255 64 64
3  255 251 312  255 64 64
3  315 255 312  255 64 64
3  514 290 291  0 255 255
3  514 291 513  0 255 255
3  252 253 329  255 64 64
3  311 252 329  255 64 64
3  404 392 393  0 255 255
3  404 393 403  0 255 255
3  414 258 256  0 255 255
3  414 256 413  0 255 255
3  415 257 258  0 255 255
3  415 258 414  0 255 255
3  0 514 515  0 255 255
3  0 290 514  0 255 255
3  0 292 290  0 255 255
3  260 154 261  0 255 255
3  422 263 262  0 255 255
3  422 262 421  0 255 255
3  254 253 264  255 64 64
3  265 254 264  255 64 64
3  266 269 91  192 0 0
3  266 492 502  192 0 0
3  266 91 492  192 0 0
3  470 256 267  0 255 255
3  470 267 473  0 255 255
3  261 154 108  0 255 255
3  261 108 268  0 255 255
3  253 269 264  255 64 64
3  253 91 269  255 64 64
3  252 91 253  255 64 64
3  420 399 411  0 255 255
3  420 411 423  0 255 255
3  256 260 267  0 255 255
3  256 258 260  0 255 255
3  258 160 154  0 255 255
3  258 154 260  0 255 255
3  424 257 415  0 255 255
3  280 73 284  0 255 255
3  190 431 6  0 255 255
3  431 432 6  0 255 255
3  190 6 148  0 255 255
3  579 433 582  0 255 255
3  435 268 108  0 255 255
3  435 108 434  0 255 255
3  160 257 108  0 255 255
3  108 424 434  0 255 255
3  424 430 434  0 255 255
3  108 257 424  0 255 255
3  427 268 435  0 255 255
3  461 431 190  0 255 255
3  461 190 437  0 255 255
3  277 240 272  0 255 255
3  672 240 281  0 255 255
3  672 281 671  0 255 255
3  282 271 270  0 255 255
3  282 270 283  0 255 255
3  673 272 240  0 255 255
3  673 240 672  0 255 255
3  285 275 274  0 255 255
3  285 274 286  0 255 255
3  759 276 287  0 255 255
3  759 287 758  0 255 255
3  416 289 288  0 255 255
3  416 278 289  0 255 255
3  416 417 278  0 255 255
3  416 288 418  0 255 255
3  289 278 273  0 255 255
3  289 273 284  0 255 255
3  444 275 285  0 255 255
3  444 285 443  0 255 255
3  290 259 291  0 255 255
3  471 413 256  0 255 255
3  471 256 470  0 255 255
3  436 189 445  0 255 255
3  665 489 255  192 0 0
3  665 255 315  192 0 0
3  468 190 148  0 255 255
3  468 148 474  0 255 255
3  347 297 346  0 255 255
3  767 235 475  0 255 255
3  767 475 784  0 255 255
3  445 189 295  0 255 255
3  445 295 454  0 255 255
3  475 235 149  0 255 255
3  475 149 477  0 255 255
3  473 267 147  0 255 255
3  473 147 478  0 255 255
3  480 309 8  0 255 255
3  480 8 479  0 255 255
3  478 147 146  0 255 255
3  478 146 476  0 255 255
3  302 303 709  255 128 0
3  697 302 709  255 128 0
3  303 304 696  255 128 0
3  709 303 696  255 128 0
3  706 305 159  0 255 255
3  706 710 306  0 255 255
3  706 306 305  0 255 255
3  707 307 306  0 255 255
3  707 306 710  0 255 255
3  711 309 480  0 255 255
3  711 480 708  0 255 255
3  313 89 314  192 192 0
3  171 491 504  255 255 128
3  171 504 187  255 255 128
3  487 30 16  64 255 64
3  487 16 505  64 255 64
3  499 215 484  128 255 255
3  172 324 310  255 255 128
3  172 310 167  255 255 128
3  540 176 28  0 192 0
3  540 28 538  0 192 0
3  441 503 491  192 192 0
3  441 491 171  192 192 0
3  575 324 172  255 255 128
3  575 172 561  255 255 128
3  536 537 81  0 192 0
3  589 536 81  0 192 0
3  589 590 536  0 192 0
3  493 483 120  192 192 0
3  538 28 81  0 192 0
3  538 81 537  0 192 0
3  318 89 313  255 255 128
3  88 591 539  128 255 255
3  539 591 755  128 255 255
3  591 588 754  128 255 255
3  591 754 755  128 255 255
3  692 541 26  0 192 0
3  692 26 691  0 192 0
3  592 542 536  0 192 0
3  592 536 590  0 192 0
3  303 71 32  128 0 255
3  303 32 304  128 0 255
3  34 72 486  192 0 192
3  485 34 486  192 0 192
3  302 145 71  128 0 255
3  302 71 303  128 0 255
3  336 127 138  0 192 0
3  336 138 529  0 192 0
3  694 337 22  0 255 255
3  694 22 693  0 255 255
3  511 304 488  0 192 0
3  511 488 510  0 192 0
3  143 128 57  64 255 64
3  143 57 70  64 255 64
3  68 21 17  64 255 64
3  68 17 67  64 255 64
3  345 297 338  0 255 255
3  345 346 297  0 255 255
3  338 297 340  0 255 255
3  70 57 21  64 255 64
3  70 21 68  64 255 64
3  340 297 341  0 255 255
3  696 304 511  0 192 0
3  696 511 695  0 192 0
3  467 342 466  0 255 255
3  33 139 138  0 192 0
3  33 138 56  0 192 0
3  321 334 343  192 0 192
3  336 321 343  192 0 192
3  56 138 127  0 192 0
3  344 41 158  0 255 255
3  344 158 345  0 255 255
3  345 158 296  0 255 255
3  345 296 346  0 255 255
3  347 151 348  0 255 255
3  349 350 494  255 128 0
3  506 349 494  255 128 0
3  351 349 506  255 128 0
3  507 351 506  255 128 0
3  114 627 632  64 64 255
3  114 134 627  64 64 255
3  134 585 627  64 64 255
3  607 586 125  0 0 192
3  607 125 609  0 0 192
3  446 51 451  192 192 0
3  726 390 382  192 192 0
3  726 382 714  192 192 0
3  59 136 134  64 64 255
3  59 134 114  64 64 255
3  357 351 507  255 128 0
3  498 357 507  255 128 0
3  95 556 191  0 0 192
3  556 95 586  0 0 192
3  586 95 51  0 0 192
3  586 51 125  0 0 192
3  350 356 495  255 128 0
3  494 350 495  255 128 0
3  296 151 346  0 255 255
3  296 19 151  0 255 255
3  346 151 347  0 255 255
3  120 483 496  192 192 0
3  120 496 352  192 192 0
3  498 352 357  255 128 0
3  497 120 352  255 128 0
3  498 497 352  255 128 0
3  647 137 354  192 192 0
3  647 354 646  192 192 0
3  600 601 447  192 192 0
3  600 447 622  192 192 0
3  622 447 621  192 192 0
3  375 216 374  192 192 0
3  224 216 182  192 192 0
3  224 182 186  192 192 0
3  216 375 182  192 192 0
3  182 375 376  192 192 0
3  675 85 674  192 0 0
3  363 168 121  128 255 255
3  363 121 364  128 255 255
3  792 765 377  192 0 0
3  792 377 791  192 0 0
3  794 380 381  192 0 0
3  794 381 793  192 0 0
3  360 44 197  128 255 255
3  360 197 368  128 255 255
3  713 570 383  192 192 0
3  713 383 94  192 192 0
3  796 676 380  192 0 0
3  796 380 794  192 0 0
3  170 94 216  192 192 0
3  94 383 216  192 192 0
3  216 383 374  192 192 0
3  368 197 168  128 255 255
3  368 168 363  128 255 255
3  364 121 97  128 255 255
3  364 97 371  128 255 255
3  371 97 38  128 255 255
3  371 38 365  128 255 255
3  798 733 734  192 192 0
3  798 734 797  192 192 0
3  797 734 735  192 192 0
3  797 735 799  192 192 0
3  737 378 377  192 0 0
3  737 377 736  192 0 0
3  766 736 377  192 0 0
3  766 377 765  192 0 0
3  366 381 740  192 0 0
3  381 380 740  192 0 0
3  740 380 739  192 0 0
3  741 383 570  192 192 0
3  741 570 730  192 192 0
3  739 380 676  192 0 0
3  739 676 742  192 0 0
3  800 733 798  192 192 0
3  661 99 655  0 192 0
3  386 182 376  128 255 255
3  638 129 80  0 192 0
3  638 80 662  0 192 0
3  662 80 99  0 192 0
3  662 99 661  0 192 0
3  750 390 389  192 192 0
3  750 389 749  192 192 0
3  729 382 390  192 192 0
3  729 390 750  192 192 0
3  93 135 58  128 255 255
3  93 716 132  128 255 255
3  93 132 135  128 255 255
3  722 455 721  0 192 0
3  721 455 130  0 192 0
3  455 133 130  0 192 0
3  1 245 393  0 255 255
3  1 208 245  0 255 255
3  392 1 393  0 255 255
3  394 210 102  0 255 255
3  394 102 395  0 255 255
3  683 241 397  0 255 255
3  683 397 686  0 255 255
3  421 262 399  0 255 255
3  421 399 420  0 255 255
3  393 245 207  0 255 255
3  393 207 398  0 255 255
3  399 262 209  0 255 255
3  399 209 396  0 255 255
3  400 211 210  0 255 255
3  400 210 401  0 255 255
3  401 210 394  0 255 255
3  458 211 400  0 255 255
3  458 400 457  0 255 255
3  577 213 402  0 255 255
3  577 402 576  0 255 255
3  403 270 271  0 255 255
3  403 271 404  0 255 255
3  685 405 272  0 255 255
3  685 272 673  0 255 255
3  407 274 275  0 255 255
3  407 275 408  0 255 255
3  785 276 759  0 255 255
3  423 411 278  0 255 255
3  423 278 417  0 255 255
3  412 279 270  0 255 255
3  412 270 403  0 255 255
3  406 273 278  0 255 255
3  406 278 411  0 255 255
3  463 408 275  0 255 255
3  463 275 444  0 255 255
3  580 410 583  0 255 255
3  413 152 414  0 255 255
3  153 414 152  0 255 255
3  153 161 415  0 255 255
3  153 415 414  0 255 255
3  416 279 417  0 255 255
3  283 416 418  0 255 255
3  283 270 416  0 255 255
3  270 279 416  0 255 255
3  64 471 472  0 255 255
3  64 413 471  0 255 255
3  64 152 413  0 255 255
3  420 398 207  0 255 255
3  420 207 421  0 255 255
3  421 207 109  0 255 255
3  421 109 422  0 255 255
3  423 412 398  0 255 255
3  423 398 420  0 255 255
3  161 424 415  0 255 255
3  161 428 429  0 255 255
3  161 429 424  0 255 255
3  430 424 429  0 255 255
3  417 279 412  0 255 255
3  417 412 423  0 255 255
3  671 281 426  0 255 255
3  671 426 682  0 255 255
3  427 73 425  0 255 255
3  428 282 283  0 255 255
3  428 283 429  0 255 255
3  429 283 418  0 255 255
3  429 418 430  0 255 255
3  431 285 286  0 255 255
3  431 286 432  0 255 255
3  772 433 579  0 255 255
3  772 287 433  0 255 255
3  772 758 287  0 255 255
3  434 288 289  0 255 255
3  434 289 435  0 255 255
3  430 418 288  0 255 255
3  430 288 434  0 255 255
3  435 289 427  0 255 255
3  427 289 73  0 255 255
3  289 284 73  0 255 255
3  443 285 431  0 255 255
3  443 431 461  0 255 255
3  481 157 437  0 255 255
3  481 437 469  0 255 255
3  350 349 438  255 128 0
3  439 350 438  255 128 0
3  349 351 440  255 128 0
3  438 349 440  255 128 0
3  443 287 276  0 255 255
3  443 276 444  0 255 255
3  563 157 481  0 255 255
3  563 481 581  0 255 255
3  611 447 601  192 192 0
3  598 50 447  192 192 0
3  598 447 611  192 192 0
3  50 49 447  192 192 0
3  447 637 629  192 192 0
3  447 49 637  192 192 0
3  548 450 353  192 192 0
3  548 353 551  192 192 0
3  452 110 453  0 192 0
3  448 196 294  0 255 255
3  448 294 454  0 255 255
3  725 455 722  0 192 0
3  787 458 457  0 255 255
3  787 457 786  0 255 255
3  787 3 4  0 255 255
3  787 788 3  0 255 255
3  4 458 787  0 255 255
3  459 458 4  0 255 255
3  351 357 460  255 128 0
3  440 351 460  255 128 0
3  461 433 287  0 255 255
3  461 287 443  0 255 255
3  442 144 462  255 128 0
3  350 439 462  255 128 0
3  144 356 462  255 128 0
3  356 350 462  255 128 0
3  790 464 463  0 255 255
3  790 463 789  0 255 255
3  786 457 464  0 255 255
3  786 464 790  0 255 255
3  465 133 455  192 192 0
3  157 582 437  0 255 255
3  437 582 461  0 255 255
3  157 564 582  0 255 255
3  582 433 461  0 255 255
3  785 444 276  0 255 255
3  785 789 463  0 255 255
3  785 463 444  0 255 255
3  454 294 445  0 255 255
3  352 496 503  192 192 0
3  352 503 441  192 192 0
3  357 352 441  255 128 0
3  460 357 441  255 128 0
3  551 353 327  192 192 0
3  551 327 550  192 192 0
3  637 49 624  192 192 0
3  805 749 752  0 192 0
3  805 752 817  0 192 0
3  347 467 297  0 255 255
3  347 348 467  0 255 255
3  297 467 466  0 255 255
3  297 466 341  0 255 255
3  468 189 436  0 255 255
3  468 436 469  0 255 255
3  292 419 290  0 255 255
3  290 419 259  0 255 255
3  419 471 259  0 255 255
3  471 470 259  0 255 255
3  471 419 472  0 255 255
3  473 259 470  0 255 255
3  7 19 295  0 255 255
3  7 468 474  0 255 255
3  189 468 7  0 255 255
3  295 189 7  0 255 255
3  295 19 296  0 255 255
3  784 475 299  0 255 255
3  784 299 769  0 255 255
3  477 293 299  0 255 255
3  477 299 475  0 255 255
3  259 300 291  0 255 255
3  259 478 300  0 255 255
3  259 473 478  0 255 255
3  479 301 307  0 255 255
3  479 307 480  0 255 255
3  476 298 300  0 255 255
3  476 300 478  0 255 255
3  708 480 307  0 255 255
3  708 307 707  0 255 255
3  469 436 481  0 255 255
3  294 555 445  0 255 255
3  445 555 481  0 255 255
3  555 581 481  0 255 255
3  445 481 436  0 255 255
3  483 493 332  192 192 0
3  493 527 332  192 192 0
3  483 332 327  192 192 0
3  782 322 484  128 255 255
3  782 484 783  128 255 255
3  334 321 520  192 0 192
3  528 334 520  192 0 192
3  304 32 339  0 192 0
3  304 339 488  0 192 0
3  554 196 203  100 100 100
3  554 203 568  100 100 100
3  164 490 489  192 0 0
3  164 489 545  192 0 0
3  164 545 549  192 0 0
3  490 164 492  192 0 0
3  144 41 344  100 100 100
3  144 344 356  100 100 100
3  483 327 353  192 192 0
3  483 353 496  192 192 0
3  218 215 104  255 255 128
3  104 215 500  255 255 128
3  215 499 500  255 255 128
3  442 448 41  100 100 100
3  442 41 144  100 100 100
3  558 104 500  255 255 128
3  558 500 557  255 255 128
3  544 502 164  192 0 0
3  544 164 543  192 0 0
3  502 492 164  192 0 0
3  666 545 489  192 0 0
3  666 489 665  192 0 0
3  18 145 302  100 100 100
3  697 693 18  100 100 100
3  693 22 18  100 100 100
3  697 18 302  100 100 100
3  496 353 450  192 192 0
3  496 450 503  192 192 0
3  318 491 89  255 255 128
3  318 504 491  255 255 128
3  318 317 504  255 255 128
3  519 320 319  64 255 64
3  519 319 518  64 255 64
3  484 322 310  128 255 255
3  484 310 499  128 255 255
3  89 491 503  192 192 0
3  89 503 314  192 192 0
3  503 450 314  192 192 0
3  504 317 501  255 255 128
3  203 196 448  100 100 100
3  203 448 442  100 100 100
3  312 311 508  100 100 100
3  509 312 508  100 100 100
3  510 335 333  0 192 0
3  510 333 511  0 192 0
3  695 511 333  0 192 0
3  695 333 698  0 192 0
3  513 254 265  0 255 255
3  513 265 514  0 255 255
3  514 265 23  0 255 255
3  514 23 515  0 255 255
3  518 487 505  64 255 64
3  518 505 519  64 255 64
3  167 310 322  128 255 255
3  167 322 237  128 255 255
3  315 312 509  100 100 100
3  516 315 509  100 100 100
3  512 325 326  0 192 0
3  512 326 521  0 192 0
3  522 115 254  0 255 255
3  522 254 513  0 255 255
3  329 328 523  100 100 100
3  524 329 523  100 100 100
3  525 330 331  0 192 0
3  525 331 526  0 192 0
3  311 329 524  100 100 100
3  508 311 524  100 100 100
3  521 326 330  0 192 0
3  521 330 525  0 192 0
3  780 237 322  128 255 255
3  780 322 782  128 255 255
3  493 45 527  192 192 0
3  485 486 528  192 0 192
3  520 485 528  192 0 192
3  526 331 332  0 192 0
3  526 332 527  0 192 0
3  328 316 517  100 100 100
3  523 328 517  100 100 100
3  336 335 321  0 192 0
3  25 308 529  0 192 0
3  529 308 336  0 192 0
3  336 308 333  0 192 0
3  336 333 335  0 192 0
3  72 30 487  64 255 64
3  72 487 486  64 255 64
3  128 143 31  64 255 64
3  143 343 319  64 255 64
3  31 143 319  64 255 64
3  343 334 319  64 255 64
3  485 488 339  0 192 0
3  485 339 34  0 192 0
3  530 25 529  0 192 0
3  520 510 488  0 192 0
3  520 488 485  0 192 0
3  321 335 510  0 192 0
3  321 510 520  0 192 0
3  486 487 518  64 255 64
3  486 518 528  64 255 64
3  528 518 319  64 255 64
3  528 319 334  64 255 64
3  143 127 336  192 0 192
3  343 143 336  192 0 192
3  531 105 54  255 255 128
3  531 54 532  255 255 128
3  533 95 55  192 192 0
3  533 55 534  192 192 0
3  536 331 330  0 192 0
3  536 330 537  0 192 0
3  537 330 326  0 192 0
3  537 326 538  0 192 0
3  101 783 215  128 255 255
3  101 539 755  128 255 255
3  101 755 783  128 255 255
3  215 783 484  128 255 255
3  9 541 692  0 192 0
3  9 692 698  0 192 0
3  9 333 308  0 192 0
3  698 333 9  0 192 0
3  542 332 331  0 192 0
3  542 331 536  0 192 0
3  543 180 52  192 0 0
3  543 52 544  192 0 0
3  762 250 599  192 0 0
3  762 599 781  192 0 0
3  539 101 532  128 255 255
3  553 226 547  255 255 128
3  553 547 559  255 255 128
3  533 548 95  192 192 0
3  548 451 95  192 192 0
3  95 451 51  192 192 0
3  549 87 180  192 0 0
3  549 180 543  192 0 0
3  592 50 598  192 192 0
3  534 55 192  255 255 128
3  534 192 546  255 255 128
3  599 250 597  192 0 0
3  551 451 548  192 192 0
3  551 550 451  192 192 0
3  550 119 451  192 192 0
3  451 119 446  192 192 0
3  538 326 325  0 192 0
3  538 325 540  0 192 0
3  547 226 105  255 255 128
3  547 105 531  255 255 128
3  225 226 122  0 0 192
3  122 226 553  0 0 192
3  122 553 552  0 0 192
3  142 244 554  0 255 255
3  244 232 555  0 255 255
3  554 244 555  0 255 255
3  232 293 555  0 255 255
3  556 200 122  0 0 192
3  556 122 552  0 0 192
3  201 501 317  255 255 128
3  201 558 501  255 255 128
3  558 557 501  255 255 128
3  559 546 192  255 255 128
3  559 192 553  255 255 128
3  188 187 561  255 128 0
3  562 188 561  255 128 0
3  563 149 156  0 255 255
3  563 156 564  0 255 255
3  240 565 281  0 255 255
3  240 566 565  0 255 255
3  240 277 566  0 255 255
3  206 567 568  255 128 0
3  203 206 568  255 128 0
3  206 82 567  255 128 0
3  714 382 570  192 192 0
3  714 570 713  192 192 0
3  560 61 569  255 255 0
3  730 570 382  192 192 0
3  730 382 729  192 192 0
3  66 46 572  255 128 0
3  573 66 572  255 128 0
3  558 201 546  255 255 128
3  558 546 559  255 255 128
3  574 66 573  255 128 0
3  575 501 557  255 255 128
3  576 397 241  0 255 255
3  576 241 577  0 255 255
3  577 241 242  0 255 255
3  577 242 578  0 255 255
3  82 574 567  255 128 0
3  82 66 574  255 128 0
3  69 66 82  255 128 0
3  772 579 771  0 255 255
3  580 405 397  0 255 255
3  580 397 576  0 255 255
3  555 293 477  0 255 255
3  555 477 581  0 255 255
3  568 142 554  100 100 100
3  236 770 156  0 255 255
3  156 770 582  0 255 255
3  770 771 582  0 255 255
3  771 579 582  0 255 255
3  566 277 583  0 255 255
3  272 583 277  0 255 255
3  272 405 583  0 255 255
3  405 580 583  0 255 255
3  564 156 582  0 255 255
3  501 187 504  255 255 128
3  501 561 187  255 255 128
3  501 575 561  255 255 128
3  195 562 572  255 128 0
3  46 195 572  255 128 0
3  195 188 562  255 128 0
3  627 585 198  64 64 255
3  627 198 616  64 64 255
3  594 200 586  0 0 192
3  594 586 607  0 0 192
3  586 200 556  0 0 192
3  653 198 585  64 64 255
3  653 585 652  64 64 255
3  560 184 205  64 64 255
3  560 205 587  64 64 255
3  581 477 149  0 255 255
3  581 149 563  0 255 255
3  589 112 590  0 192 0
3  591 43 588  128 255 255
3  590 112 50  0 192 0
3  590 50 592  0 192 0
3  628 131 129  0 192 0
3  628 129 614  0 192 0
3  594 183 227  0 0 192
3  594 227 595  0 0 192
3  669 596 87  192 0 0
3  669 87 687  192 0 0
3  550 542 592  192 192 0
3  550 598 119  192 192 0
3  550 592 598  192 192 0
3  87 549 688  192 0 0
3  87 688 687  192 0 0
3  549 545 688  192 0 0
3  600 51 446  192 192 0
3  600 446 601  192 192 0
3  602 36 603  192 0 0
3  36 52 180  192 0 0
3  36 180 603  192 0 0
3  603 180 604  192 0 0
3  705 631 654  0 192 0
3  705 654 704  0 192 0
3  607 584 183  0 0 192
3  607 183 594  0 0 192
3  633 114 632  100 100 100
3  604 180 87  192 0 0
3  604 87 596  192 0 0
3  635 131 628  0 192 0
3  43 227 53  0 0 192
3  43 591 227  0 0 192
3  591 595 227  0 0 192
3  688 545 666  192 0 0
3  622 59 114  100 100 100
3  622 114 633  100 100 100
3  611 119 598  192 192 0
3  609 60 584  0 0 192
3  609 584 607  0 0 192
3  654 631 636  0 192 0
3  654 636 657  0 192 0
3  99 80 630  0 192 0
3  630 80 635  0 192 0
3  80 131 635  0 192 0
3  601 446 119  192 192 0
3  601 119 611  192 192 0
3  613 111 614  0 192 0
3  615 227 183  64 64 255
3  615 183 616  64 64 255
3  674 85 618  192 0 0
3  674 618 668  192 0 0
3  659 249 658  192 0 0
3  660 37 249  192 0 0
3  660 249 659  192 0 0
3  621 118 59  192 192 0
3  621 59 622  192 192 0
3  625 178 35  192 0 0
3  625 35 626  192 0 0
3  616 183 584  64 64 255
3  616 584 627  64 64 255
3  628 614 593  0 192 0
3  593 614 589  0 192 0
3  614 111 589  0 192 0
3  111 112 589  0 192 0
3  629 449 118  192 192 0
3  629 118 621  192 192 0
3  775 37 660  192 0 0
3  775 660 774  192 0 0
3  703 605 631  0 192 0
3  703 631 705  0 192 0
3  608 632 609  100 100 100
3  608 633 632  100 100 100
3  609 632 60  100 100 100
3  628 593 610  0 192 0
3  628 610 635  0 192 0
3  633 608 600  100 100 100
3  633 600 622  100 100 100
3  631 605 612  0 192 0
3  631 612 636  0 192 0
3  635 610 606  0 192 0
3  635 606 630  0 192 0
3  618 85 178  192 0 0
3  618 178 625  192 0 0
3  623 40 634  128 255 255
3  634 40 53  64 64 255
3  634 53 227  64 64 255
3  634 227 615  64 64 255
3  637 449 629  192 192 0
3  648 133 465  192 192 0
3  648 465 664  192 192 0
3  624 49 111  0 192 0
3  624 111 613  0 192 0
3  627 584 60  64 64 255
3  627 60 632  64 64 255
3  638 130 639  0 192 0
3  640 228 641  64 64 255
3  667 642 86  192 0 0
3  667 86 670  192 0 0
3  644 136 645  192 192 0
3  646 59 118  192 192 0
3  646 118 647  192 192 0
3  602 603 650  192 0 0
3  603 179 650  192 0 0
3  650 179 651  192 0 0
3  652 587 205  64 64 255
3  652 205 653  64 64 255
3  704 654 174  0 192 0
3  704 174 712  0 192 0
3  657 27 174  0 192 0
3  657 174 654  0 192 0
3  643 617 658  192 0 0
3  658 617 619  192 0 0
3  658 619 659  192 0 0
3  659 619 620  192 0 0
3  659 620 660  192 0 0
3  774 660 620  192 0 0
3  774 620 773  192 0 0
3  174 173 712  0 192 0
3  723 173 727  0 192 0
3  712 173 723  0 192 0
3  728 638 662  0 192 0
3  728 721 130  0 192 0
3  728 130 638  0 192 0
3  728 662 661  0 192 0
3  728 661 724  0 192 0
3  651 179 86  192 0 0
3  651 86 642  192 0 0
3  656 135 132  128 255 255
3  656 132 649  128 255 255
3  243 228 205  64 64 255
3  228 653 205  64 64 255
3  228 640 653  64 64 255
3  641 228 135  64 64 255
3  641 135 656  64 64 255
3  639 130 133  0 192 0
3  639 133 648  0 192 0
3  663 587 652  64 64 255
3  645 136 59  192 192 0
3  645 59 646  192 192 0
3  560 587 61  64 64 255
3  587 644 61  64 64 255
3  587 663 644  64 64 255
3  647 118 449  192 192 0
3  647 449 664  192 192 0
3  637 624 664  192 192 0
3  637 664 449  192 192 0
3  624 648 664  192 192 0
3  516 42 323  192 0 0
3  516 323 315  192 0 0
3  508 524 778  255 128 0
3  777 508 778  255 128 0
3  665 482 535  192 0 0
3  665 535 666  192 0 0
3  667 643 668  192 0 0
3  669 597 250  192 0 0
3  669 250 670  192 0 0
3  670 619 617  192 0 0
3  670 250 619  192 0 0
3  671 280 672  0 255 255
3  284 672 280  0 255 255
3  284 273 672  0 255 255
3  273 673 672  0 255 255
3  509 508 777  255 128 0
3  776 509 777  255 128 0
3  524 523 779  255 128 0
3  778 524 779  255 128 0
3  791 377 378  192 0 0
3  791 378 815  192 0 0
3  815 378 676  192 0 0
3  815 676 796  192 0 0
3  742 676 378  192 0 0
3  742 378 737  192 0 0
3  678 146 155  0 255 255
3  678 155 679  0 255 255
3  680 298 681  0 255 255
3  679 155 425  0 255 255
3  679 425 682  0 255 255
3  683 209 78  0 255 255
3  683 78 684  0 255 255
3  685 406 396  0 255 255
3  685 396 686  0 255 255
3  687 597 669  192 0 0
3  776 516 509  255 128 0
3  776 780 516  255 128 0
3  780 42 516  255 128 0
3  688 599 597  192 0 0
3  688 597 687  192 0 0
3  688 666 535  192 0 0
3  688 754 599  192 0 0
3  599 754 781  192 0 0
3  688 535 754  192 0 0
3  668 643 674  192 0 0
3  643 247 674  192 0 0
3  643 249 247  192 0 0
3  643 658 249  192 0 0
3  686 396 209  0 255 255
3  686 209 683  0 255 255
3  677 361 84  192 0 0
3  677 84 689  192 0 0
3  73 682 425  0 255 255
3  73 671 682  0 255 255
3  73 280 671  0 255 255
3  316 115 522  0 255 255
3  316 522 517  0 255 255
3  681 298 476  0 255 255
3  681 476 690  0 255 255
3  673 273 406  0 255 255
3  673 406 685  0 255 255
3  315 323 482  192 0 0
3  315 482 665  192 0 0
3  690 476 146  0 255 255
3  690 146 678  0 255 255
3  76 523 517  255 128 0
3  76 756 523  255 128 0
3  756 779 523  255 128 0
3  522 680 517  0 255 255
3  522 300 680  0 255 255
3  300 298 680  0 255 255
3  670 617 643  192 0 0
3  670 643 667  192 0 0
3  691 176 540  0 192 0
3  691 540 692  0 192 0
3  344 694 693  0 255 255
3  344 345 338  0 255 255
3  344 338 694  0 255 255
3  695 512 165  0 192 0
3  695 165 696  0 192 0
3  356 344 495  100 100 100
3  495 344 693  100 100 100
3  495 693 697  100 100 100
3  698 325 512  0 192 0
3  698 512 695  0 192 0
3  816 751 743  0 192 0
3  816 743 802  0 192 0
3  701 141 702  0 192 0
3  702 141 28  0 192 0
3  702 28 176  0 192 0
3  703 606 141  0 192 0
3  703 141 701  0 192 0
3  655 705 704  0 192 0
3  655 99 705  0 192 0
3  99 630 705  0 192 0
3  705 630 606  0 192 0
3  705 606 703  0 192 0
3  694 338 706  0 255 255
3  702 176 691  0 192 0
3  692 540 325  0 192 0
3  692 325 698  0 192 0
3  707 341 466  0 255 255
3  707 466 708  0 255 255
3  494 495 697  255 128 0
3  709 494 697  255 128 0
3  494 163 506  255 128 0
3  494 696 163  255 128 0
3  709 696 494  255 128 0
3  696 165 163  255 128 0
3  706 338 340  0 255 255
3  706 340 710  0 255 255
3  710 340 341  0 255 255
3  710 341 707  0 255 255
3  708 466 342  0 255 255
3  708 342 711  0 255 255
3  712 655 704  0 192 0
3  724 712 723  0 192 0
3  724 661 712  0 192 0
3  712 661 655  0 192 0
3  644 645 354  192 192 0
3  644 569 61  192 192 0
3  644 354 569  192 192 0
3  569 354 713  192 192 0
3  713 354 714  192 192 0
3  199 231 229  255 255 0
3  247 37 775  192 0 0
3  247 775 715  192 0 0
3  715 775 764  192 0 0
3  717 35 178  192 0 0
3  717 178 718  192 0 0
3  113 231 117  255 255 0
3  117 231 199  255 255 0
3  222 231 113  255 255 0
3  94 569 713  192 192 0
3  178 85 675  192 0 0
3  178 675 718  192 0 0
3  718 675 719  192 0 0
3  94 229 231  255 255 0
3  231 569 94  255 255 0
3  184 569 231  255 255 0
3  184 560 569  255 255 0
3  93 58 113  255 255 0
3  93 113 117  255 255 0
3  169 373 372  128 255 255
3  169 372 124  128 255 255
3  675 674 715  192 0 0
3  675 715 720  192 0 0
3  674 247 715  192 0 0
3  719 675 720  192 0 0
3  386 373 182  128 255 255
3  182 373 169  128 255 255
3  182 169 48  128 255 255
3  806 124 372  128 255 255
3  806 807 93  128 255 255
3  806 93 124  128 255 255
3  795 716 93  128 255 255
3  795 93 807  128 255 255
3  721 387 456  0 192 0
3  721 456 722  0 192 0
3  723 700 384  0 192 0
3  723 384 724  0 192 0
3  137 465 726  192 192 0
3  465 455 726  192 192 0
3  726 455 725  192 192 0
3  722 456 389  0 192 0
3  722 389 725  0 192 0
3  714 354 137  192 192 0
3  714 137 726  192 192 0
3  727 385 700  0 192 0
3  727 700 723  0 192 0
3  728 388 387  0 192 0
3  728 387 721  0 192 0
3  724 384 388  0 192 0
3  724 388 728  0 192 0
3  809 355 571  192 192 0
3  809 571 808  192 192 0
3  811 372 373  128 255 255
3  811 373 810  128 255 255
3  733 359 358  192 192 0
3  733 358 734  192 192 0
3  734 358 360  192 192 0
3  734 360 735  192 192 0
3  736 362 361  192 0 0
3  736 361 737  192 0 0
3  760 362 736  192 0 0
3  760 736 766  192 0 0
3  739 367 740  192 0 0
3  812 808 369  192 192 0
3  808 370 369  192 192 0
3  808 571 370  192 192 0
3  742 677 367  192 0 0
3  742 367 739  192 0 0
3  800 812 369  192 192 0
3  800 359 733  192 192 0
3  800 369 359  192 192 0
3  743 700 385  0 192 0
3  743 385 744  0 192 0
3  745 740 13  192 0 0
3  740 177 13  192 0 0
3  740 367 177  192 0 0
3  813 386 376  128 255 255
3  813 376 799  128 255 255
3  747 387 388  0 192 0
3  747 388 748  0 192 0
3  737 361 677  192 0 0
3  737 677 742  192 0 0
3  805 29 126  192 192 0
3  805 126 814  192 192 0
3  814 126 355  192 192 0
3  814 355 809  192 192 0
3  751 384 700  0 192 0
3  751 700 743  0 192 0
3  748 388 384  0 192 0
3  748 384 751  0 192 0
3  810 373 386  128 255 255
3  810 386 813  128 255 255
3  749 389 456  0 192 0
3  749 456 752  0 192 0
3  806 372 811  128 255 255
3  738 379 391  128 255 255
3  738 391 753  128 255 255
3  752 456 387  0 192 0
3  752 387 747  0 192 0
3  754 535 755  128 255 255
3  47 756 757  255 128 0
3  47 221 756  255 128 0
3  221 220 756  255 128 0
3  758 565 566  0 255 255
3  758 566 759  0 255 255
3  760 365 38  192 0 0
3  760 38 761  192 0 0
3  762 43 40  192 0 0
3  762 40 763  192 0 0
3  795 379 765  192 0 0
3  795 765 792  192 0 0
3  765 379 738  192 0 0
3  765 738 766  192 0 0
3  767 678 679  0 255 255
3  767 679 768  0 255 255
3  680 757 76  0 255 255
3  680 769 757  0 255 255
3  680 681 769  0 255 255
3  679 770 768  0 255 255
3  679 682 426  0 255 255
3  679 426 770  0 255 255
3  426 772 771  0 255 255
3  426 281 772  0 255 255
3  281 565 772  0 255 255
3  770 426 771  0 255 255
3  763 40 623  192 0 0
3  763 623 773  192 0 0
3  774 649 132  192 0 0
3  774 132 775  192 0 0
3  766 738 365  192 0 0
3  766 365 760  192 0 0
3  234 233 776  255 128 0
3  777 234 776  255 128 0
3  779 116 778  255 128 0
3  233 237 780  255 128 0
3  776 233 780  255 128 0
3  754 588 781  192 0 0
3  220 779 756  255 128 0
3  220 116 779  255 128 0
3  239 116 220  255 128 0
3  775 132 716  192 0 0
3  775 716 764  192 0 0
3  772 565 758  0 255 255
3  782 323 42  128 255 255
3  782 42 780  128 255 255
3  755 535 482  128 255 255
3  755 482 783  128 255 255
3  781 588 43  192 0 0
3  781 43 762  192 0 0
3  769 681 690  0 255 255
3  769 690 784  0 255 255
3  783 482 323  128 255 255
3  783 323 782  128 255 255
3  566 785 759  0 255 255
3  566 583 785  0 255 255
3  583 410 785  0 255 255
3  410 409 785  0 255 255
3  784 690 678  0 255 255
3  784 678 767  0 255 255
3  786 402 213  0 255 255
3  786 213 787  0 255 255
3  787 213 20  0 255 255
3  787 20 788  0 255 255
3  789 409 63  0 255 255
3  789 63 790  0 255 255
3  790 63 402  0 255 255
3  790 402 786  0 255 255
3  785 409 789  0 255 255
3  773 623 649  192 0 0
3  773 649 774  192 0 0
3  116 777 778  255 128 0
3  116 238 777  255 128 0
3  238 234 777  255 128 0
3  791 715 764  192 0 0
3  791 764 792  192 0 0
3  793 717 718  192 0 0
3  793 718 794  192 0 0
3  794 718 719  192 0 0
3  794 719 796  192 0 0
3  797 375 374  192 192 0
3  797 374 798  192 192 0
3  799 376 375  192 192 0
3  799 375 797  192 192 0
3  374 383 798  192 192 0
3  383 800 798  192 192 0
3  383 741 800  192 192 0
3  801 699 802  0 192 0
3  79 452 803  0 192 0
3  803 452 453  0 192 0
3  803 453 804  0 192 0
3  806 391 807  128 255 255
3  807 391 379  128 255 255
3  807 379 795  128 255 255
3  808 730 729  192 192 0
3  808 729 809  192 192 0
3  810 732 731  128 255 255
3  810 731 811  128 255 255
3  812 741 730  192 192 0
3  812 730 808  192 192 0
3  800 741 812  192 192 0
3  799 735 746  128 255 255
3  799 746 813  128 255 255
3  814 750 749  192 192 0
3  814 749 805  192 192 0
3  809 729 750  192 192 0
3  809 750 814  192 192 0
3  813 746 732  128 255 255
3  813 732 810  128 255 255
3  731 806 811  128 255 255
3  731 753 806  128 255 255
3  753 391 806  128 255 255
3  815 720 715  192 0 0
3  815 715 791  192 0 0
3  796 719 720  192 0 0
3  796 720 815  192 0 0
3  12 802 699  0 192 0
3  12 98 816  0 192 0
3  12 816 802  0 192 0
3  816 98 79  0 192 0
3  816 79 803  0 192 0
3  792 764 716  192 0 0
3  792 716 795  192 0 0
3  110 29 453  0 192 0
3  453 29 805  0 192 0
3  453 805 817  0 192 0
3  804 453 817  0 192 0
3  0 818 819  0 0 255
3  0 819 292  0 0 255
3  1 820 821  0 0 255
3  1 821 208  0 0 255
3  2 822 823  0 255 0
3  2 823 246  0 255 0
3  3 824 825  100 100 100
3  3 825 4  100 100 100
3  4 825 826  0 255 0
3  4 826 459  0 255 0
3  5 827 828  255 128 128
3  5 828 214  255 128 128
3  6 829 830  255 128 128
3  6 830 148  255 128 128
3  7 831 832  0 192 192
3  7 832 19  0 192 192
3  8 833 834  128 0 255
3  8 834 479  128 0 255
3  9 835 836  128 0 255
3  9 836 541  128 0 255
3  10 837 838  128 0 255
3  10 838 11  128 0 255
3  11 838 839  255 255 64
3  11 839 801  255 255 64
3  12 840 841  128 255 128
3  12 841 98  128 255 128
3  13 842 843  0 0 255
3  13 843 745  0 0 255
3  14 844 845  100 100 100
3  14 845 15  100 100 100
3  15 845 846  100 100 100
3  15 846 39  100 100 100
3  16 847 848  128 128 255
3  16 848 505  128 128 255
3  17 849 850  255 128 255
3  17 850 67  255 128 255
3  18 851 852  255 0 0
3  18 852 145  255 0 0
3  19 832 853  0 192 192
3  19 853 151  0 192 192
3  20 854 855  0 255 0
3  20 855 788  0 255 0
3  21 856 849  128 128 255
3  21 849 17  128 128 255
3  22 857 851  128 0 255
3  22 851 18  128 0 255
3  25 858 859  255 128 255
3  25 859 308  255 128 255
3  26 860 861  128 0 255
3  26 861 140  128 0 255
3  27 862 863  128 0 255
3  27 863 173  128 0 255
3  29 864 865  128 255 128
3  29 865 126  128 255 128
3  30 866 847  255 0 0
3  30 847 16  255 0 0
3  31 867 868  128 128 255
3  31 868 128  128 128 255
3  35 869 870  0 0 255
3  35 870 626  0 0 255
3  36 871 872  0 0 255
3  36 872 52  0 0 255
3  38 873 874  128 255 128
3  38 874 761  128 255 128
3  44 875 876  128 255 128
3  44 876 197  128 255 128
3  52 872 877  0 0 255
3  52 877 544  0 0 255
3  57 878 856  128 128 255
3  57 856 21  128 128 255
3  62 879 880  0 255 0
3  62 880 102  0 255 0
3  64 881 882  0 0 255
3  64 882 153  0 0 255
3  78 883 884  0 255 0
3  78 884 684  0 255 0
3  79 885 886  128 255 128
3  79 886 452  128 255 128
3  84 887 888  128 255 128
3  84 888 689  128 255 128
3  97 889 873  128 255 128
3  97 873 38  128 255 128
3  98 841 885  128 255 128
3  98 885 79  128 255 128
3  100 890 891  128 255 128
3  100 891 217  128 255 128
3  102 880 892  0 255 0
3  102 892 395  0 255 0
3  103 893 894  255 128 128
3  103 894 407  255 128 128
3  109 895 896  0 255 0
3  109 896 422  0 255 0
3  110 897 864  128 255 128
3  110 864 29  128 255 128
3  121 898 889  128 255 128
3  121 889 97  128 255 128
3  126 865 899  128 255 128
3  126 899 355  128 255 128
3  128 868 878  128 128 255
3  128 878 57  128 128 255
3  139 900 901  255 128 255
3  139 901 530  255 128 255
3  140 861 902  128 0 255
3  140 902 612  128 0 255
3  148 830 903  255 128 128
3  148 903 474  255 128 128
3  150 904 905  128 0 255
3  150 905 305  128 0 255
3  151 853 906  0 192 192
3  151 906 348  0 192 192
3  153 882 907  0 0 255
3  153 907 161  0 0 255
3  159 908 909  128 0 255
3  159 909 337  128 0 255
3  161 907 910  0 0 255
3  161 910 428  0 0 255
3  162 911 875  128 255 128
3  162 875 44  128 255 128
3  168 912 898  128 255 128
3  168 898 121  128 255 128
3  173 863 913  128 0 255
3  173 913 727  128 0 255
3  177 914 842  128 255 128
3  177 842 13  128 255 128
3  197 876 912  128 255 128
3  197 912 168  128 255 128
3  204 915 827  0 255 0
3  204 827 5  0 255 0
3  208 821 822  0 0 255
3  208 822 2  0 0 255
3  214 828 893  255 128 128
3  214 893 103  255 128 128
3  217 891 911  128 255 128
3  217 911 162  128 255 128
3  242 916 917  0 255 0
3  242 917 578  0 255 0
3  246 823 895  0 255 0
3  246 895 109  0 255 0
3  248 918 887  128 255 128
3  248 887 84  128 255 128
3  263 919 883  0 255 0
3  263 883 78  0 255 0
3  266 920 844  0 0 255
3  266 844 14  0 0 255
3  271 921 922  0 0 255
3  271 922 404  0 0 255
3  274 923 924  255 128 128
3  274 924 286  255 128 128
3  282 925 921  0 0 255
3  282 921 271  0 0 255
3  286 924 926  255 128 128
3  286 926 432  255 128 128
3  292 819 927  0 0 255
3  292 927 419  0 0 255
3  301 928 904  128 0 255
3  301 904 150  128 0 255
3  305 905 908  128 0 255
3  305 908 159  128 0 255
3  308 859 835  255 128 255
3  308 835 9  255 128 255
3  32 972 929  255 0 0
3  32 929 339  255 0 0
3  309 930 833  0 192 192
3  309 833 8  0 192 192
3  23 967 931  0 0 255
3  23 931 515  0 0 255
3  320 932 867  128 128 255
3  320 867 31  128 128 255
3  337 909 857  128 0 255
3  337 857 22  128 0 255
3  339 929 933  255 0 0
3  339 933 34  255 0 0
3  342 934 935  0 192 192
3  342 935 711  0 192 192
3  33 970 900  255 128 255
3  33 900 139  255 128 255
3  348 906 936  0 192 192
3  348 936 467  0 192 192
3  355 899 937  128 255 128
3  355 937 571  128 255 128
3  366 938 939  0 0 255
3  366 939 381  0 0 255
3  370 940 890  128 255 128
3  370 890 100  128 255 128
3  381 939 941  0 0 255
3  381 941 793  0 0 255
3  385 942 943  128 0 255
3  385 943 744  128 0 255
3  392 944 820  0 0 255
3  392 820 1  0 0 255
3  395 892 915  0 255 0
3  395 915 204  0 255 0
3  404 922 944  0 0 255
3  404 944 392  0 0 255
3  407 894 923  255 128 128
3  407 923 274  255 128 128
3  419 927 945  0 0 255
3  419 945 472  0 0 255
3  422 896 919  0 255 0
3  422 919 263  0 255 0
3  428 910 925  0 0 255
3  428 925 282  0 0 255
3  432 926 829  255 128 128
3  432 829 6  255 128 128
3  452 886 897  128 255 128
3  452 897 110  128 255 128
3  459 826 879  0 255 0
3  459 879 62  0 255 0
3  467 936 934  0 192 192
3  467 934 342  0 192 192
3  472 945 881  0 0 255
3  472 881 64  0 0 255
3  474 903 831  255 128 128
3  474 831 7  255 128 128
3  479 834 928  128 0 255
3  479 928 301  128 0 255
3  502 946 920  0 0 255
3  502 920 266  0 0 255
3  505 848 947  128 128 255
3  505 947 519  128 128 255
3  515 931 818  0 0 255
3  515 818 0  0 0 255
3  519 947 932  128 128 255
3  519 932 320  128 128 255
3  72 973 866  255 0 0
3  72 866 30  255 0 0
3  530 901 858  255 128 255
3  530 858 25  255 128 255
3  541 836 860  128 0 255
3  541 860 26  128 0 255
3  544 877 946  0 0 255
3  544 946 502  0 0 255
3  571 937 940  128 255 128
3  571 940 370  128 255 128
3  578 917 854  0 255 0
3  578 854 20  0 255 0
3  602 948 871  0 0 255
3  602 871 36  0 0 255
3  612 902 949  128 0 255
3  612 949 636  128 0 255
3  626 870 950  0 0 255
3  626 950 650  0 0 255
3  636 949 951  128 0 255
3  636 951 657  128 0 255
3  650 950 948  0 0 255
3  650 948 602  0 0 255
3  657 951 862  128 0 255
3  657 862 27  128 0 255
3  684 884 916  0 255 0
3  684 916 242  0 255 0
3  689 888 914  128 255 128
3  689 914 177  128 255 128
3  699 952 840  255 255 64
3  699 840 12  255 255 64
3  711 935 930  0 192 192
3  711 930 309  0 192 192
3  717 953 869  0 0 255
3  717 869 35  0 0 255
3  727 913 942  128 0 255
3  727 942 385  128 0 255
3  744 943 837  128 0 255
3  744 837 10  128 0 255
3  745 843 938  0 0 255
3  745 938 366  0 0 255
3  761 874 918  128 255 128
3  761 918 248  128 255 128
3  788 855 824  0 255 0
3  788 824 3  0 255 0
3  793 941 953  0 0 255
3  793 953 717  0 0 255
3  801 839 952  255 255 64
3  801 952 699  255 255 64
3  961 969 971  255 0 255
3  837 961 963  255 0 255
3  961 971 964  255 0 255
3  838 837 962  255 0 255
3  968 971 969  255 0 255
3  959 954 964  255 0 255
3  962 837 963  255 0 255
3  963 961 965  255 0 255
3  965 961 964  255 0 255
3  964 971 959  255 0 255
3  966 964 954  255 0 255
3  955 824 956  255 0 255
3  954 958 955  255 0 255
3  824 955 958  255 0 255
3  825 824 958  255 0 255
3  957 825 958  255 0 255
3  960 959 971  255 0 255
3  958 954 959  255 0 255

