OFF
91 72 0

-7.42833 12.3886 -1.54761
7.71457 -0.511113 -0.326029
8.36972 -1.43208 -1.1327
8.19374 -1.19028 1.15225
8.40009 -1.48086 1.08501
8.40302 -1.47901 -1.13138
7.8984 -1.7969 1.78546
8.03059 -1.71363 1.78559
6.64434 0.993338 0.991721
8.33326 -0.127141 -0.316678
8.0415 0.419728 0.126662
7.04036 1.17417 0.957759
6.645 0.990611 1.65692
6.64216 1.00233 -1.2011
9.84469 -5.48796 2.13416
7.96516 -1.92351 2.03958
8.10524 0.300251 -1.17709
7.51758 1.40175 -1.20718
7.52015 1.39693 0.109293
6.465 0.921493 -1.19987
0.892628 -1.62101 -1.16117
6.47112 0.909882 1.96441
6.97347 -5.2204 5.97851
6.93838 -5.21713 6.02549
6.03319 -5.7808 6.01466
6.55918 -6.65074 3.76134
6.95021 -5.17918 5.97956
5.35149 -4.65311 3.66836
6.38543 -7.2506 2.83148
8.44252 -10.8354 2.80169
7.90549 -11.16 2.22021
10.5037 -6.73784 -0.990861
8.19293 -10.9862 2.20019
5.44044 -7.81917 2.85772
2.54335 -9.56222 2.93816
4.76922 -13.0557 2.90373
7.63281 -11.3248 2.82418
2.70146 -0.814246 2.9019
3.78746 -5.00432 2.71159
4.64915 -4.422 2.65302
1.38613 -1.41479 2.99813
8.91602 -10.5492 3.94277
4.12976 -13.3656 -6.10547
3.36535 -7.4421 5.98273
7.8984 -1.7969 -6.10547
8.0596 -11.0668 1.87888
8.89061 -1.17185 -1.13688
7.8984 -1.7969 -1.12569
11.644 -8.90027 2.2247
7.50801 1.41969 -6.10547
3.30606 -7.4312 5.91
11.644 -8.90027 -6.10547
-11.5582 10.6424 -1.52237
8.89061 -1.17185 -6.10547
-11.5582 10.6424 -6.10547
-5.45549 13.2228 -1.55966
-5.45541 13.2228 -6.10547
3.3454 -7.49355 5.90885
4.80361 -3.7465 -6.10547
2.20861 -10.4256 1.69831
3.77494 6.02309 -6.10547
4.12843 -0.177799 6.10723
-1.00178 -5.51259 -1.07249
4.25644 -13.3656 -0.853234
-0.164892 -6.79332 1.65176
4.25644 -13.3656 -6.10547
-0.126396 -6.85222 -6.10547
-0.126398 -6.85222 -1.03518
2.94023 -0.664306 -6.10547
6.45551 0.939493 -6.10547
-0.0855063 4.34034 -1.31423
-0.0854178 4.34038 -6.10547
2.96074 -0.698602 3.48432
9.7094 -10.0696 5.85472
11.644 -8.90027 -0.931852
-2.52558 -3.18063 -1.13743
-2.53697 -3.16321 -6.10547
8.8736 -1.13995 -1.13775
2.95078 -0.681937 -1.17546
3.77494 6.02309 -1.33908
2.85207 -11.4103 -0.908247
-0.0638624 -2.09003 6.00887
6.27897 -12.1431 5.82278
8.9161 -10.5491 -0.902822
4.12975 -13.3656 -0.853796
4.12975 -13.3656 1.73599
8.91619 -10.5491 -6.10547
4.25644 -13.3656 1.91229
6.91415 -11.7592 -0.881517
-2.5193 -3.19025 1.60559
2.0919 -1.08612 1.53268
5  42 65 86 58 66  255 0 0
4  42 84 63 65  255 0 0
5  42 66 67 80 84  255 0 0
4  84 85 87 63  255 0 0
4  84 80 59 85  255 0 0
6  51 44 69 68 58 86  255 0 0
5  74 31 47 44 51  255 0 0
5  65 63 88 83 86  255 0 0
4  74 51 86 83  255 0 0
4  74 48 14 31  255 0 0
7  63 87 35 36 30 45 88  255 0 0
5  74 83 41 73 48  255 0 0
5  87 85 59 34 35  255 0 0
8  48 73 22 26 61 21 15 14  255 0 0
6  83 88 45 32 29 41  255 0 0
4  89 64 62 75  255 0 0
5  75 62 67 66 76  255 0 0
4  75 52 0 20  255 0 0
4  78 70 79 19  255 0 0
5  78 20 0 55 70  255 0 0
4  89 81 50 64  255 0 0
6  89 75 20 90 40 81  255 0 0
5  78 72 37 90 20  255 0 0
4  19 79 60 69  255 0 0
5  21 61 72 78 19  255 0 0
4  72 27 39 37  255 0 0
4  41 29 28 25  255 0 0
3  90 37 40  255 0 0
4  82 35 34 57  255 0 0
3  45 30 32  255 0 0
3  82 36 35  255 0 0
4  82 57 33 36  255 0 0
4  81 40 38 50  255 0 0
4  69 60 71 68  255 0 0
4  69 44 53 49  255 0 0
5  68 71 56 54 76  255 0 0
4  70 55 56 71  255 0 0
4  60 79 70 71  255 0 0
4  76 66 58 68  255 0 0
4  76 54 52 75  255 0 0
4  72 61 26 27  255 0 0
4  73 41 25 22  255 0 0
5  19 69 49 17 13  255 0 0
5  67 62 64 59 80  255 0 0
5  50 57 34 59 64  255 0 0
3  57 50 43  255 0 0
5  56 55 0 52 54  255 0 0
6  27 24 43 50 38 39  255 0 0
6  17 49 53 46 77 16  255 0 0
5  47 31 14 15 6  255 0 0
4  46 5 2 77  255 0 0
5  47 5 46 53 44  255 0 0
6  57 43 24 25 28 33  255 0 0
4  39 38 40 37  255 0 0
4  30 36 29 32  255 0 0
4  29 36 33 28  255 0 0
3  26 22 23  255 0 0
4  27 26 23 24  255 0 0
4  25 24 23 22  255 0 0
5  21 12 3 7 15  255 0 0
5  21 19 13 8 12  255 0 0
5  18 11 8 13 17  255 0 0
3  18 10 11  255 0 0
5  18 17 16 9 10  255 0 0
3  16 77 9  255 0 0
3  15 7 6  255 0 0
4  3 12 8 1  255 0 0
5  11 10 9 1 8  255 0 0
3  7 3 4  255 0 0
5  6 7 4 5 47  255 0 0
5  5 4 3 1 2  255 0 0
4  9 77 2 1  255 0 0

