OFF
112 136 0

7.8984 -1.7969 2.03622
7.8984 -1.7969 1.78546
8.03059 -1.71363 1.78559
8.36972 -1.43208 -1.1327
8.40961 -1.47486 -6.10547
6.63729 1.02243 -6.10547
6.64216 1.00233 -1.2011
6.64434 0.993338 0.991721
7.71457 -0.511113 -0.326029
8.40302 -1.47901 -1.13138
4.78859 -4.46789 2.85461
6.38543 -7.2506 2.83148
3.7616 -5.13468 2.8834
5.44044 -7.81917 2.85772
2.85203 -1.09315 2.88266
2.69391 -0.817611 2.88495
2.13967 -2.54118 2.90822
1.42416 -1.39707 2.91916
-5.80969 1.84521 -6.10547
-0.0854178 4.34038 -6.10547
-5.80969 1.84521 -1.27739
-2.12108 3.45305 -1.30113
-0.0855063 4.34034 -1.31423
4.64915 -4.422 2.65302
2.0919 -1.08612 1.53268
4.70746 -5.46053 1.68442
6.19653 -7.95093 1.7708
8.0596 -11.0668 1.87888
8.19293 -10.9862 2.20019
8.44252 -10.8354 2.80169
6.55918 -6.65074 3.76134
6.97347 -5.2204 5.97851
3.30606 -7.4312 5.91
3.78746 -5.00432 2.71159
11.644 -8.90027 -6.06017
11.4831 -8.59524 -6.10547
5.77048 0.626959 -6.10547
3.39765 -0.478041 -1.17857
2.95274 -0.68523 -0.254764
1.38613 -1.41479 2.99813
3.3454 -7.49355 5.90885
7.63281 -11.3248 2.82418
7.90549 -11.16 2.22021
9.31743 -10.3065 -0.907093
8.91609 -10.5491 -0.0181604
7.8984 -1.7969 -1.12569
6.45551 0.939493 -6.10547
7.8984 -1.7969 -6.10547
6.465 0.921493 -1.19987
6.47112 0.909882 1.96441
7.96516 -1.92351 2.03958
2.94023 -0.664306 -6.10547
-2.53697 -3.16321 -6.10547
-2.52558 -3.18063 -1.13743
0.892628 -1.62101 -1.16117
2.95078 -0.681937 -1.17546
-7.42833 12.3886 -1.54761
8.8736 -1.13995 -1.13775
8.33326 -0.127141 -0.316678
8.19374 -1.19028 1.15225
8.40009 -1.48086 1.08501
8.0415 0.419728 0.126662
7.04036 1.17417 0.957759
6.645 0.990611 1.65692
9.84469 -5.48796 2.13416
10.5037 -6.73784 -0.990861
8.10524 0.300251 -1.17709
7.51758 1.40175 -1.20718
7.52015 1.39693 0.109293
6.93838 -5.21713 6.02549
6.03319 -5.7808 6.01466
6.95021 -5.17918 5.97956
5.35149 -4.65311 3.66836
2.70146 -0.814246 2.9019
3.36535 -7.4421 5.98273
11.644 -8.90027 -6.10547
4.25644 -13.3656 -6.10547
4.25644 -13.3656 -0.853234
7.50801 1.41969 -6.10547
-11.5582 10.6424 -6.10547
-11.5582 10.6424 -1.52237
-5.45549 13.2228 -1.55966
-5.45541 13.2228 -6.10547
2.20861 -10.4256 1.69831
2.85207 -11.4103 -0.908247
-0.164892 -6.79332 1.65176
-1.00178 -5.51259 -1.07249
-0.126396 -6.85222 -6.10547
4.80361 -3.7465 -6.10547
-0.126398 -6.85222 -1.03518
8.91602 -10.5492 3.94277
9.7094 -10.0696 5.85472
4.12843 -0.177799 6.10723
2.96074 -0.698602 3.48432
3.77494 6.02309 -1.33908
3.77494 6.02309 -6.10547
-0.0638624 -2.09003 6.00887
6.27897 -12.1431 5.82278
6.91415 -11.7592 -0.881517
8.91619 -10.5491 -6.10547
-2.5193 -3.19025 1.60559
4.76922 -13.0557 2.90373
8.9161 -10.5491 -0.902822
2.54335 -9.56222 2.93816
11.644 -8.90027 2.2247
4.12975 -13.3656 1.73599
4.25644 -13.3656 1.91229
11.644 -8.90027 -0.931852
8.89061 -1.17185 -6.10547
4.12975 -13.3656 -0.853796
8.89061 -1.17185 -1.13688
4.12976 -13.3656 -6.10547
5  111 76 99 88 87  255 0 0
4  111 109 77 76  255 0 0
5  111 87 89 84 109  255 0 0
4  109 105 106 77  255 0 0
4  109 84 83 105  255 0 0
6  75 35 36 51 88 99  255 0 0
6  107 65 45 47 35 34  255 191 0
3  75 34 35  255 0 0
5  76 77 98 102 99  255 0 0
3  107 34 43  255 191 0
5  75 99 102 43 34  255 0 0
4  107 104 64 65  255 191 0
7  77 106 101 41 42 27 98  255 0 0
6  107 43 44 90 91 104  255 191 0
5  106 105 83 103 101  255 0 0
9  104 91 31 71 92 49 0 50 64  255 191 0
4  102 98 27 44  255 0 0
3  102 44 43  255 0 0
4  100 85 86 53  255 0 0
5  53 86 89 87 52  255 0 0
4  53 20 21 54  127 255 0
5  55 22 94 48 37  127 255 0
4  55 54 21 22  127 255 0
4  100 96 32 85  255 0 0
7  100 53 54 24 17 39 96  255 0 0
4  55 38 24 54  255 0 0
4  48 94 95 46  127 255 0
6  49 92 93 38 37 48  255 191 0
3  55 37 38  255 0 0
5  90 44 27 28 29  255 191 0
5  93 73 15 24 38  255 191 0
6  93 72 10 23 14 73  255 191 0
4  90 29 11 30  255 191 0
3  24 15 17  0 255 63
4  97 101 103 40  255 0 0
3  27 42 28  0 255 63
3  97 41 101  255 0 0
4  97 40 13 41  255 0 0
6  96 39 16 33 12 32  255 0 0
5  46 95 19 51 36  127 255 0
4  46 47 4 5  0 255 255
4  51 19 18 52  127 255 0
4  46 36 35 47  255 191 0
4  19 82 79 18  0 63 255
4  22 81 82 19  0 63 255
4  95 94 22 19  127 255 0
4  52 87 88 51  255 0 0
4  52 18 20 53  127 255 0
4  93 92 71 72  255 191 0
4  91 90 30 31  255 191 0
4  48 46 5 6  0 255 255
5  89 86 85 83 84  255 0 0
5  32 40 103 83 85  255 0 0
3  40 32 74  127 0 255
4  81 22 21 56  0 63 255
4  80 20 18 79  0 63 255
4  80 56 21 20  0 63 255
5  82 81 56 80 79  0 63 255
6  72 70 74 32 12 10  127 0 255
4  78 5 4 108  255 0 191
4  67 6 5 78  255 0 191
6  67 78 108 110 57 66  255 0 191
5  45 65 64 50 1  255 191 0
4  110 9 3 57  255 0 191
4  45 9 4 47  0 255 255
4  110 108 4 9  255 0 191
6  40 74 70 30 11 13  127 0 255
4  39 17 15 73  0 255 63
4  23 10 12 33  0 255 63
4  23 33 16 14  0 255 63
4  39 73 14 16  0 255 63
4  42 41 29 28  0 255 63
4  29 41 13 11  0 255 63
3  71 31 69  127 0 255
4  72 71 69 70  127 0 255
4  30 70 69 31  127 0 255
5  49 63 59 2 0  0 255 255
5  49 48 6 7 63  0 255 255
5  68 62 7 6 67  255 0 191
3  68 61 62  255 0 191
5  68 67 66 58 61  255 0 191
3  66 57 58  255 0 191
3  50 0 2  0 255 255
3  50 2 1  0 255 255
4  59 63 7 8  0 255 255
5  62 61 58 8 7  255 0 191
3  2 59 60  0 255 255
5  1 2 60 9 45  0 255 255
5  9 60 59 8 3  0 255 255
4  58 57 3 8  255 0 191
7  55 37 36 51 52 53 54  127 255 0
4  48 37 36 46  255 191 0
7  55 54 53 52 51 36 37  255 0 0
4  46 36 37 48  127 255 0
4  49 0 1 48  0 255 255
3  50 0 1  255 191 0
4  49 48 1 0  255 191 0
5  46 48 1 45 47  0 255 255
5  48 46 47 45 1  255 191 0
3  50 1 0  0 255 255
5  43 34 26 27 44  255 191 0
5  34 43 44 27 26  255 0 0
5  42 27 26 13 41  0 255 63
5  27 42 41 13 26  255 0 0
3  40 13 32  127 0 255
3  13 40 32  255 0 0
5  33 12 13 26 25  0 255 63
3  32 12 13  255 0 0
3  39 16 17  0 255 63
5  33 16 17 24 25  255 0 0
5  24 17 16 33 25  0 255 63
3  39 17 16  255 0 0
7  38 24 25 34 35 36 37  255 191 0
7  24 38 37 36 35 34 25  255 0 0
3  34 26 25  255 0 0
3  34 25 26  255 191 0
5  33 25 26 13 12  255 0 0
3  32 13 12  127 0 255
3  73 15 14  0 255 63
4  24 15 14 23  255 191 0
4  23 14 15 24  0 255 63
3  73 14 15  255 191 0
6  72 10 11 30 31 71  127 0 255
3  23 10 11  255 191 0
6  72 71 31 30 11 10  255 191 0
8  29 11 23 24 25 26 27 28  0 255 63
8  11 29 28 27 26 25 24 23  255 191 0
3  23 11 10  0 255 63
5  22 19 18 20 21  0 63 255
5  19 22 21 20 18  127 255 0
4  13 11 10 12  127 0 255
4  11 13 12 10  0 255 63
3  9 4 3  255 0 191
3  4 9 3  0 255 255
6  8 3 4 5 6 7  255 0 191
6  3 8 7 6 5 4  0 255 255

