OFF
112 136 0

7.8984 -1.7969 2.03622
7.8984 -1.7969 1.78546
8.03059 -1.71363 1.78559
8.36972 -1.43208 -1.1327
8.40961 -1.47486 -6.10547
6.63729 1.02243 -6.10547
6.64216 1.00233 -1.2011
6.64434 0.993338 0.991721
7.71457 -0.511113 -0.326029
8.40302 -1.47901 -1.13138
4.78859 -4.46789 2.85461
6.38543 -7.2506 2.83148
3.7616 -5.13468 2.8834
5.44044 -7.81917 2.85772
2.85203 -1.09315 2.88266
2.69391 -0.817611 2.88495
2.13967 -2.54118 2.90822
1.42416 -1.39707 2.91916
-5.80969 1.84521 -6.10547
-0.0854178 4.34038 -6.10547
-5.80969 1.84521 -1.27739
-2.12108 3.45305 -1.30113
-0.0855063 4.34034 -1.31423
4.64915 -4.422 2.65302
2.0919 -1.08612 1.53268
4.70746 -5.46053 1.68442
6.19653 -7.95093 1.7708
8.0596 -11.0668 1.87888
8.19293 -10.9862 2.20019
8.44252 -10.8354 2.80169
6.55918 -6.65074 3.76134
6.97347 -5.2204 5.97851
6.95021 -5.17918 5.97956
5.35149 -4.65311 3.66836
2.70146 -0.814246 2.9019
3.30606 -7.4312 5.91
3.78746 -5.00432 2.71159
11.644 -8.90027 -6.06017
11.4831 -8.59524 -6.10547
5.77048 0.626959 -6.10547
3.39765 -0.478041 -1.17857
2.95274 -0.68523 -0.254764
1.38613 -1.41479 2.99813
3.3454 -7.49355 5.90885
7.63281 -11.3248 2.82418
7.90549 -11.16 2.22021
9.31743 -10.3065 -0.907093
8.91609 -10.5491 -0.0181604
6.45551 0.939493 -6.10547
7.8984 -1.7969 -6.10547
6.465 0.921493 -1.19987
6.47112 0.909882 1.96441
7.96516 -1.92351 2.03958
2.94023 -0.664306 -6.10547
-2.53697 -3.16321 -6.10547
-2.52558 -3.18063 -1.13743
0.892628 -1.62101 -1.16117
2.95078 -0.681937 -1.17546
-7.42833 12.3886 -1.54761
8.8736 -1.13995 -1.13775
8.33326 -0.127141 -0.316678
8.19374 -1.19028 1.15225
8.40009 -1.48086 1.08501
7.8984 -1.7969 -1.12569
8.0415 0.419728 0.126662
7.04036 1.17417 0.957759
6.645 0.990611 1.65692
9.84469 -5.48796 2.13416
10.5037 -6.73784 -0.990861
8.10524 0.300251 -1.17709
7.51758 1.40175 -1.20718
7.52015 1.39693 0.109293
6.93838 -5.21713 6.02549
6.03319 -5.7808 6.01466
4.76922 -13.0557 2.90373
2.54335 -9.56222 2.93816
11.644 -8.90027 -6.10547
4.25644 -13.3656 -6.10547
4.25644 -13.3656 -0.853234
3.36535 -7.4421 5.98273
8.89061 -1.17185 -6.10547
8.89061 -1.17185 -1.13688
7.50801 1.41969 -6.10547
-11.5582 10.6424 -6.10547
-11.5582 10.6424 -1.52237
-5.45549 13.2228 -1.55966
-5.45541 13.2228 -6.10547
4.80361 -3.7465 -6.10547
-0.126398 -6.85222 -1.03518
-0.126396 -6.85222 -6.10547
8.91602 -10.5492 3.94277
9.7094 -10.0696 5.85472
4.12843 -0.177799 6.10723
2.96074 -0.698602 3.48432
3.77494 6.02309 -1.33908
3.77494 6.02309 -6.10547
-0.0638624 -2.09003 6.00887
6.27897 -12.1431 5.82278
6.91415 -11.7592 -0.881517
-2.5193 -3.19025 1.60559
8.91619 -10.5491 -6.10547
8.9161 -10.5491 -0.902822
2.20861 -10.4256 1.69831
2.85207 -11.4103 -0.908247
11.644 -8.90027 2.2247
4.12975 -13.3656 1.73599
4.25644 -13.3656 1.91229
-0.164892 -6.79332 1.65176
-1.00178 -5.51259 -1.07249
11.644 -8.90027 -0.931852
4.12976 -13.3656 -6.10547
4.12975 -13.3656 -0.853796
5  110 77 100 87 89  255 0 0
4  110 111 78 77  255 0 0
5  110 89 88 103 111  255 0 0
4  111 105 106 78  255 0 0
4  111 103 102 105  255 0 0
6  76 38 39 53 87 100  255 0 0
6  109 68 63 49 38 37  255 191 0
3  76 37 38  255 0 0
5  77 78 98 101 100  255 0 0
3  109 37 46  255 191 0
5  76 100 101 46 37  255 0 0
4  109 104 67 68  255 191 0
7  78 106 74 44 45 27 98  255 0 0
6  109 46 47 90 91 104  255 191 0
5  106 105 102 75 74  255 0 0
9  104 91 31 32 92 51 0 52 67  255 191 0
4  101 98 27 47  255 0 0
3  101 47 46  255 0 0
4  99 107 108 55  255 0 0
5  55 108 88 89 54  255 0 0
4  55 20 21 56  127 255 0
5  57 22 94 50 40  127 255 0
4  57 56 21 22  127 255 0
4  99 96 35 107  255 0 0
7  99 55 56 24 17 42 96  255 0 0
4  57 41 24 56  255 0 0
4  50 94 95 48  127 255 0
6  51 92 93 41 40 50  255 191 0
3  57 40 41  255 0 0
5  90 47 27 28 29  255 191 0
5  93 34 15 24 41  255 191 0
6  93 33 10 23 14 34  255 191 0
4  90 29 11 30  255 191 0
3  24 15 17  0 255 63
4  97 74 75 43  255 0 0
3  27 45 28  0 255 63
3  97 44 74  255 0 0
4  97 43 13 44  255 0 0
6  96 42 16 36 12 35  255 0 0
5  48 95 19 53 39  127 255 0
4  48 49 4 5  0 255 255
4  53 19 18 54  127 255 0
4  48 39 38 49  255 191 0
4  19 86 83 18  0 63 255
4  22 85 86 19  0 63 255
4  95 94 22 19  127 255 0
4  54 89 87 53  255 0 0
4  54 18 20 55  127 255 0
4  93 92 32 33  255 191 0
4  91 90 30 31  255 191 0
4  50 48 5 6  0 255 255
5  88 108 107 102 103  255 0 0
5  35 43 75 102 107  255 0 0
3  43 35 79  127 0 255
4  85 22 21 58  0 63 255
4  84 20 18 83  0 63 255
4  84 58 21 20  0 63 255
5  86 85 58 84 83  0 63 255
6  33 73 79 35 12 10  127 0 255
4  82 5 4 80  255 0 191
4  70 6 5 82  255 0 191
6  70 82 80 81 59 69  255 0 191
5  63 68 67 52 1  255 191 0
4  81 9 3 59  255 0 191
4  63 9 4 49  0 255 255
4  81 80 4 9  255 0 191
6  43 79 73 30 11 13  127 0 255
4  42 17 15 34  0 255 63
4  23 10 12 36  0 255 63
4  23 36 16 14  0 255 63
4  42 34 14 16  0 255 63
4  45 44 29 28  0 255 63
4  29 44 13 11  0 255 63
3  32 31 72  127 0 255
4  33 32 72 73  127 0 255
4  30 73 72 31  127 0 255
5  51 66 61 2 0  0 255 255
5  51 50 6 7 66  0 255 255
5  71 65 7 6 70  255 0 191
3  71 64 65  255 0 191
5  71 70 69 60 64  255 0 191
3  69 59 60  255 0 191
3  52 0 2  0 255 255
3  52 2 1  0 255 255
4  61 66 7 8  0 255 255
5  65 64 60 8 7  255 0 191
3  2 61 62  0 255 255
5  1 2 62 9 63  0 255 255
5  9 62 61 8 3  0 255 255
4  60 59 3 8  255 0 191
7  57 40 39 53 54 55 56  127 255 0
4  50 40 39 48  255 191 0
7  57 56 55 54 53 39 40  255 0 0
4  48 39 40 50  127 255 0
4  51 0 1 50  0 255 255
3  52 0 1  255 191 0
4  51 50 1 0  255 191 0
5  48 50 1 63 49  0 255 255
5  50 48 49 63 1  255 191 0
3  52 1 0  0 255 255
5  46 37 26 27 47  255 191 0
5  37 46 47 27 26  255 0 0
5  45 27 26 13 44  0 255 63
5  27 45 44 13 26  255 0 0
3  43 13 35  127 0 255
3  13 43 35  255 0 0
5  36 12 13 26 25  0 255 63
3  35 12 13  255 0 0
3  42 16 17  0 255 63
5  36 16 17 24 25  255 0 0
5  24 17 16 36 25  0 255 63
3  42 17 16  255 0 0
7  41 24 25 37 38 39 40  255 191 0
7  24 41 40 39 38 37 25  255 0 0
3  37 26 25  255 0 0
3  37 25 26  255 191 0
5  36 25 26 13 12  255 0 0
3  35 13 12  127 0 255
3  34 15 14  0 255 63
4  24 15 14 23  255 191 0
4  23 14 15 24  0 255 63
3  34 14 15  255 191 0
6  33 10 11 30 31 32  127 0 255
3  23 10 11  255 191 0
6  33 32 31 30 11 10  255 191 0
8  29 11 23 24 25 26 27 28  0 255 63
8  11 29 28 27 26 25 24 23  255 191 0
3  23 11 10  0 255 63
5  22 19 18 20 21  0 63 255
5  19 22 21 20 18  127 255 0
4  13 11 10 12  127 0 255
4  11 13 12 10  0 255 63
3  9 4 3  255 0 191
3  4 9 3  0 255 255
6  8 3 4 5 6 7  255 0 191
6  3 8 7 6 5 4  0 255 255

