OFF
91 74 0

6.45551 0.939493 -6.10547
6.465 0.921493 -1.19987
2.94023 -0.664306 -6.10547
-2.53697 -3.16321 -6.10547
-2.52558 -3.18063 -1.13743
0.892628 -1.62101 -1.16117
2.95078 -0.681937 -1.17546
-7.42833 12.3886 -1.54761
7.71457 -0.511113 -0.326029
8.36972 -1.43208 -1.1327
8.8736 -1.13995 -1.13775
8.33326 -0.127141 -0.316678
8.19374 -1.19028 1.15225
8.40009 -1.48086 1.08501
8.40302 -1.47901 -1.13138
7.8984 -1.7969 -1.12569
8.03059 -1.71363 1.78559
7.8984 -1.7969 1.78546
6.64434 0.993338 0.991721
8.0415 0.419728 0.126662
7.04036 1.17417 0.957759
6.645 0.990611 1.65692
6.64216 1.00233 -1.2011
9.84469 -5.48796 2.13416
10.5037 -6.73784 -0.990861
7.96516 -1.92351 2.03958
8.10524 0.300251 -1.17709
7.51758 1.40175 -1.20718
7.52015 1.39693 0.109293
6.47112 0.909882 1.96441
6.97347 -5.2204 5.97851
6.93838 -5.21713 6.02549
6.03319 -5.7808 6.01466
6.55918 -6.65074 3.76134
6.95021 -5.17918 5.97956
5.35149 -4.65311 3.66836
6.38543 -7.2506 2.83148
7.63281 -11.3248 2.82418
4.76922 -13.0557 2.90373
2.54335 -9.56222 2.93816
5.44044 -7.81917 2.85772
2.70146 -0.814246 2.9019
1.38613 -1.41479 2.99813
3.78746 -5.00432 2.71159
4.64915 -4.422 2.65302
3.36535 -7.4421 5.98273
3.3454 -7.49355 5.90885
-0.0855063 4.34034 -1.31423
7.8984 -1.7969 -6.10547
3.77494 6.02309 -1.33908
8.89061 -1.17185 -6.10547
-11.5582 10.6424 -1.52237
-5.45541 13.2228 -6.10547
-11.5582 10.6424 -6.10547
-5.45549 13.2228 -1.55966
2.20861 -10.4256 1.69831
2.85207 -11.4103 -0.908247
-0.164892 -6.79332 1.65176
3.30606 -7.4312 5.91
-1.00178 -5.51259 -1.07249
-0.126396 -6.85222 -6.10547
4.80361 -3.7465 -6.10547
-0.126398 -6.85222 -1.03518
8.91602 -10.5492 3.94277
9.7094 -10.0696 5.85472
4.12843 -0.177799 6.10723
2.96074 -0.698602 3.48432
-0.0854178 4.34038 -6.10547
8.89061 -1.17185 -1.13688
3.77494 6.02309 -6.10547
-0.0638624 -2.09003 6.00887
6.27897 -12.1431 5.82278
7.50801 1.41969 -6.10547
8.0596 -11.0668 1.87888
2.0919 -1.08612 1.53268
6.91415 -11.7592 -0.881517
8.9161 -10.5491 -0.902822
4.12975 -13.3656 -0.853796
8.91619 -10.5491 -6.10547
-2.5193 -3.19025 1.60559
11.644 -8.90027 -6.10547
4.25644 -13.3656 -6.10547
4.12976 -13.3656 -6.10547
4.25644 -13.3656 -0.853234
8.44252 -10.8354 2.80169
11.644 -8.90027 2.2247
11.644 -8.90027 -0.931852
4.12975 -13.3656 1.73599
4.25644 -13.3656 1.91229
8.19293 -10.9862 2.20019
7.90549 -11.16 2.22021
5  82 81 78 61 60  0 255 255
4  82 77 83 81  0 255 255
5  82 60 62 56 77  0 255 255
4  77 87 88 83  0 255 255
4  77 56 55 87  0 255 255
6  80 48 0 2 61 78  0 255 255
5  86 24 15 48 80  0 255 255
5  81 83 75 76 78  0 255 255
4  86 80 78 76  0 255 255
4  86 85 23 24  0 255 255
7  83 88 38 37 90 73 75  0 255 255
5  86 76 63 64 85  0 255 255
5  88 87 55 39 38  0 255 255
8  85 64 30 34 65 29 25 23  0 255 255
6  76 75 73 89 84 63  0 255 255
4  79 57 59 4  0 255 255
5  4 59 62 60 3  0 255 255
4  4 51 7 5  255 0 0
4  6 47 49 1  255 0 0
5  6 5 7 54 47  255 0 0
4  79 70 58 57  0 255 255
6  79 4 5 74 42 70  0 255 255
5  6 66 41 74 5  0 255 255
4  1 49 69 0  255 0 0
5  29 65 66 6 1  0 255 255
4  66 35 44 41  0 255 255
4  63 84 36 33  0 255 255
3  74 41 42  0 255 255
4  71 38 39 46  0 255 255
3  73 90 89  0 255 255
3  71 37 38  0 255 255
4  71 46 40 37  0 255 255
4  70 42 43 58  0 255 255
4  0 69 67 2  255 0 0
4  0 48 50 72  0 255 255
5  2 67 52 53 3  255 0 0
4  47 54 52 67  255 0 0
4  69 49 47 67  255 0 0
4  3 60 61 2  0 255 255
4  3 53 51 4  255 0 0
4  66 65 34 35  0 255 255
4  64 63 33 30  0 255 255
5  1 0 72 27 22  0 255 255
5  62 59 57 55 56  0 255 255
5  58 46 39 55 57  0 255 255
3  46 58 45  0 255 255
5  52 54 7 51 53  255 0 0
6  35 32 45 58 43 44  0 255 255
6  27 72 50 68 10 26  0 255 255
5  15 24 23 25 17  0 255 255
4  68 14 9 10  0 255 255
5  15 14 68 50 48  0 255 255
6  46 45 32 33 36 40  0 255 255
4  44 43 42 41  0 255 255
4  90 37 84 89  0 255 255
4  84 37 40 36  0 255 255
3  34 30 31  0 255 255
4  35 34 31 32  0 255 255
4  33 32 31 30  0 255 255
5  29 21 12 16 25  0 255 255
5  29 1 22 18 21  0 255 255
5  28 20 18 22 27  0 255 255
3  28 19 20  0 255 255
5  28 27 26 11 19  0 255 255
3  26 10 11  0 255 255
3  25 16 17  0 255 255
4  12 21 18 8  0 255 255
5  20 19 11 8 18  0 255 255
3  16 12 13  0 255 255
5  17 16 13 14 15  0 255 255
5  14 13 12 8 9  0 255 255
4  11 10 9 8  0 255 255
7  6 1 0 2 3 4 5  255 0 0
7  1 6 5 4 3 2 0  0 255 255

