OFF
108 92 0

-5.95812 13.1088 -21.45
-5.95812 13.1088 21.35
-0.897733 14.1156 -21.45
12.3699 16.7552 -21.45
12.3699 16.7552 21.35
-0.897733 14.1156 21.35
29.9418 20.2512 -21.45
24.4246 19.1535 -21.45
43.6592 22.9803 -21.45
43.6592 22.9803 21.35
29.9418 20.2512 21.35
24.4246 19.1535 21.35
29.4687 -5.875 -21.45
48.7029 -1.65526 -21.45
29.4687 -5.875 21.35
48.7029 -1.65526 21.35
-0.788584 -12.5131 -21.45
19.0493 -8.1609 -21.45
-0.788584 -12.5131 21.35
19.0493 -8.1609 21.35
54.8626 -31.7411 21.35
54.8626 -31.7411 -21.45
-6.31179 37.63 -21.45
1.70038 30.888 -21.45
1.70038 30.888 21.35
-6.31179 37.63 21.35
33.4151 -25.4566 21.35
33.4151 -25.4566 -21.45
46.5773 -37.1193 -21.45
39.7942 -41.5223 -21.45
39.7942 -41.5223 21.35
46.5773 -37.1193 21.35
-0.867054 6.63091 -21.45
-5.15031 -21.854 -21.45
36.0312 -38.4375 21.35
-16.0225 -31.0408 -21.45
36.0312 -38.4375 -21.45
26.1806 10.4405 -21.45
39.248 44.5258 -21.45
39.248 44.5258 21.35
26.1806 10.4405 21.35
-9.34334 17.4161 -21.45
-9.34334 17.4161 21.35
-18.6916 24.543 21.35
-18.6916 24.543 -21.45
-22.5186 27.4606 -21.45
-30.1839 26.3759 -21.45
-22.5186 27.4606 21.35
-30.1839 26.3759 21.35
-2.00443 -12.7798 -21.45
-2.00443 -12.7798 21.35
-7.49347 -28.6128 21.35
-7.49347 -28.6128 -21.45
17.3243 17.7409 -21.45
17.3243 17.7409 21.35
-17.7969 -51.3633 21.35
-1.69495 -43.2178 21.35
-17.7969 -51.3633 -21.45
-5.15031 -21.854 21.35
55.6937 -35.9797 -21.45
-16.0225 -31.0408 21.35
55.6937 -35.9797 21.35
-35.3812 44.8778 -21.45
-20.6688 43.3065 -21.45
-20.6688 43.3065 21.35
-35.3812 44.8778 21.35
-0.730483 -26.6876 -21.45
-0.730483 -26.6876 21.35
36.7575 -42.0412 -21.45
-0.964936 30.5108 -21.45
-0.964936 30.5108 21.35
-35.7555 -54.4321 -21.45
-35.7555 -54.4321 21.35
36.7575 -42.0412 21.35
-55.5982 40.3338 21.35
-55.5982 40.3338 -21.45
17.2935 54.5375 21.35
-52.0283 23.2845 -21.45
22.4907 0.815634 21.35
-1.69495 -43.2178 -21.45
-39.2678 -37.6579 21.35
17.2935 54.5375 -21.45
-39.2678 -37.6579 -21.45
13.4996 -22.6368 21.35
13.4996 -22.6368 -21.45
26.1365 10.3256 21.35
31.7971 -17.4281 -21.45
11.0226 -29.0979 -21.45
31.7971 -17.4281 21.35
11.0226 -29.0979 21.35
26.1365 10.3256 -21.45
23.0398 26.0251 -21.45
23.0398 26.0251 21.35
29.9204 -8.11625 21.35
29.9204 -8.11625 -21.45
-52.0283 23.2845 21.35
21.4951 33.6893 21.35
21.4951 33.6893 -21.45
-0.867054 6.63091 21.35
5.34185 27.8238 21.35
5.34185 27.8238 -21.45
22.4907 0.815634 -21.45
37.1983 54.5375 21.35
37.1983 54.5375 -21.45
55.6937 -35.8009 -21.45
55.6937 -35.8009 21.35
-17.766 28.1332 -21.45
-17.766 28.1332 21.35
7  103 81 97 91 7 6 38  0 102 255
4  102 76 81 103  0 102 255
4  104 59 61 105  0 255 102
10  105 61 31 34 26 88 93 14 15 20  0 255 102
10  104 21 13 12 94 86 27 36 28 59  0 255 102
7  102 39 10 11 92 96 76  0 102 255
4  105 20 21 104  0 255 102
4  103 38 39 102  0 102 255
4  76 96 97 81  0 102 255
4  88 26 27 86  0 255 102
4  86 94 93 88  0 255 102
4  80 72 71 82  203 255 0
9  82 71 57 79 87 84 66 52 35  203 255 0
9  80 60 51 67 83 89 56 55 72  203 255 0
4  82 35 60 80  203 255 0
4  77 75 74 95  204 0 255
4  96 92 91 97  0 102 255
10  95 74 65 64 25 24 70 107 47 48  204 0 255
10  77 46 45 106 69 23 22 63 62 75  204 0 255
4  95 48 46 77  204 0 255
4  94 12 14 93  0 255 102
4  37 7 53 90  255 0 0
5  37 12 13 8 6  255 0 0
5  40 14 19 78 85  255 0 0
3  40 11 10  255 0 0
4  83 67 18 19  203 255 0
5  37 90 101 17 12  255 0 0
4  84 17 16 66  203 255 0
4  40 85 54 11  255 0 0
4  83 19 17 84  203 255 0
4  92 11 7 91  0 102 255
4  85 78 4 54  255 0 0
5  23 69 2 3 100  204 0 255
4  90 53 3 101  255 0 0
5  24 99 4 5 70  204 0 255
4  24 23 100 99  204 0 255
6  78 19 18 98 5 4  255 0 0
6  101 3 2 32 16 17  255 0 0
4  100 3 4 99  204 0 255
4  75 62 65 74  204 0 255
4  68 36 34 73  0 255 102
4  73 34 31 30  0 255 102
4  72 55 57 71  203 255 0
4  18 50 49 16  203 255 0
5  16 49 33 52 66  203 255 0
3  2 0 32  255 0 0
5  5 1 42 107 70  204 0 255
3  5 98 1  255 0 0
4  18 16 32 98  255 0 0
5  69 106 41 0 2  204 0 255
4  106 45 44 41  204 0 255
4  107 42 43 47  204 0 255
4  1 0 41 42  204 0 255
4  68 29 28 36  0 255 102
4  73 30 29 68  0 255 102
5  67 51 58 50 18  203 255 0
3  51 60 58  203 255 0
3  52 33 35  203 255 0
4  50 58 33 49  203 255 0
3  45 46 44  204 0 255
3  47 43 48  204 0 255
4  42 41 44 43  204 0 255
4  38 8 9 39  0 102 255
3  39 9 10  0 102 255
5  40 10 9 15 14  255 0 0
3  38 6 8  0 102 255
3  37 6 7  255 0 0
4  60 35 33 58  203 255 0
4  19 14 12 17  255 0 0
4  11 54 53 7  255 0 0
4  63 22 25 64  204 0 255
4  65 62 63 64  204 0 255
4  54 4 3 53  255 0 0
4  48 43 44 46  204 0 255
4  13 21 20 15  0 255 102
4  15 9 8 13  255 0 0
4  36 27 26 34  0 255 102
4  61 59 28 31  0 255 102
4  56 89 87 79  203 255 0
4  55 56 79 57  203 255 0
4  89 83 84 87  203 255 0
4  98 32 0 1  255 0 0
4  31 28 29 30  0 255 102
4  25 22 23 24  204 0 255
4  19 17 16 18  255 0 0
4  17 19 18 16  203 255 0
4  15 13 12 14  255 0 0
4  13 15 14 12  0 255 102
6  11 7 6 8 9 10  255 0 0
6  7 11 10 9 8 6  0 102 255
6  5 1 0 2 3 4  255 0 0
6  1 5 4 3 2 0  204 0 255

