OFF
122 125 0

-0.897733 14.1156 -21.45
-0.867054 6.63091 -21.45
-0.897733 14.1156 21.35
-0.867054 6.63091 21.35
10.3677 19.9085 -21.45
10.3677 19.9085 21.35
-0.928862 21.7101 -21.45
-14.4075 23.8598 -21.45
-18.6916 24.543 -21.45
-18.6916 24.543 21.35
-14.4075 23.8598 21.35
-0.928862 21.7101 21.35
-30.1839 26.3759 -21.45
-30.1839 26.3759 21.35
-53.4527 30.0869 -21.45
-53.4527 30.0869 21.35
-36.9506 -48.7245 -21.45
-36.9506 -48.7245 21.35
-16.0225 -31.0408 -21.45
-16.0225 -31.0408 21.35
-0.765483 -18.149 -21.45
-5.15031 -21.854 -21.45
8.25156 -10.5298 -21.45
8.25156 -10.5298 21.35
-0.765483 -18.149 21.35
-5.15031 -21.854 21.35
46.5773 -37.1193 -21.45
36.0312 -38.4375 -21.45
46.5773 -37.1193 21.35
36.0312 -38.4375 21.35
-5.95812 13.1088 -21.45
-5.95812 13.1088 21.35
12.3699 16.7552 -21.45
12.3699 16.7552 21.35
29.9418 20.2512 -21.45
24.4246 19.1535 -21.45
43.6592 22.9803 -21.45
43.6592 22.9803 21.35
29.9418 20.2512 21.35
24.4246 19.1535 21.35
33.4151 -25.4566 21.35
33.4151 -25.4566 -21.45
39.7942 -41.5223 -21.45
13.4996 -22.6368 -21.45
11.0226 -29.0979 -21.45
11.0226 -29.0979 21.35
13.4996 -22.6368 21.35
55.6937 -35.9797 21.35
55.6937 -35.9797 -21.45
29.4687 -5.875 21.35
48.7029 -1.65526 21.35
29.4687 -5.875 -21.45
48.7029 -1.65526 -21.45
17.3243 17.7409 -21.45
17.3243 17.7409 21.35
-35.3812 44.8778 -21.45
-20.6688 43.3065 -21.45
-20.6688 43.3065 21.35
-35.3812 44.8778 21.35
19.0493 -8.1609 -21.45
19.0493 -8.1609 21.35
-2.00443 -12.7798 21.35
-7.49347 -28.6128 21.35
-2.00443 -12.7798 -21.45
-7.49347 -28.6128 -21.45
36.7575 -42.0412 21.35
36.7575 -42.0412 -21.45
-17.766 28.1332 -21.45
-17.766 28.1332 21.35
-0.964936 30.5108 -21.45
-0.964936 30.5108 21.35
-0.788584 -12.5131 -21.45
-0.788584 -12.5131 21.35
-35.7555 -54.4321 -21.45
-35.7555 -54.4321 21.35
-55.5982 40.3338 21.35
-55.5982 40.3338 -21.45
5.34185 27.8238 21.35
22.4907 0.815634 -21.45
5.34185 27.8238 -21.45
22.4907 0.815634 21.35
1.70038 30.888 -21.45
1.70038 30.888 21.35
26.1365 10.3256 21.35
26.1365 10.3256 -21.45
23.0398 26.0251 -21.45
23.0398 26.0251 21.35
54.8626 -31.7411 21.35
54.8626 -31.7411 -21.45
26.1806 10.4405 21.35
-6.31179 37.63 -21.45
26.1806 10.4405 -21.45
-6.31179 37.63 21.35
29.9204 -8.11625 21.35
21.4951 33.6893 21.35
39.248 44.5258 -21.45
21.4951 33.6893 -21.45
-52.0283 23.2845 -21.45
39.248 44.5258 21.35
-52.0283 23.2845 21.35
39.7942 -41.5223 21.35
-39.2678 -37.6579 21.35
-9.34334 17.4161 -21.45
-39.2678 -37.6579 -21.45
-9.34334 17.4161 21.35
31.7971 -17.4281 -21.45
-22.5186 27.4606 -21.45
31.7971 -17.4281 21.35
-22.5186 27.4606 21.35
17.2935 54.5375 -21.45
-1.69495 -43.2178 21.35
17.2935 54.5375 21.35
29.9204 -8.11625 -21.45
-1.69495 -43.2178 -21.45
-17.7969 -51.3633 -21.45
37.1983 54.5375 21.35
-17.7969 -51.3633 21.35
37.1983 54.5375 -21.45
-0.730483 -26.6876 -21.45
55.6937 -35.8009 -21.45
55.6937 -35.8009 21.35
-0.730483 -26.6876 21.35
7  117 109 96 85 35 34 95  92 255 0
4  115 111 109 117  92 255 0
4  119 48 47 120  0 255 185
10  120 47 28 29 40 107 93 49 50 87  0 255 185
10  119 88 52 51 112 105 41 27 26 48  0 255 185
7  115 98 38 39 86 94 111  92 255 0
4  120 87 88 119  0 255 185
4  117 95 98 115  92 255 0
4  111 94 96 109  92 255 0
4  107 40 41 105  0 255 185
4  105 112 93 107  0 255 185
4  101 17 16 103  0 46 255
3  103 16 18  0 46 255
3  101 19 17  0 46 255
4  103 18 19 101  0 46 255
4  97 14 15 99  92 0 255
4  94 86 85 96  92 255 0
3  99 15 13  92 0 255
3  97 12 14  92 0 255
4  99 13 12 97  92 0 255
4  112 51 49 93  0 255 185
9  43 118 64 18 16 73 114 113 44  255 139 0
4  91 35 53 84  255 0 0
5  91 51 52 36 34  255 0 0
5  89 49 60 80 83  255 0 0
3  89 39 38  255 0 0
5  46 121 24 23 60  255 139 0
5  91 84 78 59 51  255 0 0
5  43 59 22 20 118  255 139 0
4  89 83 54 39  255 0 0
4  46 60 59 43  255 139 0
4  86 39 35 85  92 255 0
4  83 80 33 54  255 0 0
5  81 69 6 4 79  0 255 46
10  82 70 68 108 13 15 75 58 57 92  0 255 46
4  84 53 32 78  255 0 0
5  82 77 5 11 70  0 255 46
4  82 81 79 77  0 255 46
7  80 60 23 72 3 2 33  255 0 0
7  78 32 0 1 71 22 59  255 0 0
4  79 4 5 77  0 255 46
4  33 5 4 32  231 0 255
4  32 4 6 0  231 0 255
4  33 2 11 5  231 0 255
10  76 14 12 106 67 69 81 90 56 55  0 255 46
4  75 15 14 76  0 255 46
4  76 55 58 75  0 255 46
4  66 27 29 65  231 255 0
9  74 17 19 62 121 46 45 110 116  255 139 0
4  73 16 17 74  255 139 0
4  65 29 28 100  231 255 0
4  74 116 114 73  255 139 0
4  72 61 63 71  0 185 255
3  72 23 24  0 185 255
4  71 63 21 20  0 185 255
3  0 30 1  255 0 139
5  2 31 104 10 11  231 0 255
3  2 3 31  255 0 139
4  72 71 1 3  255 0 0
4  69 67 7 6  0 255 46
4  70 11 10 68  0 255 46
5  0 6 7 102 30  231 0 255
4  67 106 8 7  0 255 46
4  68 10 9 108  0 255 46
4  31 30 102 104  231 0 255
4  66 42 26 27  231 255 0
4  65 100 42 66  231 255 0
4  121 62 25 24  255 139 0
4  72 24 25 61  0 185 255
4  118 20 21 64  255 139 0
3  71 20 22  0 185 255
3  62 19 25  255 139 0
3  64 21 18  255 139 0
4  61 25 21 63  0 185 255
3  102 7 8  231 0 255
3  106 12 8  0 255 46
3  104 9 10  231 0 255
3  108 9 13  0 255 46
4  104 102 8 9  231 0 255
4  95 36 37 98  92 255 0
3  98 37 38  92 255 0
5  89 38 37 50 49  255 0 0
3  95 34 36  92 255 0
3  91 34 35  255 0 0
4  19 18 21 25  255 139 0
4  60 49 51 59  255 0 0
4  39 54 53 35  255 0 0
4  56 90 92 57  0 255 46
4  58 55 56 57  0 255 46
4  54 33 32 53  255 0 0
4  13 9 8 12  0 255 46
4  52 88 87 50  0 255 185
4  50 37 36 52  255 0 0
4  27 41 40 29  0 255 185
4  47 48 26 28  0 255 185
4  110 45 44 113  255 139 0
4  116 110 113 114  255 139 0
4  45 46 43 44  255 139 0
4  3 1 30 31  255 0 139
4  28 26 42 100  231 255 0
4  92 90 81 82  0 255 46
4  60 59 22 23  255 0 0
4  59 60 23 22  255 139 0
4  72 23 22 71  255 0 0
4  72 71 22 23  0 185 255
4  50 52 51 49  255 0 0
4  52 50 49 51  0 255 185
6  39 35 34 36 37 38  255 0 0
6  35 39 38 37 36 34  92 255 0
4  2 31 30 0  255 0 139
4  31 2 0 30  231 0 255
4  33 2 0 32  255 0 0
4  2 33 32 0  231 0 255
4  29 27 26 28  231 255 0
4  27 29 28 26  0 255 185
6  25 21 20 22 23 24  255 139 0
6  21 25 24 23 22 20  0 185 255
4  19 17 16 18  255 139 0
4  17 19 18 16  0 46 255
4  15 13 12 14  0 255 46
4  13 15 14 12  92 0 255
8  11 5 4 6 7 8 9 10  0 255 46
8  5 11 10 9 8 7 6 4  231 0 255
4  3 1 0 2  255 0 0
4  1 3 2 0  255 0 139

