OFF
122 129 0

-14.4075 23.8598 -21.45
-9.34334 17.4161 -21.45
-14.4075 23.8598 21.35
-9.34334 17.4161 21.35
-0.897733 14.1156 -21.45
-0.867054 6.63091 -21.45
-0.897733 14.1156 21.35
-0.867054 6.63091 21.35
10.3677 19.9085 -21.45
10.3677 19.9085 21.35
-0.928862 21.7101 -21.45
-18.6916 24.543 -21.45
-18.6916 24.543 21.35
-0.928862 21.7101 21.35
-30.1839 26.3759 -21.45
-30.1839 26.3759 21.35
-53.4527 30.0869 -21.45
-53.4527 30.0869 21.35
-36.9506 -48.7245 -21.45
-36.9506 -48.7245 21.35
-16.0225 -31.0408 -21.45
-16.0225 -31.0408 21.35
-0.765483 -18.149 -21.45
-5.15031 -21.854 -21.45
8.25156 -10.5298 -21.45
8.25156 -10.5298 21.35
-0.765483 -18.149 21.35
-5.15031 -21.854 21.35
46.5773 -37.1193 -21.45
36.0312 -38.4375 -21.45
46.5773 -37.1193 21.35
36.0312 -38.4375 21.35
-5.95812 13.1088 -21.45
-5.95812 13.1088 21.35
12.3699 16.7552 -21.45
12.3699 16.7552 21.35
29.9418 20.2512 -21.45
24.4246 19.1535 -21.45
43.6592 22.9803 -21.45
43.6592 22.9803 21.35
29.9418 20.2512 21.35
24.4246 19.1535 21.35
29.4687 -5.875 21.35
48.7029 -1.65526 -21.45
48.7029 -1.65526 21.35
-0.788584 -12.5131 -21.45
19.0493 -8.1609 -21.45
-0.788584 -12.5131 21.35
19.0493 -8.1609 21.35
54.8626 -31.7411 21.35
54.8626 -31.7411 -21.45
-6.31179 37.63 -21.45
1.70038 30.888 -21.45
1.70038 30.888 21.35
-6.31179 37.63 21.35
33.4151 -25.4566 21.35
33.4151 -25.4566 -21.45
39.7942 -41.5223 -21.45
39.7942 -41.5223 21.35
13.4996 -22.6368 21.35
13.4996 -22.6368 -21.45
11.0226 -29.0979 -21.45
11.0226 -29.0979 21.35
-1.69495 -43.2178 21.35
-1.69495 -43.2178 -21.45
-17.7969 -51.3633 -21.45
-17.7969 -51.3633 21.35
55.6937 -35.9797 -21.45
55.6937 -35.9797 21.35
29.4687 -5.875 -21.45
29.9204 -8.11625 -21.45
-52.0283 23.2845 -21.45
-20.6688 43.3065 -21.45
-20.6688 43.3065 21.35
-35.3812 44.8778 21.35
-35.3812 44.8778 -21.45
17.2935 54.5375 21.35
17.3243 17.7409 21.35
17.2935 54.5375 -21.45
17.3243 17.7409 -21.45
37.1983 54.5375 21.35
26.1806 10.4405 -21.45
39.248 44.5258 -21.45
39.248 44.5258 21.35
26.1806 10.4405 21.35
-22.5186 27.4606 -21.45
-22.5186 27.4606 21.35
-2.00443 -12.7798 -21.45
-2.00443 -12.7798 21.35
-7.49347 -28.6128 21.35
-7.49347 -28.6128 -21.45
-0.730483 -26.6876 -21.45
-0.730483 -26.6876 21.35
36.7575 -42.0412 -21.45
36.7575 -42.0412 21.35
-17.766 28.1332 -21.45
-17.766 28.1332 21.35
-0.964936 30.5108 -21.45
-0.964936 30.5108 21.35
55.6937 -35.8009 -21.45
55.6937 -35.8009 21.35
5.34185 27.8238 21.35
5.34185 27.8238 -21.45
37.1983 54.5375 -21.45
26.1365 10.3256 -21.45
26.1365 10.3256 21.35
23.0398 26.0251 -21.45
23.0398 26.0251 21.35
29.9204 -8.11625 21.35
-52.0283 23.2845 21.35
21.4951 33.6893 21.35
21.4951 33.6893 -21.45
-35.7555 -54.4321 -21.45
-39.2678 -37.6579 21.35
-35.7555 -54.4321 21.35
-39.2678 -37.6579 -21.45
31.7971 -17.4281 -21.45
31.7971 -17.4281 21.35
-55.5982 40.3338 21.35
22.4907 0.815634 21.35
22.4907 0.815634 -21.45
-55.5982 40.3338 -21.45
7  103 78 111 106 37 36 82  127 255 0
4  80 76 78 103  127 255 0
4  99 67 68 100  0 255 127
10  100 68 30 31 55 117 108 42 44 49  0 255 127
10  99 50 43 69 70 116 56 29 28 67  0 255 127
7  80 83 40 41 107 110 76  127 255 0
4  100 49 50 99  0 255 127
4  103 82 83 80  127 255 0
4  76 110 111 78  127 255 0
4  117 55 56 116  0 255 127
4  116 70 108 117  0 255 127
4  113 19 18 115  0 127 255
3  115 18 20  0 127 255
3  113 21 19  0 127 255
4  115 20 21 113  0 127 255
4  71 16 17 109  0 0 255
4  110 107 106 111  127 255 0
3  109 17 15  0 0 255
3  71 14 16  0 0 255
4  109 15 14 71  0 0 255
4  70 69 42 108  0 255 127
9  60 91 90 20 18 112 65 64 61  255 127 0
4  81 37 79 104  255 0 0
5  81 69 43 38 36  255 0 0
5  84 42 48 119 105  255 0 0
3  84 41 40  255 0 0
5  59 92 26 25 48  255 127 0
5  81 104 120 46 69  255 0 0
5  60 46 24 22 91  255 127 0
4  84 105 77 41  255 0 0
4  59 48 46 60  255 127 0
4  107 41 37 106  127 255 0
4  105 119 35 77  255 0 0
5  52 97 10 8 102  0 255 0
10  53 98 96 86 15 17 118 74 73 54  0 255 0
4  104 79 34 120  255 0 0
5  53 101 9 13 98  0 255 0
4  53 52 102 101  0 255 0
7  119 48 25 47 7 6 35  255 0 0
7  120 34 4 5 45 24 46  255 0 0
4  102 8 9 101  0 255 0
4  35 9 8 34  127 0 255
4  34 8 10 4  127 0 255
4  35 6 13 9  127 0 255
10  121 16 14 85 95 97 52 51 72 75  0 255 0
4  118 17 16 121  0 255 0
4  121 75 74 118  0 255 0
4  93 29 31 94  255 255 0
9  114 19 21 89 92 59 62 63 66  255 127 0
4  112 18 19 114  255 127 0
4  94 31 30 58  255 255 0
4  114 66 65 112  255 127 0
4  47 88 87 45  0 255 255
3  47 25 26  0 255 255
4  45 87 23 22  0 255 255
3  4 32 5  255 0 255
5  6 33 3 2 13  127 0 255
3  6 7 33  255 0 255
4  47 45 5 7  255 0 0
4  97 95 0 10  0 255 0
4  98 13 2 96  0 255 0
5  4 10 0 1 32  127 0 255
4  95 85 11 0  0 255 0
4  96 2 12 86  0 255 0
4  33 32 1 3  127 0 255
4  93 57 28 29  255 255 0
4  94 58 57 93  255 255 0
4  92 89 27 26  255 127 0
4  47 26 27 88  0 255 255
4  91 22 23 90  255 127 0
3  45 22 24  0 255 255
3  89 21 27  255 127 0
3  90 23 20  255 127 0
4  88 27 23 87  0 255 255
3  1 0 11  255 0 127
3  85 14 11  0 255 0
3  3 12 2  255 0 127
3  86 12 15  0 255 0
4  3 1 11 12  255 0 127
4  82 38 39 83  127 255 0
3  83 39 40  127 255 0
5  84 40 39 44 42  255 0 0
3  82 36 38  127 255 0
3  81 36 37  255 0 0
4  21 20 23 27  255 127 0
4  48 42 69 46  255 0 0
4  41 77 79 37  255 0 0
4  72 51 54 73  0 255 0
4  74 75 72 73  0 255 0
4  77 35 34 79  255 0 0
4  15 12 11 14  0 255 0
4  43 50 49 44  0 255 127
4  44 39 38 43  255 0 0
4  29 56 55 31  0 255 127
4  68 67 28 30  0 255 127
4  63 62 61 64  255 127 0
4  66 63 64 65  255 127 0
4  62 59 60 61  255 127 0
4  7 5 32 33  255 0 255
4  30 28 57 58  255 255 0
4  54 51 52 53  0 255 0
4  48 46 24 25  255 0 0
4  46 48 25 24  255 127 0
4  47 25 24 45  255 0 0
4  47 45 24 25  0 255 255
4  44 43 69 42  255 0 0
4  43 44 42 69  0 255 127
6  41 37 36 38 39 40  255 0 0
6  37 41 40 39 38 36  127 255 0
4  6 33 32 4  255 0 255
4  33 6 4 32  127 0 255
4  35 6 4 34  255 0 0
4  6 35 34 4  127 0 255
4  31 29 28 30  255 255 0
4  29 31 30 28  0 255 127
6  27 23 22 24 25 26  255 127 0
6  23 27 26 25 24 22  0 255 255
4  21 19 18 20  255 127 0
4  19 21 20 18  0 127 255
4  17 15 14 16  0 255 0
4  15 17 16 14  0 0 255
6  13 9 8 10 0 2  0 255 0
6  9 13 2 0 10 8  127 0 255
4  12 2 0 11  0 255 0
4  2 12 11 0  255 0 127
4  7 5 4 6  255 0 0
4  5 7 6 4  255 0 255
4  3 1 0 2  127 0 255
4  1 3 2 0  255 0 127

