OFF
122 129 0

-14.4075 23.8598 -21.45
-9.34334 17.4161 -21.45
-14.4075 23.8598 21.35
-9.34334 17.4161 21.35
-0.897733 14.1156 -21.45
-0.867054 6.63091 -21.45
-0.897733 14.1156 21.35
-0.867054 6.63091 21.35
10.3677 19.9085 -21.45
10.3677 19.9085 21.35
-0.928862 21.7101 -21.45
-18.6916 24.543 -21.45
-18.6916 24.543 21.35
-0.928862 21.7101 21.35
-30.1839 26.3759 -21.45
-30.1839 26.3759 21.35
-53.4527 30.0869 -21.45
-53.4527 30.0869 21.35
-36.9506 -48.7245 -21.45
-36.9506 -48.7245 21.35
-16.0225 -31.0408 -21.45
-16.0225 -31.0408 21.35
-0.765483 -18.149 -21.45
-5.15031 -21.854 -21.45
8.25156 -10.5298 -21.45
8.25156 -10.5298 21.35
-0.765483 -18.149 21.35
46.5773 -37.1193 -21.45
36.0312 -38.4375 -21.45
46.5773 -37.1193 21.35
36.0312 -38.4375 21.35
-5.95812 13.1088 -21.45
-5.95812 13.1088 21.35
12.3699 16.7552 -21.45
12.3699 16.7552 21.35
29.9418 20.2512 -21.45
24.4246 19.1535 -21.45
43.6592 22.9803 -21.45
43.6592 22.9803 21.35
29.9418 20.2512 21.35
24.4246 19.1535 21.35
29.4687 -5.875 -21.45
48.7029 -1.65526 -21.45
29.4687 -5.875 21.35
48.7029 -1.65526 21.35
-0.788584 -12.5131 -21.45
19.0493 -8.1609 -21.45
-0.788584 -12.5131 21.35
19.0493 -8.1609 21.35
54.8626 -31.7411 21.35
54.8626 -31.7411 -21.45
-6.31179 37.63 -21.45
1.70038 30.888 -21.45
1.70038 30.888 21.35
-6.31179 37.63 21.35
33.4151 -25.4566 21.35
33.4151 -25.4566 -21.45
39.7942 -41.5223 -21.45
39.7942 -41.5223 21.35
13.4996 -22.6368 21.35
13.4996 -22.6368 -21.45
11.0226 -29.0979 -21.45
11.0226 -29.0979 21.35
-1.69495 -43.2178 21.35
-1.69495 -43.2178 -21.45
-17.7969 -51.3633 -21.45
-17.7969 -51.3633 21.35
55.6937 -35.9797 -21.45
55.6937 -35.9797 21.35
17.3243 17.7409 -21.45
17.3243 17.7409 21.35
-35.3812 44.8778 -21.45
-20.6688 43.3065 -21.45
-20.6688 43.3065 21.35
-35.3812 44.8778 21.35
21.4951 33.6893 21.35
-0.730483 -26.6876 -21.45
21.4951 33.6893 -21.45
-0.730483 -26.6876 21.35
-52.0283 23.2845 -21.45
-39.2678 -37.6579 21.35
55.6937 -35.8009 21.35
36.7575 -42.0412 21.35
37.1983 54.5375 21.35
36.7575 -42.0412 -21.45
55.6937 -35.8009 -21.45
37.1983 54.5375 -21.45
-0.964936 30.5108 21.35
-0.964936 30.5108 -21.45
-35.7555 -54.4321 -21.45
-35.7555 -54.4321 21.35
-55.5982 40.3338 21.35
-55.5982 40.3338 -21.45
-5.15031 -21.854 21.35
5.34185 27.8238 21.35
5.34185 27.8238 -21.45
22.4907 0.815634 21.35
22.4907 0.815634 -21.45
26.1365 10.3256 21.35
26.1806 10.4405 -21.45
23.0398 26.0251 -21.45
39.248 44.5258 -21.45
23.0398 26.0251 21.35
39.248 44.5258 21.35
26.1806 10.4405 21.35
26.1365 10.3256 -21.45
-22.5186 27.4606 -21.45
-22.5186 27.4606 21.35
29.9204 -8.11625 21.35
29.9204 -8.11625 -21.45
-2.00443 -12.7798 -21.45
-2.00443 -12.7798 21.35
-7.49347 -28.6128 21.35
-7.49347 -28.6128 -21.45
-52.0283 23.2845 21.35
-39.2678 -37.6579 -21.45
31.7971 -17.4281 -21.45
31.7971 -17.4281 21.35
-17.766 28.1332 -21.45
17.2935 54.5375 21.35
17.2935 54.5375 -21.45
-17.766 28.1332 21.35
7  86 120 77 100 36 35 101  127 255 0
4  83 119 120 86  127 255 0
4  85 67 68 81  0 255 127
10  81 68 29 30 55 117 108 43 44 49  0 255 127
10  85 50 42 41 109 116 56 28 27 67  0 255 127
7  83 103 39 40 102 75 119  127 255 0
4  81 49 50 85  0 255 127
4  86 101 103 83  127 255 0
4  119 75 77 120  127 255 0
4  117 55 56 116  0 255 127
4  116 109 108 117  0 255 127
4  80 19 18 115  0 127 255
3  115 18 20  0 127 255
3  80 21 19  0 127 255
4  115 20 21 80  0 127 255
4  79 16 17 114  0 0 255
4  75 102 100 77  127 255 0
3  114 17 15  0 0 255
3  79 14 16  0 0 255
4  114 15 14 79  0 0 255
4  109 41 43 108  0 255 127
9  60 76 113 20 18 89 65 64 61  255 127 0
4  99 36 69 105  255 0 0
5  99 41 42 37 35  255 0 0
5  104 43 48 96 98  255 0 0
3  104 40 39  255 0 0
5  59 78 26 25 48  255 127 0
5  99 105 97 46 41  255 0 0
5  60 46 24 22 76  255 127 0
4  104 98 70 40  255 0 0
4  59 48 46 60  255 127 0
4  102 40 36 100  127 255 0
4  98 96 34 70  255 0 0
5  52 88 10 8 95  0 255 0
10  53 87 121 107 15 17 91 74 73 54  0 255 0
4  105 69 33 97  255 0 0
5  53 94 9 13 87  0 255 0
4  53 52 95 94  0 255 0
7  96 48 25 47 7 6 34  255 0 0
7  97 33 4 5 45 24 46  255 0 0
4  95 8 9 94  0 255 0
4  34 9 8 33  127 0 255
4  33 8 10 4  127 0 255
4  34 6 13 9  127 0 255
10  92 16 14 106 118 88 52 51 72 71  0 255 0
4  91 17 16 92  0 255 0
4  92 71 74 91  0 255 0
4  84 28 30 82  255 255 0
9  90 19 21 112 78 59 62 63 66  255 127 0
4  89 18 19 90  255 127 0
4  82 30 29 58  255 255 0
4  90 66 65 89  255 127 0
4  47 111 110 45  0 255 255
3  47 25 26  0 255 255
4  45 110 23 22  0 255 255
3  4 31 5  255 0 255
5  6 32 3 2 13  127 0 255
3  6 7 32  255 0 255
4  47 45 5 7  255 0 0
4  88 118 0 10  0 255 0
4  87 13 2 121  0 255 0
5  4 10 0 1 31  127 0 255
4  118 106 11 0  0 255 0
4  121 2 12 107  0 255 0
4  32 31 1 3  127 0 255
4  84 57 27 28  255 255 0
4  82 58 57 84  255 255 0
4  78 112 93 26  255 127 0
4  47 26 93 111  0 255 255
4  76 22 23 113  255 127 0
3  45 22 24  0 255 255
3  112 21 93  255 127 0
3  113 23 20  255 127 0
4  111 93 23 110  0 255 255
3  1 0 11  255 0 127
3  106 14 11  0 255 0
3  3 12 2  255 0 127
3  107 12 15  0 255 0
4  3 1 11 12  255 0 127
4  101 37 38 103  127 255 0
3  103 38 39  127 255 0
5  104 39 38 44 43  255 0 0
3  101 35 37  127 255 0
3  99 35 36  255 0 0
4  21 20 23 93  255 127 0
4  48 43 41 46  255 0 0
4  40 70 69 36  255 0 0
4  72 51 54 73  0 255 0
4  74 71 72 73  0 255 0
4  70 34 33 69  255 0 0
4  15 12 11 14  0 255 0
4  42 50 49 44  0 255 127
4  44 38 37 42  255 0 0
4  28 56 55 30  0 255 127
4  68 67 27 29  0 255 127
4  63 62 61 64  255 127 0
4  66 63 64 65  255 127 0
4  62 59 60 61  255 127 0
4  7 5 31 32  255 0 255
4  29 27 57 58  255 255 0
4  54 51 52 53  0 255 0
4  48 46 24 25  255 0 0
4  46 48 25 24  255 127 0
4  47 25 24 45  255 0 0
4  47 45 24 25  0 255 255
4  44 42 41 43  255 0 0
4  42 44 43 41  0 255 127
6  40 36 35 37 38 39  255 0 0
6  36 40 39 38 37 35  127 255 0
4  6 32 31 4  255 0 255
4  32 6 4 31  127 0 255
4  34 6 4 33  255 0 0
4  6 34 33 4  127 0 255
4  30 28 27 29  255 255 0
4  28 30 29 27  0 255 127
6  93 23 22 24 25 26  255 127 0
6  23 93 26 25 24 22  0 255 255
4  21 19 18 20  255 127 0
4  19 21 20 18  0 127 255
4  17 15 14 16  0 255 0
4  15 17 16 14  0 0 255
6  13 9 8 10 0 2  0 255 0
6  9 13 2 0 10 8  127 0 255
4  12 2 0 11  0 255 0
4  2 12 11 0  255 0 127
4  7 5 4 6  255 0 0
4  5 7 6 4  255 0 255
4  3 1 0 2  127 0 255
4  1 3 2 0  255 0 127

