COFF
138 205 0

36.0312 -38.4375 21.35
35.5312 -38.5 21.35
36.0312 -40.4375 21.35
43.9688 -38.8125 21.35
47.5312 -36.5 21.35
55.5938 -35.3125 21.35
37.2187 54.4375 21.35
29.6562 53.1875 21.35
17.1562 51.875 21.35
17.4688 50.0625 21.35
17.9688 50.1875 21.35
24.4062 53.625 21.35
-55.5938 40.3125 21.35
-51.9688 23 21.35
-40.8438 25.125 21.35
-44.4062 42.875 21.35
-36.0938 44.6875 21.35
-32.5312 26.0625 21.35
-31.9688 44.5625 21.35
-27.4688 44.25 21.35
-28.7188 26.0625 21.35
-20.8438 43.0625 21.35
-25.4063 25.6875 21.35
-21.5938 24.9375 21.35
-12.5313 40.4375 21.35
-16.0938 22.5625 21.35
-6.34375 37.25 21.35
-3.65625 35.4375 21.35
-9.78125 17.75 21.35
1.28125 31.5 21.35
5.34375 27.4375 21.35
-6.21875 13.6875 21.35
8.34375 23.4375 21.35
10.5312 19.5 21.35
-3.78125 10.0625 21.35
12.3438 16.75 21.35
-2.15625 5.6875 21.35
-28.1563 -34.9375 21.35
-39.7188 -37.1875 21.35
-36.1562 -54.4375 21.35
-21.6563 -52.125 21.35
-23.9063 -33.6875 21.35
-18.3438 -51.1875 21.35
-13.1563 -49.1875 21.35
-19.5938 -32.25 21.35
-8.34375 -46.875 21.35
-14.5938 -29.625 21.35
-2.09375 -43 21.35
-11.5313 -27.4375 21.35
2.40625 -38.9375 21.35
-8.34375 -24.375 21.35
7.65625 -33.1875 21.35
-4.21875 -18.6875 21.35
10.7812 -28.5625 21.35
12.4688 -25.5 21.35
-3.03125 -15.875 21.35
13.0938 -23.9375 21.35
14.5312 -20.625 21.35
-1.78125 -12.5625 21.35
14.7812 -20 21.35
14.8437 -19.875 21.35
16.5938 -13.5625 21.35
-1.09375 -9.4375 21.35
17.2188 -8.5625 21.35
-0.781254 -6.6875 21.35
-0.593754 -3.625 21.35
-1.09375 1.9375 21.35
29.4688 -5.875 21.35
24.2812 19.125 21.35
36.0312 -38.4375 -21.35
35.5312 -38.5 -21.35
36.0312 -40.4375 -21.35
43.9688 -38.8125 -21.35
47.5312 -36.5 -21.35
55.5938 -35.3125 -21.35
37.2187 54.4375 -21.35
29.6562 53.1875 -21.35
24.4062 53.625 -21.35
17.1562 51.875 -21.35
17.4688 50.0625 -21.35
17.9688 50.1875 -21.35
24.2812 19.125 -21.35
12.3438 16.75 -21.35
10.5312 19.5 -21.35
8.34375 23.4375 -21.35
5.34375 27.4375 -21.35
1.28125 31.5 -21.35
-3.65625 35.4375 -21.35
-6.34375 37.25 -21.35
-12.5313 40.4375 -21.35
-20.8438 43.0625 -21.35
-27.4688 44.25 -21.35
-31.9688 44.5625 -21.35
-36.0938 44.6875 -21.35
-44.4062 42.875 -21.35
-55.5938 40.3125 -21.35
-51.9688 23 -21.35
-40.8438 25.125 -21.35
-32.5312 26.0625 -21.35
-28.7188 26.0625 -21.35
-25.4063 25.6875 -21.35
-21.5938 24.9375 -21.35
-16.0938 22.5625 -21.35
-9.78125 17.75 -21.35
-6.21875 13.6875 -21.35
-3.78125 10.0625 -21.35
-2.15625 5.6875 -21.35
-1.09375 1.9375 -21.35
-0.593754 -3.625 -21.35
-0.781254 -6.6875 -21.35
-1.09375 -9.4375 -21.35
-1.78125 -12.5625 -21.35
-3.03125 -15.875 -21.35
-4.21875 -18.6875 -21.35
-8.34375 -24.375 -21.35
-11.5313 -27.4375 -21.35
-14.5938 -29.625 -21.35
-19.5938 -32.25 -21.35
-23.9063 -33.6875 -21.35
-28.1563 -34.9375 -21.35
-39.7188 -37.1875 -21.35
-36.1562 -54.4375 -21.35
-21.6563 -52.125 -21.35
-18.3438 -51.1875 -21.35
-13.1563 -49.1875 -21.35
-8.34375 -46.875 -21.35
-2.09375 -43 -21.35
2.40625 -38.9375 -21.35
7.65625 -33.1875 -21.35
10.7812 -28.5625 -21.35
12.4688 -25.5 -21.35
13.0938 -23.9375 -21.35
14.5312 -20.625 -21.35
14.7812 -20 -21.35
14.8437 -19.875 -21.35
16.5938 -13.5625 -21.35
17.2188 -8.5625 -21.35
29.4688 -5.875 -21.35
3  0 1 2  255 0 0
3  0 2 3  255 0 0
3  4 5 6  255 0 0
3  4 6 7  255 0 0
3  8 9 10  255 0 0
3  11 8 10  255 0 0
3  12 13 14  255 0 0
3  15 12 14  255 0 0
3  16 15 14  255 0 0
3  16 14 17  255 0 0
3  18 16 17  255 0 0
3  19 18 17  255 0 0
3  19 17 20  255 0 0
3  21 19 20  255 0 0
3  21 20 22  255 0 0
3  21 22 23  255 0 0
3  24 21 23  255 0 0
3  24 23 25  255 0 0
3  26 24 25  255 0 0
3  27 26 25  255 0 0
3  27 25 28  255 0 0
3  29 27 28  255 0 0
3  30 29 28  255 0 0
3  30 28 31  255 0 0
3  32 30 31  255 0 0
3  33 32 31  255 0 0
3  33 31 34  255 0 0
3  35 33 34  255 0 0
3  35 34 36  255 0 0
3  37 38 39  255 0 0
3  37 39 40  255 0 0
3  41 37 40  255 0 0
3  41 40 42  255 0 0
3  41 42 43  255 0 0
3  44 41 43  255 0 0
3  44 43 45  255 0 0
3  46 44 45  255 0 0
3  46 45 47  255 0 0
3  48 46 47  255 0 0
3  48 47 49  255 0 0
3  50 48 49  255 0 0
3  50 49 51  255 0 0
3  52 50 51  255 0 0
3  52 51 53  255 0 0
3  52 53 54  255 0 0
3  55 52 54  255 0 0
3  55 54 56  255 0 0
3  55 56 57  255 0 0
3  58 55 57  255 0 0
3  58 57 59  255 0 0
3  58 59 60  255 0 0
3  58 60 61  255 0 0
3  62 58 61  255 0 0
3  62 61 63  255 0 0
3  64 62 63  255 0 0
3  65 64 63  255 0 0
3  66 65 63  255 0 0
3  36 66 63  255 0 0
3  35 36 63  255 0 0
3  35 63 67  255 0 0
3  68 35 67  255 0 0
3  10 68 67  255 0 0
3  11 10 67  255 0 0
3  7 11 67  255 0 0
3  4 7 67  255 0 0
3  3 4 67  255 0 0
3  0 3 67  255 0 0
3  69 70 1  255 0 255
3  1 0 69  255 0 255
3  70 71 2  0 128 128
3  2 1 70  0 128 128
3  71 72 3  128 0 255
3  3 2 71  128 0 255
3  72 73 4  128 64 255
3  4 3 72  128 64 255
3  73 74 5  255 0 255
3  5 4 73  255 0 255
3  74 75 6  255 255 64
3  6 5 74  255 255 64
3  75 76 7  0 255 255
3  7 6 75  0 255 255
3  76 77 11  128 128 0
3  11 7 76  128 128 0
3  77 78 8  64 255 255
3  8 11 77  64 255 255
3  78 79 9  255 128 64
3  9 8 78  255 128 64
3  79 80 10  0 255 255
3  10 9 79  0 255 255
3  80 81 68  0 0 255
3  68 10 80  0 0 255
3  81 82 35  128 0 128
3  35 68 81  128 0 128
3  82 83 33  0 0 192
3  33 35 82  0 0 192
3  83 84 32  0 0 192
3  32 33 83  0 0 192
3  84 85 30  0 0 192
3  30 32 84  0 0 192
3  85 86 29  255 255 128
3  29 30 85  255 255 128
3  86 87 27  255 255 128
3  27 29 86  255 255 128
3  87 88 26  255 255 128
3  26 27 87  255 255 128
3  88 89 24  192 0 192
3  24 26 88  192 0 192
3  89 90 21  192 0 192
3  21 24 89  192 0 192
3  90 91 19  128 255 128
3  19 21 90  128 255 128
3  91 92 18  128 255 128
3  18 19 91  128 255 128
3  92 93 16  128 255 128
3  16 18 92  128 255 128
3  93 94 15  255 255 0
3  15 16 93  255 255 0
3  94 95 12  255 255 0
3  12 15 94  255 255 0
3  95 96 13  64 255 128
3  13 12 95  64 255 128
3  96 97 14  255 128 255
3  14 13 96  255 128 255
3  97 98 17  255 128 255
3  17 14 97  255 128 255
3  98 99 20  255 128 255
3  20 17 98  255 128 255
3  99 100 22  192 192 0
3  22 20 99  192 192 0
3  100 101 23  192 192 0
3  23 22 100  192 192 0
3  101 102 25  255 64 255
3  25 23 101  255 64 255
3  102 103 28  64 64 255
3  28 25 102  64 64 255
3  103 104 31  0 192 192
3  31 28 103  0 192 192
3  104 105 34  0 192 192
3  34 31 104  0 192 192
3  105 106 36  192 0 0
3  36 34 105  192 0 0
3  106 107 66  192 0 0
3  66 36 106  192 0 0
3  107 108 65  128 128 255
3  65 66 107  128 128 255
3  108 109 64  128 128 255
3  64 65 108  128 128 255
3  109 110 62  128 128 255
3  62 64 109  128 128 255
3  110 111 58  255 128 128
3  58 62 110  255 128 128
3  111 112 55  255 128 128
3  55 58 111  255 128 128
3  112 113 52  255 128 128
3  52 55 112  255 128 128
3  113 114 50  64 255 64
3  50 52 113  64 255 64
3  114 115 48  255 64 64
3  48 50 114  255 64 64
3  115 116 46  255 64 64
3  46 48 115  255 64 64
3  116 117 44  255 128 0
3  44 46 116  255 128 0
3  117 118 41  255 128 0
3  41 44 117  255 128 0
3  118 119 37  255 128 0
3  37 41 118  255 128 0
3  119 120 38  255 128 0
3  38 37 119  255 128 0
3  120 121 39  64 255 128
3  39 38 120  64 255 128
3  121 122 40  128 0 255
3  40 39 121  128 0 255
3  122 123 42  128 0 255
3  42 40 122  128 0 255
3  123 124 43  0 192 0
3  43 42 123  0 192 0
3  124 125 45  0 192 0
3  45 43 124  0 192 0
3  125 126 47  0 192 0
3  47 45 125  0 192 0
3  126 127 49  128 255 255
3  49 47 126  128 255 255
3  127 128 51  128 255 255
3  51 49 127  128 255 255
3  128 129 53  128 255 255
3  53 51 128  128 255 255
3  129 130 54  0 255 0
3  54 53 129  0 255 0
3  130 131 56  0 255 0
3  56 54 130  0 255 0
3  131 132 57  0 255 0
3  57 56 131  0 255 0
3  132 133 59  0 255 0
3  59 57 132  0 255 0
3  133 134 60  0 255 0
3  60 59 133  0 255 0
3  134 135 61  0 255 0
3  61 60 134  0 255 0
3  135 136 63  128 255 64
3  63 61 135  128 255 64
3  136 137 67  64 128 255
3  67 63 136  64 128 255
3  137 69 0  0 0 255
3  0 67 137  0 0 255

