OFF
104 79 0

54.8626 -31.7411 21.35
54.8626 -31.7411 -21.45
-6.31179 37.63 -21.45
1.70038 30.888 -21.45
1.70038 30.888 21.35
-6.31179 37.63 21.35
33.4151 -25.4566 -21.45
46.5773 -37.1193 -21.45
46.5773 -37.1193 21.35
39.7942 -41.5223 21.35
-0.867054 6.63091 -21.45
-5.95812 13.1088 -21.45
-0.867054 6.63091 21.35
13.4996 -22.6368 -21.45
11.0226 -29.0979 21.35
13.4996 -22.6368 21.35
-17.7969 -51.3633 21.35
-17.7969 -51.3633 -21.45
11.0226 -29.0979 -21.45
55.6937 -35.9797 -21.45
36.0312 -38.4375 21.35
-1.69495 -43.2178 21.35
29.4687 -5.875 -21.45
48.7029 -1.65526 21.35
48.7029 -1.65526 -21.45
-18.6916 24.543 21.35
-30.1839 26.3759 -21.45
-30.1839 26.3759 21.35
-18.6916 24.543 -21.45
12.3699 16.7552 21.35
12.3699 16.7552 -21.45
-35.3812 44.8778 -21.45
-20.6688 43.3065 -21.45
-20.6688 43.3065 21.35
24.4246 19.1535 21.35
17.3243 17.7409 21.35
24.4246 19.1535 -21.45
19.0493 -8.1609 -21.45
29.4687 -5.875 21.35
-16.0225 -31.0408 -21.45
-5.15031 -21.854 -21.45
-16.0225 -31.0408 21.35
-5.15031 -21.854 21.35
26.1806 10.4405 -21.45
39.248 44.5258 21.35
26.1806 10.4405 21.35
-9.34334 17.4161 -21.45
-22.5186 27.4606 -21.45
55.6937 -35.8009 -21.45
-1.69495 -43.2178 -21.45
36.0312 -38.4375 -21.45
-2.00443 -12.7798 -21.45
-2.00443 -12.7798 21.35
26.1365 10.3256 21.35
-7.49347 -28.6128 21.35
-7.49347 -28.6128 -21.45
23.0398 26.0251 21.35
-0.730483 -26.6876 -21.45
-0.788584 -12.5131 21.35
-0.730483 -26.6876 21.35
36.7575 -42.0412 21.35
-5.95812 13.1088 21.35
-17.766 28.1332 21.35
-17.766 28.1332 -21.45
-0.897733 14.1156 -21.45
-0.964936 30.5108 -21.45
-0.964936 30.5108 21.35
17.2935 54.5375 -21.45
-9.34334 17.4161 21.35
39.248 44.5258 -21.45
-0.788584 -12.5131 -21.45
33.4151 -25.4566 21.35
31.7971 -17.4281 21.35
-0.897733 14.1156 21.35
-35.7555 -54.4321 21.35
-22.5186 27.4606 21.35
17.3243 17.7409 -21.45
-55.5982 40.3338 21.35
-35.7555 -54.4321 -21.45
-35.3812 44.8778 21.35
-52.0283 23.2845 -21.45
-55.5982 40.3338 -21.45
21.4951 33.6893 21.35
36.7575 -42.0412 -21.45
29.9204 -8.11625 21.35
19.0493 -8.1609 21.35
22.4907 0.815634 -21.45
23.0398 26.0251 -21.45
5.34185 27.8238 -21.45
5.34185 27.8238 21.35
55.6937 -35.8009 21.35
17.2935 54.5375 21.35
22.4907 0.815634 21.35
-39.2678 -37.6579 21.35
55.6937 -35.9797 21.35
26.1365 10.3256 -21.45
39.7942 -41.5223 -21.45
29.9204 -8.11625 -21.45
-39.2678 -37.6579 -21.45
21.4951 33.6893 -21.45
-52.0283 23.2845 21.35
31.7971 -17.4281 -21.45
37.1983 54.5375 21.35
37.1983 54.5375 -21.45
7  103 67 99 87 36 43 69  255 0 0
4  102 91 67 103  255 0 0
4  48 19 94 90  255 0 0
10  90 94 8 20 71 72 84 38 23 0  255 0 0
10  48 1 24 22 97 101 6 50 7 19  255 0 0
7  102 44 45 34 56 82 91  255 0 0
4  90 0 1 48  255 0 0
4  103 69 44 102  255 0 0
4  91 82 99 67  255 0 0
4  72 71 6 101  255 0 0
4  101 97 84 72  255 0 0
4  93 74 78 98  255 0 0
9  98 78 17 49 18 13 57 55 39  255 0 0
9  93 41 54 59 15 14 21 16 74  255 0 0
4  98 39 41 93  255 0 0
4  80 81 77 100  255 0 0
4  82 56 87 99  255 0 0
10  100 77 79 33 5 4 66 62 75 27  255 0 0
10  80 26 47 63 65 3 2 32 31 81  255 0 0
4  100 27 26 80  255 0 0
4  97 22 38 84  255 0 0
4  43 36 76 95  255 0 0
4  43 22 24 69  255 0 0
5  45 38 85 92 53  255 0 0
4  15 59 58 85  255 0 0
5  43 95 86 37 22  255 0 0
4  13 37 70 57  255 0 0
4  45 53 35 34  255 0 0
4  15 85 37 13  255 0 0
4  56 34 36 87  255 0 0
4  53 92 29 35  255 0 0
5  3 65 64 30 88  255 0 0
4  95 76 30 86  255 0 0
5  4 89 29 73 66  255 0 0
4  4 3 88 89  255 0 0
6  92 85 58 12 73 29  255 0 0
6  86 30 64 10 70 37  255 0 0
4  88 30 29 89  255 0 0
4  81 31 79 77  255 0 0
4  83 50 20 60  255 0 0
4  60 20 8 9  255 0 0
4  74 16 17 78  255 0 0
4  58 52 51 70  255 0 0
5  70 51 40 55 57  255 0 0
3  64 11 10  255 0 0
5  73 61 68 62 66  255 0 0
3  73 12 61  255 0 0
4  58 70 10 12  255 0 0
5  65 63 46 11 64  255 0 0
4  63 47 28 46  255 0 0
4  62 68 25 75  255 0 0
4  61 11 46 68  255 0 0
4  83 96 7 50  255 0 0
4  60 9 96 83  255 0 0
5  59 54 42 52 58  255 0 0
3  54 41 42  255 0 0
3  55 40 39  255 0 0
4  52 42 40 51  255 0 0
3  47 26 28  255 0 0
3  75 25 27  255 0 0
4  68 46 28 25  255 0 0
4  69 24 23 44  255 0 0
4  44 23 38 45  255 0 0
4  41 39 40 42  255 0 0
4  85 38 22 37  255 0 0
4  34 35 76 36  255 0 0
4  32 2 5 33  255 0 0
4  79 31 32 33  255 0 0
4  35 29 30 76  255 0 0
4  27 25 28 26  255 0 0
4  24 1 0 23  255 0 0
4  50 6 71 20  255 0 0
4  94 19 7 8  255 0 0
4  21 14 18 49  255 0 0
4  16 21 49 17  255 0 0
4  14 15 13 18  255 0 0
4  12 10 11 61  255 0 0
4  8 7 96 9  255 0 0
4  5 2 3 4  255 0 0

