OFF
138 205 0
835459.318012237549 817418.817893981934 59.899997711182
835458.818012237549 817418.755393981934 59.899997711182
835459.318012237549 817416.817895889282 59.899997711182
835467.255516052246 817418.442895889282 59.899997711182
835470.818016052246 817420.755393981934 59.899997711182
835478.880516052246 817421.942893981934 59.899997711182
835460.505512237549 817511.692901611328 59.899997711182
835452.943016052246 817510.442901611328 59.899997711182
835440.443016052246 817509.130401611328 59.899997711182
835440.755516052246 817507.317901611328 59.899997711182
835441.255516052246 817507.442901611328 59.899997711182
835447.693016052246 817510.880401611328 59.899997711182
835367.693016052246 817497.567893981934 59.899997711182
835371.318016052246 817480.255393981934 59.899997711182
835382.443016052246 817482.380393981934 59.899997711182
835378.880516052246 817500.130386352539 59.899997711182
835387.193016052246 817501.942901611328 59.899997711182
835390.755516052246 817483.317893981934 59.899997711182
835391.318016052246 817501.817901611328 59.899997711182
835395.818012237549 817501.505401611328 59.899997711182
835394.568016052246 817483.317893981934 59.899997711182
835402.443012237549 817500.317886352539 59.899997711182
835397.880512237549 817482.942893981934 59.899997711182
835401.693012237549 817482.192893981934 59.899997711182
835410.755512237549 817497.692893981934 59.899997711182
835407.193012237549 817479.817893981934 59.899997711182
835416.943012237549 817494.505393981934 59.899997711182
835419.630512237549 817492.692893981934 59.899997711182
835413.505512237549 817475.005393981934 59.899997711182
835424.568012237549 817488.755393981934 59.899997711182
835428.630514144897 817484.692893981934 59.899997711182
835417.068012237549 817470.942893981934 59.899997711182
835431.630514144897 817480.692893981934 59.899997711182
835433.818016052246 817476.755393981934 59.899997711182
835419.505512237549 817467.317893981934 59.899997711182
835435.630516052246 817474.005393981934 59.899997711182
835421.130512237549 817462.942893981934 59.899997711182
835395.130512237549 817422.317893981934 59.899997711182
835383.568016052246 817420.067893981934 59.899997711182
835387.130516052246 817402.817894935608 59.899997711182
835401.630512237549 817405.130394935608 59.899997711182
835399.380512237549 817423.567893981934 59.899997711182
835404.943012237549 817406.067894935608 59.899997711182
835410.130512237549 817408.067894935608 59.899997711182
835403.693012237549 817425.005393981934 59.899997711182
835414.943012237549 817410.380394935608 59.899997711182
835408.693012237549 817427.630393981934 59.899997711182
835421.193012237549 817414.255394935608 59.899997711182
835411.755512237549 817429.817893981934 59.899997711182
835425.693012237549 817418.317893981934 59.899997711182
835414.943012237549 817432.880393981934 59.899997711182
835430.943014144897 817424.067893981934 59.899997711182
835419.068012237549 817438.567893981934 59.899997711182
835434.068016052246 817428.692893981934 59.899997711182
835435.755516052246 817431.755393981934 59.899997711182
835420.255512237549 817441.380393981934 59.899997711182
835436.380516052246 817433.317893981934 59.899997711182
835437.818012237549 817436.630393981934 59.899997711182
835421.505512237549 817444.692893981934 59.899997711182
835438.068012237549 817437.255393981934 59.899997711182
835438.130512237549 817437.380393981934 59.899997711182
835439.880516052246 817443.692893981934 59.899997711182
835422.193012237549 817447.817893981934 59.899997711182
835440.505516052246 817448.692893981934 59.899997711182
835422.505512237549 817450.567893981934 59.899997711182
835422.693012237549 817453.630393981934 59.899997711182
835422.193012237549 817459.192893981934 59.899997711182
835452.755516052246 817451.380393981934 59.899997711182
835447.568016052246 817476.380393981934 59.899997711182
835459.318012237549 817418.817893981934 17.200000762939
835458.818012237549 817418.755393981934 17.200000762939
835459.318012237549 817416.817895889282 17.200000762939
835467.255516052246 817418.442895889282 17.200000762939
835470.818016052246 817420.755393981934 17.200000762939
835478.880516052246 817421.942893981934 17.200000762939
835460.505512237549 817511.692901611328 17.200000762939
835452.943016052246 817510.442901611328 17.200000762939
835447.693016052246 817510.880401611328 17.200000762939
835440.443016052246 817509.130401611328 17.200000762939
835440.755516052246 817507.317901611328 17.200000762939
835441.255516052246 817507.442901611328 17.200000762939
835447.568016052246 817476.380393981934 17.200000762939
835435.630516052246 817474.005393981934 17.200000762939
835433.818016052246 817476.755393981934 17.200000762939
835431.630514144897 817480.692893981934 17.200000762939
835428.630514144897 817484.692893981934 17.200000762939
835424.568012237549 817488.755393981934 17.200000762939
835419.630512237549 817492.692893981934 17.200000762939
835416.943012237549 817494.505393981934 17.200000762939
835410.755512237549 817497.692893981934 17.200000762939
835402.443012237549 817500.317886352539 17.200000762939
835395.818012237549 817501.505401611328 17.200000762939
835391.318016052246 817501.817901611328 17.200000762939
835387.193016052246 817501.942901611328 17.200000762939
835378.880516052246 817500.130386352539 17.200000762939
835367.693016052246 817497.567893981934 17.200000762939
835371.318016052246 817480.255393981934 17.200000762939
835382.443016052246 817482.380393981934 17.200000762939
835390.755516052246 817483.317893981934 17.200000762939
835394.568016052246 817483.317893981934 17.200000762939
835397.880512237549 817482.942893981934 17.200000762939
835401.693012237549 817482.192893981934 17.200000762939
835407.193012237549 817479.817893981934 17.200000762939
835413.505512237549 817475.005393981934 17.200000762939
835417.068012237549 817470.942893981934 17.200000762939
835419.505512237549 817467.317893981934 17.200000762939
835421.130512237549 817462.942893981934 17.200000762939
835422.193012237549 817459.192893981934 17.200000762939
835422.693012237549 817453.630393981934 17.200000762939
835422.505512237549 817450.567893981934 17.200000762939
835422.193012237549 817447.817893981934 17.200000762939
835421.505512237549 817444.692893981934 17.200000762939
835420.255512237549 817441.380393981934 17.200000762939
835419.068012237549 817438.567893981934 17.200000762939
835414.943012237549 817432.880393981934 17.200000762939
835411.755512237549 817429.817893981934 17.200000762939
835408.693012237549 817427.630393981934 17.200000762939
835403.693012237549 817425.005393981934 17.200000762939
835399.380512237549 817423.567893981934 17.200000762939
835395.130512237549 817422.317893981934 17.200000762939
835383.568016052246 817420.067893981934 17.200000762939
835387.130516052246 817402.817894935608 17.200000762939
835401.630512237549 817405.130394935608 17.200000762939
835404.943012237549 817406.067894935608 17.200000762939
835410.130512237549 817408.067894935608 17.200000762939
835414.943012237549 817410.380394935608 17.200000762939
835421.193012237549 817414.255394935608 17.200000762939
835425.693012237549 817418.317893981934 17.200000762939
835430.943014144897 817424.067893981934 17.200000762939
835434.068016052246 817428.692893981934 17.200000762939
835435.755516052246 817431.755393981934 17.200000762939
835436.380516052246 817433.317893981934 17.200000762939
835437.818012237549 817436.630393981934 17.200000762939
835438.068012237549 817437.255393981934 17.200000762939
835438.130512237549 817437.380393981934 17.200000762939
835439.880516052246 817443.692893981934 17.200000762939
835440.505516052246 817448.692893981934 17.200000762939
835452.755516052246 817451.380393981934 17.200000762939
3 0 1 2
3 0 2 3
3 4 5 6
3 4 6 7
3 8 9 10
3 11 8 10
3 12 13 14
3 15 12 14
3 16 15 14
3 16 14 17
3 18 16 17
3 19 18 17
3 19 17 20
3 21 19 20
3 21 20 22
3 21 22 23
3 24 21 23
3 24 23 25
3 26 24 25
3 27 26 25
3 27 25 28
3 29 27 28
3 30 29 28
3 30 28 31
3 32 30 31
3 33 32 31
3 33 31 34
3 35 33 34
3 35 34 36
3 37 38 39
3 37 39 40
3 41 37 40
3 41 40 42
3 41 42 43
3 44 41 43
3 44 43 45
3 46 44 45
3 46 45 47
3 48 46 47
3 48 47 49
3 50 48 49
3 50 49 51
3 52 50 51
3 52 51 53
3 52 53 54
3 55 52 54
3 55 54 56
3 55 56 57
3 58 55 57
3 58 57 59
3 58 59 60
3 58 60 61
3 62 58 61
3 62 61 63
3 64 62 63
3 65 64 63
3 66 65 63
3 36 66 63
3 35 36 63
3 35 63 67
3 68 35 67
3 10 68 67
3 11 10 67
3 7 11 67
3 4 7 67
3 3 4 67
3 0 3 67
3 69 70 1
3 1 0 69
3 70 71 2
3 2 1 70
3 71 72 3
3 3 2 71
3 72 73 4
3 4 3 72
3 73 74 5
3 5 4 73
3 74 75 6
3 6 5 74
3 75 76 7
3 7 6 75
3 76 77 11
3 11 7 76
3 77 78 8
3 8 11 77
3 78 79 9
3 9 8 78
3 79 80 10
3 10 9 79
3 80 81 68
3 68 10 80
3 81 82 35
3 35 68 81
3 82 83 33
3 33 35 82
3 83 84 32
3 32 33 83
3 84 85 30
3 30 32 84
3 85 86 29
3 29 30 85
3 86 87 27
3 27 29 86
3 87 88 26
3 26 27 87
3 88 89 24
3 24 26 88
3 89 90 21
3 21 24 89
3 90 91 19
3 19 21 90
3 91 92 18
3 18 19 91
3 92 93 16
3 16 18 92
3 93 94 15
3 15 16 93
3 94 95 12
3 12 15 94
3 95 96 13
3 13 12 95
3 96 97 14
3 14 13 96
3 97 98 17
3 17 14 97
3 98 99 20
3 20 17 98
3 99 100 22
3 22 20 99
3 100 101 23
3 23 22 100
3 101 102 25
3 25 23 101
3 102 103 28
3 28 25 102
3 103 104 31
3 31 28 103
3 104 105 34
3 34 31 104
3 105 106 36
3 36 34 105
3 106 107 66
3 66 36 106
3 107 108 65
3 65 66 107
3 108 109 64
3 64 65 108
3 109 110 62
3 62 64 109
3 110 111 58
3 58 62 110
3 111 112 55
3 55 58 111
3 112 113 52
3 52 55 112
3 113 114 50
3 50 52 113
3 114 115 48
3 48 50 114
3 115 116 46
3 46 48 115
3 116 117 44
3 44 46 116
3 117 118 41
3 41 44 117
3 118 119 37
3 37 41 118
3 119 120 38
3 38 37 119
3 120 121 39
3 39 38 120
3 121 122 40
3 40 39 121
3 122 123 42
3 42 40 122
3 123 124 43
3 43 42 123
3 124 125 45
3 45 43 124
3 125 126 47
3 47 45 125
3 126 127 49
3 49 47 126
3 127 128 51
3 51 49 127
3 128 129 53
3 53 51 128
3 129 130 54
3 54 53 129
3 130 131 56
3 56 54 130
3 131 132 57
3 57 56 131
3 132 133 59
3 59 57 132
3 133 134 60
3 60 59 133
3 134 135 61
3 61 60 134
3 135 136 63
3 63 61 135
3 136 137 67
3 67 63 136
3 137 69 0
3 0 67 137
