OFF
495 432 0

-0.458488 -0.136906 108.6
3.96012 -19.3067 94.9903
3.95 -19.3 94.9903
-19.3328 -3.91134 95.0199
-19.35 -3.9 95.02
-16.1076 0.984653 100.899
-5.43517 3.14484 108.6
-1.1306 0.306299 108.6
0.0416965 -0.036881 108.96
0.0609735 -0.049592 108.96
0.161423 -0.54569 108.6
3.95671 -19.2899 95.0025
0.55771 0.0540611 108.6
-0.55 -1.62237 108.6
-3.08679 -5.46161 108.6
-0.299973 -1.24398 108.6
19.3311 3.97147 94.9988
3.95 -19.3 95.0025
3.41133 -18.944 95.6529
-0.55 -16.3257 100.436
-0.950756 -16.0609 100.919
-2.63501 -7.70341 106.976
-0.0609902 0.462 108.6
1.08796 -0.29556 108.6
5.39923 -3.13818 108.6
-5.03783 3.74347 108.6
-7.20441 14.3972 100.9
-3.95 19.3 95.017
-3.9367 19.2913 95.017
-0.55 17.0674 95.0094
0.818125 16.169 95.0063
6.19249 12.6399 94.9942
7.66573 11.6725 94.9909
9.05495 10.7603 94.9878
10.8911 9.55454 94.9836
19.35 4 94.9646
18.9791 3.43886 95.6371
16.7459 0.0600639 99.6862
16.0798 -0.947759 100.894
15.0064 -1.1679 101.668
9.68088 -2.26008 105.511
-15.141 -15.3394 81.7359
-17.3571 -13.8619 77.04
-6.52782 -21.0815 77.04
-18.95 -12.8 -145.06
-15.1627 -15.3249 -149.838
-11.75 -17.6 -154.143
-6.52782 -21.0815 -147.7
-4.75252 -22.265 -145.51
-4.75252 -22.265 -137.46
-4.75252 -22.265 69.1972
-4.75252 -22.265 69.44
-4.75252 -22.265 77.04
-6.52782 -21.0815 79.533
-11.7041 -17.6306 85.9571
-11.75 -17.6 86.014
-17.3571 -13.8619 78.94
-18.8632 -12.8579 77.04
-18.95 -12.8 77.04
-18.95 -12.8 69.44
-18.95 -12.8 68.4842
-18.95 -12.8 -137.211
-16.9727 12.7946 77.04
-13.9834 17.2941 69.44
-21.3682 6.17874 69.44
-12.85 19 -137.46
-13.9834 17.2941 -139.586
-17.6691 11.7465 -146.498
-17.7153 11.6769 -146.585
-21.3682 6.17874 -139.69
-22.2297 4.88205 -138.064
-22.2297 4.88205 69.44
-21.3682 6.17874 71.34
-18.4424 10.5826 77.04
-13.9834 17.2941 71.34
-12.9869 18.7939 69.44
-12.85 19 69.44
-12.85 19 69.1789
4.74339 22.2633 69.44
17.3641 13.9246 77.04
6.05 21.4 77.04
11.65 17.7 86.014
19.0698 12.7976 76.8284
19.0698 12.7976 77.04
19.0698 12.7976 69.44
19.0698 12.7976 68.8475
19.0698 12.7976 -137.12
19.0698 12.7976 -145.06
11.65 17.7 -154.143
8.32689 19.8956 -149.993
4.74339 22.2633 -145.519
4.74339 22.2633 -137.46
4.74339 22.2633 68.9667
4.74339 22.2633 77.04
6.05 21.4 78.94
11.65 17.7 86.014
17.3641 13.9246 78.94
18.8989 12.9105 77.04
22.4289 -4.55746 -137.708
13.7724 -17.3144 69.44
21.1758 -6.40412 69.44
12.5967 -19.047 69.1952
12.5967 -19.047 69.44
12.5967 -19.047 -137.46
13.7724 -17.3144 -139.573
17.65 -11.6 -146.543
17.65 -11.6 -146.543
21.1758 -6.40412 -140.025
22.4289 -4.55746 69.44
21.1758 -6.40412 71.8505
18.3881 -10.5123 77.04
17.65 -11.6 77.04
16.8968 -12.7099 77.04
13.7724 -17.3144 71.34
12.7309 -18.8492 69.44
-29.3646 -5.85696 -131.922
-1.81213 -0.899773 108.6
-5.45084 -3.8943 108.6
-1.99828 -6.18326 108.6
-0.55 -2.80394 108.6
18.7199 4.41378 98.2545
19.35 4 97.7456
9.64423 2.53024 107.475
8.65141 1.84034 108.6
18.978 3.43725 98.2406
10.0475 1.57178 107.316
8.66105 1.8017 108.6
15.4473 6.56269 100.897
16.9847 0.421389 100.893
24.3554 0.713186 88.9674
22.0764 -2.7364 88.9671
7.30977 1.00071 108.6
7.06124 1.99604 108.6
4.52262 1.46916 111.187
4.10464 1.17634 111.663
4.03341 0.761368 111.832
4.09103 0.680164 111.796
5.02127 0.522665 110.933
8.09161 2.20857 108.6
0.692404 0.682037 108.836
0.968151 0.739165 108.635
1.0171 0.749306 108.6
0.506153 0.643451 108.971
-17.3571 -13.8619 87.78
-17.5258 -12.9623 88.44
19.3784 3.98134 94.9645
1.03684 1.44483 108.97
1.39517 1.73972 108.832
4.68653 4.44839 108.6
2.00089 2.23821 108.6
7.53543 0.0969957 108.6
0.0676784 25.3526 87.7541
-0.31173 24.781 88.44
10.9923 16.7051 88.9597
12.3812 15.7875 88.9612
27.65 5.7 88.9678
0.951361 -7.24714 108.6
1.96293 -7.05465 108.6
3.95 -19.3 96.1477
4.28175 -18.7981 96.5806
3.40948 -18.9427 96.6016
2.15899 -8.04538 108.6
0.75194 -0.935091 108.6
4.28315 -18.7959 100.903
4.28143 -18.7985 95.5931
-13.9834 17.2941 77.04
-8.3009 -1.17272 108.6
-0.633561 0.408374 108.96
27.6415 5.70559 88.978
28.0872 5.41118 88.44
0.694545 1.60036 108.6
0.69118 0.922853 108.97
0.694545 0.26115 108.6
0.767091 16.2025 100.62
-23.55 15.6 69.44
-24.1965 15.4855 69.44
20.9797 2.92985 93.035
24.7931 0.425803 88.44
25.4968 -0.0363062 87.592
-0.55 -7.14344 108.6
-0.55 -16.3257 100.92
22.9037 -15.6199 71.34
22.9037 -15.6199 69.44
8.26334 1.19937 108.6
0.59124 -0.399242 108.96
-8.01755 -2.19262 108.6
-0.308476 -0.586697 108.972
-0.828839 -0.694912 108.6
11.9955 6.70446 102.681
-21.3682 6.17874 77.04
-13.1524 -16.6651 87.7545
-12.7793 -16.0922 88.44
-11.2237 19.3017 88.9659
-21.916 3.1906 88.9665
18.7237 4.41128 100.894
18.7163 4.41615 95.7624
18.977 3.4356 100.892
-17.3571 -13.8619 84.4108
-15.6849 -22.7807 77.04
-15.6849 -22.7807 78.94
-1.7568 8.68674 108.6
3.22352 5.41074 108.6
2.50955 4.33501 108.6
-3.95 19.3 100.9
10.8911 9.55454 97.2967
10.8911 9.55454 100.901
5.88745 5.4367 107.11
6.43983 -28.1202 88.0125
6.43983 -28.1202 77.04
0.891093 0.55861 108.6
1.69073 2.43225 108.968
6.15055 12.6675 100.906
3.14169 5.80398 108.316
-9.13318 24.5944 69.44
-12.85 19 76.1414
3.77829 22.0843 88.44
-5.81334 28.4085 88.44
-11.9466 19.1676 88.44
3.83248 5.01018 108.6
8.67592 1.82422 108.6
14.4543 7.2148 100.898
19.35 4 94.9988
19.35 4 100.891
19.3482 4.00115 100.893
1.16703 -8.28179 108.6
3.40102 -18.9372 100.927
13.7724 -17.3144 77.04
-23.55 15.6 71.34
19.387 11.1591 88.9689
13.7557 7.67354 100.899
12.6689 16.2223 88.44
13.0393 16.7821 87.7689
22.7866 -14.9954 72.2553
22.7866 -14.9954 72.2553
12.5967 -19.047 87.8211
12.5665 -19.0915 87.8773
5.68934 -29.2262 -132.628
12.5967 -19.047 -144.688
-17.0517 -23.0343 77.04
-16.9583 -23.017 77.04
6.05 21.4 87.761
15.55 23.6 78.94
23.55 -15.5 69.44
23.55 -15.5 71.34
26.4434 1.35865 69.44
22.4289 -4.55746 76.6801
25.0379 8.85441 69.44
-23.55 15.6 71.34
-15.0278 -22.6588 77.04
-15.0278 -22.6588 79.9203
-15.0278 -22.6588 79.9547
-13.4868 4.71067 -157.6
-10.9474 -8.97995 -157.6
-19.5416 8.92816 -150.01
-22.2297 4.88205 -145.06
15.55 23.6 77.04
15.55 23.6 78.94
15.55 23.6 78.94
22.7866 -14.9954 -140.388
22.7866 -14.9954 69.44
-5.63302 -7.99421 -157.6
-8.62005 5.61338 -157.6
-8.44101 5.64659 -157.6
-21.9082 3.14864 -157.6
-14.2618 -21.4999 81.3381
-16.6844 -24.4781 77.04
5.43442 8.22026 -157.6
8.28862 -5.41197 -157.6
-19.3688 -10.542 -157.6
-18.95 -12.8 -154.341
8.42191 -5.50008 -157.6
11.4192 -19.2654 -157.6
-12.85 19 -144.476
-17.6691 11.7465 -153.13
-14.0905 9.381 -157.6
4.27152 13.561 -157.6
4.74339 22.2633 -154.287
2.46853 21.8413 -157.6
-17.6691 11.7465 -157.6
17.65 -11.6 -157.6
1.01127 16.0422 100.911
-3.93726 19.2916 100.916
-17.0517 -23.0343 -145.06
-15.0094 -22.6553 -148.101
-17.0517 -23.0343 69.44
-16.7806 -24.496 -145.06
-16.1167 -24.3729 -146.049
24.5122 -15.3214 69.44
24.5122 -15.3214 -138.072
16.7284 24.4863 77.04
4.74339 22.2633 77.2895
-14.4091 -7.16567 100.897
18.796 -12.3575 77.04
22.4289 -4.55746 69.5178
28.8509 4.9066 87.518
28.8509 4.9066 77.04
-5.97631 29.346 56.0724
-5.97631 29.346 -124.568
-5.97631 29.346 -132.133
-5.97631 29.346 69.44
-1.47049 26.3689 69.44
-4.20674 20.6032 94.0706
-5.99921 29.3115 87.7886
-5.97631 29.346 87.7472
4.74339 22.2633 87.7595
3.92994 -19.2867 100.928
18.796 -12.3575 77.04
22.4289 -4.55746 77.04
29.45 5.78947 77.04
29.45 5.93928 77.04
28.3841 5.86053 88.44
22.2185 -3.47059 88.44
19.2464 11.8855 88.44
-4.75252 -22.265 77.3298
10.235 18.6349 87.7657
-18.8765 12.4575 77.04
-22.2297 4.88205 69.6617
23.1468 -16.9164 69.44
24.7629 -16.6165 69.44
-12.85 19 77.04
-5.97631 29.346 77.04
-16.167 -24.3822 77.04
-11.7041 -17.6306 87.7457
-23.8444 16.8712 69.44
-24.4342 16.7668 69.44
-22.2297 4.88205 77.04
4.07265 0.769215 111.86
-29.3646 -5.85696 55.7621
7.66573 11.6725 100.905
16.8047 24.5005 77.04
-29.3646 -5.85696 -124.598
11.279 17.1387 88.44
-16.7806 -24.496 77.04
-4.10745 -0.831518 111.907
11.1196 -19.321 88.9658
-19.3613 -3.91703 94.9995
-3.94122 19.3132 95.0011
3.32863 4.9056 108.965
-18.6028 -4.39385 100.889
-18.6059 -4.39182 95.8876
7.19991 -14.3829 100.901
-4.93662 3.24575 108.96
23.1783 -17.0843 69.194
23.1783 -17.0843 -137.46
-4.00641 -0.898324 111.907
17.3641 13.9246 87.7739
5.68934 -29.2262 64.3709
9.50018 -10.4521 -157.6
-4.51904 -22.4206 77.04
15.7115 -14.4567 -150.127
1.60479 -26.5032 69.44
-12.928 18.8826 87.7827
-15.9939 14.2679 81.8099
-12.3858 18.5059 88.44
-23.55 15.6 -139.471
-23.5409 15.5606 -139.53
12.5967 -19.047 77.04
-23.8643 16.957 -137.46
-23.8643 16.957 69.44
-19.3037 9.28621 87.7773
29.45 5.78947 -132.394
-13.3484 18.2498 77.04
22.4289 -4.55746 -145.06
-18.7269 8.95169 88.44
29.45 5.93928 -132.353
9.86335 18.0721 88.44
16.0531 24.3611 77.04
11.65 17.7 87.7674
-18.95 -12.8 86.3334
12.5967 -19.047 -157.6
-4.75252 -22.265 -157.6
-22.2297 4.88205 -157.6
5.68934 -29.2262 56.5941
-18.95 -12.8 -157.6
24.693 -16.2556 -138.104
-23.8643 16.957 69.3118
-24.4493 16.8485 69.3188
2.93245 -20.8395 93.1396
23.55 -15.5 -139.474
4.74339 22.2633 -157.6
-12.85 19 -157.6
5.54589 -20.3548 93.0757
-19.35 -3.9 94.9995
-29.3646 -5.85696 69.44
4.16145 0.903355 111.86
24.7954 -16.7843 -137.46
24.7087 -16.3368 -138.107
-22.0546 3.93791 88.44
-19.1142 -11.9149 88.44
0.0577498 -0.0336707 108.971
-3.71139 -22.0719 88.44
11.8327 -19.1887 88.44
1.74839 -8.66722 108.6
5.68934 -29.2262 77.04
20.4504 5.66483 92.9695
5.00296 -3.73832 108.6
-24.1965 15.4855 -138.576
-22.3435 4.71078 69.44
-3.19177 -4.94068 108.977
3.95 -19.3 100.904
0.044999 -0.0529253 108.971
-24.3049 16.0699 -138.605
-3.71576 -5.04461 108.6
4.90022 -3.24052 108.96
-8.6844 -1.75052 108.6
15.429 24.2453 77.04
15.429 24.2453 69.44
15.429 24.2453 -146.152
4.22205 -20.6003 94.0518
16.0294 24.3567 -146.187
-14.5521 -15.7319 -157.6
12.5967 -19.047 -155.885
20.7219 4.26169 93.9912
22.4289 -4.55746 87.6597
12.5967 -19.047 87.8767
16.8047 24.5005 -145.06
8.82602 19.5658 -157.6
29.45 5.93928 56.4009
29.45 5.78947 56.4474
22.4706 -4.4959 69.44
16.8047 24.5005 69.44
24.693 -16.2556 69.44
5.90443 -28.9093 88.0243
29.45 5.78947 -124.728
29.45 5.93928 -124.682
18.9787 3.4382 96.706
6.59306 -1.33019 108.6
-16.7806 -24.496 69.44
18.7176 4.41524 96.7225
29.45 5.93928 69.44
-24.4493 16.8485 69.44
19.35 4 96.2104
29.45 5.78947 69.44
-22.2297 4.88205 87.7749
-3.9865 -0.997121 111.835
-5.79406 -0.655637 108.6
-24.4493 16.8485 -137.46
-29.3646 -5.85696 87.7688
-4.14816 -0.631336 111.762
-3.96729 -0.890161 111.878
-0.802772 -0.655637 108.6
29.45 5.78947 87.5048
-5.727 -0.64383 110.223
-7.3191 -0.970209 108.6
-0.635137 -0.654629 108.739
19.0698 12.7976 87.7758
-4.72901 -1.50876 110.995
-4.14725 -0.632637 111.762
29.2847 6.04847 87.7875
-12.85 19 -155.768
-18.95 -12.8 87.7896
-4.96133 -0.486871 111.004
-4.75252 -22.265 87.7035
-15.4109 -24.2419 69.44
11.6692 -20.4137 -157.6
-7.07678 -1.99662 108.6
-12.85 19 87.7828
24.7954 -16.7843 69.1938
-22.2297 4.88205 -155.052
29.45 5.93928 87.588
-20.5534 -4.15543 94.1417
24.7954 -16.7843 69.44
-15.4109 -24.2419 77.04
15.55 23.6 77.04
-11.8793 20.4611 -157.6
5.68934 -29.2262 -125.044
-2.92744 20.8405 93.1685
-0.55 17.0674 99.0511
-15.4109 -24.2419 -146.015
5.68934 -29.2262 69.44
-5.97631 29.346 63.7482
-23.5884 2.83698 -157.6
29.45 5.78947 -157.6
22.4289 -4.55746 -157.6
17.65 -11.6 87.7652
-29.2948 -5.90349 87.8523
-20.7756 -2.95777 93.298
17.0911 -11.2305 88.44
19.0698 12.7976 -157.6
21.1758 -6.40412 77.04
-19.3439 -3.89084 100.899
6.79524 3.06131 108.6
5.68934 -29.2262 -157.6
-29.3646 -5.85696 -157.6
23.4809 -15.5128 -139.574
5.68934 -29.2262 87.6402
4.5459 22.3938 77.04
-19.35 -3.9 100.888
16.2832 6.01384 98.6943
23.1783 -17.0843 69.44
29.45 5.93928 -157.6
22.9037 -15.6199 -139.574
-11.3223 -17.053 88.44
2.36884 -0.0286992 108.6
-5.97631 29.346 -157.6
4  490 472 360 364  0 255 255
4  490 478 473 472  0 255 255
4  490 364 87 478  0 255 255
4  482 370 48 236  0 255 255
5  482 454 369 271 370  0 255 255
4  472 473 362 360  0 255 255
5  482 236 237 411 454  0 255 255
6  483 373 268 263 371 471  0 255 255
5  494 379 276 90 298  0 255 255
5  494 464 380 277 379  0 255 255
5  483 115 44 269 373  0 255 255
5  494 298 272 449 464  0 255 255
7  483 471 458 254 70 330 115  0 255 255
6  473 279 106 107 98 362  0 255 255
9  478 416 379 277 275 266 270 279 473  0 255 255
4  478 87 88 416  0 255 255
5  379 416 88 89 276  0 255 255
5  380 278 274 275 277  0 255 255
3  380 464 449  0 255 255
5  380 449 272 273 278  0 255 255
7  371 278 273 67 68 253 458  0 255 255
8  373 410 347 270 267 260 252 268  0 255 255
5  373 269 45 46 410  0 255 255
3  371 458 471  0 255 255
7  371 263 251 261 262 274 278  0 255 255
5  369 279 270 347 271  0 255 255
3  369 454 411  0 255 255
5  370 410 46 47 48  0 255 255
6  369 411 349 105 106 279  0 255 255
4  370 271 347 410  0 255 255
9  433 325 189 73 62 165 361 352 359  0 255 255
5  456 319 320 303 302  0 255 255
5  456 351 352 361 319  0 255 255
4  456 217 353 351  0 255 255
4  433 359 363 387  0 255 255
5  452 313 53 54 322  0 255 255
7  450 368 58 59 383 437 475  0 255 255
4  460 476 382 335  0 255 255
4  450 143 197 368  0 255 255
10  460 335 3 2 377 390 492 191 144 388  0 255 255
4  450 388 144 143  0 255 255
4  452 322 492 390  0 255 255
4  304 290 94 240  0 255 255
5  445 83 309 459 448  0 255 255
3  8 389 9  0 63 255
5  445 345 96 97 83  0 255 255
6  8 22 170 171 142 389  0 63 255
6  301 336 382 476 193 192  0 255 255
5  445 312 230 231 345  0 255 255
5  304 240 314 365 215  0 255 255
12  301 466 215 365 331 153 32 31 30 29 28 336  0 255 255
6  413 307 479 110 111 474  0 255 255
3  414 234 235  0 255 255
7  414 474 111 112 226 356 234  0 255 255
4  445 448 310 312  0 255 255
4  301 192 217 216  0 255 255
4  456 302 216 217  0 255 255
6  485 393 348 52 313 452  0 255 255
5  485 422 207 208 393  0 255 255
6  452 390 377 408 422 485  0 255 255
7  76 214 319 361 165 74 75  0 255 255
6  76 77 296 470 299 213  0 255 255
4  430 376 375 358  127 255 0
4  71 70 396 175  127 255 0
7  71 316 325 433 437 383 397  0 255 255
4  71 64 72 316  0 255 255
7  430 324 175 396 401 436 376  127 255 0
4  76 358 375 77  127 255 0
4  76 75 323 358  127 255 0
4  71 175 174 64  127 255 0
4  430 358 323 324  127 255 0
4  108 98 288 287  255 0 0
5  108 293 245 244 419  0 255 255
4  461 457 342 489  255 0 0
5  102 356 226 113 114  0 255 255
5  102 101 372 346 469  0 255 255
7  461 318 421 374 386 385 457  255 0 0
4  108 100 109 293  0 255 255
4  102 489 342 101  255 0 0
4  461 489 317 318  255 0 0
4  102 114 317 489  255 0 0
6  108 287 421 242 259 100  255 0 0
7  433 387 193 476 460 475 437  0 255 255
4  65 77 375 357  127 255 0
4  65 272 298 297  0 255 255
3  458 253 254  0 255 255
5  65 66 67 273 272  0 255 255
4  436 357 375 376  127 255 0
5  436 401 355 354 357  127 255 0
4  65 357 354 66  127 255 0
4  441 308 295 294  0 255 255
4  459 309 308 441  0 255 255
6  412 394 228 312 310 168  0 255 255
5  413 178 294 295 307  0 255 255
4  413 311 177 178  0 255 255
6  441 294 169 310 448 459  0 255 255
5  412 168 155 129 176  0 255 255
4  432 308 309 429  0 255 255
4  432 418 419 244  0 255 255
5  429 309 83 82 246  0 255 255
4  429 417 418 432  0 255 255
5  84 85 417 429 246  0 255 255
5  84 82 83 329 420  255 191 0
3  84 246 82  0 255 255
6  432 244 245 307 295 308  0 255 255
5  108 419 418 423 98  0 255 255
6  427 332 265 321 462 453  0 255 63
4  427 285 282 284  0 255 63
6  59 58 238 332 427 284  0 255 63
4  59 60 327 383  0 255 255
6  51 50 49 48 468 453  0 255 63
4  51 52 348 350  0 255 255
4  51 453 462 52  0 255 63
5  427 453 468 286 285  0 255 63
6  59 284 282 44 61 60  0 255 63
4  86 87 364 424  0 255 255
6  86 85 84 420 415 87  255 191 0
4  424 417 85 86  0 255 255
4  424 364 360 423  0 255 255
4  423 360 362 98  0 255 255
4  423 418 417 424  0 255 255
5  421 318 317 182 242  255 0 0
4  421 287 288 374  255 0 0
6  78 92 91 90 407 406  255 191 0
4  78 93 486 300  0 255 255
6  420 329 289 366 405 406  255 191 0
5  420 406 407 409 415  255 191 0
4  78 406 405 93  255 191 0
4  415 409 88 87  255 191 0
4  408 377 2 1  0 255 255
6  9 184 403 395 162 10  127 0 255
4  9 12 23 184  127 0 255
5  412 145 16 35 394  0 255 255
3  408 1 381  0 255 255
4  414 391 477 474  0 255 255
4  413 474 477 311  0 255 255
9  412 176 130 334 381 1 11 16 145  0 255 255
3  411 237 349  0 255 255
5  106 105 484 378 258  255 0 0
4  374 378 484 386  255 0 0
4  48 49 465 236  0 255 255
5  48 47 283 286 468  0 255 63
4  90 91 297 298  0 255 255
3  90 276 89  0 255 255
5  88 409 407 90 89  255 191 0
8  422 408 381 334 391 414 235 207  0 255 255
3  383 327 397  0 255 255
5  71 397 327 330 70  0 255 255
5  70 254 253 68 69  0 255 255
4  330 327 60 61  0 255 255
4  403 184 23 24  127 0 255
7  403 24 40 39 38 340 395  127 0 255
5  68 67 66 354 355  127 255 0
5  70 69 355 401 396  127 255 0
3  68 355 69  127 255 0
4  175 324 323 174  127 255 0
4  393 469 350 348  0 255 255
6  9 389 142 139 172 12  0 63 255
5  105 349 237 103 104  0 255 255
4  103 101 342 343  255 0 0
4  103 237 236 465  0 255 255
4  385 343 342 457  255 0 0
5  386 484 491 343 385  255 0 0
4  103 343 491 104  255 0 0
4  105 104 491 484  255 0 0
3  99 114 113  0 255 255
4  99 182 317 114  255 0 0
4  460 388 450 475  0 255 255
6  378 374 288 98 107 258  255 0 0
3  106 258 107  255 0 0
7  303 320 486 93 290 304 151  0 255 255
4  320 299 300 486  0 255 255
3  63 75 74  0 255 255
4  174 323 75 63  127 255 0
3  469 346 350  0 255 255
5  469 393 208 356 102  0 255 255
4  465 372 101 103  0 255 255
4  372 465 49 50  0 255 255
7  38 37 36 16 11 164 340  127 0 255
4  337 210 202 201  0 63 255
5  337 218 149 147 210  0 63 255
8  337 201 212 211 328 205 206 218  0 63 255
5  58 368 197 56 57  0 255 255
4  52 43 53 313  0 255 255
4  58 57 239 238  0 255 63
4  332 238 239 265  0 255 63
5  52 462 321 248 43  0 255 63
4  93 80 94 290  0 255 255
4  329 83 97 289  255 191 0
5  93 405 366 463 80  255 191 0
4  326 135 134 384  0 63 255
3  326 136 135  0 63 255
6  38 39 150 183 125 128  0 63 255
7  326 384 219 126 183 137 136  0 63 255
5  470 296 92 78 300  0 255 255
3  470 300 299  0 255 255
6  8 400 186 444 440 0  255 0 191
3  8 9 400  255 0 191
3  11 1 17  255 0 191
8  9 10 15 13 14 398 186 400  255 0 191
5  398 402 187 444 186  255 0 191
6  398 14 21 20 291 402  255 0 191
9  20 19 18 17 1 2 3 339 291  255 0 191
6  394 35 34 33 154 228  0 255 255
3  16 221 35  0 63 255
5  220 188 206 205 229  0 63 255
3  280 211 212  0 63 255
5  280 173 30 31 211  0 63 255
8  220 229 204 34 35 221 195 488  0 63 255
3  28 29 467  0 63 255
6  384 134 133 138 123 219  0 63 255
5  356 208 207 235 234  0 255 255
5  51 350 346 372 50  0 255 255
5  20 21 118 179 180  127 0 255
5  299 320 319 214 213  0 255 255
3  76 213 214  0 255 255
4  297 296 77 65  0 255 255
4  296 297 91 92  0 255 255
4  367 231 230 331  0 255 255
3  367 314 95  0 255 255
6  366 289 97 79 255 463  255 191 0
5  367 95 96 345 231  0 255 255
5  307 245 293 109 479  0 255 255
4  111 110 292 306  255 0 0
3  111 306 112  255 0 0
3  3 335 4  0 255 255
4  8 0 7 167  0 255 255
3  344 439 434  255 0 191
5  344 333 438 447 439  255 0 191
6  344 434 446 185 404 333  255 0 191
5  8 167 341 25 22  0 255 255
4  341 167 7 6  0 255 255
5  341 6 5 26 25  0 255 255
3  336 28 27  0 255 255
7  5 4 335 382 336 27 26  0 255 255
5  280 212 201 200 281  0 63 255
5  333 404 166 451 438  255 0 191
5  5 6 166 404 480  255 0 191
4  61 44 115 330  0 255 255
4  325 316 72 189  0 255 255
3  62 73 315  127 255 0
3  62 74 165  0 255 255
5  62 315 247 227 74  127 255 0
5  321 265 239 198 248  0 255 63
4  322 190 191 492  0 255 255
4  322 54 55 190  0 255 255
3  112 113 226  0 255 255
6  306 233 243 181 113 112  255 0 0
4  190 143 144 191  0 255 255
5  190 55 41 197 143  0 255 255
3  54 264 55  0 255 63
3  73 189 72  0 255 255
4  73 72 247 315  127 255 0
4  95 81 257 256  255 191 0
5  314 240 94 81 95  0 255 255
4  314 367 331 365  0 255 255
4  54 53 250 264  0 255 63
4  312 228 154 230  0 255 255
4  311 130 129 177  0 255 255
4  310 169 155 168  0 255 255
4  306 292 232 233  255 0 0
5  305 392 161 163 399  127 0 255
4  305 225 224 392  127 0 255
5  305 399 158 160 225  127 0 255
3  20 180 19  127 0 255
4  304 215 152 151  0 255 255
5  303 151 152 216 302  0 255 255
4  301 216 152 466  0 255 255
4  294 178 177 169  0 255 255
4  169 177 129 155  0 255 255
3  110 479 109  0 255 255
4  292 110 109 232  255 0 0
5  291 338 185 117 402  255 0 191
5  3 4 487 338 339  255 0 191
3  291 339 338  255 0 191
4  81 94 241 257  255 191 0
3  97 96 79  0 255 255
3  95 256 96  255 191 0
5  38 128 124 425 37  0 63 255
5  16 36 425 431 221  0 63 255
3  44 45 269  0 255 255
3  46 283 47  0 255 63
4  286 283 282 285  0 255 63
5  44 282 283 46 45  0 255 63
5  281 200 25 26 203  0 63 255
7  281 203 27 28 467 173 280  0 63 255
4  270 266 262 267  0 255 255
4  274 262 266 275  0 255 255
4  267 262 261 260  0 255 255
4  268 252 251 263  0 255 255
4  57 42 198 239  0 255 63
3  264 250 249  0 255 63
3  57 56 42  0 255 255
6  264 249 199 56 41 55  0 255 63
4  248 198 199 249  0 255 63
4  261 251 252 260  0 255 255
4  259 242 243 233  255 0 0
4  257 241 463 255  255 191 0
5  257 255 79 96 256  255 191 0
5  53 43 248 249 250  0 255 63
5  247 72 64 174 227  127 255 0
4  243 242 182 181  255 0 0
4  113 181 182 99  255 0 0
5  109 100 259 233 232  255 0 0
5  480 404 185 338 487  255 0 191
4  487 4 5 480  255 0 191
4  0 440 435 7  255 0 191
5  6 7 435 443 166  255 0 191
4  402 117 116 187  255 0 191
4  17 18 160 158  127 0 255
4  340 163 161 395  127 0 255
4  399 163 159 158  127 0 255
5  17 158 159 164 11  127 0 255
4  340 164 159 163  127 0 255
3  14 118 21  127 0 255
4  395 161 157 162  127 0 255
5  10 162 157 156 15  127 0 255
4  14 13 119 118  127 0 255
5  392 224 156 157 161  127 0 255
5  391 334 130 311 477  0 255 255
3  215 466 152  0 255 255
6  217 192 193 387 363 353  0 255 255
4  331 230 154 153  0 255 255
3  41 56 197  0 255 255
4  359 351 353 363  0 255 255
3  359 352 351  0 255 255
4  94 80 463 241  255 191 0
4  29 30 173 467  0 63 255
3  187 440 444  255 0 191
6  187 116 455 443 435 440  255 0 191
4  185 455 116 117  255 0 191
3  130 176 129  0 255 255
5  32 33 204 205 328  0 63 255
4  328 211 31 32  0 63 255
4  32 153 154 33  0 255 255
3  33 34 204  0 63 255
3  229 205 204  0 63 255
4  74 227 174 63  127 255 0
4  225 180 179 224  127 0 255
5  18 19 180 225 160  127 0 255
6  224 179 119 13 15 156  127 0 255
5  223 219 123 122 194  0 63 255
6  222 196 125 126 219 223  0 63 255
6  220 127 122 138 481 188  0 63 255
4  222 121 124 196  0 63 255
5  223 194 120 121 222  0 63 255
4  221 431 428 195  0 63 255
5  220 488 428 120 127  0 63 255
5  218 206 188 481 148  0 63 255
3  24 426 40  0 63 255
3  218 148 149  0 63 255
8  12 172 209 141 132 131 493 23  0 63 255
4  24 23 493 426  0 63 255
4  209 172 139 140  0 63 255
5  210 146 171 170 202  0 63 255
3  210 147 146  0 63 255
3  209 140 141  0 63 255
4  149 141 140 147  0 63 255
5  147 140 139 171 146  0 63 255
3  203 26 27  0 63 255
6  202 170 22 25 200 201  0 63 255
4  199 198 42 56  0 255 63
3  36 37 425  0 63 255
3  183 150 131  0 63 255
3  183 126 125  0 63 255
3  196 128 125  0 63 255
3  196 124 128  0 63 255
5  141 149 148 481 132  0 63 255
3  194 127 120  0 63 255
3  195 428 488  0 63 255
3  194 122 127  0 63 255
3  138 122 123  0 63 255
3  138 132 481  0 63 255
3  185 446 455  255 0 191
3  183 131 137  0 63 255
3  179 118 119  127 0 255
3  171 139 142  0 63 255
4  166 443 442 451  255 0 191
7  434 439 447 442 443 455 446  255 0 191
4  451 442 447 438  255 0 191
4  425 124 121 431  0 63 255
4  431 121 120 428  0 63 255
4  426 150 39 40  0 63 255
4  493 131 150 426  0 63 255
3  138 133 132  0 63 255
7  137 131 132 133 134 135 136  0 63 255
10  114 102 101 103 104 105 106 107 98 99  255 0 0
10  102 114 99 98 107 106 105 104 103 101  0 255 255
7  113 99 100 109 110 111 112  255 0 0
7  99 113 112 111 110 109 100  0 255 255
4  108 100 99 98  255 0 0
4  100 108 98 99  0 255 255
14  97 83 82 84 85 86 87 88 89 90 91 92 78 79  255 191 0
14  83 97 79 78 92 91 90 89 88 87 86 85 84 82  0 255 255
4  96 79 81 95  255 191 0
4  79 96 95 81  0 255 255
4  94 81 79 80  255 191 0
4  81 94 80 79  0 255 255
4  93 80 79 78  255 191 0
4  80 93 78 79  0 255 255
5  77 65 63 75 76  127 255 0
5  65 77 76 75 63  0 255 255
3  74 63 62  127 255 0
3  63 74 62  0 255 255
6  73 62 63 65 64 72  127 255 0
6  62 73 72 64 65 63  0 255 255
8  71 64 65 66 67 68 69 70  127 255 0
8  64 71 70 69 68 67 66 65  0 255 255
7  61 44 42 57 58 59 60  0 255 63
7  44 61 60 59 58 57 42  0 255 255
3  56 42 41  0 255 63
3  42 56 41  0 255 255
7  55 41 42 44 43 53 54  0 255 63
7  41 55 54 53 43 44 42  0 255 255
10  52 43 44 45 46 47 48 49 50 51  0 255 63
10  43 52 51 50 49 48 47 46 45 44  0 255 255
9  40 24 23 12 16 36 37 38 39  127 0 255
9  24 40 39 38 37 36 16 12 23  0 63 255
14  35 16 12 22 25 26 27 28 29 30 31 32 33 34  0 255 255
14  16 35 34 33 32 31 30 29 28 27 26 25 22 12  0 63 255
4  8 22 12 9  0 255 255
4  22 8 9 12  0 63 255
10  21 14 13 15 10 11 17 18 19 20  255 0 191
10  14 21 20 19 18 17 11 10 15 13  127 0 255
4  16 11 10 12  0 255 255
4  11 16 12 10  127 0 255
3  9 12 10  0 255 255
3  12 9 10  127 0 255
6  11 1 0 8 9 10  0 255 255
6  1 11 10 9 8 0  255 0 191
8  7 0 1 2 3 4 5 6  0 255 255
8  0 7 6 5 4 3 2 1  255 0 191

