OFF
810 733 0
833977.299999982119 816190.399999976158 301.099999994040
833987.699999809265 816183.400000095367 301.099999994040
833994.600000381470 816193.899999856949 301.099999994040
833984.199999809265 816200.800000190735 301.099999994040
834015.299999237061 816198.099999427795 35.000000000000
833979.899999856949 816221.399999618530 35.000000000000
833979.899999856949 816221.399999618530 280.940000534058
834015.299999237061 816198.099999427795 280.940000534058
833956.600000381470 816186.200000047684 35.000000000000
833956.600000381470 816186.200000047684 280.940000534058
833991.899999618530 816162.800001144409 35.000000000000
833991.899999618530 816162.800001144409 280.940000534058
833980.299999952316 816219.799999237061 280.940000534058
834013.599998474121 816197.799999713898 280.940000534058
833958.200000762939 816186.500000000000 280.940000534058
833991.599999427795 816164.500000000000 280.940000534058
833980.299999952316 816219.799999237061 281.465999603271
834013.599998474121 816197.799999713898 281.465999603271
833958.200000762939 816186.500000000000 281.465999603271
833991.599999427795 816164.500000000000 281.465999603271
833982.000000000000 816211.399999618530 287.500000000000
834005.299999237061 816196.099999904633 287.500000000000
833966.600000381470 816188.200000047684 287.500000000000
833989.899999618530 816172.800001144409 287.500000000000
833982.000000000000 816211.399999618530 293.400000095367
834005.299999237061 816196.099999904633 293.400000095367
833966.600000381470 816188.200000047684 293.400000095367
833989.899999618530 816172.800001144409 293.400000095367
833968.199999809265 816203.799999237061 270.913999557495
833962.400000572205 816207.699998855591 263.840000152588
833964.600000381470 816198.199999809265 263.840000152588
833972.000000000000 816209.399999618530 263.840000152588
833962.400000572205 816207.699998855591 261.940002441406
833972.000000000000 816209.399999618530 261.940002441406
833964.600000381470 816198.199999809265 261.940002441406
833963.400000572205 816196.500000000000 261.940002441406
833973.100000143051 816211.100000381470 261.940002441406
833960.700000762939 816208.799999237061 261.940002441406
833963.400000572205 816196.500000000000 55.040023803711
833973.100000143051 816211.100000381470 55.040023803711
833960.700000762939 816208.799999237061 55.040023803711
833968.199999809265 816203.799999237061 45.957000732422
833981.599999904633 816169.600000381470 269.540000915527
833967.000000000000 816179.300000190735 269.540000915527
833969.300000190735 816166.899999618530 269.540000915527
833981.599999904633 816169.600000381470 47.440002441406
833967.000000000000 816179.300000190735 47.440002441406
833969.300000190735 816166.899999618530 47.440002441406
833968.600000381470 816178.199999809265 271.440000534058
833970.400000095367 816168.600000381470 271.440000534058
833974.200000047684 816174.500000000000 278.513999938965
833979.899999856949 816170.700000762939 271.440000534058
833968.600000381470 816178.199999809265 269.540000915527
833970.400000095367 816168.600000381470 269.540000915527
833974.200000047684 816174.500000000000 269.540000915527
833979.899999856949 816170.700000762939 269.540000915527
833974.200000047684 816174.500000000000 38.356994628906
834005.000000000000 816205.000000000000 47.440002441406
833997.600000381470 816209.799999237061 38.356994628906
834002.599998474121 816217.399999618530 47.440002441406
833990.299999237061 816214.600000381470 47.440002441406
833990.299999237061 816214.600000381470 269.540000915527
834005.000000000000 816205.000000000000 269.540000915527
834002.599998474121 816217.399999618530 269.540000915527
833990.299999237061 816214.600000381470 47.440002441406
834005.000000000000 816205.000000000000 47.440002441406
834002.599998474121 816217.399999618530 47.440002441406
833998.799999237061 816173.100000381470 55.040008544922
834003.599998474121 816180.500000000000 45.957000732422
834011.200000762939 816175.400000572205 55.040008544922
834008.500000000000 816187.799999952316 55.040008544922
834011.200000762939 816175.400000572205 261.940002441406
834008.500000000000 816187.799999952316 261.940002441406
833998.799999237061 816173.100000381470 261.940002441406
834003.299999237061 816206.100000381470 271.440000534058
834001.500000000000 816215.699998855591 271.440000534058
833997.600000381470 816209.799999237061 278.513999938965
833992.000000000000 816213.500000000000 271.440000534058
834003.299999237061 816206.100000381470 269.540000915527
834001.500000000000 816215.699998855591 269.540000915527
833997.600000381470 816209.799999237061 269.540000915527
833992.000000000000 816213.500000000000 269.540000915527
833999.799999237061 816174.800000190735 263.840000152588
834009.500000000000 816176.600000381470 263.840000152588
834003.599998474121 816180.500000000000 270.913999557495
834007.399999618530 816186.100000143051 263.840000152588
833999.799999237061 816174.800000190735 261.940002441406
834009.500000000000 816176.600000381470 261.940002441406
834003.599998474121 816180.500000000000 261.940002441406
834007.399999618530 816186.100000143051 261.940002441406
833986.699999809265 816192.200000047684 295.000000000000
833986.399999618530 816192.700000047684 295.000000000000
833986.199999809265 816192.399999856949 350.000000000000
833986.199999809265 816192.200000047684 350.000000000000
833985.800000190735 816192.899999856949 295.000000000000
833985.800000190735 816192.500000000000 350.000000000000
833985.300000190735 816192.500000000000 295.000000000000
833985.699999809265 816192.200000047684 350.000000000000
833985.300000190735 816191.799999952316 295.000000000000
833985.699999809265 816192.000000000000 350.000000000000
833985.800000190735 816191.399999976158 295.000000000000
833985.800000190735 816191.799999952316 350.000000000000
833986.399999618530 816191.500000000000 295.000000000000
833986.199999809265 816191.799999952316 350.000000000000
833985.800000190735 816192.500000000000 309.456099510193
833985.300000190735 816195.199999809265 316.456099510193
833985.099999427795 816195.400000095367 316.400999069214
833985.599999427795 816192.599999904633 309.401000022888
833985.899999618530 816192.599999904633 309.401000022888
833985.399999618530 816195.400000095367 316.400999069214
833985.800000190735 816192.799999952316 309.345900535583
833985.199999809265 816195.500000000000 316.345899581909
833985.599999427795 816192.099999904633 309.456099510193
833982.900000095367 816191.500000000000 316.456099510193
833982.699999809265 816191.399999976158 316.400999069214
833985.399999618530 816191.799999952316 309.401000022888
833985.399999618530 816192.200000047684 309.401000022888
833982.699999809265 816191.599999904633 316.400999069214
833985.300000190735 816192.000000000000 309.345900535583
833982.599999904633 816191.399999976158 316.345899581909
833986.000000000000 816191.799999952316 309.456099510193
833985.899999618530 816191.599999904633 309.401000022888
833986.500000000000 816188.899999976158 316.400999069214
833986.599999427795 816189.000000000000 316.456099510193
833986.199999809265 816191.699999928474 309.401000022888
833986.800000190735 816189.000000000000 316.400999069214
833986.099999427795 816191.500000000000 309.345900535583
833986.599999427795 816188.800000071526 316.345899581909
833984.799999713898 816200.399999618530 300.122699975967
833984.199999809265 816200.800000190735 299.607100129128
833984.799999713898 816200.399999618530 301.622699975967
833983.799999713898 816200.199999809265 300.122699975967
833983.799999713898 816200.199999809265 301.622699975967
833985.399999618530 816192.000000000000 308.427599906921
833985.399999618530 816192.000000000000 309.401099205017
833985.399999618530 816192.599999904633 309.401099205017
833987.099999427795 816183.900000095367 300.122699975967
833987.099999427795 816183.900000095367 301.622699975967
833985.500000000000 816191.500000000000 309.401099205017
833987.699999809265 816183.400000095367 299.594900131226
833987.699999809265 816183.400000095367 301.101400002837
833988.099999427795 816184.099999904633 300.122699975967
833988.099999427795 816184.099999904633 301.622699975967
833986.500000000000 816192.200000047684 308.427599906921
833986.500000000000 816192.200000047684 309.401099205017
833986.599999427795 816191.699999928474 309.401099205017
833986.300000190735 816192.700000047684 309.401099205017
833977.699999988079 816191.000000000000 300.125999987125
833977.299999982119 816190.399999976158 299.568899989128
833977.699999988079 816191.000000000000 301.625999987125
833977.899999976158 816189.900000005960 300.125999987125
833977.899999976158 816189.900000005960 301.625999987125
833986.099999427795 816191.599999904633 308.430999755859
833986.099999427795 816191.599999904633 309.401099205017
833994.199998855591 816193.299999952316 300.125999987125
833994.199998855591 816193.299999952316 301.625999987125
833994.600000381470 816193.899999856949 299.567100048065
833994.000000000000 816194.299999713898 300.125999987125
833994.000000000000 816194.299999713898 301.625999987125
833985.800000190735 816192.599999904633 308.430999755859
833985.800000190735 816192.599999904633 309.401099205017
833985.300000190735 816192.599999904633 309.401099205017
833987.800000190735 816194.900000095367 317.400999069214
833988.899999618530 816193.699999809265 317.400999069214
833987.800000190735 816195.000000000000 317.400999069214
833986.099999427795 816195.400000095367 317.400999069214
833986.199999809265 816195.699999809265 317.400999069214
833984.399999618530 816195.000000000000 317.400999069214
833984.299999713898 816195.299999713898 317.400999069214
833983.199999809265 816193.899999856949 317.400999069214
833983.000000000000 816194.099999904633 317.400999069214
833982.599999904633 816192.299999952316 317.400999069214
833982.400000095367 816192.299999952316 317.400999069214
833983.000000000000 816190.599999964237 317.400999069214
833982.799999713898 816190.500000000000 317.400999069214
833984.199999809265 816189.400000035763 317.400999069214
833984.000000000000 816189.200000047684 317.400999069214
833985.800000190735 816188.800000071526 317.400999069214
833985.800000190735 816188.600000023842 317.400999069214
833987.399999618530 816189.200000047684 317.400999069214
833987.599999427795 816189.000000000000 317.400999069214
833988.699999809265 816190.299999982119 317.400999069214
833988.899999618530 816190.199999988079 317.400999069214
833989.300000190735 816191.899999976158 317.400999069214
833989.399999618530 816191.899999976158 317.400999069214
833989.000000000000 816193.799999952316 317.400999069214
833989.399999618530 816191.899999976158 316.400999069214
833989.000000000000 816193.799999952316 316.400999069214
833987.800000190735 816195.000000000000 316.400999069214
833986.199999809265 816195.699999809265 316.400999069214
833984.299999713898 816195.299999713898 316.400999069214
833983.000000000000 816194.099999904633 316.400999069214
833982.400000095367 816192.299999952316 316.400999069214
833982.799999713898 816190.500000000000 316.400999069214
833984.000000000000 816189.200000047684 316.400999069214
833985.800000190735 816188.600000023842 316.400999069214
833987.599999427795 816189.000000000000 316.400999069214
833988.899999618530 816190.199999988079 316.400999069214
833988.899999618530 816193.699999809265 316.400999069214
833989.300000190735 816191.899999976158 316.400999069214
833988.699999809265 816190.299999982119 316.400999069214
833987.399999618530 816189.200000047684 316.400999069214
833985.800000190735 816188.800000071526 316.400999069214
833984.199999809265 816189.400000035763 316.400999069214
833983.000000000000 816190.599999964237 316.400999069214
833982.599999904633 816192.299999952316 316.400999069214
833983.199999809265 816193.899999856949 316.400999069214
833984.399999618530 816195.000000000000 316.400999069214
833986.099999427795 816195.400000095367 316.400999069214
833987.800000190735 816194.900000095367 316.400999069214
833986.500000000000 816189.000000000000 316.400999069214
833985.099999427795 816195.299999713898 316.400999069214
833985.399999618530 816195.400000095367 316.400999069214
833986.699999809265 816189.000000000000 316.400999069214
833986.500000000000 816189.000000000000 317.400999069214
833986.699999809265 816189.000000000000 317.400999069214
833985.399999618530 816195.400000095367 317.400999069214
833985.099999427795 816195.299999713898 317.400999069214
833989.099999427795 816192.599999904633 316.400999069214
833982.799999713898 816191.299999952316 316.400999069214
833989.099999427795 816193.000000000000 316.400999069214
833989.099999427795 816192.599999904633 317.400999069214
833989.099999427795 816193.000000000000 317.400999069214
833982.699999809265 816191.599999904633 317.400999069214
833982.799999713898 816191.299999952316 317.400999069214
833987.399999618530 816192.200000047684 316.776099205017
833986.899999618530 816193.299999952316 316.776099205017
833986.899999618530 816193.299999952316 317.076099395752
833987.399999618530 816192.200000047684 317.076099395752
833985.599999427795 816193.599999904633 316.776099205017
833985.599999427795 816193.599999904633 317.076099395752
833984.599999904633 816192.799999952316 316.776099205017
833984.599999904633 816192.799999952316 317.076099395752
833984.599999904633 816191.399999976158 316.776099205017
833984.599999904633 816191.399999976158 317.076099395752
833985.599999427795 816190.599999964237 316.776099205017
833985.599999427795 816190.599999964237 317.076099395752
833986.899999618530 816191.000000000000 316.776099205017
833986.899999618530 816191.000000000000 317.076099395752
833985.800000190735 816192.500000000000 324.283599853516
833985.599999427795 816192.599999904633 324.338701248169
833985.099999427795 816195.400000095367 317.338699340820
833985.300000190735 816195.199999809265 317.283599853516
833985.899999618530 816192.599999904633 324.338701248169
833985.399999618530 816195.400000095367 317.338699340820
833985.800000190735 816192.799999952316 324.393798828125
833985.199999809265 816195.500000000000 317.393798828125
833985.599999427795 816192.099999904633 324.283599853516
833985.399999618530 816191.799999952316 324.338701248169
833982.699999809265 816191.399999976158 317.338699340820
833982.900000095367 816191.500000000000 317.283599853516
833985.399999618530 816192.200000047684 324.338701248169
833982.699999809265 816191.599999904633 317.338699340820
833985.300000190735 816192.000000000000 324.393798828125
833982.599999904633 816191.399999976158 317.393798828125
833986.300000190735 816192.200000047684 324.283599853516
833989.000000000000 816192.700000047684 317.283599853516
833989.199999809265 816192.599999904633 317.338699340820
833986.500000000000 816192.099999904633 324.338701248169
833986.500000000000 816192.299999952316 324.338701248169
833989.199999809265 816192.899999856949 317.338699340820
833986.599999427795 816192.200000047684 324.393798828125
833989.399999618530 816192.700000047684 317.393798828125
833986.000000000000 816191.799999952316 324.283599853516
833986.599999427795 816189.000000000000 317.283599853516
833986.500000000000 816188.899999976158 317.338699340820
833985.899999618530 816191.599999904633 324.338701248169
833986.199999809265 816191.699999928474 324.338701248169
833986.800000190735 816189.000000000000 317.338699340820
833986.099999427795 816191.500000000000 324.393798828125
833986.599999427795 816188.800000071526 317.393798828125
833987.000000000000 816192.200000047684 324.322399139404
833986.599999427795 816193.000000000000 324.322399139404
833986.599999427795 816193.000000000000 324.622400283813
833987.000000000000 816192.200000047684 324.622400283813
833985.699999809265 816193.199999809265 324.322399139404
833985.699999809265 816193.199999809265 324.622400283813
833985.000000000000 816192.599999904633 324.322399139404
833985.000000000000 816192.599999904633 324.622400283813
833985.000000000000 816191.699999928474 324.322399139404
833985.000000000000 816191.699999928474 324.622400283813
833985.699999809265 816191.100000023842 324.322399139404
833985.699999809265 816191.100000023842 324.622400283813
833986.599999427795 816191.299999952316 324.322399139404
833986.599999427795 816191.299999952316 324.622400283813
833986.300000190735 816192.000000000000 328.001598358154
833985.800000190735 816190.500000000000 328.001598358154
833986.000000000000 816190.599999964237 328.751598358154
833986.199999809265 816191.100000023842 329.300699234009
833986.699999809265 816191.799999952316 329.501598358154
833987.099999427795 816192.399999856949 329.300699234009
833987.399999618530 816192.799999952316 328.751598358154
833987.500000000000 816193.000000000000 328.001598358154
833987.399999618530 816192.799999952316 327.251598358154
833987.099999427795 816192.399999856949 326.702598571777
833986.699999809265 816191.799999952316 326.501598358154
833986.199999809265 816191.100000023842 326.702598571777
833986.000000000000 816190.599999964237 327.251598358154
833986.300000190735 816189.300000011921 329.300699234009
833986.199999809265 816189.000000000000 328.001598358154
833986.899999618530 816190.099999994040 330.251598358154
833987.599999427795 816191.100000023842 330.599699020386
833988.300000190735 816192.200000047684 330.251598358154
833988.899999618530 816193.000000000000 329.300699234009
833989.000000000000 816193.299999952316 328.001598358154
833988.899999618530 816193.000000000000 326.702598571777
833988.300000190735 816192.200000047684 325.751598358154
833987.599999427795 816191.100000023842 325.403600692749
833986.899999618530 816190.099999994040 325.751598358154
833986.300000190735 816189.300000011921 326.702598571777
833987.399999618530 816188.200000047684 329.501598358154
833987.199999809265 816187.799999952316 328.001598358154
833988.000000000000 816189.000000000000 330.599699020386
833988.899999618530 816190.299999982119 331.001598358154
833989.699999809265 816191.500000000000 330.599699020386
833990.299999237061 816192.500000000000 329.501598358154
833990.500000000000 816192.799999952316 328.001598358154
833990.299999237061 816192.500000000000 326.501598358154
833989.699999809265 816191.500000000000 325.403600692749
833988.899999618530 816190.299999982119 325.001598358154
833988.000000000000 816189.000000000000 325.403600692749
833987.399999618530 816188.200000047684 326.501598358154
833985.599999427795 816192.399999856949 328.001598358154
833986.099999427795 816193.899999856949 328.001598358154
833986.000000000000 816193.799999952316 328.751598358154
833985.699999809265 816193.299999952316 329.300699234009
833985.300000190735 816192.599999904633 329.501598358154
833984.799999713898 816192.000000000000 329.300699234009
833984.599999904633 816191.599999904633 328.751598358154
833984.399999618530 816191.399999976158 328.001598358154
833984.599999904633 816191.599999904633 327.251598358154
833984.799999713898 816192.000000000000 326.702598571777
833985.300000190735 816192.599999904633 326.501598358154
833985.699999809265 816193.299999952316 326.702598571777
833986.000000000000 816193.799999952316 327.251598358154
833985.599999427795 816195.099999904633 329.300699234009
833985.800000190735 816195.400000095367 328.001598358154
833985.000000000000 816194.299999713898 330.251598358154
833984.299999713898 816193.299999952316 330.599699020386
833983.599999904633 816192.200000047684 330.251598358154
833983.099999904633 816191.399999976158 329.300699234009
833982.900000095367 816191.100000023842 328.001598358154
833983.099999904633 816191.399999976158 326.702598571777
833983.599999904633 816192.200000047684 325.751598358154
833984.299999713898 816193.299999952316 325.403600692749
833985.000000000000 816194.299999713898 325.751598358154
833985.599999427795 816195.099999904633 326.702598571777
833984.599999904633 816196.199999809265 329.501598358154
833984.799999713898 816196.599999904633 328.001598358154
833983.899999618530 816195.400000095367 330.599699020386
833983.099999904633 816194.099999904633 331.001598358154
833982.199999809265 816192.899999856949 330.599699020386
833981.699999809265 816191.899999976158 329.501598358154
833981.400000095367 816191.599999904633 328.001598358154
833981.699999809265 816191.899999976158 326.501598358154
833982.199999809265 816192.899999856949 325.403600692749
833983.099999904633 816194.099999904633 325.001598358154
833983.899999618530 816195.400000095367 325.403600692749
833984.599999904633 816196.199999809265 326.501598358154
833986.300000190735 816192.200000047684 309.456099510193
833986.500000000000 816192.099999904633 309.401000022888
833989.199999809265 816192.599999904633 316.400999069214
833989.000000000000 816192.700000047684 316.456099510193
833986.500000000000 816192.299999952316 309.401000022888
833989.199999809265 816192.899999856949 316.400999069214
833986.599999427795 816192.200000047684 309.345900535583
833989.399999618530 816192.700000047684 316.345899581909
833976.200000047684 816193.799999952316 17.600006103516
833976.000000000000 816192.000000000000 17.600006103516
833978.899999976158 816190.000000000000 17.600006103516
833981.900000095367 816190.799999952316 17.600006103516
833976.700000017881 816195.400000095367 17.600006103516
833977.399999976158 816197.000000000000 17.600006103516
833978.500000000000 816198.300000190735 17.600006103516
833979.599999904633 816199.599999427795 17.600006103516
833981.000000000000 816200.599999427795 17.600006103516
833982.500000000000 816201.500000000000 17.600006103516
833985.399999618530 816199.500000000000 17.600006103516
833985.800000190735 816196.299999713898 17.600006103516
833982.199999809265 816188.500000000000 17.600006103516
833984.500000000000 816186.900000095367 17.600006103516
833986.800000190735 816187.400000095367 17.600006103516
833996.299999237061 816190.199999988079 17.600006103516
833996.600000381470 816191.799999952316 17.600006103516
833993.799999237061 816193.799999952316 17.600006103516
833990.599999427795 816193.000000000000 17.600006103516
833995.799999237061 816188.600000023842 17.600006103516
833995.100000381470 816187.000000000000 17.600006103516
833994.100000381470 816185.599999904633 17.600006103516
833993.000000000000 816184.300000190735 17.600006103516
833991.599999427795 816183.200000286102 17.600006103516
833990.099999427795 816182.400000095367 17.600006103516
833987.199999809265 816184.400000095367 17.600006103516
833990.199999809265 816195.599999904633 17.600006103516
833988.300000190735 816197.000000000000 17.600006103516
833978.899999976158 816190.000000000000 7.899993896484
833976.000000000000 816192.000000000000 7.899993896484
833976.200000047684 816193.799999952316 7.899993896484
833976.700000017881 816195.400000095367 7.899993896484
833977.399999976158 816197.000000000000 7.899993896484
833978.500000000000 816198.300000190735 7.899993896484
833979.599999904633 816199.599999427795 7.899993896484
833981.000000000000 816200.599999427795 7.899993896484
833982.500000000000 816201.500000000000 7.899993896484
833985.399999618530 816199.500000000000 7.899993896484
833985.800000190735 816196.299999713898 7.899993896484
833988.300000190735 816197.000000000000 7.899993896484
833990.199999809265 816195.599999904633 7.899993896484
833990.599999427795 816193.000000000000 7.899993896484
833993.799999237061 816193.799999952316 7.899993896484
833996.600000381470 816191.799999952316 7.899993896484
833996.299999237061 816190.199999988079 7.899993896484
833995.799999237061 816188.600000023842 7.899993896484
833995.100000381470 816187.000000000000 7.899993896484
833994.100000381470 816185.599999904633 7.899993896484
833993.000000000000 816184.300000190735 7.899993896484
833991.599999427795 816183.200000286102 7.899993896484
833990.099999427795 816182.400000095367 7.899993896484
833987.199999809265 816184.400000095367 7.899993896484
833986.800000190735 816187.400000095367 7.899993896484
833984.500000000000 816186.900000095367 7.899993896484
833982.199999809265 816188.500000000000 7.899993896484
833981.900000095367 816190.799999952316 7.899993896484
833998.100000381470 816192.000000000000 23.599975585938
834001.399999618530 816192.700000047684 23.599975585938
834001.500000000000 816194.099999904633 23.599975585938
834001.399999618530 816195.099999904633 23.599975585938
834001.000000000000 816197.199999809265 23.599975585938
834000.699998855591 816198.199999809265 23.599975585938
833997.199998855591 816197.399999618530 23.599975585938
834001.299999237061 816196.199999809265 23.599975585938
833995.799999237061 816201.099999427795 23.599975585938
833994.500000000000 816202.599999427795 23.599975585938
833992.899999618530 816203.799999237061 23.599975585938
833996.699998855591 816199.399999618530 23.599975585938
833991.000000000000 816204.399999618530 23.599975585938
833989.000000000000 816204.599999427795 23.599975585938
833987.099999427795 816204.399999618530 23.599975585938
833986.599999427795 816207.799999237061 23.599975585938
833985.199999809265 816207.799999237061 23.599975585938
833984.199999809265 816207.699998855591 23.599975585938
833983.099999904633 816207.399999618530 23.599975585938
833982.099999904633 816207.100000381470 23.599975585938
833981.099999904633 816206.699998855591 23.599975585938
833981.599999904633 816203.199999809265 23.599975585938
833979.899999856949 816202.199999809265 23.599975585938
833978.399999976158 816201.000000000000 23.599975585938
833977.000000000000 816199.500000000000 23.599975585938
833975.899999976158 816197.899999618530 23.599975585938
833975.000000000000 816196.199999809265 23.599975585938
833974.400000095367 816194.299999713898 23.599975585938
833974.100000143051 816192.399999856949 23.599975585938
833970.600000381470 816191.599999904633 23.599975585938
833970.600000381470 816190.799999952316 23.599975585938
833970.700000286102 816190.000000000000 23.599975585938
833970.800000190735 816189.200000047684 23.599975585938
833971.300000190735 816186.800000190735 23.599975585938
833971.599999904633 816186.000000000000 23.599975585938
833974.900000095367 816186.800000190735 23.599975585938
833971.099999904633 816187.600000143051 23.599975585938
833971.000000000000 816188.400000095367 23.599975585938
833975.800000071526 816185.099999904633 23.599975585938
833976.900000005960 816183.700000286102 23.599975585938
833978.199999928474 816182.400000095367 23.599975585938
833979.799999952316 816181.300000190735 23.599975585938
833981.400000095367 816180.500000000000 23.599975585938
833983.199999809265 816180.000000000000 23.599975585938
833985.000000000000 816179.800000190735 23.599975585938
833985.500000000000 816176.300000190735 23.599975585938
833986.300000190735 816176.300000190735 23.599975585938
833987.099999427795 816176.400000572205 23.599975585938
833987.899999618530 816176.600000381470 23.599975585938
833988.699999809265 816176.700000762939 23.599975585938
833990.299999237061 816177.200000762939 23.599975585938
833991.000000000000 816177.600000381470 23.599975585938
833990.500000000000 816181.000000000000 23.599975585938
833989.500000000000 816177.000000000000 23.599975585938
833992.199999809265 816182.100000381470 23.599975585938
833993.699998855591 816183.400000095367 23.599975585938
833995.000000000000 816184.800000190735 23.599975585938
833996.199998855591 816186.400000095367 23.599975585938
833997.000000000000 816188.200000047684 23.599975585938
833997.699998855591 816190.099999994040 23.599975585938
833971.300000190735 816186.800000190735 17.600006103516
833971.599999904633 816186.000000000000 17.600006103516
833974.900000095367 816186.800000190735 17.600006103516
833975.800000071526 816185.099999904633 17.600006103516
833976.900000005960 816183.700000286102 17.600006103516
833978.199999928474 816182.400000095367 17.600006103516
833979.799999952316 816181.300000190735 17.600006103516
833981.400000095367 816180.500000000000 17.600006103516
833983.199999809265 816180.000000000000 17.600006103516
833985.000000000000 816179.800000190735 17.600006103516
833985.500000000000 816176.300000190735 17.600006103516
833986.300000190735 816176.300000190735 17.600006103516
833987.099999427795 816176.400000572205 17.600006103516
833987.899999618530 816176.600000381470 17.600006103516
833988.699999809265 816176.700000762939 17.600006103516
833989.500000000000 816177.000000000000 17.600006103516
833990.299999237061 816177.200000762939 17.600006103516
833991.000000000000 816177.600000381470 17.600006103516
833990.500000000000 816181.000000000000 17.600006103516
833992.199999809265 816182.100000381470 17.600006103516
833993.699998855591 816183.400000095367 17.600006103516
833995.000000000000 816184.800000190735 17.600006103516
833996.199998855591 816186.400000095367 17.600006103516
833997.000000000000 816188.200000047684 17.600006103516
833997.699998855591 816190.099999994040 17.600006103516
833998.100000381470 816192.000000000000 17.600006103516
834001.399999618530 816192.700000047684 17.600006103516
834001.500000000000 816194.099999904633 17.600006103516
834001.399999618530 816195.099999904633 17.600006103516
834001.299999237061 816196.199999809265 17.600006103516
834001.000000000000 816197.199999809265 17.600006103516
834000.699998855591 816198.199999809265 17.600006103516
833997.199998855591 816197.399999618530 17.600006103516
833996.699998855591 816199.399999618530 17.600006103516
833995.799999237061 816201.099999427795 17.600006103516
833994.500000000000 816202.599999427795 17.600006103516
833992.899999618530 816203.799999237061 17.600006103516
833991.000000000000 816204.399999618530 17.600006103516
833989.000000000000 816204.599999427795 17.600006103516
833987.099999427795 816204.399999618530 17.600006103516
833986.599999427795 816207.799999237061 17.600006103516
833985.199999809265 816207.799999237061 17.600006103516
833984.199999809265 816207.699998855591 17.600006103516
833983.099999904633 816207.399999618530 17.600006103516
833982.099999904633 816207.100000381470 17.600006103516
833981.099999904633 816206.699998855591 17.600006103516
833981.599999904633 816203.199999809265 17.600006103516
833979.899999856949 816202.199999809265 17.600006103516
833978.399999976158 816201.000000000000 17.600006103516
833977.000000000000 816199.500000000000 17.600006103516
833975.899999976158 816197.899999618530 17.600006103516
833975.000000000000 816196.199999809265 17.600006103516
833974.400000095367 816194.299999713898 17.600006103516
833974.100000143051 816192.399999856949 17.600006103516
833970.600000381470 816191.599999904633 17.600006103516
833970.600000381470 816190.799999952316 17.600006103516
833970.700000286102 816190.000000000000 17.600006103516
833970.800000190735 816189.200000047684 17.600006103516
833971.000000000000 816188.400000095367 17.600006103516
833971.099999904633 816187.600000143051 17.600006103516
833976.600000023842 816211.799999237061 35.000000000000
833964.100000381470 816193.000000000000 35.000000000000
833966.199999809265 816182.800000190735 35.000000000000
833985.099999427795 816170.300001144409 35.000000000000
833995.299999237061 816172.399999618530 35.000000000000
834007.799999237061 816191.299999952316 35.000000000000
834005.699998855591 816201.399999618530 35.000000000000
833986.800000190735 816213.899999618530 35.000000000000
833976.600000023842 816211.799999237061 23.600006103516
833964.100000381470 816193.000000000000 23.600006103516
833966.199999809265 816182.800000190735 23.600006103516
833985.099999427795 816170.300001144409 23.600006103516
833995.299999237061 816172.399999618530 23.600006103516
834007.799999237061 816191.299999952316 23.600006103516
834005.699998855591 816201.399999618530 23.600006103516
833986.800000190735 816213.899999618530 23.600006103516
833988.199999809265 816216.099998474121 35.000000000000
833986.800000190735 816213.899999618530 35.000000000000
833988.899999618530 816212.600000381470 35.000000000000
833990.199999809265 816214.600000381470 35.000000000000
833974.500000000000 816213.299999237061 35.000000000000
833973.100000143051 816211.199998855591 35.000000000000
833975.200000047684 816209.799999237061 35.000000000000
833965.500000000000 816195.000000000000 35.000000000000
833963.400000572205 816196.500000000000 35.000000000000
833962.000000000000 816194.400000095367 35.000000000000
833964.100000381470 816193.000000000000 35.000000000000
833960.100000381470 816186.900000095367 35.000000000000
833958.000000000000 816188.200000047684 35.000000000000
833958.700000762939 816184.800000190735 35.000000000000
833966.199999809265 816182.800000190735 35.000000000000
833964.800000190735 816180.699999809265 35.000000000000
833966.900000572205 816179.400000572205 35.000000000000
833968.300000190735 816181.400000572205 35.000000000000
833983.000000000000 816171.700000762939 35.000000000000
833981.599999904633 816169.600000381470 35.000000000000
833983.699999809265 816168.200000762939 35.000000000000
833985.099999427795 816170.300001144409 35.000000000000
833995.299999237061 816172.399999618530 35.000000000000
833997.399999618530 816171.000000000000 35.000000000000
833998.699998855591 816173.100000381470 35.000000000000
833996.600000381470 816174.500000000000 35.000000000000
834006.399999618530 816189.200000047684 35.000000000000
834008.500000000000 816187.799999952316 35.000000000000
834009.799999237061 816189.900000005960 35.000000000000
834011.799999237061 816197.399999618530 35.000000000000
834013.899997711182 816196.000000000000 35.000000000000
834015.299999237061 816198.199999809265 35.000000000000
834013.200000762939 816199.500000000000 35.000000000000
834003.599998474121 816202.899999618530 35.000000000000
834005.699998855591 816201.399999618530 35.000000000000
834007.000000000000 816203.500000000000 35.000000000000
834005.000000000000 816205.000000000000 35.000000000000
833980.599999904633 816218.000000000000 35.000000000000
833982.099999904633 816220.099998474121 35.000000000000
833978.599999904633 816219.399999618530 35.000000000000
833991.199999809265 816166.200000762939 35.000000000000
833989.799999237061 816164.200000762939 35.000000000000
833993.299999237061 816164.899999618530 35.000000000000
833988.199999809265 816216.099998474121 7.899993896484
833986.800000190735 816213.899999618530 7.899993896484
833988.899999618530 816212.600000381470 7.899993896484
833990.199999809265 816214.600000381470 7.899993896484
833976.600000023842 816211.799999237061 7.899993896484
833974.500000000000 816213.299999237061 7.899993896484
833973.100000143051 816211.199998855591 7.899993896484
833975.200000047684 816209.799999237061 7.899993896484
833965.500000000000 816195.000000000000 7.899993896484
833963.400000572205 816196.500000000000 7.899993896484
833962.000000000000 816194.400000095367 7.899993896484
833964.100000381470 816193.000000000000 7.899993896484
833960.100000381470 816186.900000095367 7.899993896484
833958.000000000000 816188.200000047684 7.899993896484
833956.600000381470 816186.200000047684 7.899993896484
833958.700000762939 816184.800000190735 7.899993896484
833966.199999809265 816182.800000190735 7.899993896484
833964.800000190735 816180.699999809265 7.899993896484
833966.900000572205 816179.400000572205 7.899993896484
833968.300000190735 816181.400000572205 7.899993896484
833983.000000000000 816171.700000762939 7.899993896484
833981.599999904633 816169.600000381470 7.899993896484
833983.699999809265 816168.200000762939 7.899993896484
833985.099999427795 816170.300001144409 7.899993896484
833995.299999237061 816172.399999618530 7.899993896484
833997.399999618530 816171.000000000000 7.899993896484
833998.699998855591 816173.100000381470 7.899993896484
833996.600000381470 816174.500000000000 7.899993896484
834006.399999618530 816189.200000047684 7.899993896484
834008.500000000000 816187.799999952316 7.899993896484
834009.799999237061 816189.900000005960 7.899993896484
834007.799999237061 816191.299999952316 7.899993896484
834011.799999237061 816197.399999618530 7.899993896484
834013.899997711182 816196.000000000000 7.899993896484
834015.299999237061 816198.199999809265 7.899993896484
834013.200000762939 816199.500000000000 7.899993896484
834003.599998474121 816202.899999618530 7.899993896484
834005.699998855591 816201.399999618530 7.899993896484
834007.000000000000 816203.500000000000 7.899993896484
834005.000000000000 816205.000000000000 7.899993896484
833979.899999856949 816221.399999618530 7.899993896484
833978.599999904633 816219.399999618530 7.899993896484
833980.599999904633 816218.000000000000 7.899993896484
833982.099999904633 816220.099998474121 7.899993896484
833991.899999618530 816162.800001144409 7.899993896484
833993.299999237061 816164.899999618530 7.899993896484
833991.199999809265 816166.200000762939 7.899993896484
833989.799999237061 816164.200000762939 7.899993896484
833984.699999809265 816169.700000762939 25.899993896484
833984.199999809265 816168.899999618530 25.899993896484
833982.099999904633 816170.200000762939 25.899993896484
833982.599999904633 816171.000000000000 25.899993896484
833991.799999237061 816165.000000000000 35.000000000000
833989.799999237061 816166.300001144409 35.000000000000
833989.199999809265 816165.500000000000 35.000000000000
833991.299999237061 816164.100000381470 35.000000000000
833992.699999809265 816164.300001144409 17.000000000000
833992.199999809265 816163.500000000000 17.000000000000
833990.199999809265 816164.899999618530 17.000000000000
833990.699999809265 816165.800001144409 17.000000000000
833985.599999427795 816169.100000381470 7.899993896484
833985.000000000000 816168.200000762939 7.899993896484
833983.000000000000 816169.700000762939 7.899993896484
833983.500000000000 816170.500000000000 7.899993896484
833978.500000000000 816187.799999952316 17.600006103516
833976.900000005960 816187.400000095367 17.600006103516
833977.099999994040 816186.500000000000 17.600006103516
833978.599999904633 816186.700000047684 17.600006103516
833977.099999994040 816186.500000000000 7.899993896484
833976.900000005960 816187.400000095367 7.899993896484
833978.500000000000 816187.799999952316 7.899993896484
833978.599999904633 816186.700000047684 7.899993896484
833985.099999427795 816183.200000286102 17.600006103516
833984.199999809265 816183.000000000000 17.600006103516
833984.399999618530 816181.400000572205 17.600006103516
833985.399999618530 816181.600000381470 17.600006103516
833984.399999618530 816181.400000572205 7.899993896484
833985.399999618530 816181.600000381470 7.899993896484
833985.099999427795 816183.200000286102 7.899993896484
833984.199999809265 816183.000000000000 7.899993896484
833995.399999618530 816197.500000000000 17.600006103516
833993.799999237061 816197.199999809265 17.600006103516
833994.000000000000 816196.199999809265 17.600006103516
833995.600000381470 816196.500000000000 17.600006103516
833994.000000000000 816196.199999809265 7.899993896484
833993.799999237061 816197.199999809265 7.899993896484
833995.399999618530 816197.500000000000 7.899993896484
833995.600000381470 816196.500000000000 7.899993896484
833988.199999809265 816202.399999618530 17.600006103516
833987.199999809265 816202.199999809265 17.600006103516
833987.500000000000 816200.599999427795 17.600006103516
833988.500000000000 816200.899999618530 17.600006103516
833987.500000000000 816200.599999427795 7.899993896484
833988.500000000000 816200.899999618530 7.899993896484
833988.199999809265 816202.399999618530 7.899993896484
833987.199999809265 816202.199999809265 7.899993896484
833987.000000000000 816214.600000381470 25.899993896484
833987.599999427795 816215.500000000000 25.899993896484
833989.699999809265 816214.100000381470 25.899993896484
833989.099999427795 816213.299999237061 25.899993896484
833979.899999856949 816219.399999618530 35.000000000000
833982.000000000000 816218.000000000000 35.000000000000
833982.599999904633 816218.899999618530 35.000000000000
833980.500000000000 816220.199998855591 35.000000000000
833979.000000000000 816220.000000000000 17.000000000000
833979.599999904633 816220.899999618530 17.000000000000
833981.699999809265 816219.399999618530 17.000000000000
833981.099999904633 816218.599998474121 17.000000000000
833986.199999809265 816215.299999237061 7.899993896484
833986.699999809265 816216.099998474121 7.899993896484
833988.800000190735 816214.699998855591 7.899993896484
833988.199999809265 816213.899999618530 7.899993896484
834006.699998855591 816203.000000000000 25.899993896484
834006.199998855591 816202.099999427795 25.899993896484
834004.199998855591 816203.500000000000 25.899993896484
834004.599998474121 816204.299999237061 25.899993896484
834013.899997711182 816198.199999809265 35.000000000000
834011.799999237061 816199.599999427795 35.000000000000
834011.299999237061 816198.699999809265 35.000000000000
834013.399997711182 816197.399999618530 35.000000000000
834014.799999237061 816197.599999904633 17.000000000000
834014.200000762939 816196.699999809265 17.000000000000
834012.200000762939 816198.199999809265 17.000000000000
834012.700000762939 816199.000000000000 17.000000000000
834007.699998855591 816202.300000190735 7.899993896484
834007.099998474121 816201.500000000000 7.899993896484
834005.000000000000 816202.899999618530 7.899993896484
834005.599998474121 816203.799999237061 7.899993896484
833975.200000047684 816212.899999618530 25.899993896484
833976.000000000000 816212.299999237061 25.899993896484
833974.600000143051 816210.199998855591 25.899993896484
833973.800000190735 816210.799999237061 25.899993896484
833979.899999856949 816220.000000000000 35.000000000000
833978.599999904633 816217.899999618530 35.000000000000
833979.399999856949 816217.399999618530 35.000000000000
833980.699999809265 816219.399999618530 35.000000000000
833980.599999904633 816220.899999618530 17.000000000000
833981.400000095367 816220.299999237061 17.000000000000
833980.000000000000 816218.199998855591 17.000000000000
833979.099999904633 816218.799999237061 17.000000000000
833975.800000071526 816213.799999237061 7.899993896484
833976.600000023842 816213.199998855591 7.899993896484
833975.200000047684 816211.100000381470 7.899993896484
833974.400000095367 816211.699998855591 7.899993896484
833963.400000572205 816193.399999856949 25.899993896484
833962.600000381470 816193.899999856949 25.899993896484
833964.000000000000 816196.000000000000 25.899993896484
833964.800000190735 816195.400000095367 25.899993896484
833958.700000762939 816186.200000047684 35.000000000000
833960.100000381470 816188.300000071526 35.000000000000
833959.300001144409 816188.899999976158 35.000000000000
833957.800001144409 816186.800000190735 35.000000000000
833958.100000381470 816185.400000095367 17.000000000000
833957.300001144409 816185.900000095367 17.000000000000
833958.600000381470 816188.000000000000 17.000000000000
833959.399999618530 816187.400000095367 17.000000000000
833962.900000572205 816192.500000000000 7.899993896484
833962.000000000000 816193.000000000000 7.899993896484
833963.400000572205 816195.099999904633 7.899993896484
833964.200000762939 816194.599999904633 7.899993896484
833965.100000381470 816181.400000572205 25.899993896484
833965.699999809265 816182.200000286102 25.899993896484
833967.699999809265 816180.800000190735 25.899993896484
833967.199999809265 816180.000000000000 25.899993896484
833957.899999618530 816186.100000143051 35.000000000000
833960.000000000000 816184.700000286102 35.000000000000
833960.600000381470 816185.500000000000 35.000000000000
833958.500000000000 816187.000000000000 35.000000000000
833957.000000000000 816186.700000047684 17.000000000000
833957.600000381470 816187.500000000000 17.000000000000
833959.700000762939 816186.200000047684 17.000000000000
833959.100000381470 816185.400000095367 17.000000000000
833964.200000762939 816182.000000000000 7.899993896484
833964.699999809265 816182.800000190735 7.899993896484
833966.800000190735 816181.400000572205 7.899993896484
833966.199999809265 816180.600000381470 7.899993896484
833996.799999237061 816171.399999618530 25.899993896484
833995.899999618530 816171.899999618530 25.899993896484
833997.399999618530 816174.000000000000 25.899993896484
833998.199998855591 816173.399999618530 25.899993896484
833992.000000000000 816164.200000762939 35.000000000000
833993.399999618530 816166.300001144409 35.000000000000
833992.599999427795 816166.899999618530 35.000000000000
833991.199999809265 816164.800001144409 35.000000000000
833991.399999618530 816163.400001525879 17.000000000000
833990.599999427795 816163.900001525879 17.000000000000
833992.000000000000 816166.000000000000 17.000000000000
833992.799999237061 816165.399999618530 17.000000000000
833996.199998855591 816170.500000000000 7.899993896484
833995.399999618530 816171.000000000000 7.899993896484
833996.699998855591 816173.100000381470 7.899993896484
833997.500000000000 816172.600000381470 7.899993896484
834008.399999618530 816190.899999976158 25.899993896484
834009.299999237061 816190.299999982119 25.899993896484
834007.799999237061 816188.300000071526 25.899993896484
834007.000000000000 816188.800000071526 25.899993896484
834013.200000762939 816198.099999427795 35.000000000000
834011.799999237061 816196.000000000000 35.000000000000
834012.599998474121 816195.400000095367 35.000000000000
834014.000000000000 816197.500000000000 35.000000000000
834013.799999237061 816199.000000000000 17.000000000000
834014.599998474121 816198.399999618530 17.000000000000
834013.200000762939 816196.299999713898 17.000000000000
834012.399997711182 816196.899999618530 17.000000000000
834009.000000000000 816191.799999952316 7.899993896484
834009.799999237061 816191.299999952316 7.899993896484
834008.500000000000 816189.200000047684 7.899993896484
834007.599998474121 816189.800000011921 7.899993896484
3 0 1 2
3 2 3 0
3 4 5 6
3 6 7 4
3 5 8 9
3 9 6 5
3 8 10 11
3 11 9 8
3 10 4 7
3 7 11 10
3 7 6 12
3 12 13 7
3 6 9 14
3 14 12 6
3 9 11 15
3 15 14 9
3 11 7 13
3 13 15 11
3 13 12 16
3 16 17 13
3 12 14 18
3 18 16 12
3 14 15 19
3 19 18 14
3 15 13 17
3 17 19 15
3 17 16 20
3 20 21 17
3 16 18 22
3 22 20 16
3 18 19 23
3 23 22 18
3 19 17 21
3 21 23 19
3 21 20 24
3 24 25 21
3 20 22 26
3 26 24 20
3 22 23 27
3 27 26 22
3 23 21 25
3 25 27 23
3 25 24 3
3 3 2 25
3 24 26 0
3 0 3 24
3 26 27 1
3 1 0 26
3 27 25 2
3 2 1 27
3 28 29 30
3 31 29 28
3 32 33 34
3 30 29 32
3 32 34 30
3 29 31 33
3 33 32 29
3 31 30 34
3 34 33 31
3 35 36 37
3 38 39 36
3 36 35 38
3 39 40 37
3 37 36 39
3 40 38 35
3 35 37 40
3 41 38 40
3 39 41 40
3 42 43 44
3 45 46 43
3 43 42 45
3 46 47 44
3 44 43 46
3 47 45 42
3 42 44 47
3 48 49 50
3 50 49 51
3 52 53 49
3 49 48 52
3 53 54 50
3 50 49 53
3 54 52 48
3 48 50 54
3 54 53 49
3 49 50 54
3 53 55 51
3 51 49 53
3 55 54 50
3 50 51 55
3 46 56 47
3 56 45 47
3 57 58 59
3 58 60 59
3 61 62 63
3 64 65 62
3 62 61 64
3 65 66 63
3 63 62 65
3 66 64 61
3 61 63 66
3 67 68 69
3 68 70 69
3 71 72 73
3 69 70 72
3 72 71 69
3 70 67 73
3 73 72 70
3 67 69 71
3 71 73 67
3 74 75 76
3 76 75 77
3 78 79 75
3 75 74 78
3 79 80 76
3 76 75 79
3 80 78 74
3 74 76 80
3 80 79 75
3 75 76 80
3 79 81 77
3 77 75 79
3 81 80 76
3 76 77 81
3 82 83 84
3 84 83 85
3 86 87 83
3 83 82 86
3 87 88 84
3 84 83 87
3 88 86 82
3 82 84 88
3 88 87 83
3 83 84 88
3 87 89 85
3 85 83 87
3 89 88 84
3 84 85 89
3 90 91 92
3 92 93 90
3 91 94 95
3 95 92 91
3 94 96 97
3 97 95 94
3 96 98 99
3 99 97 96
3 98 100 101
3 101 99 98
3 100 102 103
3 103 101 100
3 102 90 93
3 93 103 102
3 100 98 96
3 96 94 91
3 96 91 90
3 100 96 90
3 102 100 90
3 92 95 97
3 97 99 101
3 97 101 103
3 92 97 103
3 93 92 103
3 104 105 106
3 106 107 104
3 108 109 105
3 105 104 108
3 110 111 109
3 109 108 110
3 107 106 111
3 111 110 107
3 109 111 106
3 106 105 109
3 108 104 107
3 110 108 107
3 112 113 114
3 114 115 112
3 116 117 113
3 113 112 116
3 118 119 117
3 117 116 118
3 115 114 119
3 119 118 115
3 117 119 114
3 114 113 117
3 116 112 115
3 118 116 115
3 120 121 122
3 122 123 120
3 124 120 123
3 123 125 124
3 126 124 125
3 125 127 126
3 121 126 127
3 127 122 121
3 125 123 122
3 122 127 125
3 124 121 120
3 126 121 124
3 128 129 3
3 3 130 128
3 129 131 132
3 132 3 129
3 133 134 135
3 133 135 132
3 131 133 132
3 133 136 137
3 133 137 138
3 133 138 134
3 136 139 140
3 140 137 136
3 139 141 142
3 142 140 139
3 143 144 145
3 143 145 142
3 141 143 142
3 143 128 130
3 143 130 146
3 143 146 144
3 131 129 128
3 133 131 128
3 133 128 143
3 136 133 143
3 136 143 141
3 136 141 139
3 147 148 0
3 0 149 147
3 148 150 151
3 151 0 148
3 152 153 138
3 152 138 151
3 150 152 151
3 152 154 155
3 152 155 145
3 152 145 153
3 154 156 2
3 2 155 154
3 156 157 158
3 158 2 156
3 159 160 146
3 159 146 158
3 157 159 158
3 159 147 149
3 159 149 161
3 159 161 160
3 157 156 154
3 159 157 154
3 159 154 152
3 159 152 150
3 147 159 150
3 147 150 148
3 130 3 132
3 130 132 135
3 146 130 135
3 155 2 158
3 155 158 146
3 145 155 146
3 138 137 140
3 140 142 145
3 138 140 145
3 145 146 135
3 138 145 135
3 151 138 161
3 151 161 149
3 151 149 0
3 162 163 164
3 165 162 164
3 165 164 166
3 167 165 166
3 167 166 168
3 169 167 168
3 169 168 170
3 171 169 170
3 171 170 172
3 173 171 172
3 173 172 174
3 175 173 174
3 175 174 176
3 177 175 176
3 177 176 178
3 179 177 178
3 179 178 180
3 181 179 180
3 181 180 182
3 183 181 182
3 183 182 184
3 183 184 185
3 185 164 163
3 183 185 163
3 186 187 185
3 185 184 186
3 187 188 164
3 164 185 187
3 188 189 166
3 166 164 188
3 189 190 168
3 168 166 189
3 190 191 170
3 170 168 190
3 191 192 172
3 172 170 191
3 192 193 174
3 174 172 192
3 193 194 176
3 176 174 193
3 194 195 178
3 178 176 194
3 195 196 180
3 180 178 195
3 196 197 182
3 182 180 196
3 197 186 184
3 184 182 197
3 198 199 183
3 183 163 198
3 199 200 181
3 181 183 199
3 200 201 179
3 179 181 200
3 201 202 177
3 177 179 201
3 202 203 175
3 175 177 202
3 203 204 173
3 173 175 203
3 204 205 171
3 171 173 204
3 205 206 169
3 169 171 205
3 206 207 167
3 167 169 206
3 207 208 165
3 165 167 207
3 208 209 162
3 162 165 208
3 209 198 163
3 163 162 209
3 198 188 187
3 199 198 187
3 199 187 186
3 199 186 197
3 188 198 209
3 188 209 208
3 189 188 208
3 189 208 207
3 190 189 207
3 190 207 206
3 191 190 206
3 191 206 205
3 192 191 205
3 192 205 204
3 193 192 204
3 193 204 203
3 194 193 203
3 194 203 202
3 195 194 202
3 195 202 201
3 196 195 201
3 196 201 200
3 197 196 200
3 199 197 200
3 210 211 212
3 212 213 210
3 214 215 216
3 216 217 214
3 210 213 215
3 215 214 210
3 213 212 216
3 216 215 213
3 212 211 217
3 217 216 212
3 211 210 214
3 214 217 211
3 218 219 117
3 117 220 218
3 221 222 223
3 223 224 221
3 218 220 222
3 222 221 218
3 220 117 223
3 223 222 220
3 117 219 224
3 224 223 117
3 219 218 221
3 221 224 219
3 225 226 227
3 227 228 225
3 226 229 230
3 230 227 226
3 229 231 232
3 232 230 229
3 231 233 234
3 234 232 231
3 233 235 236
3 236 234 233
3 235 237 238
3 238 236 235
3 237 225 228
3 228 238 237
3 235 233 231
3 231 229 226
3 231 226 225
3 235 231 225
3 237 235 225
3 227 230 232
3 232 234 236
3 232 236 238
3 227 232 238
3 228 227 238
3 239 240 241
3 241 242 239
3 243 239 242
3 242 244 243
3 245 243 244
3 244 246 245
3 240 245 246
3 246 241 240
3 244 242 241
3 241 246 244
3 243 240 239
3 245 240 243
3 247 248 249
3 249 250 247
3 251 247 250
3 250 252 251
3 253 251 252
3 252 254 253
3 248 253 254
3 254 249 248
3 252 250 249
3 249 254 252
3 251 248 247
3 253 248 251
3 255 256 257
3 257 258 255
3 259 260 256
3 256 255 259
3 261 262 260
3 260 259 261
3 258 257 262
3 262 261 258
3 260 262 257
3 257 256 260
3 259 255 258
3 261 259 258
3 263 264 265
3 265 266 263
3 267 268 264
3 264 263 267
3 269 270 268
3 268 267 269
3 266 265 270
3 270 269 266
3 268 270 265
3 265 264 268
3 267 263 266
3 269 267 266
3 271 272 273
3 273 274 271
3 272 275 276
3 276 273 272
3 275 277 278
3 278 276 275
3 277 279 280
3 280 278 277
3 279 281 282
3 282 280 279
3 281 283 284
3 284 282 281
3 283 271 274
3 274 284 283
3 281 279 277
3 277 275 272
3 277 272 271
3 281 277 271
3 283 281 271
3 273 276 278
3 278 280 282
3 278 282 284
3 273 278 284
3 274 273 284
3 285 286 287
3 285 287 288
3 285 288 289
3 285 289 290
3 285 290 291
3 285 291 292
3 285 292 293
3 285 293 294
3 285 294 295
3 285 295 296
3 285 296 297
3 285 297 286
3 298 287 286
3 286 299 298
3 300 288 287
3 287 298 300
3 301 289 288
3 288 300 301
3 302 290 289
3 289 301 302
3 303 291 290
3 290 302 303
3 304 292 291
3 291 303 304
3 305 293 292
3 292 304 305
3 306 294 293
3 293 305 306
3 307 295 294
3 294 306 307
3 308 296 295
3 295 307 308
3 309 297 296
3 296 308 309
3 299 286 297
3 297 309 299
3 310 298 299
3 299 311 310
3 312 300 298
3 298 310 312
3 313 301 300
3 300 312 313
3 314 302 301
3 301 313 314
3 315 303 302
3 302 314 315
3 316 304 303
3 303 315 316
3 317 305 304
3 304 316 317
3 318 306 305
3 305 317 318
3 319 307 306
3 306 318 319
3 320 308 307
3 307 319 320
3 321 309 308
3 308 320 321
3 311 299 309
3 309 321 311
3 285 287 286
3 285 288 287
3 285 289 288
3 285 290 289
3 285 291 290
3 285 292 291
3 285 293 292
3 285 294 293
3 285 295 294
3 285 296 295
3 285 297 296
3 285 286 297
3 298 299 286
3 286 287 298
3 300 298 287
3 287 288 300
3 301 300 288
3 288 289 301
3 302 301 289
3 289 290 302
3 303 302 290
3 290 291 303
3 304 303 291
3 291 292 304
3 305 304 292
3 292 293 305
3 306 305 293
3 293 294 306
3 307 306 294
3 294 295 307
3 308 307 295
3 295 296 308
3 309 308 296
3 296 297 309
3 299 309 297
3 297 286 299
3 310 311 299
3 299 298 310
3 312 310 298
3 298 300 312
3 313 312 300
3 300 301 313
3 314 313 301
3 301 302 314
3 315 314 302
3 302 303 315
3 316 315 303
3 303 304 316
3 317 316 304
3 304 305 317
3 318 317 305
3 305 306 318
3 319 318 306
3 306 307 319
3 320 319 307
3 307 308 320
3 321 320 308
3 308 309 321
3 311 321 309
3 309 299 311
3 322 323 324
3 322 324 325
3 322 325 326
3 322 326 327
3 322 327 328
3 322 328 329
3 322 329 330
3 322 330 331
3 322 331 332
3 322 332 333
3 322 333 334
3 322 334 323
3 335 324 323
3 323 336 335
3 337 325 324
3 324 335 337
3 338 326 325
3 325 337 338
3 339 327 326
3 326 338 339
3 340 328 327
3 327 339 340
3 341 329 328
3 328 340 341
3 342 330 329
3 329 341 342
3 343 331 330
3 330 342 343
3 344 332 331
3 331 343 344
3 345 333 332
3 332 344 345
3 346 334 333
3 333 345 346
3 336 323 334
3 334 346 336
3 347 335 336
3 336 348 347
3 349 337 335
3 335 347 349
3 350 338 337
3 337 349 350
3 351 339 338
3 338 350 351
3 352 340 339
3 339 351 352
3 353 341 340
3 340 352 353
3 354 342 341
3 341 353 354
3 355 343 342
3 342 354 355
3 356 344 343
3 343 355 356
3 357 345 344
3 344 356 357
3 358 346 345
3 345 357 358
3 348 336 346
3 346 358 348
3 359 360 361
3 361 362 359
3 363 359 362
3 362 364 363
3 365 363 364
3 364 366 365
3 360 365 366
3 366 361 360
3 364 362 361
3 361 366 364
3 363 360 359
3 365 360 363
3 322 324 323
3 322 325 324
3 322 326 325
3 322 327 326
3 322 328 327
3 322 329 328
3 322 330 329
3 322 331 330
3 322 332 331
3 322 333 332
3 322 334 333
3 322 323 334
3 335 336 323
3 323 324 335
3 337 335 324
3 324 325 337
3 338 337 325
3 325 326 338
3 339 338 326
3 326 327 339
3 340 339 327
3 327 328 340
3 341 340 328
3 328 329 341
3 342 341 329
3 329 330 342
3 343 342 330
3 330 331 343
3 344 343 331
3 331 332 344
3 345 344 332
3 332 333 345
3 346 345 333
3 333 334 346
3 336 346 334
3 334 323 336
3 347 348 336
3 336 335 347
3 349 347 335
3 335 337 349
3 350 349 337
3 337 338 350
3 351 350 338
3 338 339 351
3 352 351 339
3 339 340 352
3 353 352 340
3 340 341 353
3 354 353 341
3 341 342 354
3 355 354 342
3 342 343 355
3 356 355 343
3 343 344 356
3 357 356 344
3 344 345 357
3 358 357 345
3 345 346 358
3 348 358 346
3 346 336 348
3 8 5 4
3 4 10 8
