OFF
495 416 0

-15.141 -15.3394 81.7359
-17.3571 -13.8619 77.04
-6.52782 -21.0815 77.04
-18.95 -12.8 -145.06
-15.1627 -15.3249 -149.838
-11.75 -17.6 -154.143
-6.52782 -21.0815 -147.7
-4.75252 -22.265 -145.51
-4.75252 -22.265 -137.46
-4.75252 -22.265 69.1972
-4.75252 -22.265 69.44
-4.75252 -22.265 77.04
-6.52782 -21.0815 79.533
-11.7041 -17.6306 85.9571
-11.75 -17.6 86.014
-17.3571 -13.8619 78.94
-18.8632 -12.8579 77.04
-18.95 -12.8 77.04
-18.95 -12.8 69.44
-18.95 -12.8 68.4842
-18.95 -12.8 -137.211
-16.9727 12.7946 77.04
-13.9834 17.2941 69.44
-21.3682 6.17874 69.44
-12.85 19 -137.46
-13.9834 17.2941 -139.586
-17.6691 11.7465 -146.498
-17.7153 11.6769 -146.585
-21.3682 6.17874 -139.69
-22.2297 4.88205 -138.064
-22.2297 4.88205 69.44
-21.3682 6.17874 71.34
-18.4424 10.5826 77.04
-13.9834 17.2941 71.34
-12.9869 18.7939 69.44
-12.85 19 69.44
-12.85 19 69.1789
4.74339 22.2633 69.44
17.3641 13.9246 77.04
6.05 21.4 77.04
11.65 17.7 86.014
19.0698 12.7976 76.8284
19.0698 12.7976 77.04
19.0698 12.7976 69.44
19.0698 12.7976 68.8475
19.0698 12.7976 -137.12
19.0698 12.7976 -145.06
11.65 17.7 -154.143
8.32689 19.8956 -149.993
4.74339 22.2633 -145.519
4.74339 22.2633 -137.46
4.74339 22.2633 68.9667
4.74339 22.2633 77.04
6.05 21.4 78.94
11.65 17.7 86.014
17.3641 13.9246 78.94
18.8989 12.9105 77.04
22.4289 -4.55746 -137.708
13.7724 -17.3144 69.44
21.1758 -6.40412 69.44
12.5967 -19.047 69.1952
12.5967 -19.047 69.44
12.5967 -19.047 -137.46
13.7724 -17.3144 -139.573
17.65 -11.6 -146.543
17.65 -11.6 -146.543
21.1758 -6.40412 -140.025
22.4289 -4.55746 69.44
21.1758 -6.40412 71.8505
18.3881 -10.5123 77.04
17.65 -11.6 77.04
16.8968 -12.7099 77.04
13.7724 -17.3144 71.34
12.7309 -18.8492 69.44
-29.3646 -5.85696 -131.922
-1.81213 -0.899773 108.6
-5.45084 -3.8943 108.6
-1.99828 -6.18326 108.6
-2.63501 -7.70341 106.976
-0.55 -2.80394 108.6
18.7199 4.41378 98.2545
19.35 4 97.7456
9.64423 2.53024 107.475
8.65141 1.84034 108.6
18.978 3.43725 98.2406
10.0475 1.57178 107.316
8.66105 1.8017 108.6
15.4473 6.56269 100.897
16.9847 0.421389 100.893
24.3554 0.713186 88.9674
22.0764 -2.7364 88.9671
7.30977 1.00071 108.6
7.06124 1.99604 108.6
4.52262 1.46916 111.187
4.10464 1.17634 111.663
4.03341 0.761368 111.832
4.09103 0.680164 111.796
5.02127 0.522665 110.933
8.09161 2.20857 108.6
0.692404 0.682037 108.836
0.968151 0.739165 108.635
1.0171 0.749306 108.6
0.506153 0.643451 108.971
-17.3571 -13.8619 87.78
-17.5258 -12.9623 88.44
19.3784 3.98134 94.9645
1.03684 1.44483 108.97
1.39517 1.73972 108.832
4.68653 4.44839 108.6
2.00089 2.23821 108.6
15.0064 -1.1679 101.668
7.53543 0.0969957 108.6
9.68088 -2.26008 105.511
6.59306 -1.33019 108.6
2.36884 -0.0286992 108.6
21.1758 -6.40412 77.04
18.9787 3.4382 96.706
19.35 4 96.2104
18.7176 4.41524 96.7225
-5.727 -0.64383 110.223
-4.14725 -0.632637 111.762
-0.802772 -0.655637 108.6
-0.635137 -0.654629 108.739
-5.79406 -0.655637 108.6
-3.96729 -0.890161 111.878
-4.14816 -0.631336 111.762
-4.96133 -0.486871 111.004
-7.3191 -0.970209 108.6
-7.07678 -1.99662 108.6
-4.72901 -1.50876 110.995
-1.1306 0.306299 108.6
-8.3009 -1.17272 108.6
27.6415 5.70559 88.978
28.0872 5.41118 88.44
0.694545 1.60036 108.6
0.69118 0.922853 108.97
0.694545 0.26115 108.6
0.818125 16.169 95.0063
0.767091 16.2025 100.62
-23.55 15.6 69.44
-24.1965 15.4855 69.44
20.9797 2.92985 93.035
24.7931 0.425803 88.44
25.4968 -0.0363062 87.592
-0.55 -7.14344 108.6
-0.55 -1.62237 108.6
-0.55 -16.3257 100.92
-0.55 -16.3257 100.436
22.9037 -15.6199 71.34
22.9037 -15.6199 69.44
8.26334 1.19937 108.6
0.59124 -0.399242 108.96
1.08796 -0.29556 108.6
-17.3571 -13.8619 84.4108
-15.6849 -22.7807 77.04
-15.6849 -22.7807 78.94
-0.0609902 0.462 108.6
-5.03783 3.74347 108.6
-1.7568 8.68674 108.6
3.22352 5.41074 108.6
2.50955 4.33501 108.6
-5.81334 28.4085 88.44
5.39923 -3.13818 108.6
0.55771 0.0540611 108.6
3.83248 5.01018 108.6
-23.55 15.6 71.34
12.3812 15.7875 88.9612
19.387 11.1591 88.9689
13.7557 7.67354 100.899
9.05495 10.7603 94.9878
12.6689 16.2223 88.44
13.0393 16.7821 87.7689
7.66573 11.6725 100.905
7.66573 11.6725 94.9909
11.279 17.1387 88.44
11.1196 -19.321 88.9658
-8.01755 -2.19262 108.6
-0.828839 -0.694912 108.6
-18.6028 -4.39385 100.889
-18.6059 -4.39182 95.8876
17.3641 13.9246 87.7739
-0.55 17.0674 95.0094
-0.55 17.0674 99.0511
15.55 23.6 77.04
15.55 23.6 78.94
-14.5521 -15.7319 -157.6
9.50018 -10.4521 -157.6
12.5967 -19.047 -144.688
15.7115 -14.4567 -150.127
-12.928 18.8826 87.7827
-15.9939 14.2679 81.8099
-12.3858 18.5059 88.44
-19.3037 9.28621 87.7773
-13.3484 18.2498 77.04
-18.7269 8.95169 88.44
10.235 18.6349 87.7657
9.86335 18.0721 88.44
-18.95 -12.8 86.3334
5.68934 -29.2262 56.5941
2.93245 -20.8395 93.1396
3.95 -19.3 94.9903
3.96012 -19.3067 94.9903
5.54589 -20.3548 93.0757
-19.35 -3.9 94.9995
-20.7756 -2.95777 93.298
17.65 -11.6 87.7652
17.0911 -11.2305 88.44
11.65 17.7 87.7674
-11.7041 -17.6306 87.7457
-11.3223 -17.053 88.44
19.2464 11.8855 88.44
3.77829 22.0843 88.44
-3.71139 -22.0719 88.44
-19.1142 -11.9149 88.44
22.2185 -3.47059 88.44
11.8327 -19.1887 88.44
-22.0546 3.93791 88.44
-11.9466 19.1676 88.44
1.74839 -8.66722 108.6
-3.08679 -5.46161 108.6
0.161423 -0.54569 108.6
5.00296 -3.73832 108.6
7.19991 -14.3829 100.901
3.95671 -19.2899 95.0025
3.95 -19.3 95.0025
3.95 -19.3 100.904
-3.71576 -5.04461 108.6
-5.43517 3.14484 108.6
-0.458488 -0.136906 108.6
-8.6844 -1.75052 108.6
-19.35 -3.9 95.02
-16.1076 0.984653 100.899
-19.3439 -3.89084 100.899
-19.35 -3.9 100.888
22.7866 -14.9954 69.44
22.7866 -14.9954 72.2553
22.7866 -14.9954 72.2553
12.5967 -19.047 87.8211
12.5665 -19.0915 87.8773
5.68934 -29.2262 -132.628
-17.0517 -23.0343 77.04
-16.9583 -23.017 77.04
6.05 21.4 87.761
23.55 -15.5 69.44
23.55 -15.5 71.34
26.4434 1.35865 69.44
22.4289 -4.55746 76.6801
25.0379 8.85441 69.44
-23.55 15.6 71.34
-15.0278 -22.6588 77.04
-15.0278 -22.6588 79.9203
-15.0278 -22.6588 79.9547
-13.4868 4.71067 -157.6
-10.9474 -8.97995 -157.6
-19.5416 8.92816 -150.01
-22.2297 4.88205 -145.06
15.55 23.6 77.04
15.55 23.6 78.94
15.55 23.6 78.94
22.7866 -14.9954 -140.388
-5.63302 -7.99421 -157.6
-8.62005 5.61338 -157.6
-8.44101 5.64659 -157.6
-21.9082 3.14864 -157.6
-14.2618 -21.4999 81.3381
-16.6844 -24.4781 77.04
5.43442 8.22026 -157.6
8.28862 -5.41197 -157.6
-19.3688 -10.542 -157.6
-18.95 -12.8 -154.341
8.42191 -5.50008 -157.6
11.4192 -19.2654 -157.6
-12.85 19 -144.476
-17.6691 11.7465 -153.13
-14.0905 9.381 -157.6
4.27152 13.561 -157.6
4.74339 22.2633 -154.287
2.46853 21.8413 -157.6
-17.6691 11.7465 -157.6
17.65 -11.6 -157.6
-3.95 19.3 95.017
-3.9367 19.2913 95.017
1.01127 16.0422 100.911
-3.93726 19.2916 100.916
-17.0517 -23.0343 -145.06
-15.0094 -22.6553 -148.101
-17.0517 -23.0343 69.44
-16.7806 -24.496 -145.06
-16.1167 -24.3729 -146.049
16.7284 24.4863 77.04
4.74339 22.2633 77.2895
-14.4091 -7.16567 100.897
-19.3328 -3.91134 95.0199
18.796 -12.3575 77.04
22.4289 -4.55746 69.5178
28.8509 4.9066 87.518
28.8509 4.9066 77.04
-4.75252 -22.265 77.3298
-16.167 -24.3822 77.04
-23.8444 16.8712 69.44
-24.4342 16.7668 69.44
-22.2297 4.88205 77.04
-12.85 19 77.04
-29.3646 -5.85696 55.7621
-29.3646 -5.85696 -124.598
-4.10745 -0.831518 111.907
-19.3613 -3.91703 94.9995
-3.94122 19.3132 95.0011
-7.20441 14.3972 100.9
-4.93662 3.24575 108.96
0.0416965 -0.036881 108.96
-4.00641 -0.898324 111.907
-11.8793 20.4611 -157.6
-12.85 19 -155.768
-15.4109 -24.2419 69.44
-15.4109 -24.2419 77.04
-15.4109 -24.2419 -146.015
5.68934 -29.2262 64.3709
1.60479 -26.5032 69.44
-4.51904 -22.4206 77.04
22.4289 -4.55746 77.04
12.5967 -19.047 77.04
29.45 5.78947 -132.394
22.4289 -4.55746 -145.06
29.45 5.93928 -132.353
16.0531 24.3611 77.04
-5.97631 29.346 56.0724
-23.8643 16.957 69.3118
-24.4493 16.8485 69.3188
-5.97631 29.346 -124.568
-5.97631 29.346 69.44
-0.950756 -16.0609 100.919
5.68934 -29.2262 -125.044
5.68934 -29.2262 69.44
23.1783 -17.0843 69.194
23.1783 -17.0843 69.44
23.1783 -17.0843 -137.46
22.9037 -15.6199 -139.574
5.68934 -29.2262 77.04
4.16145 0.903355 111.86
19.35 4 94.9646
19.35 4 94.9988
14.4543 7.2148 100.898
19.3311 3.97147 94.9988
20.4504 5.66483 92.9695
-3.19177 -4.94068 108.977
0.044999 -0.0529253 108.971
0.0609735 -0.049592 108.96
15.429 24.2453 77.04
4.5459 22.3938 77.04
-5.97631 29.346 -132.133
12.5967 -19.047 -157.6
3.32863 4.9056 108.965
-22.2297 4.88205 -157.6
-18.95 -12.8 -157.6
16.0798 -0.947759 100.894
4.74339 22.2633 -157.6
-12.85 19 -157.6
19.0698 12.7976 -157.6
24.7954 -16.7843 69.1938
22.4289 -4.55746 -157.6
16.7459 0.0600639 99.6862
-5.97631 29.346 77.04
4.74339 22.2633 87.7595
-5.97631 29.346 87.7472
24.693 -16.2556 -138.104
23.55 -15.5 -139.474
-29.3646 -5.85696 69.44
-18.95 -12.8 87.7896
-29.2948 -5.90349 87.8523
-20.5534 -4.15543 94.1417
23.4809 -15.5128 -139.574
-3.9865 -0.997121 111.835
24.7954 -16.7843 -137.46
24.7087 -16.3368 -138.107
0.0577498 -0.0336707 108.971
0.0676784 25.3526 87.7541
-16.7806 -24.496 77.04
-0.31173 24.781 88.44
-2.92744 20.8405 93.1685
-24.1965 15.4855 -138.576
10.9923 16.7051 88.9597
27.65 5.7 88.9678
-22.3435 4.71078 69.44
0.951361 -7.24714 108.6
1.96293 -7.05465 108.6
-24.3049 16.0699 -138.605
3.95 -19.3 96.1477
4.28175 -18.7981 96.5806
3.40948 -18.9427 96.6016
4.90022 -3.24052 108.96
2.15899 -8.04538 108.6
0.75194 -0.935091 108.6
4.28315 -18.7959 100.903
-23.5884 2.83698 -157.6
-22.2297 4.88205 -155.052
4.28143 -18.7985 95.5931
4.22205 -20.6003 94.0518
12.5967 -19.047 87.8767
5.90443 -28.9093 88.0243
-13.9834 17.2941 77.04
16.0294 24.3567 -146.187
-0.633561 0.408374 108.96
-0.308476 -0.586697 108.972
6.79524 3.06131 108.6
12.5967 -19.047 -155.885
16.2832 6.01384 98.6943
11.9955 6.70446 102.681
20.7219 4.26169 93.9912
22.4289 -4.55746 87.6597
-21.3682 6.17874 77.04
16.8047 24.5005 -145.06
-13.1524 -16.6651 87.7545
8.82602 19.5658 -157.6
-12.7793 -16.0922 88.44
-11.2237 19.3017 88.9659
29.45 5.93928 56.4009
29.45 5.78947 56.4474
22.4706 -4.4959 69.44
-21.916 3.1906 88.9665
18.7237 4.41128 100.894
18.977 3.4356 100.892
24.693 -16.2556 69.44
29.45 5.78947 -124.728
24.5122 -15.3214 69.44
29.45 5.93928 -124.682
-4.75252 -22.265 -157.6
24.5122 -15.3214 -138.072
18.9791 3.43886 95.6371
4.07265 0.769215 111.86
-16.7806 -24.496 69.44
-3.95 19.3 100.9
10.8911 9.55454 97.2967
10.8911 9.55454 94.9836
29.45 5.78947 69.44
10.8911 9.55454 100.901
5.88745 5.4367 107.11
29.45 5.93928 69.44
-1.47049 26.3689 69.44
-4.20674 20.6032 94.0706
-5.99921 29.3115 87.7886
29.2847 6.04847 87.7875
29.45 5.93928 87.588
29.45 5.78947 87.5048
6.43983 -28.1202 88.0125
6.43983 -28.1202 77.04
3.92994 -19.2867 100.928
18.796 -12.3575 77.04
0.891093 0.55861 108.6
1.69073 2.43225 108.968
29.45 5.78947 77.04
29.45 5.93928 77.04
6.15055 12.6675 100.906
-24.4493 16.8485 -137.46
6.19249 12.6399 94.9942
3.14169 5.80398 108.316
-9.13318 24.5944 69.44
24.7954 -16.7843 69.44
28.3841 5.86053 88.44
16.8047 24.5005 77.04
8.67592 1.82422 108.6
-24.4493 16.8485 69.44
-29.3646 -5.85696 -157.6
11.6692 -20.4137 -157.6
-18.8765 12.4575 77.04
-22.2297 4.88205 69.6617
5.68934 -29.2262 87.6402
-4.75252 -22.265 87.7035
-23.55 15.6 -139.471
19.35 4 100.891
19.3482 4.00115 100.893
-12.85 19 87.7828
19.0698 12.7976 87.7758
-0.299973 -1.24398 108.6
1.16703 -8.28179 108.6
3.40102 -18.9372 100.927
-23.5409 15.5606 -139.53
3.41133 -18.944 95.6529
-23.8643 16.957 -137.46
23.1468 -16.9164 69.44
-23.8643 16.957 69.44
24.7629 -16.6165 69.44
13.7724 -17.3144 77.04
15.429 24.2453 69.44
29.45 5.78947 -157.6
15.429 24.2453 -146.152
5.68934 -29.2262 -157.6
-5.97631 29.346 63.7482
29.45 5.93928 -157.6
-22.2297 4.88205 87.7749
-29.3646 -5.85696 87.7688
-12.85 19 76.1414
18.7163 4.41615 95.7624
-5.97631 29.346 -157.6
16.8047 24.5005 69.44
4  488 484 322 324  204 0 255
4  488 358 360 484  204 0 255
4  488 324 46 358  204 0 255
4  486 426 7 239  204 0 255
5  486 463 351 271 426  204 0 255
4  484 360 323 322  204 0 255
5  486 239 187 405 463  204 0 255
6  462 354 268 263 353 394  204 0 255
5  493 356 276 49 350  204 0 255
5  493 312 357 277 356  204 0 255
5  462 74 3 269 354  204 0 255
5  493 350 272 313 312  204 0 255
7  462 394 395 255 29 304 74  204 0 255
6  360 279 65 66 57 323  204 0 255
9  358 413 356 277 275 266 270 279 360  204 0 255
4  358 46 47 413  204 0 255
5  356 413 47 48 276  204 0 255
5  357 278 274 275 277  204 0 255
3  357 312 313  204 0 255
5  357 313 272 273 278  204 0 255
7  353 278 273 26 27 254 395  204 0 255
8  354 185 186 270 267 260 253 268  204 0 255
5  354 269 4 5 185  204 0 255
3  353 395 394  204 0 255
7  353 263 252 261 262 274 278  204 0 255
5  351 279 270 186 271  204 0 255
3  351 463 405  204 0 255
5  426 185 5 6 7  204 0 255
6  351 405 188 64 65 279  204 0 255
4  426 271 186 185  204 0 255
9  489 301 410 32 21 400 193 190 192  204 0 255
5  471 302 362 364 440  204 0 255
5  471 189 190 193 302  204 0 255
4  471 217 191 189  204 0 255
4  489 192 194 216  204 0 255
5  467 297 12 13 208  204 0 255
7  368 197 17 18 367 490 369  204 0 255
4  370 204 203 306  204 0 255
4  368 103 153 197  204 0 255
10  370 306 292 200 199 212 209 414 104 213  204 0 255
4  368 213 104 103  204 0 255
4  467 208 209 212  204 0 255
4  363 290 53 242  204 0 255
5  472 42 451 442 441  204 0 255
3  310 375 347  204 0 255
5  472 180 55 56 42  204 0 255
6  310 156 134 135 102 375  204 0 255
6  439 307 203 204 419 415  204 0 255
5  472 210 170 171 180  204 0 255
5  363 242 195 196 211  204 0 255
12  439 379 211 196 174 381 173 454 137 181 281 307  204 0 255
6  409 320 115 69 70 205  204 0 255
3  398 237 238  204 0 255
7  398 205 70 71 482 321 237  204 0 255
4  472 441 458 210  204 0 255
4  439 415 217 161  204 0 255
4  471 440 161 217  204 0 255
6  466 338 319 11 297 467  204 0 255
5  466 399 444 445 338  204 0 255
6  467 212 199 397 399 466  204 0 255
7  35 491 302 193 400 33 34  204 0 255
6  35 36 326 487 330 456  204 0 255
4  461 328 327 480  0 255 102
4  30 29 380 140  0 255 102
7  30 465 301 489 490 367 383  204 0 255
4  30 23 31 465  204 0 255
7  461 300 140 380 386 453 328  0 255 102
4  35 480 327 36  0 255 102
4  35 34 299 480  0 255 102
4  30 140 139 23  0 255 102
4  461 480 299 300  0 255 102
4  67 57 427 424  255 0 0
5  67 294 246 245 418  204 0 255
4  457 359 334 335  255 0 0
5  61 321 482 72 73  204 0 255
5  61 60 198 317 333  204 0 255
7  457 481 422 365 374 373 359  255 0 0
4  67 59 68 294  204 0 255
4  61 335 334 60  255 0 0
4  457 335 479 481  255 0 0
4  61 73 479 335  255 0 0
6  67 424 422 243 234 59  255 0 0
7  489 216 419 204 370 369 490  204 0 255
4  24 36 327 478  0 255 102
4  24 272 350 329  204 0 255
3  395 254 255  204 0 255
5  24 25 26 273 272  204 0 255
4  453 478 327 328  0 255 102
5  453 386 476 468 478  0 255 102
4  24 478 468 25  0 255 102
4  443 450 296 295  204 0 255
4  442 451 450 443  204 0 255
6  408 344 167 210 458 132  204 0 255
5  409 143 295 296 320  204 0 255
4  409 214 142 143  204 0 255
6  443 295 133 458 441 442  204 0 255
5  408 132 382 89 141  204 0 255
4  434 450 451 437  204 0 255
4  434 417 418 245  204 0 255
5  437 451 42 41 247  204 0 255
4  437 416 417 434  204 0 255
5  43 44 416 437 247  204 0 255
5  43 41 42 459 494  203 255 0
3  43 247 41  204 0 255
6  434 245 246 320 296 450  204 0 255
5  67 418 417 423 57  204 0 255
6  430 377 265 298 315 314  0 102 255
4  430 287 284 286  0 102 255
6  18 17 240 377 430 286  0 102 255
4  18 19 303 367  204 0 255
6  10 9 8 7 316 314  0 102 255
4  10 11 319 318  204 0 255
4  10 314 315 11  0 102 255
5  430 314 316 288 287  0 102 255
6  18 286 284 3 20 19  0 102 255
4  45 46 324 425  204 0 255
6  45 44 43 494 411 46  203 255 0
4  425 416 44 45  204 0 255
4  425 324 322 423  204 0 255
4  423 322 323 57  204 0 255
4  423 417 416 425  204 0 255
5  422 481 479 149 243  255 0 0
4  422 424 427 365  255 0 0
6  37 51 50 49 485 483  203 255 0
4  37 52 349 438  204 0 255
6  494 459 289 325 348 483  203 255 0
5  494 483 485 401 411  203 255 0
4  37 483 348 52  203 255 0
4  411 401 47 46  203 255 0
4  397 199 200 201  204 0 255
6  347 151 390 221 392 220  204 0 255
4  347 163 152 151  204 0 255
5  408 105 343 340 344  204 0 255
3  397 201 202  204 0 255
4  398 215 206 205  204 0 255
4  409 205 206 214  204 0 255
9  408 141 90 175 202 201 223 343 105  204 0 255
3  405 187 188  204 0 255
5  65 64 371 366 259  255 0 0
4  365 366 371 374  255 0 0
4  7 8 332 239  204 0 255
5  7 6 285 288 316  0 102 255
4  49 50 329 350  204 0 255
3  49 276 48  204 0 255
5  47 401 485 49 48  203 255 0
8  399 397 202 175 215 398 238 444  204 0 255
3  367 303 383  204 0 255
5  30 383 303 304 29  204 0 255
5  29 255 254 27 28  204 0 255
4  304 303 19 20  204 0 255
4  390 151 152 162  204 0 255
7  390 162 112 110 355 222 221  204 0 255
5  27 26 25 468 476  0 255 102
5  29 28 476 386 380  0 255 102
3  27 476 28  0 255 102
4  140 300 299 139  0 255 102
4  338 333 318 319  204 0 255
6  347 375 102 99 136 163  204 0 255
5  64 188 187 62 63  204 0 255
4  62 60 334 336  255 0 0
4  62 187 239 332  204 0 255
4  373 336 334 359  255 0 0
5  374 371 337 336 373  255 0 0
4  62 336 337 63  255 0 0
4  64 63 337 371  255 0 0
3  58 73 72  204 0 255
4  58 149 479 73  255 0 0
4  370 213 368 369  204 0 255
6  366 365 427 57 66 259  255 0 0
3  65 259 66  255 0 0
7  364 362 349 52 290 363 376  204 0 255
4  362 330 438 349  204 0 255
3  22 34 33  204 0 255
4  139 299 34 22  0 255 102
3  333 317 318  204 0 255
5  333 338 445 321 61  204 0 255
4  332 198 60 62  204 0 255
4  198 332 8 9  204 0 255
7  355 361 428 343 223 396 222  204 0 255
4  352 449 160 159  204 0 255
5  352 164 109 107 449  204 0 255
8  352 159 455 452 172 435 436 164  204 0 255
5  17 197 153 15 16  204 0 255
4  11 2 12 297  204 0 255
4  17 16 241 240  0 102 255
4  377 240 241 265  0 102 255
5  11 315 298 249 2  0 102 255
4  52 39 53 290  204 0 255
4  459 42 56 289  203 255 0
5  52 348 325 183 39  203 255 0
4  429 95 94 339  204 0 255
3  429 96 95  204 0 255
6  355 110 111 150 85 88  204 0 255
7  429 339 460 86 150 97 96  204 0 255
5  487 326 51 37 438  204 0 255
3  487 438 330  204 0 255
6  310 346 403 122 121 228  204 0 255
3  310 347 346  204 0 255
3  223 201 224  204 0 255
8  347 220 473 145 219 345 403 346  204 0 255
5  345 226 177 122 403  204 0 255
6  345 219 78 331 291 226  204 0 255
9  331 147 477 224 201 200 292 179 291  204 0 255
6  344 340 433 169 166 167  204 0 255
3  343 341 340  204 0 255
5  342 407 436 435 168  204 0 255
3  282 452 455  204 0 255
5  282 138 137 454 452  204 0 255
8  342 168 432 433 340 341 492 406  204 0 255
3  281 181 182  204 0 255
6  339 94 93 98 83 460  204 0 255
5  321 445 444 238 237  204 0 255
5  10 318 317 198 9  204 0 255
5  331 78 77 144 146  204 0 255
5  330 362 302 491 456  204 0 255
3  35 456 491  204 0 255
4  329 326 36 24  204 0 255
4  326 329 50 51  204 0 255
4  207 171 170 174  204 0 255
3  207 195 54  204 0 255
6  325 289 56 38 256 183  203 255 0
5  207 54 55 180 171  204 0 255
5  320 246 294 68 115  204 0 255
4  70 69 293 447  255 0 0
3  70 447 71  255 0 0
3  292 306 230  204 0 255
4  310 228 130 402  204 0 255
3  311 124 372  204 0 255
5  311 305 125 120 124  204 0 255
6  311 372 129 176 229 305  204 0 255
5  310 402 309 157 156  204 0 255
4  309 402 130 227  204 0 255
5  309 227 231 308 157  204 0 255
3  307 281 280  204 0 255
7  231 230 306 203 307 280 308  204 0 255
5  282 455 159 158 283  204 0 255
5  305 229 131 126 125  204 0 255
5  231 227 131 229 232  204 0 255
4  20 3 74 304  204 0 255
4  301 465 31 410  204 0 255
3  21 32 464  0 255 102
3  21 33 400  204 0 255
5  21 464 248 165 33  0 255 102
5  298 265 241 154 249  0 102 255
4  208 412 414 209  204 0 255
4  208 13 14 412  204 0 255
3  71 72 482  204 0 255
6  447 235 244 148 72 71  255 0 0
4  412 103 104 414  204 0 255
5  412 14 0 153 103  204 0 255
3  13 264 14  0 102 255
3  32 410 31  204 0 255
4  32 31 248 464  0 255 102
4  54 40 258 257  203 255 0
5  195 242 53 40 54  204 0 255
4  195 207 174 196  204 0 255
4  13 12 251 264  0 102 255
4  210 167 166 170  204 0 255
4  214 90 89 142  204 0 255
4  458 133 382 132  204 0 255
4  447 293 236 235  255 0 0
5  446 218 391 393 225  204 0 255
4  446 475 474 218  204 0 255
5  446 225 387 389 475  204 0 255
3  331 146 147  204 0 255
4  363 211 378 376  204 0 255
5  364 376 378 161 440  204 0 255
4  439 161 378 379  204 0 255
4  295 143 142 133  204 0 255
4  133 142 89 382  204 0 255
3  69 115 68  204 0 255
4  293 69 68 236  255 0 0
5  291 178 176 76 226  204 0 255
5  292 230 233 178 179  204 0 255
3  291 179 178  204 0 255
4  40 53 184 258  203 255 0
3  56 55 38  204 0 255
3  54 257 55  203 255 0
5  355 88 84 116 361  204 0 255
5  343 428 116 117 341  204 0 255
3  3 4 269  204 0 255
3  5 285 6  0 102 255
4  288 285 284 287  0 102 255
5  3 284 285 5 4  0 102 255
5  283 158 157 308 431  204 0 255
7  283 431 280 281 182 138 282  204 0 255
4  270 266 262 267  204 0 255
4  274 262 266 275  204 0 255
4  267 262 261 260  204 0 255
4  268 253 252 263  204 0 255
4  16 1 154 241  0 102 255
3  264 251 250  0 102 255
3  16 15 1  204 0 255
6  264 250 155 15 0 14  0 102 255
4  249 154 155 250  0 102 255
4  261 252 253 260  204 0 255
4  234 243 244 235  255 0 0
4  258 184 183 256  203 255 0
5  258 256 38 55 257  203 255 0
5  12 2 249 250 251  0 102 255
5  248 31 23 139 165  0 255 102
4  244 243 149 148  255 0 0
4  72 148 149 58  255 0 0
5  68 59 234 235 236  255 0 0
5  232 229 176 178 233  204 0 255
4  233 230 231 232  204 0 255
4  228 121 123 130  204 0 255
5  227 130 123 127 131  204 0 255
4  226 76 75 177  204 0 255
4  224 477 389 387  204 0 255
4  222 393 391 221  204 0 255
4  225 393 388 387  204 0 255
5  224 387 388 396 223  204 0 255
4  222 396 388 393  204 0 255
3  219 77 78  204 0 255
4  221 391 385 392  204 0 255
5  220 392 385 384 473  204 0 255
4  219 145 79 77  204 0 255
5  218 474 384 385 391  204 0 255
5  215 175 90 214 206  204 0 255
3  211 379 378  204 0 255
6  217 415 419 216 194 191  204 0 255
4  174 170 166 381  204 0 255
3  0 15 153  204 0 255
4  192 189 191 194  204 0 255
3  192 190 189  204 0 255
4  53 39 183 184  203 255 0
4  181 137 138 182  204 0 255
3  177 121 122  204 0 255
6  177 75 128 127 123 121  204 0 255
4  176 128 75 76  204 0 255
3  90 141 89  204 0 255
5  173 169 432 435 172  204 0 255
4  172 452 454 173  204 0 255
4  173 381 166 169  204 0 255
3  169 433 432  204 0 255
3  168 435 432  204 0 255
4  33 165 139 22  0 255 102
4  475 146 144 474  204 0 255
5  477 147 146 475 389  204 0 255
6  474 144 79 145 473 384  204 0 255
5  470 460 83 82 420  204 0 255
6  469 421 85 86 460 470  204 0 255
6  342 87 82 98 404 407  204 0 255
4  469 81 84 421  204 0 255
5  470 420 80 81 469  204 0 255
4  341 117 118 492  204 0 255
5  342 406 118 80 87  204 0 255
5  164 436 407 404 108  204 0 255
3  162 113 112  204 0 255
3  164 108 109  204 0 255
8  163 136 448 101 92 91 114 152  204 0 255
4  162 152 114 113  204 0 255
4  448 136 99 100  204 0 255
5  449 106 135 134 160  204 0 255
3  449 107 106  204 0 255
3  448 100 101  204 0 255
4  109 101 100 107  204 0 255
5  107 100 99 135 106  204 0 255
3  431 308 280  204 0 255
6  160 134 156 157 158 159  204 0 255
4  155 154 1 15  0 102 255
3  428 361 116  204 0 255
3  150 111 91  204 0 255
3  150 86 85  204 0 255
3  421 88 85  204 0 255
3  421 84 88  204 0 255
5  101 109 108 404 92  204 0 255
3  420 87 80  204 0 255
3  492 118 406  204 0 255
3  420 82 87  204 0 255
3  98 82 83  204 0 255
3  98 92 404  204 0 255
3  176 129 128  204 0 255
3  150 91 97  204 0 255
3  144 77 79  204 0 255
3  135 99 102  204 0 255
4  131 127 119 126  204 0 255
7  372 124 120 119 127 128 129  204 0 255
4  126 119 120 125  204 0 255
4  116 84 81 117  204 0 255
4  117 81 80 118  204 0 255
4  113 111 110 112  204 0 255
4  114 91 111 113  204 0 255
3  98 93 92  204 0 255
7  97 91 92 93 94 95 96  204 0 255
10  73 61 60 62 63 64 65 66 57 58  255 0 0
10  61 73 58 57 66 65 64 63 62 60  204 0 255
7  72 58 59 68 69 70 71  255 0 0
7  58 72 71 70 69 68 59  204 0 255
4  67 59 58 57  255 0 0
4  59 67 57 58  204 0 255
14  56 42 41 43 44 45 46 47 48 49 50 51 37 38  203 255 0
14  42 56 38 37 51 50 49 48 47 46 45 44 43 41  204 0 255
4  55 38 40 54  203 255 0
4  38 55 54 40  204 0 255
4  53 40 38 39  203 255 0
4  40 53 39 38  204 0 255
4  52 39 38 37  203 255 0
4  39 52 37 38  204 0 255
5  36 24 22 34 35  0 255 102
5  24 36 35 34 22  204 0 255
3  33 22 21  0 255 102
3  22 33 21  204 0 255
6  32 21 22 24 23 31  0 255 102
6  21 32 31 23 24 22  204 0 255
8  30 23 24 25 26 27 28 29  0 255 102
8  23 30 29 28 27 26 25 24  204 0 255
7  20 3 1 16 17 18 19  0 102 255
7  3 20 19 18 17 16 1  204 0 255
3  15 1 0  0 102 255
3  1 15 0  204 0 255
7  14 0 1 3 2 12 13  0 102 255
7  0 14 13 12 2 3 1  204 0 255
10  11 2 3 4 5 6 7 8 9 10  0 102 255
10  2 11 10 9 8 7 6 5 4 3  204 0 255

