OFF
495 386 0

-29.3646 -5.85696 -131.922
-1.81213 -0.899773 108.6
-0.55 -2.80394 108.6
-2.63501 -7.70341 106.976
-1.99828 -6.18326 108.6
18.7199 4.41378 98.2545
19.35 4 97.7456
9.64423 2.53024 107.475
10.0475 1.57178 107.316
8.65141 1.84034 108.6
15.4473 6.56269 100.897
16.9847 0.421389 100.893
18.978 3.43725 98.2406
24.3554 0.713186 88.9674
7.30977 1.00071 108.6
7.06124 1.99604 108.6
4.52262 1.46916 111.187
4.09103 0.680164 111.796
5.02127 0.522665 110.933
4.10464 1.17634 111.663
0.692404 0.682037 108.836
0.968151 0.739165 108.635
1.0171 0.749306 108.6
0.506153 0.643451 108.971
-17.3571 -13.8619 87.78
-17.5258 -12.9623 88.44
19.3784 3.98134 94.9645
4.68653 4.44839 108.6
2.00089 2.23821 108.6
1.03684 1.44483 108.97
15.0064 -1.1679 101.668
7.53543 0.0969957 108.6
16.7459 0.0600639 99.6862
9.68088 -2.26008 105.511
6.59306 -1.33019 108.6
2.36884 -0.0286992 108.6
-18.95 -12.8 -145.06
21.1758 -6.40412 71.8505
21.1758 -6.40412 77.04
18.9787 3.4382 96.706
19.35 4 96.2104
-4.14725 -0.632637 111.762
-0.802772 -0.655637 108.6
-5.727 -0.64383 110.223
-5.79406 -0.655637 108.6
-0.635137 -0.654629 108.739
-3.96729 -0.890161 111.878
-4.14816 -0.631336 111.762
-7.3191 -0.970209 108.6
-4.96133 -0.486871 111.004
-12.85 19 -157.6
8.42191 -5.50008 -157.6
-7.07678 -1.99662 108.6
-3.9865 -0.997121 111.835
0.0676784 25.3526 87.7541
-0.31173 24.781 88.44
-2.92744 20.8405 93.1685
-29.2948 -5.90349 87.8523
12.3812 15.7875 88.9612
10.9923 16.7051 88.9597
12.7309 -18.8492 69.44
24.7954 -16.7843 -137.46
0.951361 -7.24714 108.6
3.95 -19.3 96.1477
3.40948 -18.9427 96.6016
24.7087 -16.3368 -138.107
24.7629 -16.6165 69.44
4.28175 -18.7981 96.5806
12.5967 -19.047 -137.46
4.27152 13.561 -157.6
5.00296 -3.73832 108.6
1.96293 -7.05465 108.6
-12.85 19 77.04
3.95 -19.3 100.904
2.15899 -8.04538 108.6
0.75194 -0.935091 108.6
4.03341 0.761368 111.832
4.28315 -18.7959 100.903
4.28143 -18.7985 95.5931
-13.9834 17.2941 77.04
-13.9834 17.2941 71.34
-0.633561 0.408374 108.96
24.693 -16.2556 69.44
-1.1306 0.306299 108.6
-8.3009 -1.17272 108.6
27.6415 5.70559 88.978
0.69118 0.922853 108.97
0.694545 0.26115 108.6
-13.3484 18.2498 77.04
13.7724 -17.3144 69.44
-23.55 15.6 69.44
-19.1142 -11.9149 88.44
20.9797 2.92985 93.035
24.7954 -16.7843 69.1938
24.7931 0.425803 88.44
25.4968 -0.0363062 87.592
29.45 5.93928 87.588
12.5967 -19.047 -155.885
-0.55 -7.14344 108.6
-4.75252 -22.265 77.3298
-0.55 -16.3257 100.92
10.235 18.6349 87.7657
4.22205 -20.6003 94.0518
22.9037 -15.6199 71.34
22.9037 -15.6199 69.44
0.0609735 -0.049592 108.96
8.26334 1.19937 108.6
-14.4091 -7.16567 100.897
0.59124 -0.399242 108.96
17.65 -11.6 -146.543
1.08796 -0.29556 108.6
-18.4424 10.5826 77.04
22.4289 -4.55746 -137.708
16.8047 24.5005 -145.06
-0.308476 -0.586697 108.972
-0.828839 -0.694912 108.6
-11.7041 -17.6306 85.9571
18.7176 4.41524 96.7225
16.2832 6.01384 98.6943
11.9955 6.70446 102.681
23.4809 -15.5128 -139.574
27.65 5.7 88.9678
17.65 -11.6 -146.543
-21.3682 6.17874 77.04
-14.5521 -15.7319 -157.6
-11.2237 19.3017 88.9659
9.50018 -10.4521 -157.6
-21.916 3.1906 88.9665
8.09161 2.20857 108.6
18.7237 4.41128 100.894
22.7866 -14.9954 69.44
18.7163 4.41615 95.7624
16.8047 24.5005 69.44
18.977 3.4356 100.892
18.9791 3.43886 95.6371
-17.3571 -13.8619 84.4108
-10.9474 -8.97995 -157.6
-17.3571 -13.8619 78.94
-19.3613 -3.91703 94.9995
15.55 23.6 77.04
-22.2297 4.88205 87.7749
15.55 23.6 78.94
-17.3571 -13.8619 77.04
-3.9367 19.2913 95.017
-15.6849 -22.7807 77.04
-15.6849 -22.7807 78.94
22.7866 -14.9954 72.2553
22.7866 -14.9954 -140.388
-5.03783 3.74347 108.6
3.22352 5.41074 108.6
12.5967 -19.047 -157.6
-1.7568 8.68674 108.6
-0.0609902 0.462 108.6
28.0872 5.41118 88.44
-18.95 -12.8 -157.6
2.50955 4.33501 108.6
-3.95 19.3 100.9
-5.63302 -7.99421 -157.6
1.39517 1.73972 108.832
5.88745 5.4367 107.11
10.8911 9.55454 97.2967
-29.3646 -5.85696 -124.598
6.43983 -28.1202 88.0125
6.43983 -28.1202 77.04
3.14169 5.80398 108.316
-9.13318 24.5944 69.44
29.45 5.78947 -132.394
-5.81334 28.4085 88.44
-11.9466 19.1676 88.44
8.67592 1.82422 108.6
11.4192 -19.2654 -157.6
5.39923 -3.13818 108.6
-23.8643 16.957 69.3118
14.4543 7.2148 100.898
19.35 4 100.891
19.3482 4.00115 100.893
1.16703 -8.28179 108.6
3.40102 -18.9372 100.927
-4.00641 -0.898324 111.907
3.41133 -18.944 95.6529
-0.299973 -1.24398 108.6
13.7724 -17.3144 77.04
13.7724 -17.3144 71.34
-23.55 15.6 71.34
-13.9834 17.2941 69.44
18.3881 -10.5123 77.04
-5.43517 3.14484 108.6
-13.1524 -16.6651 87.7545
19.387 11.1591 88.9689
13.0393 16.7821 87.7689
13.7557 7.67354 100.899
12.6689 16.2223 88.44
7.66573 11.6725 94.9909
-1.47049 26.3689 69.44
11.279 17.1387 88.44
11.1196 -19.321 88.9658
-18.6028 -4.39385 100.889
19.0698 12.7976 87.7758
-18.6059 -4.39182 95.8876
-8.01755 -2.19262 108.6
0.0416965 -0.036881 108.96
-0.950756 -16.0609 100.919
15.429 24.2453 69.44
17.3641 13.9246 87.7739
19.35 4 94.9646
-0.55 17.0674 95.0094
19.0698 12.7976 77.04
-0.55 17.0674 99.0511
15.429 24.2453 -146.152
28.3841 5.86053 88.44
6.05 21.4 77.04
23.1468 -16.9164 69.44
15.55 23.6 77.04
15.55 23.6 78.94
6.05 21.4 78.94
16.8968 -12.7099 77.04
-19.3439 -3.89084 100.899
12.5967 -19.047 -144.688
17.65 -11.6 -157.6
-19.35 -3.9 95.02
-16.9727 12.7946 77.04
29.45 5.78947 56.4474
15.7115 -14.4567 -150.127
29.45 5.93928 56.4009
5.90443 -28.9093 88.0243
-15.9939 14.2679 81.8099
-12.928 18.8826 87.7827
-12.3858 18.5059 88.44
0.694545 1.60036 108.6
-19.3037 9.28621 87.7773
6.05 21.4 87.761
-18.7269 8.95169 88.44
-12.9869 18.7939 69.44
23.55 -15.5 69.44
9.86335 18.0721 88.44
-18.95 -12.8 86.3334
-15.141 -15.3394 81.7359
10.8911 9.55454 100.901
2.93245 -20.8395 93.1396
3.95 -19.3 94.9903
6.19249 12.6399 94.9942
22.4289 -4.55746 -157.6
-19.35 -3.9 94.9995
3.77829 22.0843 88.44
-18.95 -12.8 77.04
-5.97631 29.346 -157.6
5.54589 -20.3548 93.0757
-23.8643 16.957 69.44
17.65 -11.6 77.04
17.0911 -11.2305 88.44
-11.7041 -17.6306 87.7457
-11.3223 -17.053 88.44
11.8327 -19.1887 88.44
-16.7806 -24.496 69.44
19.2464 11.8855 88.44
-22.0546 3.93791 88.44
29.45 5.93928 69.44
-3.71139 -22.0719 88.44
-4.75252 -22.265 -145.51
22.2185 -3.47059 88.44
20.7219 4.26169 93.9912
1.74839 -8.66722 108.6
0.161423 -0.54569 108.6
-3.08679 -5.46161 108.6
6.15055 12.6675 100.906
7.19991 -14.3829 100.901
3.95671 -19.2899 95.0025
0.891093 0.55861 108.6
3.95 -19.3 95.0025
-5.45084 -3.8943 108.6
16.0294 24.3567 -146.187
-12.85 19 76.1414
-16.167 -24.3822 77.04
-0.458488 -0.136906 108.6
-8.6844 -1.75052 108.6
-3.71576 -5.04461 108.6
-19.3688 -10.542 -157.6
-16.1076 0.984653 100.899
8.28862 -5.41197 -157.6
-19.35 -3.9 100.888
-29.3646 -5.85696 -157.6
17.65 -11.6 87.7652
21.1758 -6.40412 69.44
22.7866 -14.9954 72.2553
12.5665 -19.0915 87.8773
12.5967 -19.047 87.8211
-17.0517 -23.0343 77.04
-16.9583 -23.017 77.04
4.74339 22.2633 -145.519
23.55 -15.5 71.34
-0.55 -1.62237 108.6
-0.55 -16.3257 100.436
-22.2297 4.88205 77.04
25.0379 8.85441 69.44
19.0698 12.7976 76.8284
-21.3682 6.17874 71.34
9.05495 10.7603 94.9878
-23.55 15.6 71.34
-21.3682 6.17874 69.44
22.4706 -4.4959 69.44
-6.52782 -21.0815 77.04
-15.0278 -22.6588 79.9203
-15.0278 -22.6588 79.9547
-6.52782 -21.0815 79.533
7.66573 11.6725 100.905
-5.99921 29.3115 87.7886
-13.4868 4.71067 -157.6
-19.5416 8.92816 -150.01
-22.2297 4.88205 -145.06
-3.94122 19.3132 95.0011
17.3641 13.9246 77.04
17.3641 13.9246 78.94
15.55 23.6 78.94
22.0764 -2.7364 88.9671
0.044999 -0.0529253 108.971
21.1758 -6.40412 -140.025
-4.93662 3.24575 108.96
-8.62005 5.61338 -157.6
13.7724 -17.3144 -139.573
-11.8793 20.4611 -157.6
4.90022 -3.24052 108.96
-21.9082 3.14864 -157.6
10.8911 9.55454 94.9836
-15.0278 -22.6588 77.04
-14.2618 -21.4999 81.3381
-11.75 -17.6 86.014
-18.8632 -12.8579 77.04
-16.6844 -24.4781 77.04
-4.51904 -22.4206 77.04
5.68934 -29.2262 56.5941
5.43442 8.22026 -157.6
-8.44101 5.64659 -157.6
-24.4342 16.7668 69.44
22.4289 -4.55746 77.04
11.65 17.7 86.014
19.0698 12.7976 -145.06
29.45 5.93928 -132.353
-18.95 -12.8 -154.341
22.4289 -4.55746 -145.06
-15.1627 -15.3249 -149.838
-12.85 19 -144.476
-17.6691 11.7465 -153.13
-4.72901 -1.50876 110.995
-12.85 19 69.1789
-14.0905 9.381 -157.6
4.74339 22.2633 -154.287
23.55 -15.5 -139.474
-22.2297 4.88205 -157.6
8.32689 19.8956 -149.993
4.74339 22.2633 -157.6
-17.6691 11.7465 -146.498
-17.6691 11.7465 -157.6
-24.4493 16.8485 -137.46
-12.85 19 -137.46
-3.95 19.3 95.017
1.01127 16.0422 100.911
-3.93726 19.2916 100.916
-12.7793 -16.0922 88.44
-17.0517 -23.0343 -145.06
-29.3646 -5.85696 87.7688
-17.0517 -23.0343 69.44
-6.52782 -21.0815 -147.7
-15.0094 -22.6553 -148.101
24.7954 -16.7843 69.44
22.4289 -4.55746 69.44
22.4289 -4.55746 76.6801
-11.75 -17.6 -154.143
-12.85 19 69.44
-16.7806 -24.496 -145.06
-16.1167 -24.3729 -146.049
-22.2297 4.88205 69.44
1.69073 2.43225 108.968
24.5122 -15.3214 -138.072
-5.97631 29.346 56.0724
23.1783 -17.0843 69.194
24.5122 -15.3214 69.44
4.74339 22.2633 68.9667
18.8989 12.9105 77.04
4.74339 22.2633 77.2895
-19.3328 -3.91134 95.0199
-22.2297 4.88205 69.6617
18.796 -12.3575 77.04
5.68934 -29.2262 -157.6
3.83248 5.01018 108.6
11.65 17.7 87.7674
28.8509 4.9066 87.518
29.45 5.93928 -124.682
16.8047 24.5005 77.04
28.8509 4.9066 77.04
4.74339 22.2633 77.04
-29.3646 -5.85696 69.44
0.0577498 -0.0336707 108.971
22.9037 -15.6199 -139.574
4.74339 22.2633 -137.46
-5.97631 29.346 -132.133
12.5967 -19.047 69.1952
-5.97631 29.346 87.7472
-20.7756 -2.95777 93.298
0.55771 0.0540611 108.6
-12.85 19 -155.768
16.0531 24.3611 77.04
18.796 -12.3575 77.04
29.45 5.78947 77.04
29.45 5.93928 77.04
29.45 5.78947 69.44
29.2847 6.04847 87.7875
2.46853 21.8413 -157.6
29.45 5.78947 -157.6
24.693 -16.2556 -138.104
5.68934 -29.2262 -132.628
6.79524 3.06131 108.6
-4.10745 -0.831518 111.907
-5.97631 29.346 77.04
19.0698 12.7976 68.8475
-23.8444 16.8712 69.44
29.45 5.78947 87.5048
5.68934 -29.2262 -125.044
-7.20441 14.3972 100.9
11.6692 -20.4137 -157.6
29.45 5.78947 -124.728
16.7284 24.4863 77.04
-4.75252 -22.265 69.44
23.1783 -17.0843 -137.46
-18.95 -12.8 68.4842
-18.95 -12.8 -137.211
3.32863 4.9056 108.965
-23.5409 15.5606 -139.53
19.0698 12.7976 69.44
4.07265 0.769215 111.86
-13.9834 17.2941 -139.586
-5.97631 29.346 69.44
11.65 17.7 86.014
-15.4109 -24.2419 69.44
-15.4109 -24.2419 77.04
1.60479 -26.5032 69.44
0.818125 16.169 95.0063
11.65 17.7 -154.143
0.767091 16.2025 100.62
-23.55 15.6 -139.471
-24.4493 16.8485 69.44
-18.95 -12.8 69.44
-22.3435 4.71078 69.44
-4.75252 -22.265 69.1972
-24.4493 16.8485 69.3188
-5.97631 29.346 -124.568
-4.75252 -22.265 87.7035
8.66105 1.8017 108.6
-4.75252 -22.265 -137.46
5.68934 -29.2262 69.44
23.1783 -17.0843 69.44
-18.8765 12.4575 77.04
-18.95 -12.8 87.7896
3.92994 -19.2867 100.928
19.35 4 94.9988
12.5967 -19.047 77.04
19.3311 3.97147 94.9988
16.0798 -0.947759 100.894
5.68934 -29.2262 77.04
4.16145 0.903355 111.86
20.4504 5.66483 92.9695
4.5459 22.3938 77.04
3.96012 -19.3067 94.9903
-3.19177 -4.94068 108.977
-22.2297 4.88205 -138.064
-24.1965 15.4855 69.44
-23.8643 16.957 -137.46
22.4289 -4.55746 69.5178
15.429 24.2453 77.04
-5.97631 29.346 63.7482
26.4434 1.35865 69.44
-15.4109 -24.2419 -146.015
-16.7806 -24.496 77.04
19.0698 12.7976 -137.12
19.0698 12.7976 -157.6
4.74339 22.2633 69.44
12.5967 -19.047 69.44
-29.3646 -5.85696 55.7621
-21.3682 6.17874 -139.69
-23.5884 2.83698 -157.6
22.4289 -4.55746 87.6597
8.82602 19.5658 -157.6
29.45 5.93928 -157.6
5.68934 -29.2262 64.3709
-17.7153 11.6769 -146.585
-4.75252 -22.265 77.04
-24.1965 15.4855 -138.576
-4.75252 -22.265 -157.6
12.5967 -19.047 87.8767
-4.20674 20.6032 94.0706
-12.85 19 87.7828
-24.3049 16.0699 -138.605
4.74339 22.2633 87.7595
5.68934 -29.2262 87.6402
-22.2297 4.88205 -155.052
-20.5534 -4.15543 94.1417
4  481 407 166 336  255 0 0
4  481 473 241 407  255 0 0
4  481 336 335 473  255 0 0
4  382 486 258 409  255 0 0
5  382 418 150 170 486  255 0 0
4  407 241 338 166  255 0 0
5  382 409 217 97 418  255 0 0
6  280 154 276 321 347 478  255 0 0
5  245 349 345 288 394  255 0 0
5  245 319 50 406 349  255 0 0
5  280 0 36 337 154  255 0 0
5  245 394 340 399 319  255 0 0
7  280 478 493 308 463 161 0  255 0 0
6  241 218 109 315 112 338  255 0 0
9  473 480 349 406 69 330 51 218 241  255 0 0
4  473 335 436 480  255 0 0
5  349 480 436 348 345  255 0 0
5  50 351 344 69 406  255 0 0
3  50 319 399  255 0 0
5  50 399 340 341 351  255 0 0
7  347 351 341 350 483 307 493  255 0 0
8  154 124 126 51 278 157 136 276  255 0 0
5  154 337 339 366 124  255 0 0
3  347 493 478  255 0 0
7  347 321 306 317 331 344 351  255 0 0
5  150 218 51 126 170  255 0 0
3  150 418 97  255 0 0
5  486 124 366 361 258  255 0 0
6  150 97 222 122 109 218  255 0 0
4  486 170 126 124  255 0 0
9  140 292 123 111 220 79 88 225 229  255 0 0
5  489 72 412 396 305  255 0 0
5  489 226 225 88 72  255 0 0
4  489 168 227 226  255 0 0
4  140 229 231 255  255 0 0
5  445 99 303 116 250  255 0 0
7  451 235 244 440 390 359 57  255 0 0
4  494 397 242 138  255 0 0
4  451 24 135 235  255 0 0
10  494 138 379 239 238 257 251 357 25 91  255 0 0
4  451 91 25 24  255 0 0
4  445 250 251 257  255 0 0
4  491 378 214 230  255 0 0
5  197 206 403 96 405  255 0 0
3  200 391 105  255 0 0
5  197 203 311 377 206  255 0 0
6  200 152 228 86 23 391  255 0 0
6  488 309 242 397 127 125  255 0 0
5  197 254 191 189 203  255 0 0
5  491 230 101 234 243  255 0 0
12  488 56 243 234 194 59 192 240 435 205 143 309  255 0 0
6  479 333 38 185 248 281  255 0 0
3  487 285 284  255 0 0
7  487 281 248 215 181 454 285  255 0 0
4  197 405 209 254  255 0 0
4  488 125 168 167  255 0 0
4  489 305 167 168  255 0 0
6  492 457 328 484 99 445  255 0 0
5  492 224 162 163 457  255 0 0
6  445 257 238 102 224 492  255 0 0
7  367 271 72 88 79 80 232  255 0 0
6  367 343 373 468 430 165  255 0 0
4  439 443 172 247  255 0 0
4  370 463 485 464  255 0 0
7  370 380 292 140 359 390 441  255 0 0
4  370 298 295 380  255 0 0
7  439 332 464 485 490 352 443  255 0 0
4  367 247 172 343  255 0 0
4  367 232 414 247  255 0 0
4  370 464 90 298  255 0 0
4  439 247 414 332  255 0 0
4  364 112 372 375  255 0 0
5  364 466 365 469 299  255 0 0
4  363 93 374 449  255 0 0
5  475 454 181 182 60  255 0 0
5  475 395 329 482 448  255 0 0
7  363 66 82 408 65 61 93  255 0 0
4  364 282 37 466  255 0 0
4  475 449 374 395  255 0 0
4  363 449 211 66  255 0 0
4  475 60 211 449  255 0 0
6  364 375 82 233 130 282  255 0 0
7  140 255 127 397 494 57 359  255 0 0
4  353 343 172 465  255 0 0
4  353 340 394 444  255 0 0
3  493 307 308  255 0 0
5  353 429 350 341 340  255 0 0
4  352 465 172 443  255 0 0
5  352 490 426 438 465  255 0 0
4  353 465 438 429  255 0 0
4  415 402 388 385  255 0 0
4  96 403 402 415  255 0 0
6  260 459 188 254 209 85  255 0 0
5  479 95 385 388 333  255 0 0
4  479 259 94 95  255 0 0
6  415 385 153 209 405 96  255 0 0
5  260 85 121 13 92  255 0 0
4  404 402 403 256  255 0 0
4  404 221 299 469  255 0 0
5  256 403 206 294 293  255 0 0
4  256 223 221 404  255 0 0
5  427 413 223 256 293  255 0 0
5  427 294 206 387 132  255 0 0
3  427 293 294  255 0 0
6  404 469 365 333 388 402  255 0 0
5  364 299 221 419 112  255 0 0
6  253 471 327 272 433 432  255 0 0
4  253 368 358 360  255 0 0
6  440 244 286 471 253 360  255 0 0
4  440 423 476 390  255 0 0
6  421 442 447 258 470 432  255 0 0
4  421 484 328 434  255 0 0
4  421 432 433 484  255 0 0
5  253 432 470 369 368  255 0 0
6  440 360 358 36 424 423  255 0 0
4  472 335 336 386  255 0 0
6  472 413 427 132 113 335  255 0 0
4  386 223 413 472  255 0 0
4  386 336 166 419  255 0 0
4  419 166 338 112  255 0 0
4  419 221 223 386  255 0 0
5  82 66 211 104 233  255 0 0
4  82 375 372 408  255 0 0
6  474 376 393 288 208 202  255 0 0
4  474 389 460 193  255 0 0
6  132 387 420 400 467 202  255 0 0
5  132 202 208 270 113  255 0 0
4  474 202 467 389  255 0 0
4  113 270 436 335  255 0 0
4  102 238 239 461  255 0 0
6  105 108 320 70 75 262  255 0 0
4  105 398 110 108  255 0 0
5  260 26 455 204 459  255 0 0
3  102 461 246  255 0 0
4  487 252 249 281  255 0 0
4  479 281 249 259  255 0 0
9  260 92 313 195 246 461 266 455 26  255 0 0
3  97 217 222  255 0 0
5  109 122 120 346 147  255 0 0
4  408 346 120 65  255 0 0
4  258 447 416 409  255 0 0
5  258 361 362 369 470  255 0 0
4  288 393 444 394  255 0 0
3  288 345 348  255 0 0
5  436 270 208 288 348  255 0 0
8  224 102 246 195 252 487 284 162  255 0 0
3  390 476 441  255 0 0
5  370 441 476 161 463  255 0 0
5  463 308 307 483 477  255 0 0
4  161 476 423 424  255 0 0
4  320 108 110 171  255 0 0
7  320 171 33 30 456 265 70  255 0 0
5  483 350 429 438 426  255 0 0
5  463 477 426 490 485  255 0 0
3  483 426 477  255 0 0
4  464 332 414 90  255 0 0
4  457 448 434 328  255 0 0
6  105 391 23 20 87 398  255 0 0
5  122 222 217 68 318  255 0 0
4  68 395 374 422  255 0 0
4  68 217 409 416  255 0 0
4  61 422 374 93  255 0 0
5  65 120 392 422 61  255 0 0
4  68 422 392 318  255 0 0
4  122 318 392 120  255 0 0
3  89 60 182  255 0 0
4  89 104 211 60  255 0 0
4  494 91 451 57  255 0 0
6  346 408 372 112 315 147  255 0 0
3  109 147 315  255 0 0
7  396 412 460 389 378 491 54  255 0 0
4  412 430 193 460  255 0 0
3  184 232 80  255 0 0
4  90 414 232 184  255 0 0
3  448 482 434  255 0 0
5  448 457 163 454 475  255 0 0
4  416 329 395 68  255 0 0
4  329 416 447 442  255 0 0
7  456 32 134 455 266 78 265  255 0 0
4  425 371 155 149  255 0 0
5  425 383 28 158 371  255 0 0
8  425 149 164 264 304 237 159 383  255 0 0
5  244 235 135 137 326  255 0 0
4  484 300 303 99  255 0 0
4  244 326 287 286  255 0 0
4  471 286 287 327  255 0 0
5  484 433 272 323 300  255 0 0
4  389 210 214 378  255 0 0
4  387 206 377 420  255 0 0
5  389 467 400 212 210  255 0 0
4  428 76 19 458  255 0 0
3  428 17 76  255 0 0
6  456 30 31 106 8 11  255 0 0
7  428 458 169 446 106 18 17  255 0 0
5  468 373 376 474 193  255 0 0
3  468 193 430  255 0 0
6  200 314 114 45 42 273  255 0 0
3  200 105 314  255 0 0
3  266 461 268  255 0 0
8  105 262 180 290 263 462 114 314  255 0 0
5  462 275 115 45 114  255 0 0
6  462 263 3 201 107 275  255 0 0
9  201 291 179 268 461 239 379 198 107  255 0 0
6  459 204 322 296 58 188  255 0 0
3  455 453 204  255 0 0
5  173 119 159 237 190  255 0 0
3  355 264 164  255 0 0
5  355 437 435 240 264  255 0 0
8  173 190 160 322 204 453 131 118  255 0 0
3  143 205 207  255 0 0
6  458 19 16 128 9 169  255 0 0
5  454 163 162 284 285  255 0 0
5  421 434 482 329 442  255 0 0
5  201 3 4 98 100  255 0 0
5  430 412 72 271 165  255 0 0
3  367 165 271  255 0 0
4  444 373 343 353  255 0 0
4  373 444 393 376  255 0 0
4  384 189 191 194  255 0 0
3  384 101 431  255 0 0
6  400 420 377 310 139 212  255 0 0
5  384 431 311 203 189  255 0 0
5  333 365 466 37 38  255 0 0
4  248 185 381 401  255 0 0
3  248 401 215  255 0 0
3  379 138 219  255 0 0
4  200 273 83 81  255 0 0
3  178 46 53  255 0 0
5  178 411 47 41 46  255 0 0
6  178 53 342 199 274 411  255 0 0
5  200 81 316 148 152  255 0 0
4  316 81 83 186  255 0 0
5  316 186 277 417 148  255 0 0
3  309 143 354  255 0 0
7  277 219 138 242 309 354 417  255 0 0
5  355 164 149 151 356  255 0 0
5  411 274 84 49 47  255 0 0
5  277 186 84 274 216  255 0 0
4  424 36 0 161  255 0 0
4  292 380 295 123  255 0 0
3  220 111 450  255 0 0
3  220 80 79  255 0 0
5  220 450 297 183 80  255 0 0
5  272 327 287 144 323  255 0 0
4  250 187 357 251  255 0 0
4  250 116 325 187  255 0 0
3  215 182 181  255 0 0
6  401 146 289 103 182 215  255 0 0
4  187 24 25 357  255 0 0
5  187 325 236 135 24  255 0 0
3  116 324 325  255 0 0
3  111 123 295  255 0 0
4  111 295 297 450  255 0 0
4  431 334 141 312  255 0 0
5  101 230 214 334 431  255 0 0
4  101 384 194 234  255 0 0
4  116 303 302 324  255 0 0
4  254 188 58 191  255 0 0
4  259 313 13 94  255 0 0
4  209 153 121 85  255 0 0
4  401 381 283 146  255 0 0
5  452 261 74 77 73  255 0 0
4  452 177 176 261  255 0 0
5  452 73 63 64 177  255 0 0
3  201 100 291  255 0 0
4  491 243 55 54  255 0 0
5  396 54 55 167 305  255 0 0
4  488 167 55 56  255 0 0
4  385 95 94 153  255 0 0
4  153 94 13 121  255 0 0
3  185 38 37  255 0 0
4  381 185 37 283  255 0 0
5  107 196 199 269 275  255 0 0
5  379 219 279 196 198  255 0 0
3  107 198 196  255 0 0
4  334 214 213 141  255 0 0
3  377 311 310  255 0 0
3  431 312 311  255 0 0
5  456 11 12 39 32  255 0 0
5  455 134 39 40 453  255 0 0
3  36 339 337  255 0 0
3  366 362 361  255 0 0
4  369 362 358 368  255 0 0
5  36 358 362 366 339  255 0 0
5  356 151 148 417 156  255 0 0
7  356 156 354 143 207 437 355  255 0 0
4  51 330 331 278  255 0 0
4  344 331 330 69  255 0 0
4  278 331 317 157  255 0 0
4  276 136 306 321  255 0 0
4  326 142 144 287  255 0 0
3  324 302 301  255 0 0
3  326 137 142  255 0 0
6  324 301 145 137 236 325  255 0 0
4  323 144 145 301  255 0 0
4  317 306 136 157  255 0 0
4  130 233 289 146  255 0 0
4  141 213 212 139  255 0 0
5  141 139 310 311 312  255 0 0
5  303 300 323 301 302  255 0 0
5  297 295 298 90 183  255 0 0
4  289 233 104 103  255 0 0
4  182 103 104 89  255 0 0
5  37 282 130 146 283  255 0 0
5  216 274 199 196 279  255 0 0
4  279 219 277 216  255 0 0
4  273 42 44 83  255 0 0
5  186 83 44 48 84  255 0 0
4  275 269 1 115  255 0 0
4  268 179 64 63  255 0 0
4  265 77 74 70  255 0 0
4  73 77 67 63  255 0 0
5  268 63 67 78 266  255 0 0
4  265 78 67 77  255 0 0
3  263 4 3  255 0 0
4  70 74 71 75  255 0 0
5  262 75 71 62 180  255 0 0
4  263 290 2 4  255 0 0
5  261 176 62 71 74  255 0 0
5  252 195 313 259 249  255 0 0
3  243 56 55  255 0 0
6  168 125 127 255 231 227  255 0 0
4  194 191 58 59  255 0 0
3  236 137 135  255 0 0
4  229 226 227 231  255 0 0
3  229 225 226  255 0 0
4  214 210 212 213  255 0 0
4  205 435 437 207  255 0 0
3  115 42 45  255 0 0
6  115 1 52 48 44 42  255 0 0
4  199 52 1 269  255 0 0
3  313 92 13  255 0 0
5  192 296 160 237 304  255 0 0
4  304 264 240 192  255 0 0
4  192 59 58 296  255 0 0
3  296 322 160  255 0 0
3  190 237 160  255 0 0
4  80 183 90 184  255 0 0
4  177 100 98 176  255 0 0
5  179 291 100 177 64  255 0 0
6  176 98 2 290 180 62  255 0 0
5  175 169 9 7 129  255 0 0
6  174 133 8 446 169 175  255 0 0
6  173 10 7 128 410 119  255 0 0
4  174 6 12 133  255 0 0
5  175 129 5 6 174  255 0 0
4  453 40 117 131  255 0 0
5  173 118 117 5 10  255 0 0
5  383 159 119 410 27  255 0 0
3  171 34 33  255 0 0
3  383 27 28  255 0 0
8  398 87 267 22 15 14 35 110  255 0 0
4  171 110 35 34  255 0 0
4  267 87 20 21  255 0 0
5  371 29 86 228 155  255 0 0
3  371 158 29  255 0 0
3  267 21 22  255 0 0
4  28 22 21 158  255 0 0
5  158 21 20 86 29  255 0 0
3  156 417 354  255 0 0
6  155 228 152 148 151 149  255 0 0
4  145 144 142 137  255 0 0
3  134 32 39  255 0 0
3  106 31 14  255 0 0
3  106 446 8  255 0 0
3  133 11 8  255 0 0
3  133 12 11  255 0 0
5  22 28 27 410 15  255 0 0
3  129 10 5  255 0 0
3  131 117 118  255 0 0
3  129 7 10  255 0 0
3  128 7 9  255 0 0
3  128 15 410  255 0 0
3  199 342 52  255 0 0
3  106 14 18  255 0 0
3  98 4 2  255 0 0
3  86 20 23  255 0 0
4  84 48 43 49  255 0 0
7  53 46 41 43 48 52 342  255 0 0
4  49 43 41 47  255 0 0
4  39 12 6 40  255 0 0
4  40 6 5 117  255 0 0
4  34 31 30 33  255 0 0
4  35 14 31 34  255 0 0
3  128 16 15  255 0 0
7  18 14 15 16 19 76 17  255 0 0

