COFF
399 613 0

-8.65 -1.7 108.6
1.75 -8.7 108.6
8.65 1.8 108.6
-1.75 8.7 108.6
29.35 6 -157.5
-6.05 29.3 -157.5
-6.05 29.3 88.44
29.35 6 88.44
-29.35 -5.9 -157.5
-29.35 -5.9 88.44
5.95 -29.3 -157.5
5.95 -29.3 88.44
-5.65 27.7 88.44
27.65 5.7 88.44
-27.75 -5.6 88.44
5.65 -27.6 88.44
-5.65 27.7 88.966
27.65 5.7 88.966
-27.75 -5.6 88.966
5.65 -27.6 88.966
-3.95 19.3 95
19.35 4 95
-19.35 -3.9 95
3.95 -19.3 95
-3.95 19.3 100.9
19.35 4 100.9
-19.35 -3.9 100.9
3.95 -19.3 100.9
-17.75 11.7 78.414
-23.55 15.6 71.34
-21.35 6.1 71.34
-13.95 17.3 71.34
-23.55 15.6 69.44
-13.95 17.3 69.44
-21.35 6.1 69.44
-22.55 4.4 69.44
-12.85 19 69.44
-25.25 16.7 69.44
-22.55 4.4 -137.46
-12.85 19 -137.46
-25.25 16.7 -137.46
-17.75 11.7 -146.543
-4.35 -22.5 77.04
-18.95 -12.8 77.04
-16.65 -25.2 77.04
-4.35 -22.5 -145.06
-18.95 -12.8 -145.06
-16.65 -25.2 -145.06
-17.35 -13.9 78.94
-15.55 -23.5 78.94
-11.75 -17.6 86.014
-6.05 -21.4 78.94
-17.35 -13.9 77.04
-15.55 -23.5 77.04
-11.75 -17.6 77.04
-6.05 -21.4 77.04
-11.75 -17.6 -154.143
19.05 12.9 -145.06
11.65 17.7 -154.143
16.65 25.3 -145.06
4.35 22.5 -145.06
4.35 22.5 77.04
19.05 12.9 77.04
16.65 25.3 77.04
12.85 -19 -137.46
17.65 -11.6 -146.543
25.25 -16.7 -137.46
22.55 -4.3 -137.46
25.25 -16.7 69.44
22.55 -4.3 69.44
12.85 -19 69.44
17.35 14 78.94
15.55 23.6 78.94
11.65 17.7 86.014
6.05 21.4 78.94
17.35 14 77.04
15.55 23.6 77.04
11.65 17.7 77.04
6.05 21.4 77.04
13.85 -17.3 71.34
23.55 -15.5 71.34
17.65 -11.6 78.414
21.45 -6 71.34
13.85 -17.3 69.44
23.55 -15.5 69.44
17.65 -11.6 69.44
21.45 -6 69.44
0.75 0.0999997 102.5
0.45 0.6 102.5
0.25 0.299999 157.5
0.25 0.0999997 157.5
-0.15 0.799999 102.5
-0.15 0.4 157.5
-0.65 0.4 102.5
-0.25 0.0999997 157.5
-0.65 -0.3 102.5
-0.25 -0.1 157.5
-0.15 -0.7 102.5
-0.15 -0.3 157.5
0.45 -0.6 102.5
0.25 -0.3 157.5
-0.15 0.4 116.956
-0.65 3.1 123.956
-0.85 3.3 123.901
-0.35 0.5 116.901
-0.0500002 0.5 116.901
-0.55 3.3 123.901
-0.15 0.7 116.846
-0.75 3.4 123.846
-0.35 -4.76837e-07 116.956
-3.05 -0.6 123.956
-3.25 -0.7 123.901
-0.55 -0.3 116.901
-0.55 0.0999997 116.901
-3.25 -0.5 123.901
-0.65 -0.1 116.846
-3.35 -0.7 123.846
0.0500002 -0.3 116.956
-0.0500002 -0.5 116.901
0.55 -3.2 123.901
0.65 -3.1 123.956
0.25 -0.4 116.901
0.85 -3.1 123.901
0.15 -0.6 116.846
0.65 -3.3 123.846
-1.15 8.3 107.623
-1.75 8.7 107.107
-1.15 8.3 109.123
-2.15 8.1 107.623
-2.15 8.1 109.123
-0.55 -0.1 115.928
-0.55 -0.1 116.901
-0.55 0.5 116.901
1.15 -8.2 107.623
1.15 -8.2 109.123
-0.45 -0.6 116.901
1.75 -8.7 107.095
1.75 -8.7 108.601
2.15 -8 107.623
2.15 -8 109.123
0.55 0.0999997 115.928
0.55 0.0999997 116.901
0.65 -0.4 116.901
0.35 0.6 116.901
-8.25 -1.1 107.626
-8.65 -1.7 107.069
-8.25 -1.1 109.126
-8.05 -2.2 107.626
-8.05 -2.2 109.126
0.15 -0.5 115.931
0.15 -0.5 116.901
8.25 1.2 107.626
8.25 1.2 109.126
8.65 1.8 107.067
8.05 2.2 107.626
8.05 2.2 109.126
-0.15 0.5 115.931
-0.15 0.5 116.901
-0.65 0.5 116.901
1.85 2.8 124.901
2.95 1.6 124.901
1.85 2.9 124.901
0.15 3.3 124.901
0.25 3.6 124.901
-1.55 2.9 124.901
-1.65 3.2 124.901
-2.75 1.8 124.901
-2.95 2 124.901
-3.35 0.2 124.901
-3.55 0.2 124.901
-2.95 -1.5 124.901
-3.15 -1.6 124.901
-1.75 -2.7 124.901
-1.95 -2.9 124.901
-0.15 -3.3 124.901
-0.15 -3.5 124.901
1.45 -2.9 124.901
1.65 -3.1 124.901
2.75 -1.8 124.901
2.95 -1.9 124.901
3.35 -0.2 124.901
3.45 -0.2 124.901
3.05 1.7 124.901
3.45 -0.2 123.901
3.05 1.7 123.901
1.85 2.9 123.901
0.25 3.6 123.901
-1.65 3.2 123.901
-2.95 2 123.901
-3.55 0.2 123.901
-3.15 -1.6 123.901
-1.95 -2.9 123.901
-0.15 -3.5 123.901
1.65 -3.1 123.901
2.95 -1.9 123.901
2.95 1.6 123.901
3.35 -0.2 123.901
2.75 -1.8 123.901
1.45 -2.9 123.901
-0.15 -3.3 123.901
-1.75 -2.7 123.901
-2.95 -1.5 123.901
-3.35 0.2 123.901
-2.75 1.8 123.901
-1.55 2.9 123.901
0.15 3.3 123.901
1.85 2.8 123.901
0.55 -3.1 123.901
-0.85 3.2 123.901
0.75 -3.1 123.901
0.55 -3.1 124.901
0.75 -3.1 124.901
-0.55 3.3 124.901
-0.85 3.2 124.901
3.15 0.5 123.901
-3.15 -0.8 123.901
3.15 0.9 123.901
3.15 0.5 124.901
3.15 0.9 124.901
-3.25 -0.5 124.901
-3.15 -0.8 124.901
1.45 0.0999997 124.276
0.95 1.2 124.276
0.95 1.2 124.576
1.45 0.0999997 124.576
-0.35 1.5 124.276
-0.35 1.5 124.576
-1.35 0.7 124.276
-1.35 0.7 124.576
-1.35 -0.7 124.276
-1.35 -0.7 124.576
-0.35 -1.5 124.276
-0.35 -1.5 124.576
0.95 -1.1 124.276
0.95 -1.1 124.576
-0.15 0.4 131.784
-0.35 0.5 131.839
-0.85 3.3 124.839
-0.65 3.1 124.784
-0.0500002 0.5 131.839
-0.55 3.3 124.839
-0.15 0.7 131.894
-0.75 3.4 124.894
-0.35 -4.76837e-07 131.784
-0.55 -0.3 131.839
-3.25 -0.7 124.839
-3.05 -0.6 124.784
-0.55 0.0999997 131.839
-3.25 -0.5 124.839
-0.65 -0.1 131.894
-3.35 -0.7 124.894
0.35 0.0999997 131.784
3.05 0.6 124.784
3.25 0.5 124.839
0.55 -4.76837e-07 131.839
0.55 0.2 131.839
3.25 0.799999 124.839
0.65 0.0999997 131.894
3.45 0.6 124.894
0.0500002 -0.3 131.784
0.65 -3.1 124.784
0.55 -3.2 124.839
-0.0500002 -0.5 131.839
0.25 -0.4 131.839
0.85 -3.1 124.839
0.15 -0.6 131.894
0.65 -3.3 124.894
1.05 0.0999997 131.822
0.65 0.9 131.822
0.65 0.9 132.122
1.05 0.0999997 132.122
-0.25 1.1 131.822
-0.25 1.1 132.122
-0.95 0.5 131.822
-0.95 0.5 132.122
-0.95 -0.4 131.822
-0.95 -0.4 132.122
-0.25 -1 131.822
-0.25 -1 132.122
0.65 -0.8 131.822
0.65 -0.8 132.122
0.35 -0.1 135.502
-0.15 -1.6 135.502
0.0500002 -1.5 136.252
0.25 -1 136.801
0.75 -0.3 137.002
1.15 0.299999 136.801
1.45 0.7 136.252
1.55 0.9 135.502
1.45 0.7 134.752
1.15 0.299999 134.203
0.75 -0.3 134.002
0.25 -1 134.203
0.0500002 -1.5 134.752
0.35 -2.8 136.801
0.25 -3.1 135.502
0.95 -2 137.752
1.65 -1 138.1
2.35 0.0999997 137.752
2.95 0.9 136.801
3.05 1.2 135.502
2.95 0.9 134.203
2.35 0.0999997 133.252
1.65 -1 132.904
0.95 -2 133.252
0.35 -2.8 134.203
1.45 -3.9 137.002
1.25 -4.3 135.502
2.05 -3.1 138.1
2.95 -1.8 138.502
3.75 -0.6 138.1
4.35 0.4 137.002
4.55 0.7 135.502
4.35 0.4 134.002
3.75 -0.6 132.904
2.95 -1.8 132.502
2.05 -3.1 132.904
1.45 -3.9 134.002
-0.35 0.299999 135.502
0.15 1.8 135.502
0.0500002 1.7 136.252
-0.25 1.2 136.801
-0.65 0.5 137.002
-1.15 -0.1 136.801
-1.35 -0.5 136.252
-1.55 -0.7 135.502
-1.35 -0.5 134.752
-1.15 -0.1 134.203
-0.65 0.5 134.002
-0.25 1.2 134.203
0.0500002 1.7 134.752
-0.35 3 136.801
-0.15 3.3 135.502
-0.95 2.2 137.752
-1.65 1.2 138.1
-2.35 0.0999997 137.752
-2.85 -0.7 136.801
-3.05 -1 135.502
-2.85 -0.7 134.203
-2.35 0.0999997 133.252
-1.65 1.2 132.904
-0.95 2.2 133.252
-0.35 3 134.203
-1.35 4.1 137.002
-1.15 4.5 135.502
-2.05 3.3 138.1
-2.85 2 138.502
-3.75 0.799999 138.1
-4.25 -0.2 137.002
-4.55 -0.5 135.502
-4.25 -0.2 134.002
-3.75 0.799999 132.904
-2.85 2 132.502
-2.05 3.3 132.904
-1.35 4.1 134.002
0.35 0.0999997 116.956
0.55 -4.76837e-07 116.901
3.25 0.5 123.901
3.05 0.6 123.956
0.55 0.2 116.901
3.25 0.799999 123.901
0.65 0.0999997 116.846
3.45 0.6 123.846
-8.65 -1.7 108.6
8.65 1.8 108.6
-1.75 8.7 108.6
-15.55 -23.5 78.94
-15.55 -23.5 78.94
-15.55 -23.5 78.94
-11.75 -17.6 86.014
-11.75 -17.6 86.014
-11.75 -17.6 86.014
-15.55 -23.5 77.04
-15.55 -23.5 77.04
-11.75 -17.6 77.04
-11.75 -17.6 77.04
15.55 23.6 78.94
15.55 23.6 78.94
15.55 23.6 78.94
11.65 17.7 86.014
11.65 17.7 86.014
11.65 17.7 86.014
15.55 23.6 77.04
15.55 23.6 77.04
11.65 17.7 77.04
11.65 17.7 77.04
23.55 -15.5 71.34
23.55 -15.5 71.34
23.55 -15.5 71.34
17.65 -11.6 78.414
17.65 -11.6 78.414
17.65 -11.6 78.414
23.55 -15.5 69.44
23.55 -15.5 69.44
17.65 -11.6 69.44
17.65 -11.6 69.44
-0.55 3.3 123.901
-3.25 -0.5 123.901
-0.45 -0.6 116.901
3  0 1 2  128 255 64
3  2 3 0  128 255 64
3  4 5 6  255 0 255
3  6 7 4  255 0 255
3  5 8 9  50 205 50
3  9 6 5  50 205 50
3  8 10 11  255 128 0
3  11 9 8  255 128 0
3  10 4 7  255 255 0
3  7 11 10  255 255 0
3  7 6 12  128 128 255
3  12 13 7  128 128 255
3  6 9 14  128 128 255
3  14 12 6  128 128 255
3  9 11 15  128 128 255
3  15 14 9  128 128 255
3  11 7 13  128 128 255
3  13 15 11  128 128 255
3  13 12 16  128 255 255
3  16 17 13  128 255 255
3  12 14 18  255 128 255
3  18 16 12  255 128 255
3  14 15 19  255 255 128
3  19 18 14  255 255 128
3  15 13 17  192 0 0
3  17 19 15  192 0 0
3  17 16 20  0 128 64
3  20 21 17  0 128 64
3  16 18 22  128 64 0
3  22 20 16  128 64 0
3  18 19 23  64 0 128
3  23 22 18  64 0 128
3  19 17 21  255 165 0
3  21 23 19  255 165 0
3  21 20 24  192 192 0
3  24 25 21  192 192 0
3  20 22 26  128 255 255
3  26 24 20  128 255 255
3  22 23 27  192 0 0
3  27 26 22  192 0 0
3  23 21 25  0 0 192
3  25 27 23  0 0 192
3  25 24 3  176 196 222
3  3 2 25  176 196 222
3  24 26 0  72 61 139
3  0 3 24  72 61 139
3  26 27 1  255 228 196
3  1 0 26  255 228 196
3  27 25 2  255 20 147
3  2 1 27  255 20 147
3  28 29 30  255 128 255
3  31 29 28  64 64 255
3  32 33 34  128 64 255
3  30 29 32  240 128 128
3  32 34 30  240 128 128
3  29 31 33  173 216 230
3  33 32 29  173 216 230
3  31 30 34  50 205 50
3  34 33 31  50 205 50
3  35 36 37  128 64 255
3  38 39 36  50 205 50
3  36 35 38  50 205 50
3  39 40 37  0 0 255
3  37 36 39  0 0 255
3  40 38 35  255 0 0
3  35 37 40  255 0 0
3  41 38 40  128 128 255
3  39 41 40  255 128 128
3  42 43 44  64 255 64
3  45 46 43  255 128 0
3  43 42 45  255 128 0
3  46 47 44  255 0 0
3  44 43 46  255 0 0
3  47 45 42  255 255 0
3  42 44 47  255 255 0
3  48 49 50  192 0 192
3  369 366 51  255 64 64
3  52 53 49  0 0 255
3  49 48 52  0 0 255
3  372 54 370  128 0 255
3  370 367 372  128 0 255
3  374 52 48  255 128 0
3  48 50 374  255 128 0
3  54 372 368  128 0 255
3  368 371 54  128 0 255
3  373 55 51  0 255 0
3  51 366 373  0 255 0
3  55 375 369  255 128 0
3  369 51 55  255 128 0
3  46 56 47  255 0 255
3  56 45 47  128 0 255
3  57 58 59  0 255 255
3  58 60 59  255 128 0
3  61 62 63  64 255 64
3  60 57 62  255 0 255
3  62 61 60  255 0 255
3  57 59 63  0 255 0
3  63 62 57  0 255 0
3  59 60 61  0 0 255
3  61 63 59  0 0 255
3  64 65 66  255 255 128
3  65 67 66  128 255 128
3  68 69 70  128 64 255
3  66 67 69  0 255 0
3  69 68 66  0 255 0
3  67 64 70  255 255 0
3  70 69 67  255 255 0
3  64 66 68  255 255 0
3  68 70 64  255 255 0
3  71 72 73  255 64 64
3  379 376 74  0 192 192
3  75 76 72  0 255 255
3  72 71 75  0 255 255
3  382 77 380  128 0 255
3  380 377 382  128 0 255
3  384 75 71  255 0 255
3  71 73 384  255 0 255
3  77 382 378  128 0 255
3  378 381 77  128 0 255
3  383 78 74  64 64 255
3  74 376 383  64 64 255
3  78 385 379  255 0 255
3  379 74 78  255 0 255
3  79 80 81  0 192 192
3  389 386 82  64 255 64
3  83 84 80  0 255 0
3  80 79 83  0 255 0
3  392 85 390  255 128 128
3  390 387 392  255 128 128
3  394 83 79  255 255 0
3  79 81 394  255 255 0
3  85 392 388  255 128 128
3  388 391 85  255 128 128
3  393 86 82  0 255 255
3  82 386 393  0 255 255
3  86 395 389  255 255 0
3  389 82 86  255 255 0
3  87 88 89  123 104 238
3  89 90 87  255 64 128
3  88 91 92  0 128 128
3  92 89 88  0 128 128
3  91 93 94  255 128 64
3  94 92 91  100 100 100
3  93 95 96  192 192 0
3  96 94 93  192 192 0
3  95 97 98  64 128 255
3  98 96 95  100 100 100
3  97 99 100  128 255 128
3  100 98 97  64 255 128
3  99 87 90  255 255 64
3  90 100 99  255 64 128
3  97 95 93  100 100 100
3  93 91 88  100 100 100
3  93 88 87  100 100 100
3  97 93 87  100 100 100
3  99 97 87  100 100 100
3  89 92 94  100 100 100
3  94 96 98  100 100 100
3  94 98 100  100 100 100
3  89 94 100  100 100 100
3  90 89 100  100 100 100
3  101 102 103  100 100 100
3  103 104 101  100 100 100
3  105 106 102  100 100 100
3  102 101 105  100 100 100
3  107 108 106  100 100 100
3  106 105 107  100 100 100
3  104 103 108  100 100 100
3  108 107 104  100 100 100
3  106 108 103  100 100 100
3  103 102 106  100 100 100
3  105 101 104  100 100 100
3  107 105 104  100 100 100
3  109 110 111  100 100 100
3  111 112 109  100 100 100
3  113 114 110  100 100 100
3  110 109 113  100 100 100
3  115 116 114  100 100 100
3  114 113 115  100 100 100
3  112 111 116  100 100 100
3  116 115 112  100 100 100
3  114 116 111  100 100 100
3  111 110 114  100 100 100
3  113 109 112  100 100 100
3  115 113 112  100 100 100
3  117 118 119  100 100 100
3  119 120 117  100 100 100
3  121 117 120  100 100 100
3  120 122 121  100 100 100
3  123 121 122  100 100 100
3  122 124 123  100 100 100
3  118 123 124  100 100 100
3  124 119 118  100 100 100
3  122 120 119  100 100 100
3  119 124 122  100 100 100
3  121 118 117  100 100 100
3  123 118 121  100 100 100
3  125 126 365  100 100 100
3  365 127 125  100 100 100
3  126 128 129  100 100 100
3  129 365 126  100 100 100
3  130 131 132  192 192 0
3  130 132 129  100 100 100
3  128 130 129  192 0 192
3  130 133 134  192 0 192
3  130 134 135  192 0 192
3  130 135 131  192 0 192
3  133 136 137  100 100 100
3  137 134 133  100 100 100
3  136 138 139  100 100 100
3  139 137 136  100 100 100
3  140 141 142  0 192 0
3  140 142 139  0 192 0
3  138 140 139  0 192 0
3  140 125 127  0 192 0
3  140 127 143  0 192 0
3  140 143 141  100 100 100
3  128 126 125  128 128 0
3  130 128 125  128 128 0
3  130 125 140  128 128 0
3  133 130 140  255 64 255
3  133 140 138  255 64 255
3  133 138 136  255 64 255
3  144 145 363  100 100 100
3  363 146 144  100 100 100
3  145 147 148  100 100 100
3  148 363 145  100 100 100
3  149 150 398  128 255 128
3  149 398 148  128 255 128
3  147 149 148  128 255 128
3  149 151 152  128 255 128
3  149 152 142  128 255 128
3  149 142 150  128 255 128
3  151 153 364  100 100 100
3  364 152 151  100 100 100
3  153 154 155  100 100 100
3  155 364 153  100 100 100
3  156 157 143  0 0 192
3  156 143 155  0 0 192
3  154 156 155  0 0 192
3  156 144 146  0 0 192
3  156 146 158  100 100 100
3  156 158 157  100 100 100
3  154 153 151  64 255 255
3  156 154 151  64 255 255
3  156 151 149  64 255 255
3  156 149 147  128 0 128
3  144 156 147  128 0 128
3  144 147 145  128 0 128
3  127 365 129  224 255 255
3  127 129 132  224 255 255
3  143 127 132  224 255 255
3  152 364 155  255 240 245
3  152 155 143  255 240 245
3  142 152 143  255 240 245
3  135 134 137  100 100 100
3  137 139 142  100 100 100
3  135 137 142  100 100 100
3  142 143 132  100 100 100
3  135 142 132  100 100 100
3  148 398 158  245 222 179
3  148 158 146  245 222 179
3  148 146 363  245 222 179
3  159 160 161  100 100 100
3  162 159 161  100 100 100
3  162 161 163  100 100 100
3  164 162 163  100 100 100
3  164 163 165  100 100 100
3  166 164 165  100 100 100
3  166 165 167  100 100 100
3  168 166 167  100 100 100
3  168 167 169  100 100 100
3  170 168 169  100 100 100
3  170 169 171  100 100 100
3  172 170 171  100 100 100
3  172 171 173  100 100 100
3  174 172 173  100 100 100
3  174 173 175  100 100 100
3  176 174 175  100 100 100
3  176 175 177  100 100 100
3  178 176 177  100 100 100
3  178 177 179  100 100 100
3  180 178 179  100 100 100
3  180 179 181  100 100 100
3  180 181 182  100 100 100
3  182 161 160  100 100 100
3  180 182 160  100 100 100
3  183 184 182  100 100 100
3  182 181 183  100 100 100
3  184 185 161  100 100 100
3  161 182 184  100 100 100
3  185 186 163  100 100 100
3  163 161 185  100 100 100
3  186 187 165  100 100 100
3  165 163 186  100 100 100
3  187 188 167  100 100 100
3  167 165 187  100 100 100
3  188 189 169  100 100 100
3  169 167 188  100 100 100
3  189 190 171  100 100 100
3  171 169 189  100 100 100
3  190 191 173  100 100 100
3  173 171 190  100 100 100
3  191 192 175  100 100 100
3  175 173 191  100 100 100
3  192 193 177  100 100 100
3  177 175 192  100 100 100
3  193 194 179  100 100 100
3  179 177 193  100 100 100
3  194 183 181  100 100 100
3  181 179 194  100 100 100
3  195 196 180  100 100 100
3  180 160 195  100 100 100
3  196 197 178  100 100 100
3  178 180 196  100 100 100
3  197 198 176  100 100 100
3  176 178 197  100 100 100
3  198 199 174  100 100 100
3  174 176 198  100 100 100
3  199 200 172  100 100 100
3  172 174 199  100 100 100
3  200 201 170  100 100 100
3  170 172 200  100 100 100
3  201 202 168  100 100 100
3  168 170 201  100 100 100
3  202 203 166  100 100 100
3  166 168 202  100 100 100
3  203 204 164  100 100 100
3  164 166 203  100 100 100
3  204 205 162  100 100 100
3  162 164 204  100 100 100
3  205 206 159  100 100 100
3  159 162 205  100 100 100
3  206 195 160  100 100 100
3  160 159 206  100 100 100
3  195 185 184  255 0 0
3  196 195 184  255 0 0
3  196 184 183  255 0 0
3  196 183 194  255 0 0
3  185 195 206  255 0 0
3  185 206 205  255 0 0
3  186 185 205  255 0 0
3  186 205 204  255 0 0
3  187 186 204  255 0 0
3  187 204 203  255 0 0
3  188 187 203  255 0 0
3  188 203 202  255 0 0
3  189 188 202  255 0 0
3  189 202 201  255 0 0
3  190 189 201  255 0 0
3  190 201 200  255 0 0
3  191 190 200  255 0 0
3  191 200 199  255 0 0
3  192 191 199  255 0 0
3  192 199 198  255 0 0
3  193 192 198  255 0 0
3  193 198 197  255 0 0
3  194 193 197  255 0 0
3  196 194 197  255 0 0
3  207 208 396  255 0 0
3  396 209 207  255 0 0
3  210 211 212  100 100 100
3  212 213 210  100 100 100
3  207 209 211  100 100 100
3  211 210 207  100 100 100
3  209 396 212  192 0 192
3  212 211 209  192 0 192
3  396 208 213  100 100 100
3  213 212 396  100 100 100
3  208 207 210  192 0 192
3  210 213 208  192 0 192
3  214 215 397  255 0 0
3  397 216 214  255 0 0
3  217 218 219  100 100 100
3  219 220 217  100 100 100
3  214 216 218  100 100 100
3  218 217 214  100 100 100
3  216 397 219  128 255 128
3  219 218 216  128 255 128
3  397 215 220  100 100 100
3  220 219 397  100 100 100
3  215 214 217  128 255 128
3  217 220 215  128 255 128
3  221 222 223  100 100 100
3  223 224 221  100 100 100
3  222 225 226  100 100 100
3  226 223 222  100 100 100
3  225 227 228  100 100 100
3  228 226 225  100 100 100
3  227 229 230  100 100 100
3  230 228 227  100 100 100
3  229 231 232  100 100 100
3  232 230 229  100 100 100
3  231 233 234  100 100 100
3  234 232 231  100 100 100
3  233 221 224  100 100 100
3  224 234 233  100 100 100
3  231 229 227  255 0 0
3  227 225 222  255 0 0
3  227 222 221  255 0 0
3  231 227 221  255 0 0
3  233 231 221  255 0 0
3  223 226 228  255 0 0
3  228 230 232  255 0 0
3  228 232 234  255 0 0
3  223 228 234  255 0 0
3  224 223 234  255 0 0
3  235 236 237  100 100 100
3  237 238 235  100 100 100
3  239 235 238  100 100 100
3  238 240 239  100 100 100
3  241 239 240  100 100 100
3  240 242 241  100 100 100
3  236 241 242  100 100 100
3  242 237 236  100 100 100
3  240 238 237  100 100 100
3  237 242 240  100 100 100
3  239 236 235  100 100 100
3  241 236 239  100 100 100
3  243 244 245  100 100 100
3  245 246 243  100 100 100
3  247 243 246  100 100 100
3  246 248 247  100 100 100
3  249 247 248  100 100 100
3  248 250 249  100 100 100
3  244 249 250  100 100 100
3  250 245 244  100 100 100
3  248 246 245  100 100 100
3  245 250 248  100 100 100
3  247 244 243  100 100 100
3  249 244 247  100 100 100
3  251 252 253  100 100 100
3  253 254 251  100 100 100
3  255 256 252  100 100 100
3  252 251 255  100 100 100
3  257 258 256  100 100 100
3  256 255 257  100 100 100
3  254 253 258  100 100 100
3  258 257 254  100 100 100
3  256 258 253  100 100 100
3  253 252 256  100 100 100
3  255 251 254  100 100 100
3  257 255 254  100 100 100
3  259 260 261  100 100 100
3  261 262 259  100 100 100
3  263 264 260  100 100 100
3  260 259 263  100 100 100
3  265 266 264  100 100 100
3  264 263 265  100 100 100
3  262 261 266  100 100 100
3  266 265 262  100 100 100
3  264 266 261  100 100 100
3  261 260 264  100 100 100
3  263 259 262  100 100 100
3  265 263 262  100 100 100
3  267 268 269  100 100 100
3  269 270 267  100 100 100
3  268 271 272  100 100 100
3  272 269 268  100 100 100
3  271 273 274  100 100 100
3  274 272 271  100 100 100
3  273 275 276  100 100 100
3  276 274 273  100 100 100
3  275 277 278  100 100 100
3  278 276 275  100 100 100
3  277 279 280  100 100 100
3  280 278 277  100 100 100
3  279 267 270  255 255 64
3  270 280 279  255 255 64
3  277 275 273  100 100 100
3  273 271 268  100 100 100
3  273 268 267  100 100 100
3  277 273 267  100 100 100
3  279 277 267  100 100 100
3  269 272 274  100 100 100
3  274 276 278  100 100 100
3  274 278 280  100 100 100
3  269 274 280  100 100 100
3  270 269 280  100 100 100
3  281 282 283  100 100 100
3  281 283 284  100 100 100
3  281 284 285  100 100 100
3  281 285 286  100 100 100
3  281 286 287  100 100 100
3  281 287 288  100 100 100
3  281 288 289  100 100 100
3  281 289 290  100 100 100
3  281 290 291  100 100 100
3  281 291 292  100 100 100
3  281 292 293  100 100 100
3  281 293 282  100 100 100
3  294 283 282  100 100 100
3  282 295 294  100 100 100
3  296 284 283  100 100 100
3  283 294 296  100 100 100
3  297 285 284  100 100 100
3  284 296 297  100 100 100
3  298 286 285  100 100 100
3  285 297 298  100 100 100
3  299 287 286  100 100 100
3  286 298 299  100 100 100
3  300 288 287  100 100 100
3  287 299 300  100 100 100
3  301 289 288  100 100 100
3  288 300 301  100 100 100
3  302 290 289  100 100 100
3  289 301 302  100 100 100
3  303 291 290  100 100 100
3  290 302 303  100 100 100
3  304 292 291  100 100 100
3  291 303 304  100 100 100
3  305 293 292  100 100 100
3  292 304 305  100 100 100
3  295 282 293  100 100 100
3  293 305 295  100 100 100
3  306 294 295  100 100 100
3  295 307 306  100 100 100
3  308 296 294  100 100 100
3  294 306 308  100 100 100
3  309 297 296  100 100 100
3  296 308 309  100 100 100
3  310 298 297  100 100 100
3  297 309 310  100 100 100
3  311 299 298  100 100 100
3  298 310 311  100 100 100
3  312 300 299  100 100 100
3  299 311 312  100 100 100
3  313 301 300  100 100 100
3  300 312 313  100 100 100
3  314 302 301  100 100 100
3  301 313 314  100 100 100
3  315 303 302  100 100 100
3  302 314 315  100 100 100
3  316 304 303  100 100 100
3  303 315 316  100 100 100
3  317 305 304  100 100 100
3  304 316 317  100 100 100
3  307 295 305  100 100 100
3  305 317 307  100 100 100
3  4 10 8  0 192 0
3  321 333 334  100 100 100
3  335 323 322  100 100 100
3  322 334 335  100 100 100
3  336 324 323  100 100 100
3  323 335 336  100 100 100
3  337 325 324  100 100 100
3  324 336 337  100 100 100
3  338 326 325  100 100 100
3  325 337 338  100 100 100
3  339 327 326  100 100 100
3  326 338 339  100 100 100
3  340 328 327  100 100 100
3  327 339 340  100 100 100
3  341 329 328  100 100 100
3  328 340 341  100 100 100
3  342 330 329  100 100 100
3  329 341 342  100 100 100
3  332 319 330  100 100 100
3  330 342 332  100 100 100
3  343 331 332  100 100 100
3  332 344 343  100 100 100
3  320 331 333  100 100 100
3  334 346 347  100 100 100
3  345 333 331  100 100 100
3  333 345 346  100 100 100
3  335 347 348  100 100 100
3  337 349 350  100 100 100
3  339 351 352  100 100 100
3  341 353 354  100 100 100
3  357 358 355  100 100 100
3  358 360 359  100 100 100
3  362 357 356  100 100 100
3  361 356 359  100 100 100
3  342 354 344  100 100 100
3  338 350 351  100 100 100
3  360 362 361  100 100 100
3  357 362 360  100 100 100
3  333 321 320  100 100 100
3  340 352 353  100 100 100
3  336 348 349  100 100 100
3  334 322 321  100 100 100
3  359 356 355  100 100 100
3  360 358 357  100 100 100
3  356 361 362  100 100 100
3  361 359 360  100 100 100
3  8 5 4  0 192 0
3  359 355 358  100 100 100
3  355 356 357  100 100 100
3  344 332 342  100 100 100
3  354 342 341  100 100 100
3  353 341 340  100 100 100
3  352 340 339  100 100 100
3  351 339 338  100 100 100
3  350 338 337  100 100 100
3  349 337 336  100 100 100
3  348 336 335  100 100 100
3  347 335 334  100 100 100
3  346 334 333  100 100 100
3  331 343 345  100 100 100
3  318 319 320  100 100 100
3  318 320 321  100 100 100
3  318 321 322  100 100 100
3  318 322 323  100 100 100
3  318 323 324  100 100 100
3  318 324 325  255 128 64
3  318 325 326  255 128 64
3  318 326 327  100 100 100
3  318 327 328  100 100 100
3  318 328 329  100 100 100
3  318 329 330  100 100 100
3  318 330 319  100 100 100
3  331 320 319  100 100 100
3  319 332 331  100 100 100

