OFF
495 458 0

0.161423 -0.54569 108.6
-0.458488 -0.136906 108.6
-3.71576 -5.04461 108.6
-3.08679 -5.46161 108.6
-15.0278 -22.6588 77.04
-6.52782 -21.0815 77.04
-15.6849 -22.7807 77.04
-17.3571 -13.8619 77.04
6.05 21.4 77.04
15.55 23.6 77.04
17.3641 13.9246 77.04
15.55 23.6 77.04
22.7866 -14.9954 69.44
13.7724 -17.3144 69.44
23.55 -15.5 69.44
21.1758 -6.40412 69.44
22.9037 -15.6199 69.44
-23.55 15.6 69.44
-13.9834 17.2941 69.44
-21.3682 6.17874 69.44
3.83248 5.01018 108.6
3.22352 5.41074 108.6
-19.35 -3.9 94.9995
-19.3613 -3.91703 94.9995
-3.94122 19.3132 95.0011
-3.9367 19.2913 95.017
-0.0609902 0.462 108.6
0.0416965 -0.036881 108.96
-19.3328 -3.91134 95.0199
3.96012 -19.3067 94.9903
3.95 -19.3 94.9903
-19.35 -3.9 95.02
-16.1076 0.984653 100.899
-5.43517 3.14484 108.6
-1.1306 0.306299 108.6
0.0609735 -0.049592 108.96
3.95671 -19.2899 95.0025
0.55771 0.0540611 108.6
-0.55 -1.62237 108.6
-0.299973 -1.24398 108.6
19.3311 3.97147 94.9988
3.95 -19.3 95.0025
3.41133 -18.944 95.6529
-0.55 -16.3257 100.436
-0.950756 -16.0609 100.919
-2.63501 -7.70341 106.976
1.08796 -0.29556 108.6
5.39923 -3.13818 108.6
-5.03783 3.74347 108.6
-7.20441 14.3972 100.9
-3.95 19.3 95.017
-0.55 17.0674 95.0094
0.818125 16.169 95.0063
6.19249 12.6399 94.9942
7.66573 11.6725 94.9909
9.05495 10.7603 94.9878
10.8911 9.55454 94.9836
19.35 4 94.9646
18.9791 3.43886 95.6371
16.7459 0.0600639 99.6862
16.0798 -0.947759 100.894
15.0064 -1.1679 101.668
9.68088 -2.26008 105.511
-15.141 -15.3394 81.7359
-18.95 -12.8 -145.06
-15.1627 -15.3249 -149.838
-11.75 -17.6 -154.143
-6.52782 -21.0815 -147.7
-4.75252 -22.265 -145.51
-4.75252 -22.265 -137.46
-4.75252 -22.265 69.1972
-4.75252 -22.265 69.44
-4.75252 -22.265 77.04
-6.52782 -21.0815 79.533
-11.7041 -17.6306 85.9571
-11.75 -17.6 86.014
-17.3571 -13.8619 78.94
-18.8632 -12.8579 77.04
-18.95 -12.8 77.04
-18.95 -12.8 69.44
-18.95 -12.8 68.4842
-18.95 -12.8 -137.211
-16.9727 12.7946 77.04
-12.85 19 -137.46
-13.9834 17.2941 -139.586
-17.6691 11.7465 -146.498
-17.7153 11.6769 -146.585
-21.3682 6.17874 -139.69
-22.2297 4.88205 -138.064
-22.2297 4.88205 69.44
-21.3682 6.17874 71.34
-18.4424 10.5826 77.04
-13.9834 17.2941 71.34
-12.9869 18.7939 69.44
-12.85 19 69.44
-12.85 19 69.1789
4.74339 22.2633 69.44
11.65 17.7 86.014
19.0698 12.7976 76.8284
19.0698 12.7976 77.04
19.0698 12.7976 69.44
19.0698 12.7976 68.8475
19.0698 12.7976 -137.12
19.0698 12.7976 -145.06
11.65 17.7 -154.143
8.32689 19.8956 -149.993
4.74339 22.2633 -145.519
4.74339 22.2633 -137.46
4.74339 22.2633 68.9667
4.74339 22.2633 77.04
6.05 21.4 78.94
11.65 17.7 86.014
17.3641 13.9246 78.94
18.8989 12.9105 77.04
22.4289 -4.55746 -137.708
12.5967 -19.047 69.1952
12.5967 -19.047 69.44
12.5967 -19.047 -137.46
13.7724 -17.3144 -139.573
17.65 -11.6 -146.543
17.65 -11.6 -146.543
21.1758 -6.40412 -140.025
22.4289 -4.55746 69.44
21.1758 -6.40412 71.8505
18.3881 -10.5123 77.04
17.65 -11.6 77.04
16.8968 -12.7099 77.04
13.7724 -17.3144 71.34
12.7309 -18.8492 69.44
-29.3646 -5.85696 -131.922
-1.81213 -0.899773 108.6
-5.45084 -3.8943 108.6
-1.99828 -6.18326 108.6
-0.55 -2.80394 108.6
18.7199 4.41378 98.2545
19.35 4 97.7456
9.64423 2.53024 107.475
8.65141 1.84034 108.6
18.978 3.43725 98.2406
10.0475 1.57178 107.316
8.66105 1.8017 108.6
15.4473 6.56269 100.897
16.9847 0.421389 100.893
24.3554 0.713186 88.9674
22.0764 -2.7364 88.9671
7.30977 1.00071 108.6
7.06124 1.99604 108.6
4.52262 1.46916 111.187
4.10464 1.17634 111.663
4.03341 0.761368 111.832
4.09103 0.680164 111.796
5.02127 0.522665 110.933
8.09161 2.20857 108.6
0.692404 0.682037 108.836
0.968151 0.739165 108.635
1.0171 0.749306 108.6
0.506153 0.643451 108.971
-17.3571 -13.8619 87.78
-17.5258 -12.9623 88.44
19.3784 3.98134 94.9645
1.03684 1.44483 108.97
1.39517 1.73972 108.832
4.68653 4.44839 108.6
2.00089 2.23821 108.6
7.53543 0.0969957 108.6
18.9787 3.4382 96.706
6.59306 -1.33019 108.6
2.36884 -0.0286992 108.6
21.1758 -6.40412 77.04
19.35 4 96.2104
18.7176 4.41524 96.7225
-5.727 -0.64383 110.223
-4.14725 -0.632637 111.762
-0.802772 -0.655637 108.6
-0.635137 -0.654629 108.739
-5.79406 -0.655637 108.6
-3.96729 -0.890161 111.878
-4.14816 -0.631336 111.762
-4.96133 -0.486871 111.004
-7.3191 -0.970209 108.6
-7.07678 -1.99662 108.6
-4.72901 -1.50876 110.995
-8.3009 -1.17272 108.6
27.6415 5.70559 88.978
28.0872 5.41118 88.44
0.694545 1.60036 108.6
0.69118 0.922853 108.97
0.694545 0.26115 108.6
0.767091 16.2025 100.62
-24.1965 15.4855 69.44
20.9797 2.92985 93.035
24.7931 0.425803 88.44
25.4968 -0.0363062 87.592
-0.55 -7.14344 108.6
-0.55 -16.3257 100.92
22.9037 -15.6199 71.34
8.26334 1.19937 108.6
0.59124 -0.399242 108.96
-17.3571 -13.8619 84.4108
-15.6849 -22.7807 78.94
-1.7568 8.68674 108.6
2.50955 4.33501 108.6
-5.81334 28.4085 88.44
-23.55 15.6 71.34
12.3812 15.7875 88.9612
19.387 11.1591 88.9689
11.1196 -19.321 88.9658
-8.01755 -2.19262 108.6
-0.828839 -0.694912 108.6
-18.6028 -4.39385 100.889
17.3641 13.9246 87.7739
-0.55 17.0674 99.0511
15.55 23.6 78.94
-14.5521 -15.7319 -157.6
9.50018 -10.4521 -157.6
12.5967 -19.047 -144.688
15.7115 -14.4567 -150.127
-12.928 18.8826 87.7827
-15.9939 14.2679 81.8099
-12.3858 18.5059 88.44
-19.3037 9.28621 87.7773
-13.3484 18.2498 77.04
-18.7269 8.95169 88.44
10.235 18.6349 87.7657
9.86335 18.0721 88.44
-18.95 -12.8 86.3334
5.68934 -29.2262 56.5941
2.93245 -20.8395 93.1396
5.54589 -20.3548 93.0757
-20.7756 -2.95777 93.298
17.65 -11.6 87.7652
17.0911 -11.2305 88.44
11.65 17.7 87.7674
11.279 17.1387 88.44
-11.7041 -17.6306 87.7457
-11.3223 -17.053 88.44
19.2464 11.8855 88.44
3.77829 22.0843 88.44
-3.71139 -22.0719 88.44
-19.1142 -11.9149 88.44
22.2185 -3.47059 88.44
11.8327 -19.1887 88.44
-22.0546 3.93791 88.44
-11.9466 19.1676 88.44
1.74839 -8.66722 108.6
5.00296 -3.73832 108.6
7.19991 -14.3829 100.901
3.95 -19.3 100.904
-8.6844 -1.75052 108.6
-19.3439 -3.89084 100.899
-19.35 -3.9 100.888
22.7866 -14.9954 72.2553
22.7866 -14.9954 72.2553
12.5967 -19.047 87.8211
12.5665 -19.0915 87.8773
5.68934 -29.2262 -132.628
-17.0517 -23.0343 77.04
-16.9583 -23.017 77.04
6.05 21.4 87.761
23.55 -15.5 71.34
26.4434 1.35865 69.44
22.4289 -4.55746 76.6801
25.0379 8.85441 69.44
-23.55 15.6 71.34
-15.0278 -22.6588 79.9203
-15.0278 -22.6588 79.9547
-13.4868 4.71067 -157.6
-10.9474 -8.97995 -157.6
-19.5416 8.92816 -150.01
-22.2297 4.88205 -145.06
15.55 23.6 78.94
15.55 23.6 78.94
22.7866 -14.9954 -140.388
-5.63302 -7.99421 -157.6
-8.62005 5.61338 -157.6
-8.44101 5.64659 -157.6
-21.9082 3.14864 -157.6
-14.2618 -21.4999 81.3381
-16.6844 -24.4781 77.04
5.43442 8.22026 -157.6
8.28862 -5.41197 -157.6
-19.3688 -10.542 -157.6
-18.95 -12.8 -154.341
8.42191 -5.50008 -157.6
11.4192 -19.2654 -157.6
-12.85 19 -144.476
-17.6691 11.7465 -153.13
-14.0905 9.381 -157.6
4.27152 13.561 -157.6
4.74339 22.2633 -154.287
2.46853 21.8413 -157.6
-17.6691 11.7465 -157.6
17.65 -11.6 -157.6
1.01127 16.0422 100.911
-3.93726 19.2916 100.916
-17.0517 -23.0343 -145.06
-15.0094 -22.6553 -148.101
-17.0517 -23.0343 69.44
-16.7806 -24.496 -145.06
-16.1167 -24.3729 -146.049
16.7284 24.4863 77.04
4.74339 22.2633 77.2895
-14.4091 -7.16567 100.897
18.796 -12.3575 77.04
22.4289 -4.55746 69.5178
28.8509 4.9066 87.518
28.8509 4.9066 77.04
-4.75252 -22.265 77.3298
-16.167 -24.3822 77.04
-23.8444 16.8712 69.44
-24.4342 16.7668 69.44
-11.8793 20.4611 -157.6
-12.85 19 -155.768
-15.4109 -24.2419 69.44
-15.4109 -24.2419 77.04
-15.4109 -24.2419 -146.015
5.68934 -29.2262 64.3709
1.60479 -26.5032 69.44
-4.51904 -22.4206 77.04
22.4289 -4.55746 77.04
12.5967 -19.047 77.04
29.45 5.78947 -132.394
22.4289 -4.55746 -145.06
29.45 5.93928 -132.353
16.0531 24.3611 77.04
-5.97631 29.346 56.0724
-23.8643 16.957 69.3118
-24.4493 16.8485 69.3188
-5.97631 29.346 -124.568
-5.97631 29.346 69.44
5.68934 -29.2262 -125.044
5.68934 -29.2262 69.44
23.1783 -17.0843 69.194
23.1783 -17.0843 69.44
23.1783 -17.0843 -137.46
22.9037 -15.6199 -139.574
5.68934 -29.2262 77.04
4.16145 0.903355 111.86
19.35 4 94.9988
14.4543 7.2148 100.898
20.4504 5.66483 92.9695
-3.19177 -4.94068 108.977
0.044999 -0.0529253 108.971
15.429 24.2453 77.04
15.429 24.2453 69.44
15.429 24.2453 -146.152
-5.97631 29.346 63.7482
4.5459 22.3938 77.04
-5.97631 29.346 -132.133
4.07265 0.769215 111.86
16.8047 24.5005 77.04
-16.7806 -24.496 77.04
3.32863 4.9056 108.965
24.7954 -16.7843 69.1938
-5.97631 29.346 77.04
4.74339 22.2633 87.7595
-5.97631 29.346 87.7472
24.693 -16.2556 -138.104
23.55 -15.5 -139.474
-3.9865 -0.997121 111.835
0.0577498 -0.0336707 108.971
0.0676784 25.3526 87.7541
-0.31173 24.781 88.44
-2.92744 20.8405 93.1685
-24.1965 15.4855 -138.576
10.9923 16.7051 88.9597
27.65 5.7 88.9678
-29.3646 -5.85696 55.7621
-22.3435 4.71078 69.44
0.951361 -7.24714 108.6
1.96293 -7.05465 108.6
-24.3049 16.0699 -138.605
3.95 -19.3 96.1477
4.28175 -18.7981 96.5806
3.40948 -18.9427 96.6016
4.90022 -3.24052 108.96
-29.3646 -5.85696 -124.598
2.15899 -8.04538 108.6
0.75194 -0.935091 108.6
4.28315 -18.7959 100.903
-23.5884 2.83698 -157.6
-22.2297 4.88205 -155.052
4.28143 -18.7985 95.5931
-29.3646 -5.85696 69.44
4.22205 -20.6003 94.0518
12.5967 -19.047 87.8767
5.90443 -28.9093 88.0243
-13.9834 17.2941 77.04
16.0294 24.3567 -146.187
-0.633561 0.408374 108.96
-0.308476 -0.586697 108.972
6.79524 3.06131 108.6
12.5967 -19.047 -155.885
16.2832 6.01384 98.6943
11.9955 6.70446 102.681
20.7219 4.26169 93.9912
22.4289 -4.55746 87.6597
-21.3682 6.17874 77.04
16.8047 24.5005 -145.06
-13.1524 -16.6651 87.7545
8.82602 19.5658 -157.6
-12.7793 -16.0922 88.44
-11.2237 19.3017 88.9659
18.977 3.4356 100.892
24.693 -16.2556 69.44
-16.7806 -24.496 69.44
-3.95 19.3 100.9
10.8911 9.55454 97.2967
29.45 5.78947 69.44
10.8911 9.55454 100.901
5.88745 5.4367 107.11
29.45 5.93928 69.44
-1.47049 26.3689 69.44
-4.20674 20.6032 94.0706
-5.99921 29.3115 87.7886
29.2847 6.04847 87.7875
29.45 5.93928 87.588
29.45 5.78947 87.5048
6.43983 -28.1202 88.0125
6.43983 -28.1202 77.04
3.92994 -19.2867 100.928
18.796 -12.3575 77.04
0.891093 0.55861 108.6
29.45 5.78947 77.04
1.69073 2.43225 108.968
29.45 5.93928 77.04
6.15055 12.6675 100.906
-24.4493 16.8485 -137.46
3.14169 5.80398 108.316
28.3841 5.86053 88.44
-29.3646 -5.85696 87.7688
-22.2297 4.88205 87.7749
-9.13318 24.5944 69.44
-12.85 19 76.1414
24.7954 -16.7843 69.44
11.6692 -20.4137 -157.6
-18.8765 12.4575 77.04
8.67592 1.82422 108.6
-24.4493 16.8485 69.44
-22.2297 4.88205 69.6617
5.68934 -29.2262 87.6402
-4.75252 -22.265 87.7035
-23.55 15.6 -139.471
19.35 4 100.891
19.3482 4.00115 100.893
-12.85 19 87.7828
19.0698 12.7976 87.7758
1.16703 -8.28179 108.6
-23.5409 15.5606 -139.53
3.40102 -18.9372 100.927
-23.8643 16.957 -137.46
23.1468 -16.9164 69.44
-23.8643 16.957 69.44
24.7629 -16.6165 69.44
-18.95 -12.8 87.7896
-20.5534 -4.15543 94.1417
13.7724 -17.3144 77.04
-12.85 19 77.04
13.7557 7.67354 100.899
12.5967 -19.047 -157.6
29.45 5.93928 56.4009
-22.2297 4.88205 -157.6
29.45 5.78947 56.4474
-18.95 -12.8 -157.6
12.6689 16.2223 88.44
13.0393 16.7821 87.7689
22.4706 -4.4959 69.44
-21.916 3.1906 88.9665
-29.2948 -5.90349 87.8523
-22.2297 4.88205 77.04
4.74339 22.2633 -157.6
-12.85 19 -157.6
7.66573 11.6725 100.905
18.7237 4.41128 100.894
18.7163 4.41615 95.7624
16.8047 24.5005 69.44
23.4809 -15.5128 -139.574
-4.10745 -0.831518 111.907
22.4289 -4.55746 -157.6
-29.3646 -5.85696 -157.6
29.45 5.78947 -124.728
24.7954 -16.7843 -137.46
-18.6059 -4.39182 95.8876
-5.97631 29.346 -157.6
24.5122 -15.3214 69.44
29.45 5.93928 -124.682
24.7087 -16.3368 -138.107
-4.75252 -22.265 -157.6
24.5122 -15.3214 -138.072
-4.93662 3.24575 108.96
5.68934 -29.2262 -157.6
29.45 5.78947 -157.6
19.0698 12.7976 -157.6
-4.00641 -0.898324 111.907
29.45 5.93928 -157.6
4  494 491 321 323  255 0 0
4  494 492 478 491  255 0 0
4  494 323 103 492  255 0 0
4  490 487 68 255  255 0 0
5  490 435 459 284 487  255 0 0
4  491 478 322 321  255 0 0
5  490 255 215 392 435  255 0 0
6  479 463 281 276 461 380  255 0 0
5  483 470 289 106 348  255 0 0
5  483 311 471 290 470  255 0 0
5  479 129 64 282 463  255 0 0
5  483 348 285 312 311  255 0 0
7  479 380 381 269 88 376 129  255 0 0
6  478 292 120 121 114 322  255 0 0
9  492 400 470 290 288 279 283 292 478  255 0 0
4  492 103 104 400  255 0 0
5  470 400 104 105 289  255 0 0
5  471 291 287 288 290  255 0 0
3  471 311 312  255 0 0
5  471 312 285 286 291  255 0 0
7  461 291 286 85 86 268 381  255 0 0
8  463 213 214 283 280 273 267 281  255 0 0
5  463 282 65 66 213  255 0 0
3  461 381 380  255 0 0
7  461 276 266 274 275 287 291  255 0 0
5  459 292 283 214 284  255 0 0
3  459 435 392  255 0 0
5  487 213 66 67 68  255 0 0
6  459 392 216 119 120 292  255 0 0
4  487 284 214 213  255 0 0
9  431 469 397 91 82 387 221 218 220  255 0 0
5  445 457 354 356 414  255 0 0
5  445 217 218 221 457  255 0 0
4  445 243 219 217  255 0 0
4  431 220 222 242  255 0 0
5  441 307 73 74 234  255 0 0
7  454 225 78 79 383 430 468  255 0 0
4  455 229 22 23  255 0 0
4  454 157 198 225  255 0 0
10  455 23 28 30 227 238 235 401 158 239  255 0 0
4  454 239 158 157  255 0 0
4  441 234 235 238  255 0 0
4  355 301 110 258  255 0 0
5  446 99 425 416 415  255 0 0
3  27 360 35  255 117 0
5  446 210 112 113 99  255 0 0
6  27 26 185 186 156 360  255 117 0
6  413 24 22 229 467 402  255 0 0
5  446 236 464 465 210  255 0 0
5  355 258 223 224 237  255 0 0
12  413 363 237 224 233 365 54 53 52 51 25 24  255 0 0
6  396 319 168 124 125 230  255 0 0
3  385 253 254  255 0 0
7  385 230 125 126 456 320 253  255 0 0
4  446 415 429 236  255 0 0
4  413 402 243 202  255 0 0
4  445 414 202 243  255 0 0
6  440 336 318 72 307 441  255 0 0
5  440 386 418 419 336  255 0 0
6  441 238 227 384 386 440  255 0 0
7  94 433 457 221 387 92 93  255 0 0
6  94 95 325 346 329 432  255 0 0
4  438 327 326 452  255 235 0
4  89 88 364 189  255 235 0
7  89 439 469 431 430 383 368  255 0 0
4  89 19 90 439  255 0 0
7  438 310 189 364 371 427 327  255 235 0
4  94 452 326 95  255 235 0
4  94 93 309 452  255 235 0
4  89 189 17 19  255 235 0
4  438 452 309 310  255 235 0
4  122 114 488 484  156 255 0
5  122 304 261 260 466  255 0 0
4  434 353 332 333  156 255 0
5  116 320 456 127 128  255 0 0
5  116 115 226 316 331  255 0 0
7  434 453 404 357 486 481 353  156 255 0
4  122 15 123 304  255 0 0
4  116 333 332 115  156 255 0
4  434 333 451 453  156 255 0
4  116 128 451 333  156 255 0
6  122 484 404 14 12 15  156 255 0
7  431 242 467 229 455 468 430  255 0 0
4  83 95 326 450  255 235 0
4  83 285 348 328  255 0 0
3  381 268 269  255 0 0
5  83 84 85 286 285  255 0 0
4  427 450 326 327  255 235 0
5  427 371 448 442 450  255 235 0
4  83 450 442 84  255 235 0
4  417 423 306 305  255 0 0
4  416 425 423 417  255 0 0
6  395 340 205 236 429 183  255 0 0
5  396 192 305 306 319  255 0 0
4  396 240 191 192  255 0 0
6  417 305 184 429 415 416  255 0 0
5  395 183 366 143 190  255 0 0
4  408 423 425 411  255 0 0
4  408 462 466 260  255 0 0
5  411 425 99 98 262  255 0 0
4  411 460 462 408  255 0 0
5  100 101 460 411 262  255 0 0
5  100 98 99 350 475  39 255 0
3  100 262 98  255 0 0
6  408 260 261 319 306 423  255 0 0
5  122 466 462 480 114  255 0 0
6  405 351 278 308 314 313  0 255 78
4  405 298 295 297  0 255 78
6  79 78 256 351 405 297  0 255 78
4  79 80 367 383  255 0 0
6  71 70 69 68 315 313  0 255 78
4  71 72 318 317  255 0 0
4  71 313 314 72  0 255 78
5  405 313 315 299 298  0 255 78
6  79 297 295 64 81 80  0 255 78
4  102 103 323 485  255 0 0
6  102 101 100 475 398 103  39 255 0
4  485 460 101 102  255 0 0
4  485 323 321 480  255 0 0
4  480 321 322 114  255 0 0
4  480 462 460 485  255 0 0
5  404 453 451 16 14  156 255 0
4  404 484 488 357  156 255 0
6  96 108 107 106 345 344  39 255 0
4  96 109 347 412  255 0 0
6  475 350 300 324 343 344  39 255 0
5  475 344 345 388 398  39 255 0
4  96 344 343 109  39 255 0
4  398 388 104 103  39 255 0
4  384 227 30 29  255 0 0
6  35 197 375 245 378 0  0 255 196
4  35 37 46 197  0 255 196
5  395 159 40 57 340  255 0 0
3  384 29 228  255 0 0
4  385 241 231 230  255 0 0
4  396 230 231 240  255 0 0
9  395 190 144 206 228 29 36 40 159  255 0 0
3  392 215 216  255 0 0
5  120 119 476 358 272  156 255 0
4  357 358 476 486  156 255 0
4  68 69 330 255  255 0 0
5  68 67 296 299 315  0 255 78
4  106 107 328 348  255 0 0
3  106 289 105  255 0 0
5  104 388 345 106 105  39 255 0
8  386 384 228 206 241 385 254 418  255 0 0
3  383 367 368  255 0 0
5  89 368 367 376 88  255 0 0
5  88 269 268 86 87  255 0 0
4  376 367 80 81  255 0 0
4  375 197 46 47  0 255 196
7  375 47 62 61 60 246 245  0 255 196
5  86 85 84 442 448  255 235 0
5  88 87 448 371 364  255 235 0
3  86 448 87  255 235 0
4  189 310 309 17  255 235 0
4  336 331 317 318  255 0 0
6  35 360 156 153 187 37  255 117 0
5  119 216 215 117 118  255 0 0
4  117 115 332 334  156 255 0
4  117 215 255 330  255 0 0
4  481 334 332 353  156 255 0
5  486 476 335 334 481  156 255 0
4  117 334 335 118  156 255 0
4  119 118 335 476  156 255 0
3  13 128 127  255 0 0
4  13 16 451 128  156 255 0
4  455 239 454 468  255 0 0
6  358 357 488 114 121 272  156 255 0
3  120 272 121  156 255 0
7  356 354 347 109 301 355 361  255 0 0
4  354 329 412 347  255 0 0
3  18 93 92  255 0 0
4  17 309 93 18  255 235 0
3  331 316 317  255 0 0
5  331 336 419 320 116  255 0 0
4  330 226 115 117  255 0 0
4  226 330 69 70  255 0 0
7  60 59 58 40 36 382 246  0 255 196
4  352 424 201 21  255 117 0
5  352 20 163 161 424  255 117 0
3  352 21 20  255 117 0
5  78 225 198 76 77  255 0 0
4  72 5 73 307  255 0 0
4  78 77 257 256  0 255 78
4  351 256 257 278  0 255 78
5  72 314 308 4 5  0 255 78
4  109 8 110 301  255 0 0
4  350 99 113 300  39 255 0
5  109 343 324 11 8  39 255 0
4  349 149 148 337  255 117 0
3  349 150 149  255 117 0
6  60 61 164 196 139 142  255 117 0
7  349 337 437 140 196 151 150  255 117 0
5  346 325 108 96 412  255 0 0
3  346 412 329  255 0 0
6  27 342 390 174 173 1  0 196 255
3  27 35 342  0 196 255
3  36 29 41  0 196 255
8  35 0 39 38 3 341 390 342  0 196 255
5  341 2 208 174 390  0 196 255
3  341 3 2  0 196 255
5  302 2 3 45 44  0 196 255
9  44 43 42 41 29 30 28 482 302  0 196 255
6  340 57 56 55 204 205  255 0 0
3  40 338 57  255 117 0
5  339 394 410 409 458  255 117 0
3  293 426 428  255 117 0
5  293 188 52 53 426  255 117 0
8  339 458 407 56 57 338 474 393  255 117 0
3  25 51 211  255 117 0
6  337 148 147 152 137 437  255 117 0
5  320 419 418 254 253  255 0 0
5  71 317 316 226 70  255 0 0
5  44 45 132 193 194  0 255 196
5  329 354 457 433 432  255 0 0
3  94 432 433  255 0 0
4  328 325 95 83  255 0 0
4  325 328 107 108  255 0 0
4  232 465 464 233  255 0 0
3  232 223 111  255 0 0
6  324 300 113 10 9 11  39 255 0
5  232 111 112 210 465  255 0 0
5  319 261 304 123 168  255 0 0
4  125 124 303 421  0 78 255
3  125 421 126  0 78 255
3  28 23 31  39 0 255
4  27 1 34 389  39 0 255
3  493 176 359  0 196 255
5  493 477 177 172 176  0 196 255
6  493 359 181 207 248 477  0 196 255
5  27 389 489 48 26  39 0 255
4  489 389 34 33  39 0 255
5  489 33 32 49 48  39 0 255
3  24 25 50  39 0 255
7  32 31 23 22 24 50 49  39 0 255
5  293 428 21 200 294  255 117 0
5  477 248 182 178 177  0 196 255
5  32 33 182 248 249  0 196 255
4  81 64 129 376  255 0 0
4  469 439 90 397  255 0 0
3  82 91 436  156 0 255
3  82 92 387  255 0 0
5  82 436 263 203 92  156 0 255
5  308 278 257 6 4  0 255 78
4  234 399 401 235  255 0 0
4  234 74 75 399  255 0 0
3  126 127 456  255 0 0
6  421 251 259 195 127 126  0 78 255
4  399 157 158 401  255 0 0
5  399 75 63 198 157  255 0 0
3  74 277 75  255 0 235
3  91 397 90  255 0 0
4  91 90 263 436  156 0 255
4  111 97 271 270  255 0 117
5  223 258 110 97 111  255 0 0
4  223 232 233 224  255 0 0
4  74 73 265 277  255 0 235
4  236 205 204 464  255 0 0
4  240 144 143 191  255 0 0
4  429 184 366 183  255 0 0
4  421 303 252 251  0 78 255
5  420 244 377 379 247  0 255 196
4  420 449 447 244  0 255 196
5  420 247 372 374 449  0 255 196
3  44 194 43  0 255 196
4  355 237 362 361  255 0 0
5  356 361 362 202 414  255 0 0
4  413 202 362 363  255 0 0
4  305 192 191 184  255 0 0
4  184 191 143 366  255 0 0
3  124 168 123  255 0 0
4  303 124 123 252  0 78 255
5  302 209 207 131 2  0 196 255
5  28 31 250 209 482  0 196 255
3  302 482 209  0 196 255
4  97 110 212 271  255 0 117
3  113 112 10  255 0 0
3  111 270 112  255 0 117
5  60 142 138 165 59  255 117 0
5  40 58 165 169 338  255 117 0
3  64 65 282  255 0 0
3  66 296 67  0 255 78
4  299 296 295 298  0 255 78
5  64 295 296 66 65  0 255 78
5  294 200 48 49 406  255 117 0
7  294 406 50 25 211 188 293  255 117 0
4  283 279 275 280  255 0 0
4  287 275 279 288  255 0 0
4  280 275 274 273  255 0 0
4  281 267 266 276  255 0 0
4  77 7 6 257  0 255 78
3  277 265 264  255 0 235
3  77 76 7  255 0 0
6  277 264 199 76 63 75  255 0 235
4  4 6 199 264  255 0 235
4  274 266 267 273  255 0 0
4  12 14 259 251  0 78 255
4  271 212 11 9  255 0 117
5  271 9 10 112 270  255 0 117
5  73 5 4 264 265  255 0 235
5  263 90 19 17 203  156 0 255
4  259 14 16 195  0 78 255
4  127 195 16 13  0 78 255
5  123 15 12 251 252  0 78 255
5  249 248 207 209 250  0 196 255
4  250 31 32 249  0 196 255
4  1 173 175 34  0 196 255
5  33 34 175 179 182  0 196 255
4  2 131 130 208  0 196 255
4  41 42 374 372  0 255 196
4  246 379 377 245  0 255 196
4  247 379 373 372  0 255 196
5  41 372 373 382 36  0 255 196
4  246 382 373 379  0 255 196
3  3 132 45  0 255 196
4  245 377 370 378  0 255 196
5  0 378 370 369 39  0 255 196
4  3 38 133 132  0 255 196
5  244 447 369 370 377  0 255 196
5  241 206 144 240 231  255 0 0
3  237 363 362  255 0 0
6  243 402 467 242 222 219  255 0 0
4  233 464 204 365  255 0 0
3  63 76 198  255 0 0
4  220 217 219 222  255 0 0
3  220 218 217  255 0 0
4  110 8 11 212  255 0 117
4  51 52 188 211  255 117 0
3  208 173 174  0 196 255
6  208 130 180 179 175 173  0 196 255
4  207 180 130 131  0 196 255
3  144 190 143  255 0 0
5  54 55 407 409 472  255 117 0
7  472 409 410 20 21 428 426  255 117 0
4  472 426 53 54  255 117 0
4  54 365 204 55  255 0 0
3  55 56 407  255 117 0
3  458 409 407  255 117 0
4  92 203 17 18  156 0 255
4  449 194 193 447  0 255 196
5  42 43 194 449 374  0 255 196
6  447 193 133 38 39 369  0 255 196
5  444 437 137 136 473  255 117 0
6  443 403 139 140 437 444  255 117 0
6  339 141 136 152 391 394  255 117 0
4  443 135 138 403  255 117 0
5  444 473 134 135 443  255 117 0
4  338 169 170 474  255 117 0
5  339 393 170 134 141  255 117 0
5  20 410 394 391 162  255 117 0
3  47 166 62  255 117 0
3  20 162 163  255 117 0
8  37 187 422 155 146 145 167 46  255 117 0
4  47 46 167 166  255 117 0
4  422 187 153 154  255 117 0
5  424 160 186 185 201  255 117 0
3  424 161 160  255 117 0
3  422 154 155  255 117 0
4  163 155 154 161  255 117 0
5  161 154 153 186 160  255 117 0
3  406 49 50  255 117 0
6  201 185 26 48 200 21  255 117 0
4  199 6 7 76  255 0 235
3  58 59 165  255 117 0
3  196 164 145  255 117 0
3  196 140 139  255 117 0
3  403 142 139  255 117 0
3  403 138 142  255 117 0
5  155 163 162 391 146  255 117 0
3  473 141 134  255 117 0
3  474 170 393  255 117 0
3  473 136 141  255 117 0
3  152 136 137  255 117 0
3  152 146 391  255 117 0
3  207 181 180  0 196 255
3  196 145 151  255 117 0
3  193 132 133  0 255 196
3  186 153 156  255 117 0
4  182 179 171 178  0 196 255
7  359 176 172 171 179 180 181  0 196 255
4  178 171 172 177  0 196 255
4  165 138 135 169  255 117 0
4  169 135 134 170  255 117 0
4  166 164 61 62  255 117 0
4  167 145 164 166  255 117 0
3  152 147 146  255 117 0
7  151 145 146 147 148 149 150  255 117 0
10  128 116 115 117 118 119 120 121 114 13  156 255 0
10  116 128 13 114 121 120 119 118 117 115  255 0 0
7  127 13 15 123 124 125 126  0 78 255
7  13 127 126 125 124 123 15  255 0 0
4  122 15 13 114  156 255 0
4  15 122 114 13  255 0 0
14  113 99 98 100 101 102 103 104 105 106 107 108 96 10  39 255 0
14  99 113 10 96 108 107 106 105 104 103 102 101 100 98  255 0 0
4  112 10 97 111  255 0 117
4  10 112 111 97  255 0 0
4  110 97 10 8  255 0 117
4  97 110 8 10  255 0 0
4  109 8 10 96  39 255 0
4  8 109 96 10  255 0 0
5  95 83 18 93 94  255 235 0
5  83 95 94 93 18  255 0 0
3  92 18 82  156 0 255
3  18 92 82  255 0 0
5  91 82 18 19 90  156 0 255
5  82 91 90 19 18  255 0 0
8  89 19 83 84 85 86 87 88  255 235 0
8  19 89 88 87 86 85 84 83  255 0 0
3  18 83 19  255 235 0
3  83 18 19  255 0 0
7  81 64 7 77 78 79 80  0 255 78
7  64 81 80 79 78 77 7  255 0 0
3  76 7 63  255 0 235
3  7 76 63  255 0 0
6  75 63 7 5 73 74  255 0 235
6  63 75 74 73 5 7  255 0 0
10  72 5 64 65 66 67 68 69 70 71  0 255 78
10  5 72 71 70 69 68 67 66 65 64  255 0 0
3  7 64 5  0 255 78
3  64 7 5  255 0 0
9  62 47 46 37 40 58 59 60 61  0 255 196
9  47 62 61 60 59 58 40 37 46  255 117 0
11  57 40 37 26 25 51 52 53 54 55 56  255 0 0
11  40 57 56 55 54 53 52 51 25 26 37  255 117 0
5  50 25 26 48 49  39 0 255
5  25 50 49 48 26  255 117 0
4  27 26 37 35  255 0 0
4  26 27 35 37  255 117 0
10  45 3 38 39 0 36 41 42 43 44  0 196 255
10  3 45 44 43 42 41 36 0 39 38  0 255 196
4  40 36 0 37  255 0 0
4  36 40 37 0  0 255 196
3  35 37 0  255 0 0
3  37 35 0  0 255 196
4  36 29 1 0  255 0 0
4  29 36 0 1  0 196 255
4  35 0 1 27  255 0 0
4  0 35 27 1  0 196 255
6  34 1 28 31 32 33  39 0 255
6  1 34 33 32 31 28  0 196 255
4  30 28 1 29  255 0 0
4  28 30 29 1  0 196 255
8  28 23 22 24 25 26 27 1  255 0 0
8  23 28 1 27 26 25 24 22  39 0 255
3  19 18 17  156 0 255
3  18 19 17  255 235 0
4  16 14 12 13  0 78 255
4  14 16 13 12  156 255 0
3  15 13 12  0 78 255
3  13 15 12  156 255 0
3  9 10 8  39 255 0
3  10 9 8  255 0 117
3  11 9 8  39 255 0
3  9 11 8  255 0 117
4  7 5 4 6  0 255 78
4  5 7 6 4  255 0 235

