OFF
495 416 0

-4.75252 -22.265 69.1972
-4.75252 -22.265 -137.46
-4.75252 -22.265 69.44
-4.75252 -22.265 77.04
-16.9727 12.7946 77.04
-21.3682 6.17874 69.44
-12.85 19 -137.46
-13.9834 17.2941 69.44
-13.9834 17.2941 -139.586
-17.6691 11.7465 -146.498
-17.7153 11.6769 -146.585
-21.3682 6.17874 -139.69
-22.2297 4.88205 -138.064
-22.2297 4.88205 69.44
-21.3682 6.17874 71.34
-18.4424 10.5826 77.04
-13.9834 17.2941 71.34
-12.9869 18.7939 69.44
-12.85 19 69.44
-12.85 19 69.1789
4.74339 22.2633 69.44
17.3641 13.9246 77.04
6.05 21.4 77.04
11.65 17.7 86.014
19.0698 12.7976 76.8284
19.0698 12.7976 77.04
19.0698 12.7976 69.44
19.0698 12.7976 68.8475
19.0698 12.7976 -137.12
19.0698 12.7976 -145.06
11.65 17.7 -154.143
8.32689 19.8956 -149.993
4.74339 22.2633 -145.519
4.74339 22.2633 -137.46
4.74339 22.2633 68.9667
4.74339 22.2633 77.04
6.05 21.4 78.94
11.65 17.7 86.014
17.3641 13.9246 78.94
18.8989 12.9105 77.04
22.4289 -4.55746 -137.708
13.7724 -17.3144 69.44
21.1758 -6.40412 69.44
12.5967 -19.047 69.1952
12.5967 -19.047 69.44
12.5967 -19.047 -137.46
13.7724 -17.3144 -139.573
17.65 -11.6 -146.543
17.65 -11.6 -146.543
21.1758 -6.40412 -140.025
22.4289 -4.55746 69.44
21.1758 -6.40412 71.8505
18.3881 -10.5123 77.04
17.65 -11.6 77.04
16.8968 -12.7099 77.04
13.7724 -17.3144 71.34
12.7309 -18.8492 69.44
-29.3646 -5.85696 -131.922
-18.95 -12.8 -145.06
-1.81213 -0.899773 108.6
-5.45084 -3.8943 108.6
-1.99828 -6.18326 108.6
-2.63501 -7.70341 106.976
-0.55 -2.80394 108.6
18.7199 4.41378 98.2545
19.35 4 97.7456
9.64423 2.53024 107.475
8.65141 1.84034 108.6
18.978 3.43725 98.2406
10.0475 1.57178 107.316
8.66105 1.8017 108.6
15.4473 6.56269 100.897
16.9847 0.421389 100.893
24.3554 0.713186 88.9674
22.0764 -2.7364 88.9671
7.30977 1.00071 108.6
7.06124 1.99604 108.6
4.52262 1.46916 111.187
4.10464 1.17634 111.663
4.03341 0.761368 111.832
4.09103 0.680164 111.796
5.02127 0.522665 110.933
8.09161 2.20857 108.6
0.692404 0.682037 108.836
0.968151 0.739165 108.635
1.0171 0.749306 108.6
0.506153 0.643451 108.971
-17.3571 -13.8619 87.78
-17.5258 -12.9623 88.44
19.3784 3.98134 94.9645
1.03684 1.44483 108.97
1.39517 1.73972 108.832
4.68653 4.44839 108.6
2.00089 2.23821 108.6
15.0064 -1.1679 101.668
7.53543 0.0969957 108.6
18.9787 3.4382 96.706
16.7459 0.0600639 99.6862
9.68088 -2.26008 105.511
6.59306 -1.33019 108.6
2.36884 -0.0286992 108.6
21.1758 -6.40412 77.04
19.35 4 96.2104
18.7176 4.41524 96.7225
-5.727 -0.64383 110.223
-4.14725 -0.632637 111.762
-0.802772 -0.655637 108.6
-0.635137 -0.654629 108.739
-5.79406 -0.655637 108.6
-3.96729 -0.890161 111.878
-4.14816 -0.631336 111.762
-4.96133 -0.486871 111.004
-7.3191 -0.970209 108.6
-7.07678 -1.99662 108.6
-4.72901 -1.50876 110.995
-1.1306 0.306299 108.6
-8.3009 -1.17272 108.6
27.6415 5.70559 88.978
28.0872 5.41118 88.44
0.694545 1.60036 108.6
0.69118 0.922853 108.97
0.694545 0.26115 108.6
0.818125 16.169 95.0063
0.767091 16.2025 100.62
-23.55 15.6 69.44
-24.1965 15.4855 69.44
20.9797 2.92985 93.035
24.7931 0.425803 88.44
25.4968 -0.0363062 87.592
-0.55 -7.14344 108.6
-0.55 -1.62237 108.6
-0.55 -16.3257 100.92
-0.55 -16.3257 100.436
22.9037 -15.6199 71.34
22.9037 -15.6199 69.44
8.26334 1.19937 108.6
0.59124 -0.399242 108.96
1.08796 -0.29556 108.6
-8.01755 -2.19262 108.6
-0.308476 -0.586697 108.972
-0.828839 -0.694912 108.6
6.79524 3.06131 108.6
16.2832 6.01384 98.6943
11.9955 6.70446 102.681
-21.3682 6.17874 77.04
-13.1524 -16.6651 87.7545
-12.7793 -16.0922 88.44
-11.2237 19.3017 88.9659
-21.916 3.1906 88.9665
18.7237 4.41128 100.894
18.7163 4.41615 95.7624
18.977 3.4356 100.892
18.9791 3.43886 95.6371
-17.3571 -13.8619 84.4108
-17.3571 -13.8619 78.94
-15.6849 -22.7807 77.04
-17.3571 -13.8619 77.04
-15.6849 -22.7807 78.94
-0.0609902 0.462 108.6
-5.03783 3.74347 108.6
-1.7568 8.68674 108.6
3.22352 5.41074 108.6
2.50955 4.33501 108.6
-7.20441 14.3972 100.9
-3.95 19.3 95.017
-3.95 19.3 100.9
10.8911 9.55454 97.2967
10.8911 9.55454 94.9836
10.8911 9.55454 100.901
5.88745 5.4367 107.11
6.43983 -28.1202 88.0125
6.43983 -28.1202 77.04
0.891093 0.55861 108.6
1.69073 2.43225 108.968
6.15055 12.6675 100.906
6.19249 12.6399 94.9942
3.14169 5.80398 108.316
-9.13318 24.5944 69.44
-12.85 19 76.1414
3.77829 22.0843 88.44
-5.81334 28.4085 88.44
-11.9466 19.1676 88.44
5.39923 -3.13818 108.6
0.55771 0.0540611 108.6
3.83248 5.01018 108.6
8.67592 1.82422 108.6
14.4543 7.2148 100.898
19.35 4 94.9988
19.35 4 100.891
19.3482 4.00115 100.893
-0.299973 -1.24398 108.6
1.16703 -8.28179 108.6
3.40102 -18.9372 100.927
3.41133 -18.944 95.6529
13.7724 -17.3144 77.04
-23.55 15.6 71.34
12.3812 15.7875 88.9612
19.387 11.1591 88.9689
13.7557 7.67354 100.899
9.05495 10.7603 94.9878
12.6689 16.2223 88.44
13.0393 16.7821 87.7689
7.66573 11.6725 100.905
7.66573 11.6725 94.9909
11.279 17.1387 88.44
11.1196 -19.321 88.9658
-18.6028 -4.39385 100.889
-18.6059 -4.39182 95.8876
17.3641 13.9246 87.7739
-0.55 17.0674 95.0094
-0.55 17.0674 99.0511
15.55 23.6 77.04
15.55 23.6 78.94
-14.5521 -15.7319 -157.6
9.50018 -10.4521 -157.6
12.5967 -19.047 -144.688
15.7115 -14.4567 -150.127
-12.928 18.8826 87.7827
-15.9939 14.2679 81.8099
-12.3858 18.5059 88.44
-19.3037 9.28621 87.7773
-13.3484 18.2498 77.04
-18.7269 8.95169 88.44
10.235 18.6349 87.7657
9.86335 18.0721 88.44
-18.95 -12.8 86.3334
-15.141 -15.3394 81.7359
5.68934 -29.2262 56.5941
2.93245 -20.8395 93.1396
3.95 -19.3 94.9903
3.96012 -19.3067 94.9903
5.54589 -20.3548 93.0757
-19.35 -3.9 94.9995
-20.7756 -2.95777 93.298
17.65 -11.6 87.7652
17.0911 -11.2305 88.44
11.65 17.7 87.7674
-11.7041 -17.6306 87.7457
-11.3223 -17.053 88.44
19.2464 11.8855 88.44
-3.71139 -22.0719 88.44
-19.1142 -11.9149 88.44
22.2185 -3.47059 88.44
11.8327 -19.1887 88.44
-22.0546 3.93791 88.44
1.74839 -8.66722 108.6
-3.08679 -5.46161 108.6
0.161423 -0.54569 108.6
5.00296 -3.73832 108.6
7.19991 -14.3829 100.901
3.95671 -19.2899 95.0025
3.95 -19.3 95.0025
3.95 -19.3 100.904
-3.71576 -5.04461 108.6
-5.43517 3.14484 108.6
-0.458488 -0.136906 108.6
-8.6844 -1.75052 108.6
-19.35 -3.9 95.02
-16.1076 0.984653 100.899
-19.3439 -3.89084 100.899
-19.35 -3.9 100.888
22.7866 -14.9954 69.44
22.7866 -14.9954 72.2553
22.7866 -14.9954 72.2553
12.5967 -19.047 87.8211
12.5665 -19.0915 87.8773
5.68934 -29.2262 -132.628
-17.0517 -23.0343 77.04
-16.9583 -23.017 77.04
6.05 21.4 87.761
23.55 -15.5 69.44
23.55 -15.5 71.34
26.4434 1.35865 69.44
22.4289 -4.55746 76.6801
25.0379 8.85441 69.44
-23.55 15.6 71.34
-6.52782 -21.0815 77.04
-15.0278 -22.6588 77.04
-15.0278 -22.6588 79.9203
-15.0278 -22.6588 79.9547
-6.52782 -21.0815 79.533
-13.4868 4.71067 -157.6
-10.9474 -8.97995 -157.6
-19.5416 8.92816 -150.01
-22.2297 4.88205 -145.06
15.55 23.6 77.04
15.55 23.6 78.94
15.55 23.6 78.94
-14.0905 9.381 -157.6
-17.6691 11.7465 -153.13
4.74339 22.2633 -154.287
2.46853 21.8413 -157.6
8.42191 -5.50008 -157.6
-17.6691 11.7465 -157.6
17.65 -11.6 -157.6
-3.9367 19.2913 95.017
1.01127 16.0422 100.911
-3.93726 19.2916 100.916
-17.0517 -23.0343 -145.06
-15.0094 -22.6553 -148.101
-17.0517 -23.0343 69.44
-6.52782 -21.0815 -147.7
-11.75 -17.6 -154.143
-16.7806 -24.496 -145.06
-16.1167 -24.3729 -146.049
19.3311 3.97147 94.9988
16.0798 -0.947759 100.894
24.5122 -15.3214 69.44
24.5122 -15.3214 -138.072
16.7284 24.4863 77.04
4.74339 22.2633 77.2895
-14.4091 -7.16567 100.897
-19.3328 -3.91134 95.0199
18.796 -12.3575 77.04
22.4289 -4.55746 69.5178
28.8509 4.9066 87.518
28.8509 4.9066 77.04
-5.97631 29.346 56.0724
-5.97631 29.346 -124.568
-5.97631 29.346 -132.133
-12.85 19 -144.476
-5.97631 29.346 69.44
-1.47049 26.3689 69.44
-4.20674 20.6032 94.0706
-5.99921 29.3115 87.7886
-5.97631 29.346 87.7472
4.74339 22.2633 87.7595
-0.950756 -16.0609 100.919
3.92994 -19.2867 100.928
18.796 -12.3575 77.04
22.4289 -4.55746 77.04
29.45 5.78947 77.04
29.45 5.93928 77.04
28.3841 5.86053 88.44
-11.7041 -17.6306 85.9571
-4.75252 -22.265 77.3298
-18.8765 12.4575 77.04
-22.2297 4.88205 69.6617
23.1468 -16.9164 69.44
24.7629 -16.6165 69.44
-12.85 19 77.04
-5.97631 29.346 77.04
-16.167 -24.3822 77.04
-23.8444 16.8712 69.44
-24.4342 16.7668 69.44
-22.2297 4.88205 77.04
-29.3646 -5.85696 55.7621
-18.95 -12.8 68.4842
-29.3646 -5.85696 -124.598
-18.95 -12.8 -137.211
-4.10745 -0.831518 111.907
-19.3613 -3.91703 94.9995
-3.94122 19.3132 95.0011
-4.93662 3.24575 108.96
0.0416965 -0.036881 108.96
-4.00641 -0.898324 111.907
-11.8793 20.4611 -157.6
-12.85 19 -155.768
-15.4109 -24.2419 69.44
-15.4109 -24.2419 77.04
-15.4109 -24.2419 -146.015
5.68934 -29.2262 64.3709
1.60479 -26.5032 69.44
-4.51904 -22.4206 77.04
12.5967 -19.047 77.04
29.45 5.78947 -132.394
22.4289 -4.55746 -145.06
29.45 5.93928 -132.353
16.0531 24.3611 77.04
-23.8643 16.957 69.3118
-24.4493 16.8485 69.3188
5.68934 -29.2262 -125.044
5.68934 -29.2262 69.44
23.1783 -17.0843 69.194
23.1783 -17.0843 69.44
23.1783 -17.0843 -137.46
22.9037 -15.6199 -139.574
5.68934 -29.2262 77.04
4.16145 0.903355 111.86
19.35 4 94.9646
20.4504 5.66483 92.9695
-3.19177 -4.94068 108.977
0.044999 -0.0529253 108.971
0.0609735 -0.049592 108.96
15.429 24.2453 77.04
15.429 24.2453 69.44
15.429 24.2453 -146.152
-5.97631 29.346 63.7482
4.5459 22.3938 77.04
4.07265 0.769215 111.86
16.8047 24.5005 77.04
-16.7806 -24.496 77.04
-18.95 -12.8 77.04
-4.75252 -22.265 -145.51
-18.95 -12.8 69.44
-29.3646 -5.85696 69.44
-18.95 -12.8 87.7896
-29.2948 -5.90349 87.8523
-20.5534 -4.15543 94.1417
23.4809 -15.5128 -139.574
23.55 -15.5 -139.474
-16.7806 -24.496 69.44
0.75194 -0.935091 108.6
-24.4493 16.8485 69.44
2.15899 -8.04538 108.6
3.32863 4.9056 108.965
22.7866 -14.9954 -140.388
24.693 -16.2556 -138.104
12.5967 -19.047 -155.885
-5.63302 -7.99421 -157.6
-8.62005 5.61338 -157.6
20.7219 4.26169 93.9912
-21.9082 3.14864 -157.6
22.4289 -4.55746 87.6597
24.7954 -16.7843 69.1938
-8.44101 5.64659 -157.6
12.5967 -19.047 87.8767
4.22205 -20.6003 94.0518
16.8047 24.5005 -145.06
8.82602 19.5658 -157.6
-11.75 -17.6 86.014
-14.2618 -21.4999 81.3381
11.6692 -20.4137 -157.6
-18.8632 -12.8579 77.04
-16.6844 -24.4781 77.04
29.45 5.93928 56.4009
29.45 5.78947 56.4474
29.45 5.78947 -124.728
29.45 5.93928 -124.682
-3.9865 -0.997121 111.835
24.7954 -16.7843 -137.46
24.7087 -16.3368 -138.107
29.45 5.78947 69.44
29.45 5.93928 69.44
0.0577498 -0.0336707 108.971
0.0676784 25.3526 87.7541
29.2847 6.04847 87.7875
-0.31173 24.781 88.44
29.45 5.93928 87.588
-2.92744 20.8405 93.1685
29.45 5.78947 87.5048
-24.1965 15.4855 -138.576
10.9923 16.7051 88.9597
-24.4493 16.8485 -137.46
27.65 5.7 88.9678
-22.3435 4.71078 69.44
-22.2297 4.88205 -155.052
0.951361 -7.24714 108.6
1.96293 -7.05465 108.6
-24.3049 16.0699 -138.605
3.95 -19.3 96.1477
-29.3646 -5.85696 87.7688
4.28175 -18.7981 96.5806
-22.2297 4.88205 87.7749
3.40948 -18.9427 96.6016
4.90022 -3.24052 108.96
24.7954 -16.7843 69.44
4.28315 -18.7959 100.903
-23.5884 2.83698 -157.6
-13.9834 17.2941 77.04
16.0294 24.3567 -146.187
5.68934 -29.2262 87.6402
-4.75252 -22.265 87.7035
-0.633561 0.408374 108.96
-12.85 19 87.7828
19.0698 12.7976 87.7758
-15.1627 -15.3249 -149.838
12.5967 -19.047 -157.6
-4.75252 -22.265 -157.6
-22.2297 4.88205 -157.6
-18.95 -12.8 -157.6
22.4706 -4.4959 69.44
-23.55 15.6 -139.471
11.4192 -19.2654 -157.6
5.90443 -28.9093 88.0243
-23.8643 16.957 -137.46
-18.95 -12.8 -154.341
29.45 5.93928 -157.6
-5.97631 29.346 -157.6
16.8047 24.5005 69.44
29.45 5.78947 -157.6
-23.5409 15.5606 -139.53
5.43442 8.22026 -157.6
22.4289 -4.55746 -157.6
4.28143 -18.7985 95.5931
-23.8643 16.957 69.44
24.693 -16.2556 69.44
-29.3646 -5.85696 -157.6
5.68934 -29.2262 -157.6
8.28862 -5.41197 -157.6
19.0698 12.7976 -157.6
-19.3688 -10.542 -157.6
4.74339 22.2633 -157.6
4.27152 13.561 -157.6
-12.85 19 -157.6
4  477 480 365 367  204 0 255
4  477 490 483 480  204 0 255
4  477 367 29 490  204 0 255
4  488 468 393 266  204 0 255
5  488 422 467 473 468  204 0 255
4  480 483 366 365  204 0 255
5  488 266 215 408 422  204 0 255
6  487 470 491 412 469 458  204 0 255
5  478 492 290 32 319  204 0 255
5  478 356 494 291 492  204 0 255
5  487 57 58 476 470  204 0 255
5  478 319 320 357 356  204 0 255
7  487 458 446 284 12 348 57  204 0 255
6  483 294 48 49 40 366  204 0 255
9  490 419 492 291 493 482 292 294 483  204 0 255
4  490 29 30 419  204 0 255
5  492 419 30 31 290  204 0 255
5  494 293 288 493 291  204 0 255
3  494 356 357  204 0 255
5  494 357 320 289 293  204 0 255
7  469 293 289 9 10 283 446  204 0 255
8  470 213 214 292 489 409 282 491  204 0 255
5  470 476 466 302 213  204 0 255
3  469 446 458  204 0 255
7  469 412 281 410 415 288 293  204 0 255
5  467 294 292 214 473  204 0 255
3  467 422 408  204 0 255
5  468 213 302 301 393  204 0 255
6  467 408 216 47 48 294  204 0 255
4  468 473 214 213  204 0 255
9  453 345 144 15 4 459 221 218 220  204 0 255
5  464 340 341 325 324  204 0 255
5  464 217 218 221 340  204 0 255
4  464 181 219 217  204 0 255
4  453 220 222 244  204 0 255
5  462 335 280 334 237  204 0 255
7  396 225 392 394 395 451 397  204 0 255
4  398 233 232 351  204 0 255
4  396 87 153 225  204 0 255
10  398 351 312 229 228 240 238 146 88 241  204 0 255
4  396 241 88 87  204 0 255
4  462 237 238 240  204 0 255
4  326 310 36 269  204 0 255
5  465 25 332 438 436  204 0 255
3  354 434 383  204 0 255
5  465 208 38 39 25  204 0 255
6  354 158 119 120 86 434  204 0 255
6  323 352 232 233 148 147  204 0 255
5  465 239 200 201 208  204 0 255
5  326 269 223 224 179  204 0 255
12  323 439 179 224 204 442 203 175 122 209 295 352  204 0 255
6  413 330 101 52 53 234  204 0 255
3  416 264 265  204 0 255
7  416 234 53 54 194 364 264  204 0 255
4  465 436 333 239  204 0 255
4  323 147 181 180  204 0 255
4  464 324 180 181  204 0 255
6  461 377 363 3 335 462  204 0 255
5  461 474 170 171 377  204 0 255
6  462 240 228 417 474 461  204 0 255
7  18 178 340 221 459 16 17  204 0 255
6  18 19 317 387 321 177  204 0 255
4  403 370 369 485  0 255 102
4  13 12 441 125  0 255 102
7  13 337 345 453 451 395 445  204 0 255
4  13 5 14 337  204 0 255
7  403 344 125 441 449 443 370  0 255 102
4  18 485 369 19  0 255 102
4  18 17 343 485  0 255 102
4  13 125 124 5  0 255 102
4  403 485 343 344  0 255 102
4  50 40 308 307  255 0 0
5  50 314 273 272 471  204 0 255
4  456 414 373 374  255 0 0
5  44 364 194 55 56  204 0 255
5  44 43 227 361 372  204 0 255
7  456 339 486 407 431 430 414  255 0 0
4  50 42 51 314  204 0 255
4  44 374 373 43  255 0 0
4  456 374 338 339  255 0 0
4  44 56 338 374  255 0 0
6  50 307 486 270 261 42  255 0 0
7  453 244 148 233 398 397 451  204 0 255
4  6 19 369 475  0 255 102
4  6 320 319 318  204 0 255
3  446 283 284  204 0 255
5  6 8 9 289 320  204 0 255
4  443 475 369 370  0 255 102
5  443 449 481 472 475  0 255 102
4  6 475 472 8  0 255 102
4  440 331 316 315  204 0 255
4  438 332 331 440  204 0 255
6  411 380 197 239 333 117  204 0 255
5  413 128 315 316 330  204 0 255
4  413 242 127 128  204 0 255
6  440 315 118 333 436 438  204 0 255
5  411 117 444 73 126  204 0 255
4  432 331 332 433  204 0 255
4  432 426 471 272  204 0 255
5  433 332 25 24 274  204 0 255
4  433 425 426 432  204 0 255
5  26 27 425 433 274  204 0 255
5  26 24 25 390 479  203 255 0
3  26 274 24  204 0 255
6  432 272 273 330 316 331  204 0 255
5  50 471 426 427 40  204 0 255
6  401 391 424 342 359 358  0 102 255
4  401 303 298 300  0 102 255
6  394 392 267 391 401 300  0 102 255
4  394 347 346 395  204 0 255
6  2 0 1 393 360 358  0 102 255
4  2 3 363 362  204 0 255
4  2 358 359 3  0 102 255
5  401 358 360 304 303  0 102 255
6  394 300 298 58 349 347  0 102 255
4  28 29 367 428  204 0 255
6  28 27 26 479 418 29  203 255 0
4  428 425 27 28  204 0 255
4  428 367 365 427  204 0 255
4  427 365 366 40  204 0 255
4  427 426 425 428  204 0 255
5  486 339 338 134 270  255 0 0
4  486 307 308 407  255 0 0
6  20 34 33 32 386 385  203 255 0
4  20 35 388 322  204 0 255
6  479 390 309 368 384 385  203 255 0
5  479 385 386 460 418  203 255 0
4  20 385 384 35  203 255 0
4  418 460 30 29  203 255 0
4  417 228 229 230  204 0 255
6  383 136 455 248 402 247  204 0 255
4  383 183 137 136  204 0 255
5  411 89 305 379 380  204 0 255
3  417 230 231  204 0 255
4  416 243 235 234  204 0 255
4  413 234 235 242  204 0 255
9  411 126 74 205 231 230 250 305 89  204 0 255
3  408 215 216  204 0 255
5  48 47 399 400 406  255 0 0
4  407 400 399 431  255 0 0
4  393 1 371 266  204 0 255
5  393 301 299 304 360  0 102 255
4  32 33 318 319  204 0 255
3  32 290 31  204 0 255
5  30 460 386 32 31  203 255 0
8  474 417 231 205 243 416 265 170  204 0 255
3  395 346 445  204 0 255
5  13 445 346 348 12  204 0 255
5  12 284 283 10 11  204 0 255
4  348 346 347 349  204 0 255
4  455 136 137 182  204 0 255
7  455 182 98 94 306 249 248  204 0 255
5  10 9 8 472 481  0 255 102
5  12 11 481 449 441  0 255 102
3  10 481 11  0 255 102
4  125 344 343 124  0 255 102
4  377 372 362 363  204 0 255
6  383 434 86 83 121 183  204 0 255
5  47 216 215 45 46  204 0 255
4  45 43 373 375  255 0 0
4  45 215 266 371  204 0 255
4  430 375 373 414  255 0 0
5  431 399 376 375 430  255 0 0
4  45 375 376 46  255 0 0
4  47 46 376 399  255 0 0
3  41 56 55  204 0 255
4  41 134 338 56  255 0 0
4  398 241 396 397  204 0 255
6  400 407 308 40 49 406  255 0 0
3  48 406 49  255 0 0
7  325 341 388 35 310 326 435  204 0 255
4  341 321 322 388  204 0 255
3  7 17 16  204 0 255
4  124 343 17 7  0 255 102
3  372 361 362  204 0 255
5  372 377 171 364 44  204 0 255
4  371 227 43 45  204 0 255
4  227 371 1 0  204 0 255
7  306 97 152 305 250 484 249  204 0 255
4  405 173 162 161  204 0 255
5  405 184 93 91 173  204 0 255
8  405 161 176 174 202 168 169 184  204 0 255
5  392 225 153 154 423  204 0 255
4  3 276 280 335  204 0 255
4  392 423 268 267  0 102 255
4  391 267 268 424  0 102 255
5  3 359 342 277 276  0 102 255
4  35 22 36 310  204 0 255
4  390 25 39 309  203 255 0
5  35 384 368 211 22  203 255 0
4  389 79 78 378  204 0 255
3  389 80 79  204 0 255
6  306 94 95 135 69 72  204 0 255
7  389 378 185 70 135 81 80  204 0 255
5  387 317 34 20 322  204 0 255
3  387 322 321  204 0 255
6  354 382 139 107 106 255  204 0 255
3  354 383 382  204 0 255
3  250 230 251  204 0 255
8  383 247 190 130 246 381 139 382  204 0 255
5  381 253 140 107 139  204 0 255
6  381 246 62 327 311 253  204 0 255
9  327 132 193 251 230 229 312 207 311  204 0 255
6  380 379 167 199 196 197  204 0 255
3  305 187 379  204 0 255
5  186 143 169 168 198  204 0 255
3  296 174 176  204 0 255
5  296 123 122 175 174  204 0 255
8  186 198 166 167 379 187 150 142  204 0 255
3  295 209 210  204 0 255
6  378 78 77 82 67 185  204 0 255
5  364 171 170 265 264  204 0 255
5  2 362 361 227 0  204 0 255
5  327 62 61 129 131  204 0 255
5  321 341 340 178 177  204 0 255
3  18 177 178  204 0 255
4  318 317 19 6  204 0 255
4  317 318 33 34  204 0 255
4  236 201 200 204  204 0 255
3  236 223 37  204 0 255
6  368 309 39 21 285 211  203 255 0
5  236 37 38 208 201  204 0 255
5  330 273 314 51 101  204 0 255
4  53 52 313 329  255 0 0
3  53 329 54  255 0 0
3  312 351 257  204 0 255
4  354 255 115 463  204 0 255
3  355 109 429  204 0 255
5  355 350 110 105 109  204 0 255
6  355 429 114 138 256 350  204 0 255
5  354 463 353 159 158  204 0 255
4  353 463 115 254  204 0 255
5  353 254 258 163 159  204 0 255
3  352 295 164  204 0 255
7  258 257 351 232 352 164 163  204 0 255
5  296 176 161 160 297  204 0 255
5  350 256 116 111 110  204 0 255
5  258 254 116 256 259  204 0 255
4  349 58 57 348  204 0 255
4  345 337 14 144  204 0 255
3  4 15 336  0 255 102
3  4 16 459  204 0 255
5  4 336 275 195 16  0 255 102
5  342 424 268 155 277  0 102 255
4  237 145 146 238  204 0 255
4  237 334 420 145  204 0 255
3  54 55 194  204 0 255
6  329 262 271 133 55 54  255 0 0
4  145 87 88 146  204 0 255
5  145 420 226 153 87  204 0 255
3  334 421 420  0 102 255
3  15 144 14  204 0 255
4  15 14 275 336  0 255 102
4  37 23 287 286  203 255 0
5  223 269 36 23 37  204 0 255
4  223 236 204 224  204 0 255
4  334 280 279 421  0 102 255
4  239 197 196 200  204 0 255
4  242 74 73 127  204 0 255
4  333 118 444 117  204 0 255
4  329 313 263 262  255 0 0
5  328 245 404 457 252  204 0 255
4  328 192 191 245  204 0 255
5  328 252 450 454 192  204 0 255
3  327 131 132  204 0 255
4  326 179 437 435  204 0 255
5  325 435 437 180 324  204 0 255
4  323 180 437 439  204 0 255
4  315 128 127 118  204 0 255
4  118 127 73 444  204 0 255
3  52 101 51  204 0 255
4  313 52 51 263  255 0 0
5  311 206 138 60 253  204 0 255
5  312 257 260 206 207  204 0 255
3  311 207 206  204 0 255
4  23 36 212 287  203 255 0
3  39 38 21  204 0 255
3  37 286 38  203 255 0
5  306 72 68 96 97  204 0 255
5  305 152 96 102 187  204 0 255
3  58 466 476  204 0 255
3  302 299 301  0 102 255
4  304 299 298 303  0 102 255
5  58 298 299 302 466  0 102 255
5  297 160 159 163 165  204 0 255
7  297 165 164 295 210 123 296  204 0 255
4  292 482 415 489  204 0 255
4  288 415 482 493  204 0 255
4  489 415 410 409  204 0 255
4  491 282 281 412  204 0 255
4  423 156 155 268  0 102 255
3  421 279 278  0 102 255
3  423 154 156  204 0 255
6  421 278 157 154 226 420  0 102 255
4  277 155 157 278  0 102 255
4  410 281 282 409  204 0 255
4  261 270 271 262  255 0 0
4  287 212 211 285  203 255 0
5  287 285 21 38 286  203 255 0
5  280 276 277 278 279  0 102 255
5  275 14 5 124 195  0 255 102
4  271 270 134 133  255 0 0
4  55 133 134 41  255 0 0
5  51 42 261 262 263  255 0 0
5  259 256 138 206 260  204 0 255
4  260 257 258 259  204 0 255
4  255 106 108 115  204 0 255
5  254 115 108 112 116  204 0 255
4  253 60 59 140  204 0 255
4  251 193 454 450  204 0 255
4  249 457 404 248  204 0 255
4  252 457 452 450  204 0 255
5  251 450 452 484 250  204 0 255
4  249 484 452 457  204 0 255
3  246 61 62  204 0 255
4  248 404 448 402  204 0 255
5  247 402 448 447 190  204 0 255
4  246 130 63 61  204 0 255
5  245 191 447 448 404  204 0 255
5  243 205 74 242 235  204 0 255
3  179 439 437  204 0 255
6  181 147 148 244 222 219  204 0 255
4  204 200 196 442  204 0 255
3  226 154 153  204 0 255
4  220 217 219 222  204 0 255
3  220 218 217  204 0 255
4  36 22 211 212  203 255 0
4  209 122 123 210  204 0 255
3  140 106 107  204 0 255
6  140 59 113 112 108 106  204 0 255
4  138 113 59 60  204 0 255
3  74 126 73  204 0 255
5  203 199 166 168 202  204 0 255
4  202 174 175 203  204 0 255
4  203 442 196 199  204 0 255
3  199 167 166  204 0 255
3  198 168 166  204 0 255
4  16 195 124 7  0 255 102
4  192 131 129 191  204 0 255
5  193 132 131 192 454  204 0 255
6  191 129 63 130 190 447  204 0 255
5  189 185 67 66 149  204 0 255
6  188 151 69 70 185 189  204 0 255
6  186 71 66 82 141 143  204 0 255
4  188 65 68 151  204 0 255
5  189 149 64 65 188  204 0 255
4  187 102 103 150  204 0 255
5  186 142 103 64 71  204 0 255
5  184 169 143 141 92  204 0 255
3  182 99 98  204 0 255
3  184 92 93  204 0 255
8  183 121 172 85 76 75 100 137  204 0 255
4  182 137 100 99  204 0 255
4  172 121 83 84  204 0 255
5  173 90 120 119 162  204 0 255
3  173 91 90  204 0 255
3  172 84 85  204 0 255
4  93 85 84 91  204 0 255
5  91 84 83 120 90  204 0 255
3  165 163 164  204 0 255
6  162 119 158 159 160 161  204 0 255
4  157 155 156 154  0 102 255
3  152 97 96  204 0 255
3  135 95 75  204 0 255
3  135 70 69  204 0 255
3  151 72 69  204 0 255
3  151 68 72  204 0 255
5  85 93 92 141 76  204 0 255
3  149 71 64  204 0 255
3  150 103 142  204 0 255
3  149 66 71  204 0 255
3  82 66 67  204 0 255
3  82 76 141  204 0 255
3  138 114 113  204 0 255
3  135 75 81  204 0 255
3  129 61 63  204 0 255
3  120 83 86  204 0 255
4  116 112 104 111  204 0 255
7  429 109 105 104 112 113 114  204 0 255
4  111 104 105 110  204 0 255
4  96 68 65 102  204 0 255
4  102 65 64 103  204 0 255
4  99 95 94 98  204 0 255
4  100 75 95 99  204 0 255
3  82 77 76  204 0 255
7  81 75 76 77 78 79 80  204 0 255
10  56 44 43 45 46 47 48 49 40 41  255 0 0
10  44 56 41 40 49 48 47 46 45 43  204 0 255
7  55 41 42 51 52 53 54  255 0 0
7  41 55 54 53 52 51 42  204 0 255
4  50 42 41 40  255 0 0
4  42 50 40 41  204 0 255
14  39 25 24 26 27 28 29 30 31 32 33 34 20 21  203 255 0
14  25 39 21 20 34 33 32 31 30 29 28 27 26 24  204 0 255
4  38 21 23 37  203 255 0
4  21 38 37 23  204 0 255
4  36 23 21 22  203 255 0
4  23 36 22 21  204 0 255
4  35 22 21 20  203 255 0
4  22 35 20 21  204 0 255
5  19 6 7 17 18  0 255 102
5  6 19 18 17 7  204 0 255
3  16 7 4  0 255 102
3  7 16 4  204 0 255
6  15 4 7 6 5 14  0 255 102
6  4 15 14 5 6 7  204 0 255
8  13 5 6 8 9 10 11 12  0 255 102
8  5 13 12 11 10 9 8 6  204 0 255
7  349 58 156 423 392 394 347  0 102 255
7  58 349 347 394 392 423 156  204 0 255
3  154 156 226  0 102 255
3  156 154 226  204 0 255
7  420 226 156 58 276 280 334  0 102 255
7  226 420 334 280 276 58 156  204 0 255
10  3 276 58 466 302 301 393 1 0 2  0 102 255
10  276 3 2 0 1 393 301 302 466 58  204 0 255

