OFF
763 673 0

-13.8225 -22.1191 -130.696
-15.1453 -24.4777 -130.696
-15.1453 -24.4777 -119.089
2.65131 7.25563 39.8184
1.31861 4.87928 39.8184
-6.53982 -9.13319 39.8184
29.4895 -35.0817 39.8184
71.1698 -39.0577 39.8184
71.0702 -35.4696 39.8184
3.8107 9.32295 39.8184
49.4439 -15.8404 39.8184
-10.6008 17.4054 39.8184
38.9091 -34.6247 39.8184
67.2739 -42.2388 39.8184
46.1881 -38.7074 39.8184
53.3476 -42.723 39.8184
56.7398 -44.6256 39.8184
60.934 -46.9781 39.8184
62.0708 -47.6157 39.8184
63.7349 -48.5491 39.8184
6.92454 12.7641 108.991
6.92454 12.7641 112.097
4.89451 9.14438 108.991
1.19636 4.66129 114.199
-9.13335 10.4545 114.199
-13.8225 -22.1191 -119.089
1.19636 4.66129 115.328
-3.88966 -4.40765 114.199
-3.88966 -4.40765 115.328
-66.1088 4.10664 -119.089
-35.0853 48.8377 -118.734
-67.3839 1.83339 -119.089
-67.3839 1.83339 -116.471
84.7578 -14.8287 -130.696
-66.1088 4.10664 -116.471
84.7578 -14.8287 -119.089
83.2453 -17.5257 -119.089
83.2453 -17.5257 -130.696
67.2739 -42.2388 -4.09274
63.7349 -48.5491 -4.09274
65.3415 -49.4502 -4.09274
68.8804 -43.1398 -4.09274
-5.7352 26.0811 -83.6525
-5.7352 26.0811 -85.5033
67.0251 -50.3945 -4.09274
70.5641 -44.0841 -4.09274
-36.9083 45.5872 -85.5033
-36.9083 45.5872 -83.6525
33.0994 -17.2397 128.32
31.6443 -19.8343 128.32
38.9091 -34.6247 116.828
31.6443 -19.8343 130.702
42.4475 -28.3155 116.828
33.0994 -17.2397 130.702
49.7266 -32.3978 116.828
46.1881 -38.7074 116.828
63.6994 -24.2648 116.828
38.9091 -34.6247 112.097
37.3278 -23.0218 128.32
46.1881 -38.7074 112.097
38.7829 -20.4272 128.32
38.7829 -20.4272 130.702
37.3278 -23.0218 130.702
56.8863 -36.4132 116.828
53.3476 -42.723 116.828
49.7266 -32.3978 122.441
8.0549 -3.19418 128.32
6.59981 -5.78872 128.32
-16.0117 33.7375 -85.5033
-36.9639 45.4879 -85.5033
-36.9639 45.4879 -83.6525
-16.0117 33.7375 -83.6525
6.59981 -5.78872 126.328
43.481 -26.4727 126.328
8.0549 -3.19418 126.328
-6.53982 -9.13319 -81.0327
3.8107 9.32295 -85.5033
-8.98979 -13.5018 -83.6525
-16.8193 32.2975 -83.6525
-6.53982 -9.13319 -83.6525
-16.8193 32.2975 -85.5033
11.3624 22.7884 -119.089
2.8081 -6.08455 116.828
-15.9561 33.8366 -85.5033
2.8081 -6.08455 122.441
6.60639 0.688544 122.441
6.60639 0.688544 116.828
11.8341 10.0107 112.097
2.8081 -6.08455 114.199
11.8341 10.0107 108.991
-6.53982 -9.13319 -85.5033
6.02385 13.2693 108.991
6.60639 0.688544 114.199
-52.3416 34.3708 -61.1087
-52.3416 34.3708 -65.7028
-49.4338 32.7401 -65.7028
-3.00252 -2.82578 116.828
-49.4338 32.7401 -61.1087
12.8748 25.4853 -130.696
12.8748 25.4853 -119.089
-58.8569 6.45028 -85.5033
11.3624 22.7884 -130.696
-37.9051 -5.30018 -85.5033
-37.9051 -5.30018 -83.6525
6.51625 14.1473 -130.696
-58.8569 6.45028 -83.6525
3.99384 9.64951 -130.696
3.8107 9.32295 -130.696
-6.53982 -9.13319 -130.696
-11.1535 -0.333784 115.328
-11.1535 -0.333784 114.199
-8.98979 -13.5018 -130.696
-6.06743 8.73501 114.199
-6.06743 8.73501 115.328
-64.787 6.4632 -116.471
-64.787 6.4632 -119.089
-13.8225 -22.1191 -115.062
-13.8225 -22.1191 -104.588
9.20654 -7.25064 126.328
9.20654 -7.25064 128.32
-46.8865 44.0977 -65.7028
-13.8225 -22.1191 -91.0805
10.6617 -4.65613 128.32
-46.8865 44.0977 -67.284
-13.8225 -22.1191 -85.5033
10.6617 -4.65613 126.328
-6.0582 -29.5745 -119.089
-8.98979 -13.5018 -85.5033
-4.7352 -27.2155 -119.089
-4.7352 -27.2155 -115.062
-6.0582 -29.5745 -115.062
-84.8393 11.6229 -116.471
-83.564 13.8969 -116.471
-84.8393 11.6229 -119.089
-14.8023 -24.6701 -115.062
-14.8023 -24.6701 -119.089
-66.1088 4.10664 -130.696
-13.4795 -22.3114 -119.089
3.8107 9.32295 -81.0327
-67.3839 1.83339 -130.696
-13.4795 -22.3114 -115.062
3.8107 9.32295 -83.6525
3.99384 9.64951 -85.5033
6.51625 14.1473 -85.5033
-84.8393 11.6229 -130.696
8.67619 17.9987 -85.5033
-19.4676 1.59529 -81.0327
11.3624 22.7884 -85.5033
-19.4676 1.59529 -83.6525
11.3624 22.7884 -91.0805
-83.564 13.8969 -119.089
-36.1365 49.4272 -118.734
-36.4886 48.7993 -118.734
74.2701 -29.7637 -4.09274
-36.4886 48.7993 -85.5033
74.0869 -30.0905 -4.09274
-36.1365 49.4272 -85.5033
75.6934 -30.9915 -4.09274
75.8767 -30.6647 -4.09274
77.3773 -31.9358 -4.09274
77.5605 -31.6091 -4.09274
9.10962 5.15231 114.199
-57.2423 43.9927 -57.9254
10.8817 4.15848 114.199
39.2742 -17.635 122.441
10.8817 4.15848 112.097
42.29 -12.2576 122.441
9.10962 5.15231 112.097
-2.7786 -16.0467 108.991
11.3931 5.07045 114.199
49.8419 1.20793 -119.089
-2.7786 -16.0467 112.097
11.3931 5.07045 112.097
71.2513 -10.7991 -119.089
29.8897 -34.3681 112.097
72.7638 -8.10214 -119.089
29.8897 -34.3681 108.991
-37.0102 -3.70447 -83.6525
-37.0102 -3.70447 -85.5033
72.7638 -8.10214 -130.696
62.7352 -54.0974 -119.089
-49.5922 39.2732 -61.1087
-59.9418 20.8191 -61.1087
-46.6845 37.6424 -65.7028
-57.0341 19.1882 -65.7028
56.7361 -64.7945 -130.696
58.0605 -62.433 -130.696
58.0605 -62.433 -119.089
56.7361 -64.7945 -119.089
-57.962 8.04587 -83.6525
-15.8496 -1.52114 108.991
-5.51984 -7.31444 108.991
-5.51984 -7.31444 112.097
-15.8496 -1.52114 112.097
-6.51893 15.1162 114.199
-6.51893 15.1162 112.097
-6.51893 15.1162 108.991
-16.8694 -3.3395 108.991
-20.9512 -1.05007 108.991
-6.53982 -9.13319 108.991
-10.6008 17.4054 108.991
3.8107 9.32295 108.991
-10.6008 17.4054 -81.0327
-20.9512 -1.05007 -81.0327
-6.53982 -9.13319 112.097
3.8107 9.32295 112.097
3.8107 9.32295 114.199
-6.53982 -9.13319 114.199
3.8107 9.32295 114.199
-20.9512 -1.05007 -83.6525
-10.6008 17.4054 -83.6525
71.0702 -35.4696 57.3895
67.2739 -42.2388 57.3895
68.8804 -43.1398 57.3895
72.6767 -36.3707 57.3895
-42.6369 35.3724 -81.0327
-42.6369 35.3724 -83.6525
-42.4538 35.6988 -83.6525
-42.4538 35.6988 -81.0327
-42.4538 35.6988 -67.284
-42.6369 35.3724 -67.284
53.5236 -25.6276 116.828
56.5398 -20.2494 116.828
60.683 -29.6434 116.828
78.3988 -26.1675 -119.089
78.3988 -26.1675 -130.696
-64.3286 7.28055 -116.471
-64.787 6.4632 -85.5033
-64.3286 7.28055 -85.5033
67.2739 -42.2388 50.3116
68.8804 -43.1398 50.3116
71.0702 -35.4696 50.3116
72.6767 -36.3707 50.3116
-28.2344 -14.0365 -104.588
24.6566 -43.6992 -104.588
-28.2344 -14.0365 -85.5033
-77.4102 24.8697 -85.5033
23.3329 -46.0593 -119.089
29.4895 -35.0817 -85.5033
24.6566 -43.6992 -119.089
31.9385 -30.715 122.441
-10.6008 17.4054 -85.5033
46.0662 -55.7063 -130.696
-7.68887 -13.2929 112.097
53.6528 -59.9611 -130.696
-5.63926 -9.63829 112.097
-28.2344 -14.0365 -91.0805
-7.68887 -13.2929 108.991
-5.63926 -9.63829 108.991
64.0752 -31.5461 116.828
64.0752 -31.5461 126.328
60.2786 -38.3157 126.328
60.2786 -38.3157 116.828
56.723 -19.9227 116.828
63.8826 -23.9381 116.828
56.8863 -36.4132 126.328
60.683 -29.6434 126.328
49.2607 -16.1671 116.828
-59.9418 20.8191 -65.7028
49.4439 -15.8404 116.828
-59.9418 20.8191 -67.284
-10.4177 17.7319 -81.0327
42.4732 -11.931 122.441
-7.89514 22.2298 -81.0327
-61.4422 36.504 -61.1087
-39.9312 40.1969 -81.0327
-59.3472 28.5303 -61.1087
-59.3472 28.5303 -57.9254
-57.2926 25.5429 -57.9254
60.934 -46.9781 50.3116
64.4728 -40.6679 50.3116
-67.7748 25.2125 -61.1087
62.0708 -47.6157 50.3116
-57.4253 43.6663 -61.1087
65.6097 -41.3055 50.3116
60.934 -46.9781 -4.09274
62.0708 -47.6157 -4.09274
-49.4092 39.5996 -65.7028
-49.5922 39.2732 -65.7028
-49.5922 39.2732 -57.9254
-49.4092 39.5996 -57.9254
71.2513 -10.7991 -104.588
44.5034 -8.3111 87.2825
44.9955 -7.43354 -104.588
42.4732 -11.931 87.2825
49.4439 -15.8404 87.2825
49.8419 1.20793 -104.588
51.4741 -12.2205 87.2825
-57.4253 43.6663 -65.7028
66.4048 -19.4408 -104.588
-57.2423 43.9927 -65.7028
-57.4253 43.6663 -57.9254
63.8826 -23.9381 39.8184
46.2447 -21.5448 116.828
-36.9083 45.5872 -81.0327
-59.8118 4.74742 -83.6525
-59.8118 4.74742 -85.5033
62.0708 -47.6157 -8.26834
60.934 -46.9781 -8.26834
-21.6849 23.6218 -83.6525
-21.6849 23.6218 -81.0327
-32.035 5.16664 -83.6525
42.4475 -28.3155 126.328
46.2447 -21.5448 126.328
69.4062 -34.5362 93.8946
68.2693 -33.8985 93.8946
44.7422 -58.0673 -119.089
46.0662 -55.7063 -119.089
-57.2423 43.9927 -67.284
-54.7195 48.4909 -67.284
27.9208 13.502 -91.0805
27.9208 13.502 -85.5033
25.2345 8.71218 -85.5033
25.2345 8.71218 -91.0805
47.1556 -3.58194 -91.0805
65.6097 -41.3055 93.8946
63.6994 -24.2648 93.8946
-52.9864 16.9179 -81.0327
-60.2702 3.93006 -119.089
-60.2702 3.93006 -85.5033
77.5605 -31.6091 -85.5033
77.3773 -31.9358 -85.5033
7.5684 -22.7879 -91.0805
7.5684 -22.7879 -85.5033
2.73554 -31.4053 -85.5033
2.73554 -31.4053 -91.0805
71.0702 -35.4696 -4.09274
72.6767 -36.3707 -4.09274
-40.6096 47.663 -85.5033
-40.6096 47.663 -119.089
-38.7864 50.9134 -119.089
29.4895 -35.0817 -91.0805
64.4728 -40.6679 93.8946
67.0251 -50.3945 -8.26834
70.5641 -44.0841 -8.26834
65.3415 -49.4502 -8.26834
71.4692 -28.1928 -119.089
73.9913 -23.6956 -119.089
73.9913 -23.6956 -85.5033
71.4692 -28.1928 -85.5033
31.9385 -30.715 87.2825
29.4895 -35.0817 87.2825
36.4603 -38.991 87.2825
38.9091 -34.6247 87.2825
53.5236 -25.6276 122.441
77.5605 -31.6091 -119.089
80.0827 -27.1119 -119.089
63.7349 -48.5491 -8.26834
44.9955 -7.43354 -91.0805
44.9955 -7.43354 -85.5033
74.3604 -37.3151 -4.09274
-8.98979 -13.5018 108.991
29.4895 -35.0817 108.991
60.2786 -38.3157 93.8946
56.7398 -44.6256 93.8946
60.934 -46.9781 93.8946
-36.7209 54.596 -119.089
-36.7209 54.596 -130.696
-54.9921 64.843 -119.089
-54.9921 64.843 -130.696
56.7398 -44.6256 -85.5033
-37.2738 53.6102 -119.089
-37.2738 53.6102 -130.696
-55.545 63.8572 -119.089
-81.7843 17.0703 -85.5033
-36.1365 49.4272 -119.089
-36.4886 48.7993 -119.089
-81.7843 17.0703 -119.089
-30.2725 7.65395 -85.5033
-30.2725 7.65395 -83.6525
11.5763 5.39703 114.199
11.3931 5.07045 122.441
11.5763 5.39703 122.441
-59.9418 20.8191 -57.9254
12.3796 4.51717 122.441
12.5628 4.84375 122.441
12.5628 4.84375 114.199
-39.1386 50.2855 -119.089
3.99384 9.64951 108.991
-39.1386 50.2855 -118.734
44.9955 -7.43354 108.991
6.51625 14.1473 108.991
-36.7306 -3.8613 -85.5033
-34.2061 0.640051 -85.5033
-34.2061 0.640051 -83.6525
-36.7306 -3.8613 -83.6525
31.9385 -30.715 112.097
3.99384 9.64951 112.097
67.0918 -26.1674 93.8946
75.8767 -30.6647 -85.5033
64.0752 -31.5461 93.8946
71.2859 -28.5196 93.8946
9.10962 5.15231 115.328
69.4062 -34.5362 57.3895
9.10962 5.15231 116.828
65.6097 -41.3055 57.3895
10.8817 4.15848 116.828
-57.0574 61.1603 -119.089
-35.0853 48.8377 -119.089
11.3931 5.07045 116.828
-3.04899 30.8708 -119.089
-1.5365 33.5676 -119.089
8.72805 4.47188 115.328
8.72805 4.47188 116.828
8.0549 -3.19418 122.441
44.9361 -23.878 126.328
4.23035 2.95975 114.199
3.82997 2.24585 114.199
-64.426 48.0216 -67.284
3.82997 2.24585 115.328
-64.6091 47.6952 -67.284
4.23035 2.95975 115.328
-57.4253 43.6663 -67.284
-56.2886 45.6931 -65.7028
-64.6091 47.6952 -130.696
-48.4555 41.3002 -65.7028
-64.6091 47.6952 -85.5033
-48.4555 41.3002 -57.9254
-64.6091 47.6952 -83.6525
-56.2886 45.6931 -57.9254
-64.426 48.0216 -83.6525
-64.426 48.0216 -85.5033
-64.426 48.0216 -130.696
7.00684 1.40262 114.199
7.00684 1.40262 115.328
50.8992 -47.0887 -130.696
53.3476 -42.723 -130.696
-29.5569 -16.3945 -119.089
-28.2344 -14.0365 -119.089
-46.5014 37.9689 -67.284
-82.2427 16.2529 -119.089
-46.6845 37.6424 -67.284
-46.5014 37.9689 -65.7028
35.4768 -24.4061 122.441
-25.9262 -9.9207 -85.5033
71.2513 -10.7991 -130.696
-24.5176 4.42698 -85.5033
-24.5176 4.42698 -83.6525
8.72805 4.47188 114.199
-67.7748 25.2125 -65.7028
44.9955 -7.43354 87.2825
62.568 -34.2336 116.828
62.568 -34.2336 101.377
51.9662 -11.343 87.2825
66.7622 -36.5858 101.377
51.4741 -12.2205 39.8184
44.5034 -8.3111 108.991
42.4732 -11.931 108.991
-34.4857 0.796874 -85.5033
49.4439 -15.8404 108.991
-32.035 5.16664 -85.5033
14.5929 8.46351 108.991
14.5929 8.46351 112.097
-34.4857 0.796874 -83.6525
12.5628 4.84375 112.097
49.4439 -15.8404 112.097
62.8934 -53.8153 -119.089
42.4732 -11.931 112.097
62.8934 -53.8153 -130.696
58.2622 -33.9598 128.607
66.4048 -19.4408 -130.696
61.6545 -35.8623 128.607
63.8826 -23.9381 -130.696
61.6545 -35.8623 101.377
-55.545 63.8572 -130.696
-24.5176 4.42698 -81.0327
-10.6008 17.4054 -130.696
58.2622 -33.9598 126.328
-1.5365 33.5676 -130.696
-30.5522 7.81075 -83.6525
61.6545 -35.8623 126.328
61.6545 -35.8623 116.828
67.0251 -50.3945 -130.696
-30.5522 7.81075 -81.0327
-39.9312 40.1969 -83.6525
64.577 -54.7595 -130.696
-39.9312 40.1969 -67.284
0.796094 3.94757 115.328
-3.17893 -16.7606 108.991
-57.0574 61.1603 -130.696
-0.729202 -12.3923 112.097
6.60639 0.688544 115.328
-20.9512 -1.05007 -130.696
65.8487 -38.2146 101.377
9.93185 -7.65742 126.328
46.1881 -38.7074 -8.26834
-23.4016 -5.4193 -130.696
11.387 -5.06288 126.328
43.7395 -43.0734 -8.26834
11.387 -5.06288 128.32
50.8992 -47.0887 -8.26834
9.93185 -7.65742 128.32
53.3476 -42.723 -8.26834
-57.0341 19.1882 -67.284
-54.3848 23.9121 -65.7028
6.59981 -5.78872 122.441
-5.51984 -7.31444 114.199
-15.8496 -1.52114 114.199
9.8042 6.39087 114.199
9.62105 6.06429 114.199
-55.4376 12.5471 -83.6525
-55.4376 12.5471 -67.284
3.99384 9.64951 114.199
-59.8118 4.74742 -67.284
-57.2926 25.5429 -65.7028
-57.2926 25.5429 -61.1087
-7.31604 15.9925 -85.5033
-54.3848 23.9121 -61.1087
-4.79353 20.4902 -85.5033
-4.79353 20.4902 -81.0327
-7.31604 15.9925 -81.0327
53.3476 -42.723 93.8946
46.1881 -38.7074 93.8946
-18.9792 28.4462 -81.0327
-18.9792 28.4462 -83.6525
3.99384 9.64951 -81.0327
31.9385 -30.715 108.991
6.51625 14.1473 -81.0327
-16.8193 32.2975 -81.0327
38.9091 -34.6247 108.991
-51.6966 53.881 -67.284
-52.9864 16.9179 -83.6525
-5.7352 26.0811 -81.0327
-52.9864 16.9179 -67.284
-37.7714 44.0481 -81.0327
9.10962 5.15231 122.441
-37.7714 44.0481 -83.6525
10.8817 4.15848 122.441
-61.9033 52.5198 -83.6525
-10.4177 17.7319 -83.6525
68.2693 -33.8985 101.377
64.4728 -40.6679 101.377
65.6097 -41.3055 101.377
59.2453 -15.4254 -8.26834
69.4062 -34.5362 101.377
56.723 -19.9227 -8.26834
8.37828 -0.305322 122.441
63.8826 -23.9381 -8.26834
66.4048 -19.4408 -8.26834
64.4188 -55.0416 -119.089
64.4188 -55.0416 -130.696
62.7352 -54.0974 -130.696
44.5034 -8.3111 112.097
-3.04899 30.8708 -130.696
68.8804 -43.1398 39.8184
-20.9512 -1.05007 39.8184
-7.89514 22.2298 -130.696
70.2563 -40.6865 39.8184
-10.4177 17.7319 -130.696
77.5605 -31.6091 -130.696
-8.98979 -13.5018 39.8184
77.3773 -31.9358 -130.696
72.6767 -36.3707 39.8184
36.4603 -38.991 39.8184
74.0869 -30.0905 39.8184
-74.9583 29.2416 -83.6525
-77.4102 24.8697 -83.6525
74.2701 -29.7637 39.8184
-67.7748 25.2125 -57.9254
71.4692 -28.1928 39.8184
6.51625 14.1473 39.8184
46.0662 -55.7063 -104.588
50.8992 -47.0887 -104.588
3.99384 9.64951 39.8184
29.4895 -35.0817 -104.588
24.6566 -43.6992 -91.0805
-35.0853 48.8377 -85.5033
-36.9083 45.5872 -67.284
44.9955 -7.43354 39.8184
74.3604 -37.3151 -85.5033
-58.8804 57.9098 -83.6525
-4.87196 27.6203 -85.5033
-58.8804 57.9098 -85.5033
-61.9033 52.5198 -85.5033
43.7395 -43.0734 39.8184
-58.8804 57.9098 -119.089
56.723 -19.9227 39.8184
63.8826 -23.9381 93.8946
58.4858 -51.3434 -119.089
56.723 -19.9227 93.8946
60.934 -46.9781 -119.089
60.934 -46.9781 -85.5033
58.4858 -51.3434 -85.5033
49.4439 -15.8404 122.441
49.8419 1.20793 -91.0805
49.2607 -16.1671 122.441
-2.63357 24.3416 -85.5033
-2.63357 24.3416 -81.0327
64.577 -54.7595 -119.089
67.0251 -50.3945 -119.089
66.4048 -19.4408 -91.0805
-15.6506 20.2375 -81.0327
66.4048 -19.4408 -119.089
74.2701 -29.7637 -85.5033
-81.7843 17.0703 -83.6525
12.3265 10.8886 108.991
2.91765 7.73055 112.097
9.8042 6.39087 112.097
2.91765 7.73055 114.199
8.72805 4.47188 112.097
50.8992 -47.0887 -91.0805
-82.2427 16.2529 -116.471
-81.7843 17.0703 -116.471
-60.2702 3.93006 -116.471
9.62105 6.06429 112.097
9.36474 -0.858635 122.441
23.0745 4.86069 -85.5033
23.0745 4.86069 -91.0805
60.683 -29.6434 122.441
59.2453 -15.4254 39.8184
51.9662 -11.343 39.8184
-21.5018 23.9483 -83.6525
-21.5018 23.9483 -81.0327
-12.0303 14.8565 -83.6525
-17.0801 17.6886 -83.6525
-17.0801 17.6886 -81.0327
-12.0303 14.8565 -81.0327
46.2447 -21.5448 122.441
44.7422 -58.0673 -130.696
-56.2886 45.6931 -67.284
46.1881 -38.7074 108.991
4.89451 9.14438 112.097
-81.7843 17.0703 -67.284
-27.7762 -13.2193 -85.5033
-43.9787 42.467 -65.7028
-14.2194 1.38568 114.199
-43.9787 42.467 -67.284
31.9385 -30.715 114.199
-7.41199 13.5238 114.199
71.1698 -39.0577 -0.134231
70.2563 -40.6865 -0.134231
71.94 -41.6308 -0.134231
-5.51984 -7.31444 115.328
59.2453 -15.4254 -85.5033
72.8535 -40.002 -0.134231
-23.4016 -5.4193 -85.5033
-3.00252 -2.82578 115.328
68.8804 -43.1398 -0.134231
70.5641 -44.0841 -0.134231
-6.53982 -9.13319 115.328
-20.9512 -1.05007 -85.5033
42.4475 -28.3155 122.441
38.9091 -34.6247 122.441
-8.58943 -12.7879 108.991
-3.04899 30.8708 -85.5033
-19.4676 1.59529 -85.5033
72.6767 -36.3707 -0.134231
74.3604 -37.3151 -0.134231
-10.4177 17.7319 -85.5033
50.8992 -47.0887 -119.089
71.4692 -28.1928 93.8946
72.8535 -40.002 -4.09274
71.1698 -39.0577 50.3116
56.8863 -36.4132 122.441
2.8081 -6.08455 115.328
71.94 -41.6308 -4.09274
70.2563 -40.6865 50.3116
33.0994 -17.2397 126.328
31.6443 -19.8343 126.328
43.7395 -43.0734 -85.5033
0.0314136 -4.5273 114.199
0.0314136 -4.5273 115.328
37.3278 -23.0218 126.328
38.7829 -20.4272 126.328
-29.5569 -16.3945 -130.696
-83.564 13.8969 -130.696
-82.2427 16.2529 -130.696
-31.7554 5.00981 -83.6525
-31.7554 5.00981 -85.5033
65.3415 -49.4502 -85.5033
71.4692 -28.1928 50.3116
71.2859 -28.5196 50.3116
72.4228 -29.1572 50.3116
74.0869 -30.0905 50.3116
-39.1386 50.2855 -85.5033
74.2701 -29.7637 50.3116
-3.00252 -2.82578 122.441
60.683 -29.6434 93.8946
-35.4375 48.2098 -85.5033
-6.53982 -9.13319 122.441
-17.0801 17.6886 -85.5033
-26.0009 1.78218 -85.5033
53.3476 -42.723 -85.5033
-61.9033 52.5198 -130.696
-51.6141 45.4285 -65.7028
78.5239 -25.9445 -119.089
-58.8804 57.9098 -130.696
80.0827 -27.1119 -130.696
78.5239 -25.9445 -130.696
-52.6197 43.6355 -67.284
-74.9583 29.2416 -85.5033
50.8992 -47.0887 -85.5033
-12.0303 14.8565 -85.5033
64.0752 -31.5461 101.377
-61.9033 52.5198 -67.284
-51.6141 45.4285 -67.284
63.7349 -48.5491 -85.5033
69.4062 -34.5362 50.3116
80.2078 -26.8888 -130.696
60.2786 -38.3157 101.377
-4.87196 27.6203 -130.696
80.2078 -26.8888 -119.089
-52.6197 43.6355 -65.7028
67.0251 -50.3945 -85.5033
-74.9583 29.2416 -67.284
66.9856 -38.8522 101.377
63.7349 -48.5491 50.3116
-58.8804 57.9098 -67.284
-48.1442 43.4824 -67.284
66.4048 -19.4408 -85.5033
-20.9512 -1.05007 -67.284
-48.1442 43.4824 -65.7028
-10.6008 17.4054 -67.284
62.568 -34.2336 126.328
-61.592 1.57323 -119.089
-74.9583 29.2416 -130.696
24.6566 -43.6992 -115.062
-77.4102 24.8697 -119.089
-61.4422 36.504 -57.9254
59.1756 -32.3311 126.328
78.8378 -15.0538 -119.089
51.9662 -11.343 -85.5033
78.8378 -15.0538 -130.696
73.9913 -23.6956 -130.696
-56.5097 26.9389 -61.1087
-56.5097 26.9389 -57.9254
-64.3428 31.332 -57.9254
-64.3428 31.332 -61.1087
36.4603 -38.991 -85.5033
68.2693 -33.8985 50.3116
-53.3642 32.5475 -61.1087
-61.1973 36.9406 -61.1087
-61.1973 36.9406 -57.9254
56.8863 -36.4132 93.8946
-53.3642 32.5475 -57.9254
-65.1257 29.936 -57.9254
63.8826 -23.9381 -85.5033
-65.1257 29.936 -61.1087
-28.2344 -14.0365 -130.696
-77.4102 24.8697 -67.284
-47.5807 44.4871 -65.7028
71.4692 -28.1928 -4.09274
5.56636 -7.63146 122.441
-47.5807 44.4871 -67.284
70.5641 -44.0841 -85.5033
-67.7748 25.2125 -67.284
-40.6096 47.663 -118.734
62.568 -34.2336 128.607
5.56636 -7.63146 126.328
-49.1497 41.6895 -65.7028
59.1756 -32.3311 128.607
-52.3416 34.3708 -57.9254
9.36474 -0.858635 126.328
-77.4102 24.8697 -130.696
62.0708 -47.6157 -85.5033
-60.1748 38.7638 -57.9254
42.4732 -11.931 114.199
-55.283 47.4862 -67.284
-28.2344 -14.0365 -115.062
-60.1748 38.7638 -61.1087
53.6528 -59.9611 -119.089
58.4858 -51.3434 -130.696
-38.8601 -7.00304 -85.5033
4  482 108 107 466  0 255 0
4  482 715 753 486  0 255 0
4  548 422 414 466  0 255 0
4  548 106 104 546  0 255 0
4  548 466 107 106  0 255 0
4  482 466 414 715  0 255 0
4  546 683 422 548  0 255 0
5  546 104 101 543 700  0 255 0
4  546 700 686 683  0 255 0
5  543 468 362 464 479  0 255 0
4  543 101 98 468  0 255 0
4  486 111 108 482  0 255 0
6  472 426 425 761 458 475  0 0 255
4  475 588 589 472  0 0 255
5  551 107 108 426 472  0 0 255
7  472 589 703 744 569 321 551  0 0 255
5  107 551 549 462 106  0 0 255
4  414 416 690 715  0 255 0
4  704 555 418 410  0 255 0
4  712 11 545 710  0 255 0
5  712 202 138 9 11  0 255 0
6  710 203 146 616 202 712  0 255 0
5  710 545 5 75 203  0 255 0
4  704 410 412 745  0 255 0
4  111 425 426 108  0 0 255
4  90 79 77 127  0 0 255
4  703 333 334 744  0 0 255
7  703 589 580 581 754 696 669  0 0 255
6  127 77 550 6 238 323  0 0 255
4  703 669 335 333  0 0 255
4  691 659 488 490  0 0 255
6  691 582 578 649 562 600  0 0 255
5  682 360 581 582 691  0 0 255
5  682 492 15 16 360  0 0 255
4  691 490 492 682  0 0 255
6  687 225 723 460 462 549  0 0 255
4  549 345 346 687  0 0 255
4  106 462 460 104  0 0 255
4  104 460 435 101  0 0 255
4  320 160 158 389  0 0 255
4  143 517 515 142  0 0 255
6  143 606 349 568 560 517  0 0 255
6  320 389 593 339 336 345  0 0 255
6  736 339 741 559 292 537  0 0 255
6  709 633 721 349 348 590  0 0 255
4  709 338 339 736  0 0 255
4  709 538 533 633  0 0 255
4  736 537 538 709  0 0 255
4  687 698 688 225  0 0 255
4  687 346 701 698  0 0 255
4  101 435 179 98  0 0 255
4  147 149 310 311  0 0 255
4  147 311 312 145  0 0 255
4  143 145 312 606  0 0 255
5  753 715 690 236 717  0 255 0
4  475 458 541 540  0 0 255
4  111 486 738 0  0 255 0
4  486 753 666 738  0 255 0
4  738 664 1 0  0 255 0
5  738 666 665 136 664  0 255 0
5  753 717 367 430 666  0 255 0
4  739 556 555 704  0 255 0
4  739 622 594 556  0 255 0
4  739 501 503 622  0 255 0
7  739 704 745 260 493 523 501  0 255 0
4  76 141 210 241  0 255 0
4  321 569 350 159  0 0 255
4  422 683 573 421  0 255 0
4  408 420 528 694  0 255 0
6  408 694 309 757 619 308  0 255 0
7  679 639 632 28 636 96 676  255 0 0
5  679 240 627 207 639  255 0 0
4  728 238 6 553  0 0 255
6  728 659 691 600 331 238  0 0 255
6  642 50 57 386 627 240  255 0 0
5  728 553 574 488 659  0 0 255
4  640 209 79 90  0 255 0
4  241 210 529 648  0 255 0
4  640 645 148 209  0 255 0
5  721 633 533 609 610  0 0 255
6  583 262 756 457 455 259  255 0 0
4  721 610 568 349  0 0 255
6  581 360 16 17 275 298  0 0 255
4  581 298 297 754  0 0 255
4  460 723 722 435  0 0 255
5  435 722 37 33 179  0 0 255
6  709 590 289 592 337 338  0 0 255
4  696 754 297 347  0 0 255
4  696 347 335 669  0 0 255
5  644 400 81 149 147  0 255 0
6  644 147 145 586 43 571  0 255 0
4  143 508 586 145  0 255 0
4  416 418 555 690  0 255 0
4  690 555 556 236  0 255 0
4  640 681 436 645  0 255 0
4  98 179 175 99  0 0 255
4  543 479 686 700  0 255 0
4  694 528 570 707  0 255 0
5  683 686 575 572 573  0 255 0
4  479 397 575 686  0 255 0
6  707 570 47 294 567 520  0 255 0
4  694 707 520 309  0 255 0
4  209 203 75 79  0 255 0
4  210 202 261 529  0 255 0
4  209 148 146 203  0 255 0
4  475 540 539 588  0 0 255
4  664 427 2 1  0 255 0
4  0 242 425 111  0 0 255
4  124 121 246 235  0 255 0
4  124 324 325 121  0 0 255
4  127 323 324 124  0 0 255
4  242 244 761 425  0 0 255
4  242 0 1 618  0 0 255
4  236 556 594 364  0 255 0
8  235 246 233 758 428 318 603 319  0 255 0
5  236 364 602 367 717  0 255 0
4  635 434 382 383  0 255 0
5  235 319 296 762 623  0 255 0
4  653 63 54 65  255 0 0
4  676 96 82 84  255 0 0
5  653 65 641 302 255  255 0 0
4  642 240 433 641  255 0 0
6  240 679 676 84 742 433  255 0 0
5  608 256 303 617 344  255 0 0
4  608 344 221 223  255 0 0
4  666 430 150 665  0 255 0
4  665 144 139 136  0 255 0
4  665 150 133 144  0 255 0
5  664 136 29 714 427  0 255 0
4  523 493 431 220  0 255 0
5  216 299 469 301 521  0 255 0
4  521 317 215 216  0 255 0
4  523 220 215 317  0 255 0
4  349 606 607 348  0 0 255
4  262 375 376 756  255 0 0
4  641 65 54 52  255 0 0
5  641 433 742 748 302  255 0 0
4  617 293 221 344  255 0 0
5  653 255 251 252 63  255 0 0
4  25 116 140 137  0 0 255
4  307 561 562 649  0 0 255
5  307 239 716 234 561  0 0 255
5  648 529 261 510 506  0 255 0
4  143 142 506 508  0 255 0
6  635 127 124 235 623 434  0 255 0
4  572 570 528 573  0 255 0
5  572 575 329 746 328  0 255 0
5  572 328 46 47 570  0 255 0
5  644 566 30 398 400  0 255 0
6  644 571 83 46 678 566  0 255 0
4  642 641 52 50  255 0 0
4  640 90 127 635  0 255 0
4  592 289 281 173  0 0 255
4  173 281 286 170  0 0 255
6  81 170 286 584 310 149  0 0 255
4  617 164 166 585  255 0 0
4  207 204 192 496  255 0 0
6  627 386 480 245 204 207  255 0 0
6  623 762 102 178 382 434  0 255 0
4  622 503 295 594  0 255 0
5  364 594 295 296 228  0 255 0
4  519 343 340 516  255 0 0
4  519 57 59 620  255 0 0
6  620 512 14 12 343 519  255 0 0
6  620 59 55 64 511 512  255 0 0
7  640 635 383 448 450 668 681  0 255 0
10  502 387 621 597 454 457 756 376 370 498  255 0 0
7  744 334 45 655 651 350 569  0 0 255
4  253 579 577 254  255 0 0
7  618 1 2 135 126 237 306  0 0 255
5  618 185 186 244 242  0 0 255
4  618 306 188 185  0 0 255
4  55 59 57 50  255 0 0
4  617 585 257 293  255 0 0
8  259 455 449 285 10 576 579 253  255 0 0
4  10 285 287 445  255 0 0
4  609 533 535 576  0 0 255
4  610 443 440 568  255 0 0
4  576 535 537 292  0 0 255
4  610 445 287 443  255 0 0
5  610 609 576 10 445  0 0 255
5  608 223 249 250 256  255 0 0
4  428 758 116 25  0 255 0
4  428 25 2 427  0 255 0
4  25 137 135 2  0 0 255
4  307 306 237 239  0 0 255
4  121 117 233 246  0 255 0
4  600 562 564 331  0 0 255
5  121 325 565 234 117  0 0 255
4  173 720 337 592  0 0 255
4  346 224 685 701  0 0 255
4  590 348 283 289  0 0 255
4  348 607 313 314  0 0 255
4  584 314 313 310  0 0 255
5  348 314 584 286 283  0 0 255
4  579 576 292 577  255 0 0
5  577 292 559 670 650  255 0 0
4  281 289 283 286  0 0 255
4  573 528 420 421  0 255 0
4  57 519 516 386  255 0 0
4  386 516 176 174  255 0 0
5  397 330 377 329 575  0 255 0
4  553 342 343 12  255 0 0
4  14 485 488 574  0 0 255
4  14 512 511 15  255 0 0
4  12 14 574 553  0 0 255
4  98 99 401 468  0 255 0
5  571 43 80 68 83  0 255 0
7  476 626 123 743 309 520 567  0 255 0
4  474 526 78 514  0 255 0
4  474 265 524 526  0 255 0
5  476 567 294 524 265  0 255 0
5  47 70 526 524 294  0 255 0
4  566 156 151 30  0 255 0
5  46 328 674 154 678  0 255 0
4  46 83 68 69  0 255 0
4  566 678 154 156  0 255 0
4  398 30 151 365  0 255 0
4  239 128 129 716  0 0 255
4  565 325 322 331  0 0 255
4  331 322 323 238  0 0 255
4  565 331 564 234  0 0 255
6  234 716 129 140 116 117  0 0 255
4  562 561 234 564  0 0 255
5  617 303 752 605 164  255 0 0
4  745 439 258 260  0 255 0
4  412 288 439 745  0 255 0
4  558 271 737 735  0 255 0
4  558 373 182 271  0 255 0
4  291 755 759 273  0 255 0
4  291 279 751 755  0 255 0
4  558 735 268 373  0 255 0
4  521 301 453 500  0 255 0
5  320 345 549 551 321  0 0 255
4  321 159 160 320  0 0 255
4  538 537 535 533  0 0 255
4  474 514 611 217  0 255 0
4  500 453 177 189  0 255 0
5  501 523 317 521 500  0 255 0
6  352 341 6 550 351 478  255 0 0
5  516 340 341 352 176  255 0 0
4  511 64 63 733  255 0 0
4  15 492 485 14  0 0 255
4  15 511 354 16  255 0 0
6  295 503 501 500 189 105  0 255 0
4  457 447 449 455  255 0 0
4  387 378 22 621  255 0 0
4  457 542 446 447  255 0 0
4  457 454 452 542  255 0 0
4  492 490 488 485  0 0 255
4  397 479 464 363  0 255 0
4  464 359 358 363  0 255 0
4  464 362 357 359  0 255 0
4  468 401 361 362  0 255 0
4  219 429 626 476  0 255 0
4  219 476 265 218  0 255 0
4  474 217 218 265  0 255 0
5  223 677 390 693 249  255 0 0
4  56 316 677 223  255 0 0
4  649 578 760 307  0 0 255
4  588 539 180 456  0 0 255
4  430 601 132 150  0 255 0
4  430 367 602 601  0 255 0
4  380 440 282 446  255 0 0
4  447 284 285 449  255 0 0
4  447 446 282 284  255 0 0
9  288 273 759 731 264 727 737 271 439  0 255 0
4  439 271 182 258  0 255 0
4  179 33 35 175  0 0 255
5  99 175 173 170 81  0 0 255
4  150 132 131 133  0 255 0
4  428 427 714 318  0 255 0
4  422 421 416 414  0 255 0
4  421 420 418 416  0 255 0
4  420 408 410 418  0 255 0
4  220 431 429 219  0 255 0
4  412 410 408 308  0 255 0
8  363 361 401 400 398 365 330 397  0 255 0
4  391 671 729 305  255 0 0
5  305 729 697 393 304  255 0 0
4  305 530 693 390  255 0 0
4  391 305 390 388  255 0 0
7  142 515 563 9 138 141 76  0 0 255
8  387 502 208 205 201 9 563 378  255 0 0
4  204 199 191 192  255 0 0
4  204 245 248 199  255 0 0
4  386 174 171 480  255 0 0
5  378 563 560 381 91  255 0 0
6  381 560 568 440 380 595  255 0 0
5  381 595 89 20 91  255 0 0
5  380 446 451 89 595  255 0 0
4  378 91 20 22  255 0 0
4  304 534 530 305  255 0 0
4  278 183 95 94  0 255 0
4  258 184 493 260  0 255 0
4  258 504 494 184  0 255 0
4  279 181 93 751  0 255 0
4  373 268 505 182  0 255 0
4  258 182 505 504  0 255 0
4  278 94 93 181  0 255 0
5  315 395 274 270 332  255 0 0
8  303 405 663 657 487 125 74 752  255 0 0
8  302 748 72 118 484 658 662 73  255 0 0
4  388 390 677 316  255 0 0
4  6 341 342 553  255 0 0
5  327 646 552 8 326  0 0 255
4  350 647 646 327  0 0 255
4  159 350 327 157  0 0 255
4  364 228 226 602  0 255 0
5  63 252 699 353 733  255 0 0
5  355 269 17 16 354  255 0 0
4  353 699 531 332  255 0 0
4  332 270 269 355  255 0 0
4  332 531 532 315  255 0 0
4  332 355 354 353  255 0 0
4  347 39 40 335  0 0 255
4  297 276 39 347  0 0 255
5  175 35 36 720 173  0 0 255
5  351 550 5 199 643  255 0 0
5  199 5 545 198 197  255 0 0
4  199 248 247 643  255 0 0
4  352 478 168 176  255 0 0
5  351 643 247 168 478  255 0 0
4  45 638 631 655  0 0 255
4  45 334 333 44  0 0 255
4  41 637 638 45  0 0 255
4  350 651 634 647  0 0 255
4  335 40 44 333  0 0 255
5  346 345 336 337 224  0 0 255
4  343 342 341 340  255 0 0
4  326 8 554 155  0 0 255
4  339 593 153 741  0 0 255
4  339 338 337 336  0 0 255
5  38 13 544 637 41  0 0 255
4  330 365 366 377  0 255 0
4  329 377 379 746  0 255 0
4  328 746 379 674  0 255 0
4  157 327 326 155  0 0 255
4  164 605 374 166  255 0 0
4  325 324 323 322  0 0 255
4  318 115 114 603  0 255 0
4  319 227 228 296  0 255 0
4  319 603 114 227  0 255 0
4  202 210 141 138  0 255 0
4  202 616 615 591  0 255 0
4  254 577 316 56  255 0 0
5  315 532 705 534 304  255 0 0
4  304 393 395 315  255 0 0
4  313 312 311 310  0 0 255
5  309 743 708 695 757  0 255 0
4  308 619 413 290  0 255 0
5  307 760 187 188 306  0 0 255
8  303 256 719 467 255 302 73 405  255 0 0
5  300 591 615 465 473  0 255 0
4  301 667 668 450  0 255 0
4  301 469 369 667  0 255 0
4  300 473 469 299  0 255 0
4  298 275 276 297  0 0 255
4  296 100 102 762  0 255 0
4  296 295 105 100  0 255 0
4  263 513 518 522  0 255 0
4  221 293 257 222  255 0 0
4  607 606 312 313  0 0 255
4  602 226 114 601  0 255 0
4  597 621 21 87  255 0 0
4  597 87 452 454  255 0 0
7  85 536 605 404 495 742 84  255 0 0
4  593 389 158 153  0 0 255
4  155 554 557 153  0 0 255
5  589 588 456 578 580  0 0 255
5  578 456 180 187 760  0 0 255
4  582 581 580 578  0 0 255
4  287 285 284 282  255 0 0
4  275 17 18 276  0 0 255
4  276 18 19 39  0 0 255
4  274 395 212 229  255 0 0
4  272 18 17 269  255 0 0
4  274 272 269 270  255 0 0
4  448 383 384 453  0 255 0
4  453 384 385 177  0 255 0
5  605 536 527 371 374  255 0 0
4  605 752 74 404  255 0 0
4  748 742 495 72  255 0 0
4  353 354 511 733  255 0 0
4  585 166 262 583  255 0 0
4  671 391 650 670  255 0 0
4  672 697 729 671  255 0 0
5  723 225 688 37 722  0 0 255
5  720 36 685 224 337  0 0 255
4  263 261 612 513  0 255 0
4  256 250 713 719  255 0 0
4  255 467 470 251  255 0 0
8  252 251 470 713 250 249 441 471  255 0 0
5  244 186 541 458 761  0 0 255
4  673 554 8 231  255 0 0
4  231 211 393 697  255 0 0
4  231 8 552 232  255 0 0
4  673 231 697 672  255 0 0
4  401 99 81 400  0 255 0
4  681 668 368 436  0 255 0
4  252 471 463 699  255 0 0
4  249 693 442 441  255 0 0
4  530 444 442 693  255 0 0
4  531 699 463 483  255 0 0
4  39 19 13 38  0 0 255
4  706 19 18 272  255 0 0
4  229 13 19 706  255 0 0
4  229 212 213 230  255 0 0
4  229 706 272 274  255 0 0
4  513 612 611 514  0 255 0
4  299 216 217 611  0 255 0
5  648 506 142 76 241  0 255 0
4  237 126 128 239  0 0 255
4  117 116 758 233  0 255 0
6  230 213 214 232 652 656  255 0 0
4  230 544 13 229  255 0 0
4  232 552 7 652  255 0 0
4  232 214 211 231  255 0 0
4  230 656 547 544  255 0 0
4  228 227 114 226  0 255 0
4  36 37 688 685  0 0 255
4  223 221 222 56  255 0 0
4  220 219 218 215  0 255 0
4  218 217 216 215  0 255 0
4  214 213 212 211  255 0 0
5  79 75 5 550 77  0 0 255
4  206 205 596 598  255 0 0
4  207 496 632 639  255 0 0
4  206 194 195 205  255 0 0
4  206 598 628 194  255 0 0
4  205 208 499 604  255 0 0
4  205 195 196 201  255 0 0
4  198 545 11 200  255 0 0
5  200 11 9 201 196  255 0 0
5  200 196 190 197 198  255 0 0
4  199 197 190 191  255 0 0
4  196 195 193 190  255 0 0
7  195 194 628 24 625 497 193  255 0 0
4  193 192 191 190  255 0 0
4  178 102 103 177  0 255 0
4  177 103 105 189  0 255 0
4  188 187 186 185  0 0 255
4  542 452 451 446  255 0 0
4  87 89 451 452  255 0 0
5  534 705 483 444 530  255 0 0
4  532 531 483 705  255 0 0
4  526 70 71 78  0 255 0
4  42 522 518 78  0 255 0
4  518 513 514 78  0 255 0
4  507 97 95 494  0 255 0
6  505 724 730 93 97 507  0 255 0
4  507 494 504 505  0 255 0
4  496 27 28 632  255 0 0
5  497 625 110 27 496  255 0 0
4  497 496 192 193  255 0 0
6  183 431 493 184 494 95  0 255 0
4  480 171 243 245  255 0 0
4  465 615 614 437  0 255 0
4  437 614 680 436  0 255 0
5  465 437 369 469 473  0 255 0
4  714 29 115 318  0 255 0
4  601 114 34 132  0 255 0
4  186 187 180 541  0 0 255
4  453 301 450 448  0 255 0
4  443 287 282 440  255 0 0
4  436 680 692 645  0 255 0
4  437 436 368 369  0 255 0
4  171 174 176 168  255 0 0
4  166 374 375 262  255 0 0
4  162 290 413 419  0 255 0
4  162 419 417 280  0 255 0
4  120 740 743 123  0 255 0
5  120 624 432 277 415  0 255 0
5  120 415 749 711 740  0 255 0
4  280 417 415 277  0 255 0
6  419 413 702 749 415 417  0 255 0
4  405 73 662 663  255 0 0
4  74 72 495 404  255 0 0
4  211 212 395 393  255 0 0
4  160 159 157 158  0 0 255
4  153 557 559 741  0 0 255
4  158 157 155 153  0 0 255
4  148 613 616 146  0 255 0
4  134 130 126 135  0 0 255
4  140 129 130 134  0 0 255
4  140 134 135 137  0 0 255
4  130 129 128 126  0 0 255
4  123 626 624 120  0 255 0
4  34 114 115 29  0 255 0
4  105 103 102 100  0 255 0
5  96 636 661 654 82  255 0 0
4  88 660 407 92  255 0 0
4  88 654 661 660  255 0 0
4  92 481 654 88  255 0 0
4  86 82 654 481  255 0 0
4  86 85 84 82  255 0 0
4  74 66 67 72  255 0 0
4  74 125 122 66  255 0 0
4  72 67 119 118  255 0 0
4  67 66 122 119  255 0 0
4  62 51 53 61  255 0 0
4  61 53 48 60  255 0 0
4  58 49 51 62  255 0 0
4  60 48 657 663  255 0 0
4  62 61 60 58  255 0 0
4  49 58 662 658  255 0 0
4  53 51 49 48  255 0 0
4  47 46 69 70  0 255 0
4  43 42 78 80  0 255 0
4  37 36 35 33  0 0 255
4  674 379 152 154  0 255 0
4  58 60 663 662  255 0 0
4  658 484 487 657  255 0 0
4  48 49 658 657  255 0 0
4  636 477 409 661  255 0 0
5  650 391 388 316 577  255 0 0
4  645 692 613 148  0 255 0
4  171 168 247 243  255 0 0
6  477 636 28 109 113 26  255 0 0
5  598 23 112 24 628  255 0 0
4  625 24 112 110  255 0 0
4  28 27 110 109  255 0 0
4  26 113 112 23  255 0 0
4  156 154 152 151  0 255 0
4  133 31 139 144  0 255 0
4  29 136 139 31  0 255 0
4  31 133 131 32  0 255 0
4  132 34 32 131  0 255 0
4  125 487 489 122  255 0 0
4  122 489 491 119  255 0 0
4  119 491 484 118  255 0 0
4  113 109 110 112  255 0 0
4  93 730 734 751  0 255 0
4  97 93 94 95  0 255 0
4  89 87 21 20  255 0 0
4  80 78 71 68  0 255 0
4  71 70 69 68  0 255 0
4  64 55 54 63  255 0 0
4  55 50 52 54  255 0 0
4  45 44 40 41  0 0 255
4  41 40 39 38  0 0 255
4  34 29 31 32  0 255 0
4  675 557 554 673  255 0 0
4  670 559 557 675  255 0 0
5  675 673 672 671 670  255 0 0
4  409 407 660 661  255 0 0
5  612 261 202 591 300  0 255 0
4  656 652 7 547  255 0 0
4  655 631 634 651  0 0 255
4  629 7 552 646  0 0 255
4  647 634 629 646  0 0 255
4  637 544 547 630  0 0 255
4  630 547 7 629  0 0 255
4  631 638 637 630  0 0 255
4  634 631 630 629  0 0 255
4  432 624 626 429  0 255 0
4  20 21 621 22  255 0 0
4  619 757 695 689  0 255 0
4  413 619 689 702  0 255 0
4  749 702 684 711  0 255 0
4  740 711 708 743  0 255 0
4  616 613 614 615  0 255 0
4  612 300 299 611  0 255 0
4  92 407 406 423  255 0 0
5  23 598 438 423 406  255 0 0
5  205 604 167 599 596  255 0 0
4  499 169 172 604  255 0 0
5  86 481 424 402 403  255 0 0
4  481 92 423 424  255 0 0
4  85 525 527 536  255 0 0
5  85 86 403 394 525  255 0 0
4  374 371 372 375  255 0 0
4  604 172 165 167  255 0 0
4  599 167 161 438  255 0 0
4  438 161 392 402  255 0 0
4  599 438 598 596  255 0 0
4  517 560 563 515  0 0 255
4  263 522 587 509  0 255 0
5  522 42 43 586 587  0 255 0
4  508 509 587 586  0 255 0
4  585 583 259 257  255 0 0
5  290 162 291 273 288  0 255 0
4  308 290 288 412  0 255 0
4  279 291 162 280  0 255 0
4  183 278 277 432  0 255 0
5  280 277 278 181 279  0 255 0
4  268 725 724 505  0 255 0
4  737 727 726 735  0 255 0
5  735 726 267 725 268  0 255 0
4  751 734 732 755  0 255 0
4  755 732 731 759  0 255 0
5  730 724 266 264 731  0 255 0
4  734 730 731 732  0 255 0
3  726 718 267  0 255 0
4  727 264 718 726  0 255 0
4  725 267 266 724  0 255 0
4  718 264 266 267  0 255 0
4  222 257 259 253  255 0 0
4  56 222 253 254  255 0 0
4  245 243 247 248  255 0 0
4  711 684 695 708  0 255 0
4  702 689 695 684  0 255 0
4  613 692 680 614  0 255 0
4  701 685 688 698  0 0 255
4  180 539 540 541  0 0 255
4  399 371 527 396  255 0 0
4  394 403 402 392  255 0 0
4  527 525 394 396  255 0 0
4  263 509 510 261  0 255 0
4  510 509 508 506  0 255 0
4  499 208 502 498  255 0 0
4  498 370 169 499  255 0 0
4  491 489 487 484  255 0 0
4  409 477 26 411  255 0 0
4  471 441 442 463  255 0 0
4  463 442 444 483  255 0 0
4  467 719 750 459  255 0 0
4  470 461 747 713  255 0 0
4  470 467 459 461  255 0 0
4  719 713 747 750  255 0 0
4  750 747 461 459  255 0 0
4  402 424 423 438  255 0 0
4  178 177 385 382  0 255 0
4  172 169 163 165  255 0 0
4  163 161 167 165  255 0 0
4  432 429 431 183  0 255 0
4  23 406 411 26  255 0 0
4  411 406 407 409  255 0 0
4  169 399 396 163  255 0 0
5  396 394 392 161 163  255 0 0
4  385 384 383 382  0 255 0
4  152 379 377 366  0 255 0
4  375 372 370 376  255 0 0
5  370 372 371 399 169  255 0 0
4  668 667 369 368  0 255 0
4  151 152 366 365  0 255 0
4  363 358 356 361  0 255 0
4  362 361 356 357  0 255 0
4  357 356 358 359  0 255 0
3  9 11 3  255 0 0
3  11 9 3  0 255 0
7  563 9 10 445 610 568 560  255 0 0
7  9 563 560 568 610 445 10  0 0 255
8  576 10 9 8 554 557 559 292  255 0 0
8  10 576 292 559 557 554 8 9  0 0 255
3  552 8 7  255 0 0
3  8 552 7  0 0 255
7  547 7 8 9 3 13 544  255 0 0
7  7 547 544 13 3 9 8  0 0 255
10  19 13 3 4 12 14 15 16 17 18  255 0 0
10  13 19 18 17 16 15 14 12 4 3  0 0 255
5  553 12 4 5 6  255 0 0
5  12 553 6 5 4  0 0 255
3  550 6 5  255 0 0
3  6 550 5  0 0 255
3  545 5 11  255 0 0
3  5 545 11  0 255 0
3  11 3 4  0 255 0
3  11 4 3  255 0 0
3  11 4 5  0 255 0
3  11 5 4  255 0 0
11  81 99 98 101 104 106 107 108 111 0 1  0 255 0
11  99 81 1 0 111 108 107 106 104 101 98  0 0 255
7  149 81 76 142 143 145 147  0 255 0
7  81 149 147 145 143 142 76  0 0 255
8  141 76 75 5 4 3 9 138  0 255 0
8  76 141 138 9 3 4 5 75  0 0 255
5  79 75 76 81 90  0 255 0
5  75 79 90 81 76  0 0 255
8  127 90 81 25 116 117 121 124  0 255 0
8  90 127 124 121 117 116 25 81  0 0 255
4  2 25 81 1  0 255 0
4  25 2 1 81  0 0 255

