OFF
927 1279 0

68.2693 -33.8985 57.3895
64.4728 -40.6679 57.3895
68.2693 -33.8985 93.8946
68.2693 -33.8985 101.377
66.7622 -36.5858 101.377
65.8487 -38.2146 101.377
64.4728 -40.6679 101.377
64.4728 -40.6679 93.8946
64.4728 -40.6679 50.3116
68.2693 -33.8985 50.3116
60.934 -46.9781 39.8184
56.7398 -44.6256 57.3895
60.934 -46.9781 57.3895
59.1233 -40.3757 57.3895
-49.1497 41.6895 -65.7028
-52.6197 43.6355 -65.7028
-48.4555 41.3002 -65.7028
-49.4092 39.5996 -65.7028
-49.5922 39.2732 -65.7028
58.1777 -20.7386 114.199
60.683 -29.6434 93.8946
58.1777 -20.7386 93.8946
61.6754 -33.1708 93.8946
62.1727 -34.9384 93.8946
62.1727 -34.9384 101.377
62.1727 -34.9384 114.199
62.0322 -34.4391 114.199
60.8567 -30.2609 114.199
60.84 -30.2016 114.199
58.3616 -21.3923 114.199
60.683 -29.6434 93.8946
38.9091 -34.6247 93.8946
46.1881 -38.7074 93.8946
56.8863 -36.4132 93.8946
64.0752 -31.5461 93.8946
63.6994 -24.2648 93.8946
63.8826 -23.9381 93.8946
56.723 -19.9227 93.8946
49.4439 -15.8404 93.8946
53.3476 -42.723 93.8946
60.2786 -38.3157 93.8946
42.4732 -11.931 87.2825
49.4439 -15.8404 87.2825
31.9385 -30.715 87.2825
38.9091 -34.6247 87.2825
44.4448 -24.7541 39.8184
38.9091 -34.6247 39.8184
47.3097 -19.6459 39.8184
49.4439 -15.8404 39.8184
49.4439 -15.8404 108.991
49.4439 -15.8404 112.097
49.4439 -15.8404 114.199
49.1195 -16.4188 114.199
45.0661 -23.6462 114.199
44.9243 -23.8991 114.199
38.9091 -34.6247 114.199
38.9091 -34.6247 112.097
38.9091 -34.6247 108.991
41.7785 -13.1697 112.097
41.7785 -13.1697 114.199
10.8817 4.15848 112.097
10.8817 4.15848 114.199
31.9385 -30.715 112.097
8.72805 4.47188 112.097
11.3931 5.07045 112.097
12.5628 4.84375 112.097
3.8107 9.32295 112.097
3.99384 9.64951 112.097
9.62105 6.06429 112.097
9.10962 5.15231 112.097
2.91765 7.73055 112.097
-5.51984 -7.31444 112.097
-6.53982 -9.13319 112.097
-5.63926 -9.63829 112.097
-0.729202 -12.3923 112.097
42.4732 -11.931 112.097
9.8042 6.39087 112.097
4.89451 9.14438 112.097
1.19636 4.66129 114.199
3.8107 9.32295 108.991
-5.51984 -7.31444 108.991
-5.51984 -7.31444 114.199
-3.88966 -4.40765 114.199
-3.26388 -3.29181 114.199
2.91765 7.73055 114.199
10.8817 4.15848 116.828
48.7492 -17.0792 116.828
10.8817 4.15848 122.441
11.8682 3.60519 122.441
41.7785 -13.1697 122.441
48.7492 -17.0792 122.441
6.60639 0.688544 116.828
12.5628 4.84375 116.828
62.568 -34.2336 116.828
42.4475 -28.3155 116.828
2.8081 -6.08455 116.828
-6.53982 -9.13319 116.828
46.2447 -21.5448 116.828
-3.00252 -2.82578 116.828
8.72805 4.47188 116.828
9.10962 5.15231 116.828
11.3931 5.07045 116.828
11.5763 5.39703 116.828
42.4732 -11.931 116.828
49.4439 -15.8404 116.828
49.2607 -16.1671 116.828
53.5236 -25.6276 116.828
60.683 -29.6434 116.828
64.0752 -31.5461 116.828
61.6545 -35.8623 116.828
60.2786 -38.3157 116.828
56.8863 -36.4132 116.828
49.7266 -32.3978 116.828
38.9091 -34.6247 116.828
31.9385 -30.715 116.828
60.683 -29.6434 122.441
64.0752 -31.5461 122.441
53.5236 -25.6276 122.441
46.2447 -21.5448 122.441
39.2742 -17.635 122.441
9.36474 -0.858635 122.441
8.0549 -3.19418 122.441
6.59981 -5.78872 122.441
5.56636 -7.63146 122.441
35.4768 -24.4061 122.441
42.4475 -28.3155 122.441
49.7266 -32.3978 122.441
56.8863 -36.4132 122.441
60.2786 -38.3157 122.441
27.9208 13.502 -104.588
23.0745 4.86069 -104.588
27.9208 13.502 -91.0805
25.2345 8.71218 -91.0805
23.0745 4.86069 -91.0805
11.3624 22.7884 -104.588
49.8419 1.20793 -104.588
11.01 22.1601 -104.588
8.10175 16.9744 -104.588
6.51625 14.1473 -104.588
44.9955 -7.43354 -104.588
7.5684 -22.7879 -104.588
2.73554 -31.4053 -104.588
7.5684 -22.7879 -91.0805
2.73554 -31.4053 -91.0805
71.4692 -28.1928 -119.089
60.934 -46.9781 -119.089
71.4692 -28.1928 -85.5033
69.6942 -31.3577 -85.5033
60.934 -46.9781 -85.5033
-8.98979 -13.5018 -104.588
29.4895 -35.0817 -104.588
-13.8225 -22.1191 -104.588
24.6566 -43.6992 -104.588
-8.98979 -13.5018 -85.5033
50.8992 -47.0887 -119.089
-1.64622 -17.6202 -119.089
-8.71261 -13.6572 -119.089
-8.98979 -13.5018 -119.089
7.5684 -22.7879 -85.5033
29.4895 -35.0817 -91.0805
50.8992 -47.0887 -104.588
67.2739 -42.2388 -4.09274
71.0702 -35.4696 -4.09274
67.2739 -42.2388 39.8184
71.0702 -35.4696 39.8184
53.3476 -42.723 -4.09274
56.7398 -44.6256 -4.09274
74.3604 -37.3151 -4.09274
72.6767 -36.3707 -4.09274
74.0869 -30.0905 -4.09274
74.2701 -29.7637 -4.09274
71.4692 -28.1928 -4.09274
63.8826 -23.9381 -4.09274
60.934 -46.9781 -4.09274
62.0708 -47.6157 -4.09274
63.7349 -48.5491 -4.09274
68.8804 -43.1398 -4.09274
70.5641 -44.0841 -4.09274
71.94 -41.6308 -4.09274
72.8535 -40.002 -4.09274
53.3476 -42.723 -85.5033
63.8826 -23.9381 -85.5033
53.3476 -42.723 -8.26834
53.3476 -42.723 39.8184
57.722 -34.923 39.8184
61.1286 -28.8488 39.8184
63.8826 -23.9381 39.8184
63.8826 -23.9381 -8.26834
-10.785 28.9132 -83.6525
-10.785 28.9132 -81.0327
-14.3182 22.6132 -83.6525
-17.0801 17.6886 -83.6525
-17.0801 17.6886 -81.0327
-15.6506 20.2375 -81.0327
-15.4675 20.564 -81.0327
-12.945 25.0619 -81.0327
-30.4577 7.97922 -85.5033
-32.035 5.16664 -85.5033
-22.2322 22.646 -85.5033
-20.3637 25.9776 -85.5033
-16.8193 32.2975 -85.5033
-16.8193 32.2975 -83.6525
-18.9792 28.4462 -83.6525
-21.5018 23.9483 -83.6525
-21.6849 23.6218 -83.6525
-30.5522 7.81075 -83.6525
-32.035 5.16664 -83.6525
-37.0102 -3.70447 -85.5033
-34.4857 0.796874 -85.5033
-10.4177 17.7319 -83.6525
-12.0303 14.8565 -83.6525
3.8107 9.32295 -83.6525
-10.6008 17.4054 -83.6525
-7.31604 15.9925 -83.6525
-4.79353 20.4902 -83.6525
-2.63357 24.3416 -83.6525
-5.7352 26.0811 -83.6525
-30.2725 7.65395 -83.6525
-24.5176 4.42698 -83.6525
-19.4676 1.59529 -83.6525
-20.9512 -1.05007 -83.6525
-6.53982 -9.13319 -83.6525
-0.474426 1.6821 -83.6525
-58.8804 57.9098 -83.6525
-36.9083 45.5872 -83.6525
-61.9033 52.5198 -83.6525
-64.426 48.0216 -83.6525
-64.6091 47.6952 -83.6525
-74.9583 29.2416 -83.6525
-77.4102 24.8697 -83.6525
-81.7843 17.0703 -83.6525
-59.8118 4.74742 -83.6525
-58.8569 6.45028 -83.6525
-57.962 8.04587 -83.6525
-55.4376 12.5471 -83.6525
-52.9864 16.9179 -83.6525
-42.6369 35.3724 -83.6525
-42.4538 35.6988 -83.6525
-39.9312 40.1969 -83.6525
-37.7714 44.0481 -83.6525
-36.9639 45.4879 -83.6525
-64.787 6.4632 -119.089
-58.8804 57.9098 -119.089
-61.9033 52.5198 -119.089
-64.426 48.0216 -119.089
-64.6091 47.6952 -119.089
-74.9583 29.2416 -119.089
-77.4102 24.8697 -119.089
-81.7843 17.0703 -119.089
-82.2427 16.2529 -119.089
-83.564 13.8969 -119.089
-84.8393 11.6229 -119.089
-67.3839 1.83339 -119.089
-66.1088 4.10664 -119.089
-63.974 6.00726 -119.089
-40.6096 47.663 -119.089
-64.3286 7.28055 -116.471
-63.974 6.00726 -116.471
-58.8804 57.9098 -116.471
-61.9033 52.5198 -116.471
-64.426 48.0216 -116.471
-64.6091 47.6952 -116.471
-74.9583 29.2416 -116.471
-77.4102 24.8697 -116.471
-81.7843 17.0703 -116.471
-64.787 6.4632 -116.471
-40.6096 47.663 -116.471
62.8934 -53.8153 -130.696
62.7352 -54.0974 -130.696
65.3415 -49.4502 -130.696
75.6934 -30.9915 -130.696
75.8767 -30.6647 -130.696
78.3988 -26.1675 -130.696
78.5239 -25.9445 -130.696
78.5239 -25.9445 -119.089
78.3988 -26.1675 -119.089
75.8767 -30.6647 -119.089
68.2534 -44.2578 -119.089
65.3415 -49.4502 -119.089
62.8934 -53.8153 -119.089
62.7352 -54.0974 -119.089
-36.4886 48.7993 -119.089
-36.1365 49.4272 -119.089
11.01 22.1601 -119.089
11.3624 22.7884 -119.089
-3.04899 30.8708 -119.089
-35.0853 48.8377 -119.089
-39.1386 50.2855 -119.089
-60.2702 3.93006 -119.089
-28.2344 -14.0365 -119.089
-13.8225 -22.1191 -119.089
6.51625 14.1473 -119.089
2.65131 7.25563 39.8184
3.8107 9.32295 39.8184
1.31861 4.87928 39.8184
-6.53982 -9.13319 39.8184
-6.53982 -9.13319 108.991
-5.63926 -9.63829 108.991
-2.7786 -16.0467 108.991
44.5034 -8.3111 108.991
4.89451 9.14438 108.991
31.9385 -30.715 108.991
-6.51893 15.1162 108.991
-15.8496 -1.52114 108.991
-7.68887 -13.2929 108.991
29.8897 -34.3681 108.991
42.4732 -11.931 108.991
14.5929 8.46351 108.991
11.8341 10.0107 108.991
6.92454 12.7641 108.991
3.99384 9.64951 108.991
44.9955 -7.43354 39.8184
29.4895 -35.0817 39.8184
29.4895 -35.0817 87.2825
33.1438 -28.5659 39.8184
38.0349 -19.8447 39.8184
40.6382 -15.2029 39.8184
42.4451 -11.9811 39.8184
44.9955 -7.43354 87.2825
44.5034 -8.3111 87.2825
42.4732 -11.931 114.199
42.0807 -12.6309 114.199
37.6349 -20.558 114.199
37.4377 -20.9097 114.199
31.9385 -30.715 114.199
-6.84731 14.5306 39.8184
-6.51893 15.1162 39.8184
-7.22479 13.8576 39.8184
-9.45059 9.8888 39.8184
-16.8694 -3.3395 39.8184
-16.8694 -3.3395 108.991
61.6545 -35.8623 101.377
56.7398 -44.6256 39.8184
60.8414 -37.3122 39.8184
64.3753 -31.011 39.8184
67.275 -25.8406 39.8184
67.275 -25.8406 93.8946
67.0918 -26.1674 93.8946
64.0752 -31.5461 101.377
62.568 -34.2336 101.377
60.2786 -38.3157 101.377
56.7398 -44.6256 93.8946
63.6994 -24.2648 114.199
8.72805 4.47188 114.199
0.0314136 -4.5273 114.199
-11.1535 -0.333784 114.199
46.1881 -38.7074 114.199
56.8863 -36.4132 114.199
62.568 -34.2336 114.199
2.8081 -6.08455 114.199
64.0752 -31.5461 114.199
60.683 -29.6434 114.199
63.8826 -23.9381 114.199
56.723 -19.9227 114.199
12.5628 4.84375 114.199
11.5763 5.39703 114.199
11.3931 5.07045 114.199
9.10962 5.15231 114.199
7.00684 1.40262 114.199
6.60639 0.688544 114.199
3.82997 2.24585 114.199
4.23035 2.95975 114.199
-6.06743 8.73501 114.199
-6.53982 -9.13319 114.199
53.3476 -42.723 114.199
60.2786 -38.3157 114.199
61.6545 -35.8623 114.199
6.51625 14.1473 -85.5033
66.4048 -19.4408 -119.089
24.7805 3.90389 -119.089
20.7769 6.14929 -119.089
8.26484 13.1666 -119.089
6.58225 14.1102 -119.089
6.51625 14.1473 -109.998
6.51625 14.1473 -97.5362
23.0745 4.86069 -85.5033
44.9955 -7.43354 -91.0805
66.4048 -19.4408 -104.588
59.2453 -15.4254 -85.5033
46.1881 -38.7074 -8.26834
56.723 -19.9227 -8.26834
43.7395 -43.0734 -85.5033
43.7395 -43.0734 -8.26834
47.7489 -35.9242 -85.5033
57.9737 -17.6926 -85.5033
59.2453 -15.4254 -8.26834
56.723 -19.9227 39.8184
54.2763 -24.2854 39.8184
51.1384 -29.8806 39.8184
46.1881 -38.7074 39.8184
-13.4795 -22.3114 -119.089
-6.0582 -29.5745 -119.089
67.0251 -50.3945 -119.089
49.8419 1.20793 -119.089
-4.7352 -27.2155 -119.089
-14.8023 -24.6701 -119.089
24.6566 -43.6992 -119.089
46.0662 -55.7063 -119.089
58.4858 -51.3434 -119.089
77.3773 -31.9358 -119.089
77.5605 -31.6091 -119.089
73.9913 -23.6956 -119.089
71.2513 -10.7991 -119.089
74.3604 -37.3151 -85.5033
51.9662 -11.343 -85.5033
3.99384 9.64951 -85.5033
3.8107 9.32295 -85.5033
-6.53982 -9.13319 -85.5033
29.4895 -35.0817 -85.5033
36.4603 -38.991 -85.5033
50.8992 -47.0887 -85.5033
56.7398 -44.6256 -85.5033
62.0708 -47.6157 -85.5033
63.7349 -48.5491 -85.5033
65.3415 -49.4502 -85.5033
67.0251 -50.3945 -85.5033
70.5641 -44.0841 -85.5033
77.3773 -31.9358 -85.5033
77.5605 -31.6091 -85.5033
75.8767 -30.6647 -85.5033
74.2701 -29.7637 -85.5033
66.4048 -19.4408 -85.5033
44.9955 -7.43354 -85.5033
11.01 22.1601 -130.696
-3.40132 30.2425 -130.696
-39.1386 50.2855 -130.696
-39.1386 50.2855 -129.885
-36.4886 48.7993 -118.734
-36.4886 48.7993 -85.5033
-35.4375 48.2098 -85.5033
-3.40132 30.2425 -85.5033
11.01 22.1601 -85.5033
11.01 22.1601 -117.522
11.01 22.1601 -118.428
11.01 22.1601 -119.244
-37.2738 53.6102 -130.696
-65.2958 3.65065 -130.696
-65.2958 3.65065 -119.089
-63.974 6.00726 -130.696
-59.141 14.624 -130.696
-56.6894 18.9948 -130.696
-46.3388 37.4486 -130.696
-46.1557 37.775 -130.696
-43.6328 42.273 -130.696
-40.6096 47.663 -130.696
-38.7864 50.9134 -130.696
-37.2738 53.6102 -119.089
-38.7864 50.9134 -119.089
-40.6096 47.663 -118.734
-40.6096 47.663 -85.5033
-42.4858 44.3179 -85.5033
-43.2812 42.8999 -85.5033
-46.7826 36.6574 -85.5033
-47.454 35.4603 -85.5033
-48.4972 33.6005 -85.5033
-49.5717 31.6847 -85.5033
-58.8608 15.1234 -85.5033
-63.5156 6.82461 -85.5033
-63.974 6.00726 -85.5033
-36.9639 45.4879 -85.5033
-48.1442 43.4824 -67.284
-52.6197 43.6355 -67.284
-43.9787 42.467 -67.284
-46.8865 44.0977 -67.284
-47.5807 44.4871 -67.284
-51.6141 45.4285 -67.284
-56.2886 45.6931 -67.284
-57.2423 43.9927 -67.284
-57.4253 43.6663 -67.284
-67.7748 25.2125 -67.284
-59.9418 20.8191 -67.284
-57.0341 19.1882 -67.284
-46.6845 37.6424 -67.284
-46.5014 37.9689 -67.284
-6.53982 -9.13319 -67.284
3.8107 9.32295 -67.284
-20.9512 -1.05007 -67.284
-10.6008 17.4054 -67.284
-6.53982 -9.13319 -81.0327
-15.1453 -24.4777 -130.696
12.8748 25.4853 -130.696
12.8748 25.4853 -119.089
11.3624 22.7884 -130.696
6.51625 14.1473 -130.696
3.99384 9.64951 -130.696
3.8107 9.32295 -130.696
-6.53982 -9.13319 -130.696
-8.98979 -13.5018 -130.696
-13.8225 -22.1191 -130.696
-15.1453 -24.4777 -119.089
-13.8225 -22.1191 -115.062
36.4603 -38.991 39.8184
70.2563 -40.6865 39.8184
62.0708 -47.6157 39.8184
71.1698 -39.0577 39.8184
63.7349 -48.5491 39.8184
68.8804 -43.1398 39.8184
72.6767 -36.3707 39.8184
74.0869 -30.0905 39.8184
74.2701 -29.7637 39.8184
71.4692 -28.1928 39.8184
-8.98979 -13.5018 39.8184
6.51625 14.1473 39.8184
-20.9512 -1.05007 39.8184
3.99384 9.64951 39.8184
-10.6008 17.4054 39.8184
-54.9921 64.843 -130.696
-54.9921 64.843 -119.089
-36.7209 54.596 -119.089
-36.7209 54.596 -130.696
8.72805 4.47188 115.328
3.82997 2.24585 115.328
4.23035 2.95975 115.328
1.19636 4.66129 115.328
7.00684 1.40262 115.328
-46.6845 37.6424 -65.7028
-46.5014 37.9689 -65.7028
59.1756 -32.3311 126.328
62.568 -34.2336 126.328
3.8107 9.32295 114.199
9.62105 6.06429 114.199
3.99384 9.64951 114.199
-7.31604 15.9925 -85.5033
-4.79353 20.4902 -85.5033
-4.79353 20.4902 -81.0327
11.3931 5.07045 122.441
8.37828 -0.305322 122.441
64.4188 -55.0416 -119.089
64.4188 -55.0416 -130.696
80.2078 -26.8888 -130.696
80.2078 -26.8888 -119.089
66.9856 -38.8522 101.377
-12.0303 14.8565 -85.5033
-17.0801 17.6886 -85.5033
-51.6141 45.4285 -65.7028
-48.1442 43.4824 -65.7028
-55.283 47.4862 -67.284
-7.68887 -13.2929 112.097
56.5398 -20.2494 116.828
56.723 -19.9227 116.828
63.8826 -23.9381 116.828
63.6994 -24.2648 116.828
42.4732 -11.931 122.441
42.29 -12.2576 122.441
-61.4422 36.504 -61.1087
-59.3472 28.5303 -61.1087
-59.3472 28.5303 -57.9254
-61.4422 36.504 -57.9254
-56.5097 26.9389 -61.1087
-56.5097 26.9389 -57.9254
-64.3428 31.332 -57.9254
-64.3428 31.332 -61.1087
-53.3642 32.5475 -61.1087
-61.1973 36.9406 -61.1087
-61.1973 36.9406 -57.9254
-53.3642 32.5475 -57.9254
-52.3416 34.3708 -61.1087
-52.3416 34.3708 -57.9254
-60.1748 38.7638 -57.9254
-60.1748 38.7638 -61.1087
-65.1257 29.936 -61.1087
-65.1257 29.936 -57.9254
-57.2926 25.5429 -61.1087
-57.2926 25.5429 -57.9254
-59.9418 20.8191 -61.1087
-67.7748 25.2125 -61.1087
-57.4253 43.6663 -61.1087
-49.5922 39.2732 -61.1087
-49.5922 39.2732 -57.9254
-49.4092 39.5996 -57.9254
-57.4253 43.6663 -65.7028
-57.2423 43.9927 -65.7028
-57.4253 43.6663 -57.9254
-57.2423 43.9927 -57.9254
49.4439 -15.8404 122.441
49.2607 -16.1671 122.441
-2.63357 24.3416 -85.5033
-2.63357 24.3416 -81.0327
-5.7352 26.0811 -85.5033
-5.7352 26.0811 -81.0327
8.67619 17.9987 -85.5033
-7.89514 22.2298 -81.0327
6.51625 14.1473 -81.0327
12.3796 4.51717 122.441
6.60639 0.688544 122.441
6.60639 0.688544 115.328
-21.6849 23.6218 -81.0327
-21.5018 23.9483 -81.0327
-12.0303 14.8565 -81.0327
-47.5807 44.4871 -65.7028
-56.2886 45.6931 -65.7028
6.92454 12.7641 112.097
-43.9787 42.467 -65.7028
71.1698 -39.0577 -0.134231
70.2563 -40.6865 -0.134231
71.94 -41.6308 -0.134231
72.8535 -40.002 -0.134231
68.8804 -43.1398 -0.134231
70.5641 -44.0841 -0.134231
72.6767 -36.3707 -0.134231
74.3604 -37.3151 -0.134231
71.1698 -39.0577 50.3116
70.2563 -40.6865 50.3116
-10.6008 17.4054 -81.0327
-10.4177 17.7319 -81.0327
-42.4538 35.6988 -81.0327
-42.6369 35.3724 -81.0327
0.0314136 -4.5273 115.328
71.4692 -28.1928 50.3116
71.2859 -28.5196 50.3116
72.4228 -29.1572 50.3116
74.0869 -30.0905 50.3116
74.2701 -29.7637 50.3116
-67.3839 1.83339 -116.471
-66.1088 4.10664 -116.471
65.3415 -49.4502 -4.09274
67.0251 -50.3945 -4.09274
46.1881 -38.7074 116.828
46.1881 -38.7074 112.097
53.3476 -42.723 116.828
-16.0117 33.7375 -85.5033
-16.0117 33.7375 -83.6525
-15.9561 33.8366 -85.5033
11.8341 10.0107 112.097
6.02385 13.2693 108.991
-52.3416 34.3708 -65.7028
-49.4338 32.7401 -65.7028
-49.4338 32.7401 -61.1087
-11.1535 -0.333784 115.328
-6.06743 8.73501 115.328
9.20654 -7.25064 126.328
9.20654 -7.25064 128.32
10.6617 -4.65613 128.32
10.6617 -4.65613 126.328
-84.8393 11.6229 -116.471
-83.564 13.8969 -116.471
-66.1088 4.10664 -130.696
-67.3839 1.83339 -130.696
-84.8393 11.6229 -130.696
-36.1365 49.4272 -118.734
-36.1365 49.4272 -85.5033
-9.13335 10.4545 114.199
-3.88966 -4.40765 115.328
-14.2194 1.38568 114.199
-7.41199 13.5238 114.199
-5.51984 -7.31444 115.328
-3.00252 -2.82578 115.328
0.796094 3.94757 115.328
-6.53982 -9.13319 115.328
-2.7786 -16.0467 112.097
-8.58943 -12.7879 108.991
-19.4676 1.59529 -85.5033
-24.5176 4.42698 -85.5033
71.2859 -28.5196 93.8946
71.4692 -28.1928 93.8946
2.8081 -6.08455 115.328
33.0994 -17.2397 126.328
31.6443 -19.8343 126.328
31.6443 -19.8343 128.32
33.0994 -17.2397 128.32
37.3278 -23.0218 126.328
38.7829 -20.4272 126.328
38.7829 -20.4272 128.32
37.3278 -23.0218 128.32
-39.1386 50.2855 -118.734
-39.1386 50.2855 -85.5033
-35.0853 48.8377 -118.734
84.7578 -14.8287 -130.696
84.7578 -14.8287 -119.089
83.2453 -17.5257 -119.089
83.2453 -17.5257 -130.696
-36.9083 45.5872 -85.5033
31.6443 -19.8343 130.702
33.0994 -17.2397 130.702
38.7829 -20.4272 130.702
37.3278 -23.0218 130.702
8.0549 -3.19418 128.32
6.59981 -5.78872 128.32
6.59981 -5.78872 126.328
43.481 -26.4727 126.328
8.0549 -3.19418 126.328
-8.98979 -13.5018 -83.6525
2.8081 -6.08455 122.441
-58.8569 6.45028 -85.5033
-37.9051 -5.30018 -85.5033
-37.9051 -5.30018 -83.6525
-46.8865 44.0977 -65.7028
-4.7352 -27.2155 -115.062
-6.0582 -29.5745 -115.062
-14.8023 -24.6701 -115.062
-13.4795 -22.3114 -115.062
-19.4676 1.59529 -81.0327
75.6934 -30.9915 -4.09274
75.8767 -30.6647 -4.09274
77.3773 -31.9358 -4.09274
77.5605 -31.6091 -4.09274
69.4062 -34.5362 57.3895
65.6097 -41.3055 57.3895
67.2739 -42.2388 57.3895
71.0702 -35.4696 57.3895
44.9361 -23.878 126.328
-48.4555 41.3002 -57.9254
-56.2886 45.6931 -57.9254
-57.0341 19.1882 -65.7028
-54.3848 23.9121 -65.7028
-15.8496 -1.52114 112.097
-15.8496 -1.52114 114.199
-57.2926 25.5429 -65.7028
-54.3848 23.9121 -61.1087
-18.9792 28.4462 -81.0327
-16.8193 32.2975 -81.0327
-37.7714 44.0481 -81.0327
-10.6008 17.4054 108.991
-20.9512 -1.05007 108.991
3.8107 9.32295 -81.0327
-20.9512 -1.05007 -81.0327
3.8107 9.32295 114.199
72.6767 -36.3707 50.3116
68.8804 -43.1398 50.3116
71.0702 -35.4696 50.3116
53.6528 -59.9611 -119.089
53.6528 -59.9611 -130.696
58.4858 -51.3434 -130.696
60.2786 -38.3157 126.328
64.0752 -31.5461 126.328
56.8863 -36.4132 126.328
60.683 -29.6434 126.328
-59.9418 20.8191 -65.7028
-39.9312 40.1969 -81.0327
51.9662 -11.343 39.8184
78.8378 -15.0538 -119.089
78.8378 -15.0538 -130.696
73.9913 -23.6956 -130.696
69.4062 -34.5362 50.3116
5.56636 -7.63146 126.328
9.36474 -0.858635 126.328
-34.4857 0.796874 -83.6525
-38.8601 -7.00304 -85.5033
60.934 -46.9781 50.3116
62.0708 -47.6157 50.3116
65.6097 -41.3055 50.3116
51.4741 -12.2205 87.2825
58.4858 -51.3434 -85.5033
64.577 -54.7595 -119.089
12.3265 10.8886 108.991
-82.2427 16.2529 -116.471
-60.2702 3.93006 -116.471
25.2345 8.71218 -85.5033
-36.9083 45.5872 -81.0327
-59.8118 4.74742 -85.5033
62.0708 -47.6157 -8.26834
60.934 -46.9781 -8.26834
42.4475 -28.3155 126.328
46.2447 -21.5448 126.328
69.4062 -34.5362 93.8946
44.7422 -58.0673 -119.089
-54.7195 48.4909 -67.284
27.9208 13.502 -85.5033
47.1556 -3.58194 -91.0805
65.6097 -41.3055 93.8946
-52.9864 16.9179 -81.0327
-60.2702 3.93006 -85.5033
2.73554 -31.4053 -85.5033
67.0251 -50.3945 -8.26834
70.5641 -44.0841 -8.26834
65.3415 -49.4502 -8.26834
73.9913 -23.6956 -85.5033
36.4603 -38.991 87.2825
80.0827 -27.1119 -119.089
63.7349 -48.5491 -8.26834
-8.98979 -13.5018 108.991
29.4895 -35.0817 108.991
72.7638 -8.10214 -119.089
60.934 -46.9781 93.8946
-81.7843 17.0703 -85.5033
-59.9418 20.8191 -57.9254
44.9955 -7.43354 108.991
6.51625 14.1473 108.991
72.7638 -8.10214 -130.696
71.2513 -10.7991 -130.696
-55.4376 12.5471 -67.284
-59.8118 4.74742 -67.284
-52.9864 16.9179 -67.284
-36.7306 -3.8613 -85.5033
-10.6008 17.4054 -85.5033
66.4048 -19.4408 -8.26834
-58.8804 57.9098 -85.5033
77.5605 -31.6091 -130.696
77.3773 -31.9358 -130.696
-67.7748 25.2125 -57.9254
-30.2725 7.65395 -85.5033
-10.4177 17.7319 -85.5033
46.0662 -55.7063 -104.588
-61.9033 52.5198 -85.5033
-64.426 48.0216 -85.5033
-64.6091 47.6952 -85.5033
-74.9583 29.2416 -85.5033
-77.4102 24.8697 -85.5033
-64.3286 7.28055 -85.5033
24.6566 -43.6992 -91.0805
-35.0853 48.8377 -85.5033
-34.2061 0.640051 -85.5033
-31.7554 5.00981 -85.5033
-36.9083 45.5872 -67.284
-39.9312 40.1969 -67.284
-20.9512 -1.05007 -85.5033
-4.87196 27.6203 -85.5033
-1.5365 33.5676 -130.696
43.7395 -43.0734 39.8184
-57.0574 61.1603 -119.089
71.2513 -10.7991 -104.588
-13.8225 -22.1191 -91.0805
-13.8225 -22.1191 -85.5033
49.8419 1.20793 -91.0805
11.3624 22.7884 -91.0805
66.4048 -19.4408 -91.0805
11.3624 22.7884 -85.5033
44.7422 -58.0673 -130.696
-3.04899 30.8708 -85.5033
51.4741 -12.2205 39.8184
51.9662 -11.343 87.2825
-28.2344 -14.0365 -85.5033
-23.4016 -5.4193 -85.5033
58.0605 -62.433 -119.089
58.0605 -62.433 -130.696
24.6566 -43.6992 -115.062
-28.2344 -14.0365 -115.062
-42.6369 35.3724 -67.284
-61.592 1.57323 -119.089
-29.5569 -16.3945 -130.696
-83.564 13.8969 -130.696
-82.2427 16.2529 -130.696
-30.5522 7.81075 -81.0327
-24.5176 4.42698 -81.0327
-3.00252 -2.82578 122.441
-6.53982 -9.13319 122.441
31.9385 -30.715 122.441
38.9091 -34.6247 122.441
-3.17893 -16.7606 108.991
65.6097 -41.3055 101.377
69.4062 -34.5362 101.377
-55.545 63.8572 -119.089
46.0662 -55.7063 -130.696
50.8992 -47.0887 -130.696
44.5034 -8.3111 112.097
-31.7554 5.00981 -83.6525
56.7361 -64.7945 -130.696
64.577 -54.7595 -130.696
56.7361 -64.7945 -119.089
-28.2344 -14.0365 -130.696
-36.7306 -3.8613 -83.6525
-34.2061 0.640051 -83.6525
-6.51893 15.1162 114.199
-6.51893 15.1162 112.097
66.4048 -19.4408 -130.696
64.6982 -40.2661 39.8184
68.3894 -33.6843 39.8184
68.8804 -43.1398 57.3895
72.6767 -36.3707 57.3895
-1.5365 33.5676 -119.089
-37.0102 -3.70447 -83.6525
-61.9033 52.5198 -67.284
-64.426 48.0216 -67.284
-42.4538 35.6988 -67.284
-25.9262 -9.9207 -85.5033
-64.6091 47.6952 -67.284
-61.9033 52.5198 -130.696
-64.426 48.0216 -130.696
-64.6091 47.6952 -130.696
-74.9583 29.2416 -67.284
-77.4102 24.8697 -67.284
53.3476 -42.723 -130.696
-29.5569 -16.3945 -119.089
14.5929 8.46351 112.097
-77.4102 24.8697 -130.696
-64.787 6.4632 -85.5033
-23.4016 -5.4193 -130.696
58.2622 -33.9598 128.607
61.6545 -35.8623 128.607
-74.9583 29.2416 -130.696
62.568 -34.2336 128.607
59.1756 -32.3311 128.607
67.275 -25.8406 57.3895
71.4692 -28.1928 57.3895
67.2739 -42.2388 50.3116
-67.7748 25.2125 -65.7028
-28.2344 -14.0365 -104.588
61.6545 -35.8623 126.328
71.2859 -28.5196 57.3895
58.2622 -33.9598 126.328
23.3329 -46.0593 -119.089
57.8897 -42.5753 57.3895
80.0827 -27.1119 -130.696
59.2453 -15.4254 39.8184
9.93185 -7.65742 126.328
11.387 -5.06288 126.328
11.387 -5.06288 128.32
9.93185 -7.65742 128.32
63.8826 -23.9381 -130.696
63.7349 -48.5491 50.3116
9.8042 6.39087 114.199
11.5763 5.39703 122.441
-7.31604 15.9925 -81.0327
-55.545 63.8572 -130.696
-58.8804 57.9098 -67.284
46.1881 -38.7074 108.991
3.99384 9.64951 -81.0327
-57.0574 61.1603 -130.696
-26.0009 1.78218 -85.5033
12.5628 4.84375 122.441
-58.8804 57.9098 -130.696
-51.6966 53.881 -67.284
-4.87196 27.6203 -130.696
50.8992 -47.0887 -8.26834
67.0251 -50.3945 -130.696
-10.6008 17.4054 -130.696
9.10962 5.15231 122.441
-81.7843 17.0703 -67.284
29.8897 -34.3681 112.097
-3.04899 30.8708 -130.696
-7.89514 22.2298 -130.696
9.10962 5.15231 115.328
-28.2344 -14.0365 -91.0805
-10.4177 17.7319 -130.696
-20.9512 -1.05007 -130.696
-27.7762 -13.2193 -85.5033
50.8992 -47.0887 -91.0805
4  924 486 485 915  255 0 0
4  924 440 439 876  255 0 0
4  923 442 441 915  255 0 0
4  923 484 483 920  255 0 0
4  923 915 485 484  255 0 0
4  924 915 441 440  255 0 0
4  920 443 442 923  255 0 0
5  920 483 423 424 912  255 0 0
4  920 912 444 443  255 0 0
4  919 424 423 482  255 30 0
4  919 807 435 445  255 30 0
4  919 482 480 807  255 30 0
4  876 487 486 924  255 0 0
4  914 269 267 847  255 61 0
4  847 743 392 914  255 61 0
4  788 270 269 914  255 61 0
4  914 392 399 788  255 61 0
5  485 270 271 898 484  255 91 0
5  486 871 269 270 485  255 91 0
4  879 440 441 868  255 122 0
4  868 441 442 867  255 122 0
4  868 245 246 879  255 122 0
4  869 228 227 865  255 153 0
4  477 505 503 476  255 183 0
4  477 603 714 475  255 214 0
6  476 715 691 588 603 477  255 214 0
5  476 503 329 295 474  255 183 0
4  869 865 468 469  255 153 0
4  487 843 871 486  255 91 0
4  407 221 681 153  255 244 0
4  415 763 764 416  234 255 0
8  415 392 278 145 148 412 413 414  203 255 0
6  153 681 501 312 408 158  255 244 0
4  415 414 765 763  234 255 0
4  410 381 382 913  173 255 0
6  410 742 398 154 160 926  142 255 0
5  180 411 148 742 410  142 255 0
5  180 182 165 166 411  234 255 0
4  410 913 182 180  173 255 0
4  892 272 271 787  255 61 0
4  787 271 270 788  255 61 0
4  787 400 768 892  255 61 0
4  484 898 854 483  255 91 0
5  483 854 779 482 423  255 91 0
4  418 695 693 419  234 255 0
4  367 582 906 405  255 244 0
6  367 375 422 311 502 582  255 244 0
7  418 419 420 146 144 276 400  203 255 0
5  181 146 171 172 187  234 255 0
6  421 378 404 422 376 815  142 255 0
4  421 766 146 181  142 255 0
4  421 785 385 378  173 255 0
4  181 187 785 421  173 255 0
4  892 529 273 272  255 61 0
4  892 768 530 529  255 61 0
4  482 779 778 480  255 91 0
4  816 814 131 757  112 255 0
5  816 757 747 580 431  112 255 0
4  367 580 747 375  112 255 0
4  874 439 440 879  255 122 0
4  874 879 246 247  255 122 0
4  847 267 268 528  255 61 0
4  487 876 849 488  255 0 0
4  876 439 438 849  255 0 0
4  849 829 479 488  255 0 0
4  849 438 436 829  255 0 0
4  831 438 439 874  255 122 0
5  874 247 248 249 831  255 122 0
4  870 229 228 869  255 153 0
4  870 917 230 229  255 153 0
4  870 780 781 917  255 153 0
7  870 869 469 470 471 782 780  255 153 0
6  417 399 392 415 416 403  203 255 0
4  406 211 212 784  81 255 0
4  417 403 167 694  234 255 0
4  867 442 443 866  255 122 0
4  866 443 444 910  255 122 0
4  867 866 243 244  255 122 0
4  862 226 225 861  255 153 0
6  862 861 756 536 466 467  255 153 0
4  835 96 98 834  51 255 0
4  835 836 114 96  51 255 0
4  409 408 312 491  255 244 0
6  409 381 410 926 159 408  142 255 0
4  837 113 114 836  51 255 0
5  409 491 808 382 381  255 244 0
4  805 220 221 407  81 255 0
4  784 212 209 791  81 255 0
4  805 651 219 220  81 255 0
5  404 378 385 893 729  255 244 0
4  574 542 103 104  20 255 0
4  404 729 311 422  255 244 0
5  148 411 166 173 751  234 255 0
4  148 751 750 412  234 255 0
4  854 732 731 779  255 91 0
5  779 731 670 667 778  255 91 0
6  421 815 377 368 401 766  142 255 0
4  413 412 750 769  234 255 0
4  413 769 765 414  234 255 0
6  818 285 284 134 814 816  0 255 10
4  818 816 431 430  0 255 10
4  367 523 576 580  0 255 40
4  795 227 228 796  0 255 71
4  796 262 261 795  0 255 102
4  796 228 229 797  0 255 71
4  805 908 652 651  0 255 40
4  480 778 772 481  255 91 0
4  919 445 425 424  255 30 0
4  907 445 435 903  255 122 0
5  907 910 444 425 445  255 122 0
4  861 225 223 904  255 153 0
4  866 910 242 243  255 122 0
4  907 809 242 910  255 122 0
6  806 430 431 580 576 578  0 255 40
4  912 424 425 444  255 0 0
6  904 223 224 748 803 911  255 153 0
4  861 904 911 756  255 153 0
4  220 715 478 221  255 214 0
4  212 603 604 209  255 214 0
4  220 219 691 715  255 214 0
4  847 528 527 743  255 61 0
4  829 872 489 479  255 0 0
4  488 842 843 487  255 91 0
4  812 811 922 821  0 255 40
4  812 762 143 811  0 255 132
4  153 158 762 812  0 255 132
4  842 721 722 843  255 91 0
4  842 488 479 817  255 91 0
5  843 722 267 269 871  255 91 0
4  797 229 230 774  0 255 71
4  797 263 262 796  0 255 102
8  821 922 886 826 289 288 746 761  0 255 40
4  797 774 264 263  0 255 102
4  822 864 783 801  0 255 40
5  821 761 749 737 925  0 255 40
4  127 111 112 126  51 255 0
4  834 98 95 682  51 255 0
5  127 126 125 752 725  0 255 163
4  837 836 124 125  51 255 0
6  836 835 834 682 123 124  51 255 0
5  115 726 753 118 117  0 255 163
4  115 117 106 107  51 255 0
5  831 830 636 436 438  255 122 0
4  831 249 250 830  255 122 0
4  830 638 637 636  255 122 0
4  830 250 251 638  255 122 0
5  829 436 437 828 872  255 0 0
4  782 471 472 827  255 153 0
5  236 204 205 206 235  0 255 71
4  235 760 606 236  255 153 0
4  782 827 606 760  255 153 0
4  422 375 133 376  142 255 0
4  542 909 92 103  20 255 0
4  125 126 112 94  51 255 0
5  125 124 123 734 752  0 255 163
4  118 97 106 117  51 255 0
4  127 725 723 128  0 255 163
4  290 490 690 390  0 255 193
4  397 792 160 154  0 255 193
5  397 396 825 152 792  0 255 193
4  791 209 213 522  81 255 0
4  367 405 522 523  0 255 40
6  822 153 812 821 925 864  0 255 40
4  786 223 225 793  0 255 71
4  786 258 266 449  0 255 102
5  786 449 671 224 223  0 255 71
5  818 800 666 286 285  0 255 10
4  818 430 429 800  0 255 10
5  806 622 671 429 430  0 255 40
4  837 125 94 113  51 255 0
4  805 407 153 822  0 255 40
4  368 377 810 402  0 255 224
4  402 810 135 393  0 255 224
5  284 393 135 129 134  0 255 224
4  118 119 89 90  51 255 0
4  363 72 71 81  0 255 255
5  363 648 96 114 324  0 224 255
6  324 62 74 73 72 363  0 255 255
4  324 114 113 55  0 224 255
6  925 737 684 207 783 864  0 255 40
4  917 781 231 230  255 153 0
6  774 230 231 749 457 798  0 255 71
5  57 31 44 43 301  0 193 255
4  57 56 618 905  0 163 255
4  905 32 31 57  0 163 255
6  905 618 346 364 39 32  0 163 255
7  805 822 801 208 197 802 908  0 255 40
10  521 67 77 76 65 75 320 354 355 900  0 132 255
4  320 103 92 354  0 224 255
4  320 75 50 51  0 193 255
7  416 764 177 178 179 167 403  234 255 0
5  539 353 19 352 540  0 224 255
7  817 479 489 395 391 890 755  255 91 0
5  817 846 824 721 842  255 91 0
4  817 755 848 846  255 91 0
4  619 364 346 617  0 224 255
4  617 346 55 113  0 224 255
4  575 90 89 543  20 255 0
4  118 90 86 97  51 255 0
4  575 105 86 90  20 255 0
4  104 51 353 539  0 224 255
4  48 42 741 819  0 102 255
4  893 385 380 386  255 244 0
4  729 820 318 311  0 102 255
5  386 380 187 172 186  173 255 0
5  386 37 38 42 48  0 71 255
4  729 819 741 820  0 102 255
5  729 893 386 48 819  255 244 0
4  115 107 108 116  51 255 0
4  726 115 116 724  0 255 163
4  289 826 490 290  0 255 40
4  289 290 489 872  255 0 0
4  290 390 395 489  255 91 0
4  397 755 890 396  255 91 0
4  811 151 886 922  0 255 40
4  926 160 150 159  142 255 0
4  811 143 141 151  0 255 132
4  402 730 401 368  255 91 0
4  768 275 274 530  255 61 0
4  814 134 129 131  112 255 0
4  815 376 139 377  142 255 0
4  376 133 132 758  0 40 255
4  813 131 129 135  0 40 255
4  813 758 132 131  0 40 255
5  376 758 813 135 139  0 40 255
6  37 353 51 50 49 38  0 163 255
5  37 386 186 36 21  0 71 255
5  36 186 335 882 336  0 71 255
4  36 352 19 21  0 10 255
4  37 21 19 353  0 163 255
5  186 172 171 500 335  20 0 255
4  810 377 139 135  0 255 224
4  793 225 226 794  0 255 71
4  793 259 258 786  0 255 102
4  794 260 259 793  0 255 102
4  56 55 346 618  0 163 255
4  56 57 301 62  0 193 255
4  62 324 55 56  0 193 255
4  62 301 305 918  50 0 255
4  242 258 259 243  81 0 255
5  242 255 448 266 258  81 0 255
5  809 447 287 255 242  255 122 0
4  491 767 44 46  0 102 255
4  389 379 382 808  255 244 0
4  389 32 39 183  0 71 255
5  46 44 31 32 389  0 71 255
4  46 389 808 491  255 244 0
4  480 481 859 807  255 30 0
5  806 578 200 620 622  0 255 40
7  804 462 463 464 756 911 803  255 153 0
4  238 239 201 202  0 255 71
4  238 728 711 239  255 153 0
5  804 803 748 711 728  255 153 0
5  224 240 239 711 748  255 153 0
4  800 640 639 666  0 255 10
5  671 449 665 428 429  0 255 40
4  671 622 620 459  0 255 40
4  800 429 428 640  0 255 10
4  286 666 639 282  0 255 10
4  396 394 687 825  0 255 193
4  799 143 142 159  112 0 255
4  159 142 158 408  142 255 0
4  799 152 141 143  112 0 255
4  799 159 150 152  112 0 255
7  152 825 687 690 490 151 141  0 255 193
4  160 792 152 150  0 255 193
5  118 753 735 120 119  0 255 163
4  469 885 727 470  142 0 255
4  468 570 885 469  142 0 255
4  789 565 560 561  173 0 255
4  789 775 564 565  173 0 255
4  572 558 559 566  173 0 255
4  572 568 557 558  173 0 255
4  789 561 563 775  173 0 255
4  235 206 736 234  0 255 71
4  418 400 399 417  203 255 0
4  417 694 695 418  234 255 0
4  788 399 400 787  255 61 0
4  785 187 380 385  173 255 0
4  209 604 902 213  255 214 0
4  238 202 203 237  0 255 71
4  234 736 860 233  0 255 71
5  780 782 760 235 234  255 153 0
6  771 313 312 501 770 838  204 0 255
5  301 43 313 771 305  204 0 255
4  39 364 347 33  0 163 255
5  183 165 182 379 389  173 255 0
5  183 39 341 11 332  0 71 255
6  231 781 780 234 233 232  255 153 0
4  75 306 49 50  0 193 255
4  67 310 300 77  50 0 255
4  75 844 299 306  50 0 255
4  75 65 873 844  50 0 255
4  182 913 382 379  173 255 0
4  809 907 903 841  255 122 0
4  903 506 507 841  255 122 0
4  903 435 509 506  255 122 0
4  807 859 446 435  255 30 0
4  863 473 462 804  255 153 0
4  863 804 728 605  255 153 0
4  238 237 605 728  255 153 0
4  107 351 350 108  0 224 255
4  541 342 351 107  0 224 255
4  154 398 720 397  255 91 0
4  743 527 280 279  255 61 0
4  249 745 635 250  81 0 255
4  247 263 264 248  81 0 255
4  249 248 264 745  81 0 255
5  898 271 272 732 854  255 91 0
4  776 318 319 299  204 0 255
5  306 41 42 38 49  0 193 255
4  306 299 319 41  204 0 255
9  570 566 559 553 544 551 560 565 885  173 0 255
4  885 565 564 727  173 0 255
4  778 667 668 772  255 91 0
5  481 772 402 393 284  255 91 0
4  250 635 634 251  81 0 255
4  289 872 828 288  255 0 0
4  867 244 245 868  255 122 0
4  794 226 227 795  0 255 71
4  226 862 865 227  255 153 0
4  795 261 260 794  0 255 102
4  827 472 473 863  255 153 0
4  468 865 862 467  255 153 0
4  841 446 447 809  255 122 0
6  859 285 286 282 447 446  255 30 0
4  653 888 0 2  234 0 255
4  2 0 696 754  255 0 244
4  2 3 338 34  234 0 255
5  34 338 350 351 30  0 10 255
4  653 2 34 337  234 0 255
8  405 906 504 293 475 714 211 406  255 244 0
4  67 521 519 66  0 132 255
4  72 296 80 71  50 0 255
4  72 73 297 296  50 0 255
4  62 918 649 74  50 0 255
5  310 504 502 777 624  204 0 255
4  310 67 66 79  50 0 255
6  777 502 311 318 776 744  204 0 255
5  777 744 308 309 624  204 0 255
5  776 299 307 308 744  204 0 255
4  310 624 309 300  204 0 255
4  754 840 3 2  255 0 244
4  18 515 626 625  142 0 255
4  727 703 471 470  142 0 255
4  727 707 704 703  142 0 255
4  568 567 556 557  173 0 255
4  775 563 562 564  173 0 255
4  727 564 562 707  173 0 255
4  18 625 556 567  173 0 255
4  759 697 1 7  255 0 244
8  753 700 661 656 895 633 680 735  0 255 163
8  752 734 678 630 894 657 660 679  0 255 163
4  30 351 342 35  0 10 255
4  337 34 30 35  0 71 255
4  312 313 767 491  0 102 255
5  168 599 497 164 162  255 0 214
4  167 600 599 168  255 0 214
4  694 167 168 692  234 255 0
4  774 798 256 264  0 255 102
4  111 347 364 619  0 224 255
4  111 127 128 110  51 255 0
4  111 110 365 347  0 224 255
4  773 12 11 341  234 0 255
4  40 340 6 7  234 0 255
4  7 1 12 773  234 0 255
4  7 6 839 759  255 0 244
4  7 773 341 40  234 0 255
4  769 175 615 765  234 255 0
4  750 174 175 769  234 255 0
5  772 668 669 730 402  255 91 0
5  770 501 295 296 650  204 0 255
4  296 295 329 330  255 0 183
4  296 297 304 650  204 0 255
4  771 838 298 305  204 0 255
5  770 650 304 298 838  204 0 255
4  177 598 595 178  255 0 214
4  177 764 763 616  234 255 0
4  176 597 598 177  255 0 214
4  167 179 596 600  255 0 214
4  765 615 616 763  234 255 0
4  768 400 276 275  255 61 0
4  44 767 313 43  0 102 255
4  162 164 498 169  20 0 255
4  146 420 170 171  234 255 0
4  401 275 276 144  255 91 0
4  146 766 401 144  142 255 0
5  161 163 496 597 176  255 0 214
4  447 282 281 287  255 30 0
4  255 287 664 448  0 255 40
5  449 266 448 664 665  0 255 40
4  692 168 162 169  234 255 0
4  119 120 88 89  51 255 0
4  143 762 158 142  0 255 132
4  288 254 257 746  0 255 40
4  761 458 457 749  0 255 40
4  761 746 257 458  0 255 40
4  715 476 474 478  255 214 0
4  603 212 211 714  255 214 0
4  603 588 192 193  255 214 0
4  540 352 342 541  0 224 255
4  35 342 352 36  0 10 255
5  759 839 531 840 754  255 0 244
4  754 696 697 759  255 0 244
4  132 747 757 131  112 255 0
5  756 464 460 465 536  255 153 0
4  467 466 590 571  142 0 255
5  397 720 823 848 755  255 91 0
8  753 726 517 889 725 752 679 700  0 255 163
5  586 193 192 833 832  255 0 152
4  206 845 802 197  81 255 0
4  206 205 217 845  81 255 0
4  586 832 205 204  255 0 152
4  751 173 174 750  234 255 0
4  749 683 684 737  0 255 40
4  749 231 232 683  0 255 71
4  581 195 189 579  255 214 0
5  106 97 86 105 538  0 224 255
4  133 375 747 132  112 255 0
4  264 256 265 745  81 0 255
4  76 77 591 623  50 0 255
4  76 623 873 65  50 0 255
7  584 526 120 121 122 123 682  51 255 0
4  420 419 693 170  234 255 0
4  169 498 499 170  20 0 255
4  392 743 279 278  255 61 0
5  398 279 280 823 720  255 91 0
4  145 278 279 398  255 91 0
4  742 148 145 398  142 255 0
4  741 42 41 319  0 102 255
4  173 10 493 174  20 0 255
4  174 493 495 175  20 0 255
5  738 10 332 11 12  255 0 122
4  738 12 1 8  255 0 122
4  740 697 698 884  255 0 91
4  739 493 10 738  255 0 91
4  8 1 697 740  255 0 91
4  740 739 738 8  255 0 91
4  208 801 851 736  0 255 71
4  736 851 850 860  0 255 71
4  120 526 87 88  51 255 0
4  120 735 680 121  0 255 163
4  734 123 122 678  0 255 163
5  33 347 365 340 40  0 163 255
4  40 341 39 33  0 71 255
4  575 543 542 574  20 255 0
4  609 888 883 608  255 0 122
4  9 0 888 609  255 0 122
4  733 696 0 9  255 0 91
4  610 733 9 609  255 0 91
5  732 272 273 670 731  255 91 0
5  730 669 274 275 401  255 91 0
4  581 604 194 195  255 214 0
4  726 724 518 517  0 255 163
4  725 889 887 723  0 255 163
6  110 128 116 108 93 109  51 255 0
6  723 887 518 724 116 128  0 255 163
5  721 824 268 267 722  255 91 0
4  611 498 164 719  255 0 91
4  719 699 696 733  255 0 91
4  719 164 497 717  255 0 91
4  611 719 733 610  255 0 91
4  859 481 284 285  255 30 0
4  908 802 790 652  0 255 40
4  110 109 366 365  0 224 255
4  108 350 348 93  0 224 255
4  340 365 366 331  0 163 255
4  338 339 348 350  0 10 255
4  3 4 339 338  234 0 255
4  6 340 331 5  234 0 255
4  175 495 163 161  20 0 255
4  899 495 493 739  255 0 91
4  884 163 495 899  255 0 91
4  884 698 857 718  255 0 91
4  884 899 739 740  255 0 91
4  709 195 194 587  255 0 152
4  709 587 203 202  255 0 152
4  204 236 237 203  0 255 71
5  791 522 405 406 784  0 255 40
4  890 391 394 396  255 91 0
4  151 490 826 886  0 255 40
6  718 857 858 717 601 602  255 0 91
4  718 496 163 884  255 0 91
4  717 497 494 601  255 0 91
4  717 858 699 719  255 0 91
4  718 602 492 496  255 0 91
4  875 458 257 265  0 255 102
4  798 457 458 875  0 255 102
4  265 257 254 241  81 0 255
4  798 875 265 256  0 255 102
4  669 670 273 274  255 91 0
4  107 106 538 541  0 224 255
4  827 863 605 606  255 153 0
4  605 237 236 606  255 153 0
4  858 857 698 699  255 0 91
6  221 478 474 295 501 681  255 244 0
4  716 66 70 84  255 0 61
4  363 81 645 648  0 224 255
4  716 852 853 66  255 0 61
4  716 84 644 852  255 0 61
4  66 519 520 68  0 132 255
4  66 853 302 79  255 0 61
4  713 503 505 712  255 0 30
4  79 293 504 310  204 0 255
4  712 505 326 302  255 0 30
4  713 330 329 503  255 0 30
4  79 302 326 293  255 0 183
5  712 302 303 330 713  255 0 30
4  296 330 303 80  255 0 183
4  302 853 705 303  255 0 61
7  853 852 644 641 643 706 705  255 0 61
4  705 71 80 303  255 0 61
4  207 684 685 860  0 255 71
4  860 685 232 233  0 255 71
4  848 823 824 846  255 91 0
4  844 873 307 299  50 0 255
4  623 308 307 873  50 0 255
5  840 531 5 4 3  255 0 244
4  839 6 5 531  255 0 244
4  239 240 621 201  0 255 71
4  216 579 189 188  255 214 0
4  201 188 189 710  255 0 152
4  710 189 195 709  255 0 152
4  710 709 202 201  255 0 152
4  708 627 626 704  173 0 255
6  562 548 552 556 627 708  173 0 255
4  708 704 707 562  173 0 255
4  81 82 642 645  0 224 255
5  706 643 345 82 81  255 0 61
4  706 81 71 705  255 0 61
6  515 472 471 703 704 626  142 0 255
4  74 649 537 73  50 0 255
4  833 192 191 218  255 0 152
4  218 191 533 652  81 255 0
5  833 218 217 205 832  255 0 152
4  654 883 888 653  234 0 255
4  828 437 254 288  255 0 0
4  745 265 614 635  81 0 255
4  824 823 280 268  255 91 0
4  736 206 197 208  0 255 71
4  820 741 319 318  0 102 255
4  652 533 532 651  0 255 40
4  218 652 790 217  81 255 0
4  649 918 305 298  50 0 255
4  543 583 909 542  20 255 0
4  543 89 88 583  20 255 0
4  573 571 590 702  173 0 255
4  573 702 701 569  173 0 255
4  686 589 464 463  142 0 255
5  686 592 516 17 16  142 0 255
5  686 16 14 535 589  142 0 255
4  569 701 16 17  173 0 255
6  702 590 15 14 16 701  173 0 255
4  700 679 660 661  0 255 163
4  680 678 122 121  0 255 163
4  699 698 697 696  255 0 91
4  695 694 692 693  234 255 0
4  170 499 500 171  20 0 255
4  693 692 169 170  234 255 0
4  219 210 588 691  255 214 0
4  689 688 391 395  0 255 193
4  690 687 688 689  0 255 193
4  690 689 395 390  0 255 193
4  688 687 394 391  0 255 193
4  463 462 592 686  142 0 255
4  241 254 437 253  255 122 0
4  253 437 436 636  255 122 0
4  614 265 241 253  81 0 255
4  232 685 684 683  0 255 71
5  98 646 607 655 95  0 224 255
4  349 344 360 359  0 255 255
4  349 655 607 344  0 224 255
4  359 585 655 349  0 224 255
4  91 95 655 585  0 224 255
4  91 584 682 95  51 255 0
4  680 676 677 678  0 255 163
4  680 633 632 676  0 255 163
4  678 677 631 630  0 255 163
4  677 676 632 631  0 255 163
4  675 672 673 674  0 255 163
4  674 673 659 662  0 255 163
4  663 658 672 675  0 255 163
4  662 659 656 661  0 255 163
4  675 674 662 663  0 255 163
4  658 663 660 657  0 255 163
4  673 672 658 659  0 255 163
4  224 671 459 240  0 255 71
5  578 216 188 201 200  81 255 0
4  670 669 668 667  255 91 0
4  665 664 427 428  0 255 40
4  663 662 661 660  0 255 163
4  657 894 895 656  0 255 163
4  659 658 657 656  0 255 163
6  646 98 96 648 645 642  0 224 255
4  646 647 511 607  0 224 255
4  654 336 882 883  234 0 255
4  654 653 337 336  234 0 255
4  337 35 36 336  0 71 255
4  651 532 210 219  81 255 0
4  649 298 304 537  50 0 255
6  647 646 642 628 629 513  0 224 255
5  84 78 362 641 644  255 0 61
4  643 641 362 345  255 0 61
4  642 82 345 628  0 224 255
4  513 629 362 78  0 224 255
4  640 428 427 639  0 255 10
4  251 252 637 638  255 122 0
4  253 636 637 252  255 122 0
4  252 251 634 613  81 0 255
4  635 614 613 634  81 0 255
4  633 895 896 632  0 255 163
4  632 896 897 631  0 255 163
4  631 897 894 630  0 255 163
4  629 628 345 362  0 224 255
4  556 552 555 557  173 0 255
4  627 556 625 626  173 0 255
4  308 623 591 309  50 0 255
4  200 201 621 620  0 255 71
4  621 240 459 620  0 255 71
4  619 617 112 111  0 224 255
4  617 113 94 112  0 224 255
4  177 616 615 176  234 255 0
4  176 615 175 161  234 255 0
4  614 253 252 613  81 0 255
4  612 499 498 611  255 0 91
4  608 500 499 612  255 0 91
5  608 883 882 335 500  255 0 122
5  612 611 610 609 608  255 0 91
4  511 360 344 607  0 224 255
4  587 194 193 586  255 0 152
4  604 603 193 194  255 214 0
4  602 601 494 492  255 0 91
4  178 595 596 179  255 0 214
4  593 494 497 599  255 0 214
4  600 596 593 599  255 0 214
4  597 496 492 594  255 0 214
4  594 492 494 593  255 0 214
4  595 598 597 594  255 0 214
4  596 595 594 593  255 0 214
4  516 592 462 473  142 0 255
4  309 591 77 300  50 0 255
4  466 536 465 461  255 153 0
4  590 466 461 15  142 0 255
4  14 15 534 535  142 0 255
4  589 535 460 464  142 0 255
4  588 210 191 192  255 214 0
4  587 586 204 203  255 0 152
4  359 360 361 358  0 255 255
5  78 84 343 358 361  0 255 255
5  66 68 69 63 70  50 0 255
4  520 356 64 68  0 132 255
5  91 585 514 510 99  0 224 255
4  585 359 358 514  0 224 255
4  584 916 87 526  51 255 0
5  584 91 99 100 916  51 255 0
4  583 525 901 909  20 255 0
4  583 88 87 525  20 255 0
4  68 64 60 69  50 0 255
4  63 69 357 343  0 255 255
4  343 357 921 510  0 224 255
4  63 343 84 70  0 255 255
4  582 502 504 906  255 244 0
4  581 579 577 524  255 214 0
4  579 216 215 577  255 214 0
4  216 578 576 215  81 255 0
4  523 214 215 576  81 255 0
4  524 577 215 214  255 214 0
4  575 574 104 105  20 255 0
5  571 573 572 566 570  173 0 255
4  467 571 570 468  142 0 255
4  568 572 573 569  173 0 255
4  515 18 17 516  142 0 255
5  569 17 18 567 568  173 0 255
4  563 549 548 562  173 0 255
4  560 551 550 561  173 0 255
5  561 550 546 549 563  173 0 255
4  557 555 554 558  173 0 255
4  558 554 553 559  173 0 255
5  552 548 545 544 553  173 0 255
4  555 552 553 554  173 0 255
3  550 547 546  173 0 255
4  551 544 547 550  173 0 255
4  549 546 545 548  173 0 255
4  547 544 545 546  173 0 255
4  538 105 104 539  0 224 255
4  541 538 539 540  0 224 255
4  73 537 304 297  50 0 255
4  535 534 465 460  142 0 255
4  15 461 465 534  142 0 255
4  210 532 533 191  81 255 0
4  530 274 273 529  255 61 0
4  280 527 528 268  255 61 0
4  101 525 87 85  20 255 0
4  100 99 510 921  0 224 255
4  87 916 100 85  51 255 0
4  581 524 902 604  255 214 0
4  902 524 214 213  255 214 0
4  523 522 213 214  81 255 0
4  520 519 521 900  0 132 255
4  900 355 356 520  0 132 255
4  897 896 895 894  0 255 163
4  511 647 513 512  0 224 255
5  109 93 348 25 366  0 224 255
5  331 24 339 4 5  234 0 255
4  331 366 25 24  0 163 255
4  889 517 881 877  0 255 163
4  887 878 880 518  0 255 163
4  887 889 877 878  0 255 163
4  517 518 880 881  0 255 163
4  881 880 878 877  0 255 163
4  339 24 25 348  0 10 255
4  510 514 358 343  0 224 255
4  207 860 850 783  0 255 71
4  64 356 61 60  0 132 255
4  61 357 69 60  0 255 255
4  516 473 472 515  142 0 255
4  78 361 512 513  0 224 255
4  512 361 360 511  0 224 255
4  356 101 85 61  0 224 255
5  85 100 921 357 61  0 224 255
4  850 851 801 783  0 255 71
4  427 664 287 281  0 255 40
4  909 901 102 92  20 255 0
4  354 92 102 355  0 224 255
4  355 102 101 356  0 224 255
4  901 525 101 102  20 255 0
4  802 845 217 790  81 255 0
4  639 427 281 282  0 255 10
4  841 507 508 446  255 122 0
4  435 446 508 509  255 122 0
4  509 508 507 506  255 122 0
5  505 477 475 293 326  255 183 0
4  10 173 166 332  20 0 255
4  332 166 165 183  20 0 255
4  293 326 325 292  255 0 183
3  505 326 325  255 183 0
5  504 293 317 311 502  204 0 255
5  293 504 502 311 317  255 244 0
5  729 311 317 48 819  0 102 255
5  311 729 819 48 317  255 244 0
4  386 48 47 387  0 71 255
4  48 386 387 47  255 244 0
4  186 386 387 185  0 71 255
4  386 186 185 387  173 255 0
4  500 335 334 856  255 0 122
4  186 335 334 185  20 0 255
5  499 500 856 164 498  255 0 91
5  500 499 498 164 856  20 0 255
3  497 164 494  255 0 91
3  164 497 494  255 0 214
5  492 494 164 163 496  255 0 91
5  494 492 496 163 164  255 0 214
5  495 163 855 10 493  255 0 91
5  163 495 493 10 855  20 0 255
4  332 10 855 333  255 0 122
4  10 332 333 855  20 0 255
4  183 332 333 184  0 71 255
4  332 183 184 333  20 0 255
4  389 183 184 388  0 71 255
4  183 389 388 184  173 255 0
4  46 389 388 45  0 71 255
4  389 46 45 388  255 244 0
4  491 46 314 312  0 102 255
4  46 491 312 314  255 244 0
3  501 312 295  204 0 255
3  312 501 295  255 244 0
4  503 329 328 505  255 0 30
3  295 329 328  255 183 0
4  503 505 328 329  255 183 0
3  505 325 326  255 0 30
3  505 325 327  255 183 0
4  163 855 856 164  20 0 255
3  505 327 325  255 0 30
3  505 327 328  255 183 0
4  46 314 315 45  255 244 0
3  295 328 329  255 0 183
3  505 328 327  255 0 30
4  295 328 327 294  255 183 0
4  48 317 316 47  0 102 255
3  293 317 316  255 244 0
4  164 856 855 163  255 0 91
3  293 316 317  204 0 255
4  293 316 315 292  255 244 0
4  295 312 314 294  204 0 255
4  312 295 294 314  255 244 0
4  294 327 325 292  255 183 0
4  294 327 328 295  255 0 183
4  294 314 315 292  204 0 255
4  292 315 314 294  255 244 0
4  292 325 326 293  255 183 0
4  292 315 316 293  204 0 255
4  292 325 327 294  255 0 183
6  284 481 480 482 423 434  255 30 0
6  481 284 434 423 482 480  255 91 0
5  814 134 136 431 816  0 255 10
4  284 134 136 432  0 255 224
5  814 816 431 136 134  112 255 0
6  580 431 136 137 374 367  0 255 40
6  580 367 374 137 136 431  112 255 0
4  405 367 374 406  0 255 40
4  367 405 406 374  142 255 0
3  211 406 222  81 255 0
3  406 211 222  255 244 0
6  714 211 222 478 474 475  255 214 0
6  211 714 475 474 478 222  255 244 0
6  293 475 474 295 294 292  255 183 0
6  293 292 294 295 474 475  255 244 0
3  221 478 222  255 214 0
3  478 221 222  255 244 0
4  407 221 222 406  81 255 0
4  221 407 406 222  255 244 0
6  153 407 373 291 157 149  0 255 40
6  407 153 149 157 291 373  142 255 0
5  812 153 149 151 811  0 255 40
5  153 812 811 151 149  0 255 132
5  490 151 149 157 290  0 255 40
5  151 490 290 157 149  0 255 193
7  489 290 157 291 283 434 479  255 0 0
7  290 489 479 434 283 291 157  255 91 0
9  488 479 434 423 483 484 485 486 487  255 0 0
9  479 488 487 486 485 484 483 423 434  255 91 0
5  406 374 138 373 407  0 255 40
4  284 432 136 134  0 255 10
3  284 432 433  0 255 224
3  284 433 432  0 255 10
3  284 433 283  0 255 224
5  407 373 138 374 406  142 255 0
3  284 283 433  0 255 10
3  284 283 434  255 91 0
3  284 434 283  255 30 0
9  473 462 461 467 468 469 470 471 472  142 0 255
9  462 473 472 471 470 469 468 467 461  255 153 0
3  466 467 461  142 0 255
3  467 466 461  255 153 0
3  465 461 460  142 0 255
3  461 465 460  255 153 0
4  464 460 462 463  142 0 255
4  460 464 463 462  255 153 0
3  461 462 460  142 0 255
3  462 461 460  255 153 0
4  474 475 477 476  255 183 0
4  475 474 476 477  255 214 0
3  449 786 450  0 255 71
3  786 449 450  0 255 102
3  671 449 459  0 255 71
3  449 671 459  0 255 40
3  620 459 200  0 255 71
3  459 620 200  0 255 40
4  578 200 523 576  81 255 0
4  200 578 576 523  0 255 40
5  522 523 200 199 791  81 255 0
5  523 522 791 199 200  0 255 40
6  784 791 199 198 533 532  81 255 0
6  791 784 532 533 198 199  0 255 40
6  406 784 532 651 805 407  81 255 0
6  784 406 407 805 651 532  0 255 40
5  652 533 198 196 790  81 255 0
5  533 652 790 196 198  0 255 40
4  802 790 196 197  81 255 0
4  790 802 197 196  0 255 40
4  208 197 453 454  0 255 71
4  197 208 454 453  0 255 40
3  801 208 783  0 255 71
3  208 801 783  0 255 40
3  207 783 208  0 255 71
3  783 207 208  0 255 40
5  684 207 455 456 683  0 255 71
5  207 684 683 456 455  0 255 40
4  749 683 456 457  0 255 71
4  683 749 457 456  0 255 40
10  798 457 456 786 793 794 795 796 797 774  0 255 71
10  798 774 797 796 795 794 793 786 456 457  0 255 102
3  786 450 451  0 255 102
3  786 451 450  0 255 71
3  786 451 452  0 255 102
3  786 452 451  0 255 71
3  786 452 453  0 255 102
3  786 453 452  0 255 71
3  786 453 454  0 255 102
4  197 453 452 196  0 255 40
4  208 454 455 207  0 255 71
3  786 454 453  0 255 71
3  786 454 455  0 255 102
3  786 455 454  0 255 71
3  786 455 456  0 255 102
4  207 455 454 208  0 255 40
3  786 456 455  0 255 71
5  459 449 450 199 200  0 255 71
5  449 459 200 199 450  0 255 40
4  450 199 198 451  0 255 40
4  452 196 198 451  0 255 71
4  453 197 196 452  0 255 71
4  451 198 196 452  0 255 40
4  451 198 199 450  0 255 71
12  254 437 436 438 439 440 441 442 443 444 425 426  255 0 0
12  437 254 426 425 444 443 442 441 440 439 438 436  255 122 0
5  257 254 255 448 266  0 255 40
5  254 257 266 448 255  81 0 255
12  458 257 266 449 450 451 452 453 454 455 456 457  0 255 40
12  257 458 457 456 455 454 453 452 451 450 449 266  0 255 102
4  287 255 254 426  255 0 0
4  255 287 426 254  255 122 0
5  447 287 426 435 446  255 30 0
5  287 447 446 435 426  255 122 0
4  445 435 426 425  255 30 0
4  435 445 425 426  255 122 0
3  432 137 136  0 255 40
5  432 137 138 373 433  0 255 224
4  283 291 373 433  0 255 40
5  433 373 138 137 432  0 255 40
4  433 373 291 283  0 255 224
3  432 136 137  0 255 224
4  434 423 281 283  255 30 0
4  423 434 283 281  255 0 0
10  433 283 281 427 428 429 430 431 136 432  0 255 10
10  283 433 432 136 431 430 429 428 427 281  0 255 40
6  287 281 423 424 425 426  255 30 0
6  281 287 426 425 424 423  255 0 0
6  375 367 383 384 404 422  255 244 0
6  367 375 422 404 384 383  142 255 0
3  378 404 384  255 244 0
3  404 378 384  142 255 0
4  421 378 384 181  173 255 0
4  378 421 181 384  142 255 0
3  146 181 147  234 255 0
3  181 146 147  142 255 0
7  420 146 147 403 417 418 419  234 255 0
7  146 420 419 418 417 403 147  203 255 0
8  416 403 147 148 412 413 414 415  234 255 0
8  403 416 415 414 413 412 148 147  203 255 0
5  411 148 147 181 180  234 255 0
5  148 411 180 181 147  142 255 0
4  410 180 383 381  173 255 0
4  180 410 381 383  142 255 0
10  409 381 383 367 405 406 407 153 158 408  255 244 0
10  381 409 408 158 153 407 406 405 367 383  142 255 0
4  180 383 384 181  142 255 0
4  181 384 383 180  173 255 0
4  393 284 369 368  0 255 224
4  284 393 368 369  255 91 0
3  402 393 368  0 255 224
3  393 402 368  255 91 0
3  401 368 144  142 255 0
3  368 401 144  255 91 0
5  400 276 277 392 399  203 255 0
3  144 276 277  255 91 0
5  400 399 392 277 276  255 61 0
4  145 278 277 144  203 255 0
3  392 278 277  255 61 0
5  398 145 369 370 154  142 255 0
5  145 398 154 370 369  255 91 0
5  397 154 155 394 396  0 255 193
5  154 397 396 394 155  255 91 0
5  391 394 155 156 390  0 255 193
5  394 391 390 156 155  255 91 0
3  395 391 390  0 255 193
3  391 395 390  255 91 0
4  290 390 156 157  0 255 193
4  390 290 157 156  255 91 0
4  283 291 372 284  0 255 224
4  283 284 372 291  255 91 0
3  284 369 370  255 91 0
4  145 369 368 144  255 91 0
4  154 370 371 155  142 255 0
3  284 370 369  0 255 224
3  284 370 371  255 91 0
3  284 371 370  0 255 224
3  284 371 372  255 91 0
3  284 372 371  0 255 224
4  144 368 369 145  142 255 0
3  392 277 278  203 255 0
3  144 277 276  203 255 0
4  144 277 278 145  255 91 0
4  387 185 184 388  173 255 0
4  387 47 45 388  0 71 255
4  388 45 47 387  255 244 0
4  388 184 185 387  0 71 255
6  379 382 381 383 384 378  173 255 0
6  382 379 378 384 383 381  255 244 0
6  389 379 380 386 387 388  173 255 0
6  379 389 388 387 386 380  255 244 0
4  385 380 379 378  173 255 0
4  380 385 378 379  255 244 0
4  372 156 155 371  142 255 0
4  372 156 157 291  255 91 0
3  374 137 138  0 255 40
4  371 155 156 372  255 91 0
4  370 154 155 371  255 91 0
4  291 157 156 372  142 255 0
3  374 138 137  112 255 0
3  377 368 139  0 255 224
3  368 377 139  142 255 0
3  376 139 133  0 40 255
3  139 376 133  142 255 0
3  375 133 367  112 255 0
3  133 375 367  142 255 0
5  374 367 133 130 138  112 255 0
5  367 374 138 130 133  142 255 0
10  373 138 130 139 368 369 370 371 372 291  0 255 224
10  373 291 372 371 370 369 368 139 130 138  142 255 0
3  133 139 130  0 40 255
3  139 133 130  142 255 0
4  51 104 103 320  0 224 255
4  348 350 27 26  0 224 255
4  350 348 26 27  0 10 255
5  366 25 26 347 365  0 224 255
3  348 25 26  0 10 255
5  366 365 347 26 25  0 163 255
3  364 347 346  0 224 255
3  347 364 346  0 163 255
6  55 346 347 26 27 54  0 224 255
6  346 55 54 27 26 347  0 163 255
4  324 55 54 323  0 224 255
4  55 324 323 54  0 193 255
5  363 324 323 82 81  0 224 255
5  324 363 81 82 323  0 255 255
3  345 82 83  0 224 255
3  82 345 83  255 0 61
4  362 345 83 78  0 224 255
4  345 362 78 83  255 0 61
5  361 78 83 344 360  0 224 255
5  78 361 360 344 83  0 255 255
6  349 344 83 82 323 322  0 224 255
6  344 349 322 323 82 83  0 255 255
7  359 349 322 59 61 343 358  0 224 255
7  349 359 358 343 61 59 322  0 255 255
3  357 343 61  0 224 255
3  343 357 61  0 255 255
6  356 61 321 320 354 355  0 224 255
6  61 356 355 354 320 321  0 132 255
4  51 320 321 52  0 224 255
4  320 51 52 321  0 193 255
5  353 51 52 29 19  0 224 255
5  51 353 19 29 52  0 163 255
4  352 19 29 342  0 224 255
4  352 342 29 19  0 10 255
5  351 342 29 28 350  0 224 255
5  342 351 350 28 29  0 10 255
3  350 27 28  0 10 255
3  350 28 27  0 224 255
3  348 26 25  0 224 255
3  61 321 59  0 132 255
4  334 185 184 333  0 71 255
4  334 856 855 333  20 0 255
4  335 186 185 334  0 71 255
4  335 500 856 334  20 0 255
4  333 855 856 334  255 0 122
4  333 184 185 334  20 0 255
4  341 11 891 40  234 0 255
3  332 11 891  0 71 255
4  341 40 891 11  0 71 255
3  340 40 331  234 0 255
3  40 340 331  0 163 255
5  339 24 23 34 338  234 0 255
4  331 24 23 40  0 163 255
5  339 338 34 23 24  0 10 255
5  337 34 13 882 336  234 0 255
5  34 337 336 882 13  0 71 255
6  335 882 13 332 333 334  255 0 122
6  335 334 333 332 13 882  0 71 255
5  40 891 13 34 23  234 0 255
3  332 891 11  255 0 122
3  332 891 13  0 71 255
3  332 13 891  255 0 122
5  34 13 891 40 23  0 71 255
4  331 40 23 24  234 0 255
8  302 326 325 327 328 329 330 303  255 0 30
8  326 302 303 330 329 328 327 325  255 0 183
4  317 48 47 316  255 244 0
4  315 45 47 316  0 102 255
4  316 47 45 315  255 244 0
5  321 52 53 322 59  0 193 255
3  321 61 59  0 224 255
4  322 53 54 323  0 193 255
5  322 53 52 321 59  0 224 255
4  323 54 53 322  0 224 255
4  314 46 45 315  0 102 255
8  43 313 312 314 315 316 317 311  0 102 255
8  313 43 311 317 316 315 314 312  204 0 255
4  301 43 41 306  0 193 255
4  43 301 306 41  204 0 255
5  62 301 306 75 58  0 193 255
5  301 62 58 75 306  50 0 255
6  324 62 58 59 322 323  0 193 255
6  62 324 323 322 59 58  0 255 255
5  321 59 58 75 320  0 193 255
5  321 320 75 58 59  0 132 255
5  319 41 43 311 318  0 102 255
5  41 319 318 311 43  204 0 255
3  79 302 80  255 0 61
3  302 79 80  255 0 183
3  310 79 300  50 0 255
3  79 310 300  204 0 255
5  309 300 299 307 308  50 0 255
5  300 309 308 307 299  204 0 255
5  306 299 300 79 301  50 0 255
5  299 306 301 79 300  204 0 255
6  305 301 79 80 297 298  50 0 255
6  301 305 298 297 80 79  204 0 255
3  304 298 297  50 0 255
3  298 304 297  204 0 255
3  296 297 80  50 0 255
3  297 296 80  204 0 255
3  303 80 302  255 0 61
3  80 303 302  255 0 183
7  79 293 292 294 295 296 80  255 0 183
7  293 79 80 296 295 294 292  204 0 255
10  281 287 255 254 288 289 290 157 291 283  0 255 40
10  287 281 283 291 157 290 289 288 254 255  255 0 0
6  286 282 281 283 284 285  0 255 10
6  282 286 285 284 283 281  255 30 0
14  280 268 267 269 270 271 272 273 274 275 276 277 278 279  255 61 0
14  268 280 279 278 277 276 275 274 273 272 271 270 269 267  255 91 0
4  260 244 243 259  81 0 255
4  261 245 244 260  81 0 255
4  262 246 245 261  81 0 255
4  263 247 246 262  81 0 255
4  266 258 256 257  0 255 102
4  258 266 257 256  81 0 255
3  265 257 256  0 255 102
3  257 265 256  81 0 255
8  264 256 258 259 260 261 262 263  0 255 102
8  256 264 263 262 261 260 259 258  81 0 255
4  255 242 241 254  81 0 255
4  242 255 254 241  255 122 0
13  253 241 242 243 244 245 246 247 248 249 250 251 252  81 0 255
13  241 253 252 251 250 249 248 247 246 245 244 243 242  255 122 0
18  240 224 223 225 226 227 228 229 230 231 232 233 234 235 236 237 238 239  255 153 0
18  224 240 239 238 237 236 235 234 233 232 231 230 229 228 227 226 225 223  0 255 71
6  222 211 210 219 220 221  255 214 0
6  211 222 221 220 219 210  81 255 0
6  191 210 211 212 209 190  255 214 0
6  210 191 190 209 212 211  81 255 0
5  218 191 204 205 217  255 0 152
5  191 218 217 205 204  81 255 0
5  203 204 191 190 202  255 0 152
5  204 203 202 190 191  81 255 0
4  201 202 190 188  255 0 152
4  202 201 188 190  81 255 0
7  216 188 190 209 213 214 215  255 214 0
7  216 215 214 213 209 190 188  81 255 0
11  206 197 196 198 199 200 201 202 203 204 205  81 255 0
11  197 206 205 204 203 202 201 200 199 198 196  0 255 71
8  195 189 188 190 191 192 193 194  255 0 152
8  189 195 194 193 192 191 190 188  255 214 0
6  187 181 180 182 165 172  173 255 0
6  181 187 172 165 182 180  234 255 0
6  186 172 165 183 184 185  173 255 0
6  186 185 184 183 165 172  20 0 255
6  179 167 161 176 177 178  255 0 214
6  167 179 178 177 176 161  234 255 0
5  175 161 166 173 174  20 0 255
5  161 175 174 173 166  234 255 0
4  165 166 161 162  20 0 255
4  166 165 162 161  234 255 0
6  172 165 162 169 170 171  20 0 255
6  165 172 171 170 169 162  234 255 0
4  168 162 161 167  255 0 214
4  162 168 167 161  234 255 0
4  164 162 161 163  20 0 255
4  162 164 163 161  255 0 214
3  160 154 150  142 255 0
3  154 160 150  0 255 193
3  159 150 142  142 255 0
3  150 159 142  112 0 255
3  158 142 153  142 255 0
3  142 158 153  0 255 132
7  157 149 140 150 154 155 156  142 255 0
4  153 149 140 142  0 255 132
7  157 156 155 154 150 140 149  0 255 193
3  142 150 140  142 255 0
3  150 142 140  112 0 255
4  153 142 140 149  142 255 0
4  152 150 140 141  112 0 255
4  150 152 141 140  0 255 193
4  151 141 140 149  0 255 132
4  151 149 140 141  0 255 193
5  148 145 144 146 147  203 255 0
5  145 148 147 146 144  142 255 0
4  143 141 140 142  112 0 255
4  141 143 142 140  0 255 132
4  139 135 129 130  0 40 255
4  135 139 130 129  0 255 224
6  138 130 129 134 136 137  112 255 0
6  138 137 136 134 129 130  0 255 224
5  133 130 129 131 132  0 40 255
5  130 133 132 131 129  112 255 0
14  128 116 115 117 118 119 120 121 122 123 124 125 126 127  0 255 163
14  116 128 127 126 125 124 123 122 121 120 119 118 117 115  51 255 0
4  114 96 94 113  0 224 255
4  96 114 113 94  51 255 0
6  112 94 93 109 110 111  0 224 255
6  94 112 111 110 109 93  51 255 0
7  108 93 94 96 97 106 107  0 224 255
7  93 108 107 106 97 96 94  51 255 0
6  105 86 85 92 103 104  0 224 255
6  97 86 85 91 95 96  51 255 0
6  105 104 103 92 85 86  20 255 0
4  102 92 85 101  0 224 255
4  92 102 101 85  20 255 0
4  100 85 91 99  0 224 255
4  85 100 99 91  51 255 0
6  95 91 85 86 97 96  0 224 255
3  98 95 96  0 224 255
3  95 98 96  51 255 0
6  90 86 85 87 88 89  20 255 0
6  86 90 89 88 87 85  51 255 0
3  66 79 70  255 0 61
3  79 66 70  50 0 255
3  84 70 78  255 0 61
3  70 84 78  0 255 255
6  83 78 70 71 81 82  255 0 61
6  78 83 82 81 71 70  0 255 255
4  80 71 70 79  255 0 61
4  71 80 79 70  50 0 255
7  77 67 66 68 64 65 76  0 132 255
7  67 77 76 65 64 68 66  50 0 255
5  75 65 64 60 58  0 132 255
5  65 75 58 60 64  50 0 255
3  62 58 60  0 255 255
7  74 62 63 70 71 72 73  0 255 255
7  62 74 73 72 71 70 63  50 0 255
4  69 63 62 60  0 255 255
4  63 69 60 62  50 0 255
3  62 60 58  50 0 255
4  61 59 58 60  0 132 255
4  59 61 60 58  0 255 255
4  52 29 28 53  0 163 255
4  54 27 28 53  0 224 255
4  53 28 27 54  0 163 255
4  53 28 29 52  0 224 255
6  44 46 45 47 48 42  0 71 255
6  46 44 42 48 47 45  0 102 255
11  57 31 38 49 50 51 52 53 54 55 56  0 163 255
4  44 31 38 42  0 193 255
11  57 56 55 54 53 52 51 50 49 38 31  0 193 255
4  42 38 31 44  0 71 255
4  44 42 41 43  0 193 255
4  42 44 43 41  0 102 255
4  40 23 22 33  0 163 255
3  34 23 22  0 71 255
4  40 33 22 23  0 71 255
3  39 33 32  0 163 255
3  33 39 32  0 71 255
5  31 32 33 22 20  0 163 255
5  32 31 20 22 33  0 71 255
5  38 31 20 21 37  0 163 255
5  31 38 37 21 20  0 71 255
5  36 21 20 30 35  0 10 255
5  36 35 30 20 21  0 71 255
4  34 30 20 22  0 10 255
4  30 34 22 20  0 71 255
3  34 22 23  0 10 255
11  29 19 21 20 22 23 24 25 26 27 28  0 163 255
11  19 29 28 27 26 25 24 23 22 20 21  0 10 255
3  727 885 707  142 0 255
3  885 727 707  173 0 255
3  704 707 626  142 0 255
3  707 704 626  173 0 255
4  625 626 707 885  142 0 255
4  626 625 885 707  173 0 255
10  18 625 885 570 571 590 15 14 16 17  142 0 255
10  625 18 17 16 14 15 590 571 570 885  173 0 255
7  888 883 882 13 891 11 0  234 0 255
7  883 888 0 11 891 13 882  255 0 122
4  696 0 1 697  255 0 244
4  0 696 697 1  255 0 91
4  12 1 0 11  234 0 255
4  1 12 11 0  255 0 122
3  738 10 8  255 0 91
3  10 738 8  255 0 122
3  1 8 0  255 0 91
3  8 1 0  255 0 122
4  9 0 8 10  255 0 91
4  0 9 10 8  255 0 122
7  609 9 10 855 856 500 608  255 0 91
7  9 609 608 500 856 855 10  255 0 122
8  7 1 0 2 3 4 5 6  255 0 244
8  1 7 6 5 4 3 2 0  234 0 255

