OFF
739 614 0

-54.9921 64.843 -119.089
-36.7209 54.596 -130.696
-36.7209 54.596 -119.089
-37.2738 53.6102 -119.089
-37.2738 53.6102 -130.696
-55.545 63.8572 -119.089
-36.4886 48.7993 -118.734
-36.1365 49.4272 -118.734
-30.2725 7.65395 -83.6525
-31.7554 5.00981 -85.5033
11.3931 5.07045 114.199
11.5763 5.39703 122.441
12.3796 4.51717 122.441
12.5628 4.84375 122.441
-39.1386 50.2855 -119.089
-34.2061 0.640051 -85.5033
-36.7306 -3.8613 -85.5033
-34.2061 0.640051 -83.6525
9.10962 5.15231 114.199
9.10962 5.15231 115.328
10.8817 4.15848 114.199
11.3931 5.07045 116.828
8.72805 4.47188 115.328
4.23035 2.95975 114.199
3.82997 2.24585 115.328
4.23035 2.95975 115.328
1.19636 4.66129 114.199
1.19636 4.66129 115.328
7.00684 1.40262 114.199
7.00684 1.40262 115.328
-54.9921 64.843 -130.696
-46.5014 37.9689 -67.284
-46.6845 37.6424 -65.7028
-46.5014 37.9689 -65.7028
-46.6845 37.6424 -67.284
9.10962 5.15231 112.097
-37.0102 -3.70447 -85.5033
-25.9262 -9.9207 -85.5033
62.568 -34.2336 116.828
66.7622 -36.5858 101.377
-36.4886 48.7993 -119.089
14.5929 8.46351 108.991
14.5929 8.46351 112.097
58.2622 -33.9598 128.607
11.5763 5.39703 114.199
59.1756 -32.3311 128.607
59.1756 -32.3311 126.328
58.2622 -33.9598 126.328
61.6545 -35.8623 126.328
61.6545 -35.8623 101.377
61.6545 -35.8623 116.828
9.93185 -7.65742 126.328
11.387 -5.06288 126.328
9.93185 -7.65742 128.32
11.387 -5.06288 128.32
6.59981 -5.78872 126.328
6.59981 -5.78872 122.441
9.8042 6.39087 114.199
9.62105 6.06429 114.199
-4.79353 20.4902 -85.5033
-4.79353 20.4902 -81.0327
-7.31604 15.9925 -81.0327
-7.31604 15.9925 -85.5033
-10.4177 17.7319 -81.0327
3.99384 9.64951 -81.0327
6.51625 14.1473 -81.0327
-51.6966 53.881 -67.284
10.8817 4.15848 116.828
9.10962 5.15231 116.828
9.10962 5.15231 122.441
10.8817 4.15848 122.441
8.37828 -0.305322 122.441
64.4188 -55.0416 -130.696
62.7352 -54.0974 -130.696
62.7352 -54.0974 -119.089
64.4188 -55.0416 -119.089
80.2078 -26.8888 -130.696
78.5239 -25.9445 -119.089
80.2078 -26.8888 -119.089
78.5239 -25.9445 -130.696
66.9856 -38.8522 101.377
65.8487 -38.2146 101.377
-12.0303 14.8565 -83.6525
-17.0801 17.6886 -83.6525
-12.0303 14.8565 -85.5033
-17.0801 17.6886 -85.5033
-51.6141 45.4285 -67.284
-52.6197 43.6355 -65.7028
-51.6141 45.4285 -65.7028
-52.6197 43.6355 -67.284
-48.1442 43.4824 -67.284
-48.1442 43.4824 -65.7028
-55.283 47.4862 -67.284
-7.68887 -13.2929 108.991
-7.68887 -13.2929 112.097
-5.63926 -9.63829 108.991
-5.63926 -9.63829 112.097
56.5398 -20.2494 116.828
56.723 -19.9227 116.828
63.8826 -23.9381 116.828
63.6994 -24.2648 116.828
49.2607 -16.1671 116.828
49.4439 -15.8404 116.828
42.29 -12.2576 122.441
-61.4422 36.504 -61.1087
-59.3472 28.5303 -57.9254
-61.4422 36.504 -57.9254
-59.3472 28.5303 -61.1087
-56.5097 26.9389 -57.9254
-64.3428 31.332 -57.9254
-56.5097 26.9389 -61.1087
-64.3428 31.332 -61.1087
-53.3642 32.5475 -61.1087
-61.1973 36.9406 -57.9254
-53.3642 32.5475 -57.9254
-61.1973 36.9406 -61.1087
-52.3416 34.3708 -57.9254
-60.1748 38.7638 -57.9254
-60.1748 38.7638 -61.1087
-65.1257 29.936 -57.9254
-57.2926 25.5429 -61.1087
-57.2926 25.5429 -57.9254
-65.1257 29.936 -61.1087
-59.9418 20.8191 -61.1087
-67.7748 25.2125 -61.1087
-57.4253 43.6663 -61.1087
-49.5922 39.2732 -65.7028
-49.4092 39.5996 -57.9254
-57.4253 43.6663 -65.7028
-57.4253 43.6663 -57.9254
-49.5922 39.2732 -57.9254
-57.2423 43.9927 -67.284
49.4439 -15.8404 122.441
-2.63357 24.3416 -85.5033
-5.7352 26.0811 -85.5033
-5.7352 26.0811 -81.0327
-7.89514 22.2298 -81.0327
8.72805 4.47188 114.199
8.72805 4.47188 112.097
9.62105 6.06429 112.097
9.36474 -0.858635 122.441
6.60639 0.688544 122.441
3.99384 9.64951 114.199
6.60639 0.688544 114.199
6.60639 0.688544 115.328
3.8107 9.32295 112.097
3.8107 9.32295 114.199
-21.5018 23.9483 -81.0327
-21.5018 23.9483 -83.6525
-17.0801 17.6886 -81.0327
-12.0303 14.8565 -81.0327
-47.5807 44.4871 -67.284
-47.5807 44.4871 -65.7028
-49.1497 41.6895 -65.7028
-56.2886 45.6931 -67.284
-56.2886 45.6931 -65.7028
4.89451 9.14438 112.097
6.92454 12.7641 112.097
11.3931 5.07045 122.441
6.92454 12.7641 108.991
4.89451 9.14438 108.991
-43.9787 42.467 -65.7028
-43.9787 42.467 -67.284
71.1698 -39.0577 -0.134231
70.2563 -40.6865 -0.134231
71.94 -41.6308 -0.134231
72.8535 -40.002 -0.134231
68.8804 -43.1398 -0.134231
70.5641 -44.0841 -0.134231
72.6767 -36.3707 -0.134231
74.3604 -37.3151 -0.134231
72.8535 -40.002 -4.09274
71.1698 -39.0577 50.3116
-42.4538 35.6988 -81.0327
-10.6008 17.4054 -81.0327
0.0314136 -4.5273 115.328
74.0869 -30.0905 50.3116
74.2701 -29.7637 50.3116
71.4692 -28.1928 -4.09274
-67.3839 1.83339 -116.471
-66.1088 4.10664 -116.471
63.7349 -48.5491 -4.09274
68.8804 -43.1398 -4.09274
65.3415 -49.4502 -4.09274
67.0251 -50.3945 -4.09274
70.5641 -44.0841 -4.09274
38.9091 -34.6247 116.828
42.4475 -28.3155 116.828
49.7266 -32.3978 116.828
46.1881 -38.7074 116.828
38.9091 -34.6247 112.097
46.1881 -38.7074 112.097
56.8863 -36.4132 116.828
53.3476 -42.723 116.828
49.7266 -32.3978 122.441
-16.0117 33.7375 -85.5033
-36.9639 45.4879 -85.5033
-36.9639 45.4879 -83.6525
-16.0117 33.7375 -83.6525
-16.8193 32.2975 -85.5033
-16.8193 32.2975 -83.6525
-15.9561 33.8366 -85.5033
11.8341 10.0107 112.097
11.8341 10.0107 108.991
6.02385 13.2693 108.991
-52.3416 34.3708 -61.1087
-52.3416 34.3708 -65.7028
-49.4338 32.7401 -65.7028
-49.4338 32.7401 -61.1087
-6.06743 8.73501 115.328
9.20654 -7.25064 128.32
10.6617 -4.65613 126.328
10.6617 -4.65613 128.32
-84.8393 11.6229 -116.471
-84.8393 11.6229 -119.089
-67.3839 1.83339 -119.089
-66.1088 4.10664 -130.696
-66.1088 4.10664 -119.089
-67.3839 1.83339 -130.696
-84.8393 11.6229 -130.696
-83.564 13.8969 -116.471
-83.564 13.8969 -119.089
-36.1365 49.4272 -85.5033
-36.4886 48.7993 -85.5033
-9.13335 10.4545 114.199
-3.88966 -4.40765 114.199
-14.2194 1.38568 114.199
-7.41199 13.5238 114.199
-5.51984 -7.31444 115.328
-6.53982 -9.13319 115.328
-8.58943 -12.7879 108.991
-24.5176 4.42698 -85.5033
-19.4676 1.59529 -83.6525
-19.4676 1.59529 -85.5033
67.0918 -26.1674 93.8946
71.2859 -28.5196 93.8946
63.8826 -23.9381 93.8946
-3.00252 -2.82578 115.328
2.8081 -6.08455 115.328
33.0994 -17.2397 126.328
31.6443 -19.8343 128.32
31.6443 -19.8343 126.328
37.3278 -23.0218 126.328
38.7829 -20.4272 128.32
37.3278 -23.0218 128.32
38.7829 -20.4272 126.328
-39.1386 50.2855 -118.734
-39.1386 50.2855 -85.5033
-35.4375 48.2098 -85.5033
2.91765 7.73055 114.199
-40.6096 47.663 -118.734
-35.0853 48.8377 -118.734
84.7578 -14.8287 -130.696
84.7578 -14.8287 -119.089
83.2453 -17.5257 -119.089
83.2453 -17.5257 -130.696
-36.9083 45.5872 -85.5033
-36.9083 45.5872 -83.6525
33.0994 -17.2397 130.702
31.6443 -19.8343 130.702
33.0994 -17.2397 128.32
38.7829 -20.4272 130.702
37.3278 -23.0218 130.702
8.0549 -3.19418 128.32
6.59981 -5.78872 128.32
8.72805 4.47188 116.828
43.481 -26.4727 126.328
8.0549 -3.19418 126.328
-8.98979 -13.5018 -83.6525
-6.53982 -9.13319 -83.6525
2.8081 -6.08455 116.828
42.4732 -11.931 122.441
2.8081 -6.08455 122.441
6.60639 0.688544 116.828
2.8081 -6.08455 114.199
-3.00252 -2.82578 116.828
-58.8569 6.45028 -85.5033
-37.9051 -5.30018 -83.6525
-58.8569 6.45028 -83.6525
-37.9051 -5.30018 -85.5033
-64.787 6.4632 -116.471
-64.787 6.4632 -119.089
-46.8865 44.0977 -65.7028
-46.8865 44.0977 -67.284
-49.5922 39.2732 -61.1087
-6.0582 -29.5745 -115.062
-49.4092 39.5996 -65.7028
-4.7352 -27.2155 -119.089
-6.0582 -29.5745 -119.089
-4.7352 -27.2155 -115.062
-57.2423 43.9927 -57.9254
-14.8023 -24.6701 -119.089
-13.4795 -22.3114 -119.089
-13.4795 -22.3114 -115.062
-14.8023 -24.6701 -115.062
-19.4676 1.59529 -81.0327
74.2701 -29.7637 -4.09274
74.0869 -30.0905 -4.09274
75.6934 -30.9915 -4.09274
49.2607 -16.1671 122.441
75.8767 -30.6647 -4.09274
-2.63357 24.3416 -81.0327
77.5605 -31.6091 -4.09274
77.3773 -31.9358 -4.09274
75.8767 -30.6647 -85.5033
8.67619 17.9987 -85.5033
69.4062 -34.5362 57.3895
65.6097 -41.3055 57.3895
71.0702 -35.4696 57.3895
8.0549 -3.19418 122.441
12.5628 4.84375 112.097
-31.7554 5.00981 -83.6525
44.9361 -23.878 126.328
61.6545 -35.8623 128.607
-48.4555 41.3002 -65.7028
62.568 -34.2336 128.607
-48.4555 41.3002 -57.9254
70.2563 -40.6865 50.3116
-56.2886 45.6931 -57.9254
-15.6506 20.2375 -81.0327
-36.7306 -3.8613 -83.6525
-57.2423 43.9927 -65.7028
39.2742 -17.635 122.441
0.796094 3.94757 115.328
-2.7786 -16.0467 108.991
29.8897 -34.3681 112.097
29.8897 -34.3681 108.991
44.9955 -7.43354 87.2825
51.4741 -12.2205 87.2825
51.9662 -11.343 87.2825
-34.4857 0.796874 -85.5033
-32.035 5.16664 -83.6525
-34.4857 0.796874 -83.6525
58.0605 -62.433 -130.696
62.8934 -53.8153 -130.696
62.8934 -53.8153 -119.089
24.6566 -43.6992 -115.062
-13.8225 -22.1191 -115.062
-28.2344 -14.0365 -115.062
71.4692 -28.1928 93.8946
-30.5522 7.81075 -81.0327
-24.5176 4.42698 -81.0327
-24.5176 4.42698 -83.6525
-6.06743 8.73501 114.199
23.0745 4.86069 -85.5033
29.4895 -35.0817 -85.5033
-30.5522 7.81075 -83.6525
-3.17893 -16.7606 108.991
3.82997 2.24585 114.199
-0.729202 -12.3923 112.097
3.99384 9.64951 112.097
46.0662 -55.7063 -130.696
-54.3848 23.9121 -65.7028
44.7422 -58.0673 -130.696
-57.0341 19.1882 -67.284
68.2693 -33.8985 93.8946
-15.8496 -1.52114 112.097
-5.51984 -7.31444 112.097
-6.53982 -9.13319 108.991
-54.3848 23.9121 -61.1087
71.2513 -10.7991 -119.089
-57.2926 25.5429 -65.7028
-18.9792 28.4462 -81.0327
-83.564 13.8969 -130.696
-18.9792 28.4462 -83.6525
60.683 -29.6434 116.828
-16.8193 32.2975 -81.0327
-39.9312 40.1969 -67.284
-37.7714 44.0481 -81.0327
64.4728 -40.6679 101.377
65.6097 -41.3055 101.377
6.51625 14.1473 -85.5033
53.3476 -42.723 -8.26834
56.7398 -44.6256 -85.5033
44.5034 -8.3111 112.097
-64.6091 47.6952 -83.6525
62.568 -34.2336 101.377
-59.8118 4.74742 -67.284
71.94 -41.6308 -4.09274
-29.5569 -16.3945 -119.089
-57.0341 19.1882 -65.7028
-30.2725 7.65395 -85.5033
58.0605 -62.433 -119.089
11.3624 22.7884 -130.696
56.7361 -64.7945 -119.089
74.3604 -37.3151 -4.09274
-74.9583 29.2416 -83.6525
-57.962 8.04587 -83.6525
-37.0102 -3.70447 -83.6525
-15.8496 -1.52114 108.991
29.4895 -35.0817 39.8184
-5.51984 -7.31444 108.991
-6.51893 15.1162 114.199
-6.51893 15.1162 108.991
-16.8694 -3.3395 108.991
-10.6008 17.4054 108.991
65.6097 -41.3055 93.8946
3.8107 9.32295 108.991
3.8107 9.32295 -81.0327
-20.9512 -1.05007 -81.0327
-6.53982 -9.13319 -81.0327
-6.53982 -9.13319 112.097
-7.89514 22.2298 -130.696
73.9913 -23.6956 -119.089
3.8107 9.32295 114.199
77.5605 -31.6091 -119.089
7.5684 -22.7879 -85.5033
-20.9512 -1.05007 -83.6525
3.8107 9.32295 -83.6525
46.1881 -38.7074 108.991
72.6767 -36.3707 -4.09274
67.2739 -42.2388 57.3895
2.91765 7.73055 112.097
68.8804 -43.1398 57.3895
66.4048 -19.4408 -104.588
72.6767 -36.3707 57.3895
-42.6369 35.3724 -81.0327
-40.6096 47.663 -119.089
-42.6369 35.3724 -83.6525
-81.7843 17.0703 -67.284
49.8419 1.20793 -104.588
-42.4538 35.6988 -83.6525
-40.6096 47.663 -85.5033
-42.4538 35.6988 -67.284
71.2513 -10.7991 -104.588
44.9955 -7.43354 -104.588
53.5236 -25.6276 116.828
46.2447 -21.5448 126.328
78.3988 -26.1675 -130.696
25.2345 8.71218 -91.0805
78.3988 -26.1675 -119.089
-11.1535 -0.333784 114.199
69.4062 -34.5362 101.377
-64.787 6.4632 -85.5033
-64.3286 7.28055 -85.5033
-42.6369 35.3724 -67.284
50.8992 -47.0887 -91.0805
-64.426 48.0216 -83.6525
9.20654 -7.25064 126.328
67.2739 -42.2388 50.3116
46.0662 -55.7063 -119.089
68.8804 -43.1398 50.3116
71.0702 -35.4696 50.3116
72.6767 -36.3707 50.3116
46.2447 -21.5448 116.828
-13.8225 -22.1191 -104.588
-28.2344 -14.0365 -104.588
23.3329 -46.0593 -119.089
-59.8118 4.74742 -85.5033
-10.6008 17.4054 -85.5033
62.568 -34.2336 126.328
0.0314136 -4.5273 114.199
-81.7843 17.0703 -119.089
-10.4177 17.7319 -85.5033
56.723 -19.9227 39.8184
31.9385 -30.715 108.991
-10.4177 17.7319 -83.6525
-64.426 48.0216 -85.5033
-21.6849 23.6218 -83.6525
-21.6849 23.6218 -81.0327
66.4048 -19.4408 -130.696
56.8863 -36.4132 126.328
65.6097 -41.3055 50.3116
-10.4177 17.7319 -130.696
63.7349 -48.5491 50.3116
64.0752 -31.5461 101.377
60.2786 -38.3157 101.377
-58.8804 57.9098 -83.6525
-4.87196 27.6203 -85.5033
27.9208 13.502 -91.0805
64.0752 -31.5461 116.828
11.3624 22.7884 -119.089
43.7395 -43.0734 39.8184
58.4858 -51.3434 -119.089
12.8748 25.4853 -119.089
69.4062 -34.5362 50.3116
60.934 -46.9781 -4.09274
-2.7786 -16.0467 112.097
53.6528 -59.9611 -119.089
62.0708 -47.6157 -4.09274
53.6528 -59.9611 -130.696
58.4858 -51.3434 -130.696
50.8992 -47.0887 -104.588
-20.9512 -1.05007 -130.696
44.5034 -8.3111 87.2825
-28.2344 -14.0365 -91.0805
-82.2427 16.2529 -116.471
24.6566 -43.6992 -91.0805
-13.8225 -22.1191 -91.0805
24.6566 -43.6992 -119.089
64.0752 -31.5461 126.328
60.2786 -38.3157 126.328
-35.0853 48.8377 -85.5033
-61.592 1.57323 -119.089
7.5684 -22.7879 -91.0805
60.683 -29.6434 126.328
-59.9418 20.8191 -65.7028
-59.9418 20.8191 -67.284
66.4048 -19.4408 -85.5033
-39.9312 40.1969 -81.0327
-81.7843 17.0703 -85.5033
74.2701 -29.7637 -85.5033
44.9955 -7.43354 39.8184
73.9913 -23.6956 -130.696
78.8378 -15.0538 -119.089
78.8378 -15.0538 -130.696
-32.035 5.16664 -85.5033
72.4228 -29.1572 50.3116
71.2859 -28.5196 50.3116
68.2693 -33.8985 50.3116
56.8863 -36.4132 93.8946
53.3476 -42.723 93.8946
56.7398 -44.6256 93.8946
60.2786 -38.3157 93.8946
5.56636 -7.63146 122.441
5.56636 -7.63146 126.328
9.36474 -0.858635 126.328
-58.8804 57.9098 -85.5033
-6.51893 15.1162 112.097
-38.8601 -7.00304 -85.5033
-61.9033 52.5198 -85.5033
-67.7748 25.2125 -67.284
60.934 -46.9781 50.3116
12.8748 25.4853 -130.696
64.4728 -40.6679 50.3116
62.0708 -47.6157 50.3116
-20.9512 -1.05007 108.991
49.4439 -15.8404 87.2825
42.4732 -11.931 87.2825
60.934 -46.9781 -119.089
31.9385 -30.715 112.097
58.4858 -51.3434 -85.5033
60.934 -46.9781 -85.5033
64.577 -54.7595 -119.089
67.0251 -50.3945 -119.089
46.1881 -38.7074 39.8184
-20.9512 -1.05007 -67.284
12.3265 10.8886 108.991
9.8042 6.39087 112.097
-10.6008 17.4054 -83.6525
-81.7843 17.0703 -116.471
-60.2702 3.93006 -116.471
71.4692 -28.1928 -85.5033
-5.51984 -7.31444 114.199
25.2345 8.71218 -85.5033
-15.8496 -1.52114 114.199
23.0745 4.86069 -91.0805
-13.8225 -22.1191 -85.5033
-36.9083 45.5872 -81.0327
3.99384 9.64951 -85.5033
-59.8118 4.74742 -83.6525
-64.3286 7.28055 -116.471
59.2453 -15.4254 39.8184
56.723 -19.9227 -8.26834
42.4475 -28.3155 126.328
-20.9512 -1.05007 -85.5033
69.4062 -34.5362 93.8946
44.7422 -58.0673 -119.089
-54.7195 48.4909 -67.284
-10.6008 17.4054 -130.696
42.4475 -28.3155 122.441
27.9208 13.502 -85.5033
36.4603 -38.991 39.8184
63.6994 -24.2648 93.8946
-52.9864 16.9179 -81.0327
56.7361 -64.7945 -130.696
-60.2702 3.93006 -85.5033
-64.6091 47.6952 -85.5033
-61.9033 52.5198 -67.284
-57.4253 43.6663 -67.284
-55.4376 12.5471 -83.6525
-60.2702 3.93006 -119.089
77.5605 -31.6091 -85.5033
29.4895 -35.0817 87.2825
77.3773 -31.9358 -85.5033
53.5236 -25.6276 122.441
2.73554 -31.4053 -91.0805
2.73554 -31.4053 -85.5033
68.2693 -33.8985 101.377
29.4895 -35.0817 -104.588
-26.0009 1.78218 -85.5033
-38.7864 50.9134 -119.089
-27.7762 -13.2193 -85.5033
46.0662 -55.7063 -104.588
29.4895 -35.0817 -91.0805
71.0702 -35.4696 -4.09274
64.4728 -40.6679 93.8946
-6.53982 -9.13319 114.199
67.0251 -50.3945 -8.26834
-64.6091 47.6952 -67.284
70.5641 -44.0841 -8.26834
65.3415 -49.4502 -8.26834
71.4692 -28.1928 -119.089
60.2786 -38.3157 116.828
73.9913 -23.6956 -85.5033
36.4603 -38.991 87.2825
38.9091 -34.6247 87.2825
31.9385 -30.715 87.2825
51.9662 -11.343 39.8184
-5.7352 26.0811 -83.6525
63.7349 -48.5491 -8.26834
44.9955 -7.43354 -85.5033
-8.98979 -13.5018 108.991
29.4895 -35.0817 108.991
-13.8225 -22.1191 -119.089
60.934 -46.9781 93.8946
43.7395 -43.0734 -8.26834
60.683 -29.6434 122.441
44.5034 -8.3111 108.991
3.99384 9.64951 -130.696
-28.2344 -14.0365 -119.089
60.934 -46.9781 -8.26834
-3.00252 -2.82578 122.441
42.4732 -11.931 112.097
66.4048 -19.4408 -8.26834
11.3624 22.7884 -85.5033
-67.7748 25.2125 -57.9254
-3.04899 30.8708 -85.5033
31.9385 -30.715 122.441
71.4692 -28.1928 50.3116
-52.9864 16.9179 -67.284
70.5641 -44.0841 -85.5033
62.0708 -47.6157 -8.26834
-35.0853 48.8377 -119.089
11.3931 5.07045 112.097
60.683 -29.6434 93.8946
72.7638 -8.10214 -130.696
64.0752 -31.5461 93.8946
-36.1365 49.4272 -119.089
3.8107 9.32295 -85.5033
49.8419 1.20793 -119.089
-59.9418 20.8191 -57.9254
-1.5365 33.5676 -130.696
-55.4376 12.5471 -67.284
47.1556 -3.58194 -91.0805
38.9091 -34.6247 108.991
80.0827 -27.1119 -119.089
3.99384 9.64951 108.991
44.9955 -7.43354 108.991
-81.7843 17.0703 -83.6525
6.51625 14.1473 108.991
38.9091 -34.6247 39.8184
80.0827 -27.1119 -130.696
24.6566 -43.6992 -104.588
-1.5365 33.5676 -119.089
77.5605 -31.6091 -130.696
50.8992 -47.0887 -85.5033
46.1881 -38.7074 -8.26834
-64.426 48.0216 -67.284
3.8107 9.32295 -130.696
-64.6091 47.6952 -130.696
49.4439 -15.8404 108.991
-67.7748 25.2125 -65.7028
-64.426 48.0216 -130.696
53.3476 -42.723 -85.5033
51.4741 -12.2205 39.8184
53.3476 -42.723 -130.696
-58.8804 57.9098 -119.089
49.4439 -15.8404 112.097
-23.4016 -5.4193 -130.696
72.7638 -8.10214 -119.089
-58.8804 57.9098 -67.284
-57.0574 61.1603 -130.696
42.4732 -11.931 108.991
59.2453 -15.4254 -85.5033
66.4048 -19.4408 -91.0805
-8.98979 -13.5018 -85.5033
66.4048 -19.4408 -119.089
63.8826 -23.9381 -130.696
62.0708 -47.6157 -85.5033
-77.4102 24.8697 -119.089
-82.2427 16.2529 -119.089
67.2739 -42.2388 -4.09274
59.2453 -15.4254 -8.26834
11.3624 22.7884 -91.0805
-8.98979 -13.5018 -130.696
-39.9312 40.1969 -83.6525
-10.6008 17.4054 -67.284
-3.04899 30.8708 -119.089
-55.545 63.8572 -130.696
50.8992 -47.0887 -130.696
46.1881 -38.7074 93.8946
-28.2344 -14.0365 -130.696
12.5628 4.84375 114.199
-52.9864 16.9179 -83.6525
35.4768 -24.4061 122.441
63.8826 -23.9381 -8.26834
46.2447 -21.5448 122.441
-74.9583 29.2416 -67.284
-3.88966 -4.40765 115.328
36.4603 -38.991 -85.5033
6.51625 14.1473 -130.696
77.3773 -31.9358 -130.696
74.3604 -37.3151 -85.5033
-77.4102 24.8697 -67.284
64.577 -54.7595 -130.696
-37.7714 44.0481 -83.6525
-57.0574 61.1603 -119.089
-11.1535 -0.333784 115.328
50.8992 -47.0887 -119.089
-58.8804 57.9098 -130.696
67.0251 -50.3945 -130.696
-28.2344 -14.0365 -85.5033
10.8817 4.15848 112.097
-61.9033 52.5198 -83.6525
-13.8225 -22.1191 -130.696
-77.4102 24.8697 -130.696
-82.2427 16.2529 -130.696
50.8992 -47.0887 -8.26834
-3.04899 30.8708 -130.696
63.8826 -23.9381 39.8184
-74.9583 29.2416 -130.696
56.723 -19.9227 93.8946
53.3476 -42.723 39.8184
49.8419 1.20793 -91.0805
44.9955 -7.43354 -91.0805
-77.4102 24.8697 -83.6525
-61.9033 52.5198 -130.696
51.9662 -11.343 -85.5033
65.3415 -49.4502 -85.5033
42.4732 -11.931 114.199
49.4439 -15.8404 39.8184
67.0251 -50.3945 -85.5033
-23.4016 -5.4193 -85.5033
-77.4102 24.8697 -85.5033
56.8863 -36.4132 122.441
63.8826 -23.9381 -85.5033
31.9385 -30.715 114.199
63.7349 -48.5491 -85.5033
-6.53982 -9.13319 -85.5033
38.9091 -34.6247 122.441
71.2513 -10.7991 -130.696
-6.53982 -9.13319 -130.696
-6.53982 -9.13319 122.441
-4.87196 27.6203 -130.696
-29.5569 -16.3945 -130.696
-36.9083 45.5872 -67.284
43.7395 -43.0734 -85.5033
-74.9583 29.2416 -85.5033
4  483 732 649 559  255 0 0
4  483 711 706 659  255 0 0
4  463 653 650 559  255 0 0
4  463 609 691 402  255 0 0
4  463 559 649 609  255 0 0
4  483 559 650 711  255 0 0
4  402 717 653 463  255 0 0
5  402 691 383 709 734  255 0 0
4  402 734 700 717  255 0 0
5  709 632 4 679 662  255 0 0
4  709 383 523 632  255 0 0
4  659 675 732 483  255 0 0
6  701 656 680 481 334 695  255 0 0
4  695 533 534 701  255 0 0
5  692 649 732 656 701  255 0 0
7  701 534 722 621 693 574 692  255 0 0
5  649 692 645 668 609  255 0 0
4  650 567 738 711  255 0 0
4  688 386 375 589  255 0 0
4  677 395 526 536  255 0 0
6  677 174 398 397 393 395  255 0 0
6  536 399 295 150 174 677  255 0 0
6  536 526 394 358 400 399  255 0 0
4  688 589 569 521  255 0 0
4  675 680 656 732  255 0 0
4  729 269 268 666  255 0 0
4  722 588 590 621  255 0 0
7  722 534 529 532 669 728 719  255 0 0
9  666 268 602 347 603 573 390 345 406  255 0 0
4  722 719 591 588  255 0 0
4  646 737 606 708  255 0 0
6  646 531 473 699 482 436  255 0 0
5  654 373 532 531 646  255 0 0
6  654 372 713 511 512 373  255 0 0
4  646 708 372 654  255 0 0
6  642 428 503 460 668 645  255 0 0
4  645 405 636 642  255 0 0
4  609 668 460 691  255 0 0
4  691 460 731 383  255 0 0
4  572 302 300 304  255 0 0
4  371 65 64 549  255 0 0
9  371 344 601 502 327 638 537 640 65  255 0 0
6  572 304 501 542 592 405  255 0 0
8  726 542 178 619 339 236 710 686  255 0 0
6  498 664 718 601 715 665  255 0 0
4  498 594 542 726  255 0 0
4  498 614 673 664  255 0 0
4  726 686 614 498  255 0 0
4  642 76 79 428  255 0 0
4  642 636 78 76  255 0 0
4  383 731 626 523  255 0 0
4  615 674 469 561  255 0 0
4  615 561 544 305  255 0 0
4  371 305 544 344  255 0 0
5  706 711 738 724 670  255 0 0
4  695 334 73 72  255 0 0
4  675 659 682 705  255 0 0
4  659 706 707 682  255 0 0
5  682 735 353 351 705  255 0 0
5  682 707 363 216 735  255 0 0
5  706 670 452 671 707  255 0 0
4  694 716 386 688  255 0 0
4  694 419 639 716  255 0 0
4  694 633 377 419  255 0 0
7  694 688 521 497 354 620 633  255 0 0
4  629 408 539 449  255 0 0
4  574 693 385 303  255 0 0
4  653 717 520 457  255 0 0
4  648 437 704 568  255 0 0
6  648 568 558 92 154 131  255 0 0
7  733 229 228 689 237 275 612  255 0 0
5  733 618 727 587 229  255 0 0
4  690 345 390 562  255 0 0
6  690 737 646 436 584 345  255 0 0
6  730 186 190 530 727 618  255 0 0
5  690 562 472 606 737  255 0 0
4  555 407 269 729  255 0 0
4  449 539 456 453  255 0 0
4  555 233 232 407  255 0 0
5  718 664 673 552 598  255 0 0
6  132 271 720 613 658 102  255 0 0
4  718 598 502 601  255 0 0
7  532 373 512 605 522 476 611  255 0 0
4  532 611 622 669  255 0 0
4  460 503 505 731  255 0 0
5  731 505 255 252 626  255 0 0
6  498 665 414 667 403 594  255 0 0
4  728 669 622 600  255 0 0
4  728 600 591 719  255 0 0
5  617 678 471 674 615  255 0 0
6  617 615 305 133 134 468  255 0 0
4  371 59 133 305  255 0 0
4  567 375 386 738  255 0 0
4  738 386 716 724  255 0 0
4  555 580 231 233  255 0 0
4  523 626 660 474  255 0 0
4  709 662 700 734  255 0 0
4  568 704 467 661  255 0 0
5  717 700 657 517 520  255 0 0
4  662 697 657 700  255 0 0
6  661 467 257 548 736 66  255 0 0
4  568 661 66 558  255 0 0
4  407 399 400 269  255 0 0
4  539 174 63 456  255 0 0
4  407 232 295 399  255 0 0
4  695 72 75 533  255 0 0
7  735 379 291 288 447 557 353  255 0 0
4  705 351 680 675  255 0 0
4  547 488 485 702  255 0 0
4  547 577 576 488  255 0 0
4  666 406 577 547  255 0 0
4  351 480 481 680  255 0 0
4  724 716 639 500  255 0 0
8  702 485 446 338 610 571 541 566  255 0 0
5  724 500 540 452 670  255 0 0
4  723 37 16 15  255 0 0
5  702 566 448 519 582  255 0 0
4  725 192 188 194  255 0 0
4  612 275 270 272  255 0 0
5  725 194 560 554 461  255 0 0
4  730 618 685 560  255 0 0
6  618 733 612 272 514 685  255 0 0
5  607 495 427 687 575  255 0 0
4  607 575 426 365  255 0 0
4  707 671 221 363  255 0 0
4  363 219 218 216  255 0 0
4  363 221 214 219  255 0 0
5  735 216 217 493 379  255 0 0
4  620 354 34 435  255 0 0
5  418 458 346 331 684  255 0 0
4  684 564 416 418  255 0 0
4  620 435 416 564  255 0 0
4  601 344 546 715  255 0 0
4  271 13 683 720  255 0 0
4  560 194 188 187  255 0 0
5  560 685 514 515 554  255 0 0
4  687 444 426 575  255 0 0
5  725 461 491 593 192  255 0 0
4  604 337 293 292  255 0 0
4  440 583 482 699  255 0 0
5  440 489 336 643 583  255 0 0
5  453 456 63 61 62  255 0 0
4  371 549 62 59  255 0 0
6  723 666 547 702 582 37  255 0 0
4  517 467 704 520  255 0 0
5  517 657 417 250 422  255 0 0
5  517 422 256 257 467  255 0 0
5  617 492 251 623 678  255 0 0
6  617 468 201 256 248 492  255 0 0
4  730 560 187 186  255 0 0
4  555 729 666 723  255 0 0
4  667 414 424 360  255 0 0
4  360 424 420 630  255 0 0
6  471 630 420 714 469 674  255 0 0
4  687 322 103 299  255 0 0
4  587 401 357 543  255 0 0
6  727 530 349 96 401 587  255 0 0
6  582 519 279 36 16 37  255 0 0
4  419 377 550 639  255 0 0
5  500 639 550 448 434  255 0 0
4  635 596 597 455  255 0 0
4  635 190 191 409  255 0 0
6  409 681 535 641 596 635  255 0 0
6  409 191 189 193 511 681  255 0 0
7  555 723 15 330 506 9 580  255 0 0
10  142 350 156 538 310 613 720 683 44 57  255 0 0
7  621 590 185 378 171 385 693  255 0 0
4  98 712 236 99  255 0 0
5  353 565 333 480 351  255 0 0
4  353 557 384 565  255 0 0
4  189 191 190 186  255 0 0
4  687 299 101 444  255 0 0
8  102 658 651 527 721 454 712 98  255 0 0
4  721 527 328 655  255 0 0
4  552 673 553 454  255 0 0
4  598 329 327 502  255 0 0
4  454 553 686 710  255 0 0
4  598 655 328 329  255 0 0
5  598 552 454 721 655  255 0 0
5  607 365 470 490 495  255 0 0
4  610 338 337 604  255 0 0
5  610 604 292 291 379  255 0 0
4  440 557 447 489  255 0 0
4  488 445 446 485  255 0 0
4  436 482 579 584  255 0 0
5  488 576 487 643 445  255 0 0
4  360 504 403 667  255 0 0
4  636 430 77 78  255 0 0
4  665 715 425 414  255 0 0
4  715 546 429 634  255 0 0
4  714 634 429 469  255 0 0
5  715 634 714 420 425  255 0 0
4  712 454 710 236  255 0 0
4  424 414 425 420  255 0 0
4  520 704 437 457  255 0 0
4  190 635 455 530  255 0 0
4  530 455 326 325  255 0 0
5  697 581 14 417 657  255 0 0
4  562 595 596 641  255 0 0
4  535 647 606 472  255 0 0
4  535 681 511 713  255 0 0
4  641 535 472 562  255 0 0
4  523 474 644 632  255 0 0
5  468 134 199 195 201  255 0 0
7  367 162 283 151 558 66 736  255 0 0
4  676 696 200 364  255 0 0
4  676 499 368 696  255 0 0
5  367 736 548 368 499  255 0 0
5  257 197 696 368 548  255 0 0
4  492 222 7 251  255 0 0
5  256 422 247 223 248  255 0 0
4  256 201 195 196  255 0 0
4  492 248 223 222  255 0 0
4  623 251 7 628  255 0 0
4  489 287 289 336  255 0 0
4  487 576 494 584  255 0 0
4  584 494 406 345  255 0 0
4  487 584 579 643  255 0 0
6  643 336 289 293 337 445  255 0 0
4  482 583 643 579  255 0 0
5  687 427 516 140 322  255 0 0
4  521 652 496 497  255 0 0
4  569 128 652 521  255 0 0
4  616 124 122 119  255 0 0
4  616 631 123 124  255 0 0
4  129 117 118 125  255 0 0
4  129 130 116 117  255 0 0
4  616 119 121 631  255 0 0
4  684 331 332 570  255 0 0
5  572 405 645 692 574  255 0 0
4  574 303 302 572  255 0 0
4  614 686 553 673  255 0 0
4  676 364 148 421  255 0 0
4  570 332 388 387  255 0 0
5  633 620 564 684 570  255 0 0
5  455 597 573 603 326  255 0 0
4  511 193 192 510  255 0 0
4  713 372 647 535  255 0 0
6  550 377 633 570 387 278  255 0 0
4  613 663 651 658  255 0 0
4  350 637 160 156  255 0 0
4  613 374 608 663  255 0 0
4  613 310 42 374  255 0 0
4  372 708 606 647  255 0 0
4  697 662 679 5  255 0 0
4  679 30 0 5  255 0 0
4  679 4 1 30  255 0 0
4  632 644 3 4  255 0 0
4  423 31 162 367  255 0 0
4  423 367 499 173  255 0 0
4  676 421 173 499  255 0 0
5  365 625 627 465 470  255 0 0
4  100 563 625 365  255 0 0
4  699 473 478 440  255 0 0
4  533 75 74 335  255 0 0
4  671 486 220 221  255 0 0
4  671 452 540 486  255 0 0
4  638 327 484 608  255 0 0
4  663 528 527 651  255 0 0
4  663 608 484 528  255 0 0
9  128 125 118 115 104 111 122 124 652  255 0 0
4  652 124 123 496  255 0 0
4  626 252 253 660  255 0 0
5  474 660 360 630 471  255 0 0
4  221 220 213 214  255 0 0
4  610 379 493 571  255 0 0
4  653 457 567 650  255 0 0
4  457 437 375 567  255 0 0
4  437 648 589 375  255 0 0
4  435 34 31 423  255 0 0
4  569 589 648 131  255 0 0
8  5 3 644 678 623 628 581 697  255 0 0
4  235 508 509 355  255 0 0
5  355 509 475 306 556  255 0 0
4  355 578 465 627  255 0 0
4  235 355 627 234  255 0 0
11  549 64 637 350 142 146 145 397 398 408 629  255 0 0
4  401 358 391 357  255 0 0
4  401 96 95 358  255 0 0
4  530 325 477 349  255 0 0
5  637 64 65 640 204  255 0 0
5  640 537 203 159 204  255 0 0
5  638 608 41 203 537  255 0 0
4  637 204 159 160  255 0 0
4  556 432 578 355  255 0 0
4  126 32 207 206  255 0 0
4  496 380 354 497  255 0 0
4  496 361 352 380  255 0 0
4  130 284 205 116  255 0 0
4  631 121 120 123  255 0 0
4  496 123 120 361  255 0 0
4  126 206 205 284  255 0 0
5  396 307 462 524 586  255 0 0
8  427 312 245 239 52 211 267 516  255 0 0
8  554 515 55 438 51 241 242 266  255 0 0
4  234 627 625 563  255 0 0
4  390 573 595 562  255 0 0
5  410 169 443 442 585  255 0 0
4  385 170 169 410  255 0 0
4  303 385 410 298  255 0 0
4  500 434 551 540  255 0 0
5  192 593 466 513 510  255 0 0
4  513 466 369 586  255 0 0
4  586 524 522 605  255 0 0
4  586 369 370 396  255 0 0
4  586 605 512 513  255 0 0
4  600 181 183 591  255 0 0
4  622 479 181 600  255 0 0
5  660 253 254 504 360  255 0 0
6  602 268 269 400 358 230  255 0 0
4  358 95 93 230  255 0 0
4  603 347 324 326  255 0 0
5  602 230 93 324 347  255 0 0
4  185 168 165 378  255 0 0
4  185 590 588 184  255 0 0
4  182 167 168 185  255 0 0
4  385 171 166 170  255 0 0
4  591 183 184 588  255 0 0
5  636 405 592 403 430  255 0 0
4  596 595 573 597  255 0 0
4  585 442 176 297  255 0 0
4  542 501 296 178  255 0 0
4  542 594 403 592  255 0 0
5  672 439 441 167 182  255 0 0
4  581 628 40 14  255 0 0
4  417 14 246 250  255 0 0
4  422 250 246 247  255 0 0
4  298 410 585 297  255 0 0
4  322 140 12 103  255 0 0
4  576 577 406 494  255 0 0
4  571 281 280 541  255 0 0
4  566 433 434 448  255 0 0
4  566 541 280 433  255 0 0
4  174 539 408 398  255 0 0
4  174 150 149 319  255 0 0
4  99 236 563 100  255 0 0
5  396 370 80 432 556  255 0 0
4  556 306 307 396  255 0 0
4  429 544 561 469  255 0 0
5  558 151 90 86 92  255 0 0
4  131 154 155 321  255 0 0
5  440 478 382 384 557  255 0 0
8  427 495 46 47 461 554 266 312  255 0 0
5  459 319 149 341 340  255 0 0
4  331 311 9 506  255 0 0
4  331 346 8 311  255 0 0
4  459 340 346 458  255 0 0
4  611 476 479 622  255 0 0
4  448 276 279 519  255 0 0
4  448 550 278 276  255 0 0
4  136 362 366 135  255 0 0
4  426 444 101 97  255 0 0
4  546 344 544 429  255 0 0
4  540 551 280 486  255 0 0
4  538 156 157 202  255 0 0
4  538 202 42 310  255 0 0
7  141 71 140 309 56 514 272  255 0 0
4  501 304 300 296  255 0 0
4  297 176 177 296  255 0 0
5  534 533 335 473 529  255 0 0
5  473 335 74 382 478  255 0 0
4  531 532 529 473  255 0 0
4  328 527 528 484  255 0 0
4  476 522 525 479  255 0 0
4  479 525 464 181  255 0 0
4  462 307 411 439  255 0 0
4  462 525 522 524  255 0 0
4  330 15 17 332  255 0 0
4  332 17 320 388  255 0 0
5  140 71 70 158 12  255 0 0
4  140 516 267 309  255 0 0
4  515 514 56 55  255 0 0
4  513 512 511 510  255 0 0
4  299 103 271 132  255 0 0
4  508 235 339 619  255 0 0
4  507 475 509 508  255 0 0
5  503 428 79 255 505  255 0 0
5  504 254 77 430 403  255 0 0
4  136 63 147 362  255 0 0
4  495 490 450 46  255 0 0
4  461 47 48 491  255 0 0
8  593 491 48 450 490 470 38 50  255 0 0
5  480 333 73 334 481  255 0 0
4  442 308 306 475  255 0 0
4  176 442 475 507  255 0 0
4  644 474 471 678  255 0 0
4  580 9 381 231  255 0 0
4  593 50 49 466  255 0 0
4  470 465 376 38  255 0 0
4  578 39 376 465  255 0 0
4  369 466 49 81  255 0 0
4  181 464 439 672  255 0 0
4  439 411 413 441  255 0 0
4  439 464 525 462  255 0 0
4  362 147 148 364  255 0 0
4  458 418 421 148  255 0 0
5  453 62 549 629 449  255 0 0
4  447 288 287 489  255 0 0
4  445 337 338 446  255 0 0
6  441 413 415 443 172 317  255 0 0
4  443 169 163 172  255 0 0
4  443 415 308 442  255 0 0
4  441 317 164 167  255 0 0
4  434 433 280 551  255 0 0
4  254 255 79 77  255 0 0
4  365 426 97 100  255 0 0
4  435 423 173 416  255 0 0
4  173 421 418 416  255 0 0
4  415 413 411 308  255 0 0
4  404 145 412 249  255 0 0
4  587 543 228 229  255 0 0
4  404 392 518 145  255 0 0
4  404 249 227 392  255 0 0
4  145 146 58 139  255 0 0
4  145 518 393 397  255 0 0
5  395 393 389 394 526  255 0 0
4  358 394 389 391  255 0 0
4  393 518 356 389  255 0 0
7  518 392 227 224 226 545 356  255 0 0
4  356 357 391 389  255 0 0
4  36 279 277 388  255 0 0
4  388 277 278 387  255 0 0
4  384 382 333 565  255 0 0
4  374 42 41 608  255 0 0
4  202 203 41 42  255 0 0
5  432 80 81 39 578  255 0 0
4  370 369 81 80  255 0 0
4  696 197 198 200  255 0 0
4  599 135 366 200  255 0 0
4  366 362 364 200  255 0 0
4  359 208 207 352  255 0 0
6  120 110 112 205 208 359  255 0 0
4  359 352 361 120  255 0 0
4  543 225 689 228  255 0 0
5  545 226 431 225 543  255 0 0
4  545 543 357 356  255 0 0
6  32 34 354 380 352 207  255 0 0
4  349 477 94 96  255 0 0
4  341 149 83 342  255 0 0
4  342 83 85 231  255 0 0
5  341 342 8 346 340  255 0 0
4  493 217 281 571  255 0 0
4  486 280 180 220  255 0 0
4  333 382 74 73  255 0 0
4  332 331 506 330  255 0 0
4  329 328 484 327  255 0 0
4  231 85 84 233  255 0 0
4  342 231 381 8  255 0 0
4  477 325 326 324  255 0 0
4  103 12 13 271  255 0 0
4  290 321 155 318  255 0 0
4  290 318 316 127  255 0 0
4  282 152 151 283  255 0 0
5  282 161 33 286 314  255 0 0
5  282 314 153 91 152  255 0 0
4  127 316 314 286  255 0 0
6  318 155 87 153 314 316  255 0 0
4  312 266 242 245  255 0 0
4  267 55 56 309  255 0 0
4  308 411 307 306  255 0 0
4  302 303 298 300  255 0 0
4  296 177 619 178  255 0 0
4  300 298 297 296  255 0 0
4  232 82 150 295  255 0 0
4  294 285 288 291  255 0 0
4  293 289 285 294  255 0 0
4  293 294 291 292  255 0 0
4  285 289 287 288  255 0 0
4  283 162 161 282  255 0 0
4  180 280 281 217  255 0 0
4  278 277 279 276  255 0 0
5  275 237 175 238 270  255 0 0
4  274 451 348 143  255 0 0
4  274 238 175 451  255 0 0
4  143 144 238 274  255 0 0
4  273 270 238 144  255 0 0
4  273 141 272 270  255 0 0
4  267 263 264 55  255 0 0
4  267 211 212 263  255 0 0
4  55 264 210 438  255 0 0
4  264 263 212 210  255 0 0
4  262 259 258 261  255 0 0
4  261 258 260 243  255 0 0
4  244 240 259 262  255 0 0
4  243 260 239 245  255 0 0
4  262 261 243 244  255 0 0
4  240 244 242 241  255 0 0
4  258 259 240 260  255 0 0
4  257 256 196 197  255 0 0
4  134 599 200 199  255 0 0
4  255 254 253 252  255 0 0
4  247 246 6 223  255 0 0
4  244 243 245 242  255 0 0
4  241 51 52 239  255 0 0
4  260 240 241 239  255 0 0
4  237 323 24 175  255 0 0
5  339 235 234 563 236  255 0 0
4  233 84 82 232  255 0 0
4  477 324 93 94  255 0 0
6  323 237 689 698 209 27  255 0 0
5  249 26 343 224 227  255 0 0
4  226 224 343 431  255 0 0
4  689 225 431 698  255 0 0
4  27 209 343 26  255 0 0
4  222 223 6 7  255 0 0
4  214 215 218 219  255 0 0
4  217 216 218 215  255 0 0
4  215 214 213 179  255 0 0
4  220 180 179 213  255 0 0
4  211 52 54 212  255 0 0
4  212 54 53 210  255 0 0
4  210 53 51 438  255 0 0
4  209 698 431 343  255 0 0
4  205 112 114 116  255 0 0
4  208 205 206 207  255 0 0
4  203 202 157 159  255 0 0
4  199 200 198 195  255 0 0
4  198 197 196 195  255 0 0
4  193 189 188 192  255 0 0
4  189 186 187 188  255 0 0
4  185 184 183 182  255 0 0
4  182 183 181 672  255 0 0
4  180 217 215 179  255 0 0
5  177 176 507 508 619  255 0 0
4  24 348 451 175  255 0 0
5  147 63 174 319 459  255 0 0
4  317 172 163 164  255 0 0
4  378 165 166 171  255 0 0
4  170 166 163 169  255 0 0
4  165 168 167 164  255 0 0
4  166 165 164 163  255 0 0
4  33 161 162 31  255 0 0
4  159 157 156 160  255 0 0
4  154 92 86 89  255 0 0
4  155 154 89 87  255 0 0
4  153 87 88 91  255 0 0
4  152 91 90 151  255 0 0
4  150 82 83 149  255 0 0
4  147 459 458 148  255 0 0
4  143 348 23 28  255 0 0
5  26 249 137 28 23  255 0 0
5  145 139 35 138 412  255 0 0
4  58 10 624 139  255 0 0
5  273 144 29 22 265  255 0 0
4  144 143 28 29  255 0 0
4  141 69 70 71  255 0 0
5  141 273 265 68 69  255 0 0
4  12 158 11 13  255 0 0
4  139 624 703 35  255 0 0
4  138 35 18 137  255 0 0
4  137 18 19 22  255 0 0
4  138 137 249 412  255 0 0
4  136 135 301 60  255 0 0
5  135 599 134 133 301  255 0 0
4  59 60 301 133  255 0 0
4  299 132 102 101  255 0 0
5  321 290 129 125 128  255 0 0
4  131 321 128 569  255 0 0
4  130 129 290 127  255 0 0
4  32 126 286 33  255 0 0
5  127 286 126 284 130  255 0 0
4  121 108 110 120  255 0 0
4  122 111 109 119  255 0 0
5  119 109 105 108 121  255 0 0
4  116 114 113 117  255 0 0
4  117 113 115 118  255 0 0
5  112 110 107 104 115  255 0 0
4  114 112 115 113  255 0 0
3  109 106 105  255 0 0
4  111 104 106 109  255 0 0
4  108 105 107 110  255 0 0
4  106 104 107 105  255 0 0
4  97 101 102 98  255 0 0
4  100 97 98 99  255 0 0
4  96 94 93 95  255 0 0
4  91 88 86 90  255 0 0
4  87 89 86 88  255 0 0
4  82 84 85 83  255 0 0
4  78 77 79 76  255 0 0
4  74 75 72 73  255 0 0
4  21 158 70 67  255 0 0
4  68 265 22 19  255 0 0
4  70 69 68 67  255 0 0
4  136 60 61 63  255 0 0
4  61 60 59 62  255 0 0
4  58 146 142 57  255 0 0
4  57 44 10 58  255 0 0
4  53 54 52 51  255 0 0
4  24 323 27 25  255 0 0
4  50 38 376 49  255 0 0
4  49 376 39 81  255 0 0
4  47 46 45 43  255 0 0
4  48 313 315 450  255 0 0
4  48 47 43 313  255 0 0
4  46 450 315 45  255 0 0
4  45 315 313 43  255 0 0
4  22 29 28 137  255 0 0
4  36 388 320 16  255 0 0
4  624 10 20 703  255 0 0
4  20 18 35 703  255 0 0
4  33 31 34 32  255 0 0
4  26 23 25 27  255 0 0
4  25 23 348 24  255 0 0
4  10 21 67 20  255 0 0
5  67 68 19 18 20  255 0 0
4  320 17 15 16  255 0 0
4  6 246 14 40  255 0 0
4  13 11 44 683  255 0 0
5  44 11 158 21 10  255 0 0
4  9 311 8 381  255 0 0
4  7 6 40 628  255 0 0
4  5 0 2 3  255 0 0
4  4 3 2 1  255 0 0
4  1 2 0 30  255 0 0

