OFF
974 1476 0

67.2739 -42.2388 39.8184
71.0702 -35.4696 39.8184
67.2739 -42.2388 50.3116
71.0702 -35.4696 50.3116
72.6767 -36.3707 50.3116
69.4062 -34.5362 50.3116
68.2693 -33.8985 50.3116
64.4728 -40.6679 50.3116
65.6097 -41.3055 50.3116
68.8804 -43.1398 50.3116
70.2563 -40.6865 50.3116
71.1698 -39.0577 50.3116
70.734 -39.8347 -4.09274
68.8804 -43.1398 -4.09274
72.6767 -36.3707 -4.09274
72.6767 -36.3707 -0.134231
71.1698 -39.0577 -0.134231
70.2563 -40.6865 -0.134231
68.8804 -43.1398 -0.134231
64.0752 -31.5461 93.8946
68.2693 -33.8985 93.8946
62.1727 -34.9384 93.8946
60.2786 -38.3157 93.8946
64.4728 -40.6679 93.8946
-59.3472 28.5303 -61.1087
-67.7748 25.2125 -61.1087
-65.1257 29.936 -61.1087
-64.3428 31.332 -61.1087
-61.4422 36.504 -61.1087
-56.5097 26.9389 -61.1087
-57.2926 25.5429 -61.1087
-59.9418 20.8191 -61.1087
-60.1748 38.7638 -61.1087
-61.1973 36.9406 -61.1087
-57.4253 43.6663 -61.1087
-57.2423 43.9927 -61.1087
-56.2886 45.6931 -61.1087
-48.4555 41.3002 -61.1087
-49.4092 39.5996 -61.1087
-49.5922 39.2732 -61.1087
-52.3416 34.3708 -61.1087
-53.3642 32.5475 -61.1087
-57.2926 25.5429 -65.7028
-52.3416 34.3708 -65.7028
4.46907 8.38579 108.991
4.89451 9.14438 108.991
-5.63926 -9.63829 108.991
-5.63926 -9.63829 112.097
3.81831 7.22543 112.097
4.71136 8.81782 112.097
4.89451 9.14438 112.097
49.4126 -32.2217 93.8946
56.8863 -36.4132 93.8946
42.4475 -28.3155 93.8946
42.4475 -28.3155 114.199
56.8863 -36.4132 114.199
-3.00252 -2.82578 115.328
-3.00252 -2.82578 114.199
2.35105 -6.89957 114.199
-4.7352 -27.2155 -119.089
-4.7352 -27.2155 -115.062
-13.4795 -22.3114 -119.089
-13.4795 -22.3114 -115.062
6.59981 -5.78872 126.328
8.0549 -3.19418 126.328
9.20654 -7.25064 126.328
9.93185 -7.65742 126.328
11.387 -5.06288 126.328
10.6617 -4.65613 126.328
31.6443 -19.8343 126.328
33.0994 -17.2397 126.328
37.3278 -23.0218 126.328
38.7829 -20.4272 126.328
58.2622 -33.9598 126.328
59.1756 -32.3311 126.328
61.6545 -35.8623 126.328
62.568 -34.2336 126.328
-64.3286 7.28055 -116.471
-41.4221 48.1187 -116.471
-64.3286 7.28055 -85.5033
-58.8617 17.027 -85.5033
-49.9858 32.8512 -85.5033
-48.959 34.6818 -85.5033
-47.9622 36.4588 -85.5033
-47.3206 37.6026 -85.5033
-43.9749 43.5674 -85.5033
-43.2149 44.9224 -85.5033
-41.4221 48.1187 -85.5033
-39.1644 41.5643 -85.5033
-40.1208 39.8589 -85.5033
2.38121 6.77401 -83.6525
2.38121 6.77401 -85.5033
2.38121 6.77401 -84.8858
-23.1144 21.0728 -85.5033
-17.0801 17.6886 -85.5033
-23.1144 21.0728 -83.6525
-17.0801 17.6886 -83.6525
-12.0303 14.8565 -85.5033
-10.6008 17.4054 -81.0327
3.8107 9.32295 -81.0327
-6.53982 -9.13319 -81.0327
68.2693 -33.8985 57.3895
64.4728 -40.6679 57.3895
68.2693 -33.8985 101.377
66.7622 -36.5858 101.377
65.8487 -38.2146 101.377
64.4728 -40.6679 101.377
60.934 -46.9781 39.8184
56.7398 -44.6256 57.3895
60.934 -46.9781 57.3895
59.1233 -40.3757 57.3895
-49.1497 41.6895 -65.7028
-52.6197 43.6355 -65.7028
-48.4555 41.3002 -65.7028
-49.4092 39.5996 -65.7028
-49.5922 39.2732 -65.7028
58.1777 -20.7386 114.199
60.683 -29.6434 93.8946
58.1777 -20.7386 93.8946
61.6754 -33.1708 93.8946
62.1727 -34.9384 101.377
62.1727 -34.9384 114.199
62.0322 -34.4391 114.199
60.8567 -30.2609 114.199
60.84 -30.2016 114.199
58.3616 -21.3923 114.199
60.683 -29.6434 93.8946
38.9091 -34.6247 93.8946
46.1881 -38.7074 93.8946
63.6994 -24.2648 93.8946
63.8826 -23.9381 93.8946
56.723 -19.9227 93.8946
49.4439 -15.8404 93.8946
53.3476 -42.723 93.8946
42.4732 -11.931 87.2825
49.4439 -15.8404 87.2825
31.9385 -30.715 87.2825
38.9091 -34.6247 87.2825
44.4448 -24.7541 39.8184
38.9091 -34.6247 39.8184
47.3097 -19.6459 39.8184
49.4439 -15.8404 39.8184
49.4439 -15.8404 108.991
49.4439 -15.8404 112.097
49.4439 -15.8404 114.199
49.1195 -16.4188 114.199
45.0661 -23.6462 114.199
44.9243 -23.8991 114.199
38.9091 -34.6247 114.199
38.9091 -34.6247 112.097
38.9091 -34.6247 108.991
41.7785 -13.1697 112.097
41.7785 -13.1697 114.199
10.8817 4.15848 112.097
10.8817 4.15848 114.199
31.9385 -30.715 112.097
8.72805 4.47188 112.097
11.3931 5.07045 112.097
12.5628 4.84375 112.097
3.8107 9.32295 112.097
3.99384 9.64951 112.097
9.62105 6.06429 112.097
9.10962 5.15231 112.097
2.91765 7.73055 112.097
-5.51984 -7.31444 112.097
-6.53982 -9.13319 112.097
-0.729202 -12.3923 112.097
42.4732 -11.931 112.097
9.8042 6.39087 112.097
1.19636 4.66129 114.199
3.8107 9.32295 108.991
-5.51984 -7.31444 108.991
-5.51984 -7.31444 114.199
-3.88966 -4.40765 114.199
-3.26388 -3.29181 114.199
2.91765 7.73055 114.199
10.8817 4.15848 116.828
48.7492 -17.0792 116.828
10.8817 4.15848 122.441
11.8682 3.60519 122.441
41.7785 -13.1697 122.441
48.7492 -17.0792 122.441
6.60639 0.688544 116.828
12.5628 4.84375 116.828
62.568 -34.2336 116.828
42.4475 -28.3155 116.828
2.8081 -6.08455 116.828
-6.53982 -9.13319 116.828
46.2447 -21.5448 116.828
-3.00252 -2.82578 116.828
8.72805 4.47188 116.828
9.10962 5.15231 116.828
11.3931 5.07045 116.828
11.5763 5.39703 116.828
42.4732 -11.931 116.828
49.4439 -15.8404 116.828
49.2607 -16.1671 116.828
53.5236 -25.6276 116.828
60.683 -29.6434 116.828
64.0752 -31.5461 116.828
61.6545 -35.8623 116.828
60.2786 -38.3157 116.828
56.8863 -36.4132 116.828
49.7266 -32.3978 116.828
38.9091 -34.6247 116.828
31.9385 -30.715 116.828
60.683 -29.6434 122.441
64.0752 -31.5461 122.441
53.5236 -25.6276 122.441
46.2447 -21.5448 122.441
39.2742 -17.635 122.441
9.36474 -0.858635 122.441
8.0549 -3.19418 122.441
6.59981 -5.78872 122.441
5.56636 -7.63146 122.441
35.4768 -24.4061 122.441
42.4475 -28.3155 122.441
49.7266 -32.3978 122.441
56.8863 -36.4132 122.441
60.2786 -38.3157 122.441
27.9208 13.502 -104.588
23.0745 4.86069 -104.588
27.9208 13.502 -91.0805
25.2345 8.71218 -91.0805
23.0745 4.86069 -91.0805
11.3624 22.7884 -104.588
49.8419 1.20793 -104.588
11.01 22.1601 -104.588
8.10175 16.9744 -104.588
6.51625 14.1473 -104.588
44.9955 -7.43354 -104.588
7.5684 -22.7879 -104.588
2.73554 -31.4053 -104.588
7.5684 -22.7879 -91.0805
2.73554 -31.4053 -91.0805
71.4692 -28.1928 -119.089
60.934 -46.9781 -119.089
71.4692 -28.1928 -85.5033
69.6942 -31.3577 -85.5033
60.934 -46.9781 -85.5033
-8.98979 -13.5018 -104.588
29.4895 -35.0817 -104.588
-13.8225 -22.1191 -104.588
24.6566 -43.6992 -104.588
-8.98979 -13.5018 -85.5033
50.8992 -47.0887 -119.089
-1.64622 -17.6202 -119.089
-8.71261 -13.6572 -119.089
-8.98979 -13.5018 -119.089
7.5684 -22.7879 -85.5033
29.4895 -35.0817 -91.0805
50.8992 -47.0887 -104.588
67.2739 -42.2388 -4.09274
71.0702 -35.4696 -4.09274
53.3476 -42.723 -4.09274
56.7398 -44.6256 -4.09274
74.3604 -37.3151 -4.09274
74.0869 -30.0905 -4.09274
74.2701 -29.7637 -4.09274
71.4692 -28.1928 -4.09274
63.8826 -23.9381 -4.09274
60.934 -46.9781 -4.09274
62.0708 -47.6157 -4.09274
63.7349 -48.5491 -4.09274
70.5641 -44.0841 -4.09274
71.94 -41.6308 -4.09274
72.8535 -40.002 -4.09274
53.3476 -42.723 -85.5033
63.8826 -23.9381 -85.5033
53.3476 -42.723 -8.26834
53.3476 -42.723 39.8184
57.722 -34.923 39.8184
61.1286 -28.8488 39.8184
63.8826 -23.9381 39.8184
63.8826 -23.9381 -8.26834
-10.785 28.9132 -83.6525
-10.785 28.9132 -81.0327
-14.3182 22.6132 -83.6525
-17.0801 17.6886 -81.0327
-15.6506 20.2375 -81.0327
-15.4675 20.564 -81.0327
-12.945 25.0619 -81.0327
-30.4577 7.97922 -85.5033
-32.035 5.16664 -85.5033
-22.2322 22.646 -85.5033
-20.3637 25.9776 -85.5033
-16.8193 32.2975 -85.5033
-16.8193 32.2975 -83.6525
-18.9792 28.4462 -83.6525
-21.5018 23.9483 -83.6525
-21.6849 23.6218 -83.6525
-30.5522 7.81075 -83.6525
-32.035 5.16664 -83.6525
-37.0102 -3.70447 -85.5033
-34.4857 0.796874 -85.5033
-10.4177 17.7319 -83.6525
-12.0303 14.8565 -83.6525
3.8107 9.32295 -83.6525
-10.6008 17.4054 -83.6525
-7.31604 15.9925 -83.6525
-4.79353 20.4902 -83.6525
-2.63357 24.3416 -83.6525
-5.7352 26.0811 -83.6525
-30.2725 7.65395 -83.6525
-24.5176 4.42698 -83.6525
-19.4676 1.59529 -83.6525
-20.9512 -1.05007 -83.6525
-6.53982 -9.13319 -83.6525
-0.474426 1.6821 -83.6525
-58.8804 57.9098 -83.6525
-36.9083 45.5872 -83.6525
-61.9033 52.5198 -83.6525
-64.426 48.0216 -83.6525
-64.6091 47.6952 -83.6525
-74.9583 29.2416 -83.6525
-77.4102 24.8697 -83.6525
-81.7843 17.0703 -83.6525
-59.8118 4.74742 -83.6525
-58.8569 6.45028 -83.6525
-57.962 8.04587 -83.6525
-55.4376 12.5471 -83.6525
-52.9864 16.9179 -83.6525
-42.6369 35.3724 -83.6525
-42.4538 35.6988 -83.6525
-39.9312 40.1969 -83.6525
-37.7714 44.0481 -83.6525
-36.9639 45.4879 -83.6525
-64.787 6.4632 -119.089
-58.8804 57.9098 -119.089
-61.9033 52.5198 -119.089
-64.426 48.0216 -119.089
-64.6091 47.6952 -119.089
-74.9583 29.2416 -119.089
-77.4102 24.8697 -119.089
-81.7843 17.0703 -119.089
-82.2427 16.2529 -119.089
-83.564 13.8969 -119.089
-84.8393 11.6229 -119.089
-67.3839 1.83339 -119.089
-66.1088 4.10664 -119.089
-63.974 6.00726 -119.089
-40.6096 47.663 -119.089
-63.974 6.00726 -116.471
-58.8804 57.9098 -116.471
-61.9033 52.5198 -116.471
-64.426 48.0216 -116.471
-64.6091 47.6952 -116.471
-74.9583 29.2416 -116.471
-77.4102 24.8697 -116.471
-81.7843 17.0703 -116.471
-64.787 6.4632 -116.471
-40.6096 47.663 -116.471
62.8934 -53.8153 -130.696
62.7352 -54.0974 -130.696
65.3415 -49.4502 -130.696
75.6934 -30.9915 -130.696
75.8767 -30.6647 -130.696
78.3988 -26.1675 -130.696
78.5239 -25.9445 -130.696
78.5239 -25.9445 -119.089
78.3988 -26.1675 -119.089
75.8767 -30.6647 -119.089
68.2534 -44.2578 -119.089
65.3415 -49.4502 -119.089
62.8934 -53.8153 -119.089
62.7352 -54.0974 -119.089
-36.4886 48.7993 -119.089
-36.1365 49.4272 -119.089
11.01 22.1601 -119.089
11.3624 22.7884 -119.089
-3.04899 30.8708 -119.089
-35.0853 48.8377 -119.089
-39.1386 50.2855 -119.089
-60.2702 3.93006 -119.089
-28.2344 -14.0365 -119.089
-13.8225 -22.1191 -119.089
6.51625 14.1473 -119.089
2.65131 7.25563 39.8184
3.8107 9.32295 39.8184
1.31861 4.87928 39.8184
-6.53982 -9.13319 39.8184
-6.53982 -9.13319 108.991
-2.7786 -16.0467 108.991
44.5034 -8.3111 108.991
31.9385 -30.715 108.991
-6.51893 15.1162 108.991
-15.8496 -1.52114 108.991
-7.68887 -13.2929 108.991
29.8897 -34.3681 108.991
42.4732 -11.931 108.991
14.5929 8.46351 108.991
11.8341 10.0107 108.991
6.92454 12.7641 108.991
3.99384 9.64951 108.991
44.9955 -7.43354 39.8184
29.4895 -35.0817 39.8184
29.4895 -35.0817 87.2825
33.1438 -28.5659 39.8184
38.0349 -19.8447 39.8184
40.6382 -15.2029 39.8184
42.4451 -11.9811 39.8184
44.9955 -7.43354 87.2825
44.5034 -8.3111 87.2825
42.4732 -11.931 114.199
42.0807 -12.6309 114.199
37.6349 -20.558 114.199
37.4377 -20.9097 114.199
31.9385 -30.715 114.199
-6.84731 14.5306 39.8184
-6.51893 15.1162 39.8184
-7.22479 13.8576 39.8184
-9.45059 9.8888 39.8184
-16.8694 -3.3395 39.8184
-16.8694 -3.3395 108.991
61.6545 -35.8623 101.377
56.7398 -44.6256 39.8184
60.8414 -37.3122 39.8184
64.3753 -31.011 39.8184
67.275 -25.8406 39.8184
67.275 -25.8406 93.8946
67.0918 -26.1674 93.8946
64.0752 -31.5461 101.377
62.568 -34.2336 101.377
60.2786 -38.3157 101.377
56.7398 -44.6256 93.8946
63.6994 -24.2648 114.199
8.72805 4.47188 114.199
0.0314136 -4.5273 114.199
-11.1535 -0.333784 114.199
46.1881 -38.7074 114.199
62.568 -34.2336 114.199
2.8081 -6.08455 114.199
64.0752 -31.5461 114.199
60.683 -29.6434 114.199
63.8826 -23.9381 114.199
56.723 -19.9227 114.199
12.5628 4.84375 114.199
11.5763 5.39703 114.199
11.3931 5.07045 114.199
9.10962 5.15231 114.199
7.00684 1.40262 114.199
6.60639 0.688544 114.199
3.82997 2.24585 114.199
4.23035 2.95975 114.199
-6.06743 8.73501 114.199
-6.53982 -9.13319 114.199
53.3476 -42.723 114.199
60.2786 -38.3157 114.199
61.6545 -35.8623 114.199
6.51625 14.1473 -85.5033
66.4048 -19.4408 -119.089
24.7805 3.90389 -119.089
20.7769 6.14929 -119.089
8.26484 13.1666 -119.089
6.58225 14.1102 -119.089
6.51625 14.1473 -109.998
6.51625 14.1473 -97.5362
23.0745 4.86069 -85.5033
44.9955 -7.43354 -91.0805
66.4048 -19.4408 -104.588
59.2453 -15.4254 -85.5033
46.1881 -38.7074 -8.26834
56.723 -19.9227 -8.26834
43.7395 -43.0734 -85.5033
43.7395 -43.0734 -8.26834
47.7489 -35.9242 -85.5033
57.9737 -17.6926 -85.5033
59.2453 -15.4254 -8.26834
56.723 -19.9227 39.8184
54.2763 -24.2854 39.8184
51.1384 -29.8806 39.8184
46.1881 -38.7074 39.8184
-6.0582 -29.5745 -119.089
67.0251 -50.3945 -119.089
49.8419 1.20793 -119.089
-14.8023 -24.6701 -119.089
24.6566 -43.6992 -119.089
46.0662 -55.7063 -119.089
58.4858 -51.3434 -119.089
77.3773 -31.9358 -119.089
77.5605 -31.6091 -119.089
73.9913 -23.6956 -119.089
71.2513 -10.7991 -119.089
74.3604 -37.3151 -85.5033
51.9662 -11.343 -85.5033
3.99384 9.64951 -85.5033
3.8107 9.32295 -85.5033
-6.53982 -9.13319 -85.5033
29.4895 -35.0817 -85.5033
36.4603 -38.991 -85.5033
50.8992 -47.0887 -85.5033
56.7398 -44.6256 -85.5033
62.0708 -47.6157 -85.5033
63.7349 -48.5491 -85.5033
65.3415 -49.4502 -85.5033
67.0251 -50.3945 -85.5033
70.5641 -44.0841 -85.5033
77.3773 -31.9358 -85.5033
77.5605 -31.6091 -85.5033
75.8767 -30.6647 -85.5033
74.2701 -29.7637 -85.5033
66.4048 -19.4408 -85.5033
44.9955 -7.43354 -85.5033
11.01 22.1601 -130.696
-3.40132 30.2425 -130.696
-39.1386 50.2855 -130.696
-39.1386 50.2855 -129.885
-36.4886 48.7993 -118.734
-36.4886 48.7993 -85.5033
-35.4375 48.2098 -85.5033
-3.40132 30.2425 -85.5033
11.01 22.1601 -85.5033
11.01 22.1601 -117.522
11.01 22.1601 -118.428
11.01 22.1601 -119.244
-37.2738 53.6102 -130.696
-65.2958 3.65065 -130.696
-65.2958 3.65065 -119.089
-63.974 6.00726 -130.696
-59.141 14.624 -130.696
-56.6894 18.9948 -130.696
-46.3388 37.4486 -130.696
-46.1557 37.775 -130.696
-43.6328 42.273 -130.696
-40.6096 47.663 -130.696
-38.7864 50.9134 -130.696
-37.2738 53.6102 -119.089
-38.7864 50.9134 -119.089
-40.6096 47.663 -118.734
-40.6096 47.663 -85.5033
-42.4858 44.3179 -85.5033
-43.2812 42.8999 -85.5033
-46.7826 36.6574 -85.5033
-47.454 35.4603 -85.5033
-48.4972 33.6005 -85.5033
-49.5717 31.6847 -85.5033
-58.8608 15.1234 -85.5033
-63.5156 6.82461 -85.5033
-63.974 6.00726 -85.5033
-36.9639 45.4879 -85.5033
-48.1442 43.4824 -67.284
-52.6197 43.6355 -67.284
-43.9787 42.467 -67.284
-46.8865 44.0977 -67.284
-47.5807 44.4871 -67.284
-51.6141 45.4285 -67.284
-56.2886 45.6931 -67.284
-57.2423 43.9927 -67.284
-57.4253 43.6663 -67.284
-67.7748 25.2125 -67.284
-59.9418 20.8191 -67.284
-57.0341 19.1882 -67.284
-46.6845 37.6424 -67.284
-46.5014 37.9689 -67.284
-6.53982 -9.13319 -67.284
3.8107 9.32295 -67.284
-20.9512 -1.05007 -67.284
-10.6008 17.4054 -67.284
-15.1453 -24.4777 -130.696
12.8748 25.4853 -130.696
12.8748 25.4853 -119.089
11.3624 22.7884 -130.696
6.51625 14.1473 -130.696
3.99384 9.64951 -130.696
3.8107 9.32295 -130.696
-6.53982 -9.13319 -130.696
-8.98979 -13.5018 -130.696
-13.8225 -22.1191 -130.696
-15.1453 -24.4777 -119.089
-13.8225 -22.1191 -115.062
36.4603 -38.991 39.8184
70.2563 -40.6865 39.8184
62.0708 -47.6157 39.8184
71.1698 -39.0577 39.8184
63.7349 -48.5491 39.8184
68.8804 -43.1398 39.8184
72.6767 -36.3707 39.8184
74.0869 -30.0905 39.8184
74.2701 -29.7637 39.8184
71.4692 -28.1928 39.8184
-8.98979 -13.5018 39.8184
6.51625 14.1473 39.8184
-20.9512 -1.05007 39.8184
3.99384 9.64951 39.8184
-10.6008 17.4054 39.8184
-54.9921 64.843 -130.696
-54.9921 64.843 -119.089
-36.7209 54.596 -119.089
-36.7209 54.596 -130.696
8.72805 4.47188 115.328
3.82997 2.24585 115.328
4.23035 2.95975 115.328
1.19636 4.66129 115.328
7.00684 1.40262 115.328
-46.6845 37.6424 -65.7028
-46.5014 37.9689 -65.7028
3.8107 9.32295 114.199
9.62105 6.06429 114.199
3.99384 9.64951 114.199
-7.31604 15.9925 -85.5033
-4.79353 20.4902 -85.5033
-4.79353 20.4902 -81.0327
11.3931 5.07045 122.441
8.37828 -0.305322 122.441
64.4188 -55.0416 -119.089
64.4188 -55.0416 -130.696
80.2078 -26.8888 -130.696
80.2078 -26.8888 -119.089
66.9856 -38.8522 101.377
-51.6141 45.4285 -65.7028
-48.1442 43.4824 -65.7028
-55.283 47.4862 -67.284
-7.68887 -13.2929 112.097
56.5398 -20.2494 116.828
56.723 -19.9227 116.828
63.8826 -23.9381 116.828
63.6994 -24.2648 116.828
42.4732 -11.931 122.441
42.29 -12.2576 122.441
-59.3472 28.5303 -57.9254
-61.4422 36.504 -57.9254
-56.5097 26.9389 -57.9254
-64.3428 31.332 -57.9254
-61.1973 36.9406 -57.9254
-53.3642 32.5475 -57.9254
-52.3416 34.3708 -57.9254
-60.1748 38.7638 -57.9254
-65.1257 29.936 -57.9254
-57.2926 25.5429 -57.9254
-49.5922 39.2732 -57.9254
-49.4092 39.5996 -57.9254
-57.4253 43.6663 -65.7028
-57.2423 43.9927 -65.7028
-57.4253 43.6663 -57.9254
-57.2423 43.9927 -57.9254
49.4439 -15.8404 122.441
49.2607 -16.1671 122.441
-2.63357 24.3416 -85.5033
-2.63357 24.3416 -81.0327
-5.7352 26.0811 -85.5033
-5.7352 26.0811 -81.0327
8.67619 17.9987 -85.5033
-7.89514 22.2298 -81.0327
6.51625 14.1473 -81.0327
12.3796 4.51717 122.441
6.60639 0.688544 122.441
6.60639 0.688544 115.328
-21.6849 23.6218 -81.0327
-21.5018 23.9483 -81.0327
-12.0303 14.8565 -81.0327
-47.5807 44.4871 -65.7028
-56.2886 45.6931 -65.7028
6.92454 12.7641 112.097
-43.9787 42.467 -65.7028
71.94 -41.6308 -0.134231
72.8535 -40.002 -0.134231
70.5641 -44.0841 -0.134231
74.3604 -37.3151 -0.134231
-10.4177 17.7319 -81.0327
-42.4538 35.6988 -81.0327
-42.6369 35.3724 -81.0327
0.0314136 -4.5273 115.328
71.4692 -28.1928 50.3116
71.2859 -28.5196 50.3116
72.4228 -29.1572 50.3116
74.0869 -30.0905 50.3116
74.2701 -29.7637 50.3116
-67.3839 1.83339 -116.471
-66.1088 4.10664 -116.471
65.3415 -49.4502 -4.09274
67.0251 -50.3945 -4.09274
46.1881 -38.7074 116.828
46.1881 -38.7074 112.097
53.3476 -42.723 116.828
-16.0117 33.7375 -85.5033
-16.0117 33.7375 -83.6525
-15.9561 33.8366 -85.5033
11.8341 10.0107 112.097
6.02385 13.2693 108.991
-49.4338 32.7401 -65.7028
-49.4338 32.7401 -61.1087
-11.1535 -0.333784 115.328
-6.06743 8.73501 115.328
9.20654 -7.25064 128.32
10.6617 -4.65613 128.32
-84.8393 11.6229 -116.471
-83.564 13.8969 -116.471
-66.1088 4.10664 -130.696
-67.3839 1.83339 -130.696
-84.8393 11.6229 -130.696
-36.1365 49.4272 -118.734
-36.1365 49.4272 -85.5033
-9.13335 10.4545 114.199
-3.88966 -4.40765 115.328
-14.2194 1.38568 114.199
-7.41199 13.5238 114.199
-5.51984 -7.31444 115.328
0.796094 3.94757 115.328
-6.53982 -9.13319 115.328
-2.7786 -16.0467 112.097
-8.58943 -12.7879 108.991
-19.4676 1.59529 -85.5033
-24.5176 4.42698 -85.5033
71.2859 -28.5196 93.8946
71.4692 -28.1928 93.8946
2.8081 -6.08455 115.328
31.6443 -19.8343 128.32
33.0994 -17.2397 128.32
38.7829 -20.4272 128.32
37.3278 -23.0218 128.32
-39.1386 50.2855 -118.734
-39.1386 50.2855 -85.5033
-35.0853 48.8377 -118.734
84.7578 -14.8287 -130.696
84.7578 -14.8287 -119.089
83.2453 -17.5257 -119.089
83.2453 -17.5257 -130.696
-36.9083 45.5872 -85.5033
31.6443 -19.8343 130.702
33.0994 -17.2397 130.702
38.7829 -20.4272 130.702
37.3278 -23.0218 130.702
8.0549 -3.19418 128.32
6.59981 -5.78872 128.32
43.481 -26.4727 126.328
-8.98979 -13.5018 -83.6525
2.8081 -6.08455 122.441
-58.8569 6.45028 -85.5033
-37.9051 -5.30018 -85.5033
-37.9051 -5.30018 -83.6525
-46.8865 44.0977 -65.7028
-6.0582 -29.5745 -115.062
-14.8023 -24.6701 -115.062
-19.4676 1.59529 -81.0327
75.6934 -30.9915 -4.09274
75.8767 -30.6647 -4.09274
77.3773 -31.9358 -4.09274
77.5605 -31.6091 -4.09274
69.4062 -34.5362 57.3895
65.6097 -41.3055 57.3895
67.2739 -42.2388 57.3895
71.0702 -35.4696 57.3895
44.9361 -23.878 126.328
-48.4555 41.3002 -57.9254
-56.2886 45.6931 -57.9254
-3.17893 -16.7606 108.991
-57.0341 19.1882 -65.7028
-54.3848 23.9121 -65.7028
-15.8496 -1.52114 112.097
-15.8496 -1.52114 114.199
-54.3848 23.9121 -61.1087
-18.9792 28.4462 -81.0327
-16.8193 32.2975 -81.0327
-37.7714 44.0481 -81.0327
-10.6008 17.4054 108.991
-20.9512 -1.05007 108.991
-20.9512 -1.05007 -81.0327
3.8107 9.32295 114.199
53.6528 -59.9611 -119.089
53.6528 -59.9611 -130.696
58.4858 -51.3434 -130.696
60.2786 -38.3157 126.328
64.0752 -31.5461 126.328
56.8863 -36.4132 126.328
60.683 -29.6434 126.328
-59.9418 20.8191 -65.7028
-39.9312 40.1969 -81.0327
51.9662 -11.343 39.8184
78.8378 -15.0538 -119.089
78.8378 -15.0538 -130.696
73.9913 -23.6956 -130.696
5.56636 -7.63146 126.328
9.36474 -0.858635 126.328
-34.4857 0.796874 -83.6525
-38.8601 -7.00304 -85.5033
60.934 -46.9781 50.3116
62.0708 -47.6157 50.3116
51.4741 -12.2205 87.2825
58.4858 -51.3434 -85.5033
64.577 -54.7595 -119.089
12.3265 10.8886 108.991
-82.2427 16.2529 -116.471
-60.2702 3.93006 -116.471
25.2345 8.71218 -85.5033
-36.9083 45.5872 -81.0327
-59.8118 4.74742 -85.5033
62.0708 -47.6157 -8.26834
60.934 -46.9781 -8.26834
42.4475 -28.3155 126.328
46.2447 -21.5448 126.328
69.4062 -34.5362 93.8946
44.7422 -58.0673 -119.089
-54.7195 48.4909 -67.284
27.9208 13.502 -85.5033
47.1556 -3.58194 -91.0805
65.6097 -41.3055 93.8946
-52.9864 16.9179 -81.0327
-60.2702 3.93006 -85.5033
2.73554 -31.4053 -85.5033
67.0251 -50.3945 -8.26834
70.5641 -44.0841 -8.26834
65.3415 -49.4502 -8.26834
73.9913 -23.6956 -85.5033
36.4603 -38.991 87.2825
80.0827 -27.1119 -119.089
63.7349 -48.5491 -8.26834
-8.98979 -13.5018 108.991
29.4895 -35.0817 108.991
72.7638 -8.10214 -119.089
60.934 -46.9781 93.8946
-81.7843 17.0703 -85.5033
-59.9418 20.8191 -57.9254
44.9955 -7.43354 108.991
6.51625 14.1473 108.991
72.7638 -8.10214 -130.696
71.2513 -10.7991 -130.696
48.7492 -17.0792 114.199
58.7217 -22.6722 114.199
-55.4376 12.5471 -67.284
-59.8118 4.74742 -67.284
63.1878 -25.177 116.828
-52.9864 16.9179 -67.284
56.0282 -21.1616 116.828
63.1878 -25.177 114.199
-36.7306 -3.8613 -85.5033
-10.6008 17.4054 -85.5033
66.4048 -19.4408 -8.26834
35.4768 -24.4061 114.199
-58.8804 57.9098 -85.5033
8.98364 -9.54797 114.199
77.5605 -31.6091 -130.696
77.3773 -31.9358 -130.696
18.9175 -15.1192 116.828
-67.7748 25.2125 -57.9254
-30.2725 7.65395 -85.5033
-10.2664 1.24801 114.199
-10.4177 17.7319 -85.5033
-10.2664 1.24801 115.328
46.0662 -55.7063 -104.588
-61.9033 52.5198 -85.5033
-64.426 48.0216 -85.5033
-64.6091 47.6952 -85.5033
-74.9583 29.2416 -85.5033
-77.4102 24.8697 -85.5033
24.6566 -43.6992 -91.0805
-35.0853 48.8377 -85.5033
-34.2061 0.640051 -85.5033
-31.7554 5.00981 -85.5033
-36.9083 45.5872 -67.284
-39.9312 40.1969 -67.284
-20.9512 -1.05007 -85.5033
-4.87196 27.6203 -85.5033
-1.5365 33.5676 -130.696
43.7395 -43.0734 39.8184
-0.729202 -12.3923 114.199
-57.0574 61.1603 -119.089
71.2513 -10.7991 -104.588
-13.8225 -22.1191 -91.0805
-13.8225 -22.1191 -85.5033
49.8419 1.20793 -91.0805
11.3624 22.7884 -91.0805
66.4048 -19.4408 -91.0805
11.3624 22.7884 -85.5033
-46.3931 28.6745 -85.5033
44.7422 -58.0673 -130.696
-47.6854 26.3703 -85.5033
-44.3312 32.3511 -85.5033
-45.1387 30.9114 -85.5033
-3.04899 30.8708 -85.5033
51.4741 -12.2205 39.8184
51.9662 -11.343 87.2825
-28.2344 -14.0365 -85.5033
-23.4016 -5.4193 -85.5033
58.0605 -62.433 -119.089
58.0605 -62.433 -130.696
24.6566 -43.6992 -115.062
-28.2344 -14.0365 -115.062
-21.5018 23.9483 -85.5033
-42.6369 35.3724 -67.284
-15.4675 20.564 -83.6525
-29.5569 -16.3945 -130.696
-61.592 1.57323 -119.089
-83.564 13.8969 -130.696
-82.2427 16.2529 -130.696
-30.5522 7.81075 -81.0327
-24.5176 4.42698 -81.0327
-3.00252 -2.82578 122.441
-6.53982 -9.13319 122.441
31.9385 -30.715 122.441
38.9091 -34.6247 122.441
65.6097 -41.3055 101.377
69.4062 -34.5362 101.377
-55.545 63.8572 -119.089
46.0662 -55.7063 -130.696
50.8992 -47.0887 -130.696
44.5034 -8.3111 112.097
-31.7554 5.00981 -83.6525
2.38121 6.77401 -81.0327
56.7361 -64.7945 -130.696
64.577 -54.7595 -130.696
-28.2344 -14.0365 -130.696
56.7361 -64.7945 -119.089
-36.7306 -3.8613 -83.6525
-34.2061 0.640051 -83.6525
-6.51893 15.1162 114.199
-6.51893 15.1162 112.097
66.4048 -19.4408 -130.696
64.6982 -40.2661 39.8184
68.3894 -33.6843 39.8184
68.8804 -43.1398 57.3895
72.6767 -36.3707 57.3895
-1.5365 33.5676 -119.089
-37.0102 -3.70447 -83.6525
-61.9033 52.5198 -67.284
-64.426 48.0216 -67.284
-42.4538 35.6988 -67.284
-25.9262 -9.9207 -85.5033
-64.6091 47.6952 -67.284
-61.9033 52.5198 -130.696
-64.426 48.0216 -130.696
-64.6091 47.6952 -130.696
-74.9583 29.2416 -67.284
-77.4102 24.8697 -67.284
53.3476 -42.723 -130.696
-29.5569 -16.3945 -119.089
14.5929 8.46351 112.097
-77.4102 24.8697 -130.696
-64.787 6.4632 -85.5033
-23.4016 -5.4193 -130.696
58.2622 -33.9598 128.607
61.6545 -35.8623 128.607
-74.9583 29.2416 -130.696
62.568 -34.2336 128.607
59.1756 -32.3311 128.607
67.275 -25.8406 57.3895
71.4692 -28.1928 57.3895
50.8992 -47.0887 -91.0805
-67.7748 25.2125 -65.7028
-28.2344 -14.0365 -104.588
71.2859 -28.5196 57.3895
23.3329 -46.0593 -119.089
57.8897 -42.5753 57.3895
80.0827 -27.1119 -130.696
59.2453 -15.4254 39.8184
11.387 -5.06288 128.32
9.93185 -7.65742 128.32
63.8826 -23.9381 -130.696
63.7349 -48.5491 50.3116
9.8042 6.39087 114.199
11.5763 5.39703 122.441
-7.31604 15.9925 -81.0327
-55.545 63.8572 -130.696
-58.8804 57.9098 -67.284
3.99384 9.64951 -81.0327
46.1881 -38.7074 108.991
-57.0574 61.1603 -130.696
-26.0009 1.78218 -85.5033
12.5628 4.84375 122.441
-58.8804 57.9098 -130.696
-51.6966 53.881 -67.284
-4.87196 27.6203 -130.696
50.8992 -47.0887 -8.26834
67.0251 -50.3945 -130.696
-10.6008 17.4054 -130.696
9.10962 5.15231 122.441
-81.7843 17.0703 -67.284
-3.04899 30.8708 -130.696
29.8897 -34.3681 112.097
-7.89514 22.2298 -130.696
9.10962 5.15231 115.328
-28.2344 -14.0365 -91.0805
-10.4177 17.7319 -130.696
-20.9512 -1.05007 -130.696
-27.7762 -13.2193 -85.5033
4  972 565 564 963  255 0 0
4  972 520 519 928  255 0 0
4  971 522 521 963  255 0 0
4  971 563 562 968  255 0 0
4  971 963 564 563  255 0 0
4  972 963 521 520  255 0 0
4  968 523 522 971  255 0 0
5  968 562 503 504 960  255 0 0
4  968 960 524 523  255 0 0
4  966 504 503 561  255 19 0
4  966 852 515 525  255 19 0
4  966 561 559 852  255 19 0
4  928 566 565 972  255 0 0
4  962 354 352 899  255 38 0
4  899 779 473 962  255 38 0
4  831 355 354 962  255 38 0
4  962 473 479 831  255 38 0
5  564 355 356 946 563  255 58 0
5  565 923 354 355 564  255 58 0
4  931 520 521 920  255 77 0
4  920 521 522 919  255 77 0
4  920 331 332 931  255 77 0
4  921 314 313 917  255 96 0
4  557 584 582 556  255 116 0
4  557 98 99 555  255 135 0
6  556 756 733 649 98 557  255 135 0
5  556 582 412 380 554  255 116 0
4  921 917 548 549  255 96 0
4  566 894 923 565  255 58 0
4  487 307 725 244  255 154 0
4  495 799 800 496  255 174 0
8  495 473 363 236 239 492 493 494  255 193 0
6  244 725 580 395 488 249  255 154 0
4  495 494 801 799  255 174 0
4  490 463 464 961  255 213 0
6  490 778 478 245 251 936  255 232 0
5  267 491 239 778 490  255 232 0
5  267 269 254 255 491  255 174 0
4  490 961 269 267  255 213 0
4  942 357 356 830  255 38 0
4  830 356 355 831  255 38 0
4  830 480 804 942  255 38 0
4  563 946 906 562  255 58 0
5  562 906 815 561 503  255 58 0
4  498 737 735 499  255 174 0
4  449 643 953 485  255 154 0
6  449 457 502 394 581 643  255 154 0
7  498 499 500 237 235 361 480  255 193 0
5  268 237 259 260 274  255 174 0
6  501 460 484 502 458 861  255 232 0
4  501 802 237 268  255 232 0
4  501 826 467 460  255 213 0
4  268 274 826 501  255 213 0
4  942 606 358 357  255 38 0
4  942 804 607 606  255 38 0
4  561 815 814 559  255 58 0
4  862 860 222 793  255 251 0
5  862 793 783 641 511  255 251 0
4  449 641 783 457  255 251 0
4  926 519 520 931  255 77 0
4  926 931 332 333  255 77 0
4  899 352 353 605  255 38 0
4  566 928 900 567  255 0 0
4  928 519 518 900  255 0 0
4  900 880 558 567  255 0 0
4  900 518 516 880  255 0 0
4  883 518 519 926  255 77 0
5  926 333 334 335 883  255 77 0
4  922 315 314 921  255 96 0
4  922 965 316 315  255 96 0
4  922 818 819 965  255 96 0
7  922 921 549 550 551 821 818  255 96 0
6  497 479 473 495 496 483  255 193 0
4  486 297 298 825  238 255 0
4  497 483 256 736  255 174 0
4  919 522 523 918  255 77 0
4  918 523 524 958  255 77 0
4  919 918 329 330  255 77 0
4  914 312 311 913  255 96 0
6  914 913 792 611 546 547  255 96 0
4  887 187 189 886  219 255 0
4  887 888 205 187  219 255 0
4  489 488 395 570  255 154 0
6  489 463 490 936 250 488  255 232 0
4  889 204 205 888  219 255 0
5  489 570 853 464 463  255 154 0
4  850 306 307 487  200 255 0
4  825 298 295 836  238 255 0
4  850 701 305 306  200 255 0
5  484 460 467 943 767  255 154 0
4  635 617 194 195  180 255 0
4  484 767 394 502  255 154 0
5  239 491 255 261 787  255 174 0
4  239 787 786 492  255 174 0
4  906 770 769 815  255 58 0
5  815 769 716 713 814  255 58 0
6  501 861 459 450 481 802  255 232 0
4  493 492 786 805  255 174 0
4  493 805 801 494  255 174 0
6  868 370 369 225 860 862  161 255 0
4  868 862 511 510  161 255 0
4  449 600 637 641  142 255 0
4  841 313 314 842  122 255 0
4  842 347 346 841  103 255 0
4  842 314 315 843  122 255 0
4  850 956 702 701  142 255 0
4  559 814 808 560  255 58 0
4  966 525 505 504  255 19 0
4  955 525 515 951  255 77 0
5  955 958 524 505 525  255 77 0
4  913 311 309 952  255 96 0
4  918 958 328 329  255 77 0
4  955 855 328 958  255 77 0
6  851 510 511 641 637 639  142 255 0
4  960 504 505 524  255 0 0
6  952 309 310 784 848 959  255 96 0
4  913 952 959 792  255 96 0
4  306 756 100 307  83 255 0
4  298 98 658 295  64 255 0
4  306 305 733 756  83 255 0
4  899 605 604 779  255 38 0
4  880 924 568 558  255 0 0
4  567 893 894 566  255 58 0
4  858 857 970 871  142 255 0
4  858 798 234 857  45 255 0
4  244 249 798 858  45 255 0
4  893 759 760 894  255 58 0
4  893 567 558 864  255 58 0
5  894 760 352 354 923  255 58 0
4  843 315 316 810  122 255 0
4  843 348 347 842  103 255 0
8  871 970 938 876 374 373 782 797  142 255 0
4  843 810 349 348  103 255 0
4  872 916 824 846  142 255 0
5  871 797 785 774 973  142 255 0
4  218 202 203 217  25 255 0
4  886 189 186 726  219 255 0
5  218 217 216 788 763  6 255 0
4  889 888 215 216  219 255 0
6  888 887 886 726 214 215  219 255 0
5  206 764 789 209 208  6 255 0
4  206 208 197 198  25 255 0
5  883 882 687 516 518  255 77 0
4  883 335 336 882  255 77 0
4  882 689 688 687  255 77 0
4  882 336 337 689  255 77 0
5  880 516 517 881 924  255 0 0
4  821 551 552 878  255 96 0
6  322 290 95 291 292 321  0 255 12
4  321 796 660 322  255 96 0
4  821 878 660 796  255 96 0
4  502 457 224 458  255 232 0
4  617 957 183 194  180 255 0
4  216 217 203 185  25 255 0
5  216 215 214 771 788  6 255 0
4  209 188 197 208  25 255 0
4  218 763 761 219  6 255 0
4  375 569 62 61  0 255 32
4  477 838 251 245  0 255 32
5  477 476 875 243 838  0 255 32
4  836 295 299 599  0 255 51
4  449 485 599 600  142 255 0
6  872 244 858 871 973 916  142 255 0
4  828 309 311 839  122 255 0
4  828 343 78 87  103 255 0
6  828 87 529 717 310 309  122 255 0
5  868 845 712 371 370  161 255 0
4  868 510 509 845  161 255 0
5  851 676 717 509 510  142 255 0
4  889 216 185 204  219 255 0
4  850 487 244 872  142 255 0
4  450 459 856 482  0 255 71
4  482 856 226 474  0 255 71
5  369 474 226 220 225  0 255 71
4  209 210 180 181  0 255 90
4  445 165 164 172  0 255 109
6  445 698 187 205 407 854  0 255 129
4  407 155 166 854  0 255 148
4  407 205 204 148  0 255 129
5  445 854 166 47 165  0 255 109
6  973 774 728 293 824 916  142 255 0
4  965 819 317 316  255 96 0
6  810 316 317 785 537 79  122 255 0
5  150 127 137 136 384  0 255 167
4  150 149 672 954  0 255 187
4  954 128 127 150  0 255 187
6  954 672 429 446 133 128  0 255 187
7  850 872 846 294 283 847 956  142 255 0
10  598 160 50 168 158 167 403 436 437 948  0 255 206
4  403 194 183 436  0 255 225
4  403 167 143 144  0 255 167
7  496 800 264 265 266 256 483  255 174 0
5  614 435 116 434 615  0 255 225
7  864 558 568 475 472 940 791  255 58 0
5  864 898 874 759 893  255 58 0
4  864 791 901 898  255 58 0
4  673 446 429 671  0 255 129
4  671 429 148 204  0 255 129
4  636 181 180 618  180 255 0
4  209 181 177 188  0 255 90
4  636 196 177 181  180 255 0
4  195 144 435 614  0 255 225
4  141 135 777 869  0 255 245
4  943 467 462 468  255 154 0
4  767 870 401 394  0 255 245
5  468 462 274 260 273  0 245 255
5  468 131 132 135 141  0 225 255
4  767 869 777 870  0 255 245
5  767 943 468 141 869  255 154 0
4  206 198 199 207  25 255 0
4  764 206 207 762  6 255 0
4  374 876 569 375  142 255 0
4  374 375 568 924  255 0 0
4  375 61 475 568  255 58 0
4  477 791 940 476  255 58 0
4  857 242 938 970  142 255 0
4  936 251 241 250  255 232 0
4  857 234 232 242  45 255 0
4  482 768 481 450  255 58 0
4  804 360 359 607  255 38 0
4  860 225 220 222  255 251 0
4  861 458 230 459  255 232 0
4  458 224 223 794  0 206 255
4  859 222 220 226  0 206 255
4  859 794 223 222  0 206 255
5  458 794 859 226 230  0 206 255
6  131 435 144 143 142 132  0 187 255
5  131 468 273 130 118  0 225 255
5  130 273 418 934 419  0 225 255
4  130 434 116 118  0 167 255
4  131 118 116 435  0 187 255
5  273 260 259 579 418  0 148 255
4  856 459 230 226  0 255 71
4  839 311 312 840  122 255 0
4  839 344 343 828  103 255 0
4  840 345 344 839  103 255 0
4  149 148 429 672  0 255 187
4  149 150 384 155  0 255 167
4  155 407 148 149  0 255 167
4  155 384 388 967  0 129 255
4  328 343 344 329  0 109 255
6  328 341 528 351 78 343  0 109 255
5  855 527 372 341 328  255 77 0
4  570 803 137 139  0 255 245
4  471 461 464 853  255 154 0
4  471 128 133 270  0 225 255
5  139 137 127 128 471  0 225 255
4  139 471 853 570  255 154 0
4  559 560 911 852  255 19 0
5  851 639 286 674 676  142 255 0
7  849 542 543 544 792 959 848  255 96 0
4  324 325 287 288  0 255 12
4  324 766 753 325  255 96 0
5  849 848 784 753 766  255 96 0
5  310 326 325 753 784  255 96 0
4  845 691 690 712  161 255 0
5  717 529 711 508 509  142 255 0
4  717 676 674 539  142 255 0
4  845 509 508 691  161 255 0
4  371 712 690 367  161 255 0
4  476 59 60 875  0 255 32
4  844 234 233 250  0 90 255
4  250 233 249 488  255 232 0
4  844 243 232 234  0 90 255
4  844 250 241 243  0 90 255
7  243 875 60 62 569 242 232  0 255 32
4  251 838 243 241  0 255 32
5  209 789 772 211 210  6 255 0
4  549 937 765 550  0 71 255
4  548 631 937 549  0 71 255
4  833 25 26 627  0 51 255
4  833 811 31 25  0 51 255
4  633 626 32 34  0 32 255
4  633 629 625 626  0 32 255
4  833 627 628 811  0 51 255
4  321 292 773 320  0 255 12
4  498 480 479 497  255 193 0
4  497 736 737 498  255 174 0
4  831 479 480 830  255 38 0
4  826 274 462 467  255 213 0
4  295 658 950 299  0 12 255
4  324 288 289 323  0 255 12
4  320 773 912 319  0 255 12
5  818 821 796 321 320  255 96 0
6  807 396 395 580 806 745  6 0 255
5  384 136 396 807 388  6 0 255
4  133 446 55 52  0 255 187
5  270 254 269 461 471  0 245 255
5  270 133 424 108 415  0 225 255
6  317 819 818 320 319 318  255 96 0
4  167 389 142 143  0 255 167
4  160 393 45 50  25 0 255
4  167 895 383 389  0 129 255
4  167 158 925 895  0 129 255
4  269 961 464 461  255 213 0
4  855 955 951 892  255 77 0
4  951 585 586 892  255 77 0
4  951 515 588 585  255 77 0
4  852 911 526 515  255 19 0
4  915 553 542 849  255 96 0
4  915 849 766 659  255 96 0
4  324 323 659 766  255 96 0
4  198 433 432 199  45 0 255
4  616 425 823 820  0 255 225
4  198 820 823 433  45 0 255
4  245 478 758 477  255 58 0
4  779 604 365 364  255 38 0
4  335 781 686 336  0 109 255
4  333 348 349 334  0 109 255
4  335 334 349 781  0 109 255
5  946 356 357 770 906  255 58 0
4  812 401 402 383  6 0 255
5  389 134 135 132 142  0 255 167
4  389 383 402 134  6 0 255
9  631 34 32 33 28 27 26 25 937  64 0 255
4  937 25 31 765  64 0 255
4  814 713 714 808  255 58 0
5  560 808 482 474 369  255 58 0
4  336 686 685 337  0 109 255
4  374 924 881 373  255 0 0
4  919 330 331 920  255 77 0
4  840 312 313 841  122 255 0
4  312 914 917 313  255 96 0
4  841 346 345 840  103 255 0
4  878 552 553 915  255 96 0
4  548 917 914 547  255 96 0
4  892 526 527 855  255 77 0
6  911 370 371 367 527 526  255 19 0
4  703 939 101 20  83 0 255
4  20 101 738 790  103 0 255
4  20 103 421 19  122 0 255
5  19 421 432 433 126  0 167 255
4  703 20 19 420  83 0 255
8  485 953 583 378 555 99 297 486  255 154 0
4  160 598 596 159  0 255 206
4  165 381 171 164  25 0 255
4  165 47 46 381  25 0 255
4  155 967 699 166  0 129 255
5  393 583 581 813 678  6 0 255
4  393 160 159 170  25 0 255
6  813 581 394 401 812 780  6 0 255
5  813 780 391 392 678  6 0 255
5  812 383 390 391 780  6 0 255
4  393 678 392 45  6 0 255
4  790 891 103 20  103 0 255
4  115 594 679 43  0 71 255
4  765 746 551 550  0 71 255
4  765 42 747 746  0 71 255
4  629 39 40 625  0 32 255
4  811 628 30 31  0 51 255
4  765 31 30 42  64 0 255
4  115 43 40 39  64 0 255
4  795 739 102 23  103 0 255
8  789 742 72 70 67 68 64 772  6 255 0
8  788 771 63 65 66 69 71 724  6 255 0
5  126 433 823 425 129  0 167 255
4  420 19 126 129  0 225 255
4  395 396 803 570  0 255 245
5  14 15 576 1 253  142 0 255
4  256 657 15 14  161 0 255
4  736 256 14 734  255 174 0
4  810 79 77 349  103 255 0
4  202 55 446 673  0 255 129
4  202 218 219 201  25 255 0
4  202 201 447 55  45 0 255
4  809 109 108 424  83 0 255
4  22 423 106 23  122 0 255
4  23 102 109 809  83 0 255
4  23 106 890 795  103 0 255
4  23 809 424 22  83 0 255
4  805 263 669 801  255 174 0
4  786 262 263 805  255 174 0
5  808 714 715 768 482  255 58 0
5  806 580 380 381 700  6 0 255
4  381 380 412 413  180 0 255
4  381 46 387 700  6 0 255
4  807 745 382 388  6 0 255
5  806 700 387 382 745  6 0 255
4  264 656 654 265  161 0 255
4  264 800 799 670  255 174 0
4  13 18 656 264  161 0 255
4  256 266 655 657  161 0 255
4  801 669 670 799  255 174 0
4  804 480 361 360  255 38 0
4  137 803 396 136  0 255 245
4  253 1 577 257  0 148 255
4  237 500 258 259  255 174 0
4  481 360 361 235  255 58 0
4  237 802 481 235  255 232 0
5  252 0 575 18 13  142 0 255
4  527 367 366 372  255 19 0
4  529 87 78 351  200 0 255
4  341 372 710 528  142 255 0
5  529 351 528 710 711  142 255 0
4  734 14 253 257  255 174 0
4  210 211 179 180  0 255 90
4  234 798 249 233  45 255 0
4  373 340 342 782  142 255 0
4  797 538 537 785  142 255 0
4  797 782 342 538  142 255 0
4  756 556 554 100  255 135 0
4  98 298 297 99  64 255 0
4  98 649 278 279  64 255 0
4  615 434 425 616  0 255 225
4  129 425 434 130  0 167 255
5  795 890 608 891 790  103 0 255
4  790 738 739 795  103 0 255
4  223 783 793 222  255 251 0
5  792 544 540 545 611  255 96 0
4  547 546 651 632  0 71 255
5  477 758 873 901 791  255 58 0
8  789 764 74 73 763 788 724 742  6 255 0
5  647 279 278 885 884  219 0 255
4  292 896 847 283  238 0 255
4  292 291 303 896  238 0 255
5  647 884 291 95 290  219 0 255
4  787 261 262 786  255 174 0
4  785 727 728 774  142 255 0
4  785 317 318 727  122 255 0
4  642 281 276 640  0 12 255
4  197 188 177 822  45 0 255
4  613 822 177 196  0 255 225
4  224 457 783 223  255 251 0
4  349 77 350 781  0 109 255
4  168 50 652 677  0 129 255
4  168 677 925 158  0 129 255
7  645 603 211 212 213 214 726  25 255 0
4  500 499 735 258  255 174 0
4  257 577 578 258  0 148 255
4  473 779 364 363  255 38 0
5  478 364 365 873 758  255 58 0
4  236 363 364 478  255 58 0
4  778 239 236 478  255 232 0
4  777 135 134 402  0 255 245
4  261 107 572 262  0 148 255
4  262 572 574 263  0 148 255
5  775 107 415 108 109  255 0 251
4  775 109 102 7  255 0 251
4  8 739 740 2  255 0 232
4  776 572 107 775  255 0 213
4  7 102 739 8  255 0 232
4  8 776 775 7  255 0 213
4  294 846 903 773  0 255 12
4  773 903 902 912  0 255 12
4  211 603 178 179  0 255 90
4  211 772 64 212  6 255 0
4  771 214 213 63  6 255 0
5  52 55 447 423 22  0 187 255
4  22 424 133 52  0 225 255
4  636 618 617 635  180 255 0
4  663 939 935 662  255 0 251
4  6 101 939 663  255 0 251
4  5 738 101 6  255 0 232
4  664 5 6 663  255 0 213
5  770 357 358 716 769  255 58 0
5  768 715 359 360 481  255 58 0
4  642 658 280 281  0 12 255
4  764 762 76 74  6 255 0
4  763 73 75 761  6 255 0
6  201 219 207 199 184 200  25 255 0
6  761 75 76 762 207 219  6 255 0
5  759 874 353 352 760  255 58 0
4  665 577 1 3  255 0 213
4  3 741 738 5  255 0 232
4  3 1 576 4  255 0 193
4  665 3 5 664  255 0 213
4  911 560 369 370  255 19 0
4  956 847 834 702  142 255 0
4  201 200 448 447  45 0 255
4  199 432 430 184  45 0 255
4  423 447 448 414  0 187 255
4  421 422 430 432  0 167 255
4  103 104 422 421  122 0 255
4  106 423 414 105  122 0 255
4  263 574 0 252  0 148 255
4  947 574 572 776  255 0 213
4  2 0 574 947  255 0 213
4  2 740 909 9  255 0 232
4  2 947 776 8  255 0 213
4  751 281 280 648  219 0 255
4  751 648 289 288  219 0 255
4  290 322 323 289  0 255 12
5  836 599 485 486 825  142 255 0
4  940 472 59 476  255 58 0
4  242 569 876 938  142 255 0
6  9 909 910 4 11 10  255 0 232
4  9 575 0 2  255 0 193
4  4 576 573 11  255 0 193
4  4 910 741 3  255 0 232
4  9 10 571 575  255 0 193
4  927 538 342 350  200 0 255
4  79 537 538 927  200 0 255
4  350 342 340 327  0 109 255
4  79 927 350 77  200 0 255
4  715 716 358 359  255 58 0
4  198 197 822 820  45 0 255
4  616 820 822 613  0 255 225
4  878 915 659 660  255 96 0
4  659 323 322 660  255 96 0
4  910 909 740 741  255 0 232
6  307 100 554 380 580 725  255 154 0
4  757 159 163 175  255 0 174
4  445 172 696 698  0 255 129
4  757 904 905 159  255 0 174
4  757 175 695 904  255 0 174
5  159 596 597 161 49  0 255 206
4  159 905 385 170  255 0 174
4  755 582 584 754  255 0 154
4  170 378 583 393  6 0 255
4  754 584 409 385  255 0 154
4  755 413 412 582  255 0 154
4  170 385 409 378  180 0 255
5  754 385 386 413 755  255 0 154
4  381 413 386 171  180 0 255
4  385 905 748 386  255 0 174
7  905 904 695 692 694 749 748  255 0 174
4  748 164 171 386  255 0 174
4  293 728 729 912  0 255 12
4  912 729 318 319  0 255 12
4  901 873 874 898  255 58 0
4  895 925 390 383  0 129 255
4  677 391 390 925  0 129 255
5  891 608 105 104 103  103 0 255
4  890 106 105 608  103 0 255
4  325 326 675 287  0 255 12
4  302 640 276 275  0 12 255
4  287 275 276 752  219 0 255
4  752 276 281 751  219 0 255
4  752 751 288 287  219 0 255
4  750 680 679 747  255 0 135
6  30 29 41 40 680 750  255 0 135
4  750 747 42 30  255 0 135
4  172 173 693 696  0 255 129
5  749 694 428 173 172  255 0 174
4  749 172 164 748  255 0 174
6  594 552 551 746 747 679  0 71 255
4  166 699 612 47  0 129 255
4  885 278 96 304  219 0 255
4  304 96 94 702  238 0 255
5  885 304 303 291 884  219 0 255
4  704 935 939 703  83 0 255
4  881 517 340 373  255 0 0
4  781 350 668 686  0 109 255
4  874 873 365 353  255 58 0
4  773 292 283 294  0 255 12
4  870 777 402 401  0 255 245
4  702 94 97 701  142 255 0
4  304 702 834 303  238 0 255
4  699 967 388 382  0 129 255
4  618 644 957 617  180 255 0
4  618 180 179 644  180 255 0
4  634 35 36 744  0 32 255
4  634 744 743 630  0 32 255
4  632 651 36 35  64 0 255
4  730 650 544 543  0 71 255
5  730 653 595 114 113  0 71 255
5  730 113 111 610 650  0 71 255
4  630 743 37 38  0 32 255
4  114 38 37 113  64 0 255
4  744 36 37 743  0 32 255
6  113 37 36 651 112 111  64 0 255
4  742 724 71 72  6 255 0
4  64 63 213 212  6 255 0
4  741 740 739 738  255 0 232
4  737 736 734 735  255 174 0
4  258 578 579 259  0 148 255
4  735 734 257 258  255 174 0
4  305 296 649 733  83 255 0
4  732 731 472 475  255 0 116
4  62 60 731 732  255 0 116
4  62 732 475 61  255 0 116
4  731 60 59 472  255 0 116
4  543 542 653 730  0 71 255
4  327 340 517 339  255 77 0
4  339 517 516 687  255 77 0
4  668 350 327 339  0 109 255
4  318 729 728 727  0 255 12
5  189 56 661 705 186  0 255 129
4  431 427 442 441  0 255 109
4  431 705 661 427  0 255 129
4  441 646 705 431  45 0 255
4  182 186 705 646  45 0 255
4  182 645 726 186  25 255 0
4  64 722 723 63  255 0 96
4  64 68 684 722  255 0 96
4  63 723 683 65  255 0 96
4  723 722 684 683  255 0 96
4  721 718 719 720  255 0 77
4  720 719 707 708  255 0 77
4  709 706 718 721  255 0 77
4  708 707 70 72  255 0 77
4  721 720 708 709  255 0 77
4  706 709 71 69  255 0 77
4  719 718 706 707  255 0 77
4  310 717 539 326  122 255 0
5  639 302 275 287 286  0 255 51
4  716 715 714 713  255 58 0
4  711 710 507 508  142 255 0
4  709 708 72 71  255 0 77
4  69 66 67 70  6 255 0
4  707 706 69 70  255 0 77
6  56 189 187 698 696 693  0 255 129
4  56 697 590 661  255 0 58
4  704 419 934 935  83 0 255
4  704 703 420 419  83 0 255
4  420 129 130 419  0 225 255
4  701 97 296 305  200 255 0
4  699 382 387 612  0 129 255
5  697 56 837 682 592  255 0 58
4  56 693 681 837  255 0 38
5  175 169 444 692 695  255 0 174
5  694 692 444 835 428  255 0 174
4  693 173 428 681  255 0 38
4  592 682 444 169  255 0 58
4  691 508 507 690  161 255 0
4  337 338 688 689  255 77 0
4  339 687 688 338  255 77 0
4  338 337 685 667  0 109 255
4  686 668 667 685  0 109 255
4  68 67 944 684  255 0 96
4  684 944 945 683  255 0 96
4  683 945 66 65  255 0 96
4  682 837 835 444  255 0 58
4  428 835 837 681  255 0 38
4  40 41 624 625  0 32 255
4  680 40 43 679  255 0 135
4  391 677 652 392  0 129 255
4  286 287 675 674  0 255 12
4  675 326 539 674  0 255 12
4  673 671 203 202  0 255 129
4  671 204 185 203  0 255 129
4  264 670 669 13  255 174 0
4  13 669 263 252  255 174 0
4  668 339 338 667  0 109 255
4  666 578 577 665  255 0 213
4  662 579 578 666  255 0 213
5  662 935 934 418 579  255 0 251
5  666 665 664 663 662  255 0 213
4  590 442 427 661  255 0 58
4  648 280 279 647  219 0 255
4  658 98 279 280  64 255 0
4  10 11 573 571  255 0 193
4  265 654 655 266  161 0 255
4  16 573 576 15  142 0 255
4  657 655 16 15  161 0 255
4  18 575 571 17  142 0 255
4  17 571 573 16  142 0 255
4  654 656 18 17  161 0 255
4  655 654 17 16  161 0 255
4  595 653 542 553  0 71 255
4  392 652 50 45  0 129 255
4  546 611 545 541  255 96 0
4  651 546 541 112  0 71 255
4  111 112 609 610  0 71 255
4  650 610 540 544  0 71 255
4  649 296 96 278  64 255 0
4  648 647 290 289  219 0 255
4  441 442 443 440  0 255 109
5  169 175 426 440 443  0 255 109
4  159 49 48 163  25 0 255
4  597 438 157 161  0 255 206
5  182 646 593 589 190  45 0 255
4  646 441 440 593  45 0 255
4  645 964 178 603  0 255 90
5  645 182 190 191 964  0 255 90
4  644 602 949 957  180 255 0
4  644 179 178 602  180 255 0
4  161 157 153 162  0 129 255
5  161 162 156 48 49  0 129 255
4  156 162 439 426  0 255 148
4  426 439 969 589  45 0 255
5  156 426 175 163 48  0 255 109
4  643 581 583 953  255 154 0
4  642 640 638 601  0 12 255
4  640 302 301 638  0 12 255
4  302 639 637 301  0 255 51
4  600 300 301 637  0 255 51
4  601 638 301 300  0 12 255
4  636 635 195 196  180 255 0
4  632 35 34 631  64 0 255
4  547 632 631 548  0 71 255
4  633 34 35 634  0 32 255
4  629 633 634 630  0 32 255
4  594 115 114 595  0 71 255
4  630 38 39 629  0 32 255
4  115 39 38 114  64 0 255
4  628 621 29 30  0 51 255
4  26 27 622 627  0 51 255
5  627 622 619 621 628  0 51 255
4  625 624 623 626  0 32 255
4  626 623 33 32  0 32 255
5  41 29 24 28 33  64 0 255
4  624 41 33 623  0 32 255
3  622 620 619  0 51 255
4  27 28 620 622  0 51 255
4  621 619 24 29  0 51 255
4  620 28 24 619  0 51 255
4  613 196 195 614  0 255 225
4  616 613 614 615  0 255 225
4  47 612 387 46  0 129 255
4  610 609 545 540  0 71 255
4  112 541 545 609  0 71 255
4  296 97 94 96  238 255 0
4  607 359 358 606  255 38 0
4  365 604 605 353  255 38 0
4  192 602 178 176  180 255 0
4  191 190 589 969  45 0 255
4  178 964 191 176  0 255 90
4  642 601 950 658  0 12 255
4  950 601 300 299  0 12 255
4  600 599 299 300  0 255 51
4  597 596 598 948  0 255 206
4  948 437 438 597  0 255 206
4  945 944 67 66  255 0 96
4  590 697 592 591  255 0 58
5  200 184 430 121 448  45 0 255
5  414 120 422 104 105  122 0 255
4  414 448 121 120  0 187 255
4  73 74 933 929  255 0 19
4  75 930 932 76  255 0 19
4  75 73 929 930  255 0 19
4  74 76 932 933  255 0 19
4  933 932 930 929  255 0 19
4  422 120 121 430  0 167 255
4  589 593 440 426  45 0 255
4  293 912 902 824  0 255 12
4  157 438 154 153  0 255 206
4  154 439 162 153  0 255 148
4  595 553 552 594  0 71 255
4  169 443 591 592  255 0 58
4  591 443 442 590  255 0 58
4  438 192 176 154  0 255 225
5  176 191 969 439 154  45 0 255
4  902 903 846 824  0 255 12
4  507 710 372 366  142 255 0
4  957 949 193 183  180 255 0
4  436 183 193 437  0 255 225
4  437 193 192 438  0 255 225
4  949 602 192 193  180 255 0
4  847 896 303 834  238 0 255
4  690 507 366 367  161 255 0
4  892 586 587 526  255 77 0
4  515 526 587 588  255 77 0
4  588 587 586 585  255 77 0
5  584 557 555 378 409  255 116 0
4  107 261 255 415  0 148 255
4  415 255 254 270  0 148 255
4  378 409 408 377  180 0 255
3  584 409 408  255 116 0
5  583 378 400 394 581  6 0 255
5  378 583 581 394 400  255 154 0
5  767 394 400 141 869  0 255 245
5  394 767 869 141 400  255 154 0
4  468 141 140 469  0 225 255
4  141 468 469 140  255 154 0
4  273 468 469 272  0 225 255
4  468 273 272 469  0 245 255
4  579 418 417 908  255 0 251
4  273 418 417 272  0 148 255
5  578 579 908 1 577  255 0 213
5  579 578 577 1 908  0 148 255
3  576 1 573  255 0 193
3  1 576 573  142 0 255
5  571 573 1 0 575  255 0 193
5  573 571 575 0 1  142 0 255
5  574 0 907 107 572  255 0 213
5  0 574 572 107 907  0 148 255
4  415 107 907 416  255 0 251
4  107 415 416 907  0 148 255
4  270 415 416 271  0 225 255
4  415 270 271 416  0 148 255
4  471 270 271 470  0 225 255
4  270 471 470 271  0 245 255
4  139 471 470 138  0 225 255
4  471 139 138 470  255 154 0
4  570 139 397 395  0 255 245
4  139 570 395 397  255 154 0
3  580 395 380  6 0 255
3  395 580 380  255 154 0
4  582 412 411 584  255 0 154
3  380 412 411  255 116 0
4  582 584 411 412  255 116 0
3  584 408 409  255 0 154
3  584 408 410  255 116 0
4  0 907 908 1  0 148 255
3  584 410 408  255 0 154
3  584 410 411  255 116 0
4  139 397 398 138  255 154 0
3  380 411 412  180 0 255
3  584 411 410  255 0 154
4  380 411 410 379  255 116 0
4  141 400 399 140  0 255 245
3  378 400 399  255 154 0
4  1 908 907 0  255 0 213
3  378 399 400  6 0 255
4  378 399 398 377  255 154 0
4  380 395 397 379  6 0 255
4  395 380 379 397  255 154 0
4  379 410 408 377  255 116 0
4  379 410 411 380  180 0 255
4  379 397 398 377  6 0 255
4  377 398 397 379  255 154 0
4  377 408 409 378  255 116 0
4  377 398 399 378  6 0 255
4  377 408 410 379  180 0 255
6  369 560 559 561 503 514  255 19 0
6  560 369 514 503 561 559  255 58 0
5  860 225 227 511 862  161 255 0
4  369 225 227 512  0 255 71
5  860 862 511 227 225  255 251 0
6  641 511 227 228 456 449  142 255 0
6  641 449 456 228 227 511  255 251 0
4  485 449 456 486  142 255 0
4  449 485 486 456  255 232 0
4  297 486 92 90  238 255 0
4  486 297 90 92  255 154 0
4  99 297 90 897  64 255 0
4  297 99 897 90  255 154 0
6  378 555 554 380 379 377  255 116 0
5  99 555 554 100 897  255 154 0
6  378 377 379 380 554 555  255 154 0
5  100 554 555 99 897  255 135 0
3  307 100 308  83 255 0
3  100 307 308  255 154 0
5  487 307 308 92 91  200 255 0
5  307 487 91 92 308  255 154 0
6  244 487 455 376 248 240  142 255 0
6  487 244 240 248 376 455  255 232 0
5  858 244 240 242 857  142 255 0
5  244 858 857 242 240  45 255 0
5  569 242 240 248 375  142 255 0
5  242 569 375 248 240  0 255 32
7  568 375 248 376 368 514 558  255 0 0
7  375 568 558 514 368 376 248  255 58 0
9  567 558 514 503 562 563 564 565 566  255 0 0
9  558 567 566 565 564 563 562 503 514  255 58 0
6  486 456 229 455 487 91  142 255 0
4  369 512 227 225  161 255 0
3  369 512 513  0 255 71
3  369 513 512  161 255 0
3  369 513 368  0 255 71
6  487 455 229 456 486 91  255 232 0
3  369 368 513  161 255 0
3  369 368 514  255 58 0
3  369 514 368  255 19 0
3  486 92 91  255 154 0
4  100 308 90 897  255 154 0
9  553 542 541 547 548 549 550 551 552  0 71 255
9  542 553 552 551 550 549 548 547 541  255 96 0
3  546 547 541  0 71 255
3  547 546 541  255 96 0
3  545 541 540  0 71 255
3  541 545 540  255 96 0
4  544 540 542 543  0 71 255
4  540 544 543 542  255 96 0
3  541 542 540  0 71 255
3  542 541 540  255 96 0
4  554 555 557 556  255 116 0
4  555 554 556 557  255 135 0
3  486 91 92  238 255 0
4  529 87 86 530  122 255 0
3  828 87 86  103 255 0
3  717 529 539  122 255 0
3  529 717 539  142 255 0
3  674 539 286  0 255 12
3  539 674 286  142 255 0
4  639 286 600 637  0 255 51
4  286 639 637 600  142 255 0
5  599 600 286 285 836  0 255 51
5  600 599 836 285 286  142 255 0
6  825 836 877 284 94 97  238 255 0
6  836 825 97 94 284 877  142 255 0
4  486 825 97 91  238 255 0
4  825 486 91 97  142 255 0
5  487 91 97 701 850  200 255 0
5  487 850 701 97 91  142 255 0
5  702 94 93 282 834  238 0 255
5  94 702 834 282 93  142 255 0
4  847 834 282 283  238 0 255
4  834 847 283 282  142 255 0
4  294 283 867 863  0 255 12
4  283 294 863 867  142 255 0
3  846 294 824  0 255 12
3  294 846 824  142 255 0
3  293 824 294  0 255 12
3  824 293 294  142 255 0
4  728 293 865 727  0 255 12
4  293 728 727 865  142 255 0
4  785 727 536 537  122 255 0
4  727 785 537 536  142 255 0
4  79 537 536 80  122 255 0
9  810 79 80 828 839 840 841 842 843  122 255 0
9  79 810 843 842 841 840 839 828 80  103 255 0
3  836 285 877  0 255 51
3  828 86 87  122 255 0
3  828 86 85  103 255 0
3  94 284 93  238 255 0
3  828 85 86  122 255 0
3  828 85 84  103 255 0
3  828 84 85  122 255 0
3  828 84 83  103 255 0
3  828 83 84  122 255 0
3  828 83 82  103 255 0
4  283 867 866 282  142 255 0
4  294 863 865 293  0 255 12
3  828 82 83  122 255 0
3  828 82 81  103 255 0
3  828 81 82  122 255 0
3  828 81 80  103 255 0
4  293 865 863 294  142 255 0
3  828 80 81  122 255 0
4  727 536 535 865  142 255 0
4  539 529 530 88  122 255 0
4  529 539 88 530  142 255 0
4  286 539 88 285  0 255 12
4  539 286 285 88  142 255 0
4  530 88 89 531  142 255 0
4  530 86 87 529  200 0 255
4  530 86 85 531  122 255 0
4  532 866 867 533  142 255 0
4  532 84 85 531  200 0 255
4  532 866 89 531  122 255 0
4  532 84 83 533  122 255 0
4  533 867 863 534  142 255 0
4  533 83 84 532  200 0 255
4  533 867 866 532  122 255 0
4  533 83 82 534  122 255 0
4  534 863 865 535  142 255 0
4  534 82 83 533  200 0 255
4  534 863 867 533  122 255 0
4  534 82 81 535  122 255 0
4  535 81 82 534  200 0 255
4  535 865 863 534  122 255 0
4  535 81 80 536  122 255 0
4  531 85 86 530  200 0 255
4  531 89 866 532  142 255 0
4  531 85 84 532  122 255 0
4  531 89 88 530  122 255 0
4  536 80 81 535  200 0 255
4  536 727 865 535  122 255 0
4  537 79 80 536  200 0 255
12  340 517 516 518 519 520 521 522 523 524 505 506  255 0 0
12  517 340 506 505 524 523 522 521 520 519 518 516  255 77 0
5  342 340 341 528 351  142 255 0
5  340 342 351 528 341  0 109 255
12  538 342 351 529 530 531 532 533 534 535 536 537  142 255 0
12  342 538 537 536 535 534 533 532 531 530 529 351  200 0 255
4  372 341 340 506  255 0 0
4  341 372 506 340  255 77 0
5  527 372 506 515 526  255 19 0
5  372 527 526 515 506  255 77 0
4  525 515 506 505  255 19 0
4  515 525 505 506  255 77 0
3  512 228 227  142 255 0
5  512 228 229 455 513  0 255 71
4  368 376 455 513  142 255 0
5  513 455 229 228 512  142 255 0
4  513 455 376 368  0 255 71
3  512 227 228  0 255 71
4  514 503 366 368  255 19 0
4  503 514 368 366  255 0 0
10  513 368 366 507 508 509 510 511 227 512  161 255 0
10  368 513 512 227 511 510 509 508 507 366  142 255 0
6  372 366 503 504 505 506  255 19 0
6  366 372 506 505 504 503  255 0 0
6  457 449 465 466 484 502  255 154 0
6  449 457 502 484 466 465  255 232 0
3  460 484 466  255 154 0
3  484 460 466  255 232 0
4  501 460 466 268  255 213 0
4  460 501 268 466  255 232 0
3  237 268 238  255 174 0
3  268 237 238  255 232 0
7  500 237 238 483 497 498 499  255 174 0
7  237 500 499 498 497 483 238  255 193 0
8  496 483 238 239 492 493 494 495  255 174 0
8  483 496 495 494 493 492 239 238  255 193 0
5  491 239 238 268 267  255 174 0
5  239 491 267 268 238  255 232 0
4  490 267 465 463  255 213 0
4  267 490 463 465  255 232 0
11  489 463 465 449 485 486 91 487 244 249 488  255 154 0
11  463 489 488 249 244 487 91 486 485 449 465  255 232 0
4  267 465 466 268  255 232 0
4  268 466 465 267  255 213 0
4  474 369 451 450  0 255 71
4  369 474 450 451  255 58 0
3  482 474 450  0 255 71
3  474 482 450  255 58 0
3  481 450 235  255 232 0
3  450 481 235  255 58 0
5  480 361 362 473 479  255 193 0
3  235 361 362  255 58 0
5  480 479 473 362 361  255 38 0
4  236 363 362 235  255 193 0
3  473 363 362  255 38 0
5  478 236 451 452 245  255 232 0
5  236 478 245 452 451  255 58 0
5  477 245 246 59 476  0 255 32
5  245 477 476 59 246  255 58 0
3  472 59 61  255 0 116
3  59 472 61  255 58 0
3  475 472 61  255 0 116
3  472 475 61  255 58 0
4  375 61 247 248  0 255 32
4  61 375 248 247  255 58 0
4  368 376 454 369  0 255 71
4  368 369 454 376  255 58 0
3  369 451 452  255 58 0
4  236 451 450 235  255 58 0
4  245 452 453 246  255 232 0
3  369 452 451  0 255 71
3  369 452 453  255 58 0
4  59 246 247 61  0 255 32
3  369 453 452  0 255 71
3  369 453 454  255 58 0
3  369 454 453  0 255 71
4  61 247 246 59  255 58 0
4  235 450 451 236  255 232 0
3  473 362 363  255 193 0
3  235 362 361  255 193 0
4  235 362 363 236  255 58 0
4  469 272 271 470  0 245 255
4  469 140 138 470  0 225 255
4  470 138 140 469  255 154 0
4  470 271 272 469  0 225 255
6  461 464 463 465 466 460  255 213 0
6  464 461 460 466 465 463  255 154 0
6  471 461 462 468 469 470  0 245 255
6  461 471 470 469 468 462  255 154 0
4  467 462 461 460  255 213 0
4  462 467 460 461  255 154 0
4  454 247 246 453  255 232 0
4  454 247 248 376  255 58 0
3  456 228 229  142 255 0
4  453 246 247 454  255 58 0
4  452 245 246 453  255 58 0
4  376 248 247 454  255 232 0
3  456 229 228  255 251 0
3  459 450 230  0 255 71
3  450 459 230  255 232 0
3  458 230 224  0 206 255
3  230 458 224  255 232 0
3  457 224 449  255 251 0
3  224 457 449  255 232 0
5  456 449 224 221 229  255 251 0
5  449 456 229 221 224  255 232 0
10  455 229 221 230 450 451 452 453 454 376  0 255 71
10  455 376 454 453 452 451 450 230 221 229  255 232 0
3  224 230 221  0 206 255
3  230 224 221  255 232 0
4  144 195 194 403  0 255 225
4  430 432 123 122  45 0 255
4  432 430 122 123  0 167 255
5  448 121 122 55 447  45 0 255
3  430 121 122  0 167 255
5  448 447 55 122 121  0 187 255
3  446 55 429  0 255 129
3  55 446 429  0 255 187
4  148 429 55 54  0 255 129
4  429 148 54 55  0 255 187
4  407 148 54 827  0 255 129
4  148 407 827 54  0 255 167
5  445 854 58 173 172  0 255 129
5  407 854 58 829 827  0 255 148
5  445 172 173 58 854  0 255 109
3  428 173 174  255 0 38
3  173 428 174  255 0 174
4  444 835 57 169  255 0 58
4  428 835 57 174  255 0 174
4  444 169 57 835  255 0 174
5  443 169 57 427 442  255 0 58
5  169 443 442 427 57  0 255 109
5  431 427 174 173 58  0 255 129
5  427 431 58 173 174  0 255 109
7  441 431 405 152 154 426 440  45 0 255
7  431 441 440 426 154 152 405  0 255 148
3  439 426 154  45 0 255
3  426 439 154  0 255 148
6  438 154 404 403 436 437  0 255 225
6  154 438 437 436 403 404  0 255 206
4  144 403 404 145  0 255 225
4  403 144 145 404  0 255 167
5  435 144 145 125 116  0 255 225
5  144 435 116 125 145  0 187 255
4  434 116 125 425  0 255 225
4  434 425 125 116  0 167 255
5  433 823 817 124 432  45 0 255
4  425 823 817 125  0 167 255
5  433 432 124 817 823  0 167 255
3  432 123 124  0 167 255
3  432 124 123  45 0 255
4  431 405 406 829  0 255 148
5  55 122 123 147 54  45 0 255
3  430 122 121  45 0 255
4  428 174 57 835  255 0 38
3  427 174 57  0 255 109
4  425 125 817 823  0 255 225
3  154 404 152  0 255 206
4  417 272 271 416  0 225 255
4  417 908 907 416  0 148 255
4  418 273 272 417  0 225 255
4  418 579 908 417  0 148 255
4  416 907 908 417  255 0 251
4  416 271 272 417  0 148 255
4  424 108 941 22  83 0 255
3  415 108 941  0 225 255
4  424 22 941 108  0 225 255
3  423 22 414  122 0 255
3  22 423 414  0 187 255
5  422 120 21 19 421  122 0 255
4  414 120 21 22  0 187 255
5  422 421 19 21 120  0 167 255
5  420 19 110 934 419  83 0 255
5  19 420 419 934 110  0 225 255
6  418 934 110 415 416 417  255 0 251
6  418 417 416 415 110 934  0 225 255
5  22 941 110 19 21  83 0 255
3  415 941 108  255 0 251
3  415 941 110  0 225 255
3  415 110 941  255 0 251
5  19 110 941 22 21  0 225 255
4  414 22 21 120  122 0 255
8  385 409 408 410 411 412 413 386  255 0 154
8  409 385 386 413 412 411 410 408  180 0 255
4  400 141 140 399  255 154 0
4  398 138 140 399  0 255 245
4  399 140 138 398  255 154 0
4  404 145 816 152  0 255 167
3  404 154 152  0 255 225
4  405 146 147 406  0 255 167
4  405 146 816 152  45 0 255
4  405 431 829 406  45 0 255
4  406 147 54 827  0 255 167
4  406 147 146 405  45 0 255
3  406 829 827  45 0 255
4  397 139 138 398  0 255 245
4  405 152 816 146  0 255 167
4  404 152 816 145  0 255 225
3  406 827 829  0 255 148
5  407 827 829 58 854  0 255 129
4  406 827 54 147  45 0 255
8  136 396 395 397 398 399 400 394  0 255 245
8  396 136 394 400 399 398 397 395  6 0 255
4  384 136 134 389  0 255 167
4  136 384 389 134  6 0 255
5  155 384 389 167 151  0 255 167
5  384 155 151 167 389  0 129 255
7  407 155 151 152 405 406 827  0 255 167
7  155 407 827 406 405 152 151  0 255 148
5  404 152 151 167 403  0 255 167
5  404 403 167 151 152  0 255 206
5  402 134 136 394 401  0 255 245
5  134 402 401 394 136  6 0 255
3  170 385 171  255 0 174
3  385 170 171  180 0 255
3  393 170 45  25 0 255
3  170 393 45  6 0 255
5  392 45 383 390 391  0 129 255
5  45 392 391 390 383  6 0 255
5  389 383 45 44 384  0 129 255
5  383 389 384 44 45  6 0 255
5  388 384 44 46 382  0 129 255
5  384 388 382 46 44  6 0 255
3  387 382 46  0 129 255
3  382 387 46  6 0 255
3  381 46 171  25 0 255
3  46 381 171  6 0 255
3  386 171 385  255 0 174
3  171 386 385  180 0 255
3  45 170 44  25 0 255
3  170 45 44  6 0 255
4  170 44 46 171  6 0 255
4  171 46 44 170  25 0 255
7  170 378 377 379 380 381 171  180 0 255
7  378 170 171 381 380 379 377  6 0 255
10  366 372 341 340 373 374 375 248 376 368  142 255 0
10  372 366 368 376 248 375 374 373 340 341  255 0 0
6  371 367 366 368 369 370  161 255 0
6  367 371 370 369 368 366  255 19 0
14  365 353 352 354 355 356 357 358 359 360 361 362 363 364  255 38 0
14  353 365 364 363 362 361 360 359 358 357 356 355 354 352  255 58 0
4  345 330 329 344  0 109 255
4  346 331 330 345  0 109 255
4  347 332 331 346  0 109 255
4  348 333 332 347  0 109 255
4  351 78 77 342  200 0 255
3  343 78 77  0 109 255
4  351 342 77 78  0 109 255
3  350 342 77  200 0 255
3  342 350 77  0 109 255
8  349 77 343 344 345 346 347 348  103 255 0
8  77 349 348 347 346 345 344 343  0 109 255
3  343 77 78  103 255 0
4  341 328 327 340  0 109 255
4  328 341 340 327  255 77 0
13  339 327 328 329 330 331 332 333 334 335 336 337 338  0 109 255
13  327 339 338 337 336 335 334 333 332 331 330 329 328  255 77 0
4  308 100 897 90  83 255 0
3  308 92 90  255 154 0
3  308 90 92  200 255 0
18  326 310 309 311 312 313 314 315 316 317 318 319 320 321 322 323 324 325  255 96 0
18  310 326 325 324 323 322 321 320 319 318 317 316 315 314 313 312 311 309  122 255 0
6  308 90 296 305 306 307  83 255 0
3  297 90 296  238 255 0
6  308 307 306 305 296 90  200 255 0
6  96 296 297 298 295 879  64 255 0
6  296 96 879 295 298 297  238 255 0
5  304 96 95 291 303  219 0 255
5  96 304 303 291 95  238 0 255
3  290 95 96  219 0 255
4  289 290 96 879  219 0 255
4  290 289 879 96  238 255 0
4  288 289 879 277  219 0 255
4  289 288 277 879  0 255 51
4  287 288 277 275  219 0 255
4  288 287 275 277  0 255 51
7  302 275 277 295 299 300 301  0 12 255
7  302 301 300 299 295 277 275  0 255 51
3  297 296 90  64 255 0
3  290 96 95  238 255 0
3  295 277 879  0 12 255
4  282 866 867 283  0 255 12
5  282 866 89 284 93  142 255 0
5  284 89 866 282 93  0 255 12
3  284 94 93  142 255 0
5  284 89 88 285 877  142 255 0
5  285 88 89 284 877  0 255 12
3  285 836 877  142 255 0
6  292 283 282 93 95 291  238 0 255
6  283 292 291 95 93 282  0 255 12
6  290 95 93 284 877 289  238 255 0
6  290 289 877 284 93 95  0 255 12
6  288 289 877 285 286 287  0 255 51
6  289 288 287 286 285 877  0 255 12
3  277 295 879  0 255 51
6  281 276 275 277 879 280  219 0 255
6  276 281 280 879 277 275  0 12 255
5  279 280 879 96 278  219 0 255
5  280 279 278 96 879  64 255 0
4  274 268 267 269  255 213 0
4  268 274 269 267  255 174 0
6  273 260 254 270 271 272  0 245 255
4  274 260 254 269  255 174 0
6  273 272 271 270 254 260  0 148 255
4  269 254 260 274  0 245 255
6  266 256 12 13 264 265  161 0 255
6  256 266 265 264 13 12  255 174 0
3  252 13 12  142 0 255
3  13 252 12  255 174 0
5  263 252 255 261 262  0 148 255
5  252 263 262 261 255  255 174 0
4  254 255 252 253  0 148 255
4  255 254 253 252  255 174 0
6  260 254 253 257 258 259  0 148 255
6  254 260 259 258 257 253  255 174 0
4  14 253 252 12  142 0 255
4  253 14 12 252  255 174 0
3  256 14 12  161 0 255
3  14 256 12  255 174 0
4  1 253 252 0  0 148 255
4  253 1 0 252  142 0 255
3  251 245 241  255 232 0
3  245 251 241  0 255 32
3  250 241 233  255 232 0
3  241 250 233  0 90 255
3  249 233 244  255 232 0
3  233 249 244  45 255 0
7  248 240 231 241 245 246 247  255 232 0
4  244 240 231 233  45 255 0
7  248 247 246 245 241 231 240  0 255 32
3  233 241 231  255 232 0
3  241 233 231  0 90 255
4  244 233 231 240  255 232 0
4  243 241 231 232  0 90 255
4  241 243 232 231  0 255 32
4  242 232 231 240  45 255 0
4  242 240 231 232  0 255 32
5  239 236 235 237 238  255 193 0
5  236 239 238 237 235  255 232 0
4  234 232 231 233  0 90 255
4  232 234 233 231  45 255 0
4  230 226 220 221  0 206 255
4  226 230 221 220  0 255 71
6  229 221 220 225 227 228  255 251 0
6  229 228 227 225 220 221  0 255 71
5  224 221 220 222 223  0 206 255
5  221 224 223 222 220  255 251 0
14  219 207 206 208 209 210 211 212 213 214 215 216 217 218  6 255 0
14  207 219 218 217 216 215 214 213 212 211 210 209 208 206  25 255 0
4  205 187 185 204  0 255 129
4  187 205 204 185  219 255 0
6  203 185 184 200 201 202  45 0 255
6  185 203 202 201 200 184  25 255 0
7  199 184 185 832 188 197 198  45 0 255
7  184 199 198 197 188 832 185  25 255 0
6  196 177 176 183 194 195  0 255 225
4  188 177 176 182  0 255 90
6  196 195 194 183 176 177  180 255 0
4  193 183 176 192  0 255 225
4  183 193 192 176  180 255 0
4  191 176 182 190  45 0 255
4  176 191 190 182  0 255 90
4  186 182 188 832  45 0 255
4  182 186 832 188  25 255 0
3  189 186 187  0 255 129
3  186 189 187  219 255 0
3  185 187 832  0 255 129
3  187 185 832  219 255 0
3  187 832 186  219 255 0
3  187 186 832  0 255 129
4  182 176 177 188  45 0 255
6  181 177 176 178 179 180  180 255 0
6  177 181 180 179 178 176  0 255 90
3  174 427 57  0 255 129
3  159 170 163  255 0 174
3  170 159 163  25 0 255
3  175 163 169  255 0 174
3  163 175 169  0 255 109
7  174 57 169 163 164 172 173  255 0 174
7  169 57 174 173 172 164 163  0 255 109
4  171 164 163 170  255 0 174
4  164 171 170 163  25 0 255
4  50 160 159 49  0 255 206
4  160 50 49 159  25 0 255
6  168 50 49 161 157 158  0 255 206
6  50 168 158 157 161 49  0 129 255
5  167 158 157 153 151  0 255 206
5  158 167 151 153 157  0 129 255
3  155 151 153  0 255 148
3  166 155 156  0 255 148
3  155 166 156  0 129 255
4  47 166 156 48  0 255 109
4  166 47 48 156  0 129 255
5  165 47 48 163 164  0 255 109
5  47 165 164 163 48  25 0 255
4  162 156 155 153  0 255 148
4  156 162 153 155  0 129 255
3  155 153 151  0 129 255
4  154 152 151 153  0 255 206
4  152 154 153 151  0 255 148
4  145 125 817 816  0 187 255
5  147 123 122 55 54  0 187 255
4  147 123 124 146  45 0 255
4  146 124 123 147  0 187 255
4  146 124 817 816  45 0 255
4  146 816 817 124  0 187 255
4  145 816 817 125  0 255 225
6  137 139 138 140 141 135  0 225 255
6  139 137 135 141 140 138  0 255 245
6  150 127 53 54 148 149  0 255 187
5  137 127 53 132 135  0 255 167
6  150 149 148 54 53 127  0 255 167
10  147 54 53 132 142 143 144 145 816 146  0 187 255
10  147 146 816 145 144 143 142 132 53 54  0 255 167
5  135 132 53 127 137  0 225 255
4  137 135 134 136  0 255 167
4  135 137 136 134  0 255 245
4  22 21 119 52  0 187 255
3  19 21 119  0 225 255
4  22 52 119 21  0 225 255
3  133 52 128  0 255 187
3  52 133 128  0 225 255
4  127 128 52 51  0 255 187
4  128 127 51 52  0 225 255
6  132 53 51 117 118 131  0 187 255
3  127 53 51  0 225 255
6  132 131 118 117 51 53  0 225 255
5  130 118 117 126 129  0 167 255
5  130 129 126 117 118  0 225 255
4  19 126 117 119  0 167 255
4  126 19 119 117  0 225 255
4  52 119 117 51  0 187 255
3  19 119 21  0 167 255
3  127 51 53  0 255 187
4  119 52 51 117  0 225 255
12  125 116 118 117 119 21 120 121 122 123 124 817  0 187 255
12  116 125 817 124 123 122 121 120 21 119 117 118  0 167 255
3  765 937 42  0 71 255
3  937 765 42  64 0 255
3  747 42 679  0 71 255
3  42 747 679  255 0 135
3  43 679 42  0 71 255
3  679 43 42  255 0 135
10  115 43 937 631 632 651 112 111 113 114  0 71 255
10  43 115 114 113 111 112 651 632 631 937  64 0 255
3  42 937 43  0 71 255
3  937 42 43  64 0 255
7  939 935 934 110 941 108 101  83 0 255
7  935 939 101 108 941 110 934  255 0 251
4  738 101 102 739  103 0 255
4  101 738 739 102  255 0 232
4  109 102 101 108  83 0 255
4  102 109 108 101  255 0 251
3  775 107 7  255 0 213
3  107 775 7  255 0 251
3  102 7 101  255 0 232
3  7 102 101  255 0 251
3  6 101 7  255 0 232
3  101 6 7  255 0 251
7  663 6 107 907 908 579 662  255 0 213
7  6 663 662 579 908 907 107  255 0 251
3  7 107 6  255 0 213
3  107 7 6  255 0 251
4  23 102 101 20  103 0 255
4  102 23 20 101  83 0 255
6  106 23 20 103 104 105  103 0 255
6  23 106 105 104 103 20  122 0 255
4  99 98 649 897  255 135 0
4  98 99 897 649  64 255 0
5  100 897 649 733 756  255 135 0
5  100 756 733 649 897  83 255 0
4  658 280 879 295  64 255 0
4  280 658 295 879  0 12 255
4  897 90 296 649  64 255 0
4  90 897 649 296  83 255 0
4  269 274 462 461  0 245 255
4  274 269 461 462  255 213 0
4  96 94 93 95  238 255 0
4  94 96 95 93  238 0 255
5  92 91 97 296 90  238 255 0
5  91 92 90 296 97  200 255 0
5  289 877 836 295 879  238 255 0
5  877 289 879 295 836  0 255 51
7  216 185 832 186 726 214 215  25 255 0
7  185 216 215 214 726 186 832  219 255 0
7  209 188 182 645 603 211 210  0 255 90
7  188 209 210 211 603 645 182  25 255 0
17  319 318 727 865 863 867 866 89 88 539 326 325 324 323 322 321 320  0 255 12
17  318 319 320 321 322 323 324 325 326 539 88 89 866 867 863 865 727  122 255 0
11  87 78 77 79 80 81 82 83 84 85 86  103 255 0
11  78 87 86 85 84 83 82 81 80 79 77  200 0 255
4  76 74 73 75  255 0 19
4  74 76 75 73  6 255 0
4  72 70 69 71  255 0 77
4  70 72 71 69  6 255 0
6  68 64 63 65 66 67  255 0 96
6  64 68 67 66 65 63  6 255 0
4  62 60 59 61  0 255 32
4  60 62 61 59  255 0 116
3  58 829 431  0 255 129
3  58 431 829  0 255 148
8  440 426 156 166 854 58 431 441  0 255 109
8  426 440 441 431 58 854 166 156  0 255 148
4  56 661 427 57  255 0 58
4  661 56 57 427  0 255 129
4  837 56 57 835  255 0 58
4  56 837 835 57  255 0 38
11  202 55 54 827 829 431 705 186 832 185 203  45 0 255
11  55 202 203 185 832 186 705 431 829 827 54  0 255 129
5  693 56 57 174 173  255 0 38
5  56 693 173 174 57  0 255 129
9  820 823 817 816 152 154 176 177 822  0 255 225
9  823 820 822 177 176 154 152 816 817  45 0 255
5  55 52 51 53 54  0 187 255
5  52 55 54 53 51  0 255 187
7  50 45 44 46 47 48 49  25 0 255
7  45 50 49 48 47 46 44  0 129 255
6  40 43 42 30 29 41  64 0 255
6  43 40 41 29 30 42  255 0 135
10  41 33 32 34 35 36 37 38 39 40  64 0 255
10  33 41 40 39 38 37 36 35 34 32  0 32 255
5  31 25 24 29 30  64 0 255
5  25 31 30 29 24  0 51 255
5  28 24 25 26 27  64 0 255
5  24 28 27 26 25  0 51 255
5  23 20 19 21 22  122 0 255
5  20 23 22 21 19  83 0 255
7  18 13 12 14 15 16 17  161 0 255
7  13 18 17 16 15 14 12  142 0 255
6  11 4 3 2 9 10  255 0 232
6  4 11 10 9 2 3  255 0 193
6  8 2 3 5 6 7  255 0 232
6  2 8 7 6 5 3  255 0 213
4  3 1 0 2  255 0 213
4  1 3 2 0  255 0 193

