OFF
837 949 0

2.65131 7.25563 39.8184
3.8107 9.32295 39.8184
1.31861 4.87928 39.8184
-6.53982 -9.13319 39.8184
-6.53982 -9.13319 108.991
-5.51984 -7.31444 108.991
3.8107 9.32295 108.991
-5.63926 -9.63829 108.991
-2.7786 -16.0467 108.991
44.5034 -8.3111 108.991
4.89451 9.14438 108.991
31.9385 -30.715 108.991
-6.51893 15.1162 108.991
-15.8496 -1.52114 108.991
-7.68887 -13.2929 108.991
29.8897 -34.3681 108.991
42.4732 -11.931 108.991
14.5929 8.46351 108.991
11.8341 10.0107 108.991
6.92454 12.7641 108.991
3.99384 9.64951 108.991
44.9955 -7.43354 39.8184
31.9385 -30.715 87.2825
42.4732 -11.931 87.2825
29.4895 -35.0817 39.8184
29.4895 -35.0817 87.2825
33.1438 -28.5659 39.8184
38.0349 -19.8447 39.8184
40.6382 -15.2029 39.8184
42.4451 -11.9811 39.8184
44.9955 -7.43354 87.2825
44.5034 -8.3111 87.2825
42.4732 -11.931 112.097
42.4732 -11.931 114.199
42.0807 -12.6309 114.199
37.6349 -20.558 114.199
37.4377 -20.9097 114.199
31.9385 -30.715 114.199
31.9385 -30.715 112.097
-6.84731 14.5306 39.8184
-6.51893 15.1162 39.8184
-7.22479 13.8576 39.8184
-9.45059 9.8888 39.8184
-16.8694 -3.3395 39.8184
-16.8694 -3.3395 108.991
61.6545 -35.8623 101.377
60.2786 -38.3157 93.8946
64.0752 -31.5461 93.8946
56.7398 -44.6256 39.8184
60.8414 -37.3122 39.8184
64.3753 -31.011 39.8184
6.58225 14.1102 -119.089
6.51625 14.1473 -109.998
6.51625 14.1473 -119.089
6.51625 14.1473 -97.5362
6.51625 14.1473 -85.5033
58.4858 -51.3434 -119.089
67.0251 -50.3945 -119.089
11.01 22.1601 -130.696
11.01 22.1601 -117.522
-48.4972 33.6005 -85.5033
-47.454 35.4603 -85.5033
-49.5717 31.6847 -85.5033
-58.8608 15.1234 -85.5033
-63.5156 6.82461 -85.5033
-63.974 6.00726 -85.5033
-63.974 6.00726 -116.471
-63.974 6.00726 -119.089
-65.2958 3.65065 -119.089
-46.7826 36.6574 -85.5033
-43.2812 42.8999 -85.5033
-42.4858 44.3179 -85.5033
-40.6096 47.663 -85.5033
-38.7864 50.9134 -119.089
-37.2738 53.6102 -119.089
-65.2958 3.65065 -130.696
-38.7864 50.9134 -130.696
-40.6096 47.663 -130.696
-63.974 6.00726 -130.696
-59.141 14.624 -130.696
-37.2738 53.6102 -130.696
-43.6328 42.273 -130.696
-46.1557 37.775 -130.696
-46.3388 37.4486 -130.696
-56.6894 18.9948 -130.696
-16.8193 32.2975 -85.5033
-36.9639 45.4879 -85.5033
-48.1442 43.4824 -67.284
-52.6197 43.6355 -67.284
-43.9787 42.467 -67.284
-46.8865 44.0977 -67.284
-47.5807 44.4871 -67.284
-51.6141 45.4285 -67.284
-56.2886 45.6931 -67.284
-57.2423 43.9927 -67.284
-57.4253 43.6663 -67.284
-67.7748 25.2125 -67.284
-59.9418 20.8191 -67.284
-57.0341 19.1882 -67.284
-46.6845 37.6424 -67.284
-46.5014 37.9689 -67.284
-6.53982 -9.13319 -67.284
3.8107 9.32295 -67.284
-20.9512 -1.05007 -67.284
-10.6008 17.4054 -67.284
-6.53982 -9.13319 -81.0327
3.8107 9.32295 -85.5033
-15.1453 -24.4777 -130.696
11.3624 22.7884 -119.089
-13.8225 -22.1191 -119.089
-6.53982 -9.13319 -85.5033
12.8748 25.4853 -130.696
12.8748 25.4853 -119.089
11.3624 22.7884 -130.696
6.51625 14.1473 -130.696
3.99384 9.64951 -130.696
3.8107 9.32295 -130.696
-6.53982 -9.13319 -130.696
-8.98979 -13.5018 -130.696
-13.8225 -22.1191 -130.696
-15.1453 -24.4777 -119.089
-13.8225 -22.1191 -115.062
38.9091 -34.6247 39.8184
36.4603 -38.991 39.8184
46.1881 -38.7074 39.8184
53.3476 -42.723 39.8184
70.2563 -40.6865 39.8184
62.0708 -47.6157 39.8184
71.1698 -39.0577 39.8184
60.934 -46.9781 39.8184
63.7349 -48.5491 39.8184
67.2739 -42.2388 39.8184
68.8804 -43.1398 39.8184
72.6767 -36.3707 39.8184
71.0702 -35.4696 39.8184
74.0869 -30.0905 39.8184
74.2701 -29.7637 39.8184
71.4692 -28.1928 39.8184
-8.98979 -13.5018 39.8184
6.51625 14.1473 39.8184
-20.9512 -1.05007 39.8184
3.99384 9.64951 39.8184
-10.6008 17.4054 39.8184
-54.9921 64.843 -130.696
-54.9921 64.843 -119.089
-36.7209 54.596 -119.089
-36.7209 54.596 -130.696
10.8817 4.15848 114.199
11.3931 5.07045 116.828
11.3931 5.07045 114.199
8.72805 4.47188 115.328
8.72805 4.47188 116.828
4.23035 2.95975 114.199
3.82997 2.24585 114.199
3.82997 2.24585 115.328
4.23035 2.95975 115.328
1.19636 4.66129 115.328
1.19636 4.66129 114.199
7.00684 1.40262 114.199
7.00684 1.40262 115.328
-46.6845 37.6424 -65.7028
-46.5014 37.9689 -65.7028
59.1756 -32.3311 126.328
62.568 -34.2336 126.328
9.62105 6.06429 114.199
3.99384 9.64951 114.199
-7.31604 15.9925 -85.5033
-4.79353 20.4902 -85.5033
-4.79353 20.4902 -81.0327
11.3931 5.07045 122.441
8.37828 -0.305322 122.441
64.4188 -55.0416 -119.089
62.7352 -54.0974 -119.089
64.4188 -55.0416 -130.696
80.2078 -26.8888 -130.696
78.5239 -25.9445 -130.696
78.5239 -25.9445 -119.089
80.2078 -26.8888 -119.089
66.9856 -38.8522 101.377
65.8487 -38.2146 101.377
-12.0303 14.8565 -85.5033
-17.0801 17.6886 -85.5033
-17.0801 17.6886 -83.6525
-12.0303 14.8565 -83.6525
-51.6141 45.4285 -65.7028
-52.6197 43.6355 -65.7028
-48.1442 43.4824 -65.7028
-55.283 47.4862 -67.284
-7.68887 -13.2929 112.097
-5.63926 -9.63829 112.097
56.5398 -20.2494 116.828
56.723 -19.9227 116.828
63.8826 -23.9381 116.828
63.6994 -24.2648 116.828
49.2607 -16.1671 116.828
49.4439 -15.8404 116.828
42.4732 -11.931 122.441
42.29 -12.2576 122.441
-61.4422 36.504 -61.1087
-59.3472 28.5303 -61.1087
-59.3472 28.5303 -57.9254
-61.4422 36.504 -57.9254
-56.5097 26.9389 -61.1087
-56.5097 26.9389 -57.9254
-64.3428 31.332 -57.9254
-64.3428 31.332 -61.1087
-53.3642 32.5475 -61.1087
-61.1973 36.9406 -61.1087
-61.1973 36.9406 -57.9254
-53.3642 32.5475 -57.9254
-52.3416 34.3708 -61.1087
-52.3416 34.3708 -57.9254
-60.1748 38.7638 -57.9254
-60.1748 38.7638 -61.1087
-65.1257 29.936 -61.1087
-65.1257 29.936 -57.9254
-57.2926 25.5429 -61.1087
-57.2926 25.5429 -57.9254
-59.9418 20.8191 -61.1087
-67.7748 25.2125 -61.1087
-57.4253 43.6663 -61.1087
-49.4092 39.5996 -65.7028
-49.5922 39.2732 -65.7028
-49.5922 39.2732 -61.1087
-49.5922 39.2732 -57.9254
-49.4092 39.5996 -57.9254
-57.4253 43.6663 -65.7028
-57.2423 43.9927 -65.7028
-57.4253 43.6663 -57.9254
-57.2423 43.9927 -57.9254
49.4439 -15.8404 122.441
49.2607 -16.1671 122.441
-2.63357 24.3416 -85.5033
-2.63357 24.3416 -81.0327
-5.7352 26.0811 -85.5033
-5.7352 26.0811 -83.6525
-5.7352 26.0811 -81.0327
8.67619 17.9987 -85.5033
-7.89514 22.2298 -81.0327
6.51625 14.1473 -81.0327
2.91765 7.73055 112.097
2.91765 7.73055 114.199
8.72805 4.47188 114.199
8.72805 4.47188 112.097
9.62105 6.06429 112.097
9.36474 -0.858635 122.441
12.3796 4.51717 122.441
6.60639 0.688544 116.828
6.60639 0.688544 122.441
6.60639 0.688544 114.199
6.60639 0.688544 115.328
3.8107 9.32295 112.097
3.8107 9.32295 114.199
-21.6849 23.6218 -81.0327
-21.6849 23.6218 -83.6525
-21.5018 23.9483 -83.6525
-21.5018 23.9483 -81.0327
-17.0801 17.6886 -81.0327
-12.0303 14.8565 -81.0327
-47.5807 44.4871 -65.7028
-49.1497 41.6895 -65.7028
-56.2886 45.6931 -65.7028
4.89451 9.14438 112.097
6.92454 12.7641 112.097
-43.9787 42.467 -65.7028
71.1698 -39.0577 -0.134231
70.2563 -40.6865 -0.134231
71.94 -41.6308 -0.134231
72.8535 -40.002 -0.134231
68.8804 -43.1398 -0.134231
70.5641 -44.0841 -0.134231
72.6767 -36.3707 -0.134231
74.3604 -37.3151 -0.134231
72.8535 -40.002 -4.09274
71.1698 -39.0577 50.3116
71.94 -41.6308 -4.09274
70.2563 -40.6865 50.3116
-15.6506 20.2375 -81.0327
-10.6008 17.4054 -81.0327
-10.4177 17.7319 -81.0327
-42.4538 35.6988 -81.0327
-42.6369 35.3724 -81.0327
0.0314136 -4.5273 114.199
0.0314136 -4.5273 115.328
71.4692 -28.1928 50.3116
71.2859 -28.5196 50.3116
72.4228 -29.1572 50.3116
74.0869 -30.0905 50.3116
74.2701 -29.7637 50.3116
74.2701 -29.7637 -4.09274
71.4692 -28.1928 -4.09274
-66.1088 4.10664 -119.089
-67.3839 1.83339 -119.089
-67.3839 1.83339 -116.471
-66.1088 4.10664 -116.471
67.2739 -42.2388 -4.09274
63.7349 -48.5491 -4.09274
65.3415 -49.4502 -4.09274
68.8804 -43.1398 -4.09274
67.0251 -50.3945 -4.09274
70.5641 -44.0841 -4.09274
38.9091 -34.6247 116.828
42.4475 -28.3155 116.828
49.7266 -32.3978 116.828
46.1881 -38.7074 116.828
38.9091 -34.6247 112.097
46.1881 -38.7074 112.097
56.8863 -36.4132 116.828
53.3476 -42.723 116.828
49.7266 -32.3978 122.441
-16.0117 33.7375 -85.5033
-36.9639 45.4879 -83.6525
-16.0117 33.7375 -83.6525
-16.8193 32.2975 -83.6525
-15.9561 33.8366 -85.5033
11.8341 10.0107 112.097
6.02385 13.2693 108.991
-52.3416 34.3708 -65.7028
-49.4338 32.7401 -65.7028
-49.4338 32.7401 -61.1087
-11.1535 -0.333784 115.328
-11.1535 -0.333784 114.199
-6.06743 8.73501 114.199
-6.06743 8.73501 115.328
9.20654 -7.25064 126.328
9.20654 -7.25064 128.32
10.6617 -4.65613 128.32
10.6617 -4.65613 126.328
-84.8393 11.6229 -116.471
-83.564 13.8969 -116.471
-84.8393 11.6229 -119.089
-66.1088 4.10664 -130.696
-67.3839 1.83339 -130.696
-84.8393 11.6229 -130.696
-83.564 13.8969 -119.089
-36.1365 49.4272 -118.734
-36.4886 48.7993 -118.734
-36.4886 48.7993 -85.5033
-36.1365 49.4272 -85.5033
-9.13335 10.4545 114.199
-3.88966 -4.40765 114.199
-3.88966 -4.40765 115.328
-14.2194 1.38568 114.199
-7.41199 13.5238 114.199
-5.51984 -7.31444 115.328
-5.51984 -7.31444 114.199
-3.00252 -2.82578 115.328
0.796094 3.94757 115.328
-6.53982 -9.13319 115.328
-2.7786 -16.0467 112.097
-8.58943 -12.7879 108.991
-19.4676 1.59529 -85.5033
-24.5176 4.42698 -85.5033
-19.4676 1.59529 -83.6525
63.8826 -23.9381 93.8946
63.6994 -24.2648 93.8946
67.0918 -26.1674 93.8946
71.2859 -28.5196 93.8946
71.4692 -28.1928 93.8946
2.8081 -6.08455 115.328
33.0994 -17.2397 126.328
31.6443 -19.8343 126.328
31.6443 -19.8343 128.32
33.0994 -17.2397 128.32
37.3278 -23.0218 126.328
38.7829 -20.4272 126.328
38.7829 -20.4272 128.32
37.3278 -23.0218 128.32
-39.1386 50.2855 -118.734
-39.1386 50.2855 -85.5033
-35.4375 48.2098 -85.5033
-40.6096 47.663 -118.734
-35.0853 48.8377 -118.734
84.7578 -14.8287 -130.696
84.7578 -14.8287 -119.089
83.2453 -17.5257 -119.089
83.2453 -17.5257 -130.696
-36.9083 45.5872 -85.5033
-36.9083 45.5872 -83.6525
31.6443 -19.8343 130.702
33.0994 -17.2397 130.702
38.7829 -20.4272 130.702
37.3278 -23.0218 130.702
8.0549 -3.19418 128.32
6.59981 -5.78872 128.32
6.59981 -5.78872 126.328
43.481 -26.4727 126.328
8.0549 -3.19418 126.328
-8.98979 -13.5018 -83.6525
-6.53982 -9.13319 -83.6525
2.8081 -6.08455 116.828
2.8081 -6.08455 122.441
2.8081 -6.08455 114.199
-3.00252 -2.82578 116.828
-58.8569 6.45028 -85.5033
-37.9051 -5.30018 -85.5033
-37.9051 -5.30018 -83.6525
-58.8569 6.45028 -83.6525
-64.787 6.4632 -116.471
-64.787 6.4632 -119.089
-46.8865 44.0977 -65.7028
-6.0582 -29.5745 -119.089
-4.7352 -27.2155 -119.089
-4.7352 -27.2155 -115.062
-6.0582 -29.5745 -115.062
-14.8023 -24.6701 -115.062
-14.8023 -24.6701 -119.089
-13.4795 -22.3114 -119.089
-13.4795 -22.3114 -115.062
-19.4676 1.59529 -81.0327
74.0869 -30.0905 -4.09274
75.6934 -30.9915 -4.09274
75.8767 -30.6647 -4.09274
77.3773 -31.9358 -4.09274
77.5605 -31.6091 -4.09274
67.275 -25.8406 39.8184
67.275 -25.8406 93.8946
75.8767 -30.6647 -85.5033
69.4062 -34.5362 57.3895
65.6097 -41.3055 57.3895
67.2739 -42.2388 57.3895
64.0752 -31.5461 101.377
71.0702 -35.4696 57.3895
62.568 -34.2336 101.377
60.2786 -38.3157 101.377
8.0549 -3.19418 122.441
56.7398 -44.6256 93.8946
44.9361 -23.878 126.328
-48.4555 41.3002 -65.7028
-48.4555 41.3002 -57.9254
-56.2886 45.6931 -57.9254
39.2742 -17.635 122.441
63.6994 -24.2648 114.199
-3.17893 -16.7606 108.991
46.1881 -38.7074 114.199
-0.729202 -12.3923 112.097
38.9091 -34.6247 114.199
53.3476 -42.723 114.199
56.8863 -36.4132 114.199
-57.0341 19.1882 -65.7028
-54.3848 23.9121 -65.7028
60.2786 -38.3157 114.199
61.6545 -35.8623 114.199
62.568 -34.2336 114.199
64.0752 -31.5461 114.199
-15.8496 -1.52114 112.097
-5.51984 -7.31444 112.097
-15.8496 -1.52114 114.199
63.8826 -23.9381 114.199
-57.2926 25.5429 -65.7028
60.683 -29.6434 114.199
-54.3848 23.9121 -61.1087
49.4439 -15.8404 114.199
56.723 -19.9227 114.199
-18.9792 28.4462 -81.0327
-18.9792 28.4462 -83.6525
-16.8193 32.2975 -81.0327
-37.7714 44.0481 -81.0327
-37.7714 44.0481 -83.6525
68.2693 -33.8985 101.377
-10.6008 17.4054 108.991
-20.9512 -1.05007 108.991
3.8107 9.32295 -81.0327
24.7805 3.90389 -119.089
-20.9512 -1.05007 -81.0327
20.7769 6.14929 -119.089
-6.53982 -9.13319 112.097
8.26484 13.1666 -119.089
3.8107 9.32295 114.199
-6.53982 -9.13319 114.199
-20.9512 -1.05007 -83.6525
56.723 -19.9227 39.8184
72.6767 -36.3707 50.3116
54.2763 -24.2854 39.8184
68.8804 -43.1398 50.3116
51.1384 -29.8806 39.8184
-13.8225 -22.1191 -104.588
60.934 -46.9781 -119.089
11.01 22.1601 -119.089
64.4728 -40.6679 101.377
71.4692 -28.1928 -119.089
71.0702 -35.4696 50.3116
66.4048 -19.4408 -119.089
73.9913 -23.6956 -119.089
71.2513 -10.7991 -119.089
53.6528 -59.9611 -119.089
53.6528 -59.9611 -130.696
49.8419 1.20793 -119.089
58.4858 -51.3434 -130.696
51.9662 -11.343 -85.5033
64.0752 -31.5461 116.828
63.8826 -23.9381 -85.5033
60.2786 -38.3157 126.328
53.3476 -42.723 -85.5033
64.0752 -31.5461 126.328
56.8863 -36.4132 126.328
60.683 -29.6434 126.328
3.99384 9.64951 -85.5033
-59.9418 20.8191 -65.7028
-8.98979 -13.5018 -85.5033
-39.9312 40.1969 -81.0327
7.5684 -22.7879 -85.5033
29.4895 -35.0817 -85.5033
51.9662 -11.343 39.8184
36.4603 -38.991 -85.5033
43.7395 -43.0734 -85.5033
78.8378 -15.0538 -119.089
50.8992 -47.0887 -85.5033
78.8378 -15.0538 -130.696
73.9913 -23.6956 -130.696
56.7398 -44.6256 -85.5033
60.934 -46.9781 -85.5033
62.0708 -47.6157 -85.5033
-32.035 5.16664 -85.5033
63.7349 -48.5491 -85.5033
68.2693 -33.8985 50.3116
65.3415 -49.4502 -85.5033
69.4062 -34.5362 50.3116
67.0251 -50.3945 -85.5033
70.5641 -44.0841 -85.5033
74.3604 -37.3151 -85.5033
77.3773 -31.9358 -85.5033
56.8863 -36.4132 93.8946
77.5605 -31.6091 -85.5033
53.3476 -42.723 93.8946
74.2701 -29.7637 -85.5033
71.4692 -28.1928 -85.5033
5.56636 -7.63146 122.441
5.56636 -7.63146 126.328
9.36474 -0.858635 126.328
66.4048 -19.4408 -85.5033
59.2453 -15.4254 -85.5033
44.9955 -7.43354 -85.5033
23.0745 4.86069 -85.5033
-34.4857 0.796874 -83.6525
-36.4886 48.7993 -119.089
-38.8601 -7.00304 -85.5033
-3.40132 30.2425 -130.696
-39.1386 50.2855 -130.696
-34.4857 0.796874 -85.5033
64.4728 -40.6679 50.3116
-39.1386 50.2855 -129.885
60.934 -46.9781 50.3116
62.0708 -47.6157 50.3116
-39.1386 50.2855 -119.089
65.6097 -41.3055 50.3116
60.934 -46.9781 -4.09274
-3.40132 30.2425 -85.5033
62.0708 -47.6157 -4.09274
11.01 22.1601 -85.5033
11.01 22.1601 -118.428
49.4439 -15.8404 87.2825
51.4741 -12.2205 87.2825
11.01 22.1601 -119.244
58.4858 -51.3434 -85.5033
64.577 -54.7595 -119.089
12.3265 10.8886 108.991
9.8042 6.39087 112.097
-82.2427 16.2529 -116.471
-81.7843 17.0703 -116.471
-60.2702 3.93006 -116.471
25.2345 8.71218 -91.0805
25.2345 8.71218 -85.5033
23.0745 4.86069 -91.0805
46.2447 -21.5448 116.828
53.5236 -25.6276 116.828
-36.9083 45.5872 -81.0327
-40.6096 47.663 -119.089
-59.8118 4.74742 -83.6525
-59.8118 4.74742 -85.5033
62.0708 -47.6157 -8.26834
60.934 -46.9781 -8.26834
-32.035 5.16664 -83.6525
42.4475 -28.3155 126.328
46.2447 -21.5448 126.328
69.4062 -34.5362 93.8946
68.2693 -33.8985 93.8946
44.7422 -58.0673 -119.089
46.0662 -55.7063 -119.089
-54.7195 48.4909 -67.284
27.9208 13.502 -91.0805
27.9208 13.502 -85.5033
47.1556 -3.58194 -91.0805
65.6097 -41.3055 93.8946
-52.9864 16.9179 -81.0327
-60.2702 3.93006 -119.089
-60.2702 3.93006 -85.5033
7.5684 -22.7879 -91.0805
2.73554 -31.4053 -85.5033
2.73554 -31.4053 -91.0805
71.0702 -35.4696 -4.09274
72.6767 -36.3707 -4.09274
29.4895 -35.0817 -91.0805
64.4728 -40.6679 93.8946
67.0251 -50.3945 -8.26834
70.5641 -44.0841 -8.26834
65.3415 -49.4502 -8.26834
73.9913 -23.6956 -85.5033
36.4603 -38.991 87.2825
38.9091 -34.6247 87.2825
53.5236 -25.6276 122.441
77.5605 -31.6091 -119.089
80.0827 -27.1119 -119.089
63.7349 -48.5491 -8.26834
44.9955 -7.43354 -91.0805
74.3604 -37.3151 -4.09274
-8.98979 -13.5018 108.991
29.4895 -35.0817 108.991
72.7638 -8.10214 -119.089
60.934 -46.9781 93.8946
60.2786 -38.3157 116.828
-81.7843 17.0703 -85.5033
-81.7843 17.0703 -119.089
-59.9418 20.8191 -57.9254
44.9955 -7.43354 108.991
6.51625 14.1473 108.991
3.99384 9.64951 112.097
72.7638 -8.10214 -130.696
71.2513 -10.7991 -130.696
60.683 -29.6434 116.828
-42.4538 35.6988 -83.6525
-55.4376 12.5471 -83.6525
-55.4376 12.5471 -67.284
-59.8118 4.74742 -67.284
46.1881 -38.7074 93.8946
38.9091 -34.6247 108.991
-52.9864 16.9179 -83.6525
-52.9864 16.9179 -67.284
-36.7306 -3.8613 -85.5033
-39.9312 40.1969 -83.6525
-61.9033 52.5198 -83.6525
-64.426 48.0216 -83.6525
-10.6008 17.4054 -85.5033
-10.4177 17.7319 -83.6525
59.2453 -15.4254 -8.26834
56.723 -19.9227 -8.26834
63.8826 -23.9381 -8.26834
66.4048 -19.4408 -8.26834
-58.8804 57.9098 -85.5033
-37.0102 -3.70447 -85.5033
77.5605 -31.6091 -130.696
77.3773 -31.9358 -130.696
-74.9583 29.2416 -83.6525
-77.4102 24.8697 -83.6525
-67.7748 25.2125 -57.9254
-30.2725 7.65395 -85.5033
46.2447 -21.5448 122.441
-10.4177 17.7319 -85.5033
42.4475 -28.3155 122.441
29.4895 -35.0817 -104.588
24.6566 -43.6992 -104.588
46.0662 -55.7063 -104.588
-61.9033 52.5198 -85.5033
50.8992 -47.0887 -104.588
-64.426 48.0216 -85.5033
-64.6091 47.6952 -85.5033
-74.9583 29.2416 -85.5033
-77.4102 24.8697 -85.5033
-64.3286 7.28055 -85.5033
24.6566 -43.6992 -91.0805
24.6566 -43.6992 -119.089
-35.0853 48.8377 -85.5033
-35.0853 48.8377 -119.089
-34.2061 0.640051 -85.5033
-31.7554 5.00981 -85.5033
-36.9083 45.5872 -67.284
-39.9312 40.1969 -67.284
-20.9512 -1.05007 -85.5033
-58.8804 57.9098 -83.6525
-4.87196 27.6203 -85.5033
-1.5365 33.5676 -130.696
43.7395 -43.0734 39.8184
-58.8804 57.9098 -119.089
-57.0574 61.1603 -119.089
-3.04899 30.8708 -119.089
49.8419 1.20793 -104.588
44.9955 -7.43354 -104.588
66.4048 -19.4408 -104.588
71.2513 -10.7991 -104.588
-13.8225 -22.1191 -91.0805
-13.8225 -22.1191 -85.5033
63.8826 -23.9381 39.8184
56.723 -19.9227 93.8946
49.8419 1.20793 -91.0805
3.8107 9.32295 -83.6525
11.3624 22.7884 -91.0805
66.4048 -19.4408 -91.0805
11.3624 22.7884 -85.5033
-81.7843 17.0703 -83.6525
44.7422 -58.0673 -130.696
49.4439 -15.8404 39.8184
-3.04899 30.8708 -85.5033
51.4741 -12.2205 39.8184
51.9662 -11.343 87.2825
-28.2344 -14.0365 -85.5033
-23.4016 -5.4193 -85.5033
50.8992 -47.0887 -119.089
58.0605 -62.433 -119.089
58.0605 -62.433 -130.696
56.8863 -36.4132 122.441
62.8934 -53.8153 -119.089
62.8934 -53.8153 -130.696
12.5628 4.84375 114.199
11.5763 5.39703 114.199
24.6566 -43.6992 -115.062
-28.2344 -14.0365 -115.062
-42.6369 35.3724 -83.6525
-42.6369 35.3724 -67.284
9.10962 5.15231 114.199
-29.5569 -16.3945 -130.696
-61.592 1.57323 -119.089
-83.564 13.8969 -130.696
-82.2427 16.2529 -130.696
-24.5176 4.42698 -83.6525
-30.5522 7.81075 -83.6525
-30.5522 7.81075 -81.0327
-24.5176 4.42698 -81.0327
60.683 -29.6434 122.441
-3.00252 -2.82578 122.441
-6.53982 -9.13319 122.441
31.9385 -30.715 122.441
38.9091 -34.6247 122.441
65.6097 -41.3055 101.377
69.4062 -34.5362 101.377
-55.545 63.8572 -119.089
-36.1365 49.4272 -119.089
46.0662 -55.7063 -130.696
50.8992 -47.0887 -130.696
44.5034 -8.3111 112.097
-30.2725 7.65395 -83.6525
-31.7554 5.00981 -83.6525
56.7361 -64.7945 -130.696
64.577 -54.7595 -130.696
-28.2344 -14.0365 -130.696
56.7361 -64.7945 -119.089
-64.6091 47.6952 -83.6525
-36.7306 -3.8613 -83.6525
-34.2061 0.640051 -83.6525
-6.51893 15.1162 114.199
-6.51893 15.1162 112.097
-10.6008 17.4054 -83.6525
66.4048 -19.4408 -130.696
10.8817 4.15848 112.097
9.10962 5.15231 112.097
46.1881 -38.7074 -8.26834
68.8804 -43.1398 57.3895
72.6767 -36.3707 57.3895
43.7395 -43.0734 -8.26834
11.3931 5.07045 112.097
-1.5365 33.5676 -119.089
47.7489 -35.9242 -85.5033
57.9737 -17.6926 -85.5033
-37.0102 -3.70447 -83.6525
-61.9033 52.5198 -67.284
-64.426 48.0216 -67.284
-42.4538 35.6988 -67.284
-25.9262 -9.9207 -85.5033
-64.6091 47.6952 -67.284
-61.9033 52.5198 -130.696
-64.426 48.0216 -130.696
-64.6091 47.6952 -130.696
62.568 -34.2336 116.828
66.7622 -36.5858 101.377
78.3988 -26.1675 -119.089
-74.9583 29.2416 -67.284
78.3988 -26.1675 -130.696
-77.4102 24.8697 -67.284
53.3476 -42.723 -130.696
-29.5569 -16.3945 -119.089
-28.2344 -14.0365 -119.089
-82.2427 16.2529 -119.089
14.5929 8.46351 112.097
-77.4102 24.8697 -130.696
-64.3286 7.28055 -116.471
12.5628 4.84375 112.097
-64.787 6.4632 -85.5033
35.4768 -24.4061 122.441
-23.4016 -5.4193 -130.696
58.2622 -33.9598 128.607
61.6545 -35.8623 128.607
-74.9583 29.2416 -130.696
62.568 -34.2336 128.607
59.1756 -32.3311 128.607
67.2739 -42.2388 50.3116
50.8992 -47.0887 -91.0805
-67.7748 25.2125 -65.7028
-28.2344 -14.0365 -104.588
61.6545 -35.8623 126.328
58.2622 -33.9598 126.328
23.3329 -46.0593 -119.089
61.6545 -35.8623 116.828
49.4439 -15.8404 108.991
80.0827 -27.1119 -130.696
59.2453 -15.4254 39.8184
49.4439 -15.8404 112.097
9.93185 -7.65742 126.328
11.387 -5.06288 126.328
11.387 -5.06288 128.32
9.93185 -7.65742 128.32
63.8826 -23.9381 -130.696
-77.4102 24.8697 -119.089
63.7349 -48.5491 50.3116
6.59981 -5.78872 122.441
9.8042 6.39087 114.199
11.5763 5.39703 122.441
-7.31604 15.9925 -81.0327
-55.545 63.8572 -130.696
-58.8804 57.9098 -67.284
3.99384 9.64951 -81.0327
46.1881 -38.7074 108.991
-57.0574 61.1603 -130.696
-26.0009 1.78218 -85.5033
12.5628 4.84375 122.441
-58.8804 57.9098 -130.696
-51.6966 53.881 -67.284
-4.87196 27.6203 -130.696
-57.962 8.04587 -83.6525
50.8992 -47.0887 -8.26834
67.0251 -50.3945 -130.696
53.3476 -42.723 -8.26834
10.8817 4.15848 116.828
9.10962 5.15231 116.828
-10.6008 17.4054 -130.696
9.10962 5.15231 122.441
-81.7843 17.0703 -67.284
10.8817 4.15848 122.441
-3.04899 30.8708 -130.696
29.8897 -34.3681 112.097
62.7352 -54.0974 -130.696
60.683 -29.6434 93.8946
77.3773 -31.9358 -119.089
-7.89514 22.2298 -130.696
9.10962 5.15231 115.328
-28.2344 -14.0365 -91.0805
-10.4177 17.7319 -130.696
-20.9512 -1.05007 -130.696
-27.7762 -13.2193 -85.5033
4  835 117 116 822  255 0 0
4  835 84 79 777  255 0 0
4  834 82 83 822  255 0 0
4  834 115 114 831  255 0 0
4  834 822 116 115  255 0 0
4  835 822 83 84  255 0 0
4  831 81 82 834  255 0 0
5  831 114 58 537 815  255 0 0
4  831 815 77 81  255 0 0
4  826 537 58 113  255 85 0
4  826 670 80 76  255 85 0
4  826 113 111 670  255 85 0
4  777 118 117 835  255 0 0
6  818 767 727 488 701 732  255 170 0
4  732 555 57 818  255 170 0
5  641 116 117 767 818  255 170 0
4  818 57 830 641  255 170 0
5  116 641 640 799 115  255 170 0
4  780 84 83 760  255 255 0
4  760 83 82 759  255 255 0
4  760 655 656 780  255 255 0
4  764 642 735 757  169 255 0
4  104 142 140 103  85 255 0
4  104 278 462 102  169 255 0
6  103 464 409 258 278 104  169 255 0
5  103 140 43 3 101  85 255 0
4  764 757 95 96  169 255 0
4  118 727 767 117  255 170 0
4  110 389 388 499  0 255 0
4  518 594 595 519  0 255 84
7  518 57 477 511 512 514 516  0 255 170
6  499 388 138 24 502 501  0 255 0
4  518 516 596 594  0 255 84
4  507 505 747 817  0 255 84
6  507 554 56 696 653 784  0 255 170
5  493 510 511 554 507  0 255 170
5  493 819 125 48 510  0 255 84
4  507 817 819 493  0 255 84
6  792 765 509 741 799 640  255 170 0
4  640 601 602 792  255 170 0
4  115 799 741 114  255 170 0
5  114 741 618 113 58  255 170 0
4  523 414 412 417  0 255 84
4  55 239 808 497  0 255 0
6  55 533 532 21 139 239  0 255 0
6  523 417 525 526 480 601  0 255 170
7  491 526 290 137 415 681 636  0 255 84
6  530 531 489 532 604 686  0 255 170
4  530 597 526 491  0 255 170
4  530 637 634 531  0 255 84
4  491 636 637 530  0 255 84
4  792 174 175 765  255 170 0
4  792 602 177 174  255 170 0
4  113 618 617 111  255 170 0
4  687 685 580 581  0 255 255
5  687 581 562 237 549  0 255 255
4  55 237 562 533  0 255 255
4  772 79 84 780  255 255 0
5  772 780 656 657 800  255 255 0
4  732 701 828 173  255 170 0
4  118 777 733 119  255 0 0
4  777 79 78 733  255 0 0
4  733 709 107 119  255 0 0
4  733 78 75 709  255 0 0
4  712 78 79 772  255 255 0
5  772 800 612 770 712  255 255 0
4  766 643 642 764  169 255 0
4  766 824 688 643  169 255 0
4  766 622 623 824  169 255 0
7  766 764 96 97 98 627 622  169 255 0
6  521 830 57 518 519 520  0 255 170
4  106 684 740 632  169 255 0
4  521 520 605 413  0 255 84
4  759 82 81 758  255 255 0
4  758 81 77 813  255 255 0
4  759 758 652 654  255 255 0
4  754 631 630 753  169 255 0
6  754 753 579 187 93 94  169 255 0
7  719 348 344 341 346 393 718  0 170 255
5  719 720 37 469 348  0 170 255
4  504 502 24 123  0 255 0
6  504 505 507 784 592 502  0 255 170
5  721 301 436 37 720  0 170 255
5  504 123 671 747 505  0 255 0
4  667 470 389 110  169 255 0
4  632 740 633 647  169 255 0
4  667 351 353 470  169 255 0
5  489 531 634 793 503  0 255 0
5  230 196 33 452 195  0 170 255
4  489 503 21 532  0 255 0
6  511 510 48 129 546 571  0 255 84
4  511 571 570 512  0 255 84
4  741 509 508 618  255 170 0
5  618 508 376 373 617  255 170 0
6  530 686 677 482 483 597  0 255 170
4  514 512 570 603  0 255 84
4  514 603 596 516  0 255 84
5  691 674 108 685 687  255 85 0
4  691 687 549 547  255 85 0
4  55 167 232 237  255 0 0
4  655 735 642 656  169 255 0
4  656 642 643 657  169 255 0
4  667 811 352 351  255 0 0
4  111 617 608 112  255 170 0
4  826 76 538 537  255 85 0
4  810 76 80 806  255 255 0
5  810 813 77 538 76  255 255 0
4  753 630 668 807  169 255 0
5  758 813 672 638 652  255 255 0
4  810 673 672 813  255 255 0
6  669 547 549 237 232 234  255 0 0
4  815 537 538 77  255 0 0
6  807 668 378 566 665 814  169 255 0
4  753 807 814 579  169 255 0
4  470 464 105 389  169 255 0
4  740 278 279 633  169 255 0
4  470 353 409 464  169 255 0
4  732 173 171 555  255 170 0
4  709 768 120 107  255 0 0
4  119 726 727 118  255 170 0
4  680 679 833 694  255 0 0
4  680 588 589 679  0 255 170
4  499 501 588 680  0 255 170
4  726 486 488 727  255 170 0
4  726 119 107 689  255 170 0
4  657 643 688 611  169 255 0
8  694 833 786 705 769 585 560 586  255 0 0
5  657 611 559 612 800  255 255 0
4  695 756 628 663  255 0 0
5  694 586 569 536 836  255 0 0
4  699 307 303 309  0 170 255
4  718 393 390 391  0 170 255
5  699 309 648 573 495  0 170 255
4  721 720 776 648  0 170 255
6  720 719 718 391 527 776  0 170 255
5  717 496 574 646 600  0 170 255
4  717 600 565 619  0 170 255
5  712 711 331 75 78  255 255 0
4  712 770 334 711  255 255 0
4  711 333 332 331  255 255 0
4  711 334 330 333  255 255 0
5  709 75 68 710 768  255 0 0
4  627 98 99 707  169 255 0
5  706 254 714 572 626  169 255 0
4  626 584 281 706  169 255 0
4  627 707 281 584  169 255 0
4  532 533 563 604  0 255 170
4  196 812 702 33  0 170 255
4  648 309 303 302  0 170 255
5  648 776 527 528 573  0 170 255
4  646 564 565 600  0 170 255
5  699 495 492 610 307  0 170 255
4  109 121 408 407  0 255 170
4  578 651 653 696  0 255 170
5  578 660 704 650 651  0 255 170
5  647 633 279 805 166  169 255 0
4  55 497 166 167  255 0 0
6  695 499 680 694 836 756  255 0 0
4  638 668 630 652  169 255 0
5  638 672 567 371 72  255 255 0
5  638 72 377 378 668  169 255 0
5  691 661 372 662 674  255 85 0
4  691 547 370 661  255 85 0
5  669 314 377 370 547  255 0 0
4  721 648 302 301  0 170 255
4  667 110 499 695  255 0 0
4  482 677 678 484  0 255 255
4  484 678 675 487  0 255 255
6  108 487 675 683 580 685  0 255 255
4  646 431 197 231  0 170 255
4  469 466 446 345  0 84 255
6  37 38 435 189 466 469  0 84 255
6  836 536 395 639 628 756  255 0 0
4  824 623 568 688  169 255 0
6  611 688 568 569 64 658  169 255 0
4  625 599 22 11  0 0 255
4  625 305 306 809  0 0 255
6  809 624 124 122 599 625  0 0 255
6  809 306 434 437 524 624  0 0 255
7  667 695 663 539 513 664 811  255 0 0
10  165 616 262 557 774 32 33 702 703 803  0 84 255
4  33 32 794 452  0 0 255
7  519 595 300 275 273 605 520  0 255 84
4  191 453 448 192  0 170 255
7  689 107 120 406 401 789 577  255 170 0
5  689 731 698 486 726  255 170 0
4  689 577 734 731  255 170 0
4  308 437 434 304  0 170 255
4  304 434 436 301  0 170 255
4  646 231 194 564  0 170 255
4  195 452 453 191  0 170 255
4  690 551 552 692  0 0 255
4  793 634 635 471  0 255 0
4  503 693 30 21  0 0 255
4  471 635 636 681  0 255 84
8  471 682 453 452 794 791 551 690  0 0 255
4  503 692 552 693  0 0 255
5  503 793 471 690 692  0 255 0
5  717 619 490 494 496  0 170 255
4  769 705 121 109  255 0 0
4  769 109 120 768  255 0 0
4  109 407 406 120  255 170 0
4  578 577 789 660  255 170 0
4  679 476 786 833  255 0 0
4  784 653 649 592  0 255 170
5  679 589 659 650 476  0 255 170
4  484 506 483 482  255 170 0
4  602 763 176 177  255 170 0
4  686 604 676 677  0 255 170
4  604 563 561 582  0 255 255
4  683 582 561 580  0 255 255
5  604 582 683 675 676  0 255 255
4  682 471 681 354  0 0 255
4  354 681 415 416  0 0 255
4  354 448 453 682  0 0 255
4  678 677 676 675  0 255 255
4  652 630 631 654  169 255 0
4  305 436 434 306  0 0 255
4  305 625 11 38  0 0 255
4  38 37 436 305  0 0 255
4  38 11 15 827  0 84 255
5  673 73 544 567 672  255 255 0
4  123 598 599 122  0 0 255
4  124 744 747 671  0 255 0
4  124 624 524 125  0 0 255
4  122 124 671 123  0 255 0
4  111 112 749 670  255 85 0
5  669 234 85 310 314  255 0 0
7  666 89 90 91 579 814 665  169 255 0
4  629 458 313 455  169 255 0
4  629 500 457 458  169 255 0
5  666 665 566 457 500  169 255 0
5  378 311 458 457 566  169 255 0
4  661 338 335 372  255 85 0
5  377 72 369 337 370  255 0 0
4  377 314 310 86  255 0 0
4  661 370 337 338  255 85 0
4  662 372 335 725  255 85 0
4  660 402 403 704  0 255 170
4  659 589 587 592  0 255 170
4  592 587 501 502  0 255 170
4  659 592 649 650  0 255 170
6  650 704 403 408 121 476  0 255 170
4  653 651 650 649  0 255 170
5  646 574 529 245 431  0 170 255
4  96 785 498 97  85 0 255
4  95 226 785 96  85 0 255
4  644 219 214 215  85 0 255
4  644 613 218 219  85 0 255
4  228 212 213 220  85 0 255
4  228 224 211 212  85 0 255
4  644 215 217 613  85 0 255
4  626 572 534 621  169 255 0
4  523 601 830 521  0 255 170
4  521 413 414 523  0 255 84
4  641 830 601 640  255 170 0
4  637 636 635 634  0 255 84
4  629 455 255 620  169 255 0
4  621 534 752 816  169 255 0
5  622 627 584 626 621  169 255 0
6  607 25 24 138 606 433  169 0 255
5  11 22 25 607 15  169 0 255
4  524 437 438 522  0 0 255
4  125 819 744 124  0 255 84
4  125 524 426 48  0 0 255
6  568 623 622 621 816 397  169 255 0
4  32 16 791 794  0 0 255
4  616 20 10 262  0 84 255
4  32 728 9 16  0 84 255
4  32 774 771 728  0 84 255
4  819 817 747 744  0 255 84
4  673 810 806 724  255 255 0
4  806 143 144 724  255 255 0
4  806 80 146 143  255 255 0
4  670 749 74 80  255 85 0
4  755 100 89 666  169 255 0
4  755 666 500 280  169 255 0
4  629 620 280 500  169 255 0
4  619 450 444 490  0 170 255
4  193 432 450 619  0 170 255
4  696 56 485 578  255 170 0
4  555 171 172 700  255 170 0
4  770 558 329 334  255 255 0
4  770 612 559 558  255 255 0
4  614 30 31 9  169 0 255
4  16 23 551 791  0 0 255
4  16 9 31 23  169 0 255
9  226 220 213 207 198 205 214 219 785  85 0 255
4  785 219 218 498  85 0 255
4  617 373 374 608  255 170 0
5  112 608 484 487 108  255 170 0
4  334 329 328 330  255 255 0
4  769 768 710 585  255 0 0
4  759 654 655 760  255 255 0
4  654 631 735 655  169 255 0
4  631 754 757 735  169 255 0
4  707 99 100 755  169 255 0
4  95 757 754 94  169 255 0
4  724 74 73 673  255 255 0
6  749 674 662 725 73 74  255 85 0
4  357 285 515 576  255 0 255
5  576 515 517 418 575  255 0 255
4  576 459 421 47  255 0 255
5  47 421 444 450 829  0 0 255
4  357 576 47 356  255 0 255
8  497 808 141 1 102 462 684 106  0 255 0
6  616 165 252 251 6 20  0 84 255
4  466 4 5 446  0 84 255
4  466 189 7 4  0 84 255
4  38 827 349 435  0 84 255
5  20 141 139 615 316  169 0 255
6  615 139 21 30 614 556  169 0 255
5  615 556 18 19 316  169 0 255
5  614 9 17 18 556  169 0 255
4  20 316 19 10  169 0 255
4  575 723 459 576  255 0 255
4  222 160 318 317  85 0 255
4  498 439 98 97  85 0 255
4  498 449 440 439  85 0 255
4  224 223 210 211  85 0 255
4  613 217 216 218  85 0 255
4  498 218 216 449  85 0 255
4  222 317 210 223  85 0 255
5  583 419 545 540 593  255 0 255
8  574 427 365 360 796 327 387 529  0 170 255
8  573 528 385 324 795 361 364 386  0 170 255
4  829 450 432 355  0 0 255
4  356 47 829 355  0 0 255
4  24 25 598 123  0 0 255
5  591 271 133 134 590  0 255 84
4  605 272 271 591  0 255 84
4  413 605 591 411  0 255 84
4  611 658 773 559  255 255 0
4  307 438 437 308  0 170 255
4  307 610 441 438  0 170 255
5  609 542 129 48 426  255 0 255
4  46 424 479 593  255 0 255
4  593 540 542 609  255 0 255
4  593 479 722 583  255 0 255
4  593 609 426 46  255 0 255
4  603 296 297 596  0 255 84
4  570 548 296 603  0 255 84
5  608 374 375 506 484  255 170 0
5  606 138 3 4 350  169 0 255
4  4 3 43 44  255 0 169
4  4 7 14 350  169 0 255
4  607 433 8 15  169 0 255
5  606 350 14 8 433  169 0 255
4  300 270 267 275  0 255 84
4  300 595 594 299  0 255 84
4  298 269 270 300  0 255 84
4  605 273 268 272  0 255 84
4  596 297 299 594  0 255 84
5  602 601 480 483 763  255 170 0
4  599 598 25 22  0 0 255
4  590 134 135 410  0 255 84
4  526 525 289 290  0 255 84
4  526 597 483 480  0 255 170
5  295 131 132 269 298  0 255 84
4  73 725 535 544  255 85 0
4  567 544 368 371  255 0 0
4  72 371 368 369  255 0 0
4  411 591 590 410  0 255 84
4  431 245 246 197  0 170 255
4  589 588 501 587  0 255 170
4  585 67 66 560  255 0 0
4  586 65 64 569  255 0 0
4  586 560 66 65  255 0 0
4  464 103 101 105  169 255 0
4  278 740 684 462  169 255 0
4  278 258 257 277  169 255 0
4  192 448 432 193  0 170 255
4  355 432 448 354  0 0 255
5  583 722 178 723 575  255 0 255
4  575 418 419 583  255 0 255
4  561 562 581 580  0 255 255
5  579 91 87 92 187  169 255 0
4  94 93 261 227  85 0 255
5  578 485 697 734 577  255 170 0
8  574 496 162 788 495 573 386 427  0 170 255
5  253 277 257 716 715  169 255 0
4  572 730 664 513  169 255 0
4  572 714 729 730  169 255 0
4  253 715 714 254  169 255 0
4  571 546 548 570  0 255 84
4  569 394 395 536  255 0 0
4  569 568 397 394  169 255 0
4  238 454 456 236  169 255 0
4  565 564 194 190  0 170 255
4  563 533 562 561  0 255 255
4  559 773 398 558  255 255 0
4  557 262 263 315  0 84 255
4  557 315 771 774  0 84 255
7  248 170 245 425 802 527 391  0 170 255
4  525 417 412 289  0 255 84
4  410 135 136 289  0 255 84
5  57 555 700 56 477  255 170 0
5  56 700 172 697 485  255 170 0
4  554 511 477 56  0 255 170
4  552 551 23 31  0 0 255
4  546 129 127 548  0 255 84
4  548 127 130 296  0 255 84
4  545 419 420 783  255 0 255
4  543 127 129 542  255 0 255
4  545 543 542 540  255 0 255
4  539 663 737 534  169 255 0
4  534 737 736 752  169 255 0
5  245 170 825 169 246  0 170 255
4  245 529 387 425  0 170 255
4  528 527 802 385  0 170 255
5  522 438 441 424 46  0 0 255
4  46 426 524 522  0 0 255
4  231 197 196 230  0 170 255
4  285 357 358 284  255 0 255
4  286 517 515 285  255 0 255
5  509 765 175 376 508  255 170 0
5  506 375 176 763 483  255 170 0
4  238 279 256 454  169 255 0
4  496 494 163 162  0 170 255
4  495 788 787 492  0 170 255
8  610 492 787 163 494 490 761 790  0 170 255
5  486 698 828 701 488  255 170 0
4  287 135 134 481  255 0 255
4  481 422 418 517  255 0 255
4  481 134 133 472  255 0 255
4  287 481 517 286  255 0 255
4  749 112 108 674  255 85 0
4  811 664 645 352  255 0 0
4  610 790 442 441  0 170 255
4  490 444 443 761  0 170 255
4  424 441 442 45  0 0 255
4  421 423 443 444  0 0 255
4  459 762 423 421  255 0 255
4  479 424 45 179  255 0 255
4  296 130 131 295  0 255 84
4  801 130 127 543  255 0 255
4  783 131 130 801  255 0 255
4  783 420 745 474  255 0 255
4  783 801 543 545  255 0 255
4  454 256 255 455  169 255 0
4  254 706 620 255  169 255 0
5  647 166 497 106 632  255 0 0
4  789 401 402 660  255 170 0
4  476 121 705 786  255 0 0
6  474 745 746 472 274 276  255 0 255
4  474 132 131 783  255 0 255
4  472 133 128 274  255 0 255
4  472 746 422 481  255 0 255
4  474 276 126 132  255 0 255
4  775 65 66 398  255 255 0
4  658 64 65 775  255 255 0
4  398 66 67 399  255 255 0
4  658 775 398 773  255 255 0
4  375 376 175 176  255 170 0
4  619 565 190 193  0 170 255
4  707 755 280 281  169 255 0
4  280 620 706 281  169 255 0
4  746 745 420 422  255 0 255
6  389 105 101 3 138 388  0 255 0
4  468 251 240 241  0 84 255
4  469 345 344 348  0 170 255
4  468 738 739 251  0 84 255
4  468 241 343 738  0 84 255
4  251 252 164 244  0 84 255
4  251 739 12 6  0 84 255
4  461 140 142 460  255 0 85
4  6 1 141 20  169 0 255
4  460 142 40 12  255 0 85
4  461 44 43 140  255 0 85
4  6 12 40 1  255 0 169
5  460 12 13 44 461  255 0 85
4  4 44 13 5  255 0 169
4  12 739 445 13  0 84 255
7  739 738 343 339 342 447 445  0 84 255
4  445 446 5 13  0 84 255
4  639 395 396 752  169 255 0
4  752 396 397 816  169 255 0
4  734 697 698 731  255 170 0
4  728 771 17 9  0 84 255
4  315 18 17 771  0 84 255
5  723 178 179 762 459  255 0 255
4  722 479 179 178  255 0 255
4  458 311 312 313  169 255 0
4  235 236 456 313  169 255 0
4  456 454 455 313  169 255 0
4  451 319 318 440  85 0 255
6  216 202 206 210 319 451  85 0 255
4  451 440 449 216  85 0 255
4  345 340 341 344  0 170 255
5  447 342 321 340 345  0 84 255
4  447 345 446 445  0 84 255
6  160 99 98 439 440 318  85 0 255
4  435 349 188 189  0 84 255
4  716 257 182 713  169 255 0
4  713 182 181 352  169 255 0
5  716 713 729 714 715  169 255 0
4  710 68 67 585  255 0 0
4  558 398 294 329  255 255 0
4  698 697 172 828  255 170 0
4  534 572 513 539  169 255 0
4  693 552 31 30  0 0 255
4  352 181 180 351  255 0 0
4  713 352 645 729  169 255 0
4  349 827 15 8  0 84 255
4  197 246 812 196  0 170 255
4  229 227 261 430  85 0 255
4  229 430 429 225  85 0 255
4  400 259 91 90  85 0 255
5  400 264 161 221 428  85 0 255
5  400 428 260 186 259  85 0 255
4  225 429 428 221  85 0 255
6  430 261 185 260 428 429  85 0 255
4  427 386 364 365  0 170 255
4  387 385 802 425  0 170 255
4  422 420 419 418  255 0 255
4  414 413 411 412  0 255 84
4  289 136 137 290  0 255 84
4  412 411 410 289  0 255 84
4  353 183 258 409  169 255 0
4  405 404 401 406  0 255 170
4  408 403 404 405  0 255 170
4  408 405 406 407  0 255 170
4  404 403 402 401  0 255 170
4  90 89 264 400  85 0 255
4  399 67 68 291  255 255 0
4  291 68 75 331  255 255 0
4  294 398 399 291  255 255 0
4  397 396 395 394  169 255 0
5  393 346 283 359 390  0 170 255
4  392 282 153 249  0 84 255
4  392 359 283 282  0 170 255
4  249 250 359 392  0 170 255
4  247 390 359 250  0 170 255
4  247 248 391 390  0 170 255
4  387 383 384 385  0 170 255
4  387 327 326 383  0 170 255
4  385 384 325 324  0 170 255
4  384 383 326 325  0 170 255
4  382 379 380 381  0 170 255
4  381 380 363 366  0 170 255
4  367 362 379 382  0 170 255
4  366 363 360 365  0 170 255
4  382 381 366 367  0 170 255
4  362 367 364 361  0 170 255
4  380 379 362 363  0 170 255
4  378 377 86 311  169 255 0
4  234 235 313 85  169 255 0
4  376 375 374 373  255 170 0
4  369 368 336 337  255 0 0
4  367 366 365 364  0 170 255
4  361 795 796 360  0 170 255
4  363 362 361 360  0 170 255
4  346 347 154 283  0 170 255
5  358 416 415 137 284  255 0 255
4  358 357 356 416  255 0 255
4  356 355 354 416  0 0 255
4  351 180 183 353  169 255 0
4  349 8 14 188  0 84 255
6  347 346 341 320 323 156  0 170 255
5  241 157 322 339 343  0 84 255
4  342 339 322 321  0 84 255
4  341 340 321 320  0 170 255
4  156 323 322 157  0 170 255
4  338 337 336 335  255 85 0
4  330 292 332 333  255 255 0
4  291 331 332 292  255 255 0
4  292 330 328 293  255 255 0
4  329 294 293 328  255 255 0
4  327 796 797 326  0 170 255
4  326 797 798 325  0 170 255
4  325 798 795 324  0 170 255
4  323 320 321 322  0 170 255
4  210 206 209 211  85 0 255
4  319 210 317 318  85 0 255
4  18 315 263 19  0 84 255
4  85 313 312 310  169 255 0
4  312 311 86 310  169 255 0
4  308 304 303 307  0 170 255
4  304 301 302 303  0 170 255
4  300 299 297 298  0 255 84
4  298 297 296 295  0 255 84
4  294 291 292 293  255 255 0
4  288 136 135 287  255 0 255
4  284 137 136 288  255 0 255
5  288 287 286 285 284  255 0 255
4  154 153 282 283  0 170 255
5  256 279 278 277 253  169 255 0
4  276 274 128 126  255 0 255
4  275 267 268 273  0 255 84
4  265 128 133 271  0 255 84
4  272 268 265 271  0 255 84
4  269 132 126 266  0 255 84
4  266 126 128 265  0 255 84
4  267 270 269 266  0 255 84
4  268 267 266 265  0 255 84
4  161 264 89 100  85 0 255
4  19 263 262 10  0 84 255
4  93 187 92 88  169 255 0
4  261 93 88 185  85 0 255
4  260 185 184 186  85 0 255
4  259 186 87 91  85 0 255
4  258 183 182 257  169 255 0
4  256 253 254 255  169 255 0
4  249 153 152 158  0 84 255
5  157 241 242 158 152  0 84 255
5  251 244 743 243 240  0 84 255
4  164 149 748 244  0 84 255
5  247 250 159 150 151  0 170 255
4  250 249 158 159  0 170 255
4  248 823 825 170  0 170 255
5  248 247 151 821 823  0 170 255
4  246 169 804 812  0 170 255
4  244 748 742 743  0 84 255
4  243 743 708 242  0 84 255
4  242 708 832 150  0 170 255
4  243 242 241 240  0 84 255
4  239 139 141 808  0 255 0
4  238 236 233 168  169 255 0
5  236 235 234 232 233  169 255 0
4  167 168 233 232  169 255 0
4  231 230 195 194  0 170 255
5  227 229 228 220 226  85 0 255
4  94 227 226 95  85 0 255
4  224 228 229 225  85 0 255
4  160 222 221 161  85 0 255
5  225 221 222 223 224  85 0 255
4  217 203 202 216  85 0 255
4  214 205 204 215  85 0 255
5  215 204 200 203 217  85 0 255
4  211 209 208 212  85 0 255
4  212 208 207 213  85 0 255
5  206 202 199 198 207  85 0 255
4  209 206 207 208  85 0 255
3  204 201 200  85 0 255
4  205 198 201 204  85 0 255
4  203 200 199 202  85 0 255
4  201 198 199 200  85 0 255
4  190 194 195 191  0 170 255
4  193 190 191 192  0 170 255
4  189 188 14 7  0 84 255
4  186 184 92 87  85 0 255
4  185 88 92 184  85 0 255
4  183 180 181 182  169 255 0
4  177 176 175 174  255 170 0
4  172 171 173 828  255 170 0
4  148 169 825 820  0 170 255
4  821 151 150 832  0 170 255
4  825 823 821 820  0 170 255
4  238 168 805 279  169 255 0
4  805 168 167 166  169 255 0
4  164 252 165 803  0 84 255
4  803 703 149 164  0 84 255
4  798 797 796 795  0 170 255
4  154 347 156 155  0 170 255
4  790 761 443 442  0 170 255
4  45 423 762 179  255 0 255
4  45 442 443 423  0 0 255
4  788 162 782 778  0 170 255
4  787 779 781 163  0 170 255
4  787 788 778 779  0 170 255
4  162 163 781 782  0 170 255
4  782 781 779 778  0 170 255
4  150 159 158 242  0 170 255
4  639 752 736 628  169 255 0
4  748 149 147 742  0 84 255
4  147 708 743 742  0 84 255
4  161 100 99 160  85 0 255
4  157 152 155 156  0 170 255
4  155 152 153 154  0 170 255
4  149 148 820 147  0 170 255
5  820 821 832 708 147  0 170 255
4  736 737 663 628  169 255 0
4  336 368 544 535  255 0 0
4  812 804 703 702  0 170 255
5  703 804 169 148 149  0 170 255
4  664 730 729 645  169 255 0
4  335 336 535 725  255 85 0
4  724 144 145 74  255 255 0
4  80 74 145 146  255 255 0
4  146 145 144 143  255 255 0
5  142 104 102 1 40  85 255 0
4  1 40 39 0  255 0 169
3  142 40 39  85 255 0
5  141 1 29 21 139  169 0 255
5  1 141 139 21 29  0 255 0
5  503 21 29 690 692  0 0 255
5  21 503 692 690 29  0 255 0
5  471 690 29 28 473  0 0 255
5  690 471 473 28 29  0 255 0
5  681 471 473 50 415  0 0 255
5  471 681 415 50 473  0 255 84
6  137 415 50 134 135 136  255 0 255
6  137 136 135 134 50 415  0 255 84
3  133 134 128  255 0 255
3  134 133 128  0 255 84
7  126 128 134 50 49 131 132  255 0 255
7  128 126 132 131 49 50 134  0 255 84
6  130 131 49 48 129 127  255 0 255
6  131 130 127 129 48 49  0 255 84
5  125 48 49 475 124  0 0 255
5  48 125 124 475 49  0 255 84
5  122 124 475 27 26  0 0 255
5  124 122 26 27 475  0 255 0
4  123 122 26 24  0 0 255
4  122 123 24 26  0 255 0
3  138 24 3  169 0 255
3  24 138 3  0 255 0
4  140 43 42 142  255 0 85
3  3 43 42  85 255 0
4  140 142 42 43  85 255 0
3  142 39 40  255 0 85
3  142 39 41  85 255 0
3  142 41 39  255 0 85
3  142 41 42  85 255 0
3  3 42 43  255 0 169
3  142 42 41  255 0 85
4  3 42 41 2  85 255 0
3  1 29 28  0 255 0
3  1 28 29  169 0 255
4  1 28 27 0  0 255 0
4  3 24 26 2  169 0 255
4  24 3 2 26  0 255 0
4  2 41 39 0  85 255 0
4  2 41 42 3  255 0 169
4  2 26 27 0  169 0 255
4  0 27 26 2  0 255 0
4  0 39 40 1  85 255 0
4  0 27 28 1  169 0 255
4  0 39 41 2  255 0 169
6  108 112 111 113 58 553  255 85 0
6  112 108 553 58 113 111  255 170 0
5  685 108 59 549 687  255 85 0
5  108 685 687 549 59  0 255 255
5  237 549 59 54 55  255 0 0
5  237 55 54 59 549  0 255 255
4  497 55 54 106  255 0 0
4  55 497 106 54  0 255 170
6  684 106 105 101 102 462  169 255 0
6  106 684 462 102 101 105  0 255 0
6  1 102 101 3 2 0  85 255 0
6  1 0 2 3 101 102  0 255 0
4  389 105 106 110  169 255 0
4  105 389 110 106  0 255 0
9  499 110 52 53 109 121 476 679 680  255 0 0
9  110 499 680 679 476 121 109 53 52  0 255 170
6  120 109 53 478 553 107  255 0 0
6  109 120 107 553 478 53  255 170 0
9  119 107 553 58 114 115 116 117 118  255 0 0
9  107 119 118 117 116 115 114 58 553  255 170 0
4  106 54 52 110  255 0 0
3  108 59 550  0 255 255
3  108 550 59  255 85 0
3  108 550 478  0 255 255
4  110 52 54 106  0 255 170
3  108 478 550  255 85 0
3  108 478 553  255 170 0
3  108 553 478  255 85 0
9  100 89 88 94 95 96 97 98 99  85 0 255
9  89 100 99 98 97 96 95 94 88  169 255 0
3  93 94 88  85 0 255
3  94 93 88  169 255 0
3  92 88 87  85 0 255
3  88 92 87  169 255 0
4  91 87 89 90  85 0 255
4  87 91 90 89  169 255 0
3  88 89 87  85 0 255
3  89 88 87  169 255 0
4  101 102 104 103  85 255 0
4  102 101 103 104  169 255 0
3  72 638 71  169 255 0
3  638 72 71  255 255 0
3  377 72 86  169 255 0
3  72 377 86  255 0 0
3  310 86 85  169 255 0
3  86 310 85  255 0 0
4  234 85 167 232  169 255 0
4  85 234 232 167  255 0 0
7  166 167 85 86 72 71 647  169 255 0
7  167 166 647 71 72 86 85  255 0 0
6  632 647 71 70 181 180  169 255 0
6  647 632 180 181 70 71  255 0 0
6  106 632 180 351 667 110  169 255 0
6  632 106 110 667 351 180  255 0 0
5  352 181 70 69 645  169 255 0
5  181 352 645 69 70  255 0 0
5  664 645 69 61 513  169 255 0
5  645 664 513 61 69  255 0 0
4  539 513 61 60  169 255 0
4  513 539 60 61  255 0 0
3  663 539 628  169 255 0
3  539 663 628  255 0 0
5  639 628 539 60 62  169 255 0
5  628 639 62 60 539  255 0 0
5  395 639 62 63 394  169 255 0
5  639 395 394 63 62  255 0 0
4  569 394 63 64  169 255 0
4  394 569 64 63  255 0 0
10  658 64 63 638 652 654 655 656 657 611  169 255 0
10  658 611 657 656 655 654 652 638 63 64  255 255 0
3  638 71 70  255 255 0
3  638 70 71  169 255 0
3  638 70 69  255 255 0
3  638 69 70  169 255 0
3  638 69 61  255 255 0
3  638 61 69  169 255 0
3  638 61 60  255 255 0
3  638 60 61  169 255 0
3  638 60 62  255 255 0
3  638 62 60  169 255 0
3  638 62 63  255 255 0
3  638 63 62  169 255 0
12  67 68 75 78 79 84 83 82 81 77 538 541  255 0 0
12  68 67 541 538 77 81 82 83 84 79 78 75  255 255 0
14  66 67 567 371 72 71 70 69 61 60 62 63 64 65  255 0 0
14  67 66 65 64 63 62 60 61 69 70 71 72 371 567  255 255 0
4  544 567 67 541  255 0 0
4  567 544 541 67  255 255 0
5  73 544 541 80 74  255 85 0
5  544 73 74 80 541  255 255 0
4  76 80 541 538  255 85 0
4  80 76 538 541  255 255 0
4  59 54 52 550  0 255 255
4  478 53 52 550  255 0 0
4  550 52 54 59  255 0 0
4  550 52 53 478  0 255 255
11  553 58 535 336 337 370 547 549 59 550 478  255 85 0
11  58 553 478 550 59 549 547 370 337 336 535  255 0 0
6  544 535 58 537 538 541  255 85 0
6  535 544 541 538 537 58  255 0 0
6  533 55 750 751 489 532  0 255 0
6  55 533 532 489 751 750  0 255 170
3  531 489 751  0 255 0
3  489 531 751  0 255 170
4  530 531 751 491  0 255 84
4  531 530 491 751  0 255 170
7  526 491 520 521 523 417 525  0 255 84
7  491 526 525 417 523 521 520  0 255 170
12  519 520 491 751 750 493 510 511 512 514 516 518  0 255 84
12  520 519 518 516 514 512 511 510 493 750 751 491  0 255 170
4  507 493 750 505  0 255 84
4  493 507 505 750  0 255 170
10  504 505 750 55 497 106 110 499 501 502  0 255 0
10  505 504 502 501 499 110 106 497 55 750  0 255 170
4  487 108 463 482  0 255 255
4  108 487 482 463  255 170 0
3  484 487 482  0 255 255
3  487 484 482  255 170 0
3  483 482 480  0 255 170
3  482 483 480  255 170 0
4  601 480 57 830  0 255 170
4  480 601 830 57  255 170 0
5  477 57 480 482 463  0 255 170
5  57 477 463 482 480  255 170 0
5  56 477 463 465 696  0 255 170
5  477 56 696 465 463  255 170 0
6  578 696 465 467 402 660  0 255 170
6  696 578 660 402 467 465  255 170 0
5  401 402 467 51 407  0 255 170
5  402 401 407 51 467  255 170 0
3  406 401 407  0 255 170
3  401 406 407  255 170 0
4  109 407 51 53  0 255 170
4  407 109 53 51  255 170 0
4  478 53 51 108  0 255 255
4  478 108 51 53  255 170 0
3  108 463 465  255 170 0
3  108 465 463  0 255 255
3  108 465 467  255 170 0
3  108 467 465  0 255 255
3  108 467 51  255 170 0
3  108 51 467  0 255 255
4  473 50 49 475  0 255 84
4  473 28 27 475  0 0 255
4  475 27 28 473  0 255 0
4  475 49 50 473  0 0 255
6  744 747 505 750 751 531  0 255 84
6  747 744 531 751 750 505  0 255 0
6  124 744 635 471 473 475  0 255 84
6  744 124 475 473 471 635  0 255 0
4  634 635 744 531  0 255 84
4  635 634 531 744  0 255 0
3  677 482 676  0 255 255
3  482 677 676  0 255 170
3  604 676 563  0 255 255
3  676 604 563  0 255 170
3  533 563 55  0 255 255
3  563 533 55  0 255 170
11  54 55 563 676 482 463 465 467 51 53 52  0 255 255
11  55 54 52 53 51 467 465 463 482 676 563  0 255 170
7  443 444 36 37 436 434 438  0 170 255
7  444 443 438 434 436 37 36  0 0 255
4  442 443 438 441  0 170 255
4  443 442 441 438  0 0 255
3  437 438 434  0 170 255
3  438 437 434  0 0 255
5  469 37 36 340 345  0 170 255
5  37 469 345 340 36  0 84 255
6  321 340 36 35 392 282  0 170 255
6  340 321 282 392 35 36  0 84 255
6  322 321 282 153 152 157  0 170 255
6  321 322 157 152 153 282  0 84 255
7  249 392 35 34 147 242 158  0 170 255
7  392 249 158 242 147 34 35  0 84 255
3  708 242 147  0 170 255
3  242 708 147  0 84 255
6  149 147 34 33 702 703  0 170 255
6  147 149 703 702 33 34  0 84 255
6  452 33 34 432 448 453  0 170 255
6  33 452 453 448 432 34  0 0 255
5  450 432 34 35 444  0 170 255
5  432 450 444 35 34  0 0 255
3  444 36 35  0 0 255
3  444 35 36  0 170 255
3  426 48 46  255 0 255
3  48 426 46  0 0 255
3  424 46 45  255 0 255
3  46 424 45  0 0 255
6  423 45 46 48 47 421  255 0 255
6  45 423 421 47 48 46  0 0 255
7  356 47 48 49 50 415 416  255 0 255
7  47 356 416 415 50 49 48  0 0 255
8  12 40 39 41 42 43 44 13  255 0 85
8  40 12 13 44 43 42 41 39  255 0 169
8  22 25 24 26 27 28 29 21  0 0 255
8  25 22 21 29 28 27 26 24  169 0 255
4  11 22 23 16  0 0 255
4  22 11 16 23  169 0 255
9  38 11 16 32 33 34 35 36 37  0 0 255
9  11 38 37 36 35 34 33 32 16  0 84 255
5  31 23 22 21 30  0 0 255
5  23 31 30 21 22  169 0 255
3  6 12 5  0 84 255
3  12 6 5  255 0 169
3  20 6 10  0 84 255
3  6 20 10  169 0 255
5  19 10 9 17 18  0 84 255
5  10 19 18 17 9  169 0 255
5  16 9 10 6 11  0 84 255
5  9 16 11 6 10  169 0 255
6  15 11 6 5 7 8  0 84 255
6  11 15 8 7 5 6  169 0 255
3  14 8 7  0 84 255
3  8 14 7  169 0 255
3  4 7 5  0 84 255
3  7 4 5  169 0 255
3  13 5 12  0 84 255
3  5 13 12  255 0 169
7  6 1 0 2 3 4 5  255 0 169
7  1 6 5 4 3 2 0  169 0 255

