OFF
148 127 0

-17.633 -21.0029 0.571418
-17.633 16.4703 0.571418
15.825 -21.0029 0.202827
-10.8378 21.1029 8.19922
-12.1465 18.706 10.5454
-10.5332 18.706 8.3691
-10.5332 21.1029 8.3691
-5.35315 18.706 8.36501
-4.98259 16.4703 8.57172
-4.98259 18.706 8.57172
-10.8378 18.706 8.19922
-12.1465 16.4703 10.5454
3.02182 16.4703 -12.6099
1.64377 16.4703 -10.1394
-5.35315 16.4703 8.36501
-6.21357 18.706 10.7786
-7.52228 18.706 13.1247
-7.52228 16.4703 13.1247
-7.89283 18.706 12.9181
-7.89283 16.4703 12.9181
-4.86257 16.4703 14.6083
-6.43311 16.4703 7.7626
-6.21357 21.1029 10.7786
-7.52228 21.1029 13.1247
-11.8419 21.1029 10.7153
-11.8419 18.706 10.7153
-11.9119 18.706 7.6001
-10.6808 18.706 5.39316
-10.6808 16.4703 5.39316
-11.9119 16.4703 7.6001
15.825 16.4703 0.202827
-9.60676 18.706 5.99229
-9.60676 16.4703 5.99229
-10.8378 16.4703 8.19922
-14.8401 16.4703 5.96678
-9.30222 18.706 6.16217
-9.30222 16.4703 6.16217
-16.1488 16.4703 8.31291
-6.58413 18.706 10.5719
-6.58413 21.1029 10.5719
-7.66417 18.706 9.96943
3.02182 18.706 -12.6099
4.21815 16.4703 -14.7547
5.67469 18.706 -13.9422
5.67469 16.4703 -13.9422
9.78599 16.4703 -11.6489
-25.4541 16.4703 6.05454
1.60844 16.4703 -13.3983
-25.6928 16.4703 6.48245
-8.97294 18.706 12.3156
10.2053 16.4703 -12.4004
7.21132 18.706 -7.03384
-8.97294 16.4703 12.3156
-1.52903 16.4703 8.63304
10.2053 -21.0029 -12.4004
25.2763 16.4703 -3.99392
0.230404 16.4703 -10.9278
4.47828 21.1029 -11.7975
8.5895 18.706 -9.50421
-7.66417 21.1029 9.96943
4.47828 18.706 -11.7975
13.7997 16.4703 -10.3955
8.5895 21.1029 -9.50421
-5.50844 -21.0029 -21.1654
7.21132 21.1029 -7.03384
-0.804694 16.4703 -9.07207
-19.658 -21.0029 24.7279
-13.2075 16.4703 3.04002
-8.97294 21.1029 12.3156
3.10016 21.1029 -9.32703
21.2368 -21.0029 3.22116
3.10016 18.706 -9.32703
25.2763 -21.0029 -3.99392
-9.14033 16.4703 15.1545
2.06508 -21.0029 -7.47151
-11.8419 16.4703 10.7153
-13.0894 -21.0029 12.9517
-4.95164 16.4703 7.6452
-13.0894 16.4703 12.9517
3.53964 16.4703 22.2275
7.21132 16.4703 -7.03384
3.10016 16.4703 -9.32703
4.47828 16.4703 -11.7975
25.7055 16.4703 -4.76061
25.7055 -21.0029 -4.76061
-8.90072 16.4703 5.44237
-25.4541 -21.0029 6.05454
-7.89283 21.1029 12.9181
-25.6928 -21.0029 6.48245
12.9201 16.4703 -26.9306
2.80477 16.4703 -15.5431
-6.03158 16.4703 7.0428
3.22394 -21.0029 -16.2946
-1.92103 16.4703 9.33569
-6.43311 18.706 7.7626
-10.2205 16.4703 14.552
8.12035 16.4703 14.0154
-0.804694 -21.0029 -9.07207
17.0319 16.4703 -24.6371
-4.58108 16.4703 7.8519
17.0319 -21.0029 -24.6371
12.9201 -21.0029 -26.9306
-13.609 16.4703 3.75978
6.09391 16.4703 -14.6937
6.09391 -21.0029 -14.6937
-17.635 16.4703 10.9774
-21.2654 16.4703 -1.45473
-17.635 -21.0029 10.9774
3.53964 -21.0029 22.2275
21.2368 16.4703 3.22116
-12.1465 21.1029 10.5454
6.17628 -21.0029 -5.17857
-21.2654 -21.0029 -1.45473
-9.53731 16.4703 -13.9425
-9.53731 -21.0029 -13.9425
-10.3369 -21.0029 -12.509
-10.3369 16.4703 -12.509
-1.60455 -21.0029 -7.6381
3.22394 16.4703 -16.2946
9.78599 18.706 -11.6489
-1.60455 16.4703 -7.6381
10.6334 16.4703 -13.1678
20.6256 16.4703 -22.6325
20.6256 -21.0029 -22.6325
6.17628 16.4703 -5.17857
14.2278 -21.0029 -11.1629
10.6334 -21.0029 -13.1678
-19.658 16.4703 24.7279
-15.7091 16.4703 26.9307
-15.7091 -21.0029 26.9307
13.7997 -21.0029 -10.3955
14.2278 16.4703 -11.1629
-8.90072 -21.0029 5.44237
2.06508 16.4703 -7.47151
-23.965 -21.0029 22.3254
-23.965 16.4703 22.3254
8.12035 -21.0029 14.0154
-13.2075 -21.0029 3.04002
-17.3962 -21.0029 10.5493
-1.52903 -21.0029 8.63304
-17.3962 16.4703 10.5493
-9.14033 -21.0029 15.1545
-6.11023 -21.0029 16.8447
-6.11023 16.4703 16.8447
9.77128 -21.0029 -3.17353
9.77128 16.4703 -3.17353
4.21815 18.706 -14.7547
-5.50844 16.4703 -21.1654
9  111 74 97 117 132 76 141 142 139  255 0 0
4  111 144 130 54  255 0 0
4  124 133 81 80  255 0 0
4  124 145 144 111  255 0 0
7  124 53 93 99 77 91 133  255 0 0
4  111 139 53 124  255 0 0
5  65 133 91 85 120  255 0 0
7  65 113 147 118 90 47 56  255 0 0
4  97 114 115 117  255 0 0
4  97 74 104 92  255 0 0
4  65 120 116 113  255 0 0
6  124 80 45 50 61 145  255 0 0
4  111 54 104 74  255 0 0
5  65 56 13 81 133  255 0 0
4  97 92 63 114  255 0 0
5  54 126 100 101 104  255 0 0
4  50 121 131 61  255 0 0
4  50 45 44 103  255 0 0
4  54 130 125 126  255 0 0
5  78 127 135 105 140  255 0 0
4  78 75 52 95  255 0 0
4  76 132 137 138  255 0 0
4  76 66 129 141  255 0 0
5  78 140 37 11 75  255 0 0
5  76 138 107 134 66  255 0 0
6  85 36 32 28 102 67  255 0 0
4  132 117 120 85  255 0 0
4  132 85 67 137  255 0 0
6  143 20 93 53 96 79  255 0 0
4  142 108 136 139  255 0 0
4  142 143 79 108  255 0 0
4  92 118 147 63  255 0 0
4  113 114 63 147  255 0 0
5  61 55 109 30 145  255 0 0
4  130 72 84 125  255 0 0
4  61 131 83 55  255 0 0
4  139 136 96 53  255 0 0
4  108 79 96 136  255 0 0
4  145 30 2 144  255 0 0
5  144 2 70 72 130  255 0 0
5  143 73 19 17 20  255 0 0
5  78 95 73 128 127  255 0 0
4  143 142 141 73  255 0 0
4  73 95 52 19  255 0 0
4  141 129 128 73  255 0 0
8  140 46 106 1 67 102 34 37  255 0 0
4  138 86 88 107  255 0 0
4  140 105 48 46  255 0 0
4  67 1 0 137  255 0 0
5  137 0 112 86 138  255 0 0
4  134 107 105 135  255 0 0
4  134 135 127 66  255 0 0
5  103 44 42 90 118  255 0 0
5  103 89 98 121 50  255 0 0
4  104 101 89 103  255 0 0
4  118 92 104 103  255 0 0
4  125 123 100 126  255 0 0
4  131 122 123 125  255 0 0
4  125 84 83 131  255 0 0
4  66 127 128 129  255 0 0
4  121 98 122 131  255 0 0
4  100 123 122 98  255 0 0
4  117 115 116 120  255 0 0
4  116 115 114 113  255 0 0
4  112 0 1 106  255 0 0
4  86 112 106 46  255 0 0
4  70 2 30 109  255 0 0
4  72 70 109 55  255 0 0
4  107 88 48 105  255 0 0
4  101 100 98 89  255 0 0
5  93 20 17 8 99  255 0 0
4  91 21 36 85  255 0 0
4  91 77 14 21  255 0 0
4  83 84 72 55  255 0 0
4  81 82 60 71  255 0 0
4  71 60 57 69  255 0 0
5  51 58 119 45 80  255 0 0
4  51 80 81 71  255 0 0
4  49 52 75 25  255 0 0
4  77 99 8 14  255 0 0
4  68 59 39 87  255 0 0
4  24 6 59 68  255 0 0
4  68 49 25 24  255 0 0
4  94 40 5 35  255 0 0
4  40 94 7 38  255 0 0
4  6 24 110 3  255 0 0
4  40 59 6 5  255 0 0
4  64 62 58 51  255 0 0
4  69 57 62 64  255 0 0
4  64 51 71 69  255 0 0
4  43 60 41 146  255 0 0
4  119 58 60 43  255 0 0
4  58 62 57 60  255 0 0
4  56 47 12 13  255 0 0
4  81 13 12 82  255 0 0
4  87 39 22 23  255 0 0
4  87 18 49 68  255 0 0
4  18 19 52 49  255 0 0
4  88 86 46 48  255 0 0
4  90 42 12 47  255 0 0
4  44 43 146 42  255 0 0
4  60 82 12 41  255 0 0
4  44 45 119 43  255 0 0
4  12 42 146 41  255 0 0
4  38 39 59 40  255 0 0
4  38 7 9 15  255 0 0
4  35 5 10 31  255 0 0
5  37 34 29 33 11  255 0 0
4  75 11 4 25  255 0 0
4  102 28 29 34  255 0 0
4  36 35 31 32  255 0 0
4  31 27 28 32  255 0 0
4  10 26 27 31  255 0 0
4  33 29 26 10  255 0 0
4  29 28 27 26  255 0 0
4  25 4 110 24  255 0 0
4  18 87 23 16  255 0 0
4  16 23 22 15  255 0 0
4  38 15 22 39  255 0 0
4  35 36 21 94  255 0 0
4  19 18 16 17  255 0 0
5  17 16 15 9 8  255 0 0
4  21 14 7 94  255 0 0
4  11 33 10 4  255 0 0
4  14 8 9 7  255 0 0
4  10 5 6 3  255 0 0
4  4 10 3 110  255 0 0

