OFF
158 177 0

-10.8378 16.4703 8.19922
-10.4413 16.4703 8.20432
-11.9119 16.4703 7.6001
-10.6808 16.4703 5.39316
-12.1465 16.4703 10.5454
-11.8419 16.4703 10.7153
-16.1488 16.4703 8.31291
-13.609 16.4703 3.75978
-14.8401 16.4703 5.96678
-13.2075 16.4703 3.04002
-13.2075 -21.0029 3.04002
-17.3962 -21.0029 10.5493
-17.635 -21.0029 10.9774
13.7997 16.4703 -10.3955
14.2278 16.4703 -11.1629
9.77128 16.4703 -3.17353
9.77128 -21.0029 -3.17353
13.7997 -21.0029 -10.3955
14.2278 -21.0029 -11.1629
6.09391 16.4703 -14.6937
6.09391 -21.0029 -14.6937
7.17316 16.4703 -14.0917
7.17316 -21.0029 -14.0917
-4.95164 16.4703 7.6452
3.14459 16.4703 -6.86943
4.17959 16.4703 -8.72493
4.21815 16.4703 -14.7547
5.67469 16.4703 -13.9422
-9.30222 16.4703 6.16217
-1.60455 16.4703 -7.6381
-0.804694 16.4703 -9.07207
-1.60455 -21.0029 -7.6381
-0.804694 -21.0029 -9.07207
3.22394 -21.0029 -16.2946
-8.90072 -21.0029 5.44237
-8.90072 16.4703 5.44237
-13.0894 16.4703 12.9517
-19.658 16.4703 24.7279
-19.658 -21.0029 24.7279
-13.0894 -21.0029 12.9517
10.6334 16.4703 -13.1678
17.0319 16.4703 -24.6371
10.2053 16.4703 -12.4004
9.78599 16.4703 -11.6489
7.21132 16.4703 -7.03384
6.17628 16.4703 -5.17857
6.17628 -21.0029 -5.17857
10.2053 -21.0029 -12.4004
10.6334 -21.0029 -13.1678
17.0319 -21.0029 -24.6371
-1.52903 16.4703 8.63304
-1.52903 -21.0029 8.63304
-1.92103 16.4703 9.33569
-4.86257 16.4703 14.6083
-6.11023 16.4703 16.8447
-6.11023 -21.0029 16.8447
-17.633 -21.0029 0.571418
-17.633 16.4703 0.571418
15.825 16.4703 0.202827
15.825 -21.0029 0.202827
-12.1465 21.1029 10.5454
-10.8378 21.1029 8.19922
-10.8378 18.706 8.19922
-12.1465 18.706 10.5454
-10.5332 18.706 8.3691
-10.5332 21.1029 8.3691
-5.35315 18.706 8.36501
-4.98259 18.706 8.57172
-4.98259 16.4703 8.57172
-5.35315 16.4703 8.36501
1.64377 16.4703 -10.1394
3.02182 16.4703 -12.6099
-6.43311 18.706 7.7626
-6.43311 16.4703 7.7626
-6.21357 18.706 10.7786
-7.52228 18.706 13.1247
-7.52228 16.4703 13.1247
-4.58108 16.4703 7.8519
-7.89283 18.706 12.9181
-7.89283 16.4703 12.9181
-9.30222 18.706 6.16217
-6.21357 21.1029 10.7786
-6.58413 21.1029 10.5719
-6.58413 18.706 10.5719
-7.52228 21.1029 13.1247
-7.89283 21.1029 12.9181
-10.6808 18.706 5.39316
-11.9119 18.706 7.6001
-9.60676 18.706 5.99229
-9.60676 16.4703 5.99229
-11.8419 18.706 10.7153
-7.66417 21.1029 9.96943
-7.66417 18.706 9.96943
3.02182 18.706 -12.6099
4.21815 18.706 -14.7547
0.230404 16.4703 -10.9278
3.10016 16.4703 -9.32703
3.10016 21.1029 -9.32703
7.21132 21.1029 -7.03384
-11.8419 21.1029 10.7153
-8.97294 18.706 12.3156
-8.97294 21.1029 12.3156
-9.14033 16.4703 15.1545
-8.97294 16.4703 12.3156
3.10016 18.706 -9.32703
7.21132 18.706 -7.03384
25.2763 16.4703 -3.99392
25.2763 -21.0029 -3.99392
25.7055 -21.0029 -4.76061
25.7055 16.4703 -4.76061
-6.03158 16.4703 7.0428
-10.2205 16.4703 14.552
2.06508 16.4703 -7.47151
12.9201 16.4703 -26.9306
12.9201 -21.0029 -26.9306
-17.635 16.4703 10.9774
21.2368 16.4703 3.22116
21.2368 -21.0029 3.22116
-21.2654 -21.0029 -1.45473
-10.3369 -21.0029 -12.509
-9.53731 -21.0029 -13.9425
-10.3369 16.4703 -12.509
-15.7091 16.4703 26.9307
-15.7091 -21.0029 26.9307
-17.3962 16.4703 10.5493
3.22394 16.4703 -16.2946
-23.965 16.4703 22.3254
-23.965 -21.0029 22.3254
5.19583 16.4703 -10.5468
6.75396 16.4703 -13.3402
13.999 16.4703 -26.3288
13.999 -21.0029 -26.3288
3.14459 -21.0029 -6.86943
-9.14033 -21.0029 15.1545
2.06508 -21.0029 -7.47151
5.67469 18.706 -13.9422
9.78599 18.706 -11.6489
3.53964 16.4703 22.2275
8.12035 16.4703 14.0154
8.12035 -21.0029 14.0154
3.53964 -21.0029 22.2275
4.47828 16.4703 -11.7975
4.47828 18.706 -11.7975
1.60844 16.4703 -13.3983
2.80477 16.4703 -15.5431
-25.4541 -21.0029 6.05454
-25.4541 16.4703 6.05454
-25.6928 16.4703 6.48245
-25.6928 -21.0029 6.48245
-5.50844 16.4703 -21.1654
-5.50844 -21.0029 -21.1654
-9.53731 16.4703 -13.9425
-21.2654 16.4703 -1.45473
8.5895 18.706 -9.50421
4.47828 21.1029 -11.7975
20.6256 16.4703 -22.6325
20.6256 -21.0029 -22.6325
8.5895 21.1029 -9.50421
5  46 132 133 55 51  255 0 0
4  46 16 17 47  255 139 0
4  45 24 25 44  255 0 0
4  45 15 16 46  255 139 0
6  45 50 52 77 23 24  255 0 0
4  46 51 50 45  255 0 0
5  30 112 110 35 29  231 255 0
7  30 151 149 125 144 143 95  92 255 0
4  32 120 119 31  92 255 0
4  32 134 20 33  231 255 0
4  30 29 121 151  92 255 0
7  32 31 34 39 133 132 134  231 255 0
6  45 44 43 42 13 15  255 139 0
4  46 47 22 132  255 0 0
5  30 95 70 96 112  231 255 0
4  32 33 150 120  92 255 0
5  47 48 49 131 22  255 0 0
4  42 40 14 13  255 139 0
4  42 43 129 21  255 0 0
4  47 17 18 48  255 139 0
5  36 37 126 115 124  0 255 46
4  36 5 103 111  231 255 0
4  39 34 10 11  0 255 46
4  39 38 123 133  231 255 0
5  36 124 6 4 5  0 255 46
5  39 11 12 127 38  0 255 46
6  35 28 89 3 7 9  0 255 46
4  34 31 29 35  231 255 0
4  34 35 9 10  0 255 46
6  54 53 52 50 138 137  0 255 185
4  55 140 139 51  0 255 185
4  55 54 137 140  0 255 185
4  33 125 149 150  92 255 0
4  151 120 150 149  92 255 0
5  13 106 116 58 15  0 185 255
4  17 107 108 18  0 185 255
4  13 14 109 106  0 185 255
4  51 139 138 50  0 255 185
4  140 137 138 139  0 255 185
4  112 24 23 110  231 255 0
4  134 132 22 20  231 255 0
4  112 96 25 24  231 255 0
4  15 58 59 16  0 185 255
5  16 59 117 107 17  0 185 255
5  54 102 79 76 53  255 0 0
5  36 111 102 122 37  231 255 0
4  54 55 133 102  255 0 0
4  102 111 103 79  231 255 0
4  133 123 122 102  231 255 0
8  124 146 152 57 9 7 8 6  0 46 255
4  11 145 148 12  0 46 255
4  124 115 147 146  0 46 255
4  9 57 56 10  0 46 255
5  10 56 118 145 11  0 46 255
4  127 12 115 126  0 255 46
4  127 126 37 38  0 255 46
5  19 27 26 144 125  231 255 0
4  19 113 130 21  92 0 255
4  20 114 113 19  92 0 255
4  125 33 20 19  231 255 0
4  18 156 49 48  255 139 0
4  14 155 156 18  255 139 0
4  18 108 109 14  0 185 255
4  38 37 122 123  231 255 0
4  40 41 155 14  255 139 0
5  40 42 21 130 41  255 0 0
4  49 156 155 41  255 139 0
4  31 119 121 29  92 255 0
4  121 119 120 151  92 255 0
4  118 56 57 152  0 46 255
4  145 118 152 146  0 46 255
4  117 59 58 116  0 185 255
4  107 117 116 106  0 185 255
4  12 148 147 115  0 46 255
4  20 22 131 114  92 0 255
4  19 21 129 27  231 255 0
4  114 131 130 113  92 0 255
4  49 41 130 131  255 0 0
5  52 53 76 68 77  255 0 0
4  110 73 28 35  231 255 0
4  110 23 69 73  231 255 0
4  109 108 107 106  0 185 255
4  96 141 142 104  231 0 255
4  104 142 154 97  231 0 255
5  105 153 136 43 44  231 0 255
5  105 44 25 96 104  231 0 255
4  100 103 5 90  255 0 139
4  23 77 68 69  255 0 0
4  101 91 82 85  255 0 139
4  99 65 91 101  255 0 139
4  101 100 90 99  255 0 139
4  72 92 64 80  255 0 139
4  92 72 66 83  255 0 139
4  65 99 60 61  255 0 139
4  92 91 65 64  255 0 139
4  98 157 153 105  231 0 255
4  97 154 157 98  231 0 255
4  98 105 104 97  231 0 255
4  135 142 93 94  231 0 255
4  136 153 142 135  231 0 255
4  153 157 154 142  231 0 255
4  95 143 71 70  231 255 0
4  96 70 71 141  231 255 0
4  85 82 81 84  255 0 139
4  85 78 100 101  255 0 139
4  78 79 103 100  255 0 139
4  148 145 146 147  0 46 255
4  144 26 71 143  231 255 0
4  27 135 94 26  231 0 255
4  142 141 71 93  231 0 255
5  27 129 43 136 135  231 0 255
4  71 26 94 93  231 0 255
4  83 82 91 92  255 0 139
4  83 66 67 74  255 0 139
4  80 64 62 88  255 0 139
5  6 8 2 0 4  0 255 46
4  5 4 63 90  255 0 139
4  7 3 2 8  0 255 46
4  28 80 88 89  255 0 139
4  88 86 3 89  255 0 139
4  62 87 86 88  255 0 139
4  0 2 87 62  255 0 139
4  2 3 86 87  255 0 139
4  90 63 60 99  255 0 139
4  78 85 84 75  255 0 139
4  75 84 81 74  255 0 139
4  83 74 81 82  255 0 139
4  80 28 73 72  255 0 139
4  79 78 75 76  255 0 139
5  76 75 74 67 68  255 0 139
4  73 69 66 72  255 0 139
4  4 0 62 63  255 0 139
4  69 68 67 66  255 0 139
4  62 64 65 61  255 0 139
4  63 62 61 60  255 0 139
6  55 51 50 52 53 54  0 255 185
6  51 55 54 53 52 50  255 0 0
10  49 41 40 42 43 44 45 46 47 48  255 139 0
10  41 49 48 47 46 45 44 43 42 40  255 0 0
6  39 34 5 36 37 38  231 255 0
6  34 39 38 37 36 5  0 255 46
3  35 28 34  231 255 0
3  28 35 34  0 255 46
3  5 34 1  231 255 0
3  34 5 1  0 255 46
3  34 1 28  0 255 46
3  34 28 1  231 255 0
9  32 33 125 144 143 95 30 29 31  231 255 0
9  33 32 31 29 30 95 143 144 125  92 255 0
7  73 28 1 5 103 79 69  255 0 139
7  28 73 69 79 103 5 1  231 255 0
4  68 69 79 76  255 0 139
4  69 68 76 79  255 0 0
5  27 26 141 128 129  231 0 255
5  26 27 129 128 141  231 255 0
4  43 129 128 44  231 0 255
4  43 44 128 129  255 0 0
4  96 25 128 141  231 0 255
3  44 25 128  255 0 0
4  96 141 128 25  231 255 0
3  71 141 26  231 0 255
3  141 71 26  231 255 0
3  44 128 25  231 0 255
12  133 102 79 69 23 24 25 128 129 21 22 132  231 255 0
12  102 133 132 22 21 129 128 25 24 23 69 79  255 0 0
4  131 22 21 130  92 0 255
4  22 131 130 21  255 0 0
4  22 20 19 21  92 0 255
4  20 22 21 19  231 255 0
6  18 14 13 15 16 17  0 185 255
6  14 18 17 16 15 13  255 139 0
9  11 12 115 124 6 8 7 9 10  0 46 255
9  12 11 10 9 7 8 6 124 115  0 255 46
6  89 3 2 0 1 28  255 0 139
6  3 89 28 1 0 2  0 255 46
4  5 1 0 4  255 0 139
4  1 5 4 0  0 255 46

