OFF
163 193 0

-10.5332 16.4703 8.3691
-6.58413 16.4703 10.5719
-6.21357 18.706 10.7786
-6.21357 16.4703 10.7786
4.47828 18.706 -11.7975
8.5895 18.706 -9.50421
4.47828 16.4703 -11.7975
5.55762 16.4703 -11.1954
8.5895 16.4703 -9.50421
-10.8378 16.4703 8.19922
-10.4413 16.4703 8.20432
-11.9119 16.4703 7.6001
-10.6808 16.4703 5.39316
-12.1465 16.4703 10.5454
-11.8419 16.4703 10.7153
-17.635 16.4703 10.9774
-17.635 -21.0029 10.9774
-9.30222 16.4703 6.16217
25.2763 16.4703 -3.99392
-9.60676 16.4703 5.99229
21.2368 16.4703 3.22116
21.2368 -21.0029 3.22116
6.75396 16.4703 -13.3402
-5.35315 16.4703 8.36501
-7.89283 16.4703 12.9181
13.999 16.4703 -26.3288
13.999 -21.0029 -26.3288
7.17316 16.4703 -14.0917
7.17316 -21.0029 -14.0917
3.14459 -21.0029 -6.86943
-4.95164 16.4703 7.6452
6.09391 16.4703 -14.6937
3.14459 16.4703 -6.86943
6.09391 -21.0029 -14.6937
4.17959 16.4703 -8.72493
3.22394 -21.0029 -16.2946
3.22394 16.4703 -16.2946
-9.14033 -21.0029 15.1545
2.06508 -21.0029 -7.47151
-6.43311 16.4703 7.7626
2.06508 16.4703 -7.47151
3.53964 16.4703 22.2275
17.0319 16.4703 -24.6371
-6.11023 16.4703 16.8447
10.2053 16.4703 -12.4004
-6.11023 -21.0029 16.8447
10.6334 16.4703 -13.1678
9.78599 16.4703 -11.6489
7.21132 16.4703 -7.03384
-17.633 -21.0029 0.571418
-0.804694 -21.0029 -9.07207
-17.633 16.4703 0.571418
-0.804694 16.4703 -9.07207
15.825 16.4703 0.202827
15.825 -21.0029 0.202827
-5.35315 18.706 8.36501
-4.98259 18.706 8.57172
-4.98259 16.4703 8.57172
-12.1465 18.706 10.5454
-10.8378 18.706 8.19922
1.64377 16.4703 -10.1394
3.02182 16.4703 -12.6099
-6.43311 18.706 7.7626
-7.52228 18.706 13.1247
-7.52228 16.4703 13.1247
-4.58108 16.4703 7.8519
-7.89283 18.706 12.9181
-4.86257 16.4703 14.6083
-9.30222 18.706 6.16217
-6.58413 18.706 10.5719
-6.21357 21.1029 10.7786
-6.58413 21.1029 10.5719
-7.66417 18.706 9.96943
-10.5332 18.706 8.3691
-7.52228 21.1029 13.1247
-7.89283 21.1029 12.9181
-11.8419 21.1029 10.7153
-11.8419 18.706 10.7153
-11.9119 18.706 7.6001
-10.6808 18.706 5.39316
-9.60676 18.706 5.99229
-14.8401 16.4703 5.96678
-13.609 16.4703 3.75978
-16.1488 16.4703 8.31291
-7.66417 21.1029 9.96943
3.02182 18.706 -12.6099
4.21815 18.706 -14.7547
4.21815 16.4703 -14.7547
5.67469 18.706 -13.9422
9.78599 18.706 -11.6489
5.67469 16.4703 -13.9422
3.10016 21.1029 -9.32703
3.10016 18.706 -9.32703
7.21132 18.706 -7.03384
7.21132 21.1029 -7.03384
25.2763 -21.0029 -3.99392
25.7055 -21.0029 -4.76061
25.7055 16.4703 -4.76061
-17.3962 16.4703 10.5493
-21.2654 -21.0029 -1.45473
-21.2654 16.4703 -1.45473
-25.4541 16.4703 6.05454
-25.4541 -21.0029 6.05454
-13.2075 16.4703 3.04002
-13.2075 -21.0029 3.04002
-17.3962 -21.0029 10.5493
-9.53731 16.4703 -13.9425
13.7997 16.4703 -10.3955
-9.53731 -21.0029 -13.9425
14.2278 16.4703 -11.1629
-10.3369 -21.0029 -12.509
9.77128 16.4703 -3.17353
-10.3369 16.4703 -12.509
9.77128 -21.0029 -3.17353
13.7997 -21.0029 -10.3955
14.2278 -21.0029 -11.1629
-1.60455 16.4703 -7.6381
-1.60455 -21.0029 -7.6381
-15.7091 -21.0029 26.9307
5.19583 16.4703 -10.5468
-19.658 -21.0029 24.7279
-15.7091 16.4703 26.9307
-19.658 16.4703 24.7279
1.60844 16.4703 -13.3983
-23.965 16.4703 22.3254
-23.965 -21.0029 22.3254
2.80477 16.4703 -15.5431
-25.6928 16.4703 6.48245
-25.6928 -21.0029 6.48245
-8.97294 18.706 12.3156
-8.97294 16.4703 12.3156
-8.97294 21.1029 12.3156
-9.14033 16.4703 15.1545
3.10016 16.4703 -9.32703
0.230404 16.4703 -10.9278
8.5895 21.1029 -9.50421
4.47828 21.1029 -11.7975
-13.0894 16.4703 12.9517
-13.0894 -21.0029 12.9517
-10.5332 21.1029 8.3691
3.53964 -21.0029 22.2275
8.12035 16.4703 14.0154
8.12035 -21.0029 14.0154
-1.52903 16.4703 8.63304
-1.52903 -21.0029 8.63304
-8.90072 -21.0029 5.44237
-5.50844 16.4703 -21.1654
-5.50844 -21.0029 -21.1654
-8.90072 16.4703 5.44237
6.17628 16.4703 -5.17857
-6.03158 16.4703 7.0428
10.2053 -21.0029 -12.4004
6.17628 -21.0029 -5.17857
10.6334 -21.0029 -13.1678
20.6256 16.4703 -22.6325
-1.92103 16.4703 9.33569
20.6256 -21.0029 -22.6325
17.0319 -21.0029 -24.6371
-10.2205 16.4703 14.552
12.9201 16.4703 -26.9306
12.9201 -21.0029 -26.9306
-12.1465 21.1029 10.5454
-10.8378 21.1029 8.19922
5  152 29 37 45 144  255 0 0
4  152 113 114 151  255 117 0
4  149 32 34 48  255 0 0
4  149 111 113 152  255 117 0
6  149 143 155 65 30 32  255 0 0
4  152 144 143 149  255 0 0
5  52 40 150 148 116  255 235 0
7  52 106 146 36 126 123 134  156 255 0
4  50 108 110 117  156 255 0
4  50 38 33 35  255 235 0
4  52 116 112 106  156 255 0
7  50 117 145 138 37 29 38  255 235 0
7  149 48 8 47 44 107 111  255 117 0
4  152 151 28 29  255 0 0
5  52 134 60 133 40  255 235 0
4  50 35 147 108  156 255 0
5  151 153 157 26 28  255 0 0
4  44 46 109 107  255 117 0
4  44 47 22 27  255 0 0
4  151 114 115 153  255 117 0
5  137 122 124 15 98  39 255 0
4  137 14 130 158  255 235 0
4  138 145 104 105  39 255 0
4  138 120 118 37  255 235 0
5  137 98 83 13 14  39 255 0
5  138 105 16 125 120  39 255 0
6  148 17 19 12 82 103  39 255 0
4  145 117 116 148  255 235 0
4  145 148 103 104  39 255 0
6  43 67 155 143 141 41  0 255 78
4  45 140 142 144  0 255 78
4  45 43 41 140  0 255 78
4  35 36 146 147  156 255 0
4  106 108 147 146  156 255 0
5  107 18 20 53 111  0 255 196
4  114 95 96 115  0 255 196
4  107 109 97 18  0 255 196
4  144 142 141 143  0 255 78
4  140 41 141 142  0 255 78
4  40 32 30 150  255 235 0
4  38 29 28 33  255 235 0
4  40 133 34 32  255 235 0
4  111 53 54 113  0 255 196
5  113 54 21 95 114  0 255 196
5  43 132 24 64 67  255 0 0
5  137 158 132 121 122  255 235 0
4  43 45 37 132  255 0 0
4  132 158 130 24  255 235 0
4  37 118 121 132  255 235 0
8  98 101 100 51 103 82 81 83  0 196 255
4  105 102 128 16  0 196 255
4  98 15 127 101  0 196 255
4  103 51 49 104  0 196 255
5  104 49 99 102 105  0 196 255
4  125 16 15 124  39 255 0
4  125 124 122 120  39 255 0
5  31 90 87 126 36  255 235 0
4  31 159 25 27  0 78 255
4  33 160 159 31  0 78 255
4  36 35 33 31  255 235 0
4  115 156 157 153  255 117 0
4  109 154 156 115  255 117 0
4  115 96 97 109  0 255 196
4  120 122 121 118  255 235 0
4  46 42 154 109  255 117 0
5  46 44 27 25 42  255 0 0
4  157 156 154 42  255 117 0
4  117 110 112 116  156 255 0
4  112 110 108 106  156 255 0
4  99 49 51 100  0 196 255
4  102 99 100 101  0 196 255
4  21 54 53 20  0 255 196
4  95 21 20 18  0 255 196
4  16 128 127 15  0 196 255
4  33 28 26 160  0 78 255
4  31 27 22 90  255 235 0
4  160 26 25 159  0 78 255
4  157 42 25 26  255 0 0
6  155 67 64 3 57 65  255 0 0
4  150 39 17 148  255 235 0
4  150 30 23 39  255 235 0
4  97 96 95 18  0 255 196
4  133 6 4 92  39 0 255
4  92 4 136 91  39 0 255
4  93 5 8 48  39 0 255
5  93 48 34 133 92  39 0 255
4  129 130 14 77  156 0 255
4  30 65 57 23  255 0 0
4  131 84 71 75  156 0 255
4  76 139 84 131  156 0 255
4  131 129 77 76  156 0 255
4  62 72 73 68  255 0 117
4  72 62 55 69  255 0 117
4  139 76 161 162  156 0 255
4  72 84 139 73  156 0 255
4  94 135 5 93  39 0 255
4  91 136 135 94  39 0 255
4  94 93 92 91  39 0 255
4  88 4 85 86  255 0 235
4  89 5 4 88  255 0 235
4  5 89 47 8  255 0 235
4  5 135 136 4  39 0 255
4  134 123 61 60  255 235 0
4  133 60 61 6  255 235 0
4  75 71 70 74  156 0 255
4  75 66 129 131  156 0 255
4  66 24 130 129  156 0 255
4  128 102 101 127  0 196 255
4  126 87 61 123  255 235 0
4  90 88 86 87  255 0 235
4  4 6 61 85  255 0 235
5  90 22 47 89 88  255 0 235
4  61 87 86 85  255 0 235
4  69 71 84 72  156 0 255
4  69 55 56 2  255 0 117
4  68 73 59 80  255 0 117
5  83 81 11 9 13  39 255 0
4  14 13 58 77  156 0 255
4  82 12 11 81  39 255 0
4  17 68 80 19  255 0 117
4  80 79 12 19  255 0 117
4  59 78 79 80  255 0 117
4  9 11 78 59  255 0 117
4  11 12 79 78  255 0 117
4  77 58 161 76  156 0 255
4  66 75 74 63  156 0 255
4  63 74 70 2  156 0 255
4  69 2 70 71  156 0 255
4  68 17 39 62  255 0 117
4  24 66 63 64  156 0 255
4  64 63 2 3  156 0 255
4  2 56 57 3  255 0 117
4  39 23 55 62  255 0 117
4  13 9 59 58  156 0 255
4  23 57 56 55  255 0 117
4  59 73 139 162  156 0 255
4  58 59 162 161  156 0 255
6  45 144 143 155 67 43  0 255 78
6  144 45 43 67 155 143  255 0 0
11  157 42 46 44 47 8 48 149 152 151 153  255 117 0
11  42 157 153 151 152 149 48 8 47 44 46  255 0 0
6  138 145 14 137 122 120  255 235 0
6  145 138 120 122 137 14  39 255 0
3  148 17 145  255 235 0
3  17 148 145  39 255 0
4  14 145 10 0  255 235 0
4  145 14 0 10  39 255 0
3  145 10 17  39 255 0
3  145 17 10  255 235 0
9  50 35 36 126 123 134 52 116 117  255 235 0
9  35 50 117 116 52 134 123 126 36  156 255 0
6  39 17 10 0 1 23  255 0 117
6  17 39 23 1 0 10  255 235 0
4  57 23 1 3  255 0 117
4  23 57 3 1  255 0 0
4  64 3 1 24  156 0 255
4  64 24 1 3  255 0 0
5  130 24 1 0 14  156 0 255
5  24 130 14 0 1  255 235 0
5  90 87 6 7 22  255 0 235
5  87 90 22 7 6  255 235 0
4  47 22 7 8  255 0 235
4  48 8 7 119  39 0 255
4  47 8 7 22  255 0 0
4  133 34 119 6  39 0 255
3  48 34 119  255 0 0
4  133 6 119 34  255 235 0
3  61 6 87  255 0 235
3  6 61 87  255 235 0
3  6 119 7  39 0 255
3  48 119 34  39 0 255
4  48 119 7 8  255 0 0
3  119 6 7  255 235 0
14  37 132 24 1 23 30 32 34 119 7 22 27 28 29  255 235 0
14  132 37 29 28 27 22 7 119 34 32 30 23 1 24  255 0 0
4  26 28 27 25  0 78 255
4  28 26 25 27  255 0 0
4  28 33 31 27  0 78 255
4  33 28 27 31  255 235 0
6  115 109 107 111 113 114  0 255 196
6  109 115 114 113 111 107  255 117 0
9  105 16 15 98 83 81 82 103 104  0 196 255
9  16 105 104 103 82 81 83 98 15  39 255 0
6  19 12 11 9 10 17  255 0 117
6  12 19 17 10 9 11  39 255 0
4  14 0 9 13  156 0 255
3  10 0 9  39 255 0
4  14 13 9 0  39 255 0
3  10 9 0  255 0 117
5  8 5 4 6 7  39 0 255
5  5 8 7 6 4  255 0 235
9  1 3 2 69 72 73 59 9 0  156 0 255
9  3 1 0 9 59 73 72 69 2  255 0 117

