COFF
1030 1215 0

-6.21361 21.0029 10.7786
-7.52226 21.0029 13.1248
-9.8344 21.0029 11.8351
-12.1465 21.0029 10.5454
-10.8378 21.0029 8.19922
-8.52571 21.0029 9.48892
-4.98259 18.7996 8.57172
-6.21361 18.7996 10.7786
-8.52571 18.7996 9.48892
-10.8378 18.7996 8.19922
-11.9119 18.7996 7.6001
-10.6808 18.7996 5.39316
-7.83171 18.7996 6.98242
5.17894 20.7893 -8.16751
6.55699 20.7893 -10.638
4.28975 20.7893 -11.9026
8.8242 20.7893 -9.37329
8.13521 20.7893 -8.13806
7.44618 20.7893 -6.90283
2.9117 20.7893 -9.43216
3.60069 20.7893 -10.6674
10.0206 18.706 -11.518
8.8242 18.706 -9.37329
6.55699 18.706 -10.638
4.28975 18.706 -11.9026
3.0218 18.706 -12.6099
4.21815 18.706 -14.7547
7.11937 18.706 -13.1364
19.0214 16.4703 -2.30948
14.6348 16.4703 -4.75641
14.91 16.4703 -15.5609
17.241 16.4703 -19.7397
10.5233 16.4703 -18.0079
12.8543 16.4703 -22.1867
-17.173 16.4703 21.3333
-16.8978 16.4703 10.5287
-14.5668 16.4703 6.34995
-21.2845 16.4703 8.08185
-18.9535 16.4703 3.90302
16.2359 16.4703 -25.0811
18.4308 16.4703 -23.8568
20.6256 16.4703 -22.6325
19.3576 16.4703 -20.3593
18.0896 16.4703 -18.0862
16.8216 16.4703 -15.813
15.5247 16.4703 -13.4879
14.2279 16.4703 -11.1629
16.8511 16.4703 -9.69965
19.4743 16.4703 -8.23642
22.0975 16.4703 -6.77313
23.8952 16.4703 -5.77036
25.6929 16.4703 -4.76764
24.2153 16.4703 -2.11865
22.7378 16.4703 0.530365
21.2602 16.4703 3.17935
21.2368 16.4703 3.22116
17.8559 16.4703 -0.220062
21.2148 16.4703 -1.08603
20.0493 16.4703 1.00336
19.4666 16.4703 2.04807
21.146 16.4703 1.61508
20.5632 16.4703 2.65982
21.1116 16.4703 2.96567
20.8546 16.4703 2.13748
21.6943 16.4703 1.92096
21.4029 16.4703 2.44333
20.632 16.4703 -0.0413208
22.3114 16.4703 -0.474304
21.7287 16.4703 0.570374
20.1869 16.4703 -4.3989
22.3803 16.4703 -3.17545
21.0387 16.4703 3.09625
21.2487 16.4703 3.04211
20.8374 16.4703 2.81274
20.0149 16.4703 2.35394
17.2732 16.4703 0.824615
18.9526 16.4703 0.391632
13.4693 16.4703 -2.66699
16.8281 16.4703 -3.53296
15.6626 16.4703 -1.44354
21.2572 16.4703 2.7045
21.176 16.4703 3.18726
18.3439 16.4703 1.60754
15.5119 16.4703 0.0278015
12.6799 16.4703 -1.55194
9.84779 16.4703 -3.13171
7.01576 16.4703 -4.71146
6.17677 16.4703 -5.17944
5.70045 16.4703 -4.32565
3.8933 16.4703 -1.08585
2.08617 16.4703 2.15396
0.279007 16.4703 5.39377
-1.52815 16.4703 8.63354
0.682144 16.4703 9.86646
2.89247 16.4703 11.0993
5.50639 16.4703 12.5574
8.12035 16.4703 14.0154
6.59346 16.4703 16.7528
5.06654 16.4703 19.4902
3.53966 16.4703 22.2275
1.4109 16.4703 21.0401
-0.71785 16.4703 19.8527
-3.34303 16.4703 18.3883
-5.96825 16.4703 16.9239
-9.14034 16.4703 15.1545
-10.7825 16.4703 18.0985
-12.4247 16.4703 21.0425
-14.0668 16.4703 23.9866
-15.709 16.4703 26.9306
-18.068 16.4703 25.6148
-20.4269 16.4703 24.299
-22.7859 16.4703 22.9831
-23.965 16.4703 22.3254
-19.3663 16.4703 20.1098
-18.3385 16.4703 23.4227
-20.5318 16.4703 22.1992
-22.4319 16.4703 19.577
-20.8329 16.4703 16.7104
-19.234 16.4703 13.8439
-17.635 16.4703 10.9774
-18.8845 16.4703 10.2803
-21.1539 16.4703 9.01443
-23.4234 16.4703 7.74857
-25.6929 16.4703 6.48267
-19.0911 16.4703 9.3053
-24.2171 16.4703 3.83685
-22.7412 16.4703 1.19107
-21.2654 16.4703 -1.45474
-18.7086 16.4703 -0.0285339
-16.1518 16.4703 1.39764
-13.595 16.4703 2.82388
-11.2479 16.4703 4.13312
-8.90071 16.4703 5.44235
-7.07668 16.4703 2.17221
-5.25264 16.4703 -1.0979
-3.42857 16.4703 -4.36798
-1.60454 16.4703 -7.63812
-3.25444 16.4703 -8.55844
-4.90434 16.4703 -9.4787
-7.62059 16.4703 -10.9939
-10.3369 16.4703 -12.509
-8.7274 16.4703 -15.3945
-7.11794 16.4703 -18.2799
-5.50844 16.4703 -21.1654
-2.28929 16.4703 -19.3698
0.929825 16.4703 -17.5742
4.14894 16.4703 -15.7786
6.09425 16.4703 -14.6935
6.72014 16.4703 -15.8157
8.16954 16.4703 -18.4141
9.61891 16.4703 -21.0124
11.0683 16.4703 -23.6107
12.5176 16.4703 -26.2091
12.9201 16.4703 -26.9306
14.578 16.4703 -26.0059
-10.6808 16.4703 5.39316
-11.9119 16.4703 7.6001
-10.8378 16.4703 8.19922
-12.1465 16.4703 10.5454
-9.8344 16.4703 11.8351
-7.52226 16.4703 13.1248
-6.21361 16.4703 10.7786
-4.98259 16.4703 8.57172
-7.83171 16.4703 6.98242
4.21815 16.4703 -14.7547
3.0218 16.4703 -12.6099
4.28975 16.4703 -11.9026
2.9117 16.4703 -9.43216
5.17894 16.4703 -8.16751
7.44618 16.4703 -6.90283
8.8242 16.4703 -9.37329
10.0206 16.4703 -11.518
7.11937 16.4703 -13.1364
0.648941 16.4703 20.3164
-8.12437 16.4703 15.4226
-5.79344 16.4703 11.2438
-1.13152 16.4703 2.8862
10.2481 16.4703 -7.20331
1.19948 16.4703 -1.29263
-5.51817 16.4703 0.43927
3.53041 16.4703 -5.47144
21.3524 16.4703 -6.48831
12.579 16.4703 -11.3821
10.4032 16.4703 -12.5959
-14.8421 16.4703 17.1545
-21.5597 16.4703 18.8864
-12.5111 16.4703 12.9756
-0.856247 16.4703 -7.91837
1.47469 16.4703 -12.0972
19.0608 -21.0029 -3.853
14.0474 -21.0029 -6.64948
9.03404 -21.0029 -9.44598
13.363 -21.0029 -17.2066
-13.2951 -21.0029 18.8001
-8.96611 -21.0029 11.0395
-4.63716 -21.0029 3.27884
-0.308243 -21.0029 -4.48181
4.02071 -21.0029 -12.2425
-18.3084 -21.0029 16.0036
-13.9795 -21.0029 8.24301
16.8216 -21.0029 -15.813
14.2279 -21.0029 -11.1629
18.1627 -21.0029 -8.96802
22.0975 -21.0029 -6.77313
25.6929 -21.0029 -4.76764
23.4765 -21.0029 -0.794128
21.2602 -21.0029 3.17935
21.2368 -21.0029 3.22116
21.5675 -21.0029 -2.45477
19.403 -21.0029 1.42557
20.6563 -21.0029 2.12466
21.283 -21.0029 2.47424
20.4852 -21.0029 -0.514618
22.8208 -21.0029 -1.75565
21.7385 -21.0029 0.184509
21.0124 -21.0029 2.95929
21.1974 -21.0029 1.1546
22.3652 -21.0029 0.534088
21.8241 -21.0029 1.50418
21.1691 -21.0029 3.04666
20.3858 -21.0029 2.60974
20.9697 -21.0029 2.29947
20.6991 -21.0029 2.78452
20.0296 -21.0029 1.77512
16.5541 -21.0029 -5.25125
14.3896 -21.0029 -1.37094
21.1477 -21.0029 2.71674
21.4397 -21.0029 2.56165
21.3044 -21.0029 2.80414
21.5535 -21.0029 1.9892
21.176 -21.0029 3.18726
16.4559 -21.0029 0.554352
11.7358 -21.0029 -2.07852
7.01576 -21.0029 -4.71146
6.17677 -21.0029 -5.17944
6.86961 -21.0029 -5.56564
11.5407 -21.0029 -8.04773
9.37627 -21.0029 -4.16742
8.12291 -21.0029 -4.86652
1.85622 -21.0029 -8.36212
6.52736 -21.0029 -10.8442
2.19844 -21.0029 -3.08356
4.3629 -21.0029 -6.9639
3.28069 -21.0029 -5.02371
5.61626 -21.0029 -6.26477
3.45177 -21.0029 -2.38446
4.53401 -21.0029 -4.32462
-2.4727 -21.0029 -0.601471
-2.13048 -21.0029 4.67706
0.0339508 -21.0029 0.796753
5.70045 -21.0029 -4.32565
3.29091 -21.0029 -0.00592041
0.881393 -21.0029 4.31381
-1.52815 -21.0029 8.63354
2.89247 -21.0029 11.0993
8.12035 -21.0029 14.0154
5.83 -21.0029 18.1215
3.53966 -21.0029 22.2275
-0.71785 -21.0029 19.8527
-5.96825 -21.0029 16.9239
-9.14034 -21.0029 15.1545
-11.3299 -21.0029 19.0799
-13.5195 -21.0029 23.0052
-15.709 -21.0029 26.9306
-19.2474 -21.0029 24.9568
-22.7859 -21.0029 22.9831
-23.965 -21.0029 22.3254
-22.4319 -21.0029 19.577
-20.0334 -21.0029 15.2772
-17.635 -21.0029 10.9774
-18.8845 -21.0029 10.2803
-22.2887 -21.0029 8.38147
-25.6929 -21.0029 6.48267
-16.1439 -21.0029 12.1233
-23.4791 -21.0029 2.51398
-21.2654 -21.0029 -1.45474
-17.4302 -21.0029 0.68457
-13.595 -21.0029 2.82388
-8.90071 -21.0029 5.44235
-6.46867 -21.0029 1.08221
-4.03661 -21.0029 -3.27798
-1.60454 -21.0029 -7.63812
-4.90434 -21.0029 -9.4787
-10.3369 -21.0029 -12.509
-7.92268 -21.0029 -16.8372
-5.50844 -21.0029 -21.1654
-0.679733 -21.0029 -18.472
4.14894 -21.0029 -15.7786
6.09425 -21.0029 -14.6935
10.8563 -21.0029 -18.6049
11.1985 -21.0029 -13.3263
8.69185 -21.0029 -14.7245
6.72014 -21.0029 -15.8157
9.61891 -21.0029 -21.0124
12.5176 -21.0029 -26.2091
12.9201 -21.0029 -26.9306
15.5275 -21.0029 -21.0869
13.0208 -21.0029 -22.4852
14.103 -21.0029 -24.4253
11.7674 -21.0029 -23.1843
12.8497 -21.0029 -25.1245
16.2359 -21.0029 -25.0811
20.6256 -21.0029 -22.6325
18.7236 -21.0029 -19.2227
1.06062 -21.0029 16.6324
-0.992661 -21.0029 -15.0389
-22.7859 -2.26629 22.9831
-19.2474 -2.26629 24.9568
-19.2474 16.4703 24.9568
-15.709 -2.26629 26.9306
-23.965 -17.2556 22.3254
-23.965 -13.5083 22.3254
-23.965 -9.76093 22.3254
-23.965 -6.01361 22.3254
-23.965 -2.26629 22.3254
-23.965 1.48103 22.3254
-23.965 5.22835 22.3254
-23.965 8.97567 22.3254
-23.965 12.723 22.3254
-23.3754 -21.0029 22.6542
-23.3754 -17.2556 22.6542
-23.3754 -13.5083 22.6542
-23.3754 -9.76093 22.6542
-23.3754 -6.01361 22.6542
-23.3754 -2.26629 22.6542
-23.3754 1.48103 22.6542
-23.3754 5.22835 22.6542
-23.3754 8.97567 22.6542
-23.3754 12.723 22.6542
-23.3754 16.4703 22.6542
-22.7859 -17.2556 22.9831
-22.7859 -13.5083 22.9831
-22.7859 -9.76093 22.9831
-22.7859 -6.01361 22.9831
-22.7859 1.48103 22.9831
-22.7859 5.22835 22.9831
-22.7859 8.97567 22.9831
-22.7859 12.723 22.9831
-22.4319 -2.26629 19.577
-20.0334 16.4703 15.2772
-20.0334 -2.26629 15.2772
-17.635 -2.26629 10.9774
-18.8845 -13.5083 10.2803
-18.8845 -6.01361 10.2803
-18.8845 1.48103 10.2803
-18.8845 8.97567 10.2803
-17.635 -13.5083 10.9774
-17.635 -6.01361 10.9774
-17.635 1.48103 10.9774
-17.635 8.97567 10.9774
-21.2654 -2.26629 -1.45474
-17.4302 16.4703 0.68457
-17.4302 -2.26629 0.68457
-13.595 -2.26629 2.82388
14.2279 -2.26629 -11.1629
16.8216 -2.26629 -15.813
22.0975 -2.26629 -6.77313
25.6929 -2.26629 -4.76764
21.2602 -2.26629 3.17935
23.4765 -2.26629 -0.794128
23.4765 16.4703 -0.794128
21.2368 -20.7168 3.22116
21.2368 -20.4308 3.22116
21.2368 -20.1447 3.22116
21.2368 -19.8587 3.22116
21.2368 -19.5726 3.22116
21.2368 -19.2866 3.22116
21.2368 -19.0005 3.22116
21.2368 -18.7145 3.22116
21.2368 -18.4284 3.22116
21.2368 -18.1423 3.22116
21.2368 -17.8563 3.22116
21.2368 -17.5702 3.22116
21.2368 -17.2842 3.22116
21.2368 -16.9981 3.22116
21.2368 -16.7121 3.22116
21.2368 -16.426 3.22116
21.2368 -16.14 3.22116
21.2368 -15.8539 3.22116
21.2368 -15.5678 3.22116
21.2368 -15.2818 3.22116
21.2368 -14.9957 3.22116
21.2368 -14.7097 3.22116
21.2368 -14.4236 3.22116
21.2368 -14.1376 3.22116
21.2368 -13.8515 3.22116
21.2368 -13.5655 3.22116
21.2368 -13.2794 3.22116
21.2368 -12.9934 3.22116
21.2368 -12.7073 3.22116
21.2368 -12.4212 3.22116
21.2368 -12.1352 3.22116
21.2368 -11.8491 3.22116
21.2368 -11.5631 3.22116
21.2368 -11.277 3.22116
21.2368 -10.991 3.22116
21.2368 -10.7049 3.22116
21.2368 -10.4189 3.22116
21.2368 -10.1328 3.22116
21.2368 -9.84675 3.22116
21.2368 -9.56069 3.22116
21.2368 -9.27464 3.22116
21.2368 -8.98858 3.22116
21.2368 -8.70253 3.22116
21.2368 -8.41647 3.22116
21.2368 -8.13042 3.22116
21.2368 -7.84436 3.22116
21.2368 -7.55831 3.22116
21.2368 -7.27225 3.22116
21.2368 -6.9862 3.22116
21.2368 -6.70014 3.22116
21.2368 -6.41409 3.22116
21.2368 -6.12803 3.22116
21.2368 -5.84198 3.22116
21.2368 -5.55592 3.22116
21.2368 -5.26987 3.22116
21.2368 -4.98381 3.22116
21.2368 -4.69776 3.22116
21.2368 -4.4117 3.22116
21.2368 -4.12565 3.22116
21.2368 -3.83959 3.22116
21.2368 -3.55354 3.22116
21.2368 -3.26748 3.22116
21.2368 -2.98143 3.22116
21.2368 -2.69537 3.22116
21.2368 -2.40932 3.22116
21.2368 -2.12326 3.22116
21.2368 -1.83721 3.22116
21.2368 -1.55115 3.22116
21.2368 -1.2651 3.22116
21.2368 -0.979042 3.22116
21.2368 -0.692989 3.22116
21.2368 -0.406933 3.22116
21.2368 -0.120876 3.22116
21.2368 0.165176 3.22116
21.2368 0.451233 3.22116
21.2368 0.737286 3.22116
21.2368 1.02334 3.22116
21.2368 1.3094 3.22116
21.2368 1.59545 3.22116
21.2368 1.88151 3.22116
21.2368 2.16756 3.22116
21.2368 2.45362 3.22116
21.2368 2.73968 3.22116
21.2368 3.02573 3.22116
21.2368 3.31179 3.22116
21.2368 3.59784 3.22116
21.2368 3.8839 3.22116
21.2368 4.16995 3.22116
21.2368 4.45601 3.22116
21.2368 4.74206 3.22116
21.2368 5.02811 3.22116
21.2368 5.31417 3.22116
21.2368 5.60022 3.22116
21.2368 5.88628 3.22116
21.2368 6.17234 3.22116
21.2368 6.45839 3.22116
21.2368 6.74445 3.22116
21.2368 7.0305 3.22116
21.2368 7.31656 3.22116
21.2368 7.60261 3.22116
21.2368 7.88866 3.22116
21.2368 8.17472 3.22116
21.2368 8.46077 3.22116
21.2368 8.74683 3.22116
21.2368 9.03288 3.22116
21.2368 9.31894 3.22116
21.2368 9.605 3.22116
21.2368 9.89105 3.22116
21.2368 10.1771 3.22116
21.2368 10.4632 3.22116
21.2368 10.7492 3.22116
21.2368 11.0353 3.22116
21.2368 11.3213 3.22116
21.2368 11.6074 3.22116
21.2368 11.8934 3.22116
21.2368 12.1795 3.22116
21.2368 12.4655 3.22116
21.2368 12.7516 3.22116
21.2368 13.0377 3.22116
21.2368 13.3237 3.22116
21.2368 13.6098 3.22116
21.2368 13.8958 3.22116
21.2368 14.1819 3.22116
21.2368 14.4679 3.22116
21.2368 14.754 3.22116
21.2368 15.04 3.22116
21.2368 15.3261 3.22116
21.2368 15.6122 3.22116
21.2368 15.8982 3.22116
21.2368 16.1843 3.22116
21.2602 -20.7168 3.17935
21.2602 -20.4308 3.17935
21.2602 -20.1447 3.17935
21.2602 -19.8587 3.17935
21.2602 -19.5726 3.17935
21.2602 -19.2866 3.17935
21.2602 -19.0005 3.17935
21.2602 -18.7145 3.17935
21.2602 -18.4284 3.17935
21.2602 -18.1423 3.17935
21.2602 -17.8563 3.17935
21.2602 -17.5702 3.17935
21.2602 -17.2842 3.17935
21.2602 -16.9981 3.17935
21.2602 -16.7121 3.17935
21.2602 -16.426 3.17935
21.2602 -16.14 3.17935
21.2602 -15.8539 3.17935
21.2602 -15.5678 3.17935
21.2602 -15.2818 3.17935
21.2602 -14.9957 3.17935
21.2602 -14.7097 3.17935
21.2602 -14.4236 3.17935
21.2602 -14.1376 3.17935
21.2602 -13.8515 3.17935
21.2602 -13.5655 3.17935
21.2602 -13.2794 3.17935
21.2602 -12.9934 3.17935
21.2602 -12.7073 3.17935
21.2602 -12.4212 3.17935
21.2602 -12.1352 3.17935
21.2602 -11.8491 3.17935
21.2602 -11.5631 3.17935
21.2602 -11.277 3.17935
21.2602 -10.991 3.17935
21.2602 -10.7049 3.17935
21.2602 -10.4189 3.17935
21.2602 -10.1328 3.17935
21.2602 -9.84675 3.17935
21.2602 -9.56069 3.17935
21.2602 -9.27464 3.17935
21.2602 -8.98858 3.17935
21.2602 -8.70253 3.17935
21.2602 -8.41647 3.17935
21.2602 -8.13042 3.17935
21.2602 -7.84436 3.17935
21.2602 -7.55831 3.17935
21.2602 -7.27225 3.17935
21.2602 -6.9862 3.17935
21.2602 -6.70014 3.17935
21.2602 -6.41409 3.17935
21.2602 -6.12803 3.17935
21.2602 -5.84198 3.17935
21.2602 -5.55592 3.17935
21.2602 -5.26987 3.17935
21.2602 -4.98381 3.17935
21.2602 -4.69776 3.17935
21.2602 -4.4117 3.17935
21.2602 -4.12565 3.17935
21.2602 -3.83959 3.17935
21.2602 -3.55354 3.17935
21.2602 -3.26748 3.17935
21.2602 -2.98143 3.17935
21.2602 -2.69537 3.17935
21.2602 -2.40932 3.17935
21.2602 -2.12326 3.17935
21.2602 -1.83721 3.17935
21.2602 -1.55115 3.17935
21.2602 -1.2651 3.17935
21.2602 -0.979042 3.17935
21.2602 -0.692989 3.17935
21.2602 -0.406933 3.17935
21.2602 -0.120876 3.17935
21.2602 0.165176 3.17935
21.2602 0.451233 3.17935
21.2602 0.737286 3.17935
21.2602 1.02334 3.17935
21.2602 1.3094 3.17935
21.2602 1.59545 3.17935
21.2602 1.88151 3.17935
21.2602 2.16756 3.17935
21.2602 2.45362 3.17935
21.2602 2.73968 3.17935
21.2602 3.02573 3.17935
21.2602 3.31179 3.17935
21.2602 3.59784 3.17935
21.2602 3.8839 3.17935
21.2602 4.16995 3.17935
21.2602 4.45601 3.17935
21.2602 4.74206 3.17935
21.2602 5.02811 3.17935
21.2602 5.31417 3.17935
21.2602 5.60022 3.17935
21.2602 5.88628 3.17935
21.2602 6.17234 3.17935
21.2602 6.45839 3.17935
21.2602 6.74445 3.17935
21.2602 7.0305 3.17935
21.2602 7.31656 3.17935
21.2602 7.60261 3.17935
21.2602 7.88866 3.17935
21.2602 8.17472 3.17935
21.2602 8.46077 3.17935
21.2602 8.74683 3.17935
21.2602 9.03288 3.17935
21.2602 9.31894 3.17935
21.2602 9.605 3.17935
21.2602 9.89105 3.17935
21.2602 10.1771 3.17935
21.2602 10.4632 3.17935
21.2602 10.7492 3.17935
21.2602 11.0353 3.17935
21.2602 11.3213 3.17935
21.2602 11.6074 3.17935
21.2602 11.8934 3.17935
21.2602 12.1795 3.17935
21.2602 12.4655 3.17935
21.2602 12.7516 3.17935
21.2602 13.0377 3.17935
21.2602 13.3237 3.17935
21.2602 13.6098 3.17935
21.2602 13.8958 3.17935
21.2602 14.1819 3.17935
21.2602 14.4679 3.17935
21.2602 14.754 3.17935
21.2602 15.04 3.17935
21.2602 15.3261 3.17935
21.2602 15.6122 3.17935
21.2602 15.8982 3.17935
21.2602 16.1843 3.17935
21.176 -20.5865 3.18726
21.176 -20.1702 3.18726
21.176 -19.7538 3.18726
21.176 -19.3374 3.18726
21.176 -18.9211 3.18726
21.176 -18.5047 3.18726
21.176 -18.0883 3.18726
21.176 -17.6719 3.18726
21.176 -17.2556 3.18726
21.176 -16.8392 3.18726
21.176 -16.4228 3.18726
21.176 -16.0065 3.18726
21.176 -15.5901 3.18726
21.176 -15.1737 3.18726
21.176 -14.7574 3.18726
21.176 -14.341 3.18726
21.176 -13.9246 3.18726
21.176 -13.5083 3.18726
21.176 -13.0919 3.18726
21.176 -12.6755 3.18726
21.176 -12.2591 3.18726
21.176 -11.8428 3.18726
21.176 -11.4264 3.18726
21.176 -11.01 3.18726
21.176 -10.5937 3.18726
21.176 -10.1773 3.18726
21.176 -9.76093 3.18726
21.176 -9.34456 3.18726
21.176 -8.92819 3.18726
21.176 -8.51183 3.18726
21.176 -8.09546 3.18726
21.176 -7.67908 3.18726
21.176 -7.26272 3.18726
21.176 -6.84635 3.18726
21.176 -6.42998 3.18726
21.176 -6.01361 3.18726
21.176 -5.59724 3.18726
21.176 -5.18087 3.18726
21.176 -4.7645 3.18726
21.176 -4.34814 3.18726
21.176 -3.93177 3.18726
21.176 -3.5154 3.18726
21.176 -3.09903 3.18726
21.176 -2.68266 3.18726
21.176 -2.26629 3.18726
21.176 -1.84992 3.18726
21.176 -1.43355 3.18726
21.176 -1.01718 3.18726
21.176 -0.600815 3.18726
21.176 -0.184444 3.18726
21.176 0.231926 3.18726
21.176 0.648293 3.18726
21.176 1.06466 3.18726
21.176 1.48103 3.18726
21.176 1.8974 3.18726
21.176 2.31377 3.18726
21.176 2.73014 3.18726
21.176 3.14651 3.18726
21.176 3.56288 3.18726
21.176 3.97925 3.18726
21.176 4.39562 3.18726
21.176 4.81198 3.18726
21.176 5.22835 3.18726
21.176 5.64472 3.18726
21.176 6.06109 3.18726
21.176 6.47746 3.18726
21.176 6.89383 3.18726
21.176 7.3102 3.18726
21.176 7.72657 3.18726
21.176 8.14294 3.18726
21.176 8.55931 3.18726
21.176 8.97567 3.18726
21.176 9.39204 3.18726
21.176 9.80841 3.18726
21.176 10.2248 3.18726
21.176 10.6412 3.18726
21.176 11.0575 3.18726
21.176 11.4739 3.18726
21.176 11.8903 3.18726
21.176 12.3066 3.18726
21.176 12.723 3.18726
21.176 13.1394 3.18726
21.176 13.5557 3.18726
21.176 13.9721 3.18726
21.176 14.3885 3.18726
21.176 14.8048 3.18726
21.176 15.2212 3.18726
21.176 15.6376 3.18726
21.176 16.0539 3.18726
21.2368 -20.5865 3.22116
21.2368 -20.1702 3.22116
21.2368 -19.7538 3.22116
21.2368 -19.3374 3.22116
21.2368 -18.9211 3.22116
21.2368 -18.5047 3.22116
21.2368 -18.0883 3.22116
21.2368 -17.6719 3.22116
21.2368 -17.2556 3.22116
21.2368 -16.8392 3.22116
21.2368 -16.4228 3.22116
21.2368 -16.0065 3.22116
21.2368 -15.5901 3.22116
21.2368 -15.1737 3.22116
21.2368 -14.7574 3.22116
21.2368 -14.341 3.22116
21.2368 -13.9246 3.22116
21.2368 -13.5083 3.22116
21.2368 -13.0919 3.22116
21.2368 -12.6755 3.22116
21.2368 -12.2591 3.22116
21.2368 -11.8428 3.22116
21.2368 -11.4264 3.22116
21.2368 -11.01 3.22116
21.2368 -10.5937 3.22116
21.2368 -10.1773 3.22116
21.2368 -9.76093 3.22116
21.2368 -9.34456 3.22116
21.2368 -8.92819 3.22116
21.2368 -8.51183 3.22116
21.2368 -8.09546 3.22116
21.2368 -7.67908 3.22116
21.2368 -7.26272 3.22116
21.2368 -6.84635 3.22116
21.2368 -6.42998 3.22116
21.2368 -6.01361 3.22116
21.2368 -5.59724 3.22116
21.2368 -5.18087 3.22116
21.2368 -4.7645 3.22116
21.2368 -4.34814 3.22116
21.2368 -3.93177 3.22116
21.2368 -3.5154 3.22116
21.2368 -3.09903 3.22116
21.2368 -2.68266 3.22116
21.2368 -2.26629 3.22116
21.2368 -1.84992 3.22116
21.2368 -1.43355 3.22116
21.2368 -1.01718 3.22116
21.2368 -0.600815 3.22116
21.2368 -0.184444 3.22116
21.2368 0.231926 3.22116
21.2368 0.648293 3.22116
21.2368 1.06466 3.22116
21.2368 1.48103 3.22116
21.2368 1.8974 3.22116
21.2368 2.31377 3.22116
21.2368 2.73014 3.22116
21.2368 3.14651 3.22116
21.2368 3.56288 3.22116
21.2368 3.97925 3.22116
21.2368 4.39562 3.22116
21.2368 4.81198 3.22116
21.2368 5.22835 3.22116
21.2368 5.64472 3.22116
21.2368 6.06109 3.22116
21.2368 6.47746 3.22116
21.2368 6.89383 3.22116
21.2368 7.3102 3.22116
21.2368 7.72657 3.22116
21.2368 8.14294 3.22116
21.2368 8.55931 3.22116
21.2368 8.97567 3.22116
21.2368 9.39204 3.22116
21.2368 9.80841 3.22116
21.2368 10.2248 3.22116
21.2368 10.6412 3.22116
21.2368 11.0575 3.22116
21.2368 11.4739 3.22116
21.2368 11.8903 3.22116
21.2368 12.3066 3.22116
21.2368 12.723 3.22116
21.2368 13.1394 3.22116
21.2368 13.5557 3.22116
21.2368 13.9721 3.22116
21.2368 14.3885 3.22116
21.2368 14.8048 3.22116
21.2368 15.2212 3.22116
21.2368 15.6376 3.22116
21.2368 16.0539 3.22116
6.17677 -18.3262 -5.17944
6.17677 -15.6496 -5.17944
6.17677 -12.9729 -5.17944
6.17677 -10.2963 -5.17944
6.17677 -7.61961 -5.17944
6.17677 -4.94295 -5.17944
6.17677 -2.26629 -5.17944
6.17677 0.410366 -5.17944
6.17677 3.08703 -5.17944
6.17677 5.76368 -5.17944
6.17677 8.44034 -5.17944
6.17677 11.117 -5.17944
6.17677 13.7937 -5.17944
6.59624 -21.0029 -4.94543
6.59624 -18.3262 -4.94543
6.59624 -15.6496 -4.94543
6.59624 -12.9729 -4.94543
6.59624 -10.2963 -4.94543
6.59624 -7.61961 -4.94543
6.59624 -4.94295 -4.94543
6.59624 -2.26629 -4.94543
6.59624 0.410366 -4.94543
6.59624 3.08703 -4.94543
6.59624 5.76368 -4.94543
6.59624 8.44034 -4.94543
6.59624 11.117 -4.94543
6.59624 13.7937 -4.94543
6.59624 16.4703 -4.94543
7.01576 -18.3262 -4.71146
7.01576 -15.6496 -4.71146
7.01576 -12.9729 -4.71146
7.01576 -10.2963 -4.71146
7.01576 -7.61961 -4.71146
7.01576 -4.94295 -4.71146
7.01576 -2.26629 -4.71146
7.01576 0.410366 -4.71146
7.01576 3.08703 -4.71146
7.01576 5.76368 -4.71146
7.01576 8.44034 -4.71146
7.01576 11.117 -4.71146
7.01576 13.7937 -4.71146
5.70045 -15.6496 -4.32565
5.70045 -10.2963 -4.32565
5.70045 -4.94295 -4.32565
5.70045 0.410366 -4.32565
5.70045 5.76368 -4.32565
5.70045 11.117 -4.32565
2.08617 -21.0029 2.15396
-1.52815 -2.26629 8.63354
2.89247 -2.26629 11.0993
8.12035 -2.26629 14.0154
-0.71785 -2.26629 19.8527
3.53966 -2.26629 22.2275
-5.96825 -2.26629 16.9239
-9.14034 -2.26629 15.1545
-8.90071 -2.26629 5.44235
-4.90434 -2.26629 -9.4787
-1.60454 -2.26629 -7.63812
-10.3369 -2.26629 -12.509
-7.92268 16.4703 -16.8372
-7.92268 -2.26629 -16.8372
-5.50844 -2.26629 -21.1654
4.14894 3.97925 -15.7786
4.14894 -8.51183 -15.7786
6.09425 3.97925 -14.6935
6.09425 -8.51183 -14.6935
6.09425 8.97567 -14.6935
6.09425 1.48103 -14.6935
6.09425 -6.01361 -14.6935
6.09425 -13.5083 -14.6935
6.72014 8.97567 -15.8157
6.72014 1.48103 -15.8157
6.72014 -6.01361 -15.8157
6.72014 -13.5083 -15.8157
12.5176 14.1282 -26.2091
12.5176 11.7862 -26.2091
12.5176 9.44409 -26.2091
12.5176 7.10201 -26.2091
12.5176 4.75994 -26.2091
12.5176 2.41786 -26.2091
12.5176 0.0757866 -26.2091
12.5176 -2.26629 -26.2091
12.5176 -4.60837 -26.2091
12.5176 -6.95044 -26.2091
12.5176 -9.29252 -26.2091
12.5176 -11.6346 -26.2091
12.5176 -13.9767 -26.2091
12.5176 -16.3187 -26.2091
12.5176 -18.6608 -26.2091
12.7189 16.4703 -26.5698
12.7189 14.1282 -26.5698
12.7189 11.7862 -26.5698
12.7189 9.44409 -26.5698
12.7189 7.10201 -26.5698
12.7189 4.75994 -26.5698
12.7189 2.41786 -26.5698
12.7189 0.0757866 -26.5698
12.7189 -2.26629 -26.5698
12.7189 -4.60837 -26.5698
12.7189 -6.95044 -26.5698
12.7189 -9.29252 -26.5698
12.7189 -11.6346 -26.5698
12.7189 -13.9767 -26.5698
12.7189 -16.3187 -26.5698
12.7189 -18.6608 -26.5698
12.7189 -21.0029 -26.5698
12.9201 14.1282 -26.9306
12.9201 11.7862 -26.9306
12.9201 9.44409 -26.9306
12.9201 7.10201 -26.9306
12.9201 4.75994 -26.9306
12.9201 2.41786 -26.9306
12.9201 0.0757866 -26.9306
12.9201 -2.26629 -26.9306
12.9201 -4.60837 -26.9306
12.9201 -6.95044 -26.9306
12.9201 -9.29252 -26.9306
12.9201 -11.6346 -26.9306
12.9201 -13.9767 -26.9306
12.9201 -16.3187 -26.9306
12.9201 -18.6608 -26.9306
16.2359 -2.26629 -25.0811
20.6256 -2.26629 -22.6325
18.7236 -2.26629 -19.2227
18.7236 16.4703 -19.2227
3.60069 16.4703 -10.6674
-11.2964 16.4703 6.49664
-11.2964 18.7996 6.49664
-11.3748 18.7996 7.89966
-11.3748 16.4703 7.89966
-6.21361 21.0029 10.7786
-10.8378 21.0029 8.19922
-6.21361 18.7996 10.7786
-10.8378 18.7996 8.19922
-10.8378 18.7996 8.19922
-11.9119 18.7996 7.6001
-10.6808 18.7996 5.39316
4.28975 20.7893 -11.9026
8.8242 20.7893 -9.37329
8.8242 20.7893 -9.37329
7.44618 20.7893 -6.90283
8.8242 18.706 -9.37329
4.28975 18.706 -11.9026
16.2359 16.4703 -25.0811
20.6256 16.4703 -22.6325
16.8216 16.4703 -15.813
14.2279 16.4703 -11.1629
14.2279 16.4703 -11.1629
22.0975 16.4703 -6.77313
22.0975 16.4703 -6.77313
25.6929 16.4703 -4.76764
21.2602 16.4703 3.17935
21.176 16.4703 3.18726
7.01576 16.4703 -4.71146
7.01576 16.4703 -4.71146
6.17677 16.4703 -5.17944
5.70045 16.4703 -4.32565
2.08617 16.4703 2.15396
-1.52815 16.4703 8.63354
-1.52815 16.4703 8.63354
2.89247 16.4703 11.0993
8.12035 16.4703 14.0154
8.12035 16.4703 14.0154
3.53966 16.4703 22.2275
3.53966 16.4703 22.2275
-0.71785 16.4703 19.8527
-9.14034 16.4703 15.1545
-15.709 16.4703 26.9306
-15.709 16.4703 26.9306
-22.7859 16.4703 22.9831
-22.7859 16.4703 22.9831
-23.965 16.4703 22.3254
-17.635 16.4703 10.9774
-18.8845 16.4703 10.2803
-25.6929 16.4703 6.48267
-21.2654 16.4703 -1.45474
-21.2654 16.4703 -1.45474
-13.595 16.4703 2.82388
-8.90071 16.4703 5.44235
-8.90071 16.4703 5.44235
-1.60454 16.4703 -7.63812
-1.60454 16.4703 -7.63812
-4.90434 16.4703 -9.4787
-10.3369 16.4703 -12.509
-5.50844 16.4703 -21.1654
-5.50844 16.4703 -21.1654
4.14894 16.4703 -15.7786
6.72014 16.4703 -15.8157
12.5176 16.4703 -26.2091
12.5176 16.4703 -26.2091
12.9201 16.4703 -26.9306
12.9201 16.4703 -26.9306
-10.6808 16.4703 5.39316
-11.9119 16.4703 7.6001
-10.8378 16.4703 8.19922
4.28975 16.4703 -11.9026
2.9117 16.4703 -9.43216
14.2279 -21.0029 -11.1629
22.0975 -21.0029 -6.77313
21.176 -21.0029 3.18726
7.01576 -21.0029 -4.71146
7.01576 -21.0029 -4.71146
6.17677 -21.0029 -5.17944
5.70045 -21.0029 -4.32565
-1.52815 -21.0029 8.63354
8.12035 -21.0029 14.0154
3.53966 -21.0029 22.2275
-9.14034 -21.0029 15.1545
-15.709 -21.0029 26.9306
-22.7859 -21.0029 22.9831
-23.965 -21.0029 22.3254
-18.8845 -21.0029 10.2803
-25.6929 -21.0029 6.48267
-21.2654 -21.0029 -1.45474
-8.90071 -21.0029 5.44235
-1.60454 -21.0029 -7.63812
-5.50844 -21.0029 -21.1654
4.14894 -21.0029 -15.7786
6.72014 -21.0029 -15.8157
12.5176 -21.0029 -26.2091
12.5176 -21.0029 -26.2091
12.9201 -21.0029 -26.9306
-22.7859 -2.26629 22.9831
-23.965 -2.26629 22.3254
6.17677 -15.6496 -5.17944
6.17677 -10.2963 -5.17944
6.17677 -4.94295 -5.17944
6.17677 0.410366 -5.17944
6.17677 5.76368 -5.17944
6.17677 11.117 -5.17944
12.9201 -2.26629 -26.9306
3  0 1 2  255 255 128
3  5 0 2  255 255 128
3  4 5 3  255 255 128
3  2 3 5  255 255 128
3  10 11 9  255 128 128
3  12 9 11  255 128 128
3  8 12 6  255 128 128
3  6 7 8  255 128 128
3  9 12 8  255 128 128
3  17 18 13  255 255 128
3  17 14 16  255 255 128
3  14 17 13  255 255 128
3  13 20 14  255 255 128
3  20 15 14  255 255 128
3  19 20 13  255 255 128
3  24 25 26  255 128 128
3  27 24 26  255 128 128
3  23 27 21  255 128 128
3  21 22 23  255 128 128
3  24 27 23  255 128 128
3  66 58 76  255 255 0
3  76 56 28  255 255 0
3  28 57 66  255 255 0
3  66 76 28  255 255 0
3  57 67 68  255 255 0
3  57 68 66  255 255 0
3  66 68 60  255 255 0
3  66 60 58  255 255 0
3  63 61 74  255 255 0
3  74 59 58  255 255 0
3  58 60 63  255 255 0
3  63 74 58  255 255 0
3  60 64 65  255 255 0
3  60 65 63  255 255 0
3  80 62 73  255 255 0
3  73 61 63  255 255 0
3  63 65 80  255 255 0
3  80 73 63  255 255 0
3  71 62 72  255 255 0
3  75 56 76  255 255 0
3  76 58 59  255 255 0
3  69 70 57  255 255 0
3  69 57 28  255 255 0
3  29 78 79  255 255 0
3  29 79 77  255 255 0
3  78 28 56  255 255 0
3  78 56 79  255 255 0
3  33 31 30  255 255 0
3  33 30 32  255 255 0
3  113 34 114  255 255 0
3  113 114 115  255 255 0
3  124 37 38  255 255 0
3  36 35 124  255 255 0
3  38 36 124  255 255 0
3  81 82 71  255 255 0
3  55 81 54  255 255 0
3  173 97 98  255 255 0
3  99 100 98  255 255 0
3  96 97 95  255 255 0
3  98 100 173  255 255 0
3  83 75 82  255 255 0
3  54 81 72  255 255 0
3  71 72 81  255 255 0
3  80 72 62  255 255 0
3  65 54 72  255 255 0
3  62 71 73  255 255 0
3  80 65 72  255 255 0
3  71 61 73  255 255 0
3  82 74 71  255 255 0
3  59 74 82  255 255 0
3  74 61 71  255 255 0
3  76 59 82  255 255 0
3  76 82 75  255 255 0
3  56 75 83  255 255 0
3  102 103 174  255 255 0
3  95 97 94  255 255 0
3  173 94 97  255 255 0
3  102 173 101  255 255 0
3  173 93 94  255 255 0
3  100 101 173  255 255 0
3  173 174 175  255 255 0
3  92 93 175  255 255 0
3  93 173 175  255 255 0
3  176 92 175  255 255 0
3  174 160 175  255 255 0
3  174 173 102  255 255 0
3  176 90 91  255 255 0
3  77 84 85  255 255 0
3  86 177 85  255 255 0
3  90 178 89  255 255 0
3  178 176 179  255 255 0
3  89 180 88  255 255 0
3  87 180 168  255 255 0
3  88 180 87  255 255 0
3  176 178 90  255 255 0
3  176 91 92  255 255 0
3  83 84 77  255 255 0
3  83 77 79  255 255 0
3  176 175 162  255 255 0
3  87 169 86  255 255 0
3  54 64 53  255 255 0
3  53 64 68  255 255 0
3  60 68 64  255 255 0
3  67 53 68  255 255 0
3  65 64 54  255 255 0
3  70 67 57  255 255 0
3  83 79 56  255 255 0
3  52 53 67  255 255 0
3  50 52 70  255 255 0
3  70 52 67  255 255 0
3  51 52 50  255 255 0
3  181 49 50  255 255 0
3  181 50 70  255 255 0
3  69 28 78  255 255 0
3  69 78 181  255 255 0
3  181 78 29  255 255 0
3  49 181 48  255 255 0
3  70 69 181  255 255 0
3  29 177 182  255 255 0
3  29 77 85  255 255 0
3  181 182 47  255 255 0
3  181 29 182  255 255 0
3  170 182 177  255 255 0
3  182 46 47  255 255 0
3  85 177 29  255 255 0
3  181 47 48  255 255 0
3  169 177 86  255 255 0
3  170 171 182  255 255 0
3  172 183 171  255 255 0
3  182 171 183  255 255 0
3  32 30 183  255 255 0
3  169 170 177  255 255 0
3  169 87 168  255 255 0
3  183 30 182  255 255 0
3  45 46 182  255 255 0
3  42 40 41  255 255 0
3  43 31 42  255 255 0
3  31 44 30  255 255 0
3  45 30 44  255 255 0
3  40 31 39  255 255 0
3  31 33 39  255 255 0
3  31 40 42  255 255 0
3  45 182 30  255 255 0
3  44 31 43  255 255 0
3  178 180 89  255 255 0
3  107 34 106  255 255 0
3  104 174 103  255 255 0
3  106 184 105  255 255 0
3  109 107 108  255 255 0
3  114 109 110  255 255 0
3  114 34 107  255 255 0
3  34 113 184  255 255 0
3  34 184 106  255 255 0
3  35 184 185  255 255 0
3  114 107 109  255 255 0
3  186 105 184  255 255 0
3  174 159 160  255 255 0
3  159 174 186  255 255 0
3  175 161 162  255 255 0
3  162 133 176  255 255 0
3  174 104 186  255 255 0
3  35 158 186  255 255 0
3  158 156 157  255 255 0
3  156 158 36  255 255 0
3  186 158 159  255 255 0
3  186 104 105  255 255 0
3  133 162 163  255 255 0
3  114 110 115  255 255 0
3  160 161 175  255 255 0
3  116 115 111  255 255 0
3  110 111 115  255 255 0
3  185 113 116  255 255 0
3  115 116 113  255 255 0
3  117 185 116  255 255 0
3  185 117 118  255 255 0
3  116 111 112  255 255 0
3  125 122 123  255 255 0
3  118 119 35  255 255 0
3  185 118 35  255 255 0
3  35 119 120  255 255 0
3  120 124 35  255 255 0
3  35 36 158  255 255 0
3  124 120 121  255 255 0
3  186 184 35  255 255 0
3  37 121 122  255 255 0
3  126 38 125  255 255 0
3  37 125 38  255 255 0
3  129 36 38  255 255 0
3  37 122 125  255 255 0
3  121 37 124  255 255 0
3  155 156 36  255 255 0
3  113 185 184  255 255 0
3  126 128 38  255 255 0
3  187 167 180  255 255 0
3  147 172 164  255 255 0
3  148 172 147  255 255 0
3  166 167 165  255 255 0
3  172 148 183  255 255 0
3  187 188 167  255 255 0
3  179 135 187  255 255 0
3  165 145 164  255 255 0
3  188 165 167  255 255 0
3  145 146 164  255 255 0
3  188 187 137  255 255 0
3  178 187 180  255 255 0
3  135 179 134  255 255 0
3  146 147 164  255 255 0
3  150 33 32  255 255 0
3  148 32 183  255 255 0
3  153 154 152  255 255 0
3  154 33 152  255 255 0
3  39 33 154  255 255 0
3  148 149 32  255 255 0
3  33 151 152  255 255 0
3  150 151 33  255 255 0
3  32 149 150  255 255 0
3  188 145 165  255 255 0
3  167 168 180  255 255 0
3  155 132 163  255 255 0
3  187 178 179  255 255 0
3  187 135 136  255 255 0
3  132 155 131  255 255 0
3  133 179 176  255 255 0
3  130 131 36  255 255 0
3  129 130 36  255 255 0
3  38 128 129  255 255 0
3  36 131 155  255 255 0
3  128 126 127  255 255 0
3  138 144 188  255 255 0
3  138 188 137  255 255 0
3  145 188 144  255 255 0
3  136 137 187  255 255 0
3  144 138 141  255 255 0
3  141 139 140  255 255 0
3  142 143 144  255 255 0
3  142 144 141  255 255 0
3  141 138 139  255 255 0
3  134 179 133  255 255 0
3  163 132 133  255 255 0
3  212 208 189  0 0 255
3  189 209 212  0 0 255
3  214 213 208  0 0 255
3  212 214 208  0 0 255
3  218 217 214  0 0 255
3  216 218 214  0 0 255
3  221 211 229  0 0 255
3  216 210 221  0 0 255
3  229 218 216  0 0 255
3  216 221 229  0 0 255
3  223 210 216  0 0 255
3  212 209 223  0 0 255
3  216 214 212  0 0 255
3  212 223 216  0 0 255
3  222 221 210  0 0 255
3  220 222 210  0 0 255
3  222 215 226  0 0 255
3  226 211 221  0 0 255
3  226 221 222  0 0 255
3  228 227 211  0 0 255
3  226 228 211  0 0 255
3  219 228 226  0 0 255
3  215 219 226  0 0 255
3  225 224 190  0 0 255
3  189 224 225  0 0 255
3  191 235 238  0 0 255
3  238 237 236  0 0 255
3  238 236 191  0 0 255
3  190 236 237  0 0 255
3  249 241 196  0 0 255
3  247 249 196  0 0 255
3  248 249 247  0 0 255
3  195 248 247  0 0 255
3  242 240 197  0 0 255
3  239 242 197  0 0 255
3  240 242 244  0 0 255
3  244 235 191  0 0 255
3  244 191 240  0 0 255
3  246 244 242  0 0 255
3  243 246 242  0 0 255
3  245 246 243  0 0 255
3  241 245 243  0 0 255
3  196 241 243  0 0 255
3  243 242 239  0 0 255
3  243 239 196  0 0 255
3  290 192 289  0 0 255
3  291 290 289  0 0 255
3  191 290 291  0 0 255
3  240 191 291  0 0 255
3  297 298 300  0 0 255
3  299 297 300  0 0 255
3  192 296 297  0 0 255
3  289 192 297  0 0 255
3  194 199 273  0 0 255
3  273 198 193  0 0 255
3  273 193 194  0 0 255
3  207 206 230  0 0 255
3  230 206 219  0 0 255
3  215 230 219  0 0 255
3  215 222 230  0 0 255
3  230 220 231  0 0 255
3  219 206 228  0 0 255
3  211 227 229  0 0 255
3  227 228 206  0 0 255
3  222 220 230  0 0 255
3  210 223 220  0 0 255
3  220 223 209  0 0 255
3  231 220 209  0 0 255
3  227 206 205  0 0 255
3  257 256 304  0 0 255
3  257 304 258  0 0 255
3  194 260 259  0 0 255
3  304 259 258  0 0 255
3  254 253 304  0 0 255
3  253 252 248  0 0 255
3  304 256 255  0 0 255
3  304 255 254  0 0 255
3  232 237 233  0 0 255
3  234 246 250  0 0 255
3  234 235 244  0 0 255
3  245 251 250  0 0 255
3  232 231 225  0 0 255
3  251 249 252  0 0 255
3  233 235 234  0 0 255
3  217 218 227  0 0 255
3  227 218 229  0 0 255
3  217 227 205  0 0 255
3  231 189 225  0 0 255
3  214 217 205  0 0 255
3  213 214 205  0 0 255
3  209 189 231  0 0 255
3  213 204 208  0 0 255
3  204 213 205  0 0 255
3  208 204 203  0 0 255
3  224 189 202  0 0 255
3  203 202 189  0 0 255
3  224 202 190  0 0 255
3  203 189 208  0 0 255
3  190 201 236  0 0 255
3  225 190 232  0 0 255
3  238 235 233  0 0 255
3  236 201 290  0 0 255
3  233 237 238  0 0 255
3  236 290 191  0 0 255
3  302 296 303  0 0 255
3  303 296 200  0 0 255
3  200 192 201  0 0 255
3  301 296 302  0 0 255
3  301 298 296  0 0 255
3  296 192 200  0 0 255
3  290 201 192  0 0 255
3  201 190 202  0 0 255
3  237 232 190  0 0 255
3  304 194 259  0 0 255
3  263 262 264  0 0 255
3  262 261 193  0 0 255
3  264 193 198  0 0 255
3  260 193 261  0 0 255
3  194 193 260  0 0 255
3  265 264 198  0 0 255
3  262 193 264  0 0 255
3  194 304 253  0 0 255
3  253 248 194  0 0 255
3  248 195 194  0 0 255
3  245 249 251  0 0 255
3  278 195 279  0 0 255
3  195 278 194  0 0 255
3  247 280 279  0 0 255
3  247 279 195  0 0 255
3  194 278 199  0 0 255
3  248 252 249  0 0 255
3  198 273 268  0 0 255
3  265 198 267  0 0 255
3  265 267 266  0 0 255
3  267 198 268  0 0 255
3  272 271 274  0 0 255
3  268 273 269  0 0 255
3  199 277 270  0 0 255
3  199 269 273  0 0 255
3  199 270 269  0 0 255
3  277 199 278  0 0 255
3  276 271 270  0 0 255
3  271 276 274  0 0 255
3  276 275 274  0 0 255
3  276 270 277  0 0 255
3  246 245 250  0 0 255
3  244 246 234  0 0 255
3  240 288 197  0 0 255
3  288 240 291  0 0 255
3  288 291 292  0 0 255
3  241 249 245  0 0 255
3  292 291 289  0 0 255
3  289 297 299  0 0 255
3  295 300 298  0 0 255
3  295 294 300  0 0 255
3  293 289 299  0 0 255
3  295 298 301  0 0 255
3  299 300 294  0 0 255
3  296 298 297  0 0 255
3  289 293 292  0 0 255
3  196 239 281  0 0 255
3  196 281 280  0 0 255
3  283 282 284  0 0 255
3  197 281 239  0 0 255
3  305 282 281  0 0 255
3  282 305 284  0 0 255
3  197 288 287  0 0 255
3  294 293 299  0 0 255
3  286 284 305  0 0 255
3  284 286 285  0 0 255
3  287 286 305  0 0 255
3  287 305 197  0 0 255
3  281 197 305  0 0 255
3  196 280 247  0 0 255
3  965 966 1007  255 64 64
3  965 1007 1006  255 64 64
3  265 306 307  255 0 255
3  264 265 307  255 0 255
3  306 968 308  255 0 255
3  307 306 308  255 0 255
3  264 307 309  255 0 255
3  263 264 309  255 0 255
3  307 308 967  255 0 255
3  309 307 967  255 0 255
3  320 310 1009  255 0 255
3  320 1009 319  255 0 255
3  321 311 310  255 0 255
3  321 310 320  255 0 255
3  322 312 311  255 0 255
3  322 311 321  255 0 255
3  323 313 312  255 0 255
3  323 312 322  255 0 255
3  324 314 313  255 0 255
3  324 313 323  255 0 255
3  325 315 314  255 0 255
3  325 314 324  255 0 255
3  326 316 315  255 0 255
3  326 315 325  255 0 255
3  327 317 316  255 0 255
3  327 316 326  255 0 255
3  328 318 317  255 0 255
3  328 317 327  255 0 255
3  329 970 318  255 0 255
3  329 318 328  255 0 255
3  330 320 319  255 0 255
3  330 319 1008  255 0 255
3  331 321 320  255 0 255
3  331 320 330  255 0 255
3  332 322 321  255 0 255
3  332 321 331  255 0 255
3  333 323 322  255 0 255
3  333 322 332  255 0 255
3  1021 324 323  255 0 255
3  1021 323 333  255 0 255
3  334 325 324  255 0 255
3  334 324 1021  255 0 255
3  335 326 325  255 0 255
3  335 325 334  255 0 255
3  336 327 326  255 0 255
3  336 326 335  255 0 255
3  337 328 327  255 0 255
3  337 327 336  255 0 255
3  969 329 328  255 0 255
3  969 328 337  255 0 255
3  112 1022 338  255 255 64
3  116 112 338  255 255 64
3  1022 266 267  255 255 64
3  338 1022 267  255 255 64
3  116 338 340  255 255 64
3  339 116 340  255 255 64
3  338 267 268  255 255 64
3  340 338 268  255 255 64
3  339 340 341  255 255 64
3  971 339 341  255 255 64
3  340 268 269  255 255 64
3  341 340 269  255 255 64
3  270 342 346  255 128 0
3  269 270 346  255 128 0
3  342 343 347  255 128 0
3  346 342 347  255 128 0
3  343 344 348  255 128 0
3  347 343 348  255 128 0
3  344 345 349  255 128 0
3  348 344 349  255 128 0
3  345 120 119  255 128 0
3  349 345 119  255 128 0
3  972 973 1011  255 128 0
3  972 1011 1010  255 128 0
3  1012 1011 973  64 64 255
3  1012 973 974  64 64 255
3  975 350 352  0 0 192
3  351 975 352  0 0 192
3  350 275 276  0 0 192
3  352 350 276  0 0 192
3  351 352 353  0 0 192
3  976 351 353  0 0 192
3  352 276 277  0 0 192
3  353 352 277  0 0 192
3  201 354 355  0 192 0
3  200 201 355  0 192 0
3  354 945 944  0 192 0
3  355 354 944  0 192 0
3  997 996 946  192 0 0
3  997 946 947  192 0 0
3  948 356 357  192 0 0
3  949 948 357  192 0 0
3  356 203 204  192 0 0
3  357 356 204  192 0 0
3  206 358 359  255 0 0
3  205 206 359  255 0 0
3  358 950 360  255 0 0
3  359 358 360  255 0 0
3  205 359 357  255 0 0
3  204 205 357  255 0 0
3  359 360 949  255 0 0
3  357 359 949  255 0 0
3  207 361 491  255 0 0
3  206 207 491  255 0 0
3  361 362 492  255 0 0
3  491 361 492  255 0 0
3  362 363 493  255 0 0
3  492 362 493  255 0 0
3  363 364 494  255 0 0
3  493 363 494  255 0 0
3  364 365 495  255 0 0
3  494 364 495  255 0 0
3  365 366 496  255 0 0
3  495 365 496  255 0 0
3  366 367 497  255 0 0
3  496 366 497  255 0 0
3  367 368 498  255 0 0
3  497 367 498  255 0 0
3  368 369 499  255 0 0
3  498 368 499  255 0 0
3  369 370 500  255 0 0
3  499 369 500  255 0 0
3  370 371 501  255 0 0
3  500 370 501  255 0 0
3  371 372 502  255 0 0
3  501 371 502  255 0 0
3  372 373 503  255 0 0
3  502 372 503  255 0 0
3  373 374 504  255 0 0
3  503 373 504  255 0 0
3  374 375 505  255 0 0
3  504 374 505  255 0 0
3  375 376 506  255 0 0
3  505 375 506  255 0 0
3  376 377 507  255 0 0
3  506 376 507  255 0 0
3  377 378 508  255 0 0
3  507 377 508  255 0 0
3  378 379 509  255 0 0
3  508 378 509  255 0 0
3  379 380 510  255 0 0
3  509 379 510  255 0 0
3  380 381 511  255 0 0
3  510 380 511  255 0 0
3  381 382 512  255 0 0
3  511 381 512  255 0 0
3  382 383 513  255 0 0
3  512 382 513  255 0 0
3  383 384 514  255 0 0
3  513 383 514  255 0 0
3  384 385 515  255 0 0
3  514 384 515  255 0 0
3  385 386 516  255 0 0
3  515 385 516  255 0 0
3  386 387 517  255 0 0
3  516 386 517  255 0 0
3  387 388 518  255 0 0
3  517 387 518  255 0 0
3  388 389 519  255 0 0
3  518 388 519  255 0 0
3  389 390 520  255 0 0
3  519 389 520  255 0 0
3  390 391 521  255 0 0
3  520 390 521  255 0 0
3  391 392 522  255 0 0
3  521 391 522  255 0 0
3  392 393 523  255 0 0
3  522 392 523  255 0 0
3  393 394 524  255 0 0
3  523 393 524  255 0 0
3  394 395 525  255 0 0
3  524 394 525  255 0 0
3  395 396 526  255 0 0
3  525 395 526  255 0 0
3  396 397 527  255 0 0
3  526 396 527  255 0 0
3  397 398 528  255 0 0
3  527 397 528  255 0 0
3  398 399 529  255 0 0
3  528 398 529  255 0 0
3  399 400 530  255 0 0
3  529 399 530  255 0 0
3  400 401 531  255 0 0
3  530 400 531  255 0 0
3  401 402 532  255 0 0
3  531 401 532  255 0 0
3  402 403 533  255 0 0
3  532 402 533  255 0 0
3  403 404 534  255 0 0
3  533 403 534  255 0 0
3  404 405 535  255 0 0
3  534 404 535  255 0 0
3  405 406 536  255 0 0
3  535 405 536  255 0 0
3  406 407 537  255 0 0
3  536 406 537  255 0 0
3  407 408 538  255 0 0
3  537 407 538  255 0 0
3  408 409 539  255 0 0
3  538 408 539  255 0 0
3  409 410 540  255 0 0
3  539 409 540  255 0 0
3  410 411 541  255 0 0
3  540 410 541  255 0 0
3  411 412 542  255 0 0
3  541 411 542  255 0 0
3  412 413 543  255 0 0
3  542 412 543  255 0 0
3  413 414 544  255 0 0
3  543 413 544  255 0 0
3  414 415 545  255 0 0
3  544 414 545  255 0 0
3  415 416 546  255 0 0
3  545 415 546  255 0 0
3  416 417 547  255 0 0
3  546 416 547  255 0 0
3  417 418 548  255 0 0
3  547 417 548  255 0 0
3  418 419 549  255 0 0
3  548 418 549  255 0 0
3  419 420 550  255 0 0
3  549 419 550  255 0 0
3  420 421 551  255 0 0
3  550 420 551  255 0 0
3  421 422 552  255 0 0
3  551 421 552  255 0 0
3  422 423 553  255 0 0
3  552 422 553  255 0 0
3  423 424 554  255 0 0
3  553 423 554  255 0 0
3  424 425 555  255 0 0
3  554 424 555  255 0 0
3  425 426 556  255 0 0
3  555 425 556  255 0 0
3  426 427 557  255 0 0
3  556 426 557  255 0 0
3  427 428 558  255 0 0
3  557 427 558  255 0 0
3  428 429 559  255 0 0
3  558 428 559  255 0 0
3  429 430 560  255 0 0
3  559 429 560  255 0 0
3  430 431 561  255 0 0
3  560 430 561  255 0 0
3  431 432 562  255 0 0
3  561 431 562  255 0 0
3  432 433 563  255 0 0
3  562 432 563  255 0 0
3  433 434 564  255 0 0
3  563 433 564  255 0 0
3  434 435 565  255 0 0
3  564 434 565  255 0 0
3  435 436 566  255 0 0
3  565 435 566  255 0 0
3  436 437 567  255 0 0
3  566 436 567  255 0 0
3  437 438 568  255 0 0
3  567 437 568  255 0 0
3  438 439 569  255 0 0
3  568 438 569  255 0 0
3  439 440 570  255 0 0
3  569 439 570  255 0 0
3  440 441 571  255 0 0
3  570 440 571  255 0 0
3  441 442 572  255 0 0
3  571 441 572  255 0 0
3  442 443 573  255 0 0
3  572 442 573  255 0 0
3  443 444 574  255 0 0
3  573 443 574  255 0 0
3  444 445 575  255 0 0
3  574 444 575  255 0 0
3  445 446 576  255 0 0
3  575 445 576  255 0 0
3  446 447 577  255 0 0
3  576 446 577  255 0 0
3  447 448 578  255 0 0
3  577 447 578  255 0 0
3  448 449 579  255 0 0
3  578 448 579  255 0 0
3  449 450 580  255 0 0
3  579 449 580  255 0 0
3  450 451 581  255 0 0
3  580 450 581  255 0 0
3  451 452 582  255 0 0
3  581 451 582  255 0 0
3  452 453 583  255 0 0
3  582 452 583  255 0 0
3  453 454 584  255 0 0
3  583 453 584  255 0 0
3  454 455 585  255 0 0
3  584 454 585  255 0 0
3  455 456 586  255 0 0
3  585 455 586  255 0 0
3  456 457 587  255 0 0
3  586 456 587  255 0 0
3  457 458 588  255 0 0
3  587 457 588  255 0 0
3  458 459 589  255 0 0
3  588 458 589  255 0 0
3  459 460 590  255 0 0
3  589 459 590  255 0 0
3  460 461 591  255 0 0
3  590 460 591  255 0 0
3  461 462 592  255 0 0
3  591 461 592  255 0 0
3  462 463 593  255 0 0
3  592 462 593  255 0 0
3  463 464 594  255 0 0
3  593 463 594  255 0 0
3  464 465 595  255 0 0
3  594 464 595  255 0 0
3  465 466 596  255 0 0
3  595 465 596  255 0 0
3  466 467 597  255 0 0
3  596 466 597  255 0 0
3  467 468 598  255 0 0
3  597 467 598  255 0 0
3  468 469 599  255 0 0
3  598 468 599  255 0 0
3  469 470 600  255 0 0
3  599 469 600  255 0 0
3  470 471 601  255 0 0
3  600 470 601  255 0 0
3  471 472 602  255 0 0
3  601 471 602  255 0 0
3  472 473 603  255 0 0
3  602 472 603  255 0 0
3  473 474 604  255 0 0
3  603 473 604  255 0 0
3  474 475 605  255 0 0
3  604 474 605  255 0 0
3  475 476 606  255 0 0
3  605 475 606  255 0 0
3  476 477 607  255 0 0
3  606 476 607  255 0 0
3  477 478 608  255 0 0
3  607 477 608  255 0 0
3  478 479 609  255 0 0
3  608 478 609  255 0 0
3  479 480 610  255 0 0
3  609 479 610  255 0 0
3  480 481 611  255 0 0
3  610 480 611  255 0 0
3  481 482 612  255 0 0
3  611 481 612  255 0 0
3  482 483 613  255 0 0
3  612 482 613  255 0 0
3  483 484 614  255 0 0
3  613 483 614  255 0 0
3  484 485 615  255 0 0
3  614 484 615  255 0 0
3  485 486 616  255 0 0
3  615 485 616  255 0 0
3  486 487 617  255 0 0
3  616 486 617  255 0 0
3  487 488 618  255 0 0
3  617 487 618  255 0 0
3  488 489 619  255 0 0
3  618 488 619  255 0 0
3  489 490 620  255 0 0
3  619 489 620  255 0 0
3  490 55 54  255 0 0
3  620 490 54  255 0 0
3  230 621 710  0 255 0
3  207 230 710  0 255 0
3  621 622 711  0 255 0
3  710 621 711  0 255 0
3  622 623 712  0 255 0
3  711 622 712  0 255 0
3  623 624 713  0 255 0
3  712 623 713  0 255 0
3  624 625 714  0 255 0
3  713 624 714  0 255 0
3  625 626 715  0 255 0
3  714 625 715  0 255 0
3  626 627 716  0 255 0
3  715 626 716  0 255 0
3  627 628 717  0 255 0
3  716 627 717  0 255 0
3  628 629 718  0 255 0
3  717 628 718  0 255 0
3  629 630 719  0 255 0
3  718 629 719  0 255 0
3  630 631 720  0 255 0
3  719 630 720  0 255 0
3  631 632 721  0 255 0
3  720 631 721  0 255 0
3  632 633 722  0 255 0
3  721 632 722  0 255 0
3  633 634 723  0 255 0
3  722 633 723  0 255 0
3  634 635 724  0 255 0
3  723 634 724  0 255 0
3  635 636 725  0 255 0
3  724 635 725  0 255 0
3  636 637 726  0 255 0
3  725 636 726  0 255 0
3  637 638 727  0 255 0
3  726 637 727  0 255 0
3  638 639 728  0 255 0
3  727 638 728  0 255 0
3  639 640 729  0 255 0
3  728 639 729  0 255 0
3  640 641 730  0 255 0
3  729 640 730  0 255 0
3  641 642 731  0 255 0
3  730 641 731  0 255 0
3  642 643 732  0 255 0
3  731 642 732  0 255 0
3  643 644 733  0 255 0
3  732 643 733  0 255 0
3  644 645 734  0 255 0
3  733 644 734  0 255 0
3  645 646 735  0 255 0
3  734 645 735  0 255 0
3  646 647 736  0 255 0
3  735 646 736  0 255 0
3  647 648 737  0 255 0
3  736 647 737  0 255 0
3  648 649 738  0 255 0
3  737 648 738  0 255 0
3  649 650 739  0 255 0
3  738 649 739  0 255 0
3  650 651 740  0 255 0
3  739 650 740  0 255 0
3  651 652 741  0 255 0
3  740 651 741  0 255 0
3  652 653 742  0 255 0
3  741 652 742  0 255 0
3  653 654 743  0 255 0
3  742 653 743  0 255 0
3  654 655 744  0 255 0
3  743 654 744  0 255 0
3  655 656 745  0 255 0
3  744 655 745  0 255 0
3  656 657 746  0 255 0
3  745 656 746  0 255 0
3  657 658 747  0 255 0
3  746 657 747  0 255 0
3  658 659 748  0 255 0
3  747 658 748  0 255 0
3  659 660 749  0 255 0
3  748 659 749  0 255 0
3  660 661 750  0 255 0
3  749 660 750  0 255 0
3  661 662 751  0 255 0
3  750 661 751  0 255 0
3  662 663 752  0 255 0
3  751 662 752  0 255 0
3  663 664 753  0 255 0
3  752 663 753  0 255 0
3  664 665 754  0 255 0
3  753 664 754  0 255 0
3  665 666 755  0 255 0
3  754 665 755  0 255 0
3  666 667 756  0 255 0
3  755 666 756  0 255 0
3  667 668 757  0 255 0
3  756 667 757  0 255 0
3  668 669 758  0 255 0
3  757 668 758  0 255 0
3  669 670 759  0 255 0
3  758 669 759  0 255 0
3  670 671 760  0 255 0
3  759 670 760  0 255 0
3  671 672 761  0 255 0
3  760 671 761  0 255 0
3  672 673 762  0 255 0
3  761 672 762  0 255 0
3  673 674 763  0 255 0
3  762 673 763  0 255 0
3  674 675 764  0 255 0
3  763 674 764  0 255 0
3  675 676 765  0 255 0
3  764 675 765  0 255 0
3  676 677 766  0 255 0
3  765 676 766  0 255 0
3  677 678 767  0 255 0
3  766 677 767  0 255 0
3  678 679 768  0 255 0
3  767 678 768  0 255 0
3  679 680 769  0 255 0
3  768 679 769  0 255 0
3  680 681 770  0 255 0
3  769 680 770  0 255 0
3  681 682 771  0 255 0
3  770 681 771  0 255 0
3  682 683 772  0 255 0
3  771 682 772  0 255 0
3  683 684 773  0 255 0
3  772 683 773  0 255 0
3  684 685 774  0 255 0
3  773 684 774  0 255 0
3  685 686 775  0 255 0
3  774 685 775  0 255 0
3  686 687 776  0 255 0
3  775 686 776  0 255 0
3  687 688 777  0 255 0
3  776 687 777  0 255 0
3  688 689 778  0 255 0
3  777 688 778  0 255 0
3  689 690 779  0 255 0
3  778 689 779  0 255 0
3  690 691 780  0 255 0
3  779 690 780  0 255 0
3  691 692 781  0 255 0
3  780 691 781  0 255 0
3  692 693 782  0 255 0
3  781 692 782  0 255 0
3  693 694 783  0 255 0
3  782 693 783  0 255 0
3  694 695 784  0 255 0
3  783 694 784  0 255 0
3  695 696 785  0 255 0
3  784 695 785  0 255 0
3  696 697 786  0 255 0
3  785 696 786  0 255 0
3  697 698 787  0 255 0
3  786 697 787  0 255 0
3  698 699 788  0 255 0
3  787 698 788  0 255 0
3  699 700 789  0 255 0
3  788 699 789  0 255 0
3  700 701 790  0 255 0
3  789 700 790  0 255 0
3  701 702 791  0 255 0
3  790 701 791  0 255 0
3  702 703 792  0 255 0
3  791 702 792  0 255 0
3  703 704 793  0 255 0
3  792 703 793  0 255 0
3  704 705 794  0 255 0
3  793 704 794  0 255 0
3  705 706 795  0 255 0
3  794 705 795  0 255 0
3  706 707 796  0 255 0
3  795 706 796  0 255 0
3  707 708 797  0 255 0
3  796 707 797  0 255 0
3  708 709 798  0 255 0
3  797 708 798  0 255 0
3  709 81 55  0 255 0
3  798 709 55  0 255 0
3  951 952 999  0 255 0
3  951 999 998  0 255 0
3  813 799 1001  0 255 0
3  813 1001 812  0 255 0
3  814 800 799  0 255 0
3  814 799 813  0 255 0
3  815 801 800  0 255 0
3  815 800 814  0 255 0
3  816 802 801  0 255 0
3  816 801 815  0 255 0
3  817 803 802  0 255 0
3  817 802 816  0 255 0
3  818 804 803  0 255 0
3  818 803 817  0 255 0
3  819 805 804  0 255 0
3  819 804 818  0 255 0
3  820 806 805  0 255 0
3  820 805 819  0 255 0
3  821 807 806  0 255 0
3  821 806 820  0 255 0
3  822 808 807  0 255 0
3  822 807 821  0 255 0
3  823 809 808  0 255 0
3  823 808 822  0 255 0
3  824 810 809  0 255 0
3  824 809 823  0 255 0
3  825 811 810  0 255 0
3  825 810 824  0 255 0
3  826 954 811  0 255 0
3  826 811 825  0 255 0
3  827 813 812  0 255 0
3  827 812 1000  0 255 0
3  828 814 813  0 255 0
3  828 813 827  0 255 0
3  829 815 814  0 255 0
3  829 814 828  0 255 0
3  830 816 815  0 255 0
3  830 815 829  0 255 0
3  831 817 816  0 255 0
3  831 816 830  0 255 0
3  832 818 817  0 255 0
3  832 817 831  0 255 0
3  833 819 818  0 255 0
3  833 818 832  0 255 0
3  834 820 819  0 255 0
3  834 819 833  0 255 0
3  835 821 820  0 255 0
3  835 820 834  0 255 0
3  836 822 821  0 255 0
3  836 821 835  0 255 0
3  837 823 822  0 255 0
3  837 822 836  0 255 0
3  838 824 823  0 255 0
3  838 823 837  0 255 0
3  839 825 824  0 255 0
3  839 824 838  0 255 0
3  953 826 825  0 255 0
3  953 825 839  0 255 0
3  250 840 1023  128 0 255
3  234 250 1023  128 0 255
3  840 841 1024  128 0 255
3  1023 840 1024  128 0 255
3  841 842 1025  128 0 255
3  1024 841 1025  128 0 255
3  842 843 1026  128 0 255
3  1025 842 1026  128 0 255
3  843 844 1027  128 0 255
3  1026 843 1027  128 0 255
3  844 845 1028  128 0 255
3  1027 844 1028  128 0 255
3  845 88 87  128 0 255
3  1028 845 87  128 0 255
3  956 957 1003  128 0 255
3  956 1003 846  128 0 255
3  955 956 846  128 0 255
3  955 846 1002  128 0 255
3  958 847 848  64 255 64
3  959 958 848  64 255 64
3  847 253 254  64 255 64
3  848 847 254  64 255 64
3  959 848 849  64 255 64
3  960 959 849  64 255 64
3  848 254 255  64 255 64
3  849 848 255  64 255 64
3  961 962 1005  192 192 0
3  961 1005 1004  192 192 0
3  258 850 851  64 255 255
3  257 258 851  64 255 255
3  850 964 963  64 255 255
3  851 850 963  64 255 255
3  259 852 850  64 255 255
3  258 259 850  64 255 255
3  852 103 964  64 255 255
3  850 852 964  64 255 255
3  260 853 852  64 255 255
3  259 260 852  64 255 255
3  853 104 103  64 255 255
3  852 853 103  64 255 255
3  976 353 854  0 0 192
3  977 976 854  0 0 192
3  353 277 278  0 0 192
3  854 353 278  0 0 192
3  1014 1013 978  0 192 192
3  1014 978 979  0 192 192
3  282 855 856  255 64 255
3  281 282 856  255 64 255
3  855 981 980  255 64 255
3  856 855 980  255 64 255
3  283 857 855  255 64 255
3  282 283 855  255 64 255
3  857 982 981  255 64 255
3  855 857 981  255 64 255
3  982 857 859  255 128 255
3  858 982 859  255 128 255
3  857 283 284  255 128 255
3  859 857 284  255 128 255
3  858 859 860  255 128 255
3  983 858 860  255 128 255
3  859 284 285  255 128 255
3  860 859 285  255 128 255
3  1016 1015 984  128 255 128
3  1016 984 985  128 255 128
3  146 861 863  128 255 128
3  147 146 863  128 255 128
3  861 862 864  128 255 128
3  863 861 864  128 255 128
3  862 287 288  128 255 128
3  864 862 288  128 255 128
3  147 865 869  0 255 255
3  148 147 869  0 255 255
3  865 866 870  0 255 255
3  869 865 870  0 255 255
3  866 867 871  0 255 255
3  870 866 871  0 255 255
3  867 868 872  0 255 255
3  871 867 872  0 255 255
3  868 288 292  0 255 255
3  872 868 292  0 255 255
3  1018 1017 986  0 255 255
3  1018 986 987  0 255 255
3  889 873 988  0 255 255
3  889 988 888  0 255 255
3  890 874 873  0 255 255
3  890 873 889  0 255 255
3  891 875 874  0 255 255
3  891 874 890  0 255 255
3  892 876 875  0 255 255
3  892 875 891  0 255 255
3  893 877 876  0 255 255
3  893 876 892  0 255 255
3  894 878 877  0 255 255
3  894 877 893  0 255 255
3  895 879 878  0 255 255
3  895 878 894  0 255 255
3  896 880 879  0 255 255
3  896 879 895  0 255 255
3  897 881 880  0 255 255
3  897 880 896  0 255 255
3  898 882 881  0 255 255
3  898 881 897  0 255 255
3  899 883 882  0 255 255
3  899 882 898  0 255 255
3  900 884 883  0 255 255
3  900 883 899  0 255 255
3  901 885 884  0 255 255
3  901 884 900  0 255 255
3  902 886 885  0 255 255
3  902 885 901  0 255 255
3  903 887 886  0 255 255
3  903 886 902  0 255 255
3  904 1019 887  0 255 255
3  904 887 903  0 255 255
3  905 889 888  0 255 255
3  905 888 989  0 255 255
3  906 890 889  0 255 255
3  906 889 905  0 255 255
3  907 891 890  0 255 255
3  907 890 906  0 255 255
3  908 892 891  0 255 255
3  908 891 907  0 255 255
3  909 893 892  0 255 255
3  909 892 908  0 255 255
3  910 894 893  0 255 255
3  910 893 909  0 255 255
3  911 895 894  0 255 255
3  911 894 910  0 255 255
3  912 896 895  0 255 255
3  912 895 911  0 255 255
3  913 897 896  0 255 255
3  913 896 912  0 255 255
3  914 898 897  0 255 255
3  914 897 913  0 255 255
3  915 899 898  0 255 255
3  915 898 914  0 255 255
3  916 900 899  0 255 255
3  916 899 915  0 255 255
3  917 901 900  0 255 255
3  917 900 916  0 255 255
3  918 902 901  0 255 255
3  918 901 917  0 255 255
3  919 903 902  0 255 255
3  919 902 918  0 255 255
3  1020 904 903  0 255 255
3  1020 903 919  0 255 255
3  990 1029 920  128 128 0
3  942 990 920  128 128 0
3  1029 295 301  128 128 0
3  920 1029 301  128 128 0
3  942 920 921  128 128 0
3  943 942 921  128 128 0
3  920 301 302  128 128 0
3  921 920 302  128 128 0
3  200 355 922  0 192 0
3  303 200 922  0 192 0
3  355 944 923  0 192 0
3  922 355 923  0 192 0
3  303 922 921  0 192 0
3  302 303 921  0 192 0
3  922 923 943  0 192 0
3  921 922 943  0 192 0
3  931 932 930  128 128 255
3  931 930 929  128 128 255
3  940 941 936  128 255 255
3  940 936 937  128 255 255
3  26 25 165  64 128 255
3  26 165 164  64 128 255
3  166 165 25  128 255 255
3  166 25 24  128 255 255
3  20 19 995  0 255 255
3  20 995 924  0 255 255
3  15 20 924  0 255 255
3  15 924 994  0 255 255
3  169 995 19  255 128 64
3  169 19 939  255 128 64
3  170 169 939  192 0 192
3  170 939 938  192 0 192
3  171 170 22  192 0 192
3  171 22 21  192 0 192
3  21 26 164  255 64 128
3  21 164 171  255 64 128
3  926 934 992  128 0 128
3  926 992 925  128 0 128
3  935 926 925  128 0 128
3  935 925 991  128 0 128
3  928 992 934  128 128 255
3  928 934 927  128 128 255
3  993 928 927  128 128 255
3  993 927 933  128 128 255
3  4 3 158  128 64 255
3  4 158 157  128 64 255
3  160 158 3  128 255 64
3  160 3 1  128 255 64
3  161 160 1  0 128 128
3  161 1 0  0 128 128
3  162 161 7  0 128 128
3  162 7 6  0 128 128
3  6 935 991  64 255 128
3  6 991 162  64 255 128

