OFF
163 193 0

-6.21357 18.706 10.7786
-6.21357 16.4703 10.7786
-6.58413 18.706 10.5719
-7.66417 18.706 9.96943
-10.5332 18.706 8.3691
-10.8378 18.706 8.19922
-10.8378 16.4703 8.19922
-10.5332 16.4703 8.3691
-6.58413 16.4703 10.5719
4.47828 18.706 -11.7975
8.5895 18.706 -9.50421
4.47828 16.4703 -11.7975
5.55762 16.4703 -11.1954
8.5895 16.4703 -9.50421
-10.4413 16.4703 8.20432
-11.9119 16.4703 7.6001
-10.6808 16.4703 5.39316
-12.1465 16.4703 10.5454
-11.8419 16.4703 10.7153
-16.1488 16.4703 8.31291
-13.609 16.4703 3.75978
-14.8401 16.4703 5.96678
-13.2075 16.4703 3.04002
-13.2075 -21.0029 3.04002
-17.3962 -21.0029 10.5493
-17.635 -21.0029 10.9774
13.7997 16.4703 -10.3955
14.2278 16.4703 -11.1629
9.77128 16.4703 -3.17353
9.77128 -21.0029 -3.17353
13.7997 -21.0029 -10.3955
14.2278 -21.0029 -11.1629
6.09391 16.4703 -14.6937
6.09391 -21.0029 -14.6937
7.17316 16.4703 -14.0917
7.17316 -21.0029 -14.0917
-4.95164 16.4703 7.6452
3.14459 16.4703 -6.86943
4.17959 16.4703 -8.72493
4.21815 16.4703 -14.7547
5.67469 16.4703 -13.9422
-9.30222 16.4703 6.16217
-1.60455 16.4703 -7.6381
-0.804694 16.4703 -9.07207
-1.60455 -21.0029 -7.6381
-0.804694 -21.0029 -9.07207
3.22394 -21.0029 -16.2946
-8.90072 -21.0029 5.44237
-8.90072 16.4703 5.44237
-13.0894 16.4703 12.9517
-19.658 16.4703 24.7279
-19.658 -21.0029 24.7279
-13.0894 -21.0029 12.9517
10.6334 16.4703 -13.1678
17.0319 16.4703 -24.6371
10.2053 16.4703 -12.4004
9.78599 16.4703 -11.6489
7.21132 16.4703 -7.03384
6.17628 16.4703 -5.17857
6.17628 -21.0029 -5.17857
10.2053 -21.0029 -12.4004
10.6334 -21.0029 -13.1678
17.0319 -21.0029 -24.6371
-1.52903 16.4703 8.63304
-1.52903 -21.0029 8.63304
-1.92103 16.4703 9.33569
-4.86257 16.4703 14.6083
-6.11023 16.4703 16.8447
-6.11023 -21.0029 16.8447
-17.633 -21.0029 0.571418
-17.633 16.4703 0.571418
15.825 16.4703 0.202827
15.825 -21.0029 0.202827
-12.1465 21.1029 10.5454
-10.8378 21.1029 8.19922
-12.1465 18.706 10.5454
-10.5332 21.1029 8.3691
-5.35315 18.706 8.36501
-4.98259 18.706 8.57172
-4.98259 16.4703 8.57172
-5.35315 16.4703 8.36501
1.64377 16.4703 -10.1394
3.02182 16.4703 -12.6099
-6.43311 18.706 7.7626
-6.43311 16.4703 7.7626
-7.52228 18.706 13.1247
-7.52228 16.4703 13.1247
-4.58108 16.4703 7.8519
-7.89283 18.706 12.9181
-7.89283 16.4703 12.9181
-9.30222 18.706 6.16217
-6.21357 21.1029 10.7786
-6.58413 21.1029 10.5719
-7.52228 21.1029 13.1247
-7.89283 21.1029 12.9181
-11.8419 21.1029 10.7153
-11.8419 18.706 10.7153
-9.60676 18.706 5.99229
-9.60676 16.4703 5.99229
-7.66417 21.1029 9.96943
3.02182 18.706 -12.6099
4.21815 18.706 -14.7547
0.230404 16.4703 -10.9278
3.10016 16.4703 -9.32703
3.10016 21.1029 -9.32703
7.21132 21.1029 -7.03384
-8.97294 18.706 12.3156
-8.97294 21.1029 12.3156
-9.14033 16.4703 15.1545
-8.97294 16.4703 12.3156
3.10016 18.706 -9.32703
7.21132 18.706 -7.03384
25.2763 16.4703 -3.99392
25.2763 -21.0029 -3.99392
25.7055 -21.0029 -4.76061
25.7055 16.4703 -4.76061
-6.03158 16.4703 7.0428
-10.2205 16.4703 14.552
2.06508 16.4703 -7.47151
12.9201 16.4703 -26.9306
12.9201 -21.0029 -26.9306
-17.635 16.4703 10.9774
21.2368 16.4703 3.22116
21.2368 -21.0029 3.22116
-21.2654 -21.0029 -1.45473
-21.2654 16.4703 -1.45473
-25.4541 16.4703 6.05454
-25.4541 -21.0029 6.05454
-9.53731 16.4703 -13.9425
-9.53731 -21.0029 -13.9425
-10.3369 -21.0029 -12.509
-10.3369 16.4703 -12.509
-15.7091 16.4703 26.9307
-15.7091 -21.0029 26.9307
-17.3962 16.4703 10.5493
3.22394 16.4703 -16.2946
-23.965 16.4703 22.3254
-23.965 -21.0029 22.3254
5.19583 16.4703 -10.5468
6.75396 16.4703 -13.3402
13.999 16.4703 -26.3288
13.999 -21.0029 -26.3288
3.14459 -21.0029 -6.86943
-9.14033 -21.0029 15.1545
2.06508 -21.0029 -7.47151
5.67469 18.706 -13.9422
9.78599 18.706 -11.6489
3.53964 16.4703 22.2275
8.12035 16.4703 14.0154
8.12035 -21.0029 14.0154
3.53964 -21.0029 22.2275
1.60844 16.4703 -13.3983
2.80477 16.4703 -15.5431
-25.6928 16.4703 6.48245
-25.6928 -21.0029 6.48245
-5.50844 16.4703 -21.1654
-5.50844 -21.0029 -21.1654
8.5895 21.1029 -9.50421
4.47828 21.1029 -11.7975
-11.9119 18.706 7.6001
-10.6808 18.706 5.39316
20.6256 16.4703 -22.6325
20.6256 -21.0029 -22.6325
5  59 142 143 68 64  255 0 0
4  59 29 30 60  255 117 0
4  58 37 38 57  255 0 0
4  58 28 29 59  255 117 0
6  58 63 65 87 36 37  255 0 0
4  59 64 63 58  255 0 0
5  43 118 116 48 42  255 235 0
7  43 128 155 135 152 151 102  156 255 0
4  45 129 130 44  156 255 0
4  45 144 33 46  255 235 0
4  43 42 131 128  156 255 0
7  45 44 47 52 143 142 144  255 235 0
7  58 57 13 56 55 26 28  255 117 0
4  59 60 35 142  255 0 0
5  43 102 81 103 118  255 235 0
4  45 46 156 129  156 255 0
5  60 61 62 141 35  255 0 0
4  55 53 27 26  255 117 0
4  55 56 139 34  255 0 0
4  60 30 31 61  255 117 0
5  49 50 136 121 134  39 255 0
4  49 18 109 117  255 235 0
4  52 47 23 24  39 255 0
4  52 51 133 143  255 235 0
5  49 134 19 17 18  39 255 0
5  52 24 25 137 51  39 255 0
6  48 41 98 16 20 22  39 255 0
4  47 44 42 48  255 235 0
4  47 48 22 23  39 255 0
6  67 66 65 63 148 147  0 255 78
4  68 150 149 64  0 255 78
4  68 67 147 150  0 255 78
4  46 135 155 156  156 255 0
4  128 129 156 155  156 255 0
5  26 112 122 71 28  0 255 196
4  30 113 114 31  0 255 196
4  26 27 115 112  0 255 196
4  64 149 148 63  0 255 78
4  150 147 148 149  0 255 78
4  118 37 36 116  255 235 0
4  144 142 35 33  255 235 0
4  118 103 38 37  255 235 0
4  28 71 72 29  0 255 196
5  29 72 123 113 30  0 255 196
5  67 108 89 86 66  255 0 0
5  49 117 108 132 50  255 235 0
4  67 68 143 108  255 0 0
4  108 117 109 89  255 235 0
4  143 133 132 108  255 235 0
8  134 126 125 70 22 20 21 19  0 196 255
4  24 127 154 25  0 196 255
4  134 121 153 126  0 196 255
4  22 70 69 23  0 196 255
5  23 69 124 127 24  0 196 255
4  137 25 121 136  39 255 0
4  137 136 50 51  39 255 0
5  32 40 39 152 135  255 235 0
4  32 119 140 34  0 78 255
4  33 120 119 32  0 78 255
4  135 46 33 32  255 235 0
4  31 162 62 61  255 117 0
4  27 161 162 31  255 117 0
4  31 114 115 27  0 255 196
4  51 50 132 133  255 235 0
4  53 54 161 27  255 117 0
5  53 55 34 140 54  255 0 0
4  62 162 161 54  255 117 0
4  44 130 131 42  156 255 0
4  131 130 129 128  156 255 0
4  124 69 70 125  0 196 255
4  127 124 125 126  0 196 255
4  123 72 71 122  0 255 196
4  113 123 122 112  0 255 196
4  25 154 153 121  0 196 255
4  33 35 141 120  0 78 255
4  32 34 139 40  255 235 0
4  120 141 140 119  0 78 255
4  62 54 140 141  255 0 0
6  65 66 86 1 79 87  255 0 0
4  116 84 41 48  255 235 0
4  116 36 80 84  255 235 0
4  115 114 113 112  0 255 196
4  103 11 9 110  39 0 255
4  110 9 158 104  39 0 255
4  111 10 13 57  39 0 255
5  111 57 38 103 110  39 0 255
4  106 109 18 96  156 0 255
4  36 87 79 80  255 0 0
4  107 99 92 94  156 0 255
4  95 76 99 107  156 0 255
4  107 106 96 95  156 0 255
4  83 3 4 90  255 0 117
4  3 83 77 2  255 0 117
4  76 95 73 74  156 0 255
4  3 99 76 4  156 0 255
4  105 157 10 111  39 0 255
4  104 158 157 105  39 0 255
4  105 111 110 104  39 0 255
4  145 9 100 101  255 0 235
4  146 10 9 145  255 0 235
4  10 146 56 13  255 0 235
4  10 157 158 9  39 0 255
4  102 151 82 81  255 235 0
4  103 81 82 11  255 235 0
4  94 92 91 93  156 0 255
4  94 88 106 107  156 0 255
4  88 89 109 106  156 0 255
4  154 127 126 153  0 196 255
4  152 39 82 151  255 235 0
4  40 145 101 39  255 0 235
4  9 11 82 100  255 0 235
5  40 139 56 146 145  255 0 235
4  82 39 101 100  255 0 235
4  2 92 99 3  156 0 255
4  2 77 78 0  255 0 117
4  90 4 5 97  255 0 117
5  19 21 15 6 17  39 255 0
4  18 17 75 96  156 0 255
4  20 16 15 21  39 255 0
4  41 90 97 98  255 0 117
4  97 160 16 98  255 0 117
4  5 159 160 97  255 0 117
4  6 15 159 5  255 0 117
4  15 16 160 159  255 0 117
4  96 75 73 95  156 0 255
4  88 94 93 85  156 0 255
4  85 93 91 0  156 0 255
4  2 0 91 92  156 0 255
4  90 41 84 83  255 0 117
4  89 88 85 86  156 0 255
4  86 85 0 1  156 0 255
4  0 78 79 1  255 0 117
4  84 80 77 83  255 0 117
4  17 6 5 75  156 0 255
4  80 79 78 77  255 0 117
4  5 4 76 74  156 0 255
4  75 5 74 73  156 0 255
6  68 64 63 65 66 67  0 255 78
6  64 68 67 66 65 63  255 0 0
11  62 54 53 55 56 13 57 58 59 60 61  255 117 0
11  54 62 61 60 59 58 57 13 56 55 53  255 0 0
6  52 47 18 49 50 51  255 235 0
6  47 52 51 50 49 18  39 255 0
3  48 41 47  255 235 0
3  41 48 47  39 255 0
4  18 47 14 7  255 235 0
4  47 18 7 14  39 255 0
3  47 14 41  39 255 0
3  47 41 14  255 235 0
9  45 46 135 152 151 102 43 42 44  255 235 0
9  46 45 44 42 43 102 151 152 135  156 255 0
6  84 41 14 7 8 80  255 0 117
6  41 84 80 8 7 14  255 235 0
4  79 80 8 1  255 0 117
4  80 79 1 8  255 0 0
4  86 1 8 89  156 0 255
4  86 89 8 1  255 0 0
5  109 89 8 7 18  156 0 255
5  89 109 18 7 8  255 235 0
5  40 39 11 12 139  255 0 235
5  39 40 139 12 11  255 235 0
4  56 139 12 13  255 0 235
4  57 13 12 138  39 0 255
4  56 13 12 139  255 0 0
4  103 38 138 11  39 0 255
3  57 38 138  255 0 0
4  103 11 138 38  255 235 0
3  82 11 39  255 0 235
3  11 82 39  255 235 0
3  11 138 12  39 0 255
3  57 138 38  39 0 255
4  57 138 12 13  255 0 0
3  138 11 12  255 235 0
14  143 108 89 8 80 36 37 38 138 12 139 34 35 142  255 235 0
14  108 143 142 35 34 139 12 138 38 37 36 80 8 89  255 0 0
4  141 35 34 140  0 78 255
4  35 141 140 34  255 0 0
4  35 33 32 34  0 78 255
4  33 35 34 32  255 235 0
6  31 27 26 28 29 30  0 255 196
6  27 31 30 29 28 26  255 117 0
9  24 25 121 134 19 21 20 22 23  0 196 255
9  25 24 23 22 20 21 19 134 121  39 255 0
6  98 16 15 6 14 41  255 0 117
6  16 98 41 14 6 15  39 255 0
4  18 7 6 17  156 0 255
3  14 7 6  39 255 0
4  18 17 6 7  39 255 0
3  14 6 7  255 0 117
5  13 10 9 11 12  39 0 255
5  10 13 12 11 9  255 0 235
9  8 1 0 2 3 4 5 6 7  156 0 255
9  1 8 7 6 5 4 3 2 0  255 0 117

