OFF
148 145 0

3.22394 16.4703 -16.2946
3.22394 -21.0029 -16.2946
2.80477 16.4703 -15.5431
1.60844 16.4703 -13.3983
0.230404 16.4703 -10.9278
-0.804694 16.4703 -9.07207
-11.8419 16.4703 10.7153
-19.658 16.4703 24.7279
-13.0894 16.4703 12.9517
-19.658 -21.0029 24.7279
-13.0894 -21.0029 12.9517
-1.92103 16.4703 9.33569
-6.11023 16.4703 16.8447
-4.86257 16.4703 14.6083
-6.11023 -21.0029 16.8447
-1.52903 -21.0029 8.63304
-17.633 -21.0029 0.571418
-17.633 16.4703 0.571418
15.825 16.4703 0.202827
15.825 -21.0029 0.202827
-12.1465 21.1029 10.5454
-10.8378 21.1029 8.19922
-10.8378 18.706 8.19922
-12.1465 18.706 10.5454
-10.5332 18.706 8.3691
-10.5332 21.1029 8.3691
-5.35315 18.706 8.36501
-4.98259 18.706 8.57172
-4.98259 16.4703 8.57172
-5.35315 16.4703 8.36501
-10.8378 16.4703 8.19922
-12.1465 16.4703 10.5454
1.64377 16.4703 -10.1394
3.02182 16.4703 -12.6099
-6.43311 18.706 7.7626
-6.43311 16.4703 7.7626
-6.21357 18.706 10.7786
-7.52228 18.706 13.1247
-7.52228 16.4703 13.1247
-4.58108 16.4703 7.8519
-7.89283 18.706 12.9181
-7.89283 16.4703 12.9181
-9.30222 16.4703 6.16217
-9.30222 18.706 6.16217
-6.21357 21.1029 10.7786
-6.58413 21.1029 10.5719
-6.58413 18.706 10.5719
-11.8419 21.1029 10.7153
-11.8419 18.706 10.7153
-11.9119 18.706 7.6001
-10.6808 18.706 5.39316
-10.6808 16.4703 5.39316
-11.9119 16.4703 7.6001
-9.60676 18.706 5.99229
-9.60676 16.4703 5.99229
-14.8401 16.4703 5.96678
-13.609 16.4703 3.75978
-16.1488 16.4703 8.31291
-7.66417 21.1029 9.96943
-7.66417 18.706 9.96943
3.02182 18.706 -12.6099
4.21815 18.706 -14.7547
4.21815 16.4703 -14.7547
5.67469 18.706 -13.9422
9.78599 18.706 -11.6489
9.78599 16.4703 -11.6489
5.67469 16.4703 -13.9422
4.47828 16.4703 -11.7975
4.47828 18.706 -11.7975
-25.4541 -21.0029 6.05454
-25.4541 16.4703 6.05454
-25.6928 16.4703 6.48245
-25.6928 -21.0029 6.48245
-8.97294 18.706 12.3156
-8.97294 16.4703 12.3156
-8.97294 21.1029 12.3156
-7.89283 21.1029 12.9181
3.10016 16.4703 -9.32703
8.5895 21.1029 -9.50421
4.47828 21.1029 -11.7975
8.5895 18.706 -9.50421
3.10016 21.1029 -9.32703
3.10016 18.706 -9.32703
7.21132 18.706 -7.03384
7.21132 21.1029 -7.03384
25.2763 -21.0029 -3.99392
25.7055 16.4703 -4.76061
25.7055 -21.0029 -4.76061
-6.03158 16.4703 7.0428
-8.90072 16.4703 5.44237
-17.635 16.4703 10.9774
-17.635 -21.0029 10.9774
25.2763 16.4703 -3.99392
21.2368 16.4703 3.22116
21.2368 -21.0029 3.22116
-21.2654 -21.0029 -1.45473
-21.2654 16.4703 -1.45473
-9.53731 16.4703 -13.9425
-9.53731 -21.0029 -13.9425
-10.3369 -21.0029 -12.509
-10.3369 16.4703 -12.509
-1.60455 16.4703 -7.6381
-0.804694 -21.0029 -9.07207
-1.60455 -21.0029 -7.6381
6.17628 16.4703 -5.17857
-7.52228 21.1029 13.1247
6.17628 -21.0029 -5.17857
17.0319 16.4703 -24.6371
20.6256 16.4703 -22.6325
20.6256 -21.0029 -22.6325
17.0319 -21.0029 -24.6371
14.2278 16.4703 -11.1629
10.6334 16.4703 -13.1678
14.2278 -21.0029 -11.1629
10.6334 -21.0029 -13.1678
-15.7091 16.4703 26.9307
-15.7091 -21.0029 26.9307
6.09391 16.4703 -14.6937
6.09391 -21.0029 -14.6937
-23.965 16.4703 22.3254
-23.965 -21.0029 22.3254
-13.2075 16.4703 3.04002
-13.2075 -21.0029 3.04002
-17.3962 16.4703 10.5493
2.06508 -21.0029 -7.47151
-9.14033 16.4703 15.1545
-9.14033 -21.0029 15.1545
2.06508 16.4703 -7.47151
-8.90072 -21.0029 5.44237
9.77128 16.4703 -3.17353
-4.95164 16.4703 7.6452
9.77128 -21.0029 -3.17353
3.53964 16.4703 22.2275
-1.52903 16.4703 8.63304
8.12035 16.4703 14.0154
8.12035 -21.0029 14.0154
3.53964 -21.0029 22.2275
13.7997 -21.0029 -10.3955
13.7997 16.4703 -10.3955
7.21132 16.4703 -7.03384
-5.50844 16.4703 -21.1654
-5.50844 -21.0029 -21.1654
10.2053 16.4703 -12.4004
-10.2205 16.4703 14.552
12.9201 16.4703 -26.9306
12.9201 -21.0029 -26.9306
10.2053 -21.0029 -12.4004
-17.3962 -21.0029 10.5493
9  106 124 102 103 128 10 126 14 15  0 255 102
4  106 131 137 146  203 255 0
4  104 127 77 139  0 255 102
4  104 129 131 106  203 255 0
7  104 133 11 39 130 88 127  0 255 102
4  106 15 133 104  0 255 102
5  5 127 88 89 101  0 255 102
7  5 97 140 0 2 3 4  204 0 255
4  102 98 99 103  204 0 255
4  102 124 118 1  0 255 102
4  5 101 100 97  204 0 255
6  104 139 65 142 138 129  203 255 0
4  106 146 118 124  0 255 102
5  5 4 32 77 127  0 255 102
4  102 1 141 98  204 0 255
5  146 114 110 145 118  0 255 102
4  142 112 111 138  203 255 0
4  142 65 66 117  0 255 102
4  146 137 113 114  203 255 0
5  8 7 119 90 123  0 102 255
4  8 6 74 143  0 255 102
4  10 128 122 147  0 102 255
4  10 9 116 126  0 255 102
5  8 123 57 31 6  0 102 255
5  10 147 91 120 9  0 102 255
6  89 42 54 51 56 121  0 102 255
4  128 103 101 89  0 255 102
4  128 89 121 122  0 102 255
6  12 13 11 133 134 132  255 0 0
4  14 136 135 15  255 0 0
4  14 12 132 136  255 0 0
4  1 0 140 141  204 0 255
4  97 98 141 140  204 0 255
5  138 92 93 18 129  203 255 0
4  137 85 87 113  203 255 0
4  138 111 86 92  203 255 0
4  15 135 134 133  255 0 0
4  136 132 134 135  255 0 0
4  129 18 19 131  203 255 0
5  131 19 94 85 137  203 255 0
5  12 125 41 38 13  0 255 102
5  8 143 125 115 7  0 255 102
4  12 14 126 125  0 255 102
4  125 143 74 41  0 255 102
4  126 116 115 125  0 255 102
8  123 70 96 17 121 56 55 57  0 102 255
4  147 69 72 91  0 102 255
4  123 90 71 70  0 102 255
4  121 17 16 122  0 102 255
5  122 16 95 69 147  0 102 255
4  120 91 90 119  0 102 255
4  120 119 7 9  0 102 255
5  117 66 62 2 0  0 255 102
5  117 144 107 112 142  0 255 102
4  118 145 144 117  0 255 102
4  0 1 118 117  0 255 102
4  113 109 110 114  203 255 0
4  111 108 109 113  203 255 0
4  113 87 86 111  203 255 0
4  9 7 115 116  0 255 102
4  112 107 108 111  203 255 0
4  110 109 108 107  203 255 0
4  103 99 100 101  204 0 255
4  100 99 98 97  204 0 255
4  95 16 17 96  0 102 255
4  69 95 96 70  0 102 255
4  94 19 18 93  203 255 0
4  85 94 93 92  203 255 0
4  91 72 71 90  0 102 255
4  145 110 107 144  0 255 102
5  11 13 38 28 39  0 255 102
4  88 35 42 89  0 255 102
4  88 130 29 35  0 255 102
4  86 87 85 92  203 255 0
4  77 67 68 82  0 255 102
4  82 68 79 81  0 255 102
5  83 80 64 65 139  0 255 102
4  83 139 77 82  0 255 102
4  73 74 6 48  0 255 102
4  130 39 28 29  0 255 102
4  75 58 45 76  0 255 102
4  47 25 58 75  0 255 102
4  75 73 48 47  0 255 102
4  34 59 24 43  0 255 102
4  59 34 26 46  0 255 102
4  25 47 20 21  0 102 255
4  59 58 25 24  0 255 102
4  84 78 80 83  0 255 102
4  81 79 78 84  0 255 102
4  84 83 82 81  0 255 102
4  63 68 60 61  0 255 102
4  64 80 68 63  0 255 102
4  80 78 79 68  0 255 102
4  4 3 33 32  0 255 102
4  77 32 33 67  0 255 102
4  76 45 44 105  0 255 102
4  76 40 73 75  0 255 102
4  40 41 74 73  0 255 102
4  72 69 70 71  0 102 255
4  2 62 33 3  0 255 102
4  66 63 61 62  0 255 102
4  68 67 33 60  0 255 102
4  66 65 64 63  0 255 102
4  33 62 61 60  0 255 102
4  46 45 58 59  0 255 102
4  46 26 27 36  0 255 102
4  43 24 22 53  0 102 255
5  57 55 52 30 31  0 102 255
4  6 31 23 48  0 102 255
4  56 51 52 55  0 102 255
4  42 43 53 54  0 102 255
4  53 50 51 54  0 102 255
4  22 49 50 53  0 102 255
4  30 52 49 22  0 102 255
4  52 51 50 49  0 102 255
4  48 23 20 47  0 102 255
4  40 76 105 37  0 255 102
4  37 105 44 36  0 255 102
4  46 36 44 45  0 255 102
4  43 42 35 34  0 255 102
4  41 40 37 38  0 255 102
5  38 37 36 27 28  0 255 102
4  35 29 26 34  0 255 102
4  31 30 22 23  0 102 255
4  29 28 27 26  0 255 102
4  22 24 25 21  0 102 255
4  23 22 21 20  0 102 255
6  14 15 133 11 13 12  255 0 0
6  15 14 12 13 11 133  0 255 102
10  110 107 112 142 65 139 104 106 146 114  203 255 0
10  107 110 114 146 106 104 139 65 142 112  0 255 102
6  10 128 6 8 7 9  0 255 102
6  128 10 9 7 8 6  0 102 255
5  48 6 128 24 47  0 255 102
5  6 48 47 24 128  0 102 255
3  25 47 24  0 255 102
3  47 25 24  0 102 255
3  43 24 42  0 255 102
3  24 43 42  0 102 255
3  89 42 128  0 255 102
3  42 89 128  0 102 255
3  24 128 42  0 255 102
3  128 24 42  0 102 255
9  102 1 0 2 3 4 5 101 103  0 255 102
9  1 102 103 101 5 4 3 2 0  204 0 255

