OFF
382 475 0

12.1883 39.7157 -10.5715
12.1883 31.8308 -10.5715
10.9548 39.7157 -8.37786
9.59447 39.7157 -5.95877
9.44511 39.7157 -5.69316
9.44511 31.8308 -5.69316
4.36275 42.8685 -8.90079
4.21336 42.8685 -8.63513
4.36275 39.7157 -8.90079
4.21336 39.7157 -8.63513
-17.2571 -34.0207 -11.8279
-12.9027 -34.0207 -9.37947
-15.9968 -34.0207 -8.4902
12.6034 31.8308 -10.6877
12.6034 31.8308 -10.6877
6.69091 31.8308 -13.6628
6.84029 31.8308 -13.9284
12.454 31.8308 -10.4221
12.6034 31.8308 -10.6877
12.3376 31.8308 -10.8371
25.7259 -34.0207 -2.95901
26.0386 -34.0207 -1.85514
6.69091 -34.0207 -13.6628
5.45603 -34.0207 -11.4668
0.153826 -34.0207 -2.03789
2.36173 -34.0207 -0.796404
6.93693 -34.0207 1.7762
9.02333 -34.0207 2.94937
15.3953 -34.0207 6.5323
19.0516 -34.0207 8.58819
20.0031 -34.0207 9.12324
20.5674 -34.0207 8.09689
24.3956 -34.0207 1.13345
26.7438 -34.0207 0.634063
-25.8287 -42.8685 2.13948
-25.7972 -42.8685 2.15715
-25.8287 -34.0207 2.13948
-25.7972 -34.0207 2.15715
11.5695 -34.0207 24.4639
11.7919 -34.0207 25.2441
10.4206 -34.0207 20.4347
8.47303 -34.0207 13.6043
8.47303 -42.8685 13.6043
10.4206 -42.8685 20.4347
11.5695 -42.8685 24.4639
11.7919 -42.8685 25.2441
19.0516 -42.8685 8.58819
15.9219 -34.0207 9.60258
15.9217 -34.0207 9.60263
15.9217 -42.8685 9.60263
15.9219 -42.8685 9.60258
-17.3297 -35.1992 -11.8687
-17.3297 -42.8685 -11.8687
-17.3297 -34.0207 -11.8687
-19.567 -34.0207 -7.89004
-19.567 -42.8685 -7.89004
9.44511 42.8685 -5.69316
9.59447 42.8685 -5.95877
4.09708 39.7157 -9.05018
5.45603 39.7157 -11.4668
6.69091 39.7157 -13.6628
4.70709 39.7157 -10.135
3.94769 39.7157 -8.78453
5.07111 39.7157 -10.1605
5.72177 39.7157 -11.3175
6.95659 39.7157 -13.5134
25.7259 -42.8685 -2.95901
26.0386 -37.5319 -1.85514
26.0386 -42.8685 -1.85514
5.45603 31.8308 -11.4668
4.70709 31.8308 -10.135
3.94769 31.8308 -8.78453
9.71074 31.8308 -5.54379
11.2205 31.8308 -8.22858
25.4264 -34.0207 -4.01614
25.6081 -34.0207 -3.37487
25.3523 -34.0207 -4.27756
13.8529 -34.0207 -10.7752
13.456 -34.0207 -10.7474
12.6034 -34.0207 -10.6877
-4.50569 -34.0207 -4.65791
-4.50569 -42.8685 -4.65791
-4.74746 -34.0207 -4.79385
-6.56696 -34.0207 -5.81695
-6.56696 -42.8685 -5.81695
-4.74746 -42.8685 -4.79385
-12.504 31.8308 -21.556
-11.8678 31.8308 -22.6873
-13.4861 31.8308 -19.8095
-13.4861 -34.0207 -19.8095
-12.6177 -34.0207 -21.3538
-11.8678 -34.0207 -22.6873
14.7653 -34.0207 11.8799
14.7653 -42.8685 11.8799
16.2537 -34.0207 11.5387
19.0244 -34.0207 10.9036
21.969 -34.0207 10.2286
21.969 -42.8685 10.2286
19.0244 -42.8685 10.9036
16.2537 -42.8685 11.5387
12.0504 39.7157 -10.649
12.1883 42.8685 -10.5715
12.454 42.8685 -10.4221
12.454 39.7157 -10.4221
25.7259 31.8308 -2.95901
26.4283 -34.0207 -2.56402
26.4283 -38.3647 -2.56402
26.4283 -42.8685 -2.56402
6.69091 -42.8685 -13.6628
6.69091 42.8685 -13.6628
6.93693 31.8308 1.7762
9.02333 31.8308 2.94937
6.93693 -42.8685 1.7762
9.02333 -42.8685 2.94937
2.36173 -42.8685 -0.796404
2.36173 31.8308 -0.796404
0.153826 31.8308 -2.03789
0.153826 -42.8685 -2.03789
36.6476 -34.0207 -1.83587
29.8555 -34.0207 -5.6553
36.6476 -42.8685 -1.83587
29.8555 -42.8685 -5.6553
0.553628 31.8308 -14.2208
0.553628 -34.0207 -14.2208
-0.0995829 31.8308 -13.0592
-4.74746 31.8308 -4.79385
-3.312 -34.0207 -7.34652
0.285552 -34.0207 -13.7441
-9.01036 -34.0207 -23.3808
2.16942 -34.0207 -17.0941
-9.68015 -34.0207 -23.2183
-14.086 -34.0207 -22.149
-17.5452 -34.0207 -12.5911
-17.8021 -34.0207 -12.1344
-6.05742 -34.0207 -4.16122
0.109671 -34.0207 -2.06272
12.6034 -34.0207 -10.6877
6.84029 -34.0207 -13.9284
25.6081 31.8308 -3.37487
26.5751 -34.0207 -2.83107
26.5751 -38.6785 -2.83107
26.5751 -42.8685 -2.83107
25.6081 -42.8685 -3.37487
12.6034 -42.8685 -10.6877
6.84029 -42.8685 -13.9284
28.5358 -42.8685 -6.39743
28.5358 -34.0207 -6.39743
27.8553 -34.0207 -5.15971
26.8921 -34.0207 -3.40757
26.8015 -34.0207 -3.24287
26.0386 31.8308 -1.85514
25.2192 31.8308 -0.36469
24.3956 31.8308 1.13345
20.0031 -42.8685 9.12324
20.5674 -42.8685 8.09689
24.3956 -42.8685 1.13345
25.2192 -42.8685 -0.36469
26.8015 -42.8685 -3.24287
26.8921 -42.8685 -3.40757
27.8553 -42.8685 -5.15971
5.45603 -42.8685 -11.4668
7.07063 -34.0207 -14.3381
7.18556 -34.0207 -14.5424
8.83505 -34.0207 -17.4757
8.83505 -42.8685 -17.4757
7.18556 -42.8685 -14.5424
7.07063 -42.8685 -14.3381
4.70709 -42.8685 -10.135
27.9669 -34.0207 13.6012
27.9669 -42.8685 13.6012
19.0516 31.8308 8.58819
17.0178 31.8308 7.44463
15.3953 31.8308 6.5323
15.3953 -42.8685 6.5323
17.0178 -42.8685 7.44463
-17.8021 -42.8685 -12.1344
-12.9027 31.8308 -9.37947
-17.2571 31.8308 -11.8279
-29.1222 -34.0207 -18.4996
-31.3384 -34.0207 -19.7458
-31.3384 -42.8685 -19.7458
-29.1222 -42.8685 -18.4996
-17.2571 -42.8685 -11.8279
-12.9027 -42.8685 -9.37947
14.5981 -34.0207 -14.235
2.16942 -42.8685 -17.0941
1.93906 -42.8685 -16.6845
-8.623 -42.8685 -23.4748
-9.01036 -42.8685 -23.3808
-20.2528 -34.0207 -7.7762
12.8337 -34.0207 -11.0973
2.29001 -34.0207 -17.3086
12.2393 42.8685 -10.6622
12.3376 42.8685 -10.8371
12.3376 39.7157 -10.8371
13.456 -42.8685 -10.7474
25.4264 -42.8685 -4.01614
-14.086 -42.8685 -22.149
-13.4861 -42.8685 -19.8095
28.1607 -42.8685 5.63575
5.07111 42.8685 -10.1605
-9.68015 -42.8685 -23.2183
36.4153 -42.8685 -1.42281
36.4153 -34.0207 -1.42281
32.0484 -34.0207 -0.494071
32.0484 -42.8685 -0.494071
-17.3297 31.8308 -11.8687
-0.875105 -42.8685 -5.81999
-1.92273 -42.8685 -9.81707
0.109671 -42.8685 -2.06272
13.8529 -42.8685 -10.7752
19.9871 -42.8685 -11.2046
19.9871 -34.0207 -11.2046
14.535 -42.8685 1.51415
7.4812 -42.8685 -10.3292
5.72177 42.8685 -11.3175
-16.0586 -42.8685 -8.47244
-16.0586 -34.0207 -8.47244
-19.8527 -34.0207 -7.38198
-19.8527 -42.8685 -7.38198
15.9218 -34.0207 9.60281
15.9218 -42.8685 9.60281
3.93385 -42.8685 -20.2318
2.29001 -42.8685 -17.3086
3.93385 -34.0207 -20.2318
24.0348 -34.0207 -8.92846
25.3523 -42.8685 -4.27756
24.0348 -42.8685 -8.92846
7.35844 -34.0207 3.3829
7.35844 -42.8685 3.3829
20.0031 31.8308 9.12324
-17.8021 31.8308 -12.1344
10.9548 42.8685 -8.37786
12.0504 42.8685 -10.649
-10.9551 -42.8685 -9.93922
-0.0995829 -42.8685 -13.0592
0.553628 -42.8685 -14.2208
7.4812 39.7157 -10.3292
33.1238 -42.8685 4.43055
26.7438 -42.8685 0.63408
26.7438 -34.0207 0.63408
33.1238 -34.0207 4.43055
31.7882 -42.8685 -0.43874
26.7438 -42.8685 0.634063
31.7882 -34.0207 -0.43874
29.5963 -34.0207 10.7035
29.5963 -42.8685 10.7035
6.95659 42.8685 -13.5134
-23.3133 -34.0207 -31.7754
-23.3133 -42.8685 -31.7754
-23.7397 -42.8685 -31.6635
-23.7397 -34.0207 -31.6635
34.8833 -34.0207 1.3017
34.966 -34.0207 1.15452
34.966 -42.8685 1.15452
34.8833 -42.8685 1.3017
-24.792 -34.0207 -31.3874
-24.792 -42.8685 -31.3874
-37.1788 -34.0207 -4.9665
-37.1788 -42.8685 -4.9665
-20.2528 -42.8685 -7.7762
15.9219 31.8308 9.60258
-8.08908 -42.8685 -10.7629
6.0809 -42.8685 -1.48677
13.7756 -42.8685 -2.91509
14.8189 -42.8685 3.17014
13.0398 -42.8685 -7.20657
1.70048 -42.8685 -13.5765
-17.5452 -42.8685 -12.5911
-6.05742 -42.8685 -4.16122
11.2944 -42.8685 24.9642
11.2944 -34.0207 24.9642
7.35844 31.8308 3.3829
0.128147 31.8308 -1.99223
0.128147 -34.0207 -1.99223
0.530655 -34.0207 -0.456512
0.530655 31.8308 -0.456512
-3.88023 -42.8685 -24.6259
-3.88023 -34.0207 -24.6259
-8.623 -34.0207 -23.4748
0.128147 -42.8685 -1.99223
0.530655 -42.8685 -0.456512
-14.086 31.8308 -22.149
-11.8678 -42.8685 -22.6873
-12.504 -42.8685 -21.556
-11.1154 -42.8685 -24.0254
8.08825 -42.8685 23.1603
8.08825 -34.0207 23.1603
11.2205 39.7157 -8.22858
-9.68015 31.8308 -23.2183
-15.3103 -42.8685 -26.9234
-15.3103 -34.0207 -26.9234
-10.8851 -42.8685 -24.435
-25.0894 -34.0207 1.9306
-25.0894 -42.8685 1.9306
1.70048 31.8308 -13.5765
15.9217 31.8308 9.60263
19.1058 -42.8685 29.3589
19.1058 -34.0207 29.3589
6.29976 -34.0207 17.4698
6.29976 -42.8685 17.4698
8.39753 -34.0207 13.3395
8.39753 -42.8685 13.3395
12.6034 42.8685 -10.6877
6.84029 42.8685 -13.9284
5.45603 42.8685 -11.4668
2.16942 31.8308 -17.0941
1.93906 31.8308 -16.6845
1.93906 -34.0207 -16.6845
13.8529 31.8308 -10.7752
13.456 31.8308 -10.7474
25.3523 31.8308 -4.27756
25.4264 31.8308 -4.01614
-37.9826 -34.0207 -7.93044
-37.9826 -42.8685 -7.93044
-36.9473 -42.8685 -4.11282
-36.9473 -34.0207 -4.11282
-10.7494 -34.0207 -24.6763
-10.8851 -34.0207 -24.435
37.9832 -34.0207 -4.21095
37.9832 -42.8685 -4.21095
26.7438 31.8308 0.634063
20.5674 31.8308 8.09689
-20.6387 -42.8685 -5.9842
-20.6387 -34.0207 -5.9842
-21.2605 -42.8685 -5.9842
-25.3563 -34.0207 2.40512
-31.048 -42.8685 -5.9842
-25.3563 -42.8685 2.40512
-37.4548 -42.8685 -5.9842
-37.4548 -34.0207 -5.9842
-20.5608 -34.0207 -20.5775
-31.048 -34.0207 -5.9842
-17.5452 31.8308 -12.5911
-21.2605 -34.0207 -5.9842
8.6551 -34.0207 13.2805
8.6551 -42.8685 13.2805
9.8601 42.8685 -5.8094
-9.01036 31.8308 -23.3808
9.8601 39.7157 -5.8094
33.7143 -34.0207 -6.61142
33.7143 -42.8685 -6.61142
-10.7494 -42.8685 -24.6763
-20.5608 -42.8685 -20.5775
-18.7323 -34.0207 -32.9777
1.70048 -34.0207 -13.5765
-18.7323 -42.8685 -32.9777
-15.9968 31.8308 -8.4902
5.51597 -34.0207 -14.6731
-4.50569 31.8308 -4.65791
-6.05742 31.8308 -4.16122
16.8293 -42.8685 14.8963
16.8293 -34.0207 14.8963
-15.9968 -42.8685 -8.4902
-6.56696 31.8308 -5.81695
12.6034 39.7157 -10.6877
12.6034 39.7157 -10.6877
6.84029 39.7157 -13.9284
-9.12061 -34.0207 -27.5728
9.71074 39.7157 -5.54379
28.1607 -34.0207 5.63575
11.2205 42.8685 -8.22858
9.71074 42.8685 -5.54379
3.94769 42.8685 -8.78453
13.7105 31.8308 -3.29461
-25.8477 -34.0207 2.1733
-25.8477 -42.8685 2.1733
4.70709 42.8685 -10.135
-20.5943 -42.8685 -7.16883
-20.5943 -34.0207 -7.16883
-11.1154 -34.0207 -24.0254
13.7756 31.8308 -2.91509
-9.12061 -42.8685 -27.5728
13.0398 31.8308 -7.20657
17.0709 -34.0207 32.9775
13.4101 -34.0207 30.9192
4.09708 42.8685 -9.05018
13.4101 -42.8685 30.9192
17.0709 -42.8685 32.9775
19.2615 -42.8685 29.082
19.2615 -34.0207 29.082
12.6034 42.8685 -10.6877
4  231 206 53 133  255 0 0
4  133 178 331 132  255 52 0
4  318 128 130 370  255 52 0
5  318 291 251 248 317  255 52 0
5  318 370 91 131 291  255 52 0
4  231 333 177 206  255 0 0
4  133 132 333 231  255 0 0
4  149 74 76 148  255 105 0
6  149 244 33 21 105 139  255 158 0
3  230 170 322  255 211 0
4  30 29 170 230  255 211 0
4  149 139 75 74  255 105 0
6  30 31 360 245 168 96  255 158 0
4  30 230 322 31  255 211 0
4  133 53 54 189  246 255 0
3  30 96 95  193 255 0
4  342 187 277 372  255 52 0
5  342 249 250 290 292  255 52 0
4  317 248 344 358  255 52 0
4  317 279 128 318  255 52 0
4  317 358 278 279  255 52 0
4  342 372 346 249  255 52 0
7  175 181 180 314 329 327 260  246 255 0
4  175 52 182 268  255 52 0
6  175 260 368 219 55 52  246 255 0
7  133 189 332 330 313 179 178  246 255 0
6  158 205 202 120 121 159  255 158 0
8  158 226 210 165 166 195 196 157  255 105 0
5  148 76 225 146 147  255 105 0
6  148 204 253 252 244 149  255 158 0
6  148 147 119 118 203 204  255 158 0
5  158 159 145 227 226  255 105 0
7  180 181 343 197 290 250 257  255 52 0
4  180 179 313 314  246 255 0
5  292 290 197 283 285  255 52 0
4  292 188 187 342  255 52 0
4  292 285 201 188  255 52 0
4  175 268 343 181  255 52 0
7  153 46 50 49 221 99 98  193 255 0
6  153 97 169 246 199 154  255 158 0
7  30 95 94 220 48 47 29  193 255 0
3  153 98 97  193 255 0
3  46 174 50  140 255 0
3  46 153 154  87 255 0
5  169 97 98 351 379  35 255 0
5  168 380 352 95 96  35 255 0
4  169 379 380 168  35 255 0
4  139 105 20 75  0 255 17
3  370 130 91  255 52 0
5  86 87 289 307 122  255 0 0
4  86 88 282 87  0 255 70
9  151 152 322 170 171 172 371 364 373  255 211 0
4  151 150 321 152  0 255 123
6  151 373 73 17 104 150  255 211 0
7  86 122 124 176 177 333 88  255 0 0
7  178 179 256 251 291 131 331  255 52 0
9  283 284 236 267 160 108 144 186 201  255 52 0
4  283 197 198 284  255 52 0
4  91 130 289 87  255 0 0
4  138 18 310 312  0 255 175
3  21 20 105  87 255 0
5  138 104 17 13 18  0 255 17
4  138 75 20 104  0 255 17
4  21 150 104 20  255 211 0
4  179 180 257 256  255 52 0
3  145 159 121  255 158 0
4  372 277 278 358  255 52 0
4  145 146 225 227  255 105 0
4  36 365 366 34  0 255 228
5  36 334 324 293 37  0 255 228
5  34 325 327 259 315  0 255 228
3  34 366 35  0 255 228
5  36 316 258 332 334  0 255 228
4  36 34 315 316  0 255 228
5  352 38 40 92 94  35 255 0
3  351 98 99  35 255 0
5  351 44 45 297 379  35 255 0
4  49 50 174 173  140 255 0
3  352 94 95  35 255 0
5  351 99 93 43 44  35 255 0
4  49 48 220 221  193 255 0
3  99 221 93  193 255 0
3  94 92 220  193 255 0
4  345 23 69 295  0 228 255
4  345 123 308 348  255 52 0
5  348 137 22 23 345  255 52 0
5  348 308 129 161 137  255 52 0
4  295 122 123 345  0 228 255
8  295 69 70 71 116 349 125 124  0 228 255
5  137 136 14 19 16  0 255 17
4  69 23 22 15  255 211 0
4  137 16 15 22  0 255 17
3  122 295 124  0 228 255
4  307 289 338 306  255 0 0
4  308 123 122 307  255 0 0
4  157 196 142 141  255 105 0
6  157 242 255 254 205 158  255 158 0
6  157 141 107 68 243 242  255 158 0
4  379 297 298 380  35 255 0
5  380 298 39 38 352  35 255 0
4  91 87 282 131  0 255 70
4  128 129 306 338  255 0 0
4  130 128 338 289  255 0 0
5  255 242 243 239 238  255 158 0
5  252 241 240 33 244  255 158 0
4  169 168 245 246  255 158 0
4  255 238 241 252  255 158 0
4  132 89 88 333  255 0 0
4  331 131 89 132  255 52 0
4  88 89 131 282  0 255 70
4  312 74 75 138  0 255 175
4  161 190 136 137  255 105 0
4  161 129 191 162  255 52 0
3  146 119 147  255 158 0
4  145 121 119 146  255 158 0
5  78 190 161 162 77  255 105 0
4  18 14 136 79  0 255 17
4  79 136 190 78  255 105 0
4  18 79 78 310  0 255 175
4  10 53 206 177  255 0 0
5  182 52 55 216 353  0 175 255
5  182 183 234 198 268  255 52 0
3  182 353 183  0 175 255
5  10 12 217 54 53  0 175 255
4  372 358 344 346  255 52 0
4  369 189 54 218  246 255 0
4  369 334 332 189  246 255 0
4  368 325 323 219  246 255 0
4  368 260 327 325  246 255 0
4  369 218 324 334  246 255 0
4  12 353 216 217  0 175 255
3  365 36 37  0 255 228
4  366 365 37 35  0 255 228
4  245 241 238 246  255 158 0
4  245 360 240 241  255 158 0
4  21 33 321 150  0 255 123
4  322 152 32 31  255 211 0
5  31 32 33 240 360  255 158 0
4  33 32 152 321  0 255 123
4  16 19 194 357  0 123 255
6  38 271 287 299 41 40  0 70 255
3  44 270 45  0 70 255
3  38 39 271  0 70 255
3  177 176 347  0 17 255
4  11 83 84 183  255 52 0
4  183 84 262 234  255 52 0
4  11 183 353 12  0 175 255
3  170 261 171  140 255 0
4  29 47 261 170  140 255 0
4  12 10 177 347  0 17 255
4  176 354 83 11  255 0 0
4  176 11 12 347  0 17 255
4  118 119 340 319  35 0 255
4  120 320 341 121  35 0 255
4  120 118 319 320  35 0 255
4  320 319 340 341  35 0 255
4  312 310 309 311  0 255 175
4  316 315 259 258  0 255 228
4  314 313 330 329  246 255 0
4  279 191 129 128  255 52 0
4  119 121 341 340  35 0 255
4  311 309 77 76  0 255 175
4  76 77 212 225  255 105 0
4  76 74 312 311  0 255 175
4  162 191 224 163  255 52 0
5  77 162 163 184 212  255 105 0
4  310 78 77 309  0 255 175
4  129 308 307 306  255 0 0
4  305 215 200 367  87 0 255
6  304 193 192 233 247 109  0 123 255
4  304 357 194 193  0 123 255
4  305 109 247 215  87 0 255
4  305 59 60 109  87 0 255
4  69 15 60 59  140 0 255
4  16 357 60 15  0 123 255
4  304 109 60 357  0 123 255
4  303 193 194 355  0 123 255
5  18 355 194 19 14  0 123 255
4  303 381 192 193  0 123 255
4  18 13 356 355  0 123 255
4  303 355 356 381  0 123 255
4  302 336 335 301  35 255 0
5  301 335 92 40 41  35 255 0
5  302 42 43 93 336  35 255 0
6  44 43 42 300 286 270  0 70 255
4  302 301 41 42  35 255 0
4  299 287 286 300  0 70 255
4  300 42 41 299  0 70 255
4  298 374 375 39  35 255 0
4  297 378 374 298  35 255 0
4  45 377 378 297  35 255 0
4  39 375 377 45  35 255 0
4  116 115 276 273  193 0 255
5  24 135 80 349 116  0 228 255
4  24 116 273 274  193 0 255
4  28 27 111 172  255 211 0
4  296 261 47 48  140 255 0
4  172 171 261 296  140 255 0
5  172 111 110 115 371  255 211 0
4  48 28 172 296  140 255 0
4  176 124 125 354  255 0 0
3  294 35 328  0 255 228
5  294 323 325 34 35  0 255 228
4  219 323 324 218  246 255 0
4  294 293 324 323  0 255 228
3  253 204 203  255 158 0
3  254 202 205  255 158 0
4  254 253 203 202  255 158 0
4  120 202 203 118  255 158 0
4  73 373 364 72  255 211 0
4  361 232 101 102  246 0 255
5  381 102 101 233 192  0 123 255
4  13 17 103 356  0 123 255
4  73 288 103 17  246 0 255
4  361 102 103 288  246 0 255
4  381 356 103 102  0 123 255
4  378 377 375 374  35 255 0
4  197 343 268 198  255 52 0
7  116 71 5 72 364 371 115  255 211 0
4  69 59 61 70  140 0 255
4  305 367 61 59  87 0 255
4  115 110 26 25  255 211 0
4  367 376 58 61  87 0 255
5  70 61 58 62 71  140 0 255
4  367 200 6 376  87 0 255
4  363 376 6 7  87 0 255
4  363 62 58 376  87 0 255
5  71 62 9 4 5  140 0 255
4  363 7 9 62  87 0 255
4  72 5 4 359  246 0 255
4  362 56 57 337  246 0 255
4  361 337 57 232  246 0 255
4  362 359 4 56  246 0 255
5  73 72 359 339 288  246 0 255
4  362 337 339 359  246 0 255
4  361 288 339 337  246 0 255
5  237 2 3 8 63  140 0 255
4  117 209 135 24  255 52 0
7  117 114 263 264 266 214 167  87 255 0
4  117 280 281 114  193 0 255
4  117 24 274 280  193 0 255
4  237 64 65 100  140 0 255
4  354 125 349 350  255 0 211
4  83 354 350 134  255 0 211
4  80 135 209 81  255 52 0
4  80 134 350 349  255 0 211
4  248 249 346 344  255 52 0
4  270 286 287 271  0 70 255
3  285 283 201  255 52 0
4  141 142 66 107  0 255 17
7  156 68 66 108 160 214 266  87 255 0
7  156 155 154 199 239 243 68  255 158 0
6  284 198 234 262 235 236  255 52 0
6  156 266 264 213 265 155  87 255 0
4  201 186 185 188  255 52 0
4  173 113 27 28  87 255 0
6  173 174 46 154 155 265  87 255 0
4  49 173 28 48  140 255 0
4  100 65 247 233  0 123 255
4  237 100 0 2  140 0 255
4  336 93 92 335  35 255 0
3  37 293 326  0 255 228
4  35 37 326 328  0 255 228
4  293 294 328 326  0 255 228
4  25 26 112 114  87 255 0
3  114 112 263  87 255 0
4  114 281 275 25  193 0 255
4  275 281 280 274  193 0 255
4  277 222 224 278  255 52 0
4  187 223 222 277  255 52 0
4  278 224 191 279  255 52 0
4  25 275 276 115  193 0 255
4  276 275 274 273  193 0 255
3  110 111 272  255 0 158
4  26 110 272 228  255 0 158
4  111 27 228 272  255 0 158
4  45 270 271 39  0 70 255
5  84 85 208 235 262  255 52 0
4  84 269 81 85  255 0 105
4  84 83 134 269  255 0 105
3  81 209 207  255 52 0
4  81 269 134 80  255 0 105
3  267 236 235  255 52 0
8  267 235 208 207 209 117 167 160  255 52 0
3  160 167 214  87 255 0
4  85 81 207 208  255 52 0
4  173 265 213 113  87 255 0
5  264 263 112 113 213  87 255 0
3  258 330 332  0 255 228
4  259 329 330 258  0 255 228
3  259 327 329  0 255 228
4  257 250 251 256  255 52 0
4  57 6 8 3  255 0 52
4  3 2 232 57  246 0 255
4  255 252 253 254  255 158 0
4  251 250 249 248  255 52 0
4  64 215 247 65  87 0 255
5  142 143 144 108 66  0 255 17
3  68 107 66  87 255 0
4  246 238 239 199  255 158 0
3  64 237 63  140 0 255
4  100 233 101 0  0 123 255
4  2 0 101 232  246 0 255
3  112 229 113  255 0 158
4  112 26 228 229  255 0 158
4  27 113 229 228  255 0 158
4  225 212 211 227  255 105 0
4  227 211 210 226  255 105 0
4  163 224 222 164  255 52 0
4  164 222 223 165  255 52 0
5  164 211 212 184 163  255 105 0
4  165 210 211 164  255 105 0
6  165 223 187 188 185 166  255 52 0
4  93 221 220 92  193 255 0
4  219 218 54 55  246 255 0
4  217 216 55 54  0 175 255
4  63 200 215 64  87 0 255
4  6 57 56 7  255 0 52
4  63 8 6 200  87 0 255
4  196 195 143 142  255 105 0
4  144 143 195 166  255 105 0
4  166 185 186 144  255 52 0
3  11 176 10  0 17 255
3  176 11 10  255 0 0
6  183 11 10 51 52 182  0 175 255
6  11 183 182 52 51 10  255 52 0
3  175 52 51  246 255 0
3  52 175 51  255 52 0
8  181 175 51 53 133 178 179 180  246 255 0
8  175 181 180 179 178 133 53 51  255 52 0
3  10 53 51  0 175 255
3  53 10 51  255 52 0
3  177 10 176  0 17 255
3  10 177 176  255 0 0
4  153 97 96 30  193 255 0
4  169 97 96 168  255 158 0
4  46 153 30 29  193 255 0
4  153 46 29 30  87 255 0
5  174 46 29 28 173  140 255 0
5  46 174 173 28 29  87 255 0
5  172 28 29 170 171  140 255 0
5  28 172 171 170 29  255 211 0
4  168 96 97 169  35 255 0
4  30 96 97 153  255 158 0
6  24 116 71 70 69 23  0 228 255
6  116 24 23 69 70 71  255 211 0
5  117 24 23 160 167  255 52 0
5  24 117 167 160 23  87 255 0
4  144 108 22 137  255 52 0
4  160 108 22 23  87 255 0
8  166 144 137 161 162 163 164 165  255 52 0
8  144 166 165 164 163 162 161 137  255 105 0
4  23 22 108 160  255 52 0
4  137 22 108 144  0 255 17
6  159 145 140 141 157 158  255 158 0
6  145 159 158 157 141 140  255 105 0
4  68 107 106 67  255 158 0
4  141 107 106 140  0 255 17
9  156 68 67 32 31 30 153 154 155  255 158 0
9  68 156 155 154 153 30 31 32 67  87 255 0
5  152 32 21 150 151  0 255 123
5  32 152 151 150 21  255 211 0
4  139 105 106 140  255 158 0
4  21 105 106 67  87 255 0
7  149 139 140 145 146 147 148  255 158 0
7  139 149 148 147 146 145 140  255 105 0
3  32 67 21  255 158 0
3  32 21 67  87 255 0
4  140 106 105 139  0 255 17
4  140 106 107 141  255 158 0
10  144 137 136 79 75 139 140 141 142 143  255 105 0
10  137 144 143 142 141 140 139 75 79 136  0 255 17
4  138 75 79 18  0 255 175
4  75 138 18 79  0 255 17
4  24 23 80 135  0 228 255
4  23 24 135 80  255 52 0
4  134 80 82 83  255 0 211
4  80 134 83 82  255 0 105
9  11 83 126 127 89 132 133 53 10  255 0 0
9  83 11 10 53 133 132 89 127 126  255 52 0
3  131 89 90  0 255 70
3  89 131 90  255 52 0
3  91 131 90  0 255 70
3  131 91 90  255 52 0
7  130 91 90 123 308 129 128  255 0 0
7  91 130 128 129 308 123 90  255 52 0
4  345 123 127 23  0 228 255
4  123 345 23 127  255 52 0
4  80 23 126 82  0 228 255
4  23 80 82 126  255 52 0
3  23 126 127  255 52 0
3  83 126 82  255 52 0
4  89 127 123 90  255 0 0
3  23 127 126  0 228 255
3  83 82 126  255 0 0
4  83 82 125 354  255 0 211
4  80 82 125 349  0 228 255
4  83 354 125 82  255 0 0
4  349 125 82 80  255 0 211
4  127 89 90 123  255 52 0
7  127 123 122 124 125 82 126  0 228 255
7  123 127 126 82 125 124 122  255 0 0
4  121 119 118 120  35 0 255
4  119 121 120 118  255 158 0
4  117 114 25 24  193 0 255
4  114 117 24 25  87 255 0
4  116 24 25 115  193 0 255
4  24 116 115 25  255 211 0
4  27 111 110 26  255 0 158
4  111 27 26 110  255 211 0
4  113 27 26 112  255 0 158
4  27 113 112 26  87 255 0
4  105 21 67 106  255 158 0
4  107 68 67 106  87 255 0
4  60 109 247 65  0 123 255
4  109 60 65 247  87 0 255
6  15 60 65 100 0 1  0 123 255
6  60 15 1 0 100 65  140 0 255
5  22 15 1 17 20  0 255 17
5  15 22 20 17 1  255 211 0
4  108 22 20 66  0 255 17
4  22 108 66 20  87 255 0
4  107 66 20 106  0 255 17
4  66 107 106 20  87 255 0
3  105 106 20  0 255 17
3  106 105 20  87 255 0
3  104 20 17  0 255 17
3  20 104 17  255 211 0
4  103 17 1 0  0 123 255
4  17 103 0 1  246 0 255
4  102 103 0 101  0 123 255
4  103 102 101 0  246 0 255
8  334 324 323 325 327 329 330 332  246 255 0
8  324 334 332 330 329 327 325 323  0 255 228
8  99 93 92 94 95 96 97 98  193 255 0
8  93 99 98 97 96 95 94 92  35 255 0
6  91 87 86 88 89 90  255 0 0
6  87 91 90 89 88 86  0 255 70
6  85 81 80 82 83 84  255 0 105
6  81 85 84 83 82 80  255 52 0
6  79 75 74 76 77 78  0 255 175
6  75 79 78 77 76 74  255 105 0
5  17 1 5 72 73  246 0 255
6  15 1 5 71 70 69  255 211 0
5  17 73 72 5 1  255 211 0
6  71 5 1 15 69 70  140 0 255
8  65 60 59 61 58 8 63 64  87 0 255
8  60 65 64 63 8 58 61 59  140 0 255
4  3 8 9 4  255 0 52
4  8 3 4 9  140 0 255
4  62 9 8 58  87 0 255
4  62 58 8 9  140 0 255
4  4 9 7 56  255 0 52
4  3 57 56 4  246 0 255
4  57 3 4 56  255 0 52
5  55 52 51 53 54  0 175 255
5  52 55 54 53 51  246 255 0
6  50 46 29 47 48 49  193 255 0
6  46 50 49 48 47 29  140 255 0
8  45 39 38 40 41 42 43 44  0 70 255
8  39 45 44 43 42 41 40 38  35 255 0
3  32 33 21  0 255 123
3  33 32 21  255 158 0
13  32 21 20 22 23 24 25 26 27 28 29 30 31  255 211 0
13  21 32 31 30 29 28 27 26 25 24 23 22 20  87 255 0
7  19 16 15 1 17 13 14  0 123 255
7  16 19 14 13 17 1 15  0 255 17
3  18 14 13  0 123 255
3  14 18 13  0 255 17
3  12 11 10  0 17 255
3  11 12 10  0 175 255
4  9 7 6 8  87 0 255
4  7 9 8 6  255 0 52
6  5 1 0 2 3 4  246 0 255
6  1 5 4 3 2 0  140 0 255

