COFF
1557 2202 0

25.63 -34.0207 9.26462
21.8537 -34.0207 7.14108
21.5137 -34.0207 16.5846
17.7375 -34.0207 14.4611
13.9612 -34.0207 12.3376
17.3975 -34.0207 23.9046
13.6212 -34.0207 21.781
9.84496 -34.0207 19.6576
33.1238 -34.0207 4.43051
30.2281 -34.0207 9.57993
27.3325 -34.0207 14.7293
24.4369 -34.0207 19.8786
21.5412 -34.0207 25.028
19.306 -34.0207 29.0028
17.0708 -34.0207 32.9777
16.4836 -34.0207 32.6475
15.4137 -34.0207 32.0457
14.9908 -34.0207 31.808
13.7164 -34.0207 31.0914
13.4101 -34.0207 30.9192
15.3394 -34.0207 27.5645
19.2856 -34.0207 24.9663
17.2275 -34.0207 28.6263
16.1985 -34.0207 30.4563
18.1716 -34.0207 29.1572
17.1425 -34.0207 30.9872
15.6839 -34.0207 31.3713
16.6705 -34.0207 30.7217
16.628 -34.0207 31.9022
16.1559 -34.0207 31.6367
14.3103 -34.0207 29.3946
16.2834 -34.0207 28.0954
15.2544 -34.0207 29.9254
15.5094 -34.0207 22.8428
13.4512 -34.0207 26.5028
14.7398 -34.0207 30.8404
15.7264 -34.0207 30.1908
15.2119 -34.0207 31.1059
13.7958 -34.0207 30.3095
14.7824 -34.0207 29.66
14.2678 -34.0207 30.575
14.3953 -34.0207 27.0337
13.3663 -34.0207 28.8637
13.8383 -34.0207 29.1291
13.3237 -34.0207 30.0441
11.7915 -34.0207 25.2427
8.18816 -34.0207 23.2165
8.08824 -34.0207 23.1603
11.7331 -34.0207 20.7193
8.8159 -34.0207 21.4875
10.789 -34.0207 20.1884
10.704 -34.0207 22.5493
9.75996 -34.0207 22.0184
7.95683 -34.0207 18.5958
11.9031 -34.0207 15.9976
15.8493 -34.0207 13.3993
15.6793 -34.0207 18.1211
13.7912 -34.0207 17.0593
8.30138 -34.0207 22.4026
9.28792 -34.0207 21.753
9.24544 -34.0207 22.9334
8.77339 -34.0207 22.6679
8.90089 -34.0207 19.1267
7.87181 -34.0207 20.9567
10.0149 -34.0207 14.9358
8.04408 -34.0207 22.86
8.53737 -34.0207 22.5352
8.51613 -34.0207 23.1255
8.28014 -34.0207 22.9928
8.34386 -34.0207 21.2221
8.39812 -34.0207 23.0591
9.00941 -34.0207 22.8007
8.98817 -34.0207 23.3909
8.75215 -34.0207 23.2582
10.232 -34.0207 22.2838
10.1895 -34.0207 23.4643
9.71748 -34.0207 23.1988
12.6771 -34.0207 21.2502
12.5922 -34.0207 23.6111
11.6481 -34.0207 23.0802
8.16209 -34.0207 22.9264
6.29976 -34.0207 17.4698
6.51015 -34.0207 17.0956
8.65532 -34.0207 13.2808
7.01274 -34.0207 18.0649
9.07088 -34.0207 14.4049
8.98592 -34.0207 16.7658
8.04182 -34.0207 16.2349
6.54073 -34.0207 17.7995
7.56981 -34.0207 15.9695
7.52727 -34.0207 17.1499
7.05528 -34.0207 16.8845
14.4187 -34.0207 11.9593
14.7654 -34.0207 11.8799
19.7956 -34.0207 10.8011
17.9075 -34.0207 9.73935
14.9053 -34.0207 12.8684
16.8784 -34.0207 11.5693
15.9343 -34.0207 11.0385
14.4332 -34.0207 12.603
15.4623 -34.0207 10.773
15.4198 -34.0207 11.9535
12.8472 -34.0207 16.5284
12.9322 -34.0207 14.1676
14.8203 -34.0207 15.2293
13.8762 -34.0207 14.6985
15.1909 -34.0207 11.0418
15.2757 -34.0207 10.875
15.73 -34.0207 9.98019
15.9217 -34.0207 9.60263
10.959 -34.0207 15.4666
11.044 -34.0207 13.1058
11.9881 -34.0207 13.6367
16.4489 -34.0207 10.1234
15.9769 -34.0207 9.858
20.5674 -34.0207 8.09689
22.4815 -34.0207 4.61514
24.3956 -34.0207 1.13345
26.7438 -34.0207 0.634064
29.9338 -34.0207 2.53232
12.1883 39.7157 -10.5715
10.8914 39.7157 -8.26517
9.59447 39.7157 -5.95877
6.97862 39.7157 -7.42978
4.36275 39.7157 -8.90079
5.65968 39.7157 -11.2071
6.95659 39.7157 -13.5134
9.57243 39.7157 -12.0424
6.95659 42.7685 -13.5134
5.65968 42.7685 -11.2071
4.36275 42.7685 -8.90079
6.97862 42.7685 -7.42978
9.59447 42.7685 -5.95877
9.71074 42.7685 -5.54379
6.82924 42.7685 -7.16415
3.94771 42.7685 -8.78452
5.45604 42.7685 -11.4668
6.84029 42.7685 -13.9284
12.6034 42.7685 -10.6877
11.1571 42.7685 -8.11575
10.8914 42.7685 -8.26517
12.1883 42.7685 -10.5715
9.57243 42.7685 -12.0424
9.72182 42.7685 -12.3081
-7.78813 31.8308 -20.3961
-8.98695 31.8308 -18.2744
-10.1857 31.8308 -16.1529
-11.3845 31.8308 -14.0312
-12.5833 31.8308 -11.9096
-1.85658 31.8308 -17.0446
-3.0554 31.8308 -14.9229
-4.25417 31.8308 -12.8013
-5.45299 31.8308 -10.6797
-6.65175 31.8308 -8.55801
2.87617 31.8308 -11.5714
1.67738 31.8308 -9.4498
0.478592 31.8308 -7.32816
-0.7202 31.8308 -5.20651
6.41014 31.8308 -3.97659
5.21132 31.8308 -1.85501
15.9381 31.8308 -6.99002
14.7393 31.8308 -4.86838
13.5405 31.8308 -2.74673
12.3417 31.8308 -0.625153
11.1429 31.8308 1.49655
21.8696 31.8308 -3.63852
20.6709 31.8308 -1.51688
19.472 31.8308 0.604767
18.2733 31.8308 2.72641
17.0744 31.8308 4.84805
2.16942 31.8308 -17.0941
0.553635 31.8308 -14.2208
3.00484 31.8308 -12.8438
5.45604 31.8308 -11.4668
3.94771 31.8308 -8.78452
6.82924 31.8308 -7.16415
9.71074 31.8308 -5.54379
11.1571 31.8308 -8.11575
12.6034 31.8308 -10.6877
13.8529 31.8308 -10.7752
16.5375 31.8308 -8.05087
12.9723 31.8308 -8.6658
13.5717 31.8308 -9.72659
17.686 31.8308 -8.60928
21.5192 31.8308 -6.44345
25.3523 31.8308 -4.27756
26.7438 31.8308 0.634064
24.3956 31.8308 1.13345
22.4815 31.8308 4.61514
20.5674 31.8308 8.09689
15.9217 31.8308 9.60263
15.894 31.8308 9.44101
15.6198 31.8308 7.71713
15.435 31.8308 6.55484
16.4751 31.8308 5.90891
10.5435 31.8308 2.55734
14.1087 31.8308 3.17227
13.5093 31.8308 4.23312
12.6673 31.8308 4.99844
9.89952 31.8308 3.44205
9.02333 31.8308 2.94937
4.61195 31.8308 -0.79422
8.17711 31.8308 -0.17923
7.57774 31.8308 0.881561
7.35844 31.8308 3.3829
6.87794 31.8308 1.55136
2.61827 31.8308 -0.844025
0.530655 31.8308 -0.456512
0.0506744 31.8308 -2.28781
-4.28786 31.8308 -4.72763
-6.05742 31.8308 -4.16122
-6.6385 31.8308 -6.04941
-9.65709 31.8308 -7.74686
-12.6756 31.8308 -9.44424
-15.9968 31.8308 -8.4902
-17.5452 31.8308 -12.5911
-15.5157 31.8308 -16.2003
-13.4861 31.8308 -19.8095
-14.086 31.8308 -22.149
-11.5482 31.8308 -22.7649
-9.01036 31.8308 -23.3808
-5.28374 31.8308 -21.2852
-1.55714 31.8308 -19.1897
-15.7215 -33.8208 -28.679
-20.9799 -33.8208 -19.3279
-23.6092 -33.8208 -14.6523
-26.2384 -33.8208 -9.97672
-28.8676 -33.8208 -5.30112
10.203 -33.8208 -14.1009
-5.1132 -33.8208 -25.3193
0.362839 -33.8208 -22.2399
5.83894 -33.8208 -19.1606
11.315 -33.8208 -16.0812
16.7911 -33.8208 -13.0018
22.2672 -33.8208 -9.92239
26.0614 -33.8208 -7.78891
29.8555 -33.8208 -5.6553
33.7143 -33.8208 -6.61142
37.9832 -33.8208 -4.21097
37.4618 -33.8208 -3.28384
36.5193 -33.8208 -1.60764
35.5807 -33.8208 0.0614319
33.1238 -33.8208 4.43051
33.1213 -33.8208 -4.29025
35.2817 -33.8208 -3.07541
33.7786 -33.8208 -5.45914
35.939 -33.8208 -4.24429
26.7438 -33.8208 0.634064
25.3523 -33.8208 -4.27756
19.6026 -33.8208 -7.52634
13.8529 -33.8208 -10.7752
12.6034 -33.8208 -10.6877
9.5457 -33.8208 -12.932
12.3633 -33.8208 -12.886
11.706 -33.8208 -11.7171
6.84029 -33.8208 -13.9284
5.45604 -33.8208 -11.4668
0.553635 -33.8208 -14.2208
2.16942 -33.8208 -17.0941
-3.42043 -33.8208 -20.2375
-9.01036 -33.8208 -23.3808
-14.086 -33.8208 -22.149
-13.4861 -33.8208 -19.8095
-17.0361 -33.8208 -26.3412
-11.4007 -33.8208 -26.2493
-12.7153 -33.8208 -23.9115
-16.6592 -33.8208 -16.8982
-19.6653 -33.8208 -21.6656
-15.3446 -33.8208 -19.236
-15.5157 -33.8208 -16.2003
-17.5452 -33.8208 -12.5911
-15.9968 -33.8208 -8.4902
-16.0586 -33.8208 -8.47244
-21.9176 -33.8208 -7.54703
-24.9238 -33.8208 -12.3145
-19.2884 -33.8208 -12.2226
-20.603 -33.8208 -9.8848
-18.4427 -33.8208 -8.66995
-19.9457 -33.8208 -11.0537
-17.7854 -33.8208 -9.83884
-22.2946 -33.8208 -16.9901
-17.9738 -33.8208 -14.5604
-18.114 -33.8208 -9.25443
-16.7052 -33.8208 -9.23141
-17.0338 -33.8208 -8.64694
-21.2603 -33.8208 -8.71591
-24.5469 -33.8208 -2.87143
-27.553 -33.8208 -7.63889
-23.2323 -33.8208 -5.2092
-16.8695 -33.8208 -8.93918
-18.6311 -33.8208 -13.3915
-19.567 -33.8208 -7.89005
-22.4617 -33.8208 -2.74246
-25.3563 -33.8208 2.40512
-31.1518 -33.8208 -0.853851
-36.9473 -33.8208 -4.11282
-37.0002 -33.8208 -4.30795
-37.9832 -33.8208 -7.92935
-30.1822 -33.8208 -2.96335
-33.1884 -33.8208 -7.7308
-34.503 -33.8208 -5.39304
-35.1603 -33.8208 -4.22415
-35.4889 -33.8208 -3.63968
-36.2405 -33.8208 -4.83151
-36.5691 -33.8208 -4.2471
-30.8395 -33.8208 -1.7944
-32.3426 -33.8208 -4.17819
-32.9999 -33.8208 -3.00925
-25.8615 -33.8208 -0.533661
-34.6853 -33.8208 -13.7939
-31.3876 -33.8208 -19.6584
-28.0898 -33.8208 -25.5229
-24.792 -33.8208 -31.3874
-18.7323 -33.8208 -32.9777
-14.1926 -33.8208 -30.4249
-9.65291 -33.8208 -27.8721
1.56148 -33.8208 -18.9603
27.4859 -33.8208 -4.38211
-16.1108 -42.7685 -27.9867
-19.158 -42.7685 -22.5677
-22.2053 -42.7685 -17.1488
-25.2525 -42.7685 -11.7299
-28.2997 -42.7685 -6.311
-7.46931 -42.7685 -23.1273
-10.5166 -42.7685 -17.7084
-13.5638 -42.7685 -12.2895
1.17216 -42.7685 -18.2679
-1.87505 -42.7685 -12.849
-4.92226 -42.7685 -7.43008
9.81364 -42.7685 -13.4085
6.76643 -42.7685 -7.98965
3.71922 -42.7685 -2.57071
18.4551 -42.7685 -8.54916
15.4079 -42.7685 -3.13022
12.3607 -42.7685 2.28867
27.0967 -42.7685 -3.68979
24.0494 -42.7685 1.7291
21.0022 -42.7685 7.14804
17.955 -42.7685 12.567
14.9077 -42.7685 17.9859
11.8605 -42.7685 23.4048
22.2672 -42.7685 -9.92239
26.0614 -42.7685 -7.78891
29.8555 -42.7685 -5.6553
33.7143 -42.7685 -6.61142
37.9832 -42.7685 -4.21097
37.4618 -42.7685 -3.28384
36.5193 -42.7685 -1.60764
35.5807 -42.7685 0.0614319
33.1238 -42.7685 4.43051
30.2281 -42.7685 9.57993
27.3325 -42.7685 14.7293
24.4369 -42.7685 19.8786
21.5412 -42.7685 25.028
19.306 -42.7685 29.0028
17.0708 -42.7685 32.9777
32.941 -42.7685 -3.96957
35.1014 -42.7685 -2.75473
33.7028 -42.7685 -5.32431
35.8632 -42.7685 -4.10947
16.4836 -42.7685 32.6475
15.4137 -42.7685 32.0457
14.9908 -42.7685 31.808
13.7164 -42.7685 31.0914
13.4101 -42.7685 30.9192
16.1813 -42.7685 25.8345
14.6576 -42.7685 28.544
13.8959 -42.7685 29.8987
16.818 -42.7685 29.7588
16.0562 -42.7685 31.1135
15.6753 -42.7685 31.7909
17.1364 -42.7685 31.721
16.7555 -42.7685 32.3983
13.5149 -42.7685 30.5761
14.976 -42.7685 30.5061
14.5951 -42.7685 31.1834
11.7915 -42.7685 25.2427
8.18816 -42.7685 23.2165
8.08824 -42.7685 23.1603
9.70015 -42.7685 22.19
8.93831 -42.7685 23.5446
13.3841 -42.7685 20.6953
10.587 -42.7685 15.5562
9.06337 -42.7685 18.2657
8.39827 -42.7685 23.241
9.31926 -42.7685 22.8673
8.61995 -42.7685 21.5826
8.23906 -42.7685 22.2599
12.6223 -42.7685 22.0501
8.30156 -42.7685 19.6204
11.2238 -42.7685 19.4805
10.462 -42.7685 20.8352
19.2285 -42.7685 20.4156
17.7049 -42.7685 23.125
15.4194 -42.7685 27.1892
14.0209 -42.7685 24.6197
13.2591 -42.7685 25.9744
9.1288 -42.7685 23.206
8.0486 -42.7685 22.5986
8.77916 -42.7685 22.5636
8.5887 -42.7685 22.9023
11.4796 -42.7685 24.0822
10.7803 -42.7685 22.7974
10.3994 -42.7685 23.4748
6.29976 -42.7685 17.4698
6.51015 -42.7685 17.0956
8.65532 -42.7685 13.2808
6.90303 -42.7685 17.0508
9.82518 -42.7685 16.9109
8.42662 -42.7685 14.3413
7.66481 -42.7685 15.6961
16.4314 -42.7685 15.2764
14.4187 -42.7685 11.9593
14.7654 -42.7685 11.8799
17.1932 -42.7685 13.9217
14.271 -42.7685 14.0616
15.7946 -42.7685 11.3521
15.0328 -42.7685 12.7069
19.4786 -42.7685 9.85751
16.6814 -42.7685 4.71835
22.2757 -42.7685 14.9967
20.7521 -42.7685 17.7061
15.4137 -42.7685 12.0294
18.7168 -42.7685 11.2122
17.3182 -42.7685 8.64267
16.5564 -42.7685 9.99734
25.3229 -42.7685 9.57773
23.7993 -42.7685 12.2872
15.1909 -42.7685 11.0418
15.2757 -42.7685 10.875
15.73 -42.7685 9.98019
15.9217 -42.7685 9.60263
15.6041 -42.7685 11.6908
16.1755 -42.7685 10.6748
8.03996 -42.7685 -0.141022
17.5741 -42.7685 13.2443
16.113 -42.7685 13.3142
16.8748 -42.7685 11.9596
16.4939 -42.7685 12.6369
21.5139 -42.7685 16.3513
18.5917 -42.7685 16.4912
20.1153 -42.7685 13.7818
19.3535 -42.7685 15.1366
15.985 -42.7685 11.0134
15.6354 -42.7685 10.3711
18.3359 -42.7685 11.8896
17.6366 -42.7685 10.6048
17.2557 -42.7685 11.2822
23.0375 -42.7685 13.6419
21.6389 -42.7685 11.0724
20.8772 -42.7685 12.4271
16.9373 -42.7685 9.32004
20.2404 -42.7685 8.50278
15.9196 -42.7685 6.07309
18.8418 -42.7685 5.9332
18.08 -42.7685 7.28793
22.5258 -42.7685 4.43857
13.8843 -42.7685 -0.420807
19.7287 -42.7685 -0.700592
18.2051 -42.7685 2.00888
15.894 -42.7685 9.44101
15.6198 -42.7685 7.71713
15.435 -42.7685 6.55484
16.7468 -42.7685 9.65872
16.0163 -42.7685 9.6937
16.3972 -42.7685 9.01627
16.2067 -42.7685 9.35501
19.0977 -42.7685 10.5349
18.3984 -42.7685 9.25009
18.0175 -42.7685 9.92746
16.1115 -42.7685 9.52432
16.366 -42.7685 10.3361
11.5989 -42.7685 3.6434
14.5211 -42.7685 3.50351
13.7593 -42.7685 4.85825
9.89952 -42.7685 3.44205
9.02333 -42.7685 2.94937
10.2003 -42.7685 1.07382
9.43852 -42.7685 2.42856
5.24281 -42.7685 -5.28018
11.0872 -42.7685 -5.55991
9.56358 -42.7685 -2.85049
7.35844 -42.7685 3.3829
6.87794 -42.7685 1.55136
2.61827 -42.7685 -0.844025
0.530655 -42.7685 -0.456512
-0.601517 -42.7685 -5.0004
0.0506744 -42.7685 -2.28781
-4.28786 -42.7685 -4.72763
-6.05742 -42.7685 -4.16122
-6.6385 -42.7685 -6.04941
-15.0874 -42.7685 -9.57999
-9.24306 -42.7685 -9.85977
-12.6756 -42.7685 -9.44424
-15.9968 -42.7685 -8.4902
-16.0586 -42.7685 -8.47244
-20.9317 -42.7685 -9.30026
-23.7289 -42.7685 -14.4394
-17.8845 -42.7685 -14.7191
-19.4081 -42.7685 -12.0097
-20.1699 -42.7685 -10.6549
-17.2478 -42.7685 -10.7948
-18.0096 -42.7685 -9.44016
-23.979 -42.7685 -3.88132
-26.7761 -42.7685 -9.02048
-22.4554 -42.7685 -6.59079
-15.4683 -42.7685 -8.90262
-16.9294 -42.7685 -8.83267
-17.6286 -42.7685 -10.1175
-16.1676 -42.7685 -10.1875
-16.5485 -42.7685 -9.51004
-14.3256 -42.7685 -10.9347
-18.6463 -42.7685 -13.3644
-15.7241 -42.7685 -13.5043
-16.4859 -42.7685 -12.1496
-12.0401 -42.7685 -14.9989
-20.6816 -42.7685 -19.8583
-14.8373 -42.7685 -20.1381
-16.3609 -42.7685 -17.4286
-16.3893 -42.7685 -8.52896
-16.7389 -42.7685 -9.17142
-16.0084 -42.7685 -9.20639
-16.1988 -42.7685 -8.86765
-10.0048 -42.7685 -8.50504
-11.4034 -42.7685 -11.0746
-12.1652 -42.7685 -9.71988
-3.39867 -42.7685 -10.1396
-6.19579 -42.7685 -15.2787
-7.71941 -42.7685 -12.5692
-21.6936 -42.7685 -7.94553
-16.2941 -42.7685 -8.69833
-15.9288 -42.7685 -8.71585
-16.024 -42.7685 -8.54648
-19.567 -42.7685 -7.89005
-22.4617 -42.7685 -2.74246
-25.3563 -42.7685 2.40512
-31.1518 -42.7685 -0.853851
-36.9473 -42.7685 -4.11282
-37.0002 -42.7685 -4.30795
-37.9832 -42.7685 -7.92935
-29.8233 -42.7685 -3.60153
-32.6205 -42.7685 -8.74069
-34.1441 -42.7685 -6.03122
-34.9059 -42.7685 -4.67648
-36.3045 -42.7685 -7.24606
-37.0663 -42.7685 -5.89133
-35.2868 -42.7685 -3.99911
-35.9861 -42.7685 -5.28391
-36.367 -42.7685 -4.6066
-30.5852 -42.7685 -2.24686
-31.9837 -42.7685 -4.81638
-32.7455 -42.7685 -3.4617
-25.5026 -42.7685 -1.17184
-34.6853 -42.7685 -13.7939
-31.3876 -42.7685 -19.6584
-28.0898 -42.7685 -25.5229
-24.792 -42.7685 -31.3874
-18.7323 -42.7685 -32.9777
-14.1926 -42.7685 -30.4249
-9.65291 -42.7685 -27.8721
-5.1132 -42.7685 -25.3193
0.362839 -42.7685 -22.2399
5.83894 -42.7685 -19.1606
11.315 -42.7685 -16.0812
16.7911 -42.7685 -13.0018
37.4618 -38.2947 -3.28384
37.9832 -38.2947 -4.21097
16.4836 -39.8526 32.6475
16.4836 -36.9366 32.6475
17.0708 -39.8526 32.9777
17.0708 -36.9366 32.9777
15.4137 -38.3946 32.0457
16.4836 -38.3946 32.6475
14.9908 -40.5815 31.808
14.9908 -38.3946 31.808
14.9908 -36.2076 31.808
15.4137 -40.5815 32.0457
15.4137 -36.2076 32.0457
13.4101 -41.0189 30.9192
13.4101 -39.2694 30.9192
13.4101 -37.5198 30.9192
13.4101 -35.7702 30.9192
13.7164 -41.0189 31.0914
13.7164 -39.2694 31.0914
13.7164 -37.5198 31.0914
13.7164 -35.7702 31.0914
12.6008 -34.0207 28.081
12.6008 -42.7685 28.081
8.08824 -42.432 23.1603
8.08824 -42.0956 23.1603
8.08824 -41.7591 23.1603
8.08824 -41.4227 23.1603
8.08824 -41.0862 23.1603
8.08824 -40.7498 23.1603
8.08824 -40.4133 23.1603
8.08824 -40.0769 23.1603
8.08824 -39.7404 23.1603
8.08824 -39.4039 23.1603
8.08824 -39.0675 23.1603
8.08824 -38.731 23.1603
8.08824 -38.3946 23.1603
8.08824 -38.0581 23.1603
8.08824 -37.7217 23.1603
8.08824 -37.3852 23.1603
8.08824 -37.0488 23.1603
8.08824 -36.7123 23.1603
8.08824 -36.3759 23.1603
8.08824 -36.0394 23.1603
8.08824 -35.703 23.1603
8.08824 -35.3665 23.1603
8.08824 -35.03 23.1603
8.08824 -34.6936 23.1603
8.08824 -34.3571 23.1603
8.1382 -42.7685 23.1884
8.1382 -42.432 23.1884
8.1382 -42.0956 23.1884
8.1382 -41.7591 23.1884
8.1382 -41.4227 23.1884
8.1382 -41.0862 23.1884
8.1382 -40.7498 23.1884
8.1382 -40.4133 23.1884
8.1382 -40.0769 23.1884
8.1382 -39.7404 23.1884
8.1382 -39.4039 23.1884
8.1382 -39.0675 23.1884
8.1382 -38.731 23.1884
8.1382 -38.3946 23.1884
8.1382 -38.0581 23.1884
8.1382 -37.7217 23.1884
8.1382 -37.3852 23.1884
8.1382 -37.0488 23.1884
8.1382 -36.7123 23.1884
8.1382 -36.3759 23.1884
8.1382 -36.0394 23.1884
8.1382 -35.703 23.1884
8.1382 -35.3665 23.1884
8.1382 -35.03 23.1884
8.1382 -34.6936 23.1884
8.1382 -34.3571 23.1884
8.1382 -34.0207 23.1884
8.18816 -42.432 23.2165
8.18816 -42.0956 23.2165
8.18816 -41.7591 23.2165
8.18816 -41.4227 23.2165
8.18816 -41.0862 23.2165
8.18816 -40.7498 23.2165
8.18816 -40.4133 23.2165
8.18816 -40.0769 23.2165
8.18816 -39.7404 23.2165
8.18816 -39.4039 23.2165
8.18816 -39.0675 23.2165
8.18816 -38.731 23.2165
8.18816 -38.3946 23.2165
8.18816 -38.0581 23.2165
8.18816 -37.7217 23.2165
8.18816 -37.3852 23.2165
8.18816 -37.0488 23.2165
8.18816 -36.7123 23.2165
8.18816 -36.3759 23.2165
8.18816 -36.0394 23.2165
8.18816 -35.703 23.2165
8.18816 -35.3665 23.2165
8.18816 -35.03 23.2165
8.18816 -34.6936 23.2165
8.18816 -34.3571 23.2165
6.29976 -36.2076 17.4698
6.29976 -38.3946 17.4698
6.29976 -40.5815 17.4698
6.51015 -36.2076 17.0956
6.51015 -38.3946 17.0956
6.51015 -40.5815 17.0956
14.4187 -35.7702 11.9593
14.4187 -37.5198 11.9593
14.4187 -39.2694 11.9593
14.4187 -41.0189 11.9593
14.7654 -35.7702 11.8799
14.7654 -37.5198 11.8799
14.7654 -39.2694 11.8799
14.7654 -41.0189 11.8799
14.7654 -38.3946 11.8799
15.1909 -38.3946 11.0418
15.1909 -35.1142 11.0418
15.1909 -36.2076 11.0418
15.1909 -37.3011 11.0418
15.1909 -39.4881 11.0418
15.1909 -40.5815 11.0418
15.1909 -41.675 11.0418
15.2757 -35.1142 10.875
15.2757 -36.2076 10.875
15.2757 -37.3011 10.875
15.2757 -38.3946 10.875
15.2757 -39.4881 10.875
15.2757 -40.5815 10.875
15.2757 -41.675 10.875
15.2757 -36.9366 10.875
15.2757 -39.8526 10.875
15.5028 -34.0207 10.4276
15.5028 -36.9366 10.4276
15.5028 -39.8526 10.4276
15.5028 -42.7685 10.4276
15.73 -36.9366 9.98019
15.73 -39.8526 9.98019
15.73 -36.2076 9.98019
15.73 -38.3946 9.98019
15.73 -40.5815 9.98019
15.9217 -36.2076 9.60263
15.9217 -38.3946 9.60263
15.9217 -40.5815 9.60263
15.9217 31.34 9.60263
15.9217 30.8492 9.60263
15.9217 30.3585 9.60263
15.9217 29.8677 9.60263
15.9217 29.3769 9.60263
15.9217 28.8861 9.60263
15.9217 28.3953 9.60263
15.9217 27.9045 9.60263
15.9217 27.4138 9.60263
15.9217 26.923 9.60263
15.9217 26.4322 9.60263
15.9217 25.9414 9.60263
15.9217 25.4506 9.60263
15.9217 24.9598 9.60263
15.9217 24.469 9.60263
15.9217 23.9783 9.60263
15.9217 23.4875 9.60263
15.9217 22.9967 9.60263
15.9217 22.5059 9.60263
15.9217 22.0151 9.60263
15.9217 21.5243 9.60263
15.9217 21.0335 9.60263
15.9217 20.5428 9.60263
15.9217 20.052 9.60263
15.9217 19.5612 9.60263
15.9217 19.0704 9.60263
15.9217 18.5796 9.60263
15.9217 18.0888 9.60263
15.9217 17.598 9.60263
15.9217 17.1073 9.60263
15.9217 16.6165 9.60263
15.9217 16.1257 9.60263
15.9217 15.6349 9.60263
15.9217 15.1441 9.60263
15.9217 14.6533 9.60263
15.9217 14.1626 9.60263
15.9217 13.6718 9.60263
15.9217 13.181 9.60263
15.9217 12.6902 9.60263
15.9217 12.1994 9.60263
15.9217 11.7086 9.60263
15.9217 11.2178 9.60263
15.9217 10.7271 9.60263
15.9217 10.2363 9.60263
15.9217 9.74549 9.60263
15.9217 9.2547 9.60263
15.9217 8.76392 9.60263
15.9217 8.27313 9.60263
15.9217 7.78235 9.60263
15.9217 7.29157 9.60263
15.9217 6.80078 9.60263
15.9217 6.31 9.60263
15.9217 5.81921 9.60263
15.9217 5.32843 9.60263
15.9217 4.83765 9.60263
15.9217 4.34686 9.60263
15.9217 3.85607 9.60263
15.9217 3.36529 9.60263
15.9217 2.8745 9.60263
15.9217 2.38372 9.60263
15.9217 1.89294 9.60263
15.9217 1.40215 9.60263
15.9217 0.91136 9.60263
15.9217 0.420577 9.60263
15.9217 -0.0702071 9.60263
15.9217 -0.560991 9.60263
15.9217 -1.05177 9.60263
15.9217 -1.54256 9.60263
15.9217 -2.03335 9.60263
15.9217 -2.52413 9.60263
15.9217 -3.01491 9.60263
15.9217 -3.5057 9.60263
15.9217 -3.99649 9.60263
15.9217 -4.48727 9.60263
15.9217 -4.97806 9.60263
15.9217 -5.46884 9.60263
15.9217 -5.95962 9.60263
15.9217 -6.45041 9.60263
15.9217 -6.9412 9.60263
15.9217 -7.43198 9.60263
15.9217 -7.92277 9.60263
15.9217 -8.41355 9.60263
15.9217 -8.90433 9.60263
15.9217 -9.39512 9.60263
15.9217 -9.8859 9.60263
15.9217 -10.3767 9.60263
15.9217 -10.8675 9.60263
15.9217 -11.3583 9.60263
15.9217 -11.849 9.60263
15.9217 -12.3398 9.60263
15.9217 -12.8306 9.60263
15.9217 -13.3214 9.60263
15.9217 -13.8122 9.60263
15.9217 -14.303 9.60263
15.9217 -14.7938 9.60263
15.9217 -15.2845 9.60263
15.9217 -15.7753 9.60263
15.9217 -16.2661 9.60263
15.9217 -16.7569 9.60263
15.9217 -17.2477 9.60263
15.9217 -17.7385 9.60263
15.9217 -18.2292 9.60263
15.9217 -18.72 9.60263
15.9217 -19.2108 9.60263
15.9217 -19.7016 9.60263
15.9217 -20.1924 9.60263
15.9217 -20.6832 9.60263
15.9217 -21.174 9.60263
15.9217 -21.6647 9.60263
15.9217 -22.1555 9.60263
15.9217 -22.6463 9.60263
15.9217 -23.1371 9.60263
15.9217 -23.6279 9.60263
15.9217 -24.1187 9.60263
15.9217 -24.6094 9.60263
15.9217 -25.1002 9.60263
15.9217 -25.591 9.60263
15.9217 -26.0818 9.60263
15.9217 -26.5726 9.60263
15.9217 -27.0634 9.60263
15.9217 -27.5542 9.60263
15.9217 -28.0449 9.60263
15.9217 -28.5357 9.60263
15.9217 -29.0265 9.60263
15.9217 -29.5173 9.60263
15.9217 -30.0081 9.60263
15.9217 -30.4989 9.60263
15.9217 -30.9897 9.60263
15.9217 -31.4804 9.60263
15.9217 -31.9712 9.60263
15.9217 -32.462 9.60263
15.9217 -32.9528 9.60263
15.9217 -33.4436 9.60263
15.9217 -33.9344 9.60263
15.9217 -34.4251 9.60263
15.9217 -34.9159 9.60263
15.9217 -35.4067 9.60263
15.9217 -35.8975 9.60263
15.9217 -36.3883 9.60263
15.9217 -36.8791 9.60263
15.9217 -37.3699 9.60263
15.9217 -37.8606 9.60263
15.9217 -38.3514 9.60263
15.9217 -38.8422 9.60263
15.9217 -39.333 9.60263
15.9217 -39.8238 9.60263
15.9217 -40.3146 9.60263
15.9217 -40.8053 9.60263
15.9217 -41.2961 9.60263
15.9217 -41.7869 9.60263
15.9217 -42.2777 9.60263
15.9079 31.8308 9.52182
15.9079 31.34 9.52182
15.9079 30.8492 9.52182
15.9079 30.3585 9.52182
15.9079 29.8677 9.52182
15.9079 29.3769 9.52182
15.9079 28.8861 9.52182
15.9079 28.3953 9.52182
15.9079 27.9045 9.52182
15.9079 27.4138 9.52182
15.9079 26.923 9.52182
15.9079 26.4322 9.52182
15.9079 25.9414 9.52182
15.9079 25.4506 9.52182
15.9079 24.9598 9.52182
15.9079 24.469 9.52182
15.9079 23.9783 9.52182
15.9079 23.4875 9.52182
15.9079 22.9967 9.52182
15.9079 22.5059 9.52182
15.9079 22.0151 9.52182
15.9079 21.5243 9.52182
15.9079 21.0335 9.52182
15.9079 20.5428 9.52182
15.9079 20.052 9.52182
15.9079 19.5612 9.52182
15.9079 19.0704 9.52182
15.9079 18.5796 9.52182
15.9079 18.0888 9.52182
15.9079 17.598 9.52182
15.9079 17.1073 9.52182
15.9079 16.6165 9.52182
15.9079 16.1257 9.52182
15.9079 15.6349 9.52182
15.9079 15.1441 9.52182
15.9079 14.6533 9.52182
15.9079 14.1626 9.52182
15.9079 13.6718 9.52182
15.9079 13.181 9.52182
15.9079 12.6902 9.52182
15.9079 12.1994 9.52182
15.9079 11.7086 9.52182
15.9079 11.2178 9.52182
15.9079 10.7271 9.52182
15.9079 10.2363 9.52182
15.9079 9.74549 9.52182
15.9079 9.2547 9.52182
15.9079 8.76392 9.52182
15.9079 8.27313 9.52182
15.9079 7.78235 9.52182
15.9079 7.29157 9.52182
15.9079 6.80078 9.52182
15.9079 6.31 9.52182
15.9079 5.81921 9.52182
15.9079 5.32843 9.52182
15.9079 4.83765 9.52182
15.9079 4.34686 9.52182
15.9079 3.85607 9.52182
15.9079 3.36529 9.52182
15.9079 2.8745 9.52182
15.9079 2.38372 9.52182
15.9079 1.89294 9.52182
15.9079 1.40215 9.52182
15.9079 0.91136 9.52182
15.9079 0.420577 9.52182
15.9079 -0.0702071 9.52182
15.9079 -0.560991 9.52182
15.9079 -1.05177 9.52182
15.9079 -1.54256 9.52182
15.9079 -2.03335 9.52182
15.9079 -2.52413 9.52182
15.9079 -3.01491 9.52182
15.9079 -3.5057 9.52182
15.9079 -3.99649 9.52182
15.9079 -4.48727 9.52182
15.9079 -4.97806 9.52182
15.9079 -5.46884 9.52182
15.9079 -5.95962 9.52182
15.9079 -6.45041 9.52182
15.9079 -6.9412 9.52182
15.9079 -7.43198 9.52182
15.9079 -7.92277 9.52182
15.9079 -8.41355 9.52182
15.9079 -8.90433 9.52182
15.9079 -9.39512 9.52182
15.9079 -9.8859 9.52182
15.9079 -10.3767 9.52182
15.9079 -10.8675 9.52182
15.9079 -11.3583 9.52182
15.9079 -11.849 9.52182
15.9079 -12.3398 9.52182
15.9079 -12.8306 9.52182
15.9079 -13.3214 9.52182
15.9079 -13.8122 9.52182
15.9079 -14.303 9.52182
15.9079 -14.7938 9.52182
15.9079 -15.2845 9.52182
15.9079 -15.7753 9.52182
15.9079 -16.2661 9.52182
15.9079 -16.7569 9.52182
15.9079 -17.2477 9.52182
15.9079 -17.7385 9.52182
15.9079 -18.2292 9.52182
15.9079 -18.72 9.52182
15.9079 -19.2108 9.52182
15.9079 -19.7016 9.52182
15.9079 -20.1924 9.52182
15.9079 -20.6832 9.52182
15.9079 -21.174 9.52182
15.9079 -21.6647 9.52182
15.9079 -22.1555 9.52182
15.9079 -22.6463 9.52182
15.9079 -23.1371 9.52182
15.9079 -23.6279 9.52182
15.9079 -24.1187 9.52182
15.9079 -24.6094 9.52182
15.9079 -25.1002 9.52182
15.9079 -25.591 9.52182
15.9079 -26.0818 9.52182
15.9079 -26.5726 9.52182
15.9079 -27.0634 9.52182
15.9079 -27.5542 9.52182
15.9079 -28.0449 9.52182
15.9079 -28.5357 9.52182
15.9079 -29.0265 9.52182
15.9079 -29.5173 9.52182
15.9079 -30.0081 9.52182
15.9079 -30.4989 9.52182
15.9079 -30.9897 9.52182
15.9079 -31.4804 9.52182
15.9079 -31.9712 9.52182
15.9079 -32.462 9.52182
15.9079 -32.9528 9.52182
15.9079 -33.4436 9.52182
15.9079 -33.9344 9.52182
15.9079 -34.4251 9.52182
15.9079 -34.9159 9.52182
15.9079 -35.4067 9.52182
15.9079 -35.8975 9.52182
15.9079 -36.3883 9.52182
15.9079 -36.8791 9.52182
15.9079 -37.3699 9.52182
15.9079 -37.8606 9.52182
15.9079 -38.3514 9.52182
15.9079 -38.8422 9.52182
15.9079 -39.333 9.52182
15.9079 -39.8238 9.52182
15.9079 -40.3146 9.52182
15.9079 -40.8053 9.52182
15.9079 -41.2961 9.52182
15.9079 -41.7869 9.52182
15.9079 -42.2777 9.52182
15.9079 -42.7685 9.52182
15.894 31.34 9.44101
15.894 30.8492 9.44101
15.894 30.3585 9.44101
15.894 29.8677 9.44101
15.894 29.3769 9.44101
15.894 28.8861 9.44101
15.894 28.3953 9.44101
15.894 27.9045 9.44101
15.894 27.4138 9.44101
15.894 26.923 9.44101
15.894 26.4322 9.44101
15.894 25.9414 9.44101
15.894 25.4506 9.44101
15.894 24.9598 9.44101
15.894 24.469 9.44101
15.894 23.9783 9.44101
15.894 23.4875 9.44101
15.894 22.9967 9.44101
15.894 22.5059 9.44101
15.894 22.0151 9.44101
15.894 21.5243 9.44101
15.894 21.0335 9.44101
15.894 20.5428 9.44101
15.894 20.052 9.44101
15.894 19.5612 9.44101
15.894 19.0704 9.44101
15.894 18.5796 9.44101
15.894 18.0888 9.44101
15.894 17.598 9.44101
15.894 17.1073 9.44101
15.894 16.6165 9.44101
15.894 16.1257 9.44101
15.894 15.6349 9.44101
15.894 15.1441 9.44101
15.894 14.6533 9.44101
15.894 14.1626 9.44101
15.894 13.6718 9.44101
15.894 13.181 9.44101
15.894 12.6902 9.44101
15.894 12.1994 9.44101
15.894 11.7086 9.44101
15.894 11.2178 9.44101
15.894 10.7271 9.44101
15.894 10.2363 9.44101
15.894 9.74549 9.44101
15.894 9.2547 9.44101
15.894 8.76392 9.44101
15.894 8.27313 9.44101
15.894 7.78235 9.44101
15.894 7.29157 9.44101
15.894 6.80078 9.44101
15.894 6.31 9.44101
15.894 5.81921 9.44101
15.894 5.32843 9.44101
15.894 4.83765 9.44101
15.894 4.34686 9.44101
15.894 3.85607 9.44101
15.894 3.36529 9.44101
15.894 2.8745 9.44101
15.894 2.38372 9.44101
15.894 1.89294 9.44101
15.894 1.40215 9.44101
15.894 0.91136 9.44101
15.894 0.420577 9.44101
15.894 -0.0702071 9.44101
15.894 -0.560991 9.44101
15.894 -1.05177 9.44101
15.894 -1.54256 9.44101
15.894 -2.03335 9.44101
15.894 -2.52413 9.44101
15.894 -3.01491 9.44101
15.894 -3.5057 9.44101
15.894 -3.99649 9.44101
15.894 -4.48727 9.44101
15.894 -4.97806 9.44101
15.894 -5.46884 9.44101
15.894 -5.95962 9.44101
15.894 -6.45041 9.44101
15.894 -6.9412 9.44101
15.894 -7.43198 9.44101
15.894 -7.92277 9.44101
15.894 -8.41355 9.44101
15.894 -8.90433 9.44101
15.894 -9.39512 9.44101
15.894 -9.8859 9.44101
15.894 -10.3767 9.44101
15.894 -10.8675 9.44101
15.894 -11.3583 9.44101
15.894 -11.849 9.44101
15.894 -12.3398 9.44101
15.894 -12.8306 9.44101
15.894 -13.3214 9.44101
15.894 -13.8122 9.44101
15.894 -14.303 9.44101
15.894 -14.7938 9.44101
15.894 -15.2845 9.44101
15.894 -15.7753 9.44101
15.894 -16.2661 9.44101
15.894 -16.7569 9.44101
15.894 -17.2477 9.44101
15.894 -17.7385 9.44101
15.894 -18.2292 9.44101
15.894 -18.72 9.44101
15.894 -19.2108 9.44101
15.894 -19.7016 9.44101
15.894 -20.1924 9.44101
15.894 -20.6832 9.44101
15.894 -21.174 9.44101
15.894 -21.6647 9.44101
15.894 -22.1555 9.44101
15.894 -22.6463 9.44101
15.894 -23.1371 9.44101
15.894 -23.6279 9.44101
15.894 -24.1187 9.44101
15.894 -24.6094 9.44101
15.894 -25.1002 9.44101
15.894 -25.591 9.44101
15.894 -26.0818 9.44101
15.894 -26.5726 9.44101
15.894 -27.0634 9.44101
15.894 -27.5542 9.44101
15.894 -28.0449 9.44101
15.894 -28.5357 9.44101
15.894 -29.0265 9.44101
15.894 -29.5173 9.44101
15.894 -30.0081 9.44101
15.894 -30.4989 9.44101
15.894 -30.9897 9.44101
15.894 -31.4804 9.44101
15.894 -31.9712 9.44101
15.894 -32.462 9.44101
15.894 -32.9528 9.44101
15.894 -33.4436 9.44101
15.894 -33.9344 9.44101
15.894 -34.4251 9.44101
15.894 -34.9159 9.44101
15.894 -35.4067 9.44101
15.894 -35.8975 9.44101
15.894 -36.3883 9.44101
15.894 -36.8791 9.44101
15.894 -37.3699 9.44101
15.894 -37.8606 9.44101
15.894 -38.3514 9.44101
15.894 -38.8422 9.44101
15.894 -39.333 9.44101
15.894 -39.8238 9.44101
15.894 -40.3146 9.44101
15.894 -40.8053 9.44101
15.894 -41.2961 9.44101
15.894 -41.7869 9.44101
15.894 -42.2777 9.44101
15.894 26.8575 9.44101
15.894 21.8842 9.44101
15.894 16.911 9.44101
15.894 11.9377 9.44101
15.894 6.96438 9.44101
15.894 1.99109 9.44101
15.894 -2.98219 9.44101
15.894 -7.95548 9.44101
15.894 -12.9288 9.44101
15.894 -17.9021 9.44101
15.894 -22.8753 9.44101
15.894 -27.8486 9.44101
15.894 -32.8219 9.44101
15.894 -37.7952 9.44101
15.7569 31.8308 8.57907
15.7569 26.8575 8.57907
15.7569 21.8842 8.57907
15.7569 16.911 8.57907
15.7569 11.9377 8.57907
15.7569 6.96438 8.57907
15.7569 1.99109 8.57907
15.7569 -2.98219 8.57907
15.7569 -7.95548 8.57907
15.7569 -12.9288 8.57907
15.7569 -17.9021 8.57907
15.7569 -22.8753 8.57907
15.7569 -27.8486 8.57907
15.7569 -32.8219 8.57907
15.7569 -37.7952 8.57907
15.7569 -42.7685 8.57907
15.6198 26.8575 7.71713
15.6198 21.8842 7.71713
15.6198 16.911 7.71713
15.6198 11.9377 7.71713
15.6198 6.96438 7.71713
15.6198 1.99109 7.71713
15.6198 -2.98219 7.71713
15.6198 -7.95548 7.71713
15.6198 -12.9288 7.71713
15.6198 -17.9021 7.71713
15.6198 -22.8753 7.71713
15.6198 -27.8486 7.71713
15.6198 -32.8219 7.71713
15.6198 -37.7952 7.71713
15.6198 25.0491 7.71713
15.6198 18.2673 7.71713
15.6198 11.4855 7.71713
15.6198 4.70379 7.71713
15.6198 -2.07796 7.71713
15.6198 -8.85972 7.71713
15.6198 -15.6415 7.71713
15.6198 -22.4232 7.71713
15.6198 -29.205 7.71713
15.6198 -35.9867 7.71713
15.435 25.0491 6.55484
15.435 18.2673 6.55484
15.435 11.4855 6.55484
15.435 4.70379 6.55484
15.435 -2.07796 6.55484
15.435 -8.85972 6.55484
15.435 -15.6415 6.55484
15.435 -22.4232 6.55484
15.435 -29.205 6.55484
15.435 -35.9867 6.55484
9.89952 -5.46884 3.44205
15.435 -5.46884 6.55484
9.02333 -37.0301 2.94937
9.02333 -31.2917 2.94937
9.02333 -25.5533 2.94937
9.02333 -19.8149 2.94937
9.02333 -14.0764 2.94937
9.02333 -8.33804 2.94937
9.02333 -2.59964 2.94937
9.02333 3.13877 2.94937
9.02333 8.87718 2.94937
9.02333 14.6156 2.94937
9.02333 20.354 2.94937
9.02333 26.0924 2.94937
9.89952 -37.0301 3.44205
9.89952 -31.2917 3.44205
9.89952 -25.5533 3.44205
9.89952 -19.8149 3.44205
9.89952 -14.0764 3.44205
9.89952 -8.33804 3.44205
9.89952 -2.59964 3.44205
9.89952 3.13877 3.44205
9.89952 8.87718 3.44205
9.89952 14.6156 3.44205
9.89952 20.354 3.44205
9.89952 26.0924 3.44205
7.35844 -33.4436 3.3829
7.35844 -24.1187 3.3829
7.35844 -14.7938 3.3829
7.35844 -5.46884 3.3829
7.35844 3.85607 3.3829
7.35844 13.181 3.3829
7.35844 22.5059 3.3829
9.02333 -33.4436 2.94937
9.02333 -24.1187 2.94937
9.02333 -14.7938 2.94937
9.02333 -5.46884 2.94937
9.02333 3.85607 2.94937
9.02333 13.181 2.94937
9.02333 22.5059 2.94937
7.35844 21.1738 3.3829
7.35844 10.5167 3.3829
7.35844 -0.140317 3.3829
7.35844 -10.7974 3.3829
7.35844 -21.4544 3.3829
7.35844 -32.1114 3.3829
6.87794 21.1738 1.55136
6.87794 10.5167 1.55136
6.87794 -0.140317 1.55136
6.87794 -10.7974 1.55136
6.87794 -21.4544 1.55136
6.87794 -32.1114 1.55136
2.61827 -17.9021 -0.844025
2.61827 6.96438 -0.844025
6.87794 -17.9021 1.55136
6.87794 6.96438 1.55136
0.530655 -30.3353 -0.456512
0.530655 -17.9021 -0.456512
0.530655 -5.46884 -0.456512
0.530655 6.96438 -0.456512
0.530655 19.3976 -0.456512
2.61827 -30.3353 -0.844025
2.61827 -5.46884 -0.844025
2.61827 19.3976 -0.844025
0.530655 21.1738 -0.456512
0.530655 10.5167 -0.456512
0.530655 -0.140317 -0.456512
0.530655 -10.7974 -0.456512
0.530655 -21.4544 -0.456512
0.530655 -32.1114 -0.456512
0.0506744 21.1738 -2.28781
0.0506744 10.5167 -2.28781
0.0506744 -0.140317 -2.28781
0.0506744 -10.7974 -2.28781
0.0506744 -21.4544 -2.28781
0.0506744 -32.1114 -2.28781
-4.28786 -17.9021 -4.72763
-4.28786 6.96438 -4.72763
0.0506744 -17.9021 -2.28781
0.0506744 6.96438 -2.28781
-6.05742 -32.1114 -4.16122
-6.05742 -21.4544 -4.16122
-6.05742 -10.7974 -4.16122
-6.05742 -0.140317 -4.16122
-6.05742 10.5167 -4.16122
-6.05742 21.1738 -4.16122
-4.28786 -32.1114 -4.72763
-4.28786 -21.4544 -4.72763
-4.28786 -10.7974 -4.72763
-4.28786 -0.140317 -4.72763
-4.28786 10.5167 -4.72763
-4.28786 21.1738 -4.72763
-6.6385 21.1738 -6.04941
-6.6385 10.5167 -6.04941
-6.6385 -0.140317 -6.04941
-6.6385 -10.7974 -6.04941
-6.6385 -21.4544 -6.04941
-6.6385 -32.1114 -6.04941
-12.6756 -5.46884 -9.44424
-6.6385 -5.46884 -6.04941
-15.9968 -24.1187 -8.4902
-15.9968 -5.46884 -8.4902
-15.9968 13.181 -8.4902
-12.6756 -24.1187 -9.44424
-12.6756 13.181 -9.44424
-16.0586 -42.3957 -8.47244
-16.0586 -42.0229 -8.47244
-16.0586 -41.65 -8.47244
-16.0586 -41.2772 -8.47244
-16.0586 -40.9044 -8.47244
-16.0586 -40.5316 -8.47244
-16.0586 -40.1588 -8.47244
-16.0586 -39.7859 -8.47244
-16.0586 -39.4131 -8.47244
-16.0586 -39.0403 -8.47244
-16.0586 -38.6675 -8.47244
-16.0586 -38.2947 -8.47244
-16.0586 -37.9218 -8.47244
-16.0586 -37.549 -8.47244
-16.0586 -37.1762 -8.47244
-16.0586 -36.8034 -8.47244
-16.0586 -36.4306 -8.47244
-16.0586 -36.0578 -8.47244
-16.0586 -35.6849 -8.47244
-16.0586 -35.3121 -8.47244
-16.0586 -34.9393 -8.47244
-16.0586 -34.5665 -8.47244
-16.0586 -34.1937 -8.47244
-15.9968 -42.3957 -8.4902
-15.9968 -42.0229 -8.4902
-15.9968 -41.65 -8.4902
-15.9968 -41.2772 -8.4902
-15.9968 -40.9044 -8.4902
-15.9968 -40.5316 -8.4902
-15.9968 -40.1588 -8.4902
-15.9968 -39.7859 -8.4902
-15.9968 -39.4131 -8.4902
-15.9968 -39.0403 -8.4902
-15.9968 -38.6675 -8.4902
-15.9968 -38.2947 -8.4902
-15.9968 -37.9218 -8.4902
-15.9968 -37.549 -8.4902
-15.9968 -37.1762 -8.4902
-15.9968 -36.8034 -8.4902
-15.9968 -36.4306 -8.4902
-15.9968 -36.0578 -8.4902
-15.9968 -35.6849 -8.4902
-15.9968 -35.3121 -8.4902
-15.9968 -34.9393 -8.4902
-15.9968 -34.5665 -8.4902
-15.9968 -34.1937 -8.4902
-36.9473 -34.9393 -4.11282
-36.9473 -36.0578 -4.11282
-36.9473 -37.1762 -4.11282
-36.9473 -38.2947 -4.11282
-36.9473 -39.4131 -4.11282
-36.9473 -40.5316 -4.11282
-36.9473 -41.65 -4.11282
-37.0002 -34.9393 -4.30795
-37.0002 -36.0578 -4.30795
-37.0002 -37.1762 -4.30795
-37.0002 -38.2947 -4.30795
-37.0002 -39.4131 -4.30795
-37.0002 -40.5316 -4.30795
-37.0002 -41.65 -4.30795
-11.9228 -33.8208 -29.1485
-11.9228 -42.7685 -29.1485
15.9217 -12.0702 9.60263
15.9217 9.88031 9.60263
20.5674 -12.0702 8.09689
20.5674 9.88031 8.09689
22.4815 -12.0702 4.61514
22.4815 9.88031 4.61514
24.3956 -12.0702 1.13345
24.3956 9.88031 1.13345
24.3956 -20.8504 1.13345
24.3956 -7.68009 1.13345
24.3956 5.49021 1.13345
24.3956 18.6605 1.13345
26.7438 -20.8504 0.634064
26.7438 -7.68009 0.634064
26.7438 5.49021 0.634064
26.7438 18.6605 0.634064
27.6552 -34.0207 1.17642
27.6552 -33.8208 1.17642
28.5666 -34.0207 1.71878
28.5666 -33.8208 1.71878
29.478 -34.0207 2.26114
29.478 -33.8208 2.26114
30.3895 -34.0207 2.80344
30.3895 -33.8208 2.80344
31.3009 -34.0207 3.34586
31.3009 -33.8208 3.34586
32.2124 -34.0207 3.88821
32.2124 -33.8208 3.88821
26.7438 -11.937 0.634064
26.7438 9.94692 0.634064
25.3523 -11.937 -4.27756
25.3523 9.94692 -4.27756
12.6034 24.5362 -10.6877
12.6034 17.2415 -10.6877
12.6034 9.94692 -10.6877
12.6034 2.65229 -10.6877
12.6034 -4.64233 -10.6877
12.6034 -11.937 -10.6877
12.6034 -19.2316 -10.6877
12.6034 -26.5262 -10.6877
13.8529 24.5362 -10.7752
13.8529 17.2415 -10.7752
13.8529 9.94692 -10.7752
13.8529 2.65229 -10.7752
13.8529 -4.64233 -10.7752
13.8529 -11.937 -10.7752
13.8529 -19.2316 -10.7752
13.8529 -26.5262 -10.7752
6.84029 4.47382 -13.9284
12.6034 4.47382 -10.6877
5.45604 27.4506 -11.4668
5.45604 12.1328 -11.4668
5.45604 -3.18511 -11.4668
5.45604 -18.503 -11.4668
6.84029 27.4506 -13.9284
6.84029 12.1328 -13.9284
6.84029 -3.18511 -13.9284
6.84029 -18.503 -13.9284
0.553635 15.4179 -14.2208
0.553635 -0.995019 -14.2208
0.553635 -17.4079 -14.2208
3.00484 15.4179 -12.8438
3.00484 -0.995019 -12.8438
3.00484 -17.4079 -12.8438
3.00484 -33.8208 -12.8438
5.45604 15.4179 -11.4668
5.45604 -0.995019 -11.4668
5.45604 -17.4079 -11.4668
2.16942 -17.4079 -17.0941
2.16942 -0.995019 -17.0941
2.16942 15.4179 -17.0941
-9.01036 -0.995019 -23.3808
-3.42043 31.8308 -20.2375
-3.42043 -0.995019 -20.2375
-14.086 9.94692 -22.149
-14.086 -11.937 -22.149
-9.01036 9.94692 -23.3808
-9.01036 -11.937 -23.3808
-13.4861 18.7005 -19.8095
-13.4861 5.57015 -19.8095
-13.4861 -7.56019 -19.8095
-13.4861 -20.6905 -19.8095
-14.086 18.7005 -22.149
-14.086 5.57015 -22.149
-14.086 -7.56019 -22.149
-14.086 -20.6905 -22.149
-17.5452 -0.995019 -12.5911
-13.4861 -0.995019 -19.8095
-15.9968 9.94692 -8.4902
-15.9968 -11.937 -8.4902
-17.5452 9.94692 -12.5911
-17.5452 -11.937 -12.5911
33.1238 -34.0207 4.43051
33.1238 -34.0207 4.43051
21.5412 -34.0207 25.028
17.0708 -34.0207 32.9777
13.4101 -34.0207 30.9192
8.18816 -34.0207 23.2165
8.08824 -34.0207 23.1603
15.2757 -34.0207 10.875
15.73 -34.0207 9.98019
26.7438 -34.0207 0.634064
12.1883 39.7157 -10.5715
9.59447 39.7157 -5.95877
4.36275 39.7157 -8.90079
6.95659 39.7157 -13.5134
6.95659 42.7685 -13.5134
4.36275 42.7685 -8.90079
9.59447 42.7685 -5.95877
9.71074 42.7685 -5.54379
6.84029 42.7685 -13.9284
12.6034 42.7685 -10.6877
12.6034 42.7685 -10.6877
12.1883 42.7685 -10.5715
2.16942 31.8308 -17.0941
9.71074 31.8308 -5.54379
12.6034 31.8308 -10.6877
13.8529 31.8308 -10.7752
25.3523 31.8308 -4.27756
15.9217 31.8308 9.60263
15.894 31.8308 9.44101
15.894 31.8308 9.44101
15.6198 31.8308 7.71713
15.435 31.8308 6.55484
9.89952 31.8308 3.44205
-6.6385 31.8308 -6.04941
-12.6756 31.8308 -9.44424
-17.5452 31.8308 -12.5911
-13.4861 31.8308 -19.8095
-14.086 31.8308 -22.149
-9.01036 31.8308 -23.3808
-9.01036 31.8308 -23.3808
-5.1132 -33.8208 -25.3193
22.2672 -33.8208 -9.92239
33.1238 -33.8208 4.43051
26.7438 -33.8208 0.634064
25.3523 -33.8208 -4.27756
13.8529 -33.8208 -10.7752
5.45604 -33.8208 -11.4668
-13.4861 -33.8208 -19.8095
-17.5452 -33.8208 -12.5911
-36.9473 -33.8208 -4.11282
22.2672 -42.7685 -9.92239
33.1238 -42.7685 4.43051
21.5412 -42.7685 25.028
17.0708 -42.7685 32.9777
13.4101 -42.7685 30.9192
8.18816 -42.7685 23.2165
8.08824 -42.7685 23.1603
15.2757 -42.7685 10.875
15.73 -42.7685 9.98019
15.9217 -42.7685 9.60263
15.894 -42.7685 9.44101
15.894 -42.7685 9.44101
15.6198 -42.7685 7.71713
-36.9473 -42.7685 -4.11282
-5.1132 -42.7685 -25.3193
15.4137 -38.3946 32.0457
15.1909 -38.3946 11.0418
2.61827 -17.9021 -0.844025
2.61827 6.96438 -0.844025
-12.6756 -5.46884 -9.44424
2.16942 -0.995019 -17.0941
3  94 1 0  255 128 0
3  2 3 94  255 128 0
3  0 2 94  255 128 0
3  100 98 101  255 128 0
3  101 96 99  255 128 0
3  100 114 113  255 128 0
3  100 113 98  255 128 0
3  101 98 97  255 128 0
3  55 96 101  255 128 0
3  97 55 101  255 128 0
3  97 95 94  255 128 0
3  3 55 97  255 128 0
3  94 3 97  255 128 0
3  33 6 56  255 128 0
3  56 3 2  255 128 0
3  2 5 33  255 128 0
3  33 56 2  255 128 0
3  50 7 54  255 128 0
3  50 54 102  255 128 0
3  102 57 48  255 128 0
3  102 48 50  255 128 0
3  54 103 105  255 128 0
3  54 105 102  255 128 0
3  99 96 105  255 128 0
3  103 4 99  255 128 0
3  105 103 99  255 128 0
3  105 96 55  255 128 0
3  105 55 104  255 128 0
3  102 105 104  255 128 0
3  102 104 57  255 128 0
3  104 55 3  255 128 0
3  56 57 104  255 128 0
3  3 56 104  255 128 0
3  77 48 57  255 128 0
3  56 6 77  255 128 0
3  57 56 77  255 128 0
3  91 89 87  255 128 0
3  91 87 90  255 128 0
3  88 91 90  255 128 0
3  88 90 84  255 128 0
3  87 85 64  255 128 0
3  87 64 86  255 128 0
3  90 87 86  255 128 0
3  53 84 90  255 128 0
3  86 53 90  255 128 0
3  64 111 112  255 128 0
3  64 112 110  255 128 0
3  110 112 103  255 128 0
3  110 103 54  255 128 0
3  110 62 86  255 128 0
3  62 53 86  255 128 0
3  86 64 110  255 128 0
3  110 54 7  255 128 0
3  110 7 62  255 128 0
3  38 30 39  255 128 0
3  38 39 40  255 128 0
3  40 39 32  255 128 0
3  40 32 35  255 128 0
3  39 30 20  255 128 0
3  31 32 39  255 128 0
3  20 31 39  255 128 0
3  36 32 31  255 128 0
3  22 23 36  255 128 0
3  31 22 36  255 128 0
3  35 32 36  255 128 0
3  35 36 37  255 128 0
3  37 36 23  255 128 0
3  37 23 26  255 128 0
3  31 20 5  255 128 0
3  21 22 31  255 128 0
3  5 21 31  255 128 0
3  26 23 27  255 128 0
3  26 27 29  255 128 0
3  29 27 25  255 128 0
3  29 25 28  255 128 0
3  27 23 22  255 128 0
3  24 25 27  255 128 0
3  22 24 27  255 128 0
3  41 34 33  255 128 0
3  5 20 41  255 128 0
3  33 5 41  255 128 0
3  43 42 41  255 128 0
3  20 30 43  255 128 0
3  41 20 43  255 128 0
3  44 43 30  255 128 0
3  44 30 38  255 128 0
3  80 65 58  255 128 0
3  66 68 80  255 128 0
3  58 66 80  255 128 0
3  70 68 66  255 128 0
3  61 67 70  255 128 0
3  66 61 70  255 128 0
3  66 58 49  255 128 0
3  59 61 66  255 128 0
3  49 59 66  255 128 0
3  71 61 59  255 128 0
3  52 60 71  255 128 0
3  59 52 71  255 128 0
3  67 61 71  255 128 0
3  67 71 73  255 128 0
3  73 71 60  255 128 0
3  73 60 72  255 128 0
3  59 49 7  255 128 0
3  50 52 59  255 128 0
3  7 50 59  255 128 0
3  74 52 50  255 128 0
3  48 51 74  255 128 0
3  50 48 74  255 128 0
3  60 52 74  255 128 0
3  60 74 76  255 128 0
3  76 74 51  255 128 0
3  76 51 75  255 128 0
3  51 48 77  255 128 0
3  51 77 79  255 128 0
3  79 77 6  255 128 0
3  79 6 78  255 128 0
3  69 63 62  255 128 0
3  7 49 69  255 128 0
3  62 7 69  255 128 0
3  9 119 8  255 128 0
3  0 9 10  255 128 0
3  119 9 0  255 128 0
3  118 119 0  255 128 0
3  117 118 116  255 128 0
3  1 116 118  255 128 0
3  115 1 94  255 128 0
3  0 1 118  255 128 0
3  95 115 94  255 128 0
3  116 1 115  255 128 0
3  109 115 95  255 128 0
3  2 0 10  255 128 0
3  21 2 11  255 128 0
3  2 21 5  255 128 0
3  13 21 12  255 128 0
3  12 21 11  255 128 0
3  113 95 97  255 128 0
3  98 113 97  255 128 0
3  78 6 33  255 128 0
3  11 2 10  255 128 0
3  95 113 109  255 128 0
3  100 108 114  255 128 0
3  93 101 99  255 128 0
3  92 93 99  255 128 0
3  106 100 101  255 128 0
3  101 93 106  255 128 0
3  114 108 109  255 128 0
3  107 108 100  255 128 0
3  4 111 92  255 128 0
3  99 4 92  255 128 0
3  107 100 106  255 128 0
3  83 92 111  255 128 0
3  113 114 109  255 128 0
3  4 103 112  255 128 0
3  4 112 111  255 128 0
3  111 64 85  255 128 0
3  83 111 85  255 128 0
3  83 85 89  255 128 0
3  87 89 85  255 128 0
3  82 83 89  255 128 0
3  81 82 88  255 128 0
3  89 91 82  255 128 0
3  88 82 91  255 128 0
3  21 24 22  255 128 0
3  25 24 13  255 128 0
3  25 14 28  255 128 0
3  15 29 28  255 128 0
3  14 25 13  255 128 0
3  42 34 41  255 128 0
3  44 42 43  255 128 0
3  42 45 34  255 128 0
3  26 29 16  255 128 0
3  78 33 34  255 128 0
3  35 37 17  255 128 0
3  17 37 26  255 128 0
3  26 16 17  255 128 0
3  16 29 15  255 128 0
3  15 28 14  255 128 0
3  18 40 35  255 128 0
3  18 38 40  255 128 0
3  44 38 19  255 128 0
3  18 19 38  255 128 0
3  45 46 72  255 128 0
3  18 35 17  255 128 0
3  44 45 42  255 128 0
3  45 75 79  255 128 0
3  79 75 51  255 128 0
3  72 76 75  255 128 0
3  45 79 78  255 128 0
3  63 84 53  255 128 0
3  63 88 84  255 128 0
3  49 58 69  255 128 0
3  69 65 63  255 128 0
3  62 63 53  255 128 0
3  65 88 63  255 128 0
3  72 60 76  255 128 0
3  72 46 73  255 128 0
3  46 70 67  255 128 0
3  67 73 46  255 128 0
3  45 44 19  255 128 0
3  72 75 45  255 128 0
3  47 80 68  255 128 0
3  65 80 47  255 128 0
3  46 47 68  255 128 0
3  65 47 81  255 128 0
3  46 68 70  255 128 0
3  69 58 65  255 128 0
3  45 78 34  255 128 0
3  88 65 81  255 128 0
3  21 13 24  255 128 0
3  121 122 123  128 255 255
3  121 127 120  128 255 255
3  125 121 123  128 255 255
3  121 125 127  128 255 255
3  125 126 127  128 255 255
3  124 125 123  128 255 255
3  132 133 134  128 0 255
3  134 131 132  128 0 255
3  134 130 131  128 0 255
3  130 134 135  128 0 255
3  129 130 136  128 0 255
3  135 136 130  128 0 255
3  137 128 136  128 0 255
3  129 136 128  128 0 255
3  128 137 143  128 0 255
3  128 143 142  128 0 255
3  141 142 143  128 0 255
3  141 143 138  128 0 255
3  141 139 140  128 0 255
3  140 139 132  128 0 255
3  133 132 139  128 0 255
3  138 139 141  128 0 255
3  150 145 144  128 128 255
3  150 144 149  128 128 255
3  151 146 145  128 128 255
3  151 145 150  128 128 255
3  152 147 146  128 128 255
3  152 146 151  128 128 255
3  153 148 147  128 128 255
3  153 147 152  128 128 255
3  155 151 150  128 128 255
3  155 150 154  128 128 255
3  156 152 151  128 128 255
3  156 151 155  128 128 255
3  157 153 152  128 128 255
3  157 152 156  128 128 255
3  159 157 156  128 128 255
3  159 156 158  128 128 255
3  160 181 182  128 128 255
3  160 182 180  128 128 255
3  202 159 158  128 128 255
3  163 164 202  128 128 255
3  158 163 202  128 128 255
3  203 201 159  128 128 255
3  203 159 202  128 128 255
3  195 203 202  128 128 255
3  195 202 164  128 128 255
3  166 161 160  128 128 255
3  166 160 165  128 128 255
3  167 162 161  128 128 255
3  167 161 166  128 128 255
3  168 163 162  128 128 255
3  168 162 167  128 128 255
3  196 164 163  128 128 255
3  168 169 196  128 128 255
3  163 168 196  128 128 255
3  197 195 164  128 128 255
3  197 164 196  128 128 255
3  194 197 196  128 128 255
3  194 196 169  128 128 255
3  220 144 219  128 128 255
3  221 144 220  128 128 255
3  221 149 144  128 128 255
3  145 217 218  128 128 255
3  218 144 145  128 128 255
3  217 145 146  128 128 255
3  144 218 219  128 128 255
3  216 217 146  128 128 255
3  221 222 149  128 128 255
3  170 171 149  128 128 255
3  222 170 149  128 128 255
3  154 172 173  128 128 255
3  154 150 171  128 128 255
3  149 171 150  128 128 255
3  154 173 174  128 128 255
3  172 154 171  128 128 255
3  154 174 155  128 128 255
3  175 176 162  128 128 255
3  148 216 147  128 128 255
3  147 216 146  128 128 255
3  212 148 153  128 128 255
3  215 216 148  128 128 255
3  213 214 215  128 128 255
3  215 148 213  128 128 255
3  213 148 212  128 128 255
3  212 153 211  128 128 255
3  211 153 209  128 128 255
3  158 156 155  128 128 255
3  201 208 157  128 128 255
3  155 174 175  128 128 255
3  153 157 209  128 128 255
3  209 210 211  128 128 255
3  207 208 206  128 128 255
3  157 208 209  128 128 255
3  206 208 201  128 128 255
3  159 201 157  128 128 255
3  162 155 175  128 128 255
3  182 178 179  128 128 255
3  179 180 182  128 128 255
3  180 179 183  128 128 255
3  181 178 182  128 128 255
3  161 176 177  128 128 255
3  177 160 161  128 128 255
3  181 160 177  128 128 255
3  162 176 161  128 128 255
3  160 180 165  128 128 255
3  162 158 155  128 128 255
3  180 184 165  128 128 255
3  186 165 185  128 128 255
3  184 185 165  128 128 255
3  167 166 187  128 128 255
3  186 187 166  128 128 255
3  188 167 187  128 128 255
3  186 166 165  128 128 255
3  180 183 184  128 128 255
3  158 162 163  128 128 255
3  205 201 203  128 128 255
3  197 198 195  128 128 255
3  200 203 195  128 128 255
3  200 204 205  128 128 255
3  203 200 205  128 128 255
3  199 200 195  128 128 255
3  199 195 198  128 128 255
3  201 205 206  128 128 255
3  189 169 188  128 128 255
3  168 188 169  128 128 255
3  189 194 169  128 128 255
3  193 194 189  128 128 255
3  197 194 193  128 128 255
3  189 192 193  128 128 255
3  192 189 191  128 128 255
3  191 189 190  128 128 255
3  198 197 193  128 128 255
3  168 167 188  128 128 255
3  177 178 181  128 128 255
3  307 301 300  255 128 0
3  307 300 306  255 128 0
3  305 307 306  255 128 0
3  305 306 298  255 128 0
3  302 304 303  255 128 0
3  302 303 301  255 128 0
3  306 300 299  255 128 0
3  227 298 306  255 128 0
3  299 227 306  255 128 0
3  265 263 223  255 128 0
3  265 223 264  255 128 0
3  266 224 267  255 128 0
3  266 267 268  255 128 0
3  290 275 225  255 128 0
3  280 281 290  255 128 0
3  225 280 290  255 128 0
3  281 280 224  255 128 0
3  281 224 266  255 128 0
3  285 273 226  255 128 0
3  274 276 285  255 128 0
3  226 274 285  255 128 0
3  278 276 274  255 128 0
3  225 275 278  255 128 0
3  274 225 278  255 128 0
3  289 284 282  255 128 0
3  279 283 289  255 128 0
3  282 279 289  255 128 0
3  282 277 276  255 128 0
3  278 279 282  255 128 0
3  276 278 282  255 128 0
3  286 227 287  255 128 0
3  286 287 288  255 128 0
3  288 287 226  255 128 0
3  288 226 273  255 128 0
3  308 298 227  255 128 0
3  308 227 286  255 128 0
3  254 252 228  255 128 0
3  254 228 253  255 128 0
3  244 243 245  255 128 0
3  244 245 246  255 128 0
3  223 312 313  255 128 0
3  313 314 223  255 128 0
3  261 267 263  255 128 0
3  312 223 263  255 128 0
3  267 312 263  255 128 0
3  280 310 311  255 128 0
3  312 267 311  255 128 0
3  267 224 311  255 128 0
3  311 224 280  255 128 0
3  310 280 225  255 128 0
3  225 274 310  255 128 0
3  314 264 223  255 128 0
3  261 263 265  255 128 0
3  264 260 265  255 128 0
3  262 269 268  255 128 0
3  269 266 268  255 128 0
3  261 262 268  255 128 0
3  260 261 265  255 128 0
3  315 264 314  255 128 0
3  270 290 281  255 128 0
3  270 275 290  255 128 0
3  279 278 275  255 128 0
3  269 270 281  255 128 0
3  269 281 266  255 128 0
3  315 229 264  255 128 0
3  268 267 261  255 128 0
3  303 297 300  255 128 0
3  309 299 297  255 128 0
3  296 297 303  255 128 0
3  299 309 287  255 128 0
3  297 299 300  255 128 0
3  274 309 310  255 128 0
3  301 303 300  255 128 0
3  295 296 304  255 128 0
3  304 296 303  255 128 0
3  302 295 304  255 128 0
3  302 301 307  255 128 0
3  294 302 307  255 128 0
3  294 295 302  255 128 0
3  274 226 309  255 128 0
3  309 226 287  255 128 0
3  285 291 273  255 128 0
3  273 291 288  255 128 0
3  291 285 276  255 128 0
3  308 305 298  255 128 0
3  294 305 308  255 128 0
3  286 292 308  255 128 0
3  293 294 308  255 128 0
3  307 305 294  255 128 0
3  292 286 288  255 128 0
3  299 287 227  255 128 0
3  279 275 270  255 128 0
3  316 264 229  255 128 0
3  316 229 230  255 128 0
3  228 231 232  255 128 0
3  253 232 233  255 128 0
3  316 230 231  255 128 0
3  228 255 316  255 128 0
3  316 231 228  255 128 0
3  253 228 232  255 128 0
3  253 249 250  255 128 0
3  253 233 234  255 128 0
3  249 253 317  255 128 0
3  317 234 235  255 128 0
3  253 250 254  255 128 0
3  259 264 316  255 128 0
3  245 236 237  255 128 0
3  246 245 237  255 128 0
3  243 236 245  255 128 0
3  239 246 238  255 128 0
3  237 238 246  255 128 0
3  239 244 246  255 128 0
3  317 235 236  255 128 0
3  317 236 243  255 128 0
3  234 317 253  255 128 0
3  241 244 240  255 128 0
3  239 240 244  255 128 0
3  241 317 243  255 128 0
3  243 244 241  255 128 0
3  249 317 248  255 128 0
3  241 247 317  255 128 0
3  279 270 283  255 128 0
3  270 271 283  255 128 0
3  272 289 271  255 128 0
3  289 283 271  255 128 0
3  284 289 272  255 128 0
3  284 272 291  255 128 0
3  292 293 308  255 128 0
3  291 292 288  255 128 0
3  277 282 284  255 128 0
3  291 277 284  255 128 0
3  276 277 291  255 128 0
3  258 259 316  255 128 0
3  258 316 255  255 128 0
3  255 257 258  255 128 0
3  252 255 228  255 128 0
3  254 251 252  255 128 0
3  255 252 251  255 128 0
3  260 264 259  255 128 0
3  251 254 250  255 128 0
3  256 257 255  255 128 0
3  247 248 317  255 128 0
3  247 241 242  255 128 0
3  542 543 551  255 0 255
3  550 542 551  255 0 255
3  550 551 549  255 0 255
3  540 550 549  255 0 255
3  547 548 546  255 0 255
3  543 547 546  255 0 255
3  544 545 547  255 0 255
3  547 543 542  255 0 255
3  547 542 544  255 0 255
3  541 542 550  255 0 255
3  550 540 322  255 0 255
3  550 322 541  255 0 255
3  318 319 517  255 0 255
3  517 324 323  255 0 255
3  517 323 318  255 0 255
3  518 498 513  255 0 255
3  513 325 515  255 0 255
3  513 515 518  255 0 255
3  516 320 498  255 0 255
3  518 516 498  255 0 255
3  319 516 518  255 0 255
3  517 319 518  255 0 255
3  517 518 515  255 0 255
3  324 517 515  255 0 255
3  500 502 508  255 0 255
3  508 501 499  255 0 255
3  508 499 500  255 0 255
3  522 530 532  255 0 255
3  531 522 532  255 0 255
3  507 519 530  255 0 255
3  530 522 520  255 0 255
3  530 520 507  255 0 255
3  510 520 522  255 0 255
3  521 510 522  255 0 255
3  502 507 520  255 0 255
3  520 510 508  255 0 255
3  520 508 502  255 0 255
3  501 508 510  255 0 255
3  509 501 510  255 0 255
3  509 510 521  255 0 255
3  521 506 491  255 0 255
3  521 491 509  255 0 255
3  321 496 500  255 0 255
3  500 499 497  255 0 255
3  500 497 321  255 0 255
3  497 499 512  255 0 255
3  512 498 320  255 0 255
3  512 320 497  255 0 255
3  514 501 509  255 0 255
3  509 491 511  255 0 255
3  509 511 514  255 0 255
3  512 499 501  255 0 255
3  514 512 501  255 0 255
3  498 512 514  255 0 255
3  513 498 514  255 0 255
3  513 514 511  255 0 255
3  325 513 511  255 0 255
3  504 322 503  255 0 255
3  505 504 503  255 0 255
3  504 505 529  255 0 255
3  529 496 321  255 0 255
3  529 321 504  255 0 255
3  322 540 552  255 0 255
3  503 322 552  255 0 255
3  323 324 527  255 0 255
3  527 327 326  255 0 255
3  527 326 323  255 0 255
3  528 492 328  255 0 255
3  526 528 328  255 0 255
3  515 325 524  255 0 255
3  524 492 528  255 0 255
3  524 528 515  255 0 255
3  324 515 528  255 0 255
3  527 324 528  255 0 255
3  527 528 526  255 0 255
3  327 527 526  255 0 255
3  325 511 525  255 0 255
3  524 325 525  255 0 255
3  524 525 523  255 0 255
3  492 524 523  255 0 255
3  326 327 330  255 0 255
3  329 326 330  255 0 255
3  486 479 526  255 0 255
3  486 331 479  255 0 255
3  526 328 486  255 0 255
3  330 327 526  255 0 255
3  479 330 526  255 0 255
3  329 330 480  255 0 255
3  480 333 332  255 0 255
3  480 332 329  255 0 255
3  481 434 477  255 0 255
3  477 334 457  255 0 255
3  477 457 481  255 0 255
3  479 331 434  255 0 255
3  481 479 434  255 0 255
3  330 479 481  255 0 255
3  480 330 481  255 0 255
3  480 481 457  255 0 255
3  333 480 457  255 0 255
3  478 477 434  255 0 255
3  477 478 472  255 0 255
3  334 477 472  255 0 255
3  332 333 458  255 0 255
3  458 336 335  255 0 255
3  458 335 332  255 0 255
3  459 419 454  255 0 255
3  454 337 456  255 0 255
3  454 456 459  255 0 255
3  457 334 473  255 0 255
3  473 419 459  255 0 255
3  473 459 457  255 0 255
3  333 457 459  255 0 255
3  458 333 459  255 0 255
3  458 459 456  255 0 255
3  336 458 456  255 0 255
3  447 437 338  255 0 255
3  445 447 338  255 0 255
3  447 433 443  255 0 255
3  443 416 437  255 0 255
3  443 437 447  255 0 255
3  446 425 471  255 0 255
3  471 433 447  255 0 255
3  471 447 446  255 0 255
3  446 447 445  255 0 255
3  423 446 445  255 0 255
3  444 433 471  255 0 255
3  471 425 464  255 0 255
3  463 466 470  255 0 255
3  470 464 425  255 0 255
3  470 425 463  255 0 255
3  465 466 463  255 0 255
3  451 465 463  255 0 255
3  469 446 423  255 0 255
3  467 469 423  255 0 255
3  469 451 463  255 0 255
3  463 425 446  255 0 255
3  463 446 469  255 0 255
3  424 451 469  255 0 255
3  468 424 469  255 0 255
3  468 469 467  255 0 255
3  418 468 467  255 0 255
3  334 472 474  255 0 255
3  473 334 474  255 0 255
3  473 474 453  255 0 255
3  419 473 453  255 0 255
3  455 424 468  255 0 255
3  468 418 452  255 0 255
3  468 452 455  255 0 255
3  419 453 455  255 0 255
3  454 419 455  255 0 255
3  454 455 452  255 0 255
3  337 454 452  255 0 255
3  411 414 436  255 0 255
3  436 417 415  255 0 255
3  436 415 411  255 0 255
3  438 436 414  255 0 255
3  435 438 414  255 0 255
3  422 417 436  255 0 255
3  438 422 436  255 0 255
3  437 416 432  255 0 255
3  432 422 438  255 0 255
3  432 438 437  255 0 255
3  437 438 435  255 0 255
3  338 437 435  255 0 255
3  391 379 402  255 0 255
3  402 340 388  255 0 255
3  402 388 391  255 0 255
3  383 389 391  255 0 255
3  390 383 391  255 0 255
3  390 391 388  255 0 255
3  381 390 388  255 0 255
3  410 407 383  255 0 255
3  408 410 383  255 0 255
3  409 410 408  255 0 255
3  382 409 408  255 0 255
3  408 383 390  255 0 255
3  339 382 408  255 0 255
3  390 381 339  255 0 255
3  339 408 390  255 0 255
3  400 384 380  255 0 255
3  397 400 380  255 0 255
3  387 398 400  255 0 255
3  399 387 400  255 0 255
3  399 400 397  255 0 255
3  385 399 397  255 0 255
3  386 387 399  255 0 255
3  399 385 379  255 0 255
3  399 379 386  255 0 255
3  379 385 403  255 0 255
3  402 379 403  255 0 255
3  402 403 401  255 0 255
3  340 402 401  255 0 255
3  358 356 357  255 0 255
3  359 358 357  255 0 255
3  450 441 420  255 0 255
3  448 450 420  255 0 255
3  450 423 445  255 0 255
3  445 338 441  255 0 255
3  445 441 450  255 0 255
3  449 418 467  255 0 255
3  467 423 450  255 0 255
3  467 450 449  255 0 255
3  449 450 448  255 0 255
3  427 449 448  255 0 255
3  452 418 449  255 0 255
3  426 337 452  255 0 255
3  449 427 426  255 0 255
3  426 452 449  255 0 255
3  392 421 440  255 0 255
3  440 411 339  255 0 255
3  440 339 392  255 0 255
3  442 440 421  255 0 255
3  439 442 421  255 0 255
3  414 411 440  255 0 255
3  442 414 440  255 0 255
3  441 338 435  255 0 255
3  435 414 442  255 0 255
3  435 442 441  255 0 255
3  441 442 439  255 0 255
3  420 441 439  255 0 255
3  388 340 395  255 0 255
3  393 381 388  255 0 255
3  395 365 393  255 0 255
3  393 388 395  255 0 255
3  339 381 393  255 0 255
3  392 339 393  255 0 255
3  369 370 372  255 0 255
3  371 369 372  255 0 255
3  367 373 375  255 0 255
3  374 367 375  255 0 255
3  374 375 370  255 0 255
3  369 374 370  255 0 255
3  366 367 374  255 0 255
3  374 369 368  255 0 255
3  374 368 366  255 0 255
3  395 396 394  255 0 255
3  365 395 394  255 0 255
3  318 557 556  255 0 255
3  557 318 558  255 0 255
3  319 556 555  255 0 255
3  556 319 318  255 0 255
3  319 555 516  255 0 255
3  559 323 560  255 0 255
3  326 561 560  255 0 255
3  323 326 560  255 0 255
3  318 323 559  255 0 255
3  318 559 558  255 0 255
3  562 561 326  255 0 255
3  554 320 555  255 0 255
3  497 320 554  255 0 255
3  497 554 321  255 0 255
3  493 511 491  255 0 255
3  555 320 516  255 0 255
3  492 490 328  255 0 255
3  493 490 523  255 0 255
3  493 523 525  255 0 255
3  523 490 492  255 0 255
3  493 491 506  255 0 255
3  488 328 490  255 0 255
3  493 525 511  255 0 255
3  494 493 506  255 0 255
3  563 562 329  255 0 255
3  486 487 331  255 0 255
3  564 563 329  255 0 255
3  488 486 328  255 0 255
3  341 564 332  255 0 255
3  472 478 475  255 0 255
3  434 331 483  255 0 255
3  329 332 564  255 0 255
3  483 478 434  255 0 255
3  483 331 484  255 0 255
3  487 486 488  255 0 255
3  484 331 487  255 0 255
3  487 485 484  255 0 255
3  490 489 488  255 0 255
3  475 462 474  255 0 255
3  476 475 478  255 0 255
3  474 462 453  255 0 255
3  482 476 483  255 0 255
3  483 476 478  255 0 255
3  475 474 472  255 0 255
3  341 332 342  255 0 255
3  329 562 326  255 0 255
3  553 541 504  255 0 255
3  554 553 321  255 0 255
3  541 544 542  255 0 255
3  541 553 539  255 0 255
3  553 504 321  255 0 255
3  541 539 544  255 0 255
3  500 496 502  255 0 255
3  496 529 533  255 0 255
3  322 504 541  255 0 255
3  533 529 505  255 0 255
3  545 544 539  255 0 255
3  547 545 548  255 0 255
3  545 539 538  255 0 255
3  548 538 537  255 0 255
3  538 548 545  255 0 255
3  548 537 546  255 0 255
3  551 543 546  255 0 255
3  536 551 546  255 0 255
3  551 536 549  255 0 255
3  549 552 540  255 0 255
3  536 546 537  255 0 255
3  535 549 536  255 0 255
3  521 522 531  255 0 255
3  507 502 533  255 0 255
3  531 532 494  255 0 255
3  531 494 506  255 0 255
3  530 495 532  255 0 255
3  519 495 530  255 0 255
3  532 495 494  255 0 255
3  495 519 533  255 0 255
3  521 531 506  255 0 255
3  519 507 533  255 0 255
3  534 505 503  255 0 255
3  533 505 534  255 0 255
3  534 503 552  255 0 255
3  535 534 552  255 0 255
3  535 552 549  255 0 255
3  382 406 409  255 0 255
3  382 415 406  255 0 255
3  409 406 410  255 0 255
3  407 405 404  255 0 255
3  410 405 407  255 0 255
3  404 383 407  255 0 255
3  410 406 405  255 0 255
3  496 533 502  255 0 255
3  453 462 455  255 0 255
3  465 461 460  255 0 255
3  461 465 424  255 0 255
3  460 431 470  255 0 255
3  460 466 465  255 0 255
3  460 470 466  255 0 255
3  424 455 461  255 0 255
3  451 424 465  255 0 255
3  464 470 431  255 0 255
3  461 455 462  255 0 255
3  335 342 332  255 0 255
3  464 431 430  255 0 255
3  444 430 429  255 0 255
3  430 444 471  255 0 255
3  429 428 416  255 0 255
3  413 432 428  255 0 255
3  412 417 413  255 0 255
3  429 443 444  255 0 255
3  443 433 444  255 0 255
3  432 416 428  255 0 255
3  422 432 413  255 0 255
3  416 443 429  255 0 255
3  464 430 471  255 0 255
3  413 417 422  255 0 255
3  406 415 412  255 0 255
3  358 344 343  255 0 255
3  344 358 359  255 0 255
3  343 335 356  255 0 255
3  335 343 342  255 0 255
3  343 356 358  255 0 255
3  356 335 348  255 0 255
3  345 359 346  255 0 255
3  359 345 344  255 0 255
3  346 359 357  255 0 255
3  347 357 348  255 0 255
3  357 347 346  255 0 255
3  348 357 356  255 0 255
3  348 335 349  255 0 255
3  456 426 350  255 0 255
3  456 337 426  255 0 255
3  426 427 351  255 0 255
3  336 456 350  255 0 255
3  448 351 427  255 0 255
3  426 351 350  255 0 255
3  448 420 351  255 0 255
3  439 352 420  255 0 255
3  351 420 352  255 0 255
3  336 350 349  255 0 255
3  335 336 349  255 0 255
3  417 412 415  255 0 255
3  415 382 339  255 0 255
3  386 389 387  255 0 255
3  386 391 389  255 0 255
3  398 387 404  255 0 255
3  389 383 404  255 0 255
3  415 339 411  255 0 255
3  379 391 386  255 0 255
3  340 401 395  255 0 255
3  400 398 384  255 0 255
3  384 378 377  255 0 255
3  378 384 398  255 0 255
3  384 377 380  255 0 255
3  378 398 404  255 0 255
3  397 380 403  255 0 255
3  397 403 385  255 0 255
3  403 376 401  255 0 255
3  376 403 380  255 0 255
3  395 401 376  255 0 255
3  396 376 366  255 0 255
3  396 395 376  255 0 255
3  376 364 373  255 0 255
3  404 387 389  255 0 255
3  421 392 352  255 0 255
3  393 365 353  255 0 255
3  365 394 354  255 0 255
3  353 392 393  255 0 255
3  353 365 354  255 0 255
3  368 354 394  255 0 255
3  394 366 368  255 0 255
3  367 366 376  255 0 255
3  371 354 368  255 0 255
3  392 353 352  255 0 255
3  439 421 352  255 0 255
3  366 394 396  255 0 255
3  373 363 375  255 0 255
3  362 361 370  255 0 255
3  375 363 362  255 0 255
3  364 363 373  255 0 255
3  375 362 370  255 0 255
3  380 377 376  255 0 255
3  369 371 368  255 0 255
3  372 360 355  255 0 255
3  360 372 370  255 0 255
3  372 355 371  255 0 255
3  354 371 355  255 0 255
3  360 370 361  255 0 255
3  373 367 376  255 0 255
3  1527 1536 343  240 128 128
3  236 1527 343  240 128 128
3  236 343 344  245 222 179
3  237 236 344  245 222 179
3  237 344 345  255 20 147
3  238 237 345  255 20 147
3  346 565 566  128 64 255
3  345 346 566  128 64 255
3  565 239 238  128 64 255
3  566 565 238  128 64 255
3  347 240 239  128 64 255
3  346 347 239  128 64 255
3  348 241 240  128 64 255
3  347 348 240  128 64 255
3  349 242 241  128 64 255
3  348 349 241  128 64 255
3  1486 1488 1538  128 64 255
3  1486 1538 1537  128 64 255
3  1488 1489 1539  128 64 255
3  1488 1539 1538  128 64 255
3  360 567 569  255 128 128
3  355 360 569  255 128 128
3  567 568 570  255 128 128
3  569 567 570  255 128 128
3  568 15 14  255 128 128
3  570 568 14  255 128 128
3  361 571 572  255 128 128
3  360 361 572  255 128 128
3  571 16 15  255 128 128
3  572 571 15  255 128 128
3  362 573 576  255 128 128
3  361 362 576  255 128 128
3  573 574 1551  255 128 128
3  576 573 1551  255 128 128
3  574 575 577  255 128 128
3  1551 574 577  255 128 128
3  575 17 16  255 128 128
3  577 575 16  255 128 128
3  363 18 17  255 128 128
3  362 363 17  255 128 128
3  364 578 582  255 128 128
3  363 364 582  255 128 128
3  578 579 583  255 128 128
3  582 578 583  255 128 128
3  579 580 584  255 128 128
3  583 579 584  255 128 128
3  580 581 585  255 128 128
3  584 580 585  255 128 128
3  581 19 18  255 128 128
3  585 581 18  255 128 128
3  1490 1540 587  173 216 230
3  586 1490 587  173 216 230
3  586 587 376  173 216 230
3  45 586 376  173 216 230
3  377 46 45  255 0 0
3  376 377 45  255 0 0
3  614 588 1542  255 0 0
3  614 1542 613  255 0 0
3  615 589 588  255 0 0
3  615 588 614  255 0 0
3  616 590 589  255 0 0
3  616 589 615  255 0 0
3  617 591 590  255 0 0
3  617 590 616  255 0 0
3  618 592 591  255 0 0
3  618 591 617  255 0 0
3  619 593 592  255 0 0
3  619 592 618  255 0 0
3  620 594 593  255 0 0
3  620 593 619  255 0 0
3  621 595 594  255 0 0
3  621 594 620  255 0 0
3  622 596 595  255 0 0
3  622 595 621  255 0 0
3  623 597 596  255 0 0
3  623 596 622  255 0 0
3  624 598 597  255 0 0
3  624 597 623  255 0 0
3  625 599 598  255 0 0
3  625 598 624  255 0 0
3  626 600 599  255 0 0
3  626 599 625  255 0 0
3  627 601 600  255 0 0
3  627 600 626  255 0 0
3  628 602 601  255 0 0
3  628 601 627  255 0 0
3  629 603 602  255 0 0
3  629 602 628  255 0 0
3  630 604 603  255 0 0
3  630 603 629  255 0 0
3  631 605 604  255 0 0
3  631 604 630  255 0 0
3  632 606 605  255 0 0
3  632 605 631  255 0 0
3  633 607 606  255 0 0
3  633 606 632  255 0 0
3  634 608 607  255 0 0
3  634 607 633  255 0 0
3  635 609 608  255 0 0
3  635 608 634  255 0 0
3  636 610 609  255 0 0
3  636 609 635  255 0 0
3  637 611 610  255 0 0
3  637 610 636  255 0 0
3  638 612 611  255 0 0
3  638 611 637  255 0 0
3  639 1492 612  255 0 0
3  639 612 638  255 0 0
3  640 614 613  255 0 0
3  640 613 1541  255 0 0
3  641 615 614  255 0 0
3  641 614 640  255 0 0
3  642 616 615  255 0 0
3  642 615 641  255 0 0
3  643 617 616  255 0 0
3  643 616 642  255 0 0
3  644 618 617  255 0 0
3  644 617 643  255 0 0
3  645 619 618  255 0 0
3  645 618 644  255 0 0
3  646 620 619  255 0 0
3  646 619 645  255 0 0
3  647 621 620  255 0 0
3  647 620 646  255 0 0
3  648 622 621  255 0 0
3  648 621 647  255 0 0
3  649 623 622  255 0 0
3  649 622 648  255 0 0
3  650 624 623  255 0 0
3  650 623 649  255 0 0
3  651 625 624  255 0 0
3  651 624 650  255 0 0
3  652 626 625  255 0 0
3  652 625 651  255 0 0
3  653 627 626  255 0 0
3  653 626 652  255 0 0
3  654 628 627  255 0 0
3  654 627 653  255 0 0
3  655 629 628  255 0 0
3  655 628 654  255 0 0
3  656 630 629  255 0 0
3  656 629 655  255 0 0
3  657 631 630  255 0 0
3  657 630 656  255 0 0
3  658 632 631  255 0 0
3  658 631 657  255 0 0
3  659 633 632  255 0 0
3  659 632 658  255 0 0
3  660 634 633  255 0 0
3  660 633 659  255 0 0
3  661 635 634  255 0 0
3  661 634 660  255 0 0
3  662 636 635  255 0 0
3  662 635 661  255 0 0
3  663 637 636  255 0 0
3  663 636 662  255 0 0
3  664 638 637  255 0 0
3  664 637 663  255 0 0
3  1491 639 638  255 0 0
3  1491 638 664  255 0 0
3  47 378 404  50 205 50
3  81 47 404  50 205 50
3  81 665 668  255 128 255
3  82 81 668  255 128 255
3  665 666 669  255 128 255
3  668 665 669  255 128 255
3  666 667 670  255 128 255
3  669 666 670  255 128 255
3  667 404 405  255 128 255
3  670 667 405  255 128 255
3  82 405 406  255 128 255
3  83 82 406  255 128 255
3  83 406 412  255 255 128
3  92 83 412  255 255 128
3  92 671 675  255 255 128
3  93 92 675  255 255 128
3  671 672 676  255 255 128
3  675 671 676  255 255 128
3  672 673 677  255 255 128
3  676 672 677  255 255 128
3  673 674 678  255 255 128
3  677 673 678  255 255 128
3  674 412 413  255 255 128
3  678 674 413  255 255 128
3  93 679 680  0 255 255
3  106 93 680  0 255 255
3  679 413 428  0 255 255
3  680 679 428  0 255 255
3  106 681 687  0 255 255
3  107 106 687  0 255 255
3  681 682 688  0 255 255
3  687 681 688  0 255 255
3  682 683 689  0 255 255
3  688 682 689  0 255 255
3  683 1552 690  0 255 255
3  689 683 690  0 255 255
3  1552 684 691  0 255 255
3  690 1552 691  0 255 255
3  684 685 692  0 255 255
3  691 684 692  0 255 255
3  685 686 693  0 255 255
3  692 685 693  0 255 255
3  686 428 429  0 255 255
3  693 686 429  0 255 255
3  697 694 1493  0 255 255
3  697 1493 696  0 255 255
3  698 695 694  0 255 255
3  698 694 697  0 255 255
3  699 1543 695  0 255 255
3  699 695 698  0 255 255
3  700 697 696  0 255 255
3  700 696 1494  0 255 255
3  701 698 697  0 255 255
3  701 697 700  0 255 255
3  1544 699 698  0 255 255
3  1544 698 701  0 255 255
3  108 702 705  0 255 255
3  109 108 705  0 255 255
3  702 703 706  0 255 255
3  705 702 706  0 255 255
3  703 704 707  0 255 255
3  706 703 707  0 255 255
3  704 430 431  0 255 255
3  707 704 431  0 255 255
3  860 708 1513  0 0 255
3  860 1513 859  0 0 255
3  861 709 708  0 0 255
3  861 708 860  0 0 255
3  862 710 709  0 0 255
3  862 709 861  0 0 255
3  863 711 710  0 0 255
3  863 710 862  0 0 255
3  864 712 711  0 0 255
3  864 711 863  0 0 255
3  865 713 712  0 0 255
3  865 712 864  0 0 255
3  866 714 713  0 0 255
3  866 713 865  0 0 255
3  867 715 714  0 0 255
3  867 714 866  0 0 255
3  868 716 715  0 0 255
3  868 715 867  0 0 255
3  869 717 716  0 0 255
3  869 716 868  0 0 255
3  870 718 717  0 0 255
3  870 717 869  0 0 255
3  871 719 718  0 0 255
3  871 718 870  0 0 255
3  872 720 719  0 0 255
3  872 719 871  0 0 255
3  873 721 720  0 0 255
3  873 720 872  0 0 255
3  874 722 721  0 0 255
3  874 721 873  0 0 255
3  875 723 722  0 0 255
3  875 722 874  0 0 255
3  876 724 723  0 0 255
3  876 723 875  0 0 255
3  877 725 724  0 0 255
3  877 724 876  0 0 255
3  878 726 725  0 0 255
3  878 725 877  0 0 255
3  879 727 726  0 0 255
3  879 726 878  0 0 255
3  880 728 727  0 0 255
3  880 727 879  0 0 255
3  881 729 728  0 0 255
3  881 728 880  0 0 255
3  882 730 729  0 0 255
3  882 729 881  0 0 255
3  883 731 730  0 0 255
3  883 730 882  0 0 255
3  884 732 731  0 0 255
3  884 731 883  0 0 255
3  885 733 732  0 0 255
3  885 732 884  0 0 255
3  886 734 733  0 0 255
3  886 733 885  0 0 255
3  887 735 734  0 0 255
3  887 734 886  0 0 255
3  888 736 735  0 0 255
3  888 735 887  0 0 255
3  889 737 736  0 0 255
3  889 736 888  0 0 255
3  890 738 737  0 0 255
3  890 737 889  0 0 255
3  891 739 738  0 0 255
3  891 738 890  0 0 255
3  892 740 739  0 0 255
3  892 739 891  0 0 255
3  893 741 740  0 0 255
3  893 740 892  0 0 255
3  894 742 741  0 0 255
3  894 741 893  0 0 255
3  895 743 742  0 0 255
3  895 742 894  0 0 255
3  896 744 743  0 0 255
3  896 743 895  0 0 255
3  897 745 744  0 0 255
3  897 744 896  0 0 255
3  898 746 745  0 0 255
3  898 745 897  0 0 255
3  899 747 746  0 0 255
3  899 746 898  0 0 255
3  900 748 747  0 0 255
3  900 747 899  0 0 255
3  901 749 748  0 0 255
3  901 748 900  0 0 255
3  902 750 749  0 0 255
3  902 749 901  0 0 255
3  903 751 750  0 0 255
3  903 750 902  0 0 255
3  904 752 751  0 0 255
3  904 751 903  0 0 255
3  905 753 752  0 0 255
3  905 752 904  0 0 255
3  906 754 753  0 0 255
3  906 753 905  0 0 255
3  907 755 754  0 0 255
3  907 754 906  0 0 255
3  908 756 755  0 0 255
3  908 755 907  0 0 255
3  909 757 756  0 0 255
3  909 756 908  0 0 255
3  910 758 757  0 0 255
3  910 757 909  0 0 255
3  911 759 758  0 0 255
3  911 758 910  0 0 255
3  912 760 759  0 0 255
3  912 759 911  0 0 255
3  913 761 760  0 0 255
3  913 760 912  0 0 255
3  914 762 761  0 0 255
3  914 761 913  0 0 255
3  915 763 762  0 0 255
3  915 762 914  0 0 255
3  916 764 763  0 0 255
3  916 763 915  0 0 255
3  917 765 764  0 0 255
3  917 764 916  0 0 255
3  918 766 765  0 0 255
3  918 765 917  0 0 255
3  919 767 766  0 0 255
3  919 766 918  0 0 255
3  920 768 767  0 0 255
3  920 767 919  0 0 255
3  921 769 768  0 0 255
3  921 768 920  0 0 255
3  922 770 769  0 0 255
3  922 769 921  0 0 255
3  923 771 770  0 0 255
3  923 770 922  0 0 255
3  924 772 771  0 0 255
3  924 771 923  0 0 255
3  925 773 772  0 0 255
3  925 772 924  0 0 255
3  926 774 773  0 0 255
3  926 773 925  0 0 255
3  927 775 774  0 0 255
3  927 774 926  0 0 255
3  928 776 775  0 0 255
3  928 775 927  0 0 255
3  929 777 776  0 0 255
3  929 776 928  0 0 255
3  930 778 777  0 0 255
3  930 777 929  0 0 255
3  931 779 778  0 0 255
3  931 778 930  0 0 255
3  932 780 779  0 0 255
3  932 779 931  0 0 255
3  933 781 780  0 0 255
3  933 780 932  0 0 255
3  934 782 781  0 0 255
3  934 781 933  0 0 255
3  935 783 782  0 0 255
3  935 782 934  0 0 255
3  936 784 783  0 0 255
3  936 783 935  0 0 255
3  937 785 784  0 0 255
3  937 784 936  0 0 255
3  938 786 785  0 0 255
3  938 785 937  0 0 255
3  939 787 786  0 0 255
3  939 786 938  0 0 255
3  940 788 787  0 0 255
3  940 787 939  0 0 255
3  941 789 788  0 0 255
3  941 788 940  0 0 255
3  942 790 789  0 0 255
3  942 789 941  0 0 255
3  943 791 790  0 0 255
3  943 790 942  0 0 255
3  944 792 791  0 0 255
3  944 791 943  0 0 255
3  945 793 792  0 0 255
3  945 792 944  0 0 255
3  946 794 793  0 0 255
3  946 793 945  0 0 255
3  947 795 794  0 0 255
3  947 794 946  0 0 255
3  948 796 795  0 0 255
3  948 795 947  0 0 255
3  949 797 796  0 0 255
3  949 796 948  0 0 255
3  950 798 797  0 0 255
3  950 797 949  0 0 255
3  951 799 798  0 0 255
3  951 798 950  0 0 255
3  952 800 799  0 0 255
3  952 799 951  0 0 255
3  953 801 800  0 0 255
3  953 800 952  0 0 255
3  954 802 801  0 0 255
3  954 801 953  0 0 255
3  955 803 802  0 0 255
3  955 802 954  0 0 255
3  956 804 803  0 0 255
3  956 803 955  0 0 255
3  957 805 804  0 0 255
3  957 804 956  0 0 255
3  958 806 805  0 0 255
3  958 805 957  0 0 255
3  959 807 806  0 0 255
3  959 806 958  0 0 255
3  960 808 807  0 0 255
3  960 807 959  0 0 255
3  961 809 808  0 0 255
3  961 808 960  0 0 255
3  962 810 809  0 0 255
3  962 809 961  0 0 255
3  963 811 810  0 0 255
3  963 810 962  0 0 255
3  964 812 811  0 0 255
3  964 811 963  0 0 255
3  965 813 812  0 0 255
3  965 812 964  0 0 255
3  966 814 813  0 0 255
3  966 813 965  0 0 255
3  967 815 814  0 0 255
3  967 814 966  0 0 255
3  968 816 815  0 0 255
3  968 815 967  0 0 255
3  969 817 816  0 0 255
3  969 816 968  0 0 255
3  970 818 817  0 0 255
3  970 817 969  0 0 255
3  971 819 818  0 0 255
3  971 818 970  0 0 255
3  972 820 819  0 0 255
3  972 819 971  0 0 255
3  973 821 820  0 0 255
3  973 820 972  0 0 255
3  974 822 821  0 0 255
3  974 821 973  0 0 255
3  975 823 822  0 0 255
3  975 822 974  0 0 255
3  976 824 823  0 0 255
3  976 823 975  0 0 255
3  977 825 824  0 0 255
3  977 824 976  0 0 255
3  978 826 825  0 0 255
3  978 825 977  0 0 255
3  979 827 826  0 0 255
3  979 826 978  0 0 255
3  980 828 827  0 0 255
3  980 827 979  0 0 255
3  981 829 828  0 0 255
3  981 828 980  0 0 255
3  982 830 829  0 0 255
3  982 829 981  0 0 255
3  983 831 830  0 0 255
3  983 830 982  0 0 255
3  984 832 831  0 0 255
3  984 831 983  0 0 255
3  985 833 832  0 0 255
3  985 832 984  0 0 255
3  986 834 833  0 0 255
3  986 833 985  0 0 255
3  987 835 834  0 0 255
3  987 834 986  0 0 255
3  988 836 835  0 0 255
3  988 835 987  0 0 255
3  989 837 836  0 0 255
3  989 836 988  0 0 255
3  990 838 837  0 0 255
3  990 837 989  0 0 255
3  991 839 838  0 0 255
3  991 838 990  0 0 255
3  992 840 839  0 0 255
3  992 839 991  0 0 255
3  993 841 840  0 0 255
3  993 840 992  0 0 255
3  994 842 841  0 0 255
3  994 841 993  0 0 255
3  995 843 842  0 0 255
3  995 842 994  0 0 255
3  996 844 843  0 0 255
3  996 843 995  0 0 255
3  997 845 844  0 0 255
3  997 844 996  0 0 255
3  998 846 845  0 0 255
3  998 845 997  0 0 255
3  999 847 846  0 0 255
3  999 846 998  0 0 255
3  1000 848 847  0 0 255
3  1000 847 999  0 0 255
3  1001 849 848  0 0 255
3  1001 848 1000  0 0 255
3  1002 850 849  0 0 255
3  1002 849 1001  0 0 255
3  1003 851 850  0 0 255
3  1003 850 1002  0 0 255
3  1004 852 851  0 0 255
3  1004 851 1003  0 0 255
3  1005 853 852  0 0 255
3  1005 852 1004  0 0 255
3  1006 854 853  0 0 255
3  1006 853 1005  0 0 255
3  1007 855 854  0 0 255
3  1007 854 1006  0 0 255
3  1008 856 855  0 0 255
3  1008 855 1007  0 0 255
3  1009 857 856  0 0 255
3  1009 856 1008  0 0 255
3  1010 858 857  0 0 255
3  1010 857 1009  0 0 255
3  1011 1545 858  0 0 255
3  1011 858 1010  0 0 255
3  1012 860 859  0 0 255
3  1012 859 1514  0 0 255
3  1013 861 860  0 0 255
3  1013 860 1012  0 0 255
3  1014 862 861  0 0 255
3  1014 861 1013  0 0 255
3  1015 863 862  0 0 255
3  1015 862 1014  0 0 255
3  1016 864 863  0 0 255
3  1016 863 1015  0 0 255
3  1017 865 864  0 0 255
3  1017 864 1016  0 0 255
3  1018 866 865  0 0 255
3  1018 865 1017  0 0 255
3  1019 867 866  0 0 255
3  1019 866 1018  0 0 255
3  1020 868 867  0 0 255
3  1020 867 1019  0 0 255
3  1021 869 868  0 0 255
3  1021 868 1020  0 0 255
3  1022 870 869  0 0 255
3  1022 869 1021  0 0 255
3  1023 871 870  0 0 255
3  1023 870 1022  0 0 255
3  1024 872 871  0 0 255
3  1024 871 1023  0 0 255
3  1025 873 872  0 0 255
3  1025 872 1024  0 0 255
3  1026 874 873  0 0 255
3  1026 873 1025  0 0 255
3  1027 875 874  0 0 255
3  1027 874 1026  0 0 255
3  1028 876 875  0 0 255
3  1028 875 1027  0 0 255
3  1029 877 876  0 0 255
3  1029 876 1028  0 0 255
3  1030 878 877  0 0 255
3  1030 877 1029  0 0 255
3  1031 879 878  0 0 255
3  1031 878 1030  0 0 255
3  1032 880 879  0 0 255
3  1032 879 1031  0 0 255
3  1033 881 880  0 0 255
3  1033 880 1032  0 0 255
3  1034 882 881  0 0 255
3  1034 881 1033  0 0 255
3  1035 883 882  0 0 255
3  1035 882 1034  0 0 255
3  1036 884 883  0 0 255
3  1036 883 1035  0 0 255
3  1037 885 884  0 0 255
3  1037 884 1036  0 0 255
3  1038 886 885  0 0 255
3  1038 885 1037  0 0 255
3  1039 887 886  0 0 255
3  1039 886 1038  0 0 255
3  1040 888 887  0 0 255
3  1040 887 1039  0 0 255
3  1041 889 888  0 0 255
3  1041 888 1040  0 0 255
3  1042 890 889  0 0 255
3  1042 889 1041  0 0 255
3  1043 891 890  0 0 255
3  1043 890 1042  0 0 255
3  1044 892 891  0 0 255
3  1044 891 1043  0 0 255
3  1045 893 892  0 0 255
3  1045 892 1044  0 0 255
3  1046 894 893  0 0 255
3  1046 893 1045  0 0 255
3  1047 895 894  0 0 255
3  1047 894 1046  0 0 255
3  1048 896 895  0 0 255
3  1048 895 1047  0 0 255
3  1049 897 896  0 0 255
3  1049 896 1048  0 0 255
3  1050 898 897  0 0 255
3  1050 897 1049  0 0 255
3  1051 899 898  0 0 255
3  1051 898 1050  0 0 255
3  1052 900 899  0 0 255
3  1052 899 1051  0 0 255
3  1053 901 900  0 0 255
3  1053 900 1052  0 0 255
3  1054 902 901  0 0 255
3  1054 901 1053  0 0 255
3  1055 903 902  0 0 255
3  1055 902 1054  0 0 255
3  1056 904 903  0 0 255
3  1056 903 1055  0 0 255
3  1057 905 904  0 0 255
3  1057 904 1056  0 0 255
3  1058 906 905  0 0 255
3  1058 905 1057  0 0 255
3  1059 907 906  0 0 255
3  1059 906 1058  0 0 255
3  1060 908 907  0 0 255
3  1060 907 1059  0 0 255
3  1061 909 908  0 0 255
3  1061 908 1060  0 0 255
3  1062 910 909  0 0 255
3  1062 909 1061  0 0 255
3  1063 911 910  0 0 255
3  1063 910 1062  0 0 255
3  1064 912 911  0 0 255
3  1064 911 1063  0 0 255
3  1065 913 912  0 0 255
3  1065 912 1064  0 0 255
3  1066 914 913  0 0 255
3  1066 913 1065  0 0 255
3  1067 915 914  0 0 255
3  1067 914 1066  0 0 255
3  1068 916 915  0 0 255
3  1068 915 1067  0 0 255
3  1069 917 916  0 0 255
3  1069 916 1068  0 0 255
3  1070 918 917  0 0 255
3  1070 917 1069  0 0 255
3  1071 919 918  0 0 255
3  1071 918 1070  0 0 255
3  1072 920 919  0 0 255
3  1072 919 1071  0 0 255
3  1073 921 920  0 0 255
3  1073 920 1072  0 0 255
3  1074 922 921  0 0 255
3  1074 921 1073  0 0 255
3  1075 923 922  0 0 255
3  1075 922 1074  0 0 255
3  1076 924 923  0 0 255
3  1076 923 1075  0 0 255
3  1077 925 924  0 0 255
3  1077 924 1076  0 0 255
3  1078 926 925  0 0 255
3  1078 925 1077  0 0 255
3  1079 927 926  0 0 255
3  1079 926 1078  0 0 255
3  1080 928 927  0 0 255
3  1080 927 1079  0 0 255
3  1081 929 928  0 0 255
3  1081 928 1080  0 0 255
3  1082 930 929  0 0 255
3  1082 929 1081  0 0 255
3  1083 931 930  0 0 255
3  1083 930 1082  0 0 255
3  1084 932 931  0 0 255
3  1084 931 1083  0 0 255
3  1085 933 932  0 0 255
3  1085 932 1084  0 0 255
3  1086 934 933  0 0 255
3  1086 933 1085  0 0 255
3  1087 935 934  0 0 255
3  1087 934 1086  0 0 255
3  1088 936 935  0 0 255
3  1088 935 1087  0 0 255
3  1089 937 936  0 0 255
3  1089 936 1088  0 0 255
3  1090 938 937  0 0 255
3  1090 937 1089  0 0 255
3  1091 939 938  0 0 255
3  1091 938 1090  0 0 255
3  1092 940 939  0 0 255
3  1092 939 1091  0 0 255
3  1093 941 940  0 0 255
3  1093 940 1092  0 0 255
3  1094 942 941  0 0 255
3  1094 941 1093  0 0 255
3  1095 943 942  0 0 255
3  1095 942 1094  0 0 255
3  1096 944 943  0 0 255
3  1096 943 1095  0 0 255
3  1097 945 944  0 0 255
3  1097 944 1096  0 0 255
3  1098 946 945  0 0 255
3  1098 945 1097  0 0 255
3  1099 947 946  0 0 255
3  1099 946 1098  0 0 255
3  1100 948 947  0 0 255
3  1100 947 1099  0 0 255
3  1101 949 948  0 0 255
3  1101 948 1100  0 0 255
3  1102 950 949  0 0 255
3  1102 949 1101  0 0 255
3  1103 951 950  0 0 255
3  1103 950 1102  0 0 255
3  1104 952 951  0 0 255
3  1104 951 1103  0 0 255
3  1105 953 952  0 0 255
3  1105 952 1104  0 0 255
3  1106 954 953  0 0 255
3  1106 953 1105  0 0 255
3  1107 955 954  0 0 255
3  1107 954 1106  0 0 255
3  1108 956 955  0 0 255
3  1108 955 1107  0 0 255
3  1109 957 956  0 0 255
3  1109 956 1108  0 0 255
3  1110 958 957  0 0 255
3  1110 957 1109  0 0 255
3  1111 959 958  0 0 255
3  1111 958 1110  0 0 255
3  1112 960 959  0 0 255
3  1112 959 1111  0 0 255
3  1113 961 960  0 0 255
3  1113 960 1112  0 0 255
3  1114 962 961  0 0 255
3  1114 961 1113  0 0 255
3  1115 963 962  0 0 255
3  1115 962 1114  0 0 255
3  1116 964 963  0 0 255
3  1116 963 1115  0 0 255
3  1117 965 964  0 0 255
3  1117 964 1116  0 0 255
3  1118 966 965  0 0 255
3  1118 965 1117  0 0 255
3  1119 967 966  0 0 255
3  1119 966 1118  0 0 255
3  1120 968 967  0 0 255
3  1120 967 1119  0 0 255
3  1121 969 968  0 0 255
3  1121 968 1120  0 0 255
3  1122 970 969  0 0 255
3  1122 969 1121  0 0 255
3  1123 971 970  0 0 255
3  1123 970 1122  0 0 255
3  1124 972 971  0 0 255
3  1124 971 1123  0 0 255
3  1125 973 972  0 0 255
3  1125 972 1124  0 0 255
3  1126 974 973  0 0 255
3  1126 973 1125  0 0 255
3  1127 975 974  0 0 255
3  1127 974 1126  0 0 255
3  1128 976 975  0 0 255
3  1128 975 1127  0 0 255
3  1129 977 976  0 0 255
3  1129 976 1128  0 0 255
3  1130 978 977  0 0 255
3  1130 977 1129  0 0 255
3  1131 979 978  0 0 255
3  1131 978 1130  0 0 255
3  1132 980 979  0 0 255
3  1132 979 1131  0 0 255
3  1133 981 980  0 0 255
3  1133 980 1132  0 0 255
3  1134 982 981  0 0 255
3  1134 981 1133  0 0 255
3  1135 983 982  0 0 255
3  1135 982 1134  0 0 255
3  1136 984 983  0 0 255
3  1136 983 1135  0 0 255
3  1137 985 984  0 0 255
3  1137 984 1136  0 0 255
3  1138 986 985  0 0 255
3  1138 985 1137  0 0 255
3  1139 987 986  0 0 255
3  1139 986 1138  0 0 255
3  1140 988 987  0 0 255
3  1140 987 1139  0 0 255
3  1141 989 988  0 0 255
3  1141 988 1140  0 0 255
3  1142 990 989  0 0 255
3  1142 989 1141  0 0 255
3  1143 991 990  0 0 255
3  1143 990 1142  0 0 255
3  1144 992 991  0 0 255
3  1144 991 1143  0 0 255
3  1145 993 992  0 0 255
3  1145 992 1144  0 0 255
3  1146 994 993  0 0 255
3  1146 993 1145  0 0 255
3  1147 995 994  0 0 255
3  1147 994 1146  0 0 255
3  1148 996 995  0 0 255
3  1148 995 1147  0 0 255
3  1149 997 996  0 0 255
3  1149 996 1148  0 0 255
3  1150 998 997  0 0 255
3  1150 997 1149  0 0 255
3  1151 999 998  0 0 255
3  1151 998 1150  0 0 255
3  1152 1000 999  0 0 255
3  1152 999 1151  0 0 255
3  1153 1001 1000  0 0 255
3  1153 1000 1152  0 0 255
3  1154 1002 1001  0 0 255
3  1154 1001 1153  0 0 255
3  1155 1003 1002  0 0 255
3  1155 1002 1154  0 0 255
3  1156 1004 1003  0 0 255
3  1156 1003 1155  0 0 255
3  1157 1005 1004  0 0 255
3  1157 1004 1156  0 0 255
3  1158 1006 1005  0 0 255
3  1158 1005 1157  0 0 255
3  1159 1007 1006  0 0 255
3  1159 1006 1158  0 0 255
3  1160 1008 1007  0 0 255
3  1160 1007 1159  0 0 255
3  1161 1009 1008  0 0 255
3  1161 1008 1160  0 0 255
3  1162 1010 1009  0 0 255
3  1162 1009 1161  0 0 255
3  1546 1011 1010  0 0 255
3  1546 1010 1162  0 0 255
3  1178 1163 1515  0 0 255
3  1178 1515 1177  0 0 255
3  1179 1164 1163  0 0 255
3  1179 1163 1178  0 0 255
3  1180 1165 1164  0 0 255
3  1180 1164 1179  0 0 255
3  1181 1166 1165  0 0 255
3  1181 1165 1180  0 0 255
3  1182 1167 1166  0 0 255
3  1182 1166 1181  0 0 255
3  1183 1168 1167  0 0 255
3  1183 1167 1182  0 0 255
3  1184 1169 1168  0 0 255
3  1184 1168 1183  0 0 255
3  1185 1170 1169  0 0 255
3  1185 1169 1184  0 0 255
3  1186 1171 1170  0 0 255
3  1186 1170 1185  0 0 255
3  1187 1172 1171  0 0 255
3  1187 1171 1186  0 0 255
3  1188 1173 1172  0 0 255
3  1188 1172 1187  0 0 255
3  1189 1174 1173  0 0 255
3  1189 1173 1188  0 0 255
3  1190 1175 1174  0 0 255
3  1190 1174 1189  0 0 255
3  1191 1176 1175  0 0 255
3  1191 1175 1190  0 0 255
3  1192 1547 1176  0 0 255
3  1192 1176 1191  0 0 255
3  1193 1178 1177  0 0 255
3  1193 1177 1516  0 0 255
3  1194 1179 1178  0 0 255
3  1194 1178 1193  0 0 255
3  1195 1180 1179  0 0 255
3  1195 1179 1194  0 0 255
3  1196 1181 1180  0 0 255
3  1196 1180 1195  0 0 255
3  1197 1182 1181  0 0 255
3  1197 1181 1196  0 0 255
3  1198 1183 1182  0 0 255
3  1198 1182 1197  0 0 255
3  1199 1184 1183  0 0 255
3  1199 1183 1198  0 0 255
3  1200 1185 1184  0 0 255
3  1200 1184 1199  0 0 255
3  1201 1186 1185  0 0 255
3  1201 1185 1200  0 0 255
3  1202 1187 1186  0 0 255
3  1202 1186 1201  0 0 255
3  1203 1188 1187  0 0 255
3  1203 1187 1202  0 0 255
3  1204 1189 1188  0 0 255
3  1204 1188 1203  0 0 255
3  1205 1190 1189  0 0 255
3  1205 1189 1204  0 0 255
3  1206 1191 1190  0 0 255
3  1206 1190 1205  0 0 255
3  1548 1192 1191  0 0 255
3  1548 1191 1206  0 0 255
3  192 1207 1217  0 0 255
3  193 192 1217  0 0 255
3  1207 1208 1218  0 0 255
3  1217 1207 1218  0 0 255
3  1208 1209 1219  0 0 255
3  1218 1208 1219  0 0 255
3  1209 1210 1220  0 0 255
3  1219 1209 1220  0 0 255
3  1210 1211 1221  0 0 255
3  1220 1210 1221  0 0 255
3  1211 1212 1222  0 0 255
3  1221 1211 1222  0 0 255
3  1212 1213 1223  0 0 255
3  1222 1212 1223  0 0 255
3  1213 1214 1224  0 0 255
3  1223 1213 1224  0 0 255
3  1214 1215 1225  0 0 255
3  1224 1214 1225  0 0 255
3  1215 1216 1226  0 0 255
3  1225 1215 1226  0 0 255
3  1216 461 462  0 0 255
3  1226 1216 462  0 0 255
3  475 1227 1228  192 192 0
3  462 475 1228  192 192 0
3  1227 1518 1517  192 192 0
3  1228 1227 1517  192 192 0
3  476 1229 1241  192 192 0
3  475 476 1241  192 192 0
3  1229 1230 1242  192 192 0
3  1241 1229 1242  192 192 0
3  1230 1231 1243  192 192 0
3  1242 1230 1243  192 192 0
3  1231 1232 1244  192 192 0
3  1243 1231 1244  192 192 0
3  1232 1233 1245  192 192 0
3  1244 1232 1245  192 192 0
3  1233 1234 1246  192 192 0
3  1245 1233 1246  192 192 0
3  1234 1235 1247  192 192 0
3  1246 1234 1247  192 192 0
3  1235 1236 1248  192 192 0
3  1247 1235 1248  192 192 0
3  1236 1237 1249  192 192 0
3  1248 1236 1249  192 192 0
3  1237 1238 1250  192 192 0
3  1249 1237 1250  192 192 0
3  1238 1239 1251  192 192 0
3  1250 1238 1251  192 192 0
3  1239 1240 1252  192 192 0
3  1251 1239 1252  192 192 0
3  1240 200 199  192 192 0
3  1252 1240 199  192 192 0
3  482 1253 1260  255 64 255
3  476 482 1260  255 64 255
3  1253 1254 1261  255 64 255
3  1260 1253 1261  255 64 255
3  1254 1255 1262  255 64 255
3  1261 1254 1262  255 64 255
3  1255 1256 1263  255 64 255
3  1262 1255 1263  255 64 255
3  1256 1257 1264  255 64 255
3  1263 1256 1264  255 64 255
3  1257 1258 1265  255 64 255
3  1264 1257 1265  255 64 255
3  1258 1259 1266  255 64 255
3  1265 1258 1266  255 64 255
3  1259 204 200  255 64 255
3  1266 1259 200  255 64 255
3  204 1267 1273  192 0 192
3  205 204 1273  192 0 192
3  1267 1268 1274  192 0 192
3  1273 1267 1274  192 0 192
3  1268 1269 1275  192 0 192
3  1274 1268 1275  192 0 192
3  1269 1270 1276  192 0 192
3  1275 1269 1276  192 0 192
3  1270 1271 1277  192 0 192
3  1276 1270 1277  192 0 192
3  1271 1272 1278  192 0 192
3  1277 1271 1278  192 0 192
3  1272 482 483  192 0 192
3  1278 1272 483  192 0 192
3  484 1279 1281  192 192 0
3  483 484 1281  192 192 0
3  1279 1280 1282  192 192 0
3  1281 1279 1282  192 192 0
3  1280 206 205  192 192 0
3  1282 1280 205  192 192 0
3  485 1283 1288  0 0 192
3  484 485 1288  0 0 192
3  1283 1284 1553  0 0 192
3  1288 1283 1553  0 0 192
3  1284 1285 1289  0 0 192
3  1553 1284 1289  0 0 192
3  1285 1286 1554  0 0 192
3  1289 1285 1554  0 0 192
3  1286 1287 1290  0 0 192
3  1554 1286 1290  0 0 192
3  1287 207 206  0 0 192
3  1290 1287 206  0 0 192
3  207 1291 1297  0 192 0
3  208 207 1297  0 192 0
3  1291 1292 1298  0 192 0
3  1297 1291 1298  0 192 0
3  1292 1293 1299  0 192 0
3  1298 1292 1299  0 192 0
3  1293 1294 1300  0 192 0
3  1299 1293 1300  0 192 0
3  1294 1295 1301  0 192 0
3  1300 1294 1301  0 192 0
3  1295 1296 1302  0 192 0
3  1301 1295 1302  0 192 0
3  1296 485 487  0 192 0
3  1302 1296 487  0 192 0
3  488 1303 1305  192 192 0
3  487 488 1305  192 192 0
3  1303 1304 1306  192 192 0
3  1305 1303 1306  192 192 0
3  1304 209 208  192 192 0
3  1306 1304 208  192 192 0
3  489 1307 1313  255 64 64
3  488 489 1313  255 64 64
3  1307 1308 1314  255 64 64
3  1313 1307 1314  255 64 64
3  1308 1309 1315  255 64 64
3  1314 1308 1315  255 64 64
3  1309 1310 1316  255 64 64
3  1315 1309 1316  255 64 64
3  1310 1311 1317  255 64 64
3  1316 1310 1317  255 64 64
3  1311 1312 1318  255 64 64
3  1317 1311 1318  255 64 64
3  1312 210 209  255 64 64
3  1318 1312 209  255 64 64
3  210 1312 1319  0 192 192
3  211 210 1319  0 192 192
3  1312 1311 1320  0 192 192
3  1319 1312 1320  0 192 192
3  1311 1310 1321  0 192 192
3  1320 1311 1321  0 192 192
3  1310 1309 1322  0 192 192
3  1321 1310 1322  0 192 192
3  1309 1308 1323  0 192 192
3  1322 1309 1323  0 192 192
3  1308 1307 1324  0 192 192
3  1323 1308 1324  0 192 192
3  1307 489 490  0 192 192
3  1324 1307 490  0 192 192
3  493 1325 1326  192 192 0
3  490 493 1326  192 192 0
3  1325 1520 1519  192 192 0
3  1326 1325 1519  192 192 0
3  494 1327 1330  0 255 0
3  493 494 1330  0 255 0
3  1327 1328 1555  0 255 0
3  1330 1327 1555  0 255 0
3  1328 1329 1331  0 255 0
3  1555 1328 1331  0 255 0
3  1329 214 213  0 255 0
3  1331 1329 213  0 255 0
3  495 1332 1355  0 255 0
3  494 495 1355  0 255 0
3  1332 1333 1356  0 255 0
3  1355 1332 1356  0 255 0
3  1333 1334 1357  0 255 0
3  1356 1333 1357  0 255 0
3  1334 1335 1358  0 255 0
3  1357 1334 1358  0 255 0
3  1335 1336 1359  0 255 0
3  1358 1335 1359  0 255 0
3  1336 1337 1360  0 255 0
3  1359 1336 1360  0 255 0
3  1337 1338 1361  0 255 0
3  1360 1337 1361  0 255 0
3  1338 1339 1362  0 255 0
3  1361 1338 1362  0 255 0
3  1339 1340 1363  0 255 0
3  1362 1339 1363  0 255 0
3  1340 1341 1364  0 255 0
3  1363 1340 1364  0 255 0
3  1341 1342 1365  0 255 0
3  1364 1341 1365  0 255 0
3  1342 1343 1366  0 255 0
3  1365 1342 1366  0 255 0
3  1343 1344 1367  0 255 0
3  1366 1343 1367  0 255 0
3  1344 1345 1368  0 255 0
3  1367 1344 1368  0 255 0
3  1345 1346 1369  0 255 0
3  1368 1345 1369  0 255 0
3  1346 1347 1370  0 255 0
3  1369 1346 1370  0 255 0
3  1347 1348 1371  0 255 0
3  1370 1347 1371  0 255 0
3  1348 1349 1372  0 255 0
3  1371 1348 1372  0 255 0
3  1349 1350 1373  0 255 0
3  1372 1349 1373  0 255 0
3  1350 1351 1374  0 255 0
3  1373 1350 1374  0 255 0
3  1351 1352 1375  0 255 0
3  1374 1351 1375  0 255 0
3  1352 1353 1376  0 255 0
3  1375 1352 1376  0 255 0
3  1353 1354 1377  0 255 0
3  1376 1353 1377  0 255 0
3  1354 272 271  0 255 0
3  1377 1354 271  0 255 0
3  533 291 272  123 104 238
3  495 533 272  123 104 238
3  535 293 292  72 61 139
3  534 535 292  72 61 139
3  534 292 291  72 61 139
3  533 534 291  72 61 139
3  1549 1535 293  64 128 255
3  535 1549 293  64 128 255
3  295 1378 1385  255 255 0
3  296 295 1385  255 255 0
3  1378 1379 1386  255 255 0
3  1385 1378 1386  255 255 0
3  1379 1380 1387  255 255 0
3  1386 1379 1387  255 255 0
3  1380 1381 1388  255 255 0
3  1387 1380 1388  255 255 0
3  1381 1382 1389  255 255 0
3  1388 1381 1389  255 255 0
3  1382 1383 1390  255 255 0
3  1389 1382 1390  255 255 0
3  1383 1384 1391  255 255 0
3  1390 1383 1391  255 255 0
3  1384 537 538  255 255 0
3  1391 1384 538  255 255 0
3  296 538 539  255 255 0
3  297 296 539  255 255 0
3  297 539 556  176 196 222
3  312 297 556  176 196 222
3  312 556 557  255 240 245
3  313 312 557  255 240 245
3  313 557 1393  240 128 128
3  1392 313 1393  240 128 128
3  1392 1393 1550  240 128 128
3  1526 1392 1550  240 128 128
3  1526 1550 1536  240 128 128
3  1527 1526 1536  240 128 128
3  109 1394 1396  64 255 255
3  115 109 1396  64 255 255
3  1394 1395 1397  64 255 255
3  1396 1394 1397  64 255 255
3  1395 190 189  64 255 255
3  1397 1395 189  64 255 255
3  115 1396 1398  128 0 128
3  116 115 1398  128 0 128
3  1396 1397 1399  128 0 128
3  1398 1396 1399  128 0 128
3  1397 189 188  128 0 128
3  1399 1397 188  128 0 128
3  116 1398 1400  128 0 128
3  117 116 1400  128 0 128
3  1398 1399 1401  128 0 128
3  1400 1398 1401  128 0 128
3  1399 188 187  128 0 128
3  1401 1399 187  128 0 128
3  117 1402 1406  255 255 64
3  118 117 1406  255 255 64
3  1402 1403 1407  255 255 64
3  1406 1402 1407  255 255 64
3  1403 1404 1408  255 255 64
3  1407 1403 1408  255 255 64
3  1404 1405 1409  255 255 64
3  1408 1404 1409  255 255 64
3  1405 187 186  255 255 64
3  1409 1405 186  255 255 64
3  1411 1529 1495  128 255 128
3  1411 1495 1410  128 255 128
3  1413 1411 1410  128 255 128
3  1413 1410 1412  128 255 128
3  1415 1413 1412  128 255 128
3  1415 1412 1414  128 255 128
3  1417 1415 1414  128 255 128
3  1417 1414 1416  128 255 128
3  1419 1417 1416  128 255 128
3  1419 1416 1418  128 255 128
3  1421 1419 1418  128 255 128
3  1421 1418 1420  128 255 128
3  1528 1421 1420  128 255 128
3  1528 1420 1487  128 255 128
3  1496 1497 1502  224 255 255
3  1496 1502 1507  224 255 255
3  1497 1498 1501  0 255 0
3  1497 1501 1502  0 255 0
3  1500 1501 1498  255 0 0
3  1500 1498 1499  255 0 0
3  1507 1500 1499  0 0 255
3  1507 1499 1496  0 0 255
3  135 174 173  64 64 255
3  136 135 173  64 64 255
3  174 135 1503  255 228 196
3  1509 174 1503  255 228 196
3  1509 1503 1505  64 255 128
3  1510 1509 1505  64 255 128
3  247 1422 1424  64 0 128
3  248 247 1424  64 0 128
3  1422 1423 1425  64 0 128
3  1424 1422 1425  64 0 128
3  1423 186 185  64 0 128
3  1425 1423 185  64 0 128
3  1530 1531 1511  128 64 0
3  1530 1511 1512  128 64 0
3  178 1426 1434  192 0 0
3  179 178 1434  192 0 0
3  1426 1427 1435  192 0 0
3  1434 1426 1435  192 0 0
3  1427 1428 1436  192 0 0
3  1435 1427 1436  192 0 0
3  1428 1429 1437  192 0 0
3  1436 1428 1437  192 0 0
3  1429 1430 1438  192 0 0
3  1437 1429 1438  192 0 0
3  1430 1431 1439  192 0 0
3  1438 1430 1439  192 0 0
3  1431 1432 1440  192 0 0
3  1439 1431 1440  192 0 0
3  1432 1433 1441  192 0 0
3  1440 1432 1441  192 0 0
3  1433 251 250  192 0 0
3  1441 1433 250  192 0 0
3  1504 1442 1443  128 255 64
3  1506 1504 1443  128 255 64
3  1442 255 251  128 255 64
3  1443 1442 251  128 255 64
3  136 1444 1448  64 64 255
3  137 136 1448  64 64 255
3  1444 1445 1449  64 64 255
3  1448 1444 1449  64 64 255
3  1445 1446 1450  64 64 255
3  1449 1445 1450  64 64 255
3  1446 1447 1451  64 64 255
3  1450 1446 1451  64 64 255
3  1447 256 255  64 64 255
3  1451 1447 255  64 64 255
3  171 1452 1455  255 165 0
3  172 171 1455  255 165 0
3  1452 1453 1456  255 165 0
3  1455 1452 1456  255 165 0
3  1453 1454 1457  255 165 0
3  1456 1453 1457  255 165 0
3  1454 257 1458  255 165 0
3  1457 1454 1458  255 165 0
3  172 1455 1459  255 165 0
3  173 172 1459  255 165 0
3  1455 1456 1460  255 165 0
3  1459 1455 1460  255 165 0
3  1456 1457 1461  255 165 0
3  1460 1456 1461  255 165 0
3  1457 1458 1532  255 165 0
3  1461 1457 1532  255 165 0
3  257 1454 1462  255 64 128
3  258 257 1462  255 64 128
3  1454 1453 1463  255 64 128
3  1462 1454 1463  255 64 128
3  1453 1452 1464  255 64 128
3  1463 1453 1464  255 64 128
3  1452 171 170  255 64 128
3  1464 1452 170  255 64 128
3  1524 1465 1467  0 128 64
3  1466 1524 1467  0 128 64
3  1465 260 259  0 128 64
3  1467 1465 259  0 128 64
3  1466 1467 1556  0 128 64
3  1508 1466 1556  0 128 64
3  1467 259 258  0 128 64
3  1556 1467 258  0 128 64
3  1523 1468 1470  0 128 128
3  1525 1523 1470  0 128 128
3  1468 1469 1471  0 128 128
3  1470 1468 1471  0 128 128
3  1469 261 260  0 128 128
3  1471 1469 260  0 128 128
3  217 1472 1476  64 255 64
3  218 217 1476  64 255 64
3  1472 1473 1477  64 255 64
3  1476 1472 1477  64 255 64
3  1473 1474 1478  64 255 64
3  1477 1473 1478  64 255 64
3  1474 1475 1479  64 255 64
3  1478 1474 1479  64 255 64
3  1475 262 261  64 255 64
3  1479 1475 261  64 255 64
3  1481 1480 1521  255 128 64
3  1481 1521 1522  255 128 64
3  1533 1534 1480  255 128 64
3  1533 1480 1481  255 128 64
3  214 1482 1484  128 128 0
3  215 214 1484  128 128 0
3  1482 1483 1485  128 128 0
3  1484 1482 1485  128 128 0
3  1483 271 270  128 128 0
3  1485 1483 270  128 128 0

