OFF
347 327 0

12.6034 -34.0207 -10.6877
25.6081 -34.0207 -3.37487
12.6034 -34.0207 -10.6877
6.84029 -34.0207 -13.9284
12.6034 31.8308 -10.6877
25.6081 31.8308 -3.37487
26.5751 -34.0207 -2.83107
26.5751 -38.6785 -2.83107
26.5751 -42.8685 -2.83107
26.8921 -42.8685 -3.40757
26.8015 -42.8685 -3.24287
27.8553 -42.8685 -5.15971
28.5358 -42.8685 -6.39743
20.0031 -42.8685 9.12324
20.0031 -34.0207 9.12324
5.45603 -34.0207 -11.4668
5.45603 -42.8685 -11.4668
3.94769 31.8308 -8.78453
0.153826 31.8308 -2.03789
4.70709 31.8308 -10.135
5.45603 31.8308 -11.4668
7.07063 -34.0207 -14.3381
7.18556 -34.0207 -14.5424
8.83505 -34.0207 -17.4757
8.83505 -42.8685 -17.4757
7.18556 -42.8685 -14.5424
7.07063 -42.8685 -14.3381
6.84029 -42.8685 -13.9284
4.70709 -42.8685 -10.135
0.153826 -42.8685 -2.03789
0.153826 -34.0207 -2.03789
19.0516 -34.0207 8.58819
15.3953 -34.0207 6.5323
27.9669 -34.0207 13.6012
27.9669 -42.8685 13.6012
19.0516 31.8308 8.58819
17.0178 31.8308 7.44463
15.3953 31.8308 6.5323
15.3953 -42.8685 6.5323
17.0178 -42.8685 7.44463
19.0516 -42.8685 8.58819
-17.2571 -34.0207 -11.8279
-17.8021 -42.8685 -12.1344
-12.9027 31.8308 -9.37947
-17.2571 31.8308 -11.8279
-17.3297 -34.0207 -11.8687
-17.8021 -34.0207 -12.1344
-29.1222 -34.0207 -18.4996
-31.3384 -34.0207 -19.7458
-31.3384 -42.8685 -19.7458
-29.1222 -42.8685 -18.4996
-17.3297 -42.8685 -11.8687
-17.2571 -42.8685 -11.8279
-12.9027 -42.8685 -9.37947
-12.9027 -34.0207 -9.37947
14.5981 -34.0207 -14.235
2.16942 -42.8685 -17.0941
1.93906 -42.8685 -16.6845
-8.623 -42.8685 -23.4748
-9.01036 -42.8685 -23.3808
-19.567 -34.0207 -7.89004
-20.2528 -34.0207 -7.7762
12.6034 31.8308 -10.6877
12.8337 -34.0207 -11.0973
2.29001 -34.0207 -17.3086
2.16942 -34.0207 -17.0941
15.9219 -42.8685 9.60258
12.2393 42.8685 -10.6622
12.3376 42.8685 -10.8371
12.3376 39.7157 -10.8371
13.456 -42.8685 -10.7474
12.6034 -42.8685 -10.6877
25.6081 -42.8685 -3.37487
25.4264 -42.8685 -4.01614
-14.086 -42.8685 -22.149
-13.4861 -42.8685 -19.8095
20.5674 -42.8685 8.09689
28.1607 -42.8685 5.63575
12.3376 31.8308 -10.8371
4.36275 39.7157 -8.90079
4.36275 42.8685 -8.90079
5.07111 42.8685 -10.1605
5.07111 39.7157 -10.1605
-9.68015 -42.8685 -23.2183
29.8555 -34.0207 -5.6553
27.8553 -34.0207 -5.15971
29.8555 -42.8685 -5.6553
36.4153 -42.8685 -1.42281
36.4153 -34.0207 -1.42281
32.0484 -34.0207 -0.494071
32.0484 -42.8685 -0.494071
-17.3297 31.8308 -11.8687
-4.50569 -42.8685 -4.65791
-0.875105 -42.8685 -5.81999
-1.92273 -42.8685 -9.81707
0.109671 -42.8685 -2.06272
0.109671 -34.0207 -2.06272
13.8529 -42.8685 -10.7752
19.9871 -42.8685 -11.2046
13.8529 -34.0207 -10.7752
19.9871 -34.0207 -11.2046
9.02333 -42.8685 2.94937
14.535 -42.8685 1.51415
7.4812 -42.8685 -10.3292
5.72177 42.8685 -11.3175
5.72177 39.7157 -11.3175
-19.567 -42.8685 -7.89004
-16.0586 -42.8685 -8.47244
-16.0586 -34.0207 -8.47244
-19.8527 -34.0207 -7.38198
-19.8527 -42.8685 -7.38198
14.7653 -34.0207 11.8799
15.9218 -34.0207 9.60281
15.9218 -42.8685 9.60281
14.7653 -42.8685 11.8799
3.93385 -42.8685 -20.2318
2.29001 -42.8685 -17.3086
3.93385 -34.0207 -20.2318
25.3523 -34.0207 -4.27756
24.0348 -34.0207 -8.92846
25.3523 -42.8685 -4.27756
24.0348 -42.8685 -8.92846
7.35844 -34.0207 3.3829
7.35844 -42.8685 3.3829
9.02333 -34.0207 2.94937
6.93693 -34.0207 1.7762
6.93693 -42.8685 1.7762
6.69091 39.7157 -13.6628
6.69091 31.8308 -13.6628
12.1883 39.7157 -10.5715
12.1883 42.8685 -10.5715
10.9548 42.8685 -8.37786
10.9548 39.7157 -8.37786
12.0504 42.8685 -10.649
12.0504 39.7157 -10.649
12.454 42.8685 -10.4221
12.454 39.7157 -10.4221
-10.9551 -42.8685 -9.93922
-0.0995829 -42.8685 -13.0592
0.553628 -42.8685 -14.2208
7.4812 39.7157 -10.3292
4.70709 39.7157 -10.135
5.45603 39.7157 -11.4668
33.1238 -42.8685 4.43055
26.7438 -42.8685 0.63408
26.7438 -34.0207 0.63408
33.1238 -34.0207 4.43055
31.7882 -42.8685 -0.43874
26.7438 -42.8685 0.634063
26.7438 -34.0207 0.634063
31.7882 -34.0207 -0.43874
29.5963 -34.0207 10.7035
29.5963 -42.8685 10.7035
26.0386 -42.8685 -1.85514
10.4206 -34.0207 20.4347
10.4206 -42.8685 20.4347
6.95659 42.8685 -13.5134
6.95659 39.7157 -13.5134
-23.3133 -34.0207 -31.7754
-23.3133 -42.8685 -31.7754
-23.7397 -42.8685 -31.6635
-23.7397 -34.0207 -31.6635
34.8833 -34.0207 1.3017
34.966 -34.0207 1.15452
34.966 -42.8685 1.15452
34.8833 -42.8685 1.3017
9.59447 42.8685 -5.95877
9.59447 39.7157 -5.95877
-24.792 -34.0207 -31.3874
-24.792 -42.8685 -31.3874
-37.1788 -34.0207 -4.9665
-37.1788 -42.8685 -4.9665
-20.2528 -42.8685 -7.7762
15.9219 31.8308 9.60258
15.9219 -34.0207 9.60258
-6.56696 -42.8685 -5.81695
-8.08908 -42.8685 -10.7629
6.0809 -42.8685 -1.48677
2.36173 -42.8685 -0.796404
13.7756 -42.8685 -2.91509
14.8189 -42.8685 3.17014
24.3956 -42.8685 1.13345
13.0398 -42.8685 -7.20657
-4.74746 -42.8685 -4.79385
1.70048 -42.8685 -13.5765
-17.5452 -42.8685 -12.5911
-4.50569 -34.0207 -4.65791
-6.05742 -34.0207 -4.16122
-6.05742 -42.8685 -4.16122
-6.56696 -34.0207 -5.81695
11.2944 -42.8685 24.9642
11.2944 -34.0207 24.9642
11.7919 -34.0207 25.2441
11.7919 -42.8685 25.2441
7.35844 31.8308 3.3829
9.02333 31.8308 2.94937
6.93693 31.8308 1.7762
-8.623 -34.0207 -23.4748
-3.88023 -34.0207 -24.6259
-3.88023 -42.8685 -24.6259
0.128147 -34.0207 -1.99223
0.128147 -42.8685 -1.99223
0.530655 -42.8685 -0.456512
0.530655 -34.0207 -0.456512
2.36173 -34.0207 -0.796404
-25.3563 -34.0207 2.40512
-25.3563 -42.8685 2.40512
-25.0894 -42.8685 1.9306
-25.0894 -34.0207 1.9306
-25.7972 -34.0207 2.15715
-25.7972 -42.8685 2.15715
8.6551 -34.0207 13.2805
8.6551 -42.8685 13.2805
9.8601 42.8685 -5.8094
9.8601 39.7157 -5.8094
4.09708 42.8685 -9.05018
4.09708 39.7157 -9.05018
11.2205 39.7157 -8.22858
12.6034 39.7157 -10.6877
6.69091 42.8685 -13.6628
-10.7494 -42.8685 -24.6763
-10.8851 -42.8685 -24.435
-20.5608 -42.8685 -20.5775
15.9217 -34.0207 9.60263
15.9217 -42.8685 9.60263
-11.8678 -42.8685 -22.6873
25.2192 -42.8685 -0.36469
-12.504 -42.8685 -21.556
-11.1154 -42.8685 -24.0254
8.08825 -42.8685 23.1603
8.08825 -34.0207 23.1603
-18.7323 -34.0207 -32.9777
-18.7323 -42.8685 -32.9777
-4.50569 31.8308 -4.65791
-6.05742 31.8308 -4.16122
-6.56696 31.8308 -5.81695
12.6034 39.7157 -10.6877
6.84029 39.7157 -13.9284
9.71074 39.7157 -5.54379
3.94769 39.7157 -8.78453
11.2205 42.8685 -8.22858
9.71074 42.8685 -5.54379
9.71074 31.8308 -5.54379
11.2205 31.8308 -8.22858
3.94769 42.8685 -8.78453
13.7105 31.8308 -3.29461
4.70709 42.8685 -10.135
-11.8678 31.8308 -22.6873
-9.68015 31.8308 -23.2183
-9.68015 -34.0207 -23.2183
8.47303 -34.0207 13.6043
6.29976 -34.0207 17.4698
8.47303 -42.8685 13.6043
6.29976 -42.8685 17.4698
8.39753 -34.0207 13.3395
6.84029 42.8685 -13.9284
5.45603 42.8685 -11.4668
2.16942 31.8308 -17.0941
1.93906 31.8308 -16.6845
1.93906 -34.0207 -16.6845
13.8529 31.8308 -10.7752
13.456 -34.0207 -10.7474
13.456 31.8308 -10.7474
25.3523 31.8308 -4.27756
25.4264 31.8308 -4.01614
25.4264 -34.0207 -4.01614
33.7143 -34.0207 -6.61142
33.7143 -42.8685 -6.61142
-9.01036 -34.0207 -23.3808
26.8921 -34.0207 -3.40757
26.8015 -34.0207 -3.24287
-37.9826 -34.0207 -7.93044
-37.9826 -42.8685 -7.93044
-36.9473 -42.8685 -4.11282
-36.9473 -34.0207 -4.11282
-10.7494 -34.0207 -24.6763
-10.8851 -34.0207 -24.435
37.9832 -34.0207 -4.21095
37.9832 -42.8685 -4.21095
36.6476 -34.0207 -1.83587
36.6476 -42.8685 -1.83587
-15.9968 31.8308 -8.4902
-15.9968 -34.0207 -8.4902
-15.9968 -42.8685 -8.4902
-17.5452 31.8308 -12.5911
20.5674 31.8308 8.09689
11.5695 -42.8685 24.4639
11.5695 -34.0207 24.4639
6.84029 31.8308 -13.9284
26.7438 31.8308 0.634063
24.3956 31.8308 1.13345
24.3956 -34.0207 1.13345
20.5674 -34.0207 8.09689
28.1607 -34.0207 5.63575
26.0386 31.8308 -1.85514
26.0386 -34.0207 -1.85514
-25.8477 -34.0207 2.1733
-25.8477 -42.8685 2.1733
-20.5943 -42.8685 -7.16883
-20.5943 -34.0207 -7.16883
-17.5452 -34.0207 -12.5911
-20.5608 -34.0207 -20.5775
20.0031 31.8308 9.12324
0.128147 31.8308 -1.99223
0.553628 -34.0207 -14.2208
-17.8021 31.8308 -12.1344
0.553628 31.8308 -14.2208
0.530655 31.8308 -0.456512
1.70048 31.8308 -13.5765
13.7756 31.8308 -2.91509
1.70048 -34.0207 -13.5765
2.36173 31.8308 -0.796404
5.51597 -34.0207 -14.6731
-9.12061 -34.0207 -27.5728
-9.12061 -42.8685 -27.5728
13.0398 31.8308 -7.20657
16.2537 -42.8685 11.5387
16.2537 -34.0207 11.5387
-14.086 -34.0207 -22.149
-15.3103 -34.0207 -26.9234
16.8293 -42.8685 14.8963
-15.3103 -42.8685 -26.9234
16.8293 -34.0207 14.8963
28.5358 -34.0207 -6.39743
17.0709 -34.0207 32.9775
-25.8287 -42.8685 2.13948
13.4101 -34.0207 30.9192
-25.8287 -34.0207 2.13948
13.4101 -42.8685 30.9192
17.0709 -42.8685 32.9775
12.6034 42.8685 -10.6877
12.6034 31.8308 -10.6877
15.9217 31.8308 9.60263
-11.8678 -34.0207 -22.6873
-12.504 31.8308 -21.556
25.2192 31.8308 -0.36469
19.1058 -42.8685 29.3589
-11.1154 -34.0207 -24.0254
19.1058 -34.0207 29.3589
-14.086 31.8308 -22.149
-13.4861 -34.0207 -19.8095
-13.4861 31.8308 -19.8095
12.6034 42.8685 -10.6877
8.39753 -42.8685 13.3395
-9.01036 31.8308 -23.3808
19.2615 -42.8685 29.082
19.2615 -34.0207 29.082
4  305 91 45 46  255 0 0
4  46 47 301 300  255 0 0
4  276 268 249 337  255 0 0
5  276 319 161 158 275  255 0 0
5  276 337 333 318 319  255 0 0
4  305 284 44 91  255 0 0
4  46 300 284 305  255 0 0
4  270 265 118 269  255 255 0
5  270 150 149 295 6  0 255 0
3  302 35 285  0 255 255
4  14 31 35 302  0 255 255
4  270 6 1 265  255 255 0
5  14 292 293 151 33  0 255 0
4  14 302 285 292  0 255 255
4  46 45 60 61  0 0 255
4  14 33 346 322  255 0 255
4  220 58 199 314  255 0 0
5  220 159 160 321 221  255 0 0
4  275 158 231 313  255 0 0
4  275 197 268 276  255 0 0
4  275 313 198 197  255 0 0
4  220 314 232 159  255 0 0
6  42 50 49 272 171 172  0 0 255
4  42 51 52 185  255 0 0
6  42 172 298 110 106 51  0 0 255
6  46 61 170 271 48 47  0 0 255
6  9 90 87 280 86 11  0 255 0
8  9 120 97 25 26 70 73 10  255 255 0
5  269 118 119 323 85  255 255 0
6  269 89 163 162 150 270  0 255 0
6  269 85 84 279 88 89  0 255 0
5  9 11 12 121 120  255 255 0
7  49 50 222 74 321 160 169  255 0 0
4  49 48 271 272  0 0 255
5  221 321 74 225 228  255 0 0
4  221 59 58 220  255 0 0
4  221 228 83 59  255 0 0
4  42 185 222 50  255 0 0
7  13 40 66 224 113 316 320  255 0 255
5  13 34 152 77 76  0 255 0
7  14 322 317 112 223 174 31  255 0 255
4  13 320 345 34  255 0 255
3  40 39 66  255 0 255
3  40 13 76  0 255 255
4  34 345 346 33  255 0 255
3  6 295 1  0 255 255
3  337 249 333  255 0 0
5  334 247 248 258 306  255 0 0
4  334 341 339 247  255 0 0
9  335 290 285 35 36 37 309 245 315  0 255 255
4  335 294 289 290  0 255 0
7  335 315 243 331 4 5 294  0 255 255
7  334 306 308 43 44 284 341  255 0 0
7  47 48 168 161 319 318 301  255 0 0
8  225 227 139 184 16 27 57 83  255 0 0
4  225 74 75 227  255 0 0
4  333 249 248 247  255 0 0
4  5 4 262 264  255 255 0
4  5 1 295 294  0 255 255
4  48 49 169 168  255 0 0
3  12 11 86  0 255 0
4  314 199 198 313  255 0 0
4  12 323 119 121  255 255 0
4  327 296 297 325  0 0 255
6  327 299 109 208 209 296  0 0 255
5  325 298 172 171 273  0 0 255
6  325 297 210 207 110 298  0 0 255
5  327 274 170 61 299  0 0 255
4  327 325 273 274  0 0 255
5  322 287 154 111 317  255 0 255
5  320 286 193 336 345  255 0 255
4  224 66 39 38  255 0 255
5  320 316 114 155 286  255 0 255
4  224 223 112 113  255 0 255
3  316 113 114  255 0 255
3  317 111 112  255 0 255
4  310 15 20 308  255 0 0
4  310 304 259 312  255 0 0
4  312 3 15 310  255 0 0
5  312 259 65 21 3  255 0 0
4  308 306 304 310  255 0 0
8  308 20 19 17 18 233 235 43  255 0 0
5  3 2 62 78 288  0 255 255
5  20 15 3 288 128  0 255 255
4  258 248 344 257  255 0 0
4  259 304 306 258  255 0 0
4  10 73 72 8  255 255 0
6  10 147 165 164 90 9  0 255 0
5  10 8 153 148 147  0 255 0
4  345 336 338 346  255 0 255
5  346 338 192 287 322  255 0 255
4  333 247 339 318  255 0 0
4  268 65 257 344  255 0 0
4  249 268 344 248  255 0 0
5  165 147 148 144 143  0 255 0
5  162 146 145 149 150  0 255 0
4  34 33 151 152  0 255 0
4  165 143 146 162  0 255 0
4  300 340 341 284  255 0 0
4  301 318 340 300  255 0 0
4  341 340 318 339  255 0 0
4  264 265 1 5  255 255 0
4  21 63 2 3  255 255 0
4  21 65 64 22  255 0 0
3  323 84 85  0 255 0
4  12 86 84 323  0 255 0
5  261 63 21 22 99  255 255 0
4  4 62 2 0  0 255 255
4  0 2 63 261  255 255 0
4  4 0 261 262  255 255 0
4  41 45 91 44  255 0 0
5  52 51 106 107 283  0 0 255
5  52 53 137 75 185  255 0 0
3  52 283 53  0 0 255
5  41 282 108 60 45  0 0 255
4  314 313 231 232  255 0 0
4  299 61 60 109  0 0 255
4  282 283 107 108  0 0 255
4  297 296 209 210  0 0 255
4  151 146 143 152  0 255 0
4  151 293 145 146  0 255 0
4  295 149 289 294  0 255 0
4  285 290 291 292  0 255 255
5  292 291 149 145 293  0 255 0
4  149 291 290 289  0 255 0
4  288 78 69 237  0 255 255
6  287 191 230 251 250 154  255 0 255
3  286 190 193  255 0 255
3  287 192 191  255 0 255
3  44 43 281  0 0 255
4  54 189 175 53  255 0 0
4  53 175 176 137  255 0 0
4  54 53 283 282  0 0 255
3  35 173 36  255 0 255
4  31 174 173 35  255 0 255
4  282 41 44 281  0 0 255
4  43 235 189 54  255 0 0
4  43 54 282 281  0 0 255
4  279 84 266 277  0 255 0
4  280 278 267 86  0 255 0
4  280 279 277 278  0 255 0
4  278 277 266 267  0 255 0
4  264 262 260 263  255 255 0
4  274 273 171 170  0 0 255
4  272 271 170 171  0 0 255
4  197 64 65 268  255 0 0
4  84 86 267 266  0 255 0
4  263 260 99 118  255 255 0
4  118 99 100 119  255 255 0
4  118 265 264 263  255 255 0
4  22 64 117 23  255 0 0
5  99 22 23 55 100  255 255 0
4  262 261 99 260  255 255 0
4  65 259 258 257  255 0 0
4  256 104 81 246  0 255 255
6  255 68 67 133 156 219  0 255 255
4  255 237 69 68  0 255 255
4  256 219 156 104  0 255 255
4  256 142 127 219  0 255 255
4  20 128 127 142  0 255 255
4  288 237 127 128  0 255 255
4  255 219 127 237  0 255 255
4  342 68 69 236  0 255 255
5  4 236 69 78 62  0 255 255
4  342 330 67 68  0 255 255
4  4 331 218 236  0 255 255
4  342 236 218 330  0 255 255
4  343 212 211 254  255 0 255
5  254 211 111 154 250  255 0 255
5  343 252 155 114 212  255 0 255
6  286 155 252 253 229 190  255 0 255
4  343 254 250 252  255 0 255
4  251 230 229 253  255 0 255
4  253 252 250 251  255 0 255
4  338 324 326 192  255 0 255
4  336 329 324 338  255 0 255
4  193 328 329 336  255 0 255
4  192 326 328 193  255 0 255
4  18 311 307 303  0 255 255
5  30 96 186 233 18  255 0 0
4  30 18 303 200  0 255 255
4  32 124 195 37  0 255 255
4  332 173 174 223  255 0 255
4  37 36 173 332  255 0 255
5  37 195 196 311 309  0 255 255
4  223 32 37 332  255 0 255
3  207 210 206  0 0 255
4  110 207 208 109  0 0 255
3  163 89 88  0 255 0
3  164 87 90  0 255 0
4  164 163 88 87  0 255 0
4  280 87 88 279  0 255 0
4  243 315 245 242  0 255 255
4  240 131 130 135  0 255 255
5  330 135 130 133 67  0 255 255
5  331 243 217 136 218  0 255 255
4  240 135 136 217  0 255 255
4  330 218 136 135  0 255 255
4  329 328 326 324  255 0 255
4  74 222 185 75  255 0 0
6  18 17 242 245 309 311  0 255 255
4  20 142 141 19  0 255 255
4  256 246 141 142  0 255 255
4  311 196 125 204  0 255 255
4  246 215 216 141  0 255 255
5  19 141 216 239 17  0 255 255
4  246 81 80 215  0 255 255
6  244 215 80 166 213 241  0 255 255
4  244 239 216 215  0 255 255
4  17 239 238 242  0 255 255
4  244 241 238 239  0 255 255
4  240 213 166 131  0 255 255
5  243 242 238 214 217  0 255 255
4  241 213 214 238  0 255 255
4  240 217 214 213  0 255 255
5  140 132 167 79 82  0 255 255
4  29 95 96 30  255 0 0
7  29 178 177 179 182 103 28  0 255 255
4  29 201 202 178  0 255 255
4  29 30 200 201  0 255 255
4  140 105 157 134  0 255 255
3  235 233 234  255 0 0
4  189 235 234 187  255 0 0
4  186 96 95 92  255 0 0
4  186 187 234 233  255 0 0
4  158 159 232 231  255 0 0
4  190 229 230 191  255 0 255
3  228 225 83  255 0 0
3  8 72 153  0 255 255
8  226 153 72 71 27 16 103 182  0 255 255
7  226 181 76 77 144 148 153  0 255 0
6  227 75 137 176 138 139  255 0 0
6  226 182 179 102 180 181  0 255 255
4  83 57 56 59  255 0 0
4  38 101 124 32  0 255 255
6  38 39 40 76 181 180  0 255 255
4  224 38 32 223  255 0 255
4  134 157 156 133  0 255 255
4  140 134 129 132  0 255 255
4  212 114 111 211  255 0 255
3  209 208 205  0 0 255
4  210 209 205 206  0 0 255
4  208 207 206 205  0 0 255
4  204 125 126 178  0 255 255
3  178 126 177  0 255 255
4  178 202 203 204  0 255 255
4  203 202 201 200  0 255 255
4  199 115 117 198  255 0 0
4  58 116 115 199  255 0 0
4  198 117 64 197  255 0 0
4  204 203 307 311  0 255 255
4  307 203 200 303  0 255 255
3  196 195 194  0 255 255
4  125 196 194 122  0 255 255
4  195 124 122 194  0 255 255
4  193 190 191 192  255 0 255
5  175 183 94 138 176  255 0 0
4  175 188 92 183  255 0 0
4  175 189 187 188  255 0 0
3  92 95 93  255 0 0
4  92 188 187 186  255 0 0
3  184 139 138  255 0 0
8  184 138 94 93 95 29 28 16  255 0 0
3  16 28 103  0 255 255
4  183 92 93 94  255 0 0
4  38 180 102 101  0 255 255
5  179 177 126 101 102  0 255 255
4  169 160 161 168  255 0 0
4  166 80 79 167  0 255 255
4  167 132 131 166  0 255 255
4  165 162 163 164  0 255 0
4  161 160 159 158  255 0 0
4  105 104 156 157  0 255 255
4  152 143 144 77  0 255 0
3  105 140 82  0 255 255
4  134 133 130 129  0 255 255
4  132 129 130 131  0 255 255
3  126 123 101  0 255 255
4  126 125 122 123  0 255 255
4  124 101 123 122  0 255 255
4  119 100 98 121  255 255 0
4  121 98 97 120  255 255 0
4  23 117 115 24  255 0 0
4  24 115 116 25  255 0 0
5  24 98 100 55 23  255 255 0
4  25 97 98 24  255 255 0
6  25 116 58 59 56 26  255 0 0
4  114 113 112 111  255 0 255
4  110 109 60 106  0 0 255
4  108 107 106 60  0 0 255
4  82 81 104 105  0 255 255
4  82 79 80 81  0 255 255
4  73 70 71 72  255 255 0
4  27 71 70 26  255 255 0
4  26 56 57 27  255 0 0
7  54 43 41 42 51 52 53  0 0 255
7  43 54 53 52 51 42 41  255 0 0
8  50 42 41 45 46 47 48 49  0 0 255
8  42 50 49 48 47 46 45 41  255 0 0
3  44 41 43  0 0 255
3  41 44 43  255 0 0
4  13 34 33 14  255 0 255
4  34 13 14 33  0 255 0
7  40 13 14 31 32 38 39  255 0 255
7  13 40 39 38 32 31 14  0 255 255
5  37 32 31 35 36  255 0 255
5  32 37 36 35 31  0 255 255
9  30 18 17 19 20 15 16 28 29  255 0 0
9  18 30 29 28 16 15 20 19 17  0 255 255
4  27 16 15 3  255 0 0
4  16 27 3 15  0 255 255
8  26 27 3 21 22 23 24 25  255 0 0
8  27 26 25 24 23 22 21 3  255 255 0
6  11 12 7 8 10 9  0 255 0
6  12 11 9 10 8 7  255 255 0
10  153 8 7 291 292 14 13 76 181 226  0 255 0
10  8 153 226 181 76 13 14 292 291 7  0 255 255
5  290 291 295 294 335  0 255 0
5  291 290 335 294 295  0 255 255
4  6 295 291 7  0 255 0
4  295 6 7 291  0 255 255
7  270 6 7 12 323 85 269  0 255 0
7  6 270 269 85 323 12 7  255 255 0
10  27 3 2 0 1 6 7 8 72 71  255 255 0
10  3 27 71 72 8 7 6 1 0 2  0 255 255
4  5 1 0 4  255 255 0
4  1 5 4 0  0 255 255

