OFF
373 404 0

25.7259 31.8308 -2.95901
12.454 31.8308 -10.4221
25.7259 -34.0207 -2.95901
26.4283 -34.0207 -2.56402
26.4283 -38.3647 -2.56402
26.4283 -42.8685 -2.56402
25.7259 -42.8685 -2.95901
6.69091 -42.8685 -13.6628
6.69091 -34.0207 -13.6628
6.69091 31.8308 -13.6628
6.69091 39.7157 -13.6628
6.69091 42.8685 -13.6628
12.454 39.7157 -10.4221
6.93693 31.8308 1.7762
9.02333 31.8308 2.94937
6.93693 -34.0207 1.7762
6.93693 -42.8685 1.7762
9.02333 -42.8685 2.94937
9.02333 -34.0207 2.94937
2.36173 -34.0207 -0.796404
2.36173 -42.8685 -0.796404
2.36173 31.8308 -0.796404
0.153826 31.8308 -2.03789
0.153826 -34.0207 -2.03789
0.153826 -42.8685 -2.03789
36.6476 -34.0207 -1.83587
29.8555 -34.0207 -5.6553
36.6476 -42.8685 -1.83587
29.8555 -42.8685 -5.6553
0.553628 31.8308 -14.2208
0.553628 -34.0207 -14.2208
-0.0995829 31.8308 -13.0592
-4.74746 31.8308 -4.79385
-4.74746 -34.0207 -4.79385
-3.312 -34.0207 -7.34652
0.285552 -34.0207 -13.7441
2.16942 -34.0207 -17.0941
-9.68015 -34.0207 -23.2183
-9.01036 -34.0207 -23.3808
-11.8678 -34.0207 -22.6873
-14.086 -34.0207 -22.149
-13.4861 -34.0207 -19.8095
-17.5452 -34.0207 -12.5911
-17.8021 -34.0207 -12.1344
-17.3297 -34.0207 -11.8687
-17.2571 -34.0207 -11.8279
-12.9027 -34.0207 -9.37947
-6.56696 -34.0207 -5.81695
-6.05742 -34.0207 -4.16122
-4.50569 -34.0207 -4.65791
0.109671 -34.0207 -2.06272
5.45603 -34.0207 -11.4668
12.6034 -34.0207 -10.6877
25.6081 -34.0207 -3.37487
12.6034 -34.0207 -10.6877
6.84029 -34.0207 -13.9284
12.6034 31.8308 -10.6877
25.6081 31.8308 -3.37487
26.5751 -34.0207 -2.83107
26.5751 -38.6785 -2.83107
26.8015 -42.8685 -3.24287
26.5751 -42.8685 -2.83107
19.0516 31.8308 8.58819
19.0516 -34.0207 8.58819
17.0178 31.8308 7.44463
15.3953 31.8308 6.5323
15.3953 -34.0207 6.5323
15.3953 -42.8685 6.5323
17.0178 -42.8685 7.44463
19.0516 -42.8685 8.58819
20.0031 -42.8685 9.12324
27.9669 -42.8685 13.6012
-17.8021 -42.8685 -12.1344
-12.9027 31.8308 -9.37947
-17.2571 31.8308 -11.8279
-29.1222 -34.0207 -18.4996
-31.3384 -34.0207 -19.7458
-31.3384 -42.8685 -19.7458
-29.1222 -42.8685 -18.4996
-17.3297 -42.8685 -11.8687
-17.2571 -42.8685 -11.8279
-12.9027 -42.8685 -9.37947
14.5981 -34.0207 -14.235
2.16942 -42.8685 -17.0941
1.93906 -42.8685 -16.6845
-8.623 -42.8685 -23.4748
-9.01036 -42.8685 -23.3808
-19.567 -34.0207 -7.89004
-20.2528 -34.0207 -7.7762
12.6034 31.8308 -10.6877
12.8337 -34.0207 -11.0973
2.29001 -34.0207 -17.3086
15.9219 -42.8685 9.60258
12.2393 42.8685 -10.6622
12.3376 42.8685 -10.8371
12.3376 39.7157 -10.8371
13.456 -42.8685 -10.7474
12.6034 -42.8685 -10.6877
6.84029 -42.8685 -13.9284
7.07063 -42.8685 -14.3381
25.6081 -42.8685 -3.37487
25.4264 -42.8685 -4.01614
-14.086 -42.8685 -22.149
-13.4861 -42.8685 -19.8095
20.5674 -42.8685 8.09689
28.1607 -42.8685 5.63575
12.3376 31.8308 -10.8371
4.36275 39.7157 -8.90079
4.36275 42.8685 -8.90079
5.07111 42.8685 -10.1605
5.07111 39.7157 -10.1605
-9.68015 -42.8685 -23.2183
27.8553 -34.0207 -5.15971
27.8553 -42.8685 -5.15971
36.4153 -42.8685 -1.42281
36.4153 -34.0207 -1.42281
32.0484 -34.0207 -0.494071
32.0484 -42.8685 -0.494071
-17.3297 31.8308 -11.8687
-4.50569 -42.8685 -4.65791
-0.875105 -42.8685 -5.81999
-1.92273 -42.8685 -9.81707
0.109671 -42.8685 -2.06272
13.8529 -42.8685 -10.7752
19.9871 -42.8685 -11.2046
13.8529 -34.0207 -10.7752
19.9871 -34.0207 -11.2046
14.535 -42.8685 1.51415
4.70709 -42.8685 -10.135
7.4812 -42.8685 -10.3292
5.72177 42.8685 -11.3175
5.72177 39.7157 -11.3175
-19.567 -42.8685 -7.89004
-16.0586 -42.8685 -8.47244
-16.0586 -34.0207 -8.47244
-19.8527 -34.0207 -7.38198
-19.8527 -42.8685 -7.38198
14.7653 -34.0207 11.8799
15.9218 -34.0207 9.60281
15.9218 -42.8685 9.60281
14.7653 -42.8685 11.8799
3.93385 -42.8685 -20.2318
2.29001 -42.8685 -17.3086
3.93385 -34.0207 -20.2318
8.83505 -42.8685 -17.4757
7.18556 -42.8685 -14.5424
7.18556 -34.0207 -14.5424
8.83505 -34.0207 -17.4757
25.3523 -34.0207 -4.27756
24.0348 -34.0207 -8.92846
25.3523 -42.8685 -4.27756
24.0348 -42.8685 -8.92846
7.35844 -34.0207 3.3829
7.35844 -42.8685 3.3829
33.1238 -42.8685 4.43055
26.7438 -42.8685 0.63408
26.7438 -34.0207 0.63408
33.1238 -34.0207 4.43055
20.0031 -34.0207 9.12324
-10.7494 -34.0207 -24.6763
-10.7494 -42.8685 -24.6763
10.4206 -34.0207 20.4347
10.4206 -42.8685 20.4347
20.0031 31.8308 9.12324
6.95659 42.8685 -13.5134
6.95659 39.7157 -13.5134
-23.3133 -34.0207 -31.7754
-23.3133 -42.8685 -31.7754
-23.7397 -42.8685 -31.6635
-23.7397 -34.0207 -31.6635
34.8833 -34.0207 1.3017
34.966 -34.0207 1.15452
34.966 -42.8685 1.15452
34.8833 -42.8685 1.3017
26.8921 -42.8685 -3.40757
10.9548 39.7157 -8.37786
10.9548 42.8685 -8.37786
9.59447 42.8685 -5.95877
9.59447 39.7157 -5.95877
-24.792 -34.0207 -31.3874
-24.792 -42.8685 -31.3874
-37.1788 -34.0207 -4.9665
-37.1788 -42.8685 -4.9665
-20.2528 -42.8685 -7.7762
15.9219 31.8308 9.60258
15.9219 -34.0207 9.60258
-6.56696 -42.8685 -5.81695
-8.08908 -42.8685 -10.7629
6.0809 -42.8685 -1.48677
13.7756 -42.8685 -2.91509
14.8189 -42.8685 3.17014
24.3956 -42.8685 1.13345
13.0398 -42.8685 -7.20657
-4.74746 -42.8685 -4.79385
-0.0995829 -42.8685 -13.0592
5.45603 -42.8685 -11.4668
1.70048 -42.8685 -13.5765
-17.5452 -42.8685 -12.5911
-6.05742 -42.8685 -4.16122
11.2944 -42.8685 24.9642
11.2944 -34.0207 24.9642
11.7919 -34.0207 25.2441
11.7919 -42.8685 25.2441
7.35844 31.8308 3.3829
-3.88023 -34.0207 -24.6259
-8.623 -34.0207 -23.4748
9.8601 42.8685 -5.8094
7.4812 39.7157 -10.3292
11.2205 39.7157 -8.22858
12.6034 39.7157 -10.6877
12.0504 42.8685 -10.649
12.0504 39.7157 -10.649
-10.8851 -42.8685 -24.435
-20.5608 -42.8685 -20.5775
15.9217 -34.0207 9.60263
15.9217 -42.8685 9.60263
-11.8678 -42.8685 -22.6873
25.2192 -42.8685 -0.36469
-12.504 -42.8685 -21.556
-11.1154 -42.8685 -24.0254
8.08825 -42.8685 23.1603
8.08825 -34.0207 23.1603
-18.7323 -34.0207 -32.9777
-18.7323 -42.8685 -32.9777
-4.50569 31.8308 -4.65791
-6.05742 31.8308 -4.16122
-6.56696 31.8308 -5.81695
12.6034 39.7157 -10.6877
6.84029 39.7157 -13.9284
5.45603 39.7157 -11.4668
9.71074 39.7157 -5.54379
3.94769 39.7157 -8.78453
4.70709 39.7157 -10.135
11.2205 42.8685 -8.22858
9.71074 42.8685 -5.54379
9.71074 31.8308 -5.54379
11.2205 31.8308 -8.22858
3.94769 42.8685 -8.78453
3.94769 31.8308 -8.78453
13.7105 31.8308 -3.29461
4.70709 42.8685 -10.135
4.70709 31.8308 -10.135
13.7756 31.8308 -2.91509
13.0398 31.8308 -7.20657
5.45603 42.8685 -11.4668
5.45603 31.8308 -11.4668
-15.3103 -34.0207 -26.9234
-15.3103 -42.8685 -26.9234
17.0709 -34.0207 32.9775
13.4101 -34.0207 30.9192
13.4101 -42.8685 30.9192
17.0709 -42.8685 32.9775
12.6034 42.8685 -10.6877
12.6034 31.8308 -10.6877
-25.0894 -34.0207 1.9306
-25.0894 -42.8685 1.9306
1.70048 31.8308 -13.5765
15.9217 31.8308 9.60263
19.1058 -42.8685 29.3589
19.1058 -34.0207 29.3589
6.29976 -34.0207 17.4698
8.47303 -34.0207 13.6043
8.47303 -42.8685 13.6043
6.29976 -42.8685 17.4698
8.39753 -34.0207 13.3395
8.39753 -42.8685 13.3395
11.5695 -42.8685 24.4639
6.84029 42.8685 -13.9284
2.16942 31.8308 -17.0941
1.93906 31.8308 -16.6845
1.93906 -34.0207 -16.6845
13.8529 31.8308 -10.7752
13.456 -34.0207 -10.7474
13.456 31.8308 -10.7474
7.07063 -34.0207 -14.3381
25.3523 31.8308 -4.27756
25.4264 31.8308 -4.01614
25.4264 -34.0207 -4.01614
33.7143 -34.0207 -6.61142
33.7143 -42.8685 -6.61142
26.8921 -34.0207 -3.40757
26.8015 -34.0207 -3.24287
-37.9826 -34.0207 -7.93044
-37.9826 -42.8685 -7.93044
-36.9473 -42.8685 -4.11282
-36.9473 -34.0207 -4.11282
-10.8851 -34.0207 -24.435
37.9832 -34.0207 -4.21095
37.9832 -42.8685 -4.21095
-15.9968 31.8308 -8.4902
-15.9968 -34.0207 -8.4902
-15.9968 -42.8685 -8.4902
-17.5452 31.8308 -12.5911
20.5674 31.8308 8.09689
11.5695 -34.0207 24.4639
6.84029 31.8308 -13.9284
26.7438 31.8308 0.634063
24.3956 31.8308 1.13345
24.3956 -34.0207 1.13345
26.7438 -34.0207 0.634063
20.5674 -34.0207 8.09689
28.1607 -34.0207 5.63575
26.0386 31.8308 -1.85514
26.0386 -34.0207 -1.85514
29.5963 -34.0207 10.7035
-25.8477 -34.0207 2.1733
-25.8477 -42.8685 2.1733
-20.5943 -42.8685 -7.16883
-20.5943 -34.0207 -7.16883
-9.12061 -34.0207 -27.5728
-9.12061 -42.8685 -27.5728
28.5358 -34.0207 -6.39743
28.5358 -42.8685 -6.39743
1.70048 -34.0207 -13.5765
-14.086 31.8308 -22.149
19.0244 -42.8685 10.9036
19.2615 -42.8685 29.082
21.969 -42.8685 10.2286
26.7438 -42.8685 0.634063
25.2192 31.8308 -0.36469
31.7882 -34.0207 -0.43874
21.969 -34.0207 10.2286
-20.6387 -42.8685 -5.9842
31.7882 -42.8685 -0.43874
-20.6387 -34.0207 -5.9842
0.128147 31.8308 -1.99223
-21.2605 -42.8685 -5.9842
0.128147 -34.0207 -1.99223
29.5963 -42.8685 10.7035
0.530655 -34.0207 -0.456512
-31.048 -42.8685 -5.9842
26.0386 -42.8685 -1.85514
0.530655 31.8308 -0.456512
-37.4548 -42.8685 -5.9842
-37.4548 -34.0207 -5.9842
-31.048 -34.0207 -5.9842
-21.2605 -34.0207 -5.9842
-3.88023 -42.8685 -24.6259
-17.8021 31.8308 -12.1344
5.51597 -34.0207 -14.6731
0.128147 -42.8685 -1.99223
0.530655 -42.8685 -0.456512
16.2537 -42.8685 11.5387
16.2537 -34.0207 11.5387
16.8293 -42.8685 14.8963
16.8293 -34.0207 14.8963
-25.3563 -34.0207 2.40512
-25.3563 -42.8685 2.40512
12.1883 39.7157 -10.5715
-25.8287 -42.8685 2.13948
-25.8287 -34.0207 2.13948
-25.7972 -34.0207 2.15715
-25.7972 -42.8685 2.15715
8.6551 -34.0207 13.2805
8.6551 -42.8685 13.2805
-13.4861 31.8308 -19.8095
-11.8678 31.8308 -22.6873
-9.68015 31.8308 -23.2183
12.1883 42.8685 -10.5715
12.6034 42.8685 -10.6877
-20.5608 -34.0207 -20.5775
12.454 42.8685 -10.4221
-12.504 31.8308 -21.556
27.9669 -34.0207 13.6012
19.0244 -34.0207 10.9036
-10.9551 -42.8685 -9.93922
-11.1154 -34.0207 -24.0254
-9.01036 31.8308 -23.3808
0.553628 -42.8685 -14.2208
4.09708 39.7157 -9.05018
4.09708 42.8685 -9.05018
9.8601 39.7157 -5.8094
19.2615 -34.0207 29.082
4  338 118 44 43  255 0 0
4  43 75 360 42  255 101 0
4  286 38 37 366  255 101 0
5  286 246 169 166 159  255 101 0
5  286 366 39 40 246  255 101 0
4  338 292 74 118  255 0 0
4  43 42 292 338  255 0 0
4  281 277 148 280  255 204 0
6  281 320 299 303 3 58  203 255 0
3  163 62 293  101 255 0
4  158 63 62 163  101 255 0
4  281 58 53 277  255 204 0
6  158 300 301 304 363 321  203 255 0
4  158 163 293 300  101 255 0
4  43 44 87 88  0 255 0
3  158 321 364  0 255 102
4  160 85 337 310  255 101 0
5  160 167 168 247 212  255 101 0
4  159 166 222 309  255 101 0
4  159 205 38 286  255 101 0
4  159 309 204 205  255 101 0
4  160 310 223 167  255 101 0
7  72 78 77 283 333 330 183  0 255 0
4  72 79 80 197  255 101 0
6  72 183 307 136 132 79  0 255 0
7  43 88 335 334 282 76 75  0 255 0
6  174 117 114 27 28 113  203 255 0
8  174 150 123 145 99 96 101 60  255 204 0
5  280 148 149 311 112  255 204 0
6  280 116 171 170 320 281  203 255 0
6  280 112 26 25 115 116  203 255 0
5  174 113 312 151 150  255 204 0
7  77 78 213 102 247 168 180  255 101 0
4  77 76 282 283  0 255 0
5  212 247 102 216 219  255 101 0
4  212 86 85 160  255 101 0
4  212 219 111 86  255 101 0
4  72 197 213 78  255 101 0
7  70 69 92 215 139 342 315  0 255 102
6  70 317 71 328 105 104  203 255 0
7  158 364 343 138 214 185 63  0 255 102
3  70 315 317  0 255 102
3  69 68 92  0 255 102
3  69 70 104  101 255 0
5  71 317 315 344 316  0 255 203
5  363 372 345 364 321  0 255 203
4  71 316 372 363  0 255 203
4  58 3 2 53  0 203 255
3  366 37 39  255 101 0
5  362 356 357 269 29  255 0 0
4  362 355 314 356  255 0 0
9  319 297 293 62 64 65 242 239 243  101 255 0
4  319 302 296 297  203 255 0
6  319 243 236 1 0 302  101 255 0
7  362 29 31 73 74 292 355  255 0 0
7  75 76 179 169 246 40 360  255 101 0
9  216 218 368 196 195 7 98 84 111  255 101 0
4  216 102 103 218  255 101 0
4  39 37 357 356  255 0 0
4  57 56 273 276  255 204 0
3  303 2 3  101 255 0
5  57 0 1 253 56  0 203 255
4  57 53 2 0  0 203 255
4  303 302 0 2  101 255 0
4  76 77 180 179  255 101 0
3  312 113 28  203 255 0
4  310 337 204 309  255 101 0
4  312 311 149 151  255 204 0
4  350 305 306 349  0 102 255
6  350 336 324 254 351 305  0 102 255
5  349 326 330 182 284  0 102 255
6  349 306 352 255 322 326  0 102 255
5  350 285 181 335 336  0 102 255
4  350 349 284 285  0 102 255
5  345 294 161 137 343  0 255 203
3  344 315 342  0 255 203
5  344 266 202 258 316  0 255 203
4  215 92 68 67  0 255 102
3  345 343 364  0 255 203
5  344 342 140 162 266  0 255 203
4  215 214 138 139  0 255 102
3  342 139 140  0 255 102
3  343 137 138  0 255 102
4  313 51 245 256  0 0 255
4  313 30 270 339  255 101 0
5  339 55 8 51 313  255 101 0
5  339 270 36 274 55  255 101 0
4  256 29 30 313  0 0 255
8  256 245 241 238 22 224 32 31  0 0 255
5  55 54 89 106 295  0 203 255
4  245 51 8 9  101 255 0
4  55 295 9 8  0 203 255
3  29 256 31  0 0 255
4  269 357 367 268  255 0 0
4  270 30 29 269  255 0 0
4  60 101 100 61  255 204 0
6  60 323 173 172 117 174  203 255 0
6  60 61 5 331 318 323  203 255 0
4  316 258 259 372  0 255 203
5  372 259 201 294 345  0 255 203
4  39 356 314 40  255 0 0
4  38 36 268 367  255 0 0
4  37 38 367 357  255 0 0
5  173 323 318 155 154  203 255 0
5  170 157 156 299 320  203 255 0
4  71 363 304 328  203 255 0
4  173 154 157 170  203 255 0
4  42 41 355 292  255 0 0
4  360 40 41 42  255 101 0
4  355 41 40 314  255 0 0
4  276 277 53 57  255 204 0
4  274 90 54 55  255 204 0
4  274 36 91 146  255 101 0
3  311 26 112  203 255 0
4  312 28 26 311  203 255 0
5  272 90 274 146 125  255 204 0
4  56 89 54 52  0 203 255
4  52 54 90 272  255 204 0
4  56 52 272 273  255 204 0
4  45 44 118 74  255 0 0
5  80 79 132 133 291  0 255 0
5  80 81 365 103 197  255 101 0
3  80 291 81  0 255 0
5  45 290 134 87 44  0 255 0
4  310 309 222 223  255 101 0
4  308 88 87 135  0 255 0
4  308 336 335 88  0 255 0
4  307 326 322 136  0 255 0
4  307 183 330 326  0 255 0
4  308 135 324 336  0 255 0
4  290 291 133 134  0 255 0
4  306 305 351 352  0 102 255
4  304 157 154 328  203 255 0
4  304 301 156 157  203 255 0
4  303 299 296 302  203 255 0
4  293 297 298 300  101 255 0
5  300 298 299 156 301  203 255 0
4  299 298 297 296  203 255 0
4  295 106 95 228  0 203 255
6  294 200 221 260 261 161  0 255 203
3  266 199 202  0 255 203
3  294 201 200  0 255 203
3  74 73 289  0 255 0
4  46 47 186 81  255 101 0
4  81 186 187 365  255 101 0
4  46 81 291 290  0 255 0
3  62 184 64  0 255 102
4  63 185 184 62  0 255 102
4  290 45 74 289  0 255 0
4  73 226 47 46  255 0 0
4  73 46 290 289  0 255 0
4  25 26 278 287  102 0 255
4  27 288 279 28  102 0 255
4  27 25 287 288  102 0 255
4  288 287 278 279  102 0 255
4  276 273 271 275  255 204 0
4  285 284 182 181  0 102 255
4  283 282 334 333  0 255 0
4  205 91 36 38  255 101 0
4  26 28 279 278  102 0 255
4  275 271 125 148  255 204 0
4  148 125 126 149  255 204 0
4  148 277 276 275  255 204 0
4  146 91 143 147  255 101 0
5  125 146 147 82 126  255 204 0
4  273 272 125 271  255 204 0
4  36 270 269 268  255 0 0
4  244 130 109 240  101 255 0
6  267 94 93 210 164 11  0 203 255
4  267 228 95 94  0 203 255
4  244 11 164 130  101 255 0
4  244 229 10 11  101 255 0
4  245 9 10 229  101 255 0
4  295 228 10 9  0 203 255
4  267 11 10 228  0 203 255
4  359 94 95 227  0 203 255
5  56 227 95 106 89  0 203 255
4  359 252 93 94  0 203 255
4  56 253 209 227  0 203 255
4  359 227 209 252  0 203 255
4  265 354 353 264  0 255 203
5  264 353 137 161 261  0 255 203
5  265 262 162 140 354  0 255 203
6  266 162 262 263 220 199  0 255 203
4  265 264 261 262  0 255 203
4  260 221 220 263  0 255 203
4  263 262 261 260  0 255 203
4  259 248 249 201  0 255 203
4  258 251 248 259  0 255 203
4  202 250 251 258  0 255 203
4  201 249 250 202  0 255 203
4  22 21 332 325  204 0 255
5  23 50 49 224 22  0 0 255
4  23 22 325 327  204 0 255
4  66 18 14 65  101 255 0
4  257 184 185 214  0 255 102
4  65 64 184 257  0 255 102
5  65 14 13 21 242  101 255 0
4  214 66 65 257  0 255 102
4  73 31 32 226  255 0 0
3  255 352 347  0 102 255
4  136 322 324 135  0 255 0
4  255 254 324 322  0 102 255
3  171 116 115  203 255 0
3  172 114 117  203 255 0
4  172 171 115 114  203 255 0
4  27 114 115 25  203 255 0
4  236 243 239 235  101 255 0
4  233 176 358 361  101 255 0
5  252 361 358 210 93  0 203 255
4  253 1 12 209  0 203 255
4  236 208 12 1  101 255 0
4  233 361 12 208  101 255 0
4  252 209 12 361  0 203 255
4  251 250 249 248  0 255 203
4  102 213 197 103  255 101 0
6  22 238 235 239 242 21  101 255 0
4  245 229 232 241  101 255 0
4  244 240 232 229  101 255 0
4  21 13 15 19  101 255 0
4  240 370 369 232  101 255 0
5  241 232 369 231 238  101 255 0
4  240 109 108 370  101 255 0
6  237 370 108 177 206 234  101 255 0
4  237 231 369 370  101 255 0
4  238 231 230 235  101 255 0
4  237 234 230 231  101 255 0
4  233 206 177 176  101 255 0
5  236 235 230 371 208  101 255 0
4  234 206 371 230  101 255 0
4  233 208 371 206  101 255 0
5  207 175 178 107 110  101 255 0
4  24 122 50 23  255 101 0
7  24 20 188 189 192 129 128  101 255 0
4  24 340 341 20  204 0 255
4  24 23 327 340  204 0 255
4  207 131 165 211  101 255 0
4  226 32 224 225  255 0 204
4  47 226 225 48  255 0 204
4  49 50 122 119  255 101 0
4  49 48 225 224  255 0 204
4  166 167 223 222  255 101 0
4  199 220 221 200  0 255 203
3  219 216 111  255 101 0
4  61 100 6 5  0 203 255
7  217 331 6 7 195 129 192  101 255 0
7  217 191 104 105 155 318 331  203 255 0
6  218 103 365 187 194 368  255 101 0
6  217 192 189 127 190 191  101 255 0
4  111 84 83 86  255 101 0
4  67 17 18 66  101 255 0
6  67 68 69 104 191 190  101 255 0
4  215 67 66 214  0 255 102
4  211 165 164 210  0 203 255
4  207 211 348 175  101 255 0
4  354 140 137 353  0 255 203
3  351 254 346  0 102 255
4  352 351 346 347  0 102 255
4  254 255 347 346  0 102 255
4  19 15 16 20  101 255 0
3  20 16 188  101 255 0
4  20 341 329 19  204 0 255
4  329 341 340 327  204 0 255
4  337 141 143 204  255 101 0
4  85 142 141 337  255 101 0
4  204 143 91 205  255 101 0
4  19 329 332 21  204 0 255
4  332 329 327 325  204 0 255
3  13 14 203  255 0 102
4  15 13 203 152  255 0 102
4  14 18 152 203  255 0 102
4  202 199 200 201  0 255 203
5  186 193 121 194 187  255 101 0
4  186 198 119 193  255 101 0
4  186 47 48 198  255 101 0
3  119 122 120  255 101 0
4  119 198 48 49  255 101 0
3  196 368 194  255 101 0
8  196 194 121 120 122 24 128 195  255 101 0
3  195 128 129  101 255 0
4  193 119 120 121  255 101 0
4  67 190 127 17  101 255 0
5  189 188 16 17 127  101 255 0
3  181 334 335  0 102 255
4  182 333 334 181  0 102 255
3  182 330 333  0 102 255
4  180 168 169 179  255 101 0
4  177 108 107 178  101 255 0
4  178 175 176 177  101 255 0
4  173 170 171 172  203 255 0
4  169 168 167 166  255 101 0
4  131 130 164 165  101 255 0
5  100 97 98 7 6  0 203 255
3  331 5 6  101 255 0
4  328 154 155 105  203 255 0
3  131 207 110  101 255 0
4  211 210 358 348  0 203 255
4  175 348 358 176  101 255 0
3  16 153 17  255 0 102
4  16 15 152 153  255 0 102
4  18 17 153 152  255 0 102
4  149 126 124 151  255 204 0
4  151 124 123 150  255 204 0
4  147 143 141 144  255 101 0
4  144 141 142 145  255 101 0
5  144 124 126 82 147  255 204 0
4  145 123 124 144  255 204 0
6  145 142 85 86 83 99  255 101 0
4  140 139 138 137  0 255 102
4  136 135 87 132  0 255 0
4  134 133 132 87  0 255 0
4  110 109 130 131  101 255 0
4  110 107 108 109  101 255 0
4  101 96 97 100  255 204 0
4  98 97 96 99  255 204 0
4  99 83 84 98  255 101 0
3  46 73 45  0 255 0
3  73 46 45  255 0 0
6  81 46 45 72 79 80  0 255 0
6  46 81 80 79 72 45  255 101 0
8  78 72 45 44 43 75 76 77  0 255 0
8  72 78 77 76 75 43 44 45  255 101 0
3  74 45 73  0 255 0
3  45 74 73  255 0 0
4  70 317 321 158  0 255 102
4  71 317 321 363  203 255 0
7  69 70 158 63 66 67 68  0 255 102
7  70 69 68 67 66 63 158  101 255 0
5  65 66 63 62 64  0 255 102
5  66 65 64 62 63  101 255 0
4  363 321 317 71  0 255 203
4  158 321 317 70  203 255 0
6  23 22 238 241 245 51  0 0 255
6  22 23 51 245 241 238  101 255 0
5  24 23 51 195 128  255 101 0
5  23 24 128 195 51  101 255 0
4  98 7 8 55  255 101 0
4  195 7 8 51  101 255 0
8  99 98 55 274 146 147 144 145  255 101 0
8  98 99 145 144 147 146 274 55  255 204 0
4  51 8 7 195  255 101 0
4  55 8 7 98  0 203 255
6  113 312 59 61 60 174  203 255 0
6  312 113 174 60 61 59  255 204 0
10  331 5 4 298 300 158 70 104 191 217  203 255 0
4  61 5 4 59  0 203 255
10  331 217 191 104 70 158 300 298 4 5  101 255 0
5  297 298 303 302 319  203 255 0
5  298 297 319 302 303  101 255 0
4  58 3 4 59  203 255 0
4  303 3 4 298  101 255 0
7  281 58 59 312 311 112 280  203 255 0
7  58 281 280 112 311 312 59  255 204 0
4  298 4 3 303  203 255 0
4  59 4 3 58  0 203 255
4  59 4 5 61  203 255 0
10  98 55 54 52 53 58 59 61 100 97  255 204 0
10  55 98 97 100 61 59 58 53 52 54  0 203 255
4  57 53 52 56  255 204 0
4  53 57 56 52  0 203 255
4  23 51 49 50  0 0 255
4  51 23 50 49  255 101 0
4  48 49 33 47  255 0 204
4  49 48 47 33  255 101 0
9  46 47 34 35 41 42 43 44 45  255 0 0
9  47 46 45 44 43 42 41 35 34  255 101 0
4  40 41 35 30  255 0 0
4  41 40 30 35  255 101 0
7  39 40 30 270 36 38 37  255 0 0
7  40 39 37 38 36 270 30  255 101 0
4  313 30 35 51  0 0 255
4  30 313 51 35  255 101 0
4  49 51 34 33  0 0 255
4  51 49 33 34  255 101 0
3  51 34 35  255 101 0
3  47 34 33  255 101 0
3  51 35 34  0 0 255
3  47 33 34  255 0 0
4  47 33 32 226  255 0 204
4  49 33 32 224  0 0 255
4  47 226 32 33  255 0 0
4  224 32 33 49  255 0 204
7  35 30 29 31 32 33 34  0 0 255
7  30 35 34 33 32 31 29  255 0 0
4  28 26 25 27  102 0 255
4  26 28 27 25  203 255 0
6  24 20 19 21 22 23  204 0 255
6  20 24 23 22 21 19  101 255 0
6  18 14 13 15 16 17  255 0 102
6  14 18 17 16 15 13  101 255 0
4  10 11 164 165  0 203 255
4  11 10 165 164  101 255 0
13  9 10 165 211 348 12 1 2 4 5 6 7 8  0 203 255
13  10 9 8 7 6 5 4 2 1 12 348 211 165  101 255 0
3  3 4 2  0 203 255
3  4 3 2  101 255 0
3  0 2 1  0 203 255
3  2 0 1  101 255 0
4  361 12 348 358  0 203 255
4  12 361 358 348  101 255 0
8  336 324 322 326 330 333 334 335  0 255 0
8  324 336 335 334 333 330 326 322  0 102 255
8  342 140 137 343 364 321 317 315  0 255 102
8  140 342 315 317 321 364 343 137  0 255 203

