OFF
378 446 0

-25.8287 -42.8685 2.13948
-25.7972 -42.8685 2.15715
-25.8287 -34.0207 2.13948
-25.7972 -34.0207 2.15715
11.5695 -34.0207 24.4639
11.7919 -34.0207 25.2441
10.4206 -34.0207 20.4347
8.47303 -34.0207 13.6043
8.47303 -42.8685 13.6043
10.4206 -42.8685 20.4347
11.5695 -42.8685 24.4639
11.7919 -42.8685 25.2441
19.0516 -34.0207 8.58819
19.0516 -42.8685 8.58819
15.9219 -34.0207 9.60258
15.9217 -34.0207 9.60263
15.9217 -42.8685 9.60263
15.9219 -42.8685 9.60258
-17.3297 -35.1992 -11.8687
-17.3297 -42.8685 -11.8687
-17.3297 -34.0207 -11.8687
-19.567 -34.0207 -7.89004
-19.567 -42.8685 -7.89004
9.44511 42.8685 -5.69316
9.59447 42.8685 -5.95877
9.44511 39.7157 -5.69316
9.59447 39.7157 -5.95877
4.09708 39.7157 -9.05018
4.36275 39.7157 -8.90079
5.45603 39.7157 -11.4668
6.69091 39.7157 -13.6628
4.70709 39.7157 -10.135
3.94769 39.7157 -8.78453
5.07111 39.7157 -10.1605
5.72177 39.7157 -11.3175
6.95659 39.7157 -13.5134
25.7259 -34.0207 -2.95901
25.7259 -42.8685 -2.95901
26.0386 -37.5319 -1.85514
26.0386 -34.0207 -1.85514
26.0386 -42.8685 -1.85514
5.45603 31.8308 -11.4668
6.69091 31.8308 -13.6628
4.70709 31.8308 -10.135
3.94769 31.8308 -8.78453
9.71074 31.8308 -5.54379
11.2205 31.8308 -8.22858
12.454 31.8308 -10.4221
25.4264 -34.0207 -4.01614
25.6081 -34.0207 -3.37487
25.3523 -34.0207 -4.27756
13.8529 -34.0207 -10.7752
13.456 -34.0207 -10.7474
12.6034 -34.0207 -10.6877
-4.50569 -34.0207 -4.65791
-4.50569 -42.8685 -4.65791
-4.74746 -34.0207 -4.79385
-6.56696 -34.0207 -5.81695
-6.56696 -42.8685 -5.81695
-4.74746 -42.8685 -4.79385
-12.504 31.8308 -21.556
-11.8678 31.8308 -22.6873
-13.4861 31.8308 -19.8095
-13.4861 -34.0207 -19.8095
-12.6177 -34.0207 -21.3538
-11.8678 -34.0207 -22.6873
14.7653 -34.0207 11.8799
14.7653 -42.8685 11.8799
16.2537 -34.0207 11.5387
19.0244 -34.0207 10.9036
21.969 -34.0207 10.2286
21.969 -42.8685 10.2286
19.0244 -42.8685 10.9036
16.2537 -42.8685 11.5387
-20.6387 -42.8685 -5.9842
-20.6387 -34.0207 -5.9842
-21.2605 -42.8685 -5.9842
-31.048 -42.8685 -5.9842
-37.4548 -42.8685 -5.9842
-37.4548 -34.0207 -5.9842
-31.048 -34.0207 -5.9842
-21.2605 -34.0207 -5.9842
12.1883 39.7157 -10.5715
12.454 39.7157 -10.4221
26.4283 -38.3647 -2.56402
6.95659 42.8685 -13.5134
6.69091 42.8685 -13.6628
12.0504 39.7157 -10.649
12.1883 42.8685 -10.5715
12.454 42.8685 -10.4221
25.7259 31.8308 -2.95901
26.4283 -34.0207 -2.56402
26.4283 -42.8685 -2.56402
6.69091 -42.8685 -13.6628
6.69091 -34.0207 -13.6628
6.93693 31.8308 1.7762
9.02333 31.8308 2.94937
6.93693 -34.0207 1.7762
6.93693 -42.8685 1.7762
9.02333 -42.8685 2.94937
9.02333 -34.0207 2.94937
2.36173 -34.0207 -0.796404
2.36173 -42.8685 -0.796404
2.36173 31.8308 -0.796404
0.153826 31.8308 -2.03789
0.153826 -34.0207 -2.03789
0.153826 -42.8685 -2.03789
36.6476 -34.0207 -1.83587
29.8555 -34.0207 -5.6553
36.6476 -42.8685 -1.83587
29.8555 -42.8685 -5.6553
0.553628 31.8308 -14.2208
0.553628 -34.0207 -14.2208
-0.0995829 31.8308 -13.0592
-4.74746 31.8308 -4.79385
-3.312 -34.0207 -7.34652
0.285552 -34.0207 -13.7441
2.16942 -34.0207 -17.0941
-9.68015 -34.0207 -23.2183
-9.01036 -34.0207 -23.3808
-14.086 -34.0207 -22.149
-17.5452 -34.0207 -12.5911
-17.8021 -34.0207 -12.1344
-17.2571 -34.0207 -11.8279
-12.9027 -34.0207 -9.37947
-6.05742 -34.0207 -4.16122
0.109671 -34.0207 -2.06272
5.45603 -34.0207 -11.4668
12.6034 -34.0207 -10.6877
6.84029 -34.0207 -13.9284
12.6034 31.8308 -10.6877
25.6081 31.8308 -3.37487
26.5751 -34.0207 -2.83107
26.5751 -38.6785 -2.83107
26.8015 -42.8685 -3.24287
26.5751 -42.8685 -2.83107
26.8921 -42.8685 -3.40757
27.8553 -42.8685 -5.15971
28.5358 -42.8685 -6.39743
20.0031 -42.8685 9.12324
20.0031 -34.0207 9.12324
5.45603 -42.8685 -11.4668
7.07063 -34.0207 -14.3381
7.18556 -34.0207 -14.5424
8.83505 -34.0207 -17.4757
8.83505 -42.8685 -17.4757
7.18556 -42.8685 -14.5424
7.07063 -42.8685 -14.3381
6.84029 -42.8685 -13.9284
4.70709 -42.8685 -10.135
15.3953 -34.0207 6.5323
27.9669 -34.0207 13.6012
27.9669 -42.8685 13.6012
19.0516 31.8308 8.58819
17.0178 31.8308 7.44463
15.3953 31.8308 6.5323
15.3953 -42.8685 6.5323
17.0178 -42.8685 7.44463
-17.8021 -42.8685 -12.1344
-12.9027 31.8308 -9.37947
-17.2571 31.8308 -11.8279
-29.1222 -34.0207 -18.4996
-31.3384 -34.0207 -19.7458
-31.3384 -42.8685 -19.7458
-29.1222 -42.8685 -18.4996
-17.2571 -42.8685 -11.8279
-12.9027 -42.8685 -9.37947
14.5981 -34.0207 -14.235
2.16942 -42.8685 -17.0941
1.93906 -42.8685 -16.6845
-8.623 -42.8685 -23.4748
-9.01036 -42.8685 -23.3808
-20.2528 -34.0207 -7.7762
12.6034 31.8308 -10.6877
12.8337 -34.0207 -11.0973
2.29001 -34.0207 -17.3086
12.2393 42.8685 -10.6622
12.3376 42.8685 -10.8371
12.3376 39.7157 -10.8371
13.456 -42.8685 -10.7474
12.6034 -42.8685 -10.6877
25.6081 -42.8685 -3.37487
25.4264 -42.8685 -4.01614
-14.086 -42.8685 -22.149
-13.4861 -42.8685 -19.8095
20.5674 -42.8685 8.09689
28.1607 -42.8685 5.63575
12.3376 31.8308 -10.8371
4.36275 42.8685 -8.90079
5.07111 42.8685 -10.1605
-9.68015 -42.8685 -23.2183
27.8553 -34.0207 -5.15971
36.4153 -42.8685 -1.42281
36.4153 -34.0207 -1.42281
32.0484 -34.0207 -0.494071
32.0484 -42.8685 -0.494071
26.8015 -34.0207 -3.24287
20.0031 31.8308 9.12324
-17.3297 31.8308 -11.8687
-17.8021 31.8308 -12.1344
-10.8851 -34.0207 -24.435
-0.875105 -42.8685 -5.81999
-1.92273 -42.8685 -9.81707
0.109671 -42.8685 -2.06272
13.8529 -42.8685 -10.7752
19.9871 -42.8685 -11.2046
19.9871 -34.0207 -11.2046
14.535 -42.8685 1.51415
7.4812 -42.8685 -10.3292
5.72177 42.8685 -11.3175
-16.0586 -42.8685 -8.47244
-16.0586 -34.0207 -8.47244
16.8293 -42.8685 14.8963
-11.8678 -42.8685 -22.6873
33.1238 -34.0207 4.43055
26.7438 -34.0207 0.63408
31.7882 -42.8685 -0.43874
26.7438 -42.8685 0.634063
26.7438 -34.0207 0.634063
31.7882 -34.0207 -0.43874
25.2192 31.8308 -0.36469
29.5963 -34.0207 10.7035
29.5963 -42.8685 10.7035
-11.1154 -34.0207 -24.0254
-23.3133 -34.0207 -31.7754
-23.3133 -42.8685 -31.7754
-23.7397 -42.8685 -31.6635
-23.7397 -34.0207 -31.6635
34.8833 -34.0207 1.3017
34.966 -34.0207 1.15452
34.966 -42.8685 1.15452
34.8833 -42.8685 1.3017
10.9548 39.7157 -8.37786
10.9548 42.8685 -8.37786
-24.792 -34.0207 -31.3874
-24.792 -42.8685 -31.3874
-37.1788 -34.0207 -4.9665
-37.1788 -42.8685 -4.9665
-20.2528 -42.8685 -7.7762
13.7756 -42.8685 -2.91509
14.8189 -42.8685 3.17014
24.3956 -42.8685 1.13345
-10.8851 -42.8685 -24.435
13.0398 -42.8685 -7.20657
-0.0995829 -42.8685 -13.0592
1.70048 -42.8685 -13.5765
-17.5452 -42.8685 -12.5911
-6.05742 -42.8685 -4.16122
11.2944 -42.8685 24.9642
11.2944 -34.0207 24.9642
7.35844 31.8308 3.3829
7.35844 -34.0207 3.3829
-3.88023 -34.0207 -24.6259
-8.623 -34.0207 -23.4748
-3.88023 -42.8685 -24.6259
0.128147 -34.0207 -1.99223
0.128147 -42.8685 -1.99223
0.530655 -42.8685 -0.456512
0.530655 -34.0207 -0.456512
-25.3563 -34.0207 2.40512
-25.3563 -42.8685 2.40512
-25.0894 -42.8685 1.9306
-25.0894 -34.0207 1.9306
8.6551 -34.0207 13.2805
8.6551 -42.8685 13.2805
9.8601 42.8685 -5.8094
9.8601 39.7157 -5.8094
4.09708 42.8685 -9.05018
7.4812 39.7157 -10.3292
11.2205 39.7157 -8.22858
12.6034 39.7157 -10.6877
12.0504 42.8685 -10.649
-10.7494 -42.8685 -24.6763
-20.5608 -42.8685 -20.5775
25.2192 -42.8685 -0.36469
-12.504 -42.8685 -21.556
-11.1154 -42.8685 -24.0254
8.08825 -42.8685 23.1603
8.08825 -34.0207 23.1603
-18.7323 -34.0207 -32.9777
-18.7323 -42.8685 -32.9777
-4.50569 31.8308 -4.65791
-6.05742 31.8308 -4.16122
-6.56696 31.8308 -5.81695
12.6034 39.7157 -10.6877
6.84029 39.7157 -13.9284
9.71074 39.7157 -5.54379
11.2205 42.8685 -8.22858
9.71074 42.8685 -5.54379
3.94769 42.8685 -8.78453
13.7105 31.8308 -3.29461
4.70709 42.8685 -10.135
13.7756 31.8308 -2.91509
13.0398 31.8308 -7.20657
5.45603 42.8685 -11.4668
-15.3103 -34.0207 -26.9234
-15.3103 -42.8685 -26.9234
17.0709 -34.0207 32.9775
13.4101 -34.0207 30.9192
13.4101 -42.8685 30.9192
17.0709 -42.8685 32.9775
12.6034 42.8685 -10.6877
12.6034 31.8308 -10.6877
6.84029 42.8685 -13.9284
2.16942 31.8308 -17.0941
1.93906 31.8308 -16.6845
1.93906 -34.0207 -16.6845
13.8529 31.8308 -10.7752
13.456 31.8308 -10.7474
15.9219 31.8308 9.60258
33.7143 -34.0207 -6.61142
-10.7494 -34.0207 -24.6763
33.7143 -42.8685 -6.61142
-8.08908 -42.8685 -10.7629
6.0809 -42.8685 -1.48677
26.8921 -34.0207 -3.40757
-37.9826 -34.0207 -7.93044
-37.9826 -42.8685 -7.93044
-36.9473 -42.8685 -4.11282
-36.9473 -34.0207 -4.11282
25.4264 31.8308 -4.01614
37.9832 -34.0207 -4.21095
37.9832 -42.8685 -4.21095
-15.9968 31.8308 -8.4902
-15.9968 -34.0207 -8.4902
-15.9968 -42.8685 -8.4902
-17.5452 31.8308 -12.5911
20.5674 31.8308 8.09689
6.84029 31.8308 -13.9284
26.7438 31.8308 0.634063
24.3956 31.8308 1.13345
24.3956 -34.0207 1.13345
20.5674 -34.0207 8.09689
28.1607 -34.0207 5.63575
26.0386 31.8308 -1.85514
-25.8477 -34.0207 2.1733
-14.086 31.8308 -22.149
-20.5608 -34.0207 -20.5775
-25.8477 -42.8685 2.1733
15.9218 -42.8685 9.60281
24.0348 -34.0207 -8.92846
25.3523 -42.8685 -4.27756
24.0348 -42.8685 -8.92846
15.9218 -34.0207 9.60281
1.70048 31.8308 -13.5765
1.70048 -34.0207 -13.5765
28.5358 -34.0207 -6.39743
-9.12061 -34.0207 -27.5728
19.1058 -42.8685 29.3589
5.51597 -34.0207 -14.6731
-9.12061 -42.8685 -27.5728
19.1058 -34.0207 29.3589
-9.68015 31.8308 -23.2183
-9.01036 31.8308 -23.3808
7.35844 -42.8685 3.3829
-10.9551 -42.8685 -9.93922
-19.8527 -34.0207 -7.38198
6.29976 -34.0207 17.4698
-19.8527 -42.8685 -7.38198
19.2615 -42.8685 29.082
0.553628 -42.8685 -14.2208
19.2615 -34.0207 29.082
6.29976 -42.8685 17.4698
16.8293 -34.0207 14.8963
26.7438 -42.8685 0.63408
8.39753 -34.0207 13.3395
33.1238 -42.8685 4.43055
8.39753 -42.8685 13.3395
0.128147 31.8308 -1.99223
12.6034 42.8685 -10.6877
0.530655 31.8308 -0.456512
3.93385 -34.0207 -20.2318
2.29001 -42.8685 -17.3086
25.3523 31.8308 -4.27756
3.93385 -42.8685 -20.2318
15.9217 31.8308 9.60263
-20.5943 -42.8685 -7.16883
-20.5943 -34.0207 -7.16883
4  199 198 20 122  255 0 0
4  122 161 337 121  255 66 0
4  200 119 118 223  255 66 0
5  200 295 227 224 311  255 66 0
5  200 223 65 120 295  255 66 0
4  199 326 160 198  255 0 0
4  122 121 326 199  255 0 0
4  196 48 50 315  255 133 0
6  196 219 218 39 91 132  255 199 0
3  197 153 327  243 255 0
4  140 12 153 197  243 255 0
4  196 132 49 48  255 133 0
6  140 332 333 221 151 70  255 199 0
4  140 197 327 332  243 255 0
4  122 20 21 172  177 255 0
3  140 70 69  110 255 0
4  272 170 254 350  255 66 0
5  272 225 226 296 242  255 66 0
4  311 224 279 347  255 66 0
4  311 253 119 200  255 66 0
4  311 347 252 253  255 66 0
4  272 350 280 225  255 66 0
7  158 164 163 317 78 77 238  177 255 0
4  158 19 165 246  255 66 0
6  158 238 376 358 22 19  177 255 0
7  122 172 80 79 316 162 161  177 255 0
6  136 195 192 109 110 137  255 199 0
8  136 341 204 146 147 179 182 134  255 133 0
5  315 50 340 346 191  255 133 0
6  315 194 229 228 219 196  255 199 0
6  315 191 108 107 193 194  255 199 0
5  136 137 138 342 341  255 133 0
7  163 164 273 183 296 226 235  255 66 0
4  163 162 316 317  177 255 0
5  242 296 183 213 276  255 66 0
4  242 171 170 272  255 66 0
4  242 276 190 171  255 66 0
4  158 246 273 164  255 66 0
7  139 13 17 16 339 73 72  110 255 0
6  139 71 152 222 186 185  255 199 0
7  140 69 68 343 15 14 12  110 255 0
3  139 72 71  110 255 0
3  13 157 17  44 255 0
3  13 139 185  243 255 0
5  152 71 72 212 359  0 255 22
5  151 361 363 69 70  0 255 22
4  152 359 361 151  0 255 22
4  132 91 36 49  0 255 88
3  223 118 65  255 66 0
5  60 61 352 305 111  255 0 0
4  60 62 336 61  0 255 155
9  220 330 327 153 154 155 292 290 293  243 255 0
4  220 334 329 330  255 199 0
6  220 293 46 47 90 334  243 255 0
7  60 111 113 159 160 326 62  255 0 0
7  161 162 234 227 295 120 337  255 66 0
9  213 275 360 245 141 93 148 169 190  255 66 0
4  213 183 184 275  255 66 0
4  65 118 352 61  255 0 0
4  131 130 308 320  0 255 221
3  39 36 91  243 255 0
5  131 90 47 302 130  0 255 88
4  131 49 36 90  0 255 88
4  39 334 90 36  243 255 0
4  162 163 235 234  255 66 0
3  138 137 110  255 199 0
4  350 254 252 347  255 66 0
4  138 346 340 342  255 133 0
4  2 335 338 0  0 221 255
5  2 81 75 262 3  0 221 255
5  0 76 77 237 318  0 221 255
3  0 338 1  0 221 255
5  2 319 236 80 81  0 221 255
4  2 0 318 319  0 221 255
5  363 4 6 66 68  0 255 22
3  212 72 73  0 255 22
5  212 10 11 348 359  0 255 22
4  16 17 157 156  44 255 0
3  363 68 69  0 255 22
5  212 73 67 9 10  0 255 22
4  16 15 343 339  110 255 0
3  73 339 67  110 255 0
3  68 66 343  110 255 0
4  345 127 41 344  0 155 255
4  345 112 306 349  255 66 0
5  349 129 94 127 345  255 66 0
5  349 306 117 142 129  255 66 0
4  344 111 112 345  0 155 255
8  344 41 43 44 104 281 114 113  0 155 255
5  129 128 173 187 328  0 255 88
4  41 127 94 42  243 255 0
4  129 328 42 94  0 255 88
3  111 344 113  0 155 255
4  305 352 353 304  255 0 0
4  306 112 111 305  255 0 0
4  134 182 181 135  255 133 0
6  134 216 231 230 195 136  255 199 0
6  134 135 92 40 217 216  255 199 0
4  359 348 351 361  0 255 22
5  361 351 5 4 363  0 255 22
4  65 61 336 120  0 255 155
4  119 117 304 353  255 0 0
4  118 119 353 352  255 0 0
5  231 216 217 364 366  255 199 0
5  228 214 215 218 219  255 199 0
4  152 151 221 222  255 199 0
4  231 366 214 228  255 199 0
4  121 63 62 326  255 0 0
4  337 120 63 121  255 66 0
4  62 63 120 336  0 255 155
4  320 48 49 131  0 255 221
4  142 174 128 129  255 133 0
4  142 117 175 143  255 66 0
3  346 108 191  255 199 0
4  138 110 108 346  255 199 0
5  52 174 142 143 51  255 133 0
4  130 173 128 53  0 255 88
4  53 128 174 52  255 133 0
4  130 53 52 308  0 255 221
4  123 20 198 160  255 0 0
5  165 19 22 210 325  0 88 255
5  165 166 355 184 246  255 66 0
3  165 325 166  0 88 255
5  123 324 211 21 20  0 88 255
4  350 347 279 280  255 66 0
4  377 172 21 356  177 255 0
4  377 81 80 172  177 255 0
4  376 76 74 358  177 255 0
4  376 238 77 76  177 255 0
4  377 356 75 81  177 255 0
4  324 325 210 211  0 88 255
3  335 2 3  0 221 255
4  338 335 3 1  0 221 255
4  221 214 366 222  255 199 0
4  221 333 215 214  255 199 0
4  39 218 329 334  255 199 0
4  327 330 331 332  243 255 0
5  332 331 218 215 333  255 199 0
4  218 331 330 329  255 199 0
4  328 187 178 285  0 255 88
6  4 249 278 357 7 6  0 22 255
3  10 248 11  0 22 255
3  4 5 249  0 22 255
3  160 159 323  0 88 255
4  124 57 58 166  255 66 0
4  166 58 313 355  255 66 0
4  124 166 325 324  0 88 255
3  153 309 154  44 255 0
4  12 14 309 153  44 255 0
4  324 123 160 323  0 88 255
4  159 283 57 124  255 0 0
4  159 124 324 323  0 88 255
4  107 108 310 321  44 0 255
4  109 322 312 110  44 0 255
4  109 107 321 322  44 0 255
4  322 321 310 312  44 0 255
4  320 308 307 373  0 255 221
4  319 318 237 236  0 221 255
4  317 316 79 78  177 255 0
4  253 175 117 119  255 66 0
4  108 110 312 310  44 0 255
4  373 307 51 50  0 255 221
4  50 51 206 340  255 133 0
4  50 48 320 373  0 255 221
4  143 175 371 144  255 66 0
5  51 143 144 167 206  255 133 0
4  308 52 51 307  0 255 221
4  117 306 305 304  255 0 0
4  294 209 189 291  110 0 255
6  303 177 176 271 85 86  0 255 88
4  303 285 178 177  0 255 88
4  294 86 85 209  110 0 255
4  294 29 30 86  110 0 255
4  41 42 30 29  177 0 255
4  328 285 30 42  0 255 88
4  303 86 30 285  0 255 88
4  369 177 178 284  0 255 88
5  130 284 178 187 173  0 255 88
4  369 301 176 177  0 255 88
4  130 302 270 284  0 255 88
4  369 284 270 301  0 255 88
4  367 264 263 365  0 255 22
5  365 263 66 6 7  0 255 22
5  367 8 9 67 264  0 255 22
6  10 9 8 362 277 248  0 22 255
4  367 365 7 8  0 255 22
4  357 278 277 362  0 22 255
4  362 8 7 357  0 22 255
4  351 297 298 5  0 255 22
4  348 300 297 351  0 255 22
4  11 299 300 348  0 255 22
4  5 298 299 11  0 255 22
4  104 103 370 368  243 0 255
5  105 126 54 281 104  0 155 255
4  105 104 368 255  243 0 255
4  150 100 96 155  243 255 0
4  375 309 14 15  44 255 0
4  155 154 309 375  44 255 0
5  155 96 95 103 292  243 255 0
4  15 150 155 375  44 255 0
4  159 113 114 283  255 0 0
3  261 1 260  0 221 255
5  261 74 76 0 1  0 221 255
4  358 74 75 356  177 255 0
4  261 262 75 74  0 221 255
3  229 194 193  255 199 0
3  230 192 195  255 199 0
4  230 229 193 192  255 199 0
4  109 192 193 107  255 199 0
4  46 293 290 45  243 255 0
4  287 233 88 89  177 0 255
5  301 89 88 271 176  0 255 88
4  302 47 83 270  0 255 88
4  46 269 83 47  177 0 255
4  287 89 83 269  177 0 255
4  301 270 83 89  0 255 88
4  300 299 298 297  0 255 22
4  183 273 246 184  255 66 0
6  104 44 45 290 292 103  243 255 0
4  41 29 31 43  177 0 255
4  294 291 31 29  110 0 255
4  103 95 97 101  243 255 0
4  291 267 27 31  110 0 255
5  43 31 27 32 44  177 0 255
4  291 189 188 267  110 0 255
5  289 267 188 24 23  110 0 255
4  289 32 27 267  110 0 255
5  44 32 25 286 45  177 0 255
4  289 23 25 32  110 0 255
4  288 23 24 265  177 0 255
4  287 265 24 233  177 0 255
4  288 286 25 23  177 0 255
5  46 45 286 266 269  177 0 255
4  288 265 266 286  177 0 255
4  287 269 266 265  177 0 255
5  268 232 26 28 33  177 0 255
4  106 203 126 105  255 66 0
7  106 102 314 239 243 208 149  243 255 0
4  106 256 257 102  243 0 255
4  106 105 255 256  243 0 255
4  268 34 35 87  177 0 255
4  283 114 281 282  255 0 199
4  57 283 282 125  255 0 199
4  54 126 203 55  255 66 0
4  54 125 282 281  255 0 199
4  224 225 280 279  255 66 0
4  248 277 278 249  0 22 255
3  276 213 190  255 66 0
4  135 181 37 92  0 255 88
7  274 40 37 93 141 208 243  243 255 0
7  274 241 185 186 364 217 40  255 199 0
6  275 184 355 313 244 360  255 66 0
6  274 243 239 207 240 241  243 255 0
4  190 169 168 171  255 66 0
4  156 99 100 150  243 255 0
6  156 157 13 185 241 240  243 255 0
4  16 156 150 15  44 255 0
4  87 35 85 271  0 255 88
4  268 87 82 232  177 0 255
4  264 67 66 263  0 255 22
3  3 262 259  0 221 255
4  1 3 259 260  0 221 255
4  262 261 260 259  0 221 255
4  101 97 98 102  243 255 0
3  102 98 314  243 255 0
4  102 257 258 101  243 0 255
4  258 257 256 255  243 0 255
4  254 374 371 252  255 66 0
4  170 372 374 254  255 66 0
4  252 371 175 253  255 66 0
4  101 258 370 103  243 0 255
4  370 258 255 368  243 0 255
3  95 96 250  255 0 133
4  97 95 250 251  255 0 133
4  96 100 251 250  255 0 133
4  11 248 249 5  0 22 255
5  58 59 202 244 313  255 66 0
4  58 247 55 59  255 0 66
4  58 57 125 247  255 0 66
3  55 203 201  255 66 0
4  55 247 125 54  255 0 66
3  245 360 244  255 66 0
8  245 244 202 201 203 106 149 141  255 66 0
3  141 149 208  243 255 0
4  59 55 201 202  255 66 0
4  156 240 207 99  243 255 0
5  239 314 98 99 207  243 255 0
3  236 79 80  0 221 255
4  237 78 79 236  0 221 255
3  237 77 78  0 221 255
4  235 226 227 234  255 66 0
4  24 188 28 26  110 0 255
4  26 232 233 24  177 0 255
4  231 228 229 230  255 199 0
4  227 226 225 224  255 66 0
4  34 209 85 35  110 0 255
5  181 180 148 93 37  0 255 88
3  40 92 37  243 255 0
4  222 366 364 186  255 199 0
3  34 268 33  177 0 255
4  87 271 88 82  0 255 88
4  232 82 88 233  177 0 255
3  98 354 99  255 0 133
4  98 97 251 354  255 0 133
4  100 99 354 251  255 0 133
4  340 206 205 342  255 133 0
4  342 205 204 341  255 133 0
4  144 371 374 145  255 66 0
4  145 374 372 146  255 66 0
5  145 205 206 167 144  255 133 0
4  146 204 205 145  255 133 0
6  146 372 170 171 168 147  255 66 0
4  67 339 343 66  110 255 0
4  358 356 21 22  177 255 0
4  211 210 22 21  0 88 255
4  33 189 209 34  110 0 255
4  33 28 188 189  110 0 255
4  182 179 180 181  255 133 0
4  148 180 179 147  255 133 0
4  147 168 169 148  255 66 0
3  124 159 123  0 88 255
3  159 124 123  255 0 0
6  166 124 123 18 19 165  0 88 255
6  124 166 165 19 18 123  255 66 0
3  158 19 18  177 255 0
3  19 158 18  255 66 0
8  164 158 18 20 122 161 162 163  177 255 0
8  158 164 163 162 161 122 20 18  255 66 0
3  123 20 18  0 88 255
3  20 123 18  255 66 0
3  160 123 159  0 88 255
3  123 160 159  255 0 0
4  139 71 70 140  110 255 0
4  152 71 70 151  255 199 0
4  13 139 140 12  110 255 0
4  139 13 12 140  243 255 0
5  157 13 12 150 156  44 255 0
5  13 157 156 150 12  243 255 0
5  155 150 12 153 154  44 255 0
5  150 155 154 153 12  243 255 0
4  151 70 71 152  0 255 22
4  140 70 71 139  255 199 0
6  105 104 44 43 41 127  0 155 255
6  104 105 127 41 43 44  243 255 0
5  106 105 127 141 149  255 66 0
5  105 106 149 141 127  243 255 0
4  148 93 94 129  255 66 0
4  141 93 94 127  243 255 0
8  147 148 129 142 143 144 145 146  255 66 0
8  148 147 146 145 144 143 142 129  255 133 0
4  127 94 93 141  255 66 0
4  129 94 93 148  0 255 88
6  137 138 133 135 134 136  255 199 0
6  138 137 136 134 135 133  255 133 0
4  40 92 84 38  255 199 0
4  135 92 84 133  0 255 88
9  274 40 38 331 332 140 139 185 241  255 199 0
9  40 274 241 185 139 140 332 331 38  243 255 0
5  330 331 39 334 220  255 199 0
5  331 330 220 334 39  243 255 0
4  132 91 84 133  255 199 0
4  39 91 84 38  243 255 0
7  196 132 133 138 346 191 315  255 199 0
7  132 196 315 191 346 138 133  255 133 0
3  331 38 39  255 199 0
3  331 39 38  243 255 0
4  133 84 91 132  0 255 88
4  133 84 92 135  255 199 0
10  148 129 128 53 49 132 133 135 181 180  255 133 0
10  129 148 180 181 135 133 132 49 53 128  0 255 88
4  131 49 53 130  0 255 221
4  49 131 130 53  0 255 88
4  105 127 54 126  0 155 255
4  127 105 126 54  255 66 0
4  125 54 56 57  255 0 199
4  54 125 57 56  255 0 66
9  124 57 115 116 63 121 122 20 123  255 0 0
9  57 124 123 20 122 121 63 116 115  255 66 0
3  120 63 64  0 255 155
3  63 120 64  255 66 0
3  65 120 64  0 255 155
3  120 65 64  255 66 0
7  118 65 64 112 306 117 119  255 0 0
7  65 118 119 117 306 112 64  255 66 0
4  345 112 116 127  0 155 255
4  112 345 127 116  255 66 0
4  54 127 115 56  0 155 255
4  127 54 56 115  255 66 0
3  127 115 116  255 66 0
3  57 115 56  255 66 0
4  63 116 112 64  255 0 0
3  127 116 115  0 155 255
3  57 56 115  255 0 0
4  57 56 114 283  255 0 199
4  54 56 114 281  0 155 255
4  57 283 114 56  255 0 0
4  281 114 56 54  255 0 199
4  116 63 64 112  255 66 0
7  116 112 111 113 114 56 115  0 155 255
7  112 116 115 56 114 113 111  255 0 0
4  110 108 107 109  44 0 255
4  108 110 109 107  255 199 0
6  106 102 101 103 104 105  243 0 255
6  102 106 105 104 103 101  243 255 0
6  100 96 95 97 98 99  255 0 133
6  96 100 99 98 97 95  243 255 0
4  91 39 38 84  255 199 0
4  92 40 38 84  243 255 0
4  30 86 85 35  0 255 88
4  86 30 35 85  110 0 255
7  42 30 35 87 82 83 47  0 255 88
7  30 42 47 83 82 87 35  177 0 255
6  94 42 47 36 37 93  0 255 88
6  42 94 93 37 36 47  243 255 0
4  92 37 36 84  0 255 88
4  37 92 84 36  243 255 0
3  91 84 36  0 255 88
3  84 91 36  243 255 0
3  90 36 47  0 255 88
3  36 90 47  243 255 0
4  89 83 82 88  0 255 88
4  83 89 88 82  177 0 255
8  81 75 74 76 77 78 79 80  177 255 0
8  75 81 80 79 78 77 76 74  0 221 255
8  73 67 66 68 69 70 71 72  110 255 0
8  67 73 72 71 70 69 68 66  0 255 22
6  65 61 60 62 63 64  255 0 0
6  61 65 64 63 62 60  0 255 155
6  59 55 54 56 57 58  255 0 66
6  55 59 58 57 56 54  255 66 0
6  53 49 48 50 51 52  0 255 221
6  49 53 52 51 50 48  255 133 0
7  47 42 41 43 44 45 46  177 0 255
7  42 47 46 45 44 43 41  243 255 0
8  35 30 29 31 27 28 33 34  110 0 255
8  30 35 34 33 28 27 31 29  177 0 255
5  26 28 27 32 25  110 0 255
5  28 26 25 32 27  177 0 255
4  26 24 23 25  177 0 255
4  24 26 25 23  110 0 255
5  22 19 18 20 21  0 88 255
5  19 22 21 20 18  177 255 0
6  17 13 12 14 15 16  110 255 0
6  13 17 16 15 14 12  44 255 0
8  11 5 4 6 7 8 9 10  0 22 255
8  5 11 10 9 8 7 6 4  0 255 22

