OFF
346 293 0

14.5981 -34.0207 -14.235
1.93906 -42.8685 -16.6845
-8.623 -42.8685 -23.4748
12.6034 31.8308 -10.6877
12.6034 -34.0207 -10.6877
12.8337 -34.0207 -11.0973
2.16942 -34.0207 -17.0941
17.0178 -42.8685 7.44463
15.9219 -42.8685 9.60258
12.3376 42.8685 -10.8371
12.3376 39.7157 -10.8371
12.2393 42.8685 -10.6622
13.456 -42.8685 -10.7474
12.6034 -42.8685 -10.6877
6.84029 -42.8685 -13.9284
7.07063 -42.8685 -14.3381
25.6081 -42.8685 -3.37487
25.4264 -42.8685 -4.01614
-14.086 -42.8685 -22.149
-13.4861 -42.8685 -19.8095
20.5674 -42.8685 8.09689
28.1607 -42.8685 5.63575
12.3376 31.8308 -10.8371
4.36275 42.8685 -8.90079
5.07111 42.8685 -10.1605
5.07111 39.7157 -10.1605
-9.68015 -42.8685 -23.2183
-9.01036 -42.8685 -23.3808
29.8555 -34.0207 -5.6553
27.8553 -34.0207 -5.15971
29.8555 -42.8685 -5.6553
27.8553 -42.8685 -5.15971
36.4153 -42.8685 -1.42281
32.0484 -34.0207 -0.494071
32.0484 -42.8685 -0.494071
36.4153 -34.0207 -1.42281
-17.3297 31.8308 -11.8687
-0.875105 -42.8685 -5.81999
0.109671 -42.8685 -2.06272
0.109671 -34.0207 -2.06272
13.8529 -42.8685 -10.7752
19.9871 -42.8685 -11.2046
13.8529 -34.0207 -10.7752
19.9871 -34.0207 -11.2046
9.02333 -42.8685 2.94937
7.4812 -42.8685 -10.3292
4.70709 -42.8685 -10.135
5.72177 42.8685 -11.3175
-19.567 -42.8685 -7.89004
-19.8527 -34.0207 -7.38198
-17.3297 -42.8685 -11.8687
-17.3297 -34.0207 -11.8687
15.9218 -42.8685 9.60281
14.7653 -42.8685 11.8799
3.93385 -42.8685 -20.2318
2.29001 -42.8685 -17.3086
2.29001 -34.0207 -17.3086
3.93385 -34.0207 -20.2318
8.83505 -42.8685 -17.4757
7.18556 -42.8685 -14.5424
8.83505 -34.0207 -17.4757
25.3523 -34.0207 -4.27756
25.3523 -42.8685 -4.27756
24.0348 -42.8685 -8.92846
24.0348 -34.0207 -8.92846
9.02333 -34.0207 2.94937
7.35844 -34.0207 3.3829
7.35844 -42.8685 3.3829
6.93693 -34.0207 1.7762
6.93693 -42.8685 1.7762
6.69091 39.7157 -13.6628
6.69091 31.8308 -13.6628
12.1883 39.7157 -10.5715
12.1883 42.8685 -10.5715
10.9548 42.8685 -8.37786
12.0504 42.8685 -10.649
12.0504 39.7157 -10.649
12.454 39.7157 -10.4221
12.454 42.8685 -10.4221
-10.9551 -42.8685 -9.93922
0.553628 -42.8685 -14.2208
26.7438 -42.8685 0.63408
26.7438 -34.0207 0.63408
33.1238 -34.0207 4.43055
33.1238 -42.8685 4.43055
31.7882 -42.8685 -0.43874
26.7438 -42.8685 0.634063
26.7438 -34.0207 0.634063
31.7882 -34.0207 -0.43874
29.5963 -34.0207 10.7035
29.5963 -42.8685 10.7035
26.0386 -42.8685 -1.85514
10.4206 -34.0207 20.4347
10.4206 -42.8685 20.4347
5.72177 39.7157 -11.3175
6.95659 39.7157 -13.5134
6.95659 42.8685 -13.5134
-23.3133 -34.0207 -31.7754
-23.3133 -42.8685 -31.7754
7.4812 39.7157 -10.3292
-23.7397 -42.8685 -31.6635
-23.7397 -34.0207 -31.6635
4.70709 39.7157 -10.135
34.8833 -34.0207 1.3017
34.966 -34.0207 1.15452
34.966 -42.8685 1.15452
26.8921 -42.8685 -3.40757
9.59447 42.8685 -5.95877
9.59447 39.7157 -5.95877
-24.792 -42.8685 -31.3874
-24.792 -34.0207 -31.3874
-37.1788 -34.0207 -4.9665
-37.1788 -42.8685 -4.9665
-20.2528 -42.8685 -7.7762
-20.2528 -34.0207 -7.7762
15.9219 31.8308 9.60258
17.0178 31.8308 7.44463
15.9219 -34.0207 9.60258
-8.08908 -42.8685 -10.7629
6.0809 -42.8685 -1.48677
2.36173 -42.8685 -0.796404
13.7756 -42.8685 -2.91509
24.3956 -42.8685 1.13345
14.8189 -42.8685 3.17014
15.3953 -42.8685 6.5323
13.0398 -42.8685 -7.20657
-0.0995829 -42.8685 -13.0592
-4.74746 -42.8685 -4.79385
0.153826 -42.8685 -2.03789
5.45603 -42.8685 -11.4668
-17.2571 -42.8685 -11.8279
19.0516 -42.8685 8.58819
-4.50569 -34.0207 -4.65791
-6.05742 -34.0207 -4.16122
-6.05742 -42.8685 -4.16122
-4.50569 -42.8685 -4.65791
-19.567 -34.0207 -7.89004
-6.56696 -34.0207 -5.81695
-6.56696 -42.8685 -5.81695
-19.8527 -42.8685 -7.38198
11.2944 -42.8685 24.9642
11.2944 -34.0207 24.9642
11.7919 -34.0207 25.2441
11.7919 -42.8685 25.2441
7.35844 31.8308 3.3829
9.02333 31.8308 2.94937
6.93693 31.8308 1.7762
8.6551 -42.8685 13.2805
0.128147 -34.0207 -1.99223
0.530655 -34.0207 -0.456512
0.530655 31.8308 -0.456512
2.36173 -34.0207 -0.796404
12.6034 39.7157 -10.6877
-3.88023 -42.8685 -24.6259
-3.88023 -34.0207 -24.6259
12.6034 39.7157 -10.6877
6.84029 39.7157 -13.9284
0.128147 -42.8685 -1.99223
-14.086 31.8308 -22.149
6.69091 42.8685 -13.6628
0.530655 -42.8685 -0.456512
-13.4861 -34.0207 -19.8095
-10.7494 -42.8685 -24.6763
-17.5452 -42.8685 -12.5911
9.71074 39.7157 -5.54379
-20.5608 -42.8685 -20.5775
-25.0894 -42.8685 1.9306
-17.2571 -34.0207 -11.8279
-25.0894 -34.0207 1.9306
-9.01036 31.8308 -23.3808
-25.7972 -34.0207 2.15715
7.18556 -34.0207 -14.5424
-4.50569 31.8308 -4.65791
8.6551 -34.0207 13.2805
0.128147 31.8308 -1.99223
9.8601 39.7157 -5.8094
4.09708 42.8685 -9.05018
2.36173 31.8308 -0.796404
4.09708 39.7157 -9.05018
25.3523 31.8308 -4.27756
33.7143 -34.0207 -6.61142
-8.623 -34.0207 -23.4748
9.8601 42.8685 -5.8094
5.45603 39.7157 -11.4668
11.2205 39.7157 -8.22858
-20.5608 -34.0207 -20.5775
13.456 -34.0207 -10.7474
25.2192 -42.8685 -0.36469
12.6034 31.8308 -10.6877
28.5358 -42.8685 -6.39743
-11.1154 -42.8685 -24.0254
20.0031 -34.0207 9.12324
19.2615 -42.8685 29.082
26.5751 -42.8685 -2.83107
8.08825 -42.8685 23.1603
7.07063 -34.0207 -14.3381
-16.0586 -34.0207 -8.47244
5.45603 42.8685 -11.4668
-18.7323 -34.0207 -32.9777
-18.7323 -42.8685 -32.9777
16.8293 -42.8685 14.8963
-16.0586 -42.8685 -8.47244
-25.8287 -42.8685 2.13948
15.9218 -34.0207 9.60281
-6.05742 31.8308 -4.16122
-9.12061 -42.8685 -27.5728
-10.8851 -34.0207 -24.435
20.5674 31.8308 8.09689
13.8529 31.8308 -10.7752
-6.56696 31.8308 -5.81695
25.4264 -34.0207 -4.01614
0.153826 -34.0207 -2.03789
15.9217 -34.0207 9.60263
9.71074 42.8685 -5.54379
15.3953 -34.0207 6.5323
11.2205 31.8308 -8.22858
1.70048 31.8308 -13.5765
9.71074 31.8308 -5.54379
3.94769 31.8308 -8.78453
13.7105 31.8308 -3.29461
3.94769 42.8685 -8.78453
4.70709 42.8685 -10.135
4.70709 31.8308 -10.135
13.7756 31.8308 -2.91509
13.0398 31.8308 -7.20657
15.3953 31.8308 6.5323
4.36275 39.7157 -8.90079
0.153826 31.8308 -2.03789
-25.3563 -34.0207 2.40512
5.45603 31.8308 -11.4668
-14.086 -34.0207 -22.149
13.4101 -34.0207 30.9192
13.4101 -42.8685 30.9192
17.0709 -42.8685 32.9775
2.16942 -42.8685 -17.0941
11.2205 42.8685 -8.22858
12.6034 31.8308 -10.6877
8.08825 -34.0207 23.1603
-20.5943 -42.8685 -7.16883
6.84029 -34.0207 -13.9284
20.5674 -34.0207 8.09689
17.0709 -34.0207 32.9775
-12.9027 31.8308 -9.37947
-10.8851 -42.8685 -24.435
15.9217 31.8308 9.60263
3.94769 39.7157 -8.78453
-17.5452 31.8308 -12.5911
25.2192 31.8308 -0.36469
-9.68015 -34.0207 -23.2183
-15.3103 -34.0207 -26.9234
19.1058 -42.8685 29.3589
19.1058 -34.0207 29.3589
12.6034 -34.0207 -10.6877
-1.92273 -42.8685 -9.81707
36.6476 -42.8685 -1.83587
27.9669 -34.0207 13.6012
6.29976 -34.0207 17.4698
8.47303 -34.0207 13.6043
8.47303 -42.8685 13.6043
14.535 -42.8685 1.51415
8.39753 -42.8685 13.3395
11.5695 -42.8685 24.4639
1.70048 -42.8685 -13.5765
11.5695 -34.0207 24.4639
8.39753 -34.0207 13.3395
12.6034 42.8685 -10.6877
16.2537 -42.8685 11.5387
-17.8021 -34.0207 -12.1344
6.84029 42.8685 -13.9284
1.93906 31.8308 -16.6845
14.7653 -34.0207 11.8799
-17.8021 31.8308 -12.1344
-17.2571 31.8308 -11.8279
1.93906 -34.0207 -16.6845
2.16942 31.8308 -17.0941
13.456 31.8308 -10.7474
15.9217 -42.8685 9.60263
25.4264 31.8308 -4.01614
-11.1154 -34.0207 -24.0254
-31.3384 -42.8685 -19.7458
33.7143 -42.8685 -6.61142
-31.3384 -34.0207 -19.7458
25.6081 31.8308 -3.37487
-9.01036 -34.0207 -23.3808
-37.9826 -34.0207 -7.93044
-36.9473 -34.0207 -4.11282
-37.9826 -42.8685 -7.93044
-36.9473 -42.8685 -4.11282
26.8921 -34.0207 -3.40757
36.6476 -34.0207 -1.83587
-15.9968 31.8308 -8.4902
-15.9968 -34.0207 -8.4902
-12.9027 -34.0207 -9.37947
19.0516 31.8308 8.58819
6.84029 31.8308 -13.9284
19.0516 -34.0207 8.58819
37.9832 -42.8685 -4.21095
16.8293 -34.0207 14.8963
-25.8287 -34.0207 2.13948
-12.9027 -42.8685 -9.37947
20.0031 31.8308 9.12324
24.3956 31.8308 1.13345
0.553628 31.8308 -14.2208
26.8015 -34.0207 -3.24287
24.3956 -34.0207 1.13345
6.29976 -42.8685 17.4698
-25.3563 -42.8685 2.40512
27.9669 -42.8685 13.6012
34.8833 -42.8685 1.3017
-15.3103 -42.8685 -26.9234
28.1607 -34.0207 5.63575
-11.8678 31.8308 -22.6873
-25.7972 -42.8685 2.15715
26.0386 31.8308 -1.85514
26.0386 -34.0207 -1.85514
-25.8477 -34.0207 2.1733
-25.8477 -42.8685 2.1733
-15.9968 -42.8685 -8.4902
-9.12061 -34.0207 -27.5728
26.8015 -42.8685 -3.24287
-11.8678 -42.8685 -22.6873
-9.68015 31.8308 -23.2183
-11.8678 -34.0207 -22.6873
-17.8021 -42.8685 -12.1344
28.5358 -34.0207 -6.39743
-17.5452 -34.0207 -12.5911
25.6081 -34.0207 -3.37487
-20.5943 -34.0207 -7.16883
-13.4861 31.8308 -19.8095
-29.1222 -42.8685 -18.4996
26.7438 31.8308 0.634063
-12.504 -42.8685 -21.556
19.2615 -34.0207 29.082
12.6034 42.8685 -10.6877
-10.7494 -34.0207 -24.6763
20.0031 -42.8685 9.12324
0.553628 -34.0207 -14.2208
10.9548 39.7157 -8.37786
-29.1222 -34.0207 -18.4996
5.51597 -34.0207 -14.6731
16.2537 -34.0207 11.5387
37.9832 -34.0207 -4.21095
5.45603 -34.0207 -11.4668
26.5751 -34.0207 -2.83107
-12.504 31.8308 -21.556
1.70048 -34.0207 -13.5765
4  271 36 51 267  255 0 0
4  267 338 185 325  255 0 0
4  206 283 248 278  255 0 0
5  206 249 101 97 334  255 0 0
5  206 278 322 230 249  255 0 0
4  271 246 272 36  255 0 0
4  267 325 246 271  255 0 0
4  303 210 61 288  255 0 0
5  303 88 87 314 343  255 0 0
3  300 293 207  255 0 0
4  191 295 293 300  255 0 0
4  303 343 326 210  255 0 0
5  191 240 310 89 255  255 0 0
4  191 300 207 240  255 0 0
4  267 51 136 114  255 0 0
4  191 255 332 297  255 0 0
4  162 2 153 205  255 0 0
5  162 98 100 309 243  255 0 0
4  334 97 198 318  255 0 0
4  334 181 283 206  255 0 0
4  334 318 154 181  255 0 0
4  162 205 199 98  255 0 0
6  323 329 279 286 112 113  255 0 0
4  323 50 130 163  255 0 0
6  323 113 238 139 48 50  255 0 0
6  267 114 111 284 281 338  255 0 0
6  106 34 32 254 30 31  255 0 0
12  106 62 40 59 55 2 27 234 15 12 17 319  255 0 0
5  288 61 64 324 29  255 0 0
6  288 33 104 103 88 303  255 0 0
6  288 29 28 289 35 33  255 0 0
5  106 31 189 63 62  255 0 0
7  279 329 165 18 309 100 109  255 0 0
4  279 281 284 286  255 0 0
5  243 309 18 320 190  255 0 0
4  243 27 2 162  255 0 0
4  243 190 26 27  255 0 0
4  323 163 165 329  255 0 0
7  335 131 8 276 52 266 200  255 0 0
5  335 307 90 21 20  255 0 0
7  191 297 340 203 212 117 295  255 0 0
4  335 200 192 307  255 0 0
3  131 7 8  255 0 0
3  131 335 20  255 0 0
4  307 192 332 255  255 0 0
3  343 314 326  255 0 0
3  278 248 322  255 0 0
5  344 311 321 269 302  255 0 0
4  344 328 158 311  255 0 0
9  247 301 207 293 116 225 223 219 224  255 0 0
4  247 313 330 301  255 0 0
7  247 224 215 236 188 282 313  255 0 0
7  344 302 216 242 272 246 328  255 0 0
7  338 281 110 101 249 230 185  255 0 0
14  320 331 80 262 129 45 125 187 91 16 13 14 1 26  255 0 0
4  320 18 19 331  255 0 0
4  322 248 321 311  255 0 0
4  282 188 275 277  255 0 0
4  282 326 314 313  255 0 0
4  281 279 109 110  255 0 0
3  189 31 30  255 0 0
4  205 153 154 318  255 0 0
4  189 324 64 63  255 0 0
4  298 315 316 202  255 0 0
6  298 327 49 168 170 315  255 0 0
5  202 238 113 112 287  255 0 0
6  202 316 312 166 139 238  255 0 0
5  298 285 111 114 327  255 0 0
4  298 202 287 285  255 0 0
5  297 263 92 270 340  255 0 0
5  200 261 143 250 192  255 0 0
4  276 8 7 124  255 0 0
5  200 266 53 93 261  255 0 0
4  276 212 203 52  255 0 0
3  266 52 53  255 0 0
3  340 270 203  255 0 0
4  345 342 229 216  255 0 0
4  345 336 273 339  255 0 0
4  339 239 342 345  255 0 0
5  339 273 6 195 239  255 0 0
4  216 302 336 345  255 0 0
8  216 229 222 218 227 172 209 242  255 0 0
5  239 4 3 22 294  255 0 0
5  229 342 239 294 71  255 0 0
4  269 321 169 274  255 0 0
4  273 336 302 269  255 0 0
4  319 17 16 193  255 0 0
6  319 85 308 105 34 106  255 0 0
5  319 193 91 86 85  255 0 0
4  192 250 251 332  255 0 0
5  332 251 142 263 297  255 0 0
4  322 311 158 230  255 0 0
4  283 6 274 169  255 0 0
4  248 283 169 321  255 0 0
5  308 85 86 81 84  255 0 0
5  103 83 82 87 88  255 0 0
4  307 255 89 90  255 0 0
4  308 84 83 103  255 0 0
4  325 161 328 246  255 0 0
4  185 230 161 325  255 0 0
4  328 161 230 158  255 0 0
4  277 210 326 282  255 0 0
4  195 5 4 239  255 0 0
4  195 6 56 171  255 0 0
3  324 28 29  255 0 0
4  189 30 28 324  255 0 0
5  186 5 195 171 42  255 0 0
4  188 3 4 252  255 0 0
4  252 4 5 186  255 0 0
4  188 252 186 275  255 0 0
4  167 51 36 272  255 0 0
5  130 50 48 201 317  255 0 0
5  130 299 79 19 163  255 0 0
3  130 317 299  255 0 0
5  167 291 196 136 51  255 0 0
4  205 318 198 199  255 0 0
4  327 114 136 49  255 0 0
4  291 317 201 196  255 0 0
4  316 315 170 312  255 0 0
4  89 83 84 90  255 0 0
4  89 310 82 83  255 0 0
4  314 87 330 313  255 0 0
4  207 301 304 240  255 0 0
5  240 304 87 82 310  255 0 0
4  87 304 301 330  255 0 0
4  294 22 10 156  255 0 0
6  263 141 237 256 257 92  255 0 0
3  261 140 143  255 0 0
3  263 142 141  255 0 0
3  272 242 290  255 0 0
4  292 137 138 299  255 0 0
4  299 138 118 79  255 0 0
4  292 299 317 291  255 0 0
3  293 115 116  255 0 0
4  295 117 115 293  255 0 0
4  291 167 272 290  255 0 0
4  242 209 137 292  255 0 0
4  242 292 291 290  255 0 0
4  289 28 180 341  255 0 0
4  254 296 280 30  255 0 0
4  254 289 341 296  255 0 0
4  296 341 180 280  255 0 0
4  277 275 208 179  255 0 0
4  285 287 112 111  255 0 0
4  286 284 111 112  255 0 0
4  181 56 6 283  255 0 0
4  28 30 280 180  255 0 0
4  179 208 42 61  255 0 0
4  61 42 43 64  255 0 0
4  61 210 277 179  255 0 0
4  171 56 57 60  255 0 0
5  42 171 60 0 43  255 0 0
4  275 186 42 208  255 0 0
4  6 273 269 274  255 0 0
4  197 47 24 221  255 0 0
6  268 9 11 75 96 159  255 0 0
4  268 156 10 9  255 0 0
4  197 159 96 47  255 0 0
4  197 183 70 159  255 0 0
4  229 71 70 183  255 0 0
4  294 156 70 71  255 0 0
4  268 159 70 156  255 0 0
4  265 9 10 155  255 0 0
5  188 155 10 22 3  255 0 0
4  265 333 11 9  255 0 0
4  188 236 152 155  255 0 0
4  265 155 152 333  255 0 0
4  260 147 173 264  255 0 0
5  264 173 270 92 257  255 0 0
5  260 258 93 53 147  255 0 0
6  261 93 258 305 194 140  255 0 0
4  260 264 257 258  255 0 0
4  256 237 194 305  255 0 0
4  305 258 257 256  255 0 0
4  251 241 231 142  255 0 0
4  250 233 241 251  255 0 0
4  143 232 233 250  255 0 0
4  142 231 232 143  255 0 0
4  227 177 150 174  255 0 0
5  211 39 132 172 227  255 0 0
4  211 227 174 148  255 0 0
4  214 65 145 225  255 0 0
4  244 115 117 212  255 0 0
4  225 116 115 244  255 0 0
5  225 145 146 177 223  255 0 0
4  212 214 225 244  255 0 0
3  166 312 306  255 0 0
4  139 166 168 49  255 0 0
3  104 33 35  255 0 0
3  105 32 34  255 0 0
4  105 104 35 32  255 0 0
4  254 32 35 289  255 0 0
4  215 224 219 217  255 0 0
4  235 74 73 78  255 0 0
5  333 78 73 75 11  255 0 0
5  236 215 184 77 152  255 0 0
4  235 78 77 184  255 0 0
4  333 152 77 78  255 0 0
4  233 232 231 241  255 0 0
4  18 165 163 19  255 0 0
6  227 218 217 219 223 177  255 0 0
4  229 183 102 222  255 0 0
4  197 221 102 183  255 0 0
4  177 146 68 151  255 0 0
4  221 176 178 102  255 0 0
5  222 102 178 245 218  255 0 0
4  221 24 23 176  255 0 0
6  220 176 23 107 182 213  255 0 0
4  220 245 178 176  255 0 0
4  218 245 164 217  255 0 0
4  220 213 164 245  255 0 0
4  235 182 107 74  255 0 0
5  215 217 164 175 184  255 0 0
4  213 182 175 164  255 0 0
4  235 184 175 182  255 0 0
5  99 337 108 226 25  255 0 0
4  128 38 39 211  255 0 0
7  128 120 119 121 125 45 46  255 0 0
4  128 157 160 120  255 0 0
4  128 211 148 157  255 0 0
4  99 94 95 76  255 0 0
3  209 172 204  255 0 0
4  137 209 204 133  255 0 0
4  132 39 38 135  255 0 0
4  132 133 204 172  255 0 0
4  97 98 199 198  255 0 0
4  140 194 237 141  255 0 0
3  190 320 26  255 0 0
3  193 16 91  255 0 0
7  187 122 20 21 81 86 91  255 0 0
6  331 19 79 118 126 80  255 0 0
6  187 125 121 259 123 122  255 0 0
4  26 1 234 27  255 0 0
4  124 44 65 214  255 0 0
6  124 7 131 20 122 123  255 0 0
4  276 124 214 212  255 0 0
4  76 95 96 75  255 0 0
4  99 76 72 337  255 0 0
4  147 53 270 173  255 0 0
3  170 168 228  255 0 0
4  312 170 228 306  255 0 0
4  168 166 306 228  255 0 0
4  151 68 69 120  255 0 0
3  120 69 119  255 0 0
4  120 160 149 151  255 0 0
4  149 160 157 148  255 0 0
4  153 54 57 154  255 0 0
4  2 55 54 153  255 0 0
4  154 57 56 181  255 0 0
4  151 149 150 177  255 0 0
4  150 149 148 174  255 0 0
3  146 145 144  255 0 0
4  68 146 144 66  255 0 0
4  145 65 66 144  255 0 0
4  143 140 141 142  255 0 0
5  138 127 253 126 118  255 0 0
4  138 134 135 127  255 0 0
4  138 137 133 134  255 0 0
3  135 38 37  255 0 0
4  135 134 133 132  255 0 0
3  262 80 126  255 0 0
8  262 126 253 37 38 128 46 129  255 0 0
3  129 46 45  255 0 0
4  127 135 37 253  255 0 0
4  124 123 259 44  255 0 0
5  121 119 69 44 259  255 0 0
4  109 100 101 110  255 0 0
4  107 23 226 108  255 0 0
4  108 337 74 107  255 0 0
4  308 103 104 105  255 0 0
4  101 100 98 97  255 0 0
4  94 47 96 95  255 0 0
4  90 84 81 21  255 0 0
3  94 99 25  255 0 0
4  76 75 73 72  255 0 0
4  337 72 73 74  255 0 0
3  69 67 44  255 0 0
4  69 68 66 67  255 0 0
4  65 44 67 66  255 0 0
4  64 43 41 63  255 0 0
4  63 41 40 62  255 0 0
4  60 57 54 58  255 0 0
4  58 54 55 59  255 0 0
5  58 41 43 0 60  255 0 0
4  59 40 41 58  255 0 0
4  53 52 203 270  255 0 0
4  139 49 136 48  255 0 0
4  196 201 48 136  255 0 0
4  25 24 47 94  255 0 0
4  25 226 23 24  255 0 0
4  17 12 13 16  255 0 0
4  14 13 12 15  255 0 0
4  15 234 1 14  255 0 0

