OFF
1252 1249 0

-8.81164 -7.46413 134.84
-8.36963 -7.02346 134.74
-8.83018 -7.48261 134.844
-9.12699 -7.77851 134.911
-9.1402 -7.77397 136.228
-8.39025 -7.02631 136.058
-8.38137 -7.02508 135.491
-8.3774 -7.02453 135.237
-9.356 -6.50482 135.619
-9.42374 -6.08798 135.085
-9.40189 -6.18993 134.656
-9.3831 -6.27759 134.287
-9.35774 -6.42259 134.282
-9.34478 -6.49672 134.28
-9.24485 -7.06817 134.261
-9.12023 -7.78083 134.238
-9.12209 -7.78019 134.424
-9.05343 -8.2036 134.98
-9.01414 -8.46697 135.688
-9.02001 -8.43513 135.721
-9.04245 -8.31349 135.849
-9.1134 -7.92885 136.253
-9.29734 -6.86585 136.081
-9.35939 -6.50727 136.023
-9.35792 -6.50621 135.848
-9.35719 -6.50568 135.761
-9.12921 -7.00719 120.876
-8.9786 -7.82951 120.128
-0.106412 -0.364313 127.528
-0.0727394 -0.425267 127.599
-0.156686 -0.273305 127.422
-0.288059 -0.0354912 127.145
-0.32 0.0223294 127.077
-0.32 -0.114058 126.97
-0.32 -0.57823 126.605
-0.151213 -0.473813 127.284
-0.130771 -0.423849 127.395
-0.124965 -0.457575 127.389
-2.66875 -2.33269 116.924
-1.68042 -6.80942 116.9
-0.960002 -10.0726 116.883
-0.141409 -13.7805 116.863
-2.87689 -1.38992 116.929
-0.0621334 -12.3003 118.306
-2.11589 -0.969205 119.95
0.0802694 -9.64139 120.899
0.292878 -5.67163 124.77
-1.95504 -0.88028 120.588
30.4183 12.6577 -183.318
30.6869 12.5783 -183.318
30.3864 12.7203 -174.519
30.7012 12.6272 -174.519
19.1031 -27.276 -183.318
17.4508 -26.8872 -183.318
19.1031 -27.276 -174.519
19.1031 -27.276 -173.804
17.4508 -26.8872 -170.583
30.384 12.7249 -173.86
17.1088 -26.2799 -169.645
30.7012 12.6273 -174.491
18.8447 -28.1651 -173.789
18.6151 -28.955 -173.776
32.2225 17.9823 -174.519
32.2644 18.0054 -174.583
-0.405487 -0.0350811 -25.3965
-0.32 -0.269315 26.6011
-0.0845279 -0.414774 25.6277
-0.0824581 -0.418448 26.3105
-0.0893752 -0.406168 24.0286
-0.322922 0.00845748 -53.0179
-0.5618 -0.11751 26.897
-0.830937 -0.259433 116.935
-0.608793 -0.399838 116.934
-0.32 -0.582369 116.933
-2.54742 -1.65853 28.4946
-0.960002 -9.66178 -174.519
-3.38532 -4.3911 -174.519
-4.31732 -2.3657 -174.519
-4.37524 -2.23981 -174.519
-3.66187 -1.83908 -87.5331
-3.17203 -1.56392 -27.8049
-2.70807 -1.30329 28.7671
-2.10387 -1.53939 76.7822
-1.73509 -1.44034 116.929
-0.960002 -3.12496 116.92
-0.960002 -4.86115 39.5133
-0.960002 -0.341515 -25.8793
-0.960002 -0.650701 27.1505
-0.960002 -26.8523 104.084
-0.960002 -26.8523 19.3313
-0.960002 -26.8523 -17.9746
-0.960002 -26.8523 -50.797
-0.960002 -26.8523 -86.2233
-0.960002 -26.8523 -174.519
-0.960002 -25.7829 -174.519
-0.960002 -22.595 -174.519
-0.960002 -0.912935 -174.519
-0.960002 -0.377852 -174.519
-0.960002 -0.352721 -174.519
-0.960002 -0.34554 -79.2711
-0.960002 -0.33751 27.244
-0.960002 -0.950448 116.931
-0.960002 -3.51185 116.918
-0.960002 -13.5429 116.864
-0.960002 -14.0693 116.359
-0.960002 -16.3253 114.193
-0.960002 -24.5614 106.284
-12.8081 30.7192 -183.318
-17.9659 32.2071 -183.318
-12.7736 30.7093 -174.753
-17.9659 32.2071 -174.661
31.9229 17.8161 -183.318
27.1938 19.1802 -183.318
31.9221 17.8163 -174.536
27.1938 19.1802 -174.521
27.1938 19.1802 -175.469
13.9663 -25.8742 -174.519
17.0609 -31.4768 -173.513
-0.324577 -0.00196735 -179.162
1.1324 0.803432 -174.569
1.68596 1.10943 -172.824
17.0995 -26.2634 -167.178
18.0434 -27.9397 -166.833
18.0434 -27.9397 -166.833
17.2501 -30.7955 -172.226
-31.1268 -14.1106 -183.318
-32.1081 -17.5643 -183.318
-30.9331 -13.4291 -183.318
-30.9304 -13.4194 -174.519
-31.1268 -14.1106 -174.519
-32.1079 -17.5635 -174.519
-32.1079 -17.5635 -174.604
14.5665 -26.9618 -183.318
14.5671 -26.962 -174.519
13.9252 -26.7815 -183.318
13.9224 -26.7807 -174.519
1.44251 -23.2707 -183.318
1.44251 -23.2707 -174.519
-13.6 -19.04 -183.318
-13.6 -19.04 -174.519
-26.4008 -15.4398 -183.318
-26.3991 -15.4402 -174.519
-27.635 -15.0927 -183.318
-27.6358 -15.0924 -174.6
-27.6358 -15.0924 -174.519
-11.2678 -10.5513 116.88
-3.02081 -12.9448 116.868
-0.349585 0.00653818 116.936
-0.960002 -0.330748 116.935
-1.98503 -0.897125 116.932
-2.02542 -0.919445 116.932
-10.5859 -5.64953 116.906
-11.8626 -6.35496 116.903
-13.4979 -7.25859 116.898
-16.6369 -8.993 116.889
-15.9784 -9.1841 116.888
-11.5691 -10.4638 116.881
-11.4871 -10.4876 116.881
0.757832 -14.0415 116.862
4.10233 -15.0121 116.857
4.57199 -15.1484 116.856
7.9951 -16.1419 116.85
8.72472 -16.3537 116.849
7.11852 -13.4458 116.865
6.02578 -11.4674 116.875
5.39542 -10.3262 116.881
4.73537 -9.1312 116.888
4.58197 -8.85349 116.889
4.49824 -8.70191 116.89
2.03082 -4.23477 116.914
0.240001 -0.9926 116.931
0.192237 -0.906125 116.932
-0.32 -0.545939 116.933
-0.32 -0.00201672 116.936
-0.32 0.0212504 116.937
-0.324516 -0.00158357 -174.519
17.4358 -32.1556 -174.519
17.0614 -32.0508 -174.519
17.4379 -32.1594 -174.519
16.9133 -32.0081 -174.519
12.8905 -30.8476 -174.519
13.1525 -29.815 -174.519
0.639998 -26.24 -174.519
-14.48 -21.92 -174.519
-27.2329 -18.2763 -174.519
-27.5032 -19.1956 -174.519
-32.1877 -17.8443 -174.519
-32.4385 -17.772 -174.519
-32.4692 -17.7631 -174.519
-32.4299 -17.7414 -174.519
4.26812 -12.9762 118.857
5.11185 -13.1079 118.965
4.25835 -12.9746 118.856
3.53979 -12.8625 118.765
2.82887 -11.288 120.08
3.49804 -10.3983 121.119
3.69295 -10.1392 121.422
4.37978 -10.2338 121.522
5.25517 -10.3545 121.648
5.87615 -11.6661 120.561
5.36231 -12.6354 119.488
-9.92008 -6.05499 121.571
-10.1717 -9.04276 118.633
-11.2292 -8.46573 118.894
-11.2553 -8.45146 118.9
-11.6706 -8.22487 119.002
-11.7485 -7.26354 119.904
-11.8091 -6.51628 120.605
-10.5575 -5.71542 121.721
-9.37017 -5.69151 122.073
-9.23695 -6.41891 121.411
-9.18859 -6.68292 121.171
-8.69119 -6.70964 121.283
-8.15713 -6.99415 121.158
-9.46669 -8.32585 119.516
2.15965 -7.82701 123.217
3.03939 -8.08189 123.216
1.13162 -7.52918 123.218
-0.32 -4.31431 125.903
-0.919874 -2.98579 127.013
-0.932405 -2.95804 127.036
-1.52996 -1.63464 128.141
-0.962296 -1.55871 128.371
-0.718808 -1.52615 128.47
-0.519474 -1.7001 128.358
-0.32 -2.05779 128.07
-0.32 -1.87417 128.246
0.459814 -2.55467 127.809
0.415763 -3.37717 127.007
17.1603 -26.3713 -183.318
32.0967 17.7551 -174.519
32.1626 17.9492 -174.519
32.2278 17.9845 -183.318
16.6849 -25.5271 -57.0898
16.6849 -25.5271 -57.0898
30.1125 13.2576 -98.9347
30.3528 12.7861 -165.26
32.0738 17.6899 -174.397
32.1619 17.9488 -174.425
32.1653 17.9507 -174.883
18.0434 -27.9397 -55.1075
1.68292 1.11483 -78.9788
25.91 14.5 -98.9642
18.8447 -28.1651 -55.1132
18.0434 -27.9397 -55.1075
24.1199 13.511 -97.4875
25.694 14.3806 -98.786
31.6384 17.6649 -103.69
30.8233 13.0475 -98.9297
29.822 9.60252 -95.267
19.1031 -27.276 -56.0584
17.1784 -26.4035 0.670438
18.0434 -27.9397 -166.833
18.6151 -28.955 -174.519
19.7614 -30.9906 -183.318
18.6151 -28.955 -183.318
18.0434 -27.9397 -183.318
1.6863 1.10883 -183.318
1.68602 1.10933 -174.568
1.68113 1.11802 -23.5801
1.67956 1.12081 24.9441
5.57158 -5.79103 18.8485
7.73718 -9.63691 15.4569
7.95928 -10.0313 15.109
10.8395 -15.1464 10.5981
18.6151 -28.955 -1.57971
18.6151 -28.955 -54.2734
18.6151 -28.955 -168.331
18.8861 -29.4362 -174.519
19.7614 -30.9906 -176.918
-18.3525 30.8467 -174.519
-19.5458 26.6469 -183.318
-18.3525 30.8467 -183.318
-18.0168 32.0283 -183.318
-18.0166 32.0289 -174.519
-18.0277 31.9899 -174.519
-18.3525 30.8467 -172.009
-19.5447 26.6508 -163.831
-19.5453 26.6487 -174.519
17.4373 -32.1592 -183.318
-0.321876 0.0150445 26.688
-0.32 0.011648 26.685
17.0609 -31.4768 -173.513
17.0633 -31.4681 -51.3691
-0.320692 0.0225011 116.915
-0.322559 0.0107461 -25.3243
-0.323241 0.00644878 -77.3239
-0.324517 -0.00158786 -174.571
-0.324632 -0.00231081 -183.318
5.08452 -9.79526 -183.318
14.0957 -26.1095 -183.318
16.7027 -30.8293 -183.318
17.4379 -32.1594 -174.524
17.0609 -31.4767 -172.231
17.4465 -32.1619 -50.797
17.45 -32.1629 -1.32972
16.1813 -29.8657 0.670438
12.1002 -22.4765 7.10431
11.8697 -22.0591 7.46779
7.76512 -14.6274 13.9387
6.60121 -12.52 15.7736
4.8054 -9.26845 18.6047
4.04104 -7.88449 19.8097
0.240001 -1.0023 25.8021
-0.32 0.0212482 116.916
-0.304706 -0.00643942 116.936
1.53 -3.3278 119.401
0.643372 -1.72274 118.21
0.194283 -0.909759 117.607
-0.0873675 -0.399887 117.228
-18.0166 32.029 -173.37
-18.0152 32.0338 -103.735
-18.0166 32.0289 -174.053
-18.0166 32.0289 -174.313
-14.3807 25.4453 -183.318
-14.3034 25.3054 -183.318
-11.3588 19.9839 -93.7979
-14.0538 24.8627 -97.8211
-14.3671 25.4298 -98.2887
-32.4692 -17.7631 -174.605
-32.4684 -17.7633 -183.318
-31.2959 -17.1155 -183.318
-26.0396 -14.2111 -183.318
-9.29794 -4.96051 -183.318
25.6915 14.3729 -183.318
32.2641 18.0046 -183.318
32.2643 18.0053 -176.076
32.2644 18.0054 -175.024
31.9221 17.8163 -174.519
31.9221 17.8163 -174.055
31.9192 17.8172 -141.628
-30.9929 -16.9382 -52.0239
-31.3076 -17.1121 -52.2979
-32.1048 -17.5526 -52.9919
-32.1079 -17.5634 -173.813
-32.1079 -17.5634 -173.892
-0.967629 -1.30901 128.609
-1.07001 -1.28315 128.207
-1.05029 -1.33361 128.237
0.425913 -0.607881 129.219
0.414773 -0.640011 129.154
0.260191 -0.636988 129.595
0.142853 -0.815393 129.391
0.309903 -0.188552 129.138
0.141018 -0.29303 128.459
-0.320535 0.0234907 128.89
0.10676 0.259593 128.893
0.140467 -0.207595 128.524
0.14159 -0.381694 128.391
3.18866 -11.7376 134.896
3.55573 -12.5327 135.011
-11.6458 -6.66941 134.863
-11.6517 -6.59531 134.944
-11.4544 -6.46936 135.145
-1.45533 -0.603543 128.883
-1.01566 -2.77681 127.049
-1.2825 -2.19464 127.15
5.16609 -10.4892 136.418
4.55228 -10.4024 136.109
5.57818 -11.3881 136.985
5.69692 -11.6382 136.745
5.56762 -11.3442 136.024
-10.62 -5.93682 135.995
-11.184 -6.29678 135.42
-10.1969 -6.05874 135.992
-9.84852 -6.24415 135.896
-11.188 -6.29934 135.416
-10.9822 -6.1582 134.854
-11.1913 -6.30162 135.425
-11.4506 -6.47942 136.134
2.99752 -10.189 135.969
2.81484 -10.1568 135.236
3.23468 -11.0184 136.098
3.76567 -10.2912 135.714
2.43835 -10.1036 135.047
3.00711 -11.3223 135.821
-1.1795 -0.635156 127.887
-0.960002 -0.704263 128.017
-0.660296 -0.798622 128.195
-0.508354 -0.84646 128.285
-1.72115 -1.21122 128.494
-1.05312 -1.23441 128.657
-1.6704 -1.35691 126.916
-1.76288 -1.16656 126.443
-10.5343 -5.86416 134.664
-10.4328 -5.91849 134.667
-1.28496 -0.733261 127.88
-1.3569 -0.549235 127.77
-1.19279 -0.458499 128.553
0.0728291 -0.688777 127.907
0.0341344 -0.502206 127.917
0.0265302 -0.465542 127.919
-0.100137 0.145201 127.951
-0.222179 0.0777726 128.033
-0.268297 -0.0711702 128.073
-0.0722058 -0.426192 127.978
0.606212 -0.72703 128.36
0.649042 -0.60084 128.616
0.513776 -0.701056 128.696
0.63895 -0.581057 128.703
5.15746 -10.4829 135.9
4.45771 -10.3863 135.788
5.17017 -10.4865 135.9
5.44553 -11.0665 135.344
0.472747 -1.12026 127.561
0.41123 -1.30151 127.193
0.504459 -1.02683 127.751
0.49321 -1.05997 127.684
4.0885 -7.86955 122.759
4.39251 -8.50992 122.146
-9.10626 -7.86072 134.236
-9.10033 -7.88921 134.134
0.33879 -0.170682 129.254
0.416835 -0.122401 129.568
-0.069774 -0.430412 129.702
0.100491 -0.323296 129.852
0.416168 -0.123154 129.667
3.47228 -12.3223 136.308
3.32689 -12.0225 135.584
4.29071 -10.3579 135.22
3.76507 -10.29 135.597
3.64596 -12.6911 136.69
4.21708 -12.778 136.979
4.66782 -12.8466 137.208
3.33268 -12.0199 136.264
0.448523 -0.542669 129.35
0.51765 -0.343288 129.751
-8.82703 -6.77061 133.975
-8.36402 -7.02269 134.381
-9.79638 -8.43019 136.225
-9.44499 -8.0821 135.98
-9.81143 -8.4451 136.235
-11.5662 -7.16554 138.153
-11.6236 -6.68476 136.85
0.911739 -1.58236 127.449
0.961967 -1.48027 127.678
1.01497 -1.37254 127.92
1.12098 -1.58726 127.318
-8.87895 -6.76457 136.04
-9.20753 -7.41853 136.788
0.184822 -0.492344 128.457
0.767882 -0.862279 128.88
0.766272 -0.861696 129.01
0.43489 -0.65293 129.215
-1.28688 -0.738981 127.866
-1.70383 -1.27543 127.31
-1.63995 -1.41479 127.286
-1.22188 -1.15195 127.707
-9.78721 -8.43672 135.061
-10.0439 -8.69263 135.119
0.148216 -1.40884 127.608
0.350643 -1.19177 127.689
-0.62509 -0.287157 127.337
-0.792747 -0.318646 127.056
-1.91334 -0.856854 125.673
-0.960002 -0.629901 127.202
-1.6539 -1.41853 125.768
-1.66907 -1.42261 124.116
-1.90005 -0.849393 127.293
-1.48387 -1.81167 124.715
-1.30502 -0.520569 127.782
-0.908828 -0.383363 127.908
-0.960002 -0.51047 127.624
0.108343 -0.296599 128.341
0.0396077 -0.487041 127.948
0.31679 -0.604444 128.15
0.734681 -0.781444 128.453
0.618176 -0.535744 128.675
-0.349853 -0.599193 127.233
-0.349778 -0.596651 126.486
-0.481729 -0.511865 126.086
0.857241 -1.05307 128.815
0.553243 -0.810189 129.51
-0.0602953 -0.447574 129.688
0.375997 -0.357395 129.239
0.129548 0.272182 128.863
-0.162882 0.11063 129.257
0.225324 0.0275138 129.009
-0.320547 0.023418 128.01
-0.32 0.0224287 128.011
-0.0706421 0.161507 128.068
0.5238 -1.35995 128.974
0.449128 -1.36993 128.944
-9.72552 -6.30362 135.292
-0.817802 -1.95377 127.593
-0.32 -2.23525 127.801
-0.940236 -2.94136 127.02
-9.87054 -6.23351 136.004
-10.2738 -6.03856 137.984
5.31627 -12.3484 137.281
5.63062 -11.7714 137.172
0.536383 -1.09868 127.683
0.557657 -1.14656 127.638
2.99596 -11.3202 134.836
3.31691 -10.9148 136.551
3.0354 -10.1957 136.121
3.39343 -10.2588 137.556
3.38421 -10.83 136.922
0.83559 -1.00996 128.972
0.757774 -1.24509 129.034
0.728838 -1.33252 129.057
0.534811 -1.15435 129.174
0.311757 0.110462 129.258
0.272981 0.159555 129.281
0.273463 0.160891 129.284
0.618176 -0.535744 128.675
0.279679 0.178112 129.319
5.46644 -11.1106 135.302
5.72303 -11.651 134.784
5.70709 -11.6812 134.745
-9.44112 -8.09169 134.982
32.1938 17.7627 -174.579
32.1872 17.7398 -174.537
5.13951 -12.8041 136.298
5.10427 -12.7615 136.207
5.217 -12.5671 135.568
0.41123 -1.30151 127.193
0.589275 -1.624 125.734
0.30258 -1.62162 126.542
5.4287 -11.0283 135.25
-9.36177 -6.47949 133.506
-9.34274 -6.4659 133.493
0.49147 -1.0651 127.673
0.574653 -1.18481 127.602
0.224156 -0.962794 127.462
0.221443 -0.957976 126.567
0.224156 -0.962794 127.462
-0.32 0.0226475 130.068
-0.32 -1.47281 128.632
-9.80362 -8.4424 135.856
-9.64441 -8.28539 135.693
-10.1878 -8.82125 136.25
-11.3437 -8.206 135.254
-9.6444 -8.28538 135.693
-9.81237 -8.44542 136.281
-9.84259 -8.47422 136.386
-11.5397 -7.73934 135.709
-11.5095 -7.99249 136.396
3.04455 -11.4405 134.179
3.00402 -11.3505 134.266
-10.9187 -8.40742 137.67
-10.7371 -8.51602 136.839
-0.841947 -1.89988 127.644
-0.64868 -1.54583 128.427
-0.32 -1.55352 128.221
-0.32 -1.85418 127.463
5.47188 -12.0452 138.069
5.70163 -11.6489 136.771
0.150823 -1.81297 127.299
0.668688 -1.76763 127.12
-10.5337 -5.86778 134.978
-11.643 -6.59966 135.732
-9.2047 -6.58721 135.752
-9.10644 -6.63915 135.691
-9.2341 -6.5712 135.727
-0.85491 -0.272075 124.955
-0.861108 -0.275343 127.028
-0.671441 -0.395486 127.104
3.07137 -10.0535 121.332
0.3293 0.0693909 129.409
0.512548 -0.336784 129.953
0.186376 0.3036 129.088
-0.320529 0.0235273 129.333
-0.133159 -0.315647 129.794
-11.6027 -7.21154 134.277
-1.69707 -1.43013 121.068
-0.545362 -0.100824 127.739
-1.9218 -0.861607 124.641
-1.38281 -2.05803 123.522
0.240001 -0.163952 116.936
0.240001 -0.936315 116.931
0.240001 -0.938703 117.621
0.240001 -0.489715 117.224
0.240001 -0.192077 116.96
4.91745 -10.4389 134.77
5.40137 -12.2181 136.012
5.52794 -11.9915 135.696
-11.6589 -6.2409 137.328
-10.7792 -5.75487 136.734
-10.5309 -5.88618 136.579
-11.399 -6.45894 137.17
-11.6587 -6.24318 137.328
-4.68967 -3.37143 132.67
-7.14681 -5.1215 134.347
5.17724 -10.4723 134.569
5.72351 -11.6511 134.739
5.33821 -12.3581 134.881
4.56989 -10.3897 134.589
5.46298 -12.1015 136.16
5.11999 -12.7309 136.287
-1.07784 -2.06713 127.356
-1.38905 -1.94777 127.834
-1.03103 -1.91643 127.709
-1.18652 -2.41704 126.535
-10.188 -8.81814 136.497
-10.1179 -8.74866 136.448
-11.4004 -8.15107 137.252
-0.32 -0.58056 127.303
-0.32 -0.583373 128.146
-1.62779 -0.732921 128.98
-1.41793 -0.58288 128.836
-0.320546 0.0234253 128.099
-0.972116 -2.87349 126.957
3.40168 -10.7586 134.203
3.75417 -10.2672 133.453
3.76836 -10.269 133.443
17.2501 -30.7955 -172.226
5.41601 -10.3631 120.311
4.6091 -8.90209 121.758
-5.18364 -3.97039 124.885
-6.77019 -4.82827 123.622
3.12159 -11.1491 134.8
2.72792 -10.7395 134.752
-0.32 -3.06495 126.542
2.21988 -7.55884 122.965
0.234379 -0.981263 127.828
1.14303 -1.64262 127.676
0.471456 -1.04046 127.684
1.54436 -2.51624 128.146
0.857253 -2.10888 128.347
5.71381 -11.6501 135.64
5.17522 -10.4754 134.904
4.02146 -10.3121 134.304
5.29877 -12.4123 135.765
-11.2497 -8.28175 133.203
-10.1847 -8.86347 132.892
-9.75526 -8.42567 133.511
-11.5228 -7.99684 135.083
-11.5117 -8.11662 135.103
-10.9053 -8.44547 135.125
-9.77985 -8.43418 134.704
-10.1504 -8.80122 134.965
-1.14082 -1.10202 128.099
3.76008 -10.2796 134.616
2.43218 -10.0989 134.659
3.7578 -10.2748 134.167
2.98928 -11.3189 134.246
-6.60009 -5.28916 123.227
-8.10278 -4.8538 123.228
-7.70238 -7.80834 134.837
-5.96968 -8.30877 134.825
-9.09335 -7.93603 134.26
-8.42476 -6.48414 133.7
-6.24086 -4.92887 132.206
-7.84939 -6.52209 133.341
-9.37086 -6.33472 134.046
6.04339 -10.4145 116.881
6.13744 -11.2617 116.876
6.55896 -10.4848 116.881
-9.34208 -5.87268 122.447
-9.77291 -6.1385 122.021
-11.4619 -8.08265 140.155
-11.4667 -8.00007 140.415
-11.49 -8.10179 137.307
-11.5544 -7.39237 137.315
5.024 -12.9169 135.848
3.63666 -12.7061 135.12
-9.04207 -7.8077 126.451
-9.08888 -7.50576 125.827
1.86734 -3.93777 126.674
4.04165 -7.87465 122.775
2.03573 -3.54553 126.895
-9.1163 -7.78219 133.846
-9.09482 -7.92617 134.234
6.01231 -11.4428 119.242
-0.18285 -0.121319 127.449
-0.0250634 -0.511632 127.124
-0.104293 0.13283 127.149
0.208749 -0.935441 122.379
0.219452 -0.954443 125.91
1.51216 -3.29484 125.61
-1.57345 -1.59326 125.772
-9.25492 -7.88834 136.253
2.98517 -11.3181 133.883
0.00524299 -0.341099 117.153
0.00524344 -0.367413 125.034
2.46146 -6.48318 121.952
2.34398 -7.00625 122.444
-0.0683851 -0.786252 127.331
-9.00114 -7.82176 122.374
-8.18166 -6.99753 122.726
16.9133 -32.0081 -174.516
3.40788 -10.7084 131.823
2.92643 -10.1257 130.579
-0.692469 -0.182094 127.924
-1.89716 -0.84777 127.645
-1.74911 -1.16504 127.845
2.69604 -5.43869 120.968
-6.24164 -4.90196 134.259
-8.54615 -5.4609 134.484
-2.9823 -1.70132 129.906
-8.35331 -7.02121 133.697
-2.74722 -1.31725 130.507
-2.4277 -1.14071 130.353
-2.42001 -1.13648 130.096
-9.33729 -6.49132 133.386
-6.19232 -4.99612 123.621
-8.29756 -4.38461 123.625
27.5209 20.2269 -177.524
27.5209 20.2269 -176.452
3.5427 -12.8578 119.255
2.83633 -11.2894 120.739
5.10461 -13.0921 120.356
3.57428 -12.8068 124.588
3.70306 -10.1603 123.409
2.89634 -11.301 126.038
5.02844 -12.9265 134.996
4.792 -12.8892 135.003
5.20746 -10.4266 129.558
5.74691 -11.6534 132.566
3.7377 -10.2328 130.216
4.49689 -10.393 135.921
5.16921 -10.4845 135.899
5.70919 -11.6497 136.069
3.6489 -12.6864 137.187
5.01964 -12.9074 136.686
3.05169 -11.4112 136.175
3.01098 -11.323 136.162
3.76684 -10.2937 135.944
-0.907544 -0.947286 125.915
-0.453019 -0.667749 128.236
-1.646 -1.41641 126.628
-1.53318 -1.62775 128.137
-0.515919 -0.870894 128.291
-0.32 -4.3214 125.587
-0.32 -0.921201 128.172
4.58093 -8.85163 116.703
-11.6711 -6.24772 136.106
-10.7718 -5.75082 135.972
-10.5319 -5.87929 135.98
-11.6383 -6.60204 136.165
-27.5032 -19.1956 -174.416
-32.1877 -17.8443 -174.302
-32.3598 -17.7947 -174.298
-0.32 -0.547559 117.419
-0.32 -0.574033 125.348
-0.0762467 -0.419182 125.113
2.45327 -10.115 135.986
3.75386 -10.2666 133.394
-9.14209 -7.77332 136.416
4.77623 -9.20524 116.261
5.38345 -10.3047 114.887
4.59977 -8.88537 120.083
5.40597 -10.3451 118.64
-11.5297 -8.12884 133.285
-11.571 -7.47685 134.997
-9.05622 -7.80283 127.861
-9.24379 -6.92759 131.548
-11.5164 -8.1198 134.629
-11.5298 -7.86366 135.575
-9.63474 -8.38398 127.666
-10.1798 -8.93149 127.483
-9.31164 -6.47281 130.325
-10.5436 -5.80429 129.454
-11.6778 -6.58222 132.569
-11.5808 -7.22254 136.268
-1.72007 -1.4363 118.565
-0.572119 -0.734198 125.591
-0.32 0.0212482 116.916
2.93768 -11.3089 129.689
5.05486 -10.488 137.819
3.61192 -12.7461 130.944
4.81564 -12.8921 135.084
-0.43687 -0.0408585 127.983
-0.907892 -3.11223 122.536
-0.32 0.0223691 127.451
-0.32 -4.3653 123.63
0.145842 -1.04082 127.888
16.9133 -32.0081 -172.234
0.00869702 -0.572684 127.772
3.75315 -7.35237 122.388
3.75822 -7.35578 122.39
2.38726 -4.26658 125.308
1.39861 -2.18161 127.19
-0.266825 0.0167382 127.261
0.152476 -2.06925 127.104
0.390873 -3.45411 126.858
3.12806 -6.93174 122.177
3.50121 -6.89629 122.049
4.51743 -8.7363 120.23
-6.87234 -8.83323 134.965
-4.34964 -9.17639 134.882
-8.47801 -8.62143 135.683
-4.35159 -9.18928 136.205
-5.03518 -9.09628 136.227
-8.87271 -8.4077 119.602
12.8904 -30.8476 -174.457
6.54062 -10.494 118.057
5.41446 -10.3462 118.635
6.51463 -10.5071 119.725
5.59884 -10.3871 120.213
5.41414 -10.3598 120
4.60578 -8.89614 121.162
-1.24596 -2.39166 121.907
-0.320554 0.0233722 127.456
-1.58542 -0.67541 129.047
-1.81958 -0.993228 128.676
17.6661 -32.2201 -174.519
17.7876 -31.8022 -173.727
-8.21972 -7.00278 125.158
-9.03836 -7.80897 126.082
-11.7917 -6.52503 122.193
-11.7387 -7.35136 120.078
-10.5544 -5.73566 123.481
-9.60607 -8.37406 126.276
-9.29596 -8.06265 126.372
-9.25533 -6.43218 123.605
-11.6433 -8.20626 121.77
-10.1785 -8.9489 126.097
32.1872 17.7398 -174.579
3.77535 -10.3115 137.617
2.89703 -11.3011 126.1
3.71062 -10.1762 124.896
3.78299 -10.3275 139.119
4.99427 -12.8523 141.563
4.80958 -12.8311 140.81
5.60868 -11.6398 145.405
5.11752 -10.5626 144.47
3.03209 -11.3271 138.027
3.67276 -12.6479 141.216
3.29309 -10.9508 136.76
4.99853 -12.8615 140.743
3.65314 -12.6795 137.903
3.02247 -11.3253 137.178
5.01817 -12.9042 136.968
3.25261 -11.0044 136.688
5.1765 -12.6207 136.573
3.78967 -7.2157 122.258
1.66632 -3.57379 127.13
1.55545 -2.51736 127.117
2.33884 -4.1944 126.755
1.7023 -3.63893 127.112
0.22389 0.324256 128.136
0.968764 -1.30043 129.154
-27.999 -20.8803 -176.882
-32.7 -19.6472 -176.934
-32.2298 -17.9925 -174.519
-27.5238 -19.2656 -174.519
-28.0002 -20.8799 -183.318
-32.7 -19.6472 -183.318
5.17457 -12.9357 136.319
5.02153 -12.9115 136.323
5.02424 -12.9174 135.801
1.48236 -7.08813 122.738
-11.6298 -6.60629 136.935
-11.545 -6.64886 144.66
-9.27931 -7.02941 137.196
-9.38427 -6.52522 138.992
-10.5179 -5.96934 143.815
1.04955 -1.45123 117.865
0.571885 -0.462119 129.849
0.215146 0.319505 129.202
0.516711 -1.4923 128.845
0.287341 -1.07715 127.802
0.948923 -7.13882 122.92
0.174079 -5.41842 124.549
0.00869702 -0.572684 127.772
-0.32 -4.41721 121.315
-0.19438 -4.69606 121.055
-0.32 -4.42766 120.85
3.75729 -7.35988 122.393
3.56123 -8.23308 123.216
1.67022 -3.61093 127.13
-0.32 -2.36671 119.027
-1.05473 -2.85784 119.65
3.64401 -12.6943 136.362
32.154 17.7385 -174.519
-0.32 -0.584163 117.451
-0.32 -3.47969 120.011
3.77124 -7.38513 122.362
6.67413 -13.3517 119.164
-19.2027 32.2303 -176.594
-19.1969 32.2513 -183.318
-18.4468 32.0732 -174.519
-18.0279 31.989 -174.235
-8.2823 -24.7401 27.549
-7.46628 -24.9755 104.083
0.243097 -14.7258 116.062
-5.8605 -11.3953 117.568
-11.4847 -10.5174 116.853
-8.78758 -4.6554 123.229
-6.507 -5.31613 123.227
-11.4572 -8.07946 140.63
-9.15695 -7.76822 137.896
-9.89897 -8.47538 140.481
-10.1926 -8.75519 141.504
-9.21587 -7.37334 136.835
-13.4862 -7.25201 117.971
-11.8519 -6.34899 117.971
-10.1897 -8.79544 138.303
-9.84683 -8.45734 137.952
-11.4913 -8.1027 137.173
-11.5434 -7.60259 136.539
-9.15035 -7.77048 137.238
-11.5945 -6.62402 140.153
-11.5406 -7.65635 136.34
-10.5261 -5.91656 139.223
1.84373 -12.5978 118.549
-0.832017 -0.260003 117.296
-0.34887 -0.565886 117.442
-0.32 -0.244376 26.6086
-0.747265 -3.51477 120.152
16.9133 -32.0081 -129.488
16.9133 -32.0081 -50.797
12.5584 -32.1595 -176.919
12.8821 -30.8806 -174.519
5.40609 -10.3453 118.659
6.02359 -11.4634 117.26
9.7913 -19.936 113.705
7.37246 -13.9098 76.4421
7.10373 -13.4187 119.218
4.11273 -9.5811 122.074
4.48367 -8.67512 120.748
4.60198 -8.88933 120.48
-14.7631 -8.40644 117.971
-11.5814 -9.32474 117.971
-15.2967 -8.25242 117.971
-13.2157 -7.39882 117.971
-13.1865 -7.39765 119.377
-30.3439 -18.3762 104.08
-19.8077 -10.7506 43.6663
-13.7898 -7.42189 90.2609
-31.0311 -18.178 53.0793
12.5604 -32.1601 -183.318
12.8932 -30.8484 -183.318
13.1553 -29.8158 -183.318
-19.8899 26.747 -174.519
-19.8905 26.7453 -183.318
-20.6402 26.9594 -183.318
-20.6398 26.9607 -176.485
-19.938 26.7608 -174.519
-10.2052 -8.58131 155.333
-9.61549 -8.37732 126.733
2.21839 -9.93601 121.209
-9.26644 -6.44019 124.93
-10.1797 -8.93291 127.369
-11.7536 -6.54415 125.662
-10.5523 -5.74908 124.65
-11.5911 -8.1707 127.058
3.35417 -16.4234 115.294
4.32272 -14.5964 117.317
-9.65202 -7.59807 187.218
-9.78839 -6.81685 187.218
-10.44 -6.46812 187.218
-11.0778 -6.88343 187.218
-10.2343 -8.18039 187.218
7.00638 -11.7775 15.5753
5.88368 -9.40397 17.447
6.14912 -11.693 95.2048
5.3398 -10.2265 107.617
-0.320559 0.0233408 127.076
4.36891 -8.46708 123.215
-1.97504 -0.891518 118.149
4.32653 -8.39037 123.158
4.59404 -8.87511 119.055
4.61521 -8.91304 122.855
-10.633 -5.6752 121.738
-9.78654 -5.21403 34.9347
-1.9937 -0.902 115.873
-2.36957 -1.10874 128.413
18.0712 -32.3335 -174.519
19.1031 -27.276 -165.15
18.8447 -28.1651 -166.834
24.8057 -7.65615 -127.971
-23.2912 -20.4106 -174.519
-14.7268 -22.7276 -174.519
31.9132 12.2157 -183.318
30.7152 12.623 -174.519
31.9232 12.2514 -176.919
2.41945 -4.15034 116.914
1.21014 -1.54949 116.928
27.5209 20.2269 -183.318
-12.4971 31.845 -183.318
-12.4715 31.8375 -176.942
-17.6442 33.3393 -176.867
32.4907 18.784 -177.597
-11.4951 -10.3886 116.973
-21.7794 -20.8467 104.081
-21.1292 -21.0343 41.9667
8.40553 -14.7355 13.2428
21.5087 -11.3677 0.670438
8.14645 -9.68835 15.0174
19.9762 -16.6888 0.670438
1.1981 -1.54528 117.91
2.35824 -1.95076 23.3242
3.01209 -11.3233 136.26
5.15754 -10.5021 137.835
3.63548 -12.708 134.921
5.70203 -11.649 136.735
5.02783 -12.9252 135.113
-32.1817 -17.6043 -173.975
-31.1268 -14.1106 -168.851
-32.4692 -17.7631 -174.295
-31.6185 -13.2945 -183.318
-31.2017 -13.3661 -174.519
-31.6162 -13.286 -175.652
-18.0907 31.7679 -103.452
1.99531 -3.2896 119.248
4.51341 -8.73067 104.584
3.75729 -7.35988 122.393
18.8447 -28.1651 -183.318
-31.7902 -13.924 -175.639
-19.1183 32.5395 -176.601
-18.376 32.3254 -174.519
-18.3954 32.2562 -174.519
-31.3899 -14.0366 -174.519
-31.7902 -13.924 -183.318
-19.1183 32.5395 -183.318
-2.01338 -26.5484 104.084
-1.18476 -26.7875 19.5836
32.4907 18.784 -176.452
26.2953 19.4394 -174.519
4.72345 -6.9511 19.3812
0.204566 0.313756 130.492
1.06576 0.781694 25.4789
-27.2346 -18.2758 -183.318
-27.5049 -19.1951 -183.318
-32.1877 -17.8443 -183.318
-32.1877 -17.8443 54.3773
-32.1877 -17.8443 -52.9907
5.42418 -10.3778 121.673
3.62373 -12.727 132.936
-17.9659 32.2071 -103.918
4.21536 -12.8193 133.019
31.9158 17.8181 -103.918
-18.1439 32.2584 -183.318
-18.1433 32.2583 -174.519
-1.10618 -1.31006 128.201
32.2689 18.0209 -1.70891
12.8854 -30.8462 -158.54
-1.06233 -1.40794 128.109
-0.704329 -1.47939 128.457
17.6647 -32.2248 -174.519
17.4413 -32.1604 -125.679
29.5381 16.5122 0.670438
0.240001 -1.99238 118.552
5.01601 -12.8995 137.384
15.6678 -31.6488 0.670438
5.15854 -11.5954 187.218
0.240001 -3.43371 119.827
5.56545 -12.9831 137.663
4.85968 -10.9526 187.218
-32.1021 -17.543 54.3785
-32.4897 -17.7572 54.7163
-14.7699 -22.8687 -124.959
-14.7699 -22.8687 -174.519
3.94521 -12.2081 187.218
4.7567 -12.3359 187.218
33.3708 17.3984 -183.318
19.283 -32.6916 -183.318
3.63168 -7.9193 122.92
32.1872 17.7398 -183.318
32.1872 17.7398 -174.519
-9.53372 -6.39635 134.351
27.1938 19.1802 -174.519
27.1938 19.1802 -164.707
-10.5361 -5.85234 133.634
11.4766 -30.4398 104.086
5.73407 -17.7221 114.707
-9.54296 -6.39189 134.396
19.3826 10.9014 9.51915
-0.32052 0.0235881 130.068
-12.7726 30.709 -174.519
-10.5382 -5.83901 132.475
-11.6711 -6.58556 133.175
-11.6283 -6.99681 133.694
6.00329 -11.4263 120.827
-10.0291 -6.13471 134.682
-11.6527 -6.5948 134.851
-1.88767 -0.842437 128.802
-10.7265 -5.98971 134.696
11.0966 -20.6483 113.383
-10.2619 -6.01156 134.818
-11.6091 -6.9725 135.74
-11.543 -7.69704 135.755
0.370761 -27.2362 -16.4824
0.370761 -27.2362 -50.797
-12.7721 30.7089 -174.396
-12.7086 30.6905 -158.622
-14.48 -21.92 -183.318
-0.32 -0.611078 125.217
-0.32 -0.615785 126.576
-0.232346 -0.672108 126.841
12.8358 -30.8319 -2.50508
12.8512 -30.8363 -50.797
-9.33847 -6.49217 133.527
0.639998 -26.24 -183.318
-9.521 -8.34464 122.15
-10.1746 -9.00207 121.869
0.370761 -27.2362 -174.271
30.7161 12.6787 -165.257
-0.960002 -0.330713 117.392
-0.960002 -0.953825 117.943
-7.79945 -7.33005 134.877
3.08363 -11.5211 134.373
-19.8891 26.7491 -163.823
-9.13783 -7.92319 134.26
-9.23487 -7.89517 134.261
-30.9026 -13.3217 -85.9234
-9.25569 -7.91501 134.334
19.1031 -27.276 -91.9964
-8.78824 -6.69721 125.034
-8.24384 -7.00611 126.7
-27.5005 -19.1964 -160.668
0.370761 -27.2362 -82.4906
-17.6442 33.3393 -183.318
32.4907 18.784 -183.318
0.827429 -1.75373 127.065
-10.736 -5.73132 132.301
-11.7044 -6.26635 132.771
-7.52155 -8.38454 136.242
0.970767 -1.30467 129.151
0.944053 -1.30374 129.144
-9.81441 -8.44613 136.38
-10.188 -8.81855 136.464
-12.4882 30.627 -103.918
-11.4988 -8.10779 136.415
-0.960002 -2.94188 125.082
-0.960002 -2.99656 122.644
-0.960002 -1.2013 128.224
-0.960002 -0.987854 128.135
-0.960002 -0.980611 125.966
-13.47 -7.24296 119.447
-14.3525 -7.73668 38.9131
-9.48894 -5.04298 122.662
-27.4788 -19.2026 -50.797
-30.2313 -18.4087 -50.797
-0.640548 -3.68207 123.033
-33.2941 -17.5252 -176.919
-32.2472 -13.7955 -176.919
-17.9659 32.2071 -173.368
2.51524 26.2991 -115.92
-7.32468 -5.9817 134.504
-33.2941 -17.5252 -183.318
-32.2472 -13.7955 -183.318
-3.55543 28.0502 -103.918
-9.61856 -5.11461 122.558
-18.0922 32.1657 -174.519
-31.1268 -14.1106 -84.3858
-11.6482 -6.59708 135.264
-11.6838 -6.25485 134.83
0.240001 0.332281 116.497
-10.7563 -5.74238 134.382
0.240001 0.325473 26.1984
-10.5344 -5.86317 134.578
0.240001 -0.620893 25.916
-31.1268 -14.1106 -54.7597
-11.5736 -7.31244 136.171
18.8447 -28.1651 -174.519
-11.8239 -6.33333 120.776
-10.3805 -24.1348 104.083
-12.6549 -6.79874 37.4339
-11.1692 -23.9074 30.7888
-4.3281 -9.03393 120.26
-17.9659 32.2071 -174.519
16.6867 9.41202 11.8681
3.55206 -12.8427 120.836
2.85431 -11.2929 122.327
3.26596 -10.7109 120.986
16.9133 -32.0081 -183.318
16.56 -33.28 -183.318
18.8447 -28.1651 -90.3663
16.56 -33.28 -176.919
16.913 -32.0092 -174.519
32.1842 17.7297 -174.519
-8.16598 -6.99537 121.724
-8.98487 -7.82735 120.753
-6.78108 -7.72719 120.835
-7.42903 -8.60663 119.811
31.1716 14.2458 -174.519
-9.48008 -8.33048 120.166
5.15557 -10.5051 138.161
3.58884 -12.6044 135.022
-32.1877 -17.8443 -173.815
4.32442 -12.8155 135.016
31.9158 17.8181 -103.918
31.9066 17.8208 -1.39326
3.97646 -9.76227 121.863
0.240001 -0.99158 126.525
0.240001 -1.4807 126.675
20.7004 -27.6519 -183.318
0.240001 -4.41207 120.692
17.4574 -32.165 104.087
20.7004 -27.6519 -176.918
-32.4942 -17.7559 104.08
19.4694 -27.3622 -174.519
-32.1008 -17.5385 104.397
-0.304084 -4.46167 120.875
2.03839 -4.24814 120.084
-0.32 -4.42479 120.978
32.2662 18.0117 -104.208
17.6647 -32.2248 -50.797
18.069 -32.3414 -174.519
33.3708 17.3984 -176.919
19.283 -32.6916 -176.918
-0.960002 -0.430967 127.904
17.6647 -32.2248 -1.57072
-31.5981 -15.7696 -52.999
5.6765 -11.6465 139.106
0.74902 -1.91311 126.707
-9.11662 -7.08725 121.023
-27.4782 -19.2028 -47.7099
-10.1723 -9.0338 119.345
-9.79576 -8.43968 135.475
1.65399 -3.45631 127.128
32.2644 18.0054 -174.519
12.8872 -30.8467 -164.275
-10.1866 -8.83806 134.913
18.0434 -27.9397 -90.354
-7.00938 -3.67275 124.665
3.57902 -12.5826 135.043
17.438 -32.1594 -173.271
27.1938 19.1802 -103.918
18.0434 -27.9397 -166.833
-6.52653 -3.81194 124.665
-10.9975 -7.76622 187.218
3.25863 -10.2246 135.961
-17.9659 32.2071 -174.379
3.57604 -10.5535 135.999
17.4503 -32.163 2.6692
0.240001 0.167329 126.167
0.254969 -1.56699 127.861
4.19673 -12.7912 135.414
-9.37372 -6.51761 137.733
0.240001 -0.967284 125.868
-32.1877 -17.8443 104.08
32.1872 17.7398 -103.918
4.69978 -12.874 135.068
-18.0142 32.0374 -53.1899
3.58911 -11.4343 187.218
0.240001 -0.73175 126.444
-8.96445 -8.48128 135.687
32.1872 17.7398 -1.70814
4.02774 -10.8391 187.218
17.6647 -32.2248 -183.318
0.240001 -0.218276 124.808
0.240001 -0.954613 122.211
-7.62279 -7.42344 134.766
0.240001 -0.511582 123.773
3.63616 -12.7069 135.036
-7.8556 -8.54938 134.971
-7.93766 -7.2548 134.755
-6.3687 -8.10898 136.131
10.3173 -30.1054 6.67513
3.41006 -10.1002 121.381
-32.48 -17.76 -53.3185
-2.77966 -1.33536 128.082
-7.66911 -4.56716 123.624
-18.3525 30.8467 -102.475
-10.5282 -5.90314 138.055
-11.5097 -8.11527 135.302
0.370761 -27.2362 -174.519
5  288 315 314 322 323  255 0 0
8  288 289 290 132 256 53 229 257  255 56 0
5  288 323 138 136 289  255 113 0
5  279 291 925 924 1159  255 170 0
6  320 126 125 1006 1134 1133  255 226 0
6  320 1017 1016 1015 321 126  226 255 0
5  320 319 187 186 1017  226 255 0
5  279 1159 179 177 292  255 170 0
6  288 257 324 112 107 315  169 255 0
7  188 992 1245 1019 1173 733 187  113 255 0
3  188 319 189  226 255 0
3  178 292 177  255 170 0
6  178 1211 293 282 117 176  56 255 0
4  188 189 990 992  113 255 0
5  178 177 681 768 1211  56 255 0
3  188 187 319  226 255 0
5  1245 992 990 334 333  113 255 0
4  1245 1043 1018 1019  113 255 0
4  285 280 70 64  0 255 0
5  285 69 286 241 259  0 255 56
5  1219 1182 1071 297 296  56 255 0
3  1219 295 1037  56 255 0
4  1245 333 1042 1043  113 255 0
5  1219 1037 1243 1057 1182  56 255 0
3  1219 296 295  56 255 0
4  320 1133 1128 319  255 226 0
5  280 284 147 71 70  0 255 0
6  280 285 259 260 1014 1143  0 255 56
4  1043 1184 1225 1018  113 255 0
6  1037 1083 1075 90 89 1243  56 255 0
4  1043 1042 1186 1184  113 255 0
6  1042 920 921 153 154 1186  113 255 0
10  333 332 331 80 81 957 1151 1123 920 1042  113 255 0
7  273 1025 1007 872 928 927 272  0 255 113
5  273 314 315 107 108  169 255 0
4  126 321 142 125  255 0 0
5  273 274 1137 1026 1025  0 255 113
8  273 272 271 127 125 142 322 314  255 0 0
4  130 335 990 189  113 255 0
7  333 334 335 991 1138 1146 1197  255 0 0
4  274 313 874 275  255 0 0
4  130 129 991 335  255 0 0
8  1228 311 318 317 316 286 69 285  255 0 0
6  1228 1197 1146 1248 996 311  255 0 0
7  285 64 86 80 331 1197 1228  255 0 0
4  333 1197 331 332  255 0 0
6  279 1234 255 256 132 291  255 56 0
5  279 292 178 1032 1234  255 56 0
5  325 232 48 49 1051  0 255 170
4  1234 1049 254 255  255 56 0
5  1234 1032 1192 1194 1049  255 56 0
7  325 1051 809 511 63 327 326  0 255 170
5  1205 63 511 512 1052  0 255 170
3  1205 62 63  0 255 170
5  1205 1052 1164 866 62  0 255 170
4  178 176 797 1032  255 56 0
4  130 189 1005 129  255 226 0
5  274 275 873 1004 1137  0 255 113
4  1196 1191 294 295  0 255 56
6  295 294 903 1084 1083 1037  56 255 0
9  1034 259 241 245 246 242 247 1175 1176  0 255 226
4  1028 1190 1226 1232  0 255 226
4  1028 1176 1175 1190  0 255 226
4  1196 265 266 1191  0 255 56
5  295 296 251 265 1196  0 255 56
8  1028 1232 265 251 982 980 1034 1176  0 255 226
4  294 1033 902 903  56 255 0
5  294 283 293 1211 1033  56 255 0
5  1191 266 244 283 294  0 255 56
6  1190 1175 247 235 248 1226  0 255 226
6  1061 562 476 561 851 1013  0 226 255
5  1061 795 354 345 562  0 226 255
8  1061 527 528 223 336 381 599 795  0 226 255
6  1186 154 155 919 1225 1184  113 255 0
5  1182 1057 1058 908 1071  56 255 0
6  325 1106 971 112 111 232  0 170 255
4  325 326 975 1106  0 170 255
5  274 273 108 110 1154  169 255 0
5  274 1154 1217 312 313  169 255 0
4  328 231 238 329  0 113 255
3  1024 330 247  169 255 0
4  328 329 1055 1054  169 255 0
4  1154 1062 1077 1217  169 255 0
4  1022 1130 1078 1115  169 255 0
4  311 310 1130 1022  169 255 0
5  1024 1212 1055 329 330  169 255 0
5  1024 247 242 246 1212  169 255 0
5  1022 1115 317 318 311  169 255 0
7  286 316 1135 1212 246 245 241  169 255 0
5  1019 1126 1125 1103 1173  113 255 0
11  1018 922 978 1152 875 1009 89 90 1201 1126 1019  113 255 0
4  1225 919 922 1018  113 255 0
4  186 187 733 732  113 255 0
4  1017 839 838 1016  226 255 0
4  186 732 731 185  113 255 0
5  1017 186 836 835 839  226 255 0
4  1148 253 61 60  0 56 255
4  243 250 1100 1161  0 0 255
8  243 266 265 1232 1226 248 249 250  0 255 226
4  1148 60 55 54  0 56 255
4  243 240 244 266  0 255 226
4  243 1161 1208 240  0 0 255
4  186 185 837 836  226 255 0
4  1026 1137 1004 1003  0 255 113
6  311 996 874 313 312 310  255 0 0
5  1034 1060 1155 260 259  0 255 226
4  280 1143 1141 284  0 255 56
7  296 297 298 299 979 264 251  0 255 56
4  1034 980 981 1060  0 255 226
4  1201 90 91 1125  113 255 0
5  185 964 965 183 184  113 255 0
3  1201 1125 1126  113 255 0
3  185 731 964  113 255 0
5  1169 1164 1052 512 809  0 255 170
5  1169 51 50 230 866  0 255 170
5  62 231 239 327 63  0 255 170
4  60 962 961 55  0 0 255
3  1169 866 1164  0 255 170
3  329 238 330  0 113 255
3  62 238 231  0 255 170
4  62 866 237 238  0 255 170
4  1161 962 1213 1208  0 0 255
4  1161 1100 961 962  0 0 255
4  108 1105 974 110  56 0 255
6  111 324 257 229 48 232  0 113 255
4  328 113 239 231  0 113 255
3  111 112 324  169 255 0
4  108 107 972 1105  56 0 255
4  1154 110 109 1062  169 255 0
4  328 1054 114 113  169 255 0
4  1151 957 151 152  113 255 0
4  1152 978 977 1150  113 255 0
4  1149 956 208 207  0 226 255
4  1149 1122 887 888  0 226 255
5  1150 977 156 157 879  113 255 0
4  1150 876 875 1152  113 255 0
5  1149 888 152 151 956  0 226 255
5  1151 152 153 921 1123  113 255 0
7  1150 879 145 146 104 105 876  113 255 0
6  1149 207 206 205 918 1122  0 226 255
5  1148 54 1185 268 253  0 56 255
4  1032 797 960 1192  255 56 0
5  129 128 1098 1138 991  255 0 0
6  1146 1138 1098 277 276 1248  255 0 0
4  129 1005 994 128  255 226 0
4  316 317 1115 1135  169 255 0
4  1135 1115 1078 1131  169 255 0
4  1135 1131 1055 1212  169 255 0
4  1130 1217 1077 1078  169 255 0
4  310 312 1217 1130  169 255 0
6  1131 1078 1077 1011 1054 1055  169 255 0
5  1125 91 92 1044 1103  113 255 0
4  205 915 914 918  0 226 255
3  1123 921 920  113 255 0
4  1122 918 917 887  0 226 255
4  142 321 1015 140  226 255 0
3  132 290 134  255 113 0
4  132 134 925 291  255 170 0
3  142 140 322  255 113 0
4  276 874 996 1248  255 0 0
3  276 277 1095  0 255 113
5  1011 1062 109 115 114  169 255 0
3  1011 1077 1062  169 255 0
4  184 183 139 141  113 255 0
4  181 182 1251 180  56 255 0
4  1084 903 902 1029  56 255 0
4  1084 1076 1075 1083  56 255 0
4  180 1251 1089 786  56 255 0
4  180 179 1163 905  255 170 0
4  180 786 681 179  56 255 0
7  1084 1029 1206 786 1089 1104 1076  56 255 0
4  182 94 93 1251  56 255 0
4  182 181 135 137  56 255 0
4  1076 91 90 1075  56 255 0
5  1251 93 92 1104 1089  56 255 0
4  1076 1104 92 91  56 255 0
4  205 206 802 807  113 0 255
6  1071 162 163 909 298 297  56 255 0
6  1215 944 943 942 941 945  113 0 255
6  205 204 203 202 976 915  0 226 255
4  1071 908 161 162  56 255 0
5  1215 882 652 845 944  113 0 255
5  1215 945 931 885 882  113 0 255
5  205 807 808 1088 204  113 0 255
8  1069 959 44 47 567 454 458 685  0 226 255
4  1069 795 599 796  0 226 255
4  1058 939 159 160  56 255 0
16  1069 796 380 221 220 219 218 46 45 1153 1167 213 881 696 609 959  0 226 255
4  1058 160 161 908  56 255 0
4  250 249 963 1100  0 0 255
3  1100 963 961  0 0 255
6  330 238 237 236 235 247  0 113 255
4  140 138 323 322  255 113 0
4  141 139 138 140  255 113 0
4  184 141 140 1015  226 255 0
4  1106 975 698 971  0 170 255
4  1105 972 973 974  56 0 255
4  1103 731 732 1173  113 255 0
5  1103 1044 1045 964 731  113 255 0
4  55 59 51 54  169 0 255
5  55 961 963 1090 59  0 0 255
3  237 57 236  0 113 255
4  1090 963 249 248  0 0 255
4  59 1090 236 57  0 0 255
4  270 275 874 276  255 0 0
5  270 926 930 873 275  0 255 113
4  276 1095 926 270  0 255 113
4  128 278 277 1098  255 0 0
4  278 128 127 271  255 0 0
4  277 278 926 1095  0 255 113
4  134 136 137 135  255 113 0
4  181 925 134 135  255 170 0
4  1090 248 235 236  0 0 255
4  786 1206 768 681  56 255 0
4  136 138 1079 1086  226 0 255
4  136 134 290 289  255 113 0
5  1086 1079 183 94 182  226 0 255
4  182 137 136 1086  226 0 255
4  139 183 1079 138  226 0 255
4  81 100 87 74  255 0 226
6  81 958 150 42 151 957  113 255 0
7  1069 685 387 388 600 354 795  0 226 255
4  81 74 82 958  113 255 0
4  300 299 909 948  56 255 0
4  300 301 947 946  0 255 56
4  1066 910 870 199  0 226 255
4  1066 1020 607 664  0 226 255
5  940 193 192 190 191  0 226 255
3  940 160 159  0 226 255
6  1066 664 907 164 163 910  0 226 255
4  300 948 949 301  56 255 0
5  940 191 870 161 160  0 226 255
4  1066 199 198 1020  0 226 255
4  107 112 115 109  169 255 0
6  1061 1013 560 415 563 527  0 226 255
4  300 946 979 299  0 255 56
5  1060 981 262 261 1155  0 255 226
5  1057 88 106 939 1058  56 255 0
3  1054 1011 114  169 255 0
4  1051 49 966 1048  0 255 170
4  1051 1048 1193 809  0 255 170
4  1049 1194 269 254  255 56 0
4  1048 966 968 1193  0 255 170
4  1047 1038 816 814  255 0 169
6  1046 1229 1233 1041 1038 1047  255 0 169
4  191 200 199 870  0 226 255
4  193 194 701 700  255 0 169
5  193 940 159 158 897  0 226 255
4  1046 819 818 1229  255 0 169
3  191 702 200  255 0 169
5  1047 814 815 819 1046  255 0 169
3  193 700 192  255 0 169
5  191 190 1156 703 702  255 0 169
5  933 194 897 43 45  0 226 255
4  933 217 215 558  0 226 255
4  1020 955 608 607  0 226 255
5  933 558 1244 195 194  0 226 255
5  1020 198 197 911 955  0 226 255
5  1045 93 94 183 965  113 255 0
4  1044 92 93 1045  113 255 0
3  1045 965 964  113 255 0
4  60 61 267 962  0 0 255
4  798 61 253 797  255 56 0
3  798 267 61  255 56 0
5  962 267 123 252 1213  0 0 255
4  798 124 123 267  255 56 0
4  606 252 123 124  0 255 56
5  283 244 252 606 293  0 255 56
5  1213 252 244 240 1208  0 0 255
4  1041 1233 813 817  255 0 169
6  199 200 702 706 586 709  255 0 169
6  198 708 710 812 704 197  255 0 169
4  1041 817 816 1038  255 0 169
4  199 709 708 198  255 0 169
4  1243 89 88 1057  56 255 0
5  202 878 145 157 976  0 226 255
3  202 203 1202  113 0 255
3  976 157 156  0 226 255
3  194 193 897  0 226 255
3  196 197 704  255 0 169
6  196 1244 558 215 216 1177  0 226 255
3  196 195 1244  0 226 255
6  1229 818 820 497 813 1233  255 0 169
6  196 704 705 1157 1158 195  255 0 169
4  194 195 1158 701  255 0 169
4  1206 1029 902 768  56 255 0
4  1211 768 902 1033  56 255 0
3  809 512 511  0 255 170
3  1169 967 51  0 255 170
5  1194 1192 960 268 269  255 56 0
5  1193 968 967 1169 809  0 255 170
4  1180 254 269 1183  0 56 255
5  52 1000 255 254 1180  0 56 255
5  52 49 48 229 53  169 0 255
4  54 51 49 52  169 0 255
4  1183 269 268 1185  0 56 255
5  1185 54 52 1180 1183  0 56 255
3  1173 732 733  113 255 0
3  334 990 335  113 255 0
5  1026 1003 1002 1007 1025  0 255 113
4  301 302 1012 947  0 255 56
3  981 263 262  0 255 226
6  301 949 740 726 998 302  56 255 0
5  1016 838 834 837 185  226 255 0
4  185 184 1015 1016  226 255 0
5  1014 260 261 1012 984  0 255 56
4  947 262 263 946  0 255 56
3  949 741 740  56 255 0
4  1014 984 1145 1143  0 255 56
4  947 1012 261 262  0 255 56
6  1013 851 506 559 416 560  0 226 255
6  302 303 67 1145 984 1012  0 255 56
6  954 779 778 687 168 167  0 226 255
5  954 166 165 743 742  0 226 255
5  302 998 169 170 303  56 255 0
3  954 167 166  0 226 255
4  125 127 993 1006  255 226 0
4  1010 975 326 327  0 170 255
4  1010 699 698 975  0 170 255
6  327 239 113 114 699 1010  0 170 255
4  939 877 158 159  56 255 0
4  1008 876 105 106  113 255 0
4  1008 88 89 1009  113 255 0
4  1009 875 876 1008  113 255 0
3  1008 106 88  113 255 0
4  939 106 105 877  56 255 0
4  1006 1001 1129 1134  255 226 0
4  1007 1002 871 872  0 255 113
4  1006 993 995 1001  255 226 0
4  1005 1001 995 994  255 226 0
7  1004 873 930 929 871 1002 1003  0 255 113
3  272 927 271  0 255 113
4  1000 52 53 256  0 56 255
3  1000 256 255  0 56 255
5  953 409 608 955 951  0 226 255
3  953 408 409  0 226 255
5  284 1141 569 305 304  0 255 56
3  953 660 408  0 226 255
4  912 409 408 827  0 226 255
4  912 779 742 913  0 226 255
3  999 770 869  0 226 255
5  827 408 661 829 772  0 226 255
5  912 869 770 778 779  0 226 255
3  999 771 770  0 226 255
5  999 869 912 827 771  0 226 255
4  997 983 970 969  0 255 56
5  306 307 849 983 997  0 255 56
4  998 726 168 169  56 255 0
5  306 169 168 687 1188  0 226 255
4  306 997 969 169  0 255 56
5  995 993 127 128 994  255 226 0
4  924 923 1160 1159  255 170 0
5  180 905 904 923 924  255 170 0
4  278 271 927 926  0 255 113
3  988 713 588  255 0 169
3  988 547 360  255 0 169
4  989 706 707 762  255 0 169
4  989 842 514 515  255 0 169
3  986 1171 760  255 0 169
3  986 357 359  255 0 169
6  987 1021 538 1094 350 1172  255 0 169
3  987 1239 1174  255 0 169
3  810 813 497  255 0 169
5  810 718 711 358 760  255 0 169
6  985 717 372 1218 494 825  255 0 169
7  985 823 822 714 421 424 716  255 0 169
5  987 1174 707 1023 1021  255 0 169
3  989 762 842  255 0 169
4  989 515 586 706  255 0 169
7  988 588 589 826 489 490 547  255 0 169
6  986 359 360 547 1198 1171  255 0 169
4  988 360 361 713  255 0 169
3  985 716 717  255 0 169
8  987 1172 1210 418 417 865 656 1239  255 0 169
5  810 760 1171 817 813  255 0 169
4  986 760 358 357  255 0 169
3  985 825 823  255 0 169
5  67 281 304 305 171  0 255 56
4  67 303 170 171  56 255 0
5  308 309 674 572 571  0 255 56
4  308 571 849 307  0 255 56
5  983 849 571 570 970  0 255 56
4  67 171 570 1145  0 255 56
6  305 309 736 31 32 174  0 226 255
5  305 569 573 674 309  0 255 56
3  299 298 909  56 255 0
4  910 162 161 870  0 226 255
3  982 251 264  0 255 226
3  910 163 162  0 226 255
5  982 264 263 981 980  0 255 226
4  909 163 164 948  56 255 0
4  946 263 264 979  0 255 56
5  948 164 165 741 949  56 255 0
4  978 922 919 977  113 255 0
4  977 919 155 156  113 255 0
5  976 156 155 914 915  0 226 255
4  974 973 109 110  56 0 255
4  973 972 107 109  56 0 255
4  115 112 971 698  0 170 255
6  970 570 171 170 169 969  0 255 56
5  968 966 49 51 967  0 255 170
4  167 726 740 166  56 255 0
4  166 740 741 165  56 255 0
4  797 253 268 960  255 56 0
11  959 1246 1209 697 880 1124 1136 956 151 42 44  0 226 255
3  958 149 150  113 255 0
6  959 609 610 1247 1214 1246  0 226 255
8  202 214 785 1168 1153 45 43 878  0 226 255
4  958 82 83 149  113 255 0
3  956 1136 208  0 226 255
4  213 212 637 881  0 226 255
4  955 911 861 951  0 226 255
4  196 1177 911 197  0 226 255
3  954 742 779  0 226 255
4  952 149 148 1091  0 226 255
5  952 47 44 150 149  0 226 255
4  217 46 855 854  0 226 255
4  217 933 45 46  0 226 255
4  952 756 565 47  0 226 255
5  953 951 861 1050 660  0 226 255
3  860 660 1050  0 226 255
4  306 1188 1181 1039  0 226 255
5  308 307 1035 863 867  0 226 255
4  284 304 173 147  0 255 0
3  305 758 173  0 226 255
4  952 1091 1092 756  0 226 255
5  217 854 843 614 215  0 226 255
4  46 218 724 855  0 226 255
5  852 619 831 862 227  0 226 255
3  852 482 481  0 226 255
5  950 794 566 556 555  0 226 255
7  852 227 226 224 223 528 482  0 226 255
5  950 32 31 765 794  0 226 255
4  47 565 457 567  0 226 255
5  950 555 470 33 32  0 226 255
4  648 787 788 646  0 226 255
5  945 941 883 884 931  113 0 255
4  202 1202 1170 214  113 0 255
4  213 27 1166 1165  113 0 255
4  213 1165 680 212  113 0 255
4  208 201 650 803  113 0 255
4  207 801 802 206  113 0 255
4  943 848 847 942  113 0 255
4  944 845 848 943  113 0 255
4  208 803 801 207  113 0 255
4  210 212 26 211  0 226 255
4  27 214 1170 1166  113 0 255
5  27 213 1167 1168 785  0 226 255
6  942 847 846 886 883 941  113 0 255
7  210 211 1200 679 800 658 806  113 0 255
4  936 801 803 937  113 0 255
6  936 754 1065 564 744 938  113 0 255
5  938 807 802 801 936  113 0 255
5  938 744 624 751 935  113 0 255
5  937 803 650 806 934  113 0 255
4  937 753 754 936  113 0 255
5  800 679 1087 804 805  113 0 255
4  800 657 1102 799  113 0 255
4  935 751 750 932  113 0 255
4  935 808 807 938  113 0 255
3  934 806 658  113 0 255
4  934 752 753 937  113 0 255
4  935 932 804 808  113 0 255
6  800 805 932 750 746 657  113 0 255
6  934 658 657 746 747 752  113 0 255
3  878 146 145  0 226 255
5  878 43 41 103 146  0 226 255
3  932 805 804  113 0 255
3  214 27 785  0 226 255
3  931 884 885  113 0 255
4  928 872 871 929  0 255 113
5  930 926 927 928 929  0 255 113
4  180 924 925 181  255 170 0
4  923 904 1162 1160  255 170 0
3  918 914 917  0 226 255
4  887 153 152 888  0 226 255
4  914 155 154 916  0 226 255
4  916 154 153 887  0 226 255
4  917 914 916 887  0 226 255
4  911 1177 216 861  0 226 255
5  913 792 608 409 912  0 226 255
4  913 742 743 906  0 226 255
5  861 216 228 227 862  0 226 255
3  758 305 174  0 226 255
3  859 901 868  0 226 255
3  859 1187 1189  0 226 255
4  281 67 65 900  0 255 0
5  859 868 1039 1181 1187  0 226 255
5  281 900 172 173 304  0 255 0
3  164 907 647  0 226 255
6  907 664 789 787 648 647  0 226 255
5  906 743 165 646 788  0 226 255
4  906 791 792 913  0 226 255
6  906 788 787 789 790 791  0 226 255
4  646 165 164 647  0 226 255
3  177 179 681  56 255 0
4  905 1163 1162 904  255 170 0
4  868 863 1035 1039  0 226 255
4  901 864 863 868  0 226 255
9  901 859 1189 857 766 1127 764 793 864  0 226 255
7  734 867 863 864 756 1092 899  0 226 255
4  756 864 793 565  0 226 255
4  900 65 73 172  0 255 0
5  734 899 898 147 173  0 226 255
5  82 74 87 101 83  255 0 226
4  898 1091 148 71  0 226 255
4  70 100 86 64  56 255 0
4  899 1092 1091 898  0 226 255
4  70 71 148 100  56 255 0
3  898 71 147  0 226 255
4  83 101 148 149  0 226 255
4  100 81 80 86  255 0 226
4  148 101 87 100  56 255 0
3  739 893 439  113 0 255
3  1203 448 449  113 0 255
4  1203 529 530 533  113 0 255
6  1207 531 529 1203 449 631  113 0 255
6  1207 625 624 748 628 629  113 0 255
6  1223 23 22 439 886 846  113 0 255
5  1223 847 848 896 488  113 0 255
4  844 894 432 433  113 0 255
5  844 730 727 577 581  113 0 255
4  1250 628 627 749  113 0 255
5  1250 1116 1114 531 532  113 0 255
6  1249 579 729 364 487 488  113 0 255
5  1249 896 894 844 580  113 0 255
4  1250 532 629 628  113 0 255
4  1207 629 532 531  113 0 255
5  1250 749 536 537 1116  113 0 255
4  844 433 755 730  113 0 255
3  1223 846 847  113 0 255
4  739 439 22 4  113 0 255
3  1249 488 896  113 0 255
4  1223 488 487 23  113 0 255
3  1249 580 579  113 0 255
4  1203 533 510 448  113 0 255
5  739 672 1113 890 893  113 0 255
5  1207 631 630 626 625  113 0 255
5  762 1227 1222 655 842  255 0 169
4  1198 547 490 546  255 0 169
4  1198 816 817 1171  255 0 169
5  1198 546 821 814 816  255 0 169
5  179 1159 1160 1162 1163  255 170 0
3  1155 261 260  0 255 226
3  1153 1168 1167  0 226 255
5  877 104 103 41 158  56 255 0
4  897 158 41 43  0 226 255
5  569 1141 1143 1145 570  0 255 56
5  1136 1124 209 201 208  0 226 255
4  1134 1129 1128 1133  255 226 0
6  319 1128 1129 1001 1005 189  255 226 0
4  1124 880 638 209  0 226 255
5  210 209 638 637 212  0 226 255
4  210 806 649 209  113 0 255
6  1116 891 596 541 594 1114  113 0 255
6  755 433 432 654 892 895  113 0 255
6  755 1147 1073 1139 551 730  113 0 255
3  1113 534 535  113 0 255
5  672 430 429 534 1113  113 0 255
3  1114 594 595  113 0 255
6  755 895 537 536 1074 1147  113 0 255
5  1116 537 895 892 891  113 0 255
7  1114 595 535 534 431 529 531  113 0 255
6  1113 535 595 594 889 890  113 0 255
4  896 848 845 894  113 0 255
4  894 845 652 432  113 0 255
4  893 883 886 439  113 0 255
4  889 594 541 540  113 0 255
4  889 885 884 890  113 0 255
3  891 653 596  113 0 255
4  892 654 653 891  113 0 255
4  890 884 883 893  113 0 255
5  889 540 651 882 885  113 0 255
3  761 1021 1023  255 0 169
5  761 703 705 811 759  255 0 169
3  882 651 652  113 0 255
5  432 652 651 653 654  113 0 255
3  799 1102 1101  113 0 255
8  880 697 1247 610 696 881 637 638  0 226 255
3  879 157 145  113 255 0
3  877 105 104  56 255 0
4  842 655 841 840  255 0 169
6  858 1187 1181 1188 687 676  0 226 255
5  858 854 855 766 857  0 226 255
5  858 676 677 843 854  0 226 255
3  770 777 778  0 226 255
4  306 1039 1035 307  0 226 255
4  867 734 309 308  0 226 255
4  65 67 171 73  56 255 0
3  237 866 230  0 255 170
4  237 230 50 57  0 113 255
5  865 421 422 715 841  255 0 169
5  841 655 1222 656 865  255 0 169
6  841 715 824 1036 1040 840  255 0 169
6  716 418 349 493 375 717  255 0 169
4  716 424 417 418  255 0 169
4  865 417 424 421  255 0 169
8  31 30 28 29 395 394 479 765  0 226 255
4  793 764 1118 568  0 226 255
6  227 228 776 775 548 1221  0 226 255
4  831 619 618 830  0 226 255
7  389 615 853 451 405 524 769  0 226 255
4  389 767 853 615  0 226 255
3  831 828 862  0 226 255
3  860 659 660  0 226 255
5  862 828 659 1050 861  0 226 255
3  860 1050 659  0 226 255
4  33 470 469 34  0 226 255
3  766 855 724  0 226 255
5  33 34 1081 1080 735  0 226 255
4  857 1189 1187 858  0 226 255
6  856 29 28 666 525 526  0 226 255
4  856 678 37 29  0 226 255
3  770 670 777  0 226 255
6  856 526 516 518 1179 678  0 226 255
4  767 1221 548 450  0 226 255
4  777 676 687 778  0 226 255
3  670 1199 549  0 226 255
3  777 677 676  0 226 255
4  853 767 450 451  0 226 255
6  670 549 548 775 677 777  0 226 255
5  851 832 505 502 506  0 226 255
5  850 560 416 413 426  0 226 255
7  850 472 341 473 414 415 560  0 226 255
7  852 481 500 1112 1111 618 619  0 226 255
5  851 561 475 480 832  0 226 255
3  389 769 390  0 226 255
4  850 426 425 472  0 226 255
4  31 774 665 30  0 226 255
7  31 736 675 1235 1220 667 774  0 226 255
3  844 581 580  113 0 255
3  216 215 614  0 226 255
3  843 677 614  0 226 255
4  228 216 614 776  0 226 255
4  842 840 513 514  255 0 169
3  589 514 513  255 0 169
6  840 1040 489 826 589 513  255 0 169
6  821 1036 423 822 819 815  255 0 169
4  546 489 1036 821  255 0 169
4  839 835 834 838  226 255 0
4  837 834 835 836  226 255 0
3  833 1111 1112  0 226 255
3  481 501 500  0 226 255
5  480 392 391 464 463  0 226 255
7  480 475 346 345 601 478 393  0 226 255
8  833 498 441 399 397 466 471 1111  0 226 255
4  833 1112 499 498  0 226 255
4  480 463 505 832  0 226 255
3  392 480 393  0 226 255
6  830 618 616 773 829 661  0 226 255
5  831 830 661 1204 828  0 226 255
3  829 773 772  0 226 255
3  828 1204 659  0 226 255
3  827 772 771  0 226 255
4  823 818 819 822  255 0 169
4  824 715 422 423  255 0 169
4  825 820 818 823  255 0 169
3  824 423 1036  255 0 169
4  822 423 422 714  255 0 169
4  820 825 494 497  255 0 169
3  821 815 814  255 0 169
5  812 710 682 759 811  255 0 169
4  811 705 704 812  255 0 169
5  810 496 495 1216 718  255 0 169
3  810 497 496  255 0 169
4  804 1087 1088 808  113 0 255
4  800 799 1101 658  113 0 255
5  798 797 176 117 124  255 56 0
4  606 124 117 282  0 255 56
4  794 478 763 566  0 226 255
4  796 599 381 380  0 226 255
4  794 765 479 478  0 226 255
4  793 568 457 565  0 226 255
6  478 601 600 388 684 763  0 226 255
6  482 342 341 472 501 481  0 226 255
5  221 380 381 336 222  0 226 255
4  686 445 444 386  0 226 255
3  684 566 763  0 226 255
4  684 388 387 460  0 226 255
7  482 528 527 563 414 473 342  0 226 255
7  221 722 591 355 602 486 220  0 226 255
6  684 461 462 455 452 566  0 226 255
5  221 222 338 1027 722  0 226 255
4  791 607 608 792  0 226 255
3  791 790 607  0 226 255
3  739 4 21  113 0 255
5  5 6 7 1093 1242  255 0 113
5  783 781 780 782 784  255 0 113
6  784 782 1231 19 20 1110  255 0 113
6  783 1242 1093 1237 640 781  255 0 113
3  21 1110 20  255 0 113
5  5 1242 1110 21 4  255 0 113
4  784 1110 1242 783  255 0 113
3  18 19 1231  255 0 113
7  662 15 14 13 1085 695 747  113 0 255
5  662 746 750 626 1097  113 0 255
4  662 411 410 15  113 0 255
4  782 780 1240 1231  255 0 113
4  18 1231 1240 17  255 0 113
6  15 16 2 0 428 691  255 0 56
11  691 428 1 1132 688 582 693 694 690 643 644  255 0 56
5  663 641 16 15 410  113 0 255
3  663 410 411  113 0 255
4  3 16 641 17  113 0 255
3  1 428 0  255 0 56
3  1 7 1132  255 0 56
4  1 1241 1093 7  255 0 113
3  3 2 16  255 0 56
5  781 640 639 1240 780  255 0 113
5  17 1240 639 2 3  255 0 113
3  1 0 1241  255 0 113
4  614 677 775 776  0 226 255
4  51 59 57 50  169 0 255
3  391 390 464  0 226 255
3  774 667 665  0 226 255
3  773 437 434  0 226 255
7  773 434 1107 670 770 771 772  0 226 255
6  769 524 404 522 617 390  0 226 255
3  223 222 336  0 226 255
4  223 1031 338 222  0 226 255
4  223 224 543 1031  0 226 255
5  389 395 598 725 767  0 226 255
4  227 1221 544 226  0 226 255
5  218 219 486 602 724  0 226 255
3  226 225 224  0 226 255
6  766 724 602 593 1117 1127  0 226 255
6  226 544 545 613 485 225  0 226 255
4  764 1127 1117 1118  0 226 255
4  568 459 456 457  0 226 255
6  568 1118 1117 593 671 459  0 226 255
5  759 673 538 1021 761  255 0 169
7  738 710 708 584 587 622 605  255 0 169
6  738 604 603 636 673 682  255 0 169
6  761 1023 707 706 702 703  255 0 169
4  762 707 1174 1227  255 0 169
3  738 605 604  255 0 169
3  759 682 673  255 0 169
3  28 30 666  0 226 255
6  32 33 735 734 173 174  0 226 255
3  173 758 174  0 226 255
4  757 470 557 719  0 226 255
4  735 1080 668 736  0 226 255
4  23 24 552 438  255 0 56
8  729 550 384 385 1072 483 365 364  113 0 255
4  729 579 578 728  113 0 255
4  730 551 368 369  113 0 255
4  729 362 363 550  113 0 255
7  23 487 365 483 8 25 24  113 0 255
5  752 695 520 1063 753  113 0 255
4  753 1063 1064 754  113 0 255
3  754 1064 1065  113 0 255
4  536 749 627 745  113 0 255
7  536 745 351 352 1139 1073 1074  113 0 255
3  752 747 695  113 0 255
3  662 747 746  113 0 255
4  751 625 626 750  113 0 255
5  748 744 564 745 627  113 0 255
3  748 624 744  113 0 255
3  751 624 625  113 0 255
3  748 627 628  113 0 255
3  745 564 351  113 0 255
5  564 1065 1064 1068 351  113 0 255
3  726 167 168  56 255 0
5  21 20 19 430 672  113 0 255
3  739 21 672  113 0 255
4  533 430 19 18  113 0 255
3  738 683 710  255 0 169
3  738 682 683  255 0 169
5  736 668 1236 1238 675  0 226 255
4  737 374 371 370  255 0 169
6  718 373 420 419 401 711  255 0 169
4  717 375 374 737  255 0 169
5  718 1216 370 371 373  255 0 169
4  737 370 372 717  255 0 169
4  736 309 734 735  0 226 255
4  728 578 577 727  113 0 255
6  730 369 362 729 728 727  113 0 255
5  723 1031 543 544 725  0 226 255
5  723 379 378 1120 1119  0 226 255
5  725 598 720 379 723  0 226 255
4  725 544 1221 767  0 226 255
5  723 1119 337 338 1031  0 226 255
5  722 1027 1030 592 591  0 226 255
5  719 557 452 455 1121  0 226 255
6  721 382 383 456 459 671  0 226 255
5  721 671 593 356 446  0 226 255
4  721 446 445 382  0 226 255
3  720 378 379  0 226 255
8  598 597 468 719 1121 1120 378 720  0 226 255
3  711 401 400  255 0 169
3  714 422 421  255 0 169
5  713 620 576 575 588  255 0 169
6  588 575 623 515 514 589  255 0 169
5  712 357 358 711 400  255 0 169
5  712 621 519 403 402  255 0 169
6  712 402 361 360 359 357  255 0 169
6  713 361 403 519 507 620  255 0 169
6  712 400 401 419 574 621  255 0 169
7  515 623 576 620 508 509 586  255 0 169
4  709 585 584 708  255 0 169
4  709 586 509 585  255 0 169
4  703 1156 1157 705  255 0 169
4  701 1157 1156 700  255 0 169
4  700 1156 190 192  255 0 169
3  701 1158 1157  255 0 169
4  114 115 698 699  0 170 255
5  5 438 552 553 6  255 0 56
4  697 1209 1214 1247  0 226 255
3  696 610 609  0 226 255
3  695 1085 521  113 0 255
3  694 693 692  255 0 56
6  694 692 689 10 11 690  255 0 56
3  9 10 689  255 0 56
3  8 554 25  255 0 56
5  693 582 583 689 692  255 0 56
6  9 689 583 552 554 8  255 0 56
3  11 645 12  113 0 255
5  13 12 645 521 1085  113 0 255
4  691 644 642 427  255 0 56
4  13 427 642 12  255 0 56
5  11 12 642 643 690  255 0 56
3  688 583 582  255 0 56
3  688 1132 583  255 0 56
6  685 458 383 382 445 686  0 226 255
4  686 386 387 685  0 226 255
3  684 460 461  0 226 255
4  673 636 539 538  255 0 169
4  680 1165 1166 679  113 0 255
4  679 1166 1170 1087  113 0 255
3  26 1200 211  113 0 255
5  680 679 1200 26 212  113 0 255
3  674 573 572  0 255 56
3  675 1238 1235  0 226 255
4  418 1210 350 349  255 0 169
4  602 355 356 593  0 226 255
3  337 1027 338  0 226 255
4  337 1119 1120 632  0 226 255
5  632 1120 377 376 386  0 226 255
3  337 1030 1027  0 226 255
6  337 632 447 590 592 1030  0 226 255
4  492 522 404 523  0 226 255
3  670 1107 1199  0 226 255
4  492 523 1107 434  0 226 255
5  305 173 172 73 171  0 226 255
4  669 666 1230 1224  0 226 255
4  669 1224 1236 668  0 226 255
6  666 30 665 667 1220 1230  0 226 255
6  1230 1220 1235 1238 1236 1224  0 226 255
4  1202 1088 1087 1170  113 0 255
4  203 204 1088 1202  113 0 255
4  789 664 607 790  0 226 255
5  663 411 662 1097 1096  113 0 255
6  17 641 663 1096 1099 510  113 0 255
4  18 17 510 533  113 0 255
3  487 364 365  113 0 255
6  1139 352 1068 1064 1109 1140  113 0 255
6  1144 1056 1053 1059 1067 385  113 0 255
7  1144 384 550 363 366 367 1070  113 0 255
3  1147 1074 1073  113 0 255
6  1139 353 367 366 368 551  113 0 255
3  1144 385 384  113 0 255
4  483 1072 1067 1059  113 0 255
4  1140 1109 1108 1142  113 0 255
5  1142 1108 1063 1056 1144  113 0 255
7  1144 1070 367 353 1139 1140 1142  113 0 255
3  7 6 553  255 0 56
5  7 553 552 583 1132  255 0 56
4  545 542 484 613  0 226 255
3  1112 500 499  0 226 255
5  1111 471 436 616 618  0 226 255
4  650 201 209 649  113 0 255
3  806 650 649  113 0 255
3  1246 1214 1209  0 226 255
5  661 408 660 659 1204  0 226 255
3  1241 1237 1093  255 0 113
5  0 2 639 1237 1241  255 0 113
3  1237 639 640  255 0 113
4  1063 1108 1109 1064  113 0 255
3  466 436 471  0 226 255
4  773 616 436 437  0 226 255
6  466 396 406 491 435 436  0 226 255
4  492 434 435 491  0 226 255
6  390 617 407 406 465 464  0 226 255
4  1199 405 451 549  0 226 255
5  1107 523 404 405 1199  0 226 255
4  549 451 450 548  0 226 255
4  5 4 22 438  255 0 56
3  23 438 22  255 0 56
4  15 691 427 14  255 0 56
3  13 14 427  255 0 56
4  1102 657 658 1101  113 0 255
5  656 1222 1227 1174 1239  255 0 169
4  653 651 540 596  113 0 255
3  596 540 541  113 0 255
3  648 646 647  0 226 255
3  644 643 642  255 0 56
3  1210 1172 350  255 0 169
3  1094 349 350  255 0 169
3  1094 538 539  255 0 169
5  636 493 349 1094 539  255 0 169
4  635 633 611 603  255 0 169
4  635 604 605 622  255 0 169
4  636 603 611 493  255 0 169
3  635 603 604  255 0 169
5  634 374 375 493 612  255 0 169
6  633 420 373 371 374 634  255 0 169
5  633 635 622 419 420  255 0 169
4  633 634 612 611  255 0 169
3  493 611 612  255 0 169
4  630 448 510 1099  113 0 255
4  1099 1097 626 630  113 0 255
3  1099 1096 1097  113 0 255
3  682 710 683  255 0 169
3  470 757 469  0 226 255
5  666 669 1082 35 36  0 226 255
4  1081 34 35 1082  0 226 255
5  1082 669 668 1080 1081  0 226 255
3  36 35 37  0 226 255
7  678 1179 1178 525 666 36 37  0 226 255
3  1072 385 1067  113 0 255
3  1068 352 351  113 0 255
4  520 1053 1056 1063  113 0 255
5  10 9 483 1059 11  113 0 255
4  645 11 1059 1053  113 0 255
4  521 645 1053 520  113 0 255
3  695 521 520  113 0 255
4  597 34 469 468  0 226 255
4  719 468 469 757  0 226 255
6  386 376 1195 461 460 387  0 226 255
4  632 386 444 447  0 226 255
4  631 449 448 630  113 0 255
3  623 575 576  255 0 169
6  621 584 585 508 507 519  255 0 169
4  621 574 587 584  255 0 169
4  622 587 574 419  255 0 169
3  620 507 508  255 0 169
5  617 522 492 491 407  0 226 255
4  1218 372 370 1216  255 0 169
4  1218 1216 495 494  255 0 169
3  489 546 490  255 0 169
3  1040 1036 489  255 0 169
6  225 485 484 542 543 224  0 226 255
3  613 484 485  0 226 255
3  1195 376 377  0 226 255
3  1195 462 461  0 226 255
6  1195 377 1120 1121 455 462  0 226 255
4  1179 518 517 1178  0 226 255
5  1178 517 516 526 525  0 226 255
3  293 606 282  0 255 56
3  220 486 219  0 226 255
4  601 345 354 600  0 226 255
7  395 29 37 35 34 597 598  0 226 255
3  591 356 355  0 226 255
4  592 590 356 591  0 226 255
4  590 447 446 356  0 226 255
3  585 509 508  255 0 169
5  581 577 578 579 580  113 0 255
5  573 569 570 571 572  0 255 56
5  567 457 456 383 454  0 226 255
4  566 452 453 556  0 226 255
4  562 345 346 476  0 226 255
3  559 506 504  0 226 255
3  559 413 416  0 226 255
3  563 415 414  0 226 255
4  561 476 346 475  0 226 255
5  559 504 503 412 413  0 226 255
3  557 453 452  0 226 255
5  557 470 555 556 453  0 226 255
4  554 552 24 25  255 0 56
4  545 544 543 542  0 226 255
3  534 429 431  113 0 255
4  533 530 429 430  113 0 255
4  529 431 429 530  113 0 255
3  524 405 404  0 226 255
3  361 402 403  255 0 169
3  518 516 517  0 226 255
6  467 399 398 440 348 463  0 226 255
4  463 348 344 347  0 226 255
4  506 502 503 504  0 226 255
6  505 463 347 477 503 502  0 226 255
5  501 472 425 339 443  0 226 255
4  503 477 343 412  0 226 255
3  498 442 441  0 226 255
6  501 443 442 498 499 500  0 226 255
4  497 494 495 496  255 0 169
3  465 406 396  0 226 255
3  491 406 407  0 226 255
3  9 8 483  113 0 255
4  479 394 393 478  0 226 255
3  474 412 343  0 226 255
3  474 339 425  0 226 255
4  477 347 344 343  0 226 255
7  474 343 344 348 440 340 339  0 226 255
5  474 425 426 413 412  0 226 255
3  473 341 342  0 226 255
3  467 397 399  0 226 255
6  467 463 464 465 396 397  0 226 255
3  466 397 396  0 226 255
3  458 454 383  0 226 255
4  447 444 445 446  0 226 255
3  443 339 340  0 226 255
3  441 398 399  0 226 255
6  443 340 440 398 441 442  0 226 255
4  437 436 435 434  0 226 255
7  395 389 390 391 392 393 394  0 226 255
4  368 363 362 369  113 0 255
3  368 366 363  113 0 255
3  189 319 130  226 255 0
3  319 189 130  255 226 0
8  335 130 79 80 331 332 333 334  113 255 0
8  130 335 334 333 332 331 80 79  255 0 0
3  285 64 69  0 255 0
5  286 69 64 86 99  56 255 0
3  285 69 64  255 0 0
11  245 241 120 258 113 328 329 330 247 242 246  0 113 255
6  286 241 120 119 287 175  169 255 0
11  245 246 242 247 330 329 328 113 258 120 241  169 255 0
5  327 239 232 325 326  0 255 170
4  113 239 232 111  0 170 255
5  327 326 325 232 239  0 170 255
4  111 232 239 113  0 113 255
5  324 111 113 258 257  0 113 255
5  111 324 257 258 113  169 255 0
5  288 257 258 119 118  255 56 0
7  323 288 118 287 143 142 322  255 113 0
7  288 323 322 142 143 287 118  255 0 0
5  321 142 143 131 126  226 255 0
5  142 321 126 131 143  255 0 0
4  320 126 131 319  226 255 0
4  126 320 319 131  255 226 0
3  130 319 131  226 255 0
3  319 130 131  255 226 0
4  286 99 98 175  56 255 0
4  130 79 78 144  255 0 0
5  286 99 86 64 69  255 0 0
3  287 119 118  169 255 0
6  287 143 144 78 98 175  255 0 0
6  287 119 120 241 286 175  0 255 56
5  288 118 119 258 257  169 255 0
3  287 118 119  0 255 56
4  286 175 98 99  255 0 0
6  287 175 98 78 144 143  255 113 0
16  318 311 310 312 313 274 273 314 315 288 118 287 175 286 316 317  255 0 0
16  311 318 317 316 286 175 287 118 288 315 314 273 274 313 312 310  169 255 0
8  309 305 171 170 169 306 307 308  0 226 255
8  305 309 308 307 306 169 170 171  0 255 56
4  304 284 280 281  0 255 0
4  284 304 281 280  0 255 56
3  67 281 66  0 255 0
3  281 67 66  0 255 56
13  303 67 66 283 294 295 296 297 298 299 300 301 302  56 255 0
13  67 303 302 301 300 299 298 297 296 295 294 283 66  0 255 56
5  293 283 66 68 282  56 255 0
5  283 293 282 68 66  0 255 56
4  176 117 116 133  56 255 0
7  282 117 116 175 286 69 68  0 255 56
4  178 176 279 292  255 170 0
4  176 178 292 279  255 56 0
5  291 279 176 133 132  255 170 0
5  279 291 132 133 176  255 56 0
7  290 132 133 116 118 288 289  255 113 0
7  132 290 289 288 118 116 133  255 56 0
4  287 118 116 175  255 113 0
7  286 175 116 117 282 68 69  56 255 0
4  287 175 116 118  0 255 56
5  285 69 68 281 280  0 255 0
5  285 280 281 68 69  0 255 56
3  281 66 68  0 255 56
3  281 68 66  0 255 0
4  131 143 144 130  226 255 0
4  131 130 144 143  255 0 0
5  278 271 270 276 277  255 0 0
5  271 278 277 276 270  0 255 113
6  275 270 271 272 273 274  255 0 0
6  270 275 274 273 272 271  0 255 113
3  258 119 120  169 255 0
3  258 120 119  255 56 0
4  269 254 253 268  0 56 255
4  254 269 268 253  255 56 0
7  61 253 254 255 256 53 56  0 56 255
7  253 61 56 53 256 255 254  255 56 0
4  267 61 122 123  0 0 255
4  61 267 123 122  255 56 0
3  252 123 122  0 0 255
5  244 252 122 121 233  0 0 255
5  252 244 233 121 122  0 255 56
4  266 244 251 265  0 255 226
4  244 266 265 251  0 255 56
10  264 251 244 233 241 259 260 261 262 263  0 255 226
10  251 264 263 262 261 260 259 241 233 244  0 255 56
6  258 120 121 58 229 257  0 113 255
4  241 120 121 233  0 255 56
6  258 257 229 58 121 120  255 56 0
5  61 122 121 58 56  255 56 0
3  252 122 123  0 255 56
4  241 233 121 120  0 113 255
7  250 243 240 234 235 248 249  0 0 255
7  243 250 249 248 235 234 240  0 255 226
3  247 235 242  0 113 255
3  235 247 242  0 255 226
6  246 242 235 234 241 245  0 113 255
6  242 246 245 241 234 235  0 255 226
4  244 233 234 240  0 0 255
3  241 233 234  0 255 226
4  244 240 234 233  0 255 226
3  241 234 233  0 113 255
4  229 53 56 58  255 56 0
4  229 58 56 53  169 0 255
6  239 232 48 50 230 231  0 113 255
6  232 239 231 230 50 48  0 255 170
4  238 231 230 237  0 113 255
4  231 238 237 230  0 255 170
4  57 50 229 58  0 113 255
4  50 57 58 229  169 0 255
7  236 57 58 121 233 234 235  0 113 255
7  57 236 235 234 233 121 58  0 0 255
3  229 48 50  169 0 255
3  229 50 48  0 113 255
15  228 216 215 217 46 218 219 220 221 222 223 224 225 226 227  0 226 255
15  216 228 227 226 225 224 223 222 221 220 219 218 46 217 215  0 226 255
4  214 202 26 27  0 226 255
4  202 214 27 26  113 0 255
4  213 27 26 212  0 226 255
4  27 213 212 26  113 0 255
6  211 26 202 201 209 210  0 226 255
6  26 211 210 209 201 202  113 0 255
8  208 201 202 203 204 205 206 207  0 226 255
8  201 208 207 206 205 204 203 202  113 0 255
11  200 191 190 192 193 194 195 196 197 198 199  0 226 255
11  191 200 199 198 197 196 195 194 193 192 190  255 0 169
4  130 144 78 79  113 255 0
4  176 133 116 117  255 56 0
7  176 178 177 179 180 181 135  255 170 0
7  178 176 135 181 180 179 177  56 255 0
4  175 116 133 135  255 113 0
3  176 133 135  56 255 0
3  130 144 141  226 255 0
3  175 98 97  56 255 0
8  189 130 141 184 185 186 187 188  226 255 0
8  130 189 188 187 186 185 184 141  113 255 0
4  139 141 77 76  255 113 0
4  141 139 76 77  113 255 0
4  183 139 95 94  226 0 255
4  139 183 94 95  113 255 0
4  182 94 95 137  226 0 255
4  182 137 95 94  56 255 0
6  135 137 95 75 96 175  255 113 0
6  137 135 175 96 75 95  56 255 0
3  176 135 133  255 170 0
3  175 97 98  255 113 0
3  175 97 96  56 255 0
4  141 77 78 144  113 255 0
4  139 76 75 95  255 113 0
3  175 96 97  255 113 0
4  175 135 133 116  56 255 0
3  130 141 144  113 255 0
4  139 95 75 76  113 255 0
3  150 44 42  0 226 255
3  146 103 104  113 255 0
5  173 147 72 73 172  0 226 255
5  147 173 172 73 72  0 255 0
18  171 73 102 40 41 158 159 160 161 162 163 164 165 166 167 168 169 170  0 226 255
18  73 171 170 169 168 167 166 165 164 163 162 161 160 159 158 41 40 102  56 255 0
4  146 103 40 39  0 226 255
4  145 146 39 38  0 226 255
4  146 145 38 39  113 255 0
10  157 145 38 42 151 152 153 154 155 156  0 226 255
10  145 157 156 155 154 153 152 151 42 38  113 255 0
5  150 42 38 83 149  0 226 255
5  150 149 83 38 42  113 255 0
3  101 83 84  0 226 255
3  83 101 84  255 0 226
4  148 101 72 71  0 226 255
4  101 148 71 72  56 255 0
3  147 71 72  0 226 255
3  71 147 72  0 255 0
5  101 72 73 102 84  56 255 0
4  146 39 40 103  113 255 0
5  83 38 39 102 84  0 226 255
4  144 78 77 141  255 113 0
5  144 141 140 142 143  255 113 0
5  141 144 143 142 140  226 255 0
5  139 95 137 136 138  255 113 0
5  137 95 139 138 136  226 0 255
4  135 133 132 134  255 113 0
4  133 135 134 132  255 170 0
7  131 126 125 127 128 129 130  255 0 0
7  126 131 130 129 128 127 125  255 226 0
5  122 61 56 58 121  0 0 255
9  124 117 116 118 119 120 121 122 123  255 56 0
9  117 124 123 122 121 120 119 118 116  0 255 56
5  115 112 111 113 114  169 255 0
5  112 115 114 113 111  0 170 255
4  110 108 107 109  169 255 0
4  108 110 109 107  56 0 255
3  103 41 40  0 226 255
4  97 77 76 96  255 0 226
4  97 77 78 98  255 113 0
4  98 78 77 97  255 0 226
4  98 78 79 99  255 0 0
5  102 39 38 83 84  113 255 0
3  102 39 40  0 226 255
5  102 73 72 101 84  0 226 255
3  96 76 75  255 0 226
4  96 76 77 97  255 113 0
4  99 79 78 98  255 0 226
4  99 79 80 86  255 0 0
4  86 80 79 99  255 0 226
3  96 75 76  255 113 0
3  102 40 39  113 255 0
3  103 40 41  56 255 0
9  106 88 85 84 102 40 103 104 105  56 255 0
9  88 106 105 104 103 40 102 84 85  113 255 0
4  101 84 85 87  56 255 0
4  101 87 85 84  255 0 226
3  100 87 86  56 255 0
3  87 100 86  255 0 226
8  99 86 87 85 75 96 97 98  56 255 0
8  86 99 98 97 96 75 85 87  255 0 226
10  95 75 85 88 89 90 91 92 93 94  56 255 0
10  95 94 93 92 91 90 89 88 85 75  113 255 0
6  85 75 74 82 83 84  255 0 226
6  75 85 84 83 82 74  113 255 0
8  81 74 75 76 77 78 79 80  255 0 226
8  74 81 80 79 78 77 76 75  113 255 0
6  65 67 66 68 69 64  0 255 0
6  67 65 64 69 68 66  56 255 0
6  73 65 64 70 71 72  0 255 0
6  65 73 72 71 70 64  56 255 0
4  61 56 55 60  0 56 255
5  58 56 55 59 57  0 0 255
4  61 60 55 56  0 0 255
5  59 55 56 58 57  169 0 255
5  56 53 52 54 55  0 56 255
5  53 56 55 54 52  169 0 255
4  51 49 48 50  0 255 170
4  49 51 50 48  169 0 255
10  37 29 28 30 31 32 33 34 35 36  0 226 255
10  29 37 36 35 34 33 32 31 30 28  0 226 255
4  8 9 3 4  113 0 255
4  9 8 4 3  255 0 56
6  25 8 4 22 23 24  113 0 255
6  8 25 24 23 22 4  255 0 56
7  21 4 3 17 18 19 20  113 0 255
7  4 21 20 19 18 17 3  255 0 113
9  16 3 9 10 11 12 13 14 15  113 0 255
9  3 16 15 14 13 12 11 10 9  255 0 56
8  7 1 0 2 3 4 5 6  255 0 56
8  1 7 6 5 4 3 2 0  255 0 113

