OFF
1157 949 0

-0.962296 -1.55871 128.371
-0.967629 -1.30901 128.609
-1.07001 -1.28315 128.207
-1.05029 -1.33361 128.237
0.425913 -0.607881 129.219
0.414773 -0.640011 129.154
0.260191 -0.636988 129.595
0.142853 -0.815393 129.391
0.309903 -0.188552 129.138
0.141018 -0.29303 128.459
-0.320535 0.0234907 128.89
0.10676 0.259593 128.893
0.140467 -0.207595 128.524
0.14159 -0.381694 128.391
3.18866 -11.7376 134.896
3.55573 -12.5327 135.011
-11.6458 -6.66941 134.863
-11.6517 -6.59531 134.944
-11.4544 -6.46936 135.145
-1.45533 -0.603543 128.883
-1.01566 -2.77681 127.049
-1.2825 -2.19464 127.15
5.16609 -10.4892 136.418
4.55228 -10.4024 136.109
5.57818 -11.3881 136.985
5.69692 -11.6382 136.745
5.56762 -11.3442 136.024
-10.62 -5.93682 135.995
-11.184 -6.29678 135.42
-10.1969 -6.05874 135.992
-9.84852 -6.24415 135.896
-11.188 -6.29934 135.416
-10.9822 -6.1582 134.854
-11.1913 -6.30162 135.425
-11.4506 -6.47942 136.134
2.99752 -10.189 135.969
2.81484 -10.1568 135.236
3.23468 -11.0184 136.098
3.76567 -10.2912 135.714
2.43835 -10.1036 135.047
3.00711 -11.3223 135.821
-1.1795 -0.635156 127.887
-0.960002 -0.704263 128.017
-0.660296 -0.798622 128.195
-0.508354 -0.84646 128.285
-1.72115 -1.21122 128.494
-1.05312 -1.23441 128.657
-1.6704 -1.35691 126.916
-1.76288 -1.16656 126.443
-10.5343 -5.86416 134.664
-10.4328 -5.91849 134.667
-1.28496 -0.733261 127.88
-1.3569 -0.549235 127.77
-1.19279 -0.458499 128.553
0.0728291 -0.688777 127.907
0.0341344 -0.502206 127.917
0.0265302 -0.465542 127.919
-0.100137 0.145201 127.951
-0.222179 0.0777726 128.033
-0.268297 -0.0711702 128.073
-0.0722058 -0.426192 127.978
0.606212 -0.72703 128.36
0.649042 -0.60084 128.616
0.513776 -0.701056 128.696
0.63895 -0.581057 128.703
5.15746 -10.4829 135.9
4.45771 -10.3863 135.788
5.17017 -10.4865 135.9
5.44553 -11.0665 135.344
0.472747 -1.12026 127.561
0.41123 -1.30151 127.193
0.504459 -1.02683 127.751
0.49321 -1.05997 127.684
4.0885 -7.86955 122.759
4.39251 -8.50992 122.146
-9.10626 -7.86072 134.236
-9.10033 -7.88921 134.134
0.33879 -0.170682 129.254
0.416835 -0.122401 129.568
-0.069774 -0.430412 129.702
0.100491 -0.323296 129.852
0.416168 -0.123154 129.667
3.47228 -12.3223 136.308
3.32689 -12.0225 135.584
4.29071 -10.3579 135.22
3.76507 -10.29 135.597
3.64596 -12.6911 136.69
4.21708 -12.778 136.979
4.66782 -12.8466 137.208
3.33268 -12.0199 136.264
0.448523 -0.542669 129.35
0.51765 -0.343288 129.751
-8.82703 -6.77061 133.975
-9.24485 -7.06817 134.261
-8.81164 -7.46413 134.84
-8.36402 -7.02269 134.381
-9.79638 -8.43019 136.225
-9.44499 -8.0821 135.98
-9.02001 -8.43513 135.721
-9.81143 -8.4451 136.235
-11.5662 -7.16554 138.153
-11.6236 -6.68476 136.85
0.911739 -1.58236 127.449
0.961967 -1.48027 127.678
1.01497 -1.37254 127.92
1.12098 -1.58726 127.318
-9.29734 -6.86585 136.081
-8.87895 -6.76457 136.04
-9.20753 -7.41853 136.788
0.184822 -0.492344 128.457
0.767882 -0.862279 128.88
0.766272 -0.861696 129.01
0.43489 -0.65293 129.215
-1.28688 -0.738981 127.866
-1.70383 -1.27543 127.31
-1.63995 -1.41479 127.286
-1.22188 -1.15195 127.707
-9.78721 -8.43672 135.061
-10.0439 -8.69263 135.119
0.148216 -1.40884 127.608
0.350643 -1.19177 127.689
-0.62509 -0.287157 127.337
-0.792747 -0.318646 127.056
-1.91334 -0.856854 125.673
-0.960002 -0.629901 127.202
-1.6539 -1.41853 125.768
-1.66907 -1.42261 124.116
-1.90005 -0.849393 127.293
-1.48387 -1.81167 124.715
-1.30502 -0.520569 127.782
-0.908828 -0.383363 127.908
-0.960002 -0.51047 127.624
0.108343 -0.296599 128.341
0.0396077 -0.487041 127.948
0.31679 -0.604444 128.15
0.734681 -0.781444 128.453
0.618176 -0.535744 128.675
-0.349853 -0.599193 127.233
-0.349778 -0.596651 126.486
-0.481729 -0.511865 126.086
0.857241 -1.05307 128.815
0.553243 -0.810189 129.51
-0.0602953 -0.447574 129.688
0.375997 -0.357395 129.239
0.129548 0.272182 128.863
-0.162882 0.11063 129.257
0.225324 0.0275138 129.009
-0.320547 0.023418 128.01
-0.32 0.0224287 128.011
-0.0706421 0.161507 128.068
0.5238 -1.35995 128.974
0.449128 -1.36993 128.944
-9.356 -6.50482 135.619
-9.72552 -6.30362 135.292
-9.42374 -6.08798 135.085
-0.817802 -1.95377 127.593
-0.32 -2.23525 127.801
-0.940236 -2.94136 127.02
-0.919874 -2.98579 127.013
-9.87054 -6.23351 136.004
-10.2738 -6.03856 137.984
5.31627 -12.3484 137.281
5.63062 -11.7714 137.172
0.536383 -1.09868 127.683
0.557657 -1.14656 127.638
2.99596 -11.3202 134.836
3.31691 -10.9148 136.551
3.0354 -10.1957 136.121
3.39343 -10.2588 137.556
3.38421 -10.83 136.922
0.83559 -1.00996 128.972
0.757774 -1.24509 129.034
0.728838 -1.33252 129.057
0.534811 -1.15435 129.174
0.311757 0.110462 129.258
0.272981 0.159555 129.281
0.273463 0.160891 129.284
0.618176 -0.535744 128.675
0.279679 0.178112 129.319
5.46644 -11.1106 135.302
5.72303 -11.651 134.784
5.70709 -11.6812 134.745
-9.44112 -8.09169 134.982
-9.05343 -8.2036 134.98
32.1938 17.7627 -174.579
32.1872 17.7398 -174.537
5.13951 -12.8041 136.298
5.10427 -12.7615 136.207
5.217 -12.5671 135.568
0.41123 -1.30151 127.193
0.589275 -1.624 125.734
0.30258 -1.62162 126.542
5.4287 -11.0283 135.25
-9.36177 -6.47949 133.506
-9.34274 -6.4659 133.493
0.49147 -1.0651 127.673
0.574653 -1.18481 127.602
0.224156 -0.962794 127.462
0.221443 -0.957976 126.567
0.224156 -0.962794 127.462
-0.32 0.0226475 130.068
-0.32 -1.47281 128.632
-9.80362 -8.4424 135.856
-9.64441 -8.28539 135.693
-10.1878 -8.82125 136.25
-11.3437 -8.206 135.254
-9.6444 -8.28538 135.693
-9.81237 -8.44542 136.281
-9.84259 -8.47422 136.386
-11.5397 -7.73934 135.709
-11.5095 -7.99249 136.396
4.73537 -9.1312 116.888
5.39542 -10.3262 116.881
3.04455 -11.4405 134.179
3.00402 -11.3505 134.266
-10.9187 -8.40742 137.67
-10.7371 -8.51602 136.839
-0.841947 -1.89988 127.644
-0.64868 -1.54583 128.427
-0.32 -1.55352 128.221
-0.32 -1.85418 127.463
5.47188 -12.0452 138.069
5.70163 -11.6489 136.771
0.150823 -1.81297 127.299
0.668688 -1.76763 127.12
-10.5337 -5.86778 134.978
-11.643 -6.59966 135.732
-9.2047 -6.58721 135.752
-9.35792 -6.50621 135.848
-8.38137 -7.02508 135.491
-9.10644 -6.63915 135.691
-9.35719 -6.50568 135.761
-9.2341 -6.5712 135.727
-0.85491 -0.272075 124.955
-0.861108 -0.275343 127.028
-0.671441 -0.395486 127.104
2.15965 -7.82701 123.217
3.07137 -10.0535 121.332
0.3293 0.0693909 129.409
0.512548 -0.336784 129.953
0.186376 0.3036 129.088
-0.320529 0.0235273 129.333
-0.133159 -0.315647 129.794
-11.6027 -7.21154 134.277
-1.69707 -1.43013 121.068
-0.545362 -0.100824 127.739
-1.9218 -0.861607 124.641
-1.38281 -2.05803 123.522
0.240001 -0.163952 116.936
0.240001 -0.936315 116.931
0.240001 -0.938703 117.621
0.240001 -0.489715 117.224
0.240001 -0.192077 116.96
4.91745 -10.4389 134.77
5.40137 -12.2181 136.012
5.52794 -11.9915 135.696
-11.6589 -6.2409 137.328
-10.7792 -5.75487 136.734
-10.5309 -5.88618 136.579
-11.399 -6.45894 137.17
-11.6587 -6.24318 137.328
-4.68967 -3.37143 132.67
-7.14681 -5.1215 134.347
5.17724 -10.4723 134.569
5.72351 -11.6511 134.739
5.33821 -12.3581 134.881
4.56989 -10.3897 134.589
5.46298 -12.1015 136.16
5.11999 -12.7309 136.287
-1.07784 -2.06713 127.356
-1.38905 -1.94777 127.834
-1.03103 -1.91643 127.709
-1.18652 -2.41704 126.535
-10.188 -8.81814 136.497
-10.1179 -8.74866 136.448
-11.4004 -8.15107 137.252
-0.0727394 -0.425267 127.599
-0.124965 -0.457575 127.389
-0.151213 -0.473813 127.284
-0.32 -0.57823 126.605
-0.32 -0.58056 127.303
-0.32 -0.583373 128.146
-0.718808 -1.52615 128.47
-1.62779 -0.732921 128.98
-1.41793 -0.58288 128.836
-0.320546 0.0234253 128.099
-0.932405 -2.95804 127.036
-0.972116 -2.87349 126.957
3.40168 -10.7586 134.203
3.75417 -10.2672 133.453
3.76836 -10.269 133.443
17.2501 -30.7955 -172.226
17.0609 -31.4768 -173.513
17.0609 -31.4767 -172.231
5.41601 -10.3631 120.311
4.6091 -8.90209 121.758
-5.18364 -3.97039 124.885
-6.77019 -4.82827 123.622
3.12159 -11.1491 134.8
2.72792 -10.7395 134.752
3.62373 -12.727 132.936
4.21536 -12.8193 133.019
3.58884 -12.6044 135.022
4.792 -12.8892 135.003
4.32442 -12.8155 135.016
3.03939 -8.08189 123.216
3.97646 -9.76227 121.863
3.63168 -7.9193 122.92
1.86734 -3.93777 126.674
0.240001 -0.99158 126.525
0.240001 -1.4807 126.675
0.240001 -4.41207 120.692
0.240001 -3.43371 119.827
-0.304084 -4.46167 120.875
2.03839 -4.24814 120.084
-0.32 -4.42479 120.978
-0.960002 -0.330748 116.935
-0.960002 -0.330713 117.392
-0.960002 -0.987854 128.135
-0.960002 -0.980611 125.966
-0.960002 -0.430967 127.904
5.01601 -12.8995 137.384
-0.32 -3.06495 126.542
-0.519474 -1.7001 128.358
-0.32 -2.05779 128.07
-1.10618 -1.31006 128.201
-1.06233 -1.40794 128.109
-0.704329 -1.47939 128.457
0.254969 -1.56699 127.861
4.69978 -12.874 135.068
4.19673 -12.7912 135.414
3.63616 -12.7069 135.036
2.21988 -7.55884 122.965
0.240001 -1.99238 118.552
5.56545 -12.9831 137.663
3.25863 -10.2246 135.961
3.57604 -10.5535 135.999
3.25261 -11.0044 136.688
0.471456 -1.04046 127.684
1.54436 -2.51624 128.146
1.14303 -1.64262 127.676
0.857253 -2.10888 128.347
0.234379 -0.981263 127.828
5.71381 -11.6501 135.64
5.17522 -10.4754 134.904
4.02146 -10.3121 134.304
5.29877 -12.4123 135.765
-11.2497 -8.28175 133.203
-10.1847 -8.86347 132.892
-9.75526 -8.42567 133.511
-11.5228 -7.99684 135.083
-11.5117 -8.11662 135.103
-10.9053 -8.44547 135.125
-9.77985 -8.43418 134.704
-10.1504 -8.80122 134.965
-1.14082 -1.10202 128.099
-9.3831 -6.27759 134.287
-9.40189 -6.18993 134.656
3.76008 -10.2796 134.616
2.43218 -10.0989 134.659
3.7578 -10.2748 134.167
2.98928 -11.3189 134.246
3.08363 -11.5211 134.373
3.57902 -12.5826 135.043
3.41006 -10.1002 121.381
3.49804 -10.3983 121.119
-6.60009 -5.28916 123.227
-8.69119 -6.70964 121.283
-8.10278 -4.8538 123.228
-9.37017 -5.69151 122.073
-7.70238 -7.80834 134.837
-8.83018 -7.48261 134.844
-5.96968 -8.30877 134.825
-9.12209 -7.78019 134.424
-9.09335 -7.93603 134.26
-8.42476 -6.48414 133.7
-6.24086 -4.92887 132.206
-9.35774 -6.42259 134.282
-7.84939 -6.52209 133.341
-9.37086 -6.33472 134.046
6.04339 -10.4145 116.881
6.13744 -11.2617 116.876
6.55896 -10.4848 116.881
-9.34208 -5.87268 122.447
-9.77291 -6.1385 122.021
-11.4619 -8.08265 140.155
-11.4667 -8.00007 140.415
-11.49 -8.10179 137.307
-11.5544 -7.39237 137.315
5.024 -12.9169 135.848
3.63666 -12.7061 135.12
-9.04207 -7.8077 126.451
-9.08888 -7.50576 125.827
4.04165 -7.87465 122.775
2.03573 -3.54553 126.895
-9.1163 -7.78219 133.846
-9.01414 -8.46697 135.688
-9.09482 -7.92617 134.234
6.01231 -11.4428 119.242
5.59884 -10.3871 120.213
6.51463 -10.5071 119.725
3.55206 -12.8427 120.836
4.26812 -12.9762 118.857
2.85431 -11.2929 122.327
3.26596 -10.7109 120.986
-8.16598 -6.99537 121.724
-8.98487 -7.82735 120.753
-6.78108 -7.72719 120.835
-7.42903 -8.60663 119.811
-9.11662 -7.08725 121.023
-9.18859 -6.68292 121.171
-9.48008 -8.33048 120.166
-10.1723 -9.0338 119.345
-11.2292 -8.46573 118.894
0.00524344 -0.367413 125.034
0.00524299 -0.341099 117.153
2.46146 -6.48318 121.952
2.34398 -7.00625 122.444
-0.0683851 -0.786252 127.331
-9.12921 -7.00719 120.876
-9.00114 -7.82176 122.374
-8.18166 -6.99753 122.726
16.9133 -32.0081 -174.516
16.9133 -32.0081 -174.519
3.40788 -10.7084 131.823
2.98517 -11.3181 133.883
2.92643 -10.1257 130.579
-0.692469 -0.182094 127.924
-1.89716 -0.84777 127.645
3.5427 -12.8578 119.255
2.83633 -11.2894 120.739
5.74691 -11.6534 132.566
3.7377 -10.2328 130.216
5.20746 -10.4266 129.558
4.49689 -10.393 135.921
5.16921 -10.4845 135.899
5.70919 -11.6497 136.069
3.6489 -12.6864 137.187
5.01964 -12.9074 136.686
3.05169 -11.4112 136.175
3.01098 -11.323 136.162
3.76684 -10.2937 135.944
-0.907544 -0.947286 125.915
-0.453019 -0.667749 128.236
-1.646 -1.41641 126.628
-1.53318 -1.62775 128.137
-0.515919 -0.870894 128.291
-0.32 -4.3214 125.587
-0.32 -0.921201 128.172
4.49824 -8.70191 116.89
2.03082 -4.23477 116.914
2.69604 -5.43869 120.968
4.58093 -8.85163 116.703
-11.6711 -6.24772 136.106
-10.7718 -5.75082 135.972
-10.5319 -5.87929 135.98
-11.6383 -6.60204 136.165
-27.5032 -19.1956 -174.416
-32.1877 -17.8443 -174.302
-32.3598 -17.7947 -174.298
-0.0873675 -0.399887 117.228
-0.32 -0.547559 117.419
-0.32 -0.574033 125.348
-0.0762467 -0.419182 125.113
2.45327 -10.115 135.986
3.75386 -10.2666 133.394
-9.25492 -7.88834 136.253
-9.14209 -7.77332 136.416
-9.1134 -7.92885 136.253
4.77623 -9.20524 116.261
5.38345 -10.3047 114.887
4.59977 -8.88537 120.083
5.40597 -10.3451 118.64
-11.5297 -8.12884 133.285
-11.571 -7.47685 134.997
-9.05622 -7.80283 127.861
-9.24379 -6.92759 131.548
-11.5164 -8.1198 134.629
-11.5298 -7.86366 135.575
-9.63474 -8.38398 127.666
-10.1798 -8.93149 127.483
-9.31164 -6.47281 130.325
-10.5436 -5.80429 129.454
-11.6778 -6.58222 132.569
-9.35939 -6.50727 136.023
-11.5808 -7.22254 136.268
-1.72007 -1.4363 118.565
-0.572119 -0.734198 125.591
-0.32 0.0212482 116.916
-0.32 -0.00201672 116.936
-0.32 -0.114058 126.97
-0.32 0.0223294 127.077
-0.106412 -0.364313 127.528
-0.830937 -0.259433 116.935
-0.349585 0.00653818 116.936
-0.32 -0.545939 116.933
-32.4692 -17.7631 -174.605
-32.4385 -17.772 -174.519
2.93768 -11.3089 129.689
5.05486 -10.488 137.819
3.61192 -12.7461 130.944
4.81564 -12.8921 135.084
-0.43687 -0.0408585 127.983
-0.907892 -3.11223 122.536
-0.32 -1.87417 128.246
-0.32 0.0223691 127.451
-0.32 -4.31431 125.903
-0.32 -4.3653 123.63
0.459814 -2.55467 127.809
0.145842 -1.04082 127.888
16.9133 -32.0081 -172.234
0.00869702 -0.572684 127.772
1.51216 -3.29484 125.61
3.75315 -7.35237 122.388
3.75822 -7.35578 122.39
2.38726 -4.26658 125.308
1.39861 -2.18161 127.19
-0.266825 0.0167382 127.261
30.3864 12.7203 -174.519
30.384 12.7249 -173.86
30.7012 12.6273 -174.491
30.7012 12.6272 -174.519
0.152476 -2.06925 127.104
0.390873 -3.45411 126.858
3.12806 -6.93174 122.177
3.50121 -6.89629 122.049
4.51743 -8.7363 120.23
-8.47801 -8.62143 135.683
-4.35159 -9.18928 136.205
-5.03518 -9.09628 136.227
-9.1402 -7.77397 136.228
-8.39025 -7.02631 136.058
-8.87271 -8.4077 119.602
-8.9786 -7.82951 120.128
12.8904 -30.8476 -174.457
17.0614 -32.0508 -174.519
6.54062 -10.494 118.057
5.41446 -10.3462 118.635
5.41414 -10.3598 120
4.60578 -8.89614 121.162
-1.52996 -1.63464 128.141
-1.74911 -1.16504 127.845
-1.24596 -2.39166 121.907
-0.288059 -0.0354912 127.145
-0.320554 0.0233722 127.456
-1.58542 -0.67541 129.047
-1.81958 -0.993228 128.676
17.6661 -32.2201 -174.519
17.4358 -32.1556 -174.519
17.7876 -31.8022 -173.727
-8.21972 -7.00278 125.158
-9.03836 -7.80897 126.082
-11.7917 -6.52503 122.193
-11.7387 -7.35136 120.078
-10.5544 -5.73566 123.481
-9.60607 -8.37406 126.276
-9.29596 -8.06265 126.372
-9.25533 -6.43218 123.605
-11.6433 -8.20626 121.77
-11.7485 -7.26354 119.904
-10.1785 -8.9489 126.097
-9.92008 -6.05499 121.571
32.2644 18.0054 -174.583
32.1872 17.7398 -174.579
3.77535 -10.3115 137.617
2.89703 -11.3011 126.1
3.71062 -10.1762 124.896
3.78299 -10.3275 139.119
4.99427 -12.8523 141.563
4.80958 -12.8311 140.81
5.60868 -11.6398 145.405
5.11752 -10.5626 144.47
3.03209 -11.3271 138.027
3.67276 -12.6479 141.216
3.29309 -10.9508 136.76
4.99853 -12.8615 140.743
3.65314 -12.6795 137.903
3.02247 -11.3253 137.178
5.01817 -12.9042 136.968
5.1765 -12.6207 136.573
3.78967 -7.2157 122.258
1.66632 -3.57379 127.13
1.55545 -2.51736 127.117
2.33884 -4.1944 126.755
1.7023 -3.63893 127.112
0.22389 0.324256 128.136
0.968764 -1.30043 129.154
-27.999 -20.8803 -176.882
-32.7 -19.6472 -176.934
-32.2298 -17.9925 -174.519
-27.5238 -19.2656 -174.519
-28.0002 -20.8799 -183.318
-32.7 -19.6472 -183.318
5.17457 -12.9357 136.319
5.02153 -12.9115 136.323
5.02424 -12.9174 135.801
0.415763 -3.37717 127.007
1.48236 -7.08813 122.738
-11.6298 -6.60629 136.935
-11.545 -6.64886 144.66
-9.27931 -7.02941 137.196
-9.38427 -6.52522 138.992
-10.5179 -5.96934 143.815
0.757832 -14.0415 116.862
4.10233 -15.0121 116.857
1.04955 -1.45123 117.865
0.643372 -1.72274 118.21
0.571885 -0.462119 129.849
0.215146 0.319505 129.202
0.948923 -7.13882 122.92
0.287341 -1.07715 127.802
0.174079 -5.41842 124.549
0.00869702 -0.572684 127.772
-0.32 -4.41721 121.315
-0.19438 -4.69606 121.055
-0.32 -4.42766 120.85
3.75729 -7.35988 122.393
3.56123 -8.23308 123.216
1.67022 -3.61093 127.13
-0.32 -2.36671 119.027
-1.05473 -2.85784 119.65
3.64401 -12.6943 136.362
32.0967 17.7551 -174.519
32.0738 17.6899 -174.397
32.154 17.7385 -174.519
0.240001 -0.9926 116.931
0.240001 -1.0023 25.8021
0.192237 -0.906125 116.932
-0.32 -0.582369 116.933
-0.0824581 -0.418448 26.3105
-0.32 -0.269315 26.6011
0.194283 -0.909759 117.607
-0.32 -0.584163 117.451
1.53 -3.3278 119.401
-0.32 -3.47969 120.011
3.77124 -7.38513 122.362
6.67413 -13.3517 119.164
5.87615 -11.6661 120.561
-19.2027 32.2303 -176.594
-19.1969 32.2513 -183.318
-18.0277 31.9899 -174.519
-18.4468 32.0732 -174.519
-18.0279 31.989 -174.235
-11.2678 -10.5513 116.88
-3.02081 -12.9448 116.868
-8.2823 -24.7401 27.549
-7.46628 -24.9755 104.083
0.243097 -14.7258 116.062
-5.8605 -11.3953 117.568
-11.4847 -10.5174 116.853
-13.6 -19.04 -183.318
-9.29794 -4.96051 -183.318
-8.78758 -4.6554 123.229
-6.507 -5.31613 123.227
-11.4572 -8.07946 140.63
-9.15695 -7.76822 137.896
-9.89897 -8.47538 140.481
-10.1926 -8.75519 141.504
-9.21587 -7.37334 136.835
-13.4862 -7.25201 117.971
-11.8519 -6.34899 117.971
-10.1897 -8.79544 138.303
-9.84683 -8.45734 137.952
-11.4913 -8.1027 137.173
-11.5434 -7.60259 136.539
-9.15035 -7.77048 137.238
-11.5945 -6.62402 140.153
-11.5406 -7.65635 136.34
-10.5261 -5.91656 139.223
1.44251 -23.2707 -183.318
5.08452 -9.79526 -183.318
13.9252 -26.7815 -183.318
14.0957 -26.1095 -183.318
-26.4008 -15.4398 -183.318
-26.0396 -14.2111 -183.318
-8.15713 -6.99415 121.158
-4.3281 -9.03393 120.26
5.40609 -10.3453 118.659
4.60198 -8.88933 120.48
16.6867 9.41202 11.8681
4.72345 -6.9511 19.3812
16.9133 -32.0081 -183.318
16.56 -33.28 -183.318
16.56 -33.28 -176.919
16.913 -32.0092 -174.519
-14.3671 25.4298 -98.2887
-31.5981 -15.7696 -52.999
-30.9929 -16.9382 -52.0239
5.6765 -11.6465 139.106
5.15557 -10.5051 138.161
-0.32 -0.244376 26.6086
-2.10387 -1.53939 76.7822
-2.54742 -1.65853 28.4946
-0.747265 -3.51477 120.152
16.9133 -32.0081 -129.488
16.9133 -32.0081 -50.797
12.5584 -32.1595 -176.919
12.8821 -30.8806 -174.519
17.4379 -32.1594 -174.524
-14.3807 25.4453 -183.318
-19.8899 26.747 -174.519
-19.8905 26.7453 -183.318
-20.6402 26.9594 -183.318
-20.6398 26.9607 -176.485
-19.938 26.7608 -174.519
-10.2052 -8.58131 155.333
-9.61549 -8.37732 126.733
-9.46669 -8.32585 119.516
2.21839 -9.93601 121.209
3.53979 -12.8625 118.765
-9.26644 -6.44019 124.93
-10.1797 -8.93291 127.369
-11.7536 -6.54415 125.662
-10.5523 -5.74908 124.65
-11.5911 -8.1707 127.058
3.35417 -16.4234 115.294
4.32272 -14.5964 117.317
-9.23695 -6.41891 121.411
-9.65202 -7.59807 187.218
-9.78839 -6.81685 187.218
-11.8091 -6.51628 120.605
-10.5575 -5.71542 121.721
-10.44 -6.46812 187.218
-11.0778 -6.88343 187.218
-10.1717 -9.04276 118.633
-10.2343 -8.18039 187.218
7.11852 -13.4458 116.865
8.72472 -16.3537 116.849
7.00638 -11.7775 15.5753
5.88368 -9.40397 17.447
6.14912 -11.693 95.2048
5.3398 -10.2265 107.617
-0.320559 0.0233408 127.076
-1.95504 -0.88028 120.588
0.292878 -5.67163 124.77
0.516711 -1.4923 128.845
4.36891 -8.46708 123.215
1.13162 -7.52918 123.218
-1.97504 -0.891518 118.149
-0.304706 -0.00643942 116.936
-0.320692 0.0225011 116.915
4.32653 -8.39037 123.158
4.59404 -8.87511 119.055
4.61521 -8.91304 122.855
3.69295 -10.1392 121.422
-10.633 -5.6752 121.738
-9.78654 -5.21403 34.9347
-1.9937 -0.902 115.873
-2.36957 -1.10874 128.413
19.1031 -27.276 -174.519
19.1031 -27.276 -173.804
18.0712 -32.3335 -174.519
19.1031 -27.276 -165.15
18.8447 -28.1651 -166.834
24.8057 -7.65615 -127.971
29.822 9.60252 -95.267
4.58197 -8.85349 116.889
-23.2912 -20.4106 -174.519
-14.7268 -22.7276 -174.519
31.9132 12.2157 -183.318
30.6869 12.5783 -183.318
30.7152 12.623 -174.519
31.9232 12.2514 -176.919
2.41945 -4.15034 116.914
1.21014 -1.54949 116.928
27.1938 19.1802 -183.318
27.5209 20.2269 -183.318
27.5209 20.2269 -177.524
27.1938 19.1802 -175.469
-12.4971 31.845 -183.318
-12.8081 30.7192 -183.318
-12.7736 30.7093 -174.753
-12.4715 31.8375 -176.942
-17.9659 32.2071 -174.661
-17.6442 33.3393 -176.867
32.2643 18.0053 -176.076
32.4907 18.784 -177.597
-11.4951 -10.3886 116.973
-21.7794 -20.8467 104.081
-21.1292 -21.0343 41.9667
8.40553 -14.7355 13.2428
7.37246 -13.9098 76.4421
21.5087 -11.3677 0.670438
8.14645 -9.68835 15.0174
19.9762 -16.6888 0.670438
7.76512 -14.6274 13.9387
7.10373 -13.4187 119.218
1.1981 -1.54528 117.91
2.35824 -1.95076 23.3242
3.01209 -11.3233 136.26
5.15754 -10.5021 137.835
3.63548 -12.708 134.921
5.70203 -11.649 136.735
5.02783 -12.9252 135.113
-19.5458 26.6469 -183.318
-19.5453 26.6487 -174.519
-31.6162 -13.286 -175.652
-31.6185 -13.2945 -183.318
-30.9331 -13.4291 -183.318
-18.0907 31.7679 -103.452
1.99531 -3.2896 119.248
4.51341 -8.73067 104.584
4.48367 -8.67512 120.748
3.75729 -7.35988 122.393
14.5665 -26.9618 -183.318
18.8447 -28.1651 -183.318
-18.3525 30.8467 -183.318
-31.7902 -13.924 -175.639
-19.1183 32.5395 -176.601
-18.376 32.3254 -174.519
-18.3954 32.2562 -174.519
-31.2017 -13.3661 -174.519
-31.3899 -14.0366 -174.519
-31.7902 -13.924 -183.318
-19.1183 32.5395 -183.318
-2.01338 -26.5484 104.084
-1.18476 -26.7875 19.5836
31.9221 17.8163 -174.536
32.4907 18.784 -176.452
32.2644 18.0054 -175.024
27.1938 19.1802 -174.521
26.2953 19.4394 -174.519
-27.5032 -19.1956 -174.519
-27.5049 -19.1951 -183.318
4.8054 -9.26845 18.6047
5.42418 -10.3778 121.673
-18.1439 32.2584 -183.318
-18.1433 32.2583 -174.519
12.8854 -30.8462 -158.54
17.4413 -32.1604 -125.679
12.8872 -30.8467 -164.275
5.25517 -10.3545 121.648
4.85968 -10.9526 187.218
5.15854 -11.5954 187.218
18.0434 -27.9397 -55.1075
18.0434 -27.9397 -90.354
18.0434 -27.9397 -166.833
17.0633 -31.4681 -51.3691
17.438 -32.1594 -173.271
18.8447 -28.1651 -173.789
-14.7699 -22.8687 -174.519
-14.7699 -22.8687 -124.959
-14.48 -21.92 -174.519
5.11185 -13.1079 118.965
3.94521 -12.2081 187.218
4.7567 -12.3359 187.218
33.3708 17.3984 -183.318
19.283 -32.6916 -183.318
32.1872 17.7398 -183.318
32.1872 17.7398 -174.519
-9.53372 -6.39635 134.351
27.1938 19.1802 -174.519
27.1938 19.1802 -164.707
-10.5361 -5.85234 133.634
11.4766 -30.4398 104.086
5.73407 -17.7221 114.707
-9.54296 -6.39189 134.396
19.3826 10.9014 9.51915
6.60121 -12.52 15.7736
-0.32052 0.0235881 130.068
-12.7726 30.709 -174.519
-9.33729 -6.49132 133.386
-14.3034 25.3054 -183.318
-10.5382 -5.83901 132.475
-11.6711 -6.58556 133.175
-11.6283 -6.99681 133.694
6.00329 -11.4263 120.827
-10.0291 -6.13471 134.682
-11.6527 -6.5948 134.851
-2.70807 -1.30329 28.7671
-1.88767 -0.842437 128.802
-10.7265 -5.98971 134.696
11.0966 -20.6483 113.383
12.1002 -22.4765 7.10431
-10.2619 -6.01156 134.818
-11.6091 -6.9725 135.74
-11.543 -7.69704 135.755
0.370761 -27.2362 -16.4824
0.370761 -27.2362 -50.797
-12.7721 30.7089 -174.396
-12.7086 30.6905 -158.622
-0.0250634 -0.511632 127.124
-0.130771 -0.423849 127.395
-14.48 -21.92 -183.318
0.219452 -0.954443 125.91
-13.6 -19.04 -174.519
0.208749 -0.935441 122.379
-0.32 -0.611078 125.217
-0.32 -0.615785 126.576
-0.232346 -0.672108 126.841
12.8358 -30.8319 -2.50508
12.8512 -30.8363 -50.797
-9.33847 -6.49217 133.527
1.44251 -23.2707 -174.519
0.639998 -26.24 -183.318
0.639998 -26.24 -174.519
-9.521 -8.34464 122.15
-11.2553 -8.45146 118.9
-10.1746 -9.00207 121.869
0.370761 -27.2362 -174.271
30.3528 12.7861 -165.26
30.1125 13.2576 -98.9347
30.8233 13.0475 -98.9297
30.7161 12.6787 -165.257
-0.960002 -0.953825 117.943
13.1553 -29.8158 -183.318
13.9224 -26.7807 -174.519
13.1525 -29.815 -174.519
-8.3774 -7.02453 135.237
-7.79945 -7.33005 134.877
-19.8891 26.7491 -163.823
-19.5447 26.6508 -163.831
-9.13783 -7.92319 134.26
-9.23487 -7.89517 134.261
-30.9026 -13.3217 -85.9234
-30.9304 -13.4194 -174.519
-9.25569 -7.91501 134.334
-18.3525 30.8467 -174.519
-18.3525 30.8467 -172.009
19.1031 -27.276 -91.9964
-8.78824 -6.69721 125.034
-8.24384 -7.00611 126.7
-27.5005 -19.1964 -160.668
0.370761 -27.2362 -82.4906
-17.6442 33.3393 -183.318
32.4907 18.784 -183.318
-8.35331 -7.02121 133.697
-9.34478 -6.49672 134.28
-9.12023 -7.78083 134.238
-26.3991 -15.4402 -174.519
-27.2346 -18.2758 -183.318
-27.2329 -18.2763 -174.519
-7.00938 -3.67275 124.665
-6.52653 -3.81194 124.665
32.1619 17.9488 -174.425
0.827429 -1.75373 127.065
0.74902 -1.91311 126.707
31.6384 17.6649 -103.69
31.9192 17.8172 -141.628
-9.04245 -8.31349 135.849
12.8905 -30.8476 -174.519
-6.3687 -8.10898 136.131
-7.93766 -7.2548 134.755
-7.52155 -8.38454 136.242
27.1938 19.1802 -103.918
1.65399 -3.45631 127.128
-17.9659 32.2071 -174.379
-18.0166 32.0289 -174.053
-2.77966 -1.33536 128.082
-7.66911 -4.56716 123.624
-31.3076 -17.1121 -52.2979
-18.3525 30.8467 -102.475
-12.4882 30.627 -103.918
0.970767 -1.30467 129.151
-14.0538 24.8627 -97.8211
0.944053 -1.30374 129.144
-9.81441 -8.44613 136.38
-10.188 -8.81855 136.464
-11.4988 -8.10779 136.415
-27.635 -15.0927 -183.318
-0.960002 -2.94188 125.082
-0.960002 -2.99656 122.644
-0.960002 -1.2013 128.224
-13.47 -7.24296 119.447
-11.6706 -8.22487 119.002
-14.3525 -7.73668 38.9131
-9.48894 -5.04298 122.662
17.4465 -32.1619 -50.797
-27.4788 -19.2026 -50.797
-0.640548 -3.68207 123.033
-30.2313 -18.4087 -50.797
-33.2941 -17.5252 -176.919
-32.2472 -13.7955 -176.919
-32.4299 -17.7414 -174.519
-0.32 0.0212504 116.937
-17.9659 32.2071 -173.368
2.51524 26.2991 -115.92
-18.0166 32.029 -173.37
-7.32468 -5.9817 134.504
-33.2941 -17.5252 -183.318
-32.2472 -13.7955 -183.318
-11.3588 19.9839 -93.7979
-3.55543 28.0502 -103.918
31.9221 17.8163 -174.055
-9.61856 -5.11461 122.558
4.11273 -9.5811 122.074
-18.0922 32.1657 -174.519
4.37978 -10.2338 121.522
-31.1268 -14.1106 -84.3858
-11.6482 -6.59708 135.264
-18.0166 32.0289 -174.313
-11.6838 -6.25485 134.83
0.240001 0.332281 116.497
-10.7563 -5.74238 134.382
0.240001 0.325473 26.1984
-10.5344 -5.86317 134.578
0.240001 -0.620893 25.916
-31.1268 -14.1106 -174.519
-31.1268 -14.1106 -54.7597
-11.5736 -7.31244 136.171
17.6647 -32.2248 -174.519
18.8447 -28.1651 -174.519
-11.8239 -6.33333 120.776
-10.3805 -24.1348 104.083
-12.6549 -6.79874 37.4339
1.84373 -12.5978 118.549
-11.1692 -23.9074 30.7888
2.82887 -11.288 120.08
-9.79576 -8.43968 135.475
-10.1866 -8.83806 134.913
31.9221 17.8163 -174.519
-17.9659 32.2071 -174.519
-17.9659 32.2071 -183.318
-10.5282 -5.90314 138.055
-9.37372 -6.51761 137.733
31.9229 17.8161 -183.318
0.240001 0.167329 126.167
0.240001 -0.218276 124.808
0.240001 -0.511582 123.773
-11.5097 -8.11527 135.302
0.240001 -0.954613 122.211
0.240001 -0.967284 125.868
0.240001 -0.73175 126.444
18.8447 -28.1651 -90.3663
32.1842 17.7297 -174.519
32.2225 17.9823 -174.519
-0.104293 0.13283 127.149
-0.960002 -0.950448 116.931
-0.18285 -0.121319 127.449
31.1716 14.2458 -174.519
-0.960002 -0.650701 27.1505
-0.156686 -0.273305 127.422
-0.960002 -0.33751 27.244
-27.4782 -19.2028 -47.7099
17.45 -32.1629 -1.32972
15.6678 -31.6488 0.670438
29.5381 16.5122 0.670438
16.1813 -29.8657 0.670438
-0.321876 0.0150445 26.688
-1.98503 -0.897125 116.932
24.1199 13.511 -97.4875
-1.73509 -1.44034 116.929
-18.0152 32.0338 -103.735
-1.57345 -1.59326 125.772
-32.1877 -17.8443 -174.519
18.8447 -28.1651 -55.1132
-0.832017 -0.260003 117.296
-31.1268 -14.1106 -183.318
-0.34887 -0.565886 117.442
-0.5618 -0.11751 26.897
4.04104 -7.88449 19.8097
-32.1877 -17.8443 -183.318
-32.1877 -17.8443 54.3773
-32.1877 -17.8443 -52.9907
-32.1877 -17.8443 104.08
-32.4692 -17.7631 -174.519
0.204566 0.313756 130.492
17.4379 -32.1594 -174.519
1.06576 0.781694 25.4789
6.02578 -11.4674 116.875
-32.1877 -17.8443 -173.815
-32.1079 -17.5634 -173.813
-0.323241 0.00644878 -77.3239
-17.9659 32.2071 -103.918
-6.24164 -4.90196 134.259
31.9158 17.8181 -103.918
-8.54615 -5.4609 134.484
6.02359 -11.4634 117.26
-8.36963 -7.02346 134.74
19.1031 -27.276 -183.318
20.7004 -27.6519 -183.318
25.91 14.5 -98.9642
20.7004 -27.6519 -176.918
19.4694 -27.3622 -174.519
-2.9823 -1.70132 129.906
31.9158 17.8181 -103.918
31.9066 17.8208 -1.39326
7.9951 -16.1419 116.85
9.7913 -19.936 113.705
-18.0166 32.0289 -174.519
11.8697 -22.0591 7.46779
-18.0168 32.0283 -183.318
18.069 -32.3414 -174.519
-2.74722 -1.31725 130.507
32.2641 18.0046 -183.318
-2.4277 -1.14071 130.353
17.4574 -32.165 104.087
33.3708 17.3984 -176.919
-32.4942 -17.7559 104.08
19.283 -32.6916 -176.918
-32.1008 -17.5385 104.397
-0.32 0.0212482 116.916
-0.32 0.011648 26.685
-2.42001 -1.13648 130.096
32.2662 18.0117 -104.208
-6.19232 -4.99612 123.621
17.6647 -32.2248 -50.797
-8.29756 -4.38461 123.625
27.5209 20.2269 -176.452
-32.1048 -17.5526 -52.9919
-32.1079 -17.5634 -173.892
-32.1817 -17.6043 -173.975
-4.34964 -9.17639 134.882
-32.4897 -17.7572 54.7163
-9.12699 -7.77851 134.911
-32.1021 -17.543 54.3785
32.2689 18.0209 -1.70891
-32.4692 -17.7631 -174.295
17.6647 -32.2248 -1.57072
-31.1268 -14.1106 -168.851
-6.87234 -8.83323 134.965
4.25835 -12.9746 118.856
-31.2959 -17.1155 -183.318
-19.8077 -10.7506 43.6663
5.02844 -12.9265 134.996
12.5604 -32.1601 -183.318
16.7027 -30.8293 -183.318
-32.1079 -17.5635 -174.519
12.8932 -30.8484 -183.318
25.694 14.3806 -98.786
-32.1081 -17.5643 -183.318
19.1031 -27.276 -56.0584
-32.4684 -17.7633 -183.318
-14.7631 -8.40644 117.971
17.4503 -32.163 2.6692
-10.736 -5.73132 132.301
-11.5814 -9.32474 117.971
-32.48 -17.76 -53.3185
-11.7044 -6.26635 132.771
4.02774 -10.8391 187.218
3.58911 -11.4343 187.218
-15.2967 -8.25242 117.971
-10.9975 -7.76622 187.218
5.36231 -12.6354 119.488
-0.322559 0.0107461 -25.3243
-13.2157 -7.39882 117.971
5.10461 -13.0921 120.356
3.57428 -12.8068 124.588
3.70306 -10.1603 123.409
32.2644 18.0054 -174.519
2.89634 -11.301 126.038
-7.8556 -8.54938 134.971
0.370761 -27.2362 -174.519
-30.3439 -18.3762 104.08
17.6647 -32.2248 -183.318
-8.96445 -8.48128 135.687
25.6915 14.3729 -183.318
-13.1865 -7.39765 119.377
-0.324632 -0.00231081 -183.318
-13.7898 -7.42189 90.2609
-7.62279 -7.42344 134.766
17.4373 -32.1592 -183.318
32.1872 17.7398 -103.918
-31.0311 -18.178 53.0793
32.1872 17.7398 -1.70814
-18.0142 32.0374 -53.1899
10.3173 -30.1054 6.67513
5  1148 862 699 674 651  255 0 0
11  1148 670 672 804 805 1069 760 848 1084 1015 1146  255 0 0
5  1148 651 650 669 670  255 0 0
5  1151 1116 905 1118 681  255 0 0
6  1122 1120 1047 813 980 979  255 0 0
6  1122 1051 823 930 1112 1120  255 0 0
5  1122 496 497 1044 1051  255 0 0
5  1151 681 423 535 698  255 0 0
5  1148 1146 765 770 862  255 0 0
7  1055 1107 1127 1053 1060 459 497  255 0 0
3  1055 496 973  255 0 0
3  1057 698 535  255 0 0
5  1057 838 293 292 548  255 0 0
4  1055 973 1101 1107  255 0 0
5  1057 535 422 510 838  255 0 0
3  1055 497 496  255 0 0
5  1127 1107 1101 1061 1099  255 0 0
4  1127 1103 1052 1053  255 0 0
13  1134 1038 1049 1032 869 746 1004 965 1113 1105 1099 950 687  255 0 0
9  1134 1062 1040 1119 1071 937 1075 1076 1036  255 0 0
5  1124 1086 872 873 1037  255 0 0
3  1124 1034 1035  255 0 0
4  1127 1099 1105 1103  255 0 0
5  1124 1035 1156 854 1086  255 0 0
3  1124 1037 1034  255 0 0
4  1122 979 971 496  255 0 0
5  1038 740 494 493 1049  255 0 0
7  1038 1134 1036 857 679 1058 994  255 0 0
4  1103 1088 1054 1052  255 0 0
13  1035 890 877 1033 970 1053 1052 1153 779 1006 645 816 1156  255 0 0
4  1103 1105 1090 1088  255 0 0
6  1105 1113 1149 659 1131 1090  255 0 0
7  1081 826 814 639 702 701 806  255 0 0
5  1081 699 862 770 1012  255 0 0
4  1120 1112 959 1047  255 0 0
5  1081 1079 986 827 826  255 0 0
8  1081 806 794 798 1047 959 674 699  255 0 0
4  1117 1100 1101 973  255 0 0
7  1099 1061 1100 1109 988 998 686  255 0 0
4  1079 990 642 640  255 0 0
4  1117 997 1109 1100  255 0 0
7  1155 1042 685 954 981 1062 1134  255 0 0
6  1155 686 998 951 799 1042  255 0 0
4  1134 687 686 1155  255 0 0
4  1099 686 687 950  255 0 0
5  1151 1144 805 804 1116  255 0 0
5  1151 698 1057 1000 1144  255 0 0
5  1144 847 1070 1069 805  255 0 0
5  1144 1000 1082 1089 847  255 0 0
7  1084 848 563 184 562 819 775  255 0 0
5  1139 562 184 185 849  255 0 0
6  1139 1025 1010 817 819 562  255 0 0
5  1139 849 1024 624 1025  255 0 0
4  1057 548 547 1000  255 0 0
4  1117 973 812 997  255 0 0
5  1079 640 641 810 986  255 0 0
4  1108 1096 967 1034  255 0 0
6  1034 967 695 891 890 1035  255 0 0
4  1106 1094 1152 1154  255 0 0
4  1106 1076 1075 1094  255 0 0
8  1108 1154 1152 902 755 1121 1045 1096  255 0 0
9  1034 1037 784 782 1036 1076 1106 1154 1108  255 0 0
4  967 829 694 695  255 0 0
5  967 837 293 838 829  255 0 0
5  1096 1045 834 837 967  255 0 0
6  1094 1075 937 901 902 1152  255 0 0
6  859 241 145 240 608 1056  255 0 0
5  859 545 19 10 241  255 0 0
8  859 200 201 282 1 46 283 545  255 0 0
6  1090 1131 1123 1143 1054 1088  255 0 0
5  1086 854 855 1078 872  255 0 0
5  1084 925 766 765 1015  255 0 0
4  1084 775 776 925  255 0 0
5  1079 1081 1012 773 1011  255 0 0
5  1079 1011 946 947 990  255 0 0
4  1010 1025 934 983  255 0 0
3  1065 938 937  255 0 0
4  1010 983 852 851  255 0 0
4  1011 860 879 946  255 0 0
4  1063 975 880 952  255 0 0
4  1042 977 975 1063  255 0 0
5  1065 944 852 983 938  255 0 0
5  1065 937 1071 1119 944  255 0 0
5  1063 952 954 685 1042  255 0 0
6  1062 981 982 944 1119 1040  255 0 0
5  1053 970 968 922 1060  255 0 0
4  1054 1143 1153 1052  255 0 0
4  1044 497 459 458  255 0 0
4  1051 592 591 823  255 0 0
4  1044 458 457 822  255 0 0
5  1051 1044 589 588 592  255 0 0
4  1001 547 549 839  255 0 0
4  1045 1121 919 1023  255 0 0
4  1001 839 750 749  255 0 0
4  1045 1023 835 834  255 0 0
4  1044 822 590 589  255 0 0
4  827 986 810 809  255 0 0
6  1042 799 642 990 947 977  255 0 0
4  1038 994 992 740  255 0 0
6  1037 873 1080 785 780 784  255 0 0
4  1036 782 783 857  255 0 0
4  1033 877 878 968  255 0 0
5  822 757 758 842 931  255 0 0
3  1033 968 970  255 0 0
3  822 457 757  255 0 0
5  1029 1024 849 185 563  255 0 0
5  1029 521 518 622 624  255 0 0
4  839 753 752 750  255 0 0
3  1029 624 1024  255 0 0
3  983 934 938  255 0 0
4  1025 624 623 934  255 0 0
4  1023 753 836 835  255 0 0
4  1023 919 752 753  255 0 0
4  1012 924 774 773  255 0 0
3  1015 765 1146  255 0 0
4  1012 770 769 924  255 0 0
4  1011 773 771 860  255 0 0
4  1010 851 820 817  255 0 0
5  1004 746 745 1002 660  255 0 0
4  1006 779 778 1003  255 0 0
4  1002 745 721 720  255 0 0
4  1002 963 659 660  255 0 0
4  1003 778 777 649  255 0 0
4  1003 646 645 1006  255 0 0
5  1004 660 659 1149 965  255 0 0
6  1003 649 643 644 647 646  255 0 0
6  1002 720 559 964 1147 963  255 0 0
5  1001 749 1073 751 547  255 0 0
4  1000 547 751 1082  255 0 0
5  997 915 914 988 1109  255 0 0
6  998 988 914 911 918 951  255 0 0
4  997 812 811 915  255 0 0
4  981 954 952 982  255 0 0
4  982 952 880 976  255 0 0
4  982 976 852 944  255 0 0
4  975 946 879 880  255 0 0
4  977 947 946 975  255 0 0
6  976 880 879 821 851 852  255 0 0
5  968 878 923 841 922  255 0 0
4  964 1126 1123 1147  255 0 0
3  965 1149 1113  255 0 0
4  963 1147 1135 659  255 0 0
4  959 1112 930 673  255 0 0
3  804 672 671  255 0 0
4  804 671 905 1116  255 0 0
3  959 673 674  255 0 0
4  918 642 799 951  255 0 0
3  918 911 910  255 0 0
5  821 860 771 768 820  255 0 0
3  821 879 860  255 0 0
4  931 842 885 929  255 0 0
4  907 895 1142 940  255 0 0
4  891 695 694 828  255 0 0
4  891 878 877 890  255 0 0
4  940 1142 899 534  255 0 0
4  940 423 684 697  255 0 0
4  940 534 422 423  255 0 0
7  891 828 830 534 899 923 878  255 0 0
5  895 842 758 840 1142  255 0 0
4  895 907 906 893  255 0 0
5  1142 840 841 923 899  255 0 0
4  964 559 553 558  255 0 0
6  872 727 726 781 1080 873  255 0 0
6  1132 723 722 719 718 725  255 0 0
6  964 897 413 724 777 1126  255 0 0
4  872 1078 1077 727  255 0 0
5  1132 654 386 599 723  255 0 0
5  1132 725 705 657 654  255 0 0
5  964 558 560 898 897  255 0 0
10  870 748 747 1039 738 733 246 123 127 428  255 0 0
4  870 545 283 546  255 0 0
4  855 715 604 716  255 0 0
17  870 546 45 540 286 158 506 734 737 708 676 407 675 653 1095 296 748  255 0 0
6  855 716 843 636 1077 1078  255 0 0
4  1121 755 754 919  255 0 0
3  919 754 752  255 0 0
6  938 934 623 900 901 937  255 0 0
4  673 650 651 674  255 0 0
4  929 885 650 673  255 0 0
4  931 929 673 930  255 0 0
4  925 776 767 766  255 0 0
4  924 769 772 774  255 0 0
4  922 457 458 1060  255 0 0
5  922 841 840 757 457  255 0 0
4  750 520 521 749  255 0 0
5  750 752 754 903 520  255 0 0
3  623 519 900  255 0 0
4  903 754 755 902  255 0 0
4  520 903 900 519  255 0 0
4  917 640 642 918  255 0 0
5  917 700 704 641 640  255 0 0
4  918 910 700 917  255 0 0
4  915 795 911 914  255 0 0
4  795 915 798 794  255 0 0
4  911 795 700 910  255 0 0
4  671 669 893 906  255 0 0
4  907 905 671 906  255 0 0
4  903 902 901 900  255 0 0
4  534 830 510 422  255 0 0
4  669 650 883 894  255 0 0
4  669 671 672 670  255 0 0
4  894 883 842 895  255 0 0
4  895 893 669 894  255 0 0
4  885 842 883 650  255 0 0
4  869 1032 1030 692  255 0 0
11  869 747 748 948 932 1097 652 966 984 745 746  255 0 0
7  870 428 52 53 284 19 545  255 0 0
4  869 692 691 747  255 0 0
4  858 785 781 730  255 0 0
4  858 824 729 728  255 0 0
4  866 786 636 637  255 0 0
4  866 825 294 398  255 0 0
5  716 709 1111 402 843  255 0 0
6  866 398 1067 1059 726 786  255 0 0
4  858 730 731 824  255 0 0
4  866 637 831 825  255 0 0
4  770 765 768 771  255 0 0
6  859 1056 239 80 242 200  255 0 0
4  858 728 780 785  255 0 0
5  857 783 729 680 679  255 0 0
4  854 815 715 855  255 0 0
3  851 821 820  255 0 0
4  848 760 759 846  255 0 0
4  848 846 1087 563  255 0 0
4  847 1089 1072 1070  255 0 0
4  846 759 762 1087  255 0 0
4  845 833 570 568  255 0 0
6  844 1130 1129 832 833 845  255 0 0
4  843 1133 637 636  255 0 0
4  709 1007 430 429  255 0 0
5  709 716 604 603 1005  255 0 0
4  844 573 572 1130  255 0 0
3  843 1136 1133  255 0 0
5  845 568 569 573 844  255 0 0
3  709 429 1111  255 0 0
5  843 402 401 1137 1136  255 0 0
9  708 1007 1005 648 724 707 532 408 676  255 0 0
4  708 737 236 237  255 0 0
4  825 743 295 294  255 0 0
5  708 237 364 365 1007  255 0 0
5  825 831 987 985 743  255 0 0
3  840 758 757  255 0 0
3  839 549 753  255 0 0
4  753 549 291 836  255 0 0
6  837 834 835 836 291 293  255 0 0
4  832 1129 567 571  255 0 0
6  637 1133 1136 1114 265 431  255 0 0
6  831 433 432 566 1138 987  255 0 0
4  832 571 570 833  255 0 0
4  637 431 433 831  255 0 0
4  1156 816 815 854  255 0 0
5  724 648 643 649 777  255 0 0
3  724 413 412  255 0 0
3  1007 709 1005  255 0 0
3  744 987 1138  255 0 0
6  744 364 237 236 305 306  255 0 0
3  744 365 364  255 0 0
6  1130 572 574 169 567 1129  255 0 0
6  744 1138 1140 403 404 365  255 0 0
4  1007 365 404 430  255 0 0
4  830 828 694 510  255 0 0
4  838 510 694 829  255 0 0
3  563 185 184  255 0 0
3  1029 761 521  255 0 0
5  1089 1082 751 1073 1072  255 0 0
5  1087 762 761 1029 563  255 0 0
4  749 521 760 1069  255 0 0
5  1073 749 1069 1070 1072  255 0 0
3  1060 458 459  255 0 0
3  1061 1101 1100  255 0 0
5  827 809 808 814 826  255 0 0
4  824 1050 680 729  255 0 0
3  783 728 729  255 0 0
6  824 731 469 452 801 1050  255 0 0
5  823 591 587 590 822  255 0 0
4  822 931 930 823  255 0 0
4  1058 679 680 788  255 0 0
3  731 470 469  255 0 0
4  1058 788 996 994  255 0 0
6  1056 608 178 238 81 239  255 0 0
6  1050 626 629 996 788 680  255 0 0
7  742 526 525 451 449 452 756  255 0 0
5  742 211 212 472 471  255 0 0
5  1050 801 450 625 626  255 0 0
3  742 756 211  255 0 0
4  1047 798 797 813  255 0 0
4  818 776 775 819  255 0 0
4  818 1098 767 776  255 0 0
5  819 817 820 1098 818  255 0 0
4  715 647 603 604  255 0 0
4  815 646 647 715  255 0 0
4  816 645 646 815  255 0 0
4  813 807 972 980  255 0 0
4  814 808 638 639  255 0 0
4  813 797 796 807  255 0 0
4  812 807 796 811  255 0 0
7  810 641 704 703 638 808 809  255 0 0
3  806 701 794  255 0 0
5  741 74 295 743 736  255 0 0
3  741 73 74  255 0 0
5  740 992 248 739 1091  255 0 0
3  741 393 73  255 0 0
4  802 74 73 580  255 0 0
4  802 526 471 678  255 0 0
3  803 513 635  255 0 0
5  580 73 394 582 515  255 0 0
5  802 635 513 525 526  255 0 0
3  803 514 513  255 0 0
5  803 635 802 580 514  255 0 0
4  800 787 764 763  255 0 0
5  633 606 605 787 800  255 0 0
4  801 452 449 450  255 0 0
5  633 450 449 451 314  255 0 0
4  633 800 763 450  255 0 0
5  796 797 798 915 811  255 0 0
4  1118 1115 682 681  255 0 0
5  940 697 696 1115 1118  255 0 0
4  795 794 701 700  255 0 0
3  792 436 267  255 0 0
3  792 222 25  255 0 0
4  793 1114 303 501  255 0 0
4  793 595 187 188  255 0 0
3  790 689 499  255 0 0
3  790 22 24  255 0 0
6  791 300 213 362 15 302  255 0 0
3  791 331 304  255 0 0
3  564 567 169  255 0 0
5  564 441 434 23 499  255 0 0
6  789 440 37 336 166 337  255 0 0
7  789 577 576 437 86 89 439  255 0 0
5  791 304 303 301 300  255 0 0
3  793 501 595  255 0 0
4  793 188 265 1114  255 0 0
7  792 267 268 579 161 162 222  255 0 0
6  790 24 25 222 688 689  255 0 0
4  792 25 26 436  255 0 0
3  789 439 440  255 0 0
8  791 302 363 83 82 621 390 331  255 0 0
5  564 499 689 571 567  255 0 0
4  790 499 23 22  255 0 0
3  789 337 577  255 0 0
5  629 1092 1091 739 627  255 0 0
4  629 626 625 627  255 0 0
5  631 460 415 251 250  255 0 0
4  631 250 605 606  255 0 0
5  787 605 250 249 764  255 0 0
4  629 627 249 996  255 0 0
6  739 460 463 543 491 974  255 0 0
5  739 248 252 415 460  255 0 0
3  785 1080 781  255 0 0
4  786 727 1077 636  255 0 0
3  786 726 727  255 0 0
5  784 780 728 783 782  255 0 0
4  781 726 1059 730  255 0 0
5  730 1059 212 470 731  255 0 0
4  779 1153 1143 778  255 0 0
5  778 1143 1123 1126 777  255 0 0
4  774 772 771 773  255 0 0
4  772 769 770 771  255 0 0
4  768 765 766 767  255 0 0
6  764 249 627 625 450 763  255 0 0
5  762 759 760 521 761  255 0 0
4  756 452 469 211  255 0 0
4  211 469 470 212  255 0 0
6  748 296 297 949 933 948  255 0 0
4  747 691 1041 1039  255 0 0
3  745 984 721  255 0 0
4  675 367 366 653  255 0 0
4  743 985 617 736  255 0 0
4  744 306 985 987  255 0 0
3  742 471 526  255 0 0
4  738 1039 316 317  255 0 0
4  737 734 611 609  255 0 0
4  738 486 244 733  255 0 0
5  741 736 617 307 393  255 0 0
3  616 393 307  255 0 0
4  633 314 311 312  255 0 0
5  631 606 333 619 632  255 0 0
4  740 1091 489 494  255 0 0
3  739 488 489  255 0 0
4  738 317 904 486  255 0 0
5  737 609 597 332 236  255 0 0
4  734 506 447 611  255 0 0
5  735 341 584 618 508  255 0 0
3  735 151 150  255 0 0
5  732 544 245 234 233  255 0 0
7  735 508 504 323 282 201 151  255 0 0
5  732 491 543 505 544  255 0 0
4  733 244 126 246  255 0 0
5  732 233 139 490 491  255 0 0
4  382 536 537 380  255 0 0
5  725 718 655 656 705  255 0 0
4  724 412 411 707  255 0 0
4  675 533 406 405  255 0 0
4  675 405 421 367  255 0 0
4  721 561 384 554  255 0 0
4  720 552 553 559  255 0 0
4  722 602 601 719  255 0 0
4  723 599 602 722  255 0 0
4  721 554 552 720  255 0 0
4  717 367 419 410  255 0 0
4  533 707 411 406  255 0 0
5  533 675 407 408 532  255 0 0
6  719 601 600 658 655 718  255 0 0
7  717 410 409 420 551 392 557  255 0 0
4  712 552 554 713  255 0 0
6  712 483 865 243 473 714  255 0 0
5  714 558 553 552 712  255 0 0
5  714 473 347 480 711  255 0 0
5  713 554 384 557 710  255 0 0
4  713 482 483 712  255 0 0
5  551 420 896 555 556  255 0 0
4  551 391 921 550  255 0 0
4  711 480 479 706  255 0 0
4  711 560 558 714  255 0 0
3  710 557 392  255 0 0
4  710 481 482 713  255 0 0
4  711 706 555 560  255 0 0
6  551 556 706 479 475 391  255 0 0
6  710 392 391 475 476 481  255 0 0
3  648 644 643  255 0 0
5  648 1005 603 647 644  255 0 0
3  706 556 555  255 0 0
3  707 533 532  255 0 0
3  705 656 657  255 0 0
4  702 639 638 703  255 0 0
5  704 700 701 702 703  255 0 0
4  940 1118 905 907  255 0 0
4  1115 696 683 682  255 0 0
3  1147 1123 1135  255 0 0
4  1135 1123 1131 659  255 0 0
4  985 306 305 617  255 0 0
5  678 539 295 74 802  255 0 0
4  678 471 472 677  255 0 0
5  617 305 596 508 618  255 0 0
3  488 739 974  255 0 0
3  615 693 634  255 0 0
3  615 313 315  255 0 0
4  1092 629 630 690  255 0 0
5  615 634 312 311 313  255 0 0
5  1092 690 495 489 1091  255 0 0
3  1059 1067 381  255 0 0
6  1067 398 400 536 382 381  255 0 0
5  677 472 212 380 537  255 0 0
4  677 538 539 678  255 0 0
6  677 537 536 400 399 538  255 0 0
4  380 212 1059 381  255 0 0
3  535 423 422  255 0 0
4  697 684 683 696  255 0 0
4  634 619 333 312  255 0 0
4  693 620 619 634  255 0 0
9  693 615 315 613 507 969 503 542 620  255 0 0
7  461 632 619 620 486 904 1048  255 0 0
4  486 620 542 244  255 0 0
4  690 630 628 495  255 0 0
5  461 1048 1046 494 489  255 0 0
5  691 692 1030 1027 1041  255 0 0
4  1046 317 316 493  255 0 0
4  1048 904 317 1046  255 0 0
4  1049 493 316 1032  255 0 0
3  1046 493 494  255 0 0
4  1041 1027 316 1039  255 0 0
4  316 1027 1030 1032  255 0 0
3  467 665 108  255 0 0
3  1008 117 118  255 0 0
4  1008 202 203 206  255 0 0
6  1009 204 202 1008 118 354  255 0 0
6  1009 348 347 477 351 352  255 0 0
6  1014 484 106 108 658 600  255 0 0
5  1014 601 602 668 160  255 0 0
4  598 666 100 101  255 0 0
5  598 456 453 256 260  255 0 0
4  1019 351 350 478  255 0 0
5  1019 958 957 204 205  255 0 0
6  1013 258 455 29 159 160  255 0 0
5  1013 668 666 598 259  255 0 0
4  1019 205 352 351  255 0 0
4  1009 352 205 204  255 0 0
5  1019 478 209 210 958  255 0 0
4  598 101 485 456  255 0 0
3  1014 600 601  255 0 0
4  467 108 106 530  255 0 0
3  1013 160 668  255 0 0
4  1014 160 159 484  255 0 0
3  1013 259 258  255 0 0
4  1008 206 182 117  255 0 0
5  467 466 956 662 665  255 0 0
5  1009 354 353 349 348  255 0 0
5  501 329 330 389 595  255 0 0
4  688 222 162 221  255 0 0
4  688 570 571 689  255 0 0
5  688 221 575 568 570  255 0 0
5  423 681 682 683 684  255 0 0
3  676 408 407  255 0 0
5  248 992 994 996 249  255 0 0
5  984 966 369 561 721  255 0 0
4  980 972 971 979  255 0 0
6  496 971 972 807 812 973  255 0 0
4  966 652 368 369  255 0 0
5  717 369 368 366 367  255 0 0
4  717 557 383 369  255 0 0
6  958 663 275 216 273 957  255 0 0
6  485 101 100 388 664 667  255 0 0
6  485 999 875 989 226 456  255 0 0
3  956 207 208  255 0 0
5  466 97 96 207 956  255 0 0
3  957 273 274  255 0 0
6  485 667 210 209 876 999  255 0 0
5  958 210 667 664 663  255 0 0
7  957 274 208 207 99 202 204  255 0 0
6  956 208 274 273 661 662  255 0 0
4  668 602 599 666  255 0 0
4  666 599 386 100  255 0 0
4  665 655 658 108  255 0 0
4  661 273 216 215  255 0 0
4  661 657 656 662  255 0 0
3  663 387 275  255 0 0
4  664 388 387 663  255 0 0
4  662 656 655 665  255 0 0
5  661 215 385 654 657  255 0 0
3  500 300 301  255 0 0
5  500 1137 1140 565 498  255 0 0
3  654 385 386  255 0 0
5  100 386 385 387 388  255 0 0
3  550 921 920  255 0 0
8  652 1097 949 297 1095 653 366 368  255 0 0
4  595 389 594 593  255 0 0
6  614 313 311 314 451 416  255 0 0
5  614 609 611 507 613  255 0 0
5  614 416 417 597 609  255 0 0
3  513 524 525  255 0 0
4  633 312 333 606  255 0 0
4  632 461 460 631  255 0 0
4  630 629 627 628  255 0 0
3  623 624 622  255 0 0
4  623 622 518 519  255 0 0
5  621 86 87 438 594  255 0 0
5  594 389 330 390 621  255 0 0
6  594 438 578 321 334 593  255 0 0
6  439 83 14 165 40 440  255 0 0
4  439 89 82 83  255 0 0
4  621 82 89 86  255 0 0
8  543 1031 492 276 60 59 148 505  255 0 0
4  542 503 961 247  255 0 0
6  508 596 523 522 223 328  255 0 0
4  584 341 339 583  255 0 0
7  54 342 610 120 70 197 511  255 0 0
4  54 509 610 342  255 0 0
3  584 581 618  255 0 0
3  616 308 393  255 0 0
5  618 581 308 307 617  255 0 0
3  616 307 308  255 0 0
4  490 139 138 279  255 0 0
3  507 611 447  255 0 0
5  490 279 888 887 462  255 0 0
4  613 315 313 614  255 0 0
6  612 276 492 881 198 199  255 0 0
4  612 418 277 276  255 0 0
3  513 512 524  255 0 0
6  612 199 189 191 310 418  255 0 0
4  509 328 223 119  255 0 0
4  524 416 451 525  255 0 0
3  512 936 224  255 0 0
3  524 417 416  255 0 0
4  610 509 119 120  255 0 0
6  512 224 223 522 417 524  255 0 0
5  608 585 177 174 178  255 0 0
5  607 239 81 78 91  255 0 0
7  607 141 6 142 79 80 239  255 0 0
7  735 150 172 955 953 339 341  255 0 0
5  608 240 144 149 585  255 0 0
3  54 511 55  255 0 0
4  607 91 90 141  255 0 0
4  543 517 1028 1031  255 0 0
7  543 463 414 1017 1016 1026 517  255 0 0
3  598 260 259  255 0 0
3  305 236 332  255 0 0
3  597 417 332  255 0 0
4  596 305 332 523  255 0 0
4  595 593 186 187  255 0 0
3  268 187 186  255 0 0
6  593 334 161 579 268 186  255 0 0
6  575 321 88 576 573 569  255 0 0
4  221 161 321 575  255 0 0
4  592 588 587 591  255 0 0
4  590 587 588 589  255 0 0
3  586 953 955  255 0 0
3  150 173 172  255 0 0
5  149 57 56 133 132  255 0 0
7  149 144 11 10 285 147 58  255 0 0
8  586 170 110 64 62 135 140 953  255 0 0
4  586 955 171 170  255 0 0
4  149 132 177 585  255 0 0
3  57 149 58  255 0 0
6  583 339 340 516 582 394  255 0 0
5  584 583 394 945 581  255 0 0
3  582 516 515  255 0 0
3  581 945 308  255 0 0
3  580 515 514  255 0 0
4  577 572 573 576  255 0 0
4  578 438 87 88  255 0 0
4  337 574 572 577  255 0 0
3  578 88 321  255 0 0
4  576 88 87 437  255 0 0
4  574 337 166 169  255 0 0
3  575 569 568  255 0 0
5  566 432 424 498 565  255 0 0
4  565 1140 1138 566  255 0 0
5  564 168 167 335 441  255 0 0
3  564 169 168  255 0 0
4  555 896 898 560  255 0 0
4  551 550 920 392  255 0 0
5  549 547 548 292 291  255 0 0
4  544 147 502 245  255 0 0
4  546 283 46 45  255 0 0
4  544 505 148 147  255 0 0
4  542 247 126 244  255 0 0
6  147 285 284 53 427 502  255 0 0
6  151 7 6 141 173 150  255 0 0
5  540 45 46 1 0  255 0 0
4  541 114 113 51  255 0 0
3  427 245 502  255 0 0
4  427 53 52 129  255 0 0
7  151 201 200 242 79 142 7  255 0 0
7  540 445 270 20 287 157 286  255 0 0
6  427 130 131 124 121 245  255 0 0
5  540 0 3 325 445  255 0 0
4  538 294 295 539  255 0 0
3  538 399 294  255 0 0
3  467 530 468  255 0 0
5  531 229 908 909 941  255 0 0
5  528 1102 1110 527 529  255 0 0
6  529 527 1145 98 939 943  255 0 0
6  528 941 909 1150 372 1102  255 0 0
3  468 943 939  255 0 0
5  531 941 943 468 530  255 0 0
4  529 943 941 528  255 0 0
3  396 98 1145  255 0 0
7  395 928 93 927 892 861 476  255 0 0
5  395 475 479 349 913  255 0 0
4  395 76 75 928  255 0 0
4  527 1110 1141 1145  255 0 0
4  396 1145 1141 183  255 0 0
6  928 373 371 94 95 926  255 0 0
11  926 95 1068 978 1064 261 1085 1093 1074 376 378  255 0 0
5  397 374 373 928 75  255 0 0
3  397 75 76  255 0 0
4  1104 373 374 183  255 0 0
3  1068 95 94  255 0 0
3  1068 908 978  255 0 0
4  1068 942 909 908  255 0 0
3  1104 371 373  255 0 0
5  1102 372 370 1141 1110  255 0 0
5  183 1141 370 371 1104  255 0 0
3  1068 94 942  255 0 0
4  332 417 522 523  255 0 0
4  521 520 519 518  255 0 0
3  56 55 133  255 0 0
3  517 1026 1028  255 0 0
3  516 105 102  255 0 0
7  516 102 935 512 513 514 515  255 0 0
6  511 197 69 195 338 55  255 0 0
3  282 0 1  255 0 0
4  282 327 3 0  255 0 0
4  282 323 218 327  255 0 0
5  54 60 281 448 509  255 0 0
4  508 328 219 504  255 0 0
5  506 158 157 287 447  255 0 0
3  504 324 323  255 0 0
6  507 447 287 272 960 969  255 0 0
6  504 219 220 322 156 324  255 0 0
4  503 969 960 961  255 0 0
4  247 128 125 126  255 0 0
6  247 961 960 272 1043 128  255 0 0
5  498 425 213 300 500  255 0 0
7  465 432 433 263 266 345 290  255 0 0
6  465 289 288 361 425 424  255 0 0
6  500 301 303 1114 1136 1137  255 0 0
4  501 303 304 329  255 0 0
3  465 290 289  255 0 0
3  498 424 425  255 0 0
3  492 1031 881  255 0 0
7  491 490 462 461 489 488 974  255 0 0
4  487 139 235 442  255 0 0
4  462 887 886 463  255 0 0
4  484 228 227 107  255 0 0
8  455 225 49 50 874 153 30 29  255 0 0
4  455 258 257 454  255 0 0
4  456 226 33 34  255 0 0
4  455 27 28 225  255 0 0
7  484 159 30 153 152 231 228  255 0 0
5  481 861 193 863 482  255 0 0
4  482 863 864 483  255 0 0
3  483 864 865  255 0 0
4  209 478 350 474  255 0 0
7  209 474 16 17 989 875 876  255 0 0
3  481 476 861  255 0 0
3  395 476 475  255 0 0
4  480 348 349 479  255 0 0
5  477 473 243 474 350  255 0 0
3  477 347 473  255 0 0
3  480 347 348  255 0 0
3  477 350 351  255 0 0
3  474 243 16  255 0 0
5  243 865 864 868 16  255 0 0
5  468 939 98 97 466  255 0 0
3  467 468 466  255 0 0
4  206 97 98 396  255 0 0
3  465 426 432  255 0 0
3  465 424 426  255 0 0
5  463 886 1020 1018 414  255 0 0
4  464 39 36 35  255 0 0
6  441 38 85 84 66 434  255 0 0
4  440 40 39 464  255 0 0
5  441 335 35 36 38  255 0 0
4  464 35 37 440  255 0 0
4  463 460 461 462  255 0 0
4  454 257 256 453  255 0 0
6  456 34 27 455 454 453  255 0 0
5  446 327 218 219 448  255 0 0
5  446 44 43 318 962  255 0 0
5  448 281 443 44 446  255 0 0
4  448 219 328 509  255 0 0
5  446 962 2 3 327  255 0 0
5  445 325 326 271 270  255 0 0
5  442 235 121 124 319  255 0 0
6  444 47 48 125 128 1043  255 0 0
5  444 1043 272 21 115  255 0 0
4  444 115 114 47  255 0 0
3  443 43 44  255 0 0
8  281 280 137 442 319 318 43 443  255 0 0
3  434 66 65  255 0 0
3  437 87 86  255 0 0
5  436 343 255 254 267  255 0 0
6  267 254 346 188 187 268  255 0 0
5  435 22 23 434 65  255 0 0
5  435 344 192 68 67  255 0 0
6  435 67 26 25 24 22  255 0 0
6  436 26 68 192 179 343  255 0 0
6  435 65 66 84 253 344  255 0 0
7  188 346 255 343 180 181 265  255 0 0
4  431 264 263 433  255 0 0
4  431 265 181 264  255 0 0
4  1137 401 403 1140  255 0 0
4  430 403 401 429  255 0 0
4  429 401 402 1111  255 0 0
3  430 404 403  255 0 0
4  820 768 767 1098  255 0 0
5  531 107 227 230 229  255 0 0
4  1097 932 933 949  255 0 0
3  1095 297 296  255 0 0
3  861 892 194  255 0 0
3  1093 1085 1083  255 0 0
6  1093 1083 1066 357 356 1074  255 0 0
3  154 357 1066  255 0 0
3  152 232 231  255 0 0
5  1085 261 262 1066 1083  255 0 0
6  154 1066 262 227 232 152  255 0 0
3  356 379 377  255 0 0
5  927 377 379 194 892  255 0 0
4  926 378 375 92  255 0 0
4  927 92 375 377  255 0 0
5  356 377 375 376 1074  255 0 0
3  1064 262 261  255 0 0
3  1064 978 262  255 0 0
6  428 127 48 47 114 541  255 0 0
4  541 51 52 428  255 0 0
3  427 129 130  255 0 0
4  425 361 214 213  255 0 0
4  421 405 406 420  255 0 0
4  420 406 411 896  255 0 0
3  419 409 410  255 0 0
5  421 420 409 419 367  255 0 0
3  415 252 251  255 0 0
3  414 1018 1017  255 0 0
4  83 363 15 14  255 0 0
4  287 20 21 272  255 0 0
3  2 325 3  255 0 0
4  2 962 318 355  255 0 0
5  355 318 42 41 51  255 0 0
3  2 326 325  255 0 0
6  2 355 116 269 271 326  255 0 0
4  164 195 69 196  255 0 0
3  512 935 936  255 0 0
4  164 196 935 102  255 0 0
5  739 489 495 628 627  255 0 0
4  884 881 1022 1021  255 0 0
4  884 1021 1020 886  255 0 0
6  881 1031 1028 1026 1016 1022  255 0 0
6  1022 1016 1017 1018 1020 1021  255 0 0
4  412 898 896 411  255 0 0
4  413 897 898 412  255 0 0
4  400 398 294 399  255 0 0
5  397 76 395 913 912  255 0 0
6  183 374 397 912 916 182  255 0 0
4  396 183 182 206  255 0 0
3  159 29 30  255 0 0
6  989 17 868 864 1128 991  255 0 0
6  995 853 850 856 867 50  255 0 0
7  995 49 225 28 31 32 871  255 0 0
3  999 876 875  255 0 0
6  989 18 32 31 33 226  255 0 0
3  995 50 49  255 0 0
4  153 874 867 856  255 0 0
4  991 1128 1125 993  255 0 0
5  993 1125 863 853 995  255 0 0
7  995 871 32 18 989 991 993  255 0 0
3  908 229 230  255 0 0
5  908 230 227 262 978  255 0 0
4  220 217 155 322  255 0 0
3  955 172 171  255 0 0
5  953 140 104 340 339  255 0 0
4  384 561 369 383  255 0 0
3  557 384 383  255 0 0
3  948 933 932  255 0 0
5  394 73 393 308 945  255 0 0
3  942 1150 909  255 0 0
5  94 371 370 1150 942  255 0 0
3  1150 370 372  255 0 0
4  863 1125 1128 864  255 0 0
3  135 104 140  255 0 0
4  516 340 104 105  255 0 0
6  135 61 71 163 103 104  255 0 0
4  164 102 103 163  255 0 0
6  55 338 72 71 134 133  255 0 0
4  936 70 120 224  255 0 0
5  935 196 69 70 936  255 0 0
4  224 120 119 223  255 0 0
4  531 530 106 107  255 0 0
3  484 107 106  255 0 0
4  928 926 92 93  255 0 0
3  927 93 92  255 0 0
4  921 391 392 920  255 0 0
5  390 330 329 304 331  255 0 0
4  387 385 215 275  255 0 0
3  275 215 216  255 0 0
3  382 380 381  255 0 0
3  378 376 375  255 0 0
3  363 302 15  255 0 0
3  362 14 15  255 0 0
3  362 213 214  255 0 0
5  361 165 14 362 214  255 0 0
4  360 358 298 288  255 0 0
4  360 289 290 345  255 0 0
4  361 288 298 165  255 0 0
3  360 288 289  255 0 0
5  359 39 40 165 299  255 0 0
6  358 85 38 36 39 359  255 0 0
5  358 360 345 84 85  255 0 0
4  358 359 299 298  255 0 0
3  165 298 299  255 0 0
4  353 117 182 916  255 0 0
4  916 913 349 353  255 0 0
3  916 912 913  255 0 0
3  424 432 426  255 0 0
3  139 487 138  255 0 0
5  881 884 889 278 882  255 0 0
4  888 279 278 889  255 0 0
5  889 884 886 887 888  255 0 0
3  882 278 277  255 0 0
7  418 310 309 198 881 882 277  255 0 0
3  874 50 867  255 0 0
3  868 17 16  255 0 0
4  193 850 853 863  255 0 0
5  357 154 153 856 356  255 0 0
4  379 356 856 850  255 0 0
4  194 379 850 193  255 0 0
3  861 194 193  255 0 0
4  280 279 138 137  255 0 0
4  442 137 138 487  255 0 0
6  51 41 320 130 129 52  255 0 0
4  355 51 113 116  255 0 0
4  354 118 117 353  255 0 0
3  346 254 255  255 0 0
6  344 263 264 180 179 192  255 0 0
4  344 253 266 263  255 0 0
4  345 266 253 84  255 0 0
3  343 179 180  255 0 0
5  338 195 164 163 72  255 0 0
4  336 37 35 335  255 0 0
4  336 335 167 166  255 0 0
3  161 221 162  255 0 0
3  334 321 161  255 0 0
6  324 156 155 217 218 323  255 0 0
3  322 155 156  255 0 0
3  320 41 42  255 0 0
3  320 131 130  255 0 0
6  320 42 318 319 124 131  255 0 0
4  310 191 190 309  255 0 0
5  309 190 189 199 198  255 0 0
3  293 291 292  255 0 0
3  286 157 158  255 0 0
4  285 10 19 284  255 0 0
7  60 276 277 278 279 280 281  255 0 0
3  270 21 20  255 0 0
4  271 269 21 270  255 0 0
4  269 116 115 21  255 0 0
3  264 181 180  255 0 0
5  260 256 257 258 259  255 0 0
5  252 248 249 250 251  255 0 0
5  246 126 125 48 123  255 0 0
4  245 121 122 234  255 0 0
4  241 10 11 145  255 0 0
3  238 178 176  255 0 0
3  238 78 81  255 0 0
3  242 80 79  255 0 0
4  240 145 11 144  255 0 0
5  238 176 175 77 78  255 0 0
3  235 122 121  255 0 0
5  235 139 233 234 122  255 0 0
4  232 227 228 231  255 0 0
4  220 219 218 217  255 0 0
3  207 96 99  255 0 0
4  206 203 96 97  255 0 0
4  202 99 96 203  255 0 0
3  197 70 69  255 0 0
3  26 67 68  255 0 0
3  191 189 190  255 0 0
6  136 64 63 109 13 132  255 0 0
4  132 13 9 12  255 0 0
4  178 174 175 176  255 0 0
6  177 132 12 146 175 174  255 0 0
5  173 141 90 4 112  255 0 0
4  175 146 8 77  255 0 0
3  170 111 110  255 0 0
6  173 112 111 170 171 172  255 0 0
4  169 166 167 168  255 0 0
3  134 71 61  255 0 0
3  163 71 72  255 0 0
3  154 152 153  255 0 0
4  148 59 58 147  255 0 0
3  143 77 8  255 0 0
3  143 4 90  255 0 0
4  146 12 9 8  255 0 0
7  143 8 9 13 109 5 4  255 0 0
5  143 90 91 78 77  255 0 0
3  142 6 7  255 0 0
3  136 62 64  255 0 0
6  136 132 133 134 61 62  255 0 0
3  135 62 61  255 0 0
3  127 123 48  255 0 0
4  116 113 114 115  255 0 0
3  112 4 5  255 0 0
3  110 63 64  255 0 0
6  112 5 109 63 110 111  255 0 0
4  105 104 103 102  255 0 0
7  60 54 55 56 57 58 59  255 0 0
4  33 28 27 34  255 0 0
3  33 31 28  255 0 0

