OFF
1158 975 0

17.4373 -32.1592 -183.318
17.4358 -32.1556 -174.519
-0.321876 0.0150445 26.688
-0.32 0.011648 26.685
17.0609 -31.4768 -173.513
17.0633 -31.4681 -51.3691
-0.320692 0.0225011 116.915
-0.322559 0.0107461 -25.3243
-0.323241 0.00644878 -77.3239
-0.324517 -0.00158786 -174.571
-0.324632 -0.00231081 -183.318
5.08452 -9.79526 -183.318
14.0957 -26.1095 -183.318
14.5665 -26.9618 -183.318
16.7027 -30.8293 -183.318
17.4379 -32.1594 -174.524
17.4379 -32.1594 -174.519
17.0609 -31.4767 -172.231
17.4465 -32.1619 -50.797
17.45 -32.1629 -1.32972
16.1813 -29.8657 0.670438
12.1002 -22.4765 7.10431
11.8697 -22.0591 7.46779
7.76512 -14.6274 13.9387
6.60121 -12.52 15.7736
4.8054 -9.26845 18.6047
4.04104 -7.88449 19.8097
0.240001 -1.0023 25.8021
-0.0824581 -0.418448 26.3105
-0.32 0.0212482 116.916
0.192237 -0.906125 116.932
-0.304706 -0.00643942 116.936
0.240001 -0.9926 116.931
2.03082 -4.23477 116.914
1.53 -3.3278 119.401
0.643372 -1.72274 118.21
0.194283 -0.909759 117.607
-0.0873675 -0.399887 117.228
-18.0166 32.029 -173.37
-18.0152 32.0338 -103.735
-18.0166 32.0289 -174.053
-18.0166 32.0289 -174.313
-18.0166 32.0289 -174.519
-18.0168 32.0283 -183.318
-14.3807 25.4453 -183.318
-14.3034 25.3054 -183.318
-11.3588 19.9839 -93.7979
-14.0538 24.8627 -97.8211
-14.3671 25.4298 -98.2887
-32.1079 -17.5635 -174.519
31.9221 17.8163 -174.536
-32.4692 -17.7631 -174.605
-32.4684 -17.7633 -183.318
-32.1081 -17.5643 -183.318
-31.2959 -17.1155 -183.318
-27.635 -15.0927 -183.318
-26.0396 -14.2111 -183.318
-9.29794 -4.96051 -183.318
25.6915 14.3729 -183.318
31.9229 17.8161 -183.318
32.2641 18.0046 -183.318
32.2643 18.0053 -176.076
32.2644 18.0054 -175.024
31.9221 17.8163 -174.519
31.9221 17.8163 -174.055
31.9192 17.8172 -141.628
31.6384 17.6649 -103.69
25.91 14.5 -98.9642
25.694 14.3806 -98.786
24.1199 13.511 -97.4875
-30.9929 -16.9382 -52.0239
-31.3076 -17.1121 -52.2979
-32.1048 -17.5526 -52.9919
-32.1079 -17.5634 -173.813
-32.1079 -17.5634 -173.892
-32.4299 -17.7414 -174.519
-0.962296 -1.55871 128.371
-0.967629 -1.30901 128.609
-1.07001 -1.28315 128.207
-1.05029 -1.33361 128.237
0.425913 -0.607881 129.219
0.414773 -0.640011 129.154
0.260191 -0.636988 129.595
0.142853 -0.815393 129.391
0.309903 -0.188552 129.138
0.141018 -0.29303 128.459
-0.320535 0.0234907 128.89
0.10676 0.259593 128.893
0.140467 -0.207595 128.524
0.14159 -0.381694 128.391
3.18866 -11.7376 134.896
3.55573 -12.5327 135.011
-11.6458 -6.66941 134.863
-11.6517 -6.59531 134.944
-11.4544 -6.46936 135.145
-1.45533 -0.603543 128.883
-1.01566 -2.77681 127.049
-1.2825 -2.19464 127.15
5.16609 -10.4892 136.418
4.55228 -10.4024 136.109
5.57818 -11.3881 136.985
5.69692 -11.6382 136.745
5.56762 -11.3442 136.024
-10.62 -5.93682 135.995
-11.184 -6.29678 135.42
-10.1969 -6.05874 135.992
-9.84852 -6.24415 135.896
-11.188 -6.29934 135.416
-10.9822 -6.1582 134.854
-11.1913 -6.30162 135.425
-11.4506 -6.47942 136.134
2.99752 -10.189 135.969
2.81484 -10.1568 135.236
3.23468 -11.0184 136.098
3.76567 -10.2912 135.714
2.43835 -10.1036 135.047
3.00711 -11.3223 135.821
-1.1795 -0.635156 127.887
-0.960002 -0.704263 128.017
-0.660296 -0.798622 128.195
-0.508354 -0.84646 128.285
-1.72115 -1.21122 128.494
-1.05312 -1.23441 128.657
-1.6704 -1.35691 126.916
-1.76288 -1.16656 126.443
-10.5343 -5.86416 134.664
-10.4328 -5.91849 134.667
-1.28496 -0.733261 127.88
-1.3569 -0.549235 127.77
-1.19279 -0.458499 128.553
0.0728291 -0.688777 127.907
0.0341344 -0.502206 127.917
0.0265302 -0.465542 127.919
-0.100137 0.145201 127.951
-0.222179 0.0777726 128.033
-0.268297 -0.0711702 128.073
-0.0722058 -0.426192 127.978
0.606212 -0.72703 128.36
0.649042 -0.60084 128.616
0.513776 -0.701056 128.696
0.63895 -0.581057 128.703
5.15746 -10.4829 135.9
4.45771 -10.3863 135.788
5.17017 -10.4865 135.9
5.44553 -11.0665 135.344
0.472747 -1.12026 127.561
0.41123 -1.30151 127.193
0.504459 -1.02683 127.751
0.49321 -1.05997 127.684
4.0885 -7.86955 122.759
4.39251 -8.50992 122.146
-9.10626 -7.86072 134.236
-9.10033 -7.88921 134.134
0.33879 -0.170682 129.254
0.416835 -0.122401 129.568
-0.069774 -0.430412 129.702
0.100491 -0.323296 129.852
0.416168 -0.123154 129.667
3.47228 -12.3223 136.308
3.32689 -12.0225 135.584
4.29071 -10.3579 135.22
3.76507 -10.29 135.597
3.64596 -12.6911 136.69
4.21708 -12.778 136.979
4.66782 -12.8466 137.208
3.33268 -12.0199 136.264
0.448523 -0.542669 129.35
0.51765 -0.343288 129.751
-8.82703 -6.77061 133.975
-9.24485 -7.06817 134.261
-8.81164 -7.46413 134.84
-8.36402 -7.02269 134.381
-9.79638 -8.43019 136.225
-9.44499 -8.0821 135.98
-9.02001 -8.43513 135.721
-9.81143 -8.4451 136.235
-11.5662 -7.16554 138.153
-11.6236 -6.68476 136.85
0.911739 -1.58236 127.449
0.961967 -1.48027 127.678
1.01497 -1.37254 127.92
1.12098 -1.58726 127.318
-9.29734 -6.86585 136.081
-8.87895 -6.76457 136.04
-9.20753 -7.41853 136.788
0.184822 -0.492344 128.457
0.767882 -0.862279 128.88
0.766272 -0.861696 129.01
0.43489 -0.65293 129.215
-1.28688 -0.738981 127.866
-1.70383 -1.27543 127.31
-1.63995 -1.41479 127.286
-1.22188 -1.15195 127.707
-9.78721 -8.43672 135.061
-10.0439 -8.69263 135.119
0.148216 -1.40884 127.608
0.350643 -1.19177 127.689
-0.62509 -0.287157 127.337
-0.792747 -0.318646 127.056
-1.91334 -0.856854 125.673
-0.960002 -0.629901 127.202
-1.6539 -1.41853 125.768
-1.66907 -1.42261 124.116
-1.90005 -0.849393 127.293
-1.48387 -1.81167 124.715
-1.30502 -0.520569 127.782
-0.908828 -0.383363 127.908
-0.960002 -0.51047 127.624
0.108343 -0.296599 128.341
0.0396077 -0.487041 127.948
0.31679 -0.604444 128.15
0.734681 -0.781444 128.453
0.618176 -0.535744 128.675
-0.349853 -0.599193 127.233
-0.349778 -0.596651 126.486
-0.481729 -0.511865 126.086
0.857241 -1.05307 128.815
0.553243 -0.810189 129.51
-0.0602953 -0.447574 129.688
0.375997 -0.357395 129.239
0.129548 0.272182 128.863
-0.162882 0.11063 129.257
0.225324 0.0275138 129.009
-0.320547 0.023418 128.01
-0.32 0.0224287 128.011
-0.0706421 0.161507 128.068
0.5238 -1.35995 128.974
0.449128 -1.36993 128.944
-9.356 -6.50482 135.619
-9.72552 -6.30362 135.292
-9.42374 -6.08798 135.085
-0.817802 -1.95377 127.593
-0.32 -2.23525 127.801
-0.940236 -2.94136 127.02
-0.919874 -2.98579 127.013
-9.87054 -6.23351 136.004
-10.2738 -6.03856 137.984
5.31627 -12.3484 137.281
5.63062 -11.7714 137.172
0.536383 -1.09868 127.683
0.557657 -1.14656 127.638
2.99596 -11.3202 134.836
3.31691 -10.9148 136.551
3.0354 -10.1957 136.121
3.39343 -10.2588 137.556
3.38421 -10.83 136.922
0.83559 -1.00996 128.972
0.757774 -1.24509 129.034
0.728838 -1.33252 129.057
0.534811 -1.15435 129.174
0.311757 0.110462 129.258
0.272981 0.159555 129.281
0.273463 0.160891 129.284
0.618176 -0.535744 128.675
0.279679 0.178112 129.319
5.46644 -11.1106 135.302
5.72303 -11.651 134.784
5.70709 -11.6812 134.745
-9.44112 -8.09169 134.982
-9.05343 -8.2036 134.98
32.1938 17.7627 -174.579
32.1872 17.7398 -174.537
5.13951 -12.8041 136.298
5.10427 -12.7615 136.207
5.217 -12.5671 135.568
0.41123 -1.30151 127.193
0.589275 -1.624 125.734
0.30258 -1.62162 126.542
5.4287 -11.0283 135.25
-9.36177 -6.47949 133.506
-9.34274 -6.4659 133.493
0.49147 -1.0651 127.673
0.574653 -1.18481 127.602
0.224156 -0.962794 127.462
0.221443 -0.957976 126.567
0.224156 -0.962794 127.462
-0.32 0.0226475 130.068
-0.32 -1.47281 128.632
-9.80362 -8.4424 135.856
-9.64441 -8.28539 135.693
-10.1878 -8.82125 136.25
-11.3437 -8.206 135.254
-9.6444 -8.28538 135.693
-9.81237 -8.44542 136.281
-9.84259 -8.47422 136.386
-11.5397 -7.73934 135.709
-11.5095 -7.99249 136.396
4.73537 -9.1312 116.888
5.39542 -10.3262 116.881
3.04455 -11.4405 134.179
3.00402 -11.3505 134.266
-10.9187 -8.40742 137.67
-10.7371 -8.51602 136.839
-0.841947 -1.89988 127.644
-0.64868 -1.54583 128.427
-0.32 -1.55352 128.221
-0.32 -1.85418 127.463
5.47188 -12.0452 138.069
5.70163 -11.6489 136.771
0.150823 -1.81297 127.299
0.668688 -1.76763 127.12
-10.5337 -5.86778 134.978
-11.643 -6.59966 135.732
-9.2047 -6.58721 135.752
-9.35792 -6.50621 135.848
-8.38137 -7.02508 135.491
-9.10644 -6.63915 135.691
-9.35719 -6.50568 135.761
-9.2341 -6.5712 135.727
-0.85491 -0.272075 124.955
-0.861108 -0.275343 127.028
-0.671441 -0.395486 127.104
2.15965 -7.82701 123.217
3.07137 -10.0535 121.332
0.3293 0.0693909 129.409
0.512548 -0.336784 129.953
0.186376 0.3036 129.088
-0.320529 0.0235273 129.333
-0.133159 -0.315647 129.794
-11.6027 -7.21154 134.277
-1.69707 -1.43013 121.068
-0.545362 -0.100824 127.739
-1.9218 -0.861607 124.641
-1.38281 -2.05803 123.522
0.240001 -0.163952 116.936
0.240001 -0.936315 116.931
0.240001 -0.938703 117.621
0.240001 -0.489715 117.224
0.240001 -0.192077 116.96
4.91745 -10.4389 134.77
5.40137 -12.2181 136.012
5.52794 -11.9915 135.696
-11.6589 -6.2409 137.328
-10.7792 -5.75487 136.734
-10.5309 -5.88618 136.579
-11.399 -6.45894 137.17
-11.6587 -6.24318 137.328
-4.68967 -3.37143 132.67
-7.14681 -5.1215 134.347
5.17724 -10.4723 134.569
5.72351 -11.6511 134.739
5.33821 -12.3581 134.881
4.56989 -10.3897 134.589
5.46298 -12.1015 136.16
5.11999 -12.7309 136.287
-1.07784 -2.06713 127.356
-1.38905 -1.94777 127.834
-1.03103 -1.91643 127.709
-1.18652 -2.41704 126.535
-10.188 -8.81814 136.497
-10.1179 -8.74866 136.448
-11.4004 -8.15107 137.252
-0.0727394 -0.425267 127.599
-0.124965 -0.457575 127.389
-0.151213 -0.473813 127.284
-0.32 -0.57823 126.605
-0.32 -0.58056 127.303
-0.32 -0.583373 128.146
-0.718808 -1.52615 128.47
-1.62779 -0.732921 128.98
-1.41793 -0.58288 128.836
-0.320546 0.0234253 128.099
-0.932405 -2.95804 127.036
-0.972116 -2.87349 126.957
3.40168 -10.7586 134.203
3.75417 -10.2672 133.453
3.76836 -10.269 133.443
17.2501 -30.7955 -172.226
5.41601 -10.3631 120.311
4.6091 -8.90209 121.758
-5.18364 -3.97039 124.885
-6.77019 -4.82827 123.622
3.12159 -11.1491 134.8
2.72792 -10.7395 134.752
3.62373 -12.727 132.936
4.21536 -12.8193 133.019
3.58884 -12.6044 135.022
4.792 -12.8892 135.003
4.32442 -12.8155 135.016
3.03939 -8.08189 123.216
3.97646 -9.76227 121.863
3.63168 -7.9193 122.92
1.86734 -3.93777 126.674
0.240001 -0.99158 126.525
0.240001 -1.4807 126.675
0.240001 -4.41207 120.692
0.240001 -3.43371 119.827
-0.304084 -4.46167 120.875
2.03839 -4.24814 120.084
-0.32 -4.42479 120.978
-0.960002 -0.330748 116.935
-0.960002 -0.330713 117.392
-0.960002 -0.987854 128.135
-0.960002 -0.980611 125.966
-0.960002 -0.430967 127.904
5.01601 -12.8995 137.384
-0.32 -3.06495 126.542
-0.519474 -1.7001 128.358
-0.32 -2.05779 128.07
-1.10618 -1.31006 128.201
-1.06233 -1.40794 128.109
-0.704329 -1.47939 128.457
0.254969 -1.56699 127.861
4.69978 -12.874 135.068
4.19673 -12.7912 135.414
3.63616 -12.7069 135.036
2.21988 -7.55884 122.965
0.240001 -1.99238 118.552
5.56545 -12.9831 137.663
3.25863 -10.2246 135.961
3.57604 -10.5535 135.999
3.25261 -11.0044 136.688
0.471456 -1.04046 127.684
1.54436 -2.51624 128.146
1.14303 -1.64262 127.676
0.857253 -2.10888 128.347
0.234379 -0.981263 127.828
5.71381 -11.6501 135.64
5.17522 -10.4754 134.904
4.02146 -10.3121 134.304
5.29877 -12.4123 135.765
-11.2497 -8.28175 133.203
-10.1847 -8.86347 132.892
-9.75526 -8.42567 133.511
-11.5228 -7.99684 135.083
-11.5117 -8.11662 135.103
-10.9053 -8.44547 135.125
-9.77985 -8.43418 134.704
-10.1504 -8.80122 134.965
-1.14082 -1.10202 128.099
-0.960002 -0.953825 117.943
-8.83018 -7.48261 134.844
-9.12209 -7.78019 134.424
-9.09335 -7.93603 134.26
-8.42476 -6.48414 133.7
-6.24086 -4.92887 132.206
-9.35774 -6.42259 134.282
-7.84939 -6.52209 133.341
-9.37086 -6.33472 134.046
6.04339 -10.4145 116.881
6.13744 -11.2617 116.876
6.55896 -10.4848 116.881
-9.34208 -5.87268 122.447
-9.77291 -6.1385 122.021
-11.4619 -8.08265 140.155
-11.4667 -8.00007 140.415
-11.49 -8.10179 137.307
-11.5544 -7.39237 137.315
5.024 -12.9169 135.848
3.63666 -12.7061 135.12
-9.04207 -7.8077 126.451
-9.08888 -7.50576 125.827
4.04165 -7.87465 122.775
2.03573 -3.54553 126.895
-9.1163 -7.78219 133.846
-9.01414 -8.46697 135.688
-9.09482 -7.92617 134.234
6.01231 -11.4428 119.242
5.59884 -10.3871 120.213
6.51463 -10.5071 119.725
3.55206 -12.8427 120.836
4.26812 -12.9762 118.857
2.85431 -11.2929 122.327
3.26596 -10.7109 120.986
-8.16598 -6.99537 121.724
-8.98487 -7.82735 120.753
-6.78108 -7.72719 120.835
-7.42903 -8.60663 119.811
-9.11662 -7.08725 121.023
-9.18859 -6.68292 121.171
-9.48008 -8.33048 120.166
-10.1723 -9.0338 119.345
-11.2292 -8.46573 118.894
0.00524344 -0.367413 125.034
0.00524299 -0.341099 117.153
2.46146 -6.48318 121.952
2.34398 -7.00625 122.444
-0.0683851 -0.786252 127.331
-8.69119 -6.70964 121.283
-9.12921 -7.00719 120.876
-9.00114 -7.82176 122.374
-8.18166 -6.99753 122.726
16.9133 -32.0081 -174.516
16.9133 -32.0081 -174.519
3.40788 -10.7084 131.823
2.98517 -11.3181 133.883
2.92643 -10.1257 130.579
-0.692469 -0.182094 127.924
-1.89716 -0.84777 127.645
-1.74911 -1.16504 127.845
2.69604 -5.43869 120.968
-6.24164 -4.90196 134.259
-8.54615 -5.4609 134.484
-9.40189 -6.18993 134.656
-8.36963 -7.02346 134.74
-2.9823 -1.70132 129.906
-9.3831 -6.27759 134.287
-9.34478 -6.49672 134.28
-8.35331 -7.02121 133.697
-2.74722 -1.31725 130.507
-2.4277 -1.14071 130.353
-2.42001 -1.13648 130.096
-9.33729 -6.49132 133.386
-6.19232 -4.99612 123.621
-8.29756 -4.38461 123.625
-8.39025 -7.02631 136.058
27.1938 19.1802 -175.469
27.5209 20.2269 -177.524
27.5209 20.2269 -176.452
27.1938 19.1802 -174.521
4.25835 -12.9746 118.856
3.5427 -12.8578 119.255
3.49804 -10.3983 121.119
2.83633 -11.2894 120.739
5.36231 -12.6354 119.488
5.10461 -13.0921 120.356
3.57428 -12.8068 124.588
4.37978 -10.2338 121.522
3.70306 -10.1603 123.409
2.89634 -11.301 126.038
5.02844 -12.9265 134.996
5.20746 -10.4266 129.558
5.74691 -11.6534 132.566
3.7377 -10.2328 130.216
4.49689 -10.393 135.921
5.16921 -10.4845 135.899
5.70919 -11.6497 136.069
3.6489 -12.6864 137.187
5.01964 -12.9074 136.686
3.05169 -11.4112 136.175
3.01098 -11.323 136.162
3.76684 -10.2937 135.944
-0.907544 -0.947286 125.915
-0.453019 -0.667749 128.236
-1.646 -1.41641 126.628
-1.53318 -1.62775 128.137
-0.515919 -0.870894 128.291
-0.32 -4.3214 125.587
-0.32 -0.921201 128.172
4.49824 -8.70191 116.89
4.58093 -8.85163 116.703
-11.6711 -6.24772 136.106
-10.7718 -5.75082 135.972
-10.5319 -5.87929 135.98
-11.6383 -6.60204 136.165
-27.5032 -19.1956 -174.416
-32.1877 -17.8443 -174.302
-32.3598 -17.7947 -174.298
-0.32 -0.547559 117.419
-0.32 -0.574033 125.348
-0.0762467 -0.419182 125.113
2.45327 -10.115 135.986
3.75386 -10.2666 133.394
-9.25492 -7.88834 136.253
-9.14209 -7.77332 136.416
-9.1134 -7.92885 136.253
4.77623 -9.20524 116.261
5.38345 -10.3047 114.887
4.59977 -8.88537 120.083
5.40597 -10.3451 118.64
-11.5297 -8.12884 133.285
-11.571 -7.47685 134.997
-9.05622 -7.80283 127.861
-9.24379 -6.92759 131.548
-11.5164 -8.1198 134.629
-11.5298 -7.86366 135.575
-9.63474 -8.38398 127.666
-10.1798 -8.93149 127.483
-9.31164 -6.47281 130.325
-10.5436 -5.80429 129.454
-11.6778 -6.58222 132.569
-9.35939 -6.50727 136.023
-11.5808 -7.22254 136.268
-1.72007 -1.4363 118.565
-0.572119 -0.734198 125.591
-0.32 0.0212482 116.916
-0.32 -0.00201672 116.936
-0.32 -0.114058 126.97
-0.32 0.0223294 127.077
-0.106412 -0.364313 127.528
-0.830937 -0.259433 116.935
-0.349585 0.00653818 116.936
-0.32 -0.545939 116.933
-32.4385 -17.772 -174.519
2.93768 -11.3089 129.689
5.05486 -10.488 137.819
3.61192 -12.7461 130.944
4.81564 -12.8921 135.084
-0.43687 -0.0408585 127.983
-0.907892 -3.11223 122.536
-0.32 -1.87417 128.246
-0.32 0.0223691 127.451
-0.32 -4.31431 125.903
-0.32 -4.3653 123.63
0.459814 -2.55467 127.809
0.145842 -1.04082 127.888
16.9133 -32.0081 -172.234
0.00869702 -0.572684 127.772
1.51216 -3.29484 125.61
3.75315 -7.35237 122.388
3.75822 -7.35578 122.39
2.38726 -4.26658 125.308
1.39861 -2.18161 127.19
-0.266825 0.0167382 127.261
30.3864 12.7203 -174.519
30.384 12.7249 -173.86
30.7012 12.6273 -174.491
30.7012 12.6272 -174.519
0.152476 -2.06925 127.104
0.390873 -3.45411 126.858
-32.4692 -17.7631 -174.519
3.12806 -6.93174 122.177
3.50121 -6.89629 122.049
4.51743 -8.7363 120.23
-9.12699 -7.77851 134.911
-6.87234 -8.83323 134.965
-4.34964 -9.17639 134.882
-8.47801 -8.62143 135.683
-4.35159 -9.18928 136.205
-5.03518 -9.09628 136.227
-9.1402 -7.77397 136.228
-8.87271 -8.4077 119.602
-8.9786 -7.82951 120.128
12.8904 -30.8476 -174.457
17.0614 -32.0508 -174.519
6.54062 -10.494 118.057
5.41446 -10.3462 118.635
5.41414 -10.3598 120
4.60578 -8.89614 121.162
-1.52996 -1.63464 128.141
-1.24596 -2.39166 121.907
-0.288059 -0.0354912 127.145
-0.320554 0.0233722 127.456
-1.58542 -0.67541 129.047
-1.81958 -0.993228 128.676
17.6661 -32.2201 -174.519
17.7876 -31.8022 -173.727
-8.21972 -7.00278 125.158
-9.03836 -7.80897 126.082
-11.7917 -6.52503 122.193
-11.7387 -7.35136 120.078
-10.5544 -5.73566 123.481
-9.60607 -8.37406 126.276
-9.29596 -8.06265 126.372
-9.25533 -6.43218 123.605
-11.6433 -8.20626 121.77
-11.7485 -7.26354 119.904
-10.1785 -8.9489 126.097
-9.92008 -6.05499 121.571
32.2644 18.0054 -174.583
32.1872 17.7398 -174.579
3.77535 -10.3115 137.617
2.89703 -11.3011 126.1
3.71062 -10.1762 124.896
3.78299 -10.3275 139.119
4.99427 -12.8523 141.563
4.80958 -12.8311 140.81
5.60868 -11.6398 145.405
5.11752 -10.5626 144.47
3.03209 -11.3271 138.027
3.67276 -12.6479 141.216
3.29309 -10.9508 136.76
4.99853 -12.8615 140.743
3.65314 -12.6795 137.903
3.02247 -11.3253 137.178
5.01817 -12.9042 136.968
5.1765 -12.6207 136.573
3.78967 -7.2157 122.258
1.66632 -3.57379 127.13
1.55545 -2.51736 127.117
2.33884 -4.1944 126.755
1.7023 -3.63893 127.112
0.22389 0.324256 128.136
0.968764 -1.30043 129.154
-27.999 -20.8803 -176.882
-32.7 -19.6472 -176.934
-32.2298 -17.9925 -174.519
-27.5238 -19.2656 -174.519
-28.0002 -20.8799 -183.318
-32.7 -19.6472 -183.318
5.17457 -12.9357 136.319
5.02153 -12.9115 136.323
5.02424 -12.9174 135.801
0.415763 -3.37717 127.007
1.48236 -7.08813 122.738
-11.6298 -6.60629 136.935
-11.545 -6.64886 144.66
-9.27931 -7.02941 137.196
-9.38427 -6.52522 138.992
-10.5179 -5.96934 143.815
0.757832 -14.0415 116.862
4.10233 -15.0121 116.857
1.04955 -1.45123 117.865
0.571885 -0.462119 129.849
0.215146 0.319505 129.202
0.516711 -1.4923 128.845
0.287341 -1.07715 127.802
0.948923 -7.13882 122.92
0.174079 -5.41842 124.549
0.00869702 -0.572684 127.772
-0.32 -4.41721 121.315
-0.19438 -4.69606 121.055
-0.32 -4.42766 120.85
3.75729 -7.35988 122.393
3.56123 -8.23308 123.216
1.67022 -3.61093 127.13
-0.32 -2.36671 119.027
-1.05473 -2.85784 119.65
3.64401 -12.6943 136.362
32.0967 17.7551 -174.519
32.0738 17.6899 -174.397
32.154 17.7385 -174.519
-0.32 -0.582369 116.933
-0.32 -0.269315 26.6011
-0.32 -0.584163 117.451
-0.32 -3.47969 120.011
3.77124 -7.38513 122.362
6.67413 -13.3517 119.164
5.87615 -11.6661 120.561
-19.2027 32.2303 -176.594
-19.1969 32.2513 -183.318
-18.0277 31.9899 -174.519
-18.4468 32.0732 -174.519
-18.0279 31.989 -174.235
-11.2678 -10.5513 116.88
-3.02081 -12.9448 116.868
-8.2823 -24.7401 27.549
-7.46628 -24.9755 104.083
0.243097 -14.7258 116.062
-5.8605 -11.3953 117.568
-11.4847 -10.5174 116.853
-13.6 -19.04 -183.318
-8.78758 -4.6554 123.229
-6.507 -5.31613 123.227
-11.4572 -8.07946 140.63
-9.15695 -7.76822 137.896
-9.89897 -8.47538 140.481
-10.1926 -8.75519 141.504
-9.21587 -7.37334 136.835
-13.4862 -7.25201 117.971
-11.8519 -6.34899 117.971
-10.1897 -8.79544 138.303
-9.84683 -8.45734 137.952
-11.4913 -8.1027 137.173
-11.5434 -7.60259 136.539
-9.15035 -7.77048 137.238
-11.5945 -6.62402 140.153
-11.5406 -7.65635 136.34
-10.5261 -5.91656 139.223
1.84373 -12.5978 118.549
1.44251 -23.2707 -183.318
13.9252 -26.7815 -183.318
-26.4008 -15.4398 -183.318
-8.15713 -6.99415 121.158
-4.3281 -9.03393 120.26
5.40609 -10.3453 118.659
4.60198 -8.88933 120.48
16.6867 9.41202 11.8681
4.72345 -6.9511 19.3812
16.9133 -32.0081 -183.318
16.56 -33.28 -183.318
16.56 -33.28 -176.919
16.913 -32.0092 -174.519
-31.5981 -15.7696 -52.999
5.6765 -11.6465 139.106
5.15557 -10.5051 138.161
-0.32 -0.244376 26.6086
-2.10387 -1.53939 76.7822
-2.54742 -1.65853 28.4946
-0.747265 -3.51477 120.152
16.9133 -32.0081 -129.488
16.9133 -32.0081 -50.797
12.5584 -32.1595 -176.919
12.8821 -30.8806 -174.519
6.02578 -11.4674 116.875
6.02359 -11.4634 117.26
7.11852 -13.4458 116.865
8.72472 -16.3537 116.849
7.9951 -16.1419 116.85
9.7913 -19.936 113.705
7.37246 -13.9098 76.4421
5.11185 -13.1079 118.965
7.10373 -13.4187 119.218
4.11273 -9.5811 122.074
4.48367 -8.67512 120.748
-31.1268 -14.1106 -183.318
-14.7631 -8.40644 117.971
-11.5814 -9.32474 117.971
-15.2967 -8.25242 117.971
-13.2157 -7.39882 117.971
-13.1865 -7.39765 119.377
-30.3439 -18.3762 104.08
-19.8077 -10.7506 43.6663
-13.7898 -7.42189 90.2609
-31.0311 -18.178 53.0793
12.5604 -32.1601 -183.318
12.8932 -30.8484 -183.318
13.1553 -29.8158 -183.318
13.1525 -29.815 -174.519
12.8905 -30.8476 -174.519
-19.8899 26.747 -174.519
-19.8905 26.7453 -183.318
-20.6402 26.9594 -183.318
-20.6398 26.9607 -176.485
-19.938 26.7608 -174.519
-10.2052 -8.58131 155.333
-9.61549 -8.37732 126.733
-9.46669 -8.32585 119.516
2.21839 -9.93601 121.209
3.53979 -12.8625 118.765
-9.26644 -6.44019 124.93
-10.1797 -8.93291 127.369
-11.7536 -6.54415 125.662
-10.5523 -5.74908 124.65
-11.5911 -8.1707 127.058
3.35417 -16.4234 115.294
4.32272 -14.5964 117.317
-9.23695 -6.41891 121.411
-9.65202 -7.59807 187.218
-9.78839 -6.81685 187.218
-11.8091 -6.51628 120.605
-10.5575 -5.71542 121.721
-10.44 -6.46812 187.218
-11.0778 -6.88343 187.218
-10.1717 -9.04276 118.633
-10.2343 -8.18039 187.218
7.00638 -11.7775 15.5753
5.88368 -9.40397 17.447
6.14912 -11.693 95.2048
5.3398 -10.2265 107.617
-0.320559 0.0233408 127.076
-1.95504 -0.88028 120.588
0.292878 -5.67163 124.77
4.36891 -8.46708 123.215
1.13162 -7.52918 123.218
-1.97504 -0.891518 118.149
4.32653 -8.39037 123.158
4.59404 -8.87511 119.055
4.61521 -8.91304 122.855
3.69295 -10.1392 121.422
-10.633 -5.6752 121.738
-9.78654 -5.21403 34.9347
-1.9937 -0.902 115.873
-2.36957 -1.10874 128.413
19.1031 -27.276 -174.519
19.1031 -27.276 -173.804
18.0712 -32.3335 -174.519
19.1031 -27.276 -165.15
18.8447 -28.1651 -166.834
24.8057 -7.65615 -127.971
29.822 9.60252 -95.267
4.58197 -8.85349 116.889
-23.2912 -20.4106 -174.519
-14.7268 -22.7276 -174.519
31.9132 12.2157 -183.318
30.6869 12.5783 -183.318
30.7152 12.623 -174.519
31.9232 12.2514 -176.919
2.41945 -4.15034 116.914
1.21014 -1.54949 116.928
27.1938 19.1802 -183.318
27.5209 20.2269 -183.318
-12.4971 31.845 -183.318
-12.8081 30.7192 -183.318
-12.7736 30.7093 -174.753
-12.4715 31.8375 -176.942
-17.9659 32.2071 -174.661
-17.6442 33.3393 -176.867
32.4907 18.784 -177.597
-11.4951 -10.3886 116.973
-21.7794 -20.8467 104.081
-21.1292 -21.0343 41.9667
8.40553 -14.7355 13.2428
21.5087 -11.3677 0.670438
8.14645 -9.68835 15.0174
19.9762 -16.6888 0.670438
1.1981 -1.54528 117.91
2.35824 -1.95076 23.3242
3.01209 -11.3233 136.26
5.15754 -10.5021 137.835
3.63548 -12.708 134.921
5.70203 -11.649 136.735
5.02783 -12.9252 135.113
-19.5458 26.6469 -183.318
-19.5453 26.6487 -174.519
-32.1817 -17.6043 -173.975
-31.1268 -14.1106 -168.851
-32.4692 -17.7631 -174.295
-31.6185 -13.2945 -183.318
-30.9331 -13.4291 -183.318
-30.9304 -13.4194 -174.519
-31.2017 -13.3661 -174.519
-31.6162 -13.286 -175.652
-18.0907 31.7679 -103.452
3.75729 -7.35988 122.393
18.8447 -28.1651 -183.318
-18.3525 30.8467 -183.318
-31.7902 -13.924 -175.639
-19.1183 32.5395 -176.601
-18.376 32.3254 -174.519
-18.3954 32.2562 -174.519
-31.3899 -14.0366 -174.519
-31.7902 -13.924 -183.318
-19.1183 32.5395 -183.318
-2.01338 -26.5484 104.084
-1.18476 -26.7875 19.5836
32.4907 18.784 -176.452
26.2953 19.4394 -174.519
-9.53372 -6.39635 134.351
0.204566 0.313756 130.492
-10.5382 -5.83901 132.475
-11.6711 -6.58556 133.175
-11.6283 -6.99681 133.694
1.06576 0.781694 25.4789
-10.0291 -6.13471 134.682
-27.2329 -18.2763 -174.519
-27.2346 -18.2758 -183.318
-27.5049 -19.1951 -183.318
-11.6527 -6.5948 134.851
-27.5032 -19.1956 -174.519
-10.7265 -5.98971 134.696
5.42418 -10.3778 121.673
-9.54296 -6.39189 134.396
-10.2619 -6.01156 134.818
-11.6091 -6.9725 135.74
-11.543 -7.69704 135.755
-18.1439 32.2584 -183.318
-18.1433 32.2583 -174.519
-27.5005 -19.1964 -160.668
-32.1877 -17.8443 -173.815
-0.0250634 -0.511632 127.124
-0.130771 -0.423849 127.395
0.219452 -0.954443 125.91
0.208749 -0.935441 122.379
-0.32 -0.611078 125.217
-0.32 -0.615785 126.576
-0.232346 -0.672108 126.841
19.1031 -27.276 -183.318
20.7004 -27.6519 -183.318
20.7004 -27.6519 -176.918
19.4694 -27.3622 -174.519
-9.33847 -6.49217 133.527
18.069 -32.3414 -174.519
-9.521 -8.34464 122.15
31.1716 14.2458 -174.519
-11.2553 -8.45146 118.9
-10.1746 -9.00207 121.869
33.3708 17.3984 -176.919
19.283 -32.6916 -176.918
12.8854 -30.8462 -158.54
-8.3774 -7.02453 135.237
17.4413 -32.1604 -125.679
-7.79945 -7.33005 134.877
3.08363 -11.5211 134.373
2.98928 -11.3189 134.246
3.7578 -10.2748 134.167
12.8872 -30.8467 -164.275
17.438 -32.1594 -173.271
-9.13783 -7.92319 134.26
-9.23487 -7.89517 134.261
2.82887 -11.288 120.08
4.02774 -10.8391 187.218
3.58911 -11.4343 187.218
-9.25569 -7.91501 134.334
27.1938 19.1802 -174.519
2.43218 -10.0989 134.659
3.76008 -10.2796 134.616
11.4766 -30.4398 104.086
10.3173 -30.1054 6.67513
5.25517 -10.3545 121.648
5.15854 -11.5954 187.218
4.85968 -10.9526 187.218
3.57902 -12.5826 135.043
3.41006 -10.1002 121.381
18.0434 -27.9397 -55.1075
18.0434 -27.9397 -90.354
-6.60009 -5.28916 123.227
18.0434 -27.9397 -166.833
-8.10278 -4.8538 123.228
-9.37017 -5.69151 122.073
-7.70238 -7.80834 134.837
-5.96968 -8.30877 134.825
18.8447 -28.1651 -173.789
-14.7699 -22.8687 -174.519
-14.7699 -22.8687 -124.959
-14.48 -21.92 -174.519
3.94521 -12.2081 187.218
4.7567 -12.3359 187.218
33.3708 17.3984 -183.318
19.283 -32.6916 -183.318
32.1872 17.7398 -183.318
32.1872 17.7398 -174.519
27.1938 19.1802 -164.707
5.73407 -17.7221 114.707
19.3826 10.9014 9.51915
-0.32052 0.0235881 130.068
-12.7726 30.709 -174.519
6.00329 -11.4263 120.827
-32.1877 -17.8443 -183.318
-32.1877 -17.8443 54.3773
-32.1877 -17.8443 -52.9907
-2.70807 -1.30329 28.7671
-17.9659 32.2071 -103.918
-1.88767 -0.842437 128.802
31.9158 17.8181 -103.918
11.0966 -20.6483 113.383
-17.9659 32.2071 -174.519
0.370761 -27.2362 -16.4824
0.370761 -27.2362 -50.797
31.9158 17.8181 -103.918
-12.7721 30.7089 -174.396
31.9066 17.8208 -1.39326
-12.7086 30.6905 -158.622
-14.48 -21.92 -183.318
-13.6 -19.04 -174.519
17.4574 -32.165 104.087
-32.4942 -17.7559 104.08
-32.1008 -17.5385 104.397
12.8358 -30.8319 -2.50508
12.8512 -30.8363 -50.797
13.9224 -26.7807 -174.519
32.2644 18.0054 -174.519
-18.3525 30.8467 -174.519
30.3528 12.7861 -165.26
-8.78824 -6.69721 125.034
-8.24384 -7.00611 126.7
0.370761 -27.2362 -82.4906
-17.6442 33.3393 -183.318
32.4907 18.784 -183.318
-9.12023 -7.78083 134.238
-26.3991 -15.4402 -174.519
-7.00938 -3.67275 124.665
-6.52653 -3.81194 124.665
32.1619 17.9488 -174.425
0.827429 -1.75373 127.065
0.74902 -1.91311 126.707
19.1031 -27.276 -56.0584
19.1031 -27.276 -91.9964
-10.736 -5.73132 132.301
-11.7044 -6.26635 132.771
-11.6706 -8.22487 119.002
-10.9975 -7.76622 187.218
-7.8556 -8.54938 134.971
0.370761 -27.2362 -174.519
-7.62279 -7.42344 134.766
0.639998 -26.24 -174.519
-8.96445 -8.48128 135.687
32.1872 17.7398 -103.918
32.1872 17.7398 -1.70814
-7.93766 -7.2548 134.755
-6.3687 -8.10898 136.131
-7.52155 -8.38454 136.242
-9.04245 -8.31349 135.849
27.1938 19.1802 -103.918
1.99531 -3.2896 119.248
4.51341 -8.73067 104.584
1.65399 -3.45631 127.128
-17.9659 32.2071 -174.379
-2.77966 -1.33536 128.082
-7.66911 -4.56716 123.624
-18.3525 30.8467 -102.475
-18.3525 30.8467 -172.009
-0.960002 -2.99656 122.644
-10.188 -8.81855 136.464
-0.960002 -1.2013 128.224
-13.47 -7.24296 119.447
-9.81441 -8.44613 136.38
-0.960002 -2.94188 125.082
-14.3525 -7.73668 38.9131
-11.4988 -8.10779 136.415
-9.48894 -5.04298 122.662
-27.4788 -19.2026 -50.797
-30.2313 -18.4087 -50.797
-0.640548 -3.68207 123.033
-33.2941 -17.5252 -176.919
-32.2472 -13.7955 -176.919
-17.9659 32.2071 -173.368
-0.32 0.0212504 116.937
2.51524 26.2991 -115.92
-7.32468 -5.9817 134.504
-33.2941 -17.5252 -183.318
-32.2472 -13.7955 -183.318
-3.55543 28.0502 -103.918
-9.61856 -5.11461 122.558
-18.0922 32.1657 -174.519
-31.1268 -14.1106 -84.3858
-11.6482 -6.59708 135.264
-11.6838 -6.25485 134.83
0.240001 0.332281 116.497
-10.7563 -5.74238 134.382
0.240001 0.325473 26.1984
-10.5344 -5.86317 134.578
0.240001 -0.620893 25.916
-31.1268 -14.1106 -174.519
-31.1268 -14.1106 -54.7597
-11.5736 -7.31244 136.171
17.6647 -32.2248 -174.519
18.8447 -28.1651 -174.519
-11.8239 -6.33333 120.776
-10.3805 -24.1348 104.083
-12.6549 -6.79874 37.4339
-11.1692 -23.9074 30.7888
32.2662 18.0117 -104.208
30.1125 13.2576 -98.9347
-0.18285 -0.121319 127.449
17.6647 -32.2248 -1.57072
30.8233 13.0475 -98.9297
-0.104293 0.13283 127.149
32.2225 17.9823 -174.519
29.5381 16.5122 0.670438
32.2689 18.0209 -1.70891
30.7161 12.6787 -165.257
-0.156686 -0.273305 127.422
0.370761 -27.2362 -174.271
17.6647 -32.2248 -183.318
-19.8891 26.7491 -163.823
-19.5447 26.6508 -163.831
-27.4782 -19.2028 -47.7099
1.44251 -23.2707 -174.519
-0.960002 -0.950448 116.931
17.6647 -32.2248 -50.797
-0.960002 -0.650701 27.1505
0.639998 -26.24 -183.318
-0.960002 -0.33751 27.244
-18.0142 32.0374 -53.1899
15.6678 -31.6488 0.670438
-30.9026 -13.3217 -85.9234
-1.98503 -0.897125 116.932
-1.73509 -1.44034 116.929
-32.1021 -17.543 54.3785
-1.57345 -1.59326 125.772
-32.1877 -17.8443 -174.519
18.8447 -28.1651 -55.1132
-0.832017 -0.260003 117.296
-0.34887 -0.565886 117.442
-10.5361 -5.85234 133.634
-0.5618 -0.11751 26.897
-32.1877 -17.8443 104.08
-9.79576 -8.43968 135.475
-10.1866 -8.83806 134.913
-17.9659 32.2071 -183.318
-10.5282 -5.90314 138.055
-9.37372 -6.51761 137.733
0.240001 0.167329 126.167
0.240001 -0.218276 124.808
0.240001 -0.511582 123.773
0.240001 -0.954613 122.211
-11.5097 -8.11527 135.302
0.240001 -0.967284 125.868
0.240001 -0.73175 126.444
18.8447 -28.1651 -90.3663
32.1842 17.7297 -174.519
-12.4882 30.627 -103.918
0.970767 -1.30467 129.151
0.944053 -1.30374 129.144
-32.4897 -17.7572 54.7163
17.4503 -32.163 2.6692
-32.48 -17.76 -53.3185
5  10 45 44 56 57  255 0 0
11  10 11 12 13 895 937 855 990 60 59 58  127 255 0
5  10 57 731 750 11  0 255 255
5  0 14 797 796 759  0 255 255
6  52 53 785 902 1081 1080  255 0 0
6  52 998 917 916 54 53  0 255 255
5  52 51 583 1131 998  0 255 255
5  0 759 483 624 15  0 255 255
5  10 58 860 863 45  127 0 255
7  610 887 1157 1000 929 547 583  0 255 255
3  610 51 75  0 255 255
3  16 15 624  0 255 255
5  16 957 17 4 1  0 255 255
4  610 75 885 887  0 255 255
5  16 624 482 596 957  0 255 255
3  610 583 51  0 255 255
5  1157 887 885 73 72  0 255 255
4  1157 1155 999 1000  0 255 255
13  7 2 1136 1123 1001 841 1100 1068 792 1129 72 71 70  0 255 255
9  7 8 69 68 67 66 1009 1011 1109  127 255 0
5  1156 1015 1005 21 20  0 255 255
3  1156 19 1125  0 255 255
4  1157 72 1129 1155  0 255 255
5  1156 1125 968 967 1015  0 255 255
3  1156 20 19  0 255 255
4  52 1080 1074 51  255 0 0
5  2 6 581 580 1136  0 255 255
7  2 7 1109 994 757 913 1090  127 255 0
4  1155 1016 1137 999  0 255 255
13  1125 1018 1007 1117 1072 1000 999 794 871 1101 726 905 968  0 255 255
4  1155 1129 1017 1016  0 255 255
6  1129 792 793 739 788 1017  0 255 255
7  43 926 903 720 802 801 896  255 0 0
5  43 44 45 863 1140  127 0 255
4  53 54 55 785  255 0 0
5  43 42 1084 927 926  255 0 0
8  43 896 883 889 785 55 56 44  255 0 0
4  49 74 885 75  0 255 255
7  72 73 74 886 1085 1094 763  255 0 0
4  42 41 723 721  255 0 0
4  49 1093 886 74  255 0 0
7  1124 39 48 47 46 8 7  255 0 0
6  1124 763 1094 1060 893 39  255 0 0
4  7 70 763 1124  255 0 0
4  72 763 70 71  255 0 0
5  0 1114 895 13 14  127 255 0
5  0 15 16 1096 1114  127 255 0
5  1114 989 938 937 895  127 255 0
5  1114 1096 942 948 989  127 255 0
7  60 990 650 260 649 62 61  127 255 0
5  1021 649 260 261 991  127 255 0
6  1021 1108 63 50 62 649  127 255 0
5  1021 991 1151 711 1108  127 255 0
4  16 1 635 1096  127 255 0
4  49 75 901 1093  255 0 0
5  42 721 722 900 1084  255 0 0
4  1105 1120 18 19  127 255 0
6  19 18 771 1019 1018 1125  0 255 255
4  1110 1102 1047 1048  127 255 0
4  1110 1011 1009 1102  127 255 0
8  1105 1048 1047 1106 850 1036 1132 1120  127 255 0
9  19 20 875 873 1109 1011 1110 1048 1105  127 255 0
4  18 951 770 771  0 255 255
5  18 5 17 957 951  0 255 255
5  1120 1132 974 5 18  127 255 0
6  1102 1009 66 1103 1106 1047  127 255 0
6  995 317 221 316 694 909  0 255 255
5  995 633 95 86 317  0 255 255
8  995 276 277 358 77 122 359 633  0 255 255
6  1017 788 786 791 1137 1016  0 255 255
5  1015 967 993 779 1005  0 255 255
5  60 1028 861 860 59  127 0 255
4  60 61 868 1028  127 0 255
5  42 43 1140 866 1006  127 0 255
5  42 1006 1057 40 41  127 0 255
4  63 1108 1033 64  127 255 0
3  1004 65 66  127 0 255
4  63 64 992 964  127 0 255
4  1006 996 1010 1057  127 0 255
4  1002 1076 1012 1152  127 0 255
4  39 38 1076 1002  127 0 255
5  1004 1053 992 64 65  127 0 255
5  1004 66 67 68 1053  127 0 255
5  1002 1152 47 48 39  127 0 255
6  8 46 1082 1053 68 69  127 0 255
5  1000 1072 1071 928 929  0 255 255
4  1137 791 794 999  0 255 255
4  1131 583 547 546  0 255 255
4  998 679 678 917  0 255 255
4  1131 546 545 919  0 255 255
5  998 1131 676 675 679  0 255 255
4  1097 635 636 982  127 255 0
4  1132 1036 1037 1150  127 255 0
4  1097 982 845 844  127 255 0
4  1132 1150 975 974  127 255 0
4  1131 919 677 676  0 255 255
4  927 1084 900 899  255 0 0
6  39 893 723 41 40 38  255 0 0
4  2 1090 1088 6  127 255 0
6  20 21 22 23 872 875  127 255 0
4  1109 873 874 994  127 255 0
4  1117 1007 1008 1071  0 255 255
5  919 852 853 985 915  0 255 255
3  1117 1071 1072  0 255 255
3  919 545 852  0 255 255
5  944 1151 991 261 650  127 255 0
5  944 607 604 709 711  127 255 0
4  982 848 847 845  127 255 0
3  944 711 1151  127 255 0
3  64 1033 65  127 255 0
4  1108 711 710 1033  127 255 0
4  1150 848 977 975  127 255 0
4  1150 1037 847 848  127 255 0
4  1140 1027 867 866  127 0 255
3  59 860 58  127 0 255
4  1140 863 862 1027  127 0 255
4  1006 866 864 996  127 0 255
4  63 964 509 50  127 0 255
5  1100 841 840 1098 740  0 255 255
4  1101 871 870 1099  0 255 255
4  1098 840 821 820  0 255 255
4  1098 1065 739 740  0 255 255
4  1099 870 869 730  0 255 255
4  1099 727 726 1101  0 255 255
5  1100 740 739 793 1068  0 255 255
6  1099 730 724 725 728 727  0 255 255
6  1098 820 646 1040 790 1065  0 255 255
5  1097 844 940 846 635  127 255 0
4  1096 635 846 942  127 255 0
5  1093 890 1126 1085 886  255 0 0
6  1094 1085 1126 1116 1061 1060  255 0 0
4  1093 901 891 890  255 0 0
4  46 47 1152 1082  127 0 255
4  1082 1152 1012 1078  127 0 255
4  1082 1078 992 1053  127 0 255
4  1076 1057 1010 1012  127 0 255
4  38 40 1057 1076  127 0 255
6  1078 1012 1010 907 964 992  127 0 255
5  1071 1008 1026 984 928  0 255 255
4  1040 787 786 790  0 255 255
3  1068 793 792  0 255 255
4  1065 790 789 739  0 255 255
4  55 54 916 752  0 255 255
3  13 12 751  0 255 255
4  13 751 797 14  0 255 255
3  55 752 56  0 255 255
4  1061 723 893 1060  255 0 0
3  1061 1116 1115  255 0 0
5  907 996 864 506 509  127 0 255
3  907 1010 996  127 0 255
4  915 985 1014 1030  0 255 255
4  798 1045 1043 799  0 255 255
4  1019 771 770 949  0 255 255
4  1019 1008 1007 1018  0 255 255
4  799 1043 1113 623  0 255 255
4  799 483 762 773  0 255 255
4  799 623 482 483  0 255 255
7  1019 949 956 623 1113 1026 1008  0 255 255
5  1045 985 853 983 1043  0 255 255
4  1045 798 1020 1118  0 255 255
5  1043 983 984 1026 1113  0 255 255
4  1040 646 640 645  0 255 255
6  1005 777 776 780 22 21  0 255 255
6  1041 823 822 819 818 825  0 255 255
6  1040 945 472 824 869 787  0 255 255
4  1005 779 778 777  0 255 255
5  1041 734 445 686 823  0 255 255
5  1041 825 805 737 734  0 255 255
5  1040 645 647 946 945  0 255 255
10  1003 843 842 1127 835 831 322 199 203 488  0 255 255
4  1003 633 359 634  0 255 255
4  993 815 691 816  0 255 255
17  1003 634 121 629 362 234 592 832 834 808 754 466 753 733 503 370 843  0 255 255
6  993 816 781 717 778 779  0 255 255
4  1036 850 849 1037  127 255 0
3  1037 849 847  127 255 0
6  65 1033 710 1023 1103 66  127 255 0
4  752 731 57 56  0 255 255
4  1030 1014 731 752  0 255 255
4  915 1030 752 916  0 255 255
4  1028 868 507 861  127 0 255
4  1027 862 865 867  127 0 255
4  928 545 546 929  0 255 255
5  928 984 983 852 545  0 255 255
4  845 606 607 844  127 255 0
5  845 847 849 1111 606  127 255 0
3  710 605 1023  127 255 0
4  1111 849 850 1106  127 255 0
4  606 1111 1023 605  127 255 0
4  1022 721 723 1061  255 0 0
5  1022 800 804 722 721  255 0 0
4  1061 1115 800 1022  255 0 0
4  890 884 1116 1126  255 0 0
4  884 890 889 883  255 0 0
4  1116 884 800 1115  255 0 0
4  751 750 1118 1020  0 255 255
4  798 797 751 1020  0 255 255
4  1111 1106 1103 1023  127 255 0
4  623 956 596 482  0 255 255
4  750 731 1013 1122  0 255 255
4  750 751 12 11  0 255 255
4  1122 1013 985 1045  0 255 255
4  1045 1118 750 1122  0 255 255
4  1014 985 1013 731  0 255 255
4  1001 1123 1121 768  0 255 255
11  1001 842 843 1058 1031 504 732 1070 1083 840 841  0 255 255
7  1003 488 128 129 360 95 633  0 255 255
4  1001 768 767 842  0 255 255
4  24 23 780 828  0 255 255
4  24 25 827 826  127 255 0
4  997 782 717 718  0 255 255
4  997 921 368 457  0 255 255
5  816 809 510 461 781  0 255 255
6  997 457 775 774 776 782  0 255 255
4  24 828 829 25  0 255 255
4  997 718 969 921  0 255 255
4  863 860 506 864  127 0 255
6  995 909 315 156 318 276  0 255 255
4  24 826 872 23  127 255 0
5  994 874 827 758 757  127 255 0
4  967 904 815 993  0 255 255
3  964 907 509  127 0 255
4  990 855 854 988  127 255 0
4  990 988 947 650  127 255 0
4  989 948 939 938  127 255 0
4  988 854 857 947  127 255 0
4  987 970 657 655  0 255 255
6  986 962 961 971 970 987  0 255 255
4  781 514 718 717  0 255 255
4  809 960 513 511  0 255 255
5  809 816 691 690 749  0 255 255
4  986 660 659 962  0 255 255
3  781 515 514  0 255 255
5  987 655 656 660 986  0 255 255
3  809 511 510  0 255 255
5  781 461 460 516 515  0 255 255
9  808 960 749 729 824 807 621 467 754  0 255 255
4  808 834 312 313  0 255 255
4  921 838 369 368  0 255 255
5  808 313 973 512 960  0 255 255
5  921 969 517 783 838  0 255 255
3  983 853 852  0 255 255
3  982 636 848  127 255 0
4  848 636 367 977  127 255 0
6  5 974 975 977 367 17  127 255 0
4  971 961 654 658  0 255 255
6  718 514 515 520 341 522  0 255 255
6  969 521 523 653 518 517  0 255 255
4  971 658 657 970  0 255 255
4  718 522 521 969  0 255 255
4  968 905 904 967  0 255 255
5  824 729 724 730 869  0 255 255
3  824 472 471  0 255 255
3  960 809 749  0 255 255
3  839 517 518  0 255 255
6  839 973 313 312 379 380  0 255 255
3  839 512 973  0 255 255
6  962 659 661 245 654 961  0 255 255
6  839 518 519 462 463 512  0 255 255
4  960 512 463 513  0 255 255
4  956 949 770 596  0 255 255
4  957 596 770 951  0 255 255
3  650 261 260  127 255 0
3  944 856 607  127 255 0
5  948 942 846 940 939  127 255 0
5  947 857 856 944 650  127 255 0
4  844 607 855 937  127 255 0
5  940 844 937 938 939  127 255 0
3  929 546 547  0 255 255
3  73 885 74  0 255 255
5  927 899 898 903 926  255 0 0
4  25 26 758 827  127 255 0
3  874 826 827  127 255 0
6  25 829 556 540 1055 26  0 255 255
5  917 678 674 677 919  0 255 255
4  919 915 916 917  0 255 255
4  913 757 758 877  127 255 0
3  829 557 556  0 255 255
4  913 877 1092 1090  127 255 0
6  909 694 254 314 157 315  0 255 255
6  26 27 28 1092 877 758  127 255 0
7  837 613 612 490 539 540 851  0 255 255
5  837 287 288 559 558  0 255 255
5  26 1055 33 32 27  0 255 255
3  837 851 287  0 255 255
4  785 889 888 902  255 0 0
4  906 868 61 62  127 0 255
4  906 508 507 868  127 0 255
5  62 50 509 508 906  127 0 255
4  815 728 690 691  0 255 255
4  904 727 728 815  0 255 255
4  905 726 727 904  0 255 255
4  902 897 1075 1081  255 0 0
4  903 898 719 720  255 0 0
4  902 888 892 897  255 0 0
4  901 897 892 891  255 0 0
7  900 722 804 803 719 898 899  255 0 0
3  896 801 883  255 0 0
5  836 150 369 838 833  0 255 255
3  836 149 150  0 255 255
5  6 1088 324 31 29  127 255 0
3  836 452 149  0 255 255
4  784 150 149 667  0 255 255
4  784 613 558 756  0 255 255
3  894 599 716  0 255 255
5  667 149 453 669 601  0 255 255
5  784 716 599 612 613  0 255 255
3  894 600 599  0 255 255
5  894 716 784 667 600  0 255 255
4  1054 876 859 858  127 255 0
5  34 35 692 876 1054  127 255 0
4  1055 540 539 33  0 255 255
5  34 33 539 490 388  0 255 255
4  34 1054 858 33  127 255 0
5  892 888 889 890 891  255 0 0
4  796 795 760 759  0 255 255
5  799 773 772 795 796  0 255 255
4  884 883 801 800  255 0 0
3  881 526 343  0 255 255
3  881 298 101  0 255 255
4  882 520 377 587  0 255 255
4  882 682 263 264  0 255 255
3  879 765 585  0 255 255
3  879 98 100  0 255 255
6  880 374 289 953 91 376  0 255 255
3  880 405 378  0 255 255
3  651 654 245  0 255 255
5  651 531 524 99 585  0 255 255
6  878 530 113 410 242 411  0 255 255
7  878 664 663 527 162 165 529  0 255 255
5  880 378 377 375 374  0 255 255
3  882 587 682  0 255 255
4  882 264 341 520  0 255 255
7  881 343 344 666 237 238 298  0 255 255
6  879 100 101 298 764 765  0 255 255
4  881 101 102 526  0 255 255
3  878 529 530  0 255 255
8  880 376 972 159 158 708 449 405  0 255 255
5  651 585 765 658 654  0 255 255
4  879 585 99 98  0 255 255
3  878 411 664  0 255 255
5  28 3 29 31 30  127 255 0
4  28 27 32 30  0 255 255
5  36 37 474 327 326  127 255 0
4  36 326 692 35  127 255 0
5  876 692 326 325 859  127 255 0
4  28 30 325 1092  127 255 0
6  31 37 550 631 578 1077  0 255 255
5  31 324 328 474 37  127 255 0
3  23 22 780  0 255 255
4  782 777 778 717  0 255 255
3  782 776 777  0 255 255
5  875 872 826 874 873  127 255 0
4  780 776 774 828  0 255 255
5  828 774 288 557 829  0 255 255
4  871 794 791 870  0 255 255
5  870 791 786 787 869  0 255 255
4  867 865 864 866  127 0 255
4  865 862 863 864  127 0 255
4  506 860 861 507  127 0 255
6  859 325 30 32 33 858  127 255 0
5  857 854 855 607 856  127 255 0
4  851 540 556 287  0 255 255
4  287 556 557 288  0 255 255
6  843 370 371 1059 1032 1058  0 255 255
4  842 767 1128 1127  0 255 255
3  840 1083 821  0 255 255
4  753 478 976 733  0 255 255
4  838 783 704 833  0 255 255
4  839 380 783 517  0 255 255
3  837 558 613  0 255 255
4  835 1127 390 391  0 255 255
4  834 832 698 697  0 255 255
4  835 573 320 831  0 255 255
5  836 833 704 381 452  0 255 255
3  703 452 381  0 255 255
4  34 388 385 386  0 255 255
5  36 35 407 706 714  0 255 255
4  6 29 576 581  0 255 255
3  31 575 576  0 255 255
4  835 391 430 573  0 255 255
5  834 697 684 406 312  0 255 255
4  832 592 537 698  0 255 255
5  695 415 671 705 594  0 255 255
3  695 227 226  0 255 255
5  830 632 321 310 309  0 255 255
7  695 594 590 397 358 277 227  0 255 255
5  830 578 631 591 632  0 255 255
4  831 320 202 322  0 255 255
5  830 309 215 577 578  0 255 255
4  441 625 626 439  0 255 255
5  825 818 735 736 805  0 255 255
4  824 471 470 807  0 255 255
4  753 622 465 464  0 255 255
4  753 464 481 478  0 255 255
4  821 648 443 641  0 255 255
4  820 639 640 646  0 255 255
4  822 689 688 819  0 255 255
4  823 686 689 822  0 255 255
4  821 641 639 820  0 255 255
4  817 478 479 469  0 255 255
4  622 807 470 465  0 255 255
5  622 753 466 467 621  0 255 255
6  819 688 687 738 735 818  0 255 255
7  817 469 468 480 638 451 644  0 255 255
4  812 639 641 813  0 255 255
6  812 570 912 319 560 814  0 255 255
5  814 645 640 639 812  0 255 255
5  814 560 421 567 811  0 255 255
5  813 641 443 644 810  0 255 255
4  813 569 570 812  0 255 255
5  638 480 943 642 643  0 255 255
4  638 450 1025 637  0 255 255
4  811 567 566 806  0 255 255
4  811 647 645 814  0 255 255
3  810 644 451  0 255 255
4  810 568 569 813  0 255 255
4  811 806 642 647  0 255 255
6  638 643 806 566 562 450  0 255 255
6  810 451 450 562 563 568  0 255 255
3  729 725 724  0 255 255
5  729 749 690 728 725  0 255 255
3  806 643 642  0 255 255
3  807 622 621  0 255 255
3  805 736 737  0 255 255
4  802 720 719 803  255 0 0
5  804 800 801 802 803  255 0 0
4  799 796 797 798  0 255 255
4  795 772 761 760  0 255 255
3  790 786 789  0 255 255
4  789 786 788 739  0 255 255
4  783 380 379 704  0 255 255
5  756 628 369 150 784  0 255 255
4  756 558 559 755  0 255 255
5  704 379 683 594 705  0 255 255
3  575 31 1077  0 255 255
3  702 769 715  0 255 255
3  702 387 389  0 255 255
4  3 28 713 766  0 255 255
5  702 715 386 385 387  0 255 255
5  3 766 582 576 29  0 255 255
3  774 775 440  0 255 255
6  775 457 459 625 441 440  0 255 255
5  755 559 288 439 626  0 255 255
4  755 627 628 756  0 255 255
6  755 626 625 459 458 627  0 255 255
4  439 288 774 440  0 255 255
3  624 483 482  0 255 255
4  773 762 761 772  0 255 255
4  715 706 407 386  0 255 255
4  769 707 706 715  0 255 255
9  769 702 389 700 593 1073 589 630 707  0 255 255
7  548 714 706 707 573 430 1134  0 255 255
4  573 707 630 320  0 255 255
4  766 713 712 582  0 255 255
5  548 1134 1133 581 576  0 255 255
5  767 768 1121 1119 1128  0 255 255
4  1133 391 390 580  0 255 255
4  1134 430 391 1133  0 255 255
4  1136 580 390 1123  0 255 255
3  1133 580 581  0 255 255
4  1128 1119 390 1127  0 255 255
4  390 1119 1121 1123  0 255 255
3  554 745 184  0 255 255
3  1138 193 194  0 255 255
4  1138 278 279 282  0 255 255
6  1139 280 278 1138 194 428  0 255 255
6  1139 422 421 564 425 426  0 255 255
6  1142 571 182 184 738 687  0 255 255
5  1142 688 689 748 236  0 255 255
4  685 746 176 177  0 255 255
5  685 544 541 332 336  0 255 255
4  1147 425 424 565  0 255 255
5  1147 1069 1063 280 281  0 255 255
6  1141 334 543 105 235 236  0 255 255
5  1141 748 746 685 335  0 255 255
4  1147 281 426 425  0 255 255
4  1139 426 281 280  0 255 255
5  1147 565 285 286 1069  0 255 255
4  685 177 572 544  0 255 255
3  1142 687 688  0 255 255
4  554 184 182 620  0 255 255
3  1141 236 748  0 255 255
4  1142 236 235 571  0 255 255
3  1141 335 334  0 255 255
4  1138 282 258 193  0 255 255
5  554 553 1066 742 745  0 255 255
5  1139 428 427 423 422  0 255 255
5  587 403 404 448 682  0 255 255
4  764 298 238 297  0 255 255
4  764 657 658 765  0 255 255
5  764 297 662 655 657  0 255 255
5  483 759 760 761 762  0 255 255
3  754 467 466  0 255 255
5  324 1088 1090 1092 325  127 255 0
5  1083 1070 979 648 821  0 255 255
4  1081 1075 1074 1080  255 0 0
6  51 1074 1075 897 901 75  255 0 0
4  1070 732 978 979  0 255 255
5  817 979 978 976 478  0 255 255
4  817 644 442 979  0 255 255
6  1069 743 351 292 349 1063  0 255 255
6  572 177 176 447 744 747  0 255 255
6  572 1095 924 1086 302 544  0 255 255
3  1066 283 284  0 255 255
5  553 173 172 283 1066  0 255 255
3  1063 349 350  0 255 255
6  572 747 286 285 925 1095  0 255 255
5  1069 286 747 744 743  0 255 255
7  1063 350 284 283 175 278 280  0 255 255
6  1066 284 350 349 741 742  0 255 255
4  748 689 686 746  0 255 255
4  746 686 445 176  0 255 255
4  745 735 738 184  0 255 255
4  741 349 292 291  0 255 255
4  741 737 736 742  0 255 255
3  743 446 351  0 255 255
4  744 447 446 743  0 255 255
4  742 736 735 745  0 255 255
5  741 291 444 734 737  0 255 255
3  586 374 375  0 255 255
5  586 516 519 652 584  0 255 255
3  734 444 445  0 255 255
5  176 445 444 446 447  0 255 255
3  637 1025 1024  0 255 255
8  732 504 1059 371 503 733 976 978  0 255 255
4  682 448 681 680  0 255 255
6  701 387 385 388 490 475  0 255 255
5  701 697 698 593 700  0 255 255
5  701 475 476 684 697  0 255 255
3  599 611 612  0 255 255
4  34 386 407 35  0 255 255
4  714 548 37 36  0 255 255
4  713 28 30 712  0 255 255
3  710 711 709  127 255 0
4  710 709 604 605  127 255 0
5  708 162 163 528 681  0 255 255
5  681 448 404 449 708  0 255 255
6  681 528 665 395 408 680  0 255 255
6  529 159 90 241 116 530  0 255 255
4  529 165 158 159  0 255 255
4  708 158 165 162  0 255 255
8  631 1112 579 352 136 135 224 591  0 255 255
4  630 589 1062 323  0 255 255
6  594 683 609 608 299 402  0 255 255
4  671 415 413 670  0 255 255
7  130 416 696 196 146 273 597  0 255 255
4  130 595 696 416  0 255 255
3  671 668 705  0 255 255
3  703 382 452  0 255 255
5  705 668 382 381 704  0 255 255
3  703 381 382  0 255 255
4  577 215 214 355  0 255 255
3  593 698 537  0 255 255
5  577 355 935 934 549  0 255 255
4  700 389 387 701  0 255 255
6  699 352 579 930 274 275  0 255 255
4  699 477 353 352  0 255 255
3  599 598 611  0 255 255
6  699 275 265 267 384 477  0 255 255
4  595 402 299 195  0 255 255
4  611 475 490 612  0 255 255
3  598 1035 300  0 255 255
3  611 476 475  0 255 255
4  696 595 195 196  0 255 255
6  598 300 299 608 476 611  0 255 255
5  694 672 253 250 254  0 255 255
5  693 315 157 154 167  0 255 255
7  693 217 82 218 155 156 315  0 255 255
7  695 226 248 1154 1153 413 415  0 255 255
5  694 316 220 225 672  0 255 255
3  130 597 131  0 255 255
4  693 167 166 217  0 255 255
4  631 603 1104 1112  0 255 255
7  631 550 473 1144 1143 1107 603  0 255 255
3  685 336 335  0 255 255
3  379 312 406  0 255 255
3  684 476 406  0 255 255
4  683 379 406 609  0 255 255
4  682 680 262 263  0 255 255
3  344 263 262  0 255 255
6  680 408 237 666 344 262  0 255 255
6  662 395 164 663 660 656  0 255 255
4  297 237 395 662  0 255 255
4  679 675 674 678  0 255 255
4  677 674 675 676  0 255 255
3  673 1153 1154  0 255 255
3  226 249 248  0 255 255
5  225 133 132 209 208  0 255 255
7  225 220 87 86 361 223 134  0 255 255
8  673 246 186 140 138 211 216 1153  0 255 255
4  673 1154 247 246  0 255 255
4  225 208 253 672  0 255 255
3  133 225 134  0 255 255
6  670 413 414 602 669 453  0 255 255
5  671 670 453 1056 668  0 255 255
3  669 602 601  0 255 255
3  668 1056 382  0 255 255
3  667 601 600  0 255 255
4  664 659 660 663  0 255 255
4  665 528 163 164  0 255 255
4  411 661 659 664  0 255 255
3  665 164 395  0 255 255
4  663 164 163 527  0 255 255
4  661 411 242 245  0 255 255
3  662 656 655  0 255 255
5  653 523 484 584 652  0 255 255
4  652 519 518 653  0 255 255
5  651 244 243 409 531  0 255 255
3  651 245 244  0 255 255
4  642 943 946 647  0 255 255
4  638 637 1024 451  0 255 255
5  636 635 1 4 367  127 255 0
4  632 223 588 321  0 255 255
4  634 359 122 121  0 255 255
4  632 591 224 223  0 255 255
4  630 323 202 320  0 255 255
6  223 361 360 129 487 588  0 255 255
6  227 83 82 217 249 226  0 255 255
5  629 121 122 77 76  0 255 255
4  489 190 189 127  0 255 255
3  487 321 588  0 255 255
4  487 129 128 205  0 255 255
7  227 277 276 318 155 218 83  0 255 255
7  629 535 346 96 363 233 362  0 255 255
6  487 206 207 200 197 321  0 255 255
5  629 76 79 399 535  0 255 255
4  627 368 369 628  0 255 255
3  627 458 368  0 255 255
3  554 620 555  0 255 255
5  505 305 950 952 1050  0 255 255
5  618 616 615 617 619  0 255 255
6  619 617 1046 174 1052 1051  0 255 255
6  618 1050 952 1044 981 616  0 255 255
3  555 1051 1052  0 255 255
5  505 1050 1051 555 620  0 255 255
4  619 1051 1050 618  0 255 255
3  455 174 1046  0 255 255
7  454 1029 169 497 941 502 563  0 255 255
5  454 562 566 423 959  0 255 255
4  454 152 151 1029  0 255 255
4  617 615 1042 1046  0 255 255
4  455 1046 1042 259  0 255 255
6  1029 432 431 170 171 498  0 255 255
11  498 171 494 1079 491 337 500 501 495 435 437  0 255 255
5  456 433 432 1029 151  0 255 255
3  456 151 152  0 255 255
4  614 432 433 259  0 255 255
3  494 171 170  0 255 255
3  494 950 1079  0 255 255
4  494 1049 952 950  0 255 255
3  614 431 432  0 255 255
5  616 981 980 1042 615  0 255 255
5  259 1042 980 431 614  0 255 255
3  494 170 1049  0 255 255
4  406 476 608 609  0 255 255
4  607 606 605 604  127 255 0
3  132 131 209  0 255 255
3  603 1107 1104  0 255 255
3  602 181 178  0 255 255
7  602 178 1034 598 599 600 601  0 255 255
6  597 273 145 271 412 131  0 255 255
3  358 76 77  0 255 255
4  358 401 79 76  0 255 255
4  358 397 294 401  0 255 255
5  130 136 357 538 595  0 255 255
4  594 402 295 590  0 255 255
5  592 234 233 363 537  0 255 255
3  590 398 397  0 255 255
6  593 537 363 348 1067 1073  0 255 255
6  590 295 296 396 232 398  0 255 255
4  589 1073 1067 1062  0 255 255
4  323 204 201 202  0 255 255
6  323 1062 1067 348 1130 204  0 255 255
5  584 485 289 374 586  0 255 255
7  552 523 521 339 342 419 366  0 255 255
6  552 365 364 954 485 484  0 255 255
6  586 375 377 520 515 516  0 255 255
4  587 377 378 403  0 255 255
3  552 366 365  0 255 255
3  584 484 485  0 255 255
3  579 1112 930  0 255 255
7  578 577 549 548 576 575 1077  0 255 255
4  574 215 311 532  0 255 255
4  549 934 933 550  0 255 255
4  571 304 303 183  0 255 255
8  543 301 125 126 923 229 106 105  0 255 255
4  543 334 333 542  0 255 255
4  544 302 109 110  0 255 255
4  543 103 104 301  0 255 255
7  571 235 106 229 228 307 304  0 255 255
5  568 502 269 910 569  0 255 255
4  569 910 911 570  0 255 255
3  570 911 912  0 255 255
4  285 565 424 561  0 255 255
7  285 561 92 93 1086 924 925  0 255 255
3  568 563 502  0 255 255
3  454 563 562  0 255 255
4  567 422 423 566  0 255 255
5  564 560 319 561 424  0 255 255
3  564 421 560  0 255 255
3  567 421 422  0 255 255
3  564 424 425  0 255 255
3  561 319 92  0 255 255
5  319 912 911 918 92  0 255 255
5  555 1052 174 173 553  0 255 255
3  554 555 553  0 255 255
4  282 173 174 455  0 255 255
3  552 486 523  0 255 255
3  552 484 486  0 255 255
5  550 933 1146 1145 473  0 255 255
4  551 115 112 111  0 255 255
6  531 114 161 160 142 524  0 255 255
4  530 116 115 551  0 255 255
5  531 409 111 112 114  0 255 255
4  551 111 113 530  0 255 255
4  550 37 548 549  0 255 255
4  542 333 332 541  0 255 255
6  544 110 103 543 542 541  0 255 255
5  536 401 294 295 538  0 255 255
5  536 120 119 392 1064  0 255 255
5  538 357 533 120 536  0 255 255
4  538 295 402 595  0 255 255
5  536 1064 78 79 401  0 255 255
5  535 399 400 347 346  0 255 255
5  532 311 197 200 393  0 255 255
6  534 123 124 201 204 1130  0 255 255
5  534 1130 348 97 191  0 255 255
4  534 191 190 123  0 255 255
3  533 119 120  0 255 255
8  357 356 213 532 393 392 119 533  0 255 255
3  524 142 141  0 255 255
3  527 163 162  0 255 255
5  526 417 331 330 343  0 255 255
6  343 330 420 264 263 344  0 255 255
5  525 98 99 524 141  0 255 255
5  525 418 268 144 143  0 255 255
6  525 143 102 101 100 98  0 255 255
6  526 102 144 268 255 417  0 255 255
6  525 141 142 160 329 418  0 255 255
7  264 420 331 417 256 257 341  0 255 255
4  522 340 339 521  0 255 255
4  522 341 257 340  0 255 255
4  516 460 462 519  0 255 255
4  513 462 460 511  0 255 255
4  511 460 461 510  0 255 255
3  513 463 462  0 255 255
4  509 506 507 508  127 0 255
5  505 183 303 306 305  0 255 255
4  504 1031 1032 1059  0 255 255
3  503 371 370  0 255 255
3  502 941 270  0 255 255
3  501 500 499  0 255 255
6  501 499 492 493 496 495  0 255 255
3  230 493 492  0 255 255
3  228 308 307  0 255 255
5  500 337 338 492 499  0 255 255
6  230 492 338 303 308 228  0 255 255
3  496 438 436  0 255 255
5  497 436 438 270 941  0 255 255
4  498 437 434 168  0 255 255
4  497 168 434 436  0 255 255
5  496 436 434 435 495  0 255 255
3  491 338 337  0 255 255
3  491 1079 338  0 255 255
6  488 203 124 123 190 489  0 255 255
4  489 127 128 488  0 255 255
3  487 205 206  0 255 255
4  485 954 290 289  0 255 255
4  481 464 465 480  0 255 255
4  480 465 470 943  0 255 255
3  479 468 469  0 255 255
5  481 480 468 479 478  0 255 255
3  474 328 327  127 255 0
3  473 1145 1144  0 255 255
4  159 972 91 90  0 255 255
4  363 96 97 348  0 255 255
3  78 399 79  0 255 255
4  78 1064 392 429  0 255 255
5  429 392 118 117 127  0 255 255
3  78 400 399  0 255 255
6  78 429 192 345 347 400  0 255 255
4  240 271 145 272  0 255 255
3  598 1034 1035  0 255 255
4  240 272 1034 178  0 255 255
5  31 576 582 712 30  0 255 255
4  932 930 1149 1148  0 255 255
4  932 1148 1146 933  0 255 255
6  930 1112 1104 1107 1143 1149  0 255 255
6  1149 1143 1144 1145 1146 1148  0 255 255
4  471 946 943 470  0 255 255
4  472 945 946 471  0 255 255
4  459 457 368 458  0 255 255
5  456 152 454 959 958  0 255 255
6  259 433 456 958 963 258  0 255 255
4  455 259 258 282  0 255 255
3  235 105 106  0 255 255
6  1086 93 918 911 1039 1087  0 255 255
6  1091 1135 908 922 914 126  0 255 255
7  1091 125 301 104 107 108 920  0 255 255
3  1095 925 924  0 255 255
6  1086 94 108 107 109 302  0 255 255
3  1091 126 125  0 255 255
4  229 923 914 922  0 255 255
4  1087 1039 1038 1089  0 255 255
5  1089 1038 910 1135 1091  0 255 255
7  1091 920 108 94 1086 1087 1089  0 255 255
3  950 305 306  0 255 255
5  950 306 303 338 1079  0 255 255
4  296 293 231 396  0 255 255
3  1154 248 247  0 255 255
5  1153 216 180 414 413  0 255 255
4  443 648 979 442  0 255 255
3  644 443 442  0 255 255
3  1058 1032 1031  0 255 255
5  453 149 452 382 1056  0 255 255
3  1049 1044 952  0 255 255
5  170 431 980 1044 1049  0 255 255
3  1044 980 981  0 255 255
4  910 1038 1039 911  0 255 255
3  211 180 216  0 255 255
4  602 414 180 181  0 255 255
6  211 137 147 239 179 180  0 255 255
4  240 178 179 239  0 255 255
6  131 412 148 147 210 209  0 255 255
4  1035 146 196 300  0 255 255
5  1034 272 145 146 1035  0 255 255
4  300 196 195 299  0 255 255
4  505 620 182 183  0 255 255
3  571 183 182  0 255 255
4  1029 498 168 169  0 255 255
3  497 169 168  0 255 255
4  1025 450 451 1024  0 255 255
5  449 404 403 378 405  0 255 255
4  446 444 291 351  0 255 255
3  351 291 292  0 255 255
3  441 439 440  0 255 255
3  437 435 434  0 255 255
3  972 376 91  0 255 255
3  953 90 91  0 255 255
3  953 289 290  0 255 255
5  954 241 90 953 290  0 255 255
4  955 966 372 364  0 255 255
4  955 365 366 419  0 255 255
4  954 364 372 241  0 255 255
3  955 364 365  0 255 255
5  965 115 116 241 373  0 255 255
6  966 161 114 112 115 965  0 255 255
5  966 955 419 160 161  0 255 255
4  966 965 373 372  0 255 255
3  241 372 373  0 255 255
4  427 193 258 963  0 255 255
4  963 959 423 427  0 255 255
3  963 958 959  0 255 255
3  484 523 486  0 255 255
3  215 574 214  0 255 255
5  930 932 936 354 931  0 255 255
4  935 355 354 936  0 255 255
5  936 932 933 934 935  0 255 255
3  931 354 353  0 255 255
7  477 384 383 274 930 931 353  0 255 255
3  923 126 914  0 255 255
3  918 93 92  0 255 255
4  269 908 1135 910  0 255 255
5  493 230 229 922 496  0 255 255
4  438 496 922 908  0 255 255
4  270 438 908 269  0 255 255
3  502 270 269  0 255 255
4  356 355 214 213  0 255 255
4  532 213 214 574  0 255 255
6  127 117 394 206 205 128  0 255 255
4  429 127 189 192  0 255 255
4  428 194 193 427  0 255 255
3  420 330 331  0 255 255
6  418 339 340 256 255 268  0 255 255
4  418 329 342 339  0 255 255
4  419 342 329 160  0 255 255
3  417 255 256  0 255 255
5  412 271 240 239 148  0 255 255
4  410 113 111 409  0 255 255
4  410 409 243 242  0 255 255
3  237 297 238  0 255 255
3  408 395 237  0 255 255
6  398 232 231 293 294 397  0 255 255
3  396 231 232  0 255 255
3  394 117 118  0 255 255
3  394 207 206  0 255 255
6  394 118 392 393 200 207  0 255 255
4  384 267 266 383  0 255 255
5  383 266 265 275 274  0 255 255
3  17 367 4  127 255 0
3  362 233 234  0 255 255
4  361 86 95 360  0 255 255
7  136 352 353 354 355 356 357  0 255 255
3  346 97 96  0 255 255
4  347 345 97 346  0 255 255
4  345 192 191 97  0 255 255
3  340 257 256  0 255 255
5  336 332 333 334 335  0 255 255
5  328 324 325 326 327  127 255 0
5  322 202 201 124 199  0 255 255
4  321 197 198 310  0 255 255
4  317 86 87 221  0 255 255
3  314 254 252  0 255 255
3  314 154 157  0 255 255
3  318 156 155  0 255 255
4  316 221 87 220  0 255 255
5  314 252 251 153 154  0 255 255
3  311 198 197  0 255 255
5  311 215 309 310 198  0 255 255
4  308 303 304 307  0 255 255
4  296 295 294 293  0 255 255
3  283 172 175  0 255 255
4  282 279 172 173  0 255 255
4  278 175 172 279  0 255 255
3  273 146 145  0 255 255
3  102 143 144  0 255 255
3  267 265 266  0 255 255
6  212 140 139 185 89 208  0 255 255
4  208 89 85 88  0 255 255
4  254 250 251 252  0 255 255
6  253 208 88 222 251 250  0 255 255
5  249 217 166 80 188  0 255 255
4  251 222 84 153  0 255 255
3  246 187 186  0 255 255
6  249 188 187 246 247 248  0 255 255
4  245 242 243 244  0 255 255
3  210 147 137  0 255 255
3  239 147 148  0 255 255
3  230 228 229  0 255 255
4  224 135 134 223  0 255 255
3  219 153 84  0 255 255
3  219 80 166  0 255 255
4  222 88 85 84  0 255 255
7  219 84 85 89 185 81 80  0 255 255
5  219 166 167 154 153  0 255 255
3  218 82 83  0 255 255
3  212 138 140  0 255 255
6  212 208 209 210 137 138  0 255 255
3  211 138 137  0 255 255
3  203 199 124  0 255 255
4  192 189 190 191  0 255 255
3  188 80 81  0 255 255
3  186 139 140  0 255 255
6  188 81 185 139 186 187  0 255 255
4  181 180 179 178  0 255 255
7  136 130 131 132 133 134 135  0 255 255
4  109 104 103 110  0 255 255
3  109 107 104  0 255 255
3  75 51 49  0 255 255
3  51 75 49  255 0 0
8  74 49 8 7 70 71 72 73  0 255 255
8  49 74 73 72 71 70 7 8  255 0 0
10  69 8 9 50 63 64 65 66 67 68  127 255 0
10  8 69 68 67 66 65 64 63 50 9  127 0 255
8  62 50 9 10 58 59 60 61  127 255 0
8  50 62 61 60 59 58 10 9  127 0 255
9  57 10 9 51 52 53 54 55 56  0 255 255
9  10 57 56 55 54 53 52 51 9  255 0 0
4  49 51 9 8  0 255 255
4  51 49 8 9  255 0 0
14  48 39 38 40 41 42 43 44 45 10 9 8 46 47  255 0 0
14  39 48 47 46 8 9 10 45 44 43 42 41 40 38  127 0 255
8  37 31 30 32 33 34 35 36  0 255 255
8  31 37 36 35 34 33 32 30  127 255 0
4  29 6 2 3  0 255 255
4  6 29 3 2  127 255 0
13  28 3 5 18 19 20 21 22 23 24 25 26 27  0 255 255
13  3 28 27 26 25 24 23 22 21 20 19 18 5  127 255 0
4  17 5 3 4  0 255 255
4  5 17 4 3  127 255 0
13  1 4 3 2 7 8 9 10 11 12 13 14 0  0 255 255
13  4 1 0 14 13 12 11 10 9 8 7 2 3  127 255 0
4  16 1 0 15  0 255 255
4  1 16 15 0  127 255 0

