OFF
1157 949 0

-0.962296 -1.55871 128.371
-0.967629 -1.30901 128.609
-1.07001 -1.28315 128.207
-1.05029 -1.33361 128.237
0.425913 -0.607881 129.219
0.414773 -0.640011 129.154
0.260191 -0.636988 129.595
0.309903 -0.188552 129.138
0.141018 -0.29303 128.459
0.140467 -0.207595 128.524
0.14159 -0.381694 128.391
0.10676 0.259593 128.893
0.142853 -0.815393 129.391
3.18866 -11.7376 134.896
3.55573 -12.5327 135.011
-11.6458 -6.66941 134.863
-11.6517 -6.59531 134.944
-11.4544 -6.46936 135.145
-1.45533 -0.603543 128.883
-0.320535 0.0234907 128.89
5.57818 -11.3881 136.985
4.55228 -10.4024 136.109
5.56762 -11.3442 136.024
-10.1969 -6.05874 135.992
-11.188 -6.29934 135.416
-11.184 -6.29678 135.42
-10.9822 -6.1582 134.854
-11.1913 -6.30162 135.425
-11.4506 -6.47942 136.134
3.23468 -11.0184 136.098
2.81484 -10.1568 135.236
3.00711 -11.3223 135.821
2.43835 -10.1036 135.047
3.76567 -10.2912 135.714
-1.1795 -0.635156 127.887
-1.72115 -1.21122 128.494
-1.6704 -1.35691 126.916
-10.5343 -5.86416 134.664
-1.19279 -0.458499 128.553
-0.268297 -0.0711702 128.073
-0.0722058 -0.426192 127.978
-0.222179 0.0777726 128.033
0.606212 -0.72703 128.36
0.649042 -0.60084 128.616
0.63895 -0.581057 128.703
4.45771 -10.3863 135.788
0.504459 -1.02683 127.751
0.49321 -1.05997 127.684
4.39251 -8.50992 122.146
-9.10033 -7.88921 134.134
-0.069774 -0.430412 129.702
0.416835 -0.122401 129.568
0.100491 -0.323296 129.852
3.47228 -12.3223 136.308
4.29071 -10.3579 135.22
4.21708 -12.778 136.979
4.66782 -12.8466 137.208
3.33268 -12.0199 136.264
3.64596 -12.6911 136.69
0.448523 -0.542669 129.35
0.51765 -0.343288 129.751
-8.81164 -7.46413 134.84
-8.36402 -7.02269 134.381
-9.24485 -7.06817 134.261
-9.79638 -8.43019 136.225
-9.44499 -8.0821 135.98
-9.02001 -8.43513 135.721
-9.81143 -8.4451 136.235
-11.6236 -6.68476 136.85
0.911739 -1.58236 127.449
0.961967 -1.48027 127.678
1.12098 -1.58726 127.318
1.01497 -1.37254 127.92
-8.87895 -6.76457 136.04
0.184822 -0.492344 128.457
0.766272 -0.861696 129.01
0.43489 -0.65293 129.215
0.767882 -0.862279 128.88
-1.28688 -0.738981 127.866
-1.63995 -1.41479 127.286
-1.22188 -1.15195 127.707
-1.70383 -1.27543 127.31
-9.78721 -8.43672 135.061
-10.0439 -8.69263 135.119
0.148216 -1.40884 127.608
0.41123 -1.30151 127.193
-0.62509 -0.287157 127.337
-1.76288 -1.16656 126.443
-0.960002 -0.629901 127.202
-1.91334 -0.856854 125.673
-0.792747 -0.318646 127.056
-1.6539 -1.41853 125.768
-0.908828 -0.383363 127.908
-0.960002 -0.51047 127.624
-1.30502 -0.520569 127.782
-1.90005 -0.849393 127.293
-1.48387 -1.81167 124.715
0.108343 -0.296599 128.341
0.0396077 -0.487041 127.948
0.31679 -0.604444 128.15
0.734681 -0.781444 128.453
0.618176 -0.535744 128.675
-0.349853 -0.599193 127.233
-0.349778 -0.596651 126.486
0.857241 -1.05307 128.815
0.375997 -0.357395 129.239
0.553243 -0.810189 129.51
0.225324 0.0275138 129.009
-0.0602953 -0.447574 129.688
0.129548 0.272182 128.863
-0.320547 0.023418 128.01
-0.0706421 0.161507 128.068
0.5238 -1.35995 128.974
-9.72552 -6.30362 135.292
-9.42374 -6.08798 135.085
-0.32 -2.23525 127.801
-0.940236 -2.94136 127.02
-0.817802 -1.95377 127.593
-0.919874 -2.98579 127.013
-9.87054 -6.23351 136.004
-10.2738 -6.03856 137.984
5.31627 -12.3484 137.281
5.63062 -11.7714 137.172
0.536383 -1.09868 127.683
3.39343 -10.2588 137.556
3.0354 -10.1957 136.121
3.31691 -10.9148 136.551
0.311757 0.110462 129.258
0.757774 -1.24509 129.034
0.728838 -1.33252 129.057
0.272981 0.159555 129.281
0.534811 -1.15435 129.174
0.83559 -1.00996 128.972
0.273463 0.160891 129.284
0.618176 -0.535744 128.675
0.279679 0.178112 129.319
5.46644 -11.1106 135.302
-9.44112 -8.09169 134.982
32.1872 17.7398 -174.537
32.1938 17.7627 -174.579
5.13951 -12.8041 136.298
5.10427 -12.7615 136.207
5.217 -12.5671 135.568
0.41123 -1.30151 127.193
0.589275 -1.624 125.734
0.30258 -1.62162 126.542
5.4287 -11.0283 135.25
0.472747 -1.12026 127.561
0.49147 -1.0651 127.673
0.224156 -0.962794 127.462
-0.32 0.0226475 130.068
-0.32 -1.47281 128.632
-9.80362 -8.4424 135.856
-9.64441 -8.28539 135.693
-10.1878 -8.82125 136.25
-11.3437 -8.206 135.254
-9.81237 -8.44542 136.281
-9.84259 -8.47422 136.386
-11.5397 -7.73934 135.709
-11.5095 -7.99249 136.396
5.39542 -10.3262 116.881
3.04455 -11.4405 134.179
3.00402 -11.3505 134.266
-10.7371 -8.51602 136.839
0.221443 -0.957976 126.567
-0.841947 -1.89988 127.644
0.224156 -0.962794 127.462
5.70163 -11.6489 136.771
5.69692 -11.6382 136.745
0.150823 -1.81297 127.299
0.668688 -1.76763 127.12
-10.5337 -5.86778 134.978
-11.643 -6.59966 135.732
-9.35792 -6.50621 135.848
-9.2341 -6.5712 135.727
-9.10644 -6.63915 135.691
-9.35719 -6.50568 135.761
-8.38137 -7.02508 135.491
-0.481729 -0.511865 126.086
-0.508354 -0.84646 128.285
-0.85491 -0.272075 124.955
-0.861108 -0.275343 127.028
-0.671441 -0.395486 127.104
2.15965 -7.82701 123.217
3.07137 -10.0535 121.332
0.3293 0.0693909 129.409
-1.28496 -0.733261 127.88
0.512548 -0.336784 129.953
-1.3569 -0.549235 127.77
0.186376 0.3036 129.088
-0.320529 0.0235273 129.333
-0.133159 -0.315647 129.794
-11.6027 -7.21154 134.277
-1.66907 -1.42261 124.116
-1.69707 -1.43013 121.068
0.240001 -0.938703 117.621
0.240001 -0.489715 117.224
0.240001 -0.192077 116.96
0.240001 -0.163952 116.936
4.91745 -10.4389 134.77
5.52794 -11.9915 135.696
5.40137 -12.2181 136.012
-11.399 -6.45894 137.17
-11.6587 -6.24318 137.328
-11.6589 -6.2409 137.328
-10.5309 -5.88618 136.579
-10.7792 -5.75487 136.734
-4.68967 -3.37143 132.67
5.17724 -10.4723 134.569
5.72351 -11.6511 134.739
4.56989 -10.3897 134.589
5.11999 -12.7309 136.287
-1.07784 -2.06713 127.356
-1.2825 -2.19464 127.15
-1.03103 -1.91643 127.709
-1.38905 -1.94777 127.834
-10.1179 -8.74866 136.448
-10.188 -8.81814 136.497
-0.124965 -0.457575 127.389
-0.32 -0.58056 127.303
-0.0727394 -0.425267 127.599
-0.151213 -0.473813 127.284
-1.62779 -0.732921 128.98
-0.320546 0.0234253 128.099
-1.41793 -0.58288 128.836
-0.932405 -2.95804 127.036
3.75417 -10.2672 133.453
3.76836 -10.269 133.443
17.0609 -31.4768 -173.513
4.6091 -8.90209 121.758
-5.18364 -3.97039 124.885
-6.77019 -4.82827 123.622
3.12159 -11.1491 134.8
3.40168 -10.7586 134.203
2.72792 -10.7395 134.752
3.62373 -12.727 132.936
4.21536 -12.8193 133.019
3.58884 -12.6044 135.022
4.32442 -12.8155 135.016
-0.960002 -0.704263 128.017
3.97646 -9.76227 121.863
0.240001 -3.43371 119.827
0.240001 -0.99158 126.525
0.240001 -4.41207 120.692
2.03839 -4.24814 120.084
-0.304084 -4.46167 120.875
-0.32 -4.42479 120.978
-0.960002 -0.987854 128.135
-0.960002 -0.430967 127.904
5.01601 -12.8995 137.384
-0.519474 -1.7001 128.358
-0.32 -2.05779 128.07
-1.10618 -1.31006 128.201
-1.06233 -1.40794 128.109
-0.704329 -1.47939 128.457
0.254969 -1.56699 127.861
-0.32 -1.55352 128.221
-0.32 -3.06495 126.542
4.69978 -12.874 135.068
4.19673 -12.7912 135.414
3.63616 -12.7069 135.036
2.21988 -7.55884 122.965
0.240001 -1.99238 118.552
5.56545 -12.9831 137.663
3.57604 -10.5535 135.999
3.25863 -10.2246 135.961
3.25261 -11.0044 136.688
0.471456 -1.04046 127.684
-9.10626 -7.86072 134.236
1.54436 -2.51624 128.146
0.857253 -2.10888 128.347
1.14303 -1.64262 127.676
0.33879 -0.170682 129.254
5.17522 -10.4754 134.904
5.29877 -12.4123 135.765
-11.2497 -8.28175 133.203
-10.1847 -8.86347 132.892
-8.82703 -6.77061 133.975
-11.5117 -8.11662 135.103
-10.9053 -8.44547 135.125
-9.77985 -8.43418 134.704
-10.1504 -8.80122 134.965
-0.32 -0.57823 126.605
-0.572119 -0.734198 125.591
13.9224 -26.7807 -174.519
-0.907544 -0.947286 125.915
-9.20753 -7.41853 136.788
-10.5361 -5.85234 133.634
31.9221 17.8163 -174.519
-9.53372 -6.39635 134.351
-30.9304 -13.4194 -174.519
-9.54296 -6.39189 134.396
19.1031 -27.276 -173.804
-9.37086 -6.33472 134.046
-9.40189 -6.18993 134.656
-9.36177 -6.47949 133.506
-11.6711 -6.58556 133.175
-11.6283 -6.99681 133.694
-10.4328 -5.91849 134.667
-10.0291 -6.13471 134.682
-10.7265 -5.98971 134.696
-11.6527 -6.5948 134.851
-11.543 -7.69704 135.755
-11.6091 -6.9725 135.74
-0.0250634 -0.511632 127.124
32.1872 17.7398 -103.918
-0.130771 -0.423849 127.395
-0.32 -0.611078 125.217
-0.32 -0.615785 126.576
-0.232346 -0.672108 126.841
32.1872 17.7398 -1.70814
-0.32052 0.0235881 130.068
-9.33847 -6.49217 133.527
17.4465 -32.1619 -50.797
-8.42476 -6.48414 133.7
-9.34274 -6.4659 133.493
0.350643 -1.19177 127.689
-12.7721 30.7089 -174.396
-31.1268 -14.1106 -54.7597
-9.521 -8.34464 122.15
-11.2553 -8.45146 118.9
-10.1746 -9.00207 121.869
-9.29734 -6.86585 136.081
-33.2941 -17.5252 -176.919
-7.79945 -7.33005 134.877
3.7578 -10.2748 134.167
3.56123 -8.23308 123.216
0.243097 -14.7258 116.062
-9.75526 -8.42567 133.511
-9.23487 -7.89517 134.261
-0.162882 0.11063 129.257
-9.25569 -7.91501 134.334
1.84373 -12.5978 118.549
-0.32 0.0224287 128.011
2.99596 -11.3202 134.836
2.43218 -10.0989 134.659
-32.1079 -17.5635 -174.519
14.0957 -26.1095 -183.318
3.76008 -10.2796 134.616
-0.32 -2.36671 119.027
2.98928 -11.3189 134.246
-31.3076 -17.1121 -52.2979
3.57902 -12.5826 135.043
3.49804 -10.3983 121.119
3.41006 -10.1002 121.381
-6.60009 -5.28916 123.227
-8.10278 -4.8538 123.228
-9.37017 -5.69151 122.073
-12.7086 30.6905 -158.622
32.0738 17.6899 -174.397
-7.70238 -7.80834 134.837
-9.12209 -7.78019 134.424
-5.96968 -8.30877 134.825
-32.48 -17.76 -53.3185
14.5665 -26.9618 -183.318
-9.09335 -7.93603 134.26
0.240001 -0.9926 116.931
31.9221 17.8163 -174.055
-6.24086 -4.92887 132.206
-27.5032 -19.1956 -174.519
-9.35774 -6.42259 134.282
6.04339 -10.4145 116.881
-9.77291 -6.1385 122.021
-9.34208 -5.87268 122.447
-10.9187 -8.40742 137.67
-11.4619 -8.08265 140.155
-11.49 -8.10179 137.307
-11.5544 -7.39237 137.315
-8.24384 -7.00611 126.7
-8.35331 -7.02121 133.697
-9.12023 -7.78083 134.238
-9.35939 -6.50727 136.023
0.827429 -1.75373 127.065
-6.24164 -4.90196 134.259
-10.2052 -8.58131 155.333
-31.1268 -14.1106 -168.851
-8.36963 -7.02346 134.74
0.74902 -1.91311 126.707
-2.9823 -1.70132 129.906
0.0341344 -0.502206 127.917
-11.7044 -6.26635 132.771
-10.1797 -8.93291 127.369
-31.2017 -13.3661 -174.519
-10.2619 -6.01156 134.818
0.639998 -26.24 -174.519
-10.5382 -5.83901 132.475
-0.0683851 -0.786252 127.331
-1.98503 -0.897125 116.932
-7.8556 -8.54938 134.971
-9.78839 -6.81685 187.218
-8.96445 -8.48128 135.687
-8.9786 -7.82951 120.128
-0.832017 -0.260003 117.296
-7.62279 -7.42344 134.766
-0.5618 -0.11751 26.897
-11.0778 -6.88343 187.218
-2.42001 -1.13648 130.096
-7.93766 -7.2548 134.755
-9.33729 -6.49132 133.386
-2.10387 -1.53939 76.7822
-10.44 -6.46812 187.218
-9.04245 -8.31349 135.849
-6.19232 -4.99612 123.621
-10.2343 -8.18039 187.218
4.48367 -8.67512 120.748
4.0885 -7.86955 122.759
3.78967 -7.2157 122.258
1.86734 -3.93777 126.674
-8.29756 -4.38461 123.625
-0.320692 0.0225011 116.915
4.04165 -7.87465 122.775
-0.747265 -3.51477 120.152
1.65399 -3.45631 127.128
2.03573 -3.54553 126.895
-18.3525 30.8467 -183.318
-2.77966 -1.33536 128.082
-7.66911 -4.56716 123.624
-9.92008 -6.05499 121.571
5.72303 -11.651 134.784
-11.1692 -23.9074 30.7888
-0.960002 -0.953825 117.943
0.0265302 -0.465542 127.919
0.970767 -1.30467 129.151
3.08363 -11.5211 134.373
0.944053 -1.30374 129.144
4.02146 -10.3121 134.304
0.174079 -5.41842 124.549
-0.960002 -2.94188 125.082
-0.960002 -1.2013 128.224
-0.960002 -2.99656 122.644
-7.84939 -6.52209 133.341
-0.960002 -0.980611 125.966
-32.4692 -17.7631 -174.519
21.5087 -11.3677 0.670438
-0.640548 -3.68207 123.033
0.449128 -1.36993 128.944
-1.18652 -2.41704 126.535
-4.34964 -9.17639 134.882
7.76512 -14.6274 13.9387
-0.32 -1.85418 127.463
-0.320554 0.0233722 127.456
-9.60607 -8.37406 126.276
-7.32468 -5.9817 134.504
-9.08888 -7.50576 125.827
-9.2047 -6.58721 135.752
-10.5344 -5.86317 134.578
-11.6482 -6.59708 135.264
-9.6444 -8.28538 135.693
2.89703 -11.3011 126.1
-9.05343 -8.2036 134.98
-9.01414 -8.46697 135.688
6.51463 -10.5071 119.725
6.01231 -11.4428 119.242
5.41601 -10.3631 120.311
3.55206 -12.8427 120.836
3.78299 -10.3275 139.119
2.85431 -11.2929 122.327
4.26812 -12.9762 118.857
-8.98487 -7.82735 120.753
-6.78108 -7.72719 120.835
-9.48008 -8.33048 120.166
-11.2292 -8.46573 118.894
-0.692469 -0.182094 127.924
-10.1723 -9.0338 119.345
0.240001 -0.218276 124.808
0.240001 -0.511582 123.773
0.240001 -0.967284 125.868
0.240001 0.167329 126.167
-18.0142 32.0374 -53.1899
1.7023 -3.63893 127.112
0.240001 -0.954613 122.211
0.240001 -0.73175 126.444
-0.18285 -0.121319 127.449
-0.156686 -0.273305 127.422
-1.24596 -2.39166 121.907
27.1938 19.1802 -174.521
4.73537 -9.1312 116.888
32.2644 18.0054 -175.024
0.219452 -0.954443 125.91
5.20746 -10.4266 129.558
-0.32 -0.545939 116.933
-32.4385 -17.772 -174.519
0.192237 -0.906125 116.932
0.557657 -1.14656 127.638
-1.14082 -1.10202 128.099
2.93768 -11.3089 129.689
0.204566 0.313756 130.492
-1.57345 -1.59326 125.772
-0.972116 -2.87349 126.957
-10.1926 -8.75519 141.504
0.370761 -27.2362 -82.4906
-0.32 0.0223691 127.451
-9.1134 -7.92885 136.253
3.32689 -12.0225 135.584
-0.545362 -0.100824 127.739
-8.83018 -7.48261 134.844
2.98517 -11.3181 133.883
0.00524299 -0.341099 117.153
-11.4913 -8.1027 137.173
-0.515919 -0.870894 128.291
0.00524344 -0.367413 125.034
31.9192 17.8172 -141.628
-0.32 -0.921201 128.172
1.39861 -2.18161 127.19
-0.32 -4.3214 125.587
-0.266825 0.0167382 127.261
-11.5406 -7.65635 136.34
2.34398 -7.00625 122.444
19.1031 -27.276 -56.0584
-1.05312 -1.23441 128.657
0.152476 -2.06925 127.104
-9.00114 -7.82176 122.374
-10.188 -8.81855 136.464
2.69604 -5.43869 120.968
-8.18166 -6.99753 122.726
-8.69119 -6.70964 121.283
-11.5808 -7.22254 136.268
-9.12921 -7.00719 120.876
-0.0824581 -0.418448 26.3105
-11.7917 -6.52503 122.193
-0.304706 -0.00643942 116.936
-8.3774 -7.02453 135.237
-1.89716 -0.84777 127.645
-9.61549 -8.37732 126.733
2.46146 -6.48318 121.952
2.21839 -9.93601 121.209
-32.1817 -17.6043 -173.975
-8.54615 -5.4609 134.484
-9.3831 -6.27759 134.287
-9.34478 -6.49672 134.28
-11.7536 -6.54415 125.662
-9.356 -6.50482 135.619
-31.6162 -13.286 -175.652
-9.03836 -7.80897 126.082
-2.74722 -1.31725 130.507
-2.4277 -1.14071 130.353
-0.830937 -0.259433 116.935
18.8447 -28.1651 -183.318
12.8821 -30.8806 -174.519
27.1938 19.1802 -175.469
27.5209 20.2269 -176.452
4.25835 -12.9746 118.856
2.83633 -11.2894 120.739
7.11852 -13.4458 116.865
8.72472 -16.3537 116.849
3.5427 -12.8578 119.255
17.0614 -32.0508 -174.519
-19.1183 32.5395 -176.601
-9.25533 -6.43218 123.605
5.36231 -12.6354 119.488
5.10461 -13.0921 120.356
3.57428 -12.8068 124.588
3.70306 -10.1603 123.409
2.89634 -11.301 126.038
13.9252 -26.7815 -183.318
5.02844 -12.9265 134.996
5.33821 -12.3581 134.881
-18.0152 32.0338 -103.735
3.63168 -7.9193 122.92
4.792 -12.8892 135.003
5.74691 -11.6534 132.566
3.7377 -10.2328 130.216
3.40788 -10.7084 131.823
31.9221 17.8163 -174.536
5.70919 -11.6497 136.069
3.61192 -12.7461 130.944
3.6489 -12.6864 137.187
-9.15695 -7.76822 137.896
5.01964 -12.9074 136.686
-9.18859 -6.68292 121.171
-0.907892 -3.11223 122.536
-9.84852 -6.24415 135.896
3.05169 -11.4112 136.175
-26.3991 -15.4402 -174.519
3.01098 -11.323 136.162
3.76684 -10.2937 135.944
-27.2346 -18.2758 -183.318
4.49689 -10.393 135.921
-26.4008 -15.4398 -183.318
-1.646 -1.41641 126.628
-0.453019 -0.667749 128.236
-9.15035 -7.77048 137.238
-0.32 -0.583373 128.146
1.51216 -3.29484 125.61
32.1619 17.9488 -174.425
-9.84683 -8.45734 137.952
31.6384 17.6649 -103.69
-11.5434 -7.60259 136.539
3.75822 -7.35578 122.39
-1.53318 -1.62775 128.137
19.1031 -27.276 -91.9964
4.49824 -8.70191 116.89
4.58093 -8.85163 116.703
-11.6711 -6.24772 136.106
-10.5319 -5.87929 135.98
-11.6383 -6.60204 136.165
27.1938 19.1802 -174.519
-9.48894 -5.04298 122.662
-10.7718 -5.75082 135.972
16.9133 -32.0081 -174.519
0.240001 -1.4807 126.675
-32.1877 -17.8443 -174.302
-32.3598 -17.7947 -174.298
-0.960002 -0.330713 117.392
-0.0873675 -0.399887 117.228
-0.32 -0.547559 117.419
-0.0762467 -0.419182 125.113
2.45327 -10.115 135.986
4.37978 -10.2338 121.522
3.75386 -10.2666 133.394
0.968764 -1.30043 129.154
-9.25492 -7.88834 136.253
-9.14209 -7.77332 136.416
0.22389 0.324256 128.136
4.77623 -9.20524 116.261
5.38345 -10.3047 114.887
5.40597 -10.3451 118.64
16.9133 -32.0081 -172.234
0.513776 -0.701056 128.696
5.17457 -12.9357 136.319
5.02424 -12.9174 135.801
-11.5297 -8.12884 133.285
17.7876 -31.8022 -173.727
18.8447 -28.1651 -166.834
17.6661 -32.2201 -174.519
12.8905 -30.8476 -174.519
-11.5228 -7.99684 135.083
12.8512 -30.8363 -50.797
13.1525 -29.815 -174.519
-11.571 -7.47685 134.997
-9.05622 -7.80283 127.861
-9.1402 -7.77397 136.228
5.15746 -10.4829 135.9
-9.63474 -8.38398 127.666
-11.545 -6.64886 144.66
-10.1798 -8.93149 127.483
5.44553 -11.0665 135.344
-14.7699 -22.8687 -124.959
-11.5164 -8.1198 134.629
-9.27931 -7.02941 137.196
-9.24379 -6.92759 131.548
-11.5298 -7.86366 135.575
-9.38427 -6.52522 138.992
-7.46628 -24.9755 104.083
-11.4667 -8.00007 140.415
5.42418 -10.3778 121.673
-9.1163 -7.78219 133.846
-9.31164 -6.47281 130.325
-10.5436 -5.80429 129.454
-11.6778 -6.58222 132.569
0.757832 -14.0415 116.862
4.10233 -15.0121 116.857
3.94521 -12.2081 187.218
-17.9659 32.2071 -174.379
-27.5032 -19.1956 -174.416
-11.6706 -8.22487 119.002
-18.0166 32.0289 -174.053
12.8932 -30.8484 -183.318
26.2953 19.4394 -174.519
30.7152 12.623 -174.519
-0.32 -0.574033 125.348
33.3708 17.3984 -183.318
12.8872 -30.8467 -164.275
2.03082 -4.23477 116.914
-0.32 0.0212482 116.916
-0.32 -0.00201672 116.936
5.71381 -11.6501 135.64
27.1938 19.1802 -183.318
-0.32 0.0223294 127.077
4.02774 -10.8391 187.218
3.58911 -11.4343 187.218
-17.9659 32.2071 -174.661
25.6915 14.3729 -183.318
-0.106412 -0.364313 127.528
-6.52653 -3.81194 124.665
-0.349585 0.00653818 116.936
-0.64868 -1.54583 128.427
4.72345 -6.9511 19.3812
5.05486 -10.488 137.819
4.59404 -8.87511 119.055
-9.26644 -6.44019 124.93
4.04104 -7.88449 19.8097
-0.43687 -0.0408585 127.983
-1.38281 -2.05803 123.522
-11.5662 -7.16554 138.153
0.416168 -0.123154 129.667
-0.32 -0.114058 126.97
-9.89897 -8.47538 140.481
-9.65202 -7.59807 187.218
-11.4572 -8.07946 140.63
-0.32 -1.87417 128.246
-0.34887 -0.565886 117.442
-0.32 -4.31431 125.903
-0.32 -4.3653 123.63
-18.0279 31.989 -174.235
-9.21587 -7.37334 136.835
-10.5575 -5.71542 121.721
-10.62 -5.93682 135.995
-6.3687 -8.10898 136.131
32.4907 18.784 -183.318
-11.8519 -6.34899 117.971
0.459814 -2.55467 127.809
4.51341 -8.73067 104.584
-7.52155 -8.38454 136.242
0.145842 -1.04082 127.888
0.0728291 -0.688777 127.907
-0.718808 -1.52615 128.47
16.9133 -32.0081 -174.516
17.6647 -32.2248 -1.57072
0.00869702 -0.572684 127.772
2.38726 -4.26658 125.308
30.7012 12.6273 -174.491
0.390873 -3.45411 126.858
3.50121 -6.89629 122.049
4.51743 -8.7363 120.23
4.59977 -8.88537 120.083
-1.74911 -1.16504 127.845
17.4379 -32.1594 -174.519
-9.12699 -7.77851 134.911
-6.87234 -8.83323 134.965
-11.4004 -8.15107 137.252
-18.0168 32.0283 -183.318
-8.47801 -8.62143 135.683
-32.4299 -17.7414 -174.519
3.77535 -10.3115 137.617
-7.14681 -5.1215 134.347
-4.35159 -9.18928 136.205
-5.03518 -9.09628 136.227
3.71062 -10.1762 124.896
12.8904 -30.8476 -174.457
6.54062 -10.494 118.057
5.41446 -10.3462 118.635
5.59884 -10.3871 120.213
4.99853 -12.8615 140.743
-8.16598 -6.99537 121.724
5.41414 -10.3598 120
5.16921 -10.4845 135.899
3.29309 -10.9508 136.76
4.60578 -8.89614 121.162
-1.52996 -1.63464 128.141
-9.11662 -7.08725 121.023
6.13744 -11.2617 116.876
6.55896 -10.4848 116.881
19.9762 -16.6888 0.670438
-0.288059 -0.0354912 127.145
-1.81958 -0.993228 128.676
7.10373 -13.4187 119.218
-1.58542 -0.67541 129.047
-9.81441 -8.44613 136.38
-9.09482 -7.92617 134.234
17.4358 -32.1556 -174.519
17.2501 -30.7955 -172.226
-8.21972 -7.00278 125.158
-32.1048 -17.5526 -52.9919
-11.7387 -7.35136 120.078
-32.1081 -17.5643 -183.318
1.1981 -1.54528 117.91
-10.5544 -5.73566 123.481
5.70203 -11.649 136.735
-32.4897 -17.7572 54.7163
-11.6838 -6.25485 134.83
-0.321876 0.0150445 26.688
-0.32 -4.42766 120.85
-11.6433 -8.20626 121.77
-10.7563 -5.74238 134.382
15.6678 -31.6488 0.670438
3.01209 -11.3233 136.26
-10.1785 -8.9489 126.097
-9.29596 -8.06265 126.372
-11.7485 -7.26354 119.904
-19.5453 26.6487 -174.519
-0.324632 -0.00231081 -183.318
-19.8905 26.7453 -183.318
-11.5736 -7.31244 136.171
32.2644 18.0054 -174.583
3.38421 -10.83 136.922
4.99427 -12.8523 141.563
4.80958 -12.8311 140.81
5.60868 -11.6398 145.405
5.11752 -10.5626 144.47
3.03209 -11.3271 138.027
3.67276 -12.6479 141.216
5.16609 -10.4892 136.418
5.46298 -12.1015 136.16
3.65314 -12.6795 137.903
5.01817 -12.9042 136.968
3.02247 -11.3253 137.178
5.1765 -12.6207 136.573
-0.32 -0.584163 117.451
1.66632 -3.57379 127.13
2.33884 -4.1944 126.755
-0.100137 0.145201 127.951
-32.1877 -17.8443 -173.815
-0.19438 -4.69606 121.055
-27.999 -20.8803 -176.882
20.7004 -27.6519 -176.918
3.75315 -7.35237 122.388
-32.7 -19.6472 -176.934
-32.2298 -17.9925 -174.519
-27.5238 -19.2656 -174.519
19.4694 -27.3622 -174.519
18.069 -32.3414 -174.519
-28.0002 -20.8799 -183.318
-32.7 -19.6472 -183.318
5.47188 -12.0452 138.069
17.0609 -31.4767 -172.231
5.02153 -12.9115 136.323
3.03939 -8.08189 123.216
0.415763 -3.37717 127.007
1.48236 -7.08813 122.738
-18.0277 31.9899 -174.519
5.17017 -10.4865 135.9
27.1938 19.1802 -103.918
-10.5179 -5.96934 143.815
-14.7699 -22.8687 -174.519
-8.2823 -24.7401 27.549
3.53979 -12.8625 118.765
-32.1079 -17.5634 -173.892
-14.7268 -22.7276 -174.519
0.643372 -1.72274 118.21
31.9232 12.2514 -176.919
0.571885 -0.462119 129.849
0.215146 0.319505 129.202
0.234379 -0.981263 127.828
30.6869 12.5783 -183.318
3.12806 -6.93174 122.177
19.3826 10.9014 9.51915
0.287341 -1.07715 127.802
-11.5945 -6.62402 140.153
0.948923 -7.13882 122.92
-9.13783 -7.92319 134.26
30.384 12.7249 -173.86
30.3864 12.7203 -174.519
0.240001 -0.620893 25.916
-0.32 -4.41721 121.315
17.6647 -32.2248 -183.318
32.2641 18.0046 -183.318
3.75729 -7.35988 122.393
5.08452 -9.79526 -183.318
-18.0166 32.0289 -174.519
-1.05473 -2.85784 119.65
1.67022 -3.61093 127.13
2.82887 -11.288 120.08
3.64401 -12.6943 136.362
0.240001 -1.0023 25.8021
-0.32 -0.582369 116.933
-0.32 -0.269315 26.6011
1.53 -3.3278 119.401
19.1031 -27.276 -174.519
6.67413 -13.3517 119.164
-18.4468 32.0732 -174.519
18.0712 -32.3335 -174.519
-11.2678 -10.5513 116.88
-3.02081 -12.9448 116.868
4.7567 -12.3359 187.218
4.58197 -8.85349 116.889
-5.8605 -11.3953 117.568
-11.4847 -10.5174 116.853
-9.29794 -4.96051 -183.318
0.574653 -1.18481 127.602
-6.507 -5.31613 123.227
-8.78758 -4.6554 123.229
5.3398 -10.2265 107.617
32.1872 17.7398 -174.579
-10.1897 -8.79544 138.303
2.99752 -10.189 135.969
-7.00938 -3.67275 124.665
-10.5261 -5.91656 139.223
-1.88767 -0.842437 128.802
-14.48 -21.92 -174.519
-11.4988 -8.10779 136.415
-9.23695 -6.41891 121.411
27.1938 19.1802 -164.707
-11.5911 -8.1707 127.058
-30.9331 -13.4291 -183.318
-10.736 -5.73132 132.301
4.81564 -12.8921 135.084
-31.3899 -14.0366 -174.519
-32.4692 -17.7631 -174.605
5.73407 -17.7221 114.707
11.4766 -30.4398 104.086
-33.2941 -17.5252 -183.318
32.1842 17.7297 -174.519
-32.2472 -13.7955 -183.318
0.370761 -27.2362 -174.271
-9.61856 -5.11461 122.558
-17.9659 32.2071 -173.368
0.240001 0.332281 116.497
0.240001 -0.936315 116.931
19.1031 -27.276 -165.15
6.00329 -11.4263 120.827
6.60121 -12.52 15.7736
0.240001 0.325473 26.1984
24.8057 -7.65615 -127.971
-8.39025 -7.02631 136.058
5.11185 -13.1079 118.965
-8.15713 -6.99415 121.158
-4.3281 -9.03393 120.26
4.60198 -8.88933 120.48
-0.322559 0.0107461 -25.3243
-27.2329 -18.2763 -174.519
16.6867 9.41202 11.8681
2.92643 -10.1257 130.579
19.1031 -27.276 -183.318
-9.04207 -7.8077 126.451
-17.9659 32.2071 -174.519
-3.55543 28.0502 -103.918
16.56 -33.28 -176.919
-0.32 0.0212482 116.916
19.283 -32.6916 -176.918
16.9133 -32.0081 -183.318
31.1716 14.2458 -174.519
-18.0922 32.1657 -174.519
16.913 -32.0092 -174.519
30.7012 12.6272 -174.519
-31.5981 -15.7696 -52.999
-11.5814 -9.32474 117.971
-12.7736 30.7093 -174.753
5.6765 -11.6465 139.106
-13.4862 -7.25201 117.971
-13.1865 -7.39765 119.377
-10.5282 -5.90314 138.055
-11.5097 -8.11527 135.302
0.194283 -0.909759 117.607
8.40553 -14.7355 13.2428
7.00638 -11.7775 15.5753
7.37246 -13.9098 76.4421
-11.6298 -6.60629 136.935
-30.2313 -18.4087 -50.797
-9.37372 -6.51761 137.733
-9.79576 -8.43968 135.475
17.6647 -32.2248 -174.519
-0.960002 -0.950448 116.931
-0.960002 -0.33751 27.244
18.0434 -27.9397 -55.1075
-0.960002 -0.330748 116.935
17.0633 -31.4681 -51.3691
3.77124 -7.38513 122.362
18.8447 -28.1651 -55.1132
18.0434 -27.9397 -90.354
1.99531 -3.2896 119.248
-0.32 -0.244376 26.6086
-0.32 0.0212504 116.937
-9.46669 -8.32585 119.516
-2.54742 -1.65853 28.4946
2.35824 -1.95076 23.3242
-32.1877 -17.8443 104.08
30.8233 13.0475 -98.9297
-1.72007 -1.4363 118.565
-17.9659 32.2071 -183.318
18.8447 -28.1651 -90.3663
17.4373 -32.1592 -183.318
5.15754 -10.5021 137.835
-0.32 -3.47969 120.011
-19.8891 26.7491 -163.823
0.292878 -5.67163 124.77
-19.5447 26.6508 -163.831
16.9133 -32.0081 -129.488
5.02783 -12.9252 135.113
12.5584 -32.1595 -176.919
17.4574 -32.165 104.087
5.15557 -10.5051 138.161
0.516711 -1.4923 128.845
-1.97504 -0.891518 118.149
-32.2472 -13.7955 -176.919
17.4379 -32.1594 -174.524
-8.87271 -8.4077 119.602
-18.3525 30.8467 -174.519
5.70709 -11.6812 134.745
0.370761 -27.2362 -50.797
32.154 17.7385 -174.519
6.02578 -11.4674 116.875
17.45 -32.1629 -1.32972
16.1813 -29.8657 0.670438
3.69295 -10.1392 121.422
29.5381 16.5122 0.670438
30.3528 12.7861 -165.26
-11.8091 -6.51628 120.605
6.02359 -11.4634 117.26
5.40609 -10.3453 118.659
3.26596 -10.7109 120.986
25.91 14.5 -98.9642
-31.7902 -13.924 -175.639
1.55545 -2.51736 127.117
-31.7902 -13.924 -183.318
7.9951 -16.1419 116.85
9.7913 -19.936 113.705
11.8697 -22.0591 7.46779
32.4907 18.784 -176.452
-0.32 0.011648 26.685
4.11273 -9.5811 122.074
4.8054 -9.26845 18.6047
-14.3807 25.4453 -183.318
-12.4715 31.8375 -176.942
-27.635 -15.0927 -183.318
-31.1268 -14.1106 -183.318
-18.1439 32.2584 -183.318
-14.7631 -8.40644 117.971
-15.2967 -8.25242 117.971
-13.2157 -7.39882 117.971
-18.0166 32.029 -173.37
-13.7898 -7.42189 90.2609
-30.3439 -18.3762 104.08
5.87615 -11.6661 120.561
-31.0311 -18.178 53.0793
12.5604 -32.1601 -183.318
-20.6398 26.9607 -176.485
18.8447 -28.1651 -174.519
31.9066 17.8208 -1.39326
3.63666 -12.7061 135.12
-1.95504 -0.88028 120.588
-10.5523 -5.74908 124.65
-32.4942 -17.7559 104.08
-21.1292 -21.0343 41.9667
-32.1008 -17.5385 104.397
-30.9026 -13.3217 -85.9234
17.6647 -32.2248 -50.797
3.35417 -16.4234 115.294
4.32272 -14.5964 117.317
-18.3525 30.8467 -172.009
-17.9659 32.2071 -103.918
-18.0907 31.7679 -103.452
13.1553 -29.8158 -183.318
-13.6 -19.04 -174.519
3.63548 -12.708 134.921
-32.1877 -17.8443 -52.9907
16.9133 -32.0081 -50.797
-10.633 -5.6752 121.738
1.44251 -23.2707 -183.318
-8.78824 -6.69721 125.034
-0.320559 0.0233408 127.076
-30.9929 -16.9382 -52.0239
-20.6402 26.9594 -183.318
-19.938 26.7608 -174.519
4.36891 -8.46708 123.215
1.13162 -7.52918 123.218
-0.323241 0.00644878 -77.3239
4.61521 -8.91304 122.855
30.7161 12.6787 -165.257
-10.1866 -8.83806 134.913
-1.01566 -2.77681 127.049
-11.3588 19.9839 -93.7979
-1.9937 -0.902 115.873
-2.36957 -1.10874 128.413
-7.42903 -8.60663 119.811
0.370761 -27.2362 -174.519
2.41945 -4.15034 116.914
29.822 9.60252 -95.267
0.208749 -0.935441 122.379
3.75729 -7.35988 122.393
-10.1717 -9.04276 118.633
-23.2912 -20.4106 -174.519
32.1872 17.7398 -174.519
12.8854 -30.8462 -158.54
31.9132 12.2157 -183.318
-2.70807 -1.30329 28.7671
-27.5049 -19.1951 -183.318
31.9158 17.8181 -103.918
-10.3805 -24.1348 104.083
19.283 -32.6916 -183.318
1.21014 -1.54949 116.928
27.5209 20.2269 -183.318
27.5209 20.2269 -177.524
32.1872 17.7398 -183.318
-12.4971 31.845 -183.318
-12.8081 30.7192 -183.318
-19.8077 -10.7506 43.6663
-27.4788 -19.2026 -50.797
-17.6442 33.3393 -176.867
8.14645 -9.68835 15.0174
-26.0396 -14.2111 -183.318
3.76507 -10.29 135.597
32.4907 18.784 -177.597
-0.104293 0.13283 127.149
32.0967 17.7551 -174.519
-21.7794 -20.8467 104.081
30.1125 13.2576 -98.9347
6.14912 -11.693 95.2048
16.56 -33.28 -183.318
20.7004 -27.6519 -183.318
-32.4684 -17.7633 -183.318
-14.3671 25.4298 -98.2887
-31.2959 -17.1155 -183.318
16.7027 -30.8293 -183.318
-19.8899 26.747 -174.519
-19.5458 26.6469 -183.318
25.694 14.3806 -98.786
-32.4692 -17.7631 -174.295
-0.960002 -0.650701 27.1505
-31.1268 -14.1106 -174.519
-31.6185 -13.2945 -183.318
4.32653 -8.39037 123.158
-13.6 -19.04 -183.318
-18.3954 32.2562 -174.519
-18.376 32.3254 -174.519
-18.3525 30.8467 -102.475
1.04955 -1.45123 117.865
5.024 -12.9169 135.848
-19.1183 32.5395 -183.318
-2.01338 -26.5484 104.084
0.00869702 -0.572684 127.772
-1.18476 -26.7875 19.5836
0.639998 -26.24 -183.318
18.8447 -28.1651 -173.789
5.15854 -11.5954 187.218
-32.1877 -17.8443 54.3773
5.88368 -9.40397 17.447
1.06576 0.781694 25.4789
-32.1877 -17.8443 -174.519
-27.4782 -19.2028 -47.7099
-19.2027 32.2303 -176.594
32.2643 18.0053 -176.076
-0.660296 -0.798622 128.195
-32.1877 -17.8443 -183.318
-18.1433 32.2583 -174.519
-27.5005 -19.1964 -160.668
-11.8239 -6.33333 120.776
17.4413 -32.1604 -125.679
-32.1021 -17.543 54.3785
11.0966 -20.6483 113.383
17.438 -32.1594 -173.271
-19.1969 32.2513 -183.318
-11.4951 -10.3886 116.973
10.3173 -30.1054 6.67513
5.25517 -10.3545 121.648
0.370761 -27.2362 -16.4824
4.85968 -10.9526 187.218
18.0434 -27.9397 -166.833
-10.9975 -7.76622 187.218
-12.6549 -6.79874 37.4339
-1.9218 -0.861607 124.641
17.4503 -32.163 2.6692
-13.47 -7.24296 119.447
-9.78654 -5.21403 34.9347
-32.1079 -17.5634 -173.813
-14.3034 25.3054 -183.318
2.51524 26.2991 -115.92
33.3708 17.3984 -176.919
12.1002 -22.4765 7.10431
-12.7726 30.709 -174.519
1.44251 -23.2707 -174.519
-14.48 -21.92 -183.318
12.8358 -30.8319 -2.50508
-31.1268 -14.1106 -84.3858
32.2689 18.0209 -1.70891
24.1199 13.511 -97.4875
-1.73509 -1.44034 116.929
31.9229 17.8161 -183.318
-17.6442 33.3393 -183.318
-12.4882 30.627 -103.918
31.9158 17.8181 -103.918
-18.0166 32.0289 -174.313
32.2662 18.0117 -104.208
-14.3525 -7.73668 38.9131
-14.0538 24.8627 -97.8211
32.2225 17.9823 -174.519
32.2644 18.0054 -174.519
5  771 1135 992 1070 858  255 0 0
11  771 838 337 354 537 903 824 1063 836 1147 672  255 0 0
5  771 858 1092 1028 838  255 0 0
5  951 1083 1022 657 910  255 0 0
6  1080 755 995 984 883 881  255 0 0
6  1080 1113 1056 576 1082 755  255 0 0
5  1080 878 481 1108 1113  255 0 0
5  951 910 599 546 965  255 0 0
5  771 672 667 1065 1135  255 0 0
7  432 1087 353 1025 792 602 481  255 0 0
3  432 878 723  255 0 0
3  717 965 546  255 0 0
5  717 1120 805 228 750  255 0 0
4  432 723 526 1087  255 0 0
5  717 546 707 617 1120  255 0 0
3  432 481 878  255 0 0
5  353 1087 526 1134 753  255 0 0
4  353 759 1105 1025  255 0 0
13  899 761 394 933 1055 1133 1129 1153 1066 1118 753 341 1031  255 0 0
9  899 1036 1145 1086 981 586 1057 1008 975  255 0 0
5  1131 960 1119 1138 973  255 0 0
3  1131 972 765  255 0 0
4  353 753 1118 759  255 0 0
5  1131 765 1123 880 960  255 0 0
3  1131 973 972  255 0 0
4  1080 881 323 878  255 0 0
5  761 409 675 536 394  255 0 0
7  761 899 975 826 901 1107 892  255 0 0
4  759 1012 946 1105  255 0 0
13  765 1142 1125 1109 928 1025 1105 1004 1013 419 815 1101 1123  255 0 0
4  759 1118 1014 1012  255 0 0
6  1118 1066 1001 919 998 1014  255 0 0
7  721 996 1098 1121 1032 772 414  255 0 0
5  721 992 1135 1065 949  255 0 0
4  755 1082 994 995  255 0 0
5  721 839 912 1114 996  255 0 0
8  721 414 1085 874 995 994 1070 992  255 0 0
4  336 817 526 723  255 0 0
7  753 1134 817 375 1143 318 915  255 0 0
4  839 1151 694 810  255 0 0
4  336 1089 375 817  255 0 0
7  468 557 1081 1154 1041 1036 899  255 0 0
6  468 915 318 1095 1021 557  255 0 0
4  899 1031 915 468  255 0 0
4  753 915 1031 341  255 0 0
5  951 835 537 354 1083  255 0 0
5  951 965 717 931 835  255 0 0
5  835 1059 1079 903 537  255 0 0
5  835 931 801 909 1059  255 0 0
7  836 1063 863 139 774 477 1111  255 0 0
5  1156 774 139 138 1052  255 0 0
6  1156 1155 288 563 477 774  255 0 0
5  1156 1052 882 970 1155  255 0 0
4  717 750 624 931  255 0 0
4  336 723 877 1089  255 0 0
5  839 810 850 1093 912  255 0 0
4  708 1016 313 972  255 0 0
6  972 313 1026 627 1142 765  255 0 0
4  1144 1152 305 310  255 0 0
4  1144 1008 1057 1152  255 0 0
8  708 310 305 947 1047 508 938 1016  255 0 0
9  972 973 743 433 975 1008 1144 310 708  255 0 0
4  313 1117 957 1026  255 0 0
5  313 936 805 1120 1117  255 0 0
5  1016 938 934 936 313  255 0 0
6  1152 1057 586 1076 947 305  255 0 0
6  311 190 330 189 822 486  255 0 0
5  311 747 18 19 190  255 0 0
8  311 150 151 706 1 509 222 747  255 0 0
6  1014 998 997 1002 946 1012  255 0 0
5  960 880 879 986 1119  255 0 0
5  836 699 1061 667 1147  255 0 0
4  836 1111 1072 699  255 0 0
5  839 721 949 671 905  255 0 0
5  839 905 653 656 1151  255 0 0
4  288 1155 584 357  255 0 0
3  1150 501 586  255 0 0
4  288 357 872 596  255 0 0
4  905 1139 317 653  255 0 0
4  1020 886 348 1149  255 0 0
4  557 1000 886 1020  255 0 0
5  1150 812 872 357 501  255 0 0
5  1150 586 981 1086 812  255 0 0
5  1020 1149 1154 1081 557  255 0 0
6  1036 1041 906 812 1086 1145  255 0 0
5  1025 928 1067 1115 792  255 0 0
4  946 1002 1004 1105  255 0 0
4  1108 481 602 601  255 0 0
4  1113 803 802 1056  255 0 0
4  1108 601 654 359  255 0 0
5  1113 1108 798 797 803  255 0 0
4  1007 624 622 1103  255 0 0
4  938 508 590 950  255 0 0
4  1007 1103 292 848  255 0 0
4  938 950 939 934  255 0 0
4  1108 359 799 798  255 0 0
4  1114 912 1093 1094  255 0 0
6  557 1021 694 1151 656 1000  255 0 0
4  761 892 887 409  255 0 0
6  973 1138 987 438 924 743  255 0 0
4  975 433 1069 826  255 0 0
4  1109 1125 969 1067  255 0 0
5  359 1051 818 869 900  255 0 0
3  1109 1067 928  255 0 0
3  359 654 1051  255 0 0
5  911 882 1052 138 863  255 0 0
5  911 914 832 1074 970  255 0 0
4  1103 623 889 292  255 0 0
3  911 970 882  255 0 0
3  357 584 501  255 0 0
4  1155 970 349 584  255 0 0
4  950 623 1127 939  255 0 0
4  950 590 889 623  255 0 0
4  949 1148 1068 671  255 0 0
3  1147 667 672  255 0 0
4  949 1065 1064 1148  255 0 0
4  905 671 917 1139  255 0 0
4  288 596 475 563  255 0 0
5  1129 1133 1027 1116 700  255 0 0
4  419 1013 1075 1058  255 0 0
4  1116 1027 696 977  255 0 0
4  1116 1132 919 700  255 0 0
4  1058 1075 1122 857  255 0 0
4  1058 643 815 419  255 0 0
5  1129 700 919 1001 1153  255 0 0
6  1058 857 852 853 327 643  255 0 0
6  1116 977 769 655 920 1132  255 0 0
5  1007 848 800 851 624  255 0 0
4  931 624 851 801  255 0 0
5  1089 290 1015 1143 375  255 0 0
6  318 1143 1015 956 1019 1095  255 0 0
4  1089 877 382 290  255 0 0
4  1041 1154 1149 906  255 0 0
4  906 1149 348 1136  255 0 0
4  906 1136 872 812  255 0 0
4  886 653 317 348  255 0 0
4  1000 656 653 886  255 0 0
6  1136 348 317 658 596 872  255 0 0
5  1067 969 490 637 1115  255 0 0
4  655 916 997 920  255 0 0
3  1153 1001 1066  255 0 0
4  1132 920 999 919  255 0 0
4  994 1082 576 578  255 0 0
3  354 337 554  255 0 0
4  354 554 1022 1083  255 0 0
3  994 578 1070  255 0 0
4  1019 694 1021 1095  255 0 0
3  1019 956 954  255 0 0
5  658 1139 917 539 475  255 0 0
3  658 317 1139  255 0 0
4  900 869 1023 573  255 0 0
4  628 384 1045 625  255 0 0
4  627 1026 957 1053  255 0 0
4  627 969 1125 1142  255 0 0
4  625 1045 884 729  255 0 0
4  625 599 913 538  255 0 0
4  625 729 707 599  255 0 0
7  627 1053 662 729 884 490 969  255 0 0
5  384 869 818 814 1045  255 0 0
4  384 628 284 1140  255 0 0
5  1045 814 637 490 884  255 0 0
4  655 769 754 763  255 0 0
6  1119 544 543 926 987 1138  255 0 0
6  1128 395 400 389 688 403  255 0 0
6  655 320 461 1050 1122 916  255 0 0
4  1119 986 985 544  255 0 0
5  1128 689 644 634 395  255 0 0
5  1128 403 374 489 689  255 0 0
5  655 763 767 321 320  255 0 0
10  868 1043 1042 387 963 1010 1130 89 95 522  255 0 0
4  868 747 222 745  255 0 0
4  879 1017 651 1018  255 0 0
17  868 745 35 739 225 118 692 955 1035 525 897 459 896 860 402 230 1043  255 0 0
6  879 1018 895 849 985 986  255 0 0
4  508 1047 893 590  255 0 0
3  590 893 889  255 0 0
6  501 584 349 976 1076 586  255 0 0
4  578 1092 858 1070  255 0 0
4  573 1023 1092 578  255 0 0
4  900 573 578 576  255 0 0
4  699 1072 1062 1061  255 0 0
4  1148 1064 993 1068  255 0 0
4  1115 654 601 792  255 0 0
5  1115 637 814 1051 654  255 0 0
4  292 711 914 848  255 0 0
5  292 889 893 1038 711  255 0 0
3  349 831 976  255 0 0
4  1038 893 1047 947  255 0 0
4  711 1038 976 831  255 0 0
4  967 810 694 1019  255 0 0
5  967 1084 1033 850 810  255 0 0
4  1019 954 1084 967  255 0 0
4  290 770 956 1015  255 0 0
4  770 290 874 1085  255 0 0
4  956 770 1084 954  255 0 0
4  554 1028 1140 284  255 0 0
4  628 1022 554 284  255 0 0
4  1038 947 1076 976  255 0 0
4  729 662 617 707  255 0 0
4  1028 1092 1141 1102  255 0 0
4  1028 554 337 838  255 0 0
4  1102 1141 869 384  255 0 0
4  384 1140 1028 1102  255 0 0
4  1023 869 1141 1092  255 0 0
4  1055 933 1088 944  255 0 0
11  1055 1042 1043 415 866 408 861 597 885 1027 1133  255 0 0
7  868 522 188 38 224 18 747  255 0 0
4  1055 944 399 1042  255 0 0
4  891 438 926 1077  255 0 0
4  891 991 1106 925  255 0 0
4  890 746 849 1003  255 0 0
4  890 645 453 452  255 0 0
5  1018 816 541 457 895  255 0 0
6  890 452 978 971 543 746  255 0 0
4  891 1077 862 991  255 0 0
4  890 1003 1124 645  255 0 0
4  1065 667 539 917  255 0 0
6  311 486 187 52 191 150  255 0 0
4  891 925 924 438  255 0 0
5  826 1069 1106 677 901  255 0 0
4  880 1099 1017 879  255 0 0
3  596 658 475  255 0 0
4  1063 824 1054 661  255 0 0
4  1063 661 1137 863  255 0 0
4  1059 909 795 1079  255 0 0
4  661 1054 820 1137  255 0 0
4  854 1104 778 776  255 0 0
6  652 670 669 1126 1104 854  255 0 0
4  895 549 1003 849  255 0 0
4  816 842 542 545  255 0 0
5  816 1018 651 650 332  255 0 0
4  652 781 780 670  255 0 0
3  895 550 549  255 0 0
5  854 776 777 781 652  255 0 0
3  816 545 541  255 0 0
5  895 457 454 551 550  255 0 0
9  525 842 332 856 1050 943 966 1044 897  255 0 0
4  525 1035 183 184  255 0 0
4  645 1037 229 453  255 0 0
5  525 184 344 343 842  255 0 0
5  645 1124 608 990 1037  255 0 0
3  814 818 1051  255 0 0
3  1103 622 623  255 0 0
4  623 622 751 1127  255 0 0
6  936 934 939 1127 751 805  255 0 0
4  1126 669 455 779  255 0 0
6  1003 549 550 555 556 560  255 0 0
6  1124 479 561 728 552 608  255 0 0
4  1126 779 778 1104  255 0 0
4  1003 560 479 1124  255 0 0
4  1123 1101 1099 880  255 0 0
5  1050 856 852 857 1122  255 0 0
3  1050 461 463  255 0 0
3  842 816 332  255 0 0
3  974 608 552  255 0 0
6  974 344 184 183 807 240  255 0 0
3  974 343 344  255 0 0
6  670 780 737 775 455 669  255 0 0
6  974 552 553 456 980 343  255 0 0
4  842 343 980 542  255 0 0
4  662 1053 957 617  255 0 0
4  1120 617 957 1117  255 0 0
3  863 138 139  255 0 0
3  911 659 914  255 0 0
5  909 801 851 800 795  255 0 0
5  1137 820 659 911 863  255 0 0
4  848 914 824 903  255 0 0
5  800 848 903 1079 795  255 0 0
3  792 601 602  255 0 0
3  1134 526 817  255 0 0
5  1114 1094 547 1098 996  255 0 0
4  991 681 677 1106  255 0 0
3  1069 925 1106  255 0 0
6  991 862 614 592 702 681  255 0 0
5  1056 802 794 799 359  255 0 0
4  359 900 576 1056  255 0 0
4  1107 901 677 945  255 0 0
3  862 615 614  255 0 0
4  1107 945 833 892  255 0 0
6  486 822 135 185 685 187  255 0 0
6  681 844 518 833 945 677  255 0 0
7  679 714 713 513 591 592 855  255 0 0
5  679 476 160 616 715  255 0 0
5  681 702 663 356 844  255 0 0
3  679 855 476  255 0 0
4  995 874 1090 984  255 0 0
4  988 1072 1111 477  255 0 0
4  988 540 1062 1072  255 0 0
5  477 563 475 540 988  255 0 0
4  1017 327 650 651  255 0 0
4  1099 643 327 1017  255 0 0
4  1101 815 643 1099  255 0 0
4  984 982 964 883  255 0 0
4  1098 547 1110 1121  255 0 0
4  984 1090 532 982  255 0 0
4  877 982 532 382  255 0 0
7  1093 850 1033 1006 1110 547 1094  255 0 0
3  414 772 1085  255 0 0
5  1091 48 229 1037 1034  255 0 0
3  1091 405 48  255 0 0
5  409 887 198 520 908  255 0 0
3  1091 410 405  255 0 0
4  404 48 405 406  255 0 0
4  404 714 715 898  255 0 0
3  1049 796 937  255 0 0
5  406 405 413 983 710  255 0 0
5  404 937 796 713 714  255 0 0
3  1049 588 796  255 0 0
5  1049 937 404 406 588  255 0 0
4  940 756 1060 1046  255 0 0
5  847 819 1096 756 940  255 0 0
4  702 592 591 663  255 0 0
5  847 663 591 513 244  255 0 0
4  847 940 1046 663  255 0 0
5  532 1090 874 290 382  255 0 0
4  657 1005 1078 910  255 0 0
5  625 538 959 1005 657  255 0 0
4  770 1085 772 1084  255 0 0
3  758 564 783  255 0 0
3  758 167 168  255 0 0
4  958 555 559 876  255 0 0
4  958 620 141 142  255 0 0
3  952 961 678  255 0 0
3  952 782 20  255 0 0
6  1024 235 161 423 14 237  255 0 0
3  1024 260 238  255 0 0
3  724 455 775  255 0 0
5  724 575 577 21 678  255 0 0
6  766 574 29 264 126 266  255 0 0
7  766 786 784 566 58 57 572  255 0 0
5  1024 238 559 236 235  255 0 0
3  958 876 620  255 0 0
4  958 142 556 555  255 0 0
7  758 783 211 787 121 122 167  255 0 0
6  952 20 168 167 918 961  255 0 0
4  758 168 22 564  255 0 0
3  766 572 574  255 0 0
8  1024 237 342 493 53 843 1009 260  255 0 0
5  724 678 961 779 455  255 0 0
4  952 678 21 782  255 0 0
3  766 266 786  255 0 0
5  518 989 908 520 482  255 0 0
4  518 844 356 482  255 0 0
5  923 604 497 196 195  255 0 0
4  923 195 1096 819  255 0 0
5  756 1096 195 888 1060  255 0 0
4  518 482 888 833  255 0 0
6  520 604 606 744 668 942  255 0 0
5  520 198 197 497 604  255 0 0
3  438 987 926  255 0 0
4  746 544 985 849  255 0 0
3  746 543 544  255 0 0
5  743 924 925 1069 433  255 0 0
4  926 543 971 1077  255 0 0
5  1077 971 160 615 862  255 0 0
4  1013 1004 1002 1075  255 0 0
5  1075 1002 997 916 1122  255 0 0
4  1068 993 917 671  255 0 0
4  993 1064 1065 917  255 0 0
4  539 667 1061 1062  255 0 0
6  1060 888 482 356 663 1046  255 0 0
5  820 1054 824 914 659  255 0 0
4  855 592 614 476  255 0 0
4  476 614 615 160  255 0 0
6  1043 230 231 416 674 415  255 0 0
4  1042 399 1146 387  255 0 0
3  1027 885 696  255 0 0
4  896 515 345 860  255 0 0
4  1037 990 326 1034  255 0 0
4  974 240 990 608  255 0 0
3  679 715 714  255 0 0
4  963 387 935 603  255 0 0
4  1035 955 426 829  255 0 0
4  963 948 194 1010  255 0 0
5  1091 1034 326 558 410  255 0 0
3  837 410 558  255 0 0
4  847 244 243 241  255 0 0
5  923 819 262 339 788  255 0 0
4  409 908 665 675  255 0 0
3  520 664 665  255 0 0
4  963 603 420 948  255 0 0
5  1035 829 809 261 183  255 0 0
4  955 692 504 426  255 0 0
5  962 270 469 841 701  255 0 0
3  962 435 112  255 0 0
5  1030 440 494 181 180  255 0 0
7  962 701 690 250 706 151 435  255 0 0
5  1030 668 744 491 440  255 0 0
4  1010 194 193 1130  255 0 0
5  1030 180 178 686 668  255 0 0
4  742 730 731 361  255 0 0
5  403 688 567 687 374  255 0 0
4  1050 463 460 943  255 0 0
4  896 391 458 734  255 0 0
4  896 734 514 515  255 0 0
4  696 417 362 757  255 0 0
4  977 519 754 769  255 0 0
4  400 813 642 389  255 0 0
4  395 634 813 400  255 0 0
4  696 757 519 977  255 0 0
4  871 515 517 569  255 0 0
4  391 943 460 458  255 0 0
5  391 896 459 1044 966  255 0 0
6  389 642 639 695 567 688  255 0 0
7  871 569 740 511 533 443 548  255 0 0
4  530 519 757 1011  255 0 0
6  530 649 297 192 621 873  255 0 0
5  873 763 754 519 530  255 0 0
5  873 621 275 635 381  255 0 0
5  1011 757 362 548 680  255 0 0
4  1011 648 649 530  255 0 0
5  533 511 319 441 768  255 0 0
4  533 904 368 752  255 0 0
4  381 635 633 523  255 0 0
4  381 767 763 873  255 0 0
3  680 548 443  255 0 0
4  680 647 648 1011  255 0 0
4  381 523 441 767  255 0 0
6  533 768 523 633 630 904  255 0 0
6  680 443 904 630 640 647  255 0 0
3  856 853 852  255 0 0
5  856 332 650 327 853  255 0 0
3  523 768 441  255 0 0
3  943 391 966  255 0 0
3  374 687 489  255 0 0
4  1032 1121 1110 1006  255 0 0
5  1033 1084 772 1032 1006  255 0 0
4  625 657 1022 628  255 0 0
4  1005 959 907 1078  255 0 0
3  920 997 999  255 0 0
4  999 997 998 919  255 0 0
4  990 240 807 326  255 0 0
5  898 738 229 48 404  255 0 0
4  898 715 616 979  255 0 0
5  326 807 808 701 841  255 0 0
3  664 520 942  255 0 0
3  762 411 953  255 0 0
3  762 245 246  255 0 0
4  989 518 846 941  255 0 0
5  762 953 241 243 245  255 0 0
5  989 941 480 665 908  255 0 0
3  971 978 741  255 0 0
6  978 452 451 730 742 741  255 0 0
5  979 616 160 361 731  255 0 0
4  979 735 738 898  255 0 0
6  979 731 730 451 732 735  255 0 0
4  361 160 971 741  255 0 0
3  546 599 707  255 0 0
4  538 913 907 959  255 0 0
4  953 339 262 241  255 0 0
4  411 840 339 953  255 0 0
9  411 762 246 834 693 434 570 474 840  255 0 0
7  605 788 339 840 948 420 691  255 0 0
4  948 840 474 194  255 0 0
4  941 846 845 480  255 0 0
5  605 691 392 675 665  255 0 0
5  399 944 1088 932 1146  255 0 0
4  392 603 935 536  255 0 0
4  691 420 603 392  255 0 0
4  394 536 935 933  255 0 0
3  392 536 675  255 0 0
4  1146 932 935 387  255 0 0
4  935 932 1088 933  255 0 0
3  612 581 286  255 0 0
3  930 82 83  255 0 0
4  930 152 153 447  255 0 0
6  1039 154 152 930 83 281  255 0 0
6  1039 276 275 638 278 279  255 0 0
6  929 371 322 286 695 639  255 0 0
5  929 642 813 867 120  255 0 0
4  927 828 684 68  255 0 0
5  927 595 593 204 203  255 0 0
4  922 278 626 641  255 0 0
5  922 870 512 154 155  255 0 0
6  921 205 594 23 119 120  255 0 0
5  921 867 828 927 202  255 0 0
4  922 155 279 278  255 0 0
4  1039 279 155 154  255 0 0
5  922 641 158 159 870  255 0 0
4  927 68 516 595  255 0 0
3  929 639 642  255 0 0
4  612 286 322 631  255 0 0
3  921 120 867  255 0 0
4  929 120 119 371  255 0 0
3  921 202 205  255 0 0
4  930 447 137 82  255 0 0
5  612 611 748 585 581  255 0 0
5  1039 281 280 328 276  255 0 0
5  876 258 259 1097 620  255 0 0
4  918 167 122 804  255 0 0
4  918 778 779 961  255 0 0
5  918 804 733 776 778  255 0 0
5  599 910 1078 907 913  255 0 0
3  897 1044 459  255 0 0
5  198 887 892 833 888  255 0 0
5  885 597 347 417 696  255 0 0
4  883 964 323 881  255 0 0
6  878 323 964 982 877 723  255 0 0
4  597 861 346 347  255 0 0
5  871 347 346 345 515  255 0 0
4  871 548 363 347  255 0 0
6  870 498 720 163 217 512  255 0 0
6  516 68 684 367 587 506  255 0 0
6  516 773 303 446 172 595  255 0 0
3  748 156 157  255 0 0
5  611 65 64 156 748  255 0 0
3  512 217 216  255 0 0
6  516 506 159 158 302 773  255 0 0
5  870 159 506 587 498  255 0 0
7  512 216 157 156 67 152 154  255 0 0
6  748 157 216 217 864 585  255 0 0
4  867 813 634 828  255 0 0
4  828 634 644 684  255 0 0
4  581 567 695 286  255 0 0
4  864 217 163 364  255 0 0
4  864 489 687 585  255 0 0
3  498 366 720  255 0 0
4  587 367 366 498  255 0 0
4  585 687 567 581  255 0 0
5  864 364 365 689 489  255 0 0
3  565 235 236  255 0 0
5  565 551 553 448 485  255 0 0
3  689 365 644  255 0 0
5  684 644 365 366 367  255 0 0
3  752 368 1029  255 0 0
8  861 408 416 231 402 860 345 346  255 0 0
4  620 1097 806 619  255 0 0
6  793 245 243 244 513 524  255 0 0
5  793 829 426 693 834  255 0 0
5  793 524 507 809 829  255 0 0
3  796 825 713  255 0 0
4  847 241 262 819  255 0 0
4  788 605 604 923  255 0 0
4  846 518 482 845  255 0 0
3  349 970 1074  255 0 0
4  349 1074 832 831  255 0 0
5  843 58 55 568 806  255 0 0
5  806 1097 259 1009 843  255 0 0
6  806 568 785 249 263 619  255 0 0
6  572 493 13 334 31 574  255 0 0
4  572 57 53 493  255 0 0
4  843 53 57 58  255 0 0
8  744 473 673 220 40 39 333 491  255 0 0
4  474 570 429 683  255 0 0
6  701 808 712 510 169 255  255 0 0
4  469 270 269 790  255 0 0
7  705 823 827 316 85 149 709  255 0 0
4  705 704 827 823  255 0 0
3  469 789 841  255 0 0
3  837 407 410  255 0 0
5  841 789 407 558 326  255 0 0
3  837 558 407  255 0 0
4  686 178 103 282  255 0 0
3  693 426 504  255 0 0
5  686 282 308 307 660  255 0 0
4  834 246 245 793  255 0 0
6  1100 220 673 304 164 166  255 0 0
4  1100 386 218 220  255 0 0
3  796 583 825  255 0 0
6  1100 166 143 145 600 386  255 0 0
4  704 255 169 84  255 0 0
4  825 524 513 713  255 0 0
3  583 377 170  255 0 0
3  825 507 524  255 0 0
4  827 704 84 316  255 0 0
6  583 170 169 510 507 825  255 0 0
5  822 613 134 127 135  255 0 0
5  821 187 685 51 60  255 0 0
7  821 106 6 108 50 52 187  255 0 0
7  962 112 129 424 422 269 270  255 0 0
5  822 189 109 111 613  255 0 0
3  705 709 379  255 0 0
4  821 60 59 106  255 0 0
4  744 505 472 473  255 0 0
7  744 606 500 464 467 1073 505  255 0 0
3  927 203 202  255 0 0
3  807 183 261  255 0 0
3  809 507 261  255 0 0
4  808 807 261 712  255 0 0
4  620 619 140 141  255 0 0
3  211 141 140  255 0 0
6  619 263 121 787 211 140  255 0 0
6  733 249 56 784 781 777  255 0 0
4  804 121 249 733  255 0 0
4  803 797 794 802  255 0 0
4  799 794 797 798  255 0 0
3  610 422 424  255 0 0
3  112 131 129  255 0 0
5  111 791 421 98 97  255 0 0
7  111 109 11 19 223 110 41  255 0 0
8  610 132 77 44 43 100 104 422  255 0 0
4  610 424 128 132  255 0 0
4  111 97 134 613  255 0 0
3  791 111 41  255 0 0
6  790 269 271 503 983 413  255 0 0
5  469 790 413 412 789  255 0 0
3  983 503 710  255 0 0
3  789 412 407  255 0 0
3  406 710 588  255 0 0
4  786 780 781 784  255 0 0
4  785 568 55 56  255 0 0
4  266 737 780 786  255 0 0
3  785 56 249  255 0 0
4  784 56 55 566  255 0 0
4  737 266 126 775  255 0 0
3  733 777 776  255 0 0
5  728 561 562 485 448  255 0 0
4  448 553 552 728  255 0 0
5  724 124 125 265 575  255 0 0
3  724 775 124  255 0 0
4  441 319 321 767  255 0 0
4  533 752 1029 443  255 0 0
5  622 624 750 228 751  255 0 0
4  440 110 682 494  255 0 0
4  745 222 509 35  255 0 0
4  440 491 333 110  255 0 0
4  474 683 193 194  255 0 0
6  110 223 224 38 462 682  255 0 0
6  435 12 6 106 131 112  255 0 0
5  739 35 509 1 0  255 0 0
4  716 81 78 186  255 0 0
3  462 494 682  255 0 0
4  462 38 188 94  255 0 0
7  435 151 150 191 50 108 12  255 0 0
7  739 589 215 1040 488 116 225  255 0 0
6  462 92 93 88 86 494  255 0 0
5  739 0 3 252 589  255 0 0
4  735 453 229 738  255 0 0
3  735 732 453  255 0 0
3  612 631 492  255 0 0
5  894 177 521 324 698  255 0 0
5  726 437 719 722 727  255 0 0
6  727 722 390 66 401 703  255 0 0
6  726 698 324 393 352 437  255 0 0
3  492 703 401  255 0 0
5  894 698 703 492 631  255 0 0
4  727 703 698 726  255 0 0
3  450 66 390  255 0 0
7  646 370 63 529 312 398 640  255 0 0
5  646 630 633 328 329  255 0 0
4  646 49 268 370  255 0 0
4  722 719 388 390  255 0 0
4  450 390 388 449  255 0 0
6  370 351 495 61 62 369  255 0 0
11  369 62 376 442 373 207 535 396 378 358 430  255 0 0
5  749 355 351 370 268  255 0 0
3  749 268 49  255 0 0
4  718 351 355 449  255 0 0
3  376 62 61  255 0 0
3  376 521 442  255 0 0
4  376 397 324 521  255 0 0
3  718 495 351  255 0 0
5  437 352 350 388 719  255 0 0
5  449 388 350 495 718  255 0 0
3  376 61 397  255 0 0
4  261 507 510 712  255 0 0
4  914 711 831 832  255 0 0
3  421 379 98  255 0 0
3  505 1073 472  255 0 0
3  503 71 69  255 0 0
7  503 69 372 583 796 588 710  255 0 0
6  709 149 147 148 267 379  255 0 0
3  706 0 1  255 0 0
4  706 254 3 0  255 0 0
4  706 250 676 254  255 0 0
5  705 40 582 502 704  255 0 0
4  701 255 256 690  255 0 0
5  692 118 116 488 504  255 0 0
3  690 251 250  255 0 0
6  693 504 488 436 427 434  255 0 0
6  690 256 439 257 115 251  255 0 0
4  570 434 427 429  255 0 0
4  683 96 91 193  255 0 0
6  683 429 427 436 487 96  255 0 0
5  485 496 161 235 565  255 0 0
7  609 561 479 208 210 425 227  255 0 0
6  609 226 233 340 496 562  255 0 0
6  565 236 559 555 550 551  255 0 0
4  876 559 238 258  255 0 0
3  609 227 226  255 0 0
3  485 562 496  255 0 0
3  673 473 304  255 0 0
7  668 686 660 605 665 664 942  255 0 0
4  283 178 182 285  255 0 0
4  660 307 1048 606  255 0 0
4  371 173 444 73  255 0 0
8  594 171 37 298 383 113 571 23  255 0 0
4  594 205 206 598  255 0 0
4  595 172 27 28  255 0 0
4  594 697 25 171  255 0 0
7  371 119 571 113 531 176 173  255 0 0
5  647 398 295 385 648  255 0 0
4  648 385 296 649  255 0 0
3  649 296 297  255 0 0
4  158 641 626 629  255 0 0
7  158 629 15 16 446 303 302  255 0 0
3  647 640 398  255 0 0
3  646 640 630  255 0 0
4  635 276 328 633  255 0 0
5  638 621 192 629 626  255 0 0
3  638 275 621  255 0 0
3  635 275 276  255 0 0
3  638 626 278  255 0 0
3  629 192 15  255 0 0
5  192 297 296 301 15  255 0 0
5  492 401 66 65 611  255 0 0
3  612 492 611  255 0 0
4  447 65 66 450  255 0 0
3  609 902 561  255 0 0
3  609 562 902  255 0 0
5  606 1048 470 465 500  255 0 0
4  607 32 30 865  255 0 0
6  575 33 1071 54 45 577  255 0 0
4  574 31 32 607  255 0 0
5  575 265 865 30 33  255 0 0
4  607 865 29 574  255 0 0
4  606 604 605 660  255 0 0
4  598 206 204 593  255 0 0
6  595 28 697 594 598 593  255 0 0
5  499 254 676 256 502  255 0 0
5  499 179 1112 247 428  255 0 0
5  502 582 580 179 499  255 0 0
4  502 256 255 704  255 0 0
5  499 428 2 3 254  255 0 0
5  589 252 253 214 215  255 0 0
5  285 182 86 88 431  255 0 0
6  579 36 87 91 96 487  255 0 0
5  579 487 436 213 79  255 0 0
4  579 79 81 36  255 0 0
3  580 1112 179  255 0 0
8  582 219 102 285 431 247 1112 580  255 0 0
3  577 45 632  255 0 0
3  566 55 58  255 0 0
5  564 666 200 201 783  255 0 0
6  783 201 274 142 141 211  255 0 0
5  736 782 21 577 632  255 0 0
5  736 273 146 636 811  255 0 0
6  736 811 22 168 20 782  255 0 0
6  564 22 636 146 136 666  255 0 0
6  736 632 45 54 199 273  255 0 0
7  142 274 200 666 418 968 556  255 0 0
4  560 209 208 479  255 0 0
4  560 556 968 209  255 0 0
4  551 454 456 553  255 0 0
4  542 456 454 545  255 0 0
4  545 454 457 541  255 0 0
3  542 980 456  255 0 0
4  475 539 1062 540  255 0 0
5  894 73 444 175 177  255 0 0
4  408 866 674 416  255 0 0
3  402 231 230  255 0 0
3  398 312 315  255 0 0
3  396 535 534  255 0 0
6  396 534 527 294 528 378  255 0 0
3  114 294 527  255 0 0
3  531 174 176  255 0 0
5  535 207 725 527 534  255 0 0
6  114 527 725 444 174 531  255 0 0
3  528 293 360  255 0 0
5  529 360 293 315 312  255 0 0
4  369 430 314 277  255 0 0
4  529 277 314 360  255 0 0
5  528 360 314 358 378  255 0 0
3  373 725 207  255 0 0
3  373 442 725  255 0 0
6  522 95 87 36 81 716  255 0 0
4  716 186 188 522  255 0 0
3  462 94 92  255 0 0
4  496 340 162 161  255 0 0
4  514 734 458 511  255 0 0
4  511 458 460 319  255 0 0
3  517 740 569  255 0 0
5  514 511 740 517 515  255 0 0
3  497 197 196  255 0 0
3  500 465 464  255 0 0
4  493 342 14 13  255 0 0
4  488 1040 213 436  255 0 0
3  2 252 3  255 0 0
4  2 428 247 484  255 0 0
5  484 247 239 34 186  255 0 0
3  2 253 252  255 0 0
6  2 484 80 212 214 253  255 0 0
4  483 148 147 859  255 0 0
3  583 372 377  255 0 0
4  483 859 372 69  255 0 0
5  520 665 480 845 482  255 0 0
4  478 304 471 466  255 0 0
4  478 466 470 1048  255 0 0
6  304 473 472 1073 467 471  255 0 0
6  471 467 464 465 470 466  255 0 0
4  463 321 319 460  255 0 0
4  461 320 321 463  255 0 0
4  451 452 453 732  255 0 0
5  749 49 646 329 830  255 0 0
6  449 355 749 830 331 137  255 0 0
4  450 449 137 447  255 0 0
3  119 23 571  255 0 0
6  446 16 301 296 380 760  255 0 0
6  445 287 289 291 299 298  255 0 0
7  445 37 171 25 24 26 300  255 0 0
3  773 302 303  255 0 0
6  446 17 26 24 27 172  255 0 0
3  445 298 37  255 0 0
4  113 383 299 291  255 0 0
4  760 380 875 764  255 0 0
5  764 875 385 287 445  255 0 0
7  445 300 26 17 446 760 764  255 0 0
3  521 177 175  255 0 0
5  521 175 444 725 442  255 0 0
4  439 165 117 257  255 0 0
3  424 129 128  255 0 0
5  422 104 72 271 269  255 0 0
4  362 417 347 363  255 0 0
3  548 362 363  255 0 0
3  415 674 866  255 0 0
5  413 405 410 407 412  255 0 0
3  397 393 324  255 0 0
5  61 495 350 393 397  255 0 0
3  393 350 352  255 0 0
4  385 875 380 296  255 0 0
3  100 72 104  255 0 0
4  503 271 72 71  255 0 0
6  100 42 46 123 70 72  255 0 0
4  483 69 70 123  255 0 0
6  379 267 47 46 99 98  255 0 0
4  377 85 316 170  255 0 0
5  372 859 147 85 377  255 0 0
4  170 316 84 169  255 0 0
4  894 631 322 73  255 0 0
3  371 73 322  255 0 0
4  370 369 277 63  255 0 0
3  529 63 277  255 0 0
4  368 904 443 1029  255 0 0
5  1009 259 258 238 260  255 0 0
4  366 365 364 720  255 0 0
3  720 364 163  255 0 0
3  742 361 741  255 0 0
3  430 358 314  255 0 0
3  342 237 14  255 0 0
3  423 13 14  255 0 0
3  423 161 162  255 0 0
5  340 334 13 423 162  255 0 0
4  325 338 232 233  255 0 0
4  325 226 227 425  255 0 0
4  340 233 232 334  255 0 0
3  325 233 226  255 0 0
5  335 32 31 334 234  255 0 0
6  338 1071 33 30 32 335  255 0 0
5  338 325 425 54 1071  255 0 0
4  338 335 234 232  255 0 0
3  334 232 234  255 0 0
4  280 82 137 331  255 0 0
4  331 329 328 280  255 0 0
3  331 830 329  255 0 0
3  562 561 902  255 0 0
3  178 283 103  255 0 0
5  304 478 309 221 306  255 0 0
4  308 282 221 309  255 0 0
5  309 478 1048 307 308  255 0 0
3  306 221 218  255 0 0
7  386 600 242 164 304 306 218  255 0 0
3  383 298 299  255 0 0
3  301 16 15  255 0 0
4  295 289 287 385  255 0 0
5  294 114 113 291 528  255 0 0
4  293 528 291 289  255 0 0
4  315 293 289 295  255 0 0
3  398 315 295  255 0 0
4  219 282 103 102  255 0 0
4  285 102 103 283  255 0 0
6  186 34 248 92 94 188  255 0 0
4  484 186 78 80  255 0 0
4  281 83 82 280  255 0 0
3  274 201 200  255 0 0
6  273 208 209 418 136 146  255 0 0
4  273 199 210 208  255 0 0
4  425 210 199 54  255 0 0
3  666 136 418  255 0 0
5  267 148 483 123 47  255 0 0
4  264 29 865 265  255 0 0
4  264 265 125 126  255 0 0
3  121 804 122  255 0 0
3  263 249 121  255 0 0
6  251 115 117 165 676 250  255 0 0
3  257 117 115  255 0 0
3  248 34 239  255 0 0
3  248 93 92  255 0 0
6  248 239 247 431 88 93  255 0 0
4  600 145 144 242  255 0 0
5  242 144 143 166 164  255 0 0
3  805 751 228  255 0 0
3  225 116 118  255 0 0
4  223 19 18 224  255 0 0
7  40 220 218 221 282 219 582  255 0 0
3  215 213 1040  255 0 0
4  214 212 213 215  255 0 0
4  212 80 79 213  255 0 0
3  209 968 418  255 0 0
5  203 204 206 205 202  255 0 0
5  197 198 888 195 196  255 0 0
5  1130 193 91 87 89  255 0 0
4  494 86 90 181  255 0 0
4  190 19 11 330  255 0 0
3  185 135 133  255 0 0
3  185 51 685  255 0 0
3  191 52 50  255 0 0
4  189 330 11 109  255 0 0
5  185 133 130 272 51  255 0 0
3  182 90 86  255 0 0
5  182 178 180 181 90  255 0 0
4  174 444 173 176  255 0 0
4  439 256 676 165  255 0 0
3  156 64 67  255 0 0
4  447 153 64 65  255 0 0
4  152 67 64 153  255 0 0
3  149 85 147  255 0 0
3  22 811 636  255 0 0
3  145 143 144  255 0 0
6  101 44 618 74 10 97  255 0 0
4  97 10 8 9  255 0 0
4  135 127 130 133  255 0 0
6  134 97 9 107 130 127  255 0 0
5  131 106 59 4 76  255 0 0
4  130 107 7 272  255 0 0
3  132 75 77  255 0 0
6  131 76 75 132 128 129  255 0 0
4  775 126 125 124  255 0 0
3  99 46 42  255 0 0
3  123 46 47  255 0 0
3  114 531 113  255 0 0
4  333 39 41 110  255 0 0
3  105 272 7  255 0 0
3  105 4 59  255 0 0
4  107 9 8 7  255 0 0
7  105 7 8 10 74 5 4  255 0 0
5  105 59 60 51 272  255 0 0
3  108 6 12  255 0 0
3  101 43 44  255 0 0
6  101 97 98 99 42 43  255 0 0
3  100 43 42  255 0 0
3  95 89 87  255 0 0
4  80 78 81 79  255 0 0
3  76 4 5  255 0 0
3  77 618 44  255 0 0
6  76 5 74 618 77 75  255 0 0
4  71 72 70 69  255 0 0
7  40 705 379 421 791 41 39  255 0 0
4  27 25 697 28  255 0 0
3  27 24 25  255 0 0

