OFF
1200 1106 0

-0.830937 -0.259433 116.935
-0.349585 0.00653818 116.936
-0.960002 -0.330748 116.935
-9.12921 -7.00719 120.876
-9.18859 -6.68292 121.171
-8.69119 -6.70964 121.283
-8.15713 -6.99415 121.158
-8.9786 -7.82951 120.128
-9.46669 -8.32585 119.516
-10.1717 -9.04276 118.633
2.15965 -7.82701 123.217
3.03939 -8.08189 123.216
1.13162 -7.52918 123.218
0.292878 -5.67163 124.77
-0.32 -4.31431 125.903
-0.919874 -2.98579 127.013
-0.932405 -2.95804 127.036
-1.52996 -1.63464 128.141
-0.962296 -1.55871 128.371
-0.718808 -1.52615 128.47
-0.519474 -1.7001 128.358
-0.32 -2.05779 128.07
-0.32 -1.87417 128.246
0.459814 -2.55467 127.809
0.415763 -3.37717 127.007
17.1603 -26.3713 -183.318
30.3864 12.7203 -174.519
32.0967 17.7551 -174.519
32.1626 17.9492 -174.519
32.2278 17.9845 -183.318
16.6849 -25.5271 -57.0898
16.6849 -25.5271 -57.0898
30.1125 13.2576 -98.9347
30.3528 12.7861 -165.26
30.384 12.7249 -173.86
32.0738 17.6899 -174.397
32.1619 17.9488 -174.425
32.1653 17.9507 -174.883
18.0434 -27.9397 -55.1075
1.68292 1.11483 -78.9788
25.91 14.5 -98.9642
18.8447 -28.1651 -55.1132
18.0434 -27.9397 -55.1075
24.1199 13.511 -97.4875
25.694 14.3806 -98.786
31.6384 17.6649 -103.69
30.8233 13.0475 -98.9297
29.822 9.60252 -95.267
19.1031 -27.276 -56.0584
17.1784 -26.4035 0.670438
18.0434 -27.9397 -166.833
18.6151 -28.955 -173.776
18.6151 -28.955 -174.519
19.7614 -30.9906 -183.318
18.6151 -28.955 -183.318
18.0434 -27.9397 -183.318
1.6863 1.10883 -183.318
1.68602 1.10933 -174.568
1.68113 1.11802 -23.5801
1.67956 1.12081 24.9441
5.57158 -5.79103 18.8485
7.73718 -9.63691 15.4569
7.95928 -10.0313 15.109
10.8395 -15.1464 10.5981
18.6151 -28.955 -1.57971
18.6151 -28.955 -54.2734
18.6151 -28.955 -168.331
18.8861 -29.4362 -174.519
19.7614 -30.9906 -176.918
-18.3525 30.8467 -174.519
-19.5458 26.6469 -183.318
-18.3525 30.8467 -183.318
-18.0168 32.0283 -183.318
-18.0166 32.0289 -174.519
-18.0277 31.9899 -174.519
-18.3525 30.8467 -172.009
-19.5447 26.6508 -163.831
-19.5453 26.6487 -174.519
-32.1079 -17.5635 -174.604
-32.1079 -17.5635 -174.519
-32.1081 -17.5643 -183.318
17.4373 -32.1592 -183.318
17.4358 -32.1556 -174.519
-0.321876 0.0150445 26.688
-0.32 0.011648 26.685
17.0609 -31.4768 -173.513
17.0633 -31.4681 -51.3691
-0.320692 0.0225011 116.915
-0.322559 0.0107461 -25.3243
-0.323241 0.00644878 -77.3239
-0.324517 -0.00158786 -174.571
-0.324632 -0.00231081 -183.318
5.08452 -9.79526 -183.318
14.0957 -26.1095 -183.318
14.5665 -26.9618 -183.318
16.7027 -30.8293 -183.318
17.4379 -32.1594 -174.524
17.4379 -32.1594 -174.519
17.0609 -31.4767 -172.231
17.4465 -32.1619 -50.797
17.45 -32.1629 -1.32972
16.1813 -29.8657 0.670438
12.1002 -22.4765 7.10431
11.8697 -22.0591 7.46779
7.76512 -14.6274 13.9387
6.60121 -12.52 15.7736
4.8054 -9.26845 18.6047
4.04104 -7.88449 19.8097
0.240001 -1.0023 25.8021
-0.0824581 -0.418448 26.3105
-0.32 0.0212482 116.916
0.192237 -0.906125 116.932
-0.304706 -0.00643942 116.936
0.240001 -0.9926 116.931
2.03082 -4.23477 116.914
1.53 -3.3278 119.401
0.643372 -1.72274 118.21
0.194283 -0.909759 117.607
-0.0873675 -0.399887 117.228
-18.0166 32.029 -173.37
-18.0152 32.0338 -103.735
-18.0166 32.0289 -174.053
-18.0166 32.0289 -174.313
-14.3807 25.4453 -183.318
-14.3034 25.3054 -183.318
-11.3588 19.9839 -93.7979
-14.0538 24.8627 -97.8211
-14.3671 25.4298 -98.2887
32.2643 18.0053 -176.076
32.2641 18.0046 -183.318
32.2644 18.0054 -175.024
31.9221 17.8163 -174.536
31.9221 17.8163 -174.519
31.9221 17.8163 -174.055
31.9192 17.8172 -141.628
-30.9929 -16.9382 -52.0239
-31.3076 -17.1121 -52.2979
-32.1048 -17.5526 -52.9919
-32.1079 -17.5634 -173.813
-32.1079 -17.5634 -173.892
-32.4299 -17.7414 -174.519
-32.4692 -17.7631 -174.605
-0.967629 -1.30901 128.609
-1.07001 -1.28315 128.207
-1.05029 -1.33361 128.237
0.425913 -0.607881 129.219
0.414773 -0.640011 129.154
0.260191 -0.636988 129.595
0.142853 -0.815393 129.391
0.309903 -0.188552 129.138
0.141018 -0.29303 128.459
-0.320535 0.0234907 128.89
0.10676 0.259593 128.893
0.140467 -0.207595 128.524
0.14159 -0.381694 128.391
3.18866 -11.7376 134.896
3.55573 -12.5327 135.011
-11.6458 -6.66941 134.863
-11.6517 -6.59531 134.944
-11.4544 -6.46936 135.145
-1.45533 -0.603543 128.883
-1.01566 -2.77681 127.049
-1.2825 -2.19464 127.15
5.16609 -10.4892 136.418
4.55228 -10.4024 136.109
5.57818 -11.3881 136.985
5.69692 -11.6382 136.745
5.56762 -11.3442 136.024
-10.62 -5.93682 135.995
-11.184 -6.29678 135.42
-10.1969 -6.05874 135.992
-9.84852 -6.24415 135.896
-11.188 -6.29934 135.416
-10.9822 -6.1582 134.854
-11.1913 -6.30162 135.425
-11.4506 -6.47942 136.134
2.99752 -10.189 135.969
2.81484 -10.1568 135.236
3.23468 -11.0184 136.098
3.76567 -10.2912 135.714
2.43835 -10.1036 135.047
3.00711 -11.3223 135.821
-1.1795 -0.635156 127.887
-0.960002 -0.704263 128.017
-0.660296 -0.798622 128.195
-0.508354 -0.84646 128.285
-1.72115 -1.21122 128.494
-1.05312 -1.23441 128.657
-1.6704 -1.35691 126.916
-1.76288 -1.16656 126.443
-10.5343 -5.86416 134.664
-10.4328 -5.91849 134.667
-1.28496 -0.733261 127.88
-1.3569 -0.549235 127.77
-1.19279 -0.458499 128.553
0.0728291 -0.688777 127.907
0.0341344 -0.502206 127.917
0.0265302 -0.465542 127.919
-0.100137 0.145201 127.951
-0.222179 0.0777726 128.033
-0.268297 -0.0711702 128.073
-0.0722058 -0.426192 127.978
0.606212 -0.72703 128.36
0.649042 -0.60084 128.616
0.513776 -0.701056 128.696
0.63895 -0.581057 128.703
5.15746 -10.4829 135.9
4.45771 -10.3863 135.788
5.17017 -10.4865 135.9
5.44553 -11.0665 135.344
0.472747 -1.12026 127.561
0.41123 -1.30151 127.193
0.504459 -1.02683 127.751
0.49321 -1.05997 127.684
4.0885 -7.86955 122.759
4.39251 -8.50992 122.146
-9.10626 -7.86072 134.236
-9.10033 -7.88921 134.134
0.33879 -0.170682 129.254
0.416835 -0.122401 129.568
-0.069774 -0.430412 129.702
0.100491 -0.323296 129.852
0.416168 -0.123154 129.667
3.47228 -12.3223 136.308
3.32689 -12.0225 135.584
4.29071 -10.3579 135.22
3.76507 -10.29 135.597
3.64596 -12.6911 136.69
4.21708 -12.778 136.979
4.66782 -12.8466 137.208
3.33268 -12.0199 136.264
0.448523 -0.542669 129.35
0.51765 -0.343288 129.751
-8.82703 -6.77061 133.975
-0.32 -2.23525 127.801
-0.940236 -2.94136 127.02
-0.817802 -1.95377 127.593
-0.32 -1.47281 128.632
-10.1878 -8.82125 136.25
-9.80362 -8.4424 135.856
-9.6444 -8.28538 135.693
-9.81237 -8.44542 136.281
-9.84259 -8.47422 136.386
-11.5397 -7.73934 135.709
-11.5095 -7.99249 136.396
4.73537 -9.1312 116.888
5.39542 -10.3262 116.881
3.04455 -11.4405 134.179
3.00402 -11.3505 134.266
-10.9187 -8.40742 137.67
-10.7371 -8.51602 136.839
-0.841947 -1.89988 127.644
-0.64868 -1.54583 128.427
-0.32 -1.55352 128.221
-0.32 -1.85418 127.463
5.47188 -12.0452 138.069
5.70163 -11.6489 136.771
0.150823 -1.81297 127.299
0.668688 -1.76763 127.12
-10.5337 -5.86778 134.978
-11.643 -6.59966 135.732
-9.2047 -6.58721 135.752
-9.35792 -6.50621 135.848
-8.38137 -7.02508 135.491
-9.10644 -6.63915 135.691
-9.35719 -6.50568 135.761
-9.2341 -6.5712 135.727
-0.481729 -0.511865 126.086
-0.85491 -0.272075 124.955
-0.861108 -0.275343 127.028
-0.671441 -0.395486 127.104
3.07137 -10.0535 121.332
0.3293 0.0693909 129.409
0.512548 -0.336784 129.953
0.186376 0.3036 129.088
-0.320529 0.0235273 129.333
-0.133159 -0.315647 129.794
-11.6027 -7.21154 134.277
-1.66907 -1.42261 124.116
-1.69707 -1.43013 121.068
-0.545362 -0.100824 127.739
-1.9218 -0.861607 124.641
-1.38281 -2.05803 123.522
0.240001 -0.163952 116.936
0.240001 -0.936315 116.931
0.240001 -0.938703 117.621
0.240001 -0.489715 117.224
0.240001 -0.192077 116.96
4.91745 -10.4389 134.77
5.40137 -12.2181 136.012
5.52794 -11.9915 135.696
-11.6589 -6.2409 137.328
-10.7792 -5.75487 136.734
-10.5309 -5.88618 136.579
-11.399 -6.45894 137.17
-11.6587 -6.24318 137.328
-4.68967 -3.37143 132.67
-7.14681 -5.1215 134.347
5.17724 -10.4723 134.569
5.72351 -11.6511 134.739
5.33821 -12.3581 134.881
4.56989 -10.3897 134.589
5.46298 -12.1015 136.16
5.11999 -12.7309 136.287
-1.22188 -1.15195 127.707
-1.63995 -1.41479 127.286
-1.07784 -2.06713 127.356
-1.38905 -1.94777 127.834
-1.03103 -1.91643 127.709
-1.18652 -2.41704 126.535
-10.188 -8.81814 136.497
-10.1179 -8.74866 136.448
-11.4004 -8.15107 137.252
-0.0727394 -0.425267 127.599
-0.124965 -0.457575 127.389
-0.151213 -0.473813 127.284
-0.32 -0.57823 126.605
-0.32 -0.58056 127.303
-0.32 -0.583373 128.146
-1.62779 -0.732921 128.98
-1.41793 -0.58288 128.836
-0.320546 0.0234253 128.099
-0.972116 -2.87349 126.957
3.40168 -10.7586 134.203
3.75417 -10.2672 133.453
3.76836 -10.269 133.443
17.2501 -30.7955 -172.226
5.41601 -10.3631 120.311
4.6091 -8.90209 121.758
-5.18364 -3.97039 124.885
-6.77019 -4.82827 123.622
3.12159 -11.1491 134.8
2.72792 -10.7395 134.752
3.62373 -12.727 132.936
4.21536 -12.8193 133.019
3.58884 -12.6044 135.022
4.792 -12.8892 135.003
4.32442 -12.8155 135.016
3.97646 -9.76227 121.863
3.63168 -7.9193 122.92
1.86734 -3.93777 126.674
0.240001 -0.99158 126.525
0.240001 -1.4807 126.675
0.240001 -4.41207 120.692
0.240001 -3.43371 119.827
-0.304084 -4.46167 120.875
2.03839 -4.24814 120.084
-0.32 -4.42479 120.978
-0.960002 -0.330713 117.392
-0.960002 -0.987854 128.135
-0.960002 -0.980611 125.966
-0.960002 -0.430967 127.904
5.01601 -12.8995 137.384
-0.32 -3.06495 126.542
-1.10618 -1.31006 128.201
-1.06233 -1.40794 128.109
-0.704329 -1.47939 128.457
0.254969 -1.56699 127.861
4.69978 -12.874 135.068
4.19673 -12.7912 135.414
3.63616 -12.7069 135.036
2.21988 -7.55884 122.965
0.911739 -1.58236 127.449
0.961967 -1.48027 127.678
0.240001 -1.99238 118.552
5.31627 -12.3484 137.281
5.56545 -12.9831 137.663
3.25863 -10.2246 135.961
3.57604 -10.5535 135.999
3.25261 -11.0044 136.688
0.471456 -1.04046 127.684
1.54436 -2.51624 128.146
1.14303 -1.64262 127.676
0.857253 -2.10888 128.347
0.234379 -0.981263 127.828
5.71381 -11.6501 135.64
5.17522 -10.4754 134.904
4.02146 -10.3121 134.304
5.29877 -12.4123 135.765
-11.2497 -8.28175 133.203
-10.1847 -8.86347 132.892
-9.75526 -8.42567 133.511
-11.5228 -7.99684 135.083
-11.5117 -8.11662 135.103
-10.9053 -8.44547 135.125
-9.77985 -8.43418 134.704
-10.1504 -8.80122 134.965
-1.14082 -1.10202 128.099
-0.572119 -0.734198 125.591
-0.907544 -0.947286 125.915
4.04165 -7.87465 122.775
-9.53372 -6.39635 134.351
-9.37086 -6.33472 134.046
-10.5361 -5.85234 133.634
-9.54296 -6.39189 134.396
-9.3831 -6.27759 134.287
-9.42374 -6.08798 135.085
-9.72552 -6.30362 135.292
-9.36177 -6.47949 133.506
-9.33729 -6.49132 133.386
-9.34274 -6.4659 133.493
-9.40189 -6.18993 134.656
-10.5382 -5.83901 132.475
-11.6711 -6.58556 133.175
-11.6283 -6.99681 133.694
-10.0291 -6.13471 134.682
-11.571 -7.47685 134.997
-11.6527 -6.5948 134.851
-10.7265 -5.98971 134.696
-10.2619 -6.01156 134.818
-11.6091 -6.9725 135.74
-11.543 -7.69704 135.755
-0.0250634 -0.511632 127.124
-0.130771 -0.423849 127.395
-0.0683851 -0.786252 127.331
0.219452 -0.954443 125.91
0.208749 -0.935441 122.379
-0.32 -0.611078 125.217
-0.32 -0.615785 126.576
-0.232346 -0.672108 126.841
-9.33847 -6.49217 133.527
-8.42476 -6.48414 133.7
-9.00114 -7.82176 122.374
-9.521 -8.34464 122.15
-11.2553 -8.45146 118.9
-10.1746 -9.00207 121.869
-9.29734 -6.86585 136.081
-0.960002 -0.953825 117.943
3.7377 -10.2328 130.216
2.92643 -10.1257 130.579
3.40788 -10.7084 131.823
-8.3774 -7.02453 135.237
-7.79945 -7.33005 134.877
3.08363 -11.5211 134.373
2.98928 -11.3189 134.246
3.7578 -10.2748 134.167
-9.13783 -7.92319 134.26
-9.23487 -7.89517 134.261
-9.25569 -7.91501 134.334
-9.09482 -7.92617 134.234
-0.32 -4.3214 125.587
0.174079 -5.41842 124.549
-0.32 -0.921201 128.172
0.145842 -1.04082 127.888
2.43218 -10.0989 134.659
2.99596 -11.3202 134.836
3.76008 -10.2796 134.616
3.57902 -12.5826 135.043
3.41006 -10.1002 121.381
3.49804 -10.3983 121.119
-6.60009 -5.28916 123.227
-8.10278 -4.8538 123.228
-9.37017 -5.69151 122.073
-7.70238 -7.80834 134.837
-8.83018 -7.48261 134.844
-5.96968 -8.30877 134.825
-9.12209 -7.78019 134.424
-9.09335 -7.93603 134.26
-7.93766 -7.2548 134.755
-7.52155 -8.38454 136.242
-8.16598 -6.99537 121.724
2.98517 -11.3181 133.883
-0.692469 -0.182094 127.924
-1.89716 -0.84777 127.645
-1.74911 -1.16504 127.845
2.69604 -5.43869 120.968
2.46146 -6.48318 121.952
-6.24164 -4.90196 134.259
-8.54615 -5.4609 134.484
-8.36963 -7.02346 134.74
-2.9823 -1.70132 129.906
-9.34478 -6.49672 134.28
-8.35331 -7.02121 133.697
-9.356 -6.50482 135.619
-2.74722 -1.31725 130.507
-2.4277 -1.14071 130.353
-8.87895 -6.76457 136.04
-2.42001 -1.13648 130.096
-6.19232 -4.99612 123.621
-8.29756 -4.38461 123.625
-8.39025 -7.02631 136.058
27.1938 19.1802 -175.469
27.5209 20.2269 -177.524
27.5209 20.2269 -176.452
27.1938 19.1802 -174.521
4.25835 -12.9746 118.856
3.5427 -12.8578 119.255
2.83633 -11.2894 120.739
5.36231 -12.6354 119.488
5.10461 -13.0921 120.356
3.57428 -12.8068 124.588
4.37978 -10.2338 121.522
3.70306 -10.1603 123.409
2.89634 -11.301 126.038
5.02844 -12.9265 134.996
5.20746 -10.4266 129.558
5.74691 -11.6534 132.566
5.217 -12.5671 135.568
4.49689 -10.393 135.921
5.16921 -10.4845 135.899
5.70919 -11.6497 136.069
3.6489 -12.6864 137.187
5.01964 -12.9074 136.686
3.05169 -11.4112 136.175
3.01098 -11.323 136.162
3.76684 -10.2937 135.944
-0.453019 -0.667749 128.236
-1.646 -1.41641 126.628
-1.53318 -1.62775 128.137
-0.515919 -0.870894 128.291
4.49824 -8.70191 116.89
4.58093 -8.85163 116.703
-11.6711 -6.24772 136.106
-10.7718 -5.75082 135.972
-10.5319 -5.87929 135.98
-11.6383 -6.60204 136.165
-27.5032 -19.1956 -174.416
-32.1877 -17.8443 -174.302
-32.3598 -17.7947 -174.298
-0.32 -0.547559 117.419
-0.32 -0.574033 125.348
-0.0762467 -0.419182 125.113
2.45327 -10.115 135.986
3.75386 -10.2666 133.394
-9.25492 -7.88834 136.253
-9.14209 -7.77332 136.416
-9.1134 -7.92885 136.253
4.77623 -9.20524 116.261
5.38345 -10.3047 114.887
4.59977 -8.88537 120.083
5.40597 -10.3451 118.64
-11.5297 -8.12884 133.285
-9.05622 -7.80283 127.861
-9.24379 -6.92759 131.548
-11.5164 -8.1198 134.629
-11.5298 -7.86366 135.575
-9.63474 -8.38398 127.666
-10.1798 -8.93149 127.483
-9.31164 -6.47281 130.325
-10.5436 -5.80429 129.454
-9.1163 -7.78219 133.846
-11.6778 -6.58222 132.569
-9.35939 -6.50727 136.023
-11.5808 -7.22254 136.268
-1.72007 -1.4363 118.565
-0.32 0.0212482 116.916
-0.32 -0.00201672 116.936
-0.32 -0.114058 126.97
-0.32 0.0223294 127.077
-0.106412 -0.364313 127.528
-0.32 -0.545939 116.933
-32.4385 -17.772 -174.519
2.93768 -11.3089 129.689
5.05486 -10.488 137.819
3.61192 -12.7461 130.944
4.81564 -12.8921 135.084
-0.43687 -0.0408585 127.983
-0.907892 -3.11223 122.536
-0.32 0.0223691 127.451
-0.32 0.0224287 128.011
-0.32 -4.3653 123.63
16.9133 -32.0081 -172.234
16.9133 -32.0081 -174.516
0.00869702 -0.572684 127.772
1.51216 -3.29484 125.61
3.75315 -7.35237 122.388
3.75822 -7.35578 122.39
2.38726 -4.26658 125.308
1.39861 -2.18161 127.19
-0.266825 0.0167382 127.261
30.7012 12.6273 -174.491
30.7012 12.6272 -174.519
2.34398 -7.00625 122.444
0.152476 -2.06925 127.104
0.390873 -3.45411 126.858
3.12806 -6.93174 122.177
3.50121 -6.89629 122.049
12.8512 -30.8363 -50.797
13.1525 -29.815 -174.519
-27.2329 -18.2763 -174.519
-9.08888 -7.50576 125.827
-8.21972 -7.00278 125.158
27.1938 19.1802 -164.707
-9.03836 -7.80897 126.082
14.5671 -26.962 -174.519
-31.1268 -14.1106 -174.519
5.01817 -12.9042 136.968
13.9224 -26.7807 -174.519
5.1765 -12.6207 136.573
17.6647 -32.2248 -174.519
18.8447 -28.1651 -174.519
3.02247 -11.3253 137.178
-11.8239 -6.33333 120.776
3.65314 -12.6795 137.903
-10.3805 -24.1348 104.083
-12.6549 -6.79874 37.4339
3.78967 -7.2157 122.258
-27.6358 -15.0924 -174.6
1.66632 -3.57379 127.13
-27.635 -15.0927 -183.318
-11.1692 -23.9074 30.7888
1.55545 -2.51736 127.117
2.33884 -4.1944 126.755
-27.6358 -15.0924 -174.519
1.7023 -3.63893 127.112
0.22389 0.324256 128.136
-0.0706421 0.161507 128.068
0.968764 -1.30043 129.154
0.5238 -1.35995 128.974
-1.73509 -1.44034 116.929
-27.999 -20.8803 -176.882
-11.2678 -10.5513 116.88
-32.7 -19.6472 -176.934
-32.2298 -17.9925 -174.519
-27.5238 -19.2656 -174.519
-3.02081 -12.9448 116.868
-0.32 -0.582369 116.933
-0.960002 -0.950448 116.931
-28.0002 -20.8799 -183.318
-32.7 -19.6472 -183.318
-1.98503 -0.897125 116.932
-2.02542 -0.919445 116.932
4.99853 -12.8615 140.743
-10.5859 -5.64953 116.906
-11.8626 -6.35496 116.903
-13.4979 -7.25859 116.898
5.17457 -12.9357 136.319
-16.6369 -8.993 116.889
5.02153 -12.9115 136.323
-15.9784 -9.1841 116.888
-11.5691 -10.4638 116.881
5.02424 -12.9174 135.801
-11.4871 -10.4876 116.881
1.48236 -7.08813 122.738
0.757832 -14.0415 116.862
4.10233 -15.0121 116.857
4.57199 -15.1484 116.856
-11.6298 -6.60629 136.935
-11.4667 -8.00007 140.415
7.9951 -16.1419 116.85
-11.545 -6.64886 144.66
-9.27931 -7.02941 137.196
8.72472 -16.3537 116.849
-9.38427 -6.52522 138.992
-10.5179 -5.96934 143.815
7.11852 -13.4458 116.865
6.02578 -11.4674 116.875
4.58197 -8.85349 116.889
-0.288059 -0.0354912 127.145
1.04955 -1.45123 117.865
0.571885 -0.462119 129.849
-0.32 0.0212504 116.937
0.215146 0.319505 129.202
0.516711 -1.4923 128.845
0.287341 -1.07715 127.802
0.948923 -7.13882 122.92
0.00869702 -0.572684 127.772
-0.32 -4.41721 121.315
-0.19438 -4.69606 121.055
-0.32 -4.42766 120.85
3.75729 -7.35988 122.393
3.56123 -8.23308 123.216
1.44251 -23.2707 -174.519
1.67022 -3.61093 127.13
-13.6 -19.04 -174.519
-26.3991 -15.4402 -174.519
-0.324516 -0.00158357 -174.519
-0.32 -2.36671 119.027
-1.05473 -2.85784 119.65
-1.24596 -2.39166 121.907
17.0614 -32.0508 -174.519
16.9133 -32.0081 -174.519
12.8905 -30.8476 -174.519
3.64401 -12.6943 136.362
0.639998 -26.24 -174.519
-14.48 -21.92 -174.519
-27.5032 -19.1956 -174.519
32.154 17.7385 -174.519
-32.1877 -17.8443 -174.519
-32.4692 -17.7631 -174.519
-0.32 -0.269315 26.6011
-0.32 -0.584163 117.451
-0.32 -3.47969 120.011
3.77124 -7.38513 122.362
6.67413 -13.3517 119.164
5.87615 -11.6661 120.561
4.26812 -12.9762 118.857
-19.2027 32.2303 -176.594
5.11185 -13.1079 118.965
-19.1969 32.2513 -183.318
3.53979 -12.8625 118.765
2.82887 -11.288 120.08
-18.4468 32.0732 -174.519
-18.0279 31.989 -174.235
3.69295 -10.1392 121.422
5.25517 -10.3545 121.648
-8.2823 -24.7401 27.549
-7.46628 -24.9755 104.083
-9.92008 -6.05499 121.571
0.243097 -14.7258 116.062
-5.8605 -11.3953 117.568
-11.4847 -10.5174 116.853
-11.2292 -8.46573 118.894
-13.6 -19.04 -183.318
-9.29794 -4.96051 -183.318
-11.6706 -8.22487 119.002
-11.7485 -7.26354 119.904
-8.78758 -4.6554 123.229
-6.507 -5.31613 123.227
-11.8091 -6.51628 120.605
-10.5575 -5.71542 121.721
-11.4572 -8.07946 140.63
-11.5662 -7.16554 138.153
-9.15695 -7.76822 137.896
-9.23695 -6.41891 121.411
-9.89897 -8.47538 140.481
-10.1926 -8.75519 141.504
-9.21587 -7.37334 136.835
-13.4862 -7.25201 117.971
-11.8519 -6.34899 117.971
-10.1897 -8.79544 138.303
-9.84683 -8.45734 137.952
-11.4913 -8.1027 137.173
-11.5434 -7.60259 136.539
-9.15035 -7.77048 137.238
-9.20753 -7.41853 136.788
-11.5945 -6.62402 140.153
-11.5406 -7.65635 136.34
-10.5261 -5.91656 139.223
-10.2738 -6.03856 137.984
-10.5282 -5.90314 138.055
-11.5097 -8.11527 135.302
-9.37372 -6.51761 137.733
4.11273 -9.5811 122.074
-1.97504 -0.891518 118.149
-32.1877 -17.8443 -52.9907
-14.7268 -22.7276 -174.519
-23.2912 -20.4106 -174.519
32.2662 18.0117 -104.208
29.5381 16.5122 0.670438
32.2689 18.0209 -1.70891
31.9132 12.2157 -183.318
17.6647 -32.2248 -1.57072
30.6869 12.5783 -183.318
30.7152 12.623 -174.519
31.9232 12.2514 -176.919
2.41945 -4.15034 116.914
1.21014 -1.54949 116.928
27.1938 19.1802 -183.318
27.5209 20.2269 -183.318
-12.4971 31.845 -183.318
-12.8081 30.7192 -183.318
-12.7736 30.7093 -174.753
-12.4715 31.8375 -176.942
-17.9659 32.2071 -174.661
-17.6442 33.3393 -176.867
32.4907 18.784 -177.597
-11.4951 -10.3886 116.973
-21.7794 -20.8467 104.081
-21.1292 -21.0343 41.9667
8.40553 -14.7355 13.2428
7.00638 -11.7775 15.5753
6.14912 -11.693 95.2048
7.37246 -13.9098 76.4421
21.5087 -11.3677 0.670438
8.14645 -9.68835 15.0174
19.9762 -16.6888 0.670438
7.10373 -13.4187 119.218
1.1981 -1.54528 117.91
2.35824 -1.95076 23.3242
3.01209 -11.3233 136.26
5.15754 -10.5021 137.835
3.77535 -10.3115 137.617
3.63548 -12.708 134.921
5.70203 -11.649 136.735
5.02783 -12.9252 135.113
-32.1021 -17.543 54.3785
-32.4897 -17.7572 54.7163
15.6678 -31.6488 0.670438
-19.8905 26.7453 -183.318
-19.8899 26.747 -174.519
-32.4684 -17.7633 -183.318
17.4503 -32.163 2.6692
-32.48 -17.76 -53.3185
-32.1817 -17.6043 -173.975
-31.1268 -14.1106 -168.851
-32.4692 -17.7631 -174.295
4.51341 -8.73067 104.584
1.99531 -3.2896 119.248
4.48367 -8.67512 120.748
3.75729 -7.35988 122.393
-9.24485 -7.06817 134.261
-8.81164 -7.46413 134.84
-8.36402 -7.02269 134.381
4.32653 -8.39037 123.158
-9.79638 -8.43019 136.225
-9.81441 -8.44613 136.38
-9.44499 -8.0821 135.98
-10.188 -8.81855 136.464
-9.02001 -8.43513 135.721
18.8447 -28.1651 -183.318
-9.81143 -8.4451 136.235
-11.4988 -8.10779 136.415
-31.7902 -13.924 -175.639
-6.24086 -4.92887 132.206
-19.1183 32.5395 -176.601
-18.376 32.3254 -174.519
-18.3954 32.2562 -174.519
-11.6236 -6.68476 136.85
-31.2017 -13.3661 -174.519
-31.3899 -14.0366 -174.519
-9.35774 -6.42259 134.282
-7.84939 -6.52209 133.341
1.01497 -1.37254 127.92
-9.48894 -5.04298 122.662
1.12098 -1.58726 127.318
-33.2941 -17.5252 -176.919
6.04339 -10.4145 116.881
-32.2472 -13.7955 -176.919
6.13744 -11.2617 116.876
6.55896 -10.4848 116.881
-31.7902 -13.924 -183.318
-19.1183 32.5395 -183.318
-9.34208 -5.87268 122.447
0.184822 -0.492344 128.457
-9.77291 -6.1385 122.021
0.767882 -0.862279 128.88
0.766272 -0.861696 129.01
0.43489 -0.65293 129.215
-11.4619 -8.08265 140.155
-2.01338 -26.5484 104.084
-1.18476 -26.7875 19.5836
3.35417 -16.4234 115.294
-33.2941 -17.5252 -183.318
-32.2472 -13.7955 -183.318
-11.49 -8.10179 137.307
-11.5544 -7.39237 137.315
-1.28688 -0.738981 127.866
-1.70383 -1.27543 127.31
32.4907 18.784 -176.452
-9.61856 -5.11461 122.558
26.2953 19.4394 -174.519
5.024 -12.9169 135.848
3.63666 -12.7061 135.12
-9.78721 -8.43672 135.061
0.240001 0.332281 116.497
-10.0439 -8.69263 135.119
0.240001 0.325473 26.1984
0.240001 -0.620893 25.916
-9.04207 -7.8077 126.451
0.148216 -1.40884 127.608
0.350643 -1.19177 127.689
-31.1268 -14.1106 -183.318
-8.78824 -6.69721 125.034
-8.24384 -7.00611 126.7
4.59404 -8.87511 119.055
4.72345 -6.9511 19.3812
-0.62509 -0.287157 127.337
-0.792747 -0.318646 127.056
-1.91334 -0.856854 125.673
-0.960002 -0.629901 127.202
-9.12023 -7.78083 134.238
0.204566 0.313756 130.492
1.84373 -12.5978 118.549
5.88368 -9.40397 17.447
-9.1402 -7.77397 136.228
1.06576 0.781694 25.4789
5.3398 -10.2265 107.617
-7.00938 -3.67275 124.665
-6.52653 -3.81194 124.665
1.44251 -23.2707 -183.318
-1.6539 -1.41853 125.768
13.9252 -26.7815 -183.318
-27.2346 -18.2758 -183.318
0.827429 -1.75373 127.065
-1.90005 -0.849393 127.293
-27.5049 -19.1951 -183.318
0.74902 -1.91311 126.707
-1.48387 -1.81167 124.715
-26.4008 -15.4398 -183.318
-1.30502 -0.520569 127.782
-26.0396 -14.2111 -183.318
-0.908828 -0.383363 127.908
-0.960002 -0.51047 127.624
-4.3281 -9.03393 120.26
5.40609 -10.3453 118.659
5.42418 -10.3778 121.673
4.60198 -8.88933 120.48
16.6867 9.41202 11.8681
-2.10387 -1.53939 76.7822
-0.960002 -1.2013 128.224
0.311757 0.110462 129.258
5.15854 -11.5954 187.218
0.272981 0.159555 129.281
4.85968 -10.9526 187.218
-0.960002 -2.99656 122.644
0.757774 -1.24509 129.034
-0.32 -0.244376 26.6086
0.534811 -1.15435 129.174
-6.78108 -7.72719 120.835
-9.64441 -8.28539 135.693
6.00329 -11.4263 120.827
4.32272 -14.5964 117.317
-11.3437 -8.206 135.254
-14.7631 -8.40644 117.971
-11.5814 -9.32474 117.971
-7.42903 -8.60663 119.811
-9.11662 -7.08725 121.023
-15.2967 -8.25242 117.971
-2.70807 -1.30329 28.7671
-8.98487 -7.82735 120.753
-1.88767 -0.842437 128.802
-13.2157 -7.39882 117.971
-9.48008 -8.33048 120.166
-10.1723 -9.0338 119.345
11.0966 -20.6483 113.383
0.370761 -27.2362 -16.4824
0.370761 -27.2362 -50.797
-13.1865 -7.39765 119.377
-12.7721 30.7089 -174.396
-30.3439 -18.3762 104.08
-12.7726 30.709 -174.519
-19.8077 -10.7506 43.6663
-12.7086 30.6905 -158.622
-13.7898 -7.42189 90.2609
-31.0311 -18.178 53.0793
0.240001 0.167329 126.167
0.240001 -0.218276 124.808
0.240001 -0.511582 123.773
0.240001 -0.954613 122.211
-14.48 -21.92 -183.318
0.240001 -0.967284 125.868
0.240001 -0.73175 126.444
12.5604 -32.1601 -183.318
12.8932 -30.8484 -183.318
13.1553 -29.8158 -183.318
12.8358 -30.8319 -2.50508
-0.104293 0.13283 127.149
-0.18285 -0.121319 127.449
-0.156686 -0.273305 127.422
-20.6402 26.9594 -183.318
-20.6398 26.9607 -176.485
0.639998 -26.24 -183.318
-19.938 26.7608 -174.519
-10.2052 -8.58131 155.333
-9.61549 -8.37732 126.733
12.8904 -30.8476 -174.457
0.370761 -27.2362 -174.271
2.21839 -9.93601 121.209
30.7161 12.6787 -165.257
0.557657 -1.14656 127.638
-1.57345 -1.59326 125.772
-9.26644 -6.44019 124.93
-10.1797 -8.93291 127.369
-11.7536 -6.54415 125.662
-10.5523 -5.74908 124.65
-11.5911 -8.1707 127.058
-19.8891 26.7491 -163.823
0.00524299 -0.341099 117.153
-17.9659 32.2071 -174.519
0.00524344 -0.367413 125.034
-9.65202 -7.59807 187.218
-17.9659 32.2071 -183.318
-9.78839 -6.81685 187.218
31.9229 17.8161 -183.318
4.51743 -8.7363 120.23
-9.12699 -7.77851 134.911
19.1031 -27.276 -173.804
0.0396077 -0.487041 127.948
-18.1439 32.2584 -183.318
-6.87234 -8.83323 134.965
-27.5005 -19.1964 -160.668
16.9133 -32.0081 -183.318
-18.1433 32.2583 -174.519
-9.05343 -8.2036 134.98
0.370761 -27.2362 -82.4906
16.56 -33.28 -183.318
0.734681 -0.781444 128.453
0.108343 -0.296599 128.341
-4.34964 -9.17639 134.882
16.56 -33.28 -176.919
16.913 -32.0092 -174.519
0.31679 -0.604444 128.15
0.618176 -0.535744 128.675
-32.1877 -17.8443 -173.815
-17.6442 33.3393 -183.318
32.4907 18.784 -183.318
-10.736 -5.73132 132.301
-11.7044 -6.26635 132.771
-0.349853 -0.599193 127.233
-0.349778 -0.596651 126.486
-9.01414 -8.46697 135.688
-8.47801 -8.62143 135.683
0.857241 -1.05307 128.815
19.1031 -27.276 -174.519
-31.5981 -15.7696 -52.999
19.1031 -27.276 -183.318
20.7004 -27.6519 -183.318
5.6765 -11.6465 139.106
-7.8556 -8.54938 134.971
20.7004 -27.6519 -176.918
-7.62279 -7.42344 134.766
19.4694 -27.3622 -174.519
0.553243 -0.810189 129.51
-4.35159 -9.18928 136.205
-0.0602953 -0.447574 129.688
-5.03518 -9.09628 136.227
5.15557 -10.5051 138.161
0.375997 -0.357395 129.239
-8.96445 -8.48128 135.687
0.129548 0.272182 128.863
-0.162882 0.11063 129.257
0.225324 0.0275138 129.009
-8.87271 -8.4077 119.602
5.41414 -10.3598 120
5.73407 -17.7221 114.707
4.60578 -8.89614 121.162
6.54062 -10.494 118.057
0.370761 -27.2362 -174.519
-10.1866 -8.83806 134.913
1.65399 -3.45631 127.128
16.9133 -32.0081 -129.488
5.41446 -10.3462 118.635
2.03573 -3.54553 126.895
-9.79576 -8.43968 135.475
12.8854 -30.8462 -158.54
0.449128 -1.36993 128.944
-9.87054 -6.23351 136.004
17.4413 -32.1604 -125.679
-0.320547 0.023418 128.01
-10.9975 -7.76622 187.218
6.51463 -10.5071 119.725
-0.960002 -0.650701 27.1505
5.59884 -10.3871 120.213
-0.960002 -0.33751 27.244
5.63062 -11.7714 137.172
32.1872 17.7398 -103.918
12.8872 -30.8467 -164.275
32.1872 17.7398 -1.70814
0.536383 -1.09868 127.683
17.438 -32.1594 -173.271
32.1872 17.7398 -174.519
4.02774 -10.8391 187.218
-2.77966 -1.33536 128.082
3.58911 -11.4343 187.218
-7.66911 -4.56716 123.624
-0.320554 0.0233722 127.456
-31.2959 -17.1155 -183.318
-1.58542 -0.67541 129.047
-1.81958 -0.993228 128.676
3.31691 -10.9148 136.551
3.0354 -10.1957 136.121
27.1938 19.1802 -103.918
3.39343 -10.2588 137.556
-9.25533 -6.43218 123.605
3.38421 -10.83 136.922
27.1938 19.1802 -174.519
17.6661 -32.2201 -174.519
25.6915 14.3729 -183.318
0.970767 -1.30467 129.151
17.7876 -31.8022 -173.727
0.944053 -1.30374 129.144
0.83559 -1.00996 128.972
0.728838 -1.33252 129.057
-0.832017 -0.260003 117.296
-0.34887 -0.565886 117.442
-11.7917 -6.52503 122.193
-0.5618 -0.11751 26.897
-0.960002 -2.94188 125.082
-11.7387 -7.35136 120.078
11.4766 -30.4398 104.086
-10.5544 -5.73566 123.481
10.3173 -30.1054 6.67513
-17.9659 32.2071 -174.379
-2.54742 -1.65853 28.4946
-9.29596 -8.06265 126.372
-0.640548 -3.68207 123.033
0.273463 0.160891 129.284
-11.6433 -8.20626 121.77
0.618176 -0.535744 128.675
0.279679 0.178112 129.319
-10.1785 -8.9489 126.097
12.8821 -30.8806 -174.519
5.70709 -11.6812 134.745
18.0434 -27.9397 -90.354
-12.4882 30.627 -103.918
-7.32468 -5.9817 134.504
5.72303 -11.651 134.784
-18.3525 30.8467 -102.475
-9.60607 -8.37406 126.276
12.5584 -32.1595 -176.919
18.8447 -28.1651 -166.834
32.2644 18.0054 -174.583
32.1872 17.7398 -174.579
5.46644 -11.1106 135.302
-13.47 -7.24296 119.447
-11.6482 -6.59708 135.264
-9.44112 -8.09169 134.982
2.89703 -11.3011 126.1
-11.6838 -6.25485 134.83
18.8447 -28.1651 -173.789
3.71062 -10.1762 124.896
-14.3525 -7.73668 38.9131
-10.7563 -5.74238 134.382
-10.5344 -5.86317 134.578
-14.7699 -22.8687 -174.519
-14.7699 -22.8687 -124.959
3.78299 -10.3275 139.119
32.1938 17.7627 -174.579
32.1872 17.7398 -174.537
4.99427 -12.8523 141.563
-27.4788 -19.2026 -50.797
4.80958 -12.8311 140.81
-30.2313 -18.4087 -50.797
5.60868 -11.6398 145.405
6.02359 -11.4634 117.26
5.11752 -10.5626 144.47
-11.5736 -7.31244 136.171
5.13951 -12.8041 136.298
5.10427 -12.7615 136.207
-17.9659 32.2071 -173.368
2.51524 26.2991 -115.92
3.94521 -12.2081 187.218
0.41123 -1.30151 127.193
4.7567 -12.3359 187.218
0.589275 -1.624 125.734
0.30258 -1.62162 126.542
9.7913 -19.936 113.705
3.03209 -11.3271 138.027
-3.55543 28.0502 -103.918
3.67276 -12.6479 141.216
3.29309 -10.9508 136.76
33.3708 17.3984 -183.318
6.01231 -11.4428 119.242
5.4287 -11.0283 135.25
19.283 -32.6916 -183.318
-18.0922 32.1657 -174.519
-31.1268 -14.1106 -84.3858
32.1872 17.7398 -183.318
0.49147 -1.0651 127.673
3.55206 -12.8427 120.836
-31.1268 -14.1106 -54.7597
2.85431 -11.2929 122.327
0.574653 -1.18481 127.602
3.26596 -10.7109 120.986
0.224156 -0.962794 127.462
0.221443 -0.957976 126.567
0.224156 -0.962794 127.462
19.3826 10.9014 9.51915
-0.32052 0.0235881 130.068
-0.32 0.0226475 130.068
-30.9026 -13.3217 -85.9234
-30.9304 -13.4194 -174.519
18.8447 -28.1651 -90.3663
-8.18166 -6.99753 122.726
-10.44 -6.46812 187.218
32.1842 17.7297 -174.519
-11.0778 -6.88343 187.218
32.2225 17.9823 -174.519
31.1716 14.2458 -174.519
19.1031 -27.276 -91.9964
-10.2343 -8.18039 187.218
-27.4782 -19.2028 -47.7099
-32.1877 -17.8443 54.3773
-32.1877 -17.8443 104.08
4.36891 -8.46708 123.215
4.61521 -8.91304 122.855
-32.1877 -17.8443 -183.318
-10.633 -5.6752 121.738
-9.78654 -5.21403 34.9347
-17.9659 32.2071 -103.918
31.9158 17.8181 -103.918
-1.9937 -0.902 115.873
-2.36957 -1.10874 128.413
31.9158 17.8181 -103.918
31.9066 17.8208 -1.39326
24.8057 -7.65615 -127.971
17.4574 -32.165 104.087
17.6647 -32.2248 -183.318
19.1031 -27.276 -165.15
-32.4942 -17.7559 104.08
-32.1008 -17.5385 104.397
32.2644 18.0054 -174.519
18.0712 -32.3335 -174.519
33.3708 17.3984 -176.919
-18.0142 32.0374 -53.1899
17.6647 -32.2248 -50.797
18.069 -32.3414 -174.519
-6.3687 -8.10898 136.131
19.283 -32.6916 -176.918
-9.04245 -8.31349 135.849
-0.320559 0.0233408 127.076
-1.95504 -0.88028 120.588
-31.6185 -13.2945 -183.318
-30.9331 -13.4291 -183.318
-31.6162 -13.286 -175.652
16.9133 -32.0081 -50.797
18.0434 -27.9397 -166.833
-0.747265 -3.51477 120.152
-18.0907 31.7679 -103.452
5  91 124 123 881 704  255 0 0
7  91 92 93 94 55 25 56  255 101 0
5  91 704 703 870 92  255 204 0
5  81 95 935 934 972  203 255 0
6  781 80 852 821 834 833  255 0 0
6  781 1167 876 873 1047 80  101 255 0
5  781 141 551 678 1167  101 255 0
5  81 972 671 670 96  203 255 0
6  91 56 1058 748 751 124  0 255 0
7  679 786 783 735 984 518 551  0 255 102
3  679 141 140  101 255 0
3  97 96 670  203 255 0
5  97 1040 98 85 82  0 255 102
4  679 140 784 786  0 255 102
5  97 670 562 561 1040  0 255 102
3  679 551 141  101 255 0
5  783 786 784 138 137  0 255 102
4  783 777 1163 735  0 255 102
13  88 83 1067 1034 909 1169 595 1102 922 776 137 136 135  0 255 102
4  88 89 39 58  255 101 0
5  782 1177 915 102 101  0 255 102
3  782 100 778  0 255 102
4  783 137 776 777  0 255 102
5  782 778 1072 1070 1177  0 255 102
3  782 101 100  0 255 102
4  781 833 816 141  255 0 0
5  83 87 1 0 1067  0 255 102
6  83 88 58 59 866 847  255 101 0
4  777 1180 1164 1163  0 255 102
13  778 936 916 1162 1113 735 1163 925 759 600 696 831 1072  0 255 102
4  777 776 1181 1180  0 255 102
6  776 922 924 625 627 1181  0 255 102
7  72 969 822 689 940 779 71  0 255 203
5  72 123 124 751 962  0 255 0
4  80 1047 599 852  255 0 0
5  72 73 1136 973 969  0 255 203
8  72 71 70 1194 852 599 881 123  255 0 0
4  79 139 784 140  0 255 102
7  137 138 139 785 1137 1141 995  255 0 0
4  73 122 693 74  255 0 0
4  79 585 785 139  255 0 0
7  1185 120 127 126 125 89 88  255 0 0
6  1185 995 1141 1088 1199 120  255 0 0
4  88 135 995 1185  255 0 0
4  137 995 135 136  255 0 0
6  81 1178 54 55 94 95  255 101 0
5  81 96 97 589 1178  255 101 0
8  129 29 25 55 800 996 743 1138  0 203 255
4  1178 1135 53 54  255 101 0
5  1178 589 1187 1189 1135  255 101 0
7  129 1138 1093 1108 1092 130 128  0 203 255
5  1182 1092 1108 1109 1041  0 203 255
6  1182 1158 28 37 130 1092  0 203 255
5  1182 1041 1156 677 1158  0 203 255
4  97 82 1057 589  255 101 0
4  79 140 810 585  255 0 0
5  73 74 692 807 1136  0 255 203
4  742 1186 99 100  255 101 0
6  100 99 1196 577 936 778  0 255 102
9  739 58 39 43 44 40 45 1174 1175  0 102 255
4  740 738 1036 1038  0 102 255
4  740 1175 1174 738  0 102 255
4  742 64 65 1186  255 101 0
5  100 101 49 64 742  255 101 0
8  740 1038 64 49 766 764 739 1175  0 102 255
4  99 1028 1021 1196  0 255 102
5  99 86 98 1040 1028  0 255 102
5  1186 65 42 86 99  255 101 0
6  738 1174 45 32 46 1036  0 102 255
6  1149 275 1011 274 652 862  0 0 255
5  1149 1048 160 151 275  0 0 255
8  1149 1150 237 19 142 187 319 1048  0 0 255
6  1181 627 629 920 1164 1180  0 255 102
5  1177 1070 1015 1127 915  0 255 102
6  129 986 749 748 964 29  0 255 0
4  129 128 756 986  0 255 0
5  73 72 962 754 959  0 255 0
5  73 959 1073 121 122  0 255 0
4  132 28 36 133  102 0 255
3  1171 134 45  0 255 0
4  132 133 582 1056  0 255 0
4  959 921 919 1073  0 255 0
4  1170 1120 923 1085  0 255 0
4  120 119 1120 1170  0 255 0
5  1171 1052 582 133 134  0 255 0
5  1171 45 40 44 1052  0 255 0
5  1170 1085 126 127 120  0 255 0
7  89 125 1129 1052 44 43 39  0 255 0
5  735 1113 1111 971 984  0 255 102
4  1164 920 925 1163  0 255 102
4  678 551 518 517  0 255 102
4  1167 619 618 876  101 255 0
4  678 517 516 676  0 255 102
5  1167 678 613 612 619  101 255 0
4  590 52 51 1100  0 203 255
4  41 48 1160 1153  0 203 255
8  41 65 64 1038 1036 46 47 48  0 102 255
4  590 1100 967 994  0 203 255
4  41 38 42 65  0 102 255
4  41 1153 1084 38  0 203 255
4  678 676 614 613  101 255 0
4  973 1136 807 806  0 255 203
6  120 1199 693 122 121 119  255 0 0
5  739 1148 888 59 58  0 102 255
4  83 847 845 87  255 101 0
7  101 102 103 104 760 63 49  255 101 0
4  739 764 765 1148  0 102 255
4  1162 916 917 1111  0 255 102
5  676 737 736 675 579  0 255 102
3  1162 1111 1113  0 255 102
3  676 516 737  0 255 102
5  1159 1156 1041 1109 1093  0 203 255
5  1159 571 26 27 677  0 203 255
4  1100 1091 1179 967  0 203 255
3  1159 677 1156  0 203 255
3  133 36 134  102 0 255
3  1158 36 28  0 203 255
4  1158 677 35 36  0 203 255
4  1153 1091 1197 1084  0 203 255
4  1153 1160 1179 1091  0 203 255
4  962 985 755 754  0 255 0
5  964 1058 56 25 29  102 0 255
4  132 131 37 28  102 0 255
3  964 748 1058  0 255 0
4  962 751 750 985  0 255 0
4  959 754 752 921  0 255 0
4  132 1056 484 131  0 255 0
4  595 1169 623 624  0 255 102
4  600 759 758 594  0 255 102
4  592 1168 710 709  0 0 255
4  592 1095 718 719  0 0 255
5  594 758 630 632 701  0 255 102
4  594 697 696 600  0 255 102
5  592 719 624 623 1168  0 0 255
5  595 624 625 924 1102  0 255 102
6  594 701 611 615 699 697  0 255 102
6  592 709 706 705 918 1095  0 0 255
5  590 994 1002 67 52  0 203 255
4  589 1057 1183 1187  255 101 0
5  585 1152 1151 1137 785  255 0 0
6  1141 1137 1151 76 75 1088  255 0 0
4  585 810 809 1152  255 0 0
4  125 126 1085 1129  0 255 0
4  1129 1085 923 1121  0 255 0
4  1129 1121 582 1052  0 255 0
4  1120 1073 919 923  0 255 0
4  119 121 1073 1120  0 255 0
6  1121 923 919 841 1056 582  0 255 0
5  1111 917 975 1106 971  0 255 102
4  705 905 904 918  0 0 255
3  1102 924 922  0 255 102
4  1095 918 912 718  0 0 255
4  599 1047 873 879  101 255 0
3  94 93 872  255 204 0
4  94 872 935 95  203 255 0
3  599 879 881  255 204 0
4  75 693 1199 1088  255 0 0
3  75 76 957  0 255 203
5  841 921 752 481 484  0 255 0
3  841 919 921  0 255 0
4  579 675 664 665  0 255 102
4  578 674 1018 672  0 255 102
4  577 1196 1021 1025  0 255 102
4  577 917 916 936  0 255 102
4  672 1018 947 946  0 255 102
4  672 671 981 1082  203 255 0
4  672 946 562 671  0 255 102
7  577 1025 1037 946 947 975 917  0 255 102
5  674 675 736 1105 1018  0 255 102
4  674 578 587 662  0 255 102
5  1018 1105 1106 975 947  0 255 102
4  705 706 1069 1078  204 0 255
6  915 642 645 763 103 102  0 255 102
6  1030 1157 1155 963 961 1161  204 0 255
6  705 424 702 9 757 905  0 0 255
4  915 1127 639 642  0 255 102
5  1030 711 638 640 1157  204 0 255
5  1030 1161 944 716 711  204 0 255
5  705 1078 1081 425 424  204 0 255
10  911 1173 621 620 734 1192 281 859 875 463  0 0 255
4  911 1048 319 1049  0 0 255
4  1015 832 635 636  0 255 102
17  911 1049 186 17 16 15 14 13 12 948 884 899 6 708 478 329 1173  0 0 255
4  1015 636 639 1127  0 255 102
4  48 47 1176 1160  0 203 255
3  1160 1176 1179  0 203 255
6  134 36 35 33 32 45  102 0 255
4  879 703 704 881  255 204 0
4  665 664 703 879  255 204 0
4  579 665 879 873  101 255 0
4  986 756 482 749  0 255 0
4  985 750 753 755  0 255 0
4  971 516 517 984  0 255 102
5  971 1106 1105 737 516  0 255 102
4  967 570 571 994  0 203 255
5  967 1179 1176 949 570  0 203 255
3  35 34 33  102 0 255
4  949 1176 47 46  0 203 255
4  570 949 33 34  0 203 255
4  69 74 693 75  255 0 0
5  69 780 943 692 74  0 255 203
4  75 957 780 69  0 255 203
4  1152 77 76 1151  255 0 0
4  77 1152 1194 70  255 0 0
4  76 77 780 957  0 255 203
4  872 870 662 587  255 204 0
4  578 935 872 587  203 255 0
4  949 46 32 33  0 203 255
4  946 1037 561 562  0 255 102
4  870 703 930 942  255 0 204
4  870 872 93 92  255 204 0
4  942 930 675 674  255 0 204
4  674 662 870 942  255 0 204
4  664 675 930 703  255 0 204
4  909 1034 1032 1074  0 255 102
5  909 1172 621 623 1169  0 255 102
7  911 463 193 194 320 160 1048  0 0 255
4  909 1074 889 1172  0 255 102
4  105 104 763 762  0 255 102
4  105 106 864 761  255 101 0
4  901 767 684 685  0 0 255
4  901 886 327 1133  0 0 255
5  902 690 485 686 688  0 0 255
3  902 636 635  0 0 255
6  901 1133 1115 646 645 767  0 0 255
4  105 762 867 106  0 255 102
5  902 688 684 639 636  0 0 255
4  901 685 695 886  0 0 255
4  751 748 481 752  0 255 0
6  1149 862 273 221 276 1150  0 0 255
4  105 761 760 104  255 101 0
5  1148 765 61 60 888  0 102 255
4  1070 830 832 1015  0 255 102
3  1056 841 484  0 255 0
4  1138 743 741 1132  0 203 255
4  1138 1132 1184 1093  0 203 255
4  1135 1189 68 53  255 101 0
4  1132 741 745 1184  0 203 255
4  1124 892 1114 1110  255 0 102
6  1122 1044 1042 894 892 1124  255 0 102
4  688 488 685 684  0 0 255
4  690 691 487 486  255 0 102
5  690 902 635 634 863  0 0 255
4  1122 1130 1128 1044  255 0 102
3  688 489 488  255 0 102
5  1124 1110 1112 1130 1122  255 0 102
3  690 486 485  255 0 102
5  688 686 1140 490 489  255 0 102
9  948 691 863 700 9 8 1013 906 884  0 0 255
4  948 12 10 271  0 0 255
4  886 1166 328 327  0 0 255
5  948 271 448 449 691  0 0 255
5  886 695 491 733 1166  0 0 255
3  1105 736 737  0 255 102
4  1100 51 66 1091  0 203 255
4  1060 51 52 1057  255 101 0
3  1060 66 51  255 101 0
4  1091 66 50 1197  0 203 255
4  1060 326 50 66  255 101 0
5  86 42 50 326 98  255 101 0
5  1197 50 42 38 1084  0 203 255
4  894 1042 1107 1116  255 0 102
6  685 488 489 494 300 496  255 0 102
6  695 495 428 1101 492 491  255 0 102
4  894 1116 1114 892  255 0 102
4  685 496 495 695  255 0 102
4  1072 831 830 1070  0 255 102
5  9 700 611 632 757  0 0 255
3  9 702 914  204 0 255
3  757 632 630  0 0 255
3  691 690 863  0 0 255
3  694 491 492  255 0 102
6  694 448 271 10 11 338  0 0 255
3  694 449 448  0 0 255
6  1044 1128 1131 1055 1107 1042  255 0 102
6  694 492 493 1142 1144 449  255 0 102
4  691 449 1144 487  255 0 102
4  1037 1025 1021 561  0 255 102
4  1040 561 1021 1028  0 255 102
3  1093 1109 1108  0 203 255
3  1159 744 571  0 203 255
5  1189 1187 1183 67 68  255 101 0
5  1184 745 744 1159 1093  0 203 255
4  997 53 68 1000  0 203 255
5  996 800 54 53 997  0 203 255
4  994 571 743 996  0 203 255
4  1000 68 67 1002  0 203 255
5  1002 994 996 997 1000  0 203 255
3  984 517 518  0 255 102
3  138 784 139  0 255 102
5  973 806 805 822 969  0 255 203
4  106 107 856 864  255 101 0
3  765 62 61  0 102 255
6  106 867 527 511 787 107  0 255 102
5  876 618 610 614 676  101 255 0
4  676 579 873 876  101 255 0
5  866 59 60 856 769  255 101 0
4  864 61 62 761  255 101 0
3  867 528 527  0 255 102
4  866 769 848 847  255 101 0
4  864 856 60 61  255 101 0
6  862 652 1080 272 222 273  0 0 255
6  107 108 109 848 769 856  255 101 0
6  855 965 576 465 510 647  0 0 255
5  855 245 246 530 529  0 0 255
5  107 787 114 113 108  0 255 102
3  855 647 245  0 0 255
4  852 1194 1193 821  255 0 0
4  839 756 128 130  0 255 0
4  839 483 482 756  0 255 0
6  130 37 131 484 483 839  0 255 0
4  832 699 634 635  0 255 102
4  830 697 699 832  0 255 102
4  831 696 697 830  0 255 102
4  821 803 818 834  255 0 0
4  822 805 687 689  0 255 203
4  821 1193 1195 803  255 0 0
4  810 803 1195 809  255 0 0
7  807 692 943 941 687 805 806  0 255 203
3  71 779 70  0 255 203
3  800 55 54  0 203 255
5  794 215 328 1166 1165  0 0 255
3  794 214 215  0 0 255
5  87 845 283 112 110  255 101 0
3  794 390 214  0 0 255
4  789 215 214 596  0 0 255
4  789 965 529 887  0 0 255
3  790 565 683  0 0 255
5  596 214 1023 601 567  0 0 255
5  789 683 565 576 965  0 0 255
3  790 566 565  0 0 255
5  790 683 789 596 566  0 0 255
4  788 768 747 746  255 101 0
5  115 116 649 768 788  255 101 0
4  787 511 510 114  0 255 102
5  115 114 510 465 346  0 0 255
4  115 788 746 114  255 101 0
5  1195 1193 1194 1152 809  255 0 0
4  934 933 976 972  203 255 0
5  672 1082 1090 933 934  203 255 0
4  77 70 779 780  0 255 203
3  774 500 302  255 0 102
3  774 256 166  255 0 102
4  775 494 336 555  255 0 102
4  775 631 1119 497  255 0 102
3  771 1007 553  255 0 102
3  771 163 165  255 0 102
6  773 333 247 433 156 335  255 0 102
3  773 360 337  255 0 102
3  772 1107 1055  255 0 102
5  772 505 498 164 553  255 0 102
6  770 504 178 368 1050 369  255 0 102
7  770 591 593 501 227 230 503  255 0 102
5  773 337 336 334 333  255 0 102
3  775 555 631  255 0 102
4  775 497 300 494  255 0 102
7  774 302 303 588 365 1035 256  255 0 102
6  771 165 166 256 998 1007  255 0 102
4  774 166 167 500  255 0 102
3  770 503 504  255 0 102
8  773 335 447 224 223 673 843 360  255 0 102
5  772 553 1007 1116 1107  255 0 102
4  771 553 164 163  255 0 102
3  770 369 591  255 0 102
5  109 84 110 112 111  255 101 0
4  109 108 113 111  0 255 102
5  117 118 958 286 285  255 101 0
4  117 285 649 116  255 101 0
5  768 649 285 284 747  255 101 0
4  109 111 284 848  255 101 0
6  112 118 521 648 548 651  0 0 255
5  112 283 287 958 118  255 101 0
3  104 103 763  0 255 102
4  767 642 639 684  0 0 255
3  766 49 63  0 102 255
3  767 645 642  0 0 255
5  766 63 62 765 764  0 102 255
4  763 645 646 762  0 255 102
4  761 62 63 760  255 101 0
5  762 646 246 528 867  0 255 102
4  759 925 920 758  0 255 102
4  758 920 629 630  0 255 102
5  757 630 629 904 905  0 0 255
4  755 753 752 754  0 255 0
4  753 750 751 752  0 255 0
4  481 748 749 482  0 255 0
6  747 284 111 113 114 746  255 101 0
5  745 741 743 571 744  0 203 255
4  647 511 527 245  0 255 102
4  245 527 528 246  0 255 102
4  1057 52 67 1183  255 101 0
10  1173 1043 868 479 707 814 840 1168 623 621  0 0 255
3  1172 620 621  0 255 102
6  1173 329 330 1045 869 1043  0 0 255
4  1172 889 609 620  0 255 102
3  1168 840 710  0 0 255
4  6 5 450 708  0 0 255
4  1166 733 661 1165  0 0 255
4  694 338 733 491  0 0 255
3  855 529 965  0 0 255
4  734 620 2 348  0 0 255
4  12 13 441 655  0 0 255
4  734 544 279 1192  0 0 255
5  794 1165 661 339 390  0 0 255
3  660 390 339  0 0 255
4  115 346 343 344  0 0 255
5  117 116 364 667 681  0 0 255
4  87 110 546 1  0 255 102
3  112 545 546  0 0 255
4  734 348 427 544  0 0 255
5  12 655 633 361 10  0 0 255
4  13 14 440 441  0 0 255
5  653 373 604 663 23  0 0 255
3  653 1026 608  0 0 255
5  1191 1046 280 269 268  0 0 255
7  653 23 22 20 19 237 1026  0 0 255
5  1191 548 648 558 1046  0 0 255
4  1192 279 278 281  0 0 255
5  1191 268 267 547 548  0 0 255
4  820 1017 1022 817  0 0 255
5  1161 961 713 715 944  204 0 255
4  9 914 913 8  204 0 255
4  6 7 910 460  204 0 255
4  6 460 1154 5  204 0 255
4  710 698 825 1071  204 0 255
4  709 1066 1069 706  204 0 255
4  1155 644 643 963  204 0 255
4  1157 640 644 1155  204 0 255
4  710 1071 1066 709  204 0 255
4  714 5 3 4  0 0 255
4  7 8 913 910  204 0 255
5  7 6 899 906 1013  0 0 255
6  963 643 641 717 713 961  204 0 255
7  714 4 907 422 583 580 1054  204 0 255
4  954 1066 1071 955  204 0 255
6  954 541 404 277 531 956  204 0 255
5  956 1078 1069 1066 954  204 0 255
5  956 531 379 537 953  204 0 255
5  955 1071 825 1054 952  204 0 255
4  955 539 541 954  204 0 255
5  583 422 423 1089 1075  204 0 255
4  583 849 854 581  204 0 255
4  953 537 536 945  204 0 255
4  953 1081 1078 956  204 0 255
3  952 1054 580  204 0 255
4  952 538 539 955  204 0 255
4  953 945 1089 1081  204 0 255
6  583 1075 945 536 532 849  204 0 255
6  952 580 849 532 533 538  204 0 255
3  700 615 611  0 0 255
4  700 863 634 615  0 0 255
3  945 1075 1089  204 0 255
3  8 7 1013  0 0 255
3  944 715 716  204 0 255
4  940 689 687 941  0 255 203
5  943 780 779 940 941  0 255 203
4  672 934 935 578  203 255 0
4  933 1090 980 976  203 255 0
3  918 904 912  0 0 255
4  718 625 624 719  0 0 255
4  904 629 627 908  0 0 255
4  908 627 625 718  0 0 255
4  912 904 908 718  0 0 255
4  733 338 11 661  0 0 255
5  887 1016 328 215 789  0 0 255
4  887 529 530 885  0 0 255
5  661 11 24 23 663  0 0 255
3  545 112 651  0 0 255
3  659 1198 682  0 0 255
3  659 345 347  0 0 255
4  84 109 680 897  0 255 102
5  659 682 344 343 345  0 0 255
5  84 897 550 546 110  0 255 102
3  646 1115 819  0 0 255
6  1115 1133 1031 1017 820 819  0 0 255
5  885 530 246 817 1022  0 0 255
4  885 1014 1016 887  0 0 255
6  885 1022 1017 1031 1033 1014  0 0 255
4  817 246 646 819  0 0 255
3  670 671 562  0 255 102
4  1082 981 980 1090  203 255 0
4  682 667 364 344  0 0 255
4  1198 668 667 682  0 0 255
9  1198 659 347 657 560 1076 557 669 668  0 0 255
7  519 681 667 668 544 427 1065  0 0 255
4  544 668 669 279  0 0 255
4  897 680 616 550  0 255 102
5  519 1065 1064 1 546  0 0 255
5  889 1074 1032 617 609  0 255 102
4  1064 348 2 0  0 0 255
4  1065 427 348 1064  0 0 255
4  1067 0 2 1034  0 255 102
3  1064 0 1  0 0 255
4  609 617 2 620  0 0 255
4  2 617 1032 1034  0 255 102
3  525 724 725  204 0 255
3  1024 844 846  204 0 255
4  1024 239 900 240  204 0 255
6  1019 238 239 1024 846 386  204 0 255
6  1019 380 379 534 383 384  204 0 255
6  732 542 426 725 717 641  204 0 255
5  732 643 644 728 729  204 0 255
4  637 726 712 808  204 0 255
5  637 515 512 291 295  204 0 255
4  731 383 382 535  204 0 255
5  731 802 798 238 903  204 0 255
6  730 293 514 170 1027 729  204 0 255
5  730 728 726 637 294  204 0 255
4  731 903 384 383  204 0 255
4  1019 384 903 238  204 0 255
5  731 535 243 244 802  204 0 255
4  637 808 543 515  204 0 255
3  732 641 643  204 0 255
4  525 725 426 865  204 0 255
3  730 729 728  204 0 255
4  732 729 1027 542  204 0 255
3  730 294 293  204 0 255
4  1024 240 1097 844  204 0 255
5  525 524 796 721 724  204 0 255
5  1019 386 385 381 380  204 0 255
5  555 358 359 842 631  255 0 102
4  998 256 1035 255  255 0 102
4  998 1114 1116 1007  255 0 102
5  998 255 622 1110 1114  255 0 102
5  671 972 976 980 981  203 255 0
3  888 60 59  0 102 255
3  884 906 899  0 0 255
3  699 615 634  0 255 102
5  283 845 847 848 284  255 101 0
5  840 814 452 698 710  0 0 255
4  834 818 816 833  255 0 0
6  141 816 818 803 810 140  255 0 0
4  814 707 451 452  0 0 255
5  714 452 451 450 5  0 0 255
4  714 1054 823 452  204 0 255
6  802 722 312 250 310 798  204 0 255
6  543 808 712 836 723 727  204 0 255
6  543 1117 410 1096 260 515  204 0 255
3  796 241 242  204 0 255
5  524 797 795 241 796  204 0 255
3  798 310 311  204 0 255
6  543 727 244 243 411 1117  204 0 255
5  802 244 727 723 722  204 0 255
7  798 311 242 241 801 239 238  204 0 255
6  796 242 311 310 720 721  204 0 255
4  728 644 640 726  204 0 255
4  726 640 638 712  204 0 255
4  724 713 717 725  204 0 255
4  720 310 250 249  204 0 255
4  720 716 715 721  204 0 255
3  722 835 312  204 0 255
4  723 836 835 722  204 0 255
4  721 715 713 724  204 0 255
5  720 249 829 711 716  204 0 255
3  554 333 334  255 0 102
5  554 490 493 1098 552  255 0 102
3  711 829 638  204 0 255
5  712 638 829 835 836  204 0 255
3  581 854 853  204 0 255
8  707 479 1045 330 478 708 450 451  0 0 255
3  701 632 611  0 255 102
4  631 842 628 626  255 0 102
6  658 345 343 346 465 466  0 0 255
5  658 655 441 560 657  0 0 255
5  658 466 572 633 655  0 0 255
3  565 575 576  0 0 255
4  115 344 364 116  0 0 255
4  681 519 118 117  0 0 255
4  680 109 111 616  0 255 102
3  35 677 27  0 203 255
4  35 27 26 34  102 0 255
5  673 227 228 502 628  255 0 102
5  628 842 359 843 673  255 0 102
6  628 502 586 352 366 626  255 0 102
6  503 224 155 445 181 504  255 0 102
4  503 230 223 224  255 0 102
4  673 223 230 227  255 0 102
8  648 939 549 313 201 200 559 558  0 0 255
4  669 557 895 282  0 0 255
6  23 24 574 573 257 357  0 0 255
4  604 373 371 602  0 0 255
7  195 374 654 851 211 1145 563  0 0 255
4  195 443 654 374  0 0 255
3  604 598 663  0 0 255
3  660 340 390  0 0 255
5  663 598 340 339 661  0 0 255
3  660 339 340  0 0 255
4  547 267 990 316  0 0 255
3  560 441 440  0 0 255
5  547 316 418 417 520  0 0 255
4  657 347 345 658  0 0 255
6  656 313 549 412 1146 1147  0 0 255
4  656 414 314 313  0 0 255
3  565 564 575  0 0 255
6  656 1147 1123 1126 342 414  0 0 255
4  443 357 257 850  0 0 255
4  575 466 465 576  0 0 255
3  564 877 258  0 0 255
3  575 572 466  0 0 255
4  654 443 850 851  0 0 255
6  564 258 257 573 572 575  0 0 255
5  652 605 1079 891 1080  0 0 255
5  650 273 222 219 232  0 0 255
7  650 1003 147 1005 220 221 273  0 0 255
7  653 608 1063 1061 1059 371 373  0 0 255
5  652 274 1010 606 605  0 0 255
3  195 563 196  0 0 255
4  650 232 231 1003  0 0 255
4  648 569 938 939  0 0 255
7  648 521 960 927 926 937 569  0 0 255
3  637 295 294  204 0 255
3  11 10 361  0 0 255
3  633 572 361  0 0 255
4  24 11 361 574  0 0 255
4  631 626 1118 1119  255 0 102
3  303 1119 1118  255 0 102
6  626 366 365 588 303 1118  255 0 102
6  622 352 229 593 1130 1112  255 0 102
4  255 365 352 622  255 0 102
4  619 612 610 618  101 255 0
4  614 610 612 613  101 255 0
3  607 1059 1061  0 0 255
3  608 898 1063  0 0 255
5  606 198 197 968 978  0 0 255
7  606 1010 152 151 321 1029 199  0 0 255
8  607 1062 826 205 203 977 993 1059  0 0 255
4  607 1061 896 1062  0 0 255
4  606 978 1079 605  0 0 255
3  198 606 199  0 0 255
6  602 371 372 568 601 1023  0 0 255
5  604 602 1023 1020 598  0 0 255
3  601 568 567  0 0 255
3  598 1020 340  0 0 255
3  596 567 566  0 0 255
4  591 1128 1130 593  255 0 102
4  586 502 228 229  255 0 102
4  369 1131 1128 591  255 0 102
3  586 229 352  255 0 102
4  593 229 228 501  255 0 102
4  1131 369 1050 1055  255 0 102
3  622 1112 1110  255 0 102
5  1101 428 430 552 1098  255 0 102
4  1098 493 492 1101  255 0 102
5  772 1053 1051 367 505  255 0 102
3  772 1055 1053  255 0 102
4  1089 423 425 1081  204 0 255
4  583 581 853 580  204 0 255
5  1060 1057 82 85 326  255 101 0
4  1046 1029 556 280  0 0 255
4  1049 319 187 186  0 0 255
4  1046 558 559 1029  0 0 255
4  669 282 278 279  0 0 255
6  1029 321 320 194 462 556  0 0 255
6  1026 148 147 1003 898 608  0 0 255
5  17 186 187 142 18  0 0 255
4  464 838 837 192  0 0 255
3  462 280 556  0 0 255
4  462 194 193 880  0 0 255
7  1026 237 1150 276 220 1005 148  0 0 255
7  17 508 307 161 322 235 16  0 0 255
6  462 882 883 860 857 280  0 0 255
5  17 18 144 354 508  0 0 255
4  1014 327 328 1016  0 0 255
3  1014 1033 327  0 0 255
3  525 865 526  204 0 255
5  480 263 431 432 1188  204 0 255
5  1004 979 970 992 1006  204 0 255
6  1006 992 1009 799 1190 459  204 0 255
6  1004 1188 432 1001 455 979  204 0 255
3  526 459 1190  204 0 255
5  480 1188 459 526 865  204 0 255
4  1006 459 1188 1004  204 0 255
3  991 799 1009  204 0 255
7  540 861 791 471 420 399 533  204 0 255
5  540 532 536 381 437  204 0 255
4  540 217 216 861  204 0 255
4  992 970 999 1009  204 0 255
4  991 1009 999 974  204 0 255
6  861 456 454 792 793 472  204 0 255
11  472 793 469 1086 467 296 475 477 470 804 812  204 0 255
5  439 457 456 861 216  204 0 255
3  439 216 217  204 0 255
4  966 456 457 974  204 0 255
3  469 793 792  204 0 255
3  469 431 1086  204 0 255
4  469 458 432 431  204 0 255
3  966 454 456  204 0 255
5  979 455 453 999 970  204 0 255
5  974 999 453 454 966  204 0 255
3  469 792 458  204 0 255
4  361 572 573 574  0 0 255
4  571 570 34 26  0 203 255
3  197 196 968  0 0 255
3  569 937 938  0 0 255
3  568 815 362  0 0 255
7  568 362 874 564 565 566 567  0 0 255
6  563 1145 210 1139 370 196  0 0 255
3  19 18 142  0 0 255
4  19 356 144 18  0 0 255
4  19 20 252 356  0 0 255
5  195 201 318 442 443  0 0 255
4  23 357 253 22  0 0 255
5  14 15 235 322 440  0 0 255
3  22 21 20  0 0 255
6  560 440 322 309 1068 1076  0 0 255
6  22 253 254 353 234 21  0 0 255
4  557 1076 1068 895  0 0 255
4  282 878 871 278  0 0 255
6  282 895 1068 309 951 878  0 0 255
5  552 461 247 333 554  255 0 102
7  523 428 495 298 301 377 325  255 0 102
6  523 324 323 434 461 430  255 0 102
6  554 334 336 494 489 490  255 0 102
4  555 336 337 358  255 0 102
3  523 325 324  255 0 102
3  552 430 461  255 0 102
3  549 939 412  0 0 255
6  548 547 520 519 546 651  0 0 255
3  546 545 651  0 0 255
4  388 267 270 389  0 0 255
4  520 417 416 521  0 0 255
4  542 262 261 476  204 0 255
8  514 259 190 191 409 397 171 170  204 0 255
4  514 293 292 513  204 0 255
4  515 260 174 175  204 0 255
4  514 168 169 259  204 0 255
7  542 1027 171 397 473 265 262  204 0 255
5  538 399 398 402 539  204 0 255
4  539 402 403 541  204 0 255
3  541 403 404  204 0 255
4  243 535 382 406  204 0 255
7  243 406 157 158 1096 410 411  204 0 255
3  538 533 399  204 0 255
3  540 533 532  204 0 255
4  537 380 381 536  204 0 255
5  534 531 277 406 382  204 0 255
3  534 379 531  204 0 255
3  537 379 380  204 0 255
3  534 382 383  204 0 255
3  406 277 157  204 0 255
5  277 404 403 407 157  204 0 255
3  511 647 510  0 255 102
5  526 1190 799 797 524  204 0 255
3  525 526 524  204 0 255
4  240 797 799 991  204 0 255
3  523 429 428  255 0 102
3  523 430 429  255 0 102
5  521 416 929 928 960  0 0 255
4  522 180 177 176  255 0 102
6  505 179 226 225 207 498  255 0 102
4  504 181 180 522  255 0 102
5  505 367 176 177 179  255 0 102
4  522 176 178 504  255 0 102
4  521 118 519 520  0 0 255
4  513 292 291 512  204 0 255
6  515 175 168 514 513 512  204 0 255
5  509 356 252 253 442  0 0 255
5  509 185 184 349 890  0 0 255
5  442 318 506 185 509  0 0 255
4  442 253 357 443  0 0 255
5  509 890 143 144 356  0 0 255
5  508 354 355 308 307  0 0 255
5  389 270 857 860 350  0 0 255
6  507 188 189 871 878 951  0 0 255
5  507 951 309 162 305  0 0 255
4  507 305 838 188  0 0 255
3  506 184 185  0 0 255
8  318 317 989 389 350 349 184 506  0 0 255
3  498 207 206  255 0 102
3  501 228 227  255 0 102
5  500 375 290 289 302  255 0 102
6  302 289 378 497 1119 303  255 0 102
5  499 163 164 498 206  255 0 102
5  499 376 1134 209 208  255 0 102
6  499 208 167 166 165 163  255 0 102
6  500 167 209 1134 1094 375  255 0 102
6  499 206 207 225 288 376  255 0 102
7  497 378 290 375 1087 1083 300  255 0 102
4  496 299 298 495  255 0 102
4  496 300 1083 299  255 0 102
4  490 1140 1142 493  255 0 102
4  487 1142 1140 486  255 0 102
4  486 1140 686 485  255 0 102
3  487 1144 1142  255 0 102
4  484 481 482 483  0 255 0
5  480 476 261 264 263  204 0 255
4  479 868 869 1045  0 0 255
3  478 330 329  0 0 255
3  399 420 400  204 0 255
3  477 475 474  204 0 255
6  477 474 468 401 395 470  204 0 255
3  396 401 468  204 0 255
3  473 266 265  204 0 255
5  475 296 297 468 474  204 0 255
6  396 468 297 261 266 473  204 0 255
3  395 392 811  204 0 255
5  471 811 392 400 420  204 0 255
4  472 812 421 233  204 0 255
4  471 233 421 811  204 0 255
5  395 811 421 804 470  204 0 255
3  467 297 296  204 0 255
3  467 1086 297  204 0 255
6  463 875 189 188 838 464  0 0 255
4  464 192 193 463  0 0 255
3  462 880 882  0 0 255
4  461 434 248 247  255 0 102
4  1154 460 910 422  204 0 255
4  422 910 913 423  204 0 255
3  3 907 4  204 0 255
5  1154 422 907 3 5  204 0 255
3  958 287 286  255 101 0
3  960 928 927  0 0 255
4  224 447 156 155  255 0 102
4  322 161 162 309  0 0 255
3  143 354 144  0 0 255
4  143 890 349 387  0 0 255
5  387 349 183 182 192  0 0 255
3  143 355 354  0 0 255
6  143 387 304 306 308 355  0 0 255
4  950 1139 210 1143  0 0 255
3  564 874 877  0 0 255
4  950 1143 874 362  0 0 255
5  112 546 550 616 111  0 0 255
4  415 412 932 931  0 0 255
4  415 931 929 416  0 0 255
6  412 939 938 937 926 932  0 0 255
6  932 926 927 928 929 931  0 0 255
4  914 425 423 913  204 0 255
4  702 424 425 914  204 0 255
4  1031 1133 327 1033  0 0 255
5  439 217 540 437 436  204 0 255
6  974 457 439 436 438 1097  204 0 255
4  991 974 1097 240  204 0 255
3  1027 170 171  204 0 255
6  1096 158 407 403 988 1099  204 0 255
6  1104 393 391 394 405 191  204 0 255
7  1104 190 259 169 172 173 408  204 0 255
3  1117 411 410  204 0 255
6  1096 159 173 172 174 260  204 0 255
3  1104 191 190  204 0 255
4  397 409 405 394  204 0 255
4  1099 988 987 1103  204 0 255
5  1103 987 402 393 1104  204 0 255
7  1104 408 173 159 1096 1099 1103  204 0 255
3  431 263 264  204 0 255
5  431 264 261 297 1086  204 0 255
4  254 251 236 353  0 0 255
3  1061 1063 896  0 0 255
5  1059 993 813 372 371  0 0 255
4  825 698 452 823  204 0 255
3  1054 825 823  204 0 255
3  1043 869 868  0 0 255
5  1023 214 390 340 1020  0 0 255
3  458 1001 432  204 0 255
5  792 454 453 1001 458  204 0 255
3  1001 453 455  204 0 255
4  402 987 988 403  204 0 255
3  977 813 993  0 0 255
4  568 372 813 815  0 0 255
6  977 202 212 1039 363 813  0 0 255
4  950 362 363 1039  0 0 255
6  196 370 213 212 982 968  0 0 255
4  877 211 851 258  0 0 255
5  874 1143 210 211 877  0 0 255
4  258 851 850 257  0 0 255
4  480 865 426 476  204 0 255
3  542 476 426  204 0 255
4  861 472 233 791  204 0 255
3  471 791 233  204 0 255
4  854 849 580 853  204 0 255
5  843 359 358 337 360  255 0 102
4  835 829 249 312  204 0 255
3  312 249 250  204 0 255
3  820 817 819  0 0 255
3  812 804 421  204 0 255
3  447 335 156  255 0 102
3  433 155 156  255 0 102
3  433 247 248  255 0 102
5  434 445 155 433 248  255 0 102
4  435 446 331 323  255 0 102
4  435 324 325 377  255 0 102
4  434 323 331 445  255 0 102
3  435 323 324  255 0 102
5  444 180 181 445 332  255 0 102
6  446 226 179 177 180 444  255 0 102
5  446 435 377 225 226  255 0 102
4  446 444 332 331  255 0 102
3  445 331 332  255 0 102
4  385 844 1097 438  204 0 255
4  438 437 381 385  204 0 255
3  438 436 437  204 0 255
3  430 428 429  255 0 102
3  267 388 990  0 0 255
5  412 415 419 315 413  0 0 255
4  418 316 315 419  0 0 255
5  419 415 416 417 418  0 0 255
3  413 315 314  0 0 255
7  414 342 341 1146 412 413 314  0 0 255
3  409 191 405  204 0 255
3  407 158 157  204 0 255
4  398 391 393 402  204 0 255
5  401 396 397 394 395  204 0 255
4  392 395 394 391  204 0 255
4  400 392 391 398  204 0 255
3  399 400 398  204 0 255
4  317 316 990 989  0 0 255
4  389 989 990 388  0 0 255
6  192 182 351 882 880 193  0 0 255
4  387 192 837 304  0 0 255
4  386 846 844 385  204 0 255
3  378 289 290  255 0 102
6  376 298 299 1087 1094 1134  255 0 102
4  376 288 301 298  255 0 102
4  377 301 288 225  255 0 102
3  375 1094 1087  255 0 102
5  370 1139 950 1039 213  0 0 255
4  368 178 176 367  255 0 102
4  368 367 1051 1050  255 0 102
3  365 255 1035  255 0 102
3  366 352 365  255 0 102
6  21 234 236 251 252 20  0 0 255
3  353 236 234  0 0 255
3  351 182 183  0 0 255
3  351 883 882  0 0 255
6  351 183 349 350 860 883  0 0 255
4  342 1126 1125 341  0 0 255
5  341 1125 1123 1147 1146  0 0 255
3  98 326 85  255 101 0
3  16 235 15  0 0 255
4  321 151 160 320  0 0 255
7  201 313 314 315 316 317 318  0 0 255
3  307 162 161  0 0 255
4  308 306 162 307  0 0 255
4  306 304 305 162  0 0 255
3  299 1083 1087  255 0 102
5  295 291 292 293 294  204 0 255
5  287 283 284 285 286  255 101 0
5  281 278 871 189 859  0 0 255
4  280 857 858 269  0 0 255
4  275 151 152 1011  0 0 255
3  272 1080 1077  0 0 255
3  272 219 222  0 0 255
3  276 221 220  0 0 255
4  274 1011 152 1010  0 0 255
5  272 1077 893 218 219  0 0 255
3  270 858 857  0 0 255
5  270 267 268 269 858  0 0 255
4  266 261 262 265  204 0 255
4  254 253 252 251  0 0 255
3  241 795 801  204 0 255
4  240 900 795 797  204 0 255
4  239 801 795 900  204 0 255
3  1145 211 210  0 0 255
3  167 208 209  255 0 102
3  1126 1123 1125  0 0 255
6  983 205 204 824 154 978  0 0 255
4  978 154 150 153  0 0 255
4  1080 891 893 1077  0 0 255
6  1079 978 153 1012 893 891  0 0 255
5  898 1003 231 145 828  0 0 255
4  893 1012 149 218  0 0 255
3  1062 827 826  0 0 255
6  898 828 827 1062 896 1063  0 0 255
4  1055 1050 1051 1053  255 0 102
3  982 212 202  0 0 255
3  1039 212 213  0 0 255
3  396 473 397  204 0 255
4  559 200 199 1029  0 0 255
3  1008 218 149  0 0 255
3  1008 145 231  0 0 255
4  1012 153 150 149  0 0 255
7  1008 149 150 154 824 146 145  0 0 255
5  1008 231 232 219 218  0 0 255
3  1005 147 148  0 0 255
3  983 203 205  0 0 255
6  983 978 968 982 202 203  0 0 255
3  977 203 202  0 0 255
3  875 859 189  0 0 255
4  304 837 838 305  0 0 255
3  828 145 146  0 0 255
3  826 204 205  0 0 255
6  828 146 824 204 826 827  0 0 255
4  815 813 363 362  0 0 255
7  201 195 196 197 198 199 200  0 0 255
4  174 169 168 175  204 0 255
3  174 172 169  204 0 255
3  140 141 79  101 255 0
3  141 140 79  255 0 0
8  139 79 89 88 135 136 137 138  0 255 102
8  79 139 138 137 136 135 88 89  255 0 0
10  43 39 57 131 132 133 134 45 40 44  102 0 255
5  89 39 57 90 666  0 255 0
10  43 44 40 45 134 133 132 131 57 39  0 255 0
5  130 37 29 129 128  0 203 255
7  131 37 29 964 1058 56 57  0 255 0
5  130 128 129 29 37  0 255 0
7  964 29 37 131 57 56 1058  102 0 255
4  91 56 57 90  255 101 0
6  704 91 90 597 599 881  255 204 0
6  91 704 881 599 597 90  255 0 0
5  1047 599 597 78 80  101 255 0
5  599 1047 80 78 597  255 0 0
4  781 80 78 141  101 255 0
4  80 781 141 78  255 0 0
3  79 141 78  101 255 0
3  141 79 78  255 0 0
4  89 79 603 666  0 255 102
4  79 89 666 603  255 0 0
4  90 57 56 91  0 255 0
4  90 597 603 666  255 0 0
5  90 57 39 89 666  255 101 0
4  90 666 603 597  255 204 0
15  127 120 119 121 122 73 72 123 124 91 90 666 89 125 126  255 0 0
15  120 127 126 125 89 666 90 91 124 123 72 73 122 121 119  0 255 0
8  118 112 111 113 114 115 116 117  0 0 255
8  112 118 117 116 115 114 113 111  255 101 0
4  110 87 83 84  0 255 102
4  87 110 84 83  255 101 0
13  109 84 86 99 100 101 102 103 104 105 106 107 108  0 255 102
13  84 109 108 107 106 105 104 103 102 101 100 99 86  255 101 0
4  98 86 84 85  0 255 102
4  86 98 85 84  255 101 0
8  82 85 84 83 88 89 666 584  0 255 102
8  85 82 584 666 89 88 83 84  255 101 0
4  97 82 81 96  203 255 0
4  82 97 96 81  255 101 0
5  95 81 82 584 94  203 255 0
5  81 95 94 584 82  255 101 0
7  93 94 584 666 90 91 92  255 204 0
7  94 93 92 91 90 666 584  255 101 0
4  78 597 603 79  101 255 0
4  78 79 603 597  255 0 0
5  77 70 69 75 76  255 0 0
5  70 77 76 75 69  0 255 203
6  74 69 70 71 72 73  255 0 0
6  69 74 73 72 71 70  0 255 203
4  68 53 52 67  0 203 255
4  53 68 67 52  255 101 0
9  51 52 53 54 55 25 30 42 50  0 203 255
9  52 51 50 42 30 25 55 54 53  255 101 0
3  66 51 50  0 203 255
3  51 66 50  255 101 0
4  65 42 49 64  0 102 255
4  42 65 64 49  255 101 0
10  63 49 42 30 39 58 59 60 61 62  0 102 255
10  49 63 62 61 60 59 58 39 30 42  255 101 0
5  57 39 30 25 56  102 0 255
5  39 57 56 25 30  255 101 0
7  48 41 38 31 32 46 47  0 203 255
7  41 48 47 46 32 31 38  0 102 255
3  45 32 40  102 0 255
3  32 45 40  0 102 255
6  44 40 32 31 39 43  102 0 255
6  40 44 43 39 31 32  0 102 255
4  42 30 31 38  0 203 255
3  39 30 31  0 102 255
4  42 38 31 30  0 102 255
3  39 31 30  102 0 255
6  37 29 25 26 27 28  102 0 255
6  29 37 28 27 26 25  0 203 255
4  36 28 27 35  102 0 255
4  28 36 35 27  0 203 255
7  34 26 25 30 31 32 33  102 0 255
7  26 34 33 32 31 30 25  0 203 255
15  24 11 10 12 13 14 15 16 17 18 19 20 21 22 23  0 0 255
15  11 24 23 22 21 20 19 18 17 16 15 14 13 12 10  0 0 255
6  8 9 3 5 6 7  0 0 255
6  9 8 7 6 5 3  204 0 255
6  4 3 9 698 452 714  0 0 255
6  3 4 714 452 698 9  204 0 255
8  710 698 9 702 424 705 706 709  0 0 255
8  698 710 709 706 705 424 702 9  204 0 255
11  488 688 686 485 690 691 449 694 491 695 685  0 0 255
11  688 488 685 695 491 694 449 691 690 485 686  255 0 102
7  82 97 670 671 672 578 587  203 255 0
7  97 82 587 578 672 671 670  0 255 102
3  666 584 587  255 204 0
3  82 584 587  0 255 102
3  79 603 665  101 255 0
3  666 603 665  0 255 102
8  140 79 665 579 676 678 551 679  101 255 0
8  79 140 679 551 678 676 579 665  0 255 102
3  664 665 666  255 204 0
3  665 664 666  0 255 102
4  675 664 662 674  255 0 204
4  664 675 674 662  0 255 102
4  587 662 664 666  255 204 0
4  662 587 666 664  0 255 102
3  82 587 584  203 255 0
3  666 665 603  255 204 0
3  666 587 584  0 255 102
3  79 665 603  0 255 102
8  546 1 617 609 611 615 616 550  0 0 255
8  1 546 550 616 615 611 609 617  0 255 102
16  111 616 615 634 635 636 639 642 645 646 246 245 647 510 114 113  0 0 255
16  616 111 113 114 510 647 245 246 646 645 642 639 636 635 634 615  0 255 102
11  632 611 609 620 621 623 624 625 627 629 630  0 0 255
11  611 632 630 629 627 625 624 623 621 620 609  0 255 102
4  2 617 1 0  0 0 255
4  617 2 0 1  0 255 102
5  603 665 879 599 597  255 204 0
5  665 603 597 599 879  101 255 0
4  664 662 870 703  255 204 0
4  662 664 703 870  255 0 204
4  587 584 94 872  255 204 0
4  584 587 872 94  203 255 0

