COFF
222 416 0

-32.48 -17.76 104.081
17.44 -32.16 104.081
4.4 -8.48 123.218
-8.8 -4.64 123.218
17.44 -32.16 -1.3185
31.84 17.84 -1.3185
-0.32 4.76837e-07 26.6815
31.84 17.84 -103.919
-18.08 32.24 -103.919
-0.32 4.76837e-07 -77.3185
-18.08 32.24 -53.3185
-32.48 -17.76 -53.3185
-0.32 4.76837e-07 -25.3185
17.44 -32.16 -174.519
31.84 17.84 -174.519
-0.32 4.76837e-07 -174.519
-18.08 32.24 -174.519
-32.48 -17.76 -174.519
-0.32 4.76837e-07 116.935
-10.24 -8.24 183.218
-11.04 -7.76 183.218
-11.68 -8.24 117.971
-10.16 -9.04 117.971
-9.6 -7.6 183.218
-8.96 -7.84 117.971
-9.76 -6.8 183.218
-9.2 -6.4 117.971
-10.48 -6.4 183.218
-10.56 -5.68 117.971
-11.12 -6.88 183.218
-11.84 -6.48 117.971
30.72 12.56 -183.218
31.92 12.24 -183.218
31.92 12.24 -176.919
30.72 12.64 -174.519
30.72 12.56 -174.519
33.36 17.36 -183.218
33.36 17.36 -176.919
32.16 17.76 -183.218
32.16 17.76 -174.519
32.56 19.04 -183.218
32.56 19.04 -176.919
32.08 17.76 -174.519
27.6 20.48 -183.218
27.6 20.48 -176.919
27.2 19.2 -183.218
27.2 19.2 -174.519
27.12 19.2 -174.519
-12.88 30.48 -174.519
-12.88 30.48 -183.218
-12.48 31.84 -183.218
-12.48 31.84 -176.919
-12.8 30.56 -174.519
-17.44 33.28 -183.218
-17.44 33.28 -176.919
-17.92 32 -183.218
-17.92 32 -174.519
-17.76 32.08 -174.519
-19.2 32.24 -183.218
-19.2 32.24 -176.919
-18.16 32 -174.519
-20.64 26.96 -183.218
-20.64 26.96 -176.919
-19.52 26.64 -183.218
-19.52 26.64 -174.519
-19.68 26.72 -174.519
-27.2 -0.159999 -174.519
-27.2 -0.159999 -183.218
-30.88 -13.44 -174.519
-30.88 -13.44 -183.218
-32.08 -13.2 -183.218
-32.08 -13.2 -176.919
-31.2 -13.36 -174.519
-33.36 -17.76 -183.218
-33.36 -17.76 -176.919
-32.4 -18 -183.218
-32.4 -18 -174.519
-32.48 -17.92 -174.519
-32.88 -19.6 -183.218
-32.88 -19.6 -176.919
-32.4 -17.92 -174.519
-28 -20.88 -183.218
-28 -20.88 -176.919
-26.4 -15.44 -183.218
-26.4 -15.44 -174.519
-27.52 -19.28 -174.519
-13.6 -19.04 -174.519
-13.6 -19.04 -183.218
-14.48 -21.92 -174.519
-14.48 -21.92 -183.218
0.639999 -26.24 -174.519
0.639999 -26.24 -183.218
1.44 -23.28 -174.519
1.44 -23.28 -183.218
13.92 -26.8 -174.519
13.92 -26.8 -183.218
12.56 -32.16 -183.218
12.56 -32.16 -176.919
12.88 -30.88 -174.519
16.56 -33.28 -183.218
16.56 -33.28 -176.919
16.96 -31.84 -183.218
16.96 -31.84 -174.519
16.88 -32 -174.519
19.04 -32.4 -183.218
19.04 -32.4 -176.919
17.68 -32.08 -174.519
20.48 -27.6 -183.218
20.48 -27.6 -176.919
19.12 -27.28 -183.218
19.12 -27.28 -174.519
19.12 -27.2 -174.519
26.96 -0.159999 -174.519
26.96 -0.159999 -183.218
4.8 -12.4 182.401
3.92 -12.24 182.401
3.52 -12.88 117.153
5.12 -13.12 117.153
5.2 -11.6 182.401
5.92 -11.68 117.153
4.88 -10.88 182.401
5.28 -10.32 117.153
4 -10.8 182.401
3.68 -10.08 117.153
3.52 -11.44 182.401
2.8 -11.28 117.153
-9.76 -6.96 136.125
-0.240002 -0.239999 129.636
-6.25849e-07 0.64 128.649
-11.2 -7.36 136.27
-8.64 -7.04 135.411
-0.64 -1.36 129.94
-8.88 -7.44 134.841
-0.72 -1.68 129.256
-10.32 -7.84 134.986
-0.48 -0.800001 128.269
-11.44 -7.76 135.7
-0.16 0.32 127.965
3.92 -10.88 136.035
4.88 -11.92 136.163
2.88 -10.32 135.335
2.88 -10.88 134.764
3.84 -11.92 134.892
4.88 -12.48 135.592
-0.960002 -0.159999 116.936
-0.960002 -0.159999 128.693
-0.64 4.76837e-07 128.695
-0.64 0.0800004 116.937
-0.960002 -0.559999 116.934
-0.960002 -0.559999 128.691
-0.64 -0.719999 116.932
-0.64 -0.800001 128.69
-0.32 -0.559999 116.934
-0.32 -0.559999 128.691
-0.32 -0.159999 116.936
-0.32 -0.159999 128.693
-7.04 -4.96 123.454
-8.08 -5.6 122.308
-7.52 -5.68 121.83
-6.48 -5.04 122.975
-7.44 -4.32 123.455
-8.48 -5.04 122.308
-7.28 -3.76 122.976
-8.32 -4.48 121.83
-6.72 -3.84 122.496
-7.76 -4.56 121.351
-6.32 -4.48 122.495
-7.36 -5.12 121.351
-6 -4.24 124.595
-5.44 -4.32 124.111
-6.4 -3.6 124.598
-6.24 -3.12 124.116
-5.68 -3.12 123.632
-5.28 -3.76 123.63
-4.88 -3.6 125.725
-4.32 -3.68 125.234
-5.28 -2.96 125.73
-5.2 -2.4 125.244
-4.64 -2.48 124.753
-4.16 -3.12 124.748
-3.84 -2.88 126.835
-3.28 -2.96 126.334
-4.24 -2.24 126.844
-4.08 -1.68 126.352
-3.52 -1.84 125.851
-3.12 -2.4 125.842
-2.72 -2.24 127.92
-2.16 -2.32 127.406
-3.12 -1.6 127.934
-2.96 -1.04 127.434
-2.4 -1.12 126.921
-2 -1.76 126.907
-1.52 -1.52 128.971
-1.04 -1.6 128.443
-1.92 -0.880001 128.991
-1.76 -0.319999 128.483
-1.28 -0.479999 127.955
-0.88 -1.12 127.935
-0.32 -0.800001 129.979
-0.560002 -1.36 128.822
-6.25849e-07 0.24 130.622
0.159999 0.8 130.108
-0.0800025 0.24 128.951
-0.400002 -0.800001 128.308
3.52 -9.36 121.89
2.96 -9.2 121.42
4.16 -9.04 121.849
4.24 -8.48 121.338
3.76 -8.32 120.869
3.04 -8.64 120.91
-0.400002 -0.159999 116.936
-0.400002 -0.159999 128.693
-0.0800025 4.76837e-07 128.695
-0.0800025 0.0800004 116.937
-0.400002 -0.559999 116.934
-0.400002 -0.559999 128.691
-0.0800025 -0.719999 116.932
-0.0800025 -0.800001 128.69
0.240001 -0.559999 116.934
0.240001 -0.559999 128.691
0.240001 -0.159999 116.936
0.240001 -0.159999 128.693
3  0 1 2  50 205 50
3  2 3 0  50 205 50
3  4 5 6  255 20 147
3  7 8 9  176 196 222
3  10 11 12  72 61 139
3  13 14 5  0 0 255
3  5 4 13  0 0 255
3  14 15 6  128 128 255
3  6 5 14  128 128 255
3  15 13 4  0 0 255
3  4 6 15  0 0 255
3  16 17 11  255 20 147
3  11 10 16  255 20 147
3  17 15 12  128 128 255
3  12 11 17  128 128 255
3  15 16 10  0 0 255
3  10 12 15  0 0 255
3  14 16 8  64 0 128
3  8 7 14  64 0 128
3  16 15 9  0 0 255
3  9 8 16  0 0 255
3  15 14 7  128 128 255
3  7 9 15  128 128 255
3  17 13 1  128 128 0
3  1 0 17  128 128 0
3  13 15 18  0 0 255
3  13 18 2  0 0 255
3  13 2 1  0 0 255
3  15 17 0  128 128 255
3  15 0 3  128 128 255
3  15 3 18  128 128 255
3  2 18 3  240 128 128
3  19 20 21  128 255 128
3  21 22 19  128 255 128
3  23 19 22  255 128 0
3  22 24 23  255 128 0
3  25 23 24  255 128 255
3  24 26 25  255 128 255
3  27 25 26  255 240 245
3  26 28 27  255 240 245
3  29 27 28  255 64 255
3  28 30 29  255 64 255
3  20 29 30  64 255 255
3  30 21 20  64 255 255
3  30 28 26  64 255 128
3  30 26 24  64 255 128
3  21 30 24  64 255 128
3  21 24 22  64 255 128
3  20 19 23  100 100 100
3  25 27 29  100 100 100
3  23 25 29  100 100 100
3  20 23 29  100 100 100
3  31 32 33  128 255 64
3  31 33 34  128 255 64
3  31 34 35  100 100 100
3  36 37 33  255 255 64
3  33 32 36  255 255 64
3  36 38 39  72 61 139
3  36 39 37  72 61 139
3  38 40 41  0 128 128
3  38 41 42  0 128 128
3  38 42 39  72 61 139
3  43 44 41  64 255 255
3  41 40 43  64 255 255
3  43 45 46  192 192 0
3  46 47 44  100 100 100
3  43 46 44  192 192 0
3  48 46 45  64 0 128
3  45 49 48  64 0 128
3  49 50 51  128 64 255
3  49 51 52  128 64 255
3  49 52 48  100 100 100
3  53 54 51  64 255 255
3  51 50 53  64 255 255
3  53 55 56  128 128 255
3  56 57 54  100 100 100
3  53 56 54  128 128 255
3  55 58 59  0 255 255
3  55 59 60  0 255 255
3  55 60 56  0 255 255
3  61 62 59  192 0 192
3  59 58 61  192 0 192
3  61 63 64  0 0 192
3  64 65 62  0 0 192
3  61 64 62  0 0 192
3  66 64 63  255 20 147
3  63 67 66  255 20 147
3  68 66 67  255 20 147
3  67 69 68  255 20 147
3  69 70 71  255 64 64
3  69 71 72  255 64 64
3  69 72 68  255 64 64
3  73 74 71  0 192 192
3  71 70 73  0 192 192
3  73 75 76  240 128 128
3  76 77 74  100 100 100
3  73 76 74  240 128 128
3  75 78 79  255 20 147
3  75 79 80  255 20 147
3  75 80 76  255 20 147
3  81 82 79  255 64 128
3  79 78 81  255 64 128
3  81 83 84  173 216 230
3  84 85 82  173 216 230
3  81 84 82  173 216 230
3  86 84 83  123 104 238
3  83 87 86  123 104 238
3  88 86 87  176 196 222
3  87 89 88  176 196 222
3  90 88 89  128 64 0
3  89 91 90  128 64 0
3  92 90 91  192 0 0
3  91 93 92  192 0 0
3  94 92 93  123 104 238
3  93 95 94  123 104 238
3  95 96 97  255 255 64
3  95 97 98  255 255 64
3  95 98 94  255 255 64
3  99 100 97  64 128 255
3  97 96 99  64 128 255
3  99 101 102  255 165 0
3  102 103 100  100 100 100
3  99 102 100  255 165 0
3  101 104 105  50 205 50
3  101 105 106  50 205 50
3  101 106 102  50 205 50
3  107 108 105  0 128 128
3  105 104 107  0 128 128
3  107 109 110  128 128 0
3  110 111 108  100 100 100
3  107 110 108  128 128 0
3  112 110 109  0 0 255
3  109 113 112  0 0 255
3  35 112 113  0 0 255
3  113 31 35  0 0 255
3  91 89 87  255 0 0
3  93 91 87  255 0 0
3  81 78 75  255 0 0
3  83 81 75  255 0 0
3  75 73 70  255 0 0
3  83 75 70  255 0 0
3  83 70 69  255 0 0
3  83 69 67  255 0 0
3  87 83 67  255 0 0
3  61 58 55  255 0 0
3  63 61 55  255 0 0
3  53 50 49  255 0 0
3  55 53 49  255 0 0
3  63 55 49  255 0 0
3  43 40 38  255 0 0
3  45 43 38  255 0 0
3  38 36 32  255 0 0
3  38 32 31  255 0 0
3  45 38 31  255 0 0
3  45 31 113  255 0 0
3  49 45 113  255 0 0
3  63 49 113  255 0 0
3  67 63 113  255 0 0
3  87 67 113  255 0 0
3  93 87 113  255 0 0
3  95 93 113  255 0 0
3  95 113 109  255 0 0
3  109 107 104  255 0 0
3  109 104 101  255 0 0
3  95 109 101  255 0 0
3  96 95 101  255 0 0
3  96 101 99  255 0 0
3  98 103 102  0 255 0
3  106 111 110  0 255 0
3  102 106 110  0 255 0
3  35 34 39  0 255 0
3  39 42 47  0 255 0
3  39 47 46  0 255 0
3  35 39 46  0 255 0
3  112 35 46  0 255 0
3  112 46 48  0 255 0
3  48 52 57  0 255 0
3  48 57 56  0 255 0
3  56 60 65  0 255 0
3  56 65 64  0 255 0
3  48 56 64  0 255 0
3  112 48 64  0 255 0
3  112 64 66  0 255 0
3  72 77 76  0 255 0
3  76 80 85  0 255 0
3  76 85 84  0 255 0
3  72 76 84  0 255 0
3  68 72 84  0 255 0
3  66 68 84  0 255 0
3  66 84 86  0 255 0
3  112 66 86  0 255 0
3  86 88 90  0 255 0
3  86 90 92  0 255 0
3  112 86 92  0 255 0
3  112 92 94  0 255 0
3  110 112 94  0 255 0
3  102 110 94  0 255 0
3  98 102 94  0 255 0
3  57 52 51  64 0 128
3  51 54 57  64 0 128
3  39 34 33  0 128 64
3  33 37 39  0 128 64
3  47 42 41  255 165 0
3  41 44 47  255 165 0
3  65 60 59  128 64 255
3  59 62 65  128 64 255
3  77 72 71  128 64 255
3  71 74 77  128 64 255
3  85 80 79  0 128 64
3  79 82 85  0 128 64
3  103 98 97  245 222 179
3  97 100 103  245 222 179
3  111 106 105  0 128 64
3  105 108 111  0 128 64
3  114 115 116  128 255 255
3  116 117 114  128 255 255
3  118 114 117  224 255 255
3  117 119 118  224 255 255
3  120 118 119  255 128 128
3  119 121 120  255 128 128
3  122 120 121  255 228 196
3  121 123 122  255 228 196
3  124 122 123  128 0 128
3  123 125 124  128 0 128
3  115 124 125  192 0 192
3  125 116 115  192 0 192
3  125 123 121  255 0 255
3  125 121 119  255 0 255
3  116 125 119  255 0 255
3  116 119 117  255 0 255
3  115 114 118  100 100 100
3  120 122 124  100 100 100
3  118 120 124  100 100 100
3  115 118 124  100 100 100
3  126 127 128  255 0 255
3  128 129 126  255 0 255
3  130 131 127  128 255 255
3  127 126 130  128 255 255
3  132 133 131  255 128 64
3  131 130 132  255 128 64
3  134 135 133  255 128 128
3  133 132 134  255 128 128
3  136 137 135  128 0 255
3  135 134 136  128 0 255
3  129 128 137  64 64 255
3  137 136 129  64 64 255
3  138 126 129  0 255 255
3  129 139 138  0 255 255
3  140 130 126  0 192 0
3  126 138 140  0 192 0
3  141 132 130  128 255 64
3  130 140 141  128 255 64
3  142 134 132  255 128 255
3  132 141 142  255 128 255
3  143 136 134  255 255 128
3  134 142 143  255 255 128
3  139 129 136  255 64 255
3  136 143 139  255 64 255
3  127 138 139  255 255 0
3  139 128 127  255 255 0
3  131 140 138  192 0 0
3  138 127 131  192 0 0
3  133 141 140  128 0 128
3  140 131 133  128 0 128
3  135 142 141  255 128 0
3  141 133 135  255 128 0
3  137 143 142  128 255 128
3  142 135 137  128 255 128
3  128 139 143  64 255 64
3  143 137 128  64 255 64
3  144 145 146  0 192 192
3  146 147 144  0 192 192
3  148 149 145  192 192 0
3  145 144 148  192 192 0
3  150 151 149  255 64 128
3  149 148 150  255 64 128
3  152 153 151  64 128 255
3  151 150 152  64 128 255
3  154 155 153  255 0 0
3  153 152 154  255 0 0
3  147 146 155  0 0 192
3  155 154 147  0 0 192
3  153 155 146  100 100 100
3  151 153 146  100 100 100
3  149 151 146  100 100 100
3  145 149 146  100 100 100
3  148 144 147  255 0 255
3  147 152 150  255 0 255
3  150 148 147  255 0 255
3  154 152 147  255 0 255
3  156 157 158  64 64 255
3  158 159 156  64 64 255
3  160 161 157  64 255 128
3  157 156 160  64 255 128
3  162 163 161  0 192 0
3  161 160 162  0 192 0
3  164 165 163  123 104 238
3  163 162 164  123 104 238
3  166 167 165  173 216 230
3  165 164 166  173 216 230
3  159 158 167  64 255 64
3  167 166 159  64 255 64
3  168 156 159  64 64 255
3  159 169 168  64 64 255
3  170 160 156  64 255 128
3  156 168 170  64 255 128
3  171 162 160  0 192 0
3  160 170 171  0 192 0
3  172 164 162  123 104 238
3  162 171 172  123 104 238
3  173 166 164  173 216 230
3  164 172 173  173 216 230
3  169 159 166  64 255 64
3  166 173 169  64 255 64
3  174 168 169  64 64 255
3  169 175 174  64 64 255
3  176 170 168  64 255 128
3  168 174 176  64 255 128
3  177 171 170  0 192 0
3  170 176 177  0 192 0
3  178 172 171  123 104 238
3  171 177 178  123 104 238
3  179 173 172  173 216 230
3  172 178 179  173 216 230
3  175 169 173  64 255 64
3  173 179 175  64 255 64
3  180 174 175  64 64 255
3  175 181 180  64 64 255
3  182 176 174  64 255 128
3  174 180 182  64 255 128
3  183 177 176  0 192 0
3  176 182 183  0 192 0
3  184 178 177  123 104 238
3  177 183 184  123 104 238
3  185 179 178  173 216 230
3  178 184 185  173 216 230
3  181 175 179  64 255 64
3  179 185 181  64 255 64
3  186 180 181  64 64 255
3  181 187 186  64 64 255
3  188 182 180  64 255 128
3  180 186 188  64 255 128
3  189 183 182  0 192 0
3  182 188 189  0 192 0
3  190 184 183  123 104 238
3  183 189 190  123 104 238
3  191 185 184  173 216 230
3  184 190 191  173 216 230
3  187 181 185  64 255 64
3  185 191 187  64 255 64
3  192 186 187  64 64 255
3  187 193 192  64 64 255
3  194 188 186  64 255 128
3  186 192 194  64 255 128
3  195 189 188  0 192 0
3  188 194 195  0 192 0
3  196 190 189  123 104 238
3  189 195 196  123 104 238
3  197 191 190  173 216 230
3  190 196 197  173 216 230
3  193 187 191  64 255 64
3  191 197 193  64 255 64
3  198 192 193  64 64 255
3  193 199 198  64 64 255
3  200 194 192  64 255 128
3  192 198 200  64 255 128
3  201 195 194  0 192 0
3  194 200 201  0 192 0
3  202 196 195  123 104 238
3  195 201 202  123 104 238
3  203 197 196  173 216 230
3  196 202 203  173 216 230
3  199 193 197  64 255 64
3  197 203 199  64 255 64
3  204 198 199  255 255 0
3  199 205 204  255 255 0
3  206 200 198  255 255 128
3  198 204 206  255 255 128
3  207 201 200  128 64 0
3  200 206 207  128 64 0
3  208 202 201  128 0 255
3  201 207 208  128 0 255
3  209 203 202  255 128 64
3  202 208 209  255 128 64
3  205 199 203  255 64 64
3  203 209 205  255 64 64
3  165 167 158  100 100 100
3  163 165 158  100 100 100
3  161 163 158  100 100 100
3  157 161 158  100 100 100
3  206 204 205  100 100 100
3  205 208 207  100 100 100
3  207 206 205  100 100 100
3  209 208 205  100 100 100
3  210 211 212  0 192 192
3  212 213 210  0 192 192
3  214 215 211  255 0 0
3  211 210 214  255 0 0
3  216 217 215  255 64 128
3  215 214 216  255 64 128
3  218 219 217  64 128 255
3  217 216 218  64 128 255
3  220 221 219  0 255 0
3  219 218 220  0 255 0
3  213 212 221  0 0 192
3  221 220 213  0 0 192
3  219 221 212  100 100 100
3  217 219 212  100 100 100
3  215 217 212  100 100 100
3  211 215 212  100 100 100
3  214 210 213  255 0 255
3  213 218 216  255 0 255
3  216 214 213  255 0 255
3  220 218 213  255 0 255
3  16 14 13  0 255 0
3  13 17 16  0 255 0

