OFF
222 416 0
834658.159999996424 815582.399999976158 295.000000000000
834708.079998016357 815568.000000000000 295.000000000000
834695.040000915527 815591.679999351501 314.136991500854
834681.840000152588 815595.519999504089 314.136991500854
834708.079998016357 815568.000000000000 189.600006103516
834722.479995727539 815618.000000000000 189.600006103516
834690.319999694824 815600.159999847412 217.600021362305
834722.479995727539 815618.000000000000 87.000000000000
834672.559999465942 815632.399997711182 87.000000000000
834690.319999694824 815600.159999847412 113.600006103516
834672.559999465942 815632.399997711182 137.600006103516
834658.159999996424 815582.399999976158 137.600006103516
834690.319999694824 815600.159999847412 165.600021362305
834708.079998016357 815568.000000000000 16.399993896484
834722.479995727539 815618.000000000000 16.399993896484
834690.319999694824 815600.159999847412 16.399993896484
834672.559999465942 815632.399997711182 16.399993896484
834658.159999996424 815582.399999976158 16.399993896484
834690.319999694824 815600.159999847412 307.853105545044
834680.399999618530 815591.920000076294 374.136993408203
834679.600000381470 815592.399999618530 374.136993408203
834678.959999084473 815591.920000076294 308.889570236206
834680.479999542236 815591.119999885559 308.889570236206
834681.039999008179 815592.559999465942 374.136993408203
834681.680000305176 815592.319999694824 308.889570236206
834680.879999160767 815593.359999656677 374.136993408203
834681.439998626709 815593.759999275208 308.889570236206
834680.159999847412 815593.759999275208 374.136993408203
834680.079999923706 815594.479999542236 308.889570236206
834679.520000457764 815593.279999732971 374.136993408203
834678.799999237061 815593.679999351501 308.889570236206
834721.359996795654 815612.719999313354 7.700012207031
834722.559997558594 815612.399999618530 7.700012207031
834722.559997558594 815612.399999618530 14.000000000000
834721.359996795654 815612.799999237061 16.399993896484
834721.359996795654 815612.719999313354 16.399993896484
834724.000000000000 815617.520000457764 7.700012207031
834724.000000000000 815617.520000457764 14.000000000000
834722.799995422363 815617.919998168945 7.700012207031
834722.799995422363 815617.919998168945 16.399993896484
834723.199996948242 815619.200000762939 7.700012207031
834723.199996948242 815619.200000762939 14.000000000000
834722.720001220703 815617.919998168945 16.399993896484
834718.239997863770 815620.639999389648 7.700012207031
834718.239997863770 815620.639999389648 14.000000000000
834717.840000152588 815619.360000610352 7.700012207031
834717.840000152588 815619.360000610352 16.399993896484
834717.759998321533 815619.360000610352 16.399993896484
834677.760000228882 815630.639999389648 16.399993896484
834677.760000228882 815630.639999389648 7.700012207031
834678.159999847412 815632.000000000000 7.700012207031
834678.159999847412 815632.000000000000 14.000000000000
834677.840000152588 815630.719997406006 16.399993896484
834673.199999809265 815633.439998626709 7.700012207031
834673.199999809265 815633.439998626709 14.000000000000
834672.719999313354 815632.159999847412 7.700012207031
834672.719999313354 815632.159999847412 16.399993896484
834672.880000114441 815632.239997863770 16.399993896484
834671.439999580383 815632.399997711182 7.700012207031
834671.439999580383 815632.399997711182 14.000000000000
834672.479999542236 815632.159999847412 16.399993896484
834670.000000000000 815627.119998931885 7.700012207031
834670.000000000000 815627.119998931885 14.000000000000
834671.119999885559 815626.799999237061 7.700012207031
834671.119999885559 815626.799999237061 16.399993896484
834670.960000038147 815626.879997253418 16.399993896484
834663.440000057220 815600.000000000000 16.399993896484
834663.440000057220 815600.000000000000 7.700012207031
834659.759999990463 815586.719999790192 16.399993896484
834659.759999990463 815586.719999790192 7.700012207031
834658.560000002384 815586.960000038147 7.700012207031
834658.560000002384 815586.960000038147 14.000000000000
834659.439999938011 815586.799999713898 16.399993896484
834657.280000030994 815582.399999976158 7.700012207031
834657.280000030994 815582.399999976158 14.000000000000
834658.239999994636 815582.159999996424 7.700012207031
834658.239999994636 815582.159999996424 16.399993896484
834658.159999996424 815582.239999994636 16.399993896484
834657.760000005364 815580.560000061989 7.700012207031
834657.760000005364 815580.560000061989 14.000000000000
834658.239999994636 815582.239999994636 16.399993896484
834662.639999866486 815579.279999971390 7.700012207031
834662.639999866486 815579.279999971390 14.000000000000
834664.239999771118 815584.720000028610 7.700012207031
834664.239999771118 815584.720000028610 16.399993896484
834663.119999885559 815580.879999995232 16.399993896484
834677.039999008179 815581.120000004768 16.399993896484
834677.039999008179 815581.120000004768 7.700012207031
834676.159999847412 815578.240000009537 16.399993896484
834676.159999847412 815578.240000009537 7.700012207031
834691.279998779297 815573.920000076294 16.399993896484
834691.279998779297 815573.920000076294 7.700012207031
834692.079998016357 815576.880000114441 16.399993896484
834692.079998016357 815576.880000114441 7.700012207031
834704.559997558594 815573.360000610352 16.399993896484
834704.559997558594 815573.360000610352 7.700012207031
834703.200000762939 815568.000000000000 7.700012207031
834703.200000762939 815568.000000000000 14.000000000000
834703.520000457764 815569.280000686646 16.399993896484
834707.200000762939 815566.880000114441 7.700012207031
834707.200000762939 815566.880000114441 14.000000000000
834707.599998474121 815568.320000648499 7.700012207031
834707.599998474121 815568.320000648499 16.399993896484
834707.520000457764 815568.159999847412 16.399993896484
834709.680000305176 815567.760000228882 7.700012207031
834709.680000305176 815567.760000228882 14.000000000000
834708.319999694824 815568.079999923706 16.399993896484
834711.119998931885 815572.560000419617 7.700012207031
834711.119998931885 815572.560000419617 14.000000000000
834709.759998321533 815572.880000114441 7.700012207031
834709.759998321533 815572.880000114441 16.399993896484
834709.759998321533 815572.960000038147 16.399993896484
834717.599998474121 815600.000000000000 16.399993896484
834717.599998474121 815600.000000000000 7.700012207031
834695.439998626709 815587.759999752045 373.319297790527
834694.559997558594 815587.920000076294 373.319297790527
834694.159999847412 815587.279999732971 308.071855545044
834695.759998321533 815587.039999961853 308.071855545044
834695.840000152588 815588.559999942780 373.319297790527
834696.559997558594 815588.480000019073 308.071855545044
834695.520000457764 815589.279999732971 373.319297790527
834695.919998168945 815589.839999675751 308.071855545044
834694.639999389648 815589.359999656677 373.319297790527
834694.319999694824 815590.079999923706 308.071855545044
834694.159999847412 815588.719999790192 373.319297790527
834693.439998626709 815588.879999637604 308.071855545044
834680.879999160767 815593.199999809265 327.043670654297
834690.399997711182 815599.920000076294 320.554296493530
834690.639999389648 815600.799999237061 319.567050933838
834679.439998626709 815592.800000190735 327.188083648682
834682.000000000000 815593.119999885559 326.329589843750
834690.000000000000 815598.799999237061 320.858045578003
834681.760000228882 815592.719999313354 325.759922027588
834689.920000076294 815598.479999542236 320.174570083618
834680.319999694824 815592.319999694824 325.904335021973
834690.159999847412 815599.359998703003 319.187324523926
834679.199998855591 815592.399999618530 326.618417739868
834690.479999542236 815600.479999542236 318.883573532104
834694.559997558594 815589.279999732971 326.953260421753
834695.520000457764 815588.239999771118 327.081893920898
834693.520000457764 815589.839999675751 326.253358840942
834693.520000457764 815589.279999732971 325.682107925415
834694.479999542236 815588.239999771118 325.810741424561
834695.520000457764 815587.679999828339 326.510623931885
834689.679998397827 815600.000000000000 307.854160308838
834689.679998397827 815600.000000000000 319.611951828003
834690.000000000000 815600.159999847412 319.613006591797
834690.000000000000 815600.239999771118 307.855234146118
834689.679998397827 815599.600000381470 307.852030754089
834689.679998397827 815599.600000381470 319.609842300415
834690.000000000000 815599.440000534058 307.850956916809
834690.000000000000 815599.359998703003 319.608768463135
834690.319999694824 815599.600000381470 307.852030754089
834690.319999694824 815599.600000381470 319.609842300415
834690.319999694824 815600.000000000000 307.854160308838
834690.319999694824 815600.000000000000 319.611951828003
834683.599998474121 815595.199999809265 314.372714996338
834682.559999465942 815594.559999465942 313.226287841797
834683.119998931885 815594.479999542236 312.748046875000
834684.159999847412 815595.119999885559 313.893047332764
834683.199998855591 815595.840000152588 314.373300552368
834682.159999847412 815595.119999885559 313.226287841797
834683.359998703003 815596.399999618530 313.894199371338
834682.319999694824 815595.679999351501 312.748046875000
834683.920000076294 815596.319999694824 313.414491653442
834682.879999160767 815595.599999427795 312.269844055176
834684.319999694824 815595.679999351501 313.413925170898
834683.279998779297 815595.039999961853 312.269844055176
834684.639999389648 815595.920000076294 315.513984680176
834685.199998855591 815595.840000152588 315.029998779297
834684.239999771118 815596.559999465942 315.516307830811
834684.399999618530 815597.039999961853 315.034648895264
834684.959999084473 815597.039999961853 314.550643920898
834685.359998703003 815596.399999618530 314.548320770264
834685.760000228882 815596.559999465942 316.643339157104
834686.319999694824 815596.479999542236 316.152109146118
834685.359998703003 815597.199999809265 316.648534774780
834685.439998626709 815597.759999275208 316.162479400635
834686.000000000000 815597.679999351501 315.671249389648
834686.479999542236 815597.039999961853 315.666053771973
834686.799999237061 815597.279999732971 317.753768920898
834687.359998703003 815597.199999809265 317.252597808838
834686.399999618530 815597.920000076294 317.762908935547
834686.559999465942 815598.479999542236 317.270877838135
834687.119998931885 815598.319999694824 316.769725799561
834687.519998550415 815597.759999275208 316.760604858398
834687.920000076294 815597.920000076294 318.838319778442
834688.479999542236 815597.839999198914 318.324745178223
834687.519998550415 815598.559999465942 318.852401733398
834687.679998397827 815599.119998931885 318.352851867676
834688.239999771118 815599.039999008179 317.839277267456
834688.639999389648 815598.399999618530 317.825195312500
834689.119998931885 815598.639999389648 319.889999389648
834689.599998474121 815598.559999465942 319.361738204956
834688.719999313354 815599.279998779297 319.909862518311
834688.879999160767 815599.840000152588 319.401502609253
834689.359998703003 815599.680000305176 318.873260498047
834689.760000228882 815599.039999008179 318.853378295898
834690.319999694824 815599.359998703003 320.897226333618
834690.079998016357 815598.799999237061 319.740156173706
834690.639999389648 815600.399999618530 321.540390014648
834690.799999237061 815600.959999084473 321.026502609253
834690.559997558594 815600.399999618530 319.869413375854
834690.239997863770 815599.359998703003 319.226230621338
834694.159999847412 815590.800000190735 312.808691024780
834693.599998474121 815590.960000038147 312.338964462280
834694.799999237061 815591.119999885559 312.767616271973
834694.880001068115 815591.679999351501 312.256816864014
834694.399997711182 815591.840000152588 311.787090301514
834693.680000305176 815591.519999504089 311.828163146973
834690.239997863770 815600.000000000000 307.854160308838
834690.239997863770 815600.000000000000 319.611951828003
834690.559997558594 815600.159999847412 319.613006591797
834690.559997558594 815600.239999771118 307.855234146118
834690.239997863770 815599.600000381470 307.852030754089
834690.239997863770 815599.600000381470 319.609842300415
834690.559997558594 815599.440000534058 307.850956916809
834690.559997558594 815599.359998703003 319.608768463135
834690.880001068115 815599.600000381470 307.852030754089
834690.880001068115 815599.600000381470 319.609842300415
834690.880001068115 815600.000000000000 307.854160308838
834690.880001068115 815600.000000000000 319.611951828003
3 0 1 2
3 2 3 0
3 4 5 6
3 7 8 9
3 10 11 12
3 13 14 5
3 5 4 13
3 14 15 6
3 6 5 14
3 15 13 4
3 4 6 15
3 16 17 11
3 11 10 16
3 17 15 12
3 12 11 17
3 15 16 10
3 10 12 15
3 14 16 8
3 8 7 14
3 16 15 9
3 9 8 16
3 15 14 7
3 7 9 15
3 17 13 1
3 1 0 17
3 13 15 18
3 13 18 2
3 13 2 1
3 15 17 0
3 15 0 3
3 15 3 18
3 2 18 3
3 19 20 21
3 21 22 19
3 23 19 22
3 22 24 23
3 25 23 24
3 24 26 25
3 27 25 26
3 26 28 27
3 29 27 28
3 28 30 29
3 20 29 30
3 30 21 20
3 30 28 26
3 30 26 24
3 21 30 24
3 21 24 22
3 20 19 23
3 25 27 29
3 23 25 29
3 20 23 29
3 31 32 33
3 31 33 34
3 31 34 35
3 36 37 33
3 33 32 36
3 36 38 39
3 36 39 37
3 38 40 41
3 38 41 42
3 38 42 39
3 43 44 41
3 41 40 43
3 43 45 46
3 46 47 44
3 43 46 44
3 48 46 45
3 45 49 48
3 49 50 51
3 49 51 52
3 49 52 48
3 53 54 51
3 51 50 53
3 53 55 56
3 56 57 54
3 53 56 54
3 55 58 59
3 55 59 60
3 55 60 56
3 61 62 59
3 59 58 61
3 61 63 64
3 64 65 62
3 61 64 62
3 66 64 63
3 63 67 66
3 68 66 67
3 67 69 68
3 69 70 71
3 69 71 72
3 69 72 68
3 73 74 71
3 71 70 73
3 73 75 76
3 76 77 74
3 73 76 74
3 75 78 79
3 75 79 80
3 75 80 76
3 81 82 79
3 79 78 81
3 81 83 84
3 84 85 82
3 81 84 82
3 86 84 83
3 83 87 86
3 88 86 87
3 87 89 88
3 90 88 89
3 89 91 90
3 92 90 91
3 91 93 92
3 94 92 93
3 93 95 94
3 95 96 97
3 95 97 98
3 95 98 94
3 99 100 97
3 97 96 99
3 99 101 102
3 102 103 100
3 99 102 100
3 101 104 105
3 101 105 106
3 101 106 102
3 107 108 105
3 105 104 107
3 107 109 110
3 110 111 108
3 107 110 108
3 112 110 109
3 109 113 112
3 35 112 113
3 113 31 35
3 91 89 87
3 93 91 87
3 81 78 75
3 83 81 75
3 75 73 70
3 83 75 70
3 83 70 69
3 83 69 67
3 87 83 67
3 61 58 55
3 63 61 55
3 53 50 49
3 55 53 49
3 63 55 49
3 43 40 38
3 45 43 38
3 38 36 32
3 38 32 31
3 45 38 31
3 45 31 113
3 49 45 113
3 63 49 113
3 67 63 113
3 87 67 113
3 93 87 113
3 95 93 113
3 95 113 109
3 109 107 104
3 109 104 101
3 95 109 101
3 96 95 101
3 96 101 99
3 98 103 102
3 106 111 110
3 102 106 110
3 35 34 39
3 39 42 47
3 39 47 46
3 35 39 46
3 112 35 46
3 112 46 48
3 48 52 57
3 48 57 56
3 56 60 65
3 56 65 64
3 48 56 64
3 112 48 64
3 112 64 66
3 72 77 76
3 76 80 85
3 76 85 84
3 72 76 84
3 68 72 84
3 66 68 84
3 66 84 86
3 112 66 86
3 86 88 90
3 86 90 92
3 112 86 92
3 112 92 94
3 110 112 94
3 102 110 94
3 98 102 94
3 57 52 51
3 51 54 57
3 39 34 33
3 33 37 39
3 47 42 41
3 41 44 47
3 65 60 59
3 59 62 65
3 77 72 71
3 71 74 77
3 85 80 79
3 79 82 85
3 103 98 97
3 97 100 103
3 111 106 105
3 105 108 111
3 114 115 116
3 116 117 114
3 118 114 117
3 117 119 118
3 120 118 119
3 119 121 120
3 122 120 121
3 121 123 122
3 124 122 123
3 123 125 124
3 115 124 125
3 125 116 115
3 125 123 121
3 125 121 119
3 116 125 119
3 116 119 117
3 115 114 118
3 120 122 124
3 118 120 124
3 115 118 124
3 126 127 128
3 128 129 126
3 130 131 127
3 127 126 130
3 132 133 131
3 131 130 132
3 134 135 133
3 133 132 134
3 136 137 135
3 135 134 136
3 129 128 137
3 137 136 129
3 138 126 129
3 129 139 138
3 140 130 126
3 126 138 140
3 141 132 130
3 130 140 141
3 142 134 132
3 132 141 142
3 143 136 134
3 134 142 143
3 139 129 136
3 136 143 139
3 127 138 139
3 139 128 127
3 131 140 138
3 138 127 131
3 133 141 140
3 140 131 133
3 135 142 141
3 141 133 135
3 137 143 142
3 142 135 137
3 128 139 143
3 143 137 128
3 144 145 146
3 146 147 144
3 148 149 145
3 145 144 148
3 150 151 149
3 149 148 150
3 152 153 151
3 151 150 152
3 154 155 153
3 153 152 154
3 147 146 155
3 155 154 147
3 153 155 146
3 151 153 146
3 149 151 146
3 145 149 146
3 148 144 147
3 147 152 150
3 150 148 147
3 154 152 147
3 156 157 158
3 158 159 156
3 160 161 157
3 157 156 160
3 162 163 161
3 161 160 162
3 164 165 163
3 163 162 164
3 166 167 165
3 165 164 166
3 159 158 167
3 167 166 159
3 168 156 159
3 159 169 168
3 170 160 156
3 156 168 170
3 171 162 160
3 160 170 171
3 172 164 162
3 162 171 172
3 173 166 164
3 164 172 173
3 169 159 166
3 166 173 169
3 174 168 169
3 169 175 174
3 176 170 168
3 168 174 176
3 177 171 170
3 170 176 177
3 178 172 171
3 171 177 178
3 179 173 172
3 172 178 179
3 175 169 173
3 173 179 175
3 180 174 175
3 175 181 180
3 182 176 174
3 174 180 182
3 183 177 176
3 176 182 183
3 184 178 177
3 177 183 184
3 185 179 178
3 178 184 185
3 181 175 179
3 179 185 181
3 186 180 181
3 181 187 186
3 188 182 180
3 180 186 188
3 189 183 182
3 182 188 189
3 190 184 183
3 183 189 190
3 191 185 184
3 184 190 191
3 187 181 185
3 185 191 187
3 192 186 187
3 187 193 192
3 194 188 186
3 186 192 194
3 195 189 188
3 188 194 195
3 196 190 189
3 189 195 196
3 197 191 190
3 190 196 197
3 193 187 191
3 191 197 193
3 198 192 193
3 193 199 198
3 200 194 192
3 192 198 200
3 201 195 194
3 194 200 201
3 202 196 195
3 195 201 202
3 203 197 196
3 196 202 203
3 199 193 197
3 197 203 199
3 204 198 199
3 199 205 204
3 206 200 198
3 198 204 206
3 207 201 200
3 200 206 207
3 208 202 201
3 201 207 208
3 209 203 202
3 202 208 209
3 205 199 203
3 203 209 205
3 165 167 158
3 163 165 158
3 161 163 158
3 157 161 158
3 206 204 205
3 205 208 207
3 207 206 205
3 209 208 205
3 210 211 212
3 212 213 210
3 214 215 211
3 211 210 214
3 216 217 215
3 215 214 216
3 218 219 217
3 217 216 218
3 220 221 219
3 219 218 220
3 213 212 221
3 221 220 213
3 219 221 212
3 217 219 212
3 215 217 212
3 211 215 212
3 214 210 213
3 213 218 216
3 216 214 213
3 220 218 213
3 16 14 13
3 13 17 16
