# exported by https://3dviewer.net
mtllib model.mtl
g Mesh
v 26.5937 -13.125 21.65
v 26.5937 -13.125 -21.75
v -25.8437 4.1875 -21.75
v -24.1758 6.37661 -21.75
v -24.1758 6.37661 21.65
v -25.8437 4.1875 21.65
v -23.2805 2.49686 -21.75
v -23.2805 2.49686 21.65
v -19.9857 4.98337 21.65
v -21.0449 -19.7448 21.65
v -21.0449 -19.7448 -21.75
v -18.7748 -17.0279 -21.75
v -18.7748 -17.0279 21.65
v -24.9687 -1.9375 21.65
v -11.5706 -0.683978 21.65
v 4.70024 19.5409 -21.75
v 27.2562 -12.2817 -21.75
v 4.70024 19.5409 21.65
v -24.9687 -1.9375 -21.75
v 27.2562 -12.2817 21.65
v -21.7697 -4.05009 -21.75
v 20.2472 22.475 -21.75
v -11.5706 -0.683978 -21.75
v -21.7697 -4.05009 21.65
v -23.4697 -7.56371 -21.75
v 11.6227 -16.3039 -21.75
v -21.5077 -5.18545 -21.75
v -19.9857 4.98337 -21.75
v 11.6227 -16.3039 21.65
v -11.9465 16.1489 -21.75
v -22.216 -13.9165 21.65
v -22.216 -13.9165 -21.75
v -20.0998 -11.286 -21.75
v -18.9965 -16.0671 -21.75
v -18.9965 -16.0671 21.65
v -20.0998 -11.286 21.65
v -24.5662 8.06819 -21.75
v -11.9465 16.1489 21.65
v -25.448 11.8892 -21.75
v -27.1562 9.8125 21.65
v -24.5662 8.06819 21.65
v -27.1562 9.8125 -21.75
v -16.969 -22.375 21.65
v -16.969 -22.375 -21.75
v -23.4697 -7.56371 21.65
v -21.5077 -5.18545 21.65
v -23.9572 13.7016 -21.75
v -22.9153 0.914442 -21.75
v -22.9153 0.914442 21.65
v -23.9572 13.7016 21.65
v 0.395991 -18.6878 -21.75
v 0.395991 -18.6878 21.65
v 19.0994 22.475 21.65
v 27.2562 -12.9843 21.65
v -17.6409 -21.9414 -21.75
v -11.3421 -21.1803 21.65
v -20.4649 -9.70394 -21.75
v 20.2472 22.475 21.65
v -20.4649 -9.70394 21.65
v -25.448 11.8892 21.65
v 19.0994 22.475 -21.75
v -17.6409 -21.9414 21.65
v -11.3421 -21.1803 -21.75
v 27.2562 -12.9843 -21.75
vn 0 0 1
vn 0 0 1
vn 0 0 1
vn 0 0 1
vn 0 0 1
vn 0 0 1
vn -1 0 0
vn -1 0 0
vn -0.20774397167725542 0.9781832355094622 0
vn -0.20774397167725542 0.9781832355094622 0
vn 0 -1 0
vn 0 -1 0
vn 0.1996657550635131 -0.9798640651921661 0
vn 0.1996657550635131 -0.9798640651921661 0
vn 0 0 -1
vn 0 0 -1
vn 0 0 -1
vn 0 0 -1
vn 0 0 -1
vn 0 0 -1
vn -0.9802666935636245 -0.19767956265086858 0
vn -0.9802666935636245 -0.19767956265086858 0
vn 0.19965742869898429 -0.9798657618088867 0
vn 0.19965742869898429 -0.9798657618088867 0
vn 0 0 -1
vn 0 0 -1
vn 0 0 -1
vn 0 0 1
vn 0 0 1
vn 0 0 1
vn 0.7722991163319186 -0.6352590612600008 0
vn 0.7722991163319186 -0.6352590612600008 0
vn -0.20768971817101578 0.9781947561534176 0
vn -0.20768971817101578 0.9781947561534176 0
vn 0 0 1
vn 0 0 1
vn 0 0 1
vn 0 0 1
vn 0 0 0.9999999999999999
vn 0 0 1
vn 0 0 1
vn 0 0 1
vn 0 0 -1
vn 0 0 -1
vn 0 0 -1
vn 0 0 -0.9999999999999999
vn 0 0 -1
vn 0 0 -1
vn 0 0 -1
vn 0 0 -1
vn 0.542229407332155 0.8402304861311686 0
vn 0.542229407332155 0.8402304861311686 0
vn 0.7722993861238534 -0.635258733267571 0
vn 0.7722993861238534 -0.635258733267571 0
vn 0 0 1
vn 0 0 -0.9999999999999999
vn 0.542208953809382 0.8402436851348157 0
vn 0.542208953809382 0.8402436851348157 0
vn 0 0 -1
vn 0 0 0.9999999999999999
vn 0 0 1
vn 0 0 -1
vn 0 0 -1
vn 0 0 -1
vn 0 0 -1
vn 0.9743923528366659 0.22485449235767227 0
vn 0.9743923528366659 0.22485449235767227 0
vn 0 0 -1
vn 0.5510693143101321 0.834459472248809 0
vn 0.5510693143101321 0.834459472248809 0
vn 0 0 1
vn 0.9743899500402472 0.22486490446613652 0
vn 0.9743899500402472 0.22486490446613652 0
vn 0 0 -1
vn 0.5801507237774126 0.8145091391141933 0
vn 0.5801507237774126 0.8145091391141933 0
vn 0 0 -1
vn 0 0 1
vn 0 0 -1
vn 0.9743876047979056 0.22487506668414836 0
vn 0.9743876047979056 0.22487506668414836 0
vn 0 0 1
vn 0 0 1
vn 0 0 1
vn 0 0 0.9999999999999999
vn 0.8115341039725127 -0.5843050556768536 0
vn 0.8115341039725127 -0.5843050556768536 0
vn -0.2077107233217619 0.9781902961168395 0
vn -0.2077107233217619 0.9781902961168395 0
vn -0.2077116967219137 0.9781900894227583 0
vn -0.2077116967219137 0.9781900894227583 0
vn 0 0 -1
vn 0 0 -1
vn 0.1996608523797716 -0.9798650641935259 0
vn 0.1996608523797716 -0.9798650641935259 0
vn 0 0 1
vn 0 0 1
vn 0 0 1
vn 0 0 -1
vn 0 0 1
vn 0.7713835480480548 -0.6363705067024982 0
vn 0.7713835480480548 -0.6363705067024982 0
vn 0.9743867297165042 0.2248788583935274 0
vn 0.9743867297165042 0.2248788583935274 0
vn 0.5586057300285711 0.8294333236488918 0
vn 0.5586057300285711 0.8294333236488918 0
vn 0.9743963231712616 0.22483728647696802 0
vn 0.9743963231712616 0.22483728647696802 0
vn 0 0 1
vn 0 0 -1
vn 0.555462890562048 0.8315413262180383 0
vn 0.555462890562048 0.8315413262180383 0
vn 0.7791609300491328 -0.6268239346778093 0
vn 0.7791609300491328 -0.6268239346778093 0
vn -0.20770637035628484 0.9781912204233985 0
vn -0.20770637035628484 0.9781912204233985 0
vn 0.7673848546171539 -0.6411867784851849 0
vn 0.7673848546171539 -0.6411867784851849 0
vn 0 0 1
vn 0 0 -1
vn 0.5505989950040887 0.8347698764932091 0
vn 0.5505989950040887 0.8347698764932091 0
vn 0.7954305522808945 -0.6060447479337736 0
vn 0.7954305522808945 -0.6060447479337736 0
usemtl FF0000
f 64//1 17//1 22//1
f 64//2 22//2 61//2
f 64//3 61//3 16//3
f 64//4 16//4 23//4
f 64//5 23//5 26//5
f 64//6 26//6 2//6
f 64//7 54//7 20//7
f 64//8 20//8 17//8
f 64//9 2//9 1//9
f 64//10 1//10 54//10
f 61//11 22//11 58//11
f 61//12 58//12 53//12
f 61//13 53//13 18//13
f 61//14 18//14 16//14
f 54//15 1//15 29//15
f 54//16 29//16 15//16
f 54//17 15//17 18//17
f 54//18 18//18 53//18
f 54//19 53//19 58//19
f 54//20 58//20 20//20
f 20//21 58//21 22//21
f 20//22 22//22 17//22
f 47//23 30//23 38//23
f 47//24 38//24 50//24
f 50//25 38//25 9//25
f 50//26 9//26 41//26
f 50//27 41//27 60//27
f 47//28 39//28 37//28
f 47//29 37//29 28//29
f 47//30 28//30 30//30
f 50//31 60//31 39//31
f 50//32 39//32 47//32
f 43//33 56//33 63//33
f 43//34 63//34 44//34
f 44//35 63//35 51//35
f 44//36 51//36 21//36
f 44//37 21//37 27//37
f 44//38 27//38 57//38
f 44//39 57//39 33//39
f 44//40 33//40 34//40
f 44//41 34//41 12//41
f 44//42 12//42 55//42
f 43//43 62//43 13//43
f 43//44 13//44 35//44
f 43//45 35//45 36//45
f 43//46 36//46 59//46
f 43//47 59//47 46//47
f 43//48 46//48 24//48
f 43//49 24//49 52//49
f 43//50 52//50 56//50
f 43//51 44//51 55//51
f 43//52 55//52 62//52
f 60//53 40//53 42//53
f 60//54 42//54 39//54
f 39//55 42//55 37//55
f 62//56 10//56 13//56
f 55//57 11//57 10//57
f 55//58 10//58 62//58
f 60//59 41//59 40//59
f 55//60 12//60 11//60
f 21//61 48//61 19//61
f 24//62 49//62 9//62
f 24//63 9//63 15//63
f 24//64 15//64 29//64
f 24//65 29//65 52//65
f 24//66 46//66 27//66
f 24//67 27//67 21//67
f 24//68 14//68 49//68
f 24//69 21//69 19//69
f 24//70 19//70 14//70
f 57//71 27//71 25//71
f 59//72 36//72 33//72
f 59//73 33//73 57//73
f 59//74 45//74 46//74
f 59//75 57//75 25//75
f 59//76 25//76 45//76
f 49//77 8//77 5//77
f 49//78 5//78 41//78
f 49//79 41//79 9//79
f 48//80 7//80 8//80
f 48//81 8//81 49//81
f 48//82 21//82 51//82
f 48//83 51//83 26//83
f 48//84 26//84 23//84
f 48//85 23//85 28//85
f 49//86 14//86 19//86
f 49//87 19//87 48//87
f 52//88 29//88 26//88
f 52//89 26//89 51//89
f 51//90 63//90 56//90
f 51//91 56//91 52//91
f 38//92 18//92 15//92
f 38//93 15//93 9//93
f 30//94 16//94 18//94
f 30//95 18//95 38//95
f 30//96 28//96 23//96
f 30//97 23//97 16//97
f 48//98 28//98 37//98
f 48//99 37//99 4//99
f 48//100 4//100 7//100
f 46//101 45//101 25//101
f 46//102 25//102 27//102
f 41//103 5//103 4//103
f 41//104 4//104 37//104
f 41//105 37//105 42//105
f 41//106 42//106 40//106
f 35//107 13//107 12//107
f 35//108 12//108 34//108
f 34//109 33//109 32//109
f 35//110 31//110 36//110
f 35//111 34//111 32//111
f 35//112 32//112 31//112
f 36//113 31//113 32//113
f 36//114 32//114 33//114
f 29//115 1//115 2//115
f 29//116 2//116 26//116
f 13//117 10//117 11//117
f 13//118 11//118 12//118
f 7//119 4//119 3//119
f 8//120 6//120 5//120
f 8//121 7//121 3//121
f 8//122 3//122 6//122
f 6//123 3//123 4//123
f 6//124 4//124 5//124
