OFF
234 182 0

-2.0503 25.4805 -85.628
-2.0503 25.4805 -24.713
3.22691 -4.87253 62.877
-3.34183 -8.43842 62.877
1.94843 13.6592 19.087
6.11113 15.7868 19.087
6.9851 21.4172 -24.713
-0.933624 1.62982 77.464
-0.933624 1.62982 62.877
-0.0221215 6.86858 40.977
-0.0221215 6.86858 51.927
11.343 9.07944 40.977
9.56206 13.258 19.087
11.343 9.07944 19.087
7.27672 -18.4769 -2.813
12.1126 -0.0488749 -2.813
12.1126 -0.0488749 -10.003
3.11731 11.4676 19.087
0.365565 16.6271 19.087
3.11731 11.4676 40.977
8.3472 21.0309 -2.813
0.292306 -15.0654 40.977
14.0545 7.35095 -2.813
14.0545 7.35095 -10.003
3.26375 -20.551 -85.628
1.61937 22.9391 -85.628
11.0349 15.0667 -2.813
0.680133 7.54626 -85.628
-4.09544 -24.3546 -24.713
-1.72754 21.1776 -85.628
-2.15084 16.9951 -2.813
12.9889 3.29054 19.087
-5.30489 13.4899 -10.003
7.27672 -18.4769 19.087
12.9889 3.29054 -2.813
-10.5775 -23.2283 -85.628
-6.61033 8.68034 19.087
-15.2 -25.6766 -24.713
-8.55813 -26.6612 -85.628
1.48696 -9.97174 51.927
11.6737 -1.72148 51.927
2.88719 -16.0968 -85.628
1.44663 0.943138 -85.628
-5.00747 -13.6828 19.087
-8.01324 3.51175 51.927
-7.32082 -13.0794 19.087
-10.8559 -6.96103 40.977
3.33559 -15.8593 19.087
-10.8559 -6.96103 19.087
-7.32082 -13.0794 40.977
14.284 8.22561 40.977
-9.30716 -1.25532 77.464
-2.4671 -18.9327 19.087
-8.01324 3.51175 77.464
4.10328 9.61885 40.977
8.47894 -6.38822 62.877
11.6737 -1.72148 62.877
-5.33421 -1.01053 85.519
8.71072 -13.0124 -10.003
-0.933624 1.62982 85.519
-8.01324 3.51175 62.877
8.47894 -6.38822 85.519
3.22691 -4.87253 85.519
7.85729 -2.3589 85.519
-3.46667 20.2623 -24.713
-1.67971 21.2028 -24.713
-1.66816 21.2089 -10.003
-3.46667 20.2623 -10.003
-5.9 2.95 62.877
-11.4387 -28.15 -24.713
9.01478 -11.8537 51.927
-5.49203 -24.0101 -10.003
5.99781 25.2436 -85.628
-9.96876 -22.9059 -10.003
-4.09544 -24.3546 -10.003
7.27672 -18.4769 -10.003
9.01478 -11.8537 62.877
5.99781 25.2436 -24.713
-9.96876 -22.9059 -2.813
7.27672 -18.4769 -24.713
-4.09544 -24.3546 -2.813
-10.8368 -6.8908 40.977
-1.32571 28.15 -24.713
10.3103 -6.91674 62.877
-6.41987 9.38207 19.087
-0.362791 12.4779 40.977
7.72158 -13.5363 -85.628
-0.362791 12.4779 19.087
5.60799 -11.002 40.977
-4.26937 17.3049 -10.003
5.51561 -10.9789 51.927
-10.5775 -23.2283 -2.813
-10.0007 -3.81041 40.977
-10.0007 -3.81041 51.927
-0.650203 4.61952 -85.628
1.61937 22.9391 -24.713
8.3472 21.0309 -24.713
7.85729 -2.3589 77.464
0.175684 -17.5329 19.087
0.396056 -20.1396 19.087
-2.31518 24.5046 -85.628
-5.32478 13.4166 -2.813
7.66711 -16.9892 19.087
-5.9 2.95 85.519
-3.13458 -8.81635 51.927
-3.13458 -8.81635 62.877
-6.9 -1.95 62.877
-3.13458 -8.81635 40.977
-8.63631 1.21622 51.927
1.48696 -9.97174 62.877
-3.10494 7.71636 51.927
11.8365 14.7743 19.087
-3.01134 7.69062 40.977
1.01042 -20.3986 -2.813
14.6694 9.69444 -24.713
11.3216 15.6975 -24.713
11.3216 15.6975 -85.628
2.84283 -2.95576 -85.628
-5.49203 -24.0101 -85.628
10.9237 -4.5793 51.927
-10.8368 -6.8908 62.877
8.3472 21.0309 -85.628
-12.9104 -14.5302 -2.813
-5.1985 13.8818 19.087
2.41388 -20.9903 19.087
-4.09544 -24.3546 -85.628
-3.46667 20.2623 -85.628
7.59154 -0.636358 77.464
-1.54948 -11.7068 40.977
-5.49203 -24.0101 -24.713
-9.96876 -22.9059 -24.713
-15.2 -22.9658 -85.628
-1.32571 28.15 -85.628
-9.30716 -1.25532 62.877
10.9237 -4.5793 19.087
1.48696 -9.97174 40.977
7.66711 -16.9892 -2.813
-5.33421 -1.01053 77.464
2.34401 -1.87398 -85.628
9.01478 -11.8537 40.977
5.73596 10.7073 40.977
5.73596 10.7073 19.087
10.9237 -4.5793 40.977
8.71072 -13.0124 -24.713
1.61937 22.9391 -10.003
14.6694 9.69444 -10.003
8.3472 21.0309 -10.003
4.37692 28.15 -24.713
-4.26937 17.3049 -24.713
-4.71461 -20.123 -85.628
1.68477 -21.3671 -24.713
-12.9104 -14.5302 -10.003
-12.9722 -19.1572 -24.713
-12.9722 -19.1572 -85.628
2.41388 -20.9903 -10.003
-12.173 -11.8136 19.087
-9.96876 -22.9059 -85.628
-12.9104 -14.5302 -24.713
-5.1985 13.8818 -2.813
-13.7892 -17.7683 -10.003
-6.61033 8.68034 40.977
14.284 8.22561 -2.813
-10.5775 -23.2283 -10.003
12.9889 3.29054 51.927
-10.5775 -23.2283 -24.713
10.3103 -6.91674 77.464
8.47894 -6.38822 77.464
11.6737 -1.72148 77.464
11.7301 14.965 -10.003
-0.0221215 6.86858 62.877
6.53125 5.0664 40.977
-5.9 2.95 62.877
-8.83832 -13.3944 -85.628
-13.7892 -17.7683 -24.713
-13.7892 -17.7683 -85.628
3.22691 -4.87253 77.464
-5.1269 -2.4617 62.877
-15.2 -28.15 -85.628
8 -6.25 62.877
6.9851 21.4172 -10.003
-10.8368 -6.8908 51.927
2.41388 -20.9903 -2.813
14.6694 9.69444 -85.628
-14.893 -21.8348 -85.628
8.71072 -13.0124 -85.628
-14.893 -21.8348 -24.713
-2.28351 24.6213 -24.713
-5.9 2.95 77.464
-5.1269 -2.4617 77.464
-11.4387 -28.15 -85.628
-15.2 -25.6766 -85.628
-5.00747 -13.6828 40.977
8.71072 -13.0124 40.977
3.33559 -15.8593 40.977
-6.61033 8.68034 -2.813
-8.55813 -26.6612 -24.713
14.6694 9.69444 19.087
1.20216 0.602334 -85.628
-4.26937 17.3049 19.087
-5.09573 14.2605 -85.628
7.59154 -0.636358 62.877
14.6694 9.69444 -2.813
2.41388 -20.9903 -24.713
-2.4671 -18.9327 -2.813
-6.61033 8.68034 51.927
-15.2 -22.9658 -24.713
7.27672 -18.4769 -85.628
-10.8368 -6.8908 19.087
12.9889 3.29054 40.977
9.01478 -11.8537 19.087
8.71072 -13.0124 -2.813
1.61937 22.9391 -2.813
0.292306 -15.0654 19.087
10.3103 -6.91674 51.927
12.9889 3.29054 62.877
-9.30716 -1.25532 51.927
-6.61033 8.68034 62.877
-6.41987 9.38207 40.977
-9.21591 -16.0877 19.087
11.7301 14.965 -2.813
-15.2 -28.15 -24.713
14.284 8.22561 19.087
11.7301 14.965 -24.713
-3.46667 20.2623 -2.813
1.76744 1.39035 -85.628
-4.26937 17.3049 -2.813
4.6877 -15.1431 -85.628
-5.26421 13.6398 -24.713
-12.9104 -14.5302 19.087
4.37692 28.15 -85.628
-13.7892 -17.7683 -2.813
-8.63631 1.21622 40.977
8.71072 -13.0124 19.087
11.7301 14.965 19.087
4  177 190 37 220  255 0 0
4  177 220 69 189  255 0 0
5  177 189 38 35 190  255 0 0
5  131 190 35 153 183  255 0 0
4  132 229 147 82  255 0 0
7  132 0 100 29 25 72 229  255 0 0
4  131 205 37 190  255 0 0
4  132 82 1 0  255 0 0
4  131 183 185 205  255 0 0
6  206 184 86 226 41 24  255 0 0
4  206 79 143 184  255 0 0
4  189 69 195 38  255 0 0
5  206 24 150 202 79  255 0 0
4  79 75 58 143  255 0 0
4  79 202 154 75  255 0 0
5  69 220 37 164 195  255 0 0
7  82 147 77 95 65 186 1  255 0 0
5  205 185 152 164 37  255 0 0
6  114 143 58 16 23 145  255 0 0
4  114 145 168 222  255 0 0
5  75 14 136 210 58  255 0 0
4  145 201 219 168  255 0 0
4  75 154 181 14  255 0 0
5  145 23 22 161 201  255 0 0
5  201 196 111 233 219  255 0 0
4  14 33 102 136  255 0 0
4  14 181 124 33  255 0 0
4  201 161 221 196  255 0 0
6  33 124 99 98 47 102  255 0 0
5  196 221 13 12 111  255 0 0
4  182 184 143 114  255 0 0
5  182 116 117 86 184  255 0 0
4  147 229 72 77  255 0 0
5  114 222 115 116 182  255 0 0
4  198 123 158 225  255 0 0
7  233 111 12 141 17 4 5  255 0 0
6  198 18 4 17 87 123  255 0 0
4  219 20 146 168  255 0 0
7  225 223 211 20 219 26 30  255 0 0
5  225 158 101 32 89  255 0 0
8  233 5 18 198 225 30 26 219  255 0 0
5  181 80 78 203 113  255 0 0
5  228 155 45 43 218  255 0 0
7  122 194 36 207 48 155 228  255 0 0
4  122 230 159 151  255 0 0
5  122 203 78 91 230  255 0 0
4  124 181 113 99  255 0 0
5  228 218 52 203 122  255 0 0
4  192 139 209 232  255 0 0
7  232 209 134 31 34 15 210  255 0 0
3  232 102 47  255 0 0
6  52 218 43 212 47 98  255 0 0
4  52 99 113 203  255 0 0
3  52 98 99  255 0 0
7  192 193 21 128 135 88 139  255 0 0
4  232 47 193 192  255 0 0
4  221 31 208 50  255 0 0
6  50 208 170 54 140 11  255 0 0
6  123 84 36 194 101 158  255 0 0
3  123 87 84  255 0 0
4  50 11 13 221  255 0 0
4  44 204 216 60  255 0 0
5  44 108 231 160 204  255 0 0
5  40 119 213 83 56  255 0 0
5  40 163 208 142 119  255 0 0
5  44 60 133 215 108  255 0 0
4  40 56 214 163  255 0 0
5  168 146 96 115 222  255 0 0
6  89 32 151 157 227 148  255 0 0
4  89 67 223 225  255 0 0
4  148 64 67 89  255 0 0
5  148 227 199 126 64  255 0 0
5  215 93 92 231 108  255 0 0
4  213 70 76 83  255 0 0
5  213 119 142 139 70  255 0 0
5  215 133 120 180 93  255 0 0
4  83 165 167 56  255 0 0
5  133 51 188 176 106  255 0 0
4  83 55 166 165  255 0 0
5  83 76 109 178 55  255 0 0
5  133 106 3 105 120  255 0 0
4  100 0 1 186  255 0 0
4  226 86 117 138  255 0 0
5  226 138 224 42 41  255 0 0
4  186 65 29 100  255 0 0
5  224 27 94 197 42  255 0 0
8  224 138 117 116 121 25 29 27  255 0 0
4  185 183 153 152  255 0 0
4  31 134 142 208  255 0 0
5  31 221 161 22 34  255 0 0
4  36 84 217 160  255 0 0
6  160 231 92 81 207 36  255 0 0
8  160 217 85 19 140 54 9 112  255 0 0
4  204 160 112 110  255 0 0
5  163 10 9 170 208  255 0 0
5  157 173 174 199 227  255 0 0
4  154 74 80 181  255 0 0
4  151 159 173 157  255 0 0
5  151 32 101 194 122  255 0 0
5  202 150 28 74 154  255 0 0
4  81 92 93 180  255 0 0
4  81 46 48 207  255 0 0
3  135 128 107  255 0 0
6  81 107 128 191 49 46  255 0 0
4  180 104 107 81  255 0 0
4  135 107 104 39  255 0 0
4  134 209 139 142  255 0 0
4  56 167 127 200  255 0 0
4  60 53 51 133  255 0 0
5  60 171 68 187 53  255 0 0
7  56 200 8 68 171 169 214  255 0 0
4  60 216 169 171  255 0 0
5  216 204 110 10 169  255 0 0
4  214 169 10 163  255 0 0
4  210 136 102 232  255 0 0
4  210 15 16 58  255 0 0
4  77 96 6 95  255 0 0
4  72 121 96 77  255 0 0
3  72 25 121  255 0 0
5  178 2 175 166 55  255 0 0
5  178 109 105 3 2  255 0 0
4  200 127 7 8  255 0 0
4  166 61 63 97  255 0 0
4  166 175 62 61  255 0 0
6  127 97 175 188 137 7  255 0 0
5  53 187 137 188 51  255 0 0
5  199 174 153 172 94  255 0 0
8  197 172 153 35 156 149 41 42  255 0 0
3  197 94 172  255 0 0
5  199 94 27 29 126  255 0 0
4  195 28 125 38  255 0 0
5  164 130 129 28 195  255 0 0
5  38 125 118 156 35  255 0 0
3  191 128 21  255 0 0
4  193 47 212 21  255 0 0
4  191 21 212 43  255 0 0
4  120 105 104 180  255 0 0
4  39 104 105 109  255 0 0
4  188 175 2 176  255 0 0
4  187 7 59 103  255 0 0
4  187 103 57 137  255 0 0
4  66 65 95 144  255 0 0
4  162 73 130 164  255 0 0
5  162 164 152 173 159  255 0 0
3  155 48 45  255 0 0
4  43 45 49 191  255 0 0
4  97 63 62 175  255 0 0
4  152 153 174 173  255 0 0
4  10 110 112 9  255 0 0
4  91 78 73 162  255 0 0
4  91 162 159 230  255 0 0
5  167 165 166 97 127  255 0 0
5  125 24 41 149 118  255 0 0
4  28 150 24 125  255 0 0
3  156 118 149  255 0 0
5  223 67 66 144 211  255 0 0
5  211 144 179 146 20  255 0 0
4  141 13 11 140  255 0 0
4  140 19 17 141  255 0 0
3  9 54 170  255 0 0
4  7 187 68 8  255 0 0
4  137 57 59 7  255 0 0
4  39 90 88 135  255 0 0
4  139 88 90 70  255 0 0
4  73 71 129 130  255 0 0
4  28 129 71 74  255 0 0
4  121 116 115 96  255 0 0
5  109 76 70 90 39  255 0 0
4  106 176 2 3  255 0 0
4  144 95 6 179  255 0 0
4  146 179 6 96  255 0 0
4  87 17 19 85  255 0 0
4  87 85 217 84  255 0 0
5  78 80 74 71 73  255 0 0
4  67 64 65 66  255 0 0
3  63 61 62  255 0 0
3  59 57 103  255 0 0
4  48 46 49 45  255 0 0
5  34 22 23 16 15  255 0 0
4  64 126 29 65  255 0 0
3  141 12 13  255 0 0
3  18 5 4  255 0 0

