OFF
679 1332 0
834412.099999994040 815709.599999964237 80.757003784180
834413.899999976158 815711.000000000000 80.757003784180
834413.899999976158 815711.000000000000 19.941999435425
834412.099999994040 815709.599999964237 19.941999435425
834411.600000023842 815707.700000047684 80.757003784180
834411.600000023842 815707.700000047684 19.941999435425
834414.700000047684 815702.700000286102 80.757003784180
834414.700000047684 815702.700000286102 19.941999435425
834415.899999856949 815702.400000095367 80.757003784180
834415.899999856949 815702.400000095367 19.941999435425
834421.000000000000 815705.400000095367 80.757003784180
834421.000000000000 815705.400000095367 19.941999435425
834421.199999809265 815706.400000095367 80.757003784180
834421.199999809265 815706.400000095367 19.941999435425
834422.599999427795 815706.200000047684 80.757003784180
834422.599999427795 815706.200000047684 19.941999435425
834427.799999237061 815709.299999982119 80.757003784180
834427.799999237061 815709.299999982119 19.941999435425
834427.899999618530 815710.500000000000 80.757003784180
834427.899999618530 815710.500000000000 19.941999435425
834429.399999618530 815710.199999928474 80.757003784180
834429.399999618530 815710.199999928474 19.941999435425
834434.600000381470 815713.299999713898 80.757003784180
834434.600000381470 815713.299999713898 19.941999435425
834434.899999618530 815714.400000095367 80.757003784180
834434.899999618530 815714.400000095367 19.941999435425
834433.899999618530 815716.599999904633 80.757003784180
834433.899999618530 815716.599999904633 19.941999435425
834435.799999237061 815717.699999809265 80.757003784180
834435.799999237061 815717.699999809265 19.941999435425
834436.199998855591 815719.399999618530 80.757003784180
834436.199998855591 815719.399999618530 19.941999435425
834435.299999237061 815721.599999427795 80.757003784180
834435.299999237061 815721.599999427795 19.941999435425
834437.199998855591 815722.799999237061 80.757003784180
834437.199998855591 815722.799999237061 19.941999435425
834439.000000000000 815729.600000381470 80.757003784180
834439.000000000000 815729.600000381470 19.941999435425
834438.000000000000 815731.699998855591 80.757003784180
834438.000000000000 815731.699998855591 19.941999435425
834440.000000000000 815733.000000000000 80.757003784180
834440.000000000000 815733.000000000000 19.941999435425
834440.500000000000 815734.699998855591 80.757003784180
834440.500000000000 815734.699998855591 19.941999435425
834439.399999618530 815736.599998474121 80.757003784180
834439.399999618530 815736.599998474121 19.941999435425
834441.399999618530 815738.099998474121 80.757003784180
834441.399999618530 815738.099998474121 19.941999435425
834441.799999237061 815739.199998855591 80.757003784180
834441.799999237061 815739.199998855591 19.941999435425
834438.899999618530 815744.500000000000 80.757003784180
834438.899999618530 815744.500000000000 19.941999435425
834437.500000000000 815745.000000000000 80.757003784180
834437.500000000000 815745.000000000000 19.941999435425
834438.000000000000 815746.099998474121 80.757003784180
834438.000000000000 815746.099998474121 19.941999435425
834435.000000000000 815751.399997711182 80.757003784180
834435.000000000000 815751.399997711182 19.941999435425
834433.699998855591 815751.899997711182 80.757003784180
834433.699998855591 815751.899997711182 19.941999435425
834434.199998855591 815753.000000000000 80.757003784180
834434.199998855591 815753.000000000000 19.941999435425
834431.299999237061 815758.200000762939 80.757003784180
834431.299999237061 815758.200000762939 19.941999435425
834429.899999618530 815758.500000000000 80.757003784180
834429.899999618530 815758.500000000000 19.941999435425
834424.699999809265 815755.799999237061 80.757003784180
834424.699999809265 815755.799999237061 19.941999435425
834424.199999809265 815753.899997711182 80.757003784180
834424.199999809265 815753.899997711182 19.941999435425
834425.299999237061 815751.799999237061 80.757003784180
834425.299999237061 815751.799999237061 19.941999435425
834423.399999618530 815750.799999237061 80.757003784180
834423.399999618530 815750.799999237061 19.941999435425
834412.899999976158 815712.699999809265 80.757003784180
834412.899999976158 815712.699999809265 19.941999435425
834438.599998474121 815736.799999237061 80.757003784180
834440.799999237061 815738.500000000000 80.757003784180
834441.000000000000 815739.099998474121 80.757003784180
834436.600000381470 815744.700000762939 80.757003784180
834437.299999237061 815746.099998474121 80.757003784180
834434.500000000000 815750.899997711182 80.757003784180
834432.899999618530 815751.599998474121 80.757003784180
834433.399999618530 815753.000000000000 80.757003784180
834430.799999237061 815757.599998474121 80.757003784180
834430.000000000000 815757.799999237061 80.757003784180
834425.299999237061 815755.399997711182 80.757003784180
834425.000000000000 815754.000000000000 80.757003784180
834426.099999427795 815751.500000000000 80.757003784180
834423.800000190735 815750.399997711182 80.757003784180
834413.599999904633 815712.799999952316 80.757003784180
834438.399999618530 815743.899997711182 80.757003784180
834414.799999952316 815710.799999952316 80.757003784180
834415.000000000000 815703.400000095367 80.757003784180
834415.799999952316 815703.000000000000 80.757003784180
834420.399999618530 815705.800000190735 80.757003784180
834412.299999982119 815707.800000071526 80.757003784180
834420.699999809265 815707.100000023842 80.757003784180
834412.699999988079 815709.199999988079 80.757003784180
834422.500000000000 815706.900000095367 80.757003784180
834427.199999809265 815709.699999988079 80.757003784180
834427.399999618530 815711.200000047684 80.757003784180
834429.299999237061 815710.899999976158 80.757003784180
834434.000000000000 815713.699999809265 80.757003784180
834434.199998855591 815714.400000095367 80.757003784180
834433.100000381470 815717.000000000000 80.757003784180
834435.299999237061 815718.199999809265 80.757003784180
834435.600000381470 815719.399999618530 80.757003784180
834434.500000000000 815721.799999237061 80.757003784180
834436.600000381470 815723.299999237061 80.757003784180
834438.399999618530 815729.600000381470 80.757003784180
834437.100000381470 815731.899999618530 80.757003784180
834439.399999618530 815733.500000000000 80.757003784180
834439.799999237061 815734.699998855591 80.757003784180
834413.899999976158 815711.000000000000 81.431999206543
834412.099999994040 815709.599999964237 81.431999206543
834412.699999988079 815709.199999988079 81.431999206543
834414.799999952316 815710.799999952316 81.431999206543
834411.600000023842 815707.700000047684 81.431999206543
834412.299999982119 815707.800000071526 81.431999206543
834414.700000047684 815702.700000286102 81.431999206543
834415.000000000000 815703.400000095367 81.431999206543
834415.899999856949 815702.400000095367 81.431999206543
834415.799999952316 815703.000000000000 81.431999206543
834421.000000000000 815705.400000095367 81.431999206543
834420.399999618530 815705.800000190735 81.431999206543
834421.199999809265 815706.400000095367 81.431999206543
834420.699999809265 815707.100000023842 81.431999206543
834433.699998855591 815751.899997711182 81.431999206543
834434.199998855591 815753.000000000000 81.431999206543
834433.399999618530 815753.000000000000 81.431999206543
834432.899999618530 815751.599998474121 81.431999206543
834431.299999237061 815758.200000762939 81.431999206543
834430.799999237061 815757.599998474121 81.431999206543
834429.899999618530 815758.500000000000 81.431999206543
834430.000000000000 815757.799999237061 81.431999206543
834424.699999809265 815755.799999237061 81.431999206543
834425.299999237061 815755.399997711182 81.431999206543
834424.199999809265 815753.899997711182 81.431999206543
834425.000000000000 815754.000000000000 81.431999206543
834425.299999237061 815751.799999237061 81.431999206543
834426.099999427795 815751.500000000000 81.431999206543
834421.199999809265 815706.400000095367 95.467010498047
834415.799999952316 815707.800000071526 95.467010498047
834415.799999952316 815707.800000071526 80.757011413574
834421.199999809265 815706.400000095367 80.757011413574
834422.599999427795 815706.200000047684 95.467010498047
834422.599999427795 815706.200000047684 80.757011413574
834427.799999237061 815709.299999982119 95.467010498047
834427.799999237061 815709.299999982119 80.757011413574
834427.899999618530 815710.500000000000 95.467010498047
834427.899999618530 815710.500000000000 80.757011413574
834429.399999618530 815710.199999928474 95.467010498047
834429.399999618530 815710.199999928474 80.757011413574
834434.600000381470 815713.299999713898 95.467010498047
834434.600000381470 815713.299999713898 80.757011413574
834434.899999618530 815714.400000095367 95.467010498047
834434.899999618530 815714.400000095367 80.757011413574
834433.899999618530 815716.599999904633 95.467010498047
834433.899999618530 815716.599999904633 80.757011413574
834435.799999237061 815717.699999809265 95.467010498047
834435.799999237061 815717.699999809265 80.757011413574
834436.199998855591 815719.399999618530 95.467010498047
834436.199998855591 815719.399999618530 80.757011413574
834435.299999237061 815721.599999427795 95.467010498047
834435.299999237061 815721.599999427795 80.757011413574
834437.199998855591 815722.799999237061 95.467010498047
834437.199998855591 815722.799999237061 80.757011413574
834439.000000000000 815729.600000381470 95.467010498047
834439.000000000000 815729.600000381470 80.757011413574
834438.000000000000 815731.699998855591 95.467010498047
834438.000000000000 815731.699998855591 80.757011413574
834440.000000000000 815733.000000000000 95.467010498047
834440.000000000000 815733.000000000000 80.757011413574
834440.500000000000 815734.699998855591 95.467010498047
834440.500000000000 815734.699998855591 80.757011413574
834439.399999618530 815736.599998474121 95.467010498047
834439.399999618530 815736.599998474121 80.757011413574
834441.399999618530 815738.199998855591 95.467010498047
834441.399999618530 815738.199998855591 80.757011413574
834441.799999237061 815739.299999237061 95.467010498047
834441.799999237061 815739.299999237061 80.757011413574
834438.899999618530 815744.500000000000 95.467010498047
834438.899999618530 815744.500000000000 80.757011413574
834437.500000000000 815745.000000000000 95.467010498047
834437.500000000000 815745.000000000000 80.757011413574
834438.000000000000 815746.099998474121 95.467010498047
834438.000000000000 815746.099998474121 80.757011413574
834435.000000000000 815751.399997711182 95.467010498047
834435.000000000000 815751.399997711182 80.757011413574
834433.699998855591 815751.899997711182 95.467010498047
834433.699998855591 815751.899997711182 80.757011413574
834428.199998855591 815753.399997711182 95.467010498047
834428.199998855591 815753.399997711182 80.757011413574
834423.300000190735 815750.799999237061 95.467010498047
834423.300000190735 815750.799999237061 80.757011413574
834412.899999976158 815712.699999809265 95.467010498047
834412.899999976158 815712.699999809265 80.757011413574
834427.899999618530 815710.500000000000 124.556999206543
834417.400000095367 815713.299999713898 124.556999206543
834417.400000095367 815713.299999713898 102.656997680664
834427.899999618530 815710.500000000000 102.656997680664
834429.399999618530 815710.199999928474 124.556999206543
834429.399999618530 815710.199999928474 102.656997680664
834434.600000381470 815713.299999713898 124.556999206543
834434.600000381470 815713.299999713898 102.656997680664
834434.899999618530 815714.400000095367 124.556999206543
834434.899999618530 815714.400000095367 102.656997680664
834433.899999618530 815716.599999904633 124.556999206543
834433.899999618530 815716.599999904633 102.656997680664
834435.799999237061 815717.699999809265 124.556999206543
834435.799999237061 815717.699999809265 102.656997680664
834436.199998855591 815719.399999618530 124.556999206543
834436.199998855591 815719.399999618530 102.656997680664
834435.299999237061 815721.599999427795 124.556999206543
834435.299999237061 815721.599999427795 102.656997680664
834437.199998855591 815722.799999237061 124.556999206543
834437.199998855591 815722.799999237061 102.656997680664
834439.000000000000 815729.600000381470 124.556999206543
834439.000000000000 815729.600000381470 102.656997680664
834438.000000000000 815731.699998855591 124.556999206543
834438.000000000000 815731.699998855591 102.656997680664
834440.000000000000 815733.000000000000 124.556999206543
834440.000000000000 815733.000000000000 102.656997680664
834440.500000000000 815734.699998855591 124.556999206543
834440.500000000000 815734.699998855591 102.656997680664
834439.399999618530 815736.599998474121 124.556999206543
834439.399999618530 815736.599998474121 102.656997680664
834441.399999618530 815738.199998855591 124.556999206543
834441.399999618530 815738.199998855591 102.656997680664
834441.799999237061 815739.299999237061 124.556999206543
834441.799999237061 815739.299999237061 102.656997680664
834438.899999618530 815744.500000000000 124.556999206543
834438.899999618530 815744.500000000000 102.656997680664
834437.500000000000 815745.000000000000 124.556999206543
834437.500000000000 815745.000000000000 102.656997680664
834427.000000000000 815748.200000762939 124.556999206543
834427.000000000000 815748.200000762939 102.656997680664
834423.899999618530 815747.000000000000 124.556999206543
834423.899999618530 815747.000000000000 102.656997680664
834421.899999618530 815745.799999237061 124.556999206543
834421.899999618530 815745.799999237061 102.656997680664
834414.299999952316 815717.800000190735 124.556999206543
834414.299999952316 815717.800000190735 102.656997680664
834415.399999856949 815715.699999809265 124.556999206543
834415.399999856949 815715.699999809265 102.656997680664
834433.100000381470 815717.000000000000 124.556999206543
834435.299999237061 815718.199999809265 124.556999206543
834435.600000381470 815719.399999618530 124.556999206543
834440.799999237061 815738.500000000000 124.556999206543
834441.000000000000 815739.099998474121 124.556999206543
834438.399999618530 815743.899997711182 124.556999206543
834438.599998474121 815736.799999237061 124.556999206543
834437.299999237061 815744.500000000000 124.556999206543
834427.000000000000 815747.500000000000 124.556999206543
834424.199999809265 815746.399997711182 124.556999206543
834422.500000000000 815745.399997711182 124.556999206543
834415.000000000000 815717.899999618530 124.556999206543
834439.799999237061 815734.699998855591 124.556999206543
834439.399999618530 815733.500000000000 124.556999206543
834437.100000381470 815731.899999618530 124.556999206543
834438.399999618530 815729.600000381470 124.556999206543
834436.600000381470 815723.299999237061 124.556999206543
834434.500000000000 815721.799999237061 124.556999206543
834415.899999856949 815716.000000000000 124.556999206543
834417.799999713898 815713.799999713898 124.556999206543
834428.100000381470 815711.000000000000 124.556999206543
834429.299999237061 815710.899999976158 124.556999206543
834434.000000000000 815713.699999809265 124.556999206543
834434.199998855591 815714.400000095367 124.556999206543
834417.400000095367 815713.299999713898 125.232002258301
834427.899999618530 815710.500000000000 125.232002258301
834428.100000381470 815711.000000000000 125.232002258301
834417.799999713898 815713.799999713898 125.232002258301
834429.399999618530 815710.199999928474 125.232002258301
834429.299999237061 815710.899999976158 125.232002258301
834434.600000381470 815713.299999713898 125.232002258301
834434.000000000000 815713.699999809265 125.232002258301
834434.899999618530 815714.400000095367 125.232002258301
834434.199998855591 815714.400000095367 125.232002258301
834433.899999618530 815716.599999904633 125.232002258301
834433.100000381470 815717.000000000000 125.232002258301
834439.399999618530 815736.599998474121 125.232002258301
834441.399999618530 815738.199998855591 125.232002258301
834440.799999237061 815738.500000000000 125.232002258301
834438.599998474121 815736.799999237061 125.232002258301
834441.799999237061 815739.299999237061 125.232002258301
834441.000000000000 815739.099998474121 125.232002258301
834438.899999618530 815744.500000000000 125.232002258301
834438.399999618530 815743.899997711182 125.232002258301
834437.500000000000 815745.000000000000 125.232002258301
834437.299999237061 815744.500000000000 125.232002258301
834427.000000000000 815748.200000762939 125.232002258301
834427.000000000000 815747.500000000000 125.232002258301
834423.899999618530 815747.000000000000 125.232002258301
834424.199999809265 815746.399997711182 125.232002258301
834421.899999618530 815745.799999237061 125.232002258301
834422.500000000000 815745.399997711182 125.232002258301
834414.299999952316 815717.800000190735 125.232002258301
834415.000000000000 815717.899999618530 125.232002258301
834415.399999856949 815715.699999809265 125.232002258301
834415.899999856949 815716.000000000000 125.232002258301
834421.199999809265 815706.400000095367 102.656997680664
834415.799999952316 815707.800000071526 102.656997680664
834415.799999952316 815707.800000071526 95.467002868652
834421.199999809265 815706.400000095367 95.467002868652
834422.599999427795 815706.200000047684 102.656997680664
834422.599999427795 815706.200000047684 95.467002868652
834427.799999237061 815709.299999982119 102.656997680664
834427.799999237061 815709.299999982119 95.467002868652
834427.899999618530 815710.500000000000 102.656997680664
834427.899999618530 815710.500000000000 95.467002868652
834429.399999618530 815710.199999928474 102.656997680664
834429.399999618530 815710.199999928474 95.467002868652
834434.600000381470 815713.299999713898 102.656997680664
834434.600000381470 815713.299999713898 95.467002868652
834434.899999618530 815714.400000095367 102.656997680664
834434.899999618530 815714.400000095367 95.467002868652
834433.899999618530 815716.599999904633 102.656997680664
834433.899999618530 815716.599999904633 95.467002868652
834435.799999237061 815717.699999809265 102.656997680664
834435.799999237061 815717.699999809265 95.467002868652
834436.199998855591 815719.399999618530 102.656997680664
834436.199998855591 815719.399999618530 95.467002868652
834435.299999237061 815721.599999427795 102.656997680664
834435.299999237061 815721.599999427795 95.467002868652
834437.199998855591 815722.799999237061 102.656997680664
834437.199998855591 815722.799999237061 95.467002868652
834439.000000000000 815729.600000381470 102.656997680664
834439.000000000000 815729.600000381470 95.467002868652
834438.000000000000 815731.699998855591 102.656997680664
834438.000000000000 815731.699998855591 95.467002868652
834440.000000000000 815733.000000000000 102.656997680664
834440.000000000000 815733.000000000000 95.467002868652
834440.500000000000 815734.699998855591 102.656997680664
834440.500000000000 815734.699998855591 95.467002868652
834439.399999618530 815736.599998474121 102.656997680664
834439.399999618530 815736.599998474121 95.467002868652
834441.399999618530 815738.199998855591 102.656997680664
834441.399999618530 815738.199998855591 95.467002868652
834441.799999237061 815739.299999237061 102.656997680664
834441.799999237061 815739.299999237061 95.467002868652
834438.899999618530 815744.500000000000 102.656997680664
834438.899999618530 815744.500000000000 95.467002868652
834437.500000000000 815745.000000000000 102.656997680664
834437.500000000000 815745.000000000000 95.467002868652
834438.000000000000 815746.099998474121 102.656997680664
834438.000000000000 815746.099998474121 95.467002868652
834435.000000000000 815751.399997711182 102.656997680664
834435.000000000000 815751.399997711182 95.467002868652
834433.699998855591 815751.899997711182 102.656997680664
834433.699998855591 815751.899997711182 95.467002868652
834428.199998855591 815753.399997711182 102.656997680664
834428.199998855591 815753.399997711182 95.467002868652
834423.300000190735 815750.799999237061 102.656997680664
834423.300000190735 815750.799999237061 95.467002868652
834422.899999618530 815749.099998474121 102.656997680664
834422.899999618530 815749.099998474121 95.467002868652
834423.899999618530 815747.000000000000 102.656997680664
834423.899999618530 815747.000000000000 95.467002868652
834421.899999618530 815745.799999237061 102.656997680664
834421.899999618530 815745.799999237061 95.467002868652
834414.299999952316 815717.800000190735 102.656997680664
834414.299999952316 815717.800000190735 95.467002868652
834415.399999856949 815715.699999809265 102.656997680664
834415.399999856949 815715.699999809265 95.467002868652
834413.399999976158 815714.500000000000 102.656997680664
834413.399999976158 815714.500000000000 95.467002868652
834412.899999976158 815712.699999809265 102.656997680664
834412.899999976158 815712.699999809265 95.467002868652
834440.799999237061 815738.500000000000 102.656997680664
834441.000000000000 815739.099998474121 102.656997680664
834438.399999618530 815743.899997711182 102.656997680664
834436.600000381470 815744.700000762939 102.656997680664
834437.299999237061 815746.099998474121 102.656997680664
834434.500000000000 815750.899997711182 102.656997680664
834428.299999237061 815752.599998474121 102.656997680664
834423.800000190735 815750.399997711182 102.656997680664
834423.599999427795 815749.200000762939 102.656997680664
834424.799999237061 815746.700000762939 102.656997680664
834433.500000000000 815751.399997711182 102.656997680664
834416.199999809265 815715.399999618530 102.656997680664
834413.899999976158 815714.000000000000 102.656997680664
834413.599999904633 815712.799999952316 102.656997680664
834416.199999809265 815708.300000011921 102.656997680664
834421.300000190735 815707.000000000000 102.656997680664
834422.500000000000 815706.900000095367 102.656997680664
834427.199999809265 815709.699999988079 102.656997680664
834427.399999618530 815711.200000047684 102.656997680664
834429.299999237061 815710.899999976158 102.656997680664
834434.000000000000 815713.699999809265 102.656997680664
834434.199998855591 815714.400000095367 102.656997680664
834433.100000381470 815717.000000000000 102.656997680664
834435.299999237061 815718.199999809265 102.656997680664
834435.600000381470 815719.399999618530 102.656997680664
834434.500000000000 815721.799999237061 102.656997680664
834415.000000000000 815717.899999618530 102.656997680664
834436.600000381470 815723.299999237061 102.656997680664
834438.399999618530 815729.600000381470 102.656997680664
834437.100000381470 815731.899999618530 102.656997680664
834439.399999618530 815733.500000000000 102.656997680664
834439.799999237061 815734.699998855591 102.656997680664
834438.599998474121 815736.799999237061 102.656997680664
834422.500000000000 815745.399997711182 102.656997680664
834415.799999952316 815707.800000071526 103.332000732422
834421.199999809265 815706.400000095367 103.332000732422
834421.300000190735 815707.000000000000 103.332000732422
834416.199999809265 815708.300000011921 103.332000732422
834422.599999427795 815706.200000047684 103.332000732422
834422.500000000000 815706.900000095367 103.332000732422
834427.799999237061 815709.299999982119 103.332000732422
834427.199999809265 815709.699999988079 103.332000732422
834427.899999618530 815710.500000000000 103.332000732422
834427.399999618530 815711.200000047684 103.332000732422
834437.500000000000 815745.000000000000 103.332000732422
834438.000000000000 815746.099998474121 103.332000732422
834437.299999237061 815746.099998474121 103.332000732422
834436.600000381470 815744.700000762939 103.332000732422
834435.000000000000 815751.399997711182 103.332000732422
834434.500000000000 815750.899997711182 103.332000732422
834433.699998855591 815751.899997711182 103.332000732422
834433.500000000000 815751.399997711182 103.332000732422
834428.199998855591 815753.399997711182 103.332000732422
834428.299999237061 815752.599998474121 103.332000732422
834423.300000190735 815750.799999237061 103.332000732422
834423.800000190735 815750.399997711182 103.332000732422
834422.899999618530 815749.099998474121 103.332000732422
834423.599999427795 815749.200000762939 103.332000732422
834423.899999618530 815747.000000000000 103.332000732422
834424.799999237061 815746.700000762939 103.332000732422
834415.399999856949 815715.699999809265 103.332000732422
834413.399999976158 815714.500000000000 103.332000732422
834413.899999976158 815714.000000000000 103.332000732422
834416.199999809265 815715.399999618530 103.332000732422
834412.899999976158 815712.699999809265 103.332000732422
834413.599999904633 815712.799999952316 103.332000732422
834430.000000000000 815714.599999904633 146.447006225586
834418.500000000000 815717.599999427795 146.447006225586
834418.500000000000 815717.599999427795 124.556999206543
834430.000000000000 815714.599999904633 124.556999206543
834433.899999618530 815716.599999904633 146.447006225586
834433.899999618530 815716.599999904633 124.556999206543
834435.799999237061 815717.699999809265 146.447006225586
834435.799999237061 815717.699999809265 124.556999206543
834436.199998855591 815719.399999618530 146.447006225586
834436.199998855591 815719.399999618530 124.556999206543
834435.299999237061 815721.599999427795 146.447006225586
834435.299999237061 815721.599999427795 124.556999206543
834437.199998855591 815722.799999237061 146.447006225586
834437.199998855591 815722.799999237061 124.556999206543
834439.000000000000 815729.600000381470 146.447006225586
834439.000000000000 815729.600000381470 124.556999206543
834438.000000000000 815731.699998855591 146.447006225586
834438.000000000000 815731.699998855591 124.556999206543
834440.000000000000 815733.000000000000 146.447006225586
834440.000000000000 815733.000000000000 124.556999206543
834440.500000000000 815734.699998855591 146.447006225586
834440.500000000000 815734.699998855591 124.556999206543
834439.399999618530 815736.599998474121 146.447006225586
834439.399999618530 815736.599998474121 124.556999206543
834437.799999237061 815739.599998474121 146.447006225586
834437.799999237061 815739.599998474121 124.556999206543
834425.399999618530 815743.200000762939 146.447006225586
834425.399999618530 815743.200000762939 124.556999206543
834420.599999427795 815740.599998474121 146.447006225586
834420.599999427795 815740.599998474121 124.556999206543
834415.599999904633 815722.599999427795 146.447006225586
834415.599999904633 815722.599999427795 124.556999206543
834433.600000381470 815717.300000190735 146.447006225586
834435.299999237061 815718.199999809265 146.447006225586
834435.600000381470 815719.399999618530 146.447006225586
834434.500000000000 815721.799999237061 146.447006225586
834436.600000381470 815723.299999237061 146.447006225586
834438.399999618530 815729.600000381470 146.447006225586
834425.500000000000 815742.500000000000 146.447006225586
834421.000000000000 815740.199998855591 146.447006225586
834416.299999713898 815722.699999809265 146.447006225586
834437.299999237061 815739.000000000000 146.447006225586
834438.899999618530 815736.299999237061 146.447006225586
834439.799999237061 815734.699998855591 146.447006225586
834439.399999618530 815733.500000000000 146.447006225586
834437.100000381470 815731.899999618530 146.447006225586
834418.899999618530 815718.199999809265 146.447006225586
834429.899999618530 815715.399999618530 146.447006225586
834418.500000000000 815717.599999427795 147.121994018555
834430.000000000000 815714.599999904633 147.121994018555
834429.899999618530 815715.399999618530 147.121994018555
834418.899999618530 815718.199999809265 147.121994018555
834433.899999618530 815716.599999904633 147.121994018555
834433.600000381470 815717.300000190735 147.121994018555
834435.799999237061 815717.699999809265 147.121994018555
834435.299999237061 815718.199999809265 147.121994018555
834436.199998855591 815719.399999618530 147.121994018555
834435.600000381470 815719.399999618530 147.121994018555
834435.299999237061 815721.599999427795 147.121994018555
834434.500000000000 815721.799999237061 147.121994018555
834438.000000000000 815731.699998855591 147.121994018555
834440.000000000000 815733.000000000000 147.121994018555
834439.399999618530 815733.500000000000 147.121994018555
834437.100000381470 815731.899999618530 147.121994018555
834440.500000000000 815734.699998855591 147.121994018555
834439.799999237061 815734.699998855591 147.121994018555
834439.399999618530 815736.599998474121 147.121994018555
834438.899999618530 815736.299999237061 147.121994018555
834437.799999237061 815739.599998474121 147.121994018555
834437.299999237061 815739.000000000000 147.121994018555
834425.399999618530 815743.200000762939 147.121994018555
834425.500000000000 815742.500000000000 147.121994018555
834420.599999427795 815740.599998474121 147.121994018555
834421.000000000000 815740.199998855591 147.121994018555
834415.599999904633 815722.599999427795 147.121994018555
834416.299999713898 815722.699999809265 147.121994018555
834430.899999618530 815719.800000190735 157.397003173828
834419.699999809265 815722.599999427795 157.397003173828
834419.699999809265 815722.599999427795 146.447006225586
834430.899999618530 815719.800000190735 146.447006225586
834435.299999237061 815721.599999427795 157.397003173828
834435.299999237061 815721.599999427795 146.447006225586
834437.199998855591 815722.799999237061 157.397003173828
834437.199998855591 815722.799999237061 146.447006225586
834439.000000000000 815729.600000381470 157.397003173828
834439.000000000000 815729.600000381470 146.447006225586
834438.000000000000 815731.699998855591 157.397003173828
834438.000000000000 815731.699998855591 146.447006225586
834436.199998855591 815734.699998855591 157.397003173828
834436.199998855591 815734.699998855591 146.447006225586
834424.199999809265 815738.000000000000 157.397003173828
834424.199999809265 815738.000000000000 146.447006225586
834419.099999904633 815735.399999618530 157.397003173828
834419.099999904633 815735.399999618530 146.447006225586
834417.099999904633 815728.100000381470 157.397003173828
834417.199999809265 815728.100000381470 146.447006225586
834430.899999618530 815719.800000190735 168.346984863281
834419.699999809265 815722.599999427795 168.346984863281
834419.699999809265 815722.599999427795 157.397003173828
834430.899999618530 815719.800000190735 157.397003173828
834435.299999237061 815721.599999427795 168.346984863281
834435.299999237061 815721.599999427795 157.397003173828
834437.199998855591 815722.799999237061 168.346984863281
834437.199998855591 815722.799999237061 157.397003173828
834437.599998474121 815724.199999809265 168.346984863281
834437.599998474121 815724.199999809265 157.397003173828
834436.699998855591 815725.399999618530 168.346984863281
834436.699998855591 815725.399999618530 157.397003173828
834438.199998855591 815726.199998855591 168.346984863281
834438.199998855591 815726.199998855591 157.397003173828
834437.399999618530 815727.600000381470 168.346984863281
834437.399999618530 815727.600000381470 157.397003173828
834438.599998474121 815728.199998855591 168.346984863281
834438.599998474121 815728.199998855591 157.397003173828
834439.000000000000 815729.600000381470 168.346984863281
834439.000000000000 815729.600000381470 157.397003173828
834438.000000000000 815731.699998855591 168.346984863281
834438.000000000000 815731.699998855591 157.397003173828
834436.199998855591 815734.699998855591 168.346984863281
834436.199998855591 815734.699998855591 157.397003173828
834424.199999809265 815738.000000000000 168.346984863281
834424.199999809265 815738.000000000000 157.397003173828
834419.099999904633 815735.399999618530 168.346984863281
834419.099999904633 815735.399999618530 157.397003173828
834418.699999809265 815733.899999618530 168.346984863281
834418.699999809265 815733.899999618530 157.397003173828
834419.500000000000 815732.600000381470 168.346984863281
834419.500000000000 815732.600000381470 157.397003173828
834418.099999904633 815731.600000381470 168.346984863281
834418.099999904633 815731.600000381470 157.397003173828
834418.799999713898 815730.199998855591 168.346984863281
834418.799999713898 815730.199998855591 157.397003173828
834417.500000000000 815729.399999618530 168.346984863281
834417.500000000000 815729.399999618530 157.397003173828
834417.099999904633 815728.199998855591 168.346984863281
834417.099999904633 815728.199998855591 157.397003173828
834436.500000000000 815727.899999618530 168.346984863281
834438.199998855591 815728.699998855591 168.346984863281
834438.399999618530 815729.600000381470 168.346984863281
834437.399999618530 815731.399999618530 168.346984863281
834419.599999904633 815735.000000000000 168.346984863281
834419.399999618530 815734.000000000000 168.346984863281
834420.300000190735 815732.299999237061 168.346984863281
834424.199999809265 815737.399999618530 168.346984863281
834435.799999237061 815734.199998855591 168.346984863281
834419.000000000000 815731.399999618530 168.346984863281
834419.699999809265 815729.899999618530 168.346984863281
834417.799999713898 815728.199998855591 168.346984863281
834420.199999809265 815723.099999427795 168.346984863281
834430.899999618530 815720.500000000000 168.346984863281
834418.099999904633 815729.000000000000 168.346984863281
834435.000000000000 815722.199999809265 168.346984863281
834436.600000381470 815723.299999237061 168.346984863281
834436.899999618530 815724.099999427795 168.346984863281
834435.799999237061 815725.600000381470 168.346984863281
834437.299999237061 815726.500000000000 168.346984863281
834419.699999809265 815722.599999427795 169.021987915039
834430.899999618530 815719.800000190735 169.021987915039
834430.899999618530 815720.500000000000 169.021987915039
834420.199999809265 815723.099999427795 169.021987915039
834435.299999237061 815721.599999427795 169.021987915039
834435.000000000000 815722.199999809265 169.021987915039
834437.199998855591 815722.799999237061 169.021987915039
834436.600000381470 815723.299999237061 169.021987915039
834437.599998474121 815724.199999809265 169.021987915039
834436.899999618530 815724.099999427795 169.021987915039
834436.699998855591 815725.399999618530 169.021987915039
834435.799999237061 815725.600000381470 169.021987915039
834437.399999618530 815727.600000381470 169.021987915039
834438.599998474121 815728.199998855591 169.021987915039
834438.199998855591 815728.699998855591 169.021987915039
834436.500000000000 815727.899999618530 169.021987915039
834439.000000000000 815729.600000381470 169.021987915039
834438.399999618530 815729.600000381470 169.021987915039
834438.000000000000 815731.699998855591 169.021987915039
834437.399999618530 815731.399999618530 169.021987915039
834436.199998855591 815734.699998855591 169.021987915039
834435.799999237061 815734.199998855591 169.021987915039
834424.199999809265 815738.000000000000 169.021987915039
834424.199999809265 815737.399999618530 169.021987915039
834419.099999904633 815735.399999618530 169.021987915039
834419.599999904633 815735.000000000000 169.021987915039
834418.699999809265 815733.899999618530 169.021987915039
834419.399999618530 815734.000000000000 169.021987915039
834419.500000000000 815732.600000381470 169.021987915039
834420.300000190735 815732.299999237061 169.021987915039
834418.799999713898 815730.199998855591 169.021987915039
834417.500000000000 815729.399999618530 169.021987915039
834418.099999904633 815729.000000000000 169.021987915039
834419.699999809265 815729.899999618530 169.021987915039
834417.099999904633 815728.199998855591 169.021987915039
834417.799999713898 815728.199998855591 169.021987915039
834438.199998855591 815726.199998855591 182.934005737305
834434.699998855591 815724.199999809265 182.934005737305
834434.699998855591 815724.199999809265 168.346984863281
834438.199998855591 815726.199998855591 168.346984863281
834436.600000381470 815729.199998855591 182.934005737305
834436.600000381470 815729.199998855591 168.346984863281
834420.800000190735 815733.399999618530 182.934005737305
834420.800000190735 815733.399999618530 168.346984863281
834418.099999904633 815731.600000381470 182.934005737305
834418.099999904633 815731.600000381470 168.346984863281
834419.799999713898 815728.500000000000 182.934005737305
834419.799999713898 815728.500000000000 168.346984863281
834434.600000381470 815724.899999618530 182.934005737305
834437.299999237061 815726.500000000000 182.934005737305
834436.199998855591 815728.600000381470 182.934005737305
834420.899999618530 815732.699998855591 182.934005737305
834419.000000000000 815731.399999618530 182.934005737305
834420.199999809265 815729.000000000000 182.934005737305
834436.600000381470 815729.199998855591 190.988998413086
834420.800000190735 815733.399999618530 190.988998413086
834420.899999618530 815732.699998855591 190.988998413086
834436.199998855591 815728.600000381470 190.988998413086
834419.799999713898 815728.500000000000 190.988998413086
834434.699998855591 815724.199999809265 190.988998413086
834434.600000381470 815724.899999618530 190.988998413086
834420.199999809265 815729.000000000000 190.988998413086
834422.800000190735 815730.299999237061 190.998001098633
834419.799999713898 815728.500000000000 190.988998413086
834419.799999713898 815728.500000000000 182.934005737305
834422.800000190735 815730.299999237061 182.943008422852
834420.800000190735 815733.399999618530 182.934005737305
834418.099999904633 815731.600000381470 190.988998413086
834438.199998855591 815726.199998855591 190.988998413086
834433.100000381470 815727.299999237061 190.996093750000
834433.100000381470 815727.299999237061 182.940994262695
834422.199999809265 815730.500000000000 188.996994018555
834420.699999809265 815732.899999618530 188.988998413086
834418.599999904633 815731.399999618530 188.989990234375
834419.899999618530 815729.000000000000 188.989089965820
834437.599998474121 815726.299999237061 188.989807128906
834436.399999618530 815728.600000381470 188.988998413086
834433.600000381470 815727.000000000000 188.995285034180
834434.899999618530 815724.699999809265 188.989089965820
834437.599998474121 815726.299999237061 190.989807128906
834434.899999618530 815724.699999809265 190.989089965820
834436.399999618530 815728.600000381470 190.988998413086
834433.600000381470 815727.000000000000 190.995285034180
834422.199999809265 815730.500000000000 190.996994018555
834419.899999618530 815729.000000000000 190.989089965820
834420.699999809265 815732.899999618530 190.988998413086
834418.599999904633 815731.399999618530 190.989990234375
3 0 1 2
3 2 3 0
3 4 0 3
3 3 5 4
3 6 4 5
3 5 7 6
3 8 6 7
3 7 9 8
3 10 8 9
3 9 11 10
3 12 10 11
3 11 13 12
3 14 12 13
3 13 15 14
3 16 14 15
3 15 17 16
3 18 16 17
3 17 19 18
3 20 18 19
3 19 21 20
3 22 20 21
3 21 23 22
3 24 22 23
3 23 25 24
3 26 24 25
3 25 27 26
3 28 26 27
3 27 29 28
3 30 28 29
3 29 31 30
3 32 30 31
3 31 33 32
3 34 32 33
3 33 35 34
3 36 34 35
3 35 37 36
3 38 36 37
3 37 39 38
3 40 38 39
3 39 41 40
3 42 40 41
3 41 43 42
3 44 42 43
3 43 45 44
3 46 44 45
3 45 47 46
3 48 46 47
3 47 49 48
3 50 48 49
3 49 51 50
3 52 50 51
3 51 53 52
3 54 52 53
3 53 55 54
3 56 54 55
3 55 57 56
3 58 56 57
3 57 59 58
3 60 58 59
3 59 61 60
3 62 60 61
3 61 63 62
3 64 62 63
3 63 65 64
3 66 64 65
3 65 67 66
3 68 66 67
3 67 69 68
3 70 68 69
3 69 71 70
3 72 70 71
3 71 73 72
3 74 72 73
3 73 75 74
3 1 74 75
3 75 2 1
3 45 43 41
3 45 41 39
3 39 37 35
3 39 35 33
3 31 29 27
3 33 31 27
3 25 23 21
3 27 25 21
3 27 21 19
3 19 17 15
3 19 15 13
3 11 9 7
3 11 7 5
3 13 11 5
3 13 5 3
3 13 3 2
3 19 13 2
3 27 19 2
3 33 27 2
3 39 33 2
3 45 39 2
3 75 73 71
3 63 61 59
3 65 63 59
3 67 65 59
3 69 67 59
3 71 69 59
3 75 71 59
3 75 59 57
3 57 55 53
3 75 57 53
3 75 53 51
3 75 51 49
3 2 75 49
3 45 2 49
3 45 49 47
3 76 77 78
3 79 80 81
3 82 83 84
3 82 84 85
3 82 85 86
3 82 86 87
3 82 87 88
3 88 89 90
3 82 88 90
3 81 82 90
3 79 81 90
3 91 79 90
3 78 91 90
3 78 90 92
3 76 78 92
3 93 94 95
3 96 93 95
3 96 95 97
3 98 96 97
3 92 98 97
3 99 100 101
3 97 99 101
3 92 97 101
3 102 103 104
3 102 104 105
3 101 102 105
3 92 101 105
3 105 106 107
3 105 107 108
3 92 105 108
3 109 110 111
3 108 109 111
3 92 108 111
3 76 92 111
3 76 111 112
3 76 112 113
3 114 115 116
3 116 117 114
3 115 118 119
3 119 116 115
3 118 120 121
3 121 119 118
3 120 122 123
3 123 121 120
3 122 124 125
3 125 123 122
3 124 126 127
3 127 125 124
3 12 14 99
3 99 97 12
3 14 16 100
3 100 99 14
3 16 18 101
3 101 100 16
3 18 20 102
3 102 101 18
3 20 22 103
3 103 102 20
3 22 24 104
3 104 103 22
3 24 26 105
3 105 104 24
3 26 28 106
3 106 105 26
3 28 30 107
3 107 106 28
3 30 32 108
3 108 107 30
3 32 34 109
3 109 108 32
3 34 36 110
3 110 109 34
3 36 38 111
3 111 110 36
3 38 40 112
3 112 111 38
3 40 42 113
3 113 112 40
3 42 44 76
3 76 113 42
3 44 46 77
3 77 76 44
3 46 48 78
3 78 77 46
3 48 50 91
3 91 78 48
3 50 52 79
3 79 91 50
3 52 54 80
3 80 79 52
3 54 56 81
3 81 80 54
3 56 58 82
3 82 81 56
3 128 129 130
3 130 131 128
3 129 132 133
3 133 130 129
3 132 134 135
3 135 133 132
3 134 136 137
3 137 135 134
3 136 138 139
3 139 137 136
3 138 140 141
3 141 139 138
3 70 72 89
3 89 88 70
3 72 74 90
3 90 89 72
3 74 1 92
3 92 90 74
3 1 0 115
3 115 114 1
3 0 4 118
3 118 115 0
3 4 6 120
3 120 118 4
3 6 8 122
3 122 120 6
3 8 10 124
3 124 122 8
3 10 12 126
3 126 124 10
3 12 97 127
3 127 126 12
3 97 95 125
3 125 127 97
3 95 94 123
3 123 125 95
3 94 93 121
3 121 123 94
3 93 96 119
3 119 121 93
3 96 98 116
3 116 119 96
3 98 92 117
3 117 116 98
3 92 1 114
3 114 117 92
3 58 60 129
3 129 128 58
3 60 62 132
3 132 129 60
3 62 64 134
3 134 132 62
3 64 66 136
3 136 134 64
3 66 68 138
3 138 136 66
3 68 70 140
3 140 138 68
3 70 88 141
3 141 140 70
3 88 87 139
3 139 141 88
3 87 86 137
3 137 139 87
3 86 85 135
3 135 137 86
3 85 84 133
3 133 135 85
3 84 83 130
3 130 133 84
3 83 82 131
3 131 130 83
3 82 58 128
3 128 131 82
3 142 143 144
3 144 145 142
3 146 142 145
3 145 147 146
3 148 146 147
3 147 149 148
3 150 148 149
3 149 151 150
3 152 150 151
3 151 153 152
3 154 152 153
3 153 155 154
3 156 154 155
3 155 157 156
3 158 156 157
3 157 159 158
3 160 158 159
3 159 161 160
3 162 160 161
3 161 163 162
3 164 162 163
3 163 165 164
3 166 164 165
3 165 167 166
3 168 166 167
3 167 169 168
3 170 168 169
3 169 171 170
3 172 170 171
3 171 173 172
3 174 172 173
3 173 175 174
3 176 174 175
3 175 177 176
3 178 176 177
3 177 179 178
3 180 178 179
3 179 181 180
3 182 180 181
3 181 183 182
3 184 182 183
3 183 185 184
3 186 184 185
3 185 187 186
3 188 186 187
3 187 189 188
3 190 188 189
3 189 191 190
3 192 190 191
3 191 193 192
3 194 192 193
3 193 195 194
3 196 194 195
3 195 197 196
3 143 196 197
3 197 144 143
3 163 161 159
3 165 163 159
3 157 155 153
3 159 157 153
3 159 153 151
3 151 149 147
3 151 147 145
3 151 145 144
3 151 144 197
3 159 151 197
3 165 159 197
3 197 195 193
3 197 193 191
3 197 191 189
3 189 187 185
3 197 189 185
3 197 185 183
3 197 183 181
3 181 179 177
3 197 181 177
3 177 175 173
3 177 173 171
3 197 177 171
3 165 197 171
3 167 165 171
3 167 171 169
3 166 168 170
3 172 174 176
3 170 172 176
3 176 178 180
3 184 186 188
3 192 194 196
3 190 192 196
3 188 190 196
3 184 188 196
3 182 184 196
3 180 182 196
3 176 180 196
3 170 176 196
3 146 148 150
3 142 146 150
3 143 142 150
3 196 143 150
3 152 154 156
3 152 156 158
3 150 152 158
3 196 150 158
3 158 160 162
3 158 162 164
3 196 158 164
3 170 196 164
3 166 170 164
3 198 199 200
3 200 201 198
3 202 198 201
3 201 203 202
3 204 202 203
3 203 205 204
3 206 204 205
3 205 207 206
3 208 206 207
3 207 209 208
3 210 208 209
3 209 211 210
3 212 210 211
3 211 213 212
3 214 212 213
3 213 215 214
3 216 214 215
3 215 217 216
3 218 216 217
3 217 219 218
3 220 218 219
3 219 221 220
3 222 220 221
3 221 223 222
3 224 222 223
3 223 225 224
3 226 224 225
3 225 227 226
3 228 226 227
3 227 229 228
3 230 228 229
3 229 231 230
3 232 230 231
3 231 233 232
3 234 232 233
3 233 235 234
3 236 234 235
3 235 237 236
3 238 236 237
3 237 239 238
3 240 238 239
3 239 241 240
3 242 240 241
3 241 243 242
3 244 242 243
3 243 245 244
3 199 244 245
3 245 200 199
3 209 207 205
3 209 205 203
3 209 203 201
3 233 231 229
3 233 229 227
3 235 233 227
3 237 235 227
3 239 237 227
3 241 239 227
3 243 241 227
3 243 227 225
3 243 225 223
3 243 223 221
3 243 221 219
3 243 219 217
3 243 217 215
3 245 243 215
3 200 245 215
3 201 200 215
3 201 215 213
3 209 201 213
3 209 213 211
3 246 247 248
3 249 250 251
3 252 249 251
3 252 251 253
3 252 253 254
3 252 254 255
3 252 255 256
3 252 256 257
3 258 252 257
3 259 258 257
3 260 259 257
3 261 260 257
3 262 261 257
3 263 262 257
3 263 257 264
3 263 264 265
3 263 265 266
3 248 263 266
3 246 248 266
3 246 266 267
3 246 267 268
3 246 268 269
3 270 271 272
3 272 273 270
3 271 274 275
3 275 272 271
3 274 276 277
3 277 275 274
3 276 278 279
3 279 277 276
3 278 280 281
3 281 279 278
3 208 210 247
3 247 246 208
3 210 212 248
3 248 247 210
3 212 214 263
3 263 248 212
3 214 216 262
3 262 263 214
3 216 218 261
3 261 262 216
3 218 220 260
3 260 261 218
3 220 222 259
3 259 260 220
3 222 224 258
3 258 259 222
3 224 226 252
3 252 258 224
3 282 283 284
3 284 285 282
3 283 286 287
3 287 284 283
3 286 288 289
3 289 287 286
3 288 290 291
3 291 289 288
3 290 292 293
3 293 291 290
3 292 294 295
3 295 293 292
3 294 296 297
3 297 295 294
3 296 298 299
3 299 297 296
3 298 300 301
3 301 299 298
3 300 270 273
3 273 301 300
3 199 198 271
3 271 270 199
3 198 202 274
3 274 271 198
3 202 204 276
3 276 274 202
3 204 206 278
3 278 276 204
3 206 208 280
3 280 278 206
3 208 246 281
3 281 280 208
3 246 269 279
3 279 281 246
3 269 268 277
3 277 279 269
3 268 267 275
3 275 277 268
3 267 266 272
3 272 275 267
3 266 265 273
3 273 272 266
3 265 264 301
3 301 273 265
3 264 257 299
3 299 301 264
3 257 256 297
3 297 299 257
3 256 255 295
3 295 297 256
3 255 254 293
3 293 295 255
3 254 253 291
3 291 293 254
3 253 251 289
3 289 291 253
3 251 250 287
3 287 289 251
3 250 249 284
3 284 287 250
3 249 252 285
3 285 284 249
3 252 226 282
3 282 285 252
3 226 228 283
3 283 282 226
3 228 230 286
3 286 283 228
3 230 232 288
3 288 286 230
3 232 234 290
3 290 288 232
3 234 236 292
3 292 290 234
3 236 238 294
3 294 292 236
3 238 240 296
3 296 294 238
3 240 242 298
3 298 296 240
3 242 244 300
3 300 298 242
3 244 199 270
3 270 300 244
3 302 303 304
3 304 305 302
3 306 302 305
3 305 307 306
3 308 306 307
3 307 309 308
3 310 308 309
3 309 311 310
3 312 310 311
3 311 313 312
3 314 312 313
3 313 315 314
3 316 314 315
3 315 317 316
3 318 316 317
3 317 319 318
3 320 318 319
3 319 321 320
3 322 320 321
3 321 323 322
3 324 322 323
3 323 325 324
3 326 324 325
3 325 327 326
3 328 326 327
3 327 329 328
3 330 328 329
3 329 331 330
3 332 330 331
3 331 333 332
3 334 332 333
3 333 335 334
3 336 334 335
3 335 337 336
3 338 336 337
3 337 339 338
3 340 338 339
3 339 341 340
3 342 340 341
3 341 343 342
3 344 342 343
3 343 345 344
3 346 344 345
3 345 347 346
3 348 346 347
3 347 349 348
3 350 348 349
3 349 351 350
3 352 350 351
3 351 353 352
3 354 352 353
3 353 355 354
3 356 354 355
3 355 357 356
3 358 356 357
3 357 359 358
3 360 358 359
3 359 361 360
3 362 360 361
3 361 363 362
3 364 362 363
3 363 365 364
3 366 364 365
3 365 367 366
3 368 366 367
3 367 369 368
3 303 368 369
3 369 304 303
3 311 309 307
3 369 367 365
3 304 369 365
3 305 304 365
3 307 305 365
3 311 307 365
3 313 311 365
3 315 313 365
3 317 315 365
3 319 317 365
3 321 319 365
3 323 321 365
3 325 323 365
3 325 365 363
3 327 325 363
3 329 327 363
3 331 329 363
3 333 331 363
3 335 333 363
3 337 335 363
3 337 363 361
3 337 361 359
3 357 355 353
3 359 357 353
3 359 353 351
3 359 351 349
3 349 347 345
3 359 349 345
3 337 359 345
3 337 345 343
3 339 337 343
3 339 343 341
3 370 371 372
3 373 374 375
3 376 377 378
3 376 378 379
3 380 376 379
3 375 380 379
3 373 375 379
3 381 382 383
3 381 383 384
3 381 384 385
3 381 385 386
3 386 387 388
3 381 386 388
3 381 388 389
3 381 389 390
3 381 390 391
3 381 391 392
3 381 392 393
3 381 393 394
3 381 394 395
3 396 381 395
3 396 395 397
3 396 397 398
3 396 398 399
3 396 399 400
3 396 400 401
3 396 401 402
3 403 396 402
3 379 403 402
3 373 379 402
3 372 373 402
3 370 372 402
3 404 405 406
3 406 407 404
3 405 408 409
3 409 406 405
3 408 410 411
3 411 409 408
3 410 412 413
3 413 411 410
3 310 312 389
3 389 388 310
3 312 314 390
3 390 389 312
3 314 316 391
3 391 390 314
3 316 318 392
3 392 391 316
3 318 320 393
3 393 392 318
3 320 322 394
3 394 393 320
3 322 324 395
3 395 394 322
3 324 326 397
3 397 395 324
3 326 328 398
3 398 397 326
3 328 330 399
3 399 398 328
3 330 332 400
3 400 399 330
3 332 334 401
3 401 400 332
3 334 336 402
3 402 401 334
3 336 338 370
3 370 402 336
3 338 340 371
3 371 370 338
3 340 342 372
3 372 371 340
3 342 344 373
3 373 372 342
3 414 415 416
3 416 417 414
3 415 418 419
3 419 416 415
3 418 420 421
3 421 419 418
3 420 422 423
3 423 421 420
3 422 424 425
3 425 423 422
3 424 426 427
3 427 425 424
3 426 428 429
3 429 427 426
3 358 360 403
3 403 379 358
3 360 362 396
3 396 403 360
3 362 364 381
3 381 396 362
3 430 431 432
3 432 433 430
3 431 434 435
3 435 432 431
3 434 404 407
3 407 435 434
3 303 302 405
3 405 404 303
3 302 306 408
3 408 405 302
3 306 308 410
3 410 408 306
3 308 310 412
3 412 410 308
3 310 388 413
3 413 412 310
3 388 387 411
3 411 413 388
3 387 386 409
3 409 411 387
3 386 385 406
3 406 409 386
3 385 384 407
3 407 406 385
3 384 383 435
3 435 407 384
3 383 382 432
3 432 435 383
3 382 381 433
3 433 432 382
3 381 364 430
3 430 433 381
3 364 366 431
3 431 430 364
3 366 368 434
3 434 431 366
3 368 303 404
3 404 434 368
3 344 346 415
3 415 414 344
3 346 348 418
3 418 415 346
3 348 350 420
3 420 418 348
3 350 352 422
3 422 420 350
3 352 354 424
3 424 422 352
3 354 356 426
3 426 424 354
3 356 358 428
3 428 426 356
3 358 379 429
3 429 428 358
3 379 378 427
3 427 429 379
3 378 377 425
3 425 427 378
3 377 376 423
3 423 425 377
3 376 380 421
3 421 423 376
3 380 375 419
3 419 421 380
3 375 374 416
3 416 419 375
3 374 373 417
3 417 416 374
3 373 344 414
3 414 417 373
3 436 437 438
3 438 439 436
3 440 436 439
3 439 441 440
3 442 440 441
3 441 443 442
3 444 442 443
3 443 445 444
3 446 444 445
3 445 447 446
3 448 446 447
3 447 449 448
3 450 448 449
3 449 451 450
3 452 450 451
3 451 453 452
3 454 452 453
3 453 455 454
3 456 454 455
3 455 457 456
3 458 456 457
3 457 459 458
3 460 458 459
3 459 461 460
3 462 460 461
3 461 463 462
3 464 462 463
3 463 465 464
3 466 464 465
3 465 467 466
3 437 466 467
3 467 438 437
3 467 465 463
3 467 463 461
3 467 461 459
3 467 459 457
3 467 457 455
3 467 455 453
3 438 467 453
3 439 438 453
3 439 453 451
3 451 449 447
3 439 451 447
3 441 439 447
3 441 447 445
3 441 445 443
3 468 469 470
3 468 470 471
3 471 472 473
3 474 475 476
3 477 474 476
3 478 477 476
3 479 478 476
3 480 479 476
3 481 480 476
3 481 476 482
3 481 482 483
3 473 481 483
3 471 473 483
3 468 471 483
3 484 485 486
3 486 487 484
3 485 488 489
3 489 486 485
3 488 490 491
3 491 489 488
3 490 492 493
3 493 491 490
3 492 494 495
3 495 493 492
3 446 448 472
3 472 471 446
3 448 450 473
3 473 472 448
3 450 452 481
3 481 473 450
3 496 497 498
3 498 499 496
3 497 500 501
3 501 498 497
3 500 502 503
3 503 501 500
3 502 504 505
3 505 503 502
3 504 506 507
3 507 505 504
3 506 508 509
3 509 507 506
3 508 510 511
3 511 509 508
3 510 484 487
3 487 511 510
3 437 436 485
3 485 484 437
3 436 440 488
3 488 485 436
3 440 442 490
3 490 488 440
3 442 444 492
3 492 490 442
3 444 446 494
3 494 492 444
3 446 471 495
3 495 494 446
3 471 470 493
3 493 495 471
3 470 469 491
3 491 493 470
3 469 468 489
3 489 491 469
3 468 483 486
3 486 489 468
3 483 482 487
3 487 486 483
3 482 476 511
3 511 487 482
3 476 475 509
3 509 511 476
3 475 474 507
3 507 509 475
3 474 477 505
3 505 507 474
3 477 478 503
3 503 505 477
3 478 479 501
3 501 503 478
3 479 480 498
3 498 501 479
3 480 481 499
3 499 498 480
3 481 452 496
3 496 499 481
3 452 454 497
3 497 496 452
3 454 456 500
3 500 497 454
3 456 458 502
3 502 500 456
3 458 460 504
3 504 502 458
3 460 462 506
3 506 504 460
3 462 464 508
3 508 506 462
3 464 466 510
3 510 508 464
3 466 437 484
3 484 510 466
3 512 513 514
3 514 515 512
3 516 512 515
3 515 517 516
3 518 516 517
3 517 519 518
3 520 518 519
3 519 521 520
3 522 520 521
3 521 523 522
3 524 522 523
3 523 525 524
3 526 524 525
3 525 527 526
3 528 526 527
3 527 529 528
3 530 528 529
3 529 531 530
3 513 530 531
3 531 514 513
3 523 521 519
3 523 519 517
3 525 523 517
3 525 517 515
3 527 525 515
3 529 527 515
3 531 529 515
3 531 515 514
3 530 513 512
3 518 520 522
3 516 518 522
3 516 522 524
3 512 516 524
3 512 524 526
3 512 526 528
3 530 512 528
3 532 533 534
3 534 535 532
3 536 532 535
3 535 537 536
3 538 536 537
3 537 539 538
3 540 538 539
3 539 541 540
3 542 540 541
3 541 543 542
3 544 542 543
3 543 545 544
3 546 544 545
3 545 547 546
3 548 546 547
3 547 549 548
3 550 548 549
3 549 551 550
3 552 550 551
3 551 553 552
3 554 552 553
3 553 555 554
3 556 554 555
3 555 557 556
3 558 556 557
3 557 559 558
3 560 558 559
3 559 561 560
3 562 560 561
3 561 563 562
3 564 562 563
3 563 565 564
3 566 564 565
3 565 567 566
3 568 566 567
3 567 569 568
3 570 568 569
3 569 571 570
3 533 570 571
3 571 534 533
3 547 545 543
3 535 534 571
3 535 571 569
3 535 569 567
3 567 565 563
3 535 567 563
3 537 535 563
3 539 537 563
3 541 539 563
3 543 541 563
3 547 543 563
3 563 561 559
3 563 559 557
3 563 557 555
3 563 555 553
3 547 563 553
3 547 553 551
3 547 551 549
3 572 573 574
3 572 574 575
3 576 577 578
3 579 576 578
3 580 579 578
3 575 580 578
3 572 575 578
3 578 581 582
3 583 584 585
3 586 583 585
3 582 586 585
3 578 582 585
3 578 585 587
3 578 587 588
3 578 588 589
3 578 589 590
3 572 578 590
3 572 590 591
3 592 593 594
3 594 595 592
3 593 596 597
3 597 594 593
3 596 598 599
3 599 597 596
3 598 600 601
3 601 599 598
3 600 602 603
3 603 601 600
3 542 544 591
3 591 590 542
3 544 546 572
3 572 591 544
3 604 605 606
3 606 607 604
3 605 608 609
3 609 606 605
3 608 610 611
3 611 609 608
3 610 612 613
3 613 611 610
3 612 614 615
3 615 613 612
3 614 616 617
3 617 615 614
3 616 618 619
3 619 617 616
3 618 620 621
3 621 619 618
3 562 564 581
3 581 578 562
3 564 566 582
3 582 581 564
3 622 623 624
3 624 625 622
3 623 626 627
3 627 624 623
3 626 592 595
3 595 627 626
3 533 532 593
3 593 592 533
3 532 536 596
3 596 593 532
3 536 538 598
3 598 596 536
3 538 540 600
3 600 598 538
3 540 542 602
3 602 600 540
3 542 590 603
3 603 602 542
3 590 589 601
3 601 603 590
3 589 588 599
3 599 601 589
3 588 587 597
3 597 599 588
3 587 585 594
3 594 597 587
3 585 584 595
3 595 594 585
3 584 583 627
3 627 595 584
3 583 586 624
3 624 627 583
3 586 582 625
3 625 624 586
3 582 566 622
3 622 625 582
3 566 568 623
3 623 622 566
3 568 570 626
3 626 623 568
3 570 533 592
3 592 626 570
3 546 548 605
3 605 604 546
3 548 550 608
3 608 605 548
3 550 552 610
3 610 608 550
3 552 554 612
3 612 610 552
3 554 556 614
3 614 612 554
3 556 558 616
3 616 614 556
3 558 560 618
3 618 616 558
3 560 562 620
3 620 618 560
3 562 578 621
3 621 620 562
3 578 577 619
3 619 621 578
3 577 576 617
3 617 619 577
3 576 579 615
3 615 617 576
3 579 580 613
3 613 615 579
3 580 575 611
3 611 613 580
3 575 574 609
3 609 611 575
3 574 573 606
3 606 609 574
3 573 572 607
3 607 606 573
3 572 546 604
3 604 607 572
3 628 629 630
3 630 631 628
3 632 628 631
3 631 633 632
3 634 632 633
3 633 635 634
3 636 634 635
3 635 637 636
3 638 636 637
3 637 639 638
3 629 638 639
3 639 630 629
3 639 637 635
3 630 639 635
3 630 635 633
3 630 633 631
3 640 641 642
3 640 642 643
3 643 644 645
3 640 643 645
3 629 628 641
3 641 640 629
3 628 632 642
3 642 641 628
3 646 647 648
3 648 649 646
3 634 636 644
3 644 643 634
3 636 638 645
3 645 644 636
3 650 651 652
3 652 653 650
3 632 634 647
3 647 646 632
3 634 643 648
3 648 647 634
3 643 642 649
3 649 648 643
3 642 632 646
3 646 649 642
3 638 629 651
3 651 650 638
3 629 640 652
3 652 651 629
3 640 645 653
3 653 652 640
3 645 638 650
3 650 653 645
3 654 655 656
3 656 657 654
3 647 654 657
3 657 658 647
3 659 647 658
3 658 636 659
3 655 659 636
3 636 656 655
3 660 651 629
3 629 628 660
3 646 660 628
3 628 632 646
3 661 646 632
3 632 662 661
3 651 661 662
3 662 629 651
3 636 658 657
3 657 656 636
3 662 632 628
3 628 629 662
3 663 664 665
3 665 666 663
3 667 668 669
3 669 670 667
3 651 660 671
3 671 672 651
3 660 646 673
3 673 671 660
3 646 661 674
3 674 673 646
3 661 651 672
3 672 674 661
3 672 671 667
3 667 670 672
3 671 673 668
3 668 667 671
3 673 674 669
3 669 668 673
3 674 672 670
3 670 669 674
3 655 654 675
3 675 676 655
3 654 647 677
3 677 675 654
3 647 659 678
3 678 677 647
3 659 655 676
3 676 678 659
3 676 675 663
3 663 666 676
3 675 677 664
3 664 663 675
3 677 678 665
3 665 664 677
3 678 676 666
3 666 665 678
