OFF
234 186 0

-8.01324 3.51175 62.877
-9.30716 -1.25532 62.877
-5.9 2.95 62.877
-5.9 2.95 62.877
-0.933624 1.62982 62.877
7.59154 -0.636358 62.877
11.6737 -1.72148 62.877
10.3103 -6.91674 62.877
8.47894 -6.38822 62.877
8 -6.25 62.877
3.22691 -4.87253 62.877
-5.1269 -2.4617 62.877
-6.9 -1.95 62.877
0.292306 -15.0654 19.087
3.33559 -15.8593 19.087
-5.00747 -13.6828 19.087
-7.32082 -13.0794 19.087
-10.8559 -6.96103 19.087
-10.8368 -6.8908 19.087
-6.61033 8.68034 19.087
-6.41987 9.38207 19.087
-0.362791 12.4779 19.087
3.11731 11.4676 19.087
5.73596 10.7073 19.087
11.343 9.07944 19.087
14.284 8.22561 19.087
12.9889 3.29054 19.087
10.9237 -4.5793 19.087
9.01478 -11.8537 19.087
8.71072 -13.0124 19.087
-2.0503 25.4805 -85.628
-2.0503 25.4805 -24.713
-3.34183 -8.43842 62.877
1.94843 13.6592 19.087
6.11113 15.7868 19.087
6.9851 21.4172 -10.003
6.9851 21.4172 -24.713
-0.933624 1.62982 77.464
3.22691 -4.87253 77.464
-0.0221215 6.86858 40.977
12.1126 -0.0488749 -10.003
0.365565 16.6271 19.087
3.11731 11.4676 40.977
11.8365 14.7743 19.087
0.292306 -15.0654 40.977
-1.54948 -11.7068 40.977
14.0545 7.35095 -10.003
14.0545 7.35095 -2.813
11.0349 15.0667 -2.813
-0.650203 4.61952 -85.628
0.680133 7.54626 -85.628
-3.46667 20.2623 -85.628
-1.72754 21.1776 -85.628
-1.67971 21.2028 -24.713
-3.46667 20.2623 -24.713
-2.15084 16.9951 -2.813
-5.30489 13.4899 -10.003
-5.32478 13.4166 -2.813
12.9889 3.29054 -2.813
-6.61033 8.68034 -2.813
2.88719 -16.0968 -85.628
1.44663 0.943138 -85.628
-7.32082 -13.0794 40.977
-10.8559 -6.96103 40.977
6.53125 5.0664 40.977
4.10328 9.61885 40.977
-5.33421 -1.01053 85.519
-5.9 2.95 85.519
-0.933624 1.62982 85.519
8.47894 -6.38822 85.519
3.22691 -4.87253 85.519
7.85729 -2.3589 85.519
-1.66816 21.2089 -10.003
-3.46667 20.2623 -10.003
-5.1269 -2.4617 77.464
-5.9 2.95 77.464
-4.09544 -24.3546 -2.813
-4.09544 -24.3546 -10.003
-5.49203 -24.0101 -10.003
-9.96876 -22.9059 -10.003
-9.96876 -22.9059 -2.813
-5.49203 -24.0101 -24.713
-3.13458 -8.81635 62.877
8.3472 21.0309 -24.713
-5.33421 -1.01053 77.464
5.73596 10.7073 40.977
1.61937 22.9391 -2.813
1.61937 22.9391 -10.003
8.3472 21.0309 -2.813
8.3472 21.0309 -10.003
-3.46667 20.2623 -2.813
-4.71461 -20.123 -85.628
-5.49203 -24.0101 -85.628
3.26375 -20.551 -85.628
1.68477 -21.3671 -24.713
-9.96876 -22.9059 -24.713
-9.96876 -22.9059 -85.628
-4.09544 -24.3546 -85.628
-4.09544 -24.3546 -24.713
-5.1985 13.8818 19.087
-5.1985 13.8818 -2.813
14.284 8.22561 -2.813
10.3103 -6.91674 77.464
8.47894 -6.38822 77.464
7.85729 -2.3589 77.464
7.59154 -0.636358 77.464
11.6737 -1.72148 77.464
-10.5775 -23.2283 -10.003
-13.7892 -17.7683 -10.003
-13.7892 -17.7683 -2.813
-10.5775 -23.2283 -2.813
-0.0221215 6.86858 62.877
-0.0221215 6.86858 51.927
-8.83832 -13.3944 -85.628
-12.9722 -19.1572 -85.628
-13.7892 -17.7683 -85.628
-13.7892 -17.7683 -24.713
-12.9722 -19.1572 -24.713
-2.4671 -18.9327 -2.813
-5.00747 -13.6828 40.977
-12.173 -11.8136 19.087
-12.9104 -14.5302 -2.813
-12.9104 -14.5302 -10.003
2.41388 -20.9903 -2.813
2.41388 -20.9903 -10.003
-10.5775 -23.2283 -24.713
12.9889 3.29054 51.927
12.9889 3.29054 62.877
-6.61033 8.68034 62.877
-6.61033 8.68034 51.927
-10.8368 -6.8908 51.927
-10.8368 -6.8908 40.977
1.48696 -9.97174 40.977
2.34401 -1.87398 -85.628
7.72158 -13.5363 -85.628
10.9237 -4.5793 40.977
10.9237 -4.5793 51.927
2.41388 -20.9903 -24.713
-12.9104 -14.5302 -24.713
-6.61033 8.68034 40.977
12.9889 3.29054 40.977
9.56206 13.258 19.087
4.6877 -15.1431 -85.628
-2.31518 24.5046 -85.628
-2.28351 24.6213 -24.713
-15.2 -25.6766 -24.713
1.48696 -9.97174 62.877
8.71072 -13.0124 -85.628
1.48696 -9.97174 51.927
8.71072 -13.0124 -24.713
-10.8368 -6.8908 62.877
-6.41987 9.38207 40.977
-0.362791 12.4779 40.977
3.33559 -15.8593 40.977
10.3103 -6.91674 51.927
-9.30716 -1.25532 51.927
5.51561 -10.9789 51.927
5.60799 -11.002 40.977
-8.55813 -26.6612 -24.713
11.7301 14.965 -24.713
11.7301 14.965 -10.003
-10.5775 -23.2283 -85.628
-10.0007 -3.81041 40.977
-4.26937 17.3049 -10.003
-8.55813 -26.6612 -85.628
-10.0007 -3.81041 51.927
-4.26937 17.3049 -24.713
1.61937 22.9391 -24.713
11.6737 -1.72148 51.927
-8.01324 3.51175 51.927
-5.09573 14.2605 -85.628
1.20216 0.602334 -85.628
-5.26421 13.6398 -24.713
0.175684 -17.5329 19.087
0.396056 -20.1396 19.087
14.284 8.22561 40.977
1.01042 -20.3986 -2.813
-14.893 -21.8348 -85.628
-14.893 -21.8348 -24.713
7.66711 -16.9892 -2.813
8.71072 -13.0124 40.977
7.66711 -16.9892 19.087
-9.30716 -1.25532 77.464
1.76744 1.39035 -85.628
-8.01324 3.51175 77.464
-2.4671 -18.9327 19.087
12.1126 -0.0488749 -2.813
-15.2 -25.6766 -85.628
-3.13458 -8.81635 51.927
-8.63631 1.21622 40.977
-12.9104 -14.5302 19.087
-8.63631 1.21622 51.927
5.99781 25.2436 -85.628
9.01478 -11.8537 62.877
-4.26937 17.3049 19.087
9.01478 -11.8537 51.927
-4.26937 17.3049 -2.813
5.99781 25.2436 -24.713
11.7301 14.965 -2.813
11.7301 14.965 19.087
-3.10494 7.71636 51.927
-3.01134 7.69062 40.977
11.3216 15.6975 -24.713
11.3216 15.6975 -85.628
4.37692 28.15 -85.628
14.6694 9.69444 -85.628
9.01478 -11.8537 40.977
2.84283 -2.95576 -85.628
14.6694 9.69444 -24.713
4.37692 28.15 -24.713
14.6694 9.69444 19.087
8.3472 21.0309 -85.628
7.27672 -18.4769 19.087
8.71072 -13.0124 -2.813
1.61937 22.9391 -85.628
14.6694 9.69444 -2.813
7.27672 -18.4769 -2.813
7.27672 -18.4769 -10.003
14.6694 9.69444 -10.003
-3.13458 -8.81635 40.977
8.71072 -13.0124 -10.003
-9.21591 -16.0877 19.087
-15.2 -28.15 -24.713
-15.2 -22.9658 -24.713
-1.32571 28.15 -24.713
-11.4387 -28.15 -24.713
7.27672 -18.4769 -24.713
7.27672 -18.4769 -85.628
-11.4387 -28.15 -85.628
11.343 9.07944 40.977
2.41388 -20.9903 19.087
-15.2 -22.9658 -85.628
-1.32571 28.15 -85.628
-15.2 -28.15 -85.628
4  233 187 145 222  255 0 0
4  233 222 225 228  255 0 0
5  233 228 164 161 187  255 0 0
5  231 187 161 114 177  255 0 0
4  232 204 209 224  255 0 0
7  232 30 143 52 214 192 204  255 0 0
4  231 223 145 187  255 0 0
4  232 224 31 30  255 0 0
4  231 177 178 223  255 0 0
6  227 147 134 142 60 93  255 0 0
4  227 226 149 147  255 0 0
4  228 225 158 164  255 0 0
5  227 93 94 137 226  255 0 0
4  226 217 220 149  255 0 0
4  226 137 124 217  255 0 0
5  225 222 145 125 158  255 0 0
7  224 209 197 167 53 144 31  255 0 0
5  223 178 117 125 145  255 0 0
6  208 149 220 40 46 218  255 0 0
4  208 218 160 159  255 0 0
5  217 216 179 213 220  255 0 0
4  218 215 198 160  255 0 0
4  217 124 123 216  255 0 0
5  218 46 47 101 215  255 0 0
5  215 210 43 199 198  255 0 0
4  216 212 181 179  255 0 0
4  216 123 230 212  255 0 0
4  215 101 25 210  255 0 0
6  212 230 174 173 14 181  255 0 0
5  210 25 24 141 43  255 0 0
4  205 147 149 208  255 0 0
5  205 203 207 134 147  255 0 0
4  209 204 192 197  255 0 0
5  208 159 202 203 205  255 0 0
4  194 99 100 196  255 0 0
7  199 43 141 23 22 33 34  255 0 0
6  194 41 33 22 21 99  255 0 0
4  198 88 89 160  255 0 0
7  196 90 86 88 198 48 55  255 0 0
5  196 100 57 56 163  255 0 0
8  199 34 41 194 196 55 48 198  255 0 0
5  123 76 80 118 176  255 0 0
5  190 120 16 15 221  255 0 0
7  121 59 19 18 17 120 190  255 0 0
4  121 109 108 122  255 0 0
5  121 118 80 110 109  255 0 0
4  230 123 176 174  255 0 0
5  190 221 185 118 121  255 0 0
4  180 206 28 29  0 255 0
7  29 28 27 26 58 186 213  255 0 0
3  29 181 14  255 0 0
6  185 221 15 13 14 173  255 0 0
4  185 174 176 118  255 0 0
3  185 173 174  255 0 0
7  180 153 44 45 132 157 206  0 255 0
4  29 14 153 180  0 255 0
4  25 26 140 175  0 255 0
6  175 140 64 65 85 229  0 255 0
6  99 20 19 59 57 100  255 0 0
3  99 21 20  255 0 0
4  175 229 24 25  0 255 0
4  169 129 128 0  0 255 0
5  169 191 189 139 129  0 255 0
5  168 136 154 7 6  0 255 0
5  168 126 140 135 136  0 255 0
5  169 0 1 155 191  0 255 0
4  168 6 127 126  0 255 0
5  160 89 83 202 159  255 0 0
6  163 56 122 138 172 166  255 0 0
4  163 73 90 196  255 0 0
4  166 54 73 163  255 0 0
5  166 172 170 51 54  255 0 0
5  155 165 162 189 191  0 255 0
4  154 195 193 7  0 255 0
5  154 136 135 206 195  0 255 0
5  155 1 150 130 165  0 255 0
4  7 102 106 6  0 0 255
5  1 182 74 11 12  0 0 255
4  7 8 103 102  0 0 255
5  7 193 146 9 8  0 255 0
5  1 12 32 82 150  0 255 0
4  143 30 31 144  255 0 0
4  142 134 207 133  255 0 0
5  142 133 183 61 60  255 0 0
4  144 53 52 143  255 0 0
5  183 50 49 171 61  255 0 0
8  183 133 207 203 211 214 52 50  255 0 0
4  178 177 114 117  255 0 0
4  26 27 135 140  0 255 0
5  26 25 101 47 58  255 0 0
4  19 20 151 139  0 255 0
6  139 189 162 131 18 19  0 255 0
8  139 151 152 42 85 65 39 201  0 255 0
4  129 139 201 200  0 255 0
5  126 112 39 64 140  0 255 0
5  138 116 115 170 172  255 0 0
4  124 77 76 123  255 0 0
4  122 108 116 138  255 0 0
5  122 56 57 59 121  255 0 0
5  137 94 98 77 124  255 0 0
4  131 162 165 130  0 255 0
4  131 63 17 18  0 255 0
3  132 45 219  0 255 0
6  131 219 45 119 62 63  0 255 0
4  130 188 219 131  0 255 0
4  132 219 188 148  0 255 0
4  27 28 206 135  0 255 0
4  6 106 105 5  0 0 255
4  0 184 182 1  0 0 255
5  0 2 3 75 184  0 0 255
7  6 5 4 3 2 111 127  0 255 0
4  0 128 111 2  0 255 0
5  128 129 200 112 111  0 255 0
4  127 111 112 126  0 255 0
4  213 179 181 29  255 0 0
4  213 186 40 220  255 0 0
4  197 83 36 167  255 0 0
4  192 211 83 197  255 0 0
3  192 214 211  255 0 0
5  9 10 38 103 8  0 0 255
5  9 146 82 32 10  0 255 0
4  5 105 37 4  0 0 255
4  103 69 71 104  0 0 255
4  103 38 70 69  0 0 255
6  105 104 38 74 84 37  0 0 255
5  184 75 84 74 182  0 0 255
5  170 115 114 113 49  255 0 0
8  171 113 114 161 96 91 60 61  255 0 0
3  171 49 113  255 0 0
5  170 49 50 52 51  255 0 0
4  158 98 97 164  255 0 0
5  125 95 81 98 158  255 0 0
5  164 97 92 96 161  255 0 0
3  119 45 44  0 255 0
4  153 14 13 44  0 255 0
4  119 44 13 15  0 255 0
4  150 82 188 130  0 255 0
4  148 188 82 146  0 255 0
4  74 38 10 11  0 0 255
4  75 37 68 67  0 0 255
4  75 67 66 84  0 0 255
4  72 53 167 87  255 0 0
4  107 79 95 125  255 0 0
5  107 125 117 116 108  255 0 0
3  120 17 16  255 0 0
4  15 16 62 119  0 255 0
4  104 71 70 38  0 0 255
4  117 114 115 116  255 0 0
4  112 200 201 39  0 255 0
4  110 80 79 107  255 0 0
4  110 107 108 109  255 0 0
5  106 102 103 104 105  0 0 255
5  97 93 60 91 92  255 0 0
4  98 94 93 97  255 0 0
3  96 92 91  255 0 0
5  90 73 72 87 86  255 0 0
5  86 87 35 89 88  255 0 0
4  23 24 229 85  0 255 0
4  85 42 22 23  0 255 0
3  39 65 64  0 255 0
4  37 75 3 4  0 0 255
4  84 66 68 37  0 0 255
4  148 156 157 132  0 255 0
4  206 157 156 195  0 255 0
4  79 78 81 95  255 0 0
4  98 81 78 77  255 0 0
4  211 203 202 83  255 0 0
5  146 193 195 156 148  0 255 0
4  12 11 10 32  0 255 0
4  87 167 36 35  255 0 0
4  89 35 36 83  255 0 0
4  21 22 42 152  0 255 0
4  21 152 151 20  0 255 0
5  80 76 77 78 79  255 0 0
4  73 54 53 72  255 0 0
3  71 69 70  0 0 255
3  68 66 67  0 0 255
4  17 63 62 16  0 255 0
5  58 47 46 40 186  255 0 0
4  54 51 52 53  255 0 0
3  23 141 24  255 0 0
3  41 34 33  255 0 0
17  29 14 13 15 16 17 18 19 20 21 22 23 24 25 26 27 28  255 0 0
17  14 29 28 27 26 25 24 23 22 21 20 19 18 17 16 15 13  0 255 0
13  12 1 0 2 3 4 5 6 7 8 9 10 11  0 255 0
13  1 12 11 10 9 8 7 6 5 4 3 2 0  0 0 255

