OFF
234 182 0

-2.0503 25.4805 -85.628
-2.0503 25.4805 -24.713
3.22691 -4.87253 62.877
-3.34183 -8.43842 62.877
1.94843 13.6592 19.087
6.11113 15.7868 19.087
6.9851 21.4172 -10.003
6.9851 21.4172 -24.713
-0.933624 1.62982 77.464
-0.933624 1.62982 62.877
3.22691 -4.87253 77.464
-0.0221215 6.86858 40.977
12.1126 -0.0488749 -10.003
3.11731 11.4676 19.087
0.365565 16.6271 19.087
3.11731 11.4676 40.977
11.8365 14.7743 19.087
5.73596 10.7073 19.087
0.292306 -15.0654 40.977
0.292306 -15.0654 19.087
-1.54948 -11.7068 40.977
14.0545 7.35095 -10.003
14.0545 7.35095 -2.813
11.0349 15.0667 -2.813
-0.650203 4.61952 -85.628
0.680133 7.54626 -85.628
-3.46667 20.2623 -85.628
-1.72754 21.1776 -85.628
-1.67971 21.2028 -24.713
-3.46667 20.2623 -24.713
-2.15084 16.9951 -2.813
-5.30489 13.4899 -10.003
-5.32478 13.4166 -2.813
12.9889 3.29054 19.087
12.9889 3.29054 -2.813
-6.61033 8.68034 19.087
-6.61033 8.68034 -2.813
2.88719 -16.0968 -85.628
1.44663 0.943138 -85.628
-7.32082 -13.0794 19.087
-7.32082 -13.0794 40.977
-10.8559 -6.96103 40.977
-10.8559 -6.96103 19.087
6.53125 5.0664 40.977
4.10328 9.61885 40.977
-5.33421 -1.01053 85.519
-5.9 2.95 85.519
-0.933624 1.62982 85.519
8.47894 -6.38822 85.519
3.22691 -4.87253 85.519
7.85729 -2.3589 85.519
-1.66816 21.2089 -10.003
-3.46667 20.2623 -10.003
-5.1269 -2.4617 77.464
-5.1269 -2.4617 62.877
-5.9 2.95 77.464
-5.9 2.95 62.877
-4.09544 -24.3546 -2.813
-4.09544 -24.3546 -10.003
-5.49203 -24.0101 -10.003
-9.96876 -22.9059 -10.003
-9.96876 -22.9059 -2.813
-5.49203 -24.0101 -24.713
-3.13458 -8.81635 62.877
-6.9 -1.95 62.877
8.3472 21.0309 -24.713
-5.33421 -1.01053 77.464
5.73596 10.7073 40.977
1.61937 22.9391 -2.813
1.61937 22.9391 -10.003
8.3472 21.0309 -2.813
8.3472 21.0309 -10.003
-3.46667 20.2623 -2.813
-4.71461 -20.123 -85.628
-5.49203 -24.0101 -85.628
3.26375 -20.551 -85.628
1.68477 -21.3671 -24.713
-9.96876 -22.9059 -24.713
-9.96876 -22.9059 -85.628
-4.09544 -24.3546 -85.628
-4.09544 -24.3546 -24.713
-5.1985 13.8818 19.087
-5.1985 13.8818 -2.813
14.284 8.22561 19.087
14.284 8.22561 -2.813
10.3103 -6.91674 77.464
8.47894 -6.38822 77.464
7.85729 -2.3589 77.464
7.59154 -0.636358 77.464
11.6737 -1.72148 77.464
-10.5775 -23.2283 -10.003
-13.7892 -17.7683 -10.003
-13.7892 -17.7683 -2.813
-10.5775 -23.2283 -2.813
-0.0221215 6.86858 62.877
-0.0221215 6.86858 51.927
-5.9 2.95 62.877
-8.83832 -13.3944 -85.628
-12.9722 -19.1572 -85.628
-13.7892 -17.7683 -85.628
-13.7892 -17.7683 -24.713
-12.9722 -19.1572 -24.713
-2.4671 -18.9327 -2.813
-5.00747 -13.6828 40.977
-5.00747 -13.6828 19.087
-12.173 -11.8136 19.087
-12.9104 -14.5302 -2.813
-12.9104 -14.5302 -10.003
2.41388 -20.9903 -2.813
2.41388 -20.9903 -10.003
-10.5775 -23.2283 -24.713
7.59154 -0.636358 62.877
8.47894 -6.38822 62.877
12.9889 3.29054 51.927
12.9889 3.29054 62.877
-6.61033 8.68034 62.877
-6.61033 8.68034 51.927
-10.8368 -6.8908 51.927
-10.8368 -6.8908 40.977
1.48696 -9.97174 40.977
2.34401 -1.87398 -85.628
7.72158 -13.5363 -85.628
10.9237 -4.5793 40.977
10.9237 -4.5793 51.927
2.41388 -20.9903 -24.713
-12.9104 -14.5302 -24.713
-6.61033 8.68034 40.977
12.9889 3.29054 40.977
9.56206 13.258 19.087
4.6877 -15.1431 -85.628
11.343 9.07944 19.087
-2.31518 24.5046 -85.628
-2.28351 24.6213 -24.713
-15.2 -25.6766 -24.713
1.48696 -9.97174 62.877
8.71072 -13.0124 -85.628
1.48696 -9.97174 51.927
-6.41987 9.38207 19.087
8.71072 -13.0124 -24.713
-10.8368 -6.8908 62.877
-6.41987 9.38207 40.977
-0.362791 12.4779 40.977
-0.362791 12.4779 19.087
-9.30716 -1.25532 62.877
10.3103 -6.91674 62.877
3.33559 -15.8593 19.087
3.33559 -15.8593 40.977
10.3103 -6.91674 51.927
-9.30716 -1.25532 51.927
5.51561 -10.9789 51.927
5.60799 -11.002 40.977
-8.55813 -26.6612 -24.713
11.7301 14.965 -24.713
11.7301 14.965 -10.003
-10.5775 -23.2283 -85.628
-10.0007 -3.81041 40.977
-4.26937 17.3049 -10.003
-8.55813 -26.6612 -85.628
-10.0007 -3.81041 51.927
-4.26937 17.3049 -24.713
1.61937 22.9391 -24.713
11.6737 -1.72148 51.927
-8.01324 3.51175 51.927
-5.09573 14.2605 -85.628
1.20216 0.602334 -85.628
-5.26421 13.6398 -24.713
0.175684 -17.5329 19.087
0.396056 -20.1396 19.087
14.284 8.22561 40.977
1.01042 -20.3986 -2.813
-14.893 -21.8348 -85.628
-14.893 -21.8348 -24.713
7.66711 -16.9892 -2.813
8.71072 -13.0124 40.977
7.66711 -16.9892 19.087
8.71072 -13.0124 19.087
-9.30716 -1.25532 77.464
1.76744 1.39035 -85.628
-8.01324 3.51175 77.464
-2.4671 -18.9327 19.087
12.1126 -0.0488749 -2.813
-15.2 -25.6766 -85.628
-8.01324 3.51175 62.877
-3.13458 -8.81635 51.927
8 -6.25 62.877
-8.63631 1.21622 40.977
-12.9104 -14.5302 19.087
-8.63631 1.21622 51.927
5.99781 25.2436 -85.628
9.01478 -11.8537 62.877
-4.26937 17.3049 19.087
9.01478 -11.8537 51.927
-4.26937 17.3049 -2.813
5.99781 25.2436 -24.713
11.7301 14.965 -2.813
11.7301 14.965 19.087
-3.10494 7.71636 51.927
-3.01134 7.69062 40.977
-10.8368 -6.8908 19.087
11.3216 15.6975 -24.713
11.3216 15.6975 -85.628
4.37692 28.15 -85.628
14.6694 9.69444 -85.628
9.01478 -11.8537 40.977
2.84283 -2.95576 -85.628
14.6694 9.69444 -24.713
9.01478 -11.8537 19.087
4.37692 28.15 -24.713
14.6694 9.69444 19.087
8.3472 21.0309 -85.628
7.27672 -18.4769 19.087
8.71072 -13.0124 -2.813
1.61937 22.9391 -85.628
14.6694 9.69444 -2.813
7.27672 -18.4769 -2.813
11.6737 -1.72148 62.877
7.27672 -18.4769 -10.003
14.6694 9.69444 -10.003
-3.13458 -8.81635 40.977
8.71072 -13.0124 -10.003
-9.21591 -16.0877 19.087
10.9237 -4.5793 19.087
-15.2 -28.15 -24.713
-15.2 -22.9658 -24.713
-1.32571 28.15 -24.713
-11.4387 -28.15 -24.713
7.27672 -18.4769 -24.713
7.27672 -18.4769 -85.628
-11.4387 -28.15 -85.628
11.343 9.07944 40.977
2.41388 -20.9903 19.087
-15.2 -22.9658 -85.628
-1.32571 28.15 -85.628
-15.2 -28.15 -85.628
4  233 181 133 222  255 0 0
4  233 222 225 228  255 0 0
5  233 228 157 154 181  255 0 0
5  231 181 154 98 170  255 0 0
4  232 201 207 224  255 0 0
7  232 0 131 27 212 188 201  255 0 0
4  231 223 133 181  255 0 0
4  232 224 1 0  255 0 0
4  231 170 171 223  255 0 0
6  227 135 121 129 37 75  255 0 0
4  227 226 138 135  255 0 0
4  228 225 151 157  255 0 0
5  227 75 76 124 226  255 0 0
4  226 216 219 138  255 0 0
4  226 124 109 216  255 0 0
5  225 222 133 110 151  255 0 0
7  224 207 193 160 28 132 1  255 0 0
5  223 171 101 110 133  255 0 0
6  205 138 219 12 21 217  255 0 0
4  205 217 153 152  255 0 0
5  216 214 172 211 219  255 0 0
4  217 213 194 153  255 0 0
4  216 109 108 214  255 0 0
5  217 21 22 84 213  255 0 0
5  213 208 16 195 194  255 0 0
4  214 210 174 172  255 0 0
4  214 108 230 210  255 0 0
4  213 84 83 208  255 0 0
6  210 230 167 166 145 174  255 0 0
5  208 83 130 128 16  255 0 0
4  202 135 138 205  255 0 0
5  202 200 204 121 135  255 0 0
4  207 201 188 193  255 0 0
5  205 152 199 200 202  255 0 0
4  190 81 82 192  255 0 0
7  195 16 128 17 13 4 5  255 0 0
6  190 14 4 13 142 81  255 0 0
4  194 70 71 153  255 0 0
7  192 72 68 70 194 23 30  255 0 0
5  192 82 32 31 156  255 0 0
8  195 5 14 190 192 30 23 194  255 0 0
5  108 57 61 102 169  255 0 0
5  186 105 39 104 220  255 0 0
7  106 36 35 198 42 105 186  255 0 0
4  106 92 91 107  255 0 0
5  106 102 61 93 92  255 0 0
4  230 108 169 167  255 0 0
5  186 220 179 102 106  255 0 0
4  173 203 206 175  255 0 0
7  175 206 221 33 34 180 211  255 0 0
3  175 174 145  255 0 0
6  179 220 104 19 145 166  255 0 0
4  179 167 169 102  255 0 0
3  179 166 167  255 0 0
7  173 146 18 20 119 150 203  255 0 0
4  175 145 146 173  255 0 0
4  83 33 127 168  255 0 0
6  168 127 43 44 67 229  255 0 0
6  81 137 35 36 32 82  255 0 0
3  81 142 137  255 0 0
4  168 229 130 83  255 0 0
4  162 116 115 182  255 0 0
5  162 187 185 126 116  255 0 0
5  161 123 147 144 215  255 0 0
5  161 113 127 122 123  255 0 0
5  162 182 143 148 187  255 0 0
4  161 215 114 113  255 0 0
5  153 71 65 199 152  255 0 0
6  156 31 107 125 165 159  255 0 0
4  156 52 72 192  255 0 0
4  159 29 52 156  255 0 0
5  159 165 163 26 29  255 0 0
5  148 158 155 185 187  255 0 0
4  147 191 189 144  255 0 0
5  147 123 122 203 191  255 0 0
5  148 143 139 117 158  255 0 0
4  144 85 89 215  255 0 0
5  143 176 53 54 64  255 0 0
4  144 112 86 85  255 0 0
5  144 189 134 184 112  255 0 0
5  143 64 3 63 139  255 0 0
4  131 0 1 132  255 0 0
4  129 121 204 120  255 0 0
5  129 120 177 38 37  255 0 0
4  132 28 27 131  255 0 0
5  177 25 24 164 38  255 0 0
8  177 120 204 200 209 212 27 25  255 0 0
4  171 170 98 101  255 0 0
4  33 221 122 127  255 0 0
5  33 83 84 22 34  255 0 0
4  35 137 140 126  255 0 0
6  126 185 155 118 198 35  255 0 0
8  126 140 141 15 67 44 11 197  255 0 0
4  116 126 197 196  255 0 0
5  113 95 11 43 127  255 0 0
5  125 100 99 163 165  255 0 0
4  109 58 57 108  255 0 0
4  107 91 100 125  255 0 0
5  107 31 32 36 106  255 0 0
5  124 76 80 58 109  255 0 0
4  118 155 158 117  255 0 0
4  118 41 42 198  255 0 0
3  119 20 218  255 0 0
6  118 218 20 103 40 41  255 0 0
4  117 183 218 118  255 0 0
4  119 218 183 136  255 0 0
4  221 206 203 122  255 0 0
4  215 89 88 111  255 0 0
4  182 178 176 143  255 0 0
5  182 96 56 55 178  255 0 0
7  215 111 9 56 96 94 114  255 0 0
4  182 115 94 96  255 0 0
5  115 116 196 95 94  255 0 0
4  114 94 95 113  255 0 0
4  211 172 174 175  255 0 0
4  211 180 12 219  255 0 0
4  193 65 7 160  255 0 0
4  188 209 65 193  255 0 0
3  188 212 209  255 0 0
5  184 2 10 86 112  255 0 0
5  184 134 63 3 2  255 0 0
4  111 88 8 9  255 0 0
4  86 48 50 87  255 0 0
4  86 10 49 48  255 0 0
6  88 87 10 53 66 8  255 0 0
5  178 55 66 53 176  255 0 0
5  163 99 98 97 24  255 0 0
8  164 97 98 154 78 73 37 38  255 0 0
3  164 24 97  255 0 0
5  163 24 25 27 26  255 0 0
4  151 80 79 157  255 0 0
5  110 77 62 80 151  255 0 0
5  157 79 74 78 154  255 0 0
3  103 20 18  255 0 0
4  146 145 19 18  255 0 0
4  103 18 19 104  255 0 0
4  139 63 183 117  255 0 0
4  136 183 63 134  255 0 0
4  53 10 2 54  255 0 0
4  55 8 47 46  255 0 0
4  55 46 45 66  255 0 0
4  51 28 160 69  255 0 0
4  90 60 77 110  255 0 0
5  90 110 101 100 91  255 0 0
3  105 42 39  255 0 0
4  104 39 40 103  255 0 0
4  87 50 49 10  255 0 0
4  101 98 99 100  255 0 0
4  95 196 197 11  255 0 0
4  93 61 60 90  255 0 0
4  93 90 91 92  255 0 0
5  89 85 86 87 88  255 0 0
5  79 75 37 73 74  255 0 0
4  80 76 75 79  255 0 0
3  78 74 73  255 0 0
5  72 52 51 69 68  255 0 0
5  68 69 6 71 70  255 0 0
4  17 130 229 67  255 0 0
4  67 15 13 17  255 0 0
3  11 44 43  255 0 0
4  8 55 56 9  255 0 0
4  66 45 47 8  255 0 0
4  136 149 150 119  255 0 0
4  203 150 149 191  255 0 0
4  60 59 62 77  255 0 0
4  80 62 59 58  255 0 0
4  209 200 199 65  255 0 0
5  134 189 191 149 136  255 0 0
4  64 54 2 3  255 0 0
4  69 160 7 6  255 0 0
4  71 6 7 65  255 0 0
4  142 13 15 141  255 0 0
4  142 141 140 137  255 0 0
5  61 57 58 59 60  255 0 0
4  52 29 28 51  255 0 0
3  50 48 49  255 0 0
3  47 45 46  255 0 0
4  42 41 40 39  255 0 0
5  34 22 21 12 180  255 0 0
4  29 26 27 28  255 0 0
3  17 128 130  255 0 0
3  14 5 4  255 0 0

