OFF
234 198 0

3.22691 -4.87253 77.464
8.47894 -6.38822 77.464
7.85729 -2.3589 77.464
-5.9 2.95 77.464
-5.33421 -1.01053 77.464
-0.933624 1.62982 77.464
-10.0007 -3.81041 40.977
-10.8368 -6.8908 40.977
-8.63631 1.21622 40.977
-6.61033 8.68034 40.977
-3.01134 7.69062 40.977
-0.0221215 6.86858 40.977
6.53125 5.0664 40.977
12.9889 3.29054 40.977
10.9237 -4.5793 40.977
9.01478 -11.8537 40.977
5.60799 -11.002 40.977
1.48696 -9.97174 40.977
-3.13458 -8.81635 40.977
-6.61033 8.68034 -2.813
-12.9104 -14.5302 -2.813
-5.32478 13.4166 -2.813
-5.1985 13.8818 -2.813
-4.26937 17.3049 -2.813
-2.15084 16.9951 -2.813
11.0349 15.0667 -2.813
11.7301 14.965 -2.813
14.6694 9.69444 -2.813
14.284 8.22561 -2.813
14.0545 7.35095 -2.813
12.9889 3.29054 -2.813
12.1126 -0.0488749 -2.813
8.71072 -13.0124 -2.813
7.66711 -16.9892 -2.813
7.27672 -18.4769 -2.813
2.41388 -20.9903 -2.813
1.01042 -20.3986 -2.813
-2.4671 -18.9327 -2.813
-9.96876 -22.9059 -24.713
-12.9722 -19.1572 -24.713
-12.9104 -14.5302 -24.713
-13.7892 -17.7683 -24.713
-5.26421 13.6398 -24.713
-4.26937 17.3049 -24.713
-3.46667 20.2623 -24.713
-1.67971 21.2028 -24.713
1.61937 22.9391 -24.713
6.9851 21.4172 -24.713
8.3472 21.0309 -24.713
11.3216 15.6975 -24.713
11.7301 14.965 -24.713
14.6694 9.69444 -24.713
8.71072 -13.0124 -24.713
7.27672 -18.4769 -24.713
2.41388 -20.9903 -24.713
1.68477 -21.3671 -24.713
-4.09544 -24.3546 -24.713
-5.49203 -24.0101 -24.713
-10.5775 -23.2283 -24.713
-8.01324 3.51175 62.877
-9.30716 -1.25532 62.877
-5.9 2.95 62.877
-5.9 2.95 62.877
-0.933624 1.62982 62.877
7.59154 -0.636358 62.877
11.6737 -1.72148 62.877
10.3103 -6.91674 62.877
8.47894 -6.38822 62.877
8 -6.25 62.877
3.22691 -4.87253 62.877
-5.1269 -2.4617 62.877
-6.9 -1.95 62.877
0.292306 -15.0654 19.087
3.33559 -15.8593 19.087
-5.00747 -13.6828 19.087
-7.32082 -13.0794 19.087
-10.8559 -6.96103 19.087
-10.8368 -6.8908 19.087
-6.61033 8.68034 19.087
-6.41987 9.38207 19.087
-0.362791 12.4779 19.087
3.11731 11.4676 19.087
5.73596 10.7073 19.087
11.343 9.07944 19.087
14.284 8.22561 19.087
12.9889 3.29054 19.087
10.9237 -4.5793 19.087
9.01478 -11.8537 19.087
8.71072 -13.0124 19.087
-2.0503 25.4805 -85.628
-2.0503 25.4805 -24.713
-3.34183 -8.43842 62.877
1.94843 13.6592 19.087
6.11113 15.7868 19.087
6.9851 21.4172 -10.003
12.1126 -0.0488749 -10.003
0.365565 16.6271 19.087
3.11731 11.4676 40.977
11.8365 14.7743 19.087
0.292306 -15.0654 40.977
-1.54948 -11.7068 40.977
14.0545 7.35095 -10.003
8.47894 -6.38822 85.519
3.22691 -4.87253 85.519
7.85729 -2.3589 85.519
5.51561 -10.9789 51.927
-10.0007 -3.81041 51.927
-5.9 2.95 85.519
-3.13458 -8.81635 51.927
-3.13458 -8.81635 62.877
9.01478 -11.8537 62.877
9.01478 -11.8537 51.927
1.48696 -9.97174 51.927
1.48696 -9.97174 62.877
-3.10494 7.71636 51.927
11.3216 15.6975 -85.628
2.84283 -2.95576 -85.628
8.3472 21.0309 -85.628
1.61937 22.9391 -85.628
-5.33421 -1.01053 85.519
-0.933624 1.62982 85.519
8.71072 -13.0124 -10.003
-4.09544 -24.3546 -10.003
-9.96876 -22.9059 -10.003
5.73596 10.7073 40.977
1.61937 22.9391 -10.003
8.3472 21.0309 -10.003
8.3472 21.0309 -2.813
1.61937 22.9391 -2.813
-3.46667 20.2623 -10.003
-1.66816 21.2089 -10.003
-3.46667 20.2623 -2.813
-4.71461 -20.123 -85.628
-5.49203 -24.0101 -85.628
2.88719 -16.0968 -85.628
3.26375 -20.551 -85.628
-9.96876 -22.9059 -85.628
-4.09544 -24.3546 -85.628
-5.1985 13.8818 19.087
10.3103 -6.91674 77.464
7.59154 -0.636358 77.464
11.6737 -1.72148 77.464
-10.5775 -23.2283 -10.003
-13.7892 -17.7683 -10.003
-13.7892 -17.7683 -2.813
-10.5775 -23.2283 -2.813
-0.0221215 6.86858 62.877
-0.0221215 6.86858 51.927
-8.83832 -13.3944 -85.628
-0.650203 4.61952 -85.628
-12.9722 -19.1572 -85.628
-13.7892 -17.7683 -85.628
-5.00747 -13.6828 40.977
-12.173 -11.8136 19.087
-8.55813 -26.6612 -24.713
-10.5775 -23.2283 -85.628
-8.55813 -26.6612 -85.628
-8.01324 3.51175 77.464
-9.30716 -1.25532 77.464
5.99781 25.2436 -85.628
5.99781 25.2436 -24.713
-1.72754 21.1776 -85.628
-2.4671 -18.9327 19.087
-4.26937 17.3049 -10.003
11.7301 14.965 -10.003
-6.61033 8.68034 51.927
12.9889 3.29054 51.927
12.9889 3.29054 62.877
-6.61033 8.68034 62.877
-9.21591 -16.0877 19.087
-10.8368 -6.8908 51.927
2.34401 -1.87398 -85.628
7.72158 -13.5363 -85.628
10.9237 -4.5793 51.927
2.41388 -20.9903 -10.003
-12.9104 -14.5302 -10.003
-14.893 -21.8348 -85.628
-2.31518 24.5046 -85.628
-2.28351 24.6213 -24.713
11.343 9.07944 40.977
4.6877 -15.1431 -85.628
8.71072 -13.0124 -85.628
0.680133 7.54626 -85.628
-3.46667 20.2623 -85.628
-15.2 -25.6766 -24.713
-5.30489 13.4899 -10.003
10.3103 -6.91674 51.927
-9.30716 -1.25532 51.927
1.44663 0.943138 -85.628
-7.32082 -13.0794 40.977
11.6737 -1.72148 51.927
-10.8559 -6.96103 40.977
-8.01324 3.51175 51.927
14.284 8.22561 40.977
4.10328 9.61885 40.977
8.71072 -13.0124 40.977
-5.1269 -2.4617 77.464
-12.9104 -14.5302 19.087
-4.26937 17.3049 19.087
11.7301 14.965 19.087
-4.09544 -24.3546 -2.813
-5.49203 -24.0101 -10.003
-9.96876 -22.9059 -2.813
4.37692 28.15 -85.628
14.6694 9.69444 -85.628
4.37692 28.15 -24.713
-6.41987 9.38207 40.977
-10.8368 -6.8908 62.877
-0.362791 12.4779 40.977
14.6694 9.69444 19.087
7.27672 -18.4769 19.087
3.33559 -15.8593 40.977
7.27672 -18.4769 -10.003
14.6694 9.69444 -10.003
-5.09573 14.2605 -85.628
1.20216 0.602334 -85.628
0.175684 -17.5329 19.087
-15.2 -28.15 -24.713
0.396056 -20.1396 19.087
-15.2 -22.9658 -24.713
-1.32571 28.15 -24.713
-11.4387 -28.15 -24.713
1.76744 1.39035 -85.628
7.66711 -16.9892 19.087
-14.893 -21.8348 -24.713
7.27672 -18.4769 -85.628
9.56206 13.258 19.087
-11.4387 -28.15 -85.628
2.41388 -20.9903 19.087
-15.2 -22.9658 -85.628
-8.63631 1.21622 51.927
-1.32571 28.15 -85.628
-15.2 -25.6766 -85.628
-15.2 -28.15 -85.628
4  233 232 184 217  255 0 0
4  233 217 221 227  255 0 0
5  233 227 156 155 232  255 0 0
5  229 232 155 150 176  255 0 0
4  231 203 205 220  255 0 0
7  231 89 177 161 118 159 203  255 0 0
4  229 219 184 232  255 0 0
4  231 220 90 89  255 0 0
4  229 176 224 219  255 0 0
6  225 181 172 180 134 135  255 0 0
4  225 53 52 181  255 0 0
4  227 221 154 156  255 0 0
5  225 135 55 54 53  255 0 0
4  53 212 121 52  0 255 63
4  53 54 174 212  0 255 63
5  221 217 184 58 154  255 0 0
7  220 205 160 46 45 178 90  255 0 0
5  219 224 39 58 184  255 0 0
6  51 52 121 95 101 213  0 255 63
4  51 213 164 50  0 255 63
5  212 34 33 32 121  0 255 63
4  213 27 26 164  0 255 63
4  212 174 35 34  0 255 63
5  213 101 29 28 27  0 255 63
5  27 209 98 199 26  0 255 255
4  34 210 223 33  0 255 255
4  34 35 228 210  0 255 255
4  27 28 84 209  0 255 255
6  210 228 218 216 73 223  0 255 255
5  209 84 83 226 98  0 255 255
4  204 181 52 51  255 0 0
5  204 115 116 172 181  255 0 0
4  205 203 159 160  255 0 0
5  51 50 49 115 204  255 0 0
4  198 138 22 23  0 255 255
7  199 98 226 82 81 92 93  0 255 255
6  198 96 92 81 80 138  0 255 255
4  26 127 126 164  0 255 63
7  23 131 128 127 26 25 24  0 255 63
5  23 22 21 185 163  0 255 63
8  199 93 96 198 23 24 25 26  0 255 255
5  35 200 202 37 36  0 255 63
5  197 153 75 74 169  0 255 255
7  20 19 78 77 76 153 197  0 255 255
4  20 144 143 175  0 255 63
5  20 37 202 145 144  0 255 63
4  228 35 36 218  0 255 255
5  197 169 162 37 20  0 255 255
4  195 15 87 88  255 191 0
7  88 87 86 85 30 31 32  0 255 255
3  88 223 73  0 255 255
6  162 169 74 72 73 216  0 255 255
4  162 218 36 37  0 255 255
3  162 216 218  0 255 255
7  195 211 99 100 17 16 15  255 191 0
4  88 73 211 195  255 191 0
4  84 85 13 193  255 191 0
6  193 13 12 194 124 179  255 191 0
6  138 79 78 19 21 22  0 255 255
3  138 80 79  0 255 255
4  193 179 83 84  255 191 0
4  192 165 168 59  0 63 255
5  192 230 8 9 165  0 63 255
5  190 173 186 66 65  0 63 255
5  190 166 13 14 173  0 63 255
5  192 59 60 187 230  0 63 255
4  190 65 167 166  0 63 255
5  164 126 48 49 50  0 255 63
6  163 185 175 40 42 43  0 255 63
4  163 129 131 23  0 255 63
4  43 44 129 163  0 255 63
5  43 42 214 183 44  255 0 0
5  187 106 6 8 230  0 63 255
4  186 111 110 66  0 63 255
5  186 173 14 15 111  0 63 255
5  187 60 207 170 106  0 63 255
4  66 139 141 65  127 255 0
5  60 158 196 70 71  127 255 0
4  66 67 1 139  127 255 0
5  66 110 113 68 67  0 63 255
5  60 71 91 109 207  0 63 255
4  177 89 90 178  255 0 0
4  180 172 116 171  255 0 0
5  180 171 222 188 134  255 0 0
4  178 45 161 177  255 0 0
5  222 182 149 215 188  255 0 0
8  222 171 116 115 117 118 161 182  255 0 0
4  224 176 150 39  255 0 0
4  85 86 14 13  255 191 0
5  85 84 28 29 30  0 255 255
4  78 79 206 9  255 191 0
6  9 8 6 7 77 78  255 191 0
8  9 206 208 97 124 194 11 10  255 191 0
4  165 9 10 114  0 63 255
5  166 147 11 12 13  0 63 255
5  40 41 151 214 42  255 0 0
4  174 122 200 35  0 255 63
4  175 143 41 40  0 255 63
5  175 185 21 19 20  0 255 63
5  54 55 56 122 174  0 255 63
4  7 6 106 170  0 63 255
4  7 191 76 77  255 191 0
3  17 100 18  255 191 0
6  7 18 100 152 189 191  255 191 0
4  170 108 18 7  0 63 255
4  17 18 108 112  0 63 255
4  86 87 15 14  255 191 0
4  65 141 140 64  127 255 0
4  59 157 158 60  127 255 0
5  59 61 62 3 157  127 255 0
7  65 64 63 62 61 146 167  0 63 255
4  59 168 146 61  0 63 255
5  168 165 114 147 146  0 63 255
4  167 146 147 166  0 63 255
4  32 33 223 88  0 255 255
4  32 31 95 121  0 255 63
4  160 48 47 46  255 0 0
4  159 117 48 160  255 0 0
3  159 118 117  255 0 0
5  68 69 0 1 67  127 255 0
5  68 113 109 91 69  0 63 255
4  64 140 5 63  127 255 0
4  1 102 104 2  255 0 191
4  1 0 103 102  255 0 191
6  140 2 0 196 4 5  127 255 0
5  157 3 4 196 158  127 255 0
5  214 151 150 148 149  255 0 0
8  215 148 150 155 136 132 134 188  255 0 0
3  215 149 148  255 0 0
5  214 149 182 161 183  255 0 0
4  154 56 137 156  255 0 0
5  58 38 57 56 154  255 0 0
5  156 137 133 136 155  255 0 0
3  152 100 99  255 191 0
4  211 73 72 99  255 191 0
4  152 99 72 74  255 191 0
4  207 109 108 170  0 63 255
4  112 108 109 113  0 63 255
4  196 0 69 70  127 255 0
4  3 5 120 107  127 0 255
4  3 107 119 4  127 0 255
4  130 45 46 125  0 255 63
4  142 123 38 58  0 255 63
5  142 58 39 41 143  0 255 63
3  153 76 75  0 255 255
4  74 75 189 152  255 191 0
4  2 104 103 0  255 0 191
4  39 150 151 41  255 0 0
4  147 114 10 11  0 63 255
4  145 202 123 142  0 255 63
4  145 142 143 144  0 255 63
5  141 139 1 2 140  127 255 0
5  137 135 134 132 133  255 0 0
4  56 55 135 137  255 0 0
3  136 133 132  255 0 0
5  131 129 130 125 128  0 255 63
5  128 125 94 126 127  0 255 63
4  82 83 179 124  255 191 0
4  124 97 81 82  255 191 0
3  11 194 12  255 191 0
4  5 3 62 63  127 255 0
4  4 119 120 5  127 0 255
4  112 105 16 17  0 63 255
4  15 16 105 111  0 63 255
4  123 201 57 38  0 255 63
4  56 57 201 122  0 255 63
4  117 115 49 48  255 0 0
5  113 110 111 105 112  0 63 255
4  71 70 69 91  0 63 255
4  125 46 47 94  0 255 63
4  126 94 47 48  0 255 63
4  80 81 97 208  255 191 0
4  80 208 206 79  255 191 0
5  202 200 122 201 123  0 255 63
4  129 44 45 130  0 255 63
3  104 102 103  255 0 191
3  120 119 107  127 0 255
4  76 191 189 75  255 191 0
5  30 29 101 95 31  0 255 63
4  44 183 161 45  255 0 0
3  82 226 83  0 255 255
3  96 93 92  0 255 255
17  88 73 72 74 75 76 77 78 79 80 81 82 83 84 85 86 87  0 255 255
17  73 88 87 86 85 84 83 82 81 80 79 78 77 76 75 74 72  255 191 0
13  71 60 59 61 62 63 64 65 66 67 68 69 70  0 63 255
13  60 71 70 69 68 67 66 65 64 63 62 61 59  127 255 0
20  39 41 40 42 43 44 45 46 47 48 49 50 51 52 53 54 55 56 57 38  255 0 0
20  41 39 38 57 56 55 54 53 52 51 50 49 48 47 46 45 44 43 42 40  0 255 63
3  58 39 38  255 0 0
3  39 58 38  0 255 63
19  37 20 19 21 22 23 24 25 26 27 28 29 30 31 32 33 34 35 36  0 255 63
19  20 37 36 35 34 33 32 31 30 29 28 27 26 25 24 23 22 21 19  0 255 255
13  18 7 6 8 9 10 11 12 13 14 15 16 17  255 191 0
13  7 18 17 16 15 14 13 12 11 10 9 8 6  0 63 255
3  5 4 3  127 255 0
3  4 5 3  127 0 255
3  2 1 0  127 255 0
3  1 2 0  255 0 191

