OFF
234 198 0

3.22691 -4.87253 77.464
8.47894 -6.38822 77.464
7.85729 -2.3589 77.464
-5.9 2.95 77.464
-5.33421 -1.01053 77.464
-0.933624 1.62982 77.464
-10.0007 -3.81041 40.977
-10.8368 -6.8908 40.977
-8.63631 1.21622 40.977
-6.61033 8.68034 40.977
-3.01134 7.69062 40.977
-0.0221215 6.86858 40.977
6.53125 5.0664 40.977
12.9889 3.29054 40.977
10.9237 -4.5793 40.977
9.01478 -11.8537 40.977
5.60799 -11.002 40.977
1.48696 -9.97174 40.977
-3.13458 -8.81635 40.977
-6.61033 8.68034 -2.813
-12.9104 -14.5302 -2.813
-5.32478 13.4166 -2.813
-5.1985 13.8818 -2.813
-4.26937 17.3049 -2.813
-2.15084 16.9951 -2.813
11.0349 15.0667 -2.813
11.7301 14.965 -2.813
14.6694 9.69444 -2.813
14.284 8.22561 -2.813
14.0545 7.35095 -2.813
12.9889 3.29054 -2.813
12.1126 -0.0488749 -2.813
8.71072 -13.0124 -2.813
7.66711 -16.9892 -2.813
7.27672 -18.4769 -2.813
2.41388 -20.9903 -2.813
1.01042 -20.3986 -2.813
-2.4671 -18.9327 -2.813
-9.96876 -22.9059 -24.713
-12.9722 -19.1572 -24.713
-12.9104 -14.5302 -24.713
-13.7892 -17.7683 -24.713
-5.26421 13.6398 -24.713
-4.26937 17.3049 -24.713
-3.46667 20.2623 -24.713
-1.67971 21.2028 -24.713
1.61937 22.9391 -24.713
6.9851 21.4172 -24.713
8.3472 21.0309 -24.713
11.3216 15.6975 -24.713
11.7301 14.965 -24.713
14.6694 9.69444 -24.713
8.71072 -13.0124 -24.713
7.27672 -18.4769 -24.713
2.41388 -20.9903 -24.713
1.68477 -21.3671 -24.713
-4.09544 -24.3546 -24.713
-5.49203 -24.0101 -24.713
-10.5775 -23.2283 -24.713
-8.01324 3.51175 62.877
-9.30716 -1.25532 62.877
-5.9 2.95 62.877
-5.9 2.95 62.877
-0.933624 1.62982 62.877
7.59154 -0.636358 62.877
11.6737 -1.72148 62.877
10.3103 -6.91674 62.877
8.47894 -6.38822 62.877
8 -6.25 62.877
3.22691 -4.87253 62.877
-5.1269 -2.4617 62.877
-6.9 -1.95 62.877
0.292306 -15.0654 19.087
3.33559 -15.8593 19.087
-5.00747 -13.6828 19.087
-7.32082 -13.0794 19.087
-10.8559 -6.96103 19.087
-10.8368 -6.8908 19.087
-6.61033 8.68034 19.087
-6.41987 9.38207 19.087
-0.362791 12.4779 19.087
3.11731 11.4676 19.087
5.73596 10.7073 19.087
11.343 9.07944 19.087
14.284 8.22561 19.087
12.9889 3.29054 19.087
10.9237 -4.5793 19.087
9.01478 -11.8537 19.087
8.71072 -13.0124 19.087
-2.0503 25.4805 -85.628
-2.0503 25.4805 -24.713
-3.34183 -8.43842 62.877
1.94843 13.6592 19.087
6.11113 15.7868 19.087
6.9851 21.4172 -10.003
-0.0221215 6.86858 51.927
11.343 9.07944 40.977
9.56206 13.258 19.087
12.1126 -0.0488749 -10.003
0.365565 16.6271 19.087
3.11731 11.4676 40.977
11.8365 14.7743 19.087
-4.09544 -24.3546 -2.813
-4.09544 -24.3546 -10.003
-5.49203 -24.0101 -10.003
-9.96876 -22.9059 -10.003
-9.96876 -22.9059 -2.813
-15.2 -28.15 -85.628
5.51561 -10.9789 51.927
-10.0007 -3.81041 51.927
8.47894 -6.38822 85.519
8.3472 21.0309 -10.003
1.61937 22.9391 -10.003
-10.5775 -23.2283 -85.628
-12.9722 -19.1572 -85.628
0.175684 -17.5329 19.087
0.396056 -20.1396 19.087
7.66711 -16.9892 19.087
-5.9 2.95 85.519
-3.13458 -8.81635 51.927
-3.13458 -8.81635 62.877
-8.63631 1.21622 51.927
9.01478 -11.8537 62.877
9.01478 -11.8537 51.927
1.48696 -9.97174 51.927
1.48696 -9.97174 62.877
-3.10494 7.71636 51.927
11.3216 15.6975 -85.628
2.84283 -2.95576 -85.628
8.3472 21.0309 -85.628
1.61937 22.9391 -85.628
8.71072 -13.0124 -10.003
8.3472 21.0309 -2.813
1.61937 22.9391 -2.813
-3.46667 20.2623 -10.003
-1.66816 21.2089 -10.003
-3.46667 20.2623 -2.813
-4.71461 -20.123 -85.628
-5.49203 -24.0101 -85.628
8.71072 -13.0124 -85.628
2.88719 -16.0968 -85.628
-10.5775 -23.2283 -2.813
-10.5775 -23.2283 -10.003
-13.7892 -17.7683 -2.813
-0.0221215 6.86858 62.877
-8.83832 -13.3944 -85.628
-0.650203 4.61952 -85.628
-13.7892 -17.7683 -85.628
-5.00747 -13.6828 40.977
3.33559 -15.8593 40.977
-8.55813 -26.6612 -24.713
0.292306 -15.0654 40.977
1.20216 0.602334 -85.628
-1.54948 -11.7068 40.977
-5.09573 14.2605 -85.628
-9.30716 -1.25532 77.464
-8.01324 3.51175 77.464
7.59154 -0.636358 77.464
14.0545 7.35095 -10.003
0.680133 7.54626 -85.628
-3.46667 20.2623 -85.628
-1.72754 21.1776 -85.628
-5.1269 -2.4617 77.464
-9.21591 -16.0877 19.087
-10.8368 -6.8908 51.927
2.34401 -1.87398 -85.628
7.72158 -13.5363 -85.628
10.9237 -4.5793 51.927
2.41388 -20.9903 -10.003
-12.9104 -14.5302 -10.003
12.9889 3.29054 51.927
-6.61033 8.68034 51.927
-5.33421 -1.01053 85.519
7.85729 -2.3589 85.519
-0.933624 1.62982 85.519
3.22691 -4.87253 85.519
-14.893 -21.8348 -85.628
-14.893 -21.8348 -24.713
1.76744 1.39035 -85.628
-2.31518 24.5046 -85.628
-2.28351 24.6213 -24.713
4.6877 -15.1431 -85.628
3.26375 -20.551 -85.628
-15.2 -25.6766 -24.713
5.99781 25.2436 -85.628
-5.30489 13.4899 -10.003
5.99781 25.2436 -24.713
11.7301 14.965 -10.003
10.3103 -6.91674 77.464
14.284 8.22561 40.977
-5.1985 13.8818 19.087
-13.7892 -17.7683 -10.003
11.6737 -1.72148 77.464
12.9889 3.29054 62.877
-6.61033 8.68034 62.877
4.10328 9.61885 40.977
8.71072 -13.0124 40.977
-2.4671 -18.9327 19.087
-12.173 -11.8136 19.087
2.41388 -20.9903 19.087
-12.9104 -14.5302 19.087
5.73596 10.7073 40.977
-15.2 -25.6766 -85.628
-4.26937 17.3049 19.087
11.7301 14.965 19.087
-10.8368 -6.8908 62.877
4.37692 28.15 -85.628
14.6694 9.69444 -85.628
14.6694 9.69444 19.087
7.27672 -18.4769 19.087
-9.96876 -22.9059 -85.628
-8.55813 -26.6612 -85.628
14.6694 9.69444 -10.003
10.3103 -6.91674 51.927
-4.09544 -24.3546 -85.628
7.27672 -18.4769 -10.003
-9.30716 -1.25532 51.927
1.44663 0.943138 -85.628
-4.26937 17.3049 -10.003
4.37692 28.15 -24.713
-7.32082 -13.0794 40.977
-15.2 -28.15 -24.713
-10.8559 -6.96103 40.977
-15.2 -22.9658 -24.713
-1.32571 28.15 -24.713
-11.4387 -28.15 -24.713
11.6737 -1.72148 51.927
-8.01324 3.51175 51.927
-6.41987 9.38207 40.977
-11.4387 -28.15 -85.628
-0.362791 12.4779 40.977
7.27672 -18.4769 -85.628
-15.2 -22.9658 -85.628
-1.32571 28.15 -85.628
4  107 202 183 221  255 0 0
4  107 221 225 229  255 0 0
5  107 229 211 113 202  255 0 0
5  232 202 113 114 176  255 0 0
4  233 206 219 224  255 0 0
7  233 89 179 161 130 184 206  255 0 0
4  232 223 183 202  255 0 0
4  233 224 90 89  255 0 0
4  232 176 177 223  255 0 0
6  231 139 166 181 140 182  255 0 0
4  231 53 52 139  255 0 0
4  229 225 150 211  255 0 0
5  231 182 55 54 53  255 0 0
4  53 215 131 52  0 255 63
4  53 54 168 215  0 255 63
5  225 221 183 58 150  255 0 0
7  224 219 186 46 45 180 90  255 0 0
5  223 177 39 58 183  255 0 0
6  51 52 131 98 158 212  0 255 63
4  51 212 187 50  0 255 63
5  215 34 33 32 131  0 255 63
4  212 27 26 187  0 255 63
4  215 168 35 34  0 255 63
5  212 158 29 28 27  0 255 63
5  27 208 101 204 26  0 255 255
4  34 209 117 33  0 255 255
4  34 35 199 209  0 255 255
4  27 28 84 208  0 255 255
6  209 199 116 115 73 117  0 255 255
5  208 84 83 97 101  0 255 255
4  207 139 52 51  255 0 0
5  207 127 128 166 139  255 0 0
4  219 206 184 186  255 0 0
5  51 50 49 127 207  255 0 0
4  203 190 22 23  0 255 255
7  204 101 97 82 81 92 93  0 255 255
6  203 99 92 81 80 190  0 255 255
4  26 132 111 187  0 255 63
7  23 136 133 132 26 25 24  0 255 63
5  23 22 21 185 218  0 255 63
8  204 93 99 203 23 24 25 26  0 255 255
5  35 102 106 37 36  0 255 63
5  200 198 75 74 163  0 255 255
7  20 19 78 77 76 198 200  0 255 255
4  20 143 191 169  0 255 63
5  20 37 106 141 143  0 255 63
4  199 35 36 116  0 255 255
5  200 163 197 37 20  0 255 255
4  196 15 87 88  255 191 0
7  88 87 86 85 30 31 32  0 255 255
3  88 117 73  0 255 255
6  197 163 74 72 73 115  0 255 255
4  197 116 36 37  0 255 255
3  197 115 116  0 255 255
7  196 149 151 153 17 16 15  255 191 0
4  88 73 149 196  255 191 0
4  84 85 13 189  255 191 0
6  189 13 12 195 201 96  255 191 0
6  190 79 78 19 21 22  0 255 255
3  190 80 79  0 255 255
4  189 96 83 84  255 191 0
4  227 171 194 59  0 63 255
5  227 121 8 9 171  0 63 255
5  226 167 213 66 65  0 63 255
5  226 170 13 14 167  0 63 255
5  227 59 60 216 121  0 63 255
4  226 65 193 170  0 63 255
5  187 111 48 49 50  0 255 63
6  218 185 169 40 42 43  0 255 63
4  218 134 136 23  0 255 63
4  43 44 134 218  0 255 63
5  43 42 154 160 44  255 0 0
5  216 109 6 8 121  0 63 255
4  213 123 122 66  0 63 255
5  213 167 14 15 123  0 63 255
5  216 60 205 164 109  0 63 255
4  66 188 192 65  127 255 0
5  60 155 162 70 71  127 255 0
4  66 67 1 188  127 255 0
5  66 122 125 68 67  0 63 255
5  60 71 91 120 205  0 63 255
4  179 89 90 180  255 0 0
4  181 166 128 165  255 0 0
5  181 165 178 217 140  255 0 0
4  180 45 161 179  255 0 0
5  178 159 146 152 217  255 0 0
8  178 165 128 127 129 130 161 159  255 0 0
4  177 176 114 39  255 0 0
4  85 86 14 13  255 191 0
5  85 84 28 29 30  0 255 255
4  78 79 228 9  255 191 0
6  9 8 6 7 77 78  255 191 0
8  9 228 230 100 201 195 11 10  255 191 0
4  171 9 10 126  0 63 255
5  170 95 11 12 13  0 63 255
5  40 41 147 154 42  255 0 0
4  168 103 102 35  0 255 63
4  169 191 41 40  0 255 63
5  169 185 21 19 20  0 255 63
5  54 55 56 103 168  0 255 63
4  7 6 109 164  0 63 255
4  7 222 76 77  255 191 0
3  17 153 18  255 191 0
6  7 18 153 148 220 222  255 191 0
4  164 119 18 7  0 63 255
4  17 18 119 124  0 63 255
4  86 87 15 14  255 191 0
4  65 192 157 64  127 255 0
4  59 156 155 60  127 255 0
5  59 61 62 3 156  127 255 0
7  65 64 63 62 61 144 193  0 63 255
4  59 194 144 61  0 63 255
5  194 171 126 95 144  0 63 255
4  193 144 95 170  0 63 255
4  32 33 117 88  0 255 255
4  32 31 98 131  0 255 63
4  186 48 47 46  255 0 0
4  184 129 48 186  255 0 0
3  184 130 129  255 0 0
5  68 69 0 1 67  127 255 0
5  68 125 120 91 69  0 63 255
4  64 157 5 63  127 255 0
4  1 110 173 2  255 0 191
4  1 0 175 110  255 0 191
6  157 2 0 162 4 5  127 255 0
5  156 3 4 162 155  127 255 0
5  154 147 114 145 146  255 0 0
8  152 145 114 113 210 137 140 217  255 0 0
3  152 146 145  255 0 0
5  154 146 159 161 160  255 0 0
4  150 56 214 211  255 0 0
5  58 38 57 56 150  255 0 0
5  211 214 138 210 113  255 0 0
3  148 153 151  255 191 0
4  149 73 72 151  255 191 0
4  148 151 72 74  255 191 0
4  205 120 119 164  0 63 255
4  124 119 120 125  0 63 255
4  162 0 69 70  127 255 0
4  3 5 174 118  127 0 255
4  3 118 172 4  127 0 255
4  135 45 46 112  0 255 63
4  142 105 38 58  0 255 63
5  142 58 39 41 191  0 255 63
3  198 76 75  0 255 255
4  74 75 220 148  255 191 0
4  2 173 175 0  255 0 191
4  39 114 147 41  255 0 0
4  95 126 10 11  0 63 255
4  141 106 105 142  0 255 63
4  141 142 191 143  0 255 63
5  192 188 1 2 157  127 255 0
5  214 182 140 137 138  255 0 0
4  56 55 182 214  255 0 0
3  210 138 137  255 0 0
5  136 134 135 112 133  0 255 63
5  133 112 94 111 132  0 255 63
4  82 83 96 201  255 191 0
4  201 100 81 82  255 191 0
3  11 195 12  255 191 0
4  5 3 62 63  127 255 0
4  4 172 174 5  127 0 255
4  124 108 16 17  0 63 255
4  15 16 108 123  0 63 255
4  105 104 57 38  0 255 63
4  56 57 104 103  0 255 63
4  129 127 49 48  255 0 0
5  125 122 123 108 124  0 63 255
4  71 70 69 91  0 63 255
4  112 46 47 94  0 255 63
4  111 94 47 48  0 255 63
4  80 81 100 230  255 191 0
4  80 230 228 79  255 191 0
5  106 102 103 104 105  0 255 63
4  134 44 45 135  0 255 63
3  173 110 175  255 0 191
3  174 172 118  127 0 255
4  76 222 220 75  255 191 0
5  30 29 158 98 31  0 255 63
4  44 160 161 45  255 0 0
3  82 97 83  0 255 255
3  99 93 92  0 255 255
17  88 73 72 74 75 76 77 78 79 80 81 82 83 84 85 86 87  0 255 255
17  73 88 87 86 85 84 83 82 81 80 79 78 77 76 75 74 72  255 191 0
13  71 60 59 61 62 63 64 65 66 67 68 69 70  0 63 255
13  60 71 70 69 68 67 66 65 64 63 62 61 59  127 255 0
20  39 41 40 42 43 44 45 46 47 48 49 50 51 52 53 54 55 56 57 38  255 0 0
20  41 39 38 57 56 55 54 53 52 51 50 49 48 47 46 45 44 43 42 40  0 255 63
3  58 39 38  255 0 0
3  39 58 38  0 255 63
19  37 20 19 21 22 23 24 25 26 27 28 29 30 31 32 33 34 35 36  0 255 63
19  20 37 36 35 34 33 32 31 30 29 28 27 26 25 24 23 22 21 19  0 255 255
13  18 7 6 8 9 10 11 12 13 14 15 16 17  255 191 0
13  7 18 17 16 15 14 13 12 11 10 9 8 6  0 63 255
3  5 4 3  127 255 0
3  4 5 3  127 0 255
3  2 1 0  127 255 0
3  1 2 0  255 0 191

