COFF
764 1332 0

-14.6 -20.85 -24.713
-12.8 -19.45 -24.713
-12.8 -19.45 -85.528
-14.6 -20.85 -85.528
-15.1 -22.75 -24.713
-15.1 -22.75 -85.528
-12 -27.75 -24.713
-12 -27.75 -85.528
-10.8 -28.05 -24.713
-10.8 -28.05 -85.528
-5.7 -25.05 -24.713
-5.7 -25.05 -85.528
-5.5 -24.05 -24.713
-5.5 -24.05 -85.528
-4.1 -24.25 -24.713
-4.1 -24.25 -85.528
1.1 -21.15 -24.713
1.1 -21.15 -85.528
1.2 -19.95 -24.713
1.2 -19.95 -85.528
2.7 -20.25 -24.713
2.7 -20.25 -85.528
7.9 -17.15 -24.713
7.9 -17.15 -85.528
8.2 -16.05 -24.713
8.2 -16.05 -85.528
7.2 -13.85 -24.713
7.2 -13.85 -85.528
9.1 -12.75 -24.713
9.1 -12.75 -85.528
9.5 -11.05 -24.713
9.5 -11.05 -85.528
8.6 -8.85 -24.713
8.6 -8.85 -85.528
10.5 -7.65 -24.713
10.5 -7.65 -85.528
12.3 -0.85 -24.713
12.3 -0.85 -85.528
11.3 1.25 -24.713
11.3 1.25 -85.528
13.3 2.55 -24.713
13.3 2.55 -85.528
13.8 4.25 -24.713
13.8 4.25 -85.528
12.7 6.15 -24.713
12.7 6.15 -85.528
14.7 7.65 -24.713
14.7 7.65 -85.528
15.1 8.75 -24.713
15.1 8.75 -85.528
12.2 14.05 -24.713
12.2 14.05 -85.528
10.8 14.55 -24.713
10.8 14.55 -85.528
11.3 15.65 -24.713
11.3 15.65 -85.528
8.3 20.95 -24.713
8.3 20.95 -85.528
7 21.45 -24.713
7 21.45 -85.528
7.5 22.55 -24.713
7.5 22.55 -85.528
4.6 27.75 -24.713
4.6 27.75 -85.528
3.2 28.05 -24.713
3.2 28.05 -85.528
-2 25.35 -24.713
-2 25.35 -85.528
-2.5 23.45 -24.713
-2.5 23.45 -85.528
-1.4 21.35 -24.713
-1.4 21.35 -85.528
-3.3 20.35 -24.713
-3.3 20.35 -85.528
-13.8 -17.75 -24.713
-13.8 -17.75 -85.528
11.9 6.35 -24.713
14.1 8.05 -24.713
14.3 8.65 -24.713
9.9 14.25 -24.713
10.6 15.65 -24.713
7.8 20.45 -24.713
6.2 21.15 -24.713
6.7 22.55 -24.713
4.1 27.15 -24.713
3.3 27.35 -24.713
-1.4 24.95 -24.713
-1.7 23.55 -24.713
-0.6 21.05 -24.713
-2.9 19.95 -24.713
-13.1 -17.65 -24.713
11.7 13.45 -24.713
-11.9 -19.65 -24.713
-11.7 -27.05 -24.713
-10.9 -27.45 -24.713
-6.3 -24.65 -24.713
-14.4 -22.65 -24.713
-6 -23.35 -24.713
-14 -21.25 -24.713
-4.2 -23.55 -24.713
0.5 -20.75 -24.713
0.7 -19.25 -24.713
2.6 -19.55 -24.713
7.3 -16.75 -24.713
7.5 -16.05 -24.713
6.4 -13.45 -24.713
8.6 -12.25 -24.713
8.9 -11.05 -24.713
7.8 -8.65 -24.713
9.9 -7.15 -24.713
11.7 -0.85 -24.713
10.4 1.45 -24.713
12.7 3.05 -24.713
13.1 4.25 -24.713
-12.8 -19.45 -24.038
-14.6 -20.85 -24.038
-14 -21.25 -24.038
-11.9 -19.65 -24.038
-15.1 -22.75 -24.038
-14.4 -22.65 -24.038
-12 -27.75 -24.038
-11.7 -27.05 -24.038
-10.8 -28.05 -24.038
-10.9 -27.45 -24.038
-5.7 -25.05 -24.038
-6.3 -24.65 -24.038
-5.5 -24.05 -24.038
-6 -23.35 -24.038
7 21.45 -24.038
7.5 22.55 -24.038
6.7 22.55 -24.038
6.2 21.15 -24.038
4.6 27.75 -24.038
4.1 27.15 -24.038
3.2 28.05 -24.038
3.3 27.35 -24.038
-2 25.35 -24.038
-1.4 24.95 -24.038
-2.5 23.45 -24.038
-1.7 23.55 -24.038
-1.4 21.35 -24.038
-0.6 21.05 -24.038
-5.5 -24.05 -10.003
-10.9 -22.65 -10.003
-10.9 -22.65 -24.713
-5.5 -24.05 -24.713
-4.1 -24.25 -10.003
-4.1 -24.25 -24.713
1.1 -21.15 -10.003
1.1 -21.15 -24.713
1.2 -19.95 -10.003
1.2 -19.95 -24.713
2.7 -20.25 -10.003
2.7 -20.25 -24.713
7.9 -17.15 -10.003
7.9 -17.15 -24.713
8.2 -16.05 -10.003
8.2 -16.05 -24.713
7.2 -13.85 -10.003
7.2 -13.85 -24.713
9.1 -12.75 -10.003
9.1 -12.75 -24.713
9.5 -11.05 -10.003
9.5 -11.05 -24.713
8.6 -8.85 -10.003
8.6 -8.85 -24.713
10.5 -7.65 -10.003
10.5 -7.65 -24.713
12.3 -0.85 -10.003
12.3 -0.85 -24.713
11.3 1.25 -10.003
11.3 1.25 -24.713
13.3 2.55 -10.003
13.3 2.55 -24.713
13.8 4.25 -10.003
13.8 4.25 -24.713
12.7 6.15 -10.003
12.7 6.15 -24.713
14.7 7.75 -10.003
14.7 7.75 -24.713
15.1 8.85 -10.003
15.1 8.85 -24.713
12.2 14.05 -10.003
12.2 14.05 -24.713
10.8 14.55 -10.003
10.8 14.55 -24.713
11.3 15.65 -10.003
11.3 15.65 -24.713
8.3 20.95 -10.003
8.3 20.95 -24.713
7 21.45 -10.003
7 21.45 -24.713
1.5 22.95 -10.003
1.5 22.95 -24.713
-3.4 20.35 -10.003
-3.4 20.35 -24.713
-13.8 -17.75 -10.003
-13.8 -17.75 -24.713
1.2 -19.95 19.087
-9.3 -17.15 19.087
-9.3 -17.15 -2.813
1.2 -19.95 -2.813
2.7 -20.25 19.087
2.7 -20.25 -2.813
7.9 -17.15 19.087
7.9 -17.15 -2.813
8.2 -16.05 19.087
8.2 -16.05 -2.813
7.2 -13.85 19.087
7.2 -13.85 -2.813
9.1 -12.75 19.087
9.1 -12.75 -2.813
9.5 -11.05 19.087
9.5 -11.05 -2.813
8.6 -8.85 19.087
8.6 -8.85 -2.813
10.5 -7.65 19.087
10.5 -7.65 -2.813
12.3 -0.85 19.087
12.3 -0.85 -2.813
11.3 1.25 19.087
11.3 1.25 -2.813
13.3 2.55 19.087
13.3 2.55 -2.813
13.8 4.25 19.087
13.8 4.25 -2.813
12.7 6.15 19.087
12.7 6.15 -2.813
14.7 7.75 19.087
14.7 7.75 -2.813
15.1 8.85 19.087
15.1 8.85 -2.813
12.2 14.05 19.087
12.2 14.05 -2.813
10.8 14.55 19.087
10.8 14.55 -2.813
0.3 17.75 19.087
0.3 17.75 -2.813
-2.8 16.55 19.087
-2.8 16.55 -2.813
-4.8 15.35 19.087
-4.8 15.35 -2.813
-12.4 -12.65 19.087
-12.4 -12.65 -2.813
-11.3 -14.75 19.087
-11.3 -14.75 -2.813
6.4 -13.45 19.087
8.6 -12.25 19.087
8.9 -11.05 19.087
14.1 8.05 19.087
14.3 8.65 19.087
11.7 13.45 19.087
11.9 6.35 19.087
10.6 14.05 19.087
0.3 17.05 19.087
-2.5 15.95 19.087
-4.2 14.95 19.087
-11.7 -12.55 19.087
13.1 4.25 19.087
12.7 3.05 19.087
10.4 1.45 19.087
11.7 -0.85 19.087
9.9 -7.15 19.087
7.8 -8.65 19.087
-10.8 -14.45 19.087
-8.9 -16.65 19.087
1.4 -19.45 19.087
2.6 -19.55 19.087
7.3 -16.75 19.087
7.5 -16.05 19.087
-9.3 -17.15 19.762
1.2 -19.95 19.762
1.4 -19.45 19.762
-8.9 -16.65 19.762
2.7 -20.25 19.762
2.6 -19.55 19.762
7.9 -17.15 19.762
7.3 -16.75 19.762
8.2 -16.05 19.762
7.5 -16.05 19.762
7.2 -13.85 19.762
6.4 -13.45 19.762
12.7 6.15 19.762
14.7 7.75 19.762
14.1 8.05 19.762
11.9 6.35 19.762
15.1 8.85 19.762
14.3 8.65 19.762
12.2 14.05 19.762
11.7 13.45 19.762
10.8 14.55 19.762
10.6 14.05 19.762
0.3 17.75 19.762
0.3 17.05 19.762
-2.8 16.55 19.762
-2.5 15.95 19.762
-4.8 15.35 19.762
-4.2 14.95 19.762
-12.4 -12.65 19.762
-11.7 -12.55 19.762
-11.3 -14.75 19.762
-10.8 -14.45 19.762
-5.5 -24.05 -2.813
-10.9 -22.65 -2.813
-10.9 -22.65 -10.003
-5.5 -24.05 -10.003
-4.1 -24.25 -2.813
-4.1 -24.25 -10.003
1.1 -21.15 -2.813
1.1 -21.15 -10.003
1.2 -19.95 -10.003
2.7 -20.25 -10.003
7.9 -17.15 -10.003
8.2 -16.05 -10.003
7.2 -13.85 -10.003
9.1 -12.75 -10.003
9.5 -11.05 -10.003
8.6 -8.85 -10.003
10.5 -7.65 -10.003
12.3 -0.85 -10.003
11.3 1.25 -10.003
13.3 2.55 -10.003
13.8 4.25 -10.003
12.7 6.15 -10.003
14.7 7.75 -10.003
15.1 8.85 -10.003
12.2 14.05 -10.003
10.8 14.55 -10.003
11.3 15.65 -2.813
11.3 15.65 -10.003
8.3 20.95 -2.813
8.3 20.95 -10.003
7 21.45 -2.813
7 21.45 -10.003
1.5 22.95 -2.813
1.5 22.95 -10.003
-3.4 20.35 -2.813
-3.4 20.35 -10.003
-3.8 18.65 -2.813
-3.8 18.65 -10.003
-2.8 16.55 -10.003
-4.8 15.35 -10.003
-12.4 -12.65 -10.003
-11.3 -14.75 -10.003
-13.3 -15.95 -2.813
-13.3 -15.95 -10.003
-13.8 -17.75 -2.813
-13.8 -17.75 -10.003
14.1 8.05 -2.813
14.3 8.65 -2.813
11.7 13.45 -2.813
9.9 14.25 -2.813
10.6 15.65 -2.813
7.8 20.45 -2.813
1.6 22.15 -2.813
-2.9 19.95 -2.813
-3.1 18.75 -2.813
-1.9 16.25 -2.813
6.8 20.95 -2.813
-10.5 -15.05 -2.813
-12.8 -16.45 -2.813
-13.1 -17.65 -2.813
-10.5 -22.15 -2.813
-5.4 -23.45 -2.813
-4.2 -23.55 -2.813
0.5 -20.75 -2.813
0.7 -19.25 -2.813
2.6 -19.55 -2.813
7.3 -16.75 -2.813
7.5 -16.05 -2.813
6.4 -13.45 -2.813
8.6 -12.25 -2.813
8.9 -11.05 -2.813
7.8 -8.65 -2.813
-11.7 -12.55 -2.813
9.9 -7.15 -2.813
11.7 -0.85 -2.813
10.4 1.45 -2.813
12.7 3.05 -2.813
13.1 4.25 -2.813
11.9 6.35 -2.813
-4.2 14.95 -2.813
-10.9 -22.65 -2.138
-5.5 -24.05 -2.138
-5.4 -23.45 -2.138
-10.5 -22.15 -2.138
-4.1 -24.25 -2.138
-4.2 -23.55 -2.138
1.1 -21.15 -2.138
0.5 -20.75 -2.138
1.2 -19.95 -2.138
0.7 -19.25 -2.138
10.8 14.55 -2.138
11.3 15.65 -2.138
10.6 15.65 -2.138
9.9 14.25 -2.138
8.3 20.95 -2.138
7.8 20.45 -2.138
7 21.45 -2.138
6.8 20.95 -2.138
1.5 22.95 -2.138
1.6 22.15 -2.138
-3.4 20.35 -2.138
-2.9 19.95 -2.138
-3.8 18.65 -2.138
-3.1 18.75 -2.138
-2.8 16.55 -2.138
-1.9 16.25 -2.138
-11.3 -14.75 -2.138
-13.3 -15.95 -2.138
-12.8 -16.45 -2.138
-10.5 -15.05 -2.138
-13.8 -17.75 -2.138
-13.1 -17.65 -2.138
3.3 -15.85 40.977
-8.2 -12.85 40.977
-8.2 -12.85 19.087
3.3 -15.85 19.087
7.2 -13.85 40.977
9.1 -12.75 40.977
9.5 -11.05 40.977
8.6 -8.85 40.977
10.5 -7.65 40.977
12.3 -0.85 40.977
11.3 1.25 40.977
13.3 2.55 40.977
13.8 4.25 40.977
12.7 6.15 40.977
11.1 9.15 40.977
11.1 9.15 19.087
-1.3 12.75 40.977
-1.3 12.75 19.087
-6.1 10.15 40.977
-6.1 10.15 19.087
-11.1 -7.85 40.977
-11.1 -7.85 19.087
6.9 -13.15 40.977
8.6 -12.25 40.977
8.9 -11.05 40.977
7.8 -8.65 40.977
9.9 -7.15 40.977
11.7 -0.85 40.977
-1.2 12.05 40.977
-5.7 9.75 40.977
-10.4 -7.75 40.977
10.6 8.55 40.977
12.2 5.85 40.977
13.1 4.25 40.977
12.7 3.05 40.977
10.4 1.45 40.977
-7.8 -12.25 40.977
3.2 -15.05 40.977
-8.2 -12.85 41.652
3.3 -15.85 41.652
3.2 -15.05 41.652
-7.8 -12.25 41.652
7.2 -13.85 41.652
6.9 -13.15 41.652
9.1 -12.75 41.652
8.6 -12.25 41.652
9.5 -11.05 41.652
8.9 -11.05 41.652
8.6 -8.85 41.652
7.8 -8.65 41.652
11.3 1.25 41.652
13.3 2.55 41.652
12.7 3.05 41.652
10.4 1.45 41.652
13.8 4.25 41.652
13.1 4.25 41.652
12.7 6.15 41.652
12.2 5.85 41.652
11.1 9.15 41.652
10.6 8.55 41.652
-1.3 12.75 41.652
-1.2 12.05 41.652
-6.1 10.15 41.652
-5.7 9.75 41.652
-11.1 -7.85 41.652
-10.4 -7.75 41.652
4.2 -10.65 51.927
-7 -7.85 51.927
-7 -7.85 40.977
4.2 -10.65 40.977
8.6 -8.85 51.927
10.5 -7.65 51.927
12.3 -0.85 51.927
11.3 1.25 51.927
9.5 4.25 51.927
9.5 4.25 40.977
-2.5 7.55 51.927
-2.5 7.55 40.977
-7.6 4.95 51.927
-7.6 4.95 40.977
-9.6 -2.35 51.927
-9.5 -2.35 40.977
4.2 -10.65 62.877
-7 -7.85 62.877
8.6 -8.85 62.877
10.5 -7.65 62.877
10.9 -6.25 62.877
10.9 -6.25 51.927
10 -5.05 62.877
10 -5.05 51.927
11.5 -4.25 62.877
11.5 -4.25 51.927
10.7 -2.85 62.877
10.7 -2.85 51.927
11.9 -2.25 62.877
11.9 -2.25 51.927
12.3 -0.85 62.877
11.3 1.25 62.877
9.5 4.25 62.877
-2.5 7.55 62.877
-7.6 4.95 62.877
-8 3.45 62.877
-8 3.45 51.927
-7.2 2.15 62.877
-7.2 2.15 51.927
-8.6 1.15 62.877
-8.6 1.15 51.927
-7.9 -0.250001 62.877
-7.9 -0.250001 51.927
-9.2 -1.05 62.877
-9.2 -1.05 51.927
-9.6 -2.25 62.877
-9.6 -2.25 51.927
9.8 -2.55 62.877
11.5 -1.75 62.877
11.7 -0.85 62.877
10.7 0.95 62.877
-7.1 4.55 62.877
-7.3 3.55 62.877
-6.4 1.85 62.877
-2.5 6.95 62.877
9.1 3.75 62.877
-7.7 0.95 62.877
-7 -0.55 62.877
-8.9 -2.25 62.877
-6.5 -7.35 62.877
4.2 -9.95 62.877
-8.6 -1.45 62.877
8.3 -8.25 62.877
9.9 -7.15 62.877
10.2 -6.35 62.877
9.1 -4.85 62.877
10.6 -3.95 62.877
-7 -7.85 63.552
4.2 -10.65 63.552
4.2 -9.95 63.552
-6.5 -7.35 63.552
8.6 -8.85 63.552
8.3 -8.25 63.552
10.5 -7.65 63.552
9.9 -7.15 63.552
10.9 -6.25 63.552
10.2 -6.35 63.552
10 -5.05 63.552
9.1 -4.85 63.552
10.7 -2.85 63.552
11.9 -2.25 63.552
11.5 -1.75 63.552
9.8 -2.55 63.552
12.3 -0.85 63.552
11.7 -0.85 63.552
11.3 1.25 63.552
10.7 0.95 63.552
9.5 4.25 63.552
9.1 3.75 63.552
-2.5 7.55 63.552
-2.5 6.95 63.552
-7.6 4.95 63.552
-7.1 4.55 63.552
-8 3.45 63.552
-7.3 3.55 63.552
-7.2 2.15 63.552
-6.4 1.85 63.552
-7.9 -0.250001 63.552
-9.2 -1.05 63.552
-8.6 -1.45 63.552
-7 -0.55 63.552
-9.6 -2.25 63.552
-8.9 -2.25 63.552
11.5 -4.25 77.464
8 -6.25 77.464
8 -6.25 62.877
9.9 -1.25 77.464
9.9 -1.25 62.877
-5.9 2.95 77.464
-5.9 2.95 62.877
-8.6 1.15 77.464
-6.9 -1.95 77.464
-6.9 -1.95 62.877
7.9 -5.55 77.464
10.6 -3.95 77.464
9.5 -1.85 77.464
-5.8 2.25 77.464
-7.7 0.95 77.464
-6.5 -1.45 77.464
9.9 -1.25 85.519
-5.9 2.95 85.519
-5.8 2.25 85.519
9.5 -1.85 85.519
-6.9 -1.95 85.519
8 -6.25 85.519
7.9 -5.55 85.519
-6.5 -1.45 85.519
-3.9 -0.150001 85.528
-3.9 -0.150001 77.473
-8.6 1.15 85.519
11.5 -4.25 85.519
6.4 -3.15 85.5261
6.4 -3.15 77.471
-4.5 0.05 83.527
-6 2.45 83.519
-8.1 0.95 83.52
-6.8 -1.45 83.5191
10.9 -4.15 83.5198
9.7 -1.85 83.519
6.9 -3.45 83.5253
8.2 -5.75 83.5191
10.9 -4.15 85.5198
8.2 -5.75 85.5191
9.7 -1.85 85.519
6.9 -3.45 85.5253
-4.5 0.05 85.527
-6.8 -1.45 85.5191
-6 2.45 85.519
-8.1 0.95 85.52
1.2 -19.95 -2.813
2.7 -20.25 -2.813
2.7 -20.25 -2.813
2.7 -20.25 -2.813
7.9 -17.15 -2.813
7.9 -17.15 -2.813
7.9 -17.15 -2.813
8.2 -16.05 -2.813
8.2 -16.05 -2.813
8.2 -16.05 -2.813
7.2 -13.85 19.087
7.2 -13.85 -2.813
7.2 -13.85 -2.813
7.2 -13.85 -2.813
9.1 -12.75 19.087
9.1 -12.75 19.087
9.1 -12.75 19.087
9.1 -12.75 -2.813
9.1 -12.75 -2.813
9.1 -12.75 -2.813
9.5 -11.05 19.087
9.5 -11.05 19.087
9.5 -11.05 19.087
9.5 -11.05 -2.813
9.5 -11.05 -2.813
9.5 -11.05 -2.813
8.6 -8.85 19.087
8.6 -8.85 19.087
8.6 -8.85 19.087
8.6 -8.85 -2.813
8.6 -8.85 -2.813
8.6 -8.85 -2.813
10.5 -7.65 19.087
10.5 -7.65 19.087
10.5 -7.65 19.087
10.5 -7.65 -2.813
10.5 -7.65 -2.813
10.5 -7.65 -2.813
12.3 -0.85 19.087
12.3 -0.85 19.087
12.3 -0.85 19.087
12.3 -0.85 -2.813
12.3 -0.85 -2.813
12.3 -0.85 -2.813
11.3 1.25 19.087
11.3 1.25 19.087
11.3 1.25 19.087
11.3 1.25 -2.813
11.3 1.25 -2.813
11.3 1.25 -2.813
13.3 2.55 19.087
13.3 2.55 19.087
13.3 2.55 19.087
13.3 2.55 -2.813
13.3 2.55 -2.813
13.3 2.55 -2.813
13.8 4.25 19.087
13.8 4.25 19.087
13.8 4.25 19.087
13.8 4.25 -2.813
13.8 4.25 -2.813
13.8 4.25 -2.813
12.7 6.15 19.087
12.7 6.15 -2.813
12.7 6.15 -2.813
12.7 6.15 -2.813
14.7 7.75 -2.813
14.7 7.75 -2.813
14.7 7.75 -2.813
15.1 8.85 -2.813
15.1 8.85 -2.813
15.1 8.85 -2.813
12.2 14.05 -2.813
12.2 14.05 -2.813
12.2 14.05 -2.813
10.8 14.55 -2.813
-2.8 16.55 -2.813
-4.8 15.35 -2.813
-4.8 15.35 -2.813
-4.8 15.35 -2.813
-12.4 -12.65 -2.813
-12.4 -12.65 -2.813
-12.4 -12.65 -2.813
-11.3 -14.75 -2.813
8.6 -8.85 40.977
10.5 -7.65 40.977
10.5 -7.65 40.977
10.5 -7.65 40.977
12.3 -0.85 40.977
12.3 -0.85 40.977
12.3 -0.85 40.977
11.3 1.25 40.977
4.2 -10.65 51.927
4.2 -10.65 51.927
4.2 -10.65 51.927
-7 -7.85 51.927
8.6 -8.85 51.927
8.6 -8.85 51.927
8.6 -8.85 51.927
10.5 -7.65 51.927
12.3 -0.85 51.927
11.3 1.25 51.927
11.3 1.25 51.927
11.3 1.25 51.927
9.5 4.25 51.927
9.5 4.25 51.927
9.5 4.25 51.927
-2.5 7.55 51.927
-2.5 7.55 51.927
-2.5 7.55 51.927
-7.6 4.95 51.927
11.5 -4.25 62.877
-8.6 1.15 62.877
11.5 -4.25 77.464
11.5 -4.25 77.464
11.5 -4.25 77.464
8 -6.25 77.464
8 -6.25 77.464
8 -6.25 77.464
9.9 -1.25 77.464
9.9 -1.25 77.464
9.9 -1.25 77.464
-5.9 2.95 77.464
-5.9 2.95 77.464
-5.9 2.95 77.464
-8.6 1.15 77.464
-8.6 1.15 77.464
-8.6 1.15 77.464
-6.9 -1.95 77.464
-6.9 -1.95 77.464
-6.9 -1.95 77.464
9.9 -1.25 85.519
-5.9 2.95 85.519
-6.9 -1.95 85.519
8 -6.25 85.519
3  0 1 2  255 20 147
3  2 3 0  255 20 147
3  4 0 3  255 20 147
3  3 5 4  255 20 147
3  6 4 5  64 255 64
3  5 7 6  64 255 64
3  8 6 7  255 64 64
3  7 9 8  255 64 64
3  10 8 9  255 64 64
3  9 11 10  255 64 64
3  12 10 11  176 196 222
3  11 13 12  176 196 222
3  14 12 13  255 64 64
3  13 15 14  255 64 64
3  16 14 15  255 64 64
3  15 17 16  255 64 64
3  18 16 17  245 222 179
3  17 19 18  245 222 179
3  20 18 19  255 64 64
3  19 21 20  255 64 64
3  22 20 21  255 64 64
3  21 23 22  255 64 64
3  24 22 23  255 64 64
3  23 25 24  255 64 64
3  26 24 25  64 255 128
3  25 27 26  64 255 128
3  28 26 27  0 192 0
3  27 29 28  0 192 0
3  30 28 29  240 128 128
3  29 31 30  240 128 128
3  32 30 31  240 128 128
3  31 33 32  240 128 128
3  34 32 33  240 128 128
3  33 35 34  240 128 128
3  36 34 35  240 128 128
3  35 37 36  240 128 128
3  38 36 37  240 128 128
3  37 39 38  240 128 128
3  40 38 39  240 128 128
3  39 41 40  240 128 128
3  42 40 41  240 128 128
3  41 43 42  240 128 128
3  44 42 43  240 128 128
3  43 45 44  240 128 128
3  46 44 45  240 128 128
3  45 47 46  240 128 128
3  48 46 47  240 128 128
3  47 49 48  240 128 128
3  50 48 49  64 64 255
3  49 51 50  64 64 255
3  52 50 51  64 64 255
3  51 53 52  64 64 255
3  54 52 53  255 240 245
3  53 55 54  255 240 245
3  56 54 55  64 64 255
3  55 57 56  64 64 255
3  58 56 57  64 64 255
3  57 59 58  64 64 255
3  60 58 59  224 255 255
3  59 61 60  224 255 255
3  62 60 61  64 64 255
3  61 63 62  64 64 255
3  64 62 63  128 128 0
3  63 65 64  128 128 0
3  66 64 65  128 128 0
3  65 67 66  128 128 0
3  68 66 67  64 255 255
3  67 69 68  64 255 255
3  70 68 69  64 255 255
3  69 71 70  64 255 255
3  72 70 71  255 128 64
3  71 73 72  255 128 64
3  74 72 73  192 0 192
3  73 75 74  192 0 192
3  1 74 75  255 64 255
3  75 2 1  255 64 255
3  45 43 41  255 0 0
3  45 41 39  255 0 0
3  39 37 35  255 0 0
3  39 35 33  255 0 0
3  31 29 27  255 0 0
3  33 31 27  255 0 0
3  25 23 21  255 0 0
3  27 25 21  255 0 0
3  27 21 19  255 0 0
3  19 17 15  255 0 0
3  19 15 13  255 0 0
3  11 9 7  255 0 0
3  11 7 5  255 0 0
3  13 11 5  255 0 0
3  13 5 3  255 0 0
3  13 3 2  255 0 0
3  19 13 2  255 0 0
3  27 19 2  255 0 0
3  33 27 2  255 0 0
3  39 33 2  255 0 0
3  45 39 2  255 0 0
3  75 73 71  255 0 0
3  63 61 59  255 0 0
3  65 63 59  255 0 0
3  67 65 59  255 0 0
3  69 67 59  255 0 0
3  71 69 59  255 0 0
3  75 71 59  255 0 0
3  75 59 57  255 0 0
3  57 55 53  255 0 0
3  75 57 53  255 0 0
3  75 53 51  255 0 0
3  75 51 49  255 0 0
3  2 75 49  255 0 0
3  45 2 49  255 0 0
3  45 49 47  255 0 0
3  76 77 78  255 255 0
3  79 80 81  255 255 0
3  82 83 84  255 255 0
3  82 84 85  255 255 0
3  82 85 86  255 255 0
3  82 86 87  255 255 0
3  82 87 88  255 255 0
3  88 89 90  255 255 0
3  82 88 90  255 255 0
3  81 82 90  255 255 0
3  79 81 90  255 255 0
3  91 79 90  255 255 0
3  78 91 90  255 255 0
3  78 90 92  255 255 0
3  76 78 92  255 255 0
3  93 94 95  255 255 0
3  96 93 95  255 255 0
3  96 95 97  255 255 0
3  98 96 97  255 255 0
3  92 98 97  255 255 0
3  99 100 101  255 255 0
3  97 99 101  255 255 0
3  92 97 101  255 255 0
3  102 103 104  255 255 0
3  102 104 105  255 255 0
3  101 102 105  255 255 0
3  92 101 105  255 255 0
3  105 106 107  255 255 0
3  105 107 108  255 255 0
3  92 105 108  255 255 0
3  109 110 111  255 255 0
3  108 109 111  255 255 0
3  92 108 111  255 255 0
3  76 92 111  255 255 0
3  76 111 112  255 255 0
3  76 112 113  255 255 0
3  114 115 116  255 255 0
3  116 117 114  255 255 0
3  115 118 119  255 255 0
3  119 116 115  255 255 0
3  118 120 121  255 255 0
3  121 119 118  255 255 0
3  120 122 123  255 255 0
3  123 121 120  255 255 0
3  122 124 125  255 255 0
3  125 123 122  255 255 0
3  124 126 127  255 255 0
3  127 125 124  255 255 0
3  12 14 99  255 255 0
3  99 97 12  255 255 0
3  14 16 100  255 255 0
3  100 99 14  255 255 0
3  16 18 101  255 255 0
3  101 100 16  255 255 0
3  18 20 102  255 255 0
3  102 101 18  255 255 0
3  20 22 103  255 255 0
3  103 102 20  255 255 0
3  22 24 104  255 255 0
3  104 103 22  255 255 0
3  24 26 105  255 255 0
3  105 104 24  255 255 0
3  26 28 106  255 255 0
3  106 105 26  255 255 0
3  28 30 107  255 255 0
3  107 106 28  255 255 0
3  30 32 108  255 255 0
3  108 107 30  255 255 0
3  32 34 109  255 255 0
3  109 108 32  255 255 0
3  34 36 110  255 255 0
3  110 109 34  255 255 0
3  36 38 111  255 255 0
3  111 110 36  255 255 0
3  38 40 112  255 255 0
3  112 111 38  255 255 0
3  40 42 113  255 255 0
3  113 112 40  255 255 0
3  42 44 76  255 255 0
3  76 113 42  255 255 0
3  44 46 77  255 255 0
3  77 76 44  255 255 0
3  46 48 78  255 255 0
3  78 77 46  255 255 0
3  48 50 91  255 255 0
3  91 78 48  255 255 0
3  50 52 79  255 255 0
3  79 91 50  255 255 0
3  52 54 80  255 255 0
3  80 79 52  255 255 0
3  54 56 81  255 255 0
3  81 80 54  255 255 0
3  56 58 82  255 255 0
3  82 81 56  255 255 0
3  128 129 130  255 255 0
3  130 131 128  255 255 0
3  129 132 133  255 255 0
3  133 130 129  255 255 0
3  132 134 135  255 255 0
3  135 133 132  255 255 0
3  134 136 137  255 255 0
3  137 135 134  255 255 0
3  136 138 139  255 255 0
3  139 137 136  255 255 0
3  138 140 141  255 255 0
3  141 139 138  255 255 0
3  70 72 89  255 255 0
3  89 88 70  255 255 0
3  72 74 90  255 255 0
3  90 89 72  255 255 0
3  74 1 92  255 255 0
3  92 90 74  255 255 0
3  1 0 115  255 20 147
3  115 114 1  255 20 147
3  0 4 118  255 20 147
3  118 115 0  255 20 147
3  4 6 120  64 255 64
3  120 118 4  64 255 64
3  6 8 122  255 64 64
3  122 120 6  255 64 64
3  8 10 124  255 64 64
3  124 122 8  255 64 64
3  10 12 126  176 196 222
3  126 124 10  176 196 222
3  12 97 127  100 100 100
3  127 126 12  100 100 100
3  97 95 125  176 196 222
3  125 127 97  176 196 222
3  95 94 123  255 64 64
3  123 125 95  255 64 64
3  94 93 121  64 255 64
3  121 123 94  64 255 64
3  93 96 119  64 255 64
3  119 121 93  64 255 64
3  96 98 116  255 20 147
3  116 119 96  255 20 147
3  98 92 117  255 20 147
3  117 116 98  255 20 147
3  92 1 114  192 192 0
3  114 117 92  192 192 0
3  58 60 129  224 255 255
3  129 128 58  224 255 255
3  60 62 132  64 64 255
3  132 129 60  64 64 255
3  62 64 134  128 128 0
3  134 132 62  128 128 0
3  64 66 136  128 128 0
3  136 134 64  128 128 0
3  66 68 138  64 255 255
3  138 136 66  64 255 255
3  68 70 140  64 255 255
3  140 138 68  64 255 255
3  70 88 141  64 255 255
3  141 140 70  64 255 255
3  88 87 139  64 255 255
3  139 141 88  64 255 255
3  87 86 137  64 255 255
3  137 139 87  64 255 255
3  86 85 135  128 128 0
3  135 137 86  128 128 0
3  85 84 133  128 128 0
3  133 135 85  128 128 0
3  84 83 130  64 64 255
3  130 133 84  64 64 255
3  83 82 131  224 255 255
3  131 130 83  224 255 255
3  82 58 128  100 100 100
3  128 131 82  100 100 100
3  142 143 144  192 192 0
3  144 145 142  192 192 0
3  146 142 145  255 64 64
3  145 147 146  255 64 64
3  148 146 147  255 64 64
3  147 149 148  255 64 64
3  150 148 149  245 222 179
3  149 151 150  245 222 179
3  152 150 151  255 64 64
3  151 153 152  255 64 64
3  154 152 153  255 64 64
3  153 155 154  255 64 64
3  156 154 155  255 64 64
3  155 157 156  255 64 64
3  158 156 157  64 255 128
3  157 159 158  64 255 128
3  160 158 159  0 192 0
3  159 161 160  0 192 0
3  162 160 161  240 128 128
3  161 163 162  240 128 128
3  164 162 163  240 128 128
3  163 165 164  240 128 128
3  166 164 165  240 128 128
3  165 167 166  240 128 128
3  168 166 167  240 128 128
3  167 169 168  240 128 128
3  170 168 169  240 128 128
3  169 171 170  240 128 128
3  172 170 171  240 128 128
3  171 173 172  240 128 128
3  174 172 173  240 128 128
3  173 175 174  240 128 128
3  176 174 175  240 128 128
3  175 177 176  240 128 128
3  178 176 177  240 128 128
3  177 179 178  240 128 128
3  180 178 179  240 128 128
3  179 181 180  240 128 128
3  182 180 181  64 64 255
3  181 183 182  64 64 255
3  184 182 183  72 61 139
3  183 185 184  72 61 139
3  186 184 185  255 240 245
3  185 187 186  255 240 245
3  188 186 187  64 64 255
3  187 189 188  64 64 255
3  190 188 189  64 64 255
3  189 191 190  64 64 255
3  192 190 191  0 192 192
3  191 193 192  0 192 192
3  194 192 193  255 128 64
3  193 195 194  255 128 64
3  196 194 195  192 0 192
3  195 197 196  192 0 192
3  143 196 197  255 64 255
3  197 144 143  255 64 255
3  163 161 159  255 255 0
3  165 163 159  255 255 0
3  157 155 153  255 255 0
3  159 157 153  255 255 0
3  159 153 151  255 255 0
3  151 149 147  255 255 0
3  151 147 145  255 255 0
3  151 145 144  255 255 0
3  151 144 197  255 255 0
3  159 151 197  255 255 0
3  165 159 197  255 255 0
3  197 195 193  255 255 0
3  197 193 191  255 255 0
3  197 191 189  255 255 0
3  189 187 185  255 255 0
3  197 189 185  255 255 0
3  197 185 183  255 255 0
3  197 183 181  255 255 0
3  181 179 177  255 255 0
3  197 181 177  255 255 0
3  177 175 173  255 255 0
3  177 173 171  255 255 0
3  197 177 171  255 255 0
3  165 197 171  255 255 0
3  167 165 171  255 255 0
3  167 171 169  255 255 0
3  166 168 170  128 255 128
3  172 174 176  128 255 128
3  170 172 176  128 255 128
3  176 178 180  128 255 128
3  184 186 188  128 255 128
3  192 194 196  128 255 128
3  190 192 196  128 255 128
3  188 190 196  128 255 128
3  184 188 196  128 255 128
3  182 184 196  128 255 128
3  180 182 196  128 255 128
3  176 180 196  128 255 128
3  170 176 196  128 255 128
3  146 148 150  128 255 128
3  142 146 150  128 255 128
3  143 142 150  128 255 128
3  196 143 150  128 255 128
3  152 154 156  128 255 128
3  152 156 158  128 255 128
3  150 152 158  128 255 128
3  196 150 158  128 255 128
3  158 160 162  128 255 128
3  158 162 164  128 255 128
3  196 158 164  128 255 128
3  170 196 164  128 255 128
3  166 170 164  128 255 128
3  198 199 200  128 255 255
3  200 201 198  128 255 255
3  202 198 201  128 255 255
3  201 203 202  128 255 255
3  204 202 203  255 64 64
3  203 205 204  255 64 64
3  206 204 205  255 64 64
3  205 207 206  255 64 64
3  208 206 207  64 255 128
3  207 209 208  64 255 128
3  210 208 209  0 192 0
3  209 211 210  0 192 0
3  212 210 211  240 128 128
3  211 213 212  240 128 128
3  214 212 213  240 128 128
3  213 215 214  240 128 128
3  216 214 215  240 128 128
3  215 217 216  240 128 128
3  218 216 217  240 128 128
3  217 219 218  240 128 128
3  220 218 219  240 128 128
3  219 221 220  240 128 128
3  222 220 221  240 128 128
3  221 223 222  240 128 128
3  224 222 223  240 128 128
3  223 225 224  240 128 128
3  226 224 225  240 128 128
3  225 227 226  240 128 128
3  228 226 227  64 128 255
3  227 229 228  64 128 255
3  230 228 229  64 128 255
3  229 231 230  64 128 255
3  232 230 231  64 64 255
3  231 233 232  64 64 255
3  234 232 233  192 0 0
3  233 235 234  192 0 0
3  236 234 235  192 0 0
3  235 237 236  192 0 0
3  238 236 237  192 0 0
3  237 239 238  192 0 0
3  240 238 239  192 0 0
3  239 241 240  192 0 0
3  242 240 241  192 0 192
3  241 243 242  192 0 192
3  244 242 243  128 255 255
3  243 245 244  128 255 255
3  199 244 245  128 255 255
3  245 200 199  128 255 255
3  640 636 633  0 255 255
3  640 633 630  0 255 255
3  640 630 201  0 255 255
3  701 698 695  0 255 255
3  701 695 692  0 255 255
3  235 701 692  0 255 255
3  237 235 692  0 255 255
3  239 237 692  0 255 255
3  706 239 692  0 255 255
3  709 706 692  0 255 255
3  709 692 688  0 255 255
3  709 688 682  0 255 255
3  709 682 676  0 255 255
3  709 676 670  0 255 255
3  709 670 664  0 255 255
3  709 664 658  0 255 255
3  245 709 658  0 255 255
3  200 245 658  0 255 255
3  201 200 658  0 255 255
3  201 658 652  0 255 255
3  640 201 652  0 255 255
3  640 652 646  0 255 255
3  246 247 248  128 0 255
3  249 250 251  128 0 255
3  252 249 251  128 0 255
3  252 251 253  128 0 255
3  252 253 254  128 0 255
3  252 254 255  128 0 255
3  252 255 256  128 0 255
3  252 256 257  128 0 255
3  258 252 257  128 0 255
3  259 258 257  128 0 255
3  260 259 257  128 0 255
3  261 260 257  128 0 255
3  262 261 257  128 0 255
3  263 262 257  128 0 255
3  263 257 264  128 0 255
3  263 264 265  128 0 255
3  263 265 266  128 0 255
3  248 263 266  128 0 255
3  246 248 266  128 0 255
3  246 266 267  128 0 255
3  246 267 268  128 0 255
3  246 268 269  128 0 255
3  270 271 272  128 0 255
3  272 273 270  128 0 255
3  271 274 275  128 0 255
3  275 272 271  128 0 255
3  274 276 277  128 0 255
3  277 275 274  128 0 255
3  276 278 279  128 0 255
3  279 277 276  128 0 255
3  278 280 281  128 0 255
3  281 279 278  128 0 255
3  208 643 247  128 0 255
3  247 246 208  128 0 255
3  643 649 248  128 0 255
3  248 247 643  128 0 255
3  649 655 263  128 0 255
3  263 248 649  128 0 255
3  655 661 262  128 0 255
3  262 263 655  128 0 255
3  661 667 261  128 0 255
3  261 262 661  128 0 255
3  667 673 260  128 0 255
3  260 261 667  128 0 255
3  673 679 259  128 0 255
3  259 260 673  128 0 255
3  679 685 258  128 0 255
3  258 259 679  128 0 255
3  685 226 252  128 0 255
3  252 258 685  128 0 255
3  282 283 284  128 0 255
3  284 285 282  128 0 255
3  283 286 287  128 0 255
3  287 284 283  128 0 255
3  286 288 289  128 0 255
3  289 287 286  128 0 255
3  288 290 291  128 0 255
3  291 289 288  128 0 255
3  290 292 293  128 0 255
3  293 291 290  128 0 255
3  292 294 295  128 0 255
3  295 293 292  128 0 255
3  294 296 297  128 0 255
3  297 295 294  128 0 255
3  296 298 299  128 0 255
3  299 297 296  128 0 255
3  298 300 301  128 0 255
3  301 299 298  128 0 255
3  300 270 273  128 0 255
3  273 301 300  128 0 255
3  199 198 271  128 255 255
3  271 270 199  128 255 255
3  198 202 274  128 255 255
3  274 271 198  128 255 255
3  202 204 276  255 64 64
3  276 274 202  255 64 64
3  204 206 278  255 64 64
3  278 276 204  255 64 64
3  206 208 280  64 255 128
3  280 278 206  64 255 128
3  208 246 281  64 255 128
3  281 280 208  64 255 128
3  246 269 279  64 255 128
3  279 281 246  64 255 128
3  269 268 277  64 255 128
3  277 279 269  64 255 128
3  268 267 275  255 64 64
3  275 277 268  255 64 64
3  267 266 272  128 0 255
3  272 275 267  128 0 255
3  266 265 273  128 0 255
3  273 272 266  128 0 255
3  265 264 301  128 0 255
3  301 273 265  128 0 255
3  264 257 299  128 0 255
3  299 301 264  128 0 255
3  257 256 297  128 0 255
3  297 299 257  128 0 255
3  256 255 295  128 0 255
3  295 297 256  128 0 255
3  255 254 293  128 0 255
3  293 295 255  128 0 255
3  254 253 291  128 0 255
3  291 293 254  128 0 255
3  253 251 289  128 0 255
3  289 291 253  128 0 255
3  251 250 287  64 64 255
3  287 289 251  64 64 255
3  250 249 284  64 128 255
3  284 287 250  64 128 255
3  249 252 285  64 128 255
3  285 284 249  64 128 255
3  252 226 282  123 104 238
3  282 285 252  123 104 238
3  226 228 283  64 128 255
3  283 282 226  64 128 255
3  228 230 286  64 128 255
3  286 283 228  64 128 255
3  230 232 288  64 64 255
3  288 286 230  64 64 255
3  232 234 290  192 0 0
3  290 288 232  192 0 0
3  234 236 292  192 0 0
3  292 290 234  192 0 0
3  236 238 294  192 0 0
3  294 292 236  192 0 0
3  238 240 296  192 0 0
3  296 294 238  192 0 0
3  240 242 298  192 0 192
3  298 296 240  192 0 192
3  242 244 300  128 255 255
3  300 298 242  128 255 255
3  244 199 270  128 255 255
3  270 300 244  128 255 255
3  302 303 304  192 192 0
3  304 305 302  192 192 0
3  306 302 305  192 192 0
3  305 307 306  192 192 0
3  308 306 307  255 64 64
3  307 309 308  255 64 64
3  629 308 309  245 222 179
3  309 310 629  245 222 179
3  631 629 310  255 64 64
3  310 311 631  255 64 64
3  634 631 311  255 64 64
3  311 312 634  255 64 64
3  637 634 312  255 64 64
3  312 313 637  255 64 64
3  641 637 313  64 255 128
3  313 314 641  64 255 128
3  647 641 314  0 192 0
3  314 315 647  0 192 0
3  653 647 315  240 128 128
3  315 316 653  240 128 128
3  659 653 316  240 128 128
3  316 317 659  240 128 128
3  665 659 317  240 128 128
3  317 318 665  240 128 128
3  671 665 318  240 128 128
3  318 319 671  240 128 128
3  677 671 319  240 128 128
3  319 320 677  240 128 128
3  683 677 320  240 128 128
3  320 321 683  240 128 128
3  689 683 321  240 128 128
3  321 322 689  240 128 128
3  693 689 322  240 128 128
3  322 323 693  240 128 128
3  696 693 323  240 128 128
3  323 324 696  240 128 128
3  699 696 324  240 128 128
3  324 325 699  240 128 128
3  702 699 325  64 64 255
3  325 326 702  64 64 255
3  704 702 326  64 64 255
3  326 327 704  64 64 255
3  328 704 327  255 240 245
3  327 329 328  255 240 245
3  330 328 329  64 64 255
3  329 331 330  64 64 255
3  332 330 331  0 192 192
3  331 333 332  0 192 192
3  334 332 333  0 192 192
3  333 335 334  0 192 192
3  336 334 335  255 128 64
3  335 337 336  255 128 64
3  338 336 337  192 0 192
3  337 339 338  192 0 192
3  705 338 339  192 0 192
3  339 340 705  192 0 192
3  707 705 340  192 0 192
3  340 341 707  192 0 192
3  710 707 341  192 0 192
3  341 342 710  192 0 192
3  712 710 342  192 0 192
3  342 343 712  192 0 192
3  344 712 343  192 0 192
3  343 345 344  192 0 192
3  346 344 345  192 0 192
3  345 347 346  192 0 192
3  303 346 347  255 64 255
3  347 304 303  255 64 255
3  310 309 307  128 255 128
3  347 345 343  128 255 128
3  304 347 343  128 255 128
3  305 304 343  128 255 128
3  307 305 343  128 255 128
3  310 307 343  128 255 128
3  311 310 343  128 255 128
3  312 311 343  128 255 128
3  313 312 343  128 255 128
3  314 313 343  128 255 128
3  315 314 343  128 255 128
3  316 315 343  128 255 128
3  317 316 343  128 255 128
3  317 343 342  128 255 128
3  318 317 342  128 255 128
3  319 318 342  128 255 128
3  320 319 342  128 255 128
3  321 320 342  128 255 128
3  322 321 342  128 255 128
3  323 322 342  128 255 128
3  323 342 341  128 255 128
3  323 341 340  128 255 128
3  339 337 335  128 255 128
3  340 339 335  128 255 128
3  340 335 333  128 255 128
3  340 333 331  128 255 128
3  331 329 327  128 255 128
3  340 331 327  128 255 128
3  323 340 327  128 255 128
3  323 327 326  128 255 128
3  324 323 326  128 255 128
3  324 326 325  128 255 128
3  348 349 350  0 255 255
3  351 352 353  0 255 255
3  354 355 356  0 255 255
3  354 356 357  0 255 255
3  358 354 357  0 255 255
3  353 358 357  0 255 255
3  351 353 357  0 255 255
3  359 360 361  0 255 255
3  359 361 362  0 255 255
3  359 362 363  0 255 255
3  359 363 364  0 255 255
3  364 365 366  0 255 255
3  359 364 366  0 255 255
3  359 366 367  0 255 255
3  359 367 368  0 255 255
3  359 368 369  0 255 255
3  359 369 370  0 255 255
3  359 370 371  0 255 255
3  359 371 372  0 255 255
3  359 372 373  0 255 255
3  374 359 373  0 255 255
3  374 373 375  0 255 255
3  374 375 376  0 255 255
3  374 376 377  0 255 255
3  374 377 378  0 255 255
3  374 378 379  0 255 255
3  374 379 380  0 255 255
3  381 374 380  0 255 255
3  357 381 380  0 255 255
3  351 357 380  0 255 255
3  350 351 380  0 255 255
3  348 350 380  0 255 255
3  382 383 384  0 255 255
3  384 385 382  0 255 255
3  383 386 387  0 255 255
3  387 384 383  0 255 255
3  386 388 389  0 255 255
3  389 387 386  0 255 255
3  388 390 391  0 255 255
3  391 389 388  0 255 255
3  629 632 367  0 255 255
3  367 366 629  0 255 255
3  632 635 368  0 255 255
3  368 367 632  0 255 255
3  635 638 369  0 255 255
3  369 368 635  0 255 255
3  638 642 370  0 255 255
3  370 369 638  0 255 255
3  642 648 371  0 255 255
3  371 370 642  0 255 255
3  648 654 372  0 255 255
3  372 371 648  0 255 255
3  654 660 373  0 255 255
3  373 372 654  0 255 255
3  660 666 375  0 255 255
3  375 373 660  0 255 255
3  666 672 376  0 255 255
3  376 375 666  0 255 255
3  672 678 377  0 255 255
3  377 376 672  0 255 255
3  678 684 378  0 255 255
3  378 377 678  0 255 255
3  684 690 379  0 255 255
3  379 378 684  0 255 255
3  690 694 380  0 255 255
3  380 379 690  0 255 255
3  694 697 348  0 255 255
3  348 380 694  0 255 255
3  697 700 349  0 255 255
3  349 348 697  0 255 255
3  700 703 350  0 255 255
3  350 349 700  0 255 255
3  703 704 351  0 255 255
3  351 350 703  0 255 255
3  392 393 394  0 255 255
3  394 395 392  0 255 255
3  393 396 397  0 255 255
3  397 394 393  0 255 255
3  396 398 399  0 255 255
3  399 397 396  0 255 255
3  398 400 401  0 255 255
3  401 399 398  0 255 255
3  400 402 403  0 255 255
3  403 401 400  0 255 255
3  402 404 405  0 255 255
3  405 403 402  0 255 255
3  404 406 407  0 255 255
3  407 405 404  0 255 255
3  705 708 381  0 255 255
3  381 357 705  0 255 255
3  708 711 374  0 255 255
3  374 381 708  0 255 255
3  711 712 359  0 255 255
3  359 374 711  0 255 255
3  408 409 410  0 255 255
3  410 411 408  0 255 255
3  409 412 413  0 255 255
3  413 410 409  0 255 255
3  412 382 385  0 255 255
3  385 413 412  0 255 255
3  303 302 383  192 192 0
3  383 382 303  192 192 0
3  302 306 386  192 192 0
3  386 383 302  192 192 0
3  306 308 388  255 64 64
3  388 386 306  255 64 64
3  308 629 390  245 222 179
3  390 388 308  245 222 179
3  629 366 391  245 222 179
3  391 390 629  245 222 179
3  366 365 389  245 222 179
3  389 391 366  245 222 179
3  365 364 387  255 64 64
3  387 389 365  255 64 64
3  364 363 384  192 192 0
3  384 387 364  192 192 0
3  363 362 385  192 192 0
3  385 384 363  192 192 0
3  362 361 413  255 64 255
3  413 385 362  255 64 255
3  361 360 410  255 64 255
3  410 413 361  255 64 255
3  360 359 411  128 0 128
3  411 410 360  128 0 128
3  359 712 408  128 255 255
3  408 411 359  128 255 255
3  712 344 409  192 0 192
3  409 408 712  192 0 192
3  344 346 412  192 0 192
3  412 409 344  192 0 192
3  346 303 382  255 64 255
3  382 412 346  255 64 255
3  704 328 393  255 240 245
3  393 392 704  255 240 245
3  328 330 396  64 64 255
3  396 393 328  64 64 255
3  330 332 398  0 192 192
3  398 396 330  0 192 192
3  332 334 400  0 192 192
3  400 398 332  0 192 192
3  334 336 402  255 128 64
3  402 400 334  255 128 64
3  336 338 404  192 0 192
3  404 402 336  192 0 192
3  338 705 406  192 0 192
3  406 404 338  192 0 192
3  705 357 407  72 61 139
3  407 406 705  72 61 139
3  357 356 405  100 100 100
3  405 407 357  100 100 100
3  356 355 403  100 100 100
3  403 405 356  100 100 100
3  355 354 401  255 128 64
3  401 403 355  255 128 64
3  354 358 399  0 192 192
3  399 401 354  0 192 192
3  358 353 397  0 192 192
3  397 399 358  0 192 192
3  353 352 394  64 64 255
3  394 397 353  64 64 255
3  352 351 395  255 240 245
3  395 394 352  255 240 245
3  351 704 392  100 100 100
3  392 395 351  100 100 100
3  414 415 416  255 64 128
3  416 417 414  255 64 128
3  418 414 417  0 192 0
3  417 639 418  0 192 0
3  419 418 639  0 192 0
3  639 644 419  0 192 0
3  420 419 644  128 64 0
3  644 650 420  128 64 0
3  421 420 650  128 64 0
3  650 656 421  128 64 0
3  422 421 656  240 128 128
3  656 662 422  240 128 128
3  423 422 662  240 128 128
3  662 668 423  240 128 128
3  424 423 668  240 128 128
3  668 674 424  240 128 128
3  425 424 674  240 128 128
3  674 680 425  240 128 128
3  426 425 680  0 0 192
3  680 686 426  0 0 192
3  427 426 686  0 0 192
3  686 691 427  0 0 192
3  428 427 691  0 0 192
3  691 429 428  0 0 192
3  430 428 429  0 128 64
3  429 431 430  0 128 64
3  432 430 431  64 0 128
3  431 433 432  64 0 128
3  434 432 433  192 0 192
3  433 435 434  192 0 192
3  415 434 435  128 255 64
3  435 416 415  128 255 64
3  435 433 431  128 0 255
3  435 431 429  128 0 255
3  435 429 691  128 0 255
3  435 691 687  128 0 255
3  435 687 681  128 0 255
3  435 681 675  128 0 255
3  416 435 675  128 0 255
3  417 416 675  128 0 255
3  417 675 669  128 0 255
3  669 663 657  128 0 255
3  417 669 657  128 0 255
3  639 417 657  128 0 255
3  639 657 651  128 0 255
3  639 651 645  128 0 255
3  436 437 438  0 0 255
3  436 438 439  0 0 255
3  439 440 441  0 0 255
3  442 443 444  0 0 255
3  445 442 444  0 0 255
3  446 445 444  0 0 255
3  447 446 444  0 0 255
3  448 447 444  0 0 255
3  449 448 444  0 0 255
3  449 444 450  0 0 255
3  449 450 451  0 0 255
3  441 449 451  0 0 255
3  439 441 451  0 0 255
3  436 439 451  0 0 255
3  452 453 454  0 0 255
3  454 455 452  0 0 255
3  453 456 457  0 0 255
3  457 454 453  0 0 255
3  456 458 459  0 0 255
3  459 457 456  0 0 255
3  458 460 461  0 0 255
3  461 459 458  0 0 255
3  460 462 463  0 0 255
3  463 461 460  0 0 255
3  421 714 440  0 0 255
3  440 439 421  0 0 255
3  714 717 441  0 0 255
3  441 440 714  0 0 255
3  717 424 449  0 0 255
3  449 441 717  0 0 255
3  464 465 466  0 0 255
3  466 467 464  0 0 255
3  465 468 469  0 0 255
3  469 466 465  0 0 255
3  468 470 471  0 0 255
3  471 469 468  0 0 255
3  470 472 473  0 0 255
3  473 471 470  0 0 255
3  472 474 475  0 0 255
3  475 473 472  0 0 255
3  474 476 477  0 0 255
3  477 475 474  0 0 255
3  476 478 479  0 0 255
3  479 477 476  0 0 255
3  478 452 455  0 0 255
3  455 479 478  0 0 255
3  415 414 453  255 64 128
3  453 452 415  255 64 128
3  414 418 456  0 192 0
3  456 453 414  0 192 0
3  418 419 458  0 192 0
3  458 456 418  0 192 0
3  419 420 460  128 64 0
3  460 458 419  128 64 0
3  420 421 462  128 64 0
3  462 460 420  128 64 0
3  421 439 463  50 205 50
3  463 462 421  50 205 50
3  439 438 461  64 255 128
3  461 463 439  64 255 128
3  438 437 459  64 255 128
3  459 461 438  64 255 128
3  437 436 457  0 192 0
3  457 459 437  0 192 0
3  436 451 454  0 0 255
3  454 457 436  0 0 255
3  451 450 455  0 0 255
3  455 454 451  0 0 255
3  450 444 479  128 255 64
3  479 455 450  128 255 64
3  444 443 477  192 0 192
3  477 479 444  192 0 192
3  443 442 475  64 0 128
3  475 477 443  64 0 128
3  442 445 473  0 0 255
3  473 475 442  0 0 255
3  445 446 471  0 0 255
3  471 473 445  0 0 255
3  446 447 469  0 0 192
3  469 471 446  0 0 192
3  447 448 466  64 128 255
3  466 469 447  64 128 255
3  448 449 467  64 128 255
3  467 466 448  64 128 255
3  449 424 464  100 100 100
3  464 467 449  100 100 100
3  424 425 465  240 128 128
3  465 464 424  240 128 128
3  425 426 468  0 0 192
3  468 465 425  0 0 192
3  426 427 470  0 0 192
3  470 468 426  0 0 192
3  427 428 472  0 0 192
3  472 470 427  0 0 192
3  428 430 474  0 128 64
3  474 472 428  0 128 64
3  430 432 476  64 0 128
3  476 474 430  64 0 128
3  432 434 478  192 0 192
3  478 476 432  192 0 192
3  434 415 452  128 255 64
3  452 478 434  128 255 64
3  480 481 482  50 205 50
3  482 483 480  50 205 50
3  484 480 483  255 255 64
3  483 713 484  255 255 64
3  485 484 713  255 255 64
3  713 715 485  255 255 64
3  486 485 715  240 128 128
3  715 718 486  240 128 128
3  487 486 718  255 128 255
3  718 720 487  255 128 255
3  488 487 720  255 128 255
3  720 489 488  255 128 255
3  490 488 489  123 104 238
3  489 491 490  123 104 238
3  492 490 491  0 128 128
3  491 493 492  0 128 128
3  494 492 493  192 0 192
3  493 495 494  192 0 192
3  481 494 495  255 128 128
3  495 482 481  255 128 128
3  720 719 716  0 0 255
3  720 716 713  0 0 255
3  489 720 713  0 0 255
3  489 713 483  0 0 255
3  491 489 483  0 0 255
3  493 491 483  0 0 255
3  495 493 483  0 0 255
3  495 483 482  0 0 255
3  494 481 721  255 128 0
3  485 486 730  255 128 0
3  725 485 730  255 128 0
3  725 730 733  255 128 0
3  721 725 733  255 128 0
3  721 733 736  255 128 0
3  721 736 492  255 128 0
3  494 721 492  255 128 0
3  496 497 724  50 205 50
3  724 722 496  50 205 50
3  498 496 722  255 255 64
3  722 726 498  255 255 64
3  499 498 726  255 255 64
3  726 728 499  255 255 64
3  500 499 728  240 128 128
3  728 501 500  240 128 128
3  502 500 501  255 228 196
3  501 503 502  255 228 196
3  504 502 503  255 255 64
3  503 505 504  255 255 64
3  506 504 505  255 228 196
3  505 507 506  255 228 196
3  508 506 507  128 0 128
3  507 509 508  128 0 128
3  510 508 509  255 128 255
3  509 729 510  255 128 255
3  511 510 729  255 128 255
3  729 731 511  255 128 255
3  512 511 731  255 128 255
3  731 734 512  255 128 255
3  513 512 734  123 104 238
3  734 737 513  123 104 238
3  514 513 737  0 128 128
3  737 739 514  0 128 128
3  515 514 739  173 216 230
3  739 516 515  173 216 230
3  517 515 516  173 216 230
3  516 518 517  173 216 230
3  519 517 518  0 128 128
3  518 520 519  0 128 128
3  521 519 520  255 128 128
3  520 522 521  255 128 128
3  523 521 522  128 64 255
3  522 524 523  128 64 255
3  525 523 524  255 128 128
3  524 526 525  255 128 128
3  497 525 526  255 128 128
3  526 724 497  255 128 128
3  507 505 503  255 128 0
3  723 724 526  255 128 0
3  723 526 524  255 128 0
3  723 524 522  255 128 0
3  522 520 518  255 128 0
3  723 522 518  255 128 0
3  727 723 518  255 128 0
3  728 727 518  255 128 0
3  501 728 518  255 128 0
3  503 501 518  255 128 0
3  507 503 518  255 128 0
3  518 516 739  255 128 0
3  518 739 738  255 128 0
3  518 738 735  255 128 0
3  518 735 732  255 128 0
3  507 518 732  255 128 0
3  507 732 729  255 128 0
3  507 729 509  255 128 0
3  527 528 529  255 0 255
3  527 529 530  255 0 255
3  531 532 533  255 0 255
3  534 531 533  255 0 255
3  535 534 533  255 0 255
3  530 535 533  255 0 255
3  527 530 533  255 0 255
3  533 536 537  255 0 255
3  538 539 540  255 0 255
3  541 538 540  255 0 255
3  537 541 540  255 0 255
3  533 537 540  255 0 255
3  533 540 542  255 0 255
3  533 542 543  255 0 255
3  533 543 544  255 0 255
3  533 544 545  255 0 255
3  527 533 545  255 0 255
3  527 545 546  255 0 255
3  547 548 549  255 0 255
3  549 550 547  255 0 255
3  548 551 552  255 0 255
3  552 549 548  255 0 255
3  551 553 554  255 0 255
3  554 552 551  255 0 255
3  553 555 556  255 0 255
3  556 554 553  255 0 255
3  555 557 558  255 0 255
3  558 556 555  255 0 255
3  502 504 546  255 0 255
3  546 545 502  255 0 255
3  504 506 527  255 0 255
3  527 546 504  255 0 255
3  559 560 561  255 0 255
3  561 562 559  255 0 255
3  560 563 564  255 0 255
3  564 561 560  255 0 255
3  563 565 566  255 0 255
3  566 564 563  255 0 255
3  565 567 568  255 0 255
3  568 566 565  255 0 255
3  567 569 570  255 0 255
3  570 568 567  255 0 255
3  569 571 572  255 0 255
3  572 570 569  255 0 255
3  571 573 574  255 0 255
3  574 572 571  255 0 255
3  573 575 576  255 0 255
3  576 574 573  255 0 255
3  517 519 536  255 0 255
3  536 533 517  255 0 255
3  519 521 537  255 0 255
3  537 536 519  255 0 255
3  577 578 579  255 0 255
3  579 580 577  255 0 255
3  578 581 582  255 0 255
3  582 579 578  255 0 255
3  581 547 550  255 0 255
3  550 582 581  255 0 255
3  497 496 548  50 205 50
3  548 547 497  50 205 50
3  496 498 551  255 255 64
3  551 548 496  255 255 64
3  498 499 553  255 255 64
3  553 551 498  255 255 64
3  499 500 555  240 128 128
3  555 553 499  240 128 128
3  500 502 557  255 228 196
3  557 555 500  255 228 196
3  502 545 558  255 228 196
3  558 557 502  255 228 196
3  545 544 556  255 228 196
3  556 558 545  255 228 196
3  544 543 554  255 255 64
3  554 556 544  255 255 64
3  543 542 552  255 255 64
3  552 554 543  255 255 64
3  542 540 549  255 255 64
3  549 552 542  255 255 64
3  540 539 550  50 205 50
3  550 549 540  50 205 50
3  539 538 582  255 128 128
3  582 550 539  255 128 128
3  538 541 579  128 64 255
3  579 582 538  128 64 255
3  541 537 580  128 64 255
3  580 579 541  128 64 255
3  537 521 577  255 255 128
3  577 580 537  255 255 128
3  521 523 578  128 64 255
3  578 577 521  128 64 255
3  523 525 581  255 128 128
3  581 578 523  255 128 128
3  525 497 547  255 128 128
3  547 581 525  255 128 128
3  506 508 560  128 0 128
3  560 559 506  128 0 128
3  508 510 563  255 128 255
3  563 560 508  255 128 255
3  510 511 565  255 128 255
3  565 563 510  255 128 255
3  511 512 567  255 128 255
3  567 565 511  255 128 255
3  512 513 569  123 104 238
3  569 567 512  123 104 238
3  513 514 571  0 128 128
3  571 569 513  0 128 128
3  514 515 573  173 216 230
3  573 571 514  173 216 230
3  515 517 575  173 216 230
3  575 573 515  173 216 230
3  517 533 576  173 216 230
3  576 575 517  173 216 230
3  533 532 574  173 216 230
3  574 576 533  173 216 230
3  532 531 572  173 216 230
3  572 574 532  173 216 230
3  531 534 570  0 128 128
3  570 572 531  0 128 128
3  534 535 568  255 0 255
3  568 570 534  255 0 255
3  535 530 566  255 0 255
3  566 568 535  255 0 255
3  530 529 564  255 128 255
3  564 566 530  255 128 255
3  529 528 561  255 128 255
3  561 564 529  255 128 255
3  528 527 562  128 0 128
3  562 561 528  128 0 128
3  527 506 559  128 0 128
3  559 562 527  128 0 128
3  583 584 585  255 255 64
3  585 740 583  255 255 64
3  586 583 740  255 228 196
3  740 587 586  255 228 196
3  588 586 587  128 128 255
3  587 589 588  128 128 255
3  590 588 589  0 128 128
3  589 741 590  0 128 128
3  591 590 741  255 128 128
3  741 592 591  255 128 128
3  584 591 592  255 255 128
3  592 585 584  255 255 128
3  592 741 589  255 0 255
3  585 592 589  255 0 255
3  585 589 587  255 0 255
3  585 587 740  255 0 255
3  593 594 595  0 255 0
3  593 595 596  0 255 0
3  596 597 598  0 255 0
3  593 596 598  0 255 0
3  745 742 594  0 255 0
3  594 593 745  0 255 0
3  742 748 595  0 255 0
3  595 594 742  0 255 0
3  599 600 601  255 165 0
3  601 602 599  255 165 0
3  751 754 597  0 255 0
3  597 596 751  0 255 0
3  754 757 598  0 255 0
3  598 597 754  0 255 0
3  603 604 605  255 165 0
3  605 606 603  255 165 0
3  586 588 600  128 128 255
3  600 599 586  128 128 255
3  751 596 601  173 216 230
3  601 600 751  173 216 230
3  596 595 602  128 128 255
3  602 601 596  128 128 255
3  595 748 599  128 0 128
3  599 602 595  128 0 128
3  591 584 604  255 255 128
3  604 603 591  255 255 128
3  745 593 605  128 64 0
3  605 604 745  128 64 0
3  593 598 606  255 255 128
3  606 605 593  255 255 128
3  598 757 603  128 64 255
3  603 606 598  128 64 255
3  607 762 758  128 64 255
3  758 608 607  128 64 255
3  761 607 608  173 216 230
3  608 752 761  173 216 230
3  609 761 753  0 128 128
3  753 755 609  0 128 128
3  762 609 755  255 128 128
3  755 759 762  255 128 128
3  610 763 746  255 255 64
3  746 743 610  255 255 64
3  760 610 743  255 128 255
3  743 749 760  255 128 255
3  611 760 750  128 0 128
3  750 612 611  128 0 128
3  763 611 612  128 64 0
3  612 747 763  128 64 0
3  756 752 608  0 255 0
3  608 758 756  0 255 0
3  612 750 744  0 255 0
3  744 747 612  0 255 0
3  613 614 615  255 165 0
3  615 616 613  255 165 0
3  617 618 619  255 165 0
3  619 620 617  255 165 0
3  763 610 621  255 165 0
3  621 622 763  255 165 0
3  610 760 623  255 165 0
3  623 621 610  255 165 0
3  760 611 624  255 165 0
3  624 623 760  255 165 0
3  611 763 622  255 165 0
3  622 624 611  255 165 0
3  622 621 617  255 255 64
3  617 620 622  255 255 64
3  621 623 618  255 228 196
3  618 617 621  255 228 196
3  623 624 619  128 0 128
3  619 618 623  128 0 128
3  624 622 620  128 64 0
3  620 619 624  128 64 0
3  762 607 625  255 165 0
3  625 626 762  255 165 0
3  607 761 627  255 165 0
3  627 625 607  255 165 0
3  761 609 628  255 165 0
3  628 627 761  255 165 0
3  609 762 626  255 165 0
3  626 628 609  255 165 0
3  626 625 613  128 64 255
3  613 616 626  128 64 255
3  625 627 614  173 216 230
3  614 613 625  173 216 230
3  627 628 615  0 128 128
3  615 614 627  0 128 128
3  628 626 616  100 100 100
3  616 615 628  100 100 100

