OFF
218 250 0

0.760001 25.8 -34.843
0.760001 25.8 30.519
0.760001 21 -34.843
0.760001 4.71281 -34.843
0.760001 -0.369528 -34.843
0.760001 -0.369528 30.519
0.760001 4.71281 30.519
0.760001 21 30.519
-26.84 25.8 30.519
-26.84 21 30.519
-26.84 25.8 -34.843
-26.84 -1.88 -34.843
-26.84 -1.88 30.519
-26.84 4.31568 -34.843
-26.84 21 -34.843
-26.84 25.8 33.341
-26.84 21 33.341
-26.84 4.31568 30.519
26.76 -19.21 -34.843
26.76 -19.21 22.698
26.76 -25.24 -34.843
26.76 -25.24 22.698
21.24 -19.24 -34.843
21.24 -19.24 22.698
30.54 -19.1895 -34.843
30.54 -19.1895 22.698
-19.96 25.8 -34.843
-19.96 29.42 -34.843
-19.96 21 -34.843
-19.96 21 22.698
-19.96 21 25.432
-19.96 21 30.519
-19.96 25.8 30.519
-19.96 29.42 30.519
-19.96 -1.88 -34.843
-19.96 4.41468 -34.843
-19.96 -5.4393 -34.843
-19.96 -5.4393 22.698
-19.96 -5.4393 30.519
-19.96 -1.88 30.519
-19.96 4.41468 30.519
-19.96 4.41468 25.432
-19.96 4.41468 22.698
21.24 -4.71649 -34.843
21.2843 -4.71571 -34.843
21.24 -4.71649 22.698
21.2843 -4.71571 22.698
3.87967 -5.02106 -34.843
6.44288 -4.97609 -34.843
0.760001 -5.07579 -34.843
-4.04 -5.16 -34.843
-4.04 -5.16 22.698
0.760001 -5.07579 22.698
3.87967 -5.02106 22.698
6.44288 -4.97609 22.698
-3.97594 -1.88 30.519
-4.04 -5.16 -34.843
-3.97594 -1.88 -34.843
-3.84846 4.6465 -34.843
-3.84846 4.6465 22.698
-3.84846 4.6465 25.432
-3.84846 4.6465 30.519
-3.97594 -1.88 33.341
-4.04 -5.16 33.341
-3.52906 21 25.432
-3.52906 21 30.519
-3.52906 21 22.698
-3.52906 21 -34.843
-3.43531 25.8 -34.843
-3.36461 29.42 -34.843
-3.36461 29.42 30.519
-3.43531 25.8 30.519
0.760002 -25.24 -34.843
0.760001 -25.24 -34.843
3.60825 -22.3918 -34.843
6.52086 -19.4791 -34.843
6.68088 -19.3191 -34.843
6.68088 -19.3191 22.698
6.52086 -19.4791 22.698
3.60825 -22.3918 22.698
0.760002 -25.24 22.698
0.760001 -25.24 22.698
26.76 0.759999 -34.843
27.96 1.96 -34.843
27.96 1.96 22.698
26.76 0.759999 22.698
21.24 -4.76 22.698
21.24 -4.76 -34.843
-0.753475 -1.88 33.341
4.00292 2.86696 22.698
5.92693 4.78715 -34.843
4.00292 2.86696 -34.843
-4.04 -5.16 -34.843
-4.04 -5.16 22.698
-4.04 -5.16 30.519
-4.04 -5.16 33.341
5.92693 4.78715 22.698
0.760001 -0.369528 33.341
4.00292 2.86696 30.519
-23.56 -5.50246 33.341
-23.56 -5.50246 30.519
-23.56 -1.88 30.519
4.0325 4.75989 25.432
4.36125 25.8 25.432
4.28625 21 25.432
-4.04 -5.16 33.341
0.760001 -1.88 33.341
0.760001 -5.07579 33.341
-30.54 21 33.341
-30.54 25.8 33.341
-30.54 25.8 30.519
26.76 -19.21 25.432
26.76 -25.24 25.432
0.760001 -25.24 -34.843
3.56375 -25.24 -34.843
0.760001 -25.24 22.698
3.56375 -25.24 22.698
0.760001 -19.3513 22.698
0.760001 -5.07579 30.519
-19.96 25.8 33.341
-26.84 -1.88 33.341
-26.84 -5.56 33.341
-23.56 21 -34.843
-23.56 4.36288 -34.843
-23.56 4.36288 30.519
-23.56 21 30.519
-3.84846 4.6465 33.341
-3.52906 21 33.341
0.760001 21 33.341
0.760001 4.71281 33.341
21.24 -25.24 22.698
21.24 -25.24 -34.843
6.40559 1.96 22.698
21.24 1.96 22.698
6.40559 1.96 -34.843
21.24 1.96 -34.843
26.76 -4.61965 22.698
26.76 -4.61965 -34.843
-26.84 -5.56 22.698
6.55183 -25.24 -34.843
6.55183 -25.24 22.698
-30.54 -1.88 -34.843
-30.54 -1.88 30.519
-26.84 -5.56 30.519
-26.84 -5.56 -34.843
-4.43219 -25.24 -34.843
-4.43219 -25.24 22.698
30.54 -4.55333 22.698
26.76 1.96 -34.843
30.54 1.96 -34.843
6.5743 -29.42 22.698
6.52 -19.32 -34.843
6.5743 -29.42 -34.843
4.0325 4.75989 30.519
0.760001 29.42 30.519
0.760001 29.42 -34.843
-30.54 25.8 -34.843
26.76 -29.42 -34.843
26.76 -29.42 22.698
21.24 -1.88 22.698
6.42624 -1.88 22.698
6.42624 -1.88 -34.843
21.24 -1.88 -34.843
-26.84 29.42 -34.843
-26.84 29.42 30.519
21.24 -29.42 22.698
0.760001 -29.42 -34.843
0.760001 -29.42 22.698
4.36125 25.8 30.519
4.36125 25.8 -34.843
4.28625 21 30.519
3.49843 -29.42 22.698
3.656 -19.3356 22.698
6.52 -19.32 22.698
6.39036 4.79382 22.698
6.39036 4.79382 -34.843
-4.04 -5.16 30.519
-4.31771 -19.3789 22.698
-30.54 21 30.519
-23.56 25.8 33.341
-23.56 29.42 33.341
-23.56 29.42 30.519
-19.96 29.42 33.341
21.24 5.00748 -34.843
4.28625 21 -34.843
-23.56 -1.88 33.341
-4.31771 -19.3789 -34.843
30.54 1.96 22.698
3.656 -19.3356 -34.843
26.76 1.96 22.698
3.87967 -5.02106 30.519
3.92875 -1.88 33.341
3.87967 -5.02106 33.341
26.76 5.08691 -34.843
26.76 5.08691 22.698
3.92875 -1.88 30.519
0.760001 -1.88 30.519
-23.56 25.8 33.341
-23.56 25.8 30.519
-23.56 21 33.341
4.28625 21 22.698
30.54 -25.24 25.432
30.54 -25.24 -34.843
30.54 -19.1895 25.432
-30.54 21 -34.843
4.0325 4.75989 -34.843
30.54 -25.24 22.698
0.760001 -19.3513 -34.843
-30.54 4.26245 30.519
21.24 -29.42 -34.843
30.54 -4.55333 -34.843
4.0325 4.75989 22.698
-19.96 -5.4393 33.341
4.36125 25.8 22.698
21.24 5.00748 22.698
3.49843 -29.42 -34.843
-19.96 -1.88 33.341
-30.54 4.26245 -34.843
4  210 24 25 147  255 0 0
5  210 149 83 82 137  255 0 0
4  210 147 187 149  255 0 0
4  210 137 18 24  255 0 0
4  217 141 11 13  255 139 0
4  217 204 178 208  255 139 0
4  217 208 142 141  255 139 0
4  217 13 14 204  255 139 0
4  69 27 26 68  231 255 0
4  69 155 154 70  92 255 0
4  58 3 2 67  92 255 0
4  58 35 34 57  0 255 46
4  69 70 33 27  231 255 0
4  69 68 0 155  92 255 0
4  58 59 42 35  0 255 46
4  58 67 66 59  92 255 0
4  50 92 93 51  0 255 185
4  50 49 4 56  0 255 185
6  50 186 207 188 47 49  0 185 255
4  50 51 177 186  0 185 255
7  47 48 161 134 175 90 91  0 255 185
4  215 166 167 171  0 46 255
4  215 152 139 114  0 46 255
5  215 114 72 73 166  0 46 255
4  47 188 151 48  0 185 255
4  215 171 150 152  0 46 255
4  190 53 52 118  0 255 185
4  43 48 54 45  0 255 185
8  43 44 82 148 193 183 135 162  0 255 185
4  209 152 150 165  0 46 255
4  209 157 20 131  0 46 255
4  209 131 139 152  0 46 255
3  43 87 44  255 0 0
4  209 165 158 157  0 46 255
4  43 45 86 87  255 0 0
4  205 90 96 211  92 0 255
4  205 3 4 91  92 0 255
4  205 184 2 3  92 0 255
4  205 211 200 184  92 0 255
4  67 68 26 28  231 255 0
4  204 156 110 178  255 139 0
4  204 14 10 156  255 139 0
4  67 28 29 66  231 255 0
7  35 123 13 11 144 36 34  231 0 255
4  28 122 123 35  231 0 255
4  35 42 29 28  231 0 255
4  188 74 75 151  0 185 255
4  22 87 86 23  255 0 0
4  22 131 20 18  0 46 255
5  22 76 75 139 131  0 46 255
4  22 23 77 76  0 46 255
3  50 56 92  0 255 185
5  58 57 56 4 3  92 255 0
3  205 91 90  92 0 255
4  47 91 4 49  0 255 185
4  190 192 191 195  0 255 185
5  153 102 211 89 98  92 0 255
5  190 195 98 89 53  0 255 185
4  53 54 173 172  0 185 255
7  27 163 10 14 122 28 26  231 0 255
5  27 33 181 164 163  231 0 255
4  176 51 93 94  0 255 185
4  176 105 107 118  0 255 185
4  190 118 107 192  0 255 185
4  176 118 52 51  0 255 185
4  186 145 113 207  0 185 255
5  188 207 113 72 74  0 185 255
4  186 177 146 145  0 185 255
4  184 169 0 2  92 0 255
4  67 2 0 68  92 255 0
4  184 200 213 169  92 0 255
4  183 193 194 214  0 255 185
4  183 175 134 135  0 255 185
4  183 214 174 175  0 255 185
4  43 162 161 48  0 255 185
4  151 76 77 173  0 185 255
4  54 48 151 173  0 185 255
4  36 144 138 37  231 0 255
5  36 92 56 57 34  0 255 46
4  36 37 93 92  0 255 46
4  211 102 104 200  92 0 255
7  54 53 89 96 174 132 160  0 255 185
4  45 54 160 159  0 255 185
4  214 133 132 174  0 255 185
3  211 96 89  92 0 255
4  40 41 60 61  0 255 46
5  38 37 138 143 100  231 0 255
4  38 212 95 94  0 255 46
4  38 39 216 212  0 255 46
4  38 100 101 39  231 0 255
6  40 39 101 12 17 124  231 0 255
4  208 17 12 142  255 139 0
4  178 108 16 9  255 139 0
4  31 30 41 40  231 0 255
4  208 178 9 17  255 139 0
4  40 124 125 31  231 0 255
4  65 64 30 31  231 255 0
4  65 127 126 61  92 255 0
4  33 182 180 181  231 0 255
4  33 32 119 182  231 0 255
4  65 31 32 71  231 255 0
4  70 71 32 33  231 255 0
4  172 117 52 53  0 185 255
4  51 52 117 177  0 185 255
4  61 126 62 55  92 255 0
4  61 60 64 65  92 255 0
4  38 94 93 37  0 255 46
4  176 94 95 105  0 255 185
4  61 55 39 40  0 255 46
4  24 202 206 25  255 0 139
4  24 18 20 202  255 0 139
5  22 18 137 44 87  255 0 0
4  170 104 102 153  92 0 255
4  65 7 128 127  92 255 0
4  153 6 7 170  92 0 255
4  29 30 64 66  231 255 0
4  59 60 41 42  0 255 46
4  66 64 60 59  92 255 0
4  42 41 30 29  231 0 255
4  174 96 90 175  0 255 185
5  23 130 140 78 77  0 46 255
3  173 77 78  0 185 255
4  172 173 78 79  0 185 255
4  171 116 140 150  0 46 255
4  165 150 140 130  0 46 255
4  170 168 103 104  92 0 255
4  170 7 1 168  92 0 255
4  70 154 1 71  92 255 0
4  65 71 1 7  92 255 0
6  168 1 0 169 213 103  92 0 255
5  147 136 85 84 187  255 0 0
8  214 194 189 85 46 45 159 133  0 255 185
4  178 110 109 108  255 139 0
4  31 125 198 32  231 0 255
5  172 79 80 115 117  0 185 255
4  177 117 115 146  0 185 255
5  171 167 81 80 116  0 46 255
4  167 166 73 81  0 46 255
4  25 203 111 19  255 0 139
4  25 206 201 203  255 0 139
4  23 19 21 130  0 46 255
4  165 130 21 158  0 46 255
4  164 181 198 8  231 0 255
4  9 125 124 17  231 0 255
4  164 8 10 163  231 0 255
4  160 132 133 159  0 255 185
4  162 135 134 161  0 255 185
4  158 21 20 157  0 46 255
4  110 156 10 8  255 139 0
4  1 154 155 0  92 255 0
4  153 98 5 6  92 0 255
3  151 75 76  0 185 255
4  21 206 202 20  255 0 139
4  200 104 103 213  92 0 255
3  136 46 85  255 0 0
3  137 82 44  255 0 0
4  194 193 148 189  0 255 185
3  148 82 83  0 255 185
3  189 84 85  0 255 185
4  189 148 83 84  0 255 185
4  187 84 83 149  255 0 0
5  19 23 86 46 136  255 0 0
4  25 19 136 147  255 0 0
3  45 46 86  255 0 0
3  113 73 72  0 185 255
4  115 81 73 113  0 185 255
4  146 115 113 145  0 185 255
4  13 123 122 14  231 0 255
5  144 11 12 143 138  231 0 255
4  12 11 141 142  255 139 0
4  139 75 74 114  0 46 255
4  6 5 97 129  92 255 0
4  21 19 111 112  255 0 139
4  39 55 62 216  0 255 46
4  9 16 199 125  231 0 255
4  8 198 197 15  231 0 255
4  32 198 179 119  231 0 255
3  105 95 63  0 255 185
5  62 63 95 212 216  0 255 46
4  196 5 98 195  0 255 185
4  196 106 97 5  0 255 185
3  106 88 97  0 255 185
5  129 97 88 62 126  92 255 0
4  143 121 99 100  231 0 255
4  143 12 120 121  231 0 255
4  6 129 128 7  92 255 0
4  129 126 127 128  92 255 0
4  12 101 185 120  231 0 255
4  121 120 185 99  231 0 255
4  16 15 197 199  231 0 255
3  114 74 72  0 46 255
4  116 79 78 140  0 46 255
3  116 80 79  0 46 255
3  115 80 81  0 185 255
4  8 15 109 110  255 139 0
4  16 108 109 15  255 139 0
5  107 105 63 88 106  0 255 185
3  62 88 63  92 255 0
4  206 21 112 201  255 0 139
4  201 112 111 203  255 0 139
4  199 197 198 125  231 0 255
4  106 196 195 191  0 255 185
4  192 107 106 191  0 255 185
4  185 101 100 99  231 0 255
4  119 179 180 182  231 0 255
4  181 180 179 198  231 0 255
3  96 90 89  92 0 255
3  90 96 89  0 255 185
3  98 89 5  92 0 255
3  89 98 5  0 255 185
3  97 5 88  92 255 0
3  5 97 88  0 255 185
5  63 88 5 4 56  92 255 0
5  88 63 56 4 5  0 255 185
6  95 63 56 92 93 94  0 255 46
6  63 95 94 93 92 56  0 255 185
5  91 4 5 89 90  92 0 255
5  4 91 90 89 5  0 255 185
6  85 46 44 82 83 84  255 0 0
6  46 85 84 83 82 44  0 255 185
10  81 73 72 74 75 76 77 78 79 80  0 46 255
10  73 81 80 79 78 77 76 75 74 72  0 185 255
8  71 65 64 66 67 68 69 70  92 255 0
8  65 71 70 69 68 67 66 64  231 255 0
4  63 56 55 62  92 255 0
4  56 63 62 55  0 255 46
7  61 55 56 57 58 59 60  92 255 0
7  55 61 60 59 58 57 56  0 255 46
8  54 48 47 49 50 51 52 53  0 255 185
8  48 54 53 52 51 50 49 47  0 185 255
4  46 44 43 45  0 255 185
4  44 46 45 43  255 0 0
9  42 35 34 36 37 38 39 40 41  231 0 255
9  35 42 41 40 39 38 37 36 34  0 255 46
8  33 27 26 28 29 30 31 32  231 0 255
8  27 33 32 31 30 29 28 26  231 255 0
4  19 23 22 18  0 46 255
4  23 19 18 22  255 0 0
4  25 19 18 24  255 0 139
4  19 25 24 18  255 0 0
4  21 19 18 20  0 46 255
4  19 21 20 18  255 0 139
7  17 12 11 13 14 10 9  231 0 255
7  12 17 9 10 14 13 11  255 139 0
4  16 9 8 15  231 0 255
4  9 16 15 8  255 139 0
3  10 8 9  231 0 255
3  8 10 9  255 139 0
8  7 1 0 2 3 4 5 6  92 255 0
8  1 7 6 5 4 3 2 0  92 0 255

