OFF
185 173 0

6.55183 -25.24 22.698
6.55183 -25.24 -34.843
-23.56 25.8 33.341
-23.56 29.42 30.519
-19.96 25.8 33.341
-19.96 29.42 33.341
-23.56 -1.88 30.519
-23.56 -5.50246 33.341
-23.56 -1.88 33.341
-23.56 -5.50246 30.519
0.760001 -1.88 33.341
3.92875 -1.88 33.341
3.87967 -5.02106 33.341
0.760001 -1.88 30.519
3.92875 -1.88 30.519
-23.56 25.8 33.341
-23.56 21 33.341
-23.56 25.8 30.519
26.76 -19.21 25.432
30.54 -25.24 25.432
30.54 -25.24 22.698
4.0325 4.75989 25.432
4.28625 21 25.432
-3.97594 -1.88 33.341
0.760001 -5.07579 33.341
-30.54 21 33.341
-30.54 25.8 33.341
-26.84 25.8 33.341
3.56375 -25.24 -34.843
3.56375 -25.24 22.698
0.760001 4.71281 -34.843
0.760001 -5.07579 -34.843
0.760001 -19.3513 22.698
0.760001 -5.07579 22.698
0.760001 -5.07579 30.519
-26.84 21 33.341
-26.84 -1.88 33.341
-26.84 -5.56 33.341
-26.84 -1.88 30.519
-19.96 -1.88 30.519
-23.56 21 -34.843
-23.56 4.36288 -34.843
-23.56 21 30.519
-23.56 4.36288 30.519
0.760001 21 -34.843
0.760001 21 30.519
4.36125 25.8 25.432
-3.52906 21 33.341
0.760001 21 33.341
0.760001 4.71281 33.341
0.760001 4.71281 30.519
-3.84846 4.6465 33.341
-19.96 -5.4393 33.341
-19.96 -1.88 33.341
-4.04 -5.16 33.341
-19.96 25.8 30.519
21.24 -25.24 22.698
26.76 -25.24 -34.843
21.24 -25.24 -34.843
6.40559 1.96 22.698
6.40559 1.96 -34.843
21.24 1.96 22.698
0.760001 -25.24 -34.843
21.24 1.96 -34.843
0.760001 -25.24 22.698
26.76 -19.21 -34.843
-3.97594 -1.88 30.519
-26.84 -5.56 22.698
-26.84 21 30.519
-26.84 4.31568 30.519
-26.84 21 -34.843
-26.84 4.31568 -34.843
26.76 -25.24 25.432
-19.96 21 25.432
-3.84846 4.6465 25.432
-19.96 4.41468 25.432
-3.52906 21 25.432
-19.96 -1.88 -34.843
-3.97594 -1.88 -34.843
-30.54 -1.88 -34.843
-30.54 -1.88 30.519
-26.84 -1.88 -34.843
-26.84 -5.56 -34.843
-26.84 -5.56 30.519
-4.43219 -25.24 -34.843
-30.54 25.8 30.519
-4.43219 -25.24 22.698
21.24 -19.24 22.698
26.76 -4.61965 22.698
30.54 -4.55333 22.698
30.54 -19.1895 22.698
26.76 1.96 -34.843
26.76 -4.61965 -34.843
6.5743 -29.42 22.698
30.54 1.96 -34.843
6.5743 -29.42 -34.843
30.54 1.96 22.698
-3.43531 25.8 30.519
26.76 1.96 22.698
26.76 5.08691 -34.843
26.76 -25.24 22.698
26.76 5.08691 22.698
3.87967 -5.02106 -34.843
4.28625 21 22.698
4.36125 25.8 22.698
-4.04 -5.16 -34.843
-19.96 -5.4393 22.698
30.54 -25.24 -34.843
6.52 -19.32 22.698
26.76 -19.21 22.698
-19.96 25.8 -34.843
3.49843 -29.42 22.698
6.39036 4.79382 22.698
0.760001 29.42 -34.843
-4.31771 -19.3789 22.698
0.760001 25.8 30.519
0.760001 25.8 -34.843
30.54 -19.1895 -34.843
0.760001 29.42 30.519
-30.54 25.8 -34.843
-26.84 25.8 -34.843
-3.84846 4.6465 30.519
26.76 -29.42 22.698
21.24 -29.42 -34.843
21.24 -1.88 22.698
6.42624 -1.88 -34.843
21.24 -1.88 -34.843
6.42624 -1.88 22.698
-26.84 29.42 -34.843
6.52 -19.32 -34.843
-26.84 29.42 30.519
-4.04 -5.16 22.698
21.24 -29.42 22.698
0.760001 -19.3513 -34.843
-3.36461 29.42 -34.843
30.54 -4.55333 -34.843
-30.54 4.26245 -34.843
6.39036 4.79382 -34.843
-30.54 21 30.519
21.24 -4.71649 22.698
-3.52906 21 22.698
21.24 5.00748 22.698
4.36125 25.8 -34.843
4.36125 25.8 30.519
-3.43531 25.8 -34.843
-3.52906 21 30.519
-3.36461 29.42 30.519
4.28625 21 30.519
-26.84 25.8 30.519
3.656 -19.3356 22.698
3.656 -19.3356 -34.843
26.76 -29.42 -34.843
6.44288 -4.97609 22.698
6.44288 -4.97609 -34.843
0.760001 -29.42 -34.843
-23.56 29.42 33.341
0.760001 -29.42 22.698
-19.96 21 22.698
-19.96 4.41468 22.698
4.0325 4.75989 22.698
-3.84846 4.6465 22.698
-19.96 29.42 30.519
-19.96 21 30.519
4.0325 4.75989 30.519
3.87967 -5.02106 22.698
-19.96 4.41468 30.519
-19.96 -5.4393 -34.843
-19.96 21 -34.843
-19.96 4.41468 -34.843
21.24 -4.71649 -34.843
-30.54 4.26245 30.519
-3.52906 21 -34.843
-19.96 -5.4393 30.519
30.54 -19.1895 25.432
-3.84846 4.6465 -34.843
21.24 -19.24 -34.843
-4.04 -5.16 30.519
21.24 5.00748 -34.843
4.28625 21 -34.843
4.0325 4.75989 -34.843
-4.31771 -19.3789 -34.843
3.87967 -5.02106 30.519
-19.96 29.42 -34.843
-30.54 21 -34.843
3.49843 -29.42 -34.843
4  135 117 90 89  255 0 0
4  135 94 91 92  255 0 0
4  135 89 96 94  255 0 0
4  135 92 65 117  255 0 0
4  136 79 81 71  255 0 0
4  136 183 138 170  255 0 0
4  136 170 80 79  255 0 0
4  136 71 70 183  255 0 0
4  134 182 110 144  255 0 0
4  134 113 118 146  255 0 0
4  174 30 44 171  255 0 0
4  174 168 77 78  255 0 0
4  134 146 161 182  255 0 0
4  134 144 116 113  255 0 0
4  174 160 158 168  255 0 0
4  174 171 140 160  255 0 0
4  105 166 106 131  255 0 0
5  105 31 30 174 78  255 0 0
6  105 180 133 150 102 31  255 0 0
4  105 131 114 180  255 0 0
6  102 153 125 60 137 179  255 0 0
4  184 154 156 111  255 0 0
4  184 95 1 28  255 0 0
4  184 28 62 154  255 0 0
4  102 150 129 153  255 0 0
4  184 111 93 95  255 0 0
4  181 164 33 34  255 0 0
4  169 153 152 139  255 0 0
7  169 92 91 99 177 63 126  255 0 0
4  123 95 93 132  255 0 0
4  123 151 57 58  255 0 0
4  123 58 1 95  255 0 0
4  169 175 65 92  255 0 0
4  123 132 122 151  255 0 0
4  169 139 87 175  255 0 0
4  179 137 112 159  255 0 0
4  179 30 31 102  255 0 0
4  179 178 44 30  255 0 0
4  179 159 103 178  255 0 0
4  171 144 110 167  255 0 0
4  183 119 85 138  255 0 0
4  183 70 120 119  255 0 0
4  171 167 157 140  255 0 0
7  168 41 71 81 82 166 77  255 0 0
4  167 40 41 168  255 0 0
4  168 158 157 167  255 0 0
4  150 28 1 129  255 0 0
4  175 58 57 65  255 0 0
4  175 129 1 58  255 0 0
4  175 87 108 129  255 0 0
4  105 78 77 166  255 0 0
4  181 12 11 14  255 0 0
6  163 21 159 164 181 14  255 0 0
4  164 152 108 149  255 0 0
7  182 128 120 70 40 167 110  255 0 0
5  182 161 3 130 128  255 0 0
4  176 131 106 172  255 0 0
4  176 54 24 34  255 0 0
4  181 34 24 12  255 0 0
4  176 34 33 131  255 0 0
4  180 84 62 133  255 0 0
4  150 133 62 28  255 0 0
4  180 114 86 84  255 0 0
4  178 142 116 44  255 0 0
4  171 44 116 144  255 0 0
4  178 103 104 142  255 0 0
4  177 99 101 141  255 0 0
4  177 137 60 63  255 0 0
4  177 141 112 137  255 0 0
4  169 126 125 153  255 0 0
4  152 153 129 108  255 0 0
4  166 82 67 106  255 0 0
4  159 21 22 103  255 0 0
6  152 164 159 112 59 127  255 0 0
4  139 152 127 124  255 0 0
4  141 61 59 112  255 0 0
4  165 75 74 121  255 0 0
5  172 106 67 83 9  255 0 0
4  172 52 54 176  255 0 0
4  172 39 53 52  255 0 0
4  172 9 6 39  255 0 0
6  165 39 6 38 69 43  255 0 0
4  170 69 38 80  255 0 0
4  138 25 35 68  255 0 0
4  162 73 75 165  255 0 0
4  170 138 68 69  255 0 0
4  165 43 42 162  255 0 0
4  145 76 73 162  255 0 0
4  145 47 51 121  255 0 0
4  161 5 155 3  255 0 0
4  161 55 4 5  255 0 0
4  145 162 55 97  255 0 0
4  146 97 55 161  255 0 0
4  149 32 33 164  255 0 0
4  131 33 32 114  255 0 0
4  121 51 23 66  255 0 0
4  121 74 76 145  255 0 0
4  121 66 39 165  255 0 0
4  117 107 20 90  255 0 0
4  117 65 57 107  255 0 0
4  147 22 21 163  255 0 0
4  145 45 48 47  255 0 0
4  163 50 45 147  255 0 0
4  157 73 76 140  255 0 0
4  160 74 75 158  255 0 0
4  140 76 74 160  255 0 0
4  158 75 73 157  255 0 0
4  87 56 0 108  255 0 0
4  149 108 0 29  255 0 0
4  111 29 0 93  255 0 0
4  132 93 0 56  255 0 0
4  147 143 46 22  255 0 0
4  147 45 115 143  255 0 0
4  146 118 115 97  255 0 0
4  145 97 115 45  255 0 0
6  143 115 116 142 104 46  255 0 0
4  89 88 98 96  255 0 0
7  141 101 98 88 139 124 61  255 0 0
4  138 85 26 25  255 0 0
4  162 42 17 55  255 0 0
4  149 29 64 32  255 0 0
4  114 32 64 86  255 0 0
4  111 156 64 29  255 0 0
4  156 154 62 64  255 0 0
4  90 173 18 109  255 0 0
4  90 20 19 173  255 0 0
4  87 109 100 56  255 0 0
4  132 56 100 122  255 0 0
4  130 3 17 148  255 0 0
4  68 42 43 69  255 0 0
4  130 148 120 128  255 0 0
4  127 59 61 124  255 0 0
4  126 63 60 125  255 0 0
4  122 100 57 151  255 0 0
4  85 119 120 148  255 0 0
4  115 118 113 116  255 0 0
4  163 14 13 50  255 0 0
4  100 20 107 57  255 0 0
4  103 22 46 104  255 0 0
4  101 99 91 98  255 0 0
4  98 91 94 96  255 0 0
4  109 87 139 88  255 0 0
4  90 109 88 89  255 0 0
4  86 64 62 84  255 0 0
4  71 41 40 70  255 0 0
5  82 81 38 83 67  255 0 0
4  38 81 79 80  255 0 0
4  50 13 10 49  255 0 0
4  100 109 18 72  255 0 0
4  39 66 23 53  255 0 0
4  68 35 16 42  255 0 0
4  148 17 15 27  255 0 0
4  55 17 2 4  255 0 0
4  54 52 53 23  255 0 0
4  10 23 51 49  255 0 0
4  83 37 7 9  255 0 0
4  83 38 36 37  255 0 0
4  50 49 48 45  255 0 0
4  49 51 47 48  255 0 0
4  38 6 8 36  255 0 0
4  37 36 8 7  255 0 0
4  35 27 15 16  255 0 0
4  148 27 26 85  255 0 0
4  35 25 26 27  255 0 0
4  24 54 23 10  255 0 0
4  20 100 72 19  255 0 0
4  19 72 18 173  255 0 0
4  16 15 17 42  255 0 0
4  10 13 14 11  255 0 0
4  12 24 10 11  255 0 0
4  8 6 9 7  255 0 0
4  4 2 155 5  255 0 0
4  3 155 2 17  255 0 0

