OFF
219 284 0

4.00292 2.86696 -34.843
4.0325 4.75989 -34.843
4.00292 2.86696 22.698
4.0325 4.75989 22.698
-3.52906 21 22.698
-3.52906 21 -34.843
-3.52906 21 25.432
-3.52906 21 30.519
0.760001 21 30.519
0.760001 21 -34.843
-30.54 21 30.519
-30.54 21 -34.843
-26.84 21 30.519
-26.84 21 -34.843
-23.56 25.8 30.519
-26.84 25.8 30.519
-23.56 21 30.519
-23.56 -1.88 30.519
-26.84 -1.88 30.519
-23.56 -5.50246 30.519
-26.84 -5.56 30.519
-23.56 29.42 30.519
-19.96 29.42 30.519
-19.96 25.8 30.519
0.760001 -1.88 30.519
-4.04 -5.16 30.519
-4.04 -5.16 30.519
0.760001 -0.369528 30.519
3.92875 -1.88 30.519
3.87967 -5.02106 30.519
0.760001 -5.07579 30.519
-4.04 -5.16 30.519
3.87967 -5.02106 -34.843
3.87967 -5.02106 22.698
-19.96 -1.88 30.519
-19.96 -5.4393 30.519
-3.97594 -1.88 30.519
0.760001 25.8 -34.843
0.760001 25.8 30.519
0.760001 4.71281 -34.843
0.760001 -0.369528 -34.843
0.760001 4.71281 30.519
-26.84 25.8 -34.843
-26.84 -1.88 -34.843
-26.84 4.31568 -34.843
-26.84 25.8 33.341
-26.84 21 33.341
-26.84 4.31568 30.519
26.76 -19.21 -34.843
26.76 -19.21 22.698
26.76 -25.24 -34.843
26.76 -25.24 22.698
21.24 -19.24 -34.843
21.24 -19.24 22.698
30.54 -19.1895 -34.843
30.54 -19.1895 22.698
-19.96 25.8 -34.843
-19.96 29.42 -34.843
-19.96 21 -34.843
-19.96 21 22.698
-19.96 21 25.432
-19.96 21 30.519
-19.96 -1.88 -34.843
-19.96 4.41468 -34.843
-19.96 -5.4393 -34.843
-19.96 -5.4393 22.698
-19.96 4.41468 30.519
-19.96 4.41468 25.432
-19.96 4.41468 22.698
21.24 -4.71649 -34.843
21.2843 -4.71571 -34.843
3.60825 -22.3918 22.698
6.52086 -19.4791 22.698
6.68088 -19.3191 22.698
0.760002 -25.24 -34.843
3.60825 -22.3918 -34.843
0.760001 -25.24 22.698
0.760002 -25.24 22.698
0.760001 -25.24 -34.843
-0.753475 -1.88 33.341
5.92693 4.78715 -34.843
-4.04 -5.16 -34.843
-4.04 -5.16 -34.843
-4.04 -5.16 22.698
-4.04 -5.16 33.341
-4.04 -5.16 33.341
0.760001 -0.369528 33.341
4.00292 2.86696 30.519
5.92693 4.78715 22.698
-3.36461 29.42 30.519
-30.54 4.26245 30.519
21.24 5.00748 22.698
21.24 -4.71649 22.698
6.44288 -4.97609 22.698
6.44288 -4.97609 -34.843
6.52 -19.32 -34.843
6.52 -19.32 22.698
21.24 5.00748 -34.843
4.28625 21 -34.843
-4.31771 -19.3789 -34.843
6.55183 -25.24 22.698
3.56375 -25.24 22.698
6.55183 -25.24 -34.843
3.56375 -25.24 -34.843
3.656 -19.3356 -34.843
-23.56 25.8 33.341
-23.56 29.42 33.341
-19.96 29.42 33.341
-19.96 25.8 33.341
3.656 -19.3356 22.698
4.0325 4.75989 30.519
-23.56 -5.50246 33.341
-3.84846 4.6465 -34.843
-23.56 -1.88 33.341
-4.04 -5.16 -34.843
0.760001 -5.07579 33.341
0.760001 -1.88 33.341
3.92875 -1.88 33.341
3.87967 -5.02106 33.341
-23.56 25.8 33.341
-23.56 21 33.341
21.24 -29.42 -34.843
26.76 -25.24 25.432
26.76 -19.21 25.432
30.54 -19.1895 25.432
30.54 -25.24 25.432
3.49843 -29.42 -34.843
-3.52906 21 33.341
30.54 -25.24 22.698
0.760001 21 33.341
4.28625 21 25.432
4.0325 4.75989 25.432
4.36125 25.8 25.432
-3.97594 -1.88 33.341
-3.84846 4.6465 33.341
-4.04 -5.16 33.341
0.760001 4.71281 33.341
-3.36461 29.42 -34.843
-30.54 21 33.341
-30.54 25.8 33.341
-30.54 4.26245 -34.843
-19.96 -5.4393 33.341
-19.96 -1.88 33.341
30.54 -4.55333 -34.843
-30.54 25.8 30.519
0.760001 -25.24 -34.843
0.760001 -25.24 22.698
21.24 -25.24 22.698
21.24 -25.24 -34.843
6.40559 1.96 22.698
21.24 1.96 22.698
6.40559 1.96 -34.843
21.24 1.96 -34.843
0.760001 -5.07579 -34.843
0.760001 -5.07579 22.698
0.760001 -19.3513 22.698
26.76 -4.61965 22.698
26.76 -4.61965 -34.843
21.2843 -4.71571 22.698
-30.54 -1.88 30.519
-30.54 -1.88 -34.843
-26.84 -1.88 33.341
-26.84 -5.56 33.341
-26.84 -5.56 -34.843
-26.84 -5.56 22.698
-4.04 -5.16 22.698
-23.56 21 -34.843
-23.56 4.36288 -34.843
-23.56 4.36288 30.519
-4.43219 -25.24 -34.843
-4.43219 -25.24 22.698
-3.97594 -1.88 -34.843
-3.84846 4.6465 22.698
-3.84846 4.6465 25.432
30.54 -4.55333 22.698
-3.84846 4.6465 30.519
4.28625 21 22.698
4.36125 25.8 22.698
6.68088 -19.3191 -34.843
0.760001 29.42 30.519
6.52086 -19.4791 -34.843
0.760001 29.42 -34.843
21.24 -1.88 -34.843
6.42624 -1.88 22.698
6.42624 -1.88 -34.843
21.24 -29.42 22.698
0.760001 -29.42 -34.843
0.760001 -29.42 22.698
0.760001 -19.3513 -34.843
3.49843 -29.42 22.698
-4.31771 -19.3789 22.698
4.36125 25.8 -34.843
4.36125 25.8 30.519
-3.43531 25.8 30.519
-3.43531 25.8 -34.843
4.28625 21 30.519
6.39036 4.79382 22.698
6.39036 4.79382 -34.843
27.96 1.96 22.698
26.76 1.96 -34.843
30.54 1.96 -34.843
30.54 1.96 22.698
26.76 1.96 22.698
26.76 5.08691 -34.843
26.76 5.08691 22.698
30.54 -25.24 -34.843
26.76 0.759999 -34.843
27.96 1.96 -34.843
6.5743 -29.42 22.698
6.5743 -29.42 -34.843
26.76 0.759999 22.698
21.24 -4.76 22.698
-30.54 25.8 -34.843
26.76 -29.42 -34.843
26.76 -29.42 22.698
21.24 -1.88 22.698
21.24 -4.76 -34.843
-26.84 29.42 -34.843
-26.84 29.42 30.519
4  143 54 55 174  255 0 0
5  143 200 207 206 157  255 0 0
4  143 174 201 200  255 0 0
4  143 157 48 54  255 0 0
4  140 160 43 44  255 0 229
4  140 11 10 90  255 0 229
4  140 90 159 160  255 0 229
4  140 44 13 11  255 0 229
4  137 57 56 194  255 153 0
4  137 181 179 89  255 229 0
4  112 39 9 5  255 0 152
4  112 63 62 171  203 255 0
4  137 89 22 57  255 153 0
4  137 194 37 181  255 229 0
4  112 172 68 63  203 255 0
4  112 5 4 172  255 0 152
4  114 82 83 165  127 255 0
4  114 153 40 81  127 255 0
6  114 99 188 104 32 153  51 255 0
4  114 165 190 99  51 255 0
7  32 94 184 151 197 80 0  0 102 255
4  126 186 187 189  0 255 25
4  126 209 102 103  0 255 25
5  126 103 74 78 186  0 255 25
4  32 104 95 94  51 255 0
4  126 189 208 209  0 255 25
4  29 33 154 30  127 255 0
4  69 94 93 92  0 102 255
8  69 70 206 199 203 97 152 182  0 102 255
4  121 209 208 185  0 255 25
4  121 213 50 148  0 255 25
4  121 148 102 209  0 255 25
3  69 216 70  255 0 0
4  121 185 214 213  0 255 25
4  69 92 211 216  255 0 0
4  1 80 88 3  255 0 76
4  1 39 40 0  0 255 102
4  1 98 9 39  0 255 102
4  1 3 176 98  0 255 102
4  5 194 56 58  255 153 0
4  11 212 144 10  255 76 0
4  11 13 42 212  255 76 0
4  5 58 59 4  255 153 0
7  63 167 44 43 163 64 62  0 255 178
4  58 166 167 63  0 255 178
4  63 68 59 58  0 255 178
4  104 75 180 95  51 255 0
4  52 216 211 53  255 0 0
4  52 148 50 48  0 255 25
5  52 178 180 102 148  0 255 25
4  52 53 73 178  0 255 25
3  114 81 82  127 255 0
5  112 171 81 40 39  255 0 152
3  1 0 80  255 0 76
4  32 0 40 153  127 255 0
4  29 118 117 28  0 25 255
5  110 131 3 2 87  0 255 102
5  29 28 87 2 33  127 255 0
4  33 93 96 109  51 255 0
7  57 217 42 13 166 58 56  0 255 178
5  57 22 21 218 217  0 255 178
4  31 165 83 25  127 255 0
4  31 135 115 30  0 25 255
4  29 30 115 118  0 25 255
4  31 30 154 165  127 255 0
4  99 169 145 188  51 255 0
5  104 188 145 74 75  51 255 0
4  99 190 170 169  51 255 0
4  98 191 37 9  0 255 102
4  5 9 37 194  255 229 0
4  98 176 177 191  0 255 102
4  97 203 204 91  0 102 255
4  97 197 151 152  0 102 255
4  97 91 196 197  0 102 255
4  69 182 184 94  0 102 255
4  95 178 73 96  51 255 0
4  93 94 95 96  51 255 0
4  64 163 164 65  0 255 178
5  64 82 81 171 62  203 255 0
4  64 65 83 82  203 255 0
4  3 131 130 176  0 255 102
7  93 33 2 88 196 149 183  0 102 255
4  92 93 183 215  0 102 255
4  91 150 149 196  0 102 255
3  3 88 2  255 0 76
4  66 67 173 175  203 255 0
5  35 65 164 20 19  0 255 178
4  35 141 84 25  0 178 255
4  35 34 142 141  0 178 255
4  35 19 17 34  0 255 178
6  66 34 17 18 47 168  0 255 178
4  90 47 18 159  255 0 229
4  10 138 46 12  255 76 0
4  61 60 67 66  0 255 178
4  90 10 12 47  255 0 229
4  66 168 16 61  0 255 178
4  7 6 60 61  255 153 0
4  7 127 134 175  255 0 152
4  22 107 106 21  50 0 255
4  22 23 108 107  50 0 255
4  7 61 23 193  255 153 0
4  89 193 23 22  255 153 0
4  109 155 154 33  51 255 0
4  165 154 155 190  51 255 0
4  175 134 133 36  255 0 152
4  175 173 6 7  255 0 152
4  35 25 83 65  203 255 0
4  31 25 84 135  0 25 255
4  175 36 34 66  203 255 0
4  54 205 128 55  0 255 255
4  54 48 50 205  0 255 255
5  52 48 157 70 216  255 0 0
4  195 130 131 110  0 255 102
4  7 8 129 127  255 0 152
4  110 41 8 195  0 255 102
4  59 60 6 4  255 153 0
4  172 173 67 68  203 255 0
4  4 6 173 172  255 0 152
4  68 67 60 59  0 255 178
4  196 88 80 197  0 102 255
5  53 147 100 72 73  0 255 25
3  96 73 72  51 255 0
4  109 96 72 71  51 255 0
4  189 101 100 208  0 255 25
4  185 208 100 147  0 255 25
4  195 192 132 130  0 255 102
4  195 8 38 192  0 255 102
4  89 179 38 193  255 229 0
4  7 193 38 8  255 229 0
6  192 38 37 191 177 132  0 255 102
5  174 156 210 198 201  255 0 0
8  91 204 202 210 158 92 215 150  0 102 255
4  10 144 139 138  255 76 0
4  61 16 14 23  0 255 178
5  109 71 77 146 155  51 255 0
4  190 155 146 170  51 255 0
5  189 187 76 77 101  0 255 25
4  187 186 78 76  0 255 25
4  55 124 123 49  0 255 255
4  55 128 125 124  0 255 255
4  53 49 51 147  0 255 25
4  185 147 51 214  0 255 25
4  218 21 14 15  0 255 178
4  12 16 168 47  0 255 178
4  218 15 42 217  0 255 178
4  183 149 150 215  0 102 255
4  182 152 151 184  0 102 255
4  214 51 50 213  0 255 25
4  144 212 42 15  255 76 0
4  38 179 181 37  255 229 0
4  110 87 27 41  0 255 102
3  95 180 178  51 255 0
4  51 128 205 50  0 255 255
4  176 130 132 177  0 255 102
3  156 158 210  255 0 0
3  157 206 70  255 0 0
4  204 203 199 202  0 102 255
3  199 206 207  0 102 255
3  202 198 210  0 102 255
4  202 199 207 198  0 102 255
4  201 198 207 200  255 0 0
5  49 53 211 158 156  255 0 0
4  55 49 156 174  255 0 0
3  92 158 211  255 0 0
3  145 78 74  51 255 0
4  146 76 78 145  51 255 0
4  170 146 145 169  51 255 0
4  44 167 166 13  0 255 178
5  163 43 18 20 164  0 255 178
4  18 43 160 159  255 0 229
4  102 180 75 103  0 255 25
4  41 27 86 136  255 0 152
4  51 49 123 122  0 255 255
4  34 36 133 142  0 178 255
4  12 46 120 16  204 0 255
4  15 14 119 45  204 0 255
4  23 14 105 108  50 0 255
3  135 84 85  0 25 255
5  133 85 84 141 142  0 178 255
4  24 27 87 28  127 255 0
4  24 116 86 27  0 25 255
3  116 79 86  0 25 255
5  136 86 79 133 134  255 0 152
4  20 162 111 19  127 0 255
4  20 18 161 162  127 0 255
4  41 136 129 8  255 0 152
4  136 134 127 129  255 0 152
4  18 17 113 161  127 0 255
4  162 161 113 111  127 0 255
4  46 45 119 120  204 0 255
3  103 75 74  0 255 25
4  101 71 72 100  0 255 25
3  101 77 71  0 255 25
3  146 77 76  51 255 0
4  15 45 139 144  255 76 0
4  46 138 139 45  255 76 0
5  115 135 85 79 116  0 25 255
3  133 79 85  255 0 152
4  128 51 122 125  0 255 255
4  125 122 123 124  0 255 255
4  120 119 14 16  204 0 255
4  116 24 28 117  0 25 255
4  118 115 116 117  0 25 255
4  113 17 19 111  127 0 255
4  108 105 106 107  50 0 255
4  21 106 105 14  50 0 255
3  88 80 2  255 0 76
3  80 88 2  0 102 255
3  87 2 27  0 255 102
3  2 87 27  127 255 0
3  86 27 79  255 0 152
3  27 86 79  0 25 255
4  85 79 27 26  255 0 152
4  79 85 26 27  0 25 255
4  84 85 26 25  0 178 255
4  85 84 25 26  0 25 255
5  83 25 26 81 82  203 255 0
5  25 83 82 81 26  127 255 0
4  40 81 26 27  255 0 152
4  81 40 27 26  127 255 0
4  0 40 27 2  0 255 102
4  40 0 2 27  127 255 0
3  80 0 2  255 0 76
3  0 80 2  0 102 255
6  210 158 70 206 207 198  255 0 0
6  158 210 198 207 206 70  0 102 255
10  76 78 74 75 180 178 73 72 71 77  0 255 25
10  78 76 77 71 72 73 178 180 75 74  51 255 0
8  193 7 6 4 5 194 137 89  255 229 0
8  7 193 89 137 194 5 4 6  255 153 0
4  85 26 36 133  255 0 152
3  81 26 36  203 255 0
4  85 133 36 26  0 178 255
7  175 36 81 171 112 172 173  255 0 152
7  36 175 173 172 112 171 81  203 255 0
3  81 36 26  255 0 152
4  93 94 32 33  0 102 255
4  94 93 33 32  51 255 0
6  154 33 32 153 114 165  127 255 0
6  33 154 165 114 153 32  51 255 0
4  158 70 69 92  0 102 255
4  70 158 92 69  255 0 0
9  68 63 62 64 65 35 34 66 67  0 255 178
9  63 68 67 66 34 35 65 64 62  203 255 0
8  22 57 56 58 59 60 61 23  0 255 178
8  57 22 23 61 60 59 58 56  255 153 0
4  49 53 52 48  0 255 25
4  53 49 48 52  255 0 0
4  55 49 48 54  0 255 255
4  49 55 54 48  255 0 0
4  51 49 48 50  0 255 25
4  49 51 50 48  0 255 255
6  47 18 43 44 13 12  0 255 178
6  18 47 12 13 44 43  255 0 229
4  46 12 15 45  204 0 255
4  12 46 45 15  255 76 0
3  42 15 12  0 255 178
3  15 42 12  255 76 0
3  13 42 12  0 255 178
3  42 13 12  255 76 0
4  8 38 37 9  255 229 0
4  38 8 9 37  0 255 102
6  41 8 9 39 40 27  255 0 152
6  8 41 27 40 39 9  0 255 102
5  25 35 34 36 26  203 255 0
5  35 25 26 36 34  0 178 255
4  2 0 32 33  127 255 0
4  0 2 33 32  0 102 255
6  31 25 24 28 29 30  127 255 0
6  25 31 30 29 28 24  0 25 255
4  27 24 25 26  127 255 0
4  24 27 26 25  0 25 255
4  23 14 21 22  0 255 178
4  14 23 22 21  50 0 255
4  20 18 17 19  0 255 178
4  18 20 19 17  127 0 255
4  12 15 14 16  0 255 178
4  15 12 16 14  204 0 255
4  13 11 10 12  255 76 0
4  11 13 12 10  255 0 229
6  9 5 4 6 7 8  255 229 0
6  5 9 8 7 6 4  255 0 152
4  3 1 0 2  0 255 102
4  1 3 2 0  255 0 76

