OFF
182 296 0
815480.560000002384 827456.000000000000 29.707994461060
815480.079999998212 827455.520000010729 29.707994461060
815480.079999998212 827428.800001144409 29.707994461060
815480.560000002384 827428.319999694824 29.707994461060
815480.560000002384 827456.000000000000 26.973999023438
815480.560000002384 827428.319999694824 26.973999023438
815480.079999998212 827428.800001144409 26.973999023438
815480.079999998212 827455.520000010729 26.973999023438
815446.080001831055 827448.880000114441 29.707994461060
815445.680000305176 827428.400001525879 29.707994461060
815446.159999847412 827428.880001068115 29.707994461060
815446.479999542236 827448.880000114441 29.707994461060
815445.680000305176 827428.400001525879 26.973999023438
815446.080001831055 827448.880000114441 26.973999023438
815446.479999542236 827448.880000114441 26.973999023438
815446.159999847412 827428.880001068115 26.973999023438
815449.280000686646 827428.400001525879 29.707994461060
815449.840000152588 827428.880001068115 29.707994461060
815449.280000686646 827428.400001525879 26.973999023438
815449.840000152588 827428.880001068115 26.973999023438
815449.280000686646 827424.720001220703 29.707994461060
815449.840000152588 827425.280000686646 29.707994461060
815449.280000686646 827424.720001220703 26.973999023438
815449.840000152588 827425.280000686646 26.973999023438
815476.880000114441 827424.720001220703 29.707994461060
815476.400000095367 827425.280000686646 29.707994461060
815476.880000114441 827424.720001220703 26.973999023438
815476.400000095367 827425.280000686646 26.973999023438
815476.880000114441 827428.319999694824 29.707994461060
815476.400000095367 827428.800001144409 29.707994461060
815476.880000114441 827428.319999694824 26.973999023438
815476.400000095367 827428.800001144409 26.973999023438
815476.880000114441 827456.000000000000 29.707994461060
815476.480000019073 827455.520000010729 29.707994461060
815476.880000114441 827456.000000000000 26.973999023438
815476.480000019073 827455.520000010729 26.973999023438
815476.800000190735 827459.599999904633 29.707994461060
815476.400000095367 827459.119999885559 29.707994461060
815476.800000190735 827459.599999904633 26.973999023438
815476.400000095367 827459.119999885559 26.973999023438
815454.159999847412 827459.279999971390 29.707994461060
815454.159999847412 827458.799999952316 29.707994461060
815454.159999847412 827459.279999971390 26.973999023438
815454.159999847412 827458.799999952316 26.973999023438
815454.159999847412 827448.880000114441 26.973999023438
815454.159999847412 827448.880000114441 34.795001983643
815446.080001831055 827448.880000114441 34.795001983643
815454.159999847412 827459.279999971390 34.795001983643
815423.280002593994 827483.359998703003 37.617000579834
815423.920001983643 827482.799999237061 37.617000579834
815450.320001602173 827482.799999237061 37.617000579834
815450.880001068115 827483.359998703003 37.617000579834
815423.280002593994 827483.359998703003 34.795001983643
815450.880001068115 827483.359998703003 34.795001983643
815450.320001602173 827482.799999237061 34.795001983643
815423.920001983643 827482.799999237061 34.795001983643
815423.280002593994 827452.160000085831 37.617000579834
815423.280002593994 827448.480000019073 37.617000579834
815423.920001983643 827449.039999961853 37.617000579834
815423.920001983643 827452.720000028610 37.617000579834
815423.280002593994 827448.480000019073 34.795001983643
815423.280002593994 827452.160000085831 34.795001983643
815423.920001983643 827452.720000028610 34.795001983643
815423.920001983643 827449.039999961853 34.795001983643
815446.080001831055 827448.880000114441 37.617000579834
815446.080001831055 827449.440000057220 37.617000579834
815446.080001831055 827449.440000057220 34.795001983643
815454.159999847412 827448.880000114441 37.617000579834
815453.600000381470 827449.440000057220 37.617000579834
815453.600000381470 827449.440000057220 34.795001983643
815454.159999847412 827459.279999971390 37.617000579834
815453.600000381470 827459.279999971390 37.617000579834
815453.600000381470 827459.279999971390 34.795001983643
815454.480001449585 827479.760000228882 37.617000579834
815453.920000076294 827479.199998855591 37.617000579834
815454.480001449585 827479.760000228882 34.795001983643
815453.920000076294 827479.199998855591 34.795001983643
815450.880001068115 827479.760000228882 37.617000579834
815450.320001602173 827479.199998855591 37.617000579834
815450.880001068115 827479.760000228882 34.795001983643
815450.320001602173 827479.199998855591 34.795001983643
815423.280002593994 827479.840000152588 37.617000579834
815423.840000152588 827479.279998779297 37.617000579834
815423.280002593994 827479.840000152588 34.795001983643
815423.840000152588 827479.279998779297 34.795001983643
815419.680000305176 827479.840000152588 37.617000579834
815420.240001678467 827479.279998779297 37.617000579834
815419.680000305176 827479.840000152588 34.795001983643
815420.240001678467 827479.279998779297 34.795001983643
815419.680000305176 827452.160000085831 37.617000579834
815420.240001678467 827452.720000028610 37.617000579834
815419.680000305176 827452.160000085831 34.795001983643
815420.240001678467 827452.720000028610 34.795001983643
815474.320000171661 827433.280000686646 29.707994461060
815474.400000095367 827428.720001220703 29.707994461060
815480.079999998212 827433.280000686646 29.707994461060
815474.320000171661 827433.280000686646 26.973999023438
815480.079999998212 827433.280000686646 26.973999023438
815474.400000095367 827428.720001220703 26.973999023438
815469.840000152588 827427.040000915527 31.518001556396
815473.280000209808 827427.040000915527 31.518001556396
815473.280000209808 827430.000000000000 31.518001556396
815469.760000228882 827430.000000000000 31.518001556396
815469.840000152588 827427.040000915527 26.973999023438
815469.760000228882 827430.000000000000 26.973999023438
815473.280000209808 827427.040000915527 26.973999023438
815473.280000209808 827430.000000000000 26.973999023438
815427.440002441406 827478.959999084473 39.019001007080
815430.479999542236 827478.959999084473 39.019001007080
815430.479999542236 827481.279998779297 39.019001007080
815427.360000610352 827481.279998779297 39.019001007080
815427.440002441406 827478.959999084473 34.795001983643
815427.360000610352 827481.279998779297 34.795001983643
815430.479999542236 827478.959999084473 34.795001983643
815430.479999542236 827481.279998779297 34.795001983643
815425.680000305176 827479.920000076294 37.617000579834
815423.840000152588 827479.920000076294 37.617000579834
815420.240001678467 827475.039999008179 37.617000579834
815425.680000305176 827475.039999008179 37.617000579834
815425.680000305176 827475.039999008179 34.795001983643
815420.240001678467 827475.039999008179 34.795001983643
815425.680000305176 827479.920000076294 34.795001983643
815423.840000152588 827479.920000076294 34.795001983643
815424.000000000000 827449.760000228882 38.687000274658
815426.560001373291 827449.760000228882 38.687000274658
815426.560001373291 827451.280000209808 38.687000274658
815424.000000000000 827451.280000209808 38.687000274658
815424.000000000000 827449.760000228882 34.795001983643
815424.000000000000 827451.280000209808 34.795001983643
815426.560001373291 827449.760000228882 34.795001983643
815426.560001373291 827451.280000209808 34.795001983643
815430.159999847412 827473.279998779297 34.795001983643
815445.040000915527 827473.359998703003 34.795001983643
815445.040000915527 827458.399999856949 34.795001983643
815430.159999847412 827458.319999933243 34.795001983643
815450.880001068115 827479.760000228882 -30.466999053955
815450.880001068115 827483.359998703003 -30.466999053955
815423.280002593994 827483.359998703003 -30.466999053955
815423.280002593994 827479.840000152588 -30.466999053955
815430.159999847412 827473.279998779297 -30.466999053955
815445.040000915527 827473.359998703003 -30.466999053955
815423.280002593994 827452.160000085831 -30.466999053955
815423.280002593994 827448.480000019073 -30.466999053955
815446.080001831055 827448.880000114441 -30.466999053955
815445.040000915527 827458.399999856949 -30.466999053955
815430.159999847412 827458.319999933243 -30.466999053955
815419.680000305176 827479.840000152588 -30.466999053955
815419.680000305176 827452.160000085831 -30.466999053955
815454.159999847412 827459.279999971390 -30.466999053955
815454.480001449585 827479.760000228882 -30.466999053955
815471.360000610352 827449.600000381470 26.973999023438
815471.360000610352 827434.800001144409 26.973999023438
815456.560001373291 827449.600000381470 26.973999023438
815456.640001296997 827434.720001220703 26.973999023438
815476.880000114441 827428.319999694824 -30.466999053955
815480.560000002384 827428.319999694824 -30.466999053955
815480.560000002384 827456.000000000000 -30.466999053955
815476.880000114441 827456.000000000000 -30.466999053955
815471.360000610352 827449.600000381470 -30.466999053955
815471.360000610352 827434.800001144409 -30.466999053955
815476.800000190735 827459.599999904633 -30.466999053955
815456.560001373291 827449.600000381470 -30.466999053955
815449.280000686646 827428.400001525879 -30.466999053955
815449.280000686646 827424.720001220703 -30.466999053955
815476.880000114441 827424.720001220703 -30.466999053955
815456.640001296997 827434.720001220703 -30.466999053955
815445.680000305176 827428.400001525879 -30.466999053955
815451.040000915527 827468.479999542236 34.795001983643
815451.040000915527 827468.479999542236 37.590000152588
815451.200000762939 827452.800000190735 37.590000152588
815451.200000762939 827452.800000190735 34.795001983643
815446.400001525879 827468.479999542236 34.795001983643
815446.400001525879 827468.479999542236 37.590000152588
815446.479999542236 827453.120000123978 34.795001983643
815446.479999542236 827453.120000123978 37.590000152588
815434.720001220703 827453.039999961853 34.795001983643
815434.720001220703 827453.039999961853 37.590000152588
815434.720001220703 827449.280000209808 34.795001983643
815434.720001220703 827449.280000209808 37.590000152588
815453.600000381470 827449.440000057220 37.590000152588
815453.600000381470 827452.880000114441 34.795001983643
815453.600000381470 827452.880000114441 37.590000152588
3 0 1 2
3 0 2 3
3 4 0 3
3 4 3 5
3 6 2 1
3 6 1 7
3 8 9 10
3 8 10 11
3 12 9 8
3 12 8 13
3 14 11 10
3 14 10 15
3 16 17 10
3 16 10 9
3 18 16 9
3 18 9 12
3 15 10 17
3 15 17 19
3 16 20 21
3 16 21 17
3 22 20 16
3 22 16 18
3 19 17 21
3 19 21 23
3 24 25 21
3 24 21 20
3 26 24 20
3 26 20 22
3 23 21 25
3 23 25 27
3 28 29 25
3 28 25 24
3 30 28 24
3 30 24 26
3 27 25 29
3 27 29 31
3 28 3 2
3 28 2 29
3 5 3 28
3 5 28 30
3 31 29 2
3 31 2 6
3 32 33 1
3 32 1 0
3 34 32 0
3 34 0 4
3 7 1 33
3 7 33 35
3 32 36 37
3 32 37 33
3 38 36 32
3 38 32 34
3 35 33 37
3 35 37 39
3 40 41 37
3 40 37 36
3 42 40 36
3 42 36 38
3 39 37 41
3 39 41 43
3 44 45 46
3 44 46 13
3 42 47 45
3 42 45 44
3 48 49 50
3 48 50 51
3 52 48 51
3 52 51 53
3 54 50 49
3 54 49 55
3 56 57 58
3 56 58 59
3 60 57 56
3 60 56 61
3 62 59 58
3 62 58 63
3 64 65 58
3 64 58 57
3 46 64 57
3 46 57 60
3 63 58 65
3 63 65 66
3 64 67 68
3 64 68 65
3 45 67 64
3 45 64 46
3 66 65 68
3 66 68 69
3 70 71 68
3 70 68 67
3 47 70 67
3 47 67 45
3 69 68 71
3 69 71 72
3 70 73 74
3 70 74 71
3 75 73 70
3 75 70 47
3 72 71 74
3 72 74 76
3 77 78 74
3 77 74 73
3 79 77 73
3 79 73 75
3 76 74 78
3 76 78 80
3 77 51 50
3 77 50 78
3 53 51 77
3 53 77 79
3 80 78 50
3 80 50 54
3 81 82 49
3 81 49 48
3 83 81 48
3 83 48 52
3 55 49 82
3 55 82 84
3 81 85 86
3 81 86 82
3 87 85 81
3 87 81 83
3 84 82 86
3 84 86 88
3 89 90 86
3 89 86 85
3 91 89 85
3 91 85 87
3 88 86 90
3 88 90 92
3 56 59 90
3 56 90 89
3 61 56 89
3 61 89 91
3 92 90 59
3 92 59 62
3 93 94 2
3 93 2 95
3 96 93 95
3 96 95 97
3 98 94 93
3 98 93 96
3 6 2 94
3 6 94 98
3 97 95 2
3 97 2 6
3 99 100 101
3 99 101 102
3 103 99 102
3 103 102 104
3 105 100 99
3 105 99 103
3 106 101 100
3 106 100 105
3 104 102 101
3 104 101 106
3 107 108 109
3 107 109 110
3 111 107 110
3 111 110 112
3 113 108 107
3 113 107 111
3 114 109 108
3 114 108 113
3 112 110 109
3 112 109 114
3 115 116 82
3 115 82 86
3 115 86 117
3 115 117 118
3 119 118 117
3 119 117 120
3 121 115 118
3 121 118 119
3 122 116 115
3 122 115 121
3 123 124 125
3 123 125 126
3 127 123 126
3 127 126 128
3 129 124 123
3 129 123 127
3 130 125 124
3 130 124 129
3 128 126 125
3 128 125 130
3 83 131 132
3 83 132 79
3 83 79 53
3 83 53 52
3 46 133 134
3 46 134 61
3 46 61 60
3 91 61 134
3 91 134 131
3 91 131 83
3 91 83 87
3 79 132 133
3 79 133 46
3 79 46 45
3 79 45 47
3 79 47 75
3 53 79 135
3 53 135 136
3 52 53 136
3 52 136 137
3 83 52 137
3 83 137 138
3 132 131 139
3 132 139 140
3 60 61 141
3 60 141 142
3 46 60 142
3 46 142 143
3 134 133 144
3 134 144 145
3 87 83 138
3 87 138 146
3 91 87 146
3 91 146 147
3 61 91 147
3 61 147 141
3 131 134 145
3 131 145 139
3 75 47 148
3 75 148 149
3 79 75 149
3 79 149 135
3 133 132 140
3 133 140 144
3 4 34 150
3 4 150 151
3 4 151 30
3 4 30 5
3 42 152 150
3 42 150 34
3 42 34 38
3 30 151 153
3 30 153 18
3 30 18 22
3 30 22 26
3 153 152 42
3 153 42 44
3 153 44 13
3 153 13 12
3 153 12 18
3 5 30 154
3 5 154 155
3 4 5 155
3 4 155 156
3 34 4 156
3 34 156 157
3 151 150 158
3 151 158 159
3 38 34 157
3 38 157 160
3 42 38 160
3 42 160 148
3 150 152 161
3 150 161 158
3 22 18 162
3 22 162 163
3 26 22 163
3 26 163 164
3 30 26 164
3 30 164 154
3 153 151 159
3 153 159 165
3 12 13 143
3 12 143 166
3 18 12 166
3 18 166 162
3 152 153 165
3 152 165 161
3 167 168 169
3 167 169 170
3 171 172 168
3 171 168 167
3 173 174 172
3 173 172 171
3 175 176 174
3 175 174 173
3 177 178 176
3 177 176 175
3 69 179 178
3 69 178 177
3 180 181 179
3 180 179 69
3 170 169 181
3 170 181 180
3 168 172 174
3 168 174 169
3 179 181 169
3 179 169 174
3 179 174 176
3 179 176 178
