OFF
218 234 0

-19.96 -5.4393 22.698
-19.96 -5.4393 -34.843
-19.96 -5.4393 30.519
-3.84846 4.6465 -34.843
-3.84846 4.6465 25.432
-3.84846 4.6465 22.698
-3.84846 4.6465 30.519
-3.97594 -1.88 30.519
0.760002 -25.24 -34.843
6.52086 -19.4791 -34.843
3.60825 -22.3918 -34.843
6.68088 -19.3191 -34.843
6.68088 -19.3191 22.698
27.96 1.96 22.698
27.96 1.96 -34.843
26.76 0.759999 22.698
21.2843 -4.71571 22.698
21.24 -4.76 22.698
0.760001 -25.24 -34.843
0.760001 -25.24 22.698
0.760002 -25.24 22.698
3.60825 -22.3918 22.698
6.52086 -19.4791 22.698
21.24 -4.76 -34.843
21.2843 -4.71571 -34.843
26.76 0.759999 -34.843
-0.753475 -1.88 33.341
0.760001 -0.369528 30.519
4.00292 2.86696 22.698
5.92693 4.78715 -34.843
4.00292 2.86696 -34.843
0.760001 -0.369528 -34.843
-4.04 -5.16 -34.843
-4.04 -5.16 -34.843
-4.04 -5.16 22.698
-4.04 -5.16 30.519
-4.04 -5.16 33.341
-4.04 -5.16 33.341
0.760001 -0.369528 33.341
4.00292 2.86696 30.519
5.92693 4.78715 22.698
6.55183 -25.24 22.698
3.56375 -25.24 22.698
6.55183 -25.24 -34.843
3.56375 -25.24 -34.843
-23.56 25.8 30.519
-23.56 25.8 33.341
-23.56 29.42 33.341
-23.56 29.42 30.519
-19.96 29.42 33.341
-19.96 25.8 33.341
-23.56 -1.88 30.519
-23.56 -5.50246 30.519
-23.56 -5.50246 33.341
-23.56 -1.88 33.341
0.760001 -5.07579 33.341
0.760001 -1.88 33.341
3.92875 -1.88 33.341
3.87967 -5.02106 33.341
3.92875 -1.88 30.519
0.760001 -1.88 30.519
-23.56 25.8 33.341
-23.56 21 30.519
-23.56 21 33.341
26.76 -25.24 25.432
26.76 -19.21 25.432
30.54 -19.1895 25.432
30.54 -25.24 25.432
26.76 -25.24 22.698
30.54 -25.24 22.698
4.28625 21 25.432
4.0325 4.75989 25.432
4.36125 25.8 25.432
-4.04 -5.16 33.341
-3.97594 -1.88 33.341
-30.54 21 33.341
-30.54 25.8 33.341
-26.84 25.8 33.341
-26.84 21 33.341
-30.54 25.8 30.519
-26.84 25.8 30.519
0.760001 -25.24 -34.843
0.760001 -25.24 22.698
0.760001 4.71281 -34.843
0.760001 -5.07579 -34.843
0.760001 -5.07579 22.698
0.760001 -19.3513 22.698
0.760001 -5.07579 30.519
-26.84 -1.88 33.341
-26.84 -5.56 33.341
-26.84 -1.88 30.519
-19.96 -1.88 30.519
-23.56 21 -34.843
-23.56 4.36288 -34.843
-23.56 4.36288 30.519
0.760001 25.8 -34.843
0.760001 21 -34.843
0.760001 25.8 30.519
0.760001 21 30.519
-3.84846 4.6465 33.341
-3.52906 21 33.341
0.760001 21 33.341
0.760001 4.71281 33.341
0.760001 4.71281 30.519
-26.84 -5.56 30.519
-19.96 -5.4393 33.341
-19.96 -1.88 33.341
-19.96 25.8 30.519
21.24 -25.24 22.698
26.76 -25.24 -34.843
21.24 -25.24 -34.843
6.40559 1.96 22.698
21.24 1.96 22.698
6.40559 1.96 -34.843
21.24 1.96 -34.843
26.76 -19.21 22.698
26.76 -4.61965 22.698
26.76 -19.21 -34.843
26.76 -4.61965 -34.843
-26.84 21 30.519
-26.84 -5.56 22.698
-26.84 4.31568 30.519
-26.84 21 -34.843
-26.84 4.31568 -34.843
-3.52906 21 25.432
-19.96 21 25.432
-19.96 4.41468 25.432
-4.43219 -25.24 -34.843
-4.43219 -25.24 22.698
26.76 1.96 22.698
30.54 1.96 22.698
26.76 1.96 -34.843
30.54 1.96 -34.843
26.76 5.08691 -34.843
26.76 5.08691 22.698
4.28625 21 22.698
4.36125 25.8 22.698
4.0325 4.75989 22.698
30.54 -25.24 -34.843
6.52 -19.32 22.698
6.5743 -29.42 22.698
6.5743 -29.42 -34.843
6.52 -19.32 -34.843
-3.43531 25.8 30.519
-3.43531 25.8 -34.843
-19.96 25.8 -34.843
4.0325 4.75989 30.519
0.760001 29.42 30.519
0.760001 29.42 -34.843
-30.54 25.8 -34.843
-26.84 25.8 -34.843
26.76 -29.42 -34.843
26.76 -29.42 22.698
21.24 -1.88 22.698
6.42624 -1.88 22.698
6.42624 -1.88 -34.843
21.24 -1.88 -34.843
-26.84 29.42 -34.843
-26.84 29.42 30.519
21.24 -29.42 22.698
21.24 -19.24 22.698
30.54 -19.1895 22.698
0.760001 -29.42 -34.843
0.760001 -29.42 22.698
0.760001 -19.3513 -34.843
3.49843 -29.42 22.698
-4.31771 -19.3789 22.698
3.656 -19.3356 22.698
-19.96 21 30.519
-30.54 21 30.519
-19.96 29.42 30.519
21.24 -4.71649 22.698
21.24 5.00748 22.698
30.54 -4.55333 22.698
4.36125 25.8 -34.843
4.36125 25.8 30.519
-3.52906 21 30.519
-3.36461 29.42 30.519
4.28625 21 30.519
3.656 -19.3356 -34.843
-4.31771 -19.3789 -34.843
6.44288 -4.97609 22.698
-19.96 4.41468 30.519
6.39036 4.79382 22.698
-30.54 4.26245 30.519
6.44288 -4.97609 -34.843
6.39036 4.79382 -34.843
-3.97594 -1.88 -34.843
-19.96 -1.88 -34.843
-3.52906 21 22.698
-19.96 21 22.698
-26.84 -1.88 -34.843
-19.96 4.41468 22.698
-30.54 -1.88 -34.843
-30.54 -1.88 30.519
3.87967 -5.02106 22.698
-19.96 4.41468 -34.843
21.24 -19.24 -34.843
30.54 -19.1895 -34.843
-19.96 29.42 -34.843
-19.96 21 -34.843
-4.04 -5.16 30.519
21.24 -4.71649 -34.843
21.24 5.00748 -34.843
-4.04 -5.16 22.698
4.28625 21 -34.843
-3.52906 21 -34.843
3.87967 -5.02106 -34.843
3.87967 -5.02106 30.519
-4.04 -5.16 -34.843
4.0325 4.75989 -34.843
21.24 -29.42 -34.843
-26.84 -5.56 -34.843
-3.36461 29.42 -34.843
3.49843 -29.42 -34.843
-30.54 21 -34.843
-30.54 4.26245 -34.843
30.54 -4.55333 -34.843
4  217 198 161 173  255 0 0
5  217 132 14 25 118  255 0 0
4  217 173 130 132  255 0 0
4  217 118 117 198  255 0 0
4  216 193 191 123  255 218 0
4  216 215 169 184  255 218 0
4  216 184 194 193  255 218 0
4  216 123 122 215  255 218 0
4  213 199 145 144  72 255 0
4  213 148 147 177  0 255 145
4  3 83 96 206  0 255 145
4  3 196 188 187  0 145 255
4  213 177 170 199  72 255 0
4  213 144 95 148  0 255 145
4  3 5 192 196  0 145 255
4  3 206 189 5  0 255 145
4  209 33 34 204  72 0 255
4  209 84 31 32  72 0 255
6  209 180 164 179 207 84  255 0 218
4  209 204 166 180  255 0 218
7  207 185 155 113 186 29 30  72 0 255
4  214 162 163 165  255 0 0
4  214 141 43 44  255 0 0
5  214 44 8 18 162  255 0 0
4  207 179 142 185  255 0 218
4  214 165 140 141  255 0 0
4  208 195 85 87  72 0 255
4  202 185 181 171  72 0 255
8  202 24 25 131 133 203 114 156  72 0 255
4  211 141 140 159  255 0 0
4  211 151 109 110  255 0 0
4  211 110 43 141  255 0 0
3  202 23 24  255 0 0
4  211 159 152 151  255 0 0
4  202 171 17 23  255 0 0
4  210 29 40 137  0 255 145
4  210 83 31 30  0 255 145
4  210 205 96 83  0 255 145
4  210 137 135 205  0 255 145
4  206 144 145 200  72 255 0
4  215 149 79 169  255 218 0
4  215 122 150 149  255 218 0
4  206 200 190 189  72 255 0
7  196 93 123 191 212 1 188  255 218 0
4  200 92 93 196  255 218 0
4  196 192 190 200  255 218 0
4  179 10 9 142  255 0 218
4  197 23 17 160  255 0 0
4  197 110 109 117  255 0 0
5  197 11 9 43 110  255 0 0
4  197 160 12 11  255 0 0
3  209 32 33  72 0 255
5  3 187 32 31 83  0 255 145
3  210 30 29  0 255 145
4  207 30 31 84  72 0 255
4  208 58 57 59  72 0 255
5  146 71 137 28 39  0 255 145
5  208 59 39 28 195  72 0 255
4  195 181 139 167  255 0 218
7  199 157 150 122 92 200 145  255 218 0
5  199 170 48 158 157  255 218 0
4  201 204 34 35  72 0 255
4  201 73 55 87  72 0 255
4  208 87 55 58  72 0 255
4  201 87 85 204  72 0 255
4  180 127 81 164  255 0 218
5  179 164 81 8 10  255 0 218
4  180 166 128 127  255 0 218
4  205 174 95 96  0 255 145
4  206 96 95 144  0 255 145
4  205 135 136 174  0 255 145
4  203 133 134 172  72 0 255
4  203 186 113 114  72 0 255
4  203 172 183 186  72 0 255
4  202 156 155 185  72 0 255
4  142 11 12 139  255 0 218
4  181 185 142 139  255 0 218
4  1 212 120 0  255 218 0
5  1 33 32 187 188  0 145 255
4  1 0 34 33  0 145 255
4  137 71 70 135  0 255 145
7  181 195 28 40 183 111 154  72 0 255
4  171 181 154 153  72 0 255
4  172 112 111 183  72 0 255
3  137 40 28  0 255 145
4  182 126 4 6  0 145 255
5  2 0 120 104 52  255 218 0
4  2 105 36 35  0 145 255
4  2 91 106 105  0 145 255
4  2 52 51 91  255 218 0
6  182 91 51 90 121 94  255 218 0
4  184 121 90 194  255 218 0
4  169 75 78 119  255 218 0
4  168 125 126 182  255 218 0
4  184 169 119 121  255 218 0
4  182 94 62 168  255 218 0
4  176 124 125 168  72 255 0
4  176 100 99 6  0 255 145
4  170 49 47 48  255 218 0
4  170 107 50 49  255 218 0
4  176 168 107 143  72 255 0
4  177 143 107 170  72 255 0
4  167 86 85 195  255 0 218
4  204 85 86 166  255 0 218
4  6 99 74 7  0 255 145
4  6 4 124 176  0 255 145
4  2 35 34 0  0 145 255
4  201 35 36 73  72 0 255
4  6 7 91 182  0 145 255
4  198 138 69 161  255 0 0
4  198 117 109 138  255 0 0
5  197 117 118 24 23  255 0 0
4  178 70 71 146  0 255 145
4  176 98 101 100  0 255 145
4  146 103 98 178  0 255 145
4  190 125 124 189  72 255 0
4  5 4 126 192  0 145 255
4  189 124 4 5  0 255 145
4  192 126 125 190  255 218 0
4  183 40 29 186  72 0 255
5  160 108 41 22 12  255 0 0
3  139 12 22  255 0 218
4  167 139 22 21  255 0 218
4  165 42 41 140  255 0 0
4  159 140 41 108  255 0 0
4  178 175 72 70  0 255 145
4  178 98 97 175  0 255 145
4  177 147 97 143  0 255 145
4  176 143 97 98  0 255 145
6  175 97 95 174 136 72  0 255 145
5  173 116 15 13 130  255 0 0
8  172 134 129 15 16 171 153 112  72 0 255
4  169 79 76 75  255 218 0
4  168 62 45 107  255 218 0
5  167 21 20 82 86  255 0 218
4  166 86 82 128  255 0 218
5  165 163 19 20 42  255 0 0
4  163 162 18 19  255 0 0
4  161 66 65 115  255 0 0
4  161 69 67 66  255 0 0
4  160 115 68 108  255 0 0
4  159 108 68 152  255 0 0
4  158 48 45 80  255 218 0
4  119 62 94 121  255 218 0
4  158 80 150 157  255 218 0
4  154 111 112 153  72 0 255
4  156 114 113 155  72 0 255
4  152 68 109 151  255 0 0
4  79 149 150 80  255 218 0
4  97 147 148 95  0 255 145
4  146 39 27 103  0 255 145
3  142 9 11  255 0 218
4  68 69 138 109  255 0 0
4  135 70 72 136  0 255 145
3  116 16 15  255 0 0
3  118 25 24  255 0 0
4  134 133 131 129  72 0 255
3  131 25 14  72 0 255
3  129 13 15  72 0 255
4  129 131 14 13  72 0 255
4  130 13 14 132  255 0 0
5  115 160 17 16 116  255 0 0
4  161 115 116 173  255 0 0
3  171 16 17  255 0 0
3  81 18 8  255 0 218
4  82 19 18 81  255 0 218
4  128 82 81 127  255 0 218
4  123 93 92 122  255 218 0
5  212 191 90 104 120  255 218 0
4  90 191 193 194  255 218 0
4  43 9 10 44  255 0 0
4  103 27 38 102  0 255 145
4  68 115 65 64  255 0 0
4  91 7 74 106  0 145 255
4  119 78 63 62  255 218 0
4  80 45 61 77  255 218 0
4  107 45 46 50  255 218 0
3  73 36 37  72 0 255
5  74 37 36 105 106  0 145 255
4  60 27 39 59  72 0 255
4  60 56 38 27  72 0 255
3  56 26 38  72 0 255
5  102 38 26 74 99  0 255 145
4  104 89 53 52  255 218 0
4  104 90 88 89  255 218 0
4  103 102 101 98  0 255 145
4  102 99 100 101  0 255 145
4  90 51 54 88  255 218 0
4  89 88 54 53  255 218 0
4  78 77 61 63  255 218 0
3  44 10 8  255 0 0
4  42 21 22 41  255 0 0
3  42 20 21  255 0 0
3  82 20 19  255 0 218
4  80 77 76 79  255 218 0
4  78 75 76 77  255 218 0
5  55 73 37 26 56  72 0 255
3  74 26 37  0 255 145
4  69 68 64 67  255 0 0
4  67 64 65 66  255 0 0
4  63 61 45 62  255 218 0
4  56 60 59 57  72 0 255
4  58 55 56 57  72 0 255
4  54 51 52 53  255 218 0
4  50 46 47 49  255 218 0
4  48 47 46 45  255 218 0
3  40 29 28  0 255 145
3  29 40 28  72 0 255
3  39 28 27  0 255 145
3  28 39 27  72 0 255
3  38 27 26  0 255 145
3  27 38 26  72 0 255
8  37 26 27 28 29 30 31 32  0 255 145
8  26 37 32 31 30 29 28 27  72 0 255
6  36 37 32 33 34 35  0 145 255
6  37 36 35 34 33 32  72 0 255
6  15 16 24 25 14 13  255 0 0
6  16 15 13 14 25 24  72 0 255
10  19 18 8 10 9 11 12 22 21 20  255 0 0
10  18 19 20 21 22 12 11 9 10 8  255 0 218
8  143 176 124 189 206 144 213 177  0 255 145
8  176 143 177 213 144 206 189 124  72 255 0
4  37 32 7 74  0 255 145
4  32 37 74 7  0 145 255
7  6 7 32 187 3 5 4  0 255 145
7  7 6 4 5 3 187 32  0 145 255
8  181 185 207 84 209 204 85 195  72 0 255
8  185 181 195 85 204 209 84 207  255 0 218
4  16 24 202 171  72 0 255
4  24 16 171 202  255 0 0
9  192 196 188 1 0 2 91 182 126  255 218 0
9  196 192 126 182 91 2 0 1 188  0 145 255
8  170 199 145 200 190 125 168 107  255 218 0
8  199 170 107 168 125 190 200 145  72 255 0

