COFF
239 296 0

30.44 1.96 25.432
29.96 1.48 25.432
29.96 -25.24 25.432
30.44 -25.72 25.432
30.44 1.96 22.698
30.44 -25.72 22.698
29.96 -25.24 22.698
29.96 1.48 22.698
-4.04 -5.16 25.432
-4.44 -25.64 25.432
-3.96 -25.16 25.432
-3.64 -5.16 25.432
-4.44 -25.64 22.698
-4.04 -5.16 22.698
-3.64 -5.16 22.698
-3.96 -25.16 22.698
-0.839999 -25.64 25.432
-0.28 -25.16 25.432
-0.839999 -25.64 22.698
-0.28 -25.16 22.698
-0.839999 -29.32 25.432
-0.28 -28.76 25.432
-0.839999 -29.32 22.698
-0.28 -28.76 22.698
26.76 -29.32 25.432
26.28 -28.76 25.432
26.76 -29.32 22.698
26.28 -28.76 22.698
26.76 -25.72 25.432
26.28 -25.24 25.432
26.76 -25.72 22.698
26.28 -25.24 22.698
26.76 1.96 25.432
26.36 1.48 25.432
26.76 1.96 22.698
26.36 1.48 22.698
26.68 5.56 25.432
26.28 5.08 25.432
26.68 5.56 22.698
26.28 5.08 22.698
4.04 5.24 25.432
4.04 4.76 25.432
4.04 5.24 22.698
4.04 4.76 22.698
4.04 -5.16 22.698
4.04 -5.16 30.519
-4.04 -5.16 30.519
4.04 5.24 30.519
-26.84 29.32 33.341
-26.2 28.76 33.341
0.200001 28.76 33.341
0.760001 29.32 33.341
-26.84 29.32 30.519
0.760001 29.32 30.519
0.200001 28.76 30.519
-26.2 28.76 30.519
-26.84 -1.88 33.341
-26.84 -5.56 33.341
-26.2 -5 33.341
-26.2 -1.32 33.341
-26.84 -5.56 30.519
-26.84 -1.88 30.519
-26.2 -1.32 30.519
-26.2 -5 30.519
-4.04 -5.16 33.341
-4.04 -4.6 33.341
-4.04 -4.6 30.519
4.04 -5.16 33.341
3.48 -4.6 33.341
3.48 -4.6 30.519
4.04 5.24 33.341
3.48 5.24 33.341
3.48 5.24 30.519
4.36 25.72 33.341
3.8 25.16 33.341
4.36 25.72 30.519
3.8 25.16 30.519
0.760001 25.72 33.341
0.200001 25.16 33.341
0.760001 25.72 30.519
0.200001 25.16 30.519
-26.84 25.8 33.341
-26.28 25.24 33.341
-26.84 25.8 30.519
-26.28 25.24 30.519
-30.44 25.8 33.341
-29.88 25.24 33.341
-30.44 25.8 30.519
-29.88 25.24 30.519
-30.44 -1.88 33.341
-29.88 -1.32 33.341
-30.44 -1.88 30.519
-29.88 -1.32 30.519
24.2 -20.76 25.432
24.28 -25.32 25.432
29.96 -20.76 25.432
24.2 -20.76 22.698
29.96 -20.76 22.698
24.28 -25.32 22.698
19.72 -27 27.242
23.16 -27 27.242
23.16 -24.04 27.242
19.64 -24.04 27.242
19.72 -27 22.698
19.64 -24.04 22.698
23.16 -27 22.698
23.16 -24.04 22.698
-22.68 24.92 34.743
-19.64 24.92 34.743
-19.64 27.24 34.743
-22.76 27.24 34.743
-22.68 24.92 30.519
-22.76 27.24 30.519
-19.64 24.92 30.519
-19.64 27.24 30.519
-24.44 25.88 33.341
-26.28 25.88 33.341
-29.88 21 33.341
-24.44 21 33.341
-24.44 21 30.519
-29.88 21 30.519
-24.44 25.88 30.519
-26.28 25.88 30.519
-26.12 -4.28 34.411
-23.56 -4.28 34.411
-23.56 -2.76 34.411
-26.12 -2.76 34.411
-26.12 -4.28 30.519
-26.12 -2.76 30.519
-23.56 -4.28 30.519
-23.56 -2.76 30.519
-19.96 19.24 30.519
-5.08 19.32 30.519
-5.08 4.36 30.519
-19.96 4.28 30.519
0.760001 25.72 -34.743
0.760001 29.32 -34.743
-26.84 29.32 -34.743
-26.84 25.8 -34.743
-19.96 19.24 -34.743
-5.08 19.32 -34.743
-26.84 -1.88 -34.743
-26.84 -5.56 -34.743
-4.04 -5.16 -34.743
-5.08 4.36 -34.743
-19.96 4.28 -34.743
-30.44 25.8 -34.743
-30.44 -1.88 -34.743
4.04 5.24 -34.743
4.36 25.72 -34.743
21.24 -4.44 22.698
21.24 -19.24 22.698
6.44 -4.44 22.698
6.52 -19.32 22.698
26.76 -25.72 -34.743
30.44 -25.72 -34.743
30.44 1.96 -34.743
26.76 1.96 -34.743
21.24 -4.44 -34.743
21.24 -19.24 -34.743
26.68 5.56 -34.743
6.44 -4.44 -34.743
-0.839999 -25.64 -34.743
-0.839999 -29.32 -34.743
26.76 -29.32 -34.743
6.52 -19.32 -34.743
-4.44 -25.64 -34.743
0.920001 14.44 30.519
0.920001 14.44 33.314
1.08 -1.24 33.314
1.08 -1.24 30.519
-3.72 14.44 30.519
-3.72 14.44 33.314
-3.64 -0.92 30.519
-3.64 -0.92 33.314
-15.4 -1 30.519
-15.4 -1 33.314
-15.4 -4.76 30.519
-15.4 -4.76 33.314
3.48 -4.6 33.314
3.48 -1.16 30.519
3.48 -1.16 33.314
29.96 -25.24 25.432
30.44 1.96 22.698
30.44 1.96 22.698
30.44 -25.72 22.698
30.44 -25.72 22.698
29.96 -25.24 22.698
29.96 -25.24 22.698
29.96 -25.24 22.698
-4.44 -25.64 22.698
-4.44 -25.64 22.698
-4.04 -5.16 22.698
-4.04 -5.16 22.698
-0.839999 -25.64 22.698
-0.839999 -25.64 22.698
-0.839999 -29.32 22.698
-0.839999 -29.32 22.698
26.76 -29.32 22.698
26.76 -29.32 22.698
26.76 -25.72 22.698
26.76 -25.72 22.698
26.76 1.96 22.698
26.76 1.96 22.698
26.68 5.56 22.698
26.68 5.56 22.698
4.04 5.24 22.698
4.04 5.24 22.698
4.04 -5.16 30.519
4.04 -5.16 30.519
-4.04 -5.16 30.519
-4.04 -5.16 30.519
-4.04 -5.16 30.519
4.04 5.24 30.519
4.04 5.24 30.519
4.04 5.24 30.519
-26.84 29.32 30.519
-26.84 29.32 30.519
0.760001 29.32 30.519
0.760001 29.32 30.519
-26.84 -5.56 30.519
-26.84 -5.56 30.519
-26.84 -1.88 30.519
-26.84 -1.88 30.519
3.48 -4.6 30.519
4.36 25.72 30.519
4.36 25.72 30.519
0.760001 25.72 30.519
0.760001 25.72 30.519
-26.28 25.24 33.341
-26.84 25.8 30.519
-26.84 25.8 30.519
-29.88 25.24 33.341
-30.44 25.8 30.519
-30.44 25.8 30.519
-30.44 -1.88 30.519
-30.44 -1.88 30.519
-4.04 -5.16 -34.743
4.04 5.24 -34.743
3  0 1 2  0 192 192
3  0 2 3  0 192 192
3  4 0 3  128 255 128
3  4 3 5  128 255 128
3  6 2 1  128 255 128
3  6 1 7  128 255 128
3  8 9 10  0 192 192
3  8 10 11  0 192 192
3  12 9 8  0 255 255
3  12 8 13  0 255 255
3  14 11 10  0 255 255
3  14 10 15  0 255 255
3  16 17 10  0 192 192
3  16 10 9  0 192 192
3  18 16 9  64 64 255
3  18 9 12  64 64 255
3  15 10 17  64 64 255
3  15 17 19  64 64 255
3  16 20 21  0 192 192
3  16 21 17  0 192 192
3  22 20 16  0 0 192
3  22 16 18  0 0 192
3  19 17 21  255 64 64
3  19 21 23  255 64 64
3  24 25 21  0 192 192
3  24 21 20  0 192 192
3  26 24 20  255 128 255
3  26 20 22  255 128 255
3  23 21 25  255 128 255
3  23 25 27  255 128 255
3  28 29 25  0 192 192
3  28 25 24  0 192 192
3  30 28 24  192 192 0
3  30 24 26  192 192 0
3  27 25 29  192 192 0
3  27 29 31  192 192 0
3  28 3 2  0 192 192
3  28 2 29  0 192 192
3  5 3 28  64 64 255
3  5 28 30  64 64 255
3  31 29 2  128 0 255
3  31 2 187  128 0 255
3  32 33 1  0 192 192
3  32 1 0  0 192 192
3  34 32 0  192 0 192
3  34 0 4  192 0 192
3  7 1 33  192 0 192
3  7 33 35  192 0 192
3  32 36 37  0 192 192
3  32 37 33  0 192 192
3  38 36 32  192 192 0
3  38 32 34  192 192 0
3  35 33 37  192 192 0
3  35 37 39  192 192 0
3  40 41 37  0 192 192
3  40 37 36  0 192 192
3  42 40 36  0 0 255
3  42 36 38  0 0 255
3  39 37 41  0 0 255
3  39 41 43  0 0 255
3  44 45 46  255 128 128
3  44 46 192  255 128 128
3  206 47 45  255 128 0
3  206 45 44  255 128 0
3  48 49 50  255 0 0
3  48 50 51  255 0 0
3  52 48 51  128 128 255
3  52 51 53  128 128 255
3  54 50 49  128 128 255
3  54 49 55  128 128 255
3  56 57 58  255 0 0
3  56 58 59  255 0 0
3  60 57 56  128 255 255
3  60 56 61  128 255 255
3  62 59 58  128 255 255
3  62 58 63  128 255 255
3  64 65 58  255 0 0
3  64 58 57  255 0 0
3  210 64 57  255 128 128
3  210 57 60  255 128 128
3  63 58 65  255 128 128
3  63 65 66  255 128 128
3  64 67 68  255 0 0
3  64 68 65  255 0 0
3  208 67 64  255 128 128
3  208 64 210  255 128 128
3  66 65 68  255 128 128
3  66 68 69  255 128 128
3  70 71 68  255 0 0
3  70 68 67  255 0 0
3  213 70 67  255 128 0
3  213 67 208  255 128 0
3  69 68 71  255 128 0
3  69 71 72  255 128 0
3  70 73 74  255 0 0
3  70 74 71  255 0 0
3  75 73 70  255 128 0
3  75 70 213  255 128 0
3  72 71 74  255 128 0
3  72 74 76  255 128 0
3  77 78 74  255 0 0
3  77 74 73  255 0 0
3  79 77 73  64 255 64
3  79 73 75  64 255 64
3  76 74 78  64 255 64
3  76 78 80  64 255 64
3  77 51 50  255 0 0
3  77 50 78  255 0 0
3  53 51 77  255 64 64
3  53 77 79  255 64 64
3  80 78 50  255 64 64
3  80 50 54  255 64 64
3  81 82 49  255 0 0
3  81 49 48  255 0 0
3  83 81 48  128 255 255
3  83 48 52  128 255 255
3  55 49 82  128 255 255
3  55 82 84  128 255 255
3  81 85 86  255 0 0
3  81 86 82  255 0 0
3  87 85 81  64 255 64
3  87 81 83  64 255 64
3  84 82 86  64 255 64
3  84 86 88  64 255 64
3  89 90 86  255 0 0
3  89 86 85  255 0 0
3  91 89 85  255 255 128
3  91 85 87  255 255 128
3  88 86 90  255 255 128
3  88 90 92  255 255 128
3  56 59 90  255 0 0
3  56 90 89  255 0 0
3  61 56 89  192 0 0
3  61 89 91  192 0 0
3  92 90 59  192 0 0
3  92 59 62  192 0 0
3  93 94 182  0 192 192
3  93 182 95  0 192 192
3  96 93 95  128 128 0
3  96 95 97  128 128 0
3  98 94 93  100 100 100
3  98 93 96  100 100 100
3  188 182 94  64 64 255
3  188 94 98  64 64 255
3  97 95 182  128 255 128
3  97 182 189  128 255 128
3  99 100 101  0 192 192
3  99 101 102  0 192 192
3  103 99 102  100 100 100
3  103 102 104  100 100 100
3  105 100 99  64 64 255
3  105 99 103  64 64 255
3  106 101 100  64 255 255
3  106 100 105  64 255 255
3  104 102 101  128 0 255
3  104 101 106  128 0 255
3  107 108 109  255 0 0
3  107 109 110  255 0 0
3  111 107 110  128 0 128
3  111 110 112  128 0 128
3  113 108 107  64 255 64
3  113 107 111  64 255 64
3  114 109 108  255 64 255
3  114 108 113  255 64 255
3  112 110 109  0 192 0
3  112 109 114  0 192 0
3  115 116 229  255 0 0
3  115 229 232  255 0 0
3  115 232 117  255 0 0
3  115 117 118  255 0 0
3  119 118 117  255 255 0
3  119 117 120  255 255 0
3  121 115 118  128 0 128
3  121 118 119  128 0 128
3  122 116 115  0 192 0
3  122 115 121  0 192 0
3  123 124 125  255 0 0
3  123 125 126  255 0 0
3  127 123 126  128 255 255
3  127 126 128  128 255 255
3  129 124 123  255 128 128
3  129 123 127  255 128 128
3  130 125 124  128 0 128
3  130 124 129  128 0 128
3  128 126 125  192 0 0
3  128 125 130  192 0 0
3  230 131 132  255 0 255
3  230 132 227  255 0 255
3  230 227 218  255 0 255
3  230 218 216  255 0 255
3  211 133 134  255 0 255
3  211 134 222  255 0 255
3  211 222 220  255 0 255
3  235 222 134  255 0 255
3  235 134 131  255 0 255
3  235 131 230  255 0 255
3  235 230 233  255 0 255
3  227 132 133  255 0 255
3  227 133 211  255 0 255
3  227 211 209  255 0 255
3  227 209 214  255 0 255
3  227 214 225  255 0 255
3  219 228 135  0 0 192
3  219 135 136  0 0 192
3  217 219 136  128 128 255
3  217 136 137  128 128 255
3  231 217 137  128 255 255
3  231 137 138  128 255 255
3  132 131 139  255 255 0
3  132 139 140  255 255 0
3  221 223 141  128 255 255
3  221 141 142  128 255 255
3  212 221 142  255 128 128
3  212 142 143  255 128 128
3  134 133 144  0 0 255
3  134 144 145  0 0 255
3  234 231 138  0 192 0
3  234 138 146  0 192 0
3  236 234 146  255 255 128
3  236 146 147  255 255 128
3  223 236 147  192 0 0
3  223 147 141  192 0 0
3  131 134 145  255 64 255
3  131 145 139  255 64 255
3  226 215 148  255 128 0
3  226 148 149  255 128 0
3  228 226 149  0 192 0
3  228 149 135  0 192 0
3  133 132 140  0 255 255
3  133 140 144  0 255 255
3  183 202 150  0 255 0
3  183 150 151  0 255 0
3  183 151 200  0 255 0
3  183 200 185  0 255 0
3  206 152 150  0 255 0
3  206 150 202  0 255 0
3  206 202 204  0 255 0
3  200 151 153  0 255 0
3  200 153 194  0 255 0
3  200 194 196  0 255 0
3  200 196 198  0 255 0
3  153 152 206  0 255 0
3  153 206 44  0 255 0
3  153 44 192  0 255 0
3  153 192 190  0 255 0
3  153 190 194  0 255 0
3  186 201 154  128 0 255
3  186 154 155  128 0 255
3  184 186 155  128 255 128
3  184 155 156  128 255 128
3  203 184 156  192 0 192
3  203 156 157  192 0 192
3  151 150 158  64 255 255
3  151 158 159  64 255 255
3  205 203 157  192 192 0
3  205 157 160  192 192 0
3  207 205 160  0 0 255
3  207 160 238  0 0 255
3  150 152 161  255 128 128
3  150 161 158  255 128 128
3  197 195 162  0 0 192
3  197 162 163  0 0 192
3  199 197 163  255 128 255
3  199 163 164  255 128 255
3  201 199 164  192 192 0
3  201 164 154  192 192 0
3  153 151 159  128 128 0
3  153 159 165  128 128 0
3  191 193 237  0 255 255
3  191 237 166  0 255 255
3  195 191 166  128 0 255
3  195 166 162  128 0 255
3  152 153 165  255 255 64
3  152 165 161  255 255 64
3  167 168 169  255 64 64
3  167 169 170  255 64 64
3  171 172 168  100 100 100
3  171 168 167  100 100 100
3  173 174 172  0 255 255
3  173 172 171  0 255 255
3  175 176 174  192 0 0
3  175 174 173  192 0 0
3  177 178 176  100 100 100
3  177 176 175  100 100 100
3  224 179 178  255 128 128
3  224 178 177  255 128 128
3  180 181 179  255 128 0
3  180 179 224  255 128 0
3  170 169 181  192 0 0
3  170 181 180  192 0 0
3  168 172 174  255 0 0
3  168 174 169  255 0 0
3  179 181 169  255 0 0
3  179 169 174  255 0 0
3  179 174 176  255 0 0
3  179 176 178  255 0 0

