OFF
219 274 0

-23.56 25.8 30.519
-26.84 25.8 30.519
-23.56 21 30.519
-26.84 21 30.519
-23.56 -1.88 30.519
-26.84 -1.88 30.519
-23.56 -5.50246 30.519
-26.84 -5.56 30.519
-23.56 29.42 30.519
-19.96 29.42 30.519
-19.96 25.8 30.519
0.760001 -1.88 30.519
-4.04 -5.16 30.519
-4.04 -5.16 30.519
0.760001 -0.369528 30.519
3.92875 -1.88 30.519
3.87967 -5.02106 30.519
0.760001 -5.07579 30.519
-4.04 -5.16 30.519
3.87967 -5.02106 -34.843
4.00292 2.86696 -34.843
3.87967 -5.02106 22.698
4.00292 2.86696 22.698
-19.96 -1.88 30.519
-19.96 -5.4393 30.519
-3.97594 -1.88 30.519
0.760001 25.8 -34.843
0.760001 25.8 30.519
0.760001 21 -34.843
0.760001 4.71281 -34.843
0.760001 -0.369528 -34.843
0.760001 4.71281 30.519
0.760001 21 30.519
-26.84 25.8 -34.843
-26.84 -1.88 -34.843
-26.84 4.31568 -34.843
-26.84 21 -34.843
-26.84 25.8 33.341
-26.84 21 33.341
-26.84 4.31568 30.519
26.76 -19.21 -34.843
26.76 -19.21 22.698
26.76 -25.24 -34.843
26.76 -25.24 22.698
21.24 -19.24 -34.843
21.24 -19.24 22.698
30.54 -19.1895 -34.843
30.54 -19.1895 22.698
-19.96 25.8 -34.843
-19.96 29.42 -34.843
-19.96 21 -34.843
-19.96 21 22.698
-19.96 21 25.432
-19.96 21 30.519
-19.96 -1.88 -34.843
-19.96 4.41468 -34.843
-19.96 -5.4393 -34.843
-19.96 -5.4393 22.698
-19.96 4.41468 30.519
-19.96 4.41468 25.432
-19.96 4.41468 22.698
21.24 -4.71649 -34.843
21.2843 -4.71571 -34.843
21.24 -4.71649 22.698
21.2843 -4.71571 22.698
6.44288 -4.97609 -34.843
0.760001 -5.07579 -34.843
-4.04 -5.16 -34.843
-4.04 -5.16 22.698
0.760001 -5.07579 22.698
6.44288 -4.97609 22.698
-4.04 -5.16 -34.843
-3.97594 -1.88 -34.843
-3.84846 4.6465 -34.843
-3.84846 4.6465 22.698
-3.84846 4.6465 25.432
-3.84846 4.6465 30.519
-3.97594 -1.88 33.341
-4.04 -5.16 33.341
-3.52906 21 25.432
-3.52906 21 30.519
-3.52906 21 22.698
-3.52906 21 -34.843
-3.43531 25.8 -34.843
-3.36461 29.42 -34.843
-3.36461 29.42 30.519
-3.43531 25.8 30.519
0.760002 -25.24 -34.843
0.760001 -25.24 -34.843
3.60825 -22.3918 -34.843
6.52086 -19.4791 -34.843
6.68088 -19.3191 -34.843
6.68088 -19.3191 22.698
6.52086 -19.4791 22.698
3.60825 -22.3918 22.698
0.760002 -25.24 22.698
0.760001 -25.24 22.698
26.76 0.759999 -34.843
27.96 1.96 -34.843
27.96 1.96 22.698
26.76 0.759999 22.698
21.24 -4.76 22.698
21.24 -4.76 -34.843
-0.753475 -1.88 33.341
5.92693 4.78715 -34.843
-4.04 -5.16 -34.843
-4.04 -5.16 22.698
-4.04 -5.16 33.341
0.760001 -0.369528 33.341
4.00292 2.86696 30.519
5.92693 4.78715 22.698
6.55183 -25.24 22.698
3.56375 -25.24 22.698
6.55183 -25.24 -34.843
3.56375 -25.24 -34.843
-23.56 25.8 33.341
-23.56 29.42 33.341
-19.96 29.42 33.341
-19.96 25.8 33.341
-23.56 -5.50246 33.341
-23.56 -1.88 33.341
0.760001 -5.07579 33.341
0.760001 -1.88 33.341
3.92875 -1.88 33.341
3.87967 -5.02106 33.341
-23.56 25.8 33.341
-23.56 21 33.341
26.76 -25.24 25.432
26.76 -19.21 25.432
30.54 -19.1895 25.432
30.54 -25.24 25.432
30.54 -25.24 22.698
4.28625 21 25.432
4.0325 4.75989 25.432
4.36125 25.8 25.432
4.36125 25.8 30.519
4.36125 25.8 -34.843
-4.04 -5.16 33.341
-3.84846 4.6465 33.341
0.760001 4.71281 33.341
-19.96 -5.4393 33.341
-19.96 -1.88 33.341
-30.54 21 30.519
-4.31771 -19.3789 -34.843
-30.54 -1.88 30.519
-30.54 -1.88 -34.843
-26.84 -5.56 -34.843
-4.43219 -25.24 -34.843
0.760001 -25.24 -34.843
0.760001 -25.24 22.698
-4.43219 -25.24 22.698
26.76 -4.61965 22.698
30.54 -4.55333 22.698
26.76 1.96 -34.843
30.54 1.96 -34.843
30.54 1.96 22.698
26.76 1.96 22.698
26.76 5.08691 -34.843
26.76 5.08691 22.698
26.76 -4.61965 -34.843
4.28625 21 22.698
4.36125 25.8 22.698
4.0325 4.75989 22.698
30.54 -25.24 -34.843
6.52 -19.32 22.698
6.5743 -29.42 22.698
6.5743 -29.42 -34.843
6.52 -19.32 -34.843
4.0325 4.75989 30.519
0.760001 29.42 30.519
0.760001 29.42 -34.843
3.49843 -29.42 22.698
-4.31771 -19.3789 22.698
3.656 -19.3356 22.698
21.24 5.00748 22.698
4.28625 21 30.519
21.24 -29.42 22.698
-30.54 21 33.341
-30.54 25.8 33.341
6.39036 4.79382 22.698
-30.54 25.8 30.519
6.39036 4.79382 -34.843
-30.54 25.8 -34.843
26.76 -29.42 -34.843
26.76 -29.42 22.698
0.760001 -19.3513 22.698
-23.56 4.36288 -34.843
-23.56 4.36288 30.519
-23.56 21 -34.843
-30.54 4.26245 30.519
21.24 -25.24 22.698
21.24 -25.24 -34.843
6.40559 1.96 22.698
21.24 1.96 22.698
6.40559 1.96 -34.843
21.24 1.96 -34.843
-26.84 -5.56 22.698
21.24 5.00748 -34.843
4.28625 21 -34.843
4.0325 4.75989 -34.843
3.656 -19.3356 -34.843
21.24 -1.88 22.698
6.42624 -1.88 22.698
21.24 -29.42 -34.843
6.42624 -1.88 -34.843
21.24 -1.88 -34.843
-26.84 -1.88 33.341
-26.84 -5.56 33.341
3.49843 -29.42 -34.843
-26.84 29.42 -34.843
-26.84 29.42 30.519
0.760001 -29.42 -34.843
0.760001 -29.42 22.698
-30.54 21 -34.843
-3.52906 21 33.341
0.760001 21 33.341
0.760001 -19.3513 -34.843
-30.54 4.26245 -34.843
30.54 -4.55333 -34.843
4  218 46 47 152  255 0 0
5  218 154 98 97 159  255 0 0
4  218 152 155 154  255 0 0
4  218 159 40 46  255 0 0
4  217 145 34 35  255 89 0
4  217 213 142 189  255 89 0
4  217 189 144 145  255 89 0
4  217 35 36 213  255 89 0
4  84 49 48 83  255 179 0
4  84 170 169 85  240 255 0
4  73 29 28 82  240 255 0
4  73 55 54 72  150 255 0
4  84 85 9 49  255 179 0
4  84 83 26 170  240 255 0
4  73 74 60 55  150 255 0
4  73 82 81 74  240 255 0
4  67 105 106 68  60 255 0
4  67 66 30 71  60 255 0
6  67 143 216 200 19 66  0 255 29
4  67 68 172 143  0 255 29
7  19 65 204 194 181 104 20  59 0 255
4  208 211 212 171  0 255 119
4  208 166 113 114  0 255 119
5  208 114 87 88 211  0 255 119
4  19 200 167 65  0 255 29
4  208 171 165 166  0 255 119
4  16 21 69 17  60 255 0
4  61 65 70 63  59 0 255
8  61 62 97 153 157 197 195 205  59 0 255
4  203 166 165 176  0 255 119
4  203 183 42 191  0 255 119
4  203 191 113 166  0 255 119
3  61 102 62  255 0 0
4  203 176 184 183  0 255 119
4  61 63 101 102  255 0 0
4  199 104 110 162  0 255 209
4  199 29 30 20  0 255 209
4  199 198 28 29  0 255 209
4  199 162 160 198  0 255 209
4  82 83 48 50  255 179 0
4  213 182 180 142  255 89 0
4  213 36 33 182  255 89 0
4  82 50 51 81  255 179 0
7  55 186 35 34 146 56 54  0 210 255
4  50 188 186 55  0 210 255
4  55 60 51 50  0 210 255
4  200 89 90 167  0 255 29
4  44 102 101 45  255 0 0
4  44 191 42 40  0 255 119
5  44 91 90 113 191  0 255 119
4  44 45 92 91  0 255 119
3  67 71 105  60 255 0
5  73 72 71 30 29  240 255 0
3  199 20 104  0 255 209
4  19 20 30 66  60 255 0
4  16 124 123 15  149 0 255
5  168 133 162 22 109  0 255 209
5  16 15 109 22 21  60 255 0
4  21 70 164 173  0 255 29
7  49 209 33 36 188 50 48  0 210 255
5  49 9 8 210 209  0 210 255
4  18 68 106 12  60 255 0
4  18 137 121 17  149 0 255
4  16 17 121 124  149 0 255
4  18 17 69 68  60 255 0
4  143 147 148 216  0 255 29
5  200 216 148 87 89  0 255 29
4  143 172 150 147  0 255 29
4  198 136 26 28  0 255 209
4  82 28 26 83  240 255 0
4  198 160 161 136  0 255 209
4  197 157 158 174  59 0 255
4  197 181 194 195  59 0 255
4  197 174 179 181  59 0 255
4  61 205 204 65  59 0 255
4  167 91 92 164  0 255 29
4  70 65 167 164  0 255 29
4  56 146 196 57  0 210 255
5  56 105 71 72 54  150 255 0
4  56 57 106 105  150 255 0
4  162 133 132 160  0 255 209
7  70 21 22 110 179 192 202  59 0 255
4  63 70 202 201  59 0 255
4  174 193 192 179  59 0 255
3  162 110 22  0 255 209
4  58 59 75 76  150 255 0
5  24 57 196 7 6  0 210 255
4  24 140 107 12  0 30 255
4  24 23 141 140  0 30 255
4  24 6 4 23  0 210 255
6  58 23 4 5 39 187  0 210 255
4  189 39 5 144  255 89 0
4  142 177 38 3  255 89 0
4  53 52 59 58  0 210 255
4  189 142 3 39  255 89 0
4  58 187 2 53  0 210 255
4  80 79 52 53  255 179 0
4  80 214 138 76  240 255 0
4  9 117 116 8  239 0 255
4  9 10 118 117  239 0 255
4  80 53 10 86  255 179 0
4  85 86 10 9  255 179 0
4  173 185 69 21  0 255 29
4  68 69 185 172  0 255 29
4  76 138 77 25  240 255 0
4  76 75 79 80  240 255 0
4  24 12 106 57  150 255 0
4  18 12 107 137  149 0 255
4  76 25 23 58  150 255 0
4  46 163 131 47  0 120 255
4  46 40 42 163  0 120 255
5  44 40 159 62 102  255 0 0
4  175 132 133 168  0 255 209
4  80 32 215 214  240 255 0
4  168 31 32 175  0 255 209
4  51 52 79 81  255 179 0
4  74 75 59 60  150 255 0
4  81 79 75 74  240 255 0
4  60 59 52 51  0 210 255
4  179 110 104 181  59 0 255
5  45 190 111 93 92  0 255 119
3  164 92 93  0 255 29
4  173 164 93 94  0 255 29
4  171 112 111 165  0 255 119
4  176 165 111 190  0 255 119
4  175 135 134 132  0 255 209
4  175 32 27 135  0 255 209
4  85 169 27 86  240 255 0
4  80 86 27 32  240 255 0
6  135 27 26 136 161 134  0 255 209
5  152 151 100 99 155  255 0 0
8  174 158 156 100 64 63 201 193  59 0 255
4  142 180 178 177  255 89 0
4  53 2 0 10  0 210 255
5  173 94 95 149 185  0 255 29
4  172 185 149 150  0 255 29
5  171 212 96 95 112  0 255 119
4  212 211 88 96  0 255 119
4  47 129 128 41  0 120 255
4  47 131 130 129  0 120 255
4  45 41 43 190  0 255 119
4  176 190 43 184  0 255 119
4  210 8 0 1  0 210 255
4  3 2 187 39  0 210 255
4  210 1 33 209  0 210 255
4  202 192 193 201  59 0 255
4  205 195 194 204  59 0 255
4  184 43 42 183  0 255 119
4  180 182 33 1  255 89 0
4  27 169 170 26  240 255 0
4  168 109 14 31  0 255 209
3  167 90 91  0 255 29
4  43 131 163 42  0 120 255
4  160 132 134 161  0 255 209
3  151 64 100  255 0 0
3  159 97 62  255 0 0
4  158 157 153 156  59 0 255
3  153 97 98  59 0 255
3  156 99 100  59 0 255
4  156 153 98 99  59 0 255
4  155 99 98 154  255 0 0
5  41 45 101 64 151  255 0 0
4  47 41 151 152  255 0 0
3  63 64 101  255 0 0
3  148 88 87  0 255 29
4  149 96 88 148  0 255 29
4  150 149 148 147  0 255 29
4  35 186 188 36  0 210 255
5  146 34 5 7 196  0 210 255
4  5 34 145 144  255 89 0
4  113 90 89 114  0 255 119
4  31 14 108 139  240 255 0
4  43 41 128 127  0 120 255
4  23 25 77 141  0 30 255
4  3 38 126 2  255 0 90
4  1 0 125 37  255 0 90
4  10 0 115 118  239 0 255
3  137 107 78  149 0 255
5  77 78 107 140 141  0 30 255
4  11 14 109 15  60 255 0
4  11 122 108 14  149 0 255
3  122 103 108  149 0 255
5  139 108 103 77 138  240 255 0
4  7 207 119 6  255 0 180
4  7 5 206 207  255 0 180
4  31 139 215 32  240 255 0
4  139 138 214 215  240 255 0
4  5 4 120 206  255 0 180
4  207 206 120 119  255 0 180
4  38 37 125 126  255 0 90
3  114 89 87  0 255 119
4  112 94 93 111  0 255 119
3  112 95 94  0 255 119
3  149 95 96  0 255 29
4  1 37 178 180  255 89 0
4  38 177 178 37  255 89 0
5  121 137 78 103 122  149 0 255
3  77 103 78  240 255 0
4  131 43 127 130  0 120 255
4  130 127 128 129  0 120 255
4  126 125 0 2  255 0 90
4  122 11 15 123  149 0 255
4  124 121 122 123  149 0 255
4  120 4 6 119  255 0 180
4  118 115 116 117  239 0 255
4  8 116 115 0  239 0 255
3  110 104 22  0 255 209
3  104 110 22  59 0 255
3  109 22 14  0 255 209
3  22 109 14  60 255 0
3  108 14 103  240 255 0
3  14 108 103  149 0 255
4  78 103 14 13  240 255 0
4  103 78 13 14  149 0 255
4  107 78 13 12  0 30 255
4  78 107 12 13  149 0 255
5  106 12 13 71 105  150 255 0
5  12 106 105 71 13  60 255 0
4  30 71 13 14  240 255 0
4  71 30 14 13  60 255 0
4  20 30 14 22  0 255 209
4  30 20 22 14  60 255 0
3  104 20 22  0 255 209
3  20 104 22  59 0 255
6  100 64 62 97 98 99  255 0 0
6  64 100 99 98 97 62  59 0 255
10  96 88 87 89 90 91 92 93 94 95  0 255 119
10  88 96 95 94 93 92 91 90 89 87  0 255 29
8  86 80 79 81 82 83 84 85  240 255 0
8  80 86 85 84 83 82 81 79  255 179 0
4  78 13 25 77  240 255 0
3  71 13 25  150 255 0
4  78 77 25 13  0 30 255
7  76 25 71 72 73 74 75  240 255 0
7  25 76 75 74 73 72 71  150 255 0
3  71 25 13  240 255 0
4  70 65 19 21  59 0 255
4  65 70 21 19  0 255 29
6  69 21 19 66 67 68  60 255 0
6  21 69 68 67 66 19  0 255 29
4  64 62 61 63  59 0 255
4  62 64 63 61  255 0 0
9  60 55 54 56 57 24 23 58 59  0 210 255
9  55 60 59 58 23 24 57 56 54  150 255 0
8  9 49 48 50 51 52 53 10  0 210 255
8  49 9 10 53 52 51 50 48  255 179 0
4  41 45 44 40  0 255 119
4  45 41 40 44  255 0 0
4  47 41 40 46  0 120 255
4  41 47 46 40  255 0 0
4  43 41 40 42  0 255 119
4  41 43 42 40  0 120 255
7  39 5 34 35 36 33 3  0 210 255
7  5 39 3 33 36 35 34  255 89 0
4  38 3 1 37  255 0 90
4  3 38 37 1  255 89 0
3  33 1 3  0 210 255
3  1 33 3  255 89 0
8  32 27 26 28 29 30 14 31  240 255 0
8  27 32 31 14 30 29 28 26  0 255 209
5  12 24 23 25 13  150 255 0
5  24 12 13 25 23  0 30 255
4  22 20 19 21  60 255 0
4  20 22 21 19  59 0 255
6  18 12 11 15 16 17  60 255 0
6  12 18 17 16 15 11  149 0 255
4  14 11 12 13  60 255 0
4  11 14 13 12  149 0 255
4  10 0 8 9  0 210 255
4  0 10 9 8  239 0 255
4  7 5 4 6  0 210 255
4  5 7 6 4  255 0 180
4  3 1 0 2  0 210 255
4  1 3 2 0  255 0 90

